mtllib Cabinet_cc651d88.mtl
g FP405:Door_77a97090
v -0.01011 0.33136 0.43214
v -0.01011 -0.3363 0
v -0.01011 0.33136 0
v -0.01011 -0.3363 0.43214
v -0.01011 -0.3363 0.43214
v 0.01451 0.33136 0.43214
v 0.01451 -0.3363 0.43214
v -0.01011 0.33136 0.43214
v -0.01011 0.33136 0.43214
v 0.01451 0.33136 0
v 0.01451 0.33136 0.43214
v -0.01011 0.33136 0
v -0.01011 0.33136 0
v 0.01451 -0.3363 0
v 0.01451 0.33136 0
v -0.01011 -0.3363 0
v -0.01011 -0.3363 0
v 0.01451 -0.3363 0.43214
v 0.01451 -0.3363 0
v -0.01011 -0.3363 0.43214
v 0.01451 0.33136 0.43214
v 0.01451 -0.3363 0
v 0.01451 -0.3363 0.43214
v 0.01451 0.33136 0
v -0.02118 0.21478 0.38896
v -0.01084 0.21478 0.38896
v -0.01601 0.21478 0.3911
v -0.01084 0.21478 0.37863
v -0.0087 0.21478 0.3838
v -0.02118 0.21478 0.37863
v -0.01084 0.21478 0.37863
v -0.02118 0.21478 0.37863
v -0.01601 0.21478 0.37649
v -0.02118 0.21478 0.38896
v -0.02332 0.21478 0.3838
v -0.01084 0.21478 0.38896
v -0.02118 0.13469 0.37863
v -0.01084 0.13469 0.37863
v -0.01601 0.13469 0.37649
v -0.01084 0.13469 0.38896
v -0.0087 0.13469 0.3838
v -0.02118 0.13469 0.38896
v -0.01084 0.13469 0.38896
v -0.02118 0.13469 0.38896
v -0.01601 0.13469 0.3911
v -0.02118 0.13469 0.37863
v -0.02332 0.13469 0.3838
v -0.01084 0.13469 0.37863
v -0.01084 0.21376 0.38896
v -0.0087 0.21478 0.3838
v -0.0087 0.21376 0.3838
v -0.01084 0.21478 0.38896
v -0.01601 0.21376 0.37649
v -0.02118 0.21478 0.37863
v -0.02118 0.21376 0.37863
v -0.01601 0.21478 0.37649
v -0.02118 0.21376 0.37863
v -0.02332 0.21478 0.3838
v -0.02332 0.21376 0.3838
v -0.02118 0.21478 0.37863
v -0.0087 0.21376 0.3838
v -0.01084 0.21478 0.37863
v -0.01084 0.21376 0.37863
v -0.0087 0.21478 0.3838
v -0.01601 0.21376 0.3911
v -0.01084 0.21478 0.38896
v -0.01084 0.21376 0.38896
v -0.01601 0.21478 0.3911
v -0.01084 0.21376 0.37863
v -0.01601 0.21478 0.37649
v -0.01601 0.21376 0.37649
v -0.01084 0.21478 0.37863
v -0.02332 0.21376 0.3838
v -0.02118 0.21478 0.38896
v -0.02118 0.21376 0.38896
v -0.02332 0.21478 0.3838
v -0.02118 0.21376 0.38896
v -0.01601 0.21478 0.3911
v -0.01601 0.21376 0.3911
v -0.02118 0.21478 0.38896
v -0.02118 0.13571 0.38896
v -0.02118 0.21376 0.38896
v -0.01601 0.21376 0.3911
v -0.01601 0.13571 0.3911
v -0.02118 0.13469 0.38896
v -0.01601 0.13469 0.3911
v -0.02332 0.13571 0.3838
v -0.02332 0.21376 0.3838
v -0.02118 0.21376 0.38896
v -0.02118 0.13571 0.38896
v -0.02332 0.13469 0.3838
v -0.02118 0.13469 0.38896
v -0.01084 0.13571 0.37863
v -0.01084 0.21376 0.37863
v -0.01601 0.21376 0.37649
v -0.01601 0.13571 0.37649
v -0.01084 0.13469 0.37863
v -0.01601 0.13469 0.37649
v -0.01601 0.13571 0.3911
v -0.01601 0.21376 0.3911
v -0.01084 0.21376 0.38896
v -0.01084 0.13571 0.38896
v -0.01601 0.13469 0.3911
v -0.01084 0.13469 0.38896
v -0.0087 0.13571 0.3838
v -0.0087 0.21376 0.3838
v -0.01084 0.21376 0.37863
v -0.01084 0.13571 0.37863
v -0.0087 0.13469 0.3838
v -0.01084 0.13469 0.37863
v -0.02118 0.13571 0.37863
v -0.02118 0.21376 0.37863
v -0.02332 0.21376 0.3838
v -0.02332 0.13571 0.3838
v -0.02118 0.13469 0.37863
v -0.02332 0.13469 0.3838
v -0.01601 0.13571 0.37649
v -0.01601 0.21376 0.37649
v -0.02118 0.21376 0.37863
v -0.02118 0.13571 0.37863
v -0.01601 0.13469 0.37649
v -0.02118 0.13469 0.37863
v -0.01084 0.13571 0.38896
v -0.01084 0.21376 0.38896
v -0.0087 0.21376 0.3838
v -0.0087 0.13571 0.3838
v -0.01084 0.13469 0.38896
v -0.0087 0.13469 0.3838
vn -1 0 0
vn -1 0 0
vn -1 0 0
vn -1 0 0
vn 0 0 1
vn 0 0 1
vn 0 0 1
vn 0 0 1
vn 0 1 0
vn 0 1 0
vn 0 1 0
vn 0 1 0
vn 0 0 -1
vn 0 0 -1
vn 0 0 -1
vn 0 0 -1
vn 0 -1 0
vn 0 -1 0
vn 0 -1 0
vn 0 -1 0
vn 1 0 0
vn 1 0 0
vn 1 0 0
vn 1 0 0
vn 0 1 0
vn 0 1 0
vn 0 1 0
vn 0 1 0
vn 0 1 0
vn 0 1 0
vn 0 1 0
vn 0 1 0
vn 0 1 0
vn 0 1 0
vn 0 1 0
vn 0 1 0
vn 0 -1 0
vn 0 -1 0
vn 0 -1 0
vn 0 -1 0
vn 0 -1 0
vn 0 -1 0
vn 0 -1 0
vn 0 -1 0
vn 0 -1 0
vn 0 -1 0
vn 0 -1 0
vn 0 -1 0
vn 0.9238681 0 0.3827109
vn 0.9238681 0 0.3827109
vn 0.9238681 0 0.3827109
vn 0.9238723 0 0.382701
vn -0.3826953 0 -0.9238746
vn -0.3826953 0 -0.9238746
vn -0.3826953 0 -0.9238746
vn -0.3826691 0 -0.9238855
vn -0.9238903 0 -0.3826575
vn -0.9238903 0 -0.3826575
vn -0.9238903 0 -0.3826575
vn -0.9238862 0 -0.3826674
vn 0.9238698 0 -0.3827068
vn 0.9238698 0 -0.3827068
vn 0.9238698 0 -0.3827068
vn 0.9238739 0 -0.3826969
vn 0.3826953 0 0.9238746
vn 0.3826953 0 0.9238746
vn 0.3826953 0 0.9238746
vn 0.3826691 0 0.9238855
vn 0.3826855 0 -0.9238787
vn 0.3826855 0 -0.9238787
vn 0.3826855 0 -0.9238787
vn 0.3826788 0 -0.9238814
vn -0.9238886 0 0.3826616
vn -0.9238886 0 0.3826616
vn -0.9238886 0 0.3826616
vn -0.9238845 0 0.3826714
vn -0.3826855 0 0.9238787
vn -0.3826855 0 0.9238787
vn -0.3826855 0 0.9238787
vn -0.3826788 0 0.9238814
vn -0.3826832 0 0.9238796
vn -0.3826855 0 0.9238787
vn -0.3826855 0 0.9238787
vn -0.3826832 0 0.9238796
vn -0.3826689 0 0.9238856
vn -0.3826689 0 0.9238856
vn -0.9238871 0 0.3826654
vn -0.9238886 0 0.3826616
vn -0.9238886 0 0.3826616
vn -0.9238871 0 0.3826654
vn -0.9238904 0 0.3826573
vn -0.9238904 0 0.3826573
vn 0.3826832 0 -0.9238796
vn 0.3826855 0 -0.9238787
vn 0.3826855 0 -0.9238787
vn 0.3826832 0 -0.9238796
vn 0.3826689 0 -0.9238856
vn 0.3826689 0 -0.9238856
vn 0.3826832 0 0.9238796
vn 0.3826953 0 0.9238746
vn 0.3826953 0 0.9238746
vn 0.3826832 0 0.9238796
vn 0.3826786 0 0.9238815
vn 0.3826786 0 0.9238815
vn 0.9238734 0 -0.3826981
vn 0.9238698 0 -0.3827068
vn 0.9238698 0 -0.3827068
vn 0.9238734 0 -0.3826981
vn 0.923874 0 -0.3826966
vn 0.923874 0 -0.3826966
vn -0.9238884 0 -0.382662
vn -0.9238903 0 -0.3826575
vn -0.9238903 0 -0.3826575
vn -0.9238884 0 -0.382662
vn -0.923892 0 -0.3826532
vn -0.923892 0 -0.3826532
vn -0.3826832 0 -0.9238796
vn -0.3826953 0 -0.9238746
vn -0.3826953 0 -0.9238746
vn -0.3826832 0 -0.9238796
vn -0.3826786 0 -0.9238815
vn -0.3826786 0 -0.9238815
vn 0.9238706 0 0.382705
vn 0.9238681 0 0.3827109
vn 0.9238681 0 0.3827109
vn 0.9238706 0 0.382705
vn 0.9238724 0 0.3827006
vn 0.9238724 0 0.3827006
vt 0.5712674 0.007236481
vt 4.038693 -4.695138
vt 4.038693 0.007236481
vt 0.5712674 -4.695138
vt 0.5278466 0.3048623
vt 0.3303003 5.007236
vt 0.3303003 0.3048623
vt 0.5278466 5.007236
vt 0.5712674 0.5278466
vt 4.038693 0.3303003
vt 0.5712674 0.3303003
vt 4.038693 0.5278466
vt 0.5278466 0.007236481
vt 0.3303003 -4.695138
vt 0.3303003 0.007236481
vt 0.5278466 -4.695138
vt 0.03869367 0.5278466
vt -3.428733 0.3303003
vt 0.03869367 0.3303003
vt -3.428733 0.5278466
vt 0.5712674 0.007236481
vt 4.038693 -4.695138
vt 0.5712674 -4.695138
vt 4.038693 0.007236481
vt 0.9177001 0.6166117
vt 0.9177001 0.533684
vt 0.9005253 0.5751479
vt 1.000627 0.533684
vt 0.9591634 0.5165083
vt 1.000627 0.6166117
vt 0.0006272793 0.533684
vt 0.0006272793 0.6166117
vt 0.017802 0.5751479
vt -0.08229995 0.6166117
vt -0.04083657 0.6337855
vt -0.08229995 0.533684
vt 0.0006272793 0.6166117
vt 0.0006272793 0.533684
vt 0.017802 0.5751479
vt -0.08229995 0.533684
vt -0.04083657 0.5165083
vt -0.08229995 0.6166117
vt 0.9177001 0.533684
vt 0.9177001 0.6166117
vt 0.9005253 0.5751479
vt 1.000627 0.6166117
vt 0.9591634 0.6337855
vt 1.000627 0.533684
vt 0.9177001 0.1789794
vt 0.9591634 0.1861653
vt 0.9591634 0.1789794
vt 0.9177001 0.1861653
vt 0.5751479 0.1789794
vt 0.6166117 0.1861653
vt 0.6166117 0.1789794
vt 0.5751479 0.1861653
vt 0.0006272793 0.1789794
vt -0.04083657 0.1861653
vt -0.04083657 0.1789794
vt 0.0006272793 0.1861653
vt 0.9591634 0.1789794
vt 1.000627 0.1861653
vt 1.000627 0.1789794
vt 0.9591634 0.1861653
vt 0.5751479 0.1789794
vt 0.533684 0.1861653
vt 0.533684 0.1789794
vt 0.5751479 0.1861653
vt 0.533684 0.1789794
vt 0.5751479 0.1861653
vt 0.5751479 0.1789794
vt 0.533684 0.1861653
vt 0.9591634 0.1789794
vt 0.9177001 0.1861653
vt 0.9177001 0.1789794
vt 0.9591634 0.1861653
vt 0.6166117 0.1789794
vt 0.5751479 0.1861653
vt 0.5751479 0.1789794
vt 0.6166117 0.1861653
vt 0.6166117 0.629259
vt 0.6166117 1.178979
vt 0.5751479 1.178979
vt 0.5751479 0.629259
vt 0.6166117 0.6220437
vt 0.5751479 0.6220437
vt 0.9591634 0.629259
vt 0.9591634 1.178979
vt 0.9177001 1.178979
vt 0.9177001 0.629259
vt 0.9591634 0.6220437
vt 0.9177001 0.6220437
vt 0.533684 0.629259
vt 0.533684 1.178979
vt 0.5751479 1.178979
vt 0.5751479 0.629259
vt 0.533684 0.6220437
vt 0.5751479 0.6220437
vt 0.5751479 0.629259
vt 0.5751479 1.178979
vt 0.533684 1.178979
vt 0.533684 0.629259
vt 0.5751479 0.6220437
vt 0.533684 0.6220437
vt 0.9591634 0.629259
vt 0.9591634 1.178979
vt 1.000627 1.178979
vt 1.000627 0.629259
vt 0.9591634 0.6220437
vt 1.000627 0.6220437
vt 0.0006272793 0.629259
vt 0.0006272793 1.178979
vt -0.04083657 1.178979
vt -0.04083657 0.629259
vt 0.0006272793 0.6220437
vt -0.04083657 0.6220437
vt 0.5751479 0.629259
vt 0.5751479 1.178979
vt 0.6166117 1.178979
vt 0.6166117 0.629259
vt 0.5751479 0.6220437
vt 0.6166117 0.6220437
vt 0.9177001 0.629259
vt 0.9177001 1.178979
vt 0.9591634 1.178979
vt 0.9591634 0.629259
vt 0.9177001 0.6220437
vt 0.9591634 0.6220437
usemtl Cream_wood
f 3/3/3 2/2/2 1/1/1
f 2/2/2 4/4/4 1/1/1
f 7/7/7 6/6/6 5/5/5
f 6/6/6 8/8/8 5/5/5
f 11/11/11 10/10/10 9/9/9
f 10/10/10 12/12/12 9/9/9
f 15/15/15 14/14/14 13/13/13
f 14/14/14 16/16/16 13/13/13
f 19/19/19 18/18/18 17/17/17
f 18/18/18 20/20/20 17/17/17
f 23/23/23 22/22/22 21/21/21
f 22/22/22 24/24/24 21/21/21
usemtl HammeredMetal_AlbedoTransparency
f 27/27/27 26/26/26 25/25/25
f 29/29/29 28/28/28 26/26/26
f 28/28/28 30/30/30 26/26/26
f 33/33/33 32/32/32 31/31/31
f 35/35/35 34/34/34 32/32/32
f 34/34/34 36/36/36 32/32/32
f 39/39/39 38/38/38 37/37/37
f 41/41/41 40/40/40 38/38/38
f 40/40/40 42/42/42 38/38/38
f 45/45/45 44/44/44 43/43/43
f 47/47/47 46/46/46 44/44/44
f 46/46/46 48/48/48 44/44/44
f 51/51/51 50/50/50 49/49/49
f 50/50/50 52/52/52 49/49/49
f 55/55/55 54/54/54 53/53/53
f 54/54/54 56/56/56 53/53/53
f 59/59/59 58/58/58 57/57/57
f 58/58/58 60/60/60 57/57/57
f 63/63/63 62/62/62 61/61/61
f 62/62/62 64/64/64 61/61/61
f 67/67/67 66/66/66 65/65/65
f 66/66/66 68/68/68 65/65/65
f 71/71/71 70/70/70 69/69/69
f 70/70/70 72/72/72 69/69/69
f 75/75/75 74/74/74 73/73/73
f 74/74/74 76/76/76 73/73/73
f 79/79/79 78/78/78 77/77/77
f 78/78/78 80/80/80 77/77/77
f 83/83/83 82/82/82 81/81/81
f 84/84/84 83/83/83 81/81/81
f 84/84/84 81/81/81 85/85/85
f 86/86/86 84/84/84 85/85/85
f 89/89/89 88/88/88 87/87/87
f 90/90/90 89/89/89 87/87/87
f 90/90/90 87/87/87 91/91/91
f 92/92/92 90/90/90 91/91/91
f 95/95/95 94/94/94 93/93/93
f 96/96/96 95/95/95 93/93/93
f 96/96/96 93/93/93 97/97/97
f 98/98/98 96/96/96 97/97/97
f 101/101/101 100/100/100 99/99/99
f 102/102/102 101/101/101 99/99/99
f 102/102/102 99/99/99 103/103/103
f 104/104/104 102/102/102 103/103/103
f 107/107/107 106/106/106 105/105/105
f 108/108/108 107/107/107 105/105/105
f 108/108/108 105/105/105 109/109/109
f 110/110/110 108/108/108 109/109/109
f 113/113/113 112/112/112 111/111/111
f 114/114/114 113/113/113 111/111/111
f 114/114/114 111/111/111 115/115/115
f 116/116/116 114/114/114 115/115/115
f 119/119/119 118/118/118 117/117/117
f 120/120/120 119/119/119 117/117/117
f 120/120/120 117/117/117 121/121/121
f 122/122/122 120/120/120 121/121/121
f 125/125/125 124/124/124 123/123/123
f 126/126/126 125/125/125 123/123/123
f 126/126/126 123/123/123 127/127/127
f 128/128/128 126/126/126 127/127/127
