mtllib material.mtl
usemtl material_0
v -0.00216376 -0.04017309 -0.00450960
v -0.00483095 -0.04020233 -0.00093052
v -0.00000002 -0.04063651 -0.00000000
v -0.00522000 0.03104969 -0.01971579
v -0.00811729 0.02336475 -0.02408730
v -0.00160646 0.02336472 -0.02536745
v -0.00185890 0.01578900 -0.02888990
v 0.00228132 0.01230812 -0.03020933
v -0.00651183 0.01184294 -0.02968886
v -0.00264409 0.00413220 -0.03181948
v 0.00568169 0.00413219 -0.03141984
v -0.00000002 -0.00327148 -0.03227869
v -0.00653924 -0.00408357 -0.03166841
v 0.00418583 -0.00840417 -0.03179381
v -0.00204937 -0.01055076 -0.03166443
v -0.00195774 -0.01565155 -0.03039375
v -0.00432430 0.04115156 -0.00291442
v 0.00036167 0.04115157 -0.00520205
v -0.00000002 0.04179697 -0.00000000
v -0.00179735 0.03994267 -0.00831974
v 0.00260318 0.03994267 -0.00810385
v 0.00494959 0.04118564 -0.00161502
v -0.00000002 0.04179697 -0.00000000
v 0.00630648 0.03994267 -0.00571655
v 0.00690603 0.03803283 -0.01005364
v 0.00159685 0.03798286 -0.01212808
v 0.00831970 0.03994269 -0.00179739
v 0.01121506 0.03809949 -0.00464545
v 0.01318301 0.03543200 -0.00875659
v 0.00973518 0.03534400 -0.01268716
v 0.00302552 0.03552425 -0.01555578
v 0.01212807 0.03798287 0.00159681
v 0.01517903 0.03556411 -0.00406722
v 0.00810381 0.03994269 0.00260320
v 0.00438399 0.04112006 0.00274468
v 0.01005360 0.03803284 0.00690601
v 0.01555580 0.03552425 0.00302551
v 0.01268713 0.03534402 0.00973520
v 0.00571649 0.03994269 0.00630646
v 0.00099681 0.04115157 0.00511858
v 0.00694846 0.03552425 0.01424256
v 0.01130833 0.03091261 0.01705817
v -0.00436285 0.04118564 0.00284102
v -0.00432430 0.04115156 -0.00291442
v -0.00850174 0.03994267 -0.00041715
v 0.00464545 0.03809949 0.01121474
v 0.00061103 0.04001809 0.00843275
v -0.00757124 0.03994267 0.00388940
v -0.01130159 0.03798287 0.00468115
v -0.00000002 0.03556411 0.01571456
v 0.00031428 0.03135493 0.02014728
v -0.00222562 0.03803284 0.01199228
v -0.00461203 0.03994269 0.00715412
v -0.00552098 0.03412150 0.01655140
v -0.00377432 0.02666432 0.02326445
v -0.01025011 0.03104970 0.01763234
v -0.00792374 0.03803284 0.00927282
v -0.00973523 0.03534402 0.01268714
v -0.01446417 0.03104970 0.01437847
v -0.01424259 0.03552425 0.00694846
v -0.01580871 0.03552425 -0.00110375
v -0.00515760 0.03552425 -0.01498456
v -0.00406883 0.03803283 -0.01149847
v 0.00006050 0.03104969 -0.02039495
v 0.00533700 0.03104969 -0.01968443
v 0.00501399 0.02336475 -0.02491887
v 0.00970353 0.01260926 -0.02858909
v 0.01129253 0.02336474 -0.02277221
v 0.01172879 0.03225885 -0.01528523
v 0.01705813 0.03091260 -0.01130836
v 0.00973397 0.02891238 -0.01965101
v 0.01490080 0.02666431 -0.01826053
v 0.01605494 0.01578898 -0.02409000
v 0.01907365 0.02336476 -0.01680159
v 0.01221988 0.00372598 -0.02950129
v 0.01565451 0.00804864 -0.02711444
v 0.01017114 -0.00408359 -0.03069524
v 0.01613950 -0.00327150 -0.02795438
v 0.01017489 -0.01055077 -0.03005508
v 0.00597541 -0.01565156 -0.02986491
v 0.01350142 -0.01565156 -0.02730055
v 0.01760709 -0.01055077 -0.02639743
v 0.02284479 0.01345517 -0.01924014
v 0.02026235 0.01068204 -0.02305818
v 0.02063033 0.00413221 -0.02436931
v 0.02149722 -0.00408358 -0.02415599
v 0.02623470 0.00413219 -0.01819970
v 0.02216553 0.02292798 -0.01279722
v 0.02383939 -0.01055077 -0.02094079
v 0.02010740 -0.01565156 -0.02287587
v 0.02707683 0.01260928 -0.01335410
v 0.02408724 0.02336475 -0.00811727
v 0.02701685 -0.00408357 -0.01776908
v 0.03005099 0.00413219 -0.01078952
v 0.02396159 -0.01891496 -0.01681695
v 0.01814587 -0.02260828 -0.02062430
v 0.02893947 -0.00809335 -0.01393415
v 0.01940399 0.03091260 -0.00650813
v 0.02961068 0.01260927 -0.00589121
v 0.02049615 -0.02692284 -0.01363097
v 0.01408458 -0.02875229 -0.01835509
v 0.02730059 -0.01565154 -0.01350144
v 0.02602661 -0.02260828 -0.00878842
v 0.02536738 0.02336474 -0.00160644
v 0.02059620 0.03080268 -0.00037213
v 0.02187278 -0.02931990 -0.00586077
v 0.01672694 -0.03269888 -0.00965732
v 0.02688339 -0.02334532 -0.00241913
v 0.02396328 -0.02757949 0.00219607
v 0.02986488 -0.01565156 -0.00597540
v 0.02844680 -0.02047808 0.00182301
v 0.02332572 -0.02692284 0.00786166
v 0.02700559 -0.02047807 0.00912367
v 0.02986488 -0.01565155 0.00597539
v 0.03141351 -0.01222644 -0.00139596
v 0.03005511 -0.01055076 -0.01017492
v 0.03166844 -0.00408358 -0.00653925
v 0.03228179 -0.00408359 0.00187982
v 0.03111598 -0.01055077 0.00621571
v 0.03069527 -0.00408356 0.01017114
v 0.03165870 0.00372599 -0.00416809
v 0.03141987 0.00413221 0.00568167
v 0.02887845 0.00413221 0.01362007
v 0.03130905 0.00804865 -0.00000000
v 0.03010038 0.01068205 0.00601879
v 0.02808505 0.01345520 0.01016407
v 0.02888996 0.01578898 0.00185891
v 0.02491890 0.02336474 0.00501399
v 0.02328747 0.02364428 0.00964611
v 0.02048786 0.02868089 0.00848631
v 0.01825282 0.03264704 0.00489078
v 0.01577011 0.03111207 0.01284439
v 0.02116579 0.02336477 0.01407487
v 0.01680163 0.02336474 0.01907330
v 0.01218950 -0.02260829 -0.02461794
v 0.00540267 -0.02260828 -0.02693396
v 0.00586078 -0.02931990 -0.02187277
v 0.01199933 -0.03234082 -0.01563781
v 0.00887277 -0.03551220 -0.01314780
v 0.01362253 -0.03554571 -0.00786488
v 0.00804316 -0.03791307 -0.00885774
v 0.00372827 -0.03264818 -0.01911165
v -0.00155652 -0.02692283 -0.02456567
v -0.00182301 -0.02047808 -0.02844679
v -0.00499884 -0.03269887 -0.01865649
v -0.00208926 -0.03535567 -0.01586997
v 0.00244915 -0.03696527 -0.01341387
v -0.00458038 -0.03785117 -0.01105788
v -0.00360358 -0.03943602 -0.00742753
v 0.00171415 -0.03939734 -0.00807913
v 0.00552390 -0.03939733 -0.00613949
v 0.00258467 -0.04024328 -0.00403372
v 0.02844680 -0.01055077 0.01405731
v 0.02730059 -0.01565154 0.01350144
v 0.02701685 -0.00408358 0.01776908
v 0.02383939 -0.01055075 0.02094078
v 0.02372409 -0.02047808 0.01580231
v 0.02287584 -0.01565155 0.02010744
v 0.01952183 -0.00840415 0.02544143
v 0.02282452 -0.00327152 0.02282449
v 0.02436934 0.00413221 0.02063031
v 0.02049615 -0.02692283 0.01363097
v 0.01879233 -0.01891496 0.02244584
v 0.02510356 0.01260928 0.01677238
v 0.01943885 0.00372598 0.02533320
v 0.01626980 -0.02692283 0.01847112
v 0.01990713 0.01260926 0.02269819
v 0.01451297 -0.00408356 0.02889700
v 0.01565451 0.00804865 0.02711442
v 0.01129253 0.02336476 0.02277219
v 0.01283499 0.01578899 0.02594892
v 0.00650815 0.03091260 0.01940393
v 0.00662429 0.02292798 0.02472239
v 0.00160641 0.02336475 0.02536742
v 0.00920475 0.01184294 0.02896707
v 0.00197337 0.01260928 0.03012647
v -0.00589121 0.01260927 0.02961062
v 0.01078951 0.00413219 0.03005098
v 0.00264410 0.00413220 0.03181947
v -0.00416809 0.00372596 0.03165871
v -0.01078950 0.00413219 0.03005098
v -0.00187984 -0.00408355 0.03228178
v 0.00653926 -0.00408356 0.03166840
v -0.00204943 -0.01055076 0.03166442
v -0.00819628 -0.01052701 0.03058894
v -0.00770288 -0.01766765 0.02874756
v 0.00621570 -0.01055076 0.03111600
v -0.00195774 -0.01565153 0.03039375
v -0.00182301 -0.02047808 0.02844679
v 0.00597541 -0.01565153 0.02986491
v 0.00560168 -0.02047808 0.02794942
v 0.01405734 -0.01055076 0.02844682
v 0.01350142 -0.01565154 0.02730054
v 0.01264446 -0.02047807 0.02554708
v 0.00829283 -0.02493891 0.02456756
v 0.01107973 -0.02717942 0.02177592
v 0.00338189 -0.03109834 0.02078737
v 0.00866275 -0.03247579 0.01746349
v 0.00516772 -0.03551220 0.01499618
v 0.01365733 -0.03269887 0.01365734
v 0.01237670 -0.03575777 0.00949690
v 0.00399440 -0.03780624 0.01132110
v 0.01746346 -0.03247580 0.00866276
v 0.01954241 -0.03234082 0.00257294
v 0.01586998 -0.03535567 0.00208926
v 0.01195079 -0.03791307 -0.00057603
v 0.00949575 -0.03785117 0.00728620
v 0.00540316 -0.03943602 0.00624174
v 0.01727372 -0.03417749 -0.00354631
v 0.00807912 -0.03939733 0.00171414
v 0.00483096 -0.04020233 0.00093053
v 0.00785360 -0.03939733 -0.00255495
v -0.02887850 0.00413218 0.01362008
v -0.02704631 0.01345520 0.01267194
v -0.02554005 0.01068204 0.01702834
v -0.02961060 0.01260927 0.00589119
v -0.02408728 0.02336475 0.00811726
v -0.02216545 0.02292797 0.01279720
v -0.03141986 0.00413220 0.00568168
v -0.03069526 -0.00408358 0.01017115
v -0.03228178 -0.00408357 0.00187983
v -0.01769290 0.03104970 0.01014479
v -0.01907327 0.02336475 0.01680159
v -0.01999082 0.03080267 0.00497130
v -0.02536743 0.02336473 0.00160642
v -0.03025688 0.01217740 -0.00000002
v -0.03167527 0.00539779 -0.00000001
v -0.03141986 0.00413219 -0.00568170
v -0.03179383 -0.00840415 -0.00418580
v -0.02042702 0.03091260 -0.00126417
v -0.02961060 0.01260927 -0.00589119
v -0.03117897 -0.00327149 -0.00835448
v -0.03005510 -0.01055076 -0.01017492
v -0.02950130 0.00372595 -0.01221992
v -0.02889702 -0.00408356 -0.01451301
v -0.02499061 0.02364427 -0.00329002
v -0.02639743 -0.01055077 -0.01760711
v -0.02730057 -0.01565155 -0.01350145
v -0.02396163 -0.01891497 -0.01681694
v -0.02010745 -0.01565155 -0.02287587
v -0.01882573 -0.02047808 -0.02140420
v -0.01491259 -0.02289593 -0.02288797
v -0.02079132 -0.02465906 -0.01595364
v -0.01835509 -0.02875229 -0.01408458
v -0.01350147 -0.01565155 -0.02730055
v -0.00912369 -0.02047808 -0.02700558
v -0.02094081 -0.01055076 -0.02383936
v -0.02415598 -0.00408358 -0.02149726
v -0.01809532 -0.00809336 -0.02653687
v -0.02623474 0.00413220 -0.01819969
v -0.02063032 0.00413218 -0.02436931
v -0.02707718 0.01260927 -0.01335409
v -0.01451301 -0.00408357 -0.02889701
v -0.00947885 -0.01222647 -0.02998198
v -0.02269819 0.01260928 -0.01990712
v -0.02408728 0.02336475 -0.00811728
v -0.02116578 0.02336474 -0.01407489
v -0.02048790 0.02868089 -0.00848632
v -0.01711895 0.03258416 -0.00836973
v -0.01646195 0.02891237 -0.01448832
v -0.01680162 0.02336475 -0.01907331
v -0.01825462 0.01301942 -0.02378982
v -0.01417462 0.00888145 -0.02781095
v -0.01360914 0.03556411 -0.00785716
v -0.01157341 0.03412149 -0.01305720
v -0.01014479 0.03104970 -0.01769287
v -0.01279721 0.02292798 -0.02216549
v -0.01203491 0.03809949 -0.00158438
v -0.01283497 0.01578899 -0.02594893
v -0.00927282 0.03803284 -0.00792378
v -0.00639495 0.04001809 -0.00553088
v -0.00406883 0.03803283 -0.01149847
v -0.00179735 0.03994267 -0.00831974
v -0.00515760 0.03552425 -0.01498456
v -0.00522000 0.03104969 -0.01971579
v -0.00811729 0.02336475 -0.02408730
v -0.00651183 0.01184294 -0.02968886
v -0.00185890 0.01578900 -0.02888990
v -0.00160646 0.02336472 -0.02536745
v -0.01078950 0.00413219 -0.03005098
v -0.00264409 0.00413220 -0.03181948
v -0.00653924 -0.00408357 -0.03166841
v -0.00204937 -0.01055076 -0.03166443
v -0.00195774 -0.01565155 -0.03039375
v -0.02701690 -0.00408356 0.01776907
v -0.02436932 0.00413220 0.02063031
v -0.02149727 -0.00408356 0.02415597
v -0.02094081 -0.01055076 0.02383935
v -0.02639743 -0.01055077 0.01760711
v -0.02026239 0.01068205 0.02305816
v -0.01819967 0.00413221 0.02623473
v -0.02174275 0.01578899 0.01911392
v -0.01605493 0.01578899 0.02408998
v -0.01312906 0.01230811 0.02730270
v -0.01407488 0.02336475 0.02116575
v -0.00811729 0.02336476 0.02408728
v -0.01613948 -0.00327150 0.02795437
v -0.01017112 -0.00408355 0.03069523
v -0.01405733 -0.01055076 0.02844682
v -0.01350147 -0.01565154 0.02730054
v -0.02010745 -0.01565155 0.02287586
v -0.01264451 -0.02047808 0.02554708
v -0.01882573 -0.02047807 0.02140420
v -0.01595361 -0.02465905 0.02079135
v -0.00829287 -0.02493891 0.02456756
v -0.00000002 -0.02600179 0.02528982
v -0.00421729 -0.03089606 0.02079495
v -0.00302272 -0.03551220 0.01557076
v -0.00220129 -0.03780624 0.01180154
v 0.00160962 -0.04020233 0.00464901
v -0.00322130 -0.04020234 0.00371849
v 0.00043515 -0.03939733 0.00824740
v -0.00374666 -0.03939733 0.00735999
v -0.00824742 -0.03939733 0.00043517
v -0.00736001 -0.03939733 -0.00374668
v -0.01063758 -0.03791307 -0.00547661
v -0.00780711 -0.03780624 0.00911981
v -0.00692484 -0.03939733 0.00450072
v -0.01162504 -0.03784337 0.00311508
v -0.01040336 -0.03551220 0.01197347
v -0.01582264 -0.03551220 -0.00111027
v -0.01314777 -0.03551219 -0.00887278
v -0.01865650 -0.03269888 -0.00499883
v -0.01586222 -0.03433846 0.00729487
v -0.00965733 -0.03269887 0.01672693
v -0.01954246 -0.03234082 0.00257295
v -0.01590022 -0.03089606 0.01404964
v -0.01132205 -0.02931990 0.01961061
v -0.02137495 -0.02875228 0.00885396
v -0.02409503 -0.02725339 -0.00317225
v -0.02332565 -0.02692284 -0.00786167
v -0.02158418 -0.02493891 0.01436890
v -0.02396163 -0.01891496 0.01681694
v -0.02283068 -0.02896052 0.00145145
v -0.02602666 -0.02260828 0.00878842
v -0.02688338 -0.02334531 0.00241912
v -0.02844678 -0.02047808 -0.00182301
v -0.02730057 -0.01565154 0.01350144
v -0.02986493 -0.01565154 0.00597538
v -0.03005510 -0.01055076 0.01017492
v -0.03141356 -0.01222644 0.00139597
v -0.02986493 -0.01565154 -0.00597539
v -0.02700558 -0.02047808 -0.00912368
v -0.01563779 -0.03234082 -0.01199933
v -0.01172212 -0.03089606 -0.01768641
v -0.00786491 -0.03554572 -0.01362254
v -0.00786164 -0.02692283 -0.02332569
v -0.00499884 -0.03269887 -0.01865649
v -0.00208926 -0.03535567 -0.01586997
v -0.00155652 -0.02692283 -0.02456567
v -0.00458038 -0.03785117 -0.01105788
v -0.00182301 -0.02047808 -0.02844679
v -0.00360358 -0.03943602 -0.00742753
v -0.00216376 -0.04017309 -0.00450960
v -0.00639495 0.04001809 -0.00553088
vn -0.07330604 -0.98517580 -0.15509610
vn -0.16888960 -0.98507760 -0.03314298
vn -0.00030519 -0.99999980 0.00058003
vn -0.19770300 0.62460480 -0.75550150
vn -0.26521110 0.47176430 -0.84089330
vn -0.05093575 0.46965240 -0.88138080
vn -0.06509687 0.37117100 -0.92628000
vn 0.07449664 0.28291010 -0.95624890
vn -0.20563660 0.27750860 -0.93845750
vn -0.08112013 0.12265670 -0.98912840
vn 0.17105890 0.11600250 -0.97840800
vn 0.01034584 -0.00186180 -0.99994480
vn -0.22561290 -0.02338696 -0.97393630
vn 0.12705250 -0.11402090 -0.98532070
vn -0.06286957 -0.16724540 -0.98390870
vn -0.05908589 -0.30486010 -0.95056250
vn -0.20661150 0.96869360 -0.13763940
vn 0.01742637 0.96867410 -0.24772310
vn -0.00119026 0.99999920 -0.00051899
vn -0.09692874 0.91206380 -0.39842730
vn 0.13178200 0.91380640 -0.38417610
vn 0.23338270 0.96850610 -0.08676710
vn -0.00119026 0.99999920 -0.00051899
vn 0.30015500 0.91218420 -0.27897490
vn 0.30681000 0.84440640 -0.43914160
vn 0.06051870 0.84405730 -0.53282720
vn 0.41215870 0.90754260 -0.08057024
vn 0.49337070 0.84510250 -0.20588150
vn 0.53781410 0.75990430 -0.36510450
vn 0.39101260 0.76166890 -0.51669100
vn 0.11917820 0.76469370 -0.63327730
vn 0.52847220 0.84681890 0.06012288
vn 0.63193240 0.75928940 -0.15537380
vn 0.39324500 0.91107090 0.12372630
vn 0.21317790 0.96792220 0.13297280
vn 0.43938360 0.84269360 0.31114210
vn 0.62949380 0.76695330 0.12458020
vn 0.51263640 0.76054660 0.39846280
vn 0.27342550 0.90942470 0.31334510
vn 0.03903439 0.96865720 0.24531530
vn 0.28975030 0.76170100 0.57953110
vn 0.43981360 0.62332620 0.64655120
vn -0.20371460 0.96907120 0.13928870
vn -0.20661150 0.96869360 -0.13763940
vn -0.40501740 0.91404340 -0.02203485
vn 0.20735070 0.84716540 0.48919980
vn 0.02322480 0.91419080 0.40461810
vn -0.38191270 0.90531070 0.18589010
vn -0.49861970 0.84534620 0.19175080
vn 0.01764029 0.76771890 0.64054380
vn 0.01821979 0.63845570 0.76944270
vn -0.10468060 0.84504430 0.52434910
vn -0.20902520 0.91319240 0.34984010
vn -0.21516090 0.72001060 0.65976540
vn -0.14026580 0.52593580 0.83887840
vn -0.38072500 0.61718650 0.68857040
vn -0.34639490 0.84230430 0.41295750
vn -0.39622840 0.76550850 0.50695130
vn -0.55629910 0.62527200 0.54732640
vn -0.57827940 0.76792630 0.27546690
vn -0.64855710 0.76040890 -0.03393714
vn -0.20057380 0.76933410 -0.60654360
vn -0.18363340 0.84357820 -0.50463320
vn -0.01162794 0.62473450 -0.78075060
vn 0.20753290 0.62699340 -0.75087240
vn 0.17524300 0.46511700 -0.86773040
vn 0.30646890 0.29774040 -0.90411700
vn 0.38747300 0.45922370 -0.79936120
vn 0.44905940 0.67041490 -0.59066860
vn 0.64970110 0.62470540 -0.43316470
vn 0.35661630 0.57336320 -0.73761740
vn 0.54772110 0.52205470 -0.65380460
vn 0.51705170 0.36421280 -0.77460090
vn 0.67453400 0.45269030 -0.58315990
vn 0.38093770 0.10840320 -0.91822400
vn 0.48842500 0.19248270 -0.85111190
vn 0.31474350 -0.02292000 -0.94890000
vn 0.49850340 -0.00894232 -0.86684170
vn 0.32866370 -0.16651410 -0.92965220
vn 0.18256760 -0.30778930 -0.93377450
vn 0.42110970 -0.31194110 -0.85168040
vn 0.54342240 -0.16028620 -0.82401480
vn 0.72391750 0.31642390 -0.61304100
vn 0.64370720 0.24818060 -0.72391120
vn 0.64920400 0.11176110 -0.75235870
vn 0.67066780 -0.02053980 -0.74147340
vn 0.81517240 0.11926960 -0.56680580
vn 0.77139780 0.45885280 -0.44090780
vn 0.74610340 -0.17145710 -0.64337560
vn 0.62536960 -0.30610810 -0.71778180
vn 0.85591720 0.29439030 -0.42513560
vn 0.83814270 0.47112130 -0.27488450
vn 0.83382760 -0.01321462 -0.55186680
vn 0.93188050 0.11484460 -0.34410670
vn 0.75843050 -0.38039040 -0.52923190
vn 0.58146080 -0.47522190 -0.66035400
vn 0.89110490 -0.10495620 -0.44149340
vn 0.74529920 0.61956180 -0.24631720
vn 0.93596080 0.29734790 -0.18857780
vn 0.67328630 -0.58725240 -0.44924400
vn 0.46566550 -0.63587240 -0.61548520
vn 0.85595070 -0.29481870 -0.42477070
vn 0.83019160 -0.47631800 -0.28966050
vn 0.88001720 0.47093970 -0.06152651
vn 0.78741490 0.61626570 -0.01394718
vn 0.74130990 -0.64325180 -0.19153800
vn 0.58984980 -0.72230430 -0.36104520
vn 0.86592010 -0.49401360 -0.07831208
vn 0.79566780 -0.60248080 0.06268669
vn 0.93179580 -0.31080210 -0.18750660
vn 0.90569470 -0.41942860 0.06161880
vn 0.77210780 -0.57910360 0.26170310
vn 0.85217360 -0.43762320 0.28685560
vn 0.93552770 -0.29832260 0.18918700
vn 0.97664090 -0.20997120 -0.04565649
vn 0.93992160 -0.16950210 -0.29633860
vn 0.97895690 -0.02649050 -0.20234070
vn 0.99833240 -0.02160733 0.05353005
vn 0.96626540 -0.16373500 0.19880150
vn 0.94899560 -0.02185172 0.31453120
vn 0.98647930 0.10492580 -0.12589270
vn 0.97646430 0.11237200 0.18409230
vn 0.89764570 0.12332600 0.42311080
vn 0.98142220 0.19184090 -0.00274672
vn 0.94877990 0.24818190 0.19550570
vn 0.89128000 0.31401120 0.32713430
vn 0.93142020 0.35918230 0.05868866
vn 0.86735190 0.46889510 0.16684770
vn 0.82219390 0.45358010 0.34389310
vn 0.75885180 0.57528070 0.30528020
vn 0.71516110 0.66648260 0.21058370
vn 0.59757080 0.63846690 0.48504550
vn 0.73428740 0.45632030 0.50258700
vn 0.58878420 0.46185340 0.66334350
vn 0.38899560 -0.47600550 -0.78873390
vn 0.17176040 -0.47319570 -0.86405100
vn 0.21555930 -0.63498900 -0.74183760
vn 0.42287140 -0.72085910 -0.54912840
vn 0.33247930 -0.80165520 -0.49679600
vn 0.49261480 -0.81996690 -0.29152180
vn 0.32021080 -0.88555450 -0.33653860
vn 0.13306470 -0.72651510 -0.67414350
vn -0.04776215 -0.58855800 -0.80704290
vn -0.06473152 -0.42446320 -0.90312830
vn -0.16984100 -0.72312910 -0.66950600
vn -0.07471049 -0.80347370 -0.59063390
vn 0.09216841 -0.85832580 -0.50475910
vn -0.18278020 -0.88448070 -0.42928470
vn -0.14121400 -0.94464120 -0.29616150
vn 0.05841371 -0.94081490 -0.33384920
vn 0.21775060 -0.94635320 -0.23874730
vn 0.08932896 -0.98588410 -0.14160780
vn 0.88394670 -0.16770070 0.43647990
vn 0.85683880 -0.29390400 0.42361260
vn 0.83858640 -0.02292011 0.54428620
vn 0.74146690 -0.17350230 0.64816950
vn 0.74572480 -0.43745520 0.50252130
vn 0.71880110 -0.29256220 0.63066020
vn 0.60373160 -0.12378590 0.78751840
vn 0.70127640 -0.00473040 0.71287380
vn 0.76099670 0.12406070 0.63678340
vn 0.67639520 -0.57882550 0.45546740
vn 0.59029580 -0.38771140 0.70797650
vn 0.79307220 0.29719610 0.53170560
vn 0.60278580 0.10098840 0.79148640
vn 0.53918400 -0.57788230 0.61264400
vn 0.63070650 0.30192500 0.71487800
vn 0.44594050 -0.01693778 0.89490230
vn 0.49007050 0.19263470 0.85013110
vn 0.39915930 0.46544690 0.78995630
vn 0.42360270 0.36412150 0.82944340
vn 0.23783810 0.62097940 0.74687190
vn 0.22355090 0.45741750 0.86069410
vn 0.05575800 0.45625730 0.88809930
vn 0.27991730 0.27982590 0.91833750
vn 0.05780263 0.29697870 0.95313300
vn -0.17853580 0.29731570 0.93793850
vn 0.32749810 0.11633810 0.93766220
vn 0.08267646 0.12601390 0.98857720
vn -0.13083640 0.11685870 0.98449270
vn -0.33937000 0.12027510 0.93293180
vn -0.05667302 -0.02618479 0.99804940
vn 0.20200570 -0.02777219 0.97899060
vn -0.05783389 -0.16141590 0.98519050
vn -0.25013420 -0.16809880 0.95350710
vn -0.23725790 -0.35445230 0.90447350
vn 0.19364600 -0.16190560 0.96761960
vn -0.04861743 -0.29423760 0.95449500
vn -0.05499542 -0.43334060 0.89955070
vn 0.18723690 -0.29844970 0.93587940
vn 0.17502850 -0.42543970 0.88789980
vn 0.43117030 -0.17514750 0.88510760
vn 0.42476630 -0.29405240 0.85621650
vn 0.40212140 -0.43016850 0.80824090
vn 0.24864020 -0.53869500 0.80497560
vn 0.37358850 -0.59616670 0.71064540
vn 0.11255450 -0.69009790 0.71491010
vn 0.32152020 -0.72440480 0.60980520
vn 0.19071640 -0.81233760 0.55112140
vn 0.47741270 -0.72486260 0.49664000
vn 0.45656630 -0.81873690 0.34816240
vn 0.16162710 -0.87991570 0.44679430
vn 0.62328920 -0.72131610 0.30201600
vn 0.68827660 -0.71962020 0.09177237
vn 0.57516090 -0.81186620 0.10031600
vn 0.47030380 -0.88222410 -0.02224849
vn 0.37444020 -0.88380590 0.28050220
vn 0.21256770 -0.94524710 0.24763460
vn 0.63202660 -0.76487740 -0.12451910
vn 0.32774080 -0.94107600 0.08343840
vn 0.16803750 -0.98530520 0.03061070
vn 0.31559900 -0.94163920 -0.11710200
vn -0.90022030 0.12149640 0.41814140
vn -0.86341260 0.31367420 0.39512920
vn -0.80274990 0.24726770 0.54263360
vn -0.93690820 0.29069520 0.19416290
vn -0.84040110 0.46788650 0.27351100
vn -0.77229950 0.46102980 0.43704120
vn -0.97398510 0.12390740 0.18973690
vn -0.94960470 -0.03137368 0.31187560
vn -0.99797350 -0.02252306 0.05951219
vn -0.67752060 0.62167100 0.39305340
vn -0.66324060 0.46706410 0.58477600
vn -0.76102190 0.62127540 0.18671520
vn -0.88509090 0.46178790 0.05801716
vn -0.95758320 0.28815700 0.00009151
vn -0.99017580 0.13980570 -0.00247203
vn -0.97674230 0.11841520 -0.17875200
vn -0.98600110 -0.10696840 -0.12790420
vn -0.78104360 0.62203930 -0.05511751
vn -0.93615660 0.29573440 -0.19013680
vn -0.96811810 -0.00363178 -0.25046800
vn -0.93141510 -0.16605490 -0.32386960
vn -0.91786860 0.12064280 -0.37810390
vn -0.89071230 -0.02487349 -0.45388640
vn -0.87572560 0.46874860 -0.11566890
vn -0.81578280 -0.16984040 -0.55285840
vn -0.85856940 -0.29701410 -0.41790100
vn -0.75676310 -0.38326480 -0.52954480
vn -0.63110290 -0.29597360 -0.71701380
vn -0.59866800 -0.42272400 -0.68036830
vn -0.47457610 -0.49493260 -0.72788680
vn -0.67074930 -0.53463410 -0.51406410
vn -0.61313870 -0.63187780 -0.47412170
vn -0.43749160 -0.29557780 -0.84925550
vn -0.27723750 -0.42440180 -0.86198750
vn -0.65993580 -0.18018240 -0.72939630
vn -0.74396590 -0.02020380 -0.66791210
vn -0.55267650 -0.10510910 -0.82674110
vn -0.81254400 0.12134440 -0.57012980
vn -0.63745100 0.11139430 -0.76239590
vn -0.86003290 0.29200830 -0.41841910
vn -0.44636490 -0.01733471 -0.89468300
vn -0.29341420 -0.20750210 -0.93319390
vn -0.72351910 0.29313700 -0.62497260
vn -0.84208910 0.45925460 -0.28279210
vn -0.74018560 0.45727120 -0.49297910
vn -0.76423550 0.56607320 -0.30903920
vn -0.66425840 0.67487910 -0.32140170
vn -0.60971210 0.57772790 -0.54266150
vn -0.58535780 0.46389140 -0.66495190
vn -0.58200970 0.30510480 -0.75377430
vn -0.44848000 0.20441760 -0.87010300
vn -0.55121870 0.77535620 -0.30818940
vn -0.45784620 0.72510110 -0.51439800
vn -0.40163640 0.61728690 -0.67649480
vn -0.44085040 0.46645600 -0.76685710
vn -0.52431170 0.84890900 -0.06671408
vn -0.40764060 0.36347970 -0.83768220
vn -0.40324490 0.84451600 -0.35240070
vn -0.30788320 0.91238780 -0.26973370
vn -0.18363340 0.84357820 -0.50463320
vn -0.09692874 0.91206380 -0.39842730
vn -0.20057380 0.76933410 -0.60654360
vn -0.19770300 0.62460480 -0.75550150
vn -0.26521110 0.47176430 -0.84089330
vn -0.20563660 0.27750860 -0.93845750
vn -0.06509687 0.37117100 -0.92628000
vn -0.05093575 0.46965240 -0.88138080
vn -0.33048760 0.10864660 -0.93753610
vn -0.08112013 0.12265670 -0.98912840
vn -0.22561290 -0.02338696 -0.97393630
vn -0.06286957 -0.16724540 -0.98390870
vn -0.05908589 -0.30486010 -0.95056250
vn -0.83509450 -0.02777230 0.54940500
vn -0.75785510 0.11374550 0.64243110
vn -0.66788190 -0.02926778 0.74369160
vn -0.65384570 -0.16785610 0.73777380
vn -0.81695640 -0.16403820 0.55287770
vn -0.63929020 0.24598660 0.72855930
vn -0.56329470 0.11899490 0.81764260
vn -0.70120710 0.36445930 0.61276260
vn -0.51955560 0.36992100 0.77020810
vn -0.41148930 0.28352280 0.86619370
vn -0.48934510 0.46795130 0.73590970
vn -0.28742580 0.45802590 0.84118880
vn -0.50060780 -0.01220757 0.86558810
vn -0.30491890 -0.02377442 0.95208160
vn -0.44744570 -0.16498800 0.87896030
vn -0.43513920 -0.29423300 0.85092940
vn -0.63037260 -0.29530300 0.71793210
vn -0.40749450 -0.43020080 0.80552810
vn -0.60052920 -0.42327270 0.67838410
vn -0.52102020 -0.53438750 0.66555830
vn -0.26192190 -0.53928670 0.80035420
vn -0.00552394 -0.55855910 0.82944630
vn -0.14258580 -0.68237910 0.71695760
vn -0.10663500 -0.80809440 0.57932070
vn -0.08777297 -0.87876740 0.46910950
vn 0.05240109 -0.98503050 0.16422280
vn -0.11231110 -0.98525540 0.12906640
vn 0.01864689 -0.94540650 0.32535940
vn -0.14344190 -0.94519080 0.29332370
vn -0.33491480 -0.94218070 0.01129216
vn -0.28293990 -0.94647970 -0.15531000
vn -0.41488260 -0.88412060 -0.21494900
vn -0.31254930 -0.87932520 0.35930520
vn -0.27778540 -0.94417110 0.17713330
vn -0.46223660 -0.87784060 0.12543210
vn -0.38335120 -0.81382390 0.43672930
vn -0.57931700 -0.81410170 -0.04037687
vn -0.48179810 -0.80880560 -0.33720050
vn -0.66302690 -0.72516370 -0.18583050
vn -0.56854480 -0.77885350 0.26484700
vn -0.33342190 -0.73651900 0.58853170
vn -0.68808790 -0.72062140 0.08508790
vn -0.55301430 -0.67844950 0.48361300
vn -0.38277490 -0.63822260 0.66794870
vn -0.71857770 -0.63098720 0.29240580
vn -0.79943670 -0.59236740 -0.10000960
vn -0.76690610 -0.57945980 -0.27582850
vn -0.69421940 -0.53967020 0.47625150
vn -0.75036960 -0.38484390 0.53743890
vn -0.77025160 -0.63523320 0.05649174
vn -0.83234750 -0.47713560 0.28202710
vn -0.86497370 -0.49508160 0.08194398
vn -0.90607720 -0.41862850 -0.06143458
vn -0.85907630 -0.30125190 0.41380580
vn -0.93179580 -0.31080200 0.18750670
vn -0.93662570 -0.15784380 0.31275790
vn -0.97568180 -0.21271510 0.05288889
vn -0.93663330 -0.29899640 -0.18253510
vn -0.85054730 -0.43664220 -0.29310900
vn -0.55175750 -0.72141410 -0.41847980
vn -0.41231520 -0.67899270 -0.60742490
vn -0.30925260 -0.80958710 -0.49893030
vn -0.26066210 -0.58407130 -0.76871070
vn -0.16984100 -0.72312910 -0.66950600
vn -0.07471049 -0.80347370 -0.59063390
vn -0.04776215 -0.58855800 -0.80704290
vn -0.18278020 -0.88448070 -0.42928470
vn -0.06473152 -0.42446320 -0.90312830
vn -0.14121400 -0.94464120 -0.29616150
vn -0.07330604 -0.98517580 -0.15509610
vn -0.30788320 0.91238780 -0.26973370
vt 1.06637200 0.15405130
vt 0.25538930 0.15380590
vt 0.58581290 0.15016200
vt 1.03834400 0.75181000
vt 1.05000300 0.68731180
vt 1.00633500 0.68731150
vt 1.00697800 0.62372990
vt 0.98410520 0.59451570
vt 1.03221900 0.59061160
vt 1.01036800 0.52589680
vt 0.96732370 0.52589680
vt 0.99674590 0.46375920
vt 1.03032400 0.45694350
vt 0.97521170 0.42068150
vt 1.00733600 0.40266570
vt 1.00715700 0.35985580
vt 1.17619300 0.83659290
vt 0.96210000 0.83659300
vt 1.58581300 0.84200970
vt 1.02519000 0.82644700
vt 0.93121450 0.82644700
vt 0.76542480 0.83687890
vt 0.58581330 0.84200970
vt 0.84380030 0.82644690
vt 0.88879200 0.81041810
vt 0.96822690 0.80999860
vt 0.76287100 0.82644700
vt 0.79660610 0.81097750
vt 0.83076180 0.78858980
vt 0.88397070 0.78785130
vt 0.96055230 0.78936400
vt 0.71722400 0.80999860
vt 0.77979550 0.78969850
vt 0.68669610 0.82644700
vt 0.64663600 0.83632850
vt 0.64801110 0.81041810
vt 0.71058030 0.78936400
vt 0.64158110 0.78785130
vt 0.61321120 0.82644700
vt 0.54118630 0.83659300
vt 0.57324520 0.78936400
vt 0.59276280 0.75065930
vt 0.37900670 0.83687890
vt 0.17619350 0.83659290
vt 0.26324500 0.82644700
vt 0.56468590 0.81097750
vt 0.52086550 0.82707980
vt 0.34890580 0.82644700
vt 0.32877970 0.80999860
vt 0.50609280 0.78969850
vt 0.50717830 0.75437180
vt 0.48080870 0.81041810
vt 0.42844230 0.82644700
vt 0.45702500 0.77759100
vt 0.47963870 0.71500430
vt 0.42448670 0.75181010
vt 0.40239270 0.81041810
vt 0.40706540 0.78785130
vt 0.38385590 0.75181010
vt 0.33481380 0.78936400
vt 0.24968300 0.78936400
vt 1.04997300 0.78936400
vt 1.05056500 0.81041810
vt 0.99423810 0.75181000
vt 0.95055210 0.75181000
vt 0.96295700 0.68731180
vt 0.94278440 0.59704310
vt 0.91999320 0.68731160
vt 0.88603320 0.76195810
vt 0.83346770 0.75065930
vt 0.91895820 0.73387190
vt 0.88301490 0.71500430
vt 0.90013960 0.62372990
vt 0.85719540 0.68731180
vt 0.93240030 0.52248750
vt 0.91102730 0.55876670
vt 0.94431590 0.45694330
vt 0.91120020 0.46375900
vt 0.94316850 0.40266560
vt 0.96406570 0.35985570
vt 0.92131030 0.35985570
vt 0.90064130 0.40266560
vt 0.85480610 0.60414260
vt 0.87903210 0.58086830
vt 0.88224460 0.52589680
vt 0.87834290 0.45694350
vt 0.84031810 0.52589670
vt 0.82559400 0.68364600
vt 0.85852460 0.40266560
vt 0.87896160 0.35985570
vt 0.81640040 0.59704330
vt 0.79418930 0.68731180
vt 0.83645790 0.45694350
vt 0.79881680 0.52589670
vt 0.84062070 0.33246660
vt 0.87819160 0.30146930
vt 0.81529390 0.42329020
vt 0.79216360 0.75065930
vt 0.77515830 0.59704310
vt 0.83534070 0.26525810
vt 0.88770390 0.24990380
vt 0.81662980 0.35985580
vt 0.79484330 0.30146930
vt 0.75328560 0.68731160
vt 0.74477280 0.74973680
vt 0.78337110 0.24514000
vt 0.82308160 0.21678100
vt 0.75779900 0.29528350
vt 0.72899920 0.25974700
vt 0.77538050 0.35985570
vt 0.73422780 0.31934770
vt 0.69323000 0.26525810
vt 0.69378500 0.31934770
vt 0.71388240 0.35985570
vt 0.75162420 0.38860200
vt 0.79589790 0.40266570
vt 0.77669430 0.45694340
vt 0.73578430 0.45694330
vt 0.71411420 0.40266560
vt 0.69519000 0.45694360
vt 0.76522490 0.52248760
vt 0.71697290 0.52589690
vt 0.67651670 0.52589690
vt 0.74467780 0.55876680
vt 0.71393650 0.58086840
vt 0.69067540 0.60414280
vt 0.73427150 0.62372990
vt 0.71281300 0.68731160
vt 0.68299230 0.68965770
vt 0.68240230 0.73192910
vt 0.70136260 0.76521610
vt 0.63807970 0.75233350
vt 0.65339560 0.68731190
vt 0.61359310 0.68731160
vt 0.92060720 0.30146920
vt 0.96347700 0.30146930
vt 0.95179750 0.24514000
vt 0.88625920 0.21978600
vt 0.89381240 0.19316930
vt 0.82075250 0.19288800
vt 0.86633980 0.17301930
vt 0.96219380 0.21720640
vt 1.00621300 0.26525810
vt 1.00688200 0.31934760
vt 1.03867700 0.21678100
vt 1.01554000 0.19448300
vt 0.96096600 0.18097400
vt 1.05981500 0.17353870
vt 1.06943300 0.16023740
vt 0.94840480 0.16056210
vt 0.85951150 0.16056220
vt 0.86822300 0.15346230
vt 0.67368290 0.40266560
vt 0.67350230 0.35985580
vt 0.65484030 0.45694340
vt 0.63345590 0.40266570
vt 0.65361400 0.31934760
vt 0.63333230 0.35985570
vt 0.60349510 0.42068170
vt 0.62356860 0.46375890
vt 0.63626870 0.52589690
vt 0.65328780 0.26525810
vt 0.60992720 0.33246660
vt 0.65355250 0.59704330
vt 0.60349250 0.52248750
vt 0.61354460 0.26525810
vt 0.61346630 0.59704310
vt 0.57452720 0.45694360
vt 0.58344380 0.55876680
vt 0.57387020 0.68731180
vt 0.57364650 0.62372990
vt 0.55348060 0.75065930
vt 0.54371330 0.68364600
vt 0.51351370 0.68731180
vt 0.55042650 0.59061150
vt 0.51332310 0.59704330
vt 0.47304510 0.59704320
vt 0.55603590 0.52589670
vt 0.51586060 0.52589680
vt 0.48293260 0.52248730
vt 0.44985070 0.52589680
vt 0.49410860 0.45694370
vt 0.53437730 0.45694360
vt 0.49317410 0.40266570
vt 0.46273530 0.40286500
vt 0.46300810 0.34293500
vt 0.53342120 0.40266560
vt 0.49336110 0.35985590
vt 0.49364790 0.31934760
vt 0.53355030 0.35985590
vt 0.53373870 0.31934770
vt 0.57354530 0.40266570
vt 0.57361200 0.35985580
vt 0.57369380 0.31934770
vt 0.55337950 0.28190880
vt 0.57545440 0.26310460
vt 0.52898390 0.23021390
vt 0.57405670 0.21865330
vt 0.55522710 0.19316930
vt 0.62265440 0.21678100
vt 0.64148220 0.19110830
vt 0.55698380 0.17391580
vt 0.67149760 0.21865320
vt 0.72158060 0.21978600
vt 0.71990810 0.19448300
vt 0.74375000 0.17301930
vt 0.64027590 0.17353880
vt 0.60993800 0.16023740
vt 0.77185900 0.20437120
vt 0.70079730 0.16056220
vt 0.69418270 0.15380590
vt 0.77752180 0.16056220
vt 0.32637260 0.52589660
vt 0.32639710 0.60414290
vt 0.35005930 0.58086830
vt 0.28755900 0.59704320
vt 0.30946560 0.68731180
vt 0.34111580 0.68364600
vt 0.28439430 0.52589680
vt 0.30699040 0.45694340
vt 0.26482120 0.45694350
vt 0.34262030 0.75181000
vt 0.37256840 0.68731180
vt 0.29819610 0.74973680
vt 0.26718930 0.68731160
vt 0.25577440 0.59341860
vt 0.25551150 0.53651870
vt 0.22635530 0.52589670
vt 0.23416070 0.42068170
vt 0.24847040 0.75065930
vt 0.22378020 0.59704320
vt 0.21275750 0.46375910
vt 0.20224910 0.40266570
vt 0.19134840 0.52248720
vt 0.17934930 0.45694360
vt 0.23555830 0.68965770
vt 0.15918290 0.40266560
vt 0.18058130 0.35985580
vt 0.15550050 0.33246650
vt 0.11601040 0.35985570
vt 0.11615040 0.31934770
vt 0.09221435 0.29905510
vt 0.14877320 0.28425750
vt 0.14917980 0.24990390
vt 0.07256955 0.35985570
vt 0.05032706 0.31934770
vt 0.11590600 0.40266560
vt 0.13618790 0.45694340
vt 0.09564757 0.42329010
vt 0.15615130 0.52589680
vt 0.11287580 0.52589670
vt 0.18079510 0.59704320
vt 0.07362109 0.45694350
vt 0.04723263 0.38860180
vt 0.13752960 0.59704320
vt 0.20355780 0.68731180
vt 0.16013970 0.68731160
vt 0.19311400 0.73192900
vt 0.18366090 0.76468840
vt 0.13807510 0.73387180
vt 0.11644740 0.68731180
vt 0.10497920 0.60048550
vt 0.07458615 0.56575630
vt 0.17329430 0.78969850
vt 0.11770790 0.77759090
vt 0.08268309 0.75181000
vt 0.08322251 0.68364610
vt 0.24286380 0.81097750
vt 0.07255006 0.62372990
vt 0.14323070 0.81041810
vt 0.14508770 0.82707980
vt 0.05056459 0.81041810
vt 0.02519023 0.82644700
vt 0.04997301 0.78936400
vt 0.03834414 0.75181000
vt 0.05000269 0.68731180
vt 0.03221864 0.59061160
vt 0.00697786 0.62372990
vt 0.00633526 0.68731150
vt 0.05362666 0.52589670
vt 0.01036823 0.52589680
vt 0.03032392 0.45694350
vt 0.00733626 0.40266570
vt 0.00715667 0.35985580
vt 0.34873720 0.45694360
vt 0.36792400 0.52589680
vt 0.39007000 0.45694360
vt 0.39119500 0.40266570
vt 0.34987910 0.40266560
vt 0.39136100 0.58086840
vt 0.40906810 0.52589680
vt 0.37148740 0.62372990
vt 0.41254190 0.62372990
vt 0.43403150 0.59451560
vt 0.41352790 0.68731180
vt 0.45404610 0.68731180
vt 0.42196230 0.46375900
vt 0.45363070 0.45694360
vt 0.43212330 0.40266560
vt 0.43228550 0.35985580
vt 0.39138780 0.35985580
vt 0.43259420 0.31934760
vt 0.39175300 0.31934770
vt 0.40277700 0.28425770
vt 0.45385860 0.28190880
vt 0.50388660 0.27298820
vt 0.47421700 0.23191160
vt 0.47739580 0.19316930
vt 0.48082330 0.17391580
vt 0.55967380 0.15380590
vt 0.42138950 0.15380590
vt 0.51831790 0.16056220
vt 0.44385510 0.16056220
vt 0.28115000 0.16056220
vt 0.18971880 0.16056220
vt 0.18396220 0.17301930
vt 0.40248590 0.17391580
vt 0.36548560 0.16056220
vt 0.30798070 0.17360430
vt 0.39777190 0.19316930
vt 0.24961500 0.19316930
vt 0.16125670 0.19316940
vt 0.21585890 0.21678090
vt 0.33000890 0.20302020
vt 0.42539240 0.21678100
vt 0.28033580 0.21978600
vt 0.37429680 0.23191160
vt 0.42414820 0.24514000
vt 0.32107760 0.24990390
vt 0.23580190 0.26248380
vt 0.20373000 0.26525800
vt 0.35112950 0.28190880
vt 0.35415950 0.33246660
vt 0.26803830 0.24815620
vt 0.30898170 0.30146930
vt 0.27106570 0.29528360
vt 0.24571850 0.31934760
vt 0.32963680 0.35985580
vt 0.28767780 0.35985580
vt 0.30814180 0.40266570
vt 0.26275320 0.38860200
vt 0.22355820 0.35985580
vt 0.20284190 0.31934760
vt 0.14979590 0.21978600
vt 0.09362978 0.23191160
vt 0.08313584 0.19288800
vt 0.04994929 0.26525810
vt 0.03867686 0.21678100
vt 0.01553977 0.19448300
vt 0.00621295 0.26525810
vt 0.05981481 0.17353870
vt 0.00688213 0.31934760
vt 0.06943297 0.16023740
vt 0.06637204 0.15405130
vt 1.14508800 0.82707980
f 3/3/3 2/2/2 1/1/1
f 6/6/6 5/5/5 4/4/4
f 8/8/8 7/7/7 6/6/6
f 8/8/8 9/9/9 7/7/7
f 9/9/9 8/8/8 10/10/10
f 10/10/10 8/8/8 11/11/11
f 12/12/12 10/10/10 11/11/11
f 10/10/10 12/12/12 13/13/13
f 12/12/12 11/11/11 14/14/14
f 12/12/12 15/15/15 13/13/13
f 15/15/15 12/12/12 14/14/14
f 16/16/16 15/15/15 14/14/14
f 19/19/19 18/18/18 17/17/17
f 21/21/21 20/20/20 18/18/18
f 18/18/18 22/22/22 21/21/21
f 23/23/23 22/22/22 18/18/18
f 22/22/22 24/24/24 21/21/21
f 21/21/21 24/24/24 25/25/25
f 21/21/21 25/25/25 26/26/26
f 27/27/27 24/24/24 22/22/22
f 24/24/24 28/28/28 25/25/25
f 24/24/24 27/27/27 28/28/28
f 28/28/28 29/29/29 25/25/25
f 29/29/29 30/30/30 25/25/25
f 30/30/30 31/31/31 25/25/25
f 32/32/32 28/28/28 27/27/27
f 28/28/28 32/32/32 33/33/33
f 34/34/34 27/27/27 22/22/22
f 27/27/27 34/34/34 32/32/32
f 23/23/23 35/35/35 22/22/22
f 34/34/34 22/22/22 35/35/35
f 34/34/34 36/36/36 32/32/32
f 32/32/32 36/36/36 37/37/37
f 38/38/38 37/37/37 36/36/36
f 39/39/39 34/34/34 35/35/35
f 34/34/34 39/39/39 36/36/36
f 23/23/23 40/40/40 35/35/35
f 39/39/39 35/35/35 40/40/40
f 41/41/41 38/38/38 36/36/36
f 41/41/41 42/42/42 38/38/38
f 23/23/23 43/43/43 40/40/40
f 23/23/23 44/44/44 43/43/43
f 45/45/45 43/43/43 44/44/44
f 39/39/39 46/46/46 36/36/36
f 46/46/46 41/41/41 36/36/36
f 47/47/47 39/39/39 40/40/40
f 40/40/40 43/43/43 47/47/47
f 39/39/39 47/47/47 46/46/46
f 45/45/45 48/48/48 43/43/43
f 49/49/49 48/48/48 45/45/45
f 41/41/41 46/46/46 50/50/50
f 50/50/50 51/51/51 41/41/41
f 52/52/52 46/46/46 47/47/47
f 50/50/50 46/46/46 52/52/52
f 43/43/43 53/53/53 47/47/47
f 48/48/48 53/53/53 43/43/43
f 47/47/47 53/53/53 52/52/52
f 50/50/50 54/54/54 51/51/51
f 54/54/54 50/50/50 52/52/52
f 55/55/55 51/51/51 54/54/54
f 55/55/55 54/54/54 56/56/56
f 53/53/53 48/48/48 57/57/57
f 57/57/57 52/52/52 53/53/53
f 49/49/49 57/57/57 48/48/48
f 52/52/52 57/57/57 54/54/54
f 58/58/58 56/56/56 54/54/54
f 57/57/57 58/58/58 54/54/54
f 58/58/58 59/59/59 56/56/56
f 58/58/58 60/60/60 59/59/59
f 58/58/58 57/57/57 60/60/60
f 60/60/60 57/57/57 49/49/49
f 61/61/61 60/60/60 49/49/49
f 26/26/26 25/25/25 31/31/31
f 26/26/26 31/31/31 62/62/62
f 63/63/63 26/26/26 62/62/62
f 26/26/26 63/63/63 20/20/20
f 20/20/20 21/21/21 26/26/26
f 4/4/4 62/62/62 31/31/31
f 64/64/64 4/4/4 31/31/31
f 64/64/64 6/6/6 4/4/4
f 31/31/31 65/65/65 64/64/64
f 65/65/65 31/31/31 30/30/30
f 66/66/66 6/6/6 64/64/64
f 65/65/65 66/66/66 64/64/64
f 66/66/66 8/8/8 6/6/6
f 66/66/66 67/67/67 8/8/8
f 8/8/8 67/67/67 11/11/11
f 68/68/68 66/66/66 65/65/65
f 66/66/66 68/68/68 67/67/67
f 69/69/69 65/65/65 30/30/30
f 70/70/70 69/69/69 30/30/30
f 29/29/29 70/70/70 30/30/30
f 71/71/71 65/65/65 69/69/69
f 71/71/71 68/68/68 65/65/65
f 71/71/71 69/69/69 72/72/72
f 68/68/68 71/71/71 72/72/72
f 72/72/72 69/69/69 70/70/70
f 68/68/68 72/72/72 73/73/73
f 68/68/68 73/73/73 67/67/67
f 72/72/72 70/70/70 74/74/74
f 73/73/73 72/72/72 74/74/74
f 11/11/11 67/67/67 75/75/75
f 76/76/76 67/67/67 73/73/73
f 67/67/67 76/76/76 75/75/75
f 77/77/77 11/11/11 75/75/75
f 11/11/11 77/77/77 14/14/14
f 78/78/78 75/75/75 76/76/76
f 75/75/75 78/78/78 77/77/77
f 77/77/77 79/79/79 14/14/14
f 79/79/79 80/80/80 14/14/14
f 79/79/79 81/81/81 80/80/80
f 82/82/82 81/81/81 79/79/79
f 79/79/79 77/77/77 82/82/82
f 77/77/77 78/78/78 82/82/82
f 83/83/83 73/73/73 74/74/74
f 76/76/76 73/73/73 84/84/84
f 84/84/84 73/73/73 83/83/83
f 78/78/78 76/76/76 85/85/85
f 76/76/76 84/84/84 85/85/85
f 82/82/82 78/78/78 86/86/86
f 78/78/78 85/85/85 86/86/86
f 87/87/87 85/85/85 84/84/84
f 83/83/83 87/87/87 84/84/84
f 86/86/86 85/85/85 87/87/87
f 83/83/83 74/74/74 88/88/88
f 70/70/70 88/88/88 74/74/74
f 89/89/89 82/82/82 86/86/86
f 89/89/89 90/90/90 82/82/82
f 91/91/91 83/83/83 88/88/88
f 83/83/83 91/91/91 87/87/87
f 92/92/92 88/88/88 70/70/70
f 88/88/88 92/92/92 91/91/91
f 86/86/86 87/87/87 93/93/93
f 89/89/89 86/86/86 93/93/93
f 87/87/87 91/91/91 94/94/94
f 93/93/93 87/87/87 94/94/94
f 89/89/89 95/95/95 90/90/90
f 96/96/96 90/90/90 95/95/95
f 97/97/97 89/89/89 93/93/93
f 93/93/93 94/94/94 97/97/97
f 98/98/98 92/92/92 70/70/70
f 98/98/98 70/70/70 29/29/29
f 92/92/92 99/99/99 91/91/91
f 91/91/91 99/99/99 94/94/94
f 95/95/95 100/100/100 96/96/96
f 101/101/101 96/96/96 100/100/100
f 95/95/95 89/89/89 102/102/102
f 89/89/89 97/97/97 102/102/102
f 95/95/95 103/103/103 100/100/100
f 103/103/103 95/95/95 102/102/102
f 33/33/33 98/98/98 29/29/29
f 29/29/29 28/28/28 33/33/33
f 104/104/104 92/92/92 98/98/98
f 92/92/92 104/104/104 99/99/99
f 98/98/98 33/33/33 105/105/105
f 105/105/105 104/104/104 98/98/98
f 106/106/106 100/100/100 103/103/103
f 100/100/100 106/106/106 107/107/107
f 106/106/106 103/103/103 108/108/108
f 109/109/109 106/106/106 108/108/108
f 110/110/110 103/103/103 102/102/102
f 108/108/108 103/103/103 110/110/110
f 111/111/111 109/109/109 108/108/108
f 108/108/108 110/110/110 111/111/111
f 109/109/109 111/111/111 112/112/112
f 111/111/111 113/113/113 112/112/112
f 113/113/113 111/111/111 114/114/114
f 111/111/111 115/115/115 114/114/114
f 110/110/110 115/115/115 111/111/111
f 110/110/110 102/102/102 116/116/116
f 116/116/116 115/115/115 110/110/110
f 97/97/97 116/116/116 102/102/102
f 117/117/117 116/116/116 97/97/97
f 115/115/115 116/116/116 117/117/117
f 94/94/94 117/117/117 97/97/97
f 118/118/118 115/115/115 117/117/117
f 119/119/119 115/115/115 118/118/118
f 120/120/120 119/119/119 118/118/118
f 117/117/117 94/94/94 121/121/121
f 121/121/121 118/118/118 117/117/117
f 94/94/94 99/99/99 121/121/121
f 122/122/122 120/120/120 118/118/118
f 120/120/120 122/122/122 123/123/123
f 118/118/118 121/121/121 124/124/124
f 99/99/99 124/124/124 121/121/121
f 118/118/118 124/124/124 122/122/122
f 123/123/123 122/122/122 125/125/125
f 124/124/124 125/125/125 122/122/122
f 126/126/126 123/123/123 125/125/125
f 124/124/124 99/99/99 127/127/127
f 124/124/124 127/127/127 125/125/125
f 125/125/125 127/127/127 126/126/126
f 104/104/104 127/127/127 99/99/99
f 128/128/128 126/126/126 127/127/127
f 104/104/104 128/128/128 127/127/127
f 128/128/128 129/129/129 126/126/126
f 104/104/104 105/105/105 128/128/128
f 128/128/128 130/130/130 129/129/129
f 105/105/105 130/130/130 128/128/128
f 130/130/130 105/105/105 131/131/131
f 130/130/130 131/131/131 132/132/132
f 130/130/130 132/132/132 133/133/133
f 132/132/132 134/134/134 133/133/133
f 132/132/132 131/131/131 38/38/38
f 131/131/131 37/37/37 38/38/38
f 105/105/105 37/37/37 131/131/131
f 33/33/33 37/37/37 105/105/105
f 32/32/32 37/37/37 33/33/33
f 82/82/82 90/90/90 81/81/81
f 81/81/81 90/90/90 135/135/135
f 90/90/90 96/96/96 135/135/135
f 101/101/101 135/135/135 96/96/96
f 81/81/81 135/135/135 136/136/136
f 80/80/80 81/81/81 136/136/136
f 101/101/101 137/137/137 135/135/135
f 137/137/137 136/136/136 135/135/135
f 137/137/137 101/101/101 138/138/138
f 138/138/138 101/101/101 100/100/100
f 107/107/107 138/138/138 100/100/100
f 138/138/138 107/107/107 139/139/139
f 107/107/107 140/140/140 139/139/139
f 139/139/139 140/140/140 141/141/141
f 142/142/142 137/137/137 138/138/138
f 138/138/138 139/139/139 142/142/142
f 137/137/137 143/143/143 136/136/136
f 143/143/143 137/137/137 142/142/142
f 144/144/144 136/136/136 143/143/143
f 80/80/80 136/136/136 144/144/144
f 16/16/16 80/80/80 144/144/144
f 80/80/80 16/16/16 14/14/14
f 142/142/142 145/145/145 143/143/143
f 142/142/142 146/146/146 145/145/145
f 139/139/139 147/147/147 142/142/142
f 147/147/147 146/146/146 142/142/142
f 139/139/139 141/141/141 147/147/147
f 147/147/147 148/148/148 146/146/146
f 148/148/148 147/147/147 149/149/149
f 147/147/147 141/141/141 150/150/150
f 147/147/147 150/150/150 149/149/149
f 151/151/151 150/150/150 141/141/141
f 1/1/1 149/149/149 150/150/150
f 150/150/150 151/151/151 152/152/152
f 152/152/152 1/1/1 150/150/150
f 119/119/119 114/114/114 115/115/115
f 114/114/114 119/119/119 153/153/153
f 153/153/153 119/119/119 120/120/120
f 154/154/154 114/114/114 153/153/153
f 113/113/113 114/114/114 154/154/154
f 155/155/155 153/153/153 120/120/120
f 123/123/123 155/155/155 120/120/120
f 154/154/154 153/153/153 156/156/156
f 156/156/156 153/153/153 155/155/155
f 157/157/157 113/113/113 154/154/154
f 158/158/158 154/154/154 156/156/156
f 157/157/157 154/154/154 158/158/158
f 158/158/158 156/156/156 159/159/159
f 160/160/160 156/156/156 155/155/155
f 156/156/156 160/160/160 159/159/159
f 155/155/155 123/123/123 161/161/161
f 161/161/161 160/160/160 155/155/155
f 113/113/113 157/157/157 162/162/162
f 112/112/112 113/113/113 162/162/162
f 163/163/163 157/157/157 158/158/158
f 163/163/163 158/158/158 159/159/159
f 123/123/123 164/164/164 161/161/161
f 126/126/126 164/164/164 123/123/123
f 160/160/160 161/161/161 165/165/165
f 160/160/160 165/165/165 159/159/159
f 162/162/162 157/157/157 166/166/166
f 157/157/157 163/163/163 166/166/166
f 164/164/164 126/126/126 133/133/133
f 126/126/126 129/129/129 133/133/133
f 130/130/130 133/133/133 129/129/129
f 164/164/164 133/133/133 134/134/134
f 164/164/164 167/167/167 161/161/161
f 161/161/161 167/167/167 165/165/165
f 167/167/167 164/164/164 134/134/134
f 165/165/165 168/168/168 159/159/159
f 167/167/167 169/169/169 165/165/165
f 168/168/168 165/165/165 169/169/169
f 167/167/167 134/134/134 170/170/170
f 169/169/169 167/167/167 171/171/171
f 171/171/171 167/167/167 170/170/170
f 42/42/42 170/170/170 134/134/134
f 132/132/132 42/42/42 134/134/134
f 42/42/42 132/132/132 38/38/38
f 42/42/42 172/172/172 170/170/170
f 172/172/172 173/173/173 170/170/170
f 171/171/171 170/170/170 173/173/173
f 174/174/174 173/173/173 172/172/172
f 169/169/169 171/171/171 175/175/175
f 175/175/175 171/171/171 173/173/173
f 174/174/174 176/176/176 173/173/173
f 176/176/176 175/175/175 173/173/173
f 177/177/177 176/176/176 174/174/174
f 169/169/169 175/175/175 178/178/178
f 168/168/168 169/169/169 178/178/178
f 176/176/176 179/179/179 175/175/175
f 179/179/179 178/178/178 175/175/175
f 177/177/177 180/180/180 176/176/176
f 180/180/180 179/179/179 176/176/176
f 177/177/177 181/181/181 180/180/180
f 182/182/182 179/179/179 180/180/180
f 183/183/183 178/178/178 179/179/179
f 179/179/179 182/182/182 183/183/183
f 178/178/178 183/183/183 168/168/168
f 183/183/183 182/182/182 184/184/184
f 184/184/184 182/182/182 185/185/185
f 184/184/184 185/185/185 186/186/186
f 168/168/168 183/183/183 187/187/187
f 187/187/187 183/183/183 184/184/184
f 188/188/188 184/184/184 186/186/186
f 187/187/187 184/184/184 188/188/188
f 186/186/186 189/189/189 188/188/188
f 190/190/190 188/188/188 189/189/189
f 190/190/190 187/187/187 188/188/188
f 191/191/191 190/190/190 189/189/189
f 192/192/192 168/168/168 187/187/187
f 192/192/192 187/187/187 190/190/190
f 168/168/168 192/192/192 159/159/159
f 193/193/193 192/192/192 190/190/190
f 159/159/159 192/192/192 193/193/193
f 193/193/193 190/190/190 191/191/191
f 163/163/163 159/159/159 193/193/193
f 194/194/194 193/193/193 191/191/191
f 193/193/193 194/194/194 163/163/163
f 191/191/191 195/195/195 194/194/194
f 163/163/163 194/194/194 196/196/196
f 194/194/194 195/195/195 196/196/196
f 197/197/197 196/196/196 195/195/195
f 166/166/166 163/163/163 196/196/196
f 197/197/197 198/198/198 196/196/196
f 166/166/166 196/196/196 198/198/198
f 197/197/197 199/199/199 198/198/198
f 200/200/200 166/166/166 198/198/198
f 200/200/200 198/198/198 199/199/199
f 166/166/166 200/200/200 162/162/162
f 201/201/201 200/200/200 199/199/199
f 201/201/201 199/199/199 202/202/202
f 162/162/162 200/200/200 203/203/203
f 201/201/201 203/203/203 200/200/200
f 162/162/162 203/203/203 112/112/112
f 112/112/112 203/203/203 204/204/204
f 112/112/112 204/204/204 109/109/109
f 106/106/106 109/109/109 204/204/204
f 204/204/204 203/203/203 205/205/205
f 203/203/203 201/201/201 205/205/205
f 206/206/206 205/205/205 201/201/201
f 207/207/207 201/201/201 202/202/202
f 207/207/207 206/206/206 201/201/201
f 208/208/208 207/207/207 202/202/202
f 209/209/209 106/106/106 204/204/204
f 204/204/204 205/205/205 209/209/209
f 205/205/205 206/206/206 209/209/209
f 209/209/209 107/107/107 106/106/106
f 209/209/209 140/140/140 107/107/107
f 209/209/209 206/206/206 140/140/140
f 140/140/140 206/206/206 141/141/141
f 208/208/208 210/210/210 207/207/207
f 206/206/206 207/207/207 210/210/210
f 210/210/210 208/208/208 211/211/211
f 212/212/212 210/210/210 211/211/211
f 210/210/210 212/212/212 206/206/206
f 141/141/141 206/206/206 212/212/212
f 212/212/212 151/151/151 141/141/141
f 215/215/215 214/214/214 213/213/213
f 213/213/213 214/214/214 216/216/216
f 217/217/217 216/216/216 214/214/214
f 218/218/218 217/217/217 214/214/214
f 219/219/219 213/213/213 216/216/216
f 220/220/220 213/213/213 219/219/219
f 220/220/220 219/219/219 221/221/221
f 217/217/217 218/218/218 222/222/222
f 222/222/222 218/218/218 223/223/223
f 59/59/59 222/222/222 223/223/223
f 60/60/60 222/222/222 59/59/59
f 60/60/60 224/224/224 222/222/222
f 224/224/224 217/217/217 222/222/222
f 60/60/60 61/61/61 224/224/224
f 217/217/217 225/225/225 216/216/216
f 217/217/217 224/224/224 225/225/225
f 219/219/219 216/216/216 226/226/226
f 225/225/225 226/226/226 216/216/216
f 221/221/221 219/219/219 227/227/227
f 227/227/227 219/219/219 226/226/226
f 221/221/221 227/227/227 228/228/228
f 228/228/228 227/227/227 226/226/226
f 221/221/221 228/228/228 229/229/229
f 61/61/61 230/230/230 224/224/224
f 224/224/224 230/230/230 225/225/225
f 231/231/231 226/226/226 225/225/225
f 231/231/231 228/228/228 226/226/226
f 228/228/228 232/232/232 229/229/229
f 232/232/232 233/233/233 229/229/229
f 232/232/232 228/228/228 234/234/234
f 234/234/234 228/228/228 231/231/231
f 233/233/233 232/232/232 235/235/235
f 232/232/232 234/234/234 235/235/235
f 225/225/225 230/230/230 236/236/236
f 236/236/236 231/231/231 225/225/225
f 237/237/237 233/233/233 235/235/235
f 237/237/237 238/238/238 233/233/233
f 237/237/237 239/239/239 238/238/238
f 239/239/239 237/237/237 240/240/240
f 240/240/240 241/241/241 239/239/239
f 241/241/241 240/240/240 242/242/242
f 241/241/241 242/242/242 243/243/243
f 243/243/243 242/242/242 244/244/244
f 240/240/240 245/245/245 242/242/242
f 246/246/246 242/242/242 245/245/245
f 237/237/237 247/247/247 240/240/240
f 247/247/247 237/237/237 248/248/248
f 237/237/237 235/235/235 248/248/248
f 247/247/247 248/248/248 249/249/249
f 235/235/235 250/250/250 248/248/248
f 235/235/235 234/234/234 250/250/250
f 248/248/248 251/251/251 249/249/249
f 248/248/248 250/250/250 251/251/251
f 252/252/252 250/250/250 234/234/234
f 252/252/252 234/234/234 231/231/231
f 251/251/251 253/253/253 249/249/249
f 254/254/254 249/249/249 253/253/253
f 252/252/252 255/255/255 250/250/250
f 255/255/255 251/251/251 250/250/250
f 231/231/231 256/256/256 252/252/252
f 236/236/236 256/256/256 231/231/231
f 256/256/256 257/257/257 252/252/252
f 252/252/252 257/257/257 255/255/255
f 256/256/256 236/236/236 258/258/258
f 258/258/258 257/257/257 256/256/256
f 236/236/236 230/230/230 258/258/258
f 258/258/258 230/230/230 259/259/259
f 61/61/61 259/259/259 230/230/230
f 258/258/258 260/260/260 257/257/257
f 258/258/258 259/259/259 260/260/260
f 257/257/257 261/261/261 255/255/255
f 260/260/260 261/261/261 257/257/257
f 255/255/255 262/262/262 251/251/251
f 255/255/255 261/261/261 262/262/262
f 262/262/262 263/263/263 251/251/251
f 253/253/253 251/251/251 263/263/263
f 61/61/61 264/264/264 259/259/259
f 260/260/260 259/259/259 265/265/265
f 264/264/264 265/265/265 259/259/259
f 260/260/260 266/266/266 261/261/261
f 260/260/260 265/265/265 266/266/266
f 262/262/262 261/261/261 267/267/267
f 266/266/266 267/267/267 261/261/261
f 61/61/61 268/268/268 264/264/264
f 268/268/268 61/61/61 49/49/49
f 268/268/268 49/49/49 45/45/45
f 269/269/269 262/262/262 267/267/267
f 263/263/263 262/262/262 269/269/269
f 264/264/264 268/268/268 270/270/270
f 265/265/265 264/264/264 270/270/270
f 45/45/45 271/271/271 268/268/268
f 270/270/270 268/268/268 271/271/271
f 271/271/271 45/45/45 44/44/44
f 272/272/272 270/270/270 271/271/271
f 270/270/270 272/272/272 265/265/265
f 271/271/271 273/273/273 272/272/272
f 272/272/272 274/274/274 265/265/265
f 274/274/274 266/266/266 265/265/265
f 274/274/274 275/275/275 266/266/266
f 275/275/275 276/276/276 266/266/266
f 276/276/276 267/267/267 266/266/266
f 267/267/267 276/276/276 269/269/269
f 263/263/263 269/269/269 277/277/277
f 276/276/276 277/277/277 269/269/269
f 278/278/278 277/277/277 276/276/276
f 279/279/279 278/278/278 276/276/276
f 263/263/263 277/277/277 280/280/280
f 280/280/280 277/277/277 281/281/281
f 253/253/253 263/263/263 280/280/280
f 282/282/282 280/280/280 281/281/281
f 280/280/280 282/282/282 253/253/253
f 282/282/282 254/254/254 253/253/253
f 283/283/283 254/254/254 282/282/282
f 283/283/283 284/284/284 254/254/254
f 285/285/285 213/213/213 220/220/220
f 285/285/285 286/286/286 213/213/213
f 215/215/215 213/213/213 286/286/286
f 287/287/287 286/286/286 285/285/285
f 287/287/287 285/285/285 288/288/288
f 285/285/285 289/289/289 288/288/288
f 290/290/290 215/215/215 286/286/286
f 287/287/287 291/291/291 286/286/286
f 290/290/290 286/286/286 291/291/291
f 290/290/290 292/292/292 215/215/215
f 215/215/215 292/292/292 214/214/214
f 214/214/214 292/292/292 218/218/218
f 292/292/292 223/223/223 218/218/218
f 290/290/290 293/293/293 292/292/292
f 292/292/292 293/293/293 223/223/223
f 294/294/294 293/293/293 290/290/290
f 294/294/294 290/290/290 291/291/291
f 293/293/293 295/295/295 223/223/223
f 293/293/293 294/294/294 295/295/295
f 59/59/59 223/223/223 295/295/295
f 56/56/56 59/59/59 295/295/295
f 56/56/56 295/295/295 296/296/296
f 294/294/294 296/296/296 295/295/295
f 55/55/55 56/56/56 296/296/296
f 177/177/177 296/296/296 294/294/294
f 55/55/55 296/296/296 177/177/177
f 55/55/55 177/177/177 174/174/174
f 174/174/174 51/51/51 55/55/55
f 51/51/51 174/174/174 172/172/172
f 51/51/51 172/172/172 41/41/41
f 42/42/42 41/41/41 172/172/172
f 177/177/177 294/294/294 181/181/181
f 294/294/294 291/291/291 181/181/181
f 297/297/297 181/181/181 291/291/291
f 297/297/297 291/291/291 287/287/287
f 181/181/181 297/297/297 298/298/298
f 298/298/298 180/180/180 181/181/181
f 180/180/180 298/298/298 182/182/182
f 182/182/182 298/298/298 185/185/185
f 297/297/297 287/287/287 299/299/299
f 297/297/297 299/299/299 298/298/298
f 299/299/299 185/185/185 298/298/298
f 287/287/287 288/288/288 299/299/299
f 186/186/186 185/185/185 299/299/299
f 300/300/300 299/299/299 288/288/288
f 300/300/300 186/186/186 299/299/299
f 301/301/301 300/300/300 288/288/288
f 300/300/300 301/301/301 302/302/302
f 302/302/302 186/186/186 300/300/300
f 301/301/301 303/303/303 302/302/302
f 302/302/302 303/303/303 304/304/304
f 304/304/304 305/305/305 302/302/302
f 186/186/186 302/302/302 305/305/305
f 189/189/189 186/186/186 305/305/305
f 306/306/306 189/189/189 305/305/305
f 189/189/189 306/306/306 191/191/191
f 191/191/191 306/306/306 195/195/195
f 197/197/197 195/195/195 306/306/306
f 306/306/306 307/307/307 197/197/197
f 308/308/308 197/197/197 307/307/307
f 308/308/308 199/199/199 197/197/197
f 199/199/199 308/308/308 309/309/309
f 202/202/202 199/199/199 309/309/309
f 151/151/151 212/212/212 152/152/152
f 212/212/212 211/211/211 152/152/152
f 3/3/3 152/152/152 211/211/211
f 3/3/3 1/1/1 152/152/152
f 3/3/3 211/211/211 310/310/310
f 208/208/208 310/310/310 211/211/211
f 3/3/3 310/310/310 311/311/311
f 3/3/3 311/311/311 2/2/2
f 208/208/208 312/312/312 310/310/310
f 312/312/312 208/208/208 202/202/202
f 312/312/312 202/202/202 309/309/309
f 310/310/310 312/312/312 313/313/313
f 313/313/313 312/312/312 309/309/309
f 311/311/311 310/310/310 313/313/313
f 2/2/2 311/311/311 314/314/314
f 314/314/314 315/315/315 2/2/2
f 315/315/315 314/314/314 316/316/316
f 313/313/313 309/309/309 317/317/317
f 309/309/309 308/308/308 317/317/317
f 313/313/313 318/318/318 311/311/311
f 311/311/311 318/318/318 314/314/314
f 318/318/318 313/313/313 317/317/317
f 314/314/314 318/318/318 319/319/319
f 319/319/319 316/316/316 314/314/314
f 318/318/318 317/317/317 319/319/319
f 308/308/308 320/320/320 317/317/317
f 317/317/317 320/320/320 319/319/319
f 321/321/321 316/316/316 319/319/319
f 321/321/321 322/322/322 316/316/316
f 322/322/322 321/321/321 323/323/323
f 324/324/324 321/321/321 319/319/319
f 320/320/320 324/324/324 319/319/319
f 320/320/320 308/308/308 325/325/325
f 308/308/308 307/307/307 325/325/325
f 321/321/321 326/326/326 323/323/323
f 321/321/321 324/324/324 326/326/326
f 324/324/324 320/320/320 327/327/327
f 327/327/327 320/320/320 325/325/325
f 328/328/328 325/325/325 307/307/307
f 327/327/327 325/325/325 328/328/328
f 328/328/328 307/307/307 305/305/305
f 305/305/305 307/307/307 306/306/306
f 304/304/304 328/328/328 305/305/305
f 327/327/327 328/328/328 304/304/304
f 329/329/329 324/324/324 327/327/327
f 326/326/326 324/324/324 329/329/329
f 323/323/323 326/326/326 330/330/330
f 331/331/331 323/323/323 330/330/330
f 327/327/327 304/304/304 332/332/332
f 329/329/329 327/327/327 332/332/332
f 332/332/332 304/304/304 333/333/333
f 304/304/304 303/303/303 333/333/333
f 303/303/303 301/301/301 333/333/333
f 329/329/329 334/334/334 326/326/326
f 326/326/326 334/334/334 330/330/330
f 329/329/329 332/332/332 335/335/335
f 333/333/333 335/335/335 332/332/332
f 336/336/336 334/334/334 329/329/329
f 334/334/334 336/336/336 330/330/330
f 335/335/335 336/336/336 329/329/329
f 330/330/330 337/337/337 331/331/331
f 337/337/337 330/330/330 336/336/336
f 333/333/333 301/301/301 289/289/289
f 301/301/301 288/288/288 289/289/289
f 335/335/335 333/333/333 338/338/338
f 338/338/338 333/333/333 289/289/289
f 336/336/336 335/335/335 339/339/339
f 339/339/339 335/335/335 338/338/338
f 336/336/336 339/339/339 337/337/337
f 289/289/289 340/340/340 338/338/338
f 339/339/339 338/338/338 340/340/340
f 220/220/220 340/340/340 289/289/289
f 285/285/285 220/220/220 289/289/289
f 220/220/220 221/221/221 340/340/340
f 340/340/340 341/341/341 339/339/339
f 221/221/221 341/341/341 340/340/340
f 339/339/339 341/341/341 337/337/337
f 341/341/341 221/221/221 229/229/229
f 229/229/229 342/342/342 341/341/341
f 337/337/337 341/341/341 342/342/342
f 233/233/233 342/342/342 229/229/229
f 233/233/233 238/238/238 342/342/342
f 343/343/343 337/337/337 342/342/342
f 343/343/343 342/342/342 238/238/238
f 337/337/337 343/343/343 331/331/331
f 239/239/239 343/343/343 238/238/238
f 331/331/331 343/343/343 243/243/243
f 343/343/343 239/239/239 243/243/243
f 241/241/241 243/243/243 239/239/239
f 243/243/243 244/244/244 331/331/331
f 331/331/331 244/244/244 344/344/344
f 323/323/323 331/331/331 344/344/344
f 344/344/344 322/322/322 323/323/323
f 244/244/244 345/345/345 344/344/344
f 344/344/344 345/345/345 322/322/322
f 242/242/242 345/345/345 244/244/244
f 345/345/345 346/346/346 322/322/322
f 316/316/316 322/322/322 346/346/346
f 345/345/345 242/242/242 347/347/347
f 246/246/246 347/347/347 242/242/242
f 346/346/346 345/345/345 348/348/348
f 347/347/347 348/348/348 345/345/345
f 349/349/349 346/346/346 348/348/348
f 347/347/347 350/350/350 348/348/348
f 349/349/349 351/351/351 346/346/346
f 351/351/351 316/316/316 346/346/346
f 350/350/350 347/347/347 352/352/352
f 347/347/347 246/246/246 352/352/352
f 284/284/284 352/352/352 246/246/246
f 254/254/254 284/284/284 246/246/246
f 316/316/316 351/351/351 353/353/353
f 353/353/353 315/315/315 316/316/316
f 2/2/2 315/315/315 353/353/353
f 354/354/354 2/2/2 353/353/353
f 254/254/254 246/246/246 245/245/245
f 249/249/249 254/254/254 245/245/245
f 247/247/247 249/249/249 245/245/245
f 240/240/240 247/247/247 245/245/245
f 18/18/18 20/20/20 355/355/355
f 17/17/17 18/18/18 355/355/355

