mtllib Apple_19.mtl
v 2.434872E-05 0.02173812 0.001916153
v 0.0004311513 0.03070552 0.0018315
v 0.001572414 0.02924027 0.00218809
v 0.002148776 0.02943683 0.001584158
v 0.0004311513 0.03070552 0.0018315
v 0.0009866027 0.03024694 0.0002374351
v 0.001572414 0.02924027 0.00218809
v 0.0004311513 0.03070552 0.0018315
v 0.002148776 0.02943683 0.001584158
v 2.434872E-05 0.02173812 0.001916153
v 0.001572414 0.02924027 0.00218809
v 2.738768E-05 -0.01047591 0.03943682
v -0.01011921 -0.01048006 0.03686485
v -0.01137532 -0.0002422539 0.03754746
v -0.001749586 0.01364288 0.001366542
v -0.001604034 0.0209398 0.001445143
v -0.0005141454 0.01362199 0.002448525
v 0.0004311513 0.03070552 0.0018315
v 0.0003627619 0.01358987 0.001450761
v 0.0002098617 0.02111194 0.0008284849
v -0.000750391 0.01360878 0.0003463939
v -0.001070482 0.02073873 0.0002705512
v 0.0009866027 0.03024694 0.0002374351
v 0.002148776 0.02943683 0.001584158
v -0.0005141454 0.01362199 0.002448525
v 0.0004311513 0.03070552 0.0018315
v 2.434872E-05 0.02173812 0.001916153
v 0.0003627619 0.01358987 0.001450761
v 0.0002098617 0.02111194 0.0008284849
v 0.002148776 0.02943683 0.001584158
v -0.001749586 0.01364288 0.001366542
v -0.000750391 0.01360878 0.0003463939
v -0.001070482 0.02073873 0.0002705512
v -0.001604034 0.0209398 0.001445143
v 0.0009866027 0.03024694 0.0002374351
v 0.0004311513 0.03070552 0.0018315
v -0.007651547 -0.005662693 -0.03855195
v -0.01566588 0.0008469077 -0.03492147
v -0.01334147 -0.01522738 -0.03488996
v -0.006967505 0.01424051 -0.0319478
v -0.0001468242 0.001533996 -0.03837839
v -0.0002514124 -0.01059782 -0.03895904
v 0.007516078 0.002706555 -0.03725859
v 0.007361765 -0.01069181 -0.0382216
v 0.01670301 -0.01081937 -0.03445091
v 0.01683318 -0.002891904 -0.0345301
v 0.02586602 -0.008701297 -0.02803137
v 0.01361982 0.007396016 -0.03306015
v 0.02498851 0.007651701 -0.02607202
v 0.02498851 0.007651701 -0.02607202
v 0.01683318 -0.002891904 -0.0345301
v 0.02586602 -0.008701297 -0.02803137
v 0.03107924 0.007116703 -0.02008109
v 0.03126016 -0.01081138 -0.02091857
v 0.03511599 -0.006643711 -0.01468516
v 0.03529523 0.007890703 -0.01083776
v 0.03773577 -0.009124315 -0.006405213
v 0.02819892 0.01626272 -0.01529834
v 0.03881306 -0.008049938 1.560688E-05
v 0.03190645 0.01636036 -0.00326804
v 0.03726217 0.007457809 0.0005693708
v 0.02224977 0.02313075 -0.01226753
v 0.01766448 0.02261751 -0.01803979
v 0.02561009 0.02292147 -0.00285724
v 0.03208834 0.015795 0.007190044
v 0.02497803 0.02281321 0.00957736
v 0.02835228 0.01689022 0.01534467
v 0.0346541 0.007121449 0.0150009
v 0.0375484 0.005913025 0.007747483
v 0.03766771 -0.01114309 0.007840695
v 0.03611942 -0.007726026 0.01614743
v 0.02835228 0.01689022 0.01534467
v 0.02011481 0.01472658 0.0271378
v 0.02175478 0.02263764 0.01641288
v 0.02918353 0.006380823 0.02478845
v 0.0346541 0.007121449 0.0150009
v 0.03611942 -0.007726026 0.01614743
v 0.03250803 -0.007875757 0.02306107
v 0.02801319 -0.007006141 0.02865717
v 0.01985929 0.007723467 0.03218199
v 0.009624961 0.01552093 0.03150259
v 0.01436218 0.02227074 0.02299037
v 0.0221166 -0.001804993 0.03325057
v 0.0188625 -0.01173926 0.03439521
v 0.01009425 -0.002174484 0.03912812
v 0.007683815 -0.01063884 0.03872285
v 2.738768E-05 -0.01047591 0.03943682
v 0.007671016 0.007535569 0.03672004
v -0.001553566 0.007421187 0.0379769
v 0.0002942491 -0.001317687 0.04030049
v -0.01137532 -0.0002422539 0.03754746
v 0.01742858 -0.0413201 -0.008344483
v 0.01168029 -0.0433227 -0.008653769
v 0.01465711 -0.04313166 -0.001005777
v 0.01012622 -0.04193156 -0.001230462
v 0.004979725 -0.04190469 -0.008319616
v -0.000662688 -0.03682039 0.0001458997
v 0.008178058 -0.04088075 0.005744601
v 0.006187254 -0.04305952 -0.01336311
v -0.0003295623 -0.04181369 -0.01054436
v -6.096312E-06 -0.04279561 -0.01518961
v -0.005497166 -0.0418423 -0.009246153
v -0.006204985 -0.04288619 -0.01426442
v -0.01043674 -0.04308875 -0.01167684
v -0.01101691 -0.04143671 -0.002687736
v -0.01426756 -0.04279471 -0.007179846
v -0.01634858 -0.04198593 -0.001054577
v -0.01025567 -0.04036323 0.00533731
v -0.005417611 -0.04017056 0.010292
v -0.0139862 -0.0407315 0.008537848
v -0.02103996 -0.03783101 0.006966175
v -0.0211892 -0.03928138 -0.002780725
v 7.288462E-05 -0.04048616 0.01113422
v -0.007838097 -0.04029301 0.01399881
v -0.01808362 -0.03789886 0.0111848
v 0.0006819219 -0.04091529 0.01568794
v -0.01092666 -0.03791679 0.0163876
v -0.02464661 -0.01903797 0.02716564
v -0.03088334 -0.01878879 0.02101889
v -0.02668805 -0.01063516 0.02987015
v -0.03438184 -0.01045005 0.02290536
v -0.03391782 -0.01952782 0.01482785
v -0.01011921 -0.01048006 0.03686485
v -0.01113169 -0.01937898 0.03252361
v -0.0147528 -0.02870499 0.02382279
v -0.000258793 -0.02016855 0.03469501
v 2.738768E-05 -0.01047591 0.03943682
v 0.007683815 -0.01063884 0.03872285
v -0.007673507 -0.03122888 0.02493281
v 0.00698205 -0.02044018 0.03445752
v 0.0188625 -0.01173926 0.03439521
v 0.01704844 -0.01997526 0.03171679
v -0.002207375 -0.03789064 0.01965448
v 0.001302856 -0.03358015 0.02453583
v 0.01136936 -0.03414667 0.02271854
v 0.01957677 -0.0286891 0.02341915
v 0.005142359 -0.03923685 0.01872269
v 0.01044582 -0.03994237 0.01602855
v 0.008717523 -0.04188709 0.01235978
v 0.0168419 -0.03977213 0.009238819
v 0.01320191 -0.04184753 0.005972052
v 0.01906383 -0.04102992 0.0006085736
v 0.02418 -0.03522928 0.007128933
v 0.01906383 -0.04102992 0.0006085736
v 0.0168419 -0.03977213 0.009238819
v 0.0181569 -0.03528008 0.016823
v 0.01044582 -0.03994237 0.01602855
v 0.01136936 -0.03414667 0.02271854
v 0.02743662 -0.02877731 0.01393794
v 0.01957677 -0.0286891 0.02341915
v 0.02764151 -0.01971816 0.02359005
v 0.01704844 -0.01997526 0.03171679
v 0.0188625 -0.01173926 0.03439521
v 0.02801319 -0.007006141 0.02865717
v 0.03250803 -0.007875757 0.02306107
v 0.03611942 -0.007726026 0.01614743
v 0.0328407 -0.02233068 0.01112507
v 0.03766771 -0.01114309 0.007840695
v 0.02966597 -0.02935773 0.004442594
v 0.03514287 -0.02003187 0.0001845244
v 0.01436218 0.02227074 0.02299037
v 0.02175478 0.02263764 0.01641288
v 0.02011481 0.01472658 0.0271378
v 0.009664098 0.02582846 0.01884694
v 0.01558629 0.02638735 0.01375738
v 0.02497803 0.02281321 0.00957736
v 0.01870094 0.02669946 0.007210609
v 0.02835228 0.01689022 0.01534467
v 0.001491674 0.02541922 0.02108901
v 0.0003298752 0.02418104 0.0144135
v 0.006095715 0.02472179 0.01287067
v -0.004970764 0.0256737 0.02004249
v 0.002303216 0.02218584 0.02682194
v 0.009624961 0.01552093 0.03150259
v -0.007720495 0.02298666 0.02549096
v -0.01336744 0.02564084 0.01498727
v 0.0005993604 0.01601436 0.0329842
v -0.001553566 0.007421187 0.0379769
v -0.005757615 0.01622993 0.03252405
v -0.02048544 0.02264208 0.0172101
v -0.01745989 0.02660748 0.008344506
v -0.01647878 0.007867686 0.03343922
v -0.01137532 -0.0002422539 0.03754746
v -0.01379234 0.01621465 0.02975052
v -0.02572422 0.02314851 0.006400322
v -0.01892903 0.02727673 0.002544297
v -0.0267754 0.02305873 -0.003031936
v -0.01856486 0.02675433 -0.005568235
v -0.03112624 0.01580263 0.01293521
v -0.03297915 0.01559602 0.006560482
v -0.03834389 0.007300961 0.007561428
v -0.02618366 0.01605988 0.02106451
v -0.02677909 0.00757548 0.02711292
v -0.02653372 -0.002212097 0.03067814
v -0.03661518 0.00746825 0.01510663
v -0.04106303 -0.001570625 0.008109001
v -0.03249394 0.007549186 0.0217832
v -0.03487032 -0.00147927 0.02329219
v -0.03934647 -0.00154905 0.01622321
v -0.03836209 -0.01045816 0.01582895
v -0.03438184 -0.01045005 0.02290536
v -0.02668805 -0.01063516 0.02987015
v -0.01011921 -0.01048006 0.03686485
v -0.02103996 -0.03783101 0.006966175
v -0.01808362 -0.03789886 0.0111848
v -0.0139862 -0.0407315 0.008537848
v -0.03391782 -0.01952782 0.01482785
v -0.03088334 -0.01878879 0.02101889
v -0.02725734 -0.03230384 0.004270419
v -0.02611923 -0.03405045 -0.002223102
v -0.0211892 -0.03928138 -0.002780725
v -0.03543552 -0.02108914 0.003705935
v -0.02379478 -0.03328431 -0.01162355
v -0.03215687 -0.02461366 -0.006173195
v -0.01747121 -0.03985294 -0.01184245
v -0.02071215 -0.02968444 -0.02121144
v -0.01634858 -0.04198593 -0.001054577
v -0.01426756 -0.04279471 -0.007179846
v -0.01043674 -0.04308875 -0.01167684
v -0.01088175 -0.04009938 -0.01796773
v -0.01255664 -0.03491243 -0.02243193
v -0.003402777 -0.04001978 -0.02015879
v -0.01795445 -0.02675757 -0.02606059
v -0.009758675 -0.02751968 -0.02960849
v -0.01984417 -0.01608456 -0.03076712
v -0.01334147 -0.01522738 -0.03488996
v -0.02756891 -0.01335637 -0.02579773
v -0.02850312 -0.0218663 -0.01892848
v -0.03269391 -0.01020576 -0.02162146
v -0.03128907 -0.02241526 -0.01314479
v -0.03649106 -0.0101899 -0.0149614
v -0.03940561 -0.01021606 -0.004939454
v -0.03993604 -0.01033314 0.007920551
v -0.03836209 -0.01045816 0.01582895
v -0.03438184 -0.01045005 0.02290536
v -0.03265825 0.000718297 -0.02190512
v -0.02470795 -0.001724816 -0.02994468
v -0.02263449 0.006199399 -0.02858182
v -0.01964081 0.01468245 -0.0254038
v -0.01566588 0.0008469077 -0.03492147
v -0.01231345 0.015199 -0.02925981
v -0.006967505 0.01424051 -0.0319478
v -0.01213242 0.02194378 -0.02289967
v -0.02346812 0.02256401 -0.01321432
v -0.02732356 0.01523914 -0.01802677
v -0.03185662 0.01408072 -0.0130611
v -0.03727309 -0.001561166 -0.01531885
v -0.03789861 0.007879987 -0.003324745
v -0.03309657 0.01627056 -0.003008439
v -0.03297915 0.01559602 0.006560482
v -0.03834389 0.007300961 0.007561428
v -0.04106303 -0.001570625 0.008109001
v -0.02572422 0.02314851 0.006400322
v -0.0267754 0.02305873 -0.003031936
v -0.01856486 0.02675433 -0.005568235
v -0.008308596 0.02582401 -0.01745097
v -0.01457679 0.02605829 -0.01276027
v -0.001787797 0.02619223 -0.01899373
v -0.005417638 0.02451985 -0.01141274
v -0.009638749 0.02466391 -0.008014306
v -0.0009666632 0.01350117 0.001516274
v -0.01199744 0.02482917 -0.003729406
v -0.01892903 0.02727673 0.002544297
v -0.01269104 0.02518286 0.001948822
v -0.01745989 0.02660748 0.008344506
v -0.0112918 0.02476444 0.006418074
v -0.01336744 0.02564084 0.01498727
v -0.00880096 0.02411885 0.01008256
v -0.004970764 0.0256737 0.02004249
v -0.004684761 0.02353183 0.01258548
v 0.0003298752 0.02418104 0.0144135
v 0.006095715 0.02472179 0.01287067
v -0.000163125 0.02357365 -0.01199373
v 0.004475771 0.02404349 -0.01230774
v 0.005667544 0.02584291 -0.01836525
v 0.008847756 0.02413588 -0.008740932
v -0.003022735 0.0226519 -0.02544296
v -0.0001282405 0.01558626 -0.03172395
v -0.0001468242 0.001533996 -0.03837839
v 0.005715052 0.0227889 -0.02454043
v 0.008278413 0.01578252 -0.03040063
v 0.007516078 0.002706555 -0.03725859
v 0.01361982 0.007396016 -0.03306015
v 0.01766448 0.02261751 -0.01803979
v 0.02202797 0.01587975 -0.02262679
v 0.02498851 0.007651701 -0.02607202
v 0.03107924 0.007116703 -0.02008109
v 0.02819892 0.01626272 -0.01529834
v 0.01350048 0.0256892 -0.01316234
v 0.01692963 0.02642922 -0.008602614
v 0.02224977 0.02313075 -0.01226753
v 0.01132195 0.02495424 -0.005257304
v 0.019406 0.02654686 -0.0007116192
v 0.02561009 0.02292147 -0.00285724
v 0.01262385 0.02530494 -0.0002086347
v 0.01870094 0.02669946 0.007210609
v 0.02497803 0.02281321 0.00957736
v 0.01248189 0.02536696 0.004775756
v 0.01003267 0.02502688 0.009614523
v 0.01558629 0.02638735 0.01375738
v 0.009664098 0.02582846 0.01884694
v -0.01043674 -0.04308875 -0.01167684
v -0.006204985 -0.04288619 -0.01426442
v -0.01088175 -0.04009938 -0.01796773
v -0.003402777 -0.04001978 -0.02015879
v -6.096312E-06 -0.04279561 -0.01518961
v 0.004779453 -0.04035065 -0.01932462
v 0.006187254 -0.04305952 -0.01336311
v 0.01200643 -0.04092081 -0.01535876
v 0.01168029 -0.0433227 -0.008653769
v 0.01197594 -0.03504376 -0.02159222
v -0.002137579 -0.03125611 -0.02844311
v -0.01255664 -0.03491243 -0.02243193
v -0.009758675 -0.02751968 -0.02960849
v 0.004922502 -0.03044624 -0.02823386
v -0.003430265 -0.01936807 -0.03620315
v -0.01334147 -0.01522738 -0.03488996
v -0.007651547 -0.005662693 -0.03855195
v -0.0002514124 -0.01059782 -0.03895904
v 0.006678118 -0.01949746 -0.03537803
v 0.007361765 -0.01069181 -0.0382216
v 0.01670301 -0.01081937 -0.03445091
v 0.01190547 -0.0214216 -0.03250049
v 0.0172571 -0.02089919 -0.02955779
v 0.02277838 -0.0238272 -0.0232314
v 0.02586602 -0.008701297 -0.02803137
v 0.03126016 -0.01081138 -0.02091857
v 0.01200643 -0.04092081 -0.01535876
v 0.01168029 -0.0433227 -0.008653769
v 0.01742858 -0.0413201 -0.008344483
v 0.01898116 -0.03573639 -0.01598497
v 0.01197594 -0.03504376 -0.02159222
v 0.02277838 -0.0238272 -0.0232314
v 0.02335925 -0.03572201 -0.007128377
v 0.02555591 -0.02922812 -0.01498351
v 0.03038498 -0.0207238 -0.01632397
v 0.03126016 -0.01081138 -0.02091857
v 0.03511599 -0.006643711 -0.01468516
v 0.03773577 -0.009124315 -0.006405213
v 0.03325602 -0.02239181 -0.00666604
v 0.03514287 -0.02003187 0.0001845244
v 0.03881306 -0.008049938 1.560688E-05
v 0.03766771 -0.01114309 0.007840695
v 0.0328407 -0.02233068 0.01112507
v 0.02966597 -0.02935773 0.004442594
v 0.01906383 -0.04102992 0.0006085736
v 0.01465711 -0.04313166 -0.001005777
v 0.02461605 -0.03569416 0.0001497054
v 0.02418 -0.03522928 0.007128933
v 0.02743662 -0.02877731 0.01393794
v -0.03836209 -0.01045816 0.01582895
v -0.03993604 -0.01033314 0.007920551
v -0.04106303 -0.001570625 0.008109001
v -0.04059339 -0.00185718 -0.004723704
v -0.03789861 0.007879987 -0.003324745
v -0.03940561 -0.01021606 -0.004939454
v -0.03727309 -0.001561166 -0.01531885
v -0.03649106 -0.0101899 -0.0149614
v -0.03265825 0.000718297 -0.02190512
v -0.03269391 -0.01020576 -0.02162146
v -0.02470795 -0.001724816 -0.02994468
v -0.02756891 -0.01335637 -0.02579773
v -0.01984417 -0.01608456 -0.03076712
v -0.01566588 0.0008469077 -0.03492147
v -0.02263449 0.006199399 -0.02858182
v -0.01334147 -0.01522738 -0.03488996
vt 0.0979827 0.8351377
vt 0.09682954 0.9084339
vt 0.1079872 0.8965174
vt 0.1165126 0.8997445
vt 0.1277718 0.9148518
vt 0.1340003 0.8996024
vt 0.1079872 0.8965174
vt 0.09682954 0.9084339
vt 0.1165126 0.8997445
vt 0.0979827 0.8351377
vt 0.1079872 0.8965174
vt 0.7172535 0.9637859
vt 0.8095328 0.925233
vt 0.7651192 0.8408303
vt 0.08132511 0.7712919
vt 0.07984205 0.8296836
vt 0.09482507 0.7712803
vt 0.09682954 0.9084339
vt 0.1045782 0.7714285
vt 0.1083098 0.8292349
vt 0.1155476 0.771794
vt 0.1201311 0.8238133
vt 0.1340003 0.8996024
vt 0.1165126 0.8997445
vt 0.09482507 0.7712803
vt 0.09682954 0.9084339
vt 0.0979827 0.8351377
vt 0.1045782 0.7714285
vt 0.1083098 0.8292349
vt 0.1165126 0.8997445
vt 0.1264311 0.7712803
vt 0.1155476 0.771794
vt 0.1201311 0.8238133
vt 0.1312627 0.8230456
vt 0.1340003 0.8996024
vt 0.1516887 0.897511
vt 0.5747785 0.2620276
vt 0.6421776 0.3290155
vt 0.6610714 0.1790399
vt 0.5914932 0.4146127
vt 0.5276532 0.3387759
vt 0.4907857 0.2368437
vt 0.478868 0.3690041
vt 0.4237692 0.26474
vt 0.3445444 0.324467
vt 0.3935493 0.3782094
vt 0.2885241 0.4210504
vt 0.4572912 0.4236355
vt 0.4027052 0.4886712
vt 0.4027052 0.4886712
vt 0.3935493 0.3782094
vt 0.2885241 0.4210504
vt 0.3759715 0.5372483
vt 0.2411388 0.4914653
vt 0.2593632 0.5658177
vt 0.3714425 0.5999501
vt 0.2382772 0.646867
vt 0.4237788 0.5657076
vt 0.2615178 0.7000006
vt 0.4235133 0.6347882
vt 0.3786913 0.6700642
vt 0.4635147 0.57245
vt 0.4790255 0.5345407
vt 0.4605367 0.626484
vt 0.4400997 0.6902182
vt 0.485992 0.6880472
vt 0.4754713 0.7263914
vt 0.4205562 0.7525069
vt 0.386072 0.7156011
vt 0.2649956 0.7774901
vt 0.3304239 0.8295543
vt 0.4754713 0.7263914
vt 0.5376464 0.7796435
vt 0.5146788 0.7168865
vt 0.4702609 0.8041723
vt 0.4205562 0.7525069
vt 0.3304239 0.8295543
vt 0.3762726 0.8837678
vt 0.4370083 0.9157871
vt 0.543466 0.8276467
vt 0.6040481 0.7863598
vt 0.5636414 0.740769
vt 0.5162575 0.8931779
vt 0.5281993 0.9906517
vt 0.6191988 0.9073234
vt 0.6461783 0.9830295
vt 0.7172535 0.9637859
vt 0.6265827 0.8357689
vt 0.6847687 0.8242615
vt 0.6912242 0.8873005
vt 0.7651192 0.8408303
vt 0.2345149 0.1482405
vt 0.2189097 0.1562181
vt 0.2388794 0.1715695
vt 0.2261534 0.1789546
vt 0.2016131 0.1685973
vt 0.2002997 0.2004431
vt 0.2319353 0.2007315
vt 0.1968055 0.1524428
vt 0.1841239 0.1711383
vt 0.1771732 0.1575704
vt 0.1723784 0.1825075
vt 0.1620077 0.1699512
vt 0.1547202 0.1831879
vt 0.1676701 0.2078503
vt 0.1514954 0.2006098
vt 0.155145 0.2198406
vt 0.1821157 0.2280514
vt 0.2028731 0.2341373
vt 0.1763104 0.2426231
vt 0.1543456 0.2490566
vt 0.1397116 0.2225366
vt 0.2190734 0.2278222
vt 0.2019889 0.2482663
vt 0.1693095 0.2568406
vt 0.228205 0.2393118
vt 0.1973883 0.2604643
vt 0.1707408 0.3392091
vt 0.1379969 0.331013
vt 0.1648773 0.3803408
vt 0.1185551 0.3678112
vt 0.1166652 0.3149074
vt 0.2480411 0.3750186
vt 0.2289467 0.3349463
vt 0.1986229 0.2974049
vt 0.2700539 0.3176796
vt 0.2938061 0.3570551
vt 0.3226463 0.3361308
vt 0.2216911 0.2852924
vt 0.293143 0.3007945
vt 0.3560047 0.2888935
vt 0.3209831 0.2701197
vt 0.2269664 0.2557735
vt 0.2463454 0.2662365
vt 0.2710454 0.2430281
vt 0.3003198 0.2325777
vt 0.2452799 0.24045
vt 0.2551619 0.2244307
vt 0.2446182 0.2174069
vt 0.2615129 0.1958271
vt 0.2462784 0.1928646
vt 0.2530375 0.1691029
vt 0.2797005 0.1779671
vt 0.2530375 0.1691029
vt 0.2615129 0.1958271
vt 0.279255 0.2146032
vt 0.2551619 0.2244307
vt 0.2710454 0.2430281
vt 0.3060665 0.1908632
vt 0.3003198 0.2325777
vt 0.340295 0.2210261
vt 0.3209831 0.2701197
vt 0.3560047 0.2888935
vt 0.3945578 0.2454272
vt 0.3950837 0.2109526
vt 0.3963102 0.173963
vt 0.3280468 0.1703664
vt 0.3709097 0.1379377
vt 0.2959307 0.1588417
vt 0.3197054 0.1274561
vt 0.5636414 0.740769
vt 0.5146788 0.7168865
vt 0.5376464 0.7796435
vt 0.5807371 0.7138413
vt 0.5400343 0.6966949
vt 0.485992 0.6880472
vt 0.5118862 0.6685866
vt 0.4754713 0.7263914
vt 0.6297743 0.7130647
vt 0.623381 0.674237
vt 0.5903057 0.6761392
vt 0.6636714 0.6976207
vt 0.6352866 0.743179
vt 0.6040481 0.7863598
vt 0.6868089 0.7195457
vt 0.7001413 0.6577101
vt 0.6566171 0.7777165
vt 0.6847687 0.8242615
vt 0.6902246 0.7641958
vt 0.7387509 0.6577918
vt 0.7120815 0.6167223
vt 0.7638295 0.7704954
vt 0.7651192 0.8408303
vt 0.7282637 0.7362295
vt 0.7475305 0.5954573
vt 0.7110462 0.5844636
vt 0.7366678 0.5471541
vt 0.695195 0.5439634
vt 0.7886791 0.6219421
vt 0.7884653 0.5857055
vt 0.8379163 0.58129
vt 0.7757984 0.6711352
vt 0.8100477 0.7154651
vt 0.8598787 0.7688999
vt 0.8385066 0.6274268
vt 0.9022756 0.5741279
vt 0.8283148 0.6724993
vt 0.889558 0.6930184
vt 0.9009844 0.6341602
vt 0.990178 0.6436615
vt 0.970099 0.7213401
vt 0.9245635 0.808849
vt 0.8095328 0.925233
vt 0.1543456 0.2490566
vt 0.1693095 0.2568406
vt 0.1763104 0.2426231
vt 0.1166652 0.3149074
vt 0.1379969 0.331013
vt 0.1300752 0.2547154
vt 0.1241196 0.2335009
vt 0.1397116 0.2225366
vt 0.0909178 0.278329
vt 0.1139916 0.2041204
vt 0.08732537 0.2379326
vt 0.1360428 0.193252
vt 0.103085 0.1712563
vt 0.155145 0.2198406
vt 0.1514954 0.2006098
vt 0.1547202 0.1831879
vt 0.1445112 0.1675908
vt 0.1296777 0.1562808
vt 0.1602311 0.1496857
vt 0.09872808 0.1497175
vt 0.1189879 0.1244855
vt 0.05745954 0.1250947
vt 0.07318714 0.09341785
vt 0.0313428 0.1602145
vt 0.06822099 0.1906245
vt 0.01238003 0.1890756
vt 0.07204646 0.2148889
vt 0.01390193 0.2242831
vt 0.02607214 0.2715726
vt 0.05907784 0.3242406
vt 0.08712872 0.3491662
vt 0.1185551 0.3678112
vt 0.7819677 0.3893479
vt 0.7215908 0.332664
vt 0.6934927 0.3842846
vt 0.67221 0.4329074
vt 0.6421776 0.3290155
vt 0.6261171 0.4225864
vt 0.5914932 0.4146127
vt 0.6335258 0.4642138
vt 0.7057261 0.5008581
vt 0.7224609 0.4636363
vt 0.7551113 0.4840517
vt 0.8351396 0.4152094
vt 0.8188406 0.518833
vt 0.7723466 0.5369459
vt 0.7884653 0.5857055
vt 0.8379163 0.58129
vt 0.9022756 0.5741279
vt 0.7475305 0.5954573
vt 0.7366678 0.5471541
vt 0.695195 0.5439634
vt 0.6212798 0.4961789
vt 0.6624996 0.5125328
vt 0.5830143 0.49724
vt 0.6143086 0.5352436
vt 0.6415914 0.5464815
vt 0.6070966 0.6078972
vt 0.660324 0.5647892
vt 0.7110462 0.5844636
vt 0.673355 0.5919288
vt 0.7120815 0.6167223
vt 0.672541 0.616442
vt 0.7001413 0.6577101
vt 0.6642107 0.638249
vt 0.6636714 0.6976207
vt 0.6459347 0.6563219
vt 0.623381 0.674237
vt 0.5903057 0.6761392
vt 0.5859991 0.5422089
vt 0.5607891 0.5465735
vt 0.5430433 0.5125216
vt 0.5425488 0.5713767
vt 0.5805945 0.464356
vt 0.5531291 0.428982
vt 0.5276532 0.3387759
vt 0.5347345 0.4817755
vt 0.5078115 0.4499299
vt 0.478868 0.3690041
vt 0.4572912 0.4236355
vt 0.4790255 0.5345407
vt 0.443746 0.5144975
vt 0.4027052 0.4886712
vt 0.3759715 0.5372483
vt 0.4237788 0.5657076
vt 0.5070389 0.5531617
vt 0.4944382 0.5833156
vt 0.4635147 0.57245
vt 0.5330849 0.5925583
vt 0.494239 0.6287416
vt 0.4605367 0.626484
vt 0.5336212 0.620419
vt 0.5118862 0.6685866
vt 0.485992 0.6880472
vt 0.5426708 0.645508
vt 0.5640062 0.6658736
vt 0.5400343 0.6966949
vt 0.5807371 0.7138413
vt 0.1547202 0.1831879
vt 0.1620077 0.1699512
vt 0.1445112 0.1675908
vt 0.1602311 0.1496857
vt 0.1771732 0.1575704
vt 0.1836984 0.1386986
vt 0.1968055 0.1524428
vt 0.2093274 0.1381626
vt 0.2189097 0.1562181
vt 0.1996262 0.1173804
vt 0.1469405 0.1188226
vt 0.1296777 0.1562808
vt 0.1189879 0.1244855
vt 0.1675627 0.1059312
vt 0.1190646 0.07958131
vt 0.07318714 0.09341785
vt 0.06894967 0.03448188
vt 0.1117602 0.03659042
vt 0.1554635 0.06336316
vt 0.1453509 0.0248827
vt 0.191045 0.01900453
vt 0.1793886 0.0660862
vt 0.202344 0.06368203
vt 0.2312327 0.07970509
vt 0.2435339 0.0156829
vt 0.2790464 0.03823314
vt 0.2093274 0.1381626
vt 0.2189097 0.1562181
vt 0.2345149 0.1482405
vt 0.2279577 0.1229515
vt 0.1996262 0.1173804
vt 0.2312327 0.07970509
vt 0.2548712 0.1394672
vt 0.2510694 0.1085357
vt 0.2709058 0.08304191
vt 0.2790464 0.03823314
vt 0.3180253 0.04049971
vt 0.342358 0.07509788
vt 0.296384 0.1115965
vt 0.3197054 0.1274561
vt 0.3651728 0.09674973
vt 0.3709097 0.1379377
vt 0.3280468 0.1703664
vt 0.2959307 0.1588417
vt 0.2530375 0.1691029
vt 0.2388794 0.1715695
vt 0.2693746 0.1583795
vt 0.2797005 0.1779671
vt 0.3060665 0.1908632
vt 0.990178 0.6436615
vt 0.9873892 0.5634531
vt 0.9022756 0.5741279
vt 0.8792913 0.483378
vt 0.8188406 0.518833
vt 0.9507198 0.4457294
vt 0.8351396 0.4152094
vt 0.8958663 0.3640415
vt 0.7819677 0.3893479
vt 0.845219 0.3106726
vt 0.7215908 0.332664
vt 0.8045551 0.2529347
vt 0.7329097 0.1939603
vt 0.6421776 0.3290155
vt 0.6934927 0.3842846
vt 0.6610714 0.1790399
vn 0.9648604 -0.1250671 0.2310904
vn -0.4292316 0.8206187 0.3772866
vn 0.4194484 0.1402334 0.8968822
vn 0.9724957 0.2324956 0.01406933
vn -0.4292316 0.8206187 0.3772866
vn 0.04098704 0.5855376 -0.8096085
vn 0.4194484 0.1402334 0.8968822
vn -0.4292316 0.8206187 0.3772866
vn 0.9724957 0.2324956 0.01406933
vn 0.9648604 -0.1250671 0.2310904
vn 0.4194484 0.1402334 0.8968822
vn -0.05920716 -0.2291987 0.9715774
vn -0.2841048 -0.2333814 0.9299557
vn -0.2968261 -0.03045763 0.9544457
vn -0.997236 -0.04556473 0.05868788
vn -0.9400898 0.1301349 0.315113
vn 0.08115095 -0.00128165 0.9967009
vn -0.4292316 0.8206187 0.3772866
vn 0.9991078 -0.03897305 -0.01626674
vn 0.8807577 -0.117469 -0.4587667
vn 0.0106817 -0.08054017 -0.9966941
vn -0.4057194 0.04321474 -0.9129755
vn 0.04098704 0.5855376 -0.8096085
vn 0.9724957 0.2324956 0.01406933
vn 0.08115095 -0.00128165 0.9967009
vn -0.4292316 0.8206187 0.3772866
vn 0.9648604 -0.1250671 0.2310904
vn 0.9991078 -0.03897305 -0.01626674
vn 0.8807577 -0.117469 -0.4587667
vn 0.9724957 0.2324956 0.01406933
vn -0.997236 -0.04556473 0.05868788
vn 0.0106817 -0.08054017 -0.9966941
vn -0.4057194 0.04321474 -0.9129755
vn -0.9400898 0.1301349 0.315113
vn 0.04098704 0.5855376 -0.8096085
vn -0.4292316 0.8206187 0.3772866
vn -0.2341755 -0.05441629 -0.9706702
vn -0.4127427 0.0441002 -0.9097795
vn -0.3816102 -0.2267872 -0.8960698
vn -0.2205592 0.2943229 -0.9299073
vn -0.0185555 0.0810886 -0.9965341
vn -0.001159742 -0.1438693 -0.9895961
vn 0.2350863 0.08407915 -0.9683311
vn 0.231461 -0.1435646 -0.9621928
vn 0.4872119 -0.1652627 -0.8575039
vn 0.4803345 -0.003570836 -0.8770781
vn 0.6818184 -0.1456048 -0.7168843
vn 0.4334051 0.1660861 -0.8857626
vn 0.629618 0.1330345 -0.7654299
vn 0.629618 0.1330345 -0.7654299
vn 0.4803345 -0.003570836 -0.8770781
vn 0.6818184 -0.1456048 -0.7168843
vn 0.817481 0.07980701 -0.5703995
vn 0.8172195 -0.1810415 -0.5471528
vn 0.9116237 -0.1289153 -0.390286
vn 0.9513675 0.1077014 -0.2886178
vn 0.9640017 -0.1507026 -0.2190649
vn 0.7987106 0.3901843 -0.4580585
vn 0.9916112 -0.1277815 -0.01947086
vn 0.9068807 0.4095994 -0.09897412
vn 0.9918491 0.1240612 -0.02905446
vn 0.5979738 0.7165124 -0.3592177
vn 0.4453131 0.7043948 -0.5527425
vn 0.7035576 0.7045036 -0.09317502
vn 0.900107 0.3962022 0.1811933
vn 0.6891767 0.6912827 0.2171721
vn 0.7956626 0.3835942 0.4688033
vn 0.8905239 0.1533598 0.4283084
vn 0.9739648 0.1082217 0.1991999
vn 0.9688458 -0.1739619 0.1762814
vn 0.9147484 -0.1066336 0.3896982
vn 0.7956626 0.3835942 0.4688033
vn 0.5423911 0.3895804 0.744338
vn 0.5663467 0.6646494 0.4873321
vn 0.7516366 0.1690176 0.6375543
vn 0.8905239 0.1533598 0.4283084
vn 0.9147484 -0.1066336 0.3896982
vn 0.8285912 -0.1000718 0.5508378
vn 0.6854271 -0.0822182 0.7234844
vn 0.5013134 0.2005744 0.8416976
vn 0.2812015 0.4148135 0.8653644
vn 0.348164 0.6747814 0.6507319
vn 0.551639 0.02087544 0.8338218
vn 0.4789019 -0.1845474 0.8582513
vn 0.2847744 0.01229938 0.9585156
vn 0.20585 -0.2134185 0.9550279
vn -0.05920716 -0.2291987 0.9715774
vn 0.2400927 0.216227 0.9463623
vn -0.03592133 0.1812243 0.9827855
vn -0.02111916 -0.008331531 0.9997422
vn -0.2968261 -0.03045763 0.9544457
vn 0.5830373 -0.7759792 -0.2406736
vn 0.151922 -0.9847155 -0.08517747
vn 0.1892499 -0.9799123 0.06290036
vn -0.1992569 -0.9747992 0.1003153
vn -0.1211901 -0.9696429 0.2123804
vn 0.02816886 -0.997721 0.06131246
vn -0.1555852 -0.9854541 -0.06836209
vn 0.0994627 -0.9827245 -0.156076
vn 0.03509704 -0.968007 0.2484567
vn 0.05847543 -0.9790668 -0.1949587
vn 0.1877533 -0.9557048 0.2266654
vn 0.01779243 -0.9813303 -0.191505
vn -0.07330556 -0.9872445 -0.1413313
vn 0.2517256 -0.9560263 0.1504923
vn -0.1620559 -0.9861298 -0.03585966
vn -0.1986187 -0.976827 0.07974675
vn 0.231855 -0.9727409 0.004303377
vn 0.1026035 -0.9878563 -0.1166724
vn -0.1314783 -0.9662188 0.2216637
vn -0.6067807 -0.7410342 0.287551
vn -0.6481695 -0.7588019 -0.0639989
vn -0.03140442 -0.9874235 -0.1549466
vn -0.08215649 -0.9538027 0.2889823
vn -0.4832728 -0.7348127 0.4759177
vn -0.02487343 -0.9582525 0.284839
vn -0.3060474 -0.7410387 0.5976593
vn -0.4958137 -0.4360571 0.7510146
vn -0.6956632 -0.4534902 0.5571349
vn -0.5232534 -0.2311225 0.8202367
vn -0.7552004 -0.2488544 0.6064188
vn -0.8204119 -0.4542753 0.3472148
vn -0.2841048 -0.2333814 0.9299557
vn -0.27827 -0.4004365 0.87305
vn -0.3861956 -0.5567698 0.735432
vn -0.07361157 -0.4213437 0.9039087
vn -0.05920716 -0.2291987 0.9715774
vn 0.20585 -0.2134185 0.9550279
vn -0.2324324 -0.5679578 0.7895563
vn 0.1682214 -0.4081933 0.8972625
vn 0.4789019 -0.1845474 0.8582513
vn 0.4357559 -0.3501793 0.8291509
vn -0.1145698 -0.7414073 0.6612027
vn 0.002746729 -0.5913097 0.8064399
vn 0.3040655 -0.5980594 0.7415317
vn 0.5508087 -0.4848569 0.6793553
vn 0.1163073 -0.7863179 0.6067757
vn 0.3259752 -0.8148311 0.4793646
vn 0.1319355 -0.9788499 0.1563512
vn 0.4967357 -0.8161834 0.2951239
vn 0.1606822 -0.9779791 0.1331848
vn 0.5948544 -0.8004333 0.07385717
vn 0.7412862 -0.624824 0.2451321
vn 0.5948544 -0.8004333 0.07385717
vn 0.4967357 -0.8161834 0.2951239
vn 0.5667397 -0.6481035 0.5086924
vn 0.3259752 -0.8148311 0.4793646
vn 0.3040655 -0.5980594 0.7415317
vn 0.7812927 -0.471736 0.4087138
vn 0.5508087 -0.4848569 0.6793553
vn 0.7319148 -0.3040335 0.609807
vn 0.4357559 -0.3501793 0.8291509
vn 0.4789019 -0.1845474 0.8582513
vn 0.6854271 -0.0822182 0.7234844
vn 0.8285912 -0.1000718 0.5508378
vn 0.9147484 -0.1066336 0.3896982
vn 0.9088737 -0.3109337 0.2779726
vn 0.9688458 -0.1739619 0.1762814
vn 0.8892065 -0.4516837 0.07275777
vn 0.954814 -0.2970098 -0.0107426
vn 0.348164 0.6747814 0.6507319
vn 0.5663467 0.6646494 0.4873321
vn 0.5423911 0.3895804 0.744338
vn 0.0713535 0.9613191 0.2660342
vn 0.1499101 0.9687998 0.1973672
vn 0.6891767 0.6912827 0.2171721
vn 0.222421 0.9727257 0.06582889
vn 0.7956626 0.3835942 0.4688033
vn 0.03851494 0.9668105 0.2525749
vn -0.04010261 0.944273 -0.3267113
vn -0.2044513 0.9397004 -0.2741583
vn 0.002411022 0.9826593 0.1854044
vn 0.1107245 0.704877 0.7006345
vn 0.2812015 0.4148135 0.8653644
vn -0.1717002 0.7372184 0.6534739
vn -0.03293002 0.9818272 0.1868983
vn 0.08981911 0.4295022 0.8985879
vn -0.03592133 0.1812243 0.9827855
vn -0.1324545 0.3937317 0.9096325
vn -0.4525086 0.7496133 0.4830278
vn -0.08017296 0.9826453 0.1672735
vn -0.3924505 0.1448763 0.9082915
vn -0.2968261 -0.03045763 0.9544457
vn -0.3774874 0.3907327 0.8395423
vn -0.6593395 0.7235826 0.2042047
vn -0.1284239 0.9904026 0.05108864
vn -0.7012978 0.7044412 -0.1092889
vn -0.1315355 0.9859363 -0.1030922
vn -0.8199317 0.4497936 0.3541154
vn -0.9098365 0.3950092 0.1271427
vn -0.9778444 0.1838799 0.1000429
vn -0.6381966 0.4424741 0.6300173
vn -0.5812937 0.1647107 0.7968488
vn -0.5372246 -0.04681589 0.842139
vn -0.9065768 0.2092101 0.3665372
vn -0.9953645 -0.05142384 0.08127107
vn -0.7610529 0.185159 0.621703
vn -0.7656958 -0.03216711 0.6423982
vn -0.9298165 -0.04229901 0.3655848
vn -0.8997156 -0.275225 0.3387668
vn -0.7552004 -0.2488544 0.6064188
vn -0.5232534 -0.2311225 0.8202367
vn -0.2841048 -0.2333814 0.9299557
vn -0.6067807 -0.7410342 0.287551
vn -0.4832728 -0.7348127 0.4759177
vn -0.1314783 -0.9662188 0.2216637
vn -0.8204119 -0.4542753 0.3472148
vn -0.6956632 -0.4534902 0.5571349
vn -0.8105946 -0.5570395 0.1806748
vn -0.8196279 -0.5654932 -0.09180214
vn -0.6481695 -0.7588019 -0.0639989
vn -0.9145249 -0.4024508 0.04095623
vn -0.7698363 -0.5168663 -0.3744349
vn -0.886493 -0.4153977 -0.2038991
vn -0.5605987 -0.7358983 -0.379714
vn -0.6346285 -0.460971 -0.6202841
vn -0.1986187 -0.976827 0.07974675
vn -0.1620559 -0.9861298 -0.03585966
vn -0.07330556 -0.9872445 -0.1413313
vn -0.3023891 -0.7423609 -0.5978805
vn -0.3724571 -0.5556034 -0.7433577
vn -0.02938994 -0.7422869 -0.6694373
vn -0.5115984 -0.3806394 -0.7703121
vn -0.285602 -0.4296239 -0.8566533
vn -0.5311971 -0.2458676 -0.8107889
vn -0.3816102 -0.2267872 -0.8960698
vn -0.6647106 -0.2341748 -0.7094518
vn -0.7586122 -0.369128 -0.5368911
vn -0.7772598 -0.2009682 -0.5962206
vn -0.8472147 -0.3882356 -0.3626298
vn -0.8891851 -0.2368008 -0.3915039
vn -0.9526477 -0.2527576 -0.1690442
vn -0.9603005 -0.2661007 0.08374594
vn -0.8997156 -0.275225 0.3387668
vn -0.7552004 -0.2488544 0.6064188
vn -0.7713662 0.03375384 -0.6354958
vn -0.6022587 -0.03170921 -0.7976709
vn -0.5868828 0.1545793 -0.7947791
vn -0.5557265 0.3198424 -0.767378
vn -0.4127427 0.0441002 -0.9097795
vn -0.3852768 0.3323866 -0.8608606
vn -0.2205592 0.2943229 -0.9299073
vn -0.3460325 0.662125 -0.6647195
vn -0.5862752 0.6767647 -0.4452763
vn -0.7029826 0.3060784 -0.6419746
vn -0.8650402 0.281785 -0.4150936
vn -0.9096246 -0.02807773 -0.4144812
vn -0.9770567 0.1558896 -0.1451165
vn -0.9178287 0.3805415 -0.1130425
vn -0.9098365 0.3950092 0.1271427
vn -0.9778444 0.1838799 0.1000429
vn -0.9953645 -0.05142384 0.08127107
vn -0.6593395 0.7235826 0.2042047
vn -0.7012978 0.7044412 -0.1092889
vn -0.1315355 0.9859363 -0.1030922
vn -0.09100775 0.9721532 -0.2159528
vn -0.09625806 0.9748189 -0.2011532
vn 0.01083418 0.9830719 -0.1828994
vn 0.2054264 0.929256 0.307056
vn 0.3243871 0.9198143 0.2207137
vn 0.04461916 0.9987123 -0.0241409
vn 0.4153026 0.9046444 0.09561591
vn -0.1284239 0.9904026 0.05108864
vn 0.4375187 0.8991779 -0.007507793
vn -0.08017296 0.9826453 0.1672735
vn 0.4294341 0.8994586 -0.0809978
vn -0.03293002 0.9818272 0.1868983
vn 0.3399589 0.9169644 -0.2088159
vn 0.002411022 0.9826593 0.1854044
vn 0.1775898 0.9180101 -0.3545693
vn -0.04010261 0.944273 -0.3267113
vn -0.2044513 0.9397004 -0.2741583
vn 0.09512884 0.9098737 0.403832
vn -0.1061154 0.9409693 0.3214285
vn 0.1078232 0.9781911 -0.1775285
vn -0.2735763 0.9395105 0.2060976
vn -0.07639035 0.6831486 -0.7262729
vn 0.02465949 0.3379386 -0.940845
vn -0.0185555 0.0810886 -0.9965341
vn 0.222214 0.6912715 -0.6875788
vn 0.2922839 0.3599452 -0.8860077
vn 0.2350863 0.08407915 -0.9683311
vn 0.4334051 0.1660861 -0.8857626
vn 0.4453131 0.7043948 -0.5527425
vn 0.5825207 0.3797202 -0.718667
vn 0.629618 0.1330345 -0.7654299
vn 0.817481 0.07980701 -0.5703995
vn 0.7987106 0.3901843 -0.4580585
vn 0.1097753 0.9804696 -0.1631829
vn 0.1610808 0.9768306 -0.1409077
vn 0.5979738 0.7165124 -0.3592177
vn -0.331072 0.9404485 0.07712182
vn 0.2411308 0.9698948 -0.03405939
vn 0.7035576 0.7045036 -0.09317502
vn -0.3453811 0.9384525 0.004333514
vn 0.222421 0.9727257 0.06582889
vn 0.6891767 0.6912827 0.2171721
vn -0.3332055 0.9387313 -0.08807773
vn -0.2980539 0.9356988 -0.1887636
vn 0.1499101 0.9687998 0.1973672
vn 0.0713535 0.9613191 0.2660342
vn -0.07330556 -0.9872445 -0.1413313
vn 0.01779243 -0.9813303 -0.191505
vn -0.3023891 -0.7423609 -0.5978805
vn -0.02938994 -0.7422869 -0.6694373
vn 0.05847543 -0.9790668 -0.1949587
vn 0.1981026 -0.7450746 -0.6368824
vn 0.0994627 -0.9827245 -0.156076
vn 0.3975451 -0.7683554 -0.5015855
vn 0.151922 -0.9847155 -0.08517747
vn 0.4246146 -0.5245653 -0.7379253
vn -0.024141 -0.5236553 -0.8515881
vn -0.3724571 -0.5556034 -0.7433577
vn -0.285602 -0.4296239 -0.8566533
vn 0.2081704 -0.5057312 -0.8371983
vn -0.08966597 -0.3221323 -0.9424388
vn -0.3816102 -0.2267872 -0.8960698
vn -0.2341755 -0.05441629 -0.9706702
vn -0.001159742 -0.1438693 -0.9895961
vn 0.2127791 -0.333116 -0.9185634
vn 0.231461 -0.1435646 -0.9621928
vn 0.4872119 -0.1652627 -0.8575039
vn 0.3968665 -0.3706205 -0.8397247
vn 0.5451134 -0.3463995 -0.7634518
vn 0.6464332 -0.3549722 -0.6753656
vn 0.6818184 -0.1456048 -0.7168843
vn 0.8172195 -0.1810415 -0.5471528
vn 0.3975451 -0.7683554 -0.5015855
vn 0.151922 -0.9847155 -0.08517747
vn 0.5830373 -0.7759792 -0.2406736
vn 0.6382471 -0.5405249 -0.5481545
vn 0.4246146 -0.5245653 -0.7379253
vn 0.6464332 -0.3549722 -0.6753656
vn 0.8082485 -0.5466352 -0.2189164
vn 0.7856388 -0.4288633 -0.4459236
vn 0.8352507 -0.2922829 -0.4657542
vn 0.8172195 -0.1810415 -0.5471528
vn 0.9116237 -0.1289153 -0.390286
vn 0.9640017 -0.1507026 -0.2190649
vn 0.9162828 -0.3401383 -0.2114991
vn 0.954814 -0.2970098 -0.0107426
vn 0.9916112 -0.1277815 -0.01947086
vn 0.9688458 -0.1739619 0.1762814
vn 0.9088737 -0.3109337 0.2779726
vn 0.8892065 -0.4516837 0.07275777
vn 0.5948544 -0.8004333 0.07385717
vn 0.1892499 -0.9799123 0.06290036
vn 0.8208199 -0.5703165 -0.03152647
vn 0.7412862 -0.624824 0.2451321
vn 0.7812927 -0.471736 0.4087138
vn -0.8997156 -0.275225 0.3387668
vn -0.9603005 -0.2661007 0.08374594
vn -0.9953645 -0.05142384 0.08127107
vn -0.9836945 -0.04645022 -0.1737457
vn -0.9770567 0.1558896 -0.1451165
vn -0.9526477 -0.2527576 -0.1690442
vn -0.9096246 -0.02807773 -0.4144812
vn -0.8891851 -0.2368008 -0.3915039
vn -0.7713662 0.03375384 -0.6354958
vn -0.7772598 -0.2009682 -0.5962206
vn -0.6022587 -0.03170921 -0.7976709
vn -0.6647106 -0.2341748 -0.7094518
vn -0.5311971 -0.2458676 -0.8107889
vn -0.4127427 0.0441002 -0.9097795
vn -0.5868828 0.1545793 -0.7947791
vn -0.3816102 -0.2267872 -0.8960698
usemtl Apple2_Mat1
f 3/3/3 2/2/2 1/1/1
f 6/6/6 5/5/5 4/4/4
f 4/4/4 8/8/8 7/7/7
f 11/11/11 10/10/10 9/9/9
f 14/14/14 13/13/13 12/12/12
f 17/17/17 16/16/16 15/15/15
f 17/17/17 18/18/18 16/16/16
f 21/21/21 20/20/20 19/19/19
f 21/21/21 22/22/22 20/20/20
f 20/20/20 22/22/22 23/23/23
f 23/23/23 24/24/24 20/20/20
f 27/27/27 26/26/26 25/25/25
f 28/28/28 27/27/27 25/25/25
f 28/28/28 29/29/29 27/27/27
f 27/27/27 29/29/29 30/30/30
f 33/33/33 32/32/32 31/31/31
f 34/34/34 33/33/33 31/31/31
f 35/35/35 33/33/33 34/34/34
f 36/36/36 35/35/35 34/34/34
f 39/39/39 38/38/38 37/37/37
f 37/37/37 38/38/38 40/40/40
f 37/37/37 40/40/40 41/41/41
f 41/41/41 42/42/42 37/37/37
f 41/41/41 43/43/43 42/42/42
f 43/43/43 44/44/44 42/42/42
f 44/44/44 43/43/43 45/45/45
f 43/43/43 46/46/46 45/45/45
f 47/47/47 45/45/45 46/46/46
f 48/48/48 46/46/46 43/43/43
f 49/49/49 46/46/46 48/48/48
f 52/52/52 51/51/51 50/50/50
f 53/53/53 52/52/52 50/50/50
f 52/52/52 53/53/53 54/54/54
f 53/53/53 55/55/55 54/54/54
f 56/56/56 55/55/55 53/53/53
f 56/56/56 57/57/57 55/55/55
f 58/58/58 56/56/56 53/53/53
f 57/57/57 56/56/56 59/59/59
f 58/58/58 60/60/60 56/56/56
f 56/56/56 61/61/61 59/59/59
f 60/60/60 61/61/61 56/56/56
f 58/58/58 62/62/62 60/60/60
f 63/63/63 62/62/62 58/58/58
f 62/62/62 64/64/64 60/60/60
f 60/60/60 64/64/64 65/65/65
f 61/61/61 60/60/60 65/65/65
f 64/64/64 66/66/66 65/65/65
f 67/67/67 65/65/65 66/66/66
f 65/65/65 67/67/67 68/68/68
f 69/69/69 59/59/59 61/61/61
f 69/69/69 61/61/61 65/65/65
f 69/69/69 65/65/65 68/68/68
f 59/59/59 69/69/69 70/70/70
f 71/71/71 69/69/69 68/68/68
f 69/69/69 71/71/71 70/70/70
f 74/74/74 73/73/73 72/72/72
f 72/72/72 73/73/73 75/75/75
f 72/72/72 75/75/75 76/76/76
f 76/76/76 75/75/75 77/77/77
f 75/75/75 78/78/78 77/77/77
f 79/79/79 78/78/78 75/75/75
f 75/75/75 73/73/73 80/80/80
f 79/79/79 75/75/75 80/80/80
f 81/81/81 80/80/80 73/73/73
f 81/81/81 73/73/73 82/82/82
f 83/83/83 79/79/79 80/80/80
f 79/79/79 83/83/83 84/84/84
f 85/85/85 84/84/84 83/83/83
f 80/80/80 85/85/85 83/83/83
f 84/84/84 85/85/85 86/86/86
f 86/86/86 85/85/85 87/87/87
f 88/88/88 80/80/80 81/81/81
f 85/85/85 80/80/80 88/88/88
f 88/88/88 81/81/81 89/89/89
f 85/85/85 90/90/90 87/87/87
f 85/85/85 88/88/88 90/90/90
f 88/88/88 89/89/89 90/90/90
f 90/90/90 91/91/91 87/87/87
f 91/91/91 90/90/90 89/89/89
f 94/94/94 93/93/93 92/92/92
f 93/93/93 94/94/94 95/95/95
f 93/93/93 95/95/95 96/96/96
f 95/95/95 97/97/97 96/96/96
f 98/98/98 97/97/97 95/95/95
f 95/95/95 94/94/94 98/98/98
f 99/99/99 93/93/93 96/96/96
f 96/96/96 100/100/100 99/99/99
f 96/96/96 97/97/97 100/100/100
f 100/100/100 101/101/101 99/99/99
f 100/100/100 102/102/102 101/101/101
f 100/100/100 97/97/97 102/102/102
f 102/102/102 103/103/103 101/101/101
f 104/104/104 103/103/103 102/102/102
f 102/102/102 105/105/105 104/104/104
f 102/102/102 97/97/97 105/105/105
f 105/105/105 106/106/106 104/104/104
f 107/107/107 106/106/106 105/105/105
f 105/105/105 97/97/97 108/108/108
f 107/107/107 105/105/105 108/108/108
f 108/108/108 97/97/97 109/109/109
f 110/110/110 107/107/107 108/108/108
f 108/108/108 109/109/109 110/110/110
f 107/107/107 110/110/110 111/111/111
f 111/111/111 112/112/112 107/107/107
f 109/109/109 97/97/97 113/113/113
f 113/113/113 97/97/97 98/98/98
f 109/109/109 114/114/114 110/110/110
f 109/109/109 113/113/113 114/114/114
f 115/115/115 110/110/110 114/114/114
f 113/113/113 116/116/116 114/114/114
f 113/113/113 98/98/98 116/116/116
f 117/117/117 115/115/115 114/114/114
f 114/114/114 116/116/116 117/117/117
f 115/115/115 117/117/117 118/118/118
f 119/119/119 115/115/115 118/118/118
f 118/118/118 120/120/120 119/119/119
f 120/120/120 121/121/121 119/119/119
f 119/119/119 121/121/121 122/122/122
f 123/123/123 120/120/120 118/118/118
f 124/124/124 123/123/123 118/118/118
f 117/117/117 125/125/125 118/118/118
f 118/118/118 125/125/125 124/124/124
f 124/124/124 126/126/126 123/123/123
f 126/126/126 127/127/127 123/123/123
f 128/128/128 127/127/127 126/126/126
f 125/125/125 129/129/129 124/124/124
f 129/129/129 125/125/125 117/117/117
f 124/124/124 129/129/129 126/126/126
f 130/130/130 128/128/128 126/126/126
f 131/131/131 128/128/128 130/130/130
f 132/132/132 131/131/131 130/130/130
f 129/129/129 117/117/117 133/133/133
f 116/116/116 133/133/133 117/117/117
f 134/134/134 126/126/126 129/129/129
f 126/126/126 134/134/134 130/130/130
f 134/134/134 129/129/129 133/133/133
f 132/132/132 130/130/130 135/135/135
f 134/134/134 135/135/135 130/130/130
f 135/135/135 136/136/136 132/132/132
f 133/133/133 137/137/137 134/134/134
f 135/135/135 134/134/134 137/137/137
f 137/137/137 133/133/133 116/116/116
f 135/135/135 137/137/137 138/138/138
f 137/137/137 116/116/116 139/139/139
f 138/138/138 137/137/137 139/139/139
f 98/98/98 139/139/139 116/116/116
f 139/139/139 140/140/140 138/138/138
f 141/141/141 139/139/139 98/98/98
f 139/139/139 141/141/141 140/140/140
f 94/94/94 141/141/141 98/98/98
f 141/141/141 94/94/94 140/140/140
f 94/94/94 142/142/142 140/140/140
f 145/145/145 144/144/144 143/143/143
f 143/143/143 146/146/146 145/145/145
f 146/146/146 147/147/147 145/145/145
f 146/146/146 148/148/148 147/147/147
f 149/149/149 146/146/146 143/143/143
f 150/150/150 148/148/148 146/146/146
f 149/149/149 150/150/150 146/146/146
f 150/150/150 149/149/149 151/151/151
f 151/151/151 152/152/152 150/150/150
f 153/153/153 152/152/152 151/151/151
f 154/154/154 153/153/153 151/151/151
f 154/154/154 151/151/151 155/155/155
f 156/156/156 155/155/155 151/151/151
f 157/157/157 151/151/151 149/149/149
f 157/157/157 156/156/156 151/151/151
f 158/158/158 156/156/156 157/157/157
f 157/157/157 149/149/149 159/159/159
f 160/160/160 157/157/157 159/159/159
f 163/163/163 162/162/162 161/161/161
f 164/164/164 161/161/161 162/162/162
f 165/165/165 164/164/164 162/162/162
f 165/165/165 162/162/162 166/166/166
f 167/167/167 165/165/165 166/166/166
f 166/166/166 162/162/162 168/168/168
f 164/164/164 169/169/169 161/161/161
f 170/170/170 169/169/169 164/164/164
f 171/171/171 170/170/170 164/164/164
f 172/172/172 169/169/169 170/170/170
f 169/169/169 173/173/173 161/161/161
f 169/169/169 172/172/172 173/173/173
f 174/174/174 161/161/161 173/173/173
f 172/172/172 175/175/175 173/173/173
f 175/175/175 172/172/172 176/176/176
f 177/177/177 174/174/174 173/173/173
f 174/174/174 177/177/177 178/178/178
f 177/177/177 173/173/173 179/179/179
f 177/177/177 179/179/179 178/178/178
f 173/173/173 175/175/175 179/179/179
f 180/180/180 175/175/175 176/176/176
f 180/180/180 176/176/176 181/181/181
f 178/178/178 179/179/179 182/182/182
f 182/182/182 183/183/183 178/178/178
f 184/184/184 179/179/179 175/175/175
f 175/175/175 180/180/180 184/184/184
f 179/179/179 184/184/184 182/182/182
f 185/185/185 180/180/180 181/181/181
f 185/185/185 181/181/181 186/186/186
f 187/187/187 185/185/185 186/186/186
f 187/187/187 186/186/186 188/188/188
f 180/180/180 185/185/185 189/189/189
f 190/190/190 189/189/189 185/185/185
f 190/190/190 191/191/191 189/189/189
f 180/180/180 192/192/192 184/184/184
f 192/192/192 180/180/180 189/189/189
f 182/182/182 184/184/184 193/193/193
f 184/184/184 192/192/192 193/193/193
f 182/182/182 194/194/194 183/183/183
f 193/193/193 194/194/194 182/182/182
f 191/191/191 195/195/195 189/189/189
f 195/195/195 191/191/191 196/196/196
f 197/197/197 192/192/192 189/189/189
f 197/197/197 193/193/193 192/192/192
f 195/195/195 197/197/197 189/189/189
f 193/193/193 197/197/197 198/198/198
f 198/198/198 197/197/197 195/195/195
f 194/194/194 193/193/193 198/198/198
f 199/199/199 195/195/195 196/196/196
f 199/199/199 198/198/198 195/195/195
f 199/199/199 196/196/196 200/200/200
f 198/198/198 199/199/199 200/200/200
f 201/201/201 198/198/198 200/200/200
f 198/198/198 201/201/201 194/194/194
f 201/201/201 202/202/202 194/194/194
f 194/194/194 202/202/202 183/183/183
f 202/202/202 203/203/203 183/183/183
f 206/206/206 205/205/205 204/204/204
f 204/204/204 205/205/205 207/207/207
f 205/205/205 208/208/208 207/207/207
f 204/204/204 207/207/207 209/209/209
f 204/204/204 209/209/209 210/210/210
f 211/211/211 204/204/204 210/210/210
f 212/212/212 209/209/209 207/207/207
f 210/210/210 209/209/209 212/212/212
f 211/211/211 210/210/210 213/213/213
f 210/210/210 212/212/212 214/214/214
f 210/210/210 214/214/214 213/213/213
f 215/215/215 211/211/211 213/213/213
f 213/213/213 216/216/216 215/215/215
f 211/211/211 215/215/215 217/217/217
f 215/215/215 218/218/218 217/217/217
f 219/219/219 218/218/218 215/215/215
f 220/220/220 219/219/219 215/215/215
f 220/220/220 215/215/215 216/216/216
f 221/221/221 220/220/220 216/216/216
f 222/222/222 220/220/220 221/221/221
f 221/221/221 216/216/216 223/223/223
f 224/224/224 221/221/221 223/223/223
f 223/223/223 225/225/225 224/224/224
f 225/225/225 223/223/223 216/216/216
f 225/225/225 226/226/226 224/224/224
f 227/227/227 225/225/225 216/216/216
f 227/227/227 216/216/216 228/228/228
f 228/228/228 216/216/216 213/213/213
f 228/228/228 229/229/229 227/227/227
f 230/230/230 228/228/228 213/213/213
f 229/229/229 228/228/228 230/230/230
f 231/231/231 229/229/229 230/230/230
f 214/214/214 230/230/230 213/213/213
f 230/230/230 214/214/214 231/231/231
f 214/214/214 232/232/232 231/231/231
f 232/232/232 214/214/214 212/212/212
f 233/233/233 232/232/232 212/212/212
f 212/212/212 207/207/207 233/233/233
f 207/207/207 234/234/234 233/233/233
f 235/235/235 234/234/234 207/207/207
f 238/238/238 237/237/237 236/236/236
f 238/238/238 236/236/236 239/239/239
f 238/238/238 239/239/239 240/240/240
f 239/239/239 241/241/241 240/240/240
f 240/240/240 241/241/241 242/242/242
f 241/241/241 239/239/239 243/243/243
f 241/241/241 243/243/243 242/242/242
f 239/239/239 244/244/244 243/243/243
f 239/239/239 245/245/245 244/244/244
f 236/236/236 245/245/245 239/239/239
f 236/236/236 246/246/246 245/245/245
f 245/245/245 246/246/246 244/244/244
f 246/246/246 236/236/236 247/247/247
f 248/248/248 246/246/246 247/247/247
f 246/246/246 249/249/249 244/244/244
f 249/249/249 246/246/246 248/248/248
f 250/250/250 249/249/249 248/248/248
f 251/251/251 250/250/250 248/248/248
f 251/251/251 248/248/248 252/252/252
f 250/250/250 253/253/253 249/249/249
f 253/253/253 254/254/254 249/249/249
f 249/249/249 254/254/254 244/244/244
f 244/244/244 254/254/254 255/255/255
f 256/256/256 243/243/243 244/244/244
f 244/244/244 255/255/255 257/257/257
f 257/257/257 256/256/256 244/244/244
f 256/256/256 258/258/258 243/243/243
f 259/259/259 256/256/256 257/257/257
f 258/258/258 256/256/256 259/259/259
f 260/260/260 257/257/257 255/255/255
f 260/260/260 259/259/259 257/257/257
f 261/261/261 259/259/259 260/260/260
f 262/262/262 260/260/260 255/255/255
f 261/261/261 260/260/260 262/262/262
f 262/262/262 255/255/255 263/263/263
f 264/264/264 262/262/262 263/263/263
f 261/261/261 262/262/262 264/264/264
f 264/264/264 263/263/263 265/265/265
f 266/266/266 264/264/264 265/265/265
f 261/261/261 264/264/264 266/266/266
f 266/266/266 265/265/265 267/267/267
f 268/268/268 266/266/266 267/267/267
f 261/261/261 266/266/266 268/268/268
f 268/268/268 267/267/267 269/269/269
f 270/270/270 268/268/268 269/269/269
f 261/261/261 268/268/268 270/270/270
f 270/270/270 269/269/269 271/271/271
f 261/261/261 270/270/270 271/271/271
f 261/261/261 271/271/271 272/272/272
f 261/261/261 273/273/273 259/259/259
f 273/273/273 258/258/258 259/259/259
f 273/273/273 261/261/261 274/274/274
f 258/258/258 273/273/273 274/274/274
f 275/275/275 258/258/258 274/274/274
f 261/261/261 276/276/276 274/274/274
f 275/275/275 274/274/274 276/276/276
f 277/277/277 258/258/258 275/275/275
f 258/258/258 277/277/277 243/243/243
f 243/243/243 277/277/277 242/242/242
f 278/278/278 242/242/242 277/277/277
f 278/278/278 279/279/279 242/242/242
f 277/277/277 280/280/280 278/278/278
f 280/280/280 277/277/277 275/275/275
f 278/278/278 281/281/281 279/279/279
f 280/280/280 281/281/281 278/278/278
f 281/281/281 282/282/282 279/279/279
f 281/281/281 283/283/283 282/282/282
f 284/284/284 280/280/280 275/275/275
f 281/281/281 280/280/280 284/284/284
f 283/283/283 281/281/281 285/285/285
f 285/285/285 281/281/281 284/284/284
f 286/286/286 283/283/283 285/285/285
f 287/287/287 286/286/286 285/285/285
f 288/288/288 287/287/287 285/285/285
f 285/285/285 284/284/284 288/288/288
f 289/289/289 284/284/284 275/275/275
f 289/289/289 275/275/275 276/276/276
f 289/289/289 290/290/290 284/284/284
f 290/290/290 291/291/291 284/284/284
f 276/276/276 292/292/292 289/289/289
f 292/292/292 290/290/290 289/289/289
f 261/261/261 292/292/292 276/276/276
f 290/290/290 293/293/293 291/291/291
f 293/293/293 294/294/294 291/291/291
f 292/292/292 295/295/295 290/290/290
f 261/261/261 295/295/295 292/292/292
f 295/295/295 293/293/293 290/290/290
f 293/293/293 296/296/296 294/294/294
f 296/296/296 297/297/297 294/294/294
f 295/295/295 298/298/298 293/293/293
f 261/261/261 298/298/298 295/295/295
f 298/298/298 296/296/296 293/293/293
f 261/261/261 299/299/299 298/298/298
f 298/298/298 299/299/299 296/296/296
f 261/261/261 272/272/272 299/299/299
f 299/299/299 300/300/300 296/296/296
f 299/299/299 272/272/272 300/300/300
f 272/272/272 301/301/301 300/300/300
f 304/304/304 303/303/303 302/302/302
f 305/305/305 303/303/303 304/304/304
f 305/305/305 306/306/306 303/303/303
f 307/307/307 306/306/306 305/305/305
f 307/307/307 308/308/308 306/306/306
f 309/309/309 308/308/308 307/307/307
f 310/310/310 308/308/308 309/309/309
f 307/307/307 311/311/311 309/309/309
f 307/307/307 305/305/305 312/312/312
f 312/312/312 305/305/305 313/313/313
f 312/312/312 313/313/313 314/314/314
f 311/311/311 307/307/307 315/315/315
f 315/315/315 307/307/307 312/312/312
f 312/312/312 314/314/314 316/316/316
f 317/317/317 316/316/316 314/314/314
f 318/318/318 316/316/316 317/317/317
f 319/319/319 316/316/316 318/318/318
f 312/312/312 316/316/316 320/320/320
f 316/316/316 319/319/319 320/320/320
f 315/315/315 312/312/312 320/320/320
f 319/319/319 321/321/321 320/320/320
f 320/320/320 321/321/321 322/322/322
f 320/320/320 323/323/323 315/315/315
f 311/311/311 315/315/315 323/323/323
f 323/323/323 320/320/320 322/322/322
f 311/311/311 323/323/323 324/324/324
f 324/324/324 323/323/323 322/322/322
f 324/324/324 325/325/325 311/311/311
f 324/324/324 322/322/322 326/326/326
f 325/325/325 324/324/324 326/326/326
f 326/326/326 327/327/327 325/325/325
f 330/330/330 329/329/329 328/328/328
f 328/328/328 331/331/331 330/330/330
f 331/331/331 328/328/328 332/332/332
f 333/333/333 331/331/331 332/332/332
f 331/331/331 334/334/334 330/330/330
f 333/333/333 335/335/335 331/331/331
f 334/334/334 331/331/331 335/335/335
f 335/335/335 333/333/333 336/336/336
f 337/337/337 336/336/336 333/333/333
f 336/336/336 337/337/337 338/338/338
f 338/338/338 339/339/339 336/336/336
f 335/335/335 336/336/336 340/340/340
f 339/339/339 340/340/340 336/336/336
f 340/340/340 334/334/334 335/335/335
f 340/340/340 339/339/339 341/341/341
f 339/339/339 342/342/342 341/341/341
f 341/341/341 342/342/342 343/343/343
f 344/344/344 341/341/341 343/343/343
f 341/341/341 345/345/345 340/340/340
f 340/340/340 345/345/345 334/334/334
f 330/330/330 334/334/334 346/346/346
f 330/330/330 346/346/346 347/347/347
f 334/334/334 348/348/348 346/346/346
f 345/345/345 348/348/348 334/334/334
f 348/348/348 349/349/349 346/346/346
f 349/349/349 348/348/348 345/345/345
f 350/350/350 349/349/349 345/345/345
f 353/353/353 352/352/352 351/351/351
f 352/352/352 353/353/353 354/354/354
f 355/355/355 354/354/354 353/353/353
f 356/356/356 352/352/352 354/354/354
f 354/354/354 355/355/355 357/357/357
f 356/356/356 354/354/354 357/357/357
f 358/358/358 356/356/356 357/357/357
f 358/358/358 357/357/357 359/359/359
f 360/360/360 358/358/358 359/359/359
f 360/360/360 359/359/359 361/361/361
f 362/362/362 360/360/360 361/361/361
f 361/361/361 363/363/363 362/362/362
f 363/363/363 361/361/361 364/364/364
f 365/365/365 364/364/364 361/361/361
f 366/366/366 363/363/363 364/364/364
