mtllib Cabinet_898696f7.mtl
g Mesh_01_62c7c21a
v 1E-05 0.36501 -0.01724
v 0 0.11 -0.01724
v 1E-05 -0.36499 -0.01724
v 0.20901 0.11 0.01725
v 0.07101 0.29401 0.01725
v 0.20901 0.29401 0.01725
v 0.07101 0.11 0.01725
v 0.07101 -0.29399 0.01725
v 0.20901 -0.29399 0.01725
v 0.28001 0.11 -0.01724
v 0.28001 0.36501 -0.00125
v 0.28001 0.36501 -0.01724
v 0.28001 0.11 -0.00125
v 0.28001 -0.36499 -0.01724
v 0.28001 -0.36499 -0.00125
v 0.28001 0.36501 -0.01724
v 0.28001 0.36501 -0.00125
v 1E-05 0.36501 -0.00124
v 1E-05 0.36501 -0.01724
v 1E-05 0.36501 -0.01724
v 1E-05 0.36501 -0.00124
v 0 0.11 -0.00124
v 0 0.11 -0.01724
v 1E-05 -0.36499 -0.00124
v 1E-05 -0.36499 -0.01724
v 1E-05 -0.36499 -0.01724
v 1E-05 -0.36499 -0.00124
v 0.28001 -0.36499 -0.00125
v 0.28001 -0.36499 -0.01724
v 0 0.11 -0.00124
v 0.02241 -0.3426 0.00275
v 1E-05 -0.36499 -0.00124
v 0.02241 0.11 0.00275
v 1E-05 0.36501 -0.00124
v 0.05411 -0.31089 0.00876
v 0.02241 0.34261 0.00275
v 0.05411 0.11 0.00876
v 0.05411 0.31091 0.00876
v 1E-05 -0.36499 -0.00124
v 0.25761 -0.3426 0.00275
v 0.28001 -0.36499 -0.00125
v 0.02241 -0.3426 0.00275
v 0.22591 -0.31089 0.00876
v 0.05411 -0.31089 0.00876
v 0.28001 0.11 -0.00125
v 0.25761 0.34261 0.00275
v 0.28001 0.36501 -0.00125
v 0.25761 0.11 0.00275
v 0.28001 -0.36499 -0.00125
v 0.22591 0.31091 0.00876
v 0.25761 -0.3426 0.00275
v 0.22591 0.11 0.00876
v 0.22591 -0.31089 0.00876
v 0.28001 0.36501 -0.00125
v 0.02241 0.34261 0.00275
v 1E-05 0.36501 -0.00124
v 0.25761 0.34261 0.00275
v 0.05411 0.31091 0.00876
v 0.22591 0.31091 0.00876
v 0.05411 0.11 0.00876
v 0.05691 -0.30809 0.00275
v 0.05411 -0.31089 0.00876
v 0.05691 0.11 0.00275
v 0.05411 0.31091 0.00876
v 0.05691 0.30811 0.00275
v 0.05411 -0.31089 0.00876
v 0.05691 -0.30809 0.00275
v 0.22311 -0.30809 0.00275
v 0.22591 -0.31089 0.00876
v 0.22591 -0.31089 0.00876
v 0.22311 -0.30809 0.00275
v 0.22311 0.11 0.00275
v 0.22591 0.11 0.00876
v 0.22311 0.30811 0.00275
v 0.22591 0.31091 0.00876
v 0.22591 0.31091 0.00876
v 0.22311 0.30811 0.00275
v 0.05691 0.30811 0.00275
v 0.05411 0.31091 0.00876
v 0.22311 0.11 0.00275
v 0.21511 0.30011 0.01376
v 0.22311 0.30811 0.00275
v 0.21511 0.11 0.01376
v 0.22311 -0.30809 0.00275
v 0.21511 -0.30009 0.01376
v 0.22311 0.30811 0.00275
v 0.21511 0.30011 0.01376
v 0.06491 0.30011 0.01376
v 0.05691 0.30811 0.00275
v 0.05691 0.30811 0.00275
v 0.06491 0.30011 0.01376
v 0.06491 0.11 0.01376
v 0.05691 0.11 0.00275
v 0.06491 -0.30009 0.01376
v 0.05691 -0.30809 0.00275
v 0.05691 -0.30809 0.00275
v 0.06491 -0.30009 0.01376
v 0.21511 -0.30009 0.01376
v 0.22311 -0.30809 0.00275
v 0.06491 0.11 0.01376
v 0.07101 -0.29399 0.01725
v 0.06491 -0.30009 0.01376
v 0.07101 0.11 0.01725
v 0.06491 0.30011 0.01376
v 0.07101 0.29401 0.01725
v 0.06491 -0.30009 0.01376
v 0.07101 -0.29399 0.01725
v 0.20901 -0.29399 0.01725
v 0.21511 -0.30009 0.01376
v 0.21511 -0.30009 0.01376
v 0.20901 -0.29399 0.01725
v 0.20901 0.11 0.01725
v 0.21511 0.11 0.01376
v 0.20901 0.29401 0.01725
v 0.21511 0.30011 0.01376
v 0.21511 0.30011 0.01376
v 0.20901 0.29401 0.01725
v 0.07101 0.29401 0.01725
v 0.06491 0.30011 0.01376
v 1E-05 -0.36499 -0.01724
v 0.28001 -0.36499 -0.01724
v 0.28001 0.11 -0.01724
v 1E-05 0.36501 -0.01724
v 0.28001 0.36501 -0.01724
v 0.22796 -0.19078 -0.00442
v 0.23067 -0.19483 -0.00982
v 0.22796 -0.19078 -0.00982
v 0.22796 -0.19078 -0.00442
v 0.23067 -0.19483 -0.00442
v 0.23067 -0.19483 -0.00982
v 0.24429 -0.19754 -0.00442
v 0.24834 -0.19483 -0.00982
v 0.24429 -0.19754 -0.00982
v 0.24429 -0.19754 -0.00442
v 0.24834 -0.19483 -0.00442
v 0.24834 -0.19483 -0.00982
v 0.23067 -0.17716 -0.00442
v 0.23361 -0.1801 -0.00152
v 0.2318 -0.1828 -0.00152
v 0.23067 -0.17716 -0.00442
v 0.2318 -0.1828 -0.00152
v 0.22796 -0.18121 -0.00442
v 0.23472 -0.17445 -0.00982
v 0.23813 -0.18268 -0.01689
v 0.2395 -0.18241 -0.01689
v 0.23472 -0.17445 -0.00982
v 0.2395 -0.18241 -0.01689
v 0.2395 -0.1735 -0.00982
v 0.24429 -0.19754 -0.00982
v 0.24088 -0.18931 -0.01689
v 0.2395 -0.18958 -0.01689
v 0.24429 -0.19754 -0.00982
v 0.2395 -0.18958 -0.01689
v 0.2395 -0.1985 -0.00982
v 0.22701 -0.186 -0.00442
v 0.22796 -0.19078 -0.00442
v 0.22796 -0.19078 -0.00982
v 0.22701 -0.186 -0.00982
v 0.22796 -0.18121 -0.00442
v 0.22701 -0.186 -0.00442
v 0.22701 -0.186 -0.00982
v 0.22796 -0.18121 -0.00982
v 0.23067 -0.17716 -0.00442
v 0.22796 -0.18121 -0.00442
v 0.22796 -0.18121 -0.00982
v 0.23067 -0.17716 -0.00982
v 0.23067 -0.19483 -0.00442
v 0.23472 -0.19754 -0.00442
v 0.23472 -0.19754 -0.00982
v 0.23067 -0.19483 -0.00982
v 0.23472 -0.19754 -0.00442
v 0.2395 -0.1985 -0.00982
v 0.23472 -0.19754 -0.00982
v 0.2395 -0.1985 -0.00442
v 0.2395 -0.1985 -0.00442
v 0.24429 -0.19754 -0.00982
v 0.2395 -0.1985 -0.00982
v 0.24429 -0.19754 -0.00442
v 0.24834 -0.19483 -0.00442
v 0.25105 -0.19078 -0.00442
v 0.25105 -0.19078 -0.00982
v 0.24834 -0.19483 -0.00982
v 0.25105 -0.19078 -0.00442
v 0.25201 -0.186 -0.00982
v 0.25105 -0.19078 -0.00982
v 0.25201 -0.186 -0.00442
v 0.25201 -0.186 -0.00442
v 0.25105 -0.18121 -0.00982
v 0.25201 -0.186 -0.00982
v 0.25105 -0.18121 -0.00442
v 0.25105 -0.18121 -0.00442
v 0.24834 -0.17716 -0.00982
v 0.25105 -0.18121 -0.00982
v 0.24834 -0.17716 -0.00442
v 0.24834 -0.17716 -0.00442
v 0.24429 -0.17445 -0.00442
v 0.24429 -0.17445 -0.00982
v 0.24834 -0.17716 -0.00982
v 0.24429 -0.17445 -0.00442
v 0.2395 -0.1735 -0.00982
v 0.24429 -0.17445 -0.00982
v 0.2395 -0.1735 -0.00442
v 0.2395 -0.1735 -0.00442
v 0.23472 -0.17445 -0.00982
v 0.2395 -0.1735 -0.00982
v 0.23472 -0.17445 -0.00442
v 0.23472 -0.17445 -0.00442
v 0.23067 -0.17716 -0.00982
v 0.23472 -0.17445 -0.00982
v 0.23067 -0.17716 -0.00442
v 0.24721 -0.1828 -0.00152
v 0.24785 -0.186 -0.00152
v 0.24721 -0.18919 -0.00152
v 0.2454 -0.1801 -0.00152
v 0.2454 -0.19189 -0.00152
v 0.2427 -0.17829 -0.00152
v 0.2427 -0.1937 -0.00152
v 0.2395 -0.17766 -0.00152
v 0.2395 -0.19434 -0.00152
v 0.23631 -0.17829 -0.00152
v 0.23631 -0.1937 -0.00152
v 0.23361 -0.1801 -0.00152
v 0.23361 -0.19189 -0.00152
v 0.2318 -0.1828 -0.00152
v 0.2318 -0.18919 -0.00152
v 0.23116 -0.186 -0.00152
v 0.22701 -0.186 -0.00442
v 0.23116 -0.186 -0.00152
v 0.2318 -0.18919 -0.00152
v 0.22796 -0.19078 -0.00442
v 0.22796 -0.19078 -0.00442
v 0.2318 -0.18919 -0.00152
v 0.23361 -0.19189 -0.00152
v 0.23067 -0.19483 -0.00442
v 0.23067 -0.19483 -0.00442
v 0.23361 -0.19189 -0.00152
v 0.23631 -0.1937 -0.00152
v 0.23472 -0.19754 -0.00442
v 0.23472 -0.19754 -0.00442
v 0.23631 -0.1937 -0.00152
v 0.2395 -0.19434 -0.00152
v 0.2395 -0.1985 -0.00442
v 0.2395 -0.1985 -0.00442
v 0.2395 -0.19434 -0.00152
v 0.2427 -0.1937 -0.00152
v 0.24429 -0.19754 -0.00442
v 0.24429 -0.19754 -0.00442
v 0.2427 -0.1937 -0.00152
v 0.2454 -0.19189 -0.00152
v 0.24834 -0.19483 -0.00442
v 0.24834 -0.19483 -0.00442
v 0.2454 -0.19189 -0.00152
v 0.24721 -0.18919 -0.00152
v 0.25105 -0.19078 -0.00442
v 0.25105 -0.19078 -0.00442
v 0.24721 -0.18919 -0.00152
v 0.24785 -0.186 -0.00152
v 0.25201 -0.186 -0.00442
v 0.25201 -0.186 -0.00442
v 0.24785 -0.186 -0.00152
v 0.24721 -0.1828 -0.00152
v 0.25105 -0.18121 -0.00442
v 0.25105 -0.18121 -0.00442
v 0.24721 -0.1828 -0.00152
v 0.2454 -0.1801 -0.00152
v 0.24834 -0.17716 -0.00442
v 0.24834 -0.17716 -0.00442
v 0.2454 -0.1801 -0.00152
v 0.2427 -0.17829 -0.00152
v 0.24429 -0.17445 -0.00442
v 0.24429 -0.17445 -0.00442
v 0.2427 -0.17829 -0.00152
v 0.2395 -0.17766 -0.00152
v 0.2395 -0.1735 -0.00442
v 0.2395 -0.1735 -0.00442
v 0.2395 -0.17766 -0.00152
v 0.23631 -0.17829 -0.00152
v 0.23472 -0.17445 -0.00442
v 0.23472 -0.17445 -0.00442
v 0.23631 -0.17829 -0.00152
v 0.23361 -0.1801 -0.00152
v 0.23067 -0.17716 -0.00442
v 0.22796 -0.18121 -0.00442
v 0.2318 -0.1828 -0.00152
v 0.23116 -0.186 -0.00152
v 0.22701 -0.186 -0.00442
v 0.22701 -0.186 -0.00982
v 0.23592 -0.186 -0.01689
v 0.23619 -0.18462 -0.01689
v 0.22796 -0.18121 -0.00982
v 0.22796 -0.18121 -0.00982
v 0.23619 -0.18462 -0.01689
v 0.23697 -0.18346 -0.01689
v 0.23067 -0.17716 -0.00982
v 0.23067 -0.17716 -0.00982
v 0.23697 -0.18346 -0.01689
v 0.23813 -0.18268 -0.01689
v 0.23472 -0.17445 -0.00982
v 0.2395 -0.1735 -0.00982
v 0.2395 -0.18241 -0.01689
v 0.24088 -0.18268 -0.01689
v 0.24429 -0.17445 -0.00982
v 0.24429 -0.17445 -0.00982
v 0.24088 -0.18268 -0.01689
v 0.24204 -0.18346 -0.01689
v 0.24834 -0.17716 -0.00982
v 0.24834 -0.17716 -0.00982
v 0.24204 -0.18346 -0.01689
v 0.24282 -0.18462 -0.01689
v 0.25105 -0.18121 -0.00982
v 0.25105 -0.18121 -0.00982
v 0.24282 -0.18462 -0.01689
v 0.24309 -0.186 -0.01689
v 0.25201 -0.186 -0.00982
v 0.25201 -0.186 -0.00982
v 0.24309 -0.186 -0.01689
v 0.24282 -0.18737 -0.01689
v 0.25105 -0.19078 -0.00982
v 0.25105 -0.19078 -0.00982
v 0.24282 -0.18737 -0.01689
v 0.24204 -0.18853 -0.01689
v 0.24834 -0.19483 -0.00982
v 0.24834 -0.19483 -0.00982
v 0.24204 -0.18853 -0.01689
v 0.24088 -0.18931 -0.01689
v 0.24429 -0.19754 -0.00982
v 0.2395 -0.1985 -0.00982
v 0.2395 -0.18958 -0.01689
v 0.23813 -0.18931 -0.01689
v 0.23472 -0.19754 -0.00982
v 0.23472 -0.19754 -0.00982
v 0.23813 -0.18931 -0.01689
v 0.23697 -0.18853 -0.01689
v 0.23067 -0.19483 -0.00982
v 0.23067 -0.19483 -0.00982
v 0.23697 -0.18853 -0.01689
v 0.23619 -0.18737 -0.01689
v 0.22796 -0.19078 -0.00982
v 0.22796 -0.19078 -0.00982
v 0.23619 -0.18737 -0.01689
v 0.23592 -0.186 -0.01689
v 0.22701 -0.186 -0.00982
vn -7.292076E-07 0 -1
vn 0.4014769 0 -0.9158691
vn -4.211366E-07 0 -1
vn 0 0 1
vn 0 0 1
vn 0 0 1
vn 0 0 1
vn 0 0 1
vn 0 0 1
vn 1 0 0
vn 1 0 0
vn 1 0 0
vn 1 0 0
vn 1 0 0
vn 1 0 0
vn 0 1 0
vn 0 1 0
vn 0 1 0
vn 0 1 0
vn -1 1.495983E-06 0
vn -1 1.495985E-06 0
vn -1 0 0
vn -1 0 0
vn -1 -8.030845E-07 0
vn -1 -8.030838E-07 0
vn 0 -1 0
vn 0 -1 0
vn 0 -1 0
vn 0 -1 0
vn -0.1757857 -1.481633E-07 0.9844284
vn -0.1757857 -1.481633E-07 0.9844284
vn -0.1757913 -1.41177E-07 0.9844275
vn -0.1757857 -1.481633E-07 0.9844284
vn -0.1757895 0 0.9844279
vn -0.1859711 0 0.9825553
vn -0.1757895 0 0.9844279
vn -0.1859736 2.354155E-07 0.9825547
vn -0.1859736 2.354155E-07 0.9825547
vn 0 -0.1757879 0.9844281
vn 0 -0.1757879 0.9844281
vn 9.579862E-07 -0.1757949 0.9844268
vn 0 -0.1757879 0.9844281
vn 0 -0.1859735 0.9825547
vn 0 -0.1859735 0.9825547
vn 0.1757915 1.411771E-07 0.9844275
vn 0.1757948 0 0.9844268
vn 0.1757854 -2.629754E-07 0.9844285
vn 0.1757988 0 0.9844261
vn 0.1757988 0 0.9844261
vn 0.1859806 0 0.9825534
vn 0.1757988 0 0.9844261
vn 0.1859748 -2.35416E-07 0.9825545
vn 0.1859716 1.123676E-07 0.9825552
vn 0 0.1757943 0.9844269
vn 0 0.1757943 0.9844269
vn 9.579729E-07 0.1757866 0.9844283
vn 0 0.1757943 0.9844269
vn 0 0.1859747 0.9825545
vn 0 0.1859747 0.9825545
vn 0.9061931 0 0.4228642
vn 0.9061834 5.4316E-07 0.4228851
vn 0.9061832 5.475295E-07 0.4228852
vn 0.9061931 0 0.4228641
vn 0.9061891 -1.130106E-06 0.4228726
vn 0.906189 -1.163294E-06 0.422873
vn 0 0.9061759 0.4229009
vn 0 0.9061758 0.4229012
vn 0 0.90618 0.4228922
vn 0 0.9061801 0.422892
vn -0.9061768 -5.511349E-07 0.422899
vn -0.9061769 -5.511844E-07 0.4228989
vn -0.9061755 0 0.4229018
vn -0.9061755 0 0.4229017
vn -0.9061776 1.147355E-06 0.422897
vn -0.9061778 1.147084E-06 0.4228971
vn 0 -0.9061959 0.4228582
vn 0 -0.906197 0.4228557
vn 0 -0.9061643 0.4229259
vn 0 -0.9061636 0.4229272
vn 0.8087418 0 0.5881639
vn 0.8087468 0 0.5881569
vn 0.8087471 0 0.5881567
vn 0.8087416 0 0.588164
vn 0.8087396 0 0.5881668
vn 0.8087395 0 0.588167
vn 0 0.8087432 0.5881619
vn 0 0.8087436 0.5881614
vn 0 0.8087399 0.5881664
vn 0 0.8087398 0.5881665
vn -0.8087398 1.552961E-07 0.5881664
vn -0.8087398 0 0.5881667
vn -0.8087345 3.36902E-07 0.5881737
vn -0.8087348 3.68805E-07 0.5881735
vn -0.8087469 -5.367968E-07 0.5881569
vn -0.8087471 -5.366348E-07 0.5881565
vn 0 -0.8087385 0.5881683
vn 0 -0.8087385 0.5881685
vn 0 -0.8087393 0.5881673
vn 0 -0.8087394 0.5881673
vn -0.4976504 0 0.8673776
vn -0.4976698 0 0.8673666
vn -0.4976699 0 0.8673666
vn -0.4976508 0 0.8673775
vn -0.4976921 0 0.8673538
vn -0.497695 0 0.8673521
vn 0 -0.4976744 0.8673639
vn 0 -0.4976765 0.8673628
vn 0 -0.4976443 0.8673812
vn 0 -0.4976437 0.8673815
vn 0.4976636 2.630604E-07 0.8673701
vn 0.4976643 2.685174E-07 0.8673698
vn 0.4976504 0 0.8673778
vn 0.4976497 0 0.8673781
vn 0.4976231 -5.614289E-07 0.8673934
vn 0.497622 -5.706675E-07 0.867394
vn 0 0.4976706 0.8673662
vn 0 0.4976696 0.8673666
vn 0 0.4976834 0.8673588
vn 0 0.4976836 0.8673586
vn -4.211366E-07 0 -1
vn 0 0 -1
vn -7.033086E-07 0 -1
vn -7.292076E-07 0 -1
vn 0 0 -1
vn -0.8314426 -0.5556107 0
vn -0.8314449 -0.5556073 0
vn -0.8314615 -0.5555823 0
vn -0.8314426 -0.5556107 0
vn -0.831426 -0.5556357 0
vn -0.8314449 -0.5556073 0
vn 0.5555872 -0.8314583 0
vn 0.5555842 -0.8314603 0
vn 0.5555623 -0.831475 0
vn 0.5555872 -0.8314583 0
vn 0.555609 -0.8314437 0
vn 0.5555842 -0.8314603 0
vn -0.4817726 0.3218842 0.8150373
vn -0.4817726 0.3218842 0.8150373
vn -0.4817726 0.3218842 0.8150373
vn -0.4816681 0.321862 0.8151078
vn -0.4816681 0.321862 0.8151078
vn -0.4816681 0.321862 0.8151078
vn -0.1226951 0.6171582 -0.7772141
vn -0.1226951 0.6171581 -0.7772141
vn -0.1226951 0.6171581 -0.7772141
vn -0.1226953 0.6170936 -0.7772653
vn -0.1226953 0.6170936 -0.7772653
vn -0.1226953 0.6170936 -0.7772653
vn 0.1228767 -0.617097 -0.777234
vn 0.1228767 -0.617097 -0.777234
vn 0.1228767 -0.617097 -0.777234
vn 0.1227254 -0.6171048 -0.7772517
vn 0.1227254 -0.6171048 -0.7772515
vn 0.1227254 -0.6171048 -0.7772515
vn -0.9807881 -0.1950762 0
vn -0.9807984 -0.1950241 0
vn -0.9807867 -0.1950834 0
vn -0.9807763 -0.1951355 0
vn -0.9807889 0.1950724 0
vn -0.9807785 0.1951245 0
vn -0.9807903 0.1950651 0
vn -0.9808007 0.195013 0
vn -0.8314549 0.5555922 0
vn -0.8314883 0.5555422 0
vn -0.8314503 0.5555991 0
vn -0.831417 0.555649 0
vn -0.5556282 -0.8314309 0
vn -0.5556625 -0.8314079 0
vn -0.5556234 -0.8314341 0
vn -0.555589 -0.8314571 0
vn -0.1950585 -0.9807916 0
vn -0.195058 -0.9807916 0
vn -0.1950548 -0.9807923 0
vn -0.1950618 -0.980791 0
vn 0.1950644 -0.9807904 0
vn 0.1950632 -0.9807906 0
vn 0.1950548 -0.9807923 0
vn 0.1950728 -0.9807888 0
vn 0.8314568 -0.5555894 0
vn 0.8314527 -0.5555957 0
vn 0.8314574 -0.5555885 0
vn 0.8314615 -0.5555823 0
vn 0.9807873 -0.1950798 0
vn 0.9807873 -0.1950798 0
vn 0.9807874 -0.1950798 0
vn 0.9807874 -0.1950798 0
vn 0.9807896 0.1950687 0
vn 0.9807896 0.1950687 0
vn 0.9807896 0.1950687 0
vn 0.9807896 0.1950687 0
vn 0.8314674 0.5555734 0
vn 0.8314646 0.5555778 0
vn 0.8314437 0.555609 0
vn 0.8314883 0.5555422 0
vn 0.5555654 0.8314728 0
vn 0.5555623 0.831475 0
vn 0.5555658 0.8314726 0
vn 0.555569 0.8314704 0
vn 0.1950363 0.980796 0
vn 0.1950356 0.9807961 0
vn 0.195031 0.9807971 0
vn 0.1950409 0.9807951 0
vn -0.1950311 0.9807971 0
vn -0.1950298 0.9807974 0
vn -0.1950199 0.9807992 0
vn -0.1950409 0.9807951 0
vn -0.5556047 0.8314466 0
vn -0.5556068 0.8314452 0
vn -0.5556225 0.8314347 0
vn -0.555589 0.8314571 0
vn 0 0 1
vn 0 0 1
vn 0 0 1
vn 0 0 1
vn 3.577306E-05 0 1
vn 0 0 1
vn 1.829994E-05 0 1
vn -6.204436E-05 0 1
vn -1.791241E-05 0 1
vn 0 0 1
vn 1.938916E-05 0 1
vn 0 0 1
vn -2.390629E-05 0 1
vn 0 0 1
vn -6.612008E-05 0 1
vn 0 0 1
vn -0.5682598 -0.1131087 0.8150381
vn -0.5682598 -0.1131087 0.8150381
vn -0.5682599 -0.1131087 0.8150381
vn -0.5682199 -0.112994 0.8150818
vn -0.4817875 -0.3218162 0.8150553
vn -0.4817875 -0.3218162 0.8150553
vn -0.4817875 -0.3218161 0.8150553
vn -0.4817256 -0.3219525 0.815038
vn -0.3219233 -0.4817375 0.8150426
vn -0.3219233 -0.4817374 0.8150426
vn -0.3219233 -0.4817374 0.8150426
vn -0.3219149 -0.4817395 0.8150447
vn -0.1129773 -0.5682589 0.815057
vn -0.1129773 -0.5682589 0.815057
vn -0.1129773 -0.5682588 0.815057
vn -0.1129998 -0.5682489 0.8150609
vn 0.1130551 -0.5682729 0.8150365
vn 0.1130551 -0.5682728 0.8150365
vn 0.1130551 -0.5682728 0.8150365
vn 0.1130055 -0.5682778 0.8150399
vn 0.3219233 -0.4817374 0.8150426
vn 0.3219233 -0.4817374 0.8150426
vn 0.3219233 -0.4817374 0.8150426
vn 0.3219173 -0.4816886 0.8150738
vn 0.4817221 -0.3219754 0.8150311
vn 0.4817221 -0.3219754 0.8150311
vn 0.481722 -0.3219754 0.8150311
vn 0.4817282 -0.3218709 0.8150688
vn 0.5682659 -0.1130162 0.8150468
vn 0.5682658 -0.1130162 0.8150468
vn 0.5682659 -0.1130162 0.8150468
vn 0.5682324 -0.1130278 0.8150685
vn 0.5682658 0.1130162 0.8150468
vn 0.5682659 0.1130162 0.8150468
vn 0.5682659 0.1130162 0.8150468
vn 0.5681968 0.1130269 0.8150934
vn 0.4817614 0.3218299 0.8150653
vn 0.4817615 0.3218299 0.8150653
vn 0.4817615 0.32183 0.8150653
vn 0.4816765 0.3219197 0.8150799
vn 0.3218958 0.4816727 0.8150917
vn 0.3218958 0.4816727 0.8150917
vn 0.3218958 0.4816727 0.8150917
vn 0.3218516 0.4817462 0.8150657
vn 0.1130603 0.5682519 0.8150503
vn 0.1130603 0.568252 0.8150503
vn 0.1130603 0.5682519 0.8150503
vn 0.1129612 0.568243 0.8150703
vn -0.1130624 0.5682629 0.8150425
vn -0.1130624 0.5682629 0.8150424
vn -0.1130624 0.5682628 0.8150425
vn -0.112996 0.5681988 0.8150963
vn -0.3218137 0.4817604 0.8150724
vn -0.3218137 0.4817604 0.8150724
vn -0.3218136 0.4817603 0.8150724
vn -0.3219542 0.4817437 0.8150266
vn -0.568247 0.1130639 0.8150533
vn -0.568247 0.113064 0.8150533
vn -0.568247 0.1130639 0.8150533
vn -0.5682758 0.1130364 0.815037
vn -0.6169567 0.1227471 -0.7773658
vn -0.6169567 0.1227471 -0.7773658
vn -0.6169567 0.1227471 -0.7773659
vn -0.6171422 0.1227022 -0.7772256
vn -0.5230469 0.3496023 -0.7773032
vn -0.5230469 0.3496023 -0.7773032
vn -0.5230469 0.3496023 -0.7773032
vn -0.5231687 0.3495582 -0.777241
vn -0.3494732 0.5230957 -0.7773284
vn -0.3494732 0.5230957 -0.7773284
vn -0.3494732 0.5230957 -0.7773284
vn -0.3495591 0.523156 -0.7772492
vn 0.1226739 0.6171484 -0.7772252
vn 0.1226739 0.6171484 -0.7772252
vn 0.1226739 0.6171484 -0.7772252
vn 0.1227529 0.6170755 -0.7772706
vn 0.3494408 0.5231922 -0.777278
vn 0.3494408 0.5231921 -0.777278
vn 0.3494408 0.5231921 -0.777278
vn 0.3495557 0.5231372 -0.7772634
vn 0.5231961 0.3496373 -0.777187
vn 0.5231961 0.3496372 -0.777187
vn 0.5231961 0.3496372 -0.777187
vn 0.5231625 0.3495262 -0.7772596
vn 0.6171802 0.122874 -0.7771683
vn 0.6171802 0.122874 -0.7771683
vn 0.6171802 0.122874 -0.7771683
vn 0.6170761 0.1227475 -0.777271
vn 0.6170422 -0.122861 -0.7772799
vn 0.6170422 -0.122861 -0.7772799
vn 0.6170422 -0.122861 -0.7772799
vn 0.6171295 -0.1227581 -0.7772269
vn 0.5232047 -0.3495463 -0.777222
vn 0.5232047 -0.3495463 -0.777222
vn 0.5232048 -0.3495463 -0.777222
vn 0.5231332 -0.3495902 -0.7772504
vn 0.3495759 -0.5230075 -0.7773414
vn 0.3495759 -0.5230075 -0.7773414
vn 0.349576 -0.5230075 -0.7773414
vn 0.3495337 -0.5231738 -0.7772486
vn -0.1226904 -0.6171349 -0.7772333
vn -0.1226905 -0.6171349 -0.7772333
vn -0.1226904 -0.6171349 -0.7772333
vn -0.1227548 -0.6171128 -0.7772407
vn -0.3494145 -0.5231527 -0.7773164
vn -0.3494145 -0.5231528 -0.7773164
vn -0.3494145 -0.5231528 -0.7773164
vn -0.3496209 -0.5231237 -0.7772431
vn -0.5231125 -0.349614 -0.7772538
vn -0.5231125 -0.3496139 -0.7772538
vn -0.5231125 -0.349614 -0.7772538
vn -0.5231548 -0.3495952 -0.7772338
vn -0.6171722 -0.1225913 -0.7772193
vn -0.6171723 -0.1225913 -0.7772192
vn -0.6171722 -0.1225913 -0.7772193
vn -0.6171028 -0.1227528 -0.777249
vt -0.7882779 0.4213176
vt -0.7882776 0.1728007
vt -0.7882779 -0.2901225
vt 2.658329 -0.1517158
vt 2.523963 0.03726101
vt 2.658329 0.03726101
vt 2.523963 -0.1517158
vt 2.523963 -0.566642
vt 2.658329 -0.566642
vt -2.242519 0.148894
vt -2.263649 0.3419905
vt -2.242519 0.3419905
vt -2.263649 0.148894
vt -2.242519 -0.2107954
vt -2.263649 -0.2107954
vt 0.5006362 2.587513
vt 0.5006362 2.608105
vt 0.7181959 2.608105
vt 0.7181959 2.587513
vt -2.043457 0.3419902
vt -2.022327 0.3419902
vt -2.022327 0.1488939
vt -2.043457 0.1488939
vt -2.022327 -0.2107952
vt -2.043457 -0.2107952
vt -1.481095 2.587513
vt -1.481095 2.608105
vt -1.263535 2.608105
vt -1.263535 2.587513
vt 0.9049394 0.1737027
vt 0.9281174 -0.271101
vt 0.9049397 -0.2931151
vt 0.9281172 0.1737027
vt 0.9049397 0.4243102
vt 0.9609181 -0.239947
vt 0.9281174 0.4022962
vt 0.9609178 0.1737027
vt 0.9609181 0.3711424
vt 0.9049397 -0.2931151
vt 1.171484 -0.271101
vt 1.194661 -0.2931151
vt 0.9281174 -0.271101
vt 1.138683 -0.239947
vt 0.9609181 -0.239947
vt 1.194661 0.1737027
vt 1.171484 0.4022962
vt 1.194661 0.4243102
vt 1.171484 0.1737027
vt 1.194661 -0.2931151
vt 1.138683 0.3711424
vt 1.171484 -0.271101
vt 1.138683 0.1737027
vt 1.138683 -0.239947
vt 1.194661 0.4243102
vt 0.9281174 0.4022962
vt 0.9049397 0.4243102
vt 1.171484 0.4022962
vt 0.9609181 0.3711424
vt 1.138683 0.3711424
vt 0.4625352 0.2304515
vt 0.4669536 -0.3961409
vt 0.4625356 -0.4003371
vt 0.4669532 0.2304515
vt 0.4625356 0.5315342
vt 0.4669536 0.527338
vt 0.9142606 -1.971819
vt 0.9186786 -1.967622
vt 1.180925 -1.967622
vt 1.185343 -1.971819
vt 1.637067 -0.4003443
vt 1.632649 -0.396148
vt 1.632648 0.230454
vt 1.637066 0.230454
vt 1.632649 0.5273451
vt 1.637067 0.5315413
vt 1.185343 2.103016
vt 1.180925 2.098819
vt 0.918678 2.098819
vt 0.9142599 2.103016
vt 3.100055 -0.1173818
vt 3.089898 0.1371964
vt 3.100055 0.1479098
vt 3.089898 -0.1173818
vt 3.100055 -0.6772918
vt 3.089898 -0.6665783
vt 2.69665 1.783828
vt 2.686493 1.773115
vt 2.495802 1.773115
vt 2.485645 1.783828
vt 2.082239 0.1479075
vt 2.092396 0.1371943
vt 2.092395 -0.1173826
vt 2.082238 -0.1173826
vt 2.092396 -0.6665761
vt 2.082239 -0.6772895
vt 2.485646 -2.31321
vt 2.495802 -2.302496
vt 2.686492 -2.302496
vt 2.696649 -2.31321
vt 2.129034 -0.1433851
vt 2.135411 -0.5889076
vt 2.129034 -0.5956345
vt 2.135411 -0.1433851
vt 2.129034 0.06625354
vt 2.135411 0.05952668
vt 2.512634 -2.263849
vt 2.519011 -2.257123
vt 2.663284 -2.257123
vt 2.669661 -2.263849
vt 3.05326 -0.5956354
vt 3.046883 -0.5889084
vt 3.046883 -0.1433848
vt 3.05326 -0.1433848
vt 3.046883 0.05952752
vt 3.05326 0.0662545
vt 2.669661 1.734468
vt 2.663283 1.727742
vt 2.519011 1.727742
vt 2.512635 1.734468
vt -0.7882779 -0.2901225
vt -1.075583 -0.2901225
vt -1.075583 0.1728007
vt -0.7882779 0.4213176
vt -1.075583 0.4213176
vt 3.255198 -1.700044
vt 3.24825 -1.703521
vt 3.24825 -1.700044
vt 3.255198 -1.700044
vt 3.255198 -1.703521
vt 3.24825 -1.703521
vt 3.14573 1.940706
vt 3.149208 1.933758
vt 3.14573 1.933758
vt 3.14573 1.940706
vt 3.149208 1.940706
vt 3.149208 1.933758
vt 2.691864 2.056707
vt 2.694985 2.053586
vt 2.693067 2.050714
vt 2.691864 2.056707
vt 2.693067 2.050714
vt 2.688989 2.052404
vt 2.266284 2.060427
vt 2.262416 2.051089
vt 2.260858 2.051399
vt 2.266284 2.060427
vt 2.260858 2.051399
vt 2.260858 2.061507
vt 2.255432 2.034229
vt 2.2593 2.043567
vt 2.260858 2.043257
vt 2.255432 2.034229
vt 2.260858 2.043257
vt 2.260858 2.033149
vt 3.255198 -1.695941
vt 3.255198 -1.700044
vt 3.24825 -1.700044
vt 3.24825 -1.695941
vt 3.255198 -1.691839
vt 3.255198 -1.695941
vt 3.24825 -1.695941
vt 3.24825 -1.691839
vt 3.255198 -1.688361
vt 3.255198 -1.691839
vt 3.24825 -1.691839
vt 3.24825 -1.688361
vt 3.134047 1.940706
vt 3.137525 1.940706
vt 3.137525 1.933758
vt 3.134047 1.933758
vt 3.137525 1.940706
vt 3.141627 1.933758
vt 3.137525 1.933758
vt 3.141627 1.940706
vt 3.141627 1.940706
vt 3.14573 1.933758
vt 3.141627 1.933758
vt 3.14573 1.940706
vt 3.24825 -2.143906
vt 3.24825 -2.140428
vt 3.255198 -2.140428
vt 3.255198 -2.143906
vt 3.24825 -2.140428
vt 3.255198 -2.136325
vt 3.255198 -2.140428
vt 3.24825 -2.136325
vt 3.24825 -2.136325
vt 3.255198 -2.132223
vt 3.255198 -2.136325
vt 3.24825 -2.132223
vt 3.24825 -2.132223
vt 3.255198 -2.128745
vt 3.255198 -2.132223
vt 3.24825 -2.128745
vt 3.134047 2.160899
vt 3.137525 2.160899
vt 3.137525 2.15395
vt 3.134047 2.15395
vt 3.137525 2.160899
vt 3.141627 2.15395
vt 3.137525 2.15395
vt 3.141627 2.160899
vt 3.141627 2.160899
vt 3.14573 2.15395
vt 3.141627 2.15395
vt 3.14573 2.160899
vt 3.14573 2.160899
vt 3.149208 2.15395
vt 3.14573 2.15395
vt 3.149208 2.160899
vt 2.709419 2.050714
vt 2.710093 2.047328
vt 2.709419 2.043941
vt 2.7075 2.053586
vt 2.7075 2.04107
vt 2.704629 2.055504
vt 2.704629 2.039152
vt 2.701243 2.056178
vt 2.701243 2.038478
vt 2.697856 2.055504
vt 2.697856 2.039152
vt 2.694985 2.053586
vt 2.694985 2.04107
vt 2.693067 2.050714
vt 2.693067 2.043941
vt 2.692393 2.047328
vt 2.687979 2.047328
vt 2.692393 2.047328
vt 2.693067 2.043941
vt 2.688989 2.042252
vt 2.688989 2.042252
vt 2.693067 2.043941
vt 2.694985 2.04107
vt 2.691864 2.037949
vt 2.691864 2.037949
vt 2.694985 2.04107
vt 2.697856 2.039152
vt 2.696167 2.035074
vt 2.696167 2.035074
vt 2.697856 2.039152
vt 2.701243 2.038478
vt 2.701243 2.034065
vt 2.701243 2.034065
vt 2.701243 2.038478
vt 2.704629 2.039152
vt 2.706319 2.035074
vt 2.706319 2.035074
vt 2.704629 2.039152
vt 2.7075 2.04107
vt 2.710622 2.037949
vt 2.710622 2.037949
vt 2.7075 2.04107
vt 2.709419 2.043941
vt 2.713497 2.042252
vt 2.713497 2.042252
vt 2.709419 2.043941
vt 2.710093 2.047328
vt 2.714506 2.047328
vt 2.714506 2.047328
vt 2.710093 2.047328
vt 2.709419 2.050714
vt 2.713497 2.052404
vt 2.713497 2.052404
vt 2.709419 2.050714
vt 2.7075 2.053586
vt 2.710622 2.056707
vt 2.710622 2.056707
vt 2.7075 2.053586
vt 2.704629 2.055504
vt 2.706319 2.059582
vt 2.706319 2.059582
vt 2.704629 2.055504
vt 2.701243 2.056178
vt 2.701243 2.060591
vt 2.701243 2.060591
vt 2.701243 2.056178
vt 2.697856 2.055504
vt 2.696167 2.059582
vt 2.696167 2.059582
vt 2.697856 2.055504
vt 2.694985 2.053586
vt 2.691864 2.056707
vt 2.688989 2.052404
vt 2.693067 2.050714
vt 2.692393 2.047328
vt 2.687979 2.047328
vt 2.275037 2.047328
vt 2.264929 2.047328
vt 2.264619 2.048886
vt 2.273957 2.052754
vt 2.273957 2.052754
vt 2.264619 2.048886
vt 2.263736 2.050206
vt 2.270884 2.057354
vt 2.270884 2.057354
vt 2.263736 2.050206
vt 2.262416 2.051089
vt 2.266284 2.060427
vt 2.260858 2.061507
vt 2.260858 2.051399
vt 2.2593 2.051089
vt 2.255432 2.060427
vt 2.255432 2.060427
vt 2.2593 2.051089
vt 2.25798 2.050206
vt 2.250832 2.057354
vt 2.250832 2.057354
vt 2.25798 2.050206
vt 2.257097 2.048886
vt 2.247759 2.052754
vt 2.247759 2.052754
vt 2.257097 2.048886
vt 2.256788 2.047328
vt 2.24668 2.047328
vt 2.24668 2.047328
vt 2.256788 2.047328
vt 2.257097 2.04577
vt 2.247759 2.041902
vt 2.247759 2.041902
vt 2.257097 2.04577
vt 2.25798 2.04445
vt 2.250832 2.037302
vt 2.250832 2.037302
vt 2.25798 2.04445
vt 2.2593 2.043567
vt 2.255432 2.034229
vt 2.260858 2.033149
vt 2.260858 2.043257
vt 2.262416 2.043567
vt 2.266284 2.034229
vt 2.266284 2.034229
vt 2.262416 2.043567
vt 2.263736 2.04445
vt 2.270884 2.037302
vt 2.270884 2.037302
vt 2.263736 2.04445
vt 2.264619 2.04577
vt 2.273957 2.041902
vt 2.273957 2.041902
vt 2.264619 2.04577
vt 2.264929 2.047328
vt 2.275037 2.047328
usemtl TexturesCom_WoodFine0050_1_seamless_S
f 3/3/3 2/2/2 1/1/1
f 6/6/6 5/5/5 4/4/4
f 5/5/5 7/7/7 4/4/4
f 7/7/7 8/8/8 4/4/4
f 8/8/8 9/9/9 4/4/4
f 12/12/12 11/11/11 10/10/10
f 11/11/11 13/13/13 10/10/10
f 10/10/10 13/13/13 14/14/14
f 13/13/13 15/15/15 14/14/14
f 18/18/18 17/17/17 16/16/16
f 19/19/19 18/18/18 16/16/16
f 22/22/22 21/21/21 20/20/20
f 23/23/23 22/22/22 20/20/20
f 24/24/24 22/22/22 23/23/23
f 25/25/25 24/24/24 23/23/23
f 28/28/28 27/27/27 26/26/26
f 29/29/29 28/28/28 26/26/26
f 32/32/32 31/31/31 30/30/30
f 31/31/31 33/33/33 30/30/30
f 30/30/30 33/33/33 34/34/34
f 31/31/31 35/35/35 33/33/33
f 33/33/33 36/36/36 34/34/34
f 35/35/35 37/37/37 33/33/33
f 33/33/33 37/37/37 36/36/36
f 37/37/37 38/38/38 36/36/36
f 41/41/41 40/40/40 39/39/39
f 40/40/40 42/42/42 39/39/39
f 40/40/40 43/43/43 42/42/42
f 43/43/43 44/44/44 42/42/42
f 47/47/47 46/46/46 45/45/45
f 46/46/46 48/48/48 45/45/45
f 45/45/45 48/48/48 49/49/49
f 46/46/46 50/50/50 48/48/48
f 48/48/48 51/51/51 49/49/49
f 50/50/50 52/52/52 48/48/48
f 48/48/48 52/52/52 51/51/51
f 52/52/52 53/53/53 51/51/51
f 56/56/56 55/55/55 54/54/54
f 55/55/55 57/57/57 54/54/54
f 55/55/55 58/58/58 57/57/57
f 58/58/58 59/59/59 57/57/57
f 62/62/62 61/61/61 60/60/60
f 61/61/61 63/63/63 60/60/60
f 60/60/60 63/63/63 64/64/64
f 63/63/63 65/65/65 64/64/64
f 68/68/68 67/67/67 66/66/66
f 69/69/69 68/68/68 66/66/66
f 72/72/72 71/71/71 70/70/70
f 73/73/73 72/72/72 70/70/70
f 74/74/74 72/72/72 73/73/73
f 75/75/75 74/74/74 73/73/73
f 78/78/78 77/77/77 76/76/76
f 79/79/79 78/78/78 76/76/76
f 82/82/82 81/81/81 80/80/80
f 81/81/81 83/83/83 80/80/80
f 80/80/80 83/83/83 84/84/84
f 83/83/83 85/85/85 84/84/84
f 88/88/88 87/87/87 86/86/86
f 89/89/89 88/88/88 86/86/86
f 92/92/92 91/91/91 90/90/90
f 93/93/93 92/92/92 90/90/90
f 94/94/94 92/92/92 93/93/93
f 95/95/95 94/94/94 93/93/93
f 98/98/98 97/97/97 96/96/96
f 99/99/99 98/98/98 96/96/96
f 102/102/102 101/101/101 100/100/100
f 101/101/101 103/103/103 100/100/100
f 100/100/100 103/103/103 104/104/104
f 103/103/103 105/105/105 104/104/104
f 108/108/108 107/107/107 106/106/106
f 109/109/109 108/108/108 106/106/106
f 112/112/112 111/111/111 110/110/110
f 113/113/113 112/112/112 110/110/110
f 114/114/114 112/112/112 113/113/113
f 115/115/115 114/114/114 113/113/113
f 118/118/118 117/117/117 116/116/116
f 119/119/119 118/118/118 116/116/116
f 122/122/122 121/121/121 120/120/120
f 122/122/122 120/120/120 123/123/123
f 123/123/123 124/124/124 122/122/122
usemtl Brass_Mat
f 127/127/127 126/126/126 125/125/125
f 130/130/130 129/129/129 128/128/128
f 133/133/133 132/132/132 131/131/131
f 136/136/136 135/135/135 134/134/134
f 139/139/139 138/138/138 137/137/137
f 142/142/142 141/141/141 140/140/140
f 145/145/145 144/144/144 143/143/143
f 148/148/148 147/147/147 146/146/146
f 151/151/151 150/150/150 149/149/149
f 154/154/154 153/153/153 152/152/152
f 157/157/157 156/156/156 155/155/155
f 158/158/158 157/157/157 155/155/155
f 161/161/161 160/160/160 159/159/159
f 162/162/162 161/161/161 159/159/159
f 165/165/165 164/164/164 163/163/163
f 166/166/166 165/165/165 163/163/163
f 169/169/169 168/168/168 167/167/167
f 170/170/170 169/169/169 167/167/167
f 173/173/173 172/172/172 171/171/171
f 172/172/172 174/174/174 171/171/171
f 177/177/177 176/176/176 175/175/175
f 176/176/176 178/178/178 175/175/175
f 181/181/181 180/180/180 179/179/179
f 182/182/182 181/181/181 179/179/179
f 185/185/185 184/184/184 183/183/183
f 184/184/184 186/186/186 183/183/183
f 189/189/189 188/188/188 187/187/187
f 188/188/188 190/190/190 187/187/187
f 193/193/193 192/192/192 191/191/191
f 192/192/192 194/194/194 191/191/191
f 197/197/197 196/196/196 195/195/195
f 198/198/198 197/197/197 195/195/195
f 201/201/201 200/200/200 199/199/199
f 200/200/200 202/202/202 199/199/199
f 205/205/205 204/204/204 203/203/203
f 204/204/204 206/206/206 203/203/203
f 209/209/209 208/208/208 207/207/207
f 208/208/208 210/210/210 207/207/207
f 213/213/213 212/212/212 211/211/211
f 211/211/211 214/214/214 213/213/213
f 214/214/214 215/215/215 213/213/213
f 214/214/214 216/216/216 215/215/215
f 216/216/216 217/217/217 215/215/215
f 216/216/216 218/218/218 217/217/217
f 218/218/218 219/219/219 217/217/217
f 218/218/218 220/220/220 219/219/219
f 220/220/220 221/221/221 219/219/219
f 220/220/220 222/222/222 221/221/221
f 222/222/222 223/223/223 221/221/221
f 222/222/222 224/224/224 223/223/223
f 224/224/224 225/225/225 223/223/223
f 224/224/224 226/226/226 225/225/225
f 229/229/229 228/228/228 227/227/227
f 230/230/230 229/229/229 227/227/227
f 233/233/233 232/232/232 231/231/231
f 234/234/234 233/233/233 231/231/231
f 237/237/237 236/236/236 235/235/235
f 238/238/238 237/237/237 235/235/235
f 241/241/241 240/240/240 239/239/239
f 242/242/242 241/241/241 239/239/239
f 245/245/245 244/244/244 243/243/243
f 246/246/246 245/245/245 243/243/243
f 249/249/249 248/248/248 247/247/247
f 250/250/250 249/249/249 247/247/247
f 253/253/253 252/252/252 251/251/251
f 254/254/254 253/253/253 251/251/251
f 257/257/257 256/256/256 255/255/255
f 258/258/258 257/257/257 255/255/255
f 261/261/261 260/260/260 259/259/259
f 262/262/262 261/261/261 259/259/259
f 265/265/265 264/264/264 263/263/263
f 266/266/266 265/265/265 263/263/263
f 269/269/269 268/268/268 267/267/267
f 270/270/270 269/269/269 267/267/267
f 273/273/273 272/272/272 271/271/271
f 274/274/274 273/273/273 271/271/271
f 277/277/277 276/276/276 275/275/275
f 278/278/278 277/277/277 275/275/275
f 281/281/281 280/280/280 279/279/279
f 282/282/282 281/281/281 279/279/279
f 285/285/285 284/284/284 283/283/283
f 286/286/286 285/285/285 283/283/283
f 289/289/289 288/288/288 287/287/287
f 290/290/290 289/289/289 287/287/287
f 293/293/293 292/292/292 291/291/291
f 294/294/294 293/293/293 291/291/291
f 297/297/297 296/296/296 295/295/295
f 298/298/298 297/297/297 295/295/295
f 301/301/301 300/300/300 299/299/299
f 302/302/302 301/301/301 299/299/299
f 305/305/305 304/304/304 303/303/303
f 306/306/306 305/305/305 303/303/303
f 309/309/309 308/308/308 307/307/307
f 310/310/310 309/309/309 307/307/307
f 313/313/313 312/312/312 311/311/311
f 314/314/314 313/313/313 311/311/311
f 317/317/317 316/316/316 315/315/315
f 318/318/318 317/317/317 315/315/315
f 321/321/321 320/320/320 319/319/319
f 322/322/322 321/321/321 319/319/319
f 325/325/325 324/324/324 323/323/323
f 326/326/326 325/325/325 323/323/323
f 329/329/329 328/328/328 327/327/327
f 330/330/330 329/329/329 327/327/327
f 333/333/333 332/332/332 331/331/331
f 334/334/334 333/333/333 331/331/331
f 337/337/337 336/336/336 335/335/335
f 338/338/338 337/337/337 335/335/335
f 341/341/341 340/340/340 339/339/339
f 342/342/342 341/341/341 339/339/339
g handle_2_305mm_01_8395b59c
v 1E-05 0.00221 0.02844
v 0.14771 0.00221 0.02844
v 0.14771 0.00408 0.02969
v 1E-05 0.00408 0.02969
v 0.14771 0.00533 0.03156
v 1E-05 0.00533 0.03156
v 0.14771 0.00577 0.03377
v 1E-05 0.00577 0.03377
v 0.14771 0.00533 0.03597
v 1E-05 0.00533 0.03597
v 0.14771 0.00408 0.03784
v 1E-05 0.00408 0.03784
v 0.14771 0.00221 0.03909
v 1E-05 0.00221 0.03909
v 1E-05 0.00221 0.03909
v 0.14771 0.00221 0.03909
v 0.14771 1E-05 0.03953
v 1E-05 1E-05 0.03953
v 0.14771 -0.0022 0.03909
v 1E-05 -0.0022 0.03909
v 1E-05 -0.0022 0.03909
v 0.14771 -0.0022 0.03909
v 0.14771 -0.00407 0.03784
v 1E-05 -0.00407 0.03784
v 0.14771 -0.00532 0.03597
v 1E-05 -0.00532 0.03597
v 0.14771 -0.00576 0.03377
v 1E-05 -0.00576 0.03377
v 0.14771 -0.00532 0.03156
v 1E-05 -0.00532 0.03156
v 0.14771 -0.00407 0.02969
v 1E-05 -0.00407 0.02969
v 0.14771 -0.0022 0.02844
v 1E-05 -0.0022 0.02844
v 1E-05 -0.0022 0.02844
v 0.14771 -0.0022 0.02844
v 0.14771 0 0.028
v 1E-05 0 0.028
v 0.14771 0.00221 0.02844
v 1E-05 0.00221 0.02844
v 1E-05 0.00221 0.02844
v -0.1477 0.00408 0.02969
v -0.1477 0.00221 0.02844
v 1E-05 0.00408 0.02969
v -0.1477 0.00533 0.03156
v 1E-05 0.00533 0.03156
v -0.1477 0.00577 0.03377
v 1E-05 0.00577 0.03377
v -0.1477 0.00533 0.03597
v 1E-05 0.00533 0.03597
v -0.1477 0.00408 0.03784
v 1E-05 0.00408 0.03784
v -0.1477 0.00221 0.03909
v 1E-05 0.00221 0.03909
v 1E-05 0.00221 0.03909
v -0.1477 1E-05 0.03953
v -0.1477 0.00221 0.03909
v 1E-05 1E-05 0.03953
v -0.1477 -0.0022 0.03909
v 1E-05 -0.0022 0.03909
v 1E-05 -0.0022 0.03909
v -0.1477 -0.00407 0.03784
v -0.1477 -0.0022 0.03909
v 1E-05 -0.00407 0.03784
v -0.1477 -0.00532 0.03597
v 1E-05 -0.00532 0.03597
v -0.1477 -0.00576 0.03377
v 1E-05 -0.00576 0.03377
v -0.1477 -0.00532 0.03156
v 1E-05 -0.00532 0.03156
v -0.1477 -0.00407 0.02969
v 1E-05 -0.00407 0.02969
v -0.1477 -0.0022 0.02844
v 1E-05 -0.0022 0.02844
v 1E-05 -0.0022 0.02844
v -0.1477 1E-05 0.028
v -0.1477 -0.0022 0.02844
v 1E-05 0 0.028
v -0.1477 0.00221 0.02844
v 1E-05 0.00221 0.02844
v -0.1477 0.00754 0.02465
v -0.15249 0.00754 0.03377
v -0.15249 0.00754 0.02465
v -0.1477 0.00754 0.03377
v -0.15249 0.00696 0.03665
v -0.1477 0.00696 0.03665
v -0.15249 0.00533 0.03909
v -0.1477 0.00533 0.03909
v -0.15249 0.00289 0.04072
v -0.1477 0.00289 0.04072
v -0.1477 0.00289 0.04072
v -0.15249 1E-05 0.0413
v -0.15249 0.00289 0.04072
v -0.1477 1E-05 0.0413
v -0.15249 -0.00288 0.04072
v -0.1477 -0.00288 0.04072
v -0.1477 -0.00288 0.04072
v -0.15249 -0.00532 0.03909
v -0.15249 -0.00288 0.04072
v -0.1477 -0.00532 0.03909
v -0.15249 -0.00695 0.03665
v -0.1477 -0.00695 0.03665
v -0.15249 -0.00753 0.03377
v -0.1477 -0.00753 0.03377
v -0.15249 -0.00753 0.02465
v -0.1477 -0.00753 0.02465
v -0.14798 -0.00724 1E-05
v -0.15221 0 0
v -0.15221 -0.00724 1E-05
v -0.14798 0 0
v -0.15221 0.00725 1E-05
v -0.14798 0.00725 1E-05
v -0.14798 -0.00724 0.02465
v -0.14798 0 0
v -0.14798 -0.00724 1E-05
v -0.14798 0 0.02465
v -0.14798 0.00725 1E-05
v -0.14798 0.00725 0.02465
v -0.15221 0 0.02465
v -0.15221 -0.00724 0.02465
v -0.15221 -0.00724 1E-05
v -0.15221 0 0
v -0.15221 0.00725 0.02465
v -0.15221 0.00725 1E-05
v -0.15221 -0.00724 0.02465
v -0.14798 -0.00724 0.02465
v -0.14798 -0.00724 1E-05
v -0.15221 -0.00724 1E-05
v -0.14798 0.00725 0.02465
v -0.15221 0.00725 0.02465
v -0.15221 0.00725 1E-05
v -0.14798 0.00725 1E-05
v 0.14771 0.00754 0.02465
v 0.1525 0.00754 0.02465
v 0.1525 0.00754 0.03377
v 0.14771 0.00754 0.03377
v 0.1525 0.00696 0.03665
v 0.14771 0.00696 0.03665
v 0.1525 0.00533 0.03909
v 0.14771 0.00533 0.03909
v 0.1525 0.00289 0.04072
v 0.14771 0.00289 0.04072
v 0.14771 0.00289 0.04072
v 0.1525 0.00289 0.04072
v 0.1525 1E-05 0.0413
v 0.14771 1E-05 0.0413
v 0.1525 -0.00288 0.04072
v 0.14771 -0.00288 0.04072
v 0.14771 -0.00288 0.04072
v 0.1525 -0.00288 0.04072
v 0.1525 -0.00532 0.03909
v 0.14771 -0.00532 0.03909
v 0.1525 -0.00695 0.03665
v 0.14771 -0.00695 0.03665
v 0.1525 -0.00753 0.03377
v 0.14771 -0.00753 0.03377
v 0.1525 -0.00753 0.02465
v 0.14771 -0.00753 0.02465
v 0.14799 -0.00724 1E-05
v 0.15222 -0.00724 1E-05
v 0.15222 0 0
v 0.14799 0 0
v 0.15222 0.00725 1E-05
v 0.14799 0.00725 1E-05
v 0.14799 -0.00724 0.02465
v 0.14799 -0.00724 1E-05
v 0.14799 0 0
v 0.14799 0 0.02465
v 0.14799 0.00725 1E-05
v 0.14799 0.00725 0.02465
v 0.15222 0 0.02465
v 0.15222 -0.00724 1E-05
v 0.15222 -0.00724 0.02465
v 0.15222 0 0
v 0.15222 0.00725 0.02465
v 0.15222 0.00725 1E-05
v 0.15222 -0.00724 0.02465
v 0.15222 -0.00724 1E-05
v 0.14799 -0.00724 1E-05
v 0.14799 -0.00724 0.02465
v 0.14799 0.00725 0.02465
v 0.14799 0.00725 1E-05
v 0.15222 0.00725 1E-05
v 0.15222 0.00725 0.02465
v -0.15249 0.00754 0.02465
v -0.15249 1E-05 0.03377
v -0.15249 0 0.02465
v -0.15249 0.00754 0.03377
v -0.15249 -0.00753 0.02465
v -0.15249 0.00696 0.03665
v -0.15249 -0.00753 0.03377
v -0.15249 0.00533 0.03909
v -0.15249 -0.00695 0.03665
v -0.15249 0.00289 0.04072
v -0.15249 -0.00532 0.03909
v -0.15249 1E-05 0.0413
v -0.15249 -0.00288 0.04072
v 0.1525 0.00754 0.02465
v 0.1525 0 0.02465
v 0.1525 1E-05 0.03377
v 0.1525 0.00754 0.03377
v 0.1525 -0.00753 0.02465
v 0.1525 0.00696 0.03665
v 0.1525 -0.00753 0.03377
v 0.1525 0.00533 0.03909
v 0.1525 -0.00695 0.03665
v 0.1525 0.00289 0.04072
v 0.1525 -0.00532 0.03909
v 0.1525 1E-05 0.0413
v 0.1525 -0.00288 0.04072
v -0.1477 0.00408 0.02969
v -0.1477 0.00533 0.03156
v -0.1477 0.00754 0.02465
v -0.1477 0.00221 0.02844
v -0.1477 1E-05 0.028
v -0.1477 0.00754 0.03377
v -0.1477 0 0.02465
v -0.1477 0.00577 0.03377
v -0.1477 -0.0022 0.02844
v -0.1477 0.00696 0.03665
v -0.1477 0.00533 0.03597
v -0.1477 0.00533 0.03909
v -0.1477 0.00408 0.03784
v -0.1477 0.00289 0.04072
v -0.1477 0.00221 0.03909
v -0.1477 1E-05 0.0413
v -0.1477 1E-05 0.03953
v -0.1477 -0.00288 0.04072
v -0.1477 -0.0022 0.03909
v -0.1477 -0.00532 0.03909
v -0.1477 -0.00407 0.03784
v -0.1477 -0.00695 0.03665
v -0.1477 -0.00532 0.03597
v -0.1477 -0.00753 0.03377
v -0.1477 -0.00576 0.03377
v -0.1477 -0.00753 0.02465
v -0.1477 -0.00532 0.03156
v -0.1477 -0.00407 0.02969
v 0.14771 0.00408 0.02969
v 0.14771 0.00754 0.02465
v 0.14771 0.00533 0.03156
v 0.14771 0.00221 0.02844
v 0.14771 0 0.028
v 0.14771 0.00754 0.03377
v 0.14771 0 0.02465
v 0.14771 0.00577 0.03377
v 0.14771 -0.0022 0.02844
v 0.14771 0.00696 0.03665
v 0.14771 0.00533 0.03597
v 0.14771 0.00533 0.03909
v 0.14771 0.00408 0.03784
v 0.14771 0.00289 0.04072
v 0.14771 0.00221 0.03909
v 0.14771 1E-05 0.0413
v 0.14771 1E-05 0.03953
v 0.14771 -0.00288 0.04072
v 0.14771 -0.0022 0.03909
v 0.14771 -0.00532 0.03909
v 0.14771 -0.00407 0.03784
v 0.14771 -0.00695 0.03665
v 0.14771 -0.00532 0.03597
v 0.14771 -0.00753 0.03377
v 0.14771 -0.00576 0.03377
v 0.14771 -0.00753 0.02465
v 0.14771 -0.00532 0.03156
v 0.14771 -0.00407 0.02969
v -0.1477 -0.00753 0.02465
v -0.14798 0 0.02465
v -0.14798 -0.00724 0.02465
v -0.1477 0 0.02465
v -0.15249 -0.00753 0.02465
v -0.14798 0.00725 0.02465
v -0.15221 -0.00724 0.02465
v -0.1477 0.00754 0.02465
v -0.15249 0 0.02465
v -0.15221 0.00725 0.02465
v -0.15221 0 0.02465
v -0.15249 0.00754 0.02465
v 0.14771 -0.00753 0.02465
v 0.14799 -0.00724 0.02465
v 0.14799 0 0.02465
v 0.14771 0 0.02465
v 0.1525 -0.00753 0.02465
v 0.14799 0.00725 0.02465
v 0.15222 -0.00724 0.02465
v 0.14771 0.00754 0.02465
v 0.1525 0 0.02465
v 0.15222 0.00725 0.02465
v 0.15222 0 0.02465
v 0.1525 0.00754 0.02465
vn 0 0.3826832 -0.9238796
vn 0 0.3826832 -0.9238796
vn 0 0.7071066 -0.7071069
vn 0 0.7071066 -0.7071069
vn 0 0.9238794 -0.3826838
vn 0 0.9238794 -0.3826838
vn 0 1 -4.888443E-07
vn 0 1 -5.412231E-07
vn 0 0.9238797 0.382683
vn 0 0.9238797 0.382683
vn 0 0.7071073 0.7071062
vn 0 0.7071072 0.7071062
vn 0 0.382684 0.9238793
vn 0 0.382684 0.9238793
vn 0 0.382684 0.9238793
vn 0 0.382684 0.9238793
vn 0 0 1
vn 0 0 1
vn 0 -0.3826829 0.9238797
vn 0 -0.3826829 0.9238797
vn 0 -0.3826829 0.9238797
vn 0 -0.3826829 0.9238797
vn 0 -0.7071064 0.7071072
vn 0 -0.7071064 0.7071072
vn 0 -0.9238795 0.3826835
vn 0 -0.9238795 0.3826834
vn 0 -1 1.396698E-07
vn 0 -1 1.338508E-07
vn 0 -0.9238795 -0.3826833
vn 0 -0.9238795 -0.3826833
vn 0 -0.7071068 -0.7071068
vn 0 -0.7071068 -0.7071068
vn 0 -0.3826835 -0.9238795
vn 0 -0.3826835 -0.9238795
vn 0 -0.3826835 -0.9238795
vn 0 -0.3826835 -0.9238795
vn 0 -5.354011E-07 -1
vn 0 -5.412233E-07 -1
vn 0 0.3826832 -0.9238796
vn 0 0.3826832 -0.9238796
vn 0 0.3826832 -0.9238796
vn 0 0.7071066 -0.7071069
vn 0 0.3826832 -0.9238796
vn 0 0.7071066 -0.7071069
vn 0 0.9238794 -0.3826838
vn 0 0.9238794 -0.3826838
vn 0 1 -5.819632E-07
vn 0 1 -5.412231E-07
vn 0 0.9238797 0.382683
vn 0 0.9238797 0.382683
vn 0 0.7071071 0.7071064
vn 0 0.7071072 0.7071062
vn 0 0.382684 0.9238793
vn 0 0.382684 0.9238793
vn 0 0.382684 0.9238793
vn 0 0 1
vn 0 0.382684 0.9238793
vn 0 0 1
vn 0 -0.3826829 0.9238797
vn 0 -0.3826829 0.9238797
vn 0 -0.3826829 0.9238797
vn 0 -0.7071064 0.7071072
vn 0 -0.3826829 0.9238797
vn 0 -0.7071064 0.7071072
vn 0 -0.9238795 0.3826834
vn 0 -0.9238795 0.3826834
vn 0 -1 1.280318E-07
vn 0 -1 1.338508E-07
vn 0 -0.9238796 -0.3826832
vn 0 -0.9238795 -0.3826833
vn 0 -0.7071068 -0.7071066
vn 0 -0.7071068 -0.7071068
vn 0 -0.3826834 -0.9238795
vn 0 -0.3826835 -0.9238795
vn 0 -0.3826835 -0.9238795
vn 0 -5.470456E-07 -1
vn 0 -0.3826834 -0.9238795
vn 0 -5.412233E-07 -1
vn 0 0.3826832 -0.9238796
vn 0 0.3826832 -0.9238796
vn 0 1 0
vn 0 0.9988595 0.0477461
vn 0 1 0
vn 0 0.9988595 0.0477461
vn 0 0.9238798 0.3826827
vn 0 0.9238798 0.3826827
vn 0 0.7071071 0.7071064
vn 0 0.7071071 0.7071064
vn 0 0.3826841 0.9238793
vn 0 0.3826841 0.9238793
vn 0 0.3826841 0.9238793
vn 0 0 1
vn 0 0.3826841 0.9238793
vn 0 0 1
vn 0 -0.3826832 0.9238796
vn 0 -0.3826832 0.9238796
vn 0 -0.3826832 0.9238796
vn 0 -0.7071064 0.7071071
vn 0 -0.3826832 0.9238796
vn 0 -0.7071064 0.7071071
vn 0 -0.9238796 0.3826832
vn 0 -0.9238796 0.3826832
vn 0 -0.9988595 0.04774628
vn 0 -0.9988595 0.04774628
vn 0 -1 0
vn 0 -1 0
vn 0 -6.253881E-06 -1
vn 0 0 -1
vn 0 -6.253881E-06 -1
vn 0 0 -1
vn 0 6.253881E-06 -1
vn 0 6.253881E-06 -1
vn 1 -1.604559E-06 0
vn 1 0 0
vn 1 -1.604559E-06 0
vn 1 0 0
vn 1 1.604559E-06 0
vn 1 1.604559E-06 0
vn -1 0 0
vn -1 -1.096397E-06 0
vn -1 -1.096397E-06 0
vn -1 0 0
vn -1 1.096397E-06 0
vn -1 1.096397E-06 0
vn 0 -1 0
vn 0 -1 0
vn 0 -1 0
vn 0 -1 0
vn 0 1 0
vn 0 1 0
vn 0 1 0
vn 0 1 0
vn 0 1 0
vn 0 1 0
vn 0 0.9988595 0.04774621
vn 0 0.9988595 0.04774621
vn 0 0.9238796 0.3826832
vn 0 0.9238796 0.3826832
vn 0 0.707107 0.7071065
vn 0 0.707107 0.7071065
vn 0 0.382684 0.9238793
vn 0 0.382684 0.9238793
vn 0 0.382684 0.9238793
vn 0 0.382684 0.9238793
vn 0 0 1
vn 0 0 1
vn 0 -0.3826832 0.9238796
vn 0 -0.3826832 0.9238796
vn 0 -0.3826832 0.9238796
vn 0 -0.3826832 0.9238796
vn 0 -0.7071062 0.7071073
vn 0 -0.7071062 0.7071073
vn 0 -0.9238794 0.3826838
vn 0 -0.9238794 0.3826838
vn 0 -0.9988595 0.04774634
vn 0 -0.9988595 0.04774634
vn 0 -1 0
vn 0 -1 0
vn 0 -6.253901E-06 -1
vn 0 -6.253901E-06 -1
vn 0 0 -1
vn 0 0 -1
vn 0 6.253901E-06 -1
vn 0 6.253901E-06 -1
vn -1 -2.136522E-06 0
vn -1 -2.136522E-06 0
vn -1 0 0
vn -1 0 0
vn -1 2.136522E-06 0
vn -1 2.136522E-06 0
vn 1 0 0
vn 1 0 0
vn 1 0 0
vn 1 0 0
vn 1 0 0
vn 1 0 0
vn 0 -1 0
vn 0 -1 0
vn 0 -1 0
vn 0 -1 0
vn 0 1 0
vn 0 1 0
vn 0 1 0
vn 0 1 0
vn -1 0 0
vn -1 -6.26921E-07 0
vn -1 -6.081026E-07 0
vn -1 2.380838E-07 0
vn -1 -1.216205E-06 0
vn -1 1.098257E-06 0
vn -1 -4.763837E-07 0
vn -1 -1.921953E-06 0
vn -1 2.196515E-06 0
vn -1 -4.942162E-06 0
vn -1 5.491294E-07 0
vn -1 -3.020211E-06 0
vn -1 -1.098258E-06 0
vn 1 -1.734286E-07 0
vn 1 -7.815313E-07 0
vn 1 -6.267117E-07 0
vn 1 -1.358322E-07 0
vn 1 -1.389634E-06 0
vn 1 0 0
vn 1 -6.122165E-07 0
vn 1 -1.647388E-06 0
vn 1 2.196512E-06 0
vn 1 -3.294775E-06 0
vn 1 1.372821E-06 0
vn 1 -1.372823E-06 0
vn 1 5.491289E-07 0
vn 1 4.423306E-06 0
vn 1 -4.478834E-06 0
vn 1 -9.0593E-07 0
vn 1 -2.464907E-07 0
vn 1 -8.307223E-07 0
vn 1 -4.494885E-06 0
vn 1 -8.307223E-07 0
vn 1 -4.341767E-06 0
vn 1 0 0
vn 1 -2.655375E-06 0
vn 1 -2.655373E-06 0
vn 1 -1.327689E-06 0
vn 1 -1.327693E-06 0
vn 1 1.991529E-06 0
vn 1 1.99153E-06 0
vn 1 0 0
vn 1 0 0
vn 1 -6.63844E-07 0
vn 1 -6.638438E-07 0
vn 1 0 0
vn 1 0 0
vn 1 2.655371E-06 0
vn 1 2.655371E-06 0
vn 1 -1.685581E-06 0
vn 1 -1.447255E-06 0
vn 1 -3.800559E-07 0
vn 1 -2.794686E-06 0
vn 1 2.804547E-06 0
vn -1 -3.990326E-06 0
vn -1 -7.315396E-07 0
vn -1 -1.147225E-06 0
vn -1 0 0
vn -1 0 0
vn -1 1.611503E-06 0
vn -1 0 0
vn -1 1.778984E-06 0
vn -1 0 0
vn -1 3.264009E-06 0
vn -1 3.264011E-06 0
vn -1 0 0
vn -1 0 0
vn -1 2.655373E-06 0
vn -1 2.655372E-06 0
vn -1 0 0
vn -1 0 0
vn -1 -2.655377E-06 0
vn -1 -2.655376E-06 0
vn -1 1.327688E-06 0
vn -1 1.327686E-06 0
vn -1 -1.327685E-06 0
vn -1 -1.327684E-06 0
vn -1 -1.311007E-06 0
vn -1 -1.447255E-06 0
vn -1 0 0
vn -1 0 0
vn -1 0 0
vn 0 -1.935588E-06 -1
vn 0 0 -1
vn 0 -1.986754E-06 -1
vn 0 0 -1
vn 0 -2.004653E-06 -1
vn 0 1.986754E-06 -1
vn 0 -2.004137E-06 -1
vn 0 1.935588E-06 -1
vn 0 0 -1
vn 0 2.004136E-06 -1
vn 0 0 -1
vn 0 2.004653E-06 -1
vn 6.544917E-07 -1.935139E-06 -1
vn 6.719805E-07 -1.986849E-06 -1
vn 5.457675E-07 0 -1
vn 5.457675E-07 0 -1
vn 0 -2.004135E-06 -1
vn 0 1.986849E-06 -1
vn 0 -2.00413E-06 -1
vn 0 1.935139E-06 -1
vn -5.245786E-07 0 -1
vn -6.515358E-07 2.00413E-06 -1
vn -5.245786E-07 0 -1
vn -6.515376E-07 2.004135E-06 -1
vt -19.95041 0.6623644
vt -19.95041 0.3376356
vt -19.95316 0.3376356
vt -19.95316 0.6623644
vt -19.95728 0.3376356
vt -19.95728 0.6623644
vt -19.96213 0.3376356
vt -19.96213 0.6623644
vt -19.96698 0.3376356
vt -19.96698 0.6623644
vt -19.97109 0.3376356
vt -19.97109 0.6623644
vt -19.97384 0.3376356
vt -19.97384 0.6623644
vt -19.90071 0.6456537
vt -19.90071 0.3543451
vt -19.90506 0.3543451
vt -19.90506 0.6456537
vt -19.90942 0.3543451
vt -19.90942 0.6456537
vt -19.83619 0.6623662
vt -19.83619 0.3376333
vt -19.83894 0.3376333
vt -19.83894 0.6623662
vt -19.84305 0.3376333
vt -19.84305 0.6623662
vt -19.84791 0.3376333
vt -19.84791 0.6623662
vt -19.85276 0.3376333
vt -19.85276 0.6623662
vt -19.85687 0.3376333
vt -19.85687 0.6623662
vt -19.85962 0.3376333
vt -19.85962 0.6623662
vt -19.78668 0.6456544
vt -19.78668 0.3543456
vt -19.79103 0.3543456
vt -19.79103 0.6456544
vt -19.79539 0.3543456
vt -19.79539 0.6456544
vt -9.968576 0.5866441
vt -9.971325 0.9113671
vt -9.968576 0.9113671
vt -9.971325 0.5866441
vt -9.975438 0.9113671
vt -9.975438 0.5866441
vt -9.980291 0.9113671
vt -9.980291 0.5866441
vt -9.985144 0.9113671
vt -9.985144 0.5866441
vt -9.989257 0.9113671
vt -9.989257 0.5866441
vt -9.992005 0.9113671
vt -9.992005 0.5866441
vt -9.943869 0.6033444
vt -9.948222 0.8946638
vt -9.943869 0.8946638
vt -9.948222 0.6033444
vt -9.952576 0.8946638
vt -9.952576 0.6033444
vt -9.903858 0.586643
vt -9.906606 0.9113657
vt -9.903858 0.9113657
vt -9.906606 0.586643
vt -9.91072 0.9113657
vt -9.91072 0.586643
vt -9.915572 0.9113657
vt -9.915572 0.586643
vt -9.920424 0.9113657
vt -9.920424 0.586643
vt -9.924539 0.9113657
vt -9.924539 0.586643
vt -9.927287 0.9113657
vt -9.927287 0.586643
vt -9.879335 0.6033586
vt -9.883688 0.8946501
vt -9.879335 0.8946501
vt -9.883688 0.6033586
vt -9.888041 0.8946501
vt -9.888041 0.6033586
vt -19.36069 0.2428565
vt -19.37058 0.2240598
vt -19.37058 0.2428565
vt -19.36069 0.2240598
vt -19.37058 0.2181141
vt -19.36069 0.2181141
vt -19.37058 0.2130733
vt -19.36069 0.2130733
vt -19.37058 0.2097056
vt -19.36069 0.2097056
vt -19.65965 0.197221
vt -19.6691 0.191536
vt -19.6691 0.197221
vt -19.65965 0.191536
vt -19.6691 0.185851
vt -19.65965 0.185851
vt -19.39899 0.2428581
vt -19.40888 0.2394897
vt -19.40888 0.2428581
vt -19.39899 0.2394897
vt -19.40888 0.2344488
vt -19.39899 0.2344488
vt -19.40888 0.2285027
vt -19.39899 0.2285027
vt -19.40888 0.2097053
vt -19.39899 0.2097053
vt -19.58937 0.2350948
vt -19.59763 0.2209467
vt -19.59763 0.2350948
vt -19.58937 0.2209467
vt -19.59763 0.2067985
vt -19.58937 0.2067985
vt -19.73511 0.109171
vt -19.72096 0.06102764
vt -19.73511 0.06102764
vt -19.72096 0.109171
vt -19.70682 0.06102764
vt -19.70682 0.109171
vt -19.61644 0.06102828
vt -19.63058 0.06102828
vt -19.63058 0.1091722
vt -19.61644 0.1091722
vt -19.60229 0.06102828
vt -19.60229 0.1091722
vt -19.55063 0.1091719
vt -19.54237 0.1091719
vt -19.54237 0.06102793
vt -19.55063 0.06102793
vt -19.50626 0.06102745
vt -19.51452 0.06102745
vt -19.51452 0.1091712
vt -19.50626 0.1091712
vt -19.44717 0.2428588
vt -19.43729 0.2428588
vt -19.43729 0.2240623
vt -19.44717 0.2240623
vt -19.43729 0.2181167
vt -19.44717 0.2181167
vt -19.43729 0.2130759
vt -19.44717 0.2130759
vt -19.43729 0.2097082
vt -19.44717 0.2097082
vt -19.70739 0.1972177
vt -19.69794 0.1972177
vt -19.69794 0.1915342
vt -19.70739 0.1915342
vt -19.69794 0.1858506
vt -19.70739 0.1858506
vt -19.48546 0.2428573
vt -19.47558 0.2428573
vt -19.47558 0.2394891
vt -19.48546 0.2394891
vt -19.47558 0.2344484
vt -19.48546 0.2344484
vt -19.47558 0.2285026
vt -19.48546 0.2285026
vt -19.47558 0.209706
vt -19.48546 0.209706
vt -19.63211 0.2350941
vt -19.62386 0.2350941
vt -19.62386 0.2209467
vt -19.63211 0.2209467
vt -19.62386 0.2067992
vt -19.63211 0.2067992
vt -19.45384 0.06102847
vt -19.45384 0.109172
vt -19.43969 0.109172
vt -19.43969 0.06102847
vt -19.42554 0.109172
vt -19.42554 0.06102847
vt -19.33516 0.109171
vt -19.34931 0.06102764
vt -19.34931 0.109171
vt -19.33516 0.06102764
vt -19.32102 0.109171
vt -19.32102 0.06102764
vt -19.2611 0.1091716
vt -19.2611 0.06102825
vt -19.26936 0.06102825
vt -19.26936 0.1091716
vt -19.23325 0.06102721
vt -19.23325 0.1091714
vt -19.22499 0.1091714
vt -19.22499 0.06102721
vt -19.06288 0.1904822
vt -19.07759 0.172686
vt -19.07759 0.1904822
vt -19.06288 0.172686
vt -19.0923 0.1904822
vt -19.064 0.1670566
vt -19.0923 0.172686
vt -19.06719 0.1622842
vt -19.09118 0.1670566
vt -19.07196 0.1590952
vt -19.08799 0.1622842
vt -19.07759 0.1579756
vt -19.08322 0.1590952
vt -19.278 0.2119618
vt -19.29271 0.2119618
vt -19.29271 0.2297581
vt -19.278 0.2297581
vt -19.30742 0.2119618
vt -19.27912 0.2353874
vt -19.30742 0.2297581
vt -19.2823 0.2401599
vt -19.3063 0.2353874
vt -19.28708 0.2433484
vt -19.30311 0.2401599
vt -19.29271 0.2444679
vt -19.29833 0.2433484
vt -19.14851 0.05168482
vt -19.14606 0.0553394
vt -19.14176 0.04185334
vt -19.15216 0.04924253
vt -19.15647 0.048385
vt -19.14176 0.05965041
vt -19.15647 0.04185334
vt -19.14521 0.05965041
vt -19.16078 0.04924253
vt -19.14288 0.06527993
vt -19.14606 0.06396142
vt -19.14607 0.07005263
vt -19.14851 0.06761601
vt -19.15084 0.07324128
vt -19.15216 0.07005759
vt -19.15647 0.07436081
vt -19.15647 0.07091512
vt -19.1621 0.07324128
vt -19.16078 0.07005759
vt -19.16688 0.07005263
vt -19.16444 0.06761601
vt -19.17006 0.06527993
vt -19.16688 0.06396142
vt -19.17118 0.05965041
vt -19.16774 0.05965041
vt -19.17118 0.04185334
vt -19.16688 0.0553394
vt -19.16444 0.05168482
vt -19.17719 0.2346355
vt -19.17044 0.2444662
vt -19.17474 0.2309811
vt -19.18084 0.2370777
vt -19.18515 0.2379352
vt -19.17044 0.2266705
vt -19.18515 0.2444662
vt -19.17389 0.2266705
vt -19.18946 0.2370777
vt -19.17156 0.2210412
vt -19.17474 0.2223597
vt -19.17475 0.216269
vt -19.17719 0.2187053
vt -19.17952 0.2130801
vt -19.18084 0.2162635
vt -19.18515 0.2119605
vt -19.18515 0.215406
vt -19.19078 0.2130801
vt -19.18946 0.2162635
vt -19.19555 0.216269
vt -19.19312 0.2187053
vt -19.19874 0.2210412
vt -19.19556 0.2223597
vt -19.19986 0.2266705
vt -19.19641 0.2266705
vt -19.19986 0.2444662
vt -19.19556 0.2309811
vt -19.19312 0.2346355
vt -19.51414 0.2376072
vt -19.51468 0.2228878
vt -19.51468 0.2370446
vt -19.51414 0.2228878
vt -19.5235 0.2376072
vt -19.51468 0.208731
vt -19.52294 0.2370446
vt -19.51414 0.2081684
vt -19.5235 0.2228878
vt -19.52294 0.208731
vt -19.52294 0.2228878
vt -19.5235 0.2081684
vt -19.56179 0.2375861
vt -19.56125 0.2370243
vt -19.56125 0.2228878
vt -19.56179 0.2228878
vt -19.55244 0.2375861
vt -19.56125 0.2087513
vt -19.553 0.2370243
vt -19.56179 0.2081895
vt -19.55244 0.2228878
vt -19.553 0.2087513
vt -19.553 0.2228878
vt -19.55244 0.2081895
usemtl Metal_chrome_mat
f 345/345/345 344/344/344 343/343/343
f 346/346/346 345/345/345 343/343/343
f 347/347/347 345/345/345 346/346/346
f 348/348/348 347/347/347 346/346/346
f 349/349/349 347/347/347 348/348/348
f 350/350/350 349/349/349 348/348/348
f 351/351/351 349/349/349 350/350/350
f 352/352/352 351/351/351 350/350/350
f 353/353/353 351/351/351 352/352/352
f 354/354/354 353/353/353 352/352/352
f 355/355/355 353/353/353 354/354/354
f 356/356/356 355/355/355 354/354/354
f 359/359/359 358/358/358 357/357/357
f 360/360/360 359/359/359 357/357/357
f 361/361/361 359/359/359 360/360/360
f 362/362/362 361/361/361 360/360/360
f 365/365/365 364/364/364 363/363/363
f 366/366/366 365/365/365 363/363/363
f 367/367/367 365/365/365 366/366/366
f 368/368/368 367/367/367 366/366/366
f 369/369/369 367/367/367 368/368/368
f 370/370/370 369/369/369 368/368/368
f 371/371/371 369/369/369 370/370/370
f 372/372/372 371/371/371 370/370/370
f 373/373/373 371/371/371 372/372/372
f 374/374/374 373/373/373 372/372/372
f 375/375/375 373/373/373 374/374/374
f 376/376/376 375/375/375 374/374/374
f 379/379/379 378/378/378 377/377/377
f 380/380/380 379/379/379 377/377/377
f 381/381/381 379/379/379 380/380/380
f 382/382/382 381/381/381 380/380/380
f 385/385/385 384/384/384 383/383/383
f 384/384/384 386/386/386 383/383/383
f 384/384/384 387/387/387 386/386/386
f 387/387/387 388/388/388 386/386/386
f 387/387/387 389/389/389 388/388/388
f 389/389/389 390/390/390 388/388/388
f 389/389/389 391/391/391 390/390/390
f 391/391/391 392/392/392 390/390/390
f 391/391/391 393/393/393 392/392/392
f 393/393/393 394/394/394 392/392/392
f 393/393/393 395/395/395 394/394/394
f 395/395/395 396/396/396 394/394/394
f 399/399/399 398/398/398 397/397/397
f 398/398/398 400/400/400 397/397/397
f 398/398/398 401/401/401 400/400/400
f 401/401/401 402/402/402 400/400/400
f 405/405/405 404/404/404 403/403/403
f 404/404/404 406/406/406 403/403/403
f 404/404/404 407/407/407 406/406/406
f 407/407/407 408/408/408 406/406/406
f 407/407/407 409/409/409 408/408/408
f 409/409/409 410/410/410 408/408/408
f 409/409/409 411/411/411 410/410/410
f 411/411/411 412/412/412 410/410/410
f 411/411/411 413/413/413 412/412/412
f 413/413/413 414/414/414 412/412/412
f 413/413/413 415/415/415 414/414/414
f 415/415/415 416/416/416 414/414/414
f 419/419/419 418/418/418 417/417/417
f 418/418/418 420/420/420 417/417/417
f 418/418/418 421/421/421 420/420/420
f 421/421/421 422/422/422 420/420/420
usemtl Brass 1
f 425/425/425 424/424/424 423/423/423
f 424/424/424 426/426/426 423/423/423
f 424/424/424 427/427/427 426/426/426
f 427/427/427 428/428/428 426/426/426
f 427/427/427 429/429/429 428/428/428
f 429/429/429 430/430/430 428/428/428
f 429/429/429 431/431/431 430/430/430
f 431/431/431 432/432/432 430/430/430
f 435/435/435 434/434/434 433/433/433
f 434/434/434 436/436/436 433/433/433
f 434/434/434 437/437/437 436/436/436
f 437/437/437 438/438/438 436/436/436
f 441/441/441 440/440/440 439/439/439
f 440/440/440 442/442/442 439/439/439
f 440/440/440 443/443/443 442/442/442
f 443/443/443 444/444/444 442/442/442
f 443/443/443 445/445/445 444/444/444
f 445/445/445 446/446/446 444/444/444
f 445/445/445 447/447/447 446/446/446
f 447/447/447 448/448/448 446/446/446
f 451/451/451 450/450/450 449/449/449
f 450/450/450 452/452/452 449/449/449
f 450/450/450 453/453/453 452/452/452
f 453/453/453 454/454/454 452/452/452
f 457/457/457 456/456/456 455/455/455
f 456/456/456 458/458/458 455/455/455
f 456/456/456 459/459/459 458/458/458
f 459/459/459 460/460/460 458/458/458
f 463/463/463 462/462/462 461/461/461
f 464/464/464 463/463/463 461/461/461
f 464/464/464 461/461/461 465/465/465
f 466/466/466 464/464/464 465/465/465
f 469/469/469 468/468/468 467/467/467
f 470/470/470 469/469/469 467/467/467
f 473/473/473 472/472/472 471/471/471
f 474/474/474 473/473/473 471/471/471
f 477/477/477 476/476/476 475/475/475
f 478/478/478 477/477/477 475/475/475
f 479/479/479 477/477/477 478/478/478
f 480/480/480 479/479/479 478/478/478
f 481/481/481 479/479/479 480/480/480
f 482/482/482 481/481/481 480/480/480
f 483/483/483 481/481/481 482/482/482
f 484/484/484 483/483/483 482/482/482
f 487/487/487 486/486/486 485/485/485
f 488/488/488 487/487/487 485/485/485
f 489/489/489 487/487/487 488/488/488
f 490/490/490 489/489/489 488/488/488
f 493/493/493 492/492/492 491/491/491
f 494/494/494 493/493/493 491/491/491
f 495/495/495 493/493/493 494/494/494
f 496/496/496 495/495/495 494/494/494
f 497/497/497 495/495/495 496/496/496
f 498/498/498 497/497/497 496/496/496
f 499/499/499 497/497/497 498/498/498
f 500/500/500 499/499/499 498/498/498
f 503/503/503 502/502/502 501/501/501
f 504/504/504 503/503/503 501/501/501
f 505/505/505 503/503/503 504/504/504
f 506/506/506 505/505/505 504/504/504
f 509/509/509 508/508/508 507/507/507
f 510/510/510 509/509/509 507/507/507
f 511/511/511 509/509/509 510/510/510
f 512/512/512 511/511/511 510/510/510
f 515/515/515 514/514/514 513/513/513
f 514/514/514 516/516/516 513/513/513
f 513/513/513 516/516/516 517/517/517
f 516/516/516 518/518/518 517/517/517
f 521/521/521 520/520/520 519/519/519
f 522/522/522 521/521/521 519/519/519
f 525/525/525 524/524/524 523/523/523
f 526/526/526 525/525/525 523/523/523
f 529/529/529 528/528/528 527/527/527
f 528/528/528 530/530/530 527/527/527
f 528/528/528 529/529/529 531/531/531
f 530/530/530 528/528/528 532/532/532
f 533/533/533 528/528/528 531/531/531
f 528/528/528 534/534/534 532/532/532
f 528/528/528 533/533/533 535/535/535
f 534/534/534 528/528/528 536/536/536
f 537/537/537 528/528/528 535/535/535
f 528/528/528 538/538/538 536/536/536
f 528/528/528 537/537/537 539/539/539
f 538/538/538 528/528/528 539/539/539
f 542/542/542 541/541/541 540/540/540
f 543/543/543 542/542/542 540/540/540
f 541/541/541 542/542/542 544/544/544
f 542/542/542 543/543/543 545/545/545
f 542/542/542 546/546/546 544/544/544
f 547/547/547 542/542/542 545/545/545
f 546/546/546 542/542/542 548/548/548
f 542/542/542 547/547/547 549/549/549
f 542/542/542 550/550/550 548/548/548
f 551/551/551 542/542/542 549/549/549
f 550/550/550 542/542/542 552/552/552
f 542/542/542 551/551/551 552/552/552
f 555/555/555 554/554/554 553/553/553
f 555/555/555 553/553/553 556/556/556
f 555/555/555 556/556/556 557/557/557
f 555/555/555 558/558/558 554/554/554
f 559/559/559 555/555/555 557/557/557
f 558/558/558 560/560/560 554/554/554
f 559/559/559 557/557/557 561/561/561
f 558/558/558 562/562/562 560/560/560
f 562/562/562 563/563/563 560/560/560
f 562/562/562 564/564/564 563/563/563
f 564/564/564 565/565/565 563/563/563
f 564/564/564 566/566/566 565/565/565
f 566/566/566 567/567/567 565/565/565
f 566/566/566 568/568/568 567/567/567
f 568/568/568 569/569/569 567/567/567
f 568/568/568 570/570/570 569/569/569
f 570/570/570 571/571/571 569/569/569
f 570/570/570 572/572/572 571/571/571
f 572/572/572 573/573/573 571/571/571
f 572/572/572 574/574/574 573/573/573
f 574/574/574 575/575/575 573/573/573
f 574/574/574 576/576/576 575/575/575
f 576/576/576 577/577/577 575/575/575
f 576/576/576 578/578/578 577/577/577
f 578/578/578 579/579/579 577/577/577
f 578/578/578 580/580/580 579/579/579
f 578/578/578 561/561/561 580/580/580
f 578/578/578 559/559/559 561/561/561
f 583/583/583 582/582/582 581/581/581
f 581/581/581 582/582/582 584/584/584
f 584/584/584 582/582/582 585/585/585
f 586/586/586 582/582/582 583/583/583
f 582/582/582 587/587/587 585/585/585
f 588/588/588 586/586/586 583/583/583
f 585/585/585 587/587/587 589/589/589
f 590/590/590 586/586/586 588/588/588
f 591/591/591 590/590/590 588/588/588
f 592/592/592 590/590/590 591/591/591
f 593/593/593 592/592/592 591/591/591
f 594/594/594 592/592/592 593/593/593
f 595/595/595 594/594/594 593/593/593
f 596/596/596 594/594/594 595/595/595
f 597/597/597 596/596/596 595/595/595
f 598/598/598 596/596/596 597/597/597
f 599/599/599 598/598/598 597/597/597
f 600/600/600 598/598/598 599/599/599
f 601/601/601 600/600/600 599/599/599
f 602/602/602 600/600/600 601/601/601
f 603/603/603 602/602/602 601/601/601
f 604/604/604 602/602/602 603/603/603
f 605/605/605 604/604/604 603/603/603
f 606/606/606 604/604/604 605/605/605
f 607/607/607 606/606/606 605/605/605
f 608/608/608 606/606/606 607/607/607
f 589/589/589 606/606/606 608/608/608
f 587/587/587 606/606/606 589/589/589
f 611/611/611 610/610/610 609/609/609
f 610/610/610 612/612/612 609/609/609
f 611/611/611 609/609/609 613/613/613
f 610/610/610 614/614/614 612/612/612
f 615/615/615 611/611/611 613/613/613
f 614/614/614 616/616/616 612/612/612
f 615/615/615 613/613/613 617/617/617
f 614/614/614 618/618/618 616/616/616
f 619/619/619 615/615/615 617/617/617
f 618/618/618 620/620/620 616/616/616
f 619/619/619 617/617/617 620/620/620
f 618/618/618 619/619/619 620/620/620
f 623/623/623 622/622/622 621/621/621
f 624/624/624 623/623/623 621/621/621
f 621/621/621 622/622/622 625/625/625
f 626/626/626 623/623/623 624/624/624
f 622/622/622 627/627/627 625/625/625
f 628/628/628 626/626/626 624/624/624
f 625/625/625 627/627/627 629/629/629
f 630/630/630 626/626/626 628/628/628
f 627/627/627 631/631/631 629/629/629
f 632/632/632 630/630/630 628/628/628
f 629/629/629 631/631/631 632/632/632
f 631/631/631 630/630/630 632/632/632
