mtllib material.mtl
usemtl material_0
v 0.01964178 0.00590357 -0.01118742
v 0.01827109 0.00777825 -0.01046402
v 0.01488157 0.00777825 -0.01397575
v 0.01592263 0.00590357 -0.01484577
v 0.01174535 0.00590357 -0.01807260
v 0.01658006 0.00444747 -0.01537651
v 0.01109519 0.00777825 -0.01706697
v 0.00720275 0.00777825 -0.01964514
v 0.00762347 0.00590357 -0.02084579
v 0.00786281 0.00444952 -0.02154506
v 0.01216161 0.00444854 -0.01867812
v 0.01230510 0.00398119 -0.01888408
v 0.00791958 0.00398505 -0.02176645
v 0.01683562 0.00397693 -0.01557279
v 0.02085146 0.00397555 -0.01180105
v 0.02050564 0.00444712 -0.01163487
v 0.02277390 0.00444705 -0.00687351
v 0.02312621 0.00397529 -0.00695161
v 0.02189732 0.00590357 -0.00662585
v 0.02048836 0.00777825 -0.00621660
v 0.02314966 0.00590357 -0.00169996
v 0.02398554 0.00444682 -0.00174332
v 0.02485815 0.00444710 0.00317803
v 0.02404891 0.00590357 0.00304577
v 0.01622995 0.00950458 -0.00932836
v 0.01333719 0.00950458 -0.01257720
v 0.01008515 0.00950458 -0.01541198
v 0.01138722 0.01101968 -0.01067153
v 0.01833357 0.00950458 -0.00556164
v 0.01559521 0.01101968 -0.00466480
v 0.01972328 0.00950458 -0.00151298
v 0.01377995 0.01101968 -0.00786132
v 0.01052410 0.01226067 -0.00581510
v 0.02181505 0.00777825 -0.00162942
v 0.02270636 0.00777825 0.00284852
v 0.02408368 0.00590357 0.00774334
v 0.00865383 0.01226067 -0.00803452
v 0.00638197 0.01226067 -0.00985370
v 0.00557540 0.01316938 -0.00506047
v 0.00854975 0.01101968 -0.01302714
v 0.00530877 0.01101968 -0.01478934
v 0.00645483 0.00950458 -0.01762802
v 0.00235129 0.00950458 -0.01894673
v 0.00279830 0.00777825 -0.02124075
v 0.00305336 0.00590357 -0.02262628
v -0.00205069 0.00777825 -0.02171374
v 0.00318453 0.00444956 -0.02342973
v -0.00211336 0.00444941 -0.02397962
v 0.00318760 0.00398522 -0.02368383
v -0.00217338 0.00398464 -0.02424576
v -0.00756090 0.00398624 -0.02369083
v -0.00207827 0.00590357 -0.02314568
v -0.00721715 0.00590357 -0.02263383
v -0.00743338 0.00444982 -0.02344456
v -0.01249768 0.00445023 -0.02191165
v -0.01268907 0.00398787 -0.02212514
v -0.01734159 0.00398739 -0.01962132
v -0.01709440 0.00445011 -0.01943610
v -0.02107967 0.00444899 -0.01613571
v -0.01656089 0.00590357 -0.01876444
v -0.02138552 0.00398297 -0.01630165
v -0.02471104 0.00397278 -0.01228349
v -0.01211236 0.00590357 -0.02115772
v -0.01149884 0.00777824 -0.01984463
v -0.00688667 0.00777825 -0.02123329
v -0.00635407 0.00950458 -0.01893914
v -0.00200898 0.00950458 -0.01936915
v -0.00195919 0.01101968 -0.01620786
v 0.00174361 0.01101968 -0.01584755
v 0.00099894 0.01226067 -0.01204071
v 0.00379935 0.01226067 -0.01120975
v 0.00215456 0.01316938 -0.00729111
v 0.00409504 0.01315323 -0.00651577
v 0.00205799 0.01362304 -0.00353305
v -0.01050520 0.00950457 -0.01769218
v -0.00918438 0.01101968 -0.01478594
v -0.01429444 0.00950457 -0.01566550
v -0.00565081 0.01101968 -0.01584425
v -0.00480660 0.01226067 -0.01204057
v -0.00190744 0.01226067 -0.01232459
v -0.00186137 0.01316938 -0.00807533
v 0.00022477 0.01315323 -0.00808530
v -0.00046834 0.01362304 -0.00455535
v -0.01569787 0.00777825 -0.01759084
v -0.01934556 0.00777824 -0.01457724
v 0.00051200 0.01368765 -0.00337118
v -0.00178557 0.01405915 0.00210292
v -0.00182471 0.01368765 -0.00382655
v -0.00319244 0.01362304 -0.00455666
v -0.02041825 0.00590357 -0.01556644
v -0.02356050 0.00590357 -0.01167222
v 0.00250229 0.01368765 -0.00207707
v 0.00400432 0.01362304 -0.00164628
v -0.00394754 0.01315323 -0.00808653
v -0.00586188 0.01316938 -0.00729408
v -0.00415440 0.01368765 -0.00337368
v -0.00570258 0.01362304 -0.00353733
v 0.00384478 0.01368765 -0.00014246
v 0.00788641 0.01316938 -0.00172623
v 0.00707714 0.01315323 -0.00361840
v -0.00758654 0.01226067 -0.01121092
v -0.01013780 0.01226067 -0.00985860
v -0.00778764 0.01315323 -0.00652121
v -0.00924271 0.01316938 -0.00506900
v -0.00612574 0.01368765 -0.00208228
v 0.00507598 0.01362304 0.00081562
v 0.01193319 0.01226067 -0.00328854
v 0.01282017 0.01226067 -0.00054868
v -0.01241909 0.01101968 -0.01306323
v -0.01524429 0.01101968 -0.01075544
v -0.00762158 0.01362304 -0.00165380
v 0.00872503 0.01315323 0.00016091
v 0.00874108 0.01316938 0.00219854
v 0.01674693 0.01101968 -0.00119185
v 0.01720982 0.01101968 0.00241420
v -0.01759473 0.00950457 -0.01295308
v -0.02029011 0.00950457 -0.00964725
v 0.00433490 0.01368765 0.00213635
v 0.00510785 0.01362304 0.00347563
v 0.01316143 0.01226067 0.00229478
v 0.01293003 0.01226067 0.00513192
v 0.02043479 0.00950458 0.00259715
v 0.02020374 0.00950458 0.00677818
v -0.02232019 0.00777824 -0.01090620
v -0.02455428 0.00777825 -0.00672577
v 0.00878777 0.01315323 0.00424101
v 0.00800127 0.01316938 0.00611174
v 0.01693360 0.01101968 0.00602455
v 0.01595023 0.01101968 0.00948562
v 0.02262641 0.00777825 0.00736029
v 0.02139721 0.00777825 0.01186674
v 0.00389432 0.01368765 0.00441124
v 0.00408821 0.01362304 0.00592805
v 0.00258412 0.01368765 0.00633628
v 0.00575914 0.01316938 0.00941797
v 0.01214014 0.01226067 0.00785425
v 0.01080453 0.01226067 0.01035404
v 0.00723963 0.01315323 0.00799797
v 0.00216452 0.01362304 0.00780123
v 0.02282223 0.00590357 0.01249974
v 0.02365139 0.00444984 0.01289860
v 0.02055787 0.00590357 0.01687853
v 0.02494234 0.00444856 0.00799299
v 0.02525336 0.00398125 0.00812751
v 0.02519310 0.00397547 0.00325816
v 0.02391059 0.00398630 0.01310004
v 0.02433404 0.00397437 -0.00173644
v 0.02155879 0.00398521 0.01769271
v 0.02131991 0.00444956 0.01742780
v 0.01807081 0.00444893 0.02137154
v 0.01829010 0.00398272 0.02168775
v 0.01414005 0.00398357 0.02492792
v 0.01397598 0.00444915 0.02457669
v 0.00920208 0.00444876 0.02695854
v 0.01344373 0.00590357 0.02379866
v 0.00930087 0.00398205 0.02734747
v 0.00398533 0.00397242 0.02887645
v 0.01740401 0.00590357 0.02069419
v 0.01626815 0.00777825 0.01959903
v 0.01925031 0.00777825 0.01599713
v 0.01712070 0.00950458 0.01456608
v 0.01907135 0.00950458 0.01084270
v 0.01427125 0.01101968 0.01265992
v 0.01196119 0.01101968 0.01543471
v 0.01442260 0.00950458 0.01781667
v 0.01105311 0.00950458 0.02046607
v 0.01253145 0.00777825 0.02253169
v 0.00818714 0.00777825 0.02470890
v 0.00897762 0.01226067 0.01254200
v 0.00671613 0.01226067 0.01432957
v 0.00883133 0.00590357 0.02610240
v 0.00373910 0.00590357 0.02751308
v 0.00908837 0.01101968 0.01769904
v 0.00576888 0.01101968 0.01938244
v 0.00429405 0.01315323 0.01086372
v 0.00233934 0.01316938 0.01162061
v 0.00714645 0.00950458 0.02243428
v 0.00284885 0.00950458 0.02363936
v 0.00393539 0.00444633 0.02842905
v -0.00160116 0.00444448 0.02894482
v -0.00160914 0.00396511 0.02942863
v -0.00726687 0.00397055 0.02890746
v 0.00059977 0.01368765 0.00762039
v 0.00339769 0.00777825 0.02604205
v -0.00162782 0.00777825 0.02650324
v -0.00160915 0.00590357 0.02800209
v -0.00697536 0.00590357 0.02753066
v -0.00716835 0.00444586 0.02845154
v -0.01250198 0.00444848 0.02698958
v -0.01269159 0.00398093 0.02738830
v -0.01759732 0.00398842 0.02493865
v -0.00037246 0.01362304 0.00881317
v -0.01734590 0.00445037 0.02459236
v -0.02150484 0.00445211 0.02135348
v -0.01679355 0.00590357 0.02381361
v -0.02178938 0.00399528 0.02164986
v -0.02509797 0.00400380 0.01761784
v -0.01211578 0.00590357 0.02612711
v -0.01149822 0.00777825 0.02472831
v -0.00666833 0.00777825 0.02605607
v -0.00616818 0.00950458 0.02364856
v -0.00165412 0.00950458 0.02405500
v -0.00168274 0.01101968 0.02076725
v 0.00212687 0.01101968 0.02041303
v 0.00126428 0.01226067 0.01647357
v 0.00411266 0.01226067 0.01565946
v 0.00039115 0.01315323 0.01241082
v -0.00173372 0.01316938 0.01239249
v -0.00171002 0.01226067 0.01675242
v -0.00468845 0.01226067 0.01647441
v -0.00549956 0.01101968 0.02041746
v -0.00916131 0.01101968 0.01938759
v -0.00175474 0.01368765 0.00807028
v -0.00312993 0.01362304 0.00881200
v -0.01049580 0.00950458 0.02244649
v -0.01444415 0.00950458 0.02047126
v -0.00385870 0.01315323 0.01240994
v -0.00581541 0.01316938 0.01161820
v -0.00411379 0.01368765 0.00761809
v -0.00567710 0.01362304 0.00779727
v -0.00611099 0.01368765 0.00633133
v -0.00925805 0.01316938 0.00941006
v -0.00754840 0.01226067 0.01565940
v -0.01016908 0.01226067 0.01432584
v -0.00777849 0.01315323 0.01085897
v -0.00761942 0.01362304 0.00592082
v -0.01250896 0.01101968 0.01769890
v -0.01541299 0.01101968 0.01542333
v -0.01245104 0.01226067 0.01253186
v -0.01429991 0.01226067 0.01033588
v -0.01075253 0.01315323 0.00798619
v -0.01153205 0.01316938 0.00609692
v -0.00744070 0.01368765 0.00440386
v -0.00866409 0.01362304 0.00346597
v -0.01785772 0.00950458 0.01780490
v -0.01969132 0.00777825 0.01958735
v -0.02059549 0.00950458 0.01453134
v -0.01775345 0.01101968 0.01263369
v -0.01946059 0.01101968 0.00944477
v -0.01565828 0.01226067 0.00782832
v -0.01647235 0.01226067 0.00510041
v -0.01233682 0.01315323 0.00422324
v -0.01231118 0.01316938 0.00218044
v -0.00790566 0.01368765 0.00212791
v -0.00866190 0.01362304 0.00080585
v -0.00744252 0.01368765 -0.00015001
v -0.01150368 0.01316938 -0.00174137
v -0.01231825 0.01315323 0.00014299
v -0.01642079 0.01226067 -0.00058015
v -0.01673076 0.01226067 0.00226126
v -0.02077865 0.01101968 0.00235943
v -0.02047160 0.01101968 0.00597328
v -0.02374052 0.00950458 0.00670471
v -0.01072137 0.01315323 -0.00363068
v -0.01420066 0.01226067 -0.00583369
v -0.01556991 0.01226067 -0.00331457
v -0.01928751 0.01101968 -0.00473641
v -0.02257902 0.00950458 0.01078523
v -0.02490556 0.00777825 0.01179380
v -0.02037131 0.01101968 -0.00125701
v -0.02358612 0.00950458 -0.00179441
v -0.01237141 0.01226067 -0.00804554
v -0.01755525 0.01101968 -0.00794132
v -0.02231275 0.00950457 -0.00588255
v -0.02407811 0.00950458 0.00245627
v -0.02652643 0.00777825 0.00253781
v -0.02596808 0.00777825 -0.00218510
v -0.02742127 0.00590357 -0.00242041
v -0.02617223 0.00777825 0.00725927
v -0.02766029 0.00590357 0.00760302
v -0.02592181 0.00590357 -0.00723781
v -0.02677576 0.00444493 -0.00754703
v -0.02802183 0.00590357 0.00259165
v -0.02892452 0.00445074 0.00264456
v -0.02433259 0.00444642 -0.01212355
v -0.02720268 0.00396690 -0.00767675
v -0.02873062 0.00397538 -0.00259095
v -0.02831562 0.00444708 -0.00255433
v -0.02929785 0.00398990 0.00271574
v -0.02887421 0.00400210 0.00797475
v -0.02854506 0.00445383 0.00783126
v -0.02717504 0.00445533 0.01280683
v -0.02747132 0.00400805 0.01300340
v -0.02633233 0.00590357 0.01241583
v -0.02402868 0.00590357 0.01683060
v -0.02480769 0.00445426 0.01737076
v -0.02272193 0.00777825 0.01595464
v -0.02082001 0.00590357 0.02068271
v -0.01589781 0.00777825 0.02254247
vn 0.69995080 0.51243520 -0.49747270
vn 0.62388710 0.64552370 -0.44052720
vn 0.53538230 0.61918080 -0.57443970
vn 0.58185390 0.47774930 -0.65818050
vn 0.53103150 0.44559400 -0.72072990
vn 0.57466530 0.46330160 -0.67461960
vn 0.47977300 0.59879230 -0.64130000
vn 0.36354100 0.61448270 -0.70017780
vn 0.42301240 0.45150060 -0.78562570
vn 0.43959190 0.39806740 -0.80517160
vn 0.53292130 0.41280300 -0.73863970
vn 0.32157640 0.83301010 -0.45020310
vn 0.26020320 0.83625480 -0.48267170
vn 0.32909380 0.86029510 -0.38934520
vn 0.36670060 0.89404170 -0.25733270
vn 0.69856240 0.51149820 -0.50038000
vn 0.81947460 0.50448480 -0.27194910
vn 0.44939240 0.88161800 -0.14420800
vn 0.81626220 0.50312400 -0.28386990
vn 0.71999380 0.63894900 -0.27083780
vn 0.86556940 0.47203160 -0.16725960
vn 0.86673010 0.47384580 -0.15572160
vn 0.88613520 0.46018530 -0.05471731
vn 0.88329890 0.46566270 -0.05423357
vn 0.50325740 0.79003300 -0.35011390
vn 0.44079300 0.77842220 -0.44694560
vn 0.37605330 0.77647360 -0.50564100
vn 0.32778670 0.88764660 -0.32348020
vn 0.56770770 0.78991600 -0.23182020
vn 0.41773940 0.89132800 -0.17614830
vn 0.60228400 0.78714360 -0.13288670
vn 0.37843750 0.88901200 -0.25776500
vn 0.25774110 0.95072650 -0.17230420
vn 0.76892340 0.61849560 -0.16192570
vn 0.78145440 0.62249690 -0.04273784
vn 0.86428560 0.48299810 0.14043880
vn 0.22104440 0.95036990 -0.21894400
vn 0.17382480 0.95114230 -0.25517310
vn 0.14315700 0.97942360 -0.14225160
vn 0.26312690 0.89159460 -0.36854220
vn 0.17743600 0.89876540 -0.40092050
vn 0.26489230 0.79361550 -0.54772850
vn 0.12614660 0.81005080 -0.57262970
vn 0.17760660 0.64194150 -0.74590020
vn 0.21441940 0.47823390 -0.85165520
vn 0.00329768 0.65245760 -0.75781800
vn 0.23059140 0.41911650 -0.87816230
vn 0.00835985 0.43640500 -0.89971150
vn 0.12931160 0.85075460 -0.50940660
vn 0.00098547 0.85114790 -0.52492510
vn -0.10420430 0.85185510 -0.51330730
vn 0.00528089 0.49107100 -0.87110360
vn -0.16691300 0.49273040 -0.85402390
vn -0.17078000 0.44044650 -0.88138590
vn -0.33722590 0.44489480 -0.82966690
vn -0.20062460 0.85487560 -0.47847410
vn -0.28219080 0.86256650 -0.41993740
vn -0.48693950 0.45927330 -0.74293860
vn -0.61049040 0.48699900 -0.62460660
vn -0.47998630 0.49461220 -0.72454940
vn -0.34045940 0.87640090 -0.34060060
vn -0.37665730 0.89119570 -0.25278340
vn -0.33001620 0.49319260 -0.80489160
vn -0.28755320 0.65320190 -0.70045720
vn -0.14535140 0.65320030 -0.74310320
vn -0.11141470 0.81438570 -0.56952850
vn 0.00197300 0.81429430 -0.58044880
vn 0.00136021 0.90342750 -0.42873870
vn 0.08706909 0.90272770 -0.42130950
vn 0.06074018 0.95189940 -0.30032990
vn 0.11930500 0.95155070 -0.28340390
vn 0.07781901 0.97942540 -0.18619920
vn 0.11509240 0.97851490 -0.17106270
vn 0.07165208 0.99173110 -0.10646860
vn -0.22040020 0.81437530 -0.53685800
vn -0.16282620 0.90341790 -0.39664050
vn -0.32088770 0.81437390 -0.48355580
vn -0.08231191 0.90342020 -0.42078110
vn -0.05883340 0.95189940 -0.30070930
vn 0.00097399 0.95170520 -0.30701200
vn 0.00064020 0.97942450 -0.20181020
vn 0.04085262 0.97851770 -0.20207480
vn 0.02543513 0.99173430 -0.12576220
vn -0.41868680 0.65320650 -0.63089040
vn -0.53371480 0.65319110 -0.53711250
vn 0.03919129 0.99482450 -0.09374635
vn -0.00000012 1.00000000 -0.00000012
vn 0.00032229 0.99482390 -0.10161310
vn -0.02463680 0.99173430 -0.12592110
vn -0.61064150 0.49759010 -0.61605270
vn -0.71737390 0.50123480 -0.48387840
vn 0.07208055 0.99482380 -0.07162484
vn 0.10692090 0.99173110 -0.07097526
vn -0.03956973 0.97851770 -0.20232990
vn -0.07663614 0.97942540 -0.18668920
vn -0.03859585 0.99482450 -0.09399316
vn -0.07097524 0.99173100 -0.10692110
vn 0.09399293 0.99482450 -0.03859586
vn 0.18668900 0.97942540 -0.07663612
vn 0.17178940 0.97851490 -0.11400480
vn -0.11660280 0.95170800 -0.28399980
vn -0.16943560 0.95189990 -0.25530040
vn -0.11400480 0.97851490 -0.17178960
vn -0.14225170 0.97942360 -0.14315720
vn -0.07162483 0.99482380 -0.07208078
vn 0.12592090 0.99173430 -0.02463680
vn 0.28560520 0.95101360 -0.11833430
vn 0.30145530 0.95160880 -0.05971085
vn -0.23706270 0.90342990 -0.35723320
vn -0.30221580 0.90341840 -0.30413970
vn -0.10646860 0.99173100 -0.07165230
vn 0.20232970 0.97851780 -0.03956974
vn 0.20181000 0.97942450 0.00064020
vn 0.43636080 0.89497540 -0.09278028
vn 0.43564090 0.90010900 -0.00455104
vn -0.40905890 0.81437370 -0.41166290
vn -0.48150980 0.81437390 -0.32394970
vn 0.10161290 0.99482410 0.00032229
vn 0.12576200 0.99173430 0.02543512
vn 0.30719020 0.95164790 0.00066626
vn 0.30032970 0.95189950 0.06074018
vn 0.60246180 0.79785190 -0.02173071
vn 0.57513470 0.81083370 0.10848420
vn -0.62822090 0.65320650 -0.42268180
vn -0.69861840 0.65320200 -0.29199240
vn 0.20207460 0.97851780 0.04085262
vn 0.18619890 0.97942540 0.07781900
vn 0.42145740 0.90295410 0.08395007
vn 0.39559900 0.90341810 0.16533960
vn 0.75454310 0.64305640 0.13093230
vn 0.69958370 0.65243300 0.29139980
vn 0.09374612 0.99482450 0.03919129
vn 0.10646840 0.99173110 0.07165208
vn 0.07162460 0.99482380 0.07208055
vn 0.14225140 0.97942360 0.14315700
vn 0.28325380 0.95170800 0.11840230
vn 0.25421990 0.95189990 0.17105200
vn 0.17106250 0.97851500 0.11509240
vn 0.07097501 0.99173110 0.10692090
vn 0.80337730 0.49364520 0.33301550
vn 0.81974520 0.46327670 0.33673820
vn 0.72077320 0.49606750 0.48415200
vn 0.87622100 0.46196480 0.13720490
vn 0.48672610 0.86979320 0.08097774
vn 0.50238560 0.86422540 -0.02688953
vn 0.46352270 0.86411430 0.19609500
vn 0.49828930 0.86278590 -0.08548887
vn 0.40737190 0.87006770 0.27754330
vn 0.73320670 0.47394000 0.48763610
vn 0.61685320 0.49027400 0.61573000
vn 0.33478280 0.87846010 0.34092280
vn 0.25754520 0.88271970 0.39303500
vn 0.48078940 0.50113910 0.71951450
vn 0.32977890 0.51579130 0.79069920
vn 0.47951750 0.49888980 0.72192240
vn 0.17174730 0.88947810 0.42347550
vn 0.08306126 0.89908780 0.42981620
vn 0.61165930 0.49776590 0.61490000
vn 0.53371470 0.65319130 0.53711230
vn 0.62822070 0.65320660 0.42268160
vn 0.48150970 0.81437410 0.32394950
vn 0.53560550 0.81428990 0.22373850
vn 0.35572150 0.90343010 0.23932460
vn 0.30221550 0.90341840 0.30413940
vn 0.40905870 0.81437390 0.41166270
vn 0.32088750 0.81437410 0.48355560
vn 0.41868670 0.65320660 0.63089030
vn 0.28755310 0.65320220 0.70045710
vn 0.21641160 0.95170050 0.21778930
vn 0.16943540 0.95189990 0.25530020
vn 0.32943890 0.50063630 0.80052060
vn 0.16669310 0.50330220 0.84787990
vn 0.23706250 0.90343010 0.35723300
vn 0.16282590 0.90341810 0.39664020
vn 0.11400460 0.97851500 0.17178940
vn 0.07663590 0.97942540 0.18668900
vn 0.22040000 0.81437550 0.53685780
vn 0.11141450 0.81438590 0.56952820
vn 0.16663650 0.53792490 0.82635900
vn -0.00177704 0.55178900 0.83398190
vn -0.00168091 0.90480100 0.42583140
vn -0.08524584 0.90278670 0.42155600
vn 0.03859563 0.99482450 0.09399293
vn 0.14535130 0.65320050 0.74310300
vn -0.00240254 0.65318560 0.75719410
vn -0.00258653 0.50506720 0.86307620
vn -0.17151010 0.50446070 0.84622910
vn -0.16787860 0.54772470 0.81964290
vn -0.32703210 0.53671090 0.77781190
vn -0.16883200 0.89897450 0.40415420
vn -0.24775320 0.89583160 0.36892280
vn 0.02463657 0.99173430 0.12592090
vn -0.47567660 0.52679350 0.70442910
vn -0.60913580 0.51629250 0.60199300
vn -0.48311920 0.50168480 0.71757110
vn -0.31856310 0.89286220 0.31829970
vn -0.38289050 0.88740520 0.25672360
vn -0.33360670 0.50299220 0.79731140
vn -0.29199230 0.65320220 0.69861820
vn -0.15006400 0.65320040 0.74216570
vn -0.11502650 0.81438590 0.56880970
vn -0.00184137 0.81438710 0.58031890
vn -0.00136043 0.90342760 0.42873850
vn 0.08231165 0.90342030 0.42078090
vn 0.05883318 0.95189950 0.30070910
vn 0.11660250 0.95170800 0.28399950
vn 0.03956951 0.97851780 0.20232970
vn -0.00064042 0.97942450 0.20181000
vn -0.00097423 0.95170530 0.30701180
vn -0.06074041 0.95189950 0.30032970
vn -0.08498036 0.90342030 0.42025010
vn -0.16533980 0.90341790 0.39559900
vn -0.00032252 0.99482410 0.10161290
vn -0.02543536 0.99173430 0.12576200
vn -0.22380240 0.81437550 0.53544840
vn -0.32394980 0.81437400 0.48150970
vn -0.04085285 0.97851770 0.20207450
vn -0.07781925 0.97942540 0.18619890
vn -0.03919153 0.99482450 0.09374610
vn -0.07165231 0.99173110 0.10646840
vn -0.07208078 0.99482380 0.07162460
vn -0.14315720 0.97942360 0.14225140
vn -0.11840260 0.95170800 0.28325380
vn -0.17105230 0.95189990 0.25421990
vn -0.11509260 0.97851490 0.17106250
vn -0.10692110 0.99173110 0.07097501
vn -0.23932480 0.90343000 0.35572150
vn -0.30413960 0.90341840 0.30221560
vn -0.21778950 0.95170050 0.21641160
vn -0.25530040 0.95189990 0.16943540
vn -0.17178960 0.97851490 0.11400460
vn -0.18668920 0.97942540 0.07663589
vn -0.09399316 0.99482450 0.03859563
vn -0.12592110 0.99173430 0.02463657
vn -0.41166290 0.81437370 0.40905870
vn -0.53711250 0.65319130 0.53371480
vn -0.48355590 0.81437400 0.32088750
vn -0.35723320 0.90343000 0.23706250
vn -0.39664040 0.90341790 0.16282590
vn -0.28399980 0.95170800 0.11660250
vn -0.30070930 0.95189940 0.05883316
vn -0.20232990 0.97851770 0.03956950
vn -0.20181020 0.97942450 -0.00064043
vn -0.10161310 0.99482390 -0.00032252
vn -0.12576220 0.99173430 -0.02543536
vn -0.09374635 0.99482450 -0.03919153
vn -0.18619920 0.97942540 -0.07781925
vn -0.20207480 0.97851770 -0.04085284
vn -0.30032990 0.95189940 -0.06074042
vn -0.30701200 0.95170520 -0.00097422
vn -0.42873870 0.90342750 -0.00136045
vn -0.42078110 0.90342020 0.08231164
vn -0.56952840 0.81438570 0.11141450
vn -0.17106270 0.97851490 -0.11509260
vn -0.25422010 0.95189990 -0.17105230
vn -0.28325410 0.95170800 -0.11840260
vn -0.39559920 0.90341790 -0.16533980
vn -0.53685810 0.81437540 0.22040000
vn -0.70045720 0.65320210 0.28755310
vn -0.42025040 0.90342020 -0.08498037
vn -0.56881000 0.81438570 -0.11502650
vn -0.21641180 0.95170040 -0.21778950
vn -0.35572170 0.90342990 -0.23932480
vn -0.53544870 0.81437530 -0.22380240
vn -0.58031920 0.81438710 -0.00184137
vn -0.75719420 0.65318540 -0.00240254
vn -0.74216590 0.65320030 -0.15006400
vn -0.84790150 0.50186950 -0.17085110
vn -0.74310320 0.65320030 0.14535120
vn -0.85111560 0.49783610 0.16661820
vn -0.79733450 0.50314240 -0.33332480
vn -0.77833520 0.53655960 -0.32603390
vn -0.86630640 0.49950770 -0.00229301
vn -0.86155270 0.50766800 -0.00058465
vn -0.70520420 0.51997930 -0.48198420
vn -0.40564620 0.89835930 -0.16852780
vn -0.43980770 0.89386090 -0.08707483
vn -0.83356900 0.52708390 -0.16536360
vn -0.46281250 0.88645570 0.00094742
vn -0.46250850 0.88172610 0.09297776
vn -0.85369070 0.49321820 0.16717680
vn -0.80657070 0.49131290 0.32871770
vn -0.43422590 0.88243820 0.18097190
vn -0.80249730 0.49765550 0.32914630
vn -0.72244390 0.49880140 0.47882350
vn -0.72248130 0.50198670 0.47542620
vn -0.63089040 0.65320660 0.41868670
vn -0.61439180 0.50043930 0.60998610
vn -0.42268180 0.65320660 0.62822080
vt 0.32757610 0.53698290
vt 0.33691100 0.53512610
vt 0.33390300 0.50488210
vt 0.32438350 0.50488210
vt 0.32757610 0.47278120
vt 0.31872000 0.50490130
vt 0.33691090 0.47463800
vt 0.34570590 0.44554510
vt 0.33691090 0.44190220
vt 0.33183890 0.43974550
vt 0.32210520 0.47168990
vt 0.32029570 0.47132100
vt 0.33037810 0.43897460
vt 0.31662500 0.50495960
vt 0.31987700 0.53865550
vt 0.32199940 0.53812720
vt 0.33165960 0.57009840
vt 0.32966830 0.57110800
vt 0.33691100 0.56786200
vt 0.34570590 0.56421910
vt 0.35214510 0.59629760
vt 0.34741650 0.59954580
vt 0.36858870 0.62536680
vt 0.37258630 0.62125380
vt 0.35214500 0.53209590
vt 0.34943840 0.50488210
vt 0.35214500 0.47766830
vt 0.37028410 0.50488200
vt 0.36005880 0.55827390
vt 0.37931760 0.55029660
vt 0.37297360 0.58238040
vt 0.37258630 0.52802990
vt 0.39754250 0.52306570
vt 0.36005880 0.59100970
vt 0.37931760 0.61452250
vt 0.39754250 0.64169490
vt 0.39573400 0.50488200
vt 0.39754250 0.48669840
vt 0.42339450 0.50488200
vt 0.37258620 0.48173430
vt 0.37931760 0.45946760
vt 0.36005870 0.45149030
vt 0.37297350 0.42738380
vt 0.36005870 0.41875440
vt 0.35214500 0.41346660
vt 0.37931760 0.39524170
vt 0.34760500 0.41032070
vt 0.36873850 0.38450200
vt 0.34636150 0.40915520
vt 0.36772300 0.38300700
vt 0.39393990 0.36167360
vt 0.37258620 0.38851030
vt 0.39754240 0.36806920
vt 0.39457450 0.36337550
vt 0.42401240 0.34763430
vt 0.42381080 0.34578830
vt 0.45613460 0.33598460
vt 0.45595110 0.33797100
vt 0.48914050 0.33461360
vt 0.45685700 0.34350020
vt 0.48968630 0.33242410
vt 0.52324040 0.33526880
vt 0.42597790 0.35283510
vt 0.42962090 0.36163000
vt 0.40283020 0.37598290
vt 0.41145960 0.38889770
vt 0.39030270 0.40622690
vt 0.40504280 0.42096700
vt 0.39030270 0.43896280
vt 0.41145960 0.45309940
vt 0.40283020 0.46920680
vt 0.42838530 0.47979200
vt 0.42330290 0.49182250
vt 0.44615680 0.49636840
vt 0.43556610 0.37598290
vt 0.44354330 0.39524170
vt 0.46174410 0.36806910
vt 0.42303860 0.40622690
vt 0.43717520 0.42738380
vt 0.42303860 0.43896280
vt 0.44259760 0.45852180
vt 0.43329830 0.46769150
vt 0.45267290 0.48063710
vt 0.45871380 0.35283500
vt 0.48895790 0.34982710
vt 0.45377100 0.49030720
vt 0.48895790 0.50488200
vt 0.46202700 0.47795110
vt 0.46471300 0.46859700
vt 0.48895790 0.34030750
vt 0.52105870 0.34350020
vt 0.45087190 0.50488200
vt 0.44615680 0.51339570
vt 0.45176730 0.44922240
vt 0.46386790 0.44430940
vt 0.47438300 0.46969510
vt 0.48044420 0.46208090
vt 0.45377100 0.51945690
vt 0.42838530 0.52997210
vt 0.42330300 0.51794170
vt 0.45328260 0.41875440
vt 0.47077420 0.41346660
vt 0.47589840 0.43922700
vt 0.48895790 0.43931860
vt 0.48895790 0.46679600
vt 0.45267290 0.52912690
vt 0.40283030 0.54055730
vt 0.41145970 0.55666480
vt 0.46581010 0.38851030
vt 0.48895790 0.38620810
vt 0.49747150 0.46208090
vt 0.43329840 0.54207270
vt 0.44259760 0.55124230
vt 0.39030280 0.57080130
vt 0.40504290 0.58879720
vt 0.48895790 0.36536250
vt 0.51617170 0.36806910
vt 0.46202700 0.53181290
vt 0.46471300 0.54116710
vt 0.42303870 0.57080130
vt 0.43717520 0.58238040
vt 0.39030280 0.60353720
vt 0.41145970 0.62086640
vt 0.51920190 0.35283500
vt 0.54829480 0.36162990
vt 0.45176740 0.56054160
vt 0.46386790 0.56545470
vt 0.42303870 0.60353720
vt 0.44354340 0.61452250
vt 0.40283030 0.63378130
vt 0.42962110 0.64813410
vt 0.47438300 0.54006900
vt 0.48044420 0.54768320
vt 0.48895790 0.54296810
vt 0.48895790 0.57044540
vt 0.45328270 0.59100970
vt 0.47077430 0.59629750
vt 0.47589840 0.57053700
vt 0.49747160 0.54768320
vt 0.42597810 0.65692900
vt 0.42399170 0.66217020
vt 0.45685710 0.66626390
vt 0.39449460 0.64645930
vt 0.39362270 0.64837330
vt 0.36713020 0.62717420
vt 0.42372880 0.66413840
vt 0.34561560 0.60101670
vt 0.45608390 0.67399420
vt 0.45593820 0.67184660
vt 0.48912230 0.67518130
vt 0.48961420 0.67746470
vt 0.52324550 0.67407440
vt 0.52233190 0.67186690
vt 0.55429700 0.66221760
vt 0.52105880 0.66626390
vt 0.55567370 0.66432630
vt 0.58559470 0.64872340
vt 0.48895800 0.66945650
vt 0.48895790 0.65993700
vt 0.45871390 0.65692900
vt 0.46174420 0.64169490
vt 0.43556620 0.63378120
vt 0.46581020 0.62125380
vt 0.48895790 0.62355600
vt 0.48895790 0.64440160
vt 0.51617180 0.64169490
vt 0.51920190 0.65692900
vt 0.54829490 0.64813410
vt 0.48895790 0.59810600
vt 0.50714160 0.59629750
vt 0.55193790 0.65692900
vt 0.58037350 0.64169490
vt 0.51210570 0.62125380
vt 0.53437240 0.61452250
vt 0.50201760 0.57053700
vt 0.51404790 0.56545470
vt 0.54234970 0.63378120
vt 0.56645620 0.62086640
vt 0.58374740 0.64654770
vt 0.60958700 0.62546990
vt 0.61182510 0.62758200
vt 0.63318190 0.60121790
vt 0.50353280 0.54006900
vt 0.57508560 0.63378120
vt 0.59859840 0.61452250
vt 0.60532960 0.62125380
vt 0.62577090 0.59629750
vt 0.63071930 0.59959660
vt 0.64644460 0.57008930
vt 0.64900370 0.57107250
vt 0.65862890 0.53858690
vt 0.51320280 0.54116710
vt 0.65606260 0.53810980
vt 0.65932190 0.50491370
vt 0.65033980 0.53698280
vt 0.66180110 0.50500900
vt 0.65826390 0.47158740
vt 0.64100500 0.56786200
vt 0.63221000 0.56421900
vt 0.61785720 0.59100970
vt 0.60494230 0.58238040
vt 0.58761310 0.60353720
vt 0.57287310 0.58879720
vt 0.55487730 0.60353720
vt 0.54074060 0.58238040
vt 0.52463320 0.59100970
vt 0.52614850 0.56054160
vt 0.53531830 0.55124230
vt 0.55487730 0.57080130
vt 0.56645620 0.55666480
vt 0.58761310 0.57080130
vt 0.59859840 0.55029660
vt 0.51588890 0.53181290
vt 0.52524290 0.52912690
vt 0.61785720 0.55827380
vt 0.62577090 0.53209580
vt 0.54461750 0.54207270
vt 0.54953060 0.52997210
vt 0.52414480 0.51945690
vt 0.53175900 0.51339570
vt 0.52704390 0.50488200
vt 0.55452130 0.50488200
vt 0.57508560 0.54055730
vt 0.58037350 0.52306570
vt 0.55461290 0.51794170
vt 0.53175900 0.49636840
vt 0.60532960 0.52802980
vt 0.60763190 0.50488200
vt 0.58218190 0.50488200
vt 0.58037350 0.48669830
vt 0.55461290 0.49182250
vt 0.54953060 0.47979200
vt 0.52414480 0.49030710
vt 0.52524290 0.48063710
vt 0.62847740 0.50488200
vt 0.64401290 0.50488200
vt 0.62577090 0.47766830
vt 0.60532960 0.48173420
vt 0.59859840 0.45946750
vt 0.57508560 0.46920680
vt 0.56645620 0.45309930
vt 0.54461750 0.46769150
vt 0.53531830 0.45852170
vt 0.51588890 0.47795110
vt 0.51320280 0.46859700
vt 0.50353280 0.46969510
vt 0.51404790 0.44430940
vt 0.52614850 0.44922240
vt 0.54074060 0.42738380
vt 0.55487720 0.43896270
vt 0.57287300 0.42096690
vt 0.58761310 0.43896270
vt 0.60494230 0.42738380
vt 0.50201750 0.43922700
vt 0.50714160 0.41346660
vt 0.52463320 0.41875440
vt 0.53437240 0.39524160
vt 0.61785720 0.45149030
vt 0.63221000 0.44554500
vt 0.55487720 0.40622690
vt 0.56645620 0.38889760
vt 0.48895790 0.41165810
vt 0.51210560 0.38851030
vt 0.54234970 0.37598280
vt 0.58761310 0.40622680
vt 0.59859840 0.39524160
vt 0.57508560 0.37598280
vt 0.58037330 0.36806910
vt 0.61785720 0.41875430
vt 0.62577090 0.41346660
vt 0.55193780 0.35283500
vt 0.55426340 0.34737180
vt 0.60532960 0.38851030
vt 0.60948480 0.38452680
vt 0.52233050 0.33779010
vt 0.55554090 0.34474990
vt 0.58533140 0.36109840
vt 0.58368080 0.36323010
vt 0.61142100 0.38310550
vt 0.63261940 0.40956220
vt 0.63057700 0.41042350
vt 0.64629360 0.43985530
vt 0.64840680 0.43940930
vt 0.64100490 0.44190210
vt 0.65033980 0.47278120
vt 0.65597050 0.47175720
vt 0.64100490 0.47463800
vt 0.65353240 0.50488200
vt 0.64100500 0.53512600
f 3/3/3 2/2/2 1/1/1
f 4/4/4 3/3/3 1/1/1
f 3/3/3 4/4/4 5/5/5
f 6/6/6 4/4/4 1/1/1
f 4/4/4 6/6/6 5/5/5
f 7/7/7 3/3/3 5/5/5
f 8/8/8 7/7/7 5/5/5
f 9/9/9 8/8/8 5/5/5
f 10/10/10 9/9/9 5/5/5
f 11/11/11 10/10/10 5/5/5
f 6/6/6 11/11/11 5/5/5
f 10/10/10 11/11/11 12/12/12
f 11/11/11 6/6/6 12/12/12
f 13/13/13 10/10/10 12/12/12
f 6/6/6 14/14/14 12/12/12
f 14/14/14 6/6/6 15/15/15
f 6/6/6 16/16/16 15/15/15
f 16/16/16 6/6/6 1/1/1
f 16/16/16 17/17/17 15/15/15
f 17/17/17 16/16/16 1/1/1
f 17/17/17 18/18/18 15/15/15
f 19/19/19 17/17/17 1/1/1
f 20/20/20 19/19/19 1/1/1
f 17/17/17 19/19/19 21/21/21
f 22/22/22 17/17/17 21/21/21
f 23/23/23 22/22/22 21/21/21
f 24/24/24 23/23/23 21/21/21
f 2/2/2 20/20/20 1/1/1
f 20/20/20 2/2/2 25/25/25
f 2/2/2 3/3/3 25/25/25
f 3/3/3 26/26/26 25/25/25
f 26/26/26 3/3/3 27/27/27
f 26/26/26 28/28/28 25/25/25
f 28/28/28 26/26/26 27/27/27
f 3/3/3 7/7/7 27/27/27
f 7/7/7 8/8/8 27/27/27
f 29/29/29 20/20/20 25/25/25
f 30/30/30 29/29/29 25/25/25
f 20/20/20 29/29/29 31/31/31
f 29/29/29 30/30/30 31/31/31
f 28/28/28 32/32/32 25/25/25
f 32/32/32 30/30/30 25/25/25
f 32/32/32 28/28/28 33/33/33
f 30/30/30 32/32/32 33/33/33
f 34/34/34 20/20/20 31/31/31
f 35/35/35 34/34/34 31/31/31
f 20/20/20 34/34/34 21/21/21
f 34/34/34 35/35/35 21/21/21
f 19/19/19 20/20/20 21/21/21
f 35/35/35 24/24/24 21/21/21
f 24/24/24 35/35/35 36/36/36
f 23/23/23 24/24/24 36/36/36
f 28/28/28 37/37/37 33/33/33
f 37/37/37 28/28/28 38/38/38
f 37/37/37 39/39/39 33/33/33
f 39/39/39 37/37/37 38/38/38
f 28/28/28 40/40/40 38/38/38
f 40/40/40 41/41/41 38/38/38
f 40/40/40 28/28/28 27/27/27
f 41/41/41 40/40/40 27/27/27
f 42/42/42 41/41/41 27/27/27
f 41/41/41 42/42/42 43/43/43
f 8/8/8 42/42/42 27/27/27
f 42/42/42 8/8/8 43/43/43
f 8/8/8 44/44/44 43/43/43
f 44/44/44 8/8/8 45/45/45
f 44/44/44 46/46/46 43/43/43
f 46/46/46 44/44/44 45/45/45
f 8/8/8 9/9/9 45/45/45
f 9/9/9 10/10/10 45/45/45
f 10/10/10 47/47/47 45/45/45
f 47/47/47 48/48/48 45/45/45
f 47/47/47 10/10/10 49/49/49
f 48/48/48 47/47/47 49/49/49
f 10/10/10 13/13/13 49/49/49
f 50/50/50 48/48/48 49/49/49
f 48/48/48 50/50/50 51/51/51
f 52/52/52 46/46/46 45/45/45
f 48/48/48 52/52/52 45/45/45
f 52/52/52 48/48/48 53/53/53
f 46/46/46 52/52/52 53/53/53
f 54/54/54 48/48/48 51/51/51
f 48/48/48 54/54/54 53/53/53
f 55/55/55 54/54/54 51/51/51
f 54/54/54 55/55/55 53/53/53
f 56/56/56 55/55/55 51/51/51
f 55/55/55 56/56/56 57/57/57
f 58/58/58 55/55/55 57/57/57
f 59/59/59 58/58/58 57/57/57
f 55/55/55 58/58/58 60/60/60
f 58/58/58 59/59/59 60/60/60
f 61/61/61 59/59/59 57/57/57
f 59/59/59 61/61/61 62/62/62
f 55/55/55 63/63/63 53/53/53
f 63/63/63 55/55/55 60/60/60
f 63/63/63 64/64/64 53/53/53
f 64/64/64 63/63/63 60/60/60
f 65/65/65 46/46/46 53/53/53
f 64/64/64 65/65/65 53/53/53
f 46/46/46 65/65/65 66/66/66
f 65/65/65 64/64/64 66/66/66
f 67/67/67 46/46/46 66/66/66
f 68/68/68 67/67/67 66/66/66
f 46/46/46 67/67/67 43/43/43
f 67/67/67 68/68/68 43/43/43
f 68/68/68 69/69/69 43/43/43
f 69/69/69 68/68/68 70/70/70
f 69/69/69 41/41/41 43/43/43
f 41/41/41 69/69/69 70/70/70
f 71/71/71 41/41/41 70/70/70
f 72/72/72 71/71/71 70/70/70
f 41/41/41 71/71/71 38/38/38
f 71/71/71 72/72/72 38/38/38
f 72/72/72 73/73/73 38/38/38
f 73/73/73 39/39/39 38/38/38
f 73/73/73 72/72/72 74/74/74
f 39/39/39 73/73/73 74/74/74
f 64/64/64 75/75/75 66/66/66
f 75/75/75 76/76/76 66/66/66
f 75/75/75 64/64/64 77/77/77
f 76/76/76 75/75/75 77/77/77
f 78/78/78 68/68/68 66/66/66
f 76/76/76 78/78/78 66/66/66
f 68/68/68 78/78/78 79/79/79
f 78/78/78 76/76/76 79/79/79
f 68/68/68 80/80/80 70/70/70
f 80/80/80 68/68/68 79/79/79
f 80/80/80 81/81/81 70/70/70
f 81/81/81 80/80/80 79/79/79
f 82/82/82 72/72/72 70/70/70
f 81/81/81 82/82/82 70/70/70
f 72/72/72 82/82/82 83/83/83
f 82/82/82 81/81/81 83/83/83
f 64/64/64 84/84/84 77/77/77
f 84/84/84 85/85/85 77/77/77
f 84/84/84 64/64/64 60/60/60
f 85/85/85 84/84/84 60/60/60
f 86/86/86 72/72/72 83/83/83
f 87/87/87 86/86/86 83/83/83
f 72/72/72 86/86/86 74/74/74
f 86/86/86 87/87/87 74/74/74
f 81/81/81 88/88/88 83/83/83
f 88/88/88 87/87/87 83/83/83
f 88/88/88 81/81/81 89/89/89
f 87/87/87 88/88/88 89/89/89
f 90/90/90 85/85/85 60/60/60
f 85/85/85 90/90/90 91/91/91
f 59/59/59 90/90/90 60/60/60
f 90/90/90 59/59/59 91/91/91
f 87/87/87 92/92/92 74/74/74
f 92/92/92 39/39/39 74/74/74
f 92/92/92 87/87/87 93/93/93
f 39/39/39 92/92/92 93/93/93
f 81/81/81 94/94/94 89/89/89
f 94/94/94 95/95/95 89/89/89
f 94/94/94 81/81/81 79/79/79
f 95/95/95 94/94/94 79/79/79
f 96/96/96 87/87/87 89/89/89
f 95/95/95 96/96/96 89/89/89
f 87/87/87 96/96/96 97/97/97
f 96/96/96 95/95/95 97/97/97
f 87/87/87 98/98/98 93/93/93
f 98/98/98 99/99/99 93/93/93
f 100/100/100 39/39/39 93/93/93
f 99/99/99 100/100/100 93/93/93
f 39/39/39 100/100/100 33/33/33
f 100/100/100 99/99/99 33/33/33
f 101/101/101 95/95/95 79/79/79
f 95/95/95 101/101/101 102/102/102
f 76/76/76 101/101/101 79/79/79
f 101/101/101 76/76/76 102/102/102
f 95/95/95 103/103/103 97/97/97
f 103/103/103 95/95/95 102/102/102
f 103/103/103 104/104/104 97/97/97
f 104/104/104 103/103/103 102/102/102
f 105/105/105 87/87/87 97/97/97
f 104/104/104 105/105/105 97/97/97
f 99/99/99 98/98/98 106/106/106
f 98/98/98 87/87/87 106/106/106
f 99/99/99 107/107/107 33/33/33
f 107/107/107 99/99/99 108/108/108
f 107/107/107 30/30/30 33/33/33
f 30/30/30 107/107/107 108/108/108
f 76/76/76 109/109/109 102/102/102
f 109/109/109 110/110/110 102/102/102
f 109/109/109 76/76/76 77/77/77
f 110/110/110 109/109/109 77/77/77
f 87/87/87 105/105/105 111/111/111
f 105/105/105 104/104/104 111/111/111
f 112/112/112 99/99/99 106/106/106
f 99/99/99 112/112/112 108/108/108
f 113/113/113 112/112/112 106/106/106
f 112/112/112 113/113/113 108/108/108
f 114/114/114 30/30/30 108/108/108
f 115/115/115 114/114/114 108/108/108
f 30/30/30 114/114/114 31/31/31
f 114/114/114 115/115/115 31/31/31
f 116/116/116 110/110/110 77/77/77
f 110/110/110 116/116/116 117/117/117
f 85/85/85 116/116/116 77/77/77
f 116/116/116 85/85/85 117/117/117
f 118/118/118 113/113/113 106/106/106
f 87/87/87 118/118/118 106/106/106
f 118/118/118 87/87/87 119/119/119
f 113/113/113 118/118/118 119/119/119
f 113/113/113 120/120/120 108/108/108
f 120/120/120 115/115/115 108/108/108
f 120/120/120 113/113/113 121/121/121
f 115/115/115 120/120/120 121/121/121
f 115/115/115 122/122/122 31/31/31
f 122/122/122 115/115/115 123/123/123
f 122/122/122 35/35/35 31/31/31
f 35/35/35 122/122/122 123/123/123
f 85/85/85 124/124/124 117/117/117
f 124/124/124 125/125/125 117/117/117
f 124/124/124 85/85/85 91/91/91
f 125/125/125 124/124/124 91/91/91
f 126/126/126 113/113/113 119/119/119
f 113/113/113 126/126/126 121/121/121
f 127/127/127 126/126/126 119/119/119
f 126/126/126 127/127/127 121/121/121
f 115/115/115 128/128/128 123/123/123
f 128/128/128 115/115/115 121/121/121
f 129/129/129 128/128/128 121/121/121
f 128/128/128 129/129/129 123/123/123
f 130/130/130 35/35/35 123/123/123
f 131/131/131 130/130/130 123/123/123
f 35/35/35 130/130/130 36/36/36
f 130/130/130 131/131/131 36/36/36
f 132/132/132 127/127/127 119/119/119
f 87/87/87 132/132/132 119/119/119
f 132/132/132 87/87/87 133/133/133
f 127/127/127 132/132/132 133/133/133
f 87/87/87 134/134/134 133/133/133
f 134/134/134 135/135/135 133/133/133
f 127/127/127 136/136/136 121/121/121
f 136/136/136 129/129/129 121/121/121
f 136/136/136 127/127/127 137/137/137
f 129/129/129 136/136/136 137/137/137
f 138/138/138 127/127/127 133/133/133
f 135/135/135 138/138/138 133/133/133
f 127/127/127 138/138/138 137/137/137
f 138/138/138 135/135/135 137/137/137
f 134/134/134 87/87/87 139/139/139
f 135/135/135 134/134/134 139/139/139
f 131/131/131 140/140/140 36/36/36
f 140/140/140 141/141/141 36/36/36
f 140/140/140 131/131/131 142/142/142
f 141/141/141 140/140/140 142/142/142
f 141/141/141 143/143/143 36/36/36
f 143/143/143 23/23/23 36/36/36
f 143/143/143 141/141/141 144/144/144
f 23/23/23 143/143/143 144/144/144
f 145/145/145 23/23/23 144/144/144
f 141/141/141 146/146/146 144/144/144
f 23/23/23 145/145/145 147/147/147
f 22/22/22 23/23/23 147/147/147
f 17/17/17 22/22/22 147/147/147
f 18/18/18 17/17/17 147/147/147
f 146/146/146 141/141/141 148/148/148
f 141/141/141 149/149/149 148/148/148
f 149/149/149 141/141/141 142/142/142
f 149/149/149 150/150/150 148/148/148
f 150/150/150 149/149/149 142/142/142
f 150/150/150 151/151/151 148/148/148
f 151/151/151 150/150/150 152/152/152
f 150/150/150 153/153/153 152/152/152
f 153/153/153 154/154/154 152/152/152
f 153/153/153 150/150/150 155/155/155
f 154/154/154 153/153/153 155/155/155
f 154/154/154 156/156/156 152/152/152
f 156/156/156 154/154/154 157/157/157
f 158/158/158 150/150/150 142/142/142
f 150/150/150 158/158/158 155/155/155
f 159/159/159 158/158/158 142/142/142
f 158/158/158 159/159/159 155/155/155
f 160/160/160 159/159/159 142/142/142
f 159/159/159 160/160/160 161/161/161
f 131/131/131 160/160/160 142/142/142
f 160/160/160 131/131/131 161/161/161
f 131/131/131 162/162/162 161/161/161
f 162/162/162 131/131/131 123/123/123
f 129/129/129 162/162/162 123/123/123
f 162/162/162 129/129/129 161/161/161
f 129/129/129 163/163/163 161/161/161
f 163/163/163 164/164/164 161/161/161
f 163/163/163 129/129/129 137/137/137
f 164/164/164 163/163/163 137/137/137
f 165/165/165 159/159/159 161/161/161
f 164/164/164 165/165/165 161/161/161
f 159/159/159 165/165/165 166/166/166
f 165/165/165 164/164/164 166/166/166
f 159/159/159 167/167/167 155/155/155
f 167/167/167 159/159/159 166/166/166
f 167/167/167 168/168/168 155/155/155
f 168/168/168 167/167/167 166/166/166
f 169/169/169 164/164/164 137/137/137
f 164/164/164 169/169/169 170/170/170
f 135/135/135 169/169/169 137/137/137
f 169/169/169 135/135/135 170/170/170
f 168/168/168 171/171/171 155/155/155
f 171/171/171 168/168/168 172/172/172
f 171/171/171 154/154/154 155/155/155
f 154/154/154 171/171/171 172/172/172
f 164/164/164 173/173/173 166/166/166
f 173/173/173 164/164/164 170/170/170
f 173/173/173 174/174/174 166/166/166
f 174/174/174 173/173/173 170/170/170
f 135/135/135 175/175/175 170/170/170
f 175/175/175 176/176/176 170/170/170
f 175/175/175 135/135/135 139/139/139
f 176/176/176 175/175/175 139/139/139
f 177/177/177 168/168/168 166/166/166
f 174/174/174 177/177/177 166/166/166
f 168/168/168 177/177/177 178/178/178
f 177/177/177 174/174/174 178/178/178
f 179/179/179 154/154/154 172/172/172
f 180/180/180 179/179/179 172/172/172
f 154/154/154 179/179/179 157/157/157
f 179/179/179 180/180/180 157/157/157
f 180/180/180 181/181/181 157/157/157
f 181/181/181 180/180/180 182/182/182
f 183/183/183 176/176/176 139/139/139
f 87/87/87 183/183/183 139/139/139
f 168/168/168 184/184/184 172/172/172
f 184/184/184 168/168/168 178/178/178
f 184/184/184 185/185/185 172/172/172
f 185/185/185 184/184/184 178/178/178
f 186/186/186 180/180/180 172/172/172
f 185/185/185 186/186/186 172/172/172
f 180/180/180 186/186/186 187/187/187
f 186/186/186 185/185/185 187/187/187
f 180/180/180 188/188/188 182/182/182
f 188/188/188 180/180/180 187/187/187
f 188/188/188 189/189/189 182/182/182
f 189/189/189 188/188/188 187/187/187
f 189/189/189 190/190/190 182/182/182
f 190/190/190 189/189/189 191/191/191
f 183/183/183 87/87/87 192/192/192
f 176/176/176 183/183/183 192/192/192
f 189/189/189 193/193/193 191/191/191
f 193/193/193 194/194/194 191/191/191
f 193/193/193 189/189/189 195/195/195
f 194/194/194 193/193/193 195/195/195
f 194/194/194 196/196/196 191/191/191
f 196/196/196 194/194/194 197/197/197
f 198/198/198 189/189/189 187/187/187
f 189/189/189 198/198/198 195/195/195
f 199/199/199 198/198/198 187/187/187
f 198/198/198 199/199/199 195/195/195
f 200/200/200 199/199/199 187/187/187
f 199/199/199 200/200/200 201/201/201
f 185/185/185 200/200/200 187/187/187
f 200/200/200 185/185/185 201/201/201
f 185/185/185 202/202/202 201/201/201
f 202/202/202 203/203/203 201/201/201
f 202/202/202 185/185/185 178/178/178
f 203/203/203 202/202/202 178/178/178
f 204/204/204 203/203/203 178/178/178
f 203/203/203 204/204/204 205/205/205
f 174/174/174 204/204/204 178/178/178
f 204/204/204 174/174/174 205/205/205
f 174/174/174 206/206/206 205/205/205
f 206/206/206 174/174/174 170/170/170
f 176/176/176 206/206/206 170/170/170
f 206/206/206 176/176/176 205/205/205
f 176/176/176 207/207/207 205/205/205
f 207/207/207 208/208/208 205/205/205
f 207/207/207 176/176/176 192/192/192
f 208/208/208 207/207/207 192/192/192
f 209/209/209 203/203/203 205/205/205
f 208/208/208 209/209/209 205/205/205
f 203/203/203 209/209/209 210/210/210
f 209/209/209 208/208/208 210/210/210
f 203/203/203 211/211/211 201/201/201
f 211/211/211 203/203/203 210/210/210
f 211/211/211 212/212/212 201/201/201
f 212/212/212 211/211/211 210/210/210
f 213/213/213 208/208/208 192/192/192
f 87/87/87 213/213/213 192/192/192
f 208/208/208 213/213/213 214/214/214
f 213/213/213 87/87/87 214/214/214
f 212/212/212 215/215/215 201/201/201
f 215/215/215 212/212/212 216/216/216
f 215/215/215 199/199/199 201/201/201
f 199/199/199 215/215/215 216/216/216
f 208/208/208 217/217/217 210/210/210
f 217/217/217 208/208/208 214/214/214
f 217/217/217 218/218/218 210/210/210
f 218/218/218 217/217/217 214/214/214
f 87/87/87 219/219/219 214/214/214
f 219/219/219 218/218/218 214/214/214
f 219/219/219 87/87/87 220/220/220
f 218/218/218 219/219/219 220/220/220
f 87/87/87 221/221/221 220/220/220
f 221/221/221 222/222/222 220/220/220
f 223/223/223 212/212/212 210/210/210
f 218/218/218 223/223/223 210/210/210
f 212/212/212 223/223/223 224/224/224
f 223/223/223 218/218/218 224/224/224
f 225/225/225 218/218/218 220/220/220
f 222/222/222 225/225/225 220/220/220
f 218/218/218 225/225/225 224/224/224
f 225/225/225 222/222/222 224/224/224
f 221/221/221 87/87/87 226/226/226
f 222/222/222 221/221/221 226/226/226
f 227/227/227 212/212/212 224/224/224
f 228/228/228 227/227/227 224/224/224
f 212/212/212 227/227/227 216/216/216
f 227/227/227 228/228/228 216/216/216
f 222/222/222 229/229/229 224/224/224
f 229/229/229 228/228/228 224/224/224
f 229/229/229 222/222/222 230/230/230
f 228/228/228 229/229/229 230/230/230
f 231/231/231 222/222/222 226/226/226
f 222/222/222 231/231/231 230/230/230
f 232/232/232 231/231/231 226/226/226
f 231/231/231 232/232/232 230/230/230
f 87/87/87 233/233/233 226/226/226
f 233/233/233 232/232/232 226/226/226
f 233/233/233 87/87/87 234/234/234
f 232/232/232 233/233/233 234/234/234
f 228/228/228 235/235/235 216/216/216
f 235/235/235 236/236/236 216/216/216
f 235/235/235 228/228/228 237/237/237
f 236/236/236 235/235/235 237/237/237
f 238/238/238 228/228/228 230/230/230
f 228/228/228 238/238/238 237/237/237
f 239/239/239 238/238/238 230/230/230
f 238/238/238 239/239/239 237/237/237
f 232/232/232 240/240/240 230/230/230
f 240/240/240 239/239/239 230/230/230
f 240/240/240 232/232/232 241/241/241
f 239/239/239 240/240/240 241/241/241
f 242/242/242 232/232/232 234/234/234
f 232/232/232 242/242/242 241/241/241
f 243/243/243 242/242/242 234/234/234
f 242/242/242 243/243/243 241/241/241
f 87/87/87 244/244/244 234/234/234
f 244/244/244 243/243/243 234/234/234
f 244/244/244 87/87/87 245/245/245
f 243/243/243 244/244/244 245/245/245
f 87/87/87 246/246/246 245/245/245
f 246/246/246 247/247/247 245/245/245
f 246/246/246 87/87/87 111/111/111
f 247/247/247 246/246/246 111/111/111
f 248/248/248 243/243/243 245/245/245
f 247/247/247 248/248/248 245/245/245
f 243/243/243 248/248/248 249/249/249
f 248/248/248 247/247/247 249/249/249
f 243/243/243 250/250/250 241/241/241
f 250/250/250 243/243/243 249/249/249
f 250/250/250 251/251/251 241/241/241
f 251/251/251 250/250/250 249/249/249
f 252/252/252 239/239/239 241/241/241
f 251/251/251 252/252/252 241/241/241
f 239/239/239 252/252/252 253/253/253
f 252/252/252 251/251/251 253/253/253
f 254/254/254 247/247/247 111/111/111
f 247/247/247 254/254/254 255/255/255
f 104/104/104 254/254/254 111/111/111
f 254/254/254 104/104/104 255/255/255
f 247/247/247 256/256/256 249/249/249
f 256/256/256 247/247/247 255/255/255
f 256/256/256 257/257/257 249/249/249
f 257/257/257 256/256/256 255/255/255
f 258/258/258 239/239/239 253/253/253
f 259/259/259 258/258/258 253/253/253
f 239/239/239 258/258/258 237/237/237
f 258/258/258 259/259/259 237/237/237
f 260/260/260 251/251/251 249/249/249
f 257/257/257 260/260/260 249/249/249
f 251/251/251 260/260/260 261/261/261
f 260/260/260 257/257/257 261/261/261
f 104/104/104 262/262/262 255/255/255
f 262/262/262 104/104/104 102/102/102
f 110/110/110 262/262/262 102/102/102
f 262/262/262 110/110/110 255/255/255
f 110/110/110 263/263/263 255/255/255
f 263/263/263 257/257/257 255/255/255
f 263/263/263 110/110/110 117/117/117
f 257/257/257 263/263/263 117/117/117
f 264/264/264 257/257/257 117/117/117
f 257/257/257 264/264/264 261/261/261
f 125/125/125 264/264/264 117/117/117
f 264/264/264 125/125/125 261/261/261
f 265/265/265 251/251/251 261/261/261
f 266/266/266 265/265/265 261/261/261
f 251/251/251 265/265/265 253/253/253
f 265/265/265 266/266/266 253/253/253
f 125/125/125 267/267/267 261/261/261
f 267/267/267 266/266/266 261/261/261
f 267/267/267 125/125/125 268/268/268
f 266/266/266 267/267/267 268/268/268
f 266/266/266 269/269/269 253/253/253
f 269/269/269 266/266/266 270/270/270
f 269/269/269 259/259/259 253/253/253
f 259/259/259 269/269/269 270/270/270
f 125/125/125 271/271/271 268/268/268
f 271/271/271 272/272/272 268/268/268
f 271/271/271 125/125/125 91/91/91
f 272/272/272 271/271/271 91/91/91
f 266/266/266 273/273/273 270/270/270
f 273/273/273 266/266/266 268/268/268
f 274/274/274 273/273/273 268/268/268
f 273/273/273 274/274/274 270/270/270
f 275/275/275 272/272/272 91/91/91
f 59/59/59 275/275/275 91/91/91
f 275/275/275 59/59/59 62/62/62
f 272/272/272 275/275/275 62/62/62
f 276/276/276 272/272/272 62/62/62
f 272/272/272 276/276/276 277/277/277
f 272/272/272 278/278/278 268/268/268
f 278/278/278 272/272/272 277/277/277
f 278/278/278 274/274/274 268/268/268
f 274/274/274 278/278/278 277/277/277
f 279/279/279 274/274/274 277/277/277
f 274/274/274 279/279/279 280/280/280
f 281/281/281 274/274/274 280/280/280
f 274/274/274 281/281/281 270/270/270
f 282/282/282 281/281/281 280/280/280
f 281/281/281 282/282/282 270/270/270
f 283/283/283 282/282/282 280/280/280
f 282/282/282 283/283/283 197/197/197
f 282/282/282 284/284/284 270/270/270
f 284/284/284 282/282/282 285/285/285
f 284/284/284 259/259/259 270/270/270
f 259/259/259 284/284/284 285/285/285
f 286/286/286 282/282/282 197/197/197
f 282/282/282 286/286/286 285/285/285
f 194/194/194 286/286/286 197/197/197
f 286/286/286 194/194/194 285/285/285
f 287/287/287 259/259/259 285/285/285
f 259/259/259 287/287/287 237/237/237
f 287/287/287 236/236/236 237/237/237
f 236/236/236 287/287/287 285/285/285
f 194/194/194 288/288/288 285/285/285
f 288/288/288 236/236/236 285/285/285
f 288/288/288 194/194/194 195/195/195
f 236/236/236 288/288/288 195/195/195
f 289/289/289 236/236/236 195/195/195
f 199/199/199 289/289/289 195/195/195
f 236/236/236 289/289/289 216/216/216
f 289/289/289 199/199/199 216/216/216

