mtllib FP412:polySurface118_e5a5bf1e.mtl
g FP412:polySurface118_e5a5bf1e
v 0.49871 0.07551 -2.19673
v 0.49503 0.07919 -2.19673
v 0.49503 0.07551 -2.20041
v 0.41026 0.07551 -2.20041
v 0.49503 0.07551 -2.20041
v 0.49503 0.07919 -2.19673
v 0.41026 0.07919 -2.19673
v 0.40658 0.07551 -2.19673
v 0.41026 0.00925 -2.20041
v 0.41026 0.07551 -2.20041
v 0.40658 0.00925 -2.19673
v 0.41026 0.00557 -2.19673
v 0.41026 0.00557 -1.23066
v 0.40658 0.07551 -1.22992
v 0.40658 0.00925 -1.22992
v 0.42695 0.07551 -1.1807
v 0.42695 0.00925 -1.1807
v 0.49871 0.07551 -2.19673
v 0.49503 0.07919 -1.26745
v 0.49503 0.07919 -2.19673
v 0.49871 0.07551 -1.26819
v 0.49871 0.00925 -1.26819
v 0.51909 0.00925 -1.21896
v 0.51909 0.07551 -1.21896
v 0.49871 0.00925 -2.19673
v 0.49503 0.07551 -2.20041
v 0.49503 0.00925 -2.20041
v 0.41026 0.00557 -2.19673
v 0.49503 0.00557 -2.19673
v 0.49503 0.00925 -2.20041
v 0.41026 0.00925 -2.20041
v 0.40658 0.00925 -1.22992
v 0.42695 0.00925 -1.1807
v 0.43007 0.00557 -1.18279
v 0.41026 0.00557 -1.23066
v 0.41026 0.07919 -1.23066
v 0.43007 0.07919 -1.18279
v 0.42695 0.07551 -1.1807
v 0.40658 0.07551 -1.22992
v 0.41026 0.07919 -2.19673
v 0.40658 0.07551 -2.19673
v 0.41026 0.07551 -2.20041
v 0.49503 0.00557 -1.26745
v 0.51597 0.00557 -1.21688
v 0.51909 0.00925 -1.21896
v 0.49871 0.00925 -1.26819
v 0.49503 0.00557 -2.19673
v 0.49871 0.00925 -2.19673
v 0.49503 0.00925 -2.20041
v 0.49871 0.07551 -1.26819
v 0.51909 0.07551 -1.21896
v 0.51597 0.07919 -1.21688
v 0.49503 0.07919 -1.26745
v 0.41026 0.07551 -2.20041
v 0.41026 0.00925 -2.20041
v 0.49503 0.00925 -2.20041
v 0.49503 0.07551 -2.20041
v 0.43007 0.00557 -1.18279
v 0.51597 0.00557 -1.21688
v 0.49503 0.00557 -1.26745
v 0.41026 0.00557 -1.23066
v 0.41026 0.00557 -2.19673
v 0.49503 0.00557 -2.19673
v 0.41026 0.07919 -1.23066
v 0.51597 0.07919 -1.21688
v 0.43007 0.07919 -1.18279
v 0.49503 0.07919 -1.26745
v 0.49503 0.07919 -2.19673
v 0.41026 0.07919 -2.19673
vn 0.5765516 0.03027734 -0.002196853
vn 0.02349107 0.5768681 -0.002172005
vn 0.02316664 0.0295208 -0.5761294
vn -0.02316664 0.02952081 -0.5761294
vn 0.02316664 0.0295208 -0.5761294
vn 0.02349107 0.5768681 -0.002172005
vn -0.02439726 0.5768305 -0.002168301
vn -0.576553 0.03025815 -0.002110317
vn -0.02316663 -0.02952081 -0.5761294
vn -0.02316664 0.02952081 -0.5761294
vn -0.576553 -0.03025816 -0.002110317
vn -0.02439721 -0.5768305 -0.002168301
vn -0.03425132 -0.576333 0.0006781699
vn -0.576562 0.02785655 0.01155582
vn -0.576562 -0.02785655 0.01155582
vn -0.5328468 0.02741738 0.2205808
vn -0.5328468 -0.02741738 0.2205807
vn 0.5765516 0.03027734 -0.002196853
vn 0.01730732 0.5770907 -0.0003652474
vn 0.02349107 0.5768681 -0.002172005
vn 0.5762788 0.03304098 -0.01201818
vn 0.5762788 -0.03304099 -0.01201817
vn 0.5325602 -0.03330184 -0.2204629
vn 0.5325603 0.0333017 -0.2204629
vn 0.5765516 -0.03027734 -0.002196853
vn 0.02316664 0.0295208 -0.5761294
vn 0.02316663 -0.0295208 -0.5761294
vn -0.02439721 -0.5768305 -0.002168301
vn 0.02349103 -0.5768681 -0.002172005
vn 0.02316663 -0.0295208 -0.5761294
vn -0.02316663 -0.02952081 -0.5761294
vn -0.576562 -0.02785655 0.01155582
vn -0.5328468 -0.02741738 0.2205807
vn -0.02167303 -0.5768735 0.008971928
vn -0.03425132 -0.576333 0.0006781699
vn -0.03425138 0.576333 0.0006781647
vn -0.02167307 0.5768735 0.008971858
vn -0.5328468 0.02741738 0.2205808
vn -0.576562 0.02785655 0.01155582
vn -0.02439726 0.5768305 -0.002168301
vn -0.576553 0.03025815 -0.002110317
vn -0.02316664 0.02952081 -0.5761294
vn 0.01730728 -0.5770907 -0.0003652415
vn 0.01908851 -0.5769805 -0.00790203
vn 0.5325602 -0.03330184 -0.2204629
vn 0.5762788 -0.03304099 -0.01201817
vn 0.02349103 -0.5768681 -0.002172005
vn 0.5765516 -0.03027734 -0.002196853
vn 0.02316663 -0.0295208 -0.5761294
vn 0.5762788 0.03304098 -0.01201818
vn 0.5325603 0.0333017 -0.2204629
vn 0.01908867 0.5769805 -0.007902158
vn 0.01730732 0.5770907 -0.0003652474
vn -0.02316664 0.02952081 -0.5761294
vn -0.02316663 -0.02952081 -0.5761294
vn 0.02316663 -0.0295208 -0.5761294
vn 0.02316664 0.0295208 -0.5761294
vn -0.02167303 -0.5768735 0.008971928
vn 0.01908851 -0.5769805 -0.00790203
vn 0.01730728 -0.5770907 -0.0003652415
vn -0.03425132 -0.576333 0.0006781699
vn -0.02439721 -0.5768305 -0.002168301
vn 0.02349103 -0.5768681 -0.002172005
vn -0.03425138 0.576333 0.0006781647
vn 0.01908867 0.5769805 -0.007902158
vn -0.02167307 0.5768735 0.008971858
vn 0.01730732 0.5770907 -0.0003652474
vn 0.02349107 0.5768681 -0.002172005
vn -0.02439726 0.5768305 -0.002168301
vt 0.4831007 1.79922
vt 0.4793339 1.79922
vt 0.4831006 1.802987
vt 0.4139958 1.749867
vt 0.497478 1.749867
vt 0.497478 1.786049
vt 0.4139958 1.786049
vt 0.4287543 1.803112
vt 0.3609582 1.806878
vt 0.4287543 1.806878
vt 0.3609582 1.803112
vt 0.3571922 1.803112
vt 0.3571922 0.8146667
vt 0.4287543 0.8139181
vt 0.3609582 0.8139181
vt 0.4287543 0.7635561
vt 0.3609582 0.7635561
vt 0.4831007 1.79922
vt 0.4793341 0.8482894
vt 0.4793339 1.79922
vt 0.4831006 0.8490382
vt 0.5509067 0.8490382
vt 0.5509066 0.7986688
vt 0.4831008 0.7986689
vt 0.5509068 1.79922
vt 0.4831006 1.802987
vt 0.5509068 1.802987
vt 0.1984564 -0.7300519
vt 0.2832949 -0.7300519
vt 0.2832949 -0.7337355
vt 0.1984564 -0.7337355
vt 0.3609582 0.8139181
vt 0.3609582 0.7635561
vt 0.3571922 0.7656884
vt 0.3571922 0.8146667
vt 0.4325203 0.8146667
vt 0.4325203 0.7656884
vt 0.4287543 0.7635561
vt 0.4287543 0.8139181
vt 0.4325203 1.803112
vt 0.4287543 1.803112
vt 0.4287543 1.806878
vt 0.5546732 0.8482895
vt 0.5546734 0.7965363
vt 0.5509066 0.7986688
vt 0.5509067 0.8490382
vt 0.5546731 1.79922
vt 0.5509068 1.79922
vt 0.5509068 1.802987
vt 0.4831006 0.8490382
vt 0.4831008 0.7986689
vt 0.479334 0.7965363
vt 0.4793341 0.8482894
vt 0.7692977 0.05757727
vt 0.8355594 0.05757727
vt 0.8355594 -0.02719721
vt 0.7692977 -0.02719721
vt 0.2182879 0.2846571
vt 0.3042468 0.250536
vt 0.2832949 0.1999235
vt 0.1984564 0.2367509
vt 0.1984564 -0.7300519
vt 0.2832949 -0.7300519
vt 0.4139958 0.8347003
vt 0.518095 0.8211358
vt 0.4335103 0.7875601
vt 0.497478 0.8709391
vt 0.497478 1.786049
vt 0.4139958 1.786049
usemtl bathroomTilesTan6
f 3/3/3 2/2/2 1/1/1
f 6/6/6 5/5/5 4/4/4
f 7/7/7 6/6/6 4/4/4
f 10/10/10 9/9/9 8/8/8
f 9/9/9 11/11/11 8/8/8
f 9/9/9 12/12/12 11/11/11
f 12/12/12 13/13/13 11/11/11
f 14/14/14 8/8/8 11/11/11
f 13/13/13 15/15/15 11/11/11
f 15/15/15 14/14/14 11/11/11
f 16/16/16 14/14/14 15/15/15
f 17/17/17 16/16/16 15/15/15
f 20/20/20 19/19/19 18/18/18
f 19/19/19 21/21/21 18/18/18
f 18/18/18 21/21/21 22/22/22
f 22/22/22 21/21/21 23/23/23
f 21/21/21 24/24/24 23/23/23
f 25/25/25 18/18/18 22/22/22
f 18/18/18 25/25/25 26/26/26
f 25/25/25 27/27/27 26/26/26
f 30/30/30 29/29/29 28/28/28
f 31/31/31 30/30/30 28/28/28
f 34/34/34 33/33/33 32/32/32
f 35/35/35 34/34/34 32/32/32
f 38/38/38 37/37/37 36/36/36
f 39/39/39 38/38/38 36/36/36
f 39/39/39 36/36/36 40/40/40
f 41/41/41 39/39/39 40/40/40
f 42/42/42 41/41/41 40/40/40
f 45/45/45 44/44/44 43/43/43
f 46/46/46 45/45/45 43/43/43
f 46/46/46 43/43/43 47/47/47
f 48/48/48 46/46/46 47/47/47
f 49/49/49 48/48/48 47/47/47
f 52/52/52 51/51/51 50/50/50
f 53/53/53 52/52/52 50/50/50
f 56/56/56 55/55/55 54/54/54
f 57/57/57 56/56/56 54/54/54
f 60/60/60 59/59/59 58/58/58
f 61/61/61 60/60/60 58/58/58
f 60/60/60 61/61/61 62/62/62
f 63/63/63 60/60/60 62/62/62
f 66/66/66 65/65/65 64/64/64
f 65/65/65 67/67/67 64/64/64
f 67/67/67 68/68/68 64/64/64
f 68/68/68 69/69/69 64/64/64
g FP412:polySurface118_e5a5bf1e
v 0.49871 0.07551 -2.19673
v 0.49503 0.07919 -2.19673
v 0.49503 0.07551 -2.20041
v 0.41026 0.07551 -2.20041
v 0.49503 0.07551 -2.20041
v 0.49503 0.07919 -2.19673
v 0.41026 0.07919 -2.19673
v 0.40658 0.07551 -2.19673
v 0.41026 0.00925 -2.20041
v 0.41026 0.07551 -2.20041
v 0.40658 0.00925 -2.19673
v 0.41026 0.00557 -2.19673
v 0.41026 0.00557 -1.23066
v 0.40658 0.07551 -1.22992
v 0.40658 0.00925 -1.22992
v 0.42695 0.07551 -1.1807
v 0.42695 0.00925 -1.1807
v 0.49871 0.07551 -2.19673
v 0.49503 0.07919 -1.26745
v 0.49503 0.07919 -2.19673
v 0.49871 0.07551 -1.26819
v 0.49871 0.00925 -1.26819
v 0.51909 0.00925 -1.21896
v 0.51909 0.07551 -1.21896
v 0.49871 0.00925 -2.19673
v 0.49503 0.07551 -2.20041
v 0.49503 0.00925 -2.20041
v 0.41026 0.00557 -2.19673
v 0.49503 0.00557 -2.19673
v 0.49503 0.00925 -2.20041
v 0.41026 0.00925 -2.20041
v 0.40658 0.00925 -1.22992
v 0.42695 0.00925 -1.1807
v 0.43007 0.00557 -1.18279
v 0.41026 0.00557 -1.23066
v 0.41026 0.07919 -1.23066
v 0.43007 0.07919 -1.18279
v 0.42695 0.07551 -1.1807
v 0.40658 0.07551 -1.22992
v 0.41026 0.07919 -2.19673
v 0.40658 0.07551 -2.19673
v 0.41026 0.07551 -2.20041
v 0.49503 0.00557 -1.26745
v 0.51597 0.00557 -1.21688
v 0.51909 0.00925 -1.21896
v 0.49871 0.00925 -1.26819
v 0.49503 0.00557 -2.19673
v 0.49871 0.00925 -2.19673
v 0.49503 0.00925 -2.20041
v 0.49871 0.07551 -1.26819
v 0.51909 0.07551 -1.21896
v 0.51597 0.07919 -1.21688
v 0.49503 0.07919 -1.26745
v 0.41026 0.07551 -2.20041
v 0.41026 0.00925 -2.20041
v 0.49503 0.00925 -2.20041
v 0.49503 0.07551 -2.20041
v 0.43007 0.00557 -1.18279
v 0.51597 0.00557 -1.21688
v 0.49503 0.00557 -1.26745
v 0.41026 0.00557 -1.23066
v 0.41026 0.00557 -2.19673
v 0.49503 0.00557 -2.19673
v 0.41026 0.07919 -1.23066
v 0.51597 0.07919 -1.21688
v 0.43007 0.07919 -1.18279
v 0.49503 0.07919 -1.26745
v 0.49503 0.07919 -2.19673
v 0.41026 0.07919 -2.19673
vn 0.5765516 0.03027734 -0.002196853
vn 0.02349107 0.5768681 -0.002172005
vn 0.02316664 0.0295208 -0.5761294
vn -0.02316664 0.02952081 -0.5761294
vn 0.02316664 0.0295208 -0.5761294
vn 0.02349107 0.5768681 -0.002172005
vn -0.02439726 0.5768305 -0.002168301
vn -0.576553 0.03025815 -0.002110317
vn -0.02316663 -0.02952081 -0.5761294
vn -0.02316664 0.02952081 -0.5761294
vn -0.576553 -0.03025816 -0.002110317
vn -0.02439721 -0.5768305 -0.002168301
vn -0.03425132 -0.576333 0.0006781699
vn -0.576562 0.02785655 0.01155582
vn -0.576562 -0.02785655 0.01155582
vn -0.5328468 0.02741738 0.2205808
vn -0.5328468 -0.02741738 0.2205807
vn 0.5765516 0.03027734 -0.002196853
vn 0.01730732 0.5770907 -0.0003652474
vn 0.02349107 0.5768681 -0.002172005
vn 0.5762788 0.03304098 -0.01201818
vn 0.5762788 -0.03304099 -0.01201817
vn 0.5325602 -0.03330184 -0.2204629
vn 0.5325603 0.0333017 -0.2204629
vn 0.5765516 -0.03027734 -0.002196853
vn 0.02316664 0.0295208 -0.5761294
vn 0.02316663 -0.0295208 -0.5761294
vn -0.02439721 -0.5768305 -0.002168301
vn 0.02349103 -0.5768681 -0.002172005
vn 0.02316663 -0.0295208 -0.5761294
vn -0.02316663 -0.02952081 -0.5761294
vn -0.576562 -0.02785655 0.01155582
vn -0.5328468 -0.02741738 0.2205807
vn -0.02167303 -0.5768735 0.008971928
vn -0.03425132 -0.576333 0.0006781699
vn -0.03425138 0.576333 0.0006781647
vn -0.02167307 0.5768735 0.008971858
vn -0.5328468 0.02741738 0.2205808
vn -0.576562 0.02785655 0.01155582
vn -0.02439726 0.5768305 -0.002168301
vn -0.576553 0.03025815 -0.002110317
vn -0.02316664 0.02952081 -0.5761294
vn 0.01730728 -0.5770907 -0.0003652415
vn 0.01908851 -0.5769805 -0.00790203
vn 0.5325602 -0.03330184 -0.2204629
vn 0.5762788 -0.03304099 -0.01201817
vn 0.02349103 -0.5768681 -0.002172005
vn 0.5765516 -0.03027734 -0.002196853
vn 0.02316663 -0.0295208 -0.5761294
vn 0.5762788 0.03304098 -0.01201818
vn 0.5325603 0.0333017 -0.2204629
vn 0.01908867 0.5769805 -0.007902158
vn 0.01730732 0.5770907 -0.0003652474
vn -0.02316664 0.02952081 -0.5761294
vn -0.02316663 -0.02952081 -0.5761294
vn 0.02316663 -0.0295208 -0.5761294
vn 0.02316664 0.0295208 -0.5761294
vn -0.02167303 -0.5768735 0.008971928
vn 0.01908851 -0.5769805 -0.00790203
vn 0.01730728 -0.5770907 -0.0003652415
vn -0.03425132 -0.576333 0.0006781699
vn -0.02439721 -0.5768305 -0.002168301
vn 0.02349103 -0.5768681 -0.002172005
vn -0.03425138 0.576333 0.0006781647
vn 0.01908867 0.5769805 -0.007902158
vn -0.02167307 0.5768735 0.008971858
vn 0.01730732 0.5770907 -0.0003652474
vn 0.02349107 0.5768681 -0.002172005
vn -0.02439726 0.5768305 -0.002168301
vt 0.4831007 1.79922
vt 0.4793339 1.79922
vt 0.4831006 1.802987
vt 0.4139958 1.749867
vt 0.497478 1.749867
vt 0.497478 1.786049
vt 0.4139958 1.786049
vt 0.4287543 1.803112
vt 0.3609582 1.806878
vt 0.4287543 1.806878
vt 0.3609582 1.803112
vt 0.3571922 1.803112
vt 0.3571922 0.8146667
vt 0.4287543 0.8139181
vt 0.3609582 0.8139181
vt 0.4287543 0.7635561
vt 0.3609582 0.7635561
vt 0.4831007 1.79922
vt 0.4793341 0.8482894
vt 0.4793339 1.79922
vt 0.4831006 0.8490382
vt 0.5509067 0.8490382
vt 0.5509066 0.7986688
vt 0.4831008 0.7986689
vt 0.5509068 1.79922
vt 0.4831006 1.802987
vt 0.5509068 1.802987
vt 0.1984564 -0.7300519
vt 0.2832949 -0.7300519
vt 0.2832949 -0.7337355
vt 0.1984564 -0.7337355
vt 0.3609582 0.8139181
vt 0.3609582 0.7635561
vt 0.3571922 0.7656884
vt 0.3571922 0.8146667
vt 0.4325203 0.8146667
vt 0.4325203 0.7656884
vt 0.4287543 0.7635561
vt 0.4287543 0.8139181
vt 0.4325203 1.803112
vt 0.4287543 1.803112
vt 0.4287543 1.806878
vt 0.5546732 0.8482895
vt 0.5546734 0.7965363
vt 0.5509066 0.7986688
vt 0.5509067 0.8490382
vt 0.5546731 1.79922
vt 0.5509068 1.79922
vt 0.5509068 1.802987
vt 0.4831006 0.8490382
vt 0.4831008 0.7986689
vt 0.479334 0.7965363
vt 0.4793341 0.8482894
vt 0.7692977 0.05757727
vt 0.8355594 0.05757727
vt 0.8355594 -0.02719721
vt 0.7692977 -0.02719721
vt 0.2182879 0.2846571
vt 0.3042468 0.250536
vt 0.2832949 0.1999235
vt 0.1984564 0.2367509
vt 0.1984564 -0.7300519
vt 0.2832949 -0.7300519
vt 0.4139958 0.8347003
vt 0.518095 0.8211358
vt 0.4335103 0.7875601
vt 0.497478 0.8709391
vt 0.497478 1.786049
vt 0.4139958 1.786049
usemtl bathroomTilesTan6
f 72/72/72 71/71/71 70/70/70
f 75/75/75 74/74/74 73/73/73
f 76/76/76 75/75/75 73/73/73
f 79/79/79 78/78/78 77/77/77
f 78/78/78 80/80/80 77/77/77
f 78/78/78 81/81/81 80/80/80
f 81/81/81 82/82/82 80/80/80
f 83/83/83 77/77/77 80/80/80
f 82/82/82 84/84/84 80/80/80
f 84/84/84 83/83/83 80/80/80
f 85/85/85 83/83/83 84/84/84
f 86/86/86 85/85/85 84/84/84
f 89/89/89 88/88/88 87/87/87
f 88/88/88 90/90/90 87/87/87
f 87/87/87 90/90/90 91/91/91
f 91/91/91 90/90/90 92/92/92
f 90/90/90 93/93/93 92/92/92
f 94/94/94 87/87/87 91/91/91
f 87/87/87 94/94/94 95/95/95
f 94/94/94 96/96/96 95/95/95
f 99/99/99 98/98/98 97/97/97
f 100/100/100 99/99/99 97/97/97
f 103/103/103 102/102/102 101/101/101
f 104/104/104 103/103/103 101/101/101
f 107/107/107 106/106/106 105/105/105
f 108/108/108 107/107/107 105/105/105
f 108/108/108 105/105/105 109/109/109
f 110/110/110 108/108/108 109/109/109
f 111/111/111 110/110/110 109/109/109
f 114/114/114 113/113/113 112/112/112
f 115/115/115 114/114/114 112/112/112
f 115/115/115 112/112/112 116/116/116
f 117/117/117 115/115/115 116/116/116
f 118/118/118 117/117/117 116/116/116
f 121/121/121 120/120/120 119/119/119
f 122/122/122 121/121/121 119/119/119
f 125/125/125 124/124/124 123/123/123
f 126/126/126 125/125/125 123/123/123
f 129/129/129 128/128/128 127/127/127
f 130/130/130 129/129/129 127/127/127
f 129/129/129 130/130/130 131/131/131
f 132/132/132 129/129/129 131/131/131
f 135/135/135 134/134/134 133/133/133
f 134/134/134 136/136/136 133/133/133
f 136/136/136 137/137/137 133/133/133
f 137/137/137 138/138/138 133/133/133
