mtllib material.mtl
usemtl material_0
v -0.00500005 0.01000015 0.00500015
v -0.00500005 0.01000015 -0.00500000
v 0.00500001 0.01000015 -0.00500000
v 0.00500001 0.01000015 0.00500015
v 0.10056220 0.22654550 0.16623530
v 0.09462753 0.23654280 0.16377680
v 0.09318908 0.23654280 0.17100800
v 0.09961281 0.22654550 0.17100800
v 0.09462753 0.23654280 0.17823940
v 0.10056220 0.22654550 0.17578130
v 0.09872375 0.23654280 0.18436980
v 0.10326590 0.22654550 0.17982760
v 0.10326600 0.22654550 0.16218840
v 0.09872375 0.23654280 0.15764680
v 0.11685850 0.22654550 0.18253080
v 0.12544710 0.23654280 0.18436980
v 0.12090480 0.22654550 0.17982760
v 0.08554642 0.37151040 0.13245940
v 0.08554642 0.36669070 0.13151760
v 0.09047928 0.36708260 0.12951220
v 0.09047928 0.37191410 0.13045620
v 0.09101425 0.37614550 0.13261230
v 0.08665146 0.37573640 0.13441130
v 0.09182159 0.37917520 0.13521120
v 0.08813187 0.37747360 0.13625900
v 0.08677719 0.37028780 0.18069310
v 0.08813187 0.36813820 0.18403300
v 0.08665146 0.36583330 0.18509080
v 0.14029300 0.37820780 0.14016230
v 0.13893830 0.37747360 0.13625900
v 0.14041840 0.37573640 0.13441130
v 0.14041840 0.37573640 0.13441130
v 0.13893830 0.37747360 0.13625900
v 0.13524790 0.37917520 0.13521120
v 0.10485410 0.23654280 0.18846590
v 0.10485410 0.25281640 0.18846590
v 0.11208540 0.25281640 0.18990450
v 0.11208540 0.23654280 0.18990450
v 0.11931670 0.25281640 0.18846590
v 0.11931670 0.23654280 0.18846590
v 0.09872375 0.23654280 0.18436980
v 0.09872375 0.25281640 0.18436980
v 0.10485410 0.25281640 0.18846590
v 0.10485410 0.23654280 0.18846590
v 0.09462753 0.23654280 0.17823940
v 0.09462753 0.25281640 0.17823940
v 0.09318908 0.23654280 0.17100800
v 0.09318908 0.25281640 0.17100800
v 0.09462753 0.23654280 0.16377680
v 0.09462753 0.25281640 0.16377680
v 0.09872375 0.23654280 0.15764680
v 0.09872375 0.25281640 0.15764680
v 0.10485410 0.23654280 0.15355010
v 0.10485410 0.25281640 0.15355010
v 0.11208540 0.23654280 0.15211210
v 0.11208540 0.25281640 0.15211210
v 0.10485410 0.25281640 0.15355010
v 0.10485410 0.23654280 0.15355010
v 0.11931670 0.23654280 0.15355070
v 0.11931670 0.25281640 0.15355070
v 0.12544710 0.23654280 0.15764680
v 0.11931670 0.25281640 0.15355070
v 0.11931670 0.23654280 0.15355070
v 0.12544710 0.25281640 0.15764680
v 0.12954330 0.23654280 0.16377680
v 0.12954330 0.25281640 0.16377680
v 0.13098170 0.23654280 0.17100800
v 0.13098170 0.25281640 0.17100800
v 0.12954330 0.23654280 0.17823940
v 0.12954330 0.25281640 0.17823940
v 0.12544710 0.23654280 0.18436980
v 0.12544710 0.25281640 0.18436980
v 0.11931670 0.23654280 0.18846590
v 0.11931670 0.25281640 0.18846590
v 0.10326590 0.22654550 0.17982760
v 0.09872375 0.23654280 0.18436980
v 0.10485410 0.23654280 0.18846590
v 0.10731230 0.22654550 0.18253080
v 0.11208540 0.23654280 0.18990450
v 0.11208540 0.22654550 0.18348080
v 0.11931670 0.23654280 0.18846590
v 0.10731230 0.22654550 0.15948490
v 0.09872375 0.23654280 0.15764680
v 0.10326600 0.22654550 0.16218840
v 0.10485410 0.23654280 0.15355010
v 0.11208540 0.22654550 0.15853610
v 0.11208540 0.23654280 0.15211210
v 0.11685850 0.22654550 0.15948490
v 0.11931670 0.23654280 0.15355070
v 0.12090480 0.22654550 0.16218840
v 0.12544710 0.23654280 0.15764680
v 0.12360860 0.22654550 0.16623530
v 0.12544710 0.23654280 0.15764680
v 0.12090480 0.22654550 0.16218840
v 0.12954330 0.23654280 0.16377680
v 0.12455800 0.22654550 0.17100800
v 0.13098170 0.23654280 0.17100800
v 0.12360860 0.22654550 0.17578130
v 0.12954330 0.23654280 0.17823940
v 0.12090480 0.22654550 0.17982760
v 0.12544710 0.23654280 0.18436980
v 0.12047580 0.21580400 0.16753300
v 0.12116720 0.21580400 0.17100800
v 0.12455800 0.22010020 0.17100800
v 0.12360860 0.22010020 0.16623530
v 0.11850710 0.21580400 0.16458650
v 0.12090480 0.22010020 0.16218840
v 0.12090480 0.22010020 0.16218840
v 0.11685850 0.22010020 0.15948490
v 0.11556080 0.21580400 0.16261780
v 0.11850710 0.21580400 0.16458650
v 0.11208540 0.21580400 0.16192630
v 0.11208540 0.22010020 0.15853610
v 0.10861000 0.21580400 0.16261780
v 0.10731230 0.22010020 0.15948490
v 0.10566370 0.21580400 0.16458650
v 0.10326600 0.22010020 0.16218840
v 0.10326600 0.22010020 0.16218840
v 0.10369500 0.21580400 0.16753300
v 0.10566370 0.21580400 0.16458650
v 0.10056220 0.22010020 0.16623530
v 0.10300370 0.21580400 0.17100800
v 0.09961281 0.22010020 0.17100800
v 0.10369500 0.21580400 0.17448390
v 0.10056220 0.22010020 0.17578130
v 0.10566360 0.21580400 0.17743010
v 0.10326590 0.22010020 0.17982760
v 0.10326590 0.22010020 0.17982760
v 0.10861000 0.21580400 0.17939910
v 0.10566360 0.21580400 0.17743010
v 0.10731230 0.22010020 0.18253080
v 0.11208540 0.21580400 0.18009000
v 0.11208540 0.22010020 0.18348080
v 0.11556080 0.21580400 0.17939910
v 0.11685850 0.22010020 0.18253080
v 0.11850710 0.21580400 0.17743010
v 0.12090480 0.22010020 0.17982760
v 0.12090480 0.22010020 0.17982760
v 0.12047580 0.21580400 0.17448390
v 0.11850710 0.21580400 0.17743010
v 0.12360860 0.22010020 0.17578130
v 0.12090480 0.22010020 0.16218840
v 0.11685850 0.22654550 0.15948490
v 0.11685850 0.22010020 0.15948490
v 0.12090480 0.22654550 0.16218840
v 0.12360860 0.22010020 0.16623530
v 0.12360860 0.22654550 0.16623530
v 0.12455800 0.22010020 0.17100800
v 0.12455800 0.22654550 0.17100800
v 0.11685850 0.22010020 0.15948490
v 0.11685850 0.22654550 0.15948490
v 0.11208540 0.22654550 0.15853610
v 0.11208540 0.22010020 0.15853610
v 0.10731230 0.22654550 0.15948490
v 0.10731230 0.22010020 0.15948490
v 0.10731230 0.22010020 0.15948490
v 0.10731230 0.22654550 0.15948490
v 0.10326600 0.22654550 0.16218840
v 0.10326600 0.22010020 0.16218840
v 0.10056220 0.22654550 0.16623530
v 0.10056220 0.22010020 0.16623530
v 0.09961281 0.22654550 0.17100800
v 0.09961281 0.22010020 0.17100800
v 0.10056220 0.22654550 0.17578130
v 0.10056220 0.22010020 0.17578130
v 0.10326590 0.22654550 0.17982760
v 0.10326590 0.22010020 0.17982760
v 0.10731230 0.22654550 0.18253080
v 0.10731230 0.22010020 0.18253080
v 0.10731230 0.22010020 0.18253080
v 0.10731230 0.22654550 0.18253080
v 0.11208540 0.22654550 0.18348080
v 0.11208540 0.22010020 0.18348080
v 0.11685850 0.22654550 0.18253080
v 0.11685850 0.22010020 0.18253080
v 0.11685850 0.22010020 0.18253080
v 0.11685850 0.22654550 0.18253080
v 0.12090480 0.22654550 0.17982760
v 0.12090480 0.22010020 0.17982760
v 0.12360860 0.22654550 0.17578130
v 0.12360860 0.22010020 0.17578130
v 0.15923060 0.29222780 0.24140780
v 0.15952100 0.28497610 0.24263850
v 0.13580310 0.28497610 0.24798160
v 0.13565800 0.29211870 0.24675810
v 0.11208540 0.28497610 0.25049590
v 0.11208540 0.29200960 0.24927950
v 0.08851273 0.29211870 0.24675810
v 0.08836761 0.28497610 0.24798160
v 0.06494018 0.29222780 0.24140780
v 0.06464981 0.28497610 0.24263850
v 0.21026040 0.30049570 0.16785190
v 0.21141260 0.33235510 0.01726379
v 0.21240890 0.28835900 0.01726379
v 0.21106350 0.28497610 0.16393460
v 0.20866420 0.29567000 0.19226960
v 0.20947230 0.28497610 0.18974330
v 0.19542500 0.29339070 0.21068510
v 0.19464830 0.28497610 0.21106350
v 0.17937970 0.29280140 0.22797030
v 0.17912720 0.28497610 0.22877230
v 0.20250250 0.30046420 0.16643800
v 0.20355290 0.33201970 0.01726379
v 0.21141260 0.33235510 0.01726379
v 0.21026040 0.30049570 0.16785190
v 0.19812670 0.29581140 0.18846770
v 0.20866420 0.29567000 0.19226960
v 0.18707290 0.29357970 0.20313200
v 0.19542500 0.29339070 0.21068510
v 0.17308580 0.29260200 0.21501800
v 0.17937970 0.29280140 0.22797030
v 0.15523940 0.29188380 0.22565890
v 0.15923060 0.29222780 0.24140780
v 0.13366240 0.29170100 0.23056270
v 0.13565800 0.29211870 0.24675810
v 0.11208540 0.29151820 0.23263730
v 0.11208540 0.29200960 0.24927950
v 0.08851273 0.29211870 0.24675810
v 0.09050834 0.29170100 0.23056270
v 0.06494018 0.29222780 0.24140780
v 0.06893127 0.29188380 0.22565890
v 0.04479095 0.29280140 0.22797030
v 0.05108490 0.29260200 0.21501800
v 0.02874573 0.29339070 0.21068510
v 0.03709786 0.29357970 0.20313200
v 0.01550644 0.29567000 0.19226960
v 0.02604401 0.29581140 0.18846770
v 0.01391029 0.30049570 0.16785190
v 0.02166824 0.30046420 0.16643800
v 0.01275818 0.33235510 0.01726379
v 0.02061783 0.33201970 0.01726379
v 0.20355290 0.33201970 0.01726379
v 0.20458310 0.28835900 0.01726379
v 0.21240890 0.28835900 0.01726379
v 0.21141260 0.33235510 0.01726379
v 0.20458310 0.28835900 0.01726379
v 0.21106350 0.28497610 0.16393460
v 0.21240890 0.28835900 0.01726379
v 0.20333290 0.28497610 0.16252100
v 0.20947230 0.28497610 0.18974330
v 0.19893460 0.28497610 0.18594150
v 0.19464830 0.28497610 0.21106350
v 0.18634600 0.28497610 0.20354770
v 0.17912720 0.28497610 0.22877230
v 0.17284390 0.28497610 0.21582860
v 0.15952100 0.28497610 0.24263850
v 0.15552980 0.28497610 0.22689000
v 0.13580310 0.28497610 0.24798160
v 0.13380760 0.28497610 0.23178680
v 0.11208540 0.28497610 0.25049590
v 0.11208540 0.28497610 0.23385470
v 0.08836761 0.28497610 0.24798160
v 0.09036316 0.28497610 0.23178680
v 0.06864090 0.28497610 0.22689000
v 0.06464981 0.28497610 0.24263850
v 0.05132675 0.28497610 0.21582860
v 0.04504349 0.28497610 0.22877230
v 0.03782471 0.28497610 0.20354770
v 0.02952247 0.28497610 0.21106350
v 0.02523605 0.28497610 0.18594150
v 0.01469849 0.28497610 0.18974330
v 0.02083778 0.28497610 0.16252100
v 0.01310715 0.28497610 0.16393460
v 0.01958763 0.28835900 0.01726379
v 0.01176178 0.28835900 0.01726379
v 0.13380760 0.28497610 0.23178680
v 0.15552980 0.28497610 0.22689000
v 0.15523940 0.29188380 0.22565890
v 0.13366240 0.29170100 0.23056270
v 0.11208540 0.28497610 0.23385470
v 0.20333290 0.28497610 0.16252100
v 0.20458310 0.28835900 0.01726379
v 0.20355290 0.33201970 0.01726379
v 0.20250250 0.30046420 0.16643800
v 0.19893460 0.28497610 0.18594150
v 0.19812670 0.29581140 0.18846770
v 0.18634600 0.28497610 0.20354770
v 0.18707290 0.29357970 0.20313200
v 0.17284390 0.28497610 0.21582860
v 0.17308580 0.29260200 0.21501800
v 0.15552980 0.28497610 0.22689000
v 0.15523940 0.29188380 0.22565890
v 0.15952100 0.28497610 0.24263850
v 0.15923060 0.29222780 0.24140780
v 0.01310715 0.28497610 0.16393460
v 0.01550644 0.29567000 0.19226960
v 0.01469849 0.28497610 0.18974330
v 0.01391029 0.30049570 0.16785190
v 0.01176178 0.28835900 0.01726379
v 0.01275818 0.33235510 0.01726379
v 0.02061783 0.33201970 0.01726379
v 0.01275818 0.33235510 0.01726379
v 0.01176178 0.28835900 0.01726379
v 0.01958763 0.28835900 0.01726379
v 0.09036316 0.28497610 0.23178680
v 0.06893127 0.29188380 0.22565890
v 0.06864090 0.28497610 0.22689000
v 0.09050834 0.29170100 0.23056270
v 0.11208540 0.29151820 0.23263730
v 0.02083778 0.28497610 0.16252100
v 0.02061783 0.33201970 0.01726379
v 0.01958763 0.28835900 0.01726379
v 0.02166824 0.30046420 0.16643800
v 0.02523605 0.28497610 0.18594150
v 0.02604401 0.29581140 0.18846770
v 0.03782471 0.28497610 0.20354770
v 0.03709786 0.29357970 0.20313200
v 0.05132675 0.28497610 0.21582860
v 0.05108490 0.29260200 0.21501800
v 0.06864090 0.28497610 0.22689000
v 0.06893127 0.29188380 0.22565890
v 0.02874573 0.29339070 0.21068510
v 0.02952247 0.28497610 0.21106350
v 0.04479095 0.29280140 0.22797030
v 0.04504349 0.28497610 0.22877230
v 0.06494018 0.29222780 0.24140780
v 0.06464981 0.28497610 0.24263850
v 0.13730190 0.36759240 0.18225970
v 0.13792790 0.36863600 0.18312000
v 0.13492860 0.36984530 0.18427730
v 0.13447050 0.36863520 0.18306820
v 0.09214126 0.36984530 0.18427730
v 0.09259933 0.36863520 0.18306820
v 0.08976761 0.36759240 0.18225950
v 0.08914246 0.36863620 0.18312010
v 0.08813187 0.36813820 0.18403300
v 0.08823852 0.37059430 0.18044680
v 0.08917435 0.36929190 0.17970630
v 0.08823852 0.37839900 0.14050590
v 0.08917435 0.37691380 0.14070180
v 0.08976761 0.37630030 0.13769650
v 0.08914246 0.37759130 0.13729220
v 0.13730190 0.37630030 0.13769640
v 0.13792790 0.37759120 0.13729210
v 0.13883210 0.37839830 0.14050570
v 0.13789550 0.37691390 0.14070170
v 0.13883210 0.37059350 0.18044670
v 0.13789550 0.36929210 0.17970630
v 0.09214126 0.37914710 0.13667520
v 0.09259933 0.37757080 0.13733990
v 0.13492860 0.37914710 0.13667520
v 0.13447050 0.37757080 0.13733990
v 0.08677719 0.37820780 0.14016230
v 0.08677719 0.37028780 0.18069310
v 0.08813187 0.37747360 0.13625900
v 0.13524790 0.37917520 0.13521120
v 0.09182159 0.37917520 0.13521120
v 0.13893830 0.37747360 0.13625900
v 0.14029300 0.37820780 0.14016230
v 0.14029300 0.37028780 0.18069310
v 0.13893830 0.36813820 0.18403300
v 0.09182159 0.36932030 0.18564420
v 0.13524790 0.36932030 0.18564420
v 0.14041840 0.36583330 0.18509080
v 0.14356720 0.36214120 0.18046910
v 0.14152360 0.36118340 0.18530820
v 0.14226260 0.36672540 0.18081990
v 0.14029300 0.37028780 0.18069310
v 0.13893830 0.36813820 0.18403300
v 0.08554642 0.36118340 0.18530820
v 0.08554642 0.35636360 0.18436640
v 0.08350281 0.35730970 0.17952490
v 0.08350281 0.36214120 0.18046910
v 0.08480728 0.36672510 0.18081990
v 0.08677719 0.37820780 0.14016230
v 0.08350281 0.37057610 0.13730320
v 0.08350281 0.36574460 0.13635910
v 0.08554642 0.36669070 0.13151760
v 0.08554642 0.37151040 0.13245940
v 0.08665146 0.37573640 0.13441130
v 0.08813187 0.37747360 0.13625900
v 0.08480728 0.37495490 0.13870380
v 0.14152360 0.35636360 0.18436640
v 0.14356720 0.35730970 0.17952490
v 0.14356720 0.36574460 0.13635910
v 0.14356720 0.37057610 0.13730320
v 0.14152360 0.37151040 0.13245940
v 0.14152360 0.36669070 0.13151760
v 0.14226260 0.37495520 0.13870390
v 0.14152360 0.36118340 0.18530820
v 0.14152360 0.35636360 0.18436640
v 0.13659060 0.35597180 0.18637180
v 0.13659060 0.36080320 0.18731600
v 0.09047928 0.35597180 0.18637180
v 0.13605560 0.36553510 0.18691150
v 0.14041840 0.36583330 0.18509080
v 0.09047928 0.36080320 0.18731600
v 0.08554642 0.35636360 0.18436640
v 0.08554642 0.36118340 0.18530820
v 0.08665146 0.36583330 0.18509080
v 0.09101425 0.36553510 0.18691150
v 0.09182159 0.36932030 0.18564420
v 0.08813187 0.36813820 0.18403300
v 0.13524790 0.36932030 0.18564420
v 0.13893830 0.36813820 0.18403300
v 0.13659060 0.36708260 0.12951220
v 0.13659060 0.37191410 0.13045620
v 0.14152360 0.36669070 0.13151760
v 0.14152360 0.37151040 0.13245940
v 0.13605560 0.37614550 0.13261230
v -0.15746280 0.23153680 0.12237270
v -0.16084280 0.23375680 0.12828130
v -0.16084280 0.23375680 0.12237270
v -0.15746280 0.23153680 0.12828130
v -0.15520430 0.22821440 0.12237270
v -0.15520430 0.22821440 0.12828130
v -0.15441130 0.22429540 0.12237270
v -0.15441130 0.22429540 0.12828130
v -0.16084280 0.23375680 0.12237270
v -0.16084280 0.23375680 0.12828130
v -0.16482990 0.23453630 0.12828130
v -0.16482990 0.23453630 0.12237270
v -0.16881680 0.23375680 0.12828130
v -0.16881680 0.23375680 0.12237270
v -0.16881680 0.23375680 0.12237270
v -0.16881680 0.23375680 0.12828130
v -0.17219690 0.23153680 0.12828130
v -0.17219690 0.23153680 0.12237270
v -0.17445540 0.22821440 0.12828130
v -0.17445540 0.22821440 0.12237270
v -0.17524840 0.22429540 0.12828130
v -0.17524840 0.22429540 0.12237270
v -0.17445540 0.22037640 0.12828130
v -0.17445540 0.22037640 0.12237270
v -0.17219690 0.21705400 0.12828130
v -0.17219690 0.21705400 0.12237270
v -0.16881680 0.21483410 0.12828130
v -0.16881680 0.21483410 0.12237270
v -0.16881680 0.21483410 0.12237270
v -0.16881680 0.21483410 0.12828130
v -0.16482990 0.21405450 0.12828130
v -0.16482990 0.21405450 0.12237270
v -0.16084280 0.21483410 0.12828130
v -0.16084280 0.21483410 0.12237270
v -0.16084280 0.21483410 0.12237270
v -0.16084280 0.21483410 0.12828130
v -0.15746280 0.21705400 0.12828130
v -0.15746280 0.21705400 0.12237270
v -0.15520430 0.22037640 0.12828130
v -0.15520430 0.22037640 0.12237270
v -0.16148840 0.22757990 0.12828130
v -0.16302150 0.22858680 0.12728270
v -0.16302150 0.22858680 0.12828130
v -0.16148840 0.22757990 0.12728270
v -0.16046400 0.22607300 0.12828130
v -0.16046400 0.22607300 0.12728270
v -0.16010430 0.22429540 0.12828130
v -0.16010430 0.22429540 0.12728270
v -0.16046400 0.22251790 0.12828130
v -0.16046400 0.22251790 0.12728270
v -0.16302150 0.22858680 0.12828130
v -0.16302150 0.22858680 0.12728270
v -0.16482990 0.22894040 0.12728270
v -0.16482990 0.22894040 0.12828130
v -0.16663830 0.22858680 0.12728270
v -0.16663830 0.22858680 0.12828130
v -0.16663830 0.22858680 0.12828130
v -0.16663830 0.22858680 0.12728270
v -0.16817130 0.22757990 0.12728270
v -0.16817130 0.22757990 0.12828130
v -0.16919570 0.22607300 0.12728270
v -0.16919570 0.22607300 0.12828130
v -0.16955540 0.22429540 0.12728270
v -0.16955540 0.22429540 0.12828130
v -0.16919570 0.22251790 0.12728270
v -0.16919570 0.22251790 0.12828130
v -0.16817130 0.22101100 0.12728270
v -0.16817130 0.22101100 0.12828130
v -0.16663830 0.22000410 0.12728270
v -0.16663830 0.22000410 0.12828130
v -0.16663830 0.22000410 0.12828130
v -0.16663830 0.22000410 0.12728270
v -0.16482990 0.21965050 0.12728270
v -0.16482990 0.21965050 0.12828130
v -0.16302150 0.22000410 0.12728270
v -0.16302150 0.22000410 0.12828130
v -0.16302150 0.22000410 0.12828130
v -0.16302150 0.22000410 0.12728270
v -0.16148840 0.22101100 0.12728270
v -0.16148840 0.22101100 0.12828130
v -0.16482990 0.22429540 0.12728270
v -0.16302150 0.22858680 0.12728270
v -0.16148840 0.22757990 0.12728270
v -0.16482990 0.22894040 0.12728270
v -0.16046400 0.22607300 0.12728270
v -0.16663830 0.22858680 0.12728270
v -0.16010430 0.22429540 0.12728270
v -0.16817130 0.22757990 0.12728270
v -0.16046400 0.22251790 0.12728270
v -0.16919570 0.22607300 0.12728270
v -0.16148840 0.22101100 0.12728270
v -0.16955540 0.22429540 0.12728270
v -0.16302150 0.22000410 0.12728270
v -0.16919570 0.22251790 0.12728270
v -0.16482990 0.21965050 0.12728270
v -0.16817130 0.22101100 0.12728270
v -0.16663830 0.22000410 0.12728270
v 0.11556080 0.21580400 0.16261780
v 0.11208540 0.21580400 0.16192630
v 0.11208540 0.21580400 0.17100800
v 0.11850710 0.21580400 0.16458650
v 0.10861000 0.21580400 0.16261780
v 0.12047580 0.21580400 0.16753300
v 0.10566370 0.21580400 0.16458650
v 0.12116720 0.21580400 0.17100800
v 0.10369500 0.21580400 0.16753300
v 0.12047580 0.21580400 0.17448390
v 0.10300370 0.21580400 0.17100800
v 0.11850710 0.21580400 0.17743010
v 0.10369500 0.21580400 0.17448390
v 0.11556080 0.21580400 0.17939910
v 0.10566360 0.21580400 0.17743010
v 0.11208540 0.21580400 0.18009000
v 0.10861000 0.21580400 0.17939910
v -0.15746280 0.23153680 0.12828130
v -0.16148840 0.22757990 0.12828130
v -0.16302150 0.22858680 0.12828130
v -0.16084280 0.23375680 0.12828130
v -0.15520430 0.22821440 0.12828130
v -0.16482990 0.22894040 0.12828130
v -0.16046400 0.22607300 0.12828130
v -0.16482990 0.23453630 0.12828130
v -0.15441130 0.22429540 0.12828130
v -0.16663830 0.22858680 0.12828130
v -0.16010430 0.22429540 0.12828130
v -0.16881680 0.23375680 0.12828130
v -0.15520430 0.22037640 0.12828130
v -0.16817130 0.22757990 0.12828130
v -0.16046400 0.22251790 0.12828130
v -0.17219690 0.23153680 0.12828130
v -0.15746280 0.21705400 0.12828130
v -0.16919570 0.22607300 0.12828130
v -0.16148840 0.22101100 0.12828130
v -0.17445540 0.22821440 0.12828130
v -0.16084280 0.21483410 0.12828130
v -0.16955540 0.22429540 0.12828130
v -0.16302150 0.22000410 0.12828130
v -0.17524840 0.22429540 0.12828130
v -0.16482990 0.21405450 0.12828130
v -0.16919570 0.22251790 0.12828130
v -0.16482990 0.21965050 0.12828130
v -0.17445540 0.22037640 0.12828130
v -0.16881680 0.21483410 0.12828130
v -0.16817130 0.22101100 0.12828130
v -0.16663830 0.22000410 0.12828130
v -0.17219690 0.21705400 0.12828130
vn 0.00000000 1.00000000 0.00000000
vn 0.00000000 1.00000000 0.00000000
vn 0.00000000 1.00000000 0.00000000
vn 0.00000000 1.00000000 0.00000000
vn -0.77725930 -0.54056670 -0.32195620
vn -0.77725760 -0.54056660 -0.32196020
vn -0.84129740 -0.54057260 0.00000026
vn -0.84129740 -0.54057260 -0.00000064
vn -0.77725950 -0.54057040 0.32194910
vn -0.77725930 -0.54057060 0.32194960
vn -0.59487560 -0.54057400 0.59489730
vn -0.59487460 -0.54057410 0.59489840
vn -0.59490140 -0.54055890 -0.59488520
vn -0.59490560 -0.54055880 -0.59488100
vn 0.32196020 -0.54057660 0.77725060
vn 0.59487490 -0.54057720 0.59489490
vn 0.59487290 -0.54057730 0.59489700
vn -0.69917200 0.28067500 -0.65755610
vn -0.70710640 0.13560980 -0.69398160
vn -0.03995649 0.19161880 -0.98065580
vn -0.04022941 0.32020570 -0.94649350
vn -0.03483453 0.54294370 -0.83904630
vn -0.64117800 0.53678780 -0.54840650
vn -0.02606609 0.78412130 -0.62006000
vn -0.51677290 0.76871620 -0.37685700
vn -0.75621340 0.63639930 0.15210910
vn -0.51677160 0.57030370 0.63851450
vn -0.64117230 0.29085560 0.71014160
vn 0.75620250 0.64685860 0.09864932
vn 0.51676170 0.76871470 -0.37687540
vn 0.64116510 0.53678920 -0.54842000
vn 0.64116510 0.53678920 -0.54842000
vn 0.51676170 0.76871470 -0.37687540
vn 0.02606336 0.78412850 -0.62005090
vn -0.38268930 0.00000000 0.92387710
vn -0.38268930 0.00000000 0.92387710
vn 0.00000000 0.00000000 1.00000000
vn 0.00000000 0.00000000 1.00000000
vn 0.38268930 0.00000000 0.92387710
vn 0.38268930 0.00000000 0.92387710
vn -0.70710080 0.00000000 0.70711270
vn -0.70710080 0.00000000 0.70711270
vn -0.38268930 0.00000000 0.92387710
vn -0.38268930 0.00000000 0.92387710
vn -0.92387870 0.00000000 0.38268550
vn -0.92387870 0.00000000 0.38268550
vn -1.00000000 0.00000000 0.00000000
vn -1.00000000 0.00000000 0.00000000
vn -0.92387300 0.00000000 -0.38269930
vn -0.92387300 0.00000000 -0.38269930
vn -0.70711060 0.00000000 -0.70710290
vn -0.70711060 0.00000000 -0.70710290
vn -0.38268940 0.00000000 -0.92387710
vn -0.38268940 0.00000000 -0.92387710
vn 0.00003890 0.00000000 -1.00000000
vn 0.00003890 0.00000000 -1.00000000
vn -0.38268940 0.00000000 -0.92387710
vn -0.38268940 0.00000000 -0.92387710
vn 0.38268930 0.00000000 -0.92387710
vn 0.38268930 0.00000000 -0.92387710
vn 0.70709110 0.00000000 -0.70712240
vn 0.38268930 0.00000000 -0.92387710
vn 0.38268930 0.00000000 -0.92387710
vn 0.70709110 0.00000000 -0.70712240
vn 0.92387490 0.00000000 -0.38269480
vn 0.92387490 0.00000000 -0.38269480
vn 1.00000000 0.00000000 0.00000000
vn 1.00000000 0.00000000 0.00000000
vn 0.92388050 0.00000000 0.38268100
vn 0.92388050 0.00000000 0.38268100
vn 0.70710080 0.00000000 0.70711270
vn 0.70710080 0.00000000 0.70711270
vn 0.38268930 0.00000000 0.92387710
vn 0.38268930 0.00000000 0.92387710
vn -0.59487460 -0.54057410 0.59489840
vn -0.59487560 -0.54057400 0.59489730
vn -0.32195580 -0.54057470 0.77725380
vn -0.32196010 -0.54057480 0.77725200
vn 0.00000000 -0.54058430 0.84128980
vn 0.00000000 -0.54058430 0.84128980
vn 0.32195700 -0.54057660 0.77725200
vn -0.32192380 -0.54057290 -0.77726840
vn -0.59490560 -0.54055880 -0.59488100
vn -0.59490140 -0.54055890 -0.59488520
vn -0.32192630 -0.54057290 -0.77726730
vn 0.00002140 -0.54056640 -0.84130130
vn 0.00001892 -0.54056640 -0.84130130
vn 0.32192720 -0.54055260 -0.77728100
vn 0.32193330 -0.54055260 -0.77727850
vn 0.59489480 -0.54055420 -0.59489610
vn 0.59490020 -0.54055410 -0.59489070
vn 0.77725960 -0.54056730 -0.32195410
vn 0.59490020 -0.54055410 -0.59489070
vn 0.59489480 -0.54055420 -0.59489610
vn 0.77725810 -0.54056730 -0.32195780
vn 0.84129760 -0.54057230 -0.00000061
vn 0.84129760 -0.54057230 0.00000028
vn 0.77725770 -0.54057220 0.32195040
vn 0.77725820 -0.54057220 0.32194930
vn 0.59487290 -0.54057730 0.59489700
vn 0.59487490 -0.54057720 0.59489490
vn 0.72520450 -0.61954920 -0.30039510
vn 0.78496000 -0.61954650 -0.00000064
vn 0.78496000 -0.61954650 0.00000158
vn 0.72520420 -0.61954920 -0.30039580
vn 0.55506060 -0.61956700 -0.55501770
vn 0.55505230 -0.61956700 -0.55502580
vn 0.55505230 -0.61956700 -0.55502580
vn 0.30037570 -0.61954860 -0.72521320
vn 0.30037350 -0.61954850 -0.72521390
vn 0.55506060 -0.61956700 -0.55501770
vn 0.00000000 -0.61951510 -0.78498480
vn 0.00000000 -0.61951510 -0.78498480
vn -0.30037250 -0.61954810 -0.72521480
vn -0.30037490 -0.61954810 -0.72521380
vn -0.55505750 -0.61956810 -0.55501940
vn -0.55504940 -0.61956800 -0.55502750
vn -0.55504940 -0.61956800 -0.55502750
vn -0.72520140 -0.61955400 -0.30039270
vn -0.55505750 -0.61956810 -0.55501940
vn -0.72520140 -0.61955390 -0.30039290
vn -0.78495690 -0.61955050 -0.00000036
vn -0.78495690 -0.61955040 0.00000186
vn -0.72521840 -0.61953780 0.30038500
vn -0.72522250 -0.61953770 0.30037530
vn -0.55506450 -0.61950870 0.55507860
vn -0.55507010 -0.61950870 0.55507300
vn -0.55507010 -0.61950870 0.55507300
vn -0.30040090 -0.61948570 0.72525640
vn -0.55506450 -0.61950870 0.55507860
vn -0.30041610 -0.61948560 0.72525010
vn 0.00000000 -0.61948550 0.78500810
vn 0.00000000 -0.61948550 0.78500810
vn 0.30040580 -0.61948350 0.72525610
vn 0.30041830 -0.61948340 0.72525110
vn 0.55506800 -0.61950390 0.55508050
vn 0.55507330 -0.61950390 0.55507520
vn 0.55507330 -0.61950390 0.55507520
vn 0.72521910 -0.61953320 0.30039300
vn 0.55506800 -0.61950390 0.55508050
vn 0.72522320 -0.61953320 0.30038300
vn 0.70713190 0.00000000 -0.70708160
vn 0.38261770 0.00000000 -0.92390670
vn 0.38261770 0.00000000 -0.92390670
vn 0.70713190 0.00000000 -0.70708160
vn 0.92387980 0.00000000 -0.38268270
vn 0.92387980 0.00000000 -0.38268270
vn 1.00000000 0.00000000 0.00000000
vn 1.00000000 0.00000000 0.00000000
vn 0.38261770 0.00000000 -0.92390670
vn 0.38261770 0.00000000 -0.92390670
vn 0.00000000 0.00000000 -1.00000000
vn 0.00000000 0.00000000 -1.00000000
vn -0.38261770 0.00000000 -0.92390670
vn -0.38261770 0.00000000 -0.92390670
vn -0.38261770 0.00000000 -0.92390670
vn -0.38261770 0.00000000 -0.92390670
vn -0.70712850 0.00000000 -0.70708510
vn -0.70712850 0.00000000 -0.70708510
vn -0.92387970 0.00000000 -0.38268300
vn -0.92387970 0.00000000 -0.38268300
vn -1.00000000 0.00000000 0.00000000
vn -1.00000000 0.00000000 0.00000000
vn -0.92388330 0.00000000 0.38267440
vn -0.92388330 0.00000000 0.38267440
vn -0.70707850 0.00000000 0.70713500
vn -0.70707850 0.00000000 0.70713500
vn -0.38268800 0.00000000 0.92387760
vn -0.38268800 0.00000000 0.92387760
vn -0.38268800 0.00000000 0.92387760
vn -0.38268800 0.00000000 0.92387760
vn 0.00000000 0.00000000 1.00000000
vn 0.00000000 0.00000000 1.00000000
vn 0.38269190 0.00000000 0.92387600
vn 0.38269190 0.00000000 0.92387600
vn 0.38269190 0.00000000 0.92387600
vn 0.38269190 0.00000000 0.92387600
vn 0.70707850 0.00000000 0.70713510
vn 0.70707850 0.00000000 0.70713510
vn 0.92387980 0.00000000 0.38268270
vn 0.92387980 0.00000000 0.38268270
vn 0.40378390 0.14250010 0.90368810
vn 0.39552730 0.14390890 0.90710990
vn 0.16142230 0.17037380 0.97206770
vn 0.16214650 0.17037820 0.97194640
vn -0.00000041 0.17065780 0.98533030
vn -0.00000040 0.17065780 0.98533030
vn -0.16214770 0.17037770 0.97194630
vn -0.16142280 0.17037330 0.97206770
vn -0.40378500 0.14249980 0.90368770
vn -0.39552800 0.14390870 0.90710960
vn 0.99940380 0.03057518 0.01603431
vn 0.99949590 0.02943809 0.01188776
vn 0.99949590 0.02943810 0.01188777
vn 0.99943250 0.03024491 0.01482973
vn 0.95432420 -0.00230293 0.29876410
vn 0.96887310 0.00842355 0.24741470
vn 0.78878640 -0.03714841 0.61354370
vn 0.78315620 -0.03219243 0.62099120
vn 0.66614850 0.05200876 0.74400350
vn 0.65424820 0.05929054 0.75395220
vn -0.04277726 0.97790680 0.20461750
vn -0.04165813 0.97755990 0.20649760
vn -0.04165813 0.97755990 0.20649760
vn -0.04306476 0.97799520 0.20413440
vn -0.04682101 0.98812250 0.14636160
vn -0.04691670 0.98785190 0.14814670
vn -0.03724311 0.99756350 0.05899349
vn -0.03709982 0.99761970 0.05812467
vn -0.03434059 0.99937990 0.00778596
vn -0.03519828 0.99937180 0.00413368
vn -0.02466827 0.99960520 -0.01345275
vn -0.02221320 0.99964110 -0.01497901
vn -0.01033756 0.99965040 -0.02433643
vn -0.01028281 0.99964760 -0.02447283
vn 0.00000000 0.99963240 -0.02711478
vn 0.00000000 0.99963240 -0.02711478
vn 0.01028275 0.99964760 -0.02447172
vn 0.01033750 0.99965050 -0.02433534
vn 0.02221320 0.99964110 -0.01497784
vn 0.02466833 0.99960520 -0.01345150
vn 0.03519839 0.99937180 0.00413459
vn 0.03434068 0.99937990 0.00778671
vn 0.03709983 0.99761980 0.05812362
vn 0.03724311 0.99756350 0.05899237
vn 0.04691678 0.98785210 0.14814490
vn 0.04682108 0.98812280 0.14635970
vn 0.04306494 0.97799520 0.20413410
vn 0.04277744 0.97790680 0.20461730
vn 0.04165830 0.97755990 0.20649750
vn 0.04165829 0.97755990 0.20649750
vn 0.00000000 0.00000000 -1.00000000
vn 0.00000000 0.00000000 -1.00000000
vn 0.00000000 0.00000000 -1.00000000
vn 0.00000000 0.00000000 -1.00000000
vn 0.00210375 -0.99972970 -0.02315137
vn 0.00168687 -0.99982640 -0.01856308
vn 0.00210375 -0.99972970 -0.02315137
vn 0.00177541 -0.99980750 -0.01953752
vn 0.00000020 -1.00000000 -0.00000077
vn 0.00000019 -1.00000000 -0.00000075
vn 0.00000000 -1.00000000 0.00000077
vn 0.00000000 -1.00000000 0.00000073
vn 0.00000000 -1.00000000 0.00000051
vn 0.00000000 -1.00000000 0.00000074
vn 0.00000000 -1.00000000 -0.00000060
vn 0.00000000 -1.00000000 -0.00000050
vn 0.00000000 -1.00000000 -0.00000049
vn 0.00000000 -1.00000000 -0.00000052
vn 0.00000000 -1.00000000 0.00000000
vn 0.00000000 -1.00000000 0.00000000
vn 0.00000000 -1.00000000 -0.00000012
vn 0.00000000 -1.00000000 -0.00000013
vn 0.00000000 -1.00000000 -0.00000012
vn 0.00000000 -1.00000000 -0.00000015
vn 0.00000000 -1.00000000 0.00000037
vn 0.00000000 -1.00000000 0.00000026
vn 0.00000000 -1.00000000 0.00000037
vn 0.00000000 -1.00000000 0.00000039
vn -0.00000019 -1.00000000 -0.00000075
vn -0.00000020 -1.00000000 -0.00000077
vn -0.00177540 -0.99980750 -0.01953775
vn -0.00168687 -0.99982630 -0.01856331
vn -0.00210375 -0.99972970 -0.02315162
vn -0.00210375 -0.99972970 -0.02315162
vn -0.15615390 -0.18079880 -0.97104470
vn -0.36884650 -0.15305320 -0.91680260
vn -0.37626030 -0.15160720 -0.91402600
vn -0.15705470 -0.18078800 -0.97090140
vn 0.00000000 -0.18197040 -0.98330400
vn -0.99934540 -0.02989355 -0.02037539
vn -0.99946360 -0.03068106 -0.01145028
vn -0.99946360 -0.03068106 -0.01145028
vn -0.99927370 -0.02956966 -0.02403778
vn -0.94615860 0.00957712 -0.32356180
vn -0.93267390 0.01638802 -0.36034810
vn -0.74453970 0.02482601 -0.66711630
vn -0.75653830 0.03129509 -0.65320020
vn -0.58793670 -0.07275100 -0.80562880
vn -0.59774800 -0.06552738 -0.79900150
vn -0.36884650 -0.15305320 -0.91680260
vn -0.37626030 -0.15160720 -0.91402600
vn 0.39552730 0.14390890 0.90710990
vn 0.40378390 0.14250010 0.90368810
vn -0.99943250 0.03024540 0.01482970
vn -0.95432390 -0.00230692 0.29876500
vn -0.96887270 0.00841940 0.24741640
vn -0.99940380 0.03057556 0.01603430
vn -0.99949590 0.02943884 0.01188766
vn -0.99949590 0.02943883 0.01188766
vn -0.00000125 0.00000000 -1.00000000
vn -0.00000125 0.00000000 -1.00000000
vn -0.00000125 0.00000000 -1.00000000
vn -0.00000125 0.00000000 -1.00000000
vn 0.15615340 -0.18079860 -0.97104480
vn 0.37626000 -0.15160720 -0.91402610
vn 0.36884600 -0.15305320 -0.91680280
vn 0.15705400 -0.18078780 -0.97090150
vn 0.00000000 -0.18197040 -0.98330400
vn 0.99934540 -0.02989472 -0.02037530
vn 0.99946360 -0.03068212 -0.01145028
vn 0.99946360 -0.03068211 -0.01145028
vn 0.99927360 -0.02957089 -0.02403765
vn 0.94615890 0.00957410 -0.32356080
vn 0.93267430 0.01638515 -0.36034730
vn 0.74454030 0.02482351 -0.66711590
vn 0.75653810 0.03129243 -0.65320040
vn 0.58793710 -0.07275273 -0.80562830
vn 0.59774850 -0.06552935 -0.79900100
vn 0.36884600 -0.15305320 -0.91680280
vn 0.37626000 -0.15160720 -0.91402610
vn -0.78878630 -0.03715020 0.61354390
vn -0.78315620 -0.03219384 0.62099110
vn -0.66614870 0.05200952 0.74400340
vn -0.65424840 0.05929122 0.75395200
vn -0.40378500 0.14249980 0.90368770
vn -0.39552800 0.14390870 0.90710960
vn -0.53859070 0.74211930 -0.39897250
vn -0.09721436 0.99107710 0.09119043
vn 0.01779194 0.98654090 -0.16254410
vn 0.00070616 0.70472570 -0.70947960
vn -0.01778982 0.98654640 -0.16251110
vn -0.00070615 0.70472730 -0.70947790
vn 0.53900330 0.74183210 -0.39894940
vn 0.09719840 0.99108020 0.09117270
vn -0.51677160 0.57030370 0.63851450
vn 0.34799960 0.91626380 0.19838560
vn 0.83671220 0.53739640 0.10544050
vn 0.34798560 0.92355020 0.16112470
vn 0.83670910 0.53756310 0.10461250
vn 0.53893690 0.53710200 0.64889790
vn 0.09718426 0.95249770 0.28862320
vn -0.53860080 0.53734790 0.64897330
vn -0.09717385 0.95250550 0.28860120
vn -0.34800710 0.92354140 0.16112820
vn -0.83634450 0.53811120 0.10471000
vn -0.34801020 0.91626050 0.19838190
vn -0.83634420 0.53794600 0.10555800
vn -0.01778938 0.85280240 0.52193060
vn -0.00070497 0.38578410 0.92258880
vn 0.01779340 0.85278560 0.52195810
vn 0.00070731 0.38578360 0.92258910
vn -0.75621220 0.64684770 0.09864609
vn -0.75621340 0.63639930 0.15210910
vn -0.51677290 0.76871620 -0.37685700
vn 0.02606336 0.78412850 -0.62005090
vn -0.02606609 0.78412130 -0.62006000
vn 0.51676170 0.76871470 -0.37687540
vn 0.75620250 0.64685860 0.09864932
vn 0.75620190 0.63641240 0.15211080
vn 0.51675410 0.57030180 0.63853060
vn -0.02606583 0.49303640 0.86961820
vn 0.02606306 0.49304760 0.86961190
vn 0.64116020 0.29085180 0.71015410
vn 0.99024960 0.12230800 0.06668267
vn 0.69916510 0.01250004 0.71485100
vn 0.92743120 0.35832440 0.10712100
vn 0.75620190 0.63641240 0.15211080
vn 0.51675410 0.57030180 0.63853060
vn -0.69917010 0.01249436 0.71484620
vn -0.70710590 -0.13560820 0.69398250
vn -0.99913030 -0.00799665 0.04092313
vn -0.99025090 0.12229780 0.06668075
vn -0.92742640 0.35833640 0.10712290
vn -0.75621220 0.64684770 0.09864609
vn -0.99025110 0.13840260 -0.01573747
vn -0.99913030 0.00799700 -0.04092352
vn -0.70710640 0.13560980 -0.69398160
vn -0.69917200 0.28067500 -0.65755610
vn -0.64117800 0.53678780 -0.54840650
vn -0.51677290 0.76871620 -0.37685700
vn -0.92742630 0.37230290 0.03565015
vn 0.70709730 -0.13561000 0.69399080
vn 0.99913030 -0.00799673 0.04092326
vn 0.99913030 0.00799715 -0.04092365
vn 0.99024960 0.13841310 -0.01573533
vn 0.69916520 0.28068210 -0.65756030
vn 0.70709590 0.13561170 -0.69399200
vn 0.92743110 0.37229120 0.03564667
vn 0.69916510 0.01250004 0.71485100
vn 0.70709730 -0.13561000 0.69399080
vn 0.03995456 -0.19163220 0.98065320
vn 0.04022728 -0.05965011 0.99740840
vn -0.03995467 -0.19163220 0.98065320
vn 0.03483443 0.18715040 0.98171350
vn 0.64116020 0.29085180 0.71015410
vn -0.04022739 -0.05965033 0.99740840
vn -0.70710590 -0.13560820 0.69398250
vn -0.69917010 0.01249436 0.71484620
vn -0.64117230 0.29085560 0.71014160
vn -0.03483301 0.18715190 0.98171320
vn -0.02606583 0.49303640 0.86961820
vn -0.51677160 0.57030370 0.63851450
vn 0.02606306 0.49304760 0.86961190
vn 0.51675410 0.57030180 0.63853060
vn 0.03995634 0.19161870 -0.98065580
vn 0.04022929 0.32020580 -0.94649350
vn 0.70709590 0.13561170 -0.69399200
vn 0.69916520 0.28068210 -0.65756030
vn 0.03483573 0.54294260 -0.83904700
vn 0.70099790 0.71316320 0.00000000
vn 0.37708960 0.92617680 0.00000000
vn 0.37708960 0.92617680 0.00000000
vn 0.70099790 0.71316320 0.00000000
vn 0.92152070 0.38832930 0.00000000
vn 0.92152070 0.38832930 0.00000000
vn 1.00000000 0.00000000 0.00000000
vn 1.00000000 0.00000000 0.00000000
vn 0.37708960 0.92617680 0.00000000
vn 0.37708960 0.92617680 0.00000000
vn 0.00000000 1.00000000 0.00000000
vn 0.00000000 1.00000000 0.00000000
vn -0.37709020 0.92617640 0.00000000
vn -0.37709020 0.92617640 0.00000000
vn -0.37709020 0.92617640 0.00000000
vn -0.37709020 0.92617640 0.00000000
vn -0.70099480 0.71316630 0.00000000
vn -0.70099480 0.71316630 0.00000000
vn -0.92152210 0.38832580 0.00000000
vn -0.92152210 0.38832580 0.00000000
vn -1.00000000 0.00000000 0.00000000
vn -1.00000000 0.00000000 0.00000000
vn -0.92152340 -0.38832290 0.00000000
vn -0.92152340 -0.38832290 0.00000000
vn -0.70099690 -0.71316430 0.00000000
vn -0.70099690 -0.71316430 0.00000000
vn -0.37709200 -0.92617580 0.00000000
vn -0.37709200 -0.92617580 0.00000000
vn -0.37709200 -0.92617580 0.00000000
vn -0.37709200 -0.92617580 0.00000000
vn 0.00000000 -1.00000000 0.00000000
vn 0.00000000 -1.00000000 0.00000000
vn 0.37709130 -0.92617610 0.00000000
vn 0.37709130 -0.92617610 0.00000000
vn 0.37709130 -0.92617610 0.00000000
vn 0.37709130 -0.92617610 0.00000000
vn 0.70099900 -0.71316220 0.00000000
vn 0.70099900 -0.71316220 0.00000000
vn 0.92152200 -0.38832640 0.00000000
vn 0.92152200 -0.38832640 0.00000000
vn -0.70099840 -0.71316290 0.00000000
vn -0.37710930 -0.92616870 0.00000000
vn -0.37710930 -0.92616870 0.00000000
vn -0.70099840 -0.71316290 0.00000000
vn -0.92152270 -0.38832440 0.00000000
vn -0.92152270 -0.38832440 0.00000000
vn -1.00000000 0.00000000 0.00000000
vn -1.00000000 0.00000000 0.00000000
vn -0.92151870 0.38833400 0.00000000
vn -0.92151870 0.38833400 0.00000000
vn -0.37710930 -0.92616870 0.00000000
vn -0.37710930 -0.92616870 0.00000000
vn 0.00000000 -1.00000000 0.00000000
vn 0.00000000 -1.00000000 0.00000000
vn 0.37710940 -0.92616870 0.00000000
vn 0.37710940 -0.92616870 0.00000000
vn 0.37710940 -0.92616870 0.00000000
vn 0.37710940 -0.92616870 0.00000000
vn 0.70101000 -0.71315140 0.00000000
vn 0.70101000 -0.71315140 0.00000000
vn 0.92152510 -0.38831870 0.00000000
vn 0.92152510 -0.38831870 0.00000000
vn 1.00000000 0.00000000 0.00000000
vn 1.00000000 0.00000000 0.00000000
vn 0.92152110 0.38832830 0.00000000
vn 0.92152110 0.38832830 0.00000000
vn 0.70098300 0.71317800 0.00000000
vn 0.70098300 0.71317800 0.00000000
vn 0.37706970 0.92618500 0.00000000
vn 0.37706970 0.92618500 0.00000000
vn 0.37706970 0.92618500 0.00000000
vn 0.37706970 0.92618500 0.00000000
vn 0.00000000 1.00000000 0.00000000
vn 0.00000000 1.00000000 0.00000000
vn -0.37706960 0.92618500 0.00000000
vn -0.37706960 0.92618500 0.00000000
vn -0.37706960 0.92618500 0.00000000
vn -0.37706960 0.92618500 0.00000000
vn -0.70097120 0.71318950 0.00000000
vn -0.70097120 0.71318950 0.00000000
vn 0.00000000 0.00000000 1.00000000
vn 0.00000000 0.00000000 1.00000000
vn 0.00000000 0.00000000 1.00000000
vn 0.00000000 0.00000000 1.00000000
vn 0.00000000 0.00000000 1.00000000
vn 0.00000000 0.00000000 1.00000000
vn -0.00000568 0.00000000 1.00000000
vn 0.00000575 0.00000000 1.00000000
vn -0.00001135 0.00000000 1.00000000
vn 0.00001135 0.00000000 1.00000000
vn -0.00001696 0.00000000 1.00000000
vn 0.00001703 0.00000000 1.00000000
vn -0.00002271 0.00000000 1.00000000
vn 0.00002271 0.00000000 1.00000000
vn -0.00001135 0.00000000 1.00000000
vn 0.00001149 0.00000000 1.00000000
vn 0.00000000 0.00000000 1.00000000
vn 0.00000000 -1.00000000 0.00000000
vn 0.00000000 -1.00000000 0.00000076
vn 0.00000000 -1.00000000 -0.00000123
vn 0.00000000 -1.00000000 -0.00000151
vn 0.00000000 -1.00000000 0.00000151
vn 0.00000000 -1.00000000 -0.00000302
vn 0.00000000 -1.00000000 0.00000019
vn 0.00000000 -1.00000000 -0.00000283
vn 0.00000000 -1.00000000 -0.00000113
vn 0.00000000 -1.00000000 -0.00000264
vn 0.00000000 -1.00000000 -0.00000208
vn 0.00000000 -1.00000000 -0.00000132
vn 0.00000000 -1.00000000 -0.00000302
vn 0.00000000 -1.00000000 0.00000000
vn 0.00000000 -1.00000000 -0.00000227
vn 0.00000000 -1.00000000 -0.00000076
vn 0.00000000 -1.00000000 -0.00000151
vn 0.00000595 0.00000000 1.00000000
vn 0.00000583 0.00000000 1.00000000
vn -0.00001184 0.00000000 1.00000000
vn -0.00001166 0.00000000 1.00000000
vn 0.00000880 0.00000000 1.00000000
vn 0.00000000 0.00000000 1.00000000
vn 0.00000884 0.00000000 1.00000000
vn 0.00000000 0.00000000 1.00000000
vn 0.00000294 0.00000000 1.00000000
vn 0.00001184 0.00000000 1.00000000
vn 0.00000294 0.00000000 1.00000000
vn 0.00001166 0.00000000 1.00000000
vn 0.00001166 0.00000000 1.00000000
vn -0.00001165 0.00000000 1.00000000
vn 0.00001184 0.00000000 1.00000000
vn -0.00001190 0.00000000 1.00000000
vn 0.00000028 0.00000000 1.00000000
vn -0.00001184 0.00000000 1.00000000
vn -0.00000022 0.00000000 1.00000000
vn -0.00001166 0.00000000 1.00000000
vn -0.00001186 0.00000000 1.00000000
vn 0.00000000 0.00000000 1.00000000
vn -0.00001168 0.00000000 1.00000000
vn 0.00000000 0.00000000 1.00000000
vn 0.00000000 0.00000000 1.00000000
vn -0.00000592 0.00000000 1.00000000
vn 0.00000000 0.00000000 1.00000000
vn -0.00000583 0.00000000 1.00000000
vn 0.00001186 0.00000000 1.00000000
vn 0.00000605 0.00000000 1.00000000
vn 0.00001168 0.00000000 1.00000000
vn 0.00000567 0.00000000 1.00000000
vt -238.03830000 -33.63813000
vt -238.03830000 -32.63813000
vt -237.03830000 -32.63813000
vt -237.03830000 -33.63813000
vt -239.79900000 0.48348920
vt -239.80710000 0.51669430
vt -239.78310000 0.51669430
vt -239.78310000 0.48348920
vt -239.75910000 0.51669430
vt -239.76730000 0.48348920
vt -239.73870000 0.51669430
vt -239.75380000 0.48348920
vt -239.81240000 0.48348920
vt -239.82750000 0.51669430
vt -239.91250000 0.47636200
vt -239.88560000 0.50767100
vt -239.89990000 0.47636200
vt 0.23694870 0.33822630
vt 0.51966740 0.33822630
vt 0.51966740 0.31957760
vt 0.23691780 0.31957760
vt 0.22159780 0.31755530
vt 0.22174210 0.33404870
vt 0.21138200 0.31450320
vt 0.21511820 0.32845180
vt 0.14712550 0.34165870
vt 0.13317550 0.34539490
vt 0.12757960 0.35201880
vt 0.18155680 0.99800810
vt 0.19550680 0.99427190
vt 0.20110260 0.98764810
vt 0.22174210 0.00617038
vt 0.21511820 0.01176562
vt 0.21138200 0.02571598
vt -239.95020000 0.50767100
vt -239.95020000 0.55863630
vt -239.92750000 0.55863630
vt -239.92750000 0.50767100
vt -239.90480000 0.55863630
vt -239.90480000 0.50767100
vt -239.73870000 0.51669430
vt -239.73870000 0.57074550
vt -239.72510000 0.57074550
vt -239.72510000 0.51669430
vt -239.75910000 0.51669430
vt -239.75910000 0.57074550
vt -239.78310000 0.51669430
vt -239.78310000 0.57074550
vt -239.80710000 0.51669430
vt -239.80710000 0.57074550
vt -239.82750000 0.51669430
vt -239.82750000 0.57074550
vt -239.84110000 0.51669430
vt -239.84110000 0.57074550
vt -239.98730000 0.50714240
vt -239.98730000 0.45626390
vt -240.00990000 0.45626390
vt -240.00990000 0.50714240
vt -239.96470000 0.50714240
vt -239.96470000 0.45626390
vt -239.81510000 0.51668950
vt -239.80150000 0.57070560
vt -239.80150000 0.51668950
vt -239.81510000 0.57070560
vt -239.83540000 0.51668950
vt -239.83540000 0.57070560
vt -239.85940000 0.51668950
vt -239.85940000 0.57070560
vt -239.88340000 0.51668950
vt -239.88340000 0.57070560
vt -239.90380000 0.51668950
vt -239.90380000 0.57070560
vt -239.91740000 0.51668950
vt -239.91740000 0.57070560
vt -239.95510000 0.47636200
vt -239.96930000 0.50767100
vt -239.95020000 0.50767100
vt -239.94250000 0.47636200
vt -239.92750000 0.50767100
vt -239.92750000 0.47636200
vt -239.90480000 0.50767100
vt -240.00230000 0.53839810
vt -240.02910000 0.50714240
vt -240.01490000 0.53839810
vt -240.00990000 0.50714240
vt -239.98730000 0.53839810
vt -239.98730000 0.50714240
vt -239.97240000 0.53839810
vt -239.96470000 0.50714240
vt -239.95980000 0.53839810
vt -239.94560000 0.50714240
vt -239.84360000 0.48350590
vt -239.81510000 0.51668950
vt -239.83010000 0.48350590
vt -239.83540000 0.51668950
vt -239.85940000 0.48350590
vt -239.85940000 0.51668950
vt -239.87530000 0.48350590
vt -239.88340000 0.51668950
vt -239.88870000 0.48350590
vt -239.90380000 0.51668950
vt -239.84790000 0.44785230
vt -239.85940000 0.44785230
vt -239.85940000 0.46211230
vt -239.84360000 0.46211230
vt -239.83810000 0.44785230
vt -239.83010000 0.46211230
vt -240.01030000 0.47137710
vt -240.02330000 0.46272670
vt -240.02740000 0.47275050
vt -240.01800000 0.47904970
vt -240.03860000 0.47053820
vt -240.03860000 0.45969010
vt -240.04970000 0.47275050
vt -240.05380000 0.46272670
vt -240.05910000 0.47904970
vt -240.06680000 0.47137710
vt -239.81240000 0.46208160
vt -239.79470000 0.44781230
vt -239.80440000 0.44781230
vt -239.79900000 0.46208160
vt -239.78310000 0.44781230
vt -239.78310000 0.46208160
vt -239.77160000 0.44781230
vt -239.76730000 0.46208160
vt -239.76180000 0.44781230
vt -239.75380000 0.46208160
vt -240.06680000 0.52781610
vt -240.04970000 0.52644490
vt -240.05910000 0.52014490
vt -240.05380000 0.53646550
vt -240.03860000 0.52865580
vt -240.03860000 0.53950540
vt -240.02740000 0.52644490
vt -240.02330000 0.53646550
vt -240.01800000 0.52014490
vt -240.01030000 0.52781610
vt -239.88870000 0.46211230
vt -239.87100000 0.44785230
vt -239.88080000 0.44785230
vt -239.87530000 0.46211230
vt -239.83010000 0.46211230
vt -239.82120000 0.48350590
vt -239.82120000 0.46211230
vt -239.83010000 0.48350590
vt -239.84360000 0.46211230
vt -239.84360000 0.48350590
vt -239.85940000 0.46211230
vt -239.85940000 0.48350590
vt -239.97240000 0.55854890
vt -239.97240000 0.53839810
vt -239.98730000 0.53839810
vt -239.98730000 0.55854890
vt -240.00230000 0.53839810
vt -240.00230000 0.55854890
vt -239.82140000 0.46208160
vt -239.82140000 0.48348920
vt -239.81240000 0.48348920
vt -239.81240000 0.46208160
vt -239.79900000 0.48348920
vt -239.79900000 0.46208160
vt -239.78310000 0.48348920
vt -239.78310000 0.46208160
vt -239.76730000 0.48348920
vt -239.76730000 0.46208160
vt -239.75380000 0.48348920
vt -239.75380000 0.46208160
vt -239.74480000 0.48348920
vt -239.74480000 0.46208160
vt -239.94250000 0.45617650
vt -239.94250000 0.47636200
vt -239.92750000 0.47636200
vt -239.92750000 0.45617650
vt -239.91250000 0.47636200
vt -239.91250000 0.45617650
vt -239.89770000 0.46211230
vt -239.89770000 0.48350590
vt -239.88870000 0.48350590
vt -239.88870000 0.46211230
vt -239.87530000 0.48350590
vt -239.87530000 0.46211230
vt -239.65590000 0.42708340
vt -239.67750000 0.42621930
vt -239.67750000 0.49681820
vt -239.65630000 0.49725050
vt -239.67750000 0.56741720
vt -239.65660000 0.56741720
vt -239.65630000 0.63758440
vt -239.67750000 0.63801650
vt -239.65590000 0.70775130
vt -239.67750000 0.70861550
vt -239.51460000 0.34117050
vt -239.41970000 -0.10735190
vt -239.55080000 -0.10735190
vt -239.56080000 0.32950370
vt -239.52900000 0.41389790
vt -239.56080000 0.40637410
vt -239.53580000 0.46874870
vt -239.56080000 0.46987560
vt -239.53750000 0.52023200
vt -239.56080000 0.52262060
vt -239.47730000 0.13723810
vt -239.47420000 0.57675920
vt -239.45100000 0.57675920
vt -239.45440000 0.13307240
vt -239.49010000 0.07233024
vt -239.45910000 0.06112900
vt -239.52270000 0.02912408
vt -239.49810000 0.00686960
vt -239.56390000 -0.00589663
vt -239.54540000 -0.04405877
vt -239.61650000 -0.03724828
vt -239.60480000 -0.08365026
vt -239.68010000 -0.05169660
vt -239.67420000 -0.09941459
vt -239.74370000 -0.05780935
vt -239.74370000 -0.10684360
vt -239.81310000 -0.09941459
vt -239.80720000 -0.05169660
vt -239.88260000 -0.08365026
vt -239.87080000 -0.03724828
vt -239.94190000 -0.04405877
vt -239.92340000 -0.00589663
vt -239.98920000 0.00686960
vt -239.96460000 0.02912408
vt -240.02820000 0.06112900
vt -239.99720000 0.07233024
vt -240.03290000 0.13307240
vt -240.01010000 0.13723810
vt -240.03630000 0.57675920
vt -240.01320000 0.57675920
vt -239.72200000 0.45284840
vt -239.71900000 0.58072650
vt -239.69610000 0.58072650
vt -239.69900000 0.45186630
vt -239.88010000 -0.10548920
vt -239.86110000 0.32423670
vt -239.85720000 -0.10548920
vt -239.88380000 0.32009510
vt -239.86580000 0.39985250
vt -239.89670000 0.38871340
vt -239.90920000 0.46231790
vt -239.93360000 0.44029750
vt -239.95470000 0.51420190
vt -239.97310000 0.47627870
vt -240.01220000 0.55482800
vt -240.02380000 0.50868660
vt -240.08160000 0.57048270
vt -240.08750000 0.52303430
vt -240.15110000 0.57784950
vt -240.15110000 0.52909300
vt -240.22060000 0.57048270
vt -240.21480000 0.52303430
vt -240.27840000 0.50868660
vt -240.29010000 0.55482800
vt -240.32920000 0.47627870
vt -240.34750000 0.51420190
vt -240.36870000 0.44029750
vt -240.39300000 0.46231790
vt -240.40560000 0.38871340
vt -240.43650000 0.39985250
vt -240.41850000 0.32009510
vt -240.44110000 0.32423670
vt -240.42210000 -0.10548920
vt -240.44510000 -0.10548920
vt -239.67680000 0.49478170
vt -239.67680000 0.43016700
vt -239.69740000 0.43103070
vt -239.69680000 0.49521340
vt -239.67680000 0.55939630
vt -239.57540000 0.56227430
vt -239.56530000 0.99488660
vt -239.43530000 0.99488660
vt -239.52930000 0.55060900
vt -239.57540000 0.49252250
vt -239.54320000 0.48499860
vt -239.57540000 0.44008660
vt -239.54980000 0.44132490
vt -239.57540000 0.40351130
vt -239.55270000 0.40592520
vt -239.57540000 0.37056810
vt -239.55480000 0.37423410
vt -239.56080000 0.56392060
vt -239.53920000 0.56025510
vt -239.47490000 0.58398770
vt -239.44300000 0.49959490
vt -239.47490000 0.50711850
vt -239.42870000 0.57232100
vt -239.46480000 1.02083600
vt -239.33380000 1.02083600
vt -239.72000000 0.45284300
vt -239.74310000 0.45186070
vt -239.74600000 0.58073190
vt -239.72300000 0.58073190
vt -239.67680000 0.62401130
vt -239.69740000 0.68776230
vt -239.67680000 0.68862610
vt -239.69680000 0.62357940
vt -239.69630000 0.55939630
vt -239.67610000 0.80321560
vt -239.53600000 0.37047730
vt -239.66600000 0.37047730
vt -239.63000000 0.81488410
vt -239.67610000 0.87298750
vt -239.64380000 0.88051380
vt -239.67610000 0.92543870
vt -239.65050000 0.92420010
vt -239.67610000 0.96202470
vt -239.65340000 0.95961010
vt -239.67610000 0.99497740
vt -239.65550000 0.99131050
vt -239.44980000 0.44474490
vt -239.47490000 0.44361800
vt -239.45160000 0.39326250
vt -239.47490000 0.39087400
vt -239.45330000 0.35324000
vt -239.47490000 0.34957470
vt 0.34355000 0.35296570
vt 0.33950590 0.34891980
vt 0.33602650 0.36046420
vt 0.34130620 0.36366960
vt 0.33602650 0.64978310
vt 0.34130630 0.64657770
vt 0.34355030 0.65728290
vt 0.33950590 0.66132660
vt 0.33736630 0.66346660
vt 0.35105060 0.66480600
vt 0.35425570 0.65952620
vt 0.50770200 0.66480600
vt 0.50449680 0.65952620
vt 0.51520210 0.65728290
vt 0.51924660 0.66132660
vt 0.51520250 0.35296570
vt 0.51924660 0.34891980
vt 0.50770210 0.34543920
vt 0.50449710 0.35072190
vt 0.35105050 0.34543920
vt 0.35425550 0.35072190
vt 0.52272610 0.64978310
vt 0.51744620 0.64657770
vt 0.52272610 0.36046420
vt 0.51744630 0.36366960
vt 0.50743630 0.66858740
vt 0.35131630 0.66858740
vt 0.52138620 0.66346660
vt 0.52650730 0.36073070
vt 0.52650730 0.64951790
vt 0.52138620 0.34678030
vt 0.50743630 0.34165870
vt 0.35131630 0.34165870
vt 0.33736630 0.34678030
vt 0.33224530 0.64951790
vt 0.33224530 0.36073070
vt 0.00589113 0.98764810
vt 0.02036200 0.97247240
vt 0.00171306 0.97244140
vt 0.02238397 0.98779230
vt 0.02543689 0.99800810
vt 0.01148691 0.99427190
vt 0.12340160 0.36722540
vt 0.12340160 0.64994420
vt 0.14205060 0.64994420
vt 0.14205060 0.36719450
vt 0.14407250 0.35187530
vt 0.30324540 0.34165870
vt 0.30832030 0.36719450
vt 0.30832030 0.64994420
vt 0.32696920 0.64994420
vt 0.32696920 0.36722540
vt 0.32279120 0.35201880
vt 0.31719540 0.34539490
vt 0.30629830 0.35187530
vt 0.00171306 0.68972270
vt 0.02036200 0.68972270
vt 0.18663170 0.68972270
vt 0.18663170 0.97247240
vt 0.20528060 0.97244140
vt 0.20528060 0.68972270
vt 0.18460970 0.98779230
vt 0.83267510 0.34165870
vt 0.54995630 0.34165870
vt 0.54995630 0.36030780
vt 0.83270600 0.36030780
vt 0.54995630 0.65924420
vt 0.84802600 0.36232960
vt 0.84788160 0.34583710
vt 0.83270600 0.65924420
vt 0.54995630 0.67789290
vt 0.83267510 0.67789290
vt 0.84788160 0.67371540
vt 0.84802600 0.65722200
vt 0.85824180 0.65416980
vt 0.85450560 0.66811850
vt 0.85824180 0.36538260
vt 0.85450560 0.35143230
vt 0.51966740 0.02064112
vt 0.23691780 0.02064112
vt 0.51966740 0.00199203
vt 0.23694870 0.00199203
vt 0.22159780 0.02266295
vt -239.63250000 0.30932400
vt -239.65210000 0.31666610
vt -239.63250000 0.31666610
vt -239.65210000 0.30932400
vt -239.63250000 0.29833560
vt -239.65210000 0.29833560
vt -239.63250000 0.28537400
vt -239.65210000 0.28537400
vt -239.79330000 0.72557460
vt -239.81090000 0.72557460
vt -239.81090000 0.73727560
vt -239.79330000 0.73727560
vt -239.81090000 0.74897590
vt -239.79330000 0.74897590
vt -239.46690000 0.31671490
vt -239.44730000 0.31671490
vt -239.44730000 0.30936130
vt -239.46690000 0.30936130
vt -239.44730000 0.29835580
vt -239.46690000 0.29835580
vt -239.44730000 0.28537400
vt -239.46690000 0.28537400
vt -239.44730000 0.27239210
vt -239.46690000 0.27239210
vt -239.44730000 0.26138670
vt -239.46690000 0.26138670
vt -239.44730000 0.25403310
vt -239.46690000 0.25403310
vt -239.99420000 0.74897590
vt -239.97650000 0.74897590
vt -239.97650000 0.73727560
vt -239.99420000 0.73727560
vt -239.97650000 0.72557460
vt -239.99420000 0.72557460
vt -239.63250000 0.25408180
vt -239.65210000 0.25408180
vt -239.65210000 0.26142400
vt -239.63250000 0.26142400
vt -239.65210000 0.27241230
vt -239.63250000 0.27241230
vt -239.65460000 0.71339460
vt -239.65810000 0.71698110
vt -239.65460000 0.71698110
vt -239.65810000 0.71339460
vt -239.65460000 0.70802680
vt -239.65810000 0.70802680
vt -239.65460000 0.70169530
vt -239.65810000 0.70169530
vt -239.65460000 0.69536370
vt -239.65810000 0.69536370
vt -240.09380000 0.66851060
vt -240.09630000 0.66851060
vt -240.09630000 0.67307040
vt -240.09380000 0.67307040
vt -240.09630000 0.67762960
vt -240.09380000 0.67762960
vt -239.69420000 0.71661260
vt -239.69070000 0.71661260
vt -239.69070000 0.71311250
vt -239.69420000 0.71311250
vt -239.69070000 0.70787420
vt -239.69420000 0.70787420
vt -239.69070000 0.70169530
vt -239.69420000 0.70169530
vt -239.69070000 0.69551630
vt -239.69420000 0.69551630
vt -239.69070000 0.69027810
vt -239.69420000 0.69027810
vt -239.69070000 0.68677810
vt -239.69420000 0.68677810
vt -240.13330000 0.68096740
vt -240.12890000 0.68096740
vt -240.12890000 0.67307060
vt -240.13330000 0.67307060
vt -240.12890000 0.66517280
vt -240.13330000 0.66517280
vt -239.65460000 0.68640960
vt -239.65810000 0.68640960
vt -239.65810000 0.68999610
vt -239.65460000 0.68999610
vt -239.49600000 0.71229690
vt -239.49070000 0.72513380
vt -239.48620000 0.72212180
vt -239.49600000 0.72619150
vt -239.48320000 0.71761410
vt -239.50130000 0.72513380
vt -239.48210000 0.71229690
vt -239.50580000 0.72212180
vt -239.48320000 0.70697960
vt -239.50880000 0.71761410
vt -239.48620000 0.70247200
vt -239.50990000 0.71229690
vt -239.49070000 0.69946000
vt -239.50880000 0.70697960
vt -239.49600000 0.69840230
vt -239.50580000 0.70247200
vt -239.50130000 0.69946000
vt -240.02740000 0.47275050
vt -240.03860000 0.47053820
vt -240.03860000 0.49959660
vt -240.01800000 0.47904970
vt -240.04970000 0.47275050
vt -240.01170000 0.48847740
vt -240.05910000 0.47904970
vt -240.00950000 0.49959660
vt -240.06540000 0.48847740
vt -240.01170000 0.51071800
vt -240.06760000 0.49959660
vt -240.01800000 0.52014490
vt -240.06540000 0.51071800
vt -240.02740000 0.52644490
vt -240.05910000 0.52014490
vt -240.03860000 0.52865580
vt -240.04970000 0.52644490
vt -240.02430000 0.33018680
vt -240.03600000 0.31847100
vt -240.04050000 0.32145210
vt -240.03410000 0.33675970
vt -240.01770000 0.32034970
vt -240.04570000 0.32249910
vt -240.03300000 0.31400910
vt -240.04570000 0.33906780
vt -240.01540000 0.30874620
vt -240.05090000 0.32145210
vt -240.03190000 0.30874620
vt -240.05730000 0.33675970
vt -240.01770000 0.29714250
vt -240.05540000 0.31847100
vt -240.03300000 0.30348310
vt -240.06710000 0.33018680
vt -240.02430000 0.28730540
vt -240.05840000 0.31400910
vt -240.03600000 0.29902140
vt -240.07370000 0.32034970
vt -240.03410000 0.28073260
vt -240.05950000 0.30874620
vt -240.04050000 0.29604020
vt -240.07600000 0.30874620
vt -240.04570000 0.27842450
vt -240.05840000 0.30348310
vt -240.04570000 0.29499330
vt -240.07370000 0.29714250
vt -240.05730000 0.28073260
vt -240.05540000 0.29902140
vt -240.05090000 0.29604020
vt -240.06710000 0.28730540
f 3/3/3 2/2/2 1/1/1
f 4/4/4 3/3/3 1/1/1
f 7/7/7 6/6/6 5/5/5
f 9/9/9 7/7/7 8/8/8
f 10/10/10 9/9/9 8/8/8
f 11/11/11 9/9/9 10/10/10
f 12/12/12 11/11/11 10/10/10
f 8/8/8 7/7/7 5/5/5
f 5/5/5 6/6/6 13/13/13
f 6/6/6 14/14/14 13/13/13
f 17/17/17 16/16/16 15/15/15
f 20/20/20 19/19/19 18/18/18
f 22/22/22 21/21/21 18/18/18
f 23/23/23 22/22/22 18/18/18
f 22/22/22 23/23/23 24/24/24
f 23/23/23 25/25/25 24/24/24
f 28/28/28 27/27/27 26/26/26
f 31/31/31 30/30/30 29/29/29
f 34/34/34 33/33/33 32/32/32
f 37/37/37 36/36/36 35/35/35
f 38/38/38 37/37/37 35/35/35
f 39/39/39 37/37/37 38/38/38
f 40/40/40 39/39/39 38/38/38
f 43/43/43 42/42/42 41/41/41
f 44/44/44 43/43/43 41/41/41
f 41/41/41 42/42/42 45/45/45
f 42/42/42 46/46/46 45/45/45
f 45/45/45 46/46/46 47/47/47
f 46/46/46 48/48/48 47/47/47
f 47/47/47 48/48/48 49/49/49
f 48/48/48 50/50/50 49/49/49
f 49/49/49 50/50/50 51/51/51
f 50/50/50 52/52/52 51/51/51
f 51/51/51 52/52/52 53/53/53
f 52/52/52 54/54/54 53/53/53
f 57/57/57 56/56/56 55/55/55
f 58/58/58 57/57/57 55/55/55
f 56/56/56 60/60/60 59/59/59
f 55/55/55 56/56/56 59/59/59
f 63/63/63 62/62/62 61/61/61
f 62/62/62 64/64/64 61/61/61
f 61/61/61 64/64/64 65/65/65
f 64/64/64 66/66/66 65/65/65
f 65/65/65 66/66/66 67/67/67
f 66/66/66 68/68/68 67/67/67
f 67/67/67 68/68/68 69/69/69
f 68/68/68 70/70/70 69/69/69
f 69/69/69 70/70/70 71/71/71
f 70/70/70 72/72/72 71/71/71
f 72/72/72 74/74/74 73/73/73
f 71/71/71 72/72/72 73/73/73
f 77/77/77 76/76/76 75/75/75
f 78/78/78 77/77/77 75/75/75
f 79/79/79 77/77/77 78/78/78
f 80/80/80 79/79/79 78/78/78
f 81/81/81 79/79/79 80/80/80
f 15/15/15 81/81/81 80/80/80
f 16/16/16 81/81/81 15/15/15
f 84/84/84 83/83/83 82/82/82
f 83/83/83 85/85/85 82/82/82
f 82/82/82 85/85/85 86/86/86
f 85/85/85 87/87/87 86/86/86
f 86/86/86 87/87/87 88/88/88
f 87/87/87 89/89/89 88/88/88
f 88/88/88 89/89/89 90/90/90
f 89/89/89 91/91/91 90/90/90
f 94/94/94 93/93/93 92/92/92
f 93/93/93 95/95/95 92/92/92
f 92/92/92 95/95/95 96/96/96
f 95/95/95 97/97/97 96/96/96
f 96/96/96 97/97/97 98/98/98
f 97/97/97 99/99/99 98/98/98
f 98/98/98 99/99/99 100/100/100
f 99/99/99 101/101/101 100/100/100
f 104/104/104 103/103/103 102/102/102
f 105/105/105 104/104/104 102/102/102
f 102/102/102 106/106/106 105/105/105
f 106/106/106 107/107/107 105/105/105
f 110/110/110 109/109/109 108/108/108
f 111/111/111 110/110/110 108/108/108
f 110/110/110 112/112/112 109/109/109
f 112/112/112 113/113/113 109/109/109
f 112/112/112 114/114/114 113/113/113
f 114/114/114 115/115/115 113/113/113
f 114/114/114 116/116/116 115/115/115
f 116/116/116 117/117/117 115/115/115
f 120/120/120 119/119/119 118/118/118
f 119/119/119 121/121/121 118/118/118
f 119/119/119 122/122/122 121/121/121
f 122/122/122 123/123/123 121/121/121
f 122/122/122 124/124/124 123/123/123
f 124/124/124 125/125/125 123/123/123
f 124/124/124 126/126/126 125/125/125
f 126/126/126 127/127/127 125/125/125
f 130/130/130 129/129/129 128/128/128
f 129/129/129 131/131/131 128/128/128
f 129/129/129 132/132/132 131/131/131
f 132/132/132 133/133/133 131/131/131
f 132/132/132 134/134/134 133/133/133
f 134/134/134 135/135/135 133/133/133
f 134/134/134 136/136/136 135/135/135
f 136/136/136 137/137/137 135/135/135
f 140/140/140 139/139/139 138/138/138
f 139/139/139 141/141/141 138/138/138
f 139/139/139 103/103/103 141/141/141
f 103/103/103 104/104/104 141/141/141
f 144/144/144 143/143/143 142/142/142
f 143/143/143 145/145/145 142/142/142
f 142/142/142 145/145/145 146/146/146
f 145/145/145 147/147/147 146/146/146
f 146/146/146 147/147/147 148/148/148
f 147/147/147 149/149/149 148/148/148
f 152/152/152 151/151/151 150/150/150
f 153/153/153 152/152/152 150/150/150
f 154/154/154 152/152/152 153/153/153
f 155/155/155 154/154/154 153/153/153
f 158/158/158 157/157/157 156/156/156
f 159/159/159 158/158/158 156/156/156
f 160/160/160 158/158/158 159/159/159
f 161/161/161 160/160/160 159/159/159
f 162/162/162 160/160/160 161/161/161
f 163/163/163 162/162/162 161/161/161
f 164/164/164 162/162/162 163/163/163
f 165/165/165 164/164/164 163/163/163
f 166/166/166 164/164/164 165/165/165
f 167/167/167 166/166/166 165/165/165
f 168/168/168 166/166/166 167/167/167
f 169/169/169 168/168/168 167/167/167
f 172/172/172 171/171/171 170/170/170
f 173/173/173 172/172/172 170/170/170
f 174/174/174 172/172/172 173/173/173
f 175/175/175 174/174/174 173/173/173
f 178/178/178 177/177/177 176/176/176
f 179/179/179 178/178/178 176/176/176
f 180/180/180 178/178/178 179/179/179
f 181/181/181 180/180/180 179/179/179
f 149/149/149 180/180/180 181/181/181
f 148/148/148 149/149/149 181/181/181
f 184/184/184 183/183/183 182/182/182
f 185/185/185 184/184/184 182/182/182
f 186/186/186 184/184/184 185/185/185
f 187/187/187 186/186/186 185/185/185
f 186/186/186 187/187/187 188/188/188
f 189/189/189 186/186/186 188/188/188
f 189/189/189 188/188/188 190/190/190
f 191/191/191 189/189/189 190/190/190
f 194/194/194 193/193/193 192/192/192
f 195/195/195 194/194/194 192/192/192
f 192/192/192 196/196/196 195/195/195
f 196/196/196 197/197/197 195/195/195
f 196/196/196 198/198/198 197/197/197
f 198/198/198 199/199/199 197/197/197
f 198/198/198 200/200/200 199/199/199
f 200/200/200 201/201/201 199/199/199
f 204/204/204 203/203/203 202/202/202
f 205/205/205 204/204/204 202/202/202
f 205/205/205 202/202/202 206/206/206
f 207/207/207 205/205/205 206/206/206
f 207/207/207 206/206/206 208/208/208
f 209/209/209 207/207/207 208/208/208
f 209/209/209 208/208/208 210/210/210
f 211/211/211 209/209/209 210/210/210
f 211/211/211 210/210/210 212/212/212
f 213/213/213 211/211/211 212/212/212
f 213/213/213 212/212/212 214/214/214
f 215/215/215 213/213/213 214/214/214
f 215/215/215 214/214/214 216/216/216
f 217/217/217 215/215/215 216/216/216
f 218/218/218 217/217/217 216/216/216
f 219/219/219 218/218/218 216/216/216
f 220/220/220 218/218/218 219/219/219
f 221/221/221 220/220/220 219/219/219
f 222/222/222 220/220/220 221/221/221
f 223/223/223 222/222/222 221/221/221
f 224/224/224 222/222/222 223/223/223
f 225/225/225 224/224/224 223/223/223
f 226/226/226 224/224/224 225/225/225
f 227/227/227 226/226/226 225/225/225
f 228/228/228 226/226/226 227/227/227
f 229/229/229 228/228/228 227/227/227
f 230/230/230 228/228/228 229/229/229
f 231/231/231 230/230/230 229/229/229
f 234/234/234 233/233/233 232/232/232
f 235/235/235 234/234/234 232/232/232
f 238/238/238 237/237/237 236/236/236
f 237/237/237 239/239/239 236/236/236
f 237/237/237 240/240/240 239/239/239
f 240/240/240 241/241/241 239/239/239
f 240/240/240 242/242/242 241/241/241
f 242/242/242 243/243/243 241/241/241
f 242/242/242 244/244/244 243/243/243
f 244/244/244 245/245/245 243/243/243
f 244/244/244 246/246/246 245/245/245
f 246/246/246 247/247/247 245/245/245
f 246/246/246 248/248/248 247/247/247
f 248/248/248 249/249/249 247/247/247
f 248/248/248 250/250/250 249/249/249
f 250/250/250 251/251/251 249/249/249
f 251/251/251 250/250/250 252/252/252
f 253/253/253 251/251/251 252/252/252
f 253/253/253 252/252/252 254/254/254
f 252/252/252 255/255/255 254/254/254
f 254/254/254 255/255/255 256/256/256
f 255/255/255 257/257/257 256/256/256
f 256/256/256 257/257/257 258/258/258
f 257/257/257 259/259/259 258/258/258
f 258/258/258 259/259/259 260/260/260
f 259/259/259 261/261/261 260/260/260
f 260/260/260 261/261/261 262/262/262
f 261/261/261 263/263/263 262/262/262
f 262/262/262 263/263/263 264/264/264
f 263/263/263 265/265/265 264/264/264
f 268/268/268 267/267/267 266/266/266
f 269/269/269 268/268/268 266/266/266
f 269/269/269 266/266/266 270/270/270
f 273/273/273 272/272/272 271/271/271
f 274/274/274 273/273/273 271/271/271
f 274/274/274 271/271/271 275/275/275
f 276/276/276 274/274/274 275/275/275
f 276/276/276 275/275/275 277/277/277
f 278/278/278 276/276/276 277/277/277
f 278/278/278 277/277/277 279/279/279
f 280/280/280 278/278/278 279/279/279
f 280/280/280 279/279/279 281/281/281
f 282/282/282 280/280/280 281/281/281
f 284/284/284 283/283/283 201/201/201
f 200/200/200 284/284/284 201/201/201
f 287/287/287 286/286/286 285/285/285
f 286/286/286 288/288/288 285/285/285
f 289/289/289 285/285/285 288/288/288
f 290/290/290 289/289/289 288/288/288
f 293/293/293 292/292/292 291/291/291
f 294/294/294 293/293/293 291/291/291
f 297/297/297 296/296/296 295/295/295
f 296/296/296 298/298/298 295/295/295
f 295/295/295 298/298/298 270/270/270
f 298/298/298 299/299/299 270/270/270
f 299/299/299 269/269/269 270/270/270
f 302/302/302 301/301/301 300/300/300
f 301/301/301 303/303/303 300/300/300
f 300/300/300 303/303/303 304/304/304
f 303/303/303 305/305/305 304/304/304
f 304/304/304 305/305/305 306/306/306
f 305/305/305 307/307/307 306/306/306
f 306/306/306 307/307/307 308/308/308
f 307/307/307 309/309/309 308/308/308
f 308/308/308 309/309/309 310/310/310
f 309/309/309 311/311/311 310/310/310
f 312/312/312 286/286/286 287/287/287
f 313/313/313 312/312/312 287/287/287
f 314/314/314 312/312/312 313/313/313
f 315/315/315 314/314/314 313/313/313
f 316/316/316 314/314/314 315/315/315
f 317/317/317 316/316/316 315/315/315
f 320/320/320 319/319/319 318/318/318
f 321/321/321 320/320/320 318/318/318
f 322/322/322 320/320/320 321/321/321
f 323/323/323 322/322/322 321/321/321
f 322/322/322 323/323/323 324/324/324
f 325/325/325 322/322/322 324/324/324
f 322/322/322 325/325/325 326/326/326
f 327/327/327 325/325/325 324/324/324
f 328/328/328 327/327/327 324/324/324
f 327/327/327 328/328/328 329/329/329
f 328/328/328 330/330/330 329/329/329
f 329/329/329 330/330/330 331/331/331
f 332/332/332 329/329/329 331/331/331
f 335/335/335 334/334/334 333/333/333
f 336/336/336 335/335/335 333/333/333
f 337/337/337 335/335/335 336/336/336
f 338/338/338 337/337/337 336/336/336
f 337/337/337 338/338/338 318/318/318
f 319/319/319 337/337/337 318/318/318
f 339/339/339 332/332/332 331/331/331
f 340/340/340 339/339/339 331/331/331
f 339/339/339 340/340/340 341/341/341
f 340/340/340 342/342/342 341/341/341
f 341/341/341 342/342/342 333/333/333
f 334/334/334 341/341/341 333/333/333
f 344/344/344 327/327/327 343/343/343
f 327/327/327 329/329/329 343/343/343
f 343/343/343 329/329/329 345/345/345
f 347/347/347 339/339/339 346/346/346
f 339/339/339 341/341/341 346/346/346
f 346/346/346 341/341/341 348/348/348
f 341/341/341 334/334/334 348/348/348
f 348/348/348 334/334/334 349/349/349
f 334/334/334 335/335/335 349/349/349
f 349/349/349 335/335/335 350/350/350
f 335/335/335 337/337/337 350/350/350
f 350/350/350 337/337/337 351/351/351
f 325/325/325 327/327/327 344/344/344
f 326/326/326 325/325/325 344/344/344
f 352/352/352 322/322/322 326/326/326
f 320/320/320 322/322/322 352/352/352
f 353/353/353 320/320/320 352/352/352
f 319/319/319 320/320/320 353/353/353
f 351/351/351 319/319/319 353/353/353
f 337/337/337 319/319/319 351/351/351
f 332/332/332 339/339/339 347/347/347
f 345/345/345 332/332/332 347/347/347
f 329/329/329 332/332/332 345/345/345
f 356/356/356 355/355/355 354/354/354
f 355/355/355 357/357/357 354/354/354
f 357/357/357 358/358/358 354/354/354
f 358/358/358 359/359/359 354/354/354
f 362/362/362 361/361/361 360/360/360
f 363/363/363 362/362/362 360/360/360
f 364/364/364 363/363/363 360/360/360
f 28/28/28 364/364/364 360/360/360
f 364/364/364 28/28/28 26/26/26
f 26/26/26 365/365/365 364/364/364
f 363/363/363 366/366/366 362/362/362
f 366/366/366 367/367/367 362/362/362
f 368/368/368 367/367/367 366/366/366
f 369/369/369 368/368/368 366/366/366
f 370/370/370 369/369/369 366/366/366
f 365/365/365 371/371/371 370/370/370
f 364/364/364 372/372/372 363/363/363
f 372/372/372 366/366/366 363/363/363
f 372/372/372 370/370/370 366/366/366
f 365/365/365 372/372/372 364/364/364
f 372/372/372 365/365/365 370/370/370
f 356/356/356 373/373/373 355/355/355
f 373/373/373 374/374/374 355/355/355
f 374/374/374 375/375/375 355/355/355
f 375/375/375 376/376/376 355/355/355
f 355/355/355 376/376/376 357/357/357
f 376/376/376 375/375/375 377/377/377
f 375/375/375 378/378/378 377/377/377
f 376/376/376 379/379/379 357/357/357
f 376/376/376 377/377/377 379/379/379
f 357/357/357 379/379/379 358/358/358
f 377/377/377 31/31/31 379/379/379
f 379/379/379 29/29/29 358/358/358
f 379/379/379 31/31/31 29/29/29
f 382/382/382 381/381/381 380/380/380
f 383/383/383 382/382/382 380/380/380
f 382/382/382 383/383/383 384/384/384
f 383/383/383 380/380/380 385/385/385
f 380/380/380 386/386/386 385/385/385
f 383/383/383 387/387/387 384/384/384
f 388/388/388 384/384/384 387/387/387
f 389/389/389 388/388/388 387/387/387
f 389/389/389 387/387/387 390/390/390
f 387/387/387 383/383/383 391/391/391
f 387/387/387 391/391/391 390/390/390
f 383/383/383 385/385/385 391/391/391
f 391/391/391 392/392/392 390/390/390
f 391/391/391 385/385/385 392/392/392
f 392/392/392 393/393/393 390/390/390
f 385/385/385 394/394/394 392/392/392
f 385/385/385 386/386/386 394/394/394
f 386/386/386 395/395/395 394/394/394
f 21/21/21 20/20/20 18/18/18
f 396/396/396 20/20/20 21/21/21
f 397/397/397 396/396/396 21/21/21
f 398/398/398 396/396/396 397/397/397
f 399/399/399 398/398/398 397/397/397
f 32/32/32 399/399/399 397/397/397
f 400/400/400 397/397/397 21/21/21
f 400/400/400 32/32/32 397/397/397
f 22/22/22 400/400/400 21/21/21
f 400/400/400 34/34/34 32/32/32
f 34/34/34 400/400/400 22/22/22
f 24/24/24 34/34/34 22/22/22
f 403/403/403 402/402/402 401/401/401
f 402/402/402 404/404/404 401/401/401
f 401/401/401 404/404/404 405/405/405
f 404/404/404 406/406/406 405/405/405
f 405/405/405 406/406/406 407/407/407
f 406/406/406 408/408/408 407/407/407
f 411/411/411 410/410/410 409/409/409
f 412/412/412 411/411/411 409/409/409
f 413/413/413 411/411/411 412/412/412
f 414/414/414 413/413/413 412/412/412
f 417/417/417 416/416/416 415/415/415
f 418/418/418 417/417/417 415/415/415
f 419/419/419 417/417/417 418/418/418
f 420/420/420 419/419/419 418/418/418
f 421/421/421 419/419/419 420/420/420
f 422/422/422 421/421/421 420/420/420
f 423/423/423 421/421/421 422/422/422
f 424/424/424 423/423/423 422/422/422
f 425/425/425 423/423/423 424/424/424
f 426/426/426 425/425/425 424/424/424
f 427/427/427 425/425/425 426/426/426
f 428/428/428 427/427/427 426/426/426
f 431/431/431 430/430/430 429/429/429
f 432/432/432 431/431/431 429/429/429
f 433/433/433 431/431/431 432/432/432
f 434/434/434 433/433/433 432/432/432
f 437/437/437 436/436/436 435/435/435
f 438/438/438 437/437/437 435/435/435
f 439/439/439 437/437/437 438/438/438
f 440/440/440 439/439/439 438/438/438
f 408/408/408 439/439/439 440/440/440
f 407/407/407 408/408/408 440/440/440
f 443/443/443 442/442/442 441/441/441
f 442/442/442 444/444/444 441/441/441
f 441/441/441 444/444/444 445/445/445
f 444/444/444 446/446/446 445/445/445
f 445/445/445 446/446/446 447/447/447
f 446/446/446 448/448/448 447/447/447
f 447/447/447 448/448/448 449/449/449
f 448/448/448 450/450/450 449/449/449
f 453/453/453 452/452/452 451/451/451
f 454/454/454 453/453/453 451/451/451
f 455/455/455 453/453/453 454/454/454
f 456/456/456 455/455/455 454/454/454
f 459/459/459 458/458/458 457/457/457
f 460/460/460 459/459/459 457/457/457
f 461/461/461 459/459/459 460/460/460
f 462/462/462 461/461/461 460/460/460
f 463/463/463 461/461/461 462/462/462
f 464/464/464 463/463/463 462/462/462
f 465/465/465 463/463/463 464/464/464
f 466/466/466 465/465/465 464/464/464
f 467/467/467 465/465/465 466/466/466
f 468/468/468 467/467/467 466/466/466
f 469/469/469 467/467/467 468/468/468
f 470/470/470 469/469/469 468/468/468
f 473/473/473 472/472/472 471/471/471
f 474/474/474 473/473/473 471/471/471
f 475/475/475 473/473/473 474/474/474
f 476/476/476 475/475/475 474/474/474
f 479/479/479 478/478/478 477/477/477
f 480/480/480 479/479/479 477/477/477
f 450/450/450 479/479/479 480/480/480
f 449/449/449 450/450/450 480/480/480
f 483/483/483 482/482/482 481/481/481
f 482/482/482 484/484/484 481/481/481
f 485/485/485 483/483/483 481/481/481
f 484/484/484 486/486/486 481/481/481
f 487/487/487 485/485/485 481/481/481
f 486/486/486 488/488/488 481/481/481
f 489/489/489 487/487/487 481/481/481
f 488/488/488 490/490/490 481/481/481
f 491/491/491 489/489/489 481/481/481
f 490/490/490 492/492/492 481/481/481
f 493/493/493 491/491/491 481/481/481
f 492/492/492 494/494/494 481/481/481
f 495/495/495 493/493/493 481/481/481
f 494/494/494 496/496/496 481/481/481
f 497/497/497 495/495/495 481/481/481
f 496/496/496 497/497/497 481/481/481
f 500/500/500 499/499/499 498/498/498
f 501/501/501 500/500/500 498/498/498
f 499/499/499 500/500/500 502/502/502
f 500/500/500 501/501/501 503/503/503
f 500/500/500 504/504/504 502/502/502
f 505/505/505 500/500/500 503/503/503
f 504/504/504 500/500/500 506/506/506
f 500/500/500 505/505/505 507/507/507
f 500/500/500 508/508/508 506/506/506
f 509/509/509 500/500/500 507/507/507
f 508/508/508 500/500/500 510/510/510
f 500/500/500 509/509/509 511/511/511
f 500/500/500 512/512/512 510/510/510
f 513/513/513 500/500/500 511/511/511
f 512/512/512 500/500/500 514/514/514
f 500/500/500 513/513/513 514/514/514
f 517/517/517 516/516/516 515/515/515
f 518/518/518 517/517/517 515/515/515
f 515/515/515 516/516/516 519/519/519
f 520/520/520 517/517/517 518/518/518
f 516/516/516 521/521/521 519/519/519
f 522/522/522 520/520/520 518/518/518
f 519/519/519 521/521/521 523/523/523
f 524/524/524 520/520/520 522/522/522
f 521/521/521 525/525/525 523/523/523
f 526/526/526 524/524/524 522/522/522
f 523/523/523 525/525/525 527/527/527
f 528/528/528 524/524/524 526/526/526
f 525/525/525 529/529/529 527/527/527
f 530/530/530 528/528/528 526/526/526
f 527/527/527 529/529/529 531/531/531
f 532/532/532 528/528/528 530/530/530
f 529/529/529 533/533/533 531/531/531
f 534/534/534 532/532/532 530/530/530
f 531/531/531 533/533/533 535/535/535
f 536/536/536 532/532/532 534/534/534
f 533/533/533 537/537/537 535/535/535
f 538/538/538 536/536/536 534/534/534
f 535/535/535 537/537/537 539/539/539
f 540/540/540 536/536/536 538/538/538
f 537/537/537 541/541/541 539/539/539
f 542/542/542 540/540/540 538/538/538
f 539/539/539 541/541/541 543/543/543
f 544/544/544 540/540/540 542/542/542
f 541/541/541 545/545/545 543/543/543
f 546/546/546 544/544/544 542/542/542
f 543/543/543 545/545/545 546/546/546
f 545/545/545 544/544/544 546/546/546

