mtllib material.mtl
usemtl material_0
v 0.00126046 0.01051162 -0.01822510
v -0.00246165 0.01051162 -0.01818524
v -0.00270662 0.00860238 -0.02011827
v -0.02041012 0.00652907 -0.01002780
v -0.01920961 0.00860238 -0.00945222
v -0.02070230 0.00860238 -0.00573027
v -0.02199806 0.00652907 -0.00607388
v -0.02277294 0.00492031 -0.00630157
v -0.02270523 0.00652907 -0.00186176
v -0.02112630 0.00492054 -0.01039366
v -0.02136794 0.00860238 -0.00176850
v -0.02119807 0.00860238 0.00226447
v -0.01919192 0.01051161 -0.00161464
v -0.01904062 0.01051161 0.00200279
v -0.01813394 0.01051162 0.00552879
v -0.02139382 0.00440564 -0.01058995
v -0.01865227 0.00492012 -0.01406264
v -0.01888756 0.00440395 -0.01431289
v -0.02306709 0.00440470 -0.00644674
v -0.02378788 0.00440745 -0.00203639
v -0.02349968 0.00492100 -0.00194169
v -0.02330837 0.00492131 0.00250237
v -0.02358629 0.00440866 0.00246837
v -0.02249488 0.00440307 0.00688752
v -0.02252362 0.00652907 0.00242772
v -0.02144781 0.00652907 0.00660660
v -0.02220344 0.00491990 0.00683921
v -0.02023735 0.00491828 0.01087552
v -0.02053406 0.00439668 0.01100426
v -0.01769104 0.00439546 0.01458742
v -0.02018679 0.00860238 0.00619425
v -0.01839148 0.00860238 0.00985524
v -0.01652303 0.01051162 0.00881774
v -0.01425888 0.01051162 0.01172968
v -0.01586859 0.00860238 0.01308965
v -0.01685700 0.00652907 0.01392803
v -0.01953907 0.00652907 0.01049641
v -0.01745017 0.00491797 0.01442017
v -0.01389269 0.00491823 0.01729067
v -0.01404508 0.00439648 0.01747141
v -0.01696620 0.00860238 -0.01279195
v -0.01802243 0.00652907 -0.01357214
v -0.01492446 0.00652907 -0.01656742
v -0.01405529 0.00860238 -0.01561702
v -0.01061168 0.00860238 -0.01782680
v -0.01545031 0.00491743 -0.01715777
v -0.01158727 0.00491538 -0.01931261
v -0.01566921 0.00439330 -0.01744847
v -0.01176338 0.00438522 -0.01958712
v -0.00736619 0.00439124 -0.02091585
v -0.01122296 0.00652907 -0.01877363
v -0.00708630 0.00652907 -0.02016765
v -0.00727555 0.00491691 -0.02066945
v -0.00284151 0.00491981 -0.02167431
v -0.00285071 0.00440272 -0.02193260
v 0.00162513 0.00441100 -0.02241202
v -0.00675413 0.00860238 -0.01926783
v -0.00611229 0.01051162 -0.01745513
v -0.00280250 0.00652907 -0.02111637
v 0.00150880 0.00652907 -0.02142348
v 0.00140948 0.00860238 -0.02022269
v 0.00546339 0.00860238 -0.01951671
v 0.00158523 0.00492190 -0.02211117
v 0.00600152 0.00492382 -0.02141493
v 0.00607715 0.00441860 -0.02172526
v 0.00580035 0.00652907 -0.02069671
v 0.00985650 0.00652907 -0.01916762
v 0.00929121 0.00860238 -0.01807389
v 0.01018491 0.00492620 -0.01983039
v 0.01407114 0.00492739 -0.01771738
v 0.01277783 0.00860238 -0.01598831
v 0.01359383 0.00652907 -0.01705658
v 0.01725217 0.00652907 -0.01531096
v 0.01608891 0.00860238 -0.01400947
v 0.01429655 0.01051162 -0.01214682
v 0.01150348 0.01051162 -0.01438236
v 0.00836821 0.01051162 -0.01628768
v 0.00980532 0.01218725 -0.01226415
v 0.01210969 0.01218725 -0.01017562
v 0.00954323 0.01355973 -0.00803359
v 0.01398442 0.01218725 -0.00774928
v 0.01669558 0.01051162 -0.00976803
v 0.01100606 0.01355973 -0.00609326
v 0.00777528 0.01456472 -0.00434062
v 0.00491501 0.01051162 -0.01758877
v 0.00418211 0.01218725 -0.01499787
v 0.00712895 0.01218725 -0.01388862
v 0.00561517 0.01355973 -0.01095638
v 0.00772624 0.01355973 -0.00967751
v 0.00546048 0.01456472 -0.00686505
v 0.00688445 0.01454686 -0.00582405
v 0.00451850 0.01506644 -0.00386395
v 0.00455432 0.01513790 -0.00260141
v 0.00007212 0.01554876 -0.00018877
v 0.00569818 0.01506644 -0.00193632
v 0.00522592 0.01513790 -0.00076841
v 0.00602798 0.01506644 0.00025520
v 0.00511770 0.01513790 0.00115165
v 0.00545606 0.01506644 0.00237837
v 0.00424370 0.01513790 0.00286784
v 0.00406517 0.01506644 0.00411184
v 0.00273340 0.01513790 0.00412048
v 0.00206269 0.01506644 0.00519370
v 0.00081399 0.01513790 0.00471984
v -0.00024877 0.01506644 0.00545971
v -0.00122291 0.01513790 0.00457382
v -0.00251645 0.01506644 0.00486685
v -0.00306538 0.01513790 0.00370181
v -0.00533128 0.01456472 0.00651804
v -0.00439162 0.01506644 0.00350102
v -0.00442969 0.01513790 0.00223373
v -0.00768986 0.01456472 0.00399320
v -0.00389578 0.01454685 0.00757061
v -0.00544790 0.01355973 0.01062245
v -0.00761437 0.01355973 0.00936392
v -0.00948189 0.01355973 0.00772716
v -0.00971746 0.01218725 0.01199472
v -0.01210461 0.01218725 0.00991909
v -0.01402365 0.01218725 0.00744079
v -0.00678177 0.01454685 0.00548176
v -0.00558446 0.01506644 0.00156750
v -0.01098290 0.01355973 0.00577944
v -0.01205030 0.01355973 0.00359066
v -0.01538868 0.01218725 0.00464867
v -0.01615637 0.01218725 0.00165973
v -0.00861831 0.01454685 0.00251354
v -0.00885714 0.01456472 0.00081694
v -0.00510514 0.01513790 0.00039268
v -0.01265035 0.01355972 0.00125117
v -0.01274986 0.01355973 -0.00114692
v -0.00591041 0.01506644 -0.00063767
v -0.01628380 0.01218725 -0.00140548
v -0.01577727 0.01218724 -0.00442007
v -0.00911898 0.01454685 -0.00087761
v -0.00865141 0.01456472 -0.00251735
v -0.00498769 0.01513790 -0.00153845
v -0.00531991 0.01506644 -0.00277409
v -0.01235434 0.01355972 -0.00350669
v -0.01147051 0.01355973 -0.00573219
v -0.00409673 0.01513790 -0.00326223
v -0.00710717 0.01456472 -0.00548948
v -0.00390639 0.01506644 -0.00451276
v -0.00257158 0.01513790 -0.00451465
v -0.00447035 0.01456472 -0.00764269
v -0.00820677 0.01454685 -0.00416189
v -0.00189047 0.01506644 -0.00558890
v -0.00602808 0.01454685 -0.00682950
v -0.00841948 0.01355973 -0.00944606
v -0.01014345 0.01355972 -0.00773928
v -0.01294469 0.01218725 -0.00981544
v -0.01464489 0.01218725 -0.00725939
v -0.01725609 0.01051161 -0.00851447
v -0.01859421 0.01051161 -0.00517019
v -0.01524617 0.01051161 -0.01151982
v -0.01263778 0.01051162 -0.01406580
v -0.01073746 0.01218725 -0.01198476
v -0.00812417 0.01218725 -0.01369590
v -0.00955274 0.01051162 -0.01607079
v -0.00637581 0.01355973 -0.01079493
v -0.00408924 0.01355973 -0.01172937
v -0.00520526 0.01218725 -0.01487900
v -0.00210255 0.01218725 -0.01550406
v -0.00292809 0.01454685 -0.00847561
v -0.00115500 0.01456472 -0.00865472
v 0.00106635 0.01218725 -0.01553970
v 0.00083784 0.01355973 -0.01225469
v -0.00165402 0.01355973 -0.01222443
v -0.00064820 0.01513790 -0.00510613
v 0.00041719 0.01506644 -0.00584148
v 0.00329176 0.01355973 -0.01182930
v 0.00232954 0.01456472 -0.00837995
v 0.00061106 0.01454686 -0.00885810
v 0.00137938 0.01513790 -0.00494905
v 0.00405229 0.01454686 -0.00792621
v 0.00266601 0.01506644 -0.00523521
v 0.00320476 0.01513790 -0.00406929
v 0.01835690 0.01051162 -0.00675409
v 0.01533854 0.01218725 -0.00504161
v 0.01205301 0.01355973 -0.00392526
v 0.01608120 0.01218725 -0.00204417
v 0.00869029 0.01454686 -0.00286995
v 0.00893158 0.01456472 -0.00118877
v 0.01265258 0.01355973 -0.00161611
v 0.01277150 0.01355973 0.00074731
v 0.00920029 0.01454686 0.00048855
v 0.00875327 0.01456472 0.00211238
v 0.00833178 0.01454686 0.00374165
v 0.00725940 0.01456472 0.00506221
v 0.01157687 0.01355973 0.00527216
v 0.01241229 0.01355973 0.00307372
v 0.01585512 0.01218725 0.00377648
v 0.01626524 0.01218725 0.00090525
v 0.01942468 0.01051162 0.00031781
v 0.01914557 0.01051162 -0.00301989
v 0.02163394 0.00860238 -0.00425456
v 0.02083117 0.00860238 -0.00859087
v 0.02197513 0.00860238 -0.00060194
v 0.02162832 0.00860238 0.00274503
v 0.01903771 0.01051162 0.00348982
v 0.01769921 0.01051162 0.00703494
v 0.02008673 0.00860238 0.00683761
v 0.01754583 0.00860238 0.01120782
v 0.01556074 0.01051162 0.01059954
v 0.01293538 0.01051162 0.01345758
v 0.01311403 0.01218725 0.00927760
v 0.01476922 0.01218725 0.00664790
v 0.01030354 0.01355973 0.00726193
v 0.00863084 0.01355973 0.00896323
v 0.00620668 0.01454686 0.00639721
v 0.00466721 0.01456472 0.00721607
v 0.00662807 0.01355973 0.01031880
v 0.00436506 0.01355973 0.01127140
v 0.00313894 0.01454686 0.00805655
v 0.00136400 0.01456472 0.00825113
v -0.00040929 0.01454686 0.00847045
v -0.00214881 0.01456472 0.00800927
v -0.00307298 0.01355973 0.01146566
v -0.00058004 0.01355973 0.01185702
v 0.01099156 0.01218725 0.01143844
v 0.00844676 0.01218725 0.01315993
v 0.00556785 0.01218725 0.01437128
v 0.00656543 0.01051162 0.01689791
v 0.00246905 0.01218725 0.01503948
v 0.00994812 0.01051162 0.01547619
v 0.01107451 0.00860238 0.01719549
v 0.01441970 0.00860238 0.01488816
v 0.00731696 0.00860238 0.01877275
v 0.00326528 0.00860238 0.01965060
v 0.00778114 0.00652907 0.01991784
v 0.00347995 0.00652907 0.02085065
v -0.00097674 0.00652907 0.02099767
v 0.00292080 0.01051162 0.01768613
v -0.00085015 0.01051162 0.01779951
v -0.00093046 0.00860238 0.01978425
v -0.00510548 0.00860238 0.01917799
v -0.00459958 0.01051162 0.01724258
v -0.00817666 0.01051162 0.01601397
v -0.00391555 0.01218725 0.01464294
v -0.00909077 0.00860238 0.01782779
v -0.01273020 0.00860238 0.01578192
v -0.00963241 0.00652907 0.01892664
v -0.01350508 0.00652907 0.01676738
v -0.01144255 0.01051162 0.01416042
v -0.00694893 0.01218725 0.01358398
v -0.00073385 0.01218725 0.01512848
v 0.00193197 0.01355973 0.01179375
v -0.00541375 0.00652907 0.02036298
v -0.00559909 0.00491869 0.02106699
v -0.00987378 0.00491831 0.01951590
v -0.00996150 0.00439677 0.01972449
v -0.00567418 0.00439830 0.02132550
v -0.00100955 0.00440301 0.02194285
v -0.00100234 0.00491988 0.02170787
v 0.00361259 0.00492096 0.02154317
v 0.00367118 0.00440728 0.02174730
v 0.00818239 0.00440747 0.02076753
v 0.00806387 0.00492101 0.02057712
v 0.02510364 0.00439372 -0.00216810
v 0.02464397 0.00491754 -0.00189909
v 0.02425978 0.00491589 -0.00588115
v 0.02474977 0.00438721 -0.00621003
v 0.02386780 0.00439659 -0.01120938
v 0.02343329 0.00491826 -0.01082299
v 0.02124845 0.00492232 -0.01414812
v 0.02244224 0.00652908 -0.00996006
v 0.02157065 0.00441265 -0.01452023
v 0.02324278 0.00652908 -0.00522583
v 0.01892537 0.00860238 -0.01178915
v 0.01814883 0.00442614 -0.01641194
v 0.02037832 0.00652907 -0.01324677
v 0.01793448 0.00492573 -0.01610520
v 0.01420742 0.00443272 -0.01797999
v 0.01028664 0.00442802 -0.02010897
v 0.01218730 0.00492085 0.01885064
v 0.01235682 0.00440683 0.01902468
v 0.01616886 0.00440860 0.01620203
v 0.01176807 0.00652907 0.01824593
v 0.01536932 0.00652907 0.01567387
v 0.01594455 0.00492130 0.01610458
v 0.01959130 0.00492175 0.01153414
v 0.01988056 0.00441041 0.01150470
v 0.02290595 0.00440987 0.00614860
v 0.01882502 0.00652908 0.01143307
v 0.02163446 0.00652908 0.00651179
v 0.02256021 0.00492162 0.00628632
v 0.02431968 0.00492038 0.00161991
v 0.02471271 0.00440499 0.00141707
v 0.02361819 0.00652908 -0.00136847
v 0.02330849 0.00652907 0.00205842
vn 0.05259384 0.79083170 -0.60976960
vn -0.06919439 0.78717150 -0.61284020
vn -0.10403930 0.58755840 -0.80246560
vn -0.78259060 0.46981620 -0.40844170
vn -0.69292530 0.62354740 -0.36199880
vn -0.75023840 0.62353190 -0.21988720
vn -0.84782060 0.46871830 -0.24799890
vn -0.85238690 0.46140650 -0.24605020
vn -0.88080260 0.46705960 -0.07773044
vn -0.78267470 0.47201440 -0.40573710
vn -0.77870610 0.62354740 -0.06932128
vn -0.77726980 0.62354290 0.08393963
vn -0.60807660 0.79203190 -0.05411287
vn -0.60694950 0.79203340 0.06553837
vn -0.58248360 0.79204460 0.18269690
vn -0.44106220 0.86643110 -0.23401140
vn -0.68415480 0.48363580 -0.54592000
vn -0.37866140 0.87221000 -0.30962110
vn -0.48577200 0.86189070 -0.14549950
vn -0.52014890 0.85264840 -0.04935381
vn -0.89216440 0.44550660 -0.07460897
vn -0.89433940 0.43641560 0.09847972
vn -0.53112580 0.84562520 0.05313554
vn -0.50493890 0.84934810 0.15376790
vn -0.87960140 0.46608850 0.09519999
vn -0.84385940 0.46697100 0.26427160
vn -0.85484020 0.44544460 0.26613440
vn -0.78098880 0.45484670 0.42798470
vn -0.45533620 0.85507520 0.24802270
vn -0.40205400 0.84644830 0.34911020
vn -0.74595250 0.62354120 0.23398950
vn -0.68598650 0.62352610 0.37501710
vn -0.53564450 0.79204610 0.29282760
vn -0.46822200 0.79204460 0.39170580
vn -0.59966950 0.62289240 0.50239580
vn -0.67768810 0.46010950 0.57361840
vn -0.77541920 0.46784310 0.42408480
vn -0.68088210 0.43539330 0.58892460
vn -0.56422820 0.39991370 0.72229870
vn -0.34616180 0.82520860 0.44632120
vn -0.60898460 0.62354300 -0.49023660
vn -0.68745100 0.47109350 -0.55270430
vn -0.55728660 0.45996020 -0.69128020
vn -0.50032750 0.61836030 -0.60605520
vn -0.36831750 0.59835990 -0.71155290
vn -0.54260270 0.48525360 -0.68564650
vn -0.37465050 0.44574020 -0.81298990
vn -0.29041150 0.87872980 -0.37880750
vn -0.20759180 0.86305680 -0.46047620
vn -0.15155920 0.83619650 -0.52707230
vn -0.39758050 0.42056190 -0.81551050
vn -0.26174510 0.38440840 -0.88527940
vn -0.25332980 0.39952720 -0.88102330
vn -0.15140650 0.40610830 -0.90119490
vn -0.09395537 0.84200960 -0.53121780
vn 0.01266144 0.87109280 -0.49095510
vn -0.23712580 0.57961190 -0.77962890
vn -0.18374380 0.78584490 -0.59049630
vn -0.13679830 0.39827730 -0.90700690
vn 0.04714572 0.44255920 -0.89549920
vn 0.05782157 0.61177690 -0.78891430
vn 0.21947460 0.62278390 -0.75098010
vn 0.03028066 0.45366140 -0.89065960
vn 0.24175730 0.47917070 -0.84377060
vn 0.12842220 0.87666040 -0.46365330
vn 0.24573190 0.46721570 -0.84930870
vn 0.39407960 0.47834630 -0.78478410
vn 0.35522650 0.62816940 -0.69225510
vn 0.38981700 0.47992270 -0.78594960
vn 0.40126580 0.50414530 -0.76473730
vn 0.40461360 0.66244750 -0.63043730
vn 0.42313820 0.51781510 -0.74351970
vn 0.42390270 0.58921200 -0.68784860
vn 0.41017320 0.72193130 -0.55729090
vn 0.37091870 0.83842720 -0.39932350
vn 0.34832470 0.80585280 -0.47882270
vn 0.28163680 0.79260090 -0.54079990
vn 0.28000600 0.89162250 -0.35581740
vn 0.32442310 0.89956700 -0.29245310
vn 0.25136350 0.94455540 -0.21126160
vn 0.35905580 0.90883800 -0.21234930
vn 0.41416730 0.86406450 -0.28610870
vn 0.28672700 0.94482780 -0.15839180
vn 0.19086900 0.97605380 -0.10434500
vn 0.17170240 0.79203180 -0.58583610
vn 0.12844320 0.88963410 -0.43823920
vn 0.21145720 0.88964710 -0.40473930
vn 0.15224350 0.94439870 -0.29143290
vn 0.20656550 0.94417940 -0.25662420
vn 0.13640590 0.97605490 -0.16944090
vn 0.17042340 0.97500430 -0.14255760
vn 0.10629210 0.99035040 -0.08892669
vn 0.09635142 0.99395270 -0.05267383
vn -0.00000017 1.00000000 0.00000000
vn 0.13223470 0.99035040 -0.04147214
vn 0.10917050 0.99395320 -0.01178015
vn 0.13806550 0.99034670 0.01230661
vn 0.10537880 0.99395230 0.03088544
vn 0.12286500 0.99034670 0.06416944
vn 0.08553935 0.99395320 0.06884761
vn 0.08892647 0.99035040 0.10629220
vn 0.05267361 0.99395260 0.09635153
vn 0.04147192 0.99035040 0.13223480
vn 0.01177992 0.99395320 0.10917060
vn -0.01230683 0.99034670 0.13806560
vn -0.03088567 0.99395230 0.10537890
vn -0.06416965 0.99034660 0.12286510
vn -0.06884782 0.99395320 0.08553945
vn -0.13640630 0.97605490 0.16944070
vn -0.10629240 0.99035040 0.08892660
vn -0.09635177 0.99395260 0.05267373
vn -0.19086930 0.97605380 0.10434490
vn -0.10289030 0.97500090 0.19694390
vn -0.15224390 0.94439870 0.29143280
vn -0.20656580 0.94417940 0.25662410
vn -0.25218660 0.94439820 0.21098370
vn -0.28637010 0.88963360 0.35573040
vn -0.35026620 0.88963600 0.29302070
vn -0.40068770 0.88964430 0.21904900
vn -0.17042370 0.97500410 0.14255740
vn -0.13223500 0.99035040 0.04147204
vn -0.28906550 0.94417620 0.15802710
vn -0.31373610 0.94439820 0.09839636
vn -0.43573820 0.88963600 0.13667430
vn -0.45403480 0.88963360 0.04903604
vn -0.21199950 0.97500410 0.06650651
vn -0.21626660 0.97605490 0.02335921
vn -0.10917090 0.99395320 0.01178005
vn -0.32752910 0.94417930 0.03535629
vn -0.32750720 0.94439860 -0.02916131
vn -0.13806580 0.99034660 -0.01230671
vn -0.45485120 0.88964700 -0.04047975
vn -0.43823920 0.88963400 -0.12844340
vn -0.22132610 0.97500090 -0.01970053
vn -0.20875250 0.97605270 -0.06118321
vn -0.10537910 0.99395230 -0.03088554
vn -0.12286530 0.99034660 -0.06416953
vn -0.31615700 0.94417080 -0.09266239
vn -0.29143300 0.94439860 -0.15224380
vn -0.08553967 0.99395320 -0.06884771
vn -0.16944100 0.97605490 -0.13640620
vn -0.08892683 0.99035040 -0.10629230
vn -0.05267395 0.99395260 -0.09635162
vn -0.10434510 0.97605380 -0.19086920
vn -0.19694410 0.97500090 -0.10289020
vn -0.04147226 0.99035040 -0.13223490
vn -0.14255770 0.97500410 -0.17042360
vn -0.21098380 0.94439820 -0.25218640
vn -0.25662430 0.94417930 -0.20656570
vn -0.35573070 0.88963360 -0.28637000
vn -0.40473940 0.88964700 -0.21145750
vn -0.54108200 0.79203190 -0.28269370
vn -0.58583620 0.79203170 -0.17170260
vn -0.47554430 0.79203350 -0.38280620
vn -0.39165530 0.79180570 -0.46866790
vn -0.29302100 0.88963600 -0.35026620
vn -0.21904920 0.88964430 -0.40068760
vn -0.29186490 0.78941970 -0.54002900
vn -0.15802730 0.94417620 -0.28906540
vn -0.09839658 0.94439820 -0.31373600
vn -0.13667450 0.88963600 -0.43573800
vn -0.04903623 0.88963360 -0.45403460
vn -0.06650674 0.97500410 -0.21199930
vn -0.02335943 0.97605490 -0.21626640
vn 0.04047955 0.88964710 -0.45485110
vn 0.02916109 0.94439870 -0.32750710
vn -0.03535652 0.94417940 -0.32752900
vn -0.01178027 0.99395320 -0.10917070
vn 0.01230649 0.99034660 -0.13806570
vn 0.09266217 0.94417080 -0.31615690
vn 0.06118300 0.97605280 -0.20875240
vn 0.01970031 0.97500090 -0.22132600
vn 0.03088532 0.99395230 -0.10537900
vn 0.10289000 0.97500090 -0.19694400
vn 0.06416932 0.99034670 -0.12286520
vn 0.06884749 0.99395320 -0.08553955
vn 0.48832860 0.86014540 -0.14725860
vn 0.39895440 0.90893150 -0.12115620
vn 0.31140050 0.94527360 -0.09740449
vn 0.42538810 0.90404190 -0.04187005
vn 0.21199910 0.97500430 -0.06650662
vn 0.21626620 0.97605490 -0.02335932
vn 0.32595520 0.94474120 -0.03488821
vn 0.32592230 0.94497060 0.02837707
vn 0.22132570 0.97500090 0.01970043
vn 0.20875210 0.97605280 0.06118312
vn 0.19694370 0.97500090 0.10289010
vn 0.16944060 0.97605500 0.13640610
vn 0.29144870 0.94436480 0.15242220
vn 0.31502880 0.94454600 0.09267998
vn 0.42773410 0.89463370 0.12912780
vn 0.43298080 0.90065160 0.03680097
vn 0.55325500 0.83210010 0.03896688
vn 0.53296270 0.84467270 -0.04978656
vn 0.68729190 0.72388880 -0.06012438
vn 0.62903210 0.75315480 -0.19255270
vn 0.71225140 0.70079260 0.03984765
vn 0.72296780 0.65976730 0.20499900
vn 0.56219640 0.81015840 0.16606800
vn 0.54849140 0.78639550 0.28414650
vn 0.70312550 0.61561690 0.35585170
vn 0.64907490 0.59768970 0.47060450
vn 0.49926460 0.77846160 0.38043700
vn 0.40749030 0.78503020 0.46656100
vn 0.36259630 0.88647170 0.28756210
vn 0.40654920 0.88801390 0.21482350
vn 0.25700650 0.94410460 0.20643200
vn 0.21098360 0.94439820 0.25218640
vn 0.14255740 0.97500430 0.17042350
vn 0.10434470 0.97605380 0.19086910
vn 0.15802690 0.94417620 0.28906520
vn 0.09839626 0.94439820 0.31373590
vn 0.06650640 0.97500430 0.21199930
vn 0.02335910 0.97605490 0.21626630
vn -0.01970064 0.97500090 0.22132590
vn -0.06118334 0.97605280 0.20875230
vn -0.09266249 0.94417080 0.31615680
vn -0.02916142 0.94439870 0.32750700
vn 0.29650120 0.88853540 0.35013110
vn 0.21904890 0.88964440 0.40068750
vn 0.13667420 0.88963620 0.43573800
vn 0.18269680 0.79204480 0.58248350
vn 0.04903594 0.88963370 0.45403450
vn 0.29426020 0.79126910 0.53600760
vn 0.38120330 0.61984680 0.68591100
vn 0.53409870 0.60645770 0.58902260
vn 0.23398940 0.62354140 0.74595250
vn 0.08393954 0.62354310 0.77726970
vn 0.26502530 0.46294980 0.84583620
vn 0.09533763 0.46303340 0.88119840
vn -0.07793193 0.46454270 0.88211490
vn 0.06553828 0.79203360 0.60694930
vn -0.05411298 0.79203200 0.60807660
vn -0.06932136 0.62354760 0.77870590
vn -0.22058950 0.62285010 0.75059840
vn -0.17170270 0.79203180 0.58583600
vn -0.28269390 0.79203200 0.54108190
vn -0.12844360 0.88963410 0.43823900
vn -0.36334370 0.62138690 0.69416120
vn -0.49081590 0.62141310 0.61069260
vn -0.41882010 0.44574350 0.79114000
vn -0.55768180 0.44541760 0.70042430
vn -0.38280630 0.79203350 0.47554420
vn -0.21145760 0.88964710 0.40473920
vn -0.04047986 0.88964710 0.45485090
vn 0.03535617 0.94417940 0.32752890
vn -0.25393380 0.45975070 0.85096820
vn -0.26393630 0.42471210 0.86600080
vn -0.43389920 0.40011410 0.80724230
vn -0.27030100 0.82444620 0.49721830
vn -0.16094900 0.84284580 0.51352360
vn -0.04626841 0.83516350 0.54805210
vn -0.07689262 0.42034860 0.90409870
vn 0.09888218 0.40465480 0.90910770
vn 0.06300601 0.82604100 0.56007730
vn 0.17024450 0.82656740 0.53647290
vn 0.27172260 0.40389680 0.87351830
vn 0.41856560 0.90811480 0.01141993
vn 0.81112960 0.58323170 0.04369926
vn 0.77934440 0.62353310 -0.06187607
vn 0.40506010 0.91357800 -0.03607611
vn 0.32986900 0.93588680 -0.12370260
vn 0.71084590 0.66303580 -0.23469470
vn 0.54178390 0.65743350 -0.52369020
vn 0.73465090 0.63682880 -0.23395970
vn 0.25275360 0.93432460 -0.25130300
vn 0.80091600 0.59508590 -0.06638058
vn 0.50059260 0.76529530 -0.40463580
vn 0.20977360 0.89643240 -0.39038960
vn 0.56509540 0.64993210 -0.50818830
vn 0.39419620 0.57616760 -0.71598900
vn 0.23416440 0.85773010 -0.45767460
vn 0.21525470 0.86974160 -0.44408900
vn 0.45085340 0.40480030 0.79553000
vn 0.27779880 0.83286440 0.47871150
vn 0.39047210 0.83102580 0.39614080
vn 0.43648460 0.45795240 0.77444230
vn 0.61280430 0.44323510 0.65422750
vn 0.63236900 0.39446940 0.66671080
vn 0.75423260 0.39050020 0.52786630
vn 0.47147770 0.82310870 0.31654500
vn 0.48958380 0.84031460 0.23276400
vn 0.73622850 0.43499700 0.51840630
vn 0.79560100 0.45729950 0.39736170
vn 0.81036220 0.42075640 0.40777100
vn 0.83386530 0.49983340 0.23416920
vn 0.45625470 0.88308640 0.10949910
vn 0.82276950 0.56696500 0.04001142
vn 0.82727430 0.51413260 0.22646200
vt 0.62577090 0.53209580
vt 0.61785720 0.55827380
vt 0.63221000 0.56421900
vt 0.52105880 0.66626390
vt 0.51920190 0.65692900
vt 0.48895790 0.65993700
vt 0.48895800 0.66945650
vt 0.48912230 0.67518130
vt 0.45685710 0.66626390
vt 0.52233190 0.67186690
vt 0.45871390 0.65692900
vt 0.42962110 0.64813410
vt 0.46174420 0.64169490
vt 0.43556620 0.63378120
vt 0.41145970 0.62086640
vt 0.52324550 0.67407440
vt 0.55429700 0.66221760
vt 0.55567370 0.66432630
vt 0.48961420 0.67746470
vt 0.45608390 0.67399420
vt 0.45593820 0.67184660
vt 0.42399170 0.66217020
vt 0.42372880 0.66413840
vt 0.39362270 0.64837330
vt 0.42597810 0.65692900
vt 0.39754250 0.64169490
vt 0.39449460 0.64645930
vt 0.36858870 0.62536680
vt 0.36713020 0.62717420
vt 0.34561560 0.60101670
vt 0.40283030 0.63378130
vt 0.37931760 0.61452250
vt 0.39030280 0.60353720
vt 0.37297360 0.58238040
vt 0.36005880 0.59100970
vt 0.35214510 0.59629760
vt 0.37258630 0.62125380
vt 0.34741650 0.59954580
vt 0.33165960 0.57009840
vt 0.32966830 0.57110800
vt 0.54829490 0.64813410
vt 0.55193790 0.65692900
vt 0.58037350 0.64169490
vt 0.57508560 0.63378120
vt 0.59859840 0.61452250
vt 0.58374740 0.64654770
vt 0.60958700 0.62546990
vt 0.58559470 0.64872340
vt 0.61182510 0.62758200
vt 0.63318190 0.60121790
vt 0.60532960 0.62125380
vt 0.62577090 0.59629750
vt 0.63071930 0.59959660
vt 0.64644460 0.57008930
vt 0.64900370 0.57107250
vt 0.65862890 0.53858690
vt 0.61785720 0.59100970
vt 0.60494230 0.58238040
vt 0.64100500 0.56786200
vt 0.65033980 0.53698280
vt 0.64100500 0.53512600
vt 0.64401290 0.50488200
vt 0.65606260 0.53810980
vt 0.65932190 0.50491370
vt 0.66180110 0.50500900
vt 0.65353240 0.50488200
vt 0.65033980 0.47278120
vt 0.64100490 0.47463800
vt 0.65597050 0.47175720
vt 0.64629360 0.43985530
vt 0.63221000 0.44554500
vt 0.64100490 0.44190210
vt 0.62577090 0.41346660
vt 0.61785720 0.41875430
vt 0.60494230 0.42738380
vt 0.61785720 0.45149030
vt 0.62577090 0.47766830
vt 0.59859840 0.45946750
vt 0.58761310 0.43896270
vt 0.56645620 0.45309930
vt 0.57287300 0.42096690
vt 0.58761310 0.40622680
vt 0.55487720 0.43896270
vt 0.53531830 0.45852170
vt 0.62847740 0.50488200
vt 0.60763190 0.50488200
vt 0.60532960 0.48173420
vt 0.58037350 0.48669830
vt 0.57508560 0.46920680
vt 0.54953060 0.47979200
vt 0.54461750 0.46769150
vt 0.52524290 0.48063710
vt 0.51588890 0.47795110
vt 0.48895790 0.50488200
vt 0.51320280 0.46859700
vt 0.50353280 0.46969510
vt 0.49747150 0.46208090
vt 0.48895790 0.46679600
vt 0.48044420 0.46208090
vt 0.47438300 0.46969510
vt 0.46471300 0.46859700
vt 0.46202700 0.47795110
vt 0.45267290 0.48063710
vt 0.45377100 0.49030720
vt 0.44615680 0.49636840
vt 0.45087190 0.50488200
vt 0.44615680 0.51339570
vt 0.45377100 0.51945690
vt 0.42838530 0.52997210
vt 0.45267290 0.52912690
vt 0.46202700 0.53181290
vt 0.44259760 0.55124230
vt 0.42330300 0.51794170
vt 0.39754250 0.52306570
vt 0.40283030 0.54055730
vt 0.41145970 0.55666480
vt 0.37931760 0.55029660
vt 0.39030280 0.57080130
vt 0.40504290 0.58879720
vt 0.43329840 0.54207270
vt 0.46471300 0.54116710
vt 0.42303870 0.57080130
vt 0.43717520 0.58238040
vt 0.42303870 0.60353720
vt 0.44354340 0.61452250
vt 0.45176740 0.56054160
vt 0.46386790 0.56545470
vt 0.47438300 0.54006900
vt 0.45328270 0.59100970
vt 0.47077430 0.59629750
vt 0.48044420 0.54768320
vt 0.46581020 0.62125380
vt 0.48895790 0.62355600
vt 0.47589840 0.57053700
vt 0.48895790 0.57044540
vt 0.48895790 0.54296810
vt 0.49747160 0.54768320
vt 0.48895790 0.59810600
vt 0.50714160 0.59629750
vt 0.50353280 0.54006900
vt 0.51404790 0.56545470
vt 0.51320280 0.54116710
vt 0.51588890 0.53181290
vt 0.53531830 0.55124230
vt 0.50201760 0.57053700
vt 0.52524290 0.52912690
vt 0.52614850 0.56054160
vt 0.54074060 0.58238040
vt 0.52463320 0.59100970
vt 0.53437240 0.61452250
vt 0.51210570 0.62125380
vt 0.51617180 0.64169490
vt 0.48895790 0.64440160
vt 0.54234970 0.63378120
vt 0.56645620 0.62086640
vt 0.55487730 0.60353720
vt 0.57287310 0.58879720
vt 0.58761310 0.60353720
vt 0.55487730 0.57080130
vt 0.56645620 0.55666480
vt 0.58761310 0.57080130
vt 0.59859840 0.55029660
vt 0.54461750 0.54207270
vt 0.54953060 0.52997210
vt 0.60532960 0.52802980
vt 0.58037350 0.52306570
vt 0.57508560 0.54055730
vt 0.52414480 0.51945690
vt 0.53175900 0.51339570
vt 0.58218190 0.50488200
vt 0.55452130 0.50488200
vt 0.55461290 0.51794170
vt 0.52704390 0.50488200
vt 0.55461290 0.49182250
vt 0.53175900 0.49636840
vt 0.52414480 0.49030710
vt 0.56645620 0.38889760
vt 0.55487720 0.40622690
vt 0.54074060 0.42738380
vt 0.53437240 0.39524160
vt 0.52614850 0.44922240
vt 0.51404790 0.44430940
vt 0.52463320 0.41875440
vt 0.50714160 0.41346660
vt 0.50201750 0.43922700
vt 0.48895790 0.43931860
vt 0.47589840 0.43922700
vt 0.46386790 0.44430940
vt 0.47077420 0.41346660
vt 0.48895790 0.41165810
vt 0.48895790 0.38620810
vt 0.51210560 0.38851030
vt 0.51617170 0.36806910
vt 0.54234970 0.37598280
vt 0.54829480 0.36162990
vt 0.57508560 0.37598280
vt 0.51920190 0.35283500
vt 0.48895790 0.34982710
vt 0.48895790 0.36536250
vt 0.46174410 0.36806910
vt 0.45871380 0.35283500
vt 0.42962090 0.36163000
vt 0.43556610 0.37598290
vt 0.41145960 0.38889770
vt 0.44354330 0.39524170
vt 0.46581010 0.38851030
vt 0.45328260 0.41875440
vt 0.43717520 0.42738380
vt 0.45176730 0.44922240
vt 0.44259760 0.45852180
vt 0.42303860 0.43896280
vt 0.41145960 0.45309940
vt 0.43329830 0.46769150
vt 0.42838530 0.47979200
vt 0.42330290 0.49182250
vt 0.42339450 0.50488200
vt 0.39573400 0.50488200
vt 0.39754250 0.48669840
vt 0.42303860 0.40622690
vt 0.40504280 0.42096700
vt 0.39030270 0.43896280
vt 0.37297350 0.42738380
vt 0.37931760 0.45946760
vt 0.39030270 0.40622690
vt 0.37931760 0.39524170
vt 0.40283020 0.37598290
vt 0.36005870 0.41875440
vt 0.34570590 0.44554510
vt 0.35214500 0.41346660
vt 0.33691090 0.44190220
vt 0.32757610 0.47278120
vt 0.36005870 0.45149030
vt 0.35214500 0.47766830
vt 0.33691090 0.47463800
vt 0.33390300 0.50488210
vt 0.34943840 0.50488210
vt 0.35214500 0.53209590
vt 0.37028410 0.50488200
vt 0.33691100 0.53512610
vt 0.34570590 0.56421910
vt 0.32757610 0.53698290
vt 0.33691100 0.56786200
vt 0.36005880 0.55827390
vt 0.37258630 0.52802990
vt 0.37258620 0.48173430
vt 0.40283020 0.46920680
vt 0.32438350 0.50488210
vt 0.31872000 0.50490130
vt 0.32199940 0.53812720
vt 0.31987700 0.53865550
vt 0.31662500 0.50495960
vt 0.32029570 0.47132100
vt 0.32210520 0.47168990
vt 0.33183890 0.43974550
vt 0.33037810 0.43897460
vt 0.34636150 0.40915520
vt 0.34760500 0.41032070
vt 0.52324040 0.33526880
vt 0.52233050 0.33779010
vt 0.55426340 0.34737180
vt 0.55554090 0.34474990
vt 0.58533140 0.36109840
vt 0.58368080 0.36323010
vt 0.60948480 0.38452680
vt 0.58037330 0.36806910
vt 0.61142100 0.38310550
vt 0.55193780 0.35283500
vt 0.59859840 0.39524160
vt 0.63261940 0.40956220
vt 0.60532960 0.38851030
vt 0.63057700 0.41042350
vt 0.64840680 0.43940930
vt 0.65826390 0.47158740
vt 0.36873850 0.38450200
vt 0.36772300 0.38300700
vt 0.39393990 0.36167360
vt 0.37258620 0.38851030
vt 0.39754240 0.36806920
vt 0.39457450 0.36337550
vt 0.42401240 0.34763430
vt 0.42381080 0.34578830
vt 0.45613460 0.33598460
vt 0.42597790 0.35283510
vt 0.45685700 0.34350020
vt 0.45595110 0.33797100
vt 0.48914050 0.33461360
vt 0.48968630 0.33242410
vt 0.52105870 0.34350020
vt 0.48895790 0.34030750
f 3/3/3 2/2/2 1/1/1
f 6/6/6 5/5/5 4/4/4
f 7/7/7 6/6/6 4/4/4
f 8/8/8 7/7/7 4/4/4
f 6/6/6 7/7/7 9/9/9
f 7/7/7 8/8/8 9/9/9
f 10/10/10 8/8/8 4/4/4
f 11/11/11 6/6/6 9/9/9
f 12/12/12 11/11/11 9/9/9
f 11/11/11 12/12/12 13/13/13
f 12/12/12 14/14/14 13/13/13
f 14/14/14 12/12/12 15/15/15
f 8/8/8 10/10/10 16/16/16
f 10/10/10 17/17/17 16/16/16
f 17/17/17 18/18/18 16/16/16
f 19/19/19 8/8/8 16/16/16
f 8/8/8 19/19/19 20/20/20
f 21/21/21 8/8/8 20/20/20
f 8/8/8 21/21/21 9/9/9
f 22/22/22 21/21/21 20/20/20
f 21/21/21 22/22/22 9/9/9
f 23/23/23 22/22/22 20/20/20
f 22/22/22 23/23/23 24/24/24
f 25/25/25 12/12/12 9/9/9
f 22/22/22 25/25/25 9/9/9
f 12/12/12 25/25/25 26/26/26
f 25/25/25 22/22/22 26/26/26
f 27/27/27 22/22/22 24/24/24
f 22/22/22 27/27/27 26/26/26
f 28/28/28 27/27/27 24/24/24
f 27/27/27 28/28/28 26/26/26
f 29/29/29 28/28/28 24/24/24
f 28/28/28 29/29/29 30/30/30
f 31/31/31 12/12/12 26/26/26
f 32/32/32 31/31/31 26/26/26
f 12/12/12 31/31/31 15/15/15
f 31/31/31 32/32/32 15/15/15
f 32/32/32 33/33/33 15/15/15
f 33/33/33 32/32/32 34/34/34
f 32/32/32 35/35/35 34/34/34
f 35/35/35 32/32/32 36/36/36
f 37/37/37 32/32/32 26/26/26
f 28/28/28 37/37/37 26/26/26
f 32/32/32 37/37/37 36/36/36
f 37/37/37 28/28/28 36/36/36
f 28/28/28 38/38/38 36/36/36
f 38/38/38 28/28/28 30/30/30
f 38/38/38 39/39/39 36/36/36
f 39/39/39 38/38/38 30/30/30
f 40/40/40 39/39/39 30/30/30
f 5/5/5 41/41/41 4/4/4
f 41/41/41 42/42/42 4/4/4
f 42/42/42 41/41/41 43/43/43
f 41/41/41 44/44/44 43/43/43
f 17/17/17 42/42/42 43/43/43
f 44/44/44 45/45/45 43/43/43
f 46/46/46 17/17/17 43/43/43
f 47/47/47 46/46/46 43/43/43
f 17/17/17 46/46/46 48/48/48
f 46/46/46 47/47/47 48/48/48
f 18/18/18 17/17/17 48/48/48
f 47/47/47 49/49/49 48/48/48
f 49/49/49 47/47/47 50/50/50
f 45/45/45 51/51/51 43/43/43
f 51/51/51 47/47/47 43/43/43
f 51/51/51 45/45/45 52/52/52
f 47/47/47 51/51/51 52/52/52
f 47/47/47 53/53/53 50/50/50
f 53/53/53 47/47/47 52/52/52
f 53/53/53 54/54/54 50/50/50
f 54/54/54 53/53/53 52/52/52
f 54/54/54 55/55/55 50/50/50
f 55/55/55 54/54/54 56/56/56
f 45/45/45 57/57/57 52/52/52
f 57/57/57 45/45/45 58/58/58
f 3/3/3 57/57/57 58/58/58
f 57/57/57 3/3/3 52/52/52
f 3/3/3 59/59/59 52/52/52
f 59/59/59 54/54/54 52/52/52
f 59/59/59 3/3/3 60/60/60
f 54/54/54 59/59/59 60/60/60
f 3/3/3 61/61/61 60/60/60
f 61/61/61 62/62/62 60/60/60
f 54/54/54 63/63/63 56/56/56
f 63/63/63 54/54/54 60/60/60
f 63/63/63 64/64/64 56/56/56
f 64/64/64 63/63/63 60/60/60
f 64/64/64 65/65/65 56/56/56
f 62/62/62 66/66/66 60/60/60
f 66/66/66 64/64/64 60/60/60
f 66/66/66 62/62/62 67/67/67
f 64/64/64 66/66/66 67/67/67
f 62/62/62 68/68/68 67/67/67
f 69/69/69 64/64/64 67/67/67
f 70/70/70 69/69/69 67/67/67
f 68/68/68 71/71/71 67/67/67
f 72/72/72 70/70/70 67/67/67
f 71/71/71 72/72/72 67/67/67
f 70/70/70 72/72/72 73/73/73
f 72/72/72 71/71/71 73/73/73
f 71/71/71 74/74/74 73/73/73
f 17/17/17 10/10/10 4/4/4
f 42/42/42 17/17/17 4/4/4
f 74/74/74 71/71/71 75/75/75
f 71/71/71 76/76/76 75/75/75
f 76/76/76 71/71/71 77/77/77
f 76/76/76 78/78/78 75/75/75
f 78/78/78 76/76/76 77/77/77
f 71/71/71 68/68/68 77/77/77
f 68/68/68 62/62/62 77/77/77
f 78/78/78 79/79/79 75/75/75
f 79/79/79 78/78/78 80/80/80
f 79/79/79 81/81/81 75/75/75
f 81/81/81 79/79/79 80/80/80
f 81/81/81 82/82/82 75/75/75
f 83/83/83 81/81/81 80/80/80
f 84/84/84 83/83/83 80/80/80
f 62/62/62 85/85/85 77/77/77
f 85/85/85 86/86/86 77/77/77
f 85/85/85 62/62/62 1/1/1
f 86/86/86 85/85/85 1/1/1
f 62/62/62 61/61/61 1/1/1
f 61/61/61 3/3/3 1/1/1
f 87/87/87 78/78/78 77/77/77
f 86/86/86 87/87/87 77/77/77
f 78/78/78 87/87/87 88/88/88
f 87/87/87 86/86/86 88/88/88
f 78/78/78 89/89/89 80/80/80
f 89/89/89 78/78/78 88/88/88
f 89/89/89 90/90/90 80/80/80
f 90/90/90 89/89/89 88/88/88
f 91/91/91 84/84/84 80/80/80
f 90/90/90 91/91/91 80/80/80
f 84/84/84 91/91/91 92/92/92
f 91/91/91 90/90/90 92/92/92
f 93/93/93 84/84/84 92/92/92
f 94/94/94 93/93/93 92/92/92
f 84/84/84 93/93/93 95/95/95
f 93/93/93 94/94/94 95/95/95
f 94/94/94 96/96/96 95/95/95
f 96/96/96 94/94/94 97/97/97
f 94/94/94 98/98/98 97/97/97
f 98/98/98 94/94/94 99/99/99
f 94/94/94 100/100/100 99/99/99
f 100/100/100 94/94/94 101/101/101
f 94/94/94 102/102/102 101/101/101
f 102/102/102 94/94/94 103/103/103
f 94/94/94 104/104/104 103/103/103
f 104/104/104 94/94/94 105/105/105
f 94/94/94 106/106/106 105/105/105
f 106/106/106 94/94/94 107/107/107
f 94/94/94 108/108/108 107/107/107
f 108/108/108 109/109/109 107/107/107
f 108/108/108 94/94/94 110/110/110
f 109/109/109 108/108/108 110/110/110
f 94/94/94 111/111/111 110/110/110
f 111/111/111 112/112/112 110/110/110
f 109/109/109 113/113/113 107/107/107
f 113/113/113 109/109/109 114/114/114
f 109/109/109 115/115/115 114/114/114
f 115/115/115 109/109/109 116/116/116
f 117/117/117 115/115/115 116/116/116
f 118/118/118 117/117/117 116/116/116
f 119/119/119 118/118/118 116/116/116
f 118/118/118 119/119/119 34/34/34
f 119/119/119 33/33/33 34/34/34
f 33/33/33 119/119/119 15/15/15
f 120/120/120 109/109/109 110/110/110
f 112/112/112 120/120/120 110/110/110
f 109/109/109 120/120/120 116/116/116
f 120/120/120 112/112/112 116/116/116
f 112/112/112 111/111/111 121/121/121
f 111/111/111 94/94/94 121/121/121
f 122/122/122 119/119/119 116/116/116
f 112/112/112 122/122/122 116/116/116
f 119/119/119 122/122/122 123/123/123
f 122/122/122 112/112/112 123/123/123
f 119/119/119 124/124/124 15/15/15
f 124/124/124 119/119/119 123/123/123
f 124/124/124 125/125/125 15/15/15
f 125/125/125 124/124/124 123/123/123
f 125/125/125 14/14/14 15/15/15
f 14/14/14 125/125/125 13/13/13
f 126/126/126 112/112/112 121/121/121
f 112/112/112 126/126/126 123/123/123
f 127/127/127 126/126/126 121/121/121
f 126/126/126 127/127/127 123/123/123
f 94/94/94 128/128/128 121/121/121
f 128/128/128 127/127/127 121/121/121
f 129/129/129 125/125/125 123/123/123
f 127/127/127 129/129/129 123/123/123
f 125/125/125 129/129/129 130/130/130
f 129/129/129 127/127/127 130/130/130
f 127/127/127 128/128/128 131/131/131
f 128/128/128 94/94/94 131/131/131
f 125/125/125 132/132/132 13/13/13
f 132/132/132 125/125/125 130/130/130
f 132/132/132 133/133/133 13/13/13
f 133/133/133 132/132/132 130/130/130
f 127/127/127 134/134/134 130/130/130
f 134/134/134 127/127/127 131/131/131
f 134/134/134 135/135/135 130/130/130
f 135/135/135 134/134/134 131/131/131
f 94/94/94 136/136/136 131/131/131
f 136/136/136 135/135/135 131/131/131
f 136/136/136 94/94/94 137/137/137
f 135/135/135 136/136/136 137/137/137
f 138/138/138 133/133/133 130/130/130
f 135/135/135 138/138/138 130/130/130
f 138/138/138 135/135/135 139/139/139
f 133/133/133 138/138/138 139/139/139
f 94/94/94 140/140/140 137/137/137
f 140/140/140 141/141/141 137/137/137
f 140/140/140 94/94/94 142/142/142
f 141/141/141 140/140/140 142/142/142
f 94/94/94 143/143/143 142/142/142
f 143/143/143 144/144/144 142/142/142
f 145/145/145 135/135/135 137/137/137
f 135/135/135 145/145/145 139/139/139
f 141/141/141 145/145/145 137/137/137
f 145/145/145 141/141/141 139/139/139
f 143/143/143 94/94/94 146/146/146
f 144/144/144 143/143/143 146/146/146
f 147/147/147 141/141/141 142/142/142
f 144/144/144 147/147/147 142/142/142
f 141/141/141 147/147/147 148/148/148
f 147/147/147 144/144/144 148/148/148
f 141/141/141 149/149/149 139/139/139
f 149/149/149 141/141/141 148/148/148
f 149/149/149 150/150/150 139/139/139
f 150/150/150 149/149/149 148/148/148
f 151/151/151 133/133/133 139/139/139
f 150/150/150 151/151/151 139/139/139
f 133/133/133 151/151/151 152/152/152
f 151/151/151 150/150/150 152/152/152
f 153/153/153 133/133/133 152/152/152
f 133/133/133 153/153/153 13/13/13
f 153/153/153 6/6/6 13/13/13
f 6/6/6 153/153/153 152/152/152
f 6/6/6 11/11/11 13/13/13
f 5/5/5 6/6/6 152/152/152
f 41/41/41 5/5/5 152/152/152
f 154/154/154 41/41/41 152/152/152
f 150/150/150 154/154/154 152/152/152
f 41/41/41 154/154/154 155/155/155
f 154/154/154 150/150/150 155/155/155
f 44/44/44 41/41/41 155/155/155
f 45/45/45 44/44/44 155/155/155
f 150/150/150 156/156/156 155/155/155
f 156/156/156 157/157/157 155/155/155
f 156/156/156 150/150/150 148/148/148
f 157/157/157 156/156/156 148/148/148
f 158/158/158 45/45/45 155/155/155
f 157/157/157 158/158/158 155/155/155
f 45/45/45 158/158/158 58/58/58
f 158/158/158 157/157/157 58/58/58
f 159/159/159 157/157/157 148/148/148
f 157/157/157 159/159/159 160/160/160
f 144/144/144 159/159/159 148/148/148
f 159/159/159 144/144/144 160/160/160
f 157/157/157 161/161/161 58/58/58
f 161/161/161 157/157/157 160/160/160
f 161/161/161 162/162/162 58/58/58
f 162/162/162 161/161/161 160/160/160
f 162/162/162 2/2/2 58/58/58
f 2/2/2 3/3/3 58/58/58
f 2/2/2 162/162/162 1/1/1
f 144/144/144 163/163/163 160/160/160
f 163/163/163 164/164/164 160/160/160
f 163/163/163 144/144/144 146/146/146
f 164/164/164 163/163/163 146/146/146
f 162/162/162 165/165/165 1/1/1
f 165/165/165 162/162/162 166/166/166
f 165/165/165 86/86/86 1/1/1
f 86/86/86 165/165/165 166/166/166
f 167/167/167 162/162/162 160/160/160
f 164/164/164 167/167/167 160/160/160
f 162/162/162 167/167/167 166/166/166
f 167/167/167 164/164/164 166/166/166
f 168/168/168 164/164/164 146/146/146
f 94/94/94 168/168/168 146/146/146
f 164/164/164 168/168/168 169/169/169
f 168/168/168 94/94/94 169/169/169
f 170/170/170 86/86/86 166/166/166
f 171/171/171 170/170/170 166/166/166
f 86/86/86 170/170/170 88/88/88
f 170/170/170 171/171/171 88/88/88
f 164/164/164 172/172/172 166/166/166
f 172/172/172 164/164/164 169/169/169
f 172/172/172 171/171/171 166/166/166
f 171/171/171 172/172/172 169/169/169
f 94/94/94 173/173/173 169/169/169
f 173/173/173 171/171/171 169/169/169
f 171/171/171 174/174/174 88/88/88
f 174/174/174 90/90/90 88/88/88
f 171/171/171 173/173/173 175/175/175
f 174/174/174 171/171/171 175/175/175
f 173/173/173 94/94/94 175/175/175
f 90/90/90 174/174/174 175/175/175
f 94/94/94 176/176/176 175/175/175
f 176/176/176 90/90/90 175/175/175
f 176/176/176 94/94/94 92/92/92
f 90/90/90 176/176/176 92/92/92
f 82/82/82 81/81/81 177/177/177
f 81/81/81 178/178/178 177/177/177
f 178/178/178 81/81/81 179/179/179
f 178/178/178 180/180/180 177/177/177
f 180/180/180 178/178/178 179/179/179
f 81/81/81 83/83/83 179/179/179
f 83/83/83 84/84/84 179/179/179
f 84/84/84 181/181/181 179/179/179
f 181/181/181 182/182/182 179/179/179
f 181/181/181 84/84/84 95/95/95
f 182/182/182 181/181/181 95/95/95
f 96/96/96 182/182/182 95/95/95
f 182/182/182 96/96/96 97/97/97
f 183/183/183 180/180/180 179/179/179
f 182/182/182 183/183/183 179/179/179
f 183/183/183 182/182/182 184/184/184
f 180/180/180 183/183/183 184/184/184
f 185/185/185 182/182/182 97/97/97
f 182/182/182 185/185/185 184/184/184
f 186/186/186 185/185/185 97/97/97
f 185/185/185 186/186/186 184/184/184
f 98/98/98 186/186/186 97/97/97
f 186/186/186 98/98/98 99/99/99
f 187/187/187 186/186/186 99/99/99
f 188/188/188 187/187/187 99/99/99
f 186/186/186 187/187/187 189/189/189
f 187/187/187 188/188/188 189/189/189
f 100/100/100 188/188/188 99/99/99
f 188/188/188 100/100/100 101/101/101
f 186/186/186 190/190/190 184/184/184
f 190/190/190 186/186/186 189/189/189
f 190/190/190 191/191/191 184/184/184
f 191/191/191 190/190/190 189/189/189
f 192/192/192 180/180/180 184/184/184
f 191/191/191 192/192/192 184/184/184
f 180/180/180 192/192/192 193/193/193
f 192/192/192 191/191/191 193/193/193
f 194/194/194 180/180/180 193/193/193
f 180/180/180 194/194/194 177/177/177
f 194/194/194 195/195/195 177/177/177
f 195/195/195 194/194/194 193/193/193
f 195/195/195 196/196/196 177/177/177
f 197/197/197 195/195/195 193/193/193
f 198/198/198 197/197/197 193/193/193
f 199/199/199 198/198/198 193/193/193
f 191/191/191 199/199/199 193/193/193
f 198/198/198 199/199/199 200/200/200
f 199/199/199 191/191/191 200/200/200
f 201/201/201 198/198/198 200/200/200
f 202/202/202 201/201/201 200/200/200
f 203/203/203 202/202/202 200/200/200
f 202/202/202 203/203/203 204/204/204
f 205/205/205 203/203/203 200/200/200
f 191/191/191 206/206/206 200/200/200
f 206/206/206 205/205/205 200/200/200
f 206/206/206 191/191/191 189/189/189
f 205/205/205 206/206/206 189/189/189
f 207/207/207 205/205/205 189/189/189
f 188/188/188 207/207/207 189/189/189
f 207/207/207 188/188/188 208/208/208
f 188/188/188 209/209/209 208/208/208
f 209/209/209 210/210/210 208/208/208
f 209/209/209 188/188/188 101/101/101
f 210/210/210 209/209/209 101/101/101
f 210/210/210 211/211/211 208/208/208
f 102/102/102 210/210/210 101/101/101
f 211/211/211 210/210/210 212/212/212
f 210/210/210 213/213/213 212/212/212
f 210/210/210 102/102/102 103/103/103
f 213/213/213 210/210/210 103/103/103
f 214/214/214 213/213/213 103/103/103
f 104/104/104 214/214/214 103/103/103
f 214/214/214 104/104/104 105/105/105
f 215/215/215 214/214/214 105/105/105
f 216/216/216 215/215/215 105/105/105
f 106/106/106 216/216/216 105/105/105
f 216/216/216 106/106/106 107/107/107
f 113/113/113 216/216/216 107/107/107
f 216/216/216 113/113/113 114/114/114
f 217/217/217 216/216/216 114/114/114
f 216/216/216 217/217/217 218/218/218
f 205/205/205 207/207/207 208/208/208
f 219/219/219 205/205/205 208/208/208
f 220/220/220 219/219/219 208/208/208
f 211/211/211 220/220/220 208/208/208
f 220/220/220 211/211/211 212/212/212
f 205/205/205 219/219/219 204/204/204
f 219/219/219 220/220/220 204/204/204
f 203/203/203 205/205/205 204/204/204
f 221/221/221 220/220/220 212/212/212
f 220/220/220 221/221/221 222/222/222
f 223/223/223 221/221/221 212/212/212
f 221/221/221 223/223/223 222/222/222
f 220/220/220 224/224/224 204/204/204
f 224/224/224 220/220/220 222/222/222
f 224/224/224 225/225/225 204/204/204
f 225/225/225 224/224/224 222/222/222
f 225/225/225 226/226/226 204/204/204
f 226/226/226 202/202/202 204/204/204
f 227/227/227 225/225/225 222/222/222
f 228/228/228 227/227/227 222/222/222
f 225/225/225 227/227/227 229/229/229
f 227/227/227 228/228/228 229/229/229
f 228/228/228 230/230/230 229/229/229
f 230/230/230 228/228/228 231/231/231
f 223/223/223 232/232/232 222/222/222
f 232/232/232 228/228/228 222/222/222
f 228/228/228 232/232/232 233/233/233
f 232/232/232 223/223/223 233/233/233
f 228/228/228 234/234/234 231/231/231
f 234/234/234 228/228/228 233/233/233
f 234/234/234 235/235/235 231/231/231
f 235/235/235 234/234/234 233/233/233
f 236/236/236 235/235/235 233/233/233
f 235/235/235 236/236/236 237/237/237
f 238/238/238 236/236/236 233/233/233
f 236/236/236 238/238/238 237/237/237
f 239/239/239 235/235/235 237/237/237
f 240/240/240 239/239/239 237/237/237
f 239/239/239 240/240/240 241/241/241
f 240/240/240 242/242/242 241/241/241
f 242/242/242 240/240/240 36/36/36
f 39/39/39 242/242/242 36/36/36
f 240/240/240 35/35/35 36/36/36
f 35/35/35 240/240/240 34/34/34
f 240/240/240 243/243/243 34/34/34
f 243/243/243 240/240/240 237/237/237
f 243/243/243 117/117/117 34/34/34
f 117/117/117 243/243/243 237/237/237
f 117/117/117 118/118/118 34/34/34
f 244/244/244 117/117/117 237/237/237
f 238/238/238 244/244/244 237/237/237
f 117/117/117 244/244/244 114/114/114
f 244/244/244 238/238/238 114/114/114
f 115/115/115 117/117/117 114/114/114
f 238/238/238 217/217/217 114/114/114
f 217/217/217 238/238/238 218/218/218
f 238/238/238 245/245/245 218/218/218
f 245/245/245 238/238/238 233/233/233
f 223/223/223 245/245/245 233/233/233
f 245/245/245 223/223/223 218/218/218
f 223/223/223 246/246/246 218/218/218
f 246/246/246 223/223/223 212/212/212
f 214/214/214 246/246/246 212/212/212
f 246/246/246 214/214/214 218/218/218
f 213/213/213 214/214/214 212/212/212
f 214/214/214 215/215/215 218/218/218
f 215/215/215 216/216/216 218/218/218
f 235/235/235 239/239/239 241/241/241
f 247/247/247 235/235/235 241/241/241
f 248/248/248 247/247/247 241/241/241
f 235/235/235 247/247/247 231/231/231
f 247/247/247 248/248/248 231/231/231
f 249/249/249 248/248/248 241/241/241
f 39/39/39 249/249/249 241/241/241
f 242/242/242 39/39/39 241/241/241
f 249/249/249 39/39/39 250/250/250
f 248/248/248 249/249/249 250/250/250
f 39/39/39 40/40/40 250/250/250
f 251/251/251 248/248/248 250/250/250
f 248/248/248 251/251/251 252/252/252
f 248/248/248 253/253/253 231/231/231
f 253/253/253 248/248/248 252/252/252
f 253/253/253 254/254/254 231/231/231
f 254/254/254 253/253/253 252/252/252
f 254/254/254 230/230/230 231/231/231
f 255/255/255 254/254/254 252/252/252
f 230/230/230 254/254/254 229/229/229
f 254/254/254 255/255/255 256/256/256
f 254/254/254 257/257/257 229/229/229
f 257/257/257 254/254/254 256/256/256
f 260/260/260 259/259/259 258/258/258
f 261/261/261 260/260/260 258/258/258
f 260/260/260 261/261/261 262/262/262
f 263/263/263 260/260/260 262/262/262
f 264/264/264 263/263/263 262/262/262
f 260/260/260 263/263/263 265/265/265
f 263/263/263 264/264/264 265/265/265
f 266/266/266 264/264/264 262/262/262
f 267/267/267 260/260/260 265/265/265
f 195/195/195 267/267/267 265/265/265
f 196/196/196 195/195/195 265/265/265
f 268/268/268 196/196/196 265/265/265
f 196/196/196 268/268/268 177/177/177
f 268/268/268 82/82/82 177/177/177
f 82/82/82 268/268/268 75/75/75
f 268/268/268 74/74/74 75/75/75
f 74/74/74 268/268/268 73/73/73
f 264/264/264 266/266/266 269/269/269
f 270/270/270 268/268/268 265/265/265
f 268/268/268 270/270/270 73/73/73
f 264/264/264 270/270/270 265/265/265
f 270/270/270 264/264/264 73/73/73
f 264/264/264 271/271/271 73/73/73
f 271/271/271 264/264/264 269/269/269
f 271/271/271 70/70/70 73/73/73
f 70/70/70 271/271/271 269/269/269
f 272/272/272 70/70/70 269/269/269
f 70/70/70 272/272/272 273/273/273
f 69/69/69 70/70/70 273/273/273
f 64/64/64 69/69/69 273/273/273
f 65/65/65 64/64/64 273/273/273
f 274/274/274 257/257/257 256/256/256
f 275/275/275 274/274/274 256/256/256
f 257/257/257 274/274/274 229/229/229
f 274/274/274 275/275/275 276/276/276
f 274/274/274 277/277/277 229/229/229
f 277/277/277 274/274/274 278/278/278
f 277/277/277 225/225/225 229/229/229
f 225/225/225 277/277/277 278/278/278
f 226/226/226 225/225/225 278/278/278
f 202/202/202 226/226/226 278/278/278
f 279/279/279 274/274/274 276/276/276
f 274/274/274 279/279/279 278/278/278
f 280/280/280 279/279/279 276/276/276
f 279/279/279 280/280/280 278/278/278
f 281/281/281 280/280/280 276/276/276
f 280/280/280 281/281/281 282/282/282
f 283/283/283 202/202/202 278/278/278
f 280/280/280 283/283/283 278/278/278
f 202/202/202 283/283/283 284/284/284
f 283/283/283 280/280/280 284/284/284
f 201/201/201 202/202/202 284/284/284
f 198/198/198 201/201/201 284/284/284
f 285/285/285 280/280/280 282/282/282
f 280/280/280 285/285/285 284/284/284
f 286/286/286 285/285/285 282/282/282
f 285/285/285 286/286/286 284/284/284
f 287/287/287 286/286/286 282/282/282
f 286/286/286 287/287/287 258/258/258
f 259/259/259 286/286/286 258/258/258
f 286/286/286 259/259/259 288/288/288
f 259/259/259 260/260/260 288/288/288
f 260/260/260 267/267/267 288/288/288
f 267/267/267 195/195/195 288/288/288
f 195/195/195 197/197/197 288/288/288
f 197/197/197 198/198/198 288/288/288
f 286/286/286 289/289/289 284/284/284
f 289/289/289 286/286/286 288/288/288
f 198/198/198 289/289/289 288/288/288
f 289/289/289 198/198/198 284/284/284

