mtllib material.mtl
usemtl material_0
v 0.05717133 0.00077752 -0.02851285
v 0.04941033 0.00002781 -0.03838519
v 0.05827681 0.00002781 -0.02785983
v 0.03724722 0.00077752 -0.04157427
v 0.03651960 0.00143636 -0.04103852
v 0.02577285 0.00143636 -0.04294195
v -0.06376001 0.00191345 -0.02337873
v -0.06510209 0.00143634 -0.02404175
v -0.05656652 0.00143634 -0.03033985
v -0.05545409 0.00191346 -0.02957949
v -0.04828070 0.00191346 -0.03842666
v -0.05263923 0.00236223 -0.02763467
v -0.04916294 0.00143634 -0.03930920
v -0.03940437 0.00143634 -0.04593462
v -0.05003097 0.00077750 -0.04017352
v -0.03998137 0.00077750 -0.04687438
v -0.02626504 0.00077750 -0.05035885
v -0.06035938 0.00236516 -0.02163179
v -0.06626183 0.00236353 -0.01507194
v -0.05299565 0.00294778 -0.01773564
v -0.06991728 0.00191345 -0.01602825
v -0.07043117 0.00191345 -0.00388433
v -0.02598638 0.00143635 -0.04934444
v -0.01208521 0.00143635 -0.05037579
v -0.02569205 0.00191346 -0.04830749
v -0.01211688 0.00077751 -0.05145064
v -0.00055878 0.00077751 -0.05426620
v -0.03880876 0.00191346 -0.04497128
v -0.03724428 0.00232980 -0.04246634
v -0.04601920 0.00234379 -0.03614647
v -0.04096423 0.00286229 -0.03096200
v -0.04649760 0.00293607 -0.02329640
v -0.03773103 0.00352105 -0.01983239
v -0.00072635 0.00143635 -0.05309891
v 0.00892861 0.00143635 -0.05353886
v -0.00088431 0.00191346 -0.05188615
v 0.00928967 0.00077751 -0.05459018
v 0.01808967 0.00077751 -0.04986405
v -0.01204514 0.00191346 -0.04928232
v -0.01190911 0.00236010 -0.04647225
v -0.02489123 0.00234023 -0.04562257
v -0.02290138 0.00284805 -0.03948485
v -0.03358873 0.00280633 -0.03670096
v -0.02791377 0.00332171 -0.02893200
v -0.03343508 0.00340770 -0.02425767
v -0.02340897 0.00391875 -0.02207551
v 0.00856677 0.00191347 -0.05246806
v 0.00768307 0.00238760 -0.04961558
v 0.01706579 0.00191347 -0.04792883
v -0.00128990 0.00237445 -0.04890740
v -0.00203202 0.00298489 -0.04202672
v -0.01145798 0.00292754 -0.04013352
v -0.00949391 0.00350795 -0.03210800
v -0.01915161 0.00338581 -0.03139025
v -0.01184810 0.00390243 -0.02629605
v 0.01758022 0.00143635 -0.04890252
v 0.02642360 0.00077751 -0.04379029
v -0.01859463 0.00385462 -0.02478375
v -0.01316157 0.00425805 -0.02170369
v 0.02512989 0.00191347 -0.04211678
v 0.03577092 0.00191347 -0.04046677
v 0.02353607 0.00241206 -0.04010938
v 0.04747576 0.00143636 -0.03838718
v 0.04844575 0.00077752 -0.03898147
v 0.01575965 0.00240392 -0.04544538
v 0.01288117 0.00310279 -0.03992480
v 0.00590259 0.00303750 -0.04275637
v 0.00521934 0.00367690 -0.03513281
v -0.00145248 0.00359607 -0.03363345
v 0.00133501 0.00405923 -0.02930254
v -0.00471515 0.00399352 -0.02736710
v -0.00289144 0.00431488 -0.02401475
v -0.00805389 0.00427761 -0.02282303
v -0.00736619 0.00439124 -0.02091585
v -0.00285071 0.00440272 -0.02193260
v -0.01176338 0.00438522 -0.01958712
v 0.00162513 0.00441100 -0.02241202
v -0.01566921 0.00439330 -0.01744847
v 0.00200132 0.00434177 -0.02492381
v 0.00676272 0.00436644 -0.02448553
v 0.00607715 0.00441860 -0.02172526
v 0.01028664 0.00442802 -0.02010897
v -0.01746718 0.00428429 -0.01957962
v -0.02091662 0.00431888 -0.01613811
v -0.01888756 0.00440395 -0.01431289
v -0.02139382 0.00440564 -0.01058995
v 0.00682847 0.00411953 -0.02995860
v 0.01207920 0.00419434 -0.02791225
v 0.01126907 0.00439705 -0.02261775
v 0.01568061 0.00441232 -0.02066571
v 0.01420742 0.00443272 -0.01797999
v 0.01814883 0.00442614 -0.01641194
v -0.02698258 0.00400329 -0.01785413
v -0.03082698 0.00401671 -0.01420058
v 0.01132820 0.00377721 -0.03363100
v 0.01782557 0.00382723 -0.03065414
v 0.01760584 0.00423164 -0.02608586
v 0.02343514 0.00417942 -0.02494214
v 0.02009854 0.00439095 -0.01900632
v 0.02435767 0.00434712 -0.01759263
v 0.02157065 0.00441265 -0.01452023
v 0.02386780 0.00439659 -0.01120938
v -0.04268743 0.00353905 -0.01558214
v -0.04654704 0.00352902 -0.01090510
v -0.05828201 0.00294125 -0.01269343
v -0.05848902 0.00296032 -0.00398905
v -0.06677163 0.00236830 -0.00386365
v -0.06017769 0.00237039 0.00389854
v 0.02747998 0.00429498 -0.01437957
v 0.02876755 0.00426450 -0.00890681
v 0.03357904 0.00394486 -0.01941357
v 0.02474977 0.00438721 -0.00621003
v 0.02510364 0.00439372 -0.00216810
v 0.02873135 0.00407228 -0.02262005
v 0.03235982 0.00361356 -0.02732707
v 0.02549214 0.00375721 -0.03011586
v 0.02946298 0.00308977 -0.03538578
v 0.01999294 0.00313535 -0.03562417
v 0.03371528 0.00240067 -0.03866069
v 0.04399655 0.00237730 -0.03626192
v 0.03844574 0.00299628 -0.03290727
v 0.04556456 0.00288509 -0.02428693
v 0.03840566 0.00344271 -0.02186667
v 0.04172178 0.00334283 -0.01395518
v 0.04649478 0.00191347 -0.03778676
v 0.05492567 0.00191347 -0.02766080
v 0.03576919 0.00387037 -0.01291056
v 0.03576581 0.00392203 -0.00727562
v 0.05203413 0.00234950 -0.02658885
v 0.05741266 0.00233325 -0.01602992
v 0.05605635 0.00143636 -0.02808764
v 0.06189981 0.00143636 -0.01678337
v 0.06314366 0.00077752 -0.01700440
v 0.06286767 0.00077752 -0.00603203
v 0.06437655 0.00002782 -0.01626984
v 0.06414876 0.00002782 -0.00518222
v 0.05998975 0.00002782 0.00545648
v 0.05020740 0.00282008 -0.01494797
v 0.04961450 0.00286516 -0.00629816
v 0.06063829 0.00191347 -0.01656476
v 0.06027500 0.00191348 -0.00605435
v 0.06157875 0.00143636 -0.00604116
v 0.05749654 0.00143636 0.00423797
v 0.05874546 0.00077753 0.00448146
v 0.05198894 0.00077752 0.01953723
v 0.05309233 0.00002782 0.02074111
v 0.04483439 0.00002781 0.03500635
v 0.04158498 0.00341210 -0.00706390
v 0.03955450 0.00353201 -0.00080177
v 0.04380764 0.00077752 0.03390564
v 0.03645734 0.00077752 0.04219344
v 0.04278027 0.00143636 0.03321949
v 0.03736529 0.00002781 0.04331219
v 0.02866128 0.00002781 0.04968587
v 0.05085725 0.00143636 0.01896973
v 0.04976185 0.00191347 0.01827824
v 0.05623619 0.00191347 0.00398986
v 0.05304068 0.00236403 0.00335021
v 0.05695657 0.00234452 -0.00610512
v 0.04602688 0.00294320 0.00189512
v 0.04074166 0.00297708 0.01330085
v 0.04683273 0.00237250 0.01691365
v 0.03918317 0.00237343 0.03057113
v 0.04174323 0.00191347 0.03252326
v 0.03462421 0.00191347 0.04062191
v 0.03554524 0.00143636 0.04141274
v 0.02708760 0.00143636 0.04768979
v 0.02787414 0.00077752 0.04855343
v 0.01745153 0.00077752 0.05238564
v 0.01808263 0.00002781 0.05352028
v 0.00576006 0.00002781 0.05635867
v 0.00534990 0.00077751 0.05520444
v -0.00807436 0.00077751 0.05841607
v 0.00494891 0.00143635 0.05424618
v -0.00795623 0.00002781 0.05962782
v -0.01786563 0.00002781 0.05796903
v 0.01682652 0.00143636 0.05147739
v 0.01620405 0.00191347 0.05055214
v 0.02629740 0.00191347 0.04681214
v 0.02430977 0.00236723 0.04455961
v 0.03228762 0.00237030 0.03860302
v 0.02745332 0.00296828 0.03396191
v 0.03382297 0.00298079 0.02608655
v 0.03037943 0.00358975 0.01839653
v 0.03592782 0.00358407 0.00775457
v 0.03157548 0.00405029 0.00431543
v 0.03427004 0.00401146 -0.00203852
v 0.02807879 0.00432223 -0.00009533
v 0.02892730 0.00428564 -0.00429717
v 0.02471271 0.00440499 0.00141707
v 0.02290595 0.00440987 0.00614860
v 0.02593009 0.00433812 0.00518733
v 0.02242627 0.00433985 0.01147528
v 0.01988056 0.00441041 0.01150470
v 0.01616886 0.00440860 0.01620203
v 0.02713070 0.00405452 0.01260426
v 0.02173973 0.00404019 0.02039785
v 0.01815291 0.00433398 0.01720703
v 0.01384969 0.00432823 0.02065532
v 0.01235682 0.00440683 0.01902468
v 0.00818239 0.00440747 0.02076753
v 0.02422376 0.00357053 0.02711521
v 0.01822312 0.00355169 0.03168482
v 0.01650728 0.00402614 0.02483685
v 0.01086809 0.00403120 0.02706293
v 0.00921576 0.00433030 0.02255680
v 0.00417588 0.00432968 0.02365601
v 0.00367118 0.00440728 0.02174730
v -0.00100955 0.00440301 0.02194285
v 0.02031752 0.00295601 0.03934133
v 0.01187011 0.00296043 0.04253800
v 0.01131409 0.00355848 0.03432169
v 0.00344823 0.00355641 0.03606075
v 0.00460549 0.00402966 0.02843153
v -0.00198212 0.00399579 0.02930053
v -0.00107824 0.00431581 0.02405724
v -0.00609231 0.00430051 0.02339383
v -0.00567418 0.00439830 0.02132550
v -0.00996150 0.00439677 0.01972449
v 0.01466116 0.00236834 0.04816802
v 0.00359964 0.00236800 0.05075153
v 0.00221948 0.00295909 0.04476124
v -0.00704705 0.00292952 0.04605336
v -0.00351648 0.00351099 0.03641076
v -0.00736917 0.00346085 0.03298168
v -0.00633662 0.00395839 0.02737314
v -0.01051900 0.00394628 0.02385475
v -0.01044651 0.00429556 0.02130784
v -0.01509471 0.00429461 0.01882236
v -0.01404508 0.00439648 0.01747141
v -0.01769104 0.00439546 0.01458742
v -0.01942259 0.00429132 0.01576115
v -0.02279549 0.00429527 0.01187885
v -0.02240426 0.00393593 0.01722825
v -0.02053406 0.00439668 0.01100426
v -0.02249488 0.00440307 0.00688752
v -0.01677847 0.00394397 0.02099851
v -0.02057885 0.00344151 0.02493337
v -0.01284939 0.00344462 0.02873682
v -0.01948892 0.00288632 0.03807177
v -0.01317838 0.00289689 0.04331371
v -0.01560614 0.00235245 0.05064254
v -0.00826566 0.00236060 0.05337260
v -0.00826088 0.00191347 0.05628177
v 0.00455472 0.00191347 0.05326956
v -0.00817827 0.00143635 0.05736313
v -0.01703222 0.00143635 0.05520092
v -0.01668195 0.00191347 0.05395535
v -0.02417645 0.00191346 0.04769868
v -0.02269691 0.00234980 0.04467364
v -0.03386775 0.00234930 0.04021469
v -0.01745192 0.00077751 0.05649325
v -0.02535055 0.00077751 0.05008410
v -0.02593748 0.00002780 0.05152962
v -0.03890285 0.00002780 0.04717330
v -0.02902696 0.00288430 0.03378580
v -0.03737345 0.00287729 0.02788368
v -0.02476467 0.00143635 0.04889565
v -0.03706254 0.00143635 0.04444436
v -0.03797918 0.00077751 0.04565350
v -0.04883218 0.00077751 0.03902979
v -0.05001983 0.00002780 0.04058681
v -0.05757765 0.00002780 0.03047655
v -0.03614746 0.00191346 0.04323503
v -0.04648037 0.00191346 0.03669786
v -0.02751351 0.00343074 0.01994424
v -0.03242652 0.00344368 0.01326914
v -0.04765473 0.00143635 0.03785976
v -0.05494197 0.00143634 0.02799857
v -0.05625593 0.00077750 0.02899023
v -0.05905676 0.00077750 0.01479944
v -0.06038083 0.00002780 0.01606478
v -0.06853556 0.00002780 0.00697238
v -0.02633287 0.00394558 0.01206342
v -0.02996653 0.00399632 0.00698562
v -0.02499046 0.00431603 0.00726656
v -0.02614472 0.00433417 0.00225557
v -0.02358629 0.00440866 0.00246837
v -0.02378788 0.00440745 -0.00203639
v -0.06696805 0.00077750 0.00574645
v -0.07328635 0.00077750 -0.00391043
v -0.06538144 0.00143634 0.00523671
v -0.07470964 0.00002779 -0.00309181
v -0.07422266 0.00002779 -0.01607888
v -0.07279040 0.00077750 -0.01670577
v -0.07135885 0.00143634 -0.01637316
v -0.06644924 0.00077750 -0.02473195
v -0.07186278 0.00143634 -0.00390023
v -0.05773392 0.00143634 0.01417246
v -0.05640485 0.00191346 0.01355475
v -0.06378817 0.00191346 0.00474026
v -0.05362796 0.00191346 0.02701914
v -0.05034464 0.00234965 0.02462522
v -0.05305884 0.00236072 0.01205138
v -0.04578238 0.00292999 0.00900601
v -0.04355906 0.00234754 0.03383107
v -0.04333164 0.00288571 0.01975792
v -0.05151154 0.00296868 0.00161570
v -0.04328258 0.00357115 0.00216489
v -0.03755447 0.00351171 0.00723764
v -0.04679686 0.00355833 -0.00408137
v -0.03411650 0.00403109 -0.00404607
v -0.03318163 0.00404065 0.00202668
v -0.03364052 0.00400923 -0.00990667
v -0.02571366 0.00432131 -0.00767202
v -0.02642012 0.00433026 -0.00279088
v -0.02306709 0.00440470 -0.00644674
v -0.02380019 0.00432437 -0.01223646
v -0.05766989 0.00077750 -0.03108921
v -0.05877000 0.00002780 -0.03072298
v -0.05088906 0.00002780 -0.03982154
v -0.04054229 0.00002780 -0.04652354
v -0.02652910 0.00002780 -0.05004787
v -0.01214015 0.00002780 -0.05119273
v -0.00039051 0.00002780 -0.05409188
v 0.00965300 0.00002781 -0.05427105
v 0.01859696 0.00002781 -0.04951609
v 0.02707386 0.00002781 -0.04340011
v 0.03798984 0.00002781 -0.04093727
v -0.06779594 0.00002779 -0.02437336
v 0.04941033 0.00002781 -0.03838519
v 0.03798984 0.00002781 -0.04093727
v 0.05827681 0.00002781 -0.02785983
v 0.05998975 0.00002782 0.00545648
v 0.02707386 0.00002781 -0.04340011
v 0.06414876 0.00002782 -0.00518222
v 0.06437655 0.00002782 -0.01626984
v 0.05309233 0.00002782 0.02074111
v 0.04483439 0.00002781 0.03500635
v 0.03736529 0.00002781 0.04331219
v 0.02866128 0.00002781 0.04968587
v 0.01808263 0.00002781 0.05352028
v 0.00576006 0.00002781 0.05635867
v -0.00795623 0.00002781 0.05962782
v -0.01786563 0.00002781 0.05796903
v -0.02593748 0.00002780 0.05152962
v 0.01859696 0.00002781 -0.04951609
v 0.00965300 0.00002781 -0.05427105
v -0.00039051 0.00002780 -0.05409188
v -0.01214015 0.00002780 -0.05119273
v -0.03890285 0.00002780 0.04717330
v -0.05001983 0.00002780 0.04058681
v -0.05757765 0.00002780 0.03047655
v -0.06038083 0.00002780 0.01606478
v -0.02652910 0.00002780 -0.05004787
v -0.04054229 0.00002780 -0.04652354
v -0.05088906 0.00002780 -0.03982154
v -0.05877000 0.00002780 -0.03072298
v -0.06853556 0.00002780 0.00697238
v -0.06779594 0.00002779 -0.02437336
v -0.07422266 0.00002779 -0.01607888
v -0.07470964 0.00002779 -0.00309181
vn 0.43911590 0.86336360 -0.24855690
vn 0.35555840 0.81816980 -0.45185900
vn 0.46265810 0.85041330 -0.25048890
vn 0.16617160 0.76105610 -0.62704120
vn 0.14017580 0.82340170 -0.54987310
vn 0.19503850 0.87183340 -0.44929550
vn -0.19322340 0.96376710 -0.18389650
vn -0.31530680 0.90241310 -0.29365300
vn -0.32216360 0.90709130 -0.27091690
vn -0.18950490 0.96883430 -0.15952410
vn -0.20340810 0.96562820 -0.16182530
vn -0.08319043 0.99395040 -0.07170755
vn -0.33041300 0.90580240 -0.26523420
vn -0.20882860 0.91181450 -0.35353200
vn -0.39166950 0.86439480 -0.31530420
vn -0.24725060 0.87377510 -0.41878910
vn -0.08861640 0.86764730 -0.48921900
vn -0.08324980 0.99318900 -0.08151856
vn -0.10735760 0.99314390 -0.04625474
vn -0.05585739 0.99692640 -0.05493384
vn -0.25269240 0.96194490 -0.10396380
vn -0.27517830 0.95837990 0.07605798
vn -0.07418592 0.90827110 -0.41175220
vn -0.06178771 0.90898780 -0.41221760
vn -0.04461410 0.96677760 -0.25169570
vn -0.07511266 0.86568080 -0.49492930
vn -0.06262644 0.86455870 -0.49861440
vn -0.12952360 0.96709610 -0.21897190
vn -0.05179243 0.99476180 -0.08812802
vn -0.08321242 0.99415650 -0.06876379
vn -0.04803474 0.99769980 -0.04782967
vn -0.05447136 0.99706550 -0.05379004
vn -0.04358203 0.99780640 -0.04982999
vn -0.05609960 0.90611920 -0.41928610
vn 0.10851630 0.90312810 -0.41543220
vn -0.03732083 0.96526860 -0.25858030
vn 0.13221470 0.86190190 -0.48953490
vn 0.29634720 0.84646490 -0.44235230
vn -0.03670592 0.96887610 -0.24480970
vn -0.01849565 0.99393190 -0.10843140
vn -0.01995651 0.99440780 -0.10370580
vn -0.01695291 0.99780370 -0.06403403
vn -0.03113183 0.99803320 -0.05440992
vn -0.02946087 0.99802770 -0.05543178
vn -0.03859276 0.99788330 -0.05234119
vn -0.03783437 0.99744760 -0.06055351
vn 0.06636109 0.96159080 -0.26634400
vn 0.02580089 0.99224560 -0.12158580
vn 0.15823670 0.95833170 -0.23782650
vn -0.01968173 0.99297210 -0.11670050
vn -0.01921085 0.99679510 -0.07765570
vn -0.01685356 0.99733670 -0.07096149
vn -0.02181520 0.99736800 -0.06914630
vn -0.02148079 0.99784360 -0.06202160
vn -0.02473792 0.99676810 -0.07642860
vn 0.25084260 0.89257400 -0.37468590
vn 0.23717990 0.81856160 -0.52316590
vn -0.03009303 0.99703930 -0.07076049
vn -0.02344321 0.99765410 -0.06431741
vn 0.11777060 0.95480330 -0.27291170
vn 0.08404060 0.93147760 -0.35395860
vn 0.05590769 0.98747620 -0.14753000
vn 0.26266690 0.86395570 -0.42963550
vn 0.30555210 0.81598490 -0.49072050
vn 0.07241596 0.99039140 -0.11781690
vn 0.04242639 0.99477650 -0.09284271
vn 0.00695471 0.99634530 -0.08513241
vn -0.00600202 0.99676500 -0.08014676
vn -0.02541007 0.99695070 -0.07378034
vn -0.02334995 0.99729710 -0.06966580
vn -0.02743624 0.99681350 -0.07490045
vn -0.01972697 0.99821460 -0.05637782
vn -0.02148682 0.99768510 -0.06451926
vn -0.15155920 0.83619650 -0.52707230
vn -0.09395537 0.84200960 -0.53121780
vn -0.20759180 0.86305680 -0.46047620
vn 0.01266144 0.87109280 -0.49095510
vn -0.29041150 0.87872980 -0.37880750
vn -0.01166700 0.99891790 -0.04501957
vn -0.00001455 0.99944510 -0.03330877
vn 0.12842220 0.87666040 -0.46365330
vn 0.21525470 0.86974160 -0.44408900
vn -0.02918722 0.99820510 -0.05229514
vn -0.03306681 0.99883610 -0.03511602
vn -0.37866140 0.87221000 -0.30962110
vn -0.44106220 0.86643110 -0.23401140
vn -0.00298473 0.99785520 -0.06539091
vn 0.01389554 0.99826330 -0.05724850
vn 0.00464171 0.99970120 -0.02399785
vn 0.00795553 0.99979940 -0.01838418
vn 0.23416440 0.85773010 -0.45767460
vn 0.20977360 0.89643240 -0.39038960
vn -0.04065104 0.99806720 -0.04700375
vn -0.03986708 0.99866700 -0.03278279
vn 0.02664061 0.99587820 -0.08669934
vn 0.02863219 0.99537530 -0.09169619
vn 0.01719847 0.99845700 -0.05280187
vn 0.02814588 0.99841960 -0.04864352
vn 0.01472465 0.99975710 -0.01639997
vn 0.02594147 0.99954430 -0.01543303
vn 0.25275360 0.93432460 -0.25130300
vn 0.32986900 0.93588680 -0.12370260
vn -0.04617266 0.99799560 -0.04327750
vn -0.04904537 0.99853030 -0.02305997
vn -0.06655280 0.99733970 -0.02973621
vn -0.07382252 0.99689290 0.02747167
vn -0.12186190 0.99176450 0.03940549
vn -0.10478130 0.99135840 0.07892689
vn 0.03749823 0.99926870 -0.00747264
vn 0.04086513 0.99916020 -0.00300399
vn 0.06596144 0.99751250 -0.02485878
vn 0.40506010 0.91357800 -0.03607611
vn 0.41856560 0.90811480 0.01141993
vn 0.04686578 0.99815430 -0.03861824
vn 0.05559934 0.99686300 -0.05632989
vn 0.03011325 0.99573950 -0.08715604
vn 0.03017407 0.99205580 -0.12212560
vn 0.03859903 0.99274890 -0.11384050
vn 0.04136989 0.98405590 -0.17298130
vn 0.07450133 0.98955700 -0.12339630
vn 0.05534279 0.99529960 -0.07947325
vn 0.06763498 0.99723780 -0.03069485
vn 0.07148642 0.99703110 -0.02861415
vn 0.07518487 0.99713650 -0.00812600
vn 0.16602970 0.94352040 -0.28671110
vn 0.22717130 0.96505110 -0.13065090
vn 0.07245093 0.99734870 -0.00681974
vn 0.07200222 0.99740140 0.00250583
vn 0.09740595 0.99380460 -0.05352202
vn 0.10191340 0.99472200 -0.01190989
vn 0.36982910 0.90502730 -0.21012360
vn 0.40307650 0.91398030 -0.04657672
vn 0.47697860 0.87720450 -0.05480661
vn 0.47158310 0.86700590 0.16096670
vn 0.49781950 0.86562600 -0.05354811
vn 0.49491290 0.85488810 0.15565190
vn 0.47759680 0.84159330 0.25223430
vn 0.06686962 0.99773400 -0.00743739
vn 0.07068019 0.99735680 0.01684859
vn 0.25173400 0.96734220 -0.02964716
vn 0.24491150 0.96571680 0.08607809
vn 0.39752560 0.90736440 0.13661400
vn 0.38219760 0.90173240 0.20199930
vn 0.45541940 0.85714070 0.24063050
vn 0.45001040 0.85632520 0.25337260
vn 0.47074830 0.84110710 0.26633600
vn 0.43779420 0.84020330 0.31999130
vn 0.07875039 0.99685510 0.00884420
vn 0.08336835 0.99615960 0.02675420
vn 0.41939020 0.85514080 0.30470660
vn 0.35695000 0.85481260 0.37667270
vn 0.35387020 0.89951910 0.25620540
vn 0.37242650 0.83979930 0.39501330
vn 0.26785440 0.84165550 0.46890300
vn 0.37791000 0.90100770 0.21300020
vn 0.23158300 0.96414040 0.12962450
vn 0.23171690 0.96508260 0.12215900
vn 0.10321580 0.99328610 0.05224274
vn 0.10241060 0.99416270 0.03395060
vn 0.07816982 0.99638200 0.03335024
vn 0.08122313 0.99575600 0.04327592
vn 0.10566800 0.99266830 0.05868395
vn 0.09988064 0.99245540 0.07110680
vn 0.21938220 0.96272050 0.15824280
vn 0.18712300 0.96245250 0.19664720
vn 0.30125100 0.89912900 0.31751370
vn 0.21671960 0.89948650 0.37941610
vn 0.25637550 0.85605290 0.44882640
vn 0.15004280 0.85437320 0.49752760
vn 0.15777690 0.83929460 0.52027990
vn 0.10245190 0.83820640 0.53564340
vn 0.09813761 0.85396550 0.51099120
vn -0.06245994 0.87162590 0.48617590
vn 0.08244500 0.89935340 0.42937900
vn -0.05777844 0.85918240 0.50839680
vn -0.30587290 0.85764100 0.41339290
vn 0.12647190 0.89884870 0.41961400
vn 0.07812832 0.96252520 0.25969470
vn 0.13544430 0.96198900 0.23713250
vn 0.06004294 0.99258820 0.10565770
vn 0.08413272 0.99252480 0.08840921
vn 0.05958610 0.99620760 0.06340235
vn 0.07446040 0.99585000 0.05233033
vn 0.07399307 0.99610570 0.04794181
vn 0.08201440 0.99581410 0.04034524
vn 0.06932207 0.99709920 0.03142610
vn 0.07101383 0.99733200 0.01691119
vn 0.04172358 0.99908800 0.00906376
vn 0.04060275 0.99917470 -0.00114689
vn 0.45625470 0.88308640 0.10949910
vn 0.48958380 0.84031460 0.23276400
vn 0.04280334 0.99887330 0.02049262
vn 0.04169458 0.99874170 0.02786827
vn 0.47147770 0.82310870 0.31654500
vn 0.39047210 0.83102580 0.39614080
vn 0.06409752 0.99714090 0.04001929
vn 0.05200294 0.99748900 0.04807769
vn 0.03642282 0.99870440 0.03553599
vn 0.02583066 0.99873580 0.04312139
vn 0.27779880 0.83286440 0.47871150
vn 0.17024450 0.82656740 0.53647290
vn 0.05660036 0.99679170 0.05659235
vn 0.03646323 0.99734290 0.06306891
vn 0.03403948 0.99785040 0.05599907
vn 0.01910464 0.99802650 0.05981503
vn 0.01505675 0.99875820 0.04748970
vn 0.00542457 0.99875840 0.04951934
vn 0.06300601 0.82604100 0.56007730
vn -0.04626841 0.83516350 0.54805210
vn 0.03995034 0.99659450 0.07213319
vn 0.02247051 0.99685380 0.07601181
vn 0.01986057 0.99772460 0.06442989
vn 0.00542682 0.99801780 0.06269876
vn 0.00630445 0.99815280 0.06042522
vn -0.02417120 0.99785260 0.06087717
vn -0.00924398 0.99860770 0.05193501
vn -0.03873412 0.99712620 0.06510836
vn -0.16094900 0.84284580 0.51352360
vn -0.27030100 0.82444620 0.49721830
vn 0.03467111 0.99268540 0.11564440
vn 0.02024926 0.99315820 0.11500870
vn 0.00878848 0.99728110 0.07316612
vn -0.01980611 0.99798630 0.06025874
vn -0.02381274 0.99835820 0.05209356
vn -0.05192681 0.99748010 0.04834316
vn -0.05677963 0.99599870 0.06901162
vn -0.06768534 0.99355420 0.09093236
vn -0.05121881 0.99543720 0.08050775
vn -0.05648760 0.99522000 0.07966308
vn -0.34616180 0.82520860 0.44632120
vn -0.40205400 0.84644830 0.34911020
vn -0.06525536 0.99585270 0.06339741
vn -0.06897599 0.99656980 0.04572705
vn -0.08018568 0.99409190 0.07315353
vn -0.45533620 0.85507520 0.24802270
vn -0.50493890 0.84934810 0.15376790
vn -0.06535584 0.99351370 0.09305438
vn -0.04304370 0.99738950 0.05797800
vn -0.04786979 0.99720880 0.05729761
vn -0.04045618 0.99808180 0.04686021
vn -0.04768008 0.99785380 0.04488095
vn -0.07604826 0.99393600 0.07942207
vn -0.02237879 0.99410520 0.10608380
vn -0.04473352 0.96400920 0.26207870
vn 0.05002917 0.96380900 0.26185730
vn -0.06050115 0.90921470 0.41190830
vn -0.27817260 0.90481870 0.32237120
vn -0.18366240 0.96262040 0.19907310
vn -0.16203570 0.97054800 0.17827280
vn -0.06961856 0.99457870 0.07724329
vn -0.06468815 0.99434990 0.08416507
vn -0.31967830 0.86770380 0.38065200
vn -0.34012100 0.86716100 0.36379870
vn -0.37180610 0.84908060 0.37526300
vn -0.31417500 0.85666800 0.40916260
vn -0.03859861 0.99801500 0.04976003
vn -0.04822156 0.99802060 0.04036503
vn -0.28360720 0.90917380 0.30490970
vn -0.25136620 0.91067220 0.32785850
vn -0.29956360 0.87043230 0.39065240
vn -0.37714360 0.87101640 0.31479070
vn -0.39430380 0.85772140 0.32990690
vn -0.48184540 0.85358170 0.19804860
vn -0.15291600 0.96789770 0.19947590
vn -0.19472680 0.96732430 0.16237360
vn -0.05365203 0.99750730 0.04583341
vn -0.06220736 0.99709950 0.04384877
vn -0.31723530 0.91064920 0.26472590
vn -0.39296790 0.90668970 0.15326460
vn -0.46510720 0.86630250 0.18219580
vn -0.45904030 0.86468180 0.20397900
vn -0.48272580 0.84678580 0.22344890
vn -0.47199810 0.83352030 0.28716160
vn -0.08429653 0.99477110 0.05765971
vn -0.06809656 0.99651720 0.04812752
vn -0.05712277 0.99793570 0.02935178
vn -0.04255046 0.99904100 0.01031648
vn -0.53112580 0.84562520 0.05313554
vn -0.52014890 0.85264840 -0.04935381
vn -0.44249880 0.85007130 0.28561100
vn -0.50341870 0.85781300 0.10356870
vn -0.37050040 0.89558450 0.24628800
vn -0.52913870 0.84532840 0.07370212
vn -0.49437180 0.84991560 -0.18231820
vn -0.47151600 0.86291180 -0.18181280
vn -0.39906640 0.90318150 -0.15814310
vn -0.37467950 0.86068020 -0.34473890
vn -0.42684000 0.89899780 0.09803383
vn -0.38032560 0.90975570 0.16642440
vn -0.22355130 0.96978310 0.09770203
vn -0.23058500 0.96004020 0.15859840
vn -0.24472060 0.96502140 0.09405093
vn -0.10308460 0.99385170 0.04040549
vn -0.10053300 0.99386000 0.04621089
vn -0.07148356 0.99642350 0.04505879
vn -0.08172562 0.99431810 0.06820897
vn -0.06122909 0.99772380 0.02825240
vn -0.07352424 0.99563090 0.05756161
vn -0.06529149 0.99673300 0.04754584
vn -0.06353562 0.99668040 0.05090832
vn -0.05669920 0.99826850 0.01566019
vn -0.04297624 0.99907590 -0.00070973
vn -0.05221571 0.99827090 0.02699536
vn -0.04037463 0.99904760 -0.01654567
vn -0.03511568 0.99931480 -0.01169877
vn -0.03702166 0.99930870 -0.00339507
vn -0.48577200 0.86189070 -0.14549950
vn -0.03390059 0.99917050 -0.02256100
vn -0.38604230 0.86318510 -0.32539660
vn -0.40638030 0.84666790 -0.34352350
vn -0.40354660 0.85121920 -0.33552340
vn -0.25714440 0.86152490 -0.43778020
vn -0.09806101 0.85427960 -0.51048060
vn -0.08045969 0.85053620 -0.51972530
vn -0.05630888 0.85143570 -0.52142740
vn 0.14162420 0.84886700 -0.50928130
vn 0.30759780 0.83072030 -0.46399070
vn 0.24324090 0.79883270 -0.55018180
vn 0.17663580 0.73880200 -0.65036250
vn -0.39721540 0.84642030 -0.35467230
vn 0.00000040 -1.00000000 -0.00000034
vn 0.00000012 -1.00000000 0.00000000
vn 0.00000014 -1.00000000 0.00000000
vn 0.00000015 -1.00000000 0.00000000
vn 0.00000015 -1.00000000 0.00000000
vn 0.00000023 -1.00000000 0.00000000
vn 0.00000051 -1.00000000 0.00000000
vn 0.00000031 -1.00000000 0.00000000
vn 0.00000015 -1.00000000 0.00000000
vn 0.00000034 -1.00000000 0.00000000
vn 0.00000013 -1.00000000 0.00000000
vn 0.00000000 -1.00000000 0.00000000
vn 0.00000013 -1.00000000 0.00000000
vn 0.00000014 -1.00000000 0.00000000
vn 0.00000014 -1.00000000 0.00000000
vn 0.00000016 -1.00000000 0.00000000
vn 0.00000021 -1.00000000 0.00000000
vn 0.00000023 -1.00000000 0.00000000
vn 0.00000018 -1.00000000 0.00000000
vn 0.00000016 -1.00000000 0.00000000
vn 0.00000013 -1.00000000 0.00000000
vn 0.00000012 -1.00000000 0.00000000
vn 0.00000013 -1.00000000 0.00000000
vn 0.00000000 -1.00000000 0.00000000
vn 0.00000016 -1.00000000 0.00000000
vn 0.00000013 -1.00000000 0.00000000
vn 0.00000000 -1.00000000 0.00000000
vn 0.00000012 -1.00000000 0.00000000
vn 0.00000020 -1.00000000 0.00000000
vn 0.00000039 -1.00000000 0.00000011
vn 0.00000016 -1.00000000 0.00000010
vn 0.00000049 -1.00000000 0.00000000
vt -1.23096800 0.10196920
vt -1.15720900 0.18231150
vt -1.22409800 0.09197197
vt -1.11958600 0.27450870
vt -1.12682300 0.27916810
vt -1.09431600 0.35915050
vt -1.39591100 0.93883850
vt -1.39402600 0.94771440
vt -1.30633800 0.92401000
vt -1.31000500 0.91561580
vt -1.22795800 0.89298950
vt -1.31933200 0.89426830
vt -1.22258900 0.90091450
vt -1.15058700 0.85945060
vt -1.21727700 0.90875380
vt -1.14382800 0.86645640
vt -1.09032700 0.78606250
vt -1.40070700 0.91626600
vt -1.48151800 0.92645730
vt -1.41130100 0.86639630
vt -1.48122300 0.94959740
vt -1.56148700 0.93483200
vt -1.09814100 0.78064100
vt -1.06388300 0.68544640
vt -1.10603900 0.77516030
vt -1.05538100 0.68895410
vt -1.03759500 0.59651300
vt -1.15742000 0.85236820
vt -1.17479600 0.83435730
vt -1.24161300 0.87283560
vt -1.27178200 0.82830950
vt -1.33993800 0.84710510
vt -1.36905600 0.78731740
vt -1.04644800 0.59482690
vt -1.04658800 0.51047560
vt -1.05539700 0.59312240
vt -1.03773800 0.51046600
vt -1.05657900 0.43253970
vt -1.07247800 0.68190010
vt -1.09433500 0.67288190
vt -1.12612600 0.76122220
vt -1.17050400 0.73042890
vt -1.21318600 0.79456540
vt -1.26505200 0.74256350
vt -1.31316500 0.77100720
vt -1.36046300 0.71252430
vt -1.05553400 0.51048520
vt -1.07828500 0.51050960
vt -1.07362800 0.43564690
vt -1.07815500 0.58878750
vt -1.12843500 0.57921020
vt -1.14262500 0.65295790
vt -1.20643200 0.62713030
vt -1.22973200 0.69018790
vt -1.29436800 0.64790660
vt -1.06505700 0.43408490
vt -1.08642500 0.35609890
vt -1.32285800 0.68792200
vt -1.36924400 0.64518810
vt -1.10229200 0.36223530
vt -1.13413900 0.28387840
vt -1.12257600 0.37008040
vt -1.17118600 0.19563000
vt -1.16484100 0.18929130
vt -1.09542500 0.43961930
vt -1.14358000 0.44839560
vt -1.12854900 0.51056370
vt -1.19408200 0.50992820
vt -1.19438200 0.56664100
vt -1.26414000 0.55332990
vt -1.27484400 0.60040150
vt -1.32880800 0.57965840
vt -1.34576100 0.61484420
vt -1.36681800 0.60121790
vt -1.35099600 0.57107250
vt -1.38817500 0.62758200
vt -1.34137100 0.53858690
vt -1.41440500 0.64872340
vt -1.31882200 0.54289390
vt -1.31609800 0.50579110
vt -1.33819900 0.50500900
vt -1.34173600 0.47158740
vt -1.39881700 0.66742680
vt -1.43270600 0.68311610
vt -1.44432600 0.66432630
vt -1.47675500 0.67407440
vt -1.26264000 0.50788410
vt -1.27072800 0.46525670
vt -1.32093000 0.46959020
vt -1.33225500 0.43460270
vt -1.35159300 0.43940930
vt -1.36738100 0.40956220
vt -1.40391700 0.72809610
vt -1.44995000 0.74101970
vt -1.20603400 0.45819990
vt -1.22548800 0.40753190
vt -1.28561800 0.42373790
vt -1.30452200 0.38161820
vt -1.34901100 0.40114020
vt -1.37157800 0.37026070
vt -1.38857900 0.38310550
vt -1.41466900 0.36109840
vt -1.42771000 0.80329290
vt -1.48613200 0.81055680
vt -1.48216900 0.87533370
vt -1.54884400 0.86306810
vt -1.55754700 0.91247090
vt -1.63546600 0.88538290
vt -1.40033700 0.34302180
vt -1.43347300 0.32302520
vt -1.36521500 0.29970090
vt -1.44445900 0.34474990
vt -1.47676000 0.33526880
vt -1.33015100 0.33992880
vt -1.27795000 0.29866310
vt -1.24769100 0.35399960
vt -1.19384600 0.32232170
vt -1.16739100 0.38741270
vt -1.15274300 0.29585710
vt -1.19391200 0.21833400
vt -1.22994900 0.25433700
vt -1.28270400 0.18467310
vt -1.32156900 0.24258270
vt -1.37329300 0.20246530
vt -1.17760000 0.20203800
vt -1.24110600 0.11817630
vt -1.40631200 0.27066870
vt -1.45004000 0.26256690
vt -1.25406800 0.13889630
vt -1.32561100 0.08217993
vt -1.23601000 0.11002870
vt -1.31310400 0.04891181
vt -1.30961200 0.03962365
vt -1.39241800 0.02933612
vt -1.30512700 0.02817211
vt -1.39023300 0.01537565
vt -1.47830400 0.03256584
vt -1.34544500 0.13493510
vt -1.41150600 0.12672790
vt -1.31663400 0.05830136
vt -1.39615900 0.04842147
vt -1.39427900 0.03882694
vt -1.47742700 0.05566567
vt -1.47723800 0.04651326
vt -1.56192500 0.06656212
vt -1.56410300 0.05364097
vt -1.64892700 0.08300981
vt -1.42786800 0.19501760
vt -1.48382800 0.20517380
vt -1.64594800 0.09363431
vt -1.72877900 0.13188130
vt -1.64281200 0.10185810
vt -1.73319300 0.12335290
vt -1.80719300 0.17676370
vt -1.56044400 0.07531944
vt -1.55894800 0.08417234
vt -1.47761800 0.06491795
vt -1.47810300 0.08844745
vt -1.40094100 0.07282120
vt -1.47917400 0.14043150
vt -1.54673500 0.15642620
vt -1.55514200 0.10668610
vt -1.63157900 0.13131390
vt -1.63964100 0.11017170
vt -1.71919100 0.14690290
vt -1.72401100 0.13935130
vt -1.79531700 0.19060190
vt -1.80151900 0.18416220
vt -1.85526600 0.25333600
vt -1.86195200 0.24603970
vt -1.90559900 0.32663790
vt -1.89862100 0.33348240
vt -1.94018500 0.41868120
vt -1.89050600 0.33697970
vt -1.94779100 0.40998810
vt -1.97616000 0.50161830
vt -1.84800500 0.25841260
vt -1.84066500 0.26354470
vt -1.78904700 0.19711200
vt -1.77310300 0.21366780
vt -1.70693200 0.16610750
vt -1.67984800 0.20853640
vt -1.61376700 0.17802370
vt -1.59502700 0.23561780
vt -1.53970500 0.21786760
vt -1.54003300 0.27548590
vt -1.49506000 0.26697820
vt -1.50613400 0.31304000
vt -1.46916700 0.31387210
vt -1.51031400 0.33242410
vt -1.54386500 0.33598460
vt -1.54308500 0.31800630
vt -1.57891500 0.32902340
vt -1.57618900 0.34578830
vt -1.60606000 0.36167360
vt -1.58418300 0.28941290
vt -1.62673400 0.31008170
vt -1.61251500 0.34634380
vt -1.64200900 0.36969110
vt -1.63227700 0.38300700
vt -1.65363800 0.40915520
vt -1.64932200 0.26094310
vt -1.69699900 0.29551470
vt -1.66409300 0.33814880
vt -1.69266900 0.37427040
vt -1.66551900 0.39878900
vt -1.68340700 0.43209110
vt -1.66962200 0.43897460
vt -1.67970400 0.47132100
vt -1.73787800 0.25024490
vt -1.78075600 0.30543050
vt -1.73247100 0.34100350
vt -1.76093100 0.39364960
vt -1.71511000 0.41588900
vt -1.73406600 0.46044720
vt -1.69603300 0.46805130
vt -1.70163600 0.50550560
vt -1.68337500 0.50495960
vt -1.68012300 0.53865550
vt -1.82199800 0.27659600
vt -1.86143800 0.34950600
vt -1.81534400 0.36936980
vt -1.84850300 0.43733950
vt -1.78757600 0.44969340
vt -1.80378700 0.50834940
vt -1.74456300 0.50699150
vt -1.74162500 0.55456850
vt -1.69845200 0.54329040
vt -1.68750700 0.57986320
vt -1.67033200 0.57110800
vt -1.65438400 0.60101670
vt -1.66982800 0.61368160
vt -1.64543400 0.64283290
vt -1.70613300 0.64427320
vt -1.63287000 0.62717420
vt -1.60637700 0.64837330
vt -1.72792400 0.60104140
vt -1.78359500 0.62826190
vt -1.80094500 0.56883170
vt -1.86587800 0.58205750
vt -1.86906900 0.50851150
vt -1.92270000 0.50816970
vt -1.89924900 0.42701210
vt -1.92221800 0.42233760
vt -1.88230200 0.34051510
vt -1.93125000 0.42049950
vt -1.95652100 0.50795400
vt -1.94697500 0.50801490
vt -1.94313400 0.59654990
vt -1.91906200 0.59203410
vt -1.89502800 0.67455910
vt -1.96596300 0.50789380
vt -1.96196400 0.60008210
vt -1.97166400 0.60023980
vt -1.94438900 0.69313770
vt -1.84480100 0.65442870
vt -1.81170800 0.72207650
vt -1.95260000 0.59832560
vt -1.92670100 0.68725360
vt -1.93554400 0.69079770
vt -1.89406300 0.77559290
vt -1.90142500 0.77990040
vt -1.83872600 0.85103790
vt -1.91776200 0.68367070
vt -1.87792400 0.76510550
vt -1.75628400 0.68376150
vt -1.71593000 0.72954540
vt -1.88603700 0.77037780
vt -1.82555200 0.83866010
vt -1.83236100 0.84524790
vt -1.74528300 0.89054360
vt -1.74924600 0.89845250
vt -1.65248500 0.93201460
vt -1.67479700 0.68056180
vt -1.63246100 0.70620470
vt -1.61434800 0.66540440
vt -1.57938900 0.68203140
vt -1.57627100 0.66413840
vt -1.54391600 0.67399420
vt -1.65022000 0.92254630
vt -1.56456800 0.95232270
vt -1.64700000 0.91443510
vt -1.56688300 0.96178410
vt -1.48298300 0.98042820
vt -1.48099300 0.96769740
vt -1.48110700 0.95869650
vt -1.39216100 0.95649470
vt -1.56303600 0.94362500
vt -1.74018900 0.88306300
vt -1.73504000 0.87550090
vt -1.64374500 0.90623540
vt -1.81866800 0.83200030
vt -1.80116100 0.81506380
vt -1.72194500 0.85626960
vt -1.69301400 0.81378190
vt -1.85729100 0.75169800
vt -1.76248400 0.77764590
vt -1.61717500 0.83931290
vt -1.59765000 0.78132200
vt -1.65945100 0.75982950
vt -1.54132800 0.80073210
vt -1.54095100 0.73957190
vt -1.58566600 0.72470650
vt -1.49636300 0.74645760
vt -1.50655000 0.69779600
vt -1.54337900 0.69334880
vt -1.51038600 0.67746470
vt -1.46913800 0.69381200
vt -1.30271000 0.93231360
vt -1.29899400 0.94259720
vt -1.21288400 0.91752290
vt -1.13778700 0.87121150
vt -1.08320100 0.78808400
vt -1.04627500 0.68884980
vt -1.02738500 0.59665080
vt -1.02625600 0.50704880
vt -1.04571000 0.43006920
vt -1.07703200 0.35273220
vt -1.11001900 0.27025530
vt -1.39085900 0.96592270
vt -1.01518600 0.96477470
vt -1.01369100 0.96756200
vt -1.01730600 0.96191140
vt -1.02536300 0.96002850
vt -1.01264500 0.97017620
vt -1.02257200 0.95948360
vt -1.01987400 0.95988920
vt -1.02808300 0.96069650
vt -1.03077100 0.96162740
vt -1.03344200 0.96290600
vt -1.03578800 0.96459890
vt -1.03752300 0.96679460
vt -1.03890600 0.96934910
vt -1.04024400 0.97199090
vt -1.04114300 0.97489520
vt -1.04100000 0.97802090
vt -1.01165200 0.97262750
vt -1.01103600 0.97506740
vt -1.01107100 0.97790730
vt -1.01167000 0.98082960
vt -1.04013600 0.98096550
vt -1.03877400 0.98371540
vt -1.03678700 0.98597000
vt -1.03395100 0.98747290
vt -1.01284100 0.98397480
vt -1.01457100 0.98660960
vt -1.01695100 0.98807740
vt -1.01968000 0.98887210
vt -1.03088400 0.98853670
vt -1.02259200 0.98961140
vt -1.02551200 0.99007120
vt -1.02817100 0.98948030
f 3/3/3 2/2/2 1/1/1
f 6/6/6 5/5/5 4/4/4
f 9/9/9 8/8/8 7/7/7
f 10/10/10 9/9/9 7/7/7
f 9/9/9 10/10/10 11/11/11
f 12/12/12 10/10/10 7/7/7
f 10/10/10 12/12/12 11/11/11
f 13/13/13 9/9/9 11/11/11
f 14/14/14 13/13/13 11/11/11
f 9/9/9 13/13/13 15/15/15
f 13/13/13 14/14/14 15/15/15
f 14/14/14 16/16/16 15/15/15
f 16/16/16 14/14/14 17/17/17
f 18/18/18 12/12/12 7/7/7
f 19/19/19 18/18/18 7/7/7
f 12/12/12 18/18/18 20/20/20
f 18/18/18 19/19/19 20/20/20
f 21/21/21 19/19/19 7/7/7
f 19/19/19 21/21/21 22/22/22
f 14/14/14 23/23/23 17/17/17
f 23/23/23 24/24/24 17/17/17
f 23/23/23 14/14/14 25/25/25
f 24/24/24 23/23/23 25/25/25
f 24/24/24 26/26/26 17/17/17
f 26/26/26 24/24/24 27/27/27
f 14/14/14 28/28/28 25/25/25
f 28/28/28 29/29/29 25/25/25
f 28/28/28 14/14/14 11/11/11
f 29/29/29 28/28/28 11/11/11
f 30/30/30 29/29/29 11/11/11
f 29/29/29 30/30/30 31/31/31
f 12/12/12 30/30/30 11/11/11
f 30/30/30 12/12/12 31/31/31
f 12/12/12 32/32/32 31/31/31
f 32/32/32 33/33/33 31/31/31
f 32/32/32 12/12/12 20/20/20
f 33/33/33 32/32/32 20/20/20
f 24/24/24 34/34/34 27/27/27
f 34/34/34 35/35/35 27/27/27
f 34/34/34 24/24/24 36/36/36
f 35/35/35 34/34/34 36/36/36
f 35/35/35 37/37/37 27/27/27
f 37/37/37 35/35/35 38/38/38
f 24/24/24 39/39/39 36/36/36
f 39/39/39 40/40/40 36/36/36
f 39/39/39 24/24/24 25/25/25
f 40/40/40 39/39/39 25/25/25
f 41/41/41 40/40/40 25/25/25
f 40/40/40 41/41/41 42/42/42
f 29/29/29 41/41/41 25/25/25
f 41/41/41 29/29/29 42/42/42
f 29/29/29 43/43/43 42/42/42
f 43/43/43 44/44/44 42/42/42
f 43/43/43 29/29/29 31/31/31
f 44/44/44 43/43/43 31/31/31
f 45/45/45 44/44/44 31/31/31
f 44/44/44 45/45/45 46/46/46
f 33/33/33 45/45/45 31/31/31
f 45/45/45 33/33/33 46/46/46
f 47/47/47 35/35/35 36/36/36
f 48/48/48 47/47/47 36/36/36
f 35/35/35 47/47/47 49/49/49
f 47/47/47 48/48/48 49/49/49
f 40/40/40 50/50/50 36/36/36
f 50/50/50 48/48/48 36/36/36
f 50/50/50 40/40/40 51/51/51
f 48/48/48 50/50/50 51/51/51
f 52/52/52 40/40/40 42/42/42
f 40/40/40 52/52/52 51/51/51
f 53/53/53 52/52/52 42/42/42
f 52/52/52 53/53/53 51/51/51
f 44/44/44 54/54/54 42/42/42
f 54/54/54 53/53/53 42/42/42
f 54/54/54 44/44/44 55/55/55
f 53/53/53 54/54/54 55/55/55
f 56/56/56 35/35/35 49/49/49
f 35/35/35 56/56/56 38/38/38
f 56/56/56 6/6/6 38/38/38
f 6/6/6 56/56/56 49/49/49
f 6/6/6 57/57/57 38/38/38
f 57/57/57 6/6/6 4/4/4
f 44/44/44 58/58/58 55/55/55
f 58/58/58 59/59/59 55/55/55
f 58/58/58 44/44/44 46/46/46
f 59/59/59 58/58/58 46/46/46
f 60/60/60 6/6/6 49/49/49
f 6/6/6 60/60/60 61/61/61
f 62/62/62 60/60/60 49/49/49
f 60/60/60 62/62/62 61/61/61
f 5/5/5 6/6/6 61/61/61
f 5/5/5 63/63/63 4/4/4
f 63/63/63 5/5/5 61/61/61
f 63/63/63 64/64/64 4/4/4
f 64/64/64 63/63/63 1/1/1
f 65/65/65 62/62/62 49/49/49
f 62/62/62 65/65/65 66/66/66
f 48/48/48 65/65/65 49/49/49
f 65/65/65 48/48/48 66/66/66
f 48/48/48 67/67/67 66/66/66
f 67/67/67 68/68/68 66/66/66
f 67/67/67 48/48/48 51/51/51
f 68/68/68 67/67/67 51/51/51
f 69/69/69 68/68/68 51/51/51
f 68/68/68 69/69/69 70/70/70
f 53/53/53 69/69/69 51/51/51
f 69/69/69 53/53/53 70/70/70
f 53/53/53 71/71/71 70/70/70
f 71/71/71 72/72/72 70/70/70
f 71/71/71 53/53/53 55/55/55
f 72/72/72 71/71/71 55/55/55
f 73/73/73 72/72/72 55/55/55
f 59/59/59 73/73/73 55/55/55
f 72/72/72 73/73/73 74/74/74
f 73/73/73 59/59/59 74/74/74
f 75/75/75 72/72/72 74/74/74
f 59/59/59 76/76/76 74/74/74
f 72/72/72 75/75/75 77/77/77
f 76/76/76 59/59/59 78/78/78
f 79/79/79 72/72/72 77/77/77
f 72/72/72 79/79/79 70/70/70
f 80/80/80 79/79/79 77/77/77
f 79/79/79 80/80/80 70/70/70
f 81/81/81 80/80/80 77/77/77
f 80/80/80 81/81/81 82/82/82
f 59/59/59 83/83/83 78/78/78
f 83/83/83 84/84/84 78/78/78
f 83/83/83 59/59/59 46/46/46
f 84/84/84 83/83/83 46/46/46
f 84/84/84 85/85/85 78/78/78
f 85/85/85 84/84/84 86/86/86
f 80/80/80 87/87/87 70/70/70
f 87/87/87 80/80/80 88/88/88
f 87/87/87 68/68/68 70/70/70
f 68/68/68 87/87/87 88/88/88
f 89/89/89 80/80/80 82/82/82
f 80/80/80 89/89/89 88/88/88
f 90/90/90 89/89/89 82/82/82
f 89/89/89 90/90/90 88/88/88
f 91/91/91 90/90/90 82/82/82
f 90/90/90 91/91/91 92/92/92
f 93/93/93 84/84/84 46/46/46
f 84/84/84 93/93/93 94/94/94
f 33/33/33 93/93/93 46/46/46
f 93/93/93 33/33/33 94/94/94
f 95/95/95 68/68/68 88/88/88
f 96/96/96 95/95/95 88/88/88
f 68/68/68 95/95/95 66/66/66
f 95/95/95 96/96/96 66/66/66
f 90/90/90 97/97/97 88/88/88
f 97/97/97 96/96/96 88/88/88
f 97/97/97 90/90/90 98/98/98
f 96/96/96 97/97/97 98/98/98
f 99/99/99 90/90/90 92/92/92
f 90/90/90 99/99/99 98/98/98
f 100/100/100 99/99/99 92/92/92
f 99/99/99 100/100/100 98/98/98
f 101/101/101 100/100/100 92/92/92
f 100/100/100 101/101/101 102/102/102
f 33/33/33 103/103/103 94/94/94
f 103/103/103 104/104/104 94/94/94
f 103/103/103 33/33/33 20/20/20
f 104/104/104 103/103/103 20/20/20
f 105/105/105 104/104/104 20/20/20
f 104/104/104 105/105/105 106/106/106
f 19/19/19 105/105/105 20/20/20
f 105/105/105 19/19/19 106/106/106
f 19/19/19 107/107/107 106/106/106
f 107/107/107 108/108/108 106/106/106
f 107/107/107 19/19/19 22/22/22
f 108/108/108 107/107/107 22/22/22
f 109/109/109 100/100/100 102/102/102
f 110/110/110 109/109/109 102/102/102
f 100/100/100 109/109/109 111/111/111
f 109/109/109 110/110/110 111/111/111
f 112/112/112 110/110/110 102/102/102
f 110/110/110 112/112/112 113/113/113
f 114/114/114 100/100/100 111/111/111
f 115/115/115 114/114/114 111/111/111
f 100/100/100 114/114/114 98/98/98
f 114/114/114 115/115/115 98/98/98
f 115/115/115 116/116/116 98/98/98
f 116/116/116 115/115/115 117/117/117
f 116/116/116 96/96/96 98/98/98
f 96/96/96 116/116/116 117/117/117
f 118/118/118 96/96/96 117/117/117
f 96/96/96 118/118/118 66/66/66
f 118/118/118 62/62/62 66/66/66
f 62/62/62 118/118/118 117/117/117
f 119/119/119 62/62/62 117/117/117
f 120/120/120 119/119/119 117/117/117
f 62/62/62 119/119/119 61/61/61
f 119/119/119 120/120/120 61/61/61
f 115/115/115 121/121/121 117/117/117
f 121/121/121 120/120/120 117/117/117
f 121/121/121 115/115/115 122/122/122
f 120/120/120 121/121/121 122/122/122
f 123/123/123 115/115/115 111/111/111
f 115/115/115 123/123/123 122/122/122
f 124/124/124 123/123/123 111/111/111
f 123/123/123 124/124/124 122/122/122
f 120/120/120 125/125/125 61/61/61
f 125/125/125 120/120/120 126/126/126
f 125/125/125 63/63/63 61/61/61
f 63/63/63 125/125/125 126/126/126
f 127/127/127 124/124/124 111/111/111
f 124/124/124 127/127/127 128/128/128
f 110/110/110 127/127/127 111/111/111
f 127/127/127 110/110/110 128/128/128
f 129/129/129 120/120/120 122/122/122
f 120/120/120 129/129/129 126/126/126
f 130/130/130 129/129/129 122/122/122
f 129/129/129 130/130/130 126/126/126
f 131/131/131 63/63/63 126/126/126
f 132/132/132 131/131/131 126/126/126
f 63/63/63 131/131/131 1/1/1
f 131/131/131 132/132/132 1/1/1
f 132/132/132 133/133/133 1/1/1
f 133/133/133 132/132/132 134/134/134
f 135/135/135 133/133/133 134/134/134
f 136/136/136 135/135/135 134/134/134
f 137/137/137 136/136/136 134/134/134
f 138/138/138 130/130/130 122/122/122
f 130/130/130 138/138/138 139/139/139
f 124/124/124 138/138/138 122/122/122
f 138/138/138 124/124/124 139/139/139
f 130/130/130 140/140/140 126/126/126
f 140/140/140 132/132/132 126/126/126
f 140/140/140 130/130/130 141/141/141
f 132/132/132 140/140/140 141/141/141
f 132/132/132 142/142/142 134/134/134
f 142/142/142 132/132/132 141/141/141
f 142/142/142 143/143/143 134/134/134
f 143/143/143 142/142/142 141/141/141
f 144/144/144 137/137/137 134/134/134
f 143/143/143 144/144/144 134/134/134
f 137/137/137 144/144/144 145/145/145
f 144/144/144 143/143/143 145/145/145
f 146/146/146 137/137/137 145/145/145
f 147/147/147 146/146/146 145/145/145
f 124/124/124 148/148/148 139/139/139
f 148/148/148 149/149/149 139/139/139
f 148/148/148 124/124/124 128/128/128
f 149/149/149 148/148/148 128/128/128
f 150/150/150 147/147/147 145/145/145
f 147/147/147 150/150/150 151/151/151
f 152/152/152 150/150/150 145/145/145
f 150/150/150 152/152/152 151/151/151
f 153/153/153 147/147/147 151/151/151
f 154/154/154 153/153/153 151/151/151
f 143/143/143 155/155/155 145/145/145
f 155/155/155 152/152/152 145/145/145
f 155/155/155 143/143/143 156/156/156
f 152/152/152 155/155/155 156/156/156
f 143/143/143 157/157/157 156/156/156
f 157/157/157 158/158/158 156/156/156
f 157/157/157 143/143/143 141/141/141
f 158/158/158 157/157/157 141/141/141
f 159/159/159 158/158/158 141/141/141
f 130/130/130 159/159/159 141/141/141
f 159/159/159 130/130/130 139/139/139
f 158/158/158 159/159/159 139/139/139
f 160/160/160 158/158/158 139/139/139
f 158/158/158 160/160/160 161/161/161
f 149/149/149 160/160/160 139/139/139
f 160/160/160 149/149/149 161/161/161
f 158/158/158 162/162/162 156/156/156
f 162/162/162 158/158/158 161/161/161
f 162/162/162 163/163/163 156/156/156
f 163/163/163 162/162/162 161/161/161
f 164/164/164 152/152/152 156/156/156
f 163/163/163 164/164/164 156/156/156
f 152/152/152 164/164/164 165/165/165
f 164/164/164 163/163/163 165/165/165
f 166/166/166 152/152/152 165/165/165
f 167/167/167 166/166/166 165/165/165
f 152/152/152 166/166/166 151/151/151
f 166/166/166 167/167/167 151/151/151
f 167/167/167 168/168/168 151/151/151
f 168/168/168 167/167/167 169/169/169
f 168/168/168 154/154/154 151/151/151
f 154/154/154 168/168/168 169/169/169
f 170/170/170 154/154/154 169/169/169
f 171/171/171 170/170/170 169/169/169
f 172/172/172 171/171/171 169/169/169
f 171/171/171 172/172/172 173/173/173
f 174/174/174 172/172/172 169/169/169
f 172/172/172 174/174/174 173/173/173
f 175/175/175 171/171/171 173/173/173
f 176/176/176 175/175/175 173/173/173
f 167/167/167 177/177/177 169/169/169
f 177/177/177 174/174/174 169/169/169
f 177/177/177 167/167/167 178/178/178
f 174/174/174 177/177/177 178/178/178
f 167/167/167 179/179/179 178/178/178
f 179/179/179 180/180/180 178/178/178
f 179/179/179 167/167/167 165/165/165
f 180/180/180 179/179/179 165/165/165
f 181/181/181 180/180/180 165/165/165
f 180/180/180 181/181/181 182/182/182
f 163/163/163 181/181/181 165/165/165
f 181/181/181 163/163/163 182/182/182
f 163/163/163 183/183/183 182/182/182
f 183/183/183 184/184/184 182/182/182
f 183/183/183 163/163/163 161/161/161
f 184/184/184 183/183/183 161/161/161
f 185/185/185 184/184/184 161/161/161
f 184/184/184 185/185/185 186/186/186
f 149/149/149 185/185/185 161/161/161
f 185/185/185 149/149/149 186/186/186
f 149/149/149 187/187/187 186/186/186
f 187/187/187 188/188/188 186/186/186
f 187/187/187 149/149/149 128/128/128
f 188/188/188 187/187/187 128/128/128
f 189/189/189 188/188/188 128/128/128
f 110/110/110 189/189/189 128/128/128
f 189/189/189 110/110/110 113/113/113
f 188/188/188 189/189/189 113/113/113
f 190/190/190 188/188/188 113/113/113
f 188/188/188 190/190/190 191/191/191
f 192/192/192 188/188/188 191/191/191
f 188/188/188 192/192/192 186/186/186
f 193/193/193 192/192/192 191/191/191
f 192/192/192 193/193/193 186/186/186
f 194/194/194 193/193/193 191/191/191
f 193/193/193 194/194/194 195/195/195
f 193/193/193 196/196/196 186/186/186
f 196/196/196 193/193/193 197/197/197
f 196/196/196 184/184/184 186/186/186
f 184/184/184 196/196/196 197/197/197
f 198/198/198 193/193/193 195/195/195
f 193/193/193 198/198/198 197/197/197
f 199/199/199 198/198/198 195/195/195
f 198/198/198 199/199/199 197/197/197
f 200/200/200 199/199/199 195/195/195
f 199/199/199 200/200/200 201/201/201
f 202/202/202 184/184/184 197/197/197
f 203/203/203 202/202/202 197/197/197
f 184/184/184 202/202/202 182/182/182
f 202/202/202 203/203/203 182/182/182
f 199/199/199 204/204/204 197/197/197
f 204/204/204 203/203/203 197/197/197
f 204/204/204 199/199/199 205/205/205
f 203/203/203 204/204/204 205/205/205
f 206/206/206 199/199/199 201/201/201
f 199/199/199 206/206/206 205/205/205
f 207/207/207 206/206/206 201/201/201
f 206/206/206 207/207/207 205/205/205
f 208/208/208 207/207/207 201/201/201
f 207/207/207 208/208/208 209/209/209
f 203/203/203 210/210/210 182/182/182
f 210/210/210 203/203/203 211/211/211
f 210/210/210 180/180/180 182/182/182
f 180/180/180 210/210/210 211/211/211
f 212/212/212 203/203/203 205/205/205
f 203/203/203 212/212/212 211/211/211
f 213/213/213 212/212/212 205/205/205
f 212/212/212 213/213/213 211/211/211
f 207/207/207 214/214/214 205/205/205
f 214/214/214 213/213/213 205/205/205
f 214/214/214 207/207/207 215/215/215
f 213/213/213 214/214/214 215/215/215
f 216/216/216 207/207/207 209/209/209
f 207/207/207 216/216/216 215/215/215
f 217/217/217 216/216/216 209/209/209
f 216/216/216 217/217/217 215/215/215
f 218/218/218 217/217/217 209/209/209
f 217/217/217 218/218/218 219/219/219
f 220/220/220 180/180/180 211/211/211
f 221/221/221 220/220/220 211/211/211
f 180/180/180 220/220/220 178/178/178
f 220/220/220 221/221/221 178/178/178
f 213/213/213 222/222/222 211/211/211
f 222/222/222 221/221/221 211/211/211
f 222/222/222 213/213/213 223/223/223
f 221/221/221 222/222/222 223/223/223
f 224/224/224 213/213/213 215/215/215
f 213/213/213 224/224/224 223/223/223
f 225/225/225 224/224/224 215/215/215
f 224/224/224 225/225/225 223/223/223
f 217/217/217 226/226/226 215/215/215
f 226/226/226 225/225/225 215/215/215
f 226/226/226 217/217/217 227/227/227
f 225/225/225 226/226/226 227/227/227
f 228/228/228 217/217/217 219/219/219
f 217/217/217 228/228/228 227/227/227
f 229/229/229 228/228/228 219/219/219
f 228/228/228 229/229/229 227/227/227
f 230/230/230 229/229/229 219/219/219
f 229/229/229 230/230/230 231/231/231
f 232/232/232 229/229/229 231/231/231
f 233/233/233 232/232/232 231/231/231
f 229/229/229 232/232/232 234/234/234
f 232/232/232 233/233/233 234/234/234
f 235/235/235 233/233/233 231/231/231
f 233/233/233 235/235/235 236/236/236
f 229/229/229 237/237/237 227/227/227
f 237/237/237 229/229/229 234/234/234
f 237/237/237 238/238/238 227/227/227
f 238/238/238 237/237/237 234/234/234
f 239/239/239 225/225/225 227/227/227
f 238/238/238 239/239/239 227/227/227
f 225/225/225 239/239/239 240/240/240
f 239/239/239 238/238/238 240/240/240
f 241/241/241 225/225/225 240/240/240
f 242/242/242 241/241/241 240/240/240
f 225/225/225 241/241/241 223/223/223
f 241/241/241 242/242/242 223/223/223
f 242/242/242 243/243/243 223/223/223
f 243/243/243 242/242/242 244/244/244
f 243/243/243 221/221/221 223/223/223
f 221/221/221 243/243/243 244/244/244
f 245/245/245 221/221/221 244/244/244
f 221/221/221 245/245/245 178/178/178
f 245/245/245 174/174/174 178/178/178
f 174/174/174 245/245/245 244/244/244
f 246/246/246 174/174/174 244/244/244
f 247/247/247 246/246/246 244/244/244
f 174/174/174 246/246/246 173/173/173
f 246/246/246 247/247/247 173/173/173
f 242/242/242 248/248/248 244/244/244
f 248/248/248 247/247/247 244/244/244
f 248/248/248 242/242/242 249/249/249
f 247/247/247 248/248/248 249/249/249
f 250/250/250 242/242/242 240/240/240
f 242/242/242 250/250/250 249/249/249
f 251/251/251 250/250/250 240/240/240
f 250/250/250 251/251/251 249/249/249
f 247/247/247 252/252/252 173/173/173
f 252/252/252 247/247/247 253/253/253
f 252/252/252 176/176/176 173/173/173
f 176/176/176 252/252/252 253/253/253
f 254/254/254 176/176/176 253/253/253
f 255/255/255 254/254/254 253/253/253
f 256/256/256 251/251/251 240/240/240
f 251/251/251 256/256/256 257/257/257
f 238/238/238 256/256/256 240/240/240
f 256/256/256 238/238/238 257/257/257
f 258/258/258 247/247/247 249/249/249
f 247/247/247 258/258/258 253/253/253
f 259/259/259 258/258/258 249/249/249
f 258/258/258 259/259/259 253/253/253
f 260/260/260 255/255/255 253/253/253
f 259/259/259 260/260/260 253/253/253
f 255/255/255 260/260/260 261/261/261
f 260/260/260 259/259/259 261/261/261
f 262/262/262 255/255/255 261/261/261
f 263/263/263 262/262/262 261/261/261
f 251/251/251 264/264/264 249/249/249
f 264/264/264 259/259/259 249/249/249
f 264/264/264 251/251/251 265/265/265
f 259/259/259 264/264/264 265/265/265
f 238/238/238 266/266/266 257/257/257
f 266/266/266 267/267/267 257/257/257
f 266/266/266 238/238/238 234/234/234
f 267/267/267 266/266/266 234/234/234
f 259/259/259 268/268/268 261/261/261
f 268/268/268 259/259/259 265/265/265
f 268/268/268 269/269/269 261/261/261
f 269/269/269 268/268/268 265/265/265
f 270/270/270 263/263/263 261/261/261
f 269/269/269 270/270/270 261/261/261
f 263/263/263 270/270/270 271/271/271
f 270/270/270 269/269/269 271/271/271
f 272/272/272 263/263/263 271/271/271
f 273/273/273 272/272/272 271/271/271
f 274/274/274 267/267/267 234/234/234
f 267/267/267 274/274/274 275/275/275
f 233/233/233 274/274/274 234/234/234
f 274/274/274 233/233/233 275/275/275
f 233/233/233 276/276/276 275/275/275
f 276/276/276 277/277/277 275/275/275
f 276/276/276 233/233/233 236/236/236
f 277/277/277 276/276/276 236/236/236
f 278/278/278 277/277/277 236/236/236
f 277/277/277 278/278/278 279/279/279
f 280/280/280 273/273/273 271/271/271
f 273/273/273 280/280/280 281/281/281
f 282/282/282 280/280/280 271/271/271
f 280/280/280 282/282/282 281/281/281
f 283/283/283 273/273/273 281/281/281
f 284/284/284 283/283/283 281/281/281
f 285/285/285 284/284/284 281/281/281
f 286/286/286 285/285/285 281/281/281
f 285/285/285 286/286/286 287/287/287
f 288/288/288 286/286/286 281/281/281
f 282/282/282 288/288/288 281/281/281
f 288/288/288 282/282/282 22/22/22
f 289/289/289 282/282/282 271/271/271
f 282/282/282 289/289/289 290/290/290
f 269/269/269 289/289/289 271/271/271
f 289/289/289 269/269/269 290/290/290
f 282/282/282 291/291/291 22/22/22
f 291/291/291 282/282/282 290/290/290
f 291/291/291 108/108/108 22/22/22
f 108/108/108 291/291/291 290/290/290
f 269/269/269 292/292/292 290/290/290
f 292/292/292 293/293/293 290/290/290
f 292/292/292 269/269/269 265/265/265
f 293/293/293 292/292/292 265/265/265
f 294/294/294 108/108/108 290/290/290
f 293/293/293 294/294/294 290/290/290
f 108/108/108 294/294/294 295/295/295
f 294/294/294 293/293/293 295/295/295
f 296/296/296 293/293/293 265/265/265
f 251/251/251 296/296/296 265/265/265
f 296/296/296 251/251/251 257/257/257
f 293/293/293 296/296/296 257/257/257
f 297/297/297 293/293/293 257/257/257
f 293/293/293 297/297/297 295/295/295
f 267/267/267 297/297/297 257/257/257
f 297/297/297 267/267/267 295/295/295
f 298/298/298 108/108/108 295/295/295
f 299/299/299 298/298/298 295/295/295
f 108/108/108 298/298/298 106/106/106
f 298/298/298 299/299/299 106/106/106
f 267/267/267 300/300/300 295/295/295
f 300/300/300 299/299/299 295/295/295
f 300/300/300 267/267/267 275/275/275
f 299/299/299 300/300/300 275/275/275
f 299/299/299 301/301/301 106/106/106
f 301/301/301 299/299/299 302/302/302
f 301/301/301 104/104/104 106/106/106
f 104/104/104 301/301/301 302/302/302
f 303/303/303 299/299/299 275/275/275
f 299/299/299 303/303/303 302/302/302
f 277/277/277 303/303/303 275/275/275
f 303/303/303 277/277/277 302/302/302
f 304/304/304 104/104/104 302/302/302
f 305/305/305 304/304/304 302/302/302
f 104/104/104 304/304/304 94/94/94
f 304/304/304 305/305/305 94/94/94
f 277/277/277 306/306/306 302/302/302
f 306/306/306 305/305/305 302/302/302
f 306/306/306 277/277/277 279/279/279
f 305/305/305 306/306/306 279/279/279
f 307/307/307 305/305/305 279/279/279
f 305/305/305 307/307/307 86/86/86
f 305/305/305 308/308/308 94/94/94
f 308/308/308 305/305/305 86/86/86
f 308/308/308 84/84/84 94/94/94
f 84/84/84 308/308/308 86/86/86
f 286/286/286 288/288/288 22/22/22
f 21/21/21 286/286/286 22/22/22
f 286/286/286 21/21/21 7/7/7
f 8/8/8 286/286/286 7/7/7
f 286/286/286 8/8/8 287/287/287
f 8/8/8 9/9/9 287/287/287
f 9/9/9 309/309/309 287/287/287
f 309/309/309 9/9/9 15/15/15
f 310/310/310 309/309/309 15/15/15
f 311/311/311 310/310/310 15/15/15
f 312/312/312 311/311/311 15/15/15
f 16/16/16 312/312/312 15/15/15
f 312/312/312 16/16/16 17/17/17
f 313/313/313 312/312/312 17/17/17
f 314/314/314 313/313/313 17/17/17
f 26/26/26 314/314/314 17/17/17
f 314/314/314 26/26/26 27/27/27
f 315/315/315 314/314/314 27/27/27
f 316/316/316 315/315/315 27/27/27
f 37/37/37 316/316/316 27/27/27
f 316/316/316 37/37/37 38/38/38
f 317/317/317 316/316/316 38/38/38
f 318/318/318 317/317/317 38/38/38
f 57/57/57 318/318/318 38/38/38
f 318/318/318 57/57/57 4/4/4
f 319/319/319 318/318/318 4/4/4
f 2/2/2 319/319/319 4/4/4
f 64/64/64 2/2/2 4/4/4
f 2/2/2 64/64/64 1/1/1
f 135/135/135 3/3/3 1/1/1
f 133/133/133 135/135/135 1/1/1
f 310/310/310 320/320/320 287/287/287
f 309/309/309 310/310/310 287/287/287
f 284/284/284 285/285/285 287/287/287
f 320/320/320 284/284/284 287/287/287
f 323/323/323 322/322/322 321/321/321
f 323/323/323 324/324/324 322/322/322
f 322/322/322 324/324/324 325/325/325
f 323/323/323 326/326/326 324/324/324
f 327/327/327 326/326/326 323/323/323
f 325/325/325 324/324/324 328/328/328
f 325/325/325 328/328/328 329/329/329
f 325/325/325 329/329/329 330/330/330
f 325/325/325 330/330/330 331/331/331
f 325/325/325 331/331/331 332/332/332
f 325/325/325 332/332/332 333/333/333
f 325/325/325 333/333/333 334/334/334
f 325/325/325 334/334/334 335/335/335
f 325/325/325 335/335/335 336/336/336
f 325/325/325 336/336/336 337/337/337
f 337/337/337 336/336/336 338/338/338
f 338/338/338 336/336/336 339/339/339
f 339/339/339 336/336/336 340/340/340
f 340/340/340 336/336/336 341/341/341
f 340/340/340 341/341/341 342/342/342
f 340/340/340 342/342/342 343/343/343
f 340/340/340 343/343/343 344/344/344
f 340/340/340 344/344/344 345/345/345
f 345/345/345 344/344/344 346/346/346
f 346/346/346 344/344/344 347/347/347
f 347/347/347 344/344/344 348/348/348
f 348/348/348 344/344/344 349/349/349
f 348/348/348 349/349/349 350/350/350
f 350/350/350 349/349/349 351/351/351
f 351/351/351 349/349/349 352/352/352

