mtllib Apple_3.mtl
g apple_a3
v 0.001402294 0.0453752 -0.0001412105
v 0.0009963616 0.04587377 0.0001313062
v 0.0008953837 0.04583468 -4.022256E-05
v 0.001147442 0.04591351 0.0002426186
v -0.003025988 0.05219157 0.006527046
v -0.00525928 0.05213706 0.004329786
v 0.001203208 0.05834018 0.001558766
v 0.002471679 0.0596789 0.0003743162
v 0.001964386 0.0441368 0.0009108434
v -0.001014441 0.07114986 -0.0005951136
v 0.002471679 0.0596789 0.0003743162
v -0.001014441 0.07114986 -0.0005951136
v -0.0003787841 0.06935653 -0.003815212
v 0.001524373 0.05857492 -0.001324808
v 0.002028579 0.04414101 -0.001765599
v 0.001964386 0.0441368 0.0009108434
v -0.002542132 0.06842954 -0.002651103
v -0.0003787841 0.06935653 -0.003815212
v -0.001014441 0.07114986 -0.0005951136
v 0.001524373 0.05857492 -0.001324808
v -0.0002633321 0.0584453 0.0001491664
v 0.002028579 0.04414101 -0.001765599
v 0.0002437972 0.04413685 0.0002052043
v 0.001203208 0.05834018 0.001558766
v 0.001964386 0.0441368 0.0009108434
v 0.0002437972 0.04413685 0.0002052043
v -0.0002633321 0.0584453 0.0001491664
v -0.001014441 0.07114986 -0.0005951136
v -0.002542132 0.06842954 -0.002651103
v 0.04417461 0.05532661 -0.008716054
v 0.02530133 0.0581986 -0.01619479
v 0.03748455 0.05498717 -0.02437745
v 0.05465759 0.04273575 -0.01083651
v 0.04707943 0.04304466 -0.03084096
v 0.0252519 0.05425284 -0.03598174
v 0.03106468 0.04218983 -0.04469648
v 0.009919832 0.05517173 -0.04301363
v 0.01186175 0.04222552 -0.05271098
v -0.009138477 0.04268517 -0.05351713
v -0.007183953 0.05621133 -0.04369922
v 0.007031011 0.05861075 -0.02842114
v 0.01738908 0.05807995 -0.02415902
v -0.004140959 0.05935889 -0.0283576
v -0.01444213 0.05956349 -0.02405059
v -0.02293222 0.05572898 -0.03679258
v -0.02229501 0.06002431 -0.01610468
v -0.03535774 0.0563111 -0.02485593
v 0.0388465 -0.005301955 -0.02553127
v 0.04793803 0.02289536 -0.03149496
v 0.03164374 0.02289721 -0.04543821
v 0.04535253 -0.005355547 -0.009333005
v 0.05571265 0.02289578 -0.01116835
v 0.0452928 -0.005436702 0.008416108
v 0.04707943 0.04304466 -0.03084096
v 0.05465759 0.04273575 -0.01083651
v 0.0388465 -0.005301955 -0.02553127
v 0.03164374 0.02289721 -0.04543821
v 0.02685107 -0.005384554 -0.03801501
v 0.01218231 0.02289688 -0.05369466
v 0.01076146 -0.005619652 -0.04523724
v -0.007176081 -0.005537289 -0.04461156
v 0.01186175 0.04222552 -0.05271098
v 0.03106468 0.04218983 -0.04469648
v 0.04793803 0.02289536 -0.03149496
v 0.04707943 0.04304466 -0.03084096
v -0.00909816 0.02289683 -0.05358701
v -0.009138477 0.04268517 -0.05351713
v -0.02844628 0.02289736 -0.04495182
v -0.02316432 -0.005310092 -0.03699195
v 0.0287432 -0.03429035 -0.01846125
v 0.0388465 -0.005301955 -0.02553127
v 0.02685107 -0.005384554 -0.03801501
v 0.01948206 -0.03400845 -0.02718776
v 0.01701754 -0.04807468 -0.01087441
v 0.01209358 -0.04815238 -0.01585351
v 0.01076146 -0.005619652 -0.04523724
v 0.007556364 -0.03411305 -0.03188607
v 0.005501735 -0.04835153 -0.01843642
v -0.001733674 -0.0486763 -0.01827604
v -0.005602093 -0.03439768 -0.03186493
v -0.007176081 -0.005537289 -0.04461156
v -0.02316432 -0.005310092 -0.03699195
v -0.0178833 -0.03454442 -0.02678426
v -0.008503962 -0.0493574 -0.01546716
v 0.01948515 -0.04780731 -0.004227761
v 0.0287432 -0.03429035 -0.01846125
v 0.01701754 -0.04807468 -0.01087441
v 0.03294457 -0.03403737 -0.006206816
v 0.0388465 -0.005301955 -0.02553127
v 0.01910287 -0.0469582 0.002970855
v 0.04535253 -0.005355547 -0.009333005
v 0.0329172 -0.03432523 0.006963718
v 0.01620408 -0.0466173 0.009549643
v 0.0452928 -0.005436702 0.008416108
v 0.02753411 -0.03417213 0.0190248
v 0.05404614 0.04242844 0.01035761
v 0.04417461 0.05532661 -0.008716054
v 0.05465759 0.04273575 -0.01083651
v 0.04385744 0.05486045 0.008314596
v 0.04615255 0.04252294 0.02992083
v 0.02955514 0.05856144 -0.005792569
v 0.02530133 0.0581986 -0.01619479
v 0.03750324 0.05505894 0.02406446
v 0.03080591 0.04206023 0.04413188
v 0.02956103 0.05845706 0.005451266
v 0.0158734 0.05603306 -0.009863025
v 0.02526975 0.05437257 0.03571369
v 0.01163808 0.04186293 0.05171734
v 0.009725827 0.05387157 0.04182664
v 0.0252935 0.05821198 0.01585274
v 0.01833783 0.05640611 0.003214484
v 0.01835005 0.0563748 -0.003548044
v 0.01581767 0.05621188 0.009498543
v 0.01738296 0.05801947 0.02382403
v 0.007034224 0.05782974 0.02814916
v -0.006971908 0.05448038 0.04222746
v -0.009135879 0.04255721 0.05299829
v -0.004176722 0.05777043 0.02815462
v -0.02259904 0.05481919 0.03596469
v -0.01451558 0.05815467 0.0238155
v -0.02903273 0.04300656 0.0456162
v 0.001837054 0.04593864 -0.0002290563
v 0.009179149 0.05232651 -0.001707394
v 0.009107793 0.05244396 0.001380875
v 0.001798553 0.04589323 -0.0004075389
v 0.001402294 0.0453752 -0.0001412105
v 0.0018125 0.04597298 -6.060755E-05
v 0.001739194 0.04599116 8.304182E-05
v 0.007937426 0.05244158 0.004222232
v 0.005789235 0.05239434 0.006421134
v 0.001627472 0.04599189 0.0001945625
v 0.002959372 0.05232822 0.007642746
v 0.001484139 0.04597683 0.0002659677
v 0.00481479 0.05601317 0.01696376
v 0.01106111 0.05610839 0.01432807
v 0.007034224 0.05782974 0.02814916
v 0.01738296 0.05801947 0.02382403
v -0.004176722 0.05777043 0.02815462
v -0.001973636 0.05589464 0.01700509
v -0.01451558 0.05815467 0.0238155
v -0.0001366931 0.05225299 0.007688913
v 0.00131852 0.04594933 0.0002858326
v -0.008220429 0.05605657 0.01434491
v 0.001147442 0.04591351 0.0002426186
v 0.0009963616 0.04587377 0.0001313062
v -0.00525928 0.05213706 0.004329786
v -0.003025988 0.05219157 0.006527046
v -0.01287761 0.05651071 0.00944283
v -0.02236575 0.05908522 0.01581187
v -0.03513831 0.05591669 0.0243898
v -0.02259904 0.05481919 0.03596469
v -0.04269296 0.05740914 0.008656818
v -0.02653401 0.06029698 0.005420268
v 0.001837054 0.04593864 -0.0002290563
v 0.009107793 0.05244396 0.001380875
v 0.0018125 0.04597298 -6.060755E-05
v 0.007937426 0.05244158 0.004222232
v 0.02753411 -0.03417213 0.0190248
v 0.03870505 -0.005538973 0.02497975
v 0.0452928 -0.005436702 0.008416108
v 0.01826661 -0.03399092 0.0279887
v 0.0261894 -0.005520288 0.03746388
v 0.01122476 -0.04692027 0.01462377
v 0.01620408 -0.0466173 0.009549643
v 0.006432297 -0.03345503 0.0321602
v 0.01004593 -0.00558838 0.04444265
v -0.005828717 -0.033194 0.03181963
v 0.004758785 -0.04674479 0.01732803
v 0.01826661 -0.03399092 0.0279887
v 0.01122476 -0.04692027 0.01462377
v 0.006432297 -0.03345503 0.0321602
v -0.002162439 -0.04648573 0.01732098
v -0.005828717 -0.033194 0.03181963
v -0.008576324 -0.04698057 0.01476583
v -0.01699764 -0.033082 0.02700914
v -0.01355066 -0.04759445 0.009918141
v -0.007405754 -0.005372017 0.04370741
v 0.01004593 -0.00558838 0.04444265
v -0.02380352 -0.005585651 0.03766797
v -0.02628277 -0.03371077 0.01887682
v -0.01629891 -0.04819883 0.003471285
v -0.03790452 -0.00616509 0.02628264
v -0.031976 -0.03440402 0.007498029
v -0.0164068 -0.04906391 -0.003625696
v -0.04436265 -0.005995333 0.009112981
v -0.009135879 0.04255721 0.05299829
v 0.009725827 0.05387157 0.04182664
v 0.01163808 0.04186293 0.05171734
v -0.009350938 0.0228962 0.05390104
v -0.02945899 0.02289549 0.04623467
v -0.02380352 -0.005585651 0.03766797
v -0.007405754 -0.005372017 0.04370741
v -0.03790452 -0.00616509 0.02628264
v -0.02903273 0.04300656 0.0456162
v -0.006971908 0.05448038 0.04222746
v -0.0465855 0.02289311 0.03210078
v -0.04436265 -0.005995333 0.009112981
v -0.04529163 0.04374473 0.03121507
v -0.02259904 0.05481919 0.03596469
v -0.03513831 0.05591669 0.0243898
v -0.05377899 0.04380165 0.01090272
v -0.04269296 0.05740914 0.008656818
v -0.05402962 0.04393703 -0.01119881
v -0.01287761 0.05651071 0.00944283
v -0.02236575 0.05908522 0.01581187
v -0.02653401 0.06029698 0.005420268
v -0.01535358 0.05677903 0.003192412
v -0.00525928 0.05213706 0.004329786
v -0.02651656 0.06049322 -0.005758731
v -0.006506714 0.05205546 0.001431912
v 0.0009963616 0.04587377 0.0001313062
v 0.0008953837 0.04583468 -4.022256E-05
v -0.01535683 0.05676807 -0.003516829
v -0.02229501 0.06002431 -0.01610468
v -0.006585569 0.0519235 -0.001750904
v -0.01286779 0.05653847 -0.009760467
v -0.01444213 0.05956349 -0.02405059
v 0.0008713253 0.04580095 -0.0002480464
v 0.001402294 0.0453752 -0.0001412105
v -0.005448565 0.05176304 -0.0047611
v -0.008178224 0.05625575 -0.01460966
v -0.004140959 0.05935889 -0.0283576
v 0.0009380805 0.04577738 -0.0004540415
v -0.003220674 0.05161364 -0.007126881
v -0.001966371 0.05592738 -0.01731724
v 0.007031011 0.05861075 -0.02842114
v 0.001088851 0.04576841 -0.0006146324
v 0.004845535 0.05563635 -0.01741775
v 0.01738908 0.05807995 -0.02415902
v -0.0002221729 0.05151732 -0.008438274
v 0.00129417 0.04577716 -0.000693385
v 0.003055407 0.05154521 -0.008422658
v 0.001508849 0.04580396 -0.0006743008
v 0.001686908 0.04584517 -0.0005683467
v 0.006011378 0.05174853 -0.007061262
v 0.00813298 0.05206147 -0.00466371
v 0.01115055 0.05567077 -0.01478244
v 0.03748455 0.05498717 -0.02437745
v 0.0252519 0.05425284 -0.03598174
v -0.03535774 0.0563111 -0.02485593
v -0.02229501 0.06002431 -0.01610468
v -0.02651656 0.06049322 -0.005758731
v -0.04253386 0.05717023 -0.008947671
v -0.02653401 0.06029698 0.005420268
v -0.04269296 0.05740914 0.008656818
v -0.05402962 0.04393703 -0.01119881
v -0.04430341 0.04311501 -0.03079751
v -0.02852626 0.04253375 -0.04512726
v -0.02293222 0.05572898 -0.03679258
v -0.009138477 0.04268517 -0.05351713
v -0.007183953 0.05621133 -0.04369922
v -0.0178833 -0.03454442 -0.02678426
v -0.02316432 -0.005310092 -0.03699195
v -0.03632363 -0.005620116 -0.02526195
v -0.02687791 -0.03429377 -0.0172743
v -0.008503962 -0.0493574 -0.01546716
v -0.0433054 -0.005683067 -0.008910513
v -0.013685 -0.04951665 -0.01030471
v -0.03203223 -0.03445517 -0.005414147
v -0.04436265 -0.005995333 0.009112981
v -0.0164068 -0.04906391 -0.003625696
v -0.031976 -0.03440402 0.007498029
v -0.00909816 0.02289683 -0.05358701
v -0.009138477 0.04268517 -0.05351713
v -0.02852626 0.04253375 -0.04512726
v -0.02844628 0.02289736 -0.04495182
v -0.04430341 0.04311501 -0.03079751
v -0.04430017 0.02289606 -0.03071875
v -0.02316432 -0.005310092 -0.03699195
v -0.05402962 0.04393703 -0.01119881
v -0.03632363 -0.005620116 -0.02526195
v -0.05372261 0.02289471 -0.01107677
v -0.05377899 0.04380165 0.01090272
v -0.0433054 -0.005683067 -0.008910513
v -0.05481901 0.02289351 0.01115098
v -0.04529163 0.04374473 0.03121507
v -0.04436265 -0.005995333 0.009112981
v -0.0465855 0.02289311 0.03210078
v 0.007937426 0.05244158 0.004222232
v 0.01106111 0.05610839 0.01432807
v 0.005789235 0.05239434 0.006421134
v 0.01581767 0.05621188 0.009498543
v 0.01738296 0.05801947 0.02382403
v 0.009107793 0.05244396 0.001380875
v 0.01833783 0.05640611 0.003214484
v 0.009179149 0.05232651 -0.001707394
v 0.01835005 0.0563748 -0.003548044
v 0.00813298 0.05206147 -0.00466371
v 0.001798553 0.04589323 -0.0004075389
v 0.001686908 0.04584517 -0.0005683467
v 0.001402294 0.0453752 -0.0001412105
v 0.0158734 0.05603306 -0.009863025
v 0.02955514 0.05856144 -0.005792569
v 0.02956103 0.05845706 0.005451266
v 0.0452928 -0.005436702 0.008416108
v 0.05593847 0.02289536 0.0106869
v 0.05571265 0.02289578 -0.01116835
v 0.05465759 0.04273575 -0.01083651
v 0.03870505 -0.005538973 0.02497975
v 0.05404614 0.04242844 0.01035761
v 0.04675473 0.02289639 0.03036799
v 0.0261894 -0.005520288 0.03746388
v 0.04615255 0.04252294 0.02992083
v 0.03153209 0.02289665 0.04533279
v 0.01004593 -0.00558838 0.04444265
v 0.03080591 0.04206023 0.04413188
v 0.01190619 0.02289682 0.05333754
v -0.007405754 -0.005372017 0.04370741
v 0.01163808 0.04186293 0.05171734
v -0.009350938 0.0228962 0.05390104
v 0.005501735 -0.04835153 -0.01843642
v 0.002459733 -0.04354184 -0.004750188
v 0.004088629 -0.04353953 -0.004097508
v 0.001490106 -0.04093129 -0.0002499221
v 0.01209358 -0.04815238 -0.01585351
v -0.001733674 -0.0486763 -0.01827604
v 0.00533293 -0.04350187 -0.002865592
v 0.01701754 -0.04807468 -0.01087441
v 0.0006836157 -0.04352252 -0.00472683
v -0.008503962 -0.0493574 -0.01546716
v 0.006012223 -0.04342383 -0.001228962
v 0.01948515 -0.04780731 -0.004227761
v -0.00097524 -0.04348573 -0.00402979
v -0.013685 -0.04951665 -0.01030471
v 0.006016775 -0.04332265 0.0005792192
v 0.01910287 -0.0469582 0.002970855
v -0.002269824 -0.04342563 -0.002761063
v 0.005328097 -0.04322703 0.002285242
v -0.003005964 -0.0433408 -0.001102025
v -0.0164068 -0.04906391 -0.003625696
v 0.01620408 -0.0466173 0.009549643
v -0.01629891 -0.04819883 0.003471285
v 0.004039844 -0.04315544 0.0036158
v 0.01122476 -0.04692027 0.01462377
v -0.003063661 -0.04324451 0.0007083995
v -0.01355066 -0.04759445 0.009918141
v 0.002349298 -0.04311046 0.004354716
v 0.004758785 -0.04674479 0.01732803
v -0.002418105 -0.04316012 0.0023965
v -0.008576324 -0.04698057 0.01476583
v 0.000520525 -0.04309231 0.004382232
v -0.002162439 -0.04648573 0.01732098
v -0.001157877 -0.04310723 0.003692155
vn -0.1222803 0.9802336 -0.1555304
vn 0.4949026 0.7148111 -0.4940816
vn 0.6244825 0.7377774 -0.2563322
vn 0.2810181 0.6932361 -0.663666
vn 0.2964591 0.847762 -0.4397858
vn 0.4621506 0.8327518 -0.3048629
vn -0.00490696 0.03914478 0.9992216
vn 0.9632928 0.1383427 0.2300613
vn 0.5573075 -0.06800532 0.8275166
vn -0.02091486 0.8891595 0.4571193
vn 0.9632928 0.1383427 0.2300613
vn -0.02091486 0.8891595 0.4571193
vn 0.3237263 0.4453742 -0.8347713
vn 0.2393874 -0.07548991 -0.9679851
vn 0.3726499 -0.05542264 -0.9263154
vn 0.5573075 -0.06800532 0.8275166
vn -0.9489994 0.0849646 -0.3036135
vn 0.3237263 0.4453742 -0.8347713
vn -0.02091486 0.8891595 0.4571193
vn 0.2393874 -0.07548991 -0.9679851
vn -0.993334 -0.1125321 0.02498277
vn 0.3726499 -0.05542264 -0.9263154
vn -0.9756606 -0.06770808 0.2085714
vn -0.00490696 0.03914478 0.9992216
vn 0.5573075 -0.06800532 0.8275166
vn -0.9756606 -0.06770808 0.2085714
vn -0.993334 -0.1125321 0.02498277
vn -0.02091486 0.8891595 0.4571193
vn -0.9489994 0.0849646 -0.3036135
vn 0.5053564 0.8583134 -0.08895553
vn 0.0145557 0.9986071 -0.05071579
vn 0.4046956 0.8616916 -0.3061194
vn 0.8777911 0.4521582 -0.1582269
vn 0.7262224 0.4535879 -0.5165842
vn 0.2904598 0.8461196 -0.4468947
vn 0.4779665 0.4359482 -0.7625596
vn 0.1557727 0.8396448 -0.5203186
vn 0.202962 0.4198624 -0.8846027
vn -0.1715061 0.4086309 -0.896441
vn -0.08456058 0.8434241 -0.5305518
vn 0.06149758 0.9981066 -0.001119312
vn 0.03181085 0.9989243 -0.03373637
vn 0.03962082 0.9991848 0.007738743
vn 0.02111294 0.9996957 -0.01276044
vn -0.2940882 0.8367009 -0.4619996
vn 0.03508827 0.9988005 -0.03415202
vn -0.4121429 0.8458247 -0.3387019
vn 0.7998468 -0.2608143 -0.5405748
vn 0.8212409 -0.005776857 -0.5705523
vn 0.5430157 0.008870089 -0.8396757
vn 0.9446588 -0.2639216 -0.1948462
vn 0.9815103 -0.0008117108 -0.1914078
vn 0.9485211 -0.2608996 0.1795525
vn 0.7262224 0.4535879 -0.5165842
vn 0.8777911 0.4521582 -0.1582269
vn 0.7998468 -0.2608143 -0.5405748
vn 0.5430157 0.008870089 -0.8396757
vn 0.5447486 -0.2485627 -0.8009154
vn 0.2086754 0.01819851 -0.9778156
vn 0.2053141 -0.2435476 -0.9479086
vn -0.2038755 -0.2378543 -0.9496631
vn 0.202962 0.4198624 -0.8846027
vn 0.4779665 0.4359482 -0.7625596
vn 0.8212409 -0.005776857 -0.5705523
vn 0.7262224 0.4535879 -0.5165842
vn -0.2057037 0.00695909 -0.9785896
vn -0.1715061 0.4086309 -0.896441
vn -0.5450041 -0.00418803 -0.8384229
vn -0.5354546 -0.2350825 -0.8111871
vn 0.7120711 -0.5218005 -0.4697649
vn 0.7998468 -0.2608143 -0.5405748
vn 0.5447486 -0.2485627 -0.8009154
vn 0.4814911 -0.5213218 -0.7045494
vn 0.2593537 -0.9532834 -0.1548755
vn 0.1781965 -0.9505182 -0.2544822
vn 0.2053141 -0.2435476 -0.9479086
vn 0.1893784 -0.5270075 -0.8284919
vn 0.08959346 -0.9512582 -0.2950945
vn -0.01145814 -0.9538764 -0.2999809
vn -0.1541553 -0.5201274 -0.8400617
vn -0.2038755 -0.2378543 -0.9496631
vn -0.5354546 -0.2350825 -0.8111871
vn -0.4741395 -0.5093535 -0.7181579
vn -0.1396129 -0.957793 -0.2512783
vn 0.3046636 -0.9523384 -0.01521698
vn 0.7120711 -0.5218005 -0.4697649
vn 0.2593537 -0.9532834 -0.1548755
vn 0.8346358 -0.5268787 -0.1605676
vn 0.7998468 -0.2608143 -0.5405748
vn 0.2849279 -0.953119 0.1018842
vn 0.9446588 -0.2639216 -0.1948462
vn 0.823487 -0.5433681 0.1631576
vn 0.2424718 -0.9534506 0.1792748
vn 0.9485211 -0.2608996 0.1795525
vn 0.6894788 -0.5516632 0.4693471
vn 0.8740953 0.4497271 0.1835833
vn 0.5053564 0.8583134 -0.08895553
vn 0.8777911 0.4521582 -0.1582269
vn 0.515898 0.8491875 0.1128267
vn 0.7339371 0.4468293 0.5115466
vn 0.03293712 0.9993405 -0.01528615
vn 0.0145557 0.9986071 -0.05071579
vn 0.4270061 0.8512499 0.3050235
vn 0.4776643 0.4454065 0.7572647
vn 0.04366712 0.998791 0.02257566
vn -0.2821994 0.9513091 0.1239937
vn 0.270159 0.843477 0.4642851
vn 0.1902167 0.4503365 0.8723615
vn 0.1140502 0.8428817 0.5258735
vn 0.03010704 0.9985623 0.0443514
vn -0.2916339 0.9553839 -0.0468114
vn -0.3047206 0.9519825 0.0295739
vn -0.2463396 0.9594346 -0.1371204
vn 0.01333339 0.9975032 0.06935136
vn 0.008192471 0.9970962 0.07571107
vn -0.06290696 0.8584918 0.5089542
vn -0.1335132 0.4576706 0.8790403
vn 0.008643002 0.9978537 0.06490993
vn -0.2323324 0.8668224 0.4411809
vn 0.02293927 0.9973552 0.06896589
vn -0.4466095 0.4645389 0.7646853
vn -0.7424697 0.6692879 -0.02814878
vn -0.5443391 0.8377908 0.0424437
vn -0.529653 0.8400148 -0.1176559
vn -0.6835255 0.6996519 0.2080389
vn -0.1222803 0.9802336 -0.1555304
vn -0.7159501 0.6527036 -0.2477772
vn -0.6183629 0.6469044 -0.4462534
vn -0.4513405 0.8463967 -0.2826737
vn -0.3107919 0.8506075 -0.4241173
vn -0.4549255 0.6491088 -0.6096725
vn -0.1293454 0.8533518 -0.505035
vn -0.2357201 0.6583211 -0.7148771
vn -0.06966804 0.963026 -0.2602444
vn -0.1679342 0.9616535 -0.2168428
vn 0.008192471 0.9970962 0.07571107
vn 0.01333339 0.9975032 0.06935136
vn 0.008643002 0.9978537 0.06490993
vn 0.0575584 0.9628132 -0.2639657
vn 0.02293927 0.9973552 0.06896589
vn 0.08184162 0.8548119 -0.5124437
vn 0.02140662 0.673763 -0.7386374
vn 0.203729 0.9547804 -0.2165386
vn 0.2810181 0.6932361 -0.663666
vn 0.4949026 0.7148111 -0.4940816
vn 0.4621506 0.8327518 -0.3048629
vn 0.2964591 0.847762 -0.4397858
vn 0.3232555 0.9368713 -0.1333341
vn 0.04426534 0.9955854 0.08276556
vn -0.3684225 0.8690287 0.3302333
vn -0.2323324 0.8668224 0.4411809
vn -0.4790531 0.868292 0.1287521
vn 0.04562441 0.997968 0.04447729
vn -0.7424697 0.6692879 -0.02814878
vn -0.529653 0.8400148 -0.1176559
vn -0.7159501 0.6527036 -0.2477772
vn -0.4513405 0.8463967 -0.2826737
vn 0.6894788 -0.5516632 0.4693471
vn 0.8012315 -0.2541541 0.5416952
vn 0.9485211 -0.2608996 0.1795525
vn 0.4459053 -0.553228 0.7036385
vn 0.531194 -0.2548013 0.808028
vn 0.1533108 -0.9527791 0.262122
vn 0.2424718 -0.9534506 0.1792748
vn 0.1271037 -0.5492613 0.8259277
vn 0.1731953 -0.2661386 0.9482477
vn -0.1755512 -0.5435485 0.8208146
vn 0.02360228 -0.9448524 0.3266451
vn 0.4459053 -0.553228 0.7036385
vn 0.1533108 -0.9527791 0.262122
vn 0.1271037 -0.5492613 0.8259277
vn -0.0698418 -0.9387283 0.3375076
vn -0.1755512 -0.5435485 0.8208146
vn -0.1416201 -0.9382457 0.3156561
vn -0.4204649 -0.5466926 0.7241108
vn -0.2145595 -0.9450286 0.2467488
vn -0.1855685 -0.2798545 0.9419373
vn 0.1731953 -0.2661386 0.9482477
vn -0.4767096 -0.2914357 0.829345
vn -0.6483188 -0.5603948 0.5154032
vn -0.2714981 -0.9530227 0.1342996
vn -0.7662987 -0.2982554 0.5690606
vn -0.8130157 -0.5524458 0.1838727
vn -0.2910276 -0.9566799 -0.008152951
vn -0.9448464 -0.2845356 0.1621875
vn -0.1335132 0.4576706 0.8790403
vn 0.1140502 0.8428817 0.5258735
vn 0.1902167 0.4503365 0.8723615
vn -0.1702713 0.01322072 0.9853085
vn -0.5030972 0.009424931 0.8641784
vn -0.4767096 -0.2914357 0.829345
vn -0.1855685 -0.2798545 0.9419373
vn -0.7662987 -0.2982554 0.5690606
vn -0.4466095 0.4645389 0.7646853
vn -0.06290696 0.8584918 0.5089542
vn -0.8108497 0.01698399 0.585008
vn -0.9448464 -0.2845356 0.1621875
vn -0.7088306 0.4706089 0.5254393
vn -0.2323324 0.8668224 0.4411809
vn -0.3684225 0.8690287 0.3302333
vn -0.8753201 0.4507344 0.1750809
vn -0.4790531 0.868292 0.1287521
vn -0.8778314 0.4296126 -0.2117663
vn 0.3232555 0.9368713 -0.1333341
vn 0.04426534 0.9955854 0.08276556
vn 0.04562441 0.997968 0.04447729
vn 0.3928418 0.9185029 -0.0450329
vn 0.4621506 0.8327518 -0.3048629
vn 0.03904133 0.999096 -0.01682062
vn 0.5546749 0.8215178 -0.1320771
vn 0.4949026 0.7148111 -0.4940816
vn 0.6244825 0.7377774 -0.2563322
vn 0.4086917 0.9108396 0.05781331
vn 0.03508827 0.9988005 -0.03415202
vn 0.5698061 0.8191214 0.0660376
vn 0.3613726 0.9140951 0.1839566
vn 0.02111294 0.9996957 -0.01276044
vn 0.6483011 0.7612436 0.0146239
vn -0.1222803 0.9802336 -0.1555304
vn 0.4990162 0.8246312 0.2663948
vn 0.254755 0.9193621 0.2997888
vn 0.03962082 0.9991848 0.007738743
vn 0.5573755 0.7820209 0.2788833
vn 0.3458758 0.8342109 0.4294905
vn 0.1187954 0.9247106 0.3616599
vn 0.06149758 0.9981066 -0.001119312
vn 0.3581093 0.7950367 0.4895656
vn -0.03883488 0.9380211 0.3443955
vn 0.03181085 0.9989243 -0.03373637
vn 0.1292113 0.8462875 0.5168188
vn 0.07559358 0.7949144 0.6019939
vn -0.123656 0.8559604 0.5020369
vn -0.2407438 0.7762372 0.5826647
vn -0.5144334 0.740067 0.4331962
vn -0.3525826 0.8538148 0.3829958
vn -0.4938649 0.8436103 0.2107587
vn -0.1925715 0.9492881 0.2485325
vn 0.4046956 0.8616916 -0.3061194
vn 0.2904598 0.8461196 -0.4468947
vn -0.4121429 0.8458247 -0.3387019
vn 0.03508827 0.9988005 -0.03415202
vn 0.03904133 0.999096 -0.01682062
vn -0.4926542 0.8605283 -0.1295485
vn 0.04562441 0.997968 0.04447729
vn -0.4790531 0.868292 0.1287521
vn -0.8778314 0.4296126 -0.2117663
vn -0.7252975 0.4125097 -0.5511617
vn -0.4976177 0.4008682 -0.7692083
vn -0.2940882 0.8367009 -0.4619996
vn -0.1715061 0.4086309 -0.896441
vn -0.08456058 0.8434241 -0.5305518
vn -0.4741395 -0.5093535 -0.7181579
vn -0.5354546 -0.2350825 -0.8111871
vn -0.787039 -0.2494381 -0.5642253
vn -0.7114795 -0.5121027 -0.481194
vn -0.1396129 -0.957793 -0.2512783
vn -0.9381827 -0.2656409 -0.2219193
vn -0.2516843 -0.9566015 -0.1468626
vn -0.8315547 -0.5290964 -0.1690376
vn -0.9448464 -0.2845356 0.1621875
vn -0.2910276 -0.9566799 -0.008152951
vn -0.8130157 -0.5524458 0.1838727
vn -0.2057037 0.00695909 -0.9785896
vn -0.1715061 0.4086309 -0.896441
vn -0.4976177 0.4008682 -0.7692083
vn -0.5450041 -0.00418803 -0.8384229
vn -0.7252975 0.4125097 -0.5511617
vn -0.8029222 -0.009610041 -0.5960063
vn -0.5354546 -0.2350825 -0.8111871
vn -0.8778314 0.4296126 -0.2117663
vn -0.787039 -0.2494381 -0.5642253
vn -0.9717629 -0.009045511 -0.235786
vn -0.8753201 0.4507344 0.1750809
vn -0.9381827 -0.2656409 -0.2219193
vn -0.9857269 0.006522279 0.1682254
vn -0.7088306 0.4706089 0.5254393
vn -0.9448464 -0.2845356 0.1621875
vn -0.8108497 0.01698399 0.585008
vn -0.4513405 0.8463967 -0.2826737
vn -0.1679342 0.9616535 -0.2168428
vn -0.3107919 0.8506075 -0.4241173
vn -0.2463396 0.9594346 -0.1371204
vn 0.01333339 0.9975032 0.06935136
vn -0.529653 0.8400148 -0.1176559
vn -0.2916339 0.9553839 -0.0468114
vn -0.5443391 0.8377908 0.0424437
vn -0.3047206 0.9519825 0.0295739
vn -0.4938649 0.8436103 0.2107587
vn -0.6835255 0.6996519 0.2080389
vn -0.5144334 0.740067 0.4331962
vn -0.1222803 0.9802336 -0.1555304
vn -0.2821994 0.9513091 0.1239937
vn 0.03293712 0.9993405 -0.01528615
vn 0.04366712 0.998791 0.02257566
vn 0.9485211 -0.2608996 0.1795525
vn 0.9800725 0.01197264 0.1982787
vn 0.9815103 -0.0008117108 -0.1914078
vn 0.8777911 0.4521582 -0.1582269
vn 0.8012315 -0.2541541 0.5416952
vn 0.8740953 0.4497271 0.1835833
vn 0.8237306 0.01974012 0.5666376
vn 0.531194 -0.2548013 0.808028
vn 0.7339371 0.4468293 0.5115466
vn 0.5486934 0.02989784 0.8354889
vn 0.1731953 -0.2661386 0.9482477
vn 0.4776643 0.4454065 0.7572647
vn 0.2021248 0.02984755 0.9789049
vn -0.1855685 -0.2798545 0.9419373
vn 0.1902167 0.4503365 0.8723615
vn -0.1702713 0.01322072 0.9853085
vn 0.08959346 -0.9512582 -0.2950945
vn -0.06369045 -0.9241768 0.3766174
vn -0.1984546 -0.9263394 0.3201736
vn -0.008386592 -0.9989665 0.04467318
vn 0.1781965 -0.9505182 -0.2544822
vn -0.01145814 -0.9538764 -0.2999809
vn -0.2946539 -0.927831 0.2287109
vn 0.2593537 -0.9532834 -0.1548755
vn 0.09379508 -0.9202794 0.3798531
vn -0.1396129 -0.957793 -0.2512783
vn -0.3408118 -0.9315434 0.1267841
vn 0.3046636 -0.9523384 -0.01521698
vn 0.2318791 -0.9138015 0.3334651
vn -0.2516843 -0.9566015 -0.1468626
vn -0.3369822 -0.9415087 -0.002130629
vn 0.2849279 -0.953119 0.1018842
vn 0.3230764 -0.9126222 0.2504844
vn -0.2778806 -0.9484161 -0.1526091
vn 0.3724988 -0.9179634 0.1363369
vn -0.2910276 -0.9566799 -0.008152951
vn 0.2424718 -0.9534506 0.1792748
vn -0.2714981 -0.9530227 0.1342996
vn -0.1891242 -0.9478893 -0.2563943
vn 0.1533108 -0.9527791 0.262122
vn 0.3705759 -0.9287823 -0.006066963
vn -0.2145595 -0.9450286 0.2467488
vn -0.08248296 -0.9499923 -0.3011828
vn 0.02360228 -0.9448524 0.3266451
vn 0.314226 -0.9383042 -0.1443852
vn -0.1416201 -0.9382457 0.3156561
vn 0.0657621 -0.9523304 -0.2978961
vn -0.0698418 -0.9387283 0.3375076
vn 0.2123493 -0.9465814 -0.2426756
vt 0.6119367 0.6030593
vt 0.6226611 0.5965983
vt 0.6193246 0.5928752
vt 0.624349 0.6014042
vt 0.6784731 0.6014742
vt 0.6726108 0.57557
vt 0.161568 0.823432
vt 0.1462505 0.813336
vt 0.1565586 0.934954
vt 0.161568 0.7222914
vt 0.09036361 0.8436857
vt 0.09635045 0.9349918
vt 0.1224097 0.9223236
vt 0.1074527 0.8367682
vt 0.1224097 0.723631
vt 0.09903206 0.7222914
vt 0.1248775 0.7400357
vt 0.1454157 0.7339755
vt 0.1254582 0.7222914
vt 0.1433085 0.8199849
vt 0.1231826 0.8205572
vt 0.1462505 0.9325206
vt 0.1224097 0.9325206
vt 0.05713318 0.8236916
vt 0.07442363 0.9348679
vt 0.09036361 0.9326189
vt 0.07443482 0.8205571
vt 0.06592268 0.7222914
vt 0.09036359 0.7402433
vt 0.4728715 0.7635557
vt 0.469602 0.6778596
vt 0.4267955 0.700157
vt 0.4359224 0.8012958
vt 0.3811488 0.7237446
vt 0.4058504 0.6228138
vt 0.3558199 0.6315762
vt 0.4196576 0.5407071
vt 0.3713054 0.5290398
vt 0.4230224 0.4368954
vt 0.4630481 0.470316
vt 0.4651589 0.5563653
vt 0.4562974 0.6180827
vt 0.4983941 0.5004436
vt 0.5486147 0.4636791
vt 0.5260416 0.4168347
vt 0.6065098 0.4464034
vt 0.6055478 0.3943471
vt 0.2596904 0.7805272
vt 0.3278697 0.7498391
vt 0.3018547 0.6370764
vt 0.357154 0.8915139
vt 0.4006556 0.8443643
vt 0.4785561 0.9783748
vt 0.3811488 0.7237446
vt 0.4359224 0.8012958
vt 0.2596904 0.7805272
vt 0.3018547 0.6370764
vt 0.2348467 0.6346653
vt 0.3232345 0.5159285
vt 0.2627315 0.4992666
vt 0.3220572 0.3764357
vt 0.3713054 0.5290398
vt 0.3558199 0.6315762
vt 0.3278697 0.7498391
vt 0.3811488 0.7237446
vt 0.3802058 0.4073567
vt 0.4230224 0.4368954
vt 0.4735412 0.327715
vt 0.4263099 0.2797829
vt 0.336533 0.1759705
vt 0.3982518 0.1635763
vt 0.3684166 0.09439603
vt 0.319079 0.1276504
vt 0.2890843 0.183231
vt 0.2750834 0.1531479
vt 0.315909 0.04217562
vt 0.2828816 0.08871505
vt 0.2513923 0.1305326
vt 0.2209484 0.119409
vt 0.2330902 0.06899196
vt 0.2479867 0.0113672
vt 0.1714621 0.008738592
vt 0.1811137 0.06997592
vt 0.188828 0.1206251
vt 0.2885027 0.2156281
vt 0.336533 0.1759705
vt 0.2890843 0.183231
vt 0.3413728 0.227475
vt 0.3982518 0.1635763
vt 0.2777332 0.2465387
vt 0.3969052 0.2387252
vt 0.3190278 0.2737104
vt 0.2563353 0.2729192
vt 0.3700314 0.3095654
vt 0.2840417 0.3111839
vt 0.5192349 0.8541442
vt 0.4728715 0.7635557
vt 0.4359224 0.8012958
vt 0.538729 0.804488
vt 0.6151821 0.8637167
vt 0.5067241 0.7256041
vt 0.469602 0.6778596
vt 0.6161867 0.81115
vt 0.7105286 0.8386899
vt 0.5572972 0.7554301
vt 0.5109522 0.6583939
vt 0.6917894 0.7901729
vt 0.7946634 0.7731287
vt 0.7587612 0.7418529
vt 0.6157742 0.7627999
vt 0.5737559 0.7114782
vt 0.5374218 0.6914394
vt 0.6147367 0.7167096
vt 0.6752712 0.7453372
vt 0.7245418 0.707163
vt 0.8017195 0.6679916
vt 0.8491179 0.6834841
vt 0.7586256 0.6527538
vt 0.817969 0.5857114
vt 0.7675312 0.5898066
vt 0.8687354 0.58323
vt 0.6034901 0.6128914
vt 0.568911 0.6557392
vt 0.5901669 0.6654782
vt 0.6006013 0.609044
vt 0.6119367 0.6030593
vt 0.6076068 0.6155578
vt 0.6126687 0.6168014
vt 0.6139467 0.6682385
vt 0.6380979 0.6637622
vt 0.6178005 0.6148372
vt 0.6592882 0.6493911
vt 0.6217672 0.6112627
vt 0.69325 0.6783874
vt 0.6567978 0.7056659
vt 0.7245418 0.707163
vt 0.6752712 0.7453372
vt 0.7586256 0.6527538
vt 0.7187383 0.6393068
vt 0.7675312 0.5898066
vt 0.6739714 0.6274388
vt 0.6240432 0.6065586
vt 0.7237017 0.5938033
vt 0.624349 0.6014042
vt 0.6226611 0.5965983
vt 0.6726108 0.57557
vt 0.6784731 0.6014742
vt 0.7125947 0.5525181
vt 0.75549 0.5294135
vt 0.8020441 0.5043752
vt 0.817969 0.5857114
vt 0.7521765 0.4435199
vt 0.7182361 0.4828448
vt 0.6034901 0.6128914
vt 0.5901669 0.6654782
vt 0.6076068 0.6155578
vt 0.6139467 0.6682385
vt 0.2840417 0.3111839
vt 0.3151342 0.363305
vt 0.3700314 0.3095654
vt 0.2356307 0.3324066
vt 0.2453456 0.3910823
vt 0.2233588 0.2835276
vt 0.2563353 0.2729192
vt 0.1828216 0.3349348
vt 0.1715958 0.3910819
vt 0.1349352 0.3136352
vt 0.1890922 0.284778
vt 0.2356307 0.3324066
vt 0.2233588 0.2835276
vt 0.1828216 0.3349348
vt 0.1571913 0.2719056
vt 0.1349352 0.3136352
vt 0.1342734 0.2469237
vt 0.09545324 0.2780657
vt 0.1231655 0.2159385
vt 0.1016221 0.3646159
vt 0.1715958 0.3910819
vt 0.04739115 0.3125358
vt 0.07072292 0.2292281
vt 0.1216864 0.1835072
vt 0.01553099 0.2426077
vt 0.07360756 0.1740655
vt 0.1370088 0.1542934
vt 0.01377023 0.1647899
vt 0.8491179 0.6834841
vt 0.7587612 0.7418529
vt 0.7946634 0.7731287
vt 0.8961793 0.7068004
vt 0.9250605 0.5855405
vt 0.9894498 0.6083828
vt 0.9496911 0.7467647
vt 0.972836 0.4501566
vt 0.8687354 0.58323
vt 0.8017195 0.6679916
vt 0.9028288 0.4597373
vt 0.8839031 0.2995712
vt 0.8507007 0.4819331
vt 0.817969 0.5857114
vt 0.8020441 0.5043752
vt 0.7909157 0.3990693
vt 0.7521765 0.4435199
vt 0.7031738 0.3534791
vt 0.7125947 0.5525181
vt 0.75549 0.5294135
vt 0.7182361 0.4828448
vt 0.6874204 0.5191423
vt 0.6726108 0.57557
vt 0.6660321 0.4542849
vt 0.6580891 0.5535179
vt 0.6226611 0.5965983
vt 0.6193246 0.5928752
vt 0.6515422 0.4964231
vt 0.6065098 0.4464034
vt 0.6352246 0.540721
vt 0.6084556 0.4918954
vt 0.5486147 0.4636791
vt 0.614822 0.5907356
vt 0.6119367 0.6030593
vt 0.6084201 0.5376614
vt 0.5654382 0.5039347
vt 0.4983941 0.5004436
vt 0.6099093 0.590586
vt 0.5814418 0.5453004
vt 0.5286349 0.531076
vt 0.4651589 0.5563653
vt 0.6055109 0.592469
vt 0.5055756 0.5716215
vt 0.4562974 0.6180827
vt 0.5585576 0.5622153
vt 0.602459 0.5959321
vt 0.5472094 0.5871089
vt 0.5999973 0.599802
vt 0.5993429 0.6044486
vt 0.5453726 0.6137542
vt 0.5531381 0.6377343
vt 0.4999888 0.6163066
vt 0.4267955 0.700157
vt 0.4058504 0.6228138
vt 0.6055478 0.3943471
vt 0.6065098 0.4464034
vt 0.6660321 0.4542849
vt 0.6854922 0.40381
vt 0.7182361 0.4828448
vt 0.7521765 0.4435199
vt 0.7031738 0.3534791
vt 0.603299 0.3411193
vt 0.5039362 0.3711919
vt 0.5260416 0.4168347
vt 0.4230224 0.4368954
vt 0.4630481 0.470316
vt 0.1811137 0.06997592
vt 0.1714621 0.008738592
vt 0.1002662 0.03792004
vt 0.1304255 0.08610017
vt 0.188828 0.1206251
vt 0.04336676 0.0911226
vt 0.1609481 0.1341427
vt 0.09510348 0.1256317
vt 0.01377023 0.1647899
vt 0.1370088 0.1542934
vt 0.07360756 0.1740655
vt 0.3802058 0.4073567
vt 0.4230224 0.4368954
vt 0.5039362 0.3711919
vt 0.4735412 0.327715
vt 0.603299 0.3411193
vt 0.5918862 0.2872705
vt 0.4263099 0.2797829
vt 0.7031738 0.3534791
vt 0.5652395 0.2239397
vt 0.7225127 0.295631
vt 0.7909157 0.3990693
vt 0.7258326 0.226871
vt 0.8324057 0.3568296
vt 0.8507007 0.4819331
vt 0.8839031 0.2995712
vt 0.9028288 0.4597373
vt 0.6139467 0.6682385
vt 0.6567978 0.7056659
vt 0.6380979 0.6637622
vt 0.6147367 0.7167096
vt 0.6752712 0.7453372
vt 0.5901669 0.6654782
vt 0.5737559 0.7114782
vt 0.568911 0.6557392
vt 0.5374218 0.6914394
vt 0.5531381 0.6377343
vt 0.6006013 0.609044
vt 0.5993429 0.6044486
vt 0.6119367 0.6030593
vt 0.5109522 0.6583939
vt 0.5067241 0.7256041
vt 0.5572972 0.7554301
vt 0.4785561 0.9783748
vt 0.5017048 0.9062025
vt 0.4006556 0.8443643
vt 0.4359224 0.8012958
vt 0.6303346 0.988507
vt 0.5192349 0.8541442
vt 0.6165848 0.9215404
vt 0.7662585 0.9422804
vt 0.6151821 0.8637167
vt 0.7325802 0.8859323
vt 0.8698329 0.8555032
vt 0.7105286 0.8386899
vt 0.8289152 0.8080935
vt 0.9496911 0.7467647
vt 0.7946634 0.7731287
vt 0.8961793 0.7068004
vt 0.2513923 0.1305326
vt 0.2246189 0.1773917
vt 0.233192 0.1863185
vt 0.2060479 0.2035399
vt 0.2750834 0.1531479
vt 0.2209484 0.119409
vt 0.2376087 0.1978268
vt 0.2890843 0.183231
vt 0.2131961 0.1724174
vt 0.188828 0.1206251
vt 0.2373096 0.2102662
vt 0.2885027 0.2156281
vt 0.2005587 0.1720144
vt 0.1609481 0.1341427
vt 0.2324078 0.2217028
vt 0.2777332 0.2465387
vt 0.188336 0.1760455
vt 0.2233839 0.2301636
vt 0.1795256 0.1853898
vt 0.1370088 0.1542934
vt 0.2563353 0.2729192
vt 0.1216864 0.1835072
vt 0.2125288 0.236438
vt 0.2233588 0.2835276
vt 0.1746937 0.1970056
vt 0.1231655 0.2159385
vt 0.1998992 0.2352906
vt 0.1890922 0.284778
vt 0.1747808 0.2095748
vt 0.1342734 0.2469237
vt 0.1889204 0.2293442
vt 0.1571913 0.2719056
vt 0.1797 0.2210392
usemtl Apple1_Mat3
f 3/3/3 2/2/2 1/1/1
f 6/6/6 5/5/5 4/4/4
f 9/9/9 8/8/8 7/7/7
f 7/7/7 8/8/8 10/10/10
f 13/13/13 12/12/12 11/11/11
f 13/13/13 11/11/11 14/14/14
f 14/14/14 11/11/11 15/15/15
f 15/15/15 11/11/11 16/16/16
f 19/19/19 18/18/18 17/17/17
f 18/18/18 20/20/20 17/17/17
f 21/21/21 17/17/17 20/20/20
f 22/22/22 21/21/21 20/20/20
f 23/23/23 21/21/21 22/22/22
f 26/26/26 25/25/25 24/24/24
f 26/26/26 24/24/24 27/27/27
f 24/24/24 28/28/28 27/27/27
f 27/27/27 28/28/28 29/29/29
f 32/32/32 31/31/31 30/30/30
f 32/32/32 30/30/30 33/33/33
f 34/34/34 32/32/32 33/33/33
f 35/35/35 32/32/32 34/34/34
f 36/36/36 35/35/35 34/34/34
f 37/37/37 35/35/35 36/36/36
f 38/38/38 37/37/37 36/36/36
f 38/38/38 39/39/39 37/37/37
f 39/39/39 40/40/40 37/37/37
f 37/37/37 41/41/41 35/35/35
f 37/37/37 40/40/40 41/41/41
f 41/41/41 42/42/42 35/35/35
f 40/40/40 43/43/43 41/41/41
f 44/44/44 43/43/43 40/40/40
f 45/45/45 44/44/44 40/40/40
f 46/46/46 44/44/44 45/45/45
f 47/47/47 46/46/46 45/45/45
f 50/50/50 49/49/49 48/48/48
f 48/48/48 49/49/49 51/51/51
f 49/49/49 52/52/52 51/51/51
f 51/51/51 52/52/52 53/53/53
f 49/49/49 54/54/54 52/52/52
f 54/54/54 55/55/55 52/52/52
f 58/58/58 57/57/57 56/56/56
f 59/59/59 57/57/57 58/58/58
f 60/60/60 59/59/59 58/58/58
f 60/60/60 61/61/61 59/59/59
f 59/59/59 62/62/62 57/57/57
f 62/62/62 63/63/63 57/57/57
f 57/57/57 63/63/63 64/64/64
f 63/63/63 65/65/65 64/64/64
f 59/59/59 66/66/66 62/62/62
f 61/61/61 66/66/66 59/59/59
f 66/66/66 67/67/67 62/62/62
f 68/68/68 66/66/66 61/61/61
f 69/69/69 68/68/68 61/61/61
f 72/72/72 71/71/71 70/70/70
f 73/73/73 72/72/72 70/70/70
f 73/73/73 70/70/70 74/74/74
f 75/75/75 73/73/73 74/74/74
f 76/76/76 72/72/72 73/73/73
f 77/77/77 73/73/73 75/75/75
f 77/77/77 76/76/76 73/73/73
f 78/78/78 77/77/77 75/75/75
f 78/78/78 79/79/79 77/77/77
f 77/77/77 80/80/80 76/76/76
f 79/79/79 80/80/80 77/77/77
f 80/80/80 81/81/81 76/76/76
f 82/82/82 81/81/81 80/80/80
f 83/83/83 82/82/82 80/80/80
f 83/83/83 80/80/80 79/79/79
f 84/84/84 83/83/83 79/79/79
f 87/87/87 86/86/86 85/85/85
f 86/86/86 88/88/88 85/85/85
f 86/86/86 89/89/89 88/88/88
f 85/85/85 88/88/88 90/90/90
f 89/89/89 91/91/91 88/88/88
f 88/88/88 92/92/92 90/90/90
f 88/88/88 91/91/91 92/92/92
f 90/90/90 92/92/92 93/93/93
f 91/91/91 94/94/94 92/92/92
f 92/92/92 95/95/95 93/93/93
f 92/92/92 94/94/94 95/95/95
f 98/98/98 97/97/97 96/96/96
f 97/97/97 99/99/99 96/96/96
f 96/96/96 99/99/99 100/100/100
f 97/97/97 101/101/101 99/99/99
f 102/102/102 101/101/101 97/97/97
f 99/99/99 103/103/103 100/100/100
f 100/100/100 103/103/103 104/104/104
f 101/101/101 105/105/105 99/99/99
f 99/99/99 105/105/105 103/103/103
f 101/101/101 102/102/102 106/106/106
f 103/103/103 107/107/107 104/104/104
f 104/104/104 107/107/107 108/108/108
f 107/107/107 109/109/109 108/108/108
f 105/105/105 110/110/110 103/103/103
f 103/103/103 110/110/110 107/107/107
f 110/110/110 105/105/105 111/111/111
f 111/111/111 105/105/105 112/112/112
f 113/113/113 110/110/110 111/111/111
f 114/114/114 110/110/110 113/113/113
f 110/110/110 114/114/114 107/107/107
f 107/107/107 114/114/114 109/109/109
f 114/114/114 115/115/115 109/109/109
f 109/109/109 115/115/115 116/116/116
f 109/109/109 116/116/116 117/117/117
f 115/115/115 118/118/118 116/116/116
f 116/116/116 118/118/118 119/119/119
f 118/118/118 120/120/120 119/119/119
f 116/116/116 119/119/119 121/121/121
f 124/124/124 123/123/123 122/122/122
f 122/122/122 123/123/123 125/125/125
f 122/122/122 125/125/125 126/126/126
f 127/127/127 122/122/122 126/126/126
f 128/128/128 127/127/127 126/126/126
f 128/128/128 129/129/129 127/127/127
f 130/130/130 129/129/129 128/128/128
f 131/131/131 128/128/128 126/126/126
f 131/131/131 130/130/130 128/128/128
f 132/132/132 130/130/130 131/131/131
f 133/133/133 131/131/131 126/126/126
f 133/133/133 132/132/132 131/131/131
f 132/132/132 134/134/134 130/130/130
f 134/134/134 135/135/135 130/130/130
f 134/134/134 136/136/136 135/135/135
f 136/136/136 137/137/137 135/135/135
f 138/138/138 136/136/136 134/134/134
f 139/139/139 138/138/138 134/134/134
f 139/139/139 134/134/134 132/132/132
f 140/140/140 138/138/138 139/139/139
f 141/141/141 132/132/132 133/133/133
f 141/141/141 139/139/139 132/132/132
f 142/142/142 133/133/133 126/126/126
f 142/142/142 141/141/141 133/133/133
f 143/143/143 139/139/139 141/141/141
f 143/143/143 140/140/140 139/139/139
f 144/144/144 142/142/142 126/126/126
f 145/145/145 144/144/144 126/126/126
f 145/145/145 146/146/146 144/144/144
f 144/144/144 147/147/147 142/142/142
f 147/147/147 141/141/141 142/142/142
f 147/147/147 143/143/143 141/141/141
f 146/146/146 148/148/148 147/147/147
f 148/148/148 143/143/143 147/147/147
f 148/148/148 149/149/149 143/143/143
f 149/149/149 140/140/140 143/143/143
f 140/140/140 149/149/149 150/150/150
f 151/151/151 140/140/140 150/150/150
f 150/150/150 149/149/149 152/152/152
f 149/149/149 153/153/153 152/152/152
f 156/156/156 155/155/155 154/154/154
f 157/157/157 155/155/155 156/156/156
f 160/160/160 159/159/159 158/158/158
f 158/158/158 159/159/159 161/161/161
f 159/159/159 162/162/162 161/161/161
f 158/158/158 161/161/161 163/163/163
f 164/164/164 158/158/158 163/163/163
f 161/161/161 162/162/162 165/165/165
f 162/162/162 166/166/166 165/165/165
f 165/165/165 166/166/166 167/167/167
f 170/170/170 169/169/169 168/168/168
f 169/169/169 171/171/171 168/168/168
f 168/168/168 171/171/171 172/172/172
f 171/171/171 173/173/173 172/172/172
f 172/172/172 173/173/173 174/174/174
f 173/173/173 175/175/175 174/174/174
f 174/174/174 175/175/175 176/176/176
f 173/173/173 177/177/177 175/175/175
f 178/178/178 177/177/177 173/173/173
f 177/177/177 179/179/179 175/175/175
f 175/175/175 180/180/180 176/176/176
f 175/175/175 179/179/179 180/180/180
f 176/176/176 180/180/180 181/181/181
f 179/179/179 182/182/182 180/180/180
f 180/180/180 183/183/183 181/181/181
f 180/180/180 182/182/182 183/183/183
f 181/181/181 183/183/183 184/184/184
f 182/182/182 185/185/185 183/183/183
f 188/188/188 187/187/187 186/186/186
f 188/188/188 186/186/186 189/189/189
f 189/189/189 186/186/186 190/190/190
f 189/189/189 190/190/190 191/191/191
f 192/192/192 189/189/189 191/191/191
f 191/191/191 190/190/190 193/193/193
f 186/186/186 194/194/194 190/190/190
f 186/186/186 195/195/195 194/194/194
f 190/190/190 196/196/196 193/193/193
f 190/190/190 194/194/194 196/196/196
f 193/193/193 196/196/196 197/197/197
f 194/194/194 198/198/198 196/196/196
f 194/194/194 199/199/199 198/198/198
f 199/199/199 200/200/200 198/198/198
f 198/198/198 200/200/200 201/201/201
f 200/200/200 202/202/202 201/201/201
f 201/201/201 202/202/202 203/203/203
f 206/206/206 205/205/205 204/204/204
f 207/207/207 206/206/206 204/204/204
f 207/207/207 204/204/204 208/208/208
f 209/209/209 206/206/206 207/207/207
f 210/210/210 207/207/207 208/208/208
f 210/210/210 208/208/208 211/211/211
f 212/212/212 210/210/210 211/211/211
f 213/213/213 209/209/209 207/207/207
f 213/213/213 207/207/207 210/210/210
f 214/214/214 209/209/209 213/213/213
f 215/215/215 210/210/210 212/212/212
f 215/215/215 213/213/213 210/210/210
f 216/216/216 214/214/214 213/213/213
f 216/216/216 213/213/213 215/215/215
f 217/217/217 214/214/214 216/216/216
f 218/218/218 215/215/215 212/212/212
f 218/218/218 212/212/212 219/219/219
f 220/220/220 216/216/216 215/215/215
f 220/220/220 215/215/215 218/218/218
f 221/221/221 217/217/217 216/216/216
f 221/221/221 216/216/216 220/220/220
f 222/222/222 217/217/217 221/221/221
f 223/223/223 220/220/220 218/218/218
f 223/223/223 218/218/218 219/219/219
f 224/224/224 221/221/221 220/220/220
f 224/224/224 220/220/220 223/223/223
f 225/225/225 222/222/222 221/221/221
f 225/225/225 221/221/221 224/224/224
f 226/226/226 222/222/222 225/225/225
f 227/227/227 224/224/224 223/223/223
f 227/227/227 223/223/223 219/219/219
f 228/228/228 226/226/226 225/225/225
f 229/229/229 226/226/226 228/228/228
f 230/230/230 225/225/225 224/224/224
f 230/230/230 224/224/224 227/227/227
f 228/228/228 225/225/225 230/230/230
f 231/231/231 227/227/227 219/219/219
f 231/231/231 230/230/230 227/227/227
f 232/232/232 228/228/228 230/230/230
f 232/232/232 230/230/230 231/231/231
f 219/219/219 233/233/233 231/231/231
f 233/233/233 232/232/232 231/231/231
f 234/234/234 233/233/233 219/219/219
f 234/234/234 235/235/235 233/233/233
f 235/235/235 232/232/232 233/233/233
f 236/236/236 235/235/235 234/234/234
f 236/236/236 106/106/106 235/235/235
f 237/237/237 228/228/228 232/232/232
f 235/235/235 237/237/237 232/232/232
f 106/106/106 237/237/237 235/235/235
f 237/237/237 229/229/229 228/228/228
f 106/106/106 102/102/102 237/237/237
f 102/102/102 229/229/229 237/237/237
f 229/229/229 102/102/102 238/238/238
f 239/239/239 229/229/229 238/238/238
f 242/242/242 241/241/241 240/240/240
f 243/243/243 242/242/242 240/240/240
f 244/244/244 242/242/242 243/243/243
f 245/245/245 244/244/244 243/243/243
f 245/245/245 243/243/243 246/246/246
f 246/246/246 243/243/243 247/247/247
f 243/243/243 240/240/240 247/247/247
f 247/247/247 240/240/240 248/248/248
f 240/240/240 249/249/249 248/248/248
f 248/248/248 249/249/249 250/250/250
f 249/249/249 251/251/251 250/250/250
f 254/254/254 253/253/253 252/252/252
f 255/255/255 254/254/254 252/252/252
f 255/255/255 252/252/252 256/256/256
f 257/257/257 254/254/254 255/255/255
f 258/258/258 255/255/255 256/256/256
f 259/259/259 257/257/257 255/255/255
f 259/259/259 255/255/255 258/258/258
f 260/260/260 257/257/257 259/259/259
f 261/261/261 259/259/259 258/258/258
f 262/262/262 260/260/260 259/259/259
f 262/262/262 259/259/259 261/261/261
f 265/265/265 264/264/264 263/263/263
f 266/266/266 265/265/265 263/263/263
f 267/267/267 265/265/265 266/266/266
f 268/268/268 267/267/267 266/266/266
f 268/268/268 266/266/266 269/269/269
f 270/270/270 267/267/267 268/268/268
f 271/271/271 268/268/268 269/269/269
f 272/272/272 270/270/270 268/268/268
f 272/272/272 268/268/268 271/271/271
f 273/273/273 270/270/270 272/272/272
f 274/274/274 272/272/272 271/271/271
f 275/275/275 273/273/273 272/272/272
f 275/275/275 272/272/272 274/274/274
f 276/276/276 273/273/273 275/275/275
f 277/277/277 275/275/275 274/274/274
f 278/278/278 276/276/276 275/275/275
f 278/278/278 275/275/275 277/277/277
f 281/281/281 280/280/280 279/279/279
f 280/280/280 282/282/282 279/279/279
f 280/280/280 283/283/283 282/282/282
f 279/279/279 282/282/282 284/284/284
f 282/282/282 285/285/285 284/284/284
f 284/284/284 285/285/285 286/286/286
f 285/285/285 287/287/287 286/286/286
f 286/286/286 287/287/287 288/288/288
f 286/286/286 288/288/288 289/289/289
f 289/289/289 288/288/288 290/290/290
f 289/289/289 290/290/290 291/291/291
f 287/287/287 292/292/292 288/288/288
f 287/287/287 293/293/293 292/292/292
f 294/294/294 293/293/293 287/287/287
f 297/297/297 296/296/296 295/295/295
f 297/297/297 298/298/298 296/296/296
f 295/295/295 296/296/296 299/299/299
f 298/298/298 300/300/300 296/296/296
f 296/296/296 301/301/301 299/299/299
f 296/296/296 300/300/300 301/301/301
f 299/299/299 301/301/301 302/302/302
f 300/300/300 303/303/303 301/301/301
f 301/301/301 304/304/304 302/302/302
f 301/301/301 303/303/303 304/304/304
f 302/302/302 304/304/304 305/305/305
f 303/303/303 306/306/306 304/304/304
f 304/304/304 307/307/307 305/305/305
f 304/304/304 306/306/306 307/307/307
f 305/305/305 307/307/307 308/308/308
f 306/306/306 309/309/309 307/307/307
f 307/307/307 310/310/310 308/308/308
f 307/307/307 309/309/309 310/310/310
f 313/313/313 312/312/312 311/311/311
f 312/312/312 313/313/313 314/314/314
f 315/315/315 313/313/313 311/311/311
f 311/311/311 312/312/312 316/316/316
f 317/317/317 313/313/313 315/315/315
f 313/313/313 317/317/317 314/314/314
f 318/318/318 317/317/317 315/315/315
f 312/312/312 319/319/319 316/316/316
f 319/319/319 312/312/312 314/314/314
f 316/316/316 319/319/319 320/320/320
f 321/321/321 317/317/317 318/318/318
f 317/317/317 321/321/321 314/314/314
f 322/322/322 321/321/321 318/318/318
f 319/319/319 323/323/323 320/320/320
f 323/323/323 319/319/319 314/314/314
f 320/320/320 323/323/323 324/324/324
f 325/325/325 321/321/321 322/322/322
f 321/321/321 325/325/325 314/314/314
f 326/326/326 325/325/325 322/322/322
f 323/323/323 327/327/327 324/324/324
f 327/327/327 323/323/323 314/314/314
f 325/325/325 328/328/328 314/314/314
f 328/328/328 325/325/325 326/326/326
f 329/329/329 327/327/327 314/314/314
f 324/324/324 327/327/327 330/330/330
f 327/327/327 329/329/329 330/330/330
f 331/331/331 328/328/328 326/326/326
f 330/330/330 329/329/329 332/332/332
f 333/333/333 328/328/328 331/331/331
f 328/328/328 333/333/333 314/314/314
f 334/334/334 333/333/333 331/331/331
f 329/329/329 335/335/335 332/332/332
f 335/335/335 329/329/329 314/314/314
f 332/332/332 335/335/335 336/336/336
f 337/337/337 333/333/333 334/334/334
f 333/333/333 337/337/337 314/314/314
f 338/338/338 337/337/337 334/334/334
f 335/335/335 339/339/339 336/336/336
f 339/339/339 335/335/335 314/314/314
f 336/336/336 339/339/339 340/340/340
f 341/341/341 337/337/337 338/338/338
f 337/337/337 341/341/341 314/314/314
f 342/342/342 341/341/341 338/338/338
f 340/340/340 343/343/343 342/342/342
f 339/339/339 343/343/343 340/340/340
f 343/343/343 339/339/339 314/314/314
f 341/341/341 343/343/343 314/314/314
f 343/343/343 341/341/341 342/342/342
