mtllib material.mtl
usemtl material_0
v -0.03099754 0.00053527 -0.04465727
v -0.03206145 0.00001915 -0.04476088
v -0.01780781 0.00001915 -0.04463948
v -0.01700165 0.00053527 -0.04462476
v -0.00778305 0.00053527 -0.04772227
v -0.00843767 0.00001914 -0.04774935
v 0.00130236 0.00001914 -0.05015518
v 0.00158102 0.00053527 -0.05025221
v 0.01619887 0.00053527 -0.04846852
v 0.01636814 0.00001914 -0.04832595
v 0.03063941 0.00001914 -0.04515808
v 0.03000727 0.00053526 -0.04533226
v 0.04059482 0.00053526 -0.03997238
v 0.04154506 0.00001914 -0.03976540
v -0.04592097 0.00001915 -0.04073612
v -0.04454594 0.00053527 -0.04062207
v -0.05626166 0.00053527 -0.02801197
v -0.04315566 0.00098884 -0.03931323
v -0.05811898 0.00001915 -0.02791317
v -0.06732385 0.00001915 -0.01100489
v -0.02992463 0.00098884 -0.04331291
v -0.01619883 0.00098884 -0.04336478
v -0.02883856 0.00131730 -0.04197382
v -0.06501880 0.00053527 -0.01143444
v -0.07627716 0.00053527 0.00083196
v -0.06274208 0.00098884 -0.01096219
v -0.07913093 0.00001915 0.00148559
v -0.08626503 0.00001915 0.01374429
v -0.05440821 0.00098884 -0.02704443
v -0.05255025 0.00131730 -0.02608434
v -0.04174496 0.00131730 -0.03801409
v -0.03815057 0.00160629 -0.03481292
v -0.00722542 0.00098884 -0.04648605
v 0.00185259 0.00098884 -0.04904095
v -0.00675243 0.00131730 -0.04531013
v -0.01547181 0.00131730 -0.04216629
v -0.01418298 0.00162748 -0.03958820
v -0.02608148 0.00161405 -0.03865436
v -0.02102294 0.00197248 -0.03309415
v 0.01602957 0.00098884 -0.04732161
v 0.02938687 0.00098883 -0.04424951
v 0.01585920 0.00131730 -0.04616925
v 0.00211569 0.00131730 -0.04782615
v 0.00269750 0.00163395 -0.04483210
v -0.00596195 0.00163331 -0.04271551
v -0.00574645 0.00204953 -0.03857151
v -0.01243287 0.00202621 -0.03516216
v -0.01086304 0.00243156 -0.03127321
v 0.03966234 0.00098883 -0.03897944
v 0.03874210 0.00131730 -0.03798313
v 0.04725383 0.00098883 -0.03231904
v 0.02877447 0.00131730 -0.04316153
v 0.02726013 0.00162968 -0.04046496
v 0.01539903 0.00163179 -0.04331917
v 0.01355164 0.00204346 -0.03862806
v 0.00282298 0.00205207 -0.03988518
v 0.00254687 0.00247131 -0.03515514
v -0.00490842 0.00246740 -0.03387649
v -0.00220815 0.00278836 -0.02886762
v 0.04616810 0.00131729 -0.03142593
v 0.04348487 0.00163021 -0.02929312
v 0.05217874 0.00131729 -0.02417775
v 0.03647213 0.00163044 -0.03555902
v 0.03136216 0.00203806 -0.03177413
v 0.02351249 0.00203502 -0.03607499
v 0.01909555 0.00244510 -0.03196046
v 0.01114170 0.00245808 -0.03412880
v 0.01046370 0.00278141 -0.02881774
v 0.00387526 0.00279128 -0.02967964
v 0.00562570 0.00298771 -0.02482131
v 0.04929244 0.00162512 -0.02226114
v 0.04302579 0.00201678 -0.01972762
v 0.05260869 0.00161950 -0.01351531
v 0.03760821 0.00203713 -0.02619963
v 0.03084637 0.00244836 -0.02361101
v 0.02553771 0.00244978 -0.02830525
v 0.02161822 0.00277522 -0.02404011
v 0.01653953 0.00277173 -0.02701251
v 0.01543147 0.00297971 -0.02253893
v 0.01072304 0.00298367 -0.02407661
v 0.01074590 0.00303504 -0.02207187
v 0.00624466 0.00303628 -0.02277330
v 0.01491155 0.00303382 -0.02064611
v 0.00160834 0.00303591 -0.02270813
v 0.01854772 0.00303426 -0.01851866
v 0.00041120 0.00298651 -0.02479210
v -0.00479103 0.00297558 -0.02402137
v -0.00299248 0.00303255 -0.02187356
v -0.00736912 0.00302479 -0.02023992
v 0.01948101 0.00298114 -0.02016307
v 0.02283073 0.00298070 -0.01711310
v 0.02153879 0.00303412 -0.01577939
v 0.02380197 0.00303119 -0.01250822
v -0.00808220 0.00276163 -0.02771897
v -0.01266883 0.00270007 -0.02512200
v -0.00938322 0.00295038 -0.02216454
v -0.01349077 0.00293583 -0.01929161
v -0.01125251 0.00302031 -0.01772785
v -0.01445742 0.00302677 -0.01435843
v 0.02584363 0.00277416 -0.02025433
v 0.02943204 0.00275084 -0.01598977
v -0.01701741 0.00234901 -0.02901442
v -0.02374462 0.00230132 -0.02558237
v -0.01760922 0.00266450 -0.02195990
v -0.02191443 0.00271578 -0.01644311
v -0.01689840 0.00295682 -0.01522163
v -0.02022615 0.00299271 -0.01092862
v -0.01728678 0.00303783 -0.01063456
v -0.01932940 0.00304712 -0.00658302
v 0.03553700 0.00241709 -0.01826762
v 0.03866502 0.00238257 -0.01193698
v 0.04640288 0.00199432 -0.01183407
v 0.04696878 0.00198704 -0.00210801
v -0.02284821 0.00302289 -0.00658723
v -0.02379827 0.00303760 -0.00168333
v -0.03157149 0.00287726 -0.00616288
v -0.02016450 0.00305165 -0.00214491
v -0.01999441 0.00304841 0.00232635
v -0.02703241 0.00280351 -0.01102870
v -0.03663745 0.00248771 -0.01063439
v -0.02969296 0.00237009 -0.01828587
v -0.03919335 0.00198620 -0.02038458
v -0.03120948 0.00194144 -0.02955222
v -0.04790556 0.00161748 -0.02371956
v -0.05534348 0.00163662 -0.00986986
v -0.04563737 0.00206275 -0.00969695
v -0.05227426 0.00212711 -0.00013097
v -0.04165515 0.00258660 -0.00348510
v -0.04548890 0.00263481 0.00351996
v -0.06051304 0.00131730 -0.01053045
v -0.07061800 0.00131730 0.00112424
v -0.03320985 0.00291322 -0.00032258
v -0.03340964 0.00288753 0.00583906
v -0.06441554 0.00165271 0.00109487
v -0.07114477 0.00166055 0.01135432
v -0.07341021 0.00098884 0.00098364
v -0.08077019 0.00098884 0.01239176
v -0.05833770 0.00215849 0.00860312
v -0.05970562 0.00213608 0.01861157
v -0.02372111 0.00302709 0.00327213
v -0.02260049 0.00300602 0.00807195
v -0.01883340 0.00304192 0.00665737
v -0.01671782 0.00303669 0.01068516
v -0.08350267 0.00053527 0.01273668
v -0.08368717 0.00053527 0.02568840
v -0.08637673 0.00001915 0.02693569
v -0.07905488 0.00001915 0.03290001
v -0.02032759 0.00298904 0.01260935
v -0.01710002 0.00297052 0.01675750
v -0.02977910 0.00279453 0.01760673
v -0.01380321 0.00303099 0.01427077
v -0.01022593 0.00302309 0.01727282
v -0.03244089 0.00283603 0.01180309
v -0.04545953 0.00253132 0.01936853
v -0.04635560 0.00260037 0.01148803
v -0.07652322 0.00053527 0.03136648
v -0.06539030 0.00053527 0.03684912
v -0.07400970 0.00098884 0.03029888
v -0.06744462 0.00001915 0.03831864
v -0.05865082 0.00001915 0.05050669
v -0.08103442 0.00098884 0.02497756
v -0.07840817 0.00131730 0.02429098
v -0.07801600 0.00131730 0.01207215
v -0.07197890 0.00165495 0.02268799
v -0.06592166 0.00164372 0.02753326
v -0.07158960 0.00131730 0.02936299
v -0.06128146 0.00131730 0.03470169
v -0.06333899 0.00098884 0.03577692
v -0.05507334 0.00098884 0.04757320
v -0.05626507 0.00209113 0.02517789
v -0.04913952 0.00205491 0.03058087
v -0.05686323 0.00053527 0.04890604
v -0.04817408 0.00053527 0.06254718
v -0.04987384 0.00001915 0.06441753
v -0.03952121 0.00001915 0.07607050
v -0.05658107 0.00163466 0.03263999
v -0.04875098 0.00162479 0.04286107
v -0.04069543 0.00247567 0.02497164
v -0.03189094 0.00241501 0.02895217
v -0.05327343 0.00131730 0.04623263
v -0.04479627 0.00131730 0.05906573
v -0.04648417 0.00098884 0.06080798
v -0.03633244 0.00098884 0.07169797
v -0.03919192 0.00201543 0.03546375
v -0.03187917 0.00196071 0.04552238
v -0.02519579 0.00274929 0.02422008
v -0.01997866 0.00268657 0.03010105
v -0.03791363 0.00053527 0.07387088
v -0.02324123 0.00053527 0.07601146
v -0.02444741 0.00001914 0.07830696
v -0.00748214 0.00001914 0.07511176
v -0.04060217 0.00161111 0.05471203
v -0.03095229 0.00160393 0.06418595
v -0.01308964 0.00294487 0.02039036
v -0.00850891 0.00293140 0.02309425
v -0.00616629 0.00301895 0.01953791
v -0.00178201 0.00302451 0.02090076
v -0.03476948 0.00131730 0.06953505
v -0.02090014 0.00131730 0.07146196
v -0.02206096 0.00098884 0.07372802
v -0.00619792 0.00098884 0.07075895
v -0.00683310 0.00053527 0.07291399
v 0.00839772 0.00053526 0.06998239
v 0.00824943 0.00001914 0.07205011
v 0.01822051 0.00001914 0.07554501
v -0.00352013 0.00294946 0.02441419
v 0.00163441 0.00297328 0.02465825
v -0.00796772 0.00269781 0.03555222
v 0.00273312 0.00303184 0.02137898
v 0.00719297 0.00303300 0.02099839
v -0.01445453 0.00265366 0.03457555
v -0.01801193 0.00228679 0.04485191
v -0.02498246 0.00233092 0.03865480
v -0.02328443 0.00193198 0.05311883
v -0.01254256 0.00197051 0.05445186
v -0.00951260 0.00234599 0.04556818
v -0.00059582 0.00242402 0.04361676
v -0.00115010 0.00275601 0.03473535
v 0.00551733 0.00276525 0.03376759
v -0.01808915 0.00161356 0.06588514
v -0.00406092 0.00162625 0.06335023
v 0.00671358 0.00297706 0.02415947
v 0.01146016 0.00297495 0.02277747
v 0.01140921 0.00303235 0.01977215
v 0.01522236 0.00303425 0.01771600
v -0.00108515 0.00202130 0.05252225
v 0.00835672 0.00202936 0.05382209
v -0.00557320 0.00131730 0.06861952
v 0.00868700 0.00131730 0.06599073
v 0.00649415 0.00243641 0.04520381
v 0.01270637 0.00242951 0.04636991
v 0.01162208 0.00276010 0.03186985
v 0.01675948 0.00277515 0.02832769
v 0.00903495 0.00162827 0.06106574
v 0.01763611 0.00162714 0.06383885
v 0.00854339 0.00098883 0.06798181
v 0.01800980 0.00098883 0.07123027
v 0.01565816 0.00298110 0.02037613
v 0.01936070 0.00298380 0.01721345
v 0.01855509 0.00303508 0.01496430
v 0.02135281 0.00303123 0.01164008
v 0.01613924 0.00202487 0.05522384
v 0.02180689 0.00203800 0.05473938
v 0.01811357 0.00053526 0.07337512
v 0.02582416 0.00053526 0.07117048
v 0.02622400 0.00001914 0.07288357
v 0.03465947 0.00001914 0.06141628
v 0.01889167 0.00244968 0.04179278
v 0.02443028 0.00245851 0.03410233
v 0.02133762 0.00278173 0.02390943
v 0.02553375 0.00275121 0.01825945
v 0.02263638 0.00297131 0.01352892
v 0.02524423 0.00295702 0.00935566
v 0.02354157 0.00302683 0.00786678
v 0.02504323 0.00302600 0.00376168
v 0.03414286 0.00053526 0.05997265
v 0.04183577 0.00053526 0.05009209
v 0.03362028 0.00098883 0.05868207
v 0.04240881 0.00001914 0.05142632
v 0.04865083 0.00001913 0.04114553
v 0.02543365 0.00098883 0.06946918
v 0.02504540 0.00131729 0.06775030
v 0.01789354 0.00131729 0.06912933
v 0.02406513 0.00163043 0.06345993
v 0.03172865 0.00163186 0.05409815
v 0.03308922 0.00131730 0.05738156
v 0.04064922 0.00131729 0.04793411
v 0.04125017 0.00098883 0.04901641
v 0.04737228 0.00098883 0.03896897
v 0.02848773 0.00204374 0.04586374
v 0.03518315 0.00201711 0.03771151
v 0.04801924 0.00053526 0.03987136
v 0.05211262 0.00053526 0.02677535
v 0.05283669 0.00001913 0.02789788
v 0.05585610 0.00001913 0.01264766
v 0.03908434 0.00162520 0.04520857
v 0.04496549 0.00161758 0.03582412
v 0.02993428 0.00241759 0.02674114
v 0.03468201 0.00237075 0.02040619
v 0.04670670 0.00131729 0.03806752
v 0.05062101 0.00131729 0.02555759
v 0.05137534 0.00098883 0.02616405
v 0.05415594 0.00098883 0.01159547
v 0.04070791 0.00198663 0.02991693
v 0.04399429 0.00198083 0.01986939
v 0.02913475 0.00271628 0.01312357
v 0.03134052 0.00270964 0.00718043
v 0.05501041 0.00053526 0.01179015
v 0.05724913 0.00053526 -0.00314357
v 0.05824574 0.00001913 -0.00257936
v 0.05886029 0.00001913 -0.01579819
v 0.04866425 0.00161613 0.02406562
v 0.05106392 0.00161734 0.01092515
v 0.02695504 0.00295430 0.00472330
v 0.02785691 0.00295656 -0.00011730
v 0.02585654 0.00302669 -0.00049832
v 0.02594916 0.00302689 -0.00474017
v 0.05328811 0.00131729 0.01140204
v 0.05524292 0.00131729 -0.00265473
v 0.05624998 0.00098883 -0.00289661
v 0.05658308 0.00098883 -0.01554466
v 0.05771881 0.00053526 -0.01614287
v 0.05451831 0.00053526 -0.02575030
v 0.05570431 0.00001914 -0.02549409
v 0.04946413 0.00001914 -0.03297908
v 0.02799159 0.00295722 -0.00492251
v 0.02724750 0.00296063 -0.00946668
v 0.03275291 0.00271676 -0.00532529
v 0.02528353 0.00302794 -0.00879546
v 0.03247241 0.00271517 0.00088417
v 0.03894812 0.00236926 0.00396863
v 0.02547981 0.00297116 -0.01354084
v 0.03187106 0.00272509 -0.01106688
v 0.03953897 0.00237140 -0.00436498
v 0.03747453 0.00236184 0.01252234
v 0.04590122 0.00198565 0.00874532
v 0.05269492 0.00161768 -0.00207231
v 0.05544686 0.00131729 -0.01495442
v 0.05334532 0.00098883 -0.02496148
v 0.04835040 0.00053526 -0.03321241
v -0.08637673 0.00001915 0.02693569
v -0.07905488 0.00001915 0.03290001
v -0.08626503 0.00001915 0.01374429
v -0.06732385 0.00001915 -0.01100489
v -0.07913093 0.00001915 0.00148559
v -0.06744462 0.00001915 0.03831864
v 0.05585610 0.00001913 0.01264766
v -0.05811898 0.00001915 -0.02791317
v -0.05865082 0.00001915 0.05050669
v -0.03206145 0.00001915 -0.04476088
v -0.04592097 0.00001915 -0.04073612
v -0.01780781 0.00001915 -0.04463948
v -0.00843767 0.00001914 -0.04774935
v 0.01636814 0.00001914 -0.04832595
v 0.00130236 0.00001914 -0.05015518
v 0.04154506 0.00001914 -0.03976540
v 0.03063941 0.00001914 -0.04515808
v 0.04946413 0.00001914 -0.03297908
v 0.05886029 0.00001913 -0.01579819
v 0.05570431 0.00001914 -0.02549409
v 0.05824574 0.00001913 -0.00257936
v 0.04865083 0.00001913 0.04114553
v 0.05283669 0.00001913 0.02789788
v 0.03465947 0.00001914 0.06141628
v 0.04240881 0.00001914 0.05142632
v 0.00824943 0.00001914 0.07205011
v 0.02622400 0.00001914 0.07288357
v 0.01822051 0.00001914 0.07554501
v -0.04987384 0.00001915 0.06441753
v -0.02444741 0.00001914 0.07830696
v -0.03952121 0.00001915 0.07607050
v -0.00748214 0.00001914 0.07511176
vn -0.08278264 0.95287550 -0.29184800
vn -0.09435289 0.94787080 -0.30436570
vn -0.08442175 0.94452290 -0.31741070
vn -0.08200055 0.95068100 -0.29913460
vn -0.11756970 0.94735140 -0.29783020
vn -0.12052060 0.94230090 -0.31232030
vn -0.02980194 0.94289000 -0.33176830
vn -0.03641360 0.94803840 -0.31606510
vn 0.06570133 0.94764180 -0.31250310
vn 0.07024384 0.94126050 -0.33029440
vn 0.14460930 0.94224890 -0.30208500
vn 0.13697880 0.94835010 -0.28612750
vn 0.19891920 0.94765340 -0.24976840
vn 0.21000930 0.94123000 -0.26454150
vn -0.19948990 0.95231000 -0.23088860
vn -0.19126990 0.95698170 -0.21817810
vn -0.27728420 0.95138570 -0.13408380
vn -0.15752640 0.97106840 -0.17947570
vn -0.28915440 0.94599060 -0.14660020
vn -0.30367700 0.94325540 -0.13434880
vn -0.06756025 0.96836340 -0.24022470
vn -0.06965010 0.96646410 -0.24717620
vn -0.03998517 0.98865410 -0.14478970
vn -0.28424440 0.95043880 -0.12598060
vn -0.28560390 0.94939350 -0.13069960
vn -0.23079750 0.96767390 -0.10168520
vn -0.30558560 0.94238740 -0.13610070
vn -0.33643410 0.93971160 -0.06127200
vn -0.22740500 0.96762560 -0.10948910
vn -0.13568190 0.98864380 -0.06460444
vn -0.09500547 0.98962710 -0.10775960
vn -0.04002808 0.99816940 -0.04533919
vn -0.10097640 0.96276600 -0.25076960
vn -0.03292939 0.96399770 -0.26386370
vn -0.06378873 0.98562150 -0.15646500
vn -0.04454441 0.98803650 -0.14764680
vn -0.03030559 0.99637340 -0.07950983
vn -0.02100713 0.99771580 -0.06420080
vn -0.02619314 0.99821400 -0.05369122
vn 0.05361951 0.96534980 -0.25539140
vn 0.11221010 0.96564500 -0.23438990
vn 0.03188132 0.98783510 -0.15220150
vn -0.02206433 0.98621150 -0.16401180
vn -0.00902161 0.99661510 -0.08171280
vn -0.03438216 0.99562140 -0.08692508
vn -0.03177341 0.99661020 -0.07588521
vn -0.03513948 0.99698390 -0.06919613
vn -0.03569867 0.99756010 -0.05999454
vn 0.16247260 0.96540550 -0.20394830
vn 0.09651706 0.98795110 -0.12098340
vn 0.18229530 0.96550610 -0.18591980
vn 0.06731497 0.98777940 -0.14057230
vn 0.03190465 0.99732760 -0.06572609
vn 0.01592253 0.99716030 -0.07360577
vn 0.01380842 0.99795790 -0.06236333
vn -0.00557783 0.99747350 -0.07081923
vn -0.00421798 0.99824810 -0.05901690
vn -0.02654217 0.99771650 -0.06210650
vn -0.01250077 0.99905850 -0.04154125
vn 0.10686510 0.98828920 -0.10892310
vn 0.04947899 0.99753680 -0.04972268
vn 0.11682550 0.98842350 -0.09680250
vn 0.04494360 0.99741070 -0.05614278
vn 0.03429401 0.99846210 -0.04355814
vn 0.02539998 0.99826270 -0.05316420
vn 0.02174816 0.99864890 -0.04719538
vn 0.01193814 0.99847070 -0.05397889
vn 0.00968714 0.99923800 -0.03781031
vn -0.00065550 0.99922060 -0.03946938
vn 0.00140287 0.99967550 -0.02543236
vn 0.05183014 0.99778570 -0.04168022
vn 0.03774064 0.99888140 -0.02848898
vn 0.05608601 0.99808550 -0.02607179
vn 0.03759148 0.99862150 -0.03663278
vn 0.03346703 0.99893340 -0.03181266
vn 0.02961016 0.99880840 -0.03879602
vn 0.02395967 0.99923040 -0.03105760
vn 0.01717217 0.99923120 -0.03524194
vn 0.01247377 0.99962380 -0.02442557
vn 0.00724490 0.99965370 -0.02529826
vn 0.08942203 0.93834700 -0.33392910
vn 0.02220354 0.93979070 -0.34102870
vn 0.15413140 0.93780790 -0.31106260
vn -0.04285685 0.94343570 -0.32877410
vn 0.21588050 0.93564520 -0.27922010
vn -0.00495533 0.99965000 -0.02598644
vn -0.01388090 0.99953460 -0.02716408
vn -0.10100610 0.94913600 -0.29822570
vn -0.15475880 0.95314130 -0.25994500
vn 0.01745196 0.99960110 -0.02220721
vn 0.02172084 0.99958820 -0.01875241
vn 0.26640970 0.93541320 -0.23243930
vn 0.29680260 0.93957010 -0.17063430
vn -0.02672120 0.99869160 -0.04360032
vn -0.03522575 0.99849800 -0.04196345
vn -0.02399851 0.99929520 -0.02886316
vn -0.02981349 0.99912470 -0.02934146
vn -0.21202640 0.95098440 -0.22510750
vn -0.26823840 0.94179170 -0.20267370
vn 0.02869704 0.99924710 -0.02611210
vn 0.03145969 0.99930640 -0.01992609
vn -0.03546797 0.99800950 -0.05214487
vn -0.03627765 0.99854590 -0.03987555
vn -0.03845116 0.99852840 -0.03824355
vn -0.03830167 0.99860890 -0.03624046
vn -0.02887485 0.99923130 -0.02651346
vn -0.02222046 0.99951680 -0.02173235
vn -0.28914090 0.94427660 -0.15728720
vn -0.29523250 0.95142350 -0.08735669
vn 0.03457869 0.99910690 -0.02428287
vn 0.03408185 0.99931910 -0.01413580
vn 0.03729728 0.99916920 -0.01642317
vn 0.03634248 0.99932480 -0.00541027
vn -0.01543039 0.99981050 -0.01187363
vn -0.01174452 0.99992940 -0.00180270
vn -0.03325746 0.99914970 -0.02436965
vn -0.30371090 0.95254370 -0.02049513
vn -0.29472780 0.95482130 0.03810294
vn -0.03416628 0.99882500 -0.03436972
vn -0.05147916 0.99786630 -0.04015849
vn -0.04194492 0.99844740 -0.03665498
vn -0.04644002 0.99844620 -0.03080012
vn -0.03242305 0.99879970 -0.03671383
vn -0.06046042 0.99768880 -0.03101160
vn -0.07098930 0.99688860 -0.03425786
vn -0.06217848 0.99741600 -0.03598714
vn -0.06942172 0.99694500 -0.03579418
vn -0.05816245 0.99775060 -0.03332995
vn -0.05234514 0.99851040 -0.01538908
vn -0.13779490 0.98855300 -0.06144357
vn -0.14279710 0.98744450 -0.06754439
vn -0.02703205 0.99961480 -0.00627939
vn -0.02243944 0.99973270 0.00557521
vn -0.07680801 0.99633850 -0.03755426
vn -0.08033226 0.99660110 -0.01824698
vn -0.23157710 0.96681040 -0.10793320
vn -0.25767620 0.96472190 -0.05398729
vn -0.06420545 0.99781430 -0.01563046
vn -0.05828433 0.99823530 0.01136459
vn -0.01167084 0.99992380 0.00402326
vn -0.01301056 0.99988650 0.00759515
vn -0.27431790 0.95724580 0.09181627
vn -0.24759730 0.95855770 0.14093510
vn -0.31654520 0.94649000 -0.06289409
vn -0.30704470 0.94944720 0.06537240
vn -0.32356970 0.94393270 0.06552721
vn -0.27442050 0.94421120 0.18209480
vn -0.01371866 0.99984810 0.01075192
vn -0.01281947 0.99981040 0.01466113
vn -0.02041946 0.99961880 0.01858331
vn -0.21193800 0.95993270 0.18333430
vn -0.16860050 0.96159260 0.21659520
vn -0.02074839 0.99971570 0.01174256
vn -0.03557565 0.99916200 0.02024376
vn -0.04039752 0.99916570 0.00599556
vn -0.25707720 0.94980220 0.17828990
vn -0.25308260 0.95042100 0.18069070
vn -0.21313190 0.96534810 0.15059200
vn -0.26780820 0.94359660 0.19468990
vn -0.27251470 0.94446070 0.18365660
vn -0.25406420 0.96544130 0.05808914
vn -0.16021260 0.98628570 0.03965139
vn -0.15835920 0.98674490 -0.03545061
vn -0.07911602 0.99665990 0.02024485
vn -0.07277136 0.99598930 0.05205523
vn -0.13362000 0.98623640 0.09738284
vn -0.12357090 0.98828110 0.08961436
vn -0.20656560 0.96730410 0.14715170
vn -0.21109310 0.96733890 0.14034010
vn -0.05654590 0.99764730 0.03876011
vn -0.04586786 0.99794420 0.04476146
vn -0.25867720 0.95050000 0.17215060
vn -0.21413020 0.95312980 0.21375660
vn -0.22363900 0.94761740 0.22805030
vn -0.13060710 0.95062510 0.28152030
vn -0.06804671 0.99619560 0.05444346
vn -0.05432376 0.99769600 0.04064098
vn -0.03082465 0.99894420 0.03406238
vn -0.03149183 0.99882550 0.03682193
vn -0.12495770 0.98866790 0.08319540
vn -0.10295590 0.98944270 0.10199600
vn -0.17513930 0.96895410 0.17451090
vn -0.10130270 0.97026980 0.21980510
vn -0.03672097 0.99858250 0.03853025
vn -0.03034369 0.99897240 0.03366468
vn -0.02227735 0.99942860 0.02541976
vn -0.02166124 0.99937220 0.02803820
vn -0.12339410 0.95561210 0.26754300
vn -0.02221371 0.95180260 0.30590610
vn -0.02851301 0.94632390 0.32195970
vn 0.01785618 0.94255320 0.33357820
vn -0.04109538 0.99827590 0.04191101
vn -0.02388883 0.99838340 0.05157296
vn -0.01127277 0.99977400 0.01802485
vn -0.01020746 0.99976310 0.01922287
vn -0.12191760 0.96246820 0.24246870
vn -0.07500213 0.95998290 0.26982870
vn -0.06027379 0.98954810 0.13100260
vn -0.00984084 0.98906580 0.14714620
vn -0.01782293 0.96802910 0.25020400
vn 0.01372825 0.96669500 0.25556300
vn 0.01688762 0.94912390 0.31444990
vn -0.03427860 0.94863960 0.31449620
vn -0.04359550 0.94093560 0.33576740
vn -0.01309927 0.94380110 0.33025420
vn -0.00789938 0.99978570 0.01913347
vn -0.00297024 0.99981490 0.01901098
vn -0.00969896 0.99948760 0.03050137
vn -0.02255127 0.95574510 0.29333040
vn 0.03577628 0.95271520 0.30175100
vn -0.01624449 0.99942050 0.02991126
vn -0.02013826 0.99892710 0.04170311
vn -0.03092740 0.99883660 0.03700013
vn -0.01837822 0.99907920 0.03876794
vn -0.00631370 0.99894860 0.04540676
vn -0.00869280 0.99894420 0.04511024
vn -0.00549110 0.99897990 0.04482109
vn -0.00441582 0.99955120 0.02962645
vn 0.00016258 0.99964320 0.02670891
vn -0.00512816 0.99819500 0.05983789
vn 0.00138266 0.99785740 0.06541193
vn 0.00232927 0.99981490 0.01910179
vn 0.00624640 0.99980120 0.01893753
vn 0.09580256 0.95078040 0.29468360
vn 0.15712320 0.94693240 0.28041260
vn -0.00478048 0.99859350 0.05280177
vn -0.00812302 0.99821730 0.05912939
vn 0.00781385 0.98896500 0.14794320
vn -0.01377327 0.98961920 0.14305290
vn -0.00588677 0.99902080 0.04384875
vn 0.00067498 0.99919480 0.04011514
vn 0.00603684 0.99972440 0.02268219
vn 0.01246511 0.99971150 0.02053193
vn -0.00816972 0.99738290 0.07183588
vn -0.00834840 0.99735280 0.07223325
vn -0.02677499 0.96686370 0.25388550
vn -0.02435269 0.96560600 0.25886710
vn 0.01010387 0.99978700 0.01799422
vn 0.01559858 0.99974600 0.01626354
vn 0.21373610 0.94401030 0.25131950
vn 0.25423680 0.94585190 0.20181170
vn -0.00284165 0.99853810 0.05397659
vn 0.01467411 0.99905750 0.04085198
vn -0.02635725 0.94894000 0.31435370
vn 0.11656000 0.95169630 0.28405600
vn 0.12860410 0.94606760 0.29735030
vn 0.20647980 0.93988700 0.27198980
vn 0.01442697 0.99956110 0.02587054
vn 0.02094478 0.99957290 0.02037611
vn 0.01925311 0.99963960 0.01870757
vn 0.02391879 0.99957200 0.01684239
vn 0.02059266 0.99968310 0.01447418
vn 0.02394186 0.99964590 0.01160698
vn 0.27961310 0.94946040 0.14262310
vn 0.30152340 0.94975950 0.08390649
vn 0.19440560 0.94686350 0.25623410
vn 0.21035990 0.94789150 0.23927020
vn 0.15765060 0.96529660 0.20820390
vn 0.22451420 0.94166030 0.25073690
vn 0.26870720 0.94731710 0.17431840
vn 0.09290831 0.96759090 0.23481030
vn 0.05431426 0.98795030 0.14492760
vn -0.01798732 0.98756000 0.15621060
vn 0.02185609 0.99774950 0.06338926
vn 0.03967242 0.99790260 0.05115250
vn 0.09164752 0.98837630 0.12129670
vn 0.10068870 0.98822120 0.11524120
vn 0.17161430 0.96557470 0.19548380
vn 0.20687130 0.96836070 0.13957680
vn 0.02528760 0.99927430 0.02848683
vn 0.02488949 0.99939190 0.02442194
vn 0.25247700 0.95258550 0.16981200
vn 0.28741330 0.95449950 0.07952505
vn 0.30380940 0.94905140 0.08367261
vn 0.31605150 0.94861290 0.01565250
vn 0.04159970 0.99804320 0.04668307
vn 0.04925117 0.99822780 0.03340278
vn 0.02263856 0.99958820 0.01763429
vn 0.02423583 0.99961780 0.01329941
vn 0.12296160 0.98886320 0.08384415
vn 0.13846150 0.98962410 0.03837533
vn 0.23493770 0.96983260 0.06503069
vn 0.24343820 0.96984350 0.01189410
vn 0.02805650 0.99944850 0.01776128
vn 0.03224237 0.99944080 0.00884744
vn 0.02647580 0.99956050 0.01333559
vn 0.02952762 0.99953320 0.00785187
vn 0.29861380 0.95426220 0.01460935
vn 0.29568510 0.95413550 -0.04685917
vn 0.31266070 0.94859930 -0.04901543
vn 0.29129330 0.94724880 -0.13367090
vn 0.05555649 0.99833520 0.01550197
vn 0.05777079 0.99832540 0.00299993
vn 0.02629379 0.99962890 0.00711619
vn 0.02764659 0.99961580 0.00198107
vn 0.31600450 0.94846930 0.02339102
vn 0.31868640 0.94703390 -0.03956854
vn 0.14221690 0.98981120 0.00693983
vn 0.14211160 0.98959270 -0.02259834
vn 0.24150600 0.96964340 -0.03829420
vn 0.22496990 0.96850310 -0.10672590
vn 0.27476810 0.95267920 -0.13001880
vn 0.24317970 0.94907160 -0.20031670
vn 0.25874490 0.94297300 -0.20941150
vn 0.23759540 0.94076760 -0.24187770
vn 0.02794760 0.99960330 -0.00350294
vn 0.02706705 0.99959280 -0.00903080
vn 0.03278365 0.99945220 -0.00452326
vn 0.31083290 0.94475370 -0.10403510
vn 0.03175874 0.99949360 0.00198937
vn 0.03057739 0.99953090 0.00175755
vn 0.02498662 0.99958570 -0.01428444
vn 0.03272193 0.99939000 -0.01220075
vn 0.03257253 0.99945780 -0.00481171
vn 0.02777617 0.99958720 0.00734591
vn 0.03470897 0.99939560 0.00193749
vn 0.05828805 0.99825940 -0.00898478
vn 0.13355620 0.98897780 -0.06391805
vn 0.19845600 0.96633670 -0.16373310
vn 0.22398500 0.94745400 -0.22838950
vn -0.00000030 -1.00000000 0.00000000
vn 0.00000000 -1.00000000 0.00000000
vn -0.00000019 -1.00000000 0.00000000
vn -0.00000011 -1.00000000 0.00000000
vn -0.00000049 -1.00000000 -0.00000029
vn -0.00000011 -1.00000000 0.00000000
vn -0.00000011 -1.00000000 0.00000000
vn -0.00000010 -1.00000000 0.00000000
vn -0.00000011 -1.00000000 0.00000000
vn -0.00000010 -1.00000000 0.00000000
vn -0.00000013 -1.00000000 -0.00000012
vn -0.00000014 -1.00000000 0.00000000
vn 0.00000000 -1.00000000 0.00000000
vn 0.00000000 -1.00000000 0.00000000
vn -0.00000010 -1.00000000 0.00000000
vn 0.00000000 -1.00000000 0.00000000
vn -0.00000013 -1.00000000 0.00000000
vn -0.00000013 -1.00000000 0.00000000
vn -0.00000031 -1.00000000 0.00000000
vn 0.00000012 -1.00000000 -0.00000027
vn 0.00000000 -1.00000000 0.00000000
vn -0.00000012 -1.00000000 0.00000000
vn 0.00000000 -1.00000000 0.00000000
vn -0.00000011 -1.00000000 0.00000000
vn 0.00000050 -1.00000000 0.00000052
vn -0.00000010 -1.00000000 0.00000000
vn -0.00000015 -1.00000000 0.00000000
vn -0.00000017 -1.00000000 0.00000031
vn 0.00000000 -1.00000000 0.00000000
vn 0.00000000 -1.00000000 0.00000000
vn 0.00000000 -1.00000000 0.00000000
vn -0.00000094 -1.00000000 -0.00000439
vt -1.39241800 0.02933612
vt -1.39025100 0.01536226
vt -1.47830900 0.03256337
vt -1.47723800 0.04651326
vt -1.56192500 0.06656212
vt -1.56404500 0.05364969
vt -1.64887300 0.08305347
vt -1.64594800 0.09363431
vt -1.72877900 0.13188130
vt -1.73320000 0.12333820
vt -1.80718500 0.17680110
vt -1.80151900 0.18416220
vt -1.85526600 0.25333600
vt -1.86195200 0.24605050
vt -1.30510700 0.02818870
vt -1.30961200 0.03962365
vt -1.23096800 0.10196920
vt -1.31310400 0.04891181
vt -1.22407600 0.09199029
vt -1.15722200 0.18229620
vt -1.39427900 0.03882694
vt -1.47742700 0.05566567
vt -1.39615900 0.04842147
vt -1.16484100 0.18929130
vt -1.11958600 0.27450870
vt -1.17118600 0.19563000
vt -1.10999600 0.27028620
vt -1.07700700 0.35275410
vt -1.23601000 0.11002870
vt -1.24110600 0.11817630
vt -1.31663400 0.05830136
vt -1.32561100 0.08217993
vt -1.56044400 0.07531944
vt -1.64281200 0.10185810
vt -1.55894800 0.08417234
vt -1.47761800 0.06491795
vt -1.47810300 0.08844745
vt -1.40094100 0.07282120
vt -1.41150600 0.12672790
vt -1.72401100 0.13935130
vt -1.79531700 0.19060190
vt -1.71919100 0.14690290
vt -1.63964100 0.11017170
vt -1.63157900 0.13131390
vt -1.55514200 0.10668610
vt -1.54673500 0.15642620
vt -1.47917400 0.14043150
vt -1.48382800 0.20517380
vt -1.84800500 0.25841260
vt -1.84066500 0.26354470
vt -1.89050600 0.33697970
vt -1.78904700 0.19711200
vt -1.77310300 0.21366780
vt -1.70693200 0.16610750
vt -1.67984800 0.20853640
vt -1.61376700 0.17802370
vt -1.59502700 0.23561780
vt -1.53970500 0.21786760
vt -1.54003300 0.27548590
vt -1.88230200 0.34051510
vt -1.86143800 0.34950600
vt -1.92221800 0.42233760
vt -1.82199800 0.27659600
vt -1.78075600 0.30543050
vt -1.73787800 0.25024490
vt -1.69699900 0.29551470
vt -1.64932200 0.26094310
vt -1.62673400 0.31008170
vt -1.58418300 0.28941290
vt -1.57891500 0.32902340
vt -1.89924900 0.42701210
vt -1.84850300 0.43733950
vt -1.92270000 0.50816970
vt -1.81534400 0.36936980
vt -1.76093100 0.39364960
vt -1.73247100 0.34100350
vt -1.69266900 0.37427040
vt -1.66409300 0.33814880
vt -1.64200900 0.36969110
vt -1.61251500 0.34634380
vt -1.60606000 0.36167360
vt -1.57618900 0.34578830
vt -1.63227700 0.38300700
vt -1.54386500 0.33598460
vt -1.65363800 0.40915520
vt -1.54308500 0.31800630
vt -1.50613400 0.31304000
vt -1.51031400 0.33242410
vt -1.47676000 0.33526880
vt -1.66551900 0.39878900
vt -1.68340700 0.43209110
vt -1.66962200 0.43897460
vt -1.67970400 0.47132100
vt -1.49506000 0.26697820
vt -1.45004000 0.26256690
vt -1.46916700 0.31387210
vt -1.43347300 0.32302520
vt -1.44445900 0.34474990
vt -1.41466900 0.36109840
vt -1.71511000 0.41588900
vt -1.73406600 0.46044720
vt -1.42786800 0.19501760
vt -1.37329300 0.20246530
vt -1.40631200 0.27066870
vt -1.36521500 0.29970090
vt -1.40033700 0.34302180
vt -1.37157800 0.37026070
vt -1.38857900 0.38310550
vt -1.36738100 0.40956220
vt -1.78757600 0.44969340
vt -1.80378700 0.50834940
vt -1.86906900 0.50851150
vt -1.86587800 0.58205750
vt -1.34901100 0.40114020
vt -1.33225500 0.43460270
vt -1.30452200 0.38161820
vt -1.35159300 0.43940930
vt -1.34173600 0.47158740
vt -1.33015100 0.33992880
vt -1.27795000 0.29866310
vt -1.32156900 0.24258270
vt -1.28270400 0.18467310
vt -1.34544500 0.13493510
vt -1.25406800 0.13889630
vt -1.19391200 0.21833400
vt -1.22994900 0.25433700
vt -1.19384600 0.32232170
vt -1.24769100 0.35399960
vt -1.22548800 0.40753190
vt -1.17760000 0.20203800
vt -1.13413900 0.28387840
vt -1.28561800 0.42373790
vt -1.27072800 0.46525670
vt -1.15274300 0.29585710
vt -1.12257600 0.37008040
vt -1.12682300 0.27916810
vt -1.09431600 0.35915050
vt -1.16739100 0.38741270
vt -1.14358000 0.44839560
vt -1.32093000 0.46959020
vt -1.31609800 0.50579110
vt -1.33819900 0.50500900
vt -1.34137100 0.53858690
vt -1.08642500 0.35609890
vt -1.05657900 0.43253970
vt -1.04572700 0.43006880
vt -1.02623200 0.50703220
vt -1.31882200 0.54289390
vt -1.32880800 0.57965840
vt -1.26414000 0.55332990
vt -1.35099600 0.57107250
vt -1.36681800 0.60121790
vt -1.26264000 0.50788410
vt -1.19408200 0.50992820
vt -1.20603400 0.45819990
vt -1.03773800 0.51046600
vt -1.03759500 0.59651300
vt -1.04658800 0.51047560
vt -1.02739600 0.59665260
vt -1.04625900 0.68885730
vt -1.06505700 0.43408490
vt -1.07362800 0.43564690
vt -1.10229200 0.36223530
vt -1.09542500 0.43961930
vt -1.07828500 0.51050960
vt -1.05553400 0.51048520
vt -1.05539700 0.59312240
vt -1.04644800 0.59482690
vt -1.06388300 0.68544640
vt -1.12854900 0.51056370
vt -1.12843500 0.57921020
vt -1.05538100 0.68895410
vt -1.09032700 0.78606250
vt -1.08321100 0.78807810
vt -1.13776500 0.87121840
vt -1.07815500 0.58878750
vt -1.09433500 0.67288190
vt -1.19438200 0.56664100
vt -1.20643200 0.62713030
vt -1.07247800 0.68190010
vt -1.10603900 0.77516030
vt -1.09814100 0.78064100
vt -1.15058700 0.85945060
vt -1.14262500 0.65295790
vt -1.17050400 0.73042890
vt -1.27484400 0.60040150
vt -1.29436800 0.64790660
vt -1.14382800 0.86645640
vt -1.21727700 0.90875380
vt -1.21285800 0.91752470
vt -1.29901000 0.94259630
vt -1.12612600 0.76122220
vt -1.17479600 0.83435730
vt -1.34576100 0.61484420
vt -1.36924400 0.64518810
vt -1.38817500 0.62758200
vt -1.41440500 0.64872340
vt -1.15742000 0.85236820
vt -1.22795800 0.89298950
vt -1.22258900 0.90091450
vt -1.30633800 0.92401000
vt -1.30271000 0.93231360
vt -1.39216100 0.95649470
vt -1.39083700 0.96592850
vt -1.48300700 0.98038360
vt -1.39881700 0.66742680
vt -1.43270600 0.68311610
vt -1.36046300 0.71252430
vt -1.44432600 0.66432630
vt -1.47675500 0.67407440
vt -1.32285800 0.68792200
vt -1.26505200 0.74256350
vt -1.22973200 0.69018790
vt -1.21318600 0.79456540
vt -1.27178200 0.82830950
vt -1.31316500 0.77100720
vt -1.36905600 0.78731740
vt -1.40391700 0.72809610
vt -1.44995000 0.74101970
vt -1.24161300 0.87283560
vt -1.31933200 0.89426830
vt -1.46913800 0.69381200
vt -1.50655000 0.69779600
vt -1.51038600 0.67746470
vt -1.54391600 0.67399420
vt -1.33993800 0.84710510
vt -1.41130100 0.86639630
vt -1.31000500 0.91561580
vt -1.39591100 0.93883850
vt -1.42771000 0.80329290
vt -1.48613200 0.81055680
vt -1.49636300 0.74645760
vt -1.54095100 0.73957190
vt -1.40070700 0.91626600
vt -1.48151800 0.92645730
vt -1.39402600 0.94771440
vt -1.48110700 0.95869650
vt -1.54337900 0.69334880
vt -1.57938900 0.68203140
vt -1.57627100 0.66413840
vt -1.60637700 0.64837330
vt -1.48216900 0.87533370
vt -1.54884400 0.86306810
vt -1.48099300 0.96769740
vt -1.56456800 0.95232270
vt -1.56687000 0.96178890
vt -1.65247000 0.93200540
vt -1.54132800 0.80073210
vt -1.59765000 0.78132200
vt -1.58566600 0.72470650
vt -1.63246100 0.70620470
vt -1.61434800 0.66540440
vt -1.64543400 0.64283290
vt -1.63287000 0.62717420
vt -1.65438400 0.60101670
vt -1.65022000 0.92254630
vt -1.74528300 0.89054360
vt -1.64700000 0.91443510
vt -1.74922700 0.89845590
vt -1.83874000 0.85103360
vt -1.56303600 0.94362500
vt -1.56148700 0.93483200
vt -1.48122300 0.94959740
vt -1.55754700 0.91247090
vt -1.63546600 0.88538290
vt -1.64374500 0.90623540
vt -1.73504000 0.87550090
vt -1.74018900 0.88306300
vt -1.82555200 0.83866010
vt -1.61717500 0.83931290
vt -1.69301400 0.81378190
vt -1.83236100 0.84524790
vt -1.89406300 0.77559290
vt -1.90143600 0.77989900
vt -1.94439700 0.69313750
vt -1.72194500 0.85626960
vt -1.80116100 0.81506380
vt -1.65945100 0.75982950
vt -1.71593000 0.72954540
vt -1.81866800 0.83200030
vt -1.87792400 0.76510550
vt -1.88603700 0.77037780
vt -1.92670100 0.68725360
vt -1.76248400 0.77764590
vt -1.81170800 0.72207650
vt -1.67479700 0.68056180
vt -1.70613300 0.64427320
vt -1.93554400 0.69079770
vt -1.96196400 0.60008210
vt -1.97166300 0.60024010
vt -1.97612500 0.50166210
vt -1.85729100 0.75169800
vt -1.89502800 0.67455910
vt -1.66982800 0.61368160
vt -1.68750700 0.57986320
vt -1.67033200 0.57110800
vt -1.68012300 0.53865550
vt -1.91776200 0.68367070
vt -1.94313400 0.59654990
vt -1.95260000 0.59832560
vt -1.95652100 0.50795400
vt -1.96596300 0.50789380
vt -1.94018500 0.41868120
vt -1.94778800 0.40997470
vt -1.90560100 0.32664740
vt -1.69845200 0.54329040
vt -1.70163600 0.50550560
vt -1.74162500 0.55456850
vt -1.68337500 0.50495960
vt -1.72792400 0.60104140
vt -1.78359500 0.62826190
vt -1.69603300 0.46805130
vt -1.74456300 0.50699150
vt -1.80094500 0.56883170
vt -1.75628400 0.68376150
vt -1.84480100 0.65442870
vt -1.91906200 0.59203410
vt -1.94697500 0.50801490
vt -1.93125000 0.42049950
vt -1.89862100 0.33348240
vt -1.01165300 0.97262740
vt -1.01103500 0.97506680
vt -1.01264400 0.97017690
vt -1.01518700 0.96477420
vt -1.01369000 0.96756300
vt -1.01107200 0.97790730
vt -1.04013600 0.98096550
vt -1.01730500 0.96191190
vt -1.01167000 0.98082980
vt -1.02257200 0.95948320
vt -1.01987400 0.95988980
vt -1.02536400 0.96002840
vt -1.02808100 0.96069670
vt -1.03344200 0.96290550
vt -1.03076900 0.96162870
vt -1.03752300 0.96679490
vt -1.03578700 0.96460010
vt -1.03890700 0.96934950
vt -1.04114200 0.97489660
vt -1.04024400 0.97199050
vt -1.04100000 0.97802110
vt -1.03678700 0.98596990
vt -1.03877500 0.98371530
vt -1.03088400 0.98853640
vt -1.03395000 0.98747300
vt -1.02259100 0.98961160
vt -1.02817000 0.98948040
vt -1.02551200 0.99006990
vt -1.01284100 0.98397470
vt -1.01695000 0.98807750
vt -1.01457000 0.98660980
vt -1.01968100 0.98887210
f 3/3/3 2/2/2 1/1/1
f 4/4/4 3/3/3 1/1/1
f 3/3/3 4/4/4 5/5/5
f 6/6/6 3/3/3 5/5/5
f 7/7/7 6/6/6 5/5/5
f 8/8/8 7/7/7 5/5/5
f 7/7/7 8/8/8 9/9/9
f 10/10/10 7/7/7 9/9/9
f 11/11/11 10/10/10 9/9/9
f 12/12/12 11/11/11 9/9/9
f 11/11/11 12/12/12 13/13/13
f 14/14/14 11/11/11 13/13/13
f 2/2/2 15/15/15 1/1/1
f 15/15/15 16/16/16 1/1/1
f 16/16/16 15/15/15 17/17/17
f 16/16/16 18/18/18 1/1/1
f 18/18/18 16/16/16 17/17/17
f 15/15/15 19/19/19 17/17/17
f 19/19/19 20/20/20 17/17/17
f 18/18/18 21/21/21 1/1/1
f 21/21/21 22/22/22 1/1/1
f 21/21/21 18/18/18 23/23/23
f 22/22/22 21/21/21 23/23/23
f 22/22/22 4/4/4 1/1/1
f 4/4/4 22/22/22 5/5/5
f 20/20/20 24/24/24 17/17/17
f 24/24/24 20/20/20 25/25/25
f 24/24/24 26/26/26 17/17/17
f 26/26/26 24/24/24 25/25/25
f 20/20/20 27/27/27 25/25/25
f 27/27/27 28/28/28 25/25/25
f 29/29/29 18/18/18 17/17/17
f 26/26/26 29/29/29 17/17/17
f 18/18/18 29/29/29 30/30/30
f 29/29/29 26/26/26 30/30/30
f 18/18/18 31/31/31 23/23/23
f 31/31/31 18/18/18 30/30/30
f 31/31/31 32/32/32 23/23/23
f 32/32/32 31/31/31 30/30/30
f 22/22/22 33/33/33 5/5/5
f 33/33/33 34/34/34 5/5/5
f 33/33/33 22/22/22 35/35/35
f 34/34/34 33/33/33 35/35/35
f 34/34/34 8/8/8 5/5/5
f 8/8/8 34/34/34 9/9/9
f 36/36/36 22/22/22 23/23/23
f 22/22/22 36/36/36 35/35/35
f 37/37/37 36/36/36 23/23/23
f 36/36/36 37/37/37 35/35/35
f 32/32/32 38/38/38 23/23/23
f 38/38/38 37/37/37 23/23/23
f 38/38/38 32/32/32 39/39/39
f 37/37/37 38/38/38 39/39/39
f 34/34/34 40/40/40 9/9/9
f 40/40/40 41/41/41 9/9/9
f 40/40/40 34/34/34 42/42/42
f 41/41/41 40/40/40 42/42/42
f 41/41/41 12/12/12 9/9/9
f 12/12/12 41/41/41 13/13/13
f 43/43/43 34/34/34 35/35/35
f 34/34/34 43/43/43 42/42/42
f 44/44/44 43/43/43 35/35/35
f 43/43/43 44/44/44 42/42/42
f 37/37/37 45/45/45 35/35/35
f 45/45/45 44/44/44 35/35/35
f 45/45/45 37/37/37 46/46/46
f 44/44/44 45/45/45 46/46/46
f 47/47/47 37/37/37 39/39/39
f 37/37/37 47/47/47 46/46/46
f 48/48/48 47/47/47 39/39/39
f 47/47/47 48/48/48 46/46/46
f 41/41/41 49/49/49 13/13/13
f 49/49/49 41/41/41 50/50/50
f 49/49/49 51/51/51 13/13/13
f 51/51/51 49/49/49 50/50/50
f 52/52/52 41/41/41 42/42/42
f 41/41/41 52/52/52 50/50/50
f 53/53/53 52/52/52 42/42/42
f 52/52/52 53/53/53 50/50/50
f 44/44/44 54/54/54 42/42/42
f 54/54/54 53/53/53 42/42/42
f 54/54/54 44/44/44 55/55/55
f 53/53/53 54/54/54 55/55/55
f 56/56/56 44/44/44 46/46/46
f 44/44/44 56/56/56 55/55/55
f 57/57/57 56/56/56 46/46/46
f 56/56/56 57/57/57 55/55/55
f 48/48/48 58/58/58 46/46/46
f 58/58/58 57/57/57 46/46/46
f 58/58/58 48/48/48 59/59/59
f 57/57/57 58/58/58 59/59/59
f 60/60/60 51/51/51 50/50/50
f 61/61/61 60/60/60 50/50/50
f 51/51/51 60/60/60 62/62/62
f 60/60/60 61/61/61 62/62/62
f 53/53/53 63/63/63 50/50/50
f 63/63/63 61/61/61 50/50/50
f 63/63/63 53/53/53 64/64/64
f 61/61/61 63/63/63 64/64/64
f 65/65/65 53/53/53 55/55/55
f 53/53/53 65/65/65 64/64/64
f 66/66/66 65/65/65 55/55/55
f 65/65/65 66/66/66 64/64/64
f 57/57/57 67/67/67 55/55/55
f 67/67/67 66/66/66 55/55/55
f 67/67/67 57/57/57 68/68/68
f 66/66/66 67/67/67 68/68/68
f 69/69/69 57/57/57 59/59/59
f 57/57/57 69/69/69 68/68/68
f 70/70/70 69/69/69 59/59/59
f 69/69/69 70/70/70 68/68/68
f 61/61/61 71/71/71 62/62/62
f 71/71/71 61/61/61 72/72/72
f 71/71/71 73/73/73 62/62/62
f 73/73/73 71/71/71 72/72/72
f 74/74/74 61/61/61 64/64/64
f 61/61/61 74/74/74 72/72/72
f 75/75/75 74/74/74 64/64/64
f 74/74/74 75/75/75 72/72/72
f 66/66/66 76/76/76 64/64/64
f 76/76/76 75/75/75 64/64/64
f 76/76/76 66/66/66 77/77/77
f 75/75/75 76/76/76 77/77/77
f 78/78/78 66/66/66 68/68/68
f 66/66/66 78/78/78 77/77/77
f 79/79/79 78/78/78 68/68/68
f 78/78/78 79/79/79 77/77/77
f 70/70/70 80/80/80 68/68/68
f 80/80/80 79/79/79 68/68/68
f 80/80/80 70/70/70 81/81/81
f 79/79/79 80/80/80 81/81/81
f 70/70/70 82/82/82 81/81/81
f 83/83/83 79/79/79 81/81/81
f 82/82/82 70/70/70 84/84/84
f 79/79/79 83/83/83 85/85/85
f 70/70/70 86/86/86 84/84/84
f 86/86/86 87/87/87 84/84/84
f 86/86/86 70/70/70 59/59/59
f 87/87/87 86/86/86 59/59/59
f 87/87/87 88/88/88 84/84/84
f 88/88/88 87/87/87 89/89/89
f 90/90/90 79/79/79 85/85/85
f 91/91/91 90/90/90 85/85/85
f 79/79/79 90/90/90 77/77/77
f 90/90/90 91/91/91 77/77/77
f 92/92/92 91/91/91 85/85/85
f 91/91/91 92/92/92 93/93/93
f 94/94/94 87/87/87 59/59/59
f 87/87/87 94/94/94 95/95/95
f 48/48/48 94/94/94 59/59/59
f 94/94/94 48/48/48 95/95/95
f 87/87/87 96/96/96 89/89/89
f 96/96/96 87/87/87 95/95/95
f 96/96/96 97/97/97 89/89/89
f 97/97/97 96/96/96 95/95/95
f 97/97/97 98/98/98 89/89/89
f 98/98/98 97/97/97 99/99/99
f 91/91/91 100/100/100 77/77/77
f 100/100/100 91/91/91 101/101/101
f 100/100/100 75/75/75 77/77/77
f 75/75/75 100/100/100 101/101/101
f 48/48/48 102/102/102 95/95/95
f 102/102/102 103/103/103 95/95/95
f 102/102/102 48/48/48 39/39/39
f 103/103/103 102/102/102 39/39/39
f 104/104/104 97/97/97 95/95/95
f 103/103/103 104/104/104 95/95/95
f 97/97/97 104/104/104 105/105/105
f 104/104/104 103/103/103 105/105/105
f 97/97/97 106/106/106 99/99/99
f 106/106/106 97/97/97 105/105/105
f 106/106/106 107/107/107 99/99/99
f 107/107/107 106/106/106 105/105/105
f 107/107/107 108/108/108 99/99/99
f 108/108/108 107/107/107 109/109/109
f 110/110/110 75/75/75 101/101/101
f 111/111/111 110/110/110 101/101/101
f 75/75/75 110/110/110 72/72/72
f 110/110/110 111/111/111 72/72/72
f 111/111/111 112/112/112 72/72/72
f 112/112/112 111/111/111 113/113/113
f 112/112/112 73/73/73 72/72/72
f 73/73/73 112/112/112 113/113/113
f 107/107/107 114/114/114 109/109/109
f 114/114/114 115/115/115 109/109/109
f 114/114/114 107/107/107 116/116/116
f 115/115/115 114/114/114 116/116/116
f 115/115/115 117/117/117 109/109/109
f 117/117/117 115/115/115 118/118/118
f 107/107/107 119/119/119 116/116/116
f 119/119/119 120/120/120 116/116/116
f 119/119/119 107/107/107 105/105/105
f 120/120/120 119/119/119 105/105/105
f 121/121/121 120/120/120 105/105/105
f 120/120/120 121/121/121 122/122/122
f 103/103/103 121/121/121 105/105/105
f 121/121/121 103/103/103 122/122/122
f 103/103/103 123/123/123 122/122/122
f 123/123/123 103/103/103 39/39/39
f 32/32/32 123/123/123 39/39/39
f 123/123/123 32/32/32 122/122/122
f 32/32/32 124/124/124 122/122/122
f 124/124/124 125/125/125 122/122/122
f 124/124/124 32/32/32 30/30/30
f 125/125/125 124/124/124 30/30/30
f 126/126/126 120/120/120 122/122/122
f 125/125/125 126/126/126 122/122/122
f 120/120/120 126/126/126 127/127/127
f 126/126/126 125/125/125 127/127/127
f 120/120/120 128/128/128 116/116/116
f 128/128/128 120/120/120 127/127/127
f 128/128/128 129/129/129 116/116/116
f 129/129/129 128/128/128 127/127/127
f 130/130/130 125/125/125 30/30/30
f 125/125/125 130/130/130 131/131/131
f 26/26/26 130/130/130 30/30/30
f 130/130/130 26/26/26 131/131/131
f 129/129/129 132/132/132 116/116/116
f 132/132/132 129/129/129 133/133/133
f 132/132/132 115/115/115 116/116/116
f 115/115/115 132/132/132 133/133/133
f 125/125/125 134/134/134 127/127/127
f 134/134/134 125/125/125 131/131/131
f 134/134/134 135/135/135 127/127/127
f 135/135/135 134/134/134 131/131/131
f 26/26/26 136/136/136 131/131/131
f 136/136/136 137/137/137 131/131/131
f 136/136/136 26/26/26 25/25/25
f 137/137/137 136/136/136 25/25/25
f 138/138/138 129/129/129 127/127/127
f 135/135/135 138/138/138 127/127/127
f 129/129/129 138/138/138 139/139/139
f 138/138/138 135/135/135 139/139/139
f 140/140/140 115/115/115 133/133/133
f 141/141/141 140/140/140 133/133/133
f 115/115/115 140/140/140 118/118/118
f 140/140/140 141/141/141 118/118/118
f 141/141/141 142/142/142 118/118/118
f 142/142/142 141/141/141 143/143/143
f 144/144/144 137/137/137 25/25/25
f 137/137/137 144/144/144 145/145/145
f 28/28/28 144/144/144 25/25/25
f 144/144/144 28/28/28 145/145/145
f 28/28/28 146/146/146 145/145/145
f 146/146/146 147/147/147 145/145/145
f 141/141/141 148/148/148 143/143/143
f 148/148/148 149/149/149 143/143/143
f 148/148/148 141/141/141 150/150/150
f 149/149/149 148/148/148 150/150/150
f 149/149/149 151/151/151 143/143/143
f 151/151/151 149/149/149 152/152/152
f 141/141/141 153/153/153 150/150/150
f 153/153/153 154/154/154 150/150/150
f 153/153/153 141/141/141 133/133/133
f 154/154/154 153/153/153 133/133/133
f 155/155/155 154/154/154 133/133/133
f 129/129/129 155/155/155 133/133/133
f 155/155/155 129/129/129 139/139/139
f 154/154/154 155/155/155 139/139/139
f 147/147/147 156/156/156 145/145/145
f 156/156/156 147/147/147 157/157/157
f 156/156/156 158/158/158 145/145/145
f 158/158/158 156/156/156 157/157/157
f 147/147/147 159/159/159 157/157/157
f 159/159/159 160/160/160 157/157/157
f 158/158/158 161/161/161 145/145/145
f 161/161/161 158/158/158 162/162/162
f 161/161/161 137/137/137 145/145/145
f 137/137/137 161/161/161 162/162/162
f 163/163/163 137/137/137 162/162/162
f 137/137/137 163/163/163 131/131/131
f 163/163/163 135/135/135 131/131/131
f 135/135/135 163/163/163 162/162/162
f 135/135/135 164/164/164 139/139/139
f 164/164/164 135/135/135 162/162/162
f 164/164/164 165/165/165 139/139/139
f 165/165/165 164/164/164 162/162/162
f 158/158/158 166/166/166 162/162/162
f 166/166/166 165/165/165 162/162/162
f 166/166/166 158/158/158 167/167/167
f 165/165/165 166/166/166 167/167/167
f 168/168/168 158/158/158 157/157/157
f 158/158/158 168/168/168 167/167/167
f 169/169/169 168/168/168 157/157/157
f 168/168/168 169/169/169 167/167/167
f 165/165/165 170/170/170 139/139/139
f 170/170/170 165/165/165 171/171/171
f 170/170/170 154/154/154 139/139/139
f 154/154/154 170/170/170 171/171/171
f 172/172/172 169/169/169 157/157/157
f 169/169/169 172/172/172 173/173/173
f 160/160/160 172/172/172 157/157/157
f 172/172/172 160/160/160 173/173/173
f 160/160/160 174/174/174 173/173/173
f 174/174/174 175/175/175 173/173/173
f 176/176/176 165/165/165 167/167/167
f 165/165/165 176/176/176 171/171/171
f 177/177/177 176/176/176 167/167/167
f 176/176/176 177/177/177 171/171/171
f 178/178/178 154/154/154 171/171/171
f 179/179/179 178/178/178 171/171/171
f 154/154/154 178/178/178 150/150/150
f 178/178/178 179/179/179 150/150/150
f 169/169/169 180/180/180 167/167/167
f 180/180/180 177/177/177 167/167/167
f 180/180/180 169/169/169 181/181/181
f 177/177/177 180/180/180 181/181/181
f 182/182/182 169/169/169 173/173/173
f 169/169/169 182/182/182 181/181/181
f 183/183/183 182/182/182 173/173/173
f 182/182/182 183/183/183 181/181/181
f 184/184/184 179/179/179 171/171/171
f 177/177/177 184/184/184 171/171/171
f 184/184/184 177/177/177 185/185/185
f 179/179/179 184/184/184 185/185/185
f 179/179/179 186/186/186 150/150/150
f 186/186/186 179/179/179 187/187/187
f 186/186/186 149/149/149 150/150/150
f 149/149/149 186/186/186 187/187/187
f 188/188/188 183/183/183 173/173/173
f 183/183/183 188/188/188 189/189/189
f 175/175/175 188/188/188 173/173/173
f 188/188/188 175/175/175 189/189/189
f 175/175/175 190/190/190 189/189/189
f 190/190/190 191/191/191 189/189/189
f 177/177/177 192/192/192 185/185/185
f 192/192/192 193/193/193 185/185/185
f 192/192/192 177/177/177 181/181/181
f 193/193/193 192/192/192 181/181/181
f 194/194/194 149/149/149 187/187/187
f 195/195/195 194/194/194 187/187/187
f 149/149/149 194/194/194 152/152/152
f 194/194/194 195/195/195 152/152/152
f 195/195/195 196/196/196 152/152/152
f 196/196/196 195/195/195 197/197/197
f 198/198/198 193/193/193 181/181/181
f 193/193/193 198/198/198 199/199/199
f 183/183/183 198/198/198 181/181/181
f 198/198/198 183/183/183 199/199/199
f 183/183/183 200/200/200 199/199/199
f 200/200/200 201/201/201 199/199/199
f 200/200/200 183/183/183 189/189/189
f 201/201/201 200/200/200 189/189/189
f 202/202/202 201/201/201 189/189/189
f 201/201/201 202/202/202 203/203/203
f 191/191/191 202/202/202 189/189/189
f 202/202/202 191/191/191 203/203/203
f 191/191/191 204/204/204 203/203/203
f 204/204/204 205/205/205 203/203/203
f 195/195/195 206/206/206 197/197/197
f 206/206/206 207/207/207 197/197/197
f 206/206/206 195/195/195 208/208/208
f 207/207/207 206/206/206 208/208/208
f 207/207/207 209/209/209 197/197/197
f 209/209/209 207/207/207 210/210/210
f 195/195/195 211/211/211 208/208/208
f 211/211/211 212/212/212 208/208/208
f 211/211/211 195/195/195 187/187/187
f 212/212/212 211/211/211 187/187/187
f 213/213/213 212/212/212 187/187/187
f 179/179/179 213/213/213 187/187/187
f 213/213/213 179/179/179 185/185/185
f 212/212/212 213/213/213 185/185/185
f 214/214/214 212/212/212 185/185/185
f 212/212/212 214/214/214 215/215/215
f 193/193/193 214/214/214 185/185/185
f 214/214/214 193/193/193 215/215/215
f 212/212/212 216/216/216 208/208/208
f 216/216/216 212/212/212 215/215/215
f 216/216/216 217/217/217 208/208/208
f 217/217/217 216/216/216 215/215/215
f 218/218/218 207/207/207 208/208/208
f 217/217/217 218/218/218 208/208/208
f 207/207/207 218/218/218 219/219/219
f 218/218/218 217/217/217 219/219/219
f 193/193/193 220/220/220 215/215/215
f 220/220/220 221/221/221 215/215/215
f 220/220/220 193/193/193 199/199/199
f 221/221/221 220/220/220 199/199/199
f 222/222/222 207/207/207 219/219/219
f 223/223/223 222/222/222 219/219/219
f 207/207/207 222/222/222 210/210/210
f 222/222/222 223/223/223 210/210/210
f 223/223/223 224/224/224 210/210/210
f 224/224/224 223/223/223 225/225/225
f 226/226/226 217/217/217 215/215/215
f 221/221/221 226/226/226 215/215/215
f 217/217/217 226/226/226 227/227/227
f 226/226/226 221/221/221 227/227/227
f 228/228/228 221/221/221 199/199/199
f 221/221/221 228/228/228 229/229/229
f 201/201/201 228/228/228 199/199/199
f 228/228/228 201/201/201 229/229/229
f 217/217/217 230/230/230 219/219/219
f 230/230/230 217/217/217 227/227/227
f 230/230/230 231/231/231 219/219/219
f 231/231/231 230/230/230 227/227/227
f 232/232/232 223/223/223 219/219/219
f 231/231/231 232/232/232 219/219/219
f 223/223/223 232/232/232 233/233/233
f 232/232/232 231/231/231 233/233/233
f 221/221/221 234/234/234 227/227/227
f 234/234/234 221/221/221 229/229/229
f 234/234/234 235/235/235 227/227/227
f 235/235/235 234/234/234 229/229/229
f 201/201/201 236/236/236 229/229/229
f 236/236/236 237/237/237 229/229/229
f 236/236/236 201/201/201 203/203/203
f 237/237/237 236/236/236 203/203/203
f 238/238/238 223/223/223 233/233/233
f 239/239/239 238/238/238 233/233/233
f 223/223/223 238/238/238 225/225/225
f 238/238/238 239/239/239 225/225/225
f 239/239/239 240/240/240 225/225/225
f 240/240/240 239/239/239 241/241/241
f 235/235/235 242/242/242 227/227/227
f 242/242/242 235/235/235 243/243/243
f 242/242/242 231/231/231 227/227/227
f 231/231/231 242/242/242 243/243/243
f 244/244/244 237/237/237 203/203/203
f 237/237/237 244/244/244 245/245/245
f 205/205/205 244/244/244 203/203/203
f 244/244/244 205/205/205 245/245/245
f 205/205/205 246/246/246 245/245/245
f 246/246/246 247/247/247 245/245/245
f 248/248/248 231/231/231 243/243/243
f 249/249/249 248/248/248 243/243/243
f 231/231/231 248/248/248 233/233/233
f 248/248/248 249/249/249 233/233/233
f 249/249/249 250/250/250 233/233/233
f 250/250/250 249/249/249 251/251/251
f 250/250/250 239/239/239 233/233/233
f 239/239/239 250/250/250 251/251/251
f 252/252/252 239/239/239 251/251/251
f 253/253/253 252/252/252 251/251/251
f 239/239/239 252/252/252 241/241/241
f 252/252/252 253/253/253 241/241/241
f 253/253/253 254/254/254 241/241/241
f 254/254/254 253/253/253 255/255/255
f 247/247/247 256/256/256 245/245/245
f 256/256/256 247/247/247 257/257/257
f 256/256/256 258/258/258 245/245/245
f 258/258/258 256/256/256 257/257/257
f 247/247/247 259/259/259 257/257/257
f 259/259/259 260/260/260 257/257/257
f 258/258/258 261/261/261 245/245/245
f 261/261/261 258/258/258 262/262/262
f 261/261/261 237/237/237 245/245/245
f 237/237/237 261/261/261 262/262/262
f 263/263/263 237/237/237 262/262/262
f 237/237/237 263/263/263 229/229/229
f 263/263/263 235/235/235 229/229/229
f 235/235/235 263/263/263 262/262/262
f 264/264/264 235/235/235 262/262/262
f 265/265/265 264/264/264 262/262/262
f 235/235/235 264/264/264 243/243/243
f 264/264/264 265/265/265 243/243/243
f 258/258/258 266/266/266 262/262/262
f 266/266/266 265/265/265 262/262/262
f 266/266/266 258/258/258 267/267/267
f 265/265/265 266/266/266 267/267/267
f 268/268/268 258/258/258 257/257/257
f 258/258/258 268/268/268 267/267/267
f 269/269/269 268/268/268 257/257/257
f 268/268/268 269/269/269 267/267/267
f 265/265/265 270/270/270 243/243/243
f 270/270/270 265/265/265 271/271/271
f 270/270/270 249/249/249 243/243/243
f 249/249/249 270/270/270 271/271/271
f 272/272/272 269/269/269 257/257/257
f 269/269/269 272/272/272 273/273/273
f 260/260/260 272/272/272 257/257/257
f 272/272/272 260/260/260 273/273/273
f 260/260/260 274/274/274 273/273/273
f 274/274/274 275/275/275 273/273/273
f 276/276/276 265/265/265 267/267/267
f 265/265/265 276/276/276 271/271/271
f 277/277/277 276/276/276 267/267/267
f 276/276/276 277/277/277 271/271/271
f 278/278/278 249/249/249 271/271/271
f 279/279/279 278/278/278 271/271/271
f 249/249/249 278/278/278 251/251/251
f 278/278/278 279/279/279 251/251/251
f 269/269/269 280/280/280 267/267/267
f 280/280/280 277/277/277 267/267/267
f 280/280/280 269/269/269 281/281/281
f 277/277/277 280/280/280 281/281/281
f 282/282/282 269/269/269 273/273/273
f 269/269/269 282/282/282 281/281/281
f 283/283/283 282/282/282 273/273/273
f 282/282/282 283/283/283 281/281/281
f 284/284/284 279/279/279 271/271/271
f 277/277/277 284/284/284 271/271/271
f 284/284/284 277/277/277 285/285/285
f 279/279/279 284/284/284 285/285/285
f 279/279/279 286/286/286 251/251/251
f 286/286/286 279/279/279 287/287/287
f 286/286/286 253/253/253 251/251/251
f 253/253/253 286/286/286 287/287/287
f 288/288/288 283/283/283 273/273/273
f 283/283/283 288/288/288 289/289/289
f 275/275/275 288/288/288 273/273/273
f 288/288/288 275/275/275 289/289/289
f 275/275/275 290/290/290 289/289/289
f 290/290/290 291/291/291 289/289/289
f 277/277/277 292/292/292 285/285/285
f 292/292/292 293/293/293 285/285/285
f 292/292/292 277/277/277 281/281/281
f 293/293/293 292/292/292 281/281/281
f 294/294/294 253/253/253 287/287/287
f 295/295/295 294/294/294 287/287/287
f 253/253/253 294/294/294 255/255/255
f 294/294/294 295/295/295 255/255/255
f 295/295/295 296/296/296 255/255/255
f 296/296/296 295/295/295 297/297/297
f 298/298/298 293/293/293 281/281/281
f 293/293/293 298/298/298 299/299/299
f 283/283/283 298/298/298 281/281/281
f 298/298/298 283/283/283 299/299/299
f 283/283/283 300/300/300 299/299/299
f 300/300/300 301/301/301 299/299/299
f 300/300/300 283/283/283 289/289/289
f 301/301/301 300/300/300 289/289/289
f 302/302/302 301/301/301 289/289/289
f 301/301/301 302/302/302 303/303/303
f 291/291/291 302/302/302 289/289/289
f 302/302/302 291/291/291 303/303/303
f 291/291/291 304/304/304 303/303/303
f 304/304/304 305/305/305 303/303/303
f 295/295/295 306/306/306 297/297/297
f 306/306/306 307/307/307 297/297/297
f 306/306/306 295/295/295 308/308/308
f 307/307/307 306/306/306 308/308/308
f 307/307/307 309/309/309 297/297/297
f 309/309/309 307/307/307 93/93/93
f 295/295/295 310/310/310 308/308/308
f 310/310/310 311/311/311 308/308/308
f 310/310/310 295/295/295 287/287/287
f 311/311/311 310/310/310 287/287/287
f 307/307/307 312/312/312 93/93/93
f 312/312/312 91/91/91 93/93/93
f 91/91/91 312/312/312 101/101/101
f 312/312/312 307/307/307 101/101/101
f 307/307/307 313/313/313 101/101/101
f 313/313/313 307/307/307 308/308/308
f 313/313/313 111/111/111 101/101/101
f 111/111/111 313/313/313 308/308/308
f 314/314/314 111/111/111 308/308/308
f 311/311/311 314/314/314 308/308/308
f 111/111/111 314/314/314 113/113/113
f 314/314/314 311/311/311 113/113/113
f 315/315/315 311/311/311 287/287/287
f 279/279/279 315/315/315 287/287/287
f 315/315/315 279/279/279 285/285/285
f 311/311/311 315/315/315 285/285/285
f 316/316/316 311/311/311 285/285/285
f 311/311/311 316/316/316 113/113/113
f 293/293/293 316/316/316 285/285/285
f 316/316/316 293/293/293 113/113/113
f 293/293/293 317/317/317 113/113/113
f 317/317/317 73/73/73 113/113/113
f 317/317/317 293/293/293 299/299/299
f 73/73/73 317/317/317 299/299/299
f 318/318/318 73/73/73 299/299/299
f 301/301/301 318/318/318 299/299/299
f 73/73/73 318/318/318 62/62/62
f 318/318/318 301/301/301 62/62/62
f 301/301/301 319/319/319 62/62/62
f 319/319/319 51/51/51 62/62/62
f 319/319/319 301/301/301 303/303/303
f 51/51/51 319/319/319 303/303/303
f 320/320/320 51/51/51 303/303/303
f 305/305/305 320/320/320 303/303/303
f 51/51/51 320/320/320 13/13/13
f 320/320/320 305/305/305 13/13/13
f 305/305/305 14/14/14 13/13/13
f 323/323/323 322/322/322 321/321/321
f 324/324/324 322/322/322 323/323/323
f 324/324/324 323/323/323 325/325/325
f 324/324/324 326/326/326 322/322/322
f 324/324/324 327/327/327 326/326/326
f 328/328/328 327/327/327 324/324/324
f 326/326/326 327/327/327 329/329/329
f 330/330/330 327/327/327 328/328/328
f 330/330/330 328/328/328 331/331/331
f 332/332/332 327/327/327 330/330/330
f 333/333/333 327/327/327 332/332/332
f 334/334/334 327/327/327 333/333/333
f 334/334/334 333/333/333 335/335/335
f 336/336/336 327/327/327 334/334/334
f 336/336/336 334/334/334 337/337/337
f 338/338/338 327/327/327 336/336/336
f 339/339/339 327/327/327 338/338/338
f 339/339/339 338/338/338 340/340/340
f 327/327/327 339/339/339 341/341/341
f 329/329/329 327/327/327 342/342/342
f 342/342/342 327/327/327 343/343/343
f 329/329/329 342/342/342 344/344/344
f 344/344/344 342/342/342 345/345/345
f 329/329/329 344/344/344 346/346/346
f 346/346/346 344/344/344 347/347/347
f 346/346/346 347/347/347 348/348/348
f 329/329/329 346/346/346 349/349/349
f 349/349/349 346/346/346 350/350/350
f 349/349/349 350/350/350 351/351/351
f 350/350/350 346/346/346 352/352/352

