mtllib DomeLight_df16e0f3.mtl
g DomeLight_df16e0f3
v 0.86821 2.4485 -0.55467
v 0.825 2.4485 -0.56035
v 0.825 2.43751 -0.55494
v 0.8668 2.43751 -0.54943
v 0.90846 2.4485 -0.53799
v 0.78321 2.43751 -0.54943
v 0.7818 2.4485 -0.55467
v 0.90576 2.43751 -0.5333
v 0.94303 2.4485 -0.51146
v 0.74425 2.43751 -0.5333
v 0.74155 2.4485 -0.53799
v 0.9392 2.43751 -0.50764
v 0.96956 2.4485 -0.47689
v 0.71081 2.43751 -0.50764
v 0.70698 2.4485 -0.51146
v 0.96487 2.43751 -0.47419
v 0.98623 2.4485 -0.43664
v 0.68514 2.43751 -0.47419
v 0.68045 2.4485 -0.47689
v 0.981 2.43751 -0.43524
v 0.99192 2.4485 -0.39344
v 0.66901 2.43751 -0.43524
v 0.66378 2.4485 -0.43664
v 0.98651 2.43751 -0.39344
v 0.98623 2.4485 -0.35023
v 0.6635 2.43751 -0.39344
v 0.65809 2.4485 -0.39344
v 0.981 2.43751 -0.35164
v 0.96956 2.4485 -0.30998
v 0.66901 2.43751 -0.35164
v 0.66378 2.4485 -0.35023
v 0.96487 2.43751 -0.31269
v 0.94303 2.4485 -0.27541
v 0.68514 2.43751 -0.31269
v 0.68045 2.4485 -0.30998
v 0.9392 2.43751 -0.27924
v 0.90846 2.4485 -0.24888
v 0.71081 2.43751 -0.27924
v 0.70698 2.4485 -0.27541
v 0.90576 2.43751 -0.25357
v 0.86821 2.4485 -0.23221
v 0.74425 2.43751 -0.25357
v 0.74155 2.4485 -0.24888
v 0.8668 2.43751 -0.23744
v 0.825 2.4485 -0.22652
v 0.78321 2.43751 -0.23744
v 0.7818 2.4485 -0.23221
v 0.825 2.43751 -0.23193
v 0.70146 2.41159 -0.3221
v 0.72413 2.41159 -0.29256
v 0.75367 2.41159 -0.26989
v 0.78808 2.41159 -0.25563
v 0.825 2.41159 -0.25077
v 0.86193 2.41159 -0.25563
v 0.6872 2.41159 -0.35651
v 0.89634 2.41159 -0.26989
v 0.68234 2.41159 -0.39344
v 0.92588 2.41159 -0.29256
v 0.6872 2.41159 -0.43036
v 0.94855 2.41159 -0.3221
v 0.70146 2.41159 -0.46477
v 0.96281 2.41159 -0.35651
v 0.72413 2.41159 -0.49431
v 0.96767 2.41159 -0.39344
v 0.75367 2.41159 -0.51699
v 0.96281 2.41159 -0.43036
v 0.78808 2.41159 -0.53124
v 0.94855 2.41159 -0.46477
v 0.825 2.41159 -0.5361
v 0.92588 2.41159 -0.49431
v 0.86193 2.41159 -0.53124
v 0.89634 2.41159 -0.51699
v 0.79494 2.3899 -0.50566
v 0.825 2.3899 -0.50962
v 0.85507 2.3899 -0.50566
v 0.8831 2.3899 -0.49405
v 0.90716 2.3899 -0.47559
v 0.92562 2.3899 -0.45153
v 0.76691 2.3899 -0.49405
v 0.93723 2.3899 -0.42351
v 0.74285 2.3899 -0.47559
v 0.94119 2.3899 -0.39344
v 0.72439 2.3899 -0.45153
v 0.93723 2.3899 -0.36337
v 0.71278 2.3899 -0.42351
v 0.92562 2.3899 -0.33535
v 0.70882 2.3899 -0.39344
v 0.90716 2.3899 -0.31128
v 0.71278 2.3899 -0.36337
v 0.8831 2.3899 -0.29282
v 0.72439 2.3899 -0.33535
v 0.85507 2.3899 -0.28121
v 0.74285 2.3899 -0.31128
v 0.825 2.3899 -0.27726
v 0.76691 2.3899 -0.29282
v 0.79494 2.3899 -0.28121
v 0.74218 2.37553 -0.37124
v 0.75075 2.37553 -0.35056
v 0.76437 2.37553 -0.3328
v 0.78213 2.37553 -0.31918
v 0.80281 2.37553 -0.31061
v 0.825 2.37553 -0.30769
v 0.73926 2.37553 -0.39344
v 0.8472 2.37553 -0.31061
v 0.74218 2.37553 -0.41563
v 0.86788 2.37553 -0.31918
v 0.75075 2.37553 -0.43631
v 0.88564 2.37553 -0.3328
v 0.76437 2.37553 -0.45407
v 0.89926 2.37553 -0.35056
v 0.78213 2.37553 -0.46769
v 0.90783 2.37553 -0.37124
v 0.80281 2.37553 -0.47626
v 0.91075 2.37553 -0.39344
v 0.825 2.37553 -0.47918
v 0.90783 2.37553 -0.41563
v 0.8472 2.37553 -0.47626
v 0.89926 2.37553 -0.43631
v 0.86788 2.37553 -0.46769
v 0.88564 2.37553 -0.45407
v 0.825 2.3705 -0.44722
v 0.83893 2.3705 -0.44539
v 0.81108 2.3705 -0.44539
v 0.8519 2.3705 -0.44002
v 0.79811 2.3705 -0.44002
v 0.86304 2.3705 -0.43147
v 0.78697 2.3705 -0.43147
v 0.87159 2.3705 -0.42033
v 0.77842 2.3705 -0.42033
v 0.87696 2.3705 -0.40736
v 0.77305 2.3705 -0.40736
v 0.87879 2.3705 -0.39344
v 0.77122 2.3705 -0.39344
v 0.87696 2.3705 -0.37951
v 0.77305 2.3705 -0.37951
v 0.87159 2.3705 -0.36654
v 0.77842 2.3705 -0.36654
v 0.86304 2.3705 -0.3554
v 0.78697 2.3705 -0.3554
v 0.8519 2.3705 -0.34685
v 0.79811 2.3705 -0.34685
v 0.83893 2.3705 -0.34148
v 0.81108 2.3705 -0.34148
v 0.825 2.3705 -0.33965
v 0.825 2.5 -0.59344
v 0.77324 2.48 -0.58662
v 0.825 2.48 -0.59344
v 0.77324 2.5 -0.58662
v 0.72501 2.48 -0.56664
v 0.72501 2.5 -0.56664
v 0.68358 2.48 -0.53486
v 0.68358 2.5 -0.53486
v 0.6518 2.48 -0.49344
v 0.6518 2.5 -0.49344
v 0.63182 2.48 -0.4452
v 0.63182 2.5 -0.4452
v 0.625 2.48 -0.39344
v 0.625 2.5 -0.39344
v 0.63182 2.48 -0.34167
v 0.63182 2.5 -0.34167
v 0.6518 2.48 -0.29344
v 0.6518 2.5 -0.29344
v 0.68358 2.48 -0.25201
v 0.68358 2.5 -0.25201
v 0.72501 2.48 -0.22023
v 0.72501 2.5 -0.22023
v 0.77324 2.48 -0.20025
v 0.77324 2.5 -0.20025
v 0.825 2.48 -0.19344
v 0.825 2.5 -0.19344
v 0.87677 2.48 -0.20025
v 0.87677 2.5 -0.20025
v 0.925 2.48 -0.22023
v 0.925 2.5 -0.22023
v 0.96643 2.48 -0.25201
v 0.96643 2.5 -0.25201
v 0.99821 2.48 -0.29344
v 0.99821 2.5 -0.29344
v 1.01819 2.48 -0.34167
v 1.01819 2.5 -0.34167
v 1.025 2.48 -0.39344
v 1.025 2.5 -0.39344
v 1.01819 2.48 -0.4452
v 1.01819 2.5 -0.4452
v 0.99821 2.48 -0.49344
v 0.99821 2.5 -0.49344
v 0.96643 2.48 -0.53486
v 0.96643 2.5 -0.53486
v 0.925 2.48 -0.56664
v 0.925 2.5 -0.56664
v 0.87677 2.48 -0.58662
v 0.87677 2.5 -0.58662
v 0.825 2.48 -0.59344
v 0.825 2.5 -0.59344
v 0.825 2.48 -0.59344
v 0.825 2.465 -0.58153
v 0.87369 2.465 -0.57512
v 0.87677 2.48 -0.58662
v 0.77324 2.48 -0.58662
v 0.91905 2.465 -0.55633
v 0.77632 2.465 -0.57512
v 0.925 2.48 -0.56664
v 0.72501 2.48 -0.56664
v 0.95801 2.465 -0.52644
v 0.73096 2.465 -0.55633
v 0.96643 2.48 -0.53486
v 0.68358 2.48 -0.53486
v 0.9879 2.465 -0.48749
v 0.692 2.465 -0.52644
v 0.99821 2.48 -0.49344
v 0.6518 2.48 -0.49344
v 1.00669 2.465 -0.44212
v 0.66211 2.465 -0.48749
v 1.01819 2.48 -0.4452
v 0.63182 2.48 -0.4452
v 1.0131 2.465 -0.39344
v 0.64332 2.465 -0.44212
v 1.025 2.48 -0.39344
v 0.625 2.48 -0.39344
v 1.00669 2.465 -0.34475
v 0.63691 2.465 -0.39344
v 1.01819 2.48 -0.34167
v 0.63182 2.48 -0.34167
v 0.9879 2.465 -0.29939
v 0.64332 2.465 -0.34475
v 0.99821 2.48 -0.29344
v 0.6518 2.48 -0.29344
v 0.95801 2.465 -0.26043
v 0.66211 2.465 -0.29939
v 0.96643 2.48 -0.25201
v 0.68358 2.48 -0.25201
v 0.91905 2.465 -0.23054
v 0.692 2.465 -0.26043
v 0.925 2.48 -0.22023
v 0.72501 2.48 -0.22023
v 0.87369 2.465 -0.21175
v 0.73096 2.465 -0.23054
v 0.87677 2.48 -0.20025
v 0.77324 2.48 -0.20025
v 0.825 2.465 -0.20534
v 0.77632 2.465 -0.21175
v 0.825 2.48 -0.19344
v 0.87387 2.46263 -0.57581
v 0.825 2.46263 -0.58224
v 0.825 2.44724 -0.56248
v 0.77614 2.46263 -0.57581
v 0.86876 2.44724 -0.55672
v 0.78125 2.44724 -0.55672
v 0.91941 2.46263 -0.55694
v 0.90953 2.44724 -0.53984
v 0.7306 2.46263 -0.55694
v 0.74048 2.44724 -0.53984
v 0.94454 2.44724 -0.51297
v 0.95851 2.46263 -0.52694
v 0.70547 2.44724 -0.51297
v 0.6915 2.46263 -0.52694
v 0.98851 2.46263 -0.48784
v 0.97141 2.44724 -0.47796
v 0.6615 2.46263 -0.48784
v 0.6786 2.44724 -0.47796
v 0.98829 2.44724 -0.43719
v 1.00737 2.46263 -0.4423
v 0.66172 2.44724 -0.43719
v 0.64264 2.46263 -0.4423
v 1.01381 2.46263 -0.39344
v 0.99405 2.44724 -0.39344
v 0.6362 2.46263 -0.39344
v 0.65596 2.44724 -0.39344
v 0.98829 2.44724 -0.34968
v 1.00737 2.46263 -0.34457
v 0.98851 2.46263 -0.29903
v 0.97141 2.44724 -0.30891
v 0.66172 2.44724 -0.34968
v 0.64264 2.46263 -0.34457
v 0.6615 2.46263 -0.29903
v 0.6786 2.44724 -0.30891
v 0.95851 2.46263 -0.25993
v 0.94454 2.44724 -0.2739
v 0.6915 2.46263 -0.25993
v 0.70547 2.44724 -0.2739
v 0.90953 2.44724 -0.24704
v 0.91941 2.46263 -0.22993
v 0.87387 2.46263 -0.21107
v 0.86876 2.44724 -0.23015
v 0.74048 2.44724 -0.24704
v 0.7306 2.46263 -0.22993
v 0.77614 2.46263 -0.21107
v 0.78125 2.44724 -0.23015
v 0.825 2.46263 -0.20463
v 0.825 2.44724 -0.22439
v 0.90846 2.4485 -0.24888
v 0.90953 2.44724 -0.24704
v 0.94454 2.44724 -0.2739
v 0.94303 2.4485 -0.27541
v 0.86821 2.4485 -0.23221
v 0.97141 2.44724 -0.30891
v 0.86876 2.44724 -0.23015
v 0.96956 2.4485 -0.30998
v 0.825 2.4485 -0.22652
v 0.98829 2.44724 -0.34968
v 0.825 2.44724 -0.22439
v 0.98623 2.4485 -0.35023
v 0.7818 2.4485 -0.23221
v 0.99405 2.44724 -0.39344
v 0.78125 2.44724 -0.23015
v 0.99192 2.4485 -0.39344
v 0.74155 2.4485 -0.24888
v 0.98829 2.44724 -0.43719
v 0.74048 2.44724 -0.24704
v 0.98623 2.4485 -0.43664
v 0.70698 2.4485 -0.27541
v 0.97141 2.44724 -0.47796
v 0.70547 2.44724 -0.2739
v 0.96956 2.4485 -0.47689
v 0.68045 2.4485 -0.30998
v 0.94454 2.44724 -0.51297
v 0.6786 2.44724 -0.30891
v 0.94303 2.4485 -0.51146
v 0.66378 2.4485 -0.35023
v 0.90953 2.44724 -0.53984
v 0.66172 2.44724 -0.34968
v 0.90846 2.4485 -0.53799
v 0.65809 2.4485 -0.39344
v 0.86876 2.44724 -0.55672
v 0.65596 2.44724 -0.39344
v 0.86821 2.4485 -0.55467
v 0.66378 2.4485 -0.43664
v 0.825 2.44724 -0.56248
v 0.66172 2.44724 -0.43719
v 0.825 2.4485 -0.56035
v 0.68045 2.4485 -0.47689
v 0.78125 2.44724 -0.55672
v 0.6786 2.44724 -0.47796
v 0.7818 2.4485 -0.55467
v 0.70698 2.4485 -0.51146
v 0.74048 2.44724 -0.53984
v 0.70547 2.44724 -0.51297
v 0.74155 2.4485 -0.53799
v 0.825 2.465 -0.58153
v 0.825 2.46263 -0.58224
v 0.87387 2.46263 -0.57581
v 0.87369 2.465 -0.57512
v 0.77632 2.465 -0.57512
v 0.91941 2.46263 -0.55694
v 0.77614 2.46263 -0.57581
v 0.91905 2.465 -0.55633
v 0.73096 2.465 -0.55633
v 0.95851 2.46263 -0.52694
v 0.7306 2.46263 -0.55694
v 0.95801 2.465 -0.52644
v 0.692 2.465 -0.52644
v 0.98851 2.46263 -0.48784
v 0.6915 2.46263 -0.52694
v 0.9879 2.465 -0.48749
v 0.66211 2.465 -0.48749
v 1.00737 2.46263 -0.4423
v 0.6615 2.46263 -0.48784
v 1.00669 2.465 -0.44212
v 0.64332 2.465 -0.44212
v 1.01381 2.46263 -0.39344
v 0.64264 2.46263 -0.4423
v 1.0131 2.465 -0.39344
v 0.63691 2.465 -0.39344
v 1.00737 2.46263 -0.34457
v 0.6362 2.46263 -0.39344
v 1.00669 2.465 -0.34475
v 0.64332 2.465 -0.34475
v 0.98851 2.46263 -0.29903
v 0.64264 2.46263 -0.34457
v 0.9879 2.465 -0.29939
v 0.66211 2.465 -0.29939
v 0.95851 2.46263 -0.25993
v 0.6615 2.46263 -0.29903
v 0.95801 2.465 -0.26043
v 0.692 2.465 -0.26043
v 0.91941 2.46263 -0.22993
v 0.6915 2.46263 -0.25993
v 0.91905 2.465 -0.23054
v 0.73096 2.465 -0.23054
v 0.87387 2.46263 -0.21107
v 0.7306 2.46263 -0.22993
v 0.87369 2.465 -0.21175
v 0.77632 2.465 -0.21175
v 0.825 2.46263 -0.20463
v 0.77614 2.46263 -0.21107
v 0.825 2.465 -0.20534
vn 0.9590439 2.244838 -0.8936991
vn 0.825 2.244838 -0.9113462
vn 0.825 2.20162 -0.887711
vn 0.9529265 2.20162 -0.8708693
vn 1.083953 2.244838 -0.8419601
vn 0.6970735 2.20162 -0.8708692
vn 0.6909561 2.244838 -0.8936989
vn 1.072135 2.20162 -0.8214915
vn 1.191214 2.244838 -0.7596554
vn 0.5778649 2.20162 -0.8214915
vn 0.5660474 2.244838 -0.8419602
vn 1.174502 2.20162 -0.7429427
vn 1.273519 2.244838 -0.6523936
vn 0.4754983 2.20162 -0.7429428
vn 0.4587858 2.244838 -0.7596554
vn 1.25305 2.20162 -0.640576
vn 1.325258 2.244838 -0.5274847
vn 0.3969496 2.20162 -0.6405759
vn 0.376481 2.244838 -0.6523936
vn 1.302428 2.20162 -0.5213675
vn 1.342905 2.244838 -0.393441
vn 0.3475718 2.20162 -0.5213675
vn 0.3247421 2.244838 -0.5274847
vn 1.31927 2.20162 -0.393441
vn 1.325258 2.244838 -0.2593973
vn 0.3307301 2.20162 -0.393441
vn 0.3070948 2.244838 -0.393441
vn 1.302428 2.20162 -0.2655145
vn 1.273519 2.244838 -0.1344881
vn 0.3475719 2.20162 -0.2655145
vn 0.3247421 2.244838 -0.2593973
vn 1.25305 2.20162 -0.1463057
vn 1.191214 2.244838 -0.0272271
vn 0.3969499 2.20162 -0.1463056
vn 0.3764813 2.244838 -0.1344881
vn 1.174502 2.20162 -0.04393959
vn 1.083953 2.244837 0.05507758
vn 0.4754981 2.20162 -0.04393956
vn 0.4587856 2.244838 -0.02722698
vn 1.072135 2.20162 0.03460908
vn 0.9590434 2.244838 0.1068171
vn 0.5778649 2.20162 0.03460911
vn 0.5660474 2.244837 0.05507767
vn 0.9529264 2.20162 0.08398727
vn 0.825 2.244838 0.1244642
vn 0.6970736 2.20162 0.08398703
vn 0.6909566 2.244837 0.1068166
vn 0.825 2.20162 0.100829
vn 0.4614399 2.103643 -0.183539
vn 0.5281541 2.103643 -0.09659541
vn 0.6150981 2.103643 -0.02988097
vn 0.7163469 2.103643 0.01205793
vn 0.8250002 2.103643 0.02636233
vn 0.9336531 2.103643 0.01205784
vn 0.4195012 2.103643 -0.2847879
vn 1.034902 2.103643 -0.02988082
vn 0.4051968 2.103643 -0.3934411
vn 1.121846 2.103643 -0.09659538
vn 0.4195012 2.103643 -0.502094
vn 1.18856 2.103643 -0.1835391
vn 0.4614397 2.103643 -0.6033426
vn 1.230499 2.103643 -0.2847879
vn 0.5281543 2.103643 -0.6902868
vn 1.244803 2.103643 -0.393441
vn 0.6150982 2.103643 -0.7570013
vn 1.230499 2.103643 -0.502094
vn 0.7163469 2.103643 -0.7989398
vn 1.18856 2.103643 -0.6033427
vn 0.825 2.103643 -0.8132443
vn 1.121846 2.103643 -0.6902868
vn 0.933653 2.103643 -0.7989398
vn 1.034902 2.103643 -0.7570012
vn 0.7451833 2.011911 -0.6913207
vn 0.8250001 2.011911 -0.7018288
vn 0.9048167 2.011911 -0.6913207
vn 0.9791939 2.011911 -0.6605126
vn 1.043063 2.011911 -0.6115041
vn 1.092072 2.011911 -0.5476348
vn 0.670806 2.011911 -0.6605126
vn 1.12288 2.011911 -0.4732576
vn 0.6069371 2.011911 -0.6115041
vn 1.133388 2.011911 -0.3934411
vn 0.5579283 2.011911 -0.5476348
vn 1.12288 2.011911 -0.3136244
vn 0.5271202 2.011911 -0.4732576
vn 1.092072 2.011911 -0.2392469
vn 0.5166122 2.011911 -0.3934411
vn 1.043063 2.011911 -0.1753779
vn 0.5271203 2.011911 -0.3136244
vn 0.9791939 2.011911 -0.1263694
vn 0.5579286 2.011911 -0.2392468
vn 0.9048165 2.011911 -0.0955613
vn 0.6069368 2.011911 -0.175378
vn 0.8250002 2.011911 -0.08505327
vn 0.6708058 2.011911 -0.1263697
vn 0.7451835 2.011911 -0.09556121
vn 0.6609985 1.948179 -0.349497
vn 0.6779604 1.948179 -0.3085474
vn 0.7049425 1.948179 -0.2733836
vn 0.7401065 1.948179 -0.2464015
vn 0.781056 1.948179 -0.2294395
vn 0.825 1.948179 -0.2236543
vn 0.6552132 1.948179 -0.393441
vn 0.868944 1.948179 -0.2294395
vn 0.6609985 1.948179 -0.437385
vn 0.9098936 1.948179 -0.2464014
vn 0.6779603 1.948179 -0.4783344
vn 0.9450574 1.948179 -0.2733836
vn 0.7049426 1.948179 -0.5134984
vn 0.9720395 1.948179 -0.3085474
vn 0.7401065 1.948179 -0.5404807
vn 0.9890015 1.948179 -0.3494971
vn 0.7810558 1.948179 -0.5574425
vn 0.9947868 1.948179 -0.393441
vn 0.825 1.948179 -0.5632279
vn 0.9890014 1.948179 -0.4373851
vn 0.8689442 1.948179 -0.5574424
vn 0.9720397 1.948179 -0.4783344
vn 0.9098935 1.948179 -0.5404807
vn 0.9450573 1.948179 -0.5134984
vn 0.825 1.925773 -0.4534132
vn 0.840522 1.925773 -0.4513696
vn 0.809478 1.925773 -0.4513697
vn 0.8549861 1.925773 -0.4453784
vn 0.7950138 1.925773 -0.4453784
vn 0.8674067 1.925773 -0.4358478
vn 0.7825933 1.925773 -0.4358478
vn 0.8769374 1.925773 -0.4234271
vn 0.7730625 1.925773 -0.4234271
vn 0.8829287 1.925773 -0.4089629
vn 0.7670713 1.925773 -0.4089629
vn 0.8849722 1.925773 -0.393441
vn 0.7650278 1.925773 -0.393441
vn 0.8829287 1.925773 -0.3779191
vn 0.7670713 1.925773 -0.3779191
vn 0.8769373 1.925773 -0.3634549
vn 0.7730626 1.925773 -0.3634548
vn 0.8674067 1.925773 -0.3510343
vn 0.7825933 1.925773 -0.3510343
vn 0.8549861 1.925773 -0.3415036
vn 0.7950138 1.925773 -0.3415036
vn 0.8405219 1.925773 -0.3355123
vn 0.8094781 1.925773 -0.3355123
vn 0.825 1.925773 -0.3334689
vn 0.825 2.5 -0.9707913
vn 0.6839238 2.309671 -0.9199445
vn 0.825 2.309671 -0.9385175
vn 0.6755708 2.5 -0.9511185
vn 0.5524617 2.309671 -0.865491
vn 0.5363249 2.5 -0.893441
vn 0.4395727 2.309671 -0.7788683
vn 0.4167517 2.5 -0.8016893
vn 0.35295 2.309671 -0.6659793
vn 0.325 2.5 -0.6821162
vn 0.2984966 2.309671 -0.5345172
vn 0.2673225 2.5 -0.5428703
vn 0.2799236 2.309671 -0.393441
vn 0.2476497 2.5 -0.393441
vn 0.2984966 2.309671 -0.2523648
vn 0.2673225 2.5 -0.2440118
vn 0.3529501 2.309671 -0.1209026
vn 0.3250001 2.5 -0.1047657
vn 0.4395728 2.309671 -0.008013695
vn 0.4167518 2.5 0.01480728
vn 0.5524617 2.309671 0.07860893
vn 0.5363247 2.5 0.1065589
vn 0.6839239 2.309671 0.1330624
vn 0.6755708 2.5 0.1642365
vn 0.825 2.309671 0.1516354
vn 0.825 2.5 0.1839092
vn 0.9660761 2.309671 0.1330624
vn 0.9744292 2.5 0.1642365
vn 1.097538 2.309671 0.07860899
vn 1.113675 2.5 0.1065589
vn 1.210427 2.309671 -0.008013815
vn 1.233248 2.5 0.01480728
vn 1.29705 2.309671 -0.1209026
vn 1.325 2.5 -0.1047657
vn 1.351503 2.309671 -0.2523648
vn 1.382678 2.5 -0.2440118
vn 1.370076 2.309671 -0.393441
vn 1.40235 2.5 -0.393441
vn 1.351503 2.309671 -0.5345172
vn 1.382678 2.5 -0.5428703
vn 1.29705 2.309671 -0.6659793
vn 1.325 2.5 -0.6821162
vn 1.210427 2.309671 -0.7788683
vn 1.233248 2.5 -0.8016893
vn 1.097538 2.309671 -0.865491
vn 1.113675 2.5 -0.893441
vn 0.9660761 2.309671 -0.9199445
vn 0.9744292 2.5 -0.9511185
vn 0.825 2.309671 -0.9385175
vn 0.825 2.5 -0.9707913
vn 0.825 2.309671 -0.9385175
vn 0.825 2.141141 -0.8457174
vn 0.9420577 2.141141 -0.8303065
vn 0.9660761 2.309671 -0.9199445
vn 0.6839238 2.309671 -0.9199445
vn 1.051138 2.141141 -0.7851239
vn 0.7079422 2.141141 -0.8303065
vn 1.097538 2.309671 -0.865491
vn 0.5524617 2.309671 -0.865491
vn 1.144808 2.141141 -0.7132487
vn 0.5988618 2.141141 -0.7851239
vn 1.210427 2.309671 -0.7788683
vn 0.4395727 2.309671 -0.7788683
vn 1.216683 2.141141 -0.6195793
vn 0.5051922 2.141141 -0.7132488
vn 1.29705 2.309671 -0.6659793
vn 0.35295 2.309671 -0.6659793
vn 1.261865 2.141141 -0.5104988
vn 0.4333171 2.141141 -0.6195793
vn 1.351503 2.309671 -0.5345172
vn 0.2984966 2.309671 -0.5345172
vn 1.277276 2.141141 -0.393441
vn 0.3881345 2.141141 -0.5104988
vn 1.370076 2.309671 -0.393441
vn 0.2799236 2.309671 -0.393441
vn 1.261865 2.141141 -0.2763833
vn 0.3727235 2.141141 -0.393441
vn 1.351503 2.309671 -0.2523648
vn 0.2984966 2.309671 -0.2523648
vn 1.216683 2.141141 -0.1673027
vn 0.3881345 2.141141 -0.2763833
vn 1.29705 2.309671 -0.1209026
vn 0.3529501 2.309671 -0.1209026
vn 1.144808 2.141141 -0.0736334
vn 0.4333174 2.141141 -0.1673028
vn 1.210427 2.309671 -0.008013815
vn 0.4395728 2.309671 -0.008013695
vn 1.051138 2.141141 -0.001758188
vn 0.5051923 2.141141 -0.07363322
vn 1.097538 2.309671 0.07860899
vn 0.5524617 2.309671 0.07860893
vn 0.9420577 2.141141 0.04342446
vn 0.5988616 2.141141 -0.001758248
vn 0.9660761 2.309671 0.1330624
vn 0.6839239 2.309671 0.1330624
vn 0.825 2.141141 0.05883542
vn 0.7079423 2.141141 0.04342452
vn 0.825 2.309671 0.1516354
vn 0.9168303 2.044537 -0.7361565
vn 0.825 2.044537 -0.7482462
vn 0.825 2.044537 -0.7482462
vn 0.7331697 2.044537 -0.7361565
vn 0.9168303 2.044537 -0.7361565
vn 0.7331697 2.044537 -0.7361565
vn 1.002403 2.044537 -0.7007114
vn 1.002403 2.044537 -0.7007114
vn 0.6475974 2.044537 -0.7007114
vn 0.6475974 2.044537 -0.7007114
vn 1.075885 2.044537 -0.6443262
vn 1.075885 2.044537 -0.6443262
vn 0.5741149 2.044537 -0.6443262
vn 0.5741149 2.044537 -0.6443262
vn 1.13227 2.044537 -0.5708436
vn 1.13227 2.044537 -0.5708436
vn 0.5177298 2.044537 -0.5708436
vn 0.5177298 2.044537 -0.5708436
vn 1.167716 2.044537 -0.4852713
vn 1.167716 2.044537 -0.4852713
vn 0.4822844 2.044537 -0.4852713
vn 0.4822844 2.044537 -0.4852713
vn 1.179805 2.044537 -0.393441
vn 1.179805 2.044537 -0.393441
vn 0.4701947 2.044537 -0.393441
vn 0.4701947 2.044537 -0.393441
vn 1.167715 2.044537 -0.3016108
vn 1.167715 2.044537 -0.3016108
vn 1.13227 2.044537 -0.2160384
vn 1.13227 2.044537 -0.2160384
vn 0.4822845 2.044537 -0.3016108
vn 0.4822845 2.044537 -0.3016108
vn 0.51773 2.044537 -0.2160384
vn 0.51773 2.044537 -0.2160384
vn 1.075885 2.044537 -0.1425561
vn 1.075885 2.044537 -0.1425561
vn 0.5741151 2.044537 -0.1425561
vn 0.5741151 2.044537 -0.1425561
vn 1.002402 2.044536 -0.08617106
vn 1.002402 2.044536 -0.08617106
vn 0.9168302 2.044537 -0.05072573
vn 0.9168302 2.044537 -0.05072573
vn 0.6475976 2.044536 -0.08617106
vn 0.6475976 2.044536 -0.08617106
vn 0.7331697 2.044537 -0.05072573
vn 0.7331697 2.044537 -0.05072573
vn 0.825 2.044537 -0.03863585
vn 0.825 2.044537 -0.03863585
vn 0.6777461 2.003413 -0.6484921
vn 0.6777461 2.003413 -0.6484921
vn 0.6167518 2.003413 -0.601689
vn 0.6167518 2.003413 -0.601689
vn 0.7487759 2.003413 -0.6779133
vn 0.5699488 2.003413 -0.5406951
vn 0.7487759 2.003413 -0.6779133
vn 0.5699488 2.003413 -0.5406951
vn 0.8250001 2.003413 -0.6879483
vn 0.5405275 2.003413 -0.4696653
vn 0.8250001 2.003413 -0.6879483
vn 0.5405275 2.003413 -0.4696653
vn 0.901224 2.003413 -0.6779138
vn 0.5304933 2.003412 -0.393441
vn 0.901224 2.003413 -0.6779138
vn 0.5304933 2.003412 -0.393441
vn 0.9722537 2.003413 -0.6484917
vn 0.5405283 2.003412 -0.3172171
vn 0.9722537 2.003413 -0.6484917
vn 0.5405283 2.003412 -0.3172171
vn 1.033249 2.003413 -0.6016896
vn 0.5699494 2.003412 -0.2461875
vn 1.033249 2.003413 -0.6016896
vn 0.5699494 2.003412 -0.2461875
vn 1.080051 2.003413 -0.5406954
vn 0.616752 2.003413 -0.1851929
vn 1.080051 2.003413 -0.5406954
vn 0.616752 2.003413 -0.1851929
vn 1.109472 2.003412 -0.4696651
vn 0.6777463 2.003413 -0.1383901
vn 1.109472 2.003412 -0.4696651
vn 0.6777463 2.003413 -0.1383901
vn 1.119507 2.003412 -0.393441
vn 0.7487757 2.003413 -0.1089683
vn 1.119507 2.003412 -0.393441
vn 0.7487757 2.003413 -0.1089683
vn 1.109472 2.003412 -0.317217
vn 0.8249999 2.003413 -0.09893367
vn 1.109472 2.003412 -0.317217
vn 0.8249999 2.003413 -0.09893367
vn 1.080051 2.003413 -0.2461874
vn 0.9012243 2.003413 -0.1089689
vn 1.080051 2.003413 -0.2461874
vn 0.9012243 2.003413 -0.1089689
vn 1.033248 2.003413 -0.1851927
vn 0.9722539 2.003413 -0.1383897
vn 1.033248 2.003413 -0.1851927
vn 0.9722539 2.003413 -0.1383897
vn 0.825 2.664048 -0.9469946
vn 0.825 2.664048 -0.9469946
vn 0.9682701 2.664048 -0.9281328
vn 0.9682701 2.664048 -0.9281328
vn 0.6817297 2.664047 -0.9281329
vn 1.101777 2.664047 -0.8728325
vn 0.6817297 2.664047 -0.9281329
vn 1.101777 2.664047 -0.8728325
vn 0.5482231 2.664047 -0.8728327
vn 1.216422 2.664047 -0.7848628
vn 0.5482231 2.664047 -0.8728327
vn 1.216422 2.664047 -0.7848628
vn 0.4335786 2.664048 -0.7848625
vn 1.304391 2.664048 -0.6702178
vn 0.4335786 2.664048 -0.7848625
vn 1.304391 2.664048 -0.6702178
vn 0.3456087 2.664048 -0.6702177
vn 1.359691 2.664049 -0.5367111
vn 0.3456087 2.664048 -0.6702177
vn 1.359691 2.664049 -0.5367111
vn 0.2903082 2.664048 -0.5367112
vn 1.378554 2.664048 -0.393441
vn 0.2903082 2.664048 -0.5367112
vn 1.378554 2.664048 -0.393441
vn 0.2714464 2.664048 -0.393441
vn 1.359692 2.664048 -0.2501708
vn 0.2714464 2.664048 -0.393441
vn 1.359692 2.664048 -0.2501708
vn 0.2903088 2.66405 -0.250171
vn 1.304391 2.664051 -0.1166644
vn 0.2903088 2.66405 -0.250171
vn 1.304391 2.664051 -0.1166644
vn 0.3456096 2.664052 -0.1166645
vn 1.216421 2.664053 -0.002020657
vn 0.3456096 2.664052 -0.1166645
vn 1.216421 2.664053 -0.002020657
vn 0.4335787 2.664049 -0.002019942
vn 1.101776 2.66405 0.08594999
vn 0.4335787 2.664049 -0.002019942
vn 1.101776 2.66405 0.08594999
vn 0.5482234 2.664051 0.0859496
vn 0.9682701 2.664051 0.1412498
vn 0.5482234 2.664051 0.0859496
vn 0.9682701 2.664051 0.1412498
vn 0.6817302 2.664051 0.1412499
vn 0.8249999 2.664051 0.1601117
vn 0.6817302 2.664051 0.1412499
vn 0.8249999 2.664051 0.1601117
vt 0.9571978 0.7772782
vt 0.9571978 0.7227219
vt 0.9505334 0.7235993
vt 0.9505334 0.7764008
vt 0.9430777 0.8299754
vt 0.9368675 0.672597
vt 0.9430777 0.6700246
vt 0.9368675 0.8274031
vt 0.9157996 0.8772225
vt 0.9104668 0.6268696
vt 0.9157996 0.6227775
vt 0.9104668 0.8731304
vt 0.8772225 0.9157996
vt 0.8731304 0.5895333
vt 0.8772225 0.5842004
vt 0.8731304 0.9104668
vt 0.8299754 0.9430777
vt 0.8274031 0.5631326
vt 0.8299754 0.5569224
vt 0.8274031 0.9368675
vt 0.7772781 0.9571978
vt 0.7764007 0.5494666
vt 0.7772781 0.5428022
vt 0.7764007 0.9505334
vt 0.7227218 0.9571978
vt 0.7235993 0.5494666
vt 0.7227219 0.5428022
vt 0.7235992 0.9505334
vt 0.6700246 0.9430777
vt 0.672597 0.5631325
vt 0.6700246 0.5569223
vt 0.6725969 0.9368675
vt 0.6227775 0.9157996
vt 0.6268696 0.5895332
vt 0.6227775 0.5842004
vt 0.6268696 0.9104668
vt 0.5842004 0.8772225
vt 0.5895333 0.6268696
vt 0.5842004 0.6227775
vt 0.5895332 0.8731304
vt 0.5569223 0.8299754
vt 0.5631326 0.6725969
vt 0.5569224 0.6700246
vt 0.5631325 0.827403
vt 0.5428022 0.7772781
vt 0.5494666 0.7235993
vt 0.5428022 0.7227219
vt 0.5494666 0.7764007
vt 0.6473768 0.6162586
vt 0.6162588 0.6473767
vt 0.594255 0.6854883
vt 0.5828651 0.7279962
vt 0.5828651 0.7720038
vt 0.594255 0.8145117
vt 0.6854883 0.594255
vt 0.6162587 0.8526232
vt 0.7279962 0.5828651
vt 0.6473767 0.8837413
vt 0.7720037 0.5828651
vt 0.6854883 0.905745
vt 0.8145117 0.594255
vt 0.7279962 0.9171349
vt 0.8526233 0.6162587
vt 0.7720038 0.9171349
vt 0.8837413 0.6473767
vt 0.8145117 0.905745
vt 0.905745 0.6854883
vt 0.8526233 0.8837413
vt 0.9171349 0.7279963
vt 0.8837413 0.8526233
vt 0.9171349 0.7720038
vt 0.905745 0.8145117
vt 0.8746226 0.6983797
vt 0.8837364 0.7323933
vt 0.8837364 0.7676067
vt 0.8746225 0.8016204
vt 0.8570158 0.8321161
vt 0.8321161 0.8570158
vt 0.8570158 0.6678839
vt 0.8016203 0.8746225
vt 0.8321161 0.6429842
vt 0.7676067 0.8837364
vt 0.8016204 0.6253775
vt 0.7323932 0.8837364
vt 0.7676067 0.6162636
vt 0.6983798 0.8746226
vt 0.7323933 0.6162636
vt 0.6678839 0.8570158
vt 0.6983796 0.6253775
vt 0.6429842 0.832116
vt 0.667884 0.6429841
vt 0.6253775 0.8016204
vt 0.6429843 0.6678839
vt 0.6162636 0.7676067
vt 0.6253775 0.6983796
vt 0.6162636 0.7323932
vt 0.711271 0.6565
vt 0.6883911 0.6697096
vt 0.6697098 0.6883911
vt 0.6565 0.7112709
vt 0.6496621 0.7367902
vt 0.6496621 0.7632097
vt 0.7367903 0.6496621
vt 0.6565 0.7887291
vt 0.7632097 0.6496621
vt 0.6697096 0.8116089
vt 0.788729 0.6564999
vt 0.6883911 0.8302903
vt 0.811609 0.6697096
vt 0.7112711 0.8435001
vt 0.8302903 0.6883911
vt 0.7367902 0.8503379
vt 0.8435001 0.711271
vt 0.7632098 0.8503379
vt 0.8503379 0.7367903
vt 0.788729 0.8435
vt 0.8503379 0.7632098
vt 0.811609 0.8302903
vt 0.8435 0.788729
vt 0.8302904 0.8116089
vt 0.8169394 0.7411873
vt 0.8169394 0.7588127
vt 0.8123776 0.7241624
vt 0.8123776 0.7758376
vt 0.8035648 0.7088982
vt 0.8035649 0.7911018
vt 0.7911018 0.6964351
vt 0.7911018 0.8035648
vt 0.7758377 0.6876224
vt 0.7758375 0.8123776
vt 0.7588127 0.6830606
vt 0.7588128 0.8169394
vt 0.7411873 0.6830606
vt 0.7411872 0.8169394
vt 0.7241623 0.6876225
vt 0.7241625 0.8123776
vt 0.7088984 0.696435
vt 0.7088982 0.8035648
vt 0.6964353 0.7088982
vt 0.6964351 0.7911016
vt 0.6876224 0.7241623
vt 0.6876224 0.7758378
vt 0.6830606 0.7411872
vt 0.6830606 0.7588127
vt 0 0.5
vt 0.04166667 0
vt 0 0
vt 0.04166667 0.5
vt 0.08333334 0
vt 0.08333334 0.5
vt 0.125 0
vt 0.125 0.5
vt 0.1666667 0
vt 0.1666667 0.5
vt 0.2083333 0
vt 0.2083333 0.5
vt 0.25 0
vt 0.25 0.5
vt 0.2916667 0
vt 0.2916667 0.5
vt 0.3333333 0
vt 0.3333333 0.5
vt 0.375 0
vt 0.375 0.5
vt 0.4166667 0
vt 0.4166667 0.5
vt 0.4583333 0
vt 0.4583333 0.5
vt 0.5 0
vt 0.5 0.5
vt 0.5416667 0
vt 0.5416667 0.5
vt 0.5833333 0
vt 0.5833333 0.5
vt 0.625 0
vt 0.625 0.5
vt 0.6666667 0
vt 0.6666667 0.5
vt 0.7083333 0
vt 0.7083333 0.5
vt 0.75 0
vt 0.75 0.5
vt 0.7916667 0
vt 0.7916667 0.5
vt 0.8333333 0
vt 0.8333333 0.5
vt 0.875 0
vt 0.875 0.5
vt 0.9166667 0
vt 0.9166667 0.5
vt 0.9583333 0
vt 0.9583333 0.5
vt 1 0
vt 1 0.5
vt 0.9978612 0.7173685
vt 0.9832374 0.7192937
vt 0.9832374 0.7807063
vt 0.9978612 0.7826316
vt 0.9809699 0.6543292
vt 0.9673427 0.8400263
vt 0.9673427 0.6599737
vt 0.9809699 0.8456709
vt 0.9483383 0.5978097
vt 0.9366364 0.8932111
vt 0.9366364 0.6067889
vt 0.9483383 0.9021904
vt 0.9021904 0.5516617
vt 0.8932111 0.9366364
vt 0.8932111 0.5633636
vt 0.9021903 0.9483383
vt 0.8456709 0.5190302
vt 0.8400263 0.9673427
vt 0.8400263 0.5326574
vt 0.8456709 0.9809699
vt 0.7826316 0.5021388
vt 0.7807063 0.9832374
vt 0.7807063 0.5167626
vt 0.7826315 0.9978612
vt 0.7173685 0.5021388
vt 0.7192937 0.9832374
vt 0.7192937 0.5167626
vt 0.7173684 0.9978612
vt 0.6543292 0.5190301
vt 0.6599737 0.9673427
vt 0.6599737 0.5326573
vt 0.6543291 0.9809699
vt 0.5978097 0.5516617
vt 0.6067889 0.9366364
vt 0.6067889 0.5633636
vt 0.5978096 0.9483383
vt 0.5516617 0.5978096
vt 0.5633636 0.8932111
vt 0.5633636 0.6067889
vt 0.5516617 0.9021903
vt 0.5190302 0.6543291
vt 0.5326573 0.8400263
vt 0.5326574 0.6599737
vt 0.5190301 0.8456708
vt 0.5021388 0.7173684
vt 0.5167626 0.7807063
vt 0.5167626 0.7192937
vt 0.5021388 0.7826315
vt 0.9821214 0.7805594
vt 0.9821214 0.7194406
vt 0.9583138 0.7225749
vt 0.9663028 0.6604045
vt 0.9583138 0.7774251
vt 0.9441176 0.6695939
vt 0.9663028 0.8395956
vt 0.9441176 0.8304062
vt 0.9357434 0.6074741
vt 0.9166926 0.6220923
vt 0.9166926 0.8779077
vt 0.9357434 0.8925259
vt 0.8779077 0.5833074
vt 0.8925259 0.5642566
vt 0.8925259 0.9357434
vt 0.8779077 0.9166926
vt 0.8395956 0.5336973
vt 0.8304062 0.5558825
vt 0.8304062 0.9441176
vt 0.8395956 0.9663028
vt 0.7774251 0.5416862
vt 0.7805594 0.5178786
vt 0.7805594 0.9821214
vt 0.7774251 0.9583138
vt 0.7194406 0.5178786
vt 0.7225749 0.5416862
vt 0.7225749 0.9583138
vt 0.7194406 0.9821214
vt 0.6604044 0.9663028
vt 0.6695938 0.9441176
vt 0.6695939 0.5558824
vt 0.6604045 0.5336972
vt 0.6074741 0.5642566
vt 0.6220923 0.5833074
vt 0.6074741 0.9357434
vt 0.6220923 0.9166926
vt 0.5642566 0.6074741
vt 0.5833074 0.6220923
vt 0.5833074 0.8779077
vt 0.5642566 0.8925259
vt 0.5336972 0.8395955
vt 0.5558824 0.8304061
vt 0.5558825 0.6695938
vt 0.5336973 0.6604044
vt 0.5178786 0.7194406
vt 0.5416862 0.7225749
vt 0.5178786 0.7805594
vt 0.5416862 0.7774251
vt 0.5842004 0.8772225
vt 0.5833074 0.8779077
vt 0.6220923 0.9166926
vt 0.6227775 0.9157996
vt 0.5569223 0.8299754
vt 0.6695938 0.9441176
vt 0.5558824 0.8304061
vt 0.6700246 0.9430777
vt 0.5428022 0.7772781
vt 0.7225749 0.9583138
vt 0.5416862 0.7774251
vt 0.7227218 0.9571978
vt 0.5428022 0.7227219
vt 0.7774251 0.9583138
vt 0.5416862 0.7225749
vt 0.7772781 0.9571978
vt 0.5569224 0.6700246
vt 0.8304062 0.9441176
vt 0.5558825 0.6695938
vt 0.8299754 0.9430777
vt 0.5842004 0.6227775
vt 0.8779077 0.9166926
vt 0.5833074 0.6220923
vt 0.8772225 0.9157996
vt 0.6227775 0.5842004
vt 0.9166926 0.8779077
vt 0.6220923 0.5833074
vt 0.9157996 0.8772225
vt 0.6700246 0.5569223
vt 0.9441176 0.8304062
vt 0.6695939 0.5558824
vt 0.9430777 0.8299754
vt 0.7227219 0.5428022
vt 0.9583138 0.7774251
vt 0.7225749 0.5416862
vt 0.9571978 0.7772782
vt 0.7772781 0.5428022
vt 0.9583138 0.7225749
vt 0.7774251 0.5416862
vt 0.9571978 0.7227219
vt 0.8299754 0.5569224
vt 0.9441176 0.6695939
vt 0.8304062 0.5558825
vt 0.9430777 0.6700246
vt 0.8772225 0.5842004
vt 0.9166926 0.6220923
vt 0.8779077 0.5833074
vt 0.9157996 0.6227775
vt 0.9832374 0.7192937
vt 0.9821214 0.7194406
vt 0.9821214 0.7805594
vt 0.9832374 0.7807063
vt 0.9673427 0.6599737
vt 0.9663028 0.8395956
vt 0.9663028 0.6604045
vt 0.9673427 0.8400263
vt 0.9366364 0.6067889
vt 0.9357434 0.8925259
vt 0.9357434 0.6074741
vt 0.9366364 0.8932111
vt 0.8932111 0.5633636
vt 0.8925259 0.9357434
vt 0.8925259 0.5642566
vt 0.8932111 0.9366364
vt 0.8400263 0.5326574
vt 0.8395956 0.9663028
vt 0.8395956 0.5336973
vt 0.8400263 0.9673427
vt 0.7807063 0.5167626
vt 0.7805594 0.9821214
vt 0.7805594 0.5178786
vt 0.7807063 0.9832374
vt 0.7192937 0.5167626
vt 0.7194406 0.9821214
vt 0.7194406 0.5178786
vt 0.7192937 0.9832374
vt 0.6599737 0.5326573
vt 0.6604044 0.9663028
vt 0.6604045 0.5336972
vt 0.6599737 0.9673427
vt 0.6067889 0.5633636
vt 0.6074741 0.9357434
vt 0.6074741 0.5642566
vt 0.6067889 0.9366364
vt 0.5633636 0.6067889
vt 0.5642566 0.8925259
vt 0.5642566 0.6074741
vt 0.5633636 0.8932111
vt 0.5326574 0.6599737
vt 0.5336972 0.8395955
vt 0.5336973 0.6604044
vt 0.5326573 0.8400263
vt 0.5167626 0.7192937
vt 0.5178786 0.7805594
vt 0.5178786 0.7194406
vt 0.5167626 0.7807063
usemtl Light2
f 3/3/3 2/2/2 1/1/1
f 4/4/4 3/3/3 1/1/1
f 4/4/4 1/1/1 5/5/5
f 3/3/3 6/6/6 2/2/2
f 6/6/6 7/7/7 2/2/2
f 8/8/8 4/4/4 5/5/5
f 8/8/8 5/5/5 9/9/9
f 6/6/6 10/10/10 7/7/7
f 10/10/10 11/11/11 7/7/7
f 12/12/12 8/8/8 9/9/9
f 12/12/12 9/9/9 13/13/13
f 10/10/10 14/14/14 11/11/11
f 14/14/14 15/15/15 11/11/11
f 16/16/16 12/12/12 13/13/13
f 16/16/16 13/13/13 17/17/17
f 14/14/14 18/18/18 15/15/15
f 18/18/18 19/19/19 15/15/15
f 20/20/20 16/16/16 17/17/17
f 20/20/20 17/17/17 21/21/21
f 18/18/18 22/22/22 19/19/19
f 22/22/22 23/23/23 19/19/19
f 24/24/24 20/20/20 21/21/21
f 24/24/24 21/21/21 25/25/25
f 22/22/22 26/26/26 23/23/23
f 26/26/26 27/27/27 23/23/23
f 28/28/28 24/24/24 25/25/25
f 28/28/28 25/25/25 29/29/29
f 26/26/26 30/30/30 27/27/27
f 30/30/30 31/31/31 27/27/27
f 32/32/32 28/28/28 29/29/29
f 32/32/32 29/29/29 33/33/33
f 30/30/30 34/34/34 31/31/31
f 34/34/34 35/35/35 31/31/31
f 36/36/36 32/32/32 33/33/33
f 36/36/36 33/33/33 37/37/37
f 34/34/34 38/38/38 35/35/35
f 38/38/38 39/39/39 35/35/35
f 40/40/40 36/36/36 37/37/37
f 40/40/40 37/37/37 41/41/41
f 38/38/38 42/42/42 39/39/39
f 42/42/42 43/43/43 39/39/39
f 44/44/44 40/40/40 41/41/41
f 44/44/44 41/41/41 45/45/45
f 42/42/42 46/46/46 43/43/43
f 46/46/46 47/47/47 43/43/43
f 48/48/48 45/45/45 47/47/47
f 48/48/48 44/44/44 45/45/45
f 46/46/46 48/48/48 47/47/47
f 38/38/38 34/34/34 49/49/49
f 42/42/42 38/38/38 50/50/50
f 50/50/50 38/38/38 49/49/49
f 46/46/46 42/42/42 51/51/51
f 51/51/51 42/42/42 50/50/50
f 48/48/48 46/46/46 52/52/52
f 52/52/52 46/46/46 51/51/51
f 44/44/44 48/48/48 53/53/53
f 53/53/53 48/48/48 52/52/52
f 40/40/40 44/44/44 54/54/54
f 54/54/54 44/44/44 53/53/53
f 49/49/49 34/34/34 55/55/55
f 34/34/34 30/30/30 55/55/55
f 56/56/56 40/40/40 54/54/54
f 36/36/36 40/40/40 56/56/56
f 55/55/55 30/30/30 57/57/57
f 30/30/30 26/26/26 57/57/57
f 58/58/58 36/36/36 56/56/56
f 32/32/32 36/36/36 58/58/58
f 57/57/57 26/26/26 59/59/59
f 26/26/26 22/22/22 59/59/59
f 60/60/60 32/32/32 58/58/58
f 28/28/28 32/32/32 60/60/60
f 59/59/59 22/22/22 61/61/61
f 22/22/22 18/18/18 61/61/61
f 62/62/62 28/28/28 60/60/60
f 24/24/24 28/28/28 62/62/62
f 61/61/61 18/18/18 63/63/63
f 18/18/18 14/14/14 63/63/63
f 64/64/64 24/24/24 62/62/62
f 20/20/20 24/24/24 64/64/64
f 63/63/63 14/14/14 65/65/65
f 14/14/14 10/10/10 65/65/65
f 66/66/66 20/20/20 64/64/64
f 16/16/16 20/20/20 66/66/66
f 65/65/65 10/10/10 67/67/67
f 10/10/10 6/6/6 67/67/67
f 68/68/68 16/16/16 66/66/66
f 12/12/12 16/16/16 68/68/68
f 67/67/67 6/6/6 69/69/69
f 6/6/6 3/3/3 69/69/69
f 70/70/70 12/12/12 68/68/68
f 8/8/8 12/12/12 70/70/70
f 69/69/69 3/3/3 71/71/71
f 3/3/3 4/4/4 71/71/71
f 4/4/4 8/8/8 72/72/72
f 72/72/72 8/8/8 70/70/70
f 71/71/71 4/4/4 72/72/72
f 65/65/65 67/67/67 73/73/73
f 67/67/67 69/69/69 74/74/74
f 73/73/73 67/67/67 74/74/74
f 69/69/69 71/71/71 75/75/75
f 74/74/74 69/69/69 75/75/75
f 71/71/71 72/72/72 76/76/76
f 75/75/75 71/71/71 76/76/76
f 72/72/72 70/70/70 77/77/77
f 76/76/76 72/72/72 77/77/77
f 70/70/70 68/68/68 78/78/78
f 77/77/77 70/70/70 78/78/78
f 79/79/79 65/65/65 73/73/73
f 63/63/63 65/65/65 79/79/79
f 78/78/78 68/68/68 80/80/80
f 68/68/68 66/66/66 80/80/80
f 81/81/81 63/63/63 79/79/79
f 61/61/61 63/63/63 81/81/81
f 80/80/80 66/66/66 82/82/82
f 66/66/66 64/64/64 82/82/82
f 83/83/83 61/61/61 81/81/81
f 59/59/59 61/61/61 83/83/83
f 82/82/82 64/64/64 84/84/84
f 64/64/64 62/62/62 84/84/84
f 85/85/85 59/59/59 83/83/83
f 57/57/57 59/59/59 85/85/85
f 84/84/84 62/62/62 86/86/86
f 62/62/62 60/60/60 86/86/86
f 87/87/87 57/57/57 85/85/85
f 55/55/55 57/57/57 87/87/87
f 86/86/86 60/60/60 88/88/88
f 60/60/60 58/58/58 88/88/88
f 89/89/89 55/55/55 87/87/87
f 49/49/49 55/55/55 89/89/89
f 88/88/88 58/58/58 90/90/90
f 58/58/58 56/56/56 90/90/90
f 91/91/91 49/49/49 89/89/89
f 50/50/50 49/49/49 91/91/91
f 90/90/90 56/56/56 92/92/92
f 56/56/56 54/54/54 92/92/92
f 93/93/93 50/50/50 91/91/91
f 51/51/51 50/50/50 93/93/93
f 92/92/92 54/54/54 94/94/94
f 54/54/54 53/53/53 94/94/94
f 95/95/95 51/51/51 93/93/93
f 52/52/52 51/51/51 95/95/95
f 53/53/53 52/52/52 96/96/96
f 94/94/94 53/53/53 96/96/96
f 96/96/96 52/52/52 95/95/95
f 91/91/91 89/89/89 97/97/97
f 93/93/93 91/91/91 98/98/98
f 98/98/98 91/91/91 97/97/97
f 95/95/95 93/93/93 99/99/99
f 99/99/99 93/93/93 98/98/98
f 96/96/96 95/95/95 100/100/100
f 100/100/100 95/95/95 99/99/99
f 94/94/94 96/96/96 101/101/101
f 101/101/101 96/96/96 100/100/100
f 92/92/92 94/94/94 102/102/102
f 102/102/102 94/94/94 101/101/101
f 97/97/97 89/89/89 103/103/103
f 89/89/89 87/87/87 103/103/103
f 104/104/104 92/92/92 102/102/102
f 90/90/90 92/92/92 104/104/104
f 103/103/103 87/87/87 105/105/105
f 87/87/87 85/85/85 105/105/105
f 106/106/106 90/90/90 104/104/104
f 88/88/88 90/90/90 106/106/106
f 105/105/105 85/85/85 107/107/107
f 85/85/85 83/83/83 107/107/107
f 108/108/108 88/88/88 106/106/106
f 86/86/86 88/88/88 108/108/108
f 107/107/107 83/83/83 109/109/109
f 83/83/83 81/81/81 109/109/109
f 110/110/110 86/86/86 108/108/108
f 84/84/84 86/86/86 110/110/110
f 109/109/109 81/81/81 111/111/111
f 81/81/81 79/79/79 111/111/111
f 112/112/112 84/84/84 110/110/110
f 82/82/82 84/84/84 112/112/112
f 111/111/111 79/79/79 113/113/113
f 79/79/79 73/73/73 113/113/113
f 114/114/114 82/82/82 112/112/112
f 80/80/80 82/82/82 114/114/114
f 113/113/113 73/73/73 115/115/115
f 73/73/73 74/74/74 115/115/115
f 116/116/116 80/80/80 114/114/114
f 78/78/78 80/80/80 116/116/116
f 115/115/115 74/74/74 117/117/117
f 74/74/74 75/75/75 117/117/117
f 118/118/118 78/78/78 116/116/116
f 77/77/77 78/78/78 118/118/118
f 117/117/117 75/75/75 119/119/119
f 75/75/75 76/76/76 119/119/119
f 76/76/76 77/77/77 120/120/120
f 120/120/120 77/77/77 118/118/118
f 119/119/119 76/76/76 120/120/120
f 113/113/113 115/115/115 121/121/121
f 115/115/115 117/117/117 122/122/122
f 121/121/121 115/115/115 122/122/122
f 123/123/123 113/113/113 121/121/121
f 123/123/123 121/121/121 122/122/122
f 111/111/111 113/113/113 123/123/123
f 122/122/122 117/117/117 124/124/124
f 117/117/117 119/119/119 124/124/124
f 122/122/122 124/124/124 123/123/123
f 125/125/125 111/111/111 123/123/123
f 124/124/124 125/125/125 123/123/123
f 109/109/109 111/111/111 125/125/125
f 124/124/124 119/119/119 126/126/126
f 119/119/119 120/120/120 126/126/126
f 124/124/124 126/126/126 125/125/125
f 127/127/127 109/109/109 125/125/125
f 126/126/126 127/127/127 125/125/125
f 107/107/107 109/109/109 127/127/127
f 126/126/126 120/120/120 128/128/128
f 126/126/126 128/128/128 127/127/127
f 120/120/120 118/118/118 128/128/128
f 129/129/129 107/107/107 127/127/127
f 128/128/128 129/129/129 127/127/127
f 105/105/105 107/107/107 129/129/129
f 128/128/128 118/118/118 130/130/130
f 128/128/128 130/130/130 129/129/129
f 118/118/118 116/116/116 130/130/130
f 131/131/131 105/105/105 129/129/129
f 130/130/130 131/131/131 129/129/129
f 103/103/103 105/105/105 131/131/131
f 130/130/130 116/116/116 132/132/132
f 130/130/130 132/132/132 131/131/131
f 116/116/116 114/114/114 132/132/132
f 133/133/133 103/103/103 131/131/131
f 132/132/132 133/133/133 131/131/131
f 97/97/97 103/103/103 133/133/133
f 132/132/132 114/114/114 134/134/134
f 132/132/132 134/134/134 133/133/133
f 114/114/114 112/112/112 134/134/134
f 135/135/135 97/97/97 133/133/133
f 134/134/134 135/135/135 133/133/133
f 98/98/98 97/97/97 135/135/135
f 134/134/134 112/112/112 136/136/136
f 134/134/134 136/136/136 135/135/135
f 112/112/112 110/110/110 136/136/136
f 137/137/137 98/98/98 135/135/135
f 136/136/136 137/137/137 135/135/135
f 99/99/99 98/98/98 137/137/137
f 136/136/136 110/110/110 138/138/138
f 136/136/136 138/138/138 137/137/137
f 110/110/110 108/108/108 138/138/138
f 139/139/139 99/99/99 137/137/137
f 138/138/138 139/139/139 137/137/137
f 100/100/100 99/99/99 139/139/139
f 138/138/138 108/108/108 140/140/140
f 138/138/138 140/140/140 139/139/139
f 108/108/108 106/106/106 140/140/140
f 141/141/141 100/100/100 139/139/139
f 140/140/140 141/141/141 139/139/139
f 101/101/101 100/100/100 141/141/141
f 140/140/140 106/106/106 142/142/142
f 140/140/140 142/142/142 141/141/141
f 106/106/106 104/104/104 142/142/142
f 143/143/143 101/101/101 141/141/141
f 142/142/142 143/143/143 141/141/141
f 102/102/102 101/101/101 143/143/143
f 104/104/104 102/102/102 144/144/144
f 142/142/142 104/104/104 144/144/144
f 142/142/142 144/144/144 143/143/143
f 144/144/144 102/102/102 143/143/143
usemtl Metal_chrome_mat
f 147/147/147 146/146/146 145/145/145
f 146/146/146 148/148/148 145/145/145
f 146/146/146 149/149/149 148/148/148
f 149/149/149 150/150/150 148/148/148
f 149/149/149 151/151/151 150/150/150
f 151/151/151 152/152/152 150/150/150
f 151/151/151 153/153/153 152/152/152
f 153/153/153 154/154/154 152/152/152
f 153/153/153 155/155/155 154/154/154
f 155/155/155 156/156/156 154/154/154
f 155/155/155 157/157/157 156/156/156
f 157/157/157 158/158/158 156/156/156
f 157/157/157 159/159/159 158/158/158
f 159/159/159 160/160/160 158/158/158
f 159/159/159 161/161/161 160/160/160
f 161/161/161 162/162/162 160/160/160
f 161/161/161 163/163/163 162/162/162
f 163/163/163 164/164/164 162/162/162
f 163/163/163 165/165/165 164/164/164
f 165/165/165 166/166/166 164/164/164
f 165/165/165 167/167/167 166/166/166
f 167/167/167 168/168/168 166/166/166
f 167/167/167 169/169/169 168/168/168
f 169/169/169 170/170/170 168/168/168
f 169/169/169 171/171/171 170/170/170
f 171/171/171 172/172/172 170/170/170
f 171/171/171 173/173/173 172/172/172
f 173/173/173 174/174/174 172/172/172
f 173/173/173 175/175/175 174/174/174
f 175/175/175 176/176/176 174/174/174
f 175/175/175 177/177/177 176/176/176
f 177/177/177 178/178/178 176/176/176
f 177/177/177 179/179/179 178/178/178
f 179/179/179 180/180/180 178/178/178
f 179/179/179 181/181/181 180/180/180
f 181/181/181 182/182/182 180/180/180
f 181/181/181 183/183/183 182/182/182
f 183/183/183 184/184/184 182/182/182
f 183/183/183 185/185/185 184/184/184
f 185/185/185 186/186/186 184/184/184
f 185/185/185 187/187/187 186/186/186
f 187/187/187 188/188/188 186/186/186
f 187/187/187 189/189/189 188/188/188
f 189/189/189 190/190/190 188/188/188
f 189/189/189 191/191/191 190/190/190
f 191/191/191 192/192/192 190/190/190
f 191/191/191 193/193/193 192/192/192
f 193/193/193 194/194/194 192/192/192
f 197/197/197 196/196/196 195/195/195
f 198/198/198 197/197/197 195/195/195
f 195/195/195 196/196/196 199/199/199
f 200/200/200 197/197/197 198/198/198
f 196/196/196 201/201/201 199/199/199
f 202/202/202 200/200/200 198/198/198
f 199/199/199 201/201/201 203/203/203
f 204/204/204 200/200/200 202/202/202
f 201/201/201 205/205/205 203/203/203
f 206/206/206 204/204/204 202/202/202
f 203/203/203 205/205/205 207/207/207
f 208/208/208 204/204/204 206/206/206
f 205/205/205 209/209/209 207/207/207
f 210/210/210 208/208/208 206/206/206
f 207/207/207 209/209/209 211/211/211
f 212/212/212 208/208/208 210/210/210
f 209/209/209 213/213/213 211/211/211
f 214/214/214 212/212/212 210/210/210
f 211/211/211 213/213/213 215/215/215
f 216/216/216 212/212/212 214/214/214
f 213/213/213 217/217/217 215/215/215
f 218/218/218 216/216/216 214/214/214
f 215/215/215 217/217/217 219/219/219
f 220/220/220 216/216/216 218/218/218
f 217/217/217 221/221/221 219/219/219
f 222/222/222 220/220/220 218/218/218
f 219/219/219 221/221/221 223/223/223
f 224/224/224 220/220/220 222/222/222
f 221/221/221 225/225/225 223/223/223
f 226/226/226 224/224/224 222/222/222
f 223/223/223 225/225/225 227/227/227
f 228/228/228 224/224/224 226/226/226
f 225/225/225 229/229/229 227/227/227
f 230/230/230 228/228/228 226/226/226
f 227/227/227 229/229/229 231/231/231
f 232/232/232 228/228/228 230/230/230
f 229/229/229 233/233/233 231/231/231
f 234/234/234 232/232/232 230/230/230
f 231/231/231 233/233/233 235/235/235
f 236/236/236 232/232/232 234/234/234
f 233/233/233 237/237/237 235/235/235
f 238/238/238 236/236/236 234/234/234
f 235/235/235 237/237/237 239/239/239
f 240/240/240 236/236/236 238/238/238
f 237/237/237 241/241/241 239/239/239
f 242/242/242 240/240/240 238/238/238
f 239/239/239 241/241/241 242/242/242
f 241/241/241 240/240/240 242/242/242
usemtl Brass_Mat
f 245/245/245 244/244/244 243/243/243
f 244/244/244 245/245/245 246/246/246
f 247/247/247 245/245/245 243/243/243
f 245/245/245 248/248/248 246/246/246
f 247/247/247 243/243/243 249/249/249
f 250/250/250 247/247/247 249/249/249
f 246/246/246 248/248/248 251/251/251
f 248/248/248 252/252/252 251/251/251
f 253/253/253 250/250/250 249/249/249
f 254/254/254 253/253/253 249/249/249
f 252/252/252 255/255/255 251/251/251
f 255/255/255 256/256/256 251/251/251
f 253/253/253 254/254/254 257/257/257
f 258/258/258 253/253/253 257/257/257
f 256/256/256 255/255/255 259/259/259
f 255/255/255 260/260/260 259/259/259
f 261/261/261 258/258/258 257/257/257
f 262/262/262 261/261/261 257/257/257
f 260/260/260 263/263/263 259/259/259
f 263/263/263 264/264/264 259/259/259
f 261/261/261 262/262/262 265/265/265
f 266/266/266 261/261/261 265/265/265
f 264/264/264 263/263/263 267/267/267
f 263/263/263 268/268/268 267/267/267
f 269/269/269 266/266/266 265/265/265
f 270/270/270 269/269/269 265/265/265
f 269/269/269 270/270/270 271/271/271
f 272/272/272 269/269/269 271/271/271
f 268/268/268 273/273/273 267/267/267
f 273/273/273 274/274/274 267/267/267
f 274/274/274 273/273/273 275/275/275
f 273/273/273 276/276/276 275/275/275
f 272/272/272 271/271/271 277/277/277
f 278/278/278 272/272/272 277/277/277
f 275/275/275 276/276/276 279/279/279
f 276/276/276 280/280/280 279/279/279
f 281/281/281 278/278/278 277/277/277
f 282/282/282 281/281/281 277/277/277
f 281/281/281 282/282/282 283/283/283
f 284/284/284 281/281/281 283/283/283
f 280/280/280 285/285/285 279/279/279
f 285/285/285 286/286/286 279/279/279
f 286/286/286 285/285/285 287/287/287
f 285/285/285 288/288/288 287/287/287
f 284/284/284 283/283/283 289/289/289
f 287/287/287 288/288/288 289/289/289
f 290/290/290 284/284/284 289/289/289
f 288/288/288 290/290/290 289/289/289
f 293/293/293 292/292/292 291/291/291
f 294/294/294 293/293/293 291/291/291
f 291/291/291 292/292/292 295/295/295
f 296/296/296 293/293/293 294/294/294
f 292/292/292 297/297/297 295/295/295
f 298/298/298 296/296/296 294/294/294
f 295/295/295 297/297/297 299/299/299
f 300/300/300 296/296/296 298/298/298
f 297/297/297 301/301/301 299/299/299
f 302/302/302 300/300/300 298/298/298
f 299/299/299 301/301/301 303/303/303
f 304/304/304 300/300/300 302/302/302
f 301/301/301 305/305/305 303/303/303
f 306/306/306 304/304/304 302/302/302
f 303/303/303 305/305/305 307/307/307
f 308/308/308 304/304/304 306/306/306
f 305/305/305 309/309/309 307/307/307
f 310/310/310 308/308/308 306/306/306
f 307/307/307 309/309/309 311/311/311
f 312/312/312 308/308/308 310/310/310
f 309/309/309 313/313/313 311/311/311
f 314/314/314 312/312/312 310/310/310
f 311/311/311 313/313/313 315/315/315
f 316/316/316 312/312/312 314/314/314
f 313/313/313 317/317/317 315/315/315
f 318/318/318 316/316/316 314/314/314
f 315/315/315 317/317/317 319/319/319
f 320/320/320 316/316/316 318/318/318
f 317/317/317 321/321/321 319/319/319
f 322/322/322 320/320/320 318/318/318
f 319/319/319 321/321/321 323/323/323
f 324/324/324 320/320/320 322/322/322
f 321/321/321 325/325/325 323/323/323
f 326/326/326 324/324/324 322/322/322
f 323/323/323 325/325/325 327/327/327
f 328/328/328 324/324/324 326/326/326
f 325/325/325 329/329/329 327/327/327
f 330/330/330 328/328/328 326/326/326
f 327/327/327 329/329/329 331/331/331
f 332/332/332 328/328/328 330/330/330
f 329/329/329 333/333/333 331/331/331
f 334/334/334 332/332/332 330/330/330
f 331/331/331 333/333/333 335/335/335
f 336/336/336 332/332/332 334/334/334
f 333/333/333 337/337/337 335/335/335
f 338/338/338 336/336/336 334/334/334
f 335/335/335 337/337/337 338/338/338
f 337/337/337 336/336/336 338/338/338
f 341/341/341 340/340/340 339/339/339
f 342/342/342 341/341/341 339/339/339
f 339/339/339 340/340/340 343/343/343
f 344/344/344 341/341/341 342/342/342
f 340/340/340 345/345/345 343/343/343
f 346/346/346 344/344/344 342/342/342
f 343/343/343 345/345/345 347/347/347
f 348/348/348 344/344/344 346/346/346
f 345/345/345 349/349/349 347/347/347
f 350/350/350 348/348/348 346/346/346
f 347/347/347 349/349/349 351/351/351
f 352/352/352 348/348/348 350/350/350
f 349/349/349 353/353/353 351/351/351
f 354/354/354 352/352/352 350/350/350
f 351/351/351 353/353/353 355/355/355
f 356/356/356 352/352/352 354/354/354
f 353/353/353 357/357/357 355/355/355
f 358/358/358 356/356/356 354/354/354
f 355/355/355 357/357/357 359/359/359
f 360/360/360 356/356/356 358/358/358
f 357/357/357 361/361/361 359/359/359
f 362/362/362 360/360/360 358/358/358
f 359/359/359 361/361/361 363/363/363
f 364/364/364 360/360/360 362/362/362
f 361/361/361 365/365/365 363/363/363
f 366/366/366 364/364/364 362/362/362
f 363/363/363 365/365/365 367/367/367
f 368/368/368 364/364/364 366/366/366
f 365/365/365 369/369/369 367/367/367
f 370/370/370 368/368/368 366/366/366
f 367/367/367 369/369/369 371/371/371
f 372/372/372 368/368/368 370/370/370
f 369/369/369 373/373/373 371/371/371
f 374/374/374 372/372/372 370/370/370
f 371/371/371 373/373/373 375/375/375
f 376/376/376 372/372/372 374/374/374
f 373/373/373 377/377/377 375/375/375
f 378/378/378 376/376/376 374/374/374
f 375/375/375 377/377/377 379/379/379
f 380/380/380 376/376/376 378/378/378
f 377/377/377 381/381/381 379/379/379
f 382/382/382 380/380/380 378/378/378
f 379/379/379 381/381/381 383/383/383
f 384/384/384 380/380/380 382/382/382
f 381/381/381 385/385/385 383/383/383
f 386/386/386 384/384/384 382/382/382
f 383/383/383 385/385/385 386/386/386
f 385/385/385 384/384/384 386/386/386
g DomeLight_df16e0f3
v 0.86821 2.4485 -0.55467
v 0.825 2.4485 -0.56035
v 0.825 2.43751 -0.55494
v 0.8668 2.43751 -0.54943
v 0.90846 2.4485 -0.53799
v 0.78321 2.43751 -0.54943
v 0.7818 2.4485 -0.55467
v 0.90576 2.43751 -0.5333
v 0.94303 2.4485 -0.51146
v 0.74425 2.43751 -0.5333
v 0.74155 2.4485 -0.53799
v 0.9392 2.43751 -0.50764
v 0.96956 2.4485 -0.47689
v 0.71081 2.43751 -0.50764
v 0.70698 2.4485 -0.51146
v 0.96487 2.43751 -0.47419
v 0.98623 2.4485 -0.43664
v 0.68514 2.43751 -0.47419
v 0.68045 2.4485 -0.47689
v 0.981 2.43751 -0.43524
v 0.99192 2.4485 -0.39344
v 0.66901 2.43751 -0.43524
v 0.66378 2.4485 -0.43664
v 0.98651 2.43751 -0.39344
v 0.98623 2.4485 -0.35023
v 0.6635 2.43751 -0.39344
v 0.65809 2.4485 -0.39344
v 0.981 2.43751 -0.35164
v 0.96956 2.4485 -0.30998
v 0.66901 2.43751 -0.35164
v 0.66378 2.4485 -0.35023
v 0.96487 2.43751 -0.31269
v 0.94303 2.4485 -0.27541
v 0.68514 2.43751 -0.31269
v 0.68045 2.4485 -0.30998
v 0.9392 2.43751 -0.27924
v 0.90846 2.4485 -0.24888
v 0.71081 2.43751 -0.27924
v 0.70698 2.4485 -0.27541
v 0.90576 2.43751 -0.25357
v 0.86821 2.4485 -0.23221
v 0.74425 2.43751 -0.25357
v 0.74155 2.4485 -0.24888
v 0.8668 2.43751 -0.23744
v 0.825 2.4485 -0.22652
v 0.78321 2.43751 -0.23744
v 0.7818 2.4485 -0.23221
v 0.825 2.43751 -0.23193
v 0.70146 2.41159 -0.3221
v 0.72413 2.41159 -0.29256
v 0.75367 2.41159 -0.26989
v 0.78808 2.41159 -0.25563
v 0.825 2.41159 -0.25077
v 0.86193 2.41159 -0.25563
v 0.6872 2.41159 -0.35651
v 0.89634 2.41159 -0.26989
v 0.68234 2.41159 -0.39344
v 0.92588 2.41159 -0.29256
v 0.6872 2.41159 -0.43036
v 0.94855 2.41159 -0.3221
v 0.70146 2.41159 -0.46477
v 0.96281 2.41159 -0.35651
v 0.72413 2.41159 -0.49431
v 0.96767 2.41159 -0.39344
v 0.75367 2.41159 -0.51699
v 0.96281 2.41159 -0.43036
v 0.78808 2.41159 -0.53124
v 0.94855 2.41159 -0.46477
v 0.825 2.41159 -0.5361
v 0.92588 2.41159 -0.49431
v 0.86193 2.41159 -0.53124
v 0.89634 2.41159 -0.51699
v 0.79494 2.3899 -0.50566
v 0.825 2.3899 -0.50962
v 0.85507 2.3899 -0.50566
v 0.8831 2.3899 -0.49405
v 0.90716 2.3899 -0.47559
v 0.92562 2.3899 -0.45153
v 0.76691 2.3899 -0.49405
v 0.93723 2.3899 -0.42351
v 0.74285 2.3899 -0.47559
v 0.94119 2.3899 -0.39344
v 0.72439 2.3899 -0.45153
v 0.93723 2.3899 -0.36337
v 0.71278 2.3899 -0.42351
v 0.92562 2.3899 -0.33535
v 0.70882 2.3899 -0.39344
v 0.90716 2.3899 -0.31128
v 0.71278 2.3899 -0.36337
v 0.8831 2.3899 -0.29282
v 0.72439 2.3899 -0.33535
v 0.85507 2.3899 -0.28121
v 0.74285 2.3899 -0.31128
v 0.825 2.3899 -0.27726
v 0.76691 2.3899 -0.29282
v 0.79494 2.3899 -0.28121
v 0.74218 2.37553 -0.37124
v 0.75075 2.37553 -0.35056
v 0.76437 2.37553 -0.3328
v 0.78213 2.37553 -0.31918
v 0.80281 2.37553 -0.31061
v 0.825 2.37553 -0.30769
v 0.73926 2.37553 -0.39344
v 0.8472 2.37553 -0.31061
v 0.74218 2.37553 -0.41563
v 0.86788 2.37553 -0.31918
v 0.75075 2.37553 -0.43631
v 0.88564 2.37553 -0.3328
v 0.76437 2.37553 -0.45407
v 0.89926 2.37553 -0.35056
v 0.78213 2.37553 -0.46769
v 0.90783 2.37553 -0.37124
v 0.80281 2.37553 -0.47626
v 0.91075 2.37553 -0.39344
v 0.825 2.37553 -0.47918
v 0.90783 2.37553 -0.41563
v 0.8472 2.37553 -0.47626
v 0.89926 2.37553 -0.43631
v 0.86788 2.37553 -0.46769
v 0.88564 2.37553 -0.45407
v 0.825 2.3705 -0.44722
v 0.83893 2.3705 -0.44539
v 0.81108 2.3705 -0.44539
v 0.8519 2.3705 -0.44002
v 0.79811 2.3705 -0.44002
v 0.86304 2.3705 -0.43147
v 0.78697 2.3705 -0.43147
v 0.87159 2.3705 -0.42033
v 0.77842 2.3705 -0.42033
v 0.87696 2.3705 -0.40736
v 0.77305 2.3705 -0.40736
v 0.87879 2.3705 -0.39344
v 0.77122 2.3705 -0.39344
v 0.87696 2.3705 -0.37951
v 0.77305 2.3705 -0.37951
v 0.87159 2.3705 -0.36654
v 0.77842 2.3705 -0.36654
v 0.86304 2.3705 -0.3554
v 0.78697 2.3705 -0.3554
v 0.8519 2.3705 -0.34685
v 0.79811 2.3705 -0.34685
v 0.83893 2.3705 -0.34148
v 0.81108 2.3705 -0.34148
v 0.825 2.3705 -0.33965
v 0.825 2.5 -0.59344
v 0.77324 2.48 -0.58662
v 0.825 2.48 -0.59344
v 0.77324 2.5 -0.58662
v 0.72501 2.48 -0.56664
v 0.72501 2.5 -0.56664
v 0.68358 2.48 -0.53486
v 0.68358 2.5 -0.53486
v 0.6518 2.48 -0.49344
v 0.6518 2.5 -0.49344
v 0.63182 2.48 -0.4452
v 0.63182 2.5 -0.4452
v 0.625 2.48 -0.39344
v 0.625 2.5 -0.39344
v 0.63182 2.48 -0.34167
v 0.63182 2.5 -0.34167
v 0.6518 2.48 -0.29344
v 0.6518 2.5 -0.29344
v 0.68358 2.48 -0.25201
v 0.68358 2.5 -0.25201
v 0.72501 2.48 -0.22023
v 0.72501 2.5 -0.22023
v 0.77324 2.48 -0.20025
v 0.77324 2.5 -0.20025
v 0.825 2.48 -0.19344
v 0.825 2.5 -0.19344
v 0.87677 2.48 -0.20025
v 0.87677 2.5 -0.20025
v 0.925 2.48 -0.22023
v 0.925 2.5 -0.22023
v 0.96643 2.48 -0.25201
v 0.96643 2.5 -0.25201
v 0.99821 2.48 -0.29344
v 0.99821 2.5 -0.29344
v 1.01819 2.48 -0.34167
v 1.01819 2.5 -0.34167
v 1.025 2.48 -0.39344
v 1.025 2.5 -0.39344
v 1.01819 2.48 -0.4452
v 1.01819 2.5 -0.4452
v 0.99821 2.48 -0.49344
v 0.99821 2.5 -0.49344
v 0.96643 2.48 -0.53486
v 0.96643 2.5 -0.53486
v 0.925 2.48 -0.56664
v 0.925 2.5 -0.56664
v 0.87677 2.48 -0.58662
v 0.87677 2.5 -0.58662
v 0.825 2.48 -0.59344
v 0.825 2.5 -0.59344
v 0.825 2.48 -0.59344
v 0.825 2.465 -0.58153
v 0.87369 2.465 -0.57512
v 0.87677 2.48 -0.58662
v 0.77324 2.48 -0.58662
v 0.91905 2.465 -0.55633
v 0.77632 2.465 -0.57512
v 0.925 2.48 -0.56664
v 0.72501 2.48 -0.56664
v 0.95801 2.465 -0.52644
v 0.73096 2.465 -0.55633
v 0.96643 2.48 -0.53486
v 0.68358 2.48 -0.53486
v 0.9879 2.465 -0.48749
v 0.692 2.465 -0.52644
v 0.99821 2.48 -0.49344
v 0.6518 2.48 -0.49344
v 1.00669 2.465 -0.44212
v 0.66211 2.465 -0.48749
v 1.01819 2.48 -0.4452
v 0.63182 2.48 -0.4452
v 1.0131 2.465 -0.39344
v 0.64332 2.465 -0.44212
v 1.025 2.48 -0.39344
v 0.625 2.48 -0.39344
v 1.00669 2.465 -0.34475
v 0.63691 2.465 -0.39344
v 1.01819 2.48 -0.34167
v 0.63182 2.48 -0.34167
v 0.9879 2.465 -0.29939
v 0.64332 2.465 -0.34475
v 0.99821 2.48 -0.29344
v 0.6518 2.48 -0.29344
v 0.95801 2.465 -0.26043
v 0.66211 2.465 -0.29939
v 0.96643 2.48 -0.25201
v 0.68358 2.48 -0.25201
v 0.91905 2.465 -0.23054
v 0.692 2.465 -0.26043
v 0.925 2.48 -0.22023
v 0.72501 2.48 -0.22023
v 0.87369 2.465 -0.21175
v 0.73096 2.465 -0.23054
v 0.87677 2.48 -0.20025
v 0.77324 2.48 -0.20025
v 0.825 2.465 -0.20534
v 0.77632 2.465 -0.21175
v 0.825 2.48 -0.19344
v 0.87387 2.46263 -0.57581
v 0.825 2.46263 -0.58224
v 0.825 2.44724 -0.56248
v 0.77614 2.46263 -0.57581
v 0.86876 2.44724 -0.55672
v 0.78125 2.44724 -0.55672
v 0.91941 2.46263 -0.55694
v 0.90953 2.44724 -0.53984
v 0.7306 2.46263 -0.55694
v 0.74048 2.44724 -0.53984
v 0.94454 2.44724 -0.51297
v 0.95851 2.46263 -0.52694
v 0.70547 2.44724 -0.51297
v 0.6915 2.46263 -0.52694
v 0.98851 2.46263 -0.48784
v 0.97141 2.44724 -0.47796
v 0.6615 2.46263 -0.48784
v 0.6786 2.44724 -0.47796
v 0.98829 2.44724 -0.43719
v 1.00737 2.46263 -0.4423
v 0.66172 2.44724 -0.43719
v 0.64264 2.46263 -0.4423
v 1.01381 2.46263 -0.39344
v 0.99405 2.44724 -0.39344
v 0.6362 2.46263 -0.39344
v 0.65596 2.44724 -0.39344
v 0.98829 2.44724 -0.34968
v 1.00737 2.46263 -0.34457
v 0.98851 2.46263 -0.29903
v 0.97141 2.44724 -0.30891
v 0.66172 2.44724 -0.34968
v 0.64264 2.46263 -0.34457
v 0.6615 2.46263 -0.29903
v 0.6786 2.44724 -0.30891
v 0.95851 2.46263 -0.25993
v 0.94454 2.44724 -0.2739
v 0.6915 2.46263 -0.25993
v 0.70547 2.44724 -0.2739
v 0.90953 2.44724 -0.24704
v 0.91941 2.46263 -0.22993
v 0.87387 2.46263 -0.21107
v 0.86876 2.44724 -0.23015
v 0.74048 2.44724 -0.24704
v 0.7306 2.46263 -0.22993
v 0.77614 2.46263 -0.21107
v 0.78125 2.44724 -0.23015
v 0.825 2.46263 -0.20463
v 0.825 2.44724 -0.22439
v 0.90846 2.4485 -0.24888
v 0.90953 2.44724 -0.24704
v 0.94454 2.44724 -0.2739
v 0.94303 2.4485 -0.27541
v 0.86821 2.4485 -0.23221
v 0.97141 2.44724 -0.30891
v 0.86876 2.44724 -0.23015
v 0.96956 2.4485 -0.30998
v 0.825 2.4485 -0.22652
v 0.98829 2.44724 -0.34968
v 0.825 2.44724 -0.22439
v 0.98623 2.4485 -0.35023
v 0.7818 2.4485 -0.23221
v 0.99405 2.44724 -0.39344
v 0.78125 2.44724 -0.23015
v 0.99192 2.4485 -0.39344
v 0.74155 2.4485 -0.24888
v 0.98829 2.44724 -0.43719
v 0.74048 2.44724 -0.24704
v 0.98623 2.4485 -0.43664
v 0.70698 2.4485 -0.27541
v 0.97141 2.44724 -0.47796
v 0.70547 2.44724 -0.2739
v 0.96956 2.4485 -0.47689
v 0.68045 2.4485 -0.30998
v 0.94454 2.44724 -0.51297
v 0.6786 2.44724 -0.30891
v 0.94303 2.4485 -0.51146
v 0.66378 2.4485 -0.35023
v 0.90953 2.44724 -0.53984
v 0.66172 2.44724 -0.34968
v 0.90846 2.4485 -0.53799
v 0.65809 2.4485 -0.39344
v 0.86876 2.44724 -0.55672
v 0.65596 2.44724 -0.39344
v 0.86821 2.4485 -0.55467
v 0.66378 2.4485 -0.43664
v 0.825 2.44724 -0.56248
v 0.66172 2.44724 -0.43719
v 0.825 2.4485 -0.56035
v 0.68045 2.4485 -0.47689
v 0.78125 2.44724 -0.55672
v 0.6786 2.44724 -0.47796
v 0.7818 2.4485 -0.55467
v 0.70698 2.4485 -0.51146
v 0.74048 2.44724 -0.53984
v 0.70547 2.44724 -0.51297
v 0.74155 2.4485 -0.53799
v 0.825 2.465 -0.58153
v 0.825 2.46263 -0.58224
v 0.87387 2.46263 -0.57581
v 0.87369 2.465 -0.57512
v 0.77632 2.465 -0.57512
v 0.91941 2.46263 -0.55694
v 0.77614 2.46263 -0.57581
v 0.91905 2.465 -0.55633
v 0.73096 2.465 -0.55633
v 0.95851 2.46263 -0.52694
v 0.7306 2.46263 -0.55694
v 0.95801 2.465 -0.52644
v 0.692 2.465 -0.52644
v 0.98851 2.46263 -0.48784
v 0.6915 2.46263 -0.52694
v 0.9879 2.465 -0.48749
v 0.66211 2.465 -0.48749
v 1.00737 2.46263 -0.4423
v 0.6615 2.46263 -0.48784
v 1.00669 2.465 -0.44212
v 0.64332 2.465 -0.44212
v 1.01381 2.46263 -0.39344
v 0.64264 2.46263 -0.4423
v 1.0131 2.465 -0.39344
v 0.63691 2.465 -0.39344
v 1.00737 2.46263 -0.34457
v 0.6362 2.46263 -0.39344
v 1.00669 2.465 -0.34475
v 0.64332 2.465 -0.34475
v 0.98851 2.46263 -0.29903
v 0.64264 2.46263 -0.34457
v 0.9879 2.465 -0.29939
v 0.66211 2.465 -0.29939
v 0.95851 2.46263 -0.25993
v 0.6615 2.46263 -0.29903
v 0.95801 2.465 -0.26043
v 0.692 2.465 -0.26043
v 0.91941 2.46263 -0.22993
v 0.6915 2.46263 -0.25993
v 0.91905 2.465 -0.23054
v 0.73096 2.465 -0.23054
v 0.87387 2.46263 -0.21107
v 0.7306 2.46263 -0.22993
v 0.87369 2.465 -0.21175
v 0.77632 2.465 -0.21175
v 0.825 2.46263 -0.20463
v 0.77614 2.46263 -0.21107
v 0.825 2.465 -0.20534
vn 0.9590439 2.244838 -0.8936991
vn 0.825 2.244838 -0.9113462
vn 0.825 2.20162 -0.887711
vn 0.9529265 2.20162 -0.8708693
vn 1.083953 2.244838 -0.8419601
vn 0.6970735 2.20162 -0.8708692
vn 0.6909561 2.244838 -0.8936989
vn 1.072135 2.20162 -0.8214915
vn 1.191214 2.244838 -0.7596554
vn 0.5778649 2.20162 -0.8214915
vn 0.5660474 2.244838 -0.8419602
vn 1.174502 2.20162 -0.7429427
vn 1.273519 2.244838 -0.6523936
vn 0.4754983 2.20162 -0.7429428
vn 0.4587858 2.244838 -0.7596554
vn 1.25305 2.20162 -0.640576
vn 1.325258 2.244838 -0.5274847
vn 0.3969496 2.20162 -0.6405759
vn 0.376481 2.244838 -0.6523936
vn 1.302428 2.20162 -0.5213675
vn 1.342905 2.244838 -0.393441
vn 0.3475718 2.20162 -0.5213675
vn 0.3247421 2.244838 -0.5274847
vn 1.31927 2.20162 -0.393441
vn 1.325258 2.244838 -0.2593973
vn 0.3307301 2.20162 -0.393441
vn 0.3070948 2.244838 -0.393441
vn 1.302428 2.20162 -0.2655145
vn 1.273519 2.244838 -0.1344881
vn 0.3475719 2.20162 -0.2655145
vn 0.3247421 2.244838 -0.2593973
vn 1.25305 2.20162 -0.1463057
vn 1.191214 2.244838 -0.0272271
vn 0.3969499 2.20162 -0.1463056
vn 0.3764813 2.244838 -0.1344881
vn 1.174502 2.20162 -0.04393959
vn 1.083953 2.244837 0.05507758
vn 0.4754981 2.20162 -0.04393956
vn 0.4587856 2.244838 -0.02722698
vn 1.072135 2.20162 0.03460908
vn 0.9590434 2.244838 0.1068171
vn 0.5778649 2.20162 0.03460911
vn 0.5660474 2.244837 0.05507767
vn 0.9529264 2.20162 0.08398727
vn 0.825 2.244838 0.1244642
vn 0.6970736 2.20162 0.08398703
vn 0.6909566 2.244837 0.1068166
vn 0.825 2.20162 0.100829
vn 0.4614399 2.103643 -0.183539
vn 0.5281541 2.103643 -0.09659541
vn 0.6150981 2.103643 -0.02988097
vn 0.7163469 2.103643 0.01205793
vn 0.8250002 2.103643 0.02636233
vn 0.9336531 2.103643 0.01205784
vn 0.4195012 2.103643 -0.2847879
vn 1.034902 2.103643 -0.02988082
vn 0.4051968 2.103643 -0.3934411
vn 1.121846 2.103643 -0.09659538
vn 0.4195012 2.103643 -0.502094
vn 1.18856 2.103643 -0.1835391
vn 0.4614397 2.103643 -0.6033426
vn 1.230499 2.103643 -0.2847879
vn 0.5281543 2.103643 -0.6902868
vn 1.244803 2.103643 -0.393441
vn 0.6150982 2.103643 -0.7570013
vn 1.230499 2.103643 -0.502094
vn 0.7163469 2.103643 -0.7989398
vn 1.18856 2.103643 -0.6033427
vn 0.825 2.103643 -0.8132443
vn 1.121846 2.103643 -0.6902868
vn 0.933653 2.103643 -0.7989398
vn 1.034902 2.103643 -0.7570012
vn 0.7451833 2.011911 -0.6913207
vn 0.8250001 2.011911 -0.7018288
vn 0.9048167 2.011911 -0.6913207
vn 0.9791939 2.011911 -0.6605126
vn 1.043063 2.011911 -0.6115041
vn 1.092072 2.011911 -0.5476348
vn 0.670806 2.011911 -0.6605126
vn 1.12288 2.011911 -0.4732576
vn 0.6069371 2.011911 -0.6115041
vn 1.133388 2.011911 -0.3934411
vn 0.5579283 2.011911 -0.5476348
vn 1.12288 2.011911 -0.3136244
vn 0.5271202 2.011911 -0.4732576
vn 1.092072 2.011911 -0.2392469
vn 0.5166122 2.011911 -0.3934411
vn 1.043063 2.011911 -0.1753779
vn 0.5271203 2.011911 -0.3136244
vn 0.9791939 2.011911 -0.1263694
vn 0.5579286 2.011911 -0.2392468
vn 0.9048165 2.011911 -0.0955613
vn 0.6069368 2.011911 -0.175378
vn 0.8250002 2.011911 -0.08505327
vn 0.6708058 2.011911 -0.1263697
vn 0.7451835 2.011911 -0.09556121
vn 0.6609985 1.948179 -0.349497
vn 0.6779604 1.948179 -0.3085474
vn 0.7049425 1.948179 -0.2733836
vn 0.7401065 1.948179 -0.2464015
vn 0.781056 1.948179 -0.2294395
vn 0.825 1.948179 -0.2236543
vn 0.6552132 1.948179 -0.393441
vn 0.868944 1.948179 -0.2294395
vn 0.6609985 1.948179 -0.437385
vn 0.9098936 1.948179 -0.2464014
vn 0.6779603 1.948179 -0.4783344
vn 0.9450574 1.948179 -0.2733836
vn 0.7049426 1.948179 -0.5134984
vn 0.9720395 1.948179 -0.3085474
vn 0.7401065 1.948179 -0.5404807
vn 0.9890015 1.948179 -0.3494971
vn 0.7810558 1.948179 -0.5574425
vn 0.9947868 1.948179 -0.393441
vn 0.825 1.948179 -0.5632279
vn 0.9890014 1.948179 -0.4373851
vn 0.8689442 1.948179 -0.5574424
vn 0.9720397 1.948179 -0.4783344
vn 0.9098935 1.948179 -0.5404807
vn 0.9450573 1.948179 -0.5134984
vn 0.825 1.925773 -0.4534132
vn 0.840522 1.925773 -0.4513696
vn 0.809478 1.925773 -0.4513697
vn 0.8549861 1.925773 -0.4453784
vn 0.7950138 1.925773 -0.4453784
vn 0.8674067 1.925773 -0.4358478
vn 0.7825933 1.925773 -0.4358478
vn 0.8769374 1.925773 -0.4234271
vn 0.7730625 1.925773 -0.4234271
vn 0.8829287 1.925773 -0.4089629
vn 0.7670713 1.925773 -0.4089629
vn 0.8849722 1.925773 -0.393441
vn 0.7650278 1.925773 -0.393441
vn 0.8829287 1.925773 -0.3779191
vn 0.7670713 1.925773 -0.3779191
vn 0.8769373 1.925773 -0.3634549
vn 0.7730626 1.925773 -0.3634548
vn 0.8674067 1.925773 -0.3510343
vn 0.7825933 1.925773 -0.3510343
vn 0.8549861 1.925773 -0.3415036
vn 0.7950138 1.925773 -0.3415036
vn 0.8405219 1.925773 -0.3355123
vn 0.8094781 1.925773 -0.3355123
vn 0.825 1.925773 -0.3334689
vn 0.825 2.5 -0.9707913
vn 0.6839238 2.309671 -0.9199445
vn 0.825 2.309671 -0.9385175
vn 0.6755708 2.5 -0.9511185
vn 0.5524617 2.309671 -0.865491
vn 0.5363249 2.5 -0.893441
vn 0.4395727 2.309671 -0.7788683
vn 0.4167517 2.5 -0.8016893
vn 0.35295 2.309671 -0.6659793
vn 0.325 2.5 -0.6821162
vn 0.2984966 2.309671 -0.5345172
vn 0.2673225 2.5 -0.5428703
vn 0.2799236 2.309671 -0.393441
vn 0.2476497 2.5 -0.393441
vn 0.2984966 2.309671 -0.2523648
vn 0.2673225 2.5 -0.2440118
vn 0.3529501 2.309671 -0.1209026
vn 0.3250001 2.5 -0.1047657
vn 0.4395728 2.309671 -0.008013695
vn 0.4167518 2.5 0.01480728
vn 0.5524617 2.309671 0.07860893
vn 0.5363247 2.5 0.1065589
vn 0.6839239 2.309671 0.1330624
vn 0.6755708 2.5 0.1642365
vn 0.825 2.309671 0.1516354
vn 0.825 2.5 0.1839092
vn 0.9660761 2.309671 0.1330624
vn 0.9744292 2.5 0.1642365
vn 1.097538 2.309671 0.07860899
vn 1.113675 2.5 0.1065589
vn 1.210427 2.309671 -0.008013815
vn 1.233248 2.5 0.01480728
vn 1.29705 2.309671 -0.1209026
vn 1.325 2.5 -0.1047657
vn 1.351503 2.309671 -0.2523648
vn 1.382678 2.5 -0.2440118
vn 1.370076 2.309671 -0.393441
vn 1.40235 2.5 -0.393441
vn 1.351503 2.309671 -0.5345172
vn 1.382678 2.5 -0.5428703
vn 1.29705 2.309671 -0.6659793
vn 1.325 2.5 -0.6821162
vn 1.210427 2.309671 -0.7788683
vn 1.233248 2.5 -0.8016893
vn 1.097538 2.309671 -0.865491
vn 1.113675 2.5 -0.893441
vn 0.9660761 2.309671 -0.9199445
vn 0.9744292 2.5 -0.9511185
vn 0.825 2.309671 -0.9385175
vn 0.825 2.5 -0.9707913
vn 0.825 2.309671 -0.9385175
vn 0.825 2.141141 -0.8457174
vn 0.9420577 2.141141 -0.8303065
vn 0.9660761 2.309671 -0.9199445
vn 0.6839238 2.309671 -0.9199445
vn 1.051138 2.141141 -0.7851239
vn 0.7079422 2.141141 -0.8303065
vn 1.097538 2.309671 -0.865491
vn 0.5524617 2.309671 -0.865491
vn 1.144808 2.141141 -0.7132487
vn 0.5988618 2.141141 -0.7851239
vn 1.210427 2.309671 -0.7788683
vn 0.4395727 2.309671 -0.7788683
vn 1.216683 2.141141 -0.6195793
vn 0.5051922 2.141141 -0.7132488
vn 1.29705 2.309671 -0.6659793
vn 0.35295 2.309671 -0.6659793
vn 1.261865 2.141141 -0.5104988
vn 0.4333171 2.141141 -0.6195793
vn 1.351503 2.309671 -0.5345172
vn 0.2984966 2.309671 -0.5345172
vn 1.277276 2.141141 -0.393441
vn 0.3881345 2.141141 -0.5104988
vn 1.370076 2.309671 -0.393441
vn 0.2799236 2.309671 -0.393441
vn 1.261865 2.141141 -0.2763833
vn 0.3727235 2.141141 -0.393441
vn 1.351503 2.309671 -0.2523648
vn 0.2984966 2.309671 -0.2523648
vn 1.216683 2.141141 -0.1673027
vn 0.3881345 2.141141 -0.2763833
vn 1.29705 2.309671 -0.1209026
vn 0.3529501 2.309671 -0.1209026
vn 1.144808 2.141141 -0.0736334
vn 0.4333174 2.141141 -0.1673028
vn 1.210427 2.309671 -0.008013815
vn 0.4395728 2.309671 -0.008013695
vn 1.051138 2.141141 -0.001758188
vn 0.5051923 2.141141 -0.07363322
vn 1.097538 2.309671 0.07860899
vn 0.5524617 2.309671 0.07860893
vn 0.9420577 2.141141 0.04342446
vn 0.5988616 2.141141 -0.001758248
vn 0.9660761 2.309671 0.1330624
vn 0.6839239 2.309671 0.1330624
vn 0.825 2.141141 0.05883542
vn 0.7079423 2.141141 0.04342452
vn 0.825 2.309671 0.1516354
vn 0.9168303 2.044537 -0.7361565
vn 0.825 2.044537 -0.7482462
vn 0.825 2.044537 -0.7482462
vn 0.7331697 2.044537 -0.7361565
vn 0.9168303 2.044537 -0.7361565
vn 0.7331697 2.044537 -0.7361565
vn 1.002403 2.044537 -0.7007114
vn 1.002403 2.044537 -0.7007114
vn 0.6475974 2.044537 -0.7007114
vn 0.6475974 2.044537 -0.7007114
vn 1.075885 2.044537 -0.6443262
vn 1.075885 2.044537 -0.6443262
vn 0.5741149 2.044537 -0.6443262
vn 0.5741149 2.044537 -0.6443262
vn 1.13227 2.044537 -0.5708436
vn 1.13227 2.044537 -0.5708436
vn 0.5177298 2.044537 -0.5708436
vn 0.5177298 2.044537 -0.5708436
vn 1.167716 2.044537 -0.4852713
vn 1.167716 2.044537 -0.4852713
vn 0.4822844 2.044537 -0.4852713
vn 0.4822844 2.044537 -0.4852713
vn 1.179805 2.044537 -0.393441
vn 1.179805 2.044537 -0.393441
vn 0.4701947 2.044537 -0.393441
vn 0.4701947 2.044537 -0.393441
vn 1.167715 2.044537 -0.3016108
vn 1.167715 2.044537 -0.3016108
vn 1.13227 2.044537 -0.2160384
vn 1.13227 2.044537 -0.2160384
vn 0.4822845 2.044537 -0.3016108
vn 0.4822845 2.044537 -0.3016108
vn 0.51773 2.044537 -0.2160384
vn 0.51773 2.044537 -0.2160384
vn 1.075885 2.044537 -0.1425561
vn 1.075885 2.044537 -0.1425561
vn 0.5741151 2.044537 -0.1425561
vn 0.5741151 2.044537 -0.1425561
vn 1.002402 2.044536 -0.08617106
vn 1.002402 2.044536 -0.08617106
vn 0.9168302 2.044537 -0.05072573
vn 0.9168302 2.044537 -0.05072573
vn 0.6475976 2.044536 -0.08617106
vn 0.6475976 2.044536 -0.08617106
vn 0.7331697 2.044537 -0.05072573
vn 0.7331697 2.044537 -0.05072573
vn 0.825 2.044537 -0.03863585
vn 0.825 2.044537 -0.03863585
vn 0.6777461 2.003413 -0.6484921
vn 0.6777461 2.003413 -0.6484921
vn 0.6167518 2.003413 -0.601689
vn 0.6167518 2.003413 -0.601689
vn 0.7487759 2.003413 -0.6779133
vn 0.5699488 2.003413 -0.5406951
vn 0.7487759 2.003413 -0.6779133
vn 0.5699488 2.003413 -0.5406951
vn 0.8250001 2.003413 -0.6879483
vn 0.5405275 2.003413 -0.4696653
vn 0.8250001 2.003413 -0.6879483
vn 0.5405275 2.003413 -0.4696653
vn 0.901224 2.003413 -0.6779138
vn 0.5304933 2.003412 -0.393441
vn 0.901224 2.003413 -0.6779138
vn 0.5304933 2.003412 -0.393441
vn 0.9722537 2.003413 -0.6484917
vn 0.5405283 2.003412 -0.3172171
vn 0.9722537 2.003413 -0.6484917
vn 0.5405283 2.003412 -0.3172171
vn 1.033249 2.003413 -0.6016896
vn 0.5699494 2.003412 -0.2461875
vn 1.033249 2.003413 -0.6016896
vn 0.5699494 2.003412 -0.2461875
vn 1.080051 2.003413 -0.5406954
vn 0.616752 2.003413 -0.1851929
vn 1.080051 2.003413 -0.5406954
vn 0.616752 2.003413 -0.1851929
vn 1.109472 2.003412 -0.4696651
vn 0.6777463 2.003413 -0.1383901
vn 1.109472 2.003412 -0.4696651
vn 0.6777463 2.003413 -0.1383901
vn 1.119507 2.003412 -0.393441
vn 0.7487757 2.003413 -0.1089683
vn 1.119507 2.003412 -0.393441
vn 0.7487757 2.003413 -0.1089683
vn 1.109472 2.003412 -0.317217
vn 0.8249999 2.003413 -0.09893367
vn 1.109472 2.003412 -0.317217
vn 0.8249999 2.003413 -0.09893367
vn 1.080051 2.003413 -0.2461874
vn 0.9012243 2.003413 -0.1089689
vn 1.080051 2.003413 -0.2461874
vn 0.9012243 2.003413 -0.1089689
vn 1.033248 2.003413 -0.1851927
vn 0.9722539 2.003413 -0.1383897
vn 1.033248 2.003413 -0.1851927
vn 0.9722539 2.003413 -0.1383897
vn 0.825 2.664048 -0.9469946
vn 0.825 2.664048 -0.9469946
vn 0.9682701 2.664048 -0.9281328
vn 0.9682701 2.664048 -0.9281328
vn 0.6817297 2.664047 -0.9281329
vn 1.101777 2.664047 -0.8728325
vn 0.6817297 2.664047 -0.9281329
vn 1.101777 2.664047 -0.8728325
vn 0.5482231 2.664047 -0.8728327
vn 1.216422 2.664047 -0.7848628
vn 0.5482231 2.664047 -0.8728327
vn 1.216422 2.664047 -0.7848628
vn 0.4335786 2.664048 -0.7848625
vn 1.304391 2.664048 -0.6702178
vn 0.4335786 2.664048 -0.7848625
vn 1.304391 2.664048 -0.6702178
vn 0.3456087 2.664048 -0.6702177
vn 1.359691 2.664049 -0.5367111
vn 0.3456087 2.664048 -0.6702177
vn 1.359691 2.664049 -0.5367111
vn 0.2903082 2.664048 -0.5367112
vn 1.378554 2.664048 -0.393441
vn 0.2903082 2.664048 -0.5367112
vn 1.378554 2.664048 -0.393441
vn 0.2714464 2.664048 -0.393441
vn 1.359692 2.664048 -0.2501708
vn 0.2714464 2.664048 -0.393441
vn 1.359692 2.664048 -0.2501708
vn 0.2903088 2.66405 -0.250171
vn 1.304391 2.664051 -0.1166644
vn 0.2903088 2.66405 -0.250171
vn 1.304391 2.664051 -0.1166644
vn 0.3456096 2.664052 -0.1166645
vn 1.216421 2.664053 -0.002020657
vn 0.3456096 2.664052 -0.1166645
vn 1.216421 2.664053 -0.002020657
vn 0.4335787 2.664049 -0.002019942
vn 1.101776 2.66405 0.08594999
vn 0.4335787 2.664049 -0.002019942
vn 1.101776 2.66405 0.08594999
vn 0.5482234 2.664051 0.0859496
vn 0.9682701 2.664051 0.1412498
vn 0.5482234 2.664051 0.0859496
vn 0.9682701 2.664051 0.1412498
vn 0.6817302 2.664051 0.1412499
vn 0.8249999 2.664051 0.1601117
vn 0.6817302 2.664051 0.1412499
vn 0.8249999 2.664051 0.1601117
vt 0.9571978 0.7772782
vt 0.9571978 0.7227219
vt 0.9505334 0.7235993
vt 0.9505334 0.7764008
vt 0.9430777 0.8299754
vt 0.9368675 0.672597
vt 0.9430777 0.6700246
vt 0.9368675 0.8274031
vt 0.9157996 0.8772225
vt 0.9104668 0.6268696
vt 0.9157996 0.6227775
vt 0.9104668 0.8731304
vt 0.8772225 0.9157996
vt 0.8731304 0.5895333
vt 0.8772225 0.5842004
vt 0.8731304 0.9104668
vt 0.8299754 0.9430777
vt 0.8274031 0.5631326
vt 0.8299754 0.5569224
vt 0.8274031 0.9368675
vt 0.7772781 0.9571978
vt 0.7764007 0.5494666
vt 0.7772781 0.5428022
vt 0.7764007 0.9505334
vt 0.7227218 0.9571978
vt 0.7235993 0.5494666
vt 0.7227219 0.5428022
vt 0.7235992 0.9505334
vt 0.6700246 0.9430777
vt 0.672597 0.5631325
vt 0.6700246 0.5569223
vt 0.6725969 0.9368675
vt 0.6227775 0.9157996
vt 0.6268696 0.5895332
vt 0.6227775 0.5842004
vt 0.6268696 0.9104668
vt 0.5842004 0.8772225
vt 0.5895333 0.6268696
vt 0.5842004 0.6227775
vt 0.5895332 0.8731304
vt 0.5569223 0.8299754
vt 0.5631326 0.6725969
vt 0.5569224 0.6700246
vt 0.5631325 0.827403
vt 0.5428022 0.7772781
vt 0.5494666 0.7235993
vt 0.5428022 0.7227219
vt 0.5494666 0.7764007
vt 0.6473768 0.6162586
vt 0.6162588 0.6473767
vt 0.594255 0.6854883
vt 0.5828651 0.7279962
vt 0.5828651 0.7720038
vt 0.594255 0.8145117
vt 0.6854883 0.594255
vt 0.6162587 0.8526232
vt 0.7279962 0.5828651
vt 0.6473767 0.8837413
vt 0.7720037 0.5828651
vt 0.6854883 0.905745
vt 0.8145117 0.594255
vt 0.7279962 0.9171349
vt 0.8526233 0.6162587
vt 0.7720038 0.9171349
vt 0.8837413 0.6473767
vt 0.8145117 0.905745
vt 0.905745 0.6854883
vt 0.8526233 0.8837413
vt 0.9171349 0.7279963
vt 0.8837413 0.8526233
vt 0.9171349 0.7720038
vt 0.905745 0.8145117
vt 0.8746226 0.6983797
vt 0.8837364 0.7323933
vt 0.8837364 0.7676067
vt 0.8746225 0.8016204
vt 0.8570158 0.8321161
vt 0.8321161 0.8570158
vt 0.8570158 0.6678839
vt 0.8016203 0.8746225
vt 0.8321161 0.6429842
vt 0.7676067 0.8837364
vt 0.8016204 0.6253775
vt 0.7323932 0.8837364
vt 0.7676067 0.6162636
vt 0.6983798 0.8746226
vt 0.7323933 0.6162636
vt 0.6678839 0.8570158
vt 0.6983796 0.6253775
vt 0.6429842 0.832116
vt 0.667884 0.6429841
vt 0.6253775 0.8016204
vt 0.6429843 0.6678839
vt 0.6162636 0.7676067
vt 0.6253775 0.6983796
vt 0.6162636 0.7323932
vt 0.711271 0.6565
vt 0.6883911 0.6697096
vt 0.6697098 0.6883911
vt 0.6565 0.7112709
vt 0.6496621 0.7367902
vt 0.6496621 0.7632097
vt 0.7367903 0.6496621
vt 0.6565 0.7887291
vt 0.7632097 0.6496621
vt 0.6697096 0.8116089
vt 0.788729 0.6564999
vt 0.6883911 0.8302903
vt 0.811609 0.6697096
vt 0.7112711 0.8435001
vt 0.8302903 0.6883911
vt 0.7367902 0.8503379
vt 0.8435001 0.711271
vt 0.7632098 0.8503379
vt 0.8503379 0.7367903
vt 0.788729 0.8435
vt 0.8503379 0.7632098
vt 0.811609 0.8302903
vt 0.8435 0.788729
vt 0.8302904 0.8116089
vt 0.8169394 0.7411873
vt 0.8169394 0.7588127
vt 0.8123776 0.7241624
vt 0.8123776 0.7758376
vt 0.8035648 0.7088982
vt 0.8035649 0.7911018
vt 0.7911018 0.6964351
vt 0.7911018 0.8035648
vt 0.7758377 0.6876224
vt 0.7758375 0.8123776
vt 0.7588127 0.6830606
vt 0.7588128 0.8169394
vt 0.7411873 0.6830606
vt 0.7411872 0.8169394
vt 0.7241623 0.6876225
vt 0.7241625 0.8123776
vt 0.7088984 0.696435
vt 0.7088982 0.8035648
vt 0.6964353 0.7088982
vt 0.6964351 0.7911016
vt 0.6876224 0.7241623
vt 0.6876224 0.7758378
vt 0.6830606 0.7411872
vt 0.6830606 0.7588127
vt 0 0.5
vt 0.04166667 0
vt 0 0
vt 0.04166667 0.5
vt 0.08333334 0
vt 0.08333334 0.5
vt 0.125 0
vt 0.125 0.5
vt 0.1666667 0
vt 0.1666667 0.5
vt 0.2083333 0
vt 0.2083333 0.5
vt 0.25 0
vt 0.25 0.5
vt 0.2916667 0
vt 0.2916667 0.5
vt 0.3333333 0
vt 0.3333333 0.5
vt 0.375 0
vt 0.375 0.5
vt 0.4166667 0
vt 0.4166667 0.5
vt 0.4583333 0
vt 0.4583333 0.5
vt 0.5 0
vt 0.5 0.5
vt 0.5416667 0
vt 0.5416667 0.5
vt 0.5833333 0
vt 0.5833333 0.5
vt 0.625 0
vt 0.625 0.5
vt 0.6666667 0
vt 0.6666667 0.5
vt 0.7083333 0
vt 0.7083333 0.5
vt 0.75 0
vt 0.75 0.5
vt 0.7916667 0
vt 0.7916667 0.5
vt 0.8333333 0
vt 0.8333333 0.5
vt 0.875 0
vt 0.875 0.5
vt 0.9166667 0
vt 0.9166667 0.5
vt 0.9583333 0
vt 0.9583333 0.5
vt 1 0
vt 1 0.5
vt 0.9978612 0.7173685
vt 0.9832374 0.7192937
vt 0.9832374 0.7807063
vt 0.9978612 0.7826316
vt 0.9809699 0.6543292
vt 0.9673427 0.8400263
vt 0.9673427 0.6599737
vt 0.9809699 0.8456709
vt 0.9483383 0.5978097
vt 0.9366364 0.8932111
vt 0.9366364 0.6067889
vt 0.9483383 0.9021904
vt 0.9021904 0.5516617
vt 0.8932111 0.9366364
vt 0.8932111 0.5633636
vt 0.9021903 0.9483383
vt 0.8456709 0.5190302
vt 0.8400263 0.9673427
vt 0.8400263 0.5326574
vt 0.8456709 0.9809699
vt 0.7826316 0.5021388
vt 0.7807063 0.9832374
vt 0.7807063 0.5167626
vt 0.7826315 0.9978612
vt 0.7173685 0.5021388
vt 0.7192937 0.9832374
vt 0.7192937 0.5167626
vt 0.7173684 0.9978612
vt 0.6543292 0.5190301
vt 0.6599737 0.9673427
vt 0.6599737 0.5326573
vt 0.6543291 0.9809699
vt 0.5978097 0.5516617
vt 0.6067889 0.9366364
vt 0.6067889 0.5633636
vt 0.5978096 0.9483383
vt 0.5516617 0.5978096
vt 0.5633636 0.8932111
vt 0.5633636 0.6067889
vt 0.5516617 0.9021903
vt 0.5190302 0.6543291
vt 0.5326573 0.8400263
vt 0.5326574 0.6599737
vt 0.5190301 0.8456708
vt 0.5021388 0.7173684
vt 0.5167626 0.7807063
vt 0.5167626 0.7192937
vt 0.5021388 0.7826315
vt 0.9821214 0.7805594
vt 0.9821214 0.7194406
vt 0.9583138 0.7225749
vt 0.9663028 0.6604045
vt 0.9583138 0.7774251
vt 0.9441176 0.6695939
vt 0.9663028 0.8395956
vt 0.9441176 0.8304062
vt 0.9357434 0.6074741
vt 0.9166926 0.6220923
vt 0.9166926 0.8779077
vt 0.9357434 0.8925259
vt 0.8779077 0.5833074
vt 0.8925259 0.5642566
vt 0.8925259 0.9357434
vt 0.8779077 0.9166926
vt 0.8395956 0.5336973
vt 0.8304062 0.5558825
vt 0.8304062 0.9441176
vt 0.8395956 0.9663028
vt 0.7774251 0.5416862
vt 0.7805594 0.5178786
vt 0.7805594 0.9821214
vt 0.7774251 0.9583138
vt 0.7194406 0.5178786
vt 0.7225749 0.5416862
vt 0.7225749 0.9583138
vt 0.7194406 0.9821214
vt 0.6604044 0.9663028
vt 0.6695938 0.9441176
vt 0.6695939 0.5558824
vt 0.6604045 0.5336972
vt 0.6074741 0.5642566
vt 0.6220923 0.5833074
vt 0.6074741 0.9357434
vt 0.6220923 0.9166926
vt 0.5642566 0.6074741
vt 0.5833074 0.6220923
vt 0.5833074 0.8779077
vt 0.5642566 0.8925259
vt 0.5336972 0.8395955
vt 0.5558824 0.8304061
vt 0.5558825 0.6695938
vt 0.5336973 0.6604044
vt 0.5178786 0.7194406
vt 0.5416862 0.7225749
vt 0.5178786 0.7805594
vt 0.5416862 0.7774251
vt 0.5842004 0.8772225
vt 0.5833074 0.8779077
vt 0.6220923 0.9166926
vt 0.6227775 0.9157996
vt 0.5569223 0.8299754
vt 0.6695938 0.9441176
vt 0.5558824 0.8304061
vt 0.6700246 0.9430777
vt 0.5428022 0.7772781
vt 0.7225749 0.9583138
vt 0.5416862 0.7774251
vt 0.7227218 0.9571978
vt 0.5428022 0.7227219
vt 0.7774251 0.9583138
vt 0.5416862 0.7225749
vt 0.7772781 0.9571978
vt 0.5569224 0.6700246
vt 0.8304062 0.9441176
vt 0.5558825 0.6695938
vt 0.8299754 0.9430777
vt 0.5842004 0.6227775
vt 0.8779077 0.9166926
vt 0.5833074 0.6220923
vt 0.8772225 0.9157996
vt 0.6227775 0.5842004
vt 0.9166926 0.8779077
vt 0.6220923 0.5833074
vt 0.9157996 0.8772225
vt 0.6700246 0.5569223
vt 0.9441176 0.8304062
vt 0.6695939 0.5558824
vt 0.9430777 0.8299754
vt 0.7227219 0.5428022
vt 0.9583138 0.7774251
vt 0.7225749 0.5416862
vt 0.9571978 0.7772782
vt 0.7772781 0.5428022
vt 0.9583138 0.7225749
vt 0.7774251 0.5416862
vt 0.9571978 0.7227219
vt 0.8299754 0.5569224
vt 0.9441176 0.6695939
vt 0.8304062 0.5558825
vt 0.9430777 0.6700246
vt 0.8772225 0.5842004
vt 0.9166926 0.6220923
vt 0.8779077 0.5833074
vt 0.9157996 0.6227775
vt 0.9832374 0.7192937
vt 0.9821214 0.7194406
vt 0.9821214 0.7805594
vt 0.9832374 0.7807063
vt 0.9673427 0.6599737
vt 0.9663028 0.8395956
vt 0.9663028 0.6604045
vt 0.9673427 0.8400263
vt 0.9366364 0.6067889
vt 0.9357434 0.8925259
vt 0.9357434 0.6074741
vt 0.9366364 0.8932111
vt 0.8932111 0.5633636
vt 0.8925259 0.9357434
vt 0.8925259 0.5642566
vt 0.8932111 0.9366364
vt 0.8400263 0.5326574
vt 0.8395956 0.9663028
vt 0.8395956 0.5336973
vt 0.8400263 0.9673427
vt 0.7807063 0.5167626
vt 0.7805594 0.9821214
vt 0.7805594 0.5178786
vt 0.7807063 0.9832374
vt 0.7192937 0.5167626
vt 0.7194406 0.9821214
vt 0.7194406 0.5178786
vt 0.7192937 0.9832374
vt 0.6599737 0.5326573
vt 0.6604044 0.9663028
vt 0.6604045 0.5336972
vt 0.6599737 0.9673427
vt 0.6067889 0.5633636
vt 0.6074741 0.9357434
vt 0.6074741 0.5642566
vt 0.6067889 0.9366364
vt 0.5633636 0.6067889
vt 0.5642566 0.8925259
vt 0.5642566 0.6074741
vt 0.5633636 0.8932111
vt 0.5326574 0.6599737
vt 0.5336972 0.8395955
vt 0.5336973 0.6604044
vt 0.5326573 0.8400263
vt 0.5167626 0.7192937
vt 0.5178786 0.7805594
vt 0.5178786 0.7194406
vt 0.5167626 0.7807063
usemtl Light2
f 389/389/389 388/388/388 387/387/387
f 390/390/390 389/389/389 387/387/387
f 390/390/390 387/387/387 391/391/391
f 389/389/389 392/392/392 388/388/388
f 392/392/392 393/393/393 388/388/388
f 394/394/394 390/390/390 391/391/391
f 394/394/394 391/391/391 395/395/395
f 392/392/392 396/396/396 393/393/393
f 396/396/396 397/397/397 393/393/393
f 398/398/398 394/394/394 395/395/395
f 398/398/398 395/395/395 399/399/399
f 396/396/396 400/400/400 397/397/397
f 400/400/400 401/401/401 397/397/397
f 402/402/402 398/398/398 399/399/399
f 402/402/402 399/399/399 403/403/403
f 400/400/400 404/404/404 401/401/401
f 404/404/404 405/405/405 401/401/401
f 406/406/406 402/402/402 403/403/403
f 406/406/406 403/403/403 407/407/407
f 404/404/404 408/408/408 405/405/405
f 408/408/408 409/409/409 405/405/405
f 410/410/410 406/406/406 407/407/407
f 410/410/410 407/407/407 411/411/411
f 408/408/408 412/412/412 409/409/409
f 412/412/412 413/413/413 409/409/409
f 414/414/414 410/410/410 411/411/411
f 414/414/414 411/411/411 415/415/415
f 412/412/412 416/416/416 413/413/413
f 416/416/416 417/417/417 413/413/413
f 418/418/418 414/414/414 415/415/415
f 418/418/418 415/415/415 419/419/419
f 416/416/416 420/420/420 417/417/417
f 420/420/420 421/421/421 417/417/417
f 422/422/422 418/418/418 419/419/419
f 422/422/422 419/419/419 423/423/423
f 420/420/420 424/424/424 421/421/421
f 424/424/424 425/425/425 421/421/421
f 426/426/426 422/422/422 423/423/423
f 426/426/426 423/423/423 427/427/427
f 424/424/424 428/428/428 425/425/425
f 428/428/428 429/429/429 425/425/425
f 430/430/430 426/426/426 427/427/427
f 430/430/430 427/427/427 431/431/431
f 428/428/428 432/432/432 429/429/429
f 432/432/432 433/433/433 429/429/429
f 434/434/434 431/431/431 433/433/433
f 434/434/434 430/430/430 431/431/431
f 432/432/432 434/434/434 433/433/433
f 424/424/424 420/420/420 435/435/435
f 428/428/428 424/424/424 436/436/436
f 436/436/436 424/424/424 435/435/435
f 432/432/432 428/428/428 437/437/437
f 437/437/437 428/428/428 436/436/436
f 434/434/434 432/432/432 438/438/438
f 438/438/438 432/432/432 437/437/437
f 430/430/430 434/434/434 439/439/439
f 439/439/439 434/434/434 438/438/438
f 426/426/426 430/430/430 440/440/440
f 440/440/440 430/430/430 439/439/439
f 435/435/435 420/420/420 441/441/441
f 420/420/420 416/416/416 441/441/441
f 442/442/442 426/426/426 440/440/440
f 422/422/422 426/426/426 442/442/442
f 441/441/441 416/416/416 443/443/443
f 416/416/416 412/412/412 443/443/443
f 444/444/444 422/422/422 442/442/442
f 418/418/418 422/422/422 444/444/444
f 443/443/443 412/412/412 445/445/445
f 412/412/412 408/408/408 445/445/445
f 446/446/446 418/418/418 444/444/444
f 414/414/414 418/418/418 446/446/446
f 445/445/445 408/408/408 447/447/447
f 408/408/408 404/404/404 447/447/447
f 448/448/448 414/414/414 446/446/446
f 410/410/410 414/414/414 448/448/448
f 447/447/447 404/404/404 449/449/449
f 404/404/404 400/400/400 449/449/449
f 450/450/450 410/410/410 448/448/448
f 406/406/406 410/410/410 450/450/450
f 449/449/449 400/400/400 451/451/451
f 400/400/400 396/396/396 451/451/451
f 452/452/452 406/406/406 450/450/450
f 402/402/402 406/406/406 452/452/452
f 451/451/451 396/396/396 453/453/453
f 396/396/396 392/392/392 453/453/453
f 454/454/454 402/402/402 452/452/452
f 398/398/398 402/402/402 454/454/454
f 453/453/453 392/392/392 455/455/455
f 392/392/392 389/389/389 455/455/455
f 456/456/456 398/398/398 454/454/454
f 394/394/394 398/398/398 456/456/456
f 455/455/455 389/389/389 457/457/457
f 389/389/389 390/390/390 457/457/457
f 390/390/390 394/394/394 458/458/458
f 458/458/458 394/394/394 456/456/456
f 457/457/457 390/390/390 458/458/458
f 451/451/451 453/453/453 459/459/459
f 453/453/453 455/455/455 460/460/460
f 459/459/459 453/453/453 460/460/460
f 455/455/455 457/457/457 461/461/461
f 460/460/460 455/455/455 461/461/461
f 457/457/457 458/458/458 462/462/462
f 461/461/461 457/457/457 462/462/462
f 458/458/458 456/456/456 463/463/463
f 462/462/462 458/458/458 463/463/463
f 456/456/456 454/454/454 464/464/464
f 463/463/463 456/456/456 464/464/464
f 465/465/465 451/451/451 459/459/459
f 449/449/449 451/451/451 465/465/465
f 464/464/464 454/454/454 466/466/466
f 454/454/454 452/452/452 466/466/466
f 467/467/467 449/449/449 465/465/465
f 447/447/447 449/449/449 467/467/467
f 466/466/466 452/452/452 468/468/468
f 452/452/452 450/450/450 468/468/468
f 469/469/469 447/447/447 467/467/467
f 445/445/445 447/447/447 469/469/469
f 468/468/468 450/450/450 470/470/470
f 450/450/450 448/448/448 470/470/470
f 471/471/471 445/445/445 469/469/469
f 443/443/443 445/445/445 471/471/471
f 470/470/470 448/448/448 472/472/472
f 448/448/448 446/446/446 472/472/472
f 473/473/473 443/443/443 471/471/471
f 441/441/441 443/443/443 473/473/473
f 472/472/472 446/446/446 474/474/474
f 446/446/446 444/444/444 474/474/474
f 475/475/475 441/441/441 473/473/473
f 435/435/435 441/441/441 475/475/475
f 474/474/474 444/444/444 476/476/476
f 444/444/444 442/442/442 476/476/476
f 477/477/477 435/435/435 475/475/475
f 436/436/436 435/435/435 477/477/477
f 476/476/476 442/442/442 478/478/478
f 442/442/442 440/440/440 478/478/478
f 479/479/479 436/436/436 477/477/477
f 437/437/437 436/436/436 479/479/479
f 478/478/478 440/440/440 480/480/480
f 440/440/440 439/439/439 480/480/480
f 481/481/481 437/437/437 479/479/479
f 438/438/438 437/437/437 481/481/481
f 439/439/439 438/438/438 482/482/482
f 480/480/480 439/439/439 482/482/482
f 482/482/482 438/438/438 481/481/481
f 477/477/477 475/475/475 483/483/483
f 479/479/479 477/477/477 484/484/484
f 484/484/484 477/477/477 483/483/483
f 481/481/481 479/479/479 485/485/485
f 485/485/485 479/479/479 484/484/484
f 482/482/482 481/481/481 486/486/486
f 486/486/486 481/481/481 485/485/485
f 480/480/480 482/482/482 487/487/487
f 487/487/487 482/482/482 486/486/486
f 478/478/478 480/480/480 488/488/488
f 488/488/488 480/480/480 487/487/487
f 483/483/483 475/475/475 489/489/489
f 475/475/475 473/473/473 489/489/489
f 490/490/490 478/478/478 488/488/488
f 476/476/476 478/478/478 490/490/490
f 489/489/489 473/473/473 491/491/491
f 473/473/473 471/471/471 491/491/491
f 492/492/492 476/476/476 490/490/490
f 474/474/474 476/476/476 492/492/492
f 491/491/491 471/471/471 493/493/493
f 471/471/471 469/469/469 493/493/493
f 494/494/494 474/474/474 492/492/492
f 472/472/472 474/474/474 494/494/494
f 493/493/493 469/469/469 495/495/495
f 469/469/469 467/467/467 495/495/495
f 496/496/496 472/472/472 494/494/494
f 470/470/470 472/472/472 496/496/496
f 495/495/495 467/467/467 497/497/497
f 467/467/467 465/465/465 497/497/497
f 498/498/498 470/470/470 496/496/496
f 468/468/468 470/470/470 498/498/498
f 497/497/497 465/465/465 499/499/499
f 465/465/465 459/459/459 499/499/499
f 500/500/500 468/468/468 498/498/498
f 466/466/466 468/468/468 500/500/500
f 499/499/499 459/459/459 501/501/501
f 459/459/459 460/460/460 501/501/501
f 502/502/502 466/466/466 500/500/500
f 464/464/464 466/466/466 502/502/502
f 501/501/501 460/460/460 503/503/503
f 460/460/460 461/461/461 503/503/503
f 504/504/504 464/464/464 502/502/502
f 463/463/463 464/464/464 504/504/504
f 503/503/503 461/461/461 505/505/505
f 461/461/461 462/462/462 505/505/505
f 462/462/462 463/463/463 506/506/506
f 506/506/506 463/463/463 504/504/504
f 505/505/505 462/462/462 506/506/506
f 499/499/499 501/501/501 507/507/507
f 501/501/501 503/503/503 508/508/508
f 507/507/507 501/501/501 508/508/508
f 509/509/509 499/499/499 507/507/507
f 509/509/509 507/507/507 508/508/508
f 497/497/497 499/499/499 509/509/509
f 508/508/508 503/503/503 510/510/510
f 503/503/503 505/505/505 510/510/510
f 508/508/508 510/510/510 509/509/509
f 511/511/511 497/497/497 509/509/509
f 510/510/510 511/511/511 509/509/509
f 495/495/495 497/497/497 511/511/511
f 510/510/510 505/505/505 512/512/512
f 505/505/505 506/506/506 512/512/512
f 510/510/510 512/512/512 511/511/511
f 513/513/513 495/495/495 511/511/511
f 512/512/512 513/513/513 511/511/511
f 493/493/493 495/495/495 513/513/513
f 512/512/512 506/506/506 514/514/514
f 512/512/512 514/514/514 513/513/513
f 506/506/506 504/504/504 514/514/514
f 515/515/515 493/493/493 513/513/513
f 514/514/514 515/515/515 513/513/513
f 491/491/491 493/493/493 515/515/515
f 514/514/514 504/504/504 516/516/516
f 514/514/514 516/516/516 515/515/515
f 504/504/504 502/502/502 516/516/516
f 517/517/517 491/491/491 515/515/515
f 516/516/516 517/517/517 515/515/515
f 489/489/489 491/491/491 517/517/517
f 516/516/516 502/502/502 518/518/518
f 516/516/516 518/518/518 517/517/517
f 502/502/502 500/500/500 518/518/518
f 519/519/519 489/489/489 517/517/517
f 518/518/518 519/519/519 517/517/517
f 483/483/483 489/489/489 519/519/519
f 518/518/518 500/500/500 520/520/520
f 518/518/518 520/520/520 519/519/519
f 500/500/500 498/498/498 520/520/520
f 521/521/521 483/483/483 519/519/519
f 520/520/520 521/521/521 519/519/519
f 484/484/484 483/483/483 521/521/521
f 520/520/520 498/498/498 522/522/522
f 520/520/520 522/522/522 521/521/521
f 498/498/498 496/496/496 522/522/522
f 523/523/523 484/484/484 521/521/521
f 522/522/522 523/523/523 521/521/521
f 485/485/485 484/484/484 523/523/523
f 522/522/522 496/496/496 524/524/524
f 522/522/522 524/524/524 523/523/523
f 496/496/496 494/494/494 524/524/524
f 525/525/525 485/485/485 523/523/523
f 524/524/524 525/525/525 523/523/523
f 486/486/486 485/485/485 525/525/525
f 524/524/524 494/494/494 526/526/526
f 524/524/524 526/526/526 525/525/525
f 494/494/494 492/492/492 526/526/526
f 527/527/527 486/486/486 525/525/525
f 526/526/526 527/527/527 525/525/525
f 487/487/487 486/486/486 527/527/527
f 526/526/526 492/492/492 528/528/528
f 526/526/526 528/528/528 527/527/527
f 492/492/492 490/490/490 528/528/528
f 529/529/529 487/487/487 527/527/527
f 528/528/528 529/529/529 527/527/527
f 488/488/488 487/487/487 529/529/529
f 490/490/490 488/488/488 530/530/530
f 528/528/528 490/490/490 530/530/530
f 528/528/528 530/530/530 529/529/529
f 530/530/530 488/488/488 529/529/529
usemtl Metal_chrome_mat
f 533/533/533 532/532/532 531/531/531
f 532/532/532 534/534/534 531/531/531
f 532/532/532 535/535/535 534/534/534
f 535/535/535 536/536/536 534/534/534
f 535/535/535 537/537/537 536/536/536
f 537/537/537 538/538/538 536/536/536
f 537/537/537 539/539/539 538/538/538
f 539/539/539 540/540/540 538/538/538
f 539/539/539 541/541/541 540/540/540
f 541/541/541 542/542/542 540/540/540
f 541/541/541 543/543/543 542/542/542
f 543/543/543 544/544/544 542/542/542
f 543/543/543 545/545/545 544/544/544
f 545/545/545 546/546/546 544/544/544
f 545/545/545 547/547/547 546/546/546
f 547/547/547 548/548/548 546/546/546
f 547/547/547 549/549/549 548/548/548
f 549/549/549 550/550/550 548/548/548
f 549/549/549 551/551/551 550/550/550
f 551/551/551 552/552/552 550/550/550
f 551/551/551 553/553/553 552/552/552
f 553/553/553 554/554/554 552/552/552
f 553/553/553 555/555/555 554/554/554
f 555/555/555 556/556/556 554/554/554
f 555/555/555 557/557/557 556/556/556
f 557/557/557 558/558/558 556/556/556
f 557/557/557 559/559/559 558/558/558
f 559/559/559 560/560/560 558/558/558
f 559/559/559 561/561/561 560/560/560
f 561/561/561 562/562/562 560/560/560
f 561/561/561 563/563/563 562/562/562
f 563/563/563 564/564/564 562/562/562
f 563/563/563 565/565/565 564/564/564
f 565/565/565 566/566/566 564/564/564
f 565/565/565 567/567/567 566/566/566
f 567/567/567 568/568/568 566/566/566
f 567/567/567 569/569/569 568/568/568
f 569/569/569 570/570/570 568/568/568
f 569/569/569 571/571/571 570/570/570
f 571/571/571 572/572/572 570/570/570
f 571/571/571 573/573/573 572/572/572
f 573/573/573 574/574/574 572/572/572
f 573/573/573 575/575/575 574/574/574
f 575/575/575 576/576/576 574/574/574
f 575/575/575 577/577/577 576/576/576
f 577/577/577 578/578/578 576/576/576
f 577/577/577 579/579/579 578/578/578
f 579/579/579 580/580/580 578/578/578
f 583/583/583 582/582/582 581/581/581
f 584/584/584 583/583/583 581/581/581
f 581/581/581 582/582/582 585/585/585
f 586/586/586 583/583/583 584/584/584
f 582/582/582 587/587/587 585/585/585
f 588/588/588 586/586/586 584/584/584
f 585/585/585 587/587/587 589/589/589
f 590/590/590 586/586/586 588/588/588
f 587/587/587 591/591/591 589/589/589
f 592/592/592 590/590/590 588/588/588
f 589/589/589 591/591/591 593/593/593
f 594/594/594 590/590/590 592/592/592
f 591/591/591 595/595/595 593/593/593
f 596/596/596 594/594/594 592/592/592
f 593/593/593 595/595/595 597/597/597
f 598/598/598 594/594/594 596/596/596
f 595/595/595 599/599/599 597/597/597
f 600/600/600 598/598/598 596/596/596
f 597/597/597 599/599/599 601/601/601
f 602/602/602 598/598/598 600/600/600
f 599/599/599 603/603/603 601/601/601
f 604/604/604 602/602/602 600/600/600
f 601/601/601 603/603/603 605/605/605
f 606/606/606 602/602/602 604/604/604
f 603/603/603 607/607/607 605/605/605
f 608/608/608 606/606/606 604/604/604
f 605/605/605 607/607/607 609/609/609
f 610/610/610 606/606/606 608/608/608
f 607/607/607 611/611/611 609/609/609
f 612/612/612 610/610/610 608/608/608
f 609/609/609 611/611/611 613/613/613
f 614/614/614 610/610/610 612/612/612
f 611/611/611 615/615/615 613/613/613
f 616/616/616 614/614/614 612/612/612
f 613/613/613 615/615/615 617/617/617
f 618/618/618 614/614/614 616/616/616
f 615/615/615 619/619/619 617/617/617
f 620/620/620 618/618/618 616/616/616
f 617/617/617 619/619/619 621/621/621
f 622/622/622 618/618/618 620/620/620
f 619/619/619 623/623/623 621/621/621
f 624/624/624 622/622/622 620/620/620
f 621/621/621 623/623/623 625/625/625
f 626/626/626 622/622/622 624/624/624
f 623/623/623 627/627/627 625/625/625
f 628/628/628 626/626/626 624/624/624
f 625/625/625 627/627/627 628/628/628
f 627/627/627 626/626/626 628/628/628
usemtl Brass_Mat
f 631/631/631 630/630/630 629/629/629
f 630/630/630 631/631/631 632/632/632
f 633/633/633 631/631/631 629/629/629
f 631/631/631 634/634/634 632/632/632
f 633/633/633 629/629/629 635/635/635
f 636/636/636 633/633/633 635/635/635
f 632/632/632 634/634/634 637/637/637
f 634/634/634 638/638/638 637/637/637
f 639/639/639 636/636/636 635/635/635
f 640/640/640 639/639/639 635/635/635
f 638/638/638 641/641/641 637/637/637
f 641/641/641 642/642/642 637/637/637
f 639/639/639 640/640/640 643/643/643
f 644/644/644 639/639/639 643/643/643
f 642/642/642 641/641/641 645/645/645
f 641/641/641 646/646/646 645/645/645
f 647/647/647 644/644/644 643/643/643
f 648/648/648 647/647/647 643/643/643
f 646/646/646 649/649/649 645/645/645
f 649/649/649 650/650/650 645/645/645
f 647/647/647 648/648/648 651/651/651
f 652/652/652 647/647/647 651/651/651
f 650/650/650 649/649/649 653/653/653
f 649/649/649 654/654/654 653/653/653
f 655/655/655 652/652/652 651/651/651
f 656/656/656 655/655/655 651/651/651
f 655/655/655 656/656/656 657/657/657
f 658/658/658 655/655/655 657/657/657
f 654/654/654 659/659/659 653/653/653
f 659/659/659 660/660/660 653/653/653
f 660/660/660 659/659/659 661/661/661
f 659/659/659 662/662/662 661/661/661
f 658/658/658 657/657/657 663/663/663
f 664/664/664 658/658/658 663/663/663
f 661/661/661 662/662/662 665/665/665
f 662/662/662 666/666/666 665/665/665
f 667/667/667 664/664/664 663/663/663
f 668/668/668 667/667/667 663/663/663
f 667/667/667 668/668/668 669/669/669
f 670/670/670 667/667/667 669/669/669
f 666/666/666 671/671/671 665/665/665
f 671/671/671 672/672/672 665/665/665
f 672/672/672 671/671/671 673/673/673
f 671/671/671 674/674/674 673/673/673
f 670/670/670 669/669/669 675/675/675
f 673/673/673 674/674/674 675/675/675
f 676/676/676 670/670/670 675/675/675
f 674/674/674 676/676/676 675/675/675
f 679/679/679 678/678/678 677/677/677
f 680/680/680 679/679/679 677/677/677
f 677/677/677 678/678/678 681/681/681
f 682/682/682 679/679/679 680/680/680
f 678/678/678 683/683/683 681/681/681
f 684/684/684 682/682/682 680/680/680
f 681/681/681 683/683/683 685/685/685
f 686/686/686 682/682/682 684/684/684
f 683/683/683 687/687/687 685/685/685
f 688/688/688 686/686/686 684/684/684
f 685/685/685 687/687/687 689/689/689
f 690/690/690 686/686/686 688/688/688
f 687/687/687 691/691/691 689/689/689
f 692/692/692 690/690/690 688/688/688
f 689/689/689 691/691/691 693/693/693
f 694/694/694 690/690/690 692/692/692
f 691/691/691 695/695/695 693/693/693
f 696/696/696 694/694/694 692/692/692
f 693/693/693 695/695/695 697/697/697
f 698/698/698 694/694/694 696/696/696
f 695/695/695 699/699/699 697/697/697
f 700/700/700 698/698/698 696/696/696
f 697/697/697 699/699/699 701/701/701
f 702/702/702 698/698/698 700/700/700
f 699/699/699 703/703/703 701/701/701
f 704/704/704 702/702/702 700/700/700
f 701/701/701 703/703/703 705/705/705
f 706/706/706 702/702/702 704/704/704
f 703/703/703 707/707/707 705/705/705
f 708/708/708 706/706/706 704/704/704
f 705/705/705 707/707/707 709/709/709
f 710/710/710 706/706/706 708/708/708
f 707/707/707 711/711/711 709/709/709
f 712/712/712 710/710/710 708/708/708
f 709/709/709 711/711/711 713/713/713
f 714/714/714 710/710/710 712/712/712
f 711/711/711 715/715/715 713/713/713
f 716/716/716 714/714/714 712/712/712
f 713/713/713 715/715/715 717/717/717
f 718/718/718 714/714/714 716/716/716
f 715/715/715 719/719/719 717/717/717
f 720/720/720 718/718/718 716/716/716
f 717/717/717 719/719/719 721/721/721
f 722/722/722 718/718/718 720/720/720
f 719/719/719 723/723/723 721/721/721
f 724/724/724 722/722/722 720/720/720
f 721/721/721 723/723/723 724/724/724
f 723/723/723 722/722/722 724/724/724
f 727/727/727 726/726/726 725/725/725
f 728/728/728 727/727/727 725/725/725
f 725/725/725 726/726/726 729/729/729
f 730/730/730 727/727/727 728/728/728
f 726/726/726 731/731/731 729/729/729
f 732/732/732 730/730/730 728/728/728
f 729/729/729 731/731/731 733/733/733
f 734/734/734 730/730/730 732/732/732
f 731/731/731 735/735/735 733/733/733
f 736/736/736 734/734/734 732/732/732
f 733/733/733 735/735/735 737/737/737
f 738/738/738 734/734/734 736/736/736
f 735/735/735 739/739/739 737/737/737
f 740/740/740 738/738/738 736/736/736
f 737/737/737 739/739/739 741/741/741
f 742/742/742 738/738/738 740/740/740
f 739/739/739 743/743/743 741/741/741
f 744/744/744 742/742/742 740/740/740
f 741/741/741 743/743/743 745/745/745
f 746/746/746 742/742/742 744/744/744
f 743/743/743 747/747/747 745/745/745
f 748/748/748 746/746/746 744/744/744
f 745/745/745 747/747/747 749/749/749
f 750/750/750 746/746/746 748/748/748
f 747/747/747 751/751/751 749/749/749
f 752/752/752 750/750/750 748/748/748
f 749/749/749 751/751/751 753/753/753
f 754/754/754 750/750/750 752/752/752
f 751/751/751 755/755/755 753/753/753
f 756/756/756 754/754/754 752/752/752
f 753/753/753 755/755/755 757/757/757
f 758/758/758 754/754/754 756/756/756
f 755/755/755 759/759/759 757/757/757
f 760/760/760 758/758/758 756/756/756
f 757/757/757 759/759/759 761/761/761
f 762/762/762 758/758/758 760/760/760
f 759/759/759 763/763/763 761/761/761
f 764/764/764 762/762/762 760/760/760
f 761/761/761 763/763/763 765/765/765
f 766/766/766 762/762/762 764/764/764
f 763/763/763 767/767/767 765/765/765
f 768/768/768 766/766/766 764/764/764
f 765/765/765 767/767/767 769/769/769
f 770/770/770 766/766/766 768/768/768
f 767/767/767 771/771/771 769/769/769
f 772/772/772 770/770/770 768/768/768
f 769/769/769 771/771/771 772/772/772
f 771/771/771 770/770/770 772/772/772
