mtllib Cabinet_19b27166.mtl
g CabinetDoorMesh_d2a92307
v 0.08362 -0.61056 0.22265
v 0.08472 -0.61513 0.22265
v 0.08472 -0.61513 -0.21863
v 0.08362 -0.61056 0.22265
v 0.08472 -0.61513 -0.21863
v 0.08362 -0.61056 -0.21863
v 0.08681 -0.61386 0.2216
v 0.08681 -0.61522 0.22297
v 0.08681 -0.61386 0.22434
v 0.08681 -0.61056 0.22103
v 0.08681 -0.61056 0.22491
v 0.08681 -0.60726 0.2216
v 0.08681 -0.60726 0.22434
v 0.08681 -0.6059 0.22297
v 0.08681 -0.60726 0.22434
v 0.08681 -0.61056 0.22491
v 0.00353 -0.61056 0.22491
v 0.00353 -0.60726 0.22434
v 0.08681 -0.6059 0.22297
v 0.08681 -0.60726 0.22434
v 0.00353 -0.60726 0.22434
v 0.00353 -0.6059 0.22297
v 0.08681 -0.61386 0.22434
v 0.08681 -0.61522 0.22297
v 0.00353 -0.61522 0.22297
v 0.00353 -0.61386 0.22434
v 0.08681 -0.61056 0.22491
v 0.08681 -0.61386 0.22434
v 0.00353 -0.61386 0.22434
v 0.00353 -0.61056 0.22491
v 0.08681 -0.61386 0.2216
v 0.08681 -0.61056 0.22103
v 0.00353 -0.61056 0.22103
v 0.00353 -0.61386 0.2216
v 0.08681 -0.61522 0.22297
v 0.08681 -0.61386 0.2216
v 0.00353 -0.61386 0.2216
v 0.00353 -0.61522 0.22297
v 0.08681 -0.61056 0.22103
v 0.08681 -0.60726 0.2216
v 0.00353 -0.60726 0.2216
v 0.00353 -0.61056 0.22103
v 0.08681 -0.60726 0.2216
v 0.08681 -0.6059 0.22297
v 0.00353 -0.6059 0.22297
v 0.00353 -0.60726 0.2216
v 0.08681 -0.61386 -0.21937
v 0.08681 -0.61522 -0.218
v 0.08681 -0.61386 -0.21663
v 0.08681 -0.61056 -0.21993
v 0.08681 -0.61056 -0.21606
v 0.08681 -0.60726 -0.21937
v 0.08681 -0.60726 -0.21663
v 0.08681 -0.6059 -0.218
v 0.08681 -0.60726 -0.21663
v 0.08681 -0.61056 -0.21606
v 0.00353 -0.61056 -0.21606
v 0.00353 -0.60726 -0.21663
v 0.08681 -0.6059 -0.218
v 0.08681 -0.60726 -0.21663
v 0.00353 -0.60726 -0.21663
v 0.00353 -0.6059 -0.218
v 0.08681 -0.61386 -0.21663
v 0.08681 -0.61522 -0.218
v 0.00353 -0.61522 -0.218
v 0.00353 -0.61386 -0.21663
v 0.08681 -0.61056 -0.21606
v 0.08681 -0.61386 -0.21663
v 0.00353 -0.61386 -0.21663
v 0.00353 -0.61056 -0.21606
v 0.08681 -0.61386 -0.21937
v 0.08681 -0.61056 -0.21993
v 0.00353 -0.61056 -0.21993
v 0.00353 -0.61386 -0.21937
v 0.08681 -0.61522 -0.218
v 0.08681 -0.61386 -0.21937
v 0.00353 -0.61386 -0.21937
v 0.00353 -0.61522 -0.218
v 0.08681 -0.61056 -0.21993
v 0.08681 -0.60726 -0.21937
v 0.00353 -0.60726 -0.21937
v 0.00353 -0.61056 -0.21993
v 0.08681 -0.60726 -0.21937
v 0.08681 -0.6059 -0.218
v 0.00353 -0.6059 -0.218
v 0.00353 -0.60726 -0.21937
v 0.07835 -0.61056 -0.24562
v 0.07945 -0.61513 -0.24562
v 0.07945 -0.61513 -0.24679
v 0.07835 -0.61056 -0.24679
v 0.07945 -0.61513 -0.24562
v 0.0821 -0.61702 -0.24679
v 0.07945 -0.61513 -0.24679
v 0.0821 -0.61702 -0.24562
v 0.0821 -0.61702 -0.24562
v 0.08475 -0.61513 -0.24679
v 0.0821 -0.61702 -0.24679
v 0.08475 -0.61513 -0.24562
v 0.08475 -0.61513 -0.24562
v 0.08585 -0.61056 -0.24679
v 0.08475 -0.61513 -0.24679
v 0.08585 -0.61056 -0.24562
v 0.08585 -0.61056 -0.24562
v 0.08475 -0.60599 -0.24679
v 0.08585 -0.61056 -0.24679
v 0.08475 -0.60599 -0.24562
v 0.08475 -0.61513 -0.24679
v 0.08585 -0.61056 -0.24679
v 0.08475 -0.60599 -0.24679
v 0.0821 -0.61702 -0.24679
v 0.0821 -0.6041 -0.24679
v 0.07945 -0.61513 -0.24679
v 0.07945 -0.60599 -0.24679
v 0.07835 -0.61056 -0.24679
v 0.08475 -0.60599 -0.24562
v 0.0821 -0.6041 -0.24679
v 0.08475 -0.60599 -0.24679
v 0.0821 -0.6041 -0.24562
v 0.0821 -0.6041 -0.24562
v 0.07945 -0.60599 -0.24679
v 0.0821 -0.6041 -0.24679
v 0.07945 -0.60599 -0.24562
v 0.07945 -0.60599 -0.24562
v 0.07835 -0.61056 -0.24562
v 0.07835 -0.61056 -0.24679
v 0.07945 -0.60599 -0.24679
v 0.08472 -0.60599 -0.21863
v 0.07835 -0.61056 -0.24562
v 0.07945 -0.60599 -0.24562
v 0.08362 -0.61056 -0.21863
v 0.08472 -0.60599 0.22265
v 0.08362 -0.61056 -0.21863
v 0.08472 -0.60599 -0.21863
v 0.08362 -0.61056 0.22265
v 0.08737 -0.6041 0.22265
v 0.08472 -0.60599 0.22265
v 0.08472 -0.60599 -0.21863
v 0.08737 -0.6041 -0.21863
v 0.08737 -0.6041 -0.21863
v 0.08472 -0.60599 -0.21863
v 0.07945 -0.60599 -0.24562
v 0.0821 -0.6041 -0.24562
v 0.09002 -0.60599 0.22265
v 0.08737 -0.6041 0.22265
v 0.08737 -0.6041 -0.21863
v 0.09002 -0.60599 -0.21863
v 0.09002 -0.60599 -0.21863
v 0.08737 -0.6041 -0.21863
v 0.0821 -0.6041 -0.24562
v 0.08475 -0.60599 -0.24562
v 0.09112 -0.61056 0.22265
v 0.09002 -0.60599 0.22265
v 0.09002 -0.60599 -0.21863
v 0.09112 -0.61056 -0.21863
v 0.09112 -0.61056 -0.21863
v 0.09002 -0.60599 -0.21863
v 0.08475 -0.60599 -0.24562
v 0.08585 -0.61056 -0.24562
v 0.09002 -0.61513 0.22265
v 0.09112 -0.61056 0.22265
v 0.09112 -0.61056 -0.21863
v 0.09002 -0.61513 -0.21863
v 0.08737 -0.61702 0.22265
v 0.09002 -0.61513 0.22265
v 0.09002 -0.61513 -0.21863
v 0.08737 -0.61702 -0.21863
v 0.08472 -0.61513 0.22265
v 0.08737 -0.61702 0.22265
v 0.08737 -0.61702 -0.21863
v 0.08472 -0.61513 -0.21863
v 0.09002 -0.61513 -0.21863
v 0.09112 -0.61056 -0.21863
v 0.08585 -0.61056 -0.24562
v 0.08475 -0.61513 -0.24562
v 0.08737 -0.61702 -0.21863
v 0.09002 -0.61513 -0.21863
v 0.08475 -0.61513 -0.24562
v 0.0821 -0.61702 -0.24562
v 0.08472 -0.61513 -0.21863
v 0.08737 -0.61702 -0.21863
v 0.0821 -0.61702 -0.24562
v 0.07945 -0.61513 -0.24562
v 0.08362 -0.61056 -0.21863
v 0.08472 -0.61513 -0.21863
v 0.07945 -0.61513 -0.24562
v 0.07835 -0.61056 -0.24562
v 0.07945 -0.61513 0.24961
v 0.08737 -0.61702 0.22265
v 0.08472 -0.61513 0.22265
v 0.0821 -0.61702 0.24961
v 0.07835 -0.61056 0.24961
v 0.07945 -0.61513 0.24961
v 0.08472 -0.61513 0.22265
v 0.08362 -0.61056 0.22265
v 0.0821 -0.61702 0.24961
v 0.09002 -0.61513 0.22265
v 0.08737 -0.61702 0.22265
v 0.08475 -0.61513 0.24961
v 0.08475 -0.61513 0.24961
v 0.09112 -0.61056 0.22265
v 0.09002 -0.61513 0.22265
v 0.08585 -0.61056 0.24961
v 0.08585 -0.61056 0.24961
v 0.09002 -0.60599 0.22265
v 0.09112 -0.61056 0.22265
v 0.08475 -0.60599 0.24961
v 0.08475 -0.60599 0.24961
v 0.08737 -0.6041 0.22265
v 0.09002 -0.60599 0.22265
v 0.0821 -0.6041 0.24961
v 0.0821 -0.6041 0.24961
v 0.08472 -0.60599 0.22265
v 0.08737 -0.6041 0.22265
v 0.07945 -0.60599 0.24961
v 0.07945 -0.60599 0.24961
v 0.07835 -0.61056 0.24961
v 0.08362 -0.61056 0.22265
v 0.08472 -0.60599 0.22265
v 0.07945 -0.60599 0.25143
v 0.07835 -0.61056 0.24961
v 0.07945 -0.60599 0.24961
v 0.07835 -0.61056 0.25143
v 0.07835 -0.61056 0.25143
v 0.07945 -0.61513 0.24961
v 0.07835 -0.61056 0.24961
v 0.07945 -0.61513 0.25143
v 0.07945 -0.61513 0.25143
v 0.07835 -0.61056 0.25143
v 0.07945 -0.60599 0.25143
v 0.0821 -0.61702 0.25143
v 0.0821 -0.6041 0.25143
v 0.08475 -0.61513 0.25143
v 0.08475 -0.60599 0.25143
v 0.08585 -0.61056 0.25143
v 0.0821 -0.61702 0.25143
v 0.08475 -0.61513 0.24961
v 0.0821 -0.61702 0.24961
v 0.08475 -0.61513 0.25143
v 0.07945 -0.61513 0.25143
v 0.0821 -0.61702 0.25143
v 0.0821 -0.61702 0.24961
v 0.07945 -0.61513 0.24961
v 0.0821 -0.6041 0.25143
v 0.07945 -0.60599 0.25143
v 0.07945 -0.60599 0.24961
v 0.0821 -0.6041 0.24961
v 0.08475 -0.61513 0.25143
v 0.08585 -0.61056 0.24961
v 0.08475 -0.61513 0.24961
v 0.08585 -0.61056 0.25143
v 0.08475 -0.60599 0.25143
v 0.0821 -0.6041 0.25143
v 0.0821 -0.6041 0.24961
v 0.08475 -0.60599 0.24961
v 0.08585 -0.61056 0.25143
v 0.08475 -0.60599 0.25143
v 0.08475 -0.60599 0.24961
v 0.08585 -0.61056 0.24961
v -0.00659 -0.00208 0.39403
v -0.00659 -0.64249 0.39403
v -0.00659 -0.64249 -0.3941
v -0.00659 -0.00208 -0.3941
v -0.00659 -0.00208 -0.3941
v 0.00232 -0.00208 0.39403
v -0.00659 -0.00208 0.39403
v 0.00232 -0.00208 -0.3941
v -0.00659 -0.64249 -0.3941
v 0.00232 -0.00208 -0.3941
v -0.00659 -0.00208 -0.3941
v 0.00232 -0.64249 -0.3941
v -0.00659 -0.64249 0.39403
v 0.00232 -0.64249 -0.3941
v -0.00659 -0.64249 -0.3941
v 0.00232 -0.64249 0.39403
v -0.00659 -0.00208 0.39403
v 0.00232 -0.00208 0.39403
v 0.00232 -0.64249 0.39403
v -0.00659 -0.64249 0.39403
v 0.00232 -0.00208 -0.3941
v 0.01034 -0.01082 0.38529
v 0.00232 -0.00208 0.39403
v 0.01034 -0.01082 -0.38536
v 0.01034 -0.01082 -0.38536
v 0.00232 -0.00208 -0.3941
v 0.00232 -0.64249 -0.3941
v 0.01034 -0.63375 -0.38536
v 0.00232 -0.64249 0.39403
v 0.01034 -0.63375 -0.38536
v 0.00232 -0.64249 -0.3941
v 0.01034 -0.63375 0.38529
v 0.00232 -0.00208 0.39403
v 0.01034 -0.01082 0.38529
v 0.01034 -0.63375 0.38529
v 0.00232 -0.64249 0.39403
v 0.01034 -0.05738 -0.3388
v 0.00814 -0.05977 0.33634
v 0.01034 -0.05738 0.33873
v 0.00814 -0.05977 -0.33641
v 0.00814 -0.05977 -0.33641
v 0.01034 -0.05738 -0.3388
v 0.01034 -0.58719 -0.3388
v 0.00814 -0.5848 -0.33641
v 0.01034 -0.58719 0.33873
v 0.00814 -0.5848 -0.33641
v 0.01034 -0.58719 -0.3388
v 0.00814 -0.5848 0.33634
v 0.00814 -0.5848 -0.33641
v 0.00332 -0.05977 -0.33641
v 0.00814 -0.05977 -0.33641
v 0.00332 -0.5848 -0.33641
v 0.00814 -0.5848 0.33634
v 0.00332 -0.5848 -0.33641
v 0.00814 -0.5848 -0.33641
v 0.00332 -0.5848 0.33634
v 0.01034 -0.05738 0.33873
v 0.00814 -0.05977 0.33634
v 0.00814 -0.5848 0.33634
v 0.01034 -0.58719 0.33873
v 0.00814 -0.05977 0.33634
v 0.00332 -0.5848 0.33634
v 0.00814 -0.5848 0.33634
v 0.00332 -0.05977 0.33634
v 0.00814 -0.05977 -0.33641
v 0.00332 -0.05977 -0.33641
v 0.00332 -0.05977 0.33634
v 0.00814 -0.05977 0.33634
v 0.01034 -0.05738 0.33873
v 0.01034 -0.01082 0.38529
v 0.01034 -0.01082 -0.38536
v 0.01034 -0.05738 -0.3388
v 0.01034 -0.58719 0.33873
v 0.01034 -0.63375 -0.38536
v 0.01034 -0.63375 0.38529
v 0.01034 -0.58719 -0.3388
v 0.00332 -0.05977 0.33634
v 0.00332 -0.05977 -0.33641
v 0.00332 -0.5848 -0.33641
v 0.00332 -0.5848 0.33634
vn -0.972329 -0.2336159 -3.678943E-07
vn -0.972329 -0.2336159 -3.678944E-07
vn -0.972329 -0.2336159 -3.678944E-07
vn -0.9723201 -0.233653 -3.678787E-07
vn -0.9723201 -0.233653 -3.678787E-07
vn -0.9723201 -0.233653 -3.678787E-07
vn 1 0.0001019472 0
vn 1 0.0001019472 0
vn 1 0.0001019472 0
vn 1 -8.446659E-05 0
vn 1 1.493429E-05 0
vn 1 0 0
vn 1 6.334994E-05 0
vn 1 0 0
vn 0 0.1695967 0.9855136
vn 0 0.1695967 0.9855136
vn 0 0.1695967 0.9855136
vn 0 0.1695967 0.9855136
vn 0 0.7083597 0.7058517
vn 0 0.7083597 0.7058517
vn 0 0.7083597 0.7058516
vn -1.18409E-06 0.7083797 0.7058316
vn 0 -0.7082281 0.7059836
vn 0 -0.7082282 0.7059836
vn 0 -0.7082282 0.7059835
vn 0 -0.7083039 0.7059076
vn 0 -0.1696113 0.9855111
vn 0 -0.1696113 0.9855111
vn 0 -0.1696113 0.9855111
vn 0 -0.1696113 0.9855111
vn 0 -0.1695891 -0.9855149
vn 0 -0.1695891 -0.9855149
vn 0 -0.1695891 -0.9855149
vn 0 -0.1696113 -0.9855111
vn 0 -0.7082638 -0.7059479
vn 0 -0.7082638 -0.7059479
vn 0 -0.7082638 -0.7059479
vn 0 -0.7081892 -0.7060227
vn 2.738512E-06 0.1695967 -0.9855136
vn 2.738512E-06 0.1695967 -0.9855136
vn 2.738512E-06 0.1695967 -0.9855136
vn 0 0.1695967 -0.9855136
vn 1.184158E-06 0.7083396 -0.7058718
vn 1.184158E-06 0.7083396 -0.7058718
vn 1.184158E-06 0.7083396 -0.7058718
vn 0 0.7083407 -0.7058706
vn 1 -0.0001019862 0
vn 1 -0.0001019862 0
vn 1 -0.0001019862 0
vn 1 0 0
vn 1 -7.467145E-06 0
vn 1 0 0
vn 1 1.055788E-05 0
vn 1 0.0001019524 0
vn 0 0.1695851 0.9855156
vn 0 0.169585 0.9855156
vn 0 0.1695851 0.9855156
vn -4.107373E-06 0.1696366 0.9855067
vn -1.776071E-06 0.7082544 0.7059574
vn -1.776071E-06 0.7082544 0.7059574
vn -1.776071E-06 0.7082544 0.7059574
vn -1.775908E-06 0.708168 0.706044
vn -1.776261E-06 -0.7083302 0.7058813
vn -1.776261E-06 -0.7083302 0.7058813
vn -1.776261E-06 -0.7083302 0.7058813
vn -1.776288E-06 -0.7083196 0.7058919
vn -3.423737E-06 -0.1696143 0.9855105
vn -3.423737E-06 -0.1696144 0.9855105
vn -3.423737E-06 -0.1696143 0.9855105
vn 0 -0.1696659 0.9855016
vn 0 -0.1696665 -0.9855016
vn 0 -0.1696665 -0.9855016
vn 0 -0.1696665 -0.9855016
vn 2.054238E-06 -0.1696253 -0.9855086
vn 1.776237E-06 -0.7083396 -0.7058718
vn 1.776237E-06 -0.7083396 -0.7058718
vn 1.776237E-06 -0.7083396 -0.7058718
vn 1.776237E-06 -0.7083396 -0.7058718
vn 2.053686E-06 0.1696372 -0.9855065
vn 2.053686E-06 0.1696372 -0.9855065
vn 2.053686E-06 0.1696372 -0.9855065
vn 0 0.169596 -0.9855137
vn 1.775857E-06 0.7081881 -0.7060239
vn 1.775857E-06 0.7081881 -0.7060239
vn 1.775857E-06 0.7081881 -0.7060239
vn 1.776047E-06 0.7082638 -0.7059479
vn -0.9723193 -0.233656 0
vn -0.9723193 -0.233656 0
vn -0.9723193 -0.233656 0
vn -0.9723351 -0.2335905 0
vn -0.5812334 -0.8137369 0
vn -0.5812334 -0.8137369 0
vn -0.5812334 -0.8137369 0
vn -0.5811862 -0.8137707 0
vn 0.5811862 -0.8137707 0
vn 0.5811862 -0.8137707 0
vn 0.5811862 -0.8137707 0
vn 0.5811388 -0.8138044 0
vn 0.9723351 -0.2335904 0
vn 0.9723351 -0.2335905 0
vn 0.9723351 -0.2335905 0
vn 0.9723193 -0.233656 0
vn 0.9723231 0.2336403 0
vn 0.9723231 0.2336403 0
vn 0.9723231 0.2336403 0
vn 0.9723407 0.2335669 0
vn 1.900563E-05 0 -1
vn 1.900563E-05 0 -1
vn 1.900563E-05 0 -1
vn 0 0 -1
vn -1.113263E-05 0 -1
vn 0 0 -1
vn 0 0 -1
vn -1.900852E-05 0 -1
vn 0.5811389 0.8138044 0
vn 0.5811388 0.8138044 0
vn 0.5811388 0.8138044 0
vn 0.5811862 0.8137707 0
vn -0.5811862 0.8137707 0
vn -0.5811862 0.8137707 0
vn -0.5811862 0.8137707 0
vn -0.5812334 0.8137369 0
vn -0.9723407 0.2335669 0
vn -0.9723407 0.2335669 0
vn -0.9723407 0.2335669 0
vn -0.9723231 0.2336403 0
vn -0.9552431 0.2294657 0.186698
vn -0.9552431 0.2294657 0.186698
vn -0.9552431 0.2294657 0.186698
vn -0.95524 0.2295126 0.1866563
vn -0.9723361 0.2335864 -3.67848E-07
vn -0.9723361 0.2335864 -3.678479E-07
vn -0.9723361 0.2335864 -3.678479E-07
vn -0.9723254 0.2336309 -1.839219E-07
vn -0.5811311 0.81381 0
vn -0.5811312 0.8138099 0
vn -0.5811312 0.8138099 0
vn -0.5811955 0.813764 0
vn -0.5774825 0.8085691 0.1128274
vn -0.5774825 0.8085691 0.1128274
vn -0.5774825 0.8085691 0.1128274
vn -0.57748 0.8085625 0.1128869
vn 0.5811954 0.813764 0
vn 0.5811954 0.8137641 0
vn 0.5811954 0.813764 0
vn 0.5811312 0.8138099 0
vn 0.5774181 0.8086156 -0.1128233
vn 0.5774182 0.8086155 -0.1128233
vn 0.5774182 0.8086155 -0.1128233
vn 0.5774515 0.8085933 -0.1128125
vn 0.9723299 0.2336119 5.517682E-07
vn 0.9723299 0.2336119 5.517683E-07
vn 0.9723299 0.2336119 5.517683E-07
vn 0.9723253 0.233631 3.67844E-07
vn 0.9552314 0.2295109 -0.1867022
vn 0.9552314 0.2295109 -0.1867022
vn 0.9552314 0.2295108 -0.1867022
vn 0.9552392 0.2295117 -0.1866615
vn 0.9723183 -0.2336605 0
vn 0.9723183 -0.2336605 0
vn 0.9723183 -0.2336606 0
vn 0.97232 -0.2336531 3.678788E-07
vn 0.5811954 -0.8137641 0
vn 0.5811954 -0.8137642 0
vn 0.5811954 -0.8137641 0
vn 0.581131 -0.81381 0
vn -0.5811454 -0.8137997 0
vn -0.5811454 -0.8137997 0
vn -0.5811453 -0.8137997 0
vn -0.5811955 -0.8137639 0
vn 0.9552299 -0.2295336 -0.1866822
vn 0.9552299 -0.2295336 -0.1866822
vn 0.9552299 -0.2295336 -0.1866822
vn 0.9552287 -0.2295322 -0.18669
vn 0.5774493 -0.8085901 -0.1128466
vn 0.5774493 -0.8085901 -0.1128466
vn 0.5774493 -0.8085901 -0.1128466
vn 0.5774171 -0.808614 -0.1128403
vn -0.5774819 -0.8085683 0.1128359
vn -0.5774819 -0.8085683 0.1128359
vn -0.577482 -0.8085683 0.1128359
vn -0.577484 -0.8085681 0.1128273
vn -0.9552289 -0.229533 0.1866876
vn -0.9552289 -0.229533 0.1866877
vn -0.955229 -0.229533 0.1866876
vn -0.9552411 -0.2294883 0.1866809
vn -0.5774739 -0.8085584 -0.1129482
vn -0.5774739 -0.8085584 -0.1129482
vn -0.5774739 -0.8085584 -0.1129482
vn -0.5774471 -0.8085736 -0.1129765
vn -0.9552119 -0.2294799 -0.1868399
vn -0.9552119 -0.2294799 -0.1868399
vn -0.9552119 -0.2294799 -0.1868399
vn -0.9552001 -0.2295401 -0.1868267
vn 0.5774437 -0.808576 0.1129755
vn 0.5774437 -0.808576 0.1129755
vn 0.5774437 -0.808576 0.1129755
vn 0.5774456 -0.8085793 0.1129425
vn 0.9552006 -0.2295387 0.1868256
vn 0.9552006 -0.2295387 0.1868256
vn 0.9552006 -0.2295387 0.1868256
vn 0.9552031 -0.2295237 0.1868311
vn 0.9552072 0.2295105 0.1868263
vn 0.9552072 0.2295105 0.1868263
vn 0.9552072 0.2295104 0.1868263
vn 0.9552037 0.2295191 0.1868344
vn 0.577475 0.8085539 0.1129735
vn 0.577475 0.8085539 0.1129734
vn 0.577475 0.808554 0.1129734
vn 0.5774471 0.8085783 0.1129423
vn -0.5774788 0.8085561 -0.1129392
vn -0.5774787 0.8085561 -0.1129392
vn -0.5774788 0.8085562 -0.1129392
vn -0.5774122 0.8086016 -0.1129532
vn -0.9552072 0.2295105 -0.1868263
vn -0.9552072 0.2295105 -0.1868263
vn -0.9552072 0.2295105 -0.1868263
vn -0.9552155 0.2294652 -0.1868397
vn -0.972342 0.2335619 0
vn -0.972342 0.2335619 0
vn -0.972342 0.2335619 0
vn -0.9723269 0.2336243 0
vn -0.9723269 -0.2336243 0
vn -0.9723269 -0.2336243 0
vn -0.9723269 -0.2336243 0
vn -0.972337 -0.2335822 0
vn -7.603407E-05 0 1
vn -7.603406E-05 0 1
vn -7.603406E-05 0 1
vn 7.085499E-05 0 1
vn 0 -1.770849E-05 1
vn 1.113288E-05 -1.77077E-05 1
vn 0 -2.504179E-05 1
vn 0.0002280762 -2.504328E-05 1
vn 0.5811133 -0.8138226 0
vn 0.5811133 -0.8138226 0
vn 0.5811133 -0.8138226 0
vn 0.5811743 -0.8137792 0
vn -0.5811327 -0.8138089 0
vn -0.5811327 -0.8138087 0
vn -0.5811327 -0.8138087 0
vn -0.5811955 -0.8137639 0
vn -0.5811651 0.8137857 0
vn -0.5811651 0.8137857 0
vn -0.5811651 0.8137857 0
vn -0.5811651 0.8137857 0
vn 0.9723221 -0.2336446 0
vn 0.9723221 -0.2336446 0
vn 0.9723221 -0.2336446 0
vn 0.9723221 -0.2336446 0
vn 0.5811346 0.8138074 0
vn 0.5811347 0.8138074 0
vn 0.5811347 0.8138074 0
vn 0.5811651 0.8137857 0
vn 0.9723188 0.2336578 0
vn 0.9723188 0.2336578 0
vn 0.9723188 0.2336579 0
vn 0.9723318 0.2336041 0
vn -1 0 0
vn -1 0 0
vn -1 0 0
vn -1 0 0
vn 0 1 0
vn 0 1 0
vn 0 1 0
vn 0 1 0
vn 0 0 -1
vn 0 0 -1
vn 0 0 -1
vn 0 0 -1
vn 0 -1 0
vn 0 -1 0
vn 0 -1 0
vn 0 -1 0
vn 0 0 1
vn 0 0 1
vn 0 0 1
vn 0 0 1
vn 0.7369915 0.675902 0
vn 0.7369915 0.6759019 0
vn 0.7369915 0.6759019 0
vn 0.7369998 0.6758929 0
vn 0.7369809 0 -0.6759135
vn 0.736981 0 -0.6759135
vn 0.7369809 0 -0.6759135
vn 0.7369843 -2.064798E-07 -0.67591
vn 0.7369855 -0.6759085 0
vn 0.7369855 -0.6759085 0
vn 0.7369855 -0.6759085 0
vn 0.7369877 -0.6759062 0
vn 0.7369906 0 0.6759028
vn 0.7369907 0 0.6759028
vn 0.7369906 0 0.6759029
vn 0.7369809 0 0.6759135
vn 0.7370434 -0.6758454 0
vn 0.7370433 -0.6758454 0
vn 0.7370434 -0.6758454 0
vn 0.7369355 -0.6759631 0
vn 0.7369904 0 0.6759032
vn 0.7369905 0 0.6759032
vn 0.7369905 0 0.6759032
vn 0.7369906 0 0.6759029
vn 0.7370219 0.6758688 0
vn 0.737022 0.6758688 0
vn 0.737022 0.6758688 0
vn 0.7368726 0.6760316 0
vn 0 0 1
vn 0 0 1
vn 0 0 1
vn 0 0 1
vn 0 1 4.704058E-07
vn 0 1 4.704058E-07
vn 0 1 4.704059E-07
vn 0 1 0
vn 0.7369679 -4.473635E-07 -0.6759278
vn 0.7369679 -4.473635E-07 -0.6759278
vn 0.7369679 -4.473635E-07 -0.6759278
vn 0.7369869 0 -0.675907
vn 0 0 -1
vn 0 0 -1
vn 0 0 -1
vn 0 0 -1
vn 0 -1 0
vn 0 -1 0
vn 0 -1 0
vn 0 -1 0
vn 1 6.804329E-07 0
vn 1 6.804329E-07 0
vn 1 6.804329E-07 0
vn 1 0 0
vn 1 0 0
vn 1 0 0
vn 1 4.082585E-06 0
vn 1 0 0
vn 1 0 -2.268132E-07
vn 1 0 -2.268132E-07
vn 1 0 -2.268132E-07
vn 1 0 0
vt 0 0
vt 0 0
vt 0 0
vt 0 0
vt 0 0
vt 0 0
vt 0 0
vt 0 0
vt 0 0
vt 0 0
vt 0 0
vt 0 0
vt 0 0
vt 0 0
vt 0 0
vt 0 0
vt 0 0
vt 0 0
vt 0 0
vt 0 0
vt 0 0
vt 0 0
vt 0 0
vt 0 0
vt 0 0
vt 0 0
vt 0 0
vt 0 0
vt 0 0
vt 0 0
vt 0 0
vt 0 0
vt 0 0
vt 0 0
vt 0 0
vt 0 0
vt 0 0
vt 0 0
vt 0 0
vt 0 0
vt 0 0
vt 0 0
vt 0 0
vt 0 0
vt 0 0
vt 0 0
vt 0 0
vt 0 0
vt 0 0
vt 0 0
vt 0 0
vt 0 0
vt 0 0
vt 0 0
vt 0 0
vt 0 0
vt 0 0
vt 0 0
vt 0 0
vt 0 0
vt 0 0
vt 0 0
vt 0 0
vt 0 0
vt 0 0
vt 0 0
vt 0 0
vt 0 0
vt 0 0
vt 0 0
vt 0 0
vt 0 0
vt 0 0
vt 0 0
vt 0 0
vt 0 0
vt 0 0
vt 0 0
vt 0 0
vt 0 0
vt 0 0
vt 0 0
vt 0 0
vt 0 0
vt 0 0
vt 0 0
vt 0 0
vt 0 0
vt 0 0
vt 0 0
vt 0 0
vt 0 0
vt 0 0
vt 0 0
vt 0 0
vt 0 0
vt 0 0
vt 0 0
vt 0 0
vt 0 0
vt 0 0
vt 0 0
vt 0 0
vt 0 0
vt 0 0
vt 0 0
vt 0 0
vt 0 0
vt 0 0
vt 0 0
vt 0 0
vt 0 0
vt 0 0
vt 0 0
vt 0 0
vt 0 0
vt 0 0
vt 0 0
vt 0 0
vt 0 0
vt 0 0
vt 0 0
vt 0 0
vt 0 0
vt 0 0
vt 0 0
vt 0 0
vt 0 0
vt 0 0
vt 0 0
vt 0 0
vt 0 0
vt 0 0
vt 0 0
vt 0 0
vt 0 0
vt 0 0
vt 0 0
vt 0 0
vt 0 0
vt 0 0
vt 0 0
vt 0 0
vt 0 0
vt 0 0
vt 0 0
vt 0 0
vt 0 0
vt 0 0
vt 0 0
vt 0 0
vt 0 0
vt 0 0
vt 0 0
vt 0 0
vt 0 0
vt 0 0
vt 0 0
vt 0 0
vt 0 0
vt 0 0
vt 0 0
vt 0 0
vt 0 0
vt 0 0
vt 0 0
vt 0 0
vt 0 0
vt 0 0
vt 0 0
vt 0 0
vt 0 0
vt 0 0
vt 0 0
vt 0 0
vt 0 0
vt 0 0
vt 0 0
vt 0 0
vt 0 0
vt 0 0
vt 0 0
vt 0 0
vt 0 0
vt 0 0
vt 0 0
vt 0 0
vt 0 0
vt 0 0
vt 0 0
vt 0 0
vt 0 0
vt 0 0
vt 0 0
vt 0 0
vt 0 0
vt 0 0
vt 0 0
vt 0 0
vt 0 0
vt 0 0
vt 0 0
vt 0 0
vt 0 0
vt 0 0
vt 0 0
vt 0 0
vt 0 0
vt 0 0
vt 0 0
vt 0 0
vt 0 0
vt 0 0
vt 0 0
vt 0 0
vt 0 0
vt 0 0
vt 0 0
vt 0 0
vt 0 0
vt 0 0
vt 0 0
vt 0 0
vt 0 0
vt 0 0
vt 0 0
vt 0 0
vt 0 0
vt 0 0
vt 0 0
vt 0 0
vt 0 0
vt 0 0
vt 0 0
vt 0 0
vt 0 0
vt 0 0
vt 0 0
vt 0 0
vt 0 0
vt 0 0
vt 0 0
vt 0 0
vt 0 0
vt 0 0
vt 0 0
vt 0 0
vt 0 0
vt 0 0
vt 0 0
vt 0 0
vt 0 0
vt 0 0
vt 0 0
vt 0 0
vt 0 0
vt 0 0
vt 0 0
vt 0.518878 -0.150221
vt -0.1215374 -0.150221
vt -0.1215374 0.6379173
vt 0.518878 0.6379173
vt 0.4000038 0.637917
vt 0.4089127 -0.1502207
vt 0.4000038 -0.1502207
vt 0.4089127 0.637917
vt 0.6622013 1.006769
vt 0.6711101 0.3663576
vt 0.6622013 0.3663576
vt 0.6711101 1.006769
vt 0.4116974 0.6379181
vt 0.4206063 -0.1502219
vt 0.4116974 -0.1502219
vt 0.4206063 0.6379181
vt 0.650594 1.006769
vt 0.6595028 1.006769
vt 0.6595028 0.3663582
vt 0.650594 0.3663582
vt 0.9532727 -0.1640991
vt 0.9442216 0.6427444
vt 0.9532727 0.6517954
vt 0.9442216 -0.1550484
vt 0.9442216 -0.1550484
vt 0.9532727 -0.1640991
vt 0.2903032 -0.1640991
vt 0.2993543 -0.1550482
vt 0.2903032 0.6517954
vt 0.2993543 -0.1550482
vt 0.2903032 -0.1640991
vt 0.2993543 0.6427444
vt 0.9532727 0.6517954
vt 0.9442216 0.6427444
vt 0.2993543 0.6427444
vt 0.2903032 0.6517954
vt 0.8960238 -0.1068504
vt 0.8935452 0.592068
vt 0.8960238 0.5945465
vt 0.8935452 -0.1043719
vt 0.8935452 -0.1043719
vt 0.8960238 -0.1068504
vt 0.3475523 -0.1068504
vt 0.3500308 -0.1043719
vt 0.3475523 0.5945465
vt 0.3500308 -0.1043719
vt 0.3475523 -0.1068504
vt 0.3500307 0.592068
vt 0.6380101 0.3886069
vt 0.6331884 0.9136442
vt 0.6380101 0.9136442
vt 0.6331884 0.3886069
vt 0.8285366 -0.1279619
vt 0.8237149 0.5447825
vt 0.8285366 0.5447825
vt 0.8237149 -0.1279619
vt 0.8960238 0.5945465
vt 0.8935452 0.592068
vt 0.3500307 0.592068
vt 0.3475523 0.5945465
vt 0.6471071 0.3886127
vt 0.6422852 0.9136383
vt 0.6471071 0.9136383
vt 0.6422853 0.3886127
vt 0.8382814 -0.1279619
vt 0.8334596 -0.1279619
vt 0.8334597 0.5447826
vt 0.8382815 0.5447826
vt 0.8960238 0.5945465
vt 0.9442216 0.6427444
vt 0.9442216 -0.1550484
vt 0.8960238 -0.1068504
vt 0.3475523 0.5945465
vt 0.2993543 -0.1550482
vt 0.2993543 0.6427444
vt 0.3475523 -0.1068504
vt 1.09928 1.032866
vt 1.09928 0.3601193
vt 0.5742555 0.3601193
vt 0.5742555 1.032866
usemtl HammeredMetal_AlbedoTransparency
f 3/3/3 2/2/2 1/1/1
f 6/6/6 5/5/5 4/4/4
f 9/9/9 8/8/8 7/7/7
f 7/7/7 10/10/10 9/9/9
f 10/10/10 11/11/11 9/9/9
f 10/10/10 12/12/12 11/11/11
f 12/12/12 13/13/13 11/11/11
f 12/12/12 14/14/14 13/13/13
f 17/17/17 16/16/16 15/15/15
f 18/18/18 17/17/17 15/15/15
f 21/21/21 20/20/20 19/19/19
f 22/22/22 21/21/21 19/19/19
f 25/25/25 24/24/24 23/23/23
f 26/26/26 25/25/25 23/23/23
f 29/29/29 28/28/28 27/27/27
f 30/30/30 29/29/29 27/27/27
f 33/33/33 32/32/32 31/31/31
f 34/34/34 33/33/33 31/31/31
f 37/37/37 36/36/36 35/35/35
f 38/38/38 37/37/37 35/35/35
f 41/41/41 40/40/40 39/39/39
f 42/42/42 41/41/41 39/39/39
f 45/45/45 44/44/44 43/43/43
f 46/46/46 45/45/45 43/43/43
f 49/49/49 48/48/48 47/47/47
f 47/47/47 50/50/50 49/49/49
f 50/50/50 51/51/51 49/49/49
f 50/50/50 52/52/52 51/51/51
f 52/52/52 53/53/53 51/51/51
f 52/52/52 54/54/54 53/53/53
f 57/57/57 56/56/56 55/55/55
f 58/58/58 57/57/57 55/55/55
f 61/61/61 60/60/60 59/59/59
f 62/62/62 61/61/61 59/59/59
f 65/65/65 64/64/64 63/63/63
f 66/66/66 65/65/65 63/63/63
f 69/69/69 68/68/68 67/67/67
f 70/70/70 69/69/69 67/67/67
f 73/73/73 72/72/72 71/71/71
f 74/74/74 73/73/73 71/71/71
f 77/77/77 76/76/76 75/75/75
f 78/78/78 77/77/77 75/75/75
f 81/81/81 80/80/80 79/79/79
f 82/82/82 81/81/81 79/79/79
f 85/85/85 84/84/84 83/83/83
f 86/86/86 85/85/85 83/83/83
f 89/89/89 88/88/88 87/87/87
f 90/90/90 89/89/89 87/87/87
f 93/93/93 92/92/92 91/91/91
f 92/92/92 94/94/94 91/91/91
f 97/97/97 96/96/96 95/95/95
f 96/96/96 98/98/98 95/95/95
f 101/101/101 100/100/100 99/99/99
f 100/100/100 102/102/102 99/99/99
f 105/105/105 104/104/104 103/103/103
f 104/104/104 106/106/106 103/103/103
f 109/109/109 108/108/108 107/107/107
f 107/107/107 110/110/110 109/109/109
f 110/110/110 111/111/111 109/109/109
f 110/110/110 112/112/112 111/111/111
f 112/112/112 113/113/113 111/111/111
f 112/112/112 114/114/114 113/113/113
f 117/117/117 116/116/116 115/115/115
f 116/116/116 118/118/118 115/115/115
f 121/121/121 120/120/120 119/119/119
f 120/120/120 122/122/122 119/119/119
f 125/125/125 124/124/124 123/123/123
f 126/126/126 125/125/125 123/123/123
f 129/129/129 128/128/128 127/127/127
f 128/128/128 130/130/130 127/127/127
f 133/133/133 132/132/132 131/131/131
f 132/132/132 134/134/134 131/131/131
f 137/137/137 136/136/136 135/135/135
f 138/138/138 137/137/137 135/135/135
f 141/141/141 140/140/140 139/139/139
f 142/142/142 141/141/141 139/139/139
f 145/145/145 144/144/144 143/143/143
f 146/146/146 145/145/145 143/143/143
f 149/149/149 148/148/148 147/147/147
f 150/150/150 149/149/149 147/147/147
f 153/153/153 152/152/152 151/151/151
f 154/154/154 153/153/153 151/151/151
f 157/157/157 156/156/156 155/155/155
f 158/158/158 157/157/157 155/155/155
f 161/161/161 160/160/160 159/159/159
f 162/162/162 161/161/161 159/159/159
f 165/165/165 164/164/164 163/163/163
f 166/166/166 165/165/165 163/163/163
f 169/169/169 168/168/168 167/167/167
f 170/170/170 169/169/169 167/167/167
f 173/173/173 172/172/172 171/171/171
f 174/174/174 173/173/173 171/171/171
f 177/177/177 176/176/176 175/175/175
f 178/178/178 177/177/177 175/175/175
f 181/181/181 180/180/180 179/179/179
f 182/182/182 181/181/181 179/179/179
f 185/185/185 184/184/184 183/183/183
f 186/186/186 185/185/185 183/183/183
f 189/189/189 188/188/188 187/187/187
f 188/188/188 190/190/190 187/187/187
f 193/193/193 192/192/192 191/191/191
f 194/194/194 193/193/193 191/191/191
f 197/197/197 196/196/196 195/195/195
f 196/196/196 198/198/198 195/195/195
f 201/201/201 200/200/200 199/199/199
f 200/200/200 202/202/202 199/199/199
f 205/205/205 204/204/204 203/203/203
f 204/204/204 206/206/206 203/203/203
f 209/209/209 208/208/208 207/207/207
f 208/208/208 210/210/210 207/207/207
f 213/213/213 212/212/212 211/211/211
f 212/212/212 214/214/214 211/211/211
f 217/217/217 216/216/216 215/215/215
f 218/218/218 217/217/217 215/215/215
f 221/221/221 220/220/220 219/219/219
f 220/220/220 222/222/222 219/219/219
f 225/225/225 224/224/224 223/223/223
f 224/224/224 226/226/226 223/223/223
f 229/229/229 228/228/228 227/227/227
f 229/229/229 227/227/227 230/230/230
f 231/231/231 229/229/229 230/230/230
f 231/231/231 230/230/230 232/232/232
f 233/233/233 231/231/231 232/232/232
f 232/232/232 234/234/234 233/233/233
f 237/237/237 236/236/236 235/235/235
f 236/236/236 238/238/238 235/235/235
f 241/241/241 240/240/240 239/239/239
f 242/242/242 241/241/241 239/239/239
f 245/245/245 244/244/244 243/243/243
f 246/246/246 245/245/245 243/243/243
f 249/249/249 248/248/248 247/247/247
f 248/248/248 250/250/250 247/247/247
f 253/253/253 252/252/252 251/251/251
f 254/254/254 253/253/253 251/251/251
f 257/257/257 256/256/256 255/255/255
f 258/258/258 257/257/257 255/255/255
f 261/261/261 260/260/260 259/259/259
f 262/262/262 261/261/261 259/259/259
f 265/265/265 264/264/264 263/263/263
f 264/264/264 266/266/266 263/263/263
f 269/269/269 268/268/268 267/267/267
f 268/268/268 270/270/270 267/267/267
f 273/273/273 272/272/272 271/271/271
f 272/272/272 274/274/274 271/271/271
f 277/277/277 276/276/276 275/275/275
f 278/278/278 277/277/277 275/275/275
f 281/281/281 280/280/280 279/279/279
f 280/280/280 282/282/282 279/279/279
f 285/285/285 284/284/284 283/283/283
f 286/286/286 285/285/285 283/283/283
f 289/289/289 288/288/288 287/287/287
f 288/288/288 290/290/290 287/287/287
f 293/293/293 292/292/292 291/291/291
f 294/294/294 293/293/293 291/291/291
f 297/297/297 296/296/296 295/295/295
f 296/296/296 298/298/298 295/295/295
f 301/301/301 300/300/300 299/299/299
f 302/302/302 301/301/301 299/299/299
f 305/305/305 304/304/304 303/303/303
f 304/304/304 306/306/306 303/303/303
f 309/309/309 308/308/308 307/307/307
f 308/308/308 310/310/310 307/307/307
f 313/313/313 312/312/312 311/311/311
f 312/312/312 314/314/314 311/311/311
f 317/317/317 316/316/316 315/315/315
f 318/318/318 317/317/317 315/315/315
f 321/321/321 320/320/320 319/319/319
f 320/320/320 322/322/322 319/319/319
f 325/325/325 324/324/324 323/323/323
f 326/326/326 325/325/325 323/323/323
f 329/329/329 328/328/328 327/327/327
f 330/330/330 329/329/329 327/327/327
f 327/327/327 328/328/328 331/331/331
f 332/332/332 329/329/329 330/330/330
f 328/328/328 333/333/333 331/331/331
f 334/334/334 332/332/332 330/330/330
f 331/331/331 333/333/333 334/334/334
f 333/333/333 332/332/332 334/334/334
usemtl Glass_Black_Mat
f 337/337/337 336/336/336 335/335/335
f 338/338/338 337/337/337 335/335/335
