mtllib material.mtl
usemtl material_0
v 0.06034562 -0.07603837 -0.06924304
v 0.06249725 -0.07516234 -0.02996314
v 0.06475874 -0.07297020 -0.07555535
v 0.06240708 -0.07059685 0.14536070
v 0.06151733 -0.07590599 0.13340870
v 0.05071722 -0.07590353 0.15611180
v 0.02611129 0.00910899 0.15371620
v 0.05024876 0.01645380 0.15198100
v 0.04721854 0.00676426 0.15140500
v 0.06072509 -0.07036777 -0.15095830
v 0.05166596 -0.07682225 -0.15451100
v 0.05984206 -0.07576482 -0.14475600
v 0.06491873 -0.07232689 0.10312540
v 0.06151733 -0.07590599 0.13340870
v 0.06587824 -0.07114822 0.12493890
v -0.04244740 0.00625697 -0.15175900
v -0.05318509 0.02482493 -0.14467150
v -0.05487418 0.00724949 -0.14483310
v -0.05778539 -0.00229702 -0.14933880
v -0.04822338 0.05289624 -0.07939134
v -0.04526023 0.04175979 -0.13127240
v -0.03490304 0.05572084 -0.10653860
v -0.05227179 0.04157751 -0.11004470
v -0.05976257 0.02406219 -0.13425490
v -0.05318509 0.02482493 -0.14467150
v -0.03956549 0.04082217 -0.13791700
v -0.05487418 0.00724949 -0.14483310
v -0.06102724 0.00898434 -0.13013460
v -0.05778539 -0.00229702 -0.14933880
v -0.06106326 0.02254304 -0.11853520
v -0.06174620 0.03217494 -0.08621298
v -0.06194002 0.01662505 -0.09171363
v -0.06732745 -0.00107936 -0.12670130
v -0.06685585 0.00959194 -0.08824059
v -0.06558862 -0.02565748 -0.14394930
v -0.06899941 -0.02734637 -0.10603580
v -0.05462165 -0.02760044 -0.15647100
v -0.06179614 -0.05667642 -0.15186120
v -0.05015415 -0.07488009 -0.15954770
v -0.06210398 -0.07228430 -0.14841730
v -0.06575062 -0.06319123 -0.14038930
v -0.06692319 -0.07008576 -0.12033190
v -0.06181480 -0.07542930 -0.13980670
v -0.06459440 -0.07488891 -0.09726669
v -0.06863604 -0.04849790 -0.08440692
v -0.06710923 -0.06994883 -0.03431919
v -0.06841427 0.00332661 -0.07333248
v -0.06874104 -0.03373629 -0.04445979
v -0.06886950 -0.03236414 0.04109638
v -0.06752010 -0.06228039 0.01961068
v -0.06539667 -0.07257030 0.02987917
v -0.06823187 -0.05513401 0.06759853
v -0.06656831 -0.07198527 0.09085459
v -0.06862491 -0.04390423 0.10683920
v -0.06693560 -0.01289356 0.13504640
v -0.06543708 -0.05900811 0.14152860
v -0.06475851 -0.07263610 0.12979590
v -0.05832715 -0.07470239 0.14962010
v -0.05890067 -0.05270721 0.15251600
v -0.05484684 -0.01990633 0.15465600
v -0.06079309 -0.00087156 0.14238460
v -0.06853587 0.00590678 0.05244355
v -0.06721003 0.00731630 0.09281715
v -0.06506048 0.00133815 0.12531790
v -0.06665254 0.01879459 -0.02980250
v -0.06006017 0.00994829 0.12708220
v -0.05377565 0.00762001 0.14270420
v -0.05534500 0.01750904 0.14295000
v -0.06163487 0.01523148 0.10438200
v -0.06138901 0.02448573 0.02491798
v -0.06705233 0.01580843 0.04325505
v -0.06200109 0.02280205 -0.04691681
v -0.06004790 0.02363604 0.12508060
v -0.06190993 0.02514483 -0.00947192
v -0.06157956 0.03426142 -0.05542510
v -0.06137174 0.03671780 -0.01689336
v -0.05880622 0.04232090 -0.05847826
v -0.04770350 0.05964852 -0.01319451
v -0.06156994 0.04048856 -0.00571886
v -0.05053359 0.05621843 -0.03771092
v -0.04328906 0.05862708 -0.06241593
v -0.03956651 0.06551394 -0.02804490
v -0.02580112 0.07370649 0.00408651
v -0.04381447 0.06209518 0.01399404
v -0.03987129 0.06452132 0.03756143
v -0.05409526 0.05191253 0.01562259
v -0.05186609 0.05121911 0.06461108
v -0.06044547 0.03734552 0.01399186
v -0.06188274 0.03383549 0.03881776
v -0.05934125 0.04328958 0.03847428
v -0.06155141 0.03336866 0.08273770
v -0.05424918 0.04469250 0.08986107
v -0.03759052 0.05988552 0.07973900
v -0.05731806 0.03443314 0.10897890
v -0.04708567 0.04548477 0.11494610
v -0.03375287 0.05295071 0.11679630
v -0.03431172 0.04603710 0.13246780
v -0.04969813 0.02890060 0.14311940
v -0.05658020 0.02861381 0.13285820
v -0.04809310 -0.04552990 0.15807150
v -0.04906809 -0.07525320 0.15833830
v -0.05890067 -0.05270721 0.15251600
v -0.05832715 -0.07470239 0.14962010
v -0.01005208 0.05890293 0.12037580
v -0.00682232 0.04556619 0.13810160
v 0.01657686 0.04878546 0.13415840
v 0.02515154 0.05497109 0.12305760
v 0.04378868 0.04083903 0.13815010
v 0.01658542 0.06039841 0.11238690
v 0.04264848 0.05356349 0.10335440
v 0.05104211 0.04829590 0.10516680
v 0.05497778 0.03273885 0.13829930
v 0.02893333 0.05806570 0.09463825
v -0.00257427 0.06437734 0.09800152
v 0.00730897 0.06960138 0.08147248
v -0.00988717 0.06840773 0.08397616
v 0.04075089 0.05741475 0.08749172
v 0.05338944 0.05342720 0.06274655
v 0.03900902 0.06325309 0.05951841
v 0.04155615 0.06702307 0.00754233
v 0.05611128 0.05572123 0.01754355
v 0.05914249 0.03794231 0.10940830
v 0.05826576 0.02393181 0.14120840
v 0.06320754 0.03086571 0.10063770
v 0.05968323 0.04334560 0.06922711
v 0.06307413 0.04270576 0.04136091
v 0.06251994 0.03133830 0.07085698
v 0.06051683 0.04867360 0.00651283
v 0.05662750 0.05550649 -0.01572525
v 0.03425621 -0.06132920 0.16196200
v 0.02178276 -0.07565591 0.16323530
v 0.00205027 -0.07546237 0.16394370
v 0.01807113 -0.01411719 0.16141010
v -0.02707304 -0.05338480 0.16280520
v -0.00912317 -0.07716055 0.16286260
v -0.03055361 -0.07576463 0.16203660
v 0.04886929 -0.02221575 0.15820120
v 0.02515847 0.00165811 0.15793480
v 0.05149160 -0.00537215 0.15590340
v -0.05484684 -0.01990633 0.15465600
v -0.02661934 0.00034526 0.15803690
v 0.05463757 0.00580407 0.14579410
v 0.05826576 0.02393181 0.14120840
v -0.02665811 0.01125143 0.15253920
v -0.04585995 0.00663533 0.15047110
v -0.04115501 0.02270079 0.15032520
v 0.04622350 0.03149016 0.14723700
v 0.05497778 0.03273885 0.13829930
v 0.04378868 0.04083903 0.13815010
v 0.00704584 0.01008694 0.15283850
v -0.02150724 0.02993969 0.14937960
v -0.03933107 0.03285372 0.14443440
v -0.03431172 0.04603710 0.13246780
v -0.00682232 0.04556619 0.13810160
v 0.00236241 0.03058931 0.15018530
v 0.01657686 0.04878546 0.13415840
v 0.04035009 0.02578967 0.15115290
v 0.02371421 0.03637966 0.14686700
v 0.01082031 0.02763299 0.14927080
v 0.02212227 0.02494807 0.15289760
v 0.06240708 -0.07059685 0.14536070
v 0.06757060 -0.04726936 0.12912940
v 0.06709681 -0.06809760 0.07025724
v 0.06348687 -0.04554486 0.14509640
v 0.06268267 -0.07520302 0.05643782
v 0.06462549 -0.00630798 0.14358780
v 0.06434231 -0.07334052 0.02852540
v 0.06899940 -0.00399046 0.11047820
v 0.06464981 0.00527746 0.12553010
v 0.05463757 0.00580407 0.14579410
v 0.06026777 0.01161197 0.12490800
v 0.06739089 0.01269431 0.08111488
v 0.06179421 0.01961609 0.07950657
v 0.06325009 0.03872253 0.01968866
v 0.06156675 0.02887865 0.00500508
v 0.06278798 0.03915878 -0.01564205
v 0.06196445 0.02291922 -0.05909808
v 0.06189398 0.04676162 -0.02913095
v 0.06241128 0.03764935 -0.07124060
v 0.06338220 0.03200145 -0.08836856
v 0.06643719 0.02288887 -0.01113648
v 0.06859902 0.01317078 -0.00410473
v 0.06042223 0.01446678 -0.12850130
v 0.05927812 0.02320584 -0.14237570
v 0.05729451 0.00652797 -0.14244250
v 0.06660122 0.01469494 -0.07647709
v 0.06114826 0.01006570 -0.12787230
v 0.06702082 0.00067133 -0.13186390
v 0.05844439 -0.00091633 -0.15056990
v 0.06190751 -0.01093997 -0.15042320
v 0.06875317 0.00408884 -0.08330353
v 0.06890206 -0.03491469 -0.02949522
v 0.06679223 -0.01827592 -0.14101150
v 0.06072509 -0.07036777 -0.15095830
v 0.06892160 -0.02497897 -0.11634770
v 0.06651550 -0.04975784 -0.14153330
v 0.06770306 -0.06558734 -0.09865424
v 0.06530739 -0.07126191 -0.12991600
v 0.05984206 -0.07576482 -0.14475600
v 0.05902055 -0.07664401 -0.11960450
v 0.06817298 -0.05638340 0.02439424
v 0.06780012 -0.05483942 -0.01188269
v 0.06703345 -0.06747165 -0.01158461
v -0.00010490 0.07185821 0.06074210
v 0.02679649 0.06997728 0.04729595
v -0.00144053 0.07523966 0.04527712
v -0.03302535 0.06491499 0.05968511
v 0.02219974 0.07321448 0.01067501
v -0.00258611 0.07670445 0.01512875
v -0.00074381 0.07679681 -0.00901139
v 0.02732268 0.07173783 -0.00978893
v -0.00745117 0.07502315 -0.03998500
v 0.01678225 0.07434320 -0.03386338
v 0.03583479 0.06726111 -0.04146492
v -0.02404750 0.07091675 -0.04132622
v 0.00889402 0.07080552 -0.06239340
v -0.03059166 0.06439853 -0.06767382
v -0.00149672 0.07110574 -0.06748088
v -0.01238328 0.06812709 -0.08156549
v 0.05268967 0.05893166 -0.03695265
v 0.04115752 0.06095235 -0.06918375
v 0.05508421 0.05016020 -0.07394753
v 0.02238753 0.06587631 -0.08440795
v 0.00946072 0.06282885 -0.10112810
v 0.04141027 0.05463949 -0.09790560
v -0.01198991 0.06153757 -0.10550370
v 0.01704792 0.05902207 -0.11725530
v -0.01959943 0.05696352 -0.12142000
v -0.01027646 0.04783739 -0.13602920
v 0.01574698 0.05291329 -0.13012520
v 0.03859684 0.05058486 -0.12433850
v 0.03439687 0.04445252 -0.13762650
v 0.05380943 0.03337508 -0.14215420
v 0.05621216 0.03803872 -0.12727110
v 0.06075039 0.03819520 -0.10121500
v -0.06181480 -0.07542930 -0.13980670
v -0.05015415 -0.07488009 -0.15954770
v -0.06210398 -0.07228430 -0.14841730
v -0.04598158 -0.07748827 -0.15300730
v -0.03621722 -0.07580157 -0.16195180
v -0.05168898 -0.07763789 -0.13015440
v -0.06459440 -0.07488891 -0.09726669
v -0.01462765 -0.07746021 -0.15805940
v -0.01819041 -0.07840332 -0.13783850
v -0.01963660 -0.07863239 -0.09347181
v -0.05467983 -0.07790852 -0.10303630
v 0.01153293 -0.07806009 -0.15719800
v 0.01423603 -0.07580803 -0.16394370
v 0.03822633 -0.07671772 -0.15985710
v 0.04738951 -0.07792975 -0.13867490
v 0.05166596 -0.07682225 -0.15451100
v 0.05984206 -0.07576482 -0.14475600
v 0.05902055 -0.07664401 -0.11960450
v -0.06077735 -0.07658655 -0.07970731
v -0.06501460 -0.07400499 -0.03264129
v -0.06263021 -0.07566927 -0.02506100
v 0.01565613 -0.07834969 -0.12878630
v 0.05065037 -0.07777157 -0.10180600
v 0.06034562 -0.07603837 -0.06924304
v 0.01782811 -0.07883696 -0.09965539
v -0.05109433 -0.07778835 -0.03219656
v 0.04977242 -0.07781824 -0.05827179
v 0.01067747 -0.07824682 -0.06832478
v 0.05207345 -0.07753216 -0.02955128
v 0.06249725 -0.07516234 -0.02996314
v -0.05988535 -0.07658188 0.01983773
v -0.06539667 -0.07257030 0.02987917
v -0.02738182 -0.07820462 -0.06003472
v -0.00909371 -0.07897727 -0.05349631
v -0.03277036 -0.07883555 -0.00859374
v 0.02655351 -0.07873317 -0.03237484
v -0.06246857 -0.07583667 0.06948513
v -0.06656831 -0.07198527 0.09085459
v -0.06167106 -0.07599065 0.12196880
v -0.06475851 -0.07263610 0.12979590
v -0.05832715 -0.07470239 0.14962010
v -0.04705426 -0.07791904 0.13039290
v -0.05089553 -0.07793891 0.09955440
v -0.03203374 -0.07858012 0.06093428
v -0.05202966 -0.07794476 0.05292290
v -0.03206106 -0.07865777 0.02112944
v -0.00044363 -0.07876226 -0.00069159
v 0.03153933 -0.07865964 -0.01188826
v 0.01275363 -0.07891991 0.03689729
v 0.05144634 -0.07771843 0.01439311
v -0.01976067 -0.07845385 0.10209050
v 0.01101856 -0.07856507 0.07367671
v 0.06067146 -0.07617765 0.02053578
v 0.06434231 -0.07334052 0.02852540
v 0.06268267 -0.07520302 0.05643782
v 0.05161909 -0.07786479 0.05918224
v 0.02583162 -0.07831436 0.09311298
v 0.05849961 -0.07667308 0.08832902
v 0.06491873 -0.07232689 0.10312540
v 0.06151733 -0.07590599 0.13340870
v 0.01765874 -0.07885347 0.12296090
v 0.05008670 -0.07795738 0.10723130
v 0.04813699 -0.07724415 0.15187950
v 0.05071722 -0.07590353 0.15611180
v 0.02178276 -0.07565591 0.16323530
v 0.01489596 -0.07752053 0.15757790
v 0.00205027 -0.07546237 0.16394370
v -0.00912317 -0.07716055 0.16286260
v -0.03854541 -0.07753069 0.15371550
v -0.03055361 -0.07576463 0.16203660
v -0.04906809 -0.07525320 0.15833830
v -0.06263021 -0.07566927 -0.02506100
v -0.06501460 -0.07400499 -0.03264129
v -0.04018183 0.02774876 -0.14895210
v -0.03261169 0.00700277 -0.15459520
v -0.01357100 0.03002876 -0.14916820
v -0.05462165 -0.02760044 -0.15647100
v -0.00972486 0.00787654 -0.15361300
v -0.00000274 0.02787158 -0.15196690
v -0.03445913 -0.01680354 -0.15988100
v -0.05015415 -0.07488009 -0.15954770
v 0.01481794 0.00861187 -0.15319060
v 0.01392420 0.01948390 -0.15386600
v 0.04082995 0.00708887 -0.15398390
v 0.02574944 0.03072315 -0.15040220
v 0.04640900 0.02861731 -0.15086480
v 0.00890858 -0.00136159 -0.15940320
v -0.02605421 -0.05862608 -0.16353790
v -0.03621722 -0.07580157 -0.16195180
v 0.01423603 -0.07580803 -0.16394370
v 0.02417291 -0.01291256 -0.16126210
v 0.01662806 -0.03975462 -0.16179690
v 0.03140458 -0.05875714 -0.16353520
v 0.03822633 -0.07671772 -0.15985710
v 0.05246351 -0.07170948 -0.15854290
v 0.06190751 -0.01093997 -0.15042320
v 0.05045454 -0.03965800 -0.15944330
v 0.05060685 -0.01241173 -0.15788970
v 0.05844439 -0.00091633 -0.15056990
v 0.04984052 0.00507880 -0.15119420
v 0.05729451 0.00652797 -0.14244250
v 0.05927812 0.02320584 -0.14237570
v -0.03956549 0.04082217 -0.13791700
v -0.01027646 0.04783739 -0.13602920
v 0.00448597 0.03946308 -0.14455340
v 0.01574698 0.05291329 -0.13012520
v 0.02191933 0.04392208 -0.14066030
v 0.03439687 0.04445252 -0.13762650
v 0.05380943 0.03337508 -0.14215420
v -0.04969813 0.02890060 0.14311940
v -0.05534500 0.01750904 0.14295000
v -0.05377565 0.00762001 0.14270420
v -0.04895015 -0.00123982 0.15331520
v -0.06079309 -0.00087156 0.14238460
v 0.06462549 -0.00630798 0.14358780
v 0.06110921 -0.01970430 0.15065460
v 0.06348687 -0.04554486 0.14509640
v 0.05793888 -0.05130363 0.15408720
v 0.05204936 -0.07032102 0.15831420
vn 0.31410570 -0.94938620 -0.00188234
vn 0.58450830 -0.81134680 0.00814000
vn 0.90371800 -0.42765650 0.02008780
vn 0.89070050 -0.27555800 0.36155280
vn 0.32354670 -0.94436250 0.05913430
vn 0.35488440 -0.71971910 0.59670890
vn 0.04481012 0.22111340 0.97421810
vn 0.42236890 0.10085080 0.90079610
vn 0.26706680 0.21006740 0.94050350
vn 0.81304650 -0.11674900 -0.57037280
vn 0.21366750 -0.93952110 -0.26766840
vn 0.47903570 -0.86853290 -0.12718260
vn 0.70228360 -0.71173260 -0.01531511
vn 0.32354670 -0.94436250 0.05913430
vn 0.98579100 -0.15999520 0.05116356
vn -0.35253150 0.18770100 -0.91678230
vn -0.60677450 0.36073430 -0.70830460
vn -0.70667490 0.23293370 -0.66809630
vn -0.60976060 0.26240420 -0.74788770
vn -0.66660300 0.73297980 -0.13557680
vn -0.57296380 0.75643320 -0.31546970
vn -0.44278970 0.86888190 -0.22131770
vn -0.77206800 0.61324260 -0.16686670
vn -0.88003530 0.38271960 -0.28118270
vn -0.60677450 0.36073430 -0.70830460
vn -0.23961050 0.72598420 -0.64461910
vn -0.70667490 0.23293370 -0.66809630
vn -0.93472750 0.27975230 -0.21914200
vn -0.60976060 0.26240420 -0.74788770
vn -0.96996340 0.23451390 -0.06460951
vn -0.93634190 0.34285650 -0.07558543
vn -0.96498230 0.25606010 -0.05694256
vn -0.97724890 0.16314570 -0.13552880
vn -0.93053980 0.36016650 -0.06614975
vn -0.96012690 0.04100769 -0.27654050
vn -0.99950330 0.00062925 -0.03150884
vn -0.39936360 0.09249905 -0.91211440
vn -0.74755900 -0.01445956 -0.66403790
vn -0.33219100 -0.15305140 -0.93071180
vn -0.80049470 -0.37297980 -0.46914210
vn -0.98876660 -0.05375703 -0.13946540
vn -0.98424710 -0.17260450 -0.03828073
vn -0.43685720 -0.89622630 -0.07703437
vn -0.93095590 -0.36512600 0.00202123
vn -0.99734110 -0.07280458 -0.00319013
vn -0.99340130 -0.11465520 -0.00283832
vn -0.99890940 0.04638029 -0.00539388
vn -0.99988170 -0.01537614 -0.00045135
vn -0.99999190 -0.00356662 0.00191409
vn -0.99709000 -0.07619873 0.00230130
vn -0.91510560 -0.40321230 0.00118153
vn -0.99746950 -0.07086010 -0.00578232
vn -0.96632000 -0.25678650 0.01692137
vn -0.99946970 -0.00928446 0.03120997
vn -0.98757120 0.04730087 0.14988500
vn -0.97489040 -0.06123175 0.21410150
vn -0.95377930 -0.28477650 0.09595601
vn -0.60369420 -0.69814690 0.38489510
vn -0.74244190 0.01563930 0.66972800
vn -0.46852890 0.09751809 0.87804950
vn -0.79655680 0.30776790 0.52036150
vn -0.99947730 0.03056088 0.01054574
vn -0.98845590 0.14778360 0.03339234
vn -0.93913670 0.30523410 0.15765270
vn -0.97620680 0.21660320 -0.01016441
vn -0.94671440 0.23791350 0.21709240
vn -0.79222630 0.24635570 0.55828880
vn -0.78352270 0.11305390 0.61099180
vn -0.96796420 0.24116290 0.06989901
vn -0.93378040 0.35769160 0.01052913
vn -0.91900780 0.39167630 0.04488139
vn -0.95255430 0.30161780 -0.04082858
vn -0.97659600 0.16511770 0.13782730
vn -0.96884700 0.24744110 0.01041358
vn -0.99005040 0.14052260 -0.00732336
vn -0.93419460 0.35650010 -0.01371382
vn -0.85482980 0.51585410 -0.05621914
vn -0.72959030 0.68388420 0.00067571
vn -0.93597700 0.35080590 -0.02970430
vn -0.74550600 0.66500710 -0.04456726
vn -0.51566370 0.84817100 -0.12123040
vn -0.48157710 0.87429810 -0.06071381
vn -0.31774010 0.94757750 0.03373538
vn -0.60665240 0.79477490 0.01748391
vn -0.47634200 0.87472020 0.08923563
vn -0.79473440 0.60661830 0.02028329
vn -0.73470270 0.67255550 0.08877510
vn -0.96130570 0.27346930 0.03325587
vn -0.99833550 0.05721602 -0.00724799
vn -0.88171480 0.47102980 0.02664530
vn -0.97602360 0.21394750 0.04005566
vn -0.72956990 0.67101450 0.13216430
vn -0.43802850 0.88306280 0.16831810
vn -0.83788430 0.52259900 0.15760750
vn -0.61488620 0.74981740 0.24431280
vn -0.36112680 0.89496400 0.26196690
vn -0.31741050 0.77764600 0.54269440
vn -0.56867280 0.57919830 0.58407260
vn -0.76615970 0.55522790 0.32360680
vn -0.29442230 0.03712607 0.95495400
vn -0.36791440 -0.26300770 0.89188900
vn -0.74244190 0.01563930 0.66972800
vn -0.60369420 -0.69814690 0.38489510
vn -0.12101680 0.91588560 0.38276430
vn -0.05210850 0.71659270 0.69554270
vn 0.05553399 0.77516250 0.62931640
vn 0.25393610 0.88453040 0.39130870
vn 0.37026420 0.80701630 0.46003160
vn 0.15814730 0.96664480 0.20146320
vn 0.38692900 0.89420900 0.22511380
vn 0.64109430 0.74401250 0.18826430
vn 0.71007720 0.61606010 0.34096970
vn 0.24211490 0.94689860 0.21157360
vn -0.01230697 0.96215470 0.27222570
vn 0.18697640 0.96323390 0.19292520
vn -0.20879220 0.95950710 0.18908140
vn 0.39899120 0.90007230 0.17514510
vn 0.66061600 0.74391480 0.10088170
vn 0.41817340 0.89932560 0.12784540
vn 0.47142590 0.88151660 0.02619388
vn 0.68743090 0.72449400 0.05046951
vn 0.83743260 0.52194470 0.16211250
vn 0.93441740 0.12555920 0.33331520
vn 0.99510120 0.08505531 0.05039167
vn 0.89516960 0.43906110 0.07679076
vn 0.95879380 0.28021370 0.04684838
vn 0.99623390 0.08620398 0.00932816
vn 0.92433690 0.38150700 -0.00732982
vn 0.75495540 0.65576150 -0.00436281
vn 0.11035170 0.01963785 0.99369860
vn 0.08219893 -0.45869870 0.88478180
vn 0.01447077 -0.02624656 0.99955080
vn 0.02241301 0.09580091 0.99514810
vn -0.07601820 0.05392323 0.99564730
vn -0.03068835 -0.91355510 0.40555550
vn -0.12558930 -0.30444310 0.94421490
vn 0.22970560 0.06086219 0.97135530
vn 0.06676951 0.26973420 0.96061710
vn 0.33586520 0.23037410 0.91330300
vn -0.46852890 0.09751809 0.87804950
vn -0.08584651 0.17301440 0.98117090
vn 0.82883170 0.24923050 0.50092120
vn 0.93441740 0.12555920 0.33331520
vn -0.04206408 0.28934390 0.95630060
vn -0.33679700 0.26611230 0.90319000
vn -0.24111340 0.23655610 0.94122560
vn 0.33000410 0.56919380 0.75307090
vn 0.71007720 0.61606010 0.34096970
vn 0.37026420 0.80701630 0.46003160
vn -0.01892208 0.31385620 0.94928190
vn -0.06265827 0.42248210 0.90420280
vn -0.19602030 0.64213500 0.74110630
vn -0.31741050 0.77764600 0.54269440
vn -0.05210850 0.71659270 0.69554270
vn 0.03197320 0.40500420 0.91375560
vn 0.05553399 0.77516250 0.62931640
vn 0.09475618 0.27694600 0.95620200
vn -0.02091077 0.64739670 0.76186620
vn -0.01813931 0.40784180 0.91287240
vn -0.03246645 0.24042910 0.97012360
vn 0.89070050 -0.27555800 0.36155280
vn 0.99737370 -0.03413354 0.06388030
vn 0.99849050 -0.05490372 -0.00157068
vn 0.93898490 -0.02740308 0.34286520
vn 0.52758310 -0.84947920 0.00640675
vn 0.94939720 0.14353050 0.27936330
vn 0.93515370 -0.35414080 -0.00848288
vn 0.99977110 0.00881829 0.01949791
vn 0.89728580 0.39868900 0.18953980
vn 0.82883170 0.24923050 0.50092120
vn 0.97498890 0.15962760 0.15464680
vn 0.95803070 0.28315650 0.04471427
vn 0.94449980 0.32443560 0.05159261
vn 0.99922820 -0.03459885 -0.01859605
vn 0.96065310 0.27684620 0.02240250
vn 0.99936130 0.03471591 0.00847547
vn 0.97477470 0.22075250 -0.03290120
vn 0.92008840 0.39030460 -0.03316144
vn 0.96478220 0.26123540 -0.03084370
vn 0.99866060 -0.04856547 -0.01784408
vn 0.90555520 0.42374500 -0.02024530
vn 0.99967470 0.02496595 0.00521350
vn 0.99692760 0.01071282 -0.07759323
vn 0.90187670 0.12518670 -0.41345700
vn 0.85598250 0.24177540 -0.45698870
vn 0.90327970 0.42275280 -0.07325197
vn 0.87574340 0.46006700 -0.14632740
vn 0.96819800 0.21598220 -0.12627040
vn 0.61212090 0.38772360 -0.68918680
vn 0.78769050 0.08560167 -0.61009510
vn 0.99939070 0.03286809 -0.01174506
vn 0.99991930 -0.01174311 0.00484808
vn 0.96391270 0.01585920 -0.26574570
vn 0.81304650 -0.11674900 -0.57037280
vn 0.99974470 -0.00756197 -0.02128843
vn 0.98237310 -0.05126256 -0.17976390
vn 0.99676350 -0.07979053 -0.00979840
vn 0.94865960 -0.30573950 -0.08104512
vn 0.47903570 -0.86853290 -0.12718260
vn 0.39403760 -0.91901310 -0.01221997
vn 0.99403570 -0.10818920 0.01370963
vn 0.99783030 -0.06523769 -0.00886985
vn 0.96970370 -0.24387800 -0.01408212
vn -0.00228248 0.99181390 0.12767180
vn 0.27464190 0.95265080 0.13049230
vn -0.06759475 0.99035290 0.12096280
vn -0.36597780 0.92378660 0.11259910
vn 0.22162130 0.97469270 0.02929484
vn -0.00100196 0.99944350 0.03334074
vn 0.00072507 0.99986770 -0.01625097
vn 0.27375680 0.96165410 -0.01668839
vn -0.09711101 0.98997530 -0.10255960
vn 0.18660690 0.97861120 -0.08659092
vn 0.36490280 0.92462900 -0.10911980
vn -0.30179870 0.94613170 -0.11727010
vn 0.18295010 0.97329520 -0.13865750
vn -0.34859690 0.92510060 -0.15056250
vn -0.06253849 0.98385700 -0.16767350
vn -0.16950730 0.96807980 -0.18463150
vn 0.60613480 0.79215480 -0.07135309
vn 0.42129580 0.89467520 -0.14854690
vn 0.71491720 0.68743880 -0.12775470
vn 0.23847090 0.94959130 -0.20348930
vn 0.10454930 0.96691920 -0.23267310
vn 0.43150530 0.87948860 -0.20075620
vn -0.10493740 0.96215240 -0.25149740
vn 0.15153440 0.95111370 -0.26910970
vn -0.17846260 0.90078150 -0.39590890
vn -0.07520571 0.74340350 -0.66460170
vn 0.05341558 0.84964290 -0.52464650
vn 0.43219600 0.86453780 -0.25647800
vn 0.23176720 0.78787930 -0.57055250
vn 0.54309490 0.66819900 -0.50848590
vn 0.69700360 0.68593090 -0.20900890
vn 0.89212110 0.43649010 -0.11660260
vn -0.43685720 -0.89622630 -0.07703437
vn -0.33219100 -0.15305140 -0.93071180
vn -0.80049470 -0.37297980 -0.46914210
vn -0.07641947 -0.99372720 -0.08164721
vn -0.08726405 -0.39931450 -0.91265160
vn -0.07621172 -0.99703150 -0.01095347
vn -0.93095590 -0.36512600 0.00202123
vn -0.01498650 -0.99534130 -0.09524278
vn -0.01011455 -0.99983950 -0.01478538
vn -0.01792585 -0.99983870 0.00105370
vn -0.08152065 -0.99666320 0.00410498
vn 0.00466107 -0.99521020 -0.09764700
vn 0.01718561 -0.19540650 -0.98057170
vn 0.11289710 -0.80295340 -0.58525210
vn 0.04984787 -0.99852310 -0.02160850
vn 0.21366750 -0.93952110 -0.26766840
vn 0.47903570 -0.86853290 -0.12718260
vn 0.39403760 -0.91901310 -0.01221997
vn -0.11778300 -0.99303930 -0.00040921
vn -0.73837120 -0.67426380 0.01327672
vn -0.44192020 -0.89705230 -0.00192139
vn 0.00420231 -0.99991890 -0.01202353
vn 0.06277449 -0.99802620 0.00174453
vn 0.31410570 -0.94938620 -0.00188234
vn 0.00982273 -0.99995140 0.00093507
vn -0.08224420 -0.99659780 -0.00534384
vn 0.05497325 -0.99848610 -0.00189760
vn 0.00335963 -0.99999230 0.00206454
vn 0.11565200 -0.99328890 0.00126856
vn 0.58450830 -0.81134680 0.00814000
vn -0.21753580 -0.97605180 -0.00098583
vn -0.91510560 -0.40321230 0.00118153
vn -0.01213722 -0.99992630 -0.00006167
vn 0.00784933 -0.99993680 -0.00804788
vn -0.03177623 -0.99949490 -0.00056010
vn 0.00978211 -0.99990690 -0.00952041
vn -0.30583290 -0.95204750 -0.00847630
vn -0.96632000 -0.25678650 0.01692137
vn -0.33564310 -0.94151390 0.02992231
vn -0.95377930 -0.28477650 0.09595601
vn -0.60369420 -0.69814690 0.38489510
vn -0.05014875 -0.99836000 0.02761316
vn -0.07814462 -0.99694110 -0.00125518
vn -0.02149602 -0.99976470 0.00291458
vn -0.09572814 -0.99530470 0.01430793
vn -0.02885647 -0.99958350 -0.00020989
vn -0.00049250 -0.99999990 -0.00037534
vn 0.02774529 -0.99961500 0.00010618
vn 0.00871122 -0.99995900 0.00250677
vn 0.06924621 -0.99759930 -0.00071652
vn -0.00929753 -0.99995230 0.00300221
vn 0.00713343 -0.99995040 0.00695598
vn 0.32779920 -0.94474370 -0.00263633
vn 0.93515370 -0.35414080 -0.00848288
vn 0.52758310 -0.84947920 0.00640675
vn 0.06907286 -0.99759810 0.00518193
vn 0.01787460 -0.99983070 -0.00434939
vn 0.20224110 -0.97928940 0.00951916
vn 0.70228360 -0.71173260 -0.01531511
vn 0.32354670 -0.94436250 0.05913430
vn 0.00510094 -0.99985240 0.01640243
vn 0.06932473 -0.99758990 -0.00288139
vn 0.05765262 -0.99665390 0.05794002
vn 0.35488440 -0.71971910 0.59670890
vn 0.08219893 -0.45869870 0.88478180
vn 0.00066336 -0.99816550 0.06054044
vn 0.01447077 -0.02624656 0.99955080
vn -0.03068835 -0.91355510 0.40555550
vn -0.04484205 -0.99651310 0.07036240
vn -0.12558930 -0.30444310 0.94421490
vn -0.36791440 -0.26300770 0.89188900
vn -0.44192020 -0.89705230 -0.00192139
vn -0.73837120 -0.67426380 0.01327672
vn -0.16593380 0.42534560 -0.88968930
vn -0.10957070 0.22951840 -0.96711710
vn -0.06310534 0.43067330 -0.90029900
vn -0.39936360 0.09249905 -0.91211440
vn 0.00474821 0.30483800 -0.95239230
vn -0.01532809 0.29060510 -0.95672040
vn -0.10115040 0.12203930 -0.98735760
vn -0.33219100 -0.15305140 -0.93071180
vn -0.01193076 0.25884120 -0.96584620
vn -0.00080353 0.20514610 -0.97873100
vn 0.12771160 0.21783440 -0.96759400
vn -0.02458193 0.39526580 -0.91823770
vn 0.24839970 0.35257300 -0.90221380
vn -0.02091525 0.19405620 -0.98076740
vn -0.07388979 0.03307832 -0.99671760
vn -0.08726405 -0.39931450 -0.91265160
vn 0.01718561 -0.19540650 -0.98057170
vn 0.04273833 0.12100540 -0.99173150
vn 0.00193440 0.03439499 -0.99940650
vn 0.10217950 0.00798557 -0.99473390
vn 0.11289710 -0.80295340 -0.58525210
vn 0.46362800 -0.08879223 -0.88156960
vn 0.78769050 0.08560167 -0.61009510
vn 0.31909020 0.03980374 -0.94688810
vn 0.26266640 0.13676900 -0.95514430
vn 0.61212090 0.38772360 -0.68918680
vn 0.52005680 0.17371240 -0.83628050
vn 0.85598250 0.24177540 -0.45698870
vn 0.90187670 0.12518670 -0.41345700
vn -0.23961050 0.72598420 -0.64461910
vn -0.07520571 0.74340350 -0.66460170
vn 0.00984152 0.60179980 -0.79858630
vn 0.05341558 0.84964290 -0.52464650
vn 0.03814141 0.65477870 -0.75485770
vn 0.23176720 0.78787930 -0.57055250
vn 0.54309490 0.66819900 -0.50848590
vn -0.56867280 0.57919830 0.58407260
vn -0.78352270 0.11305390 0.61099180
vn -0.79222630 0.24635570 0.55828880
vn -0.38785960 0.25450740 0.88588420
vn -0.79655680 0.30776790 0.52036150
vn 0.94939720 0.14353050 0.27936330
vn 0.72765920 0.04256948 0.68461660
vn 0.93898490 -0.02740308 0.34286520
vn 0.67408300 -0.00251959 0.73865130
vn 0.39470750 -0.09430428 0.91395440
vt 0.97444030 0.46640620
vt 0.97177390 0.38707060
vt 0.94948920 0.47591530
vt 0.36651520 0.97060880
vt 0.39241810 0.98394860
vt 0.37981930 0.93324970
vt 0.14507440 0.87481370
vt 0.11515350 0.94131090
vt 0.14701270 0.93095360
vt 0.66712930 0.94649650
vt 0.64974490 0.92470600
vt 0.64846670 0.94981210
vt 0.96520620 0.11797620
vt 0.97882680 0.05662498
vt 0.95126940 0.07658616
vt 0.87826000 0.72871780
vt 0.93200220 0.70605290
vt 0.89032590 0.69627950
vt 0.86638670 0.68978770
vt 0.35372860 0.46679060
vt 0.36562120 0.56172400
vt 0.39488280 0.51444360
vt 0.33807270 0.52117040
vt 0.30705200 0.57037230
vt 0.32638370 0.59916900
vt 0.37935760 0.58513270
vt 0.27687920 0.60744110
vt 0.25582680 0.56683180
vt 0.24911830 0.61666570
vt 0.28624370 0.53735690
vt 0.29085760 0.47963420
vt 0.24692320 0.49040170
vt 0.21618520 0.56293150
vt 0.21658530 0.48505570
vt 0.16909210 0.59865010
vt 0.14539470 0.52210230
vt 0.17634250 0.64151660
vt 0.09269637 0.62660070
vt 0.02907336 0.66035510
vt 0.03644589 0.62133560
vt 0.07448533 0.59482200
vt 0.04959756 0.55704010
vt 0.02487606 0.60448710
vt 0.02164856 0.51933550
vt 0.08981022 0.48381050
vt 0.04238838 0.38826420
vt 0.18581890 0.45687970
vt 0.11913790 0.40204470
vt 0.11995170 0.23949680
vt 0.05973852 0.28384040
vt 0.02232972 0.26201640
vt 0.07135966 0.18439370
vt 0.02615720 0.13752230
vt 0.11275700 0.11143220
vt 0.18498330 0.05799964
vt 0.07732159 0.04518932
vt 0.02815002 0.05768922
vt 0.02289113 0.01376891
vt 0.09326708 0.01030189
vt 0.19426600 0.00582829
vt 0.24461340 0.03932956
vt 0.18235220 0.22593390
vt 0.20401200 0.14766500
vt 0.22059730 0.08265635
vt 0.21100110 0.37562210
vt 0.25719480 0.08213949
vt 0.27485480 0.03485665
vt 0.30307820 0.04024321
vt 0.24428980 0.13391350
vt 0.23577750 0.27016770
vt 0.20885980 0.24063330
vt 0.23773590 0.40831070
vt 0.29342910 0.09104744
vt 0.23853090 0.33668630
vt 0.27473590 0.42280990
vt 0.27824030 0.35726930
vt 0.30485680 0.42535150
vt 0.34913770 0.34162020
vt 0.28596760 0.32991130
vt 0.34388040 0.38906450
vt 0.37223070 0.43175590
vt 0.38492430 0.36707570
vt 0.42455700 0.30826500
vt 0.36787260 0.29406380
vt 0.38513880 0.25138690
vt 0.32543720 0.28678040
vt 0.34114150 0.20588750
vt 0.27799210 0.29012020
vt 0.26654480 0.24092030
vt 0.30060630 0.24286990
vt 0.28540160 0.17071530
vt 0.33587740 0.15931910
vt 0.39294020 0.17305420
vt 0.31664530 0.12278730
vt 0.36437080 0.10871500
vt 0.40581090 0.10527270
vt 0.39887080 0.06390473
vt 0.33958660 0.04167807
vt 0.32244370 0.07308546
vt 0.26600380 0.69915470
vt 0.36051930 0.68016470
vt 0.28573800 0.66015390
vt 0.35596230 0.65110710
vt 0.46403720 0.09273733
vt 0.47025340 0.04779997
vt 0.53100420 0.05886391
vt 0.55543150 0.08657052
vt 0.60463940 0.05187035
vt 0.53197180 0.11184880
vt 0.60614100 0.12612390
vt 0.63662250 0.12462530
vt 0.64185190 0.05130482
vt 0.56850210 0.14886440
vt 0.48286830 0.13857540
vt 0.51240170 0.17693000
vt 0.46058610 0.16886250
vt 0.60505370 0.16808590
vt 0.65123520 0.20938990
vt 0.60287190 0.21657860
vt 0.61591640 0.30332830
vt 0.66424010 0.28383570
vt 0.66886650 0.11381530
vt 0.66638310 0.04362571
vt 0.70193420 0.12709580
vt 0.68316820 0.19133380
vt 0.70583120 0.24355890
vt 0.72223000 0.18571180
vt 0.69351010 0.30758490
vt 0.66486220 0.34833340
vt 0.32368900 0.88128570
vt 0.37637280 0.85980060
vt 0.37305500 0.80979780
vt 0.22137560 0.84306470
vt 0.28824240 0.75447210
vt 0.37615100 0.78106460
vt 0.36669080 0.72733010
vt 0.23362890 0.91916280
vt 0.17672170 0.86450740
vt 0.18433030 0.93535590
vt 0.18694740 0.68208300
vt 0.16988430 0.76274000
vt 0.14038810 0.96471490
vt 0.09231272 0.97657440
vt 0.12710810 0.76774850
vt 0.12212900 0.72032800
vt 0.08077992 0.73822490
vt 0.07522170 0.93773280
vt 0.06823529 0.97063150
vt 0.04516159 0.94413710
vt 0.13660020 0.82996800
vt 0.06254566 0.78415230
vt 0.04747413 0.74216540
vt 0.00862443 0.75074510
vt 0.01869704 0.82025480
vt 0.06627502 0.82805680
vt 0.01693125 0.88009440
vt 0.09303266 0.91717510
vt 0.05533615 0.88791940
vt 0.07889561 0.84861640
vt 0.09435866 0.87561670
vt 0.96087250 0.03152087
vt 0.88458220 0.06994906
vt 0.92733880 0.18118040
vt 0.87957260 0.03045991
vt 0.97620330 0.21238230
vt 0.75982940 0.03519368
vt 0.96817090 0.26890420
vt 0.81335710 0.11036500
vt 0.75421970 0.07987629
vt 0.71532980 0.02614623
vt 0.72552910 0.08145426
vt 0.78512390 0.16646380
vt 0.75771630 0.17080520
vt 0.72699760 0.28105930
vt 0.75708720 0.30823980
vt 0.72248150 0.35238870
vt 0.74765810 0.42924840
vt 0.68970850 0.37788130
vt 0.69577100 0.44935210
vt 0.70120410 0.48788230
vt 0.77905050 0.33724230
vt 0.80731680 0.32419560
vt 0.70760620 0.56253370
vt 0.66907630 0.60082020
vt 0.71521680 0.60567160
vt 0.76581760 0.46432430
vt 0.72600430 0.56172650
vt 0.75732240 0.56854390
vt 0.73485850 0.62189290
vt 0.76591160 0.62110050
vt 0.79180430 0.48003000
vt 0.85904600 0.38991210
vt 0.79791280 0.59865320
vt 0.94423710 0.62811760
vt 0.83060870 0.54447780
vt 0.88287170 0.59790240
vt 0.91767110 0.51462890
vt 0.93945810 0.57829400
vt 0.96288880 0.61634430
vt 0.97187410 0.56675470
vt 0.90856110 0.27700570
vt 0.90663870 0.35585070
vt 0.94422340 0.35091660
vt 0.49040170 0.21230480
vt 0.56707580 0.24017450
vt 0.48631450 0.24363810
vt 0.40523670 0.21340580
vt 0.55580810 0.29660390
vt 0.48700280 0.29222200
vt 0.49174300 0.33592550
vt 0.57142230 0.33659560
vt 0.47316480 0.38647680
vt 0.53939680 0.37870950
vt 0.59304000 0.39498480
vt 0.42915920 0.39175890
vt 0.52035570 0.42938670
vt 0.41175180 0.44406730
vt 0.48731090 0.44261510
vt 0.45781960 0.47177080
vt 0.64177970 0.38672130
vt 0.60536370 0.44600490
vt 0.65233870 0.45752050
vt 0.55182550 0.47453730
vt 0.51630340 0.50792470
vt 0.60203220 0.50322050
vt 0.45822470 0.51732440
vt 0.53120770 0.54309290
vt 0.43789490 0.54983190
vt 0.45662510 0.58682820
vt 0.52522030 0.57506390
vt 0.59026710 0.55618600
vt 0.57772770 0.59105170
vt 0.63623670 0.59880500
vt 0.64047610 0.55880830
vt 0.66968630 0.51216970
vt 0.60165570 0.95447920
vt 0.58491840 0.97743650
vt 0.60373240 0.96585870
vt 0.57542930 0.96433090
vt 0.56478570 0.98010970
vt 0.58231720 0.93934180
vt 0.60611270 0.90506100
vt 0.53328560 0.97071630
vt 0.53640090 0.94332250
vt 0.53893890 0.89975720
vt 0.58446740 0.90962730
vt 0.49500710 0.97048040
vt 0.49220950 0.98399450
vt 0.45731270 0.97918190
vt 0.44943950 0.94977170
vt 0.43760800 0.97322310
vt 0.42522950 0.96214150
vt 0.42611630 0.93275170
vt 0.59308280 0.88184610
vt 0.60703320 0.82983890
vt 0.60232540 0.82105370
vt 0.49125910 0.93623850
vt 0.44275230 0.90958570
vt 0.42314850 0.87409580
vt 0.48607020 0.90334220
vt 0.58174550 0.82972830
vt 0.44447230 0.86181460
vt 0.49349360 0.86779990
vt 0.43967440 0.82710630
vt 0.41919610 0.82831070
vt 0.59315400 0.76988350
vt 0.60822030 0.75698480
vt 0.54785190 0.86229530
vt 0.52299020 0.85118090
vt 0.55460250 0.80165300
vt 0.48023830 0.83182730
vt 0.59662430 0.71155450
vt 0.60907110 0.68672220
vt 0.59277510 0.65429420
vt 0.60539420 0.64265330
vt 0.59470760 0.61979790
vt 0.56694860 0.64801760
vt 0.57491500 0.68269340
vt 0.54647040 0.72234270
vt 0.57843550 0.73318710
vt 0.55099180 0.76721910
vt 0.51219260 0.79232870
vt 0.47072760 0.80396570
vt 0.49425430 0.75163850
vt 0.44498600 0.77548000
vt 0.53313070 0.67759910
vt 0.49630610 0.71194570
vt 0.42684430 0.76947390
vt 0.41426010 0.76022950
vt 0.41821790 0.72762930
vt 0.44255800 0.72532410
vt 0.47734430 0.68775090
vt 0.42995920 0.69100700
vt 0.41257990 0.67306550
vt 0.42088510 0.63786970
vt 0.48806230 0.65266870
vt 0.44369240 0.66757040
vt 0.44380610 0.62151000
vt 0.43684080 0.61194100
vt 0.47832520 0.60314060
vt 0.49014060 0.61781600
vt 0.50683070 0.60178330
vt 0.52312210 0.60438190
vt 0.56221970 0.62086060
vt 0.55436240 0.60504590
vt 0.58102540 0.60967400
vt 0.01126695 0.37322470
vt 0.01894566 0.38873750
vt 0.93241300 0.74004850
vt 0.86775770 0.75161040
vt 0.92980220 0.78588070
vt 0.80022810 0.69305260
vt 0.86637160 0.79371300
vt 0.91862930 0.81599970
vt 0.80985280 0.74244820
vt 0.66788400 0.69372110
vt 0.86144430 0.84150370
vt 0.89467110 0.84684290
vt 0.86260090 0.89766540
vt 0.92172030 0.87654710
vt 0.92091070 0.91694890
vt 0.82781940 0.82445130
vt 0.71297010 0.75028050
vt 0.66293790 0.72519590
vt 0.65578750 0.83846880
vt 0.80501120 0.85709360
vt 0.74519870 0.83561840
vt 0.70551090 0.87425410
vt 0.65099450 0.89315940
vt 0.67323620 0.92229810
vt 0.82596710 0.95742200
vt 0.75263670 0.91866330
vt 0.81663560 0.91814120
vt 0.85281600 0.95061670
vt 0.86738920 0.92460200
vt 0.87449540 0.95496980
vt 0.91577730 0.95426050
vt 0.96727430 0.73714050
vt 0.98006120 0.80278010
vt 0.95246420 0.83135130
vt 0.99021980 0.86151910
vt 0.95942950 0.86986890
vt 0.96631590 0.90095840
vt 0.93902420 0.94083910
vt 0.05145593 0.71030450
vt 0.07892141 0.69094880
vt 0.10618580 0.68722250
vt 0.14777320 0.70669870
vt 0.12839600 0.66685150
vt 0.17745880 0.98766310
vt 0.22006090 0.96422350
vt 0.29000310 0.97866960
vt 0.30407250 0.94893200
vt 0.35319810 0.92902450
f 3/3/3 2/2/2 1/1/1
f 6/6/6 5/5/5 4/4/4
f 9/9/9 8/8/8 7/7/7
f 12/12/12 11/11/11 10/10/10
f 15/15/15 14/14/14 13/13/13
f 18/18/18 17/17/17 16/16/16
f 16/16/16 19/19/19 18/18/18
f 22/22/22 21/21/21 20/20/20
f 23/23/23 20/20/20 21/21/21
f 23/23/23 21/21/21 24/24/24
f 24/24/24 21/21/21 25/25/25
f 26/26/26 25/25/25 21/21/21
f 27/27/27 24/24/24 25/25/25
f 27/27/27 28/28/28 24/24/24
f 27/27/27 29/29/29 28/28/28
f 23/23/23 24/24/24 30/30/30
f 30/30/30 24/24/24 28/28/28
f 31/31/31 23/23/23 30/30/30
f 31/31/31 20/20/20 23/23/23
f 30/30/30 28/28/28 32/32/32
f 32/32/32 31/31/31 30/30/30
f 29/29/29 33/33/33 28/28/28
f 32/32/32 28/28/28 34/34/34
f 28/28/28 33/33/33 34/34/34
f 29/29/29 35/35/35 33/33/33
f 36/36/36 33/33/33 35/35/35
f 29/29/29 37/37/37 35/35/35
f 35/35/35 37/37/37 38/38/38
f 39/39/39 38/38/38 37/37/37
f 40/40/40 38/38/38 39/39/39
f 38/38/38 41/41/41 35/35/35
f 41/41/41 38/38/38 40/40/40
f 41/41/41 36/36/36 35/35/35
f 41/41/41 40/40/40 42/42/42
f 42/42/42 36/36/36 41/41/41
f 43/43/43 42/42/42 40/40/40
f 42/42/42 43/43/43 44/44/44
f 45/45/45 42/42/42 44/44/44
f 45/45/45 36/36/36 42/42/42
f 46/46/46 45/45/45 44/44/44
f 45/45/45 46/46/46 36/36/36
f 36/36/36 47/47/47 33/33/33
f 33/33/33 47/47/47 34/34/34
f 46/46/46 48/48/48 36/36/36
f 48/48/48 47/47/47 36/36/36
f 47/47/47 48/48/48 49/49/49
f 50/50/50 48/48/48 46/46/46
f 48/48/48 50/50/50 49/49/49
f 50/50/50 46/46/46 51/51/51
f 50/50/50 51/51/51 52/52/52
f 50/50/50 52/52/52 49/49/49
f 51/51/51 53/53/53 52/52/52
f 54/54/54 52/52/52 53/53/53
f 52/52/52 54/54/54 49/49/49
f 49/49/49 54/54/54 55/55/55
f 54/54/54 53/53/53 56/56/56
f 56/56/56 55/55/55 54/54/54
f 57/57/57 56/56/56 53/53/53
f 56/56/56 57/57/57 58/58/58
f 59/59/59 56/56/56 58/58/58
f 55/55/55 56/56/56 59/59/59
f 60/60/60 55/55/55 59/59/59
f 60/60/60 61/61/61 55/55/55
f 47/47/47 49/49/49 62/62/62
f 55/55/55 63/63/63 49/49/49
f 62/62/62 49/49/49 63/63/63
f 55/55/55 61/61/61 64/64/64
f 63/63/63 55/55/55 64/64/64
f 65/65/65 47/47/47 62/62/62
f 65/65/65 34/34/34 47/47/47
f 66/66/66 64/64/64 61/61/61
f 66/66/66 61/61/61 67/67/67
f 67/67/67 68/68/68 66/66/66
f 64/64/64 66/66/66 69/69/69
f 63/63/63 64/64/64 69/69/69
f 69/69/69 70/70/70 63/63/63
f 71/71/71 62/62/62 63/63/63
f 62/62/62 71/71/71 65/65/65
f 63/63/63 70/70/70 71/71/71
f 71/71/71 70/70/70 65/65/65
f 34/34/34 65/65/65 72/72/72
f 32/32/32 34/34/34 72/72/72
f 68/68/68 73/73/73 66/66/66
f 73/73/73 69/69/69 66/66/66
f 70/70/70 74/74/74 65/65/65
f 74/74/74 72/72/72 65/65/65
f 32/32/32 72/72/72 75/75/75
f 75/75/75 31/31/31 32/32/32
f 72/72/72 74/74/74 76/76/76
f 72/72/72 76/76/76 75/75/75
f 77/77/77 31/31/31 75/75/75
f 76/76/76 77/77/77 75/75/75
f 76/76/76 78/78/78 77/77/77
f 31/31/31 77/77/77 20/20/20
f 76/76/76 74/74/74 79/79/79
f 70/70/70 79/79/79 74/74/74
f 78/78/78 76/76/76 79/79/79
f 77/77/77 80/80/80 20/20/20
f 80/80/80 77/77/77 78/78/78
f 80/80/80 81/81/81 20/20/20
f 81/81/81 80/80/80 82/82/82
f 80/80/80 78/78/78 82/82/82
f 82/82/82 78/78/78 83/83/83
f 84/84/84 83/83/83 78/78/78
f 85/85/85 83/83/83 84/84/84
f 86/86/86 84/84/84 78/78/78
f 86/86/86 85/85/85 84/84/84
f 78/78/78 79/79/79 86/86/86
f 87/87/87 85/85/85 86/86/86
f 88/88/88 79/79/79 70/70/70
f 88/88/88 86/86/86 79/79/79
f 88/88/88 70/70/70 89/89/89
f 89/89/89 70/70/70 69/69/69
f 88/88/88 90/90/90 86/86/86
f 89/89/89 90/90/90 88/88/88
f 90/90/90 87/87/87 86/86/86
f 91/91/91 89/89/89 69/69/69
f 89/89/89 91/91/91 90/90/90
f 87/87/87 90/90/90 91/91/91
f 73/73/73 91/91/91 69/69/69
f 92/92/92 87/87/87 91/91/91
f 87/87/87 92/92/92 93/93/93
f 73/73/73 94/94/94 91/91/91
f 92/92/92 91/91/91 94/94/94
f 92/92/92 95/95/95 93/93/93
f 94/94/94 95/95/95 92/92/92
f 96/96/96 93/93/93 95/95/95
f 96/96/96 95/95/95 97/97/97
f 98/98/98 97/97/97 95/95/95
f 99/99/99 94/94/94 73/73/73
f 94/94/94 99/99/99 95/95/95
f 95/95/95 99/99/99 98/98/98
f 73/73/73 68/68/68 99/99/99
f 99/99/99 68/68/68 98/98/98
f 102/102/102 101/101/101 100/100/100
f 102/102/102 103/103/103 101/101/101
f 97/97/97 105/105/105 104/104/104
f 104/104/104 105/105/105 106/106/106
f 104/104/104 106/106/106 107/107/107
f 106/106/106 108/108/108 107/107/107
f 107/107/107 109/109/109 104/104/104
f 107/107/107 108/108/108 110/110/110
f 107/107/107 110/110/110 109/109/109
f 111/111/111 110/110/110 108/108/108
f 111/111/111 108/108/108 112/112/112
f 113/113/113 109/109/109 110/110/110
f 109/109/109 113/113/113 114/114/114
f 114/114/114 113/113/113 115/115/115
f 116/116/116 114/114/114 115/115/115
f 115/115/115 113/113/113 117/117/117
f 110/110/110 117/117/117 113/113/113
f 117/117/117 110/110/110 111/111/111
f 118/118/118 117/117/117 111/111/111
f 119/119/119 117/117/117 118/118/118
f 119/119/119 118/118/118 120/120/120
f 121/121/121 120/120/120 118/118/118
f 111/111/111 112/112/112 122/122/122
f 118/118/118 111/111/111 122/122/122
f 122/122/122 112/112/112 123/123/123
f 124/124/124 122/122/122 123/123/123
f 124/124/124 125/125/125 122/122/122
f 125/125/125 118/118/118 122/122/122
f 118/118/118 125/125/125 126/126/126
f 118/118/118 126/126/126 121/121/121
f 125/125/125 127/127/127 126/126/126
f 128/128/128 121/121/121 126/126/126
f 129/129/129 121/121/121 128/128/128
f 132/132/132 131/131/131 130/130/130
f 132/132/132 130/130/130 133/133/133
f 133/133/133 134/134/134 132/132/132
f 132/132/132 134/134/134 135/135/135
f 135/135/135 134/134/134 136/136/136
f 134/134/134 101/101/101 136/136/136
f 133/133/133 130/130/130 137/137/137
f 133/133/133 137/137/137 138/138/138
f 101/101/101 134/134/134 100/100/100
f 139/139/139 138/138/138 137/137/137
f 100/100/100 134/134/134 140/140/140
f 140/140/140 102/102/102 100/100/100
f 141/141/141 140/140/140 134/134/134
f 133/133/133 141/141/141 134/134/134
f 133/133/133 138/138/138 141/141/141
f 9/9/9 138/138/138 139/139/139
f 139/139/139 142/142/142 9/9/9
f 142/142/142 8/8/8 9/9/9
f 8/8/8 142/142/142 143/143/143
f 7/7/7 138/138/138 9/9/9
f 138/138/138 144/144/144 141/141/141
f 145/145/145 141/141/141 144/144/144
f 144/144/144 146/146/146 145/145/145
f 143/143/143 147/147/147 8/8/8
f 147/147/147 143/143/143 148/148/148
f 149/149/149 147/147/147 148/148/148
f 144/144/144 138/138/138 150/150/150
f 138/138/138 7/7/7 150/150/150
f 146/146/146 144/144/144 151/151/151
f 144/144/144 150/150/150 151/151/151
f 151/151/151 152/152/152 146/146/146
f 153/153/153 152/152/152 151/151/151
f 154/154/154 153/153/153 151/151/151
f 151/151/151 155/155/155 154/154/154
f 150/150/150 155/155/155 151/151/151
f 156/156/156 154/154/154 155/155/155
f 8/8/8 147/147/147 157/157/157
f 8/8/8 157/157/157 7/7/7
f 149/149/149 158/158/158 147/147/147
f 156/156/156 158/158/158 149/149/149
f 158/158/158 157/157/157 147/147/147
f 159/159/159 156/156/156 155/155/155
f 150/150/150 159/159/159 155/155/155
f 156/156/156 159/159/159 158/158/158
f 160/160/160 7/7/7 157/157/157
f 160/160/160 150/150/150 7/7/7
f 160/160/160 157/157/157 158/158/158
f 159/159/159 150/150/150 160/160/160
f 158/158/158 159/159/159 160/160/160
f 14/14/14 15/15/15 161/161/161
f 162/162/162 161/161/161 15/15/15
f 162/162/162 15/15/15 163/163/163
f 13/13/13 163/163/163 15/15/15
f 161/161/161 162/162/162 164/164/164
f 163/163/163 13/13/13 165/165/165
f 162/162/162 166/166/166 164/164/164
f 165/165/165 167/167/167 163/163/163
f 166/166/166 162/162/162 168/168/168
f 163/163/163 168/168/168 162/162/162
f 169/169/169 166/166/166 168/168/168
f 170/170/170 166/166/166 169/169/169
f 169/169/169 171/171/171 170/170/170
f 123/123/123 170/170/170 171/171/171
f 123/123/123 171/171/171 124/124/124
f 169/169/169 168/168/168 172/172/172
f 171/171/171 169/169/169 172/172/172
f 124/124/124 171/171/171 173/173/173
f 171/171/171 172/172/172 173/173/173
f 127/127/127 124/124/124 173/173/173
f 125/125/125 124/124/124 127/127/127
f 126/126/126 127/127/127 173/173/173
f 174/174/174 126/126/126 173/173/173
f 128/128/128 126/126/126 174/174/174
f 175/175/175 174/174/174 173/173/173
f 175/175/175 173/173/173 172/172/172
f 176/176/176 128/128/128 174/174/174
f 176/176/176 174/174/174 175/175/175
f 177/177/177 176/176/176 175/175/175
f 129/129/129 128/128/128 176/176/176
f 129/129/129 176/176/176 178/178/178
f 179/179/179 178/178/178 176/176/176
f 179/179/179 176/176/176 177/177/177
f 179/179/179 177/177/177 180/180/180
f 172/172/172 181/181/181 175/175/175
f 177/177/177 175/175/175 181/181/181
f 182/182/182 181/181/181 172/172/172
f 172/172/172 168/168/168 182/182/182
f 182/182/182 168/168/168 163/163/163
f 183/183/183 180/180/180 177/177/177
f 184/184/184 180/180/180 183/183/183
f 185/185/185 184/184/184 183/183/183
f 177/177/177 181/181/181 186/186/186
f 182/182/182 186/186/186 181/181/181
f 187/187/187 183/183/183 177/177/177
f 183/183/183 187/187/187 185/185/185
f 187/187/187 177/177/177 186/186/186
f 185/185/185 187/187/187 188/188/188
f 188/188/188 187/187/187 186/186/186
f 185/185/185 188/188/188 189/189/189
f 190/190/190 189/189/189 188/188/188
f 191/191/191 186/186/186 182/182/182
f 188/188/188 186/186/186 191/191/191
f 163/163/163 192/192/192 182/182/182
f 191/191/191 182/182/182 192/192/192
f 193/193/193 190/190/190 188/188/188
f 193/193/193 194/194/194 190/190/190
f 195/195/195 188/188/188 191/191/191
f 195/195/195 193/193/193 188/188/188
f 193/193/193 196/196/196 194/194/194
f 196/196/196 193/193/193 195/195/195
f 191/191/191 197/197/197 195/195/195
f 195/195/195 197/197/197 196/196/196
f 197/197/197 191/191/191 192/192/192
f 194/194/194 196/196/196 198/198/198
f 197/197/197 198/198/198 196/196/196
f 198/198/198 199/199/199 194/194/194
f 199/199/199 198/198/198 200/200/200
f 3/3/3 200/200/200 198/198/198
f 197/197/197 3/3/3 198/198/198
f 200/200/200 3/3/3 1/1/1
f 192/192/192 163/163/163 201/201/201
f 201/201/201 163/163/163 167/167/167
f 192/192/192 202/202/202 197/197/197
f 202/202/202 3/3/3 197/197/197
f 192/192/192 201/201/201 202/202/202
f 203/203/203 201/201/201 167/167/167
f 202/202/202 201/201/201 203/203/203
f 3/3/3 202/202/202 203/203/203
f 2/2/2 203/203/203 167/167/167
f 3/3/3 203/203/203 2/2/2
f 119/119/119 115/115/115 117/117/117
f 119/119/119 204/204/204 115/115/115
f 115/115/115 204/204/204 116/116/116
f 119/119/119 205/205/205 204/204/204
f 205/205/205 119/119/119 120/120/120
f 206/206/206 204/204/204 205/205/205
f 204/204/204 207/207/207 116/116/116
f 206/206/206 207/207/207 204/204/204
f 205/205/205 120/120/120 208/208/208
f 205/205/205 208/208/208 206/206/206
f 93/93/93 116/116/116 207/207/207
f 93/93/93 207/207/207 87/87/87
f 87/87/87 207/207/207 85/85/85
f 207/207/207 206/206/206 85/85/85
f 93/93/93 96/96/96 116/116/116
f 116/116/116 96/96/96 114/114/114
f 83/83/83 85/85/85 206/206/206
f 114/114/114 96/96/96 104/104/104
f 104/104/104 96/96/96 97/97/97
f 109/109/109 114/114/114 104/104/104
f 208/208/208 209/209/209 206/206/206
f 209/209/209 83/83/83 206/206/206
f 208/208/208 210/210/210 209/209/209
f 83/83/83 209/209/209 210/210/210
f 208/208/208 211/211/211 210/210/210
f 211/211/211 208/208/208 120/120/120
f 83/83/83 210/210/210 212/212/212
f 213/213/213 210/210/210 211/211/211
f 212/212/212 210/210/210 213/213/213
f 211/211/211 214/214/214 213/213/213
f 120/120/120 214/214/214 211/211/211
f 83/83/83 212/212/212 215/215/215
f 83/83/83 215/215/215 82/82/82
f 212/212/212 213/213/213 216/216/216
f 214/214/214 216/216/216 213/213/213
f 217/217/217 82/82/82 215/215/215
f 217/217/217 81/81/81 82/82/82
f 81/81/81 217/217/217 20/20/20
f 22/22/22 20/20/20 217/217/217
f 212/212/212 218/218/218 215/215/215
f 217/217/217 215/215/215 218/218/218
f 216/216/216 218/218/218 212/212/212
f 22/22/22 217/217/217 219/219/219
f 219/219/219 217/217/217 218/218/218
f 120/120/120 220/220/220 214/214/214
f 216/216/216 214/214/214 221/221/221
f 221/221/221 214/214/214 220/220/220
f 222/222/222 221/221/221 220/220/220
f 222/222/222 220/220/220 129/129/129
f 220/220/220 120/120/120 129/129/129
f 121/121/121 129/129/129 120/120/120
f 129/129/129 178/178/178 222/222/222
f 178/178/178 179/179/179 222/222/222
f 218/218/218 216/216/216 223/223/223
f 221/221/221 223/223/223 216/216/216
f 224/224/224 219/219/219 218/218/218
f 224/224/224 218/218/218 223/223/223
f 223/223/223 221/221/221 225/225/225
f 221/221/221 222/222/222 225/225/225
f 225/225/225 224/224/224 223/223/223
f 219/219/219 224/224/224 226/226/226
f 22/22/22 219/219/219 226/226/226
f 225/225/225 227/227/227 224/224/224
f 224/224/224 227/227/227 226/226/226
f 228/228/228 22/22/22 226/226/226
f 228/228/228 226/226/226 227/227/227
f 21/21/21 22/22/22 228/228/228
f 228/228/228 26/26/26 21/21/21
f 228/228/228 229/229/229 26/26/26
f 228/228/228 230/230/230 229/229/229
f 228/228/228 227/227/227 230/230/230
f 227/227/227 225/225/225 231/231/231
f 230/230/230 227/227/227 231/231/231
f 222/222/222 231/231/231 225/225/225
f 231/231/231 232/232/232 230/230/230
f 233/233/233 232/232/232 231/231/231
f 233/233/233 231/231/231 234/234/234
f 234/234/234 231/231/231 222/222/222
f 233/233/233 234/234/234 184/184/184
f 222/222/222 235/235/235 234/234/234
f 184/184/184 234/234/234 235/235/235
f 179/179/179 235/235/235 222/222/222
f 184/184/184 235/235/235 180/180/180
f 235/235/235 179/179/179 180/180/180
f 238/238/238 237/237/237 236/236/236
f 239/239/239 236/236/236 237/237/237
f 239/239/239 237/237/237 240/240/240
f 241/241/241 236/236/236 239/239/239
f 241/241/241 242/242/242 236/236/236
f 240/240/240 243/243/243 239/239/239
f 244/244/244 239/239/239 243/243/243
f 239/239/239 244/244/244 241/241/241
f 245/245/245 241/241/241 244/244/244
f 241/241/241 245/245/245 246/246/246
f 242/242/242 241/241/241 246/246/246
f 247/247/247 243/243/243 240/240/240
f 243/243/243 247/247/247 244/244/244
f 248/248/248 247/247/247 240/240/240
f 249/249/249 247/247/247 248/248/248
f 249/249/249 250/250/250 247/247/247
f 249/249/249 251/251/251 250/250/250
f 251/251/251 252/252/252 250/250/250
f 250/250/250 252/252/252 253/253/253
f 254/254/254 242/242/242 246/246/246
f 254/254/254 246/246/246 245/245/245
f 255/255/255 242/242/242 254/254/254
f 256/256/256 255/255/255 254/254/254
f 247/247/247 257/257/257 244/244/244
f 257/257/257 247/247/247 250/250/250
f 245/245/245 244/244/244 257/257/257
f 253/253/253 258/258/258 250/250/250
f 253/253/253 259/259/259 258/258/258
f 260/260/260 257/257/257 250/250/250
f 258/258/258 260/260/260 250/250/250
f 260/260/260 245/245/245 257/257/257
f 254/254/254 261/261/261 256/256/256
f 254/254/254 245/245/245 261/261/261
f 262/262/262 258/258/258 259/259/259
f 262/262/262 260/260/260 258/258/258
f 260/260/260 263/263/263 245/245/245
f 263/263/263 260/260/260 262/262/262
f 259/259/259 264/264/264 262/262/262
f 265/265/265 264/264/264 259/259/259
f 266/266/266 256/256/256 261/261/261
f 266/266/266 267/267/267 256/256/256
f 245/245/245 263/263/263 268/268/268
f 268/268/268 261/261/261 245/245/245
f 261/261/261 268/268/268 269/269/269
f 268/268/268 263/263/263 269/269/269
f 270/270/270 261/261/261 269/269/269
f 263/263/263 270/270/270 269/269/269
f 266/266/266 261/261/261 270/270/270
f 271/271/271 263/263/263 262/262/262
f 271/271/271 262/262/262 264/264/264
f 271/271/271 270/270/270 263/263/263
f 272/272/272 267/267/267 266/266/266
f 272/272/272 273/273/273 267/267/267
f 273/273/273 272/272/272 274/274/274
f 275/275/275 273/273/273 274/274/274
f 274/274/274 276/276/276 275/275/275
f 276/276/276 274/274/274 277/277/277
f 272/272/272 278/278/278 274/274/274
f 278/278/278 277/277/277 274/274/274
f 278/278/278 272/272/272 279/279/279
f 272/272/272 266/266/266 280/280/280
f 279/279/279 272/272/272 280/280/280
f 266/266/266 281/281/281 280/280/280
f 281/281/281 266/266/266 270/270/270
f 279/279/279 280/280/280 281/281/281
f 282/282/282 281/281/281 270/270/270
f 271/271/271 282/282/282 270/270/270
f 281/281/281 282/282/282 279/279/279
f 282/282/282 271/271/271 283/283/283
f 283/283/283 271/271/271 264/264/264
f 282/282/282 283/283/283 284/284/284
f 282/282/282 284/284/284 279/279/279
f 285/285/285 283/283/283 264/264/264
f 285/285/285 284/284/284 283/283/283
f 285/285/285 264/264/264 265/265/265
f 279/279/279 286/286/286 278/278/278
f 286/286/286 277/277/277 278/278/278
f 284/284/284 287/287/287 279/279/279
f 286/286/286 279/279/279 287/287/287
f 285/285/285 265/265/265 288/288/288
f 289/289/289 288/288/288 265/265/265
f 290/290/290 288/288/288 289/289/289
f 284/284/284 285/285/285 291/291/291
f 285/285/285 288/288/288 291/291/291
f 287/287/287 284/284/284 291/291/291
f 291/291/291 288/288/288 290/290/290
f 287/287/287 292/292/292 286/286/286
f 287/287/287 291/291/291 292/292/292
f 291/291/291 290/290/290 293/293/293
f 291/291/291 293/293/293 292/292/292
f 290/290/290 294/294/294 293/293/293
f 295/295/295 293/293/293 294/294/294
f 292/292/292 296/296/296 286/286/286
f 296/296/296 277/277/277 286/286/286
f 292/292/292 293/293/293 297/297/297
f 297/297/297 293/293/293 295/295/295
f 292/292/292 297/297/297 296/296/296
f 295/295/295 298/298/298 297/297/297
f 296/296/296 297/297/297 298/298/298
f 298/298/298 295/295/295 299/299/299
f 300/300/300 298/298/298 299/299/299
f 298/298/298 301/301/301 296/296/296
f 301/301/301 298/298/298 300/300/300
f 296/296/296 301/301/301 277/277/277
f 301/301/301 300/300/300 302/302/302
f 301/301/301 302/302/302 303/303/303
f 301/301/301 303/303/303 277/277/277
f 304/304/304 277/277/277 303/303/303
f 303/303/303 305/305/305 304/304/304
f 276/276/276 277/277/277 304/304/304
f 305/305/305 306/306/306 304/304/304
f 306/306/306 276/276/276 304/304/304
f 51/51/51 46/46/46 307/307/307
f 307/307/307 46/46/46 308/308/308
f 44/44/44 308/308/308 46/46/46
f 309/309/309 16/16/16 17/17/17
f 16/16/16 309/309/309 310/310/310
f 16/16/16 310/310/310 19/19/19
f 309/309/309 311/311/311 310/310/310
f 310/310/310 312/312/312 19/19/19
f 313/313/313 310/310/310 311/311/311
f 311/311/311 314/314/314 313/313/313
f 315/315/315 312/312/312 310/310/310
f 312/312/312 315/315/315 316/316/316
f 313/313/313 314/314/314 317/317/317
f 317/317/317 314/314/314 318/318/318
f 319/319/319 317/317/317 318/318/318
f 319/319/319 318/318/318 320/320/320
f 320/320/320 321/321/321 319/319/319
f 313/313/313 322/322/322 310/310/310
f 322/322/322 313/313/313 317/317/317
f 322/322/322 315/315/315 310/310/310
f 319/319/319 322/322/322 317/317/317
f 316/316/316 315/315/315 323/323/323
f 315/315/315 322/322/322 323/323/323
f 324/324/324 316/316/316 323/323/323
f 324/324/324 323/323/323 325/325/325
f 322/322/322 326/326/326 323/323/323
f 322/322/322 319/319/319 326/326/326
f 323/323/323 327/327/327 325/325/325
f 323/323/323 326/326/326 327/327/327
f 327/327/327 328/328/328 325/325/325
f 326/326/326 328/328/328 327/327/327
f 329/329/329 325/325/325 328/328/328
f 330/330/330 329/329/329 328/328/328
f 330/330/330 11/11/11 329/329/329
f 330/330/330 10/10/10 11/11/11
f 10/10/10 330/330/330 331/331/331
f 332/332/332 330/330/330 328/328/328
f 326/326/326 332/332/332 328/328/328
f 330/330/330 332/332/332 331/331/331
f 333/333/333 332/332/332 326/326/326
f 332/332/332 333/333/333 331/331/331
f 326/326/326 319/319/319 333/333/333
f 334/334/334 331/331/331 333/333/333
f 333/333/333 319/319/319 334/334/334
f 319/319/319 335/335/335 334/334/334
f 336/336/336 334/334/334 335/335/335
f 321/321/321 335/335/335 319/319/319
f 336/336/336 335/335/335 337/337/337
f 321/321/321 337/337/337 335/335/335
f 338/338/338 309/309/309 17/17/17
f 309/309/309 338/338/338 339/339/339
f 339/339/339 311/311/311 309/309/309
f 311/311/311 339/339/339 340/340/340
f 314/314/314 311/311/311 340/340/340
f 339/339/339 341/341/341 340/340/340
f 314/314/314 340/340/340 318/318/318
f 342/342/342 340/340/340 341/341/341
f 342/342/342 318/318/318 340/340/340
f 320/320/320 318/318/318 342/342/342
f 343/343/343 342/342/342 341/341/341
f 320/320/320 342/342/342 321/321/321
f 321/321/321 342/342/342 343/343/343
f 321/321/321 343/343/343 344/344/344
f 344/344/344 337/337/337 321/321/321
f 152/152/152 153/153/153 345/345/345
f 345/345/345 146/146/146 152/152/152
f 145/145/145 146/146/146 345/345/345
f 345/345/345 346/346/346 145/145/145
f 347/347/347 145/145/145 346/346/346
f 145/145/145 347/347/347 348/348/348
f 348/348/348 347/347/347 349/349/349
f 141/141/141 145/145/145 348/348/348
f 348/348/348 349/349/349 140/140/140
f 141/141/141 348/348/348 140/140/140
f 142/142/142 139/139/139 350/350/350
f 351/351/351 350/350/350 139/139/139
f 350/350/350 351/351/351 352/352/352
f 139/139/139 137/137/137 351/351/351
f 352/352/352 351/351/351 353/353/353
f 351/351/351 137/137/137 353/353/353
f 4/4/4 352/352/352 353/353/353
f 137/137/137 354/354/354 353/353/353
f 353/353/353 354/354/354 4/4/4
f 130/130/130 354/354/354 137/137/137
f 4/4/4 354/354/354 6/6/6
f 354/354/354 130/130/130 131/131/131
f 354/354/354 131/131/131 6/6/6

