mtllib FP205:Baseboard_007_157dadfa.mtl
g FP205:Baseboard.007_157dadfa
v 4.65075 0.12 5E-05
v 4.65075 0 0
v 5 0 0
v 5 0.12 5E-05
v 5 0.12 5E-05
v 5 0 0
v 5 -0.00241 7
v 5 0.11759 7.00005
v 5 0.11759 7.00005
v 5 -0.00241 7
v 0 -0.00241 7
v 0 0.11759 7.00005
v 0 0.11759 7.00005
v 0 -0.00241 7
v 0 -0.00207 6
v 0 0.11793 6.00005
v 0 0.12 5E-05
v 0 0 0
v 4.64575 0.12 0.01505
v 4.985 0.12 0.01505
v 4.985 0 0.015
v 4.64575 0 0.015
v 4.985 0.12 0.01505
v 4.985 0.11759 6.98505
v 4.985 -0.00241 6.985
v 4.985 0 0.015
v 4.985 0.11759 6.98505
v 0.015 0.11759 6.98505
v 0.015 -0.00241 6.985
v 4.985 -0.00241 6.985
v 0.015 0.11759 6.98505
v 0.015 -0.00207 6
v 0.015 -0.00241 6.985
v 0.015 0.11793 6.00005
v 0.015 0.12 0.01505
v 0.015 0 0.015
v 0 0.12 5E-05
v 0.015 0.12 0.01505
v 0.015 0.11793 6.00005
v 0 0.11793 6.00005
v 0.015 0.11759 6.98505
v 0 0.11759 7.00005
v 4.985 0.11759 6.98505
v 5 0.11759 7.00005
v 4.985 0.12 0.01505
v 5 0.12 5E-05
v 4.64575 0.12 0.01505
v 4.65075 0.12 5E-05
v 3.67796 0.12 5E-05
v 3.68296 0.12 0.01505
v 0.015 0.12 0.01505
v 0 0.12 5E-05
v 4.65075 0 0
v 4.64575 0 0.015
v 4.985 0 0.015
v 5 0 0
v 4.985 -0.00241 6.985
v 5 -0.00241 7
v 0.015 -0.00241 6.985
v 0 -0.00241 7
v 0.015 -0.00207 6
v 0 -0.00207 6
v 0.015 0 0.015
v 0 0 0
v 0 0 0
v 0.015 0 0.015
v 3.68296 0 0.015
v 3.67796 0 0
v 0.015 0.12 0.01505
v 3.68296 0.12 0.01505
v 3.68296 0 0.015
v 0.015 0 0.015
v 0 0.12 5E-05
v 0 0 0
v 3.67796 0 0
v 3.67796 0.12 5E-05
vn 0 0.000199518 -0.5773503
vn 0 0.000199518 -0.5773503
vn 0 0.000199518 -0.5773503
vn 0 0.000199518 -0.5773503
vn 0.5773503 0 0
vn 0.5773503 0 0
vn 0.5773503 0 0
vn 0.5773503 0 0
vn 0 -0.000199518 0.5773503
vn 0 -0.000199518 0.5773503
vn 0 -0.000199518 0.5773503
vn 0 -0.000199518 0.5773503
vn -0.5773503 0 0
vn -0.5773503 0 0
vn -0.5773503 0 0
vn -0.5773503 0 0
vn -0.5773503 0 0
vn -0.5773503 0 0
vn 0 -0.000199518 0.5773503
vn 0 -0.000199518 0.5773503
vn 0 -0.000199518 0.5773503
vn 0 -0.000199518 0.5773503
vn -0.5773503 0 0
vn -0.5773503 0 0
vn -0.5773503 0 0
vn -0.5773503 0 0
vn 0 0.000199518 -0.5773503
vn 0 0.000199518 -0.5773503
vn 0 0.000199518 -0.5773503
vn 0 0.000199518 -0.5773503
vn 0.5773503 0 0
vn 0.5773503 0 0
vn 0.5773503 0 0
vn 0.5773503 0 0
vn 0.5773503 0 0
vn 0.5773503 0 0
vn -3.828425E-07 0.5773503 0.000199518
vn -3.828425E-07 0.5773503 0.000199518
vn 0 0.5773503 0.000199518
vn 0 0.5773503 0.000199518
vn 0 0.5773503 0.000199518
vn 0 0.5773503 0.000199518
vn 0 0.5773503 0.000199518
vn 0 0.5773503 0.000199518
vn 3.284472E-07 0.5773503 0.000199518
vn 3.284472E-07 0.5773503 0.000199518
vn 0 0.5773503 0.000199518
vn 0 0.5773503 0.000199518
vn 0 0.5773503 0.000199518
vn 0 0.5773503 0.000199518
vn -3.828425E-07 0.5773503 0.000199518
vn -3.828425E-07 0.5773503 0.000199518
vn 0 -0.5773503 -0.000199518
vn 0 -0.5773503 -0.000199518
vn 0 -0.5773503 -0.000199518
vn 0 -0.5773503 -0.000199518
vn 0 -0.5773503 -0.000199518
vn 0 -0.5773503 -0.000199518
vn 0 -0.5773503 -0.000199518
vn 0 -0.5773503 -0.000199518
vn 0 -0.5773503 -0.000199518
vn 0 -0.5773503 -0.000199518
vn 0 -0.5773503 -0.000199518
vn 0 -0.5773503 -0.000199518
vn 0 -0.5773503 -0.000199518
vn 0 -0.5773503 -0.000199518
vn 0 -0.5773503 -0.000199518
vn 0 -0.5773503 -0.000199518
vn 0 -0.000199518 0.5773503
vn 0 -0.000199518 0.5773503
vn 0 -0.000199518 0.5773503
vn 0 -0.000199518 0.5773503
vn 0 0.000199518 -0.5773503
vn 0 0.000199518 -0.5773503
vn 0 0.000199518 -0.5773503
vn 0 0.000199518 -0.5773503
vt 0.1396288 1.477273E-05
vt 0.1396294 0.005041428
vt 0.2094403 0.005033562
vt 0.2094397 7.129654E-06
vt 0.2094397 7.129654E-06
vt 0.2094403 0.005033562
vt 0.4974031 0.005090398
vt 0.4974026 6.399303E-05
vt 0.4974026 6.399303E-05
vt 0.4974031 0.005090398
vt 0.7068087 0.00506641
vt 0.7068081 4.067375E-05
vt 0.7068081 4.067375E-05
vt 0.7068087 0.00506641
vt 0.7486898 0.005061687
vt 0.7486892 3.595139E-05
vt 0.9999923 7.157515E-06
vt 0.9999929 0.005033226
vt 0.1396288 1.477273E-05
vt 0.2094397 7.129654E-06
vt 0.2094403 0.005033562
vt 0.1396294 0.005041428
vt 0.2094397 7.129654E-06
vt 0.4974026 6.399303E-05
vt 0.4974031 0.005090398
vt 0.2094403 0.005033562
vt 0.4974026 6.399303E-05
vt 0.7068081 4.067375E-05
vt 0.7068087 0.00506641
vt 0.4974031 0.005090398
vt 0.7068081 4.067375E-05
vt 0.7486898 0.005061687
vt 0.7068087 0.00506641
vt 0.7486892 3.595139E-05
vt 0.9999923 7.157515E-06
vt 0.9999929 0.005033226
vt 0.9999923 7.157515E-06
vt 0.9999923 7.157515E-06
vt 0.7486892 3.595139E-05
vt 0.7486892 3.595139E-05
vt 0.7068081 4.067375E-05
vt 0.7068081 4.067375E-05
vt 0.4974026 6.399303E-05
vt 0.4974026 6.399303E-05
vt 0.2094397 7.129654E-06
vt 0.2094397 7.129654E-06
vt 0.1396288 1.477273E-05
vt 0.1396288 1.477273E-05
vt 0.06981798 2.241581E-05
vt 0.06981798 2.241581E-05
vt 7.129654E-06 3.005888E-05
vt 7.129654E-06 3.005888E-05
vt 0.1396294 0.005041428
vt 0.1396294 0.005041428
vt 0.2094403 0.005033562
vt 0.2094403 0.005033562
vt 0.4974031 0.005090398
vt 0.4974031 0.005090398
vt 0.7068087 0.00506641
vt 0.7068087 0.00506641
vt 0.7486898 0.005061687
vt 0.7486898 0.005061687
vt 0.9999929 0.005033226
vt 0.9999929 0.005033226
vt 7.686865E-06 0.00505716
vt 7.686865E-06 0.00505716
vt 0.06981855 0.005049294
vt 0.06981855 0.005049294
vt 7.129654E-06 3.005888E-05
vt 0.06981798 2.241581E-05
vt 0.06981855 0.005049294
vt 7.686865E-06 0.00505716
vt 7.129654E-06 3.005888E-05
vt 7.686865E-06 0.00505716
vt 0.06981855 0.005049294
vt 0.06981798 2.241581E-05
usemtl DarkWoodFloors
f 3/3/3 2/2/2 1/1/1
f 4/4/4 3/3/3 1/1/1
f 7/7/7 6/6/6 5/5/5
f 8/8/8 7/7/7 5/5/5
f 11/11/11 10/10/10 9/9/9
f 12/12/12 11/11/11 9/9/9
f 15/15/15 14/14/14 13/13/13
f 16/16/16 15/15/15 13/13/13
f 15/15/15 16/16/16 17/17/17
f 18/18/18 15/15/15 17/17/17
f 21/21/21 20/20/20 19/19/19
f 22/22/22 21/21/21 19/19/19
f 25/25/25 24/24/24 23/23/23
f 26/26/26 25/25/25 23/23/23
f 29/29/29 28/28/28 27/27/27
f 30/30/30 29/29/29 27/27/27
f 33/33/33 32/32/32 31/31/31
f 32/32/32 34/34/34 31/31/31
f 34/34/34 32/32/32 35/35/35
f 32/32/32 36/36/36 35/35/35
f 39/39/39 38/38/38 37/37/37
f 40/40/40 39/39/39 37/37/37
f 41/41/41 39/39/39 40/40/40
f 42/42/42 41/41/41 40/40/40
f 43/43/43 41/41/41 42/42/42
f 44/44/44 43/43/43 42/42/42
f 45/45/45 43/43/43 44/44/44
f 46/46/46 45/45/45 44/44/44
f 47/47/47 45/45/45 46/46/46
f 48/48/48 47/47/47 46/46/46
f 51/51/51 50/50/50 49/49/49
f 52/52/52 51/51/51 49/49/49
f 55/55/55 54/54/54 53/53/53
f 56/56/56 55/55/55 53/53/53
f 57/57/57 55/55/55 56/56/56
f 58/58/58 57/57/57 56/56/56
f 59/59/59 57/57/57 58/58/58
f 60/60/60 59/59/59 58/58/58
f 61/61/61 59/59/59 60/60/60
f 62/62/62 61/61/61 60/60/60
f 63/63/63 61/61/61 62/62/62
f 64/64/64 63/63/63 62/62/62
f 67/67/67 66/66/66 65/65/65
f 68/68/68 67/67/67 65/65/65
f 71/71/71 70/70/70 69/69/69
f 72/72/72 71/71/71 69/69/69
f 75/75/75 74/74/74 73/73/73
f 76/76/76 75/75/75 73/73/73
g FP205:Baseboard.007_157dadfa
v 4.65075 0.12 5E-05
v 4.65075 0 0
v 5 0 0
v 5 0.12 5E-05
v 5 0.12 5E-05
v 5 0 0
v 5 -0.00241 7
v 5 0.11759 7.00005
v 5 0.11759 7.00005
v 5 -0.00241 7
v 0 -0.00241 7
v 0 0.11759 7.00005
v 0 0.11759 7.00005
v 0 -0.00241 7
v 0 -0.00207 6
v 0 0.11793 6.00005
v 0 0.12 5E-05
v 0 0 0
v 4.64575 0.12 0.01505
v 4.985 0.12 0.01505
v 4.985 0 0.015
v 4.64575 0 0.015
v 4.985 0.12 0.01505
v 4.985 0.11759 6.98505
v 4.985 -0.00241 6.985
v 4.985 0 0.015
v 4.985 0.11759 6.98505
v 0.015 0.11759 6.98505
v 0.015 -0.00241 6.985
v 4.985 -0.00241 6.985
v 0.015 0.11759 6.98505
v 0.015 -0.00207 6
v 0.015 -0.00241 6.985
v 0.015 0.11793 6.00005
v 0.015 0.12 0.01505
v 0.015 0 0.015
v 0 0.12 5E-05
v 0.015 0.12 0.01505
v 0.015 0.11793 6.00005
v 0 0.11793 6.00005
v 0.015 0.11759 6.98505
v 0 0.11759 7.00005
v 4.985 0.11759 6.98505
v 5 0.11759 7.00005
v 4.985 0.12 0.01505
v 5 0.12 5E-05
v 4.64575 0.12 0.01505
v 4.65075 0.12 5E-05
v 3.67796 0.12 5E-05
v 3.68296 0.12 0.01505
v 0.015 0.12 0.01505
v 0 0.12 5E-05
v 4.65075 0 0
v 4.64575 0 0.015
v 4.985 0 0.015
v 5 0 0
v 4.985 -0.00241 6.985
v 5 -0.00241 7
v 0.015 -0.00241 6.985
v 0 -0.00241 7
v 0.015 -0.00207 6
v 0 -0.00207 6
v 0.015 0 0.015
v 0 0 0
v 0 0 0
v 0.015 0 0.015
v 3.68296 0 0.015
v 3.67796 0 0
v 0.015 0.12 0.01505
v 3.68296 0.12 0.01505
v 3.68296 0 0.015
v 0.015 0 0.015
v 0 0.12 5E-05
v 0 0 0
v 3.67796 0 0
v 3.67796 0.12 5E-05
vn 0 0.000199518 -0.5773503
vn 0 0.000199518 -0.5773503
vn 0 0.000199518 -0.5773503
vn 0 0.000199518 -0.5773503
vn 0.5773503 0 0
vn 0.5773503 0 0
vn 0.5773503 0 0
vn 0.5773503 0 0
vn 0 -0.000199518 0.5773503
vn 0 -0.000199518 0.5773503
vn 0 -0.000199518 0.5773503
vn 0 -0.000199518 0.5773503
vn -0.5773503 0 0
vn -0.5773503 0 0
vn -0.5773503 0 0
vn -0.5773503 0 0
vn -0.5773503 0 0
vn -0.5773503 0 0
vn 0 -0.000199518 0.5773503
vn 0 -0.000199518 0.5773503
vn 0 -0.000199518 0.5773503
vn 0 -0.000199518 0.5773503
vn -0.5773503 0 0
vn -0.5773503 0 0
vn -0.5773503 0 0
vn -0.5773503 0 0
vn 0 0.000199518 -0.5773503
vn 0 0.000199518 -0.5773503
vn 0 0.000199518 -0.5773503
vn 0 0.000199518 -0.5773503
vn 0.5773503 0 0
vn 0.5773503 0 0
vn 0.5773503 0 0
vn 0.5773503 0 0
vn 0.5773503 0 0
vn 0.5773503 0 0
vn -3.828425E-07 0.5773503 0.000199518
vn -3.828425E-07 0.5773503 0.000199518
vn 0 0.5773503 0.000199518
vn 0 0.5773503 0.000199518
vn 0 0.5773503 0.000199518
vn 0 0.5773503 0.000199518
vn 0 0.5773503 0.000199518
vn 0 0.5773503 0.000199518
vn 3.284472E-07 0.5773503 0.000199518
vn 3.284472E-07 0.5773503 0.000199518
vn 0 0.5773503 0.000199518
vn 0 0.5773503 0.000199518
vn 0 0.5773503 0.000199518
vn 0 0.5773503 0.000199518
vn -3.828425E-07 0.5773503 0.000199518
vn -3.828425E-07 0.5773503 0.000199518
vn 0 -0.5773503 -0.000199518
vn 0 -0.5773503 -0.000199518
vn 0 -0.5773503 -0.000199518
vn 0 -0.5773503 -0.000199518
vn 0 -0.5773503 -0.000199518
vn 0 -0.5773503 -0.000199518
vn 0 -0.5773503 -0.000199518
vn 0 -0.5773503 -0.000199518
vn 0 -0.5773503 -0.000199518
vn 0 -0.5773503 -0.000199518
vn 0 -0.5773503 -0.000199518
vn 0 -0.5773503 -0.000199518
vn 0 -0.5773503 -0.000199518
vn 0 -0.5773503 -0.000199518
vn 0 -0.5773503 -0.000199518
vn 0 -0.5773503 -0.000199518
vn 0 -0.000199518 0.5773503
vn 0 -0.000199518 0.5773503
vn 0 -0.000199518 0.5773503
vn 0 -0.000199518 0.5773503
vn 0 0.000199518 -0.5773503
vn 0 0.000199518 -0.5773503
vn 0 0.000199518 -0.5773503
vn 0 0.000199518 -0.5773503
vt 0.1396288 1.477273E-05
vt 0.1396294 0.005041428
vt 0.2094403 0.005033562
vt 0.2094397 7.129654E-06
vt 0.2094397 7.129654E-06
vt 0.2094403 0.005033562
vt 0.4974031 0.005090398
vt 0.4974026 6.399303E-05
vt 0.4974026 6.399303E-05
vt 0.4974031 0.005090398
vt 0.7068087 0.00506641
vt 0.7068081 4.067375E-05
vt 0.7068081 4.067375E-05
vt 0.7068087 0.00506641
vt 0.7486898 0.005061687
vt 0.7486892 3.595139E-05
vt 0.9999923 7.157515E-06
vt 0.9999929 0.005033226
vt 0.1396288 1.477273E-05
vt 0.2094397 7.129654E-06
vt 0.2094403 0.005033562
vt 0.1396294 0.005041428
vt 0.2094397 7.129654E-06
vt 0.4974026 6.399303E-05
vt 0.4974031 0.005090398
vt 0.2094403 0.005033562
vt 0.4974026 6.399303E-05
vt 0.7068081 4.067375E-05
vt 0.7068087 0.00506641
vt 0.4974031 0.005090398
vt 0.7068081 4.067375E-05
vt 0.7486898 0.005061687
vt 0.7068087 0.00506641
vt 0.7486892 3.595139E-05
vt 0.9999923 7.157515E-06
vt 0.9999929 0.005033226
vt 0.9999923 7.157515E-06
vt 0.9999923 7.157515E-06
vt 0.7486892 3.595139E-05
vt 0.7486892 3.595139E-05
vt 0.7068081 4.067375E-05
vt 0.7068081 4.067375E-05
vt 0.4974026 6.399303E-05
vt 0.4974026 6.399303E-05
vt 0.2094397 7.129654E-06
vt 0.2094397 7.129654E-06
vt 0.1396288 1.477273E-05
vt 0.1396288 1.477273E-05
vt 0.06981798 2.241581E-05
vt 0.06981798 2.241581E-05
vt 7.129654E-06 3.005888E-05
vt 7.129654E-06 3.005888E-05
vt 0.1396294 0.005041428
vt 0.1396294 0.005041428
vt 0.2094403 0.005033562
vt 0.2094403 0.005033562
vt 0.4974031 0.005090398
vt 0.4974031 0.005090398
vt 0.7068087 0.00506641
vt 0.7068087 0.00506641
vt 0.7486898 0.005061687
vt 0.7486898 0.005061687
vt 0.9999929 0.005033226
vt 0.9999929 0.005033226
vt 7.686865E-06 0.00505716
vt 7.686865E-06 0.00505716
vt 0.06981855 0.005049294
vt 0.06981855 0.005049294
vt 7.129654E-06 3.005888E-05
vt 0.06981798 2.241581E-05
vt 0.06981855 0.005049294
vt 7.686865E-06 0.00505716
vt 7.129654E-06 3.005888E-05
vt 7.686865E-06 0.00505716
vt 0.06981855 0.005049294
vt 0.06981798 2.241581E-05
usemtl DarkWoodFloors
f 79/79/79 78/78/78 77/77/77
f 80/80/80 79/79/79 77/77/77
f 83/83/83 82/82/82 81/81/81
f 84/84/84 83/83/83 81/81/81
f 87/87/87 86/86/86 85/85/85
f 88/88/88 87/87/87 85/85/85
f 91/91/91 90/90/90 89/89/89
f 92/92/92 91/91/91 89/89/89
f 91/91/91 92/92/92 93/93/93
f 94/94/94 91/91/91 93/93/93
f 97/97/97 96/96/96 95/95/95
f 98/98/98 97/97/97 95/95/95
f 101/101/101 100/100/100 99/99/99
f 102/102/102 101/101/101 99/99/99
f 105/105/105 104/104/104 103/103/103
f 106/106/106 105/105/105 103/103/103
f 109/109/109 108/108/108 107/107/107
f 108/108/108 110/110/110 107/107/107
f 110/110/110 108/108/108 111/111/111
f 108/108/108 112/112/112 111/111/111
f 115/115/115 114/114/114 113/113/113
f 116/116/116 115/115/115 113/113/113
f 117/117/117 115/115/115 116/116/116
f 118/118/118 117/117/117 116/116/116
f 119/119/119 117/117/117 118/118/118
f 120/120/120 119/119/119 118/118/118
f 121/121/121 119/119/119 120/120/120
f 122/122/122 121/121/121 120/120/120
f 123/123/123 121/121/121 122/122/122
f 124/124/124 123/123/123 122/122/122
f 127/127/127 126/126/126 125/125/125
f 128/128/128 127/127/127 125/125/125
f 131/131/131 130/130/130 129/129/129
f 132/132/132 131/131/131 129/129/129
f 133/133/133 131/131/131 132/132/132
f 134/134/134 133/133/133 132/132/132
f 135/135/135 133/133/133 134/134/134
f 136/136/136 135/135/135 134/134/134
f 137/137/137 135/135/135 136/136/136
f 138/138/138 137/137/137 136/136/136
f 139/139/139 137/137/137 138/138/138
f 140/140/140 139/139/139 138/138/138
f 143/143/143 142/142/142 141/141/141
f 144/144/144 143/143/143 141/141/141
f 147/147/147 146/146/146 145/145/145
f 148/148/148 147/147/147 145/145/145
f 151/151/151 150/150/150 149/149/149
f 152/152/152 151/151/151 149/149/149
