mtllib Egg_28.mtl
v -0.00222177 -0.04463265 -0.004630146
v -0.004960208 -0.04466505 -0.0009552431
v 3.228975E-10 -0.04514607 -1.503059E-14
v -0.004439796 0.04546671 -0.002992239
v 0.0003714642 0.04546671 -0.005341215
v -7.11303E-09 0.04618175 -4.768346E-09
v 0.0186309 -0.02517265 -0.02117575
v 0.01251541 -0.02517266 -0.0252762
v 0.01446117 -0.03197958 -0.01884612
v 0.006017492 -0.03260844 -0.02245748
v 0.005547 -0.02517264 -0.02765417
v 0.01386262 -0.01746531 -0.02803053
v 0.006135298 -0.01746531 -0.03066355
v -0.00159835 -0.02995273 -0.0252224
v 0.003827902 -0.03629583 -0.01962282
v -0.001871818 -0.02281261 -0.0292076
v -0.002010071 -0.0174653 -0.03120643
v 0.004297663 -0.009435955 -0.03264403
v -0.005132664 -0.03635199 -0.01915514
v -0.002145106 -0.03929545 -0.01629416
v 0.002514594 -0.04107872 -0.01377276
v -0.004702776 -0.04206021 -0.01135359
v 0.009110206 -0.03946886 -0.01349936
v -0.003699847 -0.04381606 -0.007626202
v 0.0082583 -0.04212878 -0.009094559
v 0.01398677 -0.039506 -0.008075143
v 0.001759914 -0.0437732 -0.008295197
v 0.005671734 -0.04377319 -0.006303675
v -0.00222177 -0.04463265 -0.004630146
v 0.002653611 -0.04471042 -0.004141755
v 3.228975E-10 -0.04514607 -1.503059E-14
v 0.00496021 -0.04466505 0.0009552455
v 0.03066339 -0.01746531 0.006135302
v 0.0292076 -0.0228126 0.001871841
v 0.02772793 -0.0228126 0.009367509
v 0.03225368 -0.01367064 -0.001433188
v 0.03194791 -0.01181416 0.006382032
v 0.02920762 -0.01181416 0.01443328
v 0.03151615 -0.004649163 0.01044305
v 0.02773952 -0.004649186 0.01824423
v 0.02965091 0.00445307 0.01398415
v 0.03314511 -0.004649194 0.001930174
v 0.03225997 0.00445307 0.005833648
v 0.03090533 0.01170961 0.00617962
v 0.02883596 0.01478198 0.01043598
v 0.03214615 0.00879208 -3.576263E-09
v 0.02966261 0.01736757 0.001908656
v 0.02558521 0.02576074 0.005147964
v 0.02391039 0.02607043 0.009903985
v 0.02604584 0.02576074 -0.001649466
v 0.03040256 0.01384478 -0.006048676
v 0.03250526 0.004003021 -0.004279474
v 0.03251542 -0.004649179 -0.006714118
v 0.03085467 0.004453042 -0.01107791
v 0.02473136 0.02576075 -0.008334252
v 0.02780104 0.01384479 -0.01371146
v 0.01992274 0.03412299 -0.006682079
v 0.01751441 0.03412299 -0.01161079
v 0.02114703 0.03400121 -0.000382204
v 0.02275813 0.02527685 -0.01313932
v 0.03085875 -0.01181416 -0.01044714
v 0.02971329 -0.0090916 -0.01430677
v 0.03066339 -0.01746531 -0.006135309
v 0.02760236 -0.0259892 -0.002483828
v 0.02803068 -0.0174653 -0.01386247
v 0.02672274 -0.02517265 -0.009023405
v 0.02245764 -0.03260843 -0.006017635
v 0.02345579 0.01478195 -0.01975467
v 0.02693618 0.004453045 -0.01868615
v 0.02773953 -0.004649173 -0.01824423
v 0.02447672 -0.01181416 -0.02150079
v 0.02460234 -0.02108083 -0.01726677
v 0.02104406 -0.02995273 -0.01399535
v 0.01958355 0.02576076 -0.01725081
v 0.02207237 -0.004649179 -0.02480205
v 0.01717417 -0.03635199 -0.009915501
v 0.0177358 -0.03799015 -0.003640916
v 0.01398677 -0.039506 -0.008075143
v 0.009110206 -0.03946886 -0.01349936
v 0.01232023 -0.03595531 -0.0160559
v 0.003827902 -0.03629583 -0.01962282
v 0.006017492 -0.03260844 -0.02245748
v 0.01446117 -0.03197958 -0.01884612
v 0.0186309 -0.02517265 -0.02117575
v 0.02064501 -0.01746531 -0.02348775
v 0.01251541 -0.02517266 -0.0252762
v 0.01386262 -0.01746531 -0.02803053
v 0.01807785 -0.01181417 -0.0271033
v 0.01044697 -0.01181416 -0.03085861
v 0.006135298 -0.01746531 -0.03066355
v 0.004297663 -0.009435955 -0.03264403
v 0.01044304 -0.004649193 -0.03151616
v 0.005833686 0.004453051 -0.03225999
v 0.01657103 -0.003749484 -0.02870176
v 0.0125466 0.004003008 -0.03029016
v 0.02118207 0.004453063 -0.02502116
v 0.00996305 0.01384477 -0.02935386
v 0.002342192 0.01351114 -0.03101713
v 0.01607308 0.008792068 -0.02783954
v 0.02080439 0.0117096 -0.02367494
v 0.0164843 0.01736757 -0.02473423
v 0.01159453 0.02576073 -0.02338104
v 0.01529936 0.02941632 -0.01874881
v 0.009994146 0.03190695 -0.02017653
v 0.005479821 0.03427488 -0.02021086
v 0.01204238 0.03561449 -0.01569386
v 0.00999567 0.03903253 -0.01302651
v 0.01353551 0.03913002 -0.008990962
v 0.00709081 0.04201147 -0.0103225
v 0.01558505 0.03927638 -0.004175863
v 0.01151489 0.04208532 -0.004769659
v 0.006475063 0.04412739 -0.005869441
v 0.002672941 0.04412739 -0.008320827
v 0.01597173 0.03923222 0.003106379
v 0.01245247 0.04195611 0.001639233
v 0.008542341 0.0441274 -0.00184561
v 0.01032264 0.04201148 0.007090948
v 0.0130265 0.03903254 0.009995512
v 0.01874112 0.03604457 0.005021696
v 0.02103571 0.03165048 0.008713358
v 0.01619169 0.03434398 0.01318772
v 0.0217317 0.02576076 0.01445146
v 0.01725096 0.02576074 0.01958355
v 0.0257749 0.0138448 0.01722068
v 0.005081872 0.04550446 -0.001658354
v 0.00832066 0.0441274 0.00267278
v 0.0003714642 0.04546671 -0.005341215
v -7.11303E-09 0.04618175 -4.768346E-09
v -0.001845575 0.04412739 -0.008542521
v -0.006566023 0.04421093 -0.005678582
v -0.004439796 0.04546671 -0.002992239
v 0.01137604 -0.030237 0.02235819
v 0.008514551 -0.02775474 0.0252246
v 0.01298277 -0.0228126 0.02623037
v 0.005751369 -0.0228126 0.0286968
v -4.0084E-09 -0.02893231 0.02596609
v 0.003472227 -0.03457876 0.0213434
v -0.00187184 -0.0228126 0.02920759
v -0.004330068 -0.03435466 0.02135098
v -0.003103583 -0.03946886 0.01598732
v -0.008514556 -0.02775474 0.0252246
v -0.00790887 -0.01969894 0.0295163
v -0.009915504 -0.03635199 0.01717401
v -0.01068134 -0.03946886 0.0122936
v -0.01162494 -0.03260843 0.0201349
v -0.01632561 -0.03435465 0.01442562
v -0.01638026 -0.02744468 0.02134738
v -0.01298278 -0.02281261 0.02623037
v -0.01628644 -0.03816848 0.007490186
v -0.01193586 -0.04205156 0.003198397
v -0.008015869 -0.04201043 0.009363954
v -0.007110064 -0.04377319 0.004620957
v -0.003846933 -0.04377319 0.007556824
v -0.02194672 -0.03197957 0.009090781
v -0.02006493 -0.03595531 0.002641611
v -0.0221614 -0.02775474 0.01475312
v -0.02460234 -0.02108083 0.01726677
v -0.02672274 -0.02517264 0.009023401
v -0.02760237 -0.0259892 0.002483816
v -0.02344133 -0.03221028 0.001490509
v -0.01932928 -0.0228126 0.0219764
v -0.02064501 -0.0174653 0.02348774
v -0.02803068 -0.01746529 0.01386246
v -0.0306634 -0.0174653 0.006135296
v -0.03085875 -0.01181415 0.01044714
v -0.02710329 -0.01181416 0.018078
v -0.03151615 -0.00464918 0.01044307
v -0.02773953 -0.004649158 0.01824423
v -0.01386262 -0.0174653 0.02803052
v -0.02150094 -0.01181416 0.02447687
v -0.01443329 -0.01181416 0.02920762
v -0.008415412 -0.01178784 0.03140681
v -0.02207237 -0.00464916 0.02480203
v -0.01657102 -0.003749486 0.02870175
v -0.01868629 0.004453064 0.02693633
v -0.02502115 0.004453062 0.02118207
v -0.02965092 0.004453032 0.01398415
v -0.02080439 0.01170961 0.02367492
v 0.008514551 -0.02775474 0.0252246
v 0.01137604 -0.030237 0.02235819
v 0.003472227 -0.03457876 0.0213434
v 0.008894545 -0.03610483 0.01793041
v 0.005305822 -0.03946886 0.01539718
v -0.003103583 -0.03946886 0.01598732
v 0.01670472 -0.02995272 0.0189652
v 0.01402264 -0.03635199 0.01402264
v 0.01929498 -0.02108083 0.02304613
v 0.01298277 -0.0228126 0.02623037
v 0.01386262 -0.0174653 0.02803052
v 0.005751369 -0.0228126 0.0286968
v 0.006135298 -0.01746529 0.03066355
v -0.00187184 -0.0228126 0.02920759
v -0.002010072 -0.01746529 0.03120643
v 0.00638188 -0.01181416 0.03194791
v -0.002104185 -0.01181415 0.03251098
v 0.006714113 -0.004649156 0.03251527
v 0.01490087 -0.004649158 0.02966971
v 0.01443329 -0.01181416 0.02920762
v 0.02004395 -0.009435934 0.02612197
v 0.02435855 -0.0228126 0.01622498
v 0.02348773 -0.0174653 0.02064517
v 0.02104405 -0.02995273 0.01399535
v 0.02447671 -0.01181415 0.02150078
v 0.02803068 -0.01746529 0.01386246
v 0.02772793 -0.0228126 0.009367509
v 0.03066339 -0.01746531 0.006135302
v 0.02920762 -0.01181416 0.01443328
v 0.02773952 -0.004649186 0.01824423
v 0.02343486 -0.0037495 0.02343485
v 0.01995866 0.004003003 0.02601069
v 0.02502115 0.004453067 0.02118206
v 0.02965091 0.00445307 0.01398415
v 0.0204395 0.01384477 0.02330488
v 0.0257749 0.0138448 0.01722068
v 0.01725096 0.02576074 0.01958355
v 0.02883596 0.01478198 0.01043598
v 0.0217317 0.02576076 0.01445146
v 0.02391039 0.02607043 0.009903985
v 0.02103571 0.03165048 0.008713358
v 0.02558521 0.02576074 0.005147964
v 0.02114703 0.03400121 -0.000382204
v 0.02604584 0.02576074 -0.001649466
v -0.002010072 -0.01746529 0.03120643
v -0.00187184 -0.0228126 0.02920759
v -0.00790887 -0.01969894 0.0295163
v -0.002104185 -0.01181415 0.03251098
v -0.008415412 -0.01178784 0.03140681
v -0.00193018 -0.004649146 0.03314512
v 0.006714113 -0.004649156 0.03251527
v -0.01044306 -0.004649155 0.03151615
v -0.01443329 -0.01181416 0.02920762
v -0.01657102 -0.003749486 0.02870175
v -0.0110779 0.004453051 0.03085481
v -0.01868629 0.004453064 0.02693633
v -0.004279479 0.00400299 0.03250526
v 0.00271473 0.004453054 0.03267061
v -0.01348018 0.01351113 0.02803268
v -0.02080439 0.01170961 0.02367492
v -0.006048669 0.01384478 0.03040255
v 0.01107791 0.00445304 0.03085481
v 0.01490087 -0.004649158 0.02966971
v 0.002026294 0.0138448 0.03093213
v 0.00945104 0.01299577 0.02974191
v 0.01607308 0.00879208 0.02783952
v 0.01995866 0.004003003 0.02601069
v 0.02004395 -0.009435934 0.02612197
v 0.0204395 0.01384477 0.02330488
v 0.01317831 0.01736758 0.02664289
v 0.006801474 0.02527684 0.0253834
v 0.01159451 0.02576076 0.02338102
v 0.01725096 0.02576074 0.01958355
v 0.00164946 0.02576075 0.02604583
v 0.01161092 0.03412299 0.0175144
v 0.01619169 0.03434398 0.01318772
v 0.0130265 0.03903254 0.009995512
v 0.006682229 0.03412299 0.01992273
v 0.007134321 0.03923222 0.01462341
v 0.01032264 0.04201148 0.007090948
v 0.0003226632 0.03461305 0.02068592
v -0.003875188 0.02941633 0.0238867
v -0.008334396 0.02576076 0.02473151
v -0.01445131 0.02576075 0.02173155
v -0.01648414 0.01736759 0.02473421
v -0.01958355 0.02576074 0.0172508
v -0.02232413 0.01736758 0.0196251
v -0.02275813 0.02527684 0.01313931
v -0.01052401 0.03427489 0.01810383
v -0.0148511 0.03427489 0.01476299
v -0.009995673 0.03903254 0.01302649
v -0.005668683 0.03767812 0.0169939
v -1.001806E-08 0.03927638 0.01613479
v -0.008135556 0.04201148 0.009520925
v -0.01462358 0.03923221 0.007134315
v -0.0116039 0.04195611 0.00480658
v 0.004769647 0.04208532 0.01151473
v -0.002285296 0.04201148 0.01231302
v -0.007773599 0.04412739 0.003993464
v -0.008728954 0.04412739 -0.0004284406
v -0.004735326 0.0441274 0.007345464
v 0.0006275043 0.04421093 0.008658274
v -0.004479578 0.04550447 0.002917006
v 0.005869412 0.0441274 0.006475224
v -0.004439796 0.04546671 -0.002992239
v -0.006566023 0.04421093 -0.005678582
v -7.11303E-09 0.04618175 -4.768346E-09
v 0.001023499 0.04546671 0.005255294
v 0.004501168 0.04543181 0.002818231
v 0.005081872 0.04550446 -0.001658354
v 0.00832066 0.0441274 0.00267278
v 0.01245247 0.04195611 0.001639233
v 0.008542341 0.0441274 -0.00184561
v -0.01445131 0.02576075 0.02173155
v -0.01958355 0.02576074 0.0172508
v -0.0148511 0.03427489 0.01476299
v -0.01816604 0.03427488 0.0104161
v -0.02275813 0.02527684 0.01313931
v -0.01462358 0.03923221 0.007134315
v -0.009995673 0.03903254 0.01302649
v -0.02473137 0.02576075 0.008334235
v -0.02052534 0.0340012 0.005104057
v -0.02776945 0.01478198 0.01301068
v -0.02232413 0.01736758 0.0196251
v -0.01623156 0.03923222 -0.001133354
v -0.0116039 0.04195611 0.00480658
v -0.01235689 0.04208532 -0.001626797
v -0.008728954 0.04412739 -0.0004284406
v -0.006566023 0.04421093 -0.005678582
v -0.02604585 0.02576072 0.001649451
v -0.03040256 0.01384478 0.006048659
v -0.02097346 0.03412299 -0.001298041
v -0.02622304 0.01170961 0.01748366
v -0.02965092 0.004453032 0.01398415
v -0.02080439 0.01170961 0.02367492
v -0.01648414 0.01736759 0.02473421
v -0.01348018 0.01351113 0.02803268
v -0.02502115 0.004453062 0.02118207
v -0.03225999 0.004453061 0.005833654
v -0.03106589 0.01336632 -1.907344E-08
v -0.03040256 0.01384478 -0.006048656
v -0.02565892 0.02607043 -0.003378218
v -0.02103572 0.03165048 -0.008713374
v -0.01757669 0.0359749 -0.008593426
v -0.03252215 0.005855205 -6.258501E-09
v -0.01397308 0.03927638 -0.008067421
v -0.01188285 0.03767811 -0.01340632
v -0.009520934 0.04201147 -0.008135569
v -0.004177474 0.04201147 -0.01180609
v -0.001845575 0.04412739 -0.008542521
v -0.03314512 -0.004649176 0.00193018
v -0.03225997 0.004453046 -0.005833676
v -0.03151615 -0.00464918 0.01044307
v -0.02773953 -0.004649158 0.01824423
v -0.03085875 -0.01181415 0.01044714
v -0.03225368 -0.01367064 0.001433201
v -0.0306634 -0.0174653 0.006135296
v -0.03264419 -0.009435934 -0.004297802
v -0.0306634 -0.0174653 -0.006135303
v -0.0292076 -0.0228126 -0.001871839
v -0.02760237 -0.0259892 0.002483816
v -0.02672274 -0.02517264 0.009023401
v -0.03201272 -0.003749472 -0.008577864
v -0.03085875 -0.01181415 -0.01044714
v -0.03029001 0.004002973 -0.01254645
v -0.02966971 -0.004649159 -0.01490089
v -0.02693618 0.004453057 -0.01868614
v -0.02760237 -0.0259892 0.002483816
v -0.02473925 -0.03031895 -0.003257084
v -0.0292076 -0.0228126 -0.001871839
v -0.02344133 -0.03221028 0.001490509
v -0.02006493 -0.03595531 0.002641611
v -0.02194672 -0.03197957 0.009090781
v -0.0191553 -0.03635199 -0.005132501
v -0.0239493 -0.02995274 -0.008071933
v -0.01624574 -0.03946887 -0.001139875
v -0.01628644 -0.03816848 0.007490186
v -0.01193586 -0.04205156 0.003198397
v -0.01092218 -0.04212877 -0.0056231
v -0.0134992 -0.03946885 -0.009110211
v -0.0160559 -0.03595531 -0.01232007
v -0.008467885 -0.04377319 0.0004470706
v -0.007110064 -0.04377319 0.004620957
v -0.007556824 -0.04377319 -0.003846774
v -0.004960208 -0.04466505 -0.0009552431
v -0.003699847 -0.04381606 -0.007626202
v -0.00222177 -0.04463265 -0.004630146
v -0.004702776 -0.04206021 -0.01135359
v -0.008075296 -0.039506 -0.01398661
v -0.002145106 -0.03929545 -0.01629416
v -0.005132664 -0.03635199 -0.01915514
v -0.01203567 -0.03435466 -0.01815943
v -0.01884612 -0.03197958 -0.01446117
v -0.02134722 -0.02744469 -0.01638027
v -0.01531148 -0.02549134 -0.02350016
v -0.02772793 -0.0228126 -0.009367512
v -0.008071923 -0.02995273 -0.02394947
v -0.00159835 -0.02995273 -0.0252224
v -0.001871818 -0.02281261 -0.0292076
v -0.009367501 -0.0228126 -0.02772793
v -0.002010071 -0.0174653 -0.03120643
v -0.00973231 -0.01367067 -0.03078368
v -0.01386262 -0.0174653 -0.02803053
v -0.01857918 -0.009091607 -0.02724671
v -0.02150094 -0.01181416 -0.02447688
v -0.02064501 -0.01746531 -0.02348774
v -0.02460234 -0.02108083 -0.01726677
v -0.01932929 -0.0228126 -0.02197641
v -0.02803068 -0.0174653 -0.01386247
v -0.0271033 -0.01181417 -0.018078
v -0.02966971 -0.004649159 -0.01490089
v -0.03201272 -0.003749472 -0.008577864
v -0.03085875 -0.01181415 -0.01044714
v -0.0271033 -0.01181417 -0.018078
v -0.02480204 -0.004649183 -0.02207221
v -0.02693618 0.004453057 -0.01868614
v -0.02803068 -0.0174653 -0.01386247
v -0.0306634 -0.0174653 -0.006135303
v -0.03264419 -0.009435934 -0.004297802
v -0.02772793 -0.0228126 -0.009367512
v -0.0292076 -0.0228126 -0.001871839
v -0.0239493 -0.02995274 -0.008071933
v -0.02473925 -0.03031895 -0.003257084
v -0.02150094 -0.01181416 -0.02447688
v -0.02064501 -0.01746531 -0.02348774
v -0.02460234 -0.02108083 -0.01726677
v -0.01932929 -0.0228126 -0.02197641
v -0.01857918 -0.009091607 -0.02724671
v -0.01531148 -0.02549134 -0.02350016
v -0.02134722 -0.02744469 -0.01638027
v -0.01884612 -0.03197958 -0.01446117
v -0.01386262 -0.0174653 -0.02803053
v -0.009367501 -0.0228126 -0.02772793
v -0.02118206 0.004453039 -0.02502116
v -0.01490088 -0.004649174 -0.02966971
v -0.00973231 -0.01367067 -0.03078368
v -0.02330504 0.01384479 -0.02043965
v -0.02780104 0.01384478 -0.01371145
v -0.03029001 0.004002973 -0.01254645
v -0.03040256 0.01384478 -0.006048656
v -0.03225997 0.004453046 -0.005833676
v -0.03106589 0.01336632 -1.907344E-08
v -0.03252215 0.005855205 -6.258501E-09
v -0.02473137 0.02576075 -0.008334261
v -0.02565892 0.02607043 -0.003378218
v -0.02103572 0.03165048 -0.008713374
v -0.02173172 0.02576074 -0.01445148
v -0.01690234 0.03190695 -0.01487558
v -0.01757669 0.0359749 -0.008593426
v -0.01188285 0.03767811 -0.01340632
v -0.01725096 0.02576074 -0.01958356
v -0.01041627 0.03427488 -0.01816589
v -0.01874277 0.01429919 -0.02442611
v -0.01313946 0.02527685 -0.02275814
v -0.01455378 0.009714736 -0.02855466
v -0.01317831 0.01736758 -0.0266429
v -0.008334399 0.02576075 -0.02473153
v -0.006686084 0.01299577 -0.03048262
v -0.005359585 0.03427488 -0.02024283
v -0.005295709 0.03923221 -0.01538526
v -0.004177474 0.04201147 -0.01180609
v -0.009520934 0.04201147 -0.008135569
v -0.001908668 0.01736759 -0.02966261
v -0.001649466 0.02576071 -0.02604586
v -0.01107792 0.00445304 -0.03085482
v -0.002714739 0.004453056 -0.03267061
v -0.006714101 -0.004649176 -0.03251527
v -0.002104173 -0.01181416 -0.03251098
v -0.002010071 -0.0174653 -0.03120643
v 0.004297663 -0.009435955 -0.03264403
v -0.002104173 -0.01181416 -0.03251098
v -0.002010071 -0.0174653 -0.03120643
v -5.429436E-09 -0.003749458 -0.03314203
v -0.006714101 -0.004649176 -0.03251527
v 0.005833686 0.004453051 -0.03225999
v -0.002714739 0.004453056 -0.03267061
v 0.002342192 0.01351114 -0.03101713
v -0.006686084 0.01299577 -0.03048262
v -0.001908668 0.01736759 -0.02966261
v -0.001649466 0.02576071 -0.02604586
v 0.005147956 0.02576075 -0.02558537
v 0.00996305 0.01384477 -0.02935386
v 0.01159453 0.02576073 -0.02338104
v 0.005479821 0.03427488 -0.02021086
v 6.219019E-05 0.03427488 -0.02094029
v -0.005359585 0.03427488 -0.02024283
v -0.008334399 0.02576075 -0.02473153
v 0.003106397 0.03923221 -0.01597174
v 0.00999567 0.03903253 -0.01302651
v -0.005295709 0.03923221 -0.01538526
v 0.00709081 0.04201147 -0.0103225
v 0.001639402 0.04195611 -0.01245248
v -0.004177474 0.04201147 -0.01180609
v 0.002672941 0.04412739 -0.008320827
v -0.001845575 0.04412739 -0.008542521
v -0.008015869 -0.04201043 0.009363954
v -0.01068134 -0.03946886 0.0122936
v -0.002260035 -0.04201043 0.01211709
v -0.003846933 -0.04377319 0.007556824
v 0.004101378 -0.04201043 0.01162383
v 0.0004469168 -0.04377319 0.008468041
v 0.01270768 -0.03974093 0.009750804
v 0.01793056 -0.03610484 0.008894384
v 0.0239493 -0.02995273 0.008071929
v 0.0292076 -0.0228126 0.001871841
v 0.02460433 -0.03068023 0.002254665
v 0.02760236 -0.0259892 -0.002483828
v 0.02245764 -0.03260843 -0.006017635
v 0.02006493 -0.03595531 0.002641604
v 0.0177358 -0.03799015 -0.003640916
v 0.01629433 -0.03929545 0.002145104
v 0.01227032 -0.04212877 -0.0005915904
v 0.01398677 -0.039506 -0.008075143
v 0.0082583 -0.04212878 -0.009094559
v 0.009749655 -0.04206021 0.00748121
v 0.008063746 -0.04377319 -0.00262331
v 0.005671734 -0.04377319 -0.006303675
v 0.002653611 -0.04471042 -0.004141755
v 0.00496021 -0.04466505 0.0009552455
v 0.008295047 -0.04377319 0.00175992
v 0.005547489 -0.04381606 0.00640867
v 0.001652675 -0.04466505 0.004773214
v 3.228975E-10 -0.04514607 -1.503059E-14
v -0.003307536 -0.04466505 0.003817976
v -0.004960208 -0.04466505 -0.0009552431
v -0.007110064 -0.04377319 0.004620957
v -0.008467885 -0.04377319 0.0004470706
vt 1.066545 0.1166231
vt 0.2543185 0.1163512
vt 0.5858155 0.1123141
vt 1.175523 0.8728091
vt 0.9629459 0.8728091
vt 1.585815 0.8788103
vt 0.8783765 0.279947
vt 0.9207736 0.279947
vt 0.8879209 0.2228178
vt 0.9519743 0.21754
vt 0.9636133 0.2799471
vt 0.9214586 0.3446332
vt 0.9641865 0.3446332
vt 1.00632 0.2398288
vt 0.9623899 0.1865925
vt 1.006972 0.2997544
vt 1.00724 0.3446333
vt 0.9753188 0.412022
vt 1.038762 0.1861211
vt 1.015688 0.1614172
vt 0.9612541 0.1464506
vt 1.059892 0.1382132
vt 0.8941253 0.1599618
vt 1.069506 0.1234766
vt 0.8667744 0.1376376
vt 0.8210785 0.1596502
vt 0.9489371 0.1238364
vt 0.8601515 0.1238364
vt 1.066545 0.1166231
vt 0.8693876 0.1159705
vt 0.5858155 0.1123141
vt 0.6947492 0.1163512
vt 0.714001 0.3446332
vt 0.7343698 0.2997545
vt 0.6938964 0.2997545
vt 0.7517632 0.3764811
vt 0.7142283 0.3920622
vt 0.6737657 0.3920622
vt 0.6952891 0.4521966
vt 0.6549059 0.4521964
vt 0.6766025 0.5285898
vt 0.7359107 0.4521963
vt 0.7170887 0.5285898
vt 0.7140555 0.5894925
vt 0.6907775 0.6152783
vt 0.744814 0.5650063
vt 0.7344117 0.6369786
vt 0.7129548 0.7074208
vt 0.6831065 0.71002
vt 0.7534591 0.7074208
vt 0.7753148 0.6074125
vt 0.7653688 0.5248126
vt 0.7768415 0.4521964
vt 0.7989726 0.5285895
vt 0.7943835 0.7074209
vt 0.8165709 0.6074126
vt 0.7924033 0.7776035
vt 0.8337207 0.7776035
vt 0.7449787 0.7765814
vt 0.8257953 0.7033596
vt 0.7960553 0.3920622
vt 0.8154533 0.4149121
vt 0.775537 0.3446332
vt 0.7579648 0.2730939
vt 0.8167977 0.3446333
vt 0.7950234 0.279947
vt 0.7835851 0.2175401
vt 0.8549789 0.615278
vt 0.8404796 0.5285896
vt 0.8366176 0.4521965
vt 0.8586878 0.3920622
vt 0.8407985 0.3142889
vt 0.8355512 0.2398288
vt 0.857399 0.7074209
vt 0.8784983 0.4521964
vt 0.8233478 0.1861211
vt 0.7721206 0.1723724
vt 0.8210785 0.1596502
vt 0.8941253 0.1599618
vt 0.8865136 0.1894504
vt 0.9623899 0.1865925
vt 0.9519743 0.21754
vt 0.8879209 0.2228178
vt 0.8783765 0.279947
vt 0.8791282 0.3446332
vt 0.9207736 0.279947
vt 0.9214586 0.3446332
vt 0.9007938 0.3920621
vt 0.9432989 0.3920622
vt 0.9641865 0.3446332
vt 0.9753188 0.412022
vt 0.9444439 0.4521963
vt 0.9674364 0.5285897
vt 0.9113454 0.4597474
vt 0.9325368 0.5248125
vt 0.8824021 0.5285897
vt 0.9429225 0.6074125
vt 0.9842112 0.6046124
vt 0.9111776 0.5650061
vt 0.8791963 0.5894924
vt 0.9003069 0.6369786
vt 0.920173 0.7074208
vt 0.883228 0.7381014
vt 0.9191698 0.7590048
vt 0.9507502 0.7788783
vt 0.8862939 0.7901213
vt 0.8842873 0.8188083
vt 0.831091 0.8196265
vt 0.889208 0.84381
vt 0.7800963 0.8208549
vt 0.797012 0.8444297
vt 0.84442 0.8615684
vt 0.9317648 0.8615684
vt 0.7107996 0.8204843
vt 0.7175198 0.8433453
vt 0.7633908 0.8615685
vt 0.6481581 0.84381
vt 0.6416855 0.8188083
vt 0.7015357 0.793731
vt 0.682529 0.7568523
vt 0.6381576 0.7794582
vt 0.6534747 0.7074211
vt 0.6136262 0.7074208
vt 0.6536219 0.6074126
vt 0.7662643 0.8731259
vt 0.6870217 0.8615685
vt 0.9629459 0.8728091
vt 0.585815 0.8788103
vt 1.025454 0.8615685
vt 1.144834 0.8622695
vt 1.175523 0.8728091
vt 0.5754415 0.237443
vt 0.5533405 0.258276
vt 0.5736811 0.2997545
vt 0.5336821 0.2997545
vt 0.50379 0.2483929
vt 0.5289015 0.2010035
vt 0.4935515 0.2997544
vt 0.474066 0.2028843
vt 0.4772015 0.1599618
vt 0.4537164 0.258276
vt 0.4628901 0.3258868
vt 0.4251725 0.1861211
vt 0.3974789 0.1599618
vt 0.4239579 0.2175401
vt 0.3740631 0.2028844
vt 0.4025998 0.2608784
vt 0.4324482 0.2997544
vt 0.3297126 0.1708757
vt 0.3075475 0.1382857
vt 0.4021078 0.138631
vt 0.3648772 0.1238365
vt 0.4434043 0.1238364
vt 0.3208531 0.2228179
vt 0.2800822 0.1894504
vt 0.3509311 0.2582761
vt 0.3539852 0.3142889
vt 0.3087939 0.2799471
vt 0.2708861 0.2730939
vt 0.2678289 0.2208817
vt 0.3915836 0.2997545
vt 0.3912311 0.3446333
vt 0.3294662 0.3446333
vt 0.2875142 0.3446333
vt 0.3079806 0.3920623
vt 0.3497173 0.3920622
vt 0.3068312 0.4521964
vt 0.3485774 0.4521966
vt 0.4321482 0.3446333
vt 0.391043 0.3920622
vt 0.4319918 0.3920622
vt 0.4626241 0.3922831
vt 0.3899203 0.4521966
vt 0.4218273 0.4597474
vt 0.4089255 0.5285898
vt 0.367766 0.5285897
vt 0.3262092 0.5285895
vt 0.3912044 0.5894925
vt 0.5533405 0.258276
vt 0.5754415 0.237443
vt 0.5289015 0.2010035
vt 0.5740395 0.1881954
vt 0.5551684 0.1599618
vt 0.4772015 0.1599618
vt 0.6135781 0.2398289
vt 0.6227124 0.1861211
vt 0.6099532 0.3142889
vt 0.5736811 0.2997545
vt 0.5736004 0.3446333
vt 0.5336821 0.2997545
vt 0.5334979 0.3446334
vt 0.4935515 0.2997544
vt 0.4932709 0.3446334
vt 0.5333703 0.3920622
vt 0.4930874 0.3920623
vt 0.5343282 0.4521967
vt 0.5745156 0.4521966
vt 0.5735332 0.3920622
vt 0.603512 0.4120222
vt 0.653686 0.2997544
vt 0.6333808 0.3446333
vt 0.6533706 0.2398288
vt 0.6335018 0.3920623
vt 0.6735886 0.3446333
vt 0.6938964 0.2997545
vt 0.714001 0.3446332
vt 0.6737657 0.3920622
vt 0.6549059 0.4521964
vt 0.6236049 0.4597473
vt 0.6035096 0.5248125
vt 0.6363177 0.5285898
vt 0.6766025 0.5285898
vt 0.6134958 0.6074125
vt 0.6536219 0.6074126
vt 0.6136262 0.7074208
vt 0.6907775 0.6152783
vt 0.6534747 0.7074211
vt 0.6831065 0.71002
vt 0.682529 0.7568523
vt 0.7129548 0.7074208
vt 0.7449787 0.7765814
vt 0.7534591 0.7074208
vt 0.4932709 0.3446334
vt 0.4935515 0.2997544
vt 0.4628901 0.3258868
vt 0.4930874 0.3920623
vt 0.4626241 0.3922831
vt 0.4940237 0.4521967
vt 0.5343282 0.4521967
vt 0.4535157 0.4521967
vt 0.4319918 0.3920622
vt 0.4218273 0.4597474
vt 0.4497322 0.5285897
vt 0.4089255 0.5285898
vt 0.4828381 0.5248124
vt 0.5157934 0.5285897
vt 0.4338948 0.6046122
vt 0.3912044 0.5894925
vt 0.4729372 0.6074125
vt 0.5560058 0.5285895
vt 0.5745156 0.4521966
vt 0.5132511 0.6074126
vt 0.5503907 0.600287
vt 0.5834412 0.5650063
vt 0.6035096 0.5248125
vt 0.603512 0.4120222
vt 0.6134958 0.6074125
vt 0.5736337 0.6369787
vt 0.5436631 0.7033595
vt 0.573856 0.7074209
vt 0.6136262 0.7074208
vt 0.5134285 0.7074209
vt 0.5927741 0.7776035
vt 0.6381576 0.7794582
vt 0.6416855 0.8188083
vt 0.5534328 0.7776035
vt 0.5732217 0.8204843
vt 0.6481581 0.84381
vt 0.5070624 0.7817165
vt 0.4795085 0.7381015
vt 0.4539006 0.7074209
vt 0.4133508 0.7074209
vt 0.412387 0.6369787
vt 0.3723706 0.7074208
vt 0.3713148 0.6369787
vt 0.3409133 0.7033595
vt 0.4242788 0.7788783
vt 0.3836167 0.7788783
vt 0.4067817 0.8188083
vt 0.4568191 0.807441
vt 0.5059447 0.8208549
vt 0.40202 0.84381
vt 0.3344856 0.8204841
vt 0.328355 0.8433453
vt 0.5646338 0.8444298
vt 0.4805652 0.84381
vt 0.3483021 0.8615684
vt 0.2626542 0.8615685
vt 0.4279686 0.8615685
vt 0.5206526 0.8622695
vt 0.3780806 0.8731259
vt 0.6133019 0.8615685
vt 0.1755232 0.8728091
vt 0.144834 0.8622695
vt 0.585815 0.8788103
vt 0.5409632 0.8728091
vt 0.6469396 0.8725162
vt 0.7662643 0.8731259
vt 0.6870217 0.8615685
vt 0.7175198 0.8433453
vt 0.7633908 0.8615685
vt 0.4133508 0.7074209
vt 0.3723706 0.7074208
vt 0.3836167 0.7788783
vt 0.3423668 0.7788783
vt 0.3409133 0.7033595
vt 0.3344856 0.8204841
vt 0.4067817 0.8188083
vt 0.3092625 0.7074209
vt 0.2979466 0.7765813
vt 0.3262233 0.6152783
vt 0.3713148 0.6369787
vt 0.2493899 0.8204843
vt 0.328355 0.8433453
vt 0.242485 0.8444297
vt 0.2626542 0.8615685
vt 0.144834 0.8622695
vt 0.2670007 0.7074207
vt 0.2873927 0.6074125
vt 0.2482468 0.7776035
vt 0.3498915 0.5894924
vt 0.3262092 0.5285895
vt 0.3912044 0.5894925
vt 0.412387 0.6369787
vt 0.4338948 0.6046122
vt 0.367766 0.5285897
vt 0.2842388 0.5285897
vt 0.2556214 0.6033969
vt 0.2236463 0.6074126
vt 0.235386 0.7100199
vt 0.1929607 0.7568522
vt 0.1834962 0.7931463
vt 0.2553656 0.5403576
vt 0.1731085 0.8208549
vt 0.1176444 0.8074409
vt 0.1430676 0.84381
vt 0.0506652 0.84381
vt 0.02545381 0.8615685
vt 0.2646747 0.4521964
vt 0.2262266 0.5285896
vt 0.3068312 0.4521964
vt 0.3485774 0.4521966
vt 0.3079806 0.3920623
vt 0.2626024 0.3764811
vt 0.2875142 0.3446333
vt 0.2340277 0.4120222
vt 0.2234244 0.3446333
vt 0.245561 0.2997544
vt 0.2708861 0.2730939
vt 0.3087939 0.2799471
vt 0.2126396 0.4597475
vt 0.202136 0.3920623
vt 0.1912463 0.5248122
vt 0.1792585 0.4521966
vt 0.1560801 0.5285897
vt 0.2708861 0.2730939
vt 0.2356241 0.2367552
vt 0.245561 0.2997544
vt 0.2678289 0.2208817
vt 0.2800822 0.1894504
vt 0.3208531 0.2228179
vt 0.2156543 0.186121
vt 0.2035822 0.2398287
vt 0.249324 0.1599618
vt 0.3297126 0.1708757
vt 0.3075475 0.1382857
vt 0.1836891 0.1376377
vt 0.1610944 0.1599619
vt 0.1496875 0.1894504
vt 0.2805276 0.1238364
vt 0.3648772 0.1238365
vt 0.1892873 0.1238364
vt 0.2543185 0.1163512
vt 0.06950617 0.1234766
vt 0.06654465 0.1166231
vt 0.05989182 0.1382132
vt 0.08314359 0.1596502
vt 0.01568824 0.1614172
vt 0.03876185 0.1861211
vt 0.09361738 0.2028843
vt 0.1490897 0.2228179
vt 0.1486933 0.2608782
vt 0.09220648 0.2772724
vt 0.2027171 0.2997544
vt 0.049999 0.2398288
vt 0.006319821 0.2398288
vt 0.006972253 0.2997544
vt 0.05036771 0.2997545
vt 0.007240176 0.3446333
vt 0.0472737 0.3764809
vt 0.07258493 0.3446333
vt 0.09563649 0.414912
vt 0.1158746 0.3920622
vt 0.115976 0.3446332
vt 0.1554218 0.3142889
vt 0.1161157 0.2997545
vt 0.1804829 0.3446333
vt 0.1591074 0.3920621
vt 0.1792585 0.4521966
vt 0.2126396 0.4597475
vt 0.202136 0.3920623
vt 0.1591074 0.3920621
vt 0.1361362 0.4521964
vt 0.1560801 0.5285897
vt 0.1804829 0.3446333
vt 0.2234244 0.3446333
vt 0.2340277 0.4120222
vt 0.2027171 0.2997544
vt 0.245561 0.2997544
vt 0.2035822 0.2398287
vt 0.2356241 0.2367552
vt 0.1158746 0.3920622
vt 0.115976 0.3446332
vt 0.1554218 0.3142889
vt 0.1161157 0.2997545
vt 0.09563649 0.414912
vt 0.09220648 0.2772724
vt 0.1486933 0.2608782
vt 0.1490897 0.2228179
vt 0.07258493 0.3446333
vt 0.05036771 0.2997545
vt 0.1128469 0.5285895
vt 0.07363284 0.4521965
vt 0.0472737 0.3764809
vt 0.1374714 0.6074126
vt 0.1806936 0.6074125
vt 0.1912463 0.5248122
vt 0.2236463 0.6074126
vt 0.2262266 0.5285896
vt 0.2556214 0.6033969
vt 0.2553656 0.5403576
vt 0.2034158 0.7074208
vt 0.235386 0.7100199
vt 0.1929607 0.7568522
vt 0.1600425 0.7074208
vt 0.1379965 0.7590047
vt 0.1834962 0.7931463
vt 0.1176444 0.8074409
vt 0.1164058 0.7074208
vt 0.08269012 0.7788783
vt 0.1049572 0.6112263
vt 0.08322638 0.7033596
vt 0.07459879 0.5727499
vt 0.07256603 0.6369787
vt 0.05005044 0.7074209
vt 0.03227794 0.600287
vt 0.0384236 0.7788783
vt 0.05005383 0.8204841
vt 0.0506652 0.84381
vt 0.1430676 0.84381
vt 0.007066429 0.6369788
vt 0.006437421 0.7074206
vt 0.05365962 0.5285895
vt 0.01044452 0.5285897
vt 0.03038061 0.4521964
vt 0.007416248 0.3920622
vt 0.007240176 0.3446333
vt 0.9753188 0.412022
vt 1.007416 0.3920622
vt 1.00724 0.3446333
vt 0.9968338 0.4597476
vt 1.030381 0.4521964
vt 0.9674364 0.5285897
vt 1.010445 0.5285897
vt 0.9842112 0.6046124
vt 1.032278 0.600287
vt 1.007066 0.6369788
vt 1.006437 0.7074206
vt 0.9631051 0.7074208
vt 0.9429225 0.6074125
vt 0.920173 0.7074208
vt 0.9507502 0.7788783
vt 0.9943831 0.7788783
vt 1.038424 0.7788783
vt 1.05005 0.7074209
vt 0.9607977 0.8204841
vt 0.8842873 0.8188083
vt 1.050054 0.8204841
vt 0.889208 0.84381
vt 0.9685376 0.8433453
vt 1.050665 0.84381
vt 0.9317648 0.8615684
vt 1.025454 0.8615685
vt 0.4021078 0.138631
vt 0.3974789 0.1599618
vt 0.4805795 0.138631
vt 0.4434043 0.1238364
vt 0.556915 0.138631
vt 0.518092 0.1238364
vt 0.6415886 0.1576784
vt 0.6716275 0.1881953
vt 0.6933561 0.2398288
vt 0.7343698 0.2997545
vt 0.7291637 0.233723
vt 0.7579648 0.2730939
vt 0.7835851 0.2175401
vt 0.721772 0.1894503
vt 0.7721206 0.1723724
vt 0.7201384 0.1614172
vt 0.7440965 0.1376377
vt 0.8210785 0.1596502
vt 0.8667744 0.1376376
vt 0.6404068 0.1382132
vt 0.7780836 0.1238364
vt 0.8601515 0.1238364
vt 0.8693876 0.1159705
vt 0.6947492 0.1163512
vt 0.7011727 0.1238365
vt 0.6100185 0.1234766
vt 0.5595367 0.1163512
vt 0.5858155 0.1123141
vt 0.4205681 0.1163512
vt 0.2543185 0.1163512
vt 0.3648772 0.1238365
vt 0.2805276 0.1238364
vn -0.06395008 -0.9887385 -0.1353014
vn -0.147338 -0.9886635 -0.02891367
vn -0.0002652835 -0.9999999 0.0005041803
vn -0.1809608 0.9760741 -0.1205516
vn 0.01526297 0.9760591 -0.2169695
vn -0.001034605 0.9999994 -0.0004511233
vn 0.5613164 -0.5277764 -0.6374763
vn 0.3754768 -0.5285873 -0.761323
vn 0.4379037 -0.6879248 -0.5787917
vn 0.2027408 -0.6870794 -0.6977234
vn 0.1658579 -0.5256785 -0.834358
vn 0.4146336 -0.3533525 -0.8385828
vn 0.1798326 -0.3487903 -0.9197857
vn -0.04529162 -0.6420806 -0.7652981
vn 0.1229782 -0.7724602 -0.6230423
vn -0.06292362 -0.4746835 -0.8779045
vn -0.05821712 -0.3455683 -0.936586
vn 0.1267861 -0.1308999 -0.983255
vn -0.1570733 -0.7693819 -0.6191764
vn -0.06795068 -0.8407176 -0.5371933
vn 0.0828248 -0.887354 -0.453589
vn -0.1632815 -0.9089968 -0.3834893
vn 0.3025146 -0.8391427 -0.4520224
vn -0.1243947 -0.9573212 -0.2608874
vn 0.285981 -0.9098772 -0.3005634
vn 0.4464462 -0.8549177 -0.2642
vn 0.05150304 -0.954308 -0.294353
vn 0.1917377 -0.9586666 -0.210226
vn -0.06395008 -0.9887385 -0.1353014
vn 0.07791464 -0.9892794 -0.1235133
vn -0.0002652835 -0.9999999 0.0005041803
vn 0.1465865 -0.9888374 0.02670306
vn 0.9223435 -0.3383674 0.1865208
vn 0.8809714 -0.4693581 0.05993676
vn 0.8269399 -0.488554 0.2783615
vn 0.9697493 -0.2398561 -0.04533433
vn 0.9621021 -0.1875566 0.1979449
vn 0.8799525 -0.1920589 0.4345077
vn 0.9489223 -0.02513729 0.314507
vn 0.8385152 -0.02636612 0.5442399
vn 0.8954454 0.1415322 0.4220737
vn 0.998257 -0.0248562 0.05352601
vn 0.9744759 0.1290147 0.1837174
vn 0.9394655 0.2827169 0.1935864
vn 0.8773952 0.3556252 0.322038
vn 0.9756311 0.2194004 -0.002730512
vn 0.9125702 0.4048572 0.05750093
vn 0.8380578 0.5212194 0.1612125
vn 0.7961254 0.5052746 0.3329895
vn 0.8500487 0.5233403 -0.05943125
vn 0.9228548 0.3372926 -0.1859372
vn 0.9847273 0.1204971 -0.1256691
vn 0.9788457 -0.03047243 -0.2023178
vn 0.9298986 0.1318415 -0.3433748
vn 0.8095793 0.5235288 -0.2655166
vn 0.8441644 0.3340296 -0.4192979
vn 0.7029287 0.6722511 -0.2323139
vn 0.6122018 0.6772088 -0.4081634
vn 0.7430857 0.6690669 -0.01316199
vn 0.7463953 0.5107758 -0.4266172
vn 0.9355834 -0.194103 -0.2949709
vn 0.8895212 -0.1205319 -0.4407087
vn 0.9175681 -0.3521014 -0.1846436
vn 0.8336349 -0.5471461 -0.07539227
vn 0.8441639 -0.3345025 -0.4189215
vn 0.8013039 -0.5289105 -0.2795814
vn 0.6961756 -0.6949705 -0.1798763
vn 0.7124701 0.3582722 -0.6033469
vn 0.813303 0.1368986 -0.565506
vn 0.833804 -0.01520228 -0.5518512
vn 0.7425805 -0.1963208 -0.6403376
vn 0.7412781 -0.4277216 -0.5172631
vn 0.6386027 -0.6407995 -0.4261017
vn 0.653227 0.5043451 -0.5647392
vn 0.6706221 -0.02362832 -0.7414228
vn 0.5455981 -0.7686313 -0.3339589
vn 0.5795543 -0.806895 -0.1141812
vn 0.4464462 -0.8549177 -0.2642
vn 0.3025146 -0.8391427 -0.4520224
vn 0.3912598 -0.7673149 -0.5080785
vn 0.1229782 -0.7724602 -0.6230423
vn 0.2027408 -0.6870794 -0.6977234
vn 0.4379037 -0.6879248 -0.5787917
vn 0.5613164 -0.5277764 -0.6374763
vn 0.6161008 -0.3469413 -0.7071432
vn 0.3754768 -0.5285873 -0.761323
vn 0.4146336 -0.3533525 -0.8385828
vn 0.5411779 -0.1836391 -0.8206114
vn 0.3271994 -0.1907121 -0.9255103
vn 0.1798326 -0.3487903 -0.9197857
vn 0.1267861 -0.1308999 -0.983255
vn 0.3147168 -0.02636599 -0.9488194
vn 0.1706877 0.1331651 -0.9762852
vn 0.498497 -0.01028752 -0.8668304
vn 0.3802156 0.1244757 -0.9164835
vn 0.6478962 0.1283161 -0.7508432
vn 0.3021664 0.3377255 -0.8914241
vn 0.07355046 0.321339 -0.9441035
vn 0.4855237 0.2201257 -0.8460563
vn 0.6373879 0.2827154 -0.7168045
vn 0.5063016 0.4102955 -0.7584961
vn 0.3748949 0.5111621 -0.7734126
vn 0.5250616 0.5757489 -0.6267564
vn 0.3390419 0.6271166 -0.7012669
vn 0.1954742 0.6794097 -0.7072428
vn 0.4195881 0.7206582 -0.5519035
vn 0.358789 0.804046 -0.4741102
vn 0.4936731 0.8024768 -0.3351386
vn 0.2765647 0.8756792 -0.395851
vn 0.5801404 0.8019295 -0.1426397
vn 0.4446654 0.8762655 -0.185557
vn 0.2664284 0.9315022 -0.2476283
vn 0.1169303 0.9328067 -0.3408799
vn 0.5769823 0.8087351 0.1141879
vn 0.4761201 0.8777105 0.05416692
vn 0.3662415 0.9277616 -0.07159417
vn 0.3962197 0.874235 0.2805763
vn 0.4704992 0.8030482 0.3657103
vn 0.6687224 0.7169637 0.1969096
vn 0.7212226 0.6290115 0.2901423
vn 0.5616797 0.6904052 0.4559128
vn 0.7107373 0.5081351 0.486468
vn 0.5694624 0.5139008 0.641575
vn 0.7819781 0.3371253 0.5242678
vn 0.2044176 0.9759292 -0.07599846
vn 0.3491488 0.930606 0.1098524
vn 0.01526297 0.9760591 -0.2169695
vn -0.001034605 0.9999994 -0.0004511233
vn -0.08603986 0.9314053 -0.3536683
vn -0.2732753 0.931666 -0.2394141
vn -0.1809608 0.9760741 -0.1205516
vn 0.3538008 -0.6495302 0.6730049
vn 0.2377309 -0.5925479 0.7696564
vn 0.3905994 -0.4807057 0.7850823
vn 0.1701185 -0.4757152 0.8629917
vn -0.005264634 -0.6124271 0.7905096
vn 0.1047721 -0.7390266 0.6654792
vn -0.05339731 -0.4840481 0.8734106
vn -0.1329245 -0.731848 0.6683783
vn -0.09689017 -0.8447112 0.5263794
vn -0.2504061 -0.5931427 0.7651656
vn -0.2325782 -0.3997353 0.8866336
vn -0.3075266 -0.7815178 0.5428234
vn -0.3478872 -0.8496466 0.3963272
vn -0.3598008 -0.6901718 0.6278585
vn -0.5159314 -0.7281812 0.4511839
vn -0.4985008 -0.588212 0.6367916
vn -0.3958169 -0.4807397 0.7824439
vn -0.5198197 -0.8192382 0.2421492
vn -0.413551 -0.9035386 0.1122208
vn -0.2795353 -0.9047611 0.3213525
vn -0.2447272 -0.9569514 0.1560534
vn -0.1263409 -0.9577532 0.2583539
vn -0.6763372 -0.6832449 0.2752172
vn -0.6366803 -0.7670982 0.0787309
vn -0.6636565 -0.5935283 0.4552847
vn -0.7330136 -0.4325017 0.525008
vn -0.8032904 -0.5297562 0.2721816
vn -0.8325918 -0.548242 0.07887626
vn -0.7244155 -0.6873132 0.05313002
vn -0.5838468 -0.4734252 0.6595389
vn -0.6216642 -0.3350369 0.7080141
vn -0.8467358 -0.3415956 0.4078614
vn -0.9175681 -0.3521014 0.1846437
vn -0.9328735 -0.1808633 0.311505
vn -0.8134234 -0.187901 0.5504867
vn -0.9494537 -0.03608799 0.311826
vn -0.8349904 -0.03194655 0.5493365
vn -0.4291704 -0.3338561 0.8392574
vn -0.6508859 -0.1922352 0.734434
vn -0.4454884 -0.1889796 0.8751153
vn -0.2489986 -0.1925107 0.9491782
vn -0.6677893 -0.03366634 0.7435886
vn -0.5005959 -0.01404382 0.8655672
vn -0.5620088 0.1365847 0.8157761
vn -0.7562739 0.1305851 0.6410908
vn -0.8980783 0.1394425 0.4171465
vn -0.633123 0.2802644 0.721531
vn 0.2377309 -0.5925479 0.7696564
vn 0.3538008 -0.6495302 0.6730049
vn 0.1047721 -0.7390266 0.6654792
vn 0.2972743 -0.7705425 0.5638195
vn 0.1731289 -0.8483681 0.5002979
vn -0.09689017 -0.8447112 0.5263794
vn 0.512223 -0.6315792 0.5820097
vn 0.4413702 -0.7709588 0.4591459
vn 0.5764452 -0.4355753 0.6913646
vn 0.3905994 -0.4807057 0.7850823
vn 0.4189469 -0.3336568 0.844486
vn 0.1701185 -0.4757152 0.8629917
vn 0.184596 -0.3385075 0.9226792
vn -0.05339731 -0.4840481 0.8734106
vn -0.04795053 -0.3338611 0.9414018
vn 0.1928301 -0.1854789 0.9635425
vn -0.05759167 -0.1849226 0.9810642
vn 0.2019805 -0.03194642 0.9788684
vn 0.4459198 -0.0194851 0.8948607
vn 0.4290465 -0.2005053 0.8807477
vn 0.6022407 -0.1420573 0.7855736
vn 0.7236595 -0.4883774 0.4876521
vn 0.7090509 -0.3320116 0.6221055
vn 0.642471 -0.6325093 0.4326236
vn 0.7378826 -0.1986401 0.645036
vn 0.8451114 -0.333493 0.4178146
vn 0.8269399 -0.488554 0.2783615
vn 0.9223435 -0.3383674 0.1865208
vn 0.8799525 -0.1920589 0.4345077
vn 0.8385152 -0.02636612 0.5442399
vn 0.7012739 -0.005442054 0.7128711
vn 0.6017938 0.1159904 0.7901838
vn 0.759109 0.1423711 0.6352038
vn 0.8954454 0.1415322 0.4220737
vn 0.6216068 0.342337 0.7045639
vn 0.7819781 0.3371253 0.5242678
vn 0.5694624 0.5139008 0.641575
vn 0.8773952 0.3556252 0.322038
vn 0.7107373 0.5081351 0.486468
vn 0.7961254 0.5052746 0.3329895
vn 0.7212226 0.6290115 0.2901423
vn 0.8380578 0.5212194 0.1612125
vn 0.7430857 0.6690669 -0.01316199
vn 0.8500487 0.5233403 -0.05943125
vn -0.04795053 -0.3338611 0.9414018
vn -0.05339731 -0.4840481 0.8734106
vn -0.2325782 -0.3997353 0.8866336
vn -0.05759167 -0.1849226 0.9810642
vn -0.2489986 -0.1925107 0.9491782
vn -0.05666673 -0.03012085 0.9979387
vn 0.2019805 -0.03194642 0.9788684
vn -0.3048909 -0.02734869 0.9519945
vn -0.4454884 -0.1889796 0.8751153
vn -0.5005959 -0.01404382 0.8655672
vn -0.3385786 0.1380473 0.9307563
vn -0.5620088 0.1365847 0.8157761
vn -0.1305483 0.1341436 0.9823251
vn 0.0824649 0.1446012 0.9860476
vn -0.4062407 0.3220172 0.8551452
vn -0.633123 0.2802644 0.721531
vn -0.1760363 0.3372571 0.9248075
vn 0.3267834 0.1335487 0.935616
vn 0.4459198 -0.0194851 0.8948607
vn 0.05699521 0.3368856 0.939819
vn 0.2764378 0.3179229 0.9069219
vn 0.487155 0.2202973 0.8450735
vn 0.6017938 0.1159904 0.7901838
vn 0.6022407 -0.1420573 0.7855736
vn 0.6216068 0.342337 0.7045639
vn 0.4147998 0.4101969 0.8122066
vn 0.2163484 0.5092794 0.8329632
vn 0.3858658 0.5176385 0.7636479
vn 0.5694624 0.5139008 0.641575
vn 0.0539702 0.5080693 0.8596236
vn 0.414531 0.6758808 0.6093843
vn 0.5616797 0.6904052 0.4559128
vn 0.4704992 0.8030482 0.3657103
vn 0.2242601 0.6736187 0.7042337
vn 0.2658701 0.8040745 0.531768
vn 0.3962197 0.874235 0.2805763
vn 0.01712552 0.6903947 0.7232302
vn -0.1343817 0.5796788 0.8036878
vn -0.2781418 0.5099139 0.8140179
vn -0.472881 0.5202398 0.7111499
vn -0.508423 0.4164554 0.7537048
vn -0.6410062 0.5193186 0.565172
vn -0.686609 0.4105619 0.6000059
vn -0.7470413 0.5130435 0.4227477
vn -0.3592324 0.6699571 0.6496995
vn -0.5241374 0.677754 0.5156835
vn -0.3632849 0.8074547 0.4648021
vn -0.1991103 0.7665415 0.6105483
vn 0.01616618 0.8094132 0.5870169
vn -0.3123929 0.8739066 0.3724217
vn -0.5299327 0.8095969 0.2524367
vn -0.4493719 0.8764707 0.1728119
vn 0.1867955 0.8780019 0.4407042
vn -0.09434785 0.8762167 0.4725918
vn -0.3395406 0.9259586 0.1652661
vn -0.3593526 0.9329971 -0.01955047
vn -0.1854949 0.932313 0.310458
vn 0.02060555 0.9331154 0.358986
vn -0.1784073 0.9763659 0.1219851
vn 0.2428581 0.9292797 0.2783148
vn -0.1809608 0.9760741 -0.1205516
vn -0.2732753 0.931666 -0.2394141
vn -0.001034605 0.9999994 -0.0004511233
vn 0.03418859 0.9760459 0.2148614
vn 0.1867466 0.9754777 0.1164859
vn 0.2044176 0.9759292 -0.07599846
vn 0.3491488 0.930606 0.1098524
vn 0.4761201 0.8777105 0.05416692
vn 0.3662415 0.9277616 -0.07159417
vn -0.472881 0.5202398 0.7111499
vn -0.6410062 0.5193186 0.565172
vn -0.5241374 0.677754 0.5156835
vn -0.6387627 0.6742857 0.3705685
vn -0.7470413 0.5130435 0.4227477
vn -0.5299327 0.8095969 0.2524367
vn -0.3632849 0.8074547 0.4648021
vn -0.8121331 0.5201725 0.264311
vn -0.717538 0.6739043 0.1760465
vn -0.8499901 0.3552553 0.3889866
vn -0.686609 0.4105619 0.6000059
vn -0.5952647 0.8029257 -0.0311485
vn -0.4493719 0.8764707 0.1728119
vn -0.4721521 0.8794675 -0.06007722
vn -0.3593526 0.9329971 -0.01955047
vn -0.2732753 0.931666 -0.2394141
vn -0.8560532 0.5138327 0.05611375
vn -0.9243579 0.3299493 0.1915621
vn -0.7363151 0.6746407 -0.05196106
vn -0.7949263 0.2816958 0.5373451
vn -0.8980783 0.1394425 0.4171465
vn -0.633123 0.2802644 0.721531
vn -0.508423 0.4164554 0.7537048
vn -0.4062407 0.3220172 0.8551452
vn -0.7562739 0.1305851 0.6410908
vn -0.971575 0.1421961 0.1892675
vn -0.9449745 0.3271441 9.030405E-05
vn -0.9231868 0.3355129 -0.1875026
vn -0.8461663 0.5210674 -0.1117646
vn -0.7274573 0.6198966 -0.294167
vn -0.6201379 0.7248424 -0.300054
vn -0.98706 0.1603328 -0.00246425
vn -0.5043494 0.8161597 -0.2819845
vn -0.4232607 0.7711754 -0.4755406
vn -0.3634841 0.8757715 -0.3176533
vn -0.1655612 0.874981 -0.4549701
vn -0.08603986 0.9314053 -0.3536683
vn -0.9978916 -0.02590945 0.05950731
vn -0.9745343 0.1359223 -0.1783479
vn -0.9494537 -0.03608799 0.311826
vn -0.8349904 -0.03194655 0.5493365
vn -0.9328735 -0.1808633 0.311505
vn -0.9686179 -0.2429456 0.05250597
vn -0.9175681 -0.3521014 0.1846437
vn -0.9841812 -0.1228342 -0.1276681
vn -0.9233752 -0.3391101 -0.1799513
vn -0.881434 -0.4685109 -0.0597637
vn -0.8325918 -0.548242 0.07887626
vn -0.8032904 -0.5297562 0.2721816
vn -0.968116 -0.004178159 -0.2504674
vn -0.9272882 -0.1901909 -0.3224346
vn -0.9157151 0.1384674 -0.3772168
vn -0.8906232 -0.02861275 -0.453841
vn -0.8106155 0.1392688 -0.5687766
vn -0.8325918 -0.548242 0.07887626
vn -0.7575897 -0.645814 -0.09477454
vn -0.881434 -0.4685109 -0.0597637
vn -0.7244155 -0.6873132 0.05313002
vn -0.6366803 -0.7670982 0.0787309
vn -0.6763372 -0.6832449 0.2752172
vn -0.6129344 -0.7712324 -0.1717908
vn -0.7283641 -0.6331346 -0.2619663
vn -0.5256922 -0.8498853 -0.03663937
vn -0.5198197 -0.8192382 0.2421492
vn -0.413551 -0.9035386 0.1122208
vn -0.370654 -0.9087015 -0.1920343
vn -0.4377017 -0.8453248 -0.3063384
vn -0.5104545 -0.7678205 -0.3871536
vn -0.2951971 -0.9553846 0.009953018
vn -0.2447272 -0.9569514 0.1560534
vn -0.2491318 -0.958766 -0.1367523
vn -0.147338 -0.9886635 -0.02891367
vn -0.1243947 -0.9573212 -0.2608874
vn -0.06395008 -0.9887385 -0.1353014
vn -0.1632815 -0.9089968 -0.3834893
vn -0.280901 -0.8459988 -0.4531894
vn -0.06795068 -0.8407176 -0.5371933
vn -0.1570733 -0.7693819 -0.6191764
vn -0.3846272 -0.7286886 -0.5666347
vn -0.5770032 -0.684099 -0.4461793
vn -0.6417332 -0.5884605 -0.491826
vn -0.4568196 -0.5480892 -0.7006525
vn -0.8254697 -0.4875225 -0.284467
vn -0.2473686 -0.6376741 -0.729507
vn -0.04529162 -0.6420806 -0.7652981
vn -0.06292362 -0.4746835 -0.8779045
vn -0.2694965 -0.4746186 -0.8379193
vn -0.05821712 -0.3455683 -0.936586
vn -0.2913916 -0.2370744 -0.9267613
vn -0.4314367 -0.3353402 -0.8375019
vn -0.5516915 -0.1207068 -0.8252675
vn -0.6564971 -0.20621 -0.7255956
vn -0.6223455 -0.3357768 -0.7070643
vn -0.7393976 -0.4308076 -0.5173934
vn -0.5820788 -0.472845 -0.661515
vn -0.8465735 -0.3369245 -0.412062
vn -0.8120028 -0.1944869 -0.5502967
vn -0.8906232 -0.02861275 -0.453841
vn -0.968116 -0.004178159 -0.2504674
vn -0.9272882 -0.1901909 -0.3224346
vn -0.8120028 -0.1944869 -0.5502967
vn -0.7439168 -0.02324186 -0.6678681
vn -0.8106155 0.1392688 -0.5687766
vn -0.8465735 -0.3369245 -0.412062
vn -0.9233752 -0.3391101 -0.1799513
vn -0.9841812 -0.1228342 -0.1276681
vn -0.8254697 -0.4875225 -0.284467
vn -0.881434 -0.4685109 -0.0597637
vn -0.7283641 -0.6331346 -0.2619663
vn -0.7575897 -0.645814 -0.09477454
vn -0.6564971 -0.20621 -0.7255956
vn -0.6223455 -0.3357768 -0.7070643
vn -0.7393976 -0.4308076 -0.5173934
vn -0.5820788 -0.472845 -0.661515
vn -0.5516915 -0.1207068 -0.8252675
vn -0.4568196 -0.5480892 -0.7006525
vn -0.6417332 -0.5884605 -0.491826
vn -0.5770032 -0.684099 -0.4461793
vn -0.4314367 -0.3353402 -0.8375019
vn -0.2694965 -0.4746186 -0.8379193
vn -0.6361753 0.1278967 -0.7608702
vn -0.4463432 -0.01994168 -0.8946396
vn -0.2913916 -0.2370744 -0.9267613
vn -0.713667 0.3326462 -0.6164624
vn -0.8484101 0.3313998 -0.4127645
vn -0.9157151 0.1384674 -0.3772168
vn -0.9231868 0.3355129 -0.1875026
vn -0.9745343 0.1359223 -0.1783479
vn -0.9449745 0.3271441 9.030405E-05
vn -0.98706 0.1603328 -0.00246425
vn -0.8147498 0.5111945 -0.273611
vn -0.8461663 0.5210674 -0.1117646
vn -0.7274573 0.6198966 -0.294167
vn -0.716352 0.5091269 -0.4771054
vn -0.5792395 0.6314269 -0.5155401
vn -0.6201379 0.7248424 -0.300054
vn -0.4232607 0.7711754 -0.4755406
vn -0.5659869 0.5160213 -0.6429471
vn -0.3789566 0.670054 -0.6382942
vn -0.5734386 0.3458375 -0.7426738
vn -0.4261079 0.5186868 -0.7412125
vn -0.4454788 0.2335978 -0.8642804
vn -0.3991983 0.4095036 -0.8203337
vn -0.2561494 0.5241952 -0.8121618
vn -0.2031218 0.3153543 -0.9269807
vn -0.1862954 0.6771118 -0.7119085
vn -0.1837509 0.8108427 -0.5556705
vn -0.1655612 0.874981 -0.4549701
vn -0.3634841 0.8757715 -0.3176533
vn -0.06369291 0.4178028 -0.9063025
vn -0.04921015 0.5220053 -0.8515214
vn -0.3298583 0.1247541 -0.935751
vn -0.08092342 0.1407677 -0.9867299
vn -0.2260863 -0.02193736 -0.9738602
vn -0.06258702 -0.1915421 -0.9794869
vn -0.05821712 -0.3455683 -0.936586
vn 0.1267861 -0.1308999 -0.983255
vn -0.06258702 -0.1915421 -0.9794869
vn -0.05821712 -0.3455683 -0.936586
vn 0.01034583 -0.002141903 -0.9999442
vn -0.2260863 -0.02193736 -0.9738602
vn 0.1706877 0.1331651 -0.9762852
vn -0.08092342 0.1407677 -0.9867299
vn 0.07355046 0.321339 -0.9441035
vn -0.2031218 0.3153543 -0.9269807
vn -0.06369291 0.4178028 -0.9063025
vn -0.04921015 0.5220053 -0.8515214
vn 0.1694146 0.5172955 -0.8388707
vn 0.3021664 0.3377255 -0.8914241
vn 0.3748949 0.5111621 -0.7734126
vn 0.1954742 0.6794097 -0.7072428
vn -0.01095674 0.6772369 -0.7356835
vn -0.1862954 0.6771118 -0.7119085
vn -0.2561494 0.5241952 -0.8121618
vn 0.1092879 0.806732 -0.5807235
vn 0.358789 0.804046 -0.4741102
vn -0.1837509 0.8108427 -0.5556705
vn 0.2765647 0.8756792 -0.395851
vn 0.054557 0.8753849 -0.4803382
vn -0.1655612 0.874981 -0.4549701
vn 0.1169303 0.9328067 -0.3408799
vn -0.08603986 0.9314053 -0.3536683
vn -0.2795353 -0.9047611 0.3213525
vn -0.3478872 -0.8496466 0.3963272
vn -0.07851164 -0.9043019 0.4196115
vn -0.1263409 -0.9577532 0.2583539
vn 0.1445353 -0.905247 0.3995464
vn 0.01642299 -0.9579229 0.2865557
vn 0.4138871 -0.8538639 0.3156167
vn 0.5766428 -0.7677312 0.2794133
vn 0.7333485 -0.6327835 0.2485658
vn 0.8809714 -0.4693581 0.05993676
vn 0.7526979 -0.6556899 0.0593013
vn 0.8336349 -0.5471461 -0.07539227
vn 0.6961756 -0.6949705 -0.1798763
vn 0.6369822 -0.7661855 0.08493295
vn 0.5795543 -0.806895 -0.1141812
vn 0.5221738 -0.8479623 0.09107438
vn 0.4203488 -0.9071447 -0.01988529
vn 0.4464462 -0.8549177 -0.2642
vn 0.285981 -0.9098772 -0.3005634
vn 0.334547 -0.9084433 0.2506172
vn 0.2782076 -0.9549579 -0.103228
vn 0.1917377 -0.9586666 -0.210226
vn 0.07791464 -0.9892794 -0.1235133
vn 0.1465865 -0.9888374 0.02670306
vn 0.2889494 -0.9545139 0.07356263
vn 0.187223 -0.9577975 0.2181089
vn 0.04571481 -0.9886275 0.1432683
vn -0.0002652835 -0.9999999 0.0005041803
vn -0.09797512 -0.9887993 0.1125916
vn -0.147338 -0.9886635 -0.02891367
vn -0.2447272 -0.9569514 0.1560534
vn -0.2951971 -0.9553846 0.009953018
usemtl Egg4_Mat
f 3/3/3 2/2/2 1/1/1
f 6/6/6 5/5/5 4/4/4
f 9/9/9 8/8/8 7/7/7
f 9/9/9 10/10/10 8/8/8
f 10/10/10 11/11/11 8/8/8
f 12/12/12 8/8/8 11/11/11
f 13/13/13 12/12/12 11/11/11
f 10/10/10 14/14/14 11/11/11
f 14/14/14 10/10/10 15/15/15
f 16/16/16 11/11/11 14/14/14
f 13/13/13 11/11/11 16/16/16
f 17/17/17 13/13/13 16/16/16
f 13/13/13 17/17/17 18/18/18
f 15/15/15 19/19/19 14/14/14
f 15/15/15 20/20/20 19/19/19
f 21/21/21 20/20/20 15/15/15
f 21/21/21 22/22/22 20/20/20
f 23/23/23 21/21/21 15/15/15
f 22/22/22 21/21/21 24/24/24
f 23/23/23 25/25/25 21/21/21
f 23/23/23 26/26/26 25/25/25
f 21/21/21 27/27/27 24/24/24
f 21/21/21 25/25/25 27/27/27
f 28/28/28 27/27/27 25/25/25
f 29/29/29 24/24/24 27/27/27
f 27/27/27 28/28/28 30/30/30
f 30/30/30 29/29/29 27/27/27
f 31/31/31 29/29/29 30/30/30
f 31/31/31 30/30/30 32/32/32
f 35/35/35 34/34/34 33/33/33
f 34/34/34 36/36/36 33/33/33
f 37/37/37 33/33/33 36/36/36
f 33/33/33 37/37/37 38/38/38
f 38/38/38 37/37/37 39/39/39
f 40/40/40 38/38/38 39/39/39
f 41/41/41 40/40/40 39/39/39
f 39/39/39 37/37/37 42/42/42
f 37/37/37 36/36/36 42/42/42
f 39/39/39 43/43/43 41/41/41
f 43/43/43 39/39/39 42/42/42
f 41/41/41 43/43/43 44/44/44
f 45/45/45 41/41/41 44/44/44
f 46/46/46 44/44/44 43/43/43
f 42/42/42 46/46/46 43/43/43
f 44/44/44 47/47/47 45/45/45
f 46/46/46 47/47/47 44/44/44
f 48/48/48 45/45/45 47/47/47
f 48/48/48 49/49/49 45/45/45
f 50/50/50 48/48/48 47/47/47
f 46/46/46 51/51/51 47/47/47
f 50/50/50 47/47/47 51/51/51
f 42/42/42 52/52/52 46/46/46
f 51/51/51 46/46/46 52/52/52
f 52/52/52 42/42/42 53/53/53
f 42/42/42 36/36/36 53/53/53
f 54/54/54 51/51/51 52/52/52
f 53/53/53 54/54/54 52/52/52
f 55/55/55 50/50/50 51/51/51
f 56/56/56 51/51/51 54/54/54
f 55/55/55 51/51/51 56/56/56
f 50/50/50 55/55/55 57/57/57
f 57/57/57 55/55/55 58/58/58
f 59/59/59 50/50/50 57/57/57
f 60/60/60 55/55/55 56/56/56
f 55/55/55 60/60/60 58/58/58
f 36/36/36 61/61/61 53/53/53
f 54/54/54 53/53/53 62/62/62
f 53/53/53 61/61/61 62/62/62
f 61/61/61 36/36/36 63/63/63
f 63/63/63 36/36/36 34/34/34
f 64/64/64 63/63/63 34/34/34
f 63/63/63 65/65/65 61/61/61
f 62/62/62 61/61/61 65/65/65
f 64/64/64 66/66/66 63/63/63
f 63/63/63 66/66/66 65/65/65
f 67/67/67 66/66/66 64/64/64
f 56/56/56 68/68/68 60/60/60
f 69/69/69 56/56/56 54/54/54
f 68/68/68 56/56/56 69/69/69
f 70/70/70 54/54/54 62/62/62
f 70/70/70 69/69/69 54/54/54
f 71/71/71 62/62/62 65/65/65
f 62/62/62 71/71/71 70/70/70
f 66/66/66 72/72/72 65/65/65
f 72/72/72 71/71/71 65/65/65
f 67/67/67 73/73/73 66/66/66
f 72/72/72 66/66/66 73/73/73
f 68/68/68 74/74/74 60/60/60
f 58/58/58 60/60/60 74/74/74
f 75/75/75 69/69/69 70/70/70
f 71/71/71 75/75/75 70/70/70
f 73/73/73 67/67/67 76/76/76
f 77/77/77 76/76/76 67/67/67
f 77/77/77 78/78/78 76/76/76
f 76/76/76 78/78/78 79/79/79
f 80/80/80 76/76/76 79/79/79
f 76/76/76 80/80/80 73/73/73
f 80/80/80 79/79/79 81/81/81
f 81/81/81 82/82/82 80/80/80
f 82/82/82 83/83/83 80/80/80
f 80/80/80 83/83/83 73/73/73
f 83/83/83 84/84/84 73/73/73
f 72/72/72 73/73/73 84/84/84
f 84/84/84 85/85/85 72/72/72
f 71/71/71 72/72/72 85/85/85
f 85/85/85 84/84/84 86/86/86
f 87/87/87 85/85/85 86/86/86
f 71/71/71 85/85/85 88/88/88
f 88/88/88 85/85/85 87/87/87
f 71/71/71 88/88/88 75/75/75
f 88/88/88 87/87/87 89/89/89
f 89/89/89 87/87/87 90/90/90
f 89/89/89 90/90/90 91/91/91
f 92/92/92 89/89/89 91/91/91
f 89/89/89 92/92/92 88/88/88
f 93/93/93 92/92/92 91/91/91
f 88/88/88 94/94/94 75/75/75
f 92/92/92 94/94/94 88/88/88
f 92/92/92 93/93/93 95/95/95
f 95/95/95 94/94/94 92/92/92
f 94/94/94 96/96/96 75/75/75
f 75/75/75 96/96/96 69/69/69
f 93/93/93 97/97/97 95/95/95
f 98/98/98 97/97/97 93/93/93
f 94/94/94 95/95/95 99/99/99
f 94/94/94 99/99/99 96/96/96
f 97/97/97 99/99/99 95/95/95
f 69/69/69 96/96/96 100/100/100
f 99/99/99 100/100/100 96/96/96
f 68/68/68 69/69/69 100/100/100
f 99/99/99 97/97/97 101/101/101
f 99/99/99 101/101/101 100/100/100
f 100/100/100 101/101/101 68/68/68
f 68/68/68 101/101/101 74/74/74
f 102/102/102 101/101/101 97/97/97
f 101/101/101 103/103/103 74/74/74
f 102/102/102 103/103/103 101/101/101
f 103/103/103 58/58/58 74/74/74
f 102/102/102 104/104/104 103/103/103
f 104/104/104 102/102/102 105/105/105
f 104/104/104 106/106/106 103/103/103
f 104/104/104 105/105/105 106/106/106
f 103/103/103 106/106/106 58/58/58
f 106/106/106 105/105/105 107/107/107
f 58/58/58 106/106/106 107/107/107
f 108/108/108 58/58/58 107/107/107
f 57/57/57 58/58/58 108/108/108
f 108/108/108 107/107/107 109/109/109
f 110/110/110 57/57/57 108/108/108
f 57/57/57 110/110/110 59/59/59
f 111/111/111 108/108/108 109/109/109
f 108/108/108 111/111/111 110/110/110
f 112/112/112 111/111/111 109/109/109
f 113/113/113 112/112/112 109/109/109
f 110/110/110 114/114/114 59/59/59
f 111/111/111 115/115/115 110/110/110
f 115/115/115 114/114/114 110/110/110
f 115/115/115 111/111/111 116/116/116
f 112/112/112 116/116/116 111/111/111
f 115/115/115 117/117/117 114/114/114
f 118/118/118 114/114/114 117/117/117
f 59/59/59 114/114/114 119/119/119
f 119/119/119 114/114/114 118/118/118
f 120/120/120 59/59/59 119/119/119
f 121/121/121 119/119/119 118/118/118
f 120/120/120 119/119/119 121/121/121
f 120/120/120 121/121/121 122/122/122
f 121/121/121 123/123/123 122/122/122
f 124/124/124 122/122/122 123/123/123
f 116/116/116 112/112/112 125/125/125
f 126/126/126 116/116/116 125/125/125
f 125/125/125 112/112/112 113/113/113
f 127/127/127 125/125/125 113/113/113
f 128/128/128 125/125/125 127/127/127
f 113/113/113 129/129/129 127/127/127
f 127/127/127 129/129/129 130/130/130
f 131/131/131 127/127/127 130/130/130
f 134/134/134 133/133/133 132/132/132
f 135/135/135 133/133/133 134/134/134
f 135/135/135 136/136/136 133/133/133
f 137/137/137 133/133/133 136/136/136
f 138/138/138 136/136/136 135/135/135
f 136/136/136 139/139/139 137/137/137
f 140/140/140 137/137/137 139/139/139
f 136/136/136 138/138/138 141/141/141
f 141/141/141 139/139/139 136/136/136
f 138/138/138 142/142/142 141/141/141
f 140/140/140 139/139/139 143/143/143
f 144/144/144 140/140/140 143/143/143
f 145/145/145 143/143/143 139/139/139
f 145/145/145 139/139/139 141/141/141
f 146/146/146 143/143/143 145/145/145
f 146/146/146 144/144/144 143/143/143
f 147/147/147 145/145/145 141/141/141
f 146/146/146 145/145/145 147/147/147
f 142/142/142 148/148/148 141/141/141
f 147/147/147 141/141/141 148/148/148
f 149/149/149 144/144/144 146/146/146
f 144/144/144 149/149/149 150/150/150
f 151/151/151 144/144/144 150/150/150
f 152/152/152 151/151/151 150/150/150
f 152/152/152 153/153/153 151/151/151
f 154/154/154 149/149/149 146/146/146
f 155/155/155 149/149/149 154/154/154
f 146/146/146 147/147/147 156/156/156
f 154/154/154 146/146/146 156/156/156
f 156/156/156 147/147/147 157/157/157
f 154/154/154 156/156/156 158/158/158
f 157/157/157 158/158/158 156/156/156
f 158/158/158 159/159/159 154/154/154
f 159/159/159 160/160/160 154/154/154
f 147/147/147 161/161/161 157/157/157
f 148/148/148 161/161/161 147/147/147
f 162/162/162 161/161/161 148/148/148
f 161/161/161 162/162/162 157/157/157
f 158/158/158 157/157/157 163/163/163
f 164/164/164 158/158/158 163/163/163
f 164/164/164 163/163/163 165/165/165
f 163/163/163 157/157/157 166/166/166
f 166/166/166 165/165/165 163/163/163
f 157/157/157 162/162/162 166/166/166
f 167/167/167 165/165/165 166/166/166
f 168/168/168 167/167/167 166/166/166
f 169/169/169 162/162/162 148/148/148
f 148/148/148 142/142/142 169/169/169
f 162/162/162 170/170/170 166/166/166
f 162/162/162 169/169/169 170/170/170
f 168/168/168 166/166/166 170/170/170
f 169/169/169 142/142/142 171/171/171
f 169/169/169 171/171/171 170/170/170
f 142/142/142 172/172/172 171/171/171
f 173/173/173 170/170/170 171/171/171
f 173/173/173 168/168/168 170/170/170
f 174/174/174 173/173/173 171/171/171
f 174/174/174 175/175/175 173/173/173
f 173/173/173 176/176/176 168/168/168
f 173/173/173 175/175/175 176/176/176
f 168/168/168 176/176/176 177/177/177
f 178/178/178 176/176/176 175/175/175
f 181/181/181 180/180/180 179/179/179
f 181/181/181 182/182/182 180/180/180
f 181/181/181 183/183/183 182/182/182
f 184/184/184 183/183/183 181/181/181
f 185/185/185 180/180/180 182/182/182
f 186/186/186 182/182/182 183/183/183
f 186/186/186 185/185/185 182/182/182
f 185/185/185 187/187/187 180/180/180
f 187/187/187 188/188/188 180/180/180
f 189/189/189 188/188/188 187/187/187
f 188/188/188 189/189/189 190/190/190
f 189/189/189 191/191/191 190/190/190
f 190/190/190 191/191/191 192/192/192
f 191/191/191 193/193/193 192/192/192
f 191/191/191 194/194/194 193/193/193
f 194/194/194 195/195/195 193/193/193
f 194/194/194 196/196/196 195/195/195
f 197/197/197 196/196/196 194/194/194
f 198/198/198 194/194/194 191/191/191
f 198/198/198 197/197/197 194/194/194
f 189/189/189 198/198/198 191/191/191
f 197/197/197 198/198/198 199/199/199
f 199/199/199 198/198/198 189/189/189
f 187/187/187 199/199/199 189/189/189
f 200/200/200 187/187/187 185/185/185
f 187/187/187 201/201/201 199/199/199
f 187/187/187 200/200/200 201/201/201
f 202/202/202 200/200/200 185/185/185
f 185/185/185 186/186/186 202/202/202
f 201/201/201 203/203/203 199/199/199
f 200/200/200 204/204/204 201/201/201
f 201/201/201 204/204/204 203/203/203
f 205/205/205 200/200/200 202/202/202
f 200/200/200 205/205/205 204/204/204
f 205/205/205 206/206/206 204/204/204
f 204/204/204 206/206/206 207/207/207
f 204/204/204 207/207/207 203/203/203
f 203/203/203 207/207/207 208/208/208
f 203/203/203 209/209/209 199/199/199
f 209/209/209 203/203/203 208/208/208
f 209/209/209 210/210/210 199/199/199
f 211/211/211 209/209/209 208/208/208
f 209/209/209 211/211/211 210/210/210
f 208/208/208 212/212/212 211/211/211
f 211/211/211 213/213/213 210/210/210
f 212/212/212 214/214/214 211/211/211
f 214/214/214 213/213/213 211/211/211
f 213/213/213 214/214/214 215/215/215
f 216/216/216 214/214/214 212/212/212
f 214/214/214 216/216/216 217/217/217
f 216/216/216 218/218/218 217/217/217
f 219/219/219 217/217/217 218/218/218
f 220/220/220 219/219/219 218/218/218
f 221/221/221 219/219/219 220/220/220
f 222/222/222 221/221/221 220/220/220
f 225/225/225 224/224/224 223/223/223
f 223/223/223 226/226/226 225/225/225
f 226/226/226 227/227/227 225/225/225
f 226/226/226 228/228/228 227/227/227
f 229/229/229 228/228/228 226/226/226
f 228/228/228 230/230/230 227/227/227
f 231/231/231 227/227/227 230/230/230
f 232/232/232 231/231/231 230/230/230
f 233/233/233 232/232/232 230/230/230
f 232/232/232 233/233/233 234/234/234
f 235/235/235 230/230/230 228/228/228
f 230/230/230 235/235/235 233/233/233
f 236/236/236 228/228/228 229/229/229
f 228/228/228 236/236/236 235/235/235
f 237/237/237 234/234/234 233/233/233
f 237/237/237 238/238/238 234/234/234
f 239/239/239 233/233/233 235/235/235
f 239/239/239 237/237/237 233/233/233
f 229/229/229 240/240/240 236/236/236
f 240/240/240 229/229/229 241/241/241
f 235/235/235 236/236/236 242/242/242
f 239/239/239 235/235/235 242/242/242
f 236/236/236 240/240/240 243/243/243
f 242/242/242 236/236/236 243/243/243
f 241/241/241 244/244/244 240/240/240
f 244/244/244 243/243/243 240/240/240
f 241/241/241 245/245/245 244/244/244
f 245/245/245 241/241/241 246/246/246
f 247/247/247 244/244/244 245/245/245
f 244/244/244 248/248/248 243/243/243
f 244/244/244 247/247/247 248/248/248
f 242/242/242 243/243/243 249/249/249
f 243/243/243 248/248/248 249/249/249
f 248/248/248 247/247/247 250/250/250
f 248/248/248 250/250/250 249/249/249
f 247/247/247 251/251/251 250/250/250
f 252/252/252 242/242/242 249/249/249
f 239/239/239 242/242/242 252/252/252
f 253/253/253 250/250/250 251/251/251
f 254/254/254 253/253/253 251/251/251
f 253/253/253 254/254/254 255/255/255
f 256/256/256 249/249/249 250/250/250
f 253/253/253 256/256/256 250/250/250
f 252/252/252 249/249/249 256/256/256
f 257/257/257 253/253/253 255/255/255
f 253/253/253 257/257/257 256/256/256
f 257/257/257 255/255/255 258/258/258
f 259/259/259 252/252/252 256/256/256
f 259/259/259 256/256/256 257/257/257
f 260/260/260 239/239/239 252/252/252
f 252/252/252 259/259/259 260/260/260
f 260/260/260 261/261/261 239/239/239
f 239/239/239 261/261/261 237/237/237
f 237/237/237 261/261/261 262/262/262
f 263/263/263 237/237/237 262/262/262
f 263/263/263 262/262/262 264/264/264
f 265/265/265 263/263/263 264/264/264
f 265/265/265 264/264/264 266/266/266
f 267/267/267 262/262/262 261/261/261
f 260/260/260 267/267/267 261/261/261
f 267/267/267 268/268/268 262/262/262
f 269/269/269 268/268/268 267/267/267
f 260/260/260 270/270/270 267/267/267
f 260/260/260 259/259/259 270/270/270
f 269/269/269 267/267/267 270/270/270
f 271/271/271 270/270/270 259/259/259
f 271/271/271 259/259/259 257/257/257
f 272/272/272 269/269/269 270/270/270
f 269/269/269 272/272/272 273/273/273
f 273/273/273 272/272/272 274/274/274
f 257/257/257 275/275/275 271/271/271
f 275/275/275 257/257/257 258/258/258
f 270/270/270 271/271/271 276/276/276
f 276/276/276 272/272/272 270/270/270
f 271/271/271 275/275/275 276/276/276
f 274/274/274 272/272/272 277/277/277
f 274/274/274 277/277/277 278/278/278
f 272/272/272 276/276/276 279/279/279
f 279/279/279 277/277/277 272/272/272
f 276/276/276 275/275/275 280/280/280
f 280/280/280 279/279/279 276/276/276
f 277/277/277 279/279/279 281/281/281
f 278/278/278 277/277/277 281/281/281
f 281/281/281 279/279/279 280/280/280
f 282/282/282 275/275/275 258/258/258
f 282/282/282 280/280/280 275/275/275
f 278/278/278 281/281/281 283/283/283
f 284/284/284 278/278/278 283/283/283
f 285/285/285 283/283/283 281/281/281
f 286/286/286 281/281/281 280/280/280
f 285/285/285 281/281/281 286/286/286
f 280/280/280 282/282/282 286/286/286
f 285/285/285 286/286/286 287/287/287
f 282/282/282 287/287/287 286/286/286
f 285/285/285 287/287/287 288/288/288
f 289/289/289 288/288/288 287/287/287
f 282/282/282 289/289/289 287/287/287
f 289/289/289 282/282/282 258/258/258
f 289/289/289 258/258/258 290/290/290
f 291/291/291 289/289/289 290/290/290
f 294/294/294 293/293/293 292/292/292
f 294/294/294 295/295/295 293/293/293
f 295/295/295 296/296/296 293/293/293
f 297/297/297 295/295/295 294/294/294
f 298/298/298 297/297/297 294/294/294
f 299/299/299 296/296/296 295/295/295
f 297/297/297 300/300/300 295/295/295
f 300/300/300 299/299/299 295/295/295
f 296/296/296 299/299/299 301/301/301
f 301/301/301 302/302/302 296/296/296
f 297/297/297 303/303/303 300/300/300
f 303/303/303 297/297/297 304/304/304
f 305/305/305 303/303/303 304/304/304
f 305/305/305 304/304/304 306/306/306
f 306/306/306 307/307/307 305/305/305
f 299/299/299 300/300/300 308/308/308
f 299/299/299 309/309/309 301/301/301
f 299/299/299 308/308/308 309/309/309
f 303/303/303 310/310/310 300/300/300
f 300/300/300 310/310/310 308/308/308
f 311/311/311 302/302/302 301/301/301
f 312/312/312 301/301/301 309/309/309
f 311/311/311 301/301/301 312/312/312
f 313/313/313 302/302/302 311/311/311
f 313/313/313 314/314/314 302/302/302
f 315/315/315 314/314/314 313/313/313
f 313/313/313 311/311/311 316/316/316
f 311/311/311 312/312/312 316/316/316
f 317/317/317 312/312/312 309/309/309
f 308/308/308 318/318/318 309/309/309
f 317/317/317 309/309/309 318/318/318
f 319/319/319 318/318/318 308/308/308
f 320/320/320 319/319/319 308/308/308
f 308/308/308 310/310/310 320/320/320
f 320/320/320 310/310/310 321/321/321
f 321/321/321 310/310/310 322/322/322
f 303/303/303 322/322/322 310/310/310
f 323/323/323 317/317/317 318/318/318
f 303/303/303 324/324/324 322/322/322
f 324/324/324 325/325/325 322/322/322
f 303/303/303 305/305/305 324/324/324
f 325/325/325 324/324/324 326/326/326
f 324/324/324 305/305/305 326/326/326
f 326/326/326 305/305/305 307/307/307
f 327/327/327 326/326/326 307/307/307
f 307/307/307 328/328/328 327/327/327
f 329/329/329 317/317/317 323/323/323
f 329/329/329 323/323/323 330/330/330
f 331/331/331 317/317/317 329/329/329
f 331/331/331 312/312/312 317/317/317
f 332/332/332 312/312/312 331/331/331
f 331/331/331 329/329/329 333/333/333
f 329/329/329 334/334/334 333/333/333
f 333/333/333 334/334/334 335/335/335
f 329/329/329 330/330/330 336/336/336
f 334/334/334 329/329/329 336/336/336
f 336/336/336 337/337/337 334/334/334
f 338/338/338 334/334/334 337/337/337
f 335/335/335 334/334/334 338/338/338
f 339/339/339 335/335/335 338/338/338
f 339/339/339 340/340/340 335/335/335
f 330/330/330 341/341/341 336/336/336
f 341/341/341 342/342/342 336/336/336
f 341/341/341 330/330/330 343/343/343
f 341/341/341 343/343/343 344/344/344
f 344/344/344 343/343/343 345/345/345
f 348/348/348 347/347/347 346/346/346
f 349/349/349 346/346/346 347/347/347
f 350/350/350 349/349/349 347/347/347
f 351/351/351 349/349/349 350/350/350
f 352/352/352 350/350/350 347/347/347
f 353/353/353 352/352/352 347/347/347
f 354/354/354 350/350/350 352/352/352
f 354/354/354 355/355/355 350/350/350
f 355/355/355 354/354/354 356/356/356
f 354/354/354 357/357/357 356/356/356
f 358/358/358 354/354/354 352/352/352
f 354/354/354 358/358/358 357/357/357
f 352/352/352 353/353/353 359/359/359
f 359/359/359 358/358/358 352/352/352
f 356/356/356 357/357/357 360/360/360
f 360/360/360 361/361/361 356/356/356
f 362/362/362 360/360/360 357/357/357
f 360/360/360 362/362/362 363/363/363
f 363/363/363 362/362/362 364/364/364
f 364/364/364 362/362/362 357/357/357
f 365/365/365 363/363/363 364/364/364
f 357/357/357 366/366/366 364/364/364
f 366/366/366 357/357/357 367/367/367
f 357/357/357 358/358/358 367/367/367
f 368/368/368 366/366/366 367/367/367
f 368/368/368 367/367/367 369/369/369
f 370/370/370 367/367/367 358/358/358
f 359/359/359 370/370/370 358/358/358
f 367/367/367 370/370/370 369/369/369
f 371/371/371 370/370/370 359/359/359
f 353/353/353 371/371/371 359/359/359
f 372/372/372 371/371/371 353/353/353
f 373/373/373 370/370/370 371/371/371
f 353/353/353 374/374/374 372/372/372
f 375/375/375 369/369/369 370/370/370
f 370/370/370 373/373/373 375/375/375
f 375/375/375 376/376/376 369/369/369
f 376/376/376 375/375/375 377/377/377
f 378/378/378 375/375/375 373/373/373
f 375/375/375 378/378/378 377/377/377
f 379/379/379 377/377/377 378/378/378
f 380/380/380 379/379/379 378/378/378
f 380/380/380 378/378/378 381/381/381
f 382/382/382 380/380/380 381/381/381
f 383/383/383 382/382/382 381/381/381
f 384/384/384 383/383/383 381/381/381
f 374/374/374 385/385/385 372/372/372
f 386/386/386 372/372/372 385/385/385
f 385/385/385 374/374/374 387/387/387
f 388/388/388 385/385/385 387/387/387
f 391/391/391 390/390/390 389/389/389
f 392/392/392 391/391/391 389/389/389
f 392/392/392 389/389/389 393/393/393
f 389/389/389 394/394/394 393/393/393
f 392/392/392 395/395/395 391/391/391
f 391/391/391 395/395/395 396/396/396
f 391/391/391 396/396/396 397/397/397
f 398/398/398 396/396/396 395/395/395
f 398/398/398 399/399/399 396/396/396
f 399/399/399 398/398/398 400/400/400
f 401/401/401 399/399/399 400/400/400
f 402/402/402 392/392/392 393/393/393
f 392/392/392 402/402/402 403/403/403
f 404/404/404 392/392/392 403/403/403
f 403/403/403 405/405/405 404/404/404
f 402/402/402 393/393/393 406/406/406
f 405/405/405 403/403/403 407/407/407
f 405/405/405 407/407/407 408/408/408
f 408/408/408 407/407/407 409/409/409
f 403/403/403 410/410/410 407/407/407
f 411/411/411 407/407/407 410/410/410
f 393/393/393 412/412/412 406/406/406
f 393/393/393 394/394/394 412/412/412
f 412/412/412 413/413/413 406/406/406
f 414/414/414 406/406/406 413/413/413
f 415/415/415 412/412/412 394/394/394
f 416/416/416 415/415/415 394/394/394
f 416/416/416 394/394/394 417/417/417
f 416/416/416 417/417/417 418/418/418
f 417/417/417 419/419/419 418/418/418
f 418/418/418 419/419/419 420/420/420
f 419/419/419 421/421/421 420/420/420
f 418/418/418 422/422/422 416/416/416
f 423/423/423 422/422/422 418/418/418
f 422/422/422 423/423/423 424/424/424
f 422/422/422 425/425/425 416/416/416
f 424/424/424 425/425/425 422/422/422
f 416/416/416 425/425/425 415/415/415
f 424/424/424 426/426/426 425/425/425
f 424/424/424 427/427/427 426/426/426
f 426/426/426 427/427/427 428/428/428
f 425/425/425 429/429/429 415/415/415
f 426/426/426 429/429/429 425/425/425
f 426/426/426 428/428/428 430/430/430
f 426/426/426 430/430/430 429/429/429
f 415/415/415 429/429/429 431/431/431
f 415/415/415 431/431/431 412/412/412
f 430/430/430 432/432/432 429/429/429
f 431/431/431 429/429/429 432/432/432
f 431/431/431 433/433/433 412/412/412
f 413/413/413 412/412/412 433/433/433
f 434/434/434 431/431/431 432/432/432
f 433/433/433 431/431/431 434/434/434
f 432/432/432 435/435/435 434/434/434
f 435/435/435 432/432/432 430/430/430
f 433/433/433 434/434/434 436/436/436
f 435/435/435 436/436/436 434/434/434
f 437/437/437 435/435/435 430/430/430
f 438/438/438 437/437/437 430/430/430
f 438/438/438 430/430/430 428/428/428
f 439/439/439 438/438/438 428/428/428
f 440/440/440 439/439/439 428/428/428
f 441/441/441 436/436/436 435/435/435
f 442/442/442 441/441/441 435/435/435
f 433/433/433 436/436/436 443/443/443
f 413/413/413 433/433/433 443/443/443
f 443/443/443 436/436/436 444/444/444
f 445/445/445 443/443/443 444/444/444
f 443/443/443 445/445/445 413/413/413
f 445/445/445 414/414/414 413/413/413
f 446/446/446 414/414/414 445/445/445
f 446/446/446 447/447/447 414/414/414
f 450/450/450 449/449/449 448/448/448
f 449/449/449 451/451/451 448/448/448
f 451/451/451 449/449/449 452/452/452
f 451/451/451 453/453/453 448/448/448
f 454/454/454 451/451/451 452/452/452
f 451/451/451 454/454/454 453/453/453
f 454/454/454 455/455/455 453/453/453
f 456/456/456 455/455/455 454/454/454
f 455/455/455 456/456/456 457/457/457
f 455/455/455 457/457/457 458/458/458
f 459/459/459 455/455/455 458/458/458
f 459/459/459 460/460/460 455/455/455
f 459/459/459 461/461/461 460/460/460
f 461/461/461 459/459/459 462/462/462
f 459/459/459 458/458/458 463/463/463
f 462/462/462 459/459/459 463/463/463
f 463/463/463 458/458/458 464/464/464
f 458/458/458 465/465/465 464/464/464
f 466/466/466 462/462/462 463/463/463
f 463/463/463 464/464/464 466/466/466
f 462/462/462 466/466/466 467/467/467
f 464/464/464 468/468/468 466/466/466
f 467/467/467 466/466/466 469/469/469
f 470/470/470 466/466/466 468/468/468
f 470/470/470 469/469/469 466/466/466
f 471/471/471 470/470/470 468/468/468
f 472/472/472 469/469/469 470/470/470
f 470/470/470 471/471/471 473/473/473
f 473/473/473 472/472/472 470/470/470
f 184/184/184 475/475/475 474/474/474
f 476/476/476 184/184/184 474/474/474
f 477/477/477 476/476/476 474/474/474
f 183/183/183 184/184/184 476/476/476
f 478/478/478 183/183/183 476/476/476
f 477/477/477 479/479/479 476/476/476
f 479/479/479 478/478/478 476/476/476
f 480/480/480 183/183/183 478/478/478
f 480/480/480 186/186/186 183/183/183
f 480/480/480 481/481/481 186/186/186
f 202/202/202 186/186/186 481/481/481
f 202/202/202 481/481/481 482/482/482
f 482/482/482 205/205/205 202/202/202
f 483/483/483 205/205/205 482/482/482
f 484/484/484 483/483/483 482/482/482
f 483/483/483 484/484/484 485/485/485
f 484/484/484 486/486/486 485/485/485
f 482/482/482 487/487/487 484/484/484
f 486/486/486 484/484/484 487/487/487
f 482/482/482 481/481/481 487/487/487
f 488/488/488 486/486/486 487/487/487
f 487/487/487 481/481/481 489/489/489
f 487/487/487 489/489/489 488/488/488
f 481/481/481 480/480/480 489/489/489
f 489/489/489 490/490/490 488/488/488
f 490/490/490 489/489/489 480/480/480
f 488/488/488 490/490/490 491/491/491
f 491/491/491 490/490/490 492/492/492
f 493/493/493 490/490/490 480/480/480
f 493/493/493 480/480/480 478/478/478
f 492/492/492 490/490/490 494/494/494
f 494/494/494 495/495/495 492/492/492
f 495/495/495 494/494/494 496/496/496
f 494/494/494 497/497/497 496/496/496
f 498/498/498 494/494/494 490/490/490
f 490/490/490 493/493/493 498/498/498
f 494/494/494 498/498/498 497/497/497
f 499/499/499 493/493/493 478/478/478
f 499/499/499 498/498/498 493/493/493
f 498/498/498 499/499/499 497/497/497
f 479/479/479 499/499/499 478/478/478
f 499/499/499 500/500/500 497/497/497
f 499/499/499 479/479/479 500/500/500
f 501/501/501 497/497/497 500/500/500
f 500/500/500 479/479/479 477/477/477
f 501/501/501 500/500/500 502/502/502
f 502/502/502 500/500/500 477/477/477
f 501/501/501 502/502/502 503/503/503
f 477/477/477 504/504/504 502/502/502
f 503/503/503 502/502/502 505/505/505
f 502/502/502 504/504/504 505/505/505
