mtllib Drawer_9923a0df.mtl
g DrawerMesh_913e58d6
v -0.2135 -0.12694 -0.072
v -0.21256 -0.12694 -0.07594
v -0.21256 -0.12467 -0.072
v -0.2135 -0.12694 0.10691
v -0.21256 -0.12467 0.10691
v -0.21256 -0.12694 0.11085
v 0.21257 -0.12694 -0.07594
v 0.21351 -0.12694 -0.072
v 0.21257 -0.12467 -0.072
v 0.21257 -0.12694 0.11085
v 0.21257 -0.12467 0.10691
v 0.21351 -0.12694 0.10691
v -0.2135 -0.14214 0.10691
v -0.21256 -0.14214 0.11085
v -0.21256 -0.14441 0.10691
v -0.2135 -0.14214 -0.072
v -0.21256 -0.14441 -0.072
v -0.21256 -0.14214 -0.07594
v 0.21257 -0.14214 -0.07594
v 0.21257 -0.14441 -0.072
v 0.21351 -0.14214 -0.072
v 0.21257 -0.14214 0.11085
v 0.21351 -0.14214 0.10691
v 0.21257 -0.14441 0.10691
v 0.21257 -0.12694 -0.07594
v -0.21256 -0.12694 -0.07594
v -0.21256 -0.14214 -0.07594
v 0.21257 -0.14214 -0.07594
v -0.2135 -0.12694 -0.072
v -0.2135 -0.12694 0.10691
v -0.2135 -0.14214 0.10691
v -0.2135 -0.14214 -0.072
v 0.21351 -0.12694 0.10691
v 0.21351 -0.12694 -0.072
v 0.21351 -0.14214 -0.072
v 0.21351 -0.14214 0.10691
v -0.21256 -0.14441 -0.072
v -0.21256 -0.14441 0.10691
v 0.21257 -0.14441 0.10691
v 0.21257 -0.14441 -0.072
v -0.21256 -0.12694 0.11085
v 0.21257 -0.12694 0.11085
v 0.21257 -0.14214 0.11085
v -0.21256 -0.14214 0.11085
v -0.2135 -0.12694 0.10691
v -0.2135 -0.12694 -0.072
v -0.21256 -0.12467 -0.072
v -0.21256 -0.12467 0.10691
v 0.21257 -0.12467 -0.072
v -0.21256 -0.12467 -0.072
v -0.21256 -0.12694 -0.07594
v 0.21257 -0.12694 -0.07594
v -0.21256 -0.12467 0.10691
v 0.21257 -0.12467 0.10691
v 0.21257 -0.12694 0.11085
v -0.21256 -0.12694 0.11085
v 0.21257 -0.12467 0.10691
v 0.21257 -0.12467 -0.072
v 0.21351 -0.12694 -0.072
v 0.21351 -0.12694 0.10691
v -0.21256 -0.14441 0.10691
v -0.21256 -0.14441 -0.072
v -0.2135 -0.14214 -0.072
v -0.2135 -0.14214 0.10691
v 0.21257 -0.14214 -0.07594
v -0.21256 -0.14214 -0.07594
v -0.21256 -0.14441 -0.072
v 0.21257 -0.14441 -0.072
v -0.21256 -0.14214 0.11085
v 0.21257 -0.14214 0.11085
v 0.21257 -0.14441 0.10691
v -0.21256 -0.14441 0.10691
v 0.21351 -0.14214 0.10691
v 0.21351 -0.14214 -0.072
v 0.21257 -0.14441 -0.072
v 0.21257 -0.14441 0.10691
v 0.21351 -0.12694 0.10691
v 0.21351 -0.14214 0.10691
v 0.21257 -0.14214 0.11085
v 0.21257 -0.12694 0.11085
v -0.2135 -0.14214 0.10691
v -0.2135 -0.12694 0.10691
v -0.21256 -0.12694 0.11085
v -0.21256 -0.14214 0.11085
v -0.21256 -0.14214 -0.07594
v -0.21256 -0.12694 -0.07594
v -0.2135 -0.12694 -0.072
v -0.2135 -0.14214 -0.072
v 0.21257 -0.12694 -0.07594
v 0.21257 -0.14214 -0.07594
v 0.21351 -0.14214 -0.072
v 0.21351 -0.12694 -0.072
v -0.19554 0.16529 -0.05498
v 0.19555 0.16529 -0.05498
v 0.19555 0.16529 0.08989
v -0.19554 0.16529 0.08989
v -0.18554 -0.11467 0.08989
v -0.18554 -0.11467 -0.04667
v 0.18555 -0.11467 -0.04667
v 0.18555 -0.11467 0.08989
v -0.19554 -0.12467 -0.05498
v -0.19554 0.16529 -0.05498
v -0.19554 0.16529 0.08989
v -0.19554 -0.12467 0.08989
v 0.19555 -0.12467 -0.05498
v 0.19555 0.16529 -0.05498
v -0.19554 0.16529 -0.05498
v -0.19554 -0.12467 -0.05498
v 0.18555 -0.11467 0.08989
v 0.18555 -0.11467 -0.04667
v 0.18555 0.15529 -0.04667
v 0.18555 0.15529 0.08989
v 0.19555 -0.12467 0.08989
v 0.19555 0.16529 0.08989
v 0.19555 0.16529 -0.05498
v 0.19555 -0.12467 -0.05498
v -0.18554 -0.11467 -0.04667
v -0.18554 0.15529 -0.04667
v 0.18555 0.15529 -0.04667
v 0.18555 -0.11467 -0.04667
v -0.18554 0.15529 0.08989
v -0.18554 0.15529 -0.04667
v -0.18554 -0.11467 -0.04667
v -0.18554 -0.11467 0.08989
v 0.18555 0.15529 0.08989
v 0.18555 0.15529 -0.04667
v -0.18554 0.15529 -0.04667
v -0.18554 0.15529 0.08989
v -0.19554 -0.12467 0.08989
v -0.21256 -0.12467 0.10691
v -0.21256 -0.12467 -0.072
v -0.19554 -0.12467 -0.05498
v 0.19555 -0.12467 0.08989
v 0.21257 -0.12467 -0.072
v 0.21257 -0.12467 0.10691
v 0.19555 -0.12467 -0.05498
v -0.18554 0.15529 0.08989
v -0.19554 0.16529 0.08989
v 0.19555 0.16529 0.08989
v 0.18555 0.15529 0.08989
v -0.18554 -0.11467 0.08989
v 0.19555 -0.12467 0.08989
v -0.19554 -0.12467 0.08989
v 0.18555 -0.11467 0.08989
v -0.08951 -0.14355 0.08834
v -0.08924 -0.14241 0.08834
v -0.08924 -0.14355 0.08949
v -0.08951 -0.14355 0.08354
v -0.08924 -0.14355 0.0824
v -0.08924 -0.14241 0.08354
v 0.08925 -0.14355 0.0824
v 0.08952 -0.14355 0.08354
v 0.08925 -0.14241 0.08354
v 0.08925 -0.14355 0.08949
v 0.08925 -0.14241 0.08834
v 0.08952 -0.14355 0.08834
v -0.08924 -0.17359 0.09063
v -0.08951 -0.17473 0.08835
v -0.08924 -0.17245 0.08949
v 0.08925 -0.17359 0.09063
v 0.08925 -0.17245 0.08949
v 0.08952 -0.17473 0.08835
v -0.08951 -0.18528 0.08355
v -0.08924 -0.18642 0.08355
v -0.08924 -0.18528 0.08241
v 0.08925 -0.18528 0.08241
v 0.08925 -0.18642 0.08355
v 0.08952 -0.18528 0.08355
v 0.08925 -0.17359 0.10697
v 0.08952 -0.17473 0.10697
v 0.08925 -0.17473 0.10811
v -0.08924 -0.17359 0.10697
v -0.08924 -0.17473 0.10811
v -0.08951 -0.17473 0.10697
v 0.08925 -0.18641 0.10697
v 0.08925 -0.18527 0.10811
v 0.08952 -0.18527 0.10697
v -0.08924 -0.18641 0.10697
v -0.08951 -0.18527 0.10697
v -0.08924 -0.18527 0.10811
v -0.08924 -0.14355 0.08949
v 0.08925 -0.14355 0.08949
v 0.08925 -0.17245 0.08949
v -0.08924 -0.17245 0.08949
v 0.08952 -0.17473 0.08835
v 0.08952 -0.18527 0.10697
v 0.08952 -0.17473 0.10697
v 0.08952 -0.18528 0.08949
v 0.08952 -0.18528 0.08355
v 0.08952 -0.17359 0.08355
v 0.08952 -0.14355 0.08834
v 0.08952 -0.14355 0.08354
v -0.08951 -0.14355 0.08354
v -0.08951 -0.14355 0.08834
v -0.08951 -0.17473 0.08835
v -0.08951 -0.17359 0.08355
v -0.08951 -0.18528 0.08949
v -0.08951 -0.18528 0.08355
v -0.08951 -0.17473 0.10697
v -0.08951 -0.18527 0.10697
v 0.08925 -0.14355 0.0824
v -0.08924 -0.14355 0.0824
v -0.08924 -0.17245 0.08241
v 0.08925 -0.17245 0.08241
v -0.08924 -0.17473 0.08241
v 0.08925 -0.17473 0.08241
v -0.08924 -0.18528 0.08241
v 0.08925 -0.18528 0.08241
v -0.08924 -0.17359 0.09063
v 0.08925 -0.17359 0.09063
v 0.08925 -0.17359 0.10697
v -0.08924 -0.17359 0.10697
v 0.08925 -0.18642 0.08949
v -0.08924 -0.18641 0.10697
v 0.08925 -0.18641 0.10697
v -0.08924 -0.18642 0.08949
v -0.08924 -0.18642 0.08355
v 0.08925 -0.18642 0.08355
v -0.08924 -0.17473 0.10811
v 0.08925 -0.17473 0.10811
v 0.08925 -0.18527 0.10811
v -0.08924 -0.18527 0.10811
v -0.08924 -0.17245 0.08241
v -0.08924 -0.14355 0.0824
v -0.08951 -0.14355 0.08354
v -0.08951 -0.17359 0.08355
v -0.08924 -0.17473 0.08241
v -0.08924 -0.18528 0.08241
v -0.08951 -0.18528 0.08355
v 0.08925 -0.14355 0.0824
v 0.08952 -0.17359 0.08355
v 0.08952 -0.14355 0.08354
v 0.08925 -0.17245 0.08241
v 0.08925 -0.17473 0.08241
v 0.08952 -0.18528 0.08355
v 0.08925 -0.18528 0.08241
v -0.08951 -0.14355 0.08834
v -0.08951 -0.14355 0.08354
v -0.08924 -0.14241 0.08354
v -0.08924 -0.14241 0.08834
v -0.08924 -0.14355 0.0824
v 0.08925 -0.14355 0.0824
v 0.08925 -0.14241 0.08354
v -0.08924 -0.14241 0.08354
v 0.08925 -0.14355 0.08949
v -0.08924 -0.14355 0.08949
v -0.08924 -0.14241 0.08834
v 0.08925 -0.14241 0.08834
v 0.08952 -0.14355 0.08354
v 0.08952 -0.14355 0.08834
v 0.08925 -0.14241 0.08834
v 0.08925 -0.14241 0.08354
v 0.08925 -0.17359 0.09063
v -0.08924 -0.17359 0.09063
v -0.08924 -0.17245 0.08949
v 0.08925 -0.17245 0.08949
v 0.08952 -0.14355 0.08834
v 0.08952 -0.17473 0.08835
v 0.08925 -0.17245 0.08949
v 0.08925 -0.14355 0.08949
v -0.08951 -0.17473 0.08835
v -0.08951 -0.14355 0.08834
v -0.08924 -0.14355 0.08949
v -0.08924 -0.17245 0.08949
v -0.08924 -0.18642 0.08949
v -0.08924 -0.18642 0.08355
v -0.08951 -0.18528 0.08355
v -0.08951 -0.18528 0.08949
v -0.08924 -0.18641 0.10697
v -0.08951 -0.18527 0.10697
v -0.08924 -0.18642 0.08355
v 0.08925 -0.18642 0.08355
v 0.08925 -0.18528 0.08241
v -0.08924 -0.18528 0.08241
v 0.08925 -0.18642 0.08355
v 0.08952 -0.18528 0.08949
v 0.08952 -0.18528 0.08355
v 0.08925 -0.18642 0.08949
v 0.08952 -0.18527 0.10697
v 0.08925 -0.18641 0.10697
v 0.08925 -0.17473 0.10811
v -0.08924 -0.17473 0.10811
v -0.08924 -0.17359 0.10697
v 0.08925 -0.17359 0.10697
v 0.08925 -0.18641 0.10697
v -0.08924 -0.18641 0.10697
v -0.08924 -0.18527 0.10811
v 0.08925 -0.18527 0.10811
v 0.08925 -0.18527 0.10811
v 0.08925 -0.17473 0.10811
v 0.08952 -0.17473 0.10697
v 0.08952 -0.18527 0.10697
v -0.08951 -0.18527 0.10697
v -0.08951 -0.17473 0.10697
v -0.08924 -0.17473 0.10811
v -0.08924 -0.18527 0.10811
v -0.08924 -0.17359 0.09063
v -0.08924 -0.17359 0.10697
v -0.08951 -0.17473 0.10697
v -0.08951 -0.17473 0.08835
v 0.08952 -0.17473 0.08835
v 0.08952 -0.17473 0.10697
v 0.08925 -0.17359 0.10697
v 0.08925 -0.17359 0.09063
v -0.08924 -0.14241 0.08354
v 0.08925 -0.14241 0.08354
v 0.08925 -0.14241 0.08834
v -0.08924 -0.14241 0.08834
vn -0.9037326 0.3707147 -0.2140981
vn -0.9037326 0.3707147 -0.2140981
vn -0.9037326 0.3707147 -0.2140981
vn -0.9037255 0.3707276 0.2141055
vn -0.9037255 0.3707276 0.2141056
vn -0.9037255 0.3707276 0.2141056
vn 0.9036884 0.3708505 -0.2140492
vn 0.9036884 0.3708505 -0.2140492
vn 0.9036884 0.3708506 -0.2140492
vn 0.903733 0.3707306 0.2140689
vn 0.903733 0.3707307 0.2140689
vn 0.903733 0.3707306 0.2140688
vn -0.9037274 -0.3707284 0.2140964
vn -0.9037274 -0.3707283 0.2140964
vn -0.9037274 -0.3707284 0.2140964
vn -0.9037345 -0.3707155 -0.214089
vn -0.9037344 -0.3707155 -0.214089
vn -0.9037344 -0.3707154 -0.2140889
vn 0.9036922 -0.3708521 -0.2140308
vn 0.9036922 -0.3708521 -0.2140308
vn 0.9036922 -0.3708521 -0.2140309
vn 0.9037367 -0.3707322 0.2140505
vn 0.9037367 -0.3707322 0.2140505
vn 0.9037367 -0.3707322 0.2140505
vn 0 0 -1
vn 0 0 -1
vn 0 0 -1
vn 0 0 -1
vn -1 0 0
vn -1 0 0
vn -1 0 0
vn -1 0 0
vn 1 0 0
vn 1 0 0
vn 1 0 0
vn 1 0 0
vn 3.58915E-07 -1 0
vn 3.589151E-07 -1 0
vn 3.58915E-07 -1 0
vn 3.589151E-07 -1 0
vn 0 0 1
vn 2.115295E-07 0 1
vn 2.067174E-07 0 1
vn 0 0 1
vn -0.9251875 0.3795103 0
vn -0.9251102 0.3796986 0
vn -0.9251109 0.3796969 0
vn -0.9251882 0.3795085 0
vn -1.965393E-07 0.8660099 -0.500027
vn 0 0.8660101 -0.5000265
vn 0 0.8660101 -0.5000266
vn -1.97286E-07 0.8660099 -0.500027
vn -3.918848E-07 0.8660015 0.5000414
vn 0 0.8660015 0.5000413
vn 0 0.8660015 0.5000414
vn -3.945833E-07 0.8660015 0.5000413
vn 0.9251882 0.3795085 0
vn 0.9251882 0.3795085 0
vn 0.9251882 0.3795085 0
vn 0.9251882 0.3795085 0
vn -0.9251109 -0.3796969 0
vn -0.9251882 -0.3795085 0
vn -0.9251875 -0.3795103 0
vn -0.9251102 -0.3796986 0
vn 1.97467E-07 -0.8660316 -0.4999894
vn 2.231207E-07 -0.8660101 -0.5000265
vn 2.229447E-07 -0.8660102 -0.5000264
vn 1.97291E-07 -0.8660317 -0.4999891
vn 1.967309E-07 -0.8660017 0.500041
vn 1.149954E-07 -0.8660235 0.5000035
vn 1.155562E-07 -0.8660233 0.5000037
vn 1.972917E-07 -0.8660015 0.5000412
vn 0.9251838 -0.3795196 0
vn 0.9251838 -0.3795196 0
vn 0.9251838 -0.3795196 0
vn 0.9251838 -0.3795196 0
vn 0.9730735 0 0.2304949
vn 0.9730754 0 0.2304869
vn 0.9730751 0 0.2304885
vn 0.9730732 0 0.2304965
vn -0.9730652 0 0.2305302
vn -0.9730671 0 0.2305221
vn -0.9730667 0 0.2305237
vn -0.9730648 0 0.2305318
vn -0.9730695 0 -0.2305116
vn -0.9730671 0 -0.2305221
vn -0.9730675 0 -0.23052
vn -0.97307 0 -0.2305095
vn 0.973078 0 -0.2304763
vn 0.9730754 0 -0.2304869
vn 0.973076 0 -0.2304848
vn 0.9730784 0 -0.2304742
vn -2.926147E-07 1 -2.362766E-07
vn -2.926148E-07 1 4.309056E-07
vn -2.926148E-07 1 2.36277E-07
vn -2.926147E-07 1 -4.309059E-07
vn -2.055901E-07 1 0
vn -2.055902E-07 1 0
vn -2.0559E-07 1 0
vn -2.055899E-07 1 0
vn -1 0 1.053288E-06
vn -1 0 1.053288E-06
vn -1 0 1.053288E-06
vn -1 0 1.053289E-06
vn 1.748762E-07 0 -1
vn 0 0 -1
vn 2.556998E-07 0 -1
vn 4.305761E-07 0 -1
vn -1 0 0
vn -1 0 0
vn -1 0 0
vn -1 0 0
vn 1 0 2.106577E-06
vn 1 0 2.106581E-06
vn 1 0 2.106579E-06
vn 1 0 2.106575E-06
vn -2.922546E-07 0 1
vn -4.874008E-07 0 1
vn -1.951461E-07 0 1
vn 0 0 1
vn 1 0 0
vn 1 0 0
vn 1 0 0
vn 1 0 0
vn 3.083851E-07 -1 0
vn 3.083852E-07 -1 0
vn 3.083849E-07 -1 0
vn 3.083847E-07 -1 0
vn -1.342042E-07 1 0
vn -1.334258E-07 1 -1.664075E-07
vn -1.327908E-07 1 6.449955E-07
vn -1.339895E-07 1 7.050137E-07
vn -1.3399E-07 1 -3.09336E-06
vn -1.33425E-07 1 4.792693E-06
vn -1.327912E-07 1 -3.120892E-06
vn -1.34203E-07 1 5.046605E-06
vn 7.388967E-06 0 1
vn 6.925633E-06 0 1
vn 2.536506E-06 0 1
vn 2.50174E-06 0 1
vn -2.389794E-06 0 1
vn 1.152697E-07 0 1
vn -2.536506E-06 0 1
vn 0 0 1
vn -0.9508979 0.2189138 0.2187921
vn -0.9508979 0.2189138 0.2187921
vn -0.9508979 0.2189138 0.2187921
vn -0.9508846 0.2189427 -0.218821
vn -0.9508846 0.2189427 -0.218821
vn -0.9508846 0.2189427 -0.218821
vn 0.9509364 0.2187084 -0.2188301
vn 0.9509364 0.2187084 -0.2188301
vn 0.9509364 0.2187084 -0.2188302
vn 0.9509051 0.2189154 0.2187589
vn 0.9509051 0.2189154 0.2187589
vn 0.9509051 0.2189154 0.2187589
vn -0.9941722 0.07619886 0.07625946
vn -0.9941722 0.07619886 0.07625945
vn -0.9941722 0.07619886 0.07625946
vn 0.9941722 0.07619886 0.07625946
vn 0.9941722 0.07619886 0.07625946
vn 0.9941722 0.07619886 0.07625945
vn -0.9508676 -0.2189708 -0.2188665
vn -0.9508676 -0.2189708 -0.2188665
vn -0.9508676 -0.2189708 -0.2188665
vn 0.9509328 -0.2187076 -0.2188467
vn 0.9509328 -0.2187076 -0.2188467
vn 0.9509328 -0.2187075 -0.2188467
vn 0.9508748 0.2189725 0.2188333
vn 0.9508748 0.2189725 0.2188334
vn 0.9508748 0.2189725 0.2188334
vn -0.9509328 0.2187076 0.2188467
vn -0.9509328 0.2187076 0.2188467
vn -0.9509328 0.2187075 0.2188467
vn 0.9508748 -0.2189725 0.2188333
vn 0.9508748 -0.2189725 0.2188334
vn 0.9508748 -0.2189725 0.2188334
vn -0.9509256 -0.2187059 0.2188798
vn -0.9509256 -0.2187059 0.2188798
vn -0.9509256 -0.2187059 0.2188798
vn 0 0.0002164661 1
vn 8.161893E-07 0.0002164666 1
vn 7.327835E-07 0.0002164666 1
vn 0 0.0002164661 1
vn 1 -4.770084E-06 0
vn 1 -6.505608E-06 0
vn 1 0 0
vn 1 -1.040058E-05 0
vn 1 1.824772E-05 0
vn 1 0 0
vn 1 0 0
vn 1 0 0
vn -1 0 0
vn -1 0 0
vn -1 1.940648E-06 0
vn -1 0 0
vn -1 2.076255E-06 0
vn -1 0 0
vn -1 1.399437E-06 0
vn -1 0 0
vn 0 -0.0002164665 -1
vn 5.764718E-07 -0.000216466 -1
vn 4.796564E-07 -0.0002006121 -1
vn 0 -0.0002006144 -1
vn 0 0 -1
vn 0 0 -1
vn 0 0 -1
vn 0 0 -1
vn 0 1 -0.0003014546
vn 0 1 -0.0003014552
vn 0 1 -0.0003014551
vn 0 1 -0.0003014545
vn 4.274987E-07 -1 0.0002102589
vn 4.274002E-07 -1 0.0002817558
vn 4.275367E-07 -1 0.0002817558
vn 4.273996E-07 -1 0.0002102589
vn 4.274244E-07 -1 0
vn 4.274137E-07 -1 0
vn -7.802153E-07 0 1
vn 0 0 1
vn 0 0 1
vn -8.106671E-07 0 1
vn -0.9745184 -4.247925E-05 -0.2243076
vn -0.9745232 -5.668551E-05 -0.2242866
vn -0.9745231 -5.632871E-05 -0.2242872
vn -0.9745216 -2.884476E-05 -0.2242933
vn -0.9745309 0 -0.2242531
vn -0.9745235 0 -0.224285
vn -0.9745231 0 -0.2242871
vn 0.9745344 -4.343759E-05 -0.224238
vn 0.9745141 -3.024719E-05 -0.2243263
vn 0.9745351 -4.334349E-05 -0.2242348
vn 0.9745057 -4.604418E-05 -0.2243629
vn 0.9745287 0 -0.2242624
vn 0.9745255 0 -0.2242768
vn 0.9745252 0 -0.2242782
vn -0.9745156 0.2243197 0
vn -0.9745156 0.2243196 0
vn -0.9745156 0.2243197 0
vn -0.9745156 0.2243196 0
vn 0 0.7070065 -0.7072072
vn -3.916461E-07 0.7070485 -0.707165
vn -3.893912E-07 0.7070483 -0.7071652
vn 0 0.7070062 -0.7072074
vn 0 0.7070534 0.7071601
vn 0 0.7070955 0.707118
vn 0 0.7070953 0.7071182
vn 0 0.7070532 0.7071603
vn 0.9745213 0.2242952 0
vn 0.9745714 0.2240768 0
vn 0.9745625 0.2241162 0
vn 0.9745122 0.2243345 0
vn 0 0.7071191 0.7070944
vn 0 0.707077 0.7071366
vn 0 0.7070772 0.7071363
vn 0 0.7071193 0.7070943
vn 0.9745324 4.508916E-05 0.2242468
vn 0.9745467 4.615022E-05 0.2241844
vn 0.9745466 4.613485E-05 0.2241854
vn 0.974532 4.505881E-05 0.2242486
vn -0.974557 4.527638E-05 0.2241394
vn -0.9745299 4.78781E-05 0.224258
vn -0.9745305 4.781493E-05 0.2242551
vn -0.9745597 4.50351E-05 0.2241284
vn -0.9745524 -0.2241596 4.691791E-05
vn -0.9745461 -0.2241872 0
vn -0.9745463 -0.2241865 0
vn -0.9745504 -0.2241684 4.69219E-05
vn -0.9744916 -0.224424 6.287133E-05
vn -0.9744888 -0.2244361 6.287116E-05
vn 6.591968E-07 -0.7070907 -0.7071229
vn 2.160778E-07 -0.7070485 -0.707165
vn 2.186435E-07 -0.7070487 -0.7071648
vn 6.617628E-07 -0.7070909 -0.7071226
vn 0.9745043 -0.2243689 0
vn 0.9745507 -0.2241669 4.692214E-05
vn 0.9744982 -0.2243953 0
vn 0.9745523 -0.2241601 4.691803E-05
vn 0.9745542 -0.224152 6.287509E-05
vn 0.9745542 -0.2241519 6.287507E-05
vn 0 0.7070717 0.7071418
vn 0 0.7070723 0.7071412
vn 0 0.7070723 0.7071412
vn 0 0.7070717 0.7071418
vn 6.576989E-07 -0.707114 0.7070995
vn 0 -0.7071147 0.7070988
vn 0 -0.7071146 0.7070988
vn 6.617411E-07 -0.7071141 0.7070994
vn 0.9745321 0 0.2242478
vn 0.9745314 0 0.2242512
vn 0.9745315 0 0.224251
vn 0.9745322 0 0.2242475
vn -0.9745256 0 0.2242763
vn -0.9745314 0 0.2242512
vn -0.9745309 0 0.2242531
vn -0.9745252 0 0.2242782
vn -0.9744769 0.2244876 -5.923976E-05
vn -0.9745439 0.2241966 -6.727094E-05
vn -0.9745404 0.224212 -6.684665E-05
vn -0.9744753 0.2244947 -5.904533E-05
vn 0.9745123 0.2243339 -6.607766E-05
vn 0.9745015 0.2243813 -5.90155E-05
vn 0.9745019 0.2243793 -5.930781E-05
vn 0.9745142 0.2243257 -6.730967E-05
vn 0 1 0
vn 0 1 0
vn 0 1 0
vn 0 1 0
vt -0.132223 0.8611722
vt -0.1361997 0.8611722
vt -0.132223 0.8634682
vt 0.04840761 0.8611721
vt 0.04840761 0.8634681
vt 0.0523842 0.8611721
vt 0.05238372 0.8860905
vt 0.04840702 0.8860905
vt 0.04840702 0.8883865
vt -0.1361994 0.8860905
vt -0.132223 0.8883866
vt -0.132223 0.8860905
vt 0.04840761 0.8458276
vt 0.0523842 0.8458276
vt 0.04840761 0.8435315
vt -0.132223 0.8458276
vt -0.132223 0.8435315
vt -0.1361997 0.8458276
vt 0.05238372 0.8707459
vt 0.04840702 0.8684499
vt 0.04840702 0.8707459
vt -0.1361994 0.870746
vt -0.132223 0.870746
vt -0.132223 0.86845
vt 0.7632708 0.3061239
vt 0.3381345 0.3061242
vt 0.3381345 0.3213223
vt 0.7632708 0.3213221
vt -0.132223 0.8611722
vt 0.04840761 0.8611721
vt 0.04840761 0.8458276
vt -0.132223 0.8458276
vt -0.132223 0.8860905
vt 0.04840702 0.8860905
vt 0.04840702 0.8707459
vt -0.132223 0.870746
vt 0.337442 0.3218299
vt 0.337442 0.5013198
vt 0.7639633 0.5013196
vt 0.7639633 0.3218298
vt 0.3381347 0.5172887
vt 0.7632707 0.5172886
vt 0.7632707 0.5020905
vt 0.3381346 0.5020906
vt 0.04840761 0.8611721
vt -0.132223 0.8611722
vt -0.132223 0.8634682
vt 0.04840761 0.8634681
vt 0.7656781 0.6978296
vt 0.3357274 0.6978297
vt 0.3357274 0.7018131
vt 0.7656781 0.701813
vt 0.3357274 0.5168965
vt 0.7656781 0.5168964
vt 0.7656781 0.5129132
vt 0.3357273 0.5129133
vt -0.132223 0.8883866
vt 0.04840702 0.8883865
vt 0.04840702 0.8860905
vt -0.132223 0.8860905
vt 0.04840761 0.8435315
vt -0.132223 0.8435315
vt -0.132223 0.8458276
vt 0.04840761 0.8458276
vt 0.7639633 0.3178782
vt 0.337442 0.3178782
vt 0.337442 0.3218299
vt 0.7639633 0.3218298
vt 0.337442 0.5052712
vt 0.7639633 0.5052711
vt 0.7639633 0.5013196
vt 0.337442 0.5013198
vt -0.132223 0.870746
vt 0.04840702 0.8707459
vt 0.04840702 0.8684499
vt -0.132223 0.86845
vt -0.132223 0.8860905
vt -0.132223 0.870746
vt -0.1361994 0.870746
vt -0.1361994 0.8860905
vt 0.04840761 0.8458276
vt 0.04840761 0.8611721
vt 0.0523842 0.8611721
vt 0.0523842 0.8458276
vt -0.1361997 0.8458276
vt -0.1361997 0.8611722
vt -0.132223 0.8611722
vt -0.132223 0.8458276
vt 0.05238372 0.8860905
vt 0.05238372 0.8707459
vt 0.04840702 0.8707459
vt 0.04840702 0.8860905
vt 0.3706459 0.8369294
vt 0.7617437 0.8369293
vt 0.7617435 0.6920612
vt 0.3706461 0.6920612
vt -0.0008842349 0.4352113
vt -0.0008842349 0.5717672
vt 0.3702131 0.5717671
vt 0.370213 0.4352113
vt 0.02512935 0.4393162
vt -0.2648283 0.4393163
vt -0.2648283 0.5841844
vt 0.02512935 0.5841843
vt 0.7617437 1.114341
vt 0.7617437 0.8243835
vt 0.3706458 0.8243837
vt 0.3706459 1.114341
vt 0.02423209 0.7150768
vt 0.02423206 0.5785211
vt -0.2457256 0.5785211
vt -0.2457256 0.7150768
vt 0.02512935 0.3003063
vt -0.2648285 0.3003065
vt -0.2648285 0.4451745
vt 0.02512935 0.4451745
vt 0.03009969 0.689037
vt 0.03009972 0.9589949
vt 0.4011973 0.9589949
vt 0.4011973 0.6890369
vt -0.2147415 0.7084535
vt -0.2147415 0.8450092
vt 0.05521601 0.8450092
vt 0.05521601 0.7084535
vt 0.3702131 0.7016726
vt 0.3702131 0.5651168
vt -0.0008842349 0.5651168
vt -0.0008842349 0.7016726
vt 0.3529396 0.5341089
vt 0.3357274 0.5168965
vt 0.3357274 0.6978297
vt 0.3529395 0.6806175
vt 0.7484661 0.5341088
vt 0.7656781 0.6978296
vt 0.7656781 0.5168964
vt 0.7484663 0.6806175
vt 0.02099702 1.219434
vt 0.01099715 1.229434
vt 0.4020946 1.229434
vt 0.3920946 1.219434
vt 0.02099702 0.9494766
vt 0.4020945 0.9394765
vt 0.01099712 0.9394766
vt 0.3920946 0.9494765
vt 0.6962446 0.7448512
vt 0.6962446 0.7459978
vt 0.6973912 0.7448512
vt 0.6914241 0.7448512
vt 0.6902775 0.7448512
vt 0.6914241 0.7459978
vt 0.7196162 0.7448547
vt 0.7184693 0.7448547
vt 0.7184693 0.7460016
vt 0.7125003 0.7448547
vt 0.7136472 0.7460016
vt 0.7136472 0.7448547
vt 0.6985379 0.7329601
vt 0.6962446 0.7318134
vt 0.6973912 0.7341068
vt 0.7113532 0.7329601
vt 0.7125003 0.7341071
vt 0.7136472 0.7318131
vt 0.6914241 0.7212246
vt 0.6914241 0.720078
vt 0.6902775 0.7212246
vt 0.7196162 0.7212212
vt 0.7184693 0.7200743
vt 0.7184693 0.7212212
vt 0.7092216 0.7329601
vt 0.7092216 0.7318131
vt 0.7080747 0.7318131
vt 0.700669 0.7329601
vt 0.7018156 0.7318134
vt 0.700669 0.7318134
vt 0.7092216 0.7200743
vt 0.7080747 0.7212212
vt 0.7092216 0.7212212
vt 0.700669 0.720078
vt 0.700669 0.7212246
vt 0.7018156 0.7212246
vt 0.5995823 0.8735746
vt 0.5995824 0.6950768
vt 0.5888828 0.6950768
vt 0.5888828 0.8735746
vt 0.7136472 0.7318131
vt 0.7092216 0.7212212
vt 0.7092216 0.7318131
vt 0.7125003 0.7212212
vt 0.7184693 0.7212212
vt 0.7184693 0.7329601
vt 0.7136472 0.7448547
vt 0.7184693 0.7448547
vt 0.6914241 0.7448512
vt 0.6962446 0.7448512
vt 0.6962446 0.7318134
vt 0.6914241 0.7329601
vt 0.6973912 0.7212246
vt 0.6914241 0.7212246
vt 0.700669 0.7318134
vt 0.700669 0.7212246
vt 0.6043262 0.6950762
vt 0.6043264 0.8735752
vt 0.615026 0.8735752
vt 0.615026 0.6950762
vt 0.6173098 0.8735752
vt 0.6173098 0.6950762
vt 0.6278546 0.8735752
vt 0.6278545 0.6950762
vt 0.6370349 0.8826892
vt 0.6370349 0.6859621
vt 0.6346961 0.6859621
vt 0.6346961 0.8826892
vt 0.6511624 0.7096804
vt 0.6545581 0.8953817
vt 0.6545581 0.7096804
vt 0.6511624 0.8953817
vt 0.6449801 0.8953817
vt 0.6449801 0.7096804
vt 0.6724103 0.8917803
vt 0.6724103 0.7132819
vt 0.6618656 0.7132819
vt 0.6618655 0.8917803
vt 0.6902775 0.7341068
vt 0.6902775 0.7448512
vt 0.6914241 0.7448512
vt 0.6914241 0.7329601
vt 0.6902775 0.7318134
vt 0.6902775 0.7212246
vt 0.6914241 0.7212246
vt 0.7196162 0.7448547
vt 0.7184693 0.7329601
vt 0.7184693 0.7448547
vt 0.7196162 0.7341071
vt 0.7196162 0.7318131
vt 0.7184693 0.7212212
vt 0.7196162 0.7212212
vt 0.6962446 0.7448512
vt 0.6914241 0.7448512
vt 0.6914241 0.7459978
vt 0.6962446 0.7459978
vt 0.6853531 0.8975534
vt 0.6853531 0.7075085
vt 0.6841374 0.7075085
vt 0.6841374 0.8975534
vt 0.6778105 0.7075085
vt 0.6778105 0.8975534
vt 0.6790262 0.8975534
vt 0.6790262 0.7075085
vt 0.7184693 0.7448547
vt 0.7136472 0.7448547
vt 0.7136472 0.7460016
vt 0.7184693 0.7460016
vt 0.6370349 0.6859621
vt 0.6370349 0.8826892
vt 0.6382936 0.8826892
vt 0.6382936 0.6859621
vt 0.7136472 0.7448547
vt 0.7136472 0.7318131
vt 0.7125003 0.7341071
vt 0.7125003 0.7448547
vt 0.6962446 0.7318134
vt 0.6962446 0.7448512
vt 0.6973912 0.7448512
vt 0.6973912 0.7341068
vt 0.6973912 0.720078
vt 0.6914241 0.720078
vt 0.6914241 0.7212246
vt 0.6973912 0.7212246
vt 0.700669 0.720078
vt 0.700669 0.7212246
vt 0.6449801 0.8953817
vt 0.6449801 0.7096804
vt 0.6437922 0.7096804
vt 0.6437922 0.8953817
vt 0.7184693 0.7200743
vt 0.7125003 0.7212212
vt 0.7184693 0.7212212
vt 0.7125003 0.7200743
vt 0.7092216 0.7212212
vt 0.7092216 0.7200743
vt 0.6334376 0.6859621
vt 0.6334376 0.8826892
vt 0.6346961 0.8826892
vt 0.6346961 0.6859621
vt 0.6545581 0.7096804
vt 0.6545581 0.8953817
vt 0.6557459 0.8953817
vt 0.6557459 0.7096804
vt 0.7080747 0.7212212
vt 0.7080747 0.7318131
vt 0.7092216 0.7318131
vt 0.7092216 0.7212212
vt 0.700669 0.7212246
vt 0.700669 0.7318134
vt 0.7018156 0.7318134
vt 0.7018156 0.7212246
vt 0.6985379 0.7329601
vt 0.700669 0.7329601
vt 0.700669 0.7318134
vt 0.6962446 0.7318134
vt 0.7136472 0.7318131
vt 0.7092216 0.7318131
vt 0.7092216 0.7329601
vt 0.7113532 0.7329601
vt 0.6841374 0.8975534
vt 0.6841374 0.7075085
vt 0.6790262 0.7075085
vt 0.6790262 0.8975534
usemtl LightWoodCounters3
f 3/3/3 2/2/2 1/1/1
f 6/6/6 5/5/5 4/4/4
f 9/9/9 8/8/8 7/7/7
f 12/12/12 11/11/11 10/10/10
f 15/15/15 14/14/14 13/13/13
f 18/18/18 17/17/17 16/16/16
f 21/21/21 20/20/20 19/19/19
f 24/24/24 23/23/23 22/22/22
f 27/27/27 26/26/26 25/25/25
f 28/28/28 27/27/27 25/25/25
f 31/31/31 30/30/30 29/29/29
f 32/32/32 31/31/31 29/29/29
f 35/35/35 34/34/34 33/33/33
f 36/36/36 35/35/35 33/33/33
f 39/39/39 38/38/38 37/37/37
f 40/40/40 39/39/39 37/37/37
f 43/43/43 42/42/42 41/41/41
f 44/44/44 43/43/43 41/41/41
f 47/47/47 46/46/46 45/45/45
f 48/48/48 47/47/47 45/45/45
f 51/51/51 50/50/50 49/49/49
f 52/52/52 51/51/51 49/49/49
f 55/55/55 54/54/54 53/53/53
f 56/56/56 55/55/55 53/53/53
f 59/59/59 58/58/58 57/57/57
f 60/60/60 59/59/59 57/57/57
f 63/63/63 62/62/62 61/61/61
f 64/64/64 63/63/63 61/61/61
f 67/67/67 66/66/66 65/65/65
f 68/68/68 67/67/67 65/65/65
f 71/71/71 70/70/70 69/69/69
f 72/72/72 71/71/71 69/69/69
f 75/75/75 74/74/74 73/73/73
f 76/76/76 75/75/75 73/73/73
f 79/79/79 78/78/78 77/77/77
f 80/80/80 79/79/79 77/77/77
f 83/83/83 82/82/82 81/81/81
f 84/84/84 83/83/83 81/81/81
f 87/87/87 86/86/86 85/85/85
f 88/88/88 87/87/87 85/85/85
f 91/91/91 90/90/90 89/89/89
f 92/92/92 91/91/91 89/89/89
f 95/95/95 94/94/94 93/93/93
f 96/96/96 95/95/95 93/93/93
f 99/99/99 98/98/98 97/97/97
f 100/100/100 99/99/99 97/97/97
f 103/103/103 102/102/102 101/101/101
f 104/104/104 103/103/103 101/101/101
f 107/107/107 106/106/106 105/105/105
f 108/108/108 107/107/107 105/105/105
f 111/111/111 110/110/110 109/109/109
f 112/112/112 111/111/111 109/109/109
f 115/115/115 114/114/114 113/113/113
f 116/116/116 115/115/115 113/113/113
f 119/119/119 118/118/118 117/117/117
f 120/120/120 119/119/119 117/117/117
f 123/123/123 122/122/122 121/121/121
f 124/124/124 123/123/123 121/121/121
f 127/127/127 126/126/126 125/125/125
f 128/128/128 127/127/127 125/125/125
f 131/131/131 130/130/130 129/129/129
f 132/132/132 131/131/131 129/129/129
f 129/129/129 130/130/130 133/133/133
f 134/134/134 131/131/131 132/132/132
f 130/130/130 135/135/135 133/133/133
f 136/136/136 134/134/134 132/132/132
f 133/133/133 135/135/135 136/136/136
f 135/135/135 134/134/134 136/136/136
f 139/139/139 138/138/138 137/137/137
f 140/140/140 139/139/139 137/137/137
f 137/137/137 138/138/138 141/141/141
f 142/142/142 139/139/139 140/140/140
f 138/138/138 143/143/143 141/141/141
f 144/144/144 142/142/142 140/140/140
f 141/141/141 143/143/143 144/144/144
f 143/143/143 142/142/142 144/144/144
usemtl LightWoodCounters2
f 147/147/147 146/146/146 145/145/145
f 150/150/150 149/149/149 148/148/148
f 153/153/153 152/152/152 151/151/151
f 156/156/156 155/155/155 154/154/154
f 159/159/159 158/158/158 157/157/157
f 162/162/162 161/161/161 160/160/160
f 165/165/165 164/164/164 163/163/163
f 168/168/168 167/167/167 166/166/166
f 171/171/171 170/170/170 169/169/169
f 174/174/174 173/173/173 172/172/172
f 177/177/177 176/176/176 175/175/175
f 180/180/180 179/179/179 178/178/178
f 183/183/183 182/182/182 181/181/181
f 184/184/184 183/183/183 181/181/181
f 187/187/187 186/186/186 185/185/185
f 186/186/186 188/188/188 185/185/185
f 188/188/188 189/189/189 185/185/185
f 189/189/189 190/190/190 185/185/185
f 185/185/185 190/190/190 191/191/191
f 190/190/190 192/192/192 191/191/191
f 195/195/195 194/194/194 193/193/193
f 196/196/196 195/195/195 193/193/193
f 197/197/197 195/195/195 196/196/196
f 198/198/198 197/197/197 196/196/196
f 199/199/199 195/195/195 197/197/197
f 200/200/200 199/199/199 197/197/197
f 203/203/203 202/202/202 201/201/201
f 204/204/204 203/203/203 201/201/201
f 203/203/203 204/204/204 205/205/205
f 204/204/204 206/206/206 205/205/205
f 207/207/207 205/205/205 206/206/206
f 208/208/208 207/207/207 206/206/206
f 211/211/211 210/210/210 209/209/209
f 212/212/212 211/211/211 209/209/209
f 215/215/215 214/214/214 213/213/213
f 214/214/214 216/216/216 213/213/213
f 213/213/213 216/216/216 217/217/217
f 218/218/218 213/213/213 217/217/217
f 221/221/221 220/220/220 219/219/219
f 222/222/222 221/221/221 219/219/219
f 225/225/225 224/224/224 223/223/223
f 226/226/226 225/225/225 223/223/223
f 226/226/226 223/223/223 227/227/227
f 227/227/227 228/228/228 226/226/226
f 228/228/228 229/229/229 226/226/226
f 232/232/232 231/231/231 230/230/230
f 231/231/231 233/233/233 230/230/230
f 233/233/233 231/231/231 234/234/234
f 231/231/231 235/235/235 234/234/234
f 235/235/235 236/236/236 234/234/234
f 239/239/239 238/238/238 237/237/237
f 240/240/240 239/239/239 237/237/237
f 243/243/243 242/242/242 241/241/241
f 244/244/244 243/243/243 241/241/241
f 247/247/247 246/246/246 245/245/245
f 248/248/248 247/247/247 245/245/245
f 251/251/251 250/250/250 249/249/249
f 252/252/252 251/251/251 249/249/249
f 255/255/255 254/254/254 253/253/253
f 256/256/256 255/255/255 253/253/253
f 259/259/259 258/258/258 257/257/257
f 260/260/260 259/259/259 257/257/257
f 263/263/263 262/262/262 261/261/261
f 264/264/264 263/263/263 261/261/261
f 267/267/267 266/266/266 265/265/265
f 268/268/268 267/267/267 265/265/265
f 265/265/265 269/269/269 268/268/268
f 269/269/269 270/270/270 268/268/268
f 273/273/273 272/272/272 271/271/271
f 274/274/274 273/273/273 271/271/271
f 277/277/277 276/276/276 275/275/275
f 276/276/276 278/278/278 275/275/275
f 278/278/278 276/276/276 279/279/279
f 280/280/280 278/278/278 279/279/279
f 283/283/283 282/282/282 281/281/281
f 284/284/284 283/283/283 281/281/281
f 287/287/287 286/286/286 285/285/285
f 288/288/288 287/287/287 285/285/285
f 291/291/291 290/290/290 289/289/289
f 292/292/292 291/291/291 289/289/289
f 295/295/295 294/294/294 293/293/293
f 296/296/296 295/295/295 293/293/293
f 299/299/299 298/298/298 297/297/297
f 300/300/300 299/299/299 297/297/297
f 303/303/303 302/302/302 301/301/301
f 304/304/304 303/303/303 301/301/301
f 307/307/307 306/306/306 305/305/305
f 308/308/308 307/307/307 305/305/305
