mtllib material.mtl
usemtl material_0
v 0.02993011 0.01010462 -0.02329615
v 0.03293723 -0.00288230 -0.02417552
v 0.03552321 -0.00209832 -0.01500374
v 0.03158789 0.01103067 -0.01490835
v 0.02148020 0.02321089 -0.02195564
v 0.03719621 -0.00136954 -0.00600035
v 0.02268609 0.02486246 -0.01460970
v 0.00908433 0.03153681 -0.02167073
v 0.03318348 0.01218573 -0.00662631
v 0.00982998 0.03372186 -0.01445140
v -0.00199083 0.03202823 -0.02276454
v -0.00218181 0.03523309 -0.01481405
v 0.03557703 0.01017538 0.00260730
v 0.03799096 0.00120696 0.00371723
v 0.02458614 0.02769882 0.00174038
v 0.02386059 0.02660709 -0.00678793
v 0.01079514 0.03626204 -0.00671742
v -0.00196317 0.03832063 -0.00676025
v 0.01143035 0.03775642 0.00175271
v -0.00150170 0.04020256 0.00183553
v -0.00084947 0.03888067 0.01060353
v -0.01402813 0.03536254 0.00178880
v -0.00150170 0.04020256 0.00183553
v -0.01282700 0.03443901 0.01066447
v -0.00021567 0.03439220 0.01921976
v -0.02599610 0.02497903 0.00195981
v -0.01115701 0.03230534 0.01929919
v -0.00024255 0.03233354 0.02921373
v -0.01044456 0.03088167 0.02868418
v -0.02471583 0.02453928 0.01116048
v -0.03492445 0.01235242 0.00248216
v -0.02212004 0.02378063 0.02030005
v -0.01985661 0.02475677 0.02873864
v -0.03347978 0.01201156 0.01272632
v -0.03056924 0.01160449 0.02293091
v -0.02806952 0.01293990 0.03311132
v -0.03049667 -0.00041113 0.03776221
v -0.03385809 -0.00065969 0.02623287
v -0.03664991 -0.00013130 0.01478865
v -0.03836150 0.00030395 0.00343601
v 0.01277002 -0.03747706 0.00962135
v 0.00537866 -0.03902755 -0.00203677
v 0.00420805 -0.03858713 0.00984585
v 0.01359842 -0.03898702 -0.00196049
v 0.02080579 -0.03373658 0.00889122
v 0.00647087 -0.03864837 -0.01264369
v 0.02151150 -0.03592702 -0.00217717
v 0.02794294 -0.02789479 0.00776006
v 0.01395710 -0.03880439 -0.01230078
v 0.02874400 -0.02979099 -0.00285712
v 0.03366710 -0.02054341 0.00647562
v 0.01405860 -0.03717091 -0.02147821
v 0.00741314 -0.03696023 -0.02217722
v 0.02040434 -0.03518799 -0.02065136
v 0.02131192 -0.03617327 -0.01221686
v 0.02601945 -0.03015666 -0.02183811
v 0.03411699 -0.02163655 -0.00391044
v 0.03740517 -0.01183340 0.00523708
v 0.02829823 -0.03037061 -0.01266318
v 0.03309596 -0.02228264 -0.01361281
v 0.03027526 -0.02240419 -0.02294821
v 0.03709092 -0.01251261 -0.00506820
v 0.03560801 -0.01298297 -0.01444331
v 0.03246158 -0.01348412 -0.02388639
v 0.03293723 -0.00288230 -0.02417552
v 0.03552321 -0.00209832 -0.01500374
v 0.03719621 -0.00136954 -0.00600035
v 0.03799096 0.00120696 0.00371723
v 0.00320009 -0.03805546 0.02315353
v 0.01277002 -0.03747706 0.00962135
v 0.00420805 -0.03858713 0.00984585
v 0.01153741 -0.03644949 0.02277670
v 0.00225952 -0.03859924 0.03676841
v 0.02001544 -0.03315285 0.02203311
v 0.02080579 -0.03373658 0.00889122
v 0.01031517 -0.03660285 0.03640831
v 0.00136395 -0.03748186 0.04916789
v 0.00843389 -0.03550135 0.04892573
v 0.01459937 -0.03244001 0.04862489
v 0.01848047 -0.03292692 0.03567598
v 0.02153251 -0.02639936 0.04777023
v 0.02520840 -0.02691813 0.03458418
v 0.02623652 -0.01914230 0.04654426
v 0.02738229 -0.02719874 0.02051946
v 0.02794294 -0.02789479 0.00776006
v 0.03025470 -0.01919508 0.03250949
v 0.02888914 -0.01017025 0.04387113
v 0.03285171 -0.01993397 0.01912154
v 0.03366710 -0.02054341 0.00647562
v 0.03229910 -0.01052821 0.03012972
v 0.02871322 0.00067752 0.03983888
v 0.03073151 -0.00022834 0.02669897
v 0.03605204 -0.01109074 0.01716286
v 0.03740517 -0.01183340 0.00523708
v 0.03620759 -0.00026828 0.01512363
v 0.03799096 0.00120696 0.00371723
v -0.00026890 -0.03364952 0.05830333
v 0.00136395 -0.03748186 0.04916789
v -0.00577133 -0.03720181 0.04770172
v -0.00669233 -0.03386847 0.05562144
v -0.00929620 -0.02855860 0.06072303
v -0.00155253 -0.02784444 0.06440450
v -0.01162280 -0.03257260 0.05231655
v -0.01280939 -0.03403989 0.04504148
v -0.01956129 -0.02871750 0.04482607
v -0.01573384 -0.02824139 0.05354755
v -0.01221943 -0.02101380 0.06204392
v -0.00257705 -0.02038736 0.06655645
v -0.01976008 -0.02093618 0.05387511
v -0.02569358 -0.02103794 0.04390252
v -0.02925286 -0.01166786 0.04139426
v -0.01420886 -0.01136768 0.05981465
v -0.00294196 -0.01088422 0.06484091
v -0.00270916 0.00138926 0.05840748
v -0.01456919 0.00077335 0.05423283
v -0.02258034 -0.01158110 0.05153730
v -0.02415843 0.00011010 0.04749660
v -0.03049667 -0.00041113 0.03776221
v 0.03620759 -0.00026828 0.01512363
v 0.03557703 0.01017538 0.00260730
v 0.03799096 0.00120696 0.00371723
v 0.03236689 0.01341315 0.01270108
v 0.02458614 0.02769882 0.00174038
v 0.02756246 0.01215956 0.02309786
v 0.03073151 -0.00022834 0.02669897
v 0.02365216 0.02677483 0.01101539
v 0.01143035 0.03775642 0.00175271
v 0.02512188 0.01321380 0.03514223
v 0.02871322 0.00067752 0.03983888
v 0.01782954 0.02396635 0.03043600
v 0.02011519 0.02457306 0.02105141
v 0.01026149 0.03218383 0.01966830
v 0.00925492 0.02961889 0.02983291
v -0.00024255 0.03233354 0.02921373
v -0.00021567 0.03439220 0.01921976
v -0.00084947 0.03888067 0.01060353
v 0.01131125 0.03638940 0.01077526
v -0.00150170 0.04020256 0.00183553
v 0.02435729 0.00159962 0.05258279
v 0.02512188 0.01321380 0.03514223
v 0.02871322 0.00067752 0.03983888
v 0.02110776 0.01544575 0.04484301
v 0.01144868 0.00172767 0.05912107
v 0.01782954 0.02396635 0.03043600
v 0.01042915 0.01572275 0.04990149
v -0.00270916 0.00138926 0.05840748
v -0.00187775 0.01489632 0.04953870
v -0.00098143 0.02816386 0.03969246
v 0.01686602 0.02320457 0.03943510
v 0.00873634 0.02681743 0.04012050
v -0.00024255 0.03233354 0.02921373
v 0.00925492 0.02961889 0.02983291
v 0.02435729 0.00159962 0.05258279
v 0.02871322 0.00067752 0.03983888
v 0.02888914 -0.01017025 0.04387113
v 0.02322561 -0.01057394 0.05759579
v 0.01144868 0.00172767 0.05912107
v 0.02623652 -0.01914230 0.04654426
v 0.01069787 -0.01058841 0.06496304
v -0.00270916 0.00138926 0.05840748
v -0.00294196 -0.01088422 0.06484091
v 0.01959481 -0.01963253 0.05967990
v 0.02153251 -0.02639936 0.04777023
v 0.00887422 -0.01978781 0.06618213
v -0.00257705 -0.02038736 0.06655645
v 0.01456699 -0.02663998 0.05923171
v 0.01459937 -0.03244001 0.04862489
v 0.00692088 -0.02680758 0.06386817
v -0.00155253 -0.02784444 0.06440450
v 0.00588537 -0.03207852 0.05852252
v -0.00026890 -0.03364952 0.05830333
v 0.00136395 -0.03748186 0.04916789
v 0.00843389 -0.03550135 0.04892573
v 0.01248854 -0.03035084 0.05622621
v -0.01402813 0.03536254 0.00178880
v -0.00196317 0.03832063 -0.00676025
v -0.00150170 0.04020256 0.00183553
v -0.01408224 0.03381793 -0.00700371
v -0.02599610 0.02497903 0.00195981
v -0.01311589 0.03129304 -0.01578088
v -0.00218181 0.03523309 -0.01481405
v -0.02503579 0.02391608 -0.00730789
v -0.03492445 0.01235242 0.00248216
v -0.00985376 0.02856631 -0.02462764
v -0.00199083 0.03202823 -0.02276454
v -0.01722629 0.02156977 -0.02728302
v -0.02186515 0.02263039 -0.01718123
v -0.03264775 0.01227125 -0.00762046
v -0.03836150 0.00030395 0.00343601
v -0.03585900 0.00055412 -0.00738641
v -0.02785479 0.01166177 -0.01819880
v -0.02146178 0.01150573 -0.02985530
v -0.02960598 0.00054083 -0.01864065
v -0.02168830 0.00011412 -0.03000472
v 0.02843393 -0.00368248 -0.03328786
v 0.03246158 -0.01348412 -0.02388639
v 0.03293723 -0.00288230 -0.02417552
v 0.02755672 -0.01403984 -0.03309707
v 0.02149783 -0.01476002 -0.04140708
v 0.02257047 -0.00429782 -0.04199159
v 0.02562138 -0.02265869 -0.03162818
v 0.03027526 -0.02240419 -0.02294821
v 0.01317132 -0.01504131 -0.04723254
v 0.01393198 -0.00426057 -0.04850587
v 0.01184848 -0.02311198 -0.04338387
v 0.01966822 -0.02316627 -0.03895387
v 0.01710151 -0.02990204 -0.03488109
v 0.01020145 -0.02940548 -0.03765385
v 0.00860041 -0.03384412 -0.03072267
v 0.02245595 -0.02983876 -0.02926213
v 0.02601945 -0.03015666 -0.02183811
v 0.02040434 -0.03518799 -0.02065136
v 0.01921857 -0.03362554 -0.02694363
v 0.01405860 -0.03717091 -0.02147821
v 0.01467583 -0.03444942 -0.02884655
v 0.00741314 -0.03696023 -0.02217722
v -0.03526199 -0.01044668 0.00547870
v -0.03585900 0.00055412 -0.00738641
v -0.03836150 0.00030395 0.00343601
v -0.03329246 -0.00991022 -0.00604056
v -0.02943593 -0.01976624 0.00701244
v -0.02960598 0.00054083 -0.01864065
v -0.02800406 -0.01929268 -0.00462387
v -0.02185935 -0.02883474 0.00849665
v -0.02777381 -0.00952048 -0.01755116
v -0.02168830 0.00011412 -0.03000472
v -0.02003970 -0.00989542 -0.02884862
v -0.02373127 -0.01846095 -0.01602145
v -0.01734492 -0.01822620 -0.02693340
v -0.02102162 -0.02823067 -0.00334127
v -0.01325399 -0.03576761 0.00959189
v -0.01772817 -0.02634860 -0.01450464
v -0.01281320 -0.02568398 -0.02480372
v -0.00684384 -0.03099565 -0.02302867
v -0.00983592 -0.03195809 -0.01325209
v 0.00015239 -0.03471475 -0.02258290
v -0.01207609 -0.03448566 -0.00259396
v -0.00431905 -0.03879842 0.01001127
v -0.00306816 -0.03746452 -0.00223792
v 0.00420805 -0.03858713 0.00984585
v 0.00537866 -0.03902755 -0.00203677
v 0.00647087 -0.03864837 -0.01264369
v -0.00154146 -0.03590800 -0.01283492
v 0.00741314 -0.03696023 -0.02217722
v 0.00015239 -0.03471475 -0.02258290
v 0.00741314 -0.03696023 -0.02217722
v 0.00860041 -0.03384412 -0.03072267
v 0.00192866 -0.03215417 -0.03089561
v -0.00684384 -0.03099565 -0.02302867
v 0.00199314 -0.02769529 -0.03729119
v 0.01020145 -0.02940548 -0.03765385
v 0.01184848 -0.02311198 -0.04338387
v -0.00412622 -0.03000769 -0.02952502
v -0.01281320 -0.02568398 -0.02480372
v -0.00637529 -0.02609104 -0.03317766
v 0.00177122 -0.02137411 -0.04242948
v 0.01317132 -0.01504131 -0.04723254
v -0.00881454 -0.01961921 -0.03676294
v -0.01734492 -0.01822620 -0.02693340
v 0.00162099 -0.01320662 -0.04597471
v 0.01393198 -0.00426057 -0.04850587
v 0.00180477 -0.00297960 -0.04746690
v -0.01128610 -0.00113470 -0.04070142
v -0.01039439 -0.01127326 -0.03931685
v -0.02003970 -0.00989542 -0.02884862
v -0.02168830 0.00011412 -0.03000472
v -0.03049667 -0.00041113 0.03776221
v -0.02925286 -0.01166786 0.04139426
v -0.03259683 -0.01133577 0.02912978
v -0.03385809 -0.00065969 0.02623287
v -0.02569358 -0.02103794 0.04390252
v -0.03446576 -0.01089317 0.01698587
v -0.03664991 -0.00013130 0.01478865
v -0.03836150 0.00030395 0.00343601
v -0.03526199 -0.01044668 0.00547870
v -0.02859785 -0.02080645 0.03163486
v -0.01956129 -0.02871750 0.04482607
v -0.02932887 -0.02027705 0.01899075
v -0.02943593 -0.01976624 0.00701244
v -0.02173295 -0.02913983 0.03363627
v -0.01280939 -0.03403989 0.04504148
v -0.02215727 -0.02914862 0.02094787
v -0.02185935 -0.02883474 0.00849665
v -0.01325399 -0.03576761 0.00959189
v -0.01375322 -0.03634065 0.02280377
v -0.00431905 -0.03879842 0.01001127
v -0.01363441 -0.03559047 0.03521529
v -0.00577133 -0.03720181 0.04770172
v -0.00549387 -0.03899688 0.03666470
v 0.00136395 -0.03748186 0.04916789
v 0.00225952 -0.03859924 0.03676841
v 0.00320009 -0.03805546 0.02315353
v -0.00520438 -0.03945226 0.02356571
v 0.00420805 -0.03858713 0.00984585
v -0.02806952 0.01293990 0.03311132
v -0.01985661 0.02475677 0.02873864
v -0.01849462 0.02329072 0.03644711
v -0.01044456 0.03088167 0.02868418
v -0.02271722 0.01452235 0.04139691
v -0.03049667 -0.00041113 0.03776221
v -0.02415843 0.00011010 0.04749660
v -0.01049757 0.02739025 0.03753177
v -0.00024255 0.03233354 0.02921373
v -0.00098143 0.02816386 0.03969246
v -0.01343913 0.01522114 0.04699061
v -0.01456919 0.00077335 0.05423283
v -0.00187775 0.01489632 0.04953870
v -0.00270916 0.00138926 0.05840748
v 0.02671923 0.00886301 -0.03145269
v 0.02843393 -0.00368248 -0.03328786
v 0.03293723 -0.00288230 -0.02417552
v 0.02993011 0.01010462 -0.02329615
v 0.02178167 0.00800237 -0.03904220
v 0.02257047 -0.00429782 -0.04199159
v 0.01393198 -0.00426057 -0.04850587
v 0.01954877 0.02132010 -0.02859936
v 0.02148020 0.02321089 -0.02195564
v 0.01606305 0.01895481 -0.03521522
v 0.01389615 0.00791822 -0.04493508
v 0.00180477 -0.00297960 -0.04746690
v 0.00839290 0.02802314 -0.02861477
v 0.00908433 0.03153681 -0.02167073
v 0.01293266 0.01547504 -0.04033729
v 0.00229897 0.00870509 -0.04552615
v -0.01128610 -0.00113470 -0.04070142
v 0.00656690 0.02430287 -0.03388871
v 0.00341874 0.01852464 -0.03951903
v -0.01065827 0.01026022 -0.03985596
v -0.02168830 0.00011412 -0.03000472
v -0.02146178 0.01150573 -0.02985530
v -0.00778383 0.01965537 -0.03580213
v -0.01722629 0.02156977 -0.02728302
v -0.00985376 0.02856631 -0.02462764
v -0.00423044 0.02588465 -0.03133794
v -0.00020394 0.02961613 -0.02732559
v -0.00199083 0.03202823 -0.02276454
vn 0.86312500 0.38885650 -0.32218940
vn 0.92805890 0.10248210 -0.35805620
vn 0.96313390 0.13588320 -0.23218280
vn 0.88210260 0.40859260 -0.23440770
vn 0.67676640 0.66231670 -0.32144020
vn 0.98243330 0.11715360 -0.14525820
vn 0.69872200 0.66476790 -0.26433200
vn 0.34550170 0.86621480 -0.36097180
vn 0.88293900 0.43449080 -0.17786630
vn 0.36583660 0.87447140 -0.31853340
vn -0.10267070 0.90676310 -0.40894910
vn -0.09840337 0.93314710 -0.34576460
vn 0.91257120 0.40876560 0.01116207
vn 0.98919120 0.14154660 0.03827694
vn 0.74484620 0.66719390 -0.00751670
vn 0.72279670 0.66139300 -0.20031010
vn 0.39789780 0.88276590 -0.24980350
vn -0.09649432 0.96103560 -0.25903560
vn 0.42739350 0.90381660 -0.02122144
vn -0.09094220 0.99568840 -0.01827987
vn -0.06115603 0.95843650 0.27867430
vn -0.52451310 0.85140000 -0.00200496
vn -0.09094220 0.99568840 -0.01827987
vn -0.48538060 0.84301060 0.23181630
vn -0.00332709 0.94574700 0.32488720
vn -0.74538790 0.66660740 -0.00563004
vn -0.41994260 0.87295340 0.24819460
vn 0.02637397 0.96093620 0.27551030
vn -0.34885100 0.90761300 0.23354140
vn -0.71604080 0.66903550 0.19919100
vn -0.90270770 0.42961820 -0.02338709
vn -0.70617470 0.67871240 0.20166010
vn -0.67784970 0.70953890 0.19254640
vn -0.87322270 0.44429980 0.20019910
vn -0.86993370 0.43969630 0.22334390
vn -0.85258630 0.42823480 0.29951880
vn -0.90540760 0.16483790 0.39123580
vn -0.96481400 0.11440360 0.23673970
vn -0.98124540 0.07139612 0.17905310
vn -0.99891700 0.01724878 -0.04321233
vn 0.26290550 -0.95923590 0.10366920
vn -0.06652942 -0.99752100 -0.02292915
vn 0.06325809 -0.99760280 0.02805682
vn 0.20985410 -0.97529410 0.06901095
vn 0.52962630 -0.83882110 0.12599770
vn -0.14927820 -0.98115400 -0.12269000
vn 0.52139070 -0.84715860 0.10234260
vn 0.73007770 -0.67389950 0.11334040
vn 0.16653920 -0.98287400 -0.07888901
vn 0.74638000 -0.66080520 0.07907887
vn 0.87969450 -0.46736890 0.08777096
vn 0.14232060 -0.96170410 -0.23424360
vn -0.15143630 -0.95457020 -0.25663780
vn 0.49043960 -0.84536540 -0.21172220
vn 0.50728670 -0.85930500 -0.06523262
vn 0.74345970 -0.60853710 -0.27739920
vn 0.89741580 -0.44107620 0.00984266
vn 0.98370580 -0.16953900 0.05982909
vn 0.75789970 -0.64481630 -0.09899458
vn 0.90038110 -0.40325920 -0.16338900
vn 0.86219170 -0.37390480 -0.34179050
vn 0.98398870 -0.16267390 -0.07282504
vn 0.96567670 -0.14391160 -0.21623600
vn 0.91579010 -0.14950480 -0.37279590
vn 0.92805890 0.10248210 -0.35805620
vn 0.96313390 0.13588320 -0.23218280
vn 0.98243330 0.11715360 -0.14525820
vn 0.98919120 0.14154660 0.03827694
vn 0.14641760 -0.98910030 0.01557376
vn 0.26290550 -0.95923590 0.10366920
vn 0.06325809 -0.99760280 0.02805682
vn 0.29472360 -0.95432170 0.04907330
vn 0.15131880 -0.98702750 0.05365998
vn 0.53122120 -0.84358190 0.07857302
vn 0.52962630 -0.83882110 0.12599770
vn 0.32518490 -0.94294400 0.07149447
vn 0.10845920 -0.96425660 0.24175580
vn 0.33324110 -0.91331610 0.23410280
vn 0.54355570 -0.79862160 0.25836160
vn 0.55035250 -0.82465550 0.13059720
vn 0.74377450 -0.59273410 0.30897520
vn 0.75548860 -0.62896840 0.18340060
vn 0.88008740 -0.33744310 0.33403340
vn 0.73821050 -0.66613230 0.10636320
vn 0.73007770 -0.67389950 0.11334040
vn 0.90512010 -0.35935630 0.22720170
vn 0.95196590 -0.01960638 0.30557600
vn 0.89044900 -0.42943370 0.15062360
vn 0.87969450 -0.46736890 0.08777096
vn 0.96695700 -0.01490720 0.25450330
vn 0.94030090 0.23874350 0.24256060
vn 0.93165180 0.24037390 0.27247990
vn 0.97221580 -0.09359765 0.21455950
vn 0.98370580 -0.16953900 0.05982909
vn 0.94201050 0.18521590 0.27984180
vn 0.98919120 0.14154660 0.03827694
vn 0.00489920 -0.83974560 0.54295800
vn 0.10845920 -0.96425660 0.24175580
vn -0.22893600 -0.94846030 0.21911480
vn -0.31035380 -0.82957970 0.46419630
vn -0.48083980 -0.51431280 0.71012350
vn -0.12333910 -0.49926390 0.85762640
vn -0.54139410 -0.76492330 0.34897660
vn -0.53845520 -0.81865160 0.19968860
vn -0.71889930 -0.64547560 0.25796340
vn -0.68788920 -0.54973590 0.47391850
vn -0.57271420 -0.11106400 0.81219650
vn -0.19454870 -0.03113930 0.98039850
vn -0.77293220 -0.24341420 0.58593970
vn -0.85323840 -0.39199950 0.34397790
vn -0.91115370 -0.10072390 0.39956660
vn -0.53113810 0.22707800 0.81628920
vn -0.19599390 0.32351550 0.92570190
vn -0.16816020 0.48386540 0.85883440
vn -0.43543870 0.39982460 0.80655650
vn -0.76152630 0.06019824 0.64533230
vn -0.70914040 0.26709610 0.65251790
vn -0.90540760 0.16483790 0.39123580
vn 0.94201050 0.18521590 0.27984180
vn 0.91257120 0.40876560 0.01116207
vn 0.98919120 0.14154660 0.03827694
vn 0.84914170 0.45075410 0.27528020
vn 0.74484620 0.66719390 -0.00751670
vn 0.85156210 0.43254120 0.29622630
vn 0.93165180 0.24037390 0.27247990
vn 0.71611820 0.65118070 0.25127370
vn 0.42739350 0.90381660 -0.02122144
vn 0.88016720 0.43342730 0.19351110
vn 0.94030090 0.23874350 0.24256060
vn 0.69005590 0.69840090 0.18989230
vn 0.69068180 0.65380630 0.30902430
vn 0.40162310 0.85117020 0.33794720
vn 0.36244410 0.89789780 0.24982780
vn 0.02637397 0.96093620 0.27551030
vn -0.00332709 0.94574700 0.32488720
vn -0.06115603 0.95843650 0.27867430
vn 0.41753830 0.86622590 0.27443490
vn -0.09094220 0.99568840 -0.01827987
vn 0.70270370 0.35847280 0.61457690
vn 0.88016720 0.43342730 0.19351110
vn 0.94030090 0.23874350 0.24256060
vn 0.64848020 0.54267130 0.53383630
vn 0.19666270 0.47601910 0.85716380
vn 0.69005590 0.69840090 0.18989230
vn 0.15899380 0.58728090 0.79361330
vn -0.16816020 0.48386540 0.85883440
vn -0.12725160 0.56804910 0.81309730
vn -0.05713501 0.76849750 0.63729670
vn 0.56739460 0.71784470 0.40343840
vn 0.20033770 0.78609310 0.58474150
vn 0.02637397 0.96093620 0.27551030
vn 0.36244410 0.89789780 0.24982780
vn 0.70270370 0.35847280 0.61457690
vn 0.94030090 0.23874350 0.24256060
vn 0.95196590 -0.01960638 0.30557600
vn 0.73765490 0.09345113 0.66867950
vn 0.19666270 0.47601910 0.85716380
vn 0.88008740 -0.33744310 0.33403340
vn 0.23957040 0.27611600 0.93078780
vn -0.16816020 0.48386540 0.85883440
vn -0.19599390 0.32351550 0.92570190
vn 0.71254750 -0.25798530 0.65247190
vn 0.74377450 -0.59273410 0.30897520
vn 0.27166940 -0.08315946 0.95879110
vn -0.19454870 -0.03113930 0.98039850
vn 0.60344200 -0.54490150 0.58218560
vn 0.54355570 -0.79862160 0.25836160
vn 0.26603850 -0.49215130 0.82886110
vn -0.12333910 -0.49926390 0.85762640
vn 0.27271900 -0.80147430 0.53222500
vn 0.00489920 -0.83974560 0.54295800
vn 0.10845920 -0.96425660 0.24175580
vn 0.33324110 -0.91331610 0.23410280
vn 0.50106610 -0.74620910 0.43829760
vn -0.52451310 0.85140000 -0.00200496
vn -0.09649432 0.96103560 -0.25903560
vn -0.09094220 0.99568840 -0.01827987
vn -0.51798130 0.82491580 -0.22629490
vn -0.74538790 0.66660740 -0.00563004
vn -0.49790570 0.79773570 -0.34015810
vn -0.09840337 0.93314710 -0.34576460
vn -0.74131910 0.62671850 -0.24014550
vn -0.90270770 0.42961820 -0.02338709
vn -0.43326120 0.76794580 -0.47174560
vn -0.10267070 0.90676310 -0.40894910
vn -0.62888080 0.56029810 -0.53904990
vn -0.72078590 0.58749510 -0.36785520
vn -0.87205450 0.38432300 -0.30301280
vn -0.99891700 0.01724878 -0.04321233
vn -0.93975000 -0.00968717 -0.34172520
vn -0.83963620 0.30839680 -0.44710440
vn -0.74615930 0.25975450 -0.61300400
vn -0.86340990 -0.03249199 -0.50345580
vn -0.77615270 -0.04971568 -0.62858210
vn 0.86068840 0.06625088 -0.50480330
vn 0.91579010 -0.14950480 -0.37279590
vn 0.92805890 0.10248210 -0.35805620
vn 0.84131770 -0.17313050 -0.51206490
vn 0.68310000 -0.21709510 -0.69731210
vn 0.71177610 0.05927115 -0.69990120
vn 0.78078290 -0.38062190 -0.49548460
vn 0.86219170 -0.37390480 -0.34179050
vn 0.20186180 -0.25956340 -0.94439330
vn 0.26140670 0.05962178 -0.96338560
vn 0.11904690 -0.52253470 -0.84426620
vn 0.58524900 -0.45732810 -0.66957800
vn 0.40779770 -0.68633740 -0.60219780
vn 0.01946382 -0.73268090 -0.68029400
vn -0.08529115 -0.88341940 -0.46075540
vn 0.66560520 -0.59564540 -0.44964020
vn 0.74345970 -0.60853710 -0.27739920
vn 0.49043960 -0.84536540 -0.21172220
vn 0.46127360 -0.80944310 -0.36335750
vn 0.14232060 -0.96170410 -0.23424360
vn 0.18366930 -0.88534270 -0.42712270
vn -0.15143630 -0.95457020 -0.25663780
vn -0.92170540 -0.38420100 -0.05337272
vn -0.93975000 -0.00968717 -0.34172520
vn -0.99891700 0.01724878 -0.04321233
vn -0.87682350 -0.37858220 -0.29640550
vn -0.81323760 -0.57836050 -0.06437089
vn -0.86340990 -0.03249199 -0.50345580
vn -0.79221630 -0.56397960 -0.23306740
vn -0.69505300 -0.71541640 -0.07127983
vn -0.82137070 -0.32269500 -0.47033830
vn -0.77615270 -0.04971568 -0.62858210
vn -0.76360020 -0.27210770 -0.58555290
vn -0.76042700 -0.51486320 -0.39581130
vn -0.73036990 -0.45983450 -0.50508630
vn -0.66754320 -0.71668390 -0.20186690
vn -0.48397830 -0.87082670 -0.08617306
vn -0.64399790 -0.69024690 -0.32988800
vn -0.64587630 -0.65086670 -0.39901920
vn -0.49804130 -0.81926400 -0.28418560
vn -0.47313010 -0.84165990 -0.26030090
vn -0.34777590 -0.90266870 -0.25345840
vn -0.45967380 -0.86743890 -0.19039320
vn -0.16338450 -0.98472860 -0.06012496
vn -0.25054300 -0.95872280 -0.13445750
vn 0.06325809 -0.99760280 0.02805682
vn -0.06652942 -0.99752100 -0.02292915
vn -0.14927820 -0.98115400 -0.12269000
vn -0.33439480 -0.92398360 -0.18556490
vn -0.15143630 -0.95457020 -0.25663780
vn -0.34777590 -0.90266870 -0.25345840
vn -0.15143630 -0.95457020 -0.25663780
vn -0.08529115 -0.88341940 -0.46075540
vn -0.29711230 -0.84082560 -0.45247830
vn -0.49804130 -0.81926400 -0.28418560
vn -0.30937110 -0.67507160 -0.66975210
vn 0.01946382 -0.73268090 -0.68029400
vn 0.11904690 -0.52253470 -0.84426620
vn -0.46598130 -0.78228470 -0.41339100
vn -0.64587630 -0.65086670 -0.39901920
vn -0.55200120 -0.62218580 -0.55513920
vn -0.33430110 -0.47220720 -0.81563670
vn 0.20186180 -0.25956340 -0.94439330
vn -0.60455830 -0.43783140 -0.66544190
vn -0.73036990 -0.45983450 -0.50508630
vn -0.32670470 -0.23838790 -0.91456840
vn 0.26140670 0.05962178 -0.96338560
vn -0.26786720 0.03187596 -0.96292850
vn -0.58950070 -0.02184012 -0.80747260
vn -0.61609350 -0.24106640 -0.74987720
vn -0.76360020 -0.27210770 -0.58555290
vn -0.77615270 -0.04971568 -0.62858210
vn -0.90540760 0.16483790 0.39123580
vn -0.91115370 -0.10072390 0.39956660
vn -0.95668670 -0.21882270 0.19200790
vn -0.96481400 0.11440360 0.23673970
vn -0.85323840 -0.39199950 0.34397790
vn -0.94354720 -0.31653430 0.09759480
vn -0.98124540 0.07139612 0.17905310
vn -0.99891700 0.01724878 -0.04321233
vn -0.92170540 -0.38420100 -0.05337272
vn -0.86015300 -0.49460050 0.12452850
vn -0.71889930 -0.64547560 0.25796340
vn -0.83347510 -0.55215070 0.02118156
vn -0.81323760 -0.57836050 -0.06437089
vn -0.71715340 -0.69055480 0.09394231
vn -0.53845520 -0.81865160 0.19968860
vn -0.70994220 -0.70424130 -0.00512223
vn -0.69505300 -0.71541640 -0.07127983
vn -0.48397830 -0.87082670 -0.08617306
vn -0.50937140 -0.86051480 -0.00741298
vn -0.16338450 -0.98472860 -0.06012496
vn -0.52658830 -0.84522690 0.09108452
vn -0.22893600 -0.94846030 0.21911480
vn -0.17471370 -0.98155080 0.07767281
vn 0.10845920 -0.96425660 0.24175580
vn 0.15131880 -0.98702750 0.05365998
vn 0.14641760 -0.98910030 0.01557376
vn -0.13669770 -0.99060300 -0.00442213
vn 0.06325809 -0.99760280 0.02805682
vn -0.85258630 0.42823480 0.29951880
vn -0.67784970 0.70953890 0.19254640
vn -0.57391050 0.67141180 0.46886330
vn -0.34885100 0.90761300 0.23354140
vn -0.65925190 0.46233360 0.59298790
vn -0.90540760 0.16483790 0.39123580
vn -0.70914040 0.26709610 0.65251790
vn -0.29266650 0.75655550 0.58478210
vn 0.02637397 0.96093620 0.27551030
vn -0.05713501 0.76849750 0.63729670
vn -0.34620260 0.52406260 0.77814020
vn -0.43543870 0.39982460 0.80655650
vn -0.12725160 0.56804910 0.81309730
vn -0.16816020 0.48386540 0.85883440
vn 0.80423880 0.35872720 -0.47382970
vn 0.86068840 0.06625088 -0.50480330
vn 0.92805890 0.10248210 -0.35805620
vn 0.86312500 0.38885650 -0.32218940
vn 0.68525460 0.33961950 -0.64427080
vn 0.71177610 0.05927115 -0.69990120
vn 0.26140670 0.05962178 -0.96338560
vn 0.61985840 0.63839390 -0.45632090
vn 0.67676640 0.66231670 -0.32144020
vn 0.49532770 0.61952540 -0.60896520
vn 0.29542370 0.34816140 -0.88966770
vn -0.26786720 0.03187596 -0.96292850
vn 0.30266340 0.80670460 -0.50756530
vn 0.34550170 0.86621480 -0.36097180
vn 0.28418570 0.56633030 -0.77363330
vn -0.18672540 0.31924490 -0.92909440
vn -0.58950070 -0.02184012 -0.80747260
vn 0.13345030 0.73175850 -0.66837150
vn -0.07172672 0.58724860 -0.80622230
vn -0.51297190 0.27125760 -0.81441950
vn -0.77615270 -0.04971568 -0.62858210
vn -0.74615930 0.25975450 -0.61300400
vn -0.37903790 0.55355920 -0.74155400
vn -0.62888080 0.56029810 -0.53904990
vn -0.43326120 0.76794580 -0.47174560
vn -0.23380520 0.72274870 -0.65036110
vn -0.03980369 0.84097430 -0.53960900
vn -0.10267070 0.90676310 -0.40894910
vt 0.53217100 0.62132900
vt 0.52214100 0.68741700
vt 0.57395800 0.69187800
vt 0.58054200 0.62369600
vt 0.54124100 0.54278300
vt 0.62371300 0.69460300
vt 0.58481800 0.54341700
vt 0.53826600 0.46309800
vt 0.62819300 0.62504300
vt 0.58140900 0.46236400
vt 0.52214100 0.40069100
vt 0.56992500 0.39367700
vt 0.67867200 0.64141900
vt 0.67778400 0.68667400
vt 0.68063100 0.54548500
vt 0.63103300 0.54409700
vt 0.62775300 0.46278100
vt 0.61859800 0.38897400
vt 0.67764300 0.46364100
vt 0.66989800 0.38754100
vt 0.84513600 0.31066200
vt 0.77979300 0.37451700
vt 0.85228100 0.36346600
vt 0.77782000 0.32110100
vt 0.83388200 0.25608800
vt 0.70438700 0.37871700
vt 0.77584000 0.26799500
vt 0.82102800 0.19869600
vt 0.76968800 0.21326900
vt 0.70636600 0.32490400
vt 0.63147500 0.37854100
vt 0.71122000 0.27045700
vt 0.71882700 0.22131000
vt 0.63780900 0.32122500
vt 0.64578200 0.26362900
vt 0.65785600 0.20696500
vt 0.60047400 0.19362500
vt 0.58876100 0.25403800
vt 0.57899500 0.31419300
vt 0.56940000 0.37451700
vt 0.81840500 0.93994000
vt 0.76464600 0.98407500
vt 0.81705000 0.99000000
vt 0.76649800 0.93612500
vt 0.81992000 0.89161900
vt 0.71504900 0.97733100
vt 0.76829500 0.89026700
vt 0.82034600 0.84526800
vt 0.71892800 0.93335200
vt 0.76907600 0.84556200
vt 0.81948500 0.80079000
vt 0.67410900 0.93084200
vt 0.66825600 0.97001800
vt 0.67953500 0.89180800
vt 0.72137700 0.88991000
vt 0.67459200 0.85162800
vt 0.76846800 0.80196000
vt 0.81901400 0.75535900
vt 0.72191000 0.84565700
vt 0.71961100 0.80358300
vt 0.66956100 0.80773400
vt 0.76659800 0.75700400
vt 0.71728000 0.75911100
vt 0.66536400 0.76312800
vt 0.66222200 0.71143500
vt 0.71410200 0.70572400
vt 0.76464600 0.70205500
vt 0.81820500 0.69082100
vt 0.37872000 0.88725100
vt 0.41766300 0.81871600
vt 0.36926700 0.83150400
vt 0.42533100 0.87539100
vt 0.38772300 0.94054600
vt 0.47218500 0.86459600
vt 0.46391500 0.80777000
vt 0.43294200 0.93021000
vt 0.39794100 0.99000000
vt 0.43787100 0.98248300
vt 0.47345200 0.97905700
vt 0.47794100 0.92176300
vt 0.51727200 0.97971100
vt 0.51855100 0.91924800
vt 0.55616800 0.98425900
vt 0.51538500 0.85670100
vt 0.50775300 0.79928400
vt 0.55838700 0.91815800
vt 0.59702700 0.98810100
vt 0.55529900 0.85388100
vt 0.55042400 0.79369600
vt 0.59843900 0.91994600
vt 0.64430800 0.99000000
vt 0.64661800 0.92169700
vt 0.59812500 0.85259000
vt 0.59545500 0.79191200
vt 0.64935000 0.85486200
vt 0.65975500 0.79451900
vt 0.62899600 0.17345700
vt 0.67433400 0.15567000
vt 0.65712600 0.11774600
vt 0.62084900 0.13709700
vt 0.58006400 0.14668300
vt 0.58355400 0.19037200
vt 0.61224300 0.10945400
vt 0.63386600 0.08359400
vt 0.59774100 0.06240200
vt 0.58239200 0.10245800
vt 0.53864600 0.15048100
vt 0.54036000 0.20195700
vt 0.54256700 0.09949500
vt 0.55477600 0.04729300
vt 0.50985100 0.03909700
vt 0.49628000 0.15165100
vt 0.49697300 0.20913800
vt 0.44710800 0.20980200
vt 0.44710800 0.15083300
vt 0.50017400 0.09642500
vt 0.45054800 0.09280800
vt 0.45927400 0.03395100
vt 0.30329900 0.47292600
vt 0.25909300 0.54074400
vt 0.30389800 0.53430200
vt 0.23842100 0.48300700
vt 0.16347100 0.54291200
vt 0.23240000 0.42039700
vt 0.28906000 0.40827300
vt 0.16882500 0.48808600
vt 0.08285800 0.53119000
vt 0.22347600 0.35385800
vt 0.27818600 0.34091600
vt 0.16854600 0.37065300
vt 0.16882800 0.42514600
vt 0.10976800 0.42285200
vt 0.12182500 0.36405900
vt 0.07267700 0.35385800
vt 0.05379800 0.40951900
vt 0.02995600 0.46109900
vt 0.09650500 0.47871900
vt 0.01000000 0.51054400
vt 0.93663000 0.16740600
vt 0.84271200 0.18030900
vt 0.88708400 0.21899600
vt 0.88326900 0.13887400
vt 0.96445700 0.10158200
vt 0.80101700 0.13512800
vt 0.90669200 0.08728200
vt 0.97203700 0.03649200
vt 0.91293200 0.03063600
vt 0.84185900 0.02995900
vt 0.84729900 0.11812000
vt 0.84525800 0.07726400
vt 0.78053900 0.03649200
vt 0.78759600 0.08677300
vt 0.74958200 0.39721000
vt 0.68235200 0.40972600
vt 0.68728300 0.45749300
vt 0.75396900 0.44553600
vt 0.82116000 0.39721000
vt 0.69549400 0.50117500
vt 0.82089900 0.44648000
vt 0.88820800 0.41011300
vt 0.88219900 0.46259100
vt 0.75821300 0.48607400
vt 0.70868600 0.53997100
vt 0.81710900 0.48786100
vt 0.86882000 0.50688200
vt 0.76607300 0.52540500
vt 0.73297800 0.57710500
vt 0.80956200 0.52812000
vt 0.84823200 0.54749900
vt 0.79539300 0.56722100
vt 0.82242300 0.58809900
vt 0.79236000 0.62647000
vt 0.75892300 0.60248400
vt 0.76263600 0.55260700
vt 0.51059400 0.23398500
vt 0.56410300 0.30083100
vt 0.58140900 0.25309400
vt 0.49567700 0.28297400
vt 0.43611600 0.21737200
vt 0.48178200 0.33306800
vt 0.54503400 0.34627800
vt 0.42462200 0.26992700
vt 0.36306500 0.20723200
vt 0.47495100 0.38780600
vt 0.52536300 0.39121800
vt 0.41639500 0.39083500
vt 0.41821100 0.32864600
vt 0.35688700 0.26414700
vt 0.30037500 0.20360500
vt 0.29541700 0.26257500
vt 0.35385800 0.32714300
vt 0.35620200 0.39888600
vt 0.29696800 0.32986900
vt 0.30037500 0.40224600
vt 0.43747200 0.13662300
vt 0.38234800 0.18849100
vt 0.43395700 0.19254200
vt 0.38895000 0.13223300
vt 0.39032400 0.07395400
vt 0.43926700 0.07597900
vt 0.34728500 0.13001300
vt 0.33791200 0.18233400
vt 0.38274100 0.01339500
vt 0.43395700 0.01000000
vt 0.33888800 0.02376000
vt 0.34852900 0.07646100
vt 0.30829800 0.08220200
vt 0.29570100 0.03984600
vt 0.25526100 0.06004100
vt 0.30851900 0.12645900
vt 0.29694300 0.16904200
vt 0.26219200 0.15006200
vt 0.28106600 0.12186500
vt 0.23767600 0.11934600
vt 0.26949400 0.09505500
vt 0.21558000 0.08602900
vt 0.29123400 0.54883300
vt 0.34370600 0.60973500
vt 0.34505600 0.55053100
vt 0.29268300 0.60743400
vt 0.24177700 0.55249000
vt 0.33602500 0.67703900
vt 0.24572700 0.60854200
vt 0.18957000 0.56004400
vt 0.28847500 0.67173000
vt 0.32427900 0.74849300
vt 0.27793200 0.74095200
vt 0.24524900 0.66885300
vt 0.23798400 0.73292300
vt 0.19766000 0.61366700
vt 0.13826700 0.57178600
vt 0.20171500 0.66986800
vt 0.19749900 0.72721500
vt 0.15813700 0.72736500
vt 0.15567900 0.67656500
vt 0.11797100 0.73698500
vt 0.14810200 0.62512900
vt 0.08879800 0.58734400
vt 0.09966000 0.64005700
vt 0.04193500 0.60389300
vt 0.05308600 0.65538100
vt 0.06416400 0.70314100
vt 0.10935700 0.68899300
vt 0.07681700 0.74849300
vt 0.10955300 0.33663900
vt 0.14655000 0.35928700
vt 0.17267600 0.31972000
vt 0.13805400 0.30112500
vt 0.07551600 0.31158500
vt 0.15383800 0.26462800
vt 0.19846400 0.28222700
vt 0.22204500 0.24191200
vt 0.10472400 0.28944800
vt 0.05096200 0.27996200
vt 0.10277500 0.26146000
vt 0.16504400 0.22676600
vt 0.23981100 0.19995000
vt 0.09982200 0.22627500
vt 0.03379000 0.24185000
vt 0.17293800 0.18699100
vt 0.25221900 0.15082300
vt 0.18001200 0.14084600
vt 0.09739700 0.14084600
vt 0.09830200 0.18734600
vt 0.02458600 0.20080300
vt 0.01798400 0.15275400
vt 0.33727000 0.44758900
vt 0.34338600 0.49698800
vt 0.40354800 0.48960700
vt 0.39876500 0.44099100
vt 0.35115700 0.54081900
vt 0.46335500 0.48491200
vt 0.45983600 0.43364200
vt 0.52073800 0.42882900
vt 0.52073800 0.48210700
vt 0.40763900 0.53438400
vt 0.36053000 0.58489900
vt 0.46501400 0.53197200
vt 0.52095700 0.53154500
vt 0.41031000 0.58059900
vt 0.36684500 0.62656200
vt 0.46510300 0.58119700
vt 0.51994900 0.58440100
vt 0.51701200 0.63703900
vt 0.46216500 0.63164100
vt 0.51229500 0.68893900
vt 0.41040900 0.62785700
vt 0.35926400 0.66720600
vt 0.40541000 0.67400200
vt 0.34924200 0.70714300
vt 0.39856900 0.71848500
vt 0.45204400 0.72928500
vt 0.45762400 0.68032600
vt 0.50770800 0.73851300
vt 0.82488700 0.68212800
vt 0.85703000 0.73908200
vt 0.88578300 0.70684700
vt 0.90282800 0.76745200
vt 0.87501500 0.66471800
vt 0.80672500 0.62399400
vt 0.86434200 0.60517000
vt 0.92516300 0.72078900
vt 0.95500100 0.78442000
vt 0.97420300 0.72436700
vt 0.92716100 0.65574300
vt 0.92283600 0.59675100
vt 0.98201600 0.65445300
vt 0.98201600 0.59544000
vt 0.29547400 0.81741000
vt 0.34416100 0.85901800
vt 0.37148400 0.80668400
vt 0.31213500 0.77023600
vt 0.26988700 0.86230600
vt 0.30540000 0.91211600
vt 0.25004700 0.95802400
vt 0.22779600 0.78255500
vt 0.23465700 0.74260400
vt 0.21541200 0.82468800
vt 0.22747000 0.90214800
vt 0.17537600 0.98360200
vt 0.15680800 0.78491200
vt 0.15155100 0.74260400
vt 0.20752400 0.86222800
vt 0.16476000 0.92897500
vt 0.09136800 0.99000000
vt 0.15616000 0.82201300
vt 0.15255900 0.86996600
vt 0.08903600 0.93465000
vt 0.01000000 0.98342600
vt 0.01114200 0.92448500
vt 0.08881000 0.87737300
vt 0.02254000 0.86035200
vt 0.05181400 0.80566300
vt 0.09469600 0.83007700
vt 0.10741900 0.79272100
vt 0.08934400 0.76939800
f 3/3/3 2/2/2 1/1/1
f 4/4/4 3/3/3 1/1/1
f 1/1/1 5/5/5 4/4/4
f 3/3/3 4/4/4 6/6/6
f 5/5/5 7/7/7 4/4/4
f 7/7/7 5/5/5 8/8/8
f 4/4/4 9/9/9 6/6/6
f 9/9/9 4/4/4 7/7/7
f 10/10/10 7/7/7 8/8/8
f 8/8/8 11/11/11 10/10/10
f 11/11/11 12/12/12 10/10/10
f 6/6/6 9/9/9 13/13/13
f 14/14/14 6/6/6 13/13/13
f 13/13/13 9/9/9 15/15/15
f 16/16/16 9/9/9 7/7/7
f 7/7/7 10/10/10 16/16/16
f 9/9/9 16/16/16 15/15/15
f 17/17/17 10/10/10 12/12/12
f 10/10/10 17/17/17 16/16/16
f 15/15/15 16/16/16 17/17/17
f 18/18/18 17/17/17 12/12/12
f 19/19/19 15/15/15 17/17/17
f 17/17/17 18/18/18 19/19/19
f 18/18/18 20/20/20 19/19/19
f 23/23/23 22/22/22 21/21/21
f 22/22/22 24/24/24 21/21/21
f 21/21/21 24/24/24 25/25/25
f 22/22/22 26/26/26 24/24/24
f 24/24/24 27/27/27 25/25/25
f 28/28/28 25/25/25 27/27/27
f 29/29/29 28/28/28 27/27/27
f 26/26/26 30/30/30 24/24/24
f 24/24/24 30/30/30 27/27/27
f 26/26/26 31/31/31 30/30/30
f 27/27/27 32/32/32 29/29/29
f 30/30/30 32/32/32 27/27/27
f 32/32/32 33/33/33 29/29/29
f 31/31/31 34/34/34 30/30/30
f 30/30/30 34/34/34 32/32/32
f 33/33/33 32/32/32 35/35/35
f 34/34/34 35/35/35 32/32/32
f 36/36/36 33/33/33 35/35/35
f 36/36/36 35/35/35 37/37/37
f 35/35/35 38/38/38 37/37/37
f 38/38/38 35/35/35 39/39/39
f 35/35/35 34/34/34 39/39/39
f 34/34/34 31/31/31 39/39/39
f 31/31/31 40/40/40 39/39/39
f 43/43/43 42/42/42 41/41/41
f 42/42/42 44/44/44 41/41/41
f 41/41/41 44/44/44 45/45/45
f 42/42/42 46/46/46 44/44/44
f 44/44/44 47/47/47 45/45/45
f 45/45/45 47/47/47 48/48/48
f 46/46/46 49/49/49 44/44/44
f 44/44/44 49/49/49 47/47/47
f 47/47/47 50/50/50 48/48/48
f 48/48/48 50/50/50 51/51/51
f 52/52/52 49/49/49 46/46/46
f 53/53/53 52/52/52 46/46/46
f 49/49/49 52/52/52 54/54/54
f 49/49/49 55/55/55 47/47/47
f 55/55/55 49/49/49 54/54/54
f 47/47/47 55/55/55 50/50/50
f 54/54/54 56/56/56 55/55/55
f 50/50/50 57/57/57 51/51/51
f 51/51/51 57/57/57 58/58/58
f 55/55/55 59/59/59 50/50/50
f 56/56/56 59/59/59 55/55/55
f 50/50/50 59/59/59 57/57/57
f 59/59/59 56/56/56 60/60/60
f 59/59/59 60/60/60 57/57/57
f 56/56/56 61/61/61 60/60/60
f 57/57/57 62/62/62 58/58/58
f 57/57/57 60/60/60 62/62/62
f 60/60/60 61/61/61 63/63/63
f 60/60/60 63/63/63 62/62/62
f 61/61/61 64/64/64 63/63/63
f 63/63/63 64/64/64 65/65/65
f 66/66/66 63/63/63 65/65/65
f 62/62/62 63/63/63 66/66/66
f 67/67/67 62/62/62 66/66/66
f 58/58/58 62/62/62 67/67/67
f 68/68/68 58/58/58 67/67/67
f 71/71/71 70/70/70 69/69/69
f 70/70/70 72/72/72 69/69/69
f 73/73/73 69/69/69 72/72/72
f 72/72/72 70/70/70 74/74/74
f 70/70/70 75/75/75 74/74/74
f 76/76/76 73/73/73 72/72/72
f 72/72/72 74/74/74 76/76/76
f 73/73/73 76/76/76 77/77/77
f 76/76/76 78/78/78 77/77/77
f 78/78/78 76/76/76 79/79/79
f 76/76/76 80/80/80 79/79/79
f 74/74/74 80/80/80 76/76/76
f 79/79/79 80/80/80 81/81/81
f 80/80/80 82/82/82 81/81/81
f 82/82/82 80/80/80 74/74/74
f 81/81/81 82/82/82 83/83/83
f 74/74/74 75/75/75 84/84/84
f 84/84/84 82/82/82 74/74/74
f 75/75/75 85/85/85 84/84/84
f 82/82/82 86/86/86 83/83/83
f 82/82/82 84/84/84 86/86/86
f 83/83/83 86/86/86 87/87/87
f 84/84/84 85/85/85 88/88/88
f 84/84/84 88/88/88 86/86/86
f 85/85/85 89/89/89 88/88/88
f 86/86/86 90/90/90 87/87/87
f 86/86/86 88/88/88 90/90/90
f 87/87/87 90/90/90 91/91/91
f 90/90/90 92/92/92 91/91/91
f 88/88/88 89/89/89 93/93/93
f 88/88/88 93/93/93 90/90/90
f 90/90/90 93/93/93 92/92/92
f 89/89/89 94/94/94 93/93/93
f 93/93/93 95/95/95 92/92/92
f 93/93/93 94/94/94 95/95/95
f 94/94/94 96/96/96 95/95/95
f 99/99/99 98/98/98 97/97/97
f 100/100/100 99/99/99 97/97/97
f 101/101/101 100/100/100 97/97/97
f 102/102/102 101/101/101 97/97/97
f 99/99/99 100/100/100 103/103/103
f 104/104/104 99/99/99 103/103/103
f 105/105/105 104/104/104 103/103/103
f 103/103/103 100/100/100 106/106/106
f 100/100/100 101/101/101 106/106/106
f 106/106/106 105/105/105 103/103/103
f 107/107/107 101/101/101 102/102/102
f 106/106/106 101/101/101 107/107/107
f 108/108/108 107/107/107 102/102/102
f 105/105/105 106/106/106 109/109/109
f 109/109/109 106/106/106 107/107/107
f 110/110/110 105/105/105 109/109/109
f 111/111/111 110/110/110 109/109/109
f 112/112/112 107/107/107 108/108/108
f 113/113/113 112/112/112 108/108/108
f 112/112/112 113/113/113 114/114/114
f 115/115/115 112/112/112 114/114/114
f 109/109/109 107/107/107 116/116/116
f 107/107/107 112/112/112 116/116/116
f 116/116/116 112/112/112 115/115/115
f 116/116/116 111/111/111 109/109/109
f 117/117/117 116/116/116 115/115/115
f 111/111/111 116/116/116 117/117/117
f 118/118/118 111/111/111 117/117/117
f 121/121/121 120/120/120 119/119/119
f 120/120/120 122/122/122 119/119/119
f 122/122/122 120/120/120 123/123/123
f 119/119/119 122/122/122 124/124/124
f 125/125/125 119/119/119 124/124/124
f 126/126/126 122/122/122 123/123/123
f 123/123/123 127/127/127 126/126/126
f 125/125/125 124/124/124 128/128/128
f 129/129/129 125/125/125 128/128/128
f 128/128/128 124/124/124 130/130/130
f 124/124/124 122/122/122 131/131/131
f 124/124/124 131/131/131 130/130/130
f 122/122/122 126/126/126 131/131/131
f 130/130/130 131/131/131 132/132/132
f 131/131/131 126/126/126 132/132/132
f 133/133/133 130/130/130 132/132/132
f 133/133/133 132/132/132 134/134/134
f 132/132/132 135/135/135 134/134/134
f 135/135/135 132/132/132 136/136/136
f 127/127/127 137/137/137 126/126/126
f 126/126/126 137/137/137 132/132/132
f 132/132/132 137/137/137 136/136/136
f 137/137/137 127/127/127 138/138/138
f 136/136/136 137/137/137 138/138/138
f 141/141/141 140/140/140 139/139/139
f 140/140/140 142/142/142 139/139/139
f 139/139/139 142/142/142 143/143/143
f 142/142/142 140/140/140 144/144/144
f 142/142/142 145/145/145 143/143/143
f 143/143/143 145/145/145 146/146/146
f 145/145/145 147/147/147 146/146/146
f 147/147/147 145/145/145 148/148/148
f 149/149/149 142/142/142 144/144/144
f 145/145/145 142/142/142 149/149/149
f 145/145/145 150/150/150 148/148/148
f 150/150/150 145/145/145 149/149/149
f 149/149/149 144/144/144 150/150/150
f 151/151/151 148/148/148 150/150/150
f 144/144/144 152/152/152 150/150/150
f 152/152/152 151/151/151 150/150/150
f 155/155/155 154/154/154 153/153/153
f 156/156/156 155/155/155 153/153/153
f 156/156/156 153/153/153 157/157/157
f 158/158/158 155/155/155 156/156/156
f 159/159/159 156/156/156 157/157/157
f 157/157/157 160/160/160 159/159/159
f 160/160/160 161/161/161 159/159/159
f 162/162/162 158/158/158 156/156/156
f 162/162/162 156/156/156 159/159/159
f 163/163/163 158/158/158 162/162/162
f 159/159/159 161/161/161 164/164/164
f 164/164/164 162/162/162 159/159/159
f 161/161/161 165/165/165 164/164/164
f 166/166/166 163/163/163 162/162/162
f 162/162/162 164/164/164 166/166/166
f 167/167/167 163/163/163 166/166/166
f 168/168/168 164/164/164 165/165/165
f 164/164/164 168/168/168 166/166/166
f 169/169/169 168/168/168 165/165/165
f 170/170/170 168/168/168 169/169/169
f 166/166/166 168/168/168 170/170/170
f 171/171/171 170/170/170 169/169/169
f 171/171/171 172/172/172 170/170/170
f 172/172/172 173/173/173 170/170/170
f 174/174/174 167/167/167 166/166/166
f 174/174/174 166/166/166 170/170/170
f 173/173/173 167/167/167 174/174/174
f 170/170/170 173/173/173 174/174/174
f 177/177/177 176/176/176 175/175/175
f 176/176/176 178/178/178 175/175/175
f 175/175/175 178/178/178 179/179/179
f 180/180/180 178/178/178 176/176/176
f 181/181/181 180/180/180 176/176/176
f 178/178/178 182/182/182 179/179/179
f 179/179/179 182/182/182 183/183/183
f 184/184/184 180/180/180 181/181/181
f 185/185/185 184/184/184 181/181/181
f 184/184/184 186/186/186 180/180/180
f 180/180/180 187/187/187 178/178/178
f 187/187/187 182/182/182 178/178/178
f 186/186/186 187/187/187 180/180/180
f 182/182/182 188/188/188 183/183/183
f 182/182/182 187/187/187 188/188/188
f 183/183/183 188/188/188 189/189/189
f 188/188/188 190/190/190 189/189/189
f 187/187/187 186/186/186 191/191/191
f 187/187/187 191/191/191 188/188/188
f 188/188/188 191/191/191 190/190/190
f 186/186/186 192/192/192 191/191/191
f 191/191/191 193/193/193 190/190/190
f 191/191/191 192/192/192 193/193/193
f 192/192/192 194/194/194 193/193/193
f 197/197/197 196/196/196 195/195/195
f 196/196/196 198/198/198 195/195/195
f 198/198/198 199/199/199 195/195/195
f 199/199/199 200/200/200 195/195/195
f 201/201/201 198/198/198 196/196/196
f 202/202/202 201/201/201 196/196/196
f 199/199/199 203/203/203 200/200/200
f 203/203/203 204/204/204 200/200/200
f 205/205/205 203/203/203 199/199/199
f 206/206/206 199/199/199 198/198/198
f 206/206/206 205/205/205 199/199/199
f 201/201/201 206/206/206 198/198/198
f 205/205/205 206/206/206 207/207/207
f 207/207/207 206/206/206 201/201/201
f 208/208/208 205/205/205 207/207/207
f 209/209/209 208/208/208 207/207/207
f 210/210/210 201/201/201 202/202/202
f 210/210/210 207/207/207 201/201/201
f 211/211/211 210/210/210 202/202/202
f 210/210/210 211/211/211 212/212/212
f 213/213/213 210/210/210 212/212/212
f 207/207/207 210/210/210 213/213/213
f 212/212/212 214/214/214 213/213/213
f 215/215/215 209/209/209 207/207/207
f 215/215/215 207/207/207 213/213/213
f 214/214/214 215/215/215 213/213/213
f 216/216/216 209/209/209 215/215/215
f 214/214/214 216/216/216 215/215/215
f 219/219/219 218/218/218 217/217/217
f 218/218/218 220/220/220 217/217/217
f 217/217/217 220/220/220 221/221/221
f 218/218/218 222/222/222 220/220/220
f 220/220/220 223/223/223 221/221/221
f 221/221/221 223/223/223 224/224/224
f 222/222/222 225/225/225 220/220/220
f 220/220/220 225/225/225 223/223/223
f 222/222/222 226/226/226 225/225/225
f 226/226/226 227/227/227 225/225/225
f 225/225/225 227/227/227 228/228/228
f 225/225/225 228/228/228 223/223/223
f 227/227/227 229/229/229 228/228/228
f 223/223/223 230/230/230 224/224/224
f 223/223/223 228/228/228 230/230/230
f 224/224/224 230/230/230 231/231/231
f 228/228/228 229/229/229 232/232/232
f 228/228/228 232/232/232 230/230/230
f 229/229/229 233/233/233 232/232/232
f 232/232/232 233/233/233 234/234/234
f 235/235/235 232/232/232 234/234/234
f 230/230/230 232/232/232 235/235/235
f 235/235/235 234/234/234 236/236/236
f 230/230/230 237/237/237 231/231/231
f 237/237/237 230/230/230 235/235/235
f 231/231/231 237/237/237 238/238/238
f 237/237/237 239/239/239 238/238/238
f 237/237/237 235/235/235 239/239/239
f 238/238/238 239/239/239 240/240/240
f 239/239/239 241/241/241 240/240/240
f 241/241/241 239/239/239 242/242/242
f 243/243/243 235/235/235 236/236/236
f 235/235/235 243/243/243 239/239/239
f 239/239/239 243/243/243 242/242/242
f 243/243/243 236/236/236 244/244/244
f 242/242/242 243/243/243 244/244/244
f 247/247/247 246/246/246 245/245/245
f 248/248/248 247/247/247 245/245/245
f 245/245/245 249/249/249 248/248/248
f 248/248/248 250/250/250 247/247/247
f 250/250/250 251/251/251 247/247/247
f 252/252/252 251/251/251 250/250/250
f 249/249/249 253/253/253 248/248/248
f 249/249/249 254/254/254 253/253/253
f 253/253/253 255/255/255 248/248/248
f 255/255/255 250/250/250 248/248/248
f 254/254/254 255/255/255 253/253/253
f 256/256/256 252/252/252 250/250/250
f 256/256/256 250/250/250 255/255/255
f 252/252/252 256/256/256 257/257/257
f 258/258/258 255/255/255 254/254/254
f 258/258/258 256/256/256 255/255/255
f 259/259/259 258/258/258 254/254/254
f 256/256/256 260/260/260 257/257/257
f 260/260/260 256/256/256 258/258/258
f 257/257/257 260/260/260 261/261/261
f 260/260/260 262/262/262 261/261/261
f 262/262/262 260/260/260 263/263/263
f 264/264/264 258/258/258 259/259/259
f 264/264/264 260/260/260 258/258/258
f 260/260/260 264/264/264 263/263/263
f 265/265/265 264/264/264 259/259/259
f 263/263/263 264/264/264 265/265/265
f 266/266/266 263/263/263 265/265/265
f 269/269/269 268/268/268 267/267/267
f 270/270/270 269/269/269 267/267/267
f 268/268/268 269/269/269 271/271/271
f 272/272/272 269/269/269 270/270/270
f 273/273/273 272/272/272 270/270/270
f 273/273/273 274/274/274 272/272/272
f 274/274/274 275/275/275 272/272/272
f 269/269/269 276/276/276 271/271/271
f 269/269/269 272/272/272 276/276/276
f 271/271/271 276/276/276 277/277/277
f 272/272/272 275/275/275 278/278/278
f 272/272/272 278/278/278 276/276/276
f 275/275/275 279/279/279 278/278/278
f 276/276/276 280/280/280 277/277/277
f 276/276/276 278/278/278 280/280/280
f 277/277/277 280/280/280 281/281/281
f 278/278/278 279/279/279 282/282/282
f 278/278/278 282/282/282 280/280/280
f 279/279/279 283/283/283 282/282/282
f 283/283/283 284/284/284 282/282/282
f 284/284/284 285/285/285 282/282/282
f 280/280/280 282/282/282 285/285/285
f 284/284/284 286/286/286 285/285/285
f 280/280/280 287/287/287 281/281/281
f 287/287/287 280/280/280 285/285/285
f 281/281/281 287/287/287 288/288/288
f 287/287/287 289/289/289 288/288/288
f 287/287/287 285/285/285 289/289/289
f 288/288/288 289/289/289 290/290/290
f 289/289/289 291/291/291 290/290/290
f 292/292/292 291/291/291 289/289/289
f 286/286/286 293/293/293 285/285/285
f 285/285/285 293/293/293 289/289/289
f 293/293/293 292/292/292 289/289/289
f 293/293/293 286/286/286 294/294/294
f 292/292/292 293/293/293 294/294/294
f 297/297/297 296/296/296 295/295/295
f 298/298/298 296/296/296 297/297/297
f 299/299/299 297/297/297 295/295/295
f 299/299/299 295/295/295 300/300/300
f 301/301/301 299/299/299 300/300/300
f 302/302/302 298/298/298 297/297/297
f 297/297/297 299/299/299 302/302/302
f 303/303/303 298/298/298 302/302/302
f 304/304/304 303/303/303 302/302/302
f 299/299/299 301/301/301 305/305/305
f 299/299/299 305/305/305 302/302/302
f 304/304/304 302/302/302 305/305/305
f 301/301/301 306/306/306 305/305/305
f 307/307/307 304/304/304 305/305/305
f 305/305/305 306/306/306 308/308/308
f 307/307/307 305/305/305 308/308/308
f 311/311/311 310/310/310 309/309/309
f 312/312/312 311/311/311 309/309/309
f 309/309/309 310/310/310 313/313/313
f 310/310/310 314/314/314 313/313/313
f 314/314/314 315/315/315 313/313/313
f 312/312/312 309/309/309 316/316/316
f 317/317/317 312/312/312 316/316/316
f 309/309/309 313/313/313 318/318/318
f 316/316/316 309/309/309 318/318/318
f 315/315/315 319/319/319 313/313/313
f 315/315/315 320/320/320 319/319/319
f 316/316/316 321/321/321 317/317/317
f 321/321/321 322/322/322 317/317/317
f 313/313/313 319/319/319 323/323/323
f 318/318/318 313/313/313 323/323/323
f 320/320/320 324/324/324 319/319/319
f 319/319/319 324/324/324 323/323/323
f 324/324/324 320/320/320 325/325/325
f 316/316/316 318/318/318 326/326/326
f 321/321/321 316/316/316 326/326/326
f 323/323/323 327/327/327 318/318/318
f 324/324/324 327/327/327 323/323/323
f 327/327/327 326/326/326 318/318/318
f 328/328/328 324/324/324 325/325/325
f 324/324/324 328/328/328 327/327/327
f 328/328/328 325/325/325 329/329/329
f 330/330/330 328/328/328 329/329/329
f 328/328/328 331/331/331 327/327/327
f 331/331/331 328/328/328 330/330/330
f 327/327/327 331/331/331 326/326/326
f 332/332/332 331/331/331 330/330/330
f 331/331/331 332/332/332 333/333/333
f 331/331/331 334/334/334 326/326/326
f 326/326/326 334/334/334 321/321/321
f 334/334/334 331/331/331 333/333/333
f 334/334/334 335/335/335 321/321/321
f 335/335/335 334/334/334 333/333/333
f 321/321/321 335/335/335 322/322/322
f 336/336/336 335/335/335 333/333/333
f 335/335/335 336/336/336 322/322/322

