mtllib Lettuce_30.mtl
v -0.01802162 0.0003098283 0.08503924
v -0.00905831 -0.001225204 0.09626404
v -0.007783286 -0.007071781 0.0959138
v 0.01760034 0.004493739 0.09544107
v 0.0115018 0.005245628 0.1006575
v 0.01442894 0.009071209 0.09487612
v -0.03059839 0.01900914 -0.08951255
v -0.06469604 0.003286243 -0.06842201
v -0.03340946 0.003785412 -0.08951255
v -0.0552994 0.02997477 -0.06842204
v -0.02264429 0.03191521 -0.08951248
v -0.03580207 0.04387062 -0.06842201
v -0.06489816 0.02985137 -0.04421897
v -0.01080545 0.04053881 -0.08951255
v -0.0178458 0.05631226 -0.06842201
v 0.003110075 0.04356701 -0.08951255
v 0.002759316 0.06068116 -0.06842201
v 0.01703029 0.04053881 -0.08951255
v 0.02339523 0.05631226 -0.06842201
v 0.02887988 0.03191522 -0.08951255
v 0.04142608 0.04387057 -0.06842204
v 0.03684573 0.01900914 -0.08951255
v 0.05768912 0.0264641 -0.06842204
v 0.03966282 0.003785341 -0.08951257
v 0.0460222 0.04573002 -0.04421885
v 0.06131789 0.02745891 -0.0442632
v 0.02317882 0.05432696 -0.04416456
v 0.03686958 -0.01143839 -0.08951253
v 0.05859055 0.003286182 -0.06842205
v 0.05415718 -0.01867791 -0.06842204
v -0.03340946 0.003785412 -0.08951255
v -0.05533406 -0.02071283 -0.06842206
v -0.0306182 -0.01143839 -0.08951253
v -0.06469604 0.003286243 -0.06842201
v -0.06418636 -0.02438778 -0.04399628
v -0.0692319 0.002822041 -0.04424073
v -0.040608 -0.0435912 -0.04412326
v -0.03693908 -0.03759105 -0.06842204
v -0.02200193 -0.05828737 -0.04424945
v -0.04139698 -0.04354491 -0.02336112
v -0.06263988 -0.02202972 -0.02296054
v -0.03776998 -0.03986376 -0.001767029
v -0.06915866 0.002578584 -0.02319494
v -0.06241832 -0.02018157 -0.001303741
v -0.0306182 -0.01143839 -0.08951253
v -0.05533406 -0.02071283 -0.06842206
v -0.03693908 -0.03759105 -0.06842204
v -0.02267144 -0.02434447 -0.08951253
v -0.01798001 -0.0497399 -0.06842204
v -0.0108224 -0.03296807 -0.08951255
v -0.02200193 -0.05828737 -0.04424945
v 0.002781903 -0.05410881 -0.06842204
v 0.003115359 -0.03599624 -0.0895125
v 0.002643234 -0.05828191 -0.04440743
v 0.004629958 -0.05891521 -0.02321099
v 0.02687937 -0.05069171 -0.02324024
v 0.02498074 -0.05315061 -0.0443359
v 0.02357118 -0.0497399 -0.06842204
v 0.01705691 -0.03296807 -0.08951255
v 0.04256976 -0.03726512 -0.04417679
v 0.04661655 -0.03776909 -0.02315081
v 0.04166136 -0.0372982 -0.06842201
v 0.0289145 -0.02434447 -0.08951255
v 0.05415718 -0.01867791 -0.06842204
v 0.03686958 -0.01143839 -0.08951253
v 0.03966282 0.003785341 -0.08951257
v 0.05859055 0.003286182 -0.06842205
v 0.05768912 0.0264641 -0.06842204
v 0.06131789 0.02745891 -0.0442632
v 0.06149068 0.003060843 -0.04417336
v 0.05415718 -0.01867791 -0.06842204
v 0.05555839 -0.01861373 -0.04413923
v 0.04166136 -0.0372982 -0.06842201
v 0.04256976 -0.03726512 -0.04417679
v 0.06069192 -0.01895381 -0.0230286
v 0.04661655 -0.03776909 -0.02315081
v 0.06920328 0.002522675 -0.02345617
v 0.06243078 0.02566832 -0.02305565
v 0.04792754 0.04381676 -0.02308194
v 0.0460222 0.04573002 -0.04421885
v 0.06056629 0.02389678 -0.001724228
v 0.05841956 -0.01793428 -0.001577343
v 0.04626916 -0.03757518 -0.001634411
v 0.06469788 0.002475948 -0.00168735
v 0.05209812 0.02117516 0.01920759
v 0.04167197 0.0401844 0.01948881
v 0.03554329 0.03396989 0.03793285
v 0.04504741 0.01860314 0.03741783
v 0.03082893 0.02734056 0.05639431
v 0.05649611 0.002353237 0.01910771
v 0.05254401 -0.01647538 0.01918769
v 0.04047841 -0.03341899 0.01932973
v 0.04765485 0.002263 0.03714468
v 0.04470547 -0.0137578 0.03732887
v 0.03444038 -0.02758097 0.0373517
v 0.03902172 0.001571754 0.05542555
v 0.03683937 0.01439779 0.05561462
v 0.03707611 -0.01127058 0.0556905
v 0.03034436 0.01135662 0.06930814
v 0.02608633 0.02227865 0.06977497
v 0.01856889 0.0143501 0.08355121
v 0.0307527 0.0007833981 0.06931592
v 0.02288626 0.007899871 0.08359359
v 0.01442894 0.009071209 0.09487612
v 0.01760034 0.004493739 0.09544107
v 0.02497916 0.0001837258 0.08375135
v 0.02962278 -0.009396141 0.06934997
v 0.0229804 -0.007647706 0.08360683
v 0.02280435 -0.01713102 0.06946401
v 0.02816692 -0.02111869 0.05535071
v 0.01970215 -0.03661628 0.03744991
v 0.02230819 -0.04365641 0.01924024
v 0.04142608 0.04387057 -0.06842204
v 0.02317882 0.05432696 -0.04416456
v 0.02339523 0.05631226 -0.06842201
v 0.002463365 0.05923435 -0.04420101
v 0.005172356 0.05716946 -0.02275873
v 0.02603785 0.05470208 -0.02306995
v 0.0460222 0.04573002 -0.04421885
v 0.04792754 0.04381676 -0.02308194
v 0.02461331 0.05123254 -0.001701401
v 0.004868666 0.05509101 -0.001567875
v 0.04523304 0.04214712 -0.00171048
v 0.06243078 0.02566832 -0.02305565
v 0.06056629 0.02389678 -0.001724228
v 0.04167197 0.0401844 0.01948881
v 0.003204027 0.05176659 0.01923512
v -0.01578389 0.04937908 0.01931644
v 0.02192046 0.04867627 0.01926806
v 0.003241601 0.04607939 0.03777828
v 0.01955277 0.04173885 0.03751966
v 0.03554329 0.03396989 0.03793285
v 0.004893558 0.03813065 0.05643588
v 0.01833545 0.03419888 0.05603675
v 0.005031624 0.03104807 0.06993075
v 0.03082893 0.02734056 0.05639431
v 0.01564519 0.02699539 0.06961087
v 0.005062301 0.02181241 0.08420961
v 0.01279248 0.0199467 0.08410769
v 0.005046653 0.01350238 0.09510601
v 0.01028798 0.01270339 0.09563814
v 0.01856889 0.0143501 0.08355121
v 0.01442894 0.009071209 0.09487612
v 0.02608633 0.02227865 0.06977497
v 0.03683937 0.01439779 0.05561462
v 0.04504741 0.01860314 0.03741783
v 0.04765485 0.002263 0.03714468
v 0.05649611 0.002353237 0.01910771
v 0.05209812 0.02117516 0.01920759
v 0.06469788 0.002475948 -0.00168735
v 0.02339523 0.05631226 -0.06842201
v 0.002463365 0.05923435 -0.04420101
v 0.002759316 0.06068116 -0.06842201
v -0.01938807 0.05889944 -0.04429647
v -0.0178458 0.05631226 -0.06842201
v -0.01581822 0.05576021 -0.02321872
v 0.005172356 0.05716946 -0.02275873
v -0.04044548 0.04811934 -0.04425134
v -0.03580207 0.04387062 -0.06842201
v -0.06489816 0.02985137 -0.04421897
v -0.0610768 0.02684113 -0.02330217
v -0.03840276 0.04593398 -0.02323648
v -0.01527046 0.05258693 -0.001597317
v -0.03699025 0.04302195 -0.001650299
v -0.05946661 0.02387412 -0.001682854
v 0.004868666 0.05509101 -0.001567875
v 0.02603785 0.05470208 -0.02306995
v -0.01578389 0.04937908 0.01931644
v -0.06472064 0.002392329 -0.001844908
v -0.06915866 0.002578584 -0.02319494
v -0.06181385 0.002377217 0.0193548
v -0.05709589 0.02229672 0.01935262
v -0.05165875 0.002310853 0.03772499
v -0.04960921 0.02116205 0.03758796
v -0.03603777 0.03989545 0.01926138
v -0.03527486 0.03373022 0.03716824
v -0.03667841 0.0176411 0.05783046
v -0.01324503 0.04269323 0.03767148
v 0.003204027 0.05176659 0.01923512
v 0.003241601 0.04607939 0.03777828
v -0.02543649 0.02781135 0.0562459
v -0.008568094 0.03453824 0.05612329
v 0.004893558 0.03813065 0.05643588
v -0.005273264 0.02626995 0.06944985
v 0.005031624 0.03104807 0.06993075
v -0.01588583 0.02234318 0.06987643
v -0.02207378 0.01171064 0.0697283
v -0.002486357 0.0194711 0.08387638
v 0.005062301 0.02181241 0.08420961
v -0.02771707 0.0009582443 0.07053471
v -0.0377986 0.001617889 0.0575195
v -0.01802162 0.0003098283 0.08503924
v -0.01340835 0.007734473 0.08425964
v -0.00905831 -0.001225204 0.09626404
v -0.007336761 0.004414896 0.09514607
v -0.009342418 0.01545207 0.08408268
v -0.00489785 0.009735312 0.09626116
v -0.0001711515 0.01263006 0.09551805
v 0.005046653 0.01350238 0.09510601
v -0.0552994 0.02997477 -0.06842204
v -0.0692319 0.002822041 -0.04424073
v -0.06469604 0.003286243 -0.06842201
v -0.06489816 0.02985137 -0.04421897
v -0.06915866 0.002578584 -0.02319494
v -0.0610768 0.02684113 -0.02330217
v 0.002643234 -0.05828191 -0.04440743
v 0.02687937 -0.05069171 -0.02324024
v 0.02498074 -0.05315061 -0.0443359
v 0.04661655 -0.03776909 -0.02315081
v 0.04626916 -0.03757518 -0.001634411
v 0.02584056 -0.04896877 -0.001674488
v 0.04047841 -0.03341899 0.01932973
v 0.004629958 -0.05891521 -0.02321099
v 0.02230819 -0.04365641 0.01924024
v 0.03444038 -0.02758097 0.0373517
v 0.004870204 -0.05427471 -0.001665085
v -0.02054111 -0.05380462 -0.02313039
v -0.02200193 -0.05828737 -0.04424945
v -0.040608 -0.0435912 -0.04412326
v -0.04139698 -0.04354491 -0.02336112
v -0.01817231 -0.05153949 -0.001780907
v -0.03776998 -0.03986376 -0.001767029
v 0.00318733 -0.04895765 0.01936851
v 0.01970215 -0.03661628 0.03744991
v -0.01846551 -0.04776199 0.01935697
v 0.003240556 -0.04311153 0.03811116
v 0.01808527 -0.02990321 0.05579944
v 0.02816692 -0.02111869 0.05535071
v 0.02280435 -0.01713102 0.06946401
v -0.0366667 -0.03691984 0.01939114
v -0.01505977 -0.04175792 0.03854345
v 0.00495981 -0.0340319 0.05619431
v 0.01495437 -0.02346363 0.0693945
v -0.06241832 -0.02018157 -0.001303741
v -0.06263988 -0.02202972 -0.02296054
v -0.05765941 -0.01760237 0.01943547
v -0.02990289 -0.03122405 0.03779008
v -0.04753546 -0.01457518 0.03765753
v -0.009721535 -0.03402575 0.05717491
v -0.02101131 -0.02479752 0.05626512
v -0.03348789 -0.01241183 0.05674355
v 0.005066263 -0.02602144 0.06958454
v 0.01874212 -0.01426617 0.08370795
v 0.0229804 -0.007647706 0.08360683
v -0.00621629 -0.02700852 0.06996544
v 0.0118658 -0.01728833 0.08369555
v -0.01426951 -0.01876882 0.06949954
v 0.005068632 -0.01980825 0.08382923
v -0.003060142 -0.02054366 0.0843461
v 0.01680476 -0.006529651 0.0942058
v 0.01407026 -0.01107999 0.09434441
v 0.01869969 -0.001218931 0.09555566
v 0.02497916 0.0001837258 0.08375135
v 0.01760034 0.004493739 0.09544107
v 0.01034906 -0.01532982 0.09587698
v 0.00504373 -0.01615268 0.09550018
v -8.200084E-05 -0.01481743 0.0952574
v -0.009315155 -0.01499265 0.0839654
v -0.004514561 -0.01172515 0.09540296
v -0.02042989 -0.00979868 0.06931043
v -0.01318073 -0.007793183 0.08374286
v -0.007783286 -0.007071781 0.0959138
v -0.01802162 0.0003098283 0.08503924
v -0.02771707 0.0009582443 0.07053471
v -0.0377986 0.001617889 0.0575195
v -0.05165875 0.002310853 0.03772499
v -0.06915866 0.002578584 -0.02319494
v -0.06472064 0.002392329 -0.001844908
v -0.06241832 -0.02018157 -0.001303741
v -0.05765941 -0.01760237 0.01943547
v -0.06181385 0.002377217 0.0193548
v -0.04753546 -0.01457518 0.03765753
v -0.05165875 0.002310853 0.03772499
v -0.03348789 -0.01241183 0.05674355
v -0.04960921 0.02116205 0.03758796
v -0.03667841 0.0176411 0.05783046
v -0.0377986 0.001617889 0.0575195
v -0.05165875 0.002310853 0.03772499
v -0.03340946 0.003785412 -0.08951255
v 0.00328769 0.004099768 -0.1006575
v -0.03059839 0.01900914 -0.08951255
v -0.02264429 0.03191521 -0.08951248
v -0.01080545 0.04053881 -0.08951255
v 0.003110075 0.04356701 -0.08951255
v 0.01703029 0.04053881 -0.08951255
v 0.02887988 0.03191522 -0.08951255
v 0.03684573 0.01900914 -0.08951255
v 0.03966282 0.003785341 -0.08951257
v 0.03686958 -0.01143839 -0.08951253
v -0.0306182 -0.01143839 -0.08951253
v 0.00328769 0.004099768 -0.1006575
v -0.03340946 0.003785412 -0.08951255
v -0.02267144 -0.02434447 -0.08951253
v -0.0108224 -0.03296807 -0.08951255
v 0.003115359 -0.03599624 -0.0895125
v 0.01705691 -0.03296807 -0.08951255
v 0.0289145 -0.02434447 -0.08951255
v 0.03686958 -0.01143839 -0.08951253
v 0.01760034 0.004493739 0.09544107
v 0.01349327 0.001917396 0.1006575
v 0.0115018 0.005245628 0.1006575
v 0.01869969 -0.001218931 0.09555566
v 0.01420015 -0.002015468 0.1006575
v 0.01680476 -0.006529651 0.0942058
v 0.01342634 -0.005904173 0.1001968
v 0.01407026 -0.01107999 0.09434441
v 0.01143977 -0.009180885 0.1000599
v 0.01034906 -0.01532982 0.09587698
v 0.008515989 -0.01143778 0.1002632
v 0.00504373 -0.01615268 0.09550018
v 0.005030694 -0.01208094 0.09980705
v -8.200084E-05 -0.01481743 0.0952574
v 0.001602476 -0.01124867 0.09956881
v -0.004514561 -0.01172515 0.09540296
v -0.001349754 -0.009140225 0.09986385
v -0.007783286 -0.007071781 0.0959138
v -0.003455606 -0.0059566 0.1006575
v -0.00905831 -0.001225204 0.09626404
v -0.003455606 -0.0059566 0.1006575
v -0.007783286 -0.007071781 0.0959138
v -0.004144791 -0.002015468 0.1006576
v -0.007336761 0.004414896 0.09514607
v -0.003438059 0.001917396 0.1006575
v -0.00489785 0.009735312 0.09626116
v -0.00144644 0.005245628 0.1006575
v -0.0001711515 0.01263006 0.09551805
v 0.001525624 0.007466787 0.1006575
v 0.005046653 0.01350238 0.09510601
v 0.005027568 0.008246182 0.1006575
v 0.01028798 0.01270339 0.09563814
v 0.005027568 0.008246182 0.1006575
v 0.005046653 0.01350238 0.09510601
v 0.008529586 0.007466787 0.1006575
v 0.01442894 0.009071209 0.09487612
v 0.0115018 0.005245628 0.1006575
v 0.01349327 0.001917396 0.1006575
v 0.005027641 -0.002010656 0.1006575
v 0.0115018 0.005245628 0.1006575
v 0.01420015 -0.002015468 0.1006575
v 0.008529586 0.007466787 0.1006575
v 0.01342634 -0.005904173 0.1001968
v 0.005027568 0.008246182 0.1006575
v 0.01143977 -0.009180885 0.1000599
v 0.001525624 0.007466787 0.1006575
v 0.008515989 -0.01143778 0.1002632
v -0.00144644 0.005245628 0.1006575
v 0.005030694 -0.01208094 0.09980705
v -0.003438059 0.001917396 0.1006575
v 0.001602476 -0.01124867 0.09956881
v -0.004144791 -0.002015468 0.1006576
v -0.001349754 -0.009140225 0.09986385
v -0.003455606 -0.0059566 0.1006575
vt 0.08463734 0.5499493
vt 0.1122125 0.5959798
vt 0.1335865 0.5924175
vt 0.290749 0.7871997
vt 0.2630616 0.8234761
vt 0.3019576 0.8218515
vt 0.9454598 0.5839667
vt 0.9780916 0.7333214
vt 0.9832401 0.5947329
vt 0.9132206 0.6928101
vt 0.9077254 0.5591437
vt 0.8712144 0.639838
vt 0.8754795 0.7696921
vt 0.8706146 0.5259829
vt 0.8276449 0.5981073
vt 0.8333992 0.4880218
vt 0.7867965 0.5541725
vt 0.7953202 0.4476416
vt 0.7478963 0.5093452
vt 0.7554823 0.4066125
vt 0.7082132 0.4640886
vt 0.7179571 0.3601005
vt 0.6606889 0.423873
vt 0.6733211 0.320686
vt 0.6636836 0.511575
vt 0.6212274 0.4711225
vt 0.7089206 0.5585223
vt 0.6284959 0.2827968
vt 0.620531 0.3782957
vt 0.5750981 0.3397885
vt 0.3906978 0.03453673
vt 0.2940509 0.09936571
vt 0.4012433 0.07172768
vt 0.2566968 0.04278807
vt 0.2235091 0.1455212
vt 0.1741481 0.08209104
vt 0.2857174 0.1959699
vt 0.3449286 0.1463666
vt 0.3317706 0.2384607
vt 0.2403069 0.2344014
vt 0.1754538 0.184675
vt 0.2071547 0.2804413
vt 0.1145913 0.1282503
vt 0.1330311 0.229968
vt 0.4012433 0.07172768
vt 0.2940509 0.09936571
vt 0.3449286 0.1463666
vt 0.4251653 0.1083818
vt 0.3908169 0.1874179
vt 0.4570065 0.1445264
vt 0.3317706 0.2384607
vt 0.4358422 0.2279245
vt 0.4968556 0.1777621
vt 0.388171 0.2755632
vt 0.3517081 0.3151328
vt 0.404706 0.3519541
vt 0.4377466 0.312387
vt 0.483111 0.2644811
vt 0.5396402 0.2113427
vt 0.4867616 0.3469893
vt 0.4532592 0.3872704
vt 0.529615 0.3017543
vt 0.5838205 0.2463228
vt 0.5750981 0.3397885
vt 0.6284959 0.2827968
vt 0.6733211 0.320686
vt 0.620531 0.3782957
vt 0.6606889 0.423873
vt 0.6212274 0.4711225
vt 0.5772874 0.4247243
vt 0.5750981 0.3397885
vt 0.5327104 0.3840337
vt 0.529615 0.3017543
vt 0.4867616 0.3469893
vt 0.4979153 0.4242688
vt 0.4532592 0.3872704
vt 0.5424869 0.4638587
vt 0.5869573 0.506858
vt 0.6264724 0.5464907
vt 0.6636836 0.511575
vt 0.5512281 0.5403913
vt 0.464772 0.4638078
vt 0.4195527 0.4270713
vt 0.5078762 0.5009711
vt 0.5149044 0.5745174
vt 0.5550433 0.6165061
vt 0.515678 0.6488694
vt 0.4780742 0.6092937
vt 0.471585 0.6788222
vt 0.4754778 0.5357992
vt 0.4333533 0.5006906
vt 0.3889548 0.4663964
vt 0.4396634 0.5737987
vt 0.4011633 0.5408115
vt 0.3582739 0.5085945
vt 0.4039143 0.609478
vt 0.4382025 0.6419982
vt 0.3675526 0.5787945
vt 0.4041814 0.6670104
vt 0.4362469 0.7002378
vt 0.3924204 0.7250465
vt 0.3727971 0.6386504
vt 0.3663462 0.6960686
vt 0.3574338 0.7426276
vt 0.3345891 0.7176313
vt 0.3410214 0.670953
vt 0.3402825 0.6105699
vt 0.3115067 0.6461447
vt 0.3056552 0.5851138
vt 0.3290523 0.55019
vt 0.3135262 0.4767613
vt 0.3420858 0.4332327
vt 0.7082132 0.4640886
vt 0.7089206 0.5585223
vt 0.7478963 0.5093452
vt 0.7469702 0.603303
vt 0.708106 0.6411091
vt 0.6705124 0.5949058
vt 0.6636836 0.511575
vt 0.6264724 0.5464907
vt 0.6323833 0.629876
vt 0.6679152 0.6763576
vt 0.5934392 0.5836927
vt 0.5869573 0.506858
vt 0.5512281 0.5403913
vt 0.5550433 0.6165061
vt 0.6278759 0.706187
vt 0.6596256 0.7552513
vt 0.593533 0.6604284
vt 0.5816993 0.7322077
vt 0.5505222 0.6909423
vt 0.515678 0.6488694
vt 0.5296761 0.7574041
vt 0.5028412 0.7168053
vt 0.4868608 0.7709303
vt 0.471585 0.6788222
vt 0.4628351 0.7355286
vt 0.4356233 0.7853122
vt 0.4171642 0.7554806
vt 0.3943102 0.795794
vt 0.3772573 0.7691132
vt 0.3924204 0.7250465
vt 0.3574338 0.7426276
vt 0.4362469 0.7002378
vt 0.4382025 0.6419982
vt 0.4780742 0.6092937
vt 0.4396634 0.5737987
vt 0.4754778 0.5357992
vt 0.5149044 0.5745174
vt 0.5078762 0.5009711
vt 0.7478963 0.5093452
vt 0.7469702 0.603303
vt 0.7867965 0.5541725
vt 0.7837989 0.6527086
vt 0.8276449 0.5981073
vt 0.7452922 0.6892514
vt 0.708106 0.6411091
vt 0.8251634 0.703897
vt 0.8712144 0.639838
vt 0.8754795 0.7696921
vt 0.8350263 0.8148008
vt 0.7867182 0.7460239
vt 0.7051604 0.7271152
vt 0.7438357 0.7852554
vt 0.7902372 0.8588451
vt 0.6679152 0.6763576
vt 0.6705124 0.5949058
vt 0.6596256 0.7552513
vt 0.8258798 0.9214846
vt 0.8852912 0.879546
vt 0.7580649 0.9538105
vt 0.7341688 0.8875317
vt 0.6807017 0.9613936
vt 0.6769919 0.8964575
vt 0.69541 0.8128145
vt 0.6502118 0.8438755
vt 0.5957102 0.9054433
vt 0.6094042 0.7783716
vt 0.6278759 0.706187
vt 0.5816993 0.7322077
vt 0.5829292 0.8560984
vt 0.5527489 0.7999925
vt 0.5296761 0.7574041
vt 0.5052618 0.8116906
vt 0.4868608 0.7709303
vt 0.5204054 0.8480112
vt 0.5221269 0.894327
vt 0.4512467 0.817623
vt 0.4356233 0.7853122
vt 0.5182591 0.9380144
vt 0.5812223 0.9585506
vt 0.4567655 0.9143673
vt 0.4617616 0.8800714
vt 0.4103475 0.8897684
vt 0.4177666 0.8706055
vt 0.4611817 0.8472203
vt 0.4154301 0.84701
vt 0.4076657 0.8216442
vt 0.3943102 0.795794
vt 0.9132206 0.6928101
vt 0.9353651 0.8166364
vt 0.9780916 0.7333214
vt 0.8754795 0.7696921
vt 0.8852912 0.879546
vt 0.8350263 0.8148008
vt 0.388171 0.2755632
vt 0.404706 0.3519541
vt 0.4377466 0.312387
vt 0.4532592 0.3872704
vt 0.4195527 0.4270713
vt 0.3708669 0.3918389
vt 0.3889548 0.4663964
vt 0.3517081 0.3151328
vt 0.3420858 0.4332327
vt 0.3582739 0.5085945
vt 0.3201747 0.356793
vt 0.2917016 0.2733636
vt 0.3317706 0.2384607
vt 0.2857174 0.1959699
vt 0.2403069 0.2344014
vt 0.2619727 0.3166407
vt 0.2071547 0.2804413
vt 0.2914438 0.4010372
vt 0.3135262 0.4767613
vt 0.2348977 0.3618992
vt 0.2668369 0.4455326
vt 0.2890095 0.5227119
vt 0.3290523 0.55019
vt 0.3056552 0.5851138
vt 0.1797033 0.3305598
vt 0.2167598 0.4141684
vt 0.2457247 0.4969948
vt 0.2707824 0.5610633
vt 0.1330311 0.229968
vt 0.1754538 0.184675
vt 0.1041818 0.2859964
vt 0.1646268 0.3868144
vt 0.09176719 0.3527916
vt 0.1981649 0.4727783
vt 0.1497351 0.4509958
vt 0.08992422 0.4294466
vt 0.2330835 0.5384947
vt 0.2813889 0.6220367
vt 0.3115067 0.6461447
vt 0.1916985 0.5158329
vt 0.2499625 0.6033837
vt 0.1475102 0.5017225
vt 0.2195408 0.5835139
vt 0.1855804 0.564509
vt 0.285766 0.6696824
vt 0.2611743 0.6497319
vt 0.3104035 0.6933132
vt 0.3410214 0.670953
vt 0.3345891 0.7176313
vt 0.2336418 0.633305
vt 0.2082935 0.6163043
vt 0.1827587 0.6029127
vt 0.1508026 0.5539399
vt 0.157515 0.5949361
vt 0.1062843 0.4941428
vt 0.1195624 0.5508273
vt 0.1335865 0.5924175
vt 0.08463734 0.5499493
vt 0.05929208 0.4907128
vt 0.03679544 0.4295422
vt 0.03118849 0.3385719
vt 0.1145913 0.1282503
vt 0.06852275 0.1910253
vt 0.1330311 0.229968
vt 0.1041818 0.2859964
vt 0.04039156 0.2598315
vt 0.09176719 0.3527916
vt 0.03118849 0.3385719
vt 0.08992422 0.4294466
vt 0.6769919 0.8964575
vt 0.5957102 0.9054433
vt 0.5812223 0.9585506
vt 0.6807017 0.9613936
vt 0.8936994 0.06066842
vt 0.8099794 0.1785566
vt 0.9324402 0.1016807
vt 0.9525379 0.154396
vt 0.950932 0.21079
vt 0.9278675 0.2622765
vt 0.8868552 0.301018
vt 0.83414 0.3211149
vt 0.7777458 0.3195096
vt 0.7262591 0.2964451
vt 0.6875181 0.2554331
vt 0.8422123 0.03760418
vt 0.8099794 0.1785566
vt 0.8936994 0.06066842
vt 0.7858186 0.03599812
vt 0.7331029 0.05609572
vt 0.6920911 0.09483658
vt 0.6690264 0.1463234
vt 0.6674207 0.202717
vt 0.6875181 0.2554331
vt 0.290749 0.7871997
vt 0.2558004 0.8019393
vt 0.2630616 0.8234761
vt 0.2667181 0.7590911
vt 0.2408206 0.7848735
vt 0.2332345 0.7431237
vt 0.2203829 0.7749906
vt 0.1985348 0.7405767
vt 0.1978582 0.7733055
vt 0.1621032 0.7510172
vt 0.1762783 0.7804595
vt 0.1340477 0.776084
vt 0.1591933 0.7955175
vt 0.1183823 0.809146
vt 0.1488553 0.8157638
vt 0.1151082 0.8454145
vt 0.147124 0.8384737
vt 0.1258041 0.8812776
vt 0.1543098 0.8603982
vt 0.1504681 0.9100484
vt 0.1543098 0.8603982
vt 0.1258041 0.8812776
vt 0.1692546 0.877829
vt 0.1848154 0.925597
vt 0.189861 0.8879964
vt 0.2220785 0.9283254
vt 0.2127963 0.8895859
vt 0.2568271 0.915013
vt 0.2344975 0.8820194
vt 0.2833901 0.8905874
vt 0.2517068 0.8668433
vt 0.2996945 0.8582044
vt 0.2517068 0.8668433
vt 0.2833901 0.8905874
vt 0.2617171 0.846242
vt 0.3019576 0.8218515
vt 0.2630616 0.8234761
vt 0.2558004 0.8019393
vt 0.2048565 0.8312342
vt 0.2630616 0.8234761
vt 0.2408206 0.7848735
vt 0.2617171 0.846242
vt 0.2203829 0.7749906
vt 0.2517068 0.8668433
vt 0.1978582 0.7733055
vt 0.2344975 0.8820194
vt 0.1762783 0.7804595
vt 0.2127963 0.8895859
vt 0.1591933 0.7955175
vt 0.189861 0.8879964
vt 0.1488553 0.8157638
vt 0.1692546 0.877829
vt 0.147124 0.8384737
vt 0.1543098 0.8603982
vn -0.8255504 -0.03001611 0.5635297
vn -0.797618 -0.009122528 0.6030939
vn -0.7578311 -0.4154833 0.5030564
vn 0.7763978 0.3443725 0.527839
vn 0.4282943 0.3694711 0.8246545
vn 0.6465073 0.5419854 0.5369173
vn -0.4813655 0.2611567 -0.8367105
vn -0.8288248 -0.002599417 -0.5595022
vn -0.5155851 0.001321177 -0.8568373
vn -0.7082082 0.4701155 -0.5267187
vn -0.4030123 0.4654536 -0.7879937
vn -0.5294194 0.7212677 -0.4466408
vn -0.8394656 0.5388314 -0.07041518
vn -0.2573814 0.5812854 -0.771921
vn -0.3308778 0.8705041 -0.3643385
vn 0.0008051908 0.6367788 -0.7710462
vn 0.03144905 0.9543979 -0.2968764
vn 0.2598681 0.5845536 -0.7686128
vn 0.3506195 0.8882751 -0.2967041
vn 0.4391778 0.4544514 -0.7749817
vn 0.5952386 0.709335 -0.3775381
vn 0.5602074 0.2282056 -0.7962975
vn 0.8444335 0.3350458 -0.4179432
vn 0.6165249 -0.0235654 -0.7869827
vn 0.6059042 0.7932213 -0.0606633
vn 0.9135975 0.3854342 -0.1295381
vn 0.319162 0.9476639 0.00828428
vn 0.580507 -0.231595 -0.7806249
vn 0.9120819 -0.07136068 -0.4037502
vn 0.8560402 -0.3672051 -0.3638069
vn -0.5155851 0.001321177 -0.8568373
vn -0.7156429 -0.4378871 -0.54416
vn -0.4847908 -0.2588289 -0.8354553
vn -0.8288248 -0.002599417 -0.5595022
vn -0.8393048 -0.5270323 -0.133433
vn -0.992824 -0.001144449 -0.1195796
vn -0.6112947 -0.7799162 -0.1343484
vn -0.5549926 -0.6655995 -0.4989595
vn -0.3371594 -0.9349051 -0.1107972
vn -0.5995243 -0.7911602 0.1209805
vn -0.8473192 -0.5218108 0.09881038
vn -0.5807142 -0.7964273 0.1687444
vn -0.9939175 0.02656333 0.1068756
vn -0.8382717 -0.518492 0.1687205
vn -0.4847908 -0.2588289 -0.8354553
vn -0.7156429 -0.4378871 -0.54416
vn -0.5549926 -0.6655995 -0.4989595
vn -0.4057641 -0.446853 -0.797294
vn -0.3254519 -0.821302 -0.4685553
vn -0.2467532 -0.5698197 -0.7838483
vn -0.3371594 -0.9349051 -0.1107972
vn 0.03202136 -0.9067401 -0.4204723
vn 0.0007248042 -0.6222975 -0.7827805
vn 0.06500153 -0.9944788 -0.08238147
vn 0.07847021 -0.9910489 0.1080016
vn 0.442243 -0.8960057 0.03993496
vn 0.4364855 -0.89686 -0.07157127
vn 0.3892542 -0.8395281 -0.3790434
vn 0.2538934 -0.5717791 -0.7801327
vn 0.7200124 -0.6885349 -0.08661319
vn 0.7059255 -0.7076292 -0.03049728
vn 0.6795003 -0.6426793 -0.3538963
vn 0.4546203 -0.4321348 -0.7788324
vn 0.8560402 -0.3672051 -0.3638069
vn 0.580507 -0.231595 -0.7806249
vn 0.6165249 -0.0235654 -0.7869827
vn 0.9120819 -0.07136068 -0.4037502
vn 0.8444335 0.3350458 -0.4179432
vn 0.9135975 0.3854342 -0.1295381
vn 0.9798326 -0.09248104 -0.1771307
vn 0.8560402 -0.3672051 -0.3638069
vn 0.8914673 -0.4283539 -0.1476448
vn 0.6795003 -0.6426793 -0.3538963
vn 0.7200124 -0.6885349 -0.08661319
vn 0.8903155 -0.4507509 -0.06451258
vn 0.7059255 -0.7076292 -0.03049728
vn 0.996831 -0.0635168 -0.04789162
vn 0.9073427 0.4199768 0.01867196
vn 0.6161888 0.7846038 0.06861593
vn 0.6059042 0.7932213 -0.0606633
vn 0.8805205 0.4108033 0.2364833
vn 0.882192 -0.4232916 0.2063043
vn 0.6753799 -0.7160394 0.1764927
vn 0.9673301 -0.03254221 0.2514231
vn 0.8591335 0.3590328 0.3646712
vn 0.6181369 0.7239452 0.3062845
vn 0.6204239 0.6680214 0.4108791
vn 0.8550277 0.3132105 0.4133119
vn 0.6450809 0.6263365 0.4376907
vn 0.9237115 -0.01093503 0.3829328
vn 0.8515052 -0.3831407 0.3579696
vn 0.631406 -0.6937011 0.3465621
vn 0.9065754 0.0006980698 0.4220432
vn 0.8270851 -0.370074 0.423055
vn 0.6189089 -0.6722649 0.406216
vn 0.8943042 -0.004840963 0.4474333
vn 0.8586354 0.2638353 0.4394726
vn 0.8151535 -0.3720873 0.4439321
vn 0.845222 0.2322078 0.4813307
vn 0.6374147 0.574641 0.513313
vn 0.6415542 0.5460089 0.5387787
vn 0.8877019 -0.01110018 0.4602847
vn 0.8199319 0.2925211 0.4920804
vn 0.6465073 0.5419854 0.5369173
vn 0.7763978 0.3443725 0.527839
vn 0.8981353 -0.01913704 0.4393027
vn 0.8131385 -0.3719771 0.4477042
vn 0.8270077 -0.3739026 0.4198276
vn 0.6293968 -0.6592327 0.4114268
vn 0.6293849 -0.6569971 0.4150052
vn 0.4072276 -0.8333895 0.3736679
vn 0.3714978 -0.8724061 0.3176428
vn 0.5952386 0.709335 -0.3775381
vn 0.319162 0.9476639 0.00828428
vn 0.3506195 0.8882751 -0.2967041
vn 0.05527307 0.99731 0.04814184
vn 0.05236996 0.9937639 0.09844174
vn 0.3040587 0.9500611 0.07023069
vn 0.6059042 0.7932213 -0.0606633
vn 0.6161888 0.7846038 0.06861593
vn 0.2989078 0.9425314 0.1492933
vn 0.03071124 0.9896203 0.1403871
vn 0.6169192 0.7644154 0.1872963
vn 0.9073427 0.4199768 0.01867196
vn 0.8805205 0.4108033 0.2364833
vn 0.6181369 0.7239452 0.3062845
vn 0.02067722 0.9721629 0.2333919
vn -0.2864625 0.9292622 0.2332615
vn 0.2925452 0.9230487 0.2497963
vn 0.01637161 0.930582 0.3657173
vn 0.3118212 0.8754566 0.3692471
vn 0.6204239 0.6680214 0.4108791
vn 0.0181645 0.8968537 0.4419541
vn 0.3417591 0.8450277 0.4112528
vn -0.01643946 0.8597144 0.5105103
vn 0.6450809 0.6263365 0.4376907
vn 0.3549978 0.7948725 0.4920918
vn -0.03074995 0.8442622 0.5350475
vn 0.3782377 0.7557281 0.5346133
vn -0.02144672 0.7931318 0.6086722
vn 0.3799424 0.7044063 0.5995461
vn 0.6415542 0.5460089 0.5387787
vn 0.6465073 0.5419854 0.5369173
vn 0.6374147 0.574641 0.513313
vn 0.8586354 0.2638353 0.4394726
vn 0.8550277 0.3132105 0.4133119
vn 0.9065754 0.0006980698 0.4220432
vn 0.9237115 -0.01093503 0.3829328
vn 0.8591335 0.3590328 0.3646712
vn 0.9673301 -0.03254221 0.2514231
vn 0.3506195 0.8882751 -0.2967041
vn 0.05527307 0.99731 0.04814184
vn 0.03144905 0.9543979 -0.2968764
vn -0.2990309 0.9541452 0.01368894
vn -0.3308778 0.8705041 -0.3643385
vn -0.2463434 0.9584808 0.1436297
vn 0.05236996 0.9937639 0.09844174
vn -0.5484924 0.8357628 -0.02562599
vn -0.5294194 0.7212677 -0.4466408
vn -0.8394656 0.5388314 -0.07041518
vn -0.8127941 0.561369 0.1556619
vn -0.5313545 0.8314281 0.1624492
vn -0.2687235 0.9528752 0.140772
vn -0.5376773 0.8307775 0.1439157
vn -0.8175167 0.5563414 0.148831
vn 0.03071124 0.9896203 0.1403871
vn 0.3040587 0.9500611 0.07023069
vn -0.2864625 0.9292622 0.2332615
vn -0.9879327 0.04592447 0.1479187
vn -0.9939175 0.02656333 0.1068756
vn -0.9534469 0.01657717 0.3011049
vn -0.8193808 0.5187926 0.2438636
vn -0.8537228 -0.0419227 0.5190374
vn -0.7717898 0.4415601 0.4575644
vn -0.5238175 0.8231936 0.2190153
vn -0.4931289 0.7790004 0.3872755
vn -0.696022 0.3761938 0.6115812
vn -0.2852374 0.8784213 0.3834262
vn 0.02067722 0.9721629 0.2333919
vn 0.01637161 0.930582 0.3657173
vn -0.4388503 0.7256176 0.52999
vn -0.2885763 0.8362134 0.4663378
vn 0.0181645 0.8968537 0.4419541
vn -0.3173971 0.7997849 0.5095128
vn -0.01643946 0.8597144 0.5105103
vn -0.4676299 0.6481359 0.6010342
vn -0.6568164 0.383944 0.6489832
vn -0.3309855 0.7960989 0.5066311
vn -0.03074995 0.8442622 0.5350475
vn -0.7485074 -0.07496088 0.658876
vn -0.7797841 -0.07631611 0.6213797
vn -0.8255504 -0.03001611 0.5635297
vn -0.7341894 0.4172841 0.5355743
vn -0.797618 -0.009122528 0.6030939
vn -0.7341428 0.3654352 0.5722687
vn -0.5899896 0.6029296 0.5370179
vn -0.605918 0.539337 0.5847896
vn -0.2895201 0.756062 0.5869823
vn -0.02144672 0.7931318 0.6086722
vn -0.7082082 0.4701155 -0.5267187
vn -0.992824 -0.001144449 -0.1195796
vn -0.8288248 -0.002599417 -0.5595022
vn -0.8394656 0.5388314 -0.07041518
vn -0.9939175 0.02656333 0.1068756
vn -0.8127941 0.561369 0.1556619
vn 0.06500153 -0.9944788 -0.08238147
vn 0.442243 -0.8960057 0.03993496
vn 0.4364855 -0.89686 -0.07157127
vn 0.7059255 -0.7076292 -0.03049728
vn 0.6753799 -0.7160394 0.1764927
vn 0.3917648 -0.9006585 0.1879749
vn 0.631406 -0.6937011 0.3465621
vn 0.07847021 -0.9910489 0.1080016
vn 0.3714978 -0.8724061 0.3176428
vn 0.6189089 -0.6722649 0.406216
vn 0.07350829 -0.9775184 0.1976221
vn -0.3189016 -0.9373845 0.140043
vn -0.3371594 -0.9349051 -0.1107972
vn -0.6112947 -0.7799162 -0.1343484
vn -0.5995243 -0.7911602 0.1209805
vn -0.2997318 -0.9369967 0.1794384
vn -0.5807142 -0.7964273 0.1687444
vn 0.08944281 -0.9572847 0.274965
vn 0.4072276 -0.8333895 0.3736679
vn -0.3078687 -0.9163961 0.2558027
vn 0.1259816 -0.9246886 0.3592764
vn 0.4358533 -0.7995249 0.4132698
vn 0.6293849 -0.6569971 0.4150052
vn 0.6293968 -0.6592327 0.4114268
vn -0.5849935 -0.7598307 0.2836191
vn -0.3010483 -0.8645869 0.4023176
vn 0.1571399 -0.8876669 0.4328447
vn 0.4112692 -0.7996588 0.4374968
vn -0.8382717 -0.518492 0.1687205
vn -0.8473192 -0.5218108 0.09881038
vn -0.8017658 -0.5037265 0.3216072
vn -0.5731844 -0.6846783 0.4501948
vn -0.7251493 -0.4637752 0.5089903
vn -0.2884265 -0.8206336 0.4933262
vn -0.5801651 -0.6232917 0.5243243
vn -0.6740437 -0.4642219 0.5745983
vn 0.167926 -0.8761528 0.4518375
vn 0.642134 -0.66019 0.3896317
vn 0.8270077 -0.3739026 0.4198276
vn -0.2909932 -0.8115376 0.5066851
vn 0.3983404 -0.8451113 0.3565275
vn -0.6413745 -0.5635665 0.5206068
vn 0.1584767 -0.9132628 0.3752816
vn -0.3053359 -0.8433514 0.4421859
vn 0.7895939 -0.3808495 0.4811394
vn 0.6769437 -0.5943025 0.4342256
vn 0.8534576 -0.05486666 0.518266
vn 0.8981353 -0.01913704 0.4393027
vn 0.7763978 0.3443725 0.527839
vn 0.4082455 -0.8271949 0.3861142
vn 0.07005981 -0.9111654 0.4060408
vn -0.316927 -0.8063044 0.4994301
vn -0.7019255 -0.5696162 0.4275956
vn -0.6406251 -0.5845895 0.4978499
vn -0.6788015 -0.479237 0.5563816
vn -0.7607192 -0.4771729 0.4400139
vn -0.7578311 -0.4154833 0.5030564
vn -0.8255504 -0.03001611 0.5635297
vn -0.7485074 -0.07496088 0.658876
vn -0.7797841 -0.07631611 0.6213797
vn -0.8537228 -0.0419227 0.5190374
vn -0.9939175 0.02656333 0.1068756
vn -0.9879327 0.04592447 0.1479187
vn -0.8382717 -0.518492 0.1687205
vn -0.8017658 -0.5037265 0.3216072
vn -0.9534469 0.01657717 0.3011049
vn -0.7251493 -0.4637752 0.5089903
vn -0.8537228 -0.0419227 0.5190374
vn -0.6740437 -0.4642219 0.5745983
vn -0.7717898 0.4415601 0.4575644
vn -0.696022 0.3761938 0.6115812
vn -0.7797841 -0.07631611 0.6213797
vn -0.8537228 -0.0419227 0.5190374
vn -0.5155851 0.001321177 -0.8568373
vn 0.0006383865 0.001059279 -0.9999993
vn -0.4813655 0.2611567 -0.8367105
vn -0.4030123 0.4654536 -0.7879937
vn -0.2573814 0.5812854 -0.771921
vn 0.0008051908 0.6367788 -0.7710462
vn 0.2598681 0.5845536 -0.7686128
vn 0.4391778 0.4544514 -0.7749817
vn 0.5602074 0.2282056 -0.7962975
vn 0.6165249 -0.0235654 -0.7869827
vn 0.580507 -0.231595 -0.7806249
vn -0.4847908 -0.2588289 -0.8354553
vn 0.0006383865 0.001059279 -0.9999993
vn -0.5155851 0.001321177 -0.8568373
vn -0.4057641 -0.446853 -0.797294
vn -0.2467532 -0.5698197 -0.7838483
vn 0.0007248042 -0.6222975 -0.7827805
vn 0.2538934 -0.5717791 -0.7801327
vn 0.4546203 -0.4321348 -0.7788324
vn 0.580507 -0.231595 -0.7806249
vn 0.7763978 0.3443725 0.527839
vn 0.5146738 0.2159218 0.8297521
vn 0.4282943 0.3694711 0.8246545
vn 0.8534576 -0.05486666 0.518266
vn 0.5804923 -0.09860663 0.8082731
vn 0.7895939 -0.3808495 0.4811394
vn 0.5851324 -0.3277676 0.7417468
vn 0.6769437 -0.5943025 0.4342256
vn 0.5409053 -0.3704164 0.7551245
vn 0.4082455 -0.8271949 0.3861142
vn 0.2649473 -0.4737809 0.8398421
vn 0.07005981 -0.9111654 0.4060408
vn -0.08915278 -0.5361602 0.839395
vn -0.316927 -0.8063044 0.4994301
vn -0.2337351 -0.5059119 0.8303138
vn -0.6406251 -0.5845895 0.4978499
vn -0.3343019 -0.4536407 0.8261068
vn -0.7578311 -0.4154833 0.5030564
vn -0.4454777 -0.2724181 0.8528412
vn -0.797618 -0.009122528 0.6030939
vn -0.4454777 -0.2724181 0.8528412
vn -0.7578311 -0.4154833 0.5030564
vn -0.5127569 0.02541503 0.8581576
vn -0.7341428 0.3654352 0.5722687
vn -0.5072111 0.1910254 0.8403845
vn -0.605918 0.539337 0.5847896
vn -0.3906896 0.3070411 0.867806
vn -0.2895201 0.756062 0.5869823
vn -0.1579658 0.4779767 0.8640515
vn -0.02144672 0.7931318 0.6086722
vn -0.00648571 0.5282245 0.84908
vn 0.3799424 0.7044063 0.5995461
vn -0.00648571 0.5282245 0.84908
vn -0.02144672 0.7931318 0.6086722
vn 0.2380416 0.4702365 0.8498316
vn 0.6465073 0.5419854 0.5369173
vn 0.4282943 0.3694711 0.8246545
vn 0.5146738 0.2159218 0.8297521
vn 0.001615112 -0.04145193 0.9991392
vn 0.4282943 0.3694711 0.8246545
vn 0.5804923 -0.09860663 0.8082731
vn 0.2380416 0.4702365 0.8498316
vn 0.5851324 -0.3277676 0.7417468
vn -0.00648571 0.5282245 0.84908
vn 0.5409053 -0.3704164 0.7551245
vn -0.1579658 0.4779767 0.8640515
vn 0.2649473 -0.4737809 0.8398421
vn -0.3906896 0.3070411 0.867806
vn -0.08915278 -0.5361602 0.839395
vn -0.5072111 0.1910254 0.8403845
vn -0.2337351 -0.5059119 0.8303138
vn -0.5127569 0.02541503 0.8581576
vn -0.3343019 -0.4536407 0.8261068
vn -0.4454777 -0.2724181 0.8528412
usemtl Lettuce3_Mat
f 3/3/3 2/2/2 1/1/1
f 6/6/6 5/5/5 4/4/4
f 9/9/9 8/8/8 7/7/7
f 8/8/8 10/10/10 7/7/7
f 7/7/7 10/10/10 11/11/11
f 10/10/10 12/12/12 11/11/11
f 10/10/10 13/13/13 12/12/12
f 11/11/11 12/12/12 14/14/14
f 12/12/12 15/15/15 14/14/14
f 14/14/14 15/15/15 16/16/16
f 15/15/15 17/17/17 16/16/16
f 16/16/16 17/17/17 18/18/18
f 17/17/17 19/19/19 18/18/18
f 18/18/18 19/19/19 20/20/20
f 19/19/19 21/21/21 20/20/20
f 20/20/20 21/21/21 22/22/22
f 21/21/21 23/23/23 22/22/22
f 22/22/22 23/23/23 24/24/24
f 21/21/21 25/25/25 23/23/23
f 25/25/25 26/26/26 23/23/23
f 27/27/27 25/25/25 21/21/21
f 24/24/24 29/29/29 28/28/28
f 29/29/29 30/30/30 28/28/28
f 33/33/33 32/32/32 31/31/31
f 32/32/32 34/34/34 31/31/31
f 32/32/32 35/35/35 34/34/34
f 35/35/35 36/36/36 34/34/34
f 37/37/37 35/35/35 32/32/32
f 38/38/38 37/37/37 32/32/32
f 39/39/39 37/37/37 38/38/38
f 37/37/37 40/40/40 35/35/35
f 35/35/35 41/41/41 36/36/36
f 40/40/40 41/41/41 35/35/35
f 40/40/40 42/42/42 41/41/41
f 41/41/41 43/43/43 36/36/36
f 41/41/41 44/44/44 43/43/43
f 47/47/47 46/46/46 45/45/45
f 48/48/48 47/47/47 45/45/45
f 49/49/49 47/47/47 48/48/48
f 50/50/50 49/49/49 48/48/48
f 49/49/49 51/51/51 47/47/47
f 52/52/52 49/49/49 50/50/50
f 53/53/53 52/52/52 50/50/50
f 54/54/54 51/51/51 49/49/49
f 52/52/52 54/54/54 49/49/49
f 54/54/54 55/55/55 51/51/51
f 56/56/56 55/55/55 54/54/54
f 57/57/57 54/54/54 52/52/52
f 58/58/58 52/52/52 53/53/53
f 58/58/58 57/57/57 52/52/52
f 59/59/59 58/58/58 53/53/53
f 60/60/60 57/57/57 58/58/58
f 60/60/60 61/61/61 57/57/57
f 62/62/62 60/60/60 58/58/58
f 62/62/62 58/58/58 59/59/59
f 63/63/63 62/62/62 59/59/59
f 64/64/64 62/62/62 63/63/63
f 65/65/65 64/64/64 63/63/63
f 68/68/68 67/67/67 66/66/66
f 68/68/68 69/69/69 67/67/67
f 69/69/69 70/70/70 67/67/67
f 67/67/67 70/70/70 71/71/71
f 70/70/70 72/72/72 71/71/71
f 71/71/71 72/72/72 73/73/73
f 72/72/72 74/74/74 73/73/73
f 72/72/72 75/75/75 74/74/74
f 75/75/75 76/76/76 74/74/74
f 70/70/70 77/77/77 72/72/72
f 77/77/77 75/75/75 72/72/72
f 69/69/69 78/78/78 70/70/70
f 78/78/78 77/77/77 70/70/70
f 79/79/79 78/78/78 69/69/69
f 80/80/80 79/79/79 69/69/69
f 78/78/78 81/81/81 77/77/77
f 75/75/75 82/82/82 76/76/76
f 82/82/82 83/83/83 76/76/76
f 77/77/77 84/84/84 75/75/75
f 81/81/81 84/84/84 77/77/77
f 84/84/84 82/82/82 75/75/75
f 81/81/81 85/85/85 84/84/84
f 86/86/86 85/85/85 81/81/81
f 86/86/86 87/87/87 85/85/85
f 87/87/87 88/88/88 85/85/85
f 87/87/87 89/89/89 88/88/88
f 84/84/84 90/90/90 82/82/82
f 82/82/82 91/91/91 83/83/83
f 90/90/90 91/91/91 82/82/82
f 91/91/91 92/92/92 83/83/83
f 90/90/90 93/93/93 91/91/91
f 91/91/91 94/94/94 92/92/92
f 93/93/93 94/94/94 91/91/91
f 94/94/94 95/95/95 92/92/92
f 93/93/93 96/96/96 94/94/94
f 97/97/97 96/96/96 93/93/93
f 94/94/94 98/98/98 95/95/95
f 96/96/96 98/98/98 94/94/94
f 97/97/97 99/99/99 96/96/96
f 100/100/100 99/99/99 97/97/97
f 100/100/100 101/101/101 99/99/99
f 99/99/99 102/102/102 96/96/96
f 96/96/96 102/102/102 98/98/98
f 101/101/101 103/103/103 99/99/99
f 99/99/99 103/103/103 102/102/102
f 101/101/101 104/104/104 103/103/103
f 104/104/104 105/105/105 103/103/103
f 103/103/103 105/105/105 106/106/106
f 103/103/103 106/106/106 102/102/102
f 102/102/102 106/106/106 107/107/107
f 102/102/102 107/107/107 98/98/98
f 106/106/106 108/108/108 107/107/107
f 107/107/107 108/108/108 109/109/109
f 107/107/107 109/109/109 110/110/110
f 98/98/98 107/107/107 110/110/110
f 98/98/98 110/110/110 95/95/95
f 95/95/95 110/110/110 111/111/111
f 95/95/95 111/111/111 112/112/112
f 115/115/115 114/114/114 113/113/113
f 116/116/116 114/114/114 115/115/115
f 116/116/116 117/117/117 114/114/114
f 117/117/117 118/118/118 114/114/114
f 114/114/114 118/118/118 119/119/119
f 118/118/118 120/120/120 119/119/119
f 118/118/118 121/121/121 120/120/120
f 122/122/122 121/121/121 118/118/118
f 121/121/121 123/123/123 120/120/120
f 120/120/120 123/123/123 124/124/124
f 123/123/123 125/125/125 124/124/124
f 123/123/123 126/126/126 125/125/125
f 122/122/122 127/127/127 121/121/121
f 128/128/128 127/127/127 122/122/122
f 121/121/121 129/129/129 123/123/123
f 127/127/127 129/129/129 121/121/121
f 129/129/129 126/126/126 123/123/123
f 127/127/127 130/130/130 129/129/129
f 129/129/129 131/131/131 126/126/126
f 130/130/130 131/131/131 129/129/129
f 131/131/131 132/132/132 126/126/126
f 130/130/130 133/133/133 131/131/131
f 131/131/131 134/134/134 132/132/132
f 133/133/133 134/134/134 131/131/131
f 133/133/133 135/135/135 134/134/134
f 134/134/134 136/136/136 132/132/132
f 135/135/135 137/137/137 134/134/134
f 134/134/134 137/137/137 136/136/136
f 135/135/135 138/138/138 137/137/137
f 138/138/138 139/139/139 137/137/137
f 138/138/138 140/140/140 139/139/139
f 140/140/140 141/141/141 139/139/139
f 139/139/139 141/141/141 142/142/142
f 141/141/141 143/143/143 142/142/142
f 139/139/139 142/142/142 144/144/144
f 137/137/137 139/139/139 144/144/144
f 137/137/137 144/144/144 136/136/136
f 136/136/136 144/144/144 145/145/145
f 136/136/136 145/145/145 146/146/146
f 146/146/146 145/145/145 147/147/147
f 146/146/146 147/147/147 148/148/148
f 149/149/149 146/146/146 148/148/148
f 149/149/149 148/148/148 150/150/150
f 153/153/153 152/152/152 151/151/151
f 154/154/154 152/152/152 153/153/153
f 155/155/155 154/154/154 153/153/153
f 154/154/154 156/156/156 152/152/152
f 156/156/156 157/157/157 152/152/152
f 158/158/158 154/154/154 155/155/155
f 159/159/159 158/158/158 155/155/155
f 160/160/160 158/158/158 159/159/159
f 160/160/160 161/161/161 158/158/158
f 158/158/158 162/162/162 154/154/154
f 162/162/162 156/156/156 154/154/154
f 161/161/161 162/162/162 158/158/158
f 156/156/156 163/163/163 157/157/157
f 162/162/162 164/164/164 156/156/156
f 164/164/164 163/163/163 156/156/156
f 161/161/161 165/165/165 162/162/162
f 165/165/165 164/164/164 162/162/162
f 163/163/163 166/166/166 157/157/157
f 157/157/157 166/166/166 167/167/167
f 163/163/163 168/168/168 166/166/166
f 169/169/169 165/165/165 161/161/161
f 170/170/170 169/169/169 161/161/161
f 169/169/169 171/171/171 165/165/165
f 171/171/171 172/172/172 165/165/165
f 165/165/165 172/172/172 164/164/164
f 171/171/171 173/173/173 172/172/172
f 173/173/173 174/174/174 172/172/172
f 164/164/164 175/175/175 163/163/163
f 172/172/172 175/175/175 164/164/164
f 172/172/172 174/174/174 175/175/175
f 175/175/175 168/168/168 163/163/163
f 174/174/174 176/176/176 175/175/175
f 175/175/175 176/176/176 168/168/168
f 174/174/174 177/177/177 176/176/176
f 176/176/176 178/178/178 168/168/168
f 168/168/168 178/178/178 179/179/179
f 178/178/178 180/180/180 179/179/179
f 176/176/176 181/181/181 178/178/178
f 177/177/177 181/181/181 176/176/176
f 178/178/178 182/182/182 180/180/180
f 181/181/181 182/182/182 178/178/178
f 182/182/182 183/183/183 180/180/180
f 182/182/182 184/184/184 183/183/183
f 184/184/184 185/185/185 183/183/183
f 181/181/181 186/186/186 182/182/182
f 186/186/186 184/184/184 182/182/182
f 177/177/177 187/187/187 181/181/181
f 187/187/187 186/186/186 181/181/181
f 184/184/184 188/188/188 185/185/185
f 188/188/188 189/189/189 185/185/185
f 190/190/190 187/187/187 177/177/177
f 191/191/191 190/190/190 177/177/177
f 190/190/190 192/192/192 187/187/187
f 192/192/192 193/193/193 187/187/187
f 187/187/187 193/193/193 186/186/186
f 192/192/192 194/194/194 193/193/193
f 194/194/194 195/195/195 193/193/193
f 186/186/186 196/196/196 184/184/184
f 193/193/193 196/196/196 186/186/186
f 193/193/193 195/195/195 196/196/196
f 196/196/196 188/188/188 184/184/184
f 195/195/195 197/197/197 196/196/196
f 196/196/196 197/197/197 188/188/188
f 197/197/197 198/198/198 188/188/188
f 188/188/188 198/198/198 189/189/189
f 198/198/198 199/199/199 189/189/189
f 202/202/202 201/201/201 200/200/200
f 201/201/201 203/203/203 200/200/200
f 201/201/201 204/204/204 203/203/203
f 204/204/204 205/205/205 203/203/203
f 208/208/208 207/207/207 206/206/206
f 209/209/209 207/207/207 208/208/208
f 209/209/209 210/210/210 207/207/207
f 210/210/210 211/211/211 207/207/207
f 210/210/210 212/212/212 211/211/211
f 207/207/207 211/211/211 213/213/213
f 212/212/212 214/214/214 211/211/211
f 212/212/212 215/215/215 214/214/214
f 211/211/211 216/216/216 213/213/213
f 211/211/211 214/214/214 216/216/216
f 213/213/213 216/216/216 217/217/217
f 213/213/213 217/217/217 218/218/218
f 218/218/218 217/217/217 219/219/219
f 217/217/217 220/220/220 219/219/219
f 217/217/217 221/221/221 220/220/220
f 216/216/216 221/221/221 217/217/217
f 221/221/221 222/222/222 220/220/220
f 214/214/214 223/223/223 216/216/216
f 216/216/216 223/223/223 221/221/221
f 214/214/214 224/224/224 223/223/223
f 223/223/223 225/225/225 221/221/221
f 221/221/221 225/225/225 222/222/222
f 224/224/224 226/226/226 223/223/223
f 223/223/223 226/226/226 225/225/225
f 224/224/224 227/227/227 226/226/226
f 228/228/228 227/227/227 224/224/224
f 228/228/228 229/229/229 227/227/227
f 225/225/225 230/230/230 222/222/222
f 226/226/226 231/231/231 225/225/225
f 225/225/225 231/231/231 230/230/230
f 227/227/227 232/232/232 226/226/226
f 226/226/226 232/232/232 231/231/231
f 229/229/229 233/233/233 227/227/227
f 227/227/227 233/233/233 232/232/232
f 222/222/222 230/230/230 234/234/234
f 222/222/222 234/234/234 235/235/235
f 230/230/230 236/236/236 234/234/234
f 230/230/230 237/237/237 236/236/236
f 231/231/231 237/237/237 230/230/230
f 237/237/237 238/238/238 236/236/236
f 232/232/232 239/239/239 231/231/231
f 231/231/231 239/239/239 237/237/237
f 237/237/237 240/240/240 238/238/238
f 239/239/239 240/240/240 237/237/237
f 240/240/240 241/241/241 238/238/238
f 232/232/232 242/242/242 239/239/239
f 233/233/233 242/242/242 232/232/232
f 229/229/229 243/243/243 233/233/233
f 244/244/244 243/243/243 229/229/229
f 239/239/239 245/245/245 240/240/240
f 242/242/242 245/245/245 239/239/239
f 233/233/233 246/246/246 242/242/242
f 243/243/243 246/246/246 233/233/233
f 240/240/240 247/247/247 241/241/241
f 245/245/245 247/247/247 240/240/240
f 242/242/242 248/248/248 245/245/245
f 246/246/246 248/248/248 242/242/242
f 245/245/245 249/249/249 247/247/247
f 248/248/248 249/249/249 245/245/245
f 244/244/244 250/250/250 243/243/243
f 250/250/250 251/251/251 243/243/243
f 243/243/243 251/251/251 246/246/246
f 252/252/252 250/250/250 244/244/244
f 253/253/253 252/252/252 244/244/244
f 254/254/254 252/252/252 253/253/253
f 251/251/251 255/255/255 246/246/246
f 246/246/246 255/255/255 248/248/248
f 255/255/255 256/256/256 248/248/248
f 248/248/248 256/256/256 249/249/249
f 256/256/256 257/257/257 249/249/249
f 249/249/249 257/257/257 258/258/258
f 249/249/249 258/258/258 247/247/247
f 257/257/257 259/259/259 258/258/258
f 247/247/247 258/258/258 260/260/260
f 247/247/247 260/260/260 241/241/241
f 258/258/258 259/259/259 261/261/261
f 258/258/258 261/261/261 260/260/260
f 259/259/259 262/262/262 261/261/261
f 261/261/261 262/262/262 263/263/263
f 261/261/261 263/263/263 264/264/264
f 260/260/260 261/261/261 264/264/264
f 260/260/260 264/264/264 265/265/265
f 241/241/241 260/260/260 265/265/265
f 241/241/241 265/265/265 266/266/266
f 269/269/269 268/268/268 267/267/267
f 269/269/269 270/270/270 268/268/268
f 270/270/270 271/271/271 268/268/268
f 270/270/270 272/272/272 271/271/271
f 272/272/272 273/273/273 271/271/271
f 272/272/272 274/274/274 273/273/273
f 277/277/277 276/276/276 275/275/275
f 278/278/278 277/277/277 275/275/275
f 281/281/281 280/280/280 279/279/279
f 282/282/282 280/280/280 281/281/281
f 283/283/283 280/280/280 282/282/282
f 284/284/284 280/280/280 283/283/283
f 285/285/285 280/280/280 284/284/284
f 286/286/286 280/280/280 285/285/285
f 287/287/287 280/280/280 286/286/286
f 288/288/288 280/280/280 287/287/287
f 289/289/289 280/280/280 288/288/288
f 292/292/292 291/291/291 290/290/290
f 290/290/290 291/291/291 293/293/293
f 293/293/293 291/291/291 294/294/294
f 294/294/294 291/291/291 295/295/295
f 295/295/295 291/291/291 296/296/296
f 296/296/296 291/291/291 297/297/297
f 297/297/297 291/291/291 298/298/298
f 301/301/301 300/300/300 299/299/299
f 299/299/299 300/300/300 302/302/302
f 300/300/300 303/303/303 302/302/302
f 302/302/302 303/303/303 304/304/304
f 303/303/303 305/305/305 304/304/304
f 304/304/304 305/305/305 306/306/306
f 305/305/305 307/307/307 306/306/306
f 306/306/306 307/307/307 308/308/308
f 307/307/307 309/309/309 308/308/308
f 308/308/308 309/309/309 310/310/310
f 309/309/309 311/311/311 310/310/310
f 310/310/310 311/311/311 312/312/312
f 311/311/311 313/313/313 312/312/312
f 312/312/312 313/313/313 314/314/314
f 313/313/313 315/315/315 314/314/314
f 314/314/314 315/315/315 316/316/316
f 315/315/315 317/317/317 316/316/316
f 320/320/320 319/319/319 318/318/318
f 319/319/319 321/321/321 318/318/318
f 318/318/318 321/321/321 322/322/322
f 321/321/321 323/323/323 322/322/322
f 322/322/322 323/323/323 324/324/324
f 323/323/323 325/325/325 324/324/324
f 324/324/324 325/325/325 326/326/326
f 325/325/325 327/327/327 326/326/326
f 326/326/326 327/327/327 328/328/328
f 327/327/327 329/329/329 328/328/328
f 332/332/332 331/331/331 330/330/330
f 331/331/331 333/333/333 330/330/330
f 330/330/330 333/333/333 334/334/334
f 333/333/333 335/335/335 334/334/334
f 338/338/338 337/337/337 336/336/336
f 336/336/336 337/337/337 339/339/339
f 340/340/340 337/337/337 338/338/338
f 339/339/339 337/337/337 341/341/341
f 342/342/342 337/337/337 340/340/340
f 341/341/341 337/337/337 343/343/343
f 344/344/344 337/337/337 342/342/342
f 343/343/343 337/337/337 345/345/345
f 346/346/346 337/337/337 344/344/344
f 345/345/345 337/337/337 347/347/347
f 348/348/348 337/337/337 346/346/346
f 347/347/347 337/337/337 349/349/349
f 350/350/350 337/337/337 348/348/348
f 349/349/349 337/337/337 351/351/351
f 352/352/352 337/337/337 350/350/350
f 351/351/351 337/337/337 352/352/352
