mtllib material.mtl
usemtl material_0
v -0.00500000 0.01000015 0.00499970
v -0.00500000 0.01000015 -0.00499962
v 0.00500000 0.01000015 -0.00499962
v 0.00500000 0.01000015 0.00499970
v 0.01320190 0.08194825 0.11811310
v 0.01367554 0.20020130 0.01832214
v 0.03353577 0.20020130 -0.00234459
v 0.03644959 0.08194825 0.10432250
v 0.07245850 0.20020130 -0.01806114
v 0.07245850 0.08194825 0.09289612
v 0.10626530 0.20020130 -0.02173126
v 0.10626530 0.08194825 0.08879913
v 0.14007200 0.20020130 -0.01806114
v 0.14007200 0.08194825 0.09289612
v 0.17899350 0.20020130 -0.00234497
v 0.17608090 0.08194825 0.10432250
v 0.19932860 0.08194825 0.11811310
v 0.19885560 0.20020130 0.01832214
v 0.17846130 0.30581710 -0.00289764
v 0.19885560 0.20020130 0.01832214
v 0.19861150 0.30181390 0.01806824
v 0.14007200 0.30924080 -0.01816734
v 0.10626530 0.31021460 -0.02178345
v 0.07245850 0.30924080 -0.01816734
v 0.03406921 0.30581710 -0.00289764
v 0.01367554 0.20020130 0.01832214
v 0.01391907 0.30181390 0.01806824
v 0.03644959 0.08194825 0.10432250
v 0.01338501 0.06787072 0.11800480
v 0.01320190 0.08194825 0.11811310
v 0.03727539 0.06787072 0.10383240
v 0.07245850 0.08194825 0.09289612
v 0.07245850 0.06787072 0.09279571
v 0.10626530 0.08194825 0.08879913
v 0.10626530 0.06787072 0.08874694
v 0.14007200 0.08194825 0.09289612
v 0.14007200 0.06787072 0.09279571
v 0.17608090 0.08194825 0.10432250
v 0.17525450 0.06787072 0.10383240
v 0.19932860 0.08194825 0.11811310
v 0.19914550 0.06787072 0.11800480
v 0.11847600 0.30995750 0.15543180
v 0.11847600 0.32535920 0.15543180
v 0.11561030 0.32535920 0.15114350
v 0.11561030 0.30995750 0.15114350
v 0.11132320 0.32535920 0.14827910
v 0.11132320 0.30995750 0.14827910
v 0.11132320 0.30995750 0.14827910
v 0.11132320 0.32535920 0.14827910
v 0.10626530 0.32535920 0.14727260
v 0.10626530 0.30995750 0.14727260
v 0.10120790 0.32535920 0.14827910
v 0.10120790 0.30995750 0.14827910
v 0.10120790 0.30995750 0.14827910
v 0.10120790 0.32535920 0.14827910
v 0.09691894 0.32535920 0.15114350
v 0.09691894 0.30995750 0.15114350
v 0.09405395 0.32535920 0.15543180
v 0.09405395 0.30995750 0.15543180
v 0.09304810 0.32535920 0.16048950
v 0.09304810 0.30995750 0.16048950
v 0.09405395 0.32535920 0.16554780
v 0.09405395 0.30995750 0.16554780
v 0.09691894 0.32535920 0.16983610
v 0.09691894 0.30995750 0.16983610
v 0.10120790 0.32535920 0.17270080
v 0.10120790 0.30995750 0.17270080
v 0.10120790 0.30995750 0.17270080
v 0.10120790 0.32535920 0.17270080
v 0.10626530 0.32535920 0.17370760
v 0.10626530 0.30995750 0.17370760
v 0.11132320 0.32535920 0.17270080
v 0.11132320 0.30995750 0.17270080
v 0.11132320 0.30995750 0.17270080
v 0.11132320 0.32535920 0.17270080
v 0.11561030 0.32535920 0.16983610
v 0.11561030 0.30995750 0.16983610
v 0.11847600 0.32535920 0.16554780
v 0.11847600 0.30995750 0.16554780
v 0.11948180 0.32535920 0.16048950
v 0.11948180 0.30995750 0.16048950
v 0.11132320 0.30995750 0.14827910
v 0.11212710 0.30475160 0.14633610
v 0.11709900 0.30475160 0.14965670
v 0.11561030 0.30995750 0.15114350
v 0.12041870 0.30475160 0.15462680
v 0.11847600 0.30995750 0.15543180
v 0.10626530 0.30995750 0.14727260
v 0.11212710 0.30475160 0.14633610
v 0.11132320 0.30995750 0.14827910
v 0.10626530 0.30475160 0.14516940
v 0.10120790 0.30995750 0.14827910
v 0.10040160 0.30475160 0.14633610
v 0.09691894 0.30995750 0.15114350
v 0.09543213 0.30475160 0.14965670
v 0.10040160 0.30475160 0.14633610
v 0.10120790 0.30995750 0.14827910
v 0.09405395 0.30995750 0.15543180
v 0.09211060 0.30475160 0.15462680
v 0.09304810 0.30995750 0.16048950
v 0.09094543 0.30475160 0.16048950
v 0.09405395 0.30995750 0.16554780
v 0.09211060 0.30475160 0.16635280
v 0.09691894 0.30995750 0.16983610
v 0.09543213 0.30475160 0.17132290
v 0.10120790 0.30995750 0.17270080
v 0.10040160 0.30475160 0.17464420
v 0.10626530 0.30995750 0.17370760
v 0.10040160 0.30475160 0.17464420
v 0.10120790 0.30995750 0.17270080
v 0.10626530 0.30475160 0.17581020
v 0.11132320 0.30995750 0.17270080
v 0.11212710 0.30475160 0.17464420
v 0.11561030 0.30995750 0.16983610
v 0.11212710 0.30475160 0.17464420
v 0.11132320 0.30995750 0.17270080
v 0.11709900 0.30475160 0.17132290
v 0.11847600 0.30995750 0.16554780
v 0.12041870 0.30475160 0.16635280
v 0.11948180 0.30995750 0.16048950
v 0.12158510 0.30475160 0.16048950
v 0.11212710 0.30099320 0.14633610
v 0.11156250 0.29381780 0.15519230
v 0.11709900 0.30099320 0.14965670
v 0.10913210 0.29381780 0.15356930
v 0.10626530 0.30099320 0.14516940
v 0.10626530 0.29381780 0.15299830
v 0.10040160 0.30099320 0.14633610
v 0.10339840 0.29381780 0.15356930
v 0.09543213 0.30099320 0.14965670
v 0.10096860 0.29381780 0.15519230
v 0.09211060 0.30099320 0.15462680
v 0.10096860 0.29381780 0.15519230
v 0.09543213 0.30099320 0.14965670
v 0.09934326 0.29381780 0.15762270
v 0.09094543 0.30099320 0.16048950
v 0.09877319 0.29381780 0.16048950
v 0.09211060 0.30099320 0.16635280
v 0.09934326 0.29381780 0.16335690
v 0.09543213 0.30099320 0.17132290
v 0.10096860 0.29381780 0.16578740
v 0.10040160 0.30099320 0.17464420
v 0.10339840 0.29381780 0.16741090
v 0.10096860 0.29381780 0.16578740
v 0.09543213 0.30099320 0.17132290
v 0.10626530 0.30099320 0.17581020
v 0.10626530 0.29381780 0.16798130
v 0.11212710 0.30099320 0.17464420
v 0.10913210 0.29381780 0.16741090
v 0.11709900 0.30099320 0.17132290
v 0.11156250 0.29381780 0.16578740
v 0.12041870 0.30099320 0.16635280
v 0.11156250 0.29381780 0.16578740
v 0.11709900 0.30099320 0.17132290
v 0.11318600 0.29381780 0.16335690
v 0.12158510 0.30099320 0.16048950
v 0.11375610 0.29381780 0.16048950
v 0.12041870 0.30099320 0.15462680
v 0.11318600 0.29381780 0.15762270
v 0.11709900 0.30099320 0.14965670
v 0.11156250 0.29381780 0.15519230
v 0.10913210 0.29381780 0.15356930
v 0.10806580 0.28753630 0.15614470
v 0.10959040 0.28753630 0.15716400
v 0.11156250 0.29381780 0.15519230
v 0.11060970 0.28753630 0.15868990
v 0.11318600 0.29381780 0.15762270
v 0.11096740 0.28753630 0.16048950
v 0.11375610 0.29381780 0.16048950
v 0.11060970 0.28753630 0.16228970
v 0.11318600 0.29381780 0.16335690
v 0.10959040 0.28753630 0.16381560
v 0.11156250 0.29381780 0.16578740
v 0.10626530 0.29381780 0.15299830
v 0.10806580 0.28753630 0.15614470
v 0.10913210 0.29381780 0.15356930
v 0.10626530 0.28753630 0.15578710
v 0.10339840 0.29381780 0.15356930
v 0.10446530 0.28753630 0.15614470
v 0.10096860 0.29381780 0.15519230
v 0.10293940 0.28753630 0.15716400
v 0.10446530 0.28753630 0.15614470
v 0.10339840 0.29381780 0.15356930
v 0.09934326 0.29381780 0.15762270
v 0.10192020 0.28753630 0.15868990
v 0.09877319 0.29381780 0.16048950
v 0.10156130 0.28753630 0.16048950
v 0.09934326 0.29381780 0.16335690
v 0.10192020 0.28753630 0.16228970
v 0.10096860 0.29381780 0.16578740
v 0.10293940 0.28753630 0.16381560
v 0.10339840 0.29381780 0.16741090
v 0.10446530 0.28753630 0.16483490
v 0.10626530 0.29381780 0.16798130
v 0.10446530 0.28753630 0.16483490
v 0.10339840 0.29381780 0.16741090
v 0.10626530 0.28753630 0.16519320
v 0.10913210 0.29381780 0.16741090
v 0.10806580 0.28753630 0.16483490
v 0.10806580 0.28753630 0.16483490
v 0.10913210 0.29381780 0.16741090
v 0.11212710 0.30475160 0.14633610
v 0.11212710 0.30099320 0.14633610
v 0.11709900 0.30099320 0.14965670
v 0.11709900 0.30475160 0.14965670
v 0.10626530 0.30475160 0.14516940
v 0.10626530 0.30099320 0.14516940
v 0.11212710 0.30099320 0.14633610
v 0.11212710 0.30475160 0.14633610
v 0.10040160 0.30475160 0.14633610
v 0.10040160 0.30099320 0.14633610
v 0.10626530 0.30099320 0.14516940
v 0.10626530 0.30475160 0.14516940
v 0.09543213 0.30475160 0.14965670
v 0.09543213 0.30099320 0.14965670
v 0.10040160 0.30099320 0.14633610
v 0.10040160 0.30475160 0.14633610
v 0.09211060 0.30475160 0.15462680
v 0.09211060 0.30099320 0.15462680
v 0.09543213 0.30099320 0.14965670
v 0.09543213 0.30475160 0.14965670
v 0.09094543 0.30475160 0.16048950
v 0.09094543 0.30099320 0.16048950
v 0.09211060 0.30099320 0.15462680
v 0.09211060 0.30475160 0.15462680
v 0.09211060 0.30475160 0.16635280
v 0.09211060 0.30099320 0.16635280
v 0.09094543 0.30099320 0.16048950
v 0.09094543 0.30475160 0.16048950
v 0.09543213 0.30475160 0.17132290
v 0.09543213 0.30099320 0.17132290
v 0.09211060 0.30099320 0.16635280
v 0.09211060 0.30475160 0.16635280
v 0.10040160 0.30475160 0.17464420
v 0.10040160 0.30099320 0.17464420
v 0.09543213 0.30099320 0.17132290
v 0.09543213 0.30475160 0.17132290
v 0.10626530 0.30475160 0.17581020
v 0.10626530 0.30099320 0.17581020
v 0.10040160 0.30099320 0.17464420
v 0.10040160 0.30475160 0.17464420
v 0.11212710 0.30475160 0.17464420
v 0.11212710 0.30099320 0.17464420
v 0.10626530 0.30099320 0.17581020
v 0.10626530 0.30475160 0.17581020
v 0.11709900 0.30475160 0.17132290
v 0.11709900 0.30099320 0.17132290
v 0.11212710 0.30099320 0.17464420
v 0.11212710 0.30475160 0.17464420
v 0.12041870 0.30475160 0.16635280
v 0.12041870 0.30099320 0.16635280
v 0.11709900 0.30099320 0.17132290
v 0.11709900 0.30475160 0.17132290
v 0.12158510 0.30475160 0.16048950
v 0.12158510 0.30099320 0.16048950
v 0.12041870 0.30099320 0.16635280
v 0.12041870 0.30475160 0.16635280
v 0.12041870 0.30475160 0.15462680
v 0.12041870 0.30099320 0.15462680
v 0.12158510 0.30099320 0.16048950
v 0.12158510 0.30475160 0.16048950
v 0.11709900 0.30475160 0.14965670
v 0.11709900 0.30099320 0.14965670
v 0.12041870 0.30099320 0.15462680
v 0.12041870 0.30475160 0.15462680
v -0.08984253 0.27347200 0.09437225
v -0.08984253 0.27186380 0.09273101
v -0.08384399 0.26900070 0.09553650
v -0.08384399 0.27060890 0.09717773
v -0.07983521 0.26471580 0.09973480
v -0.07983521 0.26632400 0.10137600
v -0.07842712 0.25966140 0.10468720
v -0.07842712 0.26126960 0.10632840
v -0.09691894 0.27447770 0.09338745
v -0.08984253 0.27186380 0.09273101
v -0.08984253 0.27347200 0.09437225
v -0.09691894 0.27286930 0.09174621
v -0.10399540 0.27347200 0.09437225
v -0.10399540 0.27186380 0.09273101
v -0.10999390 0.27060920 0.09717803
v -0.10399540 0.27186380 0.09273101
v -0.10399540 0.27347200 0.09437225
v -0.10999390 0.26900080 0.09553650
v -0.11400210 0.26632430 0.10137630
v -0.11400210 0.26471580 0.09973480
v -0.11540950 0.26126990 0.10632870
v -0.11540950 0.25966150 0.10468750
v -0.11400210 0.25621520 0.11128080
v -0.11400210 0.25460700 0.10963960
v -0.10999390 0.25193030 0.11547940
v -0.10999390 0.25032220 0.11383820
v -0.10399540 0.24906710 0.11828460
v -0.10399540 0.24745900 0.11664370
v -0.09691894 0.24806210 0.11927000
v -0.10399540 0.24745900 0.11664370
v -0.10399540 0.24906710 0.11828460
v -0.09691894 0.24645370 0.11762880
v -0.08984253 0.24906710 0.11828460
v -0.08984253 0.24745890 0.11664340
v -0.08384399 0.25193030 0.11547940
v -0.08984253 0.24745890 0.11664340
v -0.08984253 0.24906710 0.11828460
v -0.08384399 0.25032210 0.11383820
v -0.07983521 0.25621520 0.11128080
v -0.07983521 0.25460700 0.10963960
v -0.08044067 0.26126960 0.10632840
v -0.08073974 0.26016950 0.10520540
v -0.08197144 0.26459150 0.10087250
v -0.08169556 0.26577380 0.10191530
v -0.08547851 0.26834110 0.09719849
v -0.08526734 0.26959210 0.09817383
v -0.09072693 0.27084620 0.09474395
v -0.09061340 0.27214390 0.09567443
v -0.09061340 0.27214390 0.09567443
v -0.09072693 0.27084620 0.09474395
v -0.09691894 0.27172610 0.09388183
v -0.09691894 0.27303980 0.09479645
v -0.10311160 0.27084590 0.09474395
v -0.10322450 0.27214350 0.09567413
v -0.10322450 0.27214350 0.09567413
v -0.10311160 0.27084590 0.09474395
v -0.10836000 0.26834090 0.09719879
v -0.10856990 0.26959240 0.09817444
v -0.11186710 0.26459210 0.10087190
v -0.11214230 0.26577410 0.10191560
v -0.11309940 0.26017010 0.10520480
v -0.11339780 0.26126990 0.10632870
v -0.11186710 0.25574630 0.10953920
v -0.11214230 0.25676550 0.11074160
v -0.10835940 0.25199720 0.11321230
v -0.10856990 0.25294710 0.11448300
v -0.10310910 0.24949190 0.11566710
v -0.10322450 0.25039570 0.11698300
v -0.10322450 0.25039570 0.11698300
v -0.10310910 0.24949190 0.11566710
v -0.09691894 0.24861240 0.11652920
v -0.09691894 0.24950000 0.11786130
v -0.09072693 0.24949250 0.11566710
v -0.09061340 0.25039600 0.11698330
v -0.09061340 0.25039600 0.11698330
v -0.09072693 0.24949250 0.11566710
v -0.08547851 0.25199770 0.11321230
v -0.08526734 0.25294740 0.11448330
v -0.08197144 0.25574640 0.10953920
v -0.08169556 0.25676550 0.11074160
v 0.20456240 0.01520572 0.24685550
v 0.20439510 0.01520572 0.08507110
v 0.14393490 0.01520572 0.08507110
v 0.14456300 0.01520572 0.24613010
v 0.07196838 0.01520572 0.08507110
v 0.07342529 0.01520572 0.24015960
v 0.01440247 0.01520572 0.08507110
v 0.01623230 0.01520572 0.23202640
v 0.20456240 0.01520572 0.24685550
v 0.14456300 0.03120569 0.24613010
v 0.20456240 0.03120569 0.24685550
v 0.14456300 0.01520572 0.24613010
v 0.07342529 0.01520572 0.24015960
v 0.07342529 0.03120569 0.24015960
v 0.01623230 0.01520572 0.23202640
v 0.01623230 0.03120569 0.23202640
v 0.10806580 0.28753630 0.15614470
v 0.10626530 0.28753630 0.16048950
v 0.10959040 0.28753630 0.15716400
v 0.10626530 0.28753630 0.15578710
v 0.11060970 0.28753630 0.15868990
v 0.10446530 0.28753630 0.15614470
v 0.11096740 0.28753630 0.16048950
v 0.10293940 0.28753630 0.15716400
v 0.11060970 0.28753630 0.16228970
v 0.10192020 0.28753630 0.15868990
v 0.10959040 0.28753630 0.16381560
v 0.10156130 0.28753630 0.16048950
v 0.10806580 0.28753630 0.16483490
v 0.10192020 0.28753630 0.16228970
v 0.10626530 0.28753630 0.16519320
v 0.10293940 0.28753630 0.16381560
v 0.10446530 0.28753630 0.16483490
v -0.08526734 0.26959210 0.09817383
v -0.07983521 0.26632400 0.10137600
v -0.08169556 0.26577380 0.10191530
v -0.08384399 0.27060890 0.09717773
v -0.07842712 0.26126960 0.10632840
v -0.09061340 0.27214390 0.09567443
v -0.08044067 0.26126960 0.10632840
v -0.08984253 0.27347200 0.09437225
v -0.07983521 0.25621520 0.11128080
v -0.09691894 0.27303980 0.09479645
v -0.08169556 0.25676550 0.11074160
v -0.09691894 0.27447770 0.09338745
v -0.08384399 0.25193030 0.11547940
v -0.10322450 0.27214350 0.09567413
v -0.08526734 0.25294740 0.11448330
v -0.10399540 0.27347200 0.09437225
v -0.08984253 0.24906710 0.11828460
v -0.10856990 0.26959240 0.09817444
v -0.09061340 0.25039600 0.11698330
v -0.10999390 0.27060920 0.09717803
v -0.09691894 0.24806210 0.11927000
v -0.11214230 0.26577410 0.10191560
v -0.09691894 0.24950000 0.11786130
v -0.11400210 0.26632430 0.10137630
v -0.10399540 0.24906710 0.11828460
v -0.11339780 0.26126990 0.10632870
v -0.10322450 0.25039570 0.11698300
v -0.11540950 0.26126990 0.10632870
v -0.10999390 0.25193030 0.11547940
v -0.11214230 0.25676550 0.11074160
v -0.10856990 0.25294710 0.11448300
v -0.11400210 0.25621520 0.11128080
vn 0.00000000 1.00000000 0.00000000
vn 0.00000000 1.00000000 0.00000000
vn 0.00000000 1.00000000 0.00000000
vn 0.00000000 1.00000000 0.00000000
vn 0.51431600 0.56698640 0.64343260
vn 0.51431590 0.56698640 0.64343250
vn 0.43853430 0.38871700 0.81030040
vn 0.38060200 0.62068170 0.68548980
vn 0.21813900 0.41307350 0.88418650
vn 0.18416030 0.66926360 0.71984110
vn 0.00000000 0.42926330 0.90317950
vn 0.00000000 0.68354780 0.72990580
vn -0.21813980 0.41306960 0.88418800
vn -0.18416230 0.66925690 0.71984680
vn -0.43853360 0.38871360 0.81030250
vn -0.38060050 0.62068060 0.68549160
vn -0.51429670 0.56700470 0.64343180
vn -0.51429670 0.56700480 0.64343190
vn -0.51331750 -0.00598280 0.85817780
vn -0.72100230 0.00000000 0.69293250
vn -0.72172220 -0.00853066 0.69213030
vn -0.25060560 -0.00235620 0.96808640
vn 0.00000000 -0.00041674 1.00000000
vn 0.25060590 -0.00236261 0.96808630
vn 0.51331690 -0.00599059 0.85817820
vn 0.72101640 -0.00000402 0.69291790
vn 0.72173490 -0.00853459 0.69211700
vn 0.39648420 -0.00624923 0.91802030
vn 0.51019790 -0.00000099 0.86005700
vn 0.51019790 -0.00000099 0.86005700
vn 0.38761460 -0.00671795 0.92179700
vn 0.21542140 -0.00844869 0.97648460
vn 0.21524810 -0.00844315 0.97652290
vn 0.00000000 -0.00542005 0.99998530
vn 0.00000000 -0.00542005 0.99998530
vn -0.21542230 -0.00846279 0.97648440
vn -0.21524900 -0.00845723 0.97652260
vn -0.39648660 -0.00625191 0.91801920
vn -0.38761210 -0.00672305 0.92179800
vn -0.44758840 -0.00203465 0.89423730
vn -0.44220260 -0.00220789 0.89691250
vn 0.92387170 0.00000000 -0.38270230
vn 0.92387170 0.00000000 -0.38270230
vn 0.70710770 0.00000000 -0.70710590
vn 0.70710770 0.00000000 -0.70710590
vn 0.38268270 0.00000000 -0.92387980
vn 0.38268270 0.00000000 -0.92387980
vn 0.38268270 0.00000000 -0.92387980
vn 0.38268270 0.00000000 -0.92387980
vn 0.00000000 0.00000000 -1.00000000
vn 0.00000000 0.00000000 -1.00000000
vn -0.38263990 0.00000000 -0.92389750
vn -0.38263990 0.00000000 -0.92389750
vn -0.38263990 0.00000000 -0.92389750
vn -0.38263990 0.00000000 -0.92389750
vn -0.70704710 0.00000000 -0.70716640
vn -0.70704710 0.00000000 -0.70716640
vn -0.92389300 0.00000000 -0.38265110
vn -0.92389300 0.00000000 -0.38265110
vn -1.00000000 0.00000000 0.00000000
vn -1.00000000 0.00000000 0.00000000
vn -0.92390230 0.00000000 0.38262860
vn -0.92390230 0.00000000 0.38262860
vn -0.70706180 0.00000000 0.70715170
vn -0.70706180 0.00000000 0.70715170
vn -0.38269420 0.00000000 0.92387500
vn -0.38269420 0.00000000 0.92387500
vn -0.38269420 0.00000000 0.92387500
vn -0.38269420 0.00000000 0.92387500
vn 0.00000000 0.00000000 1.00000000
vn 0.00000000 0.00000000 1.00000000
vn 0.38273710 0.00000000 0.92385730
vn 0.38273710 0.00000000 0.92385730
vn 0.38273710 0.00000000 0.92385730
vn 0.38273710 0.00000000 0.92385730
vn 0.70712230 0.00000000 0.70709120
vn 0.70712230 0.00000000 0.70709120
vn 0.92388110 0.00000000 0.38267980
vn 0.92388110 0.00000000 0.38267980
vn 1.00000000 0.00000000 0.00000000
vn 1.00000000 0.00000000 0.00000000
vn 0.35483530 0.37455260 -0.85662250
vn 0.35480110 0.37455260 -0.85663680
vn 0.65562900 0.37457870 -0.65562300
vn 0.65558950 0.37457870 -0.65566230
vn 0.85660770 0.37461990 -0.35480030
vn 0.85661380 0.37461990 -0.35478560
vn -0.00000066 0.37458220 -0.92719370
vn 0.35480110 0.37455260 -0.85663680
vn 0.35483530 0.37455260 -0.85662250
vn -0.00000153 0.37458220 -0.92719370
vn -0.35477100 0.37460800 -0.85662510
vn -0.35482240 0.37460800 -0.85660370
vn -0.65558960 0.37459340 -0.65565390
vn -0.65559310 0.37459340 -0.65565040
vn -0.35482240 0.37460800 -0.85660370
vn -0.35477100 0.37460800 -0.85662510
vn -0.85667690 0.37444880 -0.35481370
vn -0.85667430 0.37444890 -0.35482030
vn -0.92727130 0.37439010 -0.00000048
vn -0.92727130 0.37439020 0.00000045
vn -0.85665390 0.37453790 0.35477500
vn -0.85665090 0.37453790 0.35478250
vn -0.65559270 0.37462740 0.65563150
vn -0.65559410 0.37462740 0.65563010
vn -0.35479850 0.37462600 0.85660570
vn -0.35484380 0.37462600 0.85658690
vn -0.00000238 0.37458120 0.92719410
vn -0.35484380 0.37462600 0.85658690
vn -0.35479850 0.37462600 0.85660570
vn -0.00000326 0.37458130 0.92719400
vn 0.35486220 0.37454860 0.85661330
vn 0.35482180 0.37454860 0.85663000
vn 0.65559430 0.37461220 0.65563850
vn 0.35482180 0.37454860 0.85663000
vn 0.35486220 0.37454860 0.85661330
vn 0.65563170 0.37461220 0.65560110
vn 0.85658340 0.37473030 0.35474210
vn 0.85657700 0.37473030 0.35475770
vn 0.92713300 0.37473240 -0.00000046
vn 0.92713300 0.37473240 0.00000045
vn 0.25853340 -0.73724110 -0.62420840
vn 0.47772710 -0.73721340 -0.47780030
vn 0.47773910 -0.73721340 -0.47778830
vn 0.25854460 -0.73724100 -0.62420380
vn -0.00000366 -0.73722650 -0.67564570
vn -0.00000160 -0.73722650 -0.67564560
vn -0.25857910 -0.73720280 -0.62423470
vn -0.25857350 -0.73720270 -0.62423710
vn -0.47771720 -0.73722050 -0.47779930
vn -0.47769640 -0.73722050 -0.47782010
vn -0.62425540 -0.73717520 -0.25860770
vn -0.47769640 -0.73722050 -0.47782010
vn -0.47771720 -0.73722050 -0.47779930
vn -0.62425290 -0.73717520 -0.25861370
vn -0.67577090 -0.73711180 0.00000068
vn -0.67577090 -0.73711170 -0.00000117
vn -0.62426510 -0.73716940 0.25860070
vn -0.62426330 -0.73716940 0.25860490
vn -0.47775180 -0.73721780 0.47776900
vn -0.47773650 -0.73721780 0.47778420
vn -0.25856510 -0.73720290 0.62424030
vn -0.25855820 -0.73720290 0.62424310
vn -0.47773650 -0.73721780 0.47778420
vn -0.47775180 -0.73721780 0.47776900
vn -0.00000847 -0.73719640 0.67567840
vn -0.00000641 -0.73719640 0.67567840
vn 0.25853600 -0.73724180 0.62420640
vn 0.25854580 -0.73724190 0.62420230
vn 0.47777340 -0.73719530 0.47778200
vn 0.47776710 -0.73719530 0.47778830
vn 0.62428000 -0.73718710 0.25851450
vn 0.47776710 -0.73719530 0.47778830
vn 0.47777340 -0.73719530 0.47778200
vn 0.62428460 -0.73718710 0.25850320
vn 0.67563970 -0.73723200 0.00000069
vn 0.67563960 -0.73723200 -0.00000116
vn 0.62428440 -0.73717820 -0.25852890
vn 0.62428830 -0.73717830 -0.25851940
vn 0.47773910 -0.73721340 -0.47778830
vn 0.47772710 -0.73721340 -0.47780030
vn 0.34970850 -0.40567790 -0.84446980
vn 0.34972070 -0.40567790 -0.84446480
vn 0.64628330 -0.40584770 -0.64622410
vn 0.64628560 -0.40584770 -0.64622170
vn 0.84442600 -0.40581480 -0.34965580
vn 0.84442110 -0.40581480 -0.34966740
vn 0.91399680 -0.40572130 0.00000172
vn 0.91399680 -0.40572130 0.00000413
vn 0.84447860 -0.40573000 0.34962700
vn 0.84447280 -0.40573000 0.34964090
vn 0.64632770 -0.40581210 0.64620200
vn 0.64632700 -0.40581200 0.64620270
vn 0.00000680 -0.40562360 -0.91404010
vn 0.34972070 -0.40567790 -0.84446480
vn 0.34970850 -0.40567790 -0.84446980
vn 0.00000538 -0.40562360 -0.91404010
vn -0.34973240 -0.40563950 -0.84447850
vn -0.34972360 -0.40563940 -0.84448210
vn -0.64623020 -0.40562670 -0.64641590
vn -0.64623550 -0.40562650 -0.64641070
vn -0.34972360 -0.40563940 -0.84448210
vn -0.34973240 -0.40563950 -0.84447850
vn -0.84434770 -0.40575230 -0.34991720
vn -0.84433920 -0.40575230 -0.34993780
vn -0.91395270 -0.40582070 0.00000382
vn -0.91395280 -0.40582070 0.00000140
vn -0.84438130 -0.40570700 0.34988850
vn -0.84437380 -0.40570700 0.34990680
vn -0.64626640 -0.40561060 0.64638980
vn -0.64627460 -0.40561060 0.64638170
vn -0.34977320 -0.40567020 0.84444670
vn -0.34977750 -0.40567030 0.84444500
vn -0.00000072 -0.40570340 0.91400480
vn -0.34977750 -0.40567030 0.84444500
vn -0.34977320 -0.40567020 0.84444670
vn -0.00000215 -0.40570340 0.91400480
vn 0.34975010 -0.40574900 0.84441860
vn 0.34977530 -0.40574890 0.84440800
vn 0.34977530 -0.40574890 0.84440800
vn 0.34975010 -0.40574900 0.84441860
vn 0.55539740 0.00000000 -0.83158510
vn 0.55539740 0.00000000 -0.83158510
vn 0.55539740 0.00000000 -0.83158510
vn 0.55539740 0.00000000 -0.83158510
vn 0.19519510 0.00000000 -0.98076440
vn 0.19519510 0.00000000 -0.98076440
vn 0.19519510 0.00000000 -0.98076440
vn 0.19519510 0.00000000 -0.98076440
vn -0.19513660 0.00000000 -0.98077610
vn -0.19513660 0.00000000 -0.98077610
vn -0.19513660 0.00000000 -0.98077610
vn -0.19513660 0.00000000 -0.98077610
vn -0.55558560 0.00000000 -0.83145930
vn -0.55558560 0.00000000 -0.83145930
vn -0.55558560 0.00000000 -0.83145930
vn -0.55558560 0.00000000 -0.83145930
vn -0.83142350 0.00000000 -0.55563920
vn -0.83142350 0.00000000 -0.55563920
vn -0.83142350 0.00000000 -0.55563920
vn -0.83142350 0.00000000 -0.55563920
vn -0.98081740 0.00000000 -0.19492860
vn -0.98081740 0.00000000 -0.19492860
vn -0.98081740 0.00000000 -0.19492860
vn -0.98081740 0.00000000 -0.19492860
vn -0.98082170 0.00000000 0.19490750
vn -0.98082170 0.00000000 0.19490750
vn -0.98082170 0.00000000 0.19490750
vn -0.98082170 0.00000000 0.19490750
vn -0.83142350 0.00000000 0.55563920
vn -0.83142350 0.00000000 0.55563920
vn -0.83142350 0.00000000 0.55563920
vn -0.83142350 0.00000000 0.55563920
vn -0.55565010 0.00000000 0.83141620
vn -0.55565010 0.00000000 0.83141620
vn -0.55565010 0.00000000 0.83141620
vn -0.55565010 0.00000000 0.83141620
vn -0.19504680 0.00000000 0.98079400
vn -0.19504680 0.00000000 0.98079400
vn -0.19504680 0.00000000 0.98079400
vn -0.19504680 0.00000000 0.98079400
vn 0.19510520 0.00000000 0.98078240
vn 0.19510520 0.00000000 0.98078240
vn 0.19510520 0.00000000 0.98078240
vn 0.19510520 0.00000000 0.98078240
vn 0.55546190 0.00000000 0.83154200
vn 0.55546190 0.00000000 0.83154200
vn 0.55546190 0.00000000 0.83154200
vn 0.55546190 0.00000000 0.83154200
vn 0.83156470 0.00000000 0.55542790
vn 0.83156470 0.00000000 0.55542790
vn 0.83156470 0.00000000 0.55542790
vn 0.83156470 0.00000000 0.55542790
vn 0.98078240 0.00000000 0.19510450
vn 0.98078240 0.00000000 0.19510450
vn 0.98078240 0.00000000 0.19510450
vn 0.98078240 0.00000000 0.19510450
vn 0.98077820 0.00000000 -0.19512560
vn 0.98077820 0.00000000 -0.19512560
vn 0.98077820 0.00000000 -0.19512560
vn 0.98077820 0.00000000 -0.19512560
vn 0.83156470 0.00000000 -0.55542790
vn 0.83156470 0.00000000 -0.55542790
vn 0.83156470 0.00000000 -0.55542790
vn 0.83156470 0.00000000 -0.55542790
vn 0.38268550 0.65987220 -0.64662240
vn 0.38269000 0.65987090 -0.64662110
vn 0.70711340 0.50505890 -0.49487990
vn 0.70711020 0.50506110 -0.49488210
vn 0.92385240 0.27339590 -0.26786460
vn 0.92384900 0.27340190 -0.26787040
vn 1.00000000 -0.00004865 0.00000169
vn 1.00000000 -0.00004400 -0.00000287
vn 0.00000912 0.71424310 -0.69989780
vn 0.38269000 0.65987090 -0.64662110
vn 0.38268550 0.65987220 -0.64662240
vn 0.00000912 0.71424310 -0.69989770
vn -0.38271430 0.65985190 -0.64662610
vn -0.38271480 0.65985170 -0.64662590
vn -0.70717700 0.50495430 -0.49489580
vn -0.38271480 0.65985170 -0.64662590
vn -0.38271430 0.65985190 -0.64662610
vn -0.70717480 0.50495590 -0.49489740
vn -0.92387760 0.27333770 -0.26783740
vn -0.92388030 0.27333280 -0.26783260
vn -1.00000000 0.00010082 -0.00001345
vn -1.00000000 0.00008086 0.00000611
vn -0.92387930 -0.27335690 0.26781160
vn -0.92387620 -0.27336250 0.26781700
vn -0.70711780 -0.50507620 0.49485590
vn -0.70711800 -0.50507610 0.49485580
vn -0.38268690 -0.65985470 0.64663950
vn -0.38268170 -0.65985620 0.64664100
vn 0.00001765 -0.71422010 0.69992110
vn -0.38268170 -0.65985620 0.64664100
vn -0.38268690 -0.65985470 0.64663950
vn 0.00001991 -0.71422010 0.69992110
vn 0.38268790 -0.65986410 0.64662910
vn 0.38268970 -0.65986360 0.64662870
vn 0.70711830 -0.50505100 0.49488090
vn 0.38268970 -0.65986360 0.64662870
vn 0.38268790 -0.65986410 0.64662910
vn 0.70711330 -0.50505450 0.49488440
vn 0.92383580 -0.27344750 0.26786910
vn 0.92383490 -0.27344910 0.26787080
vn -0.98242260 0.13059980 0.13337740
vn -0.98242260 0.13057490 0.13340180
vn -0.90762360 -0.13796110 0.39646690
vn -0.90760210 -0.13799830 0.39650330
vn -0.69471690 -0.36568180 0.61939110
vn -0.69472590 -0.36567530 0.61938470
vn -0.37602650 -0.51792690 0.76834610
vn -0.37593520 -0.51795390 0.76837260
vn -0.37593520 -0.51795390 0.76837260
vn -0.37602650 -0.51792690 0.76834610
vn 0.00000191 -0.57134430 0.82071050
vn -0.00000480 -0.57134430 0.82071050
vn 0.37608200 -0.51805370 0.76823350
vn 0.37590670 -0.51810540 0.76828440
vn 0.37590670 -0.51810540 0.76828440
vn 0.37608200 -0.51805370 0.76823350
vn 0.69477890 -0.36613810 0.61905180
vn 0.69469480 -0.36619820 0.61911060
vn 0.90768920 -0.13842250 0.39615620
vn 0.90770280 -0.13839890 0.39613310
vn 0.98248910 0.13034360 0.13313810
vn 0.98248910 0.13045150 0.13303240
vn 0.90769240 0.39893070 -0.13018800
vn 0.90772410 0.39887580 -0.13013420
vn 0.69471840 0.62659860 -0.35318640
vn 0.69469600 0.62661450 -0.35320200
vn 0.37591840 0.77884530 -0.50208110
vn 0.37607600 0.77879860 -0.50203540
vn 0.37607600 0.77879860 -0.50203540
vn 0.37591840 0.77884530 -0.50208110
vn -0.00003188 0.83222930 -0.55443170
vn -0.00003989 0.83222930 -0.55443170
vn -0.37605850 0.77877100 -0.50209130
vn -0.37595910 0.77880040 -0.50212030
vn -0.37595910 0.77880040 -0.50212030
vn -0.37605850 0.77877100 -0.50209130
vn -0.69481590 0.62655900 -0.35306460
vn -0.69480840 0.62656440 -0.35306990
vn -0.90771500 0.39897890 -0.12988150
vn -0.90774760 0.39892280 -0.12982640
vn 0.00000000 -1.00000000 0.00000000
vn 0.00000000 -1.00000000 0.00000000
vn 0.00000000 -1.00000000 0.00000000
vn 0.00000000 -1.00000000 0.00000000
vn 0.00000000 -1.00000000 0.00000000
vn 0.00000000 -1.00000000 0.00000000
vn 0.00000000 -1.00000000 0.00000000
vn 0.00000000 -1.00000000 0.00000000
vn -0.01208947 0.00000000 0.99992690
vn -0.05099353 0.00000000 0.99869890
vn -0.01208947 0.00000000 0.99992690
vn -0.05099353 0.00000000 0.99869890
vn -0.10924330 0.00000000 0.99401500
vn -0.10924330 0.00000000 0.99401500
vn -0.14079040 0.00000000 0.99003940
vn -0.14079040 0.00000000 0.99003940
vn 0.00000000 -1.00000000 0.00000000
vn 0.00000000 -1.00000000 0.00000088
vn 0.00000000 -1.00000000 0.00000423
vn 0.00000000 -1.00000000 -0.00000282
vn 0.00000000 -1.00000000 0.00000845
vn 0.00000000 -1.00000000 -0.00000563
vn 0.00000000 -1.00000000 0.00000000
vn 0.00000000 -1.00000000 -0.00000070
vn 0.00000000 -1.00000000 -0.00000845
vn 0.00000000 -1.00000000 0.00000423
vn 0.00000000 -1.00000000 -0.00000422
vn 0.00000000 -1.00000000 0.00000352
vn 0.00000000 -1.00000000 0.00000000
vn 0.00000000 -1.00000000 0.00000282
vn 0.00000000 -1.00000000 0.00000282
vn 0.00000000 -1.00000000 0.00000422
vn 0.00000000 -1.00000000 0.00000563
vn 0.00004248 0.69991080 0.71423020
vn -0.00000354 0.69987400 0.71426620
vn -0.00000354 0.69987400 0.71426620
vn 0.00004248 0.69991090 0.71423010
vn -0.00000354 0.69990040 0.71424040
vn 0.00008849 0.69996860 0.71417360
vn -0.00000354 0.69990040 0.71424040
vn 0.00008850 0.69996870 0.71417360
vn 0.00001238 0.69989630 0.71424440
vn -0.00000708 0.69992670 0.71421460
vn 0.00001239 0.69989630 0.71424450
vn -0.00000708 0.69992690 0.71421460
vn 0.00008318 0.69983990 0.71429980
vn -0.00003540 0.69991560 0.71422550
vn 0.00008318 0.69983990 0.71429980
vn -0.00003539 0.69991560 0.71422550
vn 0.00009912 0.69976380 0.71437420
vn -0.00002301 0.69987210 0.71426830
vn 0.00009912 0.69976390 0.71437420
vn -0.00002301 0.69987200 0.71426830
vn 0.00000000 0.69974710 0.71439050
vn -0.00004071 0.69990300 0.71423790
vn 0.00000000 0.69974710 0.71439060
vn -0.00004071 0.69990300 0.71423790
vn -0.00003893 0.69981030 0.71432870
vn -0.00001062 0.69992510 0.71421630
vn -0.00003894 0.69981030 0.71432870
vn -0.00001062 0.69992510 0.71421620
vn 0.00001416 0.69986790 0.71427220
vn 0.00001416 0.69985850 0.71428140
vn 0.00001416 0.69986790 0.71427230
vn 0.00001416 0.69985850 0.71428140
vt -238.03830000 -33.63813000
vt -238.03830000 -32.63813000
vt -237.03830000 -32.63813000
vt -237.03830000 -33.63813000
vt -240.29370000 0.12547090
vt -240.29210000 0.51638470
vt -240.22650000 0.51638470
vt -240.21680000 0.12547090
vt -240.09780000 0.51638470
vt -240.09780000 0.12547090
vt -239.98600000 0.51638470
vt -239.98600000 0.12547090
vt -239.87430000 0.51638470
vt -239.87430000 0.12547090
vt -239.74560000 0.51638470
vt -239.75520000 0.12547090
vt -239.67840000 0.12547090
vt -239.68000000 0.51638470
vt -239.74740000 0.86552290
vt -239.68000000 0.51638470
vt -239.68080000 0.85228960
vt -239.87430000 0.87684110
vt -239.98600000 0.88006010
vt -240.09780000 0.87684110
vt -240.22470000 0.86552290
vt -240.29210000 0.51638470
vt -240.29130000 0.85228960
vt -240.21680000 0.12547090
vt -240.29310000 0.07893434
vt -240.29370000 0.12547090
vt -240.21410000 0.07893434
vt -240.09780000 0.12547090
vt -240.09780000 0.07893434
vt -239.98600000 0.12547090
vt -239.98600000 0.07893434
vt -239.87430000 0.12547090
vt -239.87430000 0.07893434
vt -239.75520000 0.12547090
vt -239.75800000 0.07893434
vt -239.67840000 0.12547090
vt -239.67900000 0.07893434
vt -239.53940000 0.08843517
vt -239.53940000 0.14073560
vt -239.52490000 0.14073560
vt -239.52490000 0.08843517
vt -239.51520000 0.14073560
vt -239.51520000 0.08843517
vt -239.43420000 0.06521025
vt -239.43420000 0.01559483
vt -239.45050000 0.01559483
vt -239.45050000 0.06521025
vt -239.46680000 0.01559483
vt -239.46680000 0.06521025
vt -239.46750000 0.24142600
vt -239.46750000 0.29374420
vt -239.45780000 0.29374420
vt -239.45780000 0.24142600
vt -239.44320000 0.29374420
vt -239.44320000 0.24142600
vt -239.42600000 0.29374420
vt -239.42600000 0.24142600
vt -239.40880000 0.29374420
vt -239.40880000 0.24142600
vt -239.39430000 0.29374420
vt -239.39430000 0.24142600
vt -239.38460000 0.29374420
vt -239.38460000 0.24142600
vt -239.54680000 0.24080250
vt -239.54680000 0.29038490
vt -239.53050000 0.29038490
vt -239.53050000 0.24080250
vt -239.51430000 0.29038490
vt -239.51430000 0.24080250
vt -239.59810000 0.08843517
vt -239.59810000 0.14073560
vt -239.58830000 0.14073560
vt -239.58830000 0.08843517
vt -239.57380000 0.14073560
vt -239.57380000 0.08843517
vt -239.55660000 0.14073560
vt -239.55660000 0.08843517
vt -239.51520000 0.08843517
vt -239.50860000 0.07075689
vt -239.51980000 0.07075689
vt -239.52490000 0.08843517
vt -239.53670000 0.07075689
vt -239.53940000 0.08843517
vt -239.45050000 0.06521025
vt -239.43160000 0.08198085
vt -239.43420000 0.06521025
vt -239.45050000 0.08198085
vt -239.46680000 0.06521025
vt -239.46940000 0.08198085
vt -239.45780000 0.24142600
vt -239.46280000 0.22374170
vt -239.47410000 0.22374170
vt -239.46750000 0.24142600
vt -239.44320000 0.24142600
vt -239.44600000 0.22374170
vt -239.42600000 0.24142600
vt -239.42600000 0.22374170
vt -239.40880000 0.24142600
vt -239.40610000 0.22374170
vt -239.39430000 0.24142600
vt -239.38930000 0.22374170
vt -239.38460000 0.24142600
vt -239.37790000 0.22374170
vt -239.53050000 0.24080250
vt -239.54940000 0.22404300
vt -239.54680000 0.24080250
vt -239.53050000 0.22404300
vt -239.51430000 0.24080250
vt -239.51170000 0.22404300
vt -239.58830000 0.08843517
vt -239.60470000 0.07075689
vt -239.59810000 0.08843517
vt -239.59340000 0.07075689
vt -239.57380000 0.08843517
vt -239.57650000 0.07075689
vt -239.55660000 0.08843517
vt -239.55660000 0.07075689
vt -239.43160000 0.09408807
vt -239.43350000 0.11720330
vt -239.41560000 0.09408807
vt -239.44130000 0.11720330
vt -239.45050000 0.09408807
vt -239.45050000 0.11720330
vt -239.46940000 0.09408807
vt -239.45970000 0.11720330
vt -239.48540000 0.09408807
vt -239.46760000 0.11720330
vt -239.44600000 0.21097490
vt -239.44400000 0.18660060
vt -239.46280000 0.21097490
vt -239.43580000 0.18660060
vt -239.42600000 0.21097490
vt -239.42600000 0.18660060
vt -239.40610000 0.21097490
vt -239.41630000 0.18660060
vt -239.38930000 0.21097490
vt -239.40800000 0.18660060
vt -239.54940000 0.21194380
vt -239.53980000 0.18884420
vt -239.54760000 0.18884420
vt -239.56540000 0.21194380
vt -239.53050000 0.21194380
vt -239.53050000 0.18884420
vt -239.51170000 0.21194380
vt -239.52130000 0.18884420
vt -239.49570000 0.21194380
vt -239.51350000 0.18884420
vt -239.57650000 0.05799448
vt -239.57460000 0.03362845
vt -239.59340000 0.05799448
vt -239.56630000 0.03362845
vt -239.55660000 0.05799448
vt -239.55660000 0.03362845
vt -239.53670000 0.05799448
vt -239.54690000 0.03362845
vt -239.51980000 0.05799448
vt -239.53860000 0.03362845
vt -239.53310000 0.03362845
vt -239.54190000 0.01229793
vt -239.54530000 0.01229793
vt -239.53860000 0.03362845
vt -239.55050000 0.01229793
vt -239.54690000 0.03362845
vt -239.55660000 0.01229793
vt -239.55660000 0.03362845
vt -239.56270000 0.01229793
vt -239.56630000 0.03362845
vt -239.56790000 0.01229793
vt -239.57460000 0.03362845
vt -239.45050000 0.11720330
vt -239.44470000 0.13743870
vt -239.44130000 0.11720330
vt -239.45050000 0.13743870
vt -239.45970000 0.11720330
vt -239.45630000 0.13743870
vt -239.44400000 0.18660060
vt -239.43730000 0.16526280
vt -239.44080000 0.16526280
vt -239.44960000 0.18660060
vt -239.43580000 0.18660060
vt -239.43210000 0.16526280
vt -239.42600000 0.18660060
vt -239.42600000 0.16526280
vt -239.41630000 0.18660060
vt -239.41990000 0.16526280
vt -239.40800000 0.18660060
vt -239.41470000 0.16526280
vt -239.40250000 0.18660060
vt -239.41130000 0.16526280
vt -239.53050000 0.18884420
vt -239.53630000 0.16862220
vt -239.53980000 0.18884420
vt -239.53050000 0.16862220
vt -239.52130000 0.18884420
vt -239.52470000 0.16862220
vt -239.57140000 0.01229793
vt -239.58010000 0.03362845
vt -239.50860000 0.07075689
vt -239.50860000 0.05799448
vt -239.51980000 0.05799448
vt -239.51980000 0.07075689
vt -239.45050000 0.08198085
vt -239.45050000 0.09408807
vt -239.43160000 0.09408807
vt -239.43160000 0.08198085
vt -239.46940000 0.08198085
vt -239.46940000 0.09408807
vt -239.45050000 0.09408807
vt -239.45050000 0.08198085
vt -239.46280000 0.22374170
vt -239.46280000 0.21097490
vt -239.47410000 0.21097490
vt -239.47410000 0.22374170
vt -239.44600000 0.22374170
vt -239.44600000 0.21097490
vt -239.46280000 0.21097490
vt -239.46280000 0.22374170
vt -239.42600000 0.22374170
vt -239.42600000 0.21097490
vt -239.44600000 0.21097490
vt -239.44600000 0.22374170
vt -239.40610000 0.22374170
vt -239.40610000 0.21097490
vt -239.42600000 0.21097490
vt -239.42600000 0.22374170
vt -239.38930000 0.22374170
vt -239.38930000 0.21097490
vt -239.40610000 0.21097490
vt -239.40610000 0.22374170
vt -239.37790000 0.22374170
vt -239.37790000 0.21097490
vt -239.38930000 0.21097490
vt -239.38930000 0.22374170
vt -239.53050000 0.22404300
vt -239.53050000 0.21194380
vt -239.54940000 0.21194380
vt -239.54940000 0.22404300
vt -239.51170000 0.22404300
vt -239.51170000 0.21194380
vt -239.53050000 0.21194380
vt -239.53050000 0.22404300
vt -239.59340000 0.07075689
vt -239.59340000 0.05799448
vt -239.60470000 0.05799448
vt -239.60470000 0.07075689
vt -239.57650000 0.07075689
vt -239.57650000 0.05799448
vt -239.59340000 0.05799448
vt -239.59340000 0.07075689
vt -239.55660000 0.07075689
vt -239.55660000 0.05799448
vt -239.57650000 0.05799448
vt -239.57650000 0.07075689
vt -239.53670000 0.07075689
vt -239.53670000 0.05799448
vt -239.55660000 0.05799448
vt -239.55660000 0.07075689
vt -239.51980000 0.07075689
vt -239.51980000 0.05799448
vt -239.53670000 0.05799448
vt -239.53670000 0.07075689
vt -338.93600000 0.34091080
vt -338.92900000 0.34091080
vt -338.92900000 0.32676010
vt -338.93600000 0.32676010
vt -338.92900000 0.30558230
vt -338.93600000 0.30558230
vt -338.92900000 0.28060130
vt -338.93600000 0.28060130
vt -338.92730000 0.67752490
vt -338.92090000 0.65494440
vt -338.92730000 0.65494440
vt -338.92090000 0.67752490
vt -338.92730000 0.70010540
vt -338.92090000 0.70010500
vt -338.89060000 0.32676190
vt -338.89770000 0.34091310
vt -338.89060000 0.34091310
vt -338.89770000 0.32676190
vt -338.89060000 0.30558340
vt -338.89770000 0.30558340
vt -338.89060000 0.28060130
vt -338.89770000 0.28060130
vt -338.89060000 0.25561950
vt -338.89770000 0.25561950
vt -338.89060000 0.23444080
vt -338.89770000 0.23444080
vt -338.89060000 0.22028960
vt -338.89770000 0.22028960
vt -338.88380000 0.67752530
vt -338.89020000 0.70003690
vt -338.88380000 0.70003690
vt -338.89020000 0.67752530
vt -338.88380000 0.65501370
vt -338.89020000 0.65501290
vt -338.93600000 0.23444260
vt -338.92900000 0.22029190
vt -338.93600000 0.22029190
vt -338.92900000 0.23444260
vt -338.93600000 0.25562040
vt -338.92900000 0.25562040
vt -338.84550000 0.74973180
vt -338.85160000 0.74973270
vt -338.85160000 0.76726400
vt -338.84550000 0.76758890
vt -338.85160000 0.78213040
vt -338.84550000 0.78272740
vt -338.85160000 0.79206180
vt -338.84550000 0.79284250
vt -338.99950000 0.69481520
vt -339.00500000 0.69510510
vt -339.00500000 0.71086790
vt -338.99950000 0.71086860
vt -339.00500000 0.72663200
vt -338.99950000 0.72692160
vt -338.85750000 0.29344490
vt -338.85140000 0.29266240
vt -338.85140000 0.28271530
vt -338.85750000 0.28331430
vt -338.85140000 0.26783010
vt -338.85750000 0.26815280
vt -338.85140000 0.25027140
vt -338.85750000 0.25026850
vt -338.85140000 0.23270690
vt -338.85750000 0.23238420
vt -338.85140000 0.21782080
vt -338.85750000 0.21722260
vt -338.85140000 0.20787280
vt -338.85750000 0.20709200
vt -338.96530000 0.72687390
vt -338.95980000 0.72658230
vt -338.95980000 0.71086880
vt -338.96530000 0.71086940
vt -338.95980000 0.69515400
vt -338.96530000 0.69486500
vt -338.84550000 0.70662110
vt -338.85160000 0.70740230
vt -338.85160000 0.71733460
vt -338.84550000 0.71673620
vt -338.85160000 0.73219710
vt -338.84550000 0.73187470
vt -239.69220000 0.22144670
vt -240.16620000 0.22193470
vt -240.16620000 0.39906340
vt -239.69430000 0.39722410
vt -240.16620000 0.60990610
vt -239.71180000 0.60563680
vt -240.16620000 0.77855400
vt -239.73560000 0.77319130
vt -239.48070000 0.21879840
vt -239.43370000 0.39491600
vt -239.43370000 0.21879840
vt -239.48070000 0.39491600
vt -239.48070000 0.60373290
vt -239.43370000 0.60373290
vt -239.48070000 0.77161340
vt -239.43370000 0.77161340
vt -239.59250000 0.96660550
vt -239.59780000 0.97947280
vt -239.58800000 0.96962390
vt -239.59780000 0.96554590
vt -239.58490000 0.97414270
vt -239.60310000 0.96660550
vt -239.58390000 0.97947280
vt -239.60770000 0.96962390
vt -239.58490000 0.98480430
vt -239.61070000 0.97414270
vt -239.58800000 0.98932330
vt -239.61180000 0.97947280
vt -239.59250000 0.99234150
vt -239.61070000 0.98480430
vt -239.59780000 0.99340270
vt -239.60770000 0.98932330
vt -239.60310000 0.99234150
vt -339.22160000 0.33768870
vt -339.20570000 0.32428540
vt -339.21110000 0.32202860
vt -339.21740000 0.34185880
vt -339.20150000 0.30355630
vt -339.23720000 0.34815240
vt -339.20740000 0.30355630
vt -339.23500000 0.35360090
vt -339.20570000 0.28282720
vt -339.25570000 0.35182690
vt -339.21110000 0.28508390
vt -339.25570000 0.35772420
vt -339.21740000 0.26525380
vt -339.27420000 0.34815240
vt -339.22160000 0.26942390
vt -339.27640000 0.35360090
vt -339.23500000 0.25351160
vt -339.28980000 0.33768870
vt -339.23720000 0.25896020
vt -339.29400000 0.34185880
vt -339.25570000 0.24938840
vt -339.30030000 0.32202860
vt -339.25570000 0.25528570
vt -339.30580000 0.32428550
vt -339.27640000 0.25351160
vt -339.30400000 0.30355630
vt -339.27420000 0.25896010
vt -339.30990000 0.30355630
vt -339.29400000 0.26525380
vt -339.30030000 0.28508400
vt -339.28980000 0.26942390
vt -339.30580000 0.28282720
f 3/3/3 2/2/2 1/1/1
f 4/4/4 3/3/3 1/1/1
f 7/7/7 6/6/6 5/5/5
f 8/8/8 7/7/7 5/5/5
f 9/9/9 7/7/7 8/8/8
f 10/10/10 9/9/9 8/8/8
f 9/9/9 10/10/10 11/11/11
f 10/10/10 12/12/12 11/11/11
f 11/11/11 12/12/12 13/13/13
f 12/12/12 14/14/14 13/13/13
f 15/15/15 13/13/13 14/14/14
f 16/16/16 15/15/15 14/14/14
f 16/16/16 17/17/17 15/15/15
f 17/17/17 18/18/18 15/15/15
f 15/15/15 19/19/19 13/13/13
f 15/15/15 20/20/20 19/19/19
f 20/20/20 21/21/21 19/19/19
f 19/19/19 22/22/22 13/13/13
f 11/11/11 13/13/13 22/22/22
f 23/23/23 11/11/11 22/22/22
f 9/9/9 11/11/11 23/23/23
f 24/24/24 9/9/9 23/23/23
f 9/9/9 24/24/24 7/7/7
f 24/24/24 25/25/25 7/7/7
f 7/7/7 25/25/25 26/26/26
f 25/25/25 27/27/27 26/26/26
f 30/30/30 29/29/29 28/28/28
f 29/29/29 31/31/31 28/28/28
f 28/28/28 31/31/31 32/32/32
f 31/31/31 33/33/33 32/32/32
f 32/32/32 33/33/33 34/34/34
f 33/33/33 35/35/35 34/34/34
f 34/34/34 35/35/35 36/36/36
f 35/35/35 37/37/37 36/36/36
f 36/36/36 37/37/37 38/38/38
f 37/37/37 39/39/39 38/38/38
f 38/38/38 39/39/39 40/40/40
f 39/39/39 41/41/41 40/40/40
f 44/44/44 43/43/43 42/42/42
f 45/45/45 44/44/44 42/42/42
f 46/46/46 44/44/44 45/45/45
f 47/47/47 46/46/46 45/45/45
f 50/50/50 49/49/49 48/48/48
f 51/51/51 50/50/50 48/48/48
f 52/52/52 50/50/50 51/51/51
f 53/53/53 52/52/52 51/51/51
f 56/56/56 55/55/55 54/54/54
f 57/57/57 56/56/56 54/54/54
f 58/58/58 56/56/56 57/57/57
f 59/59/59 58/58/58 57/57/57
f 60/60/60 58/58/58 59/59/59
f 61/61/61 60/60/60 59/59/59
f 62/62/62 60/60/60 61/61/61
f 63/63/63 62/62/62 61/61/61
f 64/64/64 62/62/62 63/63/63
f 65/65/65 64/64/64 63/63/63
f 66/66/66 64/64/64 65/65/65
f 67/67/67 66/66/66 65/65/65
f 70/70/70 69/69/69 68/68/68
f 71/71/71 70/70/70 68/68/68
f 72/72/72 70/70/70 71/71/71
f 73/73/73 72/72/72 71/71/71
f 76/76/76 75/75/75 74/74/74
f 77/77/77 76/76/76 74/74/74
f 78/78/78 76/76/76 77/77/77
f 79/79/79 78/78/78 77/77/77
f 80/80/80 78/78/78 79/79/79
f 81/81/81 80/80/80 79/79/79
f 43/43/43 80/80/80 81/81/81
f 42/42/42 43/43/43 81/81/81
f 84/84/84 83/83/83 82/82/82
f 85/85/85 84/84/84 82/82/82
f 86/86/86 84/84/84 85/85/85
f 87/87/87 86/86/86 85/85/85
f 90/90/90 89/89/89 88/88/88
f 89/89/89 91/91/91 88/88/88
f 88/88/88 91/91/91 92/92/92
f 91/91/91 93/93/93 92/92/92
f 96/96/96 95/95/95 94/94/94
f 97/97/97 96/96/96 94/94/94
f 94/94/94 95/95/95 98/98/98
f 95/95/95 99/99/99 98/98/98
f 98/98/98 99/99/99 100/100/100
f 99/99/99 101/101/101 100/100/100
f 100/100/100 101/101/101 102/102/102
f 101/101/101 103/103/103 102/102/102
f 102/102/102 103/103/103 104/104/104
f 103/103/103 105/105/105 104/104/104
f 104/104/104 105/105/105 106/106/106
f 105/105/105 107/107/107 106/106/106
f 110/110/110 109/109/109 108/108/108
f 109/109/109 111/111/111 108/108/108
f 108/108/108 111/111/111 112/112/112
f 111/111/111 113/113/113 112/112/112
f 116/116/116 115/115/115 114/114/114
f 115/115/115 117/117/117 114/114/114
f 114/114/114 117/117/117 118/118/118
f 117/117/117 119/119/119 118/118/118
f 118/118/118 119/119/119 120/120/120
f 119/119/119 121/121/121 120/120/120
f 120/120/120 121/121/121 87/87/87
f 121/121/121 86/86/86 87/87/87
f 124/124/124 123/123/123 122/122/122
f 123/123/123 125/125/125 122/122/122
f 122/122/122 125/125/125 126/126/126
f 125/125/125 127/127/127 126/126/126
f 127/127/127 129/129/129 128/128/128
f 126/126/126 127/127/127 128/128/128
f 129/129/129 131/131/131 130/130/130
f 128/128/128 129/129/129 130/130/130
f 134/134/134 133/133/133 132/132/132
f 133/133/133 135/135/135 132/132/132
f 132/132/132 135/135/135 136/136/136
f 135/135/135 137/137/137 136/136/136
f 136/136/136 137/137/137 138/138/138
f 137/137/137 139/139/139 138/138/138
f 138/138/138 139/139/139 140/140/140
f 139/139/139 141/141/141 140/140/140
f 144/144/144 143/143/143 142/142/142
f 145/145/145 144/144/144 142/142/142
f 142/142/142 143/143/143 146/146/146
f 143/143/143 147/147/147 146/146/146
f 146/146/146 147/147/147 148/148/148
f 147/147/147 149/149/149 148/148/148
f 149/149/149 151/151/151 150/150/150
f 148/148/148 149/149/149 150/150/150
f 154/154/154 153/153/153 152/152/152
f 153/153/153 155/155/155 152/152/152
f 152/152/152 155/155/155 156/156/156
f 155/155/155 157/157/157 156/156/156
f 156/156/156 157/157/157 158/158/158
f 157/157/157 159/159/159 158/158/158
f 158/158/158 159/159/159 160/160/160
f 159/159/159 161/161/161 160/160/160
f 164/164/164 163/163/163 162/162/162
f 165/165/165 164/164/164 162/162/162
f 166/166/166 164/164/164 165/165/165
f 167/167/167 166/166/166 165/165/165
f 168/168/168 166/166/166 167/167/167
f 169/169/169 168/168/168 167/167/167
f 170/170/170 168/168/168 169/169/169
f 171/171/171 170/170/170 169/169/169
f 172/172/172 170/170/170 171/171/171
f 173/173/173 172/172/172 171/171/171
f 176/176/176 175/175/175 174/174/174
f 175/175/175 177/177/177 174/174/174
f 174/174/174 177/177/177 178/178/178
f 177/177/177 179/179/179 178/178/178
f 182/182/182 181/181/181 180/180/180
f 183/183/183 182/182/182 180/180/180
f 180/180/180 181/181/181 184/184/184
f 181/181/181 185/185/185 184/184/184
f 184/184/184 185/185/185 186/186/186
f 185/185/185 187/187/187 186/186/186
f 186/186/186 187/187/187 188/188/188
f 187/187/187 189/189/189 188/188/188
f 188/188/188 189/189/189 190/190/190
f 189/189/189 191/191/191 190/190/190
f 190/190/190 191/191/191 192/192/192
f 191/191/191 193/193/193 192/192/192
f 196/196/196 195/195/195 194/194/194
f 195/195/195 197/197/197 194/194/194
f 194/194/194 197/197/197 198/198/198
f 197/197/197 199/199/199 198/198/198
f 200/200/200 172/172/172 173/173/173
f 201/201/201 200/200/200 173/173/173
f 204/204/204 203/203/203 202/202/202
f 205/205/205 204/204/204 202/202/202
f 208/208/208 207/207/207 206/206/206
f 209/209/209 208/208/208 206/206/206
f 212/212/212 211/211/211 210/210/210
f 213/213/213 212/212/212 210/210/210
f 216/216/216 215/215/215 214/214/214
f 217/217/217 216/216/216 214/214/214
f 220/220/220 219/219/219 218/218/218
f 221/221/221 220/220/220 218/218/218
f 224/224/224 223/223/223 222/222/222
f 225/225/225 224/224/224 222/222/222
f 228/228/228 227/227/227 226/226/226
f 229/229/229 228/228/228 226/226/226
f 232/232/232 231/231/231 230/230/230
f 233/233/233 232/232/232 230/230/230
f 236/236/236 235/235/235 234/234/234
f 237/237/237 236/236/236 234/234/234
f 240/240/240 239/239/239 238/238/238
f 241/241/241 240/240/240 238/238/238
f 244/244/244 243/243/243 242/242/242
f 245/245/245 244/244/244 242/242/242
f 248/248/248 247/247/247 246/246/246
f 249/249/249 248/248/248 246/246/246
f 252/252/252 251/251/251 250/250/250
f 253/253/253 252/252/252 250/250/250
f 256/256/256 255/255/255 254/254/254
f 257/257/257 256/256/256 254/254/254
f 260/260/260 259/259/259 258/258/258
f 261/261/261 260/260/260 258/258/258
f 264/264/264 263/263/263 262/262/262
f 265/265/265 264/264/264 262/262/262
f 268/268/268 267/267/267 266/266/266
f 269/269/269 268/268/268 266/266/266
f 270/270/270 268/268/268 269/269/269
f 271/271/271 270/270/270 269/269/269
f 272/272/272 270/270/270 271/271/271
f 273/273/273 272/272/272 271/271/271
f 276/276/276 275/275/275 274/274/274
f 275/275/275 277/277/277 274/274/274
f 274/274/274 277/277/277 278/278/278
f 277/277/277 279/279/279 278/278/278
f 282/282/282 281/281/281 280/280/280
f 281/281/281 283/283/283 280/280/280
f 280/280/280 283/283/283 284/284/284
f 283/283/283 285/285/285 284/284/284
f 284/284/284 285/285/285 286/286/286
f 285/285/285 287/287/287 286/286/286
f 286/286/286 287/287/287 288/288/288
f 287/287/287 289/289/289 288/288/288
f 288/288/288 289/289/289 290/290/290
f 289/289/289 291/291/291 290/290/290
f 291/291/291 293/293/293 292/292/292
f 290/290/290 291/291/291 292/292/292
f 296/296/296 295/295/295 294/294/294
f 295/295/295 297/297/297 294/294/294
f 294/294/294 297/297/297 298/298/298
f 297/297/297 299/299/299 298/298/298
f 302/302/302 301/301/301 300/300/300
f 301/301/301 303/303/303 300/300/300
f 300/300/300 303/303/303 304/304/304
f 303/303/303 305/305/305 304/304/304
f 304/304/304 305/305/305 273/273/273
f 305/305/305 272/272/272 273/273/273
f 308/308/308 307/307/307 306/306/306
f 309/309/309 308/308/308 306/306/306
f 310/310/310 308/308/308 309/309/309
f 311/311/311 310/310/310 309/309/309
f 312/312/312 310/310/310 311/311/311
f 313/313/313 312/312/312 311/311/311
f 316/316/316 315/315/315 314/314/314
f 317/317/317 316/316/316 314/314/314
f 318/318/318 316/316/316 317/317/317
f 319/319/319 318/318/318 317/317/317
f 322/322/322 321/321/321 320/320/320
f 323/323/323 322/322/322 320/320/320
f 324/324/324 322/322/322 323/323/323
f 325/325/325 324/324/324 323/323/323
f 326/326/326 324/324/324 325/325/325
f 327/327/327 326/326/326 325/325/325
f 328/328/328 326/326/326 327/327/327
f 329/329/329 328/328/328 327/327/327
f 330/330/330 328/328/328 329/329/329
f 331/331/331 330/330/330 329/329/329
f 332/332/332 330/330/330 331/331/331
f 333/333/333 332/332/332 331/331/331
f 336/336/336 335/335/335 334/334/334
f 337/337/337 336/336/336 334/334/334
f 338/338/338 336/336/336 337/337/337
f 339/339/339 338/338/338 337/337/337
f 342/342/342 341/341/341 340/340/340
f 343/343/343 342/342/342 340/340/340
f 344/344/344 342/342/342 343/343/343
f 345/345/345 344/344/344 343/343/343
f 307/307/307 344/344/344 345/345/345
f 306/306/306 307/307/307 345/345/345
f 348/348/348 347/347/347 346/346/346
f 349/349/349 348/348/348 346/346/346
f 350/350/350 348/348/348 349/349/349
f 351/351/351 350/350/350 349/349/349
f 352/352/352 350/350/350 351/351/351
f 353/353/353 352/352/352 351/351/351
f 356/356/356 355/355/355 354/354/354
f 355/355/355 357/357/357 354/354/354
f 358/358/358 357/357/357 355/355/355
f 359/359/359 358/358/358 355/355/355
f 360/360/360 358/358/358 359/359/359
f 361/361/361 360/360/360 359/359/359
f 364/364/364 363/363/363 362/362/362
f 363/363/363 365/365/365 362/362/362
f 363/363/363 364/364/364 366/366/366
f 365/365/365 363/363/363 367/367/367
f 368/368/368 363/363/363 366/366/366
f 363/363/363 369/369/369 367/367/367
f 363/363/363 368/368/368 370/370/370
f 369/369/369 363/363/363 371/371/371
f 372/372/372 363/363/363 370/370/370
f 363/363/363 373/373/373 371/371/371
f 363/363/363 372/372/372 374/374/374
f 373/373/373 363/363/363 375/375/375
f 376/376/376 363/363/363 374/374/374
f 363/363/363 377/377/377 375/375/375
f 363/363/363 376/376/376 378/378/378
f 377/377/377 363/363/363 378/378/378
f 381/381/381 380/380/380 379/379/379
f 380/380/380 382/382/382 379/379/379
f 383/383/383 380/380/380 381/381/381
f 379/379/379 382/382/382 384/384/384
f 385/385/385 383/383/383 381/381/381
f 382/382/382 386/386/386 384/384/384
f 387/387/387 383/383/383 385/385/385
f 384/384/384 386/386/386 388/388/388
f 389/389/389 387/387/387 385/385/385
f 386/386/386 390/390/390 388/388/388
f 391/391/391 387/387/387 389/389/389
f 388/388/388 390/390/390 392/392/392
f 393/393/393 391/391/391 389/389/389
f 390/390/390 394/394/394 392/392/392
f 395/395/395 391/391/391 393/393/393
f 392/392/392 394/394/394 396/396/396
f 397/397/397 395/395/395 393/393/393
f 394/394/394 398/398/398 396/396/396
f 399/399/399 395/395/395 397/397/397
f 396/396/396 398/398/398 400/400/400
f 401/401/401 399/399/399 397/397/397
f 398/398/398 402/402/402 400/400/400
f 403/403/403 399/399/399 401/401/401
f 400/400/400 402/402/402 404/404/404
f 405/405/405 403/403/403 401/401/401
f 402/402/402 406/406/406 404/404/404
f 407/407/407 403/403/403 405/405/405
f 404/404/404 406/406/406 408/408/408
f 409/409/409 407/407/407 405/405/405
f 406/406/406 410/410/410 408/408/408
f 410/410/410 407/407/407 409/409/409
f 408/408/408 410/410/410 409/409/409

