mtllib material.mtl
usemtl material_0
v 0.07415519 -0.02242537 0.11117820
v 0.09246049 -0.02534769 0.07292362
v 0.07568803 -0.03005106 0.10085040
v 0.09243858 -0.03635119 0.03832211
v 0.10293560 -0.02586155 0.03676093
v 0.10073490 -0.03223820 0.02277385
v 0.10548800 -0.02282180 0.02206937
v -0.08383670 -0.01924493 0.07350872
v -0.08727266 -0.02715440 0.05845182
v -0.09684845 -0.02102246 0.04143049
v 0.04995407 0.03999690 0.02408899
v 0.05291743 0.03927042 -0.00704753
v 0.05588989 0.04054717 0.01091605
v -0.01800670 -0.02531402 0.15481420
v -0.01093907 -0.01690581 0.15984760
v 0.00577341 -0.02285644 0.16424000
v -0.01222299 0.01477875 0.14510610
v -0.01133723 -0.00082863 0.15494650
v -0.04309398 0.00138762 0.13321520
v 0.00563896 -0.00528608 0.15973960
v 0.02093253 -0.02203040 0.16296780
v 0.02205419 0.01057768 0.14665420
v 0.00747599 0.04223425 0.11927510
v -0.00497412 0.04560272 0.11372940
v 0.04348464 -0.00215690 0.14392570
v 0.03410082 -0.02558341 0.15440480
v -0.00204101 0.06183106 0.08481875
v -0.02517159 0.05418066 0.08500073
v -0.02369457 0.06405656 0.06128858
v 0.00181782 0.06963875 0.06628191
v 0.01806022 0.04728258 0.10753390
v 0.02419516 0.03752362 0.11967150
v 0.02684344 0.05755624 0.07846303
v 0.03476493 0.01763888 0.13472850
v 0.03556405 0.02786147 0.11780610
v 0.05023079 0.02343016 0.11758010
v 0.06100582 -0.00812313 0.13005760
v 0.06077531 -0.02573135 0.12873010
v 0.05947963 0.00919383 0.12197440
v 0.06095234 0.02683550 0.09141742
v 0.07588182 -0.00012099 0.10338050
v 0.08736513 0.00758929 0.06547399
v 0.04204582 0.03963271 0.07893389
v 0.04837432 0.03340368 0.08823206
v 0.04041406 0.05413238 0.05055973
v 0.02434827 0.06312323 0.05208041
v -0.00928695 0.06514040 0.05389865
v -0.00075208 0.07670432 0.04335232
v -0.02566654 0.06950963 0.04405120
v 0.02513056 0.07046156 0.03633332
v -0.01255645 0.07832612 0.02316360
v -0.03075739 0.07231469 0.01768009
v 0.00196335 0.07887098 0.01489903
v -0.01121693 0.07841109 0.01187327
v 0.01560815 0.07535444 0.01170375
v -0.02422657 0.07239028 0.00293356
v -0.04315784 0.06387395 -0.00523174
v 0.00329084 0.07079054 0.00197114
v -0.01229922 0.07945994 -0.01194823
v -0.03108883 0.07162842 -0.02617197
v 0.03024471 0.06771883 0.00389007
v 0.04451095 0.05440348 0.02496082
v -0.00182857 0.07778595 -0.03695505
v -0.02915451 0.06394538 -0.05201380
v 0.00875651 0.07815133 -0.01167960
v 0.02298377 0.07191603 -0.02795067
v -0.01127831 0.06537247 -0.05015496
v -0.01689435 0.06511670 -0.06920879
v 0.05006725 0.03787414 0.04907255
v 0.04195797 0.05770453 -0.01174945
v 0.00989997 0.07194445 -0.04242266
v 0.02710949 0.06106737 -0.04879346
v 0.04187112 0.05435741 -0.03507136
v 0.00336468 0.06919167 -0.05922195
v 0.04853782 0.04078480 -0.01886352
v -0.00080288 0.06245999 -0.08035522
v 0.02211644 0.06183814 -0.06547941
v 0.04084996 0.04664968 -0.05749373
v 0.04745860 0.03427944 -0.05370789
v 0.05079040 0.03799368 -0.03922602
v 0.05298191 0.03726145 -0.02744872
v -0.00958776 0.04534591 -0.11072040
v -0.03497158 0.04629321 -0.08779468
v -0.03374869 0.02642903 -0.11856450
v 0.04002074 0.03935344 -0.07210140
v 0.05190360 0.03078660 -0.04514746
v 0.00694032 0.04045664 -0.11770800
v 0.01869155 0.04384601 -0.10736240
v 0.03573491 0.03317602 -0.09936898
v -0.01268614 0.02159262 -0.13832810
v 0.02055662 0.02105218 -0.13208520
v 0.04576924 0.02033134 -0.11428150
v 0.04370734 0.03153728 -0.09161391
v 0.00037457 0.01174383 -0.14851350
v -0.01871820 0.01190555 -0.14401910
v -0.00938393 -0.00655176 -0.15875780
v -0.02275436 -0.00874289 -0.15401390
v -0.04304830 -0.00316864 -0.13529250
v -0.04837515 0.00961618 -0.12104220
v 0.01180637 0.00433416 -0.15023440
v 0.03650122 0.00920219 -0.13144900
v 0.01857038 -0.01144969 -0.15372300
v 0.04220904 -0.00636820 -0.13392520
v 0.05456937 -0.00802243 -0.12105690
v 0.06873100 -0.00366078 -0.09941548
v 0.06685662 0.01147602 -0.08956175
v 0.07837929 -0.01374486 -0.08636425
v 0.08291422 0.00250432 -0.06976828
v 0.07548369 0.02208175 -0.05548681
v 0.06026933 0.02342615 -0.08410915
v 0.05317436 0.02479815 -0.07578819
v 0.06208983 0.02490173 -0.07001299
v 0.04688495 0.03150379 -0.07468184
v 0.05141191 0.02570382 -0.06328335
v 0.06122909 0.02304044 -0.06290121
v 0.05743664 0.02472975 -0.05445251
v 0.06866506 0.02157758 -0.04337553
v 0.06345447 0.02957309 -0.03477345
v 0.07200758 0.02317641 -0.03275230
v 0.05948622 0.03016661 -0.02717277
v 0.05498722 0.03335255 -0.02098138
v 0.07269113 0.02295707 -0.01410122
v 0.08022499 0.02520693 -0.01228209
v 0.05773428 0.03212700 -0.01095552
v 0.05783045 0.03522802 0.00458338
v 0.06154859 0.03139877 -0.00458971
v 0.07390927 0.02392771 -0.00168307
v 0.08573820 0.02307104 0.01891669
v 0.07012077 0.02710758 0.01255389
v 0.08627558 0.01928642 -0.03606772
v 0.06502371 0.03246970 0.01485527
v 0.09433614 0.00129219 -0.04104828
v 0.09646206 -0.01217192 -0.04610560
v 0.05823933 0.03746817 0.01664685
v 0.06554911 0.02984404 0.02029544
v 0.09757355 0.00533388 -0.00875413
v 0.10444330 -0.01142309 -0.00331823
v 0.10624120 -0.02498751 -0.00333335
v 0.09960805 0.00192838 0.02099087
v 0.05413118 0.03894671 0.03681649
v 0.06066329 0.03290500 0.02596293
v 0.09618463 -0.00566650 0.05711433
v 0.10328230 -0.01063423 0.03949957
v 0.10293560 -0.02586155 0.03676093
v 0.07650352 0.02648190 0.03756398
v 0.07131770 0.02696750 0.03181480
v 0.06046468 0.03204458 0.03696726
v 0.06141253 0.03049662 0.04854419
v 0.07588904 0.02227704 0.05965930
v 0.06971452 0.02464746 0.05072465
v 0.06155429 0.02650862 0.06751698
v 0.05182432 0.03397490 0.05938680
v 0.05572560 0.02649039 0.07806330
v 0.02093253 -0.02203040 0.16296780
v 0.01780874 -0.02887808 0.16114130
v 0.00577341 -0.02285644 0.16424000
v 0.03410082 -0.02558341 0.15440480
v 0.02619807 -0.02363901 -0.14742750
v 0.00538316 -0.02492605 -0.16015210
v 0.00298281 -0.03317220 -0.15254270
v 0.03969375 -0.03034692 -0.12727200
v 0.04711618 -0.02460799 -0.12636960
v 0.04553420 -0.03977757 -0.09009632
v 0.06875825 -0.02459672 -0.10001030
v -0.01193807 -0.02428819 -0.16314450
v -0.01699917 -0.03017092 -0.15741840
v -0.02274109 -0.02316347 -0.15751640
v -0.03402324 -0.02972596 -0.14480480
v -0.04343339 -0.01711979 -0.13998900
v -0.04343339 -0.01711979 -0.13998900
v -0.02274109 -0.02316347 -0.15751640
v -0.01193807 -0.02428819 -0.16314450
v -0.00095636 -0.01582143 -0.16227920
v 0.00538316 -0.02492605 -0.16015210
v 0.02619807 -0.02363901 -0.14742750
v 0.09246049 -0.02534769 0.07292362
v 0.08560255 -0.01067744 0.08958986
v 0.07415519 -0.02242537 0.11117820
v 0.10548800 -0.02282180 0.02206937
v 0.08455768 -0.02775182 -0.06929681
v 0.09817846 -0.02767377 -0.03756641
v 0.06875825 -0.02459672 -0.10001030
v 0.04711618 -0.02460799 -0.12636960
v -0.05908483 -0.00179170 -0.11622210
v -0.06132108 -0.02428969 -0.11728650
v -0.07150646 -0.01129954 -0.10346980
v -0.08043709 -0.02361495 -0.08790611
v -0.08645279 -0.00706297 -0.07601175
v -0.08975711 -0.02743844 -0.06102276
v -0.09994107 -0.02037172 -0.04051068
v -0.06864929 0.00778636 -0.09594839
v -0.05888538 0.02981291 -0.08534957
v -0.08875997 0.00636404 -0.06137353
v -0.04402071 0.03181022 -0.09877191
v -0.07102612 0.02897851 -0.06504679
v -0.09824991 0.00504912 -0.03284251
v -0.08815088 0.02165660 -0.04170999
v -0.07760171 0.03221017 -0.03571570
v -0.10427980 -0.00879420 -0.01367573
v -0.10237060 -0.02592086 0.00187705
v -0.08950755 0.02781819 -0.01762897
v -0.10064940 -0.00999256 0.02823682
v -0.09684845 -0.02102246 0.04143049
v -0.09482613 0.02035964 0.01096592
v -0.07952940 0.00084142 0.07731201
v -0.08383670 -0.01924493 0.07350872
v -0.08267645 0.03302067 0.00061937
v -0.08827435 0.01213009 0.04679596
v -0.07589649 0.03282652 0.02982503
v -0.07750463 -0.00795746 0.08637950
v -0.07128858 -0.02307335 0.09708978
v -0.06938384 0.02687020 0.06339963
v -0.05745541 -0.01392638 0.12030990
v -0.05730636 -0.02523642 0.11659780
v -0.03941374 -0.02455434 0.13785490
v -0.06234491 0.00665302 0.10445080
v -0.03401353 -0.01150070 0.14531640
v -0.04917683 0.01375155 0.11690180
v -0.05241356 0.03008913 0.09004170
v -0.03163501 0.02367786 0.12473040
v -0.04103396 0.03482404 0.09432156
v -0.05929471 0.03131365 0.06378276
v -0.04694607 0.03152342 0.07903978
v -0.06131895 0.03050706 0.05518834
v -0.03914534 0.05295471 0.05763189
v -0.04473375 0.03748054 0.06047362
v -0.06277114 0.03578765 0.02761713
v -0.05610997 0.03577426 0.04974832
v -0.04867517 0.04781713 0.01995336
v -0.04513518 0.04699177 0.04798215
v -0.04768995 0.05804183 0.01885377
v -0.06975770 0.03267844 0.00653387
v -0.07089880 0.03171975 -0.00835433
v -0.05990637 0.03834287 0.02086133
v -0.06050494 0.03992166 0.01123959
v -0.06386073 0.03536001 -0.00608954
v -0.06894486 0.03040020 -0.01865054
v -0.05568847 0.04017157 -0.00303535
v -0.05040502 0.04268431 -0.02013934
v -0.04946917 0.05300258 -0.01844320
v -0.04354528 0.06021476 -0.03035608
v -0.04950744 0.04212387 -0.03983902
v -0.04124102 0.05101710 -0.06053920
v -0.05759589 0.03719703 -0.02904124
v -0.04723636 0.03684748 -0.07774863
v -0.04836185 0.02935494 -0.08401009
v -0.04752965 0.03420697 -0.07214632
v -0.05522010 0.02917046 -0.07305092
v -0.04593997 0.03749118 -0.05588779
v -0.05407698 0.03484661 -0.04500182
v -0.06032537 0.03036424 -0.04863087
v -0.06565597 0.02803335 -0.05559009
v -0.06084106 0.03668116 -0.03530486
v -0.07122229 0.02916664 -0.03866741
v -0.06132108 -0.02428969 -0.11728650
v -0.05499677 -0.03723733 -0.10400680
v -0.08043709 -0.02361495 -0.08790611
v -0.01026427 -0.03902176 -0.14118620
v -0.08760340 -0.03475773 -0.04543160
v -0.08975711 -0.02743844 -0.06102276
v -0.09994107 -0.02037172 -0.04051068
v -0.10237060 -0.02592086 0.00187705
v -0.02270469 -0.04372109 -0.09985486
v -0.07537338 -0.04133825 -0.03388549
v -0.08725394 -0.03880292 0.00848999
v -0.05556711 -0.04413624 -0.00389986
v -0.08727369 -0.03354549 0.03965052
v -0.06745980 -0.03826927 0.06287625
v -0.03019229 -0.04237031 0.08651672
v -0.05820822 -0.03337062 0.09902092
v -0.07128858 -0.02307335 0.09708978
v -0.05730636 -0.02523642 0.11659780
v -0.02716320 -0.03607493 0.12909470
v -0.03941374 -0.02455434 0.13785490
v -0.01800670 -0.02531402 0.15481420
v 0.00727847 -0.03447873 0.15391090
v 0.02975656 -0.04001714 0.13151440
v 0.00373568 -0.04045143 0.13254040
v 0.01843079 -0.04402056 0.09435727
v 0.04587132 -0.04446614 -0.00517444
v 0.04436170 -0.02917252 0.14256350
v 0.06077531 -0.02573135 0.12873010
v 0.07316758 -0.04242830 0.03861013
v 0.05406637 -0.03736366 0.11587270
v 0.04782559 -0.04320780 -0.04542339
v 0.08604466 -0.04014435 -0.01074422
v 0.07654407 -0.03866220 -0.04687094
v 0.08455768 -0.02775182 -0.06929681
v 0.09817846 -0.02767377 -0.03756641
v 0.10624120 -0.02498751 -0.00333335
vn 0.85316460 -0.09691906 0.51255930
vn 0.75159960 -0.58349000 0.30763200
vn 0.59654670 -0.75588020 0.26977210
vn 0.43457790 -0.89014810 0.13703420
vn 0.93443380 -0.28390070 0.21502090
vn 0.62114940 -0.78360890 0.01142776
vn 0.99306240 0.03454346 0.11239960
vn -0.91816900 -0.05164070 0.39280880
vn -0.67009760 -0.67698400 0.30440410
vn -0.93379400 -0.19459650 0.30026840
vn 0.84924260 0.52538610 0.05250094
vn 0.84986760 0.52330460 -0.06226845
vn 0.23782040 0.96828800 -0.07655025
vn -0.40104800 -0.64931720 0.64617940
vn -0.36727860 0.09619165 0.92512360
vn -0.13553000 -0.22029050 0.96597290
vn -0.20432740 0.62936490 0.74976670
vn -0.36010230 0.39994070 0.84283670
vn -0.63773940 0.35620690 0.68293860
vn 0.07483944 0.46273130 0.88333390
vn 0.34472870 0.23409090 0.90904540
vn 0.19066840 0.58146260 0.79091520
vn 0.04866164 0.75123060 0.65824370
vn -0.26767140 0.78769710 0.55487420
vn 0.52485200 0.33314650 0.78329040
vn 0.56135760 -0.36272790 0.74384550
vn -0.09871233 0.90281810 0.41853950
vn -0.46834010 0.78912450 0.39741650
vn -0.42819630 0.85320420 0.29780960
vn 0.07566337 0.98844480 0.13134680
vn 0.25202740 0.85924480 0.44517500
vn 0.41775190 0.72227740 0.55117930
vn 0.49178750 0.81183210 0.31475950
vn 0.41444590 0.61612890 0.66979090
vn 0.50077220 0.77498730 0.38551530
vn 0.49737900 0.73575440 0.45965140
vn 0.74470040 0.13641690 0.65330830
vn 0.69474770 -0.38908110 0.60493090
vn 0.69219910 0.49467130 0.52551010
vn 0.66131900 0.69171890 0.29014150
vn 0.80867110 0.41579140 0.41613540
vn 0.80968760 0.52812990 0.25590010
vn 0.62663280 0.70634030 0.32926380
vn 0.56841020 0.80309480 0.17874150
vn 0.73810360 0.65366960 0.16709040
vn 0.37159750 0.89026390 0.26333540
vn -0.05198072 0.95200930 0.30162280
vn 0.06049811 0.91428670 0.40052450
vn -0.47920330 0.83285840 0.27696760
vn 0.47518120 0.86415360 0.16565410
vn -0.20971040 0.96995500 0.12332390
vn -0.51072910 0.85549750 0.08532216
vn 0.17058270 0.98532810 -0.00547601
vn -0.09039131 0.93635620 -0.33921450
vn 0.29916500 0.93804080 -0.17487080
vn -0.28450270 0.95865090 -0.00682436
vn -0.71044530 0.70324530 0.02671445
vn 0.08332970 0.99426970 0.06696123
vn -0.15830470 0.98187740 0.10419380
vn -0.43294550 0.88976660 -0.14447690
vn 0.55078580 0.83447250 0.01704891
vn 0.78845860 0.61231520 0.05833497
vn -0.04213636 0.95325030 -0.29922950
vn -0.44338180 0.85031560 -0.28350630
vn 0.21667020 0.96763800 0.12934650
vn 0.48262600 0.86456100 -0.14002280
vn -0.03713745 0.95058520 -0.30823460
vn -0.32047850 0.89167310 -0.31970710
vn 0.81665170 0.56329630 0.12560760
vn 0.75891910 0.64943300 -0.04773214
vn 0.21436290 0.77748630 -0.59123900
vn 0.50697810 0.82452830 -0.25124910
vn 0.74773260 0.64403580 -0.16159770
vn 0.09759938 0.99395780 0.05022256
vn 0.84818410 0.52132920 -0.09380608
vn 0.08689679 0.90536090 -0.41565690
vn 0.47031690 0.83167340 -0.29516340
vn 0.76088450 0.59190440 -0.26590250
vn 0.82878830 0.51843930 -0.21054830
vn 0.86595180 0.47148510 -0.16682130
vn 0.70819720 0.69477670 -0.12546750
vn -0.23452130 0.81048730 -0.53675880
vn -0.49348800 0.76541180 -0.41305500
vn -0.48893790 0.66740850 -0.56169890
vn 0.72099880 0.64545670 -0.25208400
vn 0.65768710 0.70998590 -0.25172950
vn 0.13166170 0.78252580 -0.60853810
vn 0.44786290 0.76502590 -0.46276800
vn 0.57027540 0.72148360 -0.39274330
vn -0.20429880 0.71699570 -0.66646780
vn 0.37631550 0.66014460 -0.65007350
vn 0.58447970 0.62085080 -0.52242480
vn 0.51874350 0.81055260 -0.27186350
vn 0.07629511 0.62376400 -0.77788010
vn -0.44380670 0.54142010 -0.71407280
vn -0.14556470 0.43275360 -0.88968260
vn -0.50541230 0.35036870 -0.78854300
vn -0.61738610 0.42435870 -0.66238510
vn -0.64210230 0.50135750 -0.57995280
vn 0.36135500 0.46588570 -0.80769620
vn 0.55354370 0.45895240 -0.69494750
vn 0.50570230 0.19394920 -0.84062410
vn 0.67683490 0.16508400 -0.71738530
vn 0.76746360 0.15796700 -0.62132600
vn 0.81382720 0.25685170 -0.52126040
vn 0.76676270 0.47308940 -0.43389100
vn 0.87749090 0.05958766 -0.47587700
vn 0.83941010 0.36341450 -0.40412950
vn 0.61538860 0.74568180 -0.25545150
vn 0.63658760 0.70872070 -0.30409060
vn 0.43134840 0.90196010 0.02016319
vn 0.17098890 0.98492430 -0.02621197
vn 0.74215280 0.66258680 -0.10093580
vn 0.65184450 0.74876000 -0.12023790
vn 0.03652021 0.99752920 0.06001546
vn 0.46927630 0.86559300 -0.17472420
vn 0.22283110 0.96030500 -0.16781160
vn 0.42817090 0.88788000 -0.16834150
vn 0.15492280 0.98582910 -0.06434300
vn 0.53728130 0.84147240 -0.05703644
vn 0.70766600 0.70594300 -0.02921124
vn 0.22076690 0.97433560 -0.04395726
vn 0.37274070 0.92711310 -0.03906041
vn 0.61786570 0.77830140 -0.11175390
vn 0.69135880 0.70473440 -0.15928720
vn 0.50849760 0.84746530 -0.15242310
vn 0.24040200 0.97031240 -0.02646909
vn 0.72508910 0.68562980 0.06447790
vn 0.42315280 0.89963220 -0.10772000
vn 0.74631630 0.64409190 -0.16780220
vn 0.68800200 0.72391200 -0.05103513
vn 0.90435490 0.35598950 -0.23540120
vn 0.94516310 0.08040047 -0.31654770
vn 0.56701130 0.80816030 0.15929530
vn 0.42652790 0.90442580 0.00937754
vn 0.86896500 0.49123500 -0.05990029
vn 0.96801200 0.23933610 -0.07530657
vn 0.92616670 -0.36054250 -0.11056380
vn 0.88328950 0.45840810 0.09829511
vn 0.41793300 0.90167110 0.11100120
vn 0.64981170 0.75531280 0.08513087
vn 0.91944560 0.30706050 0.24562910
vn 0.97004920 0.20221750 0.13458340
vn 0.93443380 -0.28390070 0.21502090
vn 0.56056120 0.81235760 0.16076770
vn 0.28608970 0.94718460 0.14489310
vn 0.58807190 0.80610050 0.06613263
vn 0.53951690 0.82557900 0.16535060
vn 0.64423650 0.74531540 0.17165160
vn 0.35796910 0.92209890 0.14694110
vn 0.35401050 0.93140110 0.08466744
vn 0.63711020 0.75449090 0.15758840
vn 0.50927990 0.85964410 0.04057231
vn 0.34472870 0.23409090 0.90904540
vn 0.21509090 -0.77599750 0.59292810
vn -0.13553000 -0.22029050 0.96597290
vn 0.56135760 -0.36272790 0.74384550
vn 0.57204880 -0.42116730 -0.70383110
vn 0.35913100 -0.39301860 -0.84649940
vn 0.22529870 -0.90198610 -0.36832260
vn 0.34550600 -0.87763640 -0.33223490
vn 0.70324430 -0.31464090 -0.63753300
vn 0.19403170 -0.96829160 -0.15736270
vn 0.61221630 -0.67411010 -0.41323930
vn -0.14786070 -0.22263520 -0.96362380
vn -0.22439620 -0.80205010 -0.55349970
vn -0.57528700 -0.03212587 -0.81732050
vn -0.44891980 -0.76768270 -0.45731230
vn -0.71818490 0.01699720 -0.69564470
vn -0.71818490 0.01699720 -0.69564470
vn -0.57528700 -0.03212587 -0.81732050
vn -0.14786070 -0.22263520 -0.96362380
vn 0.17437770 0.23427860 -0.95640260
vn 0.35913100 -0.39301860 -0.84649940
vn 0.57204880 -0.42116730 -0.70383110
vn 0.75159960 -0.58349000 0.30763200
vn 0.90521600 0.14686210 0.39876760
vn 0.85316460 -0.09691906 0.51255930
vn 0.99306240 0.03454346 0.11239960
vn 0.72095300 -0.58217690 -0.37589480
vn 0.79470640 -0.56034460 -0.23335730
vn 0.61221630 -0.67411010 -0.41323930
vn 0.70324430 -0.31464090 -0.63753300
vn -0.74364330 0.32138790 -0.58626310
vn -0.73594740 -0.40571650 -0.54201060
vn -0.82681350 0.13614120 -0.54575180
vn -0.74728450 -0.54455290 -0.38082560
vn -0.89932280 0.14957500 -0.41090840
vn -0.84789680 -0.39283620 -0.35602070
vn -0.94303510 -0.24415580 -0.22599300
vn -0.73951770 0.45985270 -0.49157820
vn -0.60067420 0.69129470 -0.40162440
vn -0.85741060 0.36210810 -0.36568420
vn -0.58246310 0.67183950 -0.45756790
vn -0.63986310 0.68809810 -0.34219320
vn -0.94045930 0.28444550 -0.18608400
vn -0.78576780 0.55830870 -0.26619610
vn -0.36896990 0.91317140 -0.17314530
vn -0.99088760 0.13079230 -0.03217306
vn -0.86561330 -0.50031690 0.01991772
vn -0.81013960 0.58011960 -0.08447002
vn -0.96752760 0.14785980 0.20500750
vn -0.93379400 -0.19459650 0.30026840
vn -0.88946110 0.44315590 0.11167690
vn -0.84272470 0.37128530 0.38982340
vn -0.91816900 -0.05164070 0.39280880
vn -0.43383400 0.89959110 0.05023848
vn -0.84739170 0.42719750 0.31532450
vn -0.55956770 0.80253980 0.20691470
vn -0.87104470 0.13159750 0.47324760
vn -0.79048840 -0.41809470 0.44757690
vn -0.69346390 0.63669510 0.33723440
vn -0.80039400 0.07850032 0.59431220
vn -0.61391480 -0.62026550 0.48824090
vn -0.59494000 -0.53107070 0.60333260
vn -0.78305480 0.40216580 0.47443430
vn -0.60920100 0.12636450 0.78288320
vn -0.65099710 0.55495640 0.51790550
vn -0.63808480 0.67567810 0.36919760
vn -0.45621560 0.66929650 0.58643790
vn -0.59643200 0.71061400 0.37322480
vn -0.36307560 0.92234580 0.13211490
vn -0.63019240 0.75895860 0.16382770
vn -0.32081540 0.92869990 0.18599470
vn -0.69111480 0.66778800 0.27644090
vn -0.72141930 0.67014050 0.17454450
vn -0.41999460 0.89900030 0.12410900
vn -0.47125540 0.84710130 0.24563750
vn -0.86007040 0.50361740 0.08153711
vn -0.92999030 0.30347940 0.20740890
vn -0.80577440 0.58174710 0.11089620
vn -0.22508260 0.97402780 -0.02465259
vn -0.01097046 0.99902270 -0.04281725
vn -0.59714130 0.79504730 0.10640450
vn -0.56427650 0.82522590 -0.02437854
vn -0.51339700 0.85362210 -0.08804946
vn -0.27080160 0.96021010 -0.06828522
vn -0.55148850 0.82989370 -0.08448023
vn -0.88006150 0.47356330 -0.03506244
vn -0.94464080 0.32709450 -0.02574548
vn -0.75446770 0.62595500 -0.19737990
vn -0.86589770 0.45589530 -0.20586550
vn -0.74310680 0.62530630 -0.23829430
vn -0.52321190 0.85130410 -0.03912327
vn -0.80339980 0.55682750 -0.21093140
vn -0.47694330 0.87768350 -0.04687070
vn -0.75794880 0.64725960 -0.08104757
vn -0.23994830 0.96875860 -0.06270149
vn -0.80493000 0.57201730 -0.15774640
vn -0.55804160 0.77638360 -0.29294710
vn -0.39387380 0.89526640 -0.20823430
vn 0.01223886 0.99862190 -0.05103296
vn -0.41476400 0.90118980 -0.12580860
vn -0.11318170 0.98929520 -0.09211328
vn -0.73594740 -0.40571650 -0.54201060
vn -0.31941620 -0.92388530 -0.21073500
vn -0.74728450 -0.54455290 -0.38082560
vn 0.01004549 -0.97913480 -0.20296370
vn -0.53389840 -0.83102670 -0.15603570
vn -0.84789680 -0.39283620 -0.35602070
vn -0.94303510 -0.24415580 -0.22599300
vn -0.86561330 -0.50031690 0.01991772
vn -0.02607343 -0.99788600 -0.05952938
vn -0.18768130 -0.98056790 -0.05711691
vn -0.31258470 -0.94873210 0.04688396
vn -0.04094101 -0.99913580 0.00718136
vn -0.57310680 -0.79937650 0.18040460
vn -0.27243160 -0.95250450 0.13607420
vn -0.09237666 -0.99325590 0.07006681
vn -0.36221200 -0.89984640 0.24306170
vn -0.79048840 -0.41809470 0.44757690
vn -0.61391480 -0.62026550 0.48824090
vn -0.25536960 -0.92951970 0.26604410
vn -0.59494000 -0.53107070 0.60333260
vn -0.40104800 -0.64931720 0.64617940
vn -0.08615079 -0.88701150 0.45363930
vn 0.14193720 -0.97310200 0.18145640
vn -0.06760187 -0.98438290 0.16254320
vn 0.01767059 -0.99917670 0.03651974
vn 0.01883597 -0.99981710 -0.00334652
vn 0.41708480 -0.76404050 0.49222180
vn 0.69474770 -0.38908110 0.60493090
vn 0.13542530 -0.98976700 0.04495681
vn 0.29484980 -0.93522660 0.19599700
vn 0.07195938 -0.99611930 -0.05067917
vn 0.31352110 -0.94803240 -0.05421372
vn 0.31317520 -0.93656490 -0.15737700
vn 0.72095300 -0.58217690 -0.37589480
vn 0.79470640 -0.56034460 -0.23335730
vn 0.92616670 -0.36054250 -0.11056380
vt 0.07363172 0.84488960
vt 0.12836000 0.88486420
vt 0.09294985 0.84798850
vt 0.18695400 0.90136810
vt 0.18198100 0.91947720
vt 0.20735360 0.92196210
vt 0.20351940 0.93429360
vt 0.21675510 0.64508880
vt 0.24117890 0.65742890
vt 0.27280550 0.65385700
vt 0.47320780 0.21395310
vt 0.55715760 0.23034620
vt 0.51138440 0.21169440
vt 0.01407704 0.31286540
vt 0.02840936 0.28352770
vt 0.00619614 0.22768030
vt 0.10542930 0.28909000
vt 0.06419656 0.28398990
vt 0.09968808 0.37859320
vt 0.05325502 0.23244110
vt 0.02244204 0.16741390
vt 0.11639270 0.19719800
vt 0.19957580 0.25892510
vt 0.20762740 0.28996850
vt 0.12671840 0.13385610
vt 0.05634597 0.12006200
vt 0.28686140 0.30099600
vt 0.26973870 0.34978710
vt 0.33415890 0.35939400
vt 0.33611670 0.30379630
vt 0.23689910 0.24411730
vt 0.20593460 0.21963060
vt 0.31745240 0.24598020
vt 0.16124330 0.17621230
vt 0.21166300 0.18776390
vt 0.21750470 0.15263360
vt 0.16886990 0.08735141
vt 0.15224340 0.05004287
vt 0.20308180 0.11703850
vt 0.29279720 0.14543960
vt 0.25766580 0.07624230
vt 0.37579820 0.08375379
vt 0.32011020 0.20210580
vt 0.29728950 0.17964610
vt 0.39662240 0.23200790
vt 0.38448400 0.26792240
vt 0.36127390 0.33402120
vt 0.39768170 0.32460350
vt 0.37864650 0.37242700
vt 0.42619480 0.27998830
vt 0.43843440 0.35869940
vt 0.44186250 0.39817590
vt 0.46502970 0.33712830
vt 0.46615330 0.36307680
vt 0.48023820 0.31456690
vt 0.48262380 0.39561470
vt 0.49168120 0.44216420
vt 0.49956690 0.34377070
vt 0.52708390 0.38132620
vt 0.55132140 0.42817460
vt 0.50920860 0.29097020
vt 0.46480750 0.24147610
vt 0.59051620 0.37823170
vt 0.61795800 0.44570420
vt 0.53733270 0.34339780
vt 0.58367320 0.32706560
vt 0.62332560 0.40759220
vt 0.66872300 0.43224000
vt 0.40647640 0.19693800
vt 0.55675580 0.27382900
vt 0.61103210 0.36053680
vt 0.64166160 0.33040660
vt 0.61666170 0.28893240
vt 0.65524850 0.38506540
vt 0.58552090 0.24827840
vt 0.70579840 0.40716960
vt 0.68157470 0.35159860
vt 0.67727520 0.30075400
vt 0.67866320 0.27190300
vt 0.64022900 0.25975220
vt 0.61133990 0.24491780
vt 0.78350930 0.44996310
vt 0.70933290 0.49276780
vt 0.80021760 0.52348150
vt 0.71924600 0.30586390
vt 0.66064160 0.25349580
vt 0.81392520 0.41651780
vt 0.79340000 0.38285870
vt 0.79267740 0.33295530
vt 0.86698240 0.48136100
vt 0.87448550 0.39042050
vt 0.84705630 0.31537960
vt 0.77803420 0.30870530
vt 0.90963230 0.45494550
vt 0.88641000 0.50558190
vt 0.95118500 0.49410070
vt 0.93361570 0.53665420
vt 0.86164520 0.58336250
vt 0.80771420 0.57664120
vt 0.93105580 0.42438170
vt 0.89665120 0.34501350
vt 0.96781740 0.40413680
vt 0.92839720 0.32127530
vt 0.90451850 0.27618510
vt 0.84691970 0.22747180
vt 0.80261830 0.24029900
vt 0.82556840 0.18115740
vt 0.76356390 0.18309570
vt 0.70686730 0.20757080
vt 0.77387020 0.26083770
vt 0.74416130 0.27025510
vt 0.73569450 0.24677580
vt 0.73401740 0.28804800
vt 0.70963500 0.26421880
vt 0.71568850 0.24385780
vt 0.69071070 0.24621390
vt 0.66966800 0.21458530
vt 0.64047680 0.22356230
vt 0.64229660 0.20068270
vt 0.61732860 0.22606020
vt 0.59721200 0.23134090
vt 0.59234050 0.18660980
vt 0.59240290 0.16967970
vt 0.57304450 0.21786850
vt 0.53105060 0.20774100
vt 0.55844400 0.20542640
vt 0.55999940 0.17485160
vt 0.50967340 0.13245530
vt 0.51788560 0.17261320
vt 0.66154670 0.17063770
vt 0.50738020 0.18577850
vt 0.69093440 0.13715310
vt 0.71734490 0.11622010
vt 0.49794550 0.20121820
vt 0.49299140 0.17751280
vt 0.59931440 0.11089710
vt 0.59632250 0.06709969
vt 0.60629410 0.03754866
vt 0.51522580 0.07824996
vt 0.44125170 0.19706720
vt 0.47426460 0.18580320
vt 0.40447890 0.05043146
vt 0.46203570 0.04151881
vt 0.47384050 0.00653860
vt 0.45057720 0.14228840
vt 0.46337780 0.15740630
vt 0.44425320 0.17885850
vt 0.41278460 0.16948550
vt 0.38772800 0.12709320
vt 0.41029940 0.14722800
vt 0.35939190 0.15589030
vt 0.37878200 0.18554410
vt 0.32856390 0.16328070
vt 0.01691440 0.74027410
vt 0.02637693 0.73693040
vt 0.02363414 0.71514130
vt 0.02482674 0.76547220
vt 0.51377760 0.94738910
vt 0.54576920 0.92092790
vt 0.53257810 0.91046260
vt 0.47412160 0.95109360
vt 0.46966150 0.96407810
vt 0.41250260 0.93027420
vt 0.41695310 0.97542330
vt 0.56108080 0.89239170
vt 0.55168330 0.88114480
vt 0.55966290 0.87116900
vt 0.54182170 0.84935030
vt 0.54854530 0.82905350
vt 0.88864460 0.60825840
vt 0.96662160 0.55366900
vt 0.99325010 0.51503750
vt 0.97934470 0.47178080
vt 1.00253800 0.44961690
vt 0.98884380 0.36775240
vt 0.35134150 0.00704035
vt 0.30002870 0.04631719
vt 0.22161330 0.03086463
vt 0.52310190 0.02010271
vt 0.79782530 0.12499490
vt 0.70868980 0.07510257
vt 0.88198830 0.19055820
vt 0.95400480 0.27477850
vt 0.79303420 0.61481200
vt 0.80915280 0.66402170
vt 0.75105690 0.64973620
vt 0.70294030 0.68695550
vt 0.65815790 0.65861300
vt 0.61224700 0.70352920
vt 0.53886660 0.69065670
vt 0.72427710 0.61206140
vt 0.69353070 0.56045200
vt 0.61167780 0.63432080
vt 0.73742230 0.53178000
vt 0.63094850 0.57476680
vt 0.52311220 0.63443030
vt 0.55636010 0.60018890
vt 0.54663650 0.56595130
vt 0.45980340 0.64782820
vt 0.40412620 0.66512360
vt 0.49030360 0.57814500
vt 0.34103160 0.60899840
vt 0.29651910 0.61060230
vt 0.40822560 0.57288440
vt 0.21703980 0.51324500
vt 0.20520270 0.55443800
vt 0.44627480 0.54711150
vt 0.30948110 0.54165140
vt 0.37182350 0.51228670
vt 0.18571700 0.51022920
vt 0.13908090 0.50885590
vt 0.28184220 0.47880540
vt 0.09909928 0.43827350
vt 0.08560923 0.46075470
vt 0.04409754 0.39050810
vt 0.16207150 0.44401980
vt 0.05895895 0.35553530
vt 0.14759330 0.39776080
vt 0.22531490 0.41791660
vt 0.14885180 0.34754120
vt 0.22539250 0.38729870
vt 0.28969470 0.45443850
vt 0.25965200 0.41535240
vt 0.31141800 0.46556620
vt 0.32955340 0.39953450
vt 0.31052230 0.42465230
vt 0.38640040 0.48528760
vt 0.33108110 0.45553380
vt 0.41798870 0.45479360
vt 0.34790070 0.42365880
vt 0.42639230 0.43838130
vt 0.43848400 0.51582290
vt 0.47771670 0.52947840
vt 0.40678520 0.48252290
vt 0.43260920 0.48924170
vt 0.47599850 0.51163460
vt 0.50631900 0.53337560
vt 0.47334740 0.49036160
vt 0.52105800 0.49089880
vt 0.52033690 0.47258460
vt 0.55468490 0.46220980
vt 0.57413920 0.50058160
vt 0.63398500 0.48485090
vt 0.54079190 0.51390750
vt 0.67772160 0.52029940
vt 0.69326980 0.53564710
vt 0.66161570 0.52350700
vt 0.66069080 0.54399830
vt 0.61805990 0.50936330
vt 0.58524390 0.51964900
vt 0.59162870 0.53798150
vt 0.60753050 0.55513780
vt 0.55556350 0.52546970
vt 0.55852310 0.55375010
vt 0.51634550 0.79478870
vt 0.48696050 0.79989480
vt 0.47675240 0.75453980
vt 0.52075150 0.88285310
vt 0.40696960 0.72665690
vt 0.43511630 0.73029980
vt 0.40813450 0.70287590
vt 0.33834560 0.67642380
vt 0.46238150 0.84206740
vt 0.38156120 0.73670210
vt 0.31928290 0.69536890
vt 0.32391120 0.74342380
vt 0.27029110 0.67299590
vt 0.22456040 0.68276080
vt 0.16927200 0.71542750
vt 0.16378550 0.66596020
vt 0.17359070 0.64536000
vt 0.13566030 0.65011790
vt 0.10059070 0.68855850
vt 0.09204292 0.65967500
vt 0.05304742 0.68197850
vt 0.04408015 0.72499060
vt 0.06846948 0.76983520
vt 0.08007298 0.73253490
vt 0.13314860 0.77535120
vt 0.27818550 0.87071790
vt 0.04086013 0.78564740
vt 0.05235645 0.81678470
vt 0.19599800 0.87680860
vt 0.08101264 0.81141100
vt 0.34094410 0.90045580
vt 0.26801150 0.92400430
vt 0.32908870 0.93905960
vt 0.36046090 0.97031920
vt 0.30321920 0.96339980
vt 0.24510410 0.94917490
f 3/3/3 2/2/2 1/1/1
f 5/5/5 2/2/2 4/4/4
f 6/6/6 5/5/5 4/4/4
f 5/5/5 6/6/6 7/7/7
f 10/10/10 9/9/9 8/8/8
f 13/13/13 12/12/12 11/11/11
f 16/16/16 15/15/15 14/14/14
f 19/19/19 18/18/18 17/17/17
f 20/20/20 17/17/17 18/18/18
f 20/20/20 18/18/18 15/15/15
f 20/20/20 15/15/15 16/16/16
f 20/20/20 16/16/16 21/21/21
f 17/17/17 20/20/20 22/22/22
f 20/20/20 21/21/21 22/22/22
f 22/22/22 23/23/23 17/17/17
f 23/23/23 24/24/24 17/17/17
f 21/21/21 25/25/25 22/22/22
f 21/21/21 26/26/26 25/25/25
f 24/24/24 23/23/23 27/27/27
f 24/24/24 27/27/27 28/28/28
f 27/27/27 29/29/29 28/28/28
f 30/30/30 29/29/29 27/27/27
f 23/23/23 31/31/31 27/27/27
f 30/30/30 27/27/27 31/31/31
f 32/32/32 23/23/23 22/22/22
f 23/23/23 32/32/32 31/31/31
f 33/33/33 30/30/30 31/31/31
f 33/33/33 31/31/31 32/32/32
f 34/34/34 32/32/32 22/22/22
f 25/25/25 34/34/34 22/22/22
f 32/32/32 34/34/34 35/35/35
f 35/35/35 33/33/33 32/32/32
f 34/34/34 36/36/36 35/35/35
f 25/25/25 36/36/36 34/34/34
f 25/25/25 26/26/26 37/37/37
f 37/37/37 26/26/26 38/38/38
f 39/39/39 25/25/25 37/37/37
f 25/25/25 39/39/39 36/36/36
f 39/39/39 40/40/40 36/36/36
f 37/37/37 41/41/41 39/39/39
f 41/41/41 40/40/40 39/39/39
f 41/41/41 42/42/42 40/40/40
f 43/43/43 35/35/35 36/36/36
f 33/33/33 35/35/35 43/43/43
f 36/36/36 44/44/44 43/43/43
f 44/44/44 36/36/36 40/40/40
f 33/33/33 43/43/43 45/45/45
f 43/43/43 44/44/44 45/45/45
f 46/46/46 33/33/33 45/45/45
f 30/30/30 33/33/33 46/46/46
f 30/30/30 46/46/46 47/47/47
f 48/48/48 47/47/47 46/46/46
f 47/47/47 48/48/48 49/49/49
f 50/50/50 46/46/46 45/45/45
f 46/46/46 50/50/50 48/48/48
f 49/49/49 48/48/48 51/51/51
f 51/51/51 52/52/52 49/49/49
f 48/48/48 53/53/53 51/51/51
f 53/53/53 48/48/48 50/50/50
f 54/54/54 52/52/52 51/51/51
f 54/54/54 51/51/51 53/53/53
f 50/50/50 55/55/55 53/53/53
f 54/54/54 53/53/53 55/55/55
f 54/54/54 56/56/56 52/52/52
f 57/57/57 52/52/52 56/56/56
f 54/54/54 55/55/55 58/58/58
f 58/58/58 56/56/56 54/54/54
f 56/56/56 59/59/59 57/57/57
f 59/59/59 56/56/56 58/58/58
f 59/59/59 60/60/60 57/57/57
f 55/55/55 50/50/50 61/61/61
f 55/55/55 61/61/61 58/58/58
f 62/62/62 50/50/50 45/45/45
f 50/50/50 62/62/62 61/61/61
f 63/63/63 60/60/60 59/59/59
f 64/64/64 60/60/60 63/63/63
f 59/59/59 58/58/58 65/65/65
f 58/58/58 61/61/61 65/65/65
f 63/63/63 59/59/59 65/65/65
f 61/61/61 66/66/66 65/65/65
f 63/63/63 65/65/65 66/66/66
f 67/67/67 64/64/64 63/63/63
f 64/64/64 67/67/67 68/68/68
f 45/45/45 69/69/69 62/62/62
f 69/69/69 45/45/45 44/44/44
f 66/66/66 61/61/61 70/70/70
f 61/61/61 62/62/62 70/70/70
f 70/70/70 62/62/62 12/12/12
f 71/71/71 63/63/63 66/66/66
f 63/63/63 71/71/71 67/67/67
f 66/66/66 72/72/72 71/71/71
f 72/72/72 67/67/67 71/71/71
f 70/70/70 73/73/73 66/66/66
f 73/73/73 72/72/72 66/66/66
f 67/67/67 74/74/74 68/68/68
f 67/67/67 72/72/72 74/74/74
f 11/11/11 62/62/62 69/69/69
f 12/12/12 62/62/62 11/11/11
f 75/75/75 70/70/70 12/12/12
f 75/75/75 73/73/73 70/70/70
f 68/68/68 74/74/74 76/76/76
f 72/72/72 77/77/77 74/74/74
f 76/76/76 74/74/74 77/77/77
f 73/73/73 78/78/78 72/72/72
f 72/72/72 78/78/78 77/77/77
f 79/79/79 78/78/78 73/73/73
f 80/80/80 73/73/73 75/75/75
f 80/80/80 79/79/79 73/73/73
f 80/80/80 75/75/75 81/81/81
f 81/81/81 75/75/75 12/12/12
f 82/82/82 68/68/68 76/76/76
f 83/83/83 68/68/68 82/82/82
f 84/84/84 83/83/83 82/82/82
f 78/78/78 85/85/85 77/77/77
f 85/85/85 78/78/78 79/79/79
f 81/81/81 86/86/86 80/80/80
f 79/79/79 80/80/80 86/86/86
f 87/87/87 82/82/82 76/76/76
f 77/77/77 88/88/88 76/76/76
f 76/76/76 88/88/88 87/87/87
f 88/88/88 77/77/77 89/89/89
f 85/85/85 89/89/89 77/77/77
f 82/82/82 90/90/90 84/84/84
f 87/87/87 90/90/90 82/82/82
f 91/91/91 87/87/87 88/88/88
f 91/91/91 88/88/88 89/89/89
f 91/91/91 89/89/89 92/92/92
f 89/89/89 93/93/93 92/92/92
f 93/93/93 89/89/89 85/85/85
f 94/94/94 90/90/90 87/87/87
f 94/94/94 87/87/87 91/91/91
f 95/95/95 84/84/84 90/90/90
f 95/95/95 90/90/90 94/94/94
f 94/94/94 96/96/96 95/95/95
f 97/97/97 95/95/95 96/96/96
f 97/97/97 98/98/98 95/95/95
f 95/95/95 98/98/98 84/84/84
f 84/84/84 98/98/98 99/99/99
f 91/91/91 100/100/100 94/94/94
f 100/100/100 91/91/91 101/101/101
f 91/91/91 92/92/92 101/101/101
f 101/101/101 102/102/102 100/100/100
f 102/102/102 101/101/101 103/103/103
f 103/103/103 101/101/101 92/92/92
f 92/92/92 104/104/104 103/103/103
f 104/104/104 92/92/92 105/105/105
f 92/92/92 106/106/106 105/105/105
f 105/105/105 106/106/106 107/107/107
f 108/108/108 107/107/107 106/106/106
f 108/108/108 106/106/106 109/109/109
f 92/92/92 110/110/110 106/106/106
f 109/109/109 106/106/106 110/110/110
f 93/93/93 110/110/110 92/92/92
f 93/93/93 111/111/111 110/110/110
f 112/112/112 109/109/109 110/110/110
f 111/111/111 112/112/112 110/110/110
f 113/113/113 111/111/111 93/93/93
f 93/93/93 85/85/85 113/113/113
f 79/79/79 113/113/113 85/85/85
f 114/114/114 111/111/111 113/113/113
f 79/79/79 114/114/114 113/113/113
f 111/111/111 115/115/115 112/112/112
f 111/111/111 114/114/114 115/115/115
f 116/116/116 114/114/114 79/79/79
f 116/116/116 115/115/115 114/114/114
f 79/79/79 86/86/86 116/116/116
f 112/112/112 115/115/115 117/117/117
f 116/116/116 117/117/117 115/115/115
f 117/117/117 109/109/109 112/112/112
f 117/117/117 116/116/116 86/86/86
f 86/86/86 118/118/118 117/117/117
f 117/117/117 118/118/118 119/119/119
f 117/117/117 119/119/119 109/109/109
f 118/118/118 86/86/86 120/120/120
f 120/120/120 119/119/119 118/118/118
f 81/81/81 120/120/120 86/86/86
f 81/81/81 121/121/121 120/120/120
f 121/121/121 81/81/81 12/12/12
f 119/119/119 120/120/120 122/122/122
f 122/122/122 120/120/120 121/121/121
f 123/123/123 109/109/109 119/119/119
f 122/122/122 123/123/123 119/119/119
f 121/121/121 12/12/12 124/124/124
f 121/121/121 124/124/124 122/122/122
f 124/124/124 12/12/12 125/125/125
f 13/13/13 125/125/125 12/12/12
f 124/124/124 126/126/126 122/122/122
f 124/124/124 125/125/125 126/126/126
f 127/127/127 122/122/122 126/126/126
f 123/123/123 122/122/122 127/127/127
f 126/126/126 125/125/125 127/127/127
f 128/128/128 123/123/123 127/127/127
f 128/128/128 127/127/127 129/129/129
f 127/127/127 125/125/125 129/129/129
f 123/123/123 128/128/128 130/130/130
f 109/109/109 123/123/123 130/130/130
f 108/108/108 109/109/109 130/130/130
f 13/13/13 131/131/131 125/125/125
f 125/125/125 131/131/131 129/129/129
f 132/132/132 108/108/108 130/130/130
f 108/108/108 132/132/132 133/133/133
f 131/131/131 13/13/13 134/134/134
f 11/11/11 134/134/134 13/13/13
f 129/129/129 131/131/131 135/135/135
f 135/135/135 128/128/128 129/129/129
f 135/135/135 131/131/131 134/134/134
f 136/136/136 132/132/132 130/130/130
f 136/136/136 130/130/130 128/128/128
f 133/133/133 132/132/132 137/137/137
f 132/132/132 136/136/136 137/137/137
f 138/138/138 133/133/133 137/137/137
f 137/137/137 136/136/136 139/139/139
f 139/139/139 136/136/136 128/128/128
f 140/140/140 134/134/134 11/11/11
f 69/69/69 140/140/140 11/11/11
f 135/135/135 134/134/134 141/141/141
f 141/141/141 134/134/134 140/140/140
f 142/142/142 139/139/139 128/128/128
f 142/142/142 143/143/143 139/139/139
f 143/143/143 144/144/144 139/139/139
f 142/142/142 128/128/128 42/42/42
f 135/135/135 145/145/145 128/128/128
f 145/145/145 42/42/42 128/128/128
f 135/135/135 141/141/141 146/146/146
f 135/135/135 146/146/146 145/145/145
f 140/140/140 147/147/147 141/141/141
f 147/147/147 146/146/146 141/141/141
f 148/148/148 147/147/147 140/140/140
f 69/69/69 148/148/148 140/140/140
f 148/148/148 146/146/146 147/147/147
f 149/149/149 42/42/42 145/145/145
f 42/42/42 149/149/149 40/40/40
f 146/146/146 150/150/150 145/145/145
f 150/150/150 149/149/149 145/145/145
f 146/146/146 148/148/148 150/150/150
f 149/149/149 150/150/150 151/151/151
f 149/149/149 151/151/151 40/40/40
f 151/151/151 150/150/150 148/148/148
f 148/148/148 69/69/69 152/152/152
f 151/151/151 148/148/148 152/152/152
f 44/44/44 152/152/152 69/69/69
f 40/40/40 151/151/151 153/153/153
f 152/152/152 153/153/153 151/151/151
f 44/44/44 40/40/40 153/153/153
f 153/153/153 152/152/152 44/44/44
f 156/156/156 155/155/155 154/154/154
f 157/157/157 154/154/154 155/155/155
f 160/160/160 159/159/159 158/158/158
f 161/161/161 160/160/160 158/158/158
f 161/161/161 158/158/158 162/162/162
f 163/163/163 160/160/160 161/161/161
f 164/164/164 161/161/161 162/162/162
f 164/164/164 163/163/163 161/161/161
f 160/160/160 165/165/165 159/159/159
f 165/165/165 160/160/160 166/166/166
f 167/167/167 165/165/165 166/166/166
f 168/168/168 167/167/167 166/166/166
f 169/169/169 167/167/167 168/168/168
f 171/171/171 170/170/170 97/97/97
f 97/97/97 172/172/172 171/171/171
f 172/172/172 97/97/97 96/96/96
f 172/172/172 96/96/96 173/173/173
f 173/173/173 174/174/174 172/172/172
f 173/173/173 96/96/96 100/100/100
f 96/96/96 94/94/94 100/100/100
f 173/173/173 100/100/100 102/102/102
f 174/174/174 173/173/173 102/102/102
f 102/102/102 175/175/175 174/174/174
f 143/143/143 142/142/142 144/144/144
f 176/176/176 144/144/144 142/142/142
f 177/177/177 176/176/176 142/142/142
f 42/42/42 177/177/177 142/142/142
f 177/177/177 42/42/42 41/41/41
f 177/177/177 178/178/178 176/176/176
f 177/177/177 41/41/41 178/178/178
f 37/37/37 178/178/178 41/41/41
f 178/178/178 37/37/37 38/38/38
f 144/144/144 179/179/179 139/139/139
f 179/179/179 137/137/137 139/139/139
f 179/179/179 138/138/138 137/137/137
f 133/133/133 107/107/107 108/108/108
f 107/107/107 133/133/133 180/180/180
f 181/181/181 180/180/180 133/133/133
f 138/138/138 181/181/181 133/133/133
f 182/182/182 107/107/107 180/180/180
f 107/107/107 182/182/182 105/105/105
f 104/104/104 105/105/105 182/182/182
f 104/104/104 182/182/182 183/183/183
f 103/103/103 104/104/104 183/183/183
f 175/175/175 103/103/103 183/183/183
f 102/102/102 103/103/103 175/175/175
f 98/98/98 97/97/97 170/170/170
f 99/99/99 98/98/98 170/170/170
f 99/99/99 170/170/170 184/184/184
f 170/170/170 185/185/185 184/184/184
f 185/185/185 186/186/186 184/184/184
f 186/186/186 185/185/185 187/187/187
f 187/187/187 188/188/188 186/186/186
f 187/187/187 189/189/189 188/188/188
f 188/188/188 189/189/189 190/190/190
f 191/191/191 184/184/184 186/186/186
f 186/186/186 188/188/188 191/191/191
f 184/184/184 192/192/192 99/99/99
f 184/184/184 191/191/191 192/192/192
f 193/193/193 191/191/191 188/188/188
f 190/190/190 193/193/193 188/188/188
f 192/192/192 194/194/194 99/99/99
f 84/84/84 99/99/99 194/194/194
f 83/83/83 84/84/84 194/194/194
f 193/193/193 195/195/195 191/191/191
f 195/195/195 192/192/192 191/191/191
f 190/190/190 196/196/196 193/193/193
f 193/193/193 197/197/197 195/195/195
f 193/193/193 196/196/196 197/197/197
f 197/197/197 198/198/198 195/195/195
f 196/196/196 190/190/190 199/199/199
f 199/199/199 190/190/190 200/200/200
f 201/201/201 197/197/197 196/196/196
f 197/197/197 201/201/201 198/198/198
f 199/199/199 201/201/201 196/196/196
f 200/200/200 202/202/202 199/199/199
f 200/200/200 203/203/203 202/202/202
f 199/199/199 204/204/204 201/201/201
f 204/204/204 199/199/199 202/202/202
f 202/202/202 203/203/203 205/205/205
f 203/203/203 206/206/206 205/205/205
f 207/207/207 198/198/198 201/201/201
f 204/204/204 207/207/207 201/201/201
f 202/202/202 208/208/208 204/204/204
f 205/205/205 208/208/208 202/202/202
f 208/208/208 209/209/209 204/204/204
f 209/209/209 207/207/207 204/204/204
f 205/205/205 206/206/206 210/210/210
f 210/210/210 206/206/206 211/211/211
f 212/212/212 208/208/208 205/205/205
f 212/212/212 209/209/209 208/208/208
f 211/211/211 213/213/213 210/210/210
f 211/211/211 214/214/214 213/213/213
f 215/215/215 213/213/213 214/214/214
f 216/216/216 205/205/205 210/210/210
f 216/216/216 212/212/212 205/205/205
f 213/213/213 216/216/216 210/210/210
f 215/215/215 217/217/217 213/213/213
f 14/14/14 217/217/217 215/215/215
f 14/14/14 15/15/15 217/217/217
f 15/15/15 18/18/18 217/217/217
f 18/18/18 19/19/19 217/217/217
f 19/19/19 213/213/213 217/217/217
f 19/19/19 216/216/216 213/213/213
f 19/19/19 218/218/218 216/216/216
f 216/216/216 218/218/218 219/219/219
f 212/212/212 216/216/216 219/219/219
f 218/218/218 19/19/19 220/220/220
f 220/220/220 219/219/219 218/218/218
f 19/19/19 17/17/17 220/220/220
f 24/24/24 220/220/220 17/17/17
f 28/28/28 220/220/220 24/24/24
f 221/221/221 220/220/220 28/28/28
f 220/220/220 221/221/221 219/219/219
f 28/28/28 29/29/29 221/221/221
f 222/222/222 212/212/212 219/219/219
f 219/219/219 221/221/221 223/223/223
f 219/219/219 223/223/223 222/222/222
f 222/222/222 224/224/224 212/212/212
f 212/212/212 224/224/224 209/209/209
f 225/225/225 223/223/223 221/221/221
f 225/225/225 221/221/221 29/29/29
f 222/222/222 223/223/223 226/226/226
f 226/226/226 224/224/224 222/222/222
f 223/223/223 225/225/225 226/226/226
f 209/209/209 224/224/224 227/227/227
f 226/226/226 228/228/228 224/224/224
f 224/224/224 228/228/228 227/227/227
f 226/226/226 229/229/229 228/228/228
f 227/227/227 228/228/228 229/229/229
f 230/230/230 229/229/229 226/226/226
f 225/225/225 230/230/230 226/226/226
f 230/230/230 231/231/231 229/229/229
f 225/225/225 231/231/231 230/230/230
f 225/225/225 29/29/29 49/49/49
f 225/225/225 49/49/49 231/231/231
f 29/29/29 47/47/47 49/49/49
f 29/29/29 30/30/30 47/47/47
f 49/49/49 52/52/52 231/231/231
f 231/231/231 52/52/52 57/57/57
f 57/57/57 229/229/229 231/231/231
f 232/232/232 209/209/209 227/227/227
f 207/207/207 209/209/209 232/232/232
f 232/232/232 233/233/233 207/207/207
f 233/233/233 198/198/198 207/207/207
f 227/227/227 229/229/229 234/234/234
f 235/235/235 227/227/227 234/234/234
f 235/235/235 232/232/232 227/227/227
f 234/234/234 229/229/229 235/235/235
f 232/232/232 236/236/236 233/233/233
f 232/232/232 235/235/235 236/236/236
f 198/198/198 233/233/233 237/237/237
f 236/236/236 237/237/237 233/233/233
f 238/238/238 236/236/236 235/235/235
f 235/235/235 229/229/229 238/238/238
f 239/239/239 236/236/236 238/238/238
f 239/239/239 238/238/238 229/229/229
f 236/236/236 239/239/239 237/237/237
f 229/229/229 57/57/57 240/240/240
f 239/239/239 229/229/229 240/240/240
f 240/240/240 57/57/57 241/241/241
f 60/60/60 241/241/241 57/57/57
f 64/64/64 241/241/241 60/60/60
f 240/240/240 242/242/242 239/239/239
f 241/241/241 242/242/242 240/240/240
f 243/243/243 241/241/241 64/64/64
f 243/243/243 242/242/242 241/241/241
f 237/237/237 239/239/239 244/244/244
f 244/244/244 239/239/239 242/242/242
f 83/83/83 243/243/243 64/64/64
f 68/68/68 83/83/83 64/64/64
f 245/245/245 243/243/243 83/83/83
f 245/245/245 83/83/83 194/194/194
f 194/194/194 246/246/246 245/245/245
f 192/192/192 246/246/246 194/194/194
f 247/247/247 243/243/243 245/245/245
f 247/247/247 245/245/245 246/246/246
f 246/246/246 192/192/192 248/248/248
f 248/248/248 247/247/247 246/246/246
f 195/195/195 248/248/248 192/192/192
f 243/243/243 249/249/249 242/242/242
f 243/243/243 247/247/247 249/249/249
f 250/250/250 244/244/244 242/242/242
f 249/249/249 250/250/250 242/242/242
f 247/247/247 251/251/251 249/249/249
f 251/251/251 247/247/247 248/248/248
f 250/250/250 249/249/249 251/251/251
f 252/252/252 248/248/248 195/195/195
f 251/251/251 248/248/248 252/252/252
f 198/198/198 252/252/252 195/195/195
f 244/244/244 250/250/250 253/253/253
f 250/250/250 251/251/251 253/253/253
f 237/237/237 244/244/244 253/253/253
f 251/251/251 252/252/252 254/254/254
f 198/198/198 254/254/254 252/252/252
f 254/254/254 253/253/253 251/251/251
f 237/237/237 253/253/253 254/254/254
f 198/198/198 237/237/237 254/254/254
f 255/255/255 169/169/169 168/168/168
f 256/256/256 255/255/255 168/168/168
f 257/257/257 255/255/255 256/256/256
f 256/256/256 168/168/168 258/258/258
f 166/166/166 258/258/258 168/168/168
f 160/160/160 258/258/258 166/166/166
f 163/163/163 258/258/258 160/160/160
f 257/257/257 256/256/256 259/259/259
f 257/257/257 259/259/259 260/260/260
f 261/261/261 260/260/260 259/259/259
f 259/259/259 262/262/262 261/261/261
f 258/258/258 263/263/263 256/256/256
f 263/263/263 258/258/258 163/163/163
f 259/259/259 256/256/256 264/264/264
f 256/256/256 263/263/263 264/264/264
f 259/259/259 265/265/265 262/262/262
f 264/264/264 265/265/265 259/259/259
f 263/263/263 266/266/266 264/264/264
f 265/265/265 264/264/264 266/266/266
f 262/262/262 265/265/265 267/267/267
f 262/262/262 267/267/267 10/10/10
f 10/10/10 267/267/267 9/9/9
f 268/268/268 267/267/267 265/265/265
f 268/268/268 9/9/9 267/267/267
f 268/268/268 265/265/265 269/269/269
f 269/269/269 265/265/265 266/266/266
f 270/270/270 9/9/9 268/268/268
f 269/269/269 270/270/270 268/268/268
f 9/9/9 270/270/270 271/271/271
f 8/8/8 9/9/9 271/271/271
f 270/270/270 272/272/272 271/271/271
f 273/273/273 272/272/272 270/270/270
f 269/269/269 273/273/273 270/270/270
f 274/274/274 272/272/272 273/273/273
f 274/274/274 273/273/273 275/275/275
f 273/273/273 276/276/276 275/275/275
f 156/156/156 275/275/275 276/276/276
f 156/156/156 276/276/276 155/155/155
f 276/276/276 277/277/277 155/155/155
f 155/155/155 277/277/277 157/157/157
f 276/276/276 273/273/273 278/278/278
f 273/273/273 269/269/269 278/278/278
f 278/278/278 277/277/277 276/276/276
f 269/269/269 279/279/279 278/278/278
f 277/277/277 278/278/278 279/279/279
f 266/266/266 279/279/279 269/269/269
f 279/279/279 266/266/266 280/280/280
f 280/280/280 266/266/266 263/263/263
f 281/281/281 157/157/157 277/277/277
f 282/282/282 157/157/157 281/281/281
f 279/279/279 283/283/283 277/277/277
f 280/280/280 283/283/283 279/279/279
f 281/281/281 277/277/277 284/284/284
f 281/281/281 284/284/284 282/282/282
f 277/277/277 283/283/283 284/284/284
f 285/285/285 280/280/280 263/263/263
f 163/163/163 285/285/285 263/263/263
f 282/282/282 284/284/284 3/3/3
f 1/1/1 282/282/282 3/3/3
f 2/2/2 3/3/3 284/284/284
f 284/284/284 4/4/4 2/2/2
f 283/283/283 4/4/4 284/284/284
f 286/286/286 283/283/283 280/280/280
f 4/4/4 283/283/283 286/286/286
f 280/280/280 285/285/285 286/286/286
f 4/4/4 286/286/286 6/6/6
f 285/285/285 163/163/163 287/287/287
f 285/285/285 287/287/287 286/286/286
f 164/164/164 287/287/287 163/163/163
f 288/288/288 287/287/287 164/164/164
f 288/288/288 289/289/289 287/287/287
f 289/289/289 286/286/286 287/287/287
f 6/6/6 286/286/286 289/289/289
f 6/6/6 289/289/289 290/290/290
f 7/7/7 6/6/6 290/290/290

