# Blender v2.78 (sub 0) OBJ File: 'cubes2.blend'
# www.blender.org
mtllib crayon_pink.mtl
o crayon_pink_Cylinder
v -0.000000 6.834162 -0.422712
v 0.119091 6.834162 -0.405589
v 0.228535 6.834162 -0.355608
v 0.319464 6.834162 -0.276817
v 0.384511 6.834162 -0.175601
v 0.418408 6.834162 -0.060158
v 0.418408 6.834162 0.060158
v 0.384511 6.834162 0.175601
v 0.319464 6.834162 0.276817
v 0.228535 6.834162 0.355607
v 0.119091 6.834162 0.405589
v -0.000000 6.834162 0.422711
v -0.119092 6.834162 0.405589
v -0.228536 6.834162 0.355608
v -0.319464 6.834162 0.276817
v -0.384512 6.834162 0.175601
v -0.418409 6.834162 0.060158
v -0.418409 6.834162 -0.060158
v -0.384512 6.834162 -0.175600
v -0.319465 6.834162 -0.276817
v -0.228536 6.834162 -0.355607
v -0.119092 6.834162 -0.405589
v 0.023920 8.324426 -0.081466
v 0.032557 8.295589 -0.110877
v -0.000000 8.295589 -0.115558
v 0.000000 8.324426 -0.084905
v 0.045903 8.324426 -0.071427
v 0.062475 8.295589 -0.097214
v 0.064167 8.324426 -0.055601
v 0.087333 8.295589 -0.075675
v 0.077232 8.324426 -0.035271
v 0.105115 8.295589 -0.048005
v 0.084041 8.324426 -0.012083
v 0.114382 8.295589 -0.016446
v 0.084041 8.324426 0.012083
v 0.114382 8.295589 0.016446
v 0.077232 8.324426 0.035271
v 0.105115 8.295589 0.048005
v 0.064167 8.324426 0.055601
v 0.087333 8.295589 0.075675
v 0.045903 8.324426 0.071427
v 0.062475 8.295589 0.097214
v 0.023920 8.324426 0.081466
v 0.032557 8.295589 0.110877
v 0.000000 8.324426 0.084905
v 0.000000 8.295589 0.115558
v -0.023921 8.324426 0.081466
v -0.032557 8.295589 0.110877
v -0.045903 8.324426 0.071427
v -0.062476 8.295589 0.097214
v -0.064167 8.324426 0.055601
v -0.087333 8.295589 0.075675
v -0.077232 8.324426 0.035271
v -0.105116 8.295589 0.048005
v -0.084041 8.324426 0.012083
v -0.114382 8.295589 0.016446
v -0.084041 8.324426 -0.012083
v -0.114382 8.295589 -0.016446
v -0.077232 8.324426 -0.035271
v -0.105116 8.295589 -0.048005
v -0.064167 8.324426 -0.055601
v -0.087334 8.295589 -0.075675
v -0.045903 8.324426 -0.071427
v -0.062476 8.295589 -0.097214
v -0.023921 8.324426 -0.081466
v -0.032557 8.295589 -0.110877
v -0.000000 0.033392 -0.447529
v -0.000000 0.105370 -0.505442
v 0.126083 0.033392 -0.429401
v 0.142399 0.105370 -0.484968
v 0.241951 0.033392 -0.376485
v 0.273262 0.105370 -0.425205
v 0.338219 0.033392 -0.293069
v 0.381987 0.105370 -0.330994
v 0.407086 0.033392 -0.185910
v 0.459766 0.105370 -0.209968
v 0.442973 0.033392 -0.063690
v 0.500297 0.105370 -0.071932
v 0.442973 0.033392 0.063690
v 0.500297 0.105370 0.071932
v 0.407086 0.033392 0.185910
v 0.459766 0.105370 0.209968
v 0.338219 0.033392 0.293069
v 0.381987 0.105370 0.330994
v 0.241951 0.033392 0.376485
v 0.273262 0.105370 0.425205
v 0.126083 0.033392 0.429400
v 0.142399 0.105370 0.484968
v -0.000000 0.033392 0.447528
v -0.000000 0.105370 0.505442
v -0.126084 0.033392 0.429400
v -0.142400 0.105370 0.484968
v -0.241952 0.033392 0.376485
v -0.273263 0.105370 0.425205
v -0.338220 0.033392 0.293069
v -0.381988 0.105370 0.330994
v -0.407087 0.033392 0.185910
v -0.459767 0.105370 0.209968
v -0.442974 0.033392 0.063690
v -0.500298 0.105370 0.071932
v -0.442974 0.033392 -0.063690
v -0.500298 0.105370 -0.071932
v -0.407087 0.033392 -0.185910
v -0.459767 0.105370 -0.209968
v -0.338220 0.033392 -0.293069
v -0.381989 0.105370 -0.330994
v -0.241953 0.033392 -0.376485
v -0.273263 0.105370 -0.425205
v -0.126084 0.033392 -0.429400
v -0.142401 0.105370 -0.484968
v 0.138210 6.815506 -0.470701
v 0.142399 6.789528 -0.484968
v -0.000000 6.789528 -0.505442
v -0.000000 6.815506 -0.490572
v 0.265223 6.815506 -0.412696
v 0.273262 6.789528 -0.425205
v 0.370749 6.815507 -0.321257
v 0.381987 6.789528 -0.330994
v 0.446240 6.815506 -0.203791
v 0.459766 6.789528 -0.209968
v 0.485579 6.815507 -0.069816
v 0.500297 6.789528 -0.071932
v 0.485579 6.815507 0.069816
v 0.500297 6.789528 0.071932
v 0.446240 6.815507 0.203791
v 0.459766 6.789528 0.209968
v 0.370749 6.815507 0.321256
v 0.381987 6.789528 0.330994
v 0.265223 6.815507 0.412696
v 0.273262 6.789528 0.425205
v 0.138210 6.815507 0.470701
v 0.142399 6.789528 0.484968
v -0.000000 6.815507 0.490572
v -0.000000 6.789528 0.505442
v -0.138210 6.815507 0.470701
v -0.142400 6.789528 0.484968
v -0.265224 6.815507 0.412696
v -0.273263 6.789528 0.425205
v -0.370750 6.815507 0.321257
v -0.381988 6.789528 0.330994
v -0.446241 6.815507 0.203791
v -0.459767 6.789528 0.209968
v -0.485579 6.815507 0.069816
v -0.500298 6.789528 0.071932
v -0.485579 6.815506 -0.069815
v -0.500298 6.789528 -0.071932
v -0.446241 6.815506 -0.203791
v -0.459767 6.789528 -0.209968
v -0.370750 6.815506 -0.321256
v -0.381989 6.789528 -0.330994
v -0.265224 6.815506 -0.412696
v -0.273263 6.789528 -0.425205
v -0.138211 6.815506 -0.470701
v -0.142401 6.789528 -0.484968
vt 0.8039 0.8977
vt 0.8027 0.8895
vt 0.8074 0.8881
vt 0.8087 0.8977
vt 0.7993 0.8820
vt 0.8034 0.8793
vt 0.7939 0.8757
vt 0.7970 0.8720
vt 0.7869 0.8713
vt 0.7889 0.8668
vt 0.7790 0.8689
vt 0.7797 0.8641
vt 0.7707 0.8689
vt 0.7700 0.8641
vt 0.7628 0.8712
vt 0.7608 0.8668
vt 0.7558 0.8757
vt 0.7526 0.8720
vt 0.7504 0.8819
vt 0.7463 0.8793
vt 0.7470 0.8894
vt 0.7423 0.8881
vt 0.7458 0.8976
vt 0.7409 0.8976
vt 0.7470 0.9058
vt 0.7423 0.9072
vt 0.7504 0.9133
vt 0.7463 0.9159
vt 0.7558 0.9195
vt 0.7526 0.9232
vt 0.7627 0.9240
vt 0.7607 0.9284
vt 0.7707 0.9263
vt 0.7700 0.9311
vt 0.7789 0.9263
vt 0.7796 0.9312
vt 0.7869 0.9240
vt 0.7889 0.9285
vt 0.7938 0.9196
vt 0.7970 0.9233
vt 0.5083 0.5147
vt 0.5160 0.5116
vt 0.5514 0.6083
vt 0.5493 0.6091
vt 0.8027 0.9059
vt 0.8074 0.9072
vt 0.7992 0.9134
vt 0.8033 0.9160
vt 0.0983 0.5166
vt 0.0983 0.9773
vt 0.0884 0.9773
vt 0.0884 0.5166
vt 0.1082 0.5166
vt 0.1083 0.9773
vt 0.1181 0.5166
vt 0.1182 0.9773
vt 0.0785 0.9773
vt 0.0785 0.5166
vt 0.0686 0.9773
vt 0.0686 0.5166
vt 0.0587 0.9773
vt 0.0586 0.5166
vt 0.0488 0.9773
vt 0.0487 0.5166
vt 0.0388 0.9773
vt 0.0388 0.5166
vt 0.0289 0.9773
vt 0.0289 0.5166
vt 0.0190 0.9773
vt 0.0190 0.5166
vt 0.0091 0.9774
vt 0.0090 0.5166
vt 0.2273 0.5166
vt 0.2272 0.9773
vt 0.2173 0.9773
vt 0.2173 0.5166
vt 0.2074 0.9773
vt 0.2074 0.5166
vt 0.1975 0.9773
vt 0.1975 0.5166
vt 0.1876 0.9773
vt 0.1876 0.5166
vt 0.1777 0.9773
vt 0.1777 0.5166
vt 0.1678 0.9773
vt 0.1677 0.5166
vt 0.1578 0.9773
vt 0.1578 0.5166
vt 0.1479 0.9773
vt 0.1479 0.5166
vt 0.1380 0.9773
vt 0.1380 0.5166
vt 0.1281 0.9773
vt 0.1281 0.5166
vt 0.5482 0.5039
vt 0.5565 0.5032
vt 0.5625 0.6060
vt 0.5602 0.6062
vt 0.6212 0.5147
vt 0.6287 0.5182
vt 0.5823 0.6101
vt 0.5802 0.6091
vt 0.5008 0.5182
vt 0.5473 0.6101
vt 0.5400 0.5051
vt 0.5580 0.6065
vt 0.6135 0.5116
vt 0.5781 0.6083
vt 0.4935 0.5222
vt 0.5453 0.6111
vt 0.5648 0.5030
vt 0.5731 0.5032
vt 0.5670 0.6060
vt 0.5648 0.6059
vt 0.6057 0.5090
vt 0.5759 0.6075
vt 0.4865 0.5266
vt 0.5434 0.6123
vt 0.5977 0.5068
vt 0.5738 0.6069
vt 0.4797 0.5313
vt 0.5415 0.6137
vt 0.5319 0.5068
vt 0.5558 0.6069
vt 0.5895 0.5051
vt 0.5715 0.6065
vt 0.6431 0.5266
vt 0.6498 0.5313
vt 0.5880 0.6137
vt 0.5862 0.6123
vt 0.5239 0.5090
vt 0.5536 0.6075
vt 0.5813 0.5039
vt 0.5693 0.6062
vt 0.6360 0.5222
vt 0.5842 0.6111
vt 0.6441 0.8805
vt 0.6460 0.8821
vt 0.6438 0.8840
vt 0.6425 0.8830
vt 0.6419 0.8794
vt 0.6411 0.8823
vt 0.6394 0.8791
vt 0.6395 0.8821
vt 0.6370 0.8795
vt 0.6379 0.8823
vt 0.6348 0.8805
vt 0.6364 0.8830
vt 0.6329 0.8821
vt 0.6351 0.8840
vt 0.6316 0.8841
vt 0.6343 0.8854
vt 0.6309 0.8865
vt 0.6338 0.8869
vt 0.6309 0.8890
vt 0.6338 0.8885
vt 0.6316 0.8913
vt 0.6342 0.8901
vt 0.6329 0.8934
vt 0.6351 0.8914
vt 0.6348 0.8950
vt 0.6363 0.8925
vt 0.6370 0.8960
vt 0.6378 0.8931
vt 0.6394 0.8963
vt 0.6394 0.8934
vt 0.6419 0.8960
vt 0.6410 0.8931
vt 0.6441 0.8950
vt 0.6425 0.8925
vt 0.6460 0.8934
vt 0.6437 0.8914
vt 0.6473 0.8913
vt 0.6446 0.8901
vt 0.6480 0.8889
vt 0.6451 0.8886
vt 0.6480 0.8865
vt 0.6451 0.8869
vt 0.6473 0.8841
vt 0.6446 0.8854
vt 0.9169 0.7682
vt 0.9184 0.7787
vt 0.9118 0.7787
vt 0.9106 0.7701
vt 0.9169 0.7891
vt 0.9105 0.7874
vt 0.9125 0.7988
vt 0.9070 0.7953
vt 0.9057 0.8068
vt 0.9013 0.8019
vt 0.8968 0.8125
vt 0.8940 0.8066
vt 0.8867 0.8155
vt 0.8857 0.8091
vt 0.8762 0.8155
vt 0.8771 0.8091
vt 0.8661 0.8125
vt 0.8688 0.8066
vt 0.8573 0.8068
vt 0.8616 0.8018
vt 0.8505 0.7988
vt 0.8560 0.7952
vt 0.8462 0.7892
vt 0.8525 0.7873
vt 0.8447 0.7787
vt 0.8513 0.7786
vt 0.8462 0.7682
vt 0.8525 0.7700
vt 0.8506 0.7586
vt 0.8562 0.7621
vt 0.8575 0.7506
vt 0.8619 0.7555
vt 0.8663 0.7448
vt 0.8691 0.7508
vt 0.8764 0.7418
vt 0.8774 0.7483
vt 0.8870 0.7418
vt 0.8861 0.7483
vt 0.8970 0.7448
vt 0.8943 0.7508
vt 0.9058 0.7506
vt 0.9016 0.7555
vt 0.9126 0.7586
vt 0.9071 0.7621
vt 0.8094 0.9078
vt 0.8051 0.9171
vt 0.8109 0.8976
vt 0.8094 0.8875
vt 0.8051 0.8782
vt 0.7984 0.8704
vt 0.7898 0.8649
vt 0.7800 0.8620
vt 0.7697 0.8620
vt 0.7599 0.8649
vt 0.7512 0.8704
vt 0.7445 0.8782
vt 0.7403 0.8875
vt 0.7388 0.8976
vt 0.7403 0.9078
vt 0.7445 0.9171
vt 0.7512 0.9248
vt 0.7599 0.9304
vt 0.7697 0.9333
vt 0.7800 0.9333
vt 0.7898 0.9304
vt 0.7984 0.9249
vn 0.3809 0.7096 -0.5927
vn 0.5325 0.7096 -0.4614
vn 0.4788 0.7737 -0.4149
vn 0.3425 0.7737 -0.5329
vn 0.6409 0.7096 -0.2927
vn 0.5763 0.7737 -0.2632
vn 0.6974 0.7096 -0.1003
vn 0.6271 0.7737 -0.0902
vn 0.6974 0.7096 0.1003
vn 0.6271 0.7737 0.0902
vn 0.6409 0.7096 0.2927
vn 0.5763 0.7737 0.2632
vn 0.5325 0.7096 0.4614
vn 0.4788 0.7737 0.4149
vn 0.3809 0.7096 0.5927
vn 0.3425 0.7737 0.5329
vn 0.1985 0.7096 0.6760
vn 0.1785 0.7737 0.6079
vn 0.0000 0.7096 0.7046
vn 0.0000 0.7737 0.6335
vn -0.1985 0.7096 0.6760
vn -0.1785 0.7737 0.6079
vn -0.3809 0.7096 0.5927
vn -0.3425 0.7737 0.5329
vn -0.5325 0.7096 0.4614
vn -0.4788 0.7737 0.4149
vn -0.6409 0.7096 0.2927
vn -0.5763 0.7737 0.2632
vn -0.6974 0.7096 0.1003
vn -0.6271 0.7737 0.0902
vn -0.6974 0.7096 -0.1003
vn -0.6271 0.7737 -0.0902
vn -0.6409 0.7096 -0.2927
vn -0.5763 0.7737 -0.2632
vn -0.5325 0.7096 -0.4614
vn -0.4788 0.7737 -0.4149
vn -0.3809 0.7096 -0.5927
vn -0.3425 0.7737 -0.5329
vn -0.1985 0.7096 -0.6760
vn -0.1785 0.7737 -0.6079
vn 0.8693 0.4783 0.1250
vn 0.7988 0.4783 0.3648
vn 0.1985 0.7096 -0.6760
vn 0.1785 0.7737 -0.6079
vn 0.0000 0.7096 -0.7046
vn 0.0000 0.7737 -0.6335
vn 0.5116 -0.3232 -0.7961
vn 0.5233 0.2514 -0.8142
vn 0.7315 0.2514 -0.6338
vn 0.7152 -0.3232 -0.6197
vn 0.2666 -0.3232 -0.9080
vn 0.2727 0.2514 -0.9286
vn 0.0000 -0.3232 -0.9463
vn 0.0000 0.2514 -0.9679
vn 0.8804 0.2514 -0.4021
vn 0.8608 -0.3232 -0.3931
vn 0.9580 0.2514 -0.1377
vn 0.9367 -0.3232 -0.1346
vn 0.9580 0.2514 0.1377
vn 0.9367 -0.3232 0.1346
vn 0.8804 0.2514 0.4021
vn 0.8608 -0.3232 0.3931
vn 0.7315 0.2514 0.6338
vn 0.7152 -0.3232 0.6197
vn 0.5233 0.2514 0.8142
vn 0.5116 -0.3232 0.7961
vn 0.2727 0.2514 0.9286
vn 0.2666 -0.3232 0.9080
vn 0.0000 0.2514 0.9679
vn 0.0000 -0.3232 0.9463
vn -0.2727 0.2514 0.9286
vn -0.2666 -0.3232 0.9080
vn -0.5233 0.2514 0.8142
vn -0.5116 -0.3232 0.7961
vn -0.7315 0.2514 0.6338
vn -0.7152 -0.3232 0.6197
vn -0.8804 0.2514 0.4021
vn -0.8608 -0.3232 0.3931
vn -0.9580 0.2514 0.1377
vn -0.9367 -0.3232 0.1346
vn -0.9580 0.2514 -0.1377
vn -0.9367 -0.3232 -0.1346
vn -0.8804 0.2514 -0.4021
vn -0.8608 -0.3232 -0.3931
vn -0.7315 0.2514 -0.6338
vn -0.7152 -0.3232 -0.6197
vn -0.5233 0.2514 -0.8142
vn -0.5116 -0.3232 -0.7961
vn -0.2727 0.2514 -0.9286
vn -0.2666 -0.3232 -0.9080
vn 0.2474 0.4783 -0.8426
vn 0.4748 0.4783 -0.7388
vn -0.6637 0.4783 0.5751
vn -0.7988 0.4783 0.3648
vn 0.6637 0.4783 0.5751
vn 0.6637 0.4783 -0.5751
vn -0.8693 0.4783 0.1250
vn 0.4748 0.4783 0.7388
vn -0.2474 0.4783 -0.8426
vn 0.0000 0.4783 -0.8782
vn -0.8693 0.4783 -0.1250
vn 0.2474 0.4783 0.8426
vn -0.7988 0.4783 -0.3648
vn 0.0000 0.4783 0.8782
vn 0.7988 0.4783 -0.3648
vn -0.6637 0.4783 -0.5751
vn -0.2474 0.4783 0.8426
vn 0.8693 0.4783 -0.1250
vn -0.4748 0.4783 -0.7388
vn -0.4748 0.4783 0.7388
vn 0.0000 0.9179 -0.3967
vn 0.1118 0.9179 -0.3807
vn 0.2145 0.9179 -0.3338
vn 0.2998 0.9179 -0.2598
vn 0.3609 0.9179 -0.1648
vn 0.3927 0.9179 -0.0565
vn 0.3927 0.9179 0.0565
vn 0.3609 0.9179 0.1648
vn 0.2998 0.9179 0.2598
vn 0.2145 0.9179 0.3338
vn 0.1118 0.9179 0.3807
vn 0.0000 0.9179 0.3967
vn -0.1118 0.9179 0.3807
vn -0.2145 0.9179 0.3338
vn -0.2998 0.9179 0.2598
vn -0.3609 0.9179 0.1648
vn -0.3927 0.9179 0.0565
vn -0.3927 0.9179 -0.0565
vn -0.3609 0.9179 -0.1648
vn -0.2998 0.9179 -0.2598
vn -0.2145 0.9179 -0.3338
vn -0.1118 0.9179 -0.3807
vn 0.1304 -0.8865 -0.4440
vn 0.0000 -0.8865 -0.4628
vn 0.2502 -0.8865 -0.3893
vn 0.3497 -0.8865 -0.3030
vn 0.4209 -0.8865 -0.1922
vn 0.4581 -0.8865 -0.0659
vn 0.4581 -0.8865 0.0659
vn 0.4209 -0.8865 0.1922
vn 0.3497 -0.8865 0.3030
vn 0.2502 -0.8865 0.3893
vn 0.1304 -0.8865 0.4440
vn 0.0000 -0.8865 0.4628
vn -0.1304 -0.8865 0.4440
vn -0.2502 -0.8865 0.3893
vn -0.3497 -0.8865 0.3030
vn -0.4209 -0.8865 0.1922
vn -0.4581 -0.8865 0.0659
vn -0.4581 -0.8865 -0.0659
vn -0.4209 -0.8865 -0.1922
vn -0.3497 -0.8865 -0.3030
vn -0.2502 -0.8865 -0.3893
vn -0.1304 -0.8865 -0.4440
usemtl crayons
s 1
f 3/1/1 4/2/2 117/3/3 115/4/4
f 4/2/2 5/5/5 119/6/6 117/3/3
f 5/5/5 6/7/7 121/8/8 119/6/6
f 6/7/7 7/9/9 123/10/10 121/8/8
f 7/9/9 8/11/11 125/12/12 123/10/10
f 8/11/11 9/13/13 127/14/14 125/12/12
f 9/13/13 10/15/15 129/16/16 127/14/14
f 10/15/15 11/17/17 131/18/18 129/16/16
f 11/17/17 12/19/19 133/20/20 131/18/18
f 12/19/19 13/21/21 135/22/22 133/20/20
f 13/21/21 14/23/23 137/24/24 135/22/22
f 14/23/23 15/25/25 139/26/26 137/24/24
f 15/25/25 16/27/27 141/28/28 139/26/26
f 16/27/27 17/29/29 143/30/30 141/28/28
f 17/29/29 18/31/31 145/32/32 143/30/30
f 18/31/31 19/33/33 147/34/34 145/32/32
f 19/33/33 20/35/35 149/36/36 147/34/34
f 20/35/35 21/37/37 151/38/38 149/36/36
f 21/37/37 22/39/39 153/40/40 151/38/38
f 8/41/11 7/42/9 36/43/41 38/44/42
f 2/45/43 3/1/1 115/4/4 111/46/44
f 22/39/39 1/47/45 114/48/46 153/40/40
f 72/49/47 116/50/48 118/51/49 74/52/50
f 70/53/51 112/54/52 116/50/48 72/49/47
f 68/55/53 113/56/54 112/54/52 70/53/51
f 74/52/50 118/51/49 120/57/55 76/58/56
f 76/58/56 120/57/55 122/59/57 78/60/58
f 78/60/58 122/59/57 124/61/59 80/62/60
f 80/62/60 124/61/59 126/63/61 82/64/62
f 82/64/62 126/63/61 128/65/63 84/66/64
f 84/66/64 128/65/63 130/67/65 86/68/66
f 86/68/66 130/67/65 132/69/67 88/70/68
f 88/70/68 132/69/67 134/71/69 90/72/70
f 90/73/70 134/74/69 136/75/71 92/76/72
f 92/76/72 136/75/71 138/77/73 94/78/74
f 94/78/74 138/77/73 140/79/75 96/80/76
f 96/80/76 140/79/75 142/81/77 98/82/78
f 98/82/78 142/81/77 144/83/79 100/84/80
f 100/84/80 144/83/79 146/85/81 102/86/82
f 102/86/82 146/85/81 148/87/83 104/88/84
f 104/88/84 148/87/83 150/89/85 106/90/86
f 106/90/86 150/89/85 152/91/87 108/92/88
f 108/92/88 152/91/87 154/93/89 110/94/90
f 3/95/1 2/96/43 24/97/91 28/98/92
f 16/99/27 15/100/25 52/101/93 54/102/94
f 9/103/13 8/41/11 38/44/42 40/104/95
f 4/105/2 3/95/1 28/98/92 30/106/96
f 17/107/29 16/99/27 54/102/94 56/108/97
f 10/109/15 9/103/13 40/104/95 42/110/98
f 1/111/45 22/112/39 66/113/99 25/114/100
f 18/115/31 17/107/29 56/108/97 58/116/101
f 11/117/17 10/109/15 42/110/98 44/118/102
f 2/96/43 1/111/45 25/114/100 24/97/91
f 19/119/33 18/115/31 58/116/101 60/120/103
f 12/121/19 11/117/17 44/118/102 46/122/104
f 5/123/5 4/105/2 30/106/96 32/124/105
f 20/125/35 19/119/33 60/120/103 62/126/106
f 13/127/21 12/128/19 46/129/104 48/130/107
f 6/131/7 5/123/5 32/124/105 34/132/108
f 21/133/37 20/125/35 62/126/106 64/134/109
f 14/135/23 13/127/21 48/130/107 50/136/110
f 7/42/9 6/131/7 34/132/108 36/43/41
f 22/112/39 21/133/37 64/134/109 66/113/99
f 15/100/25 14/135/23 50/136/110 52/101/93
f 24/137/91 25/138/100 26/139/111 23/140/112
f 28/141/92 24/137/91 23/140/112 27/142/113
f 30/143/96 28/141/92 27/142/113 29/144/114
f 32/145/105 30/143/96 29/144/114 31/146/115
f 34/147/108 32/145/105 31/146/115 33/148/116
f 36/149/41 34/147/108 33/148/116 35/150/117
f 38/151/42 36/149/41 35/150/117 37/152/118
f 40/153/95 38/151/42 37/152/118 39/154/119
f 42/155/98 40/153/95 39/154/119 41/156/120
f 44/157/102 42/155/98 41/156/120 43/158/121
f 46/159/104 44/157/102 43/158/121 45/160/122
f 48/161/107 46/159/104 45/160/122 47/162/123
f 50/163/110 48/161/107 47/162/123 49/164/124
f 52/165/93 50/163/110 49/164/124 51/166/125
f 54/167/94 52/165/93 51/166/125 53/168/126
f 56/169/97 54/167/94 53/168/126 55/170/127
f 58/171/101 56/169/97 55/170/127 57/172/128
f 60/173/103 58/171/101 57/172/128 59/174/129
f 62/175/106 60/173/103 59/174/129 61/176/130
f 64/177/109 62/175/106 61/176/130 63/178/131
f 66/179/99 64/177/109 63/178/131 65/180/132
f 25/138/100 66/179/99 65/180/132 26/139/111
f 23/140/112 26/139/111 65/180/132 63/178/131 61/176/130 59/174/129 57/172/128 55/170/127 53/168/126 51/166/125 49/164/124 47/162/123 45/160/122 43/158/121 41/156/120 39/154/119 37/152/118 35/150/117 33/148/116 31/146/115 29/144/114 27/142/113
f 68/181/53 70/182/51 69/183/133 67/184/134
f 70/182/51 72/185/47 71/186/135 69/183/133
f 72/185/47 74/187/50 73/188/136 71/186/135
f 74/187/50 76/189/56 75/190/137 73/188/136
f 76/189/56 78/191/58 77/192/138 75/190/137
f 78/191/58 80/193/60 79/194/139 77/192/138
f 80/193/60 82/195/62 81/196/140 79/194/139
f 82/195/62 84/197/64 83/198/141 81/196/140
f 84/197/64 86/199/66 85/200/142 83/198/141
f 86/199/66 88/201/68 87/202/143 85/200/142
f 88/201/68 90/203/70 89/204/144 87/202/143
f 90/203/70 92/205/72 91/206/145 89/204/144
f 92/205/72 94/207/74 93/208/146 91/206/145
f 94/207/74 96/209/76 95/210/147 93/208/146
f 96/209/76 98/211/78 97/212/148 95/210/147
f 98/211/78 100/213/80 99/214/149 97/212/148
f 100/213/80 102/215/82 101/216/150 99/214/149
f 102/215/82 104/217/84 103/218/151 101/216/150
f 104/217/84 106/219/86 105/220/152 103/218/151
f 106/219/86 108/221/88 107/222/153 105/220/152
f 108/221/88 110/223/90 109/224/154 107/222/153
f 110/223/90 68/181/53 67/184/134 109/224/154
f 67/184/134 69/183/133 71/186/135 73/188/136 75/190/137 77/192/138 79/194/139 81/196/140 83/198/141 85/200/142 87/202/143 89/204/144 91/206/145 93/208/146 95/210/147 97/212/148 99/214/149 101/216/150 103/218/151 105/220/152 107/222/153 109/224/154
f 112/225/52 113/226/54 114/48/46 111/46/44
f 116/227/48 112/225/52 111/46/44 115/4/4
f 118/228/49 116/227/48 115/4/4 117/3/3
f 120/229/55 118/228/49 117/3/3 119/6/6
f 122/230/57 120/229/55 119/6/6 121/8/8
f 124/231/59 122/230/57 121/8/8 123/10/10
f 126/232/61 124/231/59 123/10/10 125/12/12
f 128/233/63 126/232/61 125/12/12 127/14/14
f 130/234/65 128/233/63 127/14/14 129/16/16
f 132/235/67 130/234/65 129/16/16 131/18/18
f 134/236/69 132/235/67 131/18/18 133/20/20
f 136/237/71 134/236/69 133/20/20 135/22/22
f 138/238/73 136/237/71 135/22/22 137/24/24
f 140/239/75 138/238/73 137/24/24 139/26/26
f 142/240/77 140/239/75 139/26/26 141/28/28
f 144/241/79 142/240/77 141/28/28 143/30/30
f 146/242/81 144/241/79 143/30/30 145/32/32
f 148/243/83 146/242/81 145/32/32 147/34/34
f 150/244/85 148/243/83 147/34/34 149/36/36
f 152/245/87 150/244/85 149/36/36 151/38/38
f 154/246/89 152/245/87 151/38/38 153/40/40
f 113/226/54 154/246/89 153/40/40 114/48/46
f 1/47/45 2/45/43 111/46/44 114/48/46
f 110/94/90 154/93/89 113/56/54 68/55/53
