# Blender v2.78 (sub 0) OBJ File: 'cubes2.blend'
# www.blender.org
mtllib crayon_green.mtl
o crayon_green_Cylinder.021
v -0.000000 6.834162 -0.422712
v 0.119091 6.834162 -0.405589
v 0.228535 6.834162 -0.355608
v 0.319464 6.834162 -0.276817
v 0.384512 6.834162 -0.175601
v 0.418409 6.834162 -0.060158
v 0.418409 6.834162 0.060158
v 0.384512 6.834162 0.175601
v 0.319464 6.834162 0.276817
v 0.228535 6.834162 0.355607
v 0.119092 6.834162 0.405589
v -0.000000 6.834162 0.422711
v -0.119092 6.834162 0.405589
v -0.228535 6.834162 0.355608
v -0.319464 6.834162 0.276817
v -0.384512 6.834162 0.175601
v -0.418409 6.834162 0.060158
v -0.418409 6.834162 -0.060158
v -0.384512 6.834162 -0.175600
v -0.319464 6.834162 -0.276817
v -0.228535 6.834162 -0.355607
v -0.119092 6.834162 -0.405589
v 0.023921 8.324426 -0.081466
v 0.032557 8.295589 -0.110877
v 0.000000 8.295589 -0.115558
v 0.000000 8.324426 -0.084905
v 0.045903 8.324426 -0.071427
v 0.062476 8.295589 -0.097214
v 0.064167 8.324426 -0.055601
v 0.087333 8.295589 -0.075675
v 0.077232 8.324426 -0.035271
v 0.105116 8.295589 -0.048005
v 0.084041 8.324426 -0.012083
v 0.114382 8.295589 -0.016446
v 0.084041 8.324426 0.012083
v 0.114382 8.295589 0.016446
v 0.077232 8.324426 0.035271
v 0.105116 8.295589 0.048005
v 0.064167 8.324426 0.055601
v 0.087333 8.295589 0.075675
v 0.045903 8.324426 0.071427
v 0.062476 8.295589 0.097214
v 0.023921 8.324426 0.081466
v 0.032557 8.295589 0.110877
v 0.000000 8.324426 0.084905
v 0.000000 8.295589 0.115558
v -0.023920 8.324426 0.081466
v -0.032556 8.295589 0.110877
v -0.045903 8.324426 0.071427
v -0.062475 8.295589 0.097214
v -0.064167 8.324426 0.055601
v -0.087333 8.295589 0.075675
v -0.077232 8.324426 0.035271
v -0.105115 8.295589 0.048005
v -0.084040 8.324426 0.012083
v -0.114382 8.295589 0.016446
v -0.084040 8.324426 -0.012083
v -0.114382 8.295589 -0.016446
v -0.077232 8.324426 -0.035271
v -0.105115 8.295589 -0.048005
v -0.064167 8.324426 -0.055601
v -0.087333 8.295589 -0.075675
v -0.045903 8.324426 -0.071427
v -0.062476 8.295589 -0.097214
v -0.023920 8.324426 -0.081466
v -0.032557 8.295589 -0.110877
v -0.000000 0.033392 -0.447529
v -0.000000 0.105370 -0.505442
v 0.126083 0.033392 -0.429401
v 0.142399 0.105370 -0.484968
v 0.241952 0.033392 -0.376485
v 0.273263 0.105370 -0.425205
v 0.338219 0.033392 -0.293069
v 0.381988 0.105370 -0.330994
v 0.407086 0.033392 -0.185910
v 0.459766 0.105370 -0.209968
v 0.442973 0.033392 -0.063690
v 0.500297 0.105370 -0.071932
v 0.442973 0.033392 0.063690
v 0.500297 0.105370 0.071932
v 0.407086 0.033392 0.185910
v 0.459766 0.105370 0.209968
v 0.338219 0.033392 0.293069
v 0.381988 0.105370 0.330994
v 0.241952 0.033392 0.376485
v 0.273263 0.105370 0.425205
v 0.126083 0.033392 0.429400
v 0.142399 0.105370 0.484968
v -0.000000 0.033392 0.447528
v -0.000000 0.105370 0.505442
v -0.126083 0.033392 0.429400
v -0.142399 0.105370 0.484968
v -0.241952 0.033392 0.376485
v -0.273263 0.105370 0.425205
v -0.338219 0.033392 0.293069
v -0.381988 0.105370 0.330994
v -0.407086 0.033392 0.185910
v -0.459766 0.105370 0.209968
v -0.442973 0.033392 0.063690
v -0.500298 0.105370 0.071932
v -0.442973 0.033392 -0.063690
v -0.500298 0.105370 -0.071932
v -0.407086 0.033392 -0.185910
v -0.459767 0.105370 -0.209968
v -0.338220 0.033392 -0.293069
v -0.381988 0.105370 -0.330994
v -0.241952 0.033392 -0.376485
v -0.273263 0.105370 -0.425205
v -0.126084 0.033392 -0.429400
v -0.142400 0.105370 -0.484968
v 0.138210 6.815506 -0.470701
v 0.142399 6.789528 -0.484968
v -0.000000 6.789528 -0.505442
v -0.000000 6.815506 -0.490572
v 0.265223 6.815506 -0.412696
v 0.273263 6.789528 -0.425205
v 0.370750 6.815507 -0.321257
v 0.381988 6.789528 -0.330994
v 0.446240 6.815506 -0.203791
v 0.459766 6.789528 -0.209968
v 0.485579 6.815507 -0.069816
v 0.500297 6.789528 -0.071932
v 0.485579 6.815507 0.069816
v 0.500297 6.789528 0.071932
v 0.446240 6.815507 0.203791
v 0.459766 6.789528 0.209968
v 0.370750 6.815507 0.321256
v 0.381988 6.789528 0.330994
v 0.265223 6.815507 0.412696
v 0.273263 6.789528 0.425205
v 0.138210 6.815507 0.470701
v 0.142399 6.789528 0.484968
v -0.000000 6.815507 0.490572
v -0.000000 6.789528 0.505442
v -0.138210 6.815507 0.470701
v -0.142399 6.789528 0.484968
v -0.265223 6.815507 0.412696
v -0.273263 6.789528 0.425205
v -0.370750 6.815507 0.321257
v -0.381988 6.789528 0.330994
v -0.446240 6.815507 0.203791
v -0.459766 6.789528 0.209968
v -0.485579 6.815507 0.069816
v -0.500298 6.789528 0.071932
v -0.485579 6.815506 -0.069815
v -0.500298 6.789528 -0.071932
v -0.446240 6.815506 -0.203791
v -0.459767 6.789528 -0.209968
v -0.370750 6.815506 -0.321256
v -0.381988 6.789528 -0.330994
v -0.265224 6.815506 -0.412696
v -0.273263 6.789528 -0.425205
v -0.138211 6.815506 -0.470701
v -0.142400 6.789528 -0.484968
vt 0.9887 0.8498
vt 0.9852 0.8422
vt 0.9894 0.8395
vt 0.9933 0.8484
vt 0.9798 0.8359
vt 0.9830 0.8322
vt 0.9728 0.8314
vt 0.9749 0.8269
vt 0.9649 0.8290
vt 0.9656 0.8242
vt 0.9567 0.8290
vt 0.9559 0.8242
vt 0.9487 0.8313
vt 0.9467 0.8269
vt 0.9418 0.8358
vt 0.9386 0.8321
vt 0.9364 0.8420
vt 0.9323 0.8394
vt 0.9329 0.8495
vt 0.9283 0.8482
vt 0.9318 0.8577
vt 0.9269 0.8577
vt 0.9329 0.8659
vt 0.9283 0.8673
vt 0.9364 0.8734
vt 0.9323 0.8760
vt 0.9418 0.8796
vt 0.9386 0.8833
vt 0.9487 0.8841
vt 0.9467 0.8885
vt 0.9566 0.8864
vt 0.9559 0.8913
vt 0.9649 0.8865
vt 0.9656 0.8913
vt 0.9728 0.8842
vt 0.9748 0.8886
vt 0.9797 0.8797
vt 0.9829 0.8834
vt 0.9852 0.8735
vt 0.9893 0.8761
vt 0.6927 0.7552
vt 0.7004 0.7521
vt 0.7358 0.8488
vt 0.7337 0.8496
vt 0.9898 0.8579
vt 0.9947 0.8579
vt 0.9886 0.8660
vt 0.9933 0.8674
vt 0.3346 0.5166
vt 0.3346 0.9773
vt 0.3247 0.9773
vt 0.3247 0.5166
vt 0.3445 0.5166
vt 0.3445 0.9773
vt 0.3544 0.5166
vt 0.3544 0.9773
vt 0.3148 0.9773
vt 0.3148 0.5166
vt 0.3049 0.9773
vt 0.3048 0.5166
vt 0.2949 0.9773
vt 0.2949 0.5166
vt 0.2850 0.9773
vt 0.2850 0.5166
vt 0.2751 0.9773
vt 0.2751 0.5166
vt 0.2652 0.9773
vt 0.2652 0.5166
vt 0.2553 0.9773
vt 0.2552 0.5166
vt 0.2454 0.9773
vt 0.2453 0.5166
vt 0.4635 0.5166
vt 0.4635 0.9773
vt 0.4536 0.9773
vt 0.4536 0.5166
vt 0.4437 0.9773
vt 0.4437 0.5166
vt 0.4338 0.9773
vt 0.4338 0.5166
vt 0.4238 0.9773
vt 0.4239 0.5166
vt 0.4139 0.9773
vt 0.4139 0.5166
vt 0.4040 0.9773
vt 0.4040 0.5166
vt 0.3941 0.9773
vt 0.3941 0.5166
vt 0.3842 0.9773
vt 0.3842 0.5166
vt 0.3743 0.9773
vt 0.3743 0.5166
vt 0.3644 0.9773
vt 0.3644 0.5166
vt 0.7326 0.7444
vt 0.7409 0.7437
vt 0.7469 0.8465
vt 0.7446 0.8467
vt 0.8056 0.7552
vt 0.8131 0.7587
vt 0.7667 0.8506
vt 0.7646 0.8496
vt 0.6852 0.7587
vt 0.7317 0.8506
vt 0.7244 0.7456
vt 0.7424 0.8470
vt 0.7979 0.7521
vt 0.7625 0.8488
vt 0.6779 0.7627
vt 0.7297 0.8517
vt 0.7492 0.7435
vt 0.7575 0.7437
vt 0.7514 0.8465
vt 0.7492 0.8464
vt 0.7900 0.7495
vt 0.7603 0.8481
vt 0.6709 0.7671
vt 0.7278 0.8529
vt 0.7820 0.7473
vt 0.7582 0.8475
vt 0.6641 0.7719
vt 0.7259 0.8542
vt 0.7163 0.7473
vt 0.7402 0.8475
vt 0.7739 0.7456
vt 0.7559 0.8470
vt 0.8275 0.7671
vt 0.8342 0.7719
vt 0.7724 0.8542
vt 0.7706 0.8529
vt 0.7083 0.7495
vt 0.7380 0.8481
vt 0.7657 0.7444
vt 0.7537 0.8467
vt 0.8204 0.7627
vt 0.7686 0.8517
vt 0.6452 0.8619
vt 0.6468 0.8638
vt 0.6443 0.8654
vt 0.6432 0.8641
vt 0.6431 0.8605
vt 0.6419 0.8632
vt 0.6408 0.8598
vt 0.6403 0.8628
vt 0.6383 0.8598
vt 0.6387 0.8628
vt 0.6360 0.8605
vt 0.6372 0.8632
vt 0.6339 0.8618
vt 0.6358 0.8641
vt 0.6323 0.8637
vt 0.6347 0.8653
vt 0.6313 0.8659
vt 0.6341 0.8668
vt 0.6309 0.8684
vt 0.6339 0.8684
vt 0.6312 0.8708
vt 0.6341 0.8700
vt 0.6323 0.8731
vt 0.6348 0.8714
vt 0.6339 0.8749
vt 0.6358 0.8727
vt 0.6360 0.8762
vt 0.6372 0.8735
vt 0.6383 0.8769
vt 0.6387 0.8740
vt 0.6408 0.8769
vt 0.6404 0.8740
vt 0.6432 0.8762
vt 0.6419 0.8736
vt 0.6452 0.8749
vt 0.6433 0.8727
vt 0.6468 0.8731
vt 0.6443 0.8715
vt 0.6478 0.8709
vt 0.6450 0.8700
vt 0.6481 0.8684
vt 0.6452 0.8684
vt 0.6478 0.8660
vt 0.6450 0.8668
vt 0.9190 0.6177
vt 0.9175 0.6282
vt 0.9112 0.6264
vt 0.9124 0.6178
vt 0.9132 0.6378
vt 0.9076 0.6343
vt 0.9063 0.6458
vt 0.9019 0.6408
vt 0.8974 0.6515
vt 0.8946 0.6455
vt 0.8872 0.6544
vt 0.8862 0.6479
vt 0.8766 0.6544
vt 0.8775 0.6479
vt 0.8664 0.6515
vt 0.8691 0.6454
vt 0.8574 0.6456
vt 0.8618 0.6406
vt 0.8505 0.6375
vt 0.8560 0.6341
vt 0.8462 0.6280
vt 0.8525 0.6261
vt 0.8447 0.6176
vt 0.8513 0.6175
vt 0.8462 0.6072
vt 0.8525 0.6090
vt 0.8506 0.5976
vt 0.8561 0.6011
vt 0.8575 0.5897
vt 0.8619 0.5946
vt 0.8664 0.5840
vt 0.8692 0.5900
vt 0.8766 0.5812
vt 0.8775 0.5877
vt 0.8871 0.5813
vt 0.8861 0.5878
vt 0.8971 0.5844
vt 0.8944 0.5904
vt 0.9060 0.5900
vt 0.9018 0.5950
vt 0.9129 0.5978
vt 0.9075 0.6015
vt 0.9174 0.6073
vt 0.9112 0.6093
vt 0.9968 0.8579
vt 0.9953 0.8680
vt 0.9954 0.8478
vt 0.9912 0.8384
vt 0.9844 0.8305
vt 0.9757 0.8250
vt 0.9659 0.8221
vt 0.9556 0.8221
vt 0.9458 0.8250
vt 0.9372 0.8305
vt 0.9305 0.8383
vt 0.9262 0.8476
vt 0.9248 0.8577
vt 0.9262 0.8679
vt 0.9305 0.8772
vt 0.9372 0.8849
vt 0.9458 0.8905
vt 0.9556 0.8934
vt 0.9659 0.8934
vt 0.9756 0.8905
vt 0.9843 0.8851
vt 0.9911 0.8773
vn 0.3809 0.7096 -0.5927
vn 0.5325 0.7096 -0.4614
vn 0.4788 0.7737 -0.4149
vn 0.3425 0.7737 -0.5329
vn 0.6409 0.7096 -0.2927
vn 0.5763 0.7737 -0.2632
vn 0.6974 0.7096 -0.1003
vn 0.6271 0.7737 -0.0902
vn 0.6974 0.7096 0.1003
vn 0.6271 0.7737 0.0902
vn 0.6409 0.7096 0.2927
vn 0.5763 0.7737 0.2632
vn 0.5325 0.7096 0.4614
vn 0.4788 0.7737 0.4149
vn 0.3809 0.7096 0.5927
vn 0.3425 0.7737 0.5329
vn 0.1985 0.7096 0.6760
vn 0.1785 0.7737 0.6079
vn 0.0000 0.7096 0.7046
vn 0.0000 0.7737 0.6335
vn -0.1985 0.7096 0.6760
vn -0.1785 0.7737 0.6079
vn -0.3809 0.7096 0.5927
vn -0.3425 0.7737 0.5329
vn -0.5325 0.7096 0.4614
vn -0.4788 0.7737 0.4149
vn -0.6409 0.7096 0.2927
vn -0.5763 0.7737 0.2632
vn -0.6974 0.7096 0.1003
vn -0.6271 0.7737 0.0902
vn -0.6974 0.7096 -0.1003
vn -0.6271 0.7737 -0.0902
vn -0.6409 0.7096 -0.2927
vn -0.5763 0.7737 -0.2632
vn -0.5325 0.7096 -0.4614
vn -0.4788 0.7737 -0.4149
vn -0.3809 0.7096 -0.5928
vn -0.3425 0.7737 -0.5329
vn -0.1985 0.7096 -0.6760
vn -0.1785 0.7737 -0.6079
vn 0.8693 0.4783 0.1250
vn 0.7988 0.4783 0.3648
vn 0.1985 0.7096 -0.6760
vn 0.1785 0.7737 -0.6079
vn 0.0000 0.7096 -0.7046
vn 0.0000 0.7737 -0.6335
vn 0.5116 -0.3232 -0.7961
vn 0.5233 0.2514 -0.8142
vn 0.7315 0.2514 -0.6338
vn 0.7152 -0.3232 -0.6197
vn 0.2666 -0.3232 -0.9080
vn 0.2727 0.2514 -0.9286
vn 0.0000 -0.3232 -0.9463
vn 0.0000 0.2514 -0.9679
vn 0.8804 0.2514 -0.4021
vn 0.8608 -0.3232 -0.3931
vn 0.9580 0.2514 -0.1377
vn 0.9367 -0.3232 -0.1346
vn 0.9580 0.2514 0.1377
vn 0.9367 -0.3232 0.1346
vn 0.8804 0.2514 0.4021
vn 0.8608 -0.3232 0.3931
vn 0.7315 0.2514 0.6338
vn 0.7152 -0.3232 0.6197
vn 0.5233 0.2514 0.8142
vn 0.5116 -0.3232 0.7961
vn 0.2727 0.2514 0.9286
vn 0.2666 -0.3232 0.9080
vn 0.0000 0.2514 0.9679
vn 0.0000 -0.3232 0.9463
vn -0.2727 0.2514 0.9286
vn -0.2666 -0.3232 0.9080
vn -0.5233 0.2514 0.8142
vn -0.5116 -0.3232 0.7961
vn -0.7315 0.2514 0.6338
vn -0.7152 -0.3232 0.6197
vn -0.8804 0.2514 0.4021
vn -0.8608 -0.3232 0.3931
vn -0.9580 0.2514 0.1377
vn -0.9367 -0.3232 0.1346
vn -0.9580 0.2514 -0.1377
vn -0.9367 -0.3232 -0.1346
vn -0.8804 0.2514 -0.4021
vn -0.8608 -0.3232 -0.3931
vn -0.7315 0.2514 -0.6338
vn -0.7152 -0.3232 -0.6197
vn -0.5233 0.2514 -0.8142
vn -0.5116 -0.3232 -0.7961
vn -0.2727 0.2514 -0.9286
vn -0.2666 -0.3232 -0.9080
vn 0.2474 0.4783 -0.8426
vn 0.4748 0.4783 -0.7388
vn -0.6637 0.4783 0.5751
vn -0.7988 0.4783 0.3648
vn 0.6637 0.4783 0.5751
vn 0.6637 0.4783 -0.5751
vn -0.8693 0.4783 0.1250
vn 0.4748 0.4783 0.7388
vn -0.2474 0.4783 -0.8426
vn 0.0000 0.4783 -0.8782
vn -0.8693 0.4783 -0.1250
vn 0.2474 0.4783 0.8426
vn -0.7988 0.4783 -0.3648
vn 0.0000 0.4783 0.8782
vn 0.7988 0.4783 -0.3648
vn -0.6637 0.4783 -0.5751
vn -0.2474 0.4783 0.8426
vn 0.8693 0.4783 -0.1250
vn -0.4748 0.4783 -0.7388
vn -0.4748 0.4783 0.7388
vn 0.0000 0.9179 -0.3967
vn 0.1118 0.9179 -0.3807
vn 0.2145 0.9179 -0.3338
vn 0.2998 0.9179 -0.2598
vn 0.3609 0.9179 -0.1648
vn 0.3927 0.9179 -0.0565
vn 0.3927 0.9179 0.0565
vn 0.3609 0.9179 0.1648
vn 0.2998 0.9179 0.2598
vn 0.2145 0.9179 0.3338
vn 0.1118 0.9179 0.3807
vn 0.0000 0.9179 0.3967
vn -0.1118 0.9179 0.3807
vn -0.2145 0.9179 0.3338
vn -0.2998 0.9179 0.2598
vn -0.3609 0.9179 0.1648
vn -0.3927 0.9179 0.0565
vn -0.3927 0.9179 -0.0565
vn -0.3609 0.9179 -0.1648
vn -0.2998 0.9179 -0.2598
vn -0.2145 0.9179 -0.3338
vn -0.1118 0.9179 -0.3807
vn 0.1304 -0.8865 -0.4440
vn 0.0000 -0.8865 -0.4628
vn 0.2502 -0.8865 -0.3893
vn 0.3497 -0.8865 -0.3030
vn 0.4209 -0.8865 -0.1922
vn 0.4581 -0.8865 -0.0659
vn 0.4581 -0.8865 0.0659
vn 0.4209 -0.8865 0.1922
vn 0.3497 -0.8865 0.3030
vn 0.2502 -0.8865 0.3893
vn 0.1304 -0.8865 0.4440
vn 0.0000 -0.8865 0.4628
vn -0.1304 -0.8865 0.4440
vn -0.2502 -0.8865 0.3893
vn -0.3497 -0.8865 0.3030
vn -0.4209 -0.8865 0.1922
vn -0.4581 -0.8865 0.0659
vn -0.4581 -0.8865 -0.0659
vn -0.4209 -0.8865 -0.1922
vn -0.3497 -0.8865 -0.3030
vn -0.2502 -0.8865 -0.3893
vn -0.1304 -0.8865 -0.4440
usemtl crayons
s 1
f 3/1/1 4/2/2 117/3/3 115/4/4
f 4/2/2 5/5/5 119/6/6 117/3/3
f 5/5/5 6/7/7 121/8/8 119/6/6
f 6/7/7 7/9/9 123/10/10 121/8/8
f 7/9/9 8/11/11 125/12/12 123/10/10
f 8/11/11 9/13/13 127/14/14 125/12/12
f 9/13/13 10/15/15 129/16/16 127/14/14
f 10/15/15 11/17/17 131/18/18 129/16/16
f 11/17/17 12/19/19 133/20/20 131/18/18
f 12/19/19 13/21/21 135/22/22 133/20/20
f 13/21/21 14/23/23 137/24/24 135/22/22
f 14/23/23 15/25/25 139/26/26 137/24/24
f 15/25/25 16/27/27 141/28/28 139/26/26
f 16/27/27 17/29/29 143/30/30 141/28/28
f 17/29/29 18/31/31 145/32/32 143/30/30
f 18/31/31 19/33/33 147/34/34 145/32/32
f 19/33/33 20/35/35 149/36/36 147/34/34
f 20/35/35 21/37/37 151/38/38 149/36/36
f 21/37/37 22/39/39 153/40/40 151/38/38
f 8/41/11 7/42/9 36/43/41 38/44/42
f 2/45/43 3/1/1 115/4/4 111/46/44
f 22/39/39 1/47/45 114/48/46 153/40/40
f 72/49/47 116/50/48 118/51/49 74/52/50
f 70/53/51 112/54/52 116/50/48 72/49/47
f 68/55/53 113/56/54 112/54/52 70/53/51
f 74/52/50 118/51/49 120/57/55 76/58/56
f 76/58/56 120/57/55 122/59/57 78/60/58
f 78/60/58 122/59/57 124/61/59 80/62/60
f 80/62/60 124/61/59 126/63/61 82/64/62
f 82/64/62 126/63/61 128/65/63 84/66/64
f 84/66/64 128/65/63 130/67/65 86/68/66
f 86/68/66 130/67/65 132/69/67 88/70/68
f 88/70/68 132/69/67 134/71/69 90/72/70
f 90/73/70 134/74/69 136/75/71 92/76/72
f 92/76/72 136/75/71 138/77/73 94/78/74
f 94/78/74 138/77/73 140/79/75 96/80/76
f 96/80/76 140/79/75 142/81/77 98/82/78
f 98/82/78 142/81/77 144/83/79 100/84/80
f 100/84/80 144/83/79 146/85/81 102/86/82
f 102/86/82 146/85/81 148/87/83 104/88/84
f 104/88/84 148/87/83 150/89/85 106/90/86
f 106/90/86 150/89/85 152/91/87 108/92/88
f 108/92/88 152/91/87 154/93/89 110/94/90
f 3/95/1 2/96/43 24/97/91 28/98/92
f 16/99/27 15/100/25 52/101/93 54/102/94
f 9/103/13 8/41/11 38/44/42 40/104/95
f 4/105/2 3/95/1 28/98/92 30/106/96
f 17/107/29 16/99/27 54/102/94 56/108/97
f 10/109/15 9/103/13 40/104/95 42/110/98
f 1/111/45 22/112/39 66/113/99 25/114/100
f 18/115/31 17/107/29 56/108/97 58/116/101
f 11/117/17 10/109/15 42/110/98 44/118/102
f 2/96/43 1/111/45 25/114/100 24/97/91
f 19/119/33 18/115/31 58/116/101 60/120/103
f 12/121/19 11/117/17 44/118/102 46/122/104
f 5/123/5 4/105/2 30/106/96 32/124/105
f 20/125/35 19/119/33 60/120/103 62/126/106
f 13/127/21 12/128/19 46/129/104 48/130/107
f 6/131/7 5/123/5 32/124/105 34/132/108
f 21/133/37 20/125/35 62/126/106 64/134/109
f 14/135/23 13/127/21 48/130/107 50/136/110
f 7/42/9 6/131/7 34/132/108 36/43/41
f 22/112/39 21/133/37 64/134/109 66/113/99
f 15/100/25 14/135/23 50/136/110 52/101/93
f 24/137/91 25/138/100 26/139/111 23/140/112
f 28/141/92 24/137/91 23/140/112 27/142/113
f 30/143/96 28/141/92 27/142/113 29/144/114
f 32/145/105 30/143/96 29/144/114 31/146/115
f 34/147/108 32/145/105 31/146/115 33/148/116
f 36/149/41 34/147/108 33/148/116 35/150/117
f 38/151/42 36/149/41 35/150/117 37/152/118
f 40/153/95 38/151/42 37/152/118 39/154/119
f 42/155/98 40/153/95 39/154/119 41/156/120
f 44/157/102 42/155/98 41/156/120 43/158/121
f 46/159/104 44/157/102 43/158/121 45/160/122
f 48/161/107 46/159/104 45/160/122 47/162/123
f 50/163/110 48/161/107 47/162/123 49/164/124
f 52/165/93 50/163/110 49/164/124 51/166/125
f 54/167/94 52/165/93 51/166/125 53/168/126
f 56/169/97 54/167/94 53/168/126 55/170/127
f 58/171/101 56/169/97 55/170/127 57/172/128
f 60/173/103 58/171/101 57/172/128 59/174/129
f 62/175/106 60/173/103 59/174/129 61/176/130
f 64/177/109 62/175/106 61/176/130 63/178/131
f 66/179/99 64/177/109 63/178/131 65/180/132
f 25/138/100 66/179/99 65/180/132 26/139/111
f 23/140/112 26/139/111 65/180/132 63/178/131 61/176/130 59/174/129 57/172/128 55/170/127 53/168/126 51/166/125 49/164/124 47/162/123 45/160/122 43/158/121 41/156/120 39/154/119 37/152/118 35/150/117 33/148/116 31/146/115 29/144/114 27/142/113
f 68/181/53 70/182/51 69/183/133 67/184/134
f 70/182/51 72/185/47 71/186/135 69/183/133
f 72/185/47 74/187/50 73/188/136 71/186/135
f 74/187/50 76/189/56 75/190/137 73/188/136
f 76/189/56 78/191/58 77/192/138 75/190/137
f 78/191/58 80/193/60 79/194/139 77/192/138
f 80/193/60 82/195/62 81/196/140 79/194/139
f 82/195/62 84/197/64 83/198/141 81/196/140
f 84/197/64 86/199/66 85/200/142 83/198/141
f 86/199/66 88/201/68 87/202/143 85/200/142
f 88/201/68 90/203/70 89/204/144 87/202/143
f 90/203/70 92/205/72 91/206/145 89/204/144
f 92/205/72 94/207/74 93/208/146 91/206/145
f 94/207/74 96/209/76 95/210/147 93/208/146
f 96/209/76 98/211/78 97/212/148 95/210/147
f 98/211/78 100/213/80 99/214/149 97/212/148
f 100/213/80 102/215/82 101/216/150 99/214/149
f 102/215/82 104/217/84 103/218/151 101/216/150
f 104/217/84 106/219/86 105/220/152 103/218/151
f 106/219/86 108/221/88 107/222/153 105/220/152
f 108/221/88 110/223/90 109/224/154 107/222/153
f 110/223/90 68/181/53 67/184/134 109/224/154
f 67/184/134 69/183/133 71/186/135 73/188/136 75/190/137 77/192/138 79/194/139 81/196/140 83/198/141 85/200/142 87/202/143 89/204/144 91/206/145 93/208/146 95/210/147 97/212/148 99/214/149 101/216/150 103/218/151 105/220/152 107/222/153 109/224/154
f 112/225/52 113/226/54 114/48/46 111/46/44
f 116/227/48 112/225/52 111/46/44 115/4/4
f 118/228/49 116/227/48 115/4/4 117/3/3
f 120/229/55 118/228/49 117/3/3 119/6/6
f 122/230/57 120/229/55 119/6/6 121/8/8
f 124/231/59 122/230/57 121/8/8 123/10/10
f 126/232/61 124/231/59 123/10/10 125/12/12
f 128/233/63 126/232/61 125/12/12 127/14/14
f 130/234/65 128/233/63 127/14/14 129/16/16
f 132/235/67 130/234/65 129/16/16 131/18/18
f 134/236/69 132/235/67 131/18/18 133/20/20
f 136/237/71 134/236/69 133/20/20 135/22/22
f 138/238/73 136/237/71 135/22/22 137/24/24
f 140/239/75 138/238/73 137/24/24 139/26/26
f 142/240/77 140/239/75 139/26/26 141/28/28
f 144/241/79 142/240/77 141/28/28 143/30/30
f 146/242/81 144/241/79 143/30/30 145/32/32
f 148/243/83 146/242/81 145/32/32 147/34/34
f 150/244/85 148/243/83 147/34/34 149/36/36
f 152/245/87 150/244/85 149/36/36 151/38/38
f 154/246/89 152/245/87 151/38/38 153/40/40
f 113/226/54 154/246/89 153/40/40 114/48/46
f 1/47/45 2/45/43 111/46/44 114/48/46
f 110/94/90 154/93/89 113/56/54 68/55/53
