# Blender v2.78 (sub 0) OBJ File: 'cubes2.blend'
# www.blender.org
mtllib rectangle.mtl
o Blocks_rectangle_Cylinder.001
v -2.023479 0.035345 2.646163
v -2.023479 0.233323 2.844141
v -2.221457 0.233323 2.646163
v -2.023479 9.264602 2.844141
v -2.023479 9.462580 2.646163
v -2.221457 9.264602 2.646163
v -2.023479 0.035345 -2.649974
v -2.221457 0.233323 -2.649974
v -2.023479 0.233323 -2.847952
v -2.023479 9.462580 -2.649974
v -2.023479 9.264602 -2.847952
v -2.221457 9.264602 -2.649974
v 2.023479 0.035345 2.646163
v 2.221457 0.233323 2.646163
v 2.023479 0.233323 2.844141
v 2.023479 9.462580 2.646163
v 2.023479 9.264602 2.844141
v 2.221457 9.264602 2.646163
v 2.023479 0.035345 -2.649974
v 2.023479 0.233323 -2.847952
v 2.221457 0.233323 -2.649974
v 2.023479 9.462580 -2.649974
v 2.221457 9.264602 -2.649974
v 2.023479 9.264602 -2.847952
vt 0.4457 0.3042
vt 0.4457 0.0118
vt 0.5959 0.0118
vt 0.5959 0.3042
vt 0.2310 0.3042
vt 0.2310 0.0118
vt 0.4275 0.0118
vt 0.4275 0.3042
vt 0.3275 0.5001
vt 0.1773 0.5001
vt 0.1773 0.3286
vt 0.3275 0.3286
vt 0.0137 0.3042
vt 0.0137 0.0118
vt 0.2103 0.0118
vt 0.2103 0.3042
vt 0.1615 0.3349
vt 0.1615 0.6274
vt 0.0113 0.6274
vt 0.0113 0.3349
vt 0.5249 0.3317
vt 0.5301 0.3253
vt 0.5352 0.3317
vt 0.5186 0.3253
vt 0.5238 0.3317
vt 0.5134 0.3317
vt 0.6210 0.0124
vt 0.6262 0.0189
vt 0.6158 0.0189
vt 0.6210 0.3177
vt 0.6158 0.3113
vt 0.6262 0.3113
vt 0.5123 0.3317
vt 0.5019 0.3317
vt 0.5071 0.3253
vt 0.5363 0.3317
vt 0.5415 0.3253
vt 0.5467 0.3317
vt 0.6096 0.0124
vt 0.6147 0.0189
vt 0.6044 0.0189
vt 0.6096 0.3177
vt 0.6044 0.3113
vt 0.6147 0.3113
vt 0.5249 0.5032
vt 0.5352 0.5032
vt 0.6377 0.0118
vt 0.6377 0.3042
vt 0.6273 0.3042
vt 0.6273 0.0118
vt 0.5238 0.5032
vt 0.5134 0.5032
vt 0.5593 0.4575
vt 0.5593 0.3265
vt 0.5697 0.3265
vt 0.5697 0.4575
vt 0.5812 0.3265
vt 0.5812 0.4575
vt 0.5708 0.4575
vt 0.5708 0.3265
vt 0.5123 0.5032
vt 0.5019 0.5032
vt 0.5363 0.5032
vt 0.5467 0.5032
vt 0.6388 0.3042
vt 0.6388 0.0118
vt 0.6492 0.0118
vt 0.6492 0.3042
vt 0.5478 0.4575
vt 0.5478 0.3265
vt 0.5582 0.3265
vt 0.5582 0.4575
vt 0.5927 0.3265
vt 0.5927 0.4575
vt 0.5823 0.4575
vt 0.5823 0.3265
vt 0.3433 0.3286
vt 0.4935 0.3286
vt 0.4935 0.5001
vt 0.3433 0.5001
vn 0.3416 -0.3416 0.8756
vn 0.3416 0.3416 0.8756
vn -0.3416 0.3416 0.8756
vn -0.3416 -0.3416 0.8756
vn 0.8756 -0.3416 -0.3416
vn 0.8756 0.3416 -0.3416
vn 0.8756 0.3416 0.3416
vn 0.8756 -0.3416 0.3416
vn 0.3416 0.8756 -0.3416
vn -0.3416 0.8756 -0.3416
vn -0.3416 0.8756 0.3416
vn 0.3416 0.8756 0.3416
vn -0.8756 -0.3416 0.3416
vn -0.8756 0.3416 0.3416
vn -0.8756 0.3416 -0.3416
vn -0.8756 -0.3416 -0.3416
vn -0.3416 -0.3416 -0.8756
vn -0.3416 0.3416 -0.8756
vn 0.3416 0.3416 -0.8756
vn 0.3416 -0.3416 -0.8756
vn -0.3416 -0.8756 0.3416
vn -0.3416 -0.8756 -0.3416
vn 0.3416 -0.8756 0.3416
vn 0.3416 -0.8756 -0.3416
usemtl Blocks
s 1
f 15/1/1 17/2/2 4/3/3 2/4/4
f 21/5/5 23/6/6 18/7/7 14/8/8
f 22/9/9 10/10/10 5/11/11 16/12/12
f 3/13/13 6/14/14 12/15/15 8/16/16
f 9/17/17 11/18/18 24/19/19 20/20/20
f 1/21/21 2/22/4 3/23/13
f 4/24/3 5/25/11 6/26/14
f 7/27/22 8/28/16 9/29/17
f 10/30/10 11/31/18 12/32/15
f 13/33/23 14/34/8 15/35/1
f 16/36/12 17/37/2 18/38/7
f 19/39/24 20/40/20 21/41/5
f 22/42/9 23/43/6 24/44/19
f 7/45/22 1/21/21 3/23/13 8/46/16
f 2/47/4 4/48/3 6/49/14 3/50/13
f 5/25/11 10/51/10 12/52/15 6/26/14
f 11/31/18 9/29/17 8/28/16 12/32/15
f 19/53/24 7/54/22 9/55/17 20/56/20
f 10/57/10 22/58/9 24/59/19 11/60/18
f 23/43/6 21/41/5 20/40/20 24/44/19
f 13/33/23 19/61/24 21/62/5 14/34/8
f 22/63/9 16/36/12 18/38/7 23/64/6
f 17/65/2 15/66/1 14/67/8 18/68/7
f 1/69/21 13/70/23 15/71/1 2/72/4
f 16/73/12 5/74/11 4/75/3 17/76/2
f 7/77/22 19/78/24 13/79/23 1/80/21
