mtllib Sink_67741f14.mtl
g sink_8_afcf35a0
v 3.00205 0.931 0.85348
v 3.00202 1.02594 0.85348
v 3.00575 1.02594 0.8487
v 3.00575 0.931 0.84873
v 3.00575 0.931 0.67955
v 3.00575 1.02594 0.67955
v 3.00575 1.02594 0.46812
v 3.00575 0.931 0.46812
v 3.00202 1.02594 0.46334
v 3.00202 0.931 0.46334
v 2.99775 1.03183 0.84716
v 3.00575 1.02594 0.8487
v 3.00202 1.02594 0.85348
v 3.00191 1.03158 0.84187
v 3.00575 1.02594 0.67955
v 3.00197 1.03158 0.67955
v 3.00575 1.02594 0.46812
v 3.00203 1.03158 0.47473
v 2.99829 1.03193 0.46986
v 3.00202 1.02594 0.46334
v 2.68141 1.02594 0.85348
v 2.99775 1.03183 0.84716
v 3.00202 1.02594 0.85348
v 2.68141 1.03181 0.84718
v 2.99185 1.03403 0.83698
v 3.00191 1.03158 0.84187
v 2.99644 1.03354 0.83129
v 3.00197 1.03158 0.67955
v 2.99655 1.03354 0.67955
v 3.00203 1.03158 0.47473
v 2.68141 1.034 0.83701
v 2.98321 1.03102 0.8193
v 2.98812 1.03089 0.81498
v 2.35936 1.03403 0.83698
v 2.35346 1.03183 0.84716
v 2.3493 1.03158 0.84187
v 2.35477 1.03354 0.83129
v 2.34924 1.03158 0.67955
v 2.368 1.03102 0.8193
v 2.68141 1.03039 0.81723
v 2.9765 1.02409 0.80341
v 2.35465 1.03354 0.67955
v 2.34918 1.03158 0.47473
v 2.37471 1.02409 0.80341
v 2.36309 1.03089 0.81498
v 2.68141 1.02409 0.80341
v 2.36308 1.03089 0.67955
v 2.35454 1.03354 0.48511
v 2.36308 1.03088 0.50184
v 2.35828 1.03423 0.48025
v 2.35292 1.03193 0.46986
v 2.36649 1.0316 0.49649
v 2.37115 1.02394 0.67955
v 2.37115 1.02394 0.51807
v 2.37471 1.02409 0.5134
v 2.37115 1.02394 0.79873
v 2.38971 0.99502 0.54603
v 2.3897 0.99504 0.67955
v 2.38969 0.99505 0.77066
v 2.39394 0.99398 0.77448
v 2.68141 1.034 0.47981
v 2.68141 1.0316 0.49649
v 2.68141 1.03181 0.46964
v 2.68141 1.02594 0.46334
v 2.34919 1.02594 0.46334
v 2.99829 1.03193 0.46986
v 3.00202 1.02594 0.46334
v 2.99293 1.03423 0.48025
v 2.98472 1.0316 0.49649
v 2.99667 1.03354 0.48511
v 2.98813 1.03088 0.50184
v 2.9765 1.02409 0.5134
v 2.98812 1.03089 0.67955
v 2.68141 1.02409 0.51341
v 2.98006 1.02394 0.51807
v 2.98005 1.02394 0.79873
v 2.98005 1.02394 0.67955
v 2.9615 0.99502 0.54603
v 2.96152 0.99505 0.77066
v 2.39394 0.99398 0.54233
v 2.95726 0.99398 0.54233
v 2.96151 0.99504 0.67955
v 2.95726 0.99398 0.77448
v 2.40037 0.9784 0.57563
v 2.68141 0.99398 0.54233
v 2.95084 0.9784 0.57563
v 2.95089 0.97848 0.75253
v 2.68141 0.99398 0.77448
v 2.40034 0.97844 0.67955
v 2.40032 0.97848 0.75253
v 2.94654 0.97695 0.5722
v 2.95087 0.97844 0.67955
v 2.94654 0.97695 0.75503
v 2.40467 0.97695 0.75503
v 2.94389 0.96757 0.62438
v 2.94393 0.96763 0.73483
v 2.68141 0.97695 0.75533
v 2.94391 0.9676 0.67955
v 2.93952 0.96574 0.73644
v 2.93707 0.96182 0.70449
v 2.94146 0.96378 0.7039
v 2.68141 0.96574 0.73644
v 2.94146 0.96378 0.67955
v 2.41169 0.96574 0.73644
v 2.94146 0.96378 0.65535
v 2.93707 0.96182 0.65476
v 2.93707 0.96182 0.67955
v 2.40728 0.96763 0.73483
v 2.41414 0.96182 0.70449
v 2.68141 0.96176 0.70449
v 2.67246 0.96176 0.69137
v 2.68141 0.96176 0.69375
v 2.69035 0.96176 0.69137
v 2.66591 0.96176 0.68488
v 2.6969 0.96176 0.68488
v 2.8172 0.96179 0.68926
v 2.8177 0.96179 0.67791
v 2.40729 0.9676 0.67955
v 2.53976 0.96179 0.68926
v 2.66351 0.96176 0.67595
v 2.5393 0.96179 0.67791
v 2.66591 0.96176 0.66714
v 2.53976 0.96179 0.66667
v 2.67246 0.96176 0.66064
v 2.41414 0.96182 0.67955
v 2.41414 0.96182 0.65476
v 2.68141 0.96176 0.65477
v 2.68141 0.96176 0.65827
v 2.40731 0.96757 0.62438
v 2.40467 0.97695 0.5722
v 2.68141 0.97695 0.5725
v 2.68141 0.96574 0.62282
v 2.41169 0.96574 0.62281
v 2.93952 0.96574 0.62281
v 2.40975 0.96378 0.65535
v 2.40975 0.96378 0.67955
v 2.40975 0.96378 0.7039
v 2.69035 0.96176 0.66064
v 2.8172 0.96179 0.66667
v 2.6969 0.96176 0.66714
v 2.6993 0.96176 0.67595
v 2.68141 0.95878 0.66435
v 2.67558 0.95878 0.66592
v 2.67246 0.96176 0.66064
v 2.67131 0.95878 0.67018
v 2.66591 0.96176 0.66714
v 2.66975 0.95878 0.67597
v 2.66351 0.96176 0.67595
v 2.67131 0.95878 0.68184
v 2.66591 0.96176 0.68488
v 2.67558 0.95878 0.6861
v 2.67246 0.96176 0.69137
v 2.68141 0.95878 0.68767
v 2.68141 0.96176 0.69375
v 2.68723 0.95878 0.6861
v 2.69035 0.96176 0.69137
v 2.6915 0.95878 0.68184
v 2.69306 0.95878 0.67597
v 2.68141 0.95878 0.676
v 2.6915 0.95878 0.67018
v 2.6915 0.95878 0.67018
v 2.6969 0.96176 0.66714
v 2.68723 0.95878 0.66592
v 2.6915 0.95878 0.68184
v 2.68723 0.95878 0.6861
v 2.68141 0.95878 0.68767
v 2.67558 0.95878 0.6861
v 2.67131 0.95878 0.68184
v 2.66975 0.95878 0.67597
v 2.67131 0.95878 0.67018
v 2.67558 0.95878 0.66592
v 2.68141 0.95878 0.66435
v 2.68141 1.02594 0.85348
v 2.34919 1.02594 0.85348
v 2.35346 1.03183 0.84716
v 2.68141 1.03181 0.84718
v 2.34545 1.02594 0.8487
v 2.34919 1.02594 0.85348
v 2.34916 0.931 0.85348
v 2.34545 0.931 0.84873
v 2.34545 1.02594 0.67955
v 2.34545 0.931 0.67955
v 2.34545 1.02594 0.46812
v 2.34545 0.931 0.46808
v 2.34919 1.02594 0.46334
v 2.34916 0.931 0.46334
v 2.34545 1.02594 0.8487
v 2.35346 1.03183 0.84716
v 2.34919 1.02594 0.85348
v 2.3493 1.03158 0.84187
v 2.34545 1.02594 0.67955
v 2.34924 1.03158 0.67955
v 2.34545 1.02594 0.46812
v 2.34918 1.03158 0.47473
v 2.35292 1.03193 0.46986
v 2.34919 1.02594 0.46334
v 2.68141 0.931 0.85348
v 3.00202 1.02594 0.85348
v 3.00205 0.931 0.85348
v 2.68141 1.02594 0.85348
v 2.34919 1.02594 0.85348
v 2.34916 0.931 0.85348
v 2.68141 1.02594 0.46334
v 3.00202 0.931 0.46334
v 3.00202 1.02594 0.46334
v 2.68141 0.931 0.46334
v 2.34916 0.931 0.46334
v 2.34919 1.02594 0.46334
v 3.00575 0.931 0.84873
v 2.99836 0.924 0.84603
v 3.00205 0.931 0.85348
v 3.00575 0.931 0.67955
v 2.99805 0.924 0.67938
v 3.00575 0.931 0.46812
v 2.99835 0.924 0.47063
v 3.00202 0.931 0.46334
v 2.34916 0.931 0.85348
v 2.35284 0.924 0.84602
v 2.34545 0.931 0.84873
v 2.35315 0.924 0.67937
v 2.34545 0.931 0.67955
v 2.35284 0.924 0.47061
v 2.34545 0.931 0.46808
v 2.34916 0.931 0.46334
v 2.68141 0.931 0.85348
v 2.35284 0.924 0.84602
v 2.34916 0.931 0.85348
v 2.68141 0.924 0.84602
v 3.00205 0.931 0.85348
v 2.35315 0.924 0.67937
v 2.99836 0.924 0.84603
v 2.68141 0.924 0.67992
v 2.35284 0.924 0.47061
v 2.99805 0.924 0.67938
v 2.68141 0.924 0.47134
v 2.34916 0.931 0.46334
v 2.99835 0.924 0.47063
v 2.68141 0.931 0.46334
v 3.00202 0.931 0.46334
v 2.69575 0.96916 0.68423
v 2.69362 0.97128 0.683
v 2.69551 0.97128 0.67595
v 2.68832 0.96635 0.68793
v 2.68832 0.95879 0.68793
v 2.68141 0.95879 0.68978
v 2.68832 0.96635 0.68793
v 2.68809 0.96713 0.68799
v 2.68934 0.96713 0.69041
v 2.66771 1.02201 0.80023
v 2.66762 1.02283 0.79961
v 2.6655 1.02131 0.79813
v 2.6674 1.0234 0.79957
v 2.66474 1.02163 0.79844
v 2.66512 1.02176 0.79798
v 2.66718 1.02338 0.80014
v 2.66709 1.02278 0.80098
v 2.66458 1.02098 0.79923
v 2.66718 1.02195 0.8016
v 2.66474 1.02021 0.7999
v 2.69572 1.01427 0.79273
v 2.69563 1.01368 0.79357
v 2.69807 1.01543 0.79527
v 2.69769 1.01529 0.79572
v 2.69852 1.01752 0.79789
v 2.66611 0.96635 0.68478
v 2.67313 0.96916 0.69029
v 2.67258 0.96635 0.69124
v 2.66706 0.96916 0.68423
v 2.66375 0.96635 0.67595
v 2.66485 0.96916 0.67595
v 2.66919 0.97128 0.683
v 2.6673 0.97128 0.67595
v 2.68141 0.96711 0.69256
v 2.68895 0.96852 0.68979
v 2.68934 0.96713 0.69041
v 2.68141 0.96859 0.69175
v 2.67347 0.96713 0.69041
v 2.68797 0.97016 0.68818
v 2.67386 0.96852 0.68979
v 2.68141 0.97012 0.68995
v 2.67484 0.97016 0.68818
v 2.69023 0.96635 0.69124
v 2.68969 0.96916 0.69029
v 2.69575 0.96916 0.68423
v 2.6967 0.96635 0.68478
v 2.69797 0.96916 0.67595
v 2.69906 0.96635 0.67595
v 2.69551 0.97128 0.67595
v 2.69579 0.96711 0.66764
v 2.68962 0.96852 0.66249
v 2.68996 0.96713 0.66184
v 2.69509 0.96859 0.66805
v 2.6979 0.96713 0.67559
v 2.69717 0.96852 0.67556
v 2.69353 0.97012 0.66895
v 2.69528 0.97016 0.67552
v 2.69023 0.96635 0.66066
v 2.68969 0.96916 0.66161
v 2.68141 0.96916 0.65939
v 2.68141 0.96635 0.65829
v 2.67313 0.96916 0.66161
v 2.67258 0.96635 0.66066
v 2.67285 0.96713 0.66184
v 2.67319 0.96852 0.66249
v 2.66772 0.96859 0.66805
v 2.66702 0.96711 0.66764
v 2.66564 0.96852 0.67556
v 2.66491 0.96713 0.67559
v 2.66754 0.97016 0.67552
v 2.66928 0.97012 0.66895
v 2.66706 0.96916 0.68423
v 2.67436 0.97128 0.68816
v 2.67313 0.96916 0.69029
v 2.66919 0.97128 0.683
v 2.67371 0.9727 0.68039
v 2.67252 0.9727 0.67595
v 2.6673 0.97128 0.67595
v 2.67696 0.9727 0.68365
v 2.68141 0.97128 0.69005
v 2.67371 0.9727 0.6715
v 2.66919 0.97128 0.6689
v 2.68141 0.9727 0.67595
v 2.68141 0.9727 0.68484
v 2.67696 0.9727 0.66825
v 2.68846 0.97128 0.68816
v 2.67436 0.97128 0.66374
v 2.68585 0.9727 0.68365
v 2.69362 0.97128 0.683
v 2.68969 0.96916 0.69029
v 2.69575 0.96916 0.68423
v 2.68911 0.9727 0.68039
v 2.69551 0.97128 0.67595
v 2.6903 0.9727 0.67595
v 2.69362 0.97128 0.6689
v 2.68911 0.9727 0.6715
v 2.68846 0.97128 0.66374
v 2.68585 0.9727 0.66825
v 2.68141 0.97128 0.66185
v 2.68141 0.9727 0.66706
v 2.68141 0.96916 0.65939
v 2.67313 0.96916 0.66161
v 2.69509 0.96859 0.66805
v 2.69353 0.97012 0.66895
v 2.68871 0.97016 0.66415
v 2.68962 0.96852 0.66249
v 2.68969 0.96916 0.66161
v 2.68846 0.97128 0.66374
v 2.68141 0.97128 0.66185
v 2.68141 0.96916 0.65939
v 2.67319 0.96852 0.66249
v 2.6741 0.97016 0.66415
v 2.66928 0.97012 0.66895
v 2.66772 0.96859 0.66805
v 2.67258 0.96635 0.69124
v 2.67449 0.96635 0.68793
v 2.66943 0.96635 0.68287
v 2.66611 0.96635 0.68478
v 2.66757 0.96635 0.67595
v 2.66375 0.96635 0.67595
v 2.6967 0.96635 0.68478
v 2.68832 0.96635 0.68793
v 2.69023 0.96635 0.69124
v 2.69339 0.96635 0.68287
v 2.69906 0.96635 0.67595
v 2.69524 0.96635 0.67595
v 2.68141 0.96635 0.65829
v 2.68832 0.96635 0.66397
v 2.69023 0.96635 0.66066
v 2.68141 0.96635 0.66212
v 2.67258 0.96635 0.66066
v 2.67449 0.96635 0.66397
v 2.67449 0.96635 0.68793
v 2.67449 0.95879 0.68793
v 2.66943 0.95879 0.68287
v 2.66943 0.96635 0.68287
v 2.68141 0.96635 0.68978
v 2.68141 0.95879 0.68978
v 2.67449 0.95879 0.68793
v 2.67449 0.96635 0.68793
v 2.68141 0.96713 0.68978
v 2.67472 0.96713 0.68799
v 2.68809 0.96713 0.68799
v 2.68832 0.96635 0.68793
v 2.68141 0.95879 0.68978
v 2.68141 0.96635 0.68978
v 2.68809 0.96713 0.68799
v 2.69339 0.96635 0.68287
v 2.68832 0.95879 0.68793
v 2.68832 0.96635 0.68793
v 2.69339 0.95879 0.68287
v 2.69524 0.96635 0.67595
v 2.69524 0.95879 0.67595
v 2.68832 0.96635 0.66397
v 2.68832 0.95879 0.66397
v 2.69339 0.95879 0.66903
v 2.69339 0.96635 0.66903
v 2.68864 0.96713 0.66429
v 2.69524 0.95879 0.67595
v 2.69339 0.96713 0.66903
v 2.69524 0.96635 0.67595
v 2.69512 0.96713 0.67551
v 2.68141 0.96635 0.66212
v 2.68141 0.95879 0.66212
v 2.68832 0.95879 0.66397
v 2.68832 0.96635 0.66397
v 2.67449 0.96635 0.66397
v 2.67449 0.95879 0.66397
v 2.68141 0.95879 0.66212
v 2.68141 0.96635 0.66212
v 2.66943 0.96635 0.68287
v 2.66943 0.95879 0.68287
v 2.66757 0.95879 0.67595
v 2.66757 0.96635 0.67595
v 2.66943 0.95879 0.66903
v 2.66943 0.96635 0.66903
v 2.66767 0.96713 0.6756
v 2.67449 0.95879 0.66397
v 2.66943 0.96713 0.66903
v 2.67449 0.96635 0.66397
v 2.67424 0.96713 0.66422
v 2.68141 0.97128 0.69005
v 2.67484 0.97016 0.68818
v 2.67436 0.97128 0.68816
v 2.68141 0.97012 0.68995
v 2.68846 0.97128 0.68816
v 2.68797 0.97016 0.68818
v 2.67436 0.97128 0.68816
v 2.67484 0.97016 0.68818
v 2.67386 0.96852 0.68979
v 2.67313 0.96916 0.69029
v 2.67347 0.96713 0.69041
v 2.67258 0.96635 0.69124
v 2.67472 0.96713 0.68799
v 2.67449 0.96635 0.68793
v 2.68969 0.96916 0.69029
v 2.68797 0.97016 0.68818
v 2.68846 0.97128 0.68816
v 2.68895 0.96852 0.68979
v 2.69023 0.96635 0.69124
v 2.68934 0.96713 0.69041
v 2.68832 0.96635 0.68793
v 2.69797 0.96916 0.67595
v 2.6979 0.96713 0.67559
v 2.69906 0.96635 0.67595
v 2.69717 0.96852 0.67556
v 2.69551 0.97128 0.67595
v 2.69528 0.97016 0.67552
v 2.69362 0.97128 0.6689
v 2.69528 0.97016 0.67552
v 2.69551 0.97128 0.67595
v 2.69353 0.97012 0.66895
v 2.68846 0.97128 0.66374
v 2.68871 0.97016 0.66415
v 2.68969 0.96916 0.66161
v 2.68871 0.97016 0.66415
v 2.68846 0.97128 0.66374
v 2.68962 0.96852 0.66249
v 2.69023 0.96635 0.66066
v 2.68996 0.96713 0.66184
v 2.68832 0.96635 0.66397
v 2.68864 0.96713 0.66429
v 2.67313 0.96916 0.66161
v 2.67285 0.96713 0.66184
v 2.67258 0.96635 0.66066
v 2.67319 0.96852 0.66249
v 2.67436 0.97128 0.66374
v 2.6741 0.97016 0.66415
v 2.66919 0.97128 0.6689
v 2.6741 0.97016 0.66415
v 2.67436 0.97128 0.66374
v 2.66928 0.97012 0.66895
v 2.6673 0.97128 0.67595
v 2.66754 0.97016 0.67552
v 2.66485 0.96916 0.67595
v 2.66754 0.97016 0.67552
v 2.6673 0.97128 0.67595
v 2.66564 0.96852 0.67556
v 2.66375 0.96635 0.67595
v 2.66491 0.96713 0.67559
v 2.66757 0.96635 0.67595
v 2.66767 0.96713 0.6756
v 2.69906 0.96635 0.67595
v 2.6979 0.96713 0.67559
v 2.69512 0.96713 0.67551
v 2.69524 0.96635 0.67595
v 2.67258 0.96635 0.66066
v 2.67285 0.96713 0.66184
v 2.67424 0.96713 0.66422
v 2.67449 0.96635 0.66397
v 2.68934 0.96713 0.69041
v 2.68809 0.96713 0.68799
v 2.68141 0.96713 0.68978
v 2.68141 0.96711 0.69256
v 2.67472 0.96713 0.68799
v 2.67347 0.96713 0.69041
v 2.68996 0.96713 0.66184
v 2.68864 0.96713 0.66429
v 2.69339 0.96713 0.66903
v 2.69579 0.96711 0.66764
v 2.69512 0.96713 0.67551
v 2.6979 0.96713 0.67559
v 2.66491 0.96713 0.67559
v 2.66767 0.96713 0.6756
v 2.66943 0.96713 0.66903
v 2.66702 0.96711 0.66764
v 2.67424 0.96713 0.66422
v 2.67285 0.96713 0.66184
v 2.6951 1.02201 0.80023
v 2.69519 1.02283 0.79961
v 2.6923 1.02338 0.80014
v 2.6923 1.02254 0.80075
v 2.69519 1.02141 0.80107
v 2.67051 1.02254 0.80075
v 2.67051 1.02338 0.80014
v 2.66762 1.02283 0.79961
v 2.66771 1.02201 0.80023
v 2.67051 1.02196 0.80161
v 2.66762 1.02141 0.80107
v 2.6923 1.02196 0.80161
v 2.67051 1.02199 0.80222
v 2.6674 1.02139 0.80164
v 2.6923 1.02199 0.80222
v 2.69541 1.02139 0.80164
v 2.69769 1.01975 0.80005
v 2.69731 1.01989 0.7996
v 2.6979 1.01853 0.79685
v 2.69808 1.01924 0.79612
v 2.69731 1.02131 0.79813
v 2.69715 1.02053 0.7988
v 2.69519 1.02283 0.79961
v 2.6951 1.02201 0.80023
v 2.69808 1.01782 0.79759
v 2.69731 1.01989 0.7996
v 2.69519 1.02141 0.80107
v 2.69852 1.01752 0.79789
v 2.69769 1.01975 0.80005
v 2.69769 1.01529 0.79572
v 2.6951 1.01505 0.79348
v 2.69519 1.01564 0.79264
v 2.69731 1.01716 0.79411
v 2.69715 1.01652 0.79491
v 2.69519 1.01422 0.7941
v 2.69731 1.01574 0.79557
v 2.69808 1.01924 0.79612
v 2.69852 1.01953 0.79582
v 2.69769 1.0173 0.79365
v 2.6979 1.01853 0.79685
v 2.69808 1.01782 0.79759
v 2.69769 1.01529 0.79572
v 2.66566 1.01652 0.79491
v 2.6655 1.01716 0.79411
v 2.66762 1.01564 0.79264
v 2.66771 1.01505 0.79348
v 2.6655 1.01574 0.79557
v 2.66762 1.01422 0.7941
v 2.66429 1.01752 0.79789
v 2.66512 1.01529 0.79572
v 2.66473 1.01782 0.79759
v 2.66512 1.01975 0.80005
v 2.66762 1.02283 0.79961
v 2.66512 1.02176 0.79798
v 2.6655 1.02131 0.79813
v 2.6674 1.0234 0.79957
v 2.67051 1.02338 0.80014
v 2.67051 1.02399 0.80015
v 2.6923 1.02399 0.80015
v 2.6923 1.02338 0.80014
v 2.69519 1.02283 0.79961
v 2.69541 1.0234 0.79957
v 2.69731 1.02131 0.79813
v 2.69769 1.02176 0.79798
v 2.69808 1.01924 0.79612
v 2.69852 1.01953 0.79582
v 2.69769 1.02176 0.79798
v 2.69731 1.02131 0.79813
v 2.69519 1.01564 0.79264
v 2.69769 1.0173 0.79365
v 2.69731 1.01716 0.79411
v 2.69541 1.01567 0.79207
v 2.6923 1.01509 0.7921
v 2.6923 1.01507 0.79149
v 2.67051 1.01507 0.79149
v 2.6923 1.01451 0.79296
v 2.6951 1.01505 0.79348
v 2.67051 1.01509 0.7921
v 2.6923 1.01367 0.79356
v 2.69519 1.01422 0.7941
v 2.67051 1.01451 0.79296
v 2.67051 1.01367 0.79356
v 2.66762 1.01422 0.7941
v 2.66771 1.01505 0.79348
v 2.66762 1.01564 0.79264
v 2.6674 1.01567 0.79207
v 2.6655 1.01716 0.79411
v 2.66512 1.0173 0.79365
v 2.6674 1.01567 0.79207
v 2.66762 1.01564 0.79264
v 2.6655 1.02131 0.79813
v 2.66512 1.02176 0.79798
v 2.66429 1.01953 0.79582
v 2.66473 1.01924 0.79612
v 2.66512 1.0173 0.79365
v 2.6655 1.01716 0.79411
v 2.66566 1.02053 0.7988
v 2.66771 1.02201 0.80023
v 2.66762 1.02141 0.80107
v 2.6655 1.01989 0.7996
v 2.66491 1.01853 0.79685
v 2.66566 1.01652 0.79491
v 2.66473 1.01782 0.79759
v 2.66512 1.01975 0.80005
v 2.6655 1.01574 0.79557
v 2.6674 1.0234 0.79957
v 2.66718 1.02338 0.80014
v 2.66474 1.02163 0.79844
v 2.67051 1.02399 0.80015
v 2.67051 1.02402 0.80076
v 2.66709 1.02278 0.80098
v 2.6923 1.02402 0.80076
v 2.6923 1.02399 0.80015
v 2.69541 1.0234 0.79957
v 2.67051 1.02344 0.80162
v 2.66718 1.02195 0.8016
v 2.67051 1.0226 0.80222
v 2.6923 1.0226 0.80222
v 2.6923 1.02344 0.80162
v 2.69563 1.02338 0.80014
v 2.69769 1.02176 0.79798
v 2.69807 1.02163 0.79844
v 2.69572 1.02278 0.80098
v 2.69563 1.02195 0.8016
v 2.69852 1.01953 0.79582
v 2.69807 1.02163 0.79844
v 2.69769 1.02176 0.79798
v 2.69896 1.01924 0.79612
v 2.69769 1.0173 0.79365
v 2.69807 1.01685 0.7938
v 2.69823 1.02098 0.79923
v 2.69914 1.01853 0.79685
v 2.69572 1.02278 0.80098
v 2.69563 1.02338 0.80014
v 2.69563 1.02195 0.8016
v 2.69807 1.02021 0.7999
v 2.69823 1.01607 0.79447
v 2.69563 1.0151 0.79211
v 2.69572 1.01427 0.79273
v 2.69807 1.01543 0.79527
v 2.69896 1.01782 0.79759
v 2.69769 1.01975 0.80005
v 2.69852 1.01752 0.79789
v 2.69541 1.01567 0.79207
v 2.69807 1.01685 0.7938
v 2.69769 1.0173 0.79365
v 2.69563 1.0151 0.79211
v 2.6923 1.01507 0.79149
v 2.6923 1.01446 0.79149
v 2.67051 1.01446 0.79149
v 2.67051 1.01507 0.79149
v 2.6674 1.01567 0.79207
v 2.66718 1.0151 0.79211
v 2.66512 1.0173 0.79365
v 2.66474 1.01685 0.7938
v 2.66429 1.01953 0.79582
v 2.66474 1.01685 0.7938
v 2.66512 1.0173 0.79365
v 2.66385 1.01924 0.79612
v 2.66458 1.01607 0.79447
v 2.66709 1.01427 0.79273
v 2.66718 1.0151 0.79211
v 2.66718 1.01368 0.79357
v 2.66474 1.01543 0.79527
v 2.66367 1.01853 0.79685
v 2.66512 1.02176 0.79798
v 2.66385 1.01924 0.79612
v 2.66429 1.01953 0.79582
v 2.66474 1.02163 0.79844
v 2.66367 1.01853 0.79685
v 2.66458 1.01607 0.79447
v 2.66458 1.02098 0.79923
v 2.66718 1.02338 0.80014
v 2.66385 1.01782 0.79759
v 2.66474 1.01543 0.79527
v 2.66512 1.01529 0.79572
v 2.66429 1.01752 0.79789
v 2.66474 1.02021 0.7999
v 2.66709 1.02278 0.80098
v 2.66512 1.01975 0.80005
v 2.6923 1.01446 0.79149
v 2.69572 1.01427 0.79273
v 2.69563 1.0151 0.79211
v 2.6923 1.01362 0.79209
v 2.69563 1.01368 0.79357
v 2.67051 1.01362 0.79209
v 2.67051 1.01446 0.79149
v 2.66718 1.0151 0.79211
v 2.66709 1.01427 0.79273
v 2.67051 1.01304 0.79295
v 2.66718 1.01368 0.79357
v 2.6923 1.01304 0.79295
v 2.67051 1.01306 0.79356
v 2.6674 1.01366 0.79414
v 2.66474 1.01543 0.79527
v 2.66512 1.01529 0.79572
v 2.6923 1.01306 0.79356
v 2.69541 1.01366 0.79414
v 2.69769 1.01529 0.79572
v 2.69807 1.01543 0.79527
v 2.66718 1.02195 0.8016
v 2.6674 1.02139 0.80164
v 2.66512 1.01975 0.80005
v 2.66474 1.02021 0.7999
v 2.67051 1.0226 0.80222
v 2.6674 1.02139 0.80164
v 2.66718 1.02195 0.8016
v 2.67051 1.02199 0.80222
v 2.6923 1.02199 0.80222
v 2.6923 1.0226 0.80222
v 2.69563 1.02195 0.8016
v 2.69541 1.02139 0.80164
v 2.69807 1.02021 0.7999
v 2.69769 1.01975 0.80005
v 2.69541 1.02139 0.80164
v 2.69563 1.02195 0.8016
v 2.6674 1.02139 0.80164
v 2.66762 1.02141 0.80107
v 2.6655 1.01989 0.7996
v 2.66512 1.01975 0.80005
v 2.69541 1.01366 0.79414
v 2.69731 1.01574 0.79557
v 2.69769 1.01529 0.79572
v 2.69519 1.01422 0.7941
v 2.6923 1.01306 0.79356
v 2.6923 1.01367 0.79356
v 2.67051 1.01367 0.79356
v 2.67051 1.01306 0.79356
v 2.6674 1.01366 0.79414
v 2.66762 1.01422 0.7941
v 2.66512 1.01529 0.79572
v 2.6655 1.01574 0.79557
v 2.67449 0.95879 0.68793
v 2.68141 0.95879 0.67595
v 2.66943 0.95879 0.68287
v 2.68141 0.95879 0.68978
v 2.66757 0.95879 0.67595
v 2.68832 0.95879 0.68793
v 2.66943 0.95879 0.66903
v 2.69339 0.95879 0.68287
v 2.67449 0.95879 0.66397
v 2.69524 0.95879 0.67595
v 2.68141 0.95879 0.66212
v 2.69339 0.95879 0.66903
v 2.68832 0.95879 0.66397
v 2.67051 1.01912 0.79624
v 2.66755 1.0228 0.7998
v 2.66539 1.02124 0.7983
v 2.67051 1.02337 0.80035
v 2.6646 1.01912 0.79624
v 2.66539 1.017 0.79418
v 2.66755 1.01545 0.79267
v 2.6923 1.02337 0.80035
v 2.6923 1.01912 0.79624
v 2.69526 1.0228 0.7998
v 2.67051 1.01488 0.79212
v 2.69742 1.02124 0.7983
v 2.6923 1.01488 0.79212
v 2.69821 1.01912 0.79624
v 2.69526 1.01545 0.79267
v 2.69742 1.017 0.79418
vn 2.689636 0.8979155 1.252343
vn 2.689959 0.9571875 1.252693
vn 3.258469 0.9436234 0.6888804
vn 3.257536 0.8955446 0.6879597
vn 3.257197 0.8886765 0.6759993
vn 3.258355 0.9523492 0.6760049
vn 3.258528 0.9432082 0.6656449
vn 3.257546 0.8949948 0.6663594
vn 2.689945 0.9588838 0.09938681
vn 2.689634 0.8971156 0.09970373
vn 2.68605 1.425951 0.973213
vn 3.258469 0.9436234 0.6888804
vn 2.689959 0.9571875 1.252693
vn 3.114947 1.312198 0.6836606
vn 3.258355 0.9523492 0.6760049
vn 3.052558 1.373238 0.6760873
vn 3.258528 0.9432082 0.6656449
vn 3.121781 1.304321 0.6706061
vn 2.685984 1.4289 0.3837532
vn 2.689945 0.9588838 0.09938681
vn 2.6814 0.9668149 1.252238
vn 2.68605 1.425951 0.973213
vn 2.689959 0.9571875 1.252693
vn 2.6814 1.44893 0.931111
vn 2.682076 1.508208 0.6888183
vn 3.114947 1.312198 0.6836606
vn 2.792571 1.497531 0.6718305
vn 3.052558 1.373238 0.6760873
vn 2.659834 1.507947 0.6759904
vn 3.121781 1.304321 0.6706061
vn 2.6814 1.507971 0.6550887
vn 2.679578 1.489857 0.5310552
vn 2.474422 1.46988 0.6659438
vn 2.680749 1.508208 0.6887844
vn 2.676911 1.425915 0.9732741
vn 2.247856 1.312201 0.6836604
vn 2.570228 1.49753 0.6718304
vn 2.310249 1.373244 0.6760874
vn 2.683156 1.48984 0.5309894
vn 2.6814 1.48483 0.5128886
vn 2.67549 1.393139 0.3299853
vn 2.702967 1.507947 0.6759905
vn 2.241021 1.304323 0.6706062
vn 2.687088 1.393023 0.3298264
vn 2.888394 1.469875 0.6659435
vn 2.6814 1.374591 0.3064596
vn 2.966247 1.433191 0.6759504
vn 2.564528 1.496385 0.6797042
vn 2.890538 1.469084 0.6837405
vn 2.680313 1.507732 0.6493164
vn 2.676975 1.428874 0.3837061
vn 2.682659 1.490174 0.8197228
vn 3.141917 1.279221 0.6759943
vn 3.1098 1.317802 0.6898119
vn 2.686726 1.3981 1.015298
vn 3.106071 1.32169 0.6573126
vn 3.160339 1.253198 0.6878065
vn 3.167357 1.242736 0.6759992
vn 3.16009 1.25343 0.6609006
vn 2.687112 1.341552 0.2701091
vn 2.6814 1.508333 0.6804895
vn 2.6814 1.484235 0.8411192
vn 2.6814 1.448959 0.4209466
vn 2.6814 0.9674153 0.09979928
vn 2.673182 0.9588747 0.09938163
vn 2.685984 1.4289 0.3837532
vn 2.689945 0.9588838 0.09938681
vn 2.682526 1.507732 0.6493072
vn 2.680094 1.490189 0.8196641
vn 2.798275 1.496385 0.679704
vn 2.472272 1.469088 0.6837398
vn 2.675866 1.39821 1.015142
vn 2.396562 1.433196 0.6759502
vn 2.6814 1.378718 1.04053
vn 2.252999 1.317801 0.6898106
vn 2.256724 1.321685 0.6573131
vn 2.22088 1.279217 0.6759943
vn 2.202459 1.253195 0.6878059
vn 2.202708 1.253427 0.6609008
vn 2.686605 1.370496 1.050366
vn 2.675983 1.370504 1.050353
vn 2.19544 1.242731 0.6759993
vn 2.675457 1.341612 0.2701724
vn 3.148558 1.270011 0.6889625
vn 2.6814 1.380538 1.038282
vn 2.214241 1.27001 0.6889645
vn 2.20772 1.260496 0.6561963
vn 2.6814 1.343521 0.2720695
vn 3.167368 1.242719 0.6759993
vn 3.155081 1.260497 0.6561992
vn 2.67699 1.471728 0.8783056
vn 2.195436 1.242725 0.6759994
vn 2.675904 1.388534 0.3239121
vn 2.686671 1.3885 0.3238645
vn 2.228645 1.289046 0.6882122
vn 2.22731 1.287008 0.6561378
vn 2.6814 1.394022 0.3311169
vn 2.195444 1.242738 0.675999
vn 2.677198 1.47994 0.4971695
vn 2.675592 1.505572 0.6197278
vn 2.291258 1.35642 0.6641567
vn 2.6814 1.483832 0.5095367
vn 2.278615 1.344639 0.6759994
vn 2.685425 1.479944 0.4971757
vn 2.291716 1.35684 0.6878219
vn 2.675644 1.505562 0.7323828
vn 2.66906 1.508218 0.6759993
vn 3.135508 1.286985 0.6561407
vn 2.686958 1.505576 0.6197417
vn 2.6814 1.505368 0.6173926
vn 2.681534 1.50835 0.6759385
vn 2.6814 1.50835 0.6759086
vn 2.68126 1.50835 0.6759353
vn 2.681549 1.50835 0.6760197
vn 2.675643 1.508313 0.6727966
vn 2.681251 1.50835 0.6760099
vn 2.681254 1.50835 0.6759984
vn 3.167367 1.24272 0.675999
vn 2.681543 1.50835 0.6760108
vn 2.681555 1.50835 0.6759982
vn 2.68154 1.50835 0.6759992
vn 2.681549 1.50835 0.6759759
vn 2.681543 1.50835 0.6759868
vn 2.681537 1.50835 0.6761115
vn 2.6932 1.50823 0.6759999
vn 2.686908 1.505566 0.7323665
vn 2.6814 1.504704 0.7407833
vn 2.6814 1.508235 0.6875588
vn 3.134176 1.28902 0.68821
vn 2.685628 1.471737 0.8782836
vn 2.6814 1.475337 0.868434
vn 2.6814 1.498777 0.7807019
vn 2.685538 1.498542 0.7818886
vn 2.67708 1.498543 0.7818773
vn 3.071062 1.35686 0.6878203
vn 3.084162 1.344662 0.6759993
vn 3.07152 1.356441 0.6641583
vn 2.676453 1.508267 0.6844383
vn 2.68125 1.50835 0.6759888
vn 2.681244 1.50835 0.6759787
vn 2.673825 1.508301 0.6759995
vn 2.6814 1.481533 0.8499154
vn 2.80682 1.450263 0.8950182
vn 2.80764 1.45027 0.8945302
vn 2.897432 1.451307 0.8022696
vn 2.897932 1.451315 0.8013765
vn 2.930528 1.451834 0.6759346
vn 2.930528 1.451835 0.6760768
vn 2.897876 1.451312 0.5505135
vn 2.898308 1.451318 0.5512868
vn 2.806838 1.450249 0.4569589
vn 2.807659 1.450256 0.4574482
vn 2.681401 1.449715 0.4224892
vn 2.681399 1.449715 0.4224892
vn 2.555977 1.450254 0.4569616
vn 2.555149 1.450261 0.457455
vn 2.532289 1.482026 0.5895739
vn 2.551746 1.493604 0.675966
vn 2.6814 1.50835 0.676
vn 2.465375 1.451315 0.8022501
vn 2.6814 1.50835 0.676
vn 2.464875 1.451323 0.8013574
vn 2.616383 1.493328 0.7895488
vn 2.6814 1.50835 0.676
vn 2.6814 1.50835 0.676
vn 2.6814 1.50835 0.676
vn 2.6814 1.50835 0.676
vn 2.6814 1.50835 0.676
vn 2.6814 1.50835 0.676
vn 2.6814 1.50835 0.676
vn 2.6814 1.50835 0.676
vn 2.6814 1.50835 0.676
vn 2.6814 0.9668149 1.252238
vn 2.673137 0.9571794 1.252697
vn 2.676911 1.425915 0.9732741
vn 2.6814 1.44893 0.931111
vn 2.104331 0.9436234 0.6888804
vn 2.673137 0.9571794 1.252697
vn 2.673448 0.8978652 1.252344
vn 2.10526 0.895602 0.6879606
vn 2.104445 0.9523482 0.6760049
vn 2.105599 0.8887311 0.6759996
vn 2.104271 0.9432091 0.6656846
vn 2.105248 0.8950897 0.6663914
vn 2.673182 0.9588747 0.09938163
vn 2.67348 0.8971804 0.09969556
vn 2.104331 0.9436234 0.6888804
vn 2.676911 1.425915 0.9732741
vn 2.673137 0.9571794 1.252697
vn 2.247856 1.312201 0.6836604
vn 2.104445 0.9523482 0.6760049
vn 2.310249 1.373244 0.6760874
vn 2.104271 0.9432091 0.6656846
vn 2.241021 1.304323 0.6706062
vn 2.676975 1.428874 0.3837061
vn 2.673182 0.9588747 0.09938163
vn 2.6814 0.8891435 1.251831
vn 2.689959 0.9571875 1.252693
vn 2.689636 0.8979155 1.252343
vn 2.6814 0.9668149 1.252238
vn 2.673137 0.9571794 1.252697
vn 2.673448 0.8978652 1.252344
vn 2.6814 0.9674153 0.09979928
vn 2.689634 0.8971156 0.09970373
vn 2.689945 0.9588838 0.09938681
vn 2.6814 0.8880949 0.1002462
vn 2.67348 0.8971804 0.09969556
vn 2.673182 0.9588747 0.09938163
vn 3.257536 0.8955446 0.6879597
vn 2.695314 0.3544763 0.7035719
vn 2.689636 0.8979155 1.252343
vn 3.257197 0.8886765 0.6759993
vn 2.693945 0.3537861 0.6759996
vn 3.257546 0.8949948 0.6663594
vn 2.695261 0.3542458 0.6537326
vn 2.689634 0.8971156 0.09970373
vn 2.673448 0.8978652 1.252344
vn 2.667958 0.3544655 0.7035785
vn 2.10526 0.895602 0.6879606
vn 2.669287 0.3537768 0.6760001
vn 2.105599 0.8887311 0.6759996
vn 2.668002 0.3542362 0.6536991
vn 2.105248 0.8950897 0.6663914
vn 2.67348 0.8971804 0.09969556
vn 2.6814 0.8891435 1.251831
vn 2.667958 0.3544655 0.7035785
vn 2.673448 0.8978652 1.252344
vn 2.6814 0.3541229 0.6993686
vn 2.689636 0.8979155 1.252343
vn 2.669287 0.3537768 0.6760001
vn 2.695314 0.3544763 0.7035719
vn 2.6814 0.3536497 0.6759996
vn 2.668002 0.3542362 0.6536991
vn 2.693945 0.3537861 0.6759996
vn 2.681401 0.3539539 0.6572598
vn 2.67348 0.8971804 0.09969556
vn 2.695261 0.3542458 0.6537326
vn 2.6814 0.8880949 0.1002462
vn 2.689634 0.8971156 0.09970373
vn 3.09759 1.250989 0.9162633
vn 2.919591 1.438625 0.8135327
vn 2.916441 1.457105 0.7120904
vn 2.964805 0.9310008 1.179006
vn 2.970085 0.931 1.175995
vn 2.6814 0.931 1.25335
vn 2.211151 0.7194718 0.9357208
vn 2.211151 0.7194718 0.9357208
vn 2.239417 0.8505435 1.038645
vn 2.970141 0.5721062 0.3279239
vn 2.942919 0.7761107 0.1851329
vn 3.134381 0.9134747 0.3184601
vn 2.638966 1.38122 0.3170648
vn 2.216646 1.271842 0.7101108
vn 2.607814 1.358992 0.2955512
vn 2.413121 1.4128 0.8469634
vn 2.392672 1.289904 1.024076
vn 2.181397 1.138233 0.8769593
vn 2.413046 1.116768 1.152246
vn 2.216577 0.9756125 1.015533
vn 2.970057 0.572041 0.3279212
vn 2.949744 0.4492045 0.5051262
vn 3.146202 0.5902274 0.6418426
vn 2.754726 0.5029956 1.056485
vn 2.766053 0.5333304 1.08591
vn 2.215661 1.140991 0.9449319
vn 2.338047 1.243304 1.019377
vn 2.299418 1.13472 1.057996
vn 2.26521 1.250984 0.9162685
vn 2.159607 1.13476 0.8158113
vn 2.212363 1.24332 0.8016757
vn 2.443216 1.438628 0.8135343
vn 2.446369 1.45711 0.7120845
vn 2.681399 1.203318 1.185093
vn 2.798825 1.287101 1.115018
vn 2.813964 1.196039 1.171494
vn 2.681407 1.296779 1.122698
vn 2.548869 1.19605 1.171497
vn 2.780582 1.362167 1.046933
vn 2.564009 1.287098 1.115029
vn 2.681414 1.368676 1.052527
vn 2.582257 1.362178 1.046931
vn 3.06342 1.134684 1.057978
vn 3.024771 1.243316 1.019349
vn 3.09759 1.250989 0.9162633
vn 3.147167 1.140944 0.9449192
vn 3.150439 1.243309 0.8016937
vn 3.203207 1.13471 0.8158333
vn 2.916441 1.457105 0.7120904
vn 3.122381 1.203103 0.4213849
vn 3.002987 1.287027 0.3548146
vn 3.0444 1.19572 0.3133878
vn 3.068272 1.29674 0.4526223
vn 3.176809 1.195959 0.5429605
vn 3.120305 1.287085 0.5581053
vn 3.007442 1.368723 0.4877766
vn 3.052183 1.362193 0.5763724
vn 2.821224 1.134686 0.1541812
vn 2.807078 1.243306 0.2069553
vn 2.6814 1.250979 0.1954307
vn 2.6814 1.140948 0.1381755
vn 2.555734 1.243316 0.2069584
vn 2.541588 1.134712 0.1541883
vn 2.318425 1.195786 0.3134107
vn 2.359857 1.287067 0.3548155
vn 2.294537 1.296746 0.4526166
vn 2.240404 1.203052 0.4213563
vn 2.242471 1.28706 0.5581186
vn 2.185908 1.195793 0.5429373
vn 2.310664 1.362245 0.5764238
vn 2.355387 1.368752 0.4877931
vn 2.26521 1.250984 0.9162685
vn 2.532628 1.457101 0.8615196
vn 2.338047 1.243304 1.019377
vn 2.443216 1.438628 0.8135343
vn 2.612403 1.502827 0.715832
vn 2.601746 1.502829 0.6759998
vn 2.446369 1.45711 0.7120845
vn 2.641568 1.502828 0.7449921
vn 2.681399 1.488197 0.8272111
vn 2.612411 1.502828 0.6361645
vn 2.550466 1.488202 0.6003989
vn 2.6814 1.50835 0.6760001
vn 2.6814 1.502827 0.7556708
vn 2.641562 1.502826 0.6070024
vn 2.830164 1.45711 0.8615025
vn 2.595129 1.457107 0.45441
vn 2.721242 1.502827 0.7449941
vn 2.919591 1.438625 0.8135327
vn 3.024771 1.243316 1.019349
vn 3.09759 1.250989 0.9162633
vn 2.750396 1.502827 0.7158346
vn 2.916441 1.457105 0.7120904
vn 2.761074 1.502826 0.6759998
vn 2.812349 1.488197 0.6003861
vn 2.750388 1.502828 0.636162
vn 2.767678 1.4571 0.4543974
vn 2.721248 1.502826 0.6070005
vn 2.6814 1.438624 0.4009526
vn 2.6814 1.502827 0.5963338
vn 2.6814 1.250979 0.1954307
vn 2.555734 1.243316 0.2069584
vn 3.068272 1.29674 0.4526223
vn 3.007442 1.368723 0.4877766
vn 2.953028 1.362262 0.4047726
vn 3.002987 1.287027 0.3548146
vn 2.807078 1.243306 0.2069553
vn 2.767678 1.4571 0.4543974
vn 2.6814 1.438624 0.4009526
vn 2.6814 1.250979 0.1954307
vn 2.359857 1.287067 0.3548155
vn 2.409807 1.362257 0.4047282
vn 2.355387 1.368752 0.4877931
vn 2.294537 1.296746 0.4526166
vn 2.6814 0.3536497 0.6760001
vn 2.6814 0.3536497 0.6760001
vn 2.6814 0.3536497 0.6760001
vn 2.6814 0.3536497 0.6760001
vn 2.6814 0.3536497 0.676
vn 2.6814 0.3536497 0.676
vn 2.6814 0.3536497 0.676
vn 2.6814 0.3536497 0.676
vn 2.6814 0.3536497 0.676
vn 2.6814 0.3536497 0.676
vn 2.6814 0.3536497 0.6759995
vn 2.6814 0.3536497 0.6759995
vn 2.6814 0.3536497 0.676
vn 2.6814 0.3536497 0.676
vn 2.6814 0.3536497 0.676
vn 2.6814 0.3536497 0.676
vn 2.6814 0.3536497 0.6760004
vn 2.6814 0.3536497 0.6760004
vn 2.398027 0.9310006 1.179024
vn 2.392749 0.931 1.176014
vn 2.181382 0.931 0.9646431
vn 2.181382 0.931 0.9646431
vn 2.6814 0.9310017 1.25335
vn 2.6814 0.931 1.25335
vn 2.392749 0.931 1.176014
vn 2.398027 0.9310006 1.179024
vn 2.6814 0.9310184 1.25335
vn 2.532008 0.9310167 1.233688
vn 2.830804 0.9310188 1.233684
vn 2.964805 0.9310008 1.179006
vn 2.6814 0.931 1.25335
vn 2.6814 0.9310017 1.25335
vn 2.830804 0.9310188 1.233684
vn 3.181407 0.931 0.9646623
vn 2.970085 0.931 1.175995
vn 2.964805 0.9310008 1.179006
vn 3.181407 0.931 0.9646623
vn 3.258729 0.9310042 0.671052
vn 3.25875 0.931 0.676
vn 2.974357 0.931 0.1784967
vn 2.970085 0.931 0.1760054
vn 3.181391 0.931 0.3873086
vn 3.181391 0.9310059 0.3873085
vn 3.089648 0.931 0.2677511
vn 3.25875 0.931 0.676
vn 3.181391 0.9310653 0.3873083
vn 3.258729 0.9310042 0.671052
vn 3.239069 0.9311262 0.526538
vn 2.6814 0.931 0.09864974
vn 2.6814 0.931 0.09864974
vn 2.970085 0.931 0.1760054
vn 2.974357 0.931 0.1784967
vn 2.388053 0.9309946 0.1787264
vn 2.392749 0.931 0.1759863
vn 2.6814 0.931 0.09864974
vn 2.6814 0.931 0.09864974
vn 2.181382 0.931 0.9646431
vn 2.181382 0.931 0.9646431
vn 2.10405 0.931 0.676
vn 2.104075 0.9309998 0.6705687
vn 2.181398 0.931 0.3873277
vn 2.181398 0.9309928 0.3873277
vn 2.123698 0.9309956 0.526664
vn 2.392749 0.931 0.1759863
vn 2.181398 0.9309211 0.3873288
vn 2.388053 0.9309946 0.1787264
vn 2.273187 0.930852 0.2677161
vn 2.6814 0.8760787 1.250732
vn 2.53204 0.8779321 1.231165
vn 2.53204 0.8779321 1.231165
vn 2.6814 0.8760787 1.250732
vn 2.830792 0.8779655 1.23116
vn 2.830792 0.8779655 1.23116
vn 3.071604 1.092954 1.069504
vn 3.071604 1.092954 1.069504
vn 3.059518 1.062436 1.092034
vn 3.06015 1.06394 1.090981
vn 3.123462 0.8505017 1.038539
vn 3.123893 0.8492692 1.037737
vn 3.151671 0.7197211 0.9358836
vn 3.151671 0.7197211 0.9358836
vn 2.302762 1.064006 1.091061
vn 2.291184 1.092907 1.069511
vn 2.291184 1.092907 1.069511
vn 2.303395 1.062518 1.092111
vn 2.239008 0.8493727 1.037883
vn 2.239417 0.8505435 1.038645
vn 2.211151 0.7194718 0.9357208
vn 2.851493 1.063982 0.1405399
vn 2.781891 0.8167669 0.1190569
vn 2.781696 0.8164393 0.119089
vn 2.852741 1.062476 0.1405661
vn 2.826906 1.092871 0.1412488
vn 2.826906 1.092871 0.1412488
vn 3.179122 0.8761271 0.3886057
vn 3.236854 0.8779758 0.5277001
vn 3.236854 0.8779759 0.5277001
vn 3.179127 0.8761271 0.3886148
vn 3.087523 0.8780123 0.2690726
vn 3.087523 0.8780123 0.2690726
vn 3.230147 1.06393 0.7965816
vn 3.217217 1.092991 0.8173957
vn 3.217217 1.092991 0.8173957
vn 3.230758 1.062393 0.7954777
vn 3.213787 0.8163304 0.8676989
vn 3.213915 0.8166637 0.8675431
vn 3.131738 0.6725535 0.9284559
vn 3.131738 0.6725535 0.9284559
vn 2.132626 1.064036 0.7963396
vn 2.147453 0.832044 0.8720644
vn 2.147769 0.8312165 0.872507
vn 2.132012 1.062499 0.7952226
vn 2.145513 1.092887 0.8172476
vn 2.145513 1.092887 0.8172476
vn 2.183716 0.8759717 0.388571
vn 2.275243 0.8779079 0.2691203
vn 2.275243 0.8779079 0.2691203
vn 2.183642 0.8759716 0.3886983
vn 2.125962 0.8777785 0.52771
vn 2.125962 0.8777785 0.52771
vn 2.511192 1.064017 0.1405853
vn 2.535828 1.092866 0.1412652
vn 2.535828 1.092866 0.1412652
vn 2.509914 1.062481 0.1406136
vn 2.584626 0.8311995 0.1156359
vn 2.58415 0.8319268 0.1155893
vn 2.682341 0.6930645 0.149959
vn 2.682341 0.6930645 0.149959
vn 2.781696 0.8164393 0.119089
vn 2.781891 0.8167669 0.1190569
vn 2.687844 0.6723639 0.1598612
vn 2.687844 0.6723639 0.1598612
vn 2.147769 0.8312165 0.872507
vn 2.147453 0.832044 0.8720644
vn 2.226303 0.6931473 0.9399061
vn 2.226303 0.6931474 0.9399061
vn 2.681543 0.3536525 0.674205
vn 2.681543 0.3536525 0.674205
vn 2.681543 0.3536525 0.674205
vn 2.681543 0.3536525 0.674205
vn 2.681257 0.3536525 0.6742048
vn 2.681257 0.3536525 0.6742048
vn 2.679742 0.3536526 0.6767891
vn 2.679742 0.3536526 0.6767891
vn 2.679742 0.3536526 0.6767891
vn 2.679742 0.3536526 0.6767891
vn 2.679888 0.3536526 0.677041
vn 2.679888 0.3536526 0.677041
vn 2.682902 0.3536526 0.6770344
vn 2.682902 0.3536526 0.6770344
vn 2.682902 0.3536526 0.6770344
vn 2.682902 0.3536526 0.6770344
vn 2.683047 0.3536526 0.676784
vn 2.683047 0.3536526 0.676784
vn 2.392669 0.572102 0.3279197
vn 2.419888 0.7761034 0.1851317
vn 2.664561 0.7117758 0.142155
vn 2.663087 0.516766 0.2742437
vn 2.419915 0.4356135 0.5361749
vn 2.699714 0.516766 0.2742438
vn 2.69824 0.7117807 0.142153
vn 2.942919 0.7761107 0.1851329
vn 2.970141 0.5721062 0.3279239
vn 2.698238 0.3907768 0.4730007
vn 2.942887 0.4356124 0.5361829
vn 2.664561 0.3907788 0.4729955
vn 2.678519 0.5368013 1.09782
vn 2.639079 0.5860033 1.136998
vn 2.684269 0.5368037 1.097823
vn 2.723707 0.5859869 1.136987
vn 2.754733 0.5637186 1.115386
vn 2.228442 0.5730617 0.6694459
vn 2.10405 0.9309723 0.6759973
vn 2.158351 1.101131 0.5004771
vn 2.228456 0.9134764 0.3184144
vn 2.18139 0.7237771 0.4750473
vn 2.419888 0.7761034 0.1851317
vn 2.392669 0.572102 0.3279197
vn 2.158347 0.7607715 0.8514181
vn 2.228442 0.5730617 0.6694459
vn 2.419915 0.4356135 0.5361749
vn 2.766053 0.5333304 1.08591
vn 2.754733 0.5637186 1.115386
vn 2.754726 0.5029956 1.056485
vn 2.392728 1.28984 1.024189
vn 2.419871 1.426352 0.8158653
vn 2.228411 1.288899 0.6825562
vn 2.181401 1.138165 0.8770413
vn 2.419993 1.085916 1.166918
vn 2.228486 0.9485047 1.033625
vn 2.158351 1.101131 0.5004771
vn 2.766115 1.328603 0.2660379
vn 2.754555 1.298291 0.2365924
vn 2.10405 0.9309723 0.6759973
vn 2.158347 0.7607715 0.8514181
vn 2.754726 0.5029956 1.056485
vn 3.18137 1.13821 0.8770657
vn 3.134342 1.288957 0.6825777
vn 2.942905 1.426364 0.8158678
vn 2.970066 1.289845 1.02419
vn 3.134269 0.9485047 1.033682
vn 2.942774 1.085912 1.166937
vn 2.596734 0.5333283 1.085905
vn 2.608105 0.5030227 1.056522
vn 3.204436 0.7607449 0.8514423
vn 2.608156 0.5636995 1.115385
vn 2.942919 0.7761107 0.1851329
vn 2.607814 1.358992 0.2955512
vn 3.134381 0.9134747 0.3184601
vn 2.638966 1.38122 0.3170648
vn 2.69824 0.7117807 0.142153
vn 2.678526 1.340519 0.2690367
vn 2.68427 1.34052 0.2690374
vn 2.664561 0.7117758 0.142155
vn 2.419888 0.7761034 0.1851317
vn 2.723815 1.381208 0.3170477
vn 2.228456 0.9134764 0.3184144
vn 2.755004 1.359007 0.2955713
vn 2.158351 1.101131 0.5004771
vn 2.766115 1.328603 0.2660379
vn 2.755004 1.359007 0.2955713
vn 2.228456 0.9134764 0.3184144
vn 2.419871 1.426352 0.8158653
vn 2.754555 1.298291 0.2365924
vn 2.228411 1.288899 0.6825562
vn 2.723658 1.27623 0.2151707
vn 2.664567 1.471237 0.8789617
vn 2.684281 1.325367 0.2543373
vn 2.678523 1.325368 0.2543377
vn 2.663105 1.345196 1.077796
vn 2.392728 1.28984 1.024189
vn 2.698241 1.471239 0.8789567
vn 2.664572 1.150229 1.209844
vn 2.419993 1.085916 1.166918
vn 2.6997 1.345196 1.077796
vn 2.698234 1.150225 1.209845
vn 2.942774 1.085912 1.166937
vn 2.970066 1.289845 1.02419
vn 2.942905 1.426364 0.8158678
vn 2.639038 1.276256 0.2151995
vn 3.134342 1.288957 0.6825777
vn 2.60811 1.298355 0.2366688
vn 2.639038 1.276256 0.2151995
vn 2.942905 1.426364 0.8158678
vn 3.134381 0.9134747 0.3184601
vn 2.607814 1.358992 0.2955512
vn 2.596535 1.328593 0.2660594
vn 3.204447 1.101154 0.5004932
vn 2.60811 1.298355 0.2366688
vn 3.134342 1.288957 0.6825777
vn 3.181421 0.723787 0.4750652
vn 2.970141 0.5721062 0.3279239
vn 2.942887 0.4356124 0.5361829
vn 3.134369 0.5730761 0.6694507
vn 3.25875 0.9309844 0.6760045
vn 3.18137 1.13821 0.8770657
vn 3.204436 0.7607449 0.8514423
vn 2.608156 0.5636995 1.115385
vn 3.134269 0.9485047 1.033682
vn 2.638966 1.38122 0.3170648
vn 2.413121 1.4128 0.8469634
vn 2.216646 1.271842 0.7101108
vn 2.678526 1.340519 0.2690367
vn 2.662767 1.469599 0.8831153
vn 2.392672 1.289904 1.024076
vn 2.700031 1.469599 0.8831158
vn 2.68427 1.34052 0.2690374
vn 2.723815 1.381208 0.3170477
vn 2.661194 1.345156 1.077746
vn 2.413046 1.116768 1.152246
vn 2.66276 1.154546 1.20799
vn 2.70004 1.154546 1.20799
vn 2.701609 1.345156 1.077746
vn 2.949734 1.412762 0.8469824
vn 2.755004 1.359007 0.2955713
vn 3.146209 1.271765 0.7101396
vn 2.970092 1.289914 1.024096
vn 2.949801 1.116797 1.152207
vn 2.766115 1.328603 0.2660379
vn 3.146209 1.271765 0.7101396
vn 2.755004 1.359007 0.2955713
vn 3.218113 1.079136 0.5232642
vn 2.754555 1.298291 0.2365924
vn 3.146196 0.8864722 0.3364186
vn 3.1814 1.13823 0.8769693
vn 3.25875 0.9310073 0.675972
vn 2.970092 1.289914 1.024096
vn 2.949734 1.412762 0.8469824
vn 2.949801 1.116797 1.152207
vn 3.146274 0.9756769 1.015455
vn 3.181398 0.7237909 0.4750025
vn 2.949735 0.7454403 0.1996628
vn 2.970057 0.572041 0.3279212
vn 3.146202 0.5902274 0.6418426
vn 3.218138 0.7829451 0.8287274
vn 2.754733 0.5637186 1.115386
vn 2.766053 0.5333304 1.08591
vn 2.723658 1.27623 0.2151707
vn 3.146196 0.8864722 0.3364186
vn 2.754555 1.298291 0.2365924
vn 2.949735 0.7454403 0.1996628
vn 2.684281 1.325367 0.2543373
vn 2.700041 0.7076346 0.1439344
vn 2.662764 0.7076346 0.1439342
vn 2.678523 1.325368 0.2543377
vn 2.639038 1.276256 0.2151995
vn 2.413087 0.745451 0.1996461
vn 2.60811 1.298355 0.2366688
vn 2.216626 0.8865109 0.3363842
vn 2.596535 1.328593 0.2660594
vn 2.216626 0.8865109 0.3363842
vn 2.60811 1.298355 0.2366688
vn 2.144717 1.0792 0.5232219
vn 2.181416 0.7237628 0.4749986
vn 2.392721 0.5720482 0.3279319
vn 2.413087 0.745451 0.1996461
vn 2.413134 0.4491529 0.5051497
vn 2.216692 0.590094 0.6418983
vn 2.10405 0.9310011 0.6759838
vn 2.607814 1.358992 0.2955512
vn 2.144717 1.0792 0.5232219
vn 2.596535 1.328593 0.2660594
vn 2.216646 1.271842 0.7101108
vn 2.10405 0.9310011 0.6759838
vn 2.181416 0.7237628 0.4749986
vn 2.181397 1.138233 0.8769593
vn 2.413121 1.4128 0.8469634
vn 2.144717 0.7828382 0.8288158
vn 2.216692 0.590094 0.6418983
vn 2.608105 0.5030227 1.056522
vn 2.596734 0.5333283 1.085905
vn 2.216577 0.9756125 1.015533
vn 2.392672 1.289904 1.024076
vn 2.608156 0.5636995 1.115385
vn 2.700041 0.7076346 0.1439344
vn 2.970057 0.572041 0.3279212
vn 2.949735 0.7454403 0.1996628
vn 2.701607 0.5167295 0.2743722
vn 2.949744 0.4492045 0.5051262
vn 2.661196 0.5167296 0.2743718
vn 2.662764 0.7076346 0.1439342
vn 2.413087 0.745451 0.1996461
vn 2.392721 0.5720482 0.3279319
vn 2.662767 0.3923702 0.4689634
vn 2.413134 0.4491529 0.5051497
vn 2.700032 0.3923705 0.4689627
vn 2.678545 0.5213966 1.082879
vn 2.639151 0.4808075 1.034992
vn 2.216692 0.590094 0.6418983
vn 2.608105 0.5030227 1.056522
vn 2.684262 0.5213976 1.08288
vn 2.723623 0.4808094 1.034997
vn 2.754726 0.5029956 1.056485
vn 3.146202 0.5902274 0.6418426
vn 2.413046 1.116768 1.152246
vn 2.639079 0.5860033 1.136998
vn 2.608156 0.5636995 1.115385
vn 2.216577 0.9756125 1.015533
vn 2.66276 1.154546 1.20799
vn 2.639079 0.5860033 1.136998
vn 2.413046 1.116768 1.152246
vn 2.678519 0.5368013 1.09782
vn 2.684269 0.5368037 1.097823
vn 2.70004 1.154546 1.20799
vn 2.949801 1.116797 1.152207
vn 2.723707 0.5859869 1.136987
vn 3.146274 0.9756769 1.015455
vn 2.754733 0.5637186 1.115386
vn 2.723707 0.5859869 1.136987
vn 2.949801 1.116797 1.152207
vn 2.639079 0.5860033 1.136998
vn 2.942887 0.4356124 0.5361829
vn 3.134369 0.5730761 0.6694507
vn 2.608156 0.5636995 1.115385
vn 2.723623 0.4808094 1.034997
vn 2.228486 0.9485047 1.033625
vn 2.754726 0.5029956 1.056485
vn 2.419993 1.085916 1.166918
vn 2.684262 0.5213976 1.08288
vn 2.664572 1.150229 1.209844
vn 2.698234 1.150225 1.209845
vn 2.678545 0.5213966 1.082879
vn 2.639151 0.4808075 1.034992
vn 2.942774 1.085912 1.166937
vn 2.608105 0.5030227 1.056522
vn 3.134269 0.9485047 1.033682
vn 2.6814 0.3536497 0.6760001
vn 2.6814 0.3536497 0.676
vn 2.6814 0.3536497 0.676
vn 2.6814 0.3536497 0.676
vn 2.6814 0.3536497 0.676
vn 2.6814 0.3536497 0.676
vn 2.6814 0.3536497 0.676
vn 2.6814 0.3536497 0.676
vn 2.6814 0.3536497 0.6759999
vn 2.6814 0.3536497 0.6759999
vn 2.6814 0.3536497 0.676
vn 2.6814 0.3536497 0.676
vn 2.6814 0.3536497 0.676
vn 2.6814 1.332959 0.2615574
vn 2.6814 1.332963 0.261562
vn 2.6814 1.33297 0.2615683
vn 2.6814 1.332963 0.261562
vn 2.6814 1.332976 0.2615746
vn 2.6814 1.332956 0.2615551
vn 2.6814 1.332936 0.2615357
vn 2.6814 1.332963 0.2615616
vn 2.6814 1.332959 0.2615575
vn 2.6814 1.332963 0.2615616
vn 2.6814 1.332936 0.2615357
vn 2.6814 1.33297 0.2615682
vn 2.6814 1.332937 0.2615363
vn 2.6814 1.332976 0.2615747
vn 2.6814 1.332937 0.2615364
vn 2.6814 1.332957 0.2615555
vt -10.08489 0.8741033
vt -10.08489 0.9879892
vt -10.07916 0.9879892
vt -10.0792 0.8741033
vt -9.876259 0.8741033
vt -9.876259 0.9879892
vt -9.62262 0.9879892
vt -9.62262 0.8741034
vt -9.616887 0.9879892
vt -9.616887 0.8741034
vt -10.07732 0.9950483
vt -10.07916 0.9879892
vt -10.08489 0.9879892
vt -10.07097 0.9947556
vt -9.876259 0.9879892
vt -9.876259 0.9947518
vt -9.62262 0.9879892
vt -9.630555 0.9947518
vt -9.624708 0.9951695
vt -9.616887 0.9879892
vt -9.360769 0.989476
vt -9.763196 0.981448
vt -9.76863 0.989476
vt -9.360769 0.9814661
vt -9.755692 0.9684971
vt -9.768485 0.9747122
vt -9.761525 0.9612482
vt -9.768562 0.7682303
vt -9.761676 0.7682303
vt -9.768637 0.5076712
vt -9.360769 0.9685266
vt -9.744701 0.9459961
vt -9.750946 0.9405029
vt -8.951087 0.9684972
vt -8.943583 0.981448
vt -8.938293 0.9747122
vt -8.945253 0.9612483
vt -8.938216 0.7682303
vt -8.962077 0.9459962
vt -9.360769 0.9433706
vt -9.736162 0.9257897
vt -8.945106 0.7682303
vt -8.938143 0.5076712
vt -8.970616 0.9257898
vt -8.955832 0.940503
vt -9.360769 0.9257839
vt -8.955827 0.7682303
vt -8.944955 0.5208767
vt -8.955821 0.5421513
vt -8.949718 0.5146826
vt -8.9429 0.5014713
vt -8.960164 0.5353439
vt -8.966092 0.7682303
vt -8.966092 0.562807
vt -8.970616 0.5568636
vt -8.966093 0.9198416
vt -8.989697 0.5983676
vt -8.989681 0.7682303
vt -8.98967 0.8841294
vt -8.995087 0.8889846
vt -9.360769 0.5141266
vt -9.360769 0.5353439
vt -9.360769 0.5011871
vt -9.360769 0.4931772
vt -8.938148 0.4931773
vt -9.763879 0.5014713
vt -9.76863 0.4931772
vt -9.757064 0.5146826
vt -9.746617 0.5353439
vt -9.761824 0.5208767
vt -9.75096 0.5421513
vt -9.736162 0.5568636
vt -9.750952 0.7682303
vt -9.360769 0.5568693
vt -9.740689 0.5628069
vt -9.740686 0.9198416
vt -9.740686 0.7682303
vt -9.717082 0.5983675
vt -9.717112 0.8841293
vt -8.995087 0.5936659
vt -9.711692 0.5936659
vt -9.717097 0.7682303
vt -9.711692 0.8889845
vt -9.003253 0.6360186
vt -9.360769 0.5936659
vt -9.703526 0.6360186
vt -9.70359 0.8610638
vt -9.360769 0.8889844
vt -9.003223 0.7682303
vt -9.003188 0.8610638
vt -9.698052 0.6316574
vt -9.703558 0.7682303
vt -9.698052 0.8642386
vt -9.008726 0.8642386
vt -9.694688 0.6980427
vt -9.694732 0.8385418
vt -9.360769 0.8646257
vt -9.694712 0.7682303
vt -9.689117 0.8406008
vt -9.686004 0.7999504
vt -9.691592 0.7992018
vt -9.360769 0.8405941
vt -9.691592 0.7682303
vt -9.017658 0.8406008
vt -9.691592 0.7374447
vt -9.686005 0.7366942
vt -9.686004 0.7682303
vt -9.012047 0.8385419
vt -9.020775 0.7999505
vt -9.360769 0.7999504
vt -9.349389 0.7832659
vt -9.360769 0.78629
vt -9.372149 0.7832659
vt -9.34106 0.7750071
vt -9.380482 0.7750071
vt -9.533512 0.7805775
vt -9.534147 0.7661427
vt -9.012067 0.7682303
vt -9.180575 0.7805775
vt -9.338011 0.7636412
vt -9.179994 0.7661427
vt -9.34106 0.7524355
vt -9.180575 0.7518385
vt -9.349389 0.744171
vt -9.020775 0.7682303
vt -9.020775 0.7366942
vt -9.360769 0.7366942
vt -9.360769 0.7411469
vt -9.012091 0.6980427
vt -9.008726 0.6316574
vt -9.360769 0.6320456
vt -9.360769 0.6960505
vt -9.017658 0.6960438
vt -9.689117 0.6960438
vt -9.015186 0.7374448
vt -9.015186 0.7682303
vt -9.015186 0.7992018
vt -9.372149 0.744171
vt -9.533512 0.7518385
vt -9.380482 0.7524355
vt -9.383528 0.7636412
vt -9.360769 0.7488936
vt -9.353356 0.7508801
vt -9.349389 0.744171
vt -9.347928 0.7563055
vt -9.34106 0.7524355
vt -9.345942 0.7636707
vt -9.338011 0.7636412
vt -9.347928 0.7711342
vt -9.34106 0.7750071
vt -9.353356 0.7765625
vt -9.349389 0.7832659
vt -9.360769 0.778549
vt -9.360769 0.78629
vt -9.368185 0.7765625
vt -9.372149 0.7832659
vt -9.37361 0.7711342
vt -9.375598 0.7636707
vt -9.360769 0.7637118
vt -9.37361 0.7563055
vt -9.37361 0.7563055
vt -9.380482 0.7524355
vt -9.368185 0.7508801
vt -9.37361 0.7711342
vt -9.368185 0.7765625
vt -9.360769 0.778549
vt -9.353356 0.7765625
vt -9.347928 0.7711342
vt -9.345942 0.7636707
vt -9.347928 0.7563055
vt -9.353356 0.7508801
vt -9.360769 0.7488936
vt -9.360769 0.989476
vt -8.938148 0.989476
vt -8.943583 0.981448
vt -9.360769 0.9814661
vt -9.622625 0.8797167
vt -9.616896 0.8797167
vt -9.616896 0.7658346
vt -9.622583 0.7658346
vt -9.82552 0.8797167
vt -9.82552 0.7658346
vt -10.07915 0.8797166
vt -10.0792 0.7658346
vt -10.08488 0.8797166
vt -10.08488 0.7658346
vt -9.622625 0.8797167
vt -9.624466 0.8867758
vt -9.616896 0.8797167
vt -9.630816 0.886483
vt -9.82552 0.8797167
vt -9.82552 0.8864811
vt -10.07915 0.8797166
vt -10.07121 0.886481
vt -10.07706 0.8868988
vt -10.08488 0.8797166
vt -9.360209 0.08603746
vt -9.735931 -0.02521819
vt -9.735964 0.08603746
vt -9.360209 -0.02521819
vt -8.970891 -0.02521816
vt -8.970859 0.08603749
vt -9.360213 0.5598276
vt -9.735936 0.448572
vt -9.735935 0.5598276
vt -9.360213 0.448572
vt -8.970862 0.448572
vt -8.970896 0.5598276
vt -10.0792 0.8741033
vt -10.07596 0.8657043
vt -10.08489 0.8741033
vt -9.876259 0.8741033
vt -9.876049 0.8657072
vt -9.62262 0.8741034
vt -9.625628 0.8657072
vt -9.616887 0.8741034
vt -9.616896 0.7658346
vt -9.625832 0.7574375
vt -9.622583 0.7658346
vt -9.82574 0.7574394
vt -9.82552 0.7658346
vt -10.07616 0.7574375
vt -10.0792 0.7658346
vt -10.08488 0.7658346
vt -9.360259 0.03752214
vt -8.972503 0.04631504
vt -8.968158 0.03752217
vt -9.360259 0.04631311
vt -9.738667 0.03752214
vt -8.972863 0.2429894
vt -9.734314 0.04630357
vt -9.360259 0.2423418
vt -8.972503 0.4893635
vt -9.733952 0.2429789
vt -9.360259 0.4884985
vt -8.968158 0.4979399
vt -9.734304 0.4893406
vt -9.360259 0.4979399
vt -9.738635 0.4979399
vt -19.90177 0.6917289
vt -19.89598 0.6883755
vt -19.89598 0.6691536
vt -19.55455 0.824959
vt -19.53656 0.824959
vt -19.53656 0.8084939
vt -19.75131 0.9353084
vt -19.75115 0.9374333
vt -19.74452 0.9374333
vt -19.36336 0.9404969
vt -19.36172 0.9426619
vt -19.35785 0.9386708
vt -19.97418 0.1640491
vt -19.9772 0.1569576
vt -19.97841 0.1579673
vt -19.23283 0.9497803
vt -19.23063 0.9482145
vt -19.2352 0.9435023
vt -19.22899 0.9460554
vt -19.23344 0.9414687
vt -19.11123 0.9257515
vt -19.11345 0.9241835
vt -19.1179 0.928781
vt -19.1191 0.928423
vt -19.1248 0.9342898
vt -19.97534 0.6867675
vt -19.96766 0.6717241
vt -19.97534 0.6691319
vt -19.96766 0.6882663
vt -19.97534 0.7108651
vt -19.96766 0.7108651
vt -19.96187 0.6916202
vt -19.96187 0.7108651
vt -19.84516 0.4996733
vt -19.8489 0.5196886
vt -19.8452 0.5207273
vt -19.84908 0.4996733
vt -19.8452 0.4786193
vt -19.85324 0.5170799
vt -19.8489 0.479664
vt -19.85315 0.4996733
vt -19.85324 0.4822726
vt -19.90943 0.7108434
vt -19.90177 0.7082539
vt -19.90177 0.6917289
vt -19.90943 0.6932262
vt -19.90177 0.6691536
vt -19.90943 0.6691536
vt -19.89598 0.6691536
vt -19.47153 0.521623
vt -19.46788 0.5082772
vt -19.47149 0.5065914
vt -19.4677 0.5226671
vt -19.47149 0.542225
vt -19.46788 0.5421492
vt -19.46372 0.5250149
vt -19.46363 0.5420325
vt -19.73289 0.5229563
vt -19.72597 0.521607
vt -19.72597 0.501224
vt -19.73289 0.501224
vt -19.72597 0.480841
vt -19.73289 0.4794889
vt -19.62671 0.5910462
vt -19.6231 0.58936
vt -19.62292 0.5749655
vt -19.62675 0.5760099
vt -19.6231 0.5554773
vt -19.62671 0.5554014
vt -19.61885 0.5555939
vt -19.61895 0.5726141
vt -19.44485 0.2095946
vt -19.46244 0.2190732
vt -19.45947 0.2242143
vt -19.44999 0.2066306
vt -19.46087 0.2003441
vt -19.458 0.1896223
vt -19.44543 0.1896223
vt -19.46872 0.208194
vt -19.47944 0.2236334
vt -19.46087 0.1789005
vt -19.44999 0.1726194
vt -19.47944 0.1896223
vt -19.47944 0.2110713
vt -19.46872 0.1710505
vt -19.49644 0.2190732
vt -19.46244 0.1601713
vt -19.49016 0.208194
vt -19.50889 0.2066306
vt -19.49941 0.2242143
vt -19.51403 0.2095946
vt -19.49801 0.2003441
vt -19.51345 0.1896223
vt -19.50088 0.1896223
vt -19.50889 0.1726194
vt -19.49801 0.1789005
vt -19.49644 0.1601713
vt -19.49016 0.1710505
vt -19.47944 0.1556166
vt -19.47944 0.1681842
vt -19.47944 0.149683
vt -19.45947 0.1550357
vt -19.5642 0.9399837
vt -19.55995 0.9424408
vt -19.54688 0.9294093
vt -19.54934 0.9249045
vt -19.49941 0.1550357
vt -19.49644 0.1601713
vt -19.47944 0.1556166
vt -19.47944 0.149683
vt -19.64386 0.9424297
vt -19.64632 0.9469338
vt -19.63325 0.9599696
vt -19.62899 0.9575067
vt -19.81033 0.6933578
vt -19.81482 0.701126
vt -19.80294 0.7130014
vt -19.79518 0.7085141
vt -19.7986 0.729224
vt -19.78963 0.729224
vt -19.67419 0.8144828
vt -19.65454 0.80709
vt -19.65903 0.7993169
vt -19.66642 0.8189729
vt -19.67975 0.8352059
vt -19.67077 0.8352059
vt -19.77934 0.5103351
vt -19.79265 0.5265571
vt -19.78489 0.5310416
vt -19.78831 0.5103351
vt -19.78489 0.4896313
vt -19.79265 0.4941157
vt -19.62873 0.5234208
vt -19.64831 0.5234208
vt -19.64831 0.5365491
vt -19.62873 0.5365491
vt -19.55455 0.8084939
vt -19.53656 0.8084939
vt -19.53656 0.7920233
vt -19.55455 0.7920233
vt -19.5564 0.8084939
vt -19.5564 0.7925754
vt -19.5564 0.824407
vt -19.55455 0.824959
vt -19.53656 0.8084939
vt -19.55455 0.8084939
vt -19.5564 0.824407
vt -19.4735 0.5610713
vt -19.49308 0.5741926
vt -19.4735 0.5741926
vt -19.49308 0.5610713
vt -19.4735 0.5431467
vt -19.49308 0.5431467
vt -19.4735 0.5121065
vt -19.49308 0.5121065
vt -19.49308 0.5252278
vt -19.4735 0.5252278
vt -19.47149 0.5129378
vt -19.49308 0.5431467
vt -19.47149 0.5252278
vt -19.4735 0.5431467
vt -19.47149 0.5420122
vt -19.43625 0.7933325
vt -19.45426 0.7933325
vt -19.45426 0.8098167
vt -19.43625 0.8098167
vt -19.43625 0.7768469
vt -19.45426 0.7768469
vt -19.45426 0.7933325
vt -19.43625 0.7933325
vt -19.62873 0.5365491
vt -19.64831 0.5365491
vt -19.64831 0.5544795
vt -19.62873 0.5544795
vt -19.64831 0.572404
vt -19.62873 0.572404
vt -19.62671 0.5553722
vt -19.64831 0.5855266
vt -19.62671 0.572404
vt -19.62873 0.5855266
vt -19.62671 0.5848789
vt -19.85622 0.4996733
vt -19.85324 0.4822726
vt -19.85622 0.4809772
vt -19.85315 0.4996733
vt -19.85622 0.5183694
vt -19.85324 0.5170799
vt -19.6974 0.9490136
vt -19.69745 0.9458403
vt -19.702 0.9412152
vt -19.70341 0.9430274
vt -19.70376 0.9372842
vt -19.70609 0.9350908
vt -19.69692 0.9372842
vt -19.69675 0.9350908
vt -19.74486 0.942997
vt -19.75064 0.9457219
vt -19.75069 0.948796
vt -19.74623 0.9412414
vt -19.74226 0.9353084
vt -19.74452 0.9374333
vt -19.75131 0.9353084
vt -19.79811 0.8369382
vt -19.79795 0.8318942
vt -19.80083 0.8299679
vt -19.79613 0.8353466
vt -19.79202 0.8421956
vt -19.79145 0.8394086
vt -19.46071 0.5248778
vt -19.46363 0.5420325
vt -19.46071 0.5431467
vt -19.46372 0.5250149
vt -19.46071 0.5115058
vt -19.46363 0.5125761
vt -19.46621 0.5059848
vt -19.46363 0.5125761
vt -19.46071 0.5115058
vt -19.46788 0.5082772
vt -19.4735 0.5035204
vt -19.47149 0.5065914
vt -19.4735 0.5121065
vt -19.47149 0.5129378
vt -19.62144 0.591653
vt -19.62671 0.5910462
vt -19.62873 0.5941154
vt -19.6231 0.58936
vt -19.61594 0.5861333
vt -19.61885 0.5850598
vt -19.61594 0.5727541
vt -19.61885 0.5850598
vt -19.61594 0.5861333
vt -19.61895 0.5726141
vt -19.61594 0.5544795
vt -19.61885 0.5555939
vt -19.84669 0.8369055
vt -19.85311 0.8392817
vt -19.85255 0.8419625
vt -19.8486 0.8353747
vt -19.84407 0.830201
vt -19.84684 0.8320539
vt -19.8532 0.830201
vt -19.85342 0.8320539
vt -19.80083 0.8299679
vt -19.79795 0.8318942
vt -19.79106 0.8318942
vt -19.79135 0.8299679
vt -19.62873 0.5941154
vt -19.62671 0.5910462
vt -19.62671 0.5848789
vt -19.62873 0.5855266
vt -19.90908 0.5182967
vt -19.9034 0.5153537
vt -19.9076 0.4996948
vt -19.91412 0.4996948
vt -19.9034 0.4840333
vt -19.90908 0.4810903
vt -19.2119 0.808984
vt -19.2088 0.8032371
vt -19.21993 0.7921081
vt -19.22558 0.7953723
vt -19.224 0.7769091
vt -19.23053 0.7767163
vt -19.32696 0.7767963
vt -19.33343 0.77677
vt -19.33756 0.7921886
vt -19.33191 0.795453
vt -19.34885 0.8034819
vt -19.34559 0.8090651
vt -19.78695 0.2334429
vt -19.78529 0.2336861
vt -19.78673 0.2259755
vt -19.78835 0.2259755
vt -19.7892 0.2336861
vt -19.78835 0.1678334
vt -19.78673 0.1678334
vt -19.78529 0.1601228
vt -19.78695 0.160369
vt -19.79064 0.1678334
vt -19.7892 0.1601228
vt -19.79064 0.2259755
vt -19.79226 0.1678334
vt -19.79072 0.1595372
vt -19.79226 0.2259755
vt -19.79072 0.2342716
vt -19.78649 0.2403428
vt -19.78527 0.239328
vt -19.46114 0.9465114
vt -19.46307 0.9483791
vt -19.45778 0.953834
vt -19.45602 0.9517932
vt -19.4539 0.9578252
vt -19.45227 0.9556602
vt -19.45922 0.9446438
vt -19.45393 0.9500987
vt -19.45005 0.9540915
vt -19.45842 0.9438713
vt -19.45272 0.9497406
vt -19.46412 0.938002
vt -19.47001 0.9373627
vt -19.47223 0.9389329
vt -19.46836 0.9429257
vt -19.46626 0.9412297
vt -19.46838 0.9351977
vt -19.46451 0.9391904
vt -19.46307 0.9483791
vt -19.46386 0.9491531
vt -19.46956 0.9432838
vt -19.46114 0.9465114
vt -19.45922 0.9446438
vt -19.46412 0.938002
vt -19.34936 0.9260673
vt -19.34727 0.9277632
vt -19.3434 0.9237707
vt -19.34561 0.9222006
vt -19.35112 0.9240282
vt -19.34725 0.9200356
vt -19.35721 0.9287088
vt -19.35151 0.9228399
vt -19.35641 0.9294813
vt -19.3629 0.9345777
vt -19.7113 0.1641748
vt -19.71383 0.158251
vt -19.7149 0.1591539
vt -19.70996 0.1636525
vt -19.70998 0.1710322
vt -19.70853 0.1710322
vt -19.70853 0.2227632
vt -19.70998 0.2227632
vt -19.7113 0.2296219
vt -19.70996 0.2301429
vt -19.7149 0.2346414
vt -19.71383 0.2355444
vt -19.46307 0.9483791
vt -19.46386 0.9491531
vt -19.45818 0.9550223
vt -19.45778 0.953834
vt -19.75087 0.2336658
vt -19.74816 0.2403218
vt -19.74694 0.2393015
vt -19.75237 0.2342479
vt -19.7523 0.2259594
vt -19.75393 0.2259594
vt -19.75393 0.1678495
vt -19.75001 0.2259594
vt -19.74862 0.2334197
vt -19.7523 0.1678495
vt -19.7484 0.2259594
vt -19.74696 0.2336658
vt -19.75001 0.1678495
vt -19.7484 0.1678495
vt -19.74696 0.1601431
vt -19.74862 0.1603892
vt -19.75087 0.1601431
vt -19.75237 0.1595609
vt -19.74694 0.1545073
vt -19.74816 0.153487
vt -19.75237 0.1595609
vt -19.75087 0.1601431
vt -19.35785 0.9386708
vt -19.35745 0.9398591
vt -19.35176 0.9339902
vt -19.35256 0.9332162
vt -19.34607 0.9281213
vt -19.34727 0.9277632
vt -19.3596 0.9366302
vt -19.36336 0.9404969
vt -19.36557 0.9389283
vt -19.3617 0.9349358
vt -19.35448 0.9313487
vt -19.34936 0.9260673
vt -19.35641 0.9294813
vt -19.3629 0.9345777
vt -19.35112 0.9240282
vt -19.97418 0.1640491
vt -19.97266 0.1634601
vt -19.9772 0.1569576
vt -19.97263 0.1723485
vt -19.97101 0.1723485
vt -19.97042 0.1632197
vt -19.97101 0.2305344
vt -19.97263 0.2305344
vt -19.97418 0.2388338
vt -19.96872 0.1723485
vt -19.96875 0.1634601
vt -19.9671 0.1723485
vt -19.9671 0.2305344
vt -19.96872 0.2305344
vt -19.97266 0.2394228
vt -19.97841 0.2449156
vt -19.9772 0.2459313
vt -19.97042 0.2396632
vt -19.96875 0.2394228
vt -19.11935 0.9395692
vt -19.12624 0.9450765
vt -19.12504 0.9454359
vt -19.12015 0.9387955
vt -19.11366 0.9337025
vt -19.11406 0.9325147
vt -19.12833 0.9433827
vt -19.12207 0.9369287
vt -19.13291 0.9481059
vt -19.1307 0.9496754
vt -19.13455 0.9459418
vt -19.13009 0.9413443
vt -19.11581 0.9304762
vt -19.10959 0.9279156
vt -19.11123 0.9257515
vt -19.1179 0.928781
vt -19.124 0.9350619
vt -19.13049 0.9401565
vt -19.1248 0.9342898
vt -19.92485 0.2348098
vt -19.92204 0.2411374
vt -19.92097 0.2402288
vt -19.92621 0.2353324
vt -19.92628 0.2274061
vt -19.92773 0.2274061
vt -19.92773 0.1755071
vt -19.92628 0.1755071
vt -19.92485 0.1681034
vt -19.92621 0.1675822
vt -19.92097 0.1626844
vt -19.92204 0.1617785
vt -19.24416 0.9396977
vt -19.24944 0.9326597
vt -19.24984 0.9338448
vt -19.24336 0.938926
vt -19.24769 0.9306262
vt -19.25225 0.9259125
vt -19.25389 0.9280716
vt -19.25005 0.9243481
vt -19.2456 0.9289349
vt -19.24144 0.9370635
vt -19.23848 0.9455507
vt -19.24336 0.938926
vt -19.24416 0.9396977
vt -19.23729 0.9451921
vt -19.24144 0.9370635
vt -19.24769 0.9306262
vt -19.2352 0.9435023
vt -19.23283 0.9497803
vt -19.23952 0.935201
vt -19.2456 0.9289349
vt -19.24441 0.9285777
vt -19.23873 0.9344307
vt -19.23344 0.9414687
vt -19.23063 0.9482145
vt -19.23305 0.9402837
vt -19.87017 0.2305519
vt -19.87349 0.2396839
vt -19.87183 0.2394405
vt -19.87179 0.2305519
vt -19.87574 0.2394405
vt -19.87179 0.172361
vt -19.87017 0.172361
vt -19.87183 0.1634753
vt -19.87349 0.1632319
vt -19.87408 0.172361
vt -19.87574 0.1634753
vt -19.87408 0.2305519
vt -19.87571 0.172361
vt -19.87726 0.1640613
vt -19.88026 0.1569696
vt -19.88148 0.1579853
vt -19.87571 0.2305519
vt -19.87726 0.2388545
vt -19.88148 0.2449306
vt -19.88026 0.2459462
vt -19.82947 0.1675866
vt -19.82812 0.1681064
vt -19.82422 0.1626934
vt -19.8253 0.1617824
vt -19.83099 0.1755131
vt -19.82812 0.1681064
vt -19.82947 0.1675866
vt -19.82954 0.1755131
vt -19.82954 0.2274027
vt -19.83099 0.2274027
vt -19.82947 0.2353293
vt -19.82812 0.2348094
vt -19.8253 0.2411335
vt -19.82422 0.2402278
vt -19.82812 0.2348094
vt -19.82947 0.2353293
vt -19.79072 0.1595372
vt -19.7892 0.1601228
vt -19.78527 0.1544809
vt -19.78649 0.153466
vt -19.67161 0.2302887
vt -19.67659 0.2348064
vt -19.67551 0.2357186
vt -19.67297 0.2297682
vt -19.67019 0.2228789
vt -19.67164 0.2228789
vt -19.67164 0.17093
vt -19.67019 0.17093
vt -19.67161 0.1635202
vt -19.67297 0.1640406
vt -19.67551 0.1580903
vt -19.67659 0.1590024
vt -19.21461 0.5131428
vt -19.23082 0.5412235
vt -19.20274 0.5250108
vt -19.23082 0.5087981
vt -19.1984 0.5412235
vt -19.24703 0.5131428
vt -19.20274 0.5574309
vt -19.25889 0.5250108
vt -19.21461 0.5692989
vt -19.26324 0.5412235
vt -19.23082 0.5736436
vt -19.25889 0.5574309
vt -19.24703 0.5692989
vt -29.3633 0.4926815
vt -29.35329 0.4843763
vt -29.35752 0.4782984
vt -29.35174 0.4926815
vt -29.3633 0.4760734
vt -29.36908 0.4782984
vt -29.37331 0.4843763
vt -29.35174 0.5539032
vt -29.3633 0.5539032
vt -29.35329 0.5622083
vt -29.37486 0.4926815
vt -29.35752 0.5682883
vt -29.37486 0.5539032
vt -29.3633 0.5705113
vt -29.37331 0.5622083
vt -29.36908 0.5682883
usemtl Sink3_Primary_Mat
f 3/3/3 2/2/2 1/1/1
f 4/4/4 3/3/3 1/1/1
f 3/3/3 4/4/4 5/5/5
f 6/6/6 3/3/3 5/5/5
f 6/6/6 5/5/5 7/7/7
f 5/5/5 8/8/8 7/7/7
f 9/9/9 7/7/7 8/8/8
f 10/10/10 9/9/9 8/8/8
f 13/13/13 12/12/12 11/11/11
f 12/12/12 14/14/14 11/11/11
f 12/12/12 15/15/15 14/14/14
f 15/15/15 16/16/16 14/14/14
f 15/15/15 17/17/17 16/16/16
f 17/17/17 18/18/18 16/16/16
f 18/18/18 17/17/17 19/19/19
f 17/17/17 20/20/20 19/19/19
f 23/23/23 22/22/22 21/21/21
f 22/22/22 24/24/24 21/21/21
f 22/22/22 25/25/25 24/24/24
f 22/22/22 26/26/26 25/25/25
f 26/26/26 27/27/27 25/25/25
f 26/26/26 28/28/28 27/27/27
f 28/28/28 29/29/29 27/27/27
f 28/28/28 30/30/30 29/29/29
f 25/25/25 31/31/31 24/24/24
f 25/25/25 27/27/27 32/32/32
f 25/25/25 32/32/32 31/31/31
f 33/33/33 27/27/27 29/29/29
f 27/27/27 33/33/33 32/32/32
f 31/31/31 34/34/34 24/24/24
f 34/34/34 35/35/35 24/24/24
f 35/35/35 34/34/34 36/36/36
f 34/34/34 37/37/37 36/36/36
f 36/36/36 37/37/37 38/38/38
f 39/39/39 34/34/34 31/31/31
f 34/34/34 39/39/39 37/37/37
f 32/32/32 40/40/40 31/31/31
f 40/40/40 39/39/39 31/31/31
f 32/32/32 33/33/33 41/41/41
f 32/32/32 41/41/41 40/40/40
f 37/37/37 42/42/42 38/38/38
f 38/38/38 42/42/42 43/43/43
f 44/44/44 39/39/39 40/40/40
f 39/39/39 45/45/45 37/37/37
f 39/39/39 44/44/44 45/45/45
f 41/41/41 46/46/46 40/40/40
f 46/46/46 44/44/44 40/40/40
f 47/47/47 42/42/42 37/37/37
f 45/45/45 47/47/47 37/37/37
f 42/42/42 48/48/48 43/43/43
f 47/47/47 49/49/49 42/42/42
f 49/49/49 48/48/48 42/42/42
f 48/48/48 50/50/50 43/43/43
f 50/50/50 51/51/51 43/43/43
f 49/49/49 52/52/52 48/48/48
f 52/52/52 50/50/50 48/48/48
f 53/53/53 47/47/47 45/45/45
f 54/54/54 49/49/49 47/47/47
f 53/53/53 54/54/54 47/47/47
f 54/54/54 55/55/55 49/49/49
f 55/55/55 52/52/52 49/49/49
f 44/44/44 56/56/56 45/45/45
f 56/56/56 53/53/53 45/45/45
f 57/57/57 54/54/54 53/53/53
f 55/55/55 54/54/54 57/57/57
f 58/58/58 53/53/53 56/56/56
f 58/58/58 57/57/57 53/53/53
f 59/59/59 56/56/56 44/44/44
f 59/59/59 58/58/58 56/56/56
f 60/60/60 59/59/59 44/44/44
f 60/60/60 44/44/44 46/46/46
f 61/61/61 50/50/50 52/52/52
f 62/62/62 52/52/52 55/55/55
f 62/62/62 61/61/61 52/52/52
f 61/61/61 63/63/63 50/50/50
f 63/63/63 51/51/51 50/50/50
f 63/63/63 64/64/64 51/51/51
f 64/64/64 65/65/65 51/51/51
f 64/64/64 63/63/63 66/66/66
f 67/67/67 64/64/64 66/66/66
f 66/66/66 63/63/63 68/68/68
f 63/63/63 61/61/61 68/68/68
f 30/30/30 66/66/66 68/68/68
f 68/68/68 61/61/61 69/69/69
f 61/61/61 62/62/62 69/69/69
f 70/70/70 30/30/30 68/68/68
f 70/70/70 68/68/68 69/69/69
f 30/30/30 70/70/70 29/29/29
f 71/71/71 70/70/70 69/69/69
f 29/29/29 70/70/70 71/71/71
f 69/69/69 62/62/62 72/72/72
f 71/71/71 69/69/69 72/72/72
f 73/73/73 29/29/29 71/71/71
f 73/73/73 33/33/33 29/29/29
f 62/62/62 74/74/74 72/72/72
f 74/74/74 62/62/62 55/55/55
f 73/73/73 71/71/71 75/75/75
f 75/75/75 71/71/71 72/72/72
f 76/76/76 33/33/33 73/73/73
f 33/33/33 76/76/76 41/41/41
f 77/77/77 73/73/73 75/75/75
f 77/77/77 76/76/76 73/73/73
f 78/78/78 75/75/75 72/72/72
f 77/77/77 75/75/75 78/78/78
f 76/76/76 79/79/79 41/41/41
f 79/79/79 76/76/76 77/77/77
f 74/74/74 55/55/55 80/80/80
f 80/80/80 55/55/55 57/57/57
f 72/72/72 74/74/74 81/81/81
f 81/81/81 78/78/78 72/72/72
f 82/82/82 77/77/77 78/78/78
f 82/82/82 79/79/79 77/77/77
f 79/79/79 83/83/83 41/41/41
f 41/41/41 83/83/83 46/46/46
f 80/80/80 57/57/57 84/84/84
f 84/84/84 57/57/57 58/58/58
f 85/85/85 74/74/74 80/80/80
f 74/74/74 85/85/85 81/81/81
f 86/86/86 78/78/78 81/81/81
f 82/82/82 78/78/78 86/86/86
f 87/87/87 79/79/79 82/82/82
f 79/79/79 87/87/87 83/83/83
f 83/83/83 88/88/88 46/46/46
f 88/88/88 60/60/60 46/46/46
f 89/89/89 84/84/84 58/58/58
f 89/89/89 58/58/58 59/59/59
f 90/90/90 59/59/59 60/60/60
f 90/90/90 89/89/89 59/59/59
f 91/91/91 86/86/86 81/81/81
f 81/81/81 85/85/85 91/91/91
f 92/92/92 82/82/82 86/86/86
f 92/92/92 87/87/87 82/82/82
f 87/87/87 93/93/93 83/83/83
f 83/83/83 93/93/93 88/88/88
f 94/94/94 60/60/60 88/88/88
f 94/94/94 90/90/90 60/60/60
f 95/95/95 86/86/86 91/91/91
f 92/92/92 86/86/86 95/95/95
f 96/96/96 87/87/87 92/92/92
f 87/87/87 96/96/96 93/93/93
f 93/93/93 97/97/97 88/88/88
f 97/97/97 94/94/94 88/88/88
f 98/98/98 92/92/92 95/95/95
f 98/98/98 96/96/96 92/92/92
f 96/96/96 99/99/99 93/93/93
f 93/93/93 99/99/99 97/97/97
f 99/99/99 96/96/96 100/100/100
f 96/96/96 101/101/101 100/100/100
f 101/101/101 96/96/96 98/98/98
f 99/99/99 100/100/100 102/102/102
f 99/99/99 102/102/102 97/97/97
f 101/101/101 103/103/103 100/100/100
f 103/103/103 101/101/101 98/98/98
f 104/104/104 94/94/94 97/97/97
f 102/102/102 104/104/104 97/97/97
f 103/103/103 98/98/98 105/105/105
f 98/98/98 95/95/95 105/105/105
f 105/105/105 95/95/95 106/106/106
f 103/103/103 105/105/105 107/107/107
f 103/103/103 107/107/107 100/100/100
f 105/105/105 106/106/106 107/107/107
f 104/104/104 108/108/108 94/94/94
f 108/108/108 90/90/90 94/94/94
f 109/109/109 104/104/104 102/102/102
f 104/104/104 109/109/109 108/108/108
f 110/110/110 109/109/109 102/102/102
f 100/100/100 110/110/110 102/102/102
f 109/109/109 110/110/110 111/111/111
f 110/110/110 112/112/112 111/111/111
f 112/112/112 110/110/110 100/100/100
f 113/113/113 112/112/112 100/100/100
f 109/109/109 111/111/111 114/114/114
f 115/115/115 113/113/113 100/100/100
f 116/116/116 100/100/100 107/107/107
f 116/116/116 115/115/115 100/100/100
f 117/117/117 116/116/116 107/107/107
f 116/116/116 117/117/117 115/115/115
f 117/117/117 107/107/107 106/106/106
f 108/108/108 118/118/118 90/90/90
f 118/118/118 89/89/89 90/90/90
f 119/119/119 109/109/109 114/114/114
f 119/119/119 114/114/114 120/120/120
f 121/121/121 119/119/119 120/120/120
f 119/119/119 121/121/121 109/109/109
f 121/121/121 120/120/120 122/122/122
f 123/123/123 121/121/121 122/122/122
f 123/123/123 122/122/122 124/124/124
f 125/125/125 121/121/121 123/123/123
f 121/121/121 125/125/125 109/109/109
f 126/126/126 123/123/123 124/124/124
f 126/126/126 125/125/125 123/123/123
f 126/126/126 124/124/124 127/127/127
f 124/124/124 128/128/128 127/127/127
f 118/118/118 129/129/129 89/89/89
f 129/129/129 84/84/84 89/89/89
f 130/130/130 84/84/84 129/129/129
f 130/130/130 80/80/80 84/84/84
f 85/85/85 80/80/80 130/130/130
f 131/131/131 85/85/85 130/130/130
f 85/85/85 131/131/131 91/91/91
f 131/131/131 130/130/130 132/132/132
f 91/91/91 131/131/131 132/132/132
f 133/133/133 130/130/130 129/129/129
f 130/130/130 133/133/133 132/132/132
f 126/126/126 133/133/133 129/129/129
f 133/133/133 126/126/126 127/127/127
f 132/132/132 133/133/133 127/127/127
f 134/134/134 91/91/91 132/132/132
f 134/134/134 132/132/132 127/127/127
f 134/134/134 95/95/95 91/91/91
f 95/95/95 134/134/134 106/106/106
f 106/106/106 134/134/134 127/127/127
f 135/135/135 126/126/126 129/129/129
f 135/135/135 129/129/129 118/118/118
f 125/125/125 126/126/126 135/135/135
f 136/136/136 135/135/135 118/118/118
f 136/136/136 125/125/125 135/135/135
f 136/136/136 118/118/118 108/108/108
f 109/109/109 125/125/125 136/136/136
f 109/109/109 137/137/137 108/108/108
f 137/137/137 136/136/136 108/108/108
f 137/137/137 109/109/109 136/136/136
f 106/106/106 127/127/127 138/138/138
f 127/127/127 128/128/128 138/138/138
f 139/139/139 106/106/106 138/138/138
f 139/139/139 117/117/117 106/106/106
f 140/140/140 139/139/139 138/138/138
f 139/139/139 140/140/140 141/141/141
f 117/117/117 139/139/139 141/141/141
f 117/117/117 141/141/141 115/115/115
f 128/128/128 142/142/142 138/138/138
f 143/143/143 142/142/142 128/128/128
f 144/144/144 143/143/143 128/128/128
f 145/145/145 143/143/143 144/144/144
f 146/146/146 145/145/145 144/144/144
f 147/147/147 145/145/145 146/146/146
f 148/148/148 147/147/147 146/146/146
f 149/149/149 147/147/147 148/148/148
f 150/150/150 149/149/149 148/148/148
f 151/151/151 149/149/149 150/150/150
f 152/152/152 151/151/151 150/150/150
f 153/153/153 151/151/151 152/152/152
f 154/154/154 153/153/153 152/152/152
f 155/155/155 153/153/153 154/154/154
f 156/156/156 155/155/155 154/154/154
f 157/157/157 155/155/155 156/156/156
f 115/115/115 157/157/157 156/156/156
f 158/158/158 157/157/157 115/115/115
f 141/141/141 158/158/158 115/115/115
f 157/157/157 158/158/158 159/159/159
f 160/160/160 158/158/158 141/141/141
f 158/158/158 161/161/161 159/159/159
f 162/162/162 160/160/160 141/141/141
f 161/161/161 163/163/163 159/159/159
f 163/163/163 160/160/160 162/162/162
f 163/163/163 142/142/142 159/159/159
f 138/138/138 163/163/163 162/162/162
f 142/142/142 163/163/163 138/138/138
f 165/165/165 164/164/164 159/159/159
f 166/166/166 165/165/165 159/159/159
f 167/167/167 166/166/166 159/159/159
f 168/168/168 167/167/167 159/159/159
f 169/169/169 168/168/168 159/159/159
f 170/170/170 169/169/169 159/159/159
f 171/171/171 170/170/170 159/159/159
f 172/172/172 171/171/171 159/159/159
f 175/175/175 174/174/174 173/173/173
f 176/176/176 175/175/175 173/173/173
f 179/179/179 178/178/178 177/177/177
f 180/180/180 179/179/179 177/177/177
f 180/180/180 177/177/177 181/181/181
f 182/182/182 180/180/180 181/181/181
f 182/182/182 181/181/181 183/183/183
f 184/184/184 182/182/182 183/183/183
f 184/184/184 183/183/183 185/185/185
f 186/186/186 184/184/184 185/185/185
f 189/189/189 188/188/188 187/187/187
f 188/188/188 190/190/190 187/187/187
f 187/187/187 190/190/190 191/191/191
f 190/190/190 192/192/192 191/191/191
f 191/191/191 192/192/192 193/193/193
f 192/192/192 194/194/194 193/193/193
f 194/194/194 195/195/195 193/193/193
f 195/195/195 196/196/196 193/193/193
f 199/199/199 198/198/198 197/197/197
f 198/198/198 200/200/200 197/197/197
f 200/200/200 201/201/201 197/197/197
f 201/201/201 202/202/202 197/197/197
f 205/205/205 204/204/204 203/203/203
f 204/204/204 206/206/206 203/203/203
f 206/206/206 207/207/207 203/203/203
f 207/207/207 208/208/208 203/203/203
f 211/211/211 210/210/210 209/209/209
f 209/209/209 210/210/210 212/212/212
f 210/210/210 213/213/213 212/212/212
f 212/212/212 213/213/213 214/214/214
f 213/213/213 215/215/215 214/214/214
f 214/214/214 215/215/215 216/216/216
f 219/219/219 218/218/218 217/217/217
f 220/220/220 218/218/218 219/219/219
f 221/221/221 220/220/220 219/219/219
f 222/222/222 220/220/220 221/221/221
f 223/223/223 222/222/222 221/221/221
f 224/224/224 222/222/222 223/223/223
f 227/227/227 226/226/226 225/225/225
f 226/226/226 228/228/228 225/225/225
f 225/225/225 228/228/228 229/229/229
f 228/228/228 226/226/226 230/230/230
f 228/228/228 231/231/231 229/229/229
f 232/232/232 228/228/228 230/230/230
f 231/231/231 228/228/228 232/232/232
f 232/232/232 230/230/230 233/233/233
f 234/234/234 231/231/231 232/232/232
f 235/235/235 232/232/232 233/233/233
f 234/234/234 232/232/232 235/235/235
f 235/235/235 233/233/233 236/236/236
f 237/237/237 234/234/234 235/235/235
f 238/238/238 235/235/235 236/236/236
f 237/237/237 235/235/235 238/238/238
f 239/239/239 237/237/237 238/238/238
usemtl Sink1_Secondary_Mat
f 242/242/242 241/241/241 240/240/240
f 245/245/245 244/244/244 243/243/243
f 248/248/248 247/247/247 246/246/246
f 251/251/251 250/250/250 249/249/249
f 254/254/254 253/253/253 252/252/252
f 257/257/257 256/256/256 255/255/255
f 259/259/259 258/258/258 256/256/256
f 262/262/262 261/261/261 260/260/260
f 264/264/264 263/263/263 262/262/262
f 267/267/267 266/266/266 265/265/265
f 266/266/266 268/268/268 265/265/265
f 265/265/265 268/268/268 269/269/269
f 268/268/268 270/270/270 269/269/269
f 268/268/268 271/271/271 270/270/270
f 271/271/271 272/272/272 270/270/270
f 275/275/275 274/274/274 273/273/273
f 274/274/274 276/276/276 273/273/273
f 273/273/273 276/276/276 277/277/277
f 274/274/274 278/278/278 276/276/276
f 276/276/276 279/279/279 277/277/277
f 278/278/278 280/280/280 276/276/276
f 276/276/276 280/280/280 279/279/279
f 280/280/280 281/281/281 279/279/279
f 284/284/284 283/283/283 282/282/282
f 285/285/285 284/284/284 282/282/282
f 286/286/286 284/284/284 285/285/285
f 287/287/287 286/286/286 285/285/285
f 286/286/286 288/288/288 284/284/284
f 291/291/291 290/290/290 289/289/289
f 290/290/290 292/292/292 289/289/289
f 289/289/289 292/292/292 293/293/293
f 292/292/292 294/294/294 293/293/293
f 292/292/292 295/295/295 294/294/294
f 295/295/295 296/296/296 294/294/294
f 299/299/299 298/298/298 297/297/297
f 300/300/300 299/299/299 297/297/297
f 301/301/301 299/299/299 300/300/300
f 302/302/302 301/301/301 300/300/300
f 305/305/305 304/304/304 303/303/303
f 306/306/306 305/305/305 303/303/303
f 307/307/307 305/305/305 306/306/306
f 308/308/308 307/307/307 306/306/306
f 307/307/307 309/309/309 305/305/305
f 309/309/309 310/310/310 305/305/305
f 313/313/313 312/312/312 311/311/311
f 312/312/312 314/314/314 311/311/311
f 314/314/314 312/312/312 315/315/315
f 315/315/315 316/316/316 314/314/314
f 316/316/316 317/317/317 314/314/314
f 312/312/312 318/318/318 315/315/315
f 312/312/312 319/319/319 318/318/318
f 317/317/317 316/316/316 320/320/320
f 321/321/321 317/317/317 320/320/320
f 316/316/316 315/315/315 322/322/322
f 315/315/315 318/318/318 322/322/322
f 320/320/320 316/316/316 322/322/322
f 318/318/318 323/323/323 322/322/322
f 319/319/319 323/323/323 318/318/318
f 324/324/324 320/320/320 322/322/322
f 321/321/321 320/320/320 324/324/324
f 319/319/319 325/325/325 323/323/323
f 326/326/326 321/321/321 324/324/324
f 325/325/325 327/327/327 323/323/323
f 323/323/323 327/327/327 322/322/322
f 325/325/325 328/328/328 327/327/327
f 328/328/328 325/325/325 329/329/329
f 330/330/330 328/328/328 329/329/329
f 328/328/328 331/331/331 327/327/327
f 327/327/327 331/331/331 322/322/322
f 328/328/328 332/332/332 331/331/331
f 332/332/332 333/333/333 331/331/331
f 331/331/331 333/333/333 322/322/322
f 332/332/332 334/334/334 333/333/333
f 334/334/334 335/335/335 333/333/333
f 333/333/333 335/335/335 322/322/322
f 334/334/334 336/336/336 335/335/335
f 336/336/336 337/337/337 335/335/335
f 335/335/335 337/337/337 322/322/322
f 336/336/336 338/338/338 337/337/337
f 337/337/337 339/339/339 322/322/322
f 338/338/338 339/339/339 337/337/337
f 339/339/339 324/324/324 322/322/322
f 326/326/326 324/324/324 339/339/339
f 338/338/338 326/326/326 339/339/339
f 326/326/326 338/338/338 340/340/340
f 341/341/341 326/326/326 340/340/340
f 344/344/344 343/343/343 342/342/342
f 345/345/345 344/344/344 342/342/342
f 348/348/348 347/347/347 346/346/346
f 349/349/349 348/348/348 346/346/346
f 352/352/352 351/351/351 350/350/350
f 353/353/353 352/352/352 350/350/350
f 356/356/356 355/355/355 354/354/354
f 357/357/357 356/356/356 354/354/354
f 358/358/358 356/356/356 357/357/357
f 359/359/359 358/358/358 357/357/357
f 362/362/362 361/361/361 360/360/360
f 361/361/361 363/363/363 360/360/360
f 360/360/360 363/363/363 364/364/364
f 363/363/363 365/365/365 364/364/364
f 368/368/368 367/367/367 366/366/366
f 367/367/367 369/369/369 366/366/366
f 366/366/366 369/369/369 370/370/370
f 369/369/369 371/371/371 370/370/370
f 374/374/374 373/373/373 372/372/372
f 375/375/375 374/374/374 372/372/372
f 378/378/378 377/377/377 376/376/376
f 379/379/379 378/378/378 376/376/376
f 376/376/376 380/380/380 379/379/379
f 380/380/380 381/381/381 379/379/379
f 382/382/382 380/380/380 376/376/376
f 385/385/385 384/384/384 383/383/383
f 383/383/383 386/386/386 385/385/385
f 389/389/389 388/388/388 387/387/387
f 388/388/388 390/390/390 387/387/387
f 387/387/387 390/390/390 391/391/391
f 390/390/390 392/392/392 391/391/391
f 395/395/395 394/394/394 393/393/393
f 396/396/396 395/395/395 393/393/393
f 393/393/393 397/397/397 396/396/396
f 398/398/398 395/395/395 396/396/396
f 397/397/397 399/399/399 396/396/396
f 400/400/400 398/398/398 396/396/396
f 396/396/396 399/399/399 400/400/400
f 399/399/399 401/401/401 400/400/400
f 404/404/404 403/403/403 402/402/402
f 405/405/405 404/404/404 402/402/402
f 408/408/408 407/407/407 406/406/406
f 409/409/409 408/408/408 406/406/406
f 412/412/412 411/411/411 410/410/410
f 413/413/413 412/412/412 410/410/410
f 414/414/414 412/412/412 413/413/413
f 415/415/415 414/414/414 413/413/413
f 413/413/413 416/416/416 415/415/415
f 417/417/417 414/414/414 415/415/415
f 416/416/416 418/418/418 415/415/415
f 419/419/419 417/417/417 415/415/415
f 415/415/415 418/418/418 419/419/419
f 418/418/418 420/420/420 419/419/419
f 423/423/423 422/422/422 421/421/421
f 422/422/422 424/424/424 421/421/421
f 421/421/421 424/424/424 425/425/425
f 424/424/424 426/426/426 425/425/425
f 429/429/429 428/428/428 427/427/427
f 430/430/430 429/429/429 427/427/427
f 431/431/431 429/429/429 430/430/430
f 432/432/432 431/431/431 430/430/430
f 433/433/433 431/431/431 432/432/432
f 434/434/434 433/433/433 432/432/432
f 437/437/437 436/436/436 435/435/435
f 436/436/436 438/438/438 435/435/435
f 435/435/435 438/438/438 439/439/439
f 438/438/438 440/440/440 439/439/439
f 439/439/439 440/440/440 441/441/441
f 444/444/444 443/443/443 442/442/442
f 443/443/443 445/445/445 442/442/442
f 442/442/442 445/445/445 446/446/446
f 445/445/445 447/447/447 446/446/446
f 450/450/450 449/449/449 448/448/448
f 449/449/449 451/451/451 448/448/448
f 448/448/448 451/451/451 452/452/452
f 451/451/451 453/453/453 452/452/452
f 456/456/456 455/455/455 454/454/454
f 455/455/455 457/457/457 454/454/454
f 454/454/454 457/457/457 458/458/458
f 457/457/457 459/459/459 458/458/458
f 458/458/458 459/459/459 460/460/460
f 459/459/459 461/461/461 460/460/460
f 464/464/464 463/463/463 462/462/462
f 463/463/463 465/465/465 462/462/462
f 462/462/462 465/465/465 466/466/466
f 465/465/465 467/467/467 466/466/466
f 470/470/470 469/469/469 468/468/468
f 469/469/469 471/471/471 468/468/468
f 468/468/468 471/471/471 472/472/472
f 471/471/471 473/473/473 472/472/472
f 476/476/476 475/475/475 474/474/474
f 475/475/475 477/477/477 474/474/474
f 474/474/474 477/477/477 478/478/478
f 477/477/477 479/479/479 478/478/478
f 478/478/478 479/479/479 480/480/480
f 479/479/479 481/481/481 480/480/480
f 484/484/484 483/483/483 482/482/482
f 485/485/485 484/484/484 482/482/482
f 488/488/488 487/487/487 486/486/486
f 489/489/489 488/488/488 486/486/486
f 492/492/492 491/491/491 490/490/490
f 493/493/493 492/492/492 490/490/490
f 494/494/494 492/492/492 493/493/493
f 495/495/495 494/494/494 493/493/493
f 498/498/498 497/497/497 496/496/496
f 499/499/499 498/498/498 496/496/496
f 500/500/500 498/498/498 499/499/499
f 501/501/501 500/500/500 499/499/499
f 504/504/504 503/503/503 502/502/502
f 505/505/505 504/504/504 502/502/502
f 506/506/506 504/504/504 505/505/505
f 507/507/507 506/506/506 505/505/505
f 510/510/510 509/509/509 508/508/508
f 511/511/511 510/510/510 508/508/508
f 511/511/511 508/508/508 512/512/512
f 510/510/510 511/511/511 513/513/513
f 514/514/514 510/510/510 513/513/513
f 515/515/515 514/514/514 513/513/513
f 516/516/516 515/515/515 513/513/513
f 516/516/516 513/513/513 517/517/517
f 513/513/513 511/511/511 517/517/517
f 518/518/518 516/516/516 517/517/517
f 511/511/511 519/519/519 517/517/517
f 519/519/519 511/511/511 512/512/512
f 518/518/518 517/517/517 520/520/520
f 517/517/517 519/519/519 520/520/520
f 521/521/521 518/518/518 520/520/520
f 519/519/519 522/522/522 520/520/520
f 522/522/522 519/519/519 523/523/523
f 519/519/519 512/512/512 523/523/523
f 523/523/523 512/512/512 524/524/524
f 512/512/512 525/525/525 524/524/524
f 528/528/528 527/527/527 526/526/526
f 529/529/529 528/528/528 526/526/526
f 530/530/530 528/528/528 529/529/529
f 531/531/531 530/530/530 529/529/529
f 529/529/529 526/526/526 532/532/532
f 531/531/531 529/529/529 533/533/533
f 533/533/533 529/529/529 532/532/532
f 534/534/534 531/531/531 533/533/533
f 533/533/533 532/532/532 535/535/535
f 536/536/536 533/533/533 535/535/535
f 535/535/535 532/532/532 537/537/537
f 540/540/540 539/539/539 538/538/538
f 541/541/541 540/540/540 538/538/538
f 541/541/541 538/538/538 542/542/542
f 543/543/543 541/541/541 542/542/542
f 544/544/544 540/540/540 541/541/541
f 544/544/544 545/545/545 540/540/540
f 545/545/545 546/546/546 540/540/540
f 547/547/547 544/544/544 541/541/541
f 547/547/547 541/541/541 543/543/543
f 548/548/548 547/547/547 543/543/543
f 548/548/548 543/543/543 549/549/549
f 552/552/552 551/551/551 550/550/550
f 553/553/553 552/552/552 550/550/550
f 553/553/553 550/550/550 554/554/554
f 555/555/555 553/553/553 554/554/554
f 557/557/557 554/554/554 556/556/556
f 554/554/554 558/558/558 556/556/556
f 556/556/556 558/558/558 559/559/559
f 562/562/562 561/561/561 560/560/560
f 561/561/561 563/563/563 560/560/560
f 560/560/560 563/563/563 564/564/564
f 563/563/563 565/565/565 564/564/564
f 565/565/565 566/566/566 564/564/564
f 566/566/566 567/567/567 564/564/564
f 567/567/567 566/566/566 568/568/568
f 566/566/566 569/569/569 568/568/568
f 568/568/568 569/569/569 570/570/570
f 569/569/569 571/571/571 570/570/570
f 574/574/574 573/573/573 572/572/572
f 575/575/575 574/574/574 572/572/572
f 578/578/578 577/577/577 576/576/576
f 577/577/577 579/579/579 576/576/576
f 576/576/576 579/579/579 580/580/580
f 579/579/579 581/581/581 580/580/580
f 580/580/580 581/581/581 582/582/582
f 576/576/576 580/580/580 583/583/583
f 584/584/584 576/576/576 583/583/583
f 585/585/585 580/580/580 582/582/582
f 583/583/583 580/580/580 585/585/585
f 584/584/584 583/583/583 586/586/586
f 587/587/587 584/584/584 586/586/586
f 586/586/586 583/583/583 588/588/588
f 588/588/588 583/583/583 585/585/585
f 589/589/589 586/586/586 588/588/588
f 589/589/589 588/588/588 590/590/590
f 588/588/588 591/591/591 590/590/590
f 588/588/588 585/585/585 591/591/591
f 585/585/585 592/592/592 591/591/591
f 585/585/585 582/582/582 592/592/592
f 582/582/582 593/593/593 592/592/592
f 596/596/596 595/595/595 594/594/594
f 597/597/597 596/596/596 594/594/594
f 600/600/600 599/599/599 598/598/598
f 601/601/601 600/600/600 598/598/598
f 602/602/602 600/600/600 601/601/601
f 603/603/603 602/602/602 601/601/601
f 601/601/601 598/598/598 604/604/604
f 604/604/604 598/598/598 605/605/605
f 604/604/604 605/605/605 606/606/606
f 607/607/607 604/604/604 606/606/606
f 603/603/603 601/601/601 608/608/608
f 608/608/608 601/601/601 604/604/604
f 608/608/608 604/604/604 607/607/607
f 609/609/609 603/603/603 608/608/608
f 610/610/610 608/608/608 607/607/607
f 609/609/609 608/608/608 610/610/610
f 610/610/610 607/607/607 611/611/611
f 612/612/612 609/609/609 610/610/610
f 615/615/615 614/614/614 613/613/613
f 613/613/613 614/614/614 616/616/616
f 614/614/614 617/617/617 616/616/616
f 614/614/614 618/618/618 617/617/617
f 617/617/617 619/619/619 616/616/616
f 619/619/619 620/620/620 616/616/616
f 620/620/620 619/619/619 621/621/621
f 618/618/618 622/622/622 617/617/617
f 618/618/618 623/623/623 622/622/622
f 623/623/623 624/624/624 622/622/622
f 624/624/624 625/625/625 622/622/622
f 622/622/622 626/626/626 617/617/617
f 626/626/626 619/619/619 617/617/617
f 625/625/625 626/626/626 622/622/622
f 619/619/619 627/627/627 621/621/621
f 619/619/619 626/626/626 627/627/627
f 621/621/621 627/627/627 628/628/628
f 627/627/627 629/629/629 628/628/628
f 626/626/626 630/630/630 627/627/627
f 626/626/626 625/625/625 630/630/630
f 625/625/625 631/631/631 630/630/630
f 634/634/634 633/633/633 632/632/632
f 633/633/633 635/635/635 632/632/632
f 632/632/632 635/635/635 636/636/636
f 635/635/635 637/637/637 636/636/636
f 633/633/633 638/638/638 635/635/635
f 635/635/635 639/639/639 637/637/637
f 638/638/638 639/639/639 635/635/635
f 640/640/640 638/638/638 633/633/633
f 641/641/641 640/640/640 633/633/633
f 640/640/640 642/642/642 638/638/638
f 642/642/642 643/643/643 638/638/638
f 638/638/638 643/643/643 639/639/639
f 639/639/639 644/644/644 637/637/637
f 637/637/637 644/644/644 645/645/645
f 644/644/644 646/646/646 645/645/645
f 644/644/644 647/647/647 646/646/646
f 643/643/643 648/648/648 639/639/639
f 639/639/639 648/648/648 644/644/644
f 648/648/648 647/647/647 644/644/644
f 643/643/643 649/649/649 648/648/648
f 648/648/648 650/650/650 647/647/647
f 649/649/649 650/650/650 648/648/648
f 653/653/653 652/652/652 651/651/651
f 652/652/652 654/654/654 651/651/651
f 651/651/651 654/654/654 655/655/655
f 654/654/654 656/656/656 655/655/655
f 655/655/655 656/656/656 657/657/657
f 658/658/658 655/655/655 657/657/657
f 658/658/658 657/657/657 659/659/659
f 657/657/657 660/660/660 659/659/659
f 659/659/659 660/660/660 661/661/661
f 660/660/660 662/662/662 661/661/661
f 665/665/665 664/664/664 663/663/663
f 664/664/664 666/666/666 663/663/663
f 664/664/664 667/667/667 666/666/666
f 668/668/668 667/667/667 664/664/664
f 669/669/669 668/668/668 664/664/664
f 668/668/668 670/670/670 667/667/667
f 670/670/670 671/671/671 667/667/667
f 667/667/667 671/671/671 672/672/672
f 675/675/675 674/674/674 673/673/673
f 674/674/674 676/676/676 673/673/673
f 674/674/674 677/677/677 676/676/676
f 678/678/678 677/677/677 674/674/674
f 677/677/677 679/679/679 676/676/676
f 676/676/676 679/679/679 680/680/680
f 677/677/677 681/681/681 679/679/679
f 682/682/682 681/681/681 677/677/677
f 682/682/682 683/683/683 681/681/681
f 683/683/683 684/684/684 681/681/681
f 681/681/681 685/685/685 679/679/679
f 681/681/681 684/684/684 685/685/685
f 679/679/679 685/685/685 686/686/686
f 684/684/684 687/687/687 685/685/685
f 690/690/690 689/689/689 688/688/688
f 689/689/689 691/691/691 688/688/688
f 689/689/689 692/692/692 691/691/691
f 688/688/688 691/691/691 693/693/693
f 694/694/694 688/688/688 693/693/693
f 694/694/694 693/693/693 695/695/695
f 693/693/693 696/696/696 695/695/695
f 693/693/693 697/697/697 696/696/696
f 693/693/693 691/691/691 697/697/697
f 697/697/697 698/698/698 696/696/696
f 691/691/691 699/699/699 697/697/697
f 692/692/692 699/699/699 691/691/691
f 697/697/697 700/700/700 698/698/698
f 697/697/697 699/699/699 700/700/700
f 700/700/700 701/701/701 698/698/698
f 698/698/698 701/701/701 702/702/702
f 701/701/701 703/703/703 702/702/702
f 699/699/699 704/704/704 700/700/700
f 705/705/705 704/704/704 699/699/699
f 692/692/692 705/705/705 699/699/699
f 706/706/706 705/705/705 692/692/692
f 707/707/707 706/706/706 692/692/692
f 710/710/710 709/709/709 708/708/708
f 711/711/711 710/710/710 708/708/708
f 714/714/714 713/713/713 712/712/712
f 713/713/713 715/715/715 712/712/712
f 715/715/715 716/716/716 712/712/712
f 716/716/716 717/717/717 712/712/712
f 717/717/717 716/716/716 718/718/718
f 716/716/716 719/719/719 718/718/718
f 722/722/722 721/721/721 720/720/720
f 723/723/723 722/722/722 720/720/720
f 726/726/726 725/725/725 724/724/724
f 727/727/727 726/726/726 724/724/724
f 730/730/730 729/729/729 728/728/728
f 729/729/729 731/731/731 728/728/728
f 728/728/728 731/731/731 732/732/732
f 731/731/731 733/733/733 732/732/732
f 732/732/732 733/733/733 734/734/734
f 735/735/735 732/732/732 734/734/734
f 735/735/735 734/734/734 736/736/736
f 734/734/734 737/737/737 736/736/736
f 736/736/736 737/737/737 738/738/738
f 737/737/737 739/739/739 738/738/738
f 742/742/742 741/741/741 740/740/740
f 741/741/741 743/743/743 740/740/740
f 741/741/741 742/742/742 744/744/744
f 743/743/743 741/741/741 745/745/745
f 746/746/746 741/741/741 744/744/744
f 741/741/741 747/747/747 745/745/745
f 741/741/741 746/746/746 748/748/748
f 747/747/747 741/741/741 749/749/749
f 750/750/750 741/741/741 748/748/748
f 741/741/741 751/751/751 749/749/749
f 741/741/741 750/750/750 752/752/752
f 751/751/751 741/741/741 752/752/752
usemtl Sink_Hole_Mat
f 755/755/755 754/754/754 753/753/753
f 754/754/754 756/756/756 753/753/753
f 757/757/757 755/755/755 753/753/753
f 758/758/758 757/757/757 753/753/753
f 759/759/759 758/758/758 753/753/753
f 756/756/756 760/760/760 753/753/753
f 760/760/760 761/761/761 753/753/753
f 760/760/760 762/762/762 761/761/761
f 763/763/763 759/759/759 753/753/753
f 753/753/753 761/761/761 763/763/763
f 762/762/762 764/764/764 761/761/761
f 761/761/761 765/765/765 763/763/763
f 764/764/764 766/766/766 761/761/761
f 767/767/767 765/765/765 761/761/761
f 766/766/766 768/768/768 761/761/761
f 768/768/768 767/767/767 761/761/761
