mtllib Cabinet_bd9c7c59.mtl
g FP402:Door4_01_1b6a4d96
v 0.44715 0.34543 -0.01285
v 0 0.34543 -0.01285
v 0 -0.34543 -0.01261
v 0.44715 -0.34543 -0.01261
v 0.44715 -0.34543 -0.01261
v 0.44715 -0.34542 0.01286
v 0.44715 0.34544 0.01262
v 0.44715 0.34543 -0.01285
v 0.44715 0.34543 -0.01285
v 0.44715 0.34544 0.01262
v 0 0.34544 0.01262
v 0 0.34543 -0.01285
v 0 0.34543 -0.01285
v 0 0.34544 0.01262
v 0 -0.34542 0.01286
v 0 -0.34543 -0.01261
v 0 -0.34543 -0.01261
v 0 -0.34542 0.01286
v 0.44715 -0.34542 0.01286
v 0.44715 -0.34543 -0.01261
v 0.44715 0.34544 0.01262
v 0.44715 -0.34542 0.01286
v 0 -0.34542 0.01286
v 0 0.34544 0.01262
v 0.39713 0.25715 -0.07677
v 0.39713 0.25023 -0.07676
v 0.40415 0.25023 -0.07385
v 0.39713 0.25924 -0.07677
v 0.40415 0.25715 -0.07386
v 0.39713 0.25924 -0.07677
v 0.40415 0.25715 -0.07386
v 0.40415 0.25924 -0.07386
v 0.39713 0.25715 -0.07677
v 0.40415 0.25023 -0.07385
v 0.39713 0.25023 -0.07676
v 0.40415 0.24814 -0.07385
v 0.39713 0.24814 -0.07676
v 0.39713 0.11664 -0.07672
v 0.39713 0.10972 -0.07671
v 0.40415 0.10972 -0.0738
v 0.39713 0.11873 -0.07672
v 0.40415 0.11664 -0.07381
v 0.39713 0.11873 -0.07672
v 0.40415 0.11664 -0.07381
v 0.40415 0.11873 -0.07381
v 0.39713 0.11664 -0.07672
v 0.40415 0.10972 -0.0738
v 0.39713 0.10972 -0.07671
v 0.40415 0.10763 -0.0738
v 0.39713 0.10763 -0.07671
v 0.39713 0.2699 -0.01649
v 0.39713 0.2699 -0.01702
v 0.4072 0.26514 -0.01702
v 0.4072 0.26514 -0.01649
v 0.39713 0.2699 -0.01195
v 0.4072 0.26514 -0.01195
v 0.4072 0.26514 -0.01649
v 0.4072 0.26514 -0.01702
v 0.41138 0.25366 -0.01701
v 0.41138 0.25366 -0.01648
v 0.4072 0.26514 -0.01195
v 0.4072 0.24218 -0.01701
v 0.41138 0.25366 -0.01195
v 0.4072 0.24218 -0.01648
v 0.4072 0.24219 -0.01194
v 0.4072 0.24218 -0.01648
v 0.4072 0.24218 -0.01701
v 0.39713 0.23743 -0.01701
v 0.39713 0.23743 -0.01648
v 0.4072 0.24219 -0.01194
v 0.39713 0.23743 -0.01194
v 0.39713 0.23743 -0.01648
v 0.39713 0.23743 -0.01701
v 0.38705 0.24218 -0.01701
v 0.38705 0.24218 -0.01648
v 0.39713 0.23743 -0.01194
v 0.38705 0.24219 -0.01194
v 0.38705 0.24218 -0.01648
v 0.38705 0.24218 -0.01701
v 0.38288 0.25366 -0.01701
v 0.38288 0.25366 -0.01648
v 0.38705 0.24219 -0.01194
v 0.38288 0.25366 -0.01195
v 0.38288 0.25366 -0.01648
v 0.38288 0.25366 -0.01701
v 0.38705 0.26514 -0.01702
v 0.38705 0.26514 -0.01649
v 0.38288 0.25366 -0.01195
v 0.38705 0.26514 -0.01195
v 0.38705 0.26514 -0.01649
v 0.38705 0.26514 -0.01702
v 0.39713 0.2699 -0.01702
v 0.39713 0.2699 -0.01649
v 0.38705 0.26514 -0.01195
v 0.39713 0.2699 -0.01195
v 0.38705 0.26514 -0.01195
v 0.39713 0.2699 -0.01195
v 0.4072 0.26514 -0.01195
v 0.4072 0.24219 -0.01194
v 0.41138 0.25366 -0.01195
v 0.38705 0.24219 -0.01194
v 0.39713 0.23743 -0.01194
v 0.38288 0.25366 -0.01195
v 0.39713 0.26228 -0.01701
v 0.39178 0.25975 -0.01701
v 0.39178 0.25975 -0.01822
v 0.39713 0.26228 -0.01822
v 0.40247 0.25975 -0.01701
v 0.39178 0.25975 -0.06401
v 0.40247 0.25975 -0.01822
v 0.39713 0.26227 -0.06401
v 0.40247 0.25975 -0.06401
v 0.40247 0.26708 -0.06149
v 0.39713 0.26927 -0.05927
v 0.40247 0.26927 -0.06149
v 0.39713 0.26708 -0.05927
v 0.40247 0.09963 -0.06143
v 0.39713 0.09964 -0.05921
v 0.40247 0.09744 -0.06143
v 0.39713 0.09744 -0.05921
v 0.38956 0.25366 -0.01701
v 0.39178 0.24757 -0.01701
v 0.39178 0.24757 -0.01822
v 0.38956 0.25366 -0.01822
v 0.39178 0.25975 -0.01701
v 0.39178 0.24757 -0.064
v 0.39178 0.25975 -0.01822
v 0.38956 0.25366 -0.064
v 0.39178 0.25975 -0.06401
v 0.39713 0.24505 -0.01822
v 0.40247 0.24757 -0.064
v 0.39713 0.24504 -0.064
v 0.40247 0.24757 -0.01822
v 0.39713 0.24505 -0.01701
v 0.40247 0.24757 -0.01701
v 0.40469 0.25366 -0.01701
v 0.40247 0.25975 -0.01701
v 0.40247 0.25975 -0.01822
v 0.40469 0.25366 -0.01822
v 0.40247 0.24757 -0.01701
v 0.40247 0.25975 -0.06401
v 0.40247 0.24757 -0.01822
v 0.40469 0.25366 -0.064
v 0.40247 0.24757 -0.064
v 0.39178 0.24757 -0.01822
v 0.39713 0.24504 -0.064
v 0.39178 0.24757 -0.064
v 0.39713 0.24505 -0.01822
v 0.39178 0.24757 -0.01701
v 0.39713 0.24505 -0.01701
v 0.40469 0.25366 -0.064
v 0.40247 0.25975 -0.06401
v 0.39713 0.26227 -0.06401
v 0.38956 0.25366 -0.064
v 0.39178 0.25975 -0.06401
v 0.39713 0.24504 -0.064
v 0.39178 0.24757 -0.064
v 0.40247 0.24757 -0.064
v 0.38956 0.26708 -0.06683
v 0.39178 0.26926 -0.07218
v 0.38956 0.26927 -0.06683
v 0.39178 0.26708 -0.07218
v 0.38956 0.09963 -0.06677
v 0.39178 0.09963 -0.07212
v 0.38956 0.09744 -0.06677
v 0.39178 0.09743 -0.07212
v 0.39178 0.26708 -0.07218
v 0.39713 0.26926 -0.0744
v 0.39178 0.26926 -0.07218
v 0.39713 0.26707 -0.07439
v 0.39178 0.09963 -0.07212
v 0.39713 0.09963 -0.07434
v 0.39178 0.09743 -0.07212
v 0.39713 0.09743 -0.07434
v 0.39713 0.26708 -0.05927
v 0.39178 0.26927 -0.06149
v 0.39713 0.26927 -0.05927
v 0.39178 0.26708 -0.06149
v 0.39713 0.09964 -0.05921
v 0.39178 0.09963 -0.06143
v 0.39713 0.09744 -0.05921
v 0.39178 0.09744 -0.06143
v 0.40469 0.26708 -0.06683
v 0.40247 0.26927 -0.06149
v 0.40469 0.26927 -0.06683
v 0.40247 0.26708 -0.06149
v 0.40469 0.09963 -0.06677
v 0.40247 0.09963 -0.06143
v 0.40469 0.09744 -0.06677
v 0.40247 0.09744 -0.06143
v 0.39178 0.26708 -0.06149
v 0.38956 0.26927 -0.06683
v 0.39178 0.26927 -0.06149
v 0.38956 0.26708 -0.06683
v 0.39178 0.09963 -0.06143
v 0.38956 0.09963 -0.06677
v 0.39178 0.09744 -0.06143
v 0.38956 0.09744 -0.06677
v 0.39713 0.26707 -0.07439
v 0.40247 0.26926 -0.07218
v 0.39713 0.26926 -0.0744
v 0.40247 0.26708 -0.07218
v 0.39713 0.09963 -0.07434
v 0.40247 0.09963 -0.07212
v 0.39713 0.09743 -0.07434
v 0.40247 0.09743 -0.07212
v 0.40247 0.26708 -0.07218
v 0.40469 0.26927 -0.06683
v 0.40247 0.26926 -0.07218
v 0.40469 0.26708 -0.06683
v 0.40247 0.09963 -0.07212
v 0.40469 0.09963 -0.06677
v 0.40247 0.09743 -0.07212
v 0.40469 0.09744 -0.06677
v 0.40247 0.26927 -0.06149
v 0.39713 0.26927 -0.05927
v 0.39178 0.26927 -0.06149
v 0.39178 0.26926 -0.07218
v 0.38956 0.26927 -0.06683
v 0.40247 0.26926 -0.07218
v 0.39713 0.26926 -0.0744
v 0.40469 0.26927 -0.06683
v 0.39178 0.09744 -0.06143
v 0.39713 0.09744 -0.05921
v 0.40247 0.09744 -0.06143
v 0.40247 0.09743 -0.07212
v 0.40469 0.09744 -0.06677
v 0.39178 0.09743 -0.07212
v 0.39713 0.09743 -0.07434
v 0.38956 0.09744 -0.06677
v 0.3901 0.25925 -0.0598
v 0.40415 0.25925 -0.0598
v 0.39713 0.25925 -0.05689
v 0.40415 0.25924 -0.07386
v 0.40706 0.25924 -0.06683
v 0.3901 0.25924 -0.07386
v 0.39713 0.25924 -0.07677
v 0.38719 0.25924 -0.06683
v 0.40415 0.24815 -0.0598
v 0.3901 0.24815 -0.0598
v 0.39713 0.24815 -0.05689
v 0.3901 0.24814 -0.07385
v 0.38719 0.24815 -0.06683
v 0.40415 0.24814 -0.07385
v 0.39713 0.24814 -0.07676
v 0.40706 0.24815 -0.06683
v 0.40415 0.25024 -0.0598
v 0.40415 0.24815 -0.0598
v 0.39713 0.24815 -0.05689
v 0.39713 0.25024 -0.05689
v 0.40415 0.25716 -0.0598
v 0.39713 0.25716 -0.05689
v 0.40415 0.25925 -0.0598
v 0.39713 0.25925 -0.05689
v 0.40706 0.25023 -0.06683
v 0.40706 0.24815 -0.06683
v 0.40415 0.24815 -0.0598
v 0.40415 0.25024 -0.0598
v 0.40706 0.25716 -0.06683
v 0.40415 0.25716 -0.0598
v 0.40706 0.25924 -0.06683
v 0.40415 0.25925 -0.0598
v 0.39713 0.25024 -0.05689
v 0.39713 0.24815 -0.05689
v 0.3901 0.24815 -0.0598
v 0.3901 0.25024 -0.0598
v 0.39713 0.25716 -0.05689
v 0.3901 0.25716 -0.0598
v 0.39713 0.25925 -0.05689
v 0.3901 0.25925 -0.0598
v 0.38719 0.25023 -0.06683
v 0.38719 0.24815 -0.06683
v 0.3901 0.24814 -0.07385
v 0.3901 0.25023 -0.07385
v 0.38719 0.25716 -0.06683
v 0.3901 0.25715 -0.07386
v 0.38719 0.25924 -0.06683
v 0.3901 0.25924 -0.07386
v 0.40415 0.25023 -0.07385
v 0.40415 0.24814 -0.07385
v 0.40706 0.24815 -0.06683
v 0.40706 0.25023 -0.06683
v 0.40415 0.25715 -0.07386
v 0.40706 0.25716 -0.06683
v 0.40415 0.25924 -0.07386
v 0.40706 0.25924 -0.06683
v 0.3901 0.25024 -0.0598
v 0.3901 0.24815 -0.0598
v 0.38719 0.24815 -0.06683
v 0.38719 0.25023 -0.06683
v 0.3901 0.25716 -0.0598
v 0.38719 0.25716 -0.06683
v 0.3901 0.25925 -0.0598
v 0.38719 0.25924 -0.06683
v 0.3901 0.25023 -0.07385
v 0.3901 0.24814 -0.07385
v 0.39713 0.24814 -0.07676
v 0.39713 0.25023 -0.07676
v 0.3901 0.25715 -0.07386
v 0.39713 0.25715 -0.07677
v 0.3901 0.25924 -0.07386
v 0.39713 0.25924 -0.07677
v 0.39713 0.12938 -0.01644
v 0.39713 0.12938 -0.01697
v 0.4072 0.12463 -0.01697
v 0.4072 0.12463 -0.01644
v 0.39713 0.12938 -0.01191
v 0.4072 0.12463 -0.0119
v 0.4072 0.12463 -0.01644
v 0.4072 0.12463 -0.01697
v 0.41138 0.11315 -0.01696
v 0.41138 0.11315 -0.01644
v 0.4072 0.12463 -0.0119
v 0.4072 0.10167 -0.01696
v 0.41138 0.11315 -0.0119
v 0.4072 0.10167 -0.01643
v 0.4072 0.10167 -0.0119
v 0.4072 0.10167 -0.01643
v 0.4072 0.10167 -0.01696
v 0.39713 0.09692 -0.01696
v 0.39713 0.09692 -0.01643
v 0.4072 0.10167 -0.0119
v 0.39713 0.09692 -0.0119
v 0.39713 0.09692 -0.01643
v 0.39713 0.09692 -0.01696
v 0.38705 0.10167 -0.01696
v 0.38705 0.10167 -0.01643
v 0.39713 0.09692 -0.0119
v 0.38705 0.10167 -0.0119
v 0.38705 0.10167 -0.01643
v 0.38705 0.10167 -0.01696
v 0.38288 0.11315 -0.01696
v 0.38288 0.11315 -0.01644
v 0.38705 0.10167 -0.0119
v 0.38288 0.11315 -0.0119
v 0.38288 0.11315 -0.01644
v 0.38288 0.11315 -0.01696
v 0.38705 0.12463 -0.01697
v 0.38705 0.12463 -0.01644
v 0.38288 0.11315 -0.0119
v 0.38705 0.12463 -0.0119
v 0.38705 0.12463 -0.01644
v 0.38705 0.12463 -0.01697
v 0.39713 0.12938 -0.01697
v 0.39713 0.12938 -0.01644
v 0.38705 0.12463 -0.0119
v 0.39713 0.12938 -0.01191
v 0.38705 0.12463 -0.0119
v 0.39713 0.12938 -0.01191
v 0.4072 0.12463 -0.0119
v 0.4072 0.10167 -0.0119
v 0.41138 0.11315 -0.0119
v 0.38705 0.10167 -0.0119
v 0.39713 0.09692 -0.0119
v 0.38288 0.11315 -0.0119
v 0.39713 0.12176 -0.01697
v 0.39178 0.11924 -0.01696
v 0.39178 0.11924 -0.01817
v 0.39713 0.12176 -0.01817
v 0.40247 0.11924 -0.01696
v 0.39178 0.11924 -0.06396
v 0.40247 0.11924 -0.01817
v 0.39713 0.12176 -0.06396
v 0.40247 0.11924 -0.06396
v 0.38956 0.11315 -0.01696
v 0.39178 0.10706 -0.01696
v 0.39178 0.10706 -0.01817
v 0.38956 0.11315 -0.01817
v 0.39178 0.11924 -0.01696
v 0.39178 0.10705 -0.06395
v 0.39178 0.11924 -0.01817
v 0.38956 0.11314 -0.06396
v 0.39178 0.11924 -0.06396
v 0.39713 0.10453 -0.01696
v 0.40247 0.10706 -0.01696
v 0.40247 0.10706 -0.01817
v 0.39713 0.10453 -0.01817
v 0.39178 0.10706 -0.01696
v 0.40247 0.10705 -0.06395
v 0.39178 0.10706 -0.01817
v 0.39713 0.10453 -0.06395
v 0.39178 0.10705 -0.06395
v 0.40469 0.11315 -0.01696
v 0.40247 0.11924 -0.01696
v 0.40247 0.11924 -0.01817
v 0.40469 0.11315 -0.01817
v 0.40247 0.10706 -0.01696
v 0.40247 0.11924 -0.06396
v 0.40247 0.10706 -0.01817
v 0.40469 0.11314 -0.06396
v 0.40247 0.10705 -0.06395
v 0.40469 0.11314 -0.06396
v 0.40247 0.11924 -0.06396
v 0.39713 0.12176 -0.06396
v 0.38956 0.11314 -0.06396
v 0.39178 0.11924 -0.06396
v 0.39713 0.10453 -0.06395
v 0.39178 0.10705 -0.06395
v 0.40247 0.10705 -0.06395
v 0.3901 0.11873 -0.05976
v 0.40415 0.11873 -0.05976
v 0.39713 0.11873 -0.05685
v 0.40415 0.11873 -0.07381
v 0.40706 0.11873 -0.06678
v 0.3901 0.11873 -0.07381
v 0.39713 0.11873 -0.07672
v 0.38719 0.11873 -0.06678
v 0.40415 0.10764 -0.05975
v 0.3901 0.10764 -0.05975
v 0.39713 0.10764 -0.05684
v 0.3901 0.10763 -0.0738
v 0.38719 0.10763 -0.06678
v 0.40415 0.10763 -0.0738
v 0.39713 0.10763 -0.07671
v 0.40706 0.10763 -0.06678
v 0.40415 0.10972 -0.05975
v 0.40415 0.10764 -0.05975
v 0.39713 0.10764 -0.05684
v 0.39713 0.10972 -0.05684
v 0.40415 0.11665 -0.05976
v 0.39713 0.11665 -0.05684
v 0.40415 0.11873 -0.05976
v 0.39713 0.11873 -0.05685
v 0.40706 0.10972 -0.06678
v 0.40706 0.10763 -0.06678
v 0.40415 0.10764 -0.05975
v 0.40415 0.10972 -0.05975
v 0.40706 0.11664 -0.06678
v 0.40415 0.11665 -0.05976
v 0.40706 0.11873 -0.06678
v 0.40415 0.11873 -0.05976
v 0.39713 0.10972 -0.05684
v 0.39713 0.10764 -0.05684
v 0.3901 0.10764 -0.05975
v 0.3901 0.10972 -0.05975
v 0.39713 0.11665 -0.05684
v 0.3901 0.11665 -0.05976
v 0.39713 0.11873 -0.05685
v 0.3901 0.11873 -0.05976
v 0.38719 0.10972 -0.06678
v 0.38719 0.10763 -0.06678
v 0.3901 0.10763 -0.0738
v 0.3901 0.10972 -0.0738
v 0.38719 0.11664 -0.06678
v 0.3901 0.11664 -0.07381
v 0.38719 0.11873 -0.06678
v 0.3901 0.11873 -0.07381
v 0.40415 0.10972 -0.0738
v 0.40415 0.10763 -0.0738
v 0.40706 0.10763 -0.06678
v 0.40706 0.10972 -0.06678
v 0.40415 0.11664 -0.07381
v 0.40706 0.11664 -0.06678
v 0.40415 0.11873 -0.07381
v 0.40706 0.11873 -0.06678
v 0.3901 0.10972 -0.05975
v 0.3901 0.10764 -0.05975
v 0.38719 0.10763 -0.06678
v 0.38719 0.10972 -0.06678
v 0.3901 0.11665 -0.05976
v 0.38719 0.11664 -0.06678
v 0.3901 0.11873 -0.05976
v 0.38719 0.11873 -0.06678
v 0.3901 0.10972 -0.0738
v 0.3901 0.10763 -0.0738
v 0.39713 0.10763 -0.07671
v 0.39713 0.10972 -0.07671
v 0.3901 0.11664 -0.07381
v 0.39713 0.11664 -0.07672
v 0.3901 0.11873 -0.07381
v 0.39713 0.11873 -0.07672
v 0.39096 0.26069 -0.01701
v 0.3884 0.25366 -0.01701
v 0.38956 0.25366 -0.01701
v 0.39178 0.25975 -0.01701
v 0.39178 0.24757 -0.01701
v 0.39713 0.26361 -0.01701
v 0.39713 0.26228 -0.01701
v 0.39096 0.24663 -0.01701
v 0.39713 0.24505 -0.01701
v 0.4033 0.26069 -0.01701
v 0.40247 0.25975 -0.01701
v 0.39713 0.24372 -0.01701
v 0.40247 0.24757 -0.01701
v 0.40585 0.25366 -0.01701
v 0.40469 0.25366 -0.01701
v 0.4033 0.24663 -0.01701
v 0.39713 0.26859 -0.01702
v 0.38786 0.26422 -0.01701
v 0.38403 0.25366 -0.01701
v 0.40639 0.26422 -0.01701
v 0.38786 0.24311 -0.01701
v 0.39713 0.23874 -0.01701
v 0.40639 0.24311 -0.01701
v 0.41023 0.25366 -0.01701
v 0.39713 0.2699 -0.01702
v 0.4072 0.26514 -0.01702
v 0.38705 0.26514 -0.01702
v 0.41138 0.25366 -0.01701
v 0.38288 0.25366 -0.01701
v 0.4072 0.24218 -0.01701
v 0.39713 0.23743 -0.01701
v 0.38705 0.24218 -0.01701
v 0.39096 0.12018 -0.01697
v 0.3884 0.11315 -0.01696
v 0.38956 0.11315 -0.01696
v 0.39178 0.11924 -0.01696
v 0.39178 0.10706 -0.01696
v 0.39713 0.12309 -0.01697
v 0.39713 0.12176 -0.01697
v 0.39096 0.10612 -0.01696
v 0.39713 0.10453 -0.01696
v 0.4033 0.12018 -0.01697
v 0.40247 0.11924 -0.01696
v 0.39713 0.10321 -0.01696
v 0.40247 0.10706 -0.01696
v 0.40585 0.11315 -0.01696
v 0.40469 0.11315 -0.01696
v 0.4033 0.10612 -0.01696
v 0.39713 0.12807 -0.01697
v 0.38786 0.1237 -0.01697
v 0.38403 0.11315 -0.01696
v 0.40639 0.1237 -0.01697
v 0.38786 0.1026 -0.01696
v 0.39713 0.09823 -0.01696
v 0.40639 0.1026 -0.01696
v 0.41023 0.11315 -0.01696
v 0.39713 0.12938 -0.01697
v 0.4072 0.12463 -0.01697
v 0.38705 0.12463 -0.01697
v 0.41138 0.11315 -0.01696
v 0.38288 0.11315 -0.01696
v 0.4072 0.10167 -0.01696
v 0.39713 0.09692 -0.01696
v 0.38705 0.10167 -0.01696
vn 0 -0.0003452261 -1
vn 0 -0.0003452261 -1
vn 0 -0.0003452261 -1
vn 0 -0.0003452261 -1
vn 1 0 0
vn 1 0 0
vn 1 0 0
vn 1 0 0
vn 0 1 -0.0003452262
vn 0 1 -0.0003452262
vn 0 1 -0.0003452262
vn 0 1 -0.0003452262
vn -1 0 0
vn -1 0 0
vn -1 0 0
vn -1 0 0
vn 0 -1 0.0003452262
vn 0 -1 0.0003452262
vn 0 -1 0.0003452262
vn 0 -1 0.0003452262
vn 0 0.0003452261 1
vn 0 0.0003452261 1
vn 0 0.0003452261 1
vn 0 0.0003452261 1
vn 0.3827064 -0.0003189441 -0.92387
vn 0.3827111 -0.0003189434 -0.923868
vn 0.3827079 -0.0003189439 -0.9238694
vn 0.3827064 -0.0003189441 -0.92387
vn 0.3827064 -0.0003189441 -0.92387
vn 0.3827064 -0.0003189441 -0.92387
vn 0.3827064 -0.0003189441 -0.92387
vn 0.3827064 -0.0003189441 -0.92387
vn 0.3827064 -0.0003189441 -0.92387
vn 0.3827079 -0.0003189439 -0.9238694
vn 0.3827111 -0.0003189434 -0.923868
vn 0.3827111 -0.0003189434 -0.923868
vn 0.3827111 -0.0003189434 -0.923868
vn 0.3827064 -0.0003189441 -0.92387
vn 0.3827111 -0.0003189434 -0.923868
vn 0.3827079 -0.0003189439 -0.9238694
vn 0.3827064 -0.0003189441 -0.92387
vn 0.3827064 -0.0003189441 -0.92387
vn 0.3827064 -0.0003189441 -0.92387
vn 0.3827064 -0.0003189441 -0.92387
vn 0.3827064 -0.0003189441 -0.92387
vn 0.3827064 -0.0003189441 -0.92387
vn 0.3827079 -0.0003189439 -0.9238694
vn 0.3827111 -0.0003189434 -0.923868
vn 0.3827111 -0.0003189434 -0.923868
vn 0.3827111 -0.0003189434 -0.923868
vn 0.426771 0.9043596 -0.0003122086
vn 0.426771 0.9043596 -0.0003122086
vn 0.426771 0.9043596 -0.0003122086
vn 0.426771 0.9043596 -0.0003122086
vn 0.4267704 0.90436 -0.0003122088
vn 0.4267751 0.9043577 -0.000312208
vn 0.426771 0.9043596 -0.0003122086
vn 0.426771 0.9043596 -0.0003122086
vn 0.9398112 0.341694 -0.0001179617
vn 0.9398109 0.341695 -0.000117962
vn 0.4267751 0.9043577 -0.000312208
vn 0.9398138 -0.3416871 0.0001179593
vn 0.9398108 0.3416952 -0.0001179621
vn 0.9398135 -0.3416879 0.0001179596
vn 0.9398135 -0.3416879 0.0001179596
vn 0.9398135 -0.3416879 0.0001179596
vn 0.9398138 -0.3416871 0.0001179593
vn 0.4267735 -0.9043585 0.0003122082
vn 0.426771 -0.9043596 0.0003122086
vn 0.9398135 -0.3416879 0.0001179596
vn 0.4267705 -0.90436 0.0003122087
vn 0.426771 -0.9043596 0.0003122086
vn 0.4267735 -0.9043585 0.0003122082
vn -0.426769 -0.9043607 0.000312209
vn -0.4267715 -0.9043595 0.0003122085
vn 0.4267705 -0.90436 0.0003122087
vn -0.4267707 -0.9043598 0.0003122086
vn -0.4267715 -0.9043595 0.0003122085
vn -0.426769 -0.9043607 0.000312209
vn -0.9398135 -0.3416879 0.0001179596
vn -0.9398138 -0.3416871 0.0001179593
vn -0.4267707 -0.9043598 0.0003122086
vn -0.9398135 -0.3416879 0.0001179596
vn -0.9398138 -0.3416871 0.0001179593
vn -0.9398135 -0.3416879 0.0001179596
vn -0.9398109 0.341695 -0.000117962
vn -0.9398112 0.341694 -0.0001179617
vn -0.9398135 -0.3416879 0.0001179596
vn -0.9398106 0.341696 -0.0001179624
vn -0.9398112 0.341694 -0.0001179617
vn -0.9398109 0.341695 -0.000117962
vn 0.426771 0.9043596 -0.0003122086
vn 0.426771 0.9043596 -0.0003122086
vn -0.9398106 0.341696 -0.0001179624
vn 0.4267704 0.90436 -0.0003122088
vn 0 0.0003452261 1
vn 0 0.0003452261 1
vn 0 0.0003452261 1
vn 0 0.0003452261 1
vn 0 0.0003452261 1
vn 0 0.0003452261 1
vn 0 0.0003452261 1
vn 0 0.0003452261 1
vn -0.4267463 0.9043713 -0.0003122126
vn -0.4267463 0.9043713 -0.0003122126
vn -0.4267491 0.90437 -0.0003122122
vn -0.4267491 0.90437 -0.0003122122
vn 0.9398127 0.34169 -0.0001179603
vn -0.4267491 0.90437 -0.0003122122
vn 0.9398131 0.3416891 -0.00011796
vn -0.4267439 0.9043725 -0.000312213
vn 0.9398131 0.3416891 -0.00011796
vn 0.3826989 0.0003189452 0.9238731
vn 0.3826989 0.0003189452 0.9238731
vn 0.3827037 0.0003189445 0.9238711
vn 0.3826989 0.0003189452 0.9238731
vn 0.3827045 0.0003189443 0.9238707
vn 0.3827045 0.0003189443 0.9238707
vn 0.382702 0.0003189447 0.9238718
vn 0.382702 0.0003189447 0.9238718
vn -0.9398127 -0.34169 0.0001179603
vn -0.9398127 -0.34169 0.0001179603
vn -0.9398124 -0.341691 0.0001179607
vn -0.9398124 -0.341691 0.0001179607
vn -0.4267463 0.9043713 -0.0003122126
vn -0.9398124 -0.341691 0.0001179607
vn -0.4267491 0.90437 -0.0003122122
vn -0.9398131 -0.3416891 0.00011796
vn -0.4267491 0.90437 -0.0003122122
vn 0.4267952 -0.9043483 0.0003122046
vn 0.4267952 -0.9043483 0.0003122046
vn 0.4267901 -0.9043507 0.0003122055
vn 0.4267952 -0.9043483 0.0003122046
vn 0.4267909 -0.9043503 0.0003122054
vn 0.4267909 -0.9043503 0.0003122054
vn 0.9398127 0.34169 -0.0001179603
vn 0.9398127 0.34169 -0.0001179603
vn 0.9398131 0.3416891 -0.00011796
vn 0.9398131 0.3416891 -0.00011796
vn 0.4267909 -0.9043503 0.0003122054
vn 0.9398131 0.3416891 -0.00011796
vn 0.4267952 -0.9043483 0.0003122046
vn 0.9398131 0.3416891 -0.00011796
vn 0.4267952 -0.9043483 0.0003122046
vn -0.9398124 -0.341691 0.0001179607
vn 0.4267901 -0.9043507 0.0003122055
vn -0.9398124 -0.341691 0.0001179607
vn 0.4267952 -0.9043483 0.0003122046
vn -0.9398127 -0.34169 0.0001179603
vn 0.4267909 -0.9043503 0.0003122054
vn 0 -0.000346374 -1
vn 0 -0.000346374 -1
vn 0 -0.000346374 -1
vn 0 -0.0003458001 -1
vn 0 -0.0003458001 -1
vn 0 -0.0003452261 -1
vn 0 -0.0003452261 -1
vn 0 -0.0003446522 -1
vn -0.9238805 -0.0001321114 -0.3826809
vn -0.9238805 -0.0001321114 -0.3826809
vn -0.9238845 -0.0001321082 -0.3826714
vn -0.9238805 -0.0001321114 -0.3826809
vn -0.9238795 -0.0001321123 -0.3826834
vn -0.9238795 -0.0001321123 -0.3826834
vn -0.9238783 -0.0001321133 -0.3826864
vn -0.9238783 -0.0001321133 -0.3826864
vn -0.9238805 -0.0001321114 -0.3826809
vn -0.3826617 -0.0003189504 -0.9238884
vn -0.9238805 -0.0001321114 -0.3826809
vn -0.3826617 -0.0003189504 -0.9238884
vn -0.9238795 -0.0001321123 -0.3826834
vn -0.3826616 -0.0003189504 -0.9238884
vn -0.9238783 -0.0001321133 -0.3826864
vn -0.382661 -0.0003189506 -0.9238888
vn 0.3826989 0.0003189452 0.9238731
vn -0.382695 0.0003189457 0.9238746
vn 0.3826989 0.0003189452 0.9238731
vn -0.382695 0.0003189457 0.9238746
vn 0.3827045 0.0003189443 0.9238707
vn -0.3826979 0.0003189453 0.9238734
vn 0.382702 0.0003189447 0.9238718
vn -0.3826981 0.0003189453 0.9238734
vn 0.9238845 0.0001321082 0.3826714
vn 0.3827037 0.0003189445 0.9238711
vn 0.9238805 0.0001321114 0.3826809
vn 0.3826989 0.0003189452 0.9238731
vn 0.9238795 0.0001321123 0.3826834
vn 0.3827045 0.0003189443 0.9238707
vn 0.9238822 0.0001321101 0.382677
vn 0.382702 0.0003189447 0.9238718
vn -0.382695 0.0003189457 0.9238746
vn -0.9238845 -0.0001321082 -0.3826714
vn -0.382695 0.0003189457 0.9238746
vn -0.9238805 -0.0001321114 -0.3826809
vn -0.3826979 0.0003189453 0.9238734
vn -0.9238795 -0.0001321123 -0.3826834
vn -0.3826981 0.0003189453 0.9238734
vn -0.9238783 -0.0001321133 -0.3826864
vn -0.3826617 -0.0003189504 -0.9238884
vn 0.3826656 -0.0003189499 -0.9238868
vn -0.3826617 -0.0003189504 -0.9238884
vn 0.3826656 -0.0003189499 -0.9238868
vn -0.3826616 -0.0003189504 -0.9238884
vn 0.3826649 -0.00031895 -0.9238871
vn -0.382661 -0.0003189506 -0.9238888
vn 0.3826649 -0.00031895 -0.9238871
vn 0.3826656 -0.0003189499 -0.9238868
vn 0.9238805 0.0001321114 0.3826809
vn 0.3826656 -0.0003189499 -0.9238868
vn 0.9238845 0.0001321082 0.3826714
vn 0.3826649 -0.00031895 -0.9238871
vn 0.9238795 0.0001321123 0.3826834
vn 0.3826649 -0.00031895 -0.9238871
vn 0.9238822 0.0001321101 0.382677
vn 0 1 -0.0003452262
vn 0 1 -0.0003452262
vn 0 1 -0.0003452262
vn 0 1 -0.0003452262
vn 0 1 -0.0003452262
vn 0 1 -0.0003452262
vn 0 1 -0.0003452262
vn 0 1 -0.0003452262
vn 0 -1 0.0003452262
vn 0 -1 0.0003452262
vn 0 -1 0.0003452262
vn 0 -1 0.0003452262
vn 0 -1 0.0003452262
vn 0 -1 0.0003452262
vn 0 -1 0.0003452262
vn 0 -1 0.0003452262
vn 0 1 -0.0003452262
vn 0 1 -0.0003452262
vn 0 1 -0.0003452262
vn 0 1 -0.0003452262
vn 0 1 -0.0003452262
vn 0 1 -0.0003452262
vn 0 1 -0.0003452262
vn 0 1 -0.0003452262
vn 0 -1 0.0003452262
vn 0 -1 0.0003452262
vn 0 -1 0.0003452262
vn -6.903345E-06 -1 0.0003452262
vn -6.903345E-06 -1 0.0003452262
vn 0 -1 0.0003452262
vn 0 -1 0.0003452262
vn 6.903202E-06 -1 0.0003452262
vn 0.3826851 0.0003189471 0.9238788
vn 0.3826851 0.0003189471 0.9238788
vn 0.3826851 0.0003189471 0.9238788
vn 0.3826807 0.0003189477 0.9238806
vn 0.3826836 0.0003189473 0.9238794
vn 0.3826836 0.0003189473 0.9238794
vn 0.3826836 0.0003189473 0.9238794
vn 0.3826761 0.0003189484 0.9238825
vn 0.9238814 0.0001321108 0.382679
vn 0.9238814 0.0001321108 0.382679
vn 0.3826851 0.0003189471 0.9238788
vn 0.3826851 0.0003189471 0.9238788
vn 0.9238815 0.0001321107 0.3826788
vn 0.3826836 0.0003189473 0.9238794
vn 0.9238815 0.0001321107 0.3826788
vn 0.3826836 0.0003189473 0.9238794
vn 0.3826807 0.0003189477 0.9238806
vn 0.3826851 0.0003189471 0.9238788
vn -0.3826757 0.0003189485 0.9238827
vn -0.3826681 0.0003189495 0.9238858
vn 0.3826836 0.0003189473 0.9238794
vn -0.3826741 0.0003189486 0.9238833
vn 0.3826761 0.0003189484 0.9238825
vn -0.3826665 0.0003189497 0.9238865
vn -0.9238819 -0.0001321104 -0.3826778
vn -0.9238819 -0.0001321104 -0.3826778
vn -0.9238819 -0.0001321104 -0.3826778
vn -0.9238793 -0.0001321125 -0.3826841
vn -0.9238794 -0.0001321125 -0.3826838
vn -0.9238794 -0.0001321125 -0.3826838
vn -0.9238794 -0.0001321125 -0.3826838
vn -0.9238799 -0.000132112 -0.3826825
vn 0.3827079 -0.0003189439 -0.9238694
vn 0.3827111 -0.0003189434 -0.923868
vn 0.9238814 0.0001321108 0.382679
vn 0.9238814 0.0001321108 0.382679
vn 0.3827064 -0.0003189441 -0.92387
vn 0.9238815 0.0001321107 0.3826788
vn 0.3827064 -0.0003189441 -0.92387
vn 0.9238815 0.0001321107 0.3826788
vn -0.3826681 0.0003189495 0.9238858
vn -0.3826757 0.0003189485 0.9238827
vn -0.9238819 -0.0001321104 -0.3826778
vn -0.9238819 -0.0001321104 -0.3826778
vn -0.3826741 0.0003189486 0.9238833
vn -0.9238794 -0.0001321125 -0.3826838
vn -0.3826665 0.0003189497 0.9238865
vn -0.9238794 -0.0001321125 -0.3826838
vn -0.9238793 -0.0001321125 -0.3826841
vn -0.9238819 -0.0001321104 -0.3826778
vn 0.3827111 -0.0003189434 -0.923868
vn 0.3827111 -0.0003189434 -0.923868
vn -0.9238794 -0.0001321125 -0.3826838
vn 0.3827064 -0.0003189441 -0.92387
vn -0.9238799 -0.000132112 -0.3826825
vn 0.3827064 -0.0003189441 -0.92387
vn 0.4267722 0.9043591 -0.0003122084
vn 0.4267722 0.9043591 -0.0003122084
vn 0.4267722 0.9043591 -0.0003122084
vn 0.4267722 0.9043591 -0.0003122084
vn 0.4267715 0.9043594 -0.0003122085
vn 0.4267729 0.9043588 -0.0003122083
vn 0.4267722 0.9043591 -0.0003122084
vn 0.4267722 0.9043591 -0.0003122084
vn 0.9398111 0.3416945 -0.0001179619
vn 0.9398109 0.341695 -0.000117962
vn 0.4267729 0.9043588 -0.0003122083
vn 0.9398138 -0.3416871 0.0001179593
vn 0.9398108 0.3416952 -0.0001179621
vn 0.9398136 -0.3416875 0.0001179595
vn 0.9398135 -0.3416879 0.0001179596
vn 0.9398136 -0.3416875 0.0001179595
vn 0.9398138 -0.3416871 0.0001179593
vn 0.4267722 -0.9043591 0.0003122084
vn 0.4267722 -0.9043591 0.0003122084
vn 0.9398135 -0.3416879 0.0001179596
vn 0.4267729 -0.9043588 0.0003122083
vn 0.4267722 -0.9043591 0.0003122084
vn 0.4267722 -0.9043591 0.0003122084
vn -0.4267703 -0.90436 0.0003122088
vn -0.4267703 -0.90436 0.0003122088
vn 0.4267729 -0.9043588 0.0003122083
vn -0.4267695 -0.9043604 0.0003122088
vn -0.4267703 -0.90436 0.0003122088
vn -0.4267703 -0.90436 0.0003122088
vn -0.9398136 -0.3416875 0.0001179595
vn -0.9398138 -0.3416871 0.0001179593
vn -0.4267695 -0.9043604 0.0003122088
vn -0.9398135 -0.3416879 0.0001179596
vn -0.9398138 -0.3416871 0.0001179593
vn -0.9398136 -0.3416875 0.0001179595
vn -0.9398109 0.341695 -0.000117962
vn -0.9398111 0.3416945 -0.0001179619
vn -0.9398135 -0.3416879 0.0001179596
vn -0.9398108 0.3416952 -0.0001179621
vn -0.9398111 0.3416945 -0.0001179619
vn -0.9398109 0.341695 -0.000117962
vn 0.4267722 0.9043591 -0.0003122084
vn 0.4267722 0.9043591 -0.0003122084
vn -0.9398108 0.3416952 -0.0001179621
vn 0.4267715 0.9043594 -0.0003122085
vn 0 0.0003452261 1
vn 0 0.0003452261 1
vn 0 0.0003452261 1
vn 0 0.0003452261 1
vn 0 0.0003452261 1
vn 0 0.0003452261 1
vn 0 0.0003452261 1
vn 0 0.0003452261 1
vn -0.4267463 0.9043713 -0.0003122126
vn -0.4267463 0.9043713 -0.0003122126
vn -0.4267491 0.90437 -0.0003122122
vn -0.4267491 0.90437 -0.0003122122
vn 0.939813 0.3416893 -0.0001179601
vn -0.4267491 0.90437 -0.0003122122
vn 0.9398131 0.3416891 -0.00011796
vn -0.4267464 0.9043713 -0.0003122126
vn 0.9398131 0.3416891 -0.00011796
vn -0.9398127 -0.34169 0.0001179603
vn -0.9398127 -0.34169 0.0001179603
vn -0.9398127 -0.3416901 0.0001179603
vn -0.9398127 -0.3416901 0.0001179603
vn -0.4267463 0.9043713 -0.0003122126
vn -0.9398127 -0.3416901 0.0001179603
vn -0.4267491 0.90437 -0.0003122122
vn -0.9398131 -0.3416891 0.00011796
vn -0.4267491 0.90437 -0.0003122122
vn 0.4267929 -0.9043493 0.000312205
vn 0.4267929 -0.9043493 0.000312205
vn 0.4267926 -0.9043494 0.0003122051
vn 0.4267926 -0.9043494 0.0003122051
vn -0.9398127 -0.34169 0.0001179603
vn 0.4267926 -0.9043494 0.0003122051
vn -0.9398127 -0.3416901 0.0001179603
vn 0.4267901 -0.9043507 0.0003122055
vn -0.9398127 -0.3416901 0.0001179603
vn 0.939813 0.3416893 -0.0001179601
vn 0.939813 0.3416893 -0.0001179601
vn 0.9398131 0.3416891 -0.00011796
vn 0.9398131 0.3416891 -0.00011796
vn 0.4267929 -0.9043493 0.000312205
vn 0.9398131 0.3416891 -0.00011796
vn 0.4267926 -0.9043494 0.0003122051
vn 0.9398127 0.3416902 -0.0001179604
vn 0.4267926 -0.9043494 0.0003122051
vn 0 -0.000346374 -1
vn 0 -0.000346374 -1
vn 0 -0.000346374 -1
vn 0 -0.0003458001 -1
vn 0 -0.0003458001 -1
vn 0 -0.0003452261 -1
vn 0 -0.0003452261 -1
vn 0 -0.0003446522 -1
vn 0 1 -0.0003452262
vn 0 1 -0.0003452262
vn 0 1 -0.0003452262
vn 0 1 -0.0003452262
vn 0 1 -0.0003452262
vn 0 1 -0.0003452262
vn 0 1 -0.0003452262
vn 0 1 -0.0003452262
vn 0 -1 0.0003452262
vn 0 -1 0.0003452262
vn 0 -1 0.0003452262
vn -3.451673E-06 -1 0.0003452262
vn -3.451673E-06 -1 0.0003452262
vn 0 -1 0.0003452262
vn 0 -1 0.0003452262
vn 3.451601E-06 -1 0.0003452262
vn 0.3826775 0.0003189482 0.9238819
vn 0.3826775 0.0003189482 0.9238819
vn 0.3826775 0.0003189482 0.9238819
vn 0.3826845 0.0003189472 0.923879
vn 0.3826798 0.0003189479 0.9238811
vn 0.3826798 0.0003189479 0.9238811
vn 0.3826798 0.0003189479 0.9238811
vn 0.3826798 0.0003189479 0.9238811
vn 0.9238827 0.0001321097 0.3826759
vn 0.9238827 0.0001321097 0.3826759
vn 0.3826775 0.0003189482 0.9238819
vn 0.3826775 0.0003189482 0.9238819
vn 0.9238788 0.0001321129 0.382685
vn 0.3826798 0.0003189479 0.9238811
vn 0.9238788 0.0001321129 0.382685
vn 0.3826798 0.0003189479 0.9238811
vn 0.3826845 0.0003189472 0.923879
vn 0.3826775 0.0003189482 0.9238819
vn -0.3826681 0.0003189495 0.9238858
vn -0.3826719 0.000318949 0.9238843
vn 0.3826798 0.0003189479 0.9238811
vn -0.3826703 0.0003189492 0.9238849
vn 0.3826798 0.0003189479 0.9238811
vn -0.3826703 0.0003189492 0.9238849
vn -0.9238805 -0.0001321114 -0.3826809
vn -0.9238805 -0.0001321114 -0.3826809
vn -0.9238805 -0.0001321114 -0.3826809
vn -0.9238805 -0.0001321114 -0.3826809
vn -0.9238781 -0.0001321135 -0.3826869
vn -0.9238781 -0.0001321135 -0.3826869
vn -0.9238781 -0.0001321135 -0.3826869
vn -0.9238812 -0.0001321109 -0.3826793
vn 0.3827079 -0.0003189439 -0.9238694
vn 0.3827111 -0.0003189434 -0.923868
vn 0.9238827 0.0001321097 0.3826759
vn 0.9238827 0.0001321097 0.3826759
vn 0.3827064 -0.0003189441 -0.92387
vn 0.9238788 0.0001321129 0.382685
vn 0.3827064 -0.0003189441 -0.92387
vn 0.9238788 0.0001321129 0.382685
vn -0.3826719 0.000318949 0.9238843
vn -0.3826681 0.0003189495 0.9238858
vn -0.9238805 -0.0001321114 -0.3826809
vn -0.9238805 -0.0001321114 -0.3826809
vn -0.3826703 0.0003189492 0.9238849
vn -0.9238781 -0.0001321135 -0.3826869
vn -0.3826703 0.0003189492 0.9238849
vn -0.9238781 -0.0001321135 -0.3826869
vn -0.9238805 -0.0001321114 -0.3826809
vn -0.9238805 -0.0001321114 -0.3826809
vn 0.3827111 -0.0003189434 -0.923868
vn 0.3827111 -0.0003189434 -0.923868
vn -0.9238781 -0.0001321135 -0.3826869
vn 0.3827064 -0.0003189441 -0.92387
vn -0.9238812 -0.0001321109 -0.3826793
vn 0.3827064 -0.0003189441 -0.92387
vn 0 -0.0003447534 -1
vn 0 -0.0003447534 -1
vn 0 -0.0003447534 -1
vn 0 -0.0003452261 -1
vn 0 -0.0003452261 -1
vn 0 -0.0003456989 -1
vn 0 -0.0003452261 -1
vn 0 -0.0003452261 -1
vn 0 -0.0003452261 -1
vn 0 -0.0003449898 -1
vn 0 -0.0003449898 -1
vn 0 -0.0003452261 -1
vn 0 -0.0003452261 -1
vn 0 -0.0003449898 -1
vn 0 -0.0003452261 -1
vn 0 -0.0003452261 -1
vn 0 -0.0003452261 -1
vn 0 -0.0003449329 -1
vn 0 -0.000344588 -1
vn 0 -0.0003477786 -1
vn 0 -0.0003461061 -1
vn 0 -0.0003452261 -1
vn 0 -0.0003431729 -1
vn 0 -0.0003455194 -1
vn 0 -0.0003452261 -1
vn 0 -0.0003452261 -1
vn 0 -0.0003449329 -1
vn 0 -0.0003455194 -1
vn 0 -0.0003461061 -1
vn 0 -0.0003431729 -1
vn 0 -0.0003431729 -1
vn 0 -0.0003461061 -1
vn 0 -0.0003447534 -1
vn 0 -0.0003447534 -1
vn 0 -0.0003447534 -1
vn 0 -0.0003452261 -1
vn 0 -0.0003452261 -1
vn 0 -0.0003456989 -1
vn 0 -0.0003452261 -1
vn 0 -0.0003452261 -1
vn 0 -0.0003452261 -1
vn 0 -0.0003449898 -1
vn 0 -0.0003449898 -1
vn 0 -0.0003452261 -1
vn 0 -0.0003452261 -1
vn 0 -0.0003449898 -1
vn 0 -0.0003452261 -1
vn 0 -0.0003452261 -1
vn 0 -0.0003452261 -1
vn 0 -0.0003449329 -1
vn 0 -0.000344588 -1
vn 0 -0.0003477786 -1
vn 0 -0.0003461061 -1
vn 0 -0.0003452261 -1
vn 0 -0.0003431729 -1
vn 0 -0.0003455194 -1
vn 0 -0.0003452261 -1
vn 0 -0.0003452261 -1
vn 0 -0.0003449329 -1
vn 0 -0.0003455194 -1
vn 0 -0.0003461061 -1
vn 0 -0.0003431729 -1
vn 0 -0.0003431729 -1
vn 0 -0.0003461061 -1
vt -0.5 0.721596
vt -0.143538 0.721596
vt -0.143538 1.110798
vt -0.5 1.110798
vt 1.448068 -0.110798
vt 1.431347 -0.110798
vt 1.431347 -0.5
vt 1.448068 -0.5
vt 1.478046 1.070144
vt 1.494768 1.070144
vt 1.494768 1.418693
vt 1.478046 1.418693
vt 1.47402 0.457082
vt 1.457298 0.457082
vt 1.457298 0.06788
vt 1.47402 0.06788
vt 1.490741 0.416428
vt 1.47402 0.416428
vt 1.47402 0.06788
vt 1.490741 0.06788
vt 1.345587 0.06788
vt 1.345587 0.457082
vt 0.989126 0.457082
vt 0.989126 0.06788
vt 0.8940169 0.6420957
vt 0.9047243 0.6420906
vt 0.9047285 0.649266
vt 0.8907897 0.6420923
vt 0.894017 0.6492708
vt 0.8907897 0.6420923
vt 0.894017 0.6492708
vt 0.890794 0.6492677
vt 0.8940169 0.6420957
vt 0.9047285 0.649266
vt 0.9047243 0.6420906
vt 0.9079329 0.6492696
vt 0.9079132 0.6420941
vt 1.470597 -0.35642
vt 1.481308 -0.3564195
vt 1.481315 -0.3492401
vt 1.467369 -0.3564182
vt 1.470605 -0.3492419
vt 1.467369 -0.3564182
vt 1.470605 -0.3492419
vt 1.467377 -0.3492395
vt 1.470597 -0.35642
vt 1.481315 -0.3492401
vt 1.481308 -0.3564195
vt 1.484531 -0.3492405
vt 1.484514 -0.3564144
vt 1.476387 0.110774
vt 1.475459 0.110774
vt 1.475526 0.100481
vt 1.476454 0.100481
vt 1.484386 0.110773
vt 1.484454 0.10048
vt 1.485849 0.576006
vt 1.484921 0.576006
vt 1.484906 0.565618
vt 1.485834 0.565618
vt 1.493849 0.576006
vt 1.484921 0.55523
vt 1.493833 0.565618
vt 1.485849 0.55523
vt 1.493849 0.55523
vt 1.474079 0.440261
vt 1.473152 0.440261
vt 1.473082 0.429968
vt 1.474009 0.429968
vt 1.482079 0.440262
vt 1.482009 0.429969
vt 1.474009 0.429968
vt 1.473082 0.429968
vt 1.473151 0.41949
vt 1.474079 0.41949
vt 1.482009 0.429969
vt 1.482079 0.419491
vt 1.483057 0.369805
vt 1.482129 0.369805
vt 1.482079 0.359417
vt 1.483006 0.359417
vt 1.491057 0.369805
vt 1.491006 0.359417
vt 1.483006 0.359417
vt 1.482079 0.359417
vt 1.48213 0.349029
vt 1.483057 0.349029
vt 1.491006 0.359417
vt 1.491057 0.349029
vt 1.476454 0.121252
vt 1.475526 0.121252
vt 1.475459 0.110774
vt 1.476387 0.110774
vt 1.484454 0.121251
vt 1.484386 0.110773
vt 1.437252 -0.205716
vt 1.418021 -0.205716
vt 1.404425 -0.213666
vt 1.418029 -0.23286
vt 1.404428 -0.22491
vt 1.450856 -0.22491
vt 1.43726 -0.23286
vt 1.450853 -0.213666
vt 1.408842 0.417842
vt 1.39933 0.417862
vt 1.39933 0.416615
vt 1.408842 0.416595
vt 1.418186 0.417864
vt 1.399334 0.369417
vt 1.418186 0.416617
vt 1.408834 0.369399
vt 1.418164 0.369421
vt 1.454103 -0.3984731
vt 1.444776 -0.4004346
vt 1.454109 -0.400418
vt 1.444776 -0.3984706
vt 1.454137 -0.2469461
vt 1.444796 -0.246946
vt 1.454132 -0.2449581
vt 1.44479 -0.2449599
vt 1.446474 0.49808
vt 1.437043 0.498096
vt 1.437043 0.496849
vt 1.446474 0.496834
vt 1.455904 0.498096
vt 1.437054 0.4496495
vt 1.455904 0.496849
vt 1.446475 0.4496357
vt 1.455905 0.4496529
vt 1.408842 0.452273
vt 1.418196 0.4994467
vt 1.408865 0.4994676
vt 1.418186 0.45225
vt 1.408842 0.451026
vt 1.418186 0.451003
vt 1.37105 0.636669
vt 1.38048 0.636664
vt 1.38048 0.637911
vt 1.37105 0.637916
vt 1.361619 0.636664
vt 1.380496 0.6851093
vt 1.361619 0.637911
vt 1.371077 0.6851113
vt 1.361647 0.6851103
vt 1.39933 0.452252
vt 1.408838 0.4994708
vt 1.399339 0.4994481
vt 1.408842 0.452273
vt 1.39933 0.451005
vt 1.408842 0.451026
vt 0.6152302 0.6013875
vt 0.6080017 0.6055915
vt 0.5978156 0.6056041
vt 0.5905938 0.5954126
vt 0.590614 0.6013823
vt 0.6080135 0.5911992
vt 0.5978245 0.5912122
vt 0.6152019 0.5954189
vt 1.322557 -0.3984714
vt 1.313161 -0.4004509
vt 1.322558 -0.4004521
vt 1.313172 -0.3984756
vt 1.322561 -0.2469497
vt 1.31318 -0.2469665
vt 1.322586 -0.2449917
vt 1.313218 -0.2450299
vt 1.399921 0.5484534
vt 1.409427 0.550436
vt 1.399919 0.5504296
vt 1.409432 0.5484549
vt 1.399917 0.3969246
vt 1.409398 0.3969291
vt 1.399912 0.3949476
vt 1.40939 0.3949599
vt 1.40622 -0.3984721
vt 1.396701 -0.4004471
vt 1.406215 -0.4004459
vt 1.396697 -0.3984677
vt 1.40621 -0.2469431
vt 1.396703 -0.2469423
vt 1.406222 -0.2449709
vt 1.396733 -0.2449902
vt 1.28471 0.2015024
vt 1.294155 0.203466
vt 1.284765 0.2034284
vt 1.294122 0.2015176
vt 1.284682 0.04999122
vt 1.294109 0.04999442
vt 1.284677 0.04800639
vt 1.294114 0.04800628
vt 1.331741 -0.3984709
vt 1.322288 -0.4004505
vt 1.331744 -0.4004511
vt 1.322291 -0.3984745
vt 1.331747 -0.2469484
vt 1.322313 -0.246965
vt 1.331779 -0.244992
vt 1.322363 -0.2450278
vt 1.370867 0.5484431
vt 1.380213 0.5504238
vt 1.370872 0.5504102
vt 1.380213 0.548452
vt 1.370851 0.3969227
vt 1.380205 0.3969235
vt 1.370854 0.3949327
vt 1.380203 0.3949368
vt 1.275355 0.2014996
vt 1.284785 0.2034659
vt 1.275404 0.2034294
vt 1.284756 0.2015165
vt 1.275333 0.04999124
vt 1.284749 0.04999458
vt 1.275329 0.04800675
vt 1.284752 0.04800631
vt 1.418258 -0.09308522
vt 1.428589 -0.09328725
vt 1.435668 -0.08886498
vt 1.428517 -0.07876932
vt 1.435656 -0.08291153
vt 1.41112 -0.08300935
vt 1.418999 -0.07975283
vt 1.411067 -0.08887107
vt 0.9839213 0.6443002
vt 0.9909802 0.6398823
vt 1.001335 0.6400865
vt 1.008481 0.6501815
vt 1.008526 0.6443011
vt 0.9910509 0.6543759
vt 1.000488 0.6534232
vt 0.9839324 0.6502532
vt 1.44651 -0.4165285
vt 1.423625 -0.4109876
vt 1.437051 -0.410934
vt 1.414167 -0.424328
vt 1.41416 -0.4165298
vt 1.437059 -0.4298595
vt 1.423901 -0.4294446
vt 1.446499 -0.4243607
vt 1.423626 -0.04017356
vt 1.446509 -0.03462854
vt 1.437065 -0.04022422
vt 1.437065 -0.02128559
vt 1.446499 -0.02679659
vt 1.414189 -0.02683997
vt 1.424 -0.02168744
vt 1.414162 -0.03463173
vt 1.481302 -0.07077688
vt 1.484502 -0.07077046
vt 1.484523 -0.06359925
vt 1.481319 -0.06360207
vt 1.470601 -0.07077893
vt 1.470597 -0.06360188
vt 1.467371 -0.07077822
vt 1.467375 -0.06360216
vt 1.459183 0.1791157
vt 1.45601 0.1791027
vt 1.455964 0.1718652
vt 1.459159 0.171874
vt 1.469878 0.1791247
vt 1.469866 0.1718766
vt 1.473094 0.179126
vt 1.473091 0.1718756
vt 1.481322 -0.0410498
vt 1.484531 -0.04104999
vt 1.484538 -0.03374491
vt 1.481312 -0.03374418
vt 1.470607 -0.04104998
vt 1.470606 -0.03374643
vt 1.46739 -0.04105141
vt 1.467424 -0.03375376
vt 1.472187 -0.3863088
vt 1.475415 -0.3863099
vt 1.475416 -0.379088
vt 1.472187 -0.3790877
vt 1.461478 -0.3863113
vt 1.461502 -0.3790954
vt 1.458282 -0.3863173
vt 1.458336 -0.3791073
vt 1.459184 0.1863034
vt 1.456016 0.1862911
vt 1.455964 0.1790672
vt 1.459159 0.1790722
vt 1.469871 0.1863086
vt 1.469867 0.1790739
vt 1.473095 0.186309
vt 1.473094 0.1790733
vt 1.472185 -0.3934184
vt 1.475412 -0.3934197
vt 1.475412 -0.3861557
vt 1.472189 -0.3861577
vt 1.461478 -0.3934214
vt 1.461502 -0.3861656
vt 1.458283 -0.3934292
vt 1.458332 -0.3861788
vt 0.9047313 0.6573375
vt 0.907947 0.6573353
vt 0.9079544 0.6646372
vt 0.9047317 0.664639
vt 0.8940195 0.657334
vt 0.8940331 0.6646343
vt 0.8908035 0.6573325
vt 0.8908317 0.6646324
vt 1.481292 0.619812
vt 1.480365 0.619812
vt 1.480432 0.609519
vt 1.48136 0.609519
vt 1.489292 0.619811
vt 1.489359 0.609518
vt 1.49736 0.630294
vt 1.498287 0.630294
vt 1.498302 0.640682
vt 1.497375 0.640682
vt 1.489359 0.630294
vt 1.498287 0.65107
vt 1.489375 0.640682
vt 1.497359 0.65107
vt 1.489359 0.65107
vt 1.474075 0.179881
vt 1.473147 0.179881
vt 1.473077 0.169588
vt 1.474005 0.169588
vt 1.482074 0.179882
vt 1.482004 0.169589
vt 1.474005 0.169588
vt 1.473077 0.169588
vt 1.473147 0.15911
vt 1.474075 0.15911
vt 1.482004 0.169589
vt 1.482074 0.159111
vt 1.483057 0.419494
vt 1.482129 0.419494
vt 1.482079 0.409105
vt 1.483006 0.409105
vt 1.491057 0.419494
vt 1.491006 0.409105
vt 1.483006 0.409105
vt 1.482079 0.409105
vt 1.482129 0.398718
vt 1.483057 0.398718
vt 1.491006 0.409105
vt 1.491057 0.398718
vt 1.48136 0.63029
vt 1.480432 0.63029
vt 1.480365 0.619812
vt 1.481292 0.619812
vt 1.489359 0.630289
vt 1.489292 0.619811
vt 0.742921 0.623065
vt 0.729323 0.631014
vt 0.710092 0.631012
vt 0.696494 0.611816
vt 0.696494 0.62306
vt 0.729323 0.603869
vt 0.710092 0.603868
vt 0.742921 0.611821
vt 1.446387 0.23307
vt 1.4559 0.23305
vt 1.455899 0.234297
vt 1.446387 0.234316
vt 1.437043 0.233048
vt 1.455896 0.2814968
vt 1.437043 0.234294
vt 1.446396 0.2815151
vt 1.437066 0.2814932
vt 1.446474 0.431828
vt 1.437043 0.431844
vt 1.437043 0.430597
vt 1.446474 0.430581
vt 1.455904 0.431844
vt 1.437055 0.3833997
vt 1.455904 0.430597
vt 1.446476 0.3833856
vt 1.455905 0.3834011
vt 1.057814 0.551269
vt 1.04847 0.551292
vt 1.04847 0.550046
vt 1.057813 0.550023
vt 1.067326 0.55129
vt 1.048461 0.5028435
vt 1.067326 0.550043
vt 1.057793 0.5028224
vt 1.067317 0.5028456
vt 1.463304 0.03941
vt 1.472735 0.039405
vt 1.472735 0.040652
vt 1.463304 0.040657
vt 1.453874 0.039405
vt 1.472752 0.08785241
vt 1.453874 0.040652
vt 1.463331 0.08785546
vt 1.453901 0.08785246
vt 0.8965199 0.5839943
vt 0.8965029 0.5899627
vt 0.8893033 0.5941771
vt 0.8718834 0.5899653
vt 0.8791101 0.5941738
vt 0.8791012 0.5797807
vt 0.8719115 0.5840011
vt 0.8892909 0.5797931
vt 1.455898 -0.3275704
vt 1.478782 -0.3331129
vt 1.465344 -0.3331631
vt 1.488238 -0.3197633
vt 1.488246 -0.3275705
vt 1.465348 -0.3142281
vt 1.478489 -0.314564
vt 1.455909 -0.3197375
vt 0.7174736 0.6604868
vt 0.7403581 0.6660314
vt 0.7309186 0.6604262
vt 0.7309121 0.6793668
vt 0.7403483 0.6738632
vt 0.7080342 0.6738116
vt 0.7178331 0.678892
vt 0.7080089 0.6660286
vt 1.47066 -0.004978524
vt 1.467448 -0.004982557
vt 1.467427 -0.01215502
vt 1.470643 -0.01215327
vt 1.481365 -0.004976867
vt 1.481357 -0.0121531
vt 1.484588 -0.00497726
vt 1.484572 -0.01215305
vt 1.459183 0.2225773
vt 1.45601 0.2225648
vt 1.455963 0.2153278
vt 1.459159 0.2153341
vt 1.46987 0.2225841
vt 1.469864 0.2153368
vt 1.473093 0.222585
vt 1.473091 0.2153355
vt 1.470639 -0.03470373
vt 1.467417 -0.0347046
vt 1.467408 -0.04200766
vt 1.470639 -0.04200762
vt 1.481358 -0.03470328
vt 1.48134 -0.04200614
vt 1.484555 -0.03470068
vt 1.484531 -0.04199932
vt 1.459148 0.4553788
vt 1.455923 0.4553794
vt 1.45592 0.4481569
vt 1.459137 0.448158
vt 1.469855 0.45538
vt 1.469828 0.4481653
vt 1.473051 0.4553889
vt 1.472999 0.4481809
vt 1.459182 0.2297667
vt 1.456015 0.2297534
vt 1.455964 0.2225298
vt 1.459158 0.2225365
vt 1.469872 0.2297724
vt 1.469867 0.2225373
vt 1.473096 0.2297729
vt 1.473095 0.2225361
vt 1.459149 0.4624859
vt 1.455922 0.4624868
vt 1.455922 0.455223
vt 1.459145 0.4552236
vt 1.469855 0.4624872
vt 1.469829 0.4552302
vt 1.47305 0.4624952
vt 1.473001 0.4552434
vt 1.481326 -0.3411737
vt 1.484543 -0.3411729
vt 1.48456 -0.3338733
vt 1.481324 -0.333872
vt 1.470603 -0.3411758
vt 1.4706 -0.3338744
vt 1.467388 -0.3411784
vt 1.467426 -0.3338836
vt 1.229101 0.612837
vt 1.229102 0.605951
vt 1.231 0.60641
vt 1.230999 0.612377
vt 1.238218 0.602191
vt 1.237428 0.617706
vt 1.238215 0.616596
vt 1.237432 0.601081
vt 1.248424 0.602191
vt 1.249206 0.617706
vt 1.24842 0.616596
vt 1.24921 0.601081
vt 1.255639 0.60641
vt 1.257536 0.612837
vt 1.255638 0.612377
vt 1.257537 0.605951
vt 1.234476 0.621871
vt 1.221977 0.614562
vt 1.221979 0.604226
vt 1.252156 0.621871
vt 1.234482 0.596917
vt 1.252162 0.596917
vt 1.264661 0.604226
vt 1.264659 0.614562
vt 1.2337 0.622966
vt 1.252931 0.622966
vt 1.220104 0.615015
vt 1.266532 0.615015
vt 1.220106 0.603772
vt 1.266535 0.603772
vt 1.252938 0.595821
vt 1.233707 0.595821
vt 0.713822 0.598608
vt 0.705493 0.593738
vt 0.707391 0.593279
vt 0.714608 0.597498
vt 0.707389 0.587312
vt 0.7256 0.598608
vt 0.724814 0.597498
vt 0.705491 0.586852
vt 0.714605 0.583093
vt 0.733928 0.593738
vt 0.732029 0.593279
vt 0.713818 0.581983
vt 0.72481 0.583093
vt 0.733926 0.586853
vt 0.732028 0.587312
vt 0.725596 0.581983
vt 0.728552 0.602772
vt 0.710872 0.602772
vt 0.69837 0.595464
vt 0.741051 0.595464
vt 0.698367 0.585127
vt 0.710867 0.577819
vt 0.728546 0.577819
vt 0.741049 0.585127
vt 0.729328 0.603868
vt 0.742925 0.595917
vt 0.710097 0.603868
vt 0.742922 0.584674
vt 0.696496 0.595917
vt 0.729322 0.576723
vt 0.71009 0.576723
vt 0.696494 0.584674
usemtl Cream_wood
f 3/3/3 2/2/2 1/1/1
f 4/4/4 3/3/3 1/1/1
f 7/7/7 6/6/6 5/5/5
f 8/8/8 7/7/7 5/5/5
f 11/11/11 10/10/10 9/9/9
f 12/12/12 11/11/11 9/9/9
f 15/15/15 14/14/14 13/13/13
f 16/16/16 15/15/15 13/13/13
f 19/19/19 18/18/18 17/17/17
f 20/20/20 19/19/19 17/17/17
f 23/23/23 22/22/22 21/21/21
f 24/24/24 23/23/23 21/21/21
usemtl HammeredMetal_AlbedoTransparency
f 27/27/27 26/26/26 25/25/25
f 29/29/29 25/25/25 28/28/28
f 32/32/32 31/31/31 30/30/30
f 31/31/31 34/34/34 33/33/33
f 34/34/34 36/36/36 35/35/35
f 36/36/36 37/37/37 35/35/35
f 40/40/40 39/39/39 38/38/38
f 42/42/42 38/38/38 41/41/41
f 45/45/45 44/44/44 43/43/43
f 44/44/44 47/47/47 46/46/46
f 47/47/47 49/49/49 48/48/48
f 49/49/49 50/50/50 48/48/48
f 53/53/53 52/52/52 51/51/51
f 54/54/54 53/53/53 51/51/51
f 54/54/54 51/51/51 55/55/55
f 56/56/56 54/54/54 55/55/55
f 59/59/59 58/58/58 57/57/57
f 60/60/60 59/59/59 57/57/57
f 60/60/60 57/57/57 61/61/61
f 62/62/62 59/59/59 60/60/60
f 63/63/63 60/60/60 61/61/61
f 64/64/64 62/62/62 60/60/60
f 64/64/64 60/60/60 63/63/63
f 65/65/65 64/64/64 63/63/63
f 68/68/68 67/67/67 66/66/66
f 69/69/69 68/68/68 66/66/66
f 69/69/69 66/66/66 70/70/70
f 71/71/71 69/69/69 70/70/70
f 74/74/74 73/73/73 72/72/72
f 75/75/75 74/74/74 72/72/72
f 75/75/75 72/72/72 76/76/76
f 77/77/77 75/75/75 76/76/76
f 80/80/80 79/79/79 78/78/78
f 81/81/81 80/80/80 78/78/78
f 81/81/81 78/78/78 82/82/82
f 83/83/83 81/81/81 82/82/82
f 86/86/86 85/85/85 84/84/84
f 87/87/87 86/86/86 84/84/84
f 87/87/87 84/84/84 88/88/88
f 89/89/89 87/87/87 88/88/88
f 92/92/92 91/91/91 90/90/90
f 93/93/93 92/92/92 90/90/90
f 93/93/93 90/90/90 94/94/94
f 95/95/95 93/93/93 94/94/94
f 98/98/98 97/97/97 96/96/96
f 99/99/99 98/98/98 96/96/96
f 99/99/99 100/100/100 98/98/98
f 96/96/96 101/101/101 99/99/99
f 101/101/101 102/102/102 99/99/99
f 96/96/96 103/103/103 101/101/101
f 106/106/106 105/105/105 104/104/104
f 107/107/107 106/106/106 104/104/104
f 107/107/107 104/104/104 108/108/108
f 109/109/109 106/106/106 107/107/107
f 110/110/110 107/107/107 108/108/108
f 111/111/111 109/109/109 107/107/107
f 111/111/111 107/107/107 110/110/110
f 112/112/112 111/111/111 110/110/110
f 115/115/115 114/114/114 113/113/113
f 114/114/114 116/116/116 113/113/113
f 113/113/113 116/116/116 117/117/117
f 116/116/116 118/118/118 117/117/117
f 117/117/117 118/118/118 119/119/119
f 118/118/118 120/120/120 119/119/119
f 123/123/123 122/122/122 121/121/121
f 124/124/124 123/123/123 121/121/121
f 124/124/124 121/121/121 125/125/125
f 126/126/126 123/123/123 124/124/124
f 127/127/127 124/124/124 125/125/125
f 128/128/128 126/126/126 124/124/124
f 128/128/128 124/124/124 127/127/127
f 129/129/129 128/128/128 127/127/127
f 132/132/132 131/131/131 130/130/130
f 131/131/131 133/133/133 130/130/130
f 130/130/130 133/133/133 134/134/134
f 133/133/133 135/135/135 134/134/134
f 138/138/138 137/137/137 136/136/136
f 139/139/139 138/138/138 136/136/136
f 139/139/139 136/136/136 140/140/140
f 141/141/141 138/138/138 139/139/139
f 142/142/142 139/139/139 140/140/140
f 143/143/143 141/141/141 139/139/139
f 143/143/143 139/139/139 142/142/142
f 144/144/144 143/143/143 142/142/142
f 147/147/147 146/146/146 145/145/145
f 146/146/146 148/148/148 145/145/145
f 145/145/145 148/148/148 149/149/149
f 148/148/148 150/150/150 149/149/149
f 153/153/153 152/152/152 151/151/151
f 154/154/154 153/153/153 151/151/151
f 154/154/154 155/155/155 153/153/153
f 151/151/151 156/156/156 154/154/154
f 156/156/156 157/157/157 154/154/154
f 151/151/151 158/158/158 156/156/156
f 161/161/161 160/160/160 159/159/159
f 160/160/160 162/162/162 159/159/159
f 159/159/159 162/162/162 163/163/163
f 162/162/162 164/164/164 163/163/163
f 163/163/163 164/164/164 165/165/165
f 164/164/164 166/166/166 165/165/165
f 169/169/169 168/168/168 167/167/167
f 168/168/168 170/170/170 167/167/167
f 167/167/167 170/170/170 171/171/171
f 170/170/170 172/172/172 171/171/171
f 171/171/171 172/172/172 173/173/173
f 172/172/172 174/174/174 173/173/173
f 177/177/177 176/176/176 175/175/175
f 176/176/176 178/178/178 175/175/175
f 175/175/175 178/178/178 179/179/179
f 178/178/178 180/180/180 179/179/179
f 179/179/179 180/180/180 181/181/181
f 180/180/180 182/182/182 181/181/181
f 185/185/185 184/184/184 183/183/183
f 184/184/184 186/186/186 183/183/183
f 183/183/183 186/186/186 187/187/187
f 186/186/186 188/188/188 187/187/187
f 187/187/187 188/188/188 189/189/189
f 188/188/188 190/190/190 189/189/189
f 193/193/193 192/192/192 191/191/191
f 192/192/192 194/194/194 191/191/191
f 191/191/191 194/194/194 195/195/195
f 194/194/194 196/196/196 195/195/195
f 195/195/195 196/196/196 197/197/197
f 196/196/196 198/198/198 197/197/197
f 201/201/201 200/200/200 199/199/199
f 200/200/200 202/202/202 199/199/199
f 199/199/199 202/202/202 203/203/203
f 202/202/202 204/204/204 203/203/203
f 203/203/203 204/204/204 205/205/205
f 204/204/204 206/206/206 205/205/205
f 209/209/209 208/208/208 207/207/207
f 208/208/208 210/210/210 207/207/207
f 207/207/207 210/210/210 211/211/211
f 210/210/210 212/212/212 211/211/211
f 211/211/211 212/212/212 213/213/213
f 212/212/212 214/214/214 213/213/213
f 217/217/217 216/216/216 215/215/215
f 218/218/218 217/217/217 215/215/215
f 218/218/218 219/219/219 217/217/217
f 215/215/215 220/220/220 218/218/218
f 220/220/220 221/221/221 218/218/218
f 215/215/215 222/222/222 220/220/220
f 225/225/225 224/224/224 223/223/223
f 226/226/226 225/225/225 223/223/223
f 226/226/226 227/227/227 225/225/225
f 223/223/223 228/228/228 226/226/226
f 228/228/228 229/229/229 226/226/226
f 223/223/223 230/230/230 228/228/228
f 233/233/233 232/232/232 231/231/231
f 232/232/232 234/234/234 231/231/231
f 235/235/235 234/234/234 232/232/232
f 236/236/236 231/231/231 234/234/234
f 237/237/237 236/236/236 234/234/234
f 238/238/238 231/231/231 236/236/236
f 241/241/241 240/240/240 239/239/239
f 240/240/240 242/242/242 239/239/239
f 243/243/243 242/242/242 240/240/240
f 244/244/244 239/239/239 242/242/242
f 245/245/245 244/244/244 242/242/242
f 246/246/246 239/239/239 244/244/244
f 249/249/249 248/248/248 247/247/247
f 250/250/250 249/249/249 247/247/247
f 250/250/250 247/247/247 251/251/251
f 252/252/252 250/250/250 251/251/251
f 252/252/252 251/251/251 253/253/253
f 254/254/254 252/252/252 253/253/253
f 257/257/257 256/256/256 255/255/255
f 258/258/258 257/257/257 255/255/255
f 258/258/258 255/255/255 259/259/259
f 260/260/260 258/258/258 259/259/259
f 260/260/260 259/259/259 261/261/261
f 262/262/262 260/260/260 261/261/261
f 265/265/265 264/264/264 263/263/263
f 266/266/266 265/265/265 263/263/263
f 266/266/266 263/263/263 267/267/267
f 268/268/268 266/266/266 267/267/267
f 268/268/268 267/267/267 269/269/269
f 270/270/270 268/268/268 269/269/269
f 273/273/273 272/272/272 271/271/271
f 274/274/274 273/273/273 271/271/271
f 274/274/274 271/271/271 275/275/275
f 276/276/276 274/274/274 275/275/275
f 276/276/276 275/275/275 277/277/277
f 278/278/278 276/276/276 277/277/277
f 281/281/281 280/280/280 279/279/279
f 282/282/282 281/281/281 279/279/279
f 282/282/282 279/279/279 283/283/283
f 284/284/284 282/282/282 283/283/283
f 284/284/284 283/283/283 285/285/285
f 286/286/286 284/284/284 285/285/285
f 289/289/289 288/288/288 287/287/287
f 290/290/290 289/289/289 287/287/287
f 290/290/290 287/287/287 291/291/291
f 292/292/292 290/290/290 291/291/291
f 292/292/292 291/291/291 293/293/293
f 294/294/294 292/292/292 293/293/293
f 297/297/297 296/296/296 295/295/295
f 298/298/298 297/297/297 295/295/295
f 298/298/298 295/295/295 299/299/299
f 300/300/300 298/298/298 299/299/299
f 300/300/300 299/299/299 301/301/301
f 302/302/302 300/300/300 301/301/301
f 305/305/305 304/304/304 303/303/303
f 306/306/306 305/305/305 303/303/303
f 306/306/306 303/303/303 307/307/307
f 308/308/308 306/306/306 307/307/307
f 311/311/311 310/310/310 309/309/309
f 312/312/312 311/311/311 309/309/309
f 312/312/312 309/309/309 313/313/313
f 314/314/314 311/311/311 312/312/312
f 315/315/315 312/312/312 313/313/313
f 316/316/316 314/314/314 312/312/312
f 316/316/316 312/312/312 315/315/315
f 317/317/317 316/316/316 315/315/315
f 320/320/320 319/319/319 318/318/318
f 321/321/321 320/320/320 318/318/318
f 321/321/321 318/318/318 322/322/322
f 323/323/323 321/321/321 322/322/322
f 326/326/326 325/325/325 324/324/324
f 327/327/327 326/326/326 324/324/324
f 327/327/327 324/324/324 328/328/328
f 329/329/329 327/327/327 328/328/328
f 332/332/332 331/331/331 330/330/330
f 333/333/333 332/332/332 330/330/330
f 333/333/333 330/330/330 334/334/334
f 335/335/335 333/333/333 334/334/334
f 338/338/338 337/337/337 336/336/336
f 339/339/339 338/338/338 336/336/336
f 339/339/339 336/336/336 340/340/340
f 341/341/341 339/339/339 340/340/340
f 344/344/344 343/343/343 342/342/342
f 345/345/345 344/344/344 342/342/342
f 345/345/345 342/342/342 346/346/346
f 347/347/347 345/345/345 346/346/346
f 350/350/350 349/349/349 348/348/348
f 351/351/351 350/350/350 348/348/348
f 351/351/351 352/352/352 350/350/350
f 348/348/348 353/353/353 351/351/351
f 353/353/353 354/354/354 351/351/351
f 348/348/348 355/355/355 353/353/353
f 358/358/358 357/357/357 356/356/356
f 359/359/359 358/358/358 356/356/356
f 359/359/359 356/356/356 360/360/360
f 361/361/361 358/358/358 359/359/359
f 362/362/362 359/359/359 360/360/360
f 363/363/363 361/361/361 359/359/359
f 363/363/363 359/359/359 362/362/362
f 364/364/364 363/363/363 362/362/362
f 367/367/367 366/366/366 365/365/365
f 368/368/368 367/367/367 365/365/365
f 368/368/368 365/365/365 369/369/369
f 370/370/370 367/367/367 368/368/368
f 371/371/371 368/368/368 369/369/369
f 372/372/372 370/370/370 368/368/368
f 372/372/372 368/368/368 371/371/371
f 373/373/373 372/372/372 371/371/371
f 376/376/376 375/375/375 374/374/374
f 377/377/377 376/376/376 374/374/374
f 377/377/377 374/374/374 378/378/378
f 379/379/379 376/376/376 377/377/377
f 380/380/380 377/377/377 378/378/378
f 381/381/381 379/379/379 377/377/377
f 381/381/381 377/377/377 380/380/380
f 382/382/382 381/381/381 380/380/380
f 385/385/385 384/384/384 383/383/383
f 386/386/386 385/385/385 383/383/383
f 386/386/386 383/383/383 387/387/387
f 388/388/388 385/385/385 386/386/386
f 389/389/389 386/386/386 387/387/387
f 390/390/390 388/388/388 386/386/386
f 390/390/390 386/386/386 389/389/389
f 391/391/391 390/390/390 389/389/389
f 394/394/394 393/393/393 392/392/392
f 395/395/395 394/394/394 392/392/392
f 395/395/395 396/396/396 394/394/394
f 392/392/392 397/397/397 395/395/395
f 397/397/397 398/398/398 395/395/395
f 392/392/392 399/399/399 397/397/397
f 402/402/402 401/401/401 400/400/400
f 401/401/401 403/403/403 400/400/400
f 404/404/404 403/403/403 401/401/401
f 405/405/405 400/400/400 403/403/403
f 406/406/406 405/405/405 403/403/403
f 407/407/407 400/400/400 405/405/405
f 410/410/410 409/409/409 408/408/408
f 409/409/409 411/411/411 408/408/408
f 412/412/412 411/411/411 409/409/409
f 413/413/413 408/408/408 411/411/411
f 414/414/414 413/413/413 411/411/411
f 415/415/415 408/408/408 413/413/413
f 418/418/418 417/417/417 416/416/416
f 419/419/419 418/418/418 416/416/416
f 419/419/419 416/416/416 420/420/420
f 421/421/421 419/419/419 420/420/420
f 421/421/421 420/420/420 422/422/422
f 423/423/423 421/421/421 422/422/422
f 426/426/426 425/425/425 424/424/424
f 427/427/427 426/426/426 424/424/424
f 427/427/427 424/424/424 428/428/428
f 429/429/429 427/427/427 428/428/428
f 429/429/429 428/428/428 430/430/430
f 431/431/431 429/429/429 430/430/430
f 434/434/434 433/433/433 432/432/432
f 435/435/435 434/434/434 432/432/432
f 435/435/435 432/432/432 436/436/436
f 437/437/437 435/435/435 436/436/436
f 437/437/437 436/436/436 438/438/438
f 439/439/439 437/437/437 438/438/438
f 442/442/442 441/441/441 440/440/440
f 443/443/443 442/442/442 440/440/440
f 443/443/443 440/440/440 444/444/444
f 445/445/445 443/443/443 444/444/444
f 445/445/445 444/444/444 446/446/446
f 447/447/447 445/445/445 446/446/446
f 450/450/450 449/449/449 448/448/448
f 451/451/451 450/450/450 448/448/448
f 451/451/451 448/448/448 452/452/452
f 453/453/453 451/451/451 452/452/452
f 453/453/453 452/452/452 454/454/454
f 455/455/455 453/453/453 454/454/454
f 458/458/458 457/457/457 456/456/456
f 459/459/459 458/458/458 456/456/456
f 459/459/459 456/456/456 460/460/460
f 461/461/461 459/459/459 460/460/460
f 461/461/461 460/460/460 462/462/462
f 463/463/463 461/461/461 462/462/462
f 466/466/466 465/465/465 464/464/464
f 467/467/467 466/466/466 464/464/464
f 467/467/467 464/464/464 468/468/468
f 469/469/469 467/467/467 468/468/468
f 469/469/469 468/468/468 470/470/470
f 471/471/471 469/469/469 470/470/470
f 474/474/474 473/473/473 472/472/472
f 475/475/475 474/474/474 472/472/472
f 474/474/474 476/476/476 473/473/473
f 475/475/475 472/472/472 477/477/477
f 478/478/478 475/475/475 477/477/477
f 476/476/476 479/479/479 473/473/473
f 476/476/476 480/480/480 479/479/479
f 478/478/478 477/477/477 481/481/481
f 482/482/482 478/478/478 481/481/481
f 480/480/480 483/483/483 479/479/479
f 480/480/480 484/484/484 483/483/483
f 482/482/482 481/481/481 485/485/485
f 486/486/486 482/482/482 485/485/485
f 484/484/484 486/486/486 487/487/487
f 484/484/484 487/487/487 483/483/483
f 486/486/486 485/485/485 487/487/487
f 477/477/477 472/472/472 488/488/488
f 472/472/472 473/473/473 489/489/489
f 472/472/472 489/489/489 488/488/488
f 473/473/473 479/479/479 490/490/490
f 473/473/473 490/490/490 489/489/489
f 481/481/481 477/477/477 491/491/491
f 477/477/477 488/488/488 491/491/491
f 479/479/479 483/483/483 492/492/492
f 479/479/479 492/492/492 490/490/490
f 483/483/483 487/487/487 493/493/493
f 483/483/483 493/493/493 492/492/492
f 487/487/487 485/485/485 494/494/494
f 487/487/487 494/494/494 493/493/493
f 485/485/485 481/481/481 495/495/495
f 481/481/481 491/491/491 495/495/495
f 485/485/485 495/495/495 494/494/494
f 488/488/488 489/489/489 496/496/496
f 488/488/488 496/496/496 497/497/497
f 491/491/491 488/488/488 497/497/497
f 489/489/489 498/498/498 496/496/496
f 489/489/489 490/490/490 498/498/498
f 491/491/491 497/497/497 499/499/499
f 495/495/495 491/491/491 499/499/499
f 490/490/490 500/500/500 498/498/498
f 495/495/495 499/499/499 501/501/501
f 494/494/494 495/495/495 501/501/501
f 490/490/490 492/492/492 500/500/500
f 494/494/494 501/501/501 502/502/502
f 492/492/492 503/503/503 500/500/500
f 493/493/493 494/494/494 502/502/502
f 493/493/493 502/502/502 503/503/503
f 492/492/492 493/493/493 503/503/503
f 506/506/506 505/505/505 504/504/504
f 507/507/507 506/506/506 504/504/504
f 506/506/506 508/508/508 505/505/505
f 507/507/507 504/504/504 509/509/509
f 510/510/510 507/507/507 509/509/509
f 508/508/508 511/511/511 505/505/505
f 508/508/508 512/512/512 511/511/511
f 510/510/510 509/509/509 513/513/513
f 514/514/514 510/510/510 513/513/513
f 512/512/512 515/515/515 511/511/511
f 512/512/512 516/516/516 515/515/515
f 514/514/514 513/513/513 517/517/517
f 518/518/518 514/514/514 517/517/517
f 516/516/516 518/518/518 519/519/519
f 516/516/516 519/519/519 515/515/515
f 518/518/518 517/517/517 519/519/519
f 509/509/509 504/504/504 520/520/520
f 504/504/504 505/505/505 521/521/521
f 504/504/504 521/521/521 520/520/520
f 505/505/505 511/511/511 522/522/522
f 505/505/505 522/522/522 521/521/521
f 513/513/513 509/509/509 523/523/523
f 509/509/509 520/520/520 523/523/523
f 511/511/511 515/515/515 524/524/524
f 511/511/511 524/524/524 522/522/522
f 515/515/515 519/519/519 525/525/525
f 515/515/515 525/525/525 524/524/524
f 519/519/519 517/517/517 526/526/526
f 519/519/519 526/526/526 525/525/525
f 517/517/517 513/513/513 527/527/527
f 513/513/513 523/523/523 527/527/527
f 517/517/517 527/527/527 526/526/526
f 520/520/520 521/521/521 528/528/528
f 520/520/520 528/528/528 529/529/529
f 523/523/523 520/520/520 529/529/529
f 521/521/521 530/530/530 528/528/528
f 521/521/521 522/522/522 530/530/530
f 523/523/523 529/529/529 531/531/531
f 527/527/527 523/523/523 531/531/531
f 522/522/522 532/532/532 530/530/530
f 527/527/527 531/531/531 533/533/533
f 526/526/526 527/527/527 533/533/533
f 522/522/522 524/524/524 532/532/532
f 526/526/526 533/533/533 534/534/534
f 524/524/524 535/535/535 532/532/532
f 525/525/525 526/526/526 534/534/534
f 525/525/525 534/534/534 535/535/535
f 524/524/524 525/525/525 535/535/535
