mtllib material.mtl
usemtl material_0
v -0.00499999 0.01000015 0.00500015
v -0.00499999 0.01000015 -0.00500000
v 0.00499999 0.01000015 -0.00500000
v 0.00499999 0.01000015 0.00500015
v -0.11172360 0.38191790 0.16942870
v -0.10899440 0.26653160 0.16983370
v -0.11161630 0.26653560 0.16948360
v -0.10877780 0.38191800 0.16996700
v -0.10738820 0.26550410 0.16948710
v -0.10854220 0.39211080 0.16945910
v -0.10716740 0.38176180 0.16952090
v -0.10616300 0.38995650 0.17002450
v -0.10201500 0.39540250 0.16936170
v -0.10488170 0.38899590 0.16947380
v -0.09849396 0.39394490 0.17012430
v 0.10325900 0.39540250 0.16936170
v -0.09897087 0.39223970 0.16945600
v 0.09938262 0.39379150 0.17006420
v 0.10827880 0.39192070 0.16951820
v 0.09897400 0.39223970 0.16945600
v 0.10614500 0.38994610 0.17001700
v 0.11186370 0.38185080 0.16940730
v 0.10488490 0.38899570 0.16947380
v 0.10873600 0.38194470 0.16995620
v 0.11161900 0.26653550 0.16948380
v 0.10717010 0.38176130 0.16952090
v 0.10899750 0.26653160 0.16983350
v 0.10739140 0.26550410 0.16948710
v -0.10101170 0.39607730 0.16748710
v -0.10854220 0.39211080 0.16945910
v -0.10773620 0.39235600 0.16711470
v -0.10201500 0.39540250 0.16936170
v 0.10101410 0.39607730 0.16748700
v 0.10325900 0.39540250 0.16936170
v -0.10773620 0.39235600 0.16711470
v -0.10854220 0.39211080 0.16945910
v -0.11172360 0.38191790 0.16942870
v -0.11062090 0.38259880 0.16685090
v -0.11161630 0.26653560 0.16948360
v -0.11036530 0.26556270 0.16686480
v 0.11036800 0.26556270 0.16686510
v 0.11161900 0.26653550 0.16948380
v 0.11186370 0.38185080 0.16940730
v 0.11062470 0.38259990 0.16685120
v 0.10827880 0.39192070 0.16951820
v 0.10773920 0.39235580 0.16711490
v 0.10325900 0.39540250 0.16936170
v 0.10101410 0.39607730 0.16748700
v -0.10511780 0.38920320 0.16851600
v -0.10488170 0.38899590 0.16947380
v -0.09897087 0.39223970 0.16945600
v -0.09905853 0.39258190 0.16851600
v 0.09897400 0.39223970 0.16945600
v 0.09906128 0.39258190 0.16851600
v 0.10488490 0.38899570 0.16947380
v 0.10512080 0.38920310 0.16851600
v -0.10743350 0.38180910 0.16855660
v -0.10488170 0.38899590 0.16947380
v -0.10511780 0.38920320 0.16851600
v -0.10716740 0.38176180 0.16952090
v -0.10762730 0.26550520 0.16851600
v -0.10738820 0.26550410 0.16948710
v 0.10743590 0.38180850 0.16855660
v 0.10739140 0.26550410 0.16948710
v 0.10763030 0.26550520 0.16851600
v 0.10717010 0.38176130 0.16952090
v 0.10512080 0.38920310 0.16851600
v 0.10488490 0.38899570 0.16947380
v -0.10750760 0.26518430 0.17109390
v -0.10835790 0.26729060 0.17230710
v 0.10827850 0.26729060 0.17174290
v 0.10742920 0.26518430 0.17053400
v -0.14001500 0.26518430 0.12186090
v -0.11492330 0.26729060 0.16776950
v -0.11402170 0.26518430 0.16659200
v -0.14112210 0.26729060 0.12268470
v -0.14249270 0.26518430 0.11255980
v -0.14361940 0.26729060 0.11331000
v -0.14209710 0.26518430 -0.12813190
v -0.14322080 0.26729060 -0.12928500
v -0.11402170 0.26518430 0.16659200
v -0.11492330 0.26729060 0.16776950
v -0.10835790 0.26729060 0.17230710
v -0.10750760 0.26518430 0.17109390
v 0.14249270 0.26518430 0.11255980
v 0.14327060 0.26729060 -0.12923740
v 0.14214630 0.26518430 -0.12808460
v 0.14361940 0.26729060 0.11331010
v 0.14001490 0.26518430 0.12186090
v 0.14112210 0.26729060 0.12268470
v 0.11393400 0.26518430 0.16665080
v 0.11483490 0.26729060 0.16782880
v 0.10742920 0.26518430 0.17053400
v 0.10827850 0.26729060 0.17174290
v 0.11483490 0.26729060 0.16782880
v 0.11393400 0.26518430 0.16665080
v 0.13555720 0.26729060 -0.13694790
v 0.13449370 0.26518430 -0.13573470
v 0.13449370 0.26518430 -0.13573470
v 0.13555720 0.26729060 -0.13694790
v -0.13551270 0.26729060 -0.13637190
v -0.13444950 0.26518430 -0.13516330
v -0.13444950 0.26518430 -0.13516330
v -0.13551270 0.26729060 -0.13637190
v -0.13551270 0.26729060 -0.13637190
v -0.13444950 0.26939690 -0.13516330
v -0.14209710 0.26939690 -0.12813190
v -0.14322080 0.26729060 -0.12928500
v -0.14249270 0.26939690 0.11255980
v -0.14361940 0.26729060 0.11331000
v -0.14001500 0.26939690 0.12186090
v -0.14112210 0.26729060 0.12268470
v -0.11402170 0.26939690 0.16659200
v -0.11492330 0.26729060 0.16776950
v 0.13555720 0.26729060 -0.13694790
v 0.13449370 0.26939690 -0.13573470
v -0.13444950 0.26939690 -0.13516330
v -0.13551270 0.26729060 -0.13637190
v 0.14327060 0.26729060 -0.12923740
v 0.13449370 0.26939690 -0.13573470
v 0.13555720 0.26729060 -0.13694790
v 0.14214630 0.26939690 -0.12808460
v 0.14361940 0.26729060 0.11331010
v 0.14249270 0.26939690 0.11255980
v 0.14112210 0.26729060 0.12268470
v 0.14001490 0.26939690 0.12186090
v 0.11483490 0.26729060 0.16782880
v 0.11393400 0.26939690 0.16665080
v 0.10827850 0.26729060 0.17174290
v 0.10742920 0.26939690 0.17053400
v 0.11393400 0.26939690 0.16665080
v 0.11483490 0.26729060 0.16782880
v -0.10835790 0.26729060 0.17230710
v -0.10750760 0.26939690 0.17109390
v 0.10742920 0.26939690 0.17053400
v 0.10827850 0.26729060 0.17174290
v -0.11492330 0.26729060 0.16776950
v -0.11402170 0.26939690 0.16659200
v -0.10750760 0.26939690 0.17109390
v -0.10835790 0.26729060 0.17230710
v -0.13741130 0.42605200 0.10943560
v -0.13518450 0.43148040 0.10948440
v -0.13459210 0.43066400 0.11456610
v -0.13682390 0.42522020 0.11454920
v -0.13741110 0.42235540 0.10944700
v -0.13682160 0.42154310 0.11456150
v -0.13740130 0.26867040 0.10991580
v -0.13672740 0.26867040 0.11506530
v -0.13672740 0.26867040 0.11506530
v 0.13672740 0.26867040 0.11506570
v 0.13740100 0.26867040 0.10991620
v -0.13740130 0.26867040 0.10991580
v -0.13518450 0.43148040 0.10948440
v -0.12919050 0.43290930 0.11459780
v -0.13459210 0.43066400 0.11456610
v -0.12976550 0.43370720 0.10950290
v 0.12919240 0.43290920 0.11459780
v 0.12976700 0.43370730 0.10950290
v 0.13459270 0.43066420 0.11456610
v 0.13518540 0.43148050 0.10948460
v 0.13518540 0.43148050 0.10948460
v 0.13682390 0.42522040 0.11454950
v 0.13459270 0.43066420 0.11456610
v 0.13741100 0.42605250 0.10943590
v 0.13682160 0.42154330 0.11456150
v 0.13741080 0.42235590 0.10944720
v 0.13672740 0.26867040 0.11506570
v 0.13740100 0.26867040 0.10991620
v -0.03335693 0.18334870 0.25018690
v -0.03789459 0.18548720 0.17340090
v -0.03789459 0.18548710 0.25018690
v -0.03335693 0.18334880 0.17340090
v -0.00000038 0.18334880 0.17340090
v -0.00000038 0.18334870 0.25018680
v 0.03335632 0.18334880 0.17340090
v 0.03335632 0.18334870 0.25018680
v 0.03789398 0.18548710 0.25018680
v 0.03789398 0.18548710 0.17340090
v -0.03789459 0.18548710 0.25018690
v -0.03789459 0.18548720 0.17340090
v -0.04003296 0.19002540 0.17340090
v -0.04003296 0.19002540 0.25018690
v -0.04003296 0.22062850 0.24377670
v -0.04003296 0.22041290 0.17340090
v -0.04003296 0.25432120 0.17340090
v -0.04003296 0.25438840 0.23766540
v -0.04003296 0.28341700 0.23442230
v -0.04003296 0.28338660 0.17340090
v -0.04003296 0.31268170 0.17340090
v -0.04003296 0.31268680 0.23280970
v -0.04003296 0.34213430 0.23280970
v -0.04003296 0.34213440 0.17340090
v -0.03789459 0.34667270 0.17340090
v -0.03789459 0.34667260 0.23280970
v 0.04003235 0.19002540 0.25018690
v 0.03789398 0.18548710 0.17340090
v 0.03789398 0.18548710 0.25018680
v 0.04003235 0.19002540 0.17340090
v 0.04003235 0.22041290 0.17340090
v 0.04003235 0.22062840 0.24377670
v 0.04003235 0.25438830 0.23766540
v 0.04003235 0.25432120 0.17340090
v 0.04003235 0.28338660 0.17340090
v 0.04003235 0.28341700 0.23442230
v 0.04003235 0.31268680 0.23280970
v 0.04003235 0.31268170 0.17340090
v 0.04003235 0.34213440 0.17340090
v 0.04003235 0.34213430 0.23280970
v 0.03789398 0.34667260 0.23280970
v 0.03789398 0.34667270 0.17340090
v -0.03789459 0.34667260 0.23280970
v -0.03789459 0.34667270 0.17340090
v -0.03335693 0.34881100 0.17340090
v -0.03335693 0.34881090 0.23280970
v -0.00000038 0.34881100 0.17340090
v -0.00000038 0.34881090 0.23280970
v 0.03335632 0.34881090 0.23280970
v 0.03335632 0.34881100 0.17340090
v 0.03789398 0.34667270 0.17340090
v 0.03789398 0.34667260 0.23280970
v 0.00000031 0.00216555 0.28480290
v 0.03537045 0.00216555 0.34373290
v 0.03537022 0.00216555 0.28480290
v 0.00000015 0.00216555 0.34374140
v -0.03536981 0.00216555 0.34373290
v -0.03536960 0.00216555 0.28480290
v 0.00000015 0.00305810 0.34589660
v 0.03537045 0.00306058 0.34589420
v -0.03536981 0.00306058 0.34589420
v -0.10750760 0.25959690 0.17399910
v -0.10835780 0.26170320 0.17521220
v 0.10827850 0.26170320 0.17464790
v 0.10742890 0.25959690 0.17343920
v -0.14001490 0.25959690 0.12186090
v -0.11492340 0.26170320 0.17067460
v -0.11402190 0.25959690 0.16949700
v -0.14112210 0.26170320 0.12268470
v -0.14249300 0.25959690 0.11255980
v -0.14361970 0.26170320 0.11331000
v -0.14209750 0.25959690 -0.12813190
v -0.14322110 0.26170320 -0.12928500
v -0.11402190 0.25959690 0.16949700
v -0.11492340 0.26170320 0.17067460
v -0.10835780 0.26170320 0.17521220
v -0.10750760 0.25959690 0.17399910
v -0.10581390 0.25959690 0.17027820
v 0.10581630 0.25959690 0.16966480
v -0.11112460 0.25959690 0.16647440
v 0.10742890 0.25959690 0.17343920
v -0.14001490 0.25959690 0.12186090
v 0.11112580 0.25959690 0.16647430
v -0.13638520 0.25959690 0.11995890
v 0.11393400 0.25959690 0.16955580
v -0.14249300 0.25959690 0.11255980
v 0.13638460 0.25959690 0.11995890
v -0.13866360 0.25959690 0.11140060
v 0.14001490 0.25959690 0.12186090
v -0.14209750 0.25959690 -0.12813190
v 0.13866240 0.25959690 0.11140060
v -0.13866360 0.25959690 -0.12589160
v 0.14249240 0.25959690 0.11255980
v -0.13444980 0.25959690 -0.13516330
v 0.13866240 0.25959690 -0.12589160
v -0.13240080 0.25959690 -0.13154040
v 0.14214630 0.25959690 -0.12808460
v 0.13449370 0.25959690 -0.13573470
v 0.13240080 0.25959690 -0.13215390
v 0.14249240 0.25959690 0.11255980
v 0.14327060 0.26170320 -0.12923740
v 0.14214630 0.25959690 -0.12808460
v 0.14361910 0.26170320 0.11331010
v 0.14001490 0.25959690 0.12186090
v 0.14112210 0.26170320 0.12268470
v 0.11393400 0.25959690 0.16955580
v 0.11483490 0.26170320 0.17073390
v 0.10827850 0.26170320 0.17464790
v 0.11483490 0.26170320 0.17073390
v 0.13555690 0.26170320 -0.13694790
v 0.13449370 0.25959690 -0.13573470
v 0.13449370 0.25959690 -0.13573470
v 0.13555690 0.26170320 -0.13694790
v -0.13551300 0.26170320 -0.13637190
v -0.13444980 0.25959690 -0.13516330
v -0.13444980 0.25959690 -0.13516330
v -0.13551300 0.26170320 -0.13637190
v -0.13444980 0.26380950 -0.13516330
v -0.14209750 0.26380950 -0.12813190
v -0.14249300 0.26380950 0.11255980
v -0.14001490 0.26380950 0.12186090
v -0.11402190 0.26380950 0.16949700
v 0.13449370 0.26380950 -0.13573470
v -0.13444980 0.26380950 -0.13516330
v 0.13449370 0.26380950 -0.13573470
v 0.14214630 0.26380950 -0.12808460
v 0.14249240 0.26380950 0.11255980
v 0.14001490 0.26380950 0.12186090
v 0.11393400 0.26380950 0.16955580
v 0.10827850 0.26170320 0.17464790
v 0.11393400 0.26380950 0.16955580
v 0.11483490 0.26170320 0.17073390
v 0.10742890 0.26380950 0.17343920
v 0.11112580 0.26380950 0.16647430
v 0.13638460 0.26380950 0.11995890
v 0.10581630 0.26380950 0.16966480
v 0.14001490 0.26380950 0.12186090
v 0.13866240 0.26380950 0.11140060
v 0.14249240 0.26380950 0.11255980
v 0.13866240 0.26380950 -0.12589160
v 0.14214630 0.26380950 -0.12808460
v 0.13240080 0.26380950 -0.13215390
v 0.13449370 0.26380950 -0.13573470
v -0.13240080 0.26380950 -0.13154040
v -0.13444980 0.26380950 -0.13516330
v -0.13866360 0.26380950 -0.12589160
v -0.14209750 0.26380950 -0.12813190
v -0.13866360 0.26380950 0.11140060
v -0.14249300 0.26380950 0.11255980
v -0.13638520 0.26380950 0.11995890
v -0.14001490 0.26380950 0.12186090
v -0.11112460 0.26380950 0.16647440
v -0.11402190 0.26380950 0.16949700
v -0.10581390 0.26380950 0.17027820
v -0.10750760 0.26380950 0.17399910
v -0.11492340 0.26170320 0.17067460
v -0.10835780 0.26170320 0.17521220
v -0.10750760 0.26380950 0.17399910
v 0.10742890 0.26380950 0.17343920
v 0.11819500 0.12881820 0.10627260
v 0.12017680 0.20477390 0.09922890
v 0.12029560 0.12759280 0.09926537
v 0.11882100 0.20557310 0.10520590
v 0.09623276 0.12887290 0.14700470
v 0.09641739 0.20557580 0.14715770
v 0.09157181 0.12889260 0.14926000
v 0.09175735 0.20559240 0.14980540
v 0.09641739 0.20557580 0.14715770
v 0.09623276 0.12887290 0.14700470
v -0.09622360 0.12888770 0.14699520
v -0.09177200 0.20555610 0.15033190
v -0.09160782 0.12883450 0.14980260
v -0.09641220 0.20556790 0.14715260
v -0.11826490 0.12863830 0.10621450
v -0.11881300 0.20544140 0.10514010
v -0.12029740 0.12759660 0.09926102
v -0.12017620 0.20477490 0.09922455
v 0.03791245 0.25450520 0.23766010
v 0.04003235 0.25438830 0.23766540
v 0.04003235 0.22062840 0.24377670
v 0.04003235 0.28341700 0.23442230
v 0.03791245 0.22084020 0.24378730
v 0.03791245 0.28326530 0.23442890
v 0.03791245 0.31248570 0.23280970
v 0.04003235 0.31268680 0.23280970
v 0.03791245 0.34171260 0.23280970
v 0.04003235 0.34213430 0.23280970
v 0.03645432 0.34523280 0.23280970
v 0.03789398 0.34667260 0.23280970
v 0.03791245 0.19044710 0.25018690
v 0.04003235 0.19002540 0.25018690
v 0.03789398 0.18548710 0.25018680
v 0.03645432 0.18692690 0.25018680
v 0.03335632 0.18334870 0.25018680
v 0.03293472 0.18546870 0.25018680
v -0.00000038 0.18334870 0.25018680
v -0.00000023 0.18546870 0.25018680
v -0.03335693 0.18334870 0.25018690
v -0.03293503 0.18546870 0.25018690
v -0.03789459 0.18548710 0.25018690
v -0.03645462 0.18692690 0.25018690
v -0.04003296 0.19002540 0.25018690
v -0.03791267 0.19044710 0.25018690
v -0.04003296 0.22062850 0.24377670
v -0.03791267 0.22084020 0.24378730
v -0.04003296 0.25438840 0.23766540
v -0.03791267 0.25450520 0.23766010
v -0.04003296 0.28341700 0.23442230
v -0.03791267 0.28326530 0.23442890
v -0.04003296 0.31268680 0.23280970
v -0.03791267 0.31248570 0.23280970
v -0.04003296 0.34213430 0.23280970
v -0.03791267 0.34171260 0.23280970
v -0.03789459 0.34667260 0.23280970
v -0.03645462 0.34523280 0.23280970
v -0.03335693 0.34881090 0.23280970
v -0.03293503 0.34669100 0.23280970
v -0.00000038 0.34881090 0.23280970
v -0.00000023 0.34669100 0.23280970
v 0.03293472 0.34669100 0.23280970
v 0.03335632 0.34881090 0.23280970
v 0.00000015 0.00521294 0.34678890
v 0.03537045 0.00306058 0.34589420
v 0.00000015 0.00305810 0.34589660
v 0.03537045 0.00522138 0.34678890
v -0.03536981 0.00306058 0.34589420
v 0.03537045 0.02995850 0.34678890
v -0.03536981 0.00522138 0.34678890
v 0.00000031 0.02995850 0.34678890
v -0.03536981 0.02995850 0.34678890
v -0.03791267 0.19044720 0.17340090
v -0.04003296 0.19002540 0.17340090
v -0.03789459 0.18548720 0.17340090
v -0.04003296 0.22041290 0.17340090
v -0.03645462 0.18692690 0.17340090
v -0.03791267 0.22061030 0.17340090
v -0.03335693 0.18334880 0.17340090
v -0.03293503 0.18546870 0.17340090
v -0.03791267 0.25445220 0.17340090
v -0.04003296 0.25432120 0.17340090
v -0.00000038 0.18334880 0.17340090
v -0.00000023 0.18546870 0.17340090
v -0.04003296 0.28338660 0.17340090
v -0.03791267 0.28323750 0.17340090
v -0.03791267 0.31247730 0.17340090
v -0.04003296 0.31268170 0.17340090
v -0.03791267 0.34171270 0.17340090
v -0.04003296 0.34213440 0.17340090
v -0.03645462 0.34523290 0.17340090
v -0.03789459 0.34667270 0.17340090
v -0.03293503 0.34669100 0.17340090
v -0.03335693 0.34881100 0.17340090
v -0.00000023 0.34669100 0.17340090
v -0.00000038 0.34881100 0.17340090
v 0.03293472 0.34669100 0.17340090
v 0.03335632 0.34881100 0.17340090
v 0.03645432 0.34523290 0.17340090
v 0.03789398 0.34667270 0.17340090
v 0.03791245 0.34171270 0.17340090
v 0.04003235 0.34213440 0.17340090
v 0.03791245 0.31247730 0.17340090
v 0.04003235 0.31268170 0.17340090
v 0.03791245 0.28323750 0.17340090
v 0.04003235 0.28338660 0.17340090
v 0.03791245 0.25445220 0.17340090
v 0.04003235 0.25432120 0.17340090
v 0.03791245 0.22061030 0.17340090
v 0.04003235 0.22041290 0.17340090
v 0.03791245 0.19044720 0.17340090
v 0.04003235 0.19002540 0.17340090
v 0.03645432 0.18692690 0.17340090
v 0.03789398 0.18548710 0.17340090
v 0.03293472 0.18546870 0.17340090
v 0.03335632 0.18334880 0.17340090
v 0.10581660 0.26518430 0.16675970
v -0.10581380 0.26518430 0.16737320
v -0.10750760 0.26518430 0.17109390
v 0.10742920 0.26518430 0.17053400
v -0.11402170 0.26518430 0.16659200
v 0.11112610 0.26518430 0.16356920
v -0.11112430 0.26518430 0.16356930
v 0.11393400 0.26518430 0.16665080
v -0.14001500 0.26518430 0.12186090
v 0.13638490 0.26518430 0.11995890
v -0.13638520 0.26518430 0.11995890
v 0.14001490 0.26518430 0.12186090
v -0.14249270 0.26518430 0.11255980
v 0.13866270 0.26518430 0.11140060
v -0.13866320 0.26518430 0.11140060
v 0.14249270 0.26518430 0.11255980
v -0.14209710 0.26518430 -0.12813190
v 0.13866270 0.26518430 -0.12589160
v -0.13866320 0.26518430 -0.12589160
v 0.14214630 0.26518430 -0.12808460
v -0.13444950 0.26518430 -0.13516330
v 0.13240080 0.26518430 -0.13215390
v -0.13240090 0.26518430 -0.13154040
v 0.13449370 0.26518430 -0.13573470
v 0.10581660 0.26939690 0.16675970
v -0.10750760 0.26939690 0.17109390
v -0.10581380 0.26939690 0.16737320
v 0.10742920 0.26939690 0.17053400
v -0.11402170 0.26939690 0.16659200
v 0.11112610 0.26939690 0.16356920
v -0.11112430 0.26939690 0.16356930
v 0.11393400 0.26939690 0.16665080
v -0.14001500 0.26939690 0.12186090
v 0.13638490 0.26939690 0.11995890
v -0.13638520 0.26939690 0.11995890
v 0.14001490 0.26939690 0.12186090
v -0.14249270 0.26939690 0.11255980
v 0.13866270 0.26939690 0.11140060
v -0.13866320 0.26939690 0.11140060
v 0.14249270 0.26939690 0.11255980
v -0.14209710 0.26939690 -0.12813190
v 0.13866270 0.26939690 -0.12589160
v -0.13866320 0.26939690 -0.12589160
v 0.14214630 0.26939690 -0.12808460
v -0.13444950 0.26939690 -0.13516330
v 0.13240080 0.26939690 -0.13215390
v -0.13240090 0.26939690 -0.13154040
v 0.13449370 0.26939690 -0.13573470
vn 0.00000000 1.00000000 0.00000000
vn 0.00000000 1.00000000 0.00000000
vn 0.00000000 1.00000000 0.00000000
vn 0.00000000 1.00000000 0.00000000
vn -0.15917520 0.00321079 0.98724510
vn 0.01890701 -0.00066958 0.99982100
vn -0.15756940 -0.00026096 0.98750790
vn -0.01997968 0.00077109 0.99980010
vn 0.23887370 -0.00115126 0.97104990
vn -0.14338770 0.12136780 0.98219650
vn 0.24253330 -0.00744660 0.97011450
vn -0.05844348 0.04431387 0.99730670
vn -0.03422686 0.83989220 0.54167310
vn 0.24398000 -0.22473920 0.94338020
vn 0.00000584 0.11569200 0.99328520
vn 0.05004258 0.81019170 0.58402500
vn 0.01019201 -0.36502810 0.93094070
vn -0.00035516 0.17476510 0.98461010
vn 0.13812890 0.10827060 0.98447850
vn -0.00561516 -0.36342740 0.93160560
vn 0.05305133 0.03161242 0.99809130
vn 0.15574240 0.00276611 0.98779390
vn -0.23588310 -0.20300090 0.95034190
vn 0.02100643 0.00068443 0.99977920
vn 0.15441270 -0.00018642 0.98800640
vn -0.24231470 -0.00727362 0.97017040
vn -0.01612712 -0.00061706 0.99986970
vn -0.23874260 -0.00115365 0.97108220
vn -0.00930744 0.94291000 0.33291760
vn -0.46760330 0.88390400 -0.00780843
vn -0.46760330 0.88390400 -0.00780843
vn -0.03422686 0.83989220 0.54167310
vn 0.00588378 0.94240360 0.33442600
vn 0.05004258 0.81019170 0.58402500
vn -0.91131470 0.28153090 -0.30040950
vn -0.91131470 0.28153090 -0.30040950
vn -0.91307420 0.01331848 -0.40757600
vn -0.91493010 0.02785471 -0.40265010
vn -0.91095140 -0.00154496 -0.41251070
vn -0.91095140 -0.00154496 -0.41251080
vn 0.90114500 -0.00211328 -0.43351260
vn 0.90114500 -0.00211328 -0.43351260
vn 0.90465100 0.01319932 -0.42594880
vn 0.90825630 0.03037024 -0.41731070
vn 0.84653630 0.48086220 -0.22835880
vn 0.79575600 0.56807410 -0.20991460
vn 0.05004258 0.81019170 0.58402500
vn 0.00588378 0.94240360 0.33442600
vn 0.74638420 -0.58479820 -0.31768190
vn 0.75054590 -0.57967980 -0.31725730
vn 0.01539903 -0.93938300 -0.34252380
vn 0.01535175 -0.93938420 -0.34252260
vn -0.01540298 -0.93938400 -0.34252070
vn -0.01534179 -0.93938560 -0.34251900
vn -0.75061050 -0.57968630 -0.31709250
vn -0.74638510 -0.58488230 -0.31752470
vn 0.96679570 -0.01970647 -0.25478930
vn 0.75054590 -0.57967980 -0.31725730
vn 0.74638420 -0.58479820 -0.31768190
vn 0.96681500 -0.01933619 -0.25474470
vn 0.96757660 -0.00164443 -0.25257230
vn 0.96757660 -0.00164443 -0.25257230
vn -0.96684970 -0.01970255 -0.25458460
vn -0.96762910 -0.00164854 -0.25237110
vn -0.96762910 -0.00164854 -0.25237110
vn -0.96686870 -0.01933625 -0.25454060
vn -0.74638510 -0.58488230 -0.31752470
vn -0.75061050 -0.57968630 -0.31709250
vn -0.01230532 -0.50283280 0.86429610
vn -0.02005588 -0.50511120 0.86282120
vn 0.02175390 -0.50424360 0.86328740
vn 0.01442864 -0.50209570 0.86469170
vn -0.74522420 -0.54305730 0.38694890
vn -0.69103970 -0.55481620 0.46329590
vn -0.69770950 -0.55315340 0.45521720
vn -0.74015650 -0.54377010 0.39557850
vn -0.88098730 -0.47311190 0.00515380
vn -0.88015690 -0.47456710 0.01048836
vn -0.87683510 -0.48024910 -0.02282448
vn -0.87280500 -0.48656510 -0.03828842
vn -0.69770950 -0.55315340 0.45521720
vn -0.69103970 -0.55481620 0.46329590
vn -0.02005588 -0.50511120 0.86282120
vn -0.01230532 -0.50283280 0.86429610
vn 0.88094150 -0.47319520 0.00533034
vn 0.87264100 -0.48683620 -0.03857720
vn 0.87688200 -0.48018840 -0.02229513
vn 0.88011090 -0.47464850 0.01066090
vn 0.74487320 -0.54311410 0.38754480
vn 0.73980080 -0.54382240 0.39617170
vn 0.69402800 -0.55400650 0.45978470
vn 0.68806910 -0.55545740 0.46693470
vn 0.01442864 -0.50209570 0.86469170
vn 0.02175390 -0.50424360 0.86328740
vn 0.68806910 -0.55545740 0.46693470
vn 0.69402800 -0.55400650 0.45978470
vn 0.02941503 -0.51000590 -0.85966780
vn 0.01767256 -0.50571750 -0.86251810
vn 0.01767256 -0.50571750 -0.86251810
vn 0.02941503 -0.51000590 -0.85966780
vn -0.03086211 -0.50914770 -0.86012570
vn -0.01942025 -0.50497350 -0.86291640
vn -0.01942025 -0.50497350 -0.86291640
vn -0.03086211 -0.50914770 -0.86012570
vn -0.03086240 0.50915640 -0.86012060
vn -0.01942027 0.50498240 -0.86291120
vn -0.87683340 0.48025230 -0.02282448
vn -0.87280320 0.48656830 -0.03828860
vn -0.88098550 0.47311530 0.00515373
vn -0.88015500 0.47457060 0.01048822
vn -0.74522110 0.54306060 0.38695060
vn -0.74015340 0.54377300 0.39558040
vn -0.69770730 0.55315560 0.45521790
vn -0.69103780 0.55481850 0.46329620
vn 0.02941544 0.51001480 -0.85966260
vn 0.01767285 0.50572650 -0.86251280
vn -0.01942027 0.50498240 -0.86291120
vn -0.03086240 0.50915640 -0.86012060
vn 0.87263910 0.48683960 -0.03857677
vn 0.01767285 0.50572650 -0.86251280
vn 0.02941544 0.51001480 -0.85966260
vn 0.87688020 0.48019180 -0.02229480
vn 0.88010900 0.47465200 0.01066074
vn 0.88093960 0.47319860 0.00533022
vn 0.73980040 0.54382650 0.39616660
vn 0.74487270 0.54311840 0.38753990
vn 0.68806870 0.55546110 0.46693070
vn 0.69402780 0.55401030 0.45978040
vn 0.02175345 0.50424500 0.86328660
vn 0.01442833 0.50209710 0.86469080
vn 0.69402780 0.55401030 0.45978040
vn 0.68806870 0.55546110 0.46693070
vn -0.02005584 0.50511290 0.86282020
vn -0.01230524 0.50283450 0.86429510
vn 0.01442833 0.50209710 0.86469080
vn 0.02175345 0.50424500 0.86328660
vn -0.69103780 0.55481850 0.46329620
vn -0.69770730 0.55315560 0.45521790
vn -0.01230524 0.50283450 0.86429510
vn -0.02005584 0.50511290 0.86282020
vn -0.95677940 0.24871940 0.15070450
vn -0.69217980 0.69601780 0.19090900
vn -0.70091540 0.68731580 0.19056400
vn -0.96464610 0.21891520 0.14674450
vn -0.99253680 0.00005027 0.12194480
vn -0.99252780 0.00005051 0.12201830
vn -0.99250940 0.00005102 0.12216830
vn -0.99250940 0.00005102 0.12216830
vn 0.00000000 -1.00000000 0.00000000
vn 0.00000000 -1.00000000 0.00000000
vn 0.00000000 -1.00000000 0.00000000
vn 0.00000000 -1.00000000 0.00000000
vn -0.69217980 0.69601780 0.19090900
vn -0.00758014 0.98778690 0.15562600
vn -0.70091540 0.68731580 0.19056400
vn -0.00924397 0.98774250 0.15581800
vn 0.00758011 0.98778690 0.15562600
vn 0.00924233 0.98774250 0.15581770
vn 0.70097910 0.68725160 0.19056070
vn 0.69225020 0.69594870 0.19090570
vn 0.69225020 0.69594870 0.19090570
vn 0.96467270 0.21882290 0.14670710
vn 0.70097910 0.68725160 0.19056070
vn 0.95680600 0.24863560 0.15067360
vn 0.99253500 0.00005040 0.12196040
vn 0.99254410 0.00005014 0.12188690
vn 0.99251650 0.00005093 0.12211050
vn 0.99251650 0.00005093 0.12211050
vn -0.05634147 -0.99841150 -0.00000105
vn -0.70714120 -0.70707230 -0.00000066
vn -0.70714100 -0.70707240 -0.00000066
vn -0.05634135 -0.99841150 -0.00000105
vn 0.00000000 -1.00000000 -0.00000104
vn 0.00000000 -1.00000000 -0.00000104
vn 0.05634001 -0.99841170 -0.00000098
vn 0.05633998 -0.99841170 -0.00000098
vn 0.70714150 -0.70707200 -0.00000033
vn 0.70713910 -0.70707430 -0.00000033
vn -0.70714100 -0.70707240 -0.00000066
vn -0.70714120 -0.70707230 -0.00000066
vn -0.99800060 -0.06320401 0.00000000
vn -0.99745640 -0.07127989 0.00000000
vn -1.00000000 0.00000000 0.00000000
vn -1.00000000 0.00000000 0.00000000
vn -1.00000000 0.00000000 0.00000000
vn -1.00000000 0.00000000 0.00000000
vn -1.00000000 0.00000000 0.00000000
vn -1.00000000 0.00000000 0.00000000
vn -1.00000000 0.00000000 0.00000000
vn -1.00000000 0.00000000 0.00000000
vn -0.99802670 0.06279046 0.00000000
vn -0.99802670 0.06279062 0.00000000
vn -0.70714100 0.70707260 0.00000102
vn -0.70714120 0.70707230 0.00000102
vn 0.99745650 -0.07127862 0.00000000
vn 0.70713910 -0.70707430 -0.00000033
vn 0.70714150 -0.70707200 -0.00000033
vn 0.99800060 -0.06320393 0.00000000
vn 1.00000000 0.00000000 0.00000000
vn 1.00000000 0.00000000 0.00000000
vn 1.00000000 0.00000000 0.00000000
vn 1.00000000 0.00000000 0.00000000
vn 1.00000000 0.00000000 0.00000000
vn 1.00000000 0.00000000 0.00000000
vn 1.00000000 0.00000000 0.00000000
vn 1.00000000 0.00000000 0.00000000
vn 0.99802670 0.06279059 0.00000000
vn 0.99802670 0.06279042 0.00000000
vn 0.70713900 0.70707450 0.00000102
vn 0.70713870 0.70707480 0.00000102
vn -0.70714120 0.70707230 0.00000102
vn -0.70714100 0.70707260 0.00000102
vn -0.05634025 0.99841170 0.00000118
vn -0.05634028 0.99841170 0.00000118
vn 0.00000000 1.00000000 0.00000115
vn 0.00000000 1.00000000 0.00000115
vn 0.05633907 0.99841170 0.00000118
vn 0.05633904 0.99841170 0.00000118
vn 0.70713870 0.70707480 0.00000102
vn 0.70713900 0.70707450 0.00000102
vn 0.00000000 -0.99921010 0.03973657
vn 0.00000352 -0.99989310 0.01462452
vn 0.00000000 -0.99882260 0.04851094
vn 0.00000000 -0.99989300 0.01463280
vn -0.00000353 -0.99989310 0.01462445
vn 0.00000000 -0.99882290 0.04850714
vn -0.00000011 -0.92390450 0.38262340
vn 0.00009212 -0.92390450 0.38262340
vn -0.00009234 -0.92390450 0.38262340
vn -0.00736762 -0.85569060 0.51743530
vn -0.02323819 0.00000088 0.99972990
vn 0.02519565 0.00000073 0.99968250
vn 0.00853514 -0.85920930 0.51155320
vn -0.33164380 -0.92911850 0.16355810
vn -0.84435990 -0.00000040 0.53577640
vn -0.37745590 -0.89642500 0.23226970
vn -0.89197290 -0.00000028 0.45208890
vn -0.50167850 -0.86504910 0.00293562
vn -0.99992900 -0.00000038 0.01191783
vn -0.57684130 -0.81671830 -0.01501550
vn -0.99903920 -0.00000057 -0.04382597
vn -0.37745590 -0.89642500 0.23226970
vn -0.84435990 -0.00000040 0.53577640
vn -0.02323819 0.00000088 0.99972990
vn -0.00736762 -0.85569060 0.51743530
vn 0.00000000 -1.00000000 0.00000010
vn 0.00000000 -1.00000000 -0.00000020
vn 0.00000000 -1.00000000 0.00000036
vn 0.00853514 -0.85920930 0.51155320
vn -0.33164380 -0.92911850 0.16355810
vn 0.00000000 -1.00000000 -0.00000389
vn 0.00000000 -1.00000000 -0.00000021
vn 0.38130270 -0.89325700 0.23811800
vn -0.50167850 -0.86504910 0.00293562
vn 0.00000000 -1.00000000 -0.00000275
vn 0.00000000 -1.00000000 0.00000000
vn 0.33293400 -0.92848530 0.16452960
vn -0.57684130 -0.81671830 -0.01501550
vn 0.00000000 -1.00000000 0.00000000
vn 0.00000000 -1.00000000 0.00000000
vn 0.49986840 -0.86609610 0.00302471
vn -0.01241784 -0.83389940 -0.55177680
vn 0.00000000 -1.00000000 0.00000000
vn 0.00000000 -1.00000000 -0.00000631
vn 0.57124560 -0.82065060 -0.01452361
vn 0.01138220 -0.83147310 -0.55544840
vn 0.00000000 -1.00000000 -0.00000613
vn 0.49986840 -0.86609610 0.00302471
vn 0.99902440 -0.00000068 -0.04416331
vn 0.57124560 -0.82065060 -0.01452361
vn 0.99992670 -0.00000044 0.01211186
vn 0.33293400 -0.92848530 0.16452960
vn 0.89160110 -0.00000036 0.45282160
vn 0.38130270 -0.89325700 0.23811800
vn 0.84158050 -0.00000102 0.54013160
vn 0.02519565 0.00000073 0.99968250
vn 0.84158050 -0.00000102 0.54013160
vn 0.03419225 -0.00000154 -0.99941530
vn 0.01138220 -0.83147310 -0.55544840
vn 0.01138220 -0.83147310 -0.55544840
vn 0.03419225 -0.00000154 -0.99941530
vn -0.03585878 -0.00000146 -0.99935690
vn -0.01241784 -0.83389940 -0.55177680
vn -0.01241784 -0.83389940 -0.55177680
vn -0.03585878 -0.00000146 -0.99935690
vn -0.01241769 0.83389990 -0.55177610
vn -0.57683800 0.81672050 -0.01501507
vn -0.50167500 0.86505120 0.00293554
vn -0.33164060 0.92911960 0.16355740
vn -0.37745320 0.89642660 0.23226780
vn 0.01138225 0.83147340 -0.55544800
vn -0.01241769 0.83389990 -0.55177610
vn 0.01138225 0.83147340 -0.55544800
vn 0.57124230 0.82065300 -0.01452344
vn 0.49986480 0.86609810 0.00302471
vn 0.33293100 0.92848670 0.16452740
vn 0.38130020 0.89325900 0.23811430
vn 0.02519565 0.00000073 0.99968250
vn 0.38130020 0.89325900 0.23811430
vn 0.84158050 -0.00000102 0.54013160
vn 0.00853486 0.85920450 0.51156120
vn 0.00000000 1.00000000 0.00000097
vn 0.00000000 1.00000000 0.00000116
vn 0.00000000 1.00000000 0.00000972
vn 0.33293100 0.92848670 0.16452740
vn 0.00000000 1.00000000 0.00000000
vn 0.49986480 0.86609810 0.00302471
vn 0.00000000 1.00000000 0.00000000
vn 0.57124230 0.82065300 -0.01452344
vn 0.00000000 1.00000000 -0.00000159
vn 0.01138225 0.83147340 -0.55544800
vn 0.00000000 1.00000000 -0.00000151
vn -0.01241769 0.83389990 -0.55177610
vn 0.00000000 1.00000000 0.00000018
vn -0.57683800 0.81672050 -0.01501507
vn 0.00000000 1.00000000 0.00000000
vn -0.50167500 0.86505120 0.00293554
vn 0.00000000 1.00000000 0.00000032
vn -0.33164060 0.92911960 0.16355740
vn 0.00000000 1.00000000 0.00000043
vn -0.37745320 0.89642660 0.23226780
vn 0.00000000 1.00000000 0.00000955
vn -0.00736742 0.85568610 0.51744290
vn -0.84435990 -0.00000040 0.53577640
vn -0.02323819 0.00000088 0.99972990
vn -0.00736742 0.85568610 0.51744290
vn 0.00853486 0.85920450 0.51156120
vn 0.89546510 -0.00177716 0.44512810
vn 0.99996390 0.00201011 0.00826402
vn 0.99997510 0.00202988 0.00676255
vn 0.89378090 -0.00178475 0.44850020
vn 0.88116250 -0.00183910 0.47281000
vn 0.88116250 -0.00183910 0.47281000
vn 0.01589560 -0.00697521 0.99984930
vn 0.01586414 -0.00697529 0.99984980
vn 0.46553710 -0.00515254 0.88501330
vn 0.46553710 -0.00515254 0.88501330
vn -0.85559450 -0.00180399 0.51764350
vn -0.54310880 -0.00500820 0.83964740
vn -0.54310890 -0.00500820 0.83964740
vn -0.85566330 -0.00180296 0.51752990
vn -0.89527570 -0.00133287 0.44551070
vn -0.89384310 -0.00134025 0.44837810
vn -0.99997510 0.00206077 0.00675158
vn -0.99996580 0.00204640 0.00801141
vn 0.00762400 0.14663230 0.98916170
vn 0.00816807 0.14896360 0.98880890
vn 0.02425491 0.19221470 0.98105310
vn -0.00190349 0.08190578 0.99663830
vn 0.02314515 0.19056500 0.98140160
vn -0.00179000 0.08446103 0.99642510
vn -0.00162981 0.02923349 0.99957130
vn -0.00144302 0.02591275 0.99966310
vn 0.00001544 0.00000000 1.00000000
vn 0.00001541 0.00000000 1.00000000
vn 0.00001078 0.00000000 1.00000000
vn 0.00001078 0.00000000 1.00000000
vn 0.02929780 0.18153150 0.98294860
vn 0.02943438 0.18237830 0.98278780
vn 0.00000809 -0.00001535 1.00000000
vn 0.00000809 -0.00001535 1.00000000
vn 0.00000000 0.00000000 1.00000000
vn 0.00000000 0.00000000 1.00000000
vn 0.00000271 -0.00000023 1.00000000
vn 0.00000271 -0.00000023 1.00000000
vn 0.00000484 -0.00000041 1.00000000
vn 0.00000482 -0.00000041 1.00000000
vn 0.00002156 0.00000000 1.00000000
vn 0.00002156 0.00000000 1.00000000
vn -0.02943093 0.18238390 0.98278690
vn -0.02929368 0.18153460 0.98294810
vn -0.02424827 0.19221430 0.98105340
vn -0.02313791 0.19056540 0.98140170
vn -0.00813837 0.14896250 0.98880940
vn -0.00759382 0.14663360 0.98916170
vn 0.00192502 0.08190606 0.99663820
vn 0.00181367 0.08446088 0.99642510
vn 0.00142854 0.02591300 0.99966310
vn 0.00161688 0.02923314 0.99957130
vn -0.00003575 0.00000000 1.00000000
vn -0.00003557 0.00000000 1.00000000
vn 0.00001348 0.00000000 1.00000000
vn 0.00001348 0.00000000 1.00000000
vn 0.00000234 0.00000000 1.00000000
vn 0.00000241 0.00000000 1.00000000
vn 0.00000000 0.00000000 1.00000000
vn 0.00000000 0.00000000 1.00000000
vn 0.00000000 0.00000000 1.00000000
vn 0.00000000 0.00000000 1.00000000
vn 0.00000030 -0.03320929 0.99944840
vn 0.00009234 -0.38259520 0.92391600
vn 0.00000000 -0.38259530 0.92391600
vn 0.00001122 -0.03319153 0.99944900
vn -0.00009236 -0.38259520 0.92391600
vn 0.00000349 0.00000000 1.00000000
vn -0.00001062 -0.03319139 0.99944900
vn 0.00000033 0.00000000 1.00000000
vn -0.00000284 0.00000000 1.00000000
vn -0.00000326 0.00000000 -1.00000000
vn -0.00000316 0.00000000 -1.00000000
vn -0.00001348 0.00000000 -1.00000000
vn -0.00000496 0.00000000 -1.00000000
vn -0.00001348 0.00000000 -1.00000000
vn -0.00000555 0.00000000 -1.00000000
vn 0.00000000 0.00000000 -1.00000000
vn 0.00000000 0.00000000 -1.00000000
vn -0.00002907 0.00000000 -1.00000000
vn -0.00002752 0.00000000 -1.00000000
vn 0.00000000 0.00000000 -1.00000000
vn 0.00000000 0.00000000 -1.00000000
vn -0.00001010 0.00000000 -1.00000000
vn -0.00001348 0.00000000 -1.00000000
vn -0.00000185 0.00000000 -1.00000000
vn -0.00000544 0.00000000 -1.00000000
vn -0.00003154 0.00000000 -1.00000000
vn -0.00003158 0.00000000 -1.00000000
vn -0.00001078 0.00000000 -1.00000000
vn -0.00001078 0.00000000 -1.00000000
vn 0.00000000 0.00000000 -1.00000000
vn 0.00000000 0.00000000 -1.00000000
vn 0.00000000 0.00000000 -1.00000000
vn 0.00000000 0.00000000 -1.00000000
vn -0.00000241 0.00000000 -1.00000000
vn -0.00000234 0.00000000 -1.00000000
vn -0.00001078 0.00000000 -1.00000000
vn -0.00001078 0.00000000 -1.00000000
vn 0.00002248 0.00000000 -1.00000000
vn 0.00002258 0.00000000 -1.00000000
vn -0.00000157 0.00000000 -1.00000000
vn 0.00000157 0.00000000 -1.00000000
vn 0.00000742 0.00000000 -1.00000000
vn 0.00000456 0.00000000 -1.00000000
vn 0.00002347 0.00000000 -1.00000000
vn 0.00002238 0.00000000 -1.00000000
vn 0.00000555 0.00000000 -1.00000000
vn 0.00000497 0.00000000 -1.00000000
vn 0.00000000 0.00000000 -1.00000000
vn 0.00000000 0.00000000 -1.00000000
vn 0.00000000 0.00000000 -1.00000000
vn 0.00000000 0.00000000 -1.00000000
vn 0.00000000 0.00000000 -1.00000000
vn 0.00000000 0.00000000 -1.00000000
vn 0.00000000 -1.00000000 0.00000000
vn 0.00000000 -1.00000000 0.00000010
vn 0.00000000 -1.00000000 0.00000014
vn 0.00000000 -1.00000000 0.00000000
vn 0.00000000 -1.00000000 -0.00000275
vn 0.00000000 -1.00000000 0.00000000
vn 0.00000000 -1.00000000 -0.00000288
vn 0.00000000 -1.00000000 0.00000000
vn 0.00000000 -1.00000000 -0.00000318
vn 0.00000000 -1.00000000 0.00000043
vn 0.00000000 -1.00000000 -0.00000307
vn 0.00000000 -1.00000000 0.00000035
vn 0.00000000 -1.00000000 0.00000000
vn 0.00000000 -1.00000000 0.00000000
vn 0.00000000 -1.00000000 0.00000000
vn 0.00000000 -1.00000000 0.00000013
vn 0.00000000 -1.00000000 0.00000000
vn 0.00000000 -1.00000000 -0.00000018
vn 0.00000000 -1.00000000 0.00000000
vn 0.00000000 -1.00000000 -0.00000027
vn 0.00000000 -1.00000000 0.00000000
vn 0.00000000 -1.00000000 -0.00000017
vn 0.00000000 -1.00000000 0.00000000
vn 0.00000000 -1.00000000 -0.00000024
vn 0.00000000 1.00000000 0.00000486
vn 0.00000000 1.00000000 0.00000487
vn 0.00000000 1.00000000 0.00000490
vn 0.00000000 1.00000000 0.00000480
vn 0.00000000 1.00000000 0.00000181
vn 0.00000000 1.00000000 0.00000123
vn 0.00000000 1.00000000 0.00000181
vn 0.00000000 1.00000000 0.00000121
vn 0.00000000 1.00000000 0.00000194
vn 0.00000000 1.00000000 0.00000116
vn 0.00000000 1.00000000 0.00000196
vn 0.00000000 1.00000000 0.00000120
vn 0.00000000 1.00000000 0.00000013
vn 0.00000000 1.00000000 -0.00000011
vn 0.00000000 1.00000000 0.00000000
vn 0.00000000 1.00000000 -0.00000010
vn 0.00000000 1.00000000 0.00000000
vn 0.00000000 1.00000000 0.00000000
vn 0.00000000 1.00000000 0.00000000
vn 0.00000000 1.00000000 0.00000000
vn 0.00000000 1.00000000 -0.00000421
vn 0.00000000 1.00000000 -0.00000418
vn 0.00000000 1.00000000 -0.00000427
vn 0.00000000 1.00000000 -0.00000408
vt -285.82780000 -33.63813000
vt -285.82780000 -32.63813000
vt -284.82780000 -32.63813000
vt -284.82780000 -33.63813000
vt -286.02440000 1.02434800
vt -286.36960000 1.01618400
vt -286.36960000 1.02402700
vt -286.02440000 1.01553600
vt -286.37270000 1.01137900
vt -285.99390000 1.01483100
vt -286.02490000 1.01071800
vt -286.00030000 1.00771400
vt -285.98400000 0.99530460
vt -286.00320000 1.00388000
vt -285.98840000 0.98477110
vt -285.98400000 0.38121540
vt -285.99350000 0.98619790
vt -285.98880000 0.39281170
vt -285.99440000 0.36619820
vt -285.99350000 0.39403410
vt -286.00040000 0.37258160
vt -286.02460000 0.35547380
vt -286.00320000 0.37635120
vt -286.02430000 0.36483070
vt -286.36960000 0.35620590
vt -286.02490000 0.36951500
vt -286.36960000 0.36404820
vt -286.37270000 0.36885310
vt -286.30230000 0.97752020
vt -286.30830000 1.00027300
vt -286.30120000 0.99783770
vt -286.30800000 0.98055180
vt -286.30230000 0.36712730
vt -286.30800000 0.36034480
vt -286.90040000 0.80580990
vt -286.89320000 0.80505680
vt -286.89320000 0.77374360
vt -286.90120000 0.77583520
vt -286.89310000 0.41928150
vt -286.90110000 0.41629310
vt -286.88280000 0.41191890
vt -286.89100000 0.41493240
vt -286.89070000 0.77217460
vt -286.88280000 0.77449520
vt -286.89110000 0.80337070
vt -286.88360000 0.80471870
vt -286.89060000 0.81415720
vt -286.88470000 0.81624780
vt -286.31470000 1.00329000
vt -286.31180000 1.00256200
vt -286.31190000 0.98432920
vt -286.31470000 0.98459950
vt -286.31190000 0.37374220
vt -286.31470000 0.37347290
vt -286.31180000 0.35550910
vt -286.31470000 0.35478140
vt -286.90460000 0.77054550
vt -286.90730000 0.79192730
vt -286.90450000 0.79254410
vt -286.90750000 0.77040490
vt -286.90450000 0.42452070
vt -286.90740000 0.42451730
vt -286.91490000 0.76983270
vt -286.91210000 0.42532480
vt -286.91500000 0.42532820
vt -286.91200000 0.76969300
vt -286.91500000 0.79173660
vt -286.91210000 0.79112230
vt -286.30010000 1.02245300
vt -286.29350000 1.02512900
vt -286.29350000 0.34336730
vt -286.30010000 0.34603990
vt -286.02870000 0.41052980
vt -286.02200000 0.26363420
vt -286.02870000 0.26740220
vt -286.02200000 0.40789360
vt -286.02870000 0.44029070
vt -286.02200000 0.43788990
vt -286.02870000 1.21043900
vt -286.02200000 1.21412800
vt -286.60490000 0.68829410
vt -286.60760000 0.69175080
vt -286.58830000 0.70507020
vt -286.58580000 0.70150900
vt -286.03490000 0.55995520
vt -286.02810000 -0.21099540
vt -286.03490000 -0.20732010
vt -286.02810000 0.56234740
vt -286.03490000 0.58961090
vt -286.02810000 0.59223780
vt -286.03490000 0.73242000
vt -286.02810000 0.73617610
vt -285.95490000 0.69986580
vt -285.95240000 0.70341380
vt -285.93320000 0.69192480
vt -285.93580000 0.68846660
vt -286.02810000 -0.23558000
vt -286.03490000 -0.23171190
vt -286.04240000 0.30531910
vt -286.04900000 0.30197140
vt -286.04900000 1.15522100
vt -286.04240000 1.15187400
vt -286.02870000 1.23293700
vt -286.02200000 1.23680500
vt -286.02200000 1.23680500
vt -286.01520000 1.23293700
vt -286.01520000 1.21043900
vt -286.02200000 1.21412800
vt -286.01520000 0.44029070
vt -286.02200000 0.43788990
vt -286.01520000 0.41052980
vt -286.02200000 0.40789360
vt -286.01520000 0.26740220
vt -286.02200000 0.26363420
vt -286.04900000 0.30197140
vt -286.05560000 0.30531910
vt -286.05560000 1.15187400
vt -286.04900000 1.15522100
vt -286.02810000 -0.21099540
vt -286.02140000 -0.23171190
vt -286.02810000 -0.23558000
vt -286.02140000 -0.20732010
vt -286.02810000 0.56234740
vt -286.02140000 0.55995520
vt -286.02810000 0.59223780
vt -286.02140000 0.58961090
vt -286.02810000 0.73617610
vt -286.02140000 0.73242000
vt -286.42340000 -0.19754480
vt -286.42590000 -0.19399620
vt -286.40680000 -0.18259610
vt -286.40420000 -0.18605450
vt -286.29350000 1.02512900
vt -286.28690000 1.02245300
vt -286.28690000 0.34603990
vt -286.29350000 0.34336730
vt -287.07860000 -0.18588040
vt -287.07600000 -0.18242330
vt -287.05690000 -0.19563970
vt -287.05940000 -0.19920130
vt -286.62060000 0.86412790
vt -286.62050000 0.88011320
vt -286.60550000 0.87770930
vt -286.60550000 0.86167850
vt -286.62060000 0.85324230
vt -286.60550000 0.85085030
vt -286.61910000 0.40067660
vt -286.60400000 0.40067660
vt -286.02800000 1.13233800
vt -286.02800000 0.33093410
vt -286.04300000 0.32896030
vt -286.04300000 1.13431300
vt -286.05490000 1.12677100
vt -286.07000000 1.10909100
vt -286.06990000 1.12502400
vt -286.05500000 1.11078700
vt -286.07000000 0.34695720
vt -286.05500000 0.34526230
vt -286.06990000 0.33102800
vt -286.05490000 0.32928000
vt -286.58910000 0.88016220
vt -286.60400000 0.86172400
vt -286.60400000 0.87775800
vt -286.58900000 0.86417480
vt -286.60400000 0.85089380
vt -286.58900000 0.85328690
vt -286.60550000 0.40062780
vt -286.59030000 0.40062780
vt -287.01010000 0.94998370
vt -287.02340000 0.72357060
vt -287.02340000 0.94998370
vt -287.01010000 0.72357060
vt -286.91170000 0.72357060
vt -286.91170000 0.94998370
vt -286.81340000 0.72357060
vt -286.81340000 0.94998370
vt -286.80000000 0.94998370
vt -286.80000000 0.72357060
vt -286.57250000 0.40219370
vt -286.79810000 0.40219380
vt -286.79810000 0.41553260
vt -286.57250000 0.41553250
vt -286.59130000 0.50548090
vt -286.79810000 0.50484720
vt -286.79810000 0.60451020
vt -286.60930000 0.60470800
vt -286.61880000 0.69002850
vt -286.79810000 0.68993930
vt -286.79810000 0.77604320
vt -286.62360000 0.77605810
vt -286.62360000 0.86261000
vt -286.79810000 0.86261010
vt -286.79810000 0.87594910
vt -286.62360000 0.87594900
vt -286.92910000 0.41554900
vt -286.70350000 0.40221130
vt -286.92910000 0.40221120
vt -286.70350000 0.41554900
vt -286.70350000 0.50485710
vt -286.91030000 0.50549070
vt -286.89230000 0.60471030
vt -286.70350000 0.60451290
vt -286.70350000 0.68993560
vt -286.88280000 0.69002490
vt -286.87810000 0.77604810
vt -286.70350000 0.77603320
vt -286.70350000 0.86259390
vt -286.87810000 0.86259370
vt -286.87810000 0.87593160
vt -286.70350000 0.87593190
vt -286.88160000 0.94765230
vt -286.70650000 0.94765230
vt -286.70650000 0.93427820
vt -286.88160000 0.93427820
vt -286.70650000 0.83596490
vt -286.88160000 0.83596490
vt -286.88160000 0.73765110
vt -286.70650000 0.73765110
vt -286.70650000 0.72427690
vt -286.88160000 0.72427690
vt -286.72020000 0.39847820
vt -286.54730000 0.29468760
vt -286.72020000 0.29468820
vt -286.54730000 0.39847820
vt -286.54730000 0.50226880
vt -286.72020000 0.50226830
vt -286.54100000 0.39847820
vt -286.54100000 0.29468760
vt -286.54100000 0.50226880
vt -286.57030000 1.01300500
vt -286.56370000 1.01568200
vt -286.56370000 0.33365790
vt -286.57030000 0.33633270
vt -286.54570000 0.41186280
vt -286.53900000 0.25571860
vt -286.54570000 0.25948560
vt -286.53900000 0.40922760
vt -286.54570000 0.44161490
vt -286.53900000 0.43921470
vt -286.54570000 1.21153200
vt -286.53900000 1.21522000
vt -286.62520000 1.18969000
vt -286.62780000 1.19314800
vt -286.60850000 1.20647300
vt -286.60600000 1.20291000
vt -286.60110000 1.19198400
vt -285.97960000 1.19018300
vt -286.61670000 1.18081400
vt -285.97490000 1.20126600
vt -286.70150000 1.04980400
vt -285.96390000 1.18081300
vt -286.69080000 1.04421900
vt -285.95580000 1.18986300
vt -286.70880000 1.02249100
vt -285.88980000 1.04421900
vt -286.69760000 1.01908600
vt -285.87920000 1.04980400
vt -286.70760000 0.31568610
vt -285.88310000 1.01908700
vt -286.69760000 0.32226510
vt -285.87180000 1.02249100
vt -286.68510000 0.29503820
vt -285.88310000 0.32226510
vt -286.67910000 0.30567660
vt -285.87290000 0.31582490
vt -285.89540000 0.29335980
vt -285.90150000 0.30387530
vt -286.53340000 1.05313300
vt -286.52670000 0.28017070
vt -286.53340000 0.28385550
vt -286.52670000 1.05553100
vt -286.53340000 1.08286600
vt -286.52670000 1.08550000
vt -286.53340000 1.23533500
vt -286.52670000 1.23910000
vt -285.97230000 1.20481600
vt -285.95310000 1.19332200
vt -286.52670000 0.25552190
vt -286.53340000 0.25940010
vt -286.54470000 0.29415010
vt -286.55130000 0.29079790
vt -286.55130000 1.14540200
vt -286.54470000 1.14205000
vt -286.54570000 1.23402400
vt -286.53900000 1.23789000
vt -286.53230000 1.23402400
vt -286.53230000 1.21153200
vt -286.53230000 0.44161490
vt -286.53230000 0.41186280
vt -286.53230000 0.25948560
vt -286.55800000 0.29415010
vt -286.55800000 1.14205000
vt -286.52000000 0.25940010
vt -286.52000000 0.28385550
vt -286.52000000 1.05313300
vt -286.52000000 1.08286600
vt -286.52000000 1.23533500
vt -286.42860000 -0.20424640
vt -286.41200000 -0.18931200
vt -286.40940000 -0.19276710
vt -286.43110000 -0.20070130
vt -286.42030000 -0.18027420
vt -286.34620000 -0.04385006
vt -286.43590000 -0.18963160
vt -286.33550000 -0.04942825
vt -286.33950000 -0.01874959
vt -286.32830000 -0.02214924
vt -286.33950000 0.67719980
vt -286.32930000 0.68363190
vt -286.35790000 0.69556650
vt -286.35170000 0.70606880
vt -287.13450000 0.69376740
vt -287.14050000 0.70439260
vt -287.15290000 0.67719980
vt -287.16300000 0.68377040
vt -287.15290000 -0.01874951
vt -287.16410000 -0.02214924
vt -287.14620000 -0.04385006
vt -287.15690000 -0.04942825
vt -287.07210000 -0.18027450
vt -287.08070000 -0.18913950
vt -287.05650000 -0.19143070
vt -287.06150000 -0.20234320
vt -287.08330000 -0.19259330
vt -287.06400000 -0.20590130
vt -286.55700000 1.01300500
vt -286.55700000 0.33633270
vt -286.55840000 0.44686660
vt -286.53650000 0.68253540
vt -286.53670000 0.44306460
vt -286.55510000 0.68501490
vt -286.68470000 0.44703640
vt -286.68520000 0.68502360
vt -286.75330000 0.44385210
vt -286.75270000 0.68228110
vt -286.73830000 0.68222980
vt -286.73880000 0.44379080
vt -286.62520000 0.44490480
vt -286.61470000 0.68720810
vt -286.61640000 0.44473650
vt -286.62480000 0.68724510
vt -286.75420000 0.44411640
vt -286.75760000 0.68684530
vt -286.77620000 0.44082420
vt -286.77620000 0.68473910
vt -286.27370000 0.60850940
vt -286.26740000 0.60816570
vt -286.26740000 0.50886190
vt -286.26740000 0.69355260
vt -286.27370000 0.50948480
vt -286.27370000 0.69310620
vt -286.27370000 0.77905700
vt -286.26740000 0.77964850
vt -286.27370000 0.86502690
vt -286.26740000 0.86626740
vt -286.27790000 0.87538150
vt -286.27370000 0.87961680
vt -286.27370000 0.42008460
vt -286.26740000 0.41884410
vt -286.27370000 0.40549500
vt -286.27790000 0.40973020
vt -286.28700000 0.39920510
vt -286.28830000 0.40544080
vt -286.38520000 0.39920510
vt -286.38520000 0.40544080
vt -286.48330000 0.39920510
vt -286.48210000 0.40544080
vt -286.49660000 0.40549520
vt -286.49240000 0.40973020
vt -286.50290000 0.41884420
vt -286.49670000 0.42008460
vt -286.50290000 0.50886210
vt -286.49670000 0.50948480
vt -286.50290000 0.60816590
vt -286.49670000 0.60850940
vt -286.50290000 0.69355260
vt -286.49670000 0.69310620
vt -286.50290000 0.77964850
vt -286.49670000 0.77905700
vt -286.50290000 0.86626740
vt -286.49670000 0.86502690
vt -286.49660000 0.87961660
vt -286.49240000 0.87538150
vt -286.48330000 0.88590660
vt -286.48210000 0.87967070
vt -286.38520000 0.88590660
vt -286.38520000 0.87967070
vt -286.28830000 0.87967070
vt -286.28700000 0.88590660
vt -286.16150000 0.39847830
vt -286.16780000 0.29452230
vt -286.16780000 0.39847830
vt -286.16150000 0.29452230
vt -286.16780000 0.50243410
vt -286.08870000 0.29452230
vt -286.16150000 0.50243410
vt -286.08870000 0.39847830
vt -286.08870000 0.50243410
vt -286.63250000 0.86405990
vt -286.63880000 0.86529480
vt -286.63250000 0.87858590
vt -286.63880000 0.77630000
vt -286.62830000 0.87436940
vt -286.63250000 0.77572150
vt -286.61920000 0.88484860
vt -286.61800000 0.87863990
vt -286.63250000 0.67660950
vt -286.63880000 0.67699340
vt -286.52150000 0.88484860
vt -286.52150000 0.87863990
vt -286.63880000 0.59186990
vt -286.63250000 0.59230670
vt -286.63250000 0.50667270
vt -286.63880000 0.50607410
vt -286.63250000 0.42105180
vt -286.63880000 0.41981670
vt -286.62830000 0.41074210
vt -286.63250000 0.40652560
vt -286.61800000 0.40647170
vt -286.61920000 0.40026290
vt -286.52150000 0.40647170
vt -286.52150000 0.40026290
vt -286.42500000 0.40647170
vt -286.42380000 0.40026290
vt -286.41480000 0.41074210
vt -286.41060000 0.40652540
vt -286.41050000 0.42105180
vt -286.40430000 0.41981670
vt -286.41050000 0.50667270
vt -286.40430000 0.50607410
vt -286.41050000 0.59230670
vt -286.40430000 0.59186990
vt -286.41050000 0.67660950
vt -286.40430000 0.67699340
vt -286.41050000 0.77572150
vt -286.40430000 0.77630000
vt -286.41050000 0.86405990
vt -286.40430000 0.86529500
vt -286.41480000 0.87436940
vt -286.41060000 0.87858610
vt -286.42500000 0.87863990
vt -286.42380000 0.88484860
vt -285.95970000 0.68878650
vt -286.58080000 0.69058720
vt -286.58580000 0.70150900
vt -285.95490000 0.69986580
vt -286.60490000 0.68829410
vt -285.94410000 0.67942120
vt -286.59640000 0.67942150
vt -285.93580000 0.68846660
vt -286.68120000 0.55699060
vt -285.86990000 0.55140770
vt -286.67060000 0.55140770
vt -285.85930000 0.55699060
vt -286.68850000 0.52968820
vt -285.86320000 0.52628570
vt -286.67720000 0.52628560
vt -285.85200000 0.52968820
vt -286.68730000 -0.17683630
vt -285.86320000 -0.17026000
vt -286.67720000 -0.17026000
vt -285.85300000 -0.17669760
vt -286.66490000 -0.19747610
vt -285.88160000 -0.18864250
vt -286.65890000 -0.18684180
vt -285.87550000 -0.19915380
vt -286.43060000 -0.18291590
vt -287.05690000 -0.19563970
vt -287.05190000 -0.18471680
vt -286.42590000 -0.19399620
vt -287.07600000 -0.18242330
vt -286.41500000 -0.17354960
vt -287.06750000 -0.17354980
vt -286.40680000 -0.18259610
vt -287.15230000 -0.05110610
vt -286.34090000 -0.04552260
vt -287.14160000 -0.04552257
vt -286.33020000 -0.05110610
vt -287.15960000 -0.02380085
vt -286.33430000 -0.02039802
vt -287.14830000 -0.02039790
vt -286.32300000 -0.02380085
vt -287.15840000 0.68279790
vt -286.33430000 0.67622100
vt -287.14830000 0.67622100
vt -286.32400000 0.68265940
vt -287.13600000 0.70344000
vt -286.35260000 0.69460550
vt -287.13000000 0.69280460
vt -286.34640000 0.70511770
f 3/3/3 2/2/2 1/1/1
f 4/4/4 3/3/3 1/1/1
f 7/7/7 6/6/6 5/5/5
f 6/6/6 8/8/8 5/5/5
f 8/8/8 6/6/6 9/9/9
f 5/5/5 8/8/8 10/10/10
f 11/11/11 8/8/8 9/9/9
f 8/8/8 12/12/12 10/10/10
f 12/12/12 8/8/8 11/11/11
f 10/10/10 12/12/12 13/13/13
f 14/14/14 12/12/12 11/11/11
f 12/12/12 15/15/15 13/13/13
f 15/15/15 12/12/12 14/14/14
f 13/13/13 15/15/15 16/16/16
f 17/17/17 15/15/15 14/14/14
f 15/15/15 18/18/18 16/16/16
f 18/18/18 15/15/15 17/17/17
f 16/16/16 18/18/18 19/19/19
f 20/20/20 18/18/18 17/17/17
f 18/18/18 21/21/21 19/19/19
f 21/21/21 18/18/18 20/20/20
f 19/19/19 21/21/21 22/22/22
f 23/23/23 21/21/21 20/20/20
f 21/21/21 24/24/24 22/22/22
f 24/24/24 21/21/21 23/23/23
f 22/22/22 24/24/24 25/25/25
f 26/26/26 24/24/24 23/23/23
f 24/24/24 27/27/27 25/25/25
f 27/27/27 24/24/24 26/26/26
f 28/28/28 27/27/27 26/26/26
f 31/31/31 30/30/30 29/29/29
f 30/30/30 32/32/32 29/29/29
f 29/29/29 32/32/32 33/33/33
f 32/32/32 34/34/34 33/33/33
f 37/37/37 36/36/36 35/35/35
f 38/38/38 37/37/37 35/35/35
f 39/39/39 37/37/37 38/38/38
f 40/40/40 39/39/39 38/38/38
f 43/43/43 42/42/42 41/41/41
f 44/44/44 43/43/43 41/41/41
f 45/45/45 43/43/43 44/44/44
f 46/46/46 45/45/45 44/44/44
f 47/47/47 45/45/45 46/46/46
f 48/48/48 47/47/47 46/46/46
f 51/51/51 50/50/50 49/49/49
f 52/52/52 51/51/51 49/49/49
f 53/53/53 51/51/51 52/52/52
f 54/54/54 53/53/53 52/52/52
f 55/55/55 53/53/53 54/54/54
f 56/56/56 55/55/55 54/54/54
f 59/59/59 58/58/58 57/57/57
f 58/58/58 60/60/60 57/57/57
f 57/57/57 60/60/60 61/61/61
f 60/60/60 62/62/62 61/61/61
f 65/65/65 64/64/64 63/63/63
f 64/64/64 66/66/66 63/63/63
f 63/63/63 66/66/66 67/67/67
f 66/66/66 68/68/68 67/67/67
f 71/71/71 70/70/70 69/69/69
f 72/72/72 71/71/71 69/69/69
f 75/75/75 74/74/74 73/73/73
f 74/74/74 76/76/76 73/73/73
f 73/73/73 76/76/76 77/77/77
f 76/76/76 78/78/78 77/77/77
f 77/77/77 78/78/78 79/79/79
f 78/78/78 80/80/80 79/79/79
f 83/83/83 82/82/82 81/81/81
f 84/84/84 83/83/83 81/81/81
f 87/87/87 86/86/86 85/85/85
f 86/86/86 88/88/88 85/85/85
f 85/85/85 88/88/88 89/89/89
f 88/88/88 90/90/90 89/89/89
f 89/89/89 90/90/90 91/91/91
f 90/90/90 92/92/92 91/91/91
f 95/95/95 94/94/94 93/93/93
f 96/96/96 95/95/95 93/93/93
f 97/97/97 86/86/86 87/87/87
f 98/98/98 97/97/97 87/87/87
f 101/101/101 100/100/100 99/99/99
f 102/102/102 101/101/101 99/99/99
f 80/80/80 104/104/104 103/103/103
f 79/79/79 80/80/80 103/103/103
f 107/107/107 106/106/106 105/105/105
f 108/108/108 107/107/107 105/105/105
f 109/109/109 107/107/107 108/108/108
f 110/110/110 109/109/109 108/108/108
f 111/111/111 109/109/109 110/110/110
f 112/112/112 111/111/111 110/110/110
f 113/113/113 111/111/111 112/112/112
f 114/114/114 113/113/113 112/112/112
f 117/117/117 116/116/116 115/115/115
f 118/118/118 117/117/117 115/115/115
f 121/121/121 120/120/120 119/119/119
f 120/120/120 122/122/122 119/119/119
f 119/119/119 122/122/122 123/123/123
f 122/122/122 124/124/124 123/123/123
f 123/123/123 124/124/124 125/125/125
f 124/124/124 126/126/126 125/125/125
f 125/125/125 126/126/126 127/127/127
f 126/126/126 128/128/128 127/127/127
f 131/131/131 130/130/130 129/129/129
f 132/132/132 131/131/131 129/129/129
f 135/135/135 134/134/134 133/133/133
f 136/136/136 135/135/135 133/133/133
f 139/139/139 138/138/138 137/137/137
f 140/140/140 139/139/139 137/137/137
f 143/143/143 142/142/142 141/141/141
f 144/144/144 143/143/143 141/141/141
f 144/144/144 141/141/141 145/145/145
f 146/146/146 144/144/144 145/145/145
f 145/145/145 147/147/147 146/146/146
f 147/147/147 148/148/148 146/146/146
f 151/151/151 150/150/150 149/149/149
f 152/152/152 151/151/151 149/149/149
f 155/155/155 154/154/154 153/153/153
f 154/154/154 156/156/156 153/153/153
f 154/154/154 157/157/157 156/156/156
f 157/157/157 158/158/158 156/156/156
f 157/157/157 159/159/159 158/158/158
f 159/159/159 160/160/160 158/158/158
f 163/163/163 162/162/162 161/161/161
f 162/162/162 164/164/164 161/161/161
f 164/164/164 162/162/162 165/165/165
f 166/166/166 164/164/164 165/165/165
f 165/165/165 167/167/167 166/166/166
f 167/167/167 168/168/168 166/166/166
f 171/171/171 170/170/170 169/169/169
f 170/170/170 172/172/172 169/169/169
f 172/172/172 173/173/173 169/169/169
f 173/173/173 174/174/174 169/169/169
f 173/173/173 175/175/175 174/174/174
f 175/175/175 176/176/176 174/174/174
f 176/176/176 175/175/175 177/177/177
f 175/175/175 178/178/178 177/177/177
f 181/181/181 180/180/180 179/179/179
f 182/182/182 181/181/181 179/179/179
f 182/182/182 183/183/183 181/181/181
f 183/183/183 184/184/184 181/181/181
f 185/185/185 184/184/184 183/183/183
f 186/186/186 185/185/185 183/183/183
f 186/186/186 187/187/187 185/185/185
f 187/187/187 188/188/188 185/185/185
f 189/189/189 188/188/188 187/187/187
f 190/190/190 189/189/189 187/187/187
f 190/190/190 191/191/191 189/189/189
f 191/191/191 192/192/192 189/189/189
f 193/193/193 192/192/192 191/191/191
f 194/194/194 193/193/193 191/191/191
f 197/197/197 196/196/196 195/195/195
f 196/196/196 198/198/198 195/195/195
f 198/198/198 199/199/199 195/195/195
f 199/199/199 200/200/200 195/195/195
f 200/200/200 199/199/199 201/201/201
f 199/199/199 202/202/202 201/201/201
f 202/202/202 203/203/203 201/201/201
f 203/203/203 204/204/204 201/201/201
f 204/204/204 203/203/203 205/205/205
f 203/203/203 206/206/206 205/205/205
f 206/206/206 207/207/207 205/205/205
f 207/207/207 208/208/208 205/205/205
f 208/208/208 207/207/207 209/209/209
f 207/207/207 210/210/210 209/209/209
f 213/213/213 212/212/212 211/211/211
f 214/214/214 213/213/213 211/211/211
f 215/215/215 213/213/213 214/214/214
f 216/216/216 215/215/215 214/214/214
f 216/216/216 217/217/217 215/215/215
f 217/217/217 218/218/218 215/215/215
f 219/219/219 218/218/218 217/217/217
f 220/220/220 219/219/219 217/217/217
f 223/223/223 222/222/222 221/221/221
f 222/222/222 224/224/224 221/221/221
f 224/224/224 225/225/225 221/221/221
f 225/225/225 226/226/226 221/221/221
f 224/224/224 222/222/222 227/227/227
f 225/225/225 224/224/224 227/227/227
f 222/222/222 228/228/228 227/227/227
f 229/229/229 225/225/225 227/227/227
f 232/232/232 231/231/231 230/230/230
f 233/233/233 232/232/232 230/230/230
f 236/236/236 235/235/235 234/234/234
f 235/235/235 237/237/237 234/234/234
f 234/234/234 237/237/237 238/238/238
f 237/237/237 239/239/239 238/238/238
f 238/238/238 239/239/239 240/240/240
f 239/239/239 241/241/241 240/240/240
f 244/244/244 243/243/243 242/242/242
f 245/245/245 244/244/244 242/242/242
f 245/245/245 242/242/242 246/246/246
f 245/245/245 246/246/246 247/247/247
f 242/242/242 248/248/248 246/246/246
f 249/249/249 245/245/245 247/247/247
f 242/242/242 250/250/250 248/248/248
f 249/249/249 247/247/247 251/251/251
f 250/250/250 252/252/252 248/248/248
f 253/253/253 249/249/249 251/251/251
f 250/250/250 254/254/254 252/252/252
f 253/253/253 251/251/251 255/255/255
f 254/254/254 256/256/256 252/252/252
f 257/257/257 253/253/253 255/255/255
f 254/254/254 258/258/258 256/256/256
f 257/257/257 255/255/255 259/259/259
f 258/258/258 260/260/260 256/256/256
f 261/261/261 257/257/257 259/259/259
f 258/258/258 262/262/262 260/260/260
f 261/261/261 259/259/259 263/263/263
f 262/262/262 264/264/264 260/260/260
f 265/265/265 261/261/261 263/263/263
f 262/262/262 266/266/266 264/264/264
f 265/265/265 263/263/263 267/267/267
f 266/266/266 267/267/267 264/264/264
f 266/266/266 265/265/265 267/267/267
f 270/270/270 269/269/269 268/268/268
f 269/269/269 271/271/271 268/268/268
f 268/268/268 271/271/271 272/272/272
f 271/271/271 273/273/273 272/272/272
f 272/272/272 273/273/273 274/274/274
f 273/273/273 275/275/275 274/274/274
f 277/277/277 276/276/276 249/249/249
f 253/253/253 277/277/277 249/249/249
f 278/278/278 269/269/269 270/270/270
f 279/279/279 278/278/278 270/270/270
f 282/282/282 281/281/281 280/280/280
f 283/283/283 282/282/282 280/280/280
f 241/241/241 285/285/285 284/284/284
f 240/240/240 241/241/241 284/284/284
f 287/287/287 286/286/286 285/285/285
f 241/241/241 287/287/287 285/285/285
f 288/288/288 287/287/287 241/241/241
f 239/239/239 288/288/288 241/241/241
f 289/289/289 288/288/288 239/239/239
f 237/237/237 289/289/289 239/239/239
f 290/290/290 289/289/289 237/237/237
f 235/235/235 290/290/290 237/237/237
f 292/292/292 291/291/291 281/281/281
f 282/282/282 292/292/292 281/281/281
f 278/278/278 293/293/293 269/269/269
f 293/293/293 294/294/294 269/269/269
f 269/269/269 294/294/294 271/271/271
f 294/294/294 295/295/295 271/271/271
f 271/271/271 295/295/295 273/273/273
f 295/295/295 296/296/296 273/273/273
f 273/273/273 296/296/296 275/275/275
f 296/296/296 297/297/297 275/275/275
f 300/300/300 299/299/299 298/298/298
f 299/299/299 301/301/301 298/298/298
f 301/301/301 299/299/299 302/302/302
f 302/302/302 299/299/299 303/303/303
f 304/304/304 301/301/301 302/302/302
f 299/299/299 305/305/305 303/303/303
f 303/303/303 305/305/305 306/306/306
f 305/305/305 307/307/307 306/306/306
f 306/306/306 307/307/307 308/308/308
f 307/307/307 309/309/309 308/308/308
f 308/308/308 309/309/309 310/310/310
f 309/309/309 311/311/311 310/310/310
f 310/310/310 311/311/311 312/312/312
f 311/311/311 313/313/313 312/312/312
f 312/312/312 313/313/313 314/314/314
f 313/313/313 315/315/315 314/314/314
f 314/314/314 315/315/315 316/316/316
f 315/315/315 317/317/317 316/316/316
f 316/316/316 317/317/317 318/318/318
f 317/317/317 319/319/319 318/318/318
f 318/318/318 319/319/319 320/320/320
f 319/319/319 321/321/321 320/320/320
f 320/320/320 321/321/321 322/322/322
f 321/321/321 323/323/323 322/322/322
f 322/322/322 323/323/323 304/304/304
f 323/323/323 301/301/301 304/304/304
f 323/323/323 321/321/321 324/324/324
f 325/325/325 323/323/323 324/324/324
f 327/327/327 326/326/326 231/231/231
f 232/232/232 327/327/327 231/231/231
f 330/330/330 329/329/329 328/328/328
f 329/329/329 331/331/331 328/328/328
f 328/328/328 331/331/331 332/332/332
f 331/331/331 333/333/333 332/332/332
f 336/336/336 335/335/335 334/334/334
f 337/337/337 336/336/336 334/334/334
f 340/340/340 339/339/339 338/338/338
f 339/339/339 341/341/341 338/338/338
f 338/338/338 341/341/341 342/342/342
f 341/341/341 343/343/343 342/342/342
f 342/342/342 343/343/343 344/344/344
f 343/343/343 345/345/345 344/344/344
f 348/348/348 347/347/347 346/346/346
f 346/346/346 347/347/347 349/349/349
f 350/350/350 348/348/348 346/346/346
f 351/351/351 346/346/346 349/349/349
f 351/351/351 349/349/349 352/352/352
f 349/349/349 353/353/353 352/352/352
f 352/352/352 353/353/353 354/354/354
f 353/353/353 355/355/355 354/354/354
f 354/354/354 355/355/355 356/356/356
f 355/355/355 357/357/357 356/356/356
f 350/350/350 358/358/358 348/348/348
f 358/358/358 359/359/359 348/348/348
f 360/360/360 359/359/359 358/358/358
f 361/361/361 360/360/360 358/358/358
f 362/362/362 360/360/360 361/361/361
f 363/363/363 362/362/362 361/361/361
f 364/364/364 362/362/362 363/363/363
f 365/365/365 364/364/364 363/363/363
f 366/366/366 364/364/364 365/365/365
f 367/367/367 366/366/366 365/365/365
f 368/368/368 366/366/366 367/367/367
f 369/369/369 368/368/368 367/367/367
f 370/370/370 368/368/368 369/369/369
f 371/371/371 370/370/370 369/369/369
f 372/372/372 370/370/370 371/371/371
f 373/373/373 372/372/372 371/371/371
f 372/372/372 373/373/373 374/374/374
f 373/373/373 375/375/375 374/374/374
f 376/376/376 374/374/374 375/375/375
f 377/377/377 376/376/376 375/375/375
f 376/376/376 377/377/377 378/378/378
f 377/377/377 379/379/379 378/378/378
f 380/380/380 378/378/378 379/379/379
f 381/381/381 380/380/380 379/379/379
f 382/382/382 380/380/380 381/381/381
f 383/383/383 382/382/382 381/381/381
f 384/384/384 382/382/382 383/383/383
f 385/385/385 384/384/384 383/383/383
f 386/386/386 384/384/384 385/385/385
f 387/387/387 386/386/386 385/385/385
f 387/387/387 388/388/388 386/386/386
f 388/388/388 389/389/389 386/386/386
f 357/357/357 389/389/389 388/388/388
f 356/356/356 357/357/357 388/388/388
f 392/392/392 391/391/391 390/390/390
f 391/391/391 393/393/393 390/390/390
f 394/394/394 392/392/392 390/390/390
f 393/393/393 395/395/395 390/390/390
f 396/396/396 394/394/394 390/390/390
f 395/395/395 397/397/397 390/390/390
f 398/398/398 396/396/396 390/390/390
f 397/397/397 398/398/398 390/390/390
f 401/401/401 400/400/400 399/399/399
f 399/399/399 400/400/400 402/402/402
f 403/403/403 401/401/401 399/399/399
f 404/404/404 399/399/399 402/402/402
f 405/405/405 401/401/401 403/403/403
f 406/406/406 405/405/405 403/403/403
f 404/404/404 402/402/402 407/407/407
f 402/402/402 408/408/408 407/407/407
f 409/409/409 405/405/405 406/406/406
f 410/410/410 409/409/409 406/406/406
f 407/407/407 408/408/408 411/411/411
f 412/412/412 407/407/407 411/411/411
f 412/412/412 411/411/411 413/413/413
f 411/411/411 414/414/414 413/413/413
f 413/413/413 414/414/414 415/415/415
f 414/414/414 416/416/416 415/415/415
f 415/415/415 416/416/416 417/417/417
f 416/416/416 418/418/418 417/417/417
f 417/417/417 418/418/418 419/419/419
f 418/418/418 420/420/420 419/419/419
f 419/419/419 420/420/420 421/421/421
f 420/420/420 422/422/422 421/421/421
f 421/421/421 422/422/422 423/423/423
f 422/422/422 424/424/424 423/423/423
f 423/423/423 424/424/424 425/425/425
f 424/424/424 426/426/426 425/425/425
f 425/425/425 426/426/426 427/427/427
f 426/426/426 428/428/428 427/427/427
f 427/427/427 428/428/428 429/429/429
f 428/428/428 430/430/430 429/429/429
f 431/431/431 429/429/429 430/430/430
f 432/432/432 431/431/431 430/430/430
f 431/431/431 432/432/432 433/433/433
f 432/432/432 434/434/434 433/433/433
f 435/435/435 433/433/433 434/434/434
f 436/436/436 435/435/435 434/434/434
f 435/435/435 436/436/436 437/437/437
f 436/436/436 438/438/438 437/437/437
f 437/437/437 438/438/438 439/439/439
f 438/438/438 440/440/440 439/439/439
f 439/439/439 440/440/440 441/441/441
f 440/440/440 442/442/442 441/441/441
f 441/441/441 442/442/442 409/409/409
f 410/410/410 441/441/441 409/409/409
f 445/445/445 444/444/444 443/443/443
f 446/446/446 445/445/445 443/443/443
f 445/445/445 447/447/447 444/444/444
f 446/446/446 443/443/443 448/448/448
f 447/447/447 449/449/449 444/444/444
f 450/450/450 446/446/446 448/448/448
f 447/447/447 451/451/451 449/449/449
f 450/450/450 448/448/448 452/452/452
f 451/451/451 453/453/453 449/449/449
f 454/454/454 450/450/450 452/452/452
f 451/451/451 455/455/455 453/453/453
f 454/454/454 452/452/452 456/456/456
f 455/455/455 457/457/457 453/453/453
f 458/458/458 454/454/454 456/456/456
f 455/455/455 459/459/459 457/457/457
f 458/458/458 456/456/456 460/460/460
f 459/459/459 461/461/461 457/457/457
f 462/462/462 458/458/458 460/460/460
f 459/459/459 463/463/463 461/461/461
f 462/462/462 460/460/460 464/464/464
f 463/463/463 465/465/465 461/461/461
f 466/466/466 462/462/462 464/464/464
f 466/466/466 464/464/464 465/465/465
f 463/463/463 466/466/466 465/465/465
f 469/469/469 468/468/468 467/467/467
f 468/468/468 470/470/470 467/467/467
f 471/471/471 468/468/468 469/469/469
f 467/467/467 470/470/470 472/472/472
f 473/473/473 471/471/471 469/469/469
f 470/470/470 474/474/474 472/472/472
f 475/475/475 471/471/471 473/473/473
f 472/472/472 474/474/474 476/476/476
f 477/477/477 475/475/475 473/473/473
f 474/474/474 478/478/478 476/476/476
f 479/479/479 475/475/475 477/477/477
f 476/476/476 478/478/478 480/480/480
f 481/481/481 479/479/479 477/477/477
f 478/478/478 482/482/482 480/480/480
f 483/483/483 479/479/479 481/481/481
f 480/480/480 482/482/482 484/484/484
f 485/485/485 483/483/483 481/481/481
f 482/482/482 486/486/486 484/484/484
f 487/487/487 483/483/483 485/485/485
f 484/484/484 486/486/486 488/488/488
f 489/489/489 487/487/487 485/485/485
f 486/486/486 490/490/490 488/488/488
f 490/490/490 487/487/487 489/489/489
f 488/488/488 490/490/490 489/489/489

