# Blender v2.78 (sub 0) OBJ File: 'Cushon1.blend'
# www.blender.org
o Cube.006_Cube.003
v -0.125837 -0.069815 1.493471
v -0.409047 -0.186212 1.483352
v 1.484072 -0.071946 1.183680
v 0.109568 0.083076 1.396943
v -0.074209 0.096394 0.927023
v -0.513795 -0.069444 -1.121662
v 1.333339 -0.072505 -1.488641
v 0.877206 -0.212051 -1.478178
v -0.478647 0.050953 -1.448257
v 1.432966 -0.221656 1.468208
v 1.447170 -0.218497 -1.452873
v 1.438890 0.051602 -1.452405
v -0.482308 -0.239941 1.262801
v -0.498035 -0.207266 0.841402
v -0.352507 -0.268298 1.226423
v -0.468326 -0.070160 1.472371
v -0.514798 -0.076213 1.386599
v -0.482105 0.046212 1.438063
v -0.482996 -0.223287 1.443525
v -0.497964 0.042682 -1.211978
v -0.409310 0.081269 -1.387005
v -0.496905 0.051875 -0.655503
v -0.479281 -0.225184 -1.441825
v -0.497189 -0.070557 -1.432346
v -0.454019 -0.070347 -1.471291
v -0.285275 -0.260508 -1.420577
v -0.436235 -0.223267 -1.461868
v 1.197222 0.038069 -1.479443
v 1.183740 0.083880 -1.415684
v 1.462506 -0.070721 -1.452839
v 1.465577 -0.236767 -1.251149
v 1.467002 -0.222071 -0.986744
v 1.462771 0.047955 1.429982
v 1.469174 -0.070870 1.439481
v 1.033247 -0.227899 1.467552
v -0.122497 0.055197 1.466307
v -0.310841 0.091685 1.345764
v -0.441742 0.050813 1.464731
v 1.224260 -0.278444 1.138599
v 0.733481 -0.266655 1.391132
v 1.292622 0.086707 1.406794
v 1.416116 0.040962 1.474900
v 1.025623 0.057962 1.464624
v 0.694301 -0.227954 1.472677
v 0.279473 -0.243712 1.447031
v 1.040745 -0.261856 1.405178
v 0.254875 -0.191432 1.484393
v 0.549636 0.062290 -1.463852
v 0.312474 0.053588 -1.471753
v 1.260247 -0.227924 -1.473245
v 1.312604 -0.257778 -1.417049
v 0.950284 -0.241472 -1.454185
v 0.146397 -0.070120 -1.488588
v 0.816125 -0.063033 -1.494992
v 1.370552 0.090251 1.065955
v 0.650715 0.082631 1.436649
v 1.364008 -0.076678 1.494553
v -0.194480 -0.076539 -1.499272
v -0.111867 0.062584 -1.467936
v 0.251550 0.081441 -1.426954
v -0.444609 0.035239 -1.468401
v -0.269956 -0.246831 1.459400
v -0.082697 -0.260466 1.394487
v 0.181587 -0.276773 1.252380
v -0.424608 -0.260291 0.688477
v 0.378527 -0.272608 0.996386
v 0.622052 0.040084 1.479899
v 0.319319 0.052513 1.467792
v 0.578634 -0.225171 -1.470852
v 0.268061 -0.253862 -1.443742
v 0.119907 -0.213947 -1.476926
v 0.293418 0.098566 1.210305
v 0.875762 0.099430 0.965242
v 0.443704 0.094102 0.841283
v 1.017011 -0.070537 1.489441
v 0.879013 0.090475 -0.549921
v 0.418049 0.101172 0.130770
v 0.019858 -0.274458 0.330571
v -0.432088 -0.259186 -0.081598
v 1.282470 0.093957 -0.201629
v 0.853914 0.099582 0.098174
v 1.285695 0.092806 0.501054
v 0.445861 -0.273148 -0.270404
v 0.592908 -0.273749 0.237321
v 1.164659 -0.273275 -0.440693
v 1.145085 -0.277153 0.414942
v 1.385974 0.085464 -0.682718
v 1.451111 0.064810 0.054041
v 1.471669 0.044840 0.973529
v 1.472563 0.036444 -0.087681
v 1.440585 -0.245552 1.409393
v 1.414834 -0.254269 0.960198
v 1.467517 -0.203572 1.425225
v -0.493005 0.057394 1.155912
v -0.405055 0.081155 0.855562
v -0.486871 -0.233080 -0.358214
v -0.507884 -0.218322 0.170271
v -0.321909 -0.274177 -0.401372
v -0.500777 -0.211975 -0.991350
v -0.509055 -0.073222 1.066256
v -0.019047 0.096591 -0.274933
v -0.194669 0.096833 0.378722
v 1.480209 -0.068945 -0.164303
v 1.467515 -0.223010 -0.530629
v 1.483459 -0.069975 -0.913399
v 1.485313 -0.072434 -1.362868
v 1.472445 0.038377 -0.997214
v 0.094276 0.097681 -1.319493
v -0.164990 0.098175 -0.761057
v -0.498626 -0.234544 -1.263819
v 1.421733 0.077767 -1.259204
v 1.462821 0.038280 -1.413903
v 1.003931 -0.271409 -1.276728
v 1.284148 -0.276180 -0.945179
v 0.757468 -0.272660 -1.054459
v 0.668900 -0.265310 -1.401612
v 0.343927 -0.273043 -1.094839
v 1.026443 0.101305 -1.040057
v -0.037875 -0.275512 -1.246987
v -0.399200 -0.262079 -1.009571
v 0.759614 0.091554 -1.382094
v 0.409241 0.097418 -0.778192
v 1.403537 -0.257417 0.375223
v 1.472745 -0.211602 0.637352
v 1.400605 -0.257301 -0.371784
v -0.438797 0.079213 -0.141151
v -0.499729 0.026785 -0.087286
v -0.487747 0.062543 0.509768
v -0.512432 -0.070765 -0.193468
v -0.515887 -0.068904 0.668132
v 1.436183 0.071304 0.676126
v 0.807962 -0.270569 0.751689
v 0.031986 -0.274565 -0.795968
v 0.512557 -0.068736 1.488346
v 1.486751 -0.070623 0.623101
vt 0.3133 0.0608
vt 0.3083 0.2046
vt 0.2841 0.1386
vt 0.2932 0.0456
vt 0.3312 0.4670
vt 0.4987 0.4759
vt 0.3809 0.4941
vt 0.0696 0.5199
vt 0.1393 0.5397
vt 0.0349 0.5259
vt 0.2100 0.5164
vt 0.0438 0.5479
vt 0.3214 0.4928
vt 0.0902 0.7982
vt 0.1728 0.7643
vt 0.1451 0.8771
vt 0.0617 0.9343
vt 0.0536 0.8394
vt 0.5947 0.9945
vt 0.6600 0.9614
vt 0.6643 0.9868
vt 0.9849 0.4369
vt 0.9677 0.3402
vt 0.9953 0.3226
vt 0.6975 0.6939
vt 0.6729 0.5993
vt 0.6913 0.5757
vt 0.9566 0.0570
vt 0.9418 0.0885
vt 0.9502 0.0457
vt 0.3367 0.4563
vt 0.3194 0.4566
vt 0.0513 0.5833
vt 0.0319 0.5580
vt 0.3718 0.0791
vt 0.3295 0.0478
vt 0.3667 0.0476
vt 0.3390 0.0157
vt 0.4551 0.0337
vt 0.0072 0.8983
vt 0.0328 0.9539
vt 0.0144 0.9626
vt 0.0349 0.9680
vt 0.0420 0.9625
vt 0.0329 0.9855
vt 0.3197 0.0159
vt 0.9629 0.0167
vt 0.9548 0.0149
vt 0.9685 0.1744
vt 0.9478 0.2030
vt 0.9905 0.1004
vt 0.6555 0.6056
vt 0.6636 0.5541
vt 0.9518 0.4612
vt 0.9849 0.4674
vt 0.6879 0.5467
vt 0.9144 0.4652
vt 0.8418 0.4278
vt 0.9421 0.4310
vt 0.9337 0.4897
vt 0.2034 0.5519
vt 0.1208 0.5644
vt 0.2941 0.4679
vt 0.2935 0.4501
vt 0.0137 0.5557
vt 0.0143 0.5446
vt 0.0331 0.8896
vt 0.3954 0.4136
vt 0.4760 0.3269
vt 0.5532 0.3944
vt 0.4281 0.4585
vt 0.4220 0.2315
vt 0.3537 0.2931
vt 0.3658 0.1879
vt 0.3225 0.2079
vt 0.3137 0.3024
vt 0.3385 0.3809
vt 0.3164 0.3757
vt 0.9591 0.4261
vt 0.9551 0.3586
vt 0.6966 0.8242
vt 0.6725 0.7921
vt 0.9659 0.2759
vt 0.1471 0.6756
vt 0.0515 0.7222
vt 0.2852 0.3798
vt 0.6965 0.9105
vt 0.6721 0.8863
vt 0.6683 0.9556
vt 0.6403 0.9387
vt 0.3277 0.0928
vt 0.3397 0.1378
vt 0.0232 0.7248
vt 0.0291 0.6414
vt 0.9451 0.2934
vt 0.2819 0.2609
vt 0.0045 0.6487
vt 0.0031 0.7502
vt 0.0274 0.7949
vt 0.4754 0.6731
vt 0.5826 0.6367
vt 0.5206 0.7668
vt 0.2657 0.9004
vt 0.3217 0.7687
vt 0.3215 0.6656
vt 0.8072 0.1512
vt 0.7084 0.2479
vt 0.7330 0.0864
vt 0.5643 0.1473
vt 0.5833 0.2767
vt 0.6577 0.0538
vt 0.4910 0.0606
vt 0.3902 0.5857
vt 0.2424 0.5914
vt 0.3371 0.5493
vt 0.8685 0.2259
vt 0.7236 0.3934
vt 0.8674 0.3086
vt 0.7213 0.4524
vt 0.5649 0.4510
vt 0.5674 0.5374
vt 0.4990 0.5637
vt 0.3692 0.5396
vt 0.1005 0.9674
vt 0.1632 0.9505
vt 0.2410 0.9659
vt 0.7178 0.0396
vt 0.8616 0.0616
vt 0.6033 0.0339
vt 0.6908 0.0060
vt 0.4033 0.0070
vt 0.0520 0.9885
vt 0.1055 0.9954
vt 0.2035 0.9957
vt 0.4077 0.8669
vt 0.5158 0.8989
vt 0.3827 0.9568
vt 0.6791 0.5021
vt 0.7580 0.4752
vt 0.8418 0.5037
vt 0.8565 0.4728
vt 0.3819 0.5133
vt 0.5516 0.5153
vt 0.6686 0.5267
vt 0.6540 0.5457
vt 0.6266 0.5206
vt 0.6252 0.8451
vt 0.9121 0.0427
vt 0.8577 0.0371
vt 0.6196 0.5609
vt 0.9081 0.3698
vt 0.9105 0.1380
vt 0.6477 0.7069
vt 0.4963 0.9762
vt 0.3694 0.9764
vt 0.3866 0.9972
vt 0.8860 0.0081
vt 0.5060 0.5021
vt 0.6132 0.9710
vt 0.9864 0.0477
vt 0.6715 0.9858
vt 0.6650 0.5465
vt 0.9598 0.4928
vt 0.3225 0.4707
vt 0.6678 0.7386
vt 0.6541 0.8065
vt 0.9957 0.1895
vt 0.6889 0.9622
vt 0.5543 0.0026
vn -0.1743 -0.2673 0.9477
vn 0.0062 -0.3205 0.9472
vn -0.0095 0.0671 0.9977
vn -0.5406 0.0368 0.8404
vn 0.9129 -0.2986 0.2783
vn 0.8627 -0.5057 -0.0028
vn 0.9984 0.0475 0.0320
vn 0.8150 0.5792 0.0161
vn 0.8588 0.0225 0.5118
vn 0.9991 0.0403 -0.0079
vn 0.7348 0.5878 0.3383
vn -0.0084 0.9994 0.0347
vn -0.0038 1.0000 -0.0035
vn -0.0169 0.9998 0.0047
vn -0.0823 0.9876 0.1333
vn -0.0061 0.9752 0.2213
vn -0.9995 0.0254 -0.0171
vn -0.6483 0.5812 -0.4918
vn -0.9131 0.0135 -0.4075
vn 0.1239 0.0196 -0.9921
vn -0.0258 -0.4418 -0.8967
vn -0.0082 0.0431 -0.9990
vn 0.0175 0.5051 -0.8628
vn -0.2097 -0.5531 -0.8062
vn -0.0550 -0.9352 -0.3497
vn -0.6536 -0.5858 -0.4791
vn 0.4863 -0.8560 0.1751
vn 0.4076 -0.5186 0.7515
vn 0.0747 0.9621 0.2622
vn 0.3275 0.5131 0.7934
vn -0.1068 -0.9930 0.0491
vn -0.6381 -0.6006 0.4817
vn -0.6939 -0.7187 0.0445
vn -0.9804 0.0131 0.1962
vn -0.8796 -0.4757 -0.0064
vn -0.2598 0.6381 0.7248
vn -0.6948 0.6026 0.3924
vn -0.3983 -0.0162 -0.9171
vn -0.0019 -0.4115 -0.9114
vn -0.0007 -0.8930 -0.4500
vn -0.0229 0.0111 -0.9997
vn 0.0202 0.9454 -0.3251
vn 0.4616 0.6247 -0.6298
vn 0.5937 -0.5418 -0.5949
vn 0.7258 0.0094 -0.6879
vn 0.7249 -0.6878 -0.0383
vn 0.1320 -0.9912 -0.0009
vn 0.1035 -0.9553 -0.2767
vn 0.9940 0.0023 -0.1097
vn 0.3767 0.9263 -0.0043
vn 0.2155 0.9764 0.0113
vn 0.1680 -0.0011 0.9857
vn -0.0119 0.6670 0.7450
vn 0.0550 -0.9981 0.0253
vn -0.0067 -0.9999 0.0045
vn 0.0332 -0.9994 0.0002
vn 0.3898 -0.9209 0.0022
vn 0.0047 -1.0000 0.0002
vn -0.0016 -0.9744 0.2250
vn -0.0014 -0.9982 0.0602
vn -0.0089 -0.8471 0.5313
vn 0.0039 -0.5746 0.8184
vn 0.0159 -0.9596 0.2808
vn 0.0058 -0.5734 0.8193
vn 0.0440 -0.5517 -0.8329
vn -0.0065 -0.8651 -0.5015
vn 0.0084 0.0322 -0.9994
vn -0.0077 0.5430 -0.8396
vn 0.0116 -0.5421 -0.8402
vn 0.0041 0.9999 0.0115
vn 0.0007 0.9171 0.3986
vn 0.0010 0.0237 0.9997
vn -0.0015 0.6963 -0.7177
vn -0.2155 0.3748 -0.9017
vn -0.1774 0.9713 -0.1583
vn -0.0464 -0.8018 0.5958
vn -0.0047 -0.9876 0.1566
vn -0.0045 0.4209 0.9070
vn 0.0124 0.5805 0.8141
vn 0.0087 -0.9591 -0.2830
vn -0.0029 0.0197 0.9998
vn -0.0161 0.5851 0.8108
vn 0.0089 0.9999 0.0029
vn 0.0188 0.9998 -0.0075
vn 0.0031 1.0000 -0.0003
vn -0.0528 0.9986 0.0025
vn 0.0002 1.0000 0.0010
vn 0.0059 1.0000 -0.0039
vn -0.0069 -1.0000 -0.0020
vn 0.0007 -1.0000 -0.0005
vn -0.1143 -0.9934 -0.0025
vn -0.0141 -0.9999 0.0014
vn -0.0010 -1.0000 0.0007
vn -0.2642 -0.9644 0.0078
vn -0.3084 -0.9512 0.0033
vn 0.0752 0.9972 0.0000
vn 0.0823 0.9966 -0.0036
vn 0.5997 0.7999 0.0211
vn 0.0032 -0.9998 -0.0208
vn 0.0289 -0.9995 0.0049
vn -0.0026 -0.9999 -0.0091
vn 0.2677 -0.9635 -0.0020
vn 0.3147 -0.9492 0.0025
vn 0.8511 0.5249 0.0097
vn 0.2607 0.9654 0.0021
vn 0.9025 0.4303 -0.0180
vn -0.7304 0.6828 0.0160
vn -0.1487 0.9889 0.0014
vn -0.6808 0.7324 -0.0072
vn -0.7381 -0.6746 -0.0085
vn -0.2275 -0.9738 0.0034
vn -0.8457 -0.5336 -0.0011
vn -0.9999 0.0062 -0.0087
vn -0.9996 0.0279 -0.0025
vn -0.9988 0.0476 0.0053
vn -0.0194 0.9998 0.0006
vn -0.0334 0.9994 0.0002
vn -0.3582 0.9336 0.0061
vn 1.0000 -0.0025 -0.0012
vn 0.8007 -0.5987 -0.0175
vn 1.0000 -0.0026 0.0014
vn 0.7742 -0.6327 0.0179
vn 0.8553 0.4774 -0.2013
vn -0.0115 0.9955 -0.0941
vn -0.7446 -0.6650 -0.0570
vn -0.8319 -0.5547 0.0125
vn 0.3688 0.9287 -0.0373
vn 0.0034 -0.9971 -0.0763
vn -0.0070 -0.9991 -0.0414
vn 0.0088 0.9778 -0.2095
vn -0.7895 0.6137 -0.0025
vn -0.8899 0.4561 -0.0006
vn -0.8230 0.5665 -0.0402
vn 0.0042 0.7038 -0.7104
vn 0.0246 0.9542 -0.2982
s 1
f 2/1/1 47/2/2 1/3/3
f 1/3/3 16/4/4 2/1/1
f 93/5/5 124/6/6 3/7/7
f 3/8/7 89/9/8 34/10/9
f 3/8/7 135/11/10 89/9/8
f 89/9/8 33/12/11 34/10/9
f 3/7/7 34/13/9 93/5/5
f 72/14/12 74/15/13 5/16/14
f 5/16/14 37/17/15 4/18/16
f 6/19/17 9/20/18 24/21/19
f 7/22/20 8/23/21 54/24/22
f 54/25/22 28/26/23 7/27/20
f 27/28/24 26/29/25 23/30/26
f 91/31/27 93/5/5 10/32/28
f 33/12/11 41/33/29 42/34/30
f 15/35/31 19/36/32 13/37/33
f 17/38/34 14/39/35 13/37/33
f 19/36/32 2/1/1 16/4/4
f 1/40/3 38/41/36 16/42/4
f 38/43/36 18/44/37 16/45/4
f 17/38/34 19/36/32 16/46/4
f 25/47/38 23/30/26 24/48/19
f 71/49/39 70/50/40 26/29/25
f 27/28/24 58/51/41 71/49/39
f 29/52/42 12/53/43 28/26/23
f 11/54/44 7/22/20 30/55/45
f 7/27/20 12/53/43 30/56/45
f 31/57/46 114/58/47 51/59/48
f 11/54/44 106/60/49 31/57/46
f 89/9/8 131/61/50 55/62/51
f 34/63/9 57/64/52 10/32/28
f 42/34/30 57/65/52 34/66/9
f 34/10/9 33/12/11 42/34/30
f 4/18/16 37/17/15 36/67/53
f 39/68/54 132/69/55 86/70/56
f 86/70/56 92/71/57 39/68/54
f 66/72/58 40/73/59 64/74/60
f 45/75/61 40/73/59 44/76/62
f 44/76/62 46/77/63 35/78/64
f 44/76/62 47/2/2 45/75/61
f 11/54/44 51/59/48 50/79/65
f 51/59/48 52/80/66 50/79/65
f 8/23/21 50/79/65 52/80/66
f 7/22/20 11/54/44 50/79/65
f 53/81/67 49/82/68 54/25/22
f 54/24/22 8/23/21 69/83/69
f 55/62/51 41/33/29 33/12/11
f 73/84/70 56/85/71 41/33/29
f 35/78/64 57/64/52 75/86/72
f 53/81/67 58/87/41 59/88/73
f 58/87/41 61/89/74 59/88/73
f 9/20/18 21/90/75 59/88/73
f 61/89/74 9/20/18 59/88/73
f 19/36/32 15/35/31 62/91/76
f 62/91/76 63/92/77 45/75/61
f 45/75/61 47/2/2 62/91/76
f 15/35/31 66/72/58 64/74/60
f 67/93/78 43/94/79 56/85/71
f 52/80/66 116/95/80 8/23/21
f 4/18/16 56/85/71 72/14/12
f 134/96/81 47/2/2 44/76/62
f 44/76/62 75/86/72 134/96/81
f 75/97/72 67/93/78 134/98/81
f 134/98/81 68/99/82 1/40/3
f 1/3/3 47/2/2 134/96/81
f 76/100/83 118/101/84 122/102/85
f 102/103/86 74/15/13 77/104/87
f 74/15/13 81/105/88 77/104/87
f 133/106/89 83/107/90 98/108/91
f 78/109/92 66/72/58 15/35/31
f 83/107/90 78/109/92 98/108/91
f 84/110/93 66/72/58 78/109/92
f 78/109/92 79/111/94 98/108/91
f 78/109/92 65/112/95 79/111/94
f 80/113/96 76/100/83 81/105/88
f 81/105/88 82/114/97 80/113/96
f 82/114/97 88/115/98 80/113/96
f 83/107/90 117/116/99 85/117/100
f 117/116/99 115/118/101 85/117/100
f 84/110/93 86/70/56 132/69/55
f 84/110/93 83/107/90 85/117/100
f 85/117/100 114/58/47 125/119/102
f 123/120/103 92/71/57 86/70/56
f 85/117/100 123/120/103 86/70/56
f 107/121/104 87/122/105 90/123/106
f 88/115/98 87/122/105 80/113/96
f 131/61/50 89/9/8 88/115/98
f 18/44/37 37/17/15 94/124/107
f 95/125/108 128/126/109 94/124/107
f 96/127/110 120/128/111 98/108/91
f 79/111/94 65/112/95 97/129/112
f 97/129/112 129/130/113 96/127/110
f 14/39/35 17/38/34 100/131/114
f 17/132/34 18/44/37 94/124/107
f 17/132/34 94/124/107 100/133/114
f 94/124/107 130/134/115 100/133/114
f 101/135/116 122/102/85 109/136/117
f 109/136/117 21/90/75 126/137/118
f 95/125/108 5/16/14 102/103/86
f 128/126/109 95/125/108 102/103/86
f 103/138/119 104/139/120 105/140/121
f 104/139/120 32/141/122 105/140/121
f 103/142/119 105/143/121 90/123/106
f 103/142/119 90/123/106 135/11/10
f 103/138/119 124/6/6 104/139/120
f 30/144/45 112/145/123 106/146/49
f 106/60/49 105/140/121 32/141/122
f 32/141/122 31/57/46 106/60/49
f 109/136/117 108/147/124 21/90/75
f 109/136/117 122/102/85 108/147/124
f 23/30/26 26/29/25 110/148/125
f 110/148/125 120/128/111 99/149/126
f 112/145/123 12/53/43 111/150/127
f 107/121/104 111/150/127 87/122/105
f 111/150/127 107/121/104 112/145/123
f 52/80/66 51/59/48 113/151/128
f 114/58/47 115/118/101 113/151/128
f 117/116/99 119/152/129 70/50/40
f 116/95/80 113/151/128 115/118/101
f 87/122/105 111/150/127 118/101/84
f 119/152/129 133/106/89 120/128/111
f 119/152/129 117/116/99 133/106/89
f 119/152/129 120/128/111 26/29/25
f 122/102/85 121/153/130 108/147/124
f 122/102/85 118/101/84 121/153/130
f 124/6/6 92/71/57 123/120/103
f 123/120/103 125/119/102 104/139/120
f 125/119/102 114/58/47 104/139/120
f 104/139/120 124/6/6 123/120/103
f 126/137/118 22/154/131 127/155/132
f 127/155/132 128/126/109 126/137/118
f 128/126/109 127/155/132 129/156/113
f 129/156/113 22/154/131 6/19/17
f 129/130/113 99/149/126 96/127/110
f 99/149/126 129/130/113 6/157/17
f 1/40/3 68/99/82 36/67/53
f 3/7/7 124/6/6 135/158/10
f 4/18/16 72/14/12 5/16/14
f 5/16/14 74/15/13 102/103/86
f 5/16/14 95/125/108 37/17/15
f 37/17/15 95/125/108 94/124/107
f 6/157/17 110/148/125 99/149/126
f 6/19/17 22/154/131 20/159/133
f 6/19/17 20/159/133 9/20/18
f 6/157/17 24/48/19 110/148/125
f 110/148/125 24/48/19 23/30/26
f 8/23/21 7/22/20 50/79/65
f 18/44/37 38/41/36 37/17/15
f 13/37/33 65/112/95 15/35/31
f 13/37/33 14/39/35 65/112/95
f 13/37/33 19/36/32 17/38/34
f 16/45/4 18/44/37 17/132/34
f 22/154/131 21/90/75 20/159/133
f 21/90/75 9/20/18 20/159/133
f 25/160/38 27/28/24 23/30/26
f 25/160/38 58/51/41 27/28/24
f 61/89/74 25/161/38 9/20/18
f 24/21/19 9/20/18 25/161/38
f 26/29/25 27/28/24 71/49/39
f 29/52/42 28/26/23 121/153/130
f 12/162/43 112/145/123 30/144/45
f 30/163/45 106/60/49 11/54/44
f 7/27/20 28/26/23 12/53/43
f 31/57/46 32/141/122 114/58/47
f 104/139/120 114/58/47 32/141/122
f 31/57/46 51/59/48 11/54/44
f 33/12/11 89/9/8 55/62/51
f 10/164/28 93/5/5 34/13/9
f 46/77/63 10/32/28 35/78/64
f 46/77/63 91/31/27 10/32/28
f 35/78/64 10/32/28 57/64/52
f 35/78/64 75/86/72 44/76/62
f 36/67/53 68/99/82 4/18/16
f 36/67/53 37/17/15 38/41/36
f 38/41/36 1/40/3 36/67/53
f 46/77/63 40/73/59 39/68/54
f 39/68/54 40/73/59 132/69/55
f 46/77/63 39/68/54 91/31/27
f 66/72/58 84/110/93 132/69/55
f 66/72/58 132/69/55 40/73/59
f 42/34/30 41/33/29 43/94/79
f 41/33/29 56/85/71 43/94/79
f 45/75/61 64/74/60 40/73/59
f 44/76/62 40/73/59 46/77/63
f 48/165/134 49/82/68 60/166/135
f 48/165/134 121/153/130 28/26/23
f 48/165/134 28/26/23 54/25/22
f 54/25/22 49/82/68 48/165/134
f 53/167/67 69/83/69 71/49/39
f 69/83/69 53/167/67 54/24/22
f 41/33/29 55/62/51 73/84/70
f 55/62/51 131/61/50 82/114/97
f 55/62/51 82/114/97 73/84/70
f 75/97/72 57/65/52 42/34/30
f 42/34/30 43/94/79 75/97/72
f 58/87/41 25/168/38 61/89/74
f 53/81/67 59/88/73 49/82/68
f 53/167/67 71/49/39 58/51/41
f 59/88/73 108/147/124 60/166/135
f 59/88/73 60/166/135 49/82/68
f 2/1/1 62/91/76 47/2/2
f 62/91/76 2/1/1 19/36/32
f 64/74/60 63/92/77 15/35/31
f 64/74/60 45/75/61 63/92/77
f 15/35/31 63/92/77 62/91/76
f 56/85/71 4/18/16 68/99/82
f 56/85/71 68/99/82 67/93/78
f 68/99/82 134/98/81 67/93/78
f 8/23/21 116/95/80 69/83/69
f 69/83/69 116/95/80 70/50/40
f 69/83/69 70/50/40 71/49/39
f 73/84/70 74/15/13 72/14/12
f 72/14/12 56/85/71 73/84/70
f 75/97/72 43/94/79 67/93/78
f 77/104/87 76/100/83 122/102/85
f 77/104/87 81/105/88 76/100/83
f 122/102/85 101/135/116 77/104/87
f 74/15/13 73/84/70 81/105/88
f 78/109/92 15/35/31 65/112/95
f 80/113/96 87/122/105 76/100/83
f 87/122/105 118/101/84 76/100/83
f 81/105/88 73/84/70 82/114/97
f 83/107/90 133/106/89 117/116/99
f 84/110/93 78/109/92 83/107/90
f 85/117/100 115/118/101 114/58/47
f 85/117/100 125/119/102 123/120/103
f 86/70/56 84/110/93 85/117/100
f 88/115/98 90/123/106 87/122/105
f 88/115/98 82/114/97 131/61/50
f 90/123/106 105/143/121 107/121/104
f 91/31/27 39/68/54 92/71/57
f 93/5/5 92/71/57 124/6/6
f 92/71/57 93/5/5 91/31/27
f 94/124/107 128/126/109 130/134/115
f 79/111/94 96/127/110 98/108/91
f 96/127/110 79/111/94 97/129/112
f 97/129/112 65/112/95 14/39/35
f 101/135/116 109/136/117 126/137/118
f 101/135/116 126/137/118 102/103/86
f 102/103/86 77/104/87 101/135/116
f 90/123/106 88/115/98 135/11/10
f 135/11/10 88/115/98 89/9/8
f 103/138/119 135/158/10 124/6/6
f 107/121/104 106/146/49 112/145/123
f 107/121/104 105/143/121 106/146/49
f 108/147/124 59/88/73 21/90/75
f 99/149/126 120/128/111 96/127/110
f 51/59/48 114/58/47 113/151/128
f 115/118/101 117/116/99 116/95/80
f 117/116/99 70/50/40 116/95/80
f 116/95/80 52/80/66 113/151/128
f 118/101/84 111/150/127 29/52/42
f 29/52/42 111/150/127 12/53/43
f 118/101/84 29/52/42 121/153/130
f 119/152/129 26/29/25 70/50/40
f 120/128/111 110/148/125 26/29/25
f 120/128/111 133/106/89 98/108/91
f 108/147/124 121/153/130 48/165/134
f 108/147/124 48/165/134 60/166/135
f 128/126/109 102/103/86 126/137/118
f 126/137/118 21/90/75 22/154/131
f 127/155/132 22/154/131 129/156/113
f 129/130/113 97/129/112 130/169/115
f 97/129/112 14/39/35 130/169/115
f 130/134/115 128/126/109 129/156/113
f 14/39/35 100/131/114 130/169/115
