mtllib Floor_b5efb1ac.mtl
g mesh_6f4bb1d7
v -4.5 -0.2 -2
v -4.5 -0.2 2.65
v 4.55001 -0.2 2.65
v 4.55001 -0.2 -2
v -4.5 0 -2
v -4.5 -0.2 -2
v 4.55001 -0.2 -2
v 4.55001 0 -2
v 4.55001 0 -2
v 4.55001 -0.2 -2
v 4.55001 -0.2 2.65
v 4.55001 0 2.65
v 4.55001 0 2.65
v 4.55001 -0.2 2.65
v -4.5 -0.2 2.65
v -4.5 0 2.65
v -4.5 0 2.65
v -4.5 -0.2 2.65
v -4.5 -0.2 -2
v -4.5 0 -2
v -4.5 0 -2
v 4.55001 0 -2
v 4.55001 0 2.65
v -4.5 0 2.65
vn 0 -0.5773503 0
vn 0 -0.5773503 0
vn 0 -0.5773503 0
vn 0 -0.5773503 0
vn 0 0 -0.5773503
vn 0 0 -0.5773503
vn 0 0 -0.5773503
vn 0 0 -0.5773503
vn 0.5773503 0 0
vn 0.5773503 0 0
vn 0.5773503 0 0
vn 0.5773503 0 0
vn 0 0 0.5773503
vn 0 0 0.5773503
vn 0 0 0.5773503
vn 0 0 0.5773503
vn -0.5773503 0 0
vn -0.5773503 0 0
vn -0.5773503 0 0
vn -0.5773503 0 0
vn 0 0.5773503 0
vn 0 0.5773503 0
vn 0 0.5773503 0
vn 0 0.5773503 0
vt -1.71003 -2.238659
vt -1.71003 -0.1842949
vt 2.479261 -0.1842949
vt 2.479261 -2.238659
vt 2.479261 0.248491
vt 2.479261 -0.1075987
vt -1.71003 -0.1075987
vt -1.71003 0.248491
vt 0.3435281 3.239645
vt 0.3435281 2.883555
vt -1.710836 2.883555
vt -1.710836 3.239645
vt 2.479261 0.6757987
vt 2.479261 0.3197089
vt -1.71003 0.3197089
vt -1.71003 0.6757987
vt 2.480067 3.239645
vt 2.480067 2.883555
vt 0.4257026 2.883555
vt 0.4257026 3.239645
vt 2.479261 0.7524949
vt -1.71003 0.7524949
vt -1.71003 2.806859
vt 2.479261 2.806859
usemtl BedroomFloor1
f 3/3/3 2/2/2 1/1/1
f 4/4/4 3/3/3 1/1/1
f 7/7/7 6/6/6 5/5/5
f 8/8/8 7/7/7 5/5/5
f 11/11/11 10/10/10 9/9/9
f 12/12/12 11/11/11 9/9/9
f 15/15/15 14/14/14 13/13/13
f 16/16/16 15/15/15 13/13/13
f 19/19/19 18/18/18 17/17/17
f 20/20/20 19/19/19 17/17/17
f 23/23/23 22/22/22 21/21/21
f 24/24/24 23/23/23 21/21/21
