mtllib FP212:LightFixture1_8f6b8007.mtl
g FP212:LightFixture1__8f6b8007
v -0.47466 3.58858 -0.45129
v -0.481 3.58858 -0.45255
v -0.48733 3.58858 -0.45129
v -0.46929 3.58858 -0.4477
v -0.4927 3.58858 -0.4477
v -0.4657 3.58858 -0.44233
v -0.49629 3.58858 -0.44233
v -0.49755 3.58858 -0.43599
v -0.46444 3.58858 -0.43599
v -0.4657 3.58858 -0.42966
v -0.49629 3.58858 -0.42966
v -0.46929 3.58858 -0.42429
v -0.4927 3.58858 -0.42429
v -0.47466 3.58858 -0.4207
v -0.48733 3.58858 -0.4207
v -0.481 3.58858 -0.41944
v -0.53385 3.59993 -0.38314
v -0.51946 3.59178 -0.39753
v -0.53126 3.59178 -0.41518
v -0.55006 3.59993 -0.40739
v -0.55006 3.59993 -0.40739
v -0.53126 3.59178 -0.41518
v -0.5354 3.59178 -0.43599
v -0.55575 3.59993 -0.43599
v -0.55575 3.59993 -0.43599
v -0.5354 3.59178 -0.43599
v -0.53126 3.59178 -0.45681
v -0.55006 3.59993 -0.4646
v -0.55006 3.59993 -0.4646
v -0.53126 3.59178 -0.45681
v -0.51946 3.59178 -0.47446
v -0.53385 3.59993 -0.48885
v -0.53385 3.59993 -0.48885
v -0.51946 3.59178 -0.47446
v -0.50181 3.59178 -0.48626
v -0.5096 3.59993 -0.50506
v -0.5096 3.59993 -0.50506
v -0.50181 3.59178 -0.48626
v -0.481 3.59178 -0.4904
v -0.481 3.59993 -0.51075
v -0.481 3.59993 -0.51075
v -0.481 3.59178 -0.4904
v -0.46018 3.59178 -0.48626
v -0.45239 3.59993 -0.50506
v -0.45239 3.59993 -0.50506
v -0.46018 3.59178 -0.48626
v -0.44253 3.59178 -0.47446
v -0.42814 3.59993 -0.48885
v -0.42814 3.59993 -0.48885
v -0.44253 3.59178 -0.47446
v -0.43073 3.59178 -0.45681
v -0.41193 3.59993 -0.4646
v -0.41193 3.59993 -0.4646
v -0.43073 3.59178 -0.45681
v -0.42659 3.59178 -0.43599
v -0.40624 3.59993 -0.43599
v -0.40624 3.59993 -0.43599
v -0.42659 3.59178 -0.43599
v -0.43073 3.59178 -0.41518
v -0.41193 3.59993 -0.40739
v -0.41193 3.59993 -0.40739
v -0.43073 3.59178 -0.41518
v -0.44253 3.59178 -0.39753
v -0.42814 3.59993 -0.38314
v -0.42814 3.59993 -0.38314
v -0.44253 3.59178 -0.39753
v -0.46018 3.59178 -0.38573
v -0.45239 3.59993 -0.36693
v -0.45239 3.59993 -0.36693
v -0.46018 3.59178 -0.38573
v -0.481 3.59178 -0.38159
v -0.481 3.59993 -0.36124
v -0.481 3.59993 -0.36124
v -0.481 3.59178 -0.38159
v -0.50181 3.59178 -0.38573
v -0.5096 3.59993 -0.36693
v -0.5096 3.59993 -0.36693
v -0.50181 3.59178 -0.38573
v -0.51946 3.59178 -0.39753
v -0.53385 3.59993 -0.38314
v -0.43073 3.59178 -0.45681
v -0.46444 3.58858 -0.43599
v -0.42659 3.59178 -0.43599
v -0.4657 3.58858 -0.44233
v -0.4657 3.58858 -0.42966
v -0.44253 3.59178 -0.47446
v -0.43073 3.59178 -0.41518
v -0.46929 3.58858 -0.4477
v -0.46929 3.58858 -0.42429
v -0.46018 3.59178 -0.48626
v -0.44253 3.59178 -0.39753
v -0.47466 3.58858 -0.45129
v -0.47466 3.58858 -0.4207
v -0.481 3.59178 -0.4904
v -0.46018 3.59178 -0.38573
v -0.481 3.58858 -0.45255
v -0.481 3.58858 -0.41944
v -0.50181 3.59178 -0.48626
v -0.481 3.59178 -0.38159
v -0.48733 3.58858 -0.45129
v -0.48733 3.58858 -0.4207
v -0.51946 3.59178 -0.47446
v -0.50181 3.59178 -0.38573
v -0.4927 3.58858 -0.4477
v -0.4927 3.58858 -0.42429
v -0.53126 3.59178 -0.45681
v -0.51946 3.59178 -0.39753
v -0.49629 3.58858 -0.44233
v -0.49629 3.58858 -0.42966
v -0.5354 3.59178 -0.43599
v -0.53126 3.59178 -0.41518
v -0.49755 3.58858 -0.43599
v -0.51926 3.59348 -0.34361
v -0.55171 3.59348 -0.36528
v -0.55171 3.60348 -0.36528
v -0.51926 3.59348 -0.34361
v -0.55171 3.60348 -0.36528
v -0.51926 3.60348 -0.34361
v -0.481 3.59348 -0.536
v -0.481 3.58853 -0.52631
v -0.44643 3.58853 -0.51943
v -0.44273 3.59348 -0.52838
v -0.44273 3.59348 -0.52838
v -0.44643 3.58853 -0.51943
v -0.41713 3.58853 -0.49986
v -0.41028 3.59348 -0.50671
v -0.41028 3.59348 -0.50671
v -0.41713 3.58853 -0.49986
v -0.39756 3.58853 -0.47056
v -0.38861 3.59348 -0.47426
v -0.38861 3.59348 -0.47426
v -0.39756 3.58853 -0.47056
v -0.39068 3.58853 -0.43599
v -0.381 3.59348 -0.43599
v -0.381 3.59348 -0.43599
v -0.39068 3.58853 -0.43599
v -0.39756 3.58853 -0.40143
v -0.38861 3.59348 -0.39773
v -0.38861 3.59348 -0.39773
v -0.39756 3.58853 -0.40143
v -0.41713 3.58853 -0.37213
v -0.41028 3.59348 -0.36528
v -0.41028 3.59348 -0.36528
v -0.41713 3.58853 -0.37213
v -0.44643 3.58853 -0.35256
v -0.44273 3.59348 -0.34361
v -0.44273 3.59348 -0.34361
v -0.44643 3.58853 -0.35256
v -0.481 3.58853 -0.34568
v -0.481 3.59348 -0.336
v -0.481 3.59348 -0.336
v -0.481 3.58853 -0.34568
v -0.51556 3.58853 -0.35256
v -0.51926 3.59348 -0.34361
v -0.51926 3.59348 -0.34361
v -0.51556 3.58853 -0.35256
v -0.54486 3.58853 -0.37213
v -0.55171 3.59348 -0.36528
v -0.55171 3.59348 -0.36528
v -0.54486 3.58853 -0.37213
v -0.56443 3.58853 -0.40143
v -0.57338 3.59348 -0.39773
v -0.57338 3.59348 -0.39773
v -0.56443 3.58853 -0.40143
v -0.57131 3.58853 -0.43599
v -0.58099 3.59348 -0.43599
v -0.58099 3.59348 -0.43599
v -0.57131 3.58853 -0.43599
v -0.56443 3.58853 -0.47056
v -0.57338 3.59348 -0.47426
v -0.57338 3.59348 -0.47426
v -0.56443 3.58853 -0.47056
v -0.54486 3.58853 -0.49986
v -0.55171 3.59348 -0.50671
v -0.55171 3.59348 -0.50671
v -0.54486 3.58853 -0.49986
v -0.51556 3.58853 -0.51943
v -0.51926 3.59348 -0.52838
v -0.51926 3.59348 -0.52838
v -0.51556 3.58853 -0.51943
v -0.481 3.58853 -0.52631
v -0.481 3.59348 -0.536
v -0.51556 3.58853 -0.35256
v -0.54003 3.58653 -0.37696
v -0.54486 3.58853 -0.37213
v -0.51294 3.58653 -0.35887
v -0.54486 3.58853 -0.37213
v -0.54003 3.58653 -0.37696
v -0.55812 3.58653 -0.40405
v -0.56443 3.58853 -0.40143
v -0.56443 3.58853 -0.40143
v -0.55812 3.58653 -0.40405
v -0.56448 3.58653 -0.43599
v -0.57131 3.58853 -0.43599
v -0.57131 3.58853 -0.43599
v -0.56448 3.58653 -0.43599
v -0.55812 3.58653 -0.46794
v -0.56443 3.58853 -0.47056
v -0.56443 3.58853 -0.47056
v -0.55812 3.58653 -0.46794
v -0.54003 3.58653 -0.49503
v -0.54486 3.58853 -0.49986
v -0.54486 3.58853 -0.49986
v -0.54003 3.58653 -0.49503
v -0.51294 3.58653 -0.51312
v -0.51556 3.58853 -0.51943
v -0.51556 3.58853 -0.51943
v -0.51294 3.58653 -0.51312
v -0.481 3.58653 -0.51948
v -0.481 3.58853 -0.52631
v -0.481 3.58853 -0.52631
v -0.481 3.58653 -0.51948
v -0.44905 3.58653 -0.51312
v -0.44643 3.58853 -0.51943
v -0.44643 3.58853 -0.51943
v -0.44905 3.58653 -0.51312
v -0.42196 3.58653 -0.49503
v -0.41713 3.58853 -0.49986
v -0.41713 3.58853 -0.49986
v -0.42196 3.58653 -0.49503
v -0.40387 3.58653 -0.46794
v -0.39756 3.58853 -0.47056
v -0.39756 3.58853 -0.47056
v -0.40387 3.58653 -0.46794
v -0.39751 3.58653 -0.43599
v -0.39068 3.58853 -0.43599
v -0.39068 3.58853 -0.43599
v -0.39751 3.58653 -0.43599
v -0.40387 3.58653 -0.40405
v -0.39756 3.58853 -0.40143
v -0.39756 3.58853 -0.40143
v -0.40387 3.58653 -0.40405
v -0.42196 3.58653 -0.37696
v -0.41713 3.58853 -0.37213
v -0.41713 3.58853 -0.37213
v -0.42196 3.58653 -0.37696
v -0.44905 3.58653 -0.35887
v -0.44643 3.58853 -0.35256
v -0.44643 3.58853 -0.35256
v -0.44905 3.58653 -0.35887
v -0.481 3.58653 -0.35251
v -0.481 3.58853 -0.34568
v -0.481 3.58853 -0.34568
v -0.481 3.58653 -0.35251
v -0.51294 3.58653 -0.35887
v -0.51556 3.58853 -0.35256
v -0.481 3.59348 -0.536
v -0.44273 3.59348 -0.52838
v -0.44273 3.60348 -0.52838
v -0.481 3.60348 -0.536
v -0.51926 3.59348 -0.52838
v -0.481 3.59348 -0.536
v -0.481 3.60348 -0.536
v -0.51926 3.60348 -0.52838
v -0.55171 3.59348 -0.50671
v -0.51926 3.59348 -0.52838
v -0.51926 3.60348 -0.52838
v -0.55171 3.60348 -0.50671
v -0.57338 3.59348 -0.47426
v -0.55171 3.59348 -0.50671
v -0.55171 3.60348 -0.50671
v -0.57338 3.60348 -0.47426
v -0.58099 3.59348 -0.43599
v -0.57338 3.59348 -0.47426
v -0.57338 3.60348 -0.47426
v -0.58099 3.60348 -0.43599
v -0.57338 3.59348 -0.39773
v -0.58099 3.59348 -0.43599
v -0.58099 3.60348 -0.43599
v -0.57338 3.60348 -0.39773
v -0.55171 3.59348 -0.36528
v -0.57338 3.59348 -0.39773
v -0.57338 3.60348 -0.39773
v -0.55171 3.60348 -0.36528
v -0.481 3.59348 -0.336
v -0.51926 3.59348 -0.34361
v -0.51926 3.60348 -0.34361
v -0.481 3.60348 -0.336
v -0.44273 3.59348 -0.34361
v -0.481 3.59348 -0.336
v -0.481 3.60348 -0.336
v -0.44273 3.60348 -0.34361
v -0.41028 3.59348 -0.36528
v -0.44273 3.59348 -0.34361
v -0.44273 3.60348 -0.34361
v -0.41028 3.60348 -0.36528
v -0.38861 3.59348 -0.39773
v -0.41028 3.59348 -0.36528
v -0.41028 3.60348 -0.36528
v -0.38861 3.60348 -0.39773
v -0.381 3.59348 -0.43599
v -0.38861 3.59348 -0.39773
v -0.38861 3.60348 -0.39773
v -0.381 3.60348 -0.43599
v -0.38861 3.59348 -0.47426
v -0.381 3.59348 -0.43599
v -0.381 3.60348 -0.43599
v -0.38861 3.60348 -0.47426
v -0.41028 3.59348 -0.50671
v -0.38861 3.59348 -0.47426
v -0.38861 3.60348 -0.47426
v -0.41028 3.60348 -0.50671
v -0.44273 3.59348 -0.52838
v -0.41028 3.59348 -0.50671
v -0.41028 3.60348 -0.50671
v -0.44273 3.60348 -0.52838
v -0.39751 3.58653 -0.43599
v -0.39751 3.59993 -0.43599
v -0.40387 3.59993 -0.40405
v -0.40387 3.58653 -0.40405
v -0.40387 3.58653 -0.40405
v -0.40387 3.59993 -0.40405
v -0.42196 3.59993 -0.37696
v -0.42196 3.58653 -0.37696
v -0.42196 3.58653 -0.37696
v -0.42196 3.59993 -0.37696
v -0.44905 3.59993 -0.35887
v -0.44905 3.58653 -0.35887
v -0.44905 3.58653 -0.35887
v -0.44905 3.59993 -0.35887
v -0.481 3.59993 -0.35251
v -0.481 3.58653 -0.35251
v -0.481 3.58653 -0.35251
v -0.481 3.59993 -0.35251
v -0.51294 3.59993 -0.35887
v -0.51294 3.58653 -0.35887
v -0.51294 3.58653 -0.35887
v -0.51294 3.59993 -0.35887
v -0.54003 3.59993 -0.37696
v -0.54003 3.58653 -0.37696
v -0.54003 3.58653 -0.37696
v -0.54003 3.59993 -0.37696
v -0.55812 3.59993 -0.40405
v -0.55812 3.58653 -0.40405
v -0.55812 3.58653 -0.40405
v -0.55812 3.59993 -0.40405
v -0.56448 3.59993 -0.43599
v -0.56448 3.58653 -0.43599
v -0.56448 3.58653 -0.43599
v -0.56448 3.59993 -0.43599
v -0.55812 3.59993 -0.46794
v -0.55812 3.58653 -0.46794
v -0.55812 3.58653 -0.46794
v -0.55812 3.59993 -0.46794
v -0.54003 3.59993 -0.49503
v -0.54003 3.58653 -0.49503
v -0.54003 3.58653 -0.49503
v -0.54003 3.59993 -0.49503
v -0.51294 3.59993 -0.51312
v -0.51294 3.58653 -0.51312
v -0.51294 3.58653 -0.51312
v -0.51294 3.59993 -0.51312
v -0.481 3.59993 -0.51948
v -0.481 3.58653 -0.51948
v -0.481 3.58653 -0.51948
v -0.481 3.59993 -0.51948
v -0.44905 3.59993 -0.51312
v -0.44905 3.58653 -0.51312
v -0.44905 3.58653 -0.51312
v -0.44905 3.59993 -0.51312
v -0.42196 3.59993 -0.49503
v -0.42196 3.58653 -0.49503
v -0.42196 3.58653 -0.49503
v -0.42196 3.59993 -0.49503
v -0.40387 3.59993 -0.46794
v -0.40387 3.58653 -0.46794
v -0.40387 3.58653 -0.46794
v -0.40387 3.59993 -0.46794
v -0.39751 3.59993 -0.43599
v -0.39751 3.58653 -0.43599
v -0.54003 3.59993 -0.37696
v -0.53385 3.59993 -0.38314
v -0.55006 3.59993 -0.40739
v -0.55812 3.59993 -0.40405
v -0.51294 3.59993 -0.35887
v -0.55575 3.59993 -0.43599
v -0.5096 3.59993 -0.36693
v -0.56448 3.59993 -0.43599
v -0.481 3.59993 -0.35251
v -0.55006 3.59993 -0.4646
v -0.481 3.59993 -0.36124
v -0.55812 3.59993 -0.46794
v -0.44905 3.59993 -0.35887
v -0.53385 3.59993 -0.48885
v -0.45239 3.59993 -0.36693
v -0.54003 3.59993 -0.49503
v -0.42196 3.59993 -0.37696
v -0.5096 3.59993 -0.50506
v -0.42814 3.59993 -0.38314
v -0.51294 3.59993 -0.51312
v -0.40387 3.59993 -0.40405
v -0.481 3.59993 -0.51075
v -0.41193 3.59993 -0.40739
v -0.481 3.59993 -0.51948
v -0.39751 3.59993 -0.43599
v -0.45239 3.59993 -0.50506
v -0.40624 3.59993 -0.43599
v -0.44905 3.59993 -0.51312
v -0.40387 3.59993 -0.46794
v -0.42814 3.59993 -0.48885
v -0.41193 3.59993 -0.4646
v -0.42196 3.59993 -0.49503
vn -0.481 3.02265 -0.436
vn -0.481 3.02265 -0.436
vn -0.481 3.02265 -0.4360395
vn -0.481 3.02265 -0.4360023
vn -0.481 3.02265 -0.4360227
vn -0.481 3.02265 -0.436001
vn -0.481 3.02265 -0.4360038
vn -0.481 3.02265 -0.436
vn -0.481 3.02265 -0.436
vn -0.481 3.02265 -0.4359872
vn -0.481 3.02265 -0.4360062
vn -0.481 3.02265 -0.4359668
vn -0.481 3.02265 -0.4360249
vn -0.481 3.02265 -0.436
vn -0.481 3.02265 -0.436
vn -0.481 3.02265 -0.436
vn -0.6624742 3.065493 -0.3147435
vn -0.6624742 3.065493 -0.3147435
vn -0.6624742 3.065493 -0.3147435
vn -0.6624741 3.065495 -0.314738
vn -0.6950628 3.065493 -0.3934205
vn -0.6950628 3.065493 -0.3934205
vn -0.6950628 3.065493 -0.3934205
vn -0.6950647 3.065494 -0.3934235
vn -0.6950645 3.065493 -0.4785644
vn -0.6950645 3.065493 -0.4785644
vn -0.6950645 3.065493 -0.4785644
vn -0.6950635 3.065494 -0.4785874
vn -0.6624766 3.065487 -0.557227
vn -0.6624766 3.065487 -0.557227
vn -0.6624766 3.065487 -0.557227
vn -0.6624722 3.065499 -0.5572832
vn -0.6022574 3.065487 -0.6174549
vn -0.6022574 3.065487 -0.6174549
vn -0.6022574 3.065487 -0.6174549
vn -0.6022556 3.065498 -0.6174874
vn -0.5235811 3.065484 -0.6500403
vn -0.5235811 3.065484 -0.6500403
vn -0.5235811 3.065484 -0.6500403
vn -0.5235798 3.065499 -0.6500772
vn -0.4384198 3.06549 -0.6500556
vn -0.4384198 3.06549 -0.6500556
vn -0.4384198 3.06549 -0.6500555
vn -0.4384201 3.065492 -0.6500589
vn -0.3597429 3.065489 -0.6174607
vn -0.3597429 3.065489 -0.6174607
vn -0.3597429 3.065489 -0.6174607
vn -0.3597428 3.065495 -0.6174774
vn -0.2995262 3.065493 -0.5572552
vn -0.2995262 3.065493 -0.5572552
vn -0.2995262 3.065493 -0.5572552
vn -0.2995279 3.065495 -0.5572662
vn -0.2669381 3.065493 -0.4785795
vn -0.2669381 3.065493 -0.4785795
vn -0.2669381 3.065493 -0.4785795
vn -0.266937 3.065494 -0.4785873
vn -0.2669382 3.065493 -0.3934204
vn -0.2669382 3.065493 -0.3934204
vn -0.2669382 3.065493 -0.3934204
vn -0.2669375 3.065494 -0.3934128
vn -0.2995269 3.065496 -0.3147305
vn -0.2995269 3.065496 -0.3147305
vn -0.2995269 3.065496 -0.3147305
vn -0.299527 3.065494 -0.3147385
vn -0.3597416 3.065487 -0.2545457
vn -0.3597415 3.065487 -0.2545457
vn -0.3597415 3.065487 -0.2545457
vn -0.359744 3.065498 -0.2545121
vn -0.4384202 3.065493 -0.2219384
vn -0.4384202 3.065493 -0.2219384
vn -0.4384202 3.065493 -0.2219384
vn -0.4384208 3.065492 -0.2219412
vn -0.5235797 3.06549 -0.2219464
vn -0.5235797 3.06549 -0.2219464
vn -0.5235797 3.06549 -0.2219464
vn -0.5235788 3.065495 -0.2219319
vn -0.6022587 3.06549 -0.2545376
vn -0.6022587 3.06549 -0.2545376
vn -0.6022587 3.06549 -0.2545376
vn -0.6022555 3.065496 -0.2545184
vn -0.4323687 3.024783 -0.4456598
vn -0.4323687 3.024783 -0.4456598
vn -0.4323687 3.024783 -0.4456598
vn -0.4397723 3.024785 -0.4635824
vn -0.4323691 3.024783 -0.4263369
vn -0.4534524 3.024783 -0.4772323
vn -0.4323683 3.024783 -0.4263402
vn -0.4534529 3.024781 -0.4771985
vn -0.4397735 3.024782 -0.408476
vn -0.4713266 3.024784 -0.48464
vn -0.4397722 3.024783 -0.4084466
vn -0.4713267 3.024783 -0.4846308
vn -0.4534528 3.024783 -0.3947713
vn -0.4906733 3.024783 -0.4846372
vn -0.4534525 3.024782 -0.3947766
vn -0.4906738 3.024783 -0.4846362
vn -0.4713262 3.024781 -0.387391
vn -0.5085473 3.024782 -0.4772235
vn -0.4713265 3.024783 -0.3873622
vn -0.5085472 3.024783 -0.4772286
vn -0.4906733 3.024783 -0.387371
vn -0.5222277 3.024783 -0.4635536
vn -0.4906734 3.024784 -0.3873604
vn -0.5222275 3.024785 -0.4635842
vn -0.5085477 3.024783 -0.3947714
vn -0.5296313 3.024783 -0.4456776
vn -0.5085473 3.024783 -0.3947676
vn -0.5296318 3.024783 -0.4456627
vn -0.5222273 3.024785 -0.4084156
vn -0.5296313 3.024783 -0.4263224
vn -0.5222275 3.024783 -0.4084464
vn -0.5296319 3.024783 -0.4263374
vn -0.8017507 3.6 0.04405451
vn -0.8017654 3.6 0.04404464
vn -0.8017627 3.6 0.04404655
vn -0.8017507 3.6 0.04405451
vn -0.8017627 3.6 0.04404655
vn -0.8017479 3.6 0.0440563
vn -0.4289516 3.087994 -0.6976757
vn -0.4289515 3.087994 -0.6976756
vn -0.4289516 3.087994 -0.6976756
vn -0.4289504 3.088 -0.6976866
vn -0.3327758 3.087989 -0.6578277
vn -0.3327758 3.087989 -0.6578277
vn -0.3327758 3.087989 -0.6578277
vn -0.3327786 3.088002 -0.6578594
vn -0.2591663 3.087986 -0.5842069
vn -0.2591662 3.087986 -0.5842069
vn -0.2591663 3.087986 -0.5842069
vn -0.2591667 3.087993 -0.5842292
vn -0.219329 3.087991 -0.4880426
vn -0.219329 3.087991 -0.4880426
vn -0.219329 3.087991 -0.4880426
vn -0.2193286 3.087992 -0.4880539
vn -0.2193277 3.087992 -0.3839571
vn -0.2193277 3.087992 -0.3839571
vn -0.2193277 3.087992 -0.3839571
vn -0.21933 3.087993 -0.3839318
vn -0.2591643 3.087986 -0.2877964
vn -0.2591643 3.087986 -0.2877964
vn -0.2591643 3.087986 -0.2877964
vn -0.2591702 3.087996 -0.2877559
vn -0.3327765 3.087997 -0.2141517
vn -0.3327765 3.087997 -0.2141517
vn -0.3327765 3.087997 -0.2141517
vn -0.3327758 3.08799 -0.2141692
vn -0.428951 3.087991 -0.1743308
vn -0.428951 3.087991 -0.1743308
vn -0.428951 3.087991 -0.1743308
vn -0.4289511 3.088 -0.1743118
vn -0.5330508 3.08798 -0.1743526
vn -0.5330508 3.08798 -0.1743526
vn -0.5330508 3.08798 -0.1743526
vn -0.5330482 3.088 -0.1743125
vn -0.6292257 3.087987 -0.2141763
vn -0.6292257 3.087987 -0.2141763
vn -0.6292257 3.087987 -0.2141763
vn -0.6292235 3.087997 -0.2141534
vn -0.7028356 3.087991 -0.2877782
vn -0.7028356 3.087991 -0.2877782
vn -0.7028356 3.087991 -0.2877782
vn -0.7028324 3.087992 -0.2877706
vn -0.7426711 3.087991 -0.3839575
vn -0.742671 3.087991 -0.3839575
vn -0.742671 3.087991 -0.3839575
vn -0.7426683 3.087991 -0.3839425
vn -0.7426685 3.08799 -0.4880421
vn -0.7426685 3.08799 -0.4880421
vn -0.7426685 3.08799 -0.4880421
vn -0.7426698 3.087991 -0.4880515
vn -0.7028314 3.087995 -0.5842381
vn -0.7028314 3.087995 -0.5842381
vn -0.7028315 3.087995 -0.5842381
vn -0.7028364 3.08799 -0.5842144
vn -0.6292285 3.08798 -0.6578054
vn -0.6292285 3.08798 -0.6578054
vn -0.6292285 3.08798 -0.6578054
vn -0.6292208 3.088002 -0.6578595
vn -0.5330518 3.087977 -0.6976417
vn -0.5330518 3.087977 -0.6976417
vn -0.5330518 3.087977 -0.6976417
vn -0.533048 3.087999 -0.6976863
vn -0.5727534 3.046776 -0.2986755
vn -0.5727534 3.046776 -0.2986755
vn -0.5727534 3.046776 -0.2986755
vn -0.5727535 3.046773 -0.2986864
vn -0.6183214 3.046777 -0.3442341
vn -0.6183214 3.046777 -0.3442341
vn -0.6183214 3.046777 -0.3442341
vn -0.6183215 3.046772 -0.3442673
vn -0.6429815 3.046776 -0.4037791
vn -0.6429816 3.046776 -0.4037791
vn -0.6429816 3.046776 -0.4037791
vn -0.6429783 3.046774 -0.4037833
vn -0.6429797 3.046775 -0.4682204
vn -0.6429798 3.046775 -0.4682204
vn -0.6429797 3.046775 -0.4682204
vn -0.6429804 3.046775 -0.4682078
vn -0.6183209 3.046776 -0.5277578
vn -0.6183209 3.046776 -0.5277578
vn -0.6183209 3.046776 -0.5277578
vn -0.6183217 3.046777 -0.5277617
vn -0.572753 3.046781 -0.5733429
vn -0.5727529 3.046781 -0.5733429
vn -0.572753 3.046781 -0.5733429
vn -0.5727543 3.04677 -0.5732983
vn -0.5132204 3.046766 -0.59795
vn -0.5132204 3.046766 -0.59795
vn -0.5132204 3.046766 -0.59795
vn -0.5132187 3.046782 -0.5980058
vn -0.4487814 3.04677 -0.5979612
vn -0.4487814 3.04677 -0.5979612
vn -0.4487814 3.04677 -0.5979612
vn -0.4487788 3.046768 -0.5979564
vn -0.3892453 3.046771 -0.5733037
vn -0.3892453 3.046771 -0.5733037
vn -0.3892453 3.046771 -0.5733037
vn -0.3892452 3.04677 -0.5732983
vn -0.3436834 3.046777 -0.5277706
vn -0.3436835 3.046777 -0.5277706
vn -0.3436835 3.046777 -0.5277706
vn -0.3436795 3.046776 -0.5277606
vn -0.3190219 3.046774 -0.4682125
vn -0.3190219 3.046774 -0.4682125
vn -0.3190219 3.046774 -0.4682125
vn -0.3190233 3.046774 -0.4682252
vn -0.3190218 3.046775 -0.403772
vn -0.3190218 3.046775 -0.403772
vn -0.3190218 3.046775 -0.403772
vn -0.3190234 3.046773 -0.4037929
vn -0.343681 3.046779 -0.3442205
vn -0.343681 3.046779 -0.3442205
vn -0.343681 3.046779 -0.3442205
vn -0.3436822 3.046775 -0.344241
vn -0.3892465 3.046772 -0.2986942
vn -0.3892465 3.046772 -0.2986942
vn -0.3892465 3.046772 -0.2986942
vn -0.3892463 3.046769 -0.2987037
vn -0.4487809 3.046769 -0.2740413
vn -0.4487809 3.046769 -0.2740414
vn -0.4487809 3.046769 -0.2740414
vn -0.4487804 3.046767 -0.2740469
vn -0.513219 3.04677 -0.2740391
vn -0.513219 3.046769 -0.274039
vn -0.513219 3.046769 -0.274039
vn -0.5132186 3.046783 -0.2739938
vn -0.3683661 3.6 -1.002257
vn -0.3683661 3.599999 -1.002257
vn -0.3683661 3.599999 -1.002257
vn -0.3683661 3.6 -1.002257
vn -0.5936397 3.6 -1.002256
vn -0.5936339 3.6 -1.002257
vn -0.593635 3.6 -1.002257
vn -0.5936407 3.6 -1.002256
vn -0.8017507 3.6 -0.9160545
vn -0.8017654 3.6 -0.9160446
vn -0.8017627 3.6 -0.9160465
vn -0.8017479 3.6 -0.9160563
vn -0.9610496 3.6 -0.756758
vn -0.9610493 3.6 -0.7567585
vn -0.9610494 3.6 -0.7567583
vn -0.9610497 3.6 -0.7567579
vn -1.047256 3.6 -0.5486379
vn -1.047258 3.6 -0.5486304
vn -1.047257 3.6 -0.5486318
vn -1.047256 3.6 -0.5486393
vn -1.047256 3.6 -0.3233623
vn -1.047258 3.6 -0.3233696
vn -1.047257 3.6 -0.3233682
vn -1.047256 3.6 -0.3233609
vn -0.9610496 3.6 -0.115242
vn -0.9610493 3.6 -0.1152416
vn -0.9610494 3.6 -0.1152416
vn -0.9610497 3.6 -0.1152421
vn -0.5936376 3.6 0.1302562
vn -0.5936328 3.6 0.1302572
vn -0.5936337 3.6 0.130257
vn -0.5936386 3.6 0.130256
vn -0.3683673 3.599999 0.1302572
vn -0.3683683 3.6 0.1302574
vn -0.3683681 3.6 0.1302574
vn -0.3683672 3.599999 0.1302572
vn -0.1602347 3.599999 0.04404473
vn -0.1602353 3.599998 0.04404518
vn -0.1602352 3.599998 0.04404506
vn -0.1602345 3.6 0.04404464
vn -0.0009505749 3.6 -0.1152416
vn -0.0009503067 3.6 -0.1152421
vn -0.0009504259 3.6 -0.115242
vn -0.0009506047 3.6 -0.1152416
vn 0.08525625 3.6 -0.3233623
vn 0.08525768 3.6 -0.3233696
vn 0.08525744 3.6 -0.3233682
vn 0.08525595 3.6 -0.3233609
vn 0.08525619 3.6 -0.5486377
vn 0.08525762 3.6 -0.5486306
vn 0.08525738 3.6 -0.5486319
vn 0.08525595 3.6 -0.5486391
vn -0.0009505749 3.6 -0.7567583
vn -0.0009503067 3.6 -0.7567579
vn -0.0009504259 3.6 -0.756758
vn -0.0009506047 3.6 -0.7567585
vn -0.1602346 3.599998 -0.9160447
vn -0.1602353 3.6 -0.9160452
vn -0.1602352 3.599999 -0.9160451
vn -0.1602345 3.599998 -0.9160446
vn -1.047257 3.6 -0.5486338
vn -1.047257 3.6 -0.5486328
vn -1.047256 3.6 -0.5486359
vn -1.047256 3.6 -0.5486369
vn -0.9610471 3.6 -0.7567618
vn -0.961047 3.6 -0.7567619
vn -0.9610472 3.6 -0.7567616
vn -0.9610473 3.6 -0.7567614
vn -0.8017595 3.6 -0.9160485
vn -0.8017594 3.6 -0.9160486
vn -0.8017598 3.6 -0.9160483
vn -0.8017601 3.6 -0.9160482
vn -0.5936347 3.6 -1.002257
vn -0.5936347 3.6 -1.002257
vn -0.5936347 3.6 -1.002257
vn -0.5936347 3.6 -1.002257
vn -0.3683652 3.6 -1.002257
vn -0.3683652 3.6 -1.002257
vn -0.3683652 3.6 -1.002257
vn -0.3683652 3.6 -1.002257
vn -0.160242 3.6 -0.9160495
vn -0.1602399 3.6 -0.9160482
vn -0.160246 3.6 -0.9160523
vn -0.1602481 3.6 -0.9160537
vn -0.0009471774 3.6 -0.7567532
vn -0.0009452105 3.6 -0.7567503
vn -0.0009510517 3.6 -0.756759
vn -0.0009529591 3.6 -0.7567619
vn 0.08525774 3.6 -0.5486301
vn 0.08525786 3.6 -0.5486291
vn 0.08525738 3.6 -0.5486319
vn 0.08525714 3.6 -0.5486328
vn 0.08525774 3.6 -0.3233702
vn 0.08525798 3.6 -0.3233712
vn 0.08525738 3.6 -0.323368
vn 0.08525714 3.6 -0.323367
vn -0.0009474456 3.6 -0.1152463
vn -0.0009458363 3.6 -0.1152488
vn -0.0009507239 3.6 -0.1152414
vn -0.0009523928 3.6 -0.115239
vn -0.1602417 3.6 0.0440495
vn -0.1602399 3.6 0.04404819
vn -0.1602455 3.6 0.04405198
vn -0.1602473 3.6 0.04405323
vn -0.3683662 3.6 0.130257
vn -0.3683662 3.6 0.130257
vn -0.3683662 3.6 0.130257
vn -0.3683662 3.6 0.130257
vn -0.5936338 3.6 0.130257
vn -0.5936338 3.6 0.130257
vn -0.5936338 3.6 0.130257
vn -0.5936338 3.6 0.130257
vn -0.80176 3.6 0.04404819
vn -0.8017601 3.6 0.04404819
vn -0.80176 3.6 0.04404819
vn -0.8017601 3.6 0.04404819
vn -0.9610474 3.6 -0.1152386
vn -0.9610475 3.6 -0.115239
vn -0.9610469 3.6 -0.115238
vn -0.9610466 3.6 -0.1152376
vn -1.047257 3.6 -0.3233661
vn -1.047257 3.6 -0.323367
vn -1.047257 3.6 -0.3233643
vn -1.047256 3.6 -0.3233635
vn -0.481 3.02265 -0.4360141
vn -0.481 3.02265 -0.4360141
vn -0.481 3.02265 -0.4360141
vn -0.481 3.02265 -0.4360126
vn -0.481 3.02265 -0.436
vn -0.481 3.02265 -0.4359859
vn -0.481 3.02265 -0.436
vn -0.481 3.02265 -0.436
vn -0.481 3.02265 -0.436
vn -0.481 3.02265 -0.4360141
vn -0.481 3.02265 -0.4359682
vn -0.481 3.02265 -0.436
vn -0.481 3.02265 -0.436
vn -0.481 3.02265 -0.4359859
vn -0.481 3.02265 -0.4360141
vn -0.481 3.02265 -0.4359747
vn -0.481 3.02265 -0.4360253
vn -0.481 3.02265 -0.4359859
vn -0.481 3.02265 -0.436
vn -0.481 3.02265 -0.436
vn -0.481 3.02265 -0.436
vn -0.481 3.02265 -0.4360176
vn -0.481 3.02265 -0.4359859
vn -0.481 3.02265 -0.436
vn -0.481 3.02265 -0.4360031
vn -0.481 3.02265 -0.436
vn -0.481 3.02265 -0.436
vn -0.481 3.02265 -0.4360505
vn -0.481 3.02265 -0.436
vn -0.481 3.02265 -0.4359965
vn -0.481 3.02265 -0.4359859
vn -0.481 3.02265 -0.4360253
vt 0.7137229 0.7567321
vt 0.7072877 0.755452
vt 0.7008521 0.7567322
vt 0.7191788 0.7603775
vt 0.6953964 0.7603776
vt 0.7228243 0.7658335
vt 0.6917511 0.7658331
vt 0.6904711 0.7722688
vt 0.7241043 0.7722688
vt 0.7228243 0.7787041
vt 0.6917511 0.7787045
vt 0.7191788 0.78416
vt 0.6953964 0.78416
vt 0.7137231 0.7878054
vt 0.7008521 0.7878054
vt 0.7072877 0.7890854
vt 0.6535977 0.8259587
vt 0.6682141 0.8113424
vt 0.6562356 0.7934154
vt 0.6371383 0.8013256
vt 0.6371383 0.8013256
vt 0.6562356 0.7934154
vt 0.6520294 0.7722688
vt 0.6313589 0.7722688
vt 0.6313589 0.7722688
vt 0.6520294 0.7722688
vt 0.6562356 0.7511222
vt 0.6371383 0.743212
vt 0.6371383 0.743212
vt 0.6562356 0.7511222
vt 0.6682141 0.7331952
vt 0.6535977 0.7185788
vt 0.6535977 0.7185788
vt 0.6682141 0.7331952
vt 0.6861411 0.7212167
vt 0.6782309 0.7021195
vt 0.6782309 0.7021195
vt 0.6861411 0.7212167
vt 0.7072877 0.7170104
vt 0.7072877 0.6963397
vt 0.7072877 0.6963397
vt 0.7072877 0.7170104
vt 0.728434 0.7212166
vt 0.7363444 0.7021194
vt 0.7363444 0.7021194
vt 0.728434 0.7212166
vt 0.7463611 0.7331952
vt 0.7609775 0.7185788
vt 0.7609775 0.7185788
vt 0.7463611 0.7331952
vt 0.7583397 0.7511224
vt 0.777437 0.743212
vt 0.777437 0.743212
vt 0.7583397 0.7511224
vt 0.7625461 0.7722688
vt 0.7832168 0.7722688
vt 0.7832168 0.7722688
vt 0.7625461 0.7722688
vt 0.7583397 0.7934152
vt 0.777437 0.8013256
vt 0.777437 0.8013256
vt 0.7583397 0.7934152
vt 0.7463611 0.8113424
vt 0.7609775 0.8259587
vt 0.7609775 0.8259587
vt 0.7463611 0.8113424
vt 0.728434 0.8233209
vt 0.7363444 0.8424181
vt 0.7363444 0.8424181
vt 0.728434 0.8233209
vt 0.7072877 0.8275272
vt 0.7072877 0.8481979
vt 0.7072877 0.8481979
vt 0.7072877 0.8275272
vt 0.6861411 0.8233209
vt 0.6782309 0.8424181
vt 0.6782309 0.8424181
vt 0.6861411 0.8233209
vt 0.6682141 0.8113424
vt 0.6535977 0.8259587
vt 0.7583397 0.7511224
vt 0.7241043 0.7722688
vt 0.7625461 0.7722688
vt 0.7228243 0.7658335
vt 0.7228243 0.7787041
vt 0.7463611 0.7331952
vt 0.7583397 0.7934152
vt 0.7191788 0.7603775
vt 0.7191788 0.78416
vt 0.728434 0.7212166
vt 0.7463611 0.8113424
vt 0.7137229 0.7567321
vt 0.7137231 0.7878054
vt 0.7072877 0.7170104
vt 0.728434 0.8233209
vt 0.7072877 0.755452
vt 0.7072877 0.7890854
vt 0.6861411 0.7212167
vt 0.7072877 0.8275272
vt 0.7008521 0.7567322
vt 0.7008521 0.7878054
vt 0.6682141 0.7331952
vt 0.6861411 0.8233209
vt 0.6953964 0.7603776
vt 0.6953964 0.78416
vt 0.6562356 0.7511222
vt 0.6682141 0.8113424
vt 0.6917511 0.7658331
vt 0.6917511 0.7787045
vt 0.6520294 0.7722688
vt 0.6562356 0.7934154
vt 0.6904711 0.7722688
vt 0.5565531 0.1478195
vt 0.5565531 0.1722198
vt 0.567809 0.1722198
vt 0.5565531 0.1478195
vt 0.567809 0.1722198
vt 0.567809 0.1478195
vt 0.2722651 0.1677668
vt 0.2722651 0.1779013
vt 0.3084263 0.1850942
vt 0.3123046 0.1757312
vt 0.3123046 0.1757312
vt 0.3084263 0.1850942
vt 0.3390823 0.2055779
vt 0.3462484 0.1984118
vt 0.3462484 0.1984118
vt 0.3390823 0.2055779
vt 0.359566 0.2362339
vt 0.368929 0.2323557
vt 0.368929 0.2323557
vt 0.359566 0.2362339
vt 0.366759 0.2723952
vt 0.3768934 0.2723952
vt 0.3768934 0.2723952
vt 0.366759 0.2723952
vt 0.359566 0.3085564
vt 0.368929 0.3124347
vt 0.368929 0.3124347
vt 0.359566 0.3085564
vt 0.3390823 0.3392125
vt 0.3462484 0.3463786
vt 0.3462484 0.3463786
vt 0.3390823 0.3392125
vt 0.3084263 0.3596962
vt 0.3123046 0.3690592
vt 0.3123046 0.3690592
vt 0.3084263 0.3596962
vt 0.2722651 0.3668891
vt 0.2722651 0.3770234
vt 0.2722651 0.3770234
vt 0.2722651 0.3668891
vt 0.2361038 0.3596962
vt 0.2322256 0.3690592
vt 0.2322256 0.3690592
vt 0.2361038 0.3596962
vt 0.2054477 0.3392125
vt 0.1982817 0.3463786
vt 0.1982817 0.3463786
vt 0.2054477 0.3392125
vt 0.1849642 0.3085564
vt 0.1756011 0.3124347
vt 0.1756011 0.3124347
vt 0.1849642 0.3085564
vt 0.1777714 0.2723952
vt 0.1676368 0.2723952
vt 0.1676368 0.2723952
vt 0.1777714 0.2723952
vt 0.1849642 0.2362339
vt 0.1756011 0.2323557
vt 0.1756011 0.2323557
vt 0.1849642 0.2362339
vt 0.2054477 0.2055779
vt 0.1982817 0.1984118
vt 0.1982817 0.1984118
vt 0.2054477 0.2055779
vt 0.2361038 0.1850942
vt 0.2322256 0.1757312
vt 0.2322256 0.1757312
vt 0.2361038 0.1850942
vt 0.2722651 0.1779013
vt 0.2722651 0.1677668
vt 0.2361038 0.3596962
vt 0.2105017 0.3341585
vt 0.2054477 0.3392125
vt 0.2388391 0.3530928
vt 0.2054477 0.3392125
vt 0.2105017 0.3341585
vt 0.1915674 0.3058212
vt 0.1849642 0.3085564
vt 0.1849642 0.3085564
vt 0.1915674 0.3058212
vt 0.1849188 0.2723952
vt 0.1777714 0.2723952
vt 0.1777714 0.2723952
vt 0.1849188 0.2723952
vt 0.1915674 0.2389691
vt 0.1849642 0.2362339
vt 0.1849642 0.2362339
vt 0.1915674 0.2389691
vt 0.2105017 0.2106319
vt 0.2054477 0.2055779
vt 0.2054477 0.2055779
vt 0.2105017 0.2106319
vt 0.2388391 0.1916975
vt 0.2361038 0.1850942
vt 0.2361038 0.1850942
vt 0.2388391 0.1916975
vt 0.2722651 0.1850488
vt 0.2722651 0.1779013
vt 0.2722651 0.1779013
vt 0.2722651 0.1850488
vt 0.3056911 0.1916975
vt 0.3084263 0.1850942
vt 0.3084263 0.1850942
vt 0.3056911 0.1916975
vt 0.3340282 0.2106319
vt 0.3390823 0.2055779
vt 0.3390823 0.2055779
vt 0.3340282 0.2106319
vt 0.3529626 0.2389691
vt 0.359566 0.2362339
vt 0.359566 0.2362339
vt 0.3529626 0.2389691
vt 0.3596115 0.2723952
vt 0.366759 0.2723952
vt 0.366759 0.2723952
vt 0.3596115 0.2723952
vt 0.3529626 0.3058212
vt 0.359566 0.3085564
vt 0.359566 0.3085564
vt 0.3529626 0.3058212
vt 0.3340282 0.3341585
vt 0.3390823 0.3392125
vt 0.3390823 0.3392125
vt 0.3340282 0.3341585
vt 0.3056911 0.3530928
vt 0.3084263 0.3596962
vt 0.3084263 0.3596962
vt 0.3056911 0.3530928
vt 0.2722651 0.3597416
vt 0.2722651 0.3668891
vt 0.2722651 0.3668891
vt 0.2722651 0.3597416
vt 0.2388391 0.3530928
vt 0.2361038 0.3596962
vt 0.3834011 0.6500084
vt 0.3834011 0.611367
vt 0.3733036 0.611367
vt 0.3733036 0.6500084
vt 0.3834011 0.6886498
vt 0.3834011 0.6500084
vt 0.3733036 0.6500084
vt 0.3733036 0.6886498
vt 0.5565531 0.3314045
vt 0.5565531 0.3558046
vt 0.567809 0.3558046
vt 0.567809 0.3314045
vt 0.5565531 0.2948872
vt 0.5565531 0.3314045
vt 0.567809 0.3314045
vt 0.567809 0.2948872
vt 0.5565531 0.2518122
vt 0.5565531 0.2948872
vt 0.567809 0.2948872
vt 0.567809 0.2518122
vt 0.5565531 0.2087371
vt 0.5565531 0.2518122
vt 0.567809 0.2518122
vt 0.567809 0.2087371
vt 0.5565531 0.1722198
vt 0.5565531 0.2087371
vt 0.567809 0.2087371
vt 0.567809 0.1722198
vt 0.3405274 0.6500084
vt 0.3405274 0.6886498
vt 0.3506249 0.6886498
vt 0.3506249 0.6500084
vt 0.3405274 0.6113669
vt 0.3405274 0.6500084
vt 0.3506249 0.6500084
vt 0.3506249 0.6113669
vt 0.5893501 0.3314039
vt 0.5893501 0.3558041
vt 0.6006061 0.3558041
vt 0.6006061 0.3314039
vt 0.5893501 0.2948867
vt 0.5893501 0.3314039
vt 0.6006061 0.3314039
vt 0.6006061 0.2948867
vt 0.5893501 0.2518119
vt 0.5893501 0.2948867
vt 0.6006061 0.2948867
vt 0.6006061 0.2518119
vt 0.5893501 0.2087371
vt 0.5893501 0.2518119
vt 0.6006061 0.2518119
vt 0.6006061 0.2087371
vt 0.5893501 0.1722199
vt 0.5893501 0.2087371
vt 0.6006061 0.2087371
vt 0.6006061 0.1722199
vt 0.5893501 0.14782
vt 0.5893501 0.1722199
vt 0.6006061 0.1722199
vt 0.6006061 0.14782
vt 0.450154 0.7550852
vt 0.4652373 0.7550852
vt 0.4652373 0.7191248
vt 0.450154 0.7191248
vt 0.450154 0.7191248
vt 0.4652373 0.7191248
vt 0.4652373 0.688639
vt 0.450154 0.688639
vt 0.450154 0.688639
vt 0.4652373 0.688639
vt 0.4652373 0.6682693
vt 0.450154 0.6682693
vt 0.3149684 0.6006566
vt 0.3014376 0.6006566
vt 0.3014376 0.6329154
vt 0.3149684 0.6329154
vt 0.3149684 0.6329154
vt 0.3014376 0.6329154
vt 0.3014376 0.6651742
vt 0.3149684 0.6651742
vt 0.4081839 0.8419012
vt 0.4232672 0.8419012
vt 0.4232672 0.8215314
vt 0.4081839 0.8215314
vt 0.4081839 0.8215314
vt 0.4232672 0.8215314
vt 0.4232672 0.7910457
vt 0.4081839 0.7910457
vt 0.4081839 0.7910457
vt 0.4232672 0.7910457
vt 0.4232672 0.7550852
vt 0.4081839 0.7550852
vt 0.4081839 0.7550852
vt 0.4232672 0.7550852
vt 0.4232672 0.719125
vt 0.4081839 0.719125
vt 0.4081839 0.719125
vt 0.4232672 0.719125
vt 0.4232672 0.6886393
vt 0.4081839 0.6886393
vt 0.4081839 0.6886393
vt 0.4232672 0.6886393
vt 0.4232672 0.6682692
vt 0.4081839 0.6682692
vt 0.2594674 0.6651742
vt 0.2729982 0.6651742
vt 0.2729982 0.6329154
vt 0.2594674 0.6329154
vt 0.2594674 0.6329154
vt 0.2729982 0.6329154
vt 0.2729982 0.6006566
vt 0.2594674 0.6006566
vt 0.450154 0.8419012
vt 0.4652373 0.8419012
vt 0.4652373 0.8215311
vt 0.450154 0.8215311
vt 0.450154 0.8215311
vt 0.4652373 0.8215311
vt 0.4652373 0.7910454
vt 0.450154 0.7910454
vt 0.450154 0.7910454
vt 0.4652373 0.7910454
vt 0.4652373 0.7550852
vt 0.450154 0.7550852
vt 0.6473293 0.8322271
vt 0.6535977 0.8259587
vt 0.6371383 0.8013256
vt 0.6289483 0.804718
vt 0.6748385 0.8506081
vt 0.6313589 0.7722688
vt 0.6782309 0.8424181
vt 0.622494 0.7722688
vt 0.7072877 0.8570626
vt 0.6371383 0.743212
vt 0.7072877 0.8481979
vt 0.6289483 0.7398195
vt 0.7397369 0.8506081
vt 0.6535977 0.7185788
vt 0.7363444 0.8424181
vt 0.6473293 0.7123105
vt 0.7672459 0.8322271
vt 0.6782309 0.7021195
vt 0.7609775 0.8259587
vt 0.6748385 0.6939294
vt 0.7856269 0.804718
vt 0.7072877 0.6963397
vt 0.777437 0.8013256
vt 0.7072877 0.687475
vt 0.7920815 0.7722688
vt 0.7363444 0.7021194
vt 0.7832168 0.7722688
vt 0.7397369 0.6939294
vt 0.7856269 0.7398195
vt 0.7609775 0.7185788
vt 0.777437 0.743212
vt 0.7672459 0.7123105
usemtl Light
f 3/3/3 2/2/2 1/1/1
f 1/1/1 4/4/4 3/3/3
f 4/4/4 5/5/5 3/3/3
f 4/4/4 6/6/6 5/5/5
f 6/6/6 7/7/7 5/5/5
f 6/6/6 8/8/8 7/7/7
f 6/6/6 9/9/9 8/8/8
f 9/9/9 10/10/10 8/8/8
f 10/10/10 11/11/11 8/8/8
f 10/10/10 12/12/12 11/11/11
f 12/12/12 13/13/13 11/11/11
f 12/12/12 14/14/14 13/13/13
f 14/14/14 15/15/15 13/13/13
f 14/14/14 16/16/16 15/15/15
f 19/19/19 18/18/18 17/17/17
f 20/20/20 19/19/19 17/17/17
f 23/23/23 22/22/22 21/21/21
f 24/24/24 23/23/23 21/21/21
f 27/27/27 26/26/26 25/25/25
f 28/28/28 27/27/27 25/25/25
f 31/31/31 30/30/30 29/29/29
f 32/32/32 31/31/31 29/29/29
f 35/35/35 34/34/34 33/33/33
f 36/36/36 35/35/35 33/33/33
f 39/39/39 38/38/38 37/37/37
f 40/40/40 39/39/39 37/37/37
f 43/43/43 42/42/42 41/41/41
f 44/44/44 43/43/43 41/41/41
f 47/47/47 46/46/46 45/45/45
f 48/48/48 47/47/47 45/45/45
f 51/51/51 50/50/50 49/49/49
f 52/52/52 51/51/51 49/49/49
f 55/55/55 54/54/54 53/53/53
f 56/56/56 55/55/55 53/53/53
f 59/59/59 58/58/58 57/57/57
f 60/60/60 59/59/59 57/57/57
f 63/63/63 62/62/62 61/61/61
f 64/64/64 63/63/63 61/61/61
f 67/67/67 66/66/66 65/65/65
f 68/68/68 67/67/67 65/65/65
f 71/71/71 70/70/70 69/69/69
f 72/72/72 71/71/71 69/69/69
f 75/75/75 74/74/74 73/73/73
f 76/76/76 75/75/75 73/73/73
f 79/79/79 78/78/78 77/77/77
f 80/80/80 79/79/79 77/77/77
f 83/83/83 82/82/82 81/81/81
f 82/82/82 84/84/84 81/81/81
f 85/85/85 82/82/82 83/83/83
f 81/81/81 84/84/84 86/86/86
f 87/87/87 85/85/85 83/83/83
f 84/84/84 88/88/88 86/86/86
f 89/89/89 85/85/85 87/87/87
f 86/86/86 88/88/88 90/90/90
f 91/91/91 89/89/89 87/87/87
f 88/88/88 92/92/92 90/90/90
f 93/93/93 89/89/89 91/91/91
f 90/90/90 92/92/92 94/94/94
f 95/95/95 93/93/93 91/91/91
f 92/92/92 96/96/96 94/94/94
f 97/97/97 93/93/93 95/95/95
f 94/94/94 96/96/96 98/98/98
f 99/99/99 97/97/97 95/95/95
f 96/96/96 100/100/100 98/98/98
f 101/101/101 97/97/97 99/99/99
f 98/98/98 100/100/100 102/102/102
f 103/103/103 101/101/101 99/99/99
f 100/100/100 104/104/104 102/102/102
f 105/105/105 101/101/101 103/103/103
f 102/102/102 104/104/104 106/106/106
f 107/107/107 105/105/105 103/103/103
f 104/104/104 108/108/108 106/106/106
f 109/109/109 105/105/105 107/107/107
f 106/106/106 108/108/108 110/110/110
f 111/111/111 109/109/109 107/107/107
f 108/108/108 112/112/112 110/110/110
f 112/112/112 109/109/109 111/111/111
f 110/110/110 112/112/112 111/111/111
usemtl WhitePlastic
f 115/115/115 114/114/114 113/113/113
f 118/118/118 117/117/117 116/116/116
f 121/121/121 120/120/120 119/119/119
f 122/122/122 121/121/121 119/119/119
f 125/125/125 124/124/124 123/123/123
f 126/126/126 125/125/125 123/123/123
f 129/129/129 128/128/128 127/127/127
f 130/130/130 129/129/129 127/127/127
f 133/133/133 132/132/132 131/131/131
f 134/134/134 133/133/133 131/131/131
f 137/137/137 136/136/136 135/135/135
f 138/138/138 137/137/137 135/135/135
f 141/141/141 140/140/140 139/139/139
f 142/142/142 141/141/141 139/139/139
f 145/145/145 144/144/144 143/143/143
f 146/146/146 145/145/145 143/143/143
f 149/149/149 148/148/148 147/147/147
f 150/150/150 149/149/149 147/147/147
f 153/153/153 152/152/152 151/151/151
f 154/154/154 153/153/153 151/151/151
f 157/157/157 156/156/156 155/155/155
f 158/158/158 157/157/157 155/155/155
f 161/161/161 160/160/160 159/159/159
f 162/162/162 161/161/161 159/159/159
f 165/165/165 164/164/164 163/163/163
f 166/166/166 165/165/165 163/163/163
f 169/169/169 168/168/168 167/167/167
f 170/170/170 169/169/169 167/167/167
f 173/173/173 172/172/172 171/171/171
f 174/174/174 173/173/173 171/171/171
f 177/177/177 176/176/176 175/175/175
f 178/178/178 177/177/177 175/175/175
f 181/181/181 180/180/180 179/179/179
f 182/182/182 181/181/181 179/179/179
f 185/185/185 184/184/184 183/183/183
f 184/184/184 186/186/186 183/183/183
f 189/189/189 188/188/188 187/187/187
f 190/190/190 189/189/189 187/187/187
f 193/193/193 192/192/192 191/191/191
f 194/194/194 193/193/193 191/191/191
f 197/197/197 196/196/196 195/195/195
f 198/198/198 197/197/197 195/195/195
f 201/201/201 200/200/200 199/199/199
f 202/202/202 201/201/201 199/199/199
f 205/205/205 204/204/204 203/203/203
f 206/206/206 205/205/205 203/203/203
f 209/209/209 208/208/208 207/207/207
f 210/210/210 209/209/209 207/207/207
f 213/213/213 212/212/212 211/211/211
f 214/214/214 213/213/213 211/211/211
f 217/217/217 216/216/216 215/215/215
f 218/218/218 217/217/217 215/215/215
f 221/221/221 220/220/220 219/219/219
f 222/222/222 221/221/221 219/219/219
f 225/225/225 224/224/224 223/223/223
f 226/226/226 225/225/225 223/223/223
f 229/229/229 228/228/228 227/227/227
f 230/230/230 229/229/229 227/227/227
f 233/233/233 232/232/232 231/231/231
f 234/234/234 233/233/233 231/231/231
f 237/237/237 236/236/236 235/235/235
f 238/238/238 237/237/237 235/235/235
f 241/241/241 240/240/240 239/239/239
f 242/242/242 241/241/241 239/239/239
f 245/245/245 244/244/244 243/243/243
f 246/246/246 245/245/245 243/243/243
f 249/249/249 248/248/248 247/247/247
f 250/250/250 249/249/249 247/247/247
f 253/253/253 252/252/252 251/251/251
f 254/254/254 253/253/253 251/251/251
f 257/257/257 256/256/256 255/255/255
f 258/258/258 257/257/257 255/255/255
f 261/261/261 260/260/260 259/259/259
f 262/262/262 261/261/261 259/259/259
f 265/265/265 264/264/264 263/263/263
f 266/266/266 265/265/265 263/263/263
f 269/269/269 268/268/268 267/267/267
f 270/270/270 269/269/269 267/267/267
f 273/273/273 272/272/272 271/271/271
f 274/274/274 273/273/273 271/271/271
f 277/277/277 276/276/276 275/275/275
f 278/278/278 277/277/277 275/275/275
f 281/281/281 280/280/280 279/279/279
f 282/282/282 281/281/281 279/279/279
f 285/285/285 284/284/284 283/283/283
f 286/286/286 285/285/285 283/283/283
f 289/289/289 288/288/288 287/287/287
f 290/290/290 289/289/289 287/287/287
f 293/293/293 292/292/292 291/291/291
f 294/294/294 293/293/293 291/291/291
f 297/297/297 296/296/296 295/295/295
f 298/298/298 297/297/297 295/295/295
f 301/301/301 300/300/300 299/299/299
f 302/302/302 301/301/301 299/299/299
f 305/305/305 304/304/304 303/303/303
f 306/306/306 305/305/305 303/303/303
f 309/309/309 308/308/308 307/307/307
f 310/310/310 309/309/309 307/307/307
f 313/313/313 312/312/312 311/311/311
f 314/314/314 313/313/313 311/311/311
f 317/317/317 316/316/316 315/315/315
f 318/318/318 317/317/317 315/315/315
f 321/321/321 320/320/320 319/319/319
f 322/322/322 321/321/321 319/319/319
f 325/325/325 324/324/324 323/323/323
f 326/326/326 325/325/325 323/323/323
f 329/329/329 328/328/328 327/327/327
f 330/330/330 329/329/329 327/327/327
f 333/333/333 332/332/332 331/331/331
f 334/334/334 333/333/333 331/331/331
f 337/337/337 336/336/336 335/335/335
f 338/338/338 337/337/337 335/335/335
f 341/341/341 340/340/340 339/339/339
f 342/342/342 341/341/341 339/339/339
f 345/345/345 344/344/344 343/343/343
f 346/346/346 345/345/345 343/343/343
f 349/349/349 348/348/348 347/347/347
f 350/350/350 349/349/349 347/347/347
f 353/353/353 352/352/352 351/351/351
f 354/354/354 353/353/353 351/351/351
f 357/357/357 356/356/356 355/355/355
f 358/358/358 357/357/357 355/355/355
f 361/361/361 360/360/360 359/359/359
f 362/362/362 361/361/361 359/359/359
f 365/365/365 364/364/364 363/363/363
f 366/366/366 365/365/365 363/363/363
f 369/369/369 368/368/368 367/367/367
f 370/370/370 369/369/369 367/367/367
usemtl Metal
f 373/373/373 372/372/372 371/371/371
f 374/374/374 373/373/373 371/371/371
f 371/371/371 372/372/372 375/375/375
f 376/376/376 373/373/373 374/374/374
f 372/372/372 377/377/377 375/375/375
f 378/378/378 376/376/376 374/374/374
f 375/375/375 377/377/377 379/379/379
f 380/380/380 376/376/376 378/378/378
f 377/377/377 381/381/381 379/379/379
f 382/382/382 380/380/380 378/378/378
f 379/379/379 381/381/381 383/383/383
f 384/384/384 380/380/380 382/382/382
f 381/381/381 385/385/385 383/383/383
f 386/386/386 384/384/384 382/382/382
f 383/383/383 385/385/385 387/387/387
f 388/388/388 384/384/384 386/386/386
f 385/385/385 389/389/389 387/387/387
f 390/390/390 388/388/388 386/386/386
f 387/387/387 389/389/389 391/391/391
f 392/392/392 388/388/388 390/390/390
f 389/389/389 393/393/393 391/391/391
f 394/394/394 392/392/392 390/390/390
f 391/391/391 393/393/393 395/395/395
f 396/396/396 392/392/392 394/394/394
f 393/393/393 397/397/397 395/395/395
f 398/398/398 396/396/396 394/394/394
f 395/395/395 397/397/397 399/399/399
f 400/400/400 396/396/396 398/398/398
f 397/397/397 401/401/401 399/399/399
f 402/402/402 400/400/400 398/398/398
f 399/399/399 401/401/401 402/402/402
f 401/401/401 400/400/400 402/402/402
g FP212:LightFixture1__8f6b8007
v -0.47466 3.58858 -0.45129
v -0.481 3.58858 -0.45255
v -0.48733 3.58858 -0.45129
v -0.46929 3.58858 -0.4477
v -0.4927 3.58858 -0.4477
v -0.4657 3.58858 -0.44233
v -0.49629 3.58858 -0.44233
v -0.49755 3.58858 -0.43599
v -0.46444 3.58858 -0.43599
v -0.4657 3.58858 -0.42966
v -0.49629 3.58858 -0.42966
v -0.46929 3.58858 -0.42429
v -0.4927 3.58858 -0.42429
v -0.47466 3.58858 -0.4207
v -0.48733 3.58858 -0.4207
v -0.481 3.58858 -0.41944
v -0.53385 3.59993 -0.38314
v -0.51946 3.59178 -0.39753
v -0.53126 3.59178 -0.41518
v -0.55006 3.59993 -0.40739
v -0.55006 3.59993 -0.40739
v -0.53126 3.59178 -0.41518
v -0.5354 3.59178 -0.43599
v -0.55575 3.59993 -0.43599
v -0.55575 3.59993 -0.43599
v -0.5354 3.59178 -0.43599
v -0.53126 3.59178 -0.45681
v -0.55006 3.59993 -0.4646
v -0.55006 3.59993 -0.4646
v -0.53126 3.59178 -0.45681
v -0.51946 3.59178 -0.47446
v -0.53385 3.59993 -0.48885
v -0.53385 3.59993 -0.48885
v -0.51946 3.59178 -0.47446
v -0.50181 3.59178 -0.48626
v -0.5096 3.59993 -0.50506
v -0.5096 3.59993 -0.50506
v -0.50181 3.59178 -0.48626
v -0.481 3.59178 -0.4904
v -0.481 3.59993 -0.51075
v -0.481 3.59993 -0.51075
v -0.481 3.59178 -0.4904
v -0.46018 3.59178 -0.48626
v -0.45239 3.59993 -0.50506
v -0.45239 3.59993 -0.50506
v -0.46018 3.59178 -0.48626
v -0.44253 3.59178 -0.47446
v -0.42814 3.59993 -0.48885
v -0.42814 3.59993 -0.48885
v -0.44253 3.59178 -0.47446
v -0.43073 3.59178 -0.45681
v -0.41193 3.59993 -0.4646
v -0.41193 3.59993 -0.4646
v -0.43073 3.59178 -0.45681
v -0.42659 3.59178 -0.43599
v -0.40624 3.59993 -0.43599
v -0.40624 3.59993 -0.43599
v -0.42659 3.59178 -0.43599
v -0.43073 3.59178 -0.41518
v -0.41193 3.59993 -0.40739
v -0.41193 3.59993 -0.40739
v -0.43073 3.59178 -0.41518
v -0.44253 3.59178 -0.39753
v -0.42814 3.59993 -0.38314
v -0.42814 3.59993 -0.38314
v -0.44253 3.59178 -0.39753
v -0.46018 3.59178 -0.38573
v -0.45239 3.59993 -0.36693
v -0.45239 3.59993 -0.36693
v -0.46018 3.59178 -0.38573
v -0.481 3.59178 -0.38159
v -0.481 3.59993 -0.36124
v -0.481 3.59993 -0.36124
v -0.481 3.59178 -0.38159
v -0.50181 3.59178 -0.38573
v -0.5096 3.59993 -0.36693
v -0.5096 3.59993 -0.36693
v -0.50181 3.59178 -0.38573
v -0.51946 3.59178 -0.39753
v -0.53385 3.59993 -0.38314
v -0.43073 3.59178 -0.45681
v -0.46444 3.58858 -0.43599
v -0.42659 3.59178 -0.43599
v -0.4657 3.58858 -0.44233
v -0.4657 3.58858 -0.42966
v -0.44253 3.59178 -0.47446
v -0.43073 3.59178 -0.41518
v -0.46929 3.58858 -0.4477
v -0.46929 3.58858 -0.42429
v -0.46018 3.59178 -0.48626
v -0.44253 3.59178 -0.39753
v -0.47466 3.58858 -0.45129
v -0.47466 3.58858 -0.4207
v -0.481 3.59178 -0.4904
v -0.46018 3.59178 -0.38573
v -0.481 3.58858 -0.45255
v -0.481 3.58858 -0.41944
v -0.50181 3.59178 -0.48626
v -0.481 3.59178 -0.38159
v -0.48733 3.58858 -0.45129
v -0.48733 3.58858 -0.4207
v -0.51946 3.59178 -0.47446
v -0.50181 3.59178 -0.38573
v -0.4927 3.58858 -0.4477
v -0.4927 3.58858 -0.42429
v -0.53126 3.59178 -0.45681
v -0.51946 3.59178 -0.39753
v -0.49629 3.58858 -0.44233
v -0.49629 3.58858 -0.42966
v -0.5354 3.59178 -0.43599
v -0.53126 3.59178 -0.41518
v -0.49755 3.58858 -0.43599
v -0.51926 3.59348 -0.34361
v -0.55171 3.59348 -0.36528
v -0.55171 3.60348 -0.36528
v -0.51926 3.59348 -0.34361
v -0.55171 3.60348 -0.36528
v -0.51926 3.60348 -0.34361
v -0.481 3.59348 -0.536
v -0.481 3.58853 -0.52631
v -0.44643 3.58853 -0.51943
v -0.44273 3.59348 -0.52838
v -0.44273 3.59348 -0.52838
v -0.44643 3.58853 -0.51943
v -0.41713 3.58853 -0.49986
v -0.41028 3.59348 -0.50671
v -0.41028 3.59348 -0.50671
v -0.41713 3.58853 -0.49986
v -0.39756 3.58853 -0.47056
v -0.38861 3.59348 -0.47426
v -0.38861 3.59348 -0.47426
v -0.39756 3.58853 -0.47056
v -0.39068 3.58853 -0.43599
v -0.381 3.59348 -0.43599
v -0.381 3.59348 -0.43599
v -0.39068 3.58853 -0.43599
v -0.39756 3.58853 -0.40143
v -0.38861 3.59348 -0.39773
v -0.38861 3.59348 -0.39773
v -0.39756 3.58853 -0.40143
v -0.41713 3.58853 -0.37213
v -0.41028 3.59348 -0.36528
v -0.41028 3.59348 -0.36528
v -0.41713 3.58853 -0.37213
v -0.44643 3.58853 -0.35256
v -0.44273 3.59348 -0.34361
v -0.44273 3.59348 -0.34361
v -0.44643 3.58853 -0.35256
v -0.481 3.58853 -0.34568
v -0.481 3.59348 -0.336
v -0.481 3.59348 -0.336
v -0.481 3.58853 -0.34568
v -0.51556 3.58853 -0.35256
v -0.51926 3.59348 -0.34361
v -0.51926 3.59348 -0.34361
v -0.51556 3.58853 -0.35256
v -0.54486 3.58853 -0.37213
v -0.55171 3.59348 -0.36528
v -0.55171 3.59348 -0.36528
v -0.54486 3.58853 -0.37213
v -0.56443 3.58853 -0.40143
v -0.57338 3.59348 -0.39773
v -0.57338 3.59348 -0.39773
v -0.56443 3.58853 -0.40143
v -0.57131 3.58853 -0.43599
v -0.58099 3.59348 -0.43599
v -0.58099 3.59348 -0.43599
v -0.57131 3.58853 -0.43599
v -0.56443 3.58853 -0.47056
v -0.57338 3.59348 -0.47426
v -0.57338 3.59348 -0.47426
v -0.56443 3.58853 -0.47056
v -0.54486 3.58853 -0.49986
v -0.55171 3.59348 -0.50671
v -0.55171 3.59348 -0.50671
v -0.54486 3.58853 -0.49986
v -0.51556 3.58853 -0.51943
v -0.51926 3.59348 -0.52838
v -0.51926 3.59348 -0.52838
v -0.51556 3.58853 -0.51943
v -0.481 3.58853 -0.52631
v -0.481 3.59348 -0.536
v -0.51556 3.58853 -0.35256
v -0.54003 3.58653 -0.37696
v -0.54486 3.58853 -0.37213
v -0.51294 3.58653 -0.35887
v -0.54486 3.58853 -0.37213
v -0.54003 3.58653 -0.37696
v -0.55812 3.58653 -0.40405
v -0.56443 3.58853 -0.40143
v -0.56443 3.58853 -0.40143
v -0.55812 3.58653 -0.40405
v -0.56448 3.58653 -0.43599
v -0.57131 3.58853 -0.43599
v -0.57131 3.58853 -0.43599
v -0.56448 3.58653 -0.43599
v -0.55812 3.58653 -0.46794
v -0.56443 3.58853 -0.47056
v -0.56443 3.58853 -0.47056
v -0.55812 3.58653 -0.46794
v -0.54003 3.58653 -0.49503
v -0.54486 3.58853 -0.49986
v -0.54486 3.58853 -0.49986
v -0.54003 3.58653 -0.49503
v -0.51294 3.58653 -0.51312
v -0.51556 3.58853 -0.51943
v -0.51556 3.58853 -0.51943
v -0.51294 3.58653 -0.51312
v -0.481 3.58653 -0.51948
v -0.481 3.58853 -0.52631
v -0.481 3.58853 -0.52631
v -0.481 3.58653 -0.51948
v -0.44905 3.58653 -0.51312
v -0.44643 3.58853 -0.51943
v -0.44643 3.58853 -0.51943
v -0.44905 3.58653 -0.51312
v -0.42196 3.58653 -0.49503
v -0.41713 3.58853 -0.49986
v -0.41713 3.58853 -0.49986
v -0.42196 3.58653 -0.49503
v -0.40387 3.58653 -0.46794
v -0.39756 3.58853 -0.47056
v -0.39756 3.58853 -0.47056
v -0.40387 3.58653 -0.46794
v -0.39751 3.58653 -0.43599
v -0.39068 3.58853 -0.43599
v -0.39068 3.58853 -0.43599
v -0.39751 3.58653 -0.43599
v -0.40387 3.58653 -0.40405
v -0.39756 3.58853 -0.40143
v -0.39756 3.58853 -0.40143
v -0.40387 3.58653 -0.40405
v -0.42196 3.58653 -0.37696
v -0.41713 3.58853 -0.37213
v -0.41713 3.58853 -0.37213
v -0.42196 3.58653 -0.37696
v -0.44905 3.58653 -0.35887
v -0.44643 3.58853 -0.35256
v -0.44643 3.58853 -0.35256
v -0.44905 3.58653 -0.35887
v -0.481 3.58653 -0.35251
v -0.481 3.58853 -0.34568
v -0.481 3.58853 -0.34568
v -0.481 3.58653 -0.35251
v -0.51294 3.58653 -0.35887
v -0.51556 3.58853 -0.35256
v -0.481 3.59348 -0.536
v -0.44273 3.59348 -0.52838
v -0.44273 3.60348 -0.52838
v -0.481 3.60348 -0.536
v -0.51926 3.59348 -0.52838
v -0.481 3.59348 -0.536
v -0.481 3.60348 -0.536
v -0.51926 3.60348 -0.52838
v -0.55171 3.59348 -0.50671
v -0.51926 3.59348 -0.52838
v -0.51926 3.60348 -0.52838
v -0.55171 3.60348 -0.50671
v -0.57338 3.59348 -0.47426
v -0.55171 3.59348 -0.50671
v -0.55171 3.60348 -0.50671
v -0.57338 3.60348 -0.47426
v -0.58099 3.59348 -0.43599
v -0.57338 3.59348 -0.47426
v -0.57338 3.60348 -0.47426
v -0.58099 3.60348 -0.43599
v -0.57338 3.59348 -0.39773
v -0.58099 3.59348 -0.43599
v -0.58099 3.60348 -0.43599
v -0.57338 3.60348 -0.39773
v -0.55171 3.59348 -0.36528
v -0.57338 3.59348 -0.39773
v -0.57338 3.60348 -0.39773
v -0.55171 3.60348 -0.36528
v -0.481 3.59348 -0.336
v -0.51926 3.59348 -0.34361
v -0.51926 3.60348 -0.34361
v -0.481 3.60348 -0.336
v -0.44273 3.59348 -0.34361
v -0.481 3.59348 -0.336
v -0.481 3.60348 -0.336
v -0.44273 3.60348 -0.34361
v -0.41028 3.59348 -0.36528
v -0.44273 3.59348 -0.34361
v -0.44273 3.60348 -0.34361
v -0.41028 3.60348 -0.36528
v -0.38861 3.59348 -0.39773
v -0.41028 3.59348 -0.36528
v -0.41028 3.60348 -0.36528
v -0.38861 3.60348 -0.39773
v -0.381 3.59348 -0.43599
v -0.38861 3.59348 -0.39773
v -0.38861 3.60348 -0.39773
v -0.381 3.60348 -0.43599
v -0.38861 3.59348 -0.47426
v -0.381 3.59348 -0.43599
v -0.381 3.60348 -0.43599
v -0.38861 3.60348 -0.47426
v -0.41028 3.59348 -0.50671
v -0.38861 3.59348 -0.47426
v -0.38861 3.60348 -0.47426
v -0.41028 3.60348 -0.50671
v -0.44273 3.59348 -0.52838
v -0.41028 3.59348 -0.50671
v -0.41028 3.60348 -0.50671
v -0.44273 3.60348 -0.52838
v -0.39751 3.58653 -0.43599
v -0.39751 3.59993 -0.43599
v -0.40387 3.59993 -0.40405
v -0.40387 3.58653 -0.40405
v -0.40387 3.58653 -0.40405
v -0.40387 3.59993 -0.40405
v -0.42196 3.59993 -0.37696
v -0.42196 3.58653 -0.37696
v -0.42196 3.58653 -0.37696
v -0.42196 3.59993 -0.37696
v -0.44905 3.59993 -0.35887
v -0.44905 3.58653 -0.35887
v -0.44905 3.58653 -0.35887
v -0.44905 3.59993 -0.35887
v -0.481 3.59993 -0.35251
v -0.481 3.58653 -0.35251
v -0.481 3.58653 -0.35251
v -0.481 3.59993 -0.35251
v -0.51294 3.59993 -0.35887
v -0.51294 3.58653 -0.35887
v -0.51294 3.58653 -0.35887
v -0.51294 3.59993 -0.35887
v -0.54003 3.59993 -0.37696
v -0.54003 3.58653 -0.37696
v -0.54003 3.58653 -0.37696
v -0.54003 3.59993 -0.37696
v -0.55812 3.59993 -0.40405
v -0.55812 3.58653 -0.40405
v -0.55812 3.58653 -0.40405
v -0.55812 3.59993 -0.40405
v -0.56448 3.59993 -0.43599
v -0.56448 3.58653 -0.43599
v -0.56448 3.58653 -0.43599
v -0.56448 3.59993 -0.43599
v -0.55812 3.59993 -0.46794
v -0.55812 3.58653 -0.46794
v -0.55812 3.58653 -0.46794
v -0.55812 3.59993 -0.46794
v -0.54003 3.59993 -0.49503
v -0.54003 3.58653 -0.49503
v -0.54003 3.58653 -0.49503
v -0.54003 3.59993 -0.49503
v -0.51294 3.59993 -0.51312
v -0.51294 3.58653 -0.51312
v -0.51294 3.58653 -0.51312
v -0.51294 3.59993 -0.51312
v -0.481 3.59993 -0.51948
v -0.481 3.58653 -0.51948
v -0.481 3.58653 -0.51948
v -0.481 3.59993 -0.51948
v -0.44905 3.59993 -0.51312
v -0.44905 3.58653 -0.51312
v -0.44905 3.58653 -0.51312
v -0.44905 3.59993 -0.51312
v -0.42196 3.59993 -0.49503
v -0.42196 3.58653 -0.49503
v -0.42196 3.58653 -0.49503
v -0.42196 3.59993 -0.49503
v -0.40387 3.59993 -0.46794
v -0.40387 3.58653 -0.46794
v -0.40387 3.58653 -0.46794
v -0.40387 3.59993 -0.46794
v -0.39751 3.59993 -0.43599
v -0.39751 3.58653 -0.43599
v -0.54003 3.59993 -0.37696
v -0.53385 3.59993 -0.38314
v -0.55006 3.59993 -0.40739
v -0.55812 3.59993 -0.40405
v -0.51294 3.59993 -0.35887
v -0.55575 3.59993 -0.43599
v -0.5096 3.59993 -0.36693
v -0.56448 3.59993 -0.43599
v -0.481 3.59993 -0.35251
v -0.55006 3.59993 -0.4646
v -0.481 3.59993 -0.36124
v -0.55812 3.59993 -0.46794
v -0.44905 3.59993 -0.35887
v -0.53385 3.59993 -0.48885
v -0.45239 3.59993 -0.36693
v -0.54003 3.59993 -0.49503
v -0.42196 3.59993 -0.37696
v -0.5096 3.59993 -0.50506
v -0.42814 3.59993 -0.38314
v -0.51294 3.59993 -0.51312
v -0.40387 3.59993 -0.40405
v -0.481 3.59993 -0.51075
v -0.41193 3.59993 -0.40739
v -0.481 3.59993 -0.51948
v -0.39751 3.59993 -0.43599
v -0.45239 3.59993 -0.50506
v -0.40624 3.59993 -0.43599
v -0.44905 3.59993 -0.51312
v -0.40387 3.59993 -0.46794
v -0.42814 3.59993 -0.48885
v -0.41193 3.59993 -0.4646
v -0.42196 3.59993 -0.49503
vn -0.481 3.02265 -0.436
vn -0.481 3.02265 -0.436
vn -0.481 3.02265 -0.4360395
vn -0.481 3.02265 -0.4360023
vn -0.481 3.02265 -0.4360227
vn -0.481 3.02265 -0.436001
vn -0.481 3.02265 -0.4360038
vn -0.481 3.02265 -0.436
vn -0.481 3.02265 -0.436
vn -0.481 3.02265 -0.4359872
vn -0.481 3.02265 -0.4360062
vn -0.481 3.02265 -0.4359668
vn -0.481 3.02265 -0.4360249
vn -0.481 3.02265 -0.436
vn -0.481 3.02265 -0.436
vn -0.481 3.02265 -0.436
vn -0.6624742 3.065493 -0.3147435
vn -0.6624742 3.065493 -0.3147435
vn -0.6624742 3.065493 -0.3147435
vn -0.6624741 3.065495 -0.314738
vn -0.6950628 3.065493 -0.3934205
vn -0.6950628 3.065493 -0.3934205
vn -0.6950628 3.065493 -0.3934205
vn -0.6950647 3.065494 -0.3934235
vn -0.6950645 3.065493 -0.4785644
vn -0.6950645 3.065493 -0.4785644
vn -0.6950645 3.065493 -0.4785644
vn -0.6950635 3.065494 -0.4785874
vn -0.6624766 3.065487 -0.557227
vn -0.6624766 3.065487 -0.557227
vn -0.6624766 3.065487 -0.557227
vn -0.6624722 3.065499 -0.5572832
vn -0.6022574 3.065487 -0.6174549
vn -0.6022574 3.065487 -0.6174549
vn -0.6022574 3.065487 -0.6174549
vn -0.6022556 3.065498 -0.6174874
vn -0.5235811 3.065484 -0.6500403
vn -0.5235811 3.065484 -0.6500403
vn -0.5235811 3.065484 -0.6500403
vn -0.5235798 3.065499 -0.6500772
vn -0.4384198 3.06549 -0.6500556
vn -0.4384198 3.06549 -0.6500556
vn -0.4384198 3.06549 -0.6500555
vn -0.4384201 3.065492 -0.6500589
vn -0.3597429 3.065489 -0.6174607
vn -0.3597429 3.065489 -0.6174607
vn -0.3597429 3.065489 -0.6174607
vn -0.3597428 3.065495 -0.6174774
vn -0.2995262 3.065493 -0.5572552
vn -0.2995262 3.065493 -0.5572552
vn -0.2995262 3.065493 -0.5572552
vn -0.2995279 3.065495 -0.5572662
vn -0.2669381 3.065493 -0.4785795
vn -0.2669381 3.065493 -0.4785795
vn -0.2669381 3.065493 -0.4785795
vn -0.266937 3.065494 -0.4785873
vn -0.2669382 3.065493 -0.3934204
vn -0.2669382 3.065493 -0.3934204
vn -0.2669382 3.065493 -0.3934204
vn -0.2669375 3.065494 -0.3934128
vn -0.2995269 3.065496 -0.3147305
vn -0.2995269 3.065496 -0.3147305
vn -0.2995269 3.065496 -0.3147305
vn -0.299527 3.065494 -0.3147385
vn -0.3597416 3.065487 -0.2545457
vn -0.3597415 3.065487 -0.2545457
vn -0.3597415 3.065487 -0.2545457
vn -0.359744 3.065498 -0.2545121
vn -0.4384202 3.065493 -0.2219384
vn -0.4384202 3.065493 -0.2219384
vn -0.4384202 3.065493 -0.2219384
vn -0.4384208 3.065492 -0.2219412
vn -0.5235797 3.06549 -0.2219464
vn -0.5235797 3.06549 -0.2219464
vn -0.5235797 3.06549 -0.2219464
vn -0.5235788 3.065495 -0.2219319
vn -0.6022587 3.06549 -0.2545376
vn -0.6022587 3.06549 -0.2545376
vn -0.6022587 3.06549 -0.2545376
vn -0.6022555 3.065496 -0.2545184
vn -0.4323687 3.024783 -0.4456598
vn -0.4323687 3.024783 -0.4456598
vn -0.4323687 3.024783 -0.4456598
vn -0.4397723 3.024785 -0.4635824
vn -0.4323691 3.024783 -0.4263369
vn -0.4534524 3.024783 -0.4772323
vn -0.4323683 3.024783 -0.4263402
vn -0.4534529 3.024781 -0.4771985
vn -0.4397735 3.024782 -0.408476
vn -0.4713266 3.024784 -0.48464
vn -0.4397722 3.024783 -0.4084466
vn -0.4713267 3.024783 -0.4846308
vn -0.4534528 3.024783 -0.3947713
vn -0.4906733 3.024783 -0.4846372
vn -0.4534525 3.024782 -0.3947766
vn -0.4906738 3.024783 -0.4846362
vn -0.4713262 3.024781 -0.387391
vn -0.5085473 3.024782 -0.4772235
vn -0.4713265 3.024783 -0.3873622
vn -0.5085472 3.024783 -0.4772286
vn -0.4906733 3.024783 -0.387371
vn -0.5222277 3.024783 -0.4635536
vn -0.4906734 3.024784 -0.3873604
vn -0.5222275 3.024785 -0.4635842
vn -0.5085477 3.024783 -0.3947714
vn -0.5296313 3.024783 -0.4456776
vn -0.5085473 3.024783 -0.3947676
vn -0.5296318 3.024783 -0.4456627
vn -0.5222273 3.024785 -0.4084156
vn -0.5296313 3.024783 -0.4263224
vn -0.5222275 3.024783 -0.4084464
vn -0.5296319 3.024783 -0.4263374
vn -0.8017507 3.6 0.04405451
vn -0.8017654 3.6 0.04404464
vn -0.8017627 3.6 0.04404655
vn -0.8017507 3.6 0.04405451
vn -0.8017627 3.6 0.04404655
vn -0.8017479 3.6 0.0440563
vn -0.4289516 3.087994 -0.6976757
vn -0.4289515 3.087994 -0.6976756
vn -0.4289516 3.087994 -0.6976756
vn -0.4289504 3.088 -0.6976866
vn -0.3327758 3.087989 -0.6578277
vn -0.3327758 3.087989 -0.6578277
vn -0.3327758 3.087989 -0.6578277
vn -0.3327786 3.088002 -0.6578594
vn -0.2591663 3.087986 -0.5842069
vn -0.2591662 3.087986 -0.5842069
vn -0.2591663 3.087986 -0.5842069
vn -0.2591667 3.087993 -0.5842292
vn -0.219329 3.087991 -0.4880426
vn -0.219329 3.087991 -0.4880426
vn -0.219329 3.087991 -0.4880426
vn -0.2193286 3.087992 -0.4880539
vn -0.2193277 3.087992 -0.3839571
vn -0.2193277 3.087992 -0.3839571
vn -0.2193277 3.087992 -0.3839571
vn -0.21933 3.087993 -0.3839318
vn -0.2591643 3.087986 -0.2877964
vn -0.2591643 3.087986 -0.2877964
vn -0.2591643 3.087986 -0.2877964
vn -0.2591702 3.087996 -0.2877559
vn -0.3327765 3.087997 -0.2141517
vn -0.3327765 3.087997 -0.2141517
vn -0.3327765 3.087997 -0.2141517
vn -0.3327758 3.08799 -0.2141692
vn -0.428951 3.087991 -0.1743308
vn -0.428951 3.087991 -0.1743308
vn -0.428951 3.087991 -0.1743308
vn -0.4289511 3.088 -0.1743118
vn -0.5330508 3.08798 -0.1743526
vn -0.5330508 3.08798 -0.1743526
vn -0.5330508 3.08798 -0.1743526
vn -0.5330482 3.088 -0.1743125
vn -0.6292257 3.087987 -0.2141763
vn -0.6292257 3.087987 -0.2141763
vn -0.6292257 3.087987 -0.2141763
vn -0.6292235 3.087997 -0.2141534
vn -0.7028356 3.087991 -0.2877782
vn -0.7028356 3.087991 -0.2877782
vn -0.7028356 3.087991 -0.2877782
vn -0.7028324 3.087992 -0.2877706
vn -0.7426711 3.087991 -0.3839575
vn -0.742671 3.087991 -0.3839575
vn -0.742671 3.087991 -0.3839575
vn -0.7426683 3.087991 -0.3839425
vn -0.7426685 3.08799 -0.4880421
vn -0.7426685 3.08799 -0.4880421
vn -0.7426685 3.08799 -0.4880421
vn -0.7426698 3.087991 -0.4880515
vn -0.7028314 3.087995 -0.5842381
vn -0.7028314 3.087995 -0.5842381
vn -0.7028315 3.087995 -0.5842381
vn -0.7028364 3.08799 -0.5842144
vn -0.6292285 3.08798 -0.6578054
vn -0.6292285 3.08798 -0.6578054
vn -0.6292285 3.08798 -0.6578054
vn -0.6292208 3.088002 -0.6578595
vn -0.5330518 3.087977 -0.6976417
vn -0.5330518 3.087977 -0.6976417
vn -0.5330518 3.087977 -0.6976417
vn -0.533048 3.087999 -0.6976863
vn -0.5727534 3.046776 -0.2986755
vn -0.5727534 3.046776 -0.2986755
vn -0.5727534 3.046776 -0.2986755
vn -0.5727535 3.046773 -0.2986864
vn -0.6183214 3.046777 -0.3442341
vn -0.6183214 3.046777 -0.3442341
vn -0.6183214 3.046777 -0.3442341
vn -0.6183215 3.046772 -0.3442673
vn -0.6429815 3.046776 -0.4037791
vn -0.6429816 3.046776 -0.4037791
vn -0.6429816 3.046776 -0.4037791
vn -0.6429783 3.046774 -0.4037833
vn -0.6429797 3.046775 -0.4682204
vn -0.6429798 3.046775 -0.4682204
vn -0.6429797 3.046775 -0.4682204
vn -0.6429804 3.046775 -0.4682078
vn -0.6183209 3.046776 -0.5277578
vn -0.6183209 3.046776 -0.5277578
vn -0.6183209 3.046776 -0.5277578
vn -0.6183217 3.046777 -0.5277617
vn -0.572753 3.046781 -0.5733429
vn -0.5727529 3.046781 -0.5733429
vn -0.572753 3.046781 -0.5733429
vn -0.5727543 3.04677 -0.5732983
vn -0.5132204 3.046766 -0.59795
vn -0.5132204 3.046766 -0.59795
vn -0.5132204 3.046766 -0.59795
vn -0.5132187 3.046782 -0.5980058
vn -0.4487814 3.04677 -0.5979612
vn -0.4487814 3.04677 -0.5979612
vn -0.4487814 3.04677 -0.5979612
vn -0.4487788 3.046768 -0.5979564
vn -0.3892453 3.046771 -0.5733037
vn -0.3892453 3.046771 -0.5733037
vn -0.3892453 3.046771 -0.5733037
vn -0.3892452 3.04677 -0.5732983
vn -0.3436834 3.046777 -0.5277706
vn -0.3436835 3.046777 -0.5277706
vn -0.3436835 3.046777 -0.5277706
vn -0.3436795 3.046776 -0.5277606
vn -0.3190219 3.046774 -0.4682125
vn -0.3190219 3.046774 -0.4682125
vn -0.3190219 3.046774 -0.4682125
vn -0.3190233 3.046774 -0.4682252
vn -0.3190218 3.046775 -0.403772
vn -0.3190218 3.046775 -0.403772
vn -0.3190218 3.046775 -0.403772
vn -0.3190234 3.046773 -0.4037929
vn -0.343681 3.046779 -0.3442205
vn -0.343681 3.046779 -0.3442205
vn -0.343681 3.046779 -0.3442205
vn -0.3436822 3.046775 -0.344241
vn -0.3892465 3.046772 -0.2986942
vn -0.3892465 3.046772 -0.2986942
vn -0.3892465 3.046772 -0.2986942
vn -0.3892463 3.046769 -0.2987037
vn -0.4487809 3.046769 -0.2740413
vn -0.4487809 3.046769 -0.2740414
vn -0.4487809 3.046769 -0.2740414
vn -0.4487804 3.046767 -0.2740469
vn -0.513219 3.04677 -0.2740391
vn -0.513219 3.046769 -0.274039
vn -0.513219 3.046769 -0.274039
vn -0.5132186 3.046783 -0.2739938
vn -0.3683661 3.6 -1.002257
vn -0.3683661 3.599999 -1.002257
vn -0.3683661 3.599999 -1.002257
vn -0.3683661 3.6 -1.002257
vn -0.5936397 3.6 -1.002256
vn -0.5936339 3.6 -1.002257
vn -0.593635 3.6 -1.002257
vn -0.5936407 3.6 -1.002256
vn -0.8017507 3.6 -0.9160545
vn -0.8017654 3.6 -0.9160446
vn -0.8017627 3.6 -0.9160465
vn -0.8017479 3.6 -0.9160563
vn -0.9610496 3.6 -0.756758
vn -0.9610493 3.6 -0.7567585
vn -0.9610494 3.6 -0.7567583
vn -0.9610497 3.6 -0.7567579
vn -1.047256 3.6 -0.5486379
vn -1.047258 3.6 -0.5486304
vn -1.047257 3.6 -0.5486318
vn -1.047256 3.6 -0.5486393
vn -1.047256 3.6 -0.3233623
vn -1.047258 3.6 -0.3233696
vn -1.047257 3.6 -0.3233682
vn -1.047256 3.6 -0.3233609
vn -0.9610496 3.6 -0.115242
vn -0.9610493 3.6 -0.1152416
vn -0.9610494 3.6 -0.1152416
vn -0.9610497 3.6 -0.1152421
vn -0.5936376 3.6 0.1302562
vn -0.5936328 3.6 0.1302572
vn -0.5936337 3.6 0.130257
vn -0.5936386 3.6 0.130256
vn -0.3683673 3.599999 0.1302572
vn -0.3683683 3.6 0.1302574
vn -0.3683681 3.6 0.1302574
vn -0.3683672 3.599999 0.1302572
vn -0.1602347 3.599999 0.04404473
vn -0.1602353 3.599998 0.04404518
vn -0.1602352 3.599998 0.04404506
vn -0.1602345 3.6 0.04404464
vn -0.0009505749 3.6 -0.1152416
vn -0.0009503067 3.6 -0.1152421
vn -0.0009504259 3.6 -0.115242
vn -0.0009506047 3.6 -0.1152416
vn 0.08525625 3.6 -0.3233623
vn 0.08525768 3.6 -0.3233696
vn 0.08525744 3.6 -0.3233682
vn 0.08525595 3.6 -0.3233609
vn 0.08525619 3.6 -0.5486377
vn 0.08525762 3.6 -0.5486306
vn 0.08525738 3.6 -0.5486319
vn 0.08525595 3.6 -0.5486391
vn -0.0009505749 3.6 -0.7567583
vn -0.0009503067 3.6 -0.7567579
vn -0.0009504259 3.6 -0.756758
vn -0.0009506047 3.6 -0.7567585
vn -0.1602346 3.599998 -0.9160447
vn -0.1602353 3.6 -0.9160452
vn -0.1602352 3.599999 -0.9160451
vn -0.1602345 3.599998 -0.9160446
vn -1.047257 3.6 -0.5486338
vn -1.047257 3.6 -0.5486328
vn -1.047256 3.6 -0.5486359
vn -1.047256 3.6 -0.5486369
vn -0.9610471 3.6 -0.7567618
vn -0.961047 3.6 -0.7567619
vn -0.9610472 3.6 -0.7567616
vn -0.9610473 3.6 -0.7567614
vn -0.8017595 3.6 -0.9160485
vn -0.8017594 3.6 -0.9160486
vn -0.8017598 3.6 -0.9160483
vn -0.8017601 3.6 -0.9160482
vn -0.5936347 3.6 -1.002257
vn -0.5936347 3.6 -1.002257
vn -0.5936347 3.6 -1.002257
vn -0.5936347 3.6 -1.002257
vn -0.3683652 3.6 -1.002257
vn -0.3683652 3.6 -1.002257
vn -0.3683652 3.6 -1.002257
vn -0.3683652 3.6 -1.002257
vn -0.160242 3.6 -0.9160495
vn -0.1602399 3.6 -0.9160482
vn -0.160246 3.6 -0.9160523
vn -0.1602481 3.6 -0.9160537
vn -0.0009471774 3.6 -0.7567532
vn -0.0009452105 3.6 -0.7567503
vn -0.0009510517 3.6 -0.756759
vn -0.0009529591 3.6 -0.7567619
vn 0.08525774 3.6 -0.5486301
vn 0.08525786 3.6 -0.5486291
vn 0.08525738 3.6 -0.5486319
vn 0.08525714 3.6 -0.5486328
vn 0.08525774 3.6 -0.3233702
vn 0.08525798 3.6 -0.3233712
vn 0.08525738 3.6 -0.323368
vn 0.08525714 3.6 -0.323367
vn -0.0009474456 3.6 -0.1152463
vn -0.0009458363 3.6 -0.1152488
vn -0.0009507239 3.6 -0.1152414
vn -0.0009523928 3.6 -0.115239
vn -0.1602417 3.6 0.0440495
vn -0.1602399 3.6 0.04404819
vn -0.1602455 3.6 0.04405198
vn -0.1602473 3.6 0.04405323
vn -0.3683662 3.6 0.130257
vn -0.3683662 3.6 0.130257
vn -0.3683662 3.6 0.130257
vn -0.3683662 3.6 0.130257
vn -0.5936338 3.6 0.130257
vn -0.5936338 3.6 0.130257
vn -0.5936338 3.6 0.130257
vn -0.5936338 3.6 0.130257
vn -0.80176 3.6 0.04404819
vn -0.8017601 3.6 0.04404819
vn -0.80176 3.6 0.04404819
vn -0.8017601 3.6 0.04404819
vn -0.9610474 3.6 -0.1152386
vn -0.9610475 3.6 -0.115239
vn -0.9610469 3.6 -0.115238
vn -0.9610466 3.6 -0.1152376
vn -1.047257 3.6 -0.3233661
vn -1.047257 3.6 -0.323367
vn -1.047257 3.6 -0.3233643
vn -1.047256 3.6 -0.3233635
vn -0.481 3.02265 -0.4360141
vn -0.481 3.02265 -0.4360141
vn -0.481 3.02265 -0.4360141
vn -0.481 3.02265 -0.4360126
vn -0.481 3.02265 -0.436
vn -0.481 3.02265 -0.4359859
vn -0.481 3.02265 -0.436
vn -0.481 3.02265 -0.436
vn -0.481 3.02265 -0.436
vn -0.481 3.02265 -0.4360141
vn -0.481 3.02265 -0.4359682
vn -0.481 3.02265 -0.436
vn -0.481 3.02265 -0.436
vn -0.481 3.02265 -0.4359859
vn -0.481 3.02265 -0.4360141
vn -0.481 3.02265 -0.4359747
vn -0.481 3.02265 -0.4360253
vn -0.481 3.02265 -0.4359859
vn -0.481 3.02265 -0.436
vn -0.481 3.02265 -0.436
vn -0.481 3.02265 -0.436
vn -0.481 3.02265 -0.4360176
vn -0.481 3.02265 -0.4359859
vn -0.481 3.02265 -0.436
vn -0.481 3.02265 -0.4360031
vn -0.481 3.02265 -0.436
vn -0.481 3.02265 -0.436
vn -0.481 3.02265 -0.4360505
vn -0.481 3.02265 -0.436
vn -0.481 3.02265 -0.4359965
vn -0.481 3.02265 -0.4359859
vn -0.481 3.02265 -0.4360253
vt 0.7137229 0.7567321
vt 0.7072877 0.755452
vt 0.7008521 0.7567322
vt 0.7191788 0.7603775
vt 0.6953964 0.7603776
vt 0.7228243 0.7658335
vt 0.6917511 0.7658331
vt 0.6904711 0.7722688
vt 0.7241043 0.7722688
vt 0.7228243 0.7787041
vt 0.6917511 0.7787045
vt 0.7191788 0.78416
vt 0.6953964 0.78416
vt 0.7137231 0.7878054
vt 0.7008521 0.7878054
vt 0.7072877 0.7890854
vt 0.6535977 0.8259587
vt 0.6682141 0.8113424
vt 0.6562356 0.7934154
vt 0.6371383 0.8013256
vt 0.6371383 0.8013256
vt 0.6562356 0.7934154
vt 0.6520294 0.7722688
vt 0.6313589 0.7722688
vt 0.6313589 0.7722688
vt 0.6520294 0.7722688
vt 0.6562356 0.7511222
vt 0.6371383 0.743212
vt 0.6371383 0.743212
vt 0.6562356 0.7511222
vt 0.6682141 0.7331952
vt 0.6535977 0.7185788
vt 0.6535977 0.7185788
vt 0.6682141 0.7331952
vt 0.6861411 0.7212167
vt 0.6782309 0.7021195
vt 0.6782309 0.7021195
vt 0.6861411 0.7212167
vt 0.7072877 0.7170104
vt 0.7072877 0.6963397
vt 0.7072877 0.6963397
vt 0.7072877 0.7170104
vt 0.728434 0.7212166
vt 0.7363444 0.7021194
vt 0.7363444 0.7021194
vt 0.728434 0.7212166
vt 0.7463611 0.7331952
vt 0.7609775 0.7185788
vt 0.7609775 0.7185788
vt 0.7463611 0.7331952
vt 0.7583397 0.7511224
vt 0.777437 0.743212
vt 0.777437 0.743212
vt 0.7583397 0.7511224
vt 0.7625461 0.7722688
vt 0.7832168 0.7722688
vt 0.7832168 0.7722688
vt 0.7625461 0.7722688
vt 0.7583397 0.7934152
vt 0.777437 0.8013256
vt 0.777437 0.8013256
vt 0.7583397 0.7934152
vt 0.7463611 0.8113424
vt 0.7609775 0.8259587
vt 0.7609775 0.8259587
vt 0.7463611 0.8113424
vt 0.728434 0.8233209
vt 0.7363444 0.8424181
vt 0.7363444 0.8424181
vt 0.728434 0.8233209
vt 0.7072877 0.8275272
vt 0.7072877 0.8481979
vt 0.7072877 0.8481979
vt 0.7072877 0.8275272
vt 0.6861411 0.8233209
vt 0.6782309 0.8424181
vt 0.6782309 0.8424181
vt 0.6861411 0.8233209
vt 0.6682141 0.8113424
vt 0.6535977 0.8259587
vt 0.7583397 0.7511224
vt 0.7241043 0.7722688
vt 0.7625461 0.7722688
vt 0.7228243 0.7658335
vt 0.7228243 0.7787041
vt 0.7463611 0.7331952
vt 0.7583397 0.7934152
vt 0.7191788 0.7603775
vt 0.7191788 0.78416
vt 0.728434 0.7212166
vt 0.7463611 0.8113424
vt 0.7137229 0.7567321
vt 0.7137231 0.7878054
vt 0.7072877 0.7170104
vt 0.728434 0.8233209
vt 0.7072877 0.755452
vt 0.7072877 0.7890854
vt 0.6861411 0.7212167
vt 0.7072877 0.8275272
vt 0.7008521 0.7567322
vt 0.7008521 0.7878054
vt 0.6682141 0.7331952
vt 0.6861411 0.8233209
vt 0.6953964 0.7603776
vt 0.6953964 0.78416
vt 0.6562356 0.7511222
vt 0.6682141 0.8113424
vt 0.6917511 0.7658331
vt 0.6917511 0.7787045
vt 0.6520294 0.7722688
vt 0.6562356 0.7934154
vt 0.6904711 0.7722688
vt 0.5565531 0.1478195
vt 0.5565531 0.1722198
vt 0.567809 0.1722198
vt 0.5565531 0.1478195
vt 0.567809 0.1722198
vt 0.567809 0.1478195
vt 0.2722651 0.1677668
vt 0.2722651 0.1779013
vt 0.3084263 0.1850942
vt 0.3123046 0.1757312
vt 0.3123046 0.1757312
vt 0.3084263 0.1850942
vt 0.3390823 0.2055779
vt 0.3462484 0.1984118
vt 0.3462484 0.1984118
vt 0.3390823 0.2055779
vt 0.359566 0.2362339
vt 0.368929 0.2323557
vt 0.368929 0.2323557
vt 0.359566 0.2362339
vt 0.366759 0.2723952
vt 0.3768934 0.2723952
vt 0.3768934 0.2723952
vt 0.366759 0.2723952
vt 0.359566 0.3085564
vt 0.368929 0.3124347
vt 0.368929 0.3124347
vt 0.359566 0.3085564
vt 0.3390823 0.3392125
vt 0.3462484 0.3463786
vt 0.3462484 0.3463786
vt 0.3390823 0.3392125
vt 0.3084263 0.3596962
vt 0.3123046 0.3690592
vt 0.3123046 0.3690592
vt 0.3084263 0.3596962
vt 0.2722651 0.3668891
vt 0.2722651 0.3770234
vt 0.2722651 0.3770234
vt 0.2722651 0.3668891
vt 0.2361038 0.3596962
vt 0.2322256 0.3690592
vt 0.2322256 0.3690592
vt 0.2361038 0.3596962
vt 0.2054477 0.3392125
vt 0.1982817 0.3463786
vt 0.1982817 0.3463786
vt 0.2054477 0.3392125
vt 0.1849642 0.3085564
vt 0.1756011 0.3124347
vt 0.1756011 0.3124347
vt 0.1849642 0.3085564
vt 0.1777714 0.2723952
vt 0.1676368 0.2723952
vt 0.1676368 0.2723952
vt 0.1777714 0.2723952
vt 0.1849642 0.2362339
vt 0.1756011 0.2323557
vt 0.1756011 0.2323557
vt 0.1849642 0.2362339
vt 0.2054477 0.2055779
vt 0.1982817 0.1984118
vt 0.1982817 0.1984118
vt 0.2054477 0.2055779
vt 0.2361038 0.1850942
vt 0.2322256 0.1757312
vt 0.2322256 0.1757312
vt 0.2361038 0.1850942
vt 0.2722651 0.1779013
vt 0.2722651 0.1677668
vt 0.2361038 0.3596962
vt 0.2105017 0.3341585
vt 0.2054477 0.3392125
vt 0.2388391 0.3530928
vt 0.2054477 0.3392125
vt 0.2105017 0.3341585
vt 0.1915674 0.3058212
vt 0.1849642 0.3085564
vt 0.1849642 0.3085564
vt 0.1915674 0.3058212
vt 0.1849188 0.2723952
vt 0.1777714 0.2723952
vt 0.1777714 0.2723952
vt 0.1849188 0.2723952
vt 0.1915674 0.2389691
vt 0.1849642 0.2362339
vt 0.1849642 0.2362339
vt 0.1915674 0.2389691
vt 0.2105017 0.2106319
vt 0.2054477 0.2055779
vt 0.2054477 0.2055779
vt 0.2105017 0.2106319
vt 0.2388391 0.1916975
vt 0.2361038 0.1850942
vt 0.2361038 0.1850942
vt 0.2388391 0.1916975
vt 0.2722651 0.1850488
vt 0.2722651 0.1779013
vt 0.2722651 0.1779013
vt 0.2722651 0.1850488
vt 0.3056911 0.1916975
vt 0.3084263 0.1850942
vt 0.3084263 0.1850942
vt 0.3056911 0.1916975
vt 0.3340282 0.2106319
vt 0.3390823 0.2055779
vt 0.3390823 0.2055779
vt 0.3340282 0.2106319
vt 0.3529626 0.2389691
vt 0.359566 0.2362339
vt 0.359566 0.2362339
vt 0.3529626 0.2389691
vt 0.3596115 0.2723952
vt 0.366759 0.2723952
vt 0.366759 0.2723952
vt 0.3596115 0.2723952
vt 0.3529626 0.3058212
vt 0.359566 0.3085564
vt 0.359566 0.3085564
vt 0.3529626 0.3058212
vt 0.3340282 0.3341585
vt 0.3390823 0.3392125
vt 0.3390823 0.3392125
vt 0.3340282 0.3341585
vt 0.3056911 0.3530928
vt 0.3084263 0.3596962
vt 0.3084263 0.3596962
vt 0.3056911 0.3530928
vt 0.2722651 0.3597416
vt 0.2722651 0.3668891
vt 0.2722651 0.3668891
vt 0.2722651 0.3597416
vt 0.2388391 0.3530928
vt 0.2361038 0.3596962
vt 0.3834011 0.6500084
vt 0.3834011 0.611367
vt 0.3733036 0.611367
vt 0.3733036 0.6500084
vt 0.3834011 0.6886498
vt 0.3834011 0.6500084
vt 0.3733036 0.6500084
vt 0.3733036 0.6886498
vt 0.5565531 0.3314045
vt 0.5565531 0.3558046
vt 0.567809 0.3558046
vt 0.567809 0.3314045
vt 0.5565531 0.2948872
vt 0.5565531 0.3314045
vt 0.567809 0.3314045
vt 0.567809 0.2948872
vt 0.5565531 0.2518122
vt 0.5565531 0.2948872
vt 0.567809 0.2948872
vt 0.567809 0.2518122
vt 0.5565531 0.2087371
vt 0.5565531 0.2518122
vt 0.567809 0.2518122
vt 0.567809 0.2087371
vt 0.5565531 0.1722198
vt 0.5565531 0.2087371
vt 0.567809 0.2087371
vt 0.567809 0.1722198
vt 0.3405274 0.6500084
vt 0.3405274 0.6886498
vt 0.3506249 0.6886498
vt 0.3506249 0.6500084
vt 0.3405274 0.6113669
vt 0.3405274 0.6500084
vt 0.3506249 0.6500084
vt 0.3506249 0.6113669
vt 0.5893501 0.3314039
vt 0.5893501 0.3558041
vt 0.6006061 0.3558041
vt 0.6006061 0.3314039
vt 0.5893501 0.2948867
vt 0.5893501 0.3314039
vt 0.6006061 0.3314039
vt 0.6006061 0.2948867
vt 0.5893501 0.2518119
vt 0.5893501 0.2948867
vt 0.6006061 0.2948867
vt 0.6006061 0.2518119
vt 0.5893501 0.2087371
vt 0.5893501 0.2518119
vt 0.6006061 0.2518119
vt 0.6006061 0.2087371
vt 0.5893501 0.1722199
vt 0.5893501 0.2087371
vt 0.6006061 0.2087371
vt 0.6006061 0.1722199
vt 0.5893501 0.14782
vt 0.5893501 0.1722199
vt 0.6006061 0.1722199
vt 0.6006061 0.14782
vt 0.450154 0.7550852
vt 0.4652373 0.7550852
vt 0.4652373 0.7191248
vt 0.450154 0.7191248
vt 0.450154 0.7191248
vt 0.4652373 0.7191248
vt 0.4652373 0.688639
vt 0.450154 0.688639
vt 0.450154 0.688639
vt 0.4652373 0.688639
vt 0.4652373 0.6682693
vt 0.450154 0.6682693
vt 0.3149684 0.6006566
vt 0.3014376 0.6006566
vt 0.3014376 0.6329154
vt 0.3149684 0.6329154
vt 0.3149684 0.6329154
vt 0.3014376 0.6329154
vt 0.3014376 0.6651742
vt 0.3149684 0.6651742
vt 0.4081839 0.8419012
vt 0.4232672 0.8419012
vt 0.4232672 0.8215314
vt 0.4081839 0.8215314
vt 0.4081839 0.8215314
vt 0.4232672 0.8215314
vt 0.4232672 0.7910457
vt 0.4081839 0.7910457
vt 0.4081839 0.7910457
vt 0.4232672 0.7910457
vt 0.4232672 0.7550852
vt 0.4081839 0.7550852
vt 0.4081839 0.7550852
vt 0.4232672 0.7550852
vt 0.4232672 0.719125
vt 0.4081839 0.719125
vt 0.4081839 0.719125
vt 0.4232672 0.719125
vt 0.4232672 0.6886393
vt 0.4081839 0.6886393
vt 0.4081839 0.6886393
vt 0.4232672 0.6886393
vt 0.4232672 0.6682692
vt 0.4081839 0.6682692
vt 0.2594674 0.6651742
vt 0.2729982 0.6651742
vt 0.2729982 0.6329154
vt 0.2594674 0.6329154
vt 0.2594674 0.6329154
vt 0.2729982 0.6329154
vt 0.2729982 0.6006566
vt 0.2594674 0.6006566
vt 0.450154 0.8419012
vt 0.4652373 0.8419012
vt 0.4652373 0.8215311
vt 0.450154 0.8215311
vt 0.450154 0.8215311
vt 0.4652373 0.8215311
vt 0.4652373 0.7910454
vt 0.450154 0.7910454
vt 0.450154 0.7910454
vt 0.4652373 0.7910454
vt 0.4652373 0.7550852
vt 0.450154 0.7550852
vt 0.6473293 0.8322271
vt 0.6535977 0.8259587
vt 0.6371383 0.8013256
vt 0.6289483 0.804718
vt 0.6748385 0.8506081
vt 0.6313589 0.7722688
vt 0.6782309 0.8424181
vt 0.622494 0.7722688
vt 0.7072877 0.8570626
vt 0.6371383 0.743212
vt 0.7072877 0.8481979
vt 0.6289483 0.7398195
vt 0.7397369 0.8506081
vt 0.6535977 0.7185788
vt 0.7363444 0.8424181
vt 0.6473293 0.7123105
vt 0.7672459 0.8322271
vt 0.6782309 0.7021195
vt 0.7609775 0.8259587
vt 0.6748385 0.6939294
vt 0.7856269 0.804718
vt 0.7072877 0.6963397
vt 0.777437 0.8013256
vt 0.7072877 0.687475
vt 0.7920815 0.7722688
vt 0.7363444 0.7021194
vt 0.7832168 0.7722688
vt 0.7397369 0.6939294
vt 0.7856269 0.7398195
vt 0.7609775 0.7185788
vt 0.777437 0.743212
vt 0.7672459 0.7123105
usemtl Light
f 405/405/405 404/404/404 403/403/403
f 403/403/403 406/406/406 405/405/405
f 406/406/406 407/407/407 405/405/405
f 406/406/406 408/408/408 407/407/407
f 408/408/408 409/409/409 407/407/407
f 408/408/408 410/410/410 409/409/409
f 408/408/408 411/411/411 410/410/410
f 411/411/411 412/412/412 410/410/410
f 412/412/412 413/413/413 410/410/410
f 412/412/412 414/414/414 413/413/413
f 414/414/414 415/415/415 413/413/413
f 414/414/414 416/416/416 415/415/415
f 416/416/416 417/417/417 415/415/415
f 416/416/416 418/418/418 417/417/417
f 421/421/421 420/420/420 419/419/419
f 422/422/422 421/421/421 419/419/419
f 425/425/425 424/424/424 423/423/423
f 426/426/426 425/425/425 423/423/423
f 429/429/429 428/428/428 427/427/427
f 430/430/430 429/429/429 427/427/427
f 433/433/433 432/432/432 431/431/431
f 434/434/434 433/433/433 431/431/431
f 437/437/437 436/436/436 435/435/435
f 438/438/438 437/437/437 435/435/435
f 441/441/441 440/440/440 439/439/439
f 442/442/442 441/441/441 439/439/439
f 445/445/445 444/444/444 443/443/443
f 446/446/446 445/445/445 443/443/443
f 449/449/449 448/448/448 447/447/447
f 450/450/450 449/449/449 447/447/447
f 453/453/453 452/452/452 451/451/451
f 454/454/454 453/453/453 451/451/451
f 457/457/457 456/456/456 455/455/455
f 458/458/458 457/457/457 455/455/455
f 461/461/461 460/460/460 459/459/459
f 462/462/462 461/461/461 459/459/459
f 465/465/465 464/464/464 463/463/463
f 466/466/466 465/465/465 463/463/463
f 469/469/469 468/468/468 467/467/467
f 470/470/470 469/469/469 467/467/467
f 473/473/473 472/472/472 471/471/471
f 474/474/474 473/473/473 471/471/471
f 477/477/477 476/476/476 475/475/475
f 478/478/478 477/477/477 475/475/475
f 481/481/481 480/480/480 479/479/479
f 482/482/482 481/481/481 479/479/479
f 485/485/485 484/484/484 483/483/483
f 484/484/484 486/486/486 483/483/483
f 487/487/487 484/484/484 485/485/485
f 483/483/483 486/486/486 488/488/488
f 489/489/489 487/487/487 485/485/485
f 486/486/486 490/490/490 488/488/488
f 491/491/491 487/487/487 489/489/489
f 488/488/488 490/490/490 492/492/492
f 493/493/493 491/491/491 489/489/489
f 490/490/490 494/494/494 492/492/492
f 495/495/495 491/491/491 493/493/493
f 492/492/492 494/494/494 496/496/496
f 497/497/497 495/495/495 493/493/493
f 494/494/494 498/498/498 496/496/496
f 499/499/499 495/495/495 497/497/497
f 496/496/496 498/498/498 500/500/500
f 501/501/501 499/499/499 497/497/497
f 498/498/498 502/502/502 500/500/500
f 503/503/503 499/499/499 501/501/501
f 500/500/500 502/502/502 504/504/504
f 505/505/505 503/503/503 501/501/501
f 502/502/502 506/506/506 504/504/504
f 507/507/507 503/503/503 505/505/505
f 504/504/504 506/506/506 508/508/508
f 509/509/509 507/507/507 505/505/505
f 506/506/506 510/510/510 508/508/508
f 511/511/511 507/507/507 509/509/509
f 508/508/508 510/510/510 512/512/512
f 513/513/513 511/511/511 509/509/509
f 510/510/510 514/514/514 512/512/512
f 514/514/514 511/511/511 513/513/513
f 512/512/512 514/514/514 513/513/513
usemtl WhitePlastic
f 517/517/517 516/516/516 515/515/515
f 520/520/520 519/519/519 518/518/518
f 523/523/523 522/522/522 521/521/521
f 524/524/524 523/523/523 521/521/521
f 527/527/527 526/526/526 525/525/525
f 528/528/528 527/527/527 525/525/525
f 531/531/531 530/530/530 529/529/529
f 532/532/532 531/531/531 529/529/529
f 535/535/535 534/534/534 533/533/533
f 536/536/536 535/535/535 533/533/533
f 539/539/539 538/538/538 537/537/537
f 540/540/540 539/539/539 537/537/537
f 543/543/543 542/542/542 541/541/541
f 544/544/544 543/543/543 541/541/541
f 547/547/547 546/546/546 545/545/545
f 548/548/548 547/547/547 545/545/545
f 551/551/551 550/550/550 549/549/549
f 552/552/552 551/551/551 549/549/549
f 555/555/555 554/554/554 553/553/553
f 556/556/556 555/555/555 553/553/553
f 559/559/559 558/558/558 557/557/557
f 560/560/560 559/559/559 557/557/557
f 563/563/563 562/562/562 561/561/561
f 564/564/564 563/563/563 561/561/561
f 567/567/567 566/566/566 565/565/565
f 568/568/568 567/567/567 565/565/565
f 571/571/571 570/570/570 569/569/569
f 572/572/572 571/571/571 569/569/569
f 575/575/575 574/574/574 573/573/573
f 576/576/576 575/575/575 573/573/573
f 579/579/579 578/578/578 577/577/577
f 580/580/580 579/579/579 577/577/577
f 583/583/583 582/582/582 581/581/581
f 584/584/584 583/583/583 581/581/581
f 587/587/587 586/586/586 585/585/585
f 586/586/586 588/588/588 585/585/585
f 591/591/591 590/590/590 589/589/589
f 592/592/592 591/591/591 589/589/589
f 595/595/595 594/594/594 593/593/593
f 596/596/596 595/595/595 593/593/593
f 599/599/599 598/598/598 597/597/597
f 600/600/600 599/599/599 597/597/597
f 603/603/603 602/602/602 601/601/601
f 604/604/604 603/603/603 601/601/601
f 607/607/607 606/606/606 605/605/605
f 608/608/608 607/607/607 605/605/605
f 611/611/611 610/610/610 609/609/609
f 612/612/612 611/611/611 609/609/609
f 615/615/615 614/614/614 613/613/613
f 616/616/616 615/615/615 613/613/613
f 619/619/619 618/618/618 617/617/617
f 620/620/620 619/619/619 617/617/617
f 623/623/623 622/622/622 621/621/621
f 624/624/624 623/623/623 621/621/621
f 627/627/627 626/626/626 625/625/625
f 628/628/628 627/627/627 625/625/625
f 631/631/631 630/630/630 629/629/629
f 632/632/632 631/631/631 629/629/629
f 635/635/635 634/634/634 633/633/633
f 636/636/636 635/635/635 633/633/633
f 639/639/639 638/638/638 637/637/637
f 640/640/640 639/639/639 637/637/637
f 643/643/643 642/642/642 641/641/641
f 644/644/644 643/643/643 641/641/641
f 647/647/647 646/646/646 645/645/645
f 648/648/648 647/647/647 645/645/645
f 651/651/651 650/650/650 649/649/649
f 652/652/652 651/651/651 649/649/649
f 655/655/655 654/654/654 653/653/653
f 656/656/656 655/655/655 653/653/653
f 659/659/659 658/658/658 657/657/657
f 660/660/660 659/659/659 657/657/657
f 663/663/663 662/662/662 661/661/661
f 664/664/664 663/663/663 661/661/661
f 667/667/667 666/666/666 665/665/665
f 668/668/668 667/667/667 665/665/665
f 671/671/671 670/670/670 669/669/669
f 672/672/672 671/671/671 669/669/669
f 675/675/675 674/674/674 673/673/673
f 676/676/676 675/675/675 673/673/673
f 679/679/679 678/678/678 677/677/677
f 680/680/680 679/679/679 677/677/677
f 683/683/683 682/682/682 681/681/681
f 684/684/684 683/683/683 681/681/681
f 687/687/687 686/686/686 685/685/685
f 688/688/688 687/687/687 685/685/685
f 691/691/691 690/690/690 689/689/689
f 692/692/692 691/691/691 689/689/689
f 695/695/695 694/694/694 693/693/693
f 696/696/696 695/695/695 693/693/693
f 699/699/699 698/698/698 697/697/697
f 700/700/700 699/699/699 697/697/697
f 703/703/703 702/702/702 701/701/701
f 704/704/704 703/703/703 701/701/701
f 707/707/707 706/706/706 705/705/705
f 708/708/708 707/707/707 705/705/705
f 711/711/711 710/710/710 709/709/709
f 712/712/712 711/711/711 709/709/709
f 715/715/715 714/714/714 713/713/713
f 716/716/716 715/715/715 713/713/713
f 719/719/719 718/718/718 717/717/717
f 720/720/720 719/719/719 717/717/717
f 723/723/723 722/722/722 721/721/721
f 724/724/724 723/723/723 721/721/721
f 727/727/727 726/726/726 725/725/725
f 728/728/728 727/727/727 725/725/725
f 731/731/731 730/730/730 729/729/729
f 732/732/732 731/731/731 729/729/729
f 735/735/735 734/734/734 733/733/733
f 736/736/736 735/735/735 733/733/733
f 739/739/739 738/738/738 737/737/737
f 740/740/740 739/739/739 737/737/737
f 743/743/743 742/742/742 741/741/741
f 744/744/744 743/743/743 741/741/741
f 747/747/747 746/746/746 745/745/745
f 748/748/748 747/747/747 745/745/745
f 751/751/751 750/750/750 749/749/749
f 752/752/752 751/751/751 749/749/749
f 755/755/755 754/754/754 753/753/753
f 756/756/756 755/755/755 753/753/753
f 759/759/759 758/758/758 757/757/757
f 760/760/760 759/759/759 757/757/757
f 763/763/763 762/762/762 761/761/761
f 764/764/764 763/763/763 761/761/761
f 767/767/767 766/766/766 765/765/765
f 768/768/768 767/767/767 765/765/765
f 771/771/771 770/770/770 769/769/769
f 772/772/772 771/771/771 769/769/769
usemtl Metal
f 775/775/775 774/774/774 773/773/773
f 776/776/776 775/775/775 773/773/773
f 773/773/773 774/774/774 777/777/777
f 778/778/778 775/775/775 776/776/776
f 774/774/774 779/779/779 777/777/777
f 780/780/780 778/778/778 776/776/776
f 777/777/777 779/779/779 781/781/781
f 782/782/782 778/778/778 780/780/780
f 779/779/779 783/783/783 781/781/781
f 784/784/784 782/782/782 780/780/780
f 781/781/781 783/783/783 785/785/785
f 786/786/786 782/782/782 784/784/784
f 783/783/783 787/787/787 785/785/785
f 788/788/788 786/786/786 784/784/784
f 785/785/785 787/787/787 789/789/789
f 790/790/790 786/786/786 788/788/788
f 787/787/787 791/791/791 789/789/789
f 792/792/792 790/790/790 788/788/788
f 789/789/789 791/791/791 793/793/793
f 794/794/794 790/790/790 792/792/792
f 791/791/791 795/795/795 793/793/793
f 796/796/796 794/794/794 792/792/792
f 793/793/793 795/795/795 797/797/797
f 798/798/798 794/794/794 796/796/796
f 795/795/795 799/799/799 797/797/797
f 800/800/800 798/798/798 796/796/796
f 797/797/797 799/799/799 801/801/801
f 802/802/802 798/798/798 800/800/800
f 799/799/799 803/803/803 801/801/801
f 804/804/804 802/802/802 800/800/800
f 801/801/801 803/803/803 804/804/804
f 803/803/803 802/802/802 804/804/804
