mtllib Lettuce_21.mtl
v 0.003106827 0.03975906 -0.08951256
v 0.003106827 0.06378906 -0.06842201
v -0.01998219 0.05919639 -0.06842201
v -0.02471701 0.07119846 -0.04429649
v 0.003144959 0.07163868 -0.04420105
v 0.02619596 0.05919639 -0.06842201
v -0.05016323 0.05818092 -0.04425133
v -0.03955608 0.04611755 -0.06842201
v -0.02201355 0.0741745 -0.02321869
v 0.00725592 0.07618386 -0.02275871
v -0.02258098 0.07480631 -0.00159729
v -0.05149517 0.06109903 -0.02323646
v -0.05236934 0.06119235 -0.001650314
v -0.07794121 0.03569363 -0.02330215
v -0.07787018 0.03609917 -0.04421898
v -0.07946052 0.03395482 -0.001682854
v -0.05236206 0.05861753 0.0192614
v -0.02392752 0.07255478 0.01931641
v -0.07874741 0.03276243 0.01935261
v -0.05100777 0.04970474 0.0371682
v -0.06964981 0.0311784 0.03758795
v -0.07119843 0.003404388 0.03772499
v -0.08335022 0.003493042 0.0193548
v -0.05199688 0.02543175 0.05783045
v -0.01975054 0.06289822 0.03767151
v 0.004917305 0.07605798 0.01923507
v -0.03658131 0.0401952 0.05624588
v -0.03137707 0.0164991 0.0697283
v -0.02277862 0.03146897 0.06987644
v -0.0124976 0.04992691 0.05612331
v 0.004900314 0.06788349 0.03777824
v -0.007595081 0.0370343 0.06944984
v -0.01342133 0.02100731 0.08408268
v -0.003578148 0.0264862 0.08387638
v 0.007201706 0.05509304 0.05643589
v 0.03311169 0.0715194 0.01926804
v 0.03613991 0.07286203 -0.001701431
v 0.02904922 0.06149654 0.03751968
v 0.06063484 0.05905256 0.01948883
v 0.007295867 0.04372406 0.06993072
v 0.02672295 0.04944298 0.05603676
v 0.05145683 0.0500402 0.03793289
v 0.07167786 0.03111088 0.01920757
v 0.08092704 0.03398379 -0.001724243
v 0.02255594 0.0380436 0.06961086
v 0.04430023 0.03950558 0.05639431
v 0.0374011 0.03138512 0.06977497
v 0.007295349 0.02964394 0.08420959
v 0.01841607 0.02711601 0.0841077
v 0.02665638 0.01953758 0.08355118
v -0.0002474689 0.01660767 0.09551805
v -0.007083549 0.01277199 0.09626116
v 0.007295349 0.01777725 0.09510599
v 0.01487616 0.01669792 0.09563813
v 0.02084559 0.01195152 0.09487613
v -0.01078623 0.03699555 -0.08951253
v -0.01998219 0.05919639 -0.06842201
v -0.03955608 0.04611755 -0.06842201
v 0.003106827 0.03975906 -0.08951256
v 0.01699999 0.03699555 -0.08951253
v 0.003106827 0.06378906 -0.06842201
v 0.02619596 0.05919639 -0.06842201
v 0.0287779 0.02912567 -0.08951253
v 0.04576984 0.04611748 -0.06842205
v 0.03664783 0.01734772 -0.08951253
v 0.0292001 0.06571598 -0.04416458
v 0.003144959 0.07163868 -0.04420105
v 0.00725592 0.07618386 -0.02275871
v 0.06291809 0.02781952 -0.06842205
v 0.03941132 0.00345459 -0.08951256
v 0.05678566 0.05530125 -0.04421886
v 0.07333229 0.03319843 -0.04426321
v 0.03609842 0.07280871 -0.02306991
v 0.06385971 0.0583176 -0.02308189
v 0.07955375 0.03416651 -0.02305565
v 0.007295479 0.07837377 -0.001567841
v -0.02258098 0.07480631 -0.00159729
v -0.02392752 0.07255478 0.01931641
v 0.004917305 0.07605798 0.01923507
v 0.03613991 0.07286203 -0.001701431
v 0.06380916 0.05993963 -0.00171051
v 0.08092704 0.03398379 -0.001724243
v 0.03311169 0.0715194 0.01926804
v 0.06063484 0.05905256 0.01948883
v -0.01078623 0.03699555 -0.08951253
v -0.03955608 0.04611755 -0.06842201
v -0.02256435 0.02912567 -0.08951248
v -0.06043747 0.03150993 -0.06842203
v -0.03043403 0.01734772 -0.08951253
v -0.07005234 0.00345459 -0.06842201
v -0.03319767 0.00345459 -0.08951255
v -0.08141433 0.003412285 -0.04424073
v -0.07787018 0.03609917 -0.04421898
v -0.05016323 0.05818092 -0.04425133
v -0.0861486 0.003430424 -0.02319494
v -0.07794121 0.03569363 -0.02330215
v -0.01078623 -0.03008652 -0.08951256
v 0.003106827 -0.05688003 -0.06842201
v 0.003106827 -0.03285004 -0.08951256
v 0.02619596 -0.05228737 -0.06842201
v 0.01699999 -0.03008652 -0.08951256
v 0.03134918 -0.06423607 -0.04433594
v 0.003361946 -0.07041149 -0.04440742
v 0.03665625 -0.06742657 -0.02324028
v 0.006532844 -0.07837374 -0.02321098
v -0.02800709 -0.07047573 -0.04424942
v 0.04576984 -0.03920845 -0.06842201
v 0.0287779 -0.02221664 -0.08951256
v 0.05167728 -0.0450745 -0.04417675
v 0.06100826 -0.05025515 -0.02315079
v 0.07654815 -0.02523163 -0.0230286
v 0.06585746 -0.02251884 -0.04413923
v 0.05884861 -0.01963455 -0.06842205
v 0.03664783 -0.01043854 -0.08951252
v 0.07232811 0.003702354 -0.04417336
v 0.06344147 0.003454513 -0.06842205
v 0.03941132 0.00345459 -0.08951256
v 0.06291809 0.02781952 -0.06842205
v 0.07333229 0.03319843 -0.04426321
v 0.07955375 0.03416651 -0.02305565
v -0.07005234 0.00345459 -0.06842201
v -0.08141433 0.003412285 -0.04424073
v -0.07655342 -0.02952606 -0.04399627
v -0.07936279 -0.02933401 -0.02296055
v -0.05505775 -0.05789331 -0.02336113
v -0.0861486 0.003430424 -0.02319494
v -0.05281685 -0.0566849 -0.001767044
v -0.08287605 -0.0287283 -0.001303749
v -0.08436996 0.00340118 -0.001844908
v -0.05269497 -0.05425106 0.01939117
v -0.07884682 -0.02586632 0.01943546
v -0.08335022 0.003493042 0.0193548
v -0.04295097 -0.04599857 0.03779003
v -0.02238384 -0.06149357 0.03854347
v -0.0141645 -0.04910454 0.05717491
v -0.06608146 -0.0214732 0.03765753
v -0.07119843 0.003404388 0.03772499
v -0.03005791 -0.03583832 0.05626514
v -0.008963032 -0.03803238 0.06996544
v -0.04719879 -0.01792458 0.05674356
v -0.05304744 0.002333526 0.05751949
v -0.02038555 -0.02645668 0.06949953
v -0.004407196 -0.02790932 0.08434609
v -0.02900356 -0.01381798 0.06931043
v -0.0392955 0.001347656 0.0705347
v -0.01337879 -0.02038933 0.0839654
v -0.01888723 -0.01060486 0.08374287
v -0.0258284 0.0004200744 0.08503924
v -0.0001185417 -0.01949951 0.09525739
v 0.007295349 -0.02124084 0.09550018
v -0.006526232 -0.0154232 0.09540297
v -0.01125196 -0.009287567 0.09591381
v -0.01309656 -0.001607285 0.09626404
v -0.02800709 -0.07047573 -0.04424942
v -0.02836662 -0.07159752 -0.02313042
v 0.006532844 -0.07837374 -0.02321098
v 0.007263962 -0.07719511 -0.001665115
v -0.02671738 -0.07328501 -0.00178093
v -0.05505775 -0.05789331 -0.02336113
v -0.05281685 -0.0566849 -0.001767044
v -0.0277713 -0.07018097 0.01935699
v -0.05269497 -0.05425106 0.01939117
v -0.02238384 -0.06149357 0.03854347
v 0.004821976 -0.07193854 0.01936851
v 0.03753483 -0.06964691 -0.001674499
v 0.03665625 -0.06742657 -0.02324028
v 0.06420013 -0.05344711 -0.001634445
v 0.05748253 -0.04910446 0.01932972
v 0.03291919 -0.06414238 0.01924027
v 0.004840782 -0.06350098 0.03811119
v 0.04899612 -0.04063995 0.03735168
v 0.06206684 -0.02027203 0.03732887
v 0.02875051 -0.05395092 0.03744987
v 0.00722596 -0.0491896 0.05619431
v -0.0141645 -0.04910454 0.05717491
v 0.04004829 -0.03056434 0.05535072
v 0.05216881 -0.0163031 0.0556905
v 0.04204773 -0.01324921 0.06934997
v 0.02611153 -0.04324837 0.05579944
v 0.03253181 -0.02414986 0.069464
v 0.03292547 -0.01041077 0.08360683
v 0.00729496 -0.0366732 0.06958454
v -0.008963032 -0.03803238 0.06996544
v 0.0214657 -0.03308212 0.06939449
v 0.02690672 -0.01941498 0.08370794
v 0.02426111 -0.008620606 0.0942058
v 0.02032356 -0.01462181 0.09434441
v 0.01705629 -0.02352867 0.08369555
v 0.01497111 -0.02013542 0.095877
v 0.007295349 -0.02694832 0.08382923
v -0.004407196 -0.02790932 0.08434609
v 0.007295349 -0.02124084 0.09550018
v 0.03134918 -0.06423607 -0.04433594
v 0.03665625 -0.06742657 -0.02324028
v 0.06100826 -0.05025515 -0.02315079
v 0.06420013 -0.05344711 -0.001634445
v 0.07723723 -0.02551319 -0.001577339
v 0.07654815 -0.02523163 -0.0230286
v 0.07170082 -0.02420553 0.0191877
v 0.05748253 -0.04910446 0.01932972
v 0.06206684 -0.02027203 0.03732887
v 0.0843663 0.003521356 -0.001687351
v 0.07615372 0.003457126 0.01910771
v 0.0656395 0.00333477 0.03714468
v 0.08614868 0.00335268 -0.02345617
v 0.06585746 -0.02251884 -0.04413923
v 0.07232811 0.003702354 -0.04417336
v 0.07955375 0.03416651 -0.02305565
v 0.08092704 0.03398379 -0.001724243
v 0.07167786 0.03111088 0.01920757
v 0.06296284 0.02741047 0.03741783
v 0.05145683 0.0500402 0.03793289
v 0.04430023 0.03950558 0.05639431
v 0.02672295 0.04944298 0.05603676
v 0.05197094 0.02082909 0.05561464
v 0.0374011 0.03138512 0.06977497
v 0.05466869 0.002274513 0.05542554
v 0.04311294 0.01601509 0.06930813
v 0.02665638 0.01953758 0.08355118
v 0.05216881 -0.0163031 0.0556905
v 0.04899612 -0.04063995 0.03735168
v 0.04355873 0.001104736 0.06931592
v 0.04204773 -0.01324921 0.06934997
v 0.03279202 0.01075439 0.08359359
v 0.02084559 0.01195152 0.09487613
v 0.02543152 0.005910339 0.09544107
v 0.03576523 0.0002500153 0.08375135
v 0.03292547 -0.01041077 0.08360683
v 0.02702047 -0.001602707 0.09555566
v 0.02426111 -0.008620606 0.0942058
v -0.07794121 0.03569363 -0.02330215
v -0.08436996 0.00340118 -0.001844908
v -0.0861486 0.003430424 -0.02319494
v -0.07946052 0.03395482 -0.001682854
v -0.08335022 0.003493042 0.0193548
v -0.07874741 0.03276243 0.01935261
v -0.05236934 0.06119235 -0.001650314
v -0.06964981 0.0311784 0.03758795
v -0.05304744 0.002333526 0.05751949
v -0.07119843 0.003404388 0.03772499
v -0.05199688 0.02543175 0.05783045
v -0.0392955 0.001347656 0.0705347
v -0.03137707 0.0164991 0.0697283
v -0.0258284 0.0004200744 0.08503924
v -0.0192202 0.01051002 0.08425964
v -0.02277862 0.03146897 0.06987644
v -0.01309656 -0.001607285 0.09626404
v -0.01059879 0.00581192 0.09514607
v -0.01342133 0.02100731 0.08408268
v -0.007083549 0.01277199 0.09626116
v -0.003578148 0.0264862 0.08387638
v -0.01078623 0.03699555 -0.08951253
v 0.003106827 0.00345459 -0.1006575
v 0.003106827 0.03975906 -0.08951256
v 0.01699999 0.03699555 -0.08951253
v 0.0287779 0.02912567 -0.08951253
v 0.03664783 0.01734772 -0.08951253
v 0.03941132 0.00345459 -0.08951256
v -0.02256435 0.02912567 -0.08951248
v 0.003106827 0.00345459 -0.1006575
v -0.01078623 0.03699555 -0.08951253
v -0.03043403 0.01734772 -0.08951253
v -0.03319767 0.00345459 -0.08951255
v -0.03043403 -0.01043854 -0.08951252
v -0.02256435 -0.02221664 -0.08951253
v -0.01078623 -0.03008652 -0.08951256
v 0.003106827 -0.03285004 -0.08951256
v 0.003106827 0.00345459 -0.1006575
v -0.01078623 -0.03008652 -0.08951256
v 0.01699999 -0.03008652 -0.08951256
v 0.0287779 -0.02221664 -0.08951256
v 0.03664783 -0.01043854 -0.08951252
v 0.03941132 0.00345459 -0.08951256
v 0.02426111 -0.008620606 0.0942058
v 0.01947519 -0.007650757 0.1001968
v 0.0206054 -0.00260788 0.1006575
v 0.02702047 -0.001602707 0.09555566
v 0.01957971 0.002480926 0.1006575
v 0.02543152 0.005910339 0.09544107
v 0.01668989 0.006787414 0.1006575
v 0.02084559 0.01195152 0.09487613
v 0.01237711 0.009661484 0.1006575
v 0.02032356 -0.01462181 0.09434441
v 0.01947519 -0.007650757 0.1001968
v 0.02426111 -0.008620606 0.0942058
v 0.01659223 -0.01190201 0.1000599
v 0.01497111 -0.02013542 0.095877
v 0.01235364 -0.01481827 0.1002632
v 0.007295349 -0.02124084 0.09550018
v -0.007083549 0.01277199 0.09626116
v -0.00498889 0.002480926 0.1006575
v -0.01059879 0.00581192 0.09514607
v -0.002098942 0.006787414 0.1006575
v -0.0002474689 0.01660767 0.09551805
v 0.002213845 0.009661484 0.1006575
v 0.007295349 0.01777725 0.09510599
v 0.007295349 0.01067001 0.1006575
v 0.01487616 0.01669792 0.09563813
v 0.01237711 0.009661484 0.1006575
v 0.02084559 0.01195152 0.09487613
v -0.02256435 -0.02221664 -0.08951253
v -0.01998219 -0.05228737 -0.06842201
v -0.01078623 -0.03008652 -0.08951256
v 0.003106827 -0.05688003 -0.06842201
v 0.003361946 -0.07041149 -0.04440742
v -0.02800709 -0.07047573 -0.04424942
v -0.04059135 -0.0395163 -0.06842205
v -0.03043403 -0.01043854 -0.08951252
v -0.04990001 -0.0527409 -0.04412323
v -0.02836662 -0.07159752 -0.02313042
v -0.05505775 -0.05789331 -0.02336113
v -0.07655342 -0.02952606 -0.04399627
v -0.06017807 -0.02177368 -0.06842207
v -0.03319767 0.00345459 -0.08951255
v -0.07005234 0.00345459 -0.06842201
v 0.01957971 0.002480926 0.1006575
v 0.007295479 -0.002601624 0.1006575
v 0.01668989 0.006787414 0.1006575
v 0.0206054 -0.00260788 0.1006575
v 0.01237711 0.009661484 0.1006575
v 0.01947519 -0.007650757 0.1001968
v 0.007295349 0.01067001 0.1006575
v 0.01659223 -0.01190201 0.1000599
v 0.002213845 0.009661484 0.1006575
v -0.002098942 0.006787414 0.1006575
v 0.01235364 -0.01481827 0.1002632
v -0.00498889 0.002480926 0.1006575
v 0.007295349 -0.01567421 0.09980705
v 0.007295349 -0.02124084 0.09550018
v -0.0001185417 -0.01949951 0.09525739
v 0.002323441 -0.01460541 0.09956881
v -0.006526232 -0.0154232 0.09540297
v -0.001957417 -0.01185669 0.09986385
v -0.01125196 -0.009287567 0.09591381
v -0.005014314 -0.007707367 0.1006575
v -0.01309656 -0.001607285 0.09626404
v -0.006014443 -0.002607956 0.1006576
v -0.01059879 0.00581192 0.09514607
vt 0.8333992 0.4880218
vt 0.7867965 0.5541725
vt 0.8276449 0.5981073
vt 0.7837989 0.6527086
vt 0.7469702 0.603303
vt 0.7478963 0.5093452
vt 0.8251634 0.703897
vt 0.8712144 0.639838
vt 0.7452922 0.6892514
vt 0.708106 0.6411091
vt 0.7051604 0.7271152
vt 0.7867182 0.7460239
vt 0.7438357 0.7852554
vt 0.8350263 0.8148008
vt 0.8754795 0.7696921
vt 0.7902372 0.8588451
vt 0.69541 0.8128145
vt 0.6596256 0.7552513
vt 0.7341688 0.8875317
vt 0.6502118 0.8438755
vt 0.6769919 0.8964575
vt 0.6807017 0.9613936
vt 0.7580649 0.9538105
vt 0.5957102 0.9054433
vt 0.6094042 0.7783716
vt 0.6278759 0.706187
vt 0.5829292 0.8560984
vt 0.5221269 0.894327
vt 0.5204054 0.8480112
vt 0.5527489 0.7999925
vt 0.5816993 0.7322077
vt 0.5052618 0.8116906
vt 0.4611817 0.8472203
vt 0.4512467 0.817623
vt 0.5296761 0.7574041
vt 0.593533 0.6604284
vt 0.6323833 0.629876
vt 0.5505222 0.6909423
vt 0.5550433 0.6165061
vt 0.4868608 0.7709303
vt 0.5028412 0.7168053
vt 0.515678 0.6488694
vt 0.5149044 0.5745174
vt 0.5512281 0.5403913
vt 0.4628351 0.7355286
vt 0.471585 0.6788222
vt 0.4362469 0.7002378
vt 0.4356233 0.7853122
vt 0.4171642 0.7554806
vt 0.3924204 0.7250465
vt 0.4076657 0.8216442
vt 0.4154301 0.84701
vt 0.3943102 0.795794
vt 0.3772573 0.7691132
vt 0.3574338 0.7426276
vt 0.8706146 0.5259829
vt 0.8276449 0.5981073
vt 0.8712144 0.639838
vt 0.8333992 0.4880218
vt 0.7953202 0.4476416
vt 0.7867965 0.5541725
vt 0.7478963 0.5093452
vt 0.7554823 0.4066125
vt 0.7082132 0.4640886
vt 0.7179571 0.3601005
vt 0.7089206 0.5585223
vt 0.7469702 0.603303
vt 0.708106 0.6411091
vt 0.6606889 0.423873
vt 0.6733211 0.320686
vt 0.6636836 0.511575
vt 0.6212274 0.4711225
vt 0.6705124 0.5949058
vt 0.6264724 0.5464907
vt 0.5869573 0.506858
vt 0.6679152 0.6763576
vt 0.7051604 0.7271152
vt 0.6596256 0.7552513
vt 0.6278759 0.706187
vt 0.6323833 0.629876
vt 0.5934392 0.5836927
vt 0.5512281 0.5403913
vt 0.593533 0.6604284
vt 0.5550433 0.6165061
vt 0.8706146 0.5259829
vt 0.8712144 0.639838
vt 0.9077254 0.5591437
vt 0.9132206 0.6928101
vt 0.9454598 0.5839667
vt 0.9780916 0.7333214
vt 0.9832401 0.5947329
vt 0.9353651 0.8166364
vt 0.8754795 0.7696921
vt 0.8251634 0.703897
vt 0.8852912 0.879546
vt 0.8350263 0.8148008
vt 0.4570065 0.1445264
vt 0.4358422 0.2279245
vt 0.4968556 0.1777621
vt 0.483111 0.2644811
vt 0.5396402 0.2113427
vt 0.4377466 0.312387
vt 0.388171 0.2755632
vt 0.404706 0.3519541
vt 0.3517081 0.3151328
vt 0.3317706 0.2384607
vt 0.529615 0.3017543
vt 0.5838205 0.2463228
vt 0.4867616 0.3469893
vt 0.4532592 0.3872704
vt 0.4979153 0.4242688
vt 0.5327104 0.3840337
vt 0.5750981 0.3397885
vt 0.6284959 0.2827968
vt 0.5772874 0.4247243
vt 0.620531 0.3782957
vt 0.6733211 0.320686
vt 0.6606889 0.423873
vt 0.6212274 0.4711225
vt 0.5869573 0.506858
vt 0.2566968 0.04278807
vt 0.1741481 0.08209104
vt 0.2235091 0.1455212
vt 0.1754538 0.184675
vt 0.2403069 0.2344014
vt 0.1145913 0.1282503
vt 0.2071547 0.2804413
vt 0.1330311 0.229968
vt 0.06852275 0.1910253
vt 0.1797033 0.3305598
vt 0.1041818 0.2859964
vt 0.04039156 0.2598315
vt 0.1646268 0.3868144
vt 0.2167598 0.4141684
vt 0.1981649 0.4727783
vt 0.09176719 0.3527916
vt 0.03118849 0.3385719
vt 0.1497351 0.4509958
vt 0.1916985 0.5158329
vt 0.08992422 0.4294466
vt 0.03679544 0.4295422
vt 0.1475102 0.5017225
vt 0.1855804 0.564509
vt 0.1062843 0.4941428
vt 0.05929208 0.4907128
vt 0.1508026 0.5539399
vt 0.1195624 0.5508273
vt 0.08463734 0.5499493
vt 0.1827587 0.6029127
vt 0.2082935 0.6163043
vt 0.157515 0.5949361
vt 0.1335865 0.5924175
vt 0.1122125 0.5959798
vt 0.3317706 0.2384607
vt 0.2917016 0.2733636
vt 0.3517081 0.3151328
vt 0.3201747 0.356793
vt 0.2619727 0.3166407
vt 0.2403069 0.2344014
vt 0.2071547 0.2804413
vt 0.2348977 0.3618992
vt 0.1797033 0.3305598
vt 0.2167598 0.4141684
vt 0.2914438 0.4010372
vt 0.3708669 0.3918389
vt 0.404706 0.3519541
vt 0.4195527 0.4270713
vt 0.3889548 0.4663964
vt 0.3420858 0.4332327
vt 0.2668369 0.4455326
vt 0.3582739 0.5085945
vt 0.4011633 0.5408115
vt 0.3135262 0.4767613
vt 0.2457247 0.4969948
vt 0.1981649 0.4727783
vt 0.3290523 0.55019
vt 0.3675526 0.5787945
vt 0.3402825 0.6105699
vt 0.2890095 0.5227119
vt 0.3056552 0.5851138
vt 0.3115067 0.6461447
vt 0.2330835 0.5384947
vt 0.1916985 0.5158329
vt 0.2707824 0.5610633
vt 0.2813889 0.6220367
vt 0.285766 0.6696824
vt 0.2611743 0.6497319
vt 0.2499625 0.6033837
vt 0.2336418 0.633305
vt 0.2195408 0.5835139
vt 0.1855804 0.564509
vt 0.2082935 0.6163043
vt 0.4377466 0.312387
vt 0.404706 0.3519541
vt 0.4532592 0.3872704
vt 0.4195527 0.4270713
vt 0.464772 0.4638078
vt 0.4979153 0.4242688
vt 0.4333533 0.5006906
vt 0.3889548 0.4663964
vt 0.4011633 0.5408115
vt 0.5078762 0.5009711
vt 0.4754778 0.5357992
vt 0.4396634 0.5737987
vt 0.5424869 0.4638587
vt 0.5327104 0.3840337
vt 0.5772874 0.4247243
vt 0.5869573 0.506858
vt 0.5512281 0.5403913
vt 0.5149044 0.5745174
vt 0.4780742 0.6092937
vt 0.515678 0.6488694
vt 0.471585 0.6788222
vt 0.5028412 0.7168053
vt 0.4382025 0.6419982
vt 0.4362469 0.7002378
vt 0.4039143 0.609478
vt 0.4041814 0.6670104
vt 0.3924204 0.7250465
vt 0.3675526 0.5787945
vt 0.3582739 0.5085945
vt 0.3727971 0.6386504
vt 0.3402825 0.6105699
vt 0.3663462 0.6960686
vt 0.3574338 0.7426276
vt 0.3345891 0.7176313
vt 0.3410214 0.670953
vt 0.3115067 0.6461447
vt 0.3104035 0.6933132
vt 0.285766 0.6696824
vt 0.8350263 0.8148008
vt 0.8258798 0.9214846
vt 0.8852912 0.879546
vt 0.7902372 0.8588451
vt 0.7580649 0.9538105
vt 0.7341688 0.8875317
vt 0.7438357 0.7852554
vt 0.6769919 0.8964575
vt 0.5812223 0.9585506
vt 0.6807017 0.9613936
vt 0.5957102 0.9054433
vt 0.5182591 0.9380144
vt 0.5221269 0.894327
vt 0.4567655 0.9143673
vt 0.4617616 0.8800714
vt 0.5204054 0.8480112
vt 0.4103475 0.8897684
vt 0.4177666 0.8706055
vt 0.4611817 0.8472203
vt 0.4154301 0.84701
vt 0.4512467 0.817623
vt 0.950932 0.21079
vt 0.8099794 0.1785566
vt 0.9278675 0.2622765
vt 0.8868552 0.301018
vt 0.83414 0.3211149
vt 0.7777458 0.3195096
vt 0.7262591 0.2964451
vt 0.9525379 0.154396
vt 0.8099794 0.1785566
vt 0.950932 0.21079
vt 0.9324402 0.1016807
vt 0.8936994 0.06066842
vt 0.8422123 0.03760418
vt 0.7858186 0.03599812
vt 0.7331029 0.05609572
vt 0.6920911 0.09483658
vt 0.8099794 0.1785566
vt 0.7331029 0.05609572
vt 0.6690264 0.1463234
vt 0.6674207 0.202717
vt 0.6875181 0.2554331
vt 0.7262591 0.2964451
vt 0.2332345 0.7431237
vt 0.2203829 0.7749906
vt 0.2408206 0.7848735
vt 0.2667181 0.7590911
vt 0.2558004 0.8019393
vt 0.290749 0.7871997
vt 0.2630616 0.8234761
vt 0.3019576 0.8218515
vt 0.2617171 0.846242
vt 0.1985348 0.7405767
vt 0.2203829 0.7749906
vt 0.2332345 0.7431237
vt 0.1978582 0.7733055
vt 0.1621032 0.7510172
vt 0.1762783 0.7804595
vt 0.1340477 0.776084
vt 0.2220785 0.9283254
vt 0.189861 0.8879964
vt 0.1848154 0.925597
vt 0.2127963 0.8895859
vt 0.2568271 0.915013
vt 0.2344975 0.8820194
vt 0.2833901 0.8905874
vt 0.2517068 0.8668433
vt 0.2996945 0.8582044
vt 0.2617171 0.846242
vt 0.3019576 0.8218515
vt 0.4251653 0.1083818
vt 0.3908169 0.1874179
vt 0.4570065 0.1445264
vt 0.4358422 0.2279245
vt 0.388171 0.2755632
vt 0.3317706 0.2384607
vt 0.3449286 0.1463666
vt 0.4012433 0.07172768
vt 0.2857174 0.1959699
vt 0.2917016 0.2733636
vt 0.2403069 0.2344014
vt 0.2235091 0.1455212
vt 0.2940509 0.09936571
vt 0.3906978 0.03453673
vt 0.2566968 0.04278807
vt 0.2558004 0.8019393
vt 0.2048565 0.8312342
vt 0.2630616 0.8234761
vt 0.2408206 0.7848735
vt 0.2617171 0.846242
vt 0.2203829 0.7749906
vt 0.2517068 0.8668433
vt 0.1978582 0.7733055
vt 0.2344975 0.8820194
vt 0.2127963 0.8895859
vt 0.1762783 0.7804595
vt 0.189861 0.8879964
vt 0.1591933 0.7955175
vt 0.1340477 0.776084
vt 0.1183823 0.809146
vt 0.1488553 0.8157638
vt 0.1151082 0.8454145
vt 0.147124 0.8384737
vt 0.1258041 0.8812776
vt 0.1543098 0.8603982
vt 0.1504681 0.9100484
vt 0.1692546 0.877829
vt 0.1848154 0.925597
vn 0 0.5727371 -0.8197392
vn 0.02977147 0.8402852 -0.5413266
vn -0.2699535 0.7580141 -0.5937506
vn -0.2754473 0.9110594 -0.3067566
vn 0.04939472 0.9566601 -0.2869872
vn 0.2948908 0.788775 -0.5393269
vn -0.5301318 0.7836813 -0.3237346
vn -0.4458337 0.6240756 -0.6416869
vn -0.2432384 0.9653443 -0.0945811
vn 0.04924893 0.9875025 -0.1497115
vn -0.2699618 0.962607 0.02254673
vn -0.5644048 0.8237979 -0.05295576
vn -0.5784415 0.815137 0.03093767
vn -0.8593689 0.509304 -0.04576672
vn -0.813172 0.4769965 -0.3335051
vn -0.8723477 0.4878112 0.03239963
vn -0.5538918 0.7947104 0.2482722
vn -0.2877361 0.9179752 0.2730006
vn -0.8622122 0.4424693 0.246599
vn -0.4828119 0.6986782 0.5279597
vn -0.7395262 0.3612517 0.5679772
vn -0.7892908 -0.04568129 0.6123178
vn -0.9511562 0.004221651 0.3086812
vn -0.6083098 0.2949616 0.736856
vn -0.2629966 0.8037893 0.533625
vn 0.01811768 0.9627768 0.2696896
vn -0.3843831 0.6136898 0.6896625
vn -0.5489605 0.3157927 0.7738973
vn -0.3842298 0.5410096 0.748115
vn -0.2511485 0.7285432 0.6372984
vn 0.01327407 0.8587115 0.5122873
vn -0.2678005 0.6884471 0.6740353
vn -0.5012744 0.5330052 0.6816373
vn -0.2774848 0.6991917 0.658888
vn 0.01834993 0.7879899 0.6154146
vn 0.2923115 0.9094378 0.295765
vn 0.3080338 0.9508466 0.03171945
vn 0.2897 0.8044447 0.5185968
vn 0.6472228 0.6718832 0.3601047
vn -0.01331574 0.7335247 0.6795323
vn 0.3077675 0.7512845 0.5838242
vn 0.595295 0.5828432 0.5530983
vn 0.8703025 0.2678334 0.4133267
vn 0.9309108 0.3261131 0.1644848
vn 0.3028646 0.6887813 0.6586754
vn 0.5982271 0.5399734 0.5920752
vn 0.5617213 0.4944283 0.6633323
vn -0.02629472 0.7265585 0.6866012
vn 0.3145085 0.6572506 0.6849133
vn 0.5510522 0.4817621 0.6813566
vn -0.2325554 0.6579671 0.7162384
vn -0.5076724 0.4845108 0.712403
vn -0.01720733 0.6785617 0.7343417
vn 0.3093814 0.6150755 0.7252347
vn 0.5513844 0.4964302 0.6704717
vn -0.2191775 0.5291389 -0.8197397
vn -0.2699535 0.7580141 -0.5937506
vn -0.4458337 0.6240756 -0.6416869
vn 0 0.5727371 -0.8197392
vn 0.2191773 0.5291395 -0.8197394
vn 0.02977147 0.8402852 -0.5413266
vn 0.2948908 0.788775 -0.5393269
vn 0.3829654 0.4174374 -0.8240652
vn 0.5105913 0.6209008 -0.5947931
vn 0.5031912 0.2094151 -0.8384175
vn 0.2904028 0.8979096 -0.3307939
vn 0.04939472 0.9566601 -0.2869872
vn 0.04924893 0.9875025 -0.1497115
vn 0.7538635 0.2753459 -0.5965521
vn 0.5649694 -0.02640804 -0.8246891
vn 0.5727574 0.7243199 -0.3838093
vn 0.8555161 0.3154275 -0.4106065
vn 0.302782 0.9352483 -0.1833947
vn 0.6480478 0.7397857 -0.1809731
vn 0.9195431 0.3382959 -0.1999908
vn 0.03200813 0.9992648 0.02110349
vn -0.2699618 0.962607 0.02254673
vn -0.2877361 0.9179752 0.2730006
vn 0.01811768 0.9627768 0.2696896
vn 0.3080338 0.9508466 0.03171945
vn 0.6751425 0.7324508 0.08774044
vn 0.9309108 0.3261131 0.1644848
vn 0.2923115 0.9094378 0.295765
vn 0.6472228 0.6718832 0.3601047
vn -0.2191775 0.5291389 -0.8197397
vn -0.4458337 0.6240756 -0.6416869
vn -0.3520764 0.4327964 -0.8298973
vn -0.6123217 0.399922 -0.6820004
vn -0.4316925 0.2455554 -0.8679539
vn -0.7297101 -0.007764149 -0.6837125
vn -0.4707322 -0.001316603 -0.8822751
vn -0.9348008 -0.006874385 -0.3551059
vn -0.813172 0.4769965 -0.3335051
vn -0.5301318 0.7836813 -0.3237346
vn -0.9967532 0.01851585 -0.07836034
vn -0.8593689 0.509304 -0.04576672
vn -0.2146527 -0.5299551 -0.8204096
vn 0.0295411 -0.7822676 -0.6222416
vn 0 -0.5727367 -0.8197394
vn 0.3331852 -0.7368444 -0.5882586
vn 0.2191773 -0.5291393 -0.8197396
vn 0.401963 -0.8305036 -0.3856027
vn 0.05782355 -0.9174724 -0.3935744
vn 0.4394011 -0.8730602 -0.2114063
vn 0.07462806 -0.9882741 -0.1332102
vn -0.3026218 -0.8620266 -0.4066082
vn 0.6112618 -0.5718898 -0.547084
vn 0.4049863 -0.4049837 -0.8197404
vn 0.6864697 -0.6196277 -0.3805533
vn 0.717548 -0.6408843 -0.2727489
vn 0.8863583 -0.3755113 -0.2708509
vn 0.8378537 -0.3670119 -0.4041082
vn 0.7829969 -0.3268043 -0.5292588
vn 0.5291389 -0.2191772 -0.8197399
vn 0.9052427 -0.09404507 -0.4143563
vn 0.8287327 -0.07473215 -0.5546325
vn 0.5649694 -0.02640804 -0.8246891
vn 0.7538635 0.2753459 -0.5965521
vn 0.8555161 0.3154275 -0.4106065
vn 0.9195431 0.3382959 -0.1999908
vn -0.7297101 -0.007764149 -0.6837125
vn -0.9348008 -0.006874385 -0.3551059
vn -0.8005571 -0.4595925 -0.3845558
vn -0.879338 -0.4648279 -0.1034393
vn -0.6356746 -0.7668024 -0.08906037
vn -0.9967532 0.01851585 -0.07836034
vn -0.6283986 -0.7742469 0.07521359
vn -0.886718 -0.4573794 0.06734353
vn -0.9988293 0.0337186 0.03468429
vn -0.6156985 -0.7117296 0.3381659
vn -0.8277678 -0.4328344 0.3570081
vn -0.9511562 0.004221651 0.3086812
vn -0.5431679 -0.5934817 0.593926
vn -0.2776426 -0.7874233 0.5503445
vn -0.2478275 -0.7087633 0.6604818
vn -0.6810778 -0.379571 0.6261461
vn -0.7892908 -0.04568129 0.6123178
vn -0.5155088 -0.5250183 0.6772048
vn -0.2457145 -0.6965533 0.6741201
vn -0.5976062 -0.3832005 0.7042897
vn -0.6789203 -0.06905064 0.7309577
vn -0.5569556 -0.4883431 0.6718045
vn -0.2612864 -0.7572007 0.5986456
vn -0.5921599 -0.4158173 0.6902483
vn -0.625074 -0.06466596 0.7778822
vn -0.6285238 -0.527424 0.5716483
vn -0.6886148 -0.4458761 0.5718428
vn -0.7188361 -0.03006379 0.6945292
vn -0.2605678 -0.7233214 0.6394612
vn 0.06062933 -0.834535 0.5476089
vn -0.5484088 -0.5415262 0.6371791
vn -0.6654018 -0.3918864 0.6353468
vn -0.6805863 -0.006673469 0.7326375
vn -0.3026218 -0.8620266 -0.4066082
vn -0.3211515 -0.9426845 -0.09059554
vn 0.07462806 -0.9882741 -0.1332102
vn 0.07600258 -0.9914067 0.1064731
vn -0.301256 -0.9500796 0.08120139
vn -0.6356746 -0.7668024 -0.08906037
vn -0.6283986 -0.7742469 0.07521359
vn -0.3133373 -0.8998261 0.3035337
vn -0.6156985 -0.7117296 0.3381659
vn -0.2776426 -0.7874233 0.5503445
vn 0.0841425 -0.940736 0.3285359
vn 0.4089771 -0.9065938 0.1040451
vn 0.4394011 -0.8730602 -0.2114063
vn 0.7325869 -0.6745013 0.09145765
vn 0.6532523 -0.6311244 0.4182625
vn 0.3705311 -0.8427973 0.3903837
vn 0.1144895 -0.8562121 0.5037788
vn 0.6015223 -0.5894572 0.5391765
vn 0.7975203 -0.3032562 0.5215334
vn 0.3849981 -0.7634348 0.518598
vn 0.1414077 -0.7844411 0.6038675
vn -0.2478275 -0.7087633 0.6604818
vn 0.5923147 -0.5782644 0.5610469
vn 0.7653322 -0.3159457 0.560754
vn 0.7467179 -0.3327382 0.5759321
vn 0.3995417 -0.7123091 0.5770462
vn 0.5765482 -0.5972755 0.5575428
vn 0.7608 -0.3531462 0.5444918
vn 0.1446859 -0.769833 0.6216295
vn -0.2457145 -0.6965533 0.6741201
vn 0.3653225 -0.7103708 0.6015918
vn 0.5821548 -0.6184144 0.527882
vn 0.7005694 -0.3649521 0.6131985
vn 0.5977652 -0.5621778 0.5715179
vn 0.3550283 -0.7864307 0.505452
vn 0.35737 -0.7783397 0.5162113
vn 0.1394746 -0.8343878 0.533239
vn -0.2612864 -0.7572007 0.5986456
vn 0.06062933 -0.834535 0.5476089
vn 0.401963 -0.8305036 -0.3856027
vn 0.4394011 -0.8730602 -0.2114063
vn 0.717548 -0.6408843 -0.2727489
vn 0.7325869 -0.6745013 0.09145765
vn 0.9261667 -0.3528495 0.1330887
vn 0.8863583 -0.3755113 -0.2708509
vn 0.8608721 -0.3106188 0.4030077
vn 0.6532523 -0.6311244 0.4182625
vn 0.7975203 -0.3032562 0.5215334
vn 0.9816957 -0.04239771 0.1856777
vn 0.9096568 -0.01989872 0.4148839
vn 0.8655122 -0.006373202 0.5008474
vn 0.96925 -0.06999265 -0.2359142
vn 0.8378537 -0.3670119 -0.4041082
vn 0.9052427 -0.09404507 -0.4143563
vn 0.9195431 0.3382959 -0.1999908
vn 0.9309108 0.3261131 0.1644848
vn 0.8703025 0.2678334 0.4133267
vn 0.8246844 0.2362768 0.5138764
vn 0.595295 0.5828432 0.5530983
vn 0.5982271 0.5399734 0.5920752
vn 0.3077675 0.7512845 0.5838242
vn 0.8043745 0.2066596 0.5570221
vn 0.5617213 0.4944283 0.6633323
vn 0.8356196 -0.008904343 0.5492364
vn 0.7674249 0.1966806 0.610226
vn 0.5510522 0.4817621 0.6813566
vn 0.7653322 -0.3159457 0.560754
vn 0.6015223 -0.5894572 0.5391765
vn 0.8167633 -0.01165227 0.5768551
vn 0.7467179 -0.3327382 0.5759321
vn 0.7354615 0.2663859 0.6230047
vn 0.5513844 0.4964302 0.6704717
vn 0.6815748 0.3241548 0.6560332
vn 0.8290851 -0.01800648 0.5588324
vn 0.7608 -0.3531462 0.5444918
vn 0.7607793 -0.05681887 0.6465188
vn 0.7005694 -0.3649521 0.6131985
vn -0.8593689 0.509304 -0.04576672
vn -0.9988293 0.0337186 0.03468429
vn -0.9967532 0.01851585 -0.07836034
vn -0.8723477 0.4878112 0.03239963
vn -0.9511562 0.004221651 0.3086812
vn -0.8622122 0.4424693 0.246599
vn -0.5784415 0.815137 0.03093767
vn -0.7395262 0.3612517 0.5679772
vn -0.6789203 -0.06905064 0.7309577
vn -0.7892908 -0.04568129 0.6123178
vn -0.6083098 0.2949616 0.736856
vn -0.625074 -0.06466596 0.7778822
vn -0.5489605 0.3157927 0.7738973
vn -0.7188361 -0.03006379 0.6945292
vn -0.6397999 0.3761117 0.670221
vn -0.3842298 0.5410096 0.748115
vn -0.6805863 -0.006673469 0.7326375
vn -0.6258737 0.3346359 0.7044863
vn -0.5012744 0.5330052 0.6816373
vn -0.5076724 0.4845108 0.712403
vn -0.2774848 0.6991917 0.658888
vn -0.2191775 0.5291389 -0.8197397
vn -2.559077E-07 2.87404E-07 -1
vn 0 0.5727371 -0.8197392
vn 0.2191773 0.5291395 -0.8197394
vn 0.3829654 0.4174374 -0.8240652
vn 0.5031912 0.2094151 -0.8384175
vn 0.5649694 -0.02640804 -0.8246891
vn -0.3520764 0.4327964 -0.8298973
vn -2.559077E-07 2.87404E-07 -1
vn -0.2191775 0.5291389 -0.8197397
vn -0.4316925 0.2455554 -0.8679539
vn -0.4707322 -0.001316603 -0.8822751
vn -0.4408097 -0.2488156 -0.8624254
vn -0.3619898 -0.422749 -0.8308108
vn -0.2146527 -0.5299551 -0.8204096
vn 0 -0.5727367 -0.8197394
vn -2.559077E-07 2.87404E-07 -1
vn -0.2146527 -0.5299551 -0.8204096
vn 0.2191773 -0.5291393 -0.8197396
vn 0.4049863 -0.4049837 -0.8197404
vn 0.5291389 -0.2191772 -0.8197399
vn 0.5649694 -0.02640804 -0.8246891
vn 0.7005694 -0.3649521 0.6131985
vn 0.4630297 -0.2882172 0.8381733
vn 0.454204 -0.08643088 0.8866953
vn 0.7607793 -0.05681887 0.6465188
vn 0.3929966 0.1845738 0.9008253
vn 0.6815748 0.3241548 0.6560332
vn 0.3219311 0.3086109 0.8950529
vn 0.5513844 0.4964302 0.6704717
vn 0.1709002 0.3804993 0.9088528
vn 0.5977652 -0.5621778 0.5715179
vn 0.4630297 -0.2882172 0.8381733
vn 0.7005694 -0.3649521 0.6131985
vn 0.4186097 -0.3186508 0.8504279
vn 0.35737 -0.7783397 0.5162113
vn 0.1903493 -0.3853816 0.9029109
vn 0.06062933 -0.834535 0.5476089
vn -0.5076724 0.4845108 0.712403
vn -0.3847246 0.1606411 0.9089452
vn -0.6258737 0.3346359 0.7044863
vn -0.283207 0.2538851 0.9248439
vn -0.2325554 0.6579671 0.7162384
vn -0.1127714 0.3831983 0.9167561
vn -0.01720733 0.6785617 0.7343417
vn -0.004595706 0.4222511 0.9064672
vn 0.3093814 0.6150755 0.7252347
vn 0.1709002 0.3804993 0.9088528
vn 0.5513844 0.4964302 0.6704717
vn -0.3619898 -0.422749 -0.8308108
vn -0.2647001 -0.704631 -0.6583532
vn -0.2146527 -0.5299551 -0.8204096
vn 0.0295411 -0.7822676 -0.6222416
vn 0.05782355 -0.9174724 -0.3935744
vn -0.3026218 -0.8620266 -0.4066082
vn -0.4755149 -0.5760596 -0.6648615
vn -0.4408097 -0.2488156 -0.8624254
vn -0.5762335 -0.7033659 -0.4162107
vn -0.3211515 -0.9426845 -0.09059554
vn -0.6356746 -0.7668024 -0.08906037
vn -0.8005571 -0.4595925 -0.3845558
vn -0.6246616 -0.3793938 -0.6825381
vn -0.4707322 -0.001316603 -0.8822751
vn -0.7297101 -0.007764149 -0.6837125
vn 0.3929966 0.1845738 0.9008253
vn 0.0002572608 -0.03198489 0.9994884
vn 0.3219311 0.3086109 0.8950529
vn 0.454204 -0.08643088 0.8866953
vn 0.1709002 0.3804993 0.9088528
vn 0.4630297 -0.2882172 0.8381733
vn -0.004595706 0.4222511 0.9064672
vn 0.4186097 -0.3186508 0.8504279
vn -0.1127714 0.3831983 0.9167561
vn -0.283207 0.2538851 0.9248439
vn 0.1903493 -0.3853816 0.9029109
vn -0.3847246 0.1606411 0.9089452
vn -0.06545126 -0.4278045 0.9014984
vn 0.06062933 -0.834535 0.5476089
vn -0.2605678 -0.7233214 0.6394612
vn -0.1678732 -0.4083202 0.8972698
vn -0.5484088 -0.5415262 0.6371791
vn -0.2433605 -0.3738551 0.8949905
vn -0.6654018 -0.3918864 0.6353468
vn -0.3352948 -0.2290882 0.9138358
vn -0.6805863 -0.006673469 0.7326375
vn -0.387302 0.02150727 0.921702
vn -0.6258737 0.3346359 0.7044863
usemtl Lettuce3_Mat
f 3/3/3 2/2/2 1/1/1
f 3/3/3 4/4/4 2/2/2
f 4/4/4 5/5/5 2/2/2
f 2/2/2 5/5/5 6/6/6
f 7/7/7 4/4/4 3/3/3
f 8/8/8 7/7/7 3/3/3
f 4/4/4 9/9/9 5/5/5
f 9/9/9 10/10/10 5/5/5
f 9/9/9 11/11/11 10/10/10
f 7/7/7 12/12/12 4/4/4
f 12/12/12 9/9/9 4/4/4
f 13/13/13 11/11/11 9/9/9
f 12/12/12 13/13/13 9/9/9
f 14/14/14 12/12/12 7/7/7
f 15/15/15 14/14/14 7/7/7
f 14/14/14 16/16/16 12/12/12
f 16/16/16 13/13/13 12/12/12
f 13/13/13 17/17/17 11/11/11
f 17/17/17 18/18/18 11/11/11
f 19/19/19 17/17/17 13/13/13
f 17/17/17 20/20/20 18/18/18
f 19/19/19 21/21/21 17/17/17
f 21/21/21 20/20/20 17/17/17
f 22/22/22 21/21/21 19/19/19
f 23/23/23 22/22/22 19/19/19
f 21/21/21 24/24/24 20/20/20
f 20/20/20 25/25/25 18/18/18
f 18/18/18 25/25/25 26/26/26
f 24/24/24 27/27/27 20/20/20
f 20/20/20 27/27/27 25/25/25
f 24/24/24 28/28/28 27/27/27
f 28/28/28 29/29/29 27/27/27
f 27/27/27 30/30/30 25/25/25
f 27/27/27 29/29/29 30/30/30
f 25/25/25 31/31/31 26/26/26
f 25/25/25 30/30/30 31/31/31
f 29/29/29 32/32/32 30/30/30
f 29/29/29 33/33/33 32/32/32
f 33/33/33 34/34/34 32/32/32
f 30/30/30 32/32/32 35/35/35
f 30/30/30 35/35/35 31/31/31
f 26/26/26 31/31/31 36/36/36
f 26/26/26 36/36/36 37/37/37
f 31/31/31 38/38/38 36/36/36
f 31/31/31 35/35/35 38/38/38
f 36/36/36 38/38/38 39/39/39
f 32/32/32 40/40/40 35/35/35
f 32/32/32 34/34/34 40/40/40
f 35/35/35 41/41/41 38/38/38
f 35/35/35 40/40/40 41/41/41
f 38/38/38 42/42/42 39/39/39
f 38/38/38 41/41/41 42/42/42
f 39/39/39 42/42/42 43/43/43
f 39/39/39 43/43/43 44/44/44
f 40/40/40 45/45/45 41/41/41
f 41/41/41 45/45/45 46/46/46
f 45/45/45 47/47/47 46/46/46
f 34/34/34 48/48/48 40/40/40
f 40/40/40 48/48/48 45/45/45
f 45/45/45 49/49/49 47/47/47
f 48/48/48 49/49/49 45/45/45
f 49/49/49 50/50/50 47/47/47
f 34/34/34 51/51/51 48/48/48
f 52/52/52 51/51/51 34/34/34
f 51/51/51 53/53/53 48/48/48
f 48/48/48 53/53/53 49/49/49
f 53/53/53 54/54/54 49/49/49
f 49/49/49 54/54/54 50/50/50
f 54/54/54 55/55/55 50/50/50
f 58/58/58 57/57/57 56/56/56
f 56/56/56 57/57/57 59/59/59
f 59/59/59 61/61/61 60/60/60
f 61/61/61 62/62/62 60/60/60
f 60/60/60 62/62/62 63/63/63
f 62/62/62 64/64/64 63/63/63
f 63/63/63 64/64/64 65/65/65
f 62/62/62 66/66/66 64/64/64
f 67/67/67 66/66/66 62/62/62
f 67/67/67 68/68/68 66/66/66
f 64/64/64 69/69/69 65/65/65
f 65/65/65 69/69/69 70/70/70
f 64/64/64 71/71/71 69/69/69
f 66/66/66 71/71/71 64/64/64
f 71/71/71 72/72/72 69/69/69
f 68/68/68 73/73/73 66/66/66
f 66/66/66 73/73/73 71/71/71
f 71/71/71 74/74/74 72/72/72
f 73/73/73 74/74/74 71/71/71
f 74/74/74 75/75/75 72/72/72
f 68/68/68 76/76/76 73/73/73
f 77/77/77 76/76/76 68/68/68
f 77/77/77 78/78/78 76/76/76
f 78/78/78 79/79/79 76/76/76
f 76/76/76 79/79/79 80/80/80
f 76/76/76 80/80/80 73/73/73
f 73/73/73 80/80/80 74/74/74
f 74/74/74 81/81/81 75/75/75
f 80/80/80 81/81/81 74/74/74
f 81/81/81 82/82/82 75/75/75
f 80/80/80 83/83/83 81/81/81
f 81/81/81 84/84/84 82/82/82
f 83/83/83 84/84/84 81/81/81
f 87/87/87 86/86/86 85/85/85
f 88/88/88 86/86/86 87/87/87
f 89/89/89 88/88/88 87/87/87
f 90/90/90 88/88/88 89/89/89
f 91/91/91 90/90/90 89/89/89
f 90/90/90 92/92/92 88/88/88
f 88/88/88 93/93/93 86/86/86
f 92/92/92 93/93/93 88/88/88
f 93/93/93 94/94/94 86/86/86
f 92/92/92 95/95/95 93/93/93
f 95/95/95 96/96/96 93/93/93
f 99/99/99 98/98/98 97/97/97
f 100/100/100 98/98/98 99/99/99
f 101/101/101 100/100/100 99/99/99
f 100/100/100 102/102/102 98/98/98
f 102/102/102 103/103/103 98/98/98
f 102/102/102 104/104/104 103/103/103
f 104/104/104 105/105/105 103/103/103
f 103/103/103 105/105/105 106/106/106
f 107/107/107 100/100/100 101/101/101
f 108/108/108 107/107/107 101/101/101
f 109/109/109 102/102/102 100/100/100
f 107/107/107 109/109/109 100/100/100
f 109/109/109 110/110/110 102/102/102
f 111/111/111 110/110/110 109/109/109
f 112/112/112 111/111/111 109/109/109
f 112/112/112 109/109/109 107/107/107
f 113/113/113 107/107/107 108/108/108
f 113/113/113 112/112/112 107/107/107
f 114/114/114 113/113/113 108/108/108
f 115/115/115 112/112/112 113/113/113
f 116/116/116 113/113/113 114/114/114
f 116/116/116 115/115/115 113/113/113
f 117/117/117 116/116/116 114/114/114
f 118/118/118 116/116/116 117/117/117
f 118/118/118 119/119/119 116/116/116
f 119/119/119 115/115/115 116/116/116
f 119/119/119 120/120/120 115/115/115
f 123/123/123 122/122/122 121/121/121
f 123/123/123 124/124/124 122/122/122
f 125/125/125 124/124/124 123/123/123
f 124/124/124 126/126/126 122/122/122
f 125/125/125 127/127/127 124/124/124
f 124/124/124 128/128/128 126/126/126
f 127/127/127 128/128/128 124/124/124
f 128/128/128 129/129/129 126/126/126
f 127/127/127 130/130/130 128/128/128
f 128/128/128 131/131/131 129/129/129
f 130/130/130 131/131/131 128/128/128
f 131/131/131 132/132/132 129/129/129
f 130/130/130 133/133/133 131/131/131
f 134/134/134 133/133/133 130/130/130
f 134/134/134 135/135/135 133/133/133
f 131/131/131 136/136/136 132/132/132
f 133/133/133 136/136/136 131/131/131
f 136/136/136 137/137/137 132/132/132
f 135/135/135 138/138/138 133/133/133
f 133/133/133 138/138/138 136/136/136
f 135/135/135 139/139/139 138/138/138
f 136/136/136 140/140/140 137/137/137
f 138/138/138 140/140/140 136/136/136
f 140/140/140 141/141/141 137/137/137
f 139/139/139 142/142/142 138/138/138
f 138/138/138 142/142/142 140/140/140
f 139/139/139 143/143/143 142/142/142
f 140/140/140 144/144/144 141/141/141
f 142/142/142 144/144/144 140/140/140
f 144/144/144 145/145/145 141/141/141
f 143/143/143 146/146/146 142/142/142
f 142/142/142 146/146/146 144/144/144
f 144/144/144 147/147/147 145/145/145
f 146/146/146 147/147/147 144/144/144
f 147/147/147 148/148/148 145/145/145
f 143/143/143 149/149/149 146/146/146
f 150/150/150 149/149/149 143/143/143
f 149/149/149 151/151/151 146/146/146
f 146/146/146 151/151/151 147/147/147
f 151/151/151 152/152/152 147/147/147
f 147/147/147 152/152/152 148/148/148
f 152/152/152 153/153/153 148/148/148
f 156/156/156 155/155/155 154/154/154
f 156/156/156 157/157/157 155/155/155
f 157/157/157 158/158/158 155/155/155
f 155/155/155 158/158/158 159/159/159
f 158/158/158 160/160/160 159/159/159
f 158/158/158 161/161/161 160/160/160
f 161/161/161 162/162/162 160/160/160
f 161/161/161 163/163/163 162/162/162
f 164/164/164 161/161/161 158/158/158
f 157/157/157 164/164/164 158/158/158
f 165/165/165 157/157/157 156/156/156
f 166/166/166 165/165/165 156/156/156
f 167/167/167 165/165/165 166/166/166
f 167/167/167 168/168/168 165/165/165
f 165/165/165 169/169/169 157/157/157
f 168/168/168 169/169/169 165/165/165
f 169/169/169 164/164/164 157/157/157
f 170/170/170 163/163/163 161/161/161
f 164/164/164 170/170/170 161/161/161
f 168/168/168 171/171/171 169/169/169
f 172/172/172 171/171/171 168/168/168
f 169/169/169 173/173/173 164/164/164
f 171/171/171 173/173/173 169/169/169
f 173/173/173 170/170/170 164/164/164
f 170/170/170 174/174/174 163/163/163
f 174/174/174 175/175/175 163/163/163
f 171/171/171 176/176/176 173/173/173
f 177/177/177 176/176/176 171/171/171
f 177/177/177 178/178/178 176/176/176
f 173/173/173 179/179/179 170/170/170
f 176/176/176 179/179/179 173/173/173
f 179/179/179 174/174/174 170/170/170
f 178/178/178 180/180/180 176/176/176
f 176/176/176 180/180/180 179/179/179
f 178/178/178 181/181/181 180/180/180
f 174/174/174 182/182/182 175/175/175
f 182/182/182 183/183/183 175/175/175
f 179/179/179 184/184/184 174/174/174
f 180/180/180 184/184/184 179/179/179
f 184/184/184 182/182/182 174/174/174
f 181/181/181 185/185/185 180/180/180
f 180/180/180 185/185/185 184/184/184
f 181/181/181 186/186/186 185/185/185
f 186/186/186 187/187/187 185/185/185
f 185/185/185 188/188/188 184/184/184
f 185/185/185 187/187/187 188/188/188
f 184/184/184 188/188/188 182/182/182
f 187/187/187 189/189/189 188/188/188
f 182/182/182 190/190/190 183/183/183
f 188/188/188 190/190/190 182/182/182
f 188/188/188 189/189/189 190/190/190
f 190/190/190 191/191/191 183/183/183
f 189/189/189 192/192/192 190/190/190
f 190/190/190 192/192/192 191/191/191
f 195/195/195 194/194/194 193/193/193
f 195/195/195 196/196/196 194/194/194
f 197/197/197 196/196/196 195/195/195
f 198/198/198 197/197/197 195/195/195
f 197/197/197 199/199/199 196/196/196
f 199/199/199 200/200/200 196/196/196
f 199/199/199 201/201/201 200/200/200
f 202/202/202 197/197/197 198/198/198
f 203/203/203 199/199/199 197/197/197
f 202/202/202 203/203/203 197/197/197
f 204/204/204 201/201/201 199/199/199
f 203/203/203 204/204/204 199/199/199
f 205/205/205 202/202/202 198/198/198
f 205/205/205 198/198/198 206/206/206
f 207/207/207 205/205/205 206/206/206
f 208/208/208 205/205/205 207/207/207
f 208/208/208 209/209/209 205/205/205
f 209/209/209 202/202/202 205/205/205
f 209/209/209 210/210/210 202/202/202
f 210/210/210 203/203/203 202/202/202
f 210/210/210 211/211/211 203/203/203
f 211/211/211 204/204/204 203/203/203
f 212/212/212 211/211/211 210/210/210
f 212/212/212 213/213/213 211/211/211
f 214/214/214 213/213/213 212/212/212
f 213/213/213 215/215/215 211/211/211
f 211/211/211 215/215/215 204/204/204
f 213/213/213 216/216/216 215/215/215
f 215/215/215 217/217/217 204/204/204
f 204/204/204 217/217/217 201/201/201
f 216/216/216 218/218/218 215/215/215
f 215/215/215 218/218/218 217/217/217
f 216/216/216 219/219/219 218/218/218
f 217/217/217 220/220/220 201/201/201
f 201/201/201 220/220/220 221/221/221
f 217/217/217 222/222/222 220/220/220
f 218/218/218 222/222/222 217/217/217
f 222/222/222 223/223/223 220/220/220
f 219/219/219 224/224/224 218/218/218
f 218/218/218 224/224/224 222/222/222
f 219/219/219 225/225/225 224/224/224
f 225/225/225 226/226/226 224/224/224
f 222/222/222 227/227/227 223/223/223
f 224/224/224 227/227/227 222/222/222
f 224/224/224 226/226/226 227/227/227
f 227/227/227 228/228/228 223/223/223
f 226/226/226 229/229/229 227/227/227
f 227/227/227 229/229/229 228/228/228
f 229/229/229 230/230/230 228/228/228
f 233/233/233 232/232/232 231/231/231
f 232/232/232 234/234/234 231/231/231
f 232/232/232 235/235/235 234/234/234
f 235/235/235 236/236/236 234/234/234
f 234/234/234 236/236/236 237/237/237
f 240/240/240 239/239/239 238/238/238
f 239/239/239 241/241/241 238/238/238
f 239/239/239 242/242/242 241/241/241
f 242/242/242 243/243/243 241/241/241
f 242/242/242 244/244/244 243/243/243
f 244/244/244 245/245/245 243/243/243
f 243/243/243 245/245/245 246/246/246
f 244/244/244 247/247/247 245/245/245
f 247/247/247 248/248/248 245/245/245
f 245/245/245 249/249/249 246/246/246
f 245/245/245 248/248/248 249/249/249
f 248/248/248 250/250/250 249/249/249
f 249/249/249 250/250/250 251/251/251
f 254/254/254 253/253/253 252/252/252
f 255/255/255 253/253/253 254/254/254
f 256/256/256 253/253/253 255/255/255
f 257/257/257 253/253/253 256/256/256
f 258/258/258 253/253/253 257/257/257
f 261/261/261 260/260/260 259/259/259
f 259/259/259 260/260/260 262/262/262
f 262/262/262 260/260/260 263/263/263
f 263/263/263 260/260/260 264/264/264
f 264/264/264 260/260/260 265/265/265
f 265/265/265 260/260/260 266/266/266
f 269/269/269 268/268/268 267/267/267
f 267/267/267 268/268/268 270/270/270
f 270/270/270 268/268/268 271/271/271
f 271/271/271 268/268/268 272/272/272
f 272/272/272 268/268/268 273/273/273
f 276/276/276 275/275/275 274/274/274
f 277/277/277 276/276/276 274/274/274
f 278/278/278 276/276/276 277/277/277
f 279/279/279 278/278/278 277/277/277
f 280/280/280 278/278/278 279/279/279
f 281/281/281 280/280/280 279/279/279
f 282/282/282 280/280/280 281/281/281
f 285/285/285 284/284/284 283/283/283
f 284/284/284 286/286/286 283/283/283
f 283/283/283 286/286/286 287/287/287
f 286/286/286 288/288/288 287/287/287
f 287/287/287 288/288/288 289/289/289
f 292/292/292 291/291/291 290/290/290
f 291/291/291 293/293/293 290/290/290
f 290/290/290 293/293/293 294/294/294
f 293/293/293 295/295/295 294/294/294
f 294/294/294 295/295/295 296/296/296
f 295/295/295 297/297/297 296/296/296
f 296/296/296 297/297/297 298/298/298
f 297/297/297 299/299/299 298/298/298
f 298/298/298 299/299/299 300/300/300
f 303/303/303 302/302/302 301/301/301
f 304/304/304 302/302/302 303/303/303
f 304/304/304 305/305/305 302/302/302
f 305/305/305 306/306/306 302/302/302
f 302/302/302 307/307/307 301/301/301
f 302/302/302 306/306/306 307/307/307
f 301/301/301 307/307/307 308/308/308
f 306/306/306 309/309/309 307/307/307
f 306/306/306 310/310/310 309/309/309
f 310/310/310 311/311/311 309/309/309
f 309/309/309 311/311/311 312/312/312
f 307/307/307 313/313/313 308/308/308
f 307/307/307 309/309/309 313/313/313
f 309/309/309 312/312/312 313/313/313
f 308/308/308 313/313/313 314/314/314
f 313/313/313 312/312/312 315/315/315
f 313/313/313 315/315/315 314/314/314
f 318/318/318 317/317/317 316/316/316
f 316/316/316 317/317/317 319/319/319
f 320/320/320 317/317/317 318/318/318
f 319/319/319 317/317/317 321/321/321
f 322/322/322 317/317/317 320/320/320
f 321/321/321 317/317/317 323/323/323
f 324/324/324 317/317/317 322/322/322
f 325/325/325 317/317/317 324/324/324
f 323/323/323 317/317/317 326/326/326
f 327/327/327 317/317/317 325/325/325
f 326/326/326 317/317/317 328/328/328
f 326/326/326 328/328/328 329/329/329
f 329/329/329 328/328/328 330/330/330
f 328/328/328 331/331/331 330/330/330
f 328/328/328 317/317/317 331/331/331
f 330/330/330 331/331/331 332/332/332
f 331/331/331 333/333/333 332/332/332
f 331/331/331 317/317/317 333/333/333
f 332/332/332 333/333/333 334/334/334
f 333/333/333 335/335/335 334/334/334
f 333/333/333 317/317/317 335/335/335
f 334/334/334 335/335/335 336/336/336
f 337/337/337 317/317/317 327/327/327
f 335/335/335 317/317/317 337/337/337
f 335/335/335 337/337/337 336/336/336
f 337/337/337 327/327/327 338/338/338
f 336/336/336 337/337/337 338/338/338
