mtllib material.mtl
usemtl material_0
v 0.00011954 0.03227890 0.00206955
v 0.00065796 0.04467828 0.00204931
v 0.00198723 0.04265925 0.00245182
v 0.00267473 0.04293026 0.00173975
v 0.00065796 0.04467828 0.00204931
v 0.00131446 0.04404666 0.00014012
v -0.04947414 -0.01217089 0.02028163
v -0.05145058 -0.01194439 0.01002820
v -0.04918871 0.00023386 0.00959275
v -0.04172261 0.00023287 0.02781547
v -0.04431589 -0.01225511 0.02944394
v -0.03187757 -0.00082880 0.03687242
v -0.03441364 -0.01257648 0.03853178
v -0.01340696 0.00198770 0.04455617
v -0.01289965 -0.01226267 0.04753505
v 0.00024388 -0.01214510 0.05086466
v -0.01869534 0.01316678 0.03803440
v -0.03047669 0.01273757 0.03085304
v 0.00049344 0.00057611 0.04818110
v 0.01232520 -0.00064560 0.04705802
v 0.01017875 -0.01240024 0.05001852
v 0.00886046 0.01274865 0.04182903
v -0.00167440 0.01261170 0.04328360
v -0.00637061 0.02472869 0.03638072
v -0.01538028 0.02469294 0.03327069
v 0.00075776 0.02443380 0.03689775
v 0.00270055 0.03293309 0.03026615
v -0.00867038 0.03403685 0.02884258
v -0.00187844 0.02099738 0.00144391
v -0.00171885 0.03117006 0.00153530
v -0.00049049 0.02096839 0.00265951
v 0.00049474 0.02092326 0.00153859
v 0.00032735 0.03140919 0.00083987
v -0.00075591 0.02094948 0.00029782
v -0.00111689 0.03089057 0.00021085
v -0.00187844 0.02099738 0.00144391
v -0.00171885 0.03117006 0.00153530
v 0.00065796 0.04467828 0.00204931
v 0.04918959 -0.03900833 0.00682287
v 0.04552661 -0.04835495 -0.00033755
v 0.04435693 -0.04769637 0.01230918
v 0.04325381 -0.04843840 -0.01363298
v 0.04976295 -0.02900042 -0.01026559
v 0.05096462 -0.02560513 -0.00006053
v 0.04844711 -0.01030433 -0.00839609
v 0.04932601 -0.00877049 -0.00017703
v 0.04450201 -0.02675020 -0.02407192
v 0.04408376 -0.00693696 -0.01854671
v 0.04083697 -0.01281450 -0.02740730
v 0.04235082 -0.03895906 -0.02503890
v 0.03487656 -0.03124586 -0.03558050
v 0.03313622 -0.00987834 -0.03590333
v 0.03526558 -0.04849226 -0.02981919
v 0.03614233 -0.05684252 -0.01771899
v 0.02491770 -0.05626658 -0.03170946
v 0.02218303 -0.04748142 -0.03956657
v 0.01022557 -0.05536456 -0.03924620
v 0.00870006 -0.04060231 -0.04768047
v 0.02547208 -0.02700334 -0.04341384
v 0.02192037 -0.01274008 -0.04499748
v 0.01779748 -0.02763114 -0.04803051
v 0.00986608 -0.02479875 -0.05097187
v 0.00976638 -0.01242701 -0.04983455
v -0.00011655 -0.01226314 -0.05074418
v -0.00312994 -0.04173514 -0.04866840
v -0.00460034 -0.02457184 -0.05206839
v -0.01516762 -0.03636999 -0.04774088
v 0.03227293 -0.03824337 0.03761573
v 0.02486601 -0.02568199 0.04535672
v 0.03999215 -0.02535241 0.03354573
v 0.04511471 -0.03825995 0.02222862
v 0.03348109 -0.04792612 0.02988921
v 0.04910528 -0.02892430 0.01616027
v 0.04932876 -0.01310834 0.00999855
v 0.04577973 -0.00840767 0.02018932
v 0.04127748 -0.00868347 0.02895459
v 0.03531630 -0.00749751 0.03575647
v 0.02496253 -0.01406149 0.04488667
v -0.02313403 0.03355710 0.01941554
v -0.02927572 0.02447082 0.02353117
v -0.03700574 0.01272221 0.02476997
v -0.03482017 0.02412833 0.01441609
v -0.04172501 0.01264949 0.01715100
v -0.04711945 0.00021678 0.01933787
v -0.04372842 0.01244333 0.00853734
v -0.04312328 0.01323649 -0.00389571
v -0.03690068 0.02385270 0.00726776
v -0.03702674 0.02478581 -0.00346322
v -0.02913057 0.03426001 0.00717103
v -0.03031408 0.03413783 -0.00354390
v -0.02650862 0.03345152 -0.01507825
v -0.02139934 0.03923162 -0.00656939
v -0.01670453 0.03827067 -0.01483109
v -0.02190015 0.03995239 0.00283851
v -0.02009950 0.03902863 0.00954263
v -0.01527225 0.03769402 0.01713064
v -0.00561336 0.03774057 0.02295073
v -0.01092666 0.03633955 -0.00927641
v -0.01363668 0.03656802 -0.00437820
v -0.00099893 0.02079902 0.00161230
v -0.00609298 0.03614071 -0.01315449
v -0.00946206 0.03794779 -0.02021075
v -0.00195485 0.03845657 -0.02204016
v -0.01445756 0.03705725 0.00212703
v -0.01282443 0.03647837 0.00724017
v -0.00994287 0.03558517 0.01140045
v -0.00008814 0.03483094 -0.01375356
v -0.00523386 0.03477270 0.01422015
v 0.00520454 0.03548230 -0.01414286
v 0.00047631 0.03567256 0.01634700
v 0.00181895 0.03738985 0.02411979
v 0.01123766 0.03795441 0.02159462
v 0.00707866 0.03642060 0.01462384
v 0.01812534 0.03872566 0.01578613
v 0.01160474 0.03684246 0.01091376
v 0.02177253 0.03915658 0.00823479
v 0.01444144 0.03731272 0.00537547
v 0.02256506 0.03894607 -0.00093959
v 0.00663531 0.03797430 -0.02126629
v -0.00333309 0.03357697 -0.02895001
v 0.00657886 0.03376469 -0.02794149
v 0.01459906 0.03722679 -0.00034917
v 0.01019626 0.03560951 -0.01007916
v 0.01968368 0.03878320 -0.01006158
v 0.02537334 0.03423427 -0.01403745
v 0.02012241 0.03352386 -0.02055249
v 0.01564237 0.03776125 -0.01525838
v 0.01307729 0.03674176 -0.00613253
v -0.03931054 -0.05177175 0.01256070
v -0.03373985 -0.05197562 0.02059501
v -0.02737344 -0.05639407 0.01639863
v -0.03292612 -0.05815955 -0.00295612
v -0.04068165 -0.05386164 -0.00613088
v -0.03379148 -0.05471407 -0.02409052
v -0.01974241 -0.05614413 0.00990443
v -0.01006262 -0.05585672 0.01970863
v -0.01490352 -0.05577571 0.02713338
v -0.00062555 -0.05121408 -0.00036680
v 0.00085011 -0.05632257 0.02151048
v 0.00209098 -0.05665752 0.03086695
v -0.02170719 -0.05769161 -0.00624123
v 0.01718660 -0.05691728 0.01081974
v -0.02911266 -0.05934440 -0.01584881
v -0.02121495 -0.05976131 -0.02542961
v 0.01866443 -0.05809097 0.02462558
v 0.01069766 -0.05395417 0.03580539
v 0.02133981 -0.05499745 0.03096428
v 0.03386879 -0.05470242 0.01748568
v -0.01054586 -0.05826579 -0.01976817
v -0.02088497 -0.05500492 -0.03635753
v -0.03374064 -0.03968951 -0.03550638
v -0.02204582 -0.04725565 -0.04098575
v -0.01224674 -0.05943055 -0.03074867
v -0.00604568 -0.05485104 -0.04063757
v 0.00075974 -0.05928719 -0.03262687
v 0.00006632 -0.05820563 -0.02242070
v 0.01381302 -0.05971140 -0.02896526
v 0.01098533 -0.05837951 -0.01788917
v 0.02552869 -0.06012047 -0.01915638
v 0.02158045 -0.05840262 -0.00331387
v 0.03170248 -0.05983125 -0.00294248
v 0.03923049 -0.05643500 0.00047476
v 0.02785922 -0.05803616 0.01148640
v -0.00931824 -0.00544814 -0.04798022
v -0.00011655 -0.01226314 -0.05074418
v -0.00004790 0.00450894 -0.04530265
v -0.00773539 0.02198537 -0.03595626
v -0.01838909 0.00347693 -0.04141289
v -0.01790838 -0.01887604 -0.04776752
v -0.02701479 -0.02020680 -0.04257182
v -0.00005807 0.02384372 -0.03566876
v -0.02957232 -0.00015485 -0.03616329
v -0.03653998 -0.01641730 -0.03466003
v -0.04203156 -0.01196140 -0.02814892
v -0.03850535 0.00324864 -0.02604898
v -0.04693004 -0.01186905 -0.01954160
v -0.02588874 0.01083013 -0.03293318
v -0.02195380 0.02256410 -0.02859733
v -0.01372649 0.02329256 -0.03291173
v -0.01363088 0.03259517 -0.02599965
v 0.00936940 0.02410644 -0.03418218
v 0.02478794 0.02422054 -0.02546360
v -0.03056311 0.02333591 -0.02031076
v -0.03568280 0.02175189 -0.01475622
v -0.04463277 0.00014738 -0.01855086
v -0.05070748 -0.01180860 -0.00659800
v -0.04872268 -0.00017789 -0.00583718
v 0.00890488 0.00610338 -0.04367715
v 0.00976638 -0.01242701 -0.04983455
v 0.02192037 -0.01274008 -0.04499748
v 0.01566301 0.01252570 -0.03788088
v 0.02056879 -0.00171685 -0.04204221
v 0.03313622 -0.00987834 -0.03590333
v 0.02862362 0.01284408 -0.02986523
v 0.03565359 0.01212177 -0.02307754
v 0.04083697 -0.01281450 -0.02740730
v 0.04408376 -0.00693696 -0.01854671
v 0.03170610 0.02475969 -0.01724434
v 0.04035077 0.01323394 -0.01246356
v 0.04844711 -0.01030433 -0.00839609
v 0.04932601 -0.00877049 -0.00017703
v 0.04266670 0.01266606 0.00054512
v 0.03586336 0.02491154 -0.00375431
v 0.03607056 0.02413180 0.00797331
v 0.02916585 0.03394878 -0.00334326
v 0.02843611 0.03379884 0.01076726
v 0.02476189 0.03355387 0.01851127
v 0.03188016 0.02562706 0.01711782
v 0.01635693 0.03304655 0.02593600
v 0.02265725 0.02263066 0.03036132
v 0.01088060 0.02374254 0.03524166
v 0.02276222 0.01296261 0.03662033
v 0.03359171 0.01109512 0.02833525
v 0.03974215 0.01216107 0.01705297
v 0.04328189 0.01053480 0.00879780
v 0.04932876 -0.01310834 0.00999855
v 0.04577973 -0.00840767 0.02018932
v 0.04127748 -0.00868347 0.02895459
v 0.03531630 -0.00749751 0.03575647
v 0.02675758 -0.00024230 0.03986175
v 0.02496253 -0.01406149 0.04488667
v 0.01043240 -0.02626636 0.04959042
v 0.01017875 -0.01240024 0.05001852
v 0.02075024 -0.04625859 0.03979344
v -0.00006044 -0.02589026 0.04976553
v 0.00024388 -0.01214510 0.05086466
v -0.01289965 -0.01226267 0.04753505
v 0.00282877 -0.04547576 0.04261381
v -0.00355983 -0.05200775 0.03668974
v -0.01249737 -0.04207570 0.04168184
v -0.02014154 -0.05211151 0.03049518
v -0.01561118 -0.02488602 0.04617942
v -0.03478902 -0.02443581 0.03836079
v -0.03441364 -0.01257648 0.03853178
v -0.02355139 -0.03844260 0.03828115
v -0.04353695 -0.02403500 0.02952201
v -0.04431589 -0.01225511 0.02944394
v -0.04827508 -0.02500595 0.02091799
v -0.04947414 -0.01217089 0.02028163
v -0.05145058 -0.01194439 0.01002820
v -0.04643731 -0.04346409 0.00682085
v -0.04578767 -0.04602442 -0.00451616
v -0.00931824 -0.00544814 -0.04798022
v -0.01790838 -0.01887604 -0.04776752
v -0.02701479 -0.02020680 -0.04257182
v -0.02795118 -0.03540611 -0.04159307
v -0.03653998 -0.01641730 -0.03466003
v -0.04172796 -0.02845535 -0.02828580
v -0.04203156 -0.01196140 -0.02814892
v -0.04113199 -0.04497088 -0.02090697
v -0.04616815 -0.02918799 -0.01989974
v -0.04693004 -0.01186905 -0.01954160
v -0.04888188 -0.03227820 -0.00984934
v -0.05070748 -0.01180860 -0.00659800
v -0.05144251 -0.02714948 0.00507305
vn 0.96486040 -0.12506710 0.23109040
vn -0.42923160 0.82061870 0.37728660
vn 0.41944840 0.14023340 0.89688220
vn 0.97249570 0.23249560 0.01406933
vn -0.42923160 0.82061870 0.37728660
vn 0.04098704 0.58553760 -0.80960850
vn -0.89971560 -0.27522500 0.33876680
vn -0.96030050 -0.26610070 0.08374594
vn -0.99536450 -0.05142384 0.08127107
vn -0.76569580 -0.03216711 0.64239820
vn -0.75520040 -0.24885440 0.60641880
vn -0.53722460 -0.04681589 0.84213900
vn -0.52325340 -0.23112250 0.82023670
vn -0.29682610 -0.03045763 0.95444570
vn -0.28410480 -0.23338140 0.92995570
vn -0.05920716 -0.22919870 0.97157740
vn -0.39245050 0.14487630 0.90829150
vn -0.58129370 0.16471070 0.79684880
vn -0.02111916 -0.00833153 0.99974220
vn 0.28477440 0.01229938 0.95851560
vn 0.20585000 -0.21341850 0.95502790
vn 0.24009270 0.21622700 0.94636230
vn -0.03592133 0.18122430 0.98278550
vn -0.13245450 0.39373170 0.90963250
vn -0.37748740 0.39073270 0.83954230
vn 0.08981911 0.42950220 0.89858790
vn 0.11072450 0.70487700 0.70063450
vn -0.17170020 0.73721840 0.65347390
vn -0.99723600 -0.04556473 0.05868788
vn -0.94008980 0.13013490 0.31511300
vn 0.08115095 -0.00128165 0.99670090
vn 0.99910780 -0.03897305 -0.01626674
vn 0.88075770 -0.11746900 -0.45876670
vn 0.01068170 -0.08054017 -0.99669410
vn -0.40571940 0.04321474 -0.91297550
vn -0.99723600 -0.04556473 0.05868788
vn -0.94008980 0.13013490 0.31511300
vn -0.42923160 0.82061870 0.37728660
vn 0.88920650 -0.45168370 0.07275777
vn 0.82081990 -0.57031650 -0.03152647
vn 0.74128620 -0.62482400 0.24513210
vn 0.80824850 -0.54663520 -0.21891640
vn 0.91628280 -0.34013830 -0.21149910
vn 0.95481400 -0.29700980 -0.01074260
vn 0.96400170 -0.15070260 -0.21906490
vn 0.99161120 -0.12778150 -0.01947086
vn 0.83525070 -0.29228290 -0.46575420
vn 0.91162370 -0.12891530 -0.39028600
vn 0.81721950 -0.18104150 -0.54715280
vn 0.78563880 -0.42886330 -0.44592360
vn 0.64643320 -0.35497220 -0.67536560
vn 0.68181840 -0.14560480 -0.71688430
vn 0.63824710 -0.54052490 -0.54815450
vn 0.58303730 -0.77597920 -0.24067360
vn 0.39754510 -0.76835540 -0.50158550
vn 0.42461460 -0.52456530 -0.73792530
vn 0.19810260 -0.74507460 -0.63688240
vn 0.20817040 -0.50573120 -0.83719830
vn 0.54511340 -0.34639950 -0.76345180
vn 0.48721190 -0.16526270 -0.85750390
vn 0.39686650 -0.37062050 -0.83972470
vn 0.21277910 -0.33311600 -0.91856340
vn 0.23146100 -0.14356460 -0.96219280
vn -0.00115974 -0.14386930 -0.98959610
vn -0.02414100 -0.52365530 -0.85158810
vn -0.08966597 -0.32213230 -0.94243880
vn -0.28560200 -0.42962390 -0.85665330
vn 0.55080870 -0.48485690 0.67935530
vn 0.43575590 -0.35017930 0.82915090
vn 0.73191480 -0.30403350 0.60980700
vn 0.78129270 -0.47173600 0.40871380
vn 0.56673970 -0.64810350 0.50869240
vn 0.90887370 -0.31093370 0.27797260
vn 0.96884580 -0.17396190 0.17628140
vn 0.91474840 -0.10663360 0.38969820
vn 0.82859120 -0.10007180 0.55083780
vn 0.68542710 -0.08221820 0.72348440
vn 0.47890190 -0.18454740 0.85825130
vn -0.45250860 0.74961330 0.48302780
vn -0.63819660 0.44247410 0.63001730
vn -0.76105290 0.18515900 0.62170300
vn -0.81993170 0.44979360 0.35411540
vn -0.90657680 0.20921010 0.36653720
vn -0.92981650 -0.04229901 0.36558480
vn -0.97784440 0.18387990 0.10004290
vn -0.97705670 0.15588960 -0.14511650
vn -0.90983650 0.39500920 0.12714270
vn -0.91782870 0.38054150 -0.11304250
vn -0.65933950 0.72358260 0.20420470
vn -0.70129780 0.70444120 -0.10928890
vn -0.58627520 0.67676470 -0.44527630
vn -0.13153550 0.98593630 -0.10309220
vn -0.09625806 0.97481890 -0.20115320
vn -0.12842390 0.99040260 0.05108864
vn -0.08017296 0.98264530 0.16727350
vn -0.03293002 0.98182720 0.18689830
vn 0.00241102 0.98265930 0.18540440
vn 0.32438710 0.91981430 0.22071370
vn 0.41530260 0.90464440 0.09561591
vn 0.04461916 0.99871230 -0.02414090
vn 0.20542640 0.92925600 0.30705600
vn -0.09100775 0.97215320 -0.21595280
vn 0.01083418 0.98307190 -0.18289940
vn 0.43751870 0.89917790 -0.00750779
vn 0.42943410 0.89945860 -0.08099780
vn 0.33995890 0.91696440 -0.20881590
vn 0.09512884 0.90987370 0.40383200
vn 0.17758980 0.91801010 -0.35456930
vn -0.10611540 0.94096930 0.32142850
vn -0.04010261 0.94427300 -0.32671130
vn 0.03851494 0.96681050 0.25257490
vn 0.07135350 0.96131910 0.26603420
vn -0.20445130 0.93970040 -0.27415830
vn 0.14991010 0.96879980 0.19736720
vn -0.29805390 0.93569880 -0.18876360
vn 0.22242100 0.97272570 0.06582889
vn -0.33320550 0.93873130 -0.08807773
vn 0.24113080 0.96989480 -0.03405939
vn 0.10782320 0.97819110 -0.17752850
vn -0.07639035 0.68314860 -0.72627290
vn 0.22221400 0.69127150 -0.68757880
vn -0.34538110 0.93845250 0.00433351
vn -0.27357630 0.93951050 0.20609760
vn 0.16108080 0.97683060 -0.14090770
vn 0.59797380 0.71651240 -0.35921770
vn 0.44531310 0.70439480 -0.55274250
vn 0.10977530 0.98046960 -0.16318290
vn -0.33107200 0.94044850 0.07712182
vn -0.60678070 -0.74103420 0.28755100
vn -0.48327280 -0.73481270 0.47591770
vn -0.13147830 -0.96621880 0.22166370
vn -0.19861870 -0.97682700 0.07974675
vn -0.64816950 -0.75880190 -0.06399890
vn -0.56059870 -0.73589830 -0.37971400
vn 0.23185500 -0.97274090 0.00430338
vn 0.10260350 -0.98785630 -0.11667240
vn -0.08215649 -0.95380270 0.28898230
vn 0.02816886 -0.99772100 0.06131246
vn -0.03140442 -0.98742350 -0.15494660
vn -0.02487343 -0.95825250 0.28483900
vn 0.25172560 -0.95602630 0.15049230
vn -0.15558520 -0.98545410 -0.06836209
vn -0.16205590 -0.98612980 -0.03585966
vn -0.07330556 -0.98724450 -0.14133130
vn 0.13193550 -0.97884990 0.15635120
vn 0.11630730 -0.78631790 0.60677570
vn 0.32597520 -0.81483110 0.47936460
vn 0.49673570 -0.81618340 0.29512390
vn 0.18775330 -0.95570480 0.22666540
vn -0.30238910 -0.74236090 -0.59788050
vn -0.63462850 -0.46097100 -0.62028410
vn -0.37245710 -0.55560340 -0.74335770
vn 0.01779243 -0.98133030 -0.19150500
vn -0.02938994 -0.74228690 -0.66943730
vn 0.05847543 -0.97906680 -0.19495870
vn 0.03509704 -0.96800700 0.24845670
vn 0.09946270 -0.98272450 -0.15607600
vn -0.12119010 -0.96964290 0.21238040
vn 0.15192200 -0.98471550 -0.08517747
vn -0.19925690 -0.97479920 0.10031530
vn 0.18924990 -0.97991230 0.06290036
vn 0.59485440 -0.80043330 0.07385717
vn 0.16068220 -0.97797910 0.13318480
vn -0.23417550 -0.05441629 -0.97067020
vn -0.00115974 -0.14386930 -0.98959610
vn -0.01855550 0.08108860 -0.99653410
vn -0.22055920 0.29432290 -0.92990730
vn -0.41274270 0.04410020 -0.90977950
vn -0.38161020 -0.22678720 -0.89606980
vn -0.53119710 -0.24586760 -0.81078890
vn 0.02465949 0.33793860 -0.94084500
vn -0.60225870 -0.03170921 -0.79767090
vn -0.66471060 -0.23417480 -0.70945180
vn -0.77725980 -0.20096820 -0.59622060
vn -0.77136620 0.03375384 -0.63549580
vn -0.88918510 -0.23680080 -0.39150390
vn -0.58688280 0.15457930 -0.79477910
vn -0.55572650 0.31984240 -0.76737800
vn -0.38527680 0.33238660 -0.86086060
vn -0.34603250 0.66212500 -0.66471950
vn 0.29228390 0.35994520 -0.88600770
vn 0.58252070 0.37972020 -0.71866700
vn -0.70298260 0.30607840 -0.64197460
vn -0.86504020 0.28178500 -0.41509360
vn -0.90962460 -0.02807773 -0.41448120
vn -0.95264770 -0.25275760 -0.16904420
vn -0.98369450 -0.04645022 -0.17374570
vn 0.23508630 0.08407915 -0.96833110
vn 0.23146100 -0.14356460 -0.96219280
vn 0.48721190 -0.16526270 -0.85750390
vn 0.43340510 0.16608610 -0.88576260
vn 0.48033450 -0.00357084 -0.87707810
vn 0.68181840 -0.14560480 -0.71688430
vn 0.62961800 0.13303450 -0.76542990
vn 0.81748100 0.07980701 -0.57039950
vn 0.81721950 -0.18104150 -0.54715280
vn 0.91162370 -0.12891530 -0.39028600
vn 0.79871060 0.39018430 -0.45805850
vn 0.95136750 0.10770140 -0.28861780
vn 0.96400170 -0.15070260 -0.21906490
vn 0.99161120 -0.12778150 -0.01947086
vn 0.99184910 0.12406120 -0.02905446
vn 0.90688070 0.40959940 -0.09897412
vn 0.90010700 0.39620220 0.18119330
vn 0.70355760 0.70450360 -0.09317502
vn 0.68917670 0.69128270 0.21717210
vn 0.56634670 0.66464940 0.48733210
vn 0.79566260 0.38359420 0.46880330
vn 0.34816400 0.67478140 0.65073190
vn 0.54239110 0.38958040 0.74433800
vn 0.28120150 0.41481350 0.86536440
vn 0.50131340 0.20057440 0.84169760
vn 0.75163660 0.16901760 0.63755430
vn 0.89052390 0.15335980 0.42830840
vn 0.97396480 0.10822170 0.19919990
vn 0.96884580 -0.17396190 0.17628140
vn 0.91474840 -0.10663360 0.38969820
vn 0.82859120 -0.10007180 0.55083780
vn 0.68542710 -0.08221820 0.72348440
vn 0.55163900 0.02087544 0.83382180
vn 0.47890190 -0.18454740 0.85825130
vn 0.16822140 -0.40819330 0.89726250
vn 0.20585000 -0.21341850 0.95502790
vn 0.30406550 -0.59805940 0.74153170
vn -0.07361157 -0.42134370 0.90390870
vn -0.05920716 -0.22919870 0.97157740
vn -0.28410480 -0.23338140 0.92995570
vn 0.00274673 -0.59130970 0.80643990
vn -0.11456980 -0.74140730 0.66120270
vn -0.23243240 -0.56795780 0.78955630
vn -0.30604740 -0.74103870 0.59765930
vn -0.27827000 -0.40043650 0.87305000
vn -0.49581370 -0.43605710 0.75101460
vn -0.52325340 -0.23112250 0.82023670
vn -0.38619560 -0.55676980 0.73543200
vn -0.69566320 -0.45349020 0.55713490
vn -0.75520040 -0.24885440 0.60641880
vn -0.82041190 -0.45427530 0.34721480
vn -0.89971560 -0.27522500 0.33876680
vn -0.96030050 -0.26610070 0.08374594
vn -0.81059460 -0.55703950 0.18067480
vn -0.81962790 -0.56549320 -0.09180214
vn -0.23417550 -0.05441629 -0.97067020
vn -0.38161020 -0.22678720 -0.89606980
vn -0.53119710 -0.24586760 -0.81078890
vn -0.51159840 -0.38063940 -0.77031210
vn -0.66471060 -0.23417480 -0.70945180
vn -0.75861220 -0.36912800 -0.53689110
vn -0.77725980 -0.20096820 -0.59622060
vn -0.76983630 -0.51686630 -0.37443490
vn -0.84721470 -0.38823560 -0.36262980
vn -0.88918510 -0.23680080 -0.39150390
vn -0.88649300 -0.41539770 -0.20389910
vn -0.95264770 -0.25275760 -0.16904420
vn -0.91452490 -0.40245080 0.04095623
vt 0.09798270 0.83513770
vt 0.09682954 0.90843390
vt 0.10798720 0.89651740
vt 0.11651260 0.89974450
vt 0.12777180 0.91485180
vt 0.13400030 0.89960240
vt 0.99017800 0.64366150
vt 0.98738920 0.56345310
vt 0.90227560 0.57412790
vt 0.88955800 0.69301840
vt 0.97009900 0.72134010
vt 0.85987870 0.76889990
vt 0.92456350 0.80884900
vt 0.76511920 0.84083030
vt 0.80953280 0.92523300
vt 0.71725350 0.96378590
vt 0.76382950 0.77049540
vt 0.81004770 0.71546510
vt 0.69122420 0.88730050
vt 0.61919880 0.90732340
vt 0.64617830 0.98302950
vt 0.62658270 0.83576890
vt 0.68476870 0.82426150
vt 0.69022460 0.76419580
vt 0.72826370 0.73622950
vt 0.65661710 0.77771650
vt 0.63528660 0.74317900
vt 0.68680890 0.71954570
vt 0.08132511 0.77129190
vt 0.07984205 0.82968360
vt 0.09482507 0.77128030
vt 0.10457820 0.77142850
vt 0.10830980 0.82923490
vt 0.11554760 0.77179400
vt 0.12013110 0.82381330
vt 0.12643110 0.77128030
vt 0.13126270 0.82304560
vt 0.15168870 0.89751100
vt 0.29593070 0.15884170
vt 0.26937460 0.15837950
vt 0.27970050 0.17796710
vt 0.25487120 0.13946720
vt 0.29638400 0.11159650
vt 0.31970540 0.12745610
vt 0.34235800 0.07509788
vt 0.36517280 0.09674973
vt 0.27090580 0.08304191
vt 0.31802530 0.04049971
vt 0.27904640 0.03823314
vt 0.25106940 0.10853570
vt 0.23123270 0.07970509
vt 0.24353390 0.01568290
vt 0.22795770 0.12295150
vt 0.23451490 0.14824050
vt 0.20932740 0.13816260
vt 0.19962620 0.11738040
vt 0.18369840 0.13869860
vt 0.16756270 0.10593120
vt 0.20234400 0.06368203
vt 0.19104500 0.01900453
vt 0.17938860 0.06608620
vt 0.15546350 0.06336316
vt 0.14535090 0.02488270
vt 0.11176020 0.03659042
vt 0.14694050 0.11882260
vt 0.11906460 0.07958131
vt 0.11898790 0.12448550
vt 0.30031980 0.23257770
vt 0.32098310 0.27011970
vt 0.34029500 0.22102610
vt 0.30606650 0.19086320
vt 0.27925500 0.21460320
vt 0.32804680 0.17036640
vt 0.37090970 0.13793770
vt 0.39631020 0.17396300
vt 0.39508370 0.21095260
vt 0.39455780 0.24542720
vt 0.35600470 0.28889350
vt 0.73875090 0.65779180
vt 0.77579840 0.67113520
vt 0.82831480 0.67249930
vt 0.78867910 0.62194210
vt 0.83850660 0.62742680
vt 0.90098440 0.63416020
vt 0.83791630 0.58129000
vt 0.81884060 0.51883300
vt 0.78846530 0.58570550
vt 0.77234660 0.53694590
vt 0.74753050 0.59545730
vt 0.73666780 0.54715410
vt 0.70572610 0.50085810
vt 0.69519500 0.54396340
vt 0.66249960 0.51253280
vt 0.71104620 0.58446360
vt 0.71208150 0.61672230
vt 0.70014130 0.65771010
vt 0.66367140 0.69762070
vt 0.64159140 0.54648150
vt 0.66032400 0.56478920
vt 0.60709660 0.60789720
vt 0.61430860 0.53524360
vt 0.62127980 0.49617890
vt 0.58301430 0.49724000
vt 0.67335500 0.59192880
vt 0.67254100 0.61644200
vt 0.66421070 0.63824900
vt 0.58599910 0.54220890
vt 0.64593470 0.65632190
vt 0.56078910 0.54657350
vt 0.62338100 0.67423700
vt 0.62977430 0.71306470
vt 0.58073710 0.71384130
vt 0.59030570 0.67613920
vt 0.54003430 0.69669490
vt 0.56400620 0.66587360
vt 0.51188620 0.66858660
vt 0.54267080 0.64550800
vt 0.49423900 0.62874160
vt 0.54304330 0.51252160
vt 0.58059450 0.46435600
vt 0.53473450 0.48177550
vt 0.53362120 0.62041900
vt 0.54254880 0.57137670
vt 0.49443820 0.58331560
vt 0.46351470 0.57245000
vt 0.47902550 0.53454070
vt 0.50703890 0.55316170
vt 0.53308490 0.59255830
vt 0.15434560 0.24905660
vt 0.16930950 0.25684060
vt 0.17631040 0.24262310
vt 0.15514500 0.21984060
vt 0.13971160 0.22253660
vt 0.13604280 0.19325200
vt 0.18211570 0.22805140
vt 0.20287310 0.23413730
vt 0.20198890 0.24826630
vt 0.20029970 0.20044310
vt 0.21907340 0.22782220
vt 0.22820500 0.23931180
vt 0.16767010 0.20785030
vt 0.23193530 0.20073150
vt 0.15149540 0.20060980
vt 0.15472020 0.18318790
vt 0.24461820 0.21740690
vt 0.24527990 0.24045000
vt 0.25516190 0.22443070
vt 0.26151290 0.19582710
vt 0.17237840 0.18250750
vt 0.14451120 0.16759080
vt 0.10308500 0.17125630
vt 0.12967770 0.15628080
vt 0.16200770 0.16995120
vt 0.16023110 0.14968570
vt 0.17717320 0.15757040
vt 0.18412390 0.17113830
vt 0.19680550 0.15244280
vt 0.20161310 0.16859730
vt 0.21890970 0.15621810
vt 0.22615340 0.17895460
vt 0.23887940 0.17156950
vt 0.25303750 0.16910290
vt 0.24627840 0.19286460
vt 0.57477850 0.26202760
vt 0.49078570 0.23684370
vt 0.52765320 0.33877590
vt 0.59149320 0.41461270
vt 0.64217760 0.32901550
vt 0.66107140 0.17903990
vt 0.73290970 0.19396030
vt 0.55312910 0.42898200
vt 0.72159080 0.33266400
vt 0.80455510 0.25293470
vt 0.84521900 0.31067260
vt 0.78196770 0.38934790
vt 0.89586630 0.36404150
vt 0.69349270 0.38428460
vt 0.67221000 0.43290740
vt 0.62611710 0.42258640
vt 0.63352580 0.46421380
vt 0.50781150 0.44992990
vt 0.44374600 0.51449750
vt 0.72246090 0.46363630
vt 0.75511130 0.48405170
vt 0.83513960 0.41520940
vt 0.95071980 0.44572940
vt 0.87929130 0.48337800
vt 0.47886800 0.36900410
vt 0.42376920 0.26474000
vt 0.34454440 0.32446700
vt 0.45729120 0.42363550
vt 0.39354930 0.37820940
vt 0.28852410 0.42105040
vt 0.40270520 0.48867120
vt 0.37597150 0.53724830
vt 0.24113880 0.49146530
vt 0.25936320 0.56581770
vt 0.42377880 0.56570760
vt 0.37144250 0.59995010
vt 0.23827720 0.64686700
vt 0.26151780 0.70000060
vt 0.37869130 0.67006420
vt 0.42351330 0.63478820
vt 0.44009970 0.69021820
vt 0.46053670 0.62648400
vt 0.48599200 0.68804720
vt 0.51467880 0.71688650
vt 0.47547130 0.72639140
vt 0.56364140 0.74076900
vt 0.53764640 0.77964350
vt 0.60404810 0.78635980
vt 0.54346600 0.82764670
vt 0.47026090 0.80417230
vt 0.42055620 0.75250690
vt 0.38607200 0.71560110
vt 0.26499560 0.77749010
vt 0.33042390 0.82955430
vt 0.37627260 0.88376780
vt 0.43700830 0.91578710
vt 0.51625750 0.89317790
vt 0.52819930 0.99065170
vt 0.29314300 0.30079450
vt 0.32264630 0.33613080
vt 0.27104540 0.24302810
vt 0.27005390 0.31767960
vt 0.29380610 0.35705510
vt 0.24804110 0.37501860
vt 0.24634540 0.26623650
vt 0.22696640 0.25577350
vt 0.22169110 0.28529240
vt 0.19738830 0.26046430
vt 0.22894670 0.33494630
vt 0.17074080 0.33920910
vt 0.16487730 0.38034080
vt 0.19862290 0.29740490
vt 0.13799690 0.33101300
vt 0.11855510 0.36781120
vt 0.11666520 0.31490740
vt 0.08712872 0.34916620
vt 0.05907784 0.32424060
vt 0.13007520 0.25471540
vt 0.12411960 0.23350090
vt 0.06894967 0.03448188
vt 0.07318714 0.09341785
vt 0.05745954 0.12509470
vt 0.09872808 0.14971750
vt 0.03134280 0.16021450
vt 0.06822099 0.19062450
vt 0.01238003 0.18907560
vt 0.11399160 0.20412040
vt 0.07204646 0.21488890
vt 0.01390193 0.22428310
vt 0.08732537 0.23793260
vt 0.02607214 0.27157260
vt 0.09091780 0.27832900
f 3/3/3 2/2/2 1/1/1
f 6/6/6 5/5/5 4/4/4
f 3/3/3 1/1/1 4/4/4
f 4/4/4 2/2/2 3/3/3
f 9/9/9 8/8/8 7/7/7
f 11/11/11 10/10/10 7/7/7
f 10/10/10 11/11/11 12/12/12
f 11/11/11 13/13/13 12/12/12
f 12/12/12 13/13/13 14/14/14
f 13/13/13 15/15/15 14/14/14
f 14/14/14 15/15/15 16/16/16
f 17/17/17 12/12/12 14/14/14
f 18/18/18 12/12/12 17/17/17
f 19/19/19 14/14/14 16/16/16
f 20/20/20 19/19/19 16/16/16
f 21/21/21 20/20/20 16/16/16
f 20/20/20 22/22/22 19/19/19
f 14/14/14 19/19/19 23/23/23
f 17/17/17 14/14/14 23/23/23
f 23/23/23 24/24/24 17/17/17
f 24/24/24 25/25/25 17/17/17
f 26/26/26 24/24/24 23/23/23
f 26/26/26 27/27/27 24/24/24
f 27/27/27 28/28/28 24/24/24
f 31/31/31 30/30/30 29/29/29
f 31/31/31 2/2/2 30/30/30
f 34/34/34 33/33/33 32/32/32
f 34/34/34 35/35/35 33/33/33
f 33/33/33 35/35/35 6/6/6
f 6/6/6 4/4/4 33/33/33
f 1/1/1 2/2/2 31/31/31
f 32/32/32 1/1/1 31/31/31
f 32/32/32 33/33/33 1/1/1
f 1/1/1 33/33/33 4/4/4
f 35/35/35 34/34/34 36/36/36
f 37/37/37 35/35/35 36/36/36
f 6/6/6 35/35/35 37/37/37
f 38/38/38 6/6/6 37/37/37
f 41/41/41 40/40/40 39/39/39
f 39/39/39 40/40/40 42/42/42
f 43/43/43 39/39/39 42/42/42
f 44/44/44 39/39/39 43/43/43
f 43/43/43 45/45/45 44/44/44
f 45/45/45 46/46/46 44/44/44
f 45/45/45 43/43/43 47/47/47
f 48/48/48 45/45/45 47/47/47
f 47/47/47 49/49/49 48/48/48
f 43/43/43 42/42/42 50/50/50
f 50/50/50 47/47/47 43/43/43
f 49/49/49 47/47/47 51/51/51
f 50/50/50 51/51/51 47/47/47
f 52/52/52 49/49/49 51/51/51
f 42/42/42 53/53/53 50/50/50
f 51/51/51 50/50/50 53/53/53
f 53/53/53 42/42/42 54/54/54
f 55/55/55 53/53/53 54/54/54
f 53/53/53 55/55/55 56/56/56
f 51/51/51 53/53/53 56/56/56
f 57/57/57 56/56/56 55/55/55
f 56/56/56 57/57/57 58/58/58
f 51/51/51 59/59/59 52/52/52
f 59/59/59 51/51/51 56/56/56
f 59/59/59 60/60/60 52/52/52
f 56/56/56 61/61/61 59/59/59
f 56/56/56 58/58/58 61/61/61
f 59/59/59 61/61/61 60/60/60
f 62/62/62 61/61/61 58/58/58
f 61/61/61 62/62/62 60/60/60
f 62/62/62 63/63/63 60/60/60
f 64/64/64 63/63/63 62/62/62
f 58/58/58 65/65/65 62/62/62
f 66/66/66 64/64/64 62/62/62
f 65/65/65 66/66/66 62/62/62
f 65/65/65 67/67/67 66/66/66
f 70/70/70 69/69/69 68/68/68
f 68/68/68 71/71/71 70/70/70
f 71/71/71 68/68/68 72/72/72
f 71/71/71 72/72/72 41/41/41
f 71/71/71 41/41/41 39/39/39
f 73/73/73 71/71/71 39/39/39
f 73/73/73 70/70/70 71/71/71
f 44/44/44 73/73/73 39/39/39
f 73/73/73 44/44/44 74/74/74
f 44/44/44 46/46/46 74/74/74
f 74/74/74 75/75/75 73/73/73
f 73/73/73 75/75/75 70/70/70
f 75/75/75 76/76/76 70/70/70
f 77/77/77 70/70/70 76/76/76
f 77/77/77 78/78/78 70/70/70
f 25/25/25 24/24/24 28/28/28
f 28/28/28 79/79/79 25/25/25
f 79/79/79 80/80/80 25/25/25
f 25/25/25 80/80/80 18/18/18
f 17/17/17 25/25/25 18/18/18
f 81/81/81 18/18/18 80/80/80
f 80/80/80 79/79/79 82/82/82
f 81/81/81 80/80/80 82/82/82
f 18/18/18 81/81/81 10/10/10
f 12/12/12 18/18/18 10/10/10
f 10/10/10 81/81/81 83/83/83
f 83/83/83 81/81/81 82/82/82
f 84/84/84 10/10/10 83/83/83
f 10/10/10 84/84/84 7/7/7
f 84/84/84 9/9/9 7/7/7
f 84/84/84 83/83/83 9/9/9
f 83/83/83 85/85/85 9/9/9
f 85/85/85 83/83/83 82/82/82
f 85/85/85 86/86/86 9/9/9
f 85/85/85 87/87/87 86/86/86
f 87/87/87 85/85/85 82/82/82
f 87/87/87 88/88/88 86/86/86
f 87/87/87 82/82/82 89/89/89
f 87/87/87 89/89/89 88/88/88
f 79/79/79 89/89/89 82/82/82
f 89/89/89 90/90/90 88/88/88
f 88/88/88 90/90/90 91/91/91
f 91/91/91 90/90/90 92/92/92
f 91/91/91 92/92/92 93/93/93
f 90/90/90 89/89/89 94/94/94
f 90/90/90 94/94/94 92/92/92
f 89/89/89 79/79/79 95/95/95
f 89/89/89 95/95/95 94/94/94
f 79/79/79 96/96/96 95/95/95
f 79/79/79 28/28/28 96/96/96
f 28/28/28 97/97/97 96/96/96
f 97/97/97 28/28/28 27/27/27
f 98/98/98 93/93/93 92/92/92
f 99/99/99 92/92/92 94/94/94
f 99/99/99 98/98/98 92/92/92
f 100/100/100 98/98/98 99/99/99
f 98/98/98 101/101/101 93/93/93
f 100/100/100 101/101/101 98/98/98
f 101/101/101 102/102/102 93/93/93
f 103/103/103 102/102/102 101/101/101
f 104/104/104 99/99/99 94/94/94
f 104/104/104 94/94/94 95/95/95
f 100/100/100 99/99/99 104/104/104
f 105/105/105 104/104/104 95/95/95
f 105/105/105 95/95/95 96/96/96
f 100/100/100 104/104/104 105/105/105
f 106/106/106 105/105/105 96/96/96
f 106/106/106 96/96/96 97/97/97
f 100/100/100 105/105/105 106/106/106
f 100/100/100 107/107/107 101/101/101
f 107/107/107 103/103/103 101/101/101
f 100/100/100 106/106/106 108/108/108
f 108/108/108 106/106/106 97/97/97
f 107/107/107 100/100/100 109/109/109
f 103/103/103 107/107/107 109/109/109
f 100/100/100 108/108/108 110/110/110
f 108/108/108 97/97/97 110/110/110
f 97/97/97 111/111/111 110/110/110
f 110/110/110 111/111/111 112/112/112
f 113/113/113 110/110/110 112/112/112
f 100/100/100 110/110/110 113/113/113
f 113/113/113 112/112/112 114/114/114
f 115/115/115 113/113/113 114/114/114
f 100/100/100 113/113/113 115/115/115
f 115/115/115 114/114/114 116/116/116
f 117/117/117 115/115/115 116/116/116
f 100/100/100 115/115/115 117/117/117
f 117/117/117 116/116/116 118/118/118
f 119/119/119 103/103/103 109/109/109
f 120/120/120 103/103/103 119/119/119
f 121/121/121 120/120/120 119/119/119
f 122/122/122 117/117/117 118/118/118
f 100/100/100 117/117/117 122/122/122
f 119/119/119 109/109/109 123/123/123
f 100/100/100 123/123/123 109/109/109
f 122/122/122 118/118/118 124/124/124
f 124/124/124 118/118/118 125/125/125
f 124/124/124 125/125/125 126/126/126
f 127/127/127 126/126/126 119/119/119
f 127/127/127 119/119/119 123/123/123
f 127/127/127 124/124/124 126/126/126
f 100/100/100 128/128/128 123/123/123
f 100/100/100 122/122/122 128/128/128
f 128/128/128 122/122/122 124/124/124
f 128/128/128 124/124/124 127/127/127
f 123/123/123 128/128/128 127/127/127
f 131/131/131 130/130/130 129/129/129
f 132/132/132 131/131/131 129/129/129
f 129/129/129 133/133/133 132/132/132
f 133/133/133 134/134/134 132/132/132
f 131/131/131 132/132/132 135/135/135
f 135/135/135 136/136/136 131/131/131
f 136/136/136 137/137/137 131/131/131
f 135/135/135 138/138/138 136/136/136
f 136/136/136 138/138/138 139/139/139
f 136/136/136 139/139/139 137/137/137
f 139/139/139 140/140/140 137/137/137
f 132/132/132 141/141/141 135/135/135
f 141/141/141 138/138/138 135/135/135
f 139/139/139 142/142/142 140/140/140
f 139/139/139 138/138/138 142/142/142
f 134/134/134 143/143/143 132/132/132
f 132/132/132 143/143/143 141/141/141
f 144/144/144 143/143/143 134/134/134
f 141/141/141 143/143/143 144/144/144
f 142/142/142 145/145/145 140/140/140
f 146/146/146 140/140/140 145/145/145
f 147/147/147 146/146/146 145/145/145
f 145/145/145 148/148/148 147/147/147
f 72/72/72 147/147/147 148/148/148
f 41/41/41 72/72/72 148/148/148
f 149/149/149 138/138/138 141/141/141
f 149/149/149 141/141/141 144/144/144
f 150/150/150 144/144/144 134/134/134
f 150/150/150 134/134/134 151/151/151
f 152/152/152 150/150/150 151/151/151
f 150/150/150 153/153/153 144/144/144
f 144/144/144 153/153/153 149/149/149
f 154/154/154 150/150/150 152/152/152
f 154/154/154 153/153/153 150/150/150
f 149/149/149 153/153/153 155/155/155
f 154/154/154 155/155/155 153/153/153
f 65/65/65 154/154/154 152/152/152
f 65/65/65 152/152/152 67/67/67
f 57/57/57 154/154/154 65/65/65
f 57/57/57 155/155/155 154/154/154
f 58/58/58 57/57/57 65/65/65
f 156/156/156 149/149/149 155/155/155
f 156/156/156 138/138/138 149/149/149
f 57/57/57 157/157/157 155/155/155
f 156/156/156 155/155/155 157/157/157
f 55/55/55 157/157/157 57/57/57
f 158/158/158 138/138/138 156/156/156
f 158/158/158 156/156/156 157/157/157
f 159/159/159 157/157/157 55/55/55
f 157/157/157 159/159/159 158/158/158
f 54/54/54 159/159/159 55/55/55
f 160/160/160 138/138/138 158/158/158
f 159/159/159 160/160/160 158/158/158
f 142/142/142 138/138/138 160/160/160
f 159/159/159 161/161/161 160/160/160
f 161/161/161 159/159/159 54/54/54
f 160/160/160 161/161/161 142/142/142
f 54/54/54 162/162/162 161/161/161
f 54/54/54 42/42/42 162/162/162
f 42/42/42 40/40/40 162/162/162
f 40/40/40 41/41/41 162/162/162
f 148/148/148 162/162/162 41/41/41
f 161/161/161 162/162/162 148/148/148
f 161/161/161 163/163/163 142/142/142
f 163/163/163 161/161/161 148/148/148
f 163/163/163 145/145/145 142/142/142
f 145/145/145 163/163/163 148/148/148
f 166/166/166 165/165/165 164/164/164
f 164/164/164 167/167/167 166/166/166
f 164/164/164 168/168/168 167/167/167
f 169/169/169 168/168/168 164/164/164
f 169/169/169 170/170/170 168/168/168
f 171/171/171 166/166/166 167/167/167
f 170/170/170 172/172/172 168/168/168
f 172/172/172 170/170/170 173/173/173
f 173/173/173 174/174/174 172/172/172
f 174/174/174 175/175/175 172/172/172
f 174/174/174 176/176/176 175/175/175
f 177/177/177 168/168/168 172/172/172
f 177/177/177 172/172/172 175/175/175
f 177/177/177 178/178/178 168/168/168
f 177/177/177 175/175/175 178/178/178
f 168/168/168 179/179/179 167/167/167
f 178/178/178 179/179/179 168/168/168
f 179/179/179 180/180/180 167/167/167
f 179/179/179 178/178/178 180/180/180
f 171/171/171 167/167/167 120/120/120
f 180/180/180 120/120/120 167/167/167
f 120/120/120 121/121/121 171/171/171
f 103/103/103 120/120/120 180/180/180
f 121/121/121 181/181/181 171/171/171
f 102/102/102 103/103/103 180/180/180
f 181/181/181 121/121/121 126/126/126
f 182/182/182 181/181/181 126/126/126
f 126/126/126 121/121/121 119/119/119
f 102/102/102 180/180/180 91/91/91
f 178/178/178 91/91/91 180/180/180
f 93/93/93 102/102/102 91/91/91
f 178/178/178 183/183/183 91/91/91
f 175/175/175 183/183/183 178/178/178
f 183/183/183 184/184/184 91/91/91
f 175/175/175 184/184/184 183/183/183
f 184/184/184 88/88/88 91/91/91
f 88/88/88 184/184/184 86/86/86
f 184/184/184 175/175/175 185/185/185
f 86/86/86 184/184/184 185/185/185
f 176/176/176 185/185/185 175/175/175
f 176/176/176 186/186/186 185/185/185
f 187/187/187 86/86/86 185/185/185
f 186/186/186 187/187/187 185/185/185
f 86/86/86 187/187/187 9/9/9
f 186/186/186 8/8/8 187/187/187
f 8/8/8 9/9/9 187/187/187
f 171/171/171 181/181/181 166/166/166
f 181/181/181 188/188/188 166/166/166
f 166/166/166 188/188/188 165/165/165
f 188/188/188 189/189/189 165/165/165
f 189/189/189 188/188/188 190/190/190
f 181/181/181 191/191/191 188/188/188
f 191/191/191 181/181/181 182/182/182
f 188/188/188 192/192/192 190/190/190
f 191/191/191 192/192/192 188/188/188
f 193/193/193 190/190/190 192/192/192
f 194/194/194 192/192/192 191/191/191
f 193/193/193 192/192/192 194/194/194
f 194/194/194 191/191/191 182/182/182
f 195/195/195 193/193/193 194/194/194
f 195/195/195 194/194/194 182/182/182
f 193/193/193 195/195/195 196/196/196
f 195/195/195 197/197/197 196/196/196
f 198/198/198 195/195/195 182/182/182
f 182/182/182 126/126/126 198/198/198
f 126/126/126 125/125/125 198/198/198
f 199/199/199 197/197/197 195/195/195
f 198/198/198 199/199/199 195/195/195
f 199/199/199 200/200/200 197/197/197
f 200/200/200 199/199/199 201/201/201
f 199/199/199 202/202/202 201/201/201
f 198/198/198 203/203/203 199/199/199
f 203/203/203 202/202/202 199/199/199
f 198/198/198 125/125/125 203/203/203
f 202/202/202 203/203/203 204/204/204
f 125/125/125 205/205/205 203/203/203
f 203/203/203 205/205/205 204/204/204
f 118/118/118 205/205/205 125/125/125
f 205/205/205 206/206/206 204/204/204
f 118/118/118 116/116/116 205/205/205
f 116/116/116 206/206/206 205/205/205
f 116/116/116 114/114/114 206/206/206
f 114/114/114 207/207/207 206/206/206
f 114/114/114 112/112/112 207/207/207
f 206/206/206 207/207/207 208/208/208
f 208/208/208 204/204/204 206/206/206
f 112/112/112 209/209/209 207/207/207
f 112/112/112 111/111/111 209/209/209
f 207/207/207 210/210/210 208/208/208
f 210/210/210 207/207/207 209/209/209
f 111/111/111 27/27/27 209/209/209
f 111/111/111 97/97/97 27/27/27
f 211/211/211 209/209/209 27/27/27
f 211/211/211 210/210/210 209/209/209
f 26/26/26 211/211/211 27/27/27
f 211/211/211 26/26/26 23/23/23
f 22/22/22 211/211/211 23/23/23
f 22/22/22 23/23/23 19/19/19
f 22/22/22 212/212/212 211/211/211
f 211/211/211 212/212/212 210/210/210
f 20/20/20 212/212/212 22/22/22
f 208/208/208 210/210/210 213/213/213
f 213/213/213 210/210/210 212/212/212
f 208/208/208 213/213/213 214/214/214
f 204/204/204 208/208/208 214/214/214
f 215/215/215 204/204/204 214/214/214
f 215/215/215 202/202/202 204/204/204
f 215/215/215 201/201/201 202/202/202
f 201/201/201 215/215/215 216/216/216
f 215/215/215 217/217/217 216/216/216
f 217/217/217 215/215/215 214/214/214
f 214/214/214 213/213/213 217/217/217
f 213/213/213 218/218/218 217/217/217
f 219/219/219 218/218/218 213/213/213
f 219/219/219 213/213/213 212/212/212
f 220/220/220 219/219/219 212/212/212
f 212/212/212 20/20/20 220/220/220
f 219/219/219 220/220/220 221/221/221
f 20/20/20 221/221/221 220/220/220
f 221/221/221 20/20/20 21/21/21
f 78/78/78 69/69/69 70/70/70
f 69/69/69 78/78/78 222/222/222
f 78/78/78 223/223/223 222/222/222
f 69/69/69 222/222/222 224/224/224
f 224/224/224 68/68/68 69/69/69
f 68/68/68 224/224/224 72/72/72
f 72/72/72 224/224/224 147/147/147
f 224/224/224 146/146/146 147/147/147
f 222/222/222 223/223/223 225/225/225
f 223/223/223 226/226/226 225/225/225
f 225/225/225 226/226/226 227/227/227
f 228/228/228 224/224/224 222/222/222
f 224/224/224 228/228/228 146/146/146
f 225/225/225 228/228/228 222/222/222
f 229/229/229 146/146/146 228/228/228
f 146/146/146 229/229/229 140/140/140
f 228/228/228 225/225/225 230/230/230
f 228/228/228 230/230/230 229/229/229
f 140/140/140 229/229/229 231/231/231
f 230/230/230 231/231/231 229/229/229
f 137/137/137 140/140/140 231/231/231
f 232/232/232 225/225/225 227/227/227
f 232/232/232 230/230/230 225/225/225
f 232/232/232 227/227/227 233/233/233
f 227/227/227 234/234/234 233/233/233
f 235/235/235 230/230/230 232/232/232
f 230/230/230 235/235/235 231/231/231
f 233/233/233 235/235/235 232/232/232
f 231/231/231 235/235/235 233/233/233
f 231/231/231 130/130/130 137/137/137
f 130/130/130 231/231/231 233/233/233
f 130/130/130 131/131/131 137/137/137
f 233/233/233 234/234/234 236/236/236
f 236/236/236 130/130/130 233/233/233
f 234/234/234 237/237/237 236/236/236
f 130/130/130 236/236/236 238/238/238
f 236/236/236 237/237/237 238/238/238
f 237/237/237 239/239/239 238/238/238
f 238/238/238 239/239/239 240/240/240
f 129/129/129 130/130/130 238/238/238
f 129/129/129 238/238/238 241/241/241
f 129/129/129 241/241/241 242/242/242
f 133/133/133 129/129/129 242/242/242
f 64/64/64 66/66/66 243/243/243
f 243/243/243 66/66/66 244/244/244
f 244/244/244 66/66/66 67/67/67
f 245/245/245 244/244/244 67/67/67
f 246/246/246 245/245/245 67/67/67
f 67/67/67 152/152/152 246/246/246
f 152/152/152 151/151/151 246/246/246
f 245/245/245 246/246/246 151/151/151
f 247/247/247 245/245/245 151/151/151
f 247/247/247 151/151/151 248/248/248
f 248/248/248 249/249/249 247/247/247
f 248/248/248 151/151/151 250/250/250
f 250/250/250 151/151/151 134/134/134
f 134/134/134 133/133/133 250/250/250
f 133/133/133 242/242/242 250/250/250
f 249/249/249 248/248/248 251/251/251
f 251/251/251 248/248/248 250/250/250
f 252/252/252 249/249/249 251/251/251
f 253/253/253 251/251/251 250/250/250
f 251/251/251 253/253/253 252/252/252
f 242/242/242 253/253/253 250/250/250
f 253/253/253 254/254/254 252/252/252
f 242/242/242 255/255/255 253/253/253
f 254/254/254 253/253/253 255/255/255
f 242/242/242 241/241/241 255/255/255
f 240/240/240 254/254/254 255/255/255
f 255/255/255 241/241/241 238/238/238
f 255/255/255 238/238/238 240/240/240

