mtllib Bread_22.mtl
v 0.07039826 0.02627529 -0.07418423
v 0.04750379 0.03005325 -0.08571462
v 0.06213042 0.02572505 -0.08512473
v 0.05153501 -0.04806829 -0.0956853
v 0.0582127 -0.04130181 -0.1085155
v 0.03542589 -0.04106792 -0.1173138
v 0.0311247 -0.04765559 -0.1037627
v 0.02602175 -0.04895209 -0.08593159
v 0.04266736 -0.04908451 -0.07991035
v 0.03257923 -0.04909258 -0.06227913
v 0.0097269 -0.04713004 -0.10748
v 0.01073492 -0.03989653 -0.1216534
v 0.02072163 -0.04911811 -0.06687807
v 0.02648902 -0.04902503 -0.05096081
v 0.01743353 -0.04902386 -0.04945893
v 0.008155857 -0.04889027 -0.08963774
v 0.007098004 -0.04910608 -0.06890668
v 0.007830975 -0.04900798 -0.04964774
v -0.007387781 -0.04912816 -0.06936845
v -0.002581954 -0.04901702 -0.04890933
v -0.01040131 -0.04886992 -0.0901571
v -0.01289653 -0.04691297 -0.1081475
v -0.0134964 -0.03855159 -0.1220299
v 0.01264864 -0.028112 -0.130203
v -0.01362513 -0.02679684 -0.1308271
v 0.06319989 -0.0303681 -0.1162433
v 0.03542589 -0.04106792 -0.1173138
v 0.0582127 -0.04130181 -0.1085155
v 0.03813476 -0.02958316 -0.1260083
v 0.01073492 -0.03989653 -0.1216534
v 0.06649129 -0.01695959 -0.1190197
v 0.01264864 -0.028112 -0.130203
v 0.04097742 -0.01524569 -0.127939
v 0.068059 -0.00284005 -0.1146371
v 0.01406816 -0.01421957 -0.1325779
v 0.04203977 -0.001340711 -0.1239502
v -0.01314584 -0.01264994 -0.1336827
v -0.01362513 -0.02679684 -0.1308271
v 0.01542324 0.0003990484 -0.1291336
v -0.01217695 0.001083195 -0.1303988
v 0.04254082 0.01173148 -0.1149913
v 0.0675272 0.009262828 -0.1057109
v 0.06617771 0.01898743 -0.09446076
v 0.01754246 0.01283463 -0.1201584
v -0.01134444 0.0128664 -0.1214874
v 0.04422529 0.02234925 -0.1018129
v 0.06213042 0.02572505 -0.08512473
v 0.04750379 0.03005325 -0.08571462
v 0.01978788 0.02381961 -0.1061654
v -0.008334083 0.02345266 -0.1093047
v -0.06992035 -0.01221022 -0.1179361
v -0.09335914 -0.01257222 -0.09845112
v -0.09216931 -0.02653618 -0.09866897
v -0.06828284 -0.02606048 -0.1162455
v -0.04211387 -0.01211267 -0.1293217
v -0.0413051 0.001307409 -0.1254167
v -0.01217695 0.001083195 -0.1303988
v -0.04090592 -0.02574679 -0.1271822
v -0.01314584 -0.01264994 -0.1336827
v -0.01362513 -0.02679684 -0.1308271
v -0.09335914 -0.01257222 -0.09845112
v -0.1093953 -0.01252214 -0.07482091
v -0.1085016 -0.02719595 -0.07618131
v -0.09216931 -0.02653618 -0.09866897
v -0.09335914 -0.01257222 -0.09845112
v -0.1021948 0.003164932 -0.07071285
v -0.1093953 -0.01252214 -0.07482091
v -0.08819751 0.001702962 -0.09337007
v -0.08627377 0.01954098 -0.06351346
v -0.06823848 0.001539759 -0.1120358
v -0.06992035 -0.01221022 -0.1179361
v -0.0413051 0.001307409 -0.1254167
v -0.07630906 0.01739899 -0.08394926
v -0.0642119 0.03470355 -0.05430331
v -0.06097769 0.01526692 -0.1028792
v -0.05833136 0.03180757 -0.07262274
v -0.04416167 0.03895167 -0.0434603
v -0.03861643 0.01300317 -0.1167496
v -0.0480736 0.02795232 -0.09212838
v -0.01134444 0.0128664 -0.1214874
v -0.01217695 0.001083195 -0.1303988
v -0.008334083 0.02345266 -0.1093047
v -0.03253607 0.02322323 -0.1061056
v -0.00205557 0.03251542 -0.09421889
v -0.02520951 0.03140591 -0.09476175
v 0.00146285 0.03966689 -0.07507308
v -0.02928229 0.03609675 -0.08180066
v 0.005023178 0.04368763 -0.05712537
v -0.03074363 0.04088305 -0.06313442
v 0.01274867 0.0463144 -0.03858592
v 7.4619E-05 0.048154 -0.02336229
v -0.03612376 0.04452373 -0.02654634
v -0.09216931 -0.02653618 -0.09866897
v -0.1085016 -0.02719595 -0.07618131
v -0.1022645 -0.03890388 -0.07323577
v -0.08540689 -0.03844128 -0.09348308
v -0.09122554 -0.04695901 -0.06661128
v -0.06828284 -0.02606048 -0.1162455
v -0.07671567 -0.04680943 -0.08380384
v -0.07778895 -0.04909892 -0.05613356
v -0.0635901 -0.03736965 -0.1090043
v -0.03896807 -0.03804102 -0.1184145
v -0.04090592 -0.02574679 -0.1271822
v -0.0134964 -0.03855159 -0.1220299
v -0.01362513 -0.02679684 -0.1308271
v -0.01289653 -0.04691297 -0.1081475
v -0.05689506 -0.0463584 -0.09683994
v -0.03493234 -0.04675062 -0.1052953
v -0.01040131 -0.04886992 -0.0901571
v -0.02981767 -0.04906166 -0.08729887
v -0.04810227 -0.0491799 -0.08121
v -0.03495731 -0.04911705 -0.06188447
v -0.02175828 -0.04913802 -0.06726612
v -0.007387781 -0.04912816 -0.06936845
v -0.002581954 -0.04901702 -0.04890933
v -0.06386948 -0.04915844 -0.07041606
v -0.01243234 -0.04905112 -0.04669419
v 0.001176212 -0.04897967 -0.03419341
v -0.007409086 -0.04901253 -0.03194732
v -0.04820986 -0.04908063 -0.05497621
v -0.05933421 -0.04906948 -0.04435996
v -0.02022484 -0.04906026 -0.04244542
v -0.01926306 -0.04898427 -0.03090054
v -0.03532783 -0.0490226 -0.04067929
v -0.03645824 -0.04899022 -0.03350424
v -0.1136155 -0.03972609 -0.05140924
v -0.1022645 -0.03890388 -0.07323577
v -0.1085016 -0.02719595 -0.07618131
v -0.1196121 -0.02772583 -0.05259971
v -0.1221722 -0.0410581 -0.02767698
v -0.1093953 -0.01252214 -0.07482091
v -0.1274619 -0.02918522 -0.02789201
v -0.1250939 -0.0414818 -0.001328364
v -0.1193924 -0.01297406 -0.05131404
v -0.1021948 0.003164932 -0.07071285
v -0.1109234 0.004269099 -0.04766979
v -0.1299056 -0.02966635 -0.001302494
v -0.122097 -0.04076139 0.02427506
v -0.1253402 -0.01388217 -0.026805
v -0.1156273 0.003675198 -0.02543954
v -0.09666287 0.02258961 -0.02406966
v -0.09812345 0.02247953 -0.004431294
v -0.1259221 -0.02872303 0.02462095
v -0.1146692 -0.038998 0.04610086
v -0.1184185 -0.02695331 0.04655704
v -0.1166274 -0.01138975 0.04478188
v -0.1271672 -0.01456829 -0.001468432
v -0.1170534 0.003210436 -0.003060952
v -0.09622766 0.02333597 0.01518246
v -0.123757 -0.01376606 0.0227584
v -0.1083219 0.006028242 0.0402913
v -0.1141714 0.004107802 0.01938864
v -0.09216651 0.02467643 0.03509395
v 0.05136698 -0.04893693 0.006664621
v 0.03440129 -0.0489564 0.0177804
v 0.04951905 -0.04895334 0.01850001
v 0.03489865 -0.04893919 0.007283618
v 0.05039798 -0.0489167 -0.004801657
v 0.02082389 -0.04894295 0.008133208
v 0.02065973 -0.04896747 0.01799232
v 0.008153419 -0.04899352 0.01920726
v 0.007679735 -0.04895445 0.009568598
v 0.03417008 -0.0489287 -0.002676032
v 0.04739372 -0.04891221 -0.01614955
v 0.01994416 -0.04892801 -0.0009275121
v 0.007273291 -0.04893472 0.0007742515
v 0.006145315 -0.04892075 -0.007743994
v 0.03171796 -0.04892534 -0.01225846
v 0.04295944 -0.0489166 -0.02654978
v 0.01829213 -0.04891769 -0.009786504
v 0.02807015 -0.04892142 -0.02136227
v 0.01609781 -0.04891789 -0.01837329
v 0.00486279 -0.04893557 -0.01618914
v 0.01320662 -0.04893189 -0.02668349
v 0.003415789 -0.04894891 -0.02446686
v 0.02454418 -0.04892089 -0.02987899
v 0.03741141 -0.04892949 -0.03586714
v 0.03090493 -0.04897178 -0.04321155
v 0.01057262 -0.04895345 -0.03608697
v 0.001176212 -0.04897967 -0.03419341
v -0.002581954 -0.04901702 -0.04890933
v 0.007830975 -0.04900798 -0.04964774
v 0.02015357 -0.04895198 -0.03849161
v 0.02648902 -0.04902503 -0.05096081
v 0.01743353 -0.04902386 -0.04945893
v 0.007273291 -0.04893472 0.0007742515
v -0.005482642 -0.04896266 0.0116224
v 0.007679735 -0.04895445 0.009568598
v -0.006239079 -0.04893712 0.002774956
v -0.02207327 -0.04894388 0.01483088
v -0.006309401 -0.04892319 -0.005901271
v 0.006145315 -0.04892075 -0.007743994
v 0.00486279 -0.04893557 -0.01618914
v -0.02338917 -0.04892727 0.005539775
v -0.04505084 -0.04891951 0.0208829
v -0.006429404 -0.04892606 -0.01434118
v 0.003415789 -0.04894891 -0.02446686
v -0.02362419 -0.04892666 -0.003711066
v -0.0481826 -0.04892918 0.009561528
v -0.07076737 -0.04892777 0.02867829
v -0.006278482 -0.0489515 -0.02250667
v 0.001176212 -0.04897967 -0.03419341
v -0.007409086 -0.04901253 -0.03194732
v -0.02264001 -0.04893848 -0.0128838
v -0.02073015 -0.04895153 -0.02148817
v -0.01926306 -0.04898427 -0.03090054
v -0.07569781 -0.0489572 0.01451026
v -0.09136995 -0.04887101 0.03662958
v -0.04942678 -0.04894152 -0.001738028
v -0.04291451 -0.04897293 -0.02412193
v -0.03645824 -0.04899022 -0.03350424
v -0.04764272 -0.04895216 -0.01298868
v -0.07727608 -0.04899883 -0.0006986047
v -0.09715567 -0.04897689 0.01833363
v -0.06830661 -0.04902183 -0.03081068
v -0.05933421 -0.04906948 -0.04435996
v -0.07472608 -0.0490007 -0.01624773
v -0.1118528 -0.04740661 0.02188748
v -0.1052636 -0.04676788 0.04221918
v -0.09922252 -0.04903237 -0.0009618805
v -0.08809621 -0.04902852 -0.0394601
v -0.07778895 -0.04909892 -0.05613356
v -0.09122554 -0.04695901 -0.06661128
v -0.09611835 -0.0490852 -0.02047485
v -0.103101 -0.04709757 -0.04647544
v -0.1022645 -0.03890388 -0.07323577
v -0.1136155 -0.03972609 -0.05140924
v -0.1110787 -0.04765486 -0.02500487
v -0.1221722 -0.0410581 -0.02767698
v -0.1144729 -0.047635 -0.001074689
v -0.1250939 -0.0414818 -0.001328364
v -0.122097 -0.04076139 0.02427506
v -0.1146692 -0.038998 0.04610086
v 0.1065467 -0.02309848 -0.08317772
v 0.1154933 -0.01267924 -0.05886787
v 0.1052257 -0.009927591 -0.07958838
v 0.08954356 -0.01964673 -0.1035784
v 0.08565514 -0.03274132 -0.1017732
v 0.1023239 -0.03552649 -0.08260752
v 0.07872368 -0.04318478 -0.09510711
v 0.0582127 -0.04130181 -0.1085155
v 0.06319989 -0.0303681 -0.1162433
v 0.06649129 -0.01695959 -0.1190197
v 0.08995818 -0.006255189 -0.09933044
v 0.068059 -0.00284005 -0.1146371
v 0.08714965 0.005629639 -0.09136777
v 0.0675272 0.009262828 -0.1057109
v 0.1003225 0.002373 -0.07352252
v 0.1084929 0.001519422 -0.05453528
v 0.09041525 0.01492984 -0.06698039
v 0.08096685 0.01622492 -0.08207522
v 0.06617771 0.01898743 -0.09446076
v 0.07039826 0.02627529 -0.07418423
v 0.06213042 0.02572505 -0.08512473
v 0.1052257 -0.009927591 -0.07958838
v 0.1154933 -0.01267924 -0.05886787
v 0.1084929 0.001519422 -0.05453528
v 0.1142916 -0.0006674957 -0.03452865
v 0.1220454 -0.01525618 -0.03728805
v 0.1244131 -0.02874044 -0.03949372
v 0.1266461 -0.01843141 -0.01520111
v 0.1293723 -0.03128323 -0.015994
v 0.1183283 -0.00308797 -0.01425977
v 0.1275592 -0.01992325 0.007967003
v 0.1299056 -0.03256725 0.008428666
v 0.1241993 -0.01878159 0.03059409
v 0.119685 -0.004398938 0.006994675
v 0.1173422 -0.003282378 0.02765394
v 0.0960051 0.01543012 -0.05028264
v 0.09041525 0.01492984 -0.06698039
v 0.09980442 0.01597821 -0.03197808
v 0.0745428 0.02720622 -0.06130016
v 0.07039826 0.02627529 -0.07418423
v 0.07737725 0.02883978 -0.04674045
v 0.08033297 0.02966012 -0.02952304
v 0.1038535 0.01432799 -0.01269243
v 0.08327381 0.02996835 -0.01151212
v 0.1052554 0.01358963 0.00596759
v 0.1044405 0.01454852 0.02521145
v 0.08559997 0.02950429 0.006396142
v 0.08523137 0.02935125 0.02391678
v 0.03090493 -0.04897178 -0.04321155
v 0.03257923 -0.04909258 -0.06227913
v 0.02648902 -0.04902503 -0.05096081
v 0.04400679 -0.04902675 -0.05575073
v 0.03741141 -0.04892949 -0.03586714
v 0.05734578 -0.04911103 -0.07031222
v 0.04266736 -0.04908451 -0.07991035
v 0.05308507 -0.0489881 -0.04595888
v 0.04295944 -0.0489166 -0.02654978
v 0.06882279 -0.04912119 -0.05741645
v 0.05994673 -0.0489557 -0.03422569
v 0.04739372 -0.04891221 -0.01614955
v 0.06860086 -0.04852303 -0.083957
v 0.05153501 -0.04806829 -0.0956853
v 0.0582127 -0.04130181 -0.1085155
v 0.07872368 -0.04318478 -0.09510711
v 0.0652262 -0.04891027 -0.02148039
v 0.05039798 -0.0489167 -0.004801657
v 0.08274366 -0.04868903 -0.06838389
v 0.09386274 -0.04508976 -0.0773451
v 0.1023239 -0.03552649 -0.08260752
v 0.1046302 -0.04571007 -0.05721142
v 0.1132686 -0.03765874 -0.06108649
v 0.1210143 -0.03980871 -0.03956248
v 0.07704754 -0.04907022 -0.04296637
v 0.09216841 -0.04872169 -0.0508637
v 0.1116893 -0.04659498 -0.03692091
v 0.1256275 -0.04188922 -0.01628793
v 0.09873177 -0.04883954 -0.03226464
v 0.1157913 -0.04740679 -0.01489297
v 0.1255327 -0.04284303 0.00863186
v 0.08309129 -0.04895953 -0.0271282
v 0.1155198 -0.04742028 0.00780955
v 0.1212217 -0.04257172 0.03198596
v 0.1111111 -0.04790673 0.02951725
v 0.102564 -0.04892889 -0.01282786
v 0.1025503 -0.04893755 0.007139813
v 0.09810642 -0.04896018 0.02613633
v 0.08297334 -0.04897824 0.02294839
v 0.08660195 -0.04891496 -0.01039915
v 0.0867902 -0.04890703 0.006622517
v 0.0663127 -0.04893293 0.02018045
v 0.06869797 -0.04889677 -0.007722736
v 0.05136698 -0.04893693 0.006664621
v 0.06918796 -0.0489306 0.006529118
v 0.04951905 -0.04895334 0.01850001
v 0.01978788 0.02381961 -0.1061654
v -0.00205557 0.03251542 -0.09421889
v -0.008334083 0.02345266 -0.1093047
v 0.02374805 0.03273595 -0.08950327
v 0.04750379 0.03005325 -0.08571462
v -0.001688782 0.01563832 0.1171528
v 0.02102455 0.007945633 0.1236108
v 2.233486E-05 0.007241466 0.1258418
v 0.01809356 0.01671402 0.1149219
v -0.004145005 0.02216317 0.1072681
v 0.04055352 0.008137689 0.1183222
v 0.04303348 -0.003449458 0.1247766
v 0.06295876 -0.002847295 0.1169728
v 0.01490027 0.02377029 0.1050719
v -0.01087587 0.02895138 0.09661267
v 0.03706383 0.01689832 0.1100558
v 0.01308367 0.03049495 0.09415177
v -0.009908319 0.03461101 0.08539419
v 0.06000113 0.008580906 0.1103097
v 0.03423345 0.02384389 0.1013882
v 0.01159388 0.03614963 0.08202907
v -0.01360879 0.03897544 0.07270027
v 0.05529276 0.01761952 0.1031482
v 0.03254777 0.02996657 0.09191776
v 0.009809461 0.0401785 0.0695192
v -0.01774726 0.04231108 0.05992614
v 0.05068054 0.02439959 0.09592465
v 0.03242054 0.03494924 0.08082436
v 0.00721506 0.0437578 0.0564995
v -0.02168659 0.04468859 0.04775336
v 0.07002241 0.01925003 0.09178951
v 0.04447683 0.02884817 0.09024773
v 0.03283833 0.03868234 0.06820073
v 0.04980682 0.03138202 0.08216978
v 0.003635137 0.04625097 0.0434523
v -0.02559528 0.0466028 0.0350072
v 0.0001391649 0.0479294 0.03034967
v 0.05995907 0.02645019 0.0867307
v 0.03183871 0.04184434 0.05482858
v 0.03067677 0.04474998 0.04047561
v 0.02892167 0.0469967 0.02634622
v 0.05040765 0.03496144 0.07016096
v 0.04970876 0.03888024 0.03952136
v 0.04900611 0.04149519 0.02440401
v 0.0507427 0.03766219 0.0550711
v 0.06578217 0.03001627 0.07317247
v 0.06671677 0.03701331 0.0403893
v 0.06665092 0.03934202 0.02374687
v 0.06669427 0.03372229 0.05749664
v 0.08417372 0.02833288 0.04155117
v 0.08523137 0.02935125 0.02391678
v 0.08240009 0.02539114 0.05990569
v 0.1014497 0.015332 0.04450301
v 0.1044405 0.01454852 0.02521145
v 0.09670684 0.0137597 0.06375089
v 0.07835647 0.02177511 0.07730671
v 0.08942522 0.01119026 0.08260422
v 0.07672838 0.009547926 0.09870102
v 0.0966625 -0.001557045 0.08852316
v 0.1068472 -0.0004263761 0.06839152
v 0.1114779 -0.01564239 0.07257126
v 0.1002564 -0.01519301 0.09250321
v 0.08163453 -0.002138999 0.1048322
v 0.08378312 -0.01571249 0.1090864
v 0.0641153 -0.01570112 0.1201513
v 0.02102455 0.007945633 0.1236108
v 0.001640001 -0.004139896 0.1321004
v 2.233486E-05 0.007241466 0.1258418
v 0.02225764 -0.003684032 0.1301268
v 0.001951864 -0.0176342 0.1336827
v 0.04303348 -0.003449458 0.1247766
v 0.02277874 -0.01722054 0.1319868
v 0.002110215 -0.03059622 0.1300556
v 0.04348579 -0.01669839 0.1274753
v 0.02224048 -0.03043905 0.1285651
v 0.00196223 -0.04117493 0.1203571
v 0.0427107 -0.03008421 0.1247225
v 0.0641153 -0.01570112 0.1201513
v 0.06295876 -0.002847295 0.1169728
v 0.06228917 -0.02908427 0.1177698
v 0.08115191 -0.02876857 0.1074622
v 0.08378312 -0.01571249 0.1090864
v 0.05844054 -0.04030819 0.1098557
v 0.04016534 -0.04106191 0.1162326
v 0.02117816 -0.04123753 0.1195244
v 0.001640001 -0.004139896 0.1321004
v -0.02056837 0.006315628 0.1253245
v 2.233486E-05 0.007241466 0.1258418
v -0.02133047 0.01472177 0.1163594
v -0.001688782 0.01563832 0.1171528
v -0.04049359 0.01488014 0.1101545
v -0.04201822 0.005236247 0.1204291
v -0.02188624 0.02091105 0.1080299
v -0.004145005 0.02216317 0.1072681
v -0.05654704 0.0161831 0.1005031
v -0.06244043 0.00409541 0.1102906
v -0.06971812 0.01769617 0.08708469
v -0.03490552 0.02392587 0.09980341
v -0.0469669 0.02744771 0.08863728
v -0.01955537 0.02707059 0.0987652
v -0.01087587 0.02895138 0.09661267
v -0.02319253 0.02979078 0.09313568
v -0.009908319 0.03461101 0.08539419
v -0.01360879 0.03897544 0.07270027
v -0.032169 0.03455013 0.07850455
v -0.05499864 0.03100554 0.07635774
v -0.07894395 0.02077378 0.07157119
v -0.03700314 0.03752834 0.06572446
v -0.01774726 0.04231108 0.05992614
v -0.06055392 0.03412127 0.06223261
v -0.04132346 0.03933274 0.05337741
v -0.02168659 0.04468859 0.04775336
v -0.08580042 0.02355561 0.05428202
v -0.1007669 0.006862056 0.06022574
v -0.1083219 0.006028242 0.0402913
v -0.09216651 0.02467643 0.03509395
v -0.0650044 0.03668983 0.04711001
v -0.06846943 0.03771112 0.03203471
v -0.04378773 0.04008774 0.04145724
v -0.02559528 0.0466028 0.0350072
v -0.04595621 0.04293402 0.02617993
v -0.02801734 0.0475852 0.02019894
v -0.04264314 -0.00605252 0.1268858
v -0.06244043 0.00409541 0.1102906
v -0.04201822 0.005236247 0.1204291
v -0.02009154 -0.005161826 0.1316492
v -0.02056837 0.006315628 0.1253245
v 0.001640001 -0.004139896 0.1321004
v -0.04230186 -0.01896036 0.1286965
v 0.001951864 -0.0176342 0.1336827
v -0.01959719 -0.01815019 0.133414
v -0.04041091 -0.03164926 0.1242494
v -0.01911864 -0.03119051 0.1290868
v 0.002110215 -0.03059622 0.1300556
v 0.00196223 -0.04117493 0.1203571
v -0.01742654 -0.04191803 0.1190475
v -0.03715453 -0.04230467 0.1140341
v -0.05546003 -0.0428249 0.1056522
v -0.06456118 -0.0204412 0.1190581
v -0.06477345 -0.007531077 0.1173206
v -0.08353183 -0.009643447 0.102301
v -0.06106425 -0.03257735 0.1146107
v -0.07964291 -0.0348164 0.1012353
v -0.08397911 -0.02246314 0.1042732
v -0.09762049 -0.009937887 0.08379623
v -0.09906834 -0.02422511 0.08588482
v -0.04230186 -0.01896036 0.1286965
v -0.06477345 -0.007531077 0.1173206
v -0.04264314 -0.00605252 0.1268858
v -0.06244043 0.00409541 0.1102906
v -0.07858222 0.003722863 0.09604158
v -0.08353183 -0.009643447 0.102301
v -0.06971812 0.01769617 0.08708469
v -0.09132011 0.00481362 0.07937561
v -0.07894395 0.02077378 0.07157119
v -0.09762049 -0.009937887 0.08379623
v -0.1007669 0.006862056 0.06022574
v -0.1083201 -0.01033217 0.06458267
v -0.1166274 -0.01138975 0.04478188
v -0.1083219 0.006028242 0.0402913
v -0.1184185 -0.02695331 0.04655704
v -0.1096948 -0.02515943 0.06640065
v -0.1146692 -0.038998 0.04610086
v -0.1055348 -0.03768176 0.06524934
v -0.09906834 -0.02422511 0.08588482
v -0.09468308 -0.03648485 0.08405704
v -0.07964291 -0.0348164 0.1012353
v -0.08397911 -0.02246314 0.1042732
v -0.1052636 -0.04676788 0.04221918
v -0.1146692 -0.038998 0.04610086
v -0.1055348 -0.03768176 0.06524934
v -0.09687781 -0.0458489 0.06075361
v -0.09136995 -0.04887101 0.03662958
v -0.08602832 -0.04542454 0.07803605
v -0.09468308 -0.03648485 0.08405704
v -0.0834768 -0.04867525 0.05277855
v -0.07076737 -0.04892777 0.02867829
v -0.07264778 -0.04445906 0.09342219
v -0.07964291 -0.0348164 0.1012353
v -0.05546003 -0.0428249 0.1056522
v -0.06428423 -0.04893202 0.04246964
v -0.04505084 -0.04891951 0.0208829
v -0.07433294 -0.04873193 0.06782361
v -0.06237255 -0.04875038 0.08117377
v -0.04057621 -0.04892536 0.03113302
v -0.02207327 -0.04894388 0.01483088
v -0.05708686 -0.04894231 0.05440315
v -0.01970949 -0.04897381 0.02418425
v -0.005482642 -0.04896266 0.0116224
v -0.03538146 -0.04896869 0.04010789
v -0.04827951 -0.04852355 0.09140489
v -0.03715453 -0.04230467 0.1140341
v -0.04798304 -0.04898443 0.0640431
v -0.03184068 -0.04817683 0.09896171
v -0.01742654 -0.04191803 0.1190475
v -0.03707292 -0.0490182 0.0716256
v -0.03028007 -0.0490029 0.04728663
v -0.01468564 -0.04789821 0.1037124
v 0.00196223 -0.04117493 0.1203571
v 0.002613751 -0.04760598 0.1054677
v -0.02499426 -0.04905896 0.07958813
v -0.01065943 -0.04901087 0.08382633
v 0.00420877 -0.04897876 0.08586575
v 0.006347866 -0.04905508 0.06403191
v -0.02819236 -0.0490157 0.05815251
v -0.01720554 -0.04899456 0.03262537
v -0.01680665 -0.04904911 0.05683519
v -0.01594296 -0.04902777 0.04335862
v -0.006154998 -0.04904837 0.06204971
v -0.003758754 -0.04901055 0.04343304
v 0.007779005 -0.04899187 0.04477762
v -0.003764021 -0.04902138 0.03111827
v 0.008220928 -0.04899451 0.03019345
v 0.008153419 -0.04899352 0.01920726
v -0.004642552 -0.04899995 0.02086644
v 0.007679735 -0.04895445 0.009568598
v 0.1111111 -0.04790673 0.02951725
v 0.113577 -0.04168911 0.05301968
v 0.1212217 -0.04257172 0.03198596
v 0.1035077 -0.04776071 0.04873805
v 0.09046813 -0.04901817 0.04321696
v 0.09810642 -0.04896018 0.02613633
v 0.09400509 -0.04777095 0.06573793
v 0.1042698 -0.04134198 0.07190561
v 0.08127851 -0.04908789 0.05774895
v 0.07570492 -0.04906677 0.03760702
v 0.08297334 -0.04897824 0.02294839
v 0.09175798 -0.04101149 0.08858887
v 0.09855993 -0.0295632 0.09298176
v 0.066595 -0.04909867 0.05076055
v 0.06058061 -0.04897892 0.03342619
v 0.0663127 -0.04893293 0.02018045
v 0.08214486 -0.04797473 0.0800438
v 0.07558875 -0.04021812 0.1012574
v 0.08115191 -0.02876857 0.1074622
v 0.06795427 -0.04779573 0.09050015
v 0.06988615 -0.04915516 0.06974316
v 0.05844054 -0.04030819 0.1098557
v 0.06228917 -0.02908427 0.1177698
v 0.05294912 -0.04768241 0.09757778
v 0.05451844 -0.04902399 0.04736232
v 0.06256486 -0.04913836 0.06105281
v 0.052632 -0.04908841 0.06186235
v 0.05898925 -0.04918463 0.07652031
v 0.04306672 -0.04898099 0.04549329
v 0.04690162 -0.04912841 0.08118204
v 0.04239503 -0.04906937 0.06300986
v 0.03656476 -0.04779762 0.1023033
v 0.04016534 -0.04106191 0.1162326
v 0.04615742 -0.04894587 0.03090525
v 0.04951905 -0.04895334 0.01850001
v 0.03138717 -0.04899826 0.04507143
v 0.03252343 -0.04896237 0.02985408
v 0.03440129 -0.0489564 0.0177804
v 0.02026408 -0.0489818 0.02985795
v 0.02065973 -0.04896747 0.01799232
v 0.008153419 -0.04899352 0.01920726
v 0.008220928 -0.04899451 0.03019345
v 0.01959103 -0.04898286 0.04509183
v 0.007779005 -0.04899187 0.04477762
v 0.03142142 -0.04907981 0.06423884
v 0.01917984 -0.0490681 0.06471766
v 0.006347866 -0.04905508 0.06403191
v 0.03362353 -0.04903954 0.08451627
v 0.01887996 -0.04898644 0.08608539
v 0.00420877 -0.04897876 0.08586575
v 0.01974873 -0.04769535 0.1050099
v 0.002613751 -0.04760598 0.1054677
v 0.02117816 -0.04123753 0.1195244
v 0.00196223 -0.04117493 0.1203571
v 0.02224048 -0.03043905 0.1285651
v 0.0427107 -0.03008421 0.1247225
v 0.1256328 -0.03228959 0.032626
v 0.1255327 -0.04284303 0.00863186
v 0.1212217 -0.04257172 0.03198596
v 0.1299056 -0.03256725 0.008428666
v 0.1241993 -0.01878159 0.03059409
v 0.1256275 -0.04188922 -0.01628793
v 0.1293723 -0.03128323 -0.015994
v 0.1210143 -0.03980871 -0.03956248
v 0.1244131 -0.02874044 -0.03949372
v 0.1169802 -0.02589334 -0.06129177
v 0.1132686 -0.03765874 -0.06108649
v 0.1154933 -0.01267924 -0.05886787
v 0.1023239 -0.03552649 -0.08260752
v 0.1065467 -0.02309848 -0.08317772
v -0.09622766 0.02333597 0.01518246
v -0.06846943 0.03771112 0.03203471
v -0.09216651 0.02467643 0.03509395
v -0.07217304 0.0376965 0.01197504
v -0.09812345 0.02247953 -0.004431294
v -0.04595621 0.04293402 0.02617993
v -0.07301041 0.03727108 -0.005787179
v -0.09666287 0.02258961 -0.02406966
v -0.04884984 0.04225032 0.008672852
v -0.03145434 0.04762956 0.005036382
v -0.02801734 0.0475852 0.02019894
v -0.04980695 0.04095816 -0.00708832
v -0.03335915 0.04693417 -0.01064456
v -0.07102439 0.0368196 -0.02197686
v -0.04882467 0.0407445 -0.0225938
v -0.03612376 0.04452373 -0.02654634
v -0.04416167 0.03895167 -0.0434603
v -0.0924014 0.02178109 -0.04316999
v -0.1109234 0.004269099 -0.04766979
v -0.1021948 0.003164932 -0.07071285
v -0.08627377 0.01954098 -0.06351346
v -0.06841757 0.03568378 -0.0383788
v -0.0642119 0.03470355 -0.05430331
v -0.05105112 0.04033013 -0.03360491
v 0.0001391649 0.0479294 0.03034967
v -0.02559528 0.0466028 0.0350072
v -0.02801734 0.0475852 0.02019894
v -0.003039161 0.04893278 0.01604643
v 0.02892167 0.0469967 0.02634622
v -0.03145434 0.04762956 0.005036382
v 0.02611543 0.04816391 0.01174015
v 0.04900611 0.04149519 0.02440401
v -0.006539001 0.0491847 0.000668572
v -0.03335915 0.04693417 -0.01064456
v 0.04810926 0.04239471 0.008608918
v 0.06665092 0.03934202 0.02374687
v -0.01077219 0.04839321 -0.01620754
v -0.03612376 0.04452373 -0.02654634
v 7.4619E-05 0.048154 -0.02336229
v 0.022885 0.04843401 -0.004670833
v 0.06557205 0.03980353 0.007659199
v 0.08523137 0.02935125 0.02391678
v 0.08559997 0.02950429 0.006396142
v 0.04624474 0.04273218 -0.008411285
v 0.06338978 0.03983773 -0.009833072
v 0.08327381 0.02996835 -0.01151212
v 0.06120546 0.03972155 -0.02841569
v 0.08033297 0.02966012 -0.02952304
v 0.04761514 0.04154183 -0.0253771
v 0.01274867 0.0463144 -0.03858592
v 0.05725757 0.03789059 -0.04348006
v 0.07737725 0.02883978 -0.04674045
v 0.03941783 0.04193344 -0.04218435
v 0.005023178 0.04368763 -0.05712537
v 0.03450018 0.04116319 -0.05594888
v 0.00146285 0.03966689 -0.07507308
v 0.05542311 0.03613959 -0.05774985
v 0.0745428 0.02720622 -0.06130016
v 0.0293476 0.03857506 -0.07087885
v -0.00205557 0.03251542 -0.09421889
v 0.02374805 0.03273595 -0.08950327
v 0.05220149 0.03389312 -0.07128915
v 0.07039826 0.02627529 -0.07418423
v 0.04750379 0.03005325 -0.08571462
v 0.1014497 0.015332 0.04450301
v 0.1068472 -0.0004263761 0.06839152
v 0.09670684 0.0137597 0.06375089
v 0.1130407 -0.001055994 0.04835946
v 0.1044405 0.01454852 0.02521145
v 0.1173422 -0.003282378 0.02765394
v 0.1114779 -0.01564239 0.07257126
v 0.1188273 -0.01667201 0.05193666
v 0.1241993 -0.01878159 0.03059409
v 0.1256328 -0.03228959 0.032626
v 0.1108276 -0.02975739 0.07427689
v 0.1002564 -0.01519301 0.09250321
v 0.1188243 -0.03073104 0.0538559
v 0.1212217 -0.04257172 0.03198596
v 0.113577 -0.04168911 0.05301968
v 0.1042698 -0.04134198 0.07190561
v 0.09855993 -0.0295632 0.09298176
v 0.08378312 -0.01571249 0.1090864
v 0.08115191 -0.02876857 0.1074622
vt 0.646671 0.561021
vt 0.618758 0.518846
vt 0.623115 0.548293
vt 0.433599 0.036989
vt 0.401359 0.032564
vt 0.401493 0.080059
vt 0.431606 0.079856
vt 0.467348 0.079115
vt 0.46848 0.044587
vt 0.507422 0.053367
vt 0.436733 0.122065
vt 0.406759 0.128555
vt 0.505745 0.078208
vt 0.532031 0.058295
vt 0.540014 0.074353
vt 0.470594 0.11484
vt 0.509674 0.104832
vt 0.545105 0.092391
vt 0.517028 0.132105
vt 0.55242 0.11139
vt 0.479844 0.149771
vt 0.446941 0.16503
vt 0.415276 0.175047
vt 0.378819 0.131259
vt 0.385752 0.181776
vt 0.372328 0.029174
vt 0.401493 0.080059
vt 0.401359 0.032564
vt 0.373852 0.081322
vt 0.406759 0.128555
vt 0.343126 0.02731
vt 0.378819 0.131259
vt 0.346179 0.079886
vt 0.312139 0.026433
vt 0.352035 0.132821
vt 0.318831 0.079863
vt 0.356158 0.1857
vt 0.385752 0.181776
vt 0.323561 0.132653
vt 0.327117 0.186061
vt 0.288816 0.079322
vt 0.281377 0.027911
vt 0.251096 0.029845
vt 0.29437 0.128795
vt 0.297309 0.184781
vt 0.256338 0.075192
vt 0.227759 0.036989
vt 0.222121 0.066784
vt 0.260308 0.123505
vt 0.265411 0.178514
vt 0.122832 0.263264
vt 0.068468 0.282801
vt 0.078249 0.307117
vt 0.130841 0.286738
vt 0.176609 0.244265
vt 0.166526 0.219823
vt 0.218956 0.198082
vt 0.184449 0.269502
vt 0.229867 0.228091
vt 0.236094 0.259442
vt 0.068468 0.282801
vt 0.01654 0.29818
vt 0.029673 0.328155
vt 0.078249 0.307117
vt 0.068468 0.282801
vt 0.01 0.259829
vt 0.01654 0.29818
vt 0.061342 0.252961
vt 0.01195 0.208905
vt 0.111734 0.238705
vt 0.122832 0.263264
vt 0.166526 0.219823
vt 0.056426 0.210957
vt 0.021234 0.151083
vt 0.103576 0.207169
vt 0.057795 0.160779
vt 0.029673 0.104734
vt 0.153431 0.195144
vt 0.100907 0.168176
vt 0.201641 0.169785
vt 0.218956 0.198082
vt 0.182542 0.139765
vt 0.142779 0.166433
vt 0.164486 0.105055
vt 0.133244 0.137281
vt 0.137649 0.071807
vt 0.107762 0.125181
vt 0.11215 0.043444
vt 0.07623 0.104341
vt 0.089593 0.01
vt 0.050737 0.011542
vt 0.012761 0.071154
vt 0.078249 0.307117
vt 0.029673 0.328155
vt 0.045993 0.354075
vt 0.091793 0.330986
vt 0.067935 0.379608
vt 0.130841 0.286738
vt 0.105896 0.35665
vt 0.092266 0.407084
vt 0.139974 0.310837
vt 0.189461 0.29872
vt 0.184449 0.269502
vt 0.238822 0.291639
vt 0.236094 0.259442
vt 0.237383 0.326825
vt 0.149106 0.339886
vt 0.193738 0.329666
vt 0.23522 0.365283
vt 0.197134 0.366106
vt 0.159835 0.372396
vt 0.177717 0.412657
vt 0.205127 0.406248
vt 0.233189 0.406577
vt 0.234764 0.447798
vt 0.125375 0.386534
vt 0.215172 0.448898
vt 0.23659 0.477269
vt 0.21942 0.478689
vt 0.149397 0.420812
vt 0.12433 0.436524
vt 0.198739 0.454393
vt 0.196274 0.476623
vt 0.169064 0.452456
vt 0.164245 0.465619
vt 0.559804 0.200794
vt 0.560917 0.154242
vt 0.529996 0.154242
vt 0.533091 0.203514
vt 0.564857 0.248195
vt 0.496609 0.161719
vt 0.541532 0.251898
vt 0.57445 0.29752
vt 0.50454 0.210039
vt 0.457899 0.175899
vt 0.468819 0.222259
vt 0.552 0.301267
vt 0.586376 0.344936
vt 0.513653 0.257326
vt 0.477779 0.264948
vt 0.429167 0.274305
vt 0.435828 0.312705
vt 0.562361 0.349871
vt 0.598332 0.387227
vt 0.571099 0.393546
vt 0.536518 0.397194
vt 0.524854 0.305141
vt 0.48683 0.30806
vt 0.438736 0.351866
vt 0.532311 0.351825
vt 0.493556 0.395681
vt 0.491322 0.352813
vt 0.440179 0.392296
vt 0.458084 0.863846
vt 0.422066 0.880091
vt 0.450939 0.886061
vt 0.426207 0.860043
vt 0.459697 0.841489
vt 0.398865 0.85741
vt 0.395559 0.876332
vt 0.371125 0.874877
vt 0.373137 0.856186
vt 0.427825 0.840657
vt 0.457357 0.818741
vt 0.39992 0.839708
vt 0.375022 0.83914
vt 0.375435 0.822406
vt 0.426012 0.821474
vt 0.451978 0.797383
vt 0.399428 0.82216
vt 0.421754 0.80285
vt 0.39781 0.804971
vt 0.375528 0.805766
vt 0.394766 0.788103
vt 0.375254 0.789399
vt 0.417552 0.785392
vt 0.444128 0.777772
vt 0.433835 0.761665
vt 0.392549 0.769209
vt 0.373894 0.770003
vt 0.371125 0.740546
vt 0.391386 0.742283
vt 0.411715 0.767488
vt 0.427688 0.745414
vt 0.409807 0.745558
vt 0.821667 0.236861
vt 0.802904 0.263551
vt 0.826667 0.253255
vt 0.797228 0.247251
vt 0.773328 0.277916
vt 0.792878 0.230882
vt 0.815373 0.221271
vt 0.808732 0.205943
vt 0.766403 0.261073
vt 0.733215 0.301198
vt 0.788456 0.214997
vt 0.801812 0.191052
vt 0.761523 0.243684
vt 0.721922 0.281473
vt 0.688529 0.329612
vt 0.784565 0.199526
vt 0.792623 0.173885
vt 0.777554 0.182332
vt 0.758825 0.225795
vt 0.757872 0.208508
vt 0.755506 0.189957
vt 0.672969 0.305308
vt 0.652334 0.356234
vt 0.714402 0.260555
vt 0.714724 0.214274
vt 0.72106 0.192795
vt 0.712179 0.238111
vt 0.663575 0.276687
vt 0.635084 0.322865
vt 0.663087 0.213785
vt 0.670752 0.182832
vt 0.660282 0.24538
vt 0.608922 0.336339
vt 0.624376 0.374912
vt 0.623469 0.286745
vt 0.619952 0.207574
vt 0.627563 0.170444
vt 0.593743 0.159393
vt 0.61847 0.247717
vt 0.587136 0.203401
vt 0.560917 0.154242
vt 0.559804 0.200794
vt 0.589059 0.247206
vt 0.564857 0.248195
vt 0.596214 0.293717
vt 0.57445 0.29752
vt 0.586376 0.344936
vt 0.598332 0.387227
vt 0.82096 0.854494
vt 0.772104 0.876068
vt 0.815076 0.878816
vt 0.870382 0.857221
vt 0.8719 0.829915
vt 0.824332 0.830918
vt 0.867699 0.801924
vt 0.91217 0.790869
vt 0.921769 0.825956
vt 0.922121 0.861226
vt 0.862582 0.884162
vt 0.911912 0.895827
vt 0.851885 0.911839
vt 0.895447 0.926756
vt 0.808142 0.905462
vt 0.767829 0.905679
vt 0.804097 0.938754
vt 0.840281 0.940645
vt 0.875219 0.952622
vt 0.834889 0.97295
vt 0.862414 0.973438
vt 0.815076 0.878816
vt 0.772104 0.876068
vt 0.767829 0.905679
vt 0.727161 0.902525
vt 0.729217 0.871041
vt 0.732612 0.845413
vt 0.685759 0.864836
vt 0.688 0.840333
vt 0.686845 0.8975
vt 0.642012 0.860053
vt 0.643041 0.834623
vt 0.59913 0.860757
vt 0.646058 0.893421
vt 0.606957 0.898495
vt 0.768195 0.941712
vt 0.804097 0.938754
vt 0.730232 0.943844
vt 0.804705 0.979121
vt 0.834889 0.97295
vt 0.771833 0.985655
vt 0.73385 0.988766
vt 0.690537 0.939553
vt 0.695504 0.988179
vt 0.653604 0.937734
vt 0.616708 0.943052
vt 0.659117 0.98631
vt 0.62506 0.99
vt 0.81324 0.66938
vt 0.846873 0.688264
vt 0.83086 0.668331
vt 0.824966 0.701747
vt 0.793499 0.673787
vt 0.842103 0.738092
vt 0.873382 0.723682
vt 0.798752 0.708564
vt 0.770489 0.675668
vt 0.807721 0.7448
vt 0.77123 0.71114
vt 0.746075 0.676142
vt 0.858361 0.771523
vt 0.895447 0.75809
vt 0.91217 0.790869
vt 0.867699 0.801924
vt 0.742594 0.711844
vt 0.720787 0.674925
vt 0.81684 0.777969
vt 0.822315 0.805434
vt 0.824332 0.830918
vt 0.778637 0.805226
vt 0.778634 0.828524
vt 0.735509 0.824481
vt 0.774346 0.747028
vt 0.777515 0.778833
vt 0.738146 0.803205
vt 0.692224 0.82001
vt 0.738929 0.777676
vt 0.696048 0.799368
vt 0.646851 0.812694
vt 0.74031 0.74711
vt 0.654133 0.791665
vt 0.604231 0.801324
vt 0.615341 0.776727
vt 0.700692 0.77465
vt 0.663496 0.76697
vt 0.629143 0.751384
vt 0.644895 0.722842
vt 0.706872 0.744633
vt 0.675039 0.737169
vt 0.661226 0.692376
vt 0.713729 0.710662
vt 0.697057 0.670878
vt 0.686224 0.704358
vt 0.674835 0.661671
vt 0.260308 0.123505
vt 0.231 0.165517
vt 0.265411 0.178514
vt 0.223834 0.114423
vt 0.222121 0.066784
vt 0.133189 0.908332
vt 0.135414 0.861378
vt 0.110075 0.891922
vt 0.157147 0.877838
vt 0.157318 0.922939
vt 0.161795 0.833129
vt 0.142252 0.815472
vt 0.170679 0.787895
vt 0.179717 0.89209
vt 0.182553 0.943367
vt 0.181167 0.848115
vt 0.205103 0.902684
vt 0.210883 0.949112
vt 0.188817 0.803683
vt 0.20057 0.859478
vt 0.231892 0.911424
vt 0.239661 0.961041
vt 0.205527 0.818397
vt 0.221458 0.867965
vt 0.258471 0.918542
vt 0.267709 0.971888
vt 0.220446 0.831533
vt 0.245116 0.872887
vt 0.285556 0.925587
vt 0.293454 0.980896
vt 0.233225 0.794852
vt 0.230457 0.846047
vt 0.271284 0.87518
vt 0.248837 0.839004
vt 0.311781 0.933411
vt 0.318727 0.99
vt 0.337336 0.941092
vt 0.242199 0.817227
vt 0.298491 0.878392
vt 0.327402 0.880917
vt 0.355377 0.883933
vt 0.273371 0.840273
vt 0.333966 0.840457
vt 0.363851 0.839969
vt 0.303473 0.840186
vt 0.271112 0.808833
vt 0.335228 0.804872
vt 0.36735 0.800662
vt 0.301469 0.80719
vt 0.331037 0.764111
vt 0.363194 0.753293
vt 0.296132 0.772696
vt 0.317381 0.719995
vt 0.348727 0.699839
vt 0.283885 0.737458
vt 0.262979 0.781279
vt 0.248613 0.754477
vt 0.216893 0.777536
vt 0.230896 0.732208
vt 0.264706 0.707346
vt 0.243384 0.68381
vt 0.214545 0.713495
vt 0.200788 0.759655
vt 0.183627 0.742348
vt 0.154134 0.770621
vt 0.135414 0.861378
vt 0.087808 0.871565
vt 0.110075 0.891922
vt 0.113381 0.84306
vt 0.065171 0.848312
vt 0.142252 0.815472
vt 0.09365 0.821603
vt 0.046054 0.822013
vt 0.123816 0.796543
vt 0.075877 0.798592
vt 0.030072 0.791377
vt 0.107416 0.775483
vt 0.154134 0.770621
vt 0.170679 0.787895
vt 0.137641 0.751593
vt 0.16793 0.725615
vt 0.183627 0.742348
vt 0.12098 0.731182
vt 0.092008 0.752486
vt 0.061094 0.77227
vt 0.566187 0.456913
vt 0.555522 0.506795
vt 0.585792 0.482471
vt 0.568828 0.528924
vt 0.599647 0.507364
vt 0.544339 0.558957
vt 0.527894 0.537805
vt 0.578969 0.548079
vt 0.609366 0.532395
vt 0.526493 0.591167
vt 0.502062 0.573301
vt 0.511629 0.625209
vt 0.566459 0.576399
vt 0.556837 0.608572
vt 0.593853 0.565617
vt 0.611558 0.562498
vt 0.594022 0.580549
vt 0.624784 0.585552
vt 0.629208 0.614933
vt 0.591634 0.617166
vt 0.550881 0.637769
vt 0.501942 0.658314
vt 0.591169 0.645713
vt 0.630522 0.645206
vt 0.547774 0.667388
vt 0.58928 0.672345
vt 0.630031 0.672611
vt 0.495384 0.692782
vt 0.449907 0.682405
vt 0.437006 0.72028
vt 0.490047 0.730604
vt 0.546055 0.697698
vt 0.545925 0.72728
vt 0.589708 0.696533
vt 0.629422 0.699867
vt 0.593158 0.727147
vt 0.631515 0.729809
vt 0.511582 0.519717
vt 0.502062 0.573301
vt 0.527894 0.537805
vt 0.53834 0.485626
vt 0.555522 0.506795
vt 0.566187 0.456913
vt 0.492526 0.504561
vt 0.538311 0.435647
vt 0.516961 0.469146
vt 0.471204 0.492005
vt 0.491307 0.457089
vt 0.507991 0.421224
vt 0.473187 0.412197
vt 0.46161 0.446277
vt 0.444971 0.481475
vt 0.425373 0.514146
vt 0.466901 0.54198
vt 0.48441 0.556592
vt 0.458053 0.593588
vt 0.447921 0.527452
vt 0.422842 0.563529
vt 0.440426 0.579079
vt 0.436029 0.631447
vt 0.414347 0.615113
vt 0.492526 0.504561
vt 0.48441 0.556592
vt 0.511582 0.519717
vt 0.502062 0.573301
vt 0.481315 0.609764
vt 0.458053 0.593588
vt 0.511629 0.625209
vt 0.463719 0.645597
vt 0.501942 0.658314
vt 0.436029 0.631447
vt 0.449907 0.682405
vt 0.414152 0.666203
vt 0.396008 0.702576
vt 0.437006 0.72028
vt 0.364731 0.682478
vt 0.388743 0.648546
vt 0.342462 0.661528
vt 0.368695 0.629349
vt 0.414347 0.615113
vt 0.396284 0.598161
vt 0.422842 0.563529
vt 0.440426 0.579079
vt 0.322787 0.637659
vt 0.342462 0.661528
vt 0.368695 0.629349
vt 0.351501 0.609307
vt 0.304288 0.60748
vt 0.378011 0.579845
vt 0.396284 0.598161
vt 0.330456 0.583229
vt 0.28255 0.562927
vt 0.402865 0.548453
vt 0.422842 0.563529
vt 0.425373 0.514146
vt 0.30655 0.54432
vt 0.264095 0.507975
vt 0.35539 0.558403
vt 0.378536 0.530655
vt 0.282896 0.496014
vt 0.251319 0.460342
vt 0.327802 0.525567
vt 0.269236 0.453838
vt 0.244642 0.426858
vt 0.299654 0.483265
vt 0.397454 0.501428
vt 0.444971 0.481475
vt 0.345859 0.504986
vt 0.415073 0.470511
vt 0.46161 0.446277
vt 0.360568 0.481904
vt 0.313396 0.471702
vt 0.428996 0.439196
vt 0.473187 0.412197
vt 0.435875 0.407405
vt 0.377906 0.458417
vt 0.388552 0.431313
vt 0.394722 0.402883
vt 0.348668 0.399532
vt 0.334974 0.46602
vt 0.285409 0.447406
vt 0.333316 0.443769
vt 0.30646 0.443448
vt 0.343981 0.423638
vt 0.307034 0.420237
vt 0.309717 0.398182
vt 0.282758 0.421591
vt 0.280931 0.398182
vt 0.259197 0.399129
vt 0.262707 0.424325
vt 0.240334 0.400849
vt 0.223122 0.578098
vt 0.22559 0.623066
vt 0.250973 0.589004
vt 0.202627 0.611082
vt 0.176417 0.600066
vt 0.192682 0.569655
vt 0.180731 0.639244
vt 0.202076 0.652588
vt 0.156055 0.625437
vt 0.145943 0.590681
vt 0.159658 0.563491
vt 0.177307 0.683538
vt 0.19695 0.697038
vt 0.127362 0.614697
vt 0.114831 0.584671
vt 0.124852 0.559723
vt 0.157056 0.667044
vt 0.14912 0.709444
vt 0.16793 0.725615
vt 0.13121 0.689278
vt 0.133609 0.649472
vt 0.12098 0.731182
vt 0.137641 0.751593
vt 0.10492 0.707514
vt 0.10352 0.610555
vt 0.119266 0.634063
vt 0.100169 0.637952
vt 0.113195 0.664973
vt 0.080463 0.609625
vt 0.090481 0.677722
vt 0.080147 0.643524
vt 0.07698 0.724538
vt 0.092008 0.752486
vt 0.085567 0.582526
vt 0.090787 0.55904
vt 0.057517 0.612478
vt 0.05862 0.583371
vt 0.060755 0.560577
vt 0.034524 0.586313
vt 0.034101 0.563491
vt 0.01 0.568164
vt 0.011185 0.590033
vt 0.034309 0.616802
vt 0.011441 0.620372
vt 0.058993 0.650256
vt 0.035574 0.656822
vt 0.011074 0.661788
vt 0.066222 0.690068
vt 0.03944 0.701233
vt 0.012556 0.71015
vt 0.048496 0.740553
vt 0.018872 0.754715
vt 0.061094 0.77227
vt 0.030072 0.791377
vt 0.075877 0.798592
vt 0.107416 0.775483
vt 0.59789 0.827467
vt 0.646851 0.812694
vt 0.604231 0.801324
vt 0.643041 0.834623
vt 0.59913 0.860757
vt 0.692224 0.82001
vt 0.688 0.840333
vt 0.735509 0.824481
vt 0.732612 0.845413
vt 0.775966 0.851617
vt 0.778634 0.828524
vt 0.772104 0.876068
vt 0.824332 0.830918
vt 0.82096 0.854494
vt 0.438736 0.351866
vt 0.384005 0.391755
vt 0.440179 0.392296
vt 0.383558 0.351513
vt 0.435828 0.312705
vt 0.336048 0.38399
vt 0.380625 0.316412
vt 0.429167 0.274305
vt 0.336979 0.34933
vt 0.301495 0.345865
vt 0.299113 0.375968
vt 0.335759 0.317871
vt 0.301699 0.313924
vt 0.374774 0.284813
vt 0.331718 0.287199
vt 0.305531 0.281708
vt 0.321491 0.246517
vt 0.421711 0.236946
vt 0.468819 0.222259
vt 0.457899 0.175899
vt 0.411987 0.197494
vt 0.369392 0.252937
vt 0.360675 0.222474
vt 0.335339 0.265328
vt 0.832708 0.392472
vt 0.835375 0.341535
vt 0.806074 0.340508
vt 0.804257 0.389836
vt 0.832312 0.449203
vt 0.775774 0.337628
vt 0.803388 0.447209
vt 0.833792 0.490084
vt 0.773683 0.386891
vt 0.744776 0.337974
vt 0.802951 0.491903
vt 0.836577 0.524736
vt 0.739955 0.38315
vt 0.7129 0.336667
vt 0.728922 0.405986
vt 0.771008 0.444974
vt 0.805214 0.526241
vt 0.841515 0.565642
vt 0.807549 0.570132
vt 0.769567 0.492192
vt 0.770972 0.526204
vt 0.772144 0.56965
vt 0.734656 0.526384
vt 0.736278 0.56839
vt 0.73705 0.499184
vt 0.702521 0.43455
vt 0.704446 0.523453
vt 0.702042 0.566871
vt 0.702503 0.487719
vt 0.663914 0.425524
vt 0.674598 0.48216
vt 0.627205 0.424833
vt 0.676316 0.52414
vt 0.672824 0.565642
vt 0.643894 0.47718
vt 0.586669 0.425748
vt 0.604512 0.473745
vt 0.648998 0.522301
vt 0.646671 0.561021
vt 0.618758 0.518846
vt 0.317381 0.719995
vt 0.264706 0.707346
vt 0.283885 0.737458
vt 0.295815 0.682166
vt 0.348727 0.699839
vt 0.325121 0.654529
vt 0.243384 0.68381
vt 0.271729 0.654409
vt 0.299542 0.62415
vt 0.274564 0.603833
vt 0.222903 0.666592
vt 0.214545 0.713495
vt 0.247831 0.635875
vt 0.250973 0.589004
vt 0.22559 0.623066
vt 0.202076 0.652588
vt 0.19695 0.697038
vt 0.183627 0.742348
vt 0.16793 0.725615
vn 0.4391215 0.8532475 -0.2813203
vn 0.2103059 0.8940951 -0.3954306
vn 0.3451549 0.8526192 -0.3923118
vn 0.09263425 -0.9686866 -0.2303587
vn 0.2497649 -0.7883056 -0.5623093
vn 0.1461533 -0.7746604 -0.6152563
vn 0.05278127 -0.9632208 -0.2634765
vn 0.00259337 -0.998969 -0.0453246
vn 0.006624426 -0.9994608 -0.03216223
vn -0.0002592159 -0.9999996 0.0008393567
vn 0.006562611 -0.9560446 -0.2931475
vn 0.02831137 -0.7564657 -0.6534203
vn -0.001044252 -0.9999944 -0.003199943
vn 0.0009778235 -0.9999806 0.006155622
vn -0.000487816 -0.999985 0.005463046
vn -0.0004509765 -0.9983873 -0.0567674
vn -3.921012E-05 -0.9999903 -0.004395864
vn 0.0003723605 -0.9999893 0.00461772
vn 0.002257746 -0.999987 -0.004569457
vn 0.00231806 -0.9999906 0.003679474
vn -0.003586981 -0.997933 -0.0641629
vn -0.03207241 -0.9454798 -0.3240975
vn -0.06402797 -0.7360881 -0.6738507
vn 0.0689617 -0.3930269 -0.9169374
vn -0.06995539 -0.391011 -0.9177237
vn 0.3791713 -0.4449089 -0.8113477
vn 0.1461533 -0.7746604 -0.6152563
vn 0.2497649 -0.7883056 -0.5623093
vn 0.2183339 -0.4125792 -0.8843691
vn 0.02831137 -0.7564657 -0.6534203
vn 0.4470204 -0.007112832 -0.8944955
vn 0.0689617 -0.3930269 -0.9169374
vn 0.2601181 0.02350598 -0.9652906
vn 0.4524767 0.3897898 -0.8020778
vn 0.1060422 0.02970381 -0.9939178
vn 0.2643815 0.3989654 -0.8780257
vn -0.05872288 0.03918862 -0.9975049
vn -0.06995539 -0.391011 -0.9177237
vn 0.1181865 0.4120456 -0.9034657
vn -0.0471269 0.4309173 -0.9011599
vn 0.2443326 0.6547031 -0.715308
vn 0.4238242 0.6292573 -0.6514663
vn 0.3988754 0.7603366 -0.5126271
vn 0.1099891 0.6762168 -0.7284458
vn -0.0361486 0.6838259 -0.7287492
vn 0.2183622 0.8033931 -0.5539653
vn 0.3451549 0.8526192 -0.3923118
vn 0.2103059 0.8940951 -0.3954306
vn 0.1039194 0.8172824 -0.5667893
vn -0.008714868 0.8071136 -0.5903319
vn -0.5137908 0.1318694 -0.8477201
vn -0.7246297 0.2006931 -0.6592678
vn -0.6696064 -0.3151246 -0.6725502
vn -0.4546996 -0.3648804 -0.8124719
vn -0.2756612 0.07370132 -0.9584253
vn -0.2663774 0.4684269 -0.842389
vn -0.0471269 0.4309173 -0.9011599
vn -0.2420597 -0.3837946 -0.8911279
vn -0.05872288 0.03918862 -0.9975049
vn -0.06995539 -0.391011 -0.9177237
vn -0.7246297 0.2006931 -0.6592678
vn -0.8478665 0.2555267 -0.4645733
vn -0.8261619 -0.2544348 -0.5027121
vn -0.6696064 -0.3151246 -0.6725502
vn -0.7246297 0.2006931 -0.6592678
vn -0.699526 0.6093999 -0.3732227
vn -0.8478665 0.2555267 -0.4645733
vn -0.6245041 0.5769492 -0.526426
vn -0.546517 0.7837372 -0.2950849
vn -0.4837965 0.5280969 -0.6978929
vn -0.5137908 0.1318694 -0.8477201
vn -0.2663774 0.4684269 -0.842389
vn -0.5065005 0.7607661 -0.4058226
vn -0.3530665 0.9129984 -0.2043969
vn -0.4115223 0.7257168 -0.5513479
vn -0.3423401 0.8966537 -0.2807408
vn -0.1478066 0.9799551 -0.1335703
vn -0.2308973 0.688568 -0.6874304
vn -0.3027716 0.8550593 -0.4209548
vn -0.0361486 0.6838259 -0.7287492
vn -0.0471269 0.4309173 -0.9011599
vn -0.008714868 0.8071136 -0.5903319
vn -0.1672706 0.804359 -0.5701117
vn 0.01966445 0.9025493 -0.4301373
vn -0.08805968 0.8944161 -0.4384806
vn 0.01153644 0.9599883 -0.2798024
vn -0.127567 0.9438236 -0.3048339
vn -0.02707829 0.9919032 -0.1240757
vn -0.1303487 0.9816765 -0.1389979
vn 0.03221406 0.9950166 -0.09436142
vn -0.004897889 0.9890788 -0.1473061
vn -0.136741 0.972369 -0.1892103
vn -0.6696064 -0.3151246 -0.6725502
vn -0.8261619 -0.2544348 -0.5027121
vn -0.5991951 -0.6889239 -0.4078594
vn -0.4660949 -0.7117614 -0.525501
vn -0.2766176 -0.9387708 -0.2054071
vn -0.4546996 -0.3648804 -0.8124719
vn -0.2302574 -0.9325545 -0.2780709
vn -0.05118979 -0.9979712 -0.03785564
vn -0.3241707 -0.7182975 -0.6155989
vn -0.1876781 -0.7255996 -0.6620288
vn -0.2420597 -0.3837946 -0.8911279
vn -0.06402797 -0.7360881 -0.6738507
vn -0.06995539 -0.391011 -0.9177237
vn -0.03207241 -0.9454798 -0.3240975
vn -0.16685 -0.9304074 -0.326348
vn -0.09747612 -0.9353941 -0.3399064
vn -0.003586981 -0.997933 -0.0641629
vn -0.01691739 -0.997497 -0.06865357
vn -0.0337975 -0.9969966 -0.06968217
vn 0.0006979078 -0.9999976 0.002096673
vn 0.002815287 -0.9999937 -0.002208234
vn 0.002257746 -0.999987 -0.004569457
vn 0.00231806 -0.9999906 0.003679474
vn -0.04300038 -0.9975655 -0.05490091
vn 0.001854852 -0.9999928 0.003299944
vn 0.002954943 -0.9999926 0.00248431
vn 0.001680716 -0.9999923 0.003571457
vn 0.0002602181 -0.9999931 0.003715839
vn 0.00046213 -0.9999939 0.003455376
vn -0.0001647992 -0.9999913 0.004164292
vn -0.00025637 -0.9999908 0.004290618
vn -0.0002587819 -0.9999907 0.004324268
vn 0.0006525132 -0.9999928 0.003741177
vn -0.6747736 -0.6669819 -0.3159361
vn -0.5991951 -0.6889239 -0.4078594
vn -0.8261619 -0.2544348 -0.5027121
vn -0.9151924 -0.1826396 -0.359257
vn -0.7361607 -0.6505667 -0.1866291
vn -0.8478665 0.2555267 -0.4645733
vn -0.97304 -0.1254588 -0.1935283
vn -0.7757135 -0.6310183 0.009186802
vn -0.9079559 0.2920119 -0.3005747
vn -0.699526 0.6093999 -0.3732227
vn -0.7503307 0.6181427 -0.2343145
vn -0.9960287 -0.08580682 0.02374962
vn -0.7772995 -0.5957208 0.2022923
vn -0.934759 0.3261444 -0.1409103
vn -0.7853529 0.6102567 -0.1039585
vn -0.6011503 0.7932485 -0.09682644
vn -0.6228327 0.78232 -0.007413786
vn -0.9714166 -0.05943539 0.2298197
vn -0.7535391 -0.5647306 0.3365385
vn -0.9301009 -0.05413019 0.3632934
vn -0.8939859 0.3345115 0.2981464
vn -0.9386352 0.3437009 0.02887209
vn -0.7969928 0.6037962 0.01524533
vn -0.6205993 0.7816121 0.06276139
vn -0.9213623 0.3422582 0.1842571
vn -0.7764018 0.5914674 0.2176385
vn -0.7935374 0.5968953 0.1183819
vn -0.6018813 0.7841213 0.1513036
vn 0.0005026317 -0.9999989 -0.001404453
vn 0.000592166 -0.9999994 -0.0009579672
vn 0.0003319631 -0.9999995 -0.0009372797
vn 0.0002321153 -0.9999988 -0.001561043
vn 0.0005564814 -0.9999994 -0.0009750408
vn 0.0004806651 -0.9999977 -0.00211055
vn 0.001066184 -0.9999981 -0.001645127
vn 0.0009824382 -0.9999971 -0.002215429
vn 0.0004081674 -0.9999955 -0.002973188
vn 0.000217665 -0.9999995 -0.0010026
vn 0.0003681764 -0.9999998 0.0005852831
vn 3.023973E-05 -0.9999992 -0.001312572
vn 0.0001564433 -0.9999982 -0.001897708
vn 0.0002427643 -0.9999999 -0.0003869003
vn 0.0001881517 -0.9999999 -0.0003807441
vn -0.0003587418 -0.9999986 0.001658623
vn 1.899665E-05 -1 -0.0004002608
vn 0.0001694285 -1 0.0002169021
vn 0.0006288419 -0.9999996 0.0005459324
vn 0.0007121862 -0.9999989 0.001267478
vn 0.001546408 -0.9999976 0.001556736
vn 0.001934361 -0.9999952 0.002431271
vn 0.0005611149 -0.9999981 0.001875379
vn -0.0003658261 -0.9999948 0.003219685
vn 0.0006523052 -0.9999858 0.005287183
vn 0.001489 -0.9999939 0.003143847
vn 0.002954943 -0.9999926 0.00248431
vn 0.00231806 -0.9999906 0.003679474
vn 0.0003723605 -0.9999893 0.00461772
vn 0.0006564351 -0.9999901 0.004419893
vn 0.0009778235 -0.9999806 0.006155622
vn -0.000487816 -0.999985 0.005463046
vn 0.0001564433 -0.9999982 -0.001897708
vn -0.0009152044 -0.9999952 -0.002973124
vn 0.0004081674 -0.9999955 -0.002973188
vn -0.0004393036 -0.9999985 -0.001733793
vn -0.001366347 -0.9999981 -0.001402511
vn 5.269073E-05 -1 -0.0001551506
vn 0.0002427643 -0.9999999 -0.0003869003
vn 0.0007121862 -0.9999989 0.001267478
vn -0.0003059947 -0.9999999 -0.000431379
vn -0.0001273226 -1 -1.924498E-05
vn 0.000330211 -0.9999987 0.001598426
vn 0.001934361 -0.9999952 0.002431271
vn 0.0003560823 -0.9999998 0.000545084
vn 0.000811148 -0.9999992 0.001005449
vn -0.000714177 -0.9999938 0.003465084
vn 0.0005916495 -0.9999938 0.003481188
vn 0.002954943 -0.9999926 0.00248431
vn 0.001680716 -0.9999923 0.003571457
vn 0.0006052793 -0.9999987 0.001527644
vn 0.0003274377 -0.9999962 0.00275515
vn -0.00025637 -0.9999908 0.004290618
vn 0.001084863 -0.9999962 0.00254365
vn -0.05824532 -0.9975724 0.03816815
vn 0.001327074 -0.9999986 0.00112347
vn 0.001065495 -0.9999956 0.002761948
vn 0.0006525132 -0.9999928 0.003741177
vn 0.001264891 -0.9999981 0.001536601
vn 0.001913208 -0.9999964 0.001870067
vn -0.04988052 -0.998577 0.01886415
vn 0.0009642149 -0.9999971 0.002223724
vn 0.00046213 -0.9999939 0.003455376
vn 0.002069344 -0.9999973 0.001116575
vn -0.3256414 -0.9407635 0.09445386
vn -0.3362317 -0.9262208 0.1704795
vn -0.04652109 -0.9989147 0.002261675
vn -0.04865846 -0.998414 -0.02831548
vn -0.05118979 -0.9979712 -0.03785564
vn -0.2766176 -0.9387708 -0.2054071
vn -0.04538544 -0.9988455 -0.0157441
vn -0.2940487 -0.9429383 -0.1562137
vn -0.5991951 -0.6889239 -0.4078594
vn -0.6747736 -0.6669819 -0.3159361
vn -0.3028552 -0.9487488 -0.09030195
vn -0.7361607 -0.6505667 -0.1866291
vn -0.3177756 -0.9481641 0.001849112
vn -0.7757135 -0.6310183 0.009186802
vn -0.7772995 -0.5957208 0.2022923
vn -0.7535391 -0.5647306 0.3365385
vn 0.8336026 -0.04412929 -0.550599
vn 0.886305 0.3468884 -0.3068093
vn 0.8168673 0.347135 -0.460679
vn 0.6612607 -0.03236629 -0.7494577
vn 0.5388051 -0.4790812 -0.6929432
vn 0.6831588 -0.511466 -0.5212454
vn 0.3265853 -0.8211821 -0.4679765
vn 0.2497649 -0.7883056 -0.5623093
vn 0.3791713 -0.4449089 -0.8113477
vn 0.4470204 -0.007112832 -0.8944955
vn 0.6710533 0.3623877 -0.6468095
vn 0.4524767 0.3897898 -0.8020778
vn 0.6226337 0.6010384 -0.501079
vn 0.4238242 0.6292573 -0.6514663
vn 0.7282992 0.5877661 -0.3522944
vn 0.7730976 0.591109 -0.2300221
vn 0.6145967 0.7425891 -0.2661437
vn 0.5592417 0.7390133 -0.3756436
vn 0.3988754 0.7603366 -0.5126271
vn 0.4391215 0.8532475 -0.2813203
vn 0.3451549 0.8526192 -0.3923118
vn 0.8168673 0.347135 -0.460679
vn 0.886305 0.3468884 -0.3068093
vn 0.7730976 0.591109 -0.2300221
vn 0.8017702 0.5821069 -0.1353367
vn 0.9154809 0.3542991 -0.1907014
vn 0.9642741 -0.03330771 -0.2628041
vn 0.9338549 0.3483912 -0.08086292
vn 0.992107 -0.05423393 -0.1130592
vn 0.8228948 0.5651003 -0.05920911
vn 0.9445322 0.3240011 0.05368651
vn 0.9933792 -0.08956912 0.07193752
vn 0.9434857 0.2849544 0.1692205
vn 0.8406937 0.5410988 0.02112322
vn 0.8498462 0.5182624 0.09573683
vn 0.6354111 0.7499574 -0.1838925
vn 0.6145967 0.7425891 -0.2661437
vn 0.6567048 0.7456157 -0.1131191
vn 0.47085 0.8571669 -0.2087226
vn 0.4391215 0.8532475 -0.2813203
vn 0.4858145 0.8579826 -0.1668834
vn 0.5107099 0.8525746 -0.1108687
vn 0.6889251 0.7226203 -0.05658615
vn 0.5321527 0.8445644 -0.05936756
vn 0.7088954 0.7052854 -0.006302271
vn 0.7125372 0.6998006 0.05069453
vn 0.5507159 0.8344788 -0.01890131
vn 0.5459077 0.836769 0.04245522
vn 0.0006523052 -0.9999858 0.005287183
vn -0.0002592159 -0.9999996 0.0008393567
vn 0.0009778235 -0.9999806 0.006155622
vn -0.0008932564 -0.9999913 0.004083342
vn -0.0003658261 -0.9999948 0.003219685
vn 0.008683366 -0.9998066 -0.01765109
vn 0.006624426 -0.9994608 -0.03216223
vn -0.002629017 -0.9999863 0.004531175
vn -0.0003587418 -0.9999986 0.001658623
vn 0.0090277 -0.9999342 -0.007078914
vn -0.002126489 -0.9999875 0.00452567
vn 0.0003681764 -0.9999998 0.0005852831
vn 0.1069468 -0.9790197 -0.1734439
vn 0.09263425 -0.9686866 -0.2303587
vn 0.2497649 -0.7883056 -0.5623093
vn 0.3265853 -0.8211821 -0.4679765
vn -0.0008981009 -0.9999952 0.002958927
vn 0.0005564814 -0.9999994 -0.0009750408
vn 0.1122702 -0.988458 -0.1017159
vn 0.3855942 -0.863103 -0.3261444
vn 0.6831588 -0.511466 -0.5212454
vn 0.3917947 -0.8949865 -0.2132981
vn 0.755032 -0.5402726 -0.371527
vn 0.7745111 -0.5763864 -0.2605978
vn 0.007510005 -0.9999708 -0.001460107
vn 0.1014339 -0.9932234 -0.0567312
vn 0.3523813 -0.9255494 -0.1385122
vn 0.768052 -0.6304119 -0.112592
vn 0.07982206 -0.9962059 -0.03467048
vn 0.3123733 -0.948387 -0.05463534
vn 0.740952 -0.6690695 0.05775972
vn 0.003471301 -0.999994 0.0001624386
vn 0.2836701 -0.9587318 0.01909385
vn 0.7079973 -0.6768011 0.2016931
vn 0.269576 -0.9595684 0.08097674
vn 0.06440026 -0.9978491 -0.01223314
vn 0.05565489 -0.9984484 0.001833634
vn 0.04635013 -0.998872 0.01031299
vn 0.0002699073 -0.9999942 -0.003427628
vn 8.771208E-05 -1 -0.0001461353
vn -0.0004642059 -0.9999988 -0.001475803
vn -0.0007988389 -0.9999954 -0.002956176
vn -0.0001208606 -1 1.361585E-05
vn 0.0005026317 -0.9999989 -0.001404453
vn 0.0001798941 -0.9999988 -0.001588053
vn 0.0003319631 -0.9999995 -0.0009372797
vn 0.1039194 0.8172824 -0.5667893
vn 0.01966445 0.9025493 -0.4301373
vn -0.008714868 0.8071136 -0.5903319
vn 0.1102118 0.9055153 -0.4097504
vn 0.2103059 0.8940951 -0.3954306
vn -0.01089394 0.7679821 0.6403787
vn 0.1314657 0.605924 0.7845845
vn 0.006481032 0.60023 0.7998011
vn 0.08754055 0.7679687 0.6344768
vn -0.01640759 0.8323422 0.554019
vn 0.2394004 0.6068653 0.757893
vn 0.2755533 0.3578731 0.8921868
vn 0.4035963 0.3983719 0.8236564
vn 0.04873307 0.8352107 0.5477666
vn -0.02325959 0.8701596 0.4922207
vn 0.182184 0.7506566 0.6350776
vn 0.03453726 0.8793186 0.47498
vn -0.04544048 0.9243809 0.3787547
vn 0.3563037 0.6109925 0.7069199
vn 0.1317633 0.8220752 0.5539231
vn 0.03159612 0.9320976 0.3608266
vn -0.06767888 0.9503697 0.3036728
vn 0.2913251 0.7362201 0.610827
vn 0.1049379 0.881392 0.4605825
vn 0.03304053 0.9608652 0.2750387
vn -0.08669995 0.9668536 0.2401612
vn 0.2323248 0.8163969 0.5286977
vn 0.1105659 0.9343231 0.3388443
vn 0.03216137 0.9755995 0.2171898
vn -0.111362 0.9769588 0.1820715
vn 0.4292056 0.7568777 0.492868
vn 0.1696158 0.8780534 0.4474961
vn 0.1293304 0.9601228 0.2478667
vn 0.2092109 0.9160002 0.3423075
vn 0.0222179 0.9865252 0.1620938
vn -0.1305288 0.9824072 0.1335604
vn 0.00858993 0.9946764 0.1026895
vn 0.3258108 0.8493036 0.4153681
vn 0.1496819 0.9720398 0.1809256
vn 0.1611061 0.9767005 0.1417781
vn 0.1498046 0.9846264 0.08983023
vn 0.211925 0.9462547 0.2443149
vn 0.2057522 0.9696234 0.1322743
vn 0.2048302 0.9750392 0.08569133
vn 0.209149 0.9650127 0.1581367
vn 0.3554946 0.8889669 0.2887236
vn 0.3114191 0.9401031 0.1386517
vn 0.3192769 0.9451319 0.06919521
vn 0.333006 0.9228409 0.193576
vn 0.5257308 0.8404117 0.1315872
vn 0.5459077 0.836769 0.04245522
vn 0.5144854 0.8260106 0.2302418
vn 0.6942752 0.7049249 0.1451305
vn 0.7125372 0.6998006 0.05069453
vn 0.6641915 0.6961912 0.2723371
vn 0.498389 0.794118 0.347829
vn 0.616245 0.6657834 0.4206835
vn 0.503953 0.6310694 0.5897311
vn 0.7188943 0.4705033 0.5116811
vn 0.8047146 0.4935019 0.3299853
vn 0.8929847 0.1952604 0.4055263
vn 0.7831594 0.1463871 0.6043444
vn 0.5698934 0.4391246 0.6945438
vn 0.6039581 0.07723781 0.7932647
vn 0.4247538 0.03110534 0.9047743
vn 0.1314657 0.605924 0.7845845
vn 0.02599349 0.3082596 0.9509471
vn 0.006481032 0.60023 0.7998011
vn 0.1534734 0.3250796 0.9331502
vn 0.0304112 -0.07556444 0.996677
vn 0.2755533 0.3578731 0.8921868
vn 0.1511929 -0.04705282 0.9873838
vn 0.02124114 -0.4829578 0.8753859
vn 0.2798416 -0.01227459 0.9599677
vn 0.1209603 -0.4558119 0.8818187
vn 0.007399178 -0.8125018 0.5829117
vn 0.2498133 -0.4317174 0.8667258
vn 0.4247538 0.03110534 0.9047743
vn 0.4035963 0.3983719 0.8236564
vn 0.3800309 -0.4108448 0.8287237
vn 0.5264005 -0.3776303 0.7617728
vn 0.6039581 0.07723781 0.7932647
vn 0.2686889 -0.7555726 0.5974248
vn 0.1701632 -0.7805545 0.6014807
vn 0.07011054 -0.7986844 0.597652
vn 0.02599349 0.3082596 0.9509471
vn -0.1300371 0.5976251 0.7911602
vn 0.006481032 0.60023 0.7998011
vn -0.1271767 0.7563953 0.6416325
vn -0.01089394 0.7679821 0.6403787
vn -0.2631127 0.7455533 0.6123087
vn -0.2920066 0.6016992 0.7434314
vn -0.1147276 0.8131285 0.5706661
vn -0.01640759 0.8323422 0.554019
vn -0.3825265 0.7412797 0.5515233
vn -0.4620267 0.5991033 0.6539163
vn -0.4785123 0.7400996 0.4725235
vn -0.205393 0.8340117 0.5120921
vn -0.2648637 0.8540659 0.4476814
vn -0.0828287 0.8526085 0.5159438
vn -0.02325959 0.8701596 0.4922207
vn -0.1316358 0.8968049 0.4223897
vn -0.04544048 0.9243809 0.3787547
vn -0.06767888 0.9503697 0.3036728
vn -0.1526399 0.924903 0.3482177
vn -0.3122209 0.8761064 0.3673632
vn -0.5292122 0.7574167 0.3824322
vn -0.1692896 0.9484234 0.2680188
vn -0.08669995 0.9668536 0.2401612
vn -0.3286357 0.901192 0.28258
vn -0.1850063 0.9628456 0.1967261
vn -0.111362 0.9769588 0.1820715
vn -0.567546 0.7757856 0.2757686
vn -0.7349927 0.5885167 0.3367993
vn -0.7764018 0.5914674 0.2176385
vn -0.6018813 0.7841213 0.1513036
vn -0.334149 0.9200308 0.2046648
vn -0.3537652 0.929351 0.1056264
vn -0.1927442 0.9683041 0.1588611
vn -0.1305288 0.9824072 0.1335604
vn -0.2144268 0.9730306 0.08504465
vn -0.1372412 0.9883526 0.06575586
vn -0.310349 0.3101403 0.8986081
vn -0.4620267 0.5991033 0.6539163
vn -0.2920066 0.6016992 0.7434314
vn -0.1235055 0.3022279 0.9452009
vn -0.1300371 0.5976251 0.7911602
vn 0.02599349 0.3082596 0.9509471
vn -0.3014992 -0.1197028 0.9459226
vn 0.0304112 -0.07556444 0.996677
vn -0.1140564 -0.09541637 0.9888816
vn -0.2521867 -0.5386728 0.8038865
vn -0.101943 -0.5125335 0.8525943
vn 0.02124114 -0.4829578 0.8753859
vn 0.007399178 -0.8125018 0.5829117
vn -0.06753054 -0.8267136 0.5585555
vn -0.1633079 -0.8370124 0.5222457
vn -0.2308942 -0.846669 0.4794156
vn -0.4942647 -0.1378925 0.8583053
vn -0.5105888 0.3192864 0.7983453
vn -0.684542 0.3187721 0.6555811
vn -0.3864273 -0.5584411 0.7340419
vn -0.5230516 -0.5677896 0.6356351
vn -0.6810447 -0.1267644 0.7211858
vn -0.7929841 0.3217273 0.5173662
vn -0.8186294 -0.09793333 0.5659108
vn -0.3014992 -0.1197028 0.9459226
vn -0.5105888 0.3192864 0.7983453
vn -0.310349 0.3101403 0.8986081
vn -0.4620267 0.5991033 0.6539163
vn -0.5907586 0.5867093 0.5538741
vn -0.684542 0.3187721 0.6555811
vn -0.4785123 0.7400996 0.4725235
vn -0.6763222 0.5794448 0.4547877
vn -0.5292122 0.7574167 0.3824322
vn -0.7929841 0.3217273 0.5173662
vn -0.7349927 0.5885167 0.3367993
vn -0.8581045 0.3217842 0.4001395
vn -0.8939859 0.3345115 0.2981464
vn -0.7764018 0.5914674 0.2176385
vn -0.9301009 -0.05413019 0.3632934
vn -0.8908136 -0.06966794 0.4489959
vn -0.7535391 -0.5647306 0.3365385
vn -0.7219763 -0.5598286 0.4066225
vn -0.8186294 -0.09793333 0.5659108
vn -0.6535767 -0.5639073 0.5048227
vn -0.5230516 -0.5677896 0.6356351
vn -0.6810447 -0.1267644 0.7211858
vn -0.3362317 -0.9262208 0.1704795
vn -0.7535391 -0.5647306 0.3365385
vn -0.7219763 -0.5598286 0.4066225
vn -0.3555022 -0.9077118 0.2228842
vn -0.05824532 -0.9975724 0.03816815
vn -0.3450463 -0.8921152 0.2916737
vn -0.6535767 -0.5639073 0.5048227
vn -0.07272245 -0.9960263 0.05141155
vn -0.000714177 -0.9999938 0.003465084
vn -0.2942869 -0.8685738 0.3987162
vn -0.5230516 -0.5677896 0.6356351
vn -0.2308942 -0.846669 0.4794156
vn -0.004045129 -0.9999881 0.002761407
vn -0.0001273226 -1 -1.924498E-05
vn -0.08497979 -0.9937203 0.07279035
vn -0.07953392 -0.98966 0.1193634
vn -0.001267295 -0.9999983 -0.001300823
vn -0.001366347 -0.9999981 -0.001402511
vn -0.00633312 -0.9999783 0.00179597
vn -0.002262914 -0.9999954 -0.002063163
vn -0.0009152044 -0.9999952 -0.002973124
vn -0.002302734 -0.999995 -0.002172895
vn -0.06997271 -0.9839961 0.1638764
vn -0.1633079 -0.8370124 0.5222457
vn -0.004946642 -0.9999692 0.006088486
vn -0.05376698 -0.9800022 0.1915852
vn -0.06753054 -0.8267136 0.5585555
vn -0.00420387 -0.9998932 0.01399913
vn -0.002543838 -0.9999949 -0.001972753
vn -0.02179444 -0.9762565 0.2155184
vn 0.007399178 -0.8125018 0.5829117
vn 0.001268507 -0.9724731 0.2330113
vn -0.003298037 -0.9997051 0.02405669
vn 0.0001091289 -0.9995086 0.03134399
vn -1.809712E-05 -0.9993336 0.03650149
vn 8.07824E-05 -0.9999999 0.0004522474
vn -0.002363399 -0.9999963 -0.001371827
vn -0.002061916 -0.9999958 -0.002049413
vn -0.0002106652 -0.9999998 -0.0006899747
vn -0.0009305443 -0.9999981 -0.001758313
vn 0.001041634 -0.9999994 0.0003440216
vn 0.0009245423 -0.9999987 -0.00131079
vn 0.0008018762 -0.9999981 -0.001800788
vn 0.0002098392 -0.9999998 -0.0007808637
vn 0.001371581 -0.999999 -0.0002445152
vn 0.0009824382 -0.9999971 -0.002215429
vn -0.0008269217 -0.9999964 -0.002576083
vn 0.0004081674 -0.9999955 -0.002973188
vn 0.269576 -0.9595684 0.08097674
vn 0.6668947 -0.6850677 0.2931445
vn 0.7079973 -0.6768011 0.2016931
vn 0.2626527 -0.9562625 0.1287463
vn 0.04181256 -0.9989385 0.01932796
vn 0.04635013 -0.998872 0.01031299
vn 0.2482306 -0.9545487 0.1649799
vn 0.6021234 -0.7081462 0.3687498
vn 0.04153431 -0.9988255 0.02495144
vn 0.0001127733 -0.9999923 -0.003938103
vn 0.0002699073 -0.9999942 -0.003427628
vn 0.4842753 -0.7255273 0.4889659
vn 0.7107828 -0.320501 0.6261524
vn -0.0009928161 -0.999992 -0.003882925
vn -0.002446363 -0.9999884 -0.00415492
vn -0.0007988389 -0.9999954 -0.002956176
vn 0.2091538 -0.9511763 0.2269765
vn 0.3601864 -0.7333826 0.576555
vn 0.5264005 -0.3776303 0.7617728
vn 0.156815 -0.9484306 0.2754785
vn 0.03406929 -0.9987412 0.03681597
vn 0.2686889 -0.7555726 0.5974248
vn 0.3800309 -0.4108448 0.8287237
vn 0.1134979 -0.9548808 0.2744466
vn -0.003472753 -0.9999828 -0.004713974
vn -0.001381174 -0.9999911 -0.003990659
vn -0.003579529 -0.9999847 -0.004225471
vn 0.01981652 -0.998807 0.04463184
vn -0.0004494143 -0.9999928 -0.003762225
vn 0.01195901 -0.9990451 0.04202111
vn -0.002168813 -0.9999934 -0.002924709
vn 0.06575815 -0.9646667 0.2551356
vn 0.1701632 -0.7805545 0.6014807
vn -0.0001494706 -0.9999985 -0.001761503
vn 0.0003319631 -0.9999995 -0.0009372797
vn 0.0002873592 -0.999995 -0.003165448
vn 0.0008783027 -0.9999992 -0.001013839
vn 0.000592166 -0.9999994 -0.0009579672
vn 0.0008954093 -0.9999994 -0.0006383448
vn 0.001066184 -0.9999981 -0.001645127
vn 0.0009824382 -0.9999971 -0.002215429
vn 0.001371581 -0.999999 -0.0002445152
vn -0.0001156066 -0.9999968 -0.002559972
vn 0.0008018762 -0.9999981 -0.001800788
vn -0.001553065 -0.9999983 -0.001045134
vn -0.001111677 -0.9999994 0.0001125859
vn 8.07824E-05 -0.9999999 0.0004522474
vn 0.005443956 -0.9992225 0.03904832
vn -0.0002538629 -0.9992828 0.03786587
vn -1.809712E-05 -0.9993336 0.03650149
vn 0.02123626 -0.9694031 0.2445537
vn 0.001268507 -0.9724731 0.2330113
vn 0.07011054 -0.7986844 0.597652
vn 0.007399178 -0.8125018 0.5829117
vn 0.1209603 -0.4558119 0.8818187
vn 0.2498133 -0.4317174 0.8667258
vn 0.9636579 -0.1271528 0.2349377
vn 0.740952 -0.6690695 0.05775972
vn 0.7079973 -0.6768011 0.2016931
vn 0.9933792 -0.08956912 0.07193752
vn 0.9434857 0.2849544 0.1692205
vn 0.768052 -0.6304119 -0.112592
vn 0.992107 -0.05423393 -0.1130592
vn 0.7745111 -0.5763864 -0.2605978
vn 0.9642741 -0.03330771 -0.2628041
vn 0.9223419 -0.04005332 -0.3842932
vn 0.755032 -0.5402726 -0.371527
vn 0.886305 0.3468884 -0.3068093
vn 0.6831588 -0.511466 -0.5212454
vn 0.8336026 -0.04412929 -0.550599
vn -0.6205993 0.7816121 0.06276139
vn -0.3537652 0.929351 0.1056264
vn -0.6018813 0.7841213 0.1513036
vn -0.376278 0.9263304 0.01807662
vn -0.6228327 0.78232 -0.007413786
vn -0.2144268 0.9730306 0.08504465
vn -0.3779216 0.9253222 -0.03089135
vn -0.6011503 0.7932485 -0.09682644
vn -0.2325467 0.9725757 -0.004302048
vn -0.166022 0.9861197 -0.002104856
vn -0.1372412 0.9883526 0.06575586
vn -0.2338128 0.9714527 -0.04014018
vn -0.1812816 0.9811741 -0.06659045
vn -0.3740576 0.9240493 -0.07882816
vn -0.2299446 0.9711519 -0.06316104
vn -0.136741 0.972369 -0.1892103
vn -0.1478066 0.9799551 -0.1335703
vn -0.5713389 0.7972214 -0.1949614
vn -0.7503307 0.6181427 -0.2343145
vn -0.699526 0.6093999 -0.3732227
vn -0.546517 0.7837372 -0.2950849
vn -0.3807002 0.9114536 -0.1559476
vn -0.3530665 0.9129984 -0.2043969
vn -0.1924848 0.9746206 -0.1142998
vn 0.00858993 0.9946764 0.1026895
vn -0.1305288 0.9824072 0.1335604
vn -0.1372412 0.9883526 0.06575586
vn -0.003717387 0.9991098 0.04202109
vn 0.1498046 0.9846264 0.08983023
vn -0.166022 0.9861197 -0.002104856
vn 0.1313624 0.99107 0.02289569
vn 0.2048302 0.9750392 0.08569133
vn -0.01770138 0.9997963 -0.009690614
vn -0.1812816 0.9811741 -0.06659045
vn 0.2043166 0.9788752 0.007621962
vn 0.3192769 0.9451319 0.06919521
vn -0.04971512 0.9956345 -0.07899597
vn -0.136741 0.972369 -0.1892103
vn -0.004897889 0.9890788 -0.1473061
vn 0.1276109 0.9893908 -0.06943677
vn 0.3281229 0.944613 -0.00644542
vn 0.5459077 0.836769 0.04245522
vn 0.5507159 0.8344788 -0.01890131
vn 0.1757869 0.9816747 -0.0735779
vn 0.3274241 0.9438368 -0.04433487
vn 0.5321527 0.8445644 -0.05936756
vn 0.3262419 0.9398136 -0.101571
vn 0.5107099 0.8525746 -0.1108687
vn 0.1544844 0.984466 -0.08343457
vn 0.03221406 0.9950166 -0.09436142
vn 0.305998 0.9406521 -0.1467609
vn 0.4858145 0.8579826 -0.1668834
vn 0.1544699 0.9840398 -0.0883436
vn -0.02707829 0.9919032 -0.1240757
vn 0.1431795 0.9730778 -0.1806077
vn 0.01153644 0.9599883 -0.2798024
vn 0.295247 0.9372335 -0.1855335
vn 0.47085 0.8571669 -0.2087226
vn 0.1221318 0.9538029 -0.2744882
vn 0.01966445 0.9025493 -0.4301373
vn 0.1102118 0.9055153 -0.4097504
vn 0.2518126 0.9302163 -0.2669981
vn 0.4391215 0.8532475 -0.2813203
vn 0.2103059 0.8940951 -0.3954306
vn 0.6942752 0.7049249 0.1451305
vn 0.8047146 0.4935019 0.3299853
vn 0.6641915 0.6961912 0.2723371
vn 0.8425474 0.5040298 0.1899155
vn 0.7125372 0.6998006 0.05069453
vn 0.8498462 0.5182624 0.09573683
vn 0.8929847 0.1952604 0.4055263
vn 0.9338862 0.2394652 0.2655425
vn 0.9434857 0.2849544 0.1692205
vn 0.9636579 -0.1271528 0.2349377
vn 0.8568213 -0.2458561 0.453224
vn 0.7831594 0.1463871 0.6043444
vn 0.9245402 -0.1790686 0.3363924
vn 0.7079973 -0.6768011 0.2016931
vn 0.6668947 -0.6850677 0.2931445
vn 0.6021234 -0.7081462 0.3687498
vn 0.7107828 -0.320501 0.6261524
vn 0.6039581 0.07723781 0.7932647
vn 0.5264005 -0.3776303 0.7617728
usemtl HoneyBread_Mat1
f 3/3/3 2/2/2 1/1/1
f 6/6/6 5/5/5 4/4/4
f 7/7/7 6/6/6 4/4/4
f 8/8/8 7/7/7 4/4/4
f 9/9/9 8/8/8 4/4/4
f 9/9/9 10/10/10 8/8/8
f 6/6/6 7/7/7 11/11/11
f 11/11/11 7/7/7 8/8/8
f 12/12/12 6/6/6 11/11/11
f 10/10/10 13/13/13 8/8/8
f 13/13/13 10/10/10 14/14/14
f 15/15/15 13/13/13 14/14/14
f 16/16/16 11/11/11 8/8/8
f 8/8/8 13/13/13 16/16/16
f 17/17/17 13/13/13 15/15/15
f 13/13/13 17/17/17 16/16/16
f 18/18/18 17/17/17 15/15/15
f 19/19/19 17/17/17 18/18/18
f 20/20/20 19/19/19 18/18/18
f 17/17/17 19/19/19 21/21/21
f 16/16/16 17/17/17 21/21/21
f 21/21/21 22/22/22 16/16/16
f 22/22/22 11/11/11 16/16/16
f 11/11/11 22/22/22 12/12/12
f 22/22/22 23/23/23 12/12/12
f 12/12/12 23/23/23 24/24/24
f 23/23/23 25/25/25 24/24/24
f 28/28/28 27/27/27 26/26/26
f 27/27/27 29/29/29 26/26/26
f 29/29/29 27/27/27 30/30/30
f 26/26/26 29/29/29 31/31/31
f 32/32/32 29/29/29 30/30/30
f 29/29/29 33/33/33 31/31/31
f 33/33/33 29/29/29 32/32/32
f 31/31/31 33/33/33 34/34/34
f 35/35/35 33/33/33 32/32/32
f 33/33/33 36/36/36 34/34/34
f 36/36/36 33/33/33 35/35/35
f 37/37/37 35/35/35 32/32/32
f 38/38/38 37/37/37 32/32/32
f 39/39/39 35/35/35 37/37/37
f 39/39/39 36/36/36 35/35/35
f 40/40/40 39/39/39 37/37/37
f 36/36/36 41/41/41 34/34/34
f 41/41/41 36/36/36 39/39/39
f 41/41/41 42/42/42 34/34/34
f 42/42/42 41/41/41 43/43/43
f 44/44/44 39/39/39 40/40/40
f 44/44/44 41/41/41 39/39/39
f 45/45/45 44/44/44 40/40/40
f 41/41/41 46/46/46 43/43/43
f 46/46/46 41/41/41 44/44/44
f 43/43/43 46/46/46 47/47/47
f 46/46/46 48/48/48 47/47/47
f 46/46/46 49/49/49 48/48/48
f 49/49/49 46/46/46 44/44/44
f 49/49/49 44/44/44 45/45/45
f 50/50/50 49/49/49 45/45/45
f 53/53/53 52/52/52 51/51/51
f 54/54/54 53/53/53 51/51/51
f 51/51/51 55/55/55 54/54/54
f 56/56/56 55/55/55 51/51/51
f 55/55/55 56/56/56 57/57/57
f 55/55/55 58/58/58 54/54/54
f 59/59/59 55/55/55 57/57/57
f 55/55/55 59/59/59 58/58/58
f 59/59/59 60/60/60 58/58/58
f 63/63/63 62/62/62 61/61/61
f 64/64/64 63/63/63 61/61/61
f 67/67/67 66/66/66 65/65/65
f 66/66/66 68/68/68 65/65/65
f 66/66/66 69/69/69 68/68/68
f 65/65/65 68/68/68 70/70/70
f 71/71/71 65/65/65 70/70/70
f 70/70/70 72/72/72 71/71/71
f 69/69/69 73/73/73 68/68/68
f 69/69/69 74/74/74 73/73/73
f 70/70/70 68/68/68 75/75/75
f 68/68/68 73/73/73 75/75/75
f 70/70/70 75/75/75 72/72/72
f 74/74/74 76/76/76 73/73/73
f 73/73/73 76/76/76 75/75/75
f 74/74/74 77/77/77 76/76/76
f 75/75/75 78/78/78 72/72/72
f 76/76/76 79/79/79 75/75/75
f 75/75/75 79/79/79 78/78/78
f 72/72/72 78/78/78 80/80/80
f 81/81/81 72/72/72 80/80/80
f 80/80/80 78/78/78 82/82/82
f 78/78/78 83/83/83 82/82/82
f 79/79/79 83/83/83 78/78/78
f 84/84/84 82/82/82 83/83/83
f 85/85/85 84/84/84 83/83/83
f 83/83/83 79/79/79 85/85/85
f 86/86/86 84/84/84 85/85/85
f 87/87/87 86/86/86 85/85/85
f 79/79/79 87/87/87 85/85/85
f 86/86/86 87/87/87 88/88/88
f 76/76/76 89/89/89 79/79/79
f 89/89/89 87/87/87 79/79/79
f 87/87/87 89/89/89 88/88/88
f 88/88/88 89/89/89 90/90/90
f 77/77/77 89/89/89 76/76/76
f 89/89/89 77/77/77 90/90/90
f 91/91/91 90/90/90 77/77/77
f 92/92/92 91/91/91 77/77/77
f 95/95/95 94/94/94 93/93/93
f 96/96/96 95/95/95 93/93/93
f 95/95/95 96/96/96 97/97/97
f 96/96/96 93/93/93 98/98/98
f 96/96/96 99/99/99 97/97/97
f 97/97/97 99/99/99 100/100/100
f 101/101/101 96/96/96 98/98/98
f 96/96/96 101/101/101 99/99/99
f 102/102/102 101/101/101 98/98/98
f 103/103/103 102/102/102 98/98/98
f 102/102/102 103/103/103 104/104/104
f 103/103/103 105/105/105 104/104/104
f 104/104/104 106/106/106 102/102/102
f 107/107/107 101/101/101 102/102/102
f 101/101/101 107/107/107 99/99/99
f 106/106/106 108/108/108 102/102/102
f 108/108/108 107/107/107 102/102/102
f 108/108/108 106/106/106 109/109/109
f 107/107/107 108/108/108 110/110/110
f 110/110/110 108/108/108 109/109/109
f 107/107/107 111/111/111 99/99/99
f 111/111/111 107/107/107 110/110/110
f 112/112/112 111/111/111 110/110/110
f 110/110/110 109/109/109 113/113/113
f 113/113/113 112/112/112 110/110/110
f 109/109/109 114/114/114 113/113/113
f 113/113/113 114/114/114 115/115/115
f 111/111/111 116/116/116 99/99/99
f 116/116/116 111/111/111 112/112/112
f 99/99/99 116/116/116 100/100/100
f 117/117/117 113/113/113 115/115/115
f 112/112/112 113/113/113 117/117/117
f 115/115/115 118/118/118 117/117/117
f 118/118/118 119/119/119 117/117/117
f 100/100/100 116/116/116 120/120/120
f 120/120/120 116/116/116 112/112/112
f 121/121/121 100/100/100 120/120/120
f 117/117/117 119/119/119 122/122/122
f 122/122/122 112/112/112 117/117/117
f 119/119/119 123/123/123 122/122/122
f 120/120/120 112/112/112 124/124/124
f 121/121/121 120/120/120 124/124/124
f 112/112/112 122/122/122 124/124/124
f 122/122/122 123/123/123 124/124/124
f 125/125/125 121/121/121 124/124/124
f 123/123/123 125/125/125 124/124/124
f 128/128/128 127/127/127 126/126/126
f 129/129/129 128/128/128 126/126/126
f 126/126/126 130/130/130 129/129/129
f 131/131/131 128/128/128 129/129/129
f 130/130/130 132/132/132 129/129/129
f 132/132/132 130/130/130 133/133/133
f 134/134/134 131/131/131 129/129/129
f 129/129/129 132/132/132 134/134/134
f 135/135/135 131/131/131 134/134/134
f 136/136/136 135/135/135 134/134/134
f 137/137/137 132/132/132 133/133/133
f 133/133/133 138/138/138 137/137/137
f 132/132/132 139/139/139 134/134/134
f 139/139/139 132/132/132 137/137/137
f 140/140/140 136/136/136 134/134/134
f 139/139/139 140/140/140 134/134/134
f 140/140/140 141/141/141 136/136/136
f 141/141/141 140/140/140 142/142/142
f 138/138/138 143/143/143 137/137/137
f 138/138/138 144/144/144 143/143/143
f 144/144/144 145/145/145 143/143/143
f 143/143/143 145/145/145 146/146/146
f 147/147/147 139/139/139 137/137/137
f 140/140/140 139/139/139 147/147/147
f 137/137/137 143/143/143 147/147/147
f 140/140/140 148/148/148 142/142/142
f 148/148/148 140/140/140 147/147/147
f 142/142/142 148/148/148 149/149/149
f 150/150/150 143/143/143 146/146/146
f 143/143/143 150/150/150 147/147/147
f 146/146/146 151/151/151 150/150/150
f 148/148/148 152/152/152 149/149/149
f 152/152/152 148/148/148 147/147/147
f 150/150/150 152/152/152 147/147/147
f 151/151/151 152/152/152 150/150/150
f 149/149/149 152/152/152 153/153/153
f 152/152/152 151/151/151 153/153/153
f 156/156/156 155/155/155 154/154/154
f 155/155/155 157/157/157 154/154/154
f 154/154/154 157/157/157 158/158/158
f 157/157/157 155/155/155 159/159/159
f 155/155/155 160/160/160 159/159/159
f 159/159/159 160/160/160 161/161/161
f 162/162/162 159/159/159 161/161/161
f 157/157/157 163/163/163 158/158/158
f 157/157/157 159/159/159 163/163/163
f 158/158/158 163/163/163 164/164/164
f 165/165/165 159/159/159 162/162/162
f 159/159/159 165/165/165 163/163/163
f 166/166/166 165/165/165 162/162/162
f 166/166/166 167/167/167 165/165/165
f 163/163/163 168/168/168 164/164/164
f 164/164/164 168/168/168 169/169/169
f 163/163/163 165/165/165 170/170/170
f 167/167/167 170/170/170 165/165/165
f 168/168/168 163/163/163 170/170/170
f 168/168/168 171/171/171 169/169/169
f 171/171/171 168/168/168 170/170/170
f 170/170/170 167/167/167 172/172/172
f 172/172/172 171/171/171 170/170/170
f 167/167/167 173/173/173 172/172/172
f 172/172/172 173/173/173 174/174/174
f 171/171/171 172/172/172 174/174/174
f 173/173/173 175/175/175 174/174/174
f 169/169/169 171/171/171 176/176/176
f 176/176/176 171/171/171 174/174/174
f 177/177/177 169/169/169 176/176/176
f 177/177/177 176/176/176 178/178/178
f 174/174/174 175/175/175 179/179/179
f 176/176/176 174/174/174 179/179/179
f 175/175/175 180/180/180 179/179/179
f 179/179/179 180/180/180 181/181/181
f 182/182/182 179/179/179 181/181/181
f 176/176/176 183/183/183 178/178/178
f 183/183/183 176/176/176 179/179/179
f 183/183/183 179/179/179 182/182/182
f 178/178/178 183/183/183 184/184/184
f 185/185/185 183/183/183 182/182/182
f 183/183/183 185/185/185 184/184/184
f 188/188/188 187/187/187 186/186/186
f 187/187/187 189/189/189 186/186/186
f 187/187/187 190/190/190 189/189/189
f 189/189/189 191/191/191 186/186/186
f 191/191/191 192/192/192 186/186/186
f 192/192/192 191/191/191 193/193/193
f 190/190/190 194/194/194 189/189/189
f 191/191/191 189/189/189 194/194/194
f 190/190/190 195/195/195 194/194/194
f 191/191/191 196/196/196 193/193/193
f 193/193/193 196/196/196 197/197/197
f 198/198/198 191/191/191 194/194/194
f 196/196/196 191/191/191 198/198/198
f 195/195/195 199/199/199 194/194/194
f 194/194/194 199/199/199 198/198/198
f 199/199/199 195/195/195 200/200/200
f 196/196/196 201/201/201 197/197/197
f 197/197/197 201/201/201 202/202/202
f 201/201/201 203/203/203 202/202/202
f 204/204/204 196/196/196 198/198/198
f 201/201/201 196/196/196 204/204/204
f 203/203/203 201/201/201 205/205/205
f 205/205/205 201/201/201 204/204/204
f 206/206/206 203/203/203 205/205/205
f 207/207/207 199/199/199 200/200/200
f 200/200/200 208/208/208 207/207/207
f 199/199/199 209/209/209 198/198/198
f 198/198/198 209/209/209 204/204/204
f 209/209/209 199/199/199 207/207/207
f 205/205/205 210/210/210 206/206/206
f 210/210/210 211/211/211 206/206/206
f 205/205/205 204/204/204 212/212/212
f 209/209/209 212/212/212 204/204/204
f 210/210/210 205/205/205 212/212/212
f 213/213/213 209/209/209 207/207/207
f 209/209/209 213/213/213 212/212/212
f 208/208/208 214/214/214 207/207/207
f 207/207/207 214/214/214 213/213/213
f 210/210/210 215/215/215 211/211/211
f 215/215/215 216/216/216 211/211/211
f 212/212/212 217/217/217 210/210/210
f 213/213/213 217/217/217 212/212/212
f 217/217/217 215/215/215 210/210/210
f 218/218/218 214/214/214 208/208/208
f 219/219/219 218/218/218 208/208/208
f 214/214/214 220/220/220 213/213/213
f 213/213/213 220/220/220 217/217/217
f 214/214/214 218/218/218 220/220/220
f 215/215/215 221/221/221 216/216/216
f 221/221/221 222/222/222 216/216/216
f 223/223/223 222/222/222 221/221/221
f 217/217/217 224/224/224 215/215/215
f 220/220/220 224/224/224 217/217/217
f 224/224/224 221/221/221 215/215/215
f 225/225/225 223/223/223 221/221/221
f 221/221/221 224/224/224 225/225/225
f 226/226/226 223/223/223 225/225/225
f 227/227/227 226/226/226 225/225/225
f 225/225/225 228/228/228 227/227/227
f 224/224/224 228/228/228 225/225/225
f 228/228/228 229/229/229 227/227/227
f 220/220/220 230/230/230 224/224/224
f 230/230/230 228/228/228 224/224/224
f 229/229/229 228/228/228 230/230/230
f 218/218/218 230/230/230 220/220/220
f 231/231/231 229/229/229 230/230/230
f 230/230/230 218/218/218 231/231/231
f 218/218/218 232/232/232 231/231/231
f 232/232/232 218/218/218 219/219/219
f 233/233/233 232/232/232 219/219/219
f 236/236/236 235/235/235 234/234/234
f 236/236/236 234/234/234 237/237/237
f 238/238/238 237/237/237 234/234/234
f 239/239/239 238/238/238 234/234/234
f 238/238/238 239/239/239 240/240/240
f 238/238/238 240/240/240 241/241/241
f 242/242/242 238/238/238 241/241/241
f 237/237/237 238/238/238 242/242/242
f 243/243/243 237/237/237 242/242/242
f 244/244/244 237/237/237 243/243/243
f 244/244/244 236/236/236 237/237/237
f 245/245/245 244/244/244 243/243/243
f 246/246/246 244/244/244 245/245/245
f 244/244/244 246/246/246 236/236/236
f 247/247/247 246/246/246 245/245/245
f 246/246/246 248/248/248 236/236/236
f 248/248/248 249/249/249 236/236/236
f 249/249/249 248/248/248 250/250/250
f 251/251/251 246/246/246 247/247/247
f 248/248/248 246/246/246 251/251/251
f 250/250/250 248/248/248 251/251/251
f 252/252/252 251/251/251 247/247/247
f 250/250/250 251/251/251 253/253/253
f 253/253/253 251/251/251 252/252/252
f 254/254/254 253/253/253 252/252/252
f 257/257/257 256/256/256 255/255/255
f 257/257/257 258/258/258 256/256/256
f 258/258/258 259/259/259 256/256/256
f 256/256/256 259/259/259 260/260/260
f 260/260/260 259/259/259 261/261/261
f 262/262/262 260/260/260 261/261/261
f 261/261/261 259/259/259 263/263/263
f 259/259/259 258/258/258 263/263/263
f 261/261/261 264/264/264 262/262/262
f 264/264/264 261/261/261 263/263/263
f 264/264/264 265/265/265 262/262/262
f 264/264/264 266/266/266 265/265/265
f 264/264/264 267/267/267 266/266/266
f 267/267/267 264/264/264 263/263/263
f 267/267/267 268/268/268 266/266/266
f 258/258/258 257/257/257 269/269/269
f 269/269/269 257/257/257 270/270/270
f 258/258/258 271/271/271 263/263/263
f 271/271/271 258/258/258 269/269/269
f 269/269/269 270/270/270 272/272/272
f 272/272/272 270/270/270 273/273/273
f 274/274/274 269/269/269 272/272/272
f 269/269/269 274/274/274 271/271/271
f 274/274/274 275/275/275 271/271/271
f 271/271/271 276/276/276 263/263/263
f 271/271/271 275/275/275 276/276/276
f 263/263/263 276/276/276 267/267/267
f 275/275/275 277/277/277 276/276/276
f 267/267/267 278/278/278 268/268/268
f 276/276/276 278/278/278 267/267/267
f 276/276/276 277/277/277 278/278/278
f 278/278/278 279/279/279 268/268/268
f 277/277/277 280/280/280 278/278/278
f 279/279/279 278/278/278 280/280/280
f 281/281/281 279/279/279 280/280/280
f 284/284/284 283/283/283 282/282/282
f 283/283/283 285/285/285 282/282/282
f 282/282/282 285/285/285 286/286/286
f 285/285/285 283/283/283 287/287/287
f 283/283/283 288/288/288 287/287/287
f 285/285/285 289/289/289 286/286/286
f 286/286/286 289/289/289 290/290/290
f 291/291/291 289/289/289 285/285/285
f 287/287/287 291/291/291 285/285/285
f 289/289/289 292/292/292 290/290/290
f 292/292/292 289/289/289 291/291/291
f 290/290/290 292/292/292 293/293/293
f 294/294/294 287/287/287 288/288/288
f 295/295/295 294/294/294 288/288/288
f 295/295/295 296/296/296 294/294/294
f 296/296/296 297/297/297 294/294/294
f 292/292/292 298/298/298 293/293/293
f 293/293/293 298/298/298 299/299/299
f 294/294/294 300/300/300 287/287/287
f 300/300/300 291/291/291 287/287/287
f 297/297/297 301/301/301 294/294/294
f 301/301/301 300/300/300 294/294/294
f 302/302/302 301/301/301 297/297/297
f 301/301/301 302/302/302 303/303/303
f 300/300/300 301/301/301 303/303/303
f 302/302/302 304/304/304 303/303/303
f 304/304/304 305/305/305 303/303/303
f 306/306/306 292/292/292 291/291/291
f 298/298/298 292/292/292 306/306/306
f 291/291/291 300/300/300 307/307/307
f 307/307/307 300/300/300 303/303/303
f 306/306/306 291/291/291 307/307/307
f 305/305/305 308/308/308 303/303/303
f 303/303/303 308/308/308 307/307/307
f 308/308/308 305/305/305 309/309/309
f 307/307/307 310/310/310 306/306/306
f 308/308/308 310/310/310 307/307/307
f 311/311/311 308/308/308 309/309/309
f 310/310/310 308/308/308 311/311/311
f 309/309/309 312/312/312 311/311/311
f 310/310/310 313/313/313 306/306/306
f 313/313/313 298/298/298 306/306/306
f 312/312/312 314/314/314 311/311/311
f 314/314/314 312/312/312 315/315/315
f 316/316/316 314/314/314 315/315/315
f 317/317/317 310/310/310 311/311/311
f 313/313/313 310/310/310 317/317/317
f 311/311/311 314/314/314 317/317/317
f 318/318/318 314/314/314 316/316/316
f 314/314/314 318/318/318 317/317/317
f 319/319/319 318/318/318 316/316/316
f 318/318/318 319/319/319 320/320/320
f 321/321/321 313/313/313 317/317/317
f 298/298/298 313/313/313 321/321/321
f 321/321/321 317/317/317 318/318/318
f 322/322/322 318/318/318 320/320/320
f 322/322/322 321/321/321 318/318/318
f 320/320/320 323/323/323 322/322/322
f 324/324/324 298/298/298 321/321/321
f 324/324/324 321/321/321 322/322/322
f 298/298/298 324/324/324 299/299/299
f 325/325/325 299/299/299 324/324/324
f 323/323/323 326/326/326 322/322/322
f 326/326/326 324/324/324 322/322/322
f 326/326/326 325/325/325 324/324/324
f 323/323/323 327/327/327 326/326/326
f 327/327/327 325/325/325 326/326/326
f 330/330/330 329/329/329 328/328/328
f 329/329/329 331/331/331 328/328/328
f 328/328/328 331/331/331 332/332/332
f 335/335/335 334/334/334 333/333/333
f 334/334/334 336/336/336 333/333/333
f 333/333/333 336/336/336 337/337/337
f 336/336/336 334/334/334 338/338/338
f 338/338/338 334/334/334 339/339/339
f 338/338/338 339/339/339 340/340/340
f 336/336/336 341/341/341 337/337/337
f 337/337/337 341/341/341 342/342/342
f 343/343/343 336/336/336 338/338/338
f 341/341/341 336/336/336 343/343/343
f 341/341/341 344/344/344 342/342/342
f 342/342/342 344/344/344 345/345/345
f 346/346/346 338/338/338 340/340/340
f 343/343/343 338/338/338 346/346/346
f 347/347/347 341/341/341 343/343/343
f 344/344/344 341/341/341 347/347/347
f 344/344/344 348/348/348 345/345/345
f 345/345/345 348/348/348 349/349/349
f 350/350/350 343/343/343 346/346/346
f 347/347/347 343/343/343 350/350/350
f 351/351/351 344/344/344 347/347/347
f 348/348/348 344/344/344 351/351/351
f 348/348/348 352/352/352 349/349/349
f 349/349/349 352/352/352 353/353/353
f 354/354/354 347/347/347 350/350/350
f 351/351/351 347/347/347 354/354/354
f 355/355/355 348/348/348 351/351/351
f 348/348/348 355/355/355 352/352/352
f 352/352/352 356/356/356 353/353/353
f 353/353/353 356/356/356 357/357/357
f 350/350/350 346/346/346 358/358/358
f 354/354/354 350/350/350 358/358/358
f 355/355/355 351/351/351 359/359/359
f 359/359/359 351/351/351 354/354/354
f 355/355/355 360/360/360 352/352/352
f 352/352/352 360/360/360 356/356/356
f 361/361/361 355/355/355 359/359/359
f 361/361/361 359/359/359 354/354/354
f 360/360/360 355/355/355 361/361/361
f 356/356/356 362/362/362 357/357/357
f 357/357/357 362/362/362 363/363/363
f 362/362/362 364/364/364 363/363/363
f 365/365/365 361/361/361 354/354/354
f 365/365/365 354/354/354 358/358/358
f 360/360/360 366/366/366 356/356/356
f 356/356/356 366/366/366 362/362/362
f 362/362/362 367/367/367 364/364/364
f 366/366/366 367/367/367 362/362/362
f 367/367/367 368/368/368 364/364/364
f 369/369/369 360/360/360 361/361/361
f 369/369/369 361/361/361 365/365/365
f 360/360/360 369/369/369 366/366/366
f 368/368/368 367/367/367 370/370/370
f 371/371/371 368/368/368 370/370/370
f 367/367/367 366/366/366 372/372/372
f 369/369/369 372/372/372 366/366/366
f 370/370/370 367/367/367 372/372/372
f 373/373/373 369/369/369 365/365/365
f 372/372/372 369/369/369 373/373/373
f 365/365/365 358/358/358 373/373/373
f 371/371/371 370/370/370 374/374/374
f 375/375/375 371/371/371 374/374/374
f 370/370/370 372/372/372 376/376/376
f 376/376/376 372/372/372 373/373/373
f 374/374/374 370/370/370 376/376/376
f 375/375/375 374/374/374 377/377/377
f 378/378/378 375/375/375 377/377/377
f 374/374/374 376/376/376 379/379/379
f 376/376/376 373/373/373 379/379/379
f 377/377/377 374/374/374 379/379/379
f 377/377/377 380/380/380 378/378/378
f 380/380/380 381/381/381 378/378/378
f 382/382/382 380/380/380 377/377/377
f 379/379/379 382/382/382 377/377/377
f 358/358/358 383/383/383 373/373/373
f 373/373/373 383/383/383 379/379/379
f 382/382/382 379/379/379 384/384/384
f 379/379/379 383/383/383 384/384/384
f 358/358/358 385/385/385 383/383/383
f 385/385/385 384/384/384 383/383/383
f 346/346/346 385/385/385 358/358/358
f 382/382/382 384/384/384 386/386/386
f 384/384/384 385/385/385 386/386/386
f 387/387/387 382/382/382 386/386/386
f 388/388/388 387/387/387 386/386/386
f 389/389/389 388/388/388 386/386/386
f 390/390/390 385/385/385 346/346/346
f 385/385/385 390/390/390 386/386/386
f 386/386/386 390/390/390 389/389/389
f 340/340/340 390/390/390 346/346/346
f 390/390/390 391/391/391 389/389/389
f 391/391/391 390/390/390 340/340/340
f 392/392/392 391/391/391 340/340/340
f 395/395/395 394/394/394 393/393/393
f 394/394/394 396/396/396 393/393/393
f 394/394/394 397/397/397 396/396/396
f 393/393/393 396/396/396 398/398/398
f 397/397/397 399/399/399 396/396/396
f 399/399/399 397/397/397 400/400/400
f 398/398/398 396/396/396 401/401/401
f 396/396/396 399/399/399 401/401/401
f 402/402/402 399/399/399 400/400/400
f 399/399/399 402/402/402 401/401/401
f 400/400/400 403/403/403 402/402/402
f 402/402/402 404/404/404 401/401/401
f 398/398/398 401/401/401 405/405/405
f 406/406/406 398/398/398 405/405/405
f 405/405/405 401/401/401 407/407/407
f 401/401/401 404/404/404 407/407/407
f 407/407/407 408/408/408 405/405/405
f 408/408/408 409/409/409 405/405/405
f 410/410/410 407/407/407 404/404/404
f 411/411/411 410/410/410 404/404/404
f 411/411/411 404/404/404 412/412/412
f 415/415/415 414/414/414 413/413/413
f 416/416/416 414/414/414 415/415/415
f 417/417/417 416/416/416 415/415/415
f 416/416/416 418/418/418 414/414/414
f 418/418/418 419/419/419 414/414/414
f 420/420/420 416/416/416 417/417/417
f 421/421/421 420/420/420 417/417/417
f 418/418/418 422/422/422 419/419/419
f 422/422/422 423/423/423 419/419/419
f 422/422/422 424/424/424 423/423/423
f 425/425/425 418/418/418 416/416/416
f 420/420/420 425/425/425 416/416/416
f 426/426/426 422/422/422 418/418/418
f 422/422/422 426/426/426 424/424/424
f 425/425/425 426/426/426 418/418/418
f 420/420/420 421/421/421 427/427/427
f 421/421/421 428/428/428 427/427/427
f 427/427/427 429/429/429 420/420/420
f 427/427/427 428/428/428 429/429/429
f 429/429/429 425/425/425 420/420/420
f 428/428/428 430/430/430 429/429/429
f 430/430/430 431/431/431 429/429/429
f 429/429/429 432/432/432 425/425/425
f 432/432/432 426/426/426 425/425/425
f 431/431/431 432/432/432 429/429/429
f 426/426/426 433/433/433 424/424/424
f 433/433/433 426/426/426 432/432/432
f 434/434/434 424/424/424 433/433/433
f 435/435/435 432/432/432 431/431/431
f 435/435/435 433/433/433 432/432/432
f 436/436/436 435/435/435 431/431/431
f 437/437/437 434/434/434 433/433/433
f 437/437/437 433/433/433 435/435/435
f 438/438/438 435/435/435 436/436/436
f 438/438/438 437/437/437 435/435/435
f 439/439/439 438/438/438 436/436/436
f 440/440/440 434/434/434 437/437/437
f 434/434/434 440/440/440 441/441/441
f 442/442/442 441/441/441 440/440/440
f 443/443/443 442/442/442 440/440/440
f 444/444/444 440/440/440 437/437/437
f 443/443/443 440/440/440 444/444/444
f 444/444/444 437/437/437 438/438/438
f 445/445/445 443/443/443 444/444/444
f 446/446/446 438/438/438 439/439/439
f 446/446/446 444/444/444 438/438/438
f 444/444/444 446/446/446 445/445/445
f 447/447/447 446/446/446 439/439/439
f 446/446/446 448/448/448 445/445/445
f 447/447/447 449/449/449 446/446/446
f 449/449/449 448/448/448 446/446/446
f 452/452/452 451/451/451 450/450/450
f 452/452/452 450/450/450 453/453/453
f 454/454/454 452/452/452 453/453/453
f 454/454/454 453/453/453 455/455/455
f 453/453/453 450/450/450 456/456/456
f 457/457/457 455/455/455 453/453/453
f 458/458/458 457/457/457 453/453/453
f 458/458/458 453/453/453 456/456/456
f 456/456/456 459/459/459 458/458/458
f 458/458/458 460/460/460 457/457/457
f 459/459/459 460/460/460 458/458/458
f 460/460/460 461/461/461 457/457/457
f 461/461/461 460/460/460 462/462/462
f 460/460/460 463/463/463 462/462/462
f 460/460/460 459/459/459 463/463/463
f 459/459/459 464/464/464 463/463/463
f 465/465/465 464/464/464 459/459/459
f 456/456/456 466/466/466 459/459/459
f 467/467/467 466/466/466 456/456/456
f 467/467/467 468/468/468 466/466/466
f 469/469/469 465/465/465 459/459/459
f 466/466/466 469/469/469 459/459/459
f 469/469/469 470/470/470 465/465/465
f 471/471/471 470/470/470 469/469/469
f 466/466/466 471/471/471 469/469/469
f 468/468/468 471/471/471 466/466/466
f 468/468/468 472/472/472 471/471/471
f 472/472/472 473/473/473 471/471/471
f 476/476/476 475/475/475 474/474/474
f 477/477/477 475/475/475 476/476/476
f 477/477/477 478/478/478 475/475/475
f 478/478/478 479/479/479 475/475/475
f 480/480/480 478/478/478 477/477/477
f 478/478/478 481/481/481 479/479/479
f 478/478/478 480/480/480 481/481/481
f 480/480/480 482/482/482 481/481/481
f 481/481/481 483/483/483 479/479/479
f 481/481/481 482/482/482 484/484/484
f 483/483/483 481/481/481 485/485/485
f 481/481/481 484/484/484 485/485/485
f 485/485/485 484/484/484 486/486/486
f 484/484/484 487/487/487 486/486/486
f 486/486/486 488/488/488 485/485/485
f 485/485/485 489/489/489 483/483/483
f 488/488/488 489/489/489 485/485/485
f 489/489/489 488/488/488 490/490/490
f 491/491/491 489/489/489 490/490/490
f 489/489/489 492/492/492 483/483/483
f 492/492/492 489/489/489 491/491/491
f 493/493/493 492/492/492 491/491/491
f 492/492/492 493/493/493 494/494/494
f 495/495/495 492/492/492 494/494/494
f 498/498/498 497/497/497 496/496/496
f 499/499/499 498/498/498 496/496/496
f 499/499/499 496/496/496 500/500/500
f 498/498/498 499/499/499 501/501/501
f 502/502/502 498/498/498 501/501/501
f 503/503/503 499/499/499 500/500/500
f 501/501/501 499/499/499 503/503/503
f 503/503/503 500/500/500 504/504/504
f 501/501/501 505/505/505 502/502/502
f 505/505/505 506/506/506 502/502/502
f 506/506/506 505/505/505 507/507/507
f 508/508/508 503/503/503 504/504/504
f 504/504/504 509/509/509 508/508/508
f 510/510/510 501/501/501 503/503/503
f 505/505/505 501/501/501 510/510/510
f 510/510/510 503/503/503 508/508/508
f 507/507/507 505/505/505 511/511/511
f 511/511/511 505/505/505 510/510/510
f 509/509/509 512/512/512 508/508/508
f 512/512/512 509/509/509 513/513/513
f 514/514/514 510/510/510 508/508/508
f 511/511/511 510/510/510 514/514/514
f 514/514/514 508/508/508 512/512/512
f 515/515/515 512/512/512 513/513/513
f 513/513/513 516/516/516 515/515/515
f 517/517/517 514/514/514 512/512/512
f 517/517/517 512/512/512 515/515/515
f 518/518/518 507/507/507 511/511/511
f 519/519/519 507/507/507 518/518/518
f 520/520/520 511/511/511 514/514/514
f 520/520/520 514/514/514 517/517/517
f 521/521/521 519/519/519 518/518/518
f 519/519/519 521/521/521 522/522/522
f 518/518/518 511/511/511 523/523/523
f 511/511/511 520/520/520 523/523/523
f 518/518/518 523/523/523 521/521/521
f 524/524/524 520/520/520 517/517/517
f 523/523/523 520/520/520 524/524/524
f 521/521/521 525/525/525 522/522/522
f 522/522/522 525/525/525 526/526/526
f 525/525/525 527/527/527 526/526/526
f 523/523/523 528/528/528 521/521/521
f 525/525/525 521/521/521 528/528/528
f 527/527/527 525/525/525 529/529/529
f 529/529/529 525/525/525 528/528/528
f 530/530/530 527/527/527 529/529/529
f 531/531/531 530/530/530 529/529/529
f 528/528/528 523/523/523 532/532/532
f 532/532/532 523/523/523 524/524/524
f 517/517/517 533/533/533 524/524/524
f 533/533/533 517/517/517 515/515/515
f 528/528/528 534/534/534 529/529/529
f 534/534/534 528/528/528 532/532/532
f 524/524/524 535/535/535 532/532/532
f 535/535/535 534/534/534 532/532/532
f 533/533/533 535/535/535 524/524/524
f 534/534/534 536/536/536 529/529/529
f 536/536/536 531/531/531 529/529/529
f 536/536/536 534/534/534 535/535/535
f 531/531/531 536/536/536 537/537/537
f 537/537/537 536/536/536 535/535/535
f 535/535/535 533/533/533 537/537/537
f 538/538/538 531/531/531 537/537/537
f 533/533/533 539/539/539 537/537/537
f 537/537/537 539/539/539 538/538/538
f 533/533/533 515/515/515 539/539/539
f 539/539/539 540/540/540 538/538/538
f 540/540/540 539/539/539 541/541/541
f 515/515/515 542/542/542 539/539/539
f 539/539/539 542/542/542 541/541/541
f 516/516/516 542/542/542 515/515/515
f 541/541/541 542/542/542 543/543/543
f 542/542/542 516/516/516 543/543/543
f 546/546/546 545/545/545 544/544/544
f 545/545/545 547/547/547 544/544/544
f 544/544/544 547/547/547 548/548/548
f 549/549/549 544/544/544 548/548/548
f 547/547/547 545/545/545 550/550/550
f 545/545/545 551/551/551 550/550/550
f 548/548/548 547/547/547 552/552/552
f 547/547/547 550/550/550 552/552/552
f 548/548/548 553/553/553 549/549/549
f 553/553/553 554/554/554 549/549/549
f 550/550/550 551/551/551 555/555/555
f 555/555/555 551/551/551 556/556/556
f 552/552/552 557/557/557 548/548/548
f 557/557/557 553/553/553 548/548/548
f 553/553/553 558/558/558 554/554/554
f 558/558/558 559/559/559 554/554/554
f 560/560/560 550/550/550 555/555/555
f 550/550/550 560/560/560 552/552/552
f 555/555/555 556/556/556 561/561/561
f 556/556/556 562/562/562 561/561/561
f 563/563/563 560/560/560 555/555/555
f 561/561/561 563/563/563 555/555/555
f 560/560/560 564/564/564 552/552/552
f 564/564/564 560/560/560 563/563/563
f 561/561/561 562/562/562 565/565/565
f 562/562/562 566/566/566 565/565/565
f 561/561/561 565/565/565 567/567/567
f 563/563/563 561/561/561 567/567/567
f 558/558/558 553/553/553 568/568/568
f 553/553/553 557/557/557 568/568/568
f 557/557/557 552/552/552 569/569/569
f 552/552/552 564/564/564 569/569/569
f 557/557/557 569/569/569 570/570/570
f 568/568/568 557/557/557 570/570/570
f 569/569/569 564/564/564 570/570/570
f 571/571/571 564/564/564 563/563/563
f 564/564/564 571/571/571 570/570/570
f 568/568/568 572/572/572 558/558/558
f 568/568/568 570/570/570 572/572/572
f 571/571/571 563/563/563 573/573/573
f 563/563/563 567/567/567 573/573/573
f 574/574/574 570/570/570 571/571/571
f 570/570/570 574/574/574 572/572/572
f 573/573/573 574/574/574 571/571/571
f 575/575/575 567/567/567 565/565/565
f 576/576/576 575/575/575 565/565/565
f 572/572/572 577/577/577 558/558/558
f 558/558/558 577/577/577 559/559/559
f 577/577/577 578/578/578 559/559/559
f 572/572/572 574/574/574 579/579/579
f 572/572/572 579/579/579 577/577/577
f 577/577/577 580/580/580 578/578/578
f 579/579/579 580/580/580 577/577/577
f 580/580/580 581/581/581 578/578/578
f 580/580/580 582/582/582 581/581/581
f 582/582/582 580/580/580 579/579/579
f 582/582/582 583/583/583 581/581/581
f 584/584/584 583/583/583 582/582/582
f 585/585/585 584/584/584 582/582/582
f 585/585/585 582/582/582 586/586/586
f 586/586/586 582/582/582 579/579/579
f 587/587/587 585/585/585 586/586/586
f 574/574/574 588/588/588 579/579/579
f 579/579/579 588/588/588 586/586/586
f 588/588/588 574/574/574 573/573/573
f 586/586/586 589/589/589 587/587/587
f 588/588/588 589/589/589 586/586/586
f 589/589/589 590/590/590 587/587/587
f 591/591/591 588/588/588 573/573/573
f 589/589/589 588/588/588 591/591/591
f 573/573/573 567/567/567 591/591/591
f 567/567/567 575/575/575 591/591/591
f 590/590/590 589/589/589 592/592/592
f 592/592/592 589/589/589 591/591/591
f 591/591/591 575/575/575 592/592/592
f 593/593/593 590/590/590 592/592/592
f 575/575/575 594/594/594 592/592/592
f 592/592/592 594/594/594 593/593/593
f 594/594/594 575/575/575 576/576/576
f 594/594/594 595/595/595 593/593/593
f 596/596/596 594/594/594 576/576/576
f 595/595/595 594/594/594 596/596/596
f 597/597/597 595/595/595 596/596/596
f 597/597/597 596/596/596 598/598/598
f 599/599/599 598/598/598 596/596/596
f 602/602/602 601/601/601 600/600/600
f 601/601/601 603/603/603 600/600/600
f 604/604/604 600/600/600 603/603/603
f 603/603/603 601/601/601 605/605/605
f 606/606/606 603/603/603 605/605/605
f 605/605/605 607/607/607 606/606/606
f 607/607/607 608/608/608 606/606/606
f 609/609/609 608/608/608 607/607/607
f 610/610/610 609/609/609 607/607/607
f 609/609/609 611/611/611 608/608/608
f 609/609/609 610/610/610 612/612/612
f 611/611/611 609/609/609 613/613/613
f 613/613/613 609/609/609 612/612/612
f 616/616/616 615/615/615 614/614/614
f 615/615/615 617/617/617 614/614/614
f 614/614/614 617/617/617 618/618/618
f 617/617/617 615/615/615 619/619/619
f 617/617/617 620/620/620 618/618/618
f 618/618/618 620/620/620 621/621/621
f 622/622/622 617/617/617 619/619/619
f 620/620/620 617/617/617 622/622/622
f 623/623/623 622/622/622 619/619/619
f 624/624/624 623/623/623 619/619/619
f 622/622/622 623/623/623 625/625/625
f 625/625/625 620/620/620 622/622/622
f 623/623/623 626/626/626 625/625/625
f 620/620/620 627/627/627 621/621/621
f 627/627/627 620/620/620 625/625/625
f 625/625/625 626/626/626 628/628/628
f 628/628/628 627/627/627 625/625/625
f 626/626/626 629/629/629 628/628/628
f 629/629/629 630/630/630 628/628/628
f 621/621/621 627/627/627 631/631/631
f 621/621/621 631/631/631 632/632/632
f 632/632/632 631/631/631 633/633/633
f 631/631/631 634/634/634 633/633/633
f 627/627/627 635/635/635 631/631/631
f 631/631/631 635/635/635 634/634/634
f 635/635/635 627/627/627 628/628/628
f 635/635/635 636/636/636 634/634/634
f 637/637/637 630/630/630 636/636/636
f 630/630/630 637/637/637 628/628/628
f 635/635/635 637/637/637 636/636/636
f 637/637/637 635/635/635 628/628/628
f 640/640/640 639/639/639 638/638/638
f 641/641/641 640/640/640 638/638/638
f 638/638/638 642/642/642 641/641/641
f 643/643/643 640/640/640 641/641/641
f 642/642/642 644/644/644 641/641/641
f 644/644/644 642/642/642 645/645/645
f 646/646/646 643/643/643 641/641/641
f 646/646/646 641/641/641 644/644/644
f 647/647/647 643/643/643 646/646/646
f 648/648/648 644/644/644 645/645/645
f 645/645/645 649/649/649 648/648/648
f 650/650/650 647/647/647 646/646/646
f 651/651/651 647/647/647 650/650/650
f 652/652/652 651/651/651 650/650/650
f 653/653/653 646/646/646 644/644/644
f 646/646/646 653/653/653 650/650/650
f 653/653/653 644/644/644 648/648/648
f 653/653/653 652/652/652 650/650/650
f 649/649/649 654/654/654 648/648/648
f 649/649/649 655/655/655 654/654/654
f 655/655/655 656/656/656 654/654/654
f 657/657/657 653/653/653 648/648/648
f 653/653/653 657/657/657 652/652/652
f 648/648/648 654/654/654 657/657/657
f 654/654/654 656/656/656 658/658/658
f 654/654/654 658/658/658 657/657/657
f 656/656/656 659/659/659 658/658/658
f 658/658/658 659/659/659 660/660/660
f 658/658/658 660/660/660 657/657/657
f 659/659/659 661/661/661 660/660/660
f 657/657/657 662/662/662 652/652/652
f 660/660/660 662/662/662 657/657/657
f 663/663/663 652/652/652 662/662/662
f 664/664/664 660/660/660 661/661/661
f 660/660/660 664/664/664 662/662/662
f 665/665/665 664/664/664 661/661/661
f 666/666/666 663/663/663 662/662/662
f 664/664/664 666/666/666 662/662/662
f 663/663/663 666/666/666 667/667/667
f 666/666/666 668/668/668 667/667/667
f 666/666/666 664/664/664 668/668/668
f 667/667/667 668/668/668 669/669/669
f 670/670/670 664/664/664 665/665/665
f 664/664/664 670/670/670 668/668/668
f 671/671/671 670/670/670 665/665/665
f 668/668/668 672/672/672 669/669/669
f 668/668/668 670/670/670 672/672/672
f 669/669/669 672/672/672 673/673/673
f 672/672/672 674/674/674 673/673/673
f 675/675/675 670/670/670 671/671/671
f 670/670/670 675/675/675 672/672/672
f 674/674/674 672/672/672 675/675/675
f 676/676/676 675/675/675 671/671/671
f 677/677/677 674/674/674 675/675/675
f 677/677/677 675/675/675 676/676/676
f 680/680/680 679/679/679 678/678/678
f 679/679/679 681/681/681 678/678/678
f 682/682/682 678/678/678 681/681/681
f 683/683/683 682/682/682 681/681/681
f 681/681/681 679/679/679 684/684/684
f 683/683/683 681/681/681 685/685/685
f 685/685/685 681/681/681 684/684/684
f 686/686/686 683/683/683 685/685/685
f 686/686/686 685/685/685 687/687/687
f 684/684/684 688/688/688 685/685/685
f 688/688/688 684/684/684 689/689/689
f 685/685/685 690/690/690 687/687/687
f 688/688/688 690/690/690 685/685/685
f 687/687/687 690/690/690 691/691/691
f 690/690/690 692/692/692 691/691/691
f 692/692/692 690/690/690 693/693/693
f 690/690/690 688/688/688 693/693/693
f 693/693/693 688/688/688 694/694/694
f 694/694/694 688/688/688 689/689/689
f 689/689/689 695/695/695 694/694/694
f 695/695/695 696/696/696 694/694/694
