mtllib ShowerDoor_876cda39.mtl
g ShowerDoorMesh_831394af
v 0.01987 0.05213 -0.86355
v 0.01987 0.04975 -0.86614
v 0.022 0.04975 -0.86355
v 0.022 -0.06119 -0.86355
v 0.01987 -0.06119 -0.86614
v 0.01987 -0.06357 -0.86355
v -0.01126 0.05213 -0.86355
v -0.01338 0.04975 -0.86355
v -0.01126 0.04975 -0.86614
v -0.01126 -0.06357 -0.86355
v -0.01126 -0.06119 -0.86614
v -0.01338 -0.06119 -0.86355
v -0.00696 -0.05398 -0.85577
v -0.00483 -0.05398 -0.85836
v -0.00483 -0.05637 -0.85577
v -0.00696 0.04254 -0.85577
v -0.00483 0.04493 -0.85577
v -0.00483 0.04254 -0.85836
v 0.01345 0.04493 -0.85577
v 0.01557 0.04254 -0.85577
v 0.01345 0.04254 -0.85836
v 0.01345 -0.05637 -0.85577
v 0.01345 -0.05398 -0.85836
v 0.01557 -0.05398 -0.85577
v -0.00696 -0.05398 -0.82558
v -0.00909 -0.05538 -0.82299
v -0.00909 0.04394 -0.82299
v -0.00696 -0.05398 -0.82558
v -0.00909 0.04394 -0.82299
v -0.00696 0.04254 -0.82558
v 0.022 0.04975 -0.82558
v 0.022 0.04975 -0.86355
v 0.022 -0.06119 -0.86355
v 0.022 -0.06119 -0.82558
v 0.01345 0.04493 -0.82558
v 0.01345 0.04493 -0.85577
v -0.00483 0.04493 -0.85577
v -0.00483 0.04493 -0.82558
v -0.00696 0.04254 -0.82558
v -0.00696 0.04254 -0.85577
v -0.00696 -0.05398 -0.85577
v -0.00696 -0.05398 -0.82558
v -0.01126 -0.06357 -0.82558
v 0.01987 -0.06357 -0.82558
v 0.01987 -0.06357 -0.86355
v -0.01126 -0.06357 -0.86355
v 0.01987 0.04975 -0.86614
v -0.01126 0.04975 -0.86614
v -0.01126 -0.06119 -0.86614
v 0.01987 -0.06119 -0.86614
v -0.01338 0.04975 -0.86355
v -0.01338 0.04975 -0.82558
v -0.01338 -0.06119 -0.82558
v -0.01338 -0.06119 -0.86355
v -0.00483 0.04254 -0.85836
v 0.01345 0.04254 -0.85836
v 0.01345 -0.05398 -0.85836
v -0.00483 -0.05398 -0.85836
v 0.01557 -0.05398 -0.82558
v 0.01557 -0.05398 -0.85577
v 0.01557 0.04254 -0.85577
v 0.01557 0.04254 -0.82558
v -0.00483 -0.05637 -0.82558
v -0.00483 -0.05637 -0.85577
v 0.01345 -0.05637 -0.85577
v 0.01345 -0.05637 -0.82558
v -0.00608 0.04731 -0.82299
v -0.00909 0.04394 -0.82299
v -0.01126 0.04638 -0.82299
v -0.00825 0.04975 -0.82299
v 0.01686 0.04975 -0.82299
v 0.01469 0.04731 -0.82299
v 0.0177 0.04394 -0.82299
v 0.01987 0.04638 -0.82299
v 0.01987 -0.05782 -0.82299
v 0.0177 -0.05538 -0.82299
v -0.00909 -0.05538 -0.82299
v -0.01126 0.04638 -0.82299
v -0.00909 0.04394 -0.82299
v -0.01126 -0.05782 -0.82299
v -0.00825 -0.06119 -0.82299
v -0.00608 -0.05875 -0.82299
v 0.01469 -0.05875 -0.82299
v 0.01686 -0.06119 -0.82299
v 0.01987 -0.05782 -0.82299
v 0.0177 -0.05538 -0.82299
v 0.01345 0.04493 -0.82558
v 0.01469 0.04731 -0.82299
v 0.0177 0.04394 -0.82299
v 0.01557 0.04254 -0.82558
v 0.01345 -0.05637 -0.82558
v 0.01557 -0.05398 -0.82558
v 0.0177 -0.05538 -0.82299
v 0.01469 -0.05875 -0.82299
v -0.00696 0.04254 -0.82558
v -0.00909 0.04394 -0.82299
v -0.00608 0.04731 -0.82299
v -0.00483 0.04493 -0.82558
v -0.00696 -0.05398 -0.82558
v -0.00483 -0.05637 -0.82558
v -0.00608 -0.05875 -0.82299
v -0.00909 -0.05538 -0.82299
v -0.01126 -0.06357 -0.82558
v -0.01338 -0.06119 -0.82558
v -0.01126 -0.05782 -0.82299
v -0.00825 -0.06119 -0.82299
v -0.01126 0.05213 -0.82558
v -0.00825 0.04975 -0.82299
v -0.01126 0.04638 -0.82299
v -0.01338 0.04975 -0.82558
v 0.01686 0.04975 -0.82299
v 0.01987 0.05213 -0.82558
v 0.022 0.04975 -0.82558
v 0.01987 0.04638 -0.82299
v 0.01686 -0.06119 -0.82299
v 0.01987 -0.05782 -0.82299
v 0.022 -0.06119 -0.82558
v 0.01987 -0.06357 -0.82558
v -0.01126 0.05213 -0.86355
v -0.01126 0.04975 -0.86614
v 0.01987 0.04975 -0.86614
v 0.01987 0.05213 -0.86355
v 0.022 0.04975 -0.86355
v 0.01987 0.04975 -0.86614
v 0.01987 -0.06119 -0.86614
v 0.022 -0.06119 -0.86355
v 0.01987 -0.06357 -0.86355
v 0.01987 -0.06119 -0.86614
v -0.01126 -0.06119 -0.86614
v -0.01126 -0.06357 -0.86355
v -0.01338 -0.06119 -0.86355
v -0.01126 -0.06119 -0.86614
v -0.01126 0.04975 -0.86614
v -0.01338 0.04975 -0.86355
v -0.01126 0.05213 -0.82558
v -0.01338 0.04975 -0.82558
v -0.01338 0.04975 -0.86355
v -0.01126 0.05213 -0.86355
v -0.01126 -0.06357 -0.86355
v -0.01338 -0.06119 -0.86355
v -0.01338 -0.06119 -0.82558
v -0.01126 -0.06357 -0.82558
v -0.01126 -0.05782 -0.82299
v -0.01338 -0.06119 -0.82558
v -0.01338 0.04975 -0.82558
v -0.01126 0.04638 -0.82299
v 0.01987 0.05213 -0.82558
v 0.01686 0.04975 -0.82299
v -0.00825 0.04975 -0.82299
v -0.01126 0.05213 -0.82558
v -0.01126 -0.06357 -0.82558
v -0.00825 -0.06119 -0.82299
v 0.01686 -0.06119 -0.82299
v 0.01987 -0.06357 -0.82558
v 0.022 -0.06119 -0.82558
v 0.01987 -0.05782 -0.82299
v 0.01987 0.04638 -0.82299
v 0.022 0.04975 -0.82558
v 0.01987 0.05213 -0.86355
v 0.022 0.04975 -0.86355
v 0.022 0.04975 -0.82558
v 0.01987 0.05213 -0.82558
v 0.01987 -0.06357 -0.82558
v 0.022 -0.06119 -0.82558
v 0.022 -0.06119 -0.86355
v 0.01987 -0.06357 -0.86355
v 0.01469 0.04731 -0.82299
v 0.01345 0.04493 -0.82558
v -0.00483 0.04493 -0.82558
v -0.00608 0.04731 -0.82299
v -0.00608 -0.05875 -0.82299
v -0.00483 -0.05637 -0.82558
v 0.01345 -0.05637 -0.82558
v 0.01469 -0.05875 -0.82299
v 0.0177 -0.05538 -0.82299
v 0.01557 -0.05398 -0.82558
v 0.01557 0.04254 -0.82558
v 0.0177 0.04394 -0.82299
v -0.00483 -0.05398 -0.85836
v -0.00696 -0.05398 -0.85577
v -0.00696 0.04254 -0.85577
v -0.00483 0.04254 -0.85836
v 0.01345 0.04493 -0.85577
v 0.01345 0.04254 -0.85836
v -0.00483 0.04254 -0.85836
v -0.00483 0.04493 -0.85577
v -0.00483 -0.05637 -0.85577
v -0.00483 -0.05398 -0.85836
v 0.01345 -0.05398 -0.85836
v 0.01345 -0.05637 -0.85577
v 0.01557 -0.05398 -0.85577
v 0.01345 -0.05398 -0.85836
v 0.01345 0.04254 -0.85836
v 0.01557 0.04254 -0.85577
v 0.01557 -0.05398 -0.82558
v 0.01345 -0.05637 -0.82558
v 0.01345 -0.05637 -0.85577
v 0.01557 -0.05398 -0.85577
v -0.00696 -0.05398 -0.85577
v -0.00483 -0.05637 -0.85577
v -0.00483 -0.05637 -0.82558
v -0.00696 -0.05398 -0.82558
v -0.00483 0.04493 -0.85577
v -0.00696 0.04254 -0.85577
v -0.00696 0.04254 -0.82558
v -0.00483 0.04493 -0.82558
v 0.01345 0.04493 -0.82558
v 0.01557 0.04254 -0.82558
v 0.01557 0.04254 -0.85577
v 0.01345 0.04493 -0.85577
v -0.01126 0.05213 -0.86355
v 0.01987 0.05213 -0.86355
v 0.01987 0.05213 -0.82558
v -0.01126 0.05213 -0.82558
v 0.00764 0.88567 -0.91144
v 0.00764 0.88567 -0.93137
v 0.00764 -0.88566 -0.93137
v 0.00764 -0.88566 -0.91144
v -0.00763 0.88567 -0.91144
v -0.00763 -0.88566 -0.91144
v -0.00763 -0.88566 -0.93137
v -0.00763 0.88567 -0.93137
v 0.00764 -0.88566 -0.93137
v 0.00764 0.88567 -0.93137
v -0.00763 0.88567 -0.93137
v -0.00763 -0.88566 -0.93137
v 0.00764 -0.90455 -0.93137
v -0.00763 -0.90455 -0.93137
v 0.00764 0.88567 -0.91144
v 0.00764 -0.88566 -0.91144
v -0.00763 -0.88566 -0.91144
v -0.00763 0.88567 -0.91144
v 0.00764 0.88567 0.00467
v 0.00764 0.88567 -0.01525
v 0.00764 -0.88566 -0.01525
v 0.00764 -0.88566 0.00467
v -0.00763 0.88567 0.00467
v -0.00763 -0.88566 0.00467
v -0.00763 -0.88566 -0.01525
v -0.00763 0.88567 -0.01525
v 0.00764 -0.88566 -0.01525
v 0.00764 0.88567 -0.01525
v -0.00763 0.88567 -0.01525
v -0.00763 -0.88566 -0.01525
v 0.00764 0.88567 0.00467
v 0.00764 -0.88566 0.00467
v -0.00763 -0.88566 0.00467
v -0.00763 0.88567 0.00467
v -0.00763 -0.90455 -0.01525
v -0.00763 -0.88566 -0.91144
v -0.00763 -0.88566 -0.01525
v -0.00763 -0.90455 -0.91144
v -0.00763 -0.90455 -0.93137
v -0.00763 -0.88566 -0.93137
v -0.00763 -0.90455 0.00467
v -0.00763 -0.90455 -0.01525
v -0.00763 -0.88566 -0.01525
v -0.00763 -0.88566 0.00467
v 0.00764 -0.90455 -0.01525
v -0.00763 -0.90455 -0.91144
v -0.00763 -0.90455 -0.01525
v 0.00764 -0.90455 -0.91144
v -0.00763 -0.90455 -0.93137
v 0.00764 -0.90455 -0.93137
v 0.00764 -0.90455 0.00467
v 0.00764 -0.90455 -0.01525
v -0.00763 -0.90455 -0.01525
v -0.00763 -0.90455 0.00467
v -0.00763 -0.88566 -0.01525
v 0.00764 -0.88566 -0.01525
v 0.00764 -0.90455 -0.01525
v -0.00763 -0.90455 -0.01525
v 0.00764 -0.88566 -0.01525
v 0.00764 -0.88566 0.00467
v 0.00764 -0.90455 0.00467
v 0.00764 -0.90455 -0.01525
v -0.00763 -0.88566 -0.01525
v -0.00763 -0.88566 -0.91144
v 0.00764 -0.88566 -0.91144
v 0.00764 -0.88566 -0.01525
v 0.00764 -0.88566 -0.01525
v 0.00764 -0.88566 -0.91144
v 0.00764 -0.90455 -0.91144
v 0.00764 -0.90455 -0.01525
v -0.00763 -0.88566 0.00467
v 0.00764 -0.88566 0.00467
v 0.00764 -0.90455 0.00467
v -0.00763 -0.90455 0.00467
vn 0.6367169 0.5675775 -0.521965
vn 0.6367169 0.5675775 -0.521965
vn 0.6367169 0.5675775 -0.521965
vn 0.6367161 -0.5675769 -0.5219666
vn 0.6367161 -0.5675769 -0.5219666
vn 0.6367161 -0.5675769 -0.5219666
vn -0.6367169 0.5675775 -0.521965
vn -0.6367169 0.5675775 -0.521965
vn -0.6367169 0.5675775 -0.521965
vn -0.6367161 -0.5675769 -0.5219666
vn -0.6367161 -0.5675769 -0.5219666
vn -0.6367161 -0.5675769 -0.5219666
vn 0.6367042 0.567579 0.5219789
vn 0.6367042 0.567579 0.5219789
vn 0.6367042 0.567579 0.5219789
vn 0.6367036 -0.5675782 0.5219805
vn 0.6367036 -0.5675782 0.5219805
vn 0.6367036 -0.5675782 0.5219805
vn -0.6367036 -0.5675782 0.5219805
vn -0.6367036 -0.5675782 0.5219805
vn -0.6367036 -0.5675782 0.5219805
vn -0.6367042 0.567579 0.5219789
vn -0.6367042 0.567579 0.5219789
vn -0.6367042 0.567579 0.5219789
vn 0.7733444 0 0.6339862
vn 0.7733444 0 0.6339862
vn 0.7733444 0 0.6339862
vn 0.7733444 0 0.6339862
vn 0.7733444 0 0.6339862
vn 0.7733444 0 0.6339862
vn 1 0 0
vn 1 0 0
vn 1 0 0
vn 1 0 0
vn 0 -1 0
vn 0 -1 0
vn 0 -1 0
vn 0 -1 0
vn 1 0 0
vn 1 0 0
vn 1 0 0
vn 1 0 0
vn 0 -1 0
vn 0 -1 0
vn 0 -1 0
vn 0 -1 0
vn 0 0 -1
vn 0 0 -1
vn 0 0 -1
vn 0 0 -1
vn -1 0 0
vn -1 0 0
vn -1 0 0
vn -1 0 0
vn 0 0 1
vn 0 0 1
vn 0 0 1
vn 0 0 1
vn -1 0 0
vn -1 0 0
vn -1 0 0
vn -1 0 0
vn 0 1 0
vn 0 1 0
vn 0 1 0
vn 0 1 0
vn 0 0 1
vn 0 0 1
vn 0 0 1
vn 0 0 1
vn 0 0 1
vn 0 0 1
vn 0 0 1
vn 0 0 1
vn 0 0 1
vn 0 0 1
vn 0 0 1
vn 0 0 1
vn 0 0 1
vn 0 0 1
vn 0 0 1
vn 0 0 1
vn 0 0 1
vn 0 0 1
vn 0 0 1
vn 0 0 1
vn -0.5356955 -0.4775335 0.6964138
vn -0.5356955 -0.4775335 0.6964138
vn -0.5356955 -0.4775335 0.6964138
vn -0.5356955 -0.4775335 0.6964138
vn -0.5356952 0.4775332 0.6964142
vn -0.5356952 0.4775332 0.6964142
vn -0.5356952 0.4775332 0.6964142
vn -0.5356952 0.4775332 0.6964142
vn 0.5356842 -0.4775366 0.6964203
vn 0.5356842 -0.4775366 0.6964203
vn 0.5356842 -0.4775366 0.6964203
vn 0.5356842 -0.4775366 0.6964203
vn 0.5356842 0.4775366 0.6964203
vn 0.5356842 0.4775366 0.6964203
vn 0.5356842 0.4775366 0.6964203
vn 0.5356842 0.4775366 0.6964203
vn -0.4184229 -0.3729969 0.8281277
vn -0.4184229 -0.3729969 0.8281277
vn -0.4184229 -0.3729969 0.8281277
vn -0.4184229 -0.3729969 0.8281277
vn -0.4184231 0.3729972 0.8281276
vn -0.4184231 0.3729972 0.8281276
vn -0.4184231 0.3729972 0.8281276
vn -0.4184231 0.3729972 0.8281276
vn 0.4184229 0.3729969 0.8281277
vn 0.4184229 0.3729969 0.8281277
vn 0.4184229 0.3729969 0.8281277
vn 0.4184229 0.3729969 0.8281277
vn 0.4184227 -0.3729968 0.8281279
vn 0.4184227 -0.3729968 0.8281279
vn 0.4184227 -0.3729968 0.8281279
vn 0.4184227 -0.3729968 0.8281279
vn 0 0.7360634 -0.6769126
vn 0 0.7360634 -0.6769126
vn 0 0.7360634 -0.6769126
vn 0 0.7360634 -0.6769126
vn 0.7733401 0 -0.6339914
vn 0.7733401 0 -0.6339914
vn 0.7733401 0 -0.6339914
vn 0.7733401 0 -0.6339914
vn 0 -0.7360634 -0.6769126
vn 0 -0.7360634 -0.6769126
vn 0 -0.7360634 -0.6769126
vn 0 -0.7360634 -0.6769126
vn -0.7733401 0 -0.6339914
vn -0.7733401 0 -0.6339914
vn -0.7733401 0 -0.6339914
vn -0.7733401 0 -0.6339914
vn -0.7464677 0.6654216 0
vn -0.7464677 0.6654216 0
vn -0.7464677 0.6654216 0
vn -0.7464677 0.6654216 0
vn -0.7464677 -0.6654216 0
vn -0.7464677 -0.6654216 0
vn -0.7464677 -0.6654216 0
vn -0.7464677 -0.6654216 0
vn -0.7733397 0 0.6339918
vn -0.7733397 0 0.6339918
vn -0.7733397 0 0.6339918
vn -0.7733397 0 0.6339918
vn 0 0.7360629 0.6769131
vn 0 0.7360629 0.6769131
vn 0 0.7360629 0.6769131
vn 0 0.7360629 0.6769131
vn 0 -0.7360634 0.6769127
vn 0 -0.7360634 0.6769127
vn 0 -0.7360634 0.6769127
vn 0 -0.7360634 0.6769127
vn 0.7733397 0 0.6339918
vn 0.7733397 0 0.6339918
vn 0.7733397 0 0.6339918
vn 0.7733397 0 0.6339918
vn 0.7464677 0.6654216 0
vn 0.7464677 0.6654216 0
vn 0.7464677 0.6654216 0
vn 0.7464677 0.6654216 0
vn 0.7464677 -0.6654216 0
vn 0.7464677 -0.6654216 0
vn 0.7464677 -0.6654216 0
vn 0.7464677 -0.6654216 0
vn 0 -0.7360627 0.6769134
vn 0 -0.7360627 0.6769134
vn 0 -0.7360627 0.6769134
vn 0 -0.7360627 0.6769134
vn 0 0.7360634 0.6769127
vn 0 0.7360634 0.6769127
vn 0 0.7360634 0.6769127
vn 0 0.7360634 0.6769127
vn -0.7733444 0 0.6339862
vn -0.7733444 0 0.6339862
vn -0.7733444 0 0.6339862
vn -0.7733444 0 0.6339862
vn 0.7733482 0 0.6339815
vn 0.7733482 0 0.6339815
vn 0.7733482 0 0.6339815
vn 0.7733482 0 0.6339815
vn 0 -0.7360555 0.6769212
vn 0 -0.7360555 0.6769212
vn 0 -0.7360555 0.6769212
vn 0 -0.7360555 0.6769212
vn 0 0.7360555 0.6769212
vn 0 0.7360555 0.6769212
vn 0 0.7360555 0.6769212
vn 0 0.7360555 0.6769212
vn -0.7733482 0 0.6339815
vn -0.7733482 0 0.6339815
vn -0.7733482 0 0.6339815
vn -0.7733482 0 0.6339815
vn -0.7464753 0.665413 0
vn -0.7464753 0.665413 0
vn -0.7464753 0.665413 0
vn -0.7464753 0.665413 0
vn 0.7464753 0.665413 0
vn 0.7464753 0.665413 0
vn 0.7464753 0.665413 0
vn 0.7464753 0.665413 0
vn 0.7464753 -0.665413 0
vn 0.7464753 -0.665413 0
vn 0.7464753 -0.665413 0
vn 0.7464753 -0.665413 0
vn -0.7464753 -0.665413 0
vn -0.7464753 -0.665413 0
vn -0.7464753 -0.665413 0
vn -0.7464753 -0.665413 0
vn 0 1 0
vn 0 1 0
vn 0 1 0
vn 0 1 0
vn 1 0 0
vn 1 0 0
vn 1 0 0
vn 1 0 0
vn -1 0 0
vn -1 0 0
vn -1 0 0
vn -1 0 0
vn 0 0 -1
vn 0 0 -1
vn 0 0 -1
vn 0 0 -1
vn 0 0 -1
vn 0 0 -1
vn 0 0 1
vn 0 0 1
vn 0 0 1
vn 0 0 1
vn 1 0 0
vn 1 0 0
vn 1 0 0
vn 1 0 0
vn -1 0 0
vn -1 0 0
vn -1 0 0
vn -1 0 0
vn 0 0 -1
vn 0 0 -1
vn 0 0 -1
vn 0 0 -1
vn 0 0 1
vn 0 0 1
vn 0 0 1
vn 0 0 1
vn -1 0 0
vn -1 0 0
vn -1 0 0
vn -1 0 0
vn -1 0 0
vn -1 0 0
vn -1 0 0
vn -1 0 0
vn -1 0 0
vn -1 0 0
vn 0 -1 0
vn 0 -1 0
vn 0 -1 0
vn 0 -1 0
vn 0 -1 0
vn 0 -1 0
vn 0 -1 0
vn 0 -1 0
vn 0 -1 0
vn 0 -1 0
vn 0 0 1
vn 0 0 1
vn 0 0 1
vn 0 0 1
vn -1 0 0
vn -1 0 0
vn -1 0 0
vn -1 0 0
vn 0 1 0
vn 0 1 0
vn 0 1 0
vn 0 1 0
vn 1 0 0
vn 1 0 0
vn 1 0 0
vn 1 0 0
vn 0 0 1
vn 0 0 1
vn 0 0 1
vn 0 0 1
vt 0.3890381 0.08918262
vt 0.3877245 0.08918262
vt 0.3890381 0.08786905
vt 0.3890381 0.08786905
vt 0.3877245 0.08918262
vt 0.3890381 0.08918262
vt 0.3890381 0.1084101
vt 0.3890381 0.1097237
vt 0.3877245 0.1084101
vt 0.3890381 0.1084101
vt 0.3877245 0.1084101
vt 0.3890381 0.1097237
vt 0.3929781 0.03015661
vt 0.3916645 0.03015661
vt 0.3929781 0.03147006
vt 0.3929781 0.9770063
vt 0.3929781 0.9756927
vt 0.3916645 0.9770063
vt 0.3929781 0.9756927
vt 0.3929781 0.9770063
vt 0.3916645 0.9770063
vt 0.3929781 0.03147006
vt 0.3916645 0.03015661
vt 0.3929781 0.03015661
vt 0.4082656 0.03015661
vt 0.4095792 0.03092599
vt 0.4095792 -0.02376318
vt 0.4082656 0.03015661
vt 0.4095792 -0.02376318
vt 0.4082656 -0.02299374
vt 0.4082656 0.9730384
vt 0.3890381 0.9730384
vt 0.3890381 1.034124
vt 0.4082656 1.034124
vt 0.4082656 0.09315038
vt 0.3929781 0.09315038
vt 0.3929781 0.1044424
vt 0.4082656 0.1044424
vt 0.4082656 0.9770063
vt 0.3929781 0.9770063
vt 0.3929781 1.030157
vt 0.4082656 1.030157
vt 0.4082656 0.1084101
vt 0.4082656 0.08918262
vt 0.3890381 0.08918262
vt 0.3890381 0.1084101
vt 0.08918262 0.9730384
vt 0.1084101 0.9730384
vt 0.1084101 1.034124
vt 0.08918262 1.034124
vt 0.3890381 0.9730384
vt 0.4082656 0.9730384
vt 0.4082656 1.034124
vt 0.3890381 1.034124
vt 0.1044424 0.9770063
vt 0.09315038 0.9770063
vt 0.09315038 1.030157
vt 0.1044424 1.030157
vt 0.4082656 0.03015661
vt 0.3929781 0.03015661
vt 0.3929781 -0.02299374
vt 0.4082656 -0.02299374
vt 0.4082656 0.1044424
vt 0.3929781 0.1044424
vt 0.3929781 0.09315038
vt 0.4082656 0.09315038
vt 0.1052117 0.9743792
vt 0.1070694 0.9762368
vt 0.1084101 0.974896
vt 0.1065526 0.9730384
vt 0.09104013 0.9730384
vt 0.092381 0.9743792
vt 0.09052336 0.9762368
vt 0.08918262 0.974896
vt 0.08918262 1.032267
vt 0.09052336 1.030926
vt 0.1070694 0.03092599
vt 0.1084101 -0.02510399
vt 0.1070694 -0.02376318
vt 0.1084101 0.03226686
vt 0.1065526 0.03412437
vt 0.1052117 0.03278363
vt 0.092381 0.03278363
vt 0.09104013 0.03412437
vt 0.08918262 0.03226686
vt 0.09052336 0.03092599
vt 0.09315038 0.9756927
vt 0.092381 0.9743792
vt 0.09052336 0.9762368
vt 0.09183693 0.9770063
vt 0.09315038 0.03147006
vt 0.09183693 0.03015661
vt 0.09052336 0.03092599
vt 0.092381 0.03278363
vt 0.1057558 0.9770063
vt 0.1070694 0.9762368
vt 0.1052117 0.9743792
vt 0.1044424 0.9756927
vt 0.1057558 0.03015661
vt 0.1044424 0.03147006
vt 0.1052117 0.03278363
vt 0.1070694 0.03092599
vt 0.1084101 0.03543794
vt 0.1097237 0.03412437
vt 0.1084101 0.03226686
vt 0.1065526 0.03412437
vt 0.1084101 0.9717249
vt 0.1065526 0.9730384
vt 0.1084101 0.974896
vt 0.1097237 0.9730384
vt 0.09104013 0.9730384
vt 0.08918262 0.9717249
vt 0.08786905 0.9730384
vt 0.08918262 0.974896
vt 0.09104013 0.03412437
vt 0.08918262 0.03226686
vt 0.08786905 0.03412437
vt 0.08918262 0.03543794
vt 0.3890381 0.1084101
vt 0.3877245 0.1084101
vt 0.3877245 0.08918262
vt 0.3890381 0.08918262
vt 0.3890381 0.9730384
vt 0.3877245 0.9730384
vt 0.3877245 1.034124
vt 0.3890381 1.034124
vt 0.3890381 0.08918262
vt 0.3877245 0.08918262
vt 0.3877245 0.1084101
vt 0.3890381 0.1084101
vt 0.3890381 0.03412437
vt 0.3877245 0.03412437
vt 0.3877245 -0.02696157
vt 0.3890381 -0.02696157
vt 0.4082656 0.1084101
vt 0.4082656 0.1097237
vt 0.3890381 0.1097237
vt 0.3890381 0.1084101
vt 0.3890381 0.1084101
vt 0.3890381 0.1097237
vt 0.4082656 0.1097237
vt 0.4082656 0.1084101
vt 0.4095792 0.03226686
vt 0.4082656 0.03412437
vt 0.4082656 -0.02696157
vt 0.4095792 -0.02510399
vt 0.4082656 0.08918262
vt 0.4095792 0.09104013
vt 0.4095792 0.1065526
vt 0.4082656 0.1084101
vt 0.4082656 0.1084101
vt 0.4095792 0.1065526
vt 0.4095792 0.09104013
vt 0.4082656 0.08918262
vt 0.4082656 0.03412437
vt 0.4095792 0.03226686
vt 0.4095792 -0.02510399
vt 0.4082656 -0.02696157
vt 0.3890381 0.08918262
vt 0.3890381 0.08786905
vt 0.4082656 0.08786905
vt 0.4082656 0.08918262
vt 0.4082656 0.08918262
vt 0.4082656 0.08786905
vt 0.3890381 0.08786905
vt 0.3890381 0.08918262
vt 0.4095792 0.092381
vt 0.4082656 0.09315038
vt 0.4082656 0.1044424
vt 0.4095792 0.1052117
vt 0.4095792 0.1052117
vt 0.4082656 0.1044424
vt 0.4082656 0.09315038
vt 0.4095792 0.092381
vt 0.4095792 0.03092599
vt 0.4082656 0.03015661
vt 0.4082656 -0.02299374
vt 0.4095792 -0.02376318
vt 0.3916645 0.03015661
vt 0.3929781 0.03015661
vt 0.3929781 -0.02299374
vt 0.3916645 -0.02299374
vt 0.09315038 0.9756927
vt 0.09315038 0.9770063
vt 0.1044424 0.9770063
vt 0.1044424 0.9756927
vt 0.1044424 0.03147006
vt 0.1044424 0.03015661
vt 0.09315038 0.03015661
vt 0.09315038 0.03147006
vt 0.3929781 0.03015661
vt 0.3916645 0.03015661
vt 0.3916645 -0.02299374
vt 0.3929781 -0.02299374
vt 0.4082656 0.03015661
vt 0.4082656 0.03147006
vt 0.3929781 0.03147006
vt 0.3929781 0.03015661
vt 0.3929781 0.03015661
vt 0.3929781 0.03147006
vt 0.4082656 0.03147006
vt 0.4082656 0.03015661
vt 0.3929781 0.9756927
vt 0.3929781 0.9770063
vt 0.4082656 0.9770063
vt 0.4082656 0.9756927
vt 0.4082656 0.9756927
vt 0.4082656 0.9770063
vt 0.3929781 0.9770063
vt 0.3929781 0.9756927
vt 0.3890381 0.1084101
vt 0.3890381 0.08918262
vt 0.4082656 0.08918262
vt 0.4082656 0.1084101
vt 0.364785 0.512753
vt 0.3546963 0.512753
vt 0.3546963 1.488105
vt 0.364785 1.488105
vt 0.364785 0.512753
vt 0.364785 1.488105
vt 0.3546963 1.488105
vt 0.3546963 0.512753
vt 0.0967344 0.4881053
vt 0.0967344 -0.487247
vt 0.1061723 -0.487247
vt 0.1061723 0.4881053
vt 0.0967344 0.4985049
vt 0.1061723 0.4985049
vt 0.0967344 0.512753
vt 0.0967344 1.488105
vt 0.1061723 1.488105
vt 0.1061723 0.512753
vt 0.8642459 0.512753
vt 0.8541572 0.512753
vt 0.8541572 1.488105
vt 0.8642459 1.488105
vt 0.8642459 0.512753
vt 0.8642459 1.488105
vt 0.8541572 1.488105
vt 0.8541572 0.512753
vt 0.0967344 0.4881053
vt 0.0967344 -0.487247
vt 0.1061723 -0.487247
vt 0.1061723 0.4881053
vt 0.0967344 0.512753
vt 0.0967344 1.488105
vt 0.1061723 1.488105
vt 0.1061723 0.512753
vt 0.8541572 0.4985049
vt 0.364785 0.4881053
vt 0.8541572 0.4881053
vt 0.364785 0.4985049
vt 0.3546963 0.4985049
vt 0.3546963 0.4881053
vt 0.8642459 0.4985049
vt 0.8541572 0.4985049
vt 0.8541572 0.4881053
vt 0.8642459 0.4881053
vt 0.8541572 0.0967344
vt 0.364785 0.1061723
vt 0.8541572 0.1061723
vt 0.364785 0.0967344
vt 0.3546963 0.1061723
vt 0.3546963 0.0967344
vt 0.8642459 0.0967344
vt 0.8541572 0.0967344
vt 0.8541572 0.1061723
vt 0.8642459 0.1061723
vt 0.1061723 0.4881053
vt 0.0967344 0.4881053
vt 0.0967344 0.4985049
vt 0.1061723 0.4985049
vt 0.8541572 0.4881053
vt 0.8642459 0.4881053
vt 0.8642459 0.4985049
vt 0.8541572 0.4985049
vt 0.8541572 0.1061723
vt 0.364785 0.1061723
vt 0.364785 0.0967344
vt 0.8541572 0.0967344
vt 0.8541572 0.4881053
vt 0.364785 0.4881053
vt 0.364785 0.4985049
vt 0.8541572 0.4985049
vt 0.1061723 0.4881053
vt 0.0967344 0.4881053
vt 0.0967344 0.4985049
vt 0.1061723 0.4985049
usemtl HammeredMetal_AlbedoTransparency
f 3/3/3 2/2/2 1/1/1
f 6/6/6 5/5/5 4/4/4
f 9/9/9 8/8/8 7/7/7
f 12/12/12 11/11/11 10/10/10
f 15/15/15 14/14/14 13/13/13
f 18/18/18 17/17/17 16/16/16
f 21/21/21 20/20/20 19/19/19
f 24/24/24 23/23/23 22/22/22
f 27/27/27 26/26/26 25/25/25
f 30/30/30 29/29/29 28/28/28
f 33/33/33 32/32/32 31/31/31
f 34/34/34 33/33/33 31/31/31
f 37/37/37 36/36/36 35/35/35
f 38/38/38 37/37/37 35/35/35
f 41/41/41 40/40/40 39/39/39
f 42/42/42 41/41/41 39/39/39
f 45/45/45 44/44/44 43/43/43
f 46/46/46 45/45/45 43/43/43
f 49/49/49 48/48/48 47/47/47
f 50/50/50 49/49/49 47/47/47
f 53/53/53 52/52/52 51/51/51
f 54/54/54 53/53/53 51/51/51
f 57/57/57 56/56/56 55/55/55
f 58/58/58 57/57/57 55/55/55
f 61/61/61 60/60/60 59/59/59
f 62/62/62 61/61/61 59/59/59
f 65/65/65 64/64/64 63/63/63
f 66/66/66 65/65/65 63/63/63
f 69/69/69 68/68/68 67/67/67
f 70/70/70 69/69/69 67/67/67
f 71/71/71 70/70/70 67/67/67
f 72/72/72 71/71/71 67/67/67
f 71/71/71 72/72/72 73/73/73
f 74/74/74 71/71/71 73/73/73
f 75/75/75 74/74/74 73/73/73
f 76/76/76 75/75/75 73/73/73
f 79/79/79 78/78/78 77/77/77
f 78/78/78 80/80/80 77/77/77
f 77/77/77 80/80/80 81/81/81
f 82/82/82 77/77/77 81/81/81
f 82/82/82 81/81/81 83/83/83
f 81/81/81 84/84/84 83/83/83
f 83/83/83 84/84/84 85/85/85
f 86/86/86 83/83/83 85/85/85
f 89/89/89 88/88/88 87/87/87
f 90/90/90 89/89/89 87/87/87
f 93/93/93 92/92/92 91/91/91
f 94/94/94 93/93/93 91/91/91
f 97/97/97 96/96/96 95/95/95
f 98/98/98 97/97/97 95/95/95
f 101/101/101 100/100/100 99/99/99
f 102/102/102 101/101/101 99/99/99
f 105/105/105 104/104/104 103/103/103
f 106/106/106 105/105/105 103/103/103
f 109/109/109 108/108/108 107/107/107
f 110/110/110 109/109/109 107/107/107
f 113/113/113 112/112/112 111/111/111
f 114/114/114 113/113/113 111/111/111
f 117/117/117 116/116/116 115/115/115
f 118/118/118 117/117/117 115/115/115
f 121/121/121 120/120/120 119/119/119
f 122/122/122 121/121/121 119/119/119
f 125/125/125 124/124/124 123/123/123
f 126/126/126 125/125/125 123/123/123
f 129/129/129 128/128/128 127/127/127
f 130/130/130 129/129/129 127/127/127
f 133/133/133 132/132/132 131/131/131
f 134/134/134 133/133/133 131/131/131
f 137/137/137 136/136/136 135/135/135
f 138/138/138 137/137/137 135/135/135
f 141/141/141 140/140/140 139/139/139
f 142/142/142 141/141/141 139/139/139
f 145/145/145 144/144/144 143/143/143
f 146/146/146 145/145/145 143/143/143
f 149/149/149 148/148/148 147/147/147
f 150/150/150 149/149/149 147/147/147
f 153/153/153 152/152/152 151/151/151
f 154/154/154 153/153/153 151/151/151
f 157/157/157 156/156/156 155/155/155
f 158/158/158 157/157/157 155/155/155
f 161/161/161 160/160/160 159/159/159
f 162/162/162 161/161/161 159/159/159
f 165/165/165 164/164/164 163/163/163
f 166/166/166 165/165/165 163/163/163
f 169/169/169 168/168/168 167/167/167
f 170/170/170 169/169/169 167/167/167
f 173/173/173 172/172/172 171/171/171
f 174/174/174 173/173/173 171/171/171
f 177/177/177 176/176/176 175/175/175
f 178/178/178 177/177/177 175/175/175
f 181/181/181 180/180/180 179/179/179
f 182/182/182 181/181/181 179/179/179
f 185/185/185 184/184/184 183/183/183
f 186/186/186 185/185/185 183/183/183
f 189/189/189 188/188/188 187/187/187
f 190/190/190 189/189/189 187/187/187
f 193/193/193 192/192/192 191/191/191
f 194/194/194 193/193/193 191/191/191
f 197/197/197 196/196/196 195/195/195
f 198/198/198 197/197/197 195/195/195
f 201/201/201 200/200/200 199/199/199
f 202/202/202 201/201/201 199/199/199
f 205/205/205 204/204/204 203/203/203
f 206/206/206 205/205/205 203/203/203
f 209/209/209 208/208/208 207/207/207
f 210/210/210 209/209/209 207/207/207
f 213/213/213 212/212/212 211/211/211
f 214/214/214 213/213/213 211/211/211
f 217/217/217 216/216/216 215/215/215
f 218/218/218 217/217/217 215/215/215
f 221/221/221 220/220/220 219/219/219
f 222/222/222 221/221/221 219/219/219
f 225/225/225 224/224/224 223/223/223
f 226/226/226 225/225/225 223/223/223
f 223/223/223 227/227/227 226/226/226
f 227/227/227 228/228/228 226/226/226
f 231/231/231 230/230/230 229/229/229
f 232/232/232 231/231/231 229/229/229
f 235/235/235 234/234/234 233/233/233
f 236/236/236 235/235/235 233/233/233
f 239/239/239 238/238/238 237/237/237
f 240/240/240 239/239/239 237/237/237
f 243/243/243 242/242/242 241/241/241
f 244/244/244 243/243/243 241/241/241
f 247/247/247 246/246/246 245/245/245
f 248/248/248 247/247/247 245/245/245
f 251/251/251 250/250/250 249/249/249
f 250/250/250 252/252/252 249/249/249
f 253/253/253 252/252/252 250/250/250
f 254/254/254 253/253/253 250/250/250
f 257/257/257 256/256/256 255/255/255
f 258/258/258 257/257/257 255/255/255
f 261/261/261 260/260/260 259/259/259
f 260/260/260 262/262/262 259/259/259
f 260/260/260 263/263/263 262/262/262
f 263/263/263 264/264/264 262/262/262
f 267/267/267 266/266/266 265/265/265
f 268/268/268 267/267/267 265/265/265
f 271/271/271 270/270/270 269/269/269
f 272/272/272 271/271/271 269/269/269
f 275/275/275 274/274/274 273/273/273
f 276/276/276 275/275/275 273/273/273
f 279/279/279 278/278/278 277/277/277
f 280/280/280 279/279/279 277/277/277
f 283/283/283 282/282/282 281/281/281
f 284/284/284 283/283/283 281/281/281
f 287/287/287 286/286/286 285/285/285
f 288/288/288 287/287/287 285/285/285
g FP428:polySurface380_b8f7732f
v -0.00062 0.88188 -0.93291
v -0.00062 0.88188 -0.01539
v -0.00062 -0.89369 -0.01539
v -0.00062 -0.89369 -0.93291
v 0.00747 0.88188 -0.93291
v 0.00747 -0.89369 -0.93291
v 0.00747 -0.89369 -0.01539
v 0.00747 0.88188 -0.01539
v -0.00062 0.88188 -0.01539
v 0.00747 0.88188 -0.01539
v 0.00747 -0.89369 -0.01539
v -0.00062 -0.89369 -0.01539
v -0.00062 0.88188 -0.93291
v 0.00747 0.88188 -0.93291
v 0.00747 0.88188 -0.01539
v -0.00062 0.88188 -0.01539
v -0.00062 -0.89369 -0.01539
v 0.00747 -0.89369 -0.01539
v 0.00747 -0.89369 -0.93291
v -0.00062 -0.89369 -0.93291
v -0.00062 -0.89369 -0.93291
v 0.00747 -0.89369 -0.93291
v 0.00747 0.88188 -0.93291
v -0.00062 0.88188 -0.93291
vn -1 0 0
vn -1 0 0
vn -1 0 0
vn -1 0 0
vn 1 0 0
vn 1 0 0
vn 1 0 0
vn 1 0 0
vn 0 0 1
vn 0 0 1
vn 0 0 1
vn 0 0 1
vn 0 1 0
vn 0 1 0
vn 0 1 0
vn 0 1 0
vn 0 -1 0
vn 0 -1 0
vn 0 -1 0
vn 0 -1 0
vn 0 0 -1
vn 0 0 -1
vn 0 0 -1
vn 0 0 -1
vt 0.5291527 0.732258
vt -0.005764902 0.7322581
vt -0.005764842 -0.3133537
vt 0.5291526 -0.3133538
vt 0.5291527 0.732258
vt 0.5291526 -0.3133538
vt -0.005764842 -0.3133537
vt -0.005764902 0.7322581
vt 0.7726459 0.7005879
vt 0.7776694 0.7005879
vt 0.7776694 -0.2816836
vt 0.772646 -0.2816837
vt 0.5142144 1.111269
vt 0.5142144 1.116318
vt 0.009173304 1.116318
vt 0.009173304 1.111269
vt 0.009173602 1.111269
vt 0.009173602 1.116318
vt 0.5142142 1.116318
vt 0.5142142 1.111269
vt 0.772646 0.7183174
vt 0.7776693 0.7183175
vt 0.7776693 1.700586
vt 0.772646 1.700586
usemtl Glass_Detailed_Camo_Green_Mat
f 291/291/291 290/290/290 289/289/289
f 292/292/292 291/291/291 289/289/289
f 295/295/295 294/294/294 293/293/293
f 296/296/296 295/295/295 293/293/293
f 299/299/299 298/298/298 297/297/297
f 300/300/300 299/299/299 297/297/297
f 303/303/303 302/302/302 301/301/301
f 304/304/304 303/303/303 301/301/301
f 307/307/307 306/306/306 305/305/305
f 308/308/308 307/307/307 305/305/305
f 311/311/311 310/310/310 309/309/309
f 312/312/312 311/311/311 309/309/309
