mtllib Bathtub_02242c69.mtl
g BathtubMesh_3e244a07
v 3.61456 0.09847 -0.33708
v 3.54097 0.09846 -0.30608
v 3.52364 0.21281 -0.35061
v 3.46848 0.02926 -0.12802
v 3.44945 0.02924 -0.07857
v 3.35998 0.09839 -0.09257
v 3.44302 0.02879 1.23969
v 3.3518 0.09793 1.23971
v 3.35998 0.0979 1.30517
v 3.44945 0.02877 1.29112
v 4.05551 0.02928 -0.17359
v 4.07842 0.09845 -0.26435
v 4.13136 0.09843 -0.21351
v 4.08642 0.02926 -0.12802
v 4.05551 0.02928 -0.17359
v 4.13136 0.09843 -0.21351
v 4.07842 0.09845 -0.26435
v 4.10049 0.21279 -0.30177
v 4.1573 0.21277 -0.24226
v 4.17069 0.09841 -0.15551
v 4.13639 0.33326 -0.33259
v 4.19952 0.21275 -0.17436
v 4.19492 0.09839 -0.09257
v 4.19952 0.33324 -0.26646
v 4.22552 0.21272 -0.10068
v 4.20309 0.09793 1.23971
v 4.1585 0.46397 -0.35155
v 4.07684 0.46399 -0.40917
v 4.08161 0.57453 -0.41527
v 4.24643 0.33321 -0.19102
v 4.23429 0.21226 1.23709
v 4.19492 0.0979 1.30517
v 4.16457 0.57451 -0.35674
v 4.08247 0.59463 -0.41638
v 4.16567 0.59461 -0.35768
v 4.23265 0.57449 -0.28541
v 4.22552 0.46394 -0.28135
v 4.27531 0.33318 -0.10915
v 4.27531 0.46392 -0.20126
v 4.22552 0.21224 1.31371
v 4.17069 0.09788 1.36811
v 4.28325 0.57446 -0.20405
v 4.23395 0.59459 -0.28615
v 4.28469 0.59456 -0.20455
v 4.28507 0.33272 1.23713
v 4.30598 0.46389 -0.11435
v 4.3144 0.57443 -0.11575
v 4.31593 0.59453 -0.11601
v 4.19952 0.21221 1.38739
v 4.13136 0.09786 1.42611
v 4.27531 0.33269 1.32227
v 4.31633 0.46342 1.23718
v 4.32492 0.57396 1.23722
v 4.1573 0.21219 1.45529
v 4.07843 0.09784 1.47695
v 4.24643 0.33266 1.40413
v 4.30598 0.46339 1.32756
v 4.32648 0.59406 1.23722
v 4.32102 0.59981 -0.11958
v 4.33167 0.59934 1.24481
v 4.3144 0.57393 1.32904
v 4.31593 0.59403 1.32931
v 4.10049 0.21217 1.5148
v 4.01392 0.09783 1.51868
v 4.03126 0.21215 1.56365
v 4.19952 0.33263 1.47958
v 4.27531 0.46336 1.41447
v 4.13639 0.33261 1.54571
v 4.05947 0.33259 1.59998
v 4.28325 0.5739 1.41733
v 4.22552 0.46333 1.49456
v 4.1585 0.46331 1.56476
v 4.07684 0.46329 1.62237
v 4.28469 0.594 1.41785
v 4.32114 0.59931 1.33664
v 4.23265 0.57387 1.4987
v 4.23395 0.59397 1.49945
v 4.16457 0.57385 1.57002
v 4.08161 0.57383 1.62855
v 4.16567 0.59395 1.57097
v 4.08247 0.59393 1.62967
v 4.32114 0.59931 1.33664
v 4.29029 0.59928 1.42408
v 4.28469 0.594 1.41785
v 4.33167 0.59934 1.24481
v 4.31593 0.59403 1.32931
v 4.32648 0.59406 1.23722
v 4.23265 0.57449 -0.28541
v 4.16567 0.59461 -0.35768
v 4.23395 0.59459 -0.28615
v 3.52364 0.21281 -0.35061
v 3.41851 0.33326 -0.33259
v 3.49543 0.33328 -0.38686
v 3.3964 0.46397 -0.35155
v 3.47806 0.46399 -0.40917
v 3.32938 0.46394 -0.28135
v 3.39033 0.57451 -0.35674
v 3.47329 0.57453 -0.41527
v 3.32224 0.57449 -0.28541
v 3.27165 0.57446 -0.20405
v 3.32094 0.59459 -0.28615
v 3.38922 0.59461 -0.35768
v 3.47242 0.59463 -0.41638
v 4.07842 0.09845 -0.26435
v 4.01392 0.09846 -0.30608
v 4.03126 0.21281 -0.35061
v 4.10049 0.21279 -0.30177
v 4.05947 0.33328 -0.38686
v 4.13639 0.33326 -0.33259
v 4.07684 0.46399 -0.40917
v 4.08161 0.57453 -0.41527
v 3.98755 0.59464 -0.45999
v 4.08247 0.59463 -0.41638
v 3.98696 0.57455 -0.45876
v 4.07684 0.46399 -0.40917
v 3.88456 0.59465 -0.48685
v 3.98367 0.464 -0.45198
v 4.05947 0.33328 -0.38686
v 3.88425 0.57455 -0.48554
v 3.77745 0.59466 -0.49592
v 3.97171 0.33329 -0.42719
v 4.03126 0.21281 -0.35061
v 3.88258 0.46401 -0.47834
v 3.77745 0.57456 -0.49459
v 3.67034 0.59465 -0.48685
v 3.95227 0.21282 -0.38691
v 4.01392 0.09846 -0.30608
v 3.94034 0.09847 -0.33708
v 3.87648 0.3333 -0.45202
v 3.86657 0.21283 -0.40925
v 3.86049 0.09848 -0.35617
v 3.77745 0.46402 -0.48724
v 3.67064 0.57455 -0.48554
v 3.56734 0.59464 -0.45999
v 3.77745 0.21283 -0.4168
v 3.77745 0.09848 -0.36262
v 3.77745 0.3333 -0.46041
v 3.56794 0.57455 -0.45876
v 3.47242 0.59463 -0.41638
v 3.47329 0.57453 -0.41527
v 3.67232 0.46401 -0.47834
v 3.57122 0.464 -0.45198
v 3.47806 0.46399 -0.40917
v 3.67842 0.3333 -0.45202
v 3.68832 0.21283 -0.40926
v 3.69441 0.09848 -0.35617
v 3.58319 0.33329 -0.42719
v 3.49543 0.33328 -0.38686
v 3.60262 0.21282 -0.38691
v 3.61456 0.09847 -0.33708
v 3.52364 0.21281 -0.35061
v 3.77745 0.02932 -0.29074
v 3.7122 0.02931 -0.28568
v 3.69441 0.09848 -0.35617
v 3.7122 0.0287 1.49823
v 3.64947 0.0287 1.48323
v 3.64947 0.02931 -0.27068
v 3.77745 0.0287 1.50329
v 3.84269 0.02931 -0.28568
v 3.69441 0.09781 1.56877
v 3.77745 0.09781 1.57522
v 3.86049 0.09781 1.56877
v 3.84269 0.0287 1.49823
v 3.61456 0.09782 1.54968
v 3.59165 0.02871 1.45887
v 3.54097 0.09783 1.51868
v 3.90543 0.02931 -0.27068
v 3.90543 0.0287 1.48323
v 3.59165 0.0293 -0.24632
v 3.54097 0.02872 1.42609
v 3.86049 0.09848 -0.35617
v 3.77745 0.09848 -0.36262
v 3.94034 0.09847 -0.33708
v 3.96325 0.0293 -0.24632
v 4.01392 0.09846 -0.30608
v 3.54097 0.09846 -0.30608
v 3.61456 0.09847 -0.33708
v 3.47647 0.09845 -0.26435
v 3.54097 0.02929 -0.21354
v 3.42354 0.09843 -0.21351
v 3.49938 0.02928 -0.17359
v 3.49938 0.02874 1.38614
v 3.47647 0.09784 1.47695
v 3.42354 0.09786 1.42611
v 3.46848 0.02875 1.34057
v 3.46848 0.02926 -0.12802
v 3.44945 0.02877 1.29112
v 3.44945 0.02924 -0.07857
v 3.44302 0.02879 1.23969
v 3.7122 0.02931 -0.28568
v 3.64947 0.02931 -0.27068
v 3.61456 0.09847 -0.33708
v 3.69441 0.09848 -0.35617
v 3.77745 0.02932 -0.29074
v 3.77745 0.09848 -0.36262
v 3.84269 0.02931 -0.28568
v 3.44945 0.02924 -0.07857
v 3.3518 0.09793 1.23971
v 3.35998 0.09839 -0.09257
v 3.3206 0.21226 1.23709
v 3.32938 0.21224 1.31371
v 3.35998 0.0979 1.30517
v 3.35538 0.21221 1.38739
v 3.3842 0.09788 1.36811
v 3.44945 0.02877 1.29112
v 3.46848 0.02875 1.34057
v 3.39759 0.21219 1.45529
v 3.35538 0.33263 1.47958
v 3.27958 0.33269 1.32227
v 3.30847 0.33266 1.40413
v 3.27958 0.46336 1.41447
v 3.32938 0.46333 1.49456
v 3.24892 0.46339 1.32756
v 3.27165 0.5739 1.41733
v 3.26983 0.33272 1.23713
v 3.24049 0.57393 1.32904
v 3.27021 0.594 1.41785
v 3.23896 0.59403 1.32931
v 3.23856 0.46342 1.23718
v 3.22997 0.57396 1.23722
v 3.22841 0.59406 1.23722
v 3.32938 0.21272 -0.10068
v 3.27958 0.33318 -0.10915
v 3.24892 0.46389 -0.11435
v 3.24049 0.57443 -0.11575
v 3.3842 0.09841 -0.15551
v 3.46848 0.02926 -0.12802
v 3.49938 0.02928 -0.17359
v 3.42354 0.09843 -0.21351
v 3.35538 0.21275 -0.17436
v 3.30847 0.33321 -0.19102
v 3.39759 0.21277 -0.24226
v 3.47647 0.09845 -0.26435
v 3.27958 0.46392 -0.20126
v 3.23896 0.59453 -0.11601
v 3.22283 0.59934 1.24443
v 3.27165 0.57446 -0.20405
v 3.27021 0.59456 -0.20455
v 3.32224 0.57449 -0.28541
v 3.32094 0.59459 -0.28615
v 3.32938 0.46394 -0.28135
v 3.35538 0.33324 -0.26646
v 3.41851 0.33326 -0.33259
v 3.45441 0.21279 -0.30177
v 3.52364 0.21281 -0.35061
v 3.54097 0.09846 -0.30608
v 4.08642 0.02926 -0.12802
v 4.13136 0.09843 -0.21351
v 4.17069 0.09841 -0.15551
v 4.10545 0.02924 -0.07857
v 4.19492 0.09839 -0.09257
v 4.11188 0.02879 1.23969
v 4.20309 0.09793 1.23971
v 4.10545 0.02877 1.29112
v 4.19492 0.0979 1.30517
v 4.08642 0.02875 1.34057
v 4.17069 0.09788 1.36811
v 4.05551 0.02874 1.38614
v 4.13136 0.09786 1.42611
v 4.10545 0.02877 1.29112
v 4.10545 0.02924 -0.07857
v 4.11188 0.02879 1.23969
v 4.08642 0.02875 1.34057
v 4.08642 0.02926 -0.12802
v 4.05551 0.02874 1.38614
v 4.05551 0.02928 -0.17359
v 4.01392 0.02872 1.42609
v 4.13136 0.09786 1.42611
v 4.01392 0.02929 -0.21353
v 4.07842 0.09845 -0.26435
v 3.96325 0.02871 1.45887
v 4.01392 0.09783 1.51868
v 3.94034 0.09782 1.54968
v 4.07843 0.09784 1.47695
v 3.31508 0.59987 -0.28888
v 3.38922 0.59461 -0.35768
v 3.32094 0.59459 -0.28615
v 3.38302 0.5999 -0.36006
v 3.47242 0.59463 -0.41638
v 3.46683 0.59992 -0.41918
v 3.56734 0.59464 -0.45999
v 3.56473 0.59993 -0.46417
v 3.67034 0.59465 -0.48685
v 3.66839 0.59994 -0.49121
v 3.77745 0.59466 -0.49592
v 3.77717 0.59995 -0.50041
v 3.88456 0.59465 -0.48685
v 3.88603 0.59994 -0.4912
v 3.98755 0.59464 -0.45999
v 3.98981 0.59993 -0.46413
v 4.08247 0.59463 -0.41638
v 4.08778 0.59992 -0.41912
v 4.16567 0.59461 -0.35768
v 4.17154 0.5999 -0.36002
v 4.23395 0.59459 -0.28615
v 3.2646 0.59984 -0.2077
v 3.31508 0.59987 -0.28888
v 3.32094 0.59459 -0.28615
v 3.27021 0.59456 -0.20455
v 3.23347 0.59981 -0.11947
v 3.23896 0.59453 -0.11601
v 3.22283 0.59934 1.24443
v 3.23336 0.59931 1.33638
v 3.22841 0.59406 1.23722
v 3.23896 0.59403 1.32931
v 3.26426 0.59928 1.42396
v 3.27021 0.594 1.41785
v 3.10181 0.59993 -0.44291
v 3.09373 0.59599 -0.56597
v 3.10181 0.59997 -0.56597
v 3.09373 0.59594 -0.44291
v 3.10181 0.5999 -0.36288
v 3.09373 0.59591 -0.36289
v 3.10181 0.59987 -0.27159
v 3.09373 0.59588 -0.27159
v 3.10181 0.59983 -0.17252
v 3.09373 0.59585 -0.17252
v 3.10181 0.59931 1.34048
v 3.09373 0.59533 1.34048
v 3.10181 0.59927 1.44351
v 3.09373 0.59529 1.4435
v 3.10181 0.59924 1.54257
v 3.09373 0.59526 1.54257
v 3.10181 0.59921 1.63387
v 3.09373 0.59522 1.63387
v 3.10181 0.59914 1.84235
v 3.09373 0.59515 1.84235
v 4.29029 0.59928 1.42408
v 4.23395 0.59397 1.49945
v 4.28469 0.594 1.41785
v 4.24019 0.59925 1.50467
v 4.16567 0.59395 1.57097
v 4.17123 0.59923 1.5769
v 4.08247 0.59393 1.62967
v 4.08601 0.59921 1.63702
v 3.98755 0.59391 1.67329
v 3.99068 0.59919 1.68083
v 3.88456 0.5939 1.70015
v 3.88643 0.59918 1.70794
v 3.77745 0.5939 1.70922
v 3.77711 0.59918 1.71713
v 3.67034 0.5939 1.70015
v 3.66788 0.59918 1.70788
v 3.56734 0.59391 1.67329
v 3.56378 0.59919 1.68073
v 3.47242 0.59393 1.62967
v 3.46856 0.59921 1.63697
v 3.38922 0.59395 1.57097
v 3.38343 0.59923 1.57691
v 3.32094 0.59397 1.49945
v 3.31442 0.59925 1.50462
v 3.27021 0.594 1.41785
v 3.26426 0.59928 1.42396
v 3.91199 0.59914 1.84235
v 3.77282 0.59914 1.84235
v 4.0458 0.59914 1.84235
v 3.63366 0.59914 1.84235
v 3.49985 0.59914 1.84235
v 4.16912 0.59914 1.84235
v 3.37652 0.59914 1.84235
v 4.44164 0.59914 1.84235
v 3.10181 0.59914 1.84235
v 4.44164 0.59921 1.63387
v 3.10181 0.59921 1.63387
v 4.44164 0.59924 1.54257
v 3.10181 0.59924 1.54257
v 4.44164 0.59927 1.4435
v 3.23336 0.59931 1.33638
v 4.32114 0.59931 1.33664
v 3.10181 0.59927 1.44351
v 4.44164 0.59931 1.34048
v 3.22283 0.59934 1.24443
v 4.33167 0.59934 1.24481
v 3.10181 0.59931 1.34048
v 4.44164 0.59983 -0.17252
v 3.23347 0.59981 -0.11947
v 4.32102 0.59981 -0.11958
v 3.10181 0.59983 -0.17252
v 4.44164 0.59987 -0.27159
v 3.2646 0.59984 -0.2077
v 4.28992 0.59984 -0.20772
v 3.10181 0.59987 -0.27159
v 4.44164 0.5999 -0.36288
v 3.31508 0.59987 -0.28888
v 3.10181 0.5999 -0.36288
v 3.38302 0.5999 -0.36006
v 3.10181 0.59993 -0.44291
v 3.46683 0.59992 -0.41918
v 3.10181 0.59997 -0.56597
v 3.56473 0.59993 -0.46417
v 3.49985 0.59997 -0.56597
v 3.66839 0.59994 -0.49121
v 3.63366 0.59997 -0.56597
v 3.77717 0.59995 -0.50041
v 3.77282 0.59997 -0.56597
v 3.88603 0.59994 -0.4912
v 3.91199 0.59997 -0.56597
v 3.98981 0.59993 -0.46413
v 4.0458 0.59997 -0.56597
v 4.08778 0.59992 -0.41912
v 4.44164 0.59997 -0.56597
v 4.17154 0.5999 -0.36002
v 4.44164 0.59993 -0.44291
v 4.23947 0.59987 -0.28886
v 4.23395 0.59459 -0.28615
v 3.32938 0.21224 1.31371
v 3.35538 0.21221 1.38739
v 3.30847 0.33266 1.40413
v 3.35538 0.33263 1.47958
v 3.32938 0.46333 1.49456
v 3.3964 0.46331 1.56476
v 3.41851 0.33261 1.54571
v 3.39759 0.21219 1.45529
v 3.39033 0.57385 1.57002
v 3.32224 0.57387 1.4987
v 3.27958 0.46336 1.41447
v 3.27165 0.5739 1.41733
v 3.32094 0.59397 1.49945
v 3.27021 0.594 1.41785
v 3.38922 0.59395 1.57097
v 3.47242 0.59393 1.62967
v 3.47329 0.57383 1.62855
v 3.47806 0.46329 1.62237
v 3.49543 0.33259 1.59998
v 3.45441 0.21217 1.5148
v 3.52364 0.21215 1.56365
v 3.42354 0.09786 1.42611
v 3.3842 0.09788 1.36811
v 3.47647 0.09784 1.47695
v 3.54097 0.09783 1.51868
v 3.46848 0.02875 1.34057
v 3.42354 0.09786 1.42611
v 3.3842 0.09788 1.36811
v 3.49938 0.02874 1.38614
v 3.54097 0.02872 1.42609
v 3.54097 0.09783 1.51868
v 3.47647 0.09784 1.47695
v 3.59165 0.02871 1.45887
v 3.84269 0.0287 1.49823
v 3.94034 0.09782 1.54968
v 3.86049 0.09781 1.56877
v 3.90543 0.0287 1.48323
v 3.96325 0.02871 1.45887
v 4.01392 0.02872 1.42609
v 4.07843 0.09784 1.47695
v 4.13136 0.09786 1.42611
v 3.86049 0.09781 1.56877
v 3.94034 0.09782 1.54968
v 3.95228 0.21214 1.59994
v 3.86657 0.21213 1.62229
v 3.77745 0.09781 1.57522
v 3.97171 0.33258 1.64031
v 3.77745 0.21213 1.62984
v 3.69441 0.09781 1.56877
v 3.87648 0.33257 1.66514
v 3.98367 0.46327 1.66519
v 3.68832 0.21213 1.62229
v 3.61456 0.09782 1.54968
v 3.77745 0.33257 1.67353
v 3.88258 0.46326 1.69155
v 3.98696 0.57381 1.67204
v 3.60262 0.21214 1.59994
v 3.54097 0.09783 1.51868
v 3.52364 0.21215 1.56365
v 3.67842 0.33257 1.66514
v 3.58319 0.33258 1.64031
v 3.49543 0.33259 1.59998
v 3.77745 0.46326 1.70045
v 3.88425 0.5738 1.69883
v 3.98755 0.59391 1.67329
v 3.88456 0.5939 1.70015
v 3.77745 0.5738 1.70787
v 3.77745 0.5939 1.70922
v 3.67232 0.46326 1.69155
v 3.57122 0.46327 1.66519
v 3.47806 0.46329 1.62237
v 3.67064 0.5738 1.69883
v 3.67034 0.5939 1.70015
v 3.56794 0.57381 1.67204
v 3.47329 0.57383 1.62855
v 3.56734 0.59391 1.67329
v 3.47242 0.59393 1.62967
v 3.94034 0.09782 1.54968
v 4.01392 0.09783 1.51868
v 4.03126 0.21215 1.56365
v 3.95228 0.21214 1.59994
v 4.05947 0.33259 1.59998
v 3.97171 0.33258 1.64031
v 4.07684 0.46329 1.62237
v 3.98367 0.46327 1.66519
v 4.08161 0.57383 1.62855
v 3.98696 0.57381 1.67204
v 4.08247 0.59393 1.62967
v 3.98755 0.59391 1.67329
v 4.28992 0.59984 -0.20772
v 4.32102 0.59981 -0.11958
v 4.31593 0.59453 -0.11601
v 4.28469 0.59456 -0.20455
v 4.23947 0.59987 -0.28886
v 4.23395 0.59459 -0.28615
v 3.10181 0.58747 -0.56597
v 3.10181 0.48715 -0.56601
v 3.10181 0.48711 -0.44295
v 3.10181 0.58743 -0.44291
v 3.10181 0.59997 -0.56597
v 3.10181 0.48708 -0.36292
v 3.10181 0.59993 -0.44291
v 3.10181 0.5874 -0.36289
v 3.10181 0.48705 -0.27162
v 3.10181 0.5999 -0.36288
v 3.10181 0.58737 -0.27159
v 3.10181 0.48701 -0.17256
v 3.10181 0.59987 -0.27159
v 3.10181 0.58734 -0.17252
v 3.10181 0.48649 1.34044
v 3.10181 0.59983 -0.17252
v 3.10181 0.58682 1.34048
v 3.10181 0.48646 1.44347
v 3.10181 0.59931 1.34048
v 3.10181 0.58678 1.4435
v 3.10181 0.48642 1.54253
v 3.10181 0.59927 1.44351
v 3.10181 0.58675 1.54257
v 3.10181 0.48639 1.63383
v 3.10181 0.59924 1.54257
v 3.10181 0.58671 1.63387
v 3.10181 0.48632 1.84231
v 3.10181 0.59921 1.63387
v 3.10181 0.58664 1.84234
v 3.10181 0.59914 1.84235
v 3.09175 0.58747 -0.56597
v 3.09175 0.48711 -0.44295
v 3.09175 0.48715 -0.56601
v 3.09175 0.58743 -0.44291
v 3.09373 0.59599 -0.56597
v 3.09175 0.48708 -0.36292
v 3.09373 0.59594 -0.44291
v 3.09175 0.5874 -0.36289
v 3.09175 0.48705 -0.27162
v 3.09373 0.59591 -0.36289
v 3.09175 0.58737 -0.27159
v 3.09175 0.48701 -0.17256
v 3.09373 0.59588 -0.27159
v 3.09175 0.58734 -0.17252
v 3.09175 0.48649 1.34044
v 3.09373 0.59585 -0.17252
v 3.09175 0.58682 1.34048
v 3.09175 0.48646 1.44347
v 3.09373 0.59533 1.34048
v 3.09175 0.58678 1.4435
v 3.09175 0.48642 1.54253
v 3.09373 0.59529 1.4435
v 3.09175 0.58675 1.54257
v 3.09175 0.48639 1.63383
v 3.09373 0.59526 1.54257
v 3.09175 0.58671 1.63387
v 3.09175 0.48632 1.84231
v 3.09373 0.59522 1.63387
v 3.09175 0.58664 1.84234
v 3.09373 0.59515 1.84235
v 3.10181 0.48639 1.63383
v 3.09175 0.48632 1.84231
v 3.10181 0.48632 1.84231
v 3.09175 0.48639 1.63383
v 3.10181 0.48642 1.54253
v 3.09175 0.48642 1.54253
v 3.10181 0.48646 1.44347
v 3.09175 0.48646 1.44347
v 3.10181 0.48649 1.34044
v 3.09175 0.48649 1.34044
v 3.10181 0.48701 -0.17256
v 3.09175 0.48701 -0.17256
v 3.10181 0.48705 -0.27162
v 3.09175 0.48705 -0.27162
v 3.10181 0.48708 -0.36292
v 3.09175 0.48708 -0.36292
v 3.10181 0.48711 -0.44295
v 3.09175 0.48711 -0.44295
v 3.10181 0.48715 -0.56601
v 3.09175 0.48715 -0.56601
v 3.10181 0.58664 1.84234
v 3.09373 0.59515 1.84235
v 3.10181 0.59914 1.84235
v 3.09175 0.58664 1.84234
v 3.10181 0.48632 1.84231
v 3.09175 0.48632 1.84231
v 3.10181 0.58747 -0.56597
v 3.09175 0.48715 -0.56601
v 3.10181 0.48715 -0.56601
v 3.09175 0.58747 -0.56597
v 3.10181 0.59997 -0.56597
v 3.09373 0.59599 -0.56597
vn 3.860024 0.6597396 1.094038
vn 3.937229 0.6567858 1.062478
vn 3.969949 0.5539423 1.104919
vn 3.709744 0.9196226 0.6408496
vn 3.750709 0.9179219 0.6389116
vn 4.188096 0.6599815 0.6490476
vn 3.750696 0.9179261 0.6370547
vn 4.188588 0.6594631 0.6367397
vn 4.182548 0.6469802 0.5205752
vn 3.710312 0.9196291 0.6352605
vn 3.703332 0.9196162 0.6422088
vn 3.399382 0.6533679 1.014428
vn 3.328851 0.6501472 0.9471569
vn 3.702572 0.9196226 0.6408499
vn 3.703332 0.9196162 0.6422088
vn 3.328851 0.6501472 0.9471569
vn 3.399382 0.6533679 1.014428
vn 3.35838 0.5484383 1.049171
vn 3.281741 0.5428865 0.9731005
vn 3.269635 0.6477342 0.8594565
vn 3.345366 0.5069084 1.056596
vn 3.218686 0.5382959 0.8763455
vn 3.22422 0.6599814 0.6490478
vn 3.27028 0.5114477 0.9757152
vn 3.16103 0.5319121 0.6516688
vn 3.223728 0.6594629 0.6367398
vn 3.33393 0.4283445 1.069863
vn 3.421571 0.426005 1.132309
vn 3.419275 0.3822302 1.136431
vn 3.210011 0.5156333 0.8760051
vn 3.160661 0.5314158 0.6366706
vn 3.229767 0.64698 0.5205758
vn 3.330694 0.3833832 1.073655
vn 3.427433 0.4841689 1.122297
vn 3.343545 0.4964417 1.058995
vn 3.251464 0.3846437 0.9902565
vn 3.255652 0.4308822 0.9870389
vn 3.157151 0.5202734 0.65279
vn 3.192493 0.4332216 0.8844108
vn 3.176729 0.5358948 0.5122609
vn 3.269821 0.6482232 0.4148399
vn 3.187496 0.3858136 0.8868541
vn 3.268986 0.5056696 0.9768819
vn 3.207923 0.508006 0.877069
vn 3.156824 0.5199643 0.6366849
vn 3.136668 0.4356847 0.6541135
vn 3.130788 0.3867213 0.6545901
vn 3.148573 0.491096 0.6540743
vn 3.218784 0.538759 0.3978244
vn 3.32907 0.6508117 0.3272261
vn 3.17054 0.5186981 0.5131823
vn 3.136382 0.4355121 0.6366487
vn 3.130512 0.3866322 0.6366189
vn 3.281877 0.5435347 0.3011046
vn 3.399601 0.6541812 0.2600542
vn 3.210011 0.5157986 0.3981044
vn 3.150945 0.4349988 0.5086257
vn 3.148177 0.4905879 0.6366688
vn 3.67957 0.918712 0.6562663
vn 3.676986 0.9183426 0.6114408
vn 3.14533 0.3867532 0.5072665
vn 3.171361 0.5213466 0.5134364
vn 3.358504 0.5492408 0.2251158
vn 3.475273 0.6576856 0.2120768
vn 3.442456 0.5548431 0.1694283
vn 3.270278 0.5117038 0.2984051
vn 3.192493 0.4333932 0.3896425
vn 3.345361 0.5072209 0.2175203
vn 3.429869 0.5030449 0.1562062
vn 3.187496 0.3859857 0.3871655
vn 3.255653 0.4311243 0.2870111
vn 3.33393 0.4286434 0.2041849
vn 3.421572 0.4263467 0.1417374
vn 3.217533 0.5401727 0.4015717
vn 3.686209 0.9187396 0.6115273
vn 3.251481 0.3848878 0.2837409
vn 3.279956 0.5470129 0.3056692
vn 3.330674 0.3836882 0.2003803
vn 3.419228 0.3825768 0.1376129
vn 3.354243 0.5471753 0.2277102
vn 3.437127 0.5467023 0.1688341
vn 3.686209 0.9187396 0.6115273
vn 3.694822 0.9190952 0.6144589
vn 3.217533 0.5401727 0.4015717
vn 3.676986 0.9183426 0.6114408
vn 3.171361 0.5213466 0.5134364
vn 3.148177 0.4905879 0.6366688
vn 3.251464 0.3846437 0.9902565
vn 3.343545 0.4964417 1.058995
vn 3.268986 0.5056696 0.9768819
vn 3.969949 0.5539423 1.104919
vn 4.066955 0.5069305 1.056583
vn 3.982447 0.5027124 1.117894
vn 4.078385 0.4283443 1.069864
vn 3.990744 0.426005 1.13231
vn 4.156662 0.4308825 0.9870393
vn 4.081662 0.3833866 1.07362
vn 3.993134 0.3822328 1.136377
vn 4.160818 0.3846448 0.9902986
vn 4.224831 0.3858127 0.8868302
vn 4.141691 0.5114686 0.9761474
vn 4.067937 0.5014859 1.057836
vn 3.984338 0.4884173 1.121348
vn 3.399382 0.6533679 1.014428
vn 3.475164 0.6567957 1.062512
vn 3.442365 0.5539457 1.104917
vn 3.35838 0.5484383 1.049171
vn 3.429869 0.502712 1.117895
vn 3.345366 0.5069084 1.056596
vn 3.421571 0.426005 1.132309
vn 3.419275 0.3822302 1.136431
vn 3.517902 0.475893 1.166188
vn 3.427433 0.4841689 1.122297
vn 3.512913 0.3813262 1.179642
vn 3.421571 0.426005 1.132309
vn 3.612088 0.4724495 1.191561
vn 3.514407 0.424192 1.175379
vn 3.429869 0.502712 1.117895
vn 3.609168 0.3807568 1.204839
vn 3.706221 0.4716639 1.199665
vn 3.519762 0.4993834 1.160362
vn 3.442365 0.5539457 1.104917
vn 3.60978 0.4230035 1.200494
vn 3.706157 0.3805635 1.213075
vn 3.800922 0.4742792 1.19101
vn 3.529562 0.5585418 1.142351
vn 3.475164 0.6567957 1.062512
vn 3.552292 0.6597394 1.094038
vn 3.612402 0.4972713 1.185197
vn 3.617755 0.5615319 1.163734
vn 3.629448 0.6617137 1.11178
vn 3.706157 0.4226169 1.20873
vn 3.803226 0.3807574 1.204825
vn 3.893592 0.4791457 1.165648
vn 3.706156 0.5625877 1.170666
vn 3.706142 0.6624132 1.117472
vn 3.706156 0.4965796 1.193349
vn 3.899326 0.3813266 1.179669
vn 3.984338 0.4884173 1.121348
vn 3.993134 0.3822328 1.136377
vn 3.802533 0.4230032 1.200494
vn 3.897913 0.4241664 1.175382
vn 3.990744 0.426005 1.13231
vn 3.799913 0.4972717 1.185197
vn 3.79456 0.5615321 1.163734
vn 3.782911 0.6617117 1.111775
vn 3.892553 0.4993842 1.160362
vn 3.982447 0.5027124 1.117894
vn 3.882794 0.558508 1.142351
vn 3.860024 0.6597396 1.094038
vn 3.969949 0.5539423 1.104919
vn 3.706365 0.9195999 0.6443403
vn 3.70648 0.9196004 0.6442931
vn 3.782911 0.6617117 1.111775
vn 3.70648 0.9196053 0.6300953
vn 3.706868 0.9196067 0.630241
vn 3.706868 0.9196019 0.6441469
vn 3.706158 0.9196048 0.6300477
vn 3.705876 0.9196004 0.6442987
vn 3.782841 0.6627133 0.1628787
vn 3.706141 0.6634233 0.1571918
vn 3.629474 0.6627132 0.1628786
vn 3.705835 0.9196053 0.6300949
vn 3.859889 0.6606923 0.1805696
vn 3.707449 0.9196098 0.63061
vn 3.937042 0.6576859 0.2120766
vn 3.705447 0.9196019 0.6441472
vn 3.705447 0.9196067 0.6302409
vn 3.707449 0.9196053 0.6437785
vn 3.708174 0.9196143 0.6312239
vn 3.629448 0.6617137 1.11178
vn 3.706142 0.6624132 1.117472
vn 3.552292 0.6597394 1.094038
vn 3.704866 0.9196053 0.6437786
vn 3.475164 0.6567957 1.062512
vn 3.937229 0.6567858 1.062478
vn 3.860024 0.6597396 1.094038
vn 4.012934 0.6533681 1.014428
vn 3.708174 0.9196101 0.6431646
vn 4.083417 0.6501393 0.9472221
vn 3.708984 0.9196162 0.6422084
vn 3.708984 0.9196196 0.6321794
vn 4.012714 0.6541817 0.2600543
vn 4.083246 0.6508119 0.3272267
vn 3.709744 0.9196252 0.6335382
vn 3.709744 0.9196226 0.6408496
vn 3.710312 0.9196291 0.6352605
vn 3.750709 0.9179219 0.6389116
vn 3.750696 0.9179261 0.6370547
vn 3.70648 0.9196004 0.6442931
vn 3.706868 0.9196019 0.6441469
vn 3.860024 0.6597396 1.094038
vn 3.782911 0.6617117 1.111775
vn 3.706365 0.9195999 0.6443403
vn 3.706142 0.6624132 1.117472
vn 3.705876 0.9196004 0.6442987
vn 3.750709 0.9179219 0.6389116
vn 4.188588 0.6594631 0.6367397
vn 4.188096 0.6599815 0.6490476
vn 4.251655 0.5314157 0.6366704
vn 4.235586 0.5358946 0.5122608
vn 4.182548 0.6469802 0.5205752
vn 4.193532 0.5387589 0.3978243
vn 4.142494 0.6482235 0.41484
vn 3.710312 0.9196291 0.6352605
vn 3.709744 0.9196252 0.6335382
vn 4.130448 0.5435501 0.3011254
vn 4.142035 0.5116816 0.2983911
vn 4.241776 0.5186974 0.5131841
vn 4.202303 0.5157998 0.3981017
vn 4.219822 0.4333931 0.3896413
vn 4.156662 0.4311245 0.287011
vn 4.26137 0.4349988 0.5086238
vn 4.224819 0.3859855 0.3871651
vn 4.255491 0.5199643 0.6366848
vn 4.267009 0.3867553 0.5073699
vn 4.193219 0.5449844 0.4024276
vn 4.23891 0.5276514 0.5139021
vn 4.275932 0.4355208 0.6366473
vn 4.281803 0.3866316 0.6366187
vn 4.26187 0.4988743 0.6367422
vn 4.251256 0.5319957 0.6516632
vn 4.255164 0.5202738 0.6527899
vn 4.275657 0.43563 0.6541115
vn 4.281528 0.3867207 0.6545904
vn 4.14268 0.6477345 0.8594561
vn 3.709744 0.9196226 0.6408496
vn 3.708984 0.9196162 0.6422084
vn 4.083417 0.6501393 0.9472221
vn 4.19363 0.5382958 0.8763452
vn 4.202304 0.5156333 0.8760049
vn 4.13057 0.5428917 0.9731027
vn 4.012934 0.6533681 1.014428
vn 4.219822 0.4332221 0.8844099
vn 4.261503 0.4992266 0.6542438
vn 3.727766 0.9192412 0.635938
vn 4.224831 0.3858127 0.8868302
vn 4.20253 0.5145955 0.8762858
vn 4.160818 0.3846448 0.9902986
vn 4.141691 0.5114686 0.9761474
vn 4.156662 0.4308825 0.9870393
vn 4.142038 0.5114695 0.975701
vn 4.066955 0.5069305 1.056583
vn 4.053936 0.548438 1.049171
vn 3.969949 0.5539423 1.104919
vn 3.937229 0.6567858 1.062478
vn 3.702572 0.9196226 0.6408499
vn 3.328851 0.6501472 0.9471569
vn 3.269635 0.6477342 0.8594565
vn 3.661606 0.917922 0.6389118
vn 3.22422 0.6599814 0.6490478
vn 3.661619 0.9179261 0.6370547
vn 3.223728 0.6594629 0.6367398
vn 3.702003 0.9196291 0.6352609
vn 3.229767 0.64698 0.5205758
vn 3.702571 0.9196252 0.6335381
vn 3.269821 0.6482232 0.4148399
vn 3.703332 0.9196196 0.6321793
vn 3.32907 0.6508117 0.3272261
vn 3.702003 0.9196291 0.6352609
vn 3.661606 0.917922 0.6389118
vn 3.661619 0.9179261 0.6370547
vn 3.702571 0.9196252 0.6335381
vn 3.702572 0.9196226 0.6408499
vn 3.703332 0.9196196 0.6321793
vn 3.703332 0.9196162 0.6422088
vn 3.704142 0.9196143 0.631224
vn 3.32907 0.6508117 0.3272261
vn 3.704142 0.9196101 0.6431641
vn 3.399382 0.6533679 1.014428
vn 3.704866 0.9196098 0.6306098
vn 3.475273 0.6576856 0.2120768
vn 3.552467 0.6606957 0.1805582
vn 3.399601 0.6541812 0.2600542
vn 3.717014 0.9194436 0.6477931
vn 4.067937 0.5014859 1.057836
vn 4.141691 0.5114686 0.9761474
vn 3.712397 0.9195226 0.647205
vn 3.984338 0.4884173 1.121348
vn 3.70949 0.9195493 0.6470536
vn 3.893592 0.4791457 1.165648
vn 3.709098 0.9194439 0.6520076
vn 3.800922 0.4742792 1.19101
vn 3.710146 0.9187145 0.6695461
vn 3.706221 0.4716639 1.199665
vn 3.70639 0.9184573 0.6740319
vn 3.612088 0.4724495 1.191561
vn 3.701965 0.9187019 0.6697414
vn 3.517902 0.475893 1.166188
vn 3.702891 0.9194246 0.6526675
vn 3.427433 0.4841689 1.122297
vn 3.707537 0.9194688 0.6512577
vn 3.343545 0.4964417 1.058995
vn 3.703358 0.9194298 0.6525691
vn 3.268986 0.5056696 0.9768819
vn 3.720948 0.9193866 0.6460146
vn 3.717014 0.9194436 0.6477931
vn 4.141691 0.5114686 0.9761474
vn 4.20253 0.5145955 0.8762858
vn 3.727353 0.9192544 0.6388662
vn 4.261503 0.4992266 0.6542438
vn 3.727766 0.9192412 0.635938
vn 3.724329 0.9193354 0.6315977
vn 4.26187 0.4988743 0.6367422
vn 4.23891 0.5276514 0.5139021
vn 3.719908 0.9194261 0.6289026
vn 4.193219 0.5449844 0.4024276
vn 3.723592 0.9193833 0.6371933
vn 3.257004 0.7040657 0.6102191
vn 3.714677 0.9195835 0.636445
vn 3.256516 0.7044508 0.63712
vn 3.726828 0.9192764 0.6371931
vn 3.256516 0.704451 0.63712
vn 3.733493 0.9189991 0.6371927
vn 3.256516 0.704451 0.63712
vn 3.74391 0.918411 0.637192
vn 3.256516 0.704451 0.63712
vn 3.744325 0.9183837 0.6371956
vn 3.256516 0.7044511 0.63712
vn 3.739269 0.9186963 0.6371954
vn 3.256516 0.704451 0.6371198
vn 3.731945 0.9190704 0.6371952
vn 3.256516 0.7044512 0.63712
vn 3.728792 0.9192027 0.6371951
vn 3.256516 0.7044512 0.63712
vn 3.716987 0.9195445 0.6378427
vn 3.256753 0.7042738 0.6554745
vn 3.694822 0.9190952 0.6144589
vn 3.279956 0.5470129 0.3056692
vn 3.217533 0.5401727 0.4015717
vn 3.704216 0.9193536 0.6187067
vn 3.354243 0.5471753 0.2277102
vn 3.70122 0.919575 0.6293556
vn 3.437127 0.5467023 0.1688341
vn 3.694569 0.9194897 0.6301444
vn 3.524053 0.5457872 0.1283073
vn 3.692288 0.9192635 0.6211886
vn 3.614918 0.543305 0.1035116
vn 3.696229 0.9191328 0.6147591
vn 3.705819 0.5420854 0.09531438
vn 3.707452 0.9190864 0.611599
vn 3.796812 0.5439466 0.1036539
vn 3.717848 0.9191153 0.6151643
vn 3.88714 0.5470506 0.1284139
vn 3.720776 0.919257 0.6216332
vn 3.974673 0.5489028 0.169505
vn 3.717784 0.9194977 0.6309355
vn 4.0573 0.5502807 0.2286134
vn 3.71651 0.9195505 0.6350557
vn 4.131203 0.5508685 0.306589
vn 3.713542 0.9195493 0.6293943
vn 4.193219 0.5449844 0.4024276
vn 3.719908 0.9194261 0.6289026
vn 3.706158 0.9196466 0.6371939
vn 3.706158 0.9196466 0.6371939
vn 3.706158 0.9196466 0.637194
vn 3.706158 0.9196466 0.6371939
vn 3.706158 0.9196466 0.637194
vn 3.706158 0.9196466 0.637194
vn 3.706158 0.9196466 0.637194
vn 3.706158 0.9196466 0.6371941
vn 3.716987 0.9195445 0.6378427
vn 3.706158 0.9196466 0.6371942
vn 3.728792 0.9192027 0.6371951
vn 3.706157 0.9196466 0.6371942
vn 3.731945 0.9190704 0.6371952
vn 3.706157 0.9196466 0.6371942
vn 3.724329 0.9193354 0.6315977
vn 3.686209 0.9187396 0.6115273
vn 3.739269 0.9186963 0.6371954
vn 3.706157 0.9196466 0.6371942
vn 3.727766 0.9192412 0.635938
vn 3.676986 0.9183426 0.6114408
vn 3.744325 0.9183837 0.6371956
vn 3.706157 0.9196466 0.6371942
vn 3.727353 0.9192544 0.6388662
vn 3.67957 0.918712 0.6562663
vn 3.74391 0.918411 0.637192
vn 3.706157 0.9196466 0.6371942
vn 3.720948 0.9193866 0.6460146
vn 3.692819 0.9190179 0.6603976
vn 3.733493 0.9189991 0.6371927
vn 3.706157 0.9196466 0.6371942
vn 3.717014 0.9194436 0.6477931
vn 3.726828 0.9192764 0.6371931
vn 3.712397 0.9195226 0.647205
vn 3.723592 0.9193833 0.6371933
vn 3.70949 0.9195493 0.6470536
vn 3.714677 0.9195835 0.636445
vn 3.709098 0.9194439 0.6520076
vn 3.706158 0.9196466 0.6371945
vn 3.710146 0.9187145 0.6695461
vn 3.706158 0.9196466 0.6371946
vn 3.70639 0.9184573 0.6740319
vn 3.706158 0.9196466 0.6371946
vn 3.701965 0.9187019 0.6697414
vn 3.706158 0.9196466 0.6371946
vn 3.702891 0.9194246 0.6526675
vn 3.706158 0.9196466 0.6371945
vn 3.707537 0.9194688 0.6512577
vn 3.706158 0.9196466 0.6371943
vn 3.703358 0.9194298 0.6525691
vn 3.706158 0.9196466 0.6371942
vn 3.698372 0.9192496 0.6569377
vn 3.268986 0.5056696 0.9768819
vn 4.235586 0.5358946 0.5122608
vn 4.193532 0.5387589 0.3978243
vn 4.202303 0.5157998 0.3981017
vn 4.142035 0.5116816 0.2983911
vn 4.156662 0.4311245 0.287011
vn 4.078385 0.4286438 0.2041853
vn 4.066951 0.5072231 0.2175176
vn 4.130448 0.5435501 0.3011254
vn 4.081621 0.3836865 0.2003626
vn 4.160851 0.3848874 0.2837619
vn 4.219822 0.4333931 0.3896413
vn 4.224819 0.3859855 0.3871651
vn 4.131203 0.5508685 0.306589
vn 4.193219 0.5449844 0.4024276
vn 4.0573 0.5502807 0.2286134
vn 3.974673 0.5489028 0.169505
vn 3.993134 0.3825787 0.1376398
vn 3.990745 0.4263472 0.1417381
vn 3.982447 0.5030445 0.156206
vn 4.053792 0.549239 0.225098
vn 3.96986 0.5548431 0.1694281
vn 4.083246 0.6508119 0.3272267
vn 4.142494 0.6482235 0.41484
vn 4.012714 0.6541817 0.2600543
vn 3.937042 0.6576859 0.2120766
vn 3.709744 0.9196252 0.6335382
vn 4.083246 0.6508119 0.3272267
vn 4.142494 0.6482235 0.41484
vn 3.708984 0.9196196 0.6321794
vn 3.708174 0.9196143 0.6312239
vn 3.937042 0.6576859 0.2120766
vn 4.012714 0.6541817 0.2600543
vn 3.707449 0.9196098 0.63061
vn 3.705835 0.9196053 0.6300949
vn 3.552467 0.6606957 0.1805582
vn 3.629474 0.6627132 0.1628786
vn 3.705447 0.9196067 0.6302409
vn 3.704866 0.9196098 0.6306098
vn 3.704142 0.9196143 0.631224
vn 3.399601 0.6541812 0.2600542
vn 3.32907 0.6508117 0.3272261
vn 3.629474 0.6627132 0.1628786
vn 3.552467 0.6606957 0.1805582
vn 3.529619 0.5594959 0.1320274
vn 3.617803 0.5625536 0.1106738
vn 3.706141 0.6634233 0.1571918
vn 3.519763 0.4997453 0.1137357
vn 3.706158 0.5636423 0.1037599
vn 3.782841 0.6627133 0.1628787
vn 3.612399 0.4976752 0.088907
vn 3.514403 0.4245377 0.09866393
vn 3.794512 0.5625533 0.1106737
vn 3.859889 0.6606923 0.1805696
vn 3.706158 0.4969643 0.08074725
vn 3.609781 0.4233927 0.07355154
vn 3.512812 0.3817049 0.09441036
vn 3.882693 0.5594932 0.1320253
vn 3.937042 0.6576859 0.2120766
vn 3.96986 0.5548431 0.1694281
vn 3.799913 0.4976503 0.08889943
vn 3.892553 0.4997452 0.1137356
vn 3.982447 0.5030445 0.156206
vn 3.706158 0.4230124 0.06531447
vn 3.609008 0.381149 0.06920445
vn 3.524053 0.5457872 0.1283073
vn 3.614918 0.543305 0.1035116
vn 3.706157 0.3809608 0.0609405
vn 3.705819 0.5420854 0.09531438
vn 3.802536 0.4233931 0.07355177
vn 3.897914 0.4245384 0.0986647
vn 3.990745 0.4263472 0.1417381
vn 3.803307 0.3811492 0.06920439
vn 3.796812 0.5439466 0.1036539
vn 3.899453 0.3817031 0.09439218
vn 3.993134 0.3825787 0.1376398
vn 3.88714 0.5470506 0.1284139
vn 3.974673 0.5489028 0.169505
vn 3.552467 0.6606957 0.1805582
vn 3.475273 0.6576856 0.2120768
vn 3.442456 0.5548431 0.1694283
vn 3.529619 0.5594959 0.1320274
vn 3.429869 0.5030449 0.1562062
vn 3.519763 0.4997453 0.1137357
vn 3.421572 0.4263467 0.1417374
vn 3.514403 0.4245377 0.09866393
vn 3.419228 0.3825768 0.1376129
vn 3.512812 0.3817049 0.09441036
vn 3.437127 0.5467023 0.1688341
vn 3.524053 0.5457872 0.1283073
vn 3.692819 0.9190179 0.6603976
vn 3.67957 0.918712 0.6562663
vn 3.148573 0.491096 0.6540743
vn 3.207923 0.508006 0.877069
vn 3.698372 0.9192496 0.6569377
vn 3.268986 0.5056696 0.9768819
vn 4.281741 0.3423299 0.5918646
vn 4.278781 0.2848774 0.5907456
vn 4.280627 0.2846923 0.6369748
vn 4.283508 0.3422964 0.6369947
vn 3.714675 0.9195835 0.6364313
vn 4.280627 0.2846923 0.6369748
vn 3.723592 0.9193833 0.6372218
vn 4.283508 0.3422964 0.6369947
vn 4.280627 0.2846923 0.6369748
vn 3.726828 0.9192764 0.6372218
vn 4.283508 0.3422964 0.6369947
vn 4.280627 0.2846923 0.6369572
vn 3.733493 0.9189991 0.6372216
vn 4.283508 0.3422964 0.6369947
vn 4.280627 0.2846923 0.6369748
vn 3.74391 0.918411 0.6372214
vn 4.283508 0.3422964 0.6369947
vn 4.280627 0.2846923 0.6369748
vn 3.744324 0.9183837 0.6372214
vn 4.283508 0.3422964 0.6369947
vn 4.280627 0.2846923 0.6369572
vn 3.739269 0.9186963 0.6372215
vn 4.283508 0.3422964 0.6369947
vn 4.280627 0.2846923 0.6369748
vn 3.731944 0.9190704 0.6372216
vn 4.283508 0.3422964 0.6369947
vn 4.279766 0.2847343 0.668524
vn 3.728792 0.9192027 0.6372217
vn 4.282686 0.3422857 0.6677985
vn 3.716963 0.9195449 0.6378791
vn 3.130801 0.3528041 0.5902255
vn 3.131688 0.2846923 0.6369923
vn 3.133534 0.2848968 0.5907266
vn 3.128903 0.352797 0.6369983
vn 3.257004 0.7040657 0.6102191
vn 3.131688 0.2846923 0.6369923
vn 3.256516 0.7044508 0.63712
vn 3.128903 0.3527971 0.6369983
vn 3.131688 0.2846923 0.6369923
vn 3.256516 0.704451 0.63712
vn 3.128903 0.3527971 0.6369983
vn 3.131688 0.2846923 0.6369748
vn 3.256516 0.704451 0.63712
vn 3.128903 0.3527971 0.6369956
vn 3.131688 0.2846923 0.6369923
vn 3.256516 0.704451 0.63712
vn 3.128903 0.3527971 0.6369983
vn 3.131688 0.2846923 0.6369923
vn 3.256516 0.7044511 0.63712
vn 3.128903 0.3527971 0.6369983
vn 3.131688 0.2846923 0.6369748
vn 3.256516 0.704451 0.6371198
vn 3.128903 0.3527971 0.6369956
vn 3.131688 0.2846923 0.6369923
vn 3.256516 0.7044512 0.63712
vn 3.128903 0.3527971 0.6369983
vn 3.132548 0.2847744 0.6685622
vn 3.256516 0.7044512 0.63712
vn 3.129787 0.3528033 0.6689229
vn 3.256753 0.7042738 0.6554745
vn 4.280627 0.2846923 0.6369748
vn 3.132548 0.2847744 0.6685622
vn 4.279766 0.2847343 0.668524
vn 3.131688 0.2846923 0.6369923
vn 4.280627 0.2846923 0.6369572
vn 3.131688 0.2846923 0.6369748
vn 4.280627 0.2846923 0.6369748
vn 3.131688 0.2846923 0.6369923
vn 4.280627 0.2846923 0.6369748
vn 3.131688 0.2846923 0.6369923
vn 4.280627 0.2846923 0.6369572
vn 3.131688 0.2846923 0.6369748
vn 4.280627 0.2846923 0.6369748
vn 3.131688 0.2846923 0.6369923
vn 4.280627 0.2846923 0.6369748
vn 3.131688 0.2846923 0.6369923
vn 4.280627 0.2846923 0.6369748
vn 3.131688 0.2846923 0.6369923
vn 4.278781 0.2848774 0.5907456
vn 3.133534 0.2848968 0.5907266
vn 4.282686 0.3422857 0.6677985
vn 3.256753 0.7042738 0.6554745
vn 3.716963 0.9195449 0.6378791
vn 3.129787 0.3528033 0.6689229
vn 4.279766 0.2847343 0.668524
vn 3.132548 0.2847744 0.6685622
vn 4.281741 0.3423299 0.5918646
vn 3.133534 0.2848968 0.5907266
vn 4.278781 0.2848774 0.5907456
vn 3.130801 0.3528041 0.5902255
vn 3.714675 0.9195835 0.6364313
vn 3.257004 0.7040657 0.6102191
vt 0.2596909 0.7610245
vt 0.2596797 0.837725
vt 0.378866 0.855792
vt 0.1876894 -0.5419718
vt 0.1876709 -0.4882036
vt 0.262852 -0.5034294
vt 0.1871755 0.9451652
vt 0.2623513 0.9451911
vt 0.2623267 1.01636
vt 0.1871562 1.001082
vt 1.085146 1.548565
vt 1.10841 1.640729
vt 1.162162 1.589103
vt 0.3356377 1.055512
vt 0.3356549 1.105056
vt 0.4108316 1.148456
vt 0.4108506 1.203726
vt 0.5351602 1.244403
vt 0.5351378 1.179704
vt 0.4108098 1.085398
vt 0.6661215 1.277912
vt 0.5351123 1.105888
vt 0.4107861 1.016977
vt 0.6660966 1.206021
vt 0.5350845 1.025794
vt 0.4102857 -0.4313723
vt 0.808217 1.298524
vt 0.8082389 1.361158
vt 0.9284117 1.367788
vt 0.6660682 1.124002
vt 0.534582 -0.4285215
vt 0.410261 -0.5025279
vt 0.9283906 1.304157
vt 0.9502613 1.368993
vt 0.9502403 1.305181
vt 0.9283638 1.226623
vt 0.8081908 1.222206
vt 0.6660375 1.035006
vt 0.8081605 1.135135
vt 0.5345531 -0.5118169
vt 0.4102376 -0.5709492
vt 0.9283334 1.138165
vt 0.9502134 1.227426
vt 0.9501827 1.138715
vt 0.6655319 -0.4285671
vt 0.8081281 1.040658
vt 0.9282998 1.042182
vt 0.9501494 1.042459
vt 0.5345255 -0.5919112
vt 0.4102157 -0.6340066
vt 0.6654999 -0.5211198
vt 0.8076203 -0.428616
vt 0.9277927 -0.4286574
vt 0.5345001 -0.6657265
vt 0.4101965 -0.6892767
vt 0.6654692 -0.6101157
vt 0.8075863 -0.5268696
vt 0.9496419 -0.428665
vt 0.955897 1.046338
vt 0.9553844 -0.436911
vt 0.927758 -0.5284762
vt 0.9496074 -0.5287686
vt 0.5344777 -0.730426
vt 0.4101808 -0.7346359
vt 0.5344592 -0.7835237
vt 0.6654408 -0.6921348
vt 0.8075538 -0.6213471
vt 0.6654158 -0.7640253
vt 0.6653956 -0.8230239
vt 0.927725 -0.6244593
vt 0.8075235 -0.708418
vt 0.8074973 -0.7847363
vt 0.8074757 -0.8473688
vt 0.9495741 -0.6250253
vt 0.95535 -0.5367439
vt 0.9276943 -0.7129176
vt 0.9495437 -0.7137357
vt 0.927668 -0.7904519
vt 0.9276459 -0.8540827
vt 0.9495174 -0.7914914
vt 0.9494953 -0.8553036
vt 0.95535 -0.5367439
vt 0.9553173 -0.6317971
vt 0.9495741 -0.6250253
vt 0.9553844 -0.436911
vt 0.9496074 -0.5287686
vt 0.9496419 -0.428665
vt 0.9283638 1.226623
vt 0.9502403 1.305181
vt 0.9502134 1.227426
vt 0.3872676 -0.784006
vt 0.5182349 -0.7644134
vt 0.5182555 -0.8234234
vt 0.6603574 -0.78503
vt 0.6603789 -0.8476757
vt 0.660331 -0.7086977
vt 0.7805535 -0.7906635
vt 0.7805742 -0.8543067
vt 0.7805264 -0.713115
vt 0.7804959 -0.6246401
vt 0.8023803 -0.7139181
vt 0.8024071 -0.7916875
vt 0.8024282 -0.8555127
vt 0.4108506 1.203726
vt 0.4108662 1.249085
vt 0.5351784 1.297501
vt 0.5351602 1.244403
vt 0.6661418 1.336911
vt 0.6661215 1.277912
vt 0.8082389 1.361158
vt 0.7558848 0.2742249
vt 0.7768481 0.3722566
vt 0.7768334 0.2733209
vt 0.7558997 0.3728786
vt 0.640667 0.2791966
vt 0.7768579 0.4796065
vt 0.6406828 0.3763031
vt 0.5044293 0.2973018
vt 0.7559089 0.479924
vt 0.7768608 0.5912483
vt 0.5044438 0.3887742
vt 0.378866 0.3267033
vt 0.6406918 0.4816699
vt 0.7559124 0.5912483
vt 0.7768579 0.7028891
vt 0.3788791 0.4090269
vt 0.2596797 0.3447704
vt 0.2596909 0.4214714
vt 0.5044528 0.4880277
vt 0.3788871 0.4983524
vt 0.2596977 0.5046964
vt 0.6406952 0.5912483
vt 0.7559092 0.7025716
vt 0.7768481 0.8102397
vt 0.3788899 0.5912483
vt 0.2597 0.591248
vt 0.5044558 0.591248
vt 0.7558997 0.809617
vt 0.7768334 0.9091749
vt 0.7558848 0.9082712
vt 0.6406918 0.7008257
vt 0.6406828 0.8061928
vt 0.640667 0.903299
vt 0.5044528 0.6944681
vt 0.3788871 0.6841437
vt 0.2596977 0.6777992
vt 0.5044438 0.7937213
vt 0.5044293 0.8851938
vt 0.3788791 0.7734692
vt 0.2596909 0.7610245
vt 0.378866 0.855792
vt 0.8027861 1.667527
vt 0.7365353 1.662384
vt 0.7184646 1.733967
vt 0.7365353 -0.1490672
vt 0.6728305 -0.1338349
vt 0.6728302 1.647151
vt 0.8027861 -0.1542104
vt 0.8690372 1.662383
vt 0.7184646 -0.2206985
vt 0.8027861 -0.2272449
vt 0.8871079 -0.2206985
vt 0.8690372 -0.1490672
vt 0.6373836 -0.2013117
vt 0.6141194 -0.1090991
vt 0.5626588 -0.1698292
vt 0.9327423 1.647151
vt 0.9327423 -0.1338349
vt 0.6141194 1.622416
vt 0.5626588 -0.07581043
vt 0.8871079 1.733967
vt 0.8027861 1.740513
vt 0.9681886 1.71458
vt 0.9914529 1.622416
vt 1.042914 1.683097
vt 0.5626588 1.683097
vt 0.6373833 1.71458
vt 0.4971617 1.640729
vt 0.5626588 1.589127
vt 0.4434104 1.589103
vt 0.5204264 1.548565
vt 0.5204264 -0.03524834
vt 0.4971617 -0.1274609
vt 0.4434104 -0.07583475
vt 0.4890445 0.01102912
vt 0.4890445 1.502287
vt 0.4697196 0.06124276
vt 0.4697196 1.452074
vt 0.4631949 0.1134635
vt 0.7365353 1.662384
vt 0.6728302 1.647151
vt 0.6373833 1.71458
vt 0.7184646 1.733967
vt 0.8027861 1.667527
vt 0.8027861 1.740513
vt 0.8690372 1.662383
vt 0.1876709 -0.4882036
vt 0.2623513 0.9451911
vt 0.262852 -0.5034294
vt 0.3866711 0.94234
vt 0.3866424 1.025651
vt 0.2623267 1.01636
vt 0.3866145 1.10576
vt 0.2623031 1.084794
vt 0.1871562 1.001082
vt 0.1871376 1.05485
vt 0.3865891 1.179589
vt 0.5175541 1.206002
vt 0.5176134 1.034955
vt 0.5175825 1.123968
vt 0.659694 1.135201
vt 0.6596637 1.222289
vt 0.6597264 1.040706
vt 0.7798874 1.138314
vt 0.5176451 0.9423851
vt 0.7799207 1.042313
vt 0.8017411 1.13888
vt 0.8017741 1.042606
vt 0.6597605 0.9424343
vt 0.7799553 0.942476
vt 0.8018088 0.9424835
vt 0.3871737 -0.5122484
vt 0.5181512 -0.5214623
vt 0.6602684 -0.5271149
vt 0.7804629 -0.5286391
vt 0.2628755 -0.5718635
vt 0.1876894 -0.5419718
vt 0.1877067 -0.5915251
vt 0.2628975 -0.6349329
vt 0.3872013 -0.5923574
vt 0.5181819 -0.6104751
vt 0.3872269 -0.6661868
vt 0.2629164 -0.6902136
vt 0.6603011 -0.6216103
vt 0.8023163 -0.5289164
vt 0.8075525 0.950315
vt 0.7804959 -0.6246401
vt 0.8023496 -0.6251909
vt 0.7805264 -0.713115
vt 0.8023803 -0.7139181
vt 0.660331 -0.7086977
vt 0.5182102 -0.6925093
vt 0.5182349 -0.7644134
vt 0.3872493 -0.7308986
vt 0.3872676 -0.784006
vt 0.2629322 -0.7355809
vt 0.3356377 1.055512
vt 0.4108316 1.148456
vt 0.4108098 1.085398
vt 0.3356193 1.001754
vt 0.4107861 1.016977
vt 0.335124 -0.4313464
vt 0.4102857 -0.4313723
vt 0.3351045 -0.487253
vt 0.410261 -0.5025279
vt 0.3350861 -0.5410113
vt 0.4102376 -0.5709492
vt 0.3350689 -0.5905552
vt 0.4102157 -0.6340066
vt 1.135852 0.06124276
vt 1.135852 1.452074
vt 1.142378 0.1134635
vt 1.116528 0.01102912
vt 1.116527 1.502287
vt 1.085146 -0.03524834
vt 1.085146 1.548565
vt 1.042914 -0.07581043
vt 1.162162 -0.07583475
vt 1.042914 1.589127
vt 1.10841 1.640729
vt 0.9914529 -0.1090991
vt 1.042914 -0.1698292
vt 0.9681886 -0.2013117
vt 1.108411 -0.1274604
vt -0.212213 1.230988
vt -0.1379105 1.299927
vt -0.2063338 1.228253
vt -0.1441215 1.302315
vt -0.05453742 1.35875
vt -0.06014374 1.361564
vt 0.04058273 1.402458
vt 0.03796406 1.406644
vt 0.1437938 1.429373
vt 0.1418476 1.433736
vt 0.2511295 1.438461
vt 0.2508543 1.442965
vt 0.3584662 1.429373
vt 0.3599385 1.433729
vt 0.4616766 1.402457
vt 0.4639379 1.406608
vt 0.556797 1.358749
vt 0.5621102 1.361497
vt 0.6401708 1.299927
vt 0.6460471 1.302277
vt 0.708593 1.228253
vt 0.8080981 -0.6286124
vt 0.8081288 -0.7168854
vt 0.8023803 -0.7139181
vt 0.8023496 -0.6251909
vt 0.8080651 -0.5326767
vt 0.8023163 -0.5289164
vt 0.8075525 0.950315
vt 0.8075176 1.050293
vt 0.8018088 0.9424835
vt 0.8017741 1.042606
vt 0.8074849 1.145522
vt 0.8017411 1.13888
vt 0.07508165 1.443448
vt 0.06654774 1.57338
vt 0.07508165 1.573379
vt 0.06654774 1.443449
vt 0.07508165 1.358954
vt 0.06654774 1.358956
vt 0.07508165 1.262556
vt 0.06654774 1.262558
vt 0.07508165 1.157958
vt 0.06654774 1.157959
vt 0.07508165 -0.4395457
vt 0.06654774 -0.4395444
vt 0.07508165 -0.5483243
vt 0.06654774 -0.5483229
vt 0.07508165 -0.6529227
vt 0.06654774 -0.6529213
vt 0.07508165 -0.7493216
vt 0.06654774 -0.7493203
vt 0.07508165 -0.9694446
vt 0.06654774 -0.9694433
vt 0.7650509 -0.4855687
vt 0.7085937 -0.5610994
vt 0.7594361 -0.4793265
vt 0.7148395 -0.566326
vt 0.6401708 -0.6327741
vt 0.6457407 -0.6387084
vt 0.5567974 -0.691596
vt 0.5603393 -0.6989615
vt 0.4616773 -0.7353035
vt 0.4648148 -0.7428554
vt 0.3584662 -0.7622197
vt 0.3603377 -0.7700287
vt 0.2511298 -0.7713083
vt 0.2507958 -0.779233
vt 0.1437938 -0.7622197
vt 0.1413372 -0.7699658
vt 0.04058273 -0.7353047
vt 0.03701614 -0.7427596
vt -0.05453742 -0.691596
vt -0.05840778 -0.6989121
vt -0.1379105 -0.6327741
vt -0.1437146 -0.6387262
vt -0.2063338 -0.5610995
vt -0.2128718 -0.5662825
vt -0.2571762 -0.4793265
vt -0.2631312 -0.4854479
vt 0.3859502 -0.904718
vt 0.2464964 -0.904718
vt 0.5200453 -0.904718
vt 0.1070422 -0.904718
vt -0.02705288 -0.904718
vt 0.6436284 -0.904718
vt -0.150636 -0.904718
vt 0.9167147 -0.904718
vt -0.4259263 -0.904718
vt 0.9167147 -0.6958004
vt -0.4259263 -0.6958013
vt 0.9167147 -0.6043099
vt -0.4259263 -0.60431
vt 0.9167147 -0.5050363
vt -0.2940998 -0.3976826
vt 0.7959679 -0.3979492
vt -0.4259263 -0.5050365
vt 0.9167147 -0.4017955
vt -0.3046562 -0.3055407
vt 0.8065115 -0.3059238
vt -0.4259263 -0.4017957
vt 0.9167147 1.114381
vt -0.2939941 1.061217
vt 0.7958446 1.061327
vt -0.4259263 1.114381
vt 0.9167147 1.213655
vt -0.2627954 1.149633
vt 0.7646768 1.149658
vt -0.4259263 1.213655
vt 0.9167147 1.305145
vt -0.212213 1.230988
vt -0.4259263 1.305145
vt -0.1441215 1.302315
vt -0.4259263 1.385337
vt -0.06014374 1.361564
vt -0.4259263 1.508654
vt 0.03796406 1.406644
vt -0.02705288 1.508654
vt 0.1418476 1.433736
vt 0.1070422 1.508654
vt 0.2508543 1.442965
vt 0.2464961 1.508654
vt 0.3599385 1.433729
vt 0.3859499 1.508654
vt 0.4639379 1.406608
vt 0.5200449 1.508654
vt 0.5621102 1.361497
vt 0.9167147 1.508654
vt 0.6460471 1.302277
vt 0.9167147 1.385337
vt 0.7141221 1.230967
vt 0.708593 1.228253
vt 0.3866424 1.025651
vt 0.3866145 1.10576
vt 0.5175825 1.123968
vt 0.5175541 1.206002
vt 0.6596637 1.222289
vt 0.6596372 1.298621
vt 0.5175291 1.277906
vt 0.3865891 1.179589
vt 0.7798305 1.304338
vt 0.779857 1.226789
vt 0.659694 1.135201
vt 0.7798874 1.138314
vt 0.8017104 1.227607
vt 0.8017411 1.13888
vt 0.8016839 1.305377
vt 0.801662 1.369202
vt 0.7798086 1.36798
vt 0.6596159 1.361266
vt 0.5175088 1.336916
vt 0.3865667 1.244301
vt 0.3865485 1.297408
vt 0.2622813 1.147863
vt 0.2623031 1.084794
vt 0.2622622 1.203144
vt 0.2622465 1.248512
vt 0.1871376 1.05485
vt 0.2622813 1.147863
vt 0.2623031 1.084794
vt 0.1871204 1.104404
vt 0.5626588 -0.07581043
vt 0.5626588 -0.1698292
vt 0.4971617 -0.1274609
vt 0.6141194 -0.1090991
vt 0.8690372 -0.1490672
vt 0.9681886 -0.2013117
vt 0.8871079 -0.2206985
vt 0.9327423 -0.1338349
vt 0.9914529 -0.1090991
vt 1.042914 -0.07581043
vt 1.108411 -0.1274604
vt 1.162162 -0.07583475
vt 0.9059498 0.504678
vt 0.9059428 0.4214351
vt 0.7867651 0.4089874
vt 0.7867736 0.498332
vt 0.905952 0.591248
vt 0.6612028 0.3887309
vt 0.7867763 0.591248
vt 0.9059498 0.6778177
vt 0.6612116 0.4880056
vt 0.5249528 0.3762572
vt 0.7867736 0.6841636
vt 0.9059428 0.7610605
vt 0.6612148 0.591248
vt 0.5249622 0.4816465
vt 0.4097129 0.3728314
vt 0.7867651 0.7735082
vt 0.9059318 0.8377777
vt 0.7867521 0.8558486
vt 0.6612116 0.6944903
vt 0.6612028 0.7937647
vt 0.6611884 0.8852566
vt 0.5249658 0.591248
vt 0.4097224 0.4798999
vt 0.3887603 0.3722088
vt 0.3887698 0.4795827
vt 0.4097259 0.591248
vt 0.3887733 0.591248
vt 0.5249622 0.7008491
vt 0.5249528 0.8062382
vt 0.5249373 0.9033657
vt 0.4097224 0.7025952
vt 0.3887698 0.702913
vt 0.4097129 0.8096637
vt 0.4096972 0.9083385
vt 0.3887603 0.8102866
vt 0.3887446 0.9092429
vt 0.9059428 0.4214351
vt 0.9059318 0.3447177
vt 0.7867521 0.3266465
vt 0.7867651 0.4089874
vt 0.6611884 0.297239
vt 0.6612028 0.3887309
vt 0.5249373 0.2791294
vt 0.5249528 0.3762572
vt 0.4096972 0.2741566
vt 0.4097129 0.3728314
vt 0.3887446 0.2732524
vt 0.3887603 0.3722088
vt 0.9559301 1.142162
vt 0.955897 1.046338
vt 0.9501494 1.042459
vt 0.9501827 1.138715
vt 0.9559608 1.23037
vt 0.9502134 1.227426
vt 0.06026611 -0.9021699
vt -0.04005837 -0.9022048
vt -0.04010091 -0.7791467
vt 0.06022359 -0.779112
vt 0.07275939 -0.9021657
vt -0.04012857 -0.6991221
vt 0.07271691 -0.7791077
vt 0.06019593 -0.6990874
vt -0.04016008 -0.6078234
vt 0.07268925 -0.6990831
vt 0.06016437 -0.6077887
vt -0.04019435 -0.5087578
vt 0.07265769 -0.6077843
vt 0.06013015 -0.5087231
vt -0.04071714 1.004242
vt 0.07262342 -0.508719
vt 0.05960735 1.004277
vt -0.04075279 1.107267
vt 0.07210064 1.004281
vt 0.05957171 1.107302
vt -0.04078706 1.206332
vt 0.07206503 1.107306
vt 0.05953749 1.206367
vt -0.04081862 1.297632
vt 0.07203076 1.206371
vt 0.05950592 1.297666
vt -0.04089059 1.506111
vt 0.07199925 1.297671
vt 0.05943386 1.506146
vt 0.07192717 1.50615
vt 0.09678168 1.507372
vt -0.003690157 1.38422
vt -0.003647581 1.507407
vt 0.09673911 1.384185
vt 0.1053006 1.507369
vt -0.003717836 1.304112
vt 0.105258 1.384183
vt 0.09671143 1.304078
vt -0.003749389 1.212718
vt 0.1052303 1.304075
vt 0.09667982 1.212683
vt -0.003783684 1.113549
vt 0.1051987 1.21268
vt 0.09664558 1.113514
vt -0.004307024 -0.4010311
vt 0.1051645 1.113512
vt 0.09612224 -0.4010658
vt -0.004342712 -0.5041631
vt 0.1046411 -0.401069
vt 0.09608655 -0.5041981
vt -0.004377022 -0.6033323
vt 0.1046054 -0.5042009
vt 0.09605229 -0.603367
vt -0.004408609 -0.6947272
vt 0.1045712 -0.6033698
vt 0.0960207 -0.6947618
vt -0.004480671 -0.9034241
vt 0.1045395 -0.6947649
vt 0.09594855 -0.9034588
vt 0.1044675 -0.9034618
vt 0.4240703 1.29764
vt 0.4140075 1.506118
vt 0.4240703 1.506118
vt 0.4140075 1.29764
vt 0.4240703 1.206341
vt 0.4140075 1.206341
vt 0.4240703 1.107276
vt 0.4140075 1.107276
vt 0.4240703 1.004252
vt 0.4140075 1.004252
vt 0.4240703 -0.5087378
vt 0.4140075 -0.5087378
vt 0.4240703 -0.6078026
vt 0.4140075 -0.6078026
vt 0.4240703 -0.6991007
vt 0.4140075 -0.6991007
vt 0.4240703 -0.7791249
vt 0.4140075 -0.7791249
vt 0.4240703 -0.902182
vt 0.4140075 -0.902182
vt 0.4547661 0.5732315
vt 0.4466832 0.5817419
vt 0.4547661 0.5857254
vt 0.4447027 0.5732315
vt 0.4547661 0.4729005
vt 0.4447027 0.4729005
vt 0.4467817 0.4853969
vt 0.4367188 0.5857224
vt 0.4467817 0.5857224
vt 0.4367188 0.4853969
vt 0.4467817 0.4729036
vt 0.4386992 0.4768867
usemtl Porcelain_Albedo_Map
f 3/3/3 2/2/2 1/1/1
f 6/6/6 5/5/5 4/4/4
f 8/8/8 7/7/7 5/5/5
f 8/8/8 9/9/9 7/7/7
f 9/9/9 10/10/10 7/7/7
f 13/13/13 12/12/12 11/11/11
f 16/16/16 15/15/15 14/14/14
f 18/18/18 17/17/17 16/16/16
f 19/19/19 18/18/18 16/16/16
f 19/19/19 16/16/16 20/20/20
f 21/21/21 18/18/18 19/19/19
f 22/22/22 19/19/19 20/20/20
f 22/22/22 20/20/20 23/23/23
f 24/24/24 21/21/21 19/19/19
f 24/24/24 19/19/19 22/22/22
f 25/25/25 22/22/22 23/23/23
f 25/25/25 23/23/23 26/26/26
f 27/27/27 21/21/21 24/24/24
f 27/27/27 28/28/28 21/21/21
f 29/29/29 28/28/28 27/27/27
f 30/30/30 24/24/24 22/22/22
f 30/30/30 22/22/22 25/25/25
f 31/31/31 25/25/25 26/26/26
f 31/31/31 26/26/26 32/32/32
f 33/33/33 29/29/29 27/27/27
f 34/34/34 29/29/29 33/33/33
f 35/35/35 34/34/34 33/33/33
f 35/35/35 33/33/33 36/36/36
f 37/37/37 27/27/27 24/24/24
f 33/33/33 27/27/27 37/37/37
f 37/37/37 24/24/24 30/30/30
f 36/36/36 33/33/33 37/37/37
f 38/38/38 30/30/30 25/25/25
f 38/38/38 25/25/25 31/31/31
f 39/39/39 37/37/37 30/30/30
f 36/36/36 37/37/37 39/39/39
f 39/39/39 30/30/30 38/38/38
f 40/40/40 31/31/31 32/32/32
f 40/40/40 32/32/32 41/41/41
f 42/42/42 36/36/36 39/39/39
f 43/43/43 36/36/36 42/42/42
f 44/44/44 43/43/43 42/42/42
f 45/45/45 38/38/38 31/31/31
f 45/45/45 31/31/31 40/40/40
f 46/46/46 39/39/39 38/38/38
f 42/42/42 39/39/39 46/46/46
f 46/46/46 38/38/38 45/45/45
f 44/44/44 42/42/42 47/47/47
f 47/47/47 42/42/42 46/46/46
f 48/48/48 44/44/44 47/47/47
f 49/49/49 40/40/40 41/41/41
f 49/49/49 41/41/41 50/50/50
f 51/51/51 45/45/45 40/40/40
f 51/51/51 40/40/40 49/49/49
f 52/52/52 46/46/46 45/45/45
f 47/47/47 46/46/46 52/52/52
f 52/52/52 45/45/45 51/51/51
f 48/48/48 47/47/47 53/53/53
f 53/53/53 47/47/47 52/52/52
f 54/54/54 49/49/49 50/50/50
f 54/54/54 50/50/50 55/55/55
f 56/56/56 51/51/51 49/49/49
f 56/56/56 49/49/49 54/54/54
f 57/57/57 52/52/52 51/51/51
f 53/53/53 52/52/52 57/57/57
f 57/57/57 51/51/51 56/56/56
f 58/58/58 48/48/48 53/53/53
f 48/48/48 58/58/58 59/59/59
f 58/58/58 60/60/60 59/59/59
f 58/58/58 53/53/53 61/61/61
f 61/61/61 53/53/53 57/57/57
f 62/62/62 58/58/58 61/61/61
f 63/63/63 54/54/54 55/55/55
f 63/63/63 55/55/55 64/64/64
f 65/65/65 63/63/63 64/64/64
f 66/66/66 56/56/56 54/54/54
f 66/66/66 54/54/54 63/63/63
f 67/67/67 57/57/57 56/56/56
f 61/61/61 57/57/57 67/67/67
f 67/67/67 56/56/56 66/66/66
f 68/68/68 63/63/63 65/65/65
f 68/68/68 66/66/66 63/63/63
f 69/69/69 68/68/68 65/65/65
f 62/62/62 61/61/61 70/70/70
f 70/70/70 61/61/61 67/67/67
f 71/71/71 67/67/67 66/66/66
f 71/71/71 66/66/66 68/68/68
f 70/70/70 67/67/67 71/71/71
f 72/72/72 68/68/68 69/69/69
f 72/72/72 71/71/71 68/68/68
f 73/73/73 72/72/72 69/69/69
f 74/74/74 62/62/62 70/70/70
f 62/62/62 74/74/74 75/75/75
f 76/76/76 70/70/70 71/71/71
f 74/74/74 70/70/70 76/76/76
f 76/76/76 71/71/71 72/72/72
f 77/77/77 74/74/74 76/76/76
f 78/78/78 72/72/72 73/73/73
f 78/78/78 76/76/76 72/72/72
f 77/77/77 76/76/76 78/78/78
f 79/79/79 78/78/78 73/73/73
f 80/80/80 77/77/77 78/78/78
f 80/80/80 78/78/78 79/79/79
f 81/81/81 80/80/80 79/79/79
f 84/84/84 83/83/83 82/82/82
f 86/86/86 82/82/82 85/85/85
f 87/87/87 86/86/86 85/85/85
f 90/90/90 89/89/89 88/88/88
f 93/93/93 92/92/92 91/91/91
f 94/94/94 92/92/92 93/93/93
f 95/95/95 94/94/94 93/93/93
f 94/94/94 96/96/96 92/92/92
f 97/97/97 94/94/94 95/95/95
f 98/98/98 97/97/97 95/95/95
f 99/99/99 96/96/96 94/94/94
f 97/97/97 99/99/99 94/94/94
f 99/99/99 100/100/100 96/96/96
f 101/101/101 99/99/99 97/97/97
f 102/102/102 101/101/101 97/97/97
f 102/102/102 97/97/97 98/98/98
f 103/103/103 102/102/102 98/98/98
f 106/106/106 105/105/105 104/104/104
f 107/107/107 106/106/106 104/104/104
f 108/108/108 106/106/106 107/107/107
f 109/109/109 108/108/108 107/107/107
f 110/110/110 108/108/108 109/109/109
f 113/113/113 112/112/112 111/111/111
f 112/112/112 114/114/114 111/111/111
f 111/111/111 114/114/114 115/115/115
f 112/112/112 116/116/116 114/114/114
f 114/114/114 117/117/117 115/115/115
f 115/115/115 117/117/117 118/118/118
f 116/116/116 119/119/119 114/114/114
f 114/114/114 119/119/119 117/117/117
f 116/116/116 120/120/120 119/119/119
f 117/117/117 121/121/121 118/118/118
f 118/118/118 121/121/121 122/122/122
f 119/119/119 123/123/123 117/117/117
f 117/117/117 123/123/123 121/121/121
f 120/120/120 124/124/124 119/119/119
f 119/119/119 124/124/124 123/123/123
f 120/120/120 125/125/125 124/124/124
f 121/121/121 126/126/126 122/122/122
f 122/122/122 126/126/126 127/127/127
f 126/126/126 128/128/128 127/127/127
f 123/123/123 129/129/129 121/121/121
f 121/121/121 129/129/129 126/126/126
f 126/126/126 130/130/130 128/128/128
f 129/129/129 130/130/130 126/126/126
f 130/130/130 131/131/131 128/128/128
f 124/124/124 132/132/132 123/123/123
f 123/123/123 132/132/132 129/129/129
f 125/125/125 133/133/133 124/124/124
f 124/124/124 133/133/133 132/132/132
f 125/125/125 134/134/134 133/133/133
f 130/130/130 135/135/135 131/131/131
f 135/135/135 136/136/136 131/131/131
f 129/129/129 137/137/137 130/130/130
f 132/132/132 137/137/137 129/129/129
f 137/137/137 135/135/135 130/130/130
f 134/134/134 138/138/138 133/133/133
f 134/134/134 139/139/139 138/138/138
f 139/139/139 140/140/140 138/138/138
f 133/133/133 141/141/141 132/132/132
f 132/132/132 141/141/141 137/137/137
f 133/133/133 138/138/138 141/141/141
f 138/138/138 140/140/140 142/142/142
f 138/138/138 142/142/142 141/141/141
f 140/140/140 143/143/143 142/142/142
f 141/141/141 144/144/144 137/137/137
f 137/137/137 144/144/144 135/135/135
f 141/141/141 142/142/142 144/144/144
f 135/135/135 145/145/145 136/136/136
f 144/144/144 145/145/145 135/135/135
f 145/145/145 146/146/146 136/136/136
f 142/142/142 143/143/143 147/147/147
f 142/142/142 147/147/147 144/144/144
f 144/144/144 147/147/147 145/145/145
f 143/143/143 148/148/148 147/147/147
f 145/145/145 149/149/149 146/146/146
f 147/147/147 149/149/149 145/145/145
f 147/147/147 148/148/148 149/149/149
f 149/149/149 150/150/150 146/146/146
f 148/148/148 151/151/151 149/149/149
f 149/149/149 151/151/151 150/150/150
f 154/154/154 153/153/153 152/152/152
f 152/152/152 153/153/153 155/155/155
f 155/155/155 153/153/153 156/156/156
f 153/153/153 157/157/157 156/156/156
f 158/158/158 152/152/152 155/155/155
f 159/159/159 152/152/152 158/158/158
f 160/160/160 155/155/155 156/156/156
f 160/160/160 161/161/161 155/155/155
f 161/161/161 158/158/158 155/155/155
f 161/161/161 162/162/162 158/158/158
f 162/162/162 163/163/163 158/158/158
f 163/163/163 159/159/159 158/158/158
f 164/164/164 160/160/160 156/156/156
f 164/164/164 156/156/156 165/165/165
f 156/156/156 157/157/157 165/165/165
f 166/166/166 164/164/164 165/165/165
f 167/167/167 159/159/159 163/163/163
f 168/168/168 167/167/167 163/163/163
f 157/157/157 169/169/169 165/165/165
f 165/165/165 169/169/169 170/170/170
f 171/171/171 159/159/159 167/167/167
f 171/171/171 172/172/172 159/159/159
f 173/173/173 171/171/171 167/167/167
f 173/173/173 167/167/167 174/174/174
f 174/174/174 167/167/167 168/168/168
f 175/175/175 173/173/173 174/174/174
f 176/176/176 169/169/169 157/157/157
f 177/177/177 176/176/176 157/157/157
f 176/176/176 178/178/178 169/169/169
f 178/178/178 179/179/179 169/169/169
f 169/169/169 179/179/179 170/170/170
f 178/178/178 180/180/180 179/179/179
f 180/180/180 181/181/181 179/179/179
f 170/170/170 179/179/179 182/182/182
f 179/179/179 181/181/181 182/182/182
f 183/183/183 170/170/170 182/182/182
f 184/184/184 183/183/183 182/182/182
f 182/182/182 181/181/181 185/185/185
f 181/181/181 186/186/186 185/185/185
f 185/185/185 186/186/186 187/187/187
f 186/186/186 188/188/188 187/187/187
f 189/189/189 187/187/187 188/188/188
f 192/192/192 191/191/191 190/190/190
f 193/193/193 192/192/192 190/190/190
f 195/195/195 193/193/193 194/194/194
f 195/195/195 194/194/194 196/196/196
f 199/199/199 198/198/198 197/197/197
f 200/200/200 198/198/198 199/199/199
f 200/200/200 201/201/201 198/198/198
f 201/201/201 202/202/202 198/198/198
f 201/201/201 203/203/203 202/202/202
f 203/203/203 204/204/204 202/202/202
f 202/202/202 204/204/204 205/205/205
f 204/204/204 206/206/206 205/205/205
f 203/203/203 207/207/207 204/204/204
f 208/208/208 207/207/207 203/203/203
f 209/209/209 201/201/201 200/200/200
f 209/209/209 210/210/210 201/201/201
f 211/211/211 210/210/210 209/209/209
f 211/211/211 212/212/212 210/210/210
f 213/213/213 211/211/211 209/209/209
f 214/214/214 211/211/211 213/213/213
f 215/215/215 209/209/209 200/200/200
f 213/213/213 209/209/209 215/215/215
f 216/216/216 214/214/214 213/213/213
f 217/217/217 214/214/214 216/216/216
f 218/218/218 217/217/217 216/216/216
f 216/216/216 213/213/213 219/219/219
f 219/219/219 213/213/213 215/215/215
f 218/218/218 216/216/216 220/220/220
f 220/220/220 216/216/216 219/219/219
f 221/221/221 218/218/218 220/220/220
f 215/215/215 200/200/200 222/222/222
f 222/222/222 200/200/200 199/199/199
f 219/219/219 215/215/215 223/223/223
f 223/223/223 215/215/215 222/222/222
f 220/220/220 219/219/219 224/224/224
f 224/224/224 219/219/219 223/223/223
f 221/221/221 220/220/220 225/225/225
f 225/225/225 220/220/220 224/224/224
f 222/222/222 199/199/199 226/226/226
f 226/226/226 199/199/199 227/227/227
f 226/226/226 227/227/227 228/228/228
f 229/229/229 226/226/226 228/228/228
f 230/230/230 222/222/222 226/226/226
f 223/223/223 222/222/222 230/230/230
f 230/230/230 226/226/226 229/229/229
f 224/224/224 223/223/223 231/231/231
f 231/231/231 223/223/223 230/230/230
f 232/232/232 230/230/230 229/229/229
f 231/231/231 230/230/230 232/232/232
f 232/232/232 229/229/229 233/233/233
f 234/234/234 224/224/224 231/231/231
f 225/225/225 224/224/224 234/234/234
f 235/235/235 221/221/221 225/225/225
f 221/221/221 235/235/235 236/236/236
f 235/235/235 225/225/225 237/237/237
f 237/237/237 225/225/225 234/234/234
f 238/238/238 235/235/235 237/237/237
f 238/238/238 237/237/237 239/239/239
f 240/240/240 238/238/238 239/239/239
f 237/237/237 234/234/234 241/241/241
f 234/234/234 231/231/231 242/242/242
f 241/241/241 234/234/234 242/242/242
f 242/242/242 231/231/231 232/232/232
f 241/241/241 242/242/242 243/243/243
f 242/242/242 232/232/232 244/244/244
f 243/243/243 242/242/242 244/244/244
f 244/244/244 232/232/232 233/233/233
f 243/243/243 244/244/244 245/245/245
f 244/244/244 233/233/233 246/246/246
f 245/245/245 244/244/244 246/246/246
f 249/249/249 248/248/248 247/247/247
f 249/249/249 247/247/247 250/250/250
f 251/251/251 249/249/249 250/250/250
f 251/251/251 250/250/250 252/252/252
f 253/253/253 251/251/251 252/252/252
f 253/253/253 252/252/252 254/254/254
f 255/255/255 253/253/253 254/254/254
f 255/255/255 254/254/254 256/256/256
f 257/257/257 255/255/255 256/256/256
f 257/257/257 256/256/256 258/258/258
f 259/259/259 257/257/257 258/258/258
f 262/262/262 261/261/261 260/260/260
f 260/260/260 261/261/261 263/263/263
f 261/261/261 264/264/264 263/263/263
f 263/263/263 264/264/264 265/265/265
f 264/264/264 266/266/266 265/265/265
f 265/265/265 266/266/266 267/267/267
f 268/268/268 265/265/265 267/267/267
f 266/266/266 269/269/269 267/267/267
f 270/270/270 269/269/269 266/266/266
f 270/270/270 175/175/175 269/269/269
f 175/175/175 174/174/174 269/269/269
f 267/267/267 269/269/269 271/271/271
f 269/269/269 174/174/174 271/271/271
f 271/271/271 174/174/174 168/168/168
f 272/272/272 271/271/271 168/168/168
f 273/273/273 272/272/272 168/168/168
f 272/272/272 274/274/274 271/271/271
f 277/277/277 276/276/276 275/275/275
f 276/276/276 278/278/278 275/275/275
f 278/278/278 276/276/276 279/279/279
f 280/280/280 278/278/278 279/279/279
f 279/279/279 281/281/281 280/280/280
f 281/281/281 282/282/282 280/280/280
f 281/281/281 283/283/283 282/282/282
f 283/283/283 284/284/284 282/282/282
f 283/283/283 285/285/285 284/284/284
f 285/285/285 286/286/286 284/284/284
f 285/285/285 287/287/287 286/286/286
f 287/287/287 288/288/288 286/286/286
f 287/287/287 289/289/289 288/288/288
f 289/289/289 290/290/290 288/288/288
f 290/290/290 289/289/289 291/291/291
f 292/292/292 290/290/290 291/291/291
f 291/291/291 293/293/293 292/292/292
f 293/293/293 294/294/294 292/292/292
f 294/294/294 293/293/293 295/295/295
f 298/298/298 297/297/297 296/296/296
f 299/299/299 298/298/298 296/296/296
f 299/299/299 296/296/296 300/300/300
f 301/301/301 299/299/299 300/300/300
f 301/301/301 300/300/300 302/302/302
f 304/304/304 302/302/302 303/303/303
f 305/305/305 304/304/304 303/303/303
f 305/305/305 303/303/303 306/306/306
f 307/307/307 305/305/305 306/306/306
f 310/310/310 309/309/309 308/308/308
f 309/309/309 311/311/311 308/308/308
f 308/308/308 311/311/311 312/312/312
f 311/311/311 313/313/313 312/312/312
f 312/312/312 313/313/313 314/314/314
f 313/313/313 315/315/315 314/314/314
f 314/314/314 315/315/315 316/316/316
f 315/315/315 317/317/317 316/316/316
f 316/316/316 317/317/317 318/318/318
f 317/317/317 319/319/319 318/318/318
f 318/318/318 319/319/319 320/320/320
f 319/319/319 321/321/321 320/320/320
f 320/320/320 321/321/321 322/322/322
f 321/321/321 323/323/323 322/322/322
f 322/322/322 323/323/323 324/324/324
f 323/323/323 325/325/325 324/324/324
f 324/324/324 325/325/325 326/326/326
f 325/325/325 327/327/327 326/326/326
f 330/330/330 329/329/329 328/328/328
f 329/329/329 331/331/331 328/328/328
f 329/329/329 332/332/332 331/331/331
f 332/332/332 333/333/333 331/331/331
f 332/332/332 334/334/334 333/333/333
f 334/334/334 335/335/335 333/333/333
f 334/334/334 336/336/336 335/335/335
f 336/336/336 337/337/337 335/335/335
f 336/336/336 338/338/338 337/337/337
f 338/338/338 339/339/339 337/337/337
f 339/339/339 338/338/338 340/340/340
f 341/341/341 339/339/339 340/340/340
f 340/340/340 342/342/342 341/341/341
f 342/342/342 343/343/343 341/341/341
f 343/343/343 342/342/342 344/344/344
f 345/345/345 343/343/343 344/344/344
f 344/344/344 346/346/346 345/345/345
f 346/346/346 347/347/347 345/345/345
f 346/346/346 348/348/348 347/347/347
f 348/348/348 349/349/349 347/347/347
f 348/348/348 350/350/350 349/349/349
f 350/350/350 351/351/351 349/349/349
f 350/350/350 352/352/352 351/351/351
f 352/352/352 353/353/353 351/351/351
f 354/354/354 339/339/339 341/341/341
f 355/355/355 354/354/354 341/341/341
f 355/355/355 341/341/341 343/343/343
f 354/354/354 356/356/356 339/339/339
f 357/357/357 355/355/355 343/343/343
f 357/357/357 343/343/343 345/345/345
f 356/356/356 337/337/337 339/339/339
f 358/358/358 357/357/357 345/345/345
f 356/356/356 359/359/359 337/337/337
f 358/358/358 345/345/345 347/347/347
f 359/359/359 335/335/335 337/337/337
f 360/360/360 358/358/358 347/347/347
f 359/359/359 361/361/361 335/335/335
f 360/360/360 347/347/347 349/349/349
f 361/361/361 333/333/333 335/335/335
f 362/362/362 360/360/360 349/349/349
f 361/361/361 363/363/363 333/333/333
f 362/362/362 349/349/349 351/351/351
f 363/363/363 331/331/331 333/333/333
f 364/364/364 362/362/362 351/351/351
f 363/363/363 365/365/365 331/331/331
f 364/364/364 351/351/351 353/353/353
f 365/365/365 328/328/328 331/331/331
f 366/366/366 364/364/364 353/353/353
f 365/365/365 367/367/367 328/328/328
f 366/366/366 353/353/353 368/368/368
f 367/367/367 369/369/369 328/328/328
f 370/370/370 366/366/366 368/368/368
f 367/367/367 371/371/371 369/369/369
f 370/370/370 368/368/368 372/372/372
f 371/371/371 373/373/373 369/369/369
f 374/374/374 370/370/370 372/372/372
f 371/371/371 375/375/375 373/373/373
f 374/374/374 372/372/372 376/376/376
f 375/375/375 377/377/377 373/373/373
f 378/378/378 374/374/374 376/376/376
f 375/375/375 379/379/379 377/377/377
f 378/378/378 376/376/376 380/380/380
f 379/379/379 381/381/381 377/377/377
f 382/382/382 378/378/378 380/380/380
f 379/379/379 383/383/383 381/381/381
f 382/382/382 380/380/380 384/384/384
f 385/385/385 382/382/382 384/384/384
f 385/385/385 384/384/384 386/386/386
f 387/387/387 385/385/385 386/386/386
f 387/387/387 386/386/386 388/388/388
f 389/389/389 387/387/387 388/388/388
f 389/389/389 388/388/388 390/390/390
f 391/391/391 389/389/389 390/390/390
f 391/391/391 390/390/390 392/392/392
f 393/393/393 391/391/391 392/392/392
f 393/393/393 392/392/392 394/394/394
f 395/395/395 393/393/393 394/394/394
f 395/395/395 394/394/394 396/396/396
f 397/397/397 395/395/395 396/396/396
f 397/397/397 396/396/396 398/398/398
f 399/399/399 397/397/397 398/398/398
f 399/399/399 398/398/398 400/400/400
f 401/401/401 399/399/399 400/400/400
f 401/401/401 400/400/400 402/402/402
f 403/403/403 401/401/401 402/402/402
f 403/403/403 402/402/402 404/404/404
f 404/404/404 402/402/402 405/405/405
f 383/383/383 403/403/403 404/404/404
f 383/383/383 404/404/404 381/381/381
f 408/408/408 407/407/407 406/406/406
f 408/408/408 409/409/409 407/407/407
f 410/410/410 409/409/409 408/408/408
f 410/410/410 411/411/411 409/409/409
f 411/411/411 412/412/412 409/409/409
f 409/409/409 412/412/412 413/413/413
f 414/414/414 411/411/411 410/410/410
f 415/415/415 414/414/414 410/410/410
f 415/415/415 410/410/410 416/416/416
f 417/417/417 415/415/415 416/416/416
f 418/418/418 415/415/415 417/417/417
f 419/419/419 418/418/418 417/417/417
f 418/418/418 420/420/420 415/415/415
f 420/420/420 414/414/414 415/415/415
f 420/420/420 421/421/421 414/414/414
f 421/421/421 422/422/422 414/414/414
f 414/414/414 422/422/422 411/411/411
f 422/422/422 423/423/423 411/411/411
f 411/411/411 423/423/423 412/412/412
f 423/423/423 424/424/424 412/412/412
f 412/412/412 424/424/424 425/425/425
f 412/412/412 425/425/425 413/413/413
f 424/424/424 426/426/426 425/425/425
f 413/413/413 425/425/425 427/427/427
f 413/413/413 427/427/427 428/428/428
f 425/425/425 429/429/429 427/427/427
f 425/425/425 426/426/426 429/429/429
f 426/426/426 430/430/430 429/429/429
f 433/433/433 432/432/432 431/431/431
f 432/432/432 434/434/434 431/431/431
f 437/437/437 436/436/436 435/435/435
f 436/436/436 438/438/438 435/435/435
f 441/441/441 440/440/440 439/439/439
f 440/440/440 442/442/442 439/439/439
f 445/445/445 444/444/444 443/443/443
f 445/445/445 446/446/446 444/444/444
f 449/449/449 448/448/448 447/447/447
f 450/450/450 449/449/449 447/447/447
f 450/450/450 447/447/447 451/451/451
f 452/452/452 449/449/449 450/450/450
f 453/453/453 450/450/450 451/451/451
f 453/453/453 451/451/451 454/454/454
f 455/455/455 452/452/452 450/450/450
f 455/455/455 450/450/450 453/453/453
f 456/456/456 452/452/452 455/455/455
f 457/457/457 453/453/453 454/454/454
f 457/457/457 454/454/454 458/458/458
f 459/459/459 455/455/455 453/453/453
f 459/459/459 453/453/453 457/457/457
f 460/460/460 456/456/456 455/455/455
f 460/460/460 455/455/455 459/459/459
f 461/461/461 456/456/456 460/460/460
f 462/462/462 457/457/457 458/458/458
f 462/462/462 458/458/458 463/463/463
f 464/464/464 462/462/462 463/463/463
f 465/465/465 459/459/459 457/457/457
f 465/465/465 457/457/457 462/462/462
f 466/466/466 462/462/462 464/464/464
f 466/466/466 465/465/465 462/462/462
f 467/467/467 466/466/466 464/464/464
f 468/468/468 460/460/460 459/459/459
f 468/468/468 459/459/459 465/465/465
f 469/469/469 461/461/461 460/460/460
f 469/469/469 460/460/460 468/468/468
f 470/470/470 461/461/461 469/469/469
f 471/471/471 470/470/470 469/469/469
f 471/471/471 469/469/469 472/472/472
f 472/472/472 469/469/469 468/468/468
f 473/473/473 471/471/471 472/472/472
f 474/474/474 468/468/468 465/465/465
f 474/474/474 465/465/465 466/466/466
f 472/472/472 468/468/468 474/474/474
f 475/475/475 466/466/466 467/467/467
f 475/475/475 474/474/474 466/466/466
f 476/476/476 475/475/475 467/467/467
f 473/473/473 472/472/472 477/477/477
f 477/477/477 472/472/472 474/474/474
f 477/477/477 474/474/474 475/475/475
f 478/478/478 473/473/473 477/477/477
f 479/479/479 475/475/475 476/476/476
f 479/479/479 477/477/477 475/475/475
f 478/478/478 477/477/477 479/479/479
f 480/480/480 479/479/479 476/476/476
f 481/481/481 478/478/478 479/479/479
f 481/481/481 479/479/479 480/480/480
f 482/482/482 481/481/481 480/480/480
f 485/485/485 484/484/484 483/483/483
f 486/486/486 485/485/485 483/483/483
f 487/487/487 485/485/485 486/486/486
f 488/488/488 487/487/487 486/486/486
f 489/489/489 487/487/487 488/488/488
f 490/490/490 489/489/489 488/488/488
f 491/491/491 489/489/489 490/490/490
f 492/492/492 491/491/491 490/490/490
f 493/493/493 491/491/491 492/492/492
f 494/494/494 493/493/493 492/492/492
f 497/497/497 496/496/496 495/495/495
f 498/498/498 497/497/497 495/495/495
f 498/498/498 495/495/495 499/499/499
f 500/500/500 498/498/498 499/499/499
f 503/503/503 502/502/502 501/501/501
f 504/504/504 503/503/503 501/501/501
f 504/504/504 501/501/501 505/505/505
f 506/506/506 503/503/503 504/504/504
f 507/507/507 504/504/504 505/505/505
f 508/508/508 506/506/506 504/504/504
f 508/508/508 504/504/504 507/507/507
f 509/509/509 506/506/506 508/508/508
f 510/510/510 508/508/508 507/507/507
f 511/511/511 509/509/509 508/508/508
f 511/511/511 508/508/508 510/510/510
f 512/512/512 509/509/509 511/511/511
f 513/513/513 511/511/511 510/510/510
f 514/514/514 512/512/512 511/511/511
f 514/514/514 511/511/511 513/513/513
f 515/515/515 512/512/512 514/514/514
f 516/516/516 514/514/514 513/513/513
f 517/517/517 515/515/515 514/514/514
f 517/517/517 514/514/514 516/516/516
f 518/518/518 515/515/515 517/517/517
f 519/519/519 517/517/517 516/516/516
f 520/520/520 518/518/518 517/517/517
f 520/520/520 517/517/517 519/519/519
f 521/521/521 518/518/518 520/520/520
f 522/522/522 520/520/520 519/519/519
f 523/523/523 521/521/521 520/520/520
f 523/523/523 520/520/520 522/522/522
f 524/524/524 521/521/521 523/523/523
f 525/525/525 523/523/523 522/522/522
f 526/526/526 524/524/524 523/523/523
f 526/526/526 523/523/523 525/525/525
f 527/527/527 524/524/524 526/526/526
f 528/528/528 526/526/526 525/525/525
f 529/529/529 527/527/527 526/526/526
f 529/529/529 526/526/526 528/528/528
f 530/530/530 529/529/529 528/528/528
f 533/533/533 532/532/532 531/531/531
f 532/532/532 534/534/534 531/531/531
f 531/531/531 534/534/534 535/535/535
f 532/532/532 536/536/536 534/534/534
f 534/534/534 537/537/537 535/535/535
f 536/536/536 538/538/538 534/534/534
f 534/534/534 538/538/538 537/537/537
f 536/536/536 539/539/539 538/538/538
f 538/538/538 540/540/540 537/537/537
f 539/539/539 541/541/541 538/538/538
f 538/538/538 541/541/541 540/540/540
f 539/539/539 542/542/542 541/541/541
f 541/541/541 543/543/543 540/540/540
f 542/542/542 544/544/544 541/541/541
f 541/541/541 544/544/544 543/543/543
f 542/542/542 545/545/545 544/544/544
f 544/544/544 546/546/546 543/543/543
f 545/545/545 547/547/547 544/544/544
f 544/544/544 547/547/547 546/546/546
f 545/545/545 548/548/548 547/547/547
f 547/547/547 549/549/549 546/546/546
f 548/548/548 550/550/550 547/547/547
f 547/547/547 550/550/550 549/549/549
f 548/548/548 551/551/551 550/550/550
f 550/550/550 552/552/552 549/549/549
f 551/551/551 553/553/553 550/550/550
f 550/550/550 553/553/553 552/552/552
f 551/551/551 554/554/554 553/553/553
f 553/553/553 555/555/555 552/552/552
f 554/554/554 556/556/556 553/553/553
f 553/553/553 556/556/556 555/555/555
f 554/554/554 557/557/557 556/556/556
f 556/556/556 558/558/558 555/555/555
f 557/557/557 559/559/559 556/556/556
f 556/556/556 559/559/559 558/558/558
f 559/559/559 560/560/560 558/558/558
f 563/563/563 562/562/562 561/561/561
f 562/562/562 564/564/564 561/561/561
f 561/561/561 564/564/564 565/565/565
f 564/564/564 566/566/566 565/565/565
f 565/565/565 566/566/566 567/567/567
f 566/566/566 568/568/568 567/567/567
f 567/567/567 568/568/568 569/569/569
f 568/568/568 570/570/570 569/569/569
f 569/569/569 570/570/570 571/571/571
f 570/570/570 572/572/572 571/571/571
f 571/571/571 572/572/572 573/573/573
f 572/572/572 574/574/574 573/573/573
f 573/573/573 574/574/574 575/575/575
f 574/574/574 576/576/576 575/575/575
f 575/575/575 576/576/576 577/577/577
f 576/576/576 578/578/578 577/577/577
f 577/577/577 578/578/578 579/579/579
f 578/578/578 580/580/580 579/579/579
f 583/583/583 582/582/582 581/581/581
f 582/582/582 584/584/584 581/581/581
f 581/581/581 584/584/584 585/585/585
f 584/584/584 586/586/586 585/585/585
f 589/589/589 588/588/588 587/587/587
f 588/588/588 590/590/590 587/587/587
f 587/587/587 590/590/590 591/591/591
f 590/590/590 592/592/592 591/591/591
g FP427:ShowerDrain_ab1873b1
v 3.80539 0.03332 1.23193
v 3.79026 0.03332 1.21969
v 3.81792 0.03331 1.26202
v 3.76953 0.03333 1.21429
v 3.72225 0.03332 1.2388
v 3.73608 0.03332 1.22368
v 3.71492 0.03331 1.25754
v 3.7169 0.0333 1.28201
v 3.72688 0.0333 1.2995
v 3.75849 0.03329 1.31746
v 3.77793 0.03329 1.31646
v 3.80575 0.0333 1.2995
v 3.81573 0.0333 1.28201
v 3.79026 0.03332 1.21969
v 3.79184 0.02844 1.21674
v 3.80795 0.02843 1.22978
v 3.80539 0.03332 1.23193
v 3.76953 0.03333 1.21429
v 3.8213 0.02842 1.26183
v 3.76976 0.02844 1.21099
v 3.81792 0.03331 1.26202
v 3.73608 0.03332 1.22368
v 3.81897 0.02842 1.28312
v 3.73413 0.02844 1.22099
v 3.81573 0.0333 1.28201
v 3.72225 0.03332 1.2388
v 3.80834 0.02841 1.30174
v 3.7194 0.02843 1.23709
v 3.80575 0.0333 1.2995
v 3.71492 0.03331 1.25754
v 3.7787 0.0284 1.31981
v 3.71159 0.02842 1.25705
v 3.77793 0.03329 1.31646
v 3.7169 0.0333 1.28201
v 3.75801 0.0284 1.32088
v 3.71371 0.02842 1.28312
v 3.75849 0.03329 1.31746
v 3.72688 0.0333 1.2995
v 3.72433 0.02841 1.30174
v 3.76956 0.03333 1.21762
v 3.79026 0.03332 1.21969
v 3.78878 0.03332 1.22262
v 3.76953 0.03333 1.21429
v 3.80539 0.03332 1.23193
v 3.80273 0.03332 1.23392
v 3.81792 0.03331 1.26202
v 3.81463 0.03331 1.2625
v 3.81573 0.0333 1.28201
v 3.81261 0.0333 1.281
v 3.72502 0.03332 1.24053
v 3.80575 0.0333 1.2995
v 3.73783 0.03332 1.22653
v 3.73608 0.03332 1.22368
v 3.72225 0.03332 1.2388
v 3.80337 0.0333 1.29719
v 3.77793 0.03329 1.31646
v 3.71818 0.03331 1.25802
v 3.71492 0.03331 1.25754
v 3.77695 0.03329 1.31329
v 3.75849 0.03329 1.31746
v 3.72005 0.0333 1.28104
v 3.7169 0.0333 1.28201
v 3.75927 0.03329 1.3142
v 3.72688 0.0333 1.2995
v 3.72923 0.0333 1.29714
vn 3.721904 0.6075243 1.280977
vn 3.771623 0.6035228 1.347203
vn 3.964961 0.5003793 0.9921528
vn 3.632932 0.5929351 1.297716
vn 3.721891 0.6069113 1.29597
vn 3.716768 0.607043 1.246847
vn 3.791834 0.6019409 1.175967
vn 3.783805 0.6084058 1.294451
vn 3.893412 0.5915373 1.329105
vn 3.761977 0.6084326 1.231275
vn 3.777445 0.6089148 1.286597
vn 3.775797 0.6086882 1.237383
vn 3.904157 0.5853046 1.355503
vn 3.909648 0.3314064 0.7926616
vn 4.03721 0.3893689 0.901511
vn 4.146579 0.389311 1.01826
vn 4.140899 0.3285086 0.9410937
vn 3.677928 0.2387083 0.7331333
vn 4.040022 0.4771224 1.510325
vn 3.8317 0.4550239 0.8775247
vn 4.185074 0.1385898 0.8824216
vn 3.520971 0.3093708 0.8218236
vn 4.161444 0.4527409 1.266927
vn 3.516718 0.4003111 0.896762
vn 4.21435 0.2549627 1.552472
vn 3.33353 0.3077396 0.9998281
vn 4.086813 0.3876922 1.587418
vn 3.391402 0.4022374 1.028367
vn 4.123302 0.3381037 1.599694
vn 3.32154 0.3609901 1.098842
vn 3.886447 0.3821592 1.708026
vn 3.297725 0.3683626 1.2961
vn 3.926756 0.3454848 1.72246
vn 3.296129 0.3304853 1.418331
vn 3.633427 0.3805562 1.705821
vn 3.330874 0.389489 1.392511
vn 3.68486 0.3527211 1.738223
vn 3.421144 0.2273563 1.684852
vn 3.473239 0.4721512 1.497301
vn 3.776594 0.5929935 1.12862
vn 3.807914 0.6035267 1.335906
vn 3.745934 0.6035236 1.344908
vn 3.823484 0.5929033 1.389533
vn 3.752681 0.6075141 1.310099
vn 3.797279 0.6075417 1.230341
vn 3.570705 0.5001897 1.540805
vn 4.011594 0.5003652 1.033208
vn 3.680058 0.5853845 1.124274
vn 3.603317 0.5853455 1.237303
vn 3.712541 0.606924 1.259318
vn 3.739889 0.6086835 1.251489
vn 3.817503 0.6070402 1.254803
vn 3.781139 0.6070192 1.315512
vn 3.813221 0.6069131 1.290941
vn 3.776694 0.6086692 1.292683
vn 3.749054 0.6089282 1.247831
vn 3.858802 0.6019115 1.261063
vn 3.777102 0.6018782 1.357425
vn 3.768453 0.6089138 1.289341
vn 3.744766 0.6084301 1.238439
vn 3.738935 0.6084086 1.28618
vn 3.796051 0.6084216 1.248779
vn 3.799579 0.6084186 1.271479
vn 3.839397 0.5916016 1.143
vn 3.685776 0.5915186 1.383018
vt 0.3784273 0.7544135
vt 0.3679794 0.7423963
vt 0.4041137 0.7643527
vt 0.3633781 0.725922
vt 0.3842872 0.688339
vt 0.3713899 0.6993445
vt 0.4002838 0.6825287
vt 0.4211657 0.6841146
vt 0.4360932 0.6920304
vt 0.4514264 0.7171449
vt 0.4505604 0.7325937
vt 0.4360932 0.7547004
vt 0.4211657 0.76263
vt 0.3679794 0.7423963
vt 0.3679794 0.7423963
vt 0.3784273 0.7544135
vt 0.3784273 0.7544135
vt 0.3633781 0.725922
vt 0.4041137 0.7643527
vt 0.3633781 0.725922
vt 0.4041137 0.7643527
vt 0.3713899 0.6993445
vt 0.4211657 0.76263
vt 0.3713899 0.6993445
vt 0.4211657 0.76263
vt 0.3842872 0.688339
vt 0.4360932 0.7547004
vt 0.3842872 0.688339
vt 0.4360932 0.7547004
vt 0.4002838 0.6825287
vt 0.4505604 0.7325937
vt 0.4002838 0.6825287
vt 0.4505604 0.7325937
vt 0.4211657 0.6841146
vt 0.4514264 0.7171449
vt 0.4211657 0.6841146
vt 0.4514264 0.7171449
vt 0.4360932 0.6920304
vt 0.4360932 0.6920304
vt 0.3662193 0.7259426
vt 0.3679794 0.7423963
vt 0.3704869 0.7412171
vt 0.3633781 0.725922
vt 0.3784273 0.7544135
vt 0.3801252 0.7523032
vt 0.4041137 0.7643527
vt 0.4045177 0.7617356
vt 0.4211657 0.76263
vt 0.420303 0.7601408
vt 0.3857622 0.6905407
vt 0.4360932 0.7547004
vt 0.3738191 0.7007318
vt 0.3713899 0.6993445
vt 0.3842872 0.688339
vt 0.434119 0.7528077
vt 0.4505604 0.7325937
vt 0.4006931 0.6851214
vt 0.4002838 0.6825287
vt 0.4478569 0.7318157
vt 0.4514264 0.7171449
vt 0.4203366 0.6866134
vt 0.4211657 0.6841146
vt 0.4486472 0.7177564
vt 0.4360932 0.6920304
vt 0.4340804 0.6939016
usemtl ShowerHead_Untitled_AlbedoTransparency
f 595/595/595 594/594/594 593/593/593
f 596/596/596 594/594/594 595/595/595
f 595/595/595 597/597/597 596/596/596
f 596/596/596 597/597/597 598/598/598
f 595/595/595 599/599/599 597/597/597
f 595/595/595 600/600/600 599/599/599
f 595/595/595 601/601/601 600/600/600
f 595/595/595 602/602/602 601/601/601
f 595/595/595 603/603/603 602/602/602
f 595/595/595 604/604/604 603/603/603
f 595/595/595 605/605/605 604/604/604
f 608/608/608 607/607/607 606/606/606
f 609/609/609 608/608/608 606/606/606
f 606/606/606 607/607/607 610/610/610
f 611/611/611 608/608/608 609/609/609
f 607/607/607 612/612/612 610/610/610
f 613/613/613 611/611/611 609/609/609
f 610/610/610 612/612/612 614/614/614
f 615/615/615 611/611/611 613/613/613
f 612/612/612 616/616/616 614/614/614
f 617/617/617 615/615/615 613/613/613
f 614/614/614 616/616/616 618/618/618
f 619/619/619 615/615/615 617/617/617
f 616/616/616 620/620/620 618/618/618
f 621/621/621 619/619/619 617/617/617
f 618/618/618 620/620/620 622/622/622
f 623/623/623 619/619/619 621/621/621
f 620/620/620 624/624/624 622/622/622
f 625/625/625 623/623/623 621/621/621
f 622/622/622 624/624/624 626/626/626
f 627/627/627 623/623/623 625/625/625
f 624/624/624 628/628/628 626/626/626
f 629/629/629 627/627/627 625/625/625
f 626/626/626 628/628/628 630/630/630
f 631/631/631 627/627/627 629/629/629
f 630/630/630 631/631/631 629/629/629
f 628/628/628 631/631/631 630/630/630
f 634/634/634 633/633/633 632/632/632
f 633/633/633 635/635/635 632/632/632
f 636/636/636 633/633/633 634/634/634
f 637/637/637 636/636/636 634/634/634
f 638/638/638 636/636/636 637/637/637
f 634/634/634 639/639/639 637/637/637
f 639/639/639 638/638/638 637/637/637
f 634/634/634 632/632/632 639/639/639
f 640/640/640 638/638/638 639/639/639
f 641/641/641 640/640/640 639/639/639
f 642/642/642 639/639/639 632/632/632
f 643/643/643 640/640/640 641/641/641
f 632/632/632 635/635/635 644/644/644
f 642/642/642 632/632/632 644/644/644
f 635/635/635 645/645/645 644/644/644
f 644/644/644 645/645/645 642/642/642
f 645/645/645 646/646/646 642/642/642
f 647/647/647 643/643/643 641/641/641
f 641/641/641 639/639/639 647/647/647
f 648/648/648 643/643/643 647/647/647
f 642/642/642 646/646/646 649/649/649
f 649/649/649 639/639/639 642/642/642
f 646/646/646 650/650/650 649/649/649
f 651/651/651 648/648/648 647/647/647
f 647/647/647 639/639/639 651/651/651
f 652/652/652 648/648/648 651/651/651
f 649/649/649 650/650/650 653/653/653
f 653/653/653 639/639/639 649/649/649
f 650/650/650 654/654/654 653/653/653
f 655/655/655 652/652/652 651/651/651
f 651/651/651 639/639/639 655/655/655
f 656/656/656 652/652/652 655/655/655
f 657/657/657 639/639/639 653/653/653
f 653/653/653 654/654/654 657/657/657
f 655/655/655 639/639/639 657/657/657
f 657/657/657 656/656/656 655/655/655
f 654/654/654 656/656/656 657/657/657
g FP427:polySurface4_0cfc61c4
v 3.09774 -0.0146 1.84293
v 3.09774 0.58927 -0.56645
v 3.09774 0.58844 1.84314
v 3.09774 -0.01377 -0.56666
v 3.21391 -0.01377 -0.56666
v 3.21391 0.58844 1.84314
v 3.21391 0.58927 -0.56645
v 3.21391 -0.0146 1.84293
v 3.20517 0.59802 -0.56644
v 3.10649 0.59719 1.84314
v 3.10649 0.59802 -0.56644
v 3.20517 0.59719 1.84314
v 3.21391 0.58927 -0.56645
v 3.20517 0.59719 1.84314
v 3.20517 0.59802 -0.56644
v 3.21391 0.58844 1.84314
v 3.10649 0.59802 -0.56644
v 3.09774 0.58844 1.84314
v 3.09774 0.58927 -0.56645
v 3.10649 0.59719 1.84314
vn 3.330676 0.06411621 -0.2728344
vn 3.330676 0.06411621 -0.2728344
vn 3.330676 0.06411621 -0.2728344
vn 3.330676 0.06411621 -0.2728344
vn 4.485377 0.06411621 -0.2728344
vn 4.485377 0.06411621 -0.2728344
vn 4.485377 0.06411621 -0.2728344
vn 4.485377 0.06411621 -0.2728344
vn 3.908026 0.6414665 -0.2726348
vn 3.908026 0.6414665 -0.2726348
vn 3.908026 0.6414665 -0.2726348
vn 3.908026 0.6414665 -0.2726348
vn 4.316274 0.4723653 -0.2726933
vn 4.316274 0.4723653 -0.2726933
vn 4.316274 0.4723653 -0.2726933
vn 4.316274 0.4723653 -0.2726933
vn 3.499779 0.4723648 -0.2726933
vn 3.499779 0.4723648 -0.2726933
vn 3.499779 0.4723648 -0.2726933
vn 3.499779 0.4723648 -0.2726933
vt 1.465441 0.3222511
vt -0.951061 0.9279088
vt 1.46565 0.9270738
vt -0.9512699 0.3230861
vt 1.465653 0.06415197
vt -0.9512671 0.6681393
vt 1.465444 0.6689746
vt -0.951058 0.06331658
vt -0.9475558 0.8331547
vt 1.462027 0.734481
vt -0.9475559 0.7344809
vt 1.462027 0.8331548
vt 1.465444 0.6689746
vt -0.9512697 0.6769139
vt 1.465441 0.6777492
vt -0.9512671 0.6681393
vt -0.951058 0.9366833
vt 1.46565 0.9270738
vt -0.951061 0.9279088
vt 1.465653 0.9358484
usemtl DrywallGreen
f 660/660/660 659/659/659 658/658/658
f 659/659/659 661/661/661 658/658/658
f 664/664/664 663/663/663 662/662/662
f 663/663/663 665/665/665 662/662/662
f 668/668/668 667/667/667 666/666/666
f 667/667/667 669/669/669 666/666/666
f 672/672/672 671/671/671 670/670/670
f 671/671/671 673/673/673 670/670/670
f 676/676/676 675/675/675 674/674/674
f 675/675/675 677/677/677 674/674/674
