mtllib material.mtl
usemtl material_0
v 0.07526882 0.01464679 -0.10549940
v 0.06848393 0.00896515 -0.11439170
v 0.07991303 -0.01970812 -0.10877140
v 0.08372906 -0.06919308 -0.06988478
v 0.07906273 -0.07342321 -0.04998449
v 0.08313098 -0.06809174 -0.02852475
v 0.05286014 -0.07418204 0.11974530
v 0.02118137 -0.07585790 0.12053480
v -0.01168437 -0.07423227 0.12220790
v -0.04266302 0.05700541 -0.03301442
v -0.03194924 0.06108258 -0.04981830
v -0.03037685 0.06322914 -0.01070209
v -0.01324438 0.06748588 -0.02425428
v -0.00048111 0.06848568 -0.05171350
v -0.02012544 0.06674183 0.00934046
v 0.00968007 0.06723767 0.00132829
v -0.00022092 0.06819334 0.02759398
v -0.03463597 0.06013030 0.04823448
v -0.00352504 0.06748495 0.04470611
v 0.02692384 0.06439655 0.03198681
v -0.00462086 0.06988771 0.06129197
v -0.03487726 0.06307423 0.08183984
v 0.02816735 0.06306687 0.04483852
v 0.01210787 0.06607699 -0.00969898
v 0.01072963 0.06753375 -0.03847901
v 0.04143999 0.06113024 0.00032989
v 0.03138255 0.06329226 -0.02044684
v 0.04812318 0.05719316 0.05131846
v 0.05561778 0.05282013 0.01863630
v 0.06279961 0.04746841 0.03555123
v 0.05410629 0.05441381 -0.01547478
v 0.06143822 0.04934630 -0.00011641
v 0.05043012 0.05665484 -0.04074086
v 0.01869022 0.06556050 -0.04881018
v 0.02620957 0.06521408 -0.06539056
v -0.01314985 0.06782603 -0.07774052
v 0.04929814 0.05394189 -0.07161828
v 0.01408006 0.06674409 -0.07431833
v -0.00648936 0.06931704 -0.08867899
v 0.04256567 0.06044900 -0.08375311
v 0.02566540 0.06650606 -0.09102968
v 0.05483804 0.05401813 -0.10252060
v 0.06574160 0.04607501 -0.08220639
v 0.02159283 0.06305515 -0.10180360
v -0.02312981 0.06060145 -0.10231550
v -0.03081438 0.06384706 -0.09297440
v -0.04623914 0.05627389 -0.09865157
v 0.06456231 -0.07383105 -0.11760370
v 0.07675497 -0.07285468 -0.10870140
v 0.07800379 -0.04819068 -0.11238600
v 0.06843156 -0.04456533 -0.11675480
v 0.03049265 -0.03663468 -0.12086890
v 0.01842040 -0.07544661 -0.12098720
v -0.02480409 -0.07402770 -0.12161440
v 0.05811574 -0.02211592 -0.11851930
v 0.06848393 0.00896515 -0.11439170
v 0.04576489 0.02361972 -0.11313350
v 0.07991303 -0.01970812 -0.10877140
v 0.06266294 0.02170491 -0.10893750
v 0.02909608 0.00978037 -0.11789220
v -0.02422527 0.02761741 -0.11173820
v -0.01075094 0.01255089 -0.11785390
v 0.00604176 -0.01247649 -0.11946330
v -0.03957833 -0.03689667 -0.11975860
v -0.06898142 -0.07202064 -0.11673440
v -0.06828690 -0.01273747 -0.11476780
v -0.02693074 -0.00688282 -0.11822700
v -0.04540781 0.01107966 -0.11679230
v -0.06107089 0.02215869 -0.10869740
v -0.04499694 0.02491123 -0.11258600
v -0.05837186 0.03766776 -0.10922830
v -0.03637527 0.05042679 -0.10906900
v -0.04623914 0.05627389 -0.09865157
v -0.02312981 0.06060145 -0.10231550
v -0.00932624 0.04712029 -0.11149050
v 0.01302112 0.04370337 -0.11172110
v 0.02810821 0.04723703 -0.11225520
v 0.02159283 0.06305515 -0.10180360
v 0.05135876 0.04688643 -0.11248870
v 0.05483804 0.05401813 -0.10252060
v 0.06611963 0.04054189 -0.10542550
v 0.06611963 0.04054189 -0.10542550
v 0.06875280 0.02591608 -0.09457333
v 0.06266294 0.02170491 -0.10893750
v 0.07979951 0.00950924 -0.09491519
v 0.08430057 -0.04542355 -0.10130850
v 0.07800379 -0.04819068 -0.11238600
v 0.07675497 -0.07285468 -0.10870140
v 0.08141909 -0.07164388 -0.08777971
v 0.08372906 -0.06919308 -0.06988478
v 0.08570822 -0.02889169 -0.05764279
v 0.08313098 -0.06809174 -0.02852475
v 0.08040513 -0.01268300 -0.08116928
v 0.07448080 0.01693430 -0.07334296
v 0.06735878 0.02364523 -0.07406071
v 0.06531218 0.04116903 -0.06352392
v 0.06723405 0.02621335 -0.05282091
v 0.06693707 0.04336182 -0.03790678
v 0.06635280 0.04032690 -0.00411895
v 0.07436154 0.01999415 -0.04502014
v 0.06913216 0.02891647 -0.02656668
v 0.06816196 0.03970654 0.03013484
v 0.06647579 0.03896461 0.06060729
v 0.05937454 0.04833499 0.06467732
v 0.05728278 0.05216978 0.07599998
v 0.07642625 0.02241323 -0.02475913
v 0.06506821 0.02712671 -0.00255817
v 0.07872161 -0.00600892 -0.00682381
v 0.06723818 0.02874213 0.03348880
v 0.07121222 0.02182473 -0.00230677
v 0.06726468 0.04029613 0.09670761
v 0.06335650 0.04450231 0.10682900
v 0.06709040 0.02407369 0.07150208
v 0.06891042 0.02475321 0.09352972
v 0.05810468 0.02310991 0.11185920
v 0.08472835 -0.03423935 -0.01580292
v 0.08604148 -0.05412282 -0.00313555
v 0.08262567 -0.07045131 -0.00033830
v 0.08279426 -0.01532261 0.02967046
v 0.08432781 -0.06447235 0.04770200
v 0.08195674 -0.07032306 0.07381240
v 0.08439108 -0.06694630 0.09090216
v 0.07728747 0.02141529 0.02213325
v 0.07305417 0.02183606 0.04328615
v 0.08044992 -0.00079021 0.05636989
v 0.07383798 0.01805290 0.06917994
v 0.08521169 -0.03570696 0.06395776
v 0.07684375 0.01551758 0.09356470
v 0.08331586 -0.02946420 0.09890026
v 0.07615960 0.01225963 0.10387220
v 0.06419069 0.01240078 0.11484320
v 0.08123147 -0.03907391 0.10715670
v 0.07259487 -0.07184560 0.11361290
v 0.07223906 -0.03847750 0.11541090
v -0.07419325 -0.07498204 -0.10380220
v -0.06898142 -0.07202064 -0.11673440
v -0.07853515 -0.06471031 -0.11168330
v -0.08322454 -0.07065357 -0.08201110
v -0.08219664 -0.05335362 -0.10370710
v -0.07865704 -0.00874604 -0.10621870
v -0.06828690 -0.01273747 -0.11476780
v -0.06107089 0.02215869 -0.10869740
v -0.07625490 0.01183543 -0.09846428
v -0.03613580 0.06263071 -0.07343886
v -0.05039971 0.05348463 -0.07605691
v -0.04815628 0.05191588 -0.05956018
v -0.06638413 0.03612712 -0.09898783
v -0.05837186 0.03766776 -0.10922830
v -0.06013753 0.03738197 -0.06055833
v -0.06772557 0.02131427 -0.09374455
v -0.06264136 0.02479610 -0.06435004
v -0.05661161 0.04380557 -0.03468679
v -0.07082988 0.01595032 -0.07235038
v -0.06266987 0.02486401 -0.03664497
v -0.06642944 0.02656257 -0.02165400
v -0.06204701 0.03986559 -0.02372779
v -0.07309921 0.01812876 -0.05226170
v -0.04791735 0.05236671 -0.00420571
v -0.07025378 0.01730530 -0.03125693
v -0.08268841 -0.01639791 -0.08756772
v -0.08454503 -0.02624225 -0.06820297
v -0.08421375 -0.06698725 -0.05628463
v -0.08134305 -0.00050913 -0.05213343
v -0.08301184 -0.01699072 -0.03761050
v -0.08306862 -0.06954064 -0.02336646
v -0.07270469 0.02091383 -0.02073535
v -0.08400735 -0.02362602 -0.00001198
v -0.08479917 -0.04687580 0.03222893
v -0.07965668 -0.07404127 0.03304067
v -0.08311973 -0.07133235 0.05443913
v -0.08476132 -0.03547237 0.08729988
v -0.08114590 -0.07226565 0.09773673
v -0.07868667 -0.04919323 0.11034800
v -0.07074241 -0.07330479 0.11365670
v -0.08108395 -0.00632736 0.09679924
v -0.07612853 -0.00468757 0.10929220
v -0.07488795 0.01217655 0.10248660
v -0.08247574 -0.01766206 0.06982765
v -0.08370992 -0.01259430 0.04463171
v -0.07045484 0.01569169 0.06797476
v -0.07977466 -0.00847473 0.00258311
v -0.06980682 0.02102797 -0.00172524
v -0.07496792 0.00886917 0.02740582
v -0.06483945 0.02405156 0.02640506
v -0.07277516 0.01884130 0.04686200
v -0.06741538 0.02253087 0.08894929
v -0.06117392 0.02370093 0.10658140
v -0.06264650 0.02668213 -0.00150328
v -0.05975368 0.03844114 -0.00047468
v -0.06331121 0.02452628 0.06142499
v -0.06133362 0.04230360 0.01920467
v -0.06246619 0.02451220 0.03238091
v -0.06000686 0.03698088 0.03241002
v -0.03728135 0.06150039 0.01717087
v -0.04737890 0.05395079 0.03207971
v -0.06112516 0.03688354 0.05716844
v -0.04837499 0.05198061 0.05633731
v -0.06247190 0.04065704 0.07758601
v -0.04947562 0.05491329 0.07879421
v -0.06454731 0.03747308 0.09839159
v -0.05997450 0.04133826 0.10559700
v -0.04000057 0.05926891 0.09641573
v -0.04634673 0.04776838 0.10888850
v -0.00754482 0.06846260 0.09394902
v -0.00995174 0.06810426 0.07430572
v 0.01334045 0.06679375 0.07236562
v 0.01868314 0.06852667 0.08834773
v 0.04287073 0.05561981 0.10721750
v 0.04481525 0.05840377 0.10226120
v 0.04243665 0.06027589 0.08515472
v 0.04110320 0.05685620 0.07024836
v 0.02069519 0.06620297 0.06150301
v -0.02429268 0.05604882 0.10712820
v -0.05082281 0.02545124 0.11271300
v -0.06264055 0.01219131 0.11386000
v -0.02480409 -0.07402770 -0.12161440
v -0.06898142 -0.07202064 -0.11673440
v -0.05308778 -0.07634053 -0.11352230
v -0.07419325 -0.07498204 -0.10380220
v -0.01939696 -0.07660571 -0.11785280
v 0.01842040 -0.07544661 -0.12098720
v 0.00077007 -0.07717327 -0.10195950
v 0.06328738 -0.07709060 -0.11098970
v 0.06456231 -0.07383105 -0.11760370
v 0.07675497 -0.07285468 -0.10870140
v 0.08141909 -0.07164388 -0.08777971
v 0.07438956 -0.07591363 -0.06437539
v 0.04585658 -0.07748322 -0.09601066
v 0.03114681 -0.07793060 -0.07451084
v -0.02437040 -0.07791322 -0.06710732
v -0.06031372 -0.07686743 -0.06897177
v 0.05349439 -0.07756157 -0.06054662
v 0.07057213 -0.07577706 -0.02442941
v 0.08262567 -0.07045131 -0.00033830
v -0.07846417 -0.07448006 -0.05904375
v -0.08322454 -0.07065357 -0.08201110
v -0.08421375 -0.06698725 -0.05628463
v -0.08306862 -0.06954064 -0.02336646
v 0.00532049 -0.07744142 -0.05469181
v -0.06359740 -0.07773249 -0.04241569
v -0.07897589 -0.07359455 -0.02386050
v -0.07965668 -0.07404127 0.03304067
v 0.02478458 -0.07766657 -0.03596900
v -0.02176665 -0.07817332 -0.02642045
v -0.06408712 -0.07677994 -0.02102710
v -0.06909632 -0.07670102 0.02885627
v 0.01512357 -0.07769478 -0.00461804
v -0.04159318 -0.07837898 0.00120153
v -0.07739732 -0.07561845 0.07383099
v -0.08311973 -0.07133235 0.05443913
v -0.08114590 -0.07226565 0.09773673
v -0.04178192 -0.07750902 0.04255831
v 0.00491212 -0.07761358 0.02510854
v 0.06158382 -0.07792826 0.02303416
v 0.01414929 -0.07778337 0.05416252
v -0.02809156 -0.07723417 0.06815443
v -0.05456007 -0.07784274 0.07887011
v -0.06155360 -0.07743568 0.10175220
v -0.07074241 -0.07330479 0.11365670
v -0.04829888 -0.07444823 0.12060500
v -0.01163367 -0.07615300 0.11997890
v 0.01273471 -0.07785621 0.08599567
v 0.05424703 -0.07831082 0.09017759
v 0.04356553 -0.07749405 0.06560624
v 0.07155812 -0.07553506 0.10863510
v 0.07259487 -0.07184560 0.11361290
v 0.08439108 -0.06694630 0.09090216
v 0.07655913 -0.07474656 0.06827183
v 0.08195674 -0.07032306 0.07381240
v 0.07509823 -0.07513244 0.05418970
v 0.07633242 -0.07503428 0.01189951
v -0.06384898 -0.03065129 0.11677540
v -0.07868667 -0.04919323 0.11034800
v -0.07612853 -0.00468757 0.10929220
v -0.06264055 0.01219131 0.11386000
v -0.06495710 -0.06213419 0.11768440
v -0.03268588 -0.03035527 0.12076530
v -0.07074241 -0.07330479 0.11365670
v -0.04829888 -0.07444823 0.12060500
v -0.01168437 -0.07423227 0.12220790
v -0.04886175 0.00339203 0.11892530
v -0.05082281 0.02545124 0.11271300
v -0.03407522 -0.00578033 0.11836410
v -0.02357253 0.02872919 0.11293680
v -0.01651866 0.01393596 0.11770240
v -0.02223705 0.04139783 0.11336320
v -0.04634673 0.04776838 0.10888850
v -0.02429268 0.05604882 0.10712820
v 0.01010649 0.05140697 0.11071650
v -0.00754482 0.06846260 0.09394902
v 0.04287073 0.05561981 0.10721750
v 0.00694398 0.02658795 0.11294850
v 0.01204933 0.01106493 0.11853710
v -0.00428054 -0.01503813 0.12044880
v 0.03014978 0.04635476 0.11259190
v -0.00015864 -0.04426536 0.12228670
v 0.05399397 0.03660686 0.11338670
v 0.06335650 0.04450231 0.10682900
v 0.05810468 0.02310991 0.11185920
v 0.05156900 -0.01449512 0.11995430
v 0.05960935 -0.05858487 0.11928910
v 0.05286014 -0.07418204 0.11974530
v 0.07259487 -0.07184560 0.11361290
v 0.07223906 -0.03847750 0.11541090
v 0.06419069 0.01240078 0.11484320
v 0.04458063 0.01327329 0.11558610
vn 0.80278030 0.38051440 -0.45907800
vn 0.29110740 0.16484560 -0.94238130
vn 0.84702770 0.09502508 -0.52298600
vn 0.98682950 -0.16164710 -0.00614348
vn 0.38478310 -0.92290700 0.01358887
vn 0.96732930 -0.25347860 0.00476025
vn 0.08828395 -0.34238090 0.93540440
vn 0.01697306 -0.98061480 0.19520870
vn -0.00515166 -0.04676327 0.99889270
vn -0.54895580 0.83571330 -0.01519503
vn -0.32001920 0.94729490 0.01483804
vn -0.38164260 0.92397060 -0.02504669
vn -0.13444330 0.99080350 -0.01527779
vn -0.05312256 0.99848820 -0.01411553
vn -0.14679410 0.98875030 0.02870925
vn 0.09079845 0.99572870 -0.01673498
vn -0.02598687 0.99895050 0.03771721
vn -0.32920020 0.94411640 -0.01647923
vn -0.06584468 0.99601270 -0.06019274
vn 0.24506700 0.96928940 0.02049943
vn -0.10237750 0.99260370 -0.06524439
vn -0.33199510 0.94327790 -0.00248553
vn 0.21277350 0.97709470 -0.00364669
vn 0.12176770 0.99255520 -0.00261858
vn 0.13178690 0.99121800 0.01090517
vn 0.33143310 0.94341980 0.01055591
vn 0.25098430 0.96785710 -0.01611164
vn 0.45752690 0.88739410 0.05657717
vn 0.50320420 0.86347630 0.03455822
vn 0.69217500 0.72014500 0.04780132
vn 0.55240290 0.83353570 0.00831705
vn 0.73869810 0.67322630 -0.03303660
vn 0.46808370 0.88262160 -0.04332205
vn 0.21963410 0.97465160 0.04260419
vn 0.27036320 0.95927900 -0.08177770
vn -0.11550750 0.99273890 0.03357698
vn 0.50091860 0.86544050 -0.00966719
vn 0.13293620 0.98741110 0.08571696
vn -0.03833822 0.96621420 -0.25487280
vn 0.39324320 0.91066940 0.12665310
vn 0.20619500 0.97244290 -0.10880530
vn 0.47847190 0.82858850 -0.29069880
vn 0.79949600 0.59360000 0.09189772
vn 0.05777139 0.76815700 -0.63764970
vn -0.07325515 0.72763220 -0.68204470
vn -0.29856060 0.93843430 -0.17378910
vn -0.54060060 0.79672880 -0.27013740
vn 0.17325960 -0.19177190 -0.96602520
vn 0.77663670 -0.47794600 -0.41036920
vn 0.64364900 -0.03091211 -0.76469640
vn 0.19411620 0.01650471 -0.98083970
vn 0.03298781 0.02449187 -0.99915560
vn 0.03090598 -0.44289950 -0.89603850
vn -0.04413330 -0.05637007 -0.99743410
vn 0.16125990 0.04366580 -0.98594550
vn 0.29110740 0.16484560 -0.94238130
vn 0.07388715 0.13569350 -0.98799200
vn 0.84702770 0.09502508 -0.52298600
vn 0.49665590 0.28561060 -0.81960940
vn 0.04281448 0.18610490 -0.98159660
vn -0.01973761 0.15987280 -0.98694020
vn -0.04444489 0.20697390 -0.97733630
vn -0.01020139 0.05261317 -0.99856290
vn -0.07929063 0.03661661 -0.99617890
vn -0.22657320 -0.13549530 -0.96452340
vn -0.31547690 0.08712123 -0.94492550
vn -0.02287171 0.08139775 -0.99641930
vn -0.10593220 0.15274250 -0.98257220
vn -0.51755660 0.22910630 -0.82440610
vn -0.08362298 0.19098620 -0.97802420
vn -0.44474580 0.37039720 -0.81547970
vn -0.13862090 0.39553210 -0.90793090
vn -0.54060060 0.79672880 -0.27013740
vn -0.07325515 0.72763220 -0.68204470
vn -0.01881852 0.31799080 -0.94790710
vn -0.01233262 0.15086460 -0.98847740
vn -0.04006146 0.28153770 -0.95871350
vn 0.05777139 0.76815700 -0.63764970
vn 0.20107410 0.35447280 -0.91319130
vn 0.47847190 0.82858850 -0.29069880
vn 0.83537750 0.30158290 -0.45955640
vn 0.83537750 0.30158290 -0.45955640
vn 0.94525170 0.31514700 -0.08474329
vn 0.49665590 0.28561060 -0.81960940
vn 0.97120860 0.23719960 -0.02214303
vn 0.98910800 -0.01100314 -0.14678030
vn 0.64364900 -0.03091211 -0.76469640
vn 0.77663670 -0.47794600 -0.41036920
vn 0.77577400 -0.62074260 -0.11337270
vn 0.98682950 -0.16164710 -0.00614348
vn 0.99574050 0.09212734 -0.00365260
vn 0.96732930 -0.25347860 0.00476025
vn 0.98832300 0.15205660 -0.00982223
vn 0.94419010 0.32925560 0.00978991
vn 0.93501360 0.35245620 0.03904098
vn 0.85238000 0.52288280 -0.00649096
vn 0.93319840 0.35189630 -0.07286842
vn 0.85345890 0.51942590 -0.04248253
vn 0.95838760 0.28527220 0.01063790
vn 0.96297380 0.26929610 -0.01269084
vn 0.92898730 0.36994240 0.01119551
vn 0.97331390 0.22933260 -0.00815459
vn 0.94415160 0.32918300 0.01470555
vn 0.62597360 0.77663270 -0.07070079
vn 0.64130100 0.76544660 -0.05314740
vn 0.95990910 0.27986090 0.01588593
vn 0.96268630 0.26909920 0.02864822
vn 0.97984500 0.19974510 0.00238599
vn 0.95267830 0.30356890 0.01581060
vn 0.93079710 0.36553440 -0.00111966
vn 0.92731370 0.37136820 0.04663527
vn 0.71849800 0.53137220 0.44878080
vn 0.95746140 0.28822580 -0.01391323
vn 0.92191820 0.32472200 0.21124040
vn 0.34748530 0.16517480 0.92302290
vn 0.99545320 0.08546152 0.04206006
vn 0.99992500 0.00481605 -0.01126588
vn 0.86839260 -0.49535730 -0.02270387
vn 0.99396000 0.10970350 0.00291534
vn 0.99816300 -0.05907703 0.01343394
vn 0.78571590 -0.61858310 0.00231365
vn 0.95514620 -0.25992700 0.14189360
vn 0.94000660 0.33323900 -0.07307047
vn 0.90994670 0.40732010 0.07802043
vn 0.98180760 0.18141050 0.05607038
vn 0.94944890 0.31390980 0.00272772
vn 0.99508800 0.09268387 -0.03477655
vn 0.95925060 0.28254770 -0.00224560
vn 0.98858600 0.12037170 0.09060003
vn 0.81743620 0.26435670 0.51177500
vn 0.42765890 0.18614860 0.88456570
vn 0.84181240 0.00651604 0.53973100
vn 0.69535430 -0.23852280 0.67793010
vn 0.46003160 0.04316719 0.88685260
vn -0.31965290 -0.94077500 -0.11297950
vn -0.22657320 -0.13549530 -0.96452340
vn -0.71645390 -0.11271170 -0.68846930
vn -0.96183230 -0.26656790 -0.06180692
vn -0.97969390 -0.01118235 -0.20018680
vn -0.84025990 0.15430240 -0.51976350
vn -0.31547690 0.08712123 -0.94492550
vn -0.51755660 0.22910630 -0.82440610
vn -0.90686120 0.38157170 -0.17890120
vn -0.36189540 0.93064820 0.05408840
vn -0.69994830 0.71143710 0.06268755
vn -0.65969940 0.74946580 0.05565755
vn -0.89056490 0.44305540 -0.10293740
vn -0.44474580 0.37039720 -0.81547970
vn -0.89952570 0.43137240 0.06907393
vn -0.91772710 0.39665390 -0.02104281
vn -0.91149230 0.40817750 0.05072339
vn -0.82392600 0.56477980 -0.04658165
vn -0.90127080 0.43280760 -0.01971110
vn -0.87480470 0.48198750 -0.04903824
vn -0.88223530 0.46638380 -0.06439684
vn -0.81234870 0.58276950 -0.02166634
vn -0.80722740 0.59021530 -0.00546871
vn -0.63134630 0.77534060 -0.01576712
vn -0.87983750 0.46850620 -0.07992365
vn -0.98635180 0.15908460 -0.04245260
vn -0.99683430 0.07692213 -0.02010943
vn -0.99530210 -0.09593768 0.01302397
vn -0.96030000 0.27721010 -0.03127710
vn -0.99390010 0.10734520 0.02528959
vn -0.99319890 -0.11638340 0.00329230
vn -0.93005150 0.36709410 -0.01568799
vn -0.99691020 0.07652110 -0.01773751
vn -0.99890830 -0.04671327 0.00023680
vn -0.84890400 -0.52844540 -0.01037751
vn -0.98161900 -0.19083190 0.00270931
vn -0.99586030 0.00873712 0.09047668
vn -0.90844950 -0.38729080 0.15724340
vn -0.82315560 -0.00668513 0.56777640
vn -0.53590050 -0.59587530 0.59811650
vn -0.97378620 0.20807910 0.09188820
vn -0.68459600 0.10980820 0.72060430
vn -0.87499330 0.44318350 0.19487170
vn -0.98149420 0.19145000 0.00402608
vn -0.98428970 0.17392650 0.03038902
vn -0.91088960 0.41215650 0.02017829
vn -0.95452270 0.29783960 -0.01333786
vn -0.88021380 0.47014530 0.06470849
vn -0.92139770 0.38573390 -0.04728409
vn -0.87846350 0.47765250 0.01224188
vn -0.85777880 0.51298460 0.03259191
vn -0.91315030 0.40745020 0.01186199
vn -0.72601980 0.36771510 0.58110310
vn -0.87686750 0.47747440 0.05587253
vn -0.88761710 0.46035130 -0.01458405
vn -0.90805020 0.41715890 -0.03772585
vn -0.84150150 0.54025260 -0.00151001
vn -0.85990110 0.50843090 0.04547676
vn -0.88944090 0.44908910 0.08493428
vn -0.45343220 0.89124830 0.00869951
vn -0.65214640 0.75660200 0.04752290
vn -0.89438010 0.43798870 -0.09083053
vn -0.67853680 0.73106870 -0.07159863
vn -0.87479470 0.47844960 -0.07629009
vn -0.61894500 0.78526940 -0.01609927
vn -0.90867720 0.39051040 0.14767320
vn -0.64997590 0.54996410 0.52447190
vn -0.40938600 0.85987150 0.30499840
vn -0.26098060 0.46035040 0.84850840
vn -0.04473726 0.90857990 0.41530870
vn -0.08298505 0.99598380 0.03361198
vn 0.15793040 0.98679860 -0.03586901
vn 0.14478580 0.97212580 0.18441380
vn 0.12109000 0.64347770 0.75582650
vn 0.43766390 0.87730130 0.19695870
vn 0.37227930 0.92485390 -0.07780308
vn 0.36504870 0.93049460 -0.03031739
vn 0.24595250 0.96908040 0.01976245
vn -0.09577449 0.64399860 0.75900790
vn -0.17129550 0.23271350 0.95734130
vn -0.40515930 0.22493620 0.88614320
vn -0.04413330 -0.05637007 -0.99743410
vn -0.22657320 -0.13549530 -0.96452340
vn -0.04615453 -0.99190590 -0.11828960
vn -0.31965290 -0.94077500 -0.11297950
vn -0.00872713 -0.98825880 -0.15253980
vn 0.03090598 -0.44289950 -0.89603850
vn -0.00259653 -0.99926950 -0.03812576
vn 0.09432682 -0.98917290 -0.11242520
vn 0.17325960 -0.19177190 -0.96602520
vn 0.77663670 -0.47794600 -0.41036920
vn 0.77577400 -0.62074260 -0.11337270
vn 0.20113130 -0.97939030 0.01845956
vn 0.01856981 -0.99980280 -0.00704440
vn 0.00882563 -0.99995830 -0.00236501
vn -0.00796879 -0.99983470 -0.01634234
vn -0.06272165 -0.99780340 -0.02131591
vn 0.05009789 -0.99874190 0.00222168
vn 0.12292540 -0.99233600 -0.01259288
vn 0.86839260 -0.49535730 -0.02270387
vn -0.37798510 -0.92579730 -0.00515461
vn -0.96183230 -0.26656790 -0.06180692
vn -0.99530210 -0.09593768 0.01302397
vn -0.99319890 -0.11638340 0.00329230
vn 0.00673053 -0.99997390 0.00262305
vn -0.07860705 -0.99690000 0.00337478
vn -0.38538310 -0.92275630 -0.00080999
vn -0.84890400 -0.52844540 -0.01037751
vn 0.01979719 -0.99978870 0.00552922
vn 0.00041812 -0.99999070 -0.00429415
vn -0.09999976 -0.99498500 0.00221169
vn -0.10625140 -0.99432710 0.00491807
vn 0.01348944 -0.99989620 -0.00506497
vn -0.02091655 -0.99978060 0.00118782
vn -0.19439030 -0.98029380 0.03516260
vn -0.98161900 -0.19083190 0.00270931
vn -0.90844950 -0.38729080 0.15724340
vn -0.01828583 -0.99966660 0.01822874
vn 0.00059740 -0.99999490 0.00314393
vn 0.05372745 -0.99851730 -0.00874822
vn -0.00312079 -0.99999500 0.00049493
vn -0.00765678 -0.99985150 0.01543775
vn -0.05091613 -0.99797210 -0.03820116
vn -0.06104308 -0.99710700 0.04529192
vn -0.53590050 -0.59587530 0.59811650
vn -0.09797290 -0.41739480 0.90342840
vn -0.00533026 -0.99729060 0.07336984
vn -0.01537941 -0.99968970 0.01959608
vn 0.05334284 -0.99817750 0.02821565
vn 0.02872445 -0.99958060 -0.00369016
vn 0.22956430 -0.96445410 0.13087510
vn 0.69535430 -0.23852280 0.67793010
vn 0.95514620 -0.25992700 0.14189360
vn 0.23486400 -0.97197280 -0.01037950
vn 0.78571590 -0.61858310 0.00231365
vn 0.23486720 -0.97153820 0.03083654
vn 0.38861530 -0.92138990 -0.00434822
vn -0.26436100 0.04349196 0.96344260
vn -0.82315560 -0.00668513 0.56777640
vn -0.68459600 0.10980820 0.72060430
vn -0.40515930 0.22493620 0.88614320
vn -0.24838680 0.00254133 0.96865760
vn -0.07268525 0.04872837 0.99616380
vn -0.53590050 -0.59587530 0.59811650
vn -0.09797290 -0.41739480 0.90342840
vn -0.00515166 -0.04676327 0.99889270
vn -0.08596160 0.09344647 0.99190640
vn -0.17129550 0.23271350 0.95734130
vn -0.03154039 0.07064568 0.99700270
vn -0.01640945 0.12381200 0.99217000
vn -0.06235800 0.17248000 0.98303720
vn -0.03048326 0.18874930 0.98155210
vn -0.26098060 0.46035040 0.84850840
vn -0.09577449 0.64399860 0.75900790
vn -0.00439050 0.47064390 0.88231230
vn -0.04473726 0.90857990 0.41530870
vn 0.12109000 0.64347770 0.75582650
vn 0.02623326 0.18603360 0.98219310
vn 0.02111658 0.17711360 0.98396390
vn -0.00844205 0.07023697 0.99749460
vn 0.01961168 0.13370160 0.99082760
vn 0.01666860 0.01255220 0.99978230
vn 0.16809690 0.12868090 0.97733550
vn 0.71849800 0.53137220 0.44878080
vn 0.34748530 0.16517480 0.92302290
vn 0.10227040 0.04814941 0.99359070
vn 0.11824570 -0.01285591 0.99290120
vn 0.08828395 -0.34238090 0.93540440
vn 0.69535430 -0.23852280 0.67793010
vn 0.46003160 0.04316719 0.88685260
vn 0.42765890 0.18614860 0.88456570
vn 0.06699892 0.20073150 0.97735260
vt 0.23891830 0.03862107
vt 0.22774100 0.00710225
vt 0.14907400 0.02436852
vt 0.42442780 0.92466050
vt 0.42642950 0.89443420
vt 0.41197080 0.86484360
vt 0.40625220 0.64806640
vt 0.43786630 0.64049380
vt 0.47026660 0.62801810
vt 0.60840240 0.25253950
vt 0.58277920 0.20653200
vt 0.57429470 0.31190630
vt 0.53250800 0.27518230
vt 0.50276350 0.20114180
vt 0.54689720 0.36412010
vt 0.47492080 0.34182840
vt 0.49791780 0.41138010
vt 0.58399720 0.46820390
vt 0.50549320 0.45737540
vt 0.43095830 0.42194830
vt 0.50704680 0.50177120
vt 0.58124100 0.55802260
vt 0.42667680 0.45636950
vt 0.46926750 0.31244270
vt 0.47420070 0.23609950
vt 0.39784290 0.33764820
vt 0.42244240 0.28313620
vt 0.37700910 0.47336480
vt 0.35919120 0.38582880
vt 0.33777570 0.43103590
vt 0.36488040 0.29518590
vt 0.34440020 0.33620100
vt 0.37559310 0.22745960
vt 0.45437430 0.20772110
vt 0.43669340 0.16248850
vt 0.53543750 0.13051160
vt 0.37449400 0.13979600
vt 0.46702750 0.13852450
vt 0.51975290 0.10090090
vt 0.39703040 0.10735060
vt 0.44079340 0.09028268
vt 0.36531690 0.05048865
vt 0.33330150 0.10703540
vt 0.45120920 0.05678874
vt 0.56448470 0.05757934
vt 0.58079510 0.08931392
vt 0.62294460 0.07135475
vt 0.36226640 0.72457770
vt 0.36061000 0.69044660
vt 0.29772660 0.69341500
vt 0.28895990 0.71563440
vt 0.26926820 0.79126380
vt 0.36591320 0.81681630
vt 0.36127870 0.90271430
vt 0.23316360 0.73438410
vt 0.15511410 0.70658650
vt 0.11695130 0.75197400
vt 0.22621800 0.68241420
vt 0.11829920 0.71329640
vt 0.15367970 0.79007980
vt 0.10492020 0.90165500
vt 0.14654430 0.87220940
vt 0.20866050 0.83902860
vt 0.26748010 0.93133410
vt 0.35384280 0.99149050
vt 0.20439850 0.99149030
vt 0.19306380 0.90601470
vt 0.14787490 0.94512880
vt 0.11451690 0.98299810
vt 0.11120050 0.94657190
vt 0.07536428 0.97785520
vt 0.04674204 0.93027980
vt 0.01713477 0.95808350
vt 0.01310663 0.90301530
vt 0.05707510 0.86967580
vt 0.06626198 0.81995030
vt 0.05919135 0.78580430
vt 0.00813226 0.79654350
vt 0.06077243 0.73806320
vt 0.03169081 0.72229660
vt 0.06790981 0.70203260
vt 0.31987770 0.03886473
vt 0.27618680 0.06717861
vt 0.26596410 0.01957476
vt 0.22580550 0.06789696
vt 0.07958353 0.04374146
vt 0.07272726 0.00913417
vt 0.00567883 0.01681209
vt 0.00657642 0.07843357
vt 0.01106703 0.13087980
vt 0.12001740 0.17009260
vt 0.01081604 0.25091730
vt 0.16630650 0.10483520
vt 0.24878830 0.12957580
vt 0.27236500 0.12817140
vt 0.32333670 0.16056680
vt 0.27901630 0.18852080
vt 0.32585080 0.23332100
vt 0.31808870 0.32476610
vt 0.25681130 0.21079240
vt 0.28484200 0.26315720
vt 0.31470840 0.41658510
vt 0.31239730 0.50100550
vt 0.34240560 0.51201810
vt 0.35193650 0.54324620
vt 0.26156300 0.26738850
vt 0.28097890 0.32896440
vt 0.18235320 0.31504520
vt 0.28298870 0.42623440
vt 0.26206090 0.32895340
vt 0.31398160 0.60228550
vt 0.32703900 0.63101970
vt 0.27006500 0.53321630
vt 0.26972630 0.59740290
vt 0.26920880 0.65862730
vt 0.10355440 0.28864130
vt 0.04874378 0.32441540
vt 0.00358558 0.33248840
vt 0.15516880 0.41717540
vt 0.02195090 0.47068990
vt 0.00627339 0.54636180
vt 0.01742887 0.59573480
vt 0.25509900 0.39659210
vt 0.25987920 0.45417940
vt 0.19593950 0.49192800
vt 0.24907710 0.52717430
vt 0.10068520 0.51559730
vt 0.23972310 0.59585340
vt 0.11984900 0.61353960
vt 0.22889600 0.62454090
vt 0.23490370 0.66528840
vt 0.09480536 0.63916130
vt 0.00677532 0.66753050
vt 0.09728420 0.66950450
vt 0.97772260 0.04452634
vt 0.96488980 0.00710213
vt 0.94605920 0.03076410
vt 0.97155280 0.11011830
vt 0.91970300 0.05495203
vt 0.80739300 0.05311465
vt 0.81471600 0.01944304
vt 0.72398150 0.04119045
vt 0.75701800 0.07616895
vt 0.59171430 0.14259180
vt 0.63135090 0.13453920
vt 0.62905440 0.17995630
vt 0.68897780 0.07504857
vt 0.68190110 0.04312646
vt 0.67615240 0.17736390
vt 0.72698260 0.08664715
vt 0.71159600 0.16770350
vt 0.65556930 0.24873900
vt 0.74020340 0.14610990
vt 0.70861140 0.24172320
vt 0.70630120 0.28393320
vt 0.66868010 0.27893230
vt 0.73679260 0.20033450
vt 0.62342400 0.32989830
vt 0.73354130 0.25725630
vt 0.82774670 0.10322720
vt 0.85447260 0.15508600
vt 0.96520230 0.18478040
vt 0.78678740 0.20045500
vt 0.83015190 0.23995010
vt 0.97385600 0.28015700
vt 0.72592750 0.28728220
vt 0.84712410 0.34606470
vt 0.90851140 0.43934890
vt 0.98328290 0.44452310
vt 0.97199940 0.50647510
vt 0.86842680 0.59375430
vt 0.96586700 0.63239030
vt 0.90053770 0.66465840
vt 0.96658100 0.68393460
vt 0.78853390 0.61382560
vt 0.78043640 0.65053550
vt 0.73884520 0.62430440
vt 0.82315100 0.54069670
vt 0.81338510 0.46948930
vt 0.73062460 0.52872210
vt 0.80455230 0.35249060
vt 0.72189410 0.33865060
vt 0.75454250 0.41947690
vt 0.70868640 0.41571920
vt 0.72851440 0.47037470
vt 0.70953670 0.58556560
vt 0.69800600 0.63744720
vt 0.70139340 0.33935140
vt 0.66885390 0.34105090
vt 0.70374890 0.50882010
vt 0.65891340 0.39295150
vt 0.70412740 0.43254170
vt 0.67004380 0.42910160
vt 0.58892990 0.38542260
vt 0.61770130 0.42578430
vt 0.67059030 0.49612370
vt 0.62199890 0.49159760
vt 0.66226860 0.55037890
vt 0.61895510 0.55101670
vt 0.66923950 0.60315740
vt 0.65671780 0.61951920
vt 0.59709580 0.59681990
vt 0.62739670 0.63483770
vt 0.51397710 0.59429820
vt 0.52020930 0.53741010
vt 0.46170130 0.53149930
vt 0.44831990 0.57451840
vt 0.38433830 0.63019120
vt 0.38225020 0.61242090
vt 0.39005340 0.56622560
vt 0.39044870 0.52599220
vt 0.44466130 0.50147640
vt 0.56892120 0.63757060
vt 0.68244100 0.66436600
vt 0.72759640 0.66470600
vt 0.55833950 0.97594850
vt 0.60389260 0.95992020
vt 0.58536010 0.95726730
vt 0.60556320 0.93947920
vt 0.55117420 0.97077670
vt 0.51183790 0.98388860
vt 0.52521340 0.95228170
vt 0.46191190 0.97787080
vt 0.46186350 0.98848940
vt 0.44623450 0.97851540
vt 0.43419760 0.94973210
vt 0.43627370 0.91399810
vt 0.47584370 0.95296990
vt 0.48513050 0.91901210
vt 0.54193910 0.89652710
vt 0.58088900 0.89163540
vt 0.45726810 0.90378440
vt 0.42794270 0.85535650
vt 0.40615540 0.82304990
vt 0.59781000 0.87341390
vt 0.61114450 0.90553830
vt 0.60899710 0.86707620
vt 0.59560270 0.81981550
vt 0.50674060 0.88493840
vt 0.57662970 0.85251050
vt 0.58865550 0.82199060
vt 0.57155320 0.73916340
vt 0.48052970 0.86211230
vt 0.52737390 0.83827260
vt 0.57118270 0.82127110
vt 0.56111260 0.74784730
vt 0.48172150 0.81481150
vt 0.54029240 0.79404640
vt 0.55481860 0.68176470
vt 0.56957600 0.70726440
vt 0.55256550 0.64642350
vt 0.52776680 0.73454060
vt 0.48389030 0.76995240
vt 0.42490260 0.78487180
vt 0.46565470 0.73067130
vt 0.50536110 0.70119900
vt 0.52952900 0.67972680
vt 0.52940810 0.64585170
vt 0.53585270 0.62602450
vt 0.50947640 0.62163840
vt 0.47121980 0.63209740
vt 0.45744900 0.68562820
vt 0.41455040 0.68919230
vt 0.43181990 0.72093580
vt 0.39190490 0.66766710
vt 0.38734260 0.66069840
vt 0.37786120 0.69329240
vt 0.39668280 0.72371190
vt 0.38707790 0.71724780
vt 0.40183850 0.74335580
vt 0.41189580 0.80375900
vt 0.73666790 0.95483730
vt 0.69310620 0.98447440
vt 0.79695660 0.98825420
vt 0.83621450 0.96344590
vt 0.66415060 0.95208120
vt 0.73873660 0.89604570
vt 0.63766470 0.96523520
vt 0.63594930 0.92018500
vt 0.63853880 0.85254210
vt 0.81536550 0.93254570
vt 0.86889950 0.94382170
vt 0.79569660 0.90249390
vt 0.87866070 0.88881360
vt 0.84225540 0.87154350
vt 0.90840130 0.88860130
vt 0.92424610 0.94230350
vt 0.94767460 0.89711200
vt 0.93604250 0.82137050
vt 0.99700760 0.86295170
vt 0.95243100 0.74938120
vt 0.87645880 0.82665600
vt 0.83772080 0.81568250
vt 0.77607800 0.84471290
vt 0.92425500 0.77887640
vt 0.70891480 0.83422180
vt 0.90427470 0.73161050
vt 0.92634310 0.70654190
vt 0.87329000 0.72402550
vt 0.78203770 0.74017470
vt 0.68123250 0.72315020
vt 0.64447830 0.73379980
vt 0.65165570 0.69461680
vt 0.72914110 0.69918220
vt 0.84687440 0.71341680
vt 0.84709830 0.75208340
f 3/3/3 2/2/2 1/1/1
f 6/6/6 5/5/5 4/4/4
f 9/9/9 8/8/8 7/7/7
f 12/12/12 11/11/11 10/10/10
f 11/11/11 12/12/12 13/13/13
f 13/13/13 14/14/14 11/11/11
f 13/13/13 12/12/12 15/15/15
f 15/15/15 16/16/16 13/13/13
f 16/16/16 15/15/15 17/17/17
f 18/18/18 17/17/17 15/15/15
f 19/19/19 17/17/17 18/18/18
f 20/20/20 16/16/16 17/17/17
f 19/19/19 20/20/20 17/17/17
f 19/19/19 18/18/18 21/21/21
f 18/18/18 22/22/22 21/21/21
f 20/20/20 19/19/19 23/23/23
f 23/23/23 19/19/19 21/21/21
f 13/13/13 16/16/16 24/24/24
f 14/14/14 13/13/13 25/25/25
f 24/24/24 25/25/25 13/13/13
f 26/26/26 24/24/24 16/16/16
f 16/16/16 20/20/20 26/26/26
f 25/25/25 24/24/24 27/27/27
f 26/26/26 27/27/27 24/24/24
f 20/20/20 23/23/23 28/28/28
f 26/26/26 20/20/20 29/29/29
f 28/28/28 29/29/29 20/20/20
f 28/28/28 30/30/30 29/29/29
f 29/29/29 31/31/31 26/26/26
f 26/26/26 31/31/31 27/27/27
f 31/31/31 29/29/29 32/32/32
f 27/27/27 31/31/31 33/33/33
f 25/25/25 27/27/27 33/33/33
f 14/14/14 25/25/25 34/34/34
f 33/33/33 34/34/34 25/25/25
f 34/34/34 35/35/35 14/14/14
f 34/34/34 33/33/33 35/35/35
f 14/14/14 35/35/35 36/36/36
f 35/35/35 33/33/33 37/37/37
f 35/35/35 38/38/38 36/36/36
f 37/37/37 38/38/38 35/35/35
f 39/39/39 36/36/36 38/38/38
f 38/38/38 37/37/37 40/40/40
f 38/38/38 40/40/40 41/41/41
f 41/41/41 39/39/39 38/38/38
f 40/40/40 42/42/42 41/41/41
f 43/43/43 42/42/42 40/40/40
f 41/41/41 42/42/42 44/44/44
f 44/44/44 39/39/39 41/41/41
f 44/44/44 45/45/45 39/39/39
f 45/45/45 46/46/46 39/39/39
f 45/45/45 47/47/47 46/46/46
f 50/50/50 49/49/49 48/48/48
f 50/50/50 48/48/48 51/51/51
f 52/52/52 51/51/51 48/48/48
f 48/48/48 53/53/53 52/52/52
f 54/54/54 52/52/52 53/53/53
f 50/50/50 51/51/51 55/55/55
f 52/52/52 55/55/55 51/51/51
f 55/55/55 56/56/56 50/50/50
f 56/56/56 55/55/55 57/57/57
f 50/50/50 56/56/56 58/58/58
f 57/57/57 59/59/59 56/56/56
f 55/55/55 52/52/52 60/60/60
f 60/60/60 57/57/57 55/55/55
f 60/60/60 61/61/61 57/57/57
f 62/62/62 61/61/61 60/60/60
f 52/52/52 63/63/63 60/60/60
f 63/63/63 52/52/52 54/54/54
f 60/60/60 63/63/63 62/62/62
f 64/64/64 63/63/63 54/54/54
f 65/65/65 64/64/64 54/54/54
f 66/66/66 64/64/64 65/65/65
f 63/63/63 67/67/67 62/62/62
f 63/63/63 64/64/64 67/67/67
f 61/61/61 62/62/62 67/67/67
f 68/68/68 64/64/64 66/66/66
f 64/64/64 68/68/68 67/67/67
f 61/61/61 67/67/67 68/68/68
f 66/66/66 69/69/69 68/68/68
f 70/70/70 68/68/68 69/69/69
f 61/61/61 68/68/68 70/70/70
f 70/70/70 69/69/69 71/71/71
f 70/70/70 71/71/71 72/72/72
f 72/72/72 61/61/61 70/70/70
f 71/71/71 73/73/73 72/72/72
f 73/73/73 74/74/74 72/72/72
f 72/72/72 74/74/74 75/75/75
f 72/72/72 75/75/75 61/61/61
f 61/61/61 75/75/75 76/76/76
f 61/61/61 76/76/76 57/57/57
f 76/76/76 77/77/77 57/57/57
f 78/78/78 77/77/77 76/76/76
f 77/77/77 79/79/79 57/57/57
f 77/77/77 78/78/78 79/79/79
f 79/79/79 59/59/59 57/57/57
f 80/80/80 79/79/79 78/78/78
f 79/79/79 81/81/81 59/59/59
f 80/80/80 81/81/81 79/79/79
f 78/78/78 76/76/76 75/75/75
f 74/74/74 78/78/78 75/75/75
f 43/43/43 82/82/82 42/42/42
f 43/43/43 83/83/83 82/82/82
f 83/83/83 84/84/84 82/82/82
f 83/83/83 1/1/1 84/84/84
f 2/2/2 84/84/84 1/1/1
f 85/85/85 1/1/1 83/83/83
f 1/1/1 85/85/85 3/3/3
f 85/85/85 86/86/86 3/3/3
f 3/3/3 86/86/86 87/87/87
f 86/86/86 88/88/88 87/87/87
f 88/88/88 86/86/86 89/89/89
f 89/89/89 86/86/86 90/90/90
f 90/90/90 86/86/86 91/91/91
f 90/90/90 91/91/91 92/92/92
f 93/93/93 86/86/86 85/85/85
f 93/93/93 91/91/91 86/86/86
f 85/85/85 94/94/94 93/93/93
f 85/85/85 83/83/83 94/94/94
f 94/94/94 91/91/91 93/93/93
f 83/83/83 95/95/95 94/94/94
f 95/95/95 83/83/83 43/43/43
f 96/96/96 95/95/95 43/43/43
f 96/96/96 43/43/43 40/40/40
f 40/40/40 37/37/37 96/96/96
f 33/33/33 96/96/96 37/37/37
f 94/94/94 95/95/95 97/97/97
f 95/95/95 96/96/96 97/97/97
f 98/98/98 96/96/96 33/33/33
f 97/97/97 96/96/96 98/98/98
f 98/98/98 33/33/33 31/31/31
f 98/98/98 31/31/31 99/99/99
f 31/31/31 32/32/32 99/99/99
f 91/91/91 94/94/94 100/100/100
f 97/97/97 100/100/100 94/94/94
f 98/98/98 101/101/101 97/97/97
f 98/98/98 99/99/99 101/101/101
f 99/99/99 32/32/32 102/102/102
f 102/102/102 32/32/32 29/29/29
f 30/30/30 102/102/102 29/29/29
f 102/102/102 30/30/30 103/103/103
f 103/103/103 30/30/30 28/28/28
f 28/28/28 104/104/104 103/103/103
f 103/103/103 104/104/104 105/105/105
f 100/100/100 97/97/97 106/106/106
f 97/97/97 101/101/101 106/106/106
f 107/107/107 101/101/101 99/99/99
f 107/107/107 99/99/99 102/102/102
f 107/107/107 106/106/106 101/101/101
f 100/100/100 106/106/106 108/108/108
f 100/100/100 108/108/108 91/91/91
f 109/109/109 107/107/107 102/102/102
f 103/103/103 109/109/109 102/102/102
f 110/110/110 106/106/106 107/107/107
f 108/108/108 106/106/106 110/110/110
f 110/110/110 107/107/107 109/109/109
f 105/105/105 111/111/111 103/103/103
f 111/111/111 105/105/105 112/112/112
f 111/111/111 113/113/113 103/103/103
f 109/109/109 103/103/103 113/113/113
f 114/114/114 111/111/111 112/112/112
f 114/114/114 113/113/113 111/111/111
f 112/112/112 115/115/115 114/114/114
f 116/116/116 91/91/91 108/108/108
f 92/92/92 91/91/91 116/116/116
f 117/117/117 92/92/92 116/116/116
f 116/116/116 108/108/108 117/117/117
f 118/118/118 92/92/92 117/117/117
f 119/119/119 108/108/108 110/110/110
f 108/108/108 119/119/119 117/117/117
f 117/117/117 120/120/120 118/118/118
f 120/120/120 117/117/117 119/119/119
f 118/118/118 120/120/120 121/121/121
f 122/122/122 121/121/121 120/120/120
f 119/119/119 110/110/110 123/123/123
f 110/110/110 109/109/109 123/123/123
f 123/123/123 109/109/109 124/124/124
f 124/124/124 119/119/119 123/123/123
f 113/113/113 124/124/124 109/109/109
f 120/120/120 119/119/119 125/125/125
f 125/125/125 119/119/119 124/124/124
f 124/124/124 113/113/113 126/126/126
f 125/125/125 124/124/124 126/126/126
f 126/126/126 113/113/113 114/114/114
f 120/120/120 125/125/125 127/127/127
f 127/127/127 122/122/122 120/120/120
f 127/127/127 125/125/125 126/126/126
f 114/114/114 128/128/128 126/126/126
f 115/115/115 128/128/128 114/114/114
f 129/129/129 127/127/127 126/126/126
f 129/129/129 122/122/122 127/127/127
f 126/126/126 128/128/128 129/129/129
f 128/128/128 115/115/115 130/130/130
f 130/130/130 129/129/129 128/128/128
f 130/130/130 115/115/115 131/131/131
f 131/131/131 132/132/132 130/130/130
f 130/130/130 132/132/132 129/129/129
f 132/132/132 122/122/122 129/129/129
f 133/133/133 122/122/122 132/132/132
f 132/132/132 131/131/131 134/134/134
f 134/134/134 133/133/133 132/132/132
f 137/137/137 136/136/136 135/135/135
f 137/137/137 135/135/135 138/138/138
f 139/139/139 137/137/137 138/138/138
f 140/140/140 137/137/137 139/139/139
f 137/137/137 140/140/140 141/141/141
f 137/137/137 141/141/141 136/136/136
f 142/142/142 141/141/141 140/140/140
f 140/140/140 143/143/143 142/142/142
f 46/46/46 36/36/36 39/39/39
f 36/36/36 46/46/46 144/144/144
f 144/144/144 14/14/14 36/36/36
f 11/11/11 14/14/14 144/144/144
f 144/144/144 46/46/46 145/145/145
f 47/47/47 145/145/145 46/46/46
f 144/144/144 146/146/146 11/11/11
f 144/144/144 145/145/145 146/146/146
f 146/146/146 10/10/10 11/11/11
f 145/145/145 47/47/47 147/147/147
f 148/148/148 147/147/147 47/47/47
f 142/142/142 147/147/147 148/148/148
f 145/145/145 149/149/149 146/146/146
f 147/147/147 149/149/149 145/145/145
f 142/142/142 150/150/150 147/147/147
f 142/142/142 143/143/143 150/150/150
f 151/151/151 147/147/147 150/150/150
f 151/151/151 149/149/149 147/147/147
f 146/146/146 149/149/149 152/152/152
f 10/10/10 146/146/146 152/152/152
f 143/143/143 153/153/153 150/150/150
f 153/153/153 151/151/151 150/150/150
f 151/151/151 154/154/154 149/149/149
f 152/152/152 149/149/149 154/154/154
f 152/152/152 154/154/154 155/155/155
f 10/10/10 152/152/152 156/156/156
f 155/155/155 156/156/156 152/152/152
f 151/151/151 157/157/157 154/154/154
f 157/157/157 151/151/151 153/153/153
f 10/10/10 156/156/156 158/158/158
f 158/158/158 12/12/12 10/10/10
f 157/157/157 159/159/159 154/154/154
f 159/159/159 155/155/155 154/154/154
f 153/153/153 143/143/143 160/160/160
f 140/140/140 160/160/160 143/143/143
f 160/160/160 140/140/140 139/139/139
f 160/160/160 139/139/139 161/161/161
f 160/160/160 161/161/161 153/153/153
f 138/138/138 161/161/161 139/139/139
f 138/138/138 162/162/162 161/161/161
f 157/157/157 153/153/153 163/163/163
f 161/161/161 163/163/163 153/153/153
f 157/157/157 163/163/163 159/159/159
f 162/162/162 164/164/164 161/161/161
f 164/164/164 163/163/163 161/161/161
f 159/159/159 163/163/163 164/164/164
f 162/162/162 165/165/165 164/164/164
f 166/166/166 159/159/159 164/164/164
f 166/166/166 155/155/155 159/159/159
f 164/164/164 165/165/165 167/167/167
f 167/167/167 166/166/166 164/164/164
f 165/165/165 168/168/168 167/167/167
f 168/168/168 165/165/165 169/169/169
f 170/170/170 168/168/168 169/169/169
f 168/168/168 170/170/170 171/171/171
f 170/170/170 172/172/172 171/171/171
f 173/173/173 171/171/171 172/172/172
f 173/173/173 172/172/172 174/174/174
f 175/175/175 171/171/171 173/173/173
f 173/173/173 176/176/176 175/175/175
f 176/176/176 177/177/177 175/175/175
f 171/171/171 178/178/178 168/168/168
f 178/178/178 171/171/171 175/175/175
f 167/167/167 168/168/168 179/179/179
f 168/168/168 178/178/178 179/179/179
f 178/178/178 175/175/175 180/180/180
f 180/180/180 175/175/175 177/177/177
f 180/180/180 179/179/179 178/178/178
f 166/166/166 167/167/167 181/181/181
f 179/179/179 181/181/181 167/167/167
f 181/181/181 182/182/182 166/166/166
f 155/155/155 166/166/166 182/182/182
f 179/179/179 183/183/183 181/181/181
f 182/182/182 181/181/181 183/183/183
f 184/184/184 182/182/182 183/183/183
f 185/185/185 183/183/183 179/179/179
f 179/179/179 180/180/180 185/185/185
f 183/183/183 185/185/185 184/184/184
f 186/186/186 180/180/180 177/177/177
f 177/177/177 187/187/187 186/186/186
f 182/182/182 188/188/188 155/155/155
f 188/188/188 182/182/182 184/184/184
f 155/155/155 188/188/188 189/189/189
f 188/188/188 184/184/184 189/189/189
f 189/189/189 156/156/156 155/155/155
f 156/156/156 189/189/189 158/158/158
f 190/190/190 185/185/185 180/180/180
f 186/186/186 190/190/190 180/180/180
f 191/191/191 158/158/158 189/189/189
f 184/184/184 191/191/191 189/189/189
f 184/184/184 185/185/185 192/192/192
f 190/190/190 192/192/192 185/185/185
f 184/184/184 192/192/192 193/193/193
f 193/193/193 192/192/192 190/190/190
f 191/191/191 184/184/184 193/193/193
f 158/158/158 191/191/191 194/194/194
f 12/12/12 158/158/158 194/194/194
f 15/15/15 12/12/12 194/194/194
f 18/18/18 15/15/15 194/194/194
f 194/194/194 191/191/191 195/195/195
f 195/195/195 191/191/191 193/193/193
f 18/18/18 194/194/194 195/195/195
f 196/196/196 193/193/193 190/190/190
f 190/190/190 186/186/186 196/196/196
f 193/193/193 197/197/197 195/195/195
f 197/197/197 18/18/18 195/195/195
f 197/197/197 193/193/193 196/196/196
f 198/198/198 196/196/196 186/186/186
f 198/198/198 197/197/197 196/196/196
f 197/197/197 199/199/199 18/18/18
f 198/198/198 199/199/199 197/197/197
f 22/22/22 18/18/18 199/199/199
f 186/186/186 200/200/200 198/198/198
f 199/199/199 198/198/198 200/200/200
f 186/186/186 187/187/187 200/200/200
f 201/201/201 200/200/200 187/187/187
f 201/201/201 199/199/199 200/200/200
f 199/199/199 201/201/201 202/202/202
f 203/203/203 202/202/202 201/201/201
f 22/22/22 199/199/199 202/202/202
f 22/22/22 202/202/202 204/204/204
f 22/22/22 204/204/204 205/205/205
f 21/21/21 22/22/22 205/205/205
f 204/204/204 206/206/206 205/205/205
f 21/21/21 205/205/205 206/206/206
f 207/207/207 206/206/206 204/204/204
f 208/208/208 207/207/207 204/204/204
f 208/208/208 209/209/209 207/207/207
f 209/209/209 208/208/208 112/112/112
f 105/105/105 209/209/209 112/112/112
f 209/209/209 210/210/210 207/207/207
f 105/105/105 210/210/210 209/209/209
f 207/207/207 210/210/210 206/206/206
f 210/210/210 105/105/105 211/211/211
f 211/211/211 206/206/206 210/210/210
f 105/105/105 104/104/104 211/211/211
f 104/104/104 28/28/28 211/211/211
f 21/21/21 206/206/206 212/212/212
f 212/212/212 206/206/206 211/211/211
f 211/211/211 28/28/28 212/212/212
f 23/23/23 21/21/21 212/212/212
f 28/28/28 23/23/23 212/212/212
f 213/213/213 204/204/204 202/202/202
f 202/202/202 203/203/203 213/213/213
f 203/203/203 201/201/201 214/214/214
f 187/187/187 214/214/214 201/201/201
f 214/214/214 187/187/187 215/215/215
f 177/177/177 215/215/215 187/187/187
f 215/215/215 177/177/177 176/176/176
f 218/218/218 217/217/217 216/216/216
f 218/218/218 219/219/219 217/217/217
f 216/216/216 220/220/220 218/218/218
f 220/220/220 216/216/216 221/221/221
f 220/220/220 221/221/221 222/222/222
f 222/222/222 218/218/218 220/220/220
f 222/222/222 221/221/221 223/223/223
f 224/224/224 223/223/223 221/221/221
f 225/225/225 223/223/223 224/224/224
f 223/223/223 225/225/225 226/226/226
f 223/223/223 226/226/226 227/227/227
f 4/4/4 227/227/227 226/226/226
f 227/227/227 4/4/4 5/5/5
f 223/223/223 228/228/228 222/222/222
f 228/228/228 223/223/223 227/227/227
f 229/229/229 222/222/222 228/228/228
f 228/228/228 227/227/227 229/229/229
f 222/222/222 230/230/230 218/218/218
f 222/222/222 229/229/229 230/230/230
f 218/218/218 231/231/231 219/219/219
f 231/231/231 218/218/218 230/230/230
f 5/5/5 232/232/232 227/227/227
f 227/227/227 232/232/232 229/229/229
f 5/5/5 233/233/233 232/232/232
f 6/6/6 233/233/233 5/5/5
f 234/234/234 233/233/233 6/6/6
f 235/235/235 219/219/219 231/231/231
f 219/219/219 235/235/235 236/236/236
f 237/237/237 236/236/236 235/235/235
f 235/235/235 238/238/238 237/237/237
f 239/239/239 229/229/229 232/232/232
f 229/229/229 239/239/239 230/230/230
f 231/231/231 240/240/240 235/235/235
f 230/230/230 240/240/240 231/231/231
f 238/238/238 235/235/235 241/241/241
f 241/241/241 235/235/235 240/240/240
f 242/242/242 238/238/238 241/241/241
f 232/232/232 243/243/243 239/239/239
f 233/233/233 243/243/243 232/232/232
f 239/239/239 244/244/244 230/230/230
f 244/244/244 240/240/240 230/230/230
f 244/244/244 239/239/239 243/243/243
f 245/245/245 241/241/241 240/240/240
f 244/244/244 245/245/245 240/240/240
f 242/242/242 241/241/241 246/246/246
f 246/246/246 241/241/241 245/245/245
f 247/247/247 244/244/244 243/243/243
f 247/247/247 243/243/243 233/233/233
f 245/245/245 244/244/244 248/248/248
f 248/248/248 246/246/246 245/245/245
f 244/244/244 247/247/247 248/248/248
f 249/249/249 242/242/242 246/246/246
f 249/249/249 250/250/250 242/242/242
f 250/250/250 249/249/249 251/251/251
f 248/248/248 252/252/252 246/246/246
f 249/249/249 246/246/246 252/252/252
f 253/253/253 248/248/248 247/247/247
f 252/252/252 248/248/248 253/253/253
f 254/254/254 247/247/247 233/233/233
f 253/253/253 247/247/247 254/254/254
f 252/252/252 253/253/253 255/255/255
f 254/254/254 255/255/255 253/253/253
f 252/252/252 256/256/256 249/249/249
f 255/255/255 256/256/256 252/252/252
f 257/257/257 251/251/251 249/249/249
f 256/256/256 257/257/257 249/249/249
f 257/257/257 258/258/258 251/251/251
f 258/258/258 257/257/257 256/256/256
f 259/259/259 251/251/251 258/258/258
f 259/259/259 258/258/258 260/260/260
f 260/260/260 258/258/258 261/261/261
f 258/258/258 256/256/256 261/261/261
f 9/9/9 260/260/260 261/261/261
f 261/261/261 8/8/8 9/9/9
f 262/262/262 256/256/256 255/255/255
f 256/256/256 262/262/262 261/261/261
f 261/261/261 263/263/263 8/8/8
f 262/262/262 263/263/263 261/261/261
f 264/264/264 262/262/262 255/255/255
f 254/254/254 264/264/264 255/255/255
f 264/264/264 263/263/263 262/262/262
f 265/265/265 8/8/8 263/263/263
f 7/7/7 8/8/8 265/265/265
f 266/266/266 7/7/7 265/265/265
f 265/265/265 267/267/267 266/266/266
f 265/265/265 263/263/263 268/268/268
f 268/268/268 267/267/267 265/265/265
f 263/263/263 264/264/264 268/268/268
f 268/268/268 269/269/269 267/267/267
f 264/264/264 270/270/270 268/268/268
f 254/254/254 270/270/270 264/264/264
f 268/268/268 270/270/270 269/269/269
f 270/270/270 254/254/254 271/271/271
f 271/271/271 269/269/269 270/270/270
f 233/233/233 271/271/271 254/254/254
f 234/234/234 269/269/269 271/271/271
f 233/233/233 234/234/234 271/271/271
f 274/274/274 273/273/273 272/272/272
f 272/272/272 275/275/275 274/274/274
f 272/272/272 273/273/273 276/276/276
f 272/272/272 276/276/276 277/277/277
f 276/276/276 273/273/273 278/278/278
f 279/279/279 276/276/276 278/278/278
f 277/277/277 276/276/276 279/279/279
f 279/279/279 280/280/280 277/277/277
f 281/281/281 275/275/275 272/272/272
f 281/281/281 282/282/282 275/275/275
f 281/281/281 272/272/272 283/283/283
f 272/272/272 277/277/277 283/283/283
f 282/282/282 281/281/281 284/284/284
f 281/281/281 283/283/283 284/284/284
f 283/283/283 277/277/277 285/285/285
f 283/283/283 285/285/285 284/284/284
f 282/282/282 284/284/284 286/286/286
f 286/286/286 287/287/287 282/282/282
f 286/286/286 288/288/288 287/287/287
f 286/286/286 289/289/289 288/288/288
f 288/288/288 289/289/289 290/290/290
f 289/289/289 291/291/291 290/290/290
f 284/284/284 292/292/292 286/286/286
f 292/292/292 289/289/289 286/286/286
f 284/284/284 285/285/285 293/293/293
f 293/293/293 292/292/292 284/284/284
f 277/277/277 294/294/294 285/285/285
f 294/294/294 293/293/293 285/285/285
f 295/295/295 291/291/291 289/289/289
f 289/289/289 292/292/292 295/295/295
f 294/294/294 277/277/277 296/296/296
f 280/280/280 296/296/296 277/277/277
f 295/295/295 297/297/297 291/291/291
f 291/291/291 297/297/297 298/298/298
f 299/299/299 298/298/298 297/297/297
f 295/295/295 299/299/299 297/297/297
f 299/299/299 295/295/295 292/292/292
f 299/299/299 292/292/292 293/293/293
f 294/294/294 296/296/296 300/300/300
f 293/293/293 294/294/294 300/300/300
f 296/296/296 280/280/280 301/301/301
f 296/296/296 301/301/301 300/300/300
f 302/302/302 301/301/301 280/280/280
f 301/301/301 302/302/302 303/303/303
f 304/304/304 301/301/301 303/303/303
f 300/300/300 301/301/301 304/304/304
f 304/304/304 305/305/305 300/300/300
f 305/305/305 299/299/299 306/306/306
f 306/306/306 299/299/299 293/293/293
f 300/300/300 306/306/306 293/293/293
f 300/300/300 305/305/305 306/306/306

