mtllib material.mtl
usemtl material_0
v -0.00178140 -0.03585339 -0.00371248
v -0.00397701 -0.03587949 -0.00076603
v 0.00000002 -0.03626698 -0.00000000
v 0.00212765 -0.03591603 -0.00332083
v -0.00265186 -0.03587949 0.00306114
v 0.00132516 -0.03587949 0.00382717
v -0.00308444 -0.03516104 0.00605902
v 0.00035836 -0.03516104 0.00678957
v 0.00444794 -0.03519557 0.00513853
v -0.00181206 -0.03374104 0.00971536
v 0.00328849 -0.03374104 0.00931976
v -0.00642697 -0.03374104 0.00750787
v -0.00248840 -0.03169366 0.01281838
v -0.00570066 -0.03516104 0.00370512
v -0.00678948 -0.03516104 0.00035826
v -0.00957008 -0.03377417 0.00256424
v -0.00856417 -0.03169366 0.00985677
v -0.00795012 -0.02918285 0.01377008
v -0.00347176 -0.02757389 0.01711911
v -0.00932073 -0.02616721 0.01614382
v -0.00682684 -0.02225730 0.02022490
v -0.01313357 -0.02200752 0.01711612
v -0.01308959 -0.02757389 0.01156612
v -0.01305828 -0.03064614 0.00600551
v -0.00605901 -0.03516104 -0.00308444
v -0.00296648 -0.03519557 -0.00611467
v -0.00178140 -0.03585339 -0.00371248
v -0.00875718 -0.03383638 -0.00450829
v -0.01302565 -0.03169367 -0.00091404
v -0.01082349 -0.03169366 -0.00730449
v -0.01535843 -0.02918286 -0.00411535
v -0.01608782 -0.02886331 0.00211793
v -0.01759664 -0.02566063 0.00728872
v -0.01983571 -0.02432290 -0.00261133
v -0.01920234 -0.02402790 -0.00647190
v -0.01776874 -0.02225729 0.01182892
v -0.01972583 -0.01688109 0.01384422
v -0.01549795 -0.01827612 0.01762032
v -0.01655295 -0.01396858 0.01883198
v -0.01879497 -0.02584647 0.00119510
v -0.02142594 -0.02017727 0.00723476
v -0.02213128 -0.02083505 0.00199157
v -0.02341827 -0.01827613 -0.00150074
v -0.02458557 -0.01396857 0.00491917
v -0.02247469 -0.01396857 0.01111466
v -0.02474215 -0.00941626 0.00837622
v -0.02173116 -0.00941627 0.01449462
v -0.02586062 -0.01091177 0.00114908
v -0.02223188 -0.01827613 -0.00751082
v -0.01711601 -0.02200753 -0.01313351
v -0.01972583 -0.01688109 -0.01384423
v -0.02247469 -0.01396858 -0.01111467
v -0.02458557 -0.01396858 -0.00491918
v -0.02617373 -0.00750048 -0.00344575
v -0.02474215 -0.00941626 -0.00837621
v -0.01723913 -0.00941626 0.01962518
v -0.01111480 -0.01396858 0.02247480
v -0.02224116 -0.00364446 0.01462790
v -0.01769725 -0.00364446 0.01988595
v -0.02526933 -0.00364448 0.00837306
v -0.02377375 0.00368786 0.01121255
v 0.01769729 -0.00364448 -0.01988597
v 0.01328645 -0.00291973 -0.02301267
v 0.01449464 -0.00941628 -0.02173099
v 0.00837310 -0.00364449 -0.02526922
v 0.01005966 0.00332534 -0.02428614
v 0.00837630 -0.00941627 -0.02474228
v 0.01111484 -0.01396859 -0.02247480
v 0.01655299 -0.01396859 -0.01883199
v 0.00467732 0.00368787 -0.02586563
v 0.00344584 -0.00750049 -0.02617370
v 0.00491926 -0.01396859 -0.02458567
v 0.00798819 0.01125342 -0.02353538
v 0.01288722 0.00718319 -0.02232135
v 0.01321687 0.01409124 -0.01983158
v 0.00929634 0.02085239 -0.01874664
v 0.01003471 -0.02017728 -0.02026613
v 0.00444753 -0.02017727 -0.02217291
v 0.01493802 -0.02017727 -0.01697836
v 0.01972587 -0.01688109 -0.01384423
v 0.01687293 -0.02402790 -0.01122130
v 0.01159471 -0.02566064 -0.01511046
v 0.00482477 -0.02616722 -0.01800619
v 0.00987819 -0.02886330 -0.01287353
v 0.01377000 -0.02918286 -0.00795017
v 0.00306908 -0.02913761 -0.01573335
v -0.00128150 -0.02402789 -0.02022301
v -0.00150078 -0.01827613 -0.02341841
v -0.00161161 -0.01396858 -0.02502113
v -0.00411530 -0.02918285 -0.01535845
v -0.00172001 -0.03155397 -0.01306449
v -0.00168715 -0.00941626 -0.02606689
v 0.00201617 -0.03299049 -0.01104266
v 0.00730438 -0.03169366 -0.01082358
v -0.00377069 -0.03378114 -0.00910323
v 0.00662133 -0.03383638 -0.00729188
v -0.00296648 -0.03519557 -0.00611467
v 0.00000002 -0.00291970 -0.02657282
v -0.00538333 -0.00364448 -0.02607026
v -0.00217658 0.00368788 -0.02619478
v 0.00141109 -0.03516104 -0.00665091
v 0.00454748 -0.03516104 -0.00505429
v 0.00187801 0.01098466 -0.02486936
v -0.00536087 0.01056950 -0.02444075
v -0.00153032 0.01409125 -0.02378309
v -0.00132245 0.02085237 -0.02088320
v 0.00412751 0.02085240 -0.02051396
v 0.00439369 0.02771100 -0.01620482
v 0.00801322 0.02580351 -0.01617720
v 0.00004988 0.02771100 -0.01678960
v 0.00249069 0.03170442 -0.01280585
v -0.00429725 0.02771100 -0.01623068
v -0.00668239 0.02085241 -0.01982949
v -0.00424598 0.03170442 -0.01233563
v 0.00131447 0.03389867 -0.00998422
v -0.00334947 0.03394327 -0.00946600
v 0.00568531 0.03394327 -0.00827661
v 0.00214310 0.03564775 -0.00667135
v 0.00519166 0.03564775 -0.00470611
v 0.00923239 0.03400275 -0.00382422
v 0.00684918 0.03564776 -0.00147970
v 0.00998427 0.03389867 0.00131453
v 0.01249591 0.03173999 -0.00334823
v 0.01280599 0.03170442 0.00249084
v 0.00827653 0.03394327 0.00568531
v 0.01085265 0.03162210 -0.00720874
v 0.00801434 0.03154356 -0.01044442
v 0.01404288 0.02758865 -0.00930946
v 0.00965539 0.02879014 -0.01258320
v 0.01226681 0.02379717 -0.01503268
v 0.01597387 0.02758865 -0.00535762
v 0.01570182 0.02085241 -0.01383162
v 0.01695536 0.02749055 -0.00030652
v 0.01502639 0.02913659 0.00402621
v 0.01044451 0.03154357 0.00801431
v 0.01298224 0.02776667 0.01057389
v 0.01686615 0.02559691 0.00698606
v 0.01742417 0.02085242 0.01158677
v 0.01383157 0.02085240 0.01570172
v 0.02051398 0.02085239 0.00412746
v 0.01917099 0.02110187 0.00794079
v 0.02088325 0.02085240 -0.00132232
v 0.02378306 0.01409124 0.00153024
v 0.01982939 0.02085241 -0.00668234
v 0.02437638 0.01125343 -0.00484964
v 0.02577437 0.00718320 -0.00000000
v 0.01824722 0.02046260 -0.01053495
v 0.02229057 0.01125344 -0.01099356
v 0.01880660 0.01200837 -0.01583896
v 0.01668069 0.00953343 -0.01898225
v 0.02159714 0.00368787 -0.01498254
v 0.02473893 0.00368786 -0.00888217
v 0.02606229 0.00332535 -0.00343108
v 0.01698346 0.00368788 -0.02006176
v 0.02657537 -0.00364449 0.00154748
v 0.02586565 0.00368789 0.00467734
v 0.02526931 -0.00364447 0.00837304
v 0.02561546 -0.00941627 0.00511708
v 0.02224120 -0.00364447 -0.01462790
v 0.02607043 -0.00364448 -0.00538325
v 0.02586065 -0.01091177 -0.00114907
v 0.02458561 -0.01396858 0.00491918
v 0.02341824 -0.01827613 0.00150075
v 0.02223186 -0.01827612 0.00751082
v 0.01920232 -0.02402790 0.00647189
v 0.01962520 -0.00941627 -0.01723931
v 0.02382377 -0.00722310 -0.01147078
v 0.02474213 -0.00941627 -0.00837622
v 0.02458561 -0.01396859 -0.00491918
v 0.02247467 -0.01396858 -0.01111466
v 0.02142598 -0.02017727 -0.00723477
v 0.02213126 -0.02083506 -0.00199158
v 0.01800618 -0.02616721 -0.00482470
v 0.02312034 0.01200840 0.00836750
v 0.02066598 0.01125344 0.01380729
v 0.02477946 0.00953343 0.00495464
v 0.02377367 0.00368789 0.01121254
v 0.02006161 0.00368788 0.01698346
v 0.02224114 -0.00364449 0.01462790
v 0.01638813 0.01125342 0.01868574
v 0.02341831 -0.00941627 0.01157226
v 0.02247467 -0.01396857 0.01111466
v 0.01962520 -0.00941626 0.01723931
v 0.01878985 -0.00291974 0.01878976
v 0.01607104 -0.00750048 0.02094405
v 0.01600257 0.00332533 0.02085505
v 0.01953035 -0.01827613 0.01300873
v 0.01687293 -0.02402789 0.01122130
v 0.01883209 -0.01396858 0.01655306
v 0.01339372 -0.02402789 0.01520605
v 0.01124321 -0.02918285 0.01124310
v 0.01547053 -0.01688109 0.01847795
v 0.00713158 -0.02898376 0.01437664
v 0.00425416 -0.03169366 0.01234511
v 0.00912109 -0.02425689 0.01792643
v 0.00278396 -0.02775442 0.01711275
v 0.01040940 -0.01827612 0.02103109
v 0.01111484 -0.01396858 0.02247479
v 0.00682688 -0.02225730 0.02022490
v 0.00461137 -0.01827612 0.02300862
v 0.00000002 -0.02320589 0.02081930
v -0.00150084 -0.01827613 0.02341840
v -0.00634128 -0.01576790 0.02366578
v 0.00491926 -0.01396857 0.02458567
v -0.01040936 -0.01827613 0.02103109
v 0.01157243 -0.00941627 0.02341813
v -0.00161161 -0.01396857 0.02502113
v 0.01194740 -0.00364446 0.02378867
v 0.00511703 -0.00941627 0.02561551
v -0.00168715 -0.00941626 0.02606689
v -0.01157245 -0.00941627 0.02341813
v -0.00674740 -0.00939507 0.02518153
v 0.00538331 -0.00364446 0.02607026
v 0.01288722 0.00718320 0.02232133
v -0.00837312 -0.00364446 0.02526920
v -0.01328641 -0.00291973 0.02301266
v -0.00154762 -0.00364445 0.02657530
v 0.00888215 0.00368786 0.02473878
v -0.00888217 0.00368787 0.02473878
v -0.01498237 0.00368788 0.02159698
v -0.01080822 0.01098465 0.02247634
v 0.00217655 0.00368787 0.02619478
v -0.00343118 0.00332532 0.02606239
v -0.00484968 0.01125343 0.02437625
v -0.00668239 0.02085241 0.01982947
v -0.00310707 0.02379718 0.01915190
v 0.00757775 0.01056950 0.02384652
v 0.00162461 0.01125344 0.02480085
v 0.01056622 0.01409125 0.02136182
v 0.00132249 0.02085240 0.02088317
v 0.00545338 0.02046259 0.02035227
v 0.00929628 0.02085241 0.01874661
v 0.00535769 0.02758865 0.01597376
v 0.00930947 0.02758866 0.01404303
v 0.00025864 0.02798342 0.01658588
v 0.00572027 0.03170442 0.01172485
v -0.00454512 0.03045251 0.01362567
v -0.00843807 0.02771101 0.01451527
v 0.00000002 0.03174000 0.01293655
v 0.00382421 0.03400275 0.00923232
v 0.00470610 0.03564775 0.00519165
v -0.01158695 0.02085241 0.01742430
v -0.01190736 0.02771101 0.01183697
v -0.00801430 0.03154357 0.01044440
v -0.01321683 0.01409125 0.01983156
v -0.01570184 0.02085240 0.01383162
v -0.01668065 0.00953343 0.01898223
v -0.01789924 0.01409125 0.01573502
v -0.00652307 0.03394327 0.00763372
v -0.01172492 0.03170442 0.00572013
v -0.01456532 0.02771101 0.00835158
v -0.01824730 0.02046259 0.01053494
v -0.00183227 0.03394327 0.00987253
v 0.00050306 0.03571505 0.00694227
v -0.00379677 0.03564776 0.00588947
v -0.00359169 0.03675706 0.00233870
v -0.00623276 0.03564775 0.00320184
v -0.00930386 0.03389867 0.00385382
v -0.01301424 0.03170442 -0.00090874
v -0.00990762 0.03400275 -0.00130423
v -0.01645692 0.02749055 0.00409240
v -0.01982935 0.02085240 0.00668232
v -0.02226522 0.01200840 0.01043195
v -0.02102529 0.00953343 0.01401809
v -0.02006163 0.00368788 0.01698346
v -0.02437646 0.01125343 0.00484962
v -0.02088321 0.02085238 0.00132230
v -0.02586567 0.00368788 0.00467734
v -0.02490825 0.01086800 -0.00000002
v -0.01681625 0.02758866 -0.00104078
v -0.02657539 -0.00364448 0.00154749
v -0.02607592 0.00481738 -0.00000001
v -0.02586567 0.00368787 -0.00467737
v -0.02437646 0.01125343 -0.00484962
v -0.02057313 0.02110187 -0.00270836
v -0.02566730 -0.00291972 -0.00687742
v -0.02428618 0.00332531 -0.01005958
v -0.02378878 -0.00364446 -0.01194740
v -0.02173116 -0.00941628 -0.01449462
v -0.01988597 -0.00364448 -0.01769722
v -0.01723913 -0.00941627 -0.01962519
v -0.01489650 -0.00722310 -0.02184602
v -0.01698348 0.00368786 -0.02006176
v -0.02159710 0.00368788 -0.01498253
v -0.02229053 0.01125343 -0.01099356
v -0.01868562 0.01125344 -0.01638814
v -0.01502777 0.01161948 -0.01958450
v -0.01982935 0.02085240 -0.00668235
v -0.01742419 0.02085239 -0.01158679
v -0.01383159 0.02085240 -0.01570173
v -0.01686623 0.02559691 -0.00698608
v -0.01355204 0.02580351 -0.01192728
v -0.01409270 0.02908047 -0.00689024
v -0.00835160 0.02771101 -0.01456543
v -0.01053504 0.02046260 -0.01824733
v -0.00952753 0.03045250 -0.01074885
v -0.01120346 0.03173999 -0.00646830
v -0.00763374 0.03394327 -0.00652302
v -0.00526460 0.03571504 -0.00455309
v -0.00699877 0.03564775 -0.00034330
v -0.00147976 0.03564775 -0.00684910
v 0.00029793 0.03672665 -0.00428256
v -0.00526460 0.03571504 -0.00455309
v -0.00355972 0.03672665 -0.00239928
v 0.00000002 0.03730266 -0.00000000
v 0.00407463 0.03675706 -0.00132968
v 0.00000002 0.03730266 -0.00000000
v 0.00667143 0.03564775 0.00214299
v 0.00360890 0.03669854 0.00225946
v 0.00082063 0.03672665 0.00421373
v -0.00355972 0.03672665 -0.00239928
v -0.00334947 0.03394327 -0.00946600
v -0.00147976 0.03564775 -0.00684910
v 0.01121438 -0.03172358 -0.00647450
v 0.00983820 -0.03383638 -0.00047410
v 0.01422032 -0.03050248 -0.00291918
v 0.00646540 -0.03516104 -0.00210329
v 0.00397699 -0.03587949 0.00076604
v 0.00665094 -0.03516104 0.00141110
v 0.00781711 -0.03378114 0.00599836
v 0.01018886 -0.03191283 0.00781813
v 0.01306456 -0.03155397 0.00171999
v 0.01437650 -0.02898376 0.00713138
v 0.01608779 -0.02886331 0.00211792
v 0.01972741 -0.02461394 0.00180789
v -0.00377069 -0.03378114 -0.00910323
v -0.00647464 -0.03172358 -0.01121440
v -0.00172001 -0.03155397 -0.01306449
v -0.00411530 -0.02918285 -0.01535845
v -0.00965007 -0.02757389 -0.01455989
v -0.01287345 -0.02886330 -0.00987806
v -0.01511055 -0.02566063 -0.01159465
v -0.01227658 -0.02043400 -0.01884226
v -0.00647196 -0.02402789 -0.01920215
v -0.00128150 -0.02402789 -0.02022301
v -0.00150078 -0.01827613 -0.02341841
v -0.00751079 -0.01827613 -0.02223171
v -0.00161161 -0.01396858 -0.02502113
v -0.00780322 -0.01091179 -0.02468199
v -0.00168715 -0.00941626 -0.02606689
v -0.00538333 -0.00364448 -0.02607026
v -0.01549795 -0.01827612 -0.01762033
v -0.01655295 -0.01396858 -0.01883198
v -0.01111480 -0.01396858 -0.02247480
v -0.01194736 -0.00364448 -0.02378867
v -0.00888217 0.00368786 -0.02473879
v -0.00217658 0.00368788 -0.02619478
v -0.00536087 0.01056950 -0.02444075
v -0.01166901 0.00792645 -0.02289487
v -0.01056624 0.01409124 -0.02136184
v -0.00668239 0.02085241 -0.01982949
v -0.00153032 0.01409125 -0.02378309
v -0.00132245 0.02085237 -0.02088320
v -0.00429725 0.02771100 -0.01623068
v -0.00424598 0.03170442 -0.01233563
vn -0.07926778 -0.98264440 -0.16770960
vn -0.18262180 -0.98252990 -0.03583779
vn -0.00033086 -0.99999980 0.00062882
vn 0.09660557 -0.98347070 -0.15314290
vn -0.12144670 -0.98273720 0.13956480
vn 0.05666129 -0.98247500 0.17757410
vn -0.15407410 -0.93648020 0.31506530
vn 0.02002973 -0.93672680 0.34948780
vn 0.22832560 -0.93654440 0.26599210
vn -0.09331115 -0.86173230 0.49870870
vn 0.17185450 -0.86300520 0.47506630
vn -0.33229750 -0.86235050 0.38200770
vn -0.11224120 -0.78458490 0.60977730
vn -0.29832580 -0.93531490 0.19023120
vn -0.35956360 -0.93304190 0.01212323
vn -0.49133480 -0.86070530 0.13332820
vn -0.40381540 -0.79075520 0.46004280
vn -0.34778840 -0.70864800 0.61389040
vn -0.14781100 -0.65250220 0.74323130
vn -0.39496070 -0.60744670 0.68921300
vn -0.26779450 -0.50859870 0.81829920
vn -0.53248390 -0.50377180 0.68020210
vn -0.57303460 -0.64846680 0.50112070
vn -0.59615360 -0.75331210 0.27770810
vn -0.30397550 -0.93795390 -0.16685680
vn -0.15166740 -0.93585210 -0.31808500
vn -0.07926778 -0.98264440 -0.16770960
vn -0.44141160 -0.86767220 -0.22869360
vn -0.61026500 -0.79105470 -0.04253386
vn -0.50717570 -0.78535010 -0.35496190
vn -0.69066580 -0.69678460 -0.19357700
vn -0.71639080 -0.69205240 0.08858778
vn -0.74091390 -0.60012290 0.30149490
vn -0.82121570 -0.56129350 -0.10273420
vn -0.78686290 -0.54841070 -0.28300620
vn -0.70980750 -0.50897680 0.48694540
vn -0.75879740 -0.35897230 0.54347520
vn -0.60871740 -0.39575610 0.68763380
vn -0.63451250 -0.27418040 0.72264710
vn -0.79453270 -0.60441890 0.05827255
vn -0.84684940 -0.44778450 0.28694080
vn -0.88123170 -0.46525360 0.08348421
vn -0.91815660 -0.39129650 -0.06225359
vn -0.93858180 -0.28877580 0.18887230
vn -0.86495020 -0.27977890 0.41663510
vn -0.93837090 -0.14586860 0.31334060
vn -0.81860080 -0.15161560 0.55399050
vn -0.97899090 -0.19687680 0.05306827
vn -0.86290500 -0.40861650 -0.29736760
vn -0.68552140 -0.50401460 -0.52538540
vn -0.76519200 -0.35746630 -0.53544300
vn -0.86427430 -0.27579020 -0.42067780
vn -0.94294110 -0.27765570 -0.18376440
vn -0.98684360 -0.09875341 -0.12801350
vn -0.93333640 -0.15348730 -0.32453770
vn -0.65522390 -0.15515910 0.73932890
vn -0.43797610 -0.27317400 0.85647710
vn -0.83514250 -0.02561902 0.54943660
vn -0.66792450 -0.02699872 0.74373910
vn -0.94967450 -0.02894164 0.31189860
vn -0.90121280 0.11219350 0.41860240
vn 0.67068900 -0.01894679 -0.74149670
vn 0.49850630 -0.00824856 -0.86684680
vn 0.54446670 -0.14813430 -0.82559810
vn 0.31475580 -0.02114255 -0.94893710
vn 0.38127200 0.10008030 -0.91902980
vn 0.32934550 -0.15391350 -0.93158050
vn 0.42419920 -0.28984980 -0.85792890
vn 0.62978610 -0.28435230 -0.72285090
vn 0.17123080 0.10710980 -0.97939140
vn 0.12717590 -0.10527650 -0.98627740
vn 0.18387130 -0.28593640 -0.94044230
vn 0.30851540 0.27647370 -0.91015420
vn 0.48978010 0.17804130 -0.85347340
vn 0.52224390 0.33932840 -0.78237950
vn 0.39371440 0.43041740 -0.81223750
vn 0.39574020 -0.44668680 -0.80240930
vn 0.17470250 -0.44395860 -0.87885140
vn 0.59150840 -0.44592580 -0.67176480
vn 0.76674960 -0.35472590 -0.53503700
vn 0.69130050 -0.55618280 -0.46126380
vn 0.48037580 -0.60506610 -0.63492840
vn 0.22234900 -0.60417170 -0.76520430
vn 0.44027740 -0.69229970 -0.57173140
vn 0.61423250 -0.69380480 -0.37596980
vn 0.13863360 -0.69819400 -0.70235730
vn -0.04904598 -0.55748660 -0.82873590
vn -0.06561922 -0.39689980 -0.91551330
vn -0.05949973 -0.28317670 -0.95722030
vn -0.17687880 -0.69466400 -0.69724890
vn -0.07858991 -0.77961910 -0.62130310
vn -0.06300113 -0.15459230 -0.98596770
vn 0.09769195 -0.83917920 -0.53500880
vn 0.34965940 -0.77766750 -0.52246680
vn -0.19447830 -0.86807220 -0.45675920
vn 0.34075910 -0.86926560 -0.35813470
vn -0.15166740 -0.93585210 -0.31808500
vn 0.01034584 -0.00171735 -0.99994500
vn -0.22612130 -0.02183710 -0.97385440
vn -0.08121129 0.11326730 -0.99024000
vn 0.06269892 -0.93148330 -0.35834020
vn 0.23393490 -0.93780920 -0.25649210
vn 0.07494533 0.26253180 -0.96200840
vn -0.20682790 0.25746060 -0.94389410
vn -0.06577618 0.34594600 -0.93594600
vn -0.05179488 0.44052090 -0.89624700
vn 0.17814060 0.43612410 -0.88207810
vn 0.21389860 0.59608700 -0.77390410
vn 0.36569460 0.54234160 -0.75639490
vn -0.01198192 0.59380660 -0.80451860
vn 0.12474220 0.73829470 -0.66284270
vn -0.20371900 0.59367550 -0.77849080
vn -0.26972580 0.44256950 -0.85520770
vn -0.21006010 0.74320720 -0.63523050
vn 0.06401539 0.82355450 -0.56361320
vn -0.19423030 0.82303150 -0.53375430
vn 0.32455300 0.82393580 -0.46453750
vn 0.14084460 0.90087400 -0.41059580
vn 0.32071560 0.89904790 -0.29808470
vn 0.52195380 0.82469590 -0.21780920
vn 0.44007530 0.89383060 -0.08602747
vn 0.55922450 0.82657130 0.06362150
vn 0.66099040 0.73258410 -0.16251830
vn 0.65906890 0.74068570 0.13043330
vn 0.46468140 0.82206630 0.32905640
vn 0.56258710 0.73323330 -0.38192220
vn 0.40911330 0.73509700 -0.54060950
vn 0.66947770 0.59377710 -0.44635000
vn 0.46491310 0.64023200 -0.61152170
vn 0.55920500 0.49164690 -0.66751280
vn 0.76759700 0.58859000 -0.25368640
vn 0.68508530 0.42409940 -0.59228180
vn 0.81071140 0.58527000 -0.01435982
vn 0.74009830 0.63620940 0.21792670
vn 0.53629250 0.73391160 0.41685010
vn 0.61661000 0.60769440 0.50049950
vn 0.77830420 0.54424940 0.31310570
vn 0.74596280 0.42760880 0.51057830
vn 0.59838000 0.43296290 0.67415460
vn 0.88193320 0.43978620 0.16965260
vn 0.83510670 0.42495930 0.34929410
vn 0.89494400 0.44176940 -0.06257012
vn 0.94051310 0.33454910 0.05926161
vn 0.85237040 0.44194570 -0.27955080
vn 0.94219400 0.27610430 -0.18983370
vn 0.98412700 0.17744430 -0.00275429
vn 0.78380300 0.43005870 -0.44799830
vn 0.86150340 0.27332180 -0.42791020
vn 0.72938430 0.29407780 -0.61767050
vn 0.64668450 0.22998400 -0.72725960
vn 0.81603850 0.11013280 -0.56740800
vn 0.93279840 0.10603850 -0.34444560
vn 0.98729030 0.09686451 -0.12599610
vn 0.64980950 0.10318610 -0.75306060
vn 0.99836720 -0.01993159 0.05353192
vn 0.97738520 0.10375120 0.18426590
vn 0.94902930 -0.02015704 0.31454240
vn 0.96820310 -0.15133420 0.19920020
vn 0.83383840 -0.01218950 -0.55187390
vn 0.97900810 -0.02443647 -0.20235130
vn 0.97986800 -0.19432030 -0.04580736
vn 0.94179930 -0.27702160 0.19045520
vn 0.91781600 -0.39206450 0.06244348
vn 0.86461180 -0.40956150 0.29104250
vn 0.79217420 -0.54805580 0.26850460
vn 0.74774460 -0.15850220 -0.64479080
vn 0.89183770 -0.09689265 -0.44185640
vn 0.94194190 -0.15668710 -0.29697560
vn 0.93858180 -0.28877590 -0.18887220
vn 0.86155360 -0.27372490 -0.42755120
vn 0.84460510 -0.44699020 -0.29468960
vn 0.88212390 -0.46421210 -0.07977752
vn 0.76530140 -0.61254700 -0.19773690
vn 0.89790720 0.29180190 0.32956670
vn 0.79834840 0.27596150 0.53524290
vn 0.95316840 0.22998530 0.19641010
vn 0.89866570 0.11388690 0.42359160
vn 0.76187160 0.11456690 0.63751550
vn 0.83861940 -0.02114265 0.54430750
vn 0.63503860 0.28041260 0.71978810
vn 0.88580650 -0.15501490 0.43739830
vn 0.86241240 -0.27286450 0.42636810
vn 0.74313720 -0.16040130 0.64962950
vn 0.70127750 -0.00436339 0.71287490
vn 0.60442270 -0.11431250 0.78841980
vn 0.60324470 0.09322395 0.79208900
vn 0.75660080 -0.40939960 0.50985010
vn 0.69395670 -0.54777870 0.46729280
vn 0.72343390 -0.27160270 0.63472470
vn 0.55313560 -0.54683940 0.62849650
vn 0.49729650 -0.69647070 0.51732450
vn 0.59702650 -0.36170810 0.71604920
vn 0.33489330 -0.69599350 0.63516900
vn 0.20085710 -0.78915330 0.58042530
vn 0.38390270 -0.56509450 0.73026510
vn 0.11677840 -0.66044400 0.74173890
vn 0.40778830 -0.40238500 0.81963090
vn 0.42753220 -0.27300410 0.86179170
vn 0.25420240 -0.50801550 0.82298320
vn 0.17744000 -0.39783820 0.90013310
vn -0.00565714 -0.52764550 0.84944580
vn -0.05578217 -0.40543750 0.91241920
vn -0.23951270 -0.33005880 0.91306900
vn 0.18849320 -0.27714120 0.94215870
vn -0.41323800 -0.40241610 0.81688160
vn 0.43216010 -0.16192940 0.88713960
vn -0.04893441 -0.27317820 0.96071800
vn 0.44595010 -0.01562397 0.89492150
vn 0.19402570 -0.14963670 0.96951680
vn -0.05794660 -0.14918240 0.98711040
vn -0.44835680 -0.15249710 0.88075020
vn -0.25066300 -0.15538450 0.95552280
vn 0.20201730 -0.02561891 0.97904680
vn 0.49143230 0.17818260 0.85249350
vn -0.30493170 -0.02193077 0.95212170
vn -0.50061350 -0.01126056 0.86559770
vn -0.05667592 -0.02415444 0.99810050
vn 0.32782920 0.10742030 0.93861010
vn -0.33973670 0.11106320 0.93394000
vn -0.56389040 0.10987860 0.81850730
vn -0.41397850 0.26310730 0.87143350
vn 0.08277455 0.11637480 0.98975010
vn -0.13096980 0.10790200 0.98549680
vn -0.17972450 0.27607390 0.94418330
vn -0.29203100 0.42925860 0.85466660
vn -0.14325200 0.49545860 0.85673790
vn 0.28156640 0.25963580 0.92374750
vn 0.05818662 0.27575700 0.95946470
vn 0.42785430 0.33924170 0.83776840
vn 0.05664431 0.42754790 0.90221630
vn 0.22712300 0.42867000 0.87444690
vn 0.40576890 0.43644390 0.80303700
vn 0.24498770 0.59001880 0.76932360
vn 0.45313960 0.59238550 0.66614120
vn 0.01880027 0.60768320 0.79395710
vn 0.30316460 0.73513100 0.60636100
vn -0.22399510 0.69141670 0.68685450
vn -0.39202430 0.58619730 0.70900610
vn 0.01847085 0.74149630 0.67070260
vn 0.21942740 0.82695010 0.51769230
vn 0.29203030 0.89594480 0.33466610
vn -0.49753760 0.43887110 0.74823020
vn -0.57326470 0.59434900 0.56401840
vn -0.41476910 0.73915680 0.53067310
vn -0.52494020 0.34475660 0.77819060
vn -0.67430140 0.43801110 0.59452830
vn -0.64219470 0.22793230 0.73186950
vn -0.70825820 0.33956280 0.61892440
vn -0.36631880 0.82164160 0.43670990
vn -0.60552230 0.74171600 0.28844430
vn -0.69793510 0.59071610 0.40489650
vn -0.78484030 0.43216560 0.44413810
vn -0.11074440 0.82463240 0.55472240
vn 0.02482346 0.90130690 0.43246950
vn -0.22337850 0.90018260 0.37386290
vn -0.21968000 0.96393940 0.15020500
vn -0.40764040 0.89132580 0.19841260
vn -0.52752500 0.82496210 0.20286680
vn -0.67847380 0.73376620 -0.03550259
vn -0.55498620 0.82885660 -0.07061714
vn -0.78392180 0.59031720 0.19233360
vn -0.85446700 0.43880830 0.27808880
vn -0.86981870 0.29148400 0.39806100
vn -0.80643540 0.22913020 0.54512490
vn -0.75858730 0.10502180 0.64305190
vn -0.94286910 0.26984720 0.19539820
vn -0.89951180 0.43289960 0.05896243
vn -0.97510220 0.11442500 0.18995460
vn -0.96356860 0.26746130 0.00009208
vn -0.80460660 0.59108750 -0.05678032
vn -0.99801120 -0.02077636 0.05951444
vn -0.99162230 0.12914700 -0.00247564
vn -0.97776530 0.10934220 -0.17893920
vn -0.94232300 0.27458620 -0.19138920
vn -0.89043830 0.43964430 -0.11761220
vn -0.96811900 -0.00335001 -0.25046820
vn -0.91886650 0.11140360 -0.37851500
vn -0.89075340 -0.02294470 -0.45390730
vn -0.81754350 -0.15700120 -0.55405160
vn -0.74398860 -0.01863683 -0.66793250
vn -0.66153960 -0.16660660 -0.73116880
vn -0.55313250 -0.09703402 -0.82742300
vn -0.63804170 0.10284690 -0.76310240
vn -0.81343760 0.11205280 -0.57075690
vn -0.86555460 0.27108170 -0.42110560
vn -0.72820070 0.27214320 -0.62901650
vn -0.58609270 0.28340720 -0.75906240
vn -0.85565540 0.43044740 -0.28734800
vn -0.75200500 0.42852850 -0.50085100
vn -0.59498440 0.43493680 -0.67588730
vn -0.78318040 0.53509750 -0.31670010
vn -0.62547990 0.54668560 -0.55669540
vn -0.68803990 0.64480470 -0.33290840
vn -0.41356030 0.58629820 -0.69657890
vn -0.44818280 0.43742160 -0.77961170
vn -0.47692840 0.69671930 -0.53583720
vn -0.57772860 0.74959550 -0.32301120
vn -0.42657140 0.82405550 -0.37278610
vn -0.32898360 0.89927700 -0.28821960
vn -0.43288630 0.90114090 -0.02355105
vn -0.10356640 0.89891250 -0.42571170
vn 0.01879084 0.96348010 -0.26711970
vn -0.32898360 0.89927700 -0.28821960
vn -0.22278970 0.96350250 -0.14841700
vn -0.00129037 0.99999900 -0.00056265
vn 0.25164930 0.96328570 -0.09355828
vn -0.00129037 0.99999900 -0.00056265
vn 0.42010980 0.89779540 0.13217870
vn 0.22984060 0.96261080 0.14336640
vn 0.04209064 0.96346050 0.26452250
vn -0.22278970 0.96350250 -0.14841700
vn -0.19423030 0.82303150 -0.53375430
vn -0.10356640 0.89891250 -0.42571170
vn 0.51934310 -0.79738650 -0.30733930
vn 0.50023510 -0.86556620 -0.02366444
vn 0.66154860 -0.73848900 -0.13033540
vn 0.33879640 -0.93242380 -0.12570930
vn 0.18170750 -0.98279530 0.03310090
vn 0.35179860 -0.93178120 0.08956318
vn 0.39836450 -0.86732260 0.29842450
vn 0.48125840 -0.79605740 0.36699180
vn 0.60570460 -0.78864530 0.10564330
vn 0.64897930 -0.69277550 0.31446420
vn 0.71650380 -0.69101030 0.09553608
vn 0.81812260 -0.57142010 0.06445578
vn -0.19447830 -0.86807220 -0.45675920
vn -0.32557590 -0.78619120 -0.52526540
vn -0.07858991 -0.77961910 -0.62130310
vn -0.17687880 -0.69466400 -0.69724890
vn -0.42726730 -0.64902440 -0.62945220
vn -0.57450590 -0.69287770 -0.43573330
vn -0.63225380 -0.60102360 -0.48890290
vn -0.48349080 -0.46510830 -0.74155990
vn -0.26755790 -0.55300800 -0.78904680
vn -0.04904598 -0.55748660 -0.82873590
vn -0.06561922 -0.39689980 -0.91551330
vn -0.28103820 -0.39684080 -0.87380470
vn -0.05949973 -0.28317670 -0.95722030
vn -0.29436090 -0.19202030 -0.93620510
vn -0.06300113 -0.15459230 -0.98596770
vn -0.22612130 -0.02183710 -0.97385440
vn -0.60680930 -0.39522890 -0.68962060
vn -0.63526660 -0.27481130 -0.72174450
vn -0.44037020 -0.27443890 -0.85484340
vn -0.44637500 -0.01599013 -0.89470310
vn -0.33077890 0.10030550 -0.93836250
vn -0.08121129 0.11326730 -0.99024000
vn -0.20682790 0.25746060 -0.94389410
vn -0.44988410 0.18914800 -0.87282720
vn -0.41171740 0.33863170 -0.84605990
vn -0.26972580 0.44256950 -0.85520770
vn -0.06577618 0.34594600 -0.93594600
vn -0.05179488 0.44052090 -0.89624700
vn -0.20371900 0.59367550 -0.77849080
vn -0.21006010 0.74320720 -0.63523050
vt 1.06488800 0.19030570
vt 0.26457480 0.19008670
vt 0.58581770 0.18683460
vt 0.85857690 0.18978000
vt 0.42795870 0.19008670
vt 0.56076490 0.19008670
vt 0.44748290 0.19611640
vt 0.52014540 0.19611640
vt 0.60927380 0.19582660
vt 0.48281000 0.20803420
vt 0.55755670 0.20803430
vt 0.40559110 0.20803420
vt 0.47897540 0.22521750
vt 0.37045070 0.19611650
vt 0.28639410 0.19611640
vt 0.31156790 0.20775620
vt 0.40018140 0.22521750
vt 0.42718970 0.24629020
vt 0.47544890 0.25979390
vt 0.42569600 0.27159990
vt 0.45502810 0.30441500
vt 0.40423060 0.30651130
vt 0.37622030 0.25979390
vt 0.33246760 0.23400920
vt 0.19341160 0.19611640
vt 0.06877905 0.19582660
vt 0.06488812 0.19030570
vt 0.18627210 0.20723410
vt 0.25204610 0.22521740
vt 0.16259780 0.22521750
vt 0.21756210 0.24629020
vt 0.28242830 0.24897210
vt 0.32292720 0.27585160
vt 0.23727970 0.28707880
vt 0.20495750 0.28955470
vt 0.35276100 0.30441500
vt 0.35560140 0.34953650
vt 0.39313350 0.33782820
vt 0.39268390 0.37398060
vt 0.26978960 0.27429180
vt 0.31052880 0.32187230
vt 0.27255310 0.31635170
vt 0.24702060 0.33782820
vt 0.28903750 0.37398060
vt 0.33104040 0.37398060
vt 0.30947880 0.41218730
vt 0.35121430 0.41218720
vt 0.26399690 0.39963580
vt 0.20388880 0.33782820
vt 0.14943640 0.30651120
vt 0.15614890 0.34953650
vt 0.18140240 0.37398060
vt 0.22466110 0.37398060
vt 0.23526190 0.42826610
vt 0.20318160 0.41218730
vt 0.39243980 0.41218730
vt 0.43340690 0.37398060
vt 0.35004820 0.46062880
vt 0.39129570 0.46062880
vt 0.30830000 0.46062870
vt 0.32771230 0.52216750
vt 0.87705220 0.46062870
vt 0.90999640 0.46671140
vt 0.89938090 0.41218720
vt 0.94325950 0.46062860
vt 0.93127100 0.51912490
vt 0.94208480 0.41218720
vt 0.92007390 0.37398050
vt 0.87759140 0.37398050
vt 0.96638440 0.52216760
vt 0.97432730 0.42826590
vt 0.96305760 0.37398050
vt 0.94164180 0.58566380
vt 0.90978500 0.55150310
vt 0.89875420 0.60948100
vt 0.91849630 0.66622600
vt 0.91922880 0.32187220
vt 0.96235230 0.32187230
vt 0.87666890 0.32187220
vt 0.83915960 0.34953650
vt 0.83360410 0.28955480
vt 0.88591690 0.27585150
vt 0.95032370 0.27159990
vt 0.88414700 0.24897210
vt 0.82088800 0.24629020
vt 0.96056660 0.24666990
vt 1.00533400 0.28955480
vt 1.00613400 0.33782820
vt 1.00646100 0.37398060
vt 1.03798100 0.24629020
vt 1.01429400 0.22638990
vt 1.00667200 0.41218730
vt 0.95856030 0.21433350
vt 0.89120060 0.22521750
vt 1.05915100 0.20769770
vt 0.86273100 0.20723410
vt 1.06877900 0.19582660
vt 0.99601420 0.46671160
vt 1.02985200 0.46062870
vt 1.00973000 0.52216770
vt 0.94391120 0.19611640
vt 0.85419760 0.19611640
vt 0.98322950 0.58340810
vt 1.03173200 0.57992380
vt 1.00624300 0.60948110
vt 1.00548600 0.66622590
vt 0.96173350 0.66622610
vt 0.94889570 0.72378900
vt 0.91720890 0.70777980
vt 0.99302170 0.72378900
vt 0.95850240 0.75730490
vt 1.03768200 0.72378900
vt 1.04960400 0.66622610
vt 1.04931100 0.75730490
vt 0.96563480 0.77572080
vt 1.04968700 0.77609510
vt 0.88532830 0.77609510
vt 0.92657180 0.79040050
vt 0.83869370 0.79040050
vt 0.79328070 0.77659440
vt 0.75866960 0.79040060
vt 0.71485250 0.77572080
vt 0.77732060 0.75760350
vt 0.70879480 0.75730490
vt 0.64681460 0.77609520
vt 0.82806620 0.75661400
vt 0.88134040 0.75595490
vt 0.83138060 0.72276210
vt 0.88387020 0.73284600
vt 0.88124750 0.69094090
vt 0.79019150 0.72276210
vt 0.85551680 0.66622620
vt 0.74309660 0.72193870
vt 0.69994700 0.73575370
vt 0.64074000 0.75595490
vt 0.63744620 0.72425620
vt 0.68136300 0.70604580
vt 0.65273920 0.66622630
vt 0.61331740 0.66622600
vt 0.71165950 0.66622600
vt 0.68206790 0.66831990
vt 0.75186650 0.66622600
vt 0.73312260 0.60948100
vt 0.79258940 0.66622610
vt 0.77386780 0.58566390
vt 0.74356050 0.55150320
vt 0.82393350 0.66295450
vt 0.81500440 0.58566400
vt 0.85337620 0.59199990
vt 0.87767300 0.57122820
vt 0.83897890 0.52216760
vt 0.79752830 0.52216760
vt 0.76403960 0.51912500
vt 0.88094640 0.52216770
vt 0.73474480 0.46062860
vt 0.71602170 0.52216780
vt 0.69438230 0.46062880
vt 0.71317330 0.41218720
vt 0.83513550 0.46062870
vt 0.77548360 0.46062870
vt 0.75047860 0.39963580
vt 0.71290530 0.37398050
vt 0.73306130 0.33782820
vt 0.69288280 0.33782820
vt 0.69219580 0.28955470
vt 0.85718420 0.41218720
vt 0.81398170 0.43059410
vt 0.79460870 0.41218720
vt 0.77410190 0.37398050
vt 0.81524470 0.37398060
vt 0.79335890 0.32187220
vt 0.75643910 0.31635160
vt 0.78162260 0.27159990
vt 0.68983280 0.59200010
vt 0.65299530 0.58566400
vt 0.71296790 0.57122830
vt 0.67582260 0.52216780
vt 0.63587020 0.52216770
vt 0.65430890 0.46062860
vt 0.61323360 0.58566380
vt 0.67300550 0.41218720
vt 0.67279890 0.37398060
vt 0.63307510 0.41218730
vt 0.62327160 0.46671130
vt 0.60335480 0.42826610
vt 0.60335060 0.51912490
vt 0.65302460 0.33782820
vt 0.65261250 0.28955480
vt 0.63293860 0.37398060
vt 0.61326040 0.28955480
vt 0.62218400 0.24629020
vt 0.60971900 0.34953650
vt 0.57420720 0.24796120
vt 0.55569720 0.22521750
vt 0.57556150 0.28763280
vt 0.52964680 0.25827880
vt 0.57380270 0.33782820
vt 0.57371430 0.37398060
vt 0.55369420 0.30441500
vt 0.53419660 0.33782820
vt 0.50467700 0.29645370
vt 0.49443230 0.33782820
vt 0.46397310 0.35887930
vt 0.53398280 0.37398070
vt 0.43378770 0.33782820
vt 0.57364460 0.41218720
vt 0.49410020 0.37398070
vt 0.57461660 0.46062880
vt 0.53383800 0.41218720
vt 0.49388550 0.41218730
vt 0.43320050 0.41218720
vt 0.46364590 0.41236510
vt 0.53477900 0.46062880
vt 0.58346320 0.55150320
vt 0.45457610 0.46062880
vt 0.42306950 0.46671140
vt 0.49480040 0.46062890
vt 0.55627310 0.52216760
vt 0.45082910 0.52216760
vt 0.41024190 0.52216770
vt 0.43514890 0.58340810
vt 0.51640530 0.52216770
vt 0.48370930 0.51912490
vt 0.47393240 0.58566390
vt 0.45523610 0.66622610
vt 0.48070640 0.69094100
vt 0.55072260 0.57992370
vt 0.51391890 0.58566400
vt 0.57375430 0.60948110
vt 0.51421370 0.66622610
vt 0.54412620 0.66295450
vt 0.57398910 0.66622620
vt 0.55387330 0.72276210
vt 0.59267780 0.72276220
vt 0.50812020 0.72607530
vt 0.57344030 0.75730490
vt 0.45869700 0.74679790
vt 0.42619850 0.72378910
vt 0.50729690 0.75760350
vt 0.56509920 0.77659440
vt 0.61248200 0.79040060
vt 0.41497150 0.66622610
vt 0.38581540 0.72378910
vt 0.40938240 0.75595490
vt 0.41381870 0.60948110
vt 0.37418250 0.66622610
vt 0.39264710 0.57122830
vt 0.37290940 0.60948110
vt 0.40544980 0.77609520
vt 0.33751690 0.75730490
vt 0.34470940 0.72378900
vt 0.34278070 0.66295450
vt 0.48276470 0.77609520
vt 0.52258870 0.79096530
vt 0.43228350 0.79040060
vt 0.38651310 0.79971080
vt 0.35388430 0.79040050
vt 0.33230510 0.77572080
vt 0.25211610 0.75730490
vt 0.24602860 0.77659440
vt 0.30024900 0.72193870
vt 0.31114030 0.66622610
vt 0.32783000 0.59200010
vt 0.35143880 0.57122820
vt 0.36922210 0.52216770
vt 0.28892890 0.58566390
vt 0.26875460 0.66622600
vt 0.28568260 0.52216770
vt 0.25704210 0.58242910
vt 0.25032340 0.72276210
vt 0.26603730 0.46062870
vt 0.25672000 0.53164740
vt 0.22742080 0.52216760
vt 0.22489620 0.58566390
vt 0.23697910 0.66831980
vt 0.21373770 0.46671150
vt 0.19220470 0.51912470
vt 0.18011170 0.46062880
vt 0.15980860 0.41218720
vt 0.13661800 0.46062870
vt 0.11617180 0.41218720
vt 0.09573293 0.43059400
vt 0.11311220 0.52216760
vt 0.15674850 0.52216770
vt 0.18162350 0.58566390
vt 0.13800280 0.58566390
vt 0.10515930 0.58873610
vt 0.20474330 0.66622610
vt 0.16093860 0.66622600
vt 0.11678860 0.66622610
vt 0.19438540 0.70604580
vt 0.13874700 0.70777970
vt 0.18504320 0.73528270
vt 0.08263874 0.72378900
vt 0.08319336 0.66295460
vt 0.11824180 0.74679780
vt 0.17484160 0.75760350
vt 0.14463170 0.77609520
vt 0.14730070 0.79096530
vt 0.26817990 0.79040060
vt 1.02295500 0.79040060
vt 0.95472030 0.79945550
vt 1.14730100 0.79096530
vt 1.18208500 0.79945550
vt 1.58581800 0.80428980
vt 0.75870260 0.79971080
vt 0.58581800 0.80428980
vt 0.68409200 0.79040060
vt 0.64420800 0.79921950
vt 0.54296090 0.79945550
vt 0.18208460 0.79945550
vt 0.04968667 0.77609510
vt 0.02295506 0.79040060
vt 0.81806620 0.22496640
vt 0.74094480 0.20723410
vt 0.76969640 0.23521490
vt 0.77295110 0.19611640
vt 0.68973130 0.19008670
vt 0.69778080 0.19611650
vt 0.63920400 0.20769770
vt 0.64062270 0.22337810
vt 0.71803200 0.22638990
vt 0.67044530 0.24796120
vt 0.72002780 0.24897210
vt 0.72766130 0.28463620
vt 0.05915105 0.20769770
vt 0.08308595 0.22496640
vt 0.01429355 0.22638990
vt 0.03798056 0.24629020
vt 0.09373724 0.25979390
vt 0.15070930 0.24897210
vt 0.14994340 0.27585150
vt 0.09228063 0.31971760
vt 0.04953778 0.28955480
vt 0.00533450 0.28955480
vt 0.00613439 0.33782820
vt 0.04997718 0.33782820
vt 0.00646079 0.37398060
vt 0.04689050 0.39963560
vt 0.00667155 0.41218730
vt 0.02985233 0.46062870
vt 0.11645130 0.33782820
vt 0.11628840 0.37398050
vt 0.07244635 0.37398060
vt 0.07351458 0.46062870
vt 0.05334473 0.52216760
vt 0.00973004 0.52216770
vt 0.03173244 0.57992380
vt 0.07448483 0.55774120
vt 0.07242149 0.60948100
vt 0.04960448 0.66622610
vt 0.00624299 0.60948110
vt 0.00548595 0.66622590
vt 0.03768164 0.72378900
vt 0.04931098 0.75730490
f 3/3/3 2/2/2 1/1/1
f 3/3/3 1/1/1 4/4/4
f 3/3/3 6/6/6 5/5/5
f 3/3/3 5/5/5 2/2/2
f 5/5/5 6/6/6 7/7/7
f 6/6/6 8/8/8 7/7/7
f 9/9/9 8/8/8 6/6/6
f 7/7/7 8/8/8 10/10/10
f 8/8/8 11/11/11 10/10/10
f 7/7/7 10/10/10 12/12/12
f 10/10/10 13/13/13 12/12/12
f 7/7/7 14/14/14 5/5/5
f 14/14/14 7/7/7 12/12/12
f 5/5/5 14/14/14 15/15/15
f 2/2/2 5/5/5 15/15/15
f 14/14/14 12/12/12 16/16/16
f 15/15/15 14/14/14 16/16/16
f 13/13/13 17/17/17 12/12/12
f 12/12/12 17/17/17 16/16/16
f 17/17/17 13/13/13 18/18/18
f 13/13/13 19/19/19 18/18/18
f 20/20/20 18/18/18 19/19/19
f 20/20/20 19/19/19 21/21/21
f 22/22/22 20/20/20 21/21/21
f 23/23/23 18/18/18 20/20/20
f 23/23/23 17/17/17 18/18/18
f 23/23/23 20/20/20 22/22/22
f 17/17/17 24/24/24 16/16/16
f 24/24/24 17/17/17 23/23/23
f 15/15/15 25/25/25 2/2/2
f 2/2/2 25/25/25 26/26/26
f 27/27/27 2/2/2 26/26/26
f 25/25/25 15/15/15 28/28/28
f 16/16/16 28/28/28 15/15/15
f 29/29/29 28/28/28 16/16/16
f 24/24/24 29/29/29 16/16/16
f 29/29/29 30/30/30 28/28/28
f 30/30/30 29/29/29 31/31/31
f 29/29/29 24/24/24 32/32/32
f 29/29/29 32/32/32 31/31/31
f 33/33/33 24/24/24 23/23/23
f 32/32/32 24/24/24 33/33/33
f 31/31/31 32/32/32 34/34/34
f 35/35/35 31/31/31 34/34/34
f 33/33/33 23/23/23 36/36/36
f 23/23/23 22/22/22 36/36/36
f 36/36/36 22/22/22 37/37/37
f 22/22/22 38/38/38 37/37/37
f 38/38/38 39/39/39 37/37/37
f 33/33/33 40/40/40 32/32/32
f 32/32/32 40/40/40 34/34/34
f 33/33/33 36/36/36 41/41/41
f 37/37/37 41/41/41 36/36/36
f 42/42/42 40/40/40 33/33/33
f 40/40/40 42/42/42 34/34/34
f 41/41/41 42/42/42 33/33/33
f 34/34/34 43/43/43 35/35/35
f 43/43/43 34/34/34 42/42/42
f 42/42/42 41/41/41 44/44/44
f 42/42/42 44/44/44 43/43/43
f 41/41/41 37/37/37 45/45/45
f 44/44/44 41/41/41 45/45/45
f 44/44/44 45/45/45 46/46/46
f 47/47/47 46/46/46 45/45/45
f 45/45/45 37/37/37 47/47/47
f 37/37/37 39/39/39 47/47/47
f 44/44/44 48/48/48 43/43/43
f 43/43/43 49/49/49 35/35/35
f 35/35/35 49/49/49 50/50/50
f 49/49/49 51/51/51 50/50/50
f 51/51/51 49/49/49 52/52/52
f 43/43/43 48/48/48 53/53/53
f 49/49/49 43/43/43 53/53/53
f 49/49/49 53/53/53 52/52/52
f 54/54/54 53/53/53 48/48/48
f 55/55/55 52/52/52 53/53/53
f 55/55/55 53/53/53 54/54/54
f 39/39/39 56/56/56 47/47/47
f 39/39/39 57/57/57 56/56/56
f 58/58/58 47/47/47 56/56/56
f 59/59/59 58/58/58 56/56/56
f 58/58/58 60/60/60 47/47/47
f 58/58/58 61/61/61 60/60/60
f 64/64/64 63/63/63 62/62/62
f 65/65/65 63/63/63 64/64/64
f 66/66/66 63/63/63 65/65/65
f 67/67/67 65/65/65 64/64/64
f 64/64/64 68/68/68 67/67/67
f 64/64/64 69/69/69 68/68/68
f 65/65/65 70/70/70 66/66/66
f 65/65/65 67/67/67 71/71/71
f 70/70/70 65/65/65 71/71/71
f 67/67/67 68/68/68 72/72/72
f 67/67/67 72/72/72 71/71/71
f 70/70/70 73/73/73 66/66/66
f 73/73/73 74/74/74 66/66/66
f 74/74/74 73/73/73 75/75/75
f 76/76/76 75/75/75 73/73/73
f 68/68/68 69/69/69 77/77/77
f 72/72/72 68/68/68 78/78/78
f 68/68/68 77/77/77 78/78/78
f 69/69/69 79/79/79 77/77/77
f 79/79/79 69/69/69 80/80/80
f 80/80/80 81/81/81 79/79/79
f 82/82/82 77/77/77 79/79/79
f 82/82/82 79/79/79 81/81/81
f 82/82/82 83/83/83 77/77/77
f 83/83/83 78/78/78 77/77/77
f 84/84/84 82/82/82 81/81/81
f 83/83/83 82/82/82 84/84/84
f 85/85/85 84/84/84 81/81/81
f 86/86/86 83/83/83 84/84/84
f 83/83/83 87/87/87 78/78/78
f 87/87/87 83/83/83 86/86/86
f 88/88/88 78/78/78 87/87/87
f 72/72/72 78/78/78 88/88/88
f 89/89/89 72/72/72 88/88/88
f 86/86/86 90/90/90 87/87/87
f 72/72/72 89/89/89 71/71/71
f 86/86/86 91/91/91 90/90/90
f 89/89/89 92/92/92 71/71/71
f 93/93/93 91/91/91 86/86/86
f 94/94/94 93/93/93 86/86/86
f 93/93/93 95/95/95 91/91/91
f 94/94/94 96/96/96 93/93/93
f 95/95/95 93/93/93 97/97/97
f 92/92/92 98/98/98 71/71/71
f 98/98/98 92/92/92 99/99/99
f 98/98/98 70/70/70 71/71/71
f 100/100/100 98/98/98 99/99/99
f 98/98/98 100/100/100 70/70/70
f 93/93/93 96/96/96 101/101/101
f 93/93/93 101/101/101 97/97/97
f 102/102/102 101/101/101 96/96/96
f 1/1/1 97/97/97 101/101/101
f 101/101/101 102/102/102 4/4/4
f 4/4/4 1/1/1 101/101/101
f 100/100/100 103/103/103 70/70/70
f 104/104/104 103/103/103 100/100/100
f 103/103/103 104/104/104 105/105/105
f 103/103/103 73/73/73 70/70/70
f 103/103/103 105/105/105 106/106/106
f 107/107/107 73/73/73 103/103/103
f 107/107/107 103/103/103 106/106/106
f 107/107/107 76/76/76 73/73/73
f 76/76/76 107/107/107 108/108/108
f 109/109/109 76/76/76 108/108/108
f 108/108/108 107/107/107 110/110/110
f 107/107/107 106/106/106 110/110/110
f 111/111/111 108/108/108 110/110/110
f 110/110/110 106/106/106 112/112/112
f 110/110/110 112/112/112 111/111/111
f 106/106/106 113/113/113 112/112/112
f 112/112/112 114/114/114 111/111/111
f 115/115/115 111/111/111 114/114/114
f 116/116/116 115/115/115 114/114/114
f 115/115/115 117/117/117 111/111/111
f 118/118/118 117/117/117 115/115/115
f 118/118/118 119/119/119 117/117/117
f 119/119/119 120/120/120 117/117/117
f 122/122/122 120/120/120 121/121/121
f 120/120/120 122/122/122 123/123/123
f 122/122/122 124/124/124 123/123/123
f 122/122/122 125/125/125 124/124/124
f 126/126/126 120/120/120 123/123/123
f 120/120/120 126/126/126 117/117/117
f 126/126/126 127/127/127 117/117/117
f 126/126/126 128/128/128 127/127/127
f 127/127/127 111/111/111 117/117/117
f 108/108/108 111/111/111 127/127/127
f 129/129/129 108/108/108 127/127/127
f 128/128/128 129/129/129 127/127/127
f 109/109/109 108/108/108 129/129/129
f 109/109/109 129/129/129 130/130/130
f 130/130/130 129/129/129 128/128/128
f 76/76/76 109/109/109 130/130/130
f 76/76/76 130/130/130 75/75/75
f 123/123/123 131/131/131 126/126/126
f 131/131/131 128/128/128 126/126/126
f 75/75/75 130/130/130 132/132/132
f 130/130/130 128/128/128 132/132/132
f 131/131/131 123/123/123 133/133/133
f 123/123/123 124/124/124 133/133/133
f 133/133/133 124/124/124 134/134/134
f 134/134/134 124/124/124 135/135/135
f 136/136/136 134/134/134 135/135/135
f 137/137/137 134/134/134 136/136/136
f 137/137/137 133/133/133 134/134/134
f 137/137/137 136/136/136 138/138/138
f 136/136/136 139/139/139 138/138/138
f 133/133/133 137/137/137 140/140/140
f 140/140/140 137/137/137 141/141/141
f 142/142/142 133/133/133 140/140/140
f 133/133/133 142/142/142 131/131/131
f 142/142/142 140/140/140 143/143/143
f 131/131/131 144/144/144 128/128/128
f 142/142/142 144/144/144 131/131/131
f 142/142/142 143/143/143 145/145/145
f 144/144/144 142/142/142 145/145/145
f 146/146/146 145/145/145 143/143/143
f 144/144/144 147/147/147 128/128/128
f 128/128/128 147/147/147 132/132/132
f 147/147/147 144/144/144 148/148/148
f 144/144/144 145/145/145 148/148/148
f 149/149/149 132/132/132 147/147/147
f 148/148/148 149/149/149 147/147/147
f 149/149/149 75/75/75 132/132/132
f 150/150/150 75/75/75 149/149/149
f 74/74/74 75/75/75 150/150/150
f 149/149/149 148/148/148 151/151/151
f 149/149/149 151/151/151 150/150/150
f 148/148/148 145/145/145 152/152/152
f 151/151/151 148/148/148 152/152/152
f 145/145/145 146/146/146 153/153/153
f 152/152/152 145/145/145 153/153/153
f 74/74/74 150/150/150 154/154/154
f 151/151/151 154/154/154 150/150/150
f 63/63/63 74/74/74 154/154/154
f 63/63/63 66/66/66 74/74/74
f 63/63/63 154/154/154 62/62/62
f 62/62/62 154/154/154 151/151/151
f 155/155/155 153/153/153 146/146/146
f 155/155/155 146/146/146 156/156/156
f 156/156/156 157/157/157 155/155/155
f 157/157/157 158/158/158 155/155/155
f 62/62/62 151/151/151 159/159/159
f 159/159/159 151/151/151 152/152/152
f 160/160/160 152/152/152 153/153/153
f 153/153/153 155/155/155 160/160/160
f 158/158/158 161/161/161 155/155/155
f 155/155/155 161/161/161 160/160/160
f 158/158/158 162/162/162 161/161/161
f 163/163/163 161/161/161 162/162/162
f 164/164/164 163/163/163 162/162/162
f 163/163/163 164/164/164 165/165/165
f 166/166/166 62/62/62 159/159/159
f 166/166/166 64/64/64 62/62/62
f 166/166/166 69/69/69 64/64/64
f 166/166/166 80/80/80 69/69/69
f 159/159/159 152/152/152 167/167/167
f 152/152/152 160/160/160 167/167/167
f 167/167/167 166/166/166 159/159/159
f 161/161/161 168/168/168 160/160/160
f 160/160/160 168/168/168 167/167/167
f 168/168/168 161/161/161 169/169/169
f 166/166/166 167/167/167 170/170/170
f 167/167/167 168/168/168 170/170/170
f 80/80/80 166/166/166 170/170/170
f 169/169/169 170/170/170 168/168/168
f 171/171/171 80/80/80 170/170/170
f 169/169/169 171/171/171 170/170/170
f 172/172/172 171/171/171 169/169/169
f 80/80/80 171/171/171 81/81/81
f 173/173/173 171/171/171 172/172/172
f 173/173/173 81/81/81 171/171/171
f 81/81/81 173/173/173 85/85/85
f 137/137/137 138/138/138 141/141/141
f 174/174/174 141/141/141 138/138/138
f 140/140/140 141/141/141 174/174/174
f 140/140/140 174/174/174 143/143/143
f 175/175/175 174/174/174 138/138/138
f 175/175/175 138/138/138 139/139/139
f 176/176/176 143/143/143 174/174/174
f 146/146/146 143/143/143 176/176/176
f 146/146/146 176/176/176 156/156/156
f 174/174/174 177/177/177 176/176/176
f 177/177/177 156/156/156 176/176/176
f 174/174/174 175/175/175 177/177/177
f 157/157/157 156/156/156 177/177/177
f 177/177/177 175/175/175 178/178/178
f 177/177/177 179/179/179 157/157/157
f 179/179/179 177/177/177 178/178/178
f 180/180/180 175/175/175 139/139/139
f 175/175/175 180/180/180 178/178/178
f 179/179/179 181/181/181 157/157/157
f 181/181/181 158/158/158 157/157/157
f 162/162/162 158/158/158 181/181/181
f 182/182/182 162/162/162 181/181/181
f 164/164/164 162/162/162 182/182/182
f 183/183/183 181/181/181 179/179/179
f 182/182/182 181/181/181 183/183/183
f 178/178/178 184/184/184 179/179/179
f 184/184/184 183/183/183 179/179/179
f 183/183/183 184/184/184 185/185/185
f 184/184/184 178/178/178 186/186/186
f 178/178/178 180/180/180 186/186/186
f 184/184/184 186/186/186 185/185/185
f 187/187/187 164/164/164 182/182/182
f 164/164/164 187/187/187 188/188/188
f 189/189/189 182/182/182 183/183/183
f 189/189/189 183/183/183 185/185/185
f 187/187/187 182/182/182 189/189/189
f 188/188/188 187/187/187 190/190/190
f 190/190/190 191/191/191 188/188/188
f 192/192/192 187/187/187 189/189/189
f 192/192/192 189/189/189 185/185/185
f 187/187/187 192/192/192 190/190/190
f 191/191/191 190/190/190 193/193/193
f 191/191/191 193/193/193 194/194/194
f 190/190/190 195/195/195 193/193/193
f 190/190/190 192/192/192 195/195/195
f 196/196/196 194/194/194 193/193/193
f 196/196/196 193/193/193 195/195/195
f 192/192/192 197/197/197 195/195/195
f 192/192/192 185/185/185 198/198/198
f 198/198/198 197/197/197 192/192/192
f 197/197/197 199/199/199 195/195/195
f 196/196/196 195/195/195 199/199/199
f 200/200/200 199/199/199 197/197/197
f 197/197/197 198/198/198 200/200/200
f 196/196/196 199/199/199 201/201/201
f 200/200/200 201/201/201 199/199/199
f 13/13/13 194/194/194 196/196/196
f 194/194/194 13/13/13 10/10/10
f 11/11/11 194/194/194 10/10/10
f 13/13/13 196/196/196 19/19/19
f 201/201/201 19/19/19 196/196/196
f 21/21/21 19/19/19 201/201/201
f 202/202/202 201/201/201 200/200/200
f 201/201/201 202/202/202 21/21/21
f 202/202/202 203/203/203 21/21/21
f 198/198/198 204/204/204 200/200/200
f 200/200/200 204/204/204 202/202/202
f 203/203/203 205/205/205 21/21/21
f 22/22/22 21/21/21 205/205/205
f 205/205/205 38/38/38 22/22/22
f 39/39/39 38/38/38 205/205/205
f 57/57/57 39/39/39 205/205/205
f 205/205/205 203/203/203 57/57/57
f 198/198/198 206/206/206 204/204/204
f 185/185/185 206/206/206 198/198/198
f 204/204/204 207/207/207 202/202/202
f 203/203/203 202/202/202 207/207/207
f 208/208/208 206/206/206 185/185/185
f 186/186/186 208/208/208 185/185/185
f 206/206/206 209/209/209 204/204/204
f 204/204/204 209/209/209 207/207/207
f 206/206/206 208/208/208 209/209/209
f 209/209/209 210/210/210 207/207/207
f 207/207/207 210/210/210 203/203/203
f 57/57/57 203/203/203 211/211/211
f 57/57/57 211/211/211 56/56/56
f 203/203/203 212/212/212 211/211/211
f 210/210/210 212/212/212 203/203/203
f 209/209/209 213/213/213 210/210/210
f 208/208/208 213/213/213 209/209/209
f 208/208/208 186/186/186 214/214/214
f 180/180/180 214/214/214 186/186/186
f 211/211/211 212/212/212 215/215/215
f 216/216/216 211/211/211 215/215/215
f 210/210/210 217/217/217 212/212/212
f 213/213/213 217/217/217 210/210/210
f 217/217/217 215/215/215 212/212/212
f 218/218/218 213/213/213 208/208/208
f 208/208/208 214/214/214 218/218/218
f 219/219/219 216/216/216 215/215/215
f 216/216/216 219/219/219 220/220/220
f 221/221/221 220/220/220 219/219/219
f 222/222/222 217/217/217 213/213/213
f 213/213/213 218/218/218 222/222/222
f 223/223/223 215/215/215 217/217/217
f 215/215/215 223/223/223 219/219/219
f 217/217/217 222/222/222 223/223/223
f 224/224/224 221/221/221 219/219/219
f 224/224/224 219/219/219 223/223/223
f 224/224/224 225/225/225 221/221/221
f 226/226/226 225/225/225 224/224/224
f 214/214/214 227/227/227 218/218/218
f 222/222/222 218/218/218 227/227/227
f 223/223/223 222/222/222 228/228/228
f 224/224/224 223/223/223 228/228/228
f 228/228/228 222/222/222 227/227/227
f 214/214/214 229/229/229 227/227/227
f 214/214/214 180/180/180 229/229/229
f 224/224/224 228/228/228 230/230/230
f 226/226/226 224/224/224 230/230/230
f 228/228/228 227/227/227 231/231/231
f 227/227/227 229/229/229 231/231/231
f 230/230/230 228/228/228 231/231/231
f 229/229/229 180/180/180 232/232/232
f 229/229/229 232/232/232 231/231/231
f 180/180/180 139/139/139 232/232/232
f 230/230/230 231/231/231 233/233/233
f 233/233/233 231/231/231 232/232/232
f 234/234/234 232/232/232 139/139/139
f 234/234/234 233/233/233 232/232/232
f 136/136/136 234/234/234 139/139/139
f 234/234/234 136/136/136 135/135/135
f 230/230/230 235/235/235 226/226/226
f 235/235/235 230/230/230 233/233/233
f 234/234/234 236/236/236 233/233/233
f 236/236/236 234/234/234 135/135/135
f 235/235/235 233/233/233 236/236/236
f 226/226/226 235/235/235 237/237/237
f 226/226/226 237/237/237 238/238/238
f 239/239/239 237/237/237 235/235/235
f 239/239/239 235/235/235 236/236/236
f 236/236/236 240/240/240 239/239/239
f 236/236/236 135/135/135 125/125/125
f 240/240/240 236/236/236 125/125/125
f 135/135/135 124/124/124 125/125/125
f 241/241/241 240/240/240 125/125/125
f 226/226/226 238/238/238 225/225/225
f 238/238/238 242/242/242 225/225/225
f 221/221/221 225/225/225 242/242/242
f 238/238/238 243/243/243 242/242/242
f 244/244/244 243/243/243 238/238/238
f 244/244/244 238/238/238 237/237/237
f 245/245/245 221/221/221 242/242/242
f 243/243/243 246/246/246 242/242/242
f 245/245/245 242/242/242 246/246/246
f 221/221/221 245/245/245 247/247/247
f 221/221/221 247/247/247 220/220/220
f 248/248/248 245/245/245 246/246/246
f 247/247/247 245/245/245 248/248/248
f 249/249/249 244/244/244 237/237/237
f 244/244/244 250/250/250 243/243/243
f 244/244/244 249/249/249 250/250/250
f 243/243/243 251/251/251 246/246/246
f 250/250/250 251/251/251 243/243/243
f 248/248/248 246/246/246 252/252/252
f 251/251/251 252/252/252 246/246/246
f 253/253/253 249/249/249 237/237/237
f 237/237/237 239/239/239 253/253/253
f 239/239/239 240/240/240 253/253/253
f 253/253/253 240/240/240 254/254/254
f 241/241/241 254/254/254 240/240/240
f 254/254/254 255/255/255 253/253/253
f 249/249/249 253/253/253 255/255/255
f 256/256/256 255/255/255 254/254/254
f 257/257/257 255/255/255 256/256/256
f 255/255/255 257/257/257 249/249/249
f 258/258/258 249/249/249 257/257/257
f 250/250/250 249/249/249 258/258/258
f 259/259/259 250/250/250 258/258/258
f 260/260/260 259/259/259 258/258/258
f 250/250/250 261/261/261 251/251/251
f 250/250/250 259/259/259 261/261/261
f 261/261/261 262/262/262 251/251/251
f 262/262/262 252/252/252 251/251/251
f 252/252/252 262/262/262 263/263/263
f 263/263/263 248/248/248 252/252/252
f 264/264/264 248/248/248 263/263/263
f 247/247/247 248/248/248 264/264/264
f 247/247/247 264/264/264 265/265/265
f 247/247/247 265/265/265 220/220/220
f 264/264/264 263/263/263 61/61/61
f 264/264/264 61/61/61 265/265/265
f 262/262/262 266/266/266 263/263/263
f 61/61/61 263/263/263 266/266/266
f 58/58/58 265/265/265 61/61/61
f 59/59/59 265/265/265 58/58/58
f 59/59/59 220/220/220 265/265/265
f 216/216/216 220/220/220 59/59/59
f 216/216/216 59/59/59 211/211/211
f 59/59/59 56/56/56 211/211/211
f 262/262/262 267/267/267 266/266/266
f 262/262/262 261/261/261 267/267/267
f 268/268/268 61/61/61 266/266/266
f 60/60/60 61/61/61 268/268/268
f 267/267/267 269/269/269 266/266/266
f 268/268/268 266/266/266 269/269/269
f 261/261/261 270/270/270 267/267/267
f 259/259/259 270/270/270 261/261/261
f 60/60/60 268/268/268 271/271/271
f 272/272/272 268/268/268 269/269/269
f 271/271/271 268/268/268 272/272/272
f 273/273/273 272/272/272 269/269/269
f 271/271/271 272/272/272 273/273/273
f 274/274/274 269/269/269 267/267/267
f 274/274/274 273/273/273 269/269/269
f 267/267/267 270/270/270 275/275/275
f 275/275/275 274/274/274 267/267/267
f 60/60/60 271/271/271 46/46/46
f 60/60/60 46/46/46 47/47/47
f 271/271/271 48/48/48 46/46/46
f 46/46/46 48/48/48 44/44/44
f 48/48/48 271/271/271 54/54/54
f 271/271/271 273/273/273 54/54/54
f 273/273/273 276/276/276 54/54/54
f 276/276/276 55/55/55 54/54/54
f 276/276/276 273/273/273 277/277/277
f 277/277/277 273/273/273 274/274/274
f 55/55/55 276/276/276 278/278/278
f 276/276/276 277/277/277 278/278/278
f 279/279/279 55/55/55 278/278/278
f 279/279/279 52/52/52 55/55/55
f 279/279/279 51/51/51 52/52/52
f 279/279/279 278/278/278 280/280/280
f 281/281/281 279/279/279 280/280/280
f 281/281/281 280/280/280 282/282/282
f 280/280/280 283/283/283 282/282/282
f 278/278/278 284/284/284 280/280/280
f 278/278/278 277/277/277 284/284/284
f 280/280/280 284/284/284 283/283/283
f 285/285/285 277/277/277 274/274/274
f 285/285/285 284/284/284 277/277/277
f 286/286/286 283/283/283 284/284/284
f 285/285/285 286/286/286 284/284/284
f 286/286/286 287/287/287 283/283/283
f 274/274/274 288/288/288 285/285/285
f 275/275/275 288/288/288 274/274/274
f 285/285/285 289/289/289 286/286/286
f 288/288/288 289/289/289 285/285/285
f 289/289/289 290/290/290 286/286/286
f 288/288/288 275/275/275 291/291/291
f 291/291/291 289/289/289 288/288/288
f 275/275/275 270/270/270 291/291/291
f 292/292/292 290/290/290 289/289/289
f 291/291/291 292/292/292 289/289/289
f 291/291/291 270/270/270 293/293/293
f 291/291/291 293/293/293 292/292/292
f 259/259/259 293/293/293 270/270/270
f 292/292/292 294/294/294 290/290/290
f 294/294/294 295/295/295 290/290/290
f 292/292/292 296/296/296 294/294/294
f 292/292/292 293/293/293 296/296/296
f 297/297/297 296/296/296 293/293/293
f 259/259/259 297/297/297 293/293/293
f 259/259/259 260/260/260 297/297/297
f 297/297/297 260/260/260 298/298/298
f 298/298/298 260/260/260 299/299/299
f 300/300/300 299/299/299 260/260/260
f 115/115/115 116/116/116 301/301/301
f 301/301/301 118/118/118 115/115/115
f 118/118/118 301/301/301 302/302/302
f 302/302/302 301/301/301 303/303/303
f 304/304/304 302/302/302 303/303/303
f 305/305/305 302/302/302 304/304/304
f 302/302/302 306/306/306 118/118/118
f 306/306/306 119/119/119 118/118/118
f 307/307/307 306/306/306 302/302/302
f 121/121/121 119/119/119 306/306/306
f 119/119/119 121/121/121 120/120/120
f 308/308/308 121/121/121 306/306/306
f 121/121/121 308/308/308 122/122/122
f 308/308/308 125/125/125 122/122/122
f 308/308/308 241/241/241 125/125/125
f 308/308/308 306/306/306 309/309/309
f 241/241/241 308/308/308 309/309/309
f 307/307/307 309/309/309 306/306/306
f 241/241/241 309/309/309 310/310/310
f 307/307/307 310/310/310 309/309/309
f 254/254/254 241/241/241 310/310/310
f 310/310/310 256/256/256 254/254/254
f 307/307/307 256/256/256 310/310/310
f 307/307/307 311/311/311 256/256/256
f 300/300/300 256/256/256 311/311/311
f 300/300/300 257/257/257 256/256/256
f 258/258/258 257/257/257 300/300/300
f 260/260/260 258/258/258 300/300/300
f 299/299/299 300/300/300 311/311/311
f 299/299/299 313/313/313 312/312/312
f 312/312/312 298/298/298 299/299/299
f 298/298/298 312/312/312 296/296/296
f 296/296/296 297/297/297 298/298/298
f 84/84/84 94/94/94 86/86/86
f 84/84/84 85/85/85 94/94/94
f 85/85/85 314/314/314 94/94/94
f 94/94/94 314/314/314 96/96/96
f 314/314/314 315/315/315 96/96/96
f 316/316/316 314/314/314 85/85/85
f 316/316/316 315/315/315 314/314/314
f 316/316/316 85/85/85 173/173/173
f 96/96/96 315/315/315 317/317/317
f 317/317/317 102/102/102 96/96/96
f 102/102/102 317/317/317 4/4/4
f 317/317/317 318/318/318 4/4/4
f 3/3/3 4/4/4 318/318/318
f 3/3/3 318/318/318 6/6/6
f 9/9/9 6/6/6 318/318/318
f 317/317/317 319/319/319 318/318/318
f 319/319/319 317/317/317 315/315/315
f 319/319/319 9/9/9 318/318/318
f 9/9/9 319/319/319 320/320/320
f 315/315/315 320/320/320 319/319/319
f 9/9/9 320/320/320 11/11/11
f 8/8/8 9/9/9 11/11/11
f 320/320/320 321/321/321 11/11/11
f 320/320/320 315/315/315 321/321/321
f 321/321/321 194/194/194 11/11/11
f 321/321/321 191/191/191 194/194/194
f 315/315/315 322/322/322 321/321/321
f 322/322/322 315/315/315 316/316/316
f 321/321/321 323/323/323 191/191/191
f 323/323/323 321/321/321 322/322/322
f 188/188/188 191/191/191 323/323/323
f 324/324/324 322/322/322 316/316/316
f 324/324/324 323/323/323 322/322/322
f 316/316/316 173/173/173 324/324/324
f 188/188/188 323/323/323 165/165/165
f 165/165/165 323/323/323 324/324/324
f 165/165/165 164/164/164 188/188/188
f 173/173/173 325/325/325 324/324/324
f 165/165/165 324/324/324 325/325/325
f 325/325/325 173/173/173 172/172/172
f 325/325/325 163/163/163 165/165/165
f 163/163/163 325/325/325 172/172/172
f 172/172/172 169/169/169 163/163/163
f 169/169/169 161/161/161 163/163/163
f 26/26/26 25/25/25 28/28/28
f 28/28/28 326/326/326 26/26/26
f 326/326/326 28/28/28 327/327/327
f 328/328/328 326/326/326 327/327/327
f 28/28/28 30/30/30 327/327/327
f 328/328/328 327/327/327 329/329/329
f 330/330/330 327/327/327 30/30/30
f 327/327/327 330/330/330 329/329/329
f 331/331/331 330/330/330 30/30/30
f 331/331/331 30/30/30 31/31/31
f 31/31/31 35/35/35 331/331/331
f 35/35/35 332/332/332 331/331/331
f 332/332/332 330/330/330 331/331/331
f 333/333/333 330/330/330 332/332/332
f 50/50/50 332/332/332 35/35/35
f 50/50/50 333/333/333 332/332/332
f 334/334/334 329/329/329 330/330/330
f 330/330/330 333/333/333 334/334/334
f 334/334/334 335/335/335 329/329/329
f 335/335/335 334/334/334 336/336/336
f 334/334/334 337/337/337 336/336/336
f 337/337/337 334/334/334 333/333/333
f 338/338/338 336/336/336 337/337/337
f 339/339/339 338/338/338 337/337/337
f 340/340/340 338/338/338 339/339/339
f 340/340/340 339/339/339 341/341/341
f 342/342/342 333/333/333 50/50/50
f 342/342/342 50/50/50 51/51/51
f 343/343/343 342/342/342 51/51/51
f 342/342/342 343/343/343 333/333/333
f 51/51/51 279/279/279 343/343/343
f 279/279/279 281/281/281 343/343/343
f 337/337/337 333/333/333 344/344/344
f 343/343/343 344/344/344 333/333/333
f 343/343/343 281/281/281 344/344/344
f 339/339/339 337/337/337 344/344/344
f 281/281/281 282/282/282 344/344/344
f 282/282/282 339/339/339 344/344/344
f 339/339/339 282/282/282 345/345/345
f 341/341/341 339/339/339 345/345/345
f 283/283/283 345/345/345 282/282/282
f 346/346/346 341/341/341 345/345/345
f 341/341/341 346/346/346 347/347/347
f 346/346/346 348/348/348 347/347/347
f 345/345/345 283/283/283 349/349/349
f 345/345/345 349/349/349 346/346/346
f 349/349/349 348/348/348 346/346/346
f 287/287/287 349/349/349 283/283/283
f 349/349/349 350/350/350 348/348/348
f 349/349/349 287/287/287 350/350/350
f 351/351/351 348/348/348 350/350/350
f 352/352/352 348/348/348 351/351/351
f 353/353/353 352/352/352 351/351/351
f 350/350/350 287/287/287 295/295/295
f 295/295/295 351/351/351 350/350/350
f 287/287/287 290/290/290 295/295/295
f 286/286/286 290/290/290 287/287/287
f 351/351/351 295/295/295 294/294/294
f 354/354/354 351/351/351 294/294/294
f 355/355/355 354/354/354 294/294/294
f 355/355/355 294/294/294 296/296/296
f 312/312/312 355/355/355 296/296/296

