mtllib FP227:Cylinder_178(1)_a3d330de.mtl
g FP227:Cylinder.178_(1)_a3d330de
v 1.03119 -0.14726 2.62186
v 1.06631 -0.14726 2.60731
v 1.06631 0.05069 2.60738
v 1.104 0.05069 2.60242
v 1.104 -0.14726 2.60235
v 1.07405 0.22343 2.63631
v 1.1417 0.05069 2.60738
v 1.1417 -0.14726 2.60731
v 1.104 0.22343 2.63236
v 1.06124 0.29605 2.58854
v 1.104 0.29605 2.58291
v 1.17682 0.05069 2.62193
v 1.17682 -0.14726 2.62186
v 1.13396 0.22343 2.63631
v 1.16188 0.22343 2.64787
v 1.14677 0.29605 2.58854
v 1.104 0.31503 2.58292
v 1.18662 0.29605 2.60505
v 1.14677 0.31503 2.58855
v 1.18662 0.31503 2.60506
v 1.03119 -0.14726 2.62186
v 1.06631 0.05069 2.60738
v 1.03119 0.05069 2.62193
v 1.04613 0.22343 2.64787
v 1.07405 0.22343 2.63631
v 1.02139 0.29605 2.60505
v 1.06124 0.29605 2.58854
v 1.02139 0.31503 2.60506
v 1.06124 0.31503 2.58855
v 1.104 0.29605 2.58291
v 1.104 0.31503 2.58292
v 1.00102 -0.14727 2.64501
v 1.03119 -0.14726 2.62186
v 1.03119 0.05069 2.62193
v 1.00102 0.05068 2.64507
v 0.97788 -0.14728 2.67517
v 1.02216 0.22342 2.66627
v 1.04613 0.22343 2.64787
v 0.97788 0.05067 2.67524
v 0.96333 -0.14729 2.71029
v 0.98717 0.29604 2.63131
v 1.02139 0.29605 2.60505
v 1.00376 0.22341 2.69024
v 0.96333 0.05066 2.71036
v 0.95837 -0.14731 2.74799
v 0.95837 0.05064 2.74806
v 0.9922 0.2234 2.71816
v 0.98825 0.22339 2.74811
v 0.94441 0.29601 2.70538
v 0.96092 0.29602 2.66553
v 0.98717 0.31502 2.63131
v 1.02139 0.31503 2.60506
v 0.96092 0.31501 2.66553
v 0.94441 0.31499 2.70538
v 0.93878 0.31498 2.74815
v 0.93878 0.296 2.74814
v 1.24468 -0.14729 2.71029
v 1.24964 -0.14731 2.74799
v 1.24964 0.05064 2.74806
v 1.24468 0.05066 2.71036
v 1.23013 -0.14728 2.67517
v 1.23013 0.05067 2.67524
v 1.20699 -0.14727 2.64501
v 1.20699 0.05068 2.64507
v 1.17682 -0.14726 2.62186
v 1.17682 0.05069 2.62193
v 1.16188 0.22343 2.64787
v 1.18585 0.22342 2.66627
v 1.18662 0.29605 2.60505
v 1.20425 0.22341 2.69024
v 1.22084 0.29604 2.63131
v 1.18662 0.31503 2.60506
v 1.22084 0.31502 2.63131
v 1.24709 0.29602 2.66553
v 1.24709 0.31501 2.66553
v 1.21581 0.2234 2.71816
v 1.2636 0.29601 2.70538
v 1.2636 0.31499 2.70538
v 1.21976 0.22339 2.74811
v 1.24468 0.05063 2.78575
v 1.26923 0.296 2.74814
v 1.26923 0.31498 2.74815
v 1.24964 -0.14731 2.74799
v 1.24468 0.05063 2.78575
v 1.24964 0.05064 2.74806
v 1.24468 -0.14732 2.78568
v 1.23013 0.05062 2.82087
v 1.23013 -0.14733 2.82081
v 1.21581 0.22338 2.77807
v 1.21976 0.22339 2.74811
v 1.26923 0.296 2.74814
v 1.20699 0.05061 2.85104
v 1.20699 -0.14734 2.85097
v 1.20425 0.22337 2.80599
v 1.2636 0.29598 2.7909
v 1.26923 0.31498 2.74815
v 1.2636 0.31496 2.79091
v 1.24709 0.29597 2.83075
v 1.24709 0.31495 2.83076
v 1.17682 0.0506 2.87418
v 1.17682 -0.14735 2.87411
v 1.18585 0.22337 2.82996
v 1.16188 0.22336 2.84836
v 1.22084 0.29596 2.86497
v 1.22084 0.31494 2.86498
v 1.18662 0.29595 2.89123
v 1.18662 0.31493 2.89124
v 1.104 -0.14736 2.89362
v 1.06631 -0.14736 2.88866
v 1.06631 0.05059 2.88873
v 1.104 0.05059 2.89369
v 1.1417 -0.14736 2.88866
v 1.104 0.22335 2.86387
v 1.07405 0.22335 2.85992
v 1.104 0.29594 2.91337
v 1.1417 0.05059 2.88873
v 1.17682 -0.14735 2.87411
v 1.17682 0.0506 2.87418
v 1.16188 0.22336 2.84836
v 1.13396 0.22335 2.85992
v 1.18662 0.29595 2.89123
v 1.14677 0.29594 2.90774
v 1.18662 0.31493 2.89124
v 1.14677 0.31492 2.90774
v 1.104 0.31492 2.91337
v 1.06631 -0.14736 2.88866
v 1.03119 -0.14735 2.87411
v 1.03119 0.0506 2.87418
v 1.06631 0.05059 2.88873
v 1.07405 0.22335 2.85992
v 1.04613 0.22336 2.84836
v 1.06124 0.29594 2.90774
v 1.104 0.29594 2.91337
v 1.104 0.31492 2.91337
v 1.02139 0.29595 2.89123
v 1.06124 0.31492 2.90774
v 1.02139 0.31493 2.89124
v 0.96333 -0.14732 2.78568
v 0.95837 -0.14731 2.74799
v 0.95837 0.05064 2.74806
v 0.96333 0.05063 2.78575
v 0.97788 -0.14733 2.82081
v 0.97788 0.05062 2.82087
v 1.00102 -0.14734 2.85097
v 1.00102 0.05061 2.85104
v 1.03119 -0.14735 2.87411
v 1.03119 0.0506 2.87418
v 1.04613 0.22336 2.84836
v 1.02216 0.22337 2.82996
v 1.02139 0.29595 2.89123
v 1.00376 0.22337 2.80599
v 0.98717 0.29596 2.86497
v 1.02139 0.31493 2.89124
v 0.98717 0.31494 2.86498
v 0.96092 0.29597 2.83075
v 0.96092 0.31495 2.83076
v 0.9922 0.22338 2.77807
v 0.94441 0.29598 2.7909
v 0.94441 0.31496 2.79091
v 0.98825 0.22339 2.74811
v 0.96333 0.05066 2.71036
v 0.93878 0.296 2.74814
v 0.93878 0.31498 2.74815
v 0.9922 0.2234 2.71816
v 0.94441 0.29601 2.70538
v 1.2636 0.31499 2.70538
v 1.26923 0.31498 2.74815
v 1.2636 0.31496 2.79091
v 1.24709 0.31495 2.83076
v 1.24709 0.31501 2.66553
v 1.22084 0.31502 2.63131
v 1.22084 0.31494 2.86498
v 1.18662 0.31493 2.89124
v 1.18662 0.31503 2.60506
v 1.14677 0.31492 2.90774
v 1.14677 0.31503 2.58855
v 1.104 0.31492 2.91337
v 1.104 0.31503 2.58292
v 1.06124 0.31492 2.90774
v 1.06124 0.31503 2.58855
v 1.02139 0.31493 2.89124
v 1.02139 0.31503 2.60506
v 0.98717 0.31494 2.86498
v 0.98717 0.31502 2.63131
v 0.96092 0.31495 2.83076
v 0.96092 0.31501 2.66553
v 0.94441 0.31496 2.79091
v 0.94441 0.31499 2.70538
v 0.93878 0.31498 2.74815
v 1.17682 -0.14726 2.62186
v 1.20248 -0.1536 2.64951
v 1.20699 -0.14727 2.64501
v 1.17364 -0.15359 2.62738
v 1.1417 -0.14726 2.60731
v 1.14005 -0.15358 2.61347
v 1.104 -0.14726 2.60235
v 1.104 -0.15358 2.60872
v 1.06631 -0.14726 2.60731
v 1.06796 -0.15358 2.61347
v 1.03119 -0.14726 2.62186
v 1.03437 -0.15359 2.62738
v 1.00102 -0.14727 2.64501
v 1.00553 -0.1536 2.64951
v 1.17364 -0.15367 2.86859
v 1.14005 -0.15368 2.8825
v 1.104 -0.15368 2.88725
v 1.06796 -0.15368 2.8825
v 1.03437 -0.15367 2.86859
v 1.00553 -0.15366 2.84646
v 0.9834 -0.15365 2.81762
v 0.9834 -0.15361 2.67835
v 0.96949 -0.15364 2.78403
v 0.96949 -0.15362 2.71194
v 0.96474 -0.15363 2.74798
v 1.03119 -0.14735 2.87411
v 1.00102 -0.14734 2.85097
v 1.06631 -0.14736 2.88866
v 1.104 -0.14736 2.89362
v 1.1417 -0.14736 2.88866
v 1.17682 -0.14735 2.87411
v 1.20699 -0.14734 2.85097
v 1.20248 -0.15366 2.84646
v 1.22461 -0.15361 2.67835
v 1.22461 -0.15365 2.81762
v 1.23852 -0.15362 2.71194
v 1.23852 -0.15364 2.78403
v 1.24327 -0.15363 2.74798
v 1.20699 -0.14727 2.64501
v 1.20248 -0.1536 2.64951
v 1.22461 -0.15361 2.67835
v 1.23013 -0.14728 2.67517
v 1.23852 -0.15362 2.71194
v 1.24468 -0.14729 2.71029
v 1.24327 -0.15363 2.74798
v 1.24964 -0.14731 2.74799
v 1.23852 -0.15364 2.78403
v 1.24468 -0.14732 2.78568
v 1.22461 -0.15365 2.81762
v 1.23013 -0.14733 2.82081
v 1.20248 -0.15366 2.84646
v 1.20699 -0.14734 2.85097
v 1.00102 -0.14734 2.85097
v 1.00553 -0.15366 2.84646
v 0.9834 -0.15365 2.81762
v 0.97788 -0.14733 2.82081
v 0.96949 -0.15364 2.78403
v 0.96333 -0.14732 2.78568
v 0.96474 -0.15363 2.74798
v 0.95837 -0.14731 2.74799
v 0.96949 -0.15362 2.71194
v 0.96333 -0.14729 2.71029
v 0.9834 -0.15361 2.67835
v 0.97788 -0.14728 2.67517
v 1.00553 -0.1536 2.64951
v 1.00102 -0.14727 2.64501
vn 0.8154539 -0.1124498 2.24823
vn 0.9546401 -0.1124298 2.190576
vn 0.955 -0.05106921 2.19194
vn 1.104 -0.05106245 2.172324
vn 1.103994 -0.1124232 2.170913
vn 0.9552177 -0.1482002 2.192692
vn 1.253 -0.05106923 2.19194
vn 1.25336 -0.1124301 2.190576
vn 1.103997 -0.1481934 2.173105
vn 0.9714907 -0.3616886 2.253377
vn 1.104003 -0.3616826 2.235932
vn 1.391846 -0.0510891 2.249452
vn 1.392541 -0.1124498 2.248227
vn 1.252796 -0.1482001 2.192696
vn 1.391435 -0.14822 2.250123
vn 1.236509 -0.3616887 2.253377
vn 1.104009 0.4822485 2.73716
vn 1.35999 -0.3617064 2.304525
vn 1.106866 0.4822483 2.737538
vn 1.109527 0.482248 2.738643
vn 0.8154539 -0.1124498 2.24823
vn 0.955 -0.05106921 2.19194
vn 0.8161541 -0.05108912 2.249452
vn 0.8165588 -0.14822 2.250126
vn 0.9552177 -0.1482002 2.192692
vn 0.8480119 -0.3617064 2.304524
vn 0.9714907 -0.3616886 2.253377
vn 1.098488 0.482248 2.738634
vn 1.101151 0.4822483 2.737534
vn 1.104003 -0.3616826 2.235932
vn 1.104009 0.4822485 2.73716
vn 0.6959375 -0.1124815 2.33994
vn 0.8154539 -0.1124498 2.24823
vn 0.8161541 -0.05108912 2.249452
vn 0.6969246 -0.05112072 2.34094
vn 0.6042298 -0.1125228 2.459459
vn 0.6975059 -0.1482515 2.341478
vn 0.8165588 -0.14822 2.250126
vn 0.6054367 -0.05116193 2.46017
vn 0.5465807 -0.112571 2.59864
vn 0.7419782 -0.3617344 2.385886
vn 0.8480119 -0.3617064 2.304524
vn 0.6061409 -0.1482927 2.460546
vn 0.547925 -0.05120989 2.599015
vn 0.5269188 -0.1126225 2.748
vn 0.5283089 -0.0512614 2.748015
vn 0.548714 -0.1483407 2.599186
vn 0.5291238 -0.1483921 2.747975
vn 0.6094692 -0.3618138 2.615399
vn 0.6606157 -0.3617711 2.49192
vn 1.0962 0.4822474 2.740387
vn 1.098488 0.482248 2.738634
vn 1.094444 0.4822465 2.742672
vn 1.093339 0.4822457 2.745334
vn 1.09296 0.4822447 2.748191
vn 0.5920241 -0.3618595 2.747908
vn 1.661416 -0.1125709 2.598629
vn 1.681081 -0.1126225 2.747988
vn 1.679691 -0.0512614 2.748015
vn 1.660075 -0.05120991 2.599015
vn 1.603764 -0.1125229 2.459448
vn 1.602563 -0.05116193 2.46017
vn 1.512054 -0.1124815 2.339931
vn 1.511075 -0.05112073 2.34094
vn 1.392541 -0.1124498 2.248227
vn 1.391846 -0.0510891 2.249452
vn 1.391435 -0.14822 2.250123
vn 1.510504 -0.1482516 2.341488
vn 1.35999 -0.3617064 2.304525
vn 1.60184 -0.1482927 2.460513
vn 1.466021 -0.3617345 2.385886
vn 1.109527 0.482248 2.738643
vn 1.111812 0.4822474 2.740399
vn 1.547384 -0.3617711 2.49192
vn 1.113565 0.4822465 2.742687
vn 1.659287 -0.1483406 2.59919
vn 1.598531 -0.3618138 2.615399
vn 1.114666 0.4822457 2.745351
vn 1.678876 -0.1483921 2.747988
vn 1.660075 -0.05131288 2.897015
vn 1.615976 -0.3618595 2.747897
vn 1.11504 0.4822447 2.748191
vn 1.681081 -0.1126225 2.747988
vn 1.660075 -0.05131288 2.897015
vn 1.679691 -0.0512614 2.748015
vn 1.661419 -0.1126743 2.897348
vn 1.602563 -0.05136086 3.035861
vn 1.60377 -0.1127223 3.036529
vn 1.659289 -0.1484435 2.896767
vn 1.678876 -0.1483921 2.747988
vn 1.615976 -0.3618595 2.747897
vn 1.511075 -0.05140208 3.15509
vn 1.512062 -0.1127635 3.156048
vn 1.601875 -0.1484914 3.035389
vn 1.598531 -0.3619054 2.880414
vn 1.11504 0.4822447 2.748191
vn 1.114612 0.4822436 2.75125
vn 1.547384 -0.361948 3.003896
vn 1.113556 0.4822428 2.753727
vn 1.391846 -0.0514337 3.246578
vn 1.392546 -0.1127952 3.247758
vn 1.510494 -0.1485325 3.154485
vn 1.391441 -0.1485641 3.245837
vn 1.466022 -0.3619847 3.109929
vn 1.1118 0.482242 2.756012
vn 1.359986 -0.3620128 3.191293
vn 1.109512 0.4822414 2.757765
vn 1.104006 -0.1128219 3.325075
vn 0.9546462 -0.1128153 3.305413
vn 0.9550003 -0.05145357 3.30409
vn 1.104 -0.05146038 3.323706
vn 1.253365 -0.1128151 3.30541
vn 1.104003 -0.1485908 3.322858
vn 0.9552044 -0.1485839 3.303267
vn 1.104 -0.3620365 3.259883
vn 1.253 -0.05145358 3.30409
vn 1.392546 -0.1127952 3.247758
vn 1.391846 -0.0514337 3.246578
vn 1.391441 -0.1485641 3.245837
vn 1.25281 -0.148584 3.303264
vn 1.359986 -0.3620128 3.191293
vn 1.236509 -0.3620304 3.242438
vn 1.109512 0.4822414 2.757765
vn 1.106849 0.482241 2.758865
vn 1.103991 0.4822409 2.759239
vn 0.9546462 -0.1128153 3.305413
vn 0.8154646 -0.1127954 3.247764
vn 0.8161547 -0.05143368 3.246578
vn 0.9550003 -0.05145357 3.30409
vn 0.9552044 -0.1485839 3.303267
vn 0.8165315 -0.1485641 3.245821
vn 0.9714909 -0.3620305 3.242438
vn 1.104 -0.3620365 3.259883
vn 1.103991 0.4822409 2.759239
vn 0.8480122 -0.3620127 3.191292
vn 1.101134 0.482241 2.758861
vn 1.098472 0.4822414 2.757756
vn 0.5465838 -0.112674 2.897359
vn 0.5269188 -0.1126225 2.748
vn 0.5283089 -0.0512614 2.748015
vn 0.5479251 -0.05131289 2.897015
vn 0.6042359 -0.1127222 3.03654
vn 0.6054369 -0.05136087 3.035861
vn 0.6959463 -0.1127636 3.156056
vn 0.6969251 -0.05140207 3.15509
vn 0.8154646 -0.1127954 3.247764
vn 0.8161547 -0.05143368 3.246578
vn 0.8165315 -0.1485641 3.245821
vn 0.6975036 -0.1485325 3.154483
vn 0.8480122 -0.3620127 3.191292
vn 0.6061392 -0.1484913 3.035414
vn 0.7419787 -0.3619846 3.10993
vn 1.098472 0.4822414 2.757756
vn 1.096188 0.482242 2.755999
vn 0.6606159 -0.361948 3.003896
vn 1.094435 0.4822428 2.753711
vn 0.5487131 -0.1484435 2.896774
vn 0.6094686 -0.3619054 2.880414
vn 1.093334 0.4822437 2.751048
vn 0.5291238 -0.1483921 2.747975
vn 0.547925 -0.05120989 2.599015
vn 0.5920241 -0.3618595 2.747908
vn 1.09296 0.4822447 2.748191
vn 0.548714 -0.1483407 2.599186
vn 0.6094692 -0.3618138 2.615399
vn 1.114666 0.4822457 2.745351
vn 1.11504 0.4822447 2.748191
vn 1.114612 0.4822436 2.75125
vn 1.113556 0.4822428 2.753727
vn 1.113565 0.4822465 2.742687
vn 1.111812 0.4822474 2.740399
vn 1.1118 0.482242 2.756012
vn 1.109512 0.4822414 2.757765
vn 1.109527 0.482248 2.738643
vn 1.106849 0.482241 2.758865
vn 1.106866 0.4822483 2.737538
vn 1.103991 0.4822409 2.759239
vn 1.104009 0.4822485 2.73716
vn 1.101134 0.482241 2.758861
vn 1.101151 0.4822483 2.737534
vn 1.098472 0.4822414 2.757756
vn 1.098488 0.482248 2.738634
vn 1.096188 0.482242 2.755999
vn 1.0962 0.4822474 2.740387
vn 1.094435 0.4822428 2.753711
vn 1.094444 0.4822465 2.742672
vn 1.093334 0.4822437 2.751048
vn 1.093339 0.4822457 2.745334
vn 1.09296 0.4822447 2.748191
vn 1.392541 -0.1124498 2.248227
vn 1.107156 -0.672332 2.744666
vn 1.512054 -0.1124815 2.339931
vn 1.106237 -0.6723317 2.743956
vn 1.25336 -0.1124301 2.190576
vn 1.105165 -0.6723316 2.743508
vn 1.103994 -0.1124232 2.170913
vn 1.104066 -0.6723316 2.743353
vn 0.9546401 -0.1124298 2.190576
vn 1.102863 -0.6723316 2.7435
vn 0.8154539 -0.1124498 2.24823
vn 1.101789 -0.6723317 2.743941
vn 0.6959375 -0.1124815 2.33994
vn 1.100865 -0.672332 2.744645
vn 1.106211 -0.6723344 2.75166
vn 1.105137 -0.6723346 2.7521
vn 1.103985 -0.6723347 2.752248
vn 1.102834 -0.6723346 2.752093
vn 1.101763 -0.6723344 2.751645
vn 1.100844 -0.6723342 2.750935
vn 1.100141 -0.6723338 2.750011
vn 1.100156 -0.6723324 2.745564
vn 1.0997 -0.6723335 2.748937
vn 1.099708 -0.6723328 2.746635
vn 1.099552 -0.6723331 2.747786
vn 0.8154646 -0.1127954 3.247764
vn 0.6959463 -0.1127636 3.156056
vn 0.9546462 -0.1128153 3.305413
vn 1.104006 -0.1128219 3.325075
vn 1.253365 -0.1128151 3.30541
vn 1.392546 -0.1127952 3.247758
vn 1.512062 -0.1127635 3.156048
vn 1.107135 -0.6723342 2.750956
vn 1.107859 -0.6723324 2.745589
vn 1.107844 -0.6723338 2.750037
vn 1.1083 -0.6723328 2.746664
vn 1.108292 -0.6723335 2.748966
vn 1.108448 -0.6723331 2.747815
vn 1.512054 -0.1124815 2.339931
vn 1.107156 -0.672332 2.744666
vn 1.107859 -0.6723324 2.745589
vn 1.603764 -0.1125229 2.459448
vn 1.1083 -0.6723328 2.746664
vn 1.661416 -0.1125709 2.598629
vn 1.108448 -0.6723331 2.747815
vn 1.681081 -0.1126225 2.747988
vn 1.108292 -0.6723335 2.748966
vn 1.661419 -0.1126743 2.897348
vn 1.107844 -0.6723338 2.750037
vn 1.60377 -0.1127223 3.036529
vn 1.107135 -0.6723342 2.750956
vn 1.512062 -0.1127635 3.156048
vn 0.6959463 -0.1127636 3.156056
vn 1.100844 -0.6723342 2.750935
vn 1.100141 -0.6723338 2.750011
vn 0.6042359 -0.1127222 3.03654
vn 1.0997 -0.6723335 2.748937
vn 0.5465838 -0.112674 2.897359
vn 1.099552 -0.6723331 2.747786
vn 0.5269188 -0.1126225 2.748
vn 1.099708 -0.6723328 2.746635
vn 0.5465807 -0.112571 2.59864
vn 1.100156 -0.6723324 2.745564
vn 0.6042298 -0.1125228 2.459459
vn 1.100865 -0.672332 2.744645
vn 0.6959375 -0.1124815 2.33994
vt 0.6643169 0.4203013
vt 0.6901846 0.4202976
vt 0.6901846 0.2745169
vt 0.7179442 0.2745157
vt 0.7179442 0.4202964
vt 0.6958814 0.1473014
vt 0.7457038 0.2745169
vt 0.7457038 0.4202976
vt 0.7179442 0.1473004
vt 0.6864513 0.09382087
vt 0.7179442 0.09381945
vt 0.7715719 0.2745206
vt 0.7715719 0.4203013
vt 0.7400073 0.1473014
vt 0.7605667 0.1473044
vt 0.7494376 0.09382087
vt 0.7179442 0.07984121
vt 0.7787849 0.09382509
vt 0.7494376 0.07984267
vt 0.7787849 0.07984686
vt 0.6643169 0.4203013
vt 0.6901846 0.2745169
vt 0.6643169 0.2745206
vt 0.6753221 0.1473044
vt 0.6958814 0.1473014
vt 0.6571039 0.09382509
vt 0.6864513 0.09382087
vt 0.6571039 0.07984686
vt 0.6864513 0.07984267
vt 0.7179442 0.09381945
vt 0.7179442 0.07984121
vt 0.07369027 0.0728498
vt 0.05534829 0.07285613
vt 0.05540271 0.2297304
vt 0.07374447 0.229724
vt 0.09759383 0.07284154
vt 0.09053957 0.3666224
vt 0.07596175 0.3666275
vt 0.09764846 0.2297157
vt 0.1254302 0.07283191
vt 0.06283513 0.4241692
vt 0.04202625 0.4241764
vt 0.1095379 0.3666158
vt 0.1254844 0.2297062
vt 0.1553023 0.0728216
vt 0.1553567 0.2296958
vt 0.131662 0.3666082
vt 0.1554039 0.3666
vt 0.1215339 0.4241489
vt 0.0899535 0.4241598
vt 0.06284011 0.4392112
vt 0.04203101 0.4392183
vt 0.08995872 0.4392017
vt 0.1215389 0.4391908
vt 0.1554288 0.4391791
vt 0.155424 0.4241372
vt 0.499227 0.07283193
vt 0.4693549 0.07282162
vt 0.4693005 0.2296958
vt 0.4991728 0.2297062
vt 0.5270634 0.07284155
vt 0.5270092 0.2297157
vt 0.5509669 0.07284981
vt 0.5509127 0.229724
vt 0.5693089 0.07285614
vt 0.5692545 0.2297304
vt 0.5486954 0.3666275
vt 0.5341176 0.3666224
vt 0.5826309 0.4241764
vt 0.5151193 0.3666158
vt 0.5618221 0.4241692
vt 0.5826262 0.4392183
vt 0.561817 0.4392111
vt 0.5347037 0.4241598
vt 0.5346989 0.4392017
vt 0.4929952 0.3666082
vt 0.5031233 0.4241489
vt 0.5031183 0.4391908
vt 0.4692534 0.3666
vt 0.4394284 0.2296855
vt 0.4692332 0.4241372
vt 0.4692284 0.4391791
vt 0.4693549 0.07282162
vt 0.4394284 0.2296855
vt 0.4693005 0.2296958
vt 0.4394828 0.07281129
vt 0.4115921 0.2296759
vt 0.4116469 0.07280166
vt 0.4455117 0.3665918
vt 0.4692534 0.3666
vt 0.4692332 0.4241372
vt 0.3876885 0.2296677
vt 0.3877429 0.07279341
vt 0.4233876 0.3665841
vt 0.4353435 0.4241255
vt 0.4692284 0.4391791
vt 0.4353385 0.4391674
vt 0.4037633 0.4241145
vt 0.4037581 0.4391565
vt 0.3693467 0.2296613
vt 0.3694012 0.07278706
vt 0.4043895 0.3665776
vt 0.3898115 0.3665726
vt 0.3766443 0.4241052
vt 0.3766393 0.4391471
vt 0.3558356 0.424098
vt 0.3558306 0.4391399
vt 0.83965 0.5797073
vt 0.8118899 0.5797086
vt 0.8118899 0.7254919
vt 0.83965 0.7254906
vt 0.8674102 0.5797086
vt 0.83965 0.8527232
vt 0.8175869 0.8527243
vt 0.83965 0.90618
vt 0.8674102 0.7254919
vt 0.8932787 0.5797123
vt 0.8932787 0.7254956
vt 0.8822733 0.8527272
vt 0.8617136 0.8527243
vt 0.9004918 0.9061855
vt 0.8711439 0.9061815
vt 0.9004918 0.920164
vt 0.8711439 0.9201599
vt 0.83965 0.9201585
vt 0.8118899 0.5797086
vt 0.7860218 0.5797123
vt 0.7860218 0.7254956
vt 0.8118899 0.7254919
vt 0.8175869 0.8527243
vt 0.7970272 0.8527272
vt 0.8081565 0.9061815
vt 0.83965 0.90618
vt 0.83965 0.9201585
vt 0.7788087 0.9061855
vt 0.8081565 0.9201599
vt 0.7788087 0.920164
vt 0.1851744 0.07281128
vt 0.1553023 0.0728216
vt 0.1553567 0.2296958
vt 0.1852288 0.2296855
vt 0.2130107 0.07280165
vt 0.2130651 0.2296759
vt 0.2369143 0.07279339
vt 0.2369687 0.2296677
vt 0.2552561 0.07278705
vt 0.2553105 0.2296613
vt 0.2348457 0.3665726
vt 0.2202677 0.3665776
vt 0.2688216 0.424098
vt 0.2012696 0.3665842
vt 0.2480129 0.4241052
vt 0.2688266 0.4391399
vt 0.2480179 0.4391471
vt 0.2208939 0.4241145
vt 0.2208991 0.4391565
vt 0.1791455 0.3665918
vt 0.1893137 0.4241255
vt 0.1893187 0.4391674
vt 0.1554039 0.3666
vt 0.1254844 0.2297062
vt 0.155424 0.4241372
vt 0.1554288 0.4391791
vt 0.131662 0.3666082
vt 0.1215339 0.4241489
vt 0.6808648 0.7163066
vt 0.684848 0.6860515
vt 0.6808652 0.6557965
vt 0.6691868 0.6276034
vt 0.6691868 0.7444999
vt 0.6506099 0.7687095
vt 0.6506099 0.6033932
vt 0.6264001 0.5848165
vt 0.6264001 0.7872867
vt 0.5982067 0.5731386
vt 0.5982067 0.7989647
vt 0.5679517 0.5691548
vt 0.5679517 0.8029477
vt 0.5376971 0.5731384
vt 0.5376971 0.7989647
vt 0.5095037 0.5848165
vt 0.5095037 0.7872867
vt 0.4852936 0.6033932
vt 0.4852936 0.7687095
vt 0.4667166 0.6276034
vt 0.4667166 0.7444995
vt 0.455039 0.6557965
vt 0.4550386 0.7163066
vt 0.4510553 0.6860515
vt 0.2874504 0.5749714
vt 0.3057673 0.5947149
vt 0.3089874 0.5914971
vt 0.2851741 0.5789132
vt 0.2623703 0.5645829
vt 0.2611921 0.5689795
vt 0.2354562 0.5610399
vt 0.2354562 0.5655913
vt 0.2085422 0.5645829
vt 0.2097208 0.5689795
vt 0.1834624 0.5749714
vt 0.1857388 0.5789132
vt 0.1619259 0.5914971
vt 0.1651451 0.5947152
vt 0.2851741 0.7511389
vt 0.2611921 0.7610726
vt 0.2354562 0.7644607
vt 0.2097208 0.7610729
vt 0.1857388 0.7511393
vt 0.1651451 0.7353371
vt 0.1493436 0.7147435
vt 0.1493436 0.6153088
vt 0.1394093 0.6907617
vt 0.1394093 0.6392904
vt 0.1360218 0.6650261
vt 0.1834624 0.7550837
vt 0.1619259 0.7385582
vt 0.2085422 0.7654722
vt 0.2354562 0.7690154
vt 0.2623703 0.7654722
vt 0.2874504 0.7550837
vt 0.3089874 0.7385582
vt 0.3057673 0.7353371
vt 0.3215693 0.6153088
vt 0.3215693 0.7147435
vt 0.3315032 0.6392904
vt 0.3315032 0.6907617
vt 0.3348911 0.6650261
vt 0.5509669 0.07284981
vt 0.5473955 0.06783839
vt 0.5245382 0.06783049
vt 0.5270634 0.07284155
vt 0.4979209 0.06782129
vt 0.499227 0.07283193
vt 0.4693567 0.06781141
vt 0.4693549 0.07282162
vt 0.4407926 0.06780155
vt 0.4394828 0.07281129
vt 0.414175 0.06779236
vt 0.4116469 0.07280166
vt 0.391318 0.06778444
vt 0.3877429 0.07279341
vt 0.2369143 0.07279339
vt 0.2333392 0.06778443
vt 0.2104822 0.06779234
vt 0.2130107 0.07280165
vt 0.1838646 0.06780154
vt 0.1851744 0.07281128
vt 0.1553005 0.0678114
vt 0.1553023 0.0728216
vt 0.1267363 0.06782128
vt 0.1254302 0.07283191
vt 0.100119 0.06783047
vt 0.09759383 0.07284154
vt 0.07726195 0.06783837
vt 0.07369027 0.0728498
usemtl TexturesCom_WoodFine0038_1_seamless_S
f 3/3/3 2/2/2 1/1/1
f 3/3/3 4/4/4 2/2/2
f 4/4/4 5/5/5 2/2/2
f 3/3/3 6/6/6 4/4/4
f 4/4/4 7/7/7 5/5/5
f 7/7/7 8/8/8 5/5/5
f 6/6/6 9/9/9 4/4/4
f 4/4/4 9/9/9 7/7/7
f 6/6/6 10/10/10 9/9/9
f 10/10/10 11/11/11 9/9/9
f 7/7/7 12/12/12 8/8/8
f 12/12/12 13/13/13 8/8/8
f 9/9/9 14/14/14 7/7/7
f 7/7/7 14/14/14 12/12/12
f 9/9/9 11/11/11 14/14/14
f 14/14/14 15/15/15 12/12/12
f 11/11/11 16/16/16 14/14/14
f 14/14/14 16/16/16 15/15/15
f 11/11/11 17/17/17 16/16/16
f 16/16/16 18/18/18 15/15/15
f 17/17/17 19/19/19 16/16/16
f 16/16/16 19/19/19 18/18/18
f 19/19/19 20/20/20 18/18/18
f 23/23/23 22/22/22 21/21/21
f 23/23/23 24/24/24 22/22/22
f 24/24/24 25/25/25 22/22/22
f 24/24/24 26/26/26 25/25/25
f 26/26/26 27/27/27 25/25/25
f 26/26/26 28/28/28 27/27/27
f 28/28/28 29/29/29 27/27/27
f 27/27/27 29/29/29 30/30/30
f 29/29/29 31/31/31 30/30/30
f 34/34/34 33/33/33 32/32/32
f 35/35/35 34/34/34 32/32/32
f 35/35/35 32/32/32 36/36/36
f 35/35/35 37/37/37 34/34/34
f 37/37/37 38/38/38 34/34/34
f 39/39/39 35/35/35 36/36/36
f 39/39/39 36/36/36 40/40/40
f 37/37/37 41/41/41 38/38/38
f 41/41/41 42/42/42 38/38/38
f 43/43/43 37/37/37 35/35/35
f 39/39/39 43/43/43 35/35/35
f 44/44/44 39/39/39 40/40/40
f 44/44/44 40/40/40 45/45/45
f 46/46/46 44/44/44 45/45/45
f 44/44/44 47/47/47 39/39/39
f 47/47/47 43/43/43 39/39/39
f 48/48/48 47/47/47 44/44/44
f 47/47/47 49/49/49 43/43/43
f 43/43/43 50/50/50 37/37/37
f 50/50/50 41/41/41 37/37/37
f 49/49/49 50/50/50 43/43/43
f 41/41/41 51/51/51 42/42/42
f 51/51/51 52/52/52 42/42/42
f 53/53/53 51/51/51 41/41/41
f 50/50/50 53/53/53 41/41/41
f 54/54/54 53/53/53 50/50/50
f 49/49/49 54/54/54 50/50/50
f 55/55/55 54/54/54 49/49/49
f 56/56/56 55/55/55 49/49/49
f 59/59/59 58/58/58 57/57/57
f 60/60/60 59/59/59 57/57/57
f 60/60/60 57/57/57 61/61/61
f 62/62/62 60/60/60 61/61/61
f 62/62/62 61/61/61 63/63/63
f 64/64/64 62/62/62 63/63/63
f 64/64/64 63/63/63 65/65/65
f 66/66/66 64/64/64 65/65/65
f 66/66/66 67/67/67 64/64/64
f 67/67/67 68/68/68 64/64/64
f 64/64/64 68/68/68 62/62/62
f 67/67/67 69/69/69 68/68/68
f 62/62/62 70/70/70 60/60/60
f 68/68/68 70/70/70 62/62/62
f 69/69/69 71/71/71 68/68/68
f 68/68/68 71/71/71 70/70/70
f 69/69/69 72/72/72 71/71/71
f 72/72/72 73/73/73 71/71/71
f 71/71/71 73/73/73 74/74/74
f 71/71/71 74/74/74 70/70/70
f 73/73/73 75/75/75 74/74/74
f 70/70/70 76/76/76 60/60/60
f 70/70/70 74/74/74 76/76/76
f 60/60/60 76/76/76 59/59/59
f 74/74/74 75/75/75 77/77/77
f 74/74/74 77/77/77 76/76/76
f 75/75/75 78/78/78 77/77/77
f 76/76/76 79/79/79 59/59/59
f 76/76/76 77/77/77 79/79/79
f 59/59/59 79/79/79 80/80/80
f 77/77/77 81/81/81 79/79/79
f 77/77/77 78/78/78 81/81/81
f 78/78/78 82/82/82 81/81/81
f 85/85/85 84/84/84 83/83/83
f 84/84/84 86/86/86 83/83/83
f 84/84/84 87/87/87 86/86/86
f 87/87/87 88/88/88 86/86/86
f 84/84/84 89/89/89 87/87/87
f 90/90/90 89/89/89 84/84/84
f 90/90/90 91/91/91 89/89/89
f 87/87/87 92/92/92 88/88/88
f 92/92/92 93/93/93 88/88/88
f 89/89/89 94/94/94 87/87/87
f 87/87/87 94/94/94 92/92/92
f 91/91/91 95/95/95 89/89/89
f 89/89/89 95/95/95 94/94/94
f 91/91/91 96/96/96 95/95/95
f 96/96/96 97/97/97 95/95/95
f 95/95/95 97/97/97 98/98/98
f 95/95/95 98/98/98 94/94/94
f 97/97/97 99/99/99 98/98/98
f 92/92/92 100/100/100 93/93/93
f 100/100/100 101/101/101 93/93/93
f 94/94/94 102/102/102 92/92/92
f 92/92/92 102/102/102 100/100/100
f 94/94/94 98/98/98 102/102/102
f 102/102/102 103/103/103 100/100/100
f 98/98/98 99/99/99 104/104/104
f 98/98/98 104/104/104 102/102/102
f 102/102/102 104/104/104 103/103/103
f 99/99/99 105/105/105 104/104/104
f 104/104/104 106/106/106 103/103/103
f 104/104/104 105/105/105 106/106/106
f 105/105/105 107/107/107 106/106/106
f 110/110/110 109/109/109 108/108/108
f 111/111/111 110/110/110 108/108/108
f 111/111/111 108/108/108 112/112/112
f 111/111/111 113/113/113 110/110/110
f 113/113/113 114/114/114 110/110/110
f 113/113/113 115/115/115 114/114/114
f 116/116/116 111/111/111 112/112/112
f 116/116/116 112/112/112 117/117/117
f 118/118/118 116/116/116 117/117/117
f 118/118/118 119/119/119 116/116/116
f 116/116/116 120/120/120 111/111/111
f 119/119/119 120/120/120 116/116/116
f 120/120/120 113/113/113 111/111/111
f 119/119/119 121/121/121 120/120/120
f 120/120/120 122/122/122 113/113/113
f 121/121/121 122/122/122 120/120/120
f 122/122/122 115/115/115 113/113/113
f 121/121/121 123/123/123 122/122/122
f 123/123/123 124/124/124 122/122/122
f 122/122/122 124/124/124 115/115/115
f 124/124/124 125/125/125 115/115/115
f 128/128/128 127/127/127 126/126/126
f 129/129/129 128/128/128 126/126/126
f 129/129/129 130/130/130 128/128/128
f 130/130/130 131/131/131 128/128/128
f 130/130/130 132/132/132 131/131/131
f 133/133/133 132/132/132 130/130/130
f 133/133/133 134/134/134 132/132/132
f 132/132/132 135/135/135 131/131/131
f 134/134/134 136/136/136 132/132/132
f 132/132/132 136/136/136 135/135/135
f 136/136/136 137/137/137 135/135/135
f 140/140/140 139/139/139 138/138/138
f 141/141/141 140/140/140 138/138/138
f 141/141/141 138/138/138 142/142/142
f 143/143/143 141/141/141 142/142/142
f 143/143/143 142/142/142 144/144/144
f 145/145/145 143/143/143 144/144/144
f 145/145/145 144/144/144 146/146/146
f 147/147/147 145/145/145 146/146/146
f 147/147/147 148/148/148 145/145/145
f 148/148/148 149/149/149 145/145/145
f 145/145/145 149/149/149 143/143/143
f 148/148/148 150/150/150 149/149/149
f 143/143/143 151/151/151 141/141/141
f 149/149/149 151/151/151 143/143/143
f 150/150/150 152/152/152 149/149/149
f 149/149/149 152/152/152 151/151/151
f 150/150/150 153/153/153 152/152/152
f 153/153/153 154/154/154 152/152/152
f 152/152/152 154/154/154 155/155/155
f 152/152/152 155/155/155 151/151/151
f 154/154/154 156/156/156 155/155/155
f 151/151/151 157/157/157 141/141/141
f 151/151/151 155/155/155 157/157/157
f 141/141/141 157/157/157 140/140/140
f 155/155/155 156/156/156 158/158/158
f 155/155/155 158/158/158 157/157/157
f 156/156/156 159/159/159 158/158/158
f 157/157/157 160/160/160 140/140/140
f 157/157/157 158/158/158 160/160/160
f 140/140/140 160/160/160 161/161/161
f 158/158/158 159/159/159 162/162/162
f 158/158/158 162/162/162 160/160/160
f 159/159/159 163/163/163 162/162/162
f 160/160/160 162/162/162 164/164/164
f 162/162/162 165/165/165 164/164/164
f 168/168/168 167/167/167 166/166/166
f 166/166/166 169/169/169 168/168/168
f 166/166/166 170/170/170 169/169/169
f 170/170/170 171/171/171 169/169/169
f 171/171/171 172/172/172 169/169/169
f 171/171/171 173/173/173 172/172/172
f 171/171/171 174/174/174 173/173/173
f 174/174/174 175/175/175 173/173/173
f 174/174/174 176/176/176 175/175/175
f 176/176/176 177/177/177 175/175/175
f 176/176/176 178/178/178 177/177/177
f 178/178/178 179/179/179 177/177/177
f 178/178/178 180/180/180 179/179/179
f 180/180/180 181/181/181 179/179/179
f 180/180/180 182/182/182 181/181/181
f 182/182/182 183/183/183 181/181/181
f 182/182/182 184/184/184 183/183/183
f 184/184/184 185/185/185 183/183/183
f 184/184/184 186/186/186 185/185/185
f 186/186/186 187/187/187 185/185/185
f 186/186/186 188/188/188 187/187/187
f 188/188/188 189/189/189 187/187/187
f 192/192/192 191/191/191 190/190/190
f 191/191/191 193/193/193 190/190/190
f 190/190/190 193/193/193 194/194/194
f 193/193/193 195/195/195 194/194/194
f 194/194/194 195/195/195 196/196/196
f 195/195/195 197/197/197 196/196/196
f 196/196/196 197/197/197 198/198/198
f 197/197/197 199/199/199 198/198/198
f 198/198/198 199/199/199 200/200/200
f 199/199/199 201/201/201 200/200/200
f 200/200/200 201/201/201 202/202/202
f 201/201/201 203/203/203 202/202/202
f 204/204/204 193/193/193 191/191/191
f 205/205/205 195/195/195 193/193/193
f 204/204/204 205/205/205 193/193/193
f 206/206/206 197/197/197 195/195/195
f 205/205/205 206/206/206 195/195/195
f 207/207/207 199/199/199 197/197/197
f 206/206/206 207/207/207 197/197/197
f 208/208/208 201/201/201 199/199/199
f 207/207/207 208/208/208 199/199/199
f 209/209/209 203/203/203 201/201/201
f 208/208/208 209/209/209 201/201/201
f 209/209/209 210/210/210 203/203/203
f 210/210/210 211/211/211 203/203/203
f 210/210/210 212/212/212 211/211/211
f 212/212/212 213/213/213 211/211/211
f 212/212/212 214/214/214 213/213/213
f 209/209/209 208/208/208 215/215/215
f 216/216/216 209/209/209 215/215/215
f 215/215/215 208/208/208 217/217/217
f 208/208/208 207/207/207 217/217/217
f 217/217/217 207/207/207 218/218/218
f 207/207/207 206/206/206 218/218/218
f 218/218/218 206/206/206 219/219/219
f 206/206/206 205/205/205 219/219/219
f 219/219/219 205/205/205 220/220/220
f 205/205/205 204/204/204 220/220/220
f 220/220/220 204/204/204 221/221/221
f 204/204/204 222/222/222 221/221/221
f 222/222/222 204/204/204 191/191/191
f 222/222/222 191/191/191 223/223/223
f 224/224/224 222/222/222 223/223/223
f 224/224/224 223/223/223 225/225/225
f 226/226/226 224/224/224 225/225/225
f 225/225/225 227/227/227 226/226/226
f 230/230/230 229/229/229 228/228/228
f 231/231/231 230/230/230 228/228/228
f 232/232/232 230/230/230 231/231/231
f 233/233/233 232/232/232 231/231/231
f 234/234/234 232/232/232 233/233/233
f 235/235/235 234/234/234 233/233/233
f 236/236/236 234/234/234 235/235/235
f 237/237/237 236/236/236 235/235/235
f 238/238/238 236/236/236 237/237/237
f 239/239/239 238/238/238 237/237/237
f 240/240/240 238/238/238 239/239/239
f 241/241/241 240/240/240 239/239/239
f 244/244/244 243/243/243 242/242/242
f 245/245/245 244/244/244 242/242/242
f 246/246/246 244/244/244 245/245/245
f 247/247/247 246/246/246 245/245/245
f 248/248/248 246/246/246 247/247/247
f 249/249/249 248/248/248 247/247/247
f 250/250/250 248/248/248 249/249/249
f 251/251/251 250/250/250 249/249/249
f 252/252/252 250/250/250 251/251/251
f 253/253/253 252/252/252 251/251/251
f 254/254/254 252/252/252 253/253/253
f 255/255/255 254/254/254 253/253/253
g FP227:Cylinder.178_(1)_a3d330de
v 1.03119 -0.14726 2.62186
v 1.06631 -0.14726 2.60731
v 1.06631 0.05069 2.60738
v 1.104 0.05069 2.60242
v 1.104 -0.14726 2.60235
v 1.07405 0.22343 2.63631
v 1.1417 0.05069 2.60738
v 1.1417 -0.14726 2.60731
v 1.104 0.22343 2.63236
v 1.06124 0.29605 2.58854
v 1.104 0.29605 2.58291
v 1.17682 0.05069 2.62193
v 1.17682 -0.14726 2.62186
v 1.13396 0.22343 2.63631
v 1.16188 0.22343 2.64787
v 1.14677 0.29605 2.58854
v 1.104 0.31503 2.58292
v 1.18662 0.29605 2.60505
v 1.14677 0.31503 2.58855
v 1.18662 0.31503 2.60506
v 1.03119 -0.14726 2.62186
v 1.06631 0.05069 2.60738
v 1.03119 0.05069 2.62193
v 1.04613 0.22343 2.64787
v 1.07405 0.22343 2.63631
v 1.02139 0.29605 2.60505
v 1.06124 0.29605 2.58854
v 1.02139 0.31503 2.60506
v 1.06124 0.31503 2.58855
v 1.104 0.29605 2.58291
v 1.104 0.31503 2.58292
v 1.00102 -0.14727 2.64501
v 1.03119 -0.14726 2.62186
v 1.03119 0.05069 2.62193
v 1.00102 0.05068 2.64507
v 0.97788 -0.14728 2.67517
v 1.02216 0.22342 2.66627
v 1.04613 0.22343 2.64787
v 0.97788 0.05067 2.67524
v 0.96333 -0.14729 2.71029
v 0.98717 0.29604 2.63131
v 1.02139 0.29605 2.60505
v 1.00376 0.22341 2.69024
v 0.96333 0.05066 2.71036
v 0.95837 -0.14731 2.74799
v 0.95837 0.05064 2.74806
v 0.9922 0.2234 2.71816
v 0.98825 0.22339 2.74811
v 0.94441 0.29601 2.70538
v 0.96092 0.29602 2.66553
v 0.98717 0.31502 2.63131
v 1.02139 0.31503 2.60506
v 0.96092 0.31501 2.66553
v 0.94441 0.31499 2.70538
v 0.93878 0.31498 2.74815
v 0.93878 0.296 2.74814
v 1.24468 -0.14729 2.71029
v 1.24964 -0.14731 2.74799
v 1.24964 0.05064 2.74806
v 1.24468 0.05066 2.71036
v 1.23013 -0.14728 2.67517
v 1.23013 0.05067 2.67524
v 1.20699 -0.14727 2.64501
v 1.20699 0.05068 2.64507
v 1.17682 -0.14726 2.62186
v 1.17682 0.05069 2.62193
v 1.16188 0.22343 2.64787
v 1.18585 0.22342 2.66627
v 1.18662 0.29605 2.60505
v 1.20425 0.22341 2.69024
v 1.22084 0.29604 2.63131
v 1.18662 0.31503 2.60506
v 1.22084 0.31502 2.63131
v 1.24709 0.29602 2.66553
v 1.24709 0.31501 2.66553
v 1.21581 0.2234 2.71816
v 1.2636 0.29601 2.70538
v 1.2636 0.31499 2.70538
v 1.21976 0.22339 2.74811
v 1.24468 0.05063 2.78575
v 1.26923 0.296 2.74814
v 1.26923 0.31498 2.74815
v 1.24964 -0.14731 2.74799
v 1.24468 0.05063 2.78575
v 1.24964 0.05064 2.74806
v 1.24468 -0.14732 2.78568
v 1.23013 0.05062 2.82087
v 1.23013 -0.14733 2.82081
v 1.21581 0.22338 2.77807
v 1.21976 0.22339 2.74811
v 1.26923 0.296 2.74814
v 1.20699 0.05061 2.85104
v 1.20699 -0.14734 2.85097
v 1.20425 0.22337 2.80599
v 1.2636 0.29598 2.7909
v 1.26923 0.31498 2.74815
v 1.2636 0.31496 2.79091
v 1.24709 0.29597 2.83075
v 1.24709 0.31495 2.83076
v 1.17682 0.0506 2.87418
v 1.17682 -0.14735 2.87411
v 1.18585 0.22337 2.82996
v 1.16188 0.22336 2.84836
v 1.22084 0.29596 2.86497
v 1.22084 0.31494 2.86498
v 1.18662 0.29595 2.89123
v 1.18662 0.31493 2.89124
v 1.104 -0.14736 2.89362
v 1.06631 -0.14736 2.88866
v 1.06631 0.05059 2.88873
v 1.104 0.05059 2.89369
v 1.1417 -0.14736 2.88866
v 1.104 0.22335 2.86387
v 1.07405 0.22335 2.85992
v 1.104 0.29594 2.91337
v 1.1417 0.05059 2.88873
v 1.17682 -0.14735 2.87411
v 1.17682 0.0506 2.87418
v 1.16188 0.22336 2.84836
v 1.13396 0.22335 2.85992
v 1.18662 0.29595 2.89123
v 1.14677 0.29594 2.90774
v 1.18662 0.31493 2.89124
v 1.14677 0.31492 2.90774
v 1.104 0.31492 2.91337
v 1.06631 -0.14736 2.88866
v 1.03119 -0.14735 2.87411
v 1.03119 0.0506 2.87418
v 1.06631 0.05059 2.88873
v 1.07405 0.22335 2.85992
v 1.04613 0.22336 2.84836
v 1.06124 0.29594 2.90774
v 1.104 0.29594 2.91337
v 1.104 0.31492 2.91337
v 1.02139 0.29595 2.89123
v 1.06124 0.31492 2.90774
v 1.02139 0.31493 2.89124
v 0.96333 -0.14732 2.78568
v 0.95837 -0.14731 2.74799
v 0.95837 0.05064 2.74806
v 0.96333 0.05063 2.78575
v 0.97788 -0.14733 2.82081
v 0.97788 0.05062 2.82087
v 1.00102 -0.14734 2.85097
v 1.00102 0.05061 2.85104
v 1.03119 -0.14735 2.87411
v 1.03119 0.0506 2.87418
v 1.04613 0.22336 2.84836
v 1.02216 0.22337 2.82996
v 1.02139 0.29595 2.89123
v 1.00376 0.22337 2.80599
v 0.98717 0.29596 2.86497
v 1.02139 0.31493 2.89124
v 0.98717 0.31494 2.86498
v 0.96092 0.29597 2.83075
v 0.96092 0.31495 2.83076
v 0.9922 0.22338 2.77807
v 0.94441 0.29598 2.7909
v 0.94441 0.31496 2.79091
v 0.98825 0.22339 2.74811
v 0.96333 0.05066 2.71036
v 0.93878 0.296 2.74814
v 0.93878 0.31498 2.74815
v 0.9922 0.2234 2.71816
v 0.94441 0.29601 2.70538
v 1.2636 0.31499 2.70538
v 1.26923 0.31498 2.74815
v 1.2636 0.31496 2.79091
v 1.24709 0.31495 2.83076
v 1.24709 0.31501 2.66553
v 1.22084 0.31502 2.63131
v 1.22084 0.31494 2.86498
v 1.18662 0.31493 2.89124
v 1.18662 0.31503 2.60506
v 1.14677 0.31492 2.90774
v 1.14677 0.31503 2.58855
v 1.104 0.31492 2.91337
v 1.104 0.31503 2.58292
v 1.06124 0.31492 2.90774
v 1.06124 0.31503 2.58855
v 1.02139 0.31493 2.89124
v 1.02139 0.31503 2.60506
v 0.98717 0.31494 2.86498
v 0.98717 0.31502 2.63131
v 0.96092 0.31495 2.83076
v 0.96092 0.31501 2.66553
v 0.94441 0.31496 2.79091
v 0.94441 0.31499 2.70538
v 0.93878 0.31498 2.74815
v 1.17682 -0.14726 2.62186
v 1.20248 -0.1536 2.64951
v 1.20699 -0.14727 2.64501
v 1.17364 -0.15359 2.62738
v 1.1417 -0.14726 2.60731
v 1.14005 -0.15358 2.61347
v 1.104 -0.14726 2.60235
v 1.104 -0.15358 2.60872
v 1.06631 -0.14726 2.60731
v 1.06796 -0.15358 2.61347
v 1.03119 -0.14726 2.62186
v 1.03437 -0.15359 2.62738
v 1.00102 -0.14727 2.64501
v 1.00553 -0.1536 2.64951
v 1.17364 -0.15367 2.86859
v 1.14005 -0.15368 2.8825
v 1.104 -0.15368 2.88725
v 1.06796 -0.15368 2.8825
v 1.03437 -0.15367 2.86859
v 1.00553 -0.15366 2.84646
v 0.9834 -0.15365 2.81762
v 0.9834 -0.15361 2.67835
v 0.96949 -0.15364 2.78403
v 0.96949 -0.15362 2.71194
v 0.96474 -0.15363 2.74798
v 1.03119 -0.14735 2.87411
v 1.00102 -0.14734 2.85097
v 1.06631 -0.14736 2.88866
v 1.104 -0.14736 2.89362
v 1.1417 -0.14736 2.88866
v 1.17682 -0.14735 2.87411
v 1.20699 -0.14734 2.85097
v 1.20248 -0.15366 2.84646
v 1.22461 -0.15361 2.67835
v 1.22461 -0.15365 2.81762
v 1.23852 -0.15362 2.71194
v 1.23852 -0.15364 2.78403
v 1.24327 -0.15363 2.74798
v 1.20699 -0.14727 2.64501
v 1.20248 -0.1536 2.64951
v 1.22461 -0.15361 2.67835
v 1.23013 -0.14728 2.67517
v 1.23852 -0.15362 2.71194
v 1.24468 -0.14729 2.71029
v 1.24327 -0.15363 2.74798
v 1.24964 -0.14731 2.74799
v 1.23852 -0.15364 2.78403
v 1.24468 -0.14732 2.78568
v 1.22461 -0.15365 2.81762
v 1.23013 -0.14733 2.82081
v 1.20248 -0.15366 2.84646
v 1.20699 -0.14734 2.85097
v 1.00102 -0.14734 2.85097
v 1.00553 -0.15366 2.84646
v 0.9834 -0.15365 2.81762
v 0.97788 -0.14733 2.82081
v 0.96949 -0.15364 2.78403
v 0.96333 -0.14732 2.78568
v 0.96474 -0.15363 2.74798
v 0.95837 -0.14731 2.74799
v 0.96949 -0.15362 2.71194
v 0.96333 -0.14729 2.71029
v 0.9834 -0.15361 2.67835
v 0.97788 -0.14728 2.67517
v 1.00553 -0.1536 2.64951
v 1.00102 -0.14727 2.64501
vn 0.8154539 -0.1124498 2.24823
vn 0.9546401 -0.1124298 2.190576
vn 0.955 -0.05106921 2.19194
vn 1.104 -0.05106245 2.172324
vn 1.103994 -0.1124232 2.170913
vn 0.9552177 -0.1482002 2.192692
vn 1.253 -0.05106923 2.19194
vn 1.25336 -0.1124301 2.190576
vn 1.103997 -0.1481934 2.173105
vn 0.9714907 -0.3616886 2.253377
vn 1.104003 -0.3616826 2.235932
vn 1.391846 -0.0510891 2.249452
vn 1.392541 -0.1124498 2.248227
vn 1.252796 -0.1482001 2.192696
vn 1.391435 -0.14822 2.250123
vn 1.236509 -0.3616887 2.253377
vn 1.104009 0.4822485 2.73716
vn 1.35999 -0.3617064 2.304525
vn 1.106866 0.4822483 2.737538
vn 1.109527 0.482248 2.738643
vn 0.8154539 -0.1124498 2.24823
vn 0.955 -0.05106921 2.19194
vn 0.8161541 -0.05108912 2.249452
vn 0.8165588 -0.14822 2.250126
vn 0.9552177 -0.1482002 2.192692
vn 0.8480119 -0.3617064 2.304524
vn 0.9714907 -0.3616886 2.253377
vn 1.098488 0.482248 2.738634
vn 1.101151 0.4822483 2.737534
vn 1.104003 -0.3616826 2.235932
vn 1.104009 0.4822485 2.73716
vn 0.6959375 -0.1124815 2.33994
vn 0.8154539 -0.1124498 2.24823
vn 0.8161541 -0.05108912 2.249452
vn 0.6969246 -0.05112072 2.34094
vn 0.6042298 -0.1125228 2.459459
vn 0.6975059 -0.1482515 2.341478
vn 0.8165588 -0.14822 2.250126
vn 0.6054367 -0.05116193 2.46017
vn 0.5465807 -0.112571 2.59864
vn 0.7419782 -0.3617344 2.385886
vn 0.8480119 -0.3617064 2.304524
vn 0.6061409 -0.1482927 2.460546
vn 0.547925 -0.05120989 2.599015
vn 0.5269188 -0.1126225 2.748
vn 0.5283089 -0.0512614 2.748015
vn 0.548714 -0.1483407 2.599186
vn 0.5291238 -0.1483921 2.747975
vn 0.6094692 -0.3618138 2.615399
vn 0.6606157 -0.3617711 2.49192
vn 1.0962 0.4822474 2.740387
vn 1.098488 0.482248 2.738634
vn 1.094444 0.4822465 2.742672
vn 1.093339 0.4822457 2.745334
vn 1.09296 0.4822447 2.748191
vn 0.5920241 -0.3618595 2.747908
vn 1.661416 -0.1125709 2.598629
vn 1.681081 -0.1126225 2.747988
vn 1.679691 -0.0512614 2.748015
vn 1.660075 -0.05120991 2.599015
vn 1.603764 -0.1125229 2.459448
vn 1.602563 -0.05116193 2.46017
vn 1.512054 -0.1124815 2.339931
vn 1.511075 -0.05112073 2.34094
vn 1.392541 -0.1124498 2.248227
vn 1.391846 -0.0510891 2.249452
vn 1.391435 -0.14822 2.250123
vn 1.510504 -0.1482516 2.341488
vn 1.35999 -0.3617064 2.304525
vn 1.60184 -0.1482927 2.460513
vn 1.466021 -0.3617345 2.385886
vn 1.109527 0.482248 2.738643
vn 1.111812 0.4822474 2.740399
vn 1.547384 -0.3617711 2.49192
vn 1.113565 0.4822465 2.742687
vn 1.659287 -0.1483406 2.59919
vn 1.598531 -0.3618138 2.615399
vn 1.114666 0.4822457 2.745351
vn 1.678876 -0.1483921 2.747988
vn 1.660075 -0.05131288 2.897015
vn 1.615976 -0.3618595 2.747897
vn 1.11504 0.4822447 2.748191
vn 1.681081 -0.1126225 2.747988
vn 1.660075 -0.05131288 2.897015
vn 1.679691 -0.0512614 2.748015
vn 1.661419 -0.1126743 2.897348
vn 1.602563 -0.05136086 3.035861
vn 1.60377 -0.1127223 3.036529
vn 1.659289 -0.1484435 2.896767
vn 1.678876 -0.1483921 2.747988
vn 1.615976 -0.3618595 2.747897
vn 1.511075 -0.05140208 3.15509
vn 1.512062 -0.1127635 3.156048
vn 1.601875 -0.1484914 3.035389
vn 1.598531 -0.3619054 2.880414
vn 1.11504 0.4822447 2.748191
vn 1.114612 0.4822436 2.75125
vn 1.547384 -0.361948 3.003896
vn 1.113556 0.4822428 2.753727
vn 1.391846 -0.0514337 3.246578
vn 1.392546 -0.1127952 3.247758
vn 1.510494 -0.1485325 3.154485
vn 1.391441 -0.1485641 3.245837
vn 1.466022 -0.3619847 3.109929
vn 1.1118 0.482242 2.756012
vn 1.359986 -0.3620128 3.191293
vn 1.109512 0.4822414 2.757765
vn 1.104006 -0.1128219 3.325075
vn 0.9546462 -0.1128153 3.305413
vn 0.9550003 -0.05145357 3.30409
vn 1.104 -0.05146038 3.323706
vn 1.253365 -0.1128151 3.30541
vn 1.104003 -0.1485908 3.322858
vn 0.9552044 -0.1485839 3.303267
vn 1.104 -0.3620365 3.259883
vn 1.253 -0.05145358 3.30409
vn 1.392546 -0.1127952 3.247758
vn 1.391846 -0.0514337 3.246578
vn 1.391441 -0.1485641 3.245837
vn 1.25281 -0.148584 3.303264
vn 1.359986 -0.3620128 3.191293
vn 1.236509 -0.3620304 3.242438
vn 1.109512 0.4822414 2.757765
vn 1.106849 0.482241 2.758865
vn 1.103991 0.4822409 2.759239
vn 0.9546462 -0.1128153 3.305413
vn 0.8154646 -0.1127954 3.247764
vn 0.8161547 -0.05143368 3.246578
vn 0.9550003 -0.05145357 3.30409
vn 0.9552044 -0.1485839 3.303267
vn 0.8165315 -0.1485641 3.245821
vn 0.9714909 -0.3620305 3.242438
vn 1.104 -0.3620365 3.259883
vn 1.103991 0.4822409 2.759239
vn 0.8480122 -0.3620127 3.191292
vn 1.101134 0.482241 2.758861
vn 1.098472 0.4822414 2.757756
vn 0.5465838 -0.112674 2.897359
vn 0.5269188 -0.1126225 2.748
vn 0.5283089 -0.0512614 2.748015
vn 0.5479251 -0.05131289 2.897015
vn 0.6042359 -0.1127222 3.03654
vn 0.6054369 -0.05136087 3.035861
vn 0.6959463 -0.1127636 3.156056
vn 0.6969251 -0.05140207 3.15509
vn 0.8154646 -0.1127954 3.247764
vn 0.8161547 -0.05143368 3.246578
vn 0.8165315 -0.1485641 3.245821
vn 0.6975036 -0.1485325 3.154483
vn 0.8480122 -0.3620127 3.191292
vn 0.6061392 -0.1484913 3.035414
vn 0.7419787 -0.3619846 3.10993
vn 1.098472 0.4822414 2.757756
vn 1.096188 0.482242 2.755999
vn 0.6606159 -0.361948 3.003896
vn 1.094435 0.4822428 2.753711
vn 0.5487131 -0.1484435 2.896774
vn 0.6094686 -0.3619054 2.880414
vn 1.093334 0.4822437 2.751048
vn 0.5291238 -0.1483921 2.747975
vn 0.547925 -0.05120989 2.599015
vn 0.5920241 -0.3618595 2.747908
vn 1.09296 0.4822447 2.748191
vn 0.548714 -0.1483407 2.599186
vn 0.6094692 -0.3618138 2.615399
vn 1.114666 0.4822457 2.745351
vn 1.11504 0.4822447 2.748191
vn 1.114612 0.4822436 2.75125
vn 1.113556 0.4822428 2.753727
vn 1.113565 0.4822465 2.742687
vn 1.111812 0.4822474 2.740399
vn 1.1118 0.482242 2.756012
vn 1.109512 0.4822414 2.757765
vn 1.109527 0.482248 2.738643
vn 1.106849 0.482241 2.758865
vn 1.106866 0.4822483 2.737538
vn 1.103991 0.4822409 2.759239
vn 1.104009 0.4822485 2.73716
vn 1.101134 0.482241 2.758861
vn 1.101151 0.4822483 2.737534
vn 1.098472 0.4822414 2.757756
vn 1.098488 0.482248 2.738634
vn 1.096188 0.482242 2.755999
vn 1.0962 0.4822474 2.740387
vn 1.094435 0.4822428 2.753711
vn 1.094444 0.4822465 2.742672
vn 1.093334 0.4822437 2.751048
vn 1.093339 0.4822457 2.745334
vn 1.09296 0.4822447 2.748191
vn 1.392541 -0.1124498 2.248227
vn 1.107156 -0.672332 2.744666
vn 1.512054 -0.1124815 2.339931
vn 1.106237 -0.6723317 2.743956
vn 1.25336 -0.1124301 2.190576
vn 1.105165 -0.6723316 2.743508
vn 1.103994 -0.1124232 2.170913
vn 1.104066 -0.6723316 2.743353
vn 0.9546401 -0.1124298 2.190576
vn 1.102863 -0.6723316 2.7435
vn 0.8154539 -0.1124498 2.24823
vn 1.101789 -0.6723317 2.743941
vn 0.6959375 -0.1124815 2.33994
vn 1.100865 -0.672332 2.744645
vn 1.106211 -0.6723344 2.75166
vn 1.105137 -0.6723346 2.7521
vn 1.103985 -0.6723347 2.752248
vn 1.102834 -0.6723346 2.752093
vn 1.101763 -0.6723344 2.751645
vn 1.100844 -0.6723342 2.750935
vn 1.100141 -0.6723338 2.750011
vn 1.100156 -0.6723324 2.745564
vn 1.0997 -0.6723335 2.748937
vn 1.099708 -0.6723328 2.746635
vn 1.099552 -0.6723331 2.747786
vn 0.8154646 -0.1127954 3.247764
vn 0.6959463 -0.1127636 3.156056
vn 0.9546462 -0.1128153 3.305413
vn 1.104006 -0.1128219 3.325075
vn 1.253365 -0.1128151 3.30541
vn 1.392546 -0.1127952 3.247758
vn 1.512062 -0.1127635 3.156048
vn 1.107135 -0.6723342 2.750956
vn 1.107859 -0.6723324 2.745589
vn 1.107844 -0.6723338 2.750037
vn 1.1083 -0.6723328 2.746664
vn 1.108292 -0.6723335 2.748966
vn 1.108448 -0.6723331 2.747815
vn 1.512054 -0.1124815 2.339931
vn 1.107156 -0.672332 2.744666
vn 1.107859 -0.6723324 2.745589
vn 1.603764 -0.1125229 2.459448
vn 1.1083 -0.6723328 2.746664
vn 1.661416 -0.1125709 2.598629
vn 1.108448 -0.6723331 2.747815
vn 1.681081 -0.1126225 2.747988
vn 1.108292 -0.6723335 2.748966
vn 1.661419 -0.1126743 2.897348
vn 1.107844 -0.6723338 2.750037
vn 1.60377 -0.1127223 3.036529
vn 1.107135 -0.6723342 2.750956
vn 1.512062 -0.1127635 3.156048
vn 0.6959463 -0.1127636 3.156056
vn 1.100844 -0.6723342 2.750935
vn 1.100141 -0.6723338 2.750011
vn 0.6042359 -0.1127222 3.03654
vn 1.0997 -0.6723335 2.748937
vn 0.5465838 -0.112674 2.897359
vn 1.099552 -0.6723331 2.747786
vn 0.5269188 -0.1126225 2.748
vn 1.099708 -0.6723328 2.746635
vn 0.5465807 -0.112571 2.59864
vn 1.100156 -0.6723324 2.745564
vn 0.6042298 -0.1125228 2.459459
vn 1.100865 -0.672332 2.744645
vn 0.6959375 -0.1124815 2.33994
vt 0.6643169 0.4203013
vt 0.6901846 0.4202976
vt 0.6901846 0.2745169
vt 0.7179442 0.2745157
vt 0.7179442 0.4202964
vt 0.6958814 0.1473014
vt 0.7457038 0.2745169
vt 0.7457038 0.4202976
vt 0.7179442 0.1473004
vt 0.6864513 0.09382087
vt 0.7179442 0.09381945
vt 0.7715719 0.2745206
vt 0.7715719 0.4203013
vt 0.7400073 0.1473014
vt 0.7605667 0.1473044
vt 0.7494376 0.09382087
vt 0.7179442 0.07984121
vt 0.7787849 0.09382509
vt 0.7494376 0.07984267
vt 0.7787849 0.07984686
vt 0.6643169 0.4203013
vt 0.6901846 0.2745169
vt 0.6643169 0.2745206
vt 0.6753221 0.1473044
vt 0.6958814 0.1473014
vt 0.6571039 0.09382509
vt 0.6864513 0.09382087
vt 0.6571039 0.07984686
vt 0.6864513 0.07984267
vt 0.7179442 0.09381945
vt 0.7179442 0.07984121
vt 0.07369027 0.0728498
vt 0.05534829 0.07285613
vt 0.05540271 0.2297304
vt 0.07374447 0.229724
vt 0.09759383 0.07284154
vt 0.09053957 0.3666224
vt 0.07596175 0.3666275
vt 0.09764846 0.2297157
vt 0.1254302 0.07283191
vt 0.06283513 0.4241692
vt 0.04202625 0.4241764
vt 0.1095379 0.3666158
vt 0.1254844 0.2297062
vt 0.1553023 0.0728216
vt 0.1553567 0.2296958
vt 0.131662 0.3666082
vt 0.1554039 0.3666
vt 0.1215339 0.4241489
vt 0.0899535 0.4241598
vt 0.06284011 0.4392112
vt 0.04203101 0.4392183
vt 0.08995872 0.4392017
vt 0.1215389 0.4391908
vt 0.1554288 0.4391791
vt 0.155424 0.4241372
vt 0.499227 0.07283193
vt 0.4693549 0.07282162
vt 0.4693005 0.2296958
vt 0.4991728 0.2297062
vt 0.5270634 0.07284155
vt 0.5270092 0.2297157
vt 0.5509669 0.07284981
vt 0.5509127 0.229724
vt 0.5693089 0.07285614
vt 0.5692545 0.2297304
vt 0.5486954 0.3666275
vt 0.5341176 0.3666224
vt 0.5826309 0.4241764
vt 0.5151193 0.3666158
vt 0.5618221 0.4241692
vt 0.5826262 0.4392183
vt 0.561817 0.4392111
vt 0.5347037 0.4241598
vt 0.5346989 0.4392017
vt 0.4929952 0.3666082
vt 0.5031233 0.4241489
vt 0.5031183 0.4391908
vt 0.4692534 0.3666
vt 0.4394284 0.2296855
vt 0.4692332 0.4241372
vt 0.4692284 0.4391791
vt 0.4693549 0.07282162
vt 0.4394284 0.2296855
vt 0.4693005 0.2296958
vt 0.4394828 0.07281129
vt 0.4115921 0.2296759
vt 0.4116469 0.07280166
vt 0.4455117 0.3665918
vt 0.4692534 0.3666
vt 0.4692332 0.4241372
vt 0.3876885 0.2296677
vt 0.3877429 0.07279341
vt 0.4233876 0.3665841
vt 0.4353435 0.4241255
vt 0.4692284 0.4391791
vt 0.4353385 0.4391674
vt 0.4037633 0.4241145
vt 0.4037581 0.4391565
vt 0.3693467 0.2296613
vt 0.3694012 0.07278706
vt 0.4043895 0.3665776
vt 0.3898115 0.3665726
vt 0.3766443 0.4241052
vt 0.3766393 0.4391471
vt 0.3558356 0.424098
vt 0.3558306 0.4391399
vt 0.83965 0.5797073
vt 0.8118899 0.5797086
vt 0.8118899 0.7254919
vt 0.83965 0.7254906
vt 0.8674102 0.5797086
vt 0.83965 0.8527232
vt 0.8175869 0.8527243
vt 0.83965 0.90618
vt 0.8674102 0.7254919
vt 0.8932787 0.5797123
vt 0.8932787 0.7254956
vt 0.8822733 0.8527272
vt 0.8617136 0.8527243
vt 0.9004918 0.9061855
vt 0.8711439 0.9061815
vt 0.9004918 0.920164
vt 0.8711439 0.9201599
vt 0.83965 0.9201585
vt 0.8118899 0.5797086
vt 0.7860218 0.5797123
vt 0.7860218 0.7254956
vt 0.8118899 0.7254919
vt 0.8175869 0.8527243
vt 0.7970272 0.8527272
vt 0.8081565 0.9061815
vt 0.83965 0.90618
vt 0.83965 0.9201585
vt 0.7788087 0.9061855
vt 0.8081565 0.9201599
vt 0.7788087 0.920164
vt 0.1851744 0.07281128
vt 0.1553023 0.0728216
vt 0.1553567 0.2296958
vt 0.1852288 0.2296855
vt 0.2130107 0.07280165
vt 0.2130651 0.2296759
vt 0.2369143 0.07279339
vt 0.2369687 0.2296677
vt 0.2552561 0.07278705
vt 0.2553105 0.2296613
vt 0.2348457 0.3665726
vt 0.2202677 0.3665776
vt 0.2688216 0.424098
vt 0.2012696 0.3665842
vt 0.2480129 0.4241052
vt 0.2688266 0.4391399
vt 0.2480179 0.4391471
vt 0.2208939 0.4241145
vt 0.2208991 0.4391565
vt 0.1791455 0.3665918
vt 0.1893137 0.4241255
vt 0.1893187 0.4391674
vt 0.1554039 0.3666
vt 0.1254844 0.2297062
vt 0.155424 0.4241372
vt 0.1554288 0.4391791
vt 0.131662 0.3666082
vt 0.1215339 0.4241489
vt 0.6808648 0.7163066
vt 0.684848 0.6860515
vt 0.6808652 0.6557965
vt 0.6691868 0.6276034
vt 0.6691868 0.7444999
vt 0.6506099 0.7687095
vt 0.6506099 0.6033932
vt 0.6264001 0.5848165
vt 0.6264001 0.7872867
vt 0.5982067 0.5731386
vt 0.5982067 0.7989647
vt 0.5679517 0.5691548
vt 0.5679517 0.8029477
vt 0.5376971 0.5731384
vt 0.5376971 0.7989647
vt 0.5095037 0.5848165
vt 0.5095037 0.7872867
vt 0.4852936 0.6033932
vt 0.4852936 0.7687095
vt 0.4667166 0.6276034
vt 0.4667166 0.7444995
vt 0.455039 0.6557965
vt 0.4550386 0.7163066
vt 0.4510553 0.6860515
vt 0.2874504 0.5749714
vt 0.3057673 0.5947149
vt 0.3089874 0.5914971
vt 0.2851741 0.5789132
vt 0.2623703 0.5645829
vt 0.2611921 0.5689795
vt 0.2354562 0.5610399
vt 0.2354562 0.5655913
vt 0.2085422 0.5645829
vt 0.2097208 0.5689795
vt 0.1834624 0.5749714
vt 0.1857388 0.5789132
vt 0.1619259 0.5914971
vt 0.1651451 0.5947152
vt 0.2851741 0.7511389
vt 0.2611921 0.7610726
vt 0.2354562 0.7644607
vt 0.2097208 0.7610729
vt 0.1857388 0.7511393
vt 0.1651451 0.7353371
vt 0.1493436 0.7147435
vt 0.1493436 0.6153088
vt 0.1394093 0.6907617
vt 0.1394093 0.6392904
vt 0.1360218 0.6650261
vt 0.1834624 0.7550837
vt 0.1619259 0.7385582
vt 0.2085422 0.7654722
vt 0.2354562 0.7690154
vt 0.2623703 0.7654722
vt 0.2874504 0.7550837
vt 0.3089874 0.7385582
vt 0.3057673 0.7353371
vt 0.3215693 0.6153088
vt 0.3215693 0.7147435
vt 0.3315032 0.6392904
vt 0.3315032 0.6907617
vt 0.3348911 0.6650261
vt 0.5509669 0.07284981
vt 0.5473955 0.06783839
vt 0.5245382 0.06783049
vt 0.5270634 0.07284155
vt 0.4979209 0.06782129
vt 0.499227 0.07283193
vt 0.4693567 0.06781141
vt 0.4693549 0.07282162
vt 0.4407926 0.06780155
vt 0.4394828 0.07281129
vt 0.414175 0.06779236
vt 0.4116469 0.07280166
vt 0.391318 0.06778444
vt 0.3877429 0.07279341
vt 0.2369143 0.07279339
vt 0.2333392 0.06778443
vt 0.2104822 0.06779234
vt 0.2130107 0.07280165
vt 0.1838646 0.06780154
vt 0.1851744 0.07281128
vt 0.1553005 0.0678114
vt 0.1553023 0.0728216
vt 0.1267363 0.06782128
vt 0.1254302 0.07283191
vt 0.100119 0.06783047
vt 0.09759383 0.07284154
vt 0.07726195 0.06783837
vt 0.07369027 0.0728498
usemtl TexturesCom_WoodFine0038_1_seamless_S
f 258/258/258 257/257/257 256/256/256
f 258/258/258 259/259/259 257/257/257
f 259/259/259 260/260/260 257/257/257
f 258/258/258 261/261/261 259/259/259
f 259/259/259 262/262/262 260/260/260
f 262/262/262 263/263/263 260/260/260
f 261/261/261 264/264/264 259/259/259
f 259/259/259 264/264/264 262/262/262
f 261/261/261 265/265/265 264/264/264
f 265/265/265 266/266/266 264/264/264
f 262/262/262 267/267/267 263/263/263
f 267/267/267 268/268/268 263/263/263
f 264/264/264 269/269/269 262/262/262
f 262/262/262 269/269/269 267/267/267
f 264/264/264 266/266/266 269/269/269
f 269/269/269 270/270/270 267/267/267
f 266/266/266 271/271/271 269/269/269
f 269/269/269 271/271/271 270/270/270
f 266/266/266 272/272/272 271/271/271
f 271/271/271 273/273/273 270/270/270
f 272/272/272 274/274/274 271/271/271
f 271/271/271 274/274/274 273/273/273
f 274/274/274 275/275/275 273/273/273
f 278/278/278 277/277/277 276/276/276
f 278/278/278 279/279/279 277/277/277
f 279/279/279 280/280/280 277/277/277
f 279/279/279 281/281/281 280/280/280
f 281/281/281 282/282/282 280/280/280
f 281/281/281 283/283/283 282/282/282
f 283/283/283 284/284/284 282/282/282
f 282/282/282 284/284/284 285/285/285
f 284/284/284 286/286/286 285/285/285
f 289/289/289 288/288/288 287/287/287
f 290/290/290 289/289/289 287/287/287
f 290/290/290 287/287/287 291/291/291
f 290/290/290 292/292/292 289/289/289
f 292/292/292 293/293/293 289/289/289
f 294/294/294 290/290/290 291/291/291
f 294/294/294 291/291/291 295/295/295
f 292/292/292 296/296/296 293/293/293
f 296/296/296 297/297/297 293/293/293
f 298/298/298 292/292/292 290/290/290
f 294/294/294 298/298/298 290/290/290
f 299/299/299 294/294/294 295/295/295
f 299/299/299 295/295/295 300/300/300
f 301/301/301 299/299/299 300/300/300
f 299/299/299 302/302/302 294/294/294
f 302/302/302 298/298/298 294/294/294
f 303/303/303 302/302/302 299/299/299
f 302/302/302 304/304/304 298/298/298
f 298/298/298 305/305/305 292/292/292
f 305/305/305 296/296/296 292/292/292
f 304/304/304 305/305/305 298/298/298
f 296/296/296 306/306/306 297/297/297
f 306/306/306 307/307/307 297/297/297
f 308/308/308 306/306/306 296/296/296
f 305/305/305 308/308/308 296/296/296
f 309/309/309 308/308/308 305/305/305
f 304/304/304 309/309/309 305/305/305
f 310/310/310 309/309/309 304/304/304
f 311/311/311 310/310/310 304/304/304
f 314/314/314 313/313/313 312/312/312
f 315/315/315 314/314/314 312/312/312
f 315/315/315 312/312/312 316/316/316
f 317/317/317 315/315/315 316/316/316
f 317/317/317 316/316/316 318/318/318
f 319/319/319 317/317/317 318/318/318
f 319/319/319 318/318/318 320/320/320
f 321/321/321 319/319/319 320/320/320
f 321/321/321 322/322/322 319/319/319
f 322/322/322 323/323/323 319/319/319
f 319/319/319 323/323/323 317/317/317
f 322/322/322 324/324/324 323/323/323
f 317/317/317 325/325/325 315/315/315
f 323/323/323 325/325/325 317/317/317
f 324/324/324 326/326/326 323/323/323
f 323/323/323 326/326/326 325/325/325
f 324/324/324 327/327/327 326/326/326
f 327/327/327 328/328/328 326/326/326
f 326/326/326 328/328/328 329/329/329
f 326/326/326 329/329/329 325/325/325
f 328/328/328 330/330/330 329/329/329
f 325/325/325 331/331/331 315/315/315
f 325/325/325 329/329/329 331/331/331
f 315/315/315 331/331/331 314/314/314
f 329/329/329 330/330/330 332/332/332
f 329/329/329 332/332/332 331/331/331
f 330/330/330 333/333/333 332/332/332
f 331/331/331 334/334/334 314/314/314
f 331/331/331 332/332/332 334/334/334
f 314/314/314 334/334/334 335/335/335
f 332/332/332 336/336/336 334/334/334
f 332/332/332 333/333/333 336/336/336
f 333/333/333 337/337/337 336/336/336
f 340/340/340 339/339/339 338/338/338
f 339/339/339 341/341/341 338/338/338
f 339/339/339 342/342/342 341/341/341
f 342/342/342 343/343/343 341/341/341
f 339/339/339 344/344/344 342/342/342
f 345/345/345 344/344/344 339/339/339
f 345/345/345 346/346/346 344/344/344
f 342/342/342 347/347/347 343/343/343
f 347/347/347 348/348/348 343/343/343
f 344/344/344 349/349/349 342/342/342
f 342/342/342 349/349/349 347/347/347
f 346/346/346 350/350/350 344/344/344
f 344/344/344 350/350/350 349/349/349
f 346/346/346 351/351/351 350/350/350
f 351/351/351 352/352/352 350/350/350
f 350/350/350 352/352/352 353/353/353
f 350/350/350 353/353/353 349/349/349
f 352/352/352 354/354/354 353/353/353
f 347/347/347 355/355/355 348/348/348
f 355/355/355 356/356/356 348/348/348
f 349/349/349 357/357/357 347/347/347
f 347/347/347 357/357/357 355/355/355
f 349/349/349 353/353/353 357/357/357
f 357/357/357 358/358/358 355/355/355
f 353/353/353 354/354/354 359/359/359
f 353/353/353 359/359/359 357/357/357
f 357/357/357 359/359/359 358/358/358
f 354/354/354 360/360/360 359/359/359
f 359/359/359 361/361/361 358/358/358
f 359/359/359 360/360/360 361/361/361
f 360/360/360 362/362/362 361/361/361
f 365/365/365 364/364/364 363/363/363
f 366/366/366 365/365/365 363/363/363
f 366/366/366 363/363/363 367/367/367
f 366/366/366 368/368/368 365/365/365
f 368/368/368 369/369/369 365/365/365
f 368/368/368 370/370/370 369/369/369
f 371/371/371 366/366/366 367/367/367
f 371/371/371 367/367/367 372/372/372
f 373/373/373 371/371/371 372/372/372
f 373/373/373 374/374/374 371/371/371
f 371/371/371 375/375/375 366/366/366
f 374/374/374 375/375/375 371/371/371
f 375/375/375 368/368/368 366/366/366
f 374/374/374 376/376/376 375/375/375
f 375/375/375 377/377/377 368/368/368
f 376/376/376 377/377/377 375/375/375
f 377/377/377 370/370/370 368/368/368
f 376/376/376 378/378/378 377/377/377
f 378/378/378 379/379/379 377/377/377
f 377/377/377 379/379/379 370/370/370
f 379/379/379 380/380/380 370/370/370
f 383/383/383 382/382/382 381/381/381
f 384/384/384 383/383/383 381/381/381
f 384/384/384 385/385/385 383/383/383
f 385/385/385 386/386/386 383/383/383
f 385/385/385 387/387/387 386/386/386
f 388/388/388 387/387/387 385/385/385
f 388/388/388 389/389/389 387/387/387
f 387/387/387 390/390/390 386/386/386
f 389/389/389 391/391/391 387/387/387
f 387/387/387 391/391/391 390/390/390
f 391/391/391 392/392/392 390/390/390
f 395/395/395 394/394/394 393/393/393
f 396/396/396 395/395/395 393/393/393
f 396/396/396 393/393/393 397/397/397
f 398/398/398 396/396/396 397/397/397
f 398/398/398 397/397/397 399/399/399
f 400/400/400 398/398/398 399/399/399
f 400/400/400 399/399/399 401/401/401
f 402/402/402 400/400/400 401/401/401
f 402/402/402 403/403/403 400/400/400
f 403/403/403 404/404/404 400/400/400
f 400/400/400 404/404/404 398/398/398
f 403/403/403 405/405/405 404/404/404
f 398/398/398 406/406/406 396/396/396
f 404/404/404 406/406/406 398/398/398
f 405/405/405 407/407/407 404/404/404
f 404/404/404 407/407/407 406/406/406
f 405/405/405 408/408/408 407/407/407
f 408/408/408 409/409/409 407/407/407
f 407/407/407 409/409/409 410/410/410
f 407/407/407 410/410/410 406/406/406
f 409/409/409 411/411/411 410/410/410
f 406/406/406 412/412/412 396/396/396
f 406/406/406 410/410/410 412/412/412
f 396/396/396 412/412/412 395/395/395
f 410/410/410 411/411/411 413/413/413
f 410/410/410 413/413/413 412/412/412
f 411/411/411 414/414/414 413/413/413
f 412/412/412 415/415/415 395/395/395
f 412/412/412 413/413/413 415/415/415
f 395/395/395 415/415/415 416/416/416
f 413/413/413 414/414/414 417/417/417
f 413/413/413 417/417/417 415/415/415
f 414/414/414 418/418/418 417/417/417
f 415/415/415 417/417/417 419/419/419
f 417/417/417 420/420/420 419/419/419
f 423/423/423 422/422/422 421/421/421
f 421/421/421 424/424/424 423/423/423
f 421/421/421 425/425/425 424/424/424
f 425/425/425 426/426/426 424/424/424
f 426/426/426 427/427/427 424/424/424
f 426/426/426 428/428/428 427/427/427
f 426/426/426 429/429/429 428/428/428
f 429/429/429 430/430/430 428/428/428
f 429/429/429 431/431/431 430/430/430
f 431/431/431 432/432/432 430/430/430
f 431/431/431 433/433/433 432/432/432
f 433/433/433 434/434/434 432/432/432
f 433/433/433 435/435/435 434/434/434
f 435/435/435 436/436/436 434/434/434
f 435/435/435 437/437/437 436/436/436
f 437/437/437 438/438/438 436/436/436
f 437/437/437 439/439/439 438/438/438
f 439/439/439 440/440/440 438/438/438
f 439/439/439 441/441/441 440/440/440
f 441/441/441 442/442/442 440/440/440
f 441/441/441 443/443/443 442/442/442
f 443/443/443 444/444/444 442/442/442
f 447/447/447 446/446/446 445/445/445
f 446/446/446 448/448/448 445/445/445
f 445/445/445 448/448/448 449/449/449
f 448/448/448 450/450/450 449/449/449
f 449/449/449 450/450/450 451/451/451
f 450/450/450 452/452/452 451/451/451
f 451/451/451 452/452/452 453/453/453
f 452/452/452 454/454/454 453/453/453
f 453/453/453 454/454/454 455/455/455
f 454/454/454 456/456/456 455/455/455
f 455/455/455 456/456/456 457/457/457
f 456/456/456 458/458/458 457/457/457
f 459/459/459 448/448/448 446/446/446
f 460/460/460 450/450/450 448/448/448
f 459/459/459 460/460/460 448/448/448
f 461/461/461 452/452/452 450/450/450
f 460/460/460 461/461/461 450/450/450
f 462/462/462 454/454/454 452/452/452
f 461/461/461 462/462/462 452/452/452
f 463/463/463 456/456/456 454/454/454
f 462/462/462 463/463/463 454/454/454
f 464/464/464 458/458/458 456/456/456
f 463/463/463 464/464/464 456/456/456
f 464/464/464 465/465/465 458/458/458
f 465/465/465 466/466/466 458/458/458
f 465/465/465 467/467/467 466/466/466
f 467/467/467 468/468/468 466/466/466
f 467/467/467 469/469/469 468/468/468
f 464/464/464 463/463/463 470/470/470
f 471/471/471 464/464/464 470/470/470
f 470/470/470 463/463/463 472/472/472
f 463/463/463 462/462/462 472/472/472
f 472/472/472 462/462/462 473/473/473
f 462/462/462 461/461/461 473/473/473
f 473/473/473 461/461/461 474/474/474
f 461/461/461 460/460/460 474/474/474
f 474/474/474 460/460/460 475/475/475
f 460/460/460 459/459/459 475/475/475
f 475/475/475 459/459/459 476/476/476
f 459/459/459 477/477/477 476/476/476
f 477/477/477 459/459/459 446/446/446
f 477/477/477 446/446/446 478/478/478
f 479/479/479 477/477/477 478/478/478
f 479/479/479 478/478/478 480/480/480
f 481/481/481 479/479/479 480/480/480
f 480/480/480 482/482/482 481/481/481
f 485/485/485 484/484/484 483/483/483
f 486/486/486 485/485/485 483/483/483
f 487/487/487 485/485/485 486/486/486
f 488/488/488 487/487/487 486/486/486
f 489/489/489 487/487/487 488/488/488
f 490/490/490 489/489/489 488/488/488
f 491/491/491 489/489/489 490/490/490
f 492/492/492 491/491/491 490/490/490
f 493/493/493 491/491/491 492/492/492
f 494/494/494 493/493/493 492/492/492
f 495/495/495 493/493/493 494/494/494
f 496/496/496 495/495/495 494/494/494
f 499/499/499 498/498/498 497/497/497
f 500/500/500 499/499/499 497/497/497
f 501/501/501 499/499/499 500/500/500
f 502/502/502 501/501/501 500/500/500
f 503/503/503 501/501/501 502/502/502
f 504/504/504 503/503/503 502/502/502
f 505/505/505 503/503/503 504/504/504
f 506/506/506 505/505/505 504/504/504
f 507/507/507 505/505/505 506/506/506
f 508/508/508 507/507/507 506/506/506
f 509/509/509 507/507/507 508/508/508
f 510/510/510 509/509/509 508/508/508
