mtllib material.mtl
usemtl material_0
v 0.01353133 0.00472457 0.10467740
v 0.01183513 0.00375655 0.11679020
v 0.00817126 0.00699439 0.11733570
v 0.00947611 0.01182591 0.10495290
v 0.00395516 0.01129654 0.11681500
v 0.00274129 0.01670419 0.10513170
v 0.01039084 0.01554404 0.09201282
v -0.00104391 0.01100980 0.11733480
v 0.00158082 0.02222824 0.09234227
v 0.01340301 0.02109892 0.07361779
v -0.00539186 0.01918114 0.10552430
v -0.00652659 0.01122578 0.11679100
v 0.00198898 0.03088642 0.07397673
v 0.01851210 0.02747280 0.05122649
v 0.00400826 0.04030301 0.05254390
v -0.00924884 0.02617171 0.09312546
v -0.01356262 0.01601242 0.10479440
v -0.01031904 0.00703620 0.11728810
v -0.01266583 0.03545628 0.07393859
v -0.01998487 0.02075071 0.09159157
v -0.02028735 0.01143508 0.10468870
v -0.01429739 0.00357663 0.11670130
v -0.02356809 0.00352610 0.10331790
v -0.02863395 0.01466954 0.09148858
v -0.02672702 0.02818934 0.07397099
v -0.01456481 0.04527567 0.05171503
v -0.03268145 0.03656157 0.05303463
v 0.00519619 0.04702999 0.02551740
v -0.01665399 0.05243833 0.02468685
v 0.01236543 0.05597723 -0.00750333
v 0.03122879 0.03845894 -0.00776987
v -0.01394786 0.06214310 -0.00858412
v 0.03597244 0.04223526 -0.02945046
v 0.01536272 0.06013139 -0.02923932
v -0.01235068 0.06554133 -0.03048312
v 0.04197868 0.04717284 -0.05111418
v 0.01907048 0.06583612 -0.05095833
v 0.04899313 0.05101785 -0.07437578
v 0.02395935 0.06921280 -0.07436527
v 0.04471105 0.04748331 -0.10220620
v -0.01074442 0.07058091 -0.05236504
v 0.02003897 0.06339967 -0.10228630
v -0.00841358 0.07520226 -0.07579206
v -0.00843368 0.06968655 -0.10229080
v -0.02330801 -0.00326870 0.10295470
v -0.01382786 -0.00222469 0.11722430
v -0.01460933 -0.00707601 0.11671060
v -0.01849209 0.00463011 -0.12200040
v -0.03532566 -0.00357899 -0.11991460
v -0.01608828 -0.00214138 -0.12200040
v -0.03559501 0.00955128 -0.11993660
v -0.01375255 0.01054039 -0.12200050
v -0.05108097 -0.00526955 -0.11601040
v -0.02674793 0.02188968 -0.12002520
v -0.00944016 0.01721382 -0.12200050
v -0.05118309 0.01453305 -0.11414420
v -0.06443935 -0.00684903 -0.10212430
v -0.06361620 0.01897703 -0.10208620
v -0.04073813 0.03371405 -0.11410290
v -0.05254308 0.04350664 -0.10216720
v -0.01638656 0.02992798 -0.11997610
v -0.00188101 0.01726192 -0.12200050
v -0.02431115 0.04497609 -0.11400480
v -0.00290612 0.03494903 -0.12012800
v 0.00672414 0.01772002 -0.12200050
v -0.00429804 0.05395547 -0.11448850
v -0.03429835 0.05765590 -0.10203320
v 0.01116000 0.03177195 -0.12004540
v 0.01131049 0.01178896 -0.12200050
v 0.01736661 0.04901194 -0.11417790
v 0.02314590 0.02392756 -0.12004730
v 0.01726393 0.00574525 -0.12200050
v 0.03419128 0.03675657 -0.11426290
v 0.02866223 0.01081410 -0.12006030
v 0.01641475 -0.00229124 -0.12200040
v 0.04335779 0.01684462 -0.11415490
v 0.05869854 0.02180516 -0.10201680
v 0.03155554 -0.00383211 -0.12006670
v 0.01670272 -0.00943719 -0.12200040
v 0.04781100 -0.00577911 -0.11418210
v 0.06446560 -0.00737562 -0.10203200
v 0.02830685 -0.01754345 -0.11997430
v 0.00924284 -0.01390799 -0.12200040
v 0.03941536 -0.02601431 -0.11608440
v 0.05257285 -0.03336359 -0.10205420
v 0.01942151 -0.02715589 -0.11997800
v 0.00582106 -0.01918998 -0.12200040
v 0.02862638 -0.04157161 -0.11594470
v 0.03783802 -0.05349118 -0.10210750
v 0.00917169 -0.03405304 -0.11998200
v -0.00176884 -0.01778905 -0.12200040
v 0.01436270 -0.05230238 -0.11590780
v 0.01897356 -0.06722536 -0.10225990
v -0.00267719 -0.03537266 -0.11996990
v -0.00771962 -0.01921408 -0.12200040
v -0.00393623 -0.05439507 -0.11586270
v -0.00527695 -0.07056550 -0.10229990
v -0.01406991 -0.03300079 -0.11997210
v -0.01240330 -0.01353829 -0.12200040
v -0.02157563 -0.05082347 -0.11587110
v -0.02823420 -0.06595707 -0.10245890
v -0.02449718 -0.02690490 -0.11999530
v -0.01799084 -0.00908588 -0.12200040
v -0.03763942 -0.04137317 -0.11595720
v -0.05240294 -0.05567919 -0.10245300
v -0.03386956 -0.01735402 -0.11999620
v -0.01608828 -0.00214138 -0.12200040
v -0.03532566 -0.00357899 -0.11991460
v -0.05231002 -0.02630736 -0.11609630
v -0.06800120 -0.03400584 -0.10270830
v -0.05108097 -0.00526955 -0.11601040
v -0.06443935 -0.00684903 -0.10212430
v 0.00065779 -0.00186305 0.12200050
v -0.01382786 -0.00222469 0.11722430
v -0.01429739 0.00357663 0.11670130
v -0.01031904 0.00703620 0.11728810
v -0.00652659 0.01122578 0.11679100
v -0.00104391 0.01100980 0.11733480
v 0.00395516 0.01129654 0.11681500
v 0.00817126 0.00699439 0.11733570
v 0.01183513 0.00375655 0.11679020
v 0.01169640 -0.00221779 0.11733750
v 0.01206711 -0.00717992 0.11673190
v 0.00785471 -0.01110430 0.11736920
v 0.00465560 -0.01531224 0.11675590
v -0.00101708 -0.01480769 0.11740930
v -0.01460933 -0.00707601 0.11671060
v -0.00999584 -0.01118516 0.11735720
v -0.00725021 -0.01532904 0.11676040
v -0.03038257 -0.01283335 0.08973813
v -0.02299220 -0.01031959 0.10371820
v -0.01915677 -0.01661247 0.10419040
v -0.00999584 -0.01118516 0.11735720
v -0.00725021 -0.01532904 0.11676040
v -0.01325969 -0.02174495 0.10483220
v -0.02619977 -0.02072963 0.09037175
v -0.00101708 -0.01480769 0.11740930
v -0.01941267 -0.02803015 0.09144941
v -0.00567499 -0.02248989 0.10448280
v 0.00465560 -0.01531224 0.11675590
v -0.00978837 -0.02840705 0.09057346
v -0.02553862 -0.03578012 0.07406051
v -0.03562891 -0.02801285 0.07359806
v -0.04491536 -0.03619428 0.05257880
v -0.01297906 -0.03593121 0.07346444
v -0.00006142 -0.02761468 0.09101535
v -0.00091413 -0.03443784 0.07356369
v -0.03082968 -0.04423696 0.05227024
v -0.01515820 -0.04470452 0.05099841
v -0.05255850 -0.04253841 0.02589923
v -0.06237429 -0.02546008 0.02484509
v -0.06922370 -0.02723232 -0.00937530
v -0.03617590 -0.05206466 0.02600825
v -0.05548766 -0.04917513 -0.00708112
v -0.07040093 -0.02908135 -0.02979875
v -0.05582089 -0.05196689 -0.02828667
v -0.03569226 -0.06111773 -0.00819711
v -0.03380045 -0.06296567 -0.02867025
v -0.00031803 -0.04227619 0.05057463
v 0.00802299 -0.02655408 0.07311542
v 0.01229587 -0.03439729 0.05052110
v -0.01705530 -0.05207647 0.02506825
v 0.00068286 -0.04788541 0.02473319
v 0.01471637 -0.03902620 0.02442505
v 0.00737647 -0.05494832 -0.00709975
v -0.01246828 -0.06015186 -0.00835767
v -0.01085601 -0.06431179 -0.02876614
v 0.01055172 -0.05818085 -0.02829059
v -0.03220532 -0.06606036 -0.04912743
v -0.05706090 -0.05595766 -0.04947569
v -0.05844551 -0.05934712 -0.07319026
v -0.00916401 -0.06991940 -0.04915871
v 0.01434612 -0.06276286 -0.04946492
v -0.03234199 -0.06992118 -0.07264996
v -0.00797913 -0.07465597 -0.07244889
v 0.01922132 -0.06938908 -0.07234630
v 0.03434958 -0.04880508 -0.04955592
v 0.02892713 -0.04605381 -0.02917082
v 0.04077876 -0.05478654 -0.07223120
v 0.05545562 -0.03443678 -0.07223025
v 0.07042332 -0.00786058 -0.07399803
v -0.04123679 -0.01715868 0.07298692
v -0.05265380 -0.02221190 0.05113415
v -0.04058122 -0.00536047 0.07265071
v -0.05291799 -0.00642715 0.05140080
v -0.02956549 -0.00441407 0.08835980
v -0.06113134 -0.00660434 0.02515660
v -0.06582072 -0.00521619 -0.00876916
v -0.06677450 -0.00515251 -0.02895890
v -0.06880786 -0.00517159 -0.04913288
v -0.07279488 -0.03159270 -0.05020628
v -0.07013959 -0.00719977 -0.07229400
v -0.07473645 -0.03348874 -0.07167566
v -0.03152491 0.00343110 0.08881505
v -0.02330801 -0.00326870 0.10295470
v -0.02956549 -0.00441407 0.08835980
v -0.03816790 0.01966850 0.07361253
v -0.04020616 0.00556689 0.07256122
v -0.04058122 -0.00536047 0.07265071
v -0.04741614 0.02548048 0.05177430
v -0.05034268 0.00870481 0.04952930
v -0.05291799 -0.00642715 0.05140080
v -0.03777703 0.04321932 0.02633368
v -0.05885785 0.01126703 0.02394176
v -0.06113134 -0.00660434 0.02515660
v -0.05418303 0.03028973 0.02533842
v -0.03901393 0.05213643 -0.00656755
v -0.06514668 0.01470320 -0.00762609
v -0.06582072 -0.00521619 -0.00876916
v -0.05776190 0.03682096 -0.00737437
v -0.03749630 0.05515320 -0.02799742
v -0.06625144 0.01625280 -0.02864402
v -0.06677450 -0.00515251 -0.02895890
v -0.05772359 0.03979842 -0.02884624
v -0.03639340 0.05946669 -0.04941058
v -0.06851482 0.01822839 -0.04964558
v -0.06880786 -0.00517159 -0.04913288
v -0.05864086 0.04379336 -0.05030140
v -0.03732268 0.06231462 -0.07264149
v -0.05883997 0.04674330 -0.07362705
v -0.06981624 0.02030787 -0.07293099
v -0.07013959 -0.00719977 -0.07229400
v 0.02449566 -0.04425023 -0.00876981
v 0.03308782 -0.02613063 -0.00717971
v 0.02339976 -0.02283213 0.02401108
v 0.03891569 -0.02845780 -0.02788139
v 0.02020900 -0.02038532 0.04989573
v 0.04605689 -0.03147256 -0.04856694
v 0.06117112 -0.00736957 -0.04988645
v 0.05229198 -0.00715367 -0.02887267
v 0.04511641 -0.00707636 -0.00784251
v 0.03230033 -0.00588504 0.02325434
v 0.01423594 -0.01629617 0.07299052
v 0.02672510 -0.00502818 0.04899552
v 0.01897512 -0.00472564 0.07266676
v 0.04752852 0.01953957 -0.02888438
v 0.04113579 0.01770710 -0.00768581
v 0.03094517 0.01390375 0.02400172
v 0.02738607 0.01108896 0.05027840
v 0.02004285 0.00827790 0.07327489
v 0.05549370 0.02189125 -0.05006644
v 0.01442291 -0.00438436 0.09026726
v 0.01534148 0.00597968 0.09150525
v 0.01116121 -0.01315047 0.08972181
v 0.00613621 -0.02047046 0.08982529
v 0.02158063 0.03215177 0.02456790
v 0.01367021 -0.00323527 0.10402780
v 0.01169640 -0.00221779 0.11733750
v 0.06422739 0.02338551 -0.07395484
v 0.01150197 -0.01045455 0.10373260
v 0.01206711 -0.00717992 0.11673190
v 0.00740018 -0.01649166 0.10387680
v 0.00785471 -0.01110430 0.11736920
v 0.00194726 -0.02154285 0.10459920
v -0.01382786 -0.00222469 0.11722430
v 0.00672414 0.01772002 -0.12200050
v -0.00188101 0.01726192 -0.12200050
v -0.00156649 -0.00181087 -0.12200040
v 0.01131049 0.01178896 -0.12200050
v -0.00944016 0.01721382 -0.12200050
v 0.01726393 0.00574525 -0.12200050
v -0.01375255 0.01054039 -0.12200050
v 0.01641475 -0.00229124 -0.12200040
v -0.01849209 0.00463011 -0.12200040
v 0.01670272 -0.00943719 -0.12200040
v -0.01608828 -0.00214138 -0.12200040
v 0.00924284 -0.01390799 -0.12200040
v -0.01799084 -0.00908588 -0.12200040
v 0.00582106 -0.01918998 -0.12200040
v -0.01240330 -0.01353829 -0.12200040
v -0.00176884 -0.01778905 -0.12200040
v -0.00771962 -0.01921408 -0.12200040
vn 0.95647530 0.24207290 0.16295880
vn 0.82632680 0.26156900 0.49876410
vn 0.54849180 0.51300420 0.66029040
vn 0.72730040 0.63974660 0.24851230
vn 0.35660940 0.70045640 0.61821570
vn 0.43060080 0.83015910 0.35414500
vn 0.74134490 0.60716170 0.28594120
vn -0.00081406 0.63874270 0.76942000
vn 0.45481580 0.81607970 0.35659010
vn 0.74261620 0.58235500 0.33073240
vn -0.03028548 0.87220760 0.48819750
vn -0.29419980 0.62374750 0.72414460
vn 0.44969260 0.80963920 0.37717520
vn 0.76494820 0.59203680 0.25366630
vn 0.45528790 0.84099970 0.29228820
vn -0.06820296 0.88041110 0.46928090
vn -0.43024030 0.72845510 0.53314760
vn -0.44726770 0.39060930 0.80459680
vn -0.08695468 0.89339330 0.44078030
vn -0.46403520 0.74135070 0.48484080
vn -0.67417540 0.48334210 0.55845140
vn -0.65722380 0.16697640 0.73496650
vn -0.84477890 0.07721381 0.52951550
vn -0.73279960 0.43524870 0.52303270
vn -0.47166880 0.76016200 0.44685820
vn -0.08312751 0.94075010 0.32875390
vn -0.48186670 0.80437550 0.34754070
vn 0.43793820 0.85289390 0.28422190
vn -0.09223260 0.95636190 0.27724560
vn 0.43984450 0.85351380 0.27937610
vn 0.75777420 0.57743110 0.30389410
vn -0.07075439 0.97157480 0.22591220
vn 0.74409650 0.59459210 0.30459930
vn 0.41396160 0.87182610 0.26183060
vn -0.08906326 0.97700890 0.19370460
vn 0.72300870 0.61372570 0.31717370
vn 0.38179890 0.88662670 0.26100340
vn 0.75330040 0.65714140 0.02652752
vn 0.40355430 0.91494170 -0.00506709
vn 0.67624350 0.60750340 -0.41669460
vn -0.10604610 0.97538710 0.19332400
vn 0.34821220 0.83672340 -0.42266080
vn -0.10048930 0.99404550 -0.04213479
vn -0.11226010 0.89869780 -0.42395760
vn -0.87372800 -0.02029471 0.48599130
vn -0.60227790 -0.00450103 0.79827370
vn -0.64745040 -0.20207460 0.73482910
vn -0.08079906 0.01882512 -0.99655260
vn -0.20420190 0.01442018 -0.97882250
vn -0.06103840 -0.00279356 -0.99813160
vn -0.23298890 0.08993754 -0.96831150
vn -0.05299426 0.04410551 -0.99762030
vn -0.53540440 0.04683424 -0.84329630
vn -0.18930020 0.17348620 -0.96647190
vn -0.04284380 0.07332040 -0.99638770
vn -0.53758510 0.15100660 -0.82957770
vn -0.91411070 0.07973091 -0.39754820
vn -0.89194360 0.20654710 -0.40221260
vn -0.39614660 0.33382640 -0.85535240
vn -0.70978580 0.56048130 -0.42669070
vn -0.13146940 0.22561650 -0.96530460
vn -0.00408125 0.06402279 -0.99794000
vn -0.25172750 0.43621670 -0.86391450
vn -0.02248847 0.24558520 -0.96911410
vn 0.03406284 0.07377745 -0.99669290
vn -0.04260227 0.50418920 -0.86254170
vn -0.45749350 0.77957210 -0.42774620
vn 0.10431930 0.22930260 -0.96774890
vn 0.04943166 0.04158066 -0.99791150
vn 0.21753070 0.47900120 -0.85043410
vn 0.21433330 0.16943790 -0.96195220
vn 0.08383305 0.02655487 -0.99612590
vn 0.40374420 0.34423360 -0.84764020
vn 0.27235410 0.08463838 -0.95846740
vn 0.06919230 -0.00207404 -0.99760120
vn 0.49957310 0.16676190 -0.85006900
vn 0.85056820 0.30271600 -0.42999620
vn 0.28099830 0.00784613 -0.95967630
vn 0.07907481 -0.04373444 -0.99590890
vn 0.53348150 -0.03860643 -0.84493020
vn 0.90401050 -0.11595130 -0.41148560
vn 0.21903850 -0.09183138 -0.97138510
vn 0.04249710 -0.04849968 -0.99791880
vn 0.48427940 -0.25096790 -0.83814600
vn 0.79990550 -0.47120930 -0.37163550
vn 0.13958130 -0.14753900 -0.97915740
vn 0.03344174 -0.08348939 -0.99594740
vn 0.39018150 -0.38021000 -0.83856950
vn 0.66133650 -0.67118230 -0.33488550
vn 0.06559467 -0.17462090 -0.98244840
vn -0.00186669 -0.06459805 -0.99790960
vn 0.19483720 -0.48592150 -0.85200860
vn 0.35021040 -0.87528420 -0.33351200
vn -0.00776553 -0.18502150 -0.98270370
vn -0.03058711 -0.08349565 -0.99603860
vn -0.01532186 -0.50330920 -0.86397060
vn -0.00646168 -0.92943020 -0.36894120
vn -0.06421560 -0.17000080 -0.98334940
vn -0.04447450 -0.05227389 -0.99764190
vn -0.15879720 -0.46133870 -0.87289750
vn -0.27163160 -0.86524240 -0.42139280
vn -0.10779120 -0.13937300 -0.98435570
vn -0.07824345 -0.02740465 -0.99655760
vn -0.28049420 -0.36525830 -0.88764250
vn -0.56794150 -0.69593450 -0.43945120
vn -0.15836760 -0.06461795 -0.98526350
vn -0.06103840 -0.00279356 -0.99813160
vn -0.20420190 0.01442018 -0.97882250
vn -0.47954590 -0.14108220 -0.86610130
vn -0.87124040 -0.23624030 -0.43026840
vn -0.53540440 0.04683424 -0.84329630
vn -0.91411070 0.07973091 -0.39754820
vn 0.01854235 0.00522885 0.99981450
vn -0.60227790 -0.00450103 0.79827370
vn -0.65722380 0.16697640 0.73496650
vn -0.44726770 0.39060930 0.80459680
vn -0.29419980 0.62374750 0.72414460
vn -0.00081406 0.63874270 0.76942000
vn 0.35660940 0.70045640 0.61821570
vn 0.54849180 0.51300420 0.66029040
vn 0.82632680 0.26156900 0.49876410
vn 0.81352260 -0.04786488 0.57956020
vn 0.82090260 -0.34236140 0.45706410
vn 0.57412800 -0.52019770 0.63227470
vn 0.37712910 -0.71051040 0.59409480
vn 0.00639197 -0.65049020 0.75948780
vn -0.64745040 -0.20207460 0.73482910
vn -0.44114020 -0.37652100 0.81463330
vn -0.25712100 -0.64082020 0.72335210
vn -0.82969350 -0.14280740 0.53964300
vn -0.82818810 -0.19726970 0.52458470
vn -0.66854020 -0.49982540 0.55066200
vn -0.44114020 -0.37652100 0.81463330
vn -0.25712100 -0.64082020 0.72335210
vn -0.34026140 -0.77262310 0.53598110
vn -0.68366850 -0.48840060 0.54227520
vn 0.00639197 -0.65049020 0.75948780
vn -0.33603670 -0.79667500 0.50238260
vn 0.02133010 -0.89950140 0.43639690
vn 0.37712910 -0.71051040 0.59409480
vn 0.03696252 -0.91849260 0.39370720
vn -0.28293690 -0.84459880 0.45453220
vn -0.66138540 -0.54539020 0.51489690
vn -0.66583400 -0.62426050 0.40861220
vn 0.06211685 -0.92902070 0.36477700
vn 0.41064120 -0.85038610 0.32896380
vn 0.37044670 -0.86373880 0.34164960
vn -0.24827460 -0.89907620 0.36058550
vn 0.08758435 -0.95110740 0.29618170
vn -0.69769720 -0.66614100 0.26358070
vn -0.94342540 -0.22317390 0.24523890
vn -0.96638030 -0.21813220 0.13611560
vn -0.25675160 -0.92799450 0.27000890
vn -0.69811650 -0.69811860 0.15894570
vn -0.96790610 -0.22694480 0.10795270
vn -0.67673870 -0.72556220 0.12483660
vn -0.24405180 -0.95153880 0.18711690
vn -0.25980740 -0.95442380 0.14688510
vn 0.35830740 -0.89407600 0.26878240
vn 0.73065730 -0.61169020 0.30327390
vn 0.72102300 -0.64963280 0.24104610
vn 0.10680370 -0.96083850 0.25569980
vn 0.36281210 -0.89693560 0.25273300
vn 0.70877390 -0.65587310 0.25975010
vn 0.38884280 -0.88815850 0.24489950
vn 0.12408260 -0.96768530 0.21951880
vn 0.10238030 -0.97319670 0.20592840
vn 0.40721780 -0.88264320 0.23476520
vn -0.27364950 -0.94682590 0.16922400
vn -0.64499920 -0.74909460 0.15110690
vn -0.64592150 -0.76161030 -0.05229840
vn 0.05976610 -0.97146560 0.22952680
vn 0.39716460 -0.87122120 0.28850250
vn -0.29265860 -0.95596080 -0.02213758
vn 0.00984300 -0.99954140 0.02863813
vn 0.38806840 -0.91734820 0.08874176
vn 0.66430930 -0.66957720 0.33220400
vn 0.69340960 -0.66929040 0.26689610
vn 0.69791390 -0.70800440 0.10791640
vn 0.84748820 -0.52159020 0.09852634
vn 0.98815850 -0.13748310 0.06812680
vn -0.83478160 -0.16971100 0.52377260
vn -0.88961950 -0.21353020 0.40371010
vn -0.86829970 0.05569454 0.49290340
vn -0.92017530 0.08309409 0.38258700
vn -0.86803090 -0.00074776 0.49650970
vn -0.96847060 0.09319605 0.23103920
vn -0.98852560 0.09216988 0.11967410
vn -0.99321570 0.08824856 0.07572708
vn -0.99339850 0.08416694 0.07794348
vn -0.96676860 -0.22755380 0.11652300
vn -0.99173370 0.08914217 -0.09229227
vn -0.97196140 -0.22299570 -0.07459141
vn -0.86816300 0.02041695 0.49585880
vn -0.87372800 -0.02029471 0.48599130
vn -0.86803090 -0.00074776 0.49650970
vn -0.76986860 0.42718040 0.47415100
vn -0.88533200 0.08481498 0.45715840
vn -0.86829970 0.05569454 0.49290340
vn -0.79932340 0.47439370 0.36882600
vn -0.92321860 0.14771650 0.35474940
vn -0.92017530 0.08309409 0.38258700
vn -0.49280720 0.83078130 0.25873440
vn -0.95789410 0.17280270 0.22929940
vn -0.96847060 0.09319605 0.23103920
vn -0.81535690 0.52007110 0.25439960
vn -0.48804940 0.85338700 0.18313520
vn -0.97400990 0.18597080 0.12930390
vn -0.98852560 0.09216988 0.11967410
vn -0.81091760 0.56418100 0.15528220
vn -0.48538500 0.86427230 0.13204090
vn -0.97648880 0.19766840 0.08600501
vn -0.99321570 0.08824856 0.07572708
vn -0.79941400 0.59050310 0.11064980
vn -0.47665270 0.86705010 0.14500510
vn -0.97542800 0.20247840 0.08684821
vn -0.99339850 0.08416694 0.07794348
vn -0.78677270 0.60625870 0.11592660
vn -0.49494620 0.86794340 -0.04126187
vn -0.78720360 0.61148550 -0.07997414
vn -0.97283380 0.21208200 -0.09282020
vn -0.99173370 0.08914217 -0.09229227
vn 0.71231720 -0.64594020 0.27452780
vn 0.83248500 -0.46417060 0.30251310
vn 0.85528760 -0.44865040 0.25922150
vn 0.81596410 -0.49231250 0.30303620
vn 0.87320850 -0.43197770 0.22561540
vn 0.79433510 -0.49885510 0.34666290
vn 0.91577970 -0.14393320 0.37500780
vn 0.92207100 -0.15785250 0.35336610
vn 0.92667860 -0.16995390 0.33523480
vn 0.93743680 -0.19118060 0.29096780
vn 0.86065600 -0.42245230 0.28426270
vn 0.95035430 -0.21056350 0.22910640
vn 0.93347600 -0.22235170 0.28139380
vn 0.89368720 0.30064720 0.33306800
vn 0.90545830 0.27649130 0.32202180
vn 0.92429220 0.25992950 0.27950050
vn 0.94426130 0.22707160 0.23834660
vn 0.93263560 0.19456790 0.30386530
vn 0.88125380 0.31637810 0.35113640
vn 0.95938720 -0.21342560 0.18446100
vn 0.95404450 0.19706160 0.22575580
vn 0.87624200 -0.44410340 0.18700820
vn 0.76542530 -0.60558440 0.21769630
vn 0.76010090 0.58721970 0.27824410
vn 0.98650630 -0.13559670 0.09175521
vn 0.81352260 -0.04786488 0.57956020
vn 0.94028150 0.33575740 0.05601757
vn 0.89252140 -0.43984880 0.09969218
vn 0.82090260 -0.34236140 0.45706410
vn 0.76425230 -0.62711830 0.15046980
vn 0.57412800 -0.52019770 0.63227470
vn 0.41147120 -0.84962340 0.32989630
vn -0.60227790 -0.00450103 0.79827370
vn 0.03406284 0.07377745 -0.99669290
vn -0.00408125 0.06402279 -0.99794000
vn -0.00000056 -0.00000150 -1.00000000
vn 0.04943166 0.04158066 -0.99791150
vn -0.04284380 0.07332040 -0.99638770
vn 0.08383305 0.02655487 -0.99612590
vn -0.05299426 0.04410551 -0.99762030
vn 0.06919230 -0.00207404 -0.99760120
vn -0.08079906 0.01882512 -0.99655260
vn 0.07907481 -0.04373444 -0.99590890
vn -0.06103840 -0.00279356 -0.99813160
vn 0.04249710 -0.04849968 -0.99791880
vn -0.07824345 -0.02740465 -0.99655760
vn 0.03344174 -0.08348939 -0.99594740
vn -0.04447450 -0.05227389 -0.99764190
vn -0.00186669 -0.06459805 -0.99790960
vn -0.03058711 -0.08349565 -0.99603860
vt 0.36293660 0.67576660
vt 0.35069360 0.70072640
vt 0.38811270 0.74188790
vt 0.40791880 0.72218720
vt 0.43207800 0.78576840
vt 0.45323340 0.76701100
vt 0.42586080 0.70584460
vt 0.47092420 0.82662260
vt 0.47699260 0.75326100
vt 0.44825040 0.68460950
vt 0.50481120 0.81137130
vt 0.51457750 0.86543310
vt 0.50369250 0.73249130
vt 0.47585990 0.65977400
vt 0.53152850 0.70816350
vt 0.53212030 0.79763730
vt 0.55074000 0.85800250
vt 0.54616380 0.90251680
vt 0.55980500 0.77635440
vt 0.57718120 0.84581810
vt 0.58884690 0.89529500
vt 0.57725860 0.93423410
vt 0.61517520 0.93915800
vt 0.62048010 0.88752600
vt 0.60468020 0.82780050
vt 0.58711030 0.75227270
vt 0.63588950 0.80754070
vt 0.55954050 0.68357200
vt 0.61687070 0.72950870
vt 0.58757680 0.65154660
vt 0.53317340 0.60615610
vt 0.64531000 0.69713680
vt 0.55175600 0.59022500
vt 0.60447310 0.63559390
vt 0.66077700 0.68083540
vt 0.57032400 0.57430640
vt 0.62135630 0.61965360
vt 0.58731010 0.55433700
vt 0.63608210 0.59711160
vt 0.62251200 0.52103960
vt 0.67623190 0.66454670
vt 0.66783050 0.56350960
vt 0.69037730 0.64273950
vt 0.71613480 0.60834190
vt 0.01821801 0.34905310
vt 0.01728000 0.38450620
vt 0.04337081 0.38302610
vt 0.88280340 0.51916590
vt 0.92797890 0.58192870
vt 0.89190310 0.51318660
vt 0.89602330 0.58487650
vt 0.85610660 0.50800990
vt 0.94683410 0.65267630
vt 0.85229420 0.56133890
vt 0.82403080 0.49317730
vt 0.89688670 0.65137540
vt 0.94676040 0.74369720
vt 0.88078900 0.72110240
vt 0.84406190 0.62347290
vt 0.81991360 0.68569590
vt 0.81420200 0.53812860
vt 0.79003890 0.46420370
vt 0.79790550 0.59108760
vt 0.77315630 0.50772290
vt 0.75099970 0.43302900
vt 0.74955400 0.55738150
vt 0.77144900 0.64841190
vt 0.73211430 0.47267410
vt 0.71662670 0.40283320
vt 0.70412430 0.51751560
vt 0.69097450 0.43687660
vt 0.67584810 0.36681270
vt 0.66436530 0.47687510
vt 0.65411060 0.39647980
vt 0.64344050 0.33231080
vt 0.62348520 0.43159550
vt 0.57632450 0.47561670
vt 0.61374680 0.35763980
vt 0.61327180 0.29915370
vt 0.57481730 0.38621670
vt 0.52741400 0.42871320
vt 0.57611270 0.32074810
vt 0.58088320 0.26109470
vt 0.53537330 0.34113910
vt 0.48238390 0.38310090
vt 0.54533080 0.28158310
vt 0.55971750 0.23339280
vt 0.49824910 0.30609460
vt 0.44422990 0.34412770
vt 0.51636670 0.24566020
vt 0.54035120 0.19881810
vt 0.46446190 0.27088200
vt 0.40862860 0.30620120
vt 0.49411770 0.20925080
vt 0.52439960 0.17193190
vt 0.43844560 0.22879970
vt 0.37918020 0.25871930
vt 0.47561260 0.17268620
vt 0.51551750 0.13974980
vt 0.41514270 0.18493530
vt 0.35138610 0.21053050
vt 0.45994040 0.13434240
vt 0.50876920 0.11406970
vt 0.39361410 0.13662900
vt 0.31630740 0.15567610
vt 0.44751470 0.09412787
vt 0.51751100 0.10807340
vt 0.45747510 0.05734646
vt 0.37031510 0.08096346
vt 0.29025830 0.09311001
vt 0.38408490 0.02981305
vt 0.28909290 0.02199440
vt 0.18249150 0.81455240
vt 0.03017124 0.80990190
vt 0.02674792 0.87872650
vt 0.07108925 0.92022970
vt 0.11821180 0.96992420
vt 0.18125790 0.96809900
vt 0.24285650 0.97120280
vt 0.29151820 0.92062310
vt 0.33726570 0.88202310
vt 0.33398660 0.81095240
vt 0.34063870 0.75205910
vt 0.28846050 0.70494730
vt 0.25284300 0.65518960
vt 0.18258290 0.66032240
vt 0.02376751 0.75246390
vt 0.07556974 0.70325510
vt 0.11090650 0.65407670
vt 0.06411808 0.32580830
vt 0.05474168 0.35256860
vt 0.09039667 0.37646610
vt 0.08086102 0.41674890
vt 0.11278160 0.43958970
vt 0.13123030 0.41113720
vt 0.10415300 0.35030380
vt 0.15244780 0.48385430
vt 0.14741220 0.38380300
vt 0.16789540 0.45487420
vt 0.19410000 0.52761160
vt 0.18304970 0.43007170
vt 0.16822080 0.35721240
vt 0.12648710 0.31566580
vt 0.15114420 0.27781470
vt 0.20255360 0.40716710
vt 0.21925350 0.47114040
vt 0.23689730 0.44751920
vt 0.19090420 0.32810550
vt 0.22531610 0.37866340
vt 0.17711380 0.24508790
vt 0.13241100 0.19099540
vt 0.16715980 0.14834500
vt 0.21517980 0.29673660
vt 0.21195470 0.21650610
vt 0.18877810 0.13512320
vt 0.23086360 0.20423380
vt 0.25257610 0.26883520
vt 0.27125290 0.25845570
vt 0.26178880 0.42240420
vt 0.27057520 0.49697400
vt 0.29634120 0.46884800
vt 0.24877900 0.35256980
vt 0.28681930 0.39932200
vt 0.32185420 0.44389730
vt 0.32058540 0.37573880
vt 0.28581700 0.32713490
vt 0.30330050 0.31275650
vt 0.33847170 0.36192080
vt 0.28991520 0.24808420
vt 0.24975760 0.19197100
vt 0.27244820 0.17617810
vt 0.32077030 0.29838920
vt 0.35634400 0.34811350
vt 0.31148940 0.23166480
vt 0.34201240 0.28101790
vt 0.37583540 0.33357020
vt 0.39509430 0.39342390
vt 0.37679110 0.40600890
vt 0.41282410 0.37695420
vt 0.44810750 0.41680950
vt 0.49128070 0.46414350
vt 0.08252597 0.28181960
vt 0.10591500 0.23299120
vt 0.03562875 0.26870920
vt 0.05069946 0.20037720
vt 0.02316572 0.32371880
vt 0.07568017 0.14948890
vt 0.11989070 0.08838529
vt 0.14706460 0.06782030
vt 0.17421740 0.04727134
vt 0.21037940 0.12191170
vt 0.21916050 0.03370998
vt 0.23372770 0.10898380
vt 0.64681590 0.93868050
vt 0.62089770 0.97430350
vt 0.64632040 0.97919520
vt 0.65511230 0.87192030
vt 0.68296720 0.92606540
vt 0.69968210 0.97000160
vt 0.69181970 0.85110310
vt 0.72800480 0.90619770
vt 0.76650850 0.95782480
vt 0.66783290 0.78270880
vt 0.77035270 0.88091890
vt 0.81551590 0.93568300
vt 0.72514760 0.82688720
vt 0.70172110 0.74803440
vt 0.81117260 0.84254700
vt 0.86649290 0.89208480
vt 0.75508450 0.79234650
vt 0.71546830 0.72924730
vt 0.82659390 0.82006190
vt 0.88695540 0.86810710
vt 0.76781200 0.77221970
vt 0.72920500 0.71047500
vt 0.84200320 0.79759440
vt 0.90740200 0.84414800
vt 0.78052960 0.75210860
vt 0.74761650 0.68750690
vt 0.79572590 0.72816850
vt 0.85779830 0.76921550
vt 0.93203550 0.80901220
vt 0.35847350 0.41860370
vt 0.39051350 0.46629260
vt 0.36052170 0.49597780
vt 0.40871440 0.44916860
vt 0.33413310 0.51973610
vt 0.42690100 0.43205800
vt 0.47185190 0.48176290
vt 0.45341830 0.49719880
vt 0.43497030 0.51264670
vt 0.40479280 0.54113160
vt 0.30953760 0.54982760
vt 0.37986630 0.56757740
vt 0.35069550 0.59392990
vt 0.50370060 0.54691770
vt 0.48570850 0.56394590
vt 0.45341780 0.58919860
vt 0.42614580 0.61044340
vt 0.40031780 0.63713780
vt 0.52167860 0.52990280
vt 0.33012440 0.61108310
vt 0.37869210 0.65836360
vt 0.29010270 0.56625370
vt 0.25449180 0.52122700
vt 0.50352860 0.63599030
vt 0.31670190 0.63003550
vt 0.30806230 0.65750560
vt 0.53962740 0.50923510
vt 0.27745250 0.58666070
vt 0.27010700 0.61524620
vt 0.24338330 0.54565860
vt 0.22663720 0.56677510
vt 0.20635490 0.49690120
vt 0.58264990 0.96717290
vt 0.74782710 0.31409050
vt 0.79286580 0.31041660
vt 0.78838290 0.21047190
vt 0.72289890 0.28367560
vt 0.83247550 0.30904800
vt 0.69078890 0.25287220
vt 0.85409120 0.27342110
vt 0.69404870 0.21061550
vt 0.87806550 0.24173050
vt 0.69147900 0.17319590
vt 0.86446510 0.20658650
vt 0.72991910 0.14865220
vt 0.87341650 0.16989670
vt 0.74707210 0.12045430
vt 0.84346260 0.14738780
vt 0.78707170 0.12667840
vt 0.81806050 0.11832950
f 3/3/3 2/2/2 1/1/1
f 5/5/5 3/3/3 4/4/4
f 6/6/6 5/5/5 4/4/4
f 6/6/6 4/4/4 7/7/7
f 8/8/8 5/5/5 6/6/6
f 9/9/9 6/6/6 7/7/7
f 9/9/9 7/7/7 10/10/10
f 11/11/11 8/8/8 6/6/6
f 11/11/11 6/6/6 9/9/9
f 12/12/12 8/8/8 11/11/11
f 13/13/13 9/9/9 10/10/10
f 13/13/13 10/10/10 14/14/14
f 15/15/15 13/13/13 14/14/14
f 16/16/16 11/11/11 9/9/9
f 16/16/16 9/9/9 13/13/13
f 17/17/17 12/12/12 11/11/11
f 17/17/17 11/11/11 16/16/16
f 18/18/18 12/12/12 17/17/17
f 19/19/19 13/13/13 15/15/15
f 19/19/19 16/16/16 13/13/13
f 20/20/20 17/17/17 16/16/16
f 20/20/20 16/16/16 19/19/19
f 21/21/21 18/18/18 17/17/17
f 21/21/21 17/17/17 20/20/20
f 22/22/22 18/18/18 21/21/21
f 23/23/23 22/22/22 21/21/21
f 24/24/24 21/21/21 20/20/20
f 24/24/24 20/20/20 25/25/25
f 25/25/25 20/20/20 19/19/19
f 26/26/26 19/19/19 15/15/15
f 25/25/25 19/19/19 26/26/26
f 27/27/27 25/25/25 26/26/26
f 26/26/26 15/15/15 28/28/28
f 27/27/27 26/26/26 29/29/29
f 29/29/29 26/26/26 28/28/28
f 29/29/29 28/28/28 30/30/30
f 30/30/30 28/28/28 31/31/31
f 32/32/32 29/29/29 30/30/30
f 30/30/30 31/31/31 33/33/33
f 32/32/32 30/30/30 34/34/34
f 34/34/34 30/30/30 33/33/33
f 35/35/35 32/32/32 34/34/34
f 34/34/34 33/33/33 36/36/36
f 35/35/35 34/34/34 37/37/37
f 37/37/37 34/34/34 36/36/36
f 37/37/37 36/36/36 38/38/38
f 39/39/39 37/37/37 38/38/38
f 39/39/39 38/38/38 40/40/40
f 41/41/41 37/37/37 39/39/39
f 42/42/42 39/39/39 40/40/40
f 43/43/43 41/41/41 39/39/39
f 43/43/43 39/39/39 42/42/42
f 44/44/44 43/43/43 42/42/42
f 47/47/47 46/46/46 45/45/45
f 50/50/50 49/49/49 48/48/48
f 49/49/49 51/51/51 48/48/48
f 48/48/48 51/51/51 52/52/52
f 49/49/49 53/53/53 51/51/51
f 51/51/51 54/54/54 52/52/52
f 52/52/52 54/54/54 55/55/55
f 53/53/53 56/56/56 51/51/51
f 51/51/51 56/56/56 54/54/54
f 53/53/53 57/57/57 56/56/56
f 57/57/57 58/58/58 56/56/56
f 56/56/56 58/58/58 59/59/59
f 56/56/56 59/59/59 54/54/54
f 58/58/58 60/60/60 59/59/59
f 54/54/54 61/61/61 55/55/55
f 54/54/54 59/59/59 61/61/61
f 55/55/55 61/61/61 62/62/62
f 59/59/59 63/63/63 61/61/61
f 61/61/61 64/64/64 62/62/62
f 61/61/61 63/63/63 64/64/64
f 62/62/62 64/64/64 65/65/65
f 63/63/63 66/66/66 64/64/64
f 63/63/63 67/67/67 66/66/66
f 67/67/67 44/44/44 66/66/66
f 64/64/64 68/68/68 65/65/65
f 64/64/64 66/66/66 68/68/68
f 65/65/65 68/68/68 69/69/69
f 66/66/66 44/44/44 70/70/70
f 66/66/66 70/70/70 68/68/68
f 44/44/44 42/42/42 70/70/70
f 68/68/68 71/71/71 69/69/69
f 68/68/68 70/70/70 71/71/71
f 69/69/69 71/71/71 72/72/72
f 70/70/70 42/42/42 73/73/73
f 70/70/70 73/73/73 71/71/71
f 42/42/42 40/40/40 73/73/73
f 71/71/71 74/74/74 72/72/72
f 71/71/71 73/73/73 74/74/74
f 72/72/72 74/74/74 75/75/75
f 73/73/73 40/40/40 76/76/76
f 73/73/73 76/76/76 74/74/74
f 40/40/40 77/77/77 76/76/76
f 74/74/74 78/78/78 75/75/75
f 74/74/74 76/76/76 78/78/78
f 75/75/75 78/78/78 79/79/79
f 76/76/76 77/77/77 80/80/80
f 76/76/76 80/80/80 78/78/78
f 77/77/77 81/81/81 80/80/80
f 78/78/78 82/82/82 79/79/79
f 78/78/78 80/80/80 82/82/82
f 79/79/79 82/82/82 83/83/83
f 80/80/80 81/81/81 84/84/84
f 80/80/80 84/84/84 82/82/82
f 81/81/81 85/85/85 84/84/84
f 82/82/82 86/86/86 83/83/83
f 82/82/82 84/84/84 86/86/86
f 83/83/83 86/86/86 87/87/87
f 84/84/84 85/85/85 88/88/88
f 84/84/84 88/88/88 86/86/86
f 85/85/85 89/89/89 88/88/88
f 86/86/86 90/90/90 87/87/87
f 86/86/86 88/88/88 90/90/90
f 87/87/87 90/90/90 91/91/91
f 88/88/88 89/89/89 92/92/92
f 88/88/88 92/92/92 90/90/90
f 89/89/89 93/93/93 92/92/92
f 90/90/90 94/94/94 91/91/91
f 90/90/90 92/92/92 94/94/94
f 91/91/91 94/94/94 95/95/95
f 92/92/92 93/93/93 96/96/96
f 92/92/92 96/96/96 94/94/94
f 93/93/93 97/97/97 96/96/96
f 94/94/94 98/98/98 95/95/95
f 94/94/94 96/96/96 98/98/98
f 95/95/95 98/98/98 99/99/99
f 96/96/96 97/97/97 100/100/100
f 96/96/96 100/100/100 98/98/98
f 97/97/97 101/101/101 100/100/100
f 98/98/98 102/102/102 99/99/99
f 98/98/98 100/100/100 102/102/102
f 99/99/99 102/102/102 103/103/103
f 100/100/100 101/101/101 104/104/104
f 100/100/100 104/104/104 102/102/102
f 101/101/101 105/105/105 104/104/104
f 102/102/102 106/106/106 103/103/103
f 102/102/102 104/104/104 106/106/106
f 103/103/103 106/106/106 107/107/107
f 106/106/106 108/108/108 107/107/107
f 104/104/104 105/105/105 109/109/109
f 104/104/104 109/109/109 106/106/106
f 106/106/106 109/109/109 108/108/108
f 105/105/105 110/110/110 109/109/109
f 109/109/109 111/111/111 108/108/108
f 109/109/109 110/110/110 111/111/111
f 110/110/110 112/112/112 111/111/111
f 115/115/115 114/114/114 113/113/113
f 116/116/116 115/115/115 113/113/113
f 117/117/117 116/116/116 113/113/113
f 118/118/118 117/117/117 113/113/113
f 119/119/119 118/118/118 113/113/113
f 120/120/120 119/119/119 113/113/113
f 121/121/121 120/120/120 113/113/113
f 122/122/122 121/121/121 113/113/113
f 123/123/123 122/122/122 113/113/113
f 124/124/124 123/123/123 113/113/113
f 125/125/125 124/124/124 113/113/113
f 126/126/126 125/125/125 113/113/113
f 114/114/114 127/127/127 113/113/113
f 127/127/127 128/128/128 113/113/113
f 128/128/128 129/129/129 113/113/113
f 129/129/129 126/126/126 113/113/113
f 132/132/132 131/131/131 130/130/130
f 132/132/132 133/133/133 131/131/131
f 134/134/134 133/133/133 132/132/132
f 135/135/135 134/134/134 132/132/132
f 135/135/135 132/132/132 136/136/136
f 137/137/137 134/134/134 135/135/135
f 138/138/138 135/135/135 136/136/136
f 139/139/139 137/137/137 135/135/135
f 139/139/139 135/135/135 138/138/138
f 140/140/140 137/137/137 139/139/139
f 141/141/141 139/139/139 138/138/138
f 141/141/141 138/138/138 142/142/142
f 142/142/142 138/138/138 143/143/143
f 142/142/142 143/143/143 144/144/144
f 145/145/145 141/141/141 142/142/142
f 146/146/146 141/141/141 145/145/145
f 147/147/147 146/146/146 145/145/145
f 148/148/148 142/142/142 144/144/144
f 145/145/145 142/142/142 148/148/148
f 147/147/147 145/145/145 149/149/149
f 149/149/149 145/145/145 148/148/148
f 148/148/148 144/144/144 150/150/150
f 150/150/150 144/144/144 151/151/151
f 150/150/150 151/151/151 152/152/152
f 153/153/153 148/148/148 150/150/150
f 149/149/149 148/148/148 153/153/153
f 154/154/154 150/150/150 152/152/152
f 153/153/153 150/150/150 154/154/154
f 154/154/154 152/152/152 155/155/155
f 156/156/156 154/154/154 155/155/155
f 157/157/157 154/154/154 156/156/156
f 157/157/157 153/153/153 154/154/154
f 158/158/158 157/157/157 156/156/156
f 159/159/159 147/147/147 149/149/149
f 160/160/160 147/147/147 159/159/159
f 161/161/161 160/160/160 159/159/159
f 162/162/162 149/149/149 153/153/153
f 162/162/162 153/153/153 157/157/157
f 159/159/159 149/149/149 162/162/162
f 161/161/161 159/159/159 163/163/163
f 163/163/163 159/159/159 162/162/162
f 164/164/164 161/161/161 163/163/163
f 164/164/164 163/163/163 165/165/165
f 166/166/166 162/162/162 157/157/157
f 163/163/163 162/162/162 166/166/166
f 165/165/165 163/163/163 166/166/166
f 166/166/166 157/157/157 158/158/158
f 165/165/165 166/166/166 167/167/167
f 167/167/167 166/166/166 158/158/158
f 168/168/168 165/165/165 167/167/167
f 167/167/167 158/158/158 169/169/169
f 169/169/169 158/158/158 170/170/170
f 169/169/169 170/170/170 171/171/171
f 168/168/168 167/167/167 172/172/172
f 172/172/172 167/167/167 169/169/169
f 173/173/173 168/168/168 172/172/172
f 174/174/174 169/169/169 171/171/171
f 172/172/172 169/169/169 174/174/174
f 174/174/174 171/171/171 105/105/105
f 101/101/101 174/174/174 105/105/105
f 175/175/175 172/172/172 174/174/174
f 175/175/175 174/174/174 101/101/101
f 173/173/173 172/172/172 175/175/175
f 97/97/97 175/175/175 101/101/101
f 176/176/176 175/175/175 97/97/97
f 176/176/176 173/173/173 175/175/175
f 93/93/93 176/176/176 97/97/97
f 177/177/177 173/173/173 176/176/176
f 177/177/177 178/178/178 173/173/173
f 179/179/179 177/177/177 176/176/176
f 179/179/179 176/176/176 93/93/93
f 89/89/89 179/179/179 93/93/93
f 180/180/180 179/179/179 89/89/89
f 85/85/85 180/180/180 89/89/89
f 181/181/181 180/180/180 85/85/85
f 136/136/136 132/132/132 130/130/130
f 136/136/136 130/130/130 182/182/182
f 143/143/143 136/136/136 182/182/182
f 138/138/138 136/136/136 143/143/143
f 143/143/143 182/182/182 183/183/183
f 144/144/144 143/143/143 183/183/183
f 144/144/144 183/183/183 151/151/151
f 182/182/182 130/130/130 184/184/184
f 182/182/182 184/184/184 185/185/185
f 183/183/183 182/182/182 185/185/185
f 130/130/130 186/186/186 184/184/184
f 183/183/183 185/185/185 187/187/187
f 151/151/151 183/183/183 187/187/187
f 151/151/151 187/187/187 188/188/188
f 152/152/152 151/151/151 188/188/188
f 152/152/152 188/188/188 189/189/189
f 130/130/130 131/131/131 186/186/186
f 131/131/131 45/45/45 186/186/186
f 131/131/131 47/47/47 45/45/45
f 133/133/133 47/47/47 131/131/131
f 155/155/155 152/152/152 189/189/189
f 155/155/155 189/189/189 190/190/190
f 191/191/191 155/155/155 190/190/190
f 191/191/191 190/190/190 192/192/192
f 156/156/156 155/155/155 191/191/191
f 193/193/193 191/191/191 192/192/192
f 193/193/193 192/192/192 112/112/112
f 110/110/110 193/193/193 112/112/112
f 170/170/170 156/156/156 191/191/191
f 170/170/170 191/191/191 193/193/193
f 158/158/158 156/156/156 170/170/170
f 171/171/171 170/170/170 193/193/193
f 171/171/171 193/193/193 110/110/110
f 105/105/105 171/171/171 110/110/110
f 23/23/23 21/21/21 24/24/24
f 194/194/194 23/23/23 24/24/24
f 195/195/195 23/23/23 194/194/194
f 196/196/196 195/195/195 194/194/194
f 194/194/194 24/24/24 197/197/197
f 197/197/197 24/24/24 25/25/25
f 197/197/197 25/25/25 27/27/27
f 196/196/196 194/194/194 198/198/198
f 198/198/198 194/194/194 197/197/197
f 199/199/199 196/196/196 198/198/198
f 200/200/200 197/197/197 27/27/27
f 198/198/198 197/197/197 200/200/200
f 199/199/199 198/198/198 201/201/201
f 201/201/201 198/198/198 200/200/200
f 202/202/202 199/199/199 201/201/201
f 200/200/200 27/27/27 203/203/203
f 203/203/203 27/27/27 29/29/29
f 203/203/203 29/29/29 32/32/32
f 202/202/202 201/201/201 204/204/204
f 205/205/205 202/202/202 204/204/204
f 201/201/201 200/200/200 206/206/206
f 206/206/206 200/200/200 203/203/203
f 204/204/204 201/201/201 206/206/206
f 207/207/207 203/203/203 32/32/32
f 206/206/206 203/203/203 207/207/207
f 207/207/207 32/32/32 35/35/35
f 205/205/205 204/204/204 208/208/208
f 209/209/209 205/205/205 208/208/208
f 204/204/204 206/206/206 210/210/210
f 210/210/210 206/206/206 207/207/207
f 208/208/208 204/204/204 210/210/210
f 211/211/211 207/207/207 35/35/35
f 210/210/210 207/207/207 211/211/211
f 209/209/209 208/208/208 212/212/212
f 213/213/213 209/209/209 212/212/212
f 208/208/208 210/210/210 214/214/214
f 214/214/214 210/210/210 211/211/211
f 212/212/212 208/208/208 214/214/214
f 211/211/211 35/35/35 41/41/41
f 41/41/41 35/35/35 37/37/37
f 215/215/215 211/211/211 41/41/41
f 214/214/214 211/211/211 215/215/215
f 215/215/215 41/41/41 43/43/43
f 213/213/213 212/212/212 216/216/216
f 217/217/217 213/213/213 216/216/216
f 212/212/212 214/214/214 218/218/218
f 218/218/218 214/214/214 215/215/215
f 216/216/216 212/212/212 218/218/218
f 219/219/219 215/215/215 43/43/43
f 218/218/218 215/215/215 219/219/219
f 219/219/219 43/43/43 44/44/44
f 67/67/67 219/219/219 44/44/44
f 220/220/220 218/218/218 219/219/219
f 216/216/216 218/218/218 220/220/220
f 220/220/220 219/219/219 67/67/67
f 217/217/217 216/216/216 221/221/221
f 221/221/221 216/216/216 220/220/220
f 222/222/222 217/217/217 221/221/221
f 60/60/60 220/220/220 67/67/67
f 221/221/221 220/220/220 60/60/60
f 60/60/60 67/67/67 63/63/63
f 59/59/59 60/60/60 63/63/63
f 58/58/58 221/221/221 60/60/60
f 222/222/222 221/221/221 58/58/58
f 57/57/57 222/222/222 58/58/58
f 178/178/178 168/168/168 173/173/173
f 178/178/178 223/223/223 168/168/168
f 223/223/223 165/165/165 168/168/168
f 223/223/223 164/164/164 165/165/165
f 224/224/224 223/223/223 178/178/178
f 225/225/225 164/164/164 223/223/223
f 224/224/224 225/225/225 223/223/223
f 226/226/226 224/224/224 178/178/178
f 226/226/226 178/178/178 177/177/177
f 225/225/225 227/227/227 164/164/164
f 227/227/227 161/161/161 164/164/164
f 228/228/228 226/226/226 177/177/177
f 228/228/228 177/177/177 179/179/179
f 180/180/180 228/228/228 179/179/179
f 229/229/229 228/228/228 180/180/180
f 181/181/181 229/229/229 180/180/180
f 230/230/230 226/226/226 228/228/228
f 229/229/229 230/230/230 228/228/228
f 231/231/231 224/224/224 226/226/226
f 230/230/230 231/231/231 226/226/226
f 232/232/232 225/225/225 224/224/224
f 231/231/231 232/232/232 224/224/224
f 227/227/227 233/233/233 161/161/161
f 233/233/233 160/160/160 161/161/161
f 234/234/234 227/227/227 225/225/225
f 232/232/232 234/234/234 225/225/225
f 235/235/235 233/233/233 227/227/227
f 234/234/234 235/235/235 227/227/227
f 236/236/236 230/230/230 229/229/229
f 237/237/237 231/231/231 230/230/230
f 236/236/236 237/237/237 230/230/230
f 238/238/238 232/232/232 231/231/231
f 237/237/237 238/238/238 231/231/231
f 239/239/239 234/234/234 232/232/232
f 238/238/238 239/239/239 232/232/232
f 240/240/240 235/235/235 234/234/234
f 239/239/239 240/240/240 234/234/234
f 241/241/241 236/236/236 229/229/229
f 241/241/241 229/229/229 181/181/181
f 235/235/235 242/242/242 233/233/233
f 240/240/240 243/243/243 235/235/235
f 243/243/243 242/242/242 235/235/235
f 242/242/242 244/244/244 233/233/233
f 233/233/233 244/244/244 160/160/160
f 244/244/244 245/245/245 160/160/160
f 160/160/160 245/245/245 147/147/147
f 245/245/245 146/146/146 147/147/147
f 10/10/10 240/240/240 239/239/239
f 10/10/10 7/7/7 240/240/240
f 7/7/7 243/243/243 240/240/240
f 14/14/14 10/10/10 239/239/239
f 7/7/7 4/4/4 243/243/243
f 14/14/14 239/239/239 238/238/238
f 4/4/4 1/1/1 243/243/243
f 243/243/243 1/1/1 242/242/242
f 4/4/4 3/3/3 1/1/1
f 246/246/246 14/14/14 238/238/238
f 15/15/15 14/14/14 246/246/246
f 28/28/28 15/15/15 246/246/246
f 246/246/246 238/238/238 237/237/237
f 28/28/28 246/246/246 31/31/31
f 31/31/31 246/246/246 237/237/237
f 31/31/31 237/237/237 236/236/236
f 33/33/33 31/31/31 236/236/236
f 33/33/33 236/236/236 241/241/241
f 36/36/36 33/33/33 241/241/241
f 1/1/1 247/247/247 242/242/242
f 1/1/1 2/2/2 247/247/247
f 242/242/242 247/247/247 244/244/244
f 2/2/2 248/248/248 247/247/247
f 36/36/36 241/241/241 249/249/249
f 38/38/38 36/36/36 249/249/249
f 249/249/249 241/241/241 181/181/181
f 247/247/247 250/250/250 244/244/244
f 247/247/247 248/248/248 250/250/250
f 244/244/244 250/250/250 245/245/245
f 248/248/248 251/251/251 250/250/250
f 250/250/250 252/252/252 245/245/245
f 250/250/250 251/251/251 252/252/252
f 245/245/245 252/252/252 146/146/146
f 251/251/251 253/253/253 252/252/252
f 252/252/252 254/254/254 146/146/146
f 252/252/252 253/253/253 254/254/254
f 146/146/146 254/254/254 141/141/141
f 253/253/253 140/140/140 254/254/254
f 254/254/254 139/139/139 141/141/141
f 254/254/254 140/140/140 139/139/139
f 249/249/249 181/181/181 81/81/81
f 81/81/81 181/181/181 85/85/85
f 77/77/77 249/249/249 81/81/81
f 38/38/38 249/249/249 77/77/77
f 40/40/40 38/38/38 77/77/77
f 255/255/255 22/22/22 23/23/23
f 195/195/195 255/255/255 23/23/23
f 258/258/258 257/257/257 256/256/256
f 259/259/259 258/258/258 256/256/256
f 257/257/257 258/258/258 260/260/260
f 258/258/258 259/259/259 261/261/261
f 258/258/258 262/262/262 260/260/260
f 263/263/263 258/258/258 261/261/261
f 262/262/262 258/258/258 264/264/264
f 258/258/258 263/263/263 265/265/265
f 258/258/258 266/266/266 264/264/264
f 267/267/267 258/258/258 265/265/265
f 266/266/266 258/258/258 268/268/268
f 258/258/258 267/267/267 269/269/269
f 258/258/258 270/270/270 268/268/268
f 271/271/271 258/258/258 269/269/269
f 270/270/270 258/258/258 272/272/272
f 258/258/258 271/271/271 272/272/272

