mtllib StandardIslandHeight2_b5d12efe.mtl
g StandardIslandHeight2_b5d12efe
v 0.42501 0.91501 1.425
v 0.426 0.9138 1.426
v -0.42599 0.9138 1.426
v 0.42501 0.91501 1.425
v -0.42599 0.9138 1.426
v -0.425 0.91501 1.425
v 0.426 0.88621 -0.42599
v 0.426 0.9138 -0.42599
v -0.42599 0.9138 -0.42599
v -0.42599 0.88621 -0.42599
v 0.42501 0.885 -0.425
v 0.426 0.88621 -0.42599
v -0.42599 0.88621 -0.42599
v -0.425 0.885 -0.425
v -0.425 0.91501 -0.425
v -0.42599 0.9138 -0.42599
v 0.426 0.9138 -0.42599
v 0.42501 0.91501 -0.425
v -0.42599 0.88621 1.426
v -0.42599 0.9138 1.426
v 0.426 0.9138 1.426
v 0.426 0.88621 1.426
v -0.425 0.885 1.425
v -0.42599 0.88621 1.426
v 0.426 0.88621 1.426
v 0.42501 0.885 1.425
v 0.4001 0.885 0.8025
v 0.3975 0.885 0.8
v -0.39749 0.885 0.8
v -0.40009 0.885 0.8025
v 0.42501 0.885 1.425
v 0.40001 0.885 0.7975
v -0.425 0.885 1.425
v -0.4 0.885 0.7975
v 0.40001 0.885 0.757
v 0.40001 0.885 0.7975
v 0.42501 0.885 1.425
v 0.425 0.885 0.757
v 0.425 0.885 0.47001
v 0.40001 0.885 0.47001
v 0.40001 0.885 -0.39749
v 0.40177 0.885 -0.40176
v 0.42501 0.885 -0.425
v -0.425 0.885 -0.425
v -0.40176 0.885 -0.40176
v 0.3975 0.885 -0.39999
v -0.39749 0.885 -0.39999
v -0.42499 0.885 0.47001
v -0.4 0.885 -0.39749
v -0.4 0.885 0.47001
v -0.4 0.885 0.757
v -0.42499 0.885 0.757
v -0.4 0.885 0.7975
v -0.425 0.885 1.425
v 0.426 0.9138 0.47001
v 0.426 0.9138 -0.42599
v 0.426 0.88621 -0.42599
v 0.426 0.88621 0.47001
v 0.426 0.88621 0.757
v 0.426 0.9138 0.757
v 0.426 0.9138 1.426
v 0.426 0.88621 1.426
v 0.426 0.88621 0.47001
v 0.426 0.88621 -0.42599
v 0.42501 0.885 -0.425
v 0.425 0.885 0.47001
v 0.425 0.885 0.757
v 0.426 0.88621 0.757
v 0.42501 0.885 1.425
v 0.426 0.88621 1.426
v 0.426 0.9138 0.47001
v 0.42501 0.91501 -0.425
v 0.426 0.9138 -0.42599
v 0.425 0.915 0.47001
v 0.425 0.915 0.757
v 0.426 0.9138 0.757
v 0.426 0.9138 1.426
v 0.42501 0.91501 1.425
v -0.42599 0.88621 -0.42599
v -0.42599 0.9138 -0.42599
v -0.42599 0.9138 0.47001
v -0.42599 0.88621 0.47001
v -0.42599 0.88621 0.757
v -0.42599 0.9138 0.757
v -0.42599 0.9138 1.426
v -0.42599 0.88621 1.426
v -0.42599 0.88621 0.47001
v -0.425 0.885 -0.425
v -0.42599 0.88621 -0.42599
v -0.42499 0.885 0.47001
v -0.42499 0.885 0.757
v -0.42599 0.88621 0.757
v -0.42599 0.88621 1.426
v -0.425 0.885 1.425
v -0.42599 0.9138 0.47001
v -0.42599 0.9138 -0.42599
v -0.425 0.91501 -0.425
v -0.42499 0.915 0.47001
v -0.42499 0.915 0.757
v -0.42599 0.9138 0.757
v -0.425 0.91501 1.425
v -0.42599 0.9138 1.426
v 0.42501 0.91501 1.425
v 0.40001 0.915 0.757
v 0.425 0.915 0.757
v 0.425 0.915 0.47001
v 0.40001 0.915 1.4
v -0.425 0.91501 1.425
v -0.4 0.915 1.4
v -0.42499 0.915 0.757
v -0.4 0.915 0.757
v -0.42499 0.915 0.47001
v 0.40001 0.915 0.47001
v -0.4 0.915 0.47001
v -0.4 0.915 -0.39999
v -0.425 0.91501 -0.425
v 0.42501 0.91501 -0.425
v 0.40001 0.915 -0.39999
v -0.40152 0.03874 0.80153
v -0.39749 0.04001 0.8
v 0.3975 0.04001 0.8
v -0.41649 0.02281 -0.4165
v -0.41649 0.00921 -0.4165
v 0.4165 0.00921 -0.4165
v 0.4165 0.02281 -0.4165
v 0.4165 0.02281 -0.4165
v 0.41201 0.03001 -0.412
v -0.412 0.03001 -0.412
v -0.41649 0.02281 -0.4165
v 0.41201 0.00201 -0.412
v 0.4165 0.00921 -0.4165
v -0.41649 0.00921 -0.4165
v -0.412 0.00201 -0.412
v 0.4165 0.02281 0.8165
v 0.4165 0.00921 0.8165
v -0.41649 0.00921 0.8165
v -0.41649 0.02281 0.8165
v 0.41201 0.03001 0.81201
v 0.4165 0.02281 0.8165
v -0.41649 0.02281 0.8165
v -0.412 0.03001 0.81201
v -0.412 0.00201 0.81201
v -0.41649 0.00921 0.8165
v 0.4165 0.00921 0.8165
v 0.41201 0.00201 0.81201
v 0.41201 0.03001 -0.412
v -0.40152 0.03874 -0.40152
v -0.412 0.03001 -0.412
v 0.40153 0.03874 -0.40152
v -0.39749 0.04001 -0.39999
v 0.3975 0.04001 -0.39999
v 0.40001 0 -0.39999
v 0.41201 0.00201 -0.412
v -0.412 0.00201 -0.412
v -0.4 0 -0.39999
v 0.41201 0.00201 0.47001
v 0.41201 0.00201 -0.412
v 0.40001 0 -0.39999
v 0.40001 0 0.47001
v 0.40001 0 0.757
v 0.41201 0.00201 0.757
v 0.40001 0 0.8
v 0.41201 0.00201 0.81201
v -0.412 0.00201 0.81201
v -0.4 0 0.8
v -0.4 0 0.757
v -0.412 0.00201 0.757
v -0.412 0.00201 0.47001
v -0.4 0 0.47001
v -0.4 0 0.4386
v -0.41199 0.00201 0.4386
v -0.4 0 0.8
v -0.412 0.00201 0.81201
v 0.41201 0.00201 0.81201
v 0.40001 0 0.8
v -0.4 0.04001 0.7975
v -0.40152 0.03874 0.80153
v -0.412 0.03001 0.81201
v -0.4 0.04001 0.757
v -0.412 0.03001 0.757
v -0.412 0.03001 0.47001
v -0.4 0.04001 0.47001
v -0.4 0.04001 0.4386
v -0.412 0.03001 0.4386
v -0.41649 0.02281 0.47001
v -0.41649 0.02281 0.4386
v -0.412 0.03001 0.757
v -0.412 0.03001 0.47001
v -0.41649 0.02281 0.757
v -0.412 0.03001 0.81201
v -0.41649 0.02281 0.8165
v 0.4165 0.00921 0.47001
v 0.4165 0.02281 -0.4165
v 0.4165 0.00921 -0.4165
v 0.4165 0.02281 0.47001
v 0.4165 0.02281 0.757
v 0.4165 0.00921 0.757
v 0.4165 0.00921 0.8165
v 0.4165 0.02281 0.8165
v 0.4165 0.02281 0.47001
v 0.41201 0.03001 -0.412
v 0.4165 0.02281 -0.4165
v 0.41201 0.03001 0.47001
v 0.41201 0.03001 0.757
v 0.4165 0.02281 0.757
v 0.4165 0.02281 0.8165
v 0.41201 0.03001 0.81201
v 0.4165 0.00921 0.47001
v 0.4165 0.00921 -0.4165
v 0.41201 0.00201 -0.412
v 0.41201 0.00201 0.47001
v 0.41201 0.00201 0.757
v 0.4165 0.00921 0.757
v 0.41201 0.00201 0.81201
v 0.4165 0.00921 0.8165
v 0.40153 0.03874 -0.40152
v 0.41201 0.03001 -0.412
v 0.41201 0.03001 0.47001
v 0.40001 0.04001 -0.39749
v 0.40001 0.04001 0.47001
v 0.40001 0.04001 0.757
v 0.41201 0.03001 0.757
v 0.40001 0.04001 0.7975
v 0.41201 0.03001 0.81201
v 0.40153 0.03874 0.80153
v -0.41649 0.02281 0.757
v -0.41649 0.02281 0.8165
v -0.41649 0.00921 0.8165
v -0.41649 0.00921 0.757
v -0.41649 0.00921 0.47001
v -0.41649 0.02281 0.47001
v -0.41649 0.02281 0.4386
v -0.41649 0.00921 0.4386
v -0.41649 0.00921 0.8165
v -0.412 0.00201 0.81201
v -0.412 0.00201 0.757
v -0.41649 0.00921 0.757
v -0.41649 0.00921 0.47001
v -0.412 0.00201 0.47001
v -0.41199 0.00201 0.4386
v -0.41649 0.00921 0.4386
v -0.40152 0.03874 -0.40152
v -0.4 0.04001 -0.39749
v -0.4 0.04001 -0.3662
v -0.412 0.03001 -0.3662
v -0.412 0.03001 -0.412
v -0.412 0.03001 -0.412
v -0.412 0.03001 -0.3662
v -0.41649 0.02281 -0.3662
v -0.41649 0.02281 -0.4165
v -0.41649 0.02281 -0.4165
v -0.41649 0.02281 -0.3662
v -0.41649 0.00921 -0.3662
v -0.41649 0.00921 -0.4165
v -0.412 0.00201 -0.3662
v -0.412 0.00201 -0.412
v -0.41649 0.00921 -0.4165
v -0.41649 0.00921 -0.3662
v -0.4 0 -0.3662
v -0.4 0 -0.39999
v -0.412 0.00201 -0.412
v -0.412 0.00201 -0.3662
v 0.39938 0.03871 0.80156
v -0.40152 0.03874 0.80153
v 0.39935 0.03874 0.80153
v 0.40153 0.03874 0.80153
v 0.3975 0.04001 0.8
v -0.40152 0.03874 0.80153
v 0.41201 0.03001 0.81201
v -0.412 0.03001 0.81201
v -0.4 0.04001 -0.3662
v -0.4 0 -0.3662
v -0.412 0.00201 -0.3662
v -0.412 0.03001 -0.3662
v -0.41649 0.00921 -0.3662
v -0.41649 0.02281 -0.3662
v -0.4 0 0.4386
v -0.4 0.04001 0.4386
v -0.412 0.03001 0.4386
v -0.41199 0.00201 0.4386
v -0.41649 0.02281 0.4386
v -0.41649 0.00921 0.4386
v 0.40001 0.885 0.7975
v -0.4 0.885 0.7975
v 0.3975 0.04001 -0.39999
v 0.40153 0.03874 -0.40152
v 0.40001 0.04001 -0.39749
v -0.39749 0.04001 -0.39999
v -0.4 0.04001 -0.39749
v -0.40152 0.03874 -0.40152
v 0.40001 0.04001 0.7975
v 0.40153 0.03874 0.80153
v 0.3975 0.04001 0.8
v -0.39749 0.04001 0.8
v -0.40152 0.03874 0.80153
v -0.4 0.04001 0.7975
v -0.4 0 -0.3662
v 0.28473 0 -0.3662
v -0.4 0 -0.39999
v 0.40001 0 -0.39999
v 0.40001 0 0.47001
v 0.28473 0 0.4386
v -0.4 0 0.4386
v -0.4 0 0.47001
v -0.4 0 0.757
v 0.40001 0 0.757
v 0.40001 0 0.8
v -0.4 0 0.8
v -0.39749 0.8335 0.8
v -0.39749 0.885 0.8
v 0.3975 0.885 0.8
v 0.3975 0.8335 0.8
v 0.3975 0.1065 0.8
v -0.39749 0.1065 0.8
v 0.3975 0.1065 0.8
v -0.39749 0.04001 0.8
v -0.39749 0.1065 0.8
v 0.3975 0.04001 0.8
v 0.3975 0.8335 -0.39999
v 0.3975 0.885 -0.39999
v -0.39749 0.885 -0.39999
v -0.39749 0.8335 -0.39999
v -0.39749 0.1065 -0.39999
v 0.3975 0.1065 -0.39999
v 0.3975 0.04001 -0.39999
v -0.39749 0.04001 -0.39999
v -0.4 0.885 -0.39749
v -0.39749 0.8335 -0.39999
v -0.39749 0.885 -0.39999
v -0.4 0.8335 -0.39749
v -0.4 0.1065 -0.39749
v -0.39749 0.1065 -0.39999
v -0.39749 0.04001 -0.39999
v -0.4 0.04001 -0.39749
v 0.40001 0.8335 -0.39749
v 0.40001 0.885 -0.39749
v 0.3975 0.885 -0.39999
v 0.3975 0.8335 -0.39999
v 0.3975 0.1065 -0.39999
v 0.40001 0.1065 -0.39749
v 0.40001 0.04001 -0.39749
v 0.3975 0.04001 -0.39999
v 0.3975 0.8335 0.8
v 0.3975 0.885 0.8
v 0.40001 0.885 0.7975
v 0.40001 0.8335 0.7975
v 0.40001 0.1065 0.7975
v 0.3975 0.1065 0.8
v 0.3975 0.04001 0.8
v 0.40001 0.04001 0.7975
v -0.4 0.8335 0.7975
v -0.4 0.885 0.7975
v -0.39749 0.885 0.8
v -0.39749 0.8335 0.8
v -0.39749 0.1065 0.8
v -0.4 0.1065 0.7975
v -0.4 0.04001 0.7975
v -0.39749 0.04001 0.8
v -0.4 0.885 0.757
v -0.4 0.885 0.7975
v -0.4 0.8335 0.7975
v -0.4 0.83351 0.757
v -0.4 0.1065 0.7975
v -0.4 0.83351 0.47001
v -0.4 0.1065 0.757
v -0.4 0.885 0.47001
v -0.4 0.04001 0.757
v -0.4 0.04001 0.7975
v -0.4 0.1065 0.47001
v -0.4 0.04001 0.47001
v -0.4 0.1065 0.43871
v -0.4 0.04001 0.4386
v -0.4 0.83351 0.43871
v -0.4 0.875 0.43871
v -0.4 0.875 -0.3662
v -0.4 0.885 -0.39749
v -0.4 0.8335 -0.3662
v -0.4 0.8335 -0.39749
v -0.4 0.1065 -0.3662
v -0.4 0.1065 -0.39749
v -0.4 0.04001 -0.3662
v -0.4 0.04001 -0.39749
v 0.40001 0.8335 -0.39749
v 0.40001 0.885 0.47001
v 0.40001 0.885 -0.39749
v 0.40001 0.8335 0.47001
v 0.40001 0.1065 0.47001
v 0.40001 0.1065 -0.39749
v 0.40001 0.04001 -0.39749
v 0.40001 0.04001 0.47001
v 0.40001 0.885 0.757
v 0.40001 0.04001 0.757
v 0.40001 0.8335 0.757
v 0.40001 0.1065 0.757
v 0.40001 0.1065 0.7975
v 0.40001 0.04001 0.7975
v 0.40001 0.8335 0.7975
v 0.40001 0.885 0.7975
v -0.0765 0.833 0.75651
v -0.0765 0.10701 0.75651
v -0.0765 0.10701 0.4705
v -0.0765 0.833 0.4705
v -0.4 0.83351 0.47001
v -0.0765 0.833 0.4705
v -0.0765 0.10701 0.4705
v -0.4 0.1065 0.47001
v -0.4 0.1065 0.47001
v -0.0765 0.10701 0.4705
v -0.0765 0.10701 0.75651
v -0.4 0.1065 0.757
v -0.4 0.1065 0.757
v -0.0765 0.10701 0.75651
v -0.0765 0.833 0.75651
v -0.4 0.83351 0.757
v -0.4 0.83351 0.757
v -0.0765 0.833 0.75651
v -0.0765 0.833 0.4705
v -0.4 0.83351 0.47001
v -0.4 0.875 0.43871
v 0.28473 0.875 0.43871
v 0.28473 0.875 -0.3662
v -0.4 0.875 -0.3662
v -0.4 0.875 -0.3662
v 0.28473 0.875 -0.3662
v 0.28473 0.83351 -0.3662
v -0.4 0.8335 -0.3662
v 0.28473 0.1065 -0.3662
v -0.4 0.1065 -0.3662
v 0.28473 0.04001 -0.3662
v -0.4 0.04001 -0.3662
v -0.4 0 -0.3662
v 0.28473 0 -0.3662
v -0.4 0.83351 0.43871
v 0.28473 0.875 0.43871
v -0.4 0.875 0.43871
v 0.28473 0.83351 0.43871
v -0.4 0.1065 0.43871
v 0.28473 0.1065 0.43871
v -0.4 0.04001 0.4386
v 0.28473 0.04001 0.43871
v 0.28473 0 0.4386
v -0.4 0 0.4386
v 0.28473 0.83351 0.43871
v 0.28473 0.875 -0.3662
v 0.28473 0.875 0.43871
v 0.28473 0.83351 -0.3662
v 0.28473 0.1065 0.43871
v 0.28473 0.1065 -0.3662
v 0.28473 0.04001 0.43871
v 0.28473 0.04001 -0.3662
v 0.28473 0 -0.3662
v 0.28473 0 0.4386
vn 0 0.3696401 0.8435082
vn 0 0.3696401 0.8435082
vn 0 0.3696322 0.8435148
vn 0 0.3696401 0.8435082
vn 0 0.3696322 0.8435148
vn 0 0.3696322 0.8435148
vn 0 0 -0.1773503
vn 0 0 -0.1773503
vn 0 0 -0.1773503
vn 0 0 -0.1773503
vn 0 -0.3695824 -0.0435563
vn 0 -0.3695824 -0.04355636
vn 0 -0.3696031 -0.04353908
vn 0 -0.3696031 -0.04353902
vn 0 0.3695902 -0.04354981
vn 0 0.3695902 -0.04354981
vn 0 0.3695823 -0.04355645
vn 0 0.3695822 -0.04355645
vn 0 0 0.9773502
vn 0 0 0.9773502
vn 0 0 0.9773502
vn 0 0 0.9773502
vn 0 -0.3696323 0.8435147
vn 0 -0.3696322 0.8435147
vn 0 -0.3696531 0.8434974
vn 0 -0.3696531 0.8434973
vn 0 -0.5773503 0.3999999
vn 0 -0.5773503 0.4000058
vn 0 -0.5773503 0.4000058
vn 0 -0.5773503 0.4
vn 0 -0.5773503 0.3999999
vn 0 -0.5773503 0.4
vn 0 -0.5773503 0.4
vn 0 -0.5773503 0.4
vn 0 -0.5773503 0.4
vn 0 -0.5773503 0.4
vn 0 -0.5773503 0.3999999
vn 0 -0.5773503 0.4
vn 0 -0.5773503 0.4
vn 0 -0.5773503 0.4
vn 0 -0.5773503 0.4000003
vn 0 -0.5773503 0.4000021
vn 0 -0.5773503 0.4000021
vn 0 -0.5773503 0.399998
vn 0 -0.5773503 0.3999979
vn 0 -0.5773503 0.4
vn 0 -0.5773503 0.4000059
vn 0 -0.5773503 0.4
vn 0 -0.5773503 0.4
vn 0 -0.5773503 0.4
vn 0 -0.5773503 0.4
vn 0 -0.5773503 0.4
vn 0 -0.5773503 0.4
vn 0 -0.5773503 0.4
vn 0.5773503 0 0.4
vn 0.5773503 0 0.4
vn 0.5773503 0 0.4
vn 0.5773503 0 0.4
vn 0.5773503 0 0.4
vn 0.5773503 0 0.4
vn 0.5773503 0 0.4
vn 0.5773503 0 0.4
vn 0.4435377 -0.3696047 0.4
vn 0.4435377 -0.3696046 0.4
vn 0.4435377 -0.3696047 0.4
vn 0.4435429 -0.3695985 0.4
vn 0.4435449 -0.369596 0.4
vn 0.4435449 -0.369596 0.4
vn 0.4435454 -0.3695955 0.4
vn 0.4435517 -0.3695878 0.4
vn 0.4435492 0.3695908 0.4
vn 0.4435493 0.3695908 0.4
vn 0.4435493 0.3695908 0.4
vn 0.4435429 0.3695985 0.4
vn 0.4435386 0.3696036 0.4
vn 0.4435385 0.3696037 0.4
vn 0.4435727 0.3695626 0.4
vn 0.4435728 0.3695626 0.4
vn -0.5773503 0 0.4
vn -0.5773503 0 0.4
vn -0.5773503 0 0.4
vn -0.5773503 0 0.4
vn -0.5773503 0 0.4
vn -0.5773503 0 0.4
vn -0.5773503 0 0.4
vn -0.5773503 0 0.4
vn -0.4435377 -0.3696047 0.4
vn -0.4435377 -0.3696047 0.4
vn -0.4435377 -0.3696046 0.4
vn -0.4435429 -0.3695985 0.4
vn -0.4435386 -0.3696036 0.4
vn -0.4435385 -0.3696037 0.4
vn -0.4435612 -0.3695765 0.4
vn -0.4435613 -0.3695764 0.4
vn -0.4435492 0.3695908 0.4
vn -0.4435493 0.3695908 0.4
vn -0.4435493 0.3695908 0.4
vn -0.4435429 0.3695985 0.4
vn -0.4435449 0.369596 0.4
vn -0.4435449 0.369596 0.4
vn -0.4435454 0.3695955 0.4
vn -0.4435633 0.369574 0.4
vn 0 0.5773503 0.3999947
vn 0 0.5773503 0.4
vn 0 0.5773503 0.4
vn 0 0.5773503 0.4
vn 0 0.5773503 0.4
vn 0 0.5773503 0.4
vn 0 0.5773503 0.4
vn 0 0.5773503 0.4
vn 0 0.5773503 0.4
vn 8.684892E-07 0.5773503 0.4
vn 0 0.5773503 0.4
vn 0 0.5773503 0.4
vn 0 0.5773503 0.4000053
vn 0 0.5773503 0.4000053
vn 0 0.5773503 0.4000053
vn 0 0.5773503 0.4
vn 0 0.4435333 0.76961
vn 0 0.4435384 0.7696038
vn 0 0.4435377 0.7696046
vn 0 0 -0.1773503
vn 0 0 -0.1773503
vn 0 0 -0.1773503
vn 0 0 -0.1773503
vn 0 0.3059992 -0.08958951
vn 0 0.3059991 -0.08958951
vn 0 0.3059991 -0.08958951
vn 0 0.3059992 -0.08958951
vn 0 -0.3059973 -0.08959064
vn 0 -0.3059973 -0.0895907
vn 0 -0.3059973 -0.08959064
vn 0 -0.3059973 -0.08959064
vn 0 0 0.9773502
vn 0 0 0.9773502
vn 0 0 0.9773502
vn 0 0 0.9773502
vn 0 0.30599 0.8895952
vn 0 0.30599 0.8895952
vn 0 0.3059897 0.8895953
vn 0 0.3059897 0.8895953
vn 0 -0.3059899 0.8895953
vn 0 -0.3059898 0.8895953
vn 0 -0.3059898 0.8895953
vn 0 -0.3059898 0.8895953
vn 0 0.4435335 0.03039026
vn 0 0.4435333 0.03039002
vn 0 0.4435335 0.03039026
vn 0 0.4435333 0.03039002
vn 0 0.4435197 0.03037372
vn 0 0.4435202 0.03037432
vn 0 -0.5694948 0.3050839
vn 0 -0.5694948 0.3050839
vn 0 -0.5694948 0.3050839
vn 0 -0.5694948 0.3050839
vn 0.09491593 -0.5694948 0.4
vn 0.09491637 -0.5694947 0.4
vn 0.09491635 -0.5694947 0.4
vn 0.09491592 -0.5694948 0.4
vn 0.09491599 -0.5694948 0.4
vn 0.09491598 -0.5694948 0.4
vn 0.09491565 -0.5694948 0.4
vn 0.09491559 -0.5694948 0.4
vn -0.09491589 -0.5694948 0.4
vn -0.09491574 -0.5694948 0.4
vn -0.09491599 -0.5694948 0.4
vn -0.09491599 -0.5694948 0.4
vn -0.09491604 -0.5694948 0.4
vn -0.09491605 -0.5694948 0.4
vn -0.09491637 -0.5694947 0.4
vn -0.09491637 -0.5694947 0.4
vn 0 -0.5694949 0.4949155
vn 0 -0.5694949 0.4949155
vn 0 -0.5694949 0.4949155
vn 0 -0.5694949 0.4949154
vn -0.3696114 0.4435321 0.4
vn -0.3696125 0.4435312 0.3999984
vn -0.3696114 0.4435321 0.4
vn -0.369611 0.4435324 0.4
vn -0.369611 0.4435324 0.4
vn -0.3818288 0.433059 0.4
vn -0.570372 0.08949362 0.4
vn -0.5703433 0.08967605 0.4
vn -0.4166386 0.3996819 0.4
vn -0.4895916 0.3059956 0.4
vn -0.4895929 0.3059938 0.4
vn -0.4895916 0.3059956 0.4
vn -0.4895942 0.3059915 0.4
vn -0.4895916 0.3059956 0.4
vn -0.4895934 0.3059929 0.4
vn -0.4895925 0.3059944 0.4
vn 0.5773503 0 0.4
vn 0.5773503 0 0.4
vn 0.5773503 0 0.4
vn 0.5773503 0 0.4
vn 0.5773503 0 0.4
vn 0.5773503 0 0.4
vn 0.5773503 0 0.4
vn 0.5773503 0 0.4
vn 0.4895918 0.3059954 0.4
vn 0.4895918 0.3059954 0.4
vn 0.4895918 0.3059954 0.4
vn 0.4895923 0.3059947 0.4
vn 0.4895925 0.3059942 0.4
vn 0.4895925 0.3059943 0.4
vn 0.4895933 0.3059931 0.4
vn 0.4895934 0.3059929 0.4
vn 0.4895901 -0.3059981 0.4
vn 0.48959 -0.3059981 0.4
vn 0.4895901 -0.3059981 0.4
vn 0.4895923 -0.3059947 0.4
vn 0.4895916 -0.3059956 0.4
vn 0.4895916 -0.3059956 0.4
vn 0.4895934 -0.3059929 0.4
vn 0.4895925 -0.3059944 0.4
vn 0.3696133 0.4435305 0.4
vn 0.3696139 0.4435301 0.4
vn 0.3696114 0.4435322 0.4
vn 0.3695969 0.4435442 0.4
vn 0.3696114 0.4435322 0.4
vn 0.369611 0.4435324 0.4
vn 0.369611 0.4435324 0.4
vn 0.3696115 0.443532 0.4
vn 0.3696114 0.4435321 0.4
vn 0.369617 0.4435274 0.3999984
vn -0.5773503 0 0.4
vn -0.5773503 0 0.4
vn -0.5773503 0 0.4
vn -0.5773503 0 0.4
vn -0.5773503 0 0.4
vn -0.5773503 0 0.4
vn -0.5773503 0 0.4
vn -0.5773503 0 0.4
vn -0.4895933 -0.3059931 0.4
vn -0.4895934 -0.3059929 0.4
vn -0.4895925 -0.3059942 0.4
vn -0.4895925 -0.3059943 0.4
vn -0.4895942 -0.3059915 0.4
vn -0.4895942 -0.3059915 0.4
vn -0.4895916 -0.3059958 0.3999997
vn -0.4895916 -0.3059958 0.3999997
vn -0.3696109 0.4435325 0.4
vn -0.5772433 0.01111212 0.4
vn -0.5683624 0.1014765 0.4
vn -0.3696109 0.4435325 0.4
vn -0.3696109 0.4435325 0.4
vn -0.4895935 0.3059927 0.4
vn -0.4895935 0.3059927 0.4
vn -0.4895935 0.3059926 0.4
vn -0.4895935 0.3059927 0.4
vn -0.5773503 0 0.4
vn -0.5773503 0 0.4
vn -0.5773503 0 0.4
vn -0.5773503 0 0.4
vn -0.4895921 -0.3059949 0.4
vn -0.4895921 -0.305995 0.4
vn -0.4895921 -0.305995 0.4
vn -0.4895921 -0.3059949 0.4
vn -0.09491618 -0.5694948 0.4
vn -0.09491619 -0.5694948 0.4
vn -0.09491619 -0.5694948 0.4
vn -0.09491618 -0.5694948 0.4
vn 0 0.4435328 0.7696106
vn 0 0.4435333 0.76961
vn 0 0.4435333 0.7696099
vn 0 0.4435367 0.7696059
vn 0 0.4435377 0.7696046
vn 0 0.4435333 0.76961
vn 0 0.4435326 0.7696107
vn 0 0.4435331 0.7696102
vn 0 4.534394E-06 0.9773502
vn 0 4.534394E-06 0.9773502
vn 0 4.534394E-06 0.9773502
vn 0 4.534394E-06 0.9773502
vn 0 4.235415E-06 0.9773502
vn 0 4.235414E-06 0.9773502
vn -4.31848E-06 -1.943303E-06 -0.1773503
vn -4.31848E-06 -1.943303E-06 -0.1773503
vn -4.31848E-06 -1.943303E-06 -0.1773503
vn -4.31848E-06 -1.943303E-06 -0.1773503
vn -9.412056E-06 5.294245E-07 -0.1773503
vn -9.412056E-06 5.294245E-07 -0.1773503
vn 0 -0.5773503 0.4
vn 0 -0.5773503 0.4
vn 0.1256985 0.5493004 0.2742929
vn 0.1256985 0.5493004 0.274293
vn 0.1256985 0.5493004 0.274293
vn -0.1256993 0.5493001 0.2742922
vn -0.1256993 0.5493001 0.2742922
vn -0.1256993 0.5493001 0.2742922
vn 0.1256997 0.5493007 0.5257044
vn 0.1256997 0.5493007 0.5257044
vn 0.1256997 0.5493007 0.5257044
vn -0.1256982 0.5493014 0.5257029
vn -0.1256982 0.5493014 0.5257029
vn -0.1256982 0.5493014 0.5257029
vn 0 -0.5773503 0.4
vn 0 -0.5773503 0.4
vn 0 -0.5773503 0.4
vn 0 -0.5773503 0.4
vn 0 -0.5773503 0.4
vn 0 -0.5773503 0.4
vn 0 -0.5773503 0.4
vn 0 -0.5773503 0.4
vn 0 -0.5773503 0.4
vn 0 -0.5773503 0.4
vn 0 -0.5773503 0.4
vn 0 -0.5773503 0.4
vn 0 0 0.9773502
vn 0 0 0.9773502
vn 0 0 0.9773502
vn 0 0 0.9773502
vn 0 0 0.9773502
vn 0 0 0.9773502
vn 0 0 0.9773502
vn 0 0 0.9773502
vn 0 0 0.9773502
vn 0 0 0.9773502
vn 0 0 -0.1773503
vn 0 0 -0.1773503
vn 0 0 -0.1773503
vn 0 0 -0.1773503
vn 0 0 -0.1773503
vn 0 0 -0.1773503
vn 0 0 -0.1773503
vn 0 0 -0.1773503
vn -0.4082413 0 -0.008255243
vn -0.4082429 0 -0.008253723
vn -0.4082413 0 -0.008255243
vn -0.4082429 0 -0.008253723
vn -0.4082429 0 -0.008253664
vn -0.4082429 0 -0.008253664
vn -0.4082422 0 -0.008254319
vn -0.4082422 0 -0.008254319
vn 0.4082482 0 -0.008248359
vn 0.4082368 0 -0.008259773
vn 0.4082372 0 -0.008259356
vn 0.4082483 0 -0.008248329
vn 0.4082379 0 -0.008258671
vn 0.4082378 0 -0.0082587
vn 0.4082422 0 -0.008254349
vn 0.4082422 0 -0.008254319
vn 0.4082434 0 0.808253
vn 0.4082416 0 0.808255
vn 0.408242 0 0.8082545
vn 0.4082434 0 0.808253
vn 0.4082529 0 0.8082436
vn 0.408253 0 0.8082436
vn 0.4082422 0 0.8082543
vn 0.4082422 0 0.8082542
vn -0.4082531 0 0.8082435
vn -0.4082513 0 0.8082452
vn -0.4082509 0 0.8082457
vn -0.4082531 0 0.8082435
vn -0.4082429 0 0.8082536
vn -0.4082429 0 0.8082536
vn -0.4082422 0 0.8082543
vn -0.4082422 0 0.8082542
vn -0.5773503 0 0.4
vn -0.5773503 0 0.4
vn -0.5773503 0 0.4
vn -0.5773503 0 0.4
vn -0.5773503 0 0.4
vn -0.5773503 0 0.4
vn -0.5773503 0 0.4
vn -0.5773503 0 0.4
vn -0.5773503 0 0.4
vn -0.5773503 0 0.4
vn -0.5773503 0 0.4
vn -0.570372 0.08949362 0.4
vn -0.5773503 0 0.4
vn -0.5703433 0.08967605 0.4
vn -0.5773503 0 0.4
vn -0.5773503 -9.444243E-08 0.4
vn -0.5773503 -9.444241E-08 0.4
vn -0.5773503 -6.16086E-08 0.4
vn -0.5773503 0 0.4
vn -0.5773503 0 0.4
vn -0.5773503 0 0.4
vn -0.5773503 0 0.4
vn -0.5683624 0.1014765 0.4
vn -0.5772433 0.01111212 0.4
vn 0.5773503 0 0.4
vn 0.5773503 0 0.4
vn 0.5773503 0 0.4
vn 0.5773503 0 0.4
vn 0.5773503 0 0.4
vn 0.5773503 0 0.4
vn 0.5773503 0 0.4
vn 0.5773503 0 0.4
vn 0.5773503 0 0.4
vn 0.5773503 0 0.4
vn 0.5773503 0 0.4
vn 0.5773503 0 0.4
vn 0.5773503 0 0.4
vn 0.5773503 0 0.4
vn 0.5773503 0 0.4
vn 0.5773503 0 0.4
vn -0.5773503 0 0.4
vn -0.5773503 0 0.4
vn -0.5773503 0 0.4
vn -0.5773503 0 0.4
vn -0.0008924541 0 0.9773495
vn -0.0008924697 0 0.9773495
vn -0.0008924265 0 0.9773495
vn -0.0008924108 0 0.9773495
vn -0.0008923692 0.5773495 0.4
vn -0.0008923694 0.5773495 0.4
vn -0.0008923694 0.5773495 0.4
vn -0.0008923688 0.5773495 0.4
vn -0.0008922598 0 -0.1773496
vn -0.0008922483 0 -0.1773496
vn -0.0008922797 0 -0.1773496
vn -0.000892291 0 -0.1773496
vn -0.0008926755 -0.5773495 0.4
vn -0.0008926752 -0.5773495 0.4
vn -0.0008926755 -0.5773495 0.4
vn -0.0008926757 -0.5773495 0.4
vn 0 -0.5773503 0.4
vn 0 -0.5773503 0.4
vn 0 -0.5773503 0.4
vn 0 -0.5773503 0.4
vn 0 0 0.9773502
vn 0 0 0.9773502
vn 0 0 0.9773502
vn 0 0 0.9773502
vn 0 0 0.9773502
vn 0 0 0.9773502
vn -9.67372E-08 -6.62381E-07 0.9773502
vn -9.67372E-08 -6.62381E-07 0.9773502
vn -6.433019E-08 2.477718E-06 0.9773502
vn -6.433019E-08 2.477718E-06 0.9773502
vn 0 0 -0.1773503
vn 0 0 -0.1773503
vn 0 0 -0.1773503
vn 0 0 -0.1773503
vn 3.764959E-06 3.876086E-05 -0.1773503
vn 3.764959E-06 3.876086E-05 -0.1773503
vn 4.492473E-05 0.0004625074 -0.1773502
vn 4.492474E-05 0.0004625075 -0.1773502
vn 4.470946E-05 0.000769193 -0.1773498
vn 4.470946E-05 0.0007691932 -0.1773498
vn -0.5773503 0 0.4
vn -0.5773503 0 0.4
vn -0.5773503 0 0.4
vn -0.5773503 0 0.4
vn -0.5773503 0 0.4
vn -0.5773503 0 0.4
vn -0.5773503 0 0.4
vn -0.5773503 0 0.4
vn -0.5773503 1.492214E-07 0.3999999
vn -0.5773503 1.492214E-07 0.3999999
vt 0.7868484 -0.6671199
vt 0.7878487 -0.6681203
vt -0.06441014 -0.6681203
vt 0.7868484 -0.6671199
vt -0.06441014 -0.6681203
vt -0.06340988 -0.6671199
vt 0.5071166 0.2102133
vt 0.4795166 0.2102133
vt 0.4795166 1.062212
vt 0.5071166 1.062212
vt 0.5451852 -0.667559
vt 0.5461859 -0.6685598
vt -0.3064772 -0.6685598
vt -0.3054765 -0.667559
vt -0.06340988 1.183442
vt -0.06441014 1.184442
vt 0.7878487 1.184442
vt 0.7868484 1.183442
vt 0.4657451 1.062213
vt 0.4933451 1.062213
vt 0.4933451 0.2102125
vt 0.4657451 0.2102125
vt -0.3054765 1.183881
vt -0.3064772 1.184882
vt 0.5461859 1.184882
vt 0.5451852 1.183881
vt 0.5202656 0.5608944
vt 0.5176637 0.5583944
vt -0.2779551 0.5583944
vt -0.280557 0.5608944
vt 0.5451852 1.183881
vt 0.5201658 0.5558925
vt -0.3054765 1.183881
vt -0.2804571 0.5558925
vt 0.5201658 0.515361
vt 0.5201658 0.5558925
vt 0.5451852 1.183881
vt 0.5451851 0.515361
vt 0.5451851 0.2281376
vt 0.5201658 0.2281376
vt 0.5201658 -0.6400377
vt 0.5219349 -0.6443087
vt 0.5451852 -0.667559
vt -0.3054765 -0.667559
vt -0.2822262 -0.6443087
vt 0.5176637 -0.6425395
vt -0.2779551 -0.6425395
vt -0.3054765 0.2281376
vt -0.2804571 -0.6400377
vt -0.2804571 0.2281376
vt -0.2804571 0.515361
vt -0.3054765 0.515361
vt -0.2804571 0.5558925
vt -0.3054765 1.183881
vt 0.5055915 0.2278012
vt 0.5055915 -0.6789407
vt 0.4776608 -0.6789407
vt 0.4776608 0.2278012
vt 0.4776608 0.5182418
vt 0.5055915 0.5182418
vt 0.5055915 1.195262
vt 0.4776608 1.195262
vt 0.4776608 0.2278012
vt 0.4776608 -0.6789407
vt 0.4764463 -0.6779286
vt 0.4764463 0.2278012
vt 0.4764463 0.5182418
vt 0.4776608 0.5182418
vt 0.4764463 1.19425
vt 0.4776608 1.195262
vt 0.5055915 0.2278012
vt 0.506806 -0.6779286
vt 0.5055915 -0.6789407
vt 0.506806 0.2278012
vt 0.506806 0.5182418
vt 0.5055915 0.5182418
vt 0.5055915 1.195262
vt 0.506806 1.19425
vt 0.4932522 1.195262
vt 0.5211831 1.195262
vt 0.5211831 0.2885204
vt 0.4932522 0.2885204
vt 0.4932522 -0.001920134
vt 0.5211831 -0.001920134
vt 0.5211831 -0.6789402
vt 0.4932522 -0.6789402
vt 0.4932522 0.2885204
vt 0.4920379 1.19425
vt 0.4932522 1.195262
vt 0.4920379 0.2885204
vt 0.4920379 -0.001920134
vt 0.4932522 -0.001920134
vt 0.4932522 -0.6789402
vt 0.4920379 -0.6779281
vt 0.5211831 0.2885204
vt 0.5211831 1.195262
vt 0.5223976 1.19425
vt 0.5223976 0.2885204
vt 0.5223976 -0.001920134
vt 0.5211831 -0.001920134
vt 0.5223976 -0.6779281
vt 0.5211831 -0.6789402
vt 0.7868484 -0.6671199
vt 0.7618409 0.001082838
vt 0.7868484 0.001082838
vt 0.7868484 0.28817
vt 0.7618409 -0.6421124
vt -0.06340988 -0.6671199
vt -0.03840226 -0.6421124
vt -0.06340988 0.001082838
vt -0.03840226 0.001082838
vt -0.06340988 0.28817
vt 0.7618409 0.28817
vt -0.03840226 0.28817
vt -0.03840226 1.158434
vt -0.06340988 1.183442
vt 0.7868484 1.183442
vt 0.7618409 1.158434
vt 0.01124557 1.353745
vt 0.0130879 1.348878
vt 0.0130879 0.387209
vt 0.008731258 1.050085
vt 0.02233126 1.050085
vt 0.02233126 0.2170843
vt 0.008731258 0.2170843
vt 0.01637782 0.1297674
vt 0.01093433 0.1352105
vt 0.01093433 1.131958
vt 0.01637782 1.137402
vt 1.047367 -0.4416585
vt 1.051883 -0.4461746
vt 0.2159032 -0.4461746
vt 0.2204192 -0.4416585
vt 0.02256202 0.4515437
vt 0.008962013 0.4515437
vt 0.008962013 1.284544
vt 0.02256202 1.284544
vt -0.001427887 0.369669
vt -0.006871222 0.3642257
vt -0.006871222 1.371862
vt -0.001427887 1.366418
vt 0.2204192 0.7867204
vt 0.2159032 0.7912364
vt 1.051883 0.7912364
vt 1.047367 0.7867204
vt 0.01093433 0.1352105
vt -0.001739187 1.119285
vt 0.01093433 1.131958
vt -0.001739187 0.1478839
vt -0.003581346 1.114418
vt -0.003581346 0.1527506
vt 1.035324 -0.4296156
vt 1.047367 -0.4416585
vt 0.2204192 -0.4416585
vt 0.2324621 -0.4296156
vt 1.047367 0.4434969
vt 1.047367 -0.4416585
vt 1.035324 -0.4296156
vt 1.035324 0.4434969
vt 1.035324 0.7315238
vt 1.047367 0.7315238
vt 1.035324 0.7746773
vt 1.047367 0.7867204
vt 0.2204192 0.7867204
vt 0.2324621 0.7746773
vt 0.2324621 0.7315238
vt 0.2204192 0.7315238
vt 0.2204192 0.4434969
vt 0.2324621 0.4434969
vt 0.2324621 0.4119786
vt 0.2204198 0.4119788
vt 0.2324621 0.7746773
vt 0.2204192 0.7867204
vt 1.047367 0.7867204
vt 1.035324 0.7746773
vt 0.4695886 -0.08394092
vt 0.4683107 -0.08799154
vt 0.4595202 -0.09854031
vt 0.4695886 -0.04316294
vt 0.4595202 -0.04316294
vt 0.4595202 0.2458063
vt 0.4695886 0.2458063
vt 0.4696998 0.2774273
vt 0.4595199 0.2774272
vt 0.4522705 0.2458063
vt 0.4522702 0.2774275
vt 0.4595202 -0.04316294
vt 0.4595202 0.2458063
vt 0.4522705 -0.04316294
vt 0.4595202 -0.09854031
vt 0.4522705 -0.1030711
vt 0.3539313 0.2522237
vt 1.245321 0.2658986
vt 1.245321 0.2522238
vt 0.3539313 0.2658987
vt 0.06534827 0.2658986
vt 0.06534824 0.2522236
vt 0.005520195 0.2522236
vt 0.005520344 0.2658987
vt 0.3539313 0.2658987
vt 1.240796 0.2731384
vt 1.245321 0.2658986
vt 0.3539313 0.2731384
vt 0.06534824 0.2731383
vt 0.06534827 0.2658986
vt 0.005520344 0.2658987
vt 0.01004514 0.2731383
vt 0.3539313 0.2522237
vt 1.245321 0.2522238
vt 1.240796 0.2449841
vt 0.3539314 0.2449839
vt 0.0653483 0.2449839
vt 0.06534824 0.2522236
vt 0.0100452 0.2449839
vt 0.005520195 0.2522236
vt 1.230261 0.2819175
vt 1.240796 0.2731384
vt 0.3539313 0.2731384
vt 1.226216 0.2831935
vt 0.3539313 0.2831933
vt 0.06534827 0.2831932
vt 0.06534824 0.2731383
vt 0.02462518 0.2831933
vt 0.01004514 0.2731383
vt 0.02057996 0.2819173
vt 0.4522705 -0.04316294
vt 0.4522705 -0.1030711
vt 0.4385775 -0.1030711
vt 0.4385775 -0.04316294
vt 0.4385775 0.2458063
vt 0.4522705 0.2458063
vt 0.4522702 0.2774275
vt 0.4385778 0.2774275
vt 0.4385775 -0.1030711
vt 0.4313278 -0.09854031
vt 0.4313278 -0.04316294
vt 0.4385775 -0.04316294
vt 0.4385775 0.2458063
vt 0.4313278 0.2458063
vt 0.4313286 0.2774275
vt 0.4385778 0.2774275
vt 0.4683107 1.12331
vt 0.4695886 1.119259
vt 0.4701411 1.088507
vt 0.4595185 1.087745
vt 0.4595202 1.133858
vt 0.4595202 1.133858
vt 0.4595185 1.087745
vt 0.4522702 1.087744
vt 0.4522705 1.138389
vt 0.4522705 1.138389
vt 0.4522702 1.087744
vt 0.4385778 1.087744
vt 0.4385775 1.138389
vt 0.4313286 1.087744
vt 0.4313278 1.133858
vt 0.4385775 1.138389
vt 0.4385778 1.087744
vt 0.2324621 -0.395695
vt 0.2324621 -0.4296156
vt 0.2204192 -0.4416585
vt 0.2204199 -0.3956951
vt 0.01121209 0.3849424
vt 0.01124557 1.353745
vt 0.01124557 0.3849828
vt 0.01124557 0.3823425
vt 0.0130879 0.387209
vt 0.01124557 1.353745
vt -0.001427887 0.369669
vt -0.001427887 1.366418
vt 0.2145559 0.5201371
vt 0.2145559 0.4798629
vt 0.2024737 0.4818766
vt 0.2024737 0.5100685
vt 0.1979429 0.489126
vt 0.1979429 0.5028192
vt 0.3141834 0.442915
vt 0.3141834 0.4831893
vt 0.3262657 0.4731207
vt 0.3262656 0.4449288
vt 0.3307965 0.4658713
vt 0.3307965 0.4521781
vt 0.5201658 0.5558925
vt -0.2804571 0.5558925
vt -0.003581346 0.1527506
vt -0.001739187 0.1478839
vt -0.006605404 0.1497264
vt -0.003581346 1.114418
vt -0.006605404 1.117443
vt -0.001739187 1.119285
vt 0.01611206 0.3841847
vt 0.01124557 0.3823425
vt 0.0130879 0.387209
vt 0.0130879 1.348878
vt 0.01124557 1.353745
vt 0.01611206 1.351903
vt 0.2324621 -0.395695
vt 0.9196342 -0.3956951
vt 0.2324621 -0.4296156
vt 1.035324 -0.4296156
vt 1.035324 0.4434969
vt 0.9196339 0.4119781
vt 0.2324621 0.4119786
vt 0.2324621 0.4434969
vt 0.2324621 0.7315238
vt 1.035324 0.7315238
vt 1.035324 0.7746773
vt 0.2324621 0.7746773
vt -0.03788534 1.006245
vt -0.03788534 1.057745
vt 0.7571146 1.057745
vt 0.7571146 1.006245
vt 0.7571146 0.2792446
vt -0.03788534 0.2792446
vt 0.7571146 0.2792446
vt -0.03788534 0.2127445
vt -0.03788534 0.2792446
vt 0.7571146 0.2127445
vt 0.5310251 0.2642446
vt 0.5310251 0.2127446
vt -0.2639748 0.2127446
vt -0.2639748 0.2642446
vt -0.2639748 0.9912446
vt 0.5310251 0.9912446
vt 0.5310251 1.057745
vt -0.2639748 1.057745
vt 1.320387 1.119259
vt 1.268533 1.121776
vt 1.320387 1.121776
vt 1.268533 1.119259
vt 0.5365449 1.119259
vt 0.5365449 1.121776
vt 0.4695886 1.121776
vt 0.4695886 1.119259
vt 1.226216 1.08107
vt 1.226216 1.132854
vt 1.22873 1.132854
vt 1.22873 1.08107
vt 1.22873 0.3500602
vt 1.226216 0.3500603
vt 1.226216 0.2831935
vt 1.22873 0.2831934
vt 0.0221113 1.08107
vt 0.0221113 1.132854
vt 0.02462518 1.132854
vt 0.02462518 1.08107
vt 0.02462518 0.3500601
vt 0.0221113 0.3500601
vt 0.0221113 0.2831933
vt 0.02462518 0.2831933
vt 1.268533 -0.08394092
vt 1.320387 -0.08394092
vt 1.320387 -0.08645797
vt 1.268533 -0.08645797
vt 0.5365449 -0.08645797
vt 0.5365449 -0.08394092
vt 0.4695886 -0.08394092
vt 0.4695886 -0.08645797
vt 1.038436 0.9729275
vt 1.09299 0.9729275
vt 1.09299 0.9035562
vt 1.038436 0.9035563
vt 1.09299 -0.07572135
vt 0.6518439 0.9035562
vt 1.038436 -0.07572132
vt 0.651844 0.9729275
vt 1.038436 -0.1652976
vt 1.09299 -0.1652976
vt 0.651844 -0.07572132
vt 0.651844 -0.1652976
vt 0.6096832 -0.07572135
vt 0.6095399 -0.1652969
vt 0.609683 0.9035562
vt 0.609683 0.9594573
vt -0.4745281 0.9594571
vt -0.5166888 0.9729273
vt -0.474528 0.9035562
vt -0.5166887 0.9035562
vt -0.474528 -0.07572144
vt -0.5166888 -0.07572138
vt -0.4745287 -0.1652959
vt -0.5166888 -0.1652976
vt 1.226216 1.08107
vt 0.3539313 1.132854
vt 1.226216 1.132854
vt 0.3539313 1.08107
vt 0.3539313 0.3500602
vt 1.226216 0.3500603
vt 1.226216 0.2831935
vt 0.3539313 0.2831933
vt 0.06534827 1.132854
vt 0.06534827 0.2831932
vt 0.06534827 1.08107
vt 0.06534827 0.3500601
vt 0.02462518 0.3500601
vt 0.02462518 0.2831933
vt 0.02462518 1.08107
vt 0.02462518 1.132854
vt 0.4030337 1.219562
vt 0.4030337 0.4935619
vt 0.1170337 0.4935619
vt 0.1170337 1.219562
vt -0.09142405 1.2202
vt 0.2320762 1.2197
vt 0.2320762 0.4937
vt -0.09142405 0.4931998
vt 0.489426 0.9626317
vt 0.4889261 0.6391315
vt 0.2029259 0.6391315
vt 0.2024258 0.9626317
vt 0.006023586 1.220201
vt 0.3295238 1.219701
vt 0.3295238 0.4937003
vt 0.006023586 0.4932001
vt 0.57518 0.9626316
vt 0.57468 0.6391315
vt 0.2886798 0.6391315
vt 0.2881797 0.9626316
vt 0 0
vt 0 1
vt 1 1
vt 1 0
vt -0.06493968 1.082986
vt 0.8474794 1.082986
vt 0.8474794 1.027685
vt -0.06493968 1.027685
vt 0.8474794 0.05892959
vt -0.06493968 0.05892959
vt 0.8474794 -0.02968418
vt -0.06493968 -0.02968418
vt -0.06493968 -0.08298576
vt 0.8474795 -0.08298576
vt 0.8474796 1.027686
vt -0.06493968 1.082986
vt 0.8474796 1.082986
vt -0.06493968 1.027686
vt 0.8474794 0.0589295
vt -0.06493974 0.05892956
vt 0.8474794 -0.02968431
vt -0.06493974 -0.02968431
vt -0.06493956 -0.08298588
vt 0.8474794 -0.08298588
vt 0.9962244 1.027685
vt -0.07633752 1.082986
vt 0.9962244 1.082986
vt -0.07633752 1.027685
vt 0.9962244 0.05892959
vt -0.07633752 0.05892959
vt 0.9962244 -0.02968418
vt -0.07633752 -0.02968418
vt -0.07633746 -0.08298576
vt 0.9960821 -0.08298576
usemtl DarkWood2
f 3/3/3 2/2/2 1/1/1
f 6/6/6 5/5/5 4/4/4
f 9/9/9 8/8/8 7/7/7
f 10/10/10 9/9/9 7/7/7
f 13/13/13 12/12/12 11/11/11
f 14/14/14 13/13/13 11/11/11
f 17/17/17 16/16/16 15/15/15
f 18/18/18 17/17/17 15/15/15
f 21/21/21 20/20/20 19/19/19
f 22/22/22 21/21/21 19/19/19
f 25/25/25 24/24/24 23/23/23
f 26/26/26 25/25/25 23/23/23
f 29/29/29 28/28/28 27/27/27
f 27/27/27 30/30/30 29/29/29
f 27/27/27 31/31/31 30/30/30
f 31/31/31 27/27/27 32/32/32
f 31/31/31 33/33/33 30/30/30
f 34/34/34 30/30/30 33/33/33
f 37/37/37 36/36/36 35/35/35
f 35/35/35 38/38/38 37/37/37
f 39/39/39 38/38/38 35/35/35
f 40/40/40 39/39/39 35/35/35
f 39/39/39 40/40/40 41/41/41
f 39/39/39 41/41/41 42/42/42
f 42/42/42 43/43/43 39/39/39
f 44/44/44 43/43/43 42/42/42
f 42/42/42 45/45/45 44/44/44
f 42/42/42 46/46/46 45/45/45
f 46/46/46 47/47/47 45/45/45
f 48/48/48 44/44/44 45/45/45
f 45/45/45 49/49/49 48/48/48
f 49/49/49 50/50/50 48/48/48
f 48/48/48 50/50/50 51/51/51
f 52/52/52 48/48/48 51/51/51
f 52/52/52 51/51/51 53/53/53
f 53/53/53 54/54/54 52/52/52
f 57/57/57 56/56/56 55/55/55
f 58/58/58 57/57/57 55/55/55
f 58/58/58 55/55/55 59/59/59
f 55/55/55 60/60/60 59/59/59
f 60/60/60 61/61/61 59/59/59
f 61/61/61 62/62/62 59/59/59
f 65/65/65 64/64/64 63/63/63
f 66/66/66 65/65/65 63/63/63
f 66/66/66 63/63/63 67/67/67
f 63/63/63 68/68/68 67/67/67
f 69/69/69 67/67/67 68/68/68
f 70/70/70 69/69/69 68/68/68
f 73/73/73 72/72/72 71/71/71
f 72/72/72 74/74/74 71/71/71
f 71/71/71 74/74/74 75/75/75
f 76/76/76 71/71/71 75/75/75
f 76/76/76 75/75/75 77/77/77
f 75/75/75 78/78/78 77/77/77
f 81/81/81 80/80/80 79/79/79
f 82/82/82 81/81/81 79/79/79
f 81/81/81 82/82/82 83/83/83
f 84/84/84 81/81/81 83/83/83
f 85/85/85 84/84/84 83/83/83
f 86/86/86 85/85/85 83/83/83
f 89/89/89 88/88/88 87/87/87
f 88/88/88 90/90/90 87/87/87
f 87/87/87 90/90/90 91/91/91
f 92/92/92 87/87/87 91/91/91
f 92/92/92 91/91/91 93/93/93
f 91/91/91 94/94/94 93/93/93
f 97/97/97 96/96/96 95/95/95
f 98/98/98 97/97/97 95/95/95
f 98/98/98 95/95/95 99/99/99
f 95/95/95 100/100/100 99/99/99
f 101/101/101 99/99/99 100/100/100
f 102/102/102 101/101/101 100/100/100
f 105/105/105 104/104/104 103/103/103
f 105/105/105 106/106/106 104/104/104
f 104/104/104 107/107/107 103/103/103
f 108/108/108 103/103/103 107/107/107
f 109/109/109 108/108/108 107/107/107
f 108/108/108 109/109/109 110/110/110
f 109/109/109 107/107/107 111/111/111
f 109/109/109 111/111/111 110/110/110
f 107/107/107 104/104/104 111/111/111
f 112/112/112 110/110/110 111/111/111
f 106/106/106 113/113/113 104/104/104
f 104/104/104 113/113/113 111/111/111
f 114/114/114 112/112/112 111/111/111
f 113/113/113 114/114/114 111/111/111
f 112/112/112 114/114/114 115/115/115
f 115/115/115 114/114/114 113/113/113
f 116/116/116 112/112/112 115/115/115
f 117/117/117 116/116/116 115/115/115
f 118/118/118 113/113/113 106/106/106
f 118/118/118 115/115/115 113/113/113
f 118/118/118 117/117/117 115/115/115
f 117/117/117 118/118/118 106/106/106
usemtl WhiteGraniteClean
f 121/121/121 120/120/120 119/119/119
f 124/124/124 123/123/123 122/122/122
f 125/125/125 124/124/124 122/122/122
f 128/128/128 127/127/127 126/126/126
f 129/129/129 128/128/128 126/126/126
f 132/132/132 131/131/131 130/130/130
f 133/133/133 132/132/132 130/130/130
f 136/136/136 135/135/135 134/134/134
f 137/137/137 136/136/136 134/134/134
f 140/140/140 139/139/139 138/138/138
f 141/141/141 140/140/140 138/138/138
f 144/144/144 143/143/143 142/142/142
f 145/145/145 144/144/144 142/142/142
f 148/148/148 147/147/147 146/146/146
f 147/147/147 149/149/149 146/146/146
f 147/147/147 150/150/150 149/149/149
f 150/150/150 151/151/151 149/149/149
f 154/154/154 153/153/153 152/152/152
f 155/155/155 154/154/154 152/152/152
f 158/158/158 157/157/157 156/156/156
f 159/159/159 158/158/158 156/156/156
f 159/159/159 156/156/156 160/160/160
f 156/156/156 161/161/161 160/160/160
f 162/162/162 160/160/160 161/161/161
f 163/163/163 162/162/162 161/161/161
f 166/166/166 165/165/165 164/164/164
f 167/167/167 166/166/166 164/164/164
f 167/167/167 168/168/168 166/166/166
f 168/168/168 169/169/169 166/166/166
f 170/170/170 169/169/169 168/168/168
f 171/171/171 170/170/170 168/168/168
f 174/174/174 173/173/173 172/172/172
f 175/175/175 174/174/174 172/172/172
f 178/178/178 177/177/177 176/176/176
f 178/178/178 176/176/176 179/179/179
f 179/179/179 180/180/180 178/178/178
f 181/181/181 180/180/180 179/179/179
f 182/182/182 181/181/181 179/179/179
f 181/181/181 182/182/182 183/183/183
f 184/184/184 181/181/181 183/183/183
f 185/185/185 181/181/181 184/184/184
f 186/186/186 185/185/185 184/184/184
f 188/188/188 185/185/185 187/187/187
f 185/185/185 189/189/189 187/187/187
f 190/190/190 187/187/187 189/189/189
f 191/191/191 190/190/190 189/189/189
f 194/194/194 193/193/193 192/192/192
f 193/193/193 195/195/195 192/192/192
f 192/192/192 195/195/195 196/196/196
f 197/197/197 192/192/192 196/196/196
f 198/198/198 197/197/197 196/196/196
f 199/199/199 198/198/198 196/196/196
f 202/202/202 201/201/201 200/200/200
f 201/201/201 203/203/203 200/200/200
f 200/200/200 203/203/203 204/204/204
f 205/205/205 200/200/200 204/204/204
f 205/205/205 204/204/204 206/206/206
f 204/204/204 207/207/207 206/206/206
f 210/210/210 209/209/209 208/208/208
f 211/211/211 210/210/210 208/208/208
f 211/211/211 208/208/208 212/212/212
f 208/208/208 213/213/213 212/212/212
f 214/214/214 212/212/212 213/213/213
f 215/215/215 214/214/214 213/213/213
f 218/218/218 217/217/217 216/216/216
f 216/216/216 219/219/219 218/218/218
f 219/219/219 220/220/220 218/218/218
f 218/218/218 220/220/220 221/221/221
f 222/222/222 218/218/218 221/221/221
f 222/222/222 221/221/221 223/223/223
f 223/223/223 224/224/224 222/222/222
f 223/223/223 225/225/225 224/224/224
f 228/228/228 227/227/227 226/226/226
f 229/229/229 228/228/228 226/226/226
f 230/230/230 229/229/229 226/226/226
f 231/231/231 230/230/230 226/226/226
f 230/230/230 231/231/231 232/232/232
f 233/233/233 230/230/230 232/232/232
f 236/236/236 235/235/235 234/234/234
f 237/237/237 236/236/236 234/234/234
f 237/237/237 238/238/238 236/236/236
f 238/238/238 239/239/239 236/236/236
f 240/240/240 239/239/239 238/238/238
f 241/241/241 240/240/240 238/238/238
f 244/244/244 243/243/243 242/242/242
f 245/245/245 244/244/244 242/242/242
f 246/246/246 245/245/245 242/242/242
f 249/249/249 248/248/248 247/247/247
f 250/250/250 249/249/249 247/247/247
f 253/253/253 252/252/252 251/251/251
f 254/254/254 253/253/253 251/251/251
f 257/257/257 256/256/256 255/255/255
f 258/258/258 257/257/257 255/255/255
f 261/261/261 260/260/260 259/259/259
f 262/262/262 261/261/261 259/259/259
f 265/265/265 264/264/264 263/263/263
f 265/265/265 263/263/263 266/266/266
f 265/265/265 266/266/266 267/267/267
f 268/268/268 265/265/265 267/267/267
f 263/263/263 269/269/269 266/266/266
f 268/268/268 270/270/270 263/263/263
f 263/263/263 270/270/270 269/269/269
f 273/273/273 272/272/272 271/271/271
f 274/274/274 273/273/273 271/271/271
f 275/275/275 273/273/273 274/274/274
f 276/276/276 275/275/275 274/274/274
f 279/279/279 278/278/278 277/277/277
f 280/280/280 279/279/279 277/277/277
f 281/281/281 279/279/279 280/280/280
f 282/282/282 281/281/281 280/280/280
usemtl BlackWood
f 45/45/45 47/47/47 49/49/49
f 42/42/42 41/41/41 46/46/46
f 27/27/27 28/28/28 283/283/283
f 30/30/30 284/284/284 29/29/29
f 287/287/287 286/286/286 285/285/285
f 290/290/290 289/289/289 288/288/288
f 293/293/293 292/292/292 291/291/291
f 296/296/296 295/295/295 294/294/294
f 299/299/299 298/298/298 297/297/297
f 298/298/298 299/299/299 300/300/300
f 300/300/300 301/301/301 298/298/298
f 301/301/301 302/302/302 298/298/298
f 301/301/301 303/303/303 302/302/302
f 301/301/301 304/304/304 303/303/303
f 304/304/304 301/301/301 305/305/305
f 301/301/301 306/306/306 305/305/305
f 306/306/306 307/307/307 305/305/305
f 307/307/307 308/308/308 305/305/305
f 311/311/311 310/310/310 309/309/309
f 312/312/312 311/311/311 309/309/309
f 312/312/312 309/309/309 313/313/313
f 309/309/309 314/314/314 313/313/313
f 317/317/317 316/316/316 315/315/315
f 316/316/316 318/318/318 315/315/315
f 321/321/321 320/320/320 319/319/319
f 322/322/322 321/321/321 319/319/319
f 322/322/322 319/319/319 323/323/323
f 319/319/319 324/324/324 323/323/323
f 324/324/324 325/325/325 323/323/323
f 325/325/325 326/326/326 323/323/323
f 329/329/329 328/328/328 327/327/327
f 328/328/328 330/330/330 327/327/327
f 330/330/330 328/328/328 331/331/331
f 328/328/328 332/332/332 331/331/331
f 332/332/332 333/333/333 331/331/331
f 333/333/333 334/334/334 331/331/331
f 337/337/337 336/336/336 335/335/335
f 338/338/338 337/337/337 335/335/335
f 338/338/338 335/335/335 339/339/339
f 335/335/335 340/340/340 339/339/339
f 340/340/340 341/341/341 339/339/339
f 341/341/341 342/342/342 339/339/339
f 345/345/345 344/344/344 343/343/343
f 346/346/346 345/345/345 343/343/343
f 346/346/346 343/343/343 347/347/347
f 343/343/343 348/348/348 347/347/347
f 348/348/348 349/349/349 347/347/347
f 349/349/349 350/350/350 347/347/347
f 353/353/353 352/352/352 351/351/351
f 354/354/354 353/353/353 351/351/351
f 354/354/354 351/351/351 355/355/355
f 351/351/351 356/356/356 355/355/355
f 356/356/356 357/357/357 355/355/355
f 357/357/357 358/358/358 355/355/355
f 361/361/361 360/360/360 359/359/359
f 362/362/362 361/361/361 359/359/359
f 363/363/363 361/361/361 362/362/362
f 364/364/364 362/362/362 359/359/359
f 365/365/365 363/363/363 362/362/362
f 366/366/366 364/364/364 359/359/359
f 363/363/363 365/365/365 367/367/367
f 368/368/368 363/363/363 367/367/367
f 365/365/365 369/369/369 367/367/367
f 369/369/369 370/370/370 367/367/367
f 369/369/369 371/371/371 370/370/370
f 371/371/371 372/372/372 370/370/370
f 373/373/373 371/371/371 369/369/369
f 364/364/364 373/373/373 369/369/369
f 374/374/374 373/373/373 364/364/364
f 366/366/366 374/374/374 364/364/364
f 375/375/375 374/374/374 366/366/366
f 376/376/376 375/375/375 366/366/366
f 377/377/377 375/375/375 376/376/376
f 378/378/378 377/377/377 376/376/376
f 379/379/379 377/377/377 378/378/378
f 380/380/380 379/379/379 378/378/378
f 381/381/381 379/379/379 380/380/380
f 382/382/382 381/381/381 380/380/380
f 385/385/385 384/384/384 383/383/383
f 384/384/384 386/386/386 383/383/383
f 383/383/383 386/386/386 387/387/387
f 388/388/388 383/383/383 387/387/387
f 389/389/389 388/388/388 387/387/387
f 390/390/390 389/389/389 387/387/387
f 386/386/386 384/384/384 391/391/391
f 390/390/390 387/387/387 392/392/392
f 393/393/393 386/386/386 391/391/391
f 387/387/387 386/386/386 393/393/393
f 387/387/387 394/394/394 392/392/392
f 394/394/394 387/387/387 393/393/393
f 394/394/394 395/395/395 392/392/392
f 395/395/395 394/394/394 393/393/393
f 395/395/395 396/396/396 392/392/392
f 397/397/397 395/395/395 393/393/393
f 397/397/397 393/393/393 391/391/391
f 398/398/398 397/397/397 391/391/391
f 401/401/401 400/400/400 399/399/399
f 402/402/402 401/401/401 399/399/399
f 405/405/405 404/404/404 403/403/403
f 406/406/406 405/405/405 403/403/403
f 409/409/409 408/408/408 407/407/407
f 410/410/410 409/409/409 407/407/407
f 413/413/413 412/412/412 411/411/411
f 414/414/414 413/413/413 411/411/411
f 417/417/417 416/416/416 415/415/415
f 418/418/418 417/417/417 415/415/415
f 421/421/421 420/420/420 419/419/419
f 422/422/422 421/421/421 419/419/419
f 425/425/425 424/424/424 423/423/423
f 426/426/426 425/425/425 423/423/423
f 427/427/427 425/425/425 426/426/426
f 428/428/428 427/427/427 426/426/426
f 429/429/429 427/427/427 428/428/428
f 430/430/430 429/429/429 428/428/428
f 430/430/430 431/431/431 429/429/429
f 431/431/431 432/432/432 429/429/429
f 435/435/435 434/434/434 433/433/433
f 434/434/434 436/436/436 433/433/433
f 433/433/433 436/436/436 437/437/437
f 436/436/436 438/438/438 437/437/437
f 437/437/437 438/438/438 439/439/439
f 438/438/438 440/440/440 439/439/439
f 440/440/440 441/441/441 439/439/439
f 441/441/441 442/442/442 439/439/439
f 445/445/445 444/444/444 443/443/443
f 444/444/444 446/446/446 443/443/443
f 443/443/443 446/446/446 447/447/447
f 446/446/446 448/448/448 447/447/447
f 447/447/447 448/448/448 449/449/449
f 448/448/448 450/450/450 449/449/449
f 450/450/450 451/451/451 449/449/449
f 451/451/451 452/452/452 449/449/449
g StandardIslandHeight2_b5d12efe
v 0.42501 0.91501 1.425
v 0.426 0.9138 1.426
v -0.42599 0.9138 1.426
v 0.42501 0.91501 1.425
v -0.42599 0.9138 1.426
v -0.425 0.91501 1.425
v 0.426 0.88621 -0.42599
v 0.426 0.9138 -0.42599
v -0.42599 0.9138 -0.42599
v -0.42599 0.88621 -0.42599
v 0.42501 0.885 -0.425
v 0.426 0.88621 -0.42599
v -0.42599 0.88621 -0.42599
v -0.425 0.885 -0.425
v -0.425 0.91501 -0.425
v -0.42599 0.9138 -0.42599
v 0.426 0.9138 -0.42599
v 0.42501 0.91501 -0.425
v -0.42599 0.88621 1.426
v -0.42599 0.9138 1.426
v 0.426 0.9138 1.426
v 0.426 0.88621 1.426
v -0.425 0.885 1.425
v -0.42599 0.88621 1.426
v 0.426 0.88621 1.426
v 0.42501 0.885 1.425
v 0.4001 0.885 0.8025
v 0.3975 0.885 0.8
v -0.39749 0.885 0.8
v -0.40009 0.885 0.8025
v 0.42501 0.885 1.425
v 0.40001 0.885 0.7975
v -0.425 0.885 1.425
v -0.4 0.885 0.7975
v 0.40001 0.885 0.757
v 0.40001 0.885 0.7975
v 0.42501 0.885 1.425
v 0.425 0.885 0.757
v 0.425 0.885 0.47001
v 0.40001 0.885 0.47001
v 0.40001 0.885 -0.39749
v 0.40177 0.885 -0.40176
v 0.42501 0.885 -0.425
v -0.425 0.885 -0.425
v -0.40176 0.885 -0.40176
v 0.3975 0.885 -0.39999
v -0.39749 0.885 -0.39999
v -0.42499 0.885 0.47001
v -0.4 0.885 -0.39749
v -0.4 0.885 0.47001
v -0.4 0.885 0.757
v -0.42499 0.885 0.757
v -0.4 0.885 0.7975
v -0.425 0.885 1.425
v 0.426 0.9138 0.47001
v 0.426 0.9138 -0.42599
v 0.426 0.88621 -0.42599
v 0.426 0.88621 0.47001
v 0.426 0.88621 0.757
v 0.426 0.9138 0.757
v 0.426 0.9138 1.426
v 0.426 0.88621 1.426
v 0.426 0.88621 0.47001
v 0.426 0.88621 -0.42599
v 0.42501 0.885 -0.425
v 0.425 0.885 0.47001
v 0.425 0.885 0.757
v 0.426 0.88621 0.757
v 0.42501 0.885 1.425
v 0.426 0.88621 1.426
v 0.426 0.9138 0.47001
v 0.42501 0.91501 -0.425
v 0.426 0.9138 -0.42599
v 0.425 0.915 0.47001
v 0.425 0.915 0.757
v 0.426 0.9138 0.757
v 0.426 0.9138 1.426
v 0.42501 0.91501 1.425
v -0.42599 0.88621 -0.42599
v -0.42599 0.9138 -0.42599
v -0.42599 0.9138 0.47001
v -0.42599 0.88621 0.47001
v -0.42599 0.88621 0.757
v -0.42599 0.9138 0.757
v -0.42599 0.9138 1.426
v -0.42599 0.88621 1.426
v -0.42599 0.88621 0.47001
v -0.425 0.885 -0.425
v -0.42599 0.88621 -0.42599
v -0.42499 0.885 0.47001
v -0.42499 0.885 0.757
v -0.42599 0.88621 0.757
v -0.42599 0.88621 1.426
v -0.425 0.885 1.425
v -0.42599 0.9138 0.47001
v -0.42599 0.9138 -0.42599
v -0.425 0.91501 -0.425
v -0.42499 0.915 0.47001
v -0.42499 0.915 0.757
v -0.42599 0.9138 0.757
v -0.425 0.91501 1.425
v -0.42599 0.9138 1.426
v 0.42501 0.91501 1.425
v 0.40001 0.915 0.757
v 0.425 0.915 0.757
v 0.425 0.915 0.47001
v 0.40001 0.915 1.4
v -0.425 0.91501 1.425
v -0.4 0.915 1.4
v -0.42499 0.915 0.757
v -0.4 0.915 0.757
v -0.42499 0.915 0.47001
v 0.40001 0.915 0.47001
v -0.4 0.915 0.47001
v -0.4 0.915 -0.39999
v -0.425 0.91501 -0.425
v 0.42501 0.91501 -0.425
v 0.40001 0.915 -0.39999
v -0.40152 0.03874 0.80153
v -0.39749 0.04001 0.8
v 0.3975 0.04001 0.8
v -0.41649 0.02281 -0.4165
v -0.41649 0.00921 -0.4165
v 0.4165 0.00921 -0.4165
v 0.4165 0.02281 -0.4165
v 0.4165 0.02281 -0.4165
v 0.41201 0.03001 -0.412
v -0.412 0.03001 -0.412
v -0.41649 0.02281 -0.4165
v 0.41201 0.00201 -0.412
v 0.4165 0.00921 -0.4165
v -0.41649 0.00921 -0.4165
v -0.412 0.00201 -0.412
v 0.4165 0.02281 0.8165
v 0.4165 0.00921 0.8165
v -0.41649 0.00921 0.8165
v -0.41649 0.02281 0.8165
v 0.41201 0.03001 0.81201
v 0.4165 0.02281 0.8165
v -0.41649 0.02281 0.8165
v -0.412 0.03001 0.81201
v -0.412 0.00201 0.81201
v -0.41649 0.00921 0.8165
v 0.4165 0.00921 0.8165
v 0.41201 0.00201 0.81201
v 0.41201 0.03001 -0.412
v -0.40152 0.03874 -0.40152
v -0.412 0.03001 -0.412
v 0.40153 0.03874 -0.40152
v -0.39749 0.04001 -0.39999
v 0.3975 0.04001 -0.39999
v 0.40001 0 -0.39999
v 0.41201 0.00201 -0.412
v -0.412 0.00201 -0.412
v -0.4 0 -0.39999
v 0.41201 0.00201 0.47001
v 0.41201 0.00201 -0.412
v 0.40001 0 -0.39999
v 0.40001 0 0.47001
v 0.40001 0 0.757
v 0.41201 0.00201 0.757
v 0.40001 0 0.8
v 0.41201 0.00201 0.81201
v -0.412 0.00201 0.81201
v -0.4 0 0.8
v -0.4 0 0.757
v -0.412 0.00201 0.757
v -0.412 0.00201 0.47001
v -0.4 0 0.47001
v -0.4 0 0.4386
v -0.41199 0.00201 0.4386
v -0.4 0 0.8
v -0.412 0.00201 0.81201
v 0.41201 0.00201 0.81201
v 0.40001 0 0.8
v -0.4 0.04001 0.7975
v -0.40152 0.03874 0.80153
v -0.412 0.03001 0.81201
v -0.4 0.04001 0.757
v -0.412 0.03001 0.757
v -0.412 0.03001 0.47001
v -0.4 0.04001 0.47001
v -0.4 0.04001 0.4386
v -0.412 0.03001 0.4386
v -0.41649 0.02281 0.47001
v -0.41649 0.02281 0.4386
v -0.412 0.03001 0.757
v -0.412 0.03001 0.47001
v -0.41649 0.02281 0.757
v -0.412 0.03001 0.81201
v -0.41649 0.02281 0.8165
v 0.4165 0.00921 0.47001
v 0.4165 0.02281 -0.4165
v 0.4165 0.00921 -0.4165
v 0.4165 0.02281 0.47001
v 0.4165 0.02281 0.757
v 0.4165 0.00921 0.757
v 0.4165 0.00921 0.8165
v 0.4165 0.02281 0.8165
v 0.4165 0.02281 0.47001
v 0.41201 0.03001 -0.412
v 0.4165 0.02281 -0.4165
v 0.41201 0.03001 0.47001
v 0.41201 0.03001 0.757
v 0.4165 0.02281 0.757
v 0.4165 0.02281 0.8165
v 0.41201 0.03001 0.81201
v 0.4165 0.00921 0.47001
v 0.4165 0.00921 -0.4165
v 0.41201 0.00201 -0.412
v 0.41201 0.00201 0.47001
v 0.41201 0.00201 0.757
v 0.4165 0.00921 0.757
v 0.41201 0.00201 0.81201
v 0.4165 0.00921 0.8165
v 0.40153 0.03874 -0.40152
v 0.41201 0.03001 -0.412
v 0.41201 0.03001 0.47001
v 0.40001 0.04001 -0.39749
v 0.40001 0.04001 0.47001
v 0.40001 0.04001 0.757
v 0.41201 0.03001 0.757
v 0.40001 0.04001 0.7975
v 0.41201 0.03001 0.81201
v 0.40153 0.03874 0.80153
v -0.41649 0.02281 0.757
v -0.41649 0.02281 0.8165
v -0.41649 0.00921 0.8165
v -0.41649 0.00921 0.757
v -0.41649 0.00921 0.47001
v -0.41649 0.02281 0.47001
v -0.41649 0.02281 0.4386
v -0.41649 0.00921 0.4386
v -0.41649 0.00921 0.8165
v -0.412 0.00201 0.81201
v -0.412 0.00201 0.757
v -0.41649 0.00921 0.757
v -0.41649 0.00921 0.47001
v -0.412 0.00201 0.47001
v -0.41199 0.00201 0.4386
v -0.41649 0.00921 0.4386
v -0.40152 0.03874 -0.40152
v -0.4 0.04001 -0.39749
v -0.4 0.04001 -0.3662
v -0.412 0.03001 -0.3662
v -0.412 0.03001 -0.412
v -0.412 0.03001 -0.412
v -0.412 0.03001 -0.3662
v -0.41649 0.02281 -0.3662
v -0.41649 0.02281 -0.4165
v -0.41649 0.02281 -0.4165
v -0.41649 0.02281 -0.3662
v -0.41649 0.00921 -0.3662
v -0.41649 0.00921 -0.4165
v -0.412 0.00201 -0.3662
v -0.412 0.00201 -0.412
v -0.41649 0.00921 -0.4165
v -0.41649 0.00921 -0.3662
v -0.4 0 -0.3662
v -0.4 0 -0.39999
v -0.412 0.00201 -0.412
v -0.412 0.00201 -0.3662
v 0.39938 0.03871 0.80156
v -0.40152 0.03874 0.80153
v 0.39935 0.03874 0.80153
v 0.40153 0.03874 0.80153
v 0.3975 0.04001 0.8
v -0.40152 0.03874 0.80153
v 0.41201 0.03001 0.81201
v -0.412 0.03001 0.81201
v -0.4 0.04001 -0.3662
v -0.4 0 -0.3662
v -0.412 0.00201 -0.3662
v -0.412 0.03001 -0.3662
v -0.41649 0.00921 -0.3662
v -0.41649 0.02281 -0.3662
v -0.4 0 0.4386
v -0.4 0.04001 0.4386
v -0.412 0.03001 0.4386
v -0.41199 0.00201 0.4386
v -0.41649 0.02281 0.4386
v -0.41649 0.00921 0.4386
v 0.40001 0.885 0.7975
v -0.4 0.885 0.7975
v 0.3975 0.04001 -0.39999
v 0.40153 0.03874 -0.40152
v 0.40001 0.04001 -0.39749
v -0.39749 0.04001 -0.39999
v -0.4 0.04001 -0.39749
v -0.40152 0.03874 -0.40152
v 0.40001 0.04001 0.7975
v 0.40153 0.03874 0.80153
v 0.3975 0.04001 0.8
v -0.39749 0.04001 0.8
v -0.40152 0.03874 0.80153
v -0.4 0.04001 0.7975
v -0.4 0 -0.3662
v 0.28473 0 -0.3662
v -0.4 0 -0.39999
v 0.40001 0 -0.39999
v 0.40001 0 0.47001
v 0.28473 0 0.4386
v -0.4 0 0.4386
v -0.4 0 0.47001
v -0.4 0 0.757
v 0.40001 0 0.757
v 0.40001 0 0.8
v -0.4 0 0.8
v -0.39749 0.8335 0.8
v -0.39749 0.885 0.8
v 0.3975 0.885 0.8
v 0.3975 0.8335 0.8
v 0.3975 0.1065 0.8
v -0.39749 0.1065 0.8
v 0.3975 0.1065 0.8
v -0.39749 0.04001 0.8
v -0.39749 0.1065 0.8
v 0.3975 0.04001 0.8
v 0.3975 0.8335 -0.39999
v 0.3975 0.885 -0.39999
v -0.39749 0.885 -0.39999
v -0.39749 0.8335 -0.39999
v -0.39749 0.1065 -0.39999
v 0.3975 0.1065 -0.39999
v 0.3975 0.04001 -0.39999
v -0.39749 0.04001 -0.39999
v -0.4 0.885 -0.39749
v -0.39749 0.8335 -0.39999
v -0.39749 0.885 -0.39999
v -0.4 0.8335 -0.39749
v -0.4 0.1065 -0.39749
v -0.39749 0.1065 -0.39999
v -0.39749 0.04001 -0.39999
v -0.4 0.04001 -0.39749
v 0.40001 0.8335 -0.39749
v 0.40001 0.885 -0.39749
v 0.3975 0.885 -0.39999
v 0.3975 0.8335 -0.39999
v 0.3975 0.1065 -0.39999
v 0.40001 0.1065 -0.39749
v 0.40001 0.04001 -0.39749
v 0.3975 0.04001 -0.39999
v 0.3975 0.8335 0.8
v 0.3975 0.885 0.8
v 0.40001 0.885 0.7975
v 0.40001 0.8335 0.7975
v 0.40001 0.1065 0.7975
v 0.3975 0.1065 0.8
v 0.3975 0.04001 0.8
v 0.40001 0.04001 0.7975
v -0.4 0.8335 0.7975
v -0.4 0.885 0.7975
v -0.39749 0.885 0.8
v -0.39749 0.8335 0.8
v -0.39749 0.1065 0.8
v -0.4 0.1065 0.7975
v -0.4 0.04001 0.7975
v -0.39749 0.04001 0.8
v -0.4 0.885 0.757
v -0.4 0.885 0.7975
v -0.4 0.8335 0.7975
v -0.4 0.83351 0.757
v -0.4 0.1065 0.7975
v -0.4 0.83351 0.47001
v -0.4 0.1065 0.757
v -0.4 0.885 0.47001
v -0.4 0.04001 0.757
v -0.4 0.04001 0.7975
v -0.4 0.1065 0.47001
v -0.4 0.04001 0.47001
v -0.4 0.1065 0.43871
v -0.4 0.04001 0.4386
v -0.4 0.83351 0.43871
v -0.4 0.875 0.43871
v -0.4 0.875 -0.3662
v -0.4 0.885 -0.39749
v -0.4 0.8335 -0.3662
v -0.4 0.8335 -0.39749
v -0.4 0.1065 -0.3662
v -0.4 0.1065 -0.39749
v -0.4 0.04001 -0.3662
v -0.4 0.04001 -0.39749
v 0.40001 0.8335 -0.39749
v 0.40001 0.885 0.47001
v 0.40001 0.885 -0.39749
v 0.40001 0.8335 0.47001
v 0.40001 0.1065 0.47001
v 0.40001 0.1065 -0.39749
v 0.40001 0.04001 -0.39749
v 0.40001 0.04001 0.47001
v 0.40001 0.885 0.757
v 0.40001 0.04001 0.757
v 0.40001 0.8335 0.757
v 0.40001 0.1065 0.757
v 0.40001 0.1065 0.7975
v 0.40001 0.04001 0.7975
v 0.40001 0.8335 0.7975
v 0.40001 0.885 0.7975
v -0.0765 0.833 0.75651
v -0.0765 0.10701 0.75651
v -0.0765 0.10701 0.4705
v -0.0765 0.833 0.4705
v -0.4 0.83351 0.47001
v -0.0765 0.833 0.4705
v -0.0765 0.10701 0.4705
v -0.4 0.1065 0.47001
v -0.4 0.1065 0.47001
v -0.0765 0.10701 0.4705
v -0.0765 0.10701 0.75651
v -0.4 0.1065 0.757
v -0.4 0.1065 0.757
v -0.0765 0.10701 0.75651
v -0.0765 0.833 0.75651
v -0.4 0.83351 0.757
v -0.4 0.83351 0.757
v -0.0765 0.833 0.75651
v -0.0765 0.833 0.4705
v -0.4 0.83351 0.47001
v -0.4 0.875 0.43871
v 0.28473 0.875 0.43871
v 0.28473 0.875 -0.3662
v -0.4 0.875 -0.3662
v -0.4 0.875 -0.3662
v 0.28473 0.875 -0.3662
v 0.28473 0.83351 -0.3662
v -0.4 0.8335 -0.3662
v 0.28473 0.1065 -0.3662
v -0.4 0.1065 -0.3662
v 0.28473 0.04001 -0.3662
v -0.4 0.04001 -0.3662
v -0.4 0 -0.3662
v 0.28473 0 -0.3662
v -0.4 0.83351 0.43871
v 0.28473 0.875 0.43871
v -0.4 0.875 0.43871
v 0.28473 0.83351 0.43871
v -0.4 0.1065 0.43871
v 0.28473 0.1065 0.43871
v -0.4 0.04001 0.4386
v 0.28473 0.04001 0.43871
v 0.28473 0 0.4386
v -0.4 0 0.4386
v 0.28473 0.83351 0.43871
v 0.28473 0.875 -0.3662
v 0.28473 0.875 0.43871
v 0.28473 0.83351 -0.3662
v 0.28473 0.1065 0.43871
v 0.28473 0.1065 -0.3662
v 0.28473 0.04001 0.43871
v 0.28473 0.04001 -0.3662
v 0.28473 0 -0.3662
v 0.28473 0 0.4386
vn 0 0.3696401 0.8435082
vn 0 0.3696401 0.8435082
vn 0 0.3696322 0.8435148
vn 0 0.3696401 0.8435082
vn 0 0.3696322 0.8435148
vn 0 0.3696322 0.8435148
vn 0 0 -0.1773503
vn 0 0 -0.1773503
vn 0 0 -0.1773503
vn 0 0 -0.1773503
vn 0 -0.3695824 -0.0435563
vn 0 -0.3695824 -0.04355636
vn 0 -0.3696031 -0.04353908
vn 0 -0.3696031 -0.04353902
vn 0 0.3695902 -0.04354981
vn 0 0.3695902 -0.04354981
vn 0 0.3695823 -0.04355645
vn 0 0.3695822 -0.04355645
vn 0 0 0.9773502
vn 0 0 0.9773502
vn 0 0 0.9773502
vn 0 0 0.9773502
vn 0 -0.3696323 0.8435147
vn 0 -0.3696322 0.8435147
vn 0 -0.3696531 0.8434974
vn 0 -0.3696531 0.8434973
vn 0 -0.5773503 0.3999999
vn 0 -0.5773503 0.4000058
vn 0 -0.5773503 0.4000058
vn 0 -0.5773503 0.4
vn 0 -0.5773503 0.3999999
vn 0 -0.5773503 0.4
vn 0 -0.5773503 0.4
vn 0 -0.5773503 0.4
vn 0 -0.5773503 0.4
vn 0 -0.5773503 0.4
vn 0 -0.5773503 0.3999999
vn 0 -0.5773503 0.4
vn 0 -0.5773503 0.4
vn 0 -0.5773503 0.4
vn 0 -0.5773503 0.4000003
vn 0 -0.5773503 0.4000021
vn 0 -0.5773503 0.4000021
vn 0 -0.5773503 0.399998
vn 0 -0.5773503 0.3999979
vn 0 -0.5773503 0.4
vn 0 -0.5773503 0.4000059
vn 0 -0.5773503 0.4
vn 0 -0.5773503 0.4
vn 0 -0.5773503 0.4
vn 0 -0.5773503 0.4
vn 0 -0.5773503 0.4
vn 0 -0.5773503 0.4
vn 0 -0.5773503 0.4
vn 0.5773503 0 0.4
vn 0.5773503 0 0.4
vn 0.5773503 0 0.4
vn 0.5773503 0 0.4
vn 0.5773503 0 0.4
vn 0.5773503 0 0.4
vn 0.5773503 0 0.4
vn 0.5773503 0 0.4
vn 0.4435377 -0.3696047 0.4
vn 0.4435377 -0.3696046 0.4
vn 0.4435377 -0.3696047 0.4
vn 0.4435429 -0.3695985 0.4
vn 0.4435449 -0.369596 0.4
vn 0.4435449 -0.369596 0.4
vn 0.4435454 -0.3695955 0.4
vn 0.4435517 -0.3695878 0.4
vn 0.4435492 0.3695908 0.4
vn 0.4435493 0.3695908 0.4
vn 0.4435493 0.3695908 0.4
vn 0.4435429 0.3695985 0.4
vn 0.4435386 0.3696036 0.4
vn 0.4435385 0.3696037 0.4
vn 0.4435727 0.3695626 0.4
vn 0.4435728 0.3695626 0.4
vn -0.5773503 0 0.4
vn -0.5773503 0 0.4
vn -0.5773503 0 0.4
vn -0.5773503 0 0.4
vn -0.5773503 0 0.4
vn -0.5773503 0 0.4
vn -0.5773503 0 0.4
vn -0.5773503 0 0.4
vn -0.4435377 -0.3696047 0.4
vn -0.4435377 -0.3696047 0.4
vn -0.4435377 -0.3696046 0.4
vn -0.4435429 -0.3695985 0.4
vn -0.4435386 -0.3696036 0.4
vn -0.4435385 -0.3696037 0.4
vn -0.4435612 -0.3695765 0.4
vn -0.4435613 -0.3695764 0.4
vn -0.4435492 0.3695908 0.4
vn -0.4435493 0.3695908 0.4
vn -0.4435493 0.3695908 0.4
vn -0.4435429 0.3695985 0.4
vn -0.4435449 0.369596 0.4
vn -0.4435449 0.369596 0.4
vn -0.4435454 0.3695955 0.4
vn -0.4435633 0.369574 0.4
vn 0 0.5773503 0.3999947
vn 0 0.5773503 0.4
vn 0 0.5773503 0.4
vn 0 0.5773503 0.4
vn 0 0.5773503 0.4
vn 0 0.5773503 0.4
vn 0 0.5773503 0.4
vn 0 0.5773503 0.4
vn 0 0.5773503 0.4
vn 8.684892E-07 0.5773503 0.4
vn 0 0.5773503 0.4
vn 0 0.5773503 0.4
vn 0 0.5773503 0.4000053
vn 0 0.5773503 0.4000053
vn 0 0.5773503 0.4000053
vn 0 0.5773503 0.4
vn 0 0.4435333 0.76961
vn 0 0.4435384 0.7696038
vn 0 0.4435377 0.7696046
vn 0 0 -0.1773503
vn 0 0 -0.1773503
vn 0 0 -0.1773503
vn 0 0 -0.1773503
vn 0 0.3059992 -0.08958951
vn 0 0.3059991 -0.08958951
vn 0 0.3059991 -0.08958951
vn 0 0.3059992 -0.08958951
vn 0 -0.3059973 -0.08959064
vn 0 -0.3059973 -0.0895907
vn 0 -0.3059973 -0.08959064
vn 0 -0.3059973 -0.08959064
vn 0 0 0.9773502
vn 0 0 0.9773502
vn 0 0 0.9773502
vn 0 0 0.9773502
vn 0 0.30599 0.8895952
vn 0 0.30599 0.8895952
vn 0 0.3059897 0.8895953
vn 0 0.3059897 0.8895953
vn 0 -0.3059899 0.8895953
vn 0 -0.3059898 0.8895953
vn 0 -0.3059898 0.8895953
vn 0 -0.3059898 0.8895953
vn 0 0.4435335 0.03039026
vn 0 0.4435333 0.03039002
vn 0 0.4435335 0.03039026
vn 0 0.4435333 0.03039002
vn 0 0.4435197 0.03037372
vn 0 0.4435202 0.03037432
vn 0 -0.5694948 0.3050839
vn 0 -0.5694948 0.3050839
vn 0 -0.5694948 0.3050839
vn 0 -0.5694948 0.3050839
vn 0.09491593 -0.5694948 0.4
vn 0.09491637 -0.5694947 0.4
vn 0.09491635 -0.5694947 0.4
vn 0.09491592 -0.5694948 0.4
vn 0.09491599 -0.5694948 0.4
vn 0.09491598 -0.5694948 0.4
vn 0.09491565 -0.5694948 0.4
vn 0.09491559 -0.5694948 0.4
vn -0.09491589 -0.5694948 0.4
vn -0.09491574 -0.5694948 0.4
vn -0.09491599 -0.5694948 0.4
vn -0.09491599 -0.5694948 0.4
vn -0.09491604 -0.5694948 0.4
vn -0.09491605 -0.5694948 0.4
vn -0.09491637 -0.5694947 0.4
vn -0.09491637 -0.5694947 0.4
vn 0 -0.5694949 0.4949155
vn 0 -0.5694949 0.4949155
vn 0 -0.5694949 0.4949155
vn 0 -0.5694949 0.4949154
vn -0.3696114 0.4435321 0.4
vn -0.3696125 0.4435312 0.3999984
vn -0.3696114 0.4435321 0.4
vn -0.369611 0.4435324 0.4
vn -0.369611 0.4435324 0.4
vn -0.3818288 0.433059 0.4
vn -0.570372 0.08949362 0.4
vn -0.5703433 0.08967605 0.4
vn -0.4166386 0.3996819 0.4
vn -0.4895916 0.3059956 0.4
vn -0.4895929 0.3059938 0.4
vn -0.4895916 0.3059956 0.4
vn -0.4895942 0.3059915 0.4
vn -0.4895916 0.3059956 0.4
vn -0.4895934 0.3059929 0.4
vn -0.4895925 0.3059944 0.4
vn 0.5773503 0 0.4
vn 0.5773503 0 0.4
vn 0.5773503 0 0.4
vn 0.5773503 0 0.4
vn 0.5773503 0 0.4
vn 0.5773503 0 0.4
vn 0.5773503 0 0.4
vn 0.5773503 0 0.4
vn 0.4895918 0.3059954 0.4
vn 0.4895918 0.3059954 0.4
vn 0.4895918 0.3059954 0.4
vn 0.4895923 0.3059947 0.4
vn 0.4895925 0.3059942 0.4
vn 0.4895925 0.3059943 0.4
vn 0.4895933 0.3059931 0.4
vn 0.4895934 0.3059929 0.4
vn 0.4895901 -0.3059981 0.4
vn 0.48959 -0.3059981 0.4
vn 0.4895901 -0.3059981 0.4
vn 0.4895923 -0.3059947 0.4
vn 0.4895916 -0.3059956 0.4
vn 0.4895916 -0.3059956 0.4
vn 0.4895934 -0.3059929 0.4
vn 0.4895925 -0.3059944 0.4
vn 0.3696133 0.4435305 0.4
vn 0.3696139 0.4435301 0.4
vn 0.3696114 0.4435322 0.4
vn 0.3695969 0.4435442 0.4
vn 0.3696114 0.4435322 0.4
vn 0.369611 0.4435324 0.4
vn 0.369611 0.4435324 0.4
vn 0.3696115 0.443532 0.4
vn 0.3696114 0.4435321 0.4
vn 0.369617 0.4435274 0.3999984
vn -0.5773503 0 0.4
vn -0.5773503 0 0.4
vn -0.5773503 0 0.4
vn -0.5773503 0 0.4
vn -0.5773503 0 0.4
vn -0.5773503 0 0.4
vn -0.5773503 0 0.4
vn -0.5773503 0 0.4
vn -0.4895933 -0.3059931 0.4
vn -0.4895934 -0.3059929 0.4
vn -0.4895925 -0.3059942 0.4
vn -0.4895925 -0.3059943 0.4
vn -0.4895942 -0.3059915 0.4
vn -0.4895942 -0.3059915 0.4
vn -0.4895916 -0.3059958 0.3999997
vn -0.4895916 -0.3059958 0.3999997
vn -0.3696109 0.4435325 0.4
vn -0.5772433 0.01111212 0.4
vn -0.5683624 0.1014765 0.4
vn -0.3696109 0.4435325 0.4
vn -0.3696109 0.4435325 0.4
vn -0.4895935 0.3059927 0.4
vn -0.4895935 0.3059927 0.4
vn -0.4895935 0.3059926 0.4
vn -0.4895935 0.3059927 0.4
vn -0.5773503 0 0.4
vn -0.5773503 0 0.4
vn -0.5773503 0 0.4
vn -0.5773503 0 0.4
vn -0.4895921 -0.3059949 0.4
vn -0.4895921 -0.305995 0.4
vn -0.4895921 -0.305995 0.4
vn -0.4895921 -0.3059949 0.4
vn -0.09491618 -0.5694948 0.4
vn -0.09491619 -0.5694948 0.4
vn -0.09491619 -0.5694948 0.4
vn -0.09491618 -0.5694948 0.4
vn 0 0.4435328 0.7696106
vn 0 0.4435333 0.76961
vn 0 0.4435333 0.7696099
vn 0 0.4435367 0.7696059
vn 0 0.4435377 0.7696046
vn 0 0.4435333 0.76961
vn 0 0.4435326 0.7696107
vn 0 0.4435331 0.7696102
vn 0 4.534394E-06 0.9773502
vn 0 4.534394E-06 0.9773502
vn 0 4.534394E-06 0.9773502
vn 0 4.534394E-06 0.9773502
vn 0 4.235415E-06 0.9773502
vn 0 4.235414E-06 0.9773502
vn -4.31848E-06 -1.943303E-06 -0.1773503
vn -4.31848E-06 -1.943303E-06 -0.1773503
vn -4.31848E-06 -1.943303E-06 -0.1773503
vn -4.31848E-06 -1.943303E-06 -0.1773503
vn -9.412056E-06 5.294245E-07 -0.1773503
vn -9.412056E-06 5.294245E-07 -0.1773503
vn 0 -0.5773503 0.4
vn 0 -0.5773503 0.4
vn 0.1256985 0.5493004 0.2742929
vn 0.1256985 0.5493004 0.274293
vn 0.1256985 0.5493004 0.274293
vn -0.1256993 0.5493001 0.2742922
vn -0.1256993 0.5493001 0.2742922
vn -0.1256993 0.5493001 0.2742922
vn 0.1256997 0.5493007 0.5257044
vn 0.1256997 0.5493007 0.5257044
vn 0.1256997 0.5493007 0.5257044
vn -0.1256982 0.5493014 0.5257029
vn -0.1256982 0.5493014 0.5257029
vn -0.1256982 0.5493014 0.5257029
vn 0 -0.5773503 0.4
vn 0 -0.5773503 0.4
vn 0 -0.5773503 0.4
vn 0 -0.5773503 0.4
vn 0 -0.5773503 0.4
vn 0 -0.5773503 0.4
vn 0 -0.5773503 0.4
vn 0 -0.5773503 0.4
vn 0 -0.5773503 0.4
vn 0 -0.5773503 0.4
vn 0 -0.5773503 0.4
vn 0 -0.5773503 0.4
vn 0 0 0.9773502
vn 0 0 0.9773502
vn 0 0 0.9773502
vn 0 0 0.9773502
vn 0 0 0.9773502
vn 0 0 0.9773502
vn 0 0 0.9773502
vn 0 0 0.9773502
vn 0 0 0.9773502
vn 0 0 0.9773502
vn 0 0 -0.1773503
vn 0 0 -0.1773503
vn 0 0 -0.1773503
vn 0 0 -0.1773503
vn 0 0 -0.1773503
vn 0 0 -0.1773503
vn 0 0 -0.1773503
vn 0 0 -0.1773503
vn -0.4082413 0 -0.008255243
vn -0.4082429 0 -0.008253723
vn -0.4082413 0 -0.008255243
vn -0.4082429 0 -0.008253723
vn -0.4082429 0 -0.008253664
vn -0.4082429 0 -0.008253664
vn -0.4082422 0 -0.008254319
vn -0.4082422 0 -0.008254319
vn 0.4082482 0 -0.008248359
vn 0.4082368 0 -0.008259773
vn 0.4082372 0 -0.008259356
vn 0.4082483 0 -0.008248329
vn 0.4082379 0 -0.008258671
vn 0.4082378 0 -0.0082587
vn 0.4082422 0 -0.008254349
vn 0.4082422 0 -0.008254319
vn 0.4082434 0 0.808253
vn 0.4082416 0 0.808255
vn 0.408242 0 0.8082545
vn 0.4082434 0 0.808253
vn 0.4082529 0 0.8082436
vn 0.408253 0 0.8082436
vn 0.4082422 0 0.8082543
vn 0.4082422 0 0.8082542
vn -0.4082531 0 0.8082435
vn -0.4082513 0 0.8082452
vn -0.4082509 0 0.8082457
vn -0.4082531 0 0.8082435
vn -0.4082429 0 0.8082536
vn -0.4082429 0 0.8082536
vn -0.4082422 0 0.8082543
vn -0.4082422 0 0.8082542
vn -0.5773503 0 0.4
vn -0.5773503 0 0.4
vn -0.5773503 0 0.4
vn -0.5773503 0 0.4
vn -0.5773503 0 0.4
vn -0.5773503 0 0.4
vn -0.5773503 0 0.4
vn -0.5773503 0 0.4
vn -0.5773503 0 0.4
vn -0.5773503 0 0.4
vn -0.5773503 0 0.4
vn -0.570372 0.08949362 0.4
vn -0.5773503 0 0.4
vn -0.5703433 0.08967605 0.4
vn -0.5773503 0 0.4
vn -0.5773503 -9.444243E-08 0.4
vn -0.5773503 -9.444241E-08 0.4
vn -0.5773503 -6.16086E-08 0.4
vn -0.5773503 0 0.4
vn -0.5773503 0 0.4
vn -0.5773503 0 0.4
vn -0.5773503 0 0.4
vn -0.5683624 0.1014765 0.4
vn -0.5772433 0.01111212 0.4
vn 0.5773503 0 0.4
vn 0.5773503 0 0.4
vn 0.5773503 0 0.4
vn 0.5773503 0 0.4
vn 0.5773503 0 0.4
vn 0.5773503 0 0.4
vn 0.5773503 0 0.4
vn 0.5773503 0 0.4
vn 0.5773503 0 0.4
vn 0.5773503 0 0.4
vn 0.5773503 0 0.4
vn 0.5773503 0 0.4
vn 0.5773503 0 0.4
vn 0.5773503 0 0.4
vn 0.5773503 0 0.4
vn 0.5773503 0 0.4
vn -0.5773503 0 0.4
vn -0.5773503 0 0.4
vn -0.5773503 0 0.4
vn -0.5773503 0 0.4
vn -0.0008924541 0 0.9773495
vn -0.0008924697 0 0.9773495
vn -0.0008924265 0 0.9773495
vn -0.0008924108 0 0.9773495
vn -0.0008923692 0.5773495 0.4
vn -0.0008923694 0.5773495 0.4
vn -0.0008923694 0.5773495 0.4
vn -0.0008923688 0.5773495 0.4
vn -0.0008922598 0 -0.1773496
vn -0.0008922483 0 -0.1773496
vn -0.0008922797 0 -0.1773496
vn -0.000892291 0 -0.1773496
vn -0.0008926755 -0.5773495 0.4
vn -0.0008926752 -0.5773495 0.4
vn -0.0008926755 -0.5773495 0.4
vn -0.0008926757 -0.5773495 0.4
vn 0 -0.5773503 0.4
vn 0 -0.5773503 0.4
vn 0 -0.5773503 0.4
vn 0 -0.5773503 0.4
vn 0 0 0.9773502
vn 0 0 0.9773502
vn 0 0 0.9773502
vn 0 0 0.9773502
vn 0 0 0.9773502
vn 0 0 0.9773502
vn -9.67372E-08 -6.62381E-07 0.9773502
vn -9.67372E-08 -6.62381E-07 0.9773502
vn -6.433019E-08 2.477718E-06 0.9773502
vn -6.433019E-08 2.477718E-06 0.9773502
vn 0 0 -0.1773503
vn 0 0 -0.1773503
vn 0 0 -0.1773503
vn 0 0 -0.1773503
vn 3.764959E-06 3.876086E-05 -0.1773503
vn 3.764959E-06 3.876086E-05 -0.1773503
vn 4.492473E-05 0.0004625074 -0.1773502
vn 4.492474E-05 0.0004625075 -0.1773502
vn 4.470946E-05 0.000769193 -0.1773498
vn 4.470946E-05 0.0007691932 -0.1773498
vn -0.5773503 0 0.4
vn -0.5773503 0 0.4
vn -0.5773503 0 0.4
vn -0.5773503 0 0.4
vn -0.5773503 0 0.4
vn -0.5773503 0 0.4
vn -0.5773503 0 0.4
vn -0.5773503 0 0.4
vn -0.5773503 1.492214E-07 0.3999999
vn -0.5773503 1.492214E-07 0.3999999
vt 0.7868484 -0.6671199
vt 0.7878487 -0.6681203
vt -0.06441014 -0.6681203
vt 0.7868484 -0.6671199
vt -0.06441014 -0.6681203
vt -0.06340988 -0.6671199
vt 0.5071166 0.2102133
vt 0.4795166 0.2102133
vt 0.4795166 1.062212
vt 0.5071166 1.062212
vt 0.5451852 -0.667559
vt 0.5461859 -0.6685598
vt -0.3064772 -0.6685598
vt -0.3054765 -0.667559
vt -0.06340988 1.183442
vt -0.06441014 1.184442
vt 0.7878487 1.184442
vt 0.7868484 1.183442
vt 0.4657451 1.062213
vt 0.4933451 1.062213
vt 0.4933451 0.2102125
vt 0.4657451 0.2102125
vt -0.3054765 1.183881
vt -0.3064772 1.184882
vt 0.5461859 1.184882
vt 0.5451852 1.183881
vt 0.5202656 0.5608944
vt 0.5176637 0.5583944
vt -0.2779551 0.5583944
vt -0.280557 0.5608944
vt 0.5451852 1.183881
vt 0.5201658 0.5558925
vt -0.3054765 1.183881
vt -0.2804571 0.5558925
vt 0.5201658 0.515361
vt 0.5201658 0.5558925
vt 0.5451852 1.183881
vt 0.5451851 0.515361
vt 0.5451851 0.2281376
vt 0.5201658 0.2281376
vt 0.5201658 -0.6400377
vt 0.5219349 -0.6443087
vt 0.5451852 -0.667559
vt -0.3054765 -0.667559
vt -0.2822262 -0.6443087
vt 0.5176637 -0.6425395
vt -0.2779551 -0.6425395
vt -0.3054765 0.2281376
vt -0.2804571 -0.6400377
vt -0.2804571 0.2281376
vt -0.2804571 0.515361
vt -0.3054765 0.515361
vt -0.2804571 0.5558925
vt -0.3054765 1.183881
vt 0.5055915 0.2278012
vt 0.5055915 -0.6789407
vt 0.4776608 -0.6789407
vt 0.4776608 0.2278012
vt 0.4776608 0.5182418
vt 0.5055915 0.5182418
vt 0.5055915 1.195262
vt 0.4776608 1.195262
vt 0.4776608 0.2278012
vt 0.4776608 -0.6789407
vt 0.4764463 -0.6779286
vt 0.4764463 0.2278012
vt 0.4764463 0.5182418
vt 0.4776608 0.5182418
vt 0.4764463 1.19425
vt 0.4776608 1.195262
vt 0.5055915 0.2278012
vt 0.506806 -0.6779286
vt 0.5055915 -0.6789407
vt 0.506806 0.2278012
vt 0.506806 0.5182418
vt 0.5055915 0.5182418
vt 0.5055915 1.195262
vt 0.506806 1.19425
vt 0.4932522 1.195262
vt 0.5211831 1.195262
vt 0.5211831 0.2885204
vt 0.4932522 0.2885204
vt 0.4932522 -0.001920134
vt 0.5211831 -0.001920134
vt 0.5211831 -0.6789402
vt 0.4932522 -0.6789402
vt 0.4932522 0.2885204
vt 0.4920379 1.19425
vt 0.4932522 1.195262
vt 0.4920379 0.2885204
vt 0.4920379 -0.001920134
vt 0.4932522 -0.001920134
vt 0.4932522 -0.6789402
vt 0.4920379 -0.6779281
vt 0.5211831 0.2885204
vt 0.5211831 1.195262
vt 0.5223976 1.19425
vt 0.5223976 0.2885204
vt 0.5223976 -0.001920134
vt 0.5211831 -0.001920134
vt 0.5223976 -0.6779281
vt 0.5211831 -0.6789402
vt 0.7868484 -0.6671199
vt 0.7618409 0.001082838
vt 0.7868484 0.001082838
vt 0.7868484 0.28817
vt 0.7618409 -0.6421124
vt -0.06340988 -0.6671199
vt -0.03840226 -0.6421124
vt -0.06340988 0.001082838
vt -0.03840226 0.001082838
vt -0.06340988 0.28817
vt 0.7618409 0.28817
vt -0.03840226 0.28817
vt -0.03840226 1.158434
vt -0.06340988 1.183442
vt 0.7868484 1.183442
vt 0.7618409 1.158434
vt 0.01124557 1.353745
vt 0.0130879 1.348878
vt 0.0130879 0.387209
vt 0.008731258 1.050085
vt 0.02233126 1.050085
vt 0.02233126 0.2170843
vt 0.008731258 0.2170843
vt 0.01637782 0.1297674
vt 0.01093433 0.1352105
vt 0.01093433 1.131958
vt 0.01637782 1.137402
vt 1.047367 -0.4416585
vt 1.051883 -0.4461746
vt 0.2159032 -0.4461746
vt 0.2204192 -0.4416585
vt 0.02256202 0.4515437
vt 0.008962013 0.4515437
vt 0.008962013 1.284544
vt 0.02256202 1.284544
vt -0.001427887 0.369669
vt -0.006871222 0.3642257
vt -0.006871222 1.371862
vt -0.001427887 1.366418
vt 0.2204192 0.7867204
vt 0.2159032 0.7912364
vt 1.051883 0.7912364
vt 1.047367 0.7867204
vt 0.01093433 0.1352105
vt -0.001739187 1.119285
vt 0.01093433 1.131958
vt -0.001739187 0.1478839
vt -0.003581346 1.114418
vt -0.003581346 0.1527506
vt 1.035324 -0.4296156
vt 1.047367 -0.4416585
vt 0.2204192 -0.4416585
vt 0.2324621 -0.4296156
vt 1.047367 0.4434969
vt 1.047367 -0.4416585
vt 1.035324 -0.4296156
vt 1.035324 0.4434969
vt 1.035324 0.7315238
vt 1.047367 0.7315238
vt 1.035324 0.7746773
vt 1.047367 0.7867204
vt 0.2204192 0.7867204
vt 0.2324621 0.7746773
vt 0.2324621 0.7315238
vt 0.2204192 0.7315238
vt 0.2204192 0.4434969
vt 0.2324621 0.4434969
vt 0.2324621 0.4119786
vt 0.2204198 0.4119788
vt 0.2324621 0.7746773
vt 0.2204192 0.7867204
vt 1.047367 0.7867204
vt 1.035324 0.7746773
vt 0.4695886 -0.08394092
vt 0.4683107 -0.08799154
vt 0.4595202 -0.09854031
vt 0.4695886 -0.04316294
vt 0.4595202 -0.04316294
vt 0.4595202 0.2458063
vt 0.4695886 0.2458063
vt 0.4696998 0.2774273
vt 0.4595199 0.2774272
vt 0.4522705 0.2458063
vt 0.4522702 0.2774275
vt 0.4595202 -0.04316294
vt 0.4595202 0.2458063
vt 0.4522705 -0.04316294
vt 0.4595202 -0.09854031
vt 0.4522705 -0.1030711
vt 0.3539313 0.2522237
vt 1.245321 0.2658986
vt 1.245321 0.2522238
vt 0.3539313 0.2658987
vt 0.06534827 0.2658986
vt 0.06534824 0.2522236
vt 0.005520195 0.2522236
vt 0.005520344 0.2658987
vt 0.3539313 0.2658987
vt 1.240796 0.2731384
vt 1.245321 0.2658986
vt 0.3539313 0.2731384
vt 0.06534824 0.2731383
vt 0.06534827 0.2658986
vt 0.005520344 0.2658987
vt 0.01004514 0.2731383
vt 0.3539313 0.2522237
vt 1.245321 0.2522238
vt 1.240796 0.2449841
vt 0.3539314 0.2449839
vt 0.0653483 0.2449839
vt 0.06534824 0.2522236
vt 0.0100452 0.2449839
vt 0.005520195 0.2522236
vt 1.230261 0.2819175
vt 1.240796 0.2731384
vt 0.3539313 0.2731384
vt 1.226216 0.2831935
vt 0.3539313 0.2831933
vt 0.06534827 0.2831932
vt 0.06534824 0.2731383
vt 0.02462518 0.2831933
vt 0.01004514 0.2731383
vt 0.02057996 0.2819173
vt 0.4522705 -0.04316294
vt 0.4522705 -0.1030711
vt 0.4385775 -0.1030711
vt 0.4385775 -0.04316294
vt 0.4385775 0.2458063
vt 0.4522705 0.2458063
vt 0.4522702 0.2774275
vt 0.4385778 0.2774275
vt 0.4385775 -0.1030711
vt 0.4313278 -0.09854031
vt 0.4313278 -0.04316294
vt 0.4385775 -0.04316294
vt 0.4385775 0.2458063
vt 0.4313278 0.2458063
vt 0.4313286 0.2774275
vt 0.4385778 0.2774275
vt 0.4683107 1.12331
vt 0.4695886 1.119259
vt 0.4701411 1.088507
vt 0.4595185 1.087745
vt 0.4595202 1.133858
vt 0.4595202 1.133858
vt 0.4595185 1.087745
vt 0.4522702 1.087744
vt 0.4522705 1.138389
vt 0.4522705 1.138389
vt 0.4522702 1.087744
vt 0.4385778 1.087744
vt 0.4385775 1.138389
vt 0.4313286 1.087744
vt 0.4313278 1.133858
vt 0.4385775 1.138389
vt 0.4385778 1.087744
vt 0.2324621 -0.395695
vt 0.2324621 -0.4296156
vt 0.2204192 -0.4416585
vt 0.2204199 -0.3956951
vt 0.01121209 0.3849424
vt 0.01124557 1.353745
vt 0.01124557 0.3849828
vt 0.01124557 0.3823425
vt 0.0130879 0.387209
vt 0.01124557 1.353745
vt -0.001427887 0.369669
vt -0.001427887 1.366418
vt 0.2145559 0.5201371
vt 0.2145559 0.4798629
vt 0.2024737 0.4818766
vt 0.2024737 0.5100685
vt 0.1979429 0.489126
vt 0.1979429 0.5028192
vt 0.3141834 0.442915
vt 0.3141834 0.4831893
vt 0.3262657 0.4731207
vt 0.3262656 0.4449288
vt 0.3307965 0.4658713
vt 0.3307965 0.4521781
vt 0.5201658 0.5558925
vt -0.2804571 0.5558925
vt -0.003581346 0.1527506
vt -0.001739187 0.1478839
vt -0.006605404 0.1497264
vt -0.003581346 1.114418
vt -0.006605404 1.117443
vt -0.001739187 1.119285
vt 0.01611206 0.3841847
vt 0.01124557 0.3823425
vt 0.0130879 0.387209
vt 0.0130879 1.348878
vt 0.01124557 1.353745
vt 0.01611206 1.351903
vt 0.2324621 -0.395695
vt 0.9196342 -0.3956951
vt 0.2324621 -0.4296156
vt 1.035324 -0.4296156
vt 1.035324 0.4434969
vt 0.9196339 0.4119781
vt 0.2324621 0.4119786
vt 0.2324621 0.4434969
vt 0.2324621 0.7315238
vt 1.035324 0.7315238
vt 1.035324 0.7746773
vt 0.2324621 0.7746773
vt -0.03788534 1.006245
vt -0.03788534 1.057745
vt 0.7571146 1.057745
vt 0.7571146 1.006245
vt 0.7571146 0.2792446
vt -0.03788534 0.2792446
vt 0.7571146 0.2792446
vt -0.03788534 0.2127445
vt -0.03788534 0.2792446
vt 0.7571146 0.2127445
vt 0.5310251 0.2642446
vt 0.5310251 0.2127446
vt -0.2639748 0.2127446
vt -0.2639748 0.2642446
vt -0.2639748 0.9912446
vt 0.5310251 0.9912446
vt 0.5310251 1.057745
vt -0.2639748 1.057745
vt 1.320387 1.119259
vt 1.268533 1.121776
vt 1.320387 1.121776
vt 1.268533 1.119259
vt 0.5365449 1.119259
vt 0.5365449 1.121776
vt 0.4695886 1.121776
vt 0.4695886 1.119259
vt 1.226216 1.08107
vt 1.226216 1.132854
vt 1.22873 1.132854
vt 1.22873 1.08107
vt 1.22873 0.3500602
vt 1.226216 0.3500603
vt 1.226216 0.2831935
vt 1.22873 0.2831934
vt 0.0221113 1.08107
vt 0.0221113 1.132854
vt 0.02462518 1.132854
vt 0.02462518 1.08107
vt 0.02462518 0.3500601
vt 0.0221113 0.3500601
vt 0.0221113 0.2831933
vt 0.02462518 0.2831933
vt 1.268533 -0.08394092
vt 1.320387 -0.08394092
vt 1.320387 -0.08645797
vt 1.268533 -0.08645797
vt 0.5365449 -0.08645797
vt 0.5365449 -0.08394092
vt 0.4695886 -0.08394092
vt 0.4695886 -0.08645797
vt 1.038436 0.9729275
vt 1.09299 0.9729275
vt 1.09299 0.9035562
vt 1.038436 0.9035563
vt 1.09299 -0.07572135
vt 0.6518439 0.9035562
vt 1.038436 -0.07572132
vt 0.651844 0.9729275
vt 1.038436 -0.1652976
vt 1.09299 -0.1652976
vt 0.651844 -0.07572132
vt 0.651844 -0.1652976
vt 0.6096832 -0.07572135
vt 0.6095399 -0.1652969
vt 0.609683 0.9035562
vt 0.609683 0.9594573
vt -0.4745281 0.9594571
vt -0.5166888 0.9729273
vt -0.474528 0.9035562
vt -0.5166887 0.9035562
vt -0.474528 -0.07572144
vt -0.5166888 -0.07572138
vt -0.4745287 -0.1652959
vt -0.5166888 -0.1652976
vt 1.226216 1.08107
vt 0.3539313 1.132854
vt 1.226216 1.132854
vt 0.3539313 1.08107
vt 0.3539313 0.3500602
vt 1.226216 0.3500603
vt 1.226216 0.2831935
vt 0.3539313 0.2831933
vt 0.06534827 1.132854
vt 0.06534827 0.2831932
vt 0.06534827 1.08107
vt 0.06534827 0.3500601
vt 0.02462518 0.3500601
vt 0.02462518 0.2831933
vt 0.02462518 1.08107
vt 0.02462518 1.132854
vt 0.4030337 1.219562
vt 0.4030337 0.4935619
vt 0.1170337 0.4935619
vt 0.1170337 1.219562
vt -0.09142405 1.2202
vt 0.2320762 1.2197
vt 0.2320762 0.4937
vt -0.09142405 0.4931998
vt 0.489426 0.9626317
vt 0.4889261 0.6391315
vt 0.2029259 0.6391315
vt 0.2024258 0.9626317
vt 0.006023586 1.220201
vt 0.3295238 1.219701
vt 0.3295238 0.4937003
vt 0.006023586 0.4932001
vt 0.57518 0.9626316
vt 0.57468 0.6391315
vt 0.2886798 0.6391315
vt 0.2881797 0.9626316
vt 0 0
vt 0 1
vt 1 1
vt 1 0
vt -0.06493968 1.082986
vt 0.8474794 1.082986
vt 0.8474794 1.027685
vt -0.06493968 1.027685
vt 0.8474794 0.05892959
vt -0.06493968 0.05892959
vt 0.8474794 -0.02968418
vt -0.06493968 -0.02968418
vt -0.06493968 -0.08298576
vt 0.8474795 -0.08298576
vt 0.8474796 1.027686
vt -0.06493968 1.082986
vt 0.8474796 1.082986
vt -0.06493968 1.027686
vt 0.8474794 0.0589295
vt -0.06493974 0.05892956
vt 0.8474794 -0.02968431
vt -0.06493974 -0.02968431
vt -0.06493956 -0.08298588
vt 0.8474794 -0.08298588
vt 0.9962244 1.027685
vt -0.07633752 1.082986
vt 0.9962244 1.082986
vt -0.07633752 1.027685
vt 0.9962244 0.05892959
vt -0.07633752 0.05892959
vt 0.9962244 -0.02968418
vt -0.07633752 -0.02968418
vt -0.07633746 -0.08298576
vt 0.9960821 -0.08298576
usemtl DarkWood2
f 455/455/455 454/454/454 453/453/453
f 458/458/458 457/457/457 456/456/456
f 461/461/461 460/460/460 459/459/459
f 462/462/462 461/461/461 459/459/459
f 465/465/465 464/464/464 463/463/463
f 466/466/466 465/465/465 463/463/463
f 469/469/469 468/468/468 467/467/467
f 470/470/470 469/469/469 467/467/467
f 473/473/473 472/472/472 471/471/471
f 474/474/474 473/473/473 471/471/471
f 477/477/477 476/476/476 475/475/475
f 478/478/478 477/477/477 475/475/475
f 481/481/481 480/480/480 479/479/479
f 479/479/479 482/482/482 481/481/481
f 479/479/479 483/483/483 482/482/482
f 483/483/483 479/479/479 484/484/484
f 483/483/483 485/485/485 482/482/482
f 486/486/486 482/482/482 485/485/485
f 489/489/489 488/488/488 487/487/487
f 487/487/487 490/490/490 489/489/489
f 491/491/491 490/490/490 487/487/487
f 492/492/492 491/491/491 487/487/487
f 491/491/491 492/492/492 493/493/493
f 491/491/491 493/493/493 494/494/494
f 494/494/494 495/495/495 491/491/491
f 496/496/496 495/495/495 494/494/494
f 494/494/494 497/497/497 496/496/496
f 494/494/494 498/498/498 497/497/497
f 498/498/498 499/499/499 497/497/497
f 500/500/500 496/496/496 497/497/497
f 497/497/497 501/501/501 500/500/500
f 501/501/501 502/502/502 500/500/500
f 500/500/500 502/502/502 503/503/503
f 504/504/504 500/500/500 503/503/503
f 504/504/504 503/503/503 505/505/505
f 505/505/505 506/506/506 504/504/504
f 509/509/509 508/508/508 507/507/507
f 510/510/510 509/509/509 507/507/507
f 510/510/510 507/507/507 511/511/511
f 507/507/507 512/512/512 511/511/511
f 512/512/512 513/513/513 511/511/511
f 513/513/513 514/514/514 511/511/511
f 517/517/517 516/516/516 515/515/515
f 518/518/518 517/517/517 515/515/515
f 518/518/518 515/515/515 519/519/519
f 515/515/515 520/520/520 519/519/519
f 521/521/521 519/519/519 520/520/520
f 522/522/522 521/521/521 520/520/520
f 525/525/525 524/524/524 523/523/523
f 524/524/524 526/526/526 523/523/523
f 523/523/523 526/526/526 527/527/527
f 528/528/528 523/523/523 527/527/527
f 528/528/528 527/527/527 529/529/529
f 527/527/527 530/530/530 529/529/529
f 533/533/533 532/532/532 531/531/531
f 534/534/534 533/533/533 531/531/531
f 533/533/533 534/534/534 535/535/535
f 536/536/536 533/533/533 535/535/535
f 537/537/537 536/536/536 535/535/535
f 538/538/538 537/537/537 535/535/535
f 541/541/541 540/540/540 539/539/539
f 540/540/540 542/542/542 539/539/539
f 539/539/539 542/542/542 543/543/543
f 544/544/544 539/539/539 543/543/543
f 544/544/544 543/543/543 545/545/545
f 543/543/543 546/546/546 545/545/545
f 549/549/549 548/548/548 547/547/547
f 550/550/550 549/549/549 547/547/547
f 550/550/550 547/547/547 551/551/551
f 547/547/547 552/552/552 551/551/551
f 553/553/553 551/551/551 552/552/552
f 554/554/554 553/553/553 552/552/552
f 557/557/557 556/556/556 555/555/555
f 557/557/557 558/558/558 556/556/556
f 556/556/556 559/559/559 555/555/555
f 560/560/560 555/555/555 559/559/559
f 561/561/561 560/560/560 559/559/559
f 560/560/560 561/561/561 562/562/562
f 561/561/561 559/559/559 563/563/563
f 561/561/561 563/563/563 562/562/562
f 559/559/559 556/556/556 563/563/563
f 564/564/564 562/562/562 563/563/563
f 558/558/558 565/565/565 556/556/556
f 556/556/556 565/565/565 563/563/563
f 566/566/566 564/564/564 563/563/563
f 565/565/565 566/566/566 563/563/563
f 564/564/564 566/566/566 567/567/567
f 567/567/567 566/566/566 565/565/565
f 568/568/568 564/564/564 567/567/567
f 569/569/569 568/568/568 567/567/567
f 570/570/570 565/565/565 558/558/558
f 570/570/570 567/567/567 565/565/565
f 570/570/570 569/569/569 567/567/567
f 569/569/569 570/570/570 558/558/558
usemtl WhiteGraniteClean
f 573/573/573 572/572/572 571/571/571
f 576/576/576 575/575/575 574/574/574
f 577/577/577 576/576/576 574/574/574
f 580/580/580 579/579/579 578/578/578
f 581/581/581 580/580/580 578/578/578
f 584/584/584 583/583/583 582/582/582
f 585/585/585 584/584/584 582/582/582
f 588/588/588 587/587/587 586/586/586
f 589/589/589 588/588/588 586/586/586
f 592/592/592 591/591/591 590/590/590
f 593/593/593 592/592/592 590/590/590
f 596/596/596 595/595/595 594/594/594
f 597/597/597 596/596/596 594/594/594
f 600/600/600 599/599/599 598/598/598
f 599/599/599 601/601/601 598/598/598
f 599/599/599 602/602/602 601/601/601
f 602/602/602 603/603/603 601/601/601
f 606/606/606 605/605/605 604/604/604
f 607/607/607 606/606/606 604/604/604
f 610/610/610 609/609/609 608/608/608
f 611/611/611 610/610/610 608/608/608
f 611/611/611 608/608/608 612/612/612
f 608/608/608 613/613/613 612/612/612
f 614/614/614 612/612/612 613/613/613
f 615/615/615 614/614/614 613/613/613
f 618/618/618 617/617/617 616/616/616
f 619/619/619 618/618/618 616/616/616
f 619/619/619 620/620/620 618/618/618
f 620/620/620 621/621/621 618/618/618
f 622/622/622 621/621/621 620/620/620
f 623/623/623 622/622/622 620/620/620
f 626/626/626 625/625/625 624/624/624
f 627/627/627 626/626/626 624/624/624
f 630/630/630 629/629/629 628/628/628
f 630/630/630 628/628/628 631/631/631
f 631/631/631 632/632/632 630/630/630
f 633/633/633 632/632/632 631/631/631
f 634/634/634 633/633/633 631/631/631
f 633/633/633 634/634/634 635/635/635
f 636/636/636 633/633/633 635/635/635
f 637/637/637 633/633/633 636/636/636
f 638/638/638 637/637/637 636/636/636
f 640/640/640 637/637/637 639/639/639
f 637/637/637 641/641/641 639/639/639
f 642/642/642 639/639/639 641/641/641
f 643/643/643 642/642/642 641/641/641
f 646/646/646 645/645/645 644/644/644
f 645/645/645 647/647/647 644/644/644
f 644/644/644 647/647/647 648/648/648
f 649/649/649 644/644/644 648/648/648
f 650/650/650 649/649/649 648/648/648
f 651/651/651 650/650/650 648/648/648
f 654/654/654 653/653/653 652/652/652
f 653/653/653 655/655/655 652/652/652
f 652/652/652 655/655/655 656/656/656
f 657/657/657 652/652/652 656/656/656
f 657/657/657 656/656/656 658/658/658
f 656/656/656 659/659/659 658/658/658
f 662/662/662 661/661/661 660/660/660
f 663/663/663 662/662/662 660/660/660
f 663/663/663 660/660/660 664/664/664
f 660/660/660 665/665/665 664/664/664
f 666/666/666 664/664/664 665/665/665
f 667/667/667 666/666/666 665/665/665
f 670/670/670 669/669/669 668/668/668
f 668/668/668 671/671/671 670/670/670
f 671/671/671 672/672/672 670/670/670
f 670/670/670 672/672/672 673/673/673
f 674/674/674 670/670/670 673/673/673
f 674/674/674 673/673/673 675/675/675
f 675/675/675 676/676/676 674/674/674
f 675/675/675 677/677/677 676/676/676
f 680/680/680 679/679/679 678/678/678
f 681/681/681 680/680/680 678/678/678
f 682/682/682 681/681/681 678/678/678
f 683/683/683 682/682/682 678/678/678
f 682/682/682 683/683/683 684/684/684
f 685/685/685 682/682/682 684/684/684
f 688/688/688 687/687/687 686/686/686
f 689/689/689 688/688/688 686/686/686
f 689/689/689 690/690/690 688/688/688
f 690/690/690 691/691/691 688/688/688
f 692/692/692 691/691/691 690/690/690
f 693/693/693 692/692/692 690/690/690
f 696/696/696 695/695/695 694/694/694
f 697/697/697 696/696/696 694/694/694
f 698/698/698 697/697/697 694/694/694
f 701/701/701 700/700/700 699/699/699
f 702/702/702 701/701/701 699/699/699
f 705/705/705 704/704/704 703/703/703
f 706/706/706 705/705/705 703/703/703
f 709/709/709 708/708/708 707/707/707
f 710/710/710 709/709/709 707/707/707
f 713/713/713 712/712/712 711/711/711
f 714/714/714 713/713/713 711/711/711
f 717/717/717 716/716/716 715/715/715
f 717/717/717 715/715/715 718/718/718
f 717/717/717 718/718/718 719/719/719
f 720/720/720 717/717/717 719/719/719
f 715/715/715 721/721/721 718/718/718
f 720/720/720 722/722/722 715/715/715
f 715/715/715 722/722/722 721/721/721
f 725/725/725 724/724/724 723/723/723
f 726/726/726 725/725/725 723/723/723
f 727/727/727 725/725/725 726/726/726
f 728/728/728 727/727/727 726/726/726
f 731/731/731 730/730/730 729/729/729
f 732/732/732 731/731/731 729/729/729
f 733/733/733 731/731/731 732/732/732
f 734/734/734 733/733/733 732/732/732
usemtl BlackWood
f 497/497/497 499/499/499 501/501/501
f 494/494/494 493/493/493 498/498/498
f 479/479/479 480/480/480 735/735/735
f 482/482/482 736/736/736 481/481/481
f 739/739/739 738/738/738 737/737/737
f 742/742/742 741/741/741 740/740/740
f 745/745/745 744/744/744 743/743/743
f 748/748/748 747/747/747 746/746/746
f 751/751/751 750/750/750 749/749/749
f 750/750/750 751/751/751 752/752/752
f 752/752/752 753/753/753 750/750/750
f 753/753/753 754/754/754 750/750/750
f 753/753/753 755/755/755 754/754/754
f 753/753/753 756/756/756 755/755/755
f 756/756/756 753/753/753 757/757/757
f 753/753/753 758/758/758 757/757/757
f 758/758/758 759/759/759 757/757/757
f 759/759/759 760/760/760 757/757/757
f 763/763/763 762/762/762 761/761/761
f 764/764/764 763/763/763 761/761/761
f 764/764/764 761/761/761 765/765/765
f 761/761/761 766/766/766 765/765/765
f 769/769/769 768/768/768 767/767/767
f 768/768/768 770/770/770 767/767/767
f 773/773/773 772/772/772 771/771/771
f 774/774/774 773/773/773 771/771/771
f 774/774/774 771/771/771 775/775/775
f 771/771/771 776/776/776 775/775/775
f 776/776/776 777/777/777 775/775/775
f 777/777/777 778/778/778 775/775/775
f 781/781/781 780/780/780 779/779/779
f 780/780/780 782/782/782 779/779/779
f 782/782/782 780/780/780 783/783/783
f 780/780/780 784/784/784 783/783/783
f 784/784/784 785/785/785 783/783/783
f 785/785/785 786/786/786 783/783/783
f 789/789/789 788/788/788 787/787/787
f 790/790/790 789/789/789 787/787/787
f 790/790/790 787/787/787 791/791/791
f 787/787/787 792/792/792 791/791/791
f 792/792/792 793/793/793 791/791/791
f 793/793/793 794/794/794 791/791/791
f 797/797/797 796/796/796 795/795/795
f 798/798/798 797/797/797 795/795/795
f 798/798/798 795/795/795 799/799/799
f 795/795/795 800/800/800 799/799/799
f 800/800/800 801/801/801 799/799/799
f 801/801/801 802/802/802 799/799/799
f 805/805/805 804/804/804 803/803/803
f 806/806/806 805/805/805 803/803/803
f 806/806/806 803/803/803 807/807/807
f 803/803/803 808/808/808 807/807/807
f 808/808/808 809/809/809 807/807/807
f 809/809/809 810/810/810 807/807/807
f 813/813/813 812/812/812 811/811/811
f 814/814/814 813/813/813 811/811/811
f 815/815/815 813/813/813 814/814/814
f 816/816/816 814/814/814 811/811/811
f 817/817/817 815/815/815 814/814/814
f 818/818/818 816/816/816 811/811/811
f 815/815/815 817/817/817 819/819/819
f 820/820/820 815/815/815 819/819/819
f 817/817/817 821/821/821 819/819/819
f 821/821/821 822/822/822 819/819/819
f 821/821/821 823/823/823 822/822/822
f 823/823/823 824/824/824 822/822/822
f 825/825/825 823/823/823 821/821/821
f 816/816/816 825/825/825 821/821/821
f 826/826/826 825/825/825 816/816/816
f 818/818/818 826/826/826 816/816/816
f 827/827/827 826/826/826 818/818/818
f 828/828/828 827/827/827 818/818/818
f 829/829/829 827/827/827 828/828/828
f 830/830/830 829/829/829 828/828/828
f 831/831/831 829/829/829 830/830/830
f 832/832/832 831/831/831 830/830/830
f 833/833/833 831/831/831 832/832/832
f 834/834/834 833/833/833 832/832/832
f 837/837/837 836/836/836 835/835/835
f 836/836/836 838/838/838 835/835/835
f 835/835/835 838/838/838 839/839/839
f 840/840/840 835/835/835 839/839/839
f 841/841/841 840/840/840 839/839/839
f 842/842/842 841/841/841 839/839/839
f 838/838/838 836/836/836 843/843/843
f 842/842/842 839/839/839 844/844/844
f 845/845/845 838/838/838 843/843/843
f 839/839/839 838/838/838 845/845/845
f 839/839/839 846/846/846 844/844/844
f 846/846/846 839/839/839 845/845/845
f 846/846/846 847/847/847 844/844/844
f 847/847/847 846/846/846 845/845/845
f 847/847/847 848/848/848 844/844/844
f 849/849/849 847/847/847 845/845/845
f 849/849/849 845/845/845 843/843/843
f 850/850/850 849/849/849 843/843/843
f 853/853/853 852/852/852 851/851/851
f 854/854/854 853/853/853 851/851/851
f 857/857/857 856/856/856 855/855/855
f 858/858/858 857/857/857 855/855/855
f 861/861/861 860/860/860 859/859/859
f 862/862/862 861/861/861 859/859/859
f 865/865/865 864/864/864 863/863/863
f 866/866/866 865/865/865 863/863/863
f 869/869/869 868/868/868 867/867/867
f 870/870/870 869/869/869 867/867/867
f 873/873/873 872/872/872 871/871/871
f 874/874/874 873/873/873 871/871/871
f 877/877/877 876/876/876 875/875/875
f 878/878/878 877/877/877 875/875/875
f 879/879/879 877/877/877 878/878/878
f 880/880/880 879/879/879 878/878/878
f 881/881/881 879/879/879 880/880/880
f 882/882/882 881/881/881 880/880/880
f 882/882/882 883/883/883 881/881/881
f 883/883/883 884/884/884 881/881/881
f 887/887/887 886/886/886 885/885/885
f 886/886/886 888/888/888 885/885/885
f 885/885/885 888/888/888 889/889/889
f 888/888/888 890/890/890 889/889/889
f 889/889/889 890/890/890 891/891/891
f 890/890/890 892/892/892 891/891/891
f 892/892/892 893/893/893 891/891/891
f 893/893/893 894/894/894 891/891/891
f 897/897/897 896/896/896 895/895/895
f 896/896/896 898/898/898 895/895/895
f 895/895/895 898/898/898 899/899/899
f 898/898/898 900/900/900 899/899/899
f 899/899/899 900/900/900 901/901/901
f 900/900/900 902/902/902 901/901/901
f 902/902/902 903/903/903 901/901/901
f 903/903/903 904/904/904 901/901/901
