mtllib material.mtl
usemtl material_0
v -0.00500000 0.01000015 0.00500008
v -0.00500000 0.01000015 -0.00500000
v 0.00500015 0.01000015 -0.00500000
v 0.00500015 0.01000015 0.00500008
v -0.13734770 0.41130860 -0.13316990
v -0.13655270 0.42601480 -0.13199730
v -0.13743800 0.42503310 -0.13090020
v -0.13359080 0.26616910 -0.13291080
v -0.13485730 0.31956520 -0.13371410
v -0.13485730 0.26616910 -0.13371410
v -0.03500732 0.34044280 0.23016910
v -0.03722992 0.33972420 0.22530970
v -0.03466034 0.34222310 0.22479920
v -0.14037890 0.41141760 0.11256470
v -0.13744060 0.43099560 0.11273920
v -0.13200640 0.42643230 0.12420390
v -0.13467380 0.40807500 0.12505410
v -0.14037890 0.37297810 0.11265960
v -0.12570980 0.40436760 0.13506110
v -0.12364760 0.42198740 0.13217140
v -0.13483800 0.36944850 0.12626630
v -0.14037890 0.31932420 0.11278010
v -0.12636570 0.36541840 0.13904250
v -0.13524230 0.31697370 0.12671890
v -0.14037890 0.26567040 0.11290070
v -0.13523480 0.26567040 0.12670780
v -0.12790920 0.31349930 0.14035580
v -0.12805770 0.26567040 0.14007360
v -0.11576170 0.39390320 0.14668310
v -0.11308490 0.41251640 0.14287780
v -0.10880510 0.40284430 0.14906180
v -0.10740680 0.38470920 0.15720000
v -0.11771450 0.36162610 0.15151580
v -0.10778340 0.35777630 0.16348360
v -0.11961270 0.30961660 0.15352700
v -0.11959950 0.26560810 0.15353010
v -0.10796920 0.30492710 0.16914400
v -0.10783070 0.26552480 0.16921570
v -0.10750760 0.26518430 0.17399910
v -0.10835780 0.26729060 0.17521220
v 0.10827850 0.26729060 0.17464790
v 0.10742920 0.26518430 0.17343920
v -0.14001490 0.26518430 0.12186090
v -0.11492340 0.26729060 0.17067460
v -0.11402160 0.26518430 0.16949700
v -0.14112210 0.26729060 0.12268470
v -0.14249270 0.26518430 0.11255980
v -0.14361940 0.26729060 0.11331000
v -0.14209720 0.26518430 -0.12813190
v -0.14322080 0.26729060 -0.12928500
v -0.11402160 0.26518430 0.16949700
v -0.11492340 0.26729060 0.17067460
v -0.10835780 0.26729060 0.17521220
v -0.10750760 0.26518430 0.17399910
v 0.14249280 0.26518430 0.11255980
v 0.14327040 0.26729060 -0.12923740
v 0.14214630 0.26518430 -0.12808460
v 0.14361920 0.26729060 0.11331010
v 0.14001490 0.26518430 0.12186090
v 0.14112210 0.26729060 0.12268470
v 0.11393400 0.26518430 0.16955580
v 0.11483470 0.26729060 0.17073390
v 0.10742920 0.26518430 0.17343920
v 0.10827850 0.26729060 0.17464790
v 0.11483470 0.26729060 0.17073390
v 0.11393400 0.26518430 0.16955580
v 0.13555710 0.26729060 -0.13694790
v 0.13449390 0.26518430 -0.13573470
v 0.13449390 0.26518430 -0.13573470
v 0.13555710 0.26729060 -0.13694790
v -0.13551270 0.26729060 -0.13637190
v -0.13444950 0.26518430 -0.13516330
v -0.13444950 0.26518430 -0.13516330
v -0.13551270 0.26729060 -0.13637190
v -0.13551270 0.26729060 -0.13637190
v -0.13444950 0.26939690 -0.13516330
v -0.14209720 0.26939690 -0.12813190
v -0.14322080 0.26729060 -0.12928500
v -0.14249270 0.26939690 0.11255980
v -0.14361940 0.26729060 0.11331000
v -0.14001490 0.26939690 0.12186090
v -0.14112210 0.26729060 0.12268470
v -0.11402160 0.26939690 0.16949700
v -0.11492340 0.26729060 0.17067460
v 0.13555710 0.26729060 -0.13694790
v 0.13449390 0.26939690 -0.13573470
v -0.13444950 0.26939690 -0.13516330
v -0.13551270 0.26729060 -0.13637190
v 0.14327040 0.26729060 -0.12923740
v 0.13449390 0.26939690 -0.13573470
v 0.13555710 0.26729060 -0.13694790
v 0.14214630 0.26939690 -0.12808460
v 0.14361920 0.26729060 0.11331010
v 0.14249280 0.26939690 0.11255980
v 0.14112210 0.26729060 0.12268470
v 0.14001490 0.26939690 0.12186090
v 0.11483470 0.26729060 0.17073390
v 0.11393400 0.26939690 0.16955580
v 0.10827850 0.26729060 0.17464790
v 0.10742920 0.26939690 0.17343920
v 0.11393400 0.26939690 0.16955580
v 0.11483470 0.26729060 0.17073390
v -0.10835780 0.26729060 0.17521220
v -0.10750760 0.26939690 0.17399910
v 0.10742920 0.26939690 0.17343920
v 0.10827850 0.26729060 0.17464790
v -0.11492340 0.26729060 0.17067460
v -0.11402160 0.26939690 0.16949700
v -0.10750760 0.26939690 0.17399910
v -0.10835780 0.26729060 0.17521220
v 0.14037860 0.31932420 0.11278010
v 0.14037860 0.26567040 0.11290070
v 0.13523530 0.26567040 0.12670940
v 0.13524210 0.31697320 0.12672060
v 0.14037860 0.37297810 0.11265960
v 0.12805650 0.26567040 0.14007900
v 0.13483840 0.36944820 0.12626770
v 0.14037860 0.41141760 0.11256470
v 0.12790770 0.31349780 0.14036150
v 0.13479060 0.40807680 0.12505050
v 0.13744190 0.43099560 0.11273920
v 0.13214220 0.42643190 0.12420450
v 0.12411270 0.42198740 0.13217140
v 0.12611080 0.40437420 0.13504750
v 0.12636440 0.36541710 0.13904670
v 0.11771610 0.36162570 0.15151690
v 0.11954070 0.30958200 0.15364490
v 0.11960070 0.26560810 0.15353250
v 0.10783370 0.26552480 0.16921570
v 0.10797270 0.30492720 0.16914380
v 0.10778900 0.35777700 0.16348250
v 0.11591340 0.39390580 0.14669160
v 0.10746140 0.38472230 0.15720500
v 0.11329880 0.41254250 0.14287770
v 0.10835140 0.40895490 0.14728880
v -0.13354540 0.41125400 -0.13290890
v -0.13316910 0.42581480 -0.13162090
v -0.13446210 0.42633080 -0.13227610
v -0.13480180 0.41130840 -0.13372650
v -0.13845000 0.43242840 -0.11872760
v -0.13774020 0.43123140 -0.12544300
v -0.13687070 0.43220400 -0.12653110
v -0.13660980 0.43000040 -0.13028170
v -0.13742070 0.42911920 -0.12927600
v -0.13784730 0.43379310 -0.11883540
v -0.13852630 0.43229000 0.11268450
v -0.13797520 0.43366550 0.11294940
v -0.13261720 0.42732400 0.12476230
v -0.13207610 0.42861440 0.12533720
v -0.12456050 0.42267810 0.13292080
v -0.12398440 0.42385410 0.13372120
v -0.11390620 0.41321020 0.14368590
v -0.11330200 0.41431080 0.14453650
v -0.10985690 0.40279280 0.15047280
v -0.13779300 0.43057090 -0.11846230
v -0.13774050 0.43052010 0.11218770
v -0.13716920 0.42967780 -0.12362240
v -0.13187030 0.42589750 0.12367820
v -0.12391780 0.42156510 0.13150500
v -0.13682590 0.42756380 -0.12743880
v -0.11333240 0.41214950 0.14214850
v -0.10938350 0.40193680 0.14885220
v -0.10820050 0.38504980 0.15816290
v -0.10764080 0.38450650 0.15638640
v -0.10870220 0.35803620 0.16437630
v -0.13691830 0.42353790 -0.12915040
v -0.10801890 0.35773230 0.16263290
v -0.13779300 0.41117000 -0.13001830
v -0.13817030 0.41126010 -0.13192330
v -0.13779300 0.37296130 -0.13001830
v -0.13740200 0.37296120 -0.13315730
v -0.13821080 0.37296130 -0.13190060
v -0.13779300 0.31956520 -0.13001830
v -0.13740200 0.31956520 -0.13315730
v -0.13821080 0.31956520 -0.13190060
v -0.13779300 0.26616910 -0.13001830
v -0.13740200 0.26616910 -0.13315730
v -0.13821080 0.26616910 -0.13190060
v -0.10902370 0.40346330 0.15153900
v -0.10751330 0.38527290 0.15949970
v -0.10662980 0.40332310 0.15088680
v -0.10591670 0.38515740 0.16010070
v -0.10789890 0.40363100 0.15165350
v -0.10458360 0.38477930 0.15949080
v -0.10403350 0.38424470 0.15774310
v -0.10613170 0.40242250 0.14918280
v -0.10467900 0.35685230 0.16405440
v -0.11123630 0.41476210 0.14375460
v -0.10537190 0.35716000 0.16582180
v -0.11067780 0.41372980 0.14225860
v -0.10486080 0.30473240 0.16973200
v -0.12108030 0.42470740 0.13291990
v -0.10562610 0.30482930 0.17149730
v -0.10482880 0.26601450 0.16976720
v -0.10561890 0.26601500 0.17152750
v -0.12043790 0.42359380 0.13150300
v -0.12913790 0.42913740 0.12466480
v -0.12840030 0.42772590 0.12359080
v -0.13463870 0.43392800 0.11266160
v -0.13385990 0.43217360 0.11216860
v -0.13457410 0.43399960 -0.11867550
v -0.13393830 0.43221010 -0.11846230
v -0.13365050 0.43209610 -0.12626660
v -0.13306500 0.43055070 -0.12444470
v -0.13323880 0.42979220 -0.12993730
v -0.13261840 0.42821220 -0.12806380
v -0.13450870 0.43030770 -0.13057980
v -0.13258820 0.42421840 -0.12973950
v -0.13317200 0.41116980 -0.13102820
v -0.13359080 0.37296100 -0.13291080
v -0.13317200 0.37296100 -0.13102820
v -0.13485730 0.37296110 -0.13371410
v -0.13359080 0.31956510 -0.13291080
v -0.13317200 0.31956510 -0.13102820
v -0.13317200 0.26616910 -0.13102820
v -0.10789890 0.40363100 0.15165350
v -0.11123630 0.41476210 0.14375460
v -0.10662980 0.40332310 0.15088680
v -0.11250490 0.41478550 0.14456890
v -0.12108030 0.42470740 0.13291990
v -0.12238220 0.42478830 0.13371990
v -0.12913790 0.42913740 0.12466480
v -0.13053150 0.42942840 0.12529820
v -0.13463870 0.43392800 0.11266160
v -0.13606460 0.43447920 0.11294030
v -0.13457410 0.43399960 -0.11867550
v -0.13595020 0.43459940 -0.11883540
v -0.13365050 0.43209610 -0.12626660
v -0.13495570 0.43257490 -0.12687930
v -0.13323880 0.42979220 -0.12993730
v -0.13450870 0.43030770 -0.13057980
v -0.10458360 0.38477930 0.15949080
v -0.10672160 0.35758550 0.16639240
v -0.10591670 0.38515740 0.16010070
v -0.10537190 0.35716000 0.16582180
v -0.10702640 0.30486260 0.17204180
v -0.10812420 0.35795520 0.16579640
v -0.10896820 0.30529200 0.17002440
v -0.10842580 0.30521120 0.17142650
v -0.10820510 0.30519470 0.16826010
v -0.10885740 0.26602540 0.17009290
v -0.10832080 0.26602260 0.17148600
v -0.10806550 0.26602470 0.16833140
v -0.10702320 0.26601860 0.17206150
v -0.10562610 0.30482930 0.17149730
v -0.10561890 0.26601500 0.17152750
v -0.10842580 0.30521120 0.17142650
v -0.10832080 0.26602260 0.17148600
v -0.10812420 0.35795520 0.16579640
v -0.10751330 0.38527290 0.15949970
v -0.10902370 0.40346330 0.15153900
v -0.10789890 0.40363100 0.15165350
v -0.11330200 0.41431080 0.14453650
v -0.11250490 0.41478550 0.14456890
v -0.13797520 0.43366550 0.11294940
v -0.13207610 0.42861440 0.12533720
v -0.13784730 0.43379310 -0.11883540
v -0.13687070 0.43220400 -0.12653110
v -0.13660980 0.43000040 -0.13028170
v -0.12398440 0.42385410 0.13372120
v -0.11330200 0.41431080 0.14453650
v -0.13485730 0.31956520 -0.13371410
v -0.13740200 0.26616910 -0.13315730
v -0.13485730 0.26616910 -0.13371410
v -0.13740200 0.31956520 -0.13315730
v -0.13740200 0.37296120 -0.13315730
v -0.13485730 0.37296110 -0.13371410
v -0.13734770 0.41130860 -0.13316990
v -0.13480180 0.41130840 -0.13372650
v -0.13446210 0.42633080 -0.13227610
v -0.13655270 0.42601480 -0.13199730
v -0.13450870 0.43030770 -0.13057980
v -0.13660980 0.43000040 -0.13028170
v 0.01753098 0.21950380 0.25462020
v 0.03503113 0.24800360 0.25070330
v 0.03503113 0.21948840 0.25175930
v 0.01751587 0.24800360 0.25356470
v 0.00003052 0.21951910 0.25532300
v 0.03503113 0.27973180 0.24606200
v 0.00000031 0.24800360 0.25426820
v -0.01746979 0.21953440 0.25461910
v 0.01751587 0.27973180 0.24892360
v 0.03503113 0.31145990 0.23866270
v -0.01751495 0.24800360 0.25356470
v -0.03497009 0.21954970 0.25175710
v -0.03503052 0.24800360 0.25070330
v 0.01751587 0.31145990 0.24152420
v 0.03500915 0.34044280 0.23016910
v 0.01750519 0.34044280 0.23303070
v 0.00000031 0.27973180 0.24962680
v -0.01751495 0.27973180 0.24892360
v -0.03503052 0.27973180 0.24606200
v 0.00000031 0.31145990 0.24222770
v 0.00000092 0.34044280 0.23373400
v -0.01751495 0.31145990 0.24152420
v -0.03503052 0.31145990 0.23866270
v -0.01750305 0.34044280 0.23303070
v -0.03500732 0.34044280 0.23016910
v 0.01753098 0.21950380 0.25462020
v 0.03503113 0.21948840 0.25175930
v 0.03472885 0.21737350 0.24698300
v 0.01736649 0.21737480 0.24984480
v 0.00003052 0.21951910 0.25532300
v 0.00000397 0.21737610 0.25054830
v -0.01746979 0.21953440 0.25461910
v -0.01735840 0.21737740 0.24984500
v -0.03497009 0.21954970 0.25175710
v -0.03472107 0.21737880 0.24698380
v -0.03706161 0.31070070 0.23387690
v -0.03503052 0.31145990 0.23866270
v -0.03706161 0.27917600 0.24122890
v -0.03503052 0.27973180 0.24606200
v -0.03706161 0.24773160 0.24582860
v -0.03503052 0.24800360 0.25070330
v -0.03714477 0.21979560 0.24686870
v -0.03497009 0.21954970 0.25175710
v -0.03472107 0.21737880 0.24698380
v 0.01734650 0.34222230 0.22767620
v 0.03468201 0.34222200 0.22481990
v 0.03500915 0.34044280 0.23016910
v 0.01750519 0.34044280 0.23303070
v 0.00001083 0.34222250 0.22837450
v 0.00000092 0.34044280 0.23373400
v -0.01732468 0.34222290 0.22766590
v -0.01750305 0.34044280 0.23303070
v -0.03466034 0.34222310 0.22479920
v -0.03500732 0.34044280 0.23016910
v 0.03716217 0.21978770 0.24686610
v 0.03472885 0.21737350 0.24698300
v 0.03503113 0.21948840 0.25175930
v 0.03706299 0.24773160 0.24582860
v 0.03503113 0.24800360 0.25070330
v 0.03706299 0.27917600 0.24122890
v 0.03503113 0.27973180 0.24606200
v 0.03706299 0.31070060 0.23387690
v 0.03503113 0.31145990 0.23866270
v 0.03723022 0.33972540 0.22531010
v 0.03500915 0.34044280 0.23016910
v 0.03468201 0.34222200 0.22481990
v 0.13359120 0.37296100 -0.13291080
v 0.13480180 0.41130840 -0.13372650
v 0.13354570 0.41125400 -0.13290890
v 0.13317230 0.41116980 -0.13102820
v 0.13317230 0.37296100 -0.13102820
v 0.13258830 0.42421840 -0.12973950
v 0.13359120 0.31956510 -0.13291080
v 0.13317230 0.31956510 -0.13102820
v 0.13359120 0.26616910 -0.13291080
v 0.13317230 0.26616910 -0.13102820
v 0.13316910 0.42581480 -0.13162090
v 0.13261870 0.42821220 -0.12806380
v 0.13323900 0.42979220 -0.12993730
v 0.13450880 0.43030770 -0.13057980
v 0.13306550 0.43055070 -0.12444470
v 0.13365100 0.43209610 -0.12626660
v 0.13393860 0.43221010 -0.11846230
v 0.13457410 0.43399960 -0.11867550
v 0.13386020 0.43217360 0.11216860
v 0.13463900 0.43392800 0.11266160
v 0.12840060 0.42772590 0.12359080
v 0.12913820 0.42913740 0.12466480
v 0.12043840 0.42359380 0.13150300
v 0.12108060 0.42470740 0.13291990
v 0.11067820 0.41372980 0.14225860
v 0.11123660 0.41476210 0.14375460
v 0.10613200 0.40242250 0.14918280
v 0.10663010 0.40332310 0.15088680
v 0.10403370 0.38424470 0.15774310
v 0.10458400 0.38477930 0.15949080
v 0.10467940 0.35685230 0.16405440
v 0.10591710 0.38515740 0.16010070
v 0.10789920 0.40363100 0.15165350
v 0.10537220 0.35716000 0.16582180
v 0.10486130 0.30473240 0.16973200
v 0.10562640 0.30482930 0.17149730
v 0.10482910 0.26601450 0.16976720
v 0.10561920 0.26601500 0.17152750
v 0.13261750 0.42732400 0.12476230
v 0.13797550 0.43366550 0.11294940
v 0.13852660 0.43229000 0.11268450
v 0.13207660 0.42861440 0.12533720
v 0.12456050 0.42267810 0.13292080
v 0.12398450 0.42385410 0.13372120
v 0.11390660 0.41321020 0.14368590
v 0.11330210 0.41431080 0.14453650
v 0.10985700 0.40279280 0.15047280
v 0.10902400 0.40346330 0.15153900
v 0.10820080 0.38504980 0.15816290
v 0.10751370 0.38527290 0.15949970
v 0.10870270 0.35803620 0.16437630
v 0.10812450 0.35795520 0.16579640
v 0.10896870 0.30529200 0.17002440
v 0.10842610 0.30521120 0.17142650
v 0.10885760 0.26602540 0.17009290
v 0.10832120 0.26602260 0.17148600
v 0.13784760 0.43379310 -0.11883540
v 0.13845030 0.43242840 -0.11872760
v 0.13687100 0.43220400 -0.12653110
v 0.13774030 0.43123140 -0.12544300
v 0.13661000 0.43000040 -0.13028170
v 0.13742100 0.42911920 -0.12927600
v 0.13655300 0.42601480 -0.13199730
v 0.13743840 0.42503310 -0.13090020
v 0.13734790 0.41130860 -0.13316990
v 0.13817080 0.41126010 -0.13192330
v 0.13740230 0.37296120 -0.13315730
v 0.13821110 0.37296130 -0.13190060
v 0.13740230 0.31956520 -0.13315730
v 0.13821110 0.31956520 -0.13190060
v 0.13740230 0.26616910 -0.13315730
v 0.13821110 0.26616910 -0.13190060
v 0.13779330 0.26616910 -0.13001830
v 0.13779330 0.31956520 -0.13001830
v 0.13779330 0.37296130 -0.13001830
v 0.13779330 0.41117000 -0.13001830
v 0.13691850 0.42353790 -0.12915040
v 0.13682630 0.42756380 -0.12743880
v 0.13716960 0.42967780 -0.12362240
v 0.13779330 0.43057090 -0.11846230
v 0.13774060 0.43052010 0.11218770
v 0.13187070 0.42589750 0.12367820
v 0.12391800 0.42156510 0.13150500
v 0.11333280 0.41214950 0.14214850
v 0.10938390 0.40193680 0.14885220
v 0.10764100 0.38450650 0.15638640
v 0.10801910 0.35773230 0.16263290
v 0.10820530 0.30519470 0.16826010
v 0.10806580 0.26602470 0.16833140
v 0.13053180 0.42942840 0.12529820
v 0.13463900 0.43392800 0.11266160
v 0.13606510 0.43447920 0.11294030
v 0.12913820 0.42913740 0.12466480
v 0.12238240 0.42478830 0.13371990
v 0.12108060 0.42470740 0.13291990
v 0.11250520 0.41478550 0.14456890
v 0.11123660 0.41476210 0.14375460
v 0.10789920 0.40363100 0.15165350
v 0.10663010 0.40332310 0.15088680
v 0.13457410 0.43399960 -0.11867550
v 0.13595060 0.43459940 -0.11883540
v 0.13365100 0.43209610 -0.12626660
v 0.13797550 0.43366550 0.11294940
v 0.13784760 0.43379310 -0.11883540
v 0.13495600 0.43257490 -0.12687930
v 0.13323900 0.42979220 -0.12993730
v 0.13687100 0.43220400 -0.12653110
v 0.13450880 0.43030770 -0.13057980
v 0.13661000 0.43000040 -0.13028170
v 0.13485760 0.26616910 -0.13371410
v 0.13485760 0.31956520 -0.13371410
v 0.13485760 0.37296110 -0.13371410
v 0.13446240 0.42633080 -0.13227610
v 0.10458400 0.38477930 0.15949080
v 0.10672200 0.35758550 0.16639240
v 0.10537220 0.35716000 0.16582180
v 0.10591710 0.38515740 0.16010070
v 0.10812450 0.35795520 0.16579640
v 0.10751370 0.38527290 0.15949970
v 0.10902400 0.40346330 0.15153900
v 0.10789920 0.40363100 0.15165350
v 0.11330210 0.41431080 0.14453650
v 0.11250520 0.41478550 0.14456890
v 0.10842610 0.30521120 0.17142650
v 0.10702650 0.30486260 0.17204180
v 0.10702350 0.26601860 0.17206150
v 0.10832120 0.26602260 0.17148600
v 0.10561920 0.26601500 0.17152750
v 0.10562640 0.30482930 0.17149730
v 0.13207660 0.42861440 0.12533720
v 0.12398450 0.42385410 0.13372120
v 0.11330210 0.41431080 0.14453650
v 0.13485760 0.31956520 -0.13371410
v 0.13485760 0.26616910 -0.13371410
v 0.13740230 0.26616910 -0.13315730
v 0.13740230 0.31956520 -0.13315730
v 0.13740230 0.37296120 -0.13315730
v 0.13485760 0.37296110 -0.13371410
v 0.13734790 0.41130860 -0.13316990
v 0.13480180 0.41130840 -0.13372650
v 0.13446240 0.42633080 -0.13227610
v 0.13655300 0.42601480 -0.13199730
v 0.13450880 0.43030770 -0.13057980
v 0.13661000 0.43000040 -0.13028170
v -0.10750760 0.25959690 0.17109390
v -0.10835780 0.26170320 0.17230710
v 0.10827850 0.26170320 0.17174290
v 0.10742920 0.25959690 0.17053400
v -0.14001490 0.25959690 0.12186090
v -0.11492340 0.26170320 0.16776950
v -0.11402160 0.25959690 0.16659200
v -0.14112210 0.26170320 0.12268470
v -0.14249270 0.25959690 0.11255980
v -0.14361940 0.26170320 0.11331000
v -0.14209720 0.25959690 -0.12813190
v -0.14322080 0.26170320 -0.12928500
v -0.11402160 0.25959690 0.16659200
v -0.11492340 0.26170320 0.16776950
v -0.10835780 0.26170320 0.17230710
v -0.10750760 0.25959690 0.17109390
v -0.10581390 0.25959690 0.16737320
v 0.10581660 0.25959690 0.16675970
v -0.11112430 0.25959690 0.16356930
v 0.10742920 0.25959690 0.17053400
v -0.14001490 0.25959690 0.12186090
v 0.11112630 0.25959690 0.16356920
v -0.13638520 0.25959690 0.11995890
v 0.11393400 0.25959690 0.16665080
v -0.14249270 0.25959690 0.11255980
v 0.13638490 0.25959690 0.11995890
v -0.13866330 0.25959690 0.11140060
v 0.14001490 0.25959690 0.12186090
v -0.14209720 0.25959690 -0.12813190
v 0.13866290 0.25959690 0.11140060
v -0.13866330 0.25959690 -0.12589160
v 0.14249280 0.25959690 0.11255980
v -0.13444950 0.25959690 -0.13516330
v 0.13866290 0.25959690 -0.12589160
v -0.13240080 0.25959690 -0.13154040
v 0.14214630 0.25959690 -0.12808460
v 0.13449390 0.25959690 -0.13573470
v 0.13240080 0.25959690 -0.13215390
v 0.14249280 0.25959690 0.11255980
v 0.14327040 0.26170320 -0.12923740
v 0.14214630 0.25959690 -0.12808460
v 0.14361920 0.26170320 0.11331010
v 0.14001490 0.25959690 0.12186090
v 0.14112210 0.26170320 0.12268470
v 0.11393400 0.25959690 0.16665080
v 0.11483470 0.26170320 0.16782880
v 0.10827850 0.26170320 0.17174290
v 0.11483470 0.26170320 0.16782880
v 0.13555710 0.26170320 -0.13694790
v 0.13449390 0.25959690 -0.13573470
v 0.13449390 0.25959690 -0.13573470
v 0.13555710 0.26170320 -0.13694790
v -0.13551270 0.26170320 -0.13637190
v -0.13444950 0.25959690 -0.13516330
v -0.13444950 0.25959690 -0.13516330
v -0.13551270 0.26170320 -0.13637190
v -0.13444950 0.26380950 -0.13516330
v -0.14209720 0.26380950 -0.12813190
v -0.14249270 0.26380950 0.11255980
v -0.14001490 0.26380950 0.12186090
v -0.11402160 0.26380950 0.16659200
v 0.13449390 0.26380950 -0.13573470
v -0.13444950 0.26380950 -0.13516330
v 0.13449390 0.26380950 -0.13573470
v 0.14214630 0.26380950 -0.12808460
v 0.14249280 0.26380950 0.11255980
v 0.14001490 0.26380950 0.12186090
v 0.11393400 0.26380950 0.16665080
v 0.10827850 0.26170320 0.17174290
v 0.11393400 0.26380950 0.16665080
v 0.11483470 0.26170320 0.16782880
v 0.10742920 0.26380950 0.17053400
v 0.11112630 0.26380950 0.16356920
v 0.13638490 0.26380950 0.11995890
v 0.10581660 0.26380950 0.16675970
v 0.14001490 0.26380950 0.12186090
v 0.13866290 0.26380950 0.11140060
v 0.14249280 0.26380950 0.11255980
v 0.13866290 0.26380950 -0.12589160
v 0.14214630 0.26380950 -0.12808460
v 0.13240080 0.26380950 -0.13215390
v 0.13449390 0.26380950 -0.13573470
v -0.13240080 0.26380950 -0.13154040
v -0.13444950 0.26380950 -0.13516330
v -0.13866330 0.26380950 -0.12589160
v -0.14209720 0.26380950 -0.12813190
v -0.13866330 0.26380950 0.11140060
v -0.14249270 0.26380950 0.11255980
v -0.13638520 0.26380950 0.11995890
v -0.14001490 0.26380950 0.12186090
v -0.11112430 0.26380950 0.16356930
v -0.11402160 0.26380950 0.16659200
v -0.10581390 0.26380950 0.16737320
v -0.10750760 0.26380950 0.17109390
v -0.11492340 0.26170320 0.16776950
v -0.10835780 0.26170320 0.17230710
v -0.10750760 0.26380950 0.17109390
v 0.10742920 0.26380950 0.17053400
v -0.07744659 0.06263666 0.16839420
v -0.07744659 0.26083400 0.16839420
v -0.07629699 0.26083400 0.17066790
v -0.07629699 0.06263666 0.17066790
v -0.07629699 0.06263666 0.17066790
v -0.07629699 0.26083400 0.17066790
v -0.07352111 0.26083400 0.17160950
v -0.07352111 0.06263666 0.17160950
v -0.07074493 0.26083400 0.17066790
v -0.07074493 0.06263666 0.17066790
v -0.07074493 0.06263666 0.17066790
v -0.07074493 0.26083400 0.17066790
v -0.06959534 0.26083400 0.16839420
v -0.06959534 0.06263666 0.16839420
v -0.07074493 0.05432188 0.16459310
v -0.06959534 0.05659536 0.16461580
v -0.07074493 0.05432188 0.11697590
v -0.06959534 0.05659536 0.11699850
v -0.07744659 0.05659536 0.16461580
v -0.07629699 0.05432188 0.16459310
v -0.07744659 0.05659536 0.11699850
v -0.07629699 0.05432188 0.11697590
v -0.07352111 0.06263666 0.17160950
v -0.07629699 0.05432188 0.16459310
v -0.07629699 0.06263666 0.17066790
v -0.07352111 0.05338017 0.16458370
v -0.07074493 0.06263666 0.17066790
v -0.07074493 0.05432188 0.16459310
v -0.07352111 0.05338017 0.11696660
v -0.07629699 0.05432188 0.11697590
v -0.07074493 0.05432188 0.11697590
v 0.06759399 0.06263666 0.16839420
v 0.06759399 0.26083400 0.16839420
v 0.06874374 0.26083400 0.17066790
v 0.06874374 0.06263666 0.17066790
v 0.06874374 0.06263666 0.17066790
v 0.06874374 0.26083400 0.17066790
v 0.07151932 0.26083400 0.17160950
v 0.07151932 0.06263666 0.17160950
v 0.07429580 0.26083400 0.17066790
v 0.07429580 0.06263666 0.17066790
v 0.07429580 0.06263666 0.17066790
v 0.07429580 0.26083400 0.17066790
v 0.07544510 0.26083400 0.16839420
v 0.07544510 0.06263666 0.16839420
v 0.07429580 0.05432188 0.16459310
v 0.07544510 0.05659536 0.16461580
v 0.07429580 0.05432188 0.11697590
v 0.07544510 0.05659536 0.11699850
v 0.06759399 0.05659536 0.16461580
v 0.06874374 0.05432188 0.16459310
v 0.06759399 0.05659536 0.11699850
v 0.06874374 0.05432188 0.11697590
v 0.07151932 0.06263666 0.17160950
v 0.06874374 0.05432188 0.16459310
v 0.06874374 0.06263666 0.17066790
v 0.07151932 0.05338017 0.16458370
v 0.07429580 0.06263666 0.17066790
v 0.07429580 0.05432188 0.16459310
v 0.07151932 0.05338017 0.11696660
v 0.06874374 0.05432188 0.11697590
v 0.07429580 0.05432188 0.11697590
v -0.13840350 0.06037200 0.11001970
v -0.13839490 0.26187030 0.11031950
v -0.13782820 0.26187030 0.11465520
v -0.13785870 0.06209148 0.11435080
v -0.13775010 0.05598499 0.11369310
v -0.13709240 0.05912324 0.11672130
v -0.13240740 0.05295200 0.11797400
v -0.13017680 0.05600327 0.12103510
v 0.13839450 0.26187030 0.11031680
v 0.13784880 0.06215293 0.11434890
v 0.13782810 0.26187030 0.11465250
v 0.13840380 0.06028884 0.11002500
v 0.13704830 0.05937981 0.11686860
v 0.13772930 0.05623864 0.11388560
v 0.13244680 0.05297777 0.11738240
v 0.13024370 0.05599200 0.12040610
v 0.13244680 0.05297777 0.11738240
v -0.13240740 0.05295200 0.11797400
v -0.13017680 0.05600327 0.12103510
v 0.13024370 0.05599200 0.12040610
v -0.13782820 0.26187030 0.11465520
v -0.13839490 0.26187030 0.11031950
v 0.13839450 0.26187030 0.11031680
v 0.13782810 0.26187030 0.11465250
v 0.10581660 0.26518430 0.16966480
v -0.10581390 0.26518430 0.17027820
v -0.10750760 0.26518430 0.17399910
v 0.10742920 0.26518430 0.17343920
v -0.11402160 0.26518430 0.16949700
v 0.11112630 0.26518430 0.16647430
v -0.11112430 0.26518430 0.16647440
v 0.11393400 0.26518430 0.16955580
v -0.14001490 0.26518430 0.12186090
v 0.13638490 0.26518430 0.11995890
v -0.13638520 0.26518430 0.11995890
v 0.14001490 0.26518430 0.12186090
v -0.14249270 0.26518430 0.11255980
v 0.13866290 0.26518430 0.11140060
v -0.13866330 0.26518430 0.11140060
v 0.14249280 0.26518430 0.11255980
v -0.14209720 0.26518430 -0.12813190
v 0.13866290 0.26518430 -0.12589160
v -0.13866330 0.26518430 -0.12589160
v 0.14214630 0.26518430 -0.12808460
v -0.13444950 0.26518430 -0.13516330
v 0.13240080 0.26518430 -0.13215390
v -0.13240080 0.26518430 -0.13154040
v 0.13449390 0.26518430 -0.13573470
v 0.10581660 0.26939690 0.16966480
v -0.10750760 0.26939690 0.17399910
v -0.10581390 0.26939690 0.17027820
v 0.10742920 0.26939690 0.17343920
v -0.11402160 0.26939690 0.16949700
v 0.11112630 0.26939690 0.16647430
v -0.11112430 0.26939690 0.16647440
v 0.11393400 0.26939690 0.16955580
v -0.14001490 0.26939690 0.12186090
v 0.13638490 0.26939690 0.11995890
v -0.13638520 0.26939690 0.11995890
v 0.14001490 0.26939690 0.12186090
v -0.14249270 0.26939690 0.11255980
v 0.13866290 0.26939690 0.11140060
v -0.13866330 0.26939690 0.11140060
v 0.14249280 0.26939690 0.11255980
v -0.14209720 0.26939690 -0.12813190
v 0.13866290 0.26939690 -0.12589160
v -0.13866330 0.26939690 -0.12589160
v 0.14214630 0.26939690 -0.12808460
v -0.13444950 0.26939690 -0.13516330
v 0.13240080 0.26939690 -0.13215390
v -0.13240080 0.26939690 -0.13154040
v 0.13449390 0.26939690 -0.13573470
vn 0.00000000 1.00000000 0.00000000
vn 0.00000000 1.00000000 0.00000000
vn 0.00000000 1.00000000 0.00000000
vn 0.00000000 1.00000000 0.00000000
vn -0.46724790 0.02582724 -0.88374910
vn -0.41070860 0.15291280 -0.89885260
vn -0.97543980 0.05783629 -0.21253730
vn 0.84705610 0.00000000 -0.53150360
vn 0.06454565 0.00000000 -0.99791470
vn 0.06454806 0.00000000 -0.99791460
vn -0.35436120 0.38305960 0.85304960
vn -0.91310830 0.14421860 0.38135850
vn -0.09535161 0.94643820 0.30848460
vn -0.99845790 0.05092380 0.02210690
vn -0.84276320 0.53776380 0.02366834
vn -0.69015380 0.41054020 0.59594010
vn -0.84560050 0.06519391 0.52982010
vn -0.99976350 0.00040453 0.02173934
vn -0.72729960 0.11836680 0.67603590
vn -0.53884360 0.36776790 0.75788800
vn -0.88093380 0.02171389 0.47274090
vn -0.99977860 0.00018775 0.02104216
vn -0.81505940 0.05371110 0.57688240
vn -0.90335740 0.00857000 0.42880280
vn -0.99978980 0.00001674 0.02050259
vn -0.91176840 0.00007546 0.41070460
vn -0.85295400 0.01896571 0.52164150
vn -0.86464080 -0.00025676 0.50239040
vn -0.71017890 0.15628780 0.68645470
vn -0.49680060 0.34877990 0.79469600
vn -0.45105980 0.33623810 0.82673390
vn -0.57922410 0.22189250 0.78438710
vn -0.78266450 0.08106340 0.61714250
vn -0.66833030 0.10485920 0.73643680
vn -0.81144330 0.02891614 0.58371540
vn -0.82286860 -0.00066521 0.56823130
vn -0.69551460 0.03772851 0.71752080
vn -0.71863750 -0.00058136 0.69538470
vn -0.01230685 -0.50277440 0.86433000
vn -0.02005652 -0.50505360 0.86285500
vn 0.02175552 -0.50418580 0.86332110
vn 0.01442889 -0.50203670 0.86472610
vn -0.75461900 -0.54041680 0.37215580
vn -0.70365800 -0.55273120 0.44649030
vn -0.71083450 -0.55079670 0.43742110
vn -0.75011430 -0.54109680 0.38018780
vn -0.88097920 -0.47312700 0.00515432
vn -0.88014920 -0.47458140 0.01048900
vn -0.87682620 -0.48026560 -0.02282370
vn -0.87279580 -0.48658160 -0.03828721
vn -0.71083450 -0.55079670 0.43742110
vn -0.70365800 -0.55273120 0.44649030
vn -0.02005652 -0.50505360 0.86285500
vn -0.01230685 -0.50277440 0.86433000
vn 0.88099900 -0.47308810 0.00533007
vn 0.87269660 -0.48673610 -0.03858012
vn 0.87693870 -0.48008470 -0.02229545
vn 0.88016860 -0.47454130 0.01066158
vn 0.75430200 -0.54044100 0.37276260
vn 0.74978830 -0.54112010 0.38079710
vn 0.70746580 -0.55164490 0.44179190
vn 0.70099050 -0.55335850 0.44989630
vn 0.01442889 -0.50203670 0.86472610
vn 0.02175552 -0.50418580 0.86332110
vn 0.70099050 -0.55335850 0.44989630
vn 0.70746580 -0.55164490 0.44179190
vn 0.02941087 -0.51000630 -0.85966780
vn 0.01767471 -0.50572060 -0.86251620
vn 0.01767471 -0.50572060 -0.86251620
vn 0.02941087 -0.51000630 -0.85966780
vn -0.03086181 -0.50915130 -0.86012360
vn -0.01941960 -0.50497660 -0.86291460
vn -0.01941960 -0.50497660 -0.86291460
vn -0.03086181 -0.50915130 -0.86012360
vn -0.03086352 0.50915820 -0.86011930
vn -0.01942050 0.50498380 -0.86291040
vn -0.87682450 0.48026840 -0.02282473
vn -0.87279430 0.48658420 -0.03828914
vn -0.88097730 0.47313030 0.00515418
vn -0.88014740 0.47458470 0.01048875
vn -0.75461510 0.54041960 0.37215940
vn -0.75011060 0.54109940 0.38019130
vn -0.71083160 0.55079920 0.43742280
vn -0.70365490 0.55273390 0.44649180
vn 0.02941133 0.51001400 -0.85966320
vn 0.01767504 0.50572820 -0.86251180
vn -0.01942050 0.50498380 -0.86291040
vn -0.03086352 0.50915820 -0.86011930
vn 0.87269470 0.48673960 -0.03857992
vn 0.01767504 0.50572820 -0.86251180
vn 0.02941133 0.51001400 -0.85966320
vn 0.87693690 0.48008810 -0.02229526
vn 0.88016680 0.47454490 0.01066152
vn 0.88099710 0.47309150 0.00533001
vn 0.74978600 0.54112360 0.38079690
vn 0.75429950 0.54044470 0.37276250
vn 0.70098830 0.55336340 0.44989360
vn 0.70746370 0.55164950 0.44178940
vn 0.02175517 0.50419100 0.86331810
vn 0.01442865 0.50204150 0.86472310
vn 0.70746370 0.55164950 0.44178940
vn 0.70098830 0.55336340 0.44989360
vn -0.02005635 0.50505820 0.86285220
vn -0.01230669 0.50277910 0.86432730
vn 0.01442865 0.50204150 0.86472310
vn 0.02175517 0.50419100 0.86331810
vn -0.70365490 0.55273390 0.44649180
vn -0.71083160 0.55079920 0.43742280
vn -0.01230669 0.50277910 0.86432730
vn -0.02005635 0.50505820 0.86285220
vn 0.99977870 0.00018986 0.02104014
vn 0.99978990 0.00002167 0.02050044
vn 0.91178710 0.00008247 0.41066340
vn 0.90337500 0.00857277 0.42876570
vn 0.99976640 0.00036423 0.02161266
vn 0.86462280 -0.00025258 0.50242150
vn 0.88244870 0.02007994 0.46997990
vn 0.99846910 0.05084901 0.02177074
vn 0.85294680 0.01899586 0.52165220
vn 0.85059060 0.06245549 0.52210610
vn 0.81143490 0.58398410 0.02315186
vn 0.67600270 0.44622960 0.58642940
vn 0.53124080 0.38893360 0.75267110
vn 0.72979980 0.11438370 0.67402420
vn 0.81557540 0.05160206 0.57634540
vn 0.78231380 0.07978196 0.61775390
vn 0.81142120 0.02891560 0.58374630
vn 0.82293390 -0.00072769 0.56813670
vn 0.71468850 -0.00067434 0.69944260
vn 0.69124700 0.03800345 0.72161870
vn 0.66468660 0.10478430 0.73973770
vn 0.70374320 0.15694960 0.69290140
vn 0.56874900 0.22265820 0.79180040
vn 0.50490880 0.35116560 0.78851120
vn 0.43959050 0.35530140 0.82493700
vn 0.83942990 0.00688659 -0.54342440
vn 0.79733160 0.08538697 -0.59747090
vn 0.08947936 0.16644790 -0.98198190
vn 0.06881347 0.02361367 -0.99735010
vn -0.99986400 -0.01608113 -0.00366181
vn -0.99100100 0.08090284 -0.10663890
vn -0.52119210 0.78800670 -0.32772610
vn -0.49279070 0.55517460 -0.67002860
vn -0.98732690 0.07546606 -0.13960840
vn -0.65090730 0.75912050 -0.00747068
vn -0.99978450 0.00185222 0.02067695
vn -0.64871720 0.76048730 0.02872394
vn -0.85232820 -0.29074590 0.43474540
vn -0.61410320 0.47269990 0.63200630
vn -0.78292390 -0.41851910 0.46029550
vn -0.57986000 0.28862940 0.76187620
vn -0.87030540 -0.32813130 0.36728520
vn -0.57105370 0.26390310 0.77733710
vn -0.97737700 -0.10603750 0.18300350
vn -0.92928960 -0.36934990 -0.00122336
vn -0.92570690 -0.37805410 0.01190757
vn -0.94247120 -0.33424810 -0.00512347
vn -0.76651640 -0.58835250 0.25747630
vn -0.71982430 -0.65725050 0.22332660
vn -0.97158530 -0.18264180 0.15054530
vn -0.83409850 -0.54726530 0.06914195
vn -0.94991090 -0.27021660 -0.15701080
vn -0.99786480 -0.00098730 0.06530721
vn -0.95423600 -0.11144110 -0.27751480
vn -0.99964390 0.00875495 -0.02520571
vn -0.96789180 0.01762221 0.25074890
vn -0.93275560 -0.04408004 -0.35780420
vn -0.97584900 0.01087612 0.21817480
vn -0.99008980 0.01812597 -0.13926140
vn -0.97726880 0.00024358 0.21200430
vn -0.47498200 0.00012532 -0.87999550
vn -0.99189280 0.00030326 -0.12707710
vn -0.97624190 0.00000000 0.21668350
vn -0.47569190 0.00000000 -0.87961200
vn -0.99233380 0.00000000 -0.12358720
vn -0.97624190 0.00000000 0.21668350
vn -0.47568990 0.00000000 -0.87961300
vn -0.99233390 0.00000000 -0.12358630
vn -0.58805160 0.27609220 0.76024220
vn -0.62667450 0.22805550 0.74516420
vn 0.80984880 0.40238400 0.42688650
vn 0.09823865 0.30514190 0.94722620
vn 0.19859340 0.49083240 0.84831850
vn 0.79410190 0.20081610 0.57365070
vn 0.95477640 0.11648080 0.27355840
vn 0.94697060 0.28494550 0.14850210
vn 0.93259390 0.04147592 0.35853640
vn 0.70545310 0.67022280 0.23051530
vn 0.74427870 0.08616156 0.66228800
vn 0.85041300 0.52412580 -0.04571622
vn 0.92108080 0.02171640 0.38876530
vn 0.58578830 0.80740400 0.07036190
vn 0.73097850 0.04012943 0.68121950
vn 0.91493170 0.00080184 0.40360800
vn 0.72605490 0.00079401 0.68763630
vn 0.73638470 0.64377850 -0.20805450
vn 0.58559950 0.81045290 -0.01546912
vn 0.76810300 0.58827320 -0.25288810
vn 0.69776820 0.71632110 0.00195635
vn 0.92549710 0.37859480 -0.01099892
vn 0.72393330 0.68986640 -0.00222821
vn 0.92891770 0.37028490 0.00099881
vn 0.76320420 0.62918850 -0.14710990
vn 0.94160660 0.33670810 -0.00218185
vn 0.83559980 0.39110210 -0.38576180
vn 0.96945760 0.19611650 -0.14727650
vn 0.10728920 0.65225800 -0.75036560
vn 0.96942160 0.01070531 -0.24516770
vn 0.97587220 -0.00327279 -0.21831780
vn 0.84880730 -0.00030828 -0.52870230
vn 0.97715460 -0.00023770 -0.21253010
vn 0.06517689 -0.00013891 -0.99787380
vn 0.84705950 0.00000000 -0.53149820
vn 0.97613170 0.00000000 -0.21717940
vn 0.97613170 0.00000000 -0.21717960
vn 0.19859340 0.49083240 0.84831850
vn 0.70545310 0.67022280 0.23051530
vn 0.80984880 0.40238400 0.42688650
vn 0.12770640 0.69551160 0.70707470
vn 0.58578830 0.80740400 0.07036190
vn -0.01463663 0.79433700 0.60730110
vn 0.58559950 0.81045290 -0.01546912
vn -0.08471795 0.87165170 0.48274850
vn 0.69776820 0.71632110 0.00195635
vn -0.09804668 0.99487410 0.02474489
vn 0.72393330 0.68986640 -0.00222821
vn -0.08261410 0.99655400 -0.00742556
vn 0.76320420 0.62918850 -0.14710990
vn 0.03701649 0.93629430 -0.34926010
vn 0.83559980 0.39110210 -0.38576180
vn 0.10728920 0.65225800 -0.75036560
vn 0.79410190 0.20081610 0.57365070
vn -0.00185692 0.14554110 0.98935040
vn 0.09823865 0.30514190 0.94722620
vn 0.74427870 0.08616156 0.66228800
vn -0.00276786 0.05795819 0.99831520
vn -0.69790680 0.11817010 0.70637240
vn -0.99891110 -0.00014183 -0.04665240
vn -0.70324280 0.04943813 0.70922880
vn -0.92112340 -0.02240187 -0.38862550
vn -0.99722160 -0.00314783 -0.07442674
vn -0.72582890 -0.00087954 0.68787460
vn -0.91499920 -0.00364475 -0.40343910
vn -0.02059215 0.00055062 0.99978790
vn 0.73097850 0.04012943 0.68121950
vn 0.72605490 0.00079401 0.68763630
vn -0.70324280 0.04943813 0.70922880
vn -0.72582890 -0.00087954 0.68787460
vn -0.69790680 0.11817010 0.70637240
vn -0.62667450 0.22805550 0.74516420
vn -0.58805160 0.27609220 0.76024220
vn 0.19859340 0.49083240 0.84831850
vn -0.57105370 0.26390310 0.77733710
vn 0.12770640 0.69551160 0.70707470
vn -0.64871720 0.76048730 0.02872394
vn -0.61410320 0.47269990 0.63200630
vn -0.65090730 0.75912050 -0.00747068
vn -0.52119210 0.78800670 -0.32772610
vn -0.49279070 0.55517460 -0.67002860
vn -0.57986000 0.28862940 0.76187620
vn -0.57105370 0.26390310 0.77733710
vn 0.06454565 0.00000000 -0.99791470
vn -0.47568990 0.00000000 -0.87961300
vn 0.06454806 0.00000000 -0.99791460
vn -0.47569190 0.00000000 -0.87961200
vn -0.47498200 0.00012532 -0.87999550
vn 0.06517689 -0.00013891 -0.99787380
vn -0.46724790 0.02582724 -0.88374910
vn 0.06881347 0.02361367 -0.99735010
vn 0.08947936 0.16644790 -0.98198190
vn -0.41070860 0.15291280 -0.89885260
vn 0.10728920 0.65225800 -0.75036560
vn -0.49279070 0.55517460 -0.67002860
vn 0.10032360 -0.11503760 0.98828210
vn 0.35957420 0.08833633 0.92892570
vn 0.34499890 -0.11002010 0.93213270
vn 0.10058490 0.09352843 0.99052260
vn -0.00001357 -0.11680710 0.99315460
vn 0.35944860 0.17444880 0.91671390
vn -0.00000556 0.09406148 0.99556640
vn -0.10029880 -0.11508740 0.98827870
vn 0.09933100 0.18520290 0.97766730
vn 0.35904830 0.23668410 0.90280950
vn -0.10060910 0.09345732 0.99052690
vn -0.34509010 -0.11045360 0.93204770
vn -0.35957010 0.08810277 0.92894960
vn 0.09794342 0.25178150 0.96281530
vn 0.35438370 0.38279620 0.85315840
vn 0.09347630 0.40335600 0.91025600
vn 0.00000000 0.18622210 0.98250760
vn -0.09933101 0.18520160 0.97766750
vn -0.35945500 0.17445060 0.91671100
vn -0.00000024 0.25306920 0.96744820
vn -0.00000852 0.40661310 0.91360040
vn -0.09794416 0.25178150 0.96281520
vn -0.35905700 0.23668760 0.90280510
vn -0.09348208 0.40363820 0.91013040
vn -0.35436120 0.38305960 0.85304960
vn 0.10032360 -0.11503760 0.98828210
vn 0.34499890 -0.11002010 0.93213270
vn 0.11358240 -0.91029140 0.39808110
vn 0.04186786 -0.91324390 0.40525610
vn -0.00001357 -0.11680710 0.99315460
vn -0.00054689 -0.91241220 0.40927210
vn -0.10029880 -0.11508740 0.98827870
vn -0.04358494 -0.91094210 0.41022530
vn -0.34509010 -0.11045360 0.93204770
vn -0.11574450 -0.90655500 0.40590810
vn -0.91867400 0.10003280 0.38214070
vn -0.35905700 0.23668760 0.90280510
vn -0.92242280 0.07266691 0.37928320
vn -0.35945500 0.17445060 0.91671100
vn -0.92091580 0.03700681 0.38800070
vn -0.35957010 0.08810277 0.92894960
vn -0.91870260 -0.01298344 0.39473680
vn -0.34509010 -0.11045360 0.93204770
vn -0.11574450 -0.90655500 0.40590810
vn 0.03290959 0.94884220 0.31403090
vn 0.09577750 0.94607950 0.30945160
vn 0.35438370 0.38279620 0.85315840
vn 0.09347630 0.40335600 0.91025600
vn -0.00002916 0.94910610 0.31495640
vn -0.00000852 0.40661310 0.91360040
vn -0.03289663 0.94903340 0.31345400
vn -0.09348208 0.40363820 0.91013040
vn -0.09535161 0.94643820 0.30848460
vn -0.35436120 0.38305960 0.85304960
vn 0.92037080 -0.01183033 0.39086790
vn 0.11358240 -0.91029140 0.39808110
vn 0.34499890 -0.11002010 0.93213270
vn 0.92155390 0.03751859 0.38643340
vn 0.35957420 0.08833633 0.92892570
vn 0.92237140 0.07268579 0.37940460
vn 0.35944860 0.17444880 0.91671390
vn 0.91865470 0.10003770 0.38218580
vn 0.35904830 0.23668410 0.90280950
vn 0.91316130 0.14373620 0.38141350
vn 0.35438370 0.38279620 0.85315840
vn 0.09577750 0.94607950 0.30945160
vn -0.84881680 -0.00030881 -0.52868710
vn -0.06880647 0.02361366 -0.99735060
vn -0.83945180 0.00688486 -0.54339040
vn -0.97587420 -0.00327658 -0.21830880
vn -0.97715470 -0.00023770 -0.21252940
vn -0.96943060 0.01072062 -0.24513140
vn -0.84705760 0.00000000 -0.53150100
vn -0.97613170 0.00000000 -0.21717940
vn -0.84705660 0.00000000 -0.53150270
vn -0.97613170 0.00000000 -0.21717960
vn -0.79733430 0.08542283 -0.59746210
vn -0.96944550 0.19622530 -0.14721070
vn -0.83559940 0.39111600 -0.38574850
vn -0.10730240 0.65222940 -0.75038860
vn -0.94160660 0.33670830 -0.00217650
vn -0.76317740 0.62922140 -0.14710760
vn -0.92889050 0.37035310 0.00099883
vn -0.72388350 0.68991870 -0.00222818
vn -0.92547110 0.37865840 -0.01099832
vn -0.69771950 0.71636840 0.00195704
vn -0.76815230 0.58820060 -0.25290710
vn -0.58563500 0.81042710 -0.01548056
vn -0.73643020 0.64371250 -0.20809810
vn -0.58583750 0.80737040 0.07033843
vn -0.85042240 0.52410640 -0.04576153
vn -0.70547710 0.67020310 0.23049910
vn -0.94695610 0.28497810 0.14853140
vn -0.80984060 0.40240240 0.42688480
vn -0.95476290 0.11647230 0.27360930
vn -0.79409580 0.20082210 0.57365710
vn -0.93260980 0.04146346 0.35849640
vn -0.09824166 0.30516030 0.94722000
vn -0.19860420 0.49084980 0.84830590
vn -0.74430520 0.08615534 0.66225910
vn -0.92110590 0.02171891 0.38870600
vn -0.73101100 0.04012746 0.68118490
vn -0.91494730 0.00080321 0.40357260
vn -0.72607640 0.00079336 0.68761360
vn 0.85232920 -0.29073150 0.43475280
vn 0.64869050 0.76051010 0.02872385
vn 0.99978450 0.00187071 0.02067623
vn 0.61409990 0.47271250 0.63200020
vn 0.78293360 -0.41848450 0.46031050
vn 0.57986440 0.28862820 0.76187340
vn 0.87030980 -0.32809220 0.36730950
vn 0.57106960 0.26387880 0.77733360
vn 0.97737710 -0.10605940 0.18299020
vn 0.58806190 0.27610330 0.76023030
vn 0.99786940 -0.00100315 0.06523626
vn 0.62667190 0.22806320 0.74516410
vn 0.99964250 0.00875277 -0.02526554
vn 0.69787950 0.11817940 0.70639780
vn 0.99890940 -0.00014445 -0.04669233
vn 0.70321990 0.04944924 0.70925060
vn 0.99721860 -0.00314944 -0.07446577
vn 0.72581020 -0.00087932 0.68789450
vn 0.65088090 0.75914310 -0.00747041
vn 0.99986410 -0.01607214 -0.00366190
vn 0.52121880 0.78798480 -0.32773600
vn 0.99099770 0.08092118 -0.10665520
vn 0.49278040 0.55519740 -0.67001730
vn 0.98732050 0.07550111 -0.13963450
vn 0.41070750 0.15291270 -0.89885310
vn 0.97543190 0.05784846 -0.21257030
vn 0.46723220 0.02582541 -0.88375740
vn 0.99008650 0.01812945 -0.13928400
vn 0.47497790 0.00012575 -0.87999780
vn 0.99189140 0.00030212 -0.12708800
vn 0.47569580 0.00000000 -0.87960980
vn 0.99233390 0.00000000 -0.12358590
vn 0.47569310 0.00000000 -0.87961140
vn 0.99233390 0.00000000 -0.12358630
vn 0.97624190 0.00000000 0.21668350
vn 0.97624190 0.00000000 0.21668350
vn 0.97726530 0.00024143 0.21202000
vn 0.97583840 0.01088168 0.21822260
vn 0.96787650 0.01764495 0.25080590
vn 0.97159330 -0.18262330 0.15051690
vn 0.94247930 -0.33422490 -0.00514230
vn 0.92925870 -0.36942760 -0.00122332
vn 0.92567560 -0.37813080 0.01190653
vn 0.76651330 -0.58834990 0.25749130
vn 0.71986160 -0.65719340 0.22337410
vn 0.83413070 -0.54720930 0.06919562
vn 0.94991120 -0.27023260 -0.15698120
vn 0.95421650 -0.11145630 -0.27757570
vn 0.93270620 -0.04409536 -0.35793120
vn 0.92108320 -0.02241472 -0.38871990
vn 0.91498520 -0.00364609 -0.40347100
vn 0.08471818 0.87165090 0.48275000
vn -0.69771950 0.71636840 0.00195704
vn 0.09802924 0.99487580 0.02474494
vn -0.58563500 0.81042710 -0.01548056
vn 0.01463710 0.79432760 0.60731330
vn -0.58583750 0.80737040 0.07033843
vn -0.12771280 0.69549820 0.70708670
vn -0.70547710 0.67020310 0.23049910
vn -0.19860420 0.49084980 0.84830590
vn -0.80984060 0.40240240 0.42688480
vn -0.72388350 0.68991870 -0.00222818
vn 0.08259501 0.99655560 -0.00742522
vn -0.76317740 0.62922140 -0.14710760
vn 0.64869050 0.76051010 0.02872385
vn 0.65088090 0.75914310 -0.00747041
vn -0.03701998 0.93628960 -0.34927260
vn -0.83559940 0.39111600 -0.38574850
vn 0.52121880 0.78798480 -0.32773600
vn -0.10730240 0.65222940 -0.75038860
vn 0.49278040 0.55519740 -0.67001730
vn -0.06454363 0.00000000 -0.99791490
vn -0.06453922 0.00000000 -0.99791520
vn -0.06516980 -0.00013905 -0.99787430
vn -0.08945834 0.16644140 -0.98198500
vn -0.79409580 0.20082210 0.57365710
vn 0.00186826 0.14555010 0.98934910
vn -0.74430520 0.08615534 0.66225910
vn -0.09824166 0.30516030 0.94722000
vn 0.69787950 0.11817940 0.70639780
vn 0.62667190 0.22806320 0.74516410
vn 0.58806190 0.27610330 0.76023030
vn -0.19860420 0.49084980 0.84830590
vn 0.57106960 0.26387880 0.77733360
vn -0.12771280 0.69549820 0.70708670
vn 0.70321990 0.04944924 0.70925060
vn 0.00277034 0.05795899 0.99831510
vn 0.02058727 0.00054998 0.99978800
vn 0.72581020 -0.00087932 0.68789450
vn -0.72607640 0.00079336 0.68761360
vn -0.73101100 0.04012746 0.68118490
vn 0.61409990 0.47271250 0.63200020
vn 0.57986440 0.28862820 0.76187340
vn 0.57106960 0.26387880 0.77733360
vn -0.06453922 0.00000000 -0.99791520
vn -0.06454363 0.00000000 -0.99791490
vn 0.47569310 0.00000000 -0.87961140
vn 0.47569580 0.00000000 -0.87960980
vn 0.47497790 0.00012575 -0.87999780
vn -0.06516980 -0.00013905 -0.99787430
vn 0.46723220 0.02582541 -0.88375740
vn -0.06880647 0.02361366 -0.99735060
vn -0.08945834 0.16644140 -0.98198500
vn 0.41070750 0.15291270 -0.89885310
vn -0.10730240 0.65222940 -0.75038860
vn 0.49278040 0.55519740 -0.67001730
vn -0.00736745 -0.85569050 0.51743560
vn -0.02323664 0.00000098 0.99972990
vn 0.02519049 0.00000090 0.99968270
vn 0.00853576 -0.85921930 0.51153620
vn -0.33224980 -0.92728010 0.17251570
vn -0.83060580 -0.00000061 0.55686080
vn -0.36497030 -0.90005230 0.23812300
vn -0.88194290 -0.00000173 0.47135630
vn -0.50167990 -0.86504830 0.00293525
vn -0.99992910 -0.00000091 0.01191638
vn -0.57684060 -0.81671880 -0.01501501
vn -0.99903920 -0.00000049 -0.04382604
vn -0.36497030 -0.90005230 0.23812300
vn -0.83060580 -0.00000061 0.55686080
vn -0.02323664 0.00000098 0.99972990
vn -0.00736745 -0.85569050 0.51743560
vn 0.00000000 -1.00000000 0.00000020
vn 0.00000000 -1.00000000 0.00000000
vn 0.00000000 -1.00000000 0.00000075
vn 0.00853576 -0.85921930 0.51153620
vn -0.33224980 -0.92728010 0.17251570
vn 0.00000000 -1.00000000 0.00000000
vn 0.00000000 -1.00000000 -0.00000021
vn 0.36851130 -0.89699320 0.24413690
vn -0.50167990 -0.86504830 0.00293525
vn 0.00000000 -1.00000000 0.00000000
vn 0.00000000 -1.00000000 0.00000000
vn 0.33346520 -0.92666020 0.17349870
vn -0.57684060 -0.81671880 -0.01501501
vn 0.00000000 -1.00000000 0.00000000
vn 0.00000000 -1.00000000 0.00000011
vn 0.49991860 -0.86606710 0.00302453
vn -0.01241720 -0.83390710 -0.55176530
vn 0.00000000 -1.00000000 0.00000000
vn 0.00000000 -1.00000000 0.00000000
vn 0.57131300 -0.82060380 -0.01452510
vn 0.01138236 -0.83146700 -0.55545760
vn 0.00000000 -1.00000000 0.00000000
vn 0.49991860 -0.86606710 0.00302453
vn 0.99902430 -0.00000066 -0.04416471
vn 0.57131300 -0.82060380 -0.01452510
vn 0.99992670 -0.00000041 0.01211222
vn 0.33346520 -0.92666020 0.17349870
vn 0.88155270 0.00000043 0.47208560
vn 0.36851130 -0.89699320 0.24413690
vn 0.82745410 0.00000000 0.56153330
vn 0.02519049 0.00000090 0.99968270
vn 0.82745410 0.00000000 0.56153330
vn 0.03419193 -0.00000162 -0.99941530
vn 0.01138236 -0.83146700 -0.55545760
vn 0.01138236 -0.83146700 -0.55545760
vn 0.03419193 -0.00000162 -0.99941530
vn -0.03585837 -0.00000155 -0.99935690
vn -0.01241720 -0.83390710 -0.55176530
vn -0.01241720 -0.83390710 -0.55176530
vn -0.03585837 -0.00000155 -0.99935690
vn -0.01241765 0.83391020 -0.55176040
vn -0.57683430 0.81672330 -0.01501550
vn -0.50167210 0.86505290 0.00293503
vn -0.33224320 0.92728290 0.17251310
vn -0.36496650 0.90005450 0.23812060
vn 0.01138245 0.83147050 -0.55545230
vn -0.01241765 0.83391020 -0.55176040
vn 0.01138245 0.83147050 -0.55545230
vn 0.57131430 0.82060280 -0.01452517
vn 0.49991990 0.86606630 0.00302453
vn 0.33346220 0.92666200 0.17349460
vn 0.36850930 0.89699540 0.24413130
vn 0.02519049 0.00000090 0.99968270
vn 0.36850930 0.89699540 0.24413130
vn 0.82745410 0.00000000 0.56153330
vn 0.00853555 0.85921930 0.51153640
vn 0.00000000 1.00000000 -0.00000063
vn 0.00000000 1.00000000 -0.00000034
vn 0.00000000 1.00000000 0.00000358
vn 0.33346220 0.92666200 0.17349460
vn 0.00000000 1.00000000 0.00000000
vn 0.49991990 0.86606630 0.00302453
vn 0.00000000 1.00000000 0.00000000
vn 0.57131430 0.82060280 -0.01452517
vn 0.00000000 1.00000000 -0.00000408
vn 0.01138245 0.83147050 -0.55545230
vn 0.00000000 1.00000000 -0.00000413
vn -0.01241765 0.83391020 -0.55176040
vn 0.00000000 1.00000000 0.00000000
vn -0.57683430 0.81672330 -0.01501550
vn 0.00000000 1.00000000 0.00000000
vn -0.50167210 0.86505290 0.00293503
vn 0.00000000 1.00000000 -0.00000326
vn -0.33224320 0.92728290 0.17251310
vn 0.00000000 1.00000000 -0.00000308
vn -0.36496650 0.90005450 0.23812060
vn 0.00000000 1.00000000 0.00000363
vn -0.00736743 0.85569040 0.51743580
vn -0.83060580 -0.00000061 0.55686080
vn -0.02323664 0.00000098 0.99972990
vn -0.00736743 0.85569040 0.51743580
vn 0.00853555 0.85921930 0.51153640
vn -0.89097740 -0.01414695 0.45382710
vn -0.89241430 0.00000000 0.45121700
vn -0.63365150 0.00000000 0.77361860
vn -0.62779530 -0.02308490 0.77803610
vn -0.62779530 -0.02308490 0.77803610
vn -0.63365150 0.00000000 0.77361860
vn 0.00000000 0.00000000 1.00000000
vn -0.00000010 -0.02784564 0.99961230
vn 0.63362200 0.00000000 0.77364280
vn 0.62776580 -0.02308624 0.77805980
vn 0.62776580 -0.02308624 0.77805980
vn 0.63362200 0.00000000 0.77364280
vn 0.89241430 0.00000000 0.45121700
vn 0.89097740 -0.01414692 0.45382710
vn 0.61988380 -0.77555500 0.11940900
vn 0.89423600 -0.43869660 0.08881025
vn 0.63240230 -0.77464010 0.00000000
vn 0.89239390 -0.45125730 0.00000000
vn -0.89425260 -0.43866260 0.08881196
vn -0.61993180 -0.77551640 0.11941100
vn -0.89241420 -0.45121730 0.00000000
vn -0.63245050 -0.77460090 0.00000000
vn -0.00000010 -0.02784564 0.99961230
vn -0.61993180 -0.77551640 0.11941100
vn -0.62779530 -0.02308490 0.77803610
vn -0.00000181 -0.99064080 0.13649500
vn 0.62776580 -0.02308624 0.77805980
vn 0.61988380 -0.77555500 0.11940900
vn -0.00000168 -1.00000000 0.00000000
vn -0.63245050 -0.77460090 0.00000000
vn 0.63240230 -0.77464010 0.00000000
vn -0.89095310 -0.01414673 0.45387490
vn -0.89239010 0.00000000 0.45126460
vn -0.63366620 0.00000000 0.77360650
vn -0.62781070 -0.02308374 0.77802370
vn -0.62781070 -0.02308374 0.77802370
vn -0.63366620 0.00000000 0.77360650
vn 0.00000000 0.00000000 1.00000000
vn 0.00000024 -0.02784545 0.99961230
vn 0.63362200 0.00000000 0.77364280
vn 0.62776490 -0.02308719 0.77806050
vn 0.62776490 -0.02308719 0.77806050
vn 0.63362200 0.00000000 0.77364280
vn 0.89246240 0.00000000 0.45112160
vn 0.89102620 -0.01414592 0.45373150
vn 0.61988900 -0.77554970 0.11941650
vn 0.89429060 -0.43858850 0.08879436
vn 0.63241180 -0.77463220 0.00000000
vn 0.89245470 -0.45113710 0.00000000
vn -0.89421840 -0.43872990 0.08882199
vn -0.61993490 -0.77551500 0.11940340
vn -0.89237360 -0.45129730 0.00000000
vn -0.63244940 -0.77460160 0.00000000
vn 0.00000024 -0.02784545 0.99961230
vn -0.61993490 -0.77551500 0.11940340
vn -0.62781070 -0.02308374 0.77802370
vn 0.00000186 -0.99064080 0.13649420
vn 0.62776490 -0.02308719 0.77806050
vn 0.61988900 -0.77554970 0.11941650
vn 0.00000106 -1.00000000 0.00000000
vn -0.63244940 -0.77460160 0.00000000
vn 0.63241180 -0.77463220 0.00000000
vn -0.99168890 -0.00101299 0.12865500
vn -0.99187420 -0.00009479 0.12722230
vn -0.99187420 -0.00009479 0.12722230
vn -0.99170180 -0.00094961 0.12855610
vn -0.82834200 -0.24278070 0.50488340
vn -0.81405920 -0.25432000 0.52213880
vn -0.03391675 -0.69915800 0.71416230
vn -0.00907034 -0.70559900 0.70855320
vn 0.99171720 -0.00011657 0.12844140
vn 0.99153570 -0.00089626 0.12983160
vn 0.99171720 -0.00011657 0.12844140
vn 0.99152360 -0.00094754 0.12992300
vn 0.79743900 -0.27287840 0.53817150
vn 0.80932100 -0.26342790 0.52498110
vn 0.03305249 -0.69997250 0.71340450
vn 0.01209070 -0.70557330 0.70853380
vn 0.03305249 -0.69997250 0.71340450
vn -0.03391675 -0.69915800 0.71416230
vn -0.00907034 -0.70559900 0.70855320
vn 0.01209070 -0.70557330 0.70853380
vn 0.00000000 1.00000000 0.00000175
vn 0.00000000 1.00000000 0.00000175
vn 0.00000000 1.00000000 0.00000175
vn 0.00000000 1.00000000 0.00000175
vn 0.00000000 -1.00000000 -0.00000741
vn 0.00000000 -1.00000000 -0.00000750
vn 0.00000000 -1.00000000 -0.00000745
vn 0.00000000 -1.00000000 -0.00000732
vn 0.00000000 -1.00000000 -0.00000043
vn 0.00000000 -1.00000000 0.00000000
vn 0.00000000 -1.00000000 -0.00000036
vn 0.00000000 -1.00000000 0.00000000
vn 0.00000000 -1.00000000 -0.00000017
vn 0.00000000 -1.00000000 0.00000000
vn 0.00000000 -1.00000000 -0.00000021
vn 0.00000000 -1.00000000 0.00000000
vn 0.00000000 -1.00000000 0.00000000
vn 0.00000000 -1.00000000 0.00000000
vn 0.00000000 -1.00000000 0.00000000
vn 0.00000000 -1.00000000 0.00000000
vn 0.00000000 -1.00000000 0.00000028
vn 0.00000000 -1.00000000 0.00000000
vn 0.00000000 -1.00000000 0.00000018
vn 0.00000000 -1.00000000 0.00000000
vn 0.00000000 -1.00000000 0.00000024
vn 0.00000000 -1.00000000 0.00000000
vn 0.00000000 -1.00000000 0.00000016
vn 0.00000000 -1.00000000 0.00000000
vn 0.00000000 1.00000000 0.00000486
vn 0.00000000 1.00000000 0.00000473
vn 0.00000000 1.00000000 0.00000480
vn 0.00000000 1.00000000 0.00000480
vn 0.00000000 1.00000000 0.00000112
vn 0.00000000 1.00000000 -0.00000039
vn 0.00000000 1.00000000 0.00000119
vn 0.00000000 1.00000000 -0.00000039
vn 0.00000000 1.00000000 0.00000101
vn 0.00000000 1.00000000 -0.00000037
vn 0.00000000 1.00000000 0.00000087
vn 0.00000000 1.00000000 -0.00000039
vn 0.00000000 1.00000000 0.00000000
vn 0.00000000 1.00000000 0.00000000
vn 0.00000000 1.00000000 0.00000000
vn 0.00000000 1.00000000 0.00000000
vn 0.00000000 1.00000000 0.00000010
vn 0.00000000 1.00000000 0.00000000
vn 0.00000000 1.00000000 0.00000011
vn 0.00000000 1.00000000 -0.00000014
vn 0.00000000 1.00000000 -0.00000038
vn 0.00000000 1.00000000 -0.00000047
vn 0.00000000 1.00000000 -0.00000038
vn 0.00000000 1.00000000 -0.00000050
vt -285.82780000 -33.63813000
vt -285.82780000 -32.63813000
vt -284.82780000 -32.63813000
vt -284.82780000 -33.63813000
vt -286.11460000 1.06170700
vt -286.06940000 1.05810400
vt -286.07240000 1.05473300
vt -286.37240000 -0.28623740
vt -286.20300000 -0.28878570
vt -286.37240000 -0.28878570
vt -286.94000000 0.87984960
vt -286.95500000 0.87764230
vt -286.95650000 0.88531760
vt -286.87700000 0.70870100
vt -286.87640000 0.77174330
vt -286.83950000 0.75704910
vt -286.83680000 0.69793740
vt -286.87660000 0.58492290
vt -286.80450000 0.68599920
vt -286.81380000 0.74273650
vt -286.83280000 0.57355760
vt -286.87630000 0.41215370
vt -286.79170000 0.56058020
vt -286.83140000 0.40458480
vt -286.87590000 0.23938450
vt -286.83150000 0.23938450
vt -286.78750000 0.39339700
vt -286.78840000 0.23938450
vt -286.76710000 0.65230340
vt -286.77930000 0.71223900
vt -286.75940000 0.68109420
vt -286.73320000 0.62269780
vt -286.75160000 0.54836860
vt -286.71300000 0.53597220
vt -286.74510000 0.38089450
vt -286.74510000 0.23918410
vt -286.69470000 0.36579410
vt -286.69450000 0.23891580
vt -286.74760000 0.87608590
vt -286.74100000 0.87876220
vt -286.74100000 0.19684990
vt -286.74760000 0.19952310
vt -286.22890000 -0.13846470
vt -286.22210000 -0.29460290
vt -286.22890000 -0.29083610
vt -286.22210000 -0.14109990
vt -286.22890000 -0.10871390
vt -286.22210000 -0.11111380
vt -286.22890000 0.66117330
vt -286.22210000 0.66486180
vt -286.75850000 0.63844050
vt -286.76120000 0.64189650
vt -286.74190000 0.65521290
vt -286.73940000 0.65165250
vt -286.24050000 0.50284220
vt -286.23370000 -0.27050820
vt -286.24050000 -0.26682140
vt -286.23370000 0.50524200
vt -286.24050000 0.53259040
vt -286.23370000 0.53522530
vt -286.24050000 0.68513570
vt -286.23370000 0.68890350
vt -286.10870000 0.65000950
vt -286.10620000 0.65355700
vt -286.08690000 0.64207050
vt -286.08960000 0.63861320
vt -286.23370000 -0.29516930
vt -286.24050000 -0.29128920
vt -286.72290000 0.14880930
vt -286.72960000 0.14545950
vt -286.72960000 0.99925420
vt -286.72290000 0.99590550
vt -286.22890000 0.68366440
vt -286.22210000 0.68753050
vt -286.22210000 0.68753050
vt -286.21540000 0.68366440
vt -286.21540000 0.66117330
vt -286.22210000 0.66486180
vt -286.21540000 -0.10871390
vt -286.22210000 -0.11111380
vt -286.21540000 -0.13846470
vt -286.22210000 -0.14109990
vt -286.21540000 -0.29083610
vt -286.22210000 -0.29460290
vt -286.72960000 0.14545950
vt -286.73610000 0.14880930
vt -286.73610000 0.99590550
vt -286.72960000 0.99925420
vt -286.23370000 -0.27050820
vt -286.22710000 -0.29128920
vt -286.23370000 -0.29516930
vt -286.22710000 -0.26682140
vt -286.23370000 0.50524200
vt -286.22710000 0.50284220
vt -286.23370000 0.53522530
vt -286.22710000 0.53259040
vt -286.23370000 0.68890350
vt -286.22710000 0.68513570
vt -286.47480000 -0.25560530
vt -286.47730000 -0.25205850
vt -286.45820000 -0.24066390
vt -286.45550000 -0.24412060
vt -286.74100000 0.87876220
vt -286.73440000 0.87608590
vt -286.73440000 0.19952310
vt -286.74100000 0.19684990
vt -287.12970000 -0.24394670
vt -287.12700000 -0.24049130
vt -287.10790000 -0.25370120
vt -287.11050000 -0.25726100
vt -286.77320000 0.41211500
vt -286.77360000 0.23927410
vt -286.81810000 0.23927410
vt -286.81810000 0.40454160
vt -286.77280000 0.58495590
vt -286.86120000 0.23927410
vt -286.81670000 0.57358460
vt -286.77250000 0.70878540
vt -286.86210000 0.39334570
vt -286.81270000 0.69802310
vt -286.77310000 0.77185390
vt -286.81000000 0.75715230
vt -286.83570000 0.74283480
vt -286.84490000 0.68609550
vt -286.85790000 0.56059880
vt -286.89800000 0.54838550
vt -286.90490000 0.38073130
vt -286.90450000 0.23907360
vt -286.95510000 0.23880510
vt -286.95480000 0.36573620
vt -286.93660000 0.53598700
vt -286.88250000 0.65237280
vt -286.91640000 0.62278880
vt -286.87020000 0.71240910
vt -286.88440000 0.70085200
vt -285.91220000 -0.28623130
vt -285.86590000 -0.28214560
vt -285.86440000 -0.28422430
vt -285.91200000 -0.28882490
vt -286.04980000 1.01733200
vt -286.05350000 1.03796600
vt -286.05040000 1.04130900
vt -286.05720000 1.05283300
vt -286.05990000 1.04974200
vt -286.04550000 1.01766400
vt -286.05020000 0.30631260
vt -286.04590000 0.30549880
vt -286.06540000 0.26920300
vt -286.06150000 0.26743690
vt -286.07970000 0.24413590
vt -286.07610000 0.24167650
vt -286.10870000 0.21105960
vt -286.10540000 0.20844640
vt -286.14080000 0.19020700
vt -286.05550000 1.01651700
vt -286.05560000 0.30783920
vt -286.05820000 1.03237200
vt -286.06980000 0.27253420
vt -286.08310000 0.24848590
vt -286.06460000 1.04409800
vt -286.11200000 0.21578360
vt -286.14340000 0.19518620
vt -286.19530000 0.16657870
vt -286.19690000 0.17203750
vt -286.27820000 0.14748840
vt -286.07700000 1.04935600
vt -286.27920000 0.15284480
vt -286.11500000 1.05202300
vt -286.11470000 1.05787600
vt -286.23250000 1.05202300
vt -286.23250000 1.06166800
vt -286.23250000 1.05780700
vt -286.39650000 1.05202300
vt -286.39650000 1.06166800
vt -286.39650000 1.05780700
vt -286.56060000 1.05202300
vt -286.56060000 1.06166800
vt -286.56060000 1.05780700
vt -286.13870000 0.18693130
vt -286.19460000 0.16247170
vt -285.93730000 0.61400200
vt -285.99500000 0.64323000
vt -285.93630000 0.61643430
vt -285.99610000 0.64129500
vt -285.99790000 0.63575110
vt -285.94020000 0.60859660
vt -286.08470000 0.65577150
vt -285.90100000 0.59137790
vt -286.08380000 0.66137770
vt -285.90430000 0.58663280
vt -286.25010000 0.67378190
vt -285.86940000 0.55700930
vt -286.24980000 0.67938130
vt -286.37290000 0.67389330
vt -286.37290000 0.67947700
vt -285.87310000 0.55251450
vt -285.85540000 0.53082280
vt -285.85990000 0.52741630
vt -285.84030000 0.49274720
vt -285.84590000 0.49118350
vt -285.84010000 -0.24108150
vt -285.84570000 -0.24040510
vt -285.84610000 -0.26516100
vt -285.85100000 -0.25938200
vt -285.85340000 -0.27680500
vt -285.85840000 -0.27086220
vt -285.85170000 -0.27884330
vt -285.87110000 -0.27617780
vt -285.91240000 -0.28026570
vt -286.03360000 -0.28623740
vt -286.03360000 -0.28026570
vt -286.03360000 -0.28878570
vt -286.20300000 -0.28623740
vt -286.20300000 -0.28026570
vt -286.37240000 -0.28026570
vt -286.61040000 0.14305160
vt -286.62070000 0.16747840
vt -286.60640000 0.14542290
vt -286.62450000 0.16496010
vt -286.65110000 0.20098360
vt -286.65510000 0.19850990
vt -286.67600000 0.22651200
vt -286.68030000 0.22455330
vt -286.69300000 0.26363080
vt -286.69740000 0.26276870
vt -286.69280000 0.97902050
vt -286.69710000 0.97951480
vt -286.69000000 1.00249500
vt -286.69400000 1.00439000
vt -286.68870000 1.01384700
vt -286.69260000 1.01583400
vt -286.91780000 0.63078450
vt -286.92440000 0.54741510
vt -286.92190000 0.63194380
vt -286.92030000 0.54611050
vt -286.92530000 0.38577970
vt -286.27850000 0.14312480
vt -286.44040000 0.13013450
vt -286.44060000 0.12582600
vt -286.44070000 0.13555500
vt -286.56100000 0.12992360
vt -286.56100000 0.12564350
vt -286.56100000 0.13533600
vt -286.92530000 0.26669350
vt -286.92110000 0.38567740
vt -286.92100000 0.26668240
vt -286.92960000 0.38684820
vt -286.92930000 0.26670560
vt -286.92870000 0.54854830
vt -286.92680000 0.63229780
vt -286.93150000 0.68806520
vt -286.92800000 0.68857920
vt -286.94460000 0.72132070
vt -286.94210000 0.72277620
vt -286.70330000 0.26274100
vt -286.68520000 0.22443260
vt -286.70300000 0.97951480
vt -286.69990000 1.00331300
vt -286.69910000 1.01491200
vt -286.66010000 0.19850570
vt -286.62710000 0.16506030
vt -286.90460000 0.58936520
vt -286.91210000 0.74743370
vt -286.90460000 0.74743370
vt -286.91210000 0.58936510
vt -286.91210000 0.43129700
vt -286.90460000 0.43129730
vt -286.91200000 0.31777720
vt -286.90440000 0.31777770
vt -286.90340000 0.27330710
vt -286.90960000 0.27424240
vt -286.90360000 0.26153420
vt -286.90980000 0.26244400
vt -286.79480000 0.51160560
vt -286.74290000 0.59622540
vt -286.74290000 0.51156010
vt -286.79480000 0.59622540
vt -286.84680000 0.51165120
vt -286.74290000 0.69043050
vt -286.84690000 0.59622540
vt -286.89870000 0.51169650
vt -286.79480000 0.69043050
vt -286.74290000 0.78463530
vt -286.89880000 0.59622540
vt -286.95070000 0.51174210
vt -286.95090000 0.59622540
vt -286.79480000 0.78463530
vt -286.74300000 0.87068930
vt -286.79490000 0.87068930
vt -286.84690000 0.69043050
vt -286.89880000 0.69043050
vt -286.95090000 0.69043050
vt -286.84690000 0.78463530
vt -286.84690000 0.87068930
vt -286.89880000 0.78463530
vt -286.95090000 0.78463530
vt -286.89880000 0.87068930
vt -286.95080000 0.87068930
vt -286.76230000 0.60525810
vt -286.77110000 0.55173300
vt -286.78570000 0.55265770
vt -286.77700000 0.60576110
vt -286.76020000 0.65878310
vt -286.77480000 0.65886490
vt -286.76230000 0.71230810
vt -286.77700000 0.71196820
vt -286.77110000 0.76583300
vt -286.78570000 0.76507190
vt -286.92870000 0.78849950
vt -286.91400000 0.79083130
vt -286.90610000 0.69167440
vt -286.89120000 0.69338170
vt -286.89190000 0.59509590
vt -286.87700000 0.59593150
vt -286.88870000 0.50929320
vt -286.87380000 0.50853790
vt -286.88840000 0.50187020
vt -286.78540000 0.60672910
vt -286.77680000 0.55469520
vt -286.79280000 0.55371250
vt -286.80150000 0.60625220
vt -286.78750000 0.65876330
vt -286.80360000 0.65879260
vt -286.78530000 0.71079750
vt -286.80150000 0.71133240
vt -286.77680000 0.76283170
vt -286.79280000 0.76387300
vt -286.98250000 0.48847420
vt -286.98290000 0.48107520
vt -286.99760000 0.48755730
vt -286.97940000 0.57411810
vt -286.99430000 0.57495190
vt -286.96530000 0.67049030
vt -286.98010000 0.67219390
vt -286.94270000 0.76710860
vt -286.95740000 0.76943580
vt -286.91640000 0.85606500
vt -286.93140000 0.85826410
vt -286.91500000 0.86371680
vt -286.01130000 1.06784500
vt -285.88980000 1.07042900
vt -285.88990000 1.06783900
vt -285.89020000 1.06188000
vt -286.01130000 1.06188000
vt -285.84880000 1.05779600
vt -286.18050000 1.06784500
vt -286.18050000 1.06188000
vt -286.34970000 1.06784500
vt -286.34970000 1.06188000
vt -285.84380000 1.06375700
vt -285.83620000 1.05248700
vt -285.83110000 1.05842300
vt -285.82960000 1.06045900
vt -285.82880000 1.04102000
vt -285.82390000 1.04679200
vt -285.82360000 1.02206400
vt -285.81780000 1.02274000
vt -285.82360000 0.29130610
vt -285.81810000 0.28974410
vt -285.83770000 0.25511460
vt -285.83330000 0.25171180
vt -285.85080000 0.23004480
vt -285.84730000 0.22555530
vt -285.88210000 0.19596520
vt -285.87880000 0.19122540
vt -285.91790000 0.17402620
vt -285.91500000 0.16862700
vt -285.97550000 0.14690270
vt -285.97380000 0.14136490
vt -286.06230000 0.12690500
vt -285.97260000 0.13943250
vt -285.91410000 0.16619750
vt -286.06130000 0.12130510
vt -286.22750000 0.10891500
vt -286.22710000 0.10332200
vt -286.35010000 0.10880390
vt -286.35010000 0.10322620
vt -286.28460000 0.91805510
vt -286.26510000 0.88176950
vt -286.26930000 0.88095610
vt -286.28060000 0.91982080
vt -286.29880000 0.94311520
vt -286.29530000 0.94557370
vt -286.32790000 0.97618210
vt -286.32460000 0.97879460
vt -286.35990000 0.99702870
vt -286.35790000 1.00030400
vt -286.41450000 1.02065100
vt -286.41370000 1.02475600
vt -286.49740000 1.03973500
vt -286.49770000 1.04409700
vt -286.65940000 1.05708400
vt -286.65970000 1.06139100
vt -286.78000000 1.05729500
vt -286.78000000 1.06157400
vt -286.26470000 0.16980620
vt -286.26890000 0.17013730
vt -286.26960000 0.14616750
vt -286.27260000 0.14950990
vt -286.27630000 0.13464700
vt -286.27910000 0.13773650
vt -286.28860000 0.12937750
vt -286.29160000 0.13274730
vt -286.33370000 0.12577580
vt -286.33390000 0.12960480
vt -286.45160000 0.12581440
vt -286.45160000 0.12967440
vt -286.61560000 0.12581440
vt -286.61560000 0.12967440
vt -286.77960000 0.12581440
vt -286.77960000 0.12967440
vt -286.77960000 0.13545620
vt -286.61560000 0.13545620
vt -286.45160000 0.13545620
vt -286.33420000 0.13545620
vt -286.29620000 0.13812210
vt -286.28380000 0.14337960
vt -286.27730000 0.15510230
vt -286.27460000 0.17095230
vt -286.27470000 0.87942980
vt -286.28900000 0.91472480
vt -286.30230000 0.93876640
vt -286.33120000 0.97145940
vt -286.36250000 0.99205110
vt -286.41600000 1.01519300
vt -286.49840000 1.03438000
vt -286.65980000 1.05166500
vt -286.78000000 1.05188400
vt -286.67530000 0.22339730
vt -286.66250000 0.26260200
vt -286.65810000 0.26173710
vt -286.67970000 0.22536230
vt -286.70060000 0.19726900
vt -286.70460000 0.19975080
vt -286.73120000 0.16360990
vt -286.73510000 0.16613640
vt -286.74550000 0.14163000
vt -286.74950000 0.14400900
vt -286.66270000 0.98032210
vt -286.65840000 0.98081810
vt -286.66560000 1.00387300
vt -286.65220000 0.26170930
vt -286.65260000 0.98081810
vt -286.66160000 1.00577400
vt -286.66690000 1.01526200
vt -286.65560000 1.00469400
vt -286.66290000 1.01725500
vt -286.65640000 1.01633000
vt -286.34970000 1.07039000
vt -286.18050000 1.07039000
vt -286.01130000 1.07039000
vt -285.84220000 1.06583400
vt -286.96180000 0.63084970
vt -286.95520000 0.54744030
vt -286.95940000 0.54613500
vt -286.95770000 0.63200940
vt -286.95090000 0.54857410
vt -286.95280000 0.63236370
vt -286.94820000 0.68815770
vt -286.95160000 0.68867190
vt -286.93500000 0.72142920
vt -286.93740000 0.72288540
vt -286.95000000 0.38679660
vt -286.95430000 0.38572750
vt -286.95430000 0.26658430
vt -286.95030000 0.26659640
vt -286.95860000 0.26657320
vt -286.95860000 0.38562510
vt -286.67040000 0.22327610
vt -286.69560000 0.19726470
vt -286.72870000 0.16371040
vt -286.92080000 0.58945600
vt -286.92080000 0.74769350
vt -286.91330000 0.74769350
vt -286.91330000 0.58945590
vt -286.91330000 0.43121870
vt -286.92080000 0.43121910
vt -286.91340000 0.31757750
vt -286.92100000 0.31757810
vt -286.92200000 0.27305990
vt -286.91580000 0.27399620
vt -286.92180000 0.26127430
vt -286.91560000 0.26218510
vt -286.03970000 1.04510800
vt -286.03310000 1.04778600
vt -286.03310000 0.36545960
vt -286.03970000 0.36813460
vt -285.98770000 -0.08055699
vt -285.98090000 -0.22690880
vt -285.98770000 -0.22315480
vt -285.98090000 -0.08318332
vt -285.98770000 -0.05090615
vt -285.98090000 -0.05329809
vt -285.98770000 0.71639170
vt -285.98090000 0.72006760
vt -286.58070000 0.69621200
vt -286.58330000 0.69966660
vt -286.56400000 0.71297750
vt -286.56150000 0.70941840
vt -286.55660000 0.69850370
vt -285.93570000 0.69670430
vt -286.57210000 0.68734510
vt -285.93100000 0.70777610
vt -286.65690000 0.56499340
vt -285.92020000 0.68734500
vt -286.64630000 0.55941410
vt -285.91190000 0.69638480
vt -286.66420000 0.53770860
vt -285.84600000 0.55941410
vt -286.65290000 0.53430830
vt -285.83540000 0.56499340
vt -286.66300000 -0.16835950
vt -285.83940000 0.53430840
vt -286.65290000 -0.16178750
vt -285.82820000 0.53770880
vt -286.64060000 -0.18898600
vt -285.83940000 -0.16178750
vt -286.63460000 -0.17835860
vt -285.82920000 -0.16822090
vt -285.85160000 -0.19066250
vt -285.85780000 -0.18015810
vt -286.00190000 0.56788530
vt -285.99520000 -0.20261240
vt -286.00190000 -0.19893930
vt -285.99520000 0.57027610
vt -286.00190000 0.59752360
vt -285.99520000 0.60014900
vt -286.00190000 0.74024900
vt -285.99520000 0.74400290
vt -285.92850000 0.71132210
vt -285.90930000 0.69984050
vt -285.99520000 -0.22718260
vt -286.00190000 -0.22331680
vt -286.00090000 0.32920630
vt -286.00760000 0.32585910
vt -286.00760000 1.17898900
vt -286.00090000 1.17564300
vt -285.98770000 0.73880680
vt -285.98090000 0.74266000
vt -285.97420000 0.73880680
vt -285.97420000 0.71639170
vt -285.97420000 -0.05090615
vt -285.97420000 -0.08055699
vt -285.97420000 -0.22315480
vt -286.01420000 0.32920630
vt -286.01420000 1.17564300
vt -285.98840000 -0.22331680
vt -285.98840000 -0.19893930
vt -285.98840000 0.56788530
vt -285.98840000 0.59752360
vt -285.98840000 0.74024900
vt -286.41570000 -0.18933990
vt -286.39910000 -0.17439130
vt -286.39650000 -0.17784970
vt -286.41820000 -0.18579130
vt -286.40730000 -0.16534500
vt -286.33320000 -0.03731957
vt -286.42290000 -0.17471110
vt -286.32260000 -0.04290298
vt -286.32650000 -0.01219529
vt -286.31530000 -0.01559818
vt -286.32650000 0.68441490
vt -286.31630000 0.69085300
vt -286.34490000 0.70279910
vt -286.33880000 0.71331120
vt -287.12230000 0.70099830
vt -287.12830000 0.71163360
vt -287.14070000 0.68441490
vt -287.15070000 0.69099180
vt -287.14070000 -0.01219520
vt -287.15190000 -0.01559812
vt -287.13400000 -0.03731954
vt -287.14460000 -0.04290298
vt -287.05980000 -0.16534520
vt -287.06830000 -0.17421860
vt -287.04420000 -0.17651190
vt -287.04920000 -0.18743480
vt -287.07100000 -0.17767560
vt -287.05170000 -0.19099630
vt -286.02650000 1.04510800
vt -286.02650000 0.36813460
vt -286.06000000 0.40392070
vt -286.06000000 1.01805200
vt -286.05300000 1.01805200
vt -286.05300000 0.40392070
vt -286.49000000 0.39274620
vt -286.49000000 0.98946980
vt -286.48170000 0.98946980
vt -286.48170000 0.39274620
vt -286.47330000 0.98946980
vt -286.47330000 0.39274620
vt -286.31590000 0.40379790
vt -286.31590000 1.01818500
vt -286.30880000 1.01818500
vt -286.30880000 0.40379790
vt -286.29710000 0.37802310
vt -286.29710000 0.38507070
vt -286.14950000 0.37802310
vt -286.14950000 0.38507070
vt -286.07180000 0.38520120
vt -286.07180000 0.37815660
vt -286.21930000 0.38520120
vt -286.21940000 0.37815660
vt -286.51260000 0.65567790
vt -286.52130000 0.63375670
vt -286.52130000 0.65273550
vt -286.51260000 0.63372740
vt -286.50400000 0.65273550
vt -286.50400000 0.63375670
vt -286.51260000 0.48495970
vt -286.52130000 0.48498900
vt -286.50400000 0.48498900
vt -286.25280000 0.40300280
vt -286.25280000 1.01905000
vt -286.24580000 1.01905000
vt -286.24580000 0.40300280
vt -286.50550000 0.39301900
vt -286.50550000 0.98919700
vt -286.49710000 0.98919700
vt -286.49710000 0.39301900
vt -286.48880000 0.98919700
vt -286.48880000 0.39301900
vt -286.50930000 0.40238790
vt -286.50930000 1.01971900
vt -286.50230000 1.01971900
vt -286.50230000 0.40238790
vt -286.49040000 0.37648960
vt -286.49040000 0.38357090
vt -286.34210000 0.37648960
vt -286.34220000 0.38357090
vt -286.26460000 0.38422490
vt -286.26470000 0.37715830
vt -286.41260000 0.38422490
vt -286.41260000 0.37715830
vt -286.52810000 0.65574200
vt -286.53680000 0.63380450
vt -286.53680000 0.65279760
vt -286.52810000 0.63377520
vt -286.51940000 0.65279760
vt -286.51940000 0.63380450
vt -286.52810000 0.48489540
vt -286.53680000 0.48492470
vt -286.51940000 0.48492470
vt -286.06840000 0.41275330
vt -286.06750000 1.00947800
vt -286.05460000 1.00947800
vt -286.05550000 0.41784550
vt -286.05750000 0.39976150
vt -286.04850000 0.40905530
vt -286.04480000 0.39077950
vt -286.03570000 0.39981560
vt -286.06160000 1.00951700
vt -286.07360000 0.41787760
vt -286.07450000 1.00951700
vt -286.06080000 0.41235530
vt -286.08110000 0.40966240
vt -286.07220000 0.40035720
vt -286.08260000 0.39069720
vt -286.09160000 0.39962660
vt -286.02670000 0.28509530
vt -286.02460000 1.20929300
vt -286.01400000 1.20151000
vt -286.01620000 0.29278280
vt -286.00060000 1.15506500
vt -285.98790000 1.15672300
vt -285.98790000 0.34676140
vt -286.00060000 0.34841970
vt -286.11340000 0.63893290
vt -286.73440000 0.64073310
vt -286.73940000 0.65165250
vt -286.10870000 0.65000950
vt -286.75850000 0.63844050
vt -286.09780000 0.62956960
vt -286.75000000 0.62956990
vt -286.08960000 0.63861320
vt -286.83480000 0.49864100
vt -286.02370000 0.49305920
vt -286.82420000 0.49305920
vt -286.01300000 0.49864100
vt -286.84210000 0.47134450
vt -286.01700000 0.46794290
vt -286.83090000 0.46794280
vt -286.00570000 0.47134460
vt -286.84100000 -0.23502140
vt -286.01700000 -0.22844670
vt -286.83090000 -0.22844670
vt -286.00680000 -0.23488280
vt -286.81850000 -0.25565670
vt -286.03530000 -0.24682490
vt -286.81250000 -0.24502480
vt -286.02920000 -0.25733390
vt -286.48200000 -0.24098350
vt -287.10790000 -0.25370120
vt -287.10300000 -0.24278350
vt -286.47730000 -0.25205850
vt -287.12700000 -0.24049130
vt -286.46650000 -0.23162180
vt -287.11860000 -0.23162210
vt -286.45820000 -0.24066390
vt -287.20340000 -0.10071400
vt -286.39230000 -0.09513319
vt -287.19270000 -0.09513319
vt -286.38170000 -0.10071400
vt -287.21060000 -0.07342207
vt -286.38560000 -0.07002085
vt -287.19940000 -0.07002079
vt -286.37440000 -0.07342207
vt -287.20940000 0.63283110
vt -286.38560000 0.62625740
vt -287.19940000 0.62625740
vt -286.37540000 0.63269260
vt -287.18700000 0.65346310
vt -286.40400000 0.64463290
vt -287.18100000 0.64283290
vt -286.39790000 0.65514020
f 3/3/3 2/2/2 1/1/1
f 4/4/4 3/3/3 1/1/1
f 7/7/7 6/6/6 5/5/5
f 10/10/10 9/9/9 8/8/8
f 13/13/13 12/12/12 11/11/11
f 16/16/16 15/15/15 14/14/14
f 17/17/17 16/16/16 14/14/14
f 14/14/14 18/18/18 17/17/17
f 16/16/16 17/17/17 19/19/19
f 20/20/20 16/16/16 19/19/19
f 18/18/18 21/21/21 17/17/17
f 18/18/18 22/22/22 21/21/21
f 21/21/21 23/23/23 17/17/17
f 23/23/23 19/19/19 17/17/17
f 22/22/22 24/24/24 21/21/21
f 21/21/21 24/24/24 23/23/23
f 22/22/22 25/25/25 24/24/24
f 25/25/25 26/26/26 24/24/24
f 24/24/24 26/26/26 27/27/27
f 24/24/24 27/27/27 23/23/23
f 26/26/26 28/28/28 27/27/27
f 19/19/19 29/29/29 20/20/20
f 29/29/29 30/30/30 20/20/20
f 30/30/30 29/29/29 31/31/31
f 29/29/29 32/32/32 31/31/31
f 23/23/23 33/33/33 19/19/19
f 33/33/33 29/29/29 19/19/19
f 29/29/29 33/33/33 32/32/32
f 23/23/23 27/27/27 33/33/33
f 33/33/33 34/34/34 32/32/32
f 27/27/27 28/28/28 35/35/35
f 27/27/27 35/35/35 33/33/33
f 34/34/34 33/33/33 35/35/35
f 28/28/28 36/36/36 35/35/35
f 37/37/37 34/34/34 35/35/35
f 37/37/37 35/35/35 36/36/36
f 38/38/38 37/37/37 36/36/36
f 41/41/41 40/40/40 39/39/39
f 42/42/42 41/41/41 39/39/39
f 45/45/45 44/44/44 43/43/43
f 44/44/44 46/46/46 43/43/43
f 43/43/43 46/46/46 47/47/47
f 46/46/46 48/48/48 47/47/47
f 47/47/47 48/48/48 49/49/49
f 48/48/48 50/50/50 49/49/49
f 53/53/53 52/52/52 51/51/51
f 54/54/54 53/53/53 51/51/51
f 57/57/57 56/56/56 55/55/55
f 56/56/56 58/58/58 55/55/55
f 55/55/55 58/58/58 59/59/59
f 58/58/58 60/60/60 59/59/59
f 59/59/59 60/60/60 61/61/61
f 60/60/60 62/62/62 61/61/61
f 65/65/65 64/64/64 63/63/63
f 66/66/66 65/65/65 63/63/63
f 67/67/67 56/56/56 57/57/57
f 68/68/68 67/67/67 57/57/57
f 71/71/71 70/70/70 69/69/69
f 72/72/72 71/71/71 69/69/69
f 50/50/50 74/74/74 73/73/73
f 49/49/49 50/50/50 73/73/73
f 77/77/77 76/76/76 75/75/75
f 78/78/78 77/77/77 75/75/75
f 79/79/79 77/77/77 78/78/78
f 80/80/80 79/79/79 78/78/78
f 81/81/81 79/79/79 80/80/80
f 82/82/82 81/81/81 80/80/80
f 83/83/83 81/81/81 82/82/82
f 84/84/84 83/83/83 82/82/82
f 87/87/87 86/86/86 85/85/85
f 88/88/88 87/87/87 85/85/85
f 91/91/91 90/90/90 89/89/89
f 90/90/90 92/92/92 89/89/89
f 89/89/89 92/92/92 93/93/93
f 92/92/92 94/94/94 93/93/93
f 93/93/93 94/94/94 95/95/95
f 94/94/94 96/96/96 95/95/95
f 95/95/95 96/96/96 97/97/97
f 96/96/96 98/98/98 97/97/97
f 101/101/101 100/100/100 99/99/99
f 102/102/102 101/101/101 99/99/99
f 105/105/105 104/104/104 103/103/103
f 106/106/106 105/105/105 103/103/103
f 109/109/109 108/108/108 107/107/107
f 110/110/110 109/109/109 107/107/107
f 113/113/113 112/112/112 111/111/111
f 114/114/114 113/113/113 111/111/111
f 114/114/114 111/111/111 115/115/115
f 113/113/113 114/114/114 116/116/116
f 117/117/117 114/114/114 115/115/115
f 117/117/117 115/115/115 118/118/118
f 114/114/114 119/119/119 116/116/116
f 114/114/114 117/117/117 119/119/119
f 120/120/120 117/117/117 118/118/118
f 120/120/120 118/118/118 121/121/121
f 122/122/122 120/120/120 121/121/121
f 120/120/120 122/122/122 123/123/123
f 124/124/124 120/120/120 123/123/123
f 117/117/117 120/120/120 125/125/125
f 120/120/120 124/124/124 125/125/125
f 117/117/117 125/125/125 119/119/119
f 125/125/125 124/124/124 126/126/126
f 119/119/119 127/127/127 116/116/116
f 119/119/119 125/125/125 127/127/127
f 125/125/125 126/126/126 127/127/127
f 127/127/127 128/128/128 116/116/116
f 128/128/128 127/127/127 129/129/129
f 127/127/127 130/130/130 129/129/129
f 130/130/130 127/127/127 126/126/126
f 131/131/131 130/130/130 126/126/126
f 131/131/131 126/126/126 132/132/132
f 133/133/133 131/131/131 132/132/132
f 124/124/124 132/132/132 126/126/126
f 134/134/134 132/132/132 124/124/124
f 123/123/123 134/134/134 124/124/124
f 132/132/132 134/134/134 133/133/133
f 134/134/134 135/135/135 133/133/133
f 138/138/138 137/137/137 136/136/136
f 139/139/139 138/138/138 136/136/136
f 142/142/142 141/141/141 140/140/140
f 142/142/142 143/143/143 141/141/141
f 143/143/143 144/144/144 141/141/141
f 145/145/145 142/142/142 140/140/140
f 145/145/145 140/140/140 146/146/146
f 147/147/147 145/145/145 146/146/146
f 147/147/147 146/146/146 148/148/148
f 149/149/149 147/147/147 148/148/148
f 148/148/148 150/150/150 149/149/149
f 150/150/150 151/151/151 149/149/149
f 150/150/150 152/152/152 151/151/151
f 152/152/152 153/153/153 151/151/151
f 152/152/152 154/154/154 153/153/153
f 146/146/146 140/140/140 155/155/155
f 156/156/156 146/146/146 155/155/155
f 148/148/148 146/146/146 156/156/156
f 155/155/155 140/140/140 157/157/157
f 158/158/158 148/148/148 156/156/156
f 150/150/150 148/148/148 158/158/158
f 140/140/140 141/141/141 157/157/157
f 159/159/159 150/150/150 158/158/158
f 152/152/152 150/150/150 159/159/159
f 157/157/157 141/141/141 160/160/160
f 161/161/161 152/152/152 159/159/159
f 154/154/154 152/152/152 161/161/161
f 162/162/162 154/154/154 161/161/161
f 163/163/163 154/154/154 162/162/162
f 164/164/164 163/163/163 162/162/162
f 141/141/141 144/144/144 160/160/160
f 165/165/165 163/163/163 164/164/164
f 160/160/160 144/144/144 166/166/166
f 167/167/167 165/165/165 164/164/164
f 144/144/144 7/7/7 166/166/166
f 166/166/166 7/7/7 168/168/168
f 6/6/6 7/7/7 144/144/144
f 143/143/143 6/6/6 144/144/144
f 7/7/7 169/169/169 168/168/168
f 169/169/169 7/7/7 5/5/5
f 168/168/168 169/169/169 170/170/170
f 169/169/169 5/5/5 171/171/171
f 169/169/169 172/172/172 170/170/170
f 172/172/172 169/169/169 171/171/171
f 170/170/170 172/172/172 173/173/173
f 171/171/171 174/174/174 172/172/172
f 172/172/172 175/175/175 173/173/173
f 174/174/174 175/175/175 172/172/172
f 173/173/173 175/175/175 176/176/176
f 175/175/175 174/174/174 177/177/177
f 175/175/175 178/178/178 176/176/176
f 178/178/178 175/175/175 177/177/177
f 154/154/154 179/179/179 153/153/153
f 154/154/154 163/163/163 179/179/179
f 163/163/163 180/180/180 179/179/179
f 163/163/163 165/165/165 180/180/180
f 183/183/183 182/182/182 181/181/181
f 182/182/182 184/184/184 181/181/181
f 181/181/181 184/184/184 185/185/185
f 186/186/186 181/181/181 185/185/185
f 185/185/185 184/184/184 187/187/187
f 188/188/188 181/181/181 186/186/186
f 184/184/184 189/189/189 187/187/187
f 190/190/190 188/188/188 186/186/186
f 187/187/187 189/189/189 191/191/191
f 192/192/192 188/188/188 190/190/190
f 189/189/189 193/193/193 191/191/191
f 191/191/191 193/193/193 194/194/194
f 193/193/193 195/195/195 194/194/194
f 196/196/196 192/192/192 190/190/190
f 197/197/197 192/192/192 196/196/196
f 198/198/198 197/197/197 196/196/196
f 199/199/199 197/197/197 198/198/198
f 200/200/200 199/199/199 198/198/198
f 201/201/201 199/199/199 200/200/200
f 202/202/202 201/201/201 200/200/200
f 203/203/203 201/201/201 202/202/202
f 204/204/204 203/203/203 202/202/202
f 205/205/205 203/203/203 204/204/204
f 206/206/206 205/205/205 204/204/204
f 137/137/137 205/205/205 206/206/206
f 205/205/205 137/137/137 207/207/207
f 137/137/137 138/138/138 207/207/207
f 208/208/208 137/137/137 206/206/206
f 136/136/136 137/137/137 208/208/208
f 209/209/209 136/136/136 208/208/208
f 210/210/210 136/136/136 209/209/209
f 139/139/139 136/136/136 210/210/210
f 211/211/211 210/210/210 209/209/209
f 212/212/212 139/139/139 210/210/210
f 213/213/213 210/210/210 211/211/211
f 210/210/210 213/213/213 212/212/212
f 213/213/213 9/9/9 212/212/212
f 214/214/214 213/213/213 211/211/211
f 9/9/9 213/213/213 8/8/8
f 8/8/8 213/213/213 214/214/214
f 215/215/215 8/8/8 214/214/214
f 218/218/218 217/217/217 216/216/216
f 217/217/217 219/219/219 216/216/216
f 219/219/219 217/217/217 220/220/220
f 221/221/221 219/219/219 220/220/220
f 221/221/221 220/220/220 222/222/222
f 223/223/223 221/221/221 222/222/222
f 222/222/222 224/224/224 223/223/223
f 224/224/224 225/225/225 223/223/223
f 224/224/224 226/226/226 225/225/225
f 226/226/226 227/227/227 225/225/225
f 226/226/226 228/228/228 227/227/227
f 228/228/228 229/229/229 227/227/227
f 228/228/228 230/230/230 229/229/229
f 230/230/230 231/231/231 229/229/229
f 234/234/234 233/233/233 232/232/232
f 233/233/233 235/235/235 232/232/232
f 235/235/235 233/233/233 236/236/236
f 165/165/165 237/237/237 180/180/180
f 237/237/237 165/165/165 238/238/238
f 238/238/238 165/165/165 167/167/167
f 239/239/239 237/237/237 238/238/238
f 240/240/240 238/238/238 167/167/167
f 239/239/239 238/238/238 241/241/241
f 241/241/241 238/238/238 240/240/240
f 242/242/242 239/239/239 241/241/241
f 243/243/243 241/241/241 240/240/240
f 246/246/246 245/245/245 244/244/244
f 245/245/245 236/236/236 244/244/244
f 245/245/245 235/235/235 236/236/236
f 244/244/244 236/236/236 247/247/247
f 248/248/248 244/244/244 247/247/247
f 236/236/236 233/233/233 247/247/247
f 233/233/233 249/249/249 247/247/247
f 249/249/249 233/233/233 234/234/234
f 250/250/250 249/249/249 234/234/234
f 251/251/251 250/250/250 234/234/234
f 252/252/252 251/251/251 234/234/234
f 251/251/251 252/252/252 253/253/253
f 252/252/252 254/254/254 253/253/253
f 256/256/256 223/223/223 255/255/255
f 223/223/223 225/225/225 255/255/255
f 255/255/255 225/225/225 227/227/227
f 257/257/257 255/255/255 227/227/227
f 227/227/227 229/229/229 257/257/257
f 229/229/229 258/258/258 257/257/257
f 259/259/259 258/258/258 229/229/229
f 231/231/231 259/259/259 229/229/229
f 223/223/223 256/256/256 260/260/260
f 221/221/221 223/223/223 260/260/260
f 260/260/260 261/261/261 221/221/221
f 261/261/261 219/219/219 221/221/221
f 264/264/264 263/263/263 262/262/262
f 263/263/263 265/265/265 262/262/262
f 265/265/265 266/266/266 262/262/262
f 266/266/266 267/267/267 262/262/262
f 266/266/266 268/268/268 267/267/267
f 268/268/268 269/269/269 267/267/267
f 269/269/269 268/268/268 270/270/270
f 268/268/268 271/271/271 270/270/270
f 270/270/270 271/271/271 272/272/272
f 271/271/271 273/273/273 272/272/272
f 276/276/276 275/275/275 274/274/274
f 275/275/275 277/277/277 274/274/274
f 274/274/274 277/277/277 278/278/278
f 275/275/275 279/279/279 277/277/277
f 277/277/277 280/280/280 278/278/278
f 278/278/278 280/280/280 281/281/281
f 279/279/279 282/282/282 277/277/277
f 277/277/277 282/282/282 280/280/280
f 279/279/279 283/283/283 282/282/282
f 280/280/280 284/284/284 281/281/281
f 281/281/281 284/284/284 285/285/285
f 284/284/284 286/286/286 285/285/285
f 283/283/283 287/287/287 282/282/282
f 283/283/283 288/288/288 287/287/287
f 288/288/288 289/289/289 287/287/287
f 282/282/282 290/290/290 280/280/280
f 280/280/280 290/290/290 284/284/284
f 282/282/282 287/287/287 290/290/290
f 284/284/284 291/291/291 286/286/286
f 290/290/290 291/291/291 284/284/284
f 291/291/291 292/292/292 286/286/286
f 287/287/287 289/289/289 293/293/293
f 287/287/287 293/293/293 290/290/290
f 290/290/290 293/293/293 291/291/291
f 289/289/289 294/294/294 293/293/293
f 291/291/291 295/295/295 292/292/292
f 293/293/293 295/295/295 291/291/291
f 293/293/293 294/294/294 295/295/295
f 295/295/295 296/296/296 292/292/292
f 294/294/294 297/297/297 295/295/295
f 295/295/295 297/297/297 296/296/296
f 297/297/297 298/298/298 296/296/296
f 301/301/301 300/300/300 299/299/299
f 302/302/302 301/301/301 299/299/299
f 302/302/302 299/299/299 303/303/303
f 304/304/304 302/302/302 303/303/303
f 304/304/304 303/303/303 305/305/305
f 306/306/306 304/304/304 305/305/305
f 306/306/306 305/305/305 307/307/307
f 308/308/308 306/306/306 307/307/307
f 12/12/12 309/309/309 11/11/11
f 309/309/309 310/310/310 11/11/11
f 309/309/309 311/311/311 310/310/310
f 311/311/311 312/312/312 310/310/310
f 312/312/312 311/311/311 313/313/313
f 314/314/314 312/312/312 313/313/313
f 314/314/314 313/313/313 315/315/315
f 316/316/316 314/314/314 315/315/315
f 316/316/316 315/315/315 317/317/317
f 320/320/320 319/319/319 318/318/318
f 321/321/321 320/320/320 318/318/318
f 321/321/321 318/318/318 322/322/322
f 323/323/323 321/321/321 322/322/322
f 323/323/323 322/322/322 324/324/324
f 325/325/325 323/323/323 324/324/324
f 325/325/325 324/324/324 326/326/326
f 327/327/327 325/325/325 326/326/326
f 330/330/330 329/329/329 328/328/328
f 328/328/328 331/331/331 330/330/330
f 331/331/331 332/332/332 330/330/330
f 331/331/331 333/333/333 332/332/332
f 333/333/333 334/334/334 332/332/332
f 334/334/334 333/333/333 335/335/335
f 336/336/336 334/334/334 335/335/335
f 336/336/336 335/335/335 337/337/337
f 338/338/338 336/336/336 337/337/337
f 339/339/339 338/338/338 337/337/337
f 342/342/342 341/341/341 340/340/340
f 342/342/342 340/340/340 343/343/343
f 340/340/340 344/344/344 343/343/343
f 342/342/342 343/343/343 345/345/345
f 340/340/340 346/346/346 344/344/344
f 346/346/346 347/347/347 344/344/344
f 346/346/346 348/348/348 347/347/347
f 348/348/348 349/349/349 347/347/347
f 350/350/350 342/342/342 345/345/345
f 350/350/350 345/345/345 351/351/351
f 352/352/352 350/350/350 351/351/351
f 350/350/350 352/352/352 353/353/353
f 352/352/352 351/351/351 354/354/354
f 355/355/355 352/352/352 354/354/354
f 355/355/355 354/354/354 356/356/356
f 357/357/357 355/355/355 356/356/356
f 357/357/357 356/356/356 358/358/358
f 359/359/359 357/357/357 358/358/358
f 359/359/359 358/358/358 360/360/360
f 361/361/361 359/359/359 360/360/360
f 361/361/361 360/360/360 362/362/362
f 363/363/363 361/361/361 362/362/362
f 363/363/363 362/362/362 364/364/364
f 365/365/365 363/363/363 364/364/364
f 365/365/365 364/364/364 366/366/366
f 367/367/367 365/365/365 366/366/366
f 367/367/367 366/366/366 368/368/368
f 369/369/369 367/367/367 368/368/368
f 369/369/369 368/368/368 370/370/370
f 369/369/369 371/371/371 367/367/367
f 371/371/371 372/372/372 367/367/367
f 373/373/373 369/369/369 370/370/370
f 373/373/373 370/370/370 374/374/374
f 375/375/375 373/373/373 374/374/374
f 375/375/375 374/374/374 376/376/376
f 377/377/377 375/375/375 376/376/376
f 380/380/380 379/379/379 378/378/378
f 379/379/379 381/381/381 378/378/378
f 382/382/382 378/378/378 381/381/381
f 383/383/383 382/382/382 381/381/381
f 384/384/384 382/382/382 383/383/383
f 385/385/385 384/384/384 383/383/383
f 386/386/386 384/384/384 385/385/385
f 387/387/387 386/386/386 385/385/385
f 388/388/388 386/386/386 387/387/387
f 389/389/389 388/388/388 387/387/387
f 390/390/390 388/388/388 389/389/389
f 391/391/391 390/390/390 389/389/389
f 390/390/390 391/391/391 392/392/392
f 391/391/391 393/393/393 392/392/392
f 392/392/392 393/393/393 394/394/394
f 393/393/393 395/395/395 394/394/394
f 396/396/396 379/379/379 380/380/380
f 397/397/397 396/396/396 380/380/380
f 398/398/398 396/396/396 397/397/397
f 399/399/399 398/398/398 397/397/397
f 400/400/400 398/398/398 399/399/399
f 401/401/401 400/400/400 399/399/399
f 402/402/402 400/400/400 401/401/401
f 403/403/403 402/402/402 401/401/401
f 402/402/402 403/403/403 404/404/404
f 403/403/403 405/405/405 404/404/404
f 404/404/404 405/405/405 406/406/406
f 405/405/405 407/407/407 406/406/406
f 408/408/408 406/406/406 407/407/407
f 409/409/409 408/408/408 407/407/407
f 408/408/408 409/409/409 410/410/410
f 409/409/409 411/411/411 410/410/410
f 411/411/411 409/409/409 412/412/412
f 409/409/409 413/413/413 412/412/412
f 409/409/409 407/407/407 413/413/413
f 407/407/407 414/414/414 413/413/413
f 407/407/407 405/405/405 414/414/414
f 405/405/405 415/415/415 414/414/414
f 405/405/405 403/403/403 415/415/415
f 403/403/403 416/416/416 415/415/415
f 403/403/403 401/401/401 416/416/416
f 401/401/401 417/417/417 416/416/416
f 401/401/401 399/399/399 417/417/417
f 399/399/399 418/418/418 417/417/417
f 399/399/399 397/397/397 418/418/418
f 397/397/397 419/419/419 418/418/418
f 397/397/397 380/380/380 419/419/419
f 380/380/380 420/420/420 419/419/419
f 380/380/380 378/378/378 420/420/420
f 378/378/378 421/421/421 420/420/420
f 378/378/378 382/382/382 421/421/421
f 382/382/382 422/422/422 421/421/421
f 382/382/382 384/384/384 422/422/422
f 384/384/384 423/423/423 422/422/422
f 384/384/384 386/386/386 423/423/423
f 386/386/386 424/424/424 423/423/423
f 386/386/386 388/388/388 424/424/424
f 388/388/388 425/425/425 424/424/424
f 388/388/388 390/390/390 425/425/425
f 390/390/390 426/426/426 425/425/425
f 390/390/390 392/392/392 426/426/426
f 392/392/392 427/427/427 426/426/426
f 392/392/392 394/394/394 427/427/427
f 394/394/394 428/428/428 427/427/427
f 431/431/431 430/430/430 429/429/429
f 430/430/430 432/432/432 429/429/429
f 433/433/433 429/429/429 432/432/432
f 434/434/434 433/433/433 432/432/432
f 435/435/435 433/433/433 434/434/434
f 436/436/436 435/435/435 434/434/434
f 435/435/435 436/436/436 437/437/437
f 436/436/436 438/438/438 437/437/437
f 439/439/439 430/430/430 431/431/431
f 440/440/440 439/439/439 431/431/431
f 441/441/441 439/439/439 440/440/440
f 431/431/431 442/442/442 440/440/440
f 431/431/431 429/429/429 442/442/442
f 442/442/442 443/443/443 440/440/440
f 444/444/444 441/441/441 440/440/440
f 444/444/444 440/440/440 443/443/443
f 445/445/445 441/441/441 444/444/444
f 446/446/446 444/444/444 443/443/443
f 447/447/447 445/445/445 444/444/444
f 446/446/446 448/448/448 444/444/444
f 448/448/448 447/447/447 444/444/444
f 450/450/450 449/449/449 348/348/348
f 346/346/346 450/450/450 348/348/348
f 450/450/450 346/346/346 451/451/451
f 346/346/346 340/340/340 451/451/451
f 341/341/341 451/451/451 340/340/340
f 452/452/452 341/341/341 342/342/342
f 350/350/350 452/452/452 342/342/342
f 452/452/452 350/350/350 353/353/353
f 455/455/455 454/454/454 453/453/453
f 454/454/454 456/456/456 453/453/453
f 454/454/454 457/457/457 456/456/456
f 457/457/457 458/458/458 456/456/456
f 458/458/458 459/459/459 456/456/456
f 459/459/459 460/460/460 456/456/456
f 460/460/460 459/459/459 461/461/461
f 462/462/462 460/460/460 461/461/461
f 457/457/457 454/454/454 463/463/463
f 454/454/454 464/464/464 463/463/463
f 464/464/464 465/465/465 463/463/463
f 465/465/465 466/466/466 463/463/463
f 468/468/468 467/467/467 465/465/465
f 464/464/464 468/468/468 465/465/465
f 455/455/455 468/468/468 464/464/464
f 454/454/454 455/455/455 464/464/464
f 429/429/429 469/469/469 442/442/442
f 469/469/469 429/429/429 470/470/470
f 429/429/429 433/433/433 470/470/470
f 471/471/471 470/470/470 433/433/433
f 435/435/435 471/471/471 433/433/433
f 474/474/474 473/473/473 472/472/472
f 475/475/475 474/474/474 472/472/472
f 476/476/476 475/475/475 472/472/472
f 477/477/477 476/476/476 472/472/472
f 478/478/478 476/476/476 477/477/477
f 479/479/479 478/478/478 477/477/477
f 478/478/478 479/479/479 480/480/480
f 481/481/481 478/478/478 480/480/480
f 481/481/481 480/480/480 482/482/482
f 483/483/483 481/481/481 482/482/482
f 486/486/486 485/485/485 484/484/484
f 487/487/487 486/486/486 484/484/484
f 490/490/490 489/489/489 488/488/488
f 489/489/489 491/491/491 488/488/488
f 488/488/488 491/491/491 492/492/492
f 491/491/491 493/493/493 492/492/492
f 492/492/492 493/493/493 494/494/494
f 493/493/493 495/495/495 494/494/494
f 498/498/498 497/497/497 496/496/496
f 499/499/499 498/498/498 496/496/496
f 499/499/499 496/496/496 500/500/500
f 499/499/499 500/500/500 501/501/501
f 496/496/496 502/502/502 500/500/500
f 503/503/503 499/499/499 501/501/501
f 496/496/496 504/504/504 502/502/502
f 503/503/503 501/501/501 505/505/505
f 504/504/504 506/506/506 502/502/502
f 507/507/507 503/503/503 505/505/505
f 504/504/504 508/508/508 506/506/506
f 507/507/507 505/505/505 509/509/509
f 508/508/508 510/510/510 506/506/506
f 511/511/511 507/507/507 509/509/509
f 508/508/508 512/512/512 510/510/510
f 511/511/511 509/509/509 513/513/513
f 512/512/512 514/514/514 510/510/510
f 515/515/515 511/511/511 513/513/513
f 512/512/512 516/516/516 514/514/514
f 515/515/515 513/513/513 517/517/517
f 516/516/516 518/518/518 514/514/514
f 519/519/519 515/515/515 517/517/517
f 516/516/516 520/520/520 518/518/518
f 519/519/519 517/517/517 521/521/521
f 520/520/520 521/521/521 518/518/518
f 520/520/520 519/519/519 521/521/521
f 524/524/524 523/523/523 522/522/522
f 523/523/523 525/525/525 522/522/522
f 522/522/522 525/525/525 526/526/526
f 525/525/525 527/527/527 526/526/526
f 526/526/526 527/527/527 528/528/528
f 527/527/527 529/529/529 528/528/528
f 531/531/531 530/530/530 503/503/503
f 507/507/507 531/531/531 503/503/503
f 532/532/532 523/523/523 524/524/524
f 533/533/533 532/532/532 524/524/524
f 536/536/536 535/535/535 534/534/534
f 537/537/537 536/536/536 534/534/534
f 495/495/495 539/539/539 538/538/538
f 494/494/494 495/495/495 538/538/538
f 541/541/541 540/540/540 539/539/539
f 495/495/495 541/541/541 539/539/539
f 542/542/542 541/541/541 495/495/495
f 493/493/493 542/542/542 495/495/495
f 543/543/543 542/542/542 493/493/493
f 491/491/491 543/543/543 493/493/493
f 544/544/544 543/543/543 491/491/491
f 489/489/489 544/544/544 491/491/491
f 546/546/546 545/545/545 535/535/535
f 536/536/536 546/546/546 535/535/535
f 532/532/532 547/547/547 523/523/523
f 547/547/547 548/548/548 523/523/523
f 523/523/523 548/548/548 525/525/525
f 548/548/548 549/549/549 525/525/525
f 525/525/525 549/549/549 527/527/527
f 549/549/549 550/550/550 527/527/527
f 527/527/527 550/550/550 529/529/529
f 550/550/550 551/551/551 529/529/529
f 554/554/554 553/553/553 552/552/552
f 553/553/553 555/555/555 552/552/552
f 555/555/555 553/553/553 556/556/556
f 556/556/556 553/553/553 557/557/557
f 558/558/558 555/555/555 556/556/556
f 553/553/553 559/559/559 557/557/557
f 557/557/557 559/559/559 560/560/560
f 559/559/559 561/561/561 560/560/560
f 560/560/560 561/561/561 562/562/562
f 561/561/561 563/563/563 562/562/562
f 562/562/562 563/563/563 564/564/564
f 563/563/563 565/565/565 564/564/564
f 564/564/564 565/565/565 566/566/566
f 565/565/565 567/567/567 566/566/566
f 566/566/566 567/567/567 568/568/568
f 567/567/567 569/569/569 568/568/568
f 568/568/568 569/569/569 570/570/570
f 569/569/569 571/571/571 570/570/570
f 570/570/570 571/571/571 572/572/572
f 571/571/571 573/573/573 572/572/572
f 572/572/572 573/573/573 574/574/574
f 573/573/573 575/575/575 574/574/574
f 574/574/574 575/575/575 576/576/576
f 575/575/575 577/577/577 576/576/576
f 576/576/576 577/577/577 558/558/558
f 577/577/577 555/555/555 558/558/558
f 577/577/577 575/575/575 578/578/578
f 579/579/579 577/577/577 578/578/578
f 581/581/581 580/580/580 485/485/485
f 486/486/486 581/581/581 485/485/485
f 584/584/584 583/583/583 582/582/582
f 585/585/585 584/584/584 582/582/582
f 588/588/588 587/587/587 586/586/586
f 589/589/589 588/588/588 586/586/586
f 590/590/590 588/588/588 589/589/589
f 591/591/591 590/590/590 589/589/589
f 594/594/594 593/593/593 592/592/592
f 595/595/595 594/594/594 592/592/592
f 592/592/592 596/596/596 595/595/595
f 596/596/596 597/597/597 595/595/595
f 596/596/596 598/598/598 597/597/597
f 598/598/598 599/599/599 597/597/597
f 582/582/582 600/600/600 585/585/585
f 600/600/600 601/601/601 585/585/585
f 600/600/600 602/602/602 601/601/601
f 602/602/602 603/603/603 601/601/601
f 606/606/606 605/605/605 604/604/604
f 605/605/605 607/607/607 604/604/604
f 604/604/604 607/607/607 608/608/608
f 607/607/607 609/609/609 608/608/608
f 611/611/611 610/610/610 607/607/607
f 605/605/605 611/611/611 607/607/607
f 610/610/610 612/612/612 609/609/609
f 607/607/607 610/610/610 609/609/609
f 615/615/615 614/614/614 613/613/613
f 616/616/616 615/615/615 613/613/613
f 619/619/619 618/618/618 617/617/617
f 620/620/620 619/619/619 617/617/617
f 621/621/621 619/619/619 620/620/620
f 622/622/622 621/621/621 620/620/620
f 625/625/625 624/624/624 623/623/623
f 626/626/626 625/625/625 623/623/623
f 623/623/623 627/627/627 626/626/626
f 627/627/627 628/628/628 626/626/626
f 627/627/627 629/629/629 628/628/628
f 629/629/629 630/630/630 628/628/628
f 613/613/613 631/631/631 616/616/616
f 631/631/631 632/632/632 616/616/616
f 631/631/631 633/633/633 632/632/632
f 633/633/633 634/634/634 632/632/632
f 637/637/637 636/636/636 635/635/635
f 636/636/636 638/638/638 635/635/635
f 635/635/635 638/638/638 639/639/639
f 638/638/638 640/640/640 639/639/639
f 642/642/642 641/641/641 638/638/638
f 636/636/636 642/642/642 638/638/638
f 641/641/641 643/643/643 640/640/640
f 638/638/638 641/641/641 640/640/640
f 646/646/646 645/645/645 644/644/644
f 647/647/647 646/646/646 644/644/644
f 644/644/644 648/648/648 647/647/647
f 648/648/648 649/649/649 647/647/647
f 649/649/649 648/648/648 650/650/650
f 651/651/651 649/649/649 650/650/650
f 654/654/654 653/653/653 652/652/652
f 653/653/653 655/655/655 652/652/652
f 653/653/653 656/656/656 655/655/655
f 656/656/656 657/657/657 655/655/655
f 659/659/659 658/658/658 657/657/657
f 656/656/656 659/659/659 657/657/657
f 662/662/662 661/661/661 660/660/660
f 663/663/663 662/662/662 660/660/660
f 666/666/666 665/665/665 664/664/664
f 667/667/667 666/666/666 664/664/664
f 670/670/670 669/669/669 668/668/668
f 671/671/671 670/670/670 668/668/668
f 670/670/670 672/672/672 669/669/669
f 671/671/671 668/668/668 673/673/673
f 672/672/672 674/674/674 669/669/669
f 675/675/675 671/671/671 673/673/673
f 672/672/672 676/676/676 674/674/674
f 675/675/675 673/673/673 677/677/677
f 676/676/676 678/678/678 674/674/674
f 679/679/679 675/675/675 677/677/677
f 676/676/676 680/680/680 678/678/678
f 679/679/679 677/677/677 681/681/681
f 680/680/680 682/682/682 678/678/678
f 683/683/683 679/679/679 681/681/681
f 680/680/680 684/684/684 682/682/682
f 683/683/683 681/681/681 685/685/685
f 684/684/684 686/686/686 682/682/682
f 687/687/687 683/683/683 685/685/685
f 684/684/684 688/688/688 686/686/686
f 687/687/687 685/685/685 689/689/689
f 688/688/688 690/690/690 686/686/686
f 691/691/691 687/687/687 689/689/689
f 691/691/691 689/689/689 690/690/690
f 688/688/688 691/691/691 690/690/690
f 694/694/694 693/693/693 692/692/692
f 693/693/693 695/695/695 692/692/692
f 696/696/696 693/693/693 694/694/694
f 692/692/692 695/695/695 697/697/697
f 698/698/698 696/696/696 694/694/694
f 695/695/695 699/699/699 697/697/697
f 700/700/700 696/696/696 698/698/698
f 697/697/697 699/699/699 701/701/701
f 702/702/702 700/700/700 698/698/698
f 699/699/699 703/703/703 701/701/701
f 704/704/704 700/700/700 702/702/702
f 701/701/701 703/703/703 705/705/705
f 706/706/706 704/704/704 702/702/702
f 703/703/703 707/707/707 705/705/705
f 708/708/708 704/704/704 706/706/706
f 705/705/705 707/707/707 709/709/709
f 710/710/710 708/708/708 706/706/706
f 707/707/707 711/711/711 709/709/709
f 712/712/712 708/708/708 710/710/710
f 709/709/709 711/711/711 713/713/713
f 714/714/714 712/712/712 710/710/710
f 711/711/711 715/715/715 713/713/713
f 715/715/715 712/712/712 714/714/714
f 713/713/713 715/715/715 714/714/714

