mtllib Floor_2aa6d2f9.mtl
g mesh_80e281f3
v -2.09999 -0.09999 -2
v -2.09999 -0.09999 3.4
v 1.9 -0.09999 3.4
v 1.9 -0.09999 -2
v -2.09999 0 -2
v -2.09999 -0.09999 -2
v 1.9 -0.09999 -2
v 1.9 0 -2
v 1.9 0 -2
v 1.9 -0.09999 -2
v 1.9 -0.09999 3.4
v 1.9 0 3.4
v 1.9 0 3.4
v 1.9 -0.09999 3.4
v -2.09999 -0.09999 3.4
v -2.09999 0 3.4
v -2.09999 0 3.4
v -2.09999 -0.09999 3.4
v -2.09999 -0.09999 -2
v -2.09999 0 -2
v -2.09999 0 -2
v 1.9 0 -2
v 1.9 0 3.4
v -2.09999 0 3.4
vn 0 -0.5773503 0
vn 0 -0.5773503 0
vn 0 -0.5773503 0
vn 0 -0.5773503 0
vn 0 0 -0.5773503
vn 0 0 -0.5773503
vn 0 0 -0.5773503
vn 0 0 -0.5773503
vn 0.5773503 0 0
vn 0.5773503 0 0
vn 0.5773503 0 0
vn 0.5773503 0 0
vn 0 0 0.5773503
vn 0 0 0.5773503
vn 0 0 0.5773503
vn 0 0 0.5773503
vn -0.5773503 0 0
vn -0.5773503 0 0
vn -0.5773503 0 0
vn -0.5773503 0 0
vn 0 0.5773503 0
vn 0 0.5773503 0
vn 0 0.5773503 0
vn 0 0.5773503 0
vt -0.4557632 -2.811887
vt -0.4557632 2.71767
vt 3.450517 2.71767
vt 3.450517 -2.811887
vt 1.686932 1.224547
vt 1.686932 0.9612351
vt 0.1678221 0.9612351
vt 0.1678221 1.224547
vt 0.8373774 -0.4885373
vt 0.8373774 -0.7456801
vt -1.262623 -0.7456801
vt -1.262623 -0.4885373
vt 1.686931 1.509547
vt 1.686931 1.246235
vt 0.1678227 1.246235
vt 0.1678227 1.509547
vt 0.8373769 -0.7735374
vt 0.8373769 -1.03068
vt -1.262622 -1.03068
vt -1.262622 -0.7735374
vt 1.455518 -2.241887
vt -2.450763 -2.241887
vt -2.450763 3.28767
vt 1.455518 3.28767
usemtl TexturesCom_Marble Floor Tiles 1_diffuse_S
f 3/3/3 2/2/2 1/1/1
f 4/4/4 3/3/3 1/1/1
f 7/7/7 6/6/6 5/5/5
f 8/8/8 7/7/7 5/5/5
f 11/11/11 10/10/10 9/9/9
f 12/12/12 11/11/11 9/9/9
f 15/15/15 14/14/14 13/13/13
f 16/16/16 15/15/15 13/13/13
f 19/19/19 18/18/18 17/17/17
f 20/20/20 19/19/19 17/17/17
f 23/23/23 22/22/22 21/21/21
f 24/24/24 23/23/23 21/21/21
