mtllib material.mtl
usemtl material_0
v 0.01891526 0.00303300 -0.01762958
v 0.02201755 0.00303184 -0.01361714
v 0.02166601 0.00338719 -0.01348007
v 0.02430430 0.00302451 -0.00910967
v 0.01861156 0.00338748 -0.01744012
v 0.01485368 0.00338732 -0.02073667
v 0.01796844 0.00449485 -0.01686831
v 0.01511239 0.00303235 -0.02097201
v 0.01072469 0.00303425 -0.02346988
v 0.02388960 0.00338534 -0.00900541
v 0.02520217 0.00338393 -0.00418632
v 0.02305593 0.00449485 -0.00870806
v 0.02565890 0.00301895 -0.00424875
v 0.02596514 0.00302309 0.00082381
v 0.02091801 0.00449485 -0.01304119
v 0.01970785 0.00592219 -0.01228674
v 0.01051981 0.00338780 -0.02322084
v 0.00578407 0.00338800 -0.02482432
v 0.01014555 0.00449485 -0.02246058
v 0.00592369 0.00303508 -0.02508719
v 0.00088206 0.00303123 -0.02578856
v 0.01433512 0.00449485 -0.02005349
v 0.01350585 0.00592219 -0.01889349
v 0.01692931 0.00592219 -0.01589272
v 0.01523304 0.00723658 -0.01430033
v 0.00082171 0.00338703 -0.02547947
v -0.00417218 0.00338592 -0.02516583
v 0.00077789 0.00449485 -0.02463332
v -0.00419269 0.00302683 -0.02551299
v -0.00909268 0.00302600 -0.02419967
v 0.00556989 0.00449485 -0.02401284
v 0.00524759 0.00592218 -0.02262379
v 0.00955858 0.00592219 -0.02116132
v 0.00860078 0.00723658 -0.01904105
v 0.01215278 0.00723658 -0.01700056
v 0.01033692 0.00839014 -0.01446044
v -0.00900137 0.00338571 -0.02386356
v -0.01348619 0.00338589 -0.02164797
v -0.00870808 0.00449485 -0.02305592
v -0.01364091 0.00302669 -0.02194444
v -0.01766078 0.00302689 -0.01884289
v -0.00404359 0.00449485 -0.02431631
v -0.00380955 0.00592218 -0.02290986
v 0.00073295 0.00592218 -0.02320848
v 0.00065957 0.00723658 -0.02088318
v 0.00472165 0.00723658 -0.02035695
v 0.00401647 0.00839014 -0.01731558
v 0.00731584 0.00839014 -0.01619619
v 0.00574706 0.00933500 -0.01272294
v -0.01304107 0.00449485 -0.02091806
v -0.01228689 0.00592218 -0.01970801
v -0.01686842 0.00449485 -0.01796843
v -0.00820453 0.00592218 -0.02172221
v -0.00738245 0.00723658 -0.01954582
v -0.00342799 0.00723658 -0.02061438
v -0.00291558 0.00839014 -0.01753451
v 0.00056109 0.00839014 -0.01776307
v 0.00044084 0.00933500 -0.01395376
v -0.01744813 0.00338594 -0.01859369
v -0.02074202 0.00338620 -0.01483065
v -0.02099216 0.00302794 -0.01502026
v -0.02347485 0.00303119 -0.01060170
v 0.00315491 0.00933500 -0.01360208
v 0.00221871 0.01002688 -0.00956614
v -0.02322230 0.00338702 -0.01048899
v -0.02481860 0.00338776 -0.00574878
v -0.02246069 0.00449485 -0.01014540
v -0.02506383 0.00303412 -0.00578205
v -0.02571369 0.00303426 -0.00075630
v -0.02005326 0.00449485 -0.01433518
v -0.01889358 0.00592218 -0.01350584
v -0.01589271 0.00592218 -0.01692906
v -0.01430035 0.00723658 -0.01523290
v -0.01105578 0.00723658 -0.01773343
v -0.00940380 0.00839014 -0.01508395
v -0.00627924 0.00839014 -0.01662559
v -0.00493269 0.00933500 -0.01306015
v -0.00229054 0.00933500 -0.01377406
v -0.00161095 0.01002688 -0.00968713
v 0.00031667 0.01001458 -0.01002169
v 0.00020649 0.01037228 -0.00653327
v -0.01216358 0.00839014 -0.01295703
v -0.01446055 0.00839014 -0.01033691
v -0.00955507 0.00933500 -0.01017836
v -0.00738705 0.00933500 -0.01184920
v -0.00519531 0.01002688 -0.00833337
v -0.00354284 0.01001458 -0.00937977
v -0.00230935 0.01037228 -0.00611491
v -0.00093563 0.01042148 -0.00562740
v 0.00000011 0.01070433 -0.00000006
v 0.00128887 0.01042147 -0.00555702
v 0.00269055 0.01037228 -0.00595680
v -0.00301802 0.01042147 -0.00484086
v -0.00447363 0.01037228 -0.00476561
v -0.00686261 0.01001458 -0.00731008
v -0.00798891 0.01002688 -0.00571083
v -0.00464095 0.01042147 -0.00331735
v -0.00595695 0.01037228 -0.00269072
v 0.00331744 0.01042148 -0.00464080
v 0.00571079 0.01002688 -0.00798890
v 0.00412749 0.01001458 -0.00913763
v -0.01135932 0.00933500 -0.00812019
v -0.01272275 0.00933500 -0.00574702
v -0.00913766 0.01001458 -0.00412747
v -0.00956628 0.01002688 -0.00221886
v 0.00476549 0.01037228 -0.00447373
v 0.00812010 0.00933501 -0.01135934
v 0.01017838 0.00933500 -0.00955517
v -0.00555710 0.01042147 -0.00128894
v 0.00731006 0.01001458 -0.00686251
v 0.00833333 0.01002688 -0.00519536
v 0.01295704 0.00839014 -0.01216371
v 0.01508375 0.00839014 -0.00940387
v -0.00653319 0.01037228 -0.00020631
v 0.00484091 0.01042147 -0.00301803
v 0.00611491 0.01037228 -0.00230958
v 0.01184923 0.00933501 -0.00738732
v 0.01306002 0.00933501 -0.00493266
v 0.01773358 0.00723658 -0.01105587
v 0.01954603 0.00723658 -0.00738243
v -0.00562746 0.01042147 0.00093583
v -0.00968732 0.01002688 0.00161094
v -0.00611470 0.01037228 0.00230945
v 0.00562728 0.01042148 -0.00093573
v 0.00968715 0.01002688 -0.00161084
v 0.00937970 0.01001458 -0.00354262
v 0.01662538 0.00839014 -0.00627926
v 0.01753458 0.00839014 -0.00291585
v 0.02172228 0.00592219 -0.00820435
v 0.02290977 0.00592219 -0.00380959
v 0.00653301 0.01037228 0.00020641
v 0.01377413 0.00933501 -0.00229048
v 0.01395377 0.00933501 0.00044060
v 0.02061447 0.00723658 -0.00342795
v 0.02088330 0.00723658 0.00065940
v 0.02431648 0.00449485 -0.00404357
v 0.02463353 0.00449485 0.00077782
v 0.01002172 0.01001458 0.00031641
v 0.00956649 0.01002688 0.00221874
v 0.01776283 0.00839014 0.00056105
v 0.01731551 0.00839014 0.00401632
v 0.02320866 0.00592219 0.00073282
v 0.02262393 0.00592219 0.00524750
v 0.02552357 0.00338498 0.00080701
v 0.02486977 0.00338698 0.00577205
v 0.02526706 0.00303099 0.00587528
v 0.02361024 0.00303669 0.01067208
v 0.01360227 0.00933501 0.00315493
v 0.01272297 0.00933501 0.00574690
v 0.02035703 0.00723658 0.00472182
v 0.01904126 0.00723658 0.00860084
v 0.02401293 0.00449485 0.00556967
v 0.02246052 0.00449485 0.01014550
v 0.02325599 0.00338842 0.01050667
v 0.02076166 0.00338974 0.01483550
v 0.02107188 0.00304192 0.01503994
v 0.01772992 0.00304841 0.01880415
v 0.01619609 0.00839014 0.00731592
v 0.01446038 0.00839014 0.01033700
v 0.02116129 0.00592219 0.00955867
v 0.01889341 0.00592219 0.01350593
v 0.02005348 0.00449485 0.01433506
v 0.01686825 0.00449485 0.01796853
v 0.01746508 0.00339138 0.01858378
v 0.01350738 0.00339220 0.02162804
v 0.01372585 0.00305165 0.02186656
v 0.00920256 0.00304712 0.02412716
v 0.01700035 0.00723658 0.01215277
v 0.01430018 0.00723658 0.01523300
v 0.01589254 0.00592219 0.01692916
v 0.01228672 0.00592219 0.01970810
v 0.01304129 0.00449485 0.02091794
v 0.00870830 0.00449485 0.02305581
v 0.00902859 0.00339105 0.02384541
v 0.00424193 0.00338870 0.02494229
v 0.00436539 0.00303783 0.02521970
v -0.00070162 0.00302677 0.02546472
v -0.00073466 0.00338591 0.02516062
v -0.00574055 0.00338428 0.02475784
v -0.00074964 0.00449485 0.02447382
v -0.00580100 0.00302031 0.02511903
v -0.01059109 0.00302479 0.02362316
v 0.00405818 0.00449485 0.02423367
v 0.00380977 0.00592219 0.02290974
v 0.00820436 0.00592219 0.02172231
v 0.00738228 0.00723658 0.01954592
v 0.01105560 0.00723658 0.01773352
v 0.00940402 0.00839014 0.01508383
v 0.01216380 0.00839014 0.01295691
v 0.00955529 0.00933501 0.01017824
v 0.01135954 0.00933501 0.00812007
v 0.00798873 0.01002688 0.00571093
v 0.00913749 0.01001458 0.00412756
v 0.00595677 0.01037228 0.00269082
v 0.00555693 0.01042148 0.00128904
v 0.00464077 0.01042148 0.00331745
v 0.00447384 0.01037228 0.00476549
v 0.00686244 0.01001458 0.00731017
v 0.00519553 0.01002688 0.00833325
v 0.00301784 0.01042148 0.00484096
v 0.00230957 0.01037228 0.00611479
v 0.00093584 0.01042148 0.00562728
v 0.00161077 0.01002688 0.00968723
v 0.00738727 0.00933501 0.01184908
v 0.00493290 0.00933501 0.01306004
v 0.00354267 0.01001458 0.00937987
v -0.00020628 0.01037228 0.00653314
v 0.00627945 0.00839014 0.01662548
v 0.00291579 0.00839014 0.01753439
v 0.00229037 0.00933501 0.01377416
v -0.00044062 0.00933501 0.01395364
v -0.00031646 0.01001458 0.01002157
v -0.00221889 0.01002688 0.00956624
v -0.00128905 0.01042147 0.00555711
v 0.00342782 0.00723658 0.02061447
v -0.00065936 0.00723658 0.02088306
v -0.00056088 0.00839014 0.01776295
v -0.00401625 0.00839014 0.01731546
v -0.00269074 0.01037228 0.00595689
v -0.00073221 0.00592219 0.02320499
v -0.00524776 0.00592219 0.02262389
v -0.00315508 0.00933501 0.01360218
v -0.00574685 0.00933501 0.01272281
v -0.00412767 0.01001458 0.00913772
v -0.00571096 0.01002688 0.00798900
v -0.00331762 0.01042148 0.00464089
v -0.00476567 0.01037228 0.00447383
v -0.00472182 0.00723658 0.02035705
v -0.00860096 0.00723658 0.01904114
v -0.00731602 0.00839014 0.01619628
v -0.01033671 0.00839014 0.01446032
v -0.00484070 0.01042148 0.00301791
v -0.00833351 0.01002688 0.00519546
v -0.00812028 0.00933501 0.01135943
v -0.01017817 0.00933501 0.00955505
v -0.00731023 0.01001458 0.00686261
v -0.00937987 0.01001458 0.00354271
v -0.01306020 0.00933500 0.00493275
v -0.01184902 0.00933501 0.00738719
v -0.01508392 0.00839014 0.00940396
v -0.01295683 0.00839014 0.01216358
v -0.01523283 0.00723658 0.01430021
v -0.01215257 0.00723658 0.01700043
v -0.01350603 0.00592219 0.01889358
v -0.00955876 0.00592219 0.02116142
v -0.01014534 0.00449485 0.02246046
v -0.00556566 0.00449485 0.02398864
v -0.01048642 0.00338541 0.02325836
v -0.01480860 0.00338737 0.02076307
v -0.01493297 0.00303255 0.02107748
v -0.01871101 0.00303591 0.01772111
v -0.01433491 0.00449485 0.02005336
v -0.01796862 0.00449485 0.01686841
v -0.01856033 0.00338822 0.01746306
v -0.02161057 0.00338831 0.01350372
v -0.02179583 0.00303628 0.01371103
v -0.02405213 0.00303504 0.00917365
v -0.01692911 0.00592219 0.01589260
v -0.01970803 0.00592219 0.01228683
v -0.02091819 0.00449485 0.01304129
v -0.02305611 0.00449485 0.00870816
v -0.02382622 0.00338800 0.00902136
v -0.02513446 0.00338769 0.00419685
v -0.02538835 0.00303382 0.00429053
v -0.01773337 0.00723658 0.01105575
v -0.01954583 0.00723658 0.00738230
v -0.02172245 0.00592219 0.00820444
v -0.02290994 0.00592219 0.00380969
v -0.02546056 0.00338780 -0.00079005
v -0.02463331 0.00449485 -0.00077794
v -0.02431626 0.00449485 0.00404345
v -0.01662555 0.00839014 0.00627936
v -0.01753437 0.00839014 0.00291573
v -0.02401271 0.00449485 -0.00556979
v -0.02262371 0.00592218 -0.00524763
v -0.02061425 0.00723658 0.00342783
v -0.02088309 0.00723658 -0.00065952
v -0.02320845 0.00592219 -0.00073294
v -0.01377392 0.00933501 0.00229035
v -0.01395356 0.00933500 -0.00044072
v -0.02116146 0.00592218 -0.00955857
v -0.01904105 0.00723658 -0.00860097
v -0.01776300 0.00839014 -0.00056096
v -0.01731568 0.00839014 -0.00401622
v -0.02035720 0.00723658 -0.00472172
v -0.01002150 0.01001458 -0.00031653
v -0.01360206 0.00933500 -0.00315505
v -0.01619626 0.00839014 -0.00731582
v -0.01700053 0.00723658 -0.01215268
vn 0.24078090 0.94452110 -0.22339340
vn 0.27071220 0.94803340 -0.16717540
vn 0.62181910 0.67769630 -0.39251580
vn 0.28380470 0.95295560 -0.10644520
vn 0.54394440 0.66335790 -0.51388790
vn 0.43813690 0.65252440 -0.61826210
vn 0.54679220 0.66113090 -0.51373550
vn 0.19631810 0.94228110 -0.27123000
vn 0.14472590 0.93783280 -0.31547410
vn 0.66772100 0.69876640 -0.25666000
vn 0.69295320 0.71159230 -0.11598460
vn 0.69800550 0.66549610 -0.26439210
vn 0.28991800 0.95584740 -0.04799125
vn 0.29701100 0.95482820 0.00935695
vn 0.63504780 0.66285350 -0.39666060
vn 0.51231460 0.79720380 -0.31937390
vn 0.31396170 0.63588080 -0.70504160
vn 0.17459380 0.62615540 -0.75989890
vn 0.30936890 0.65832510 -0.68622080
vn 0.08328558 0.93446090 -0.34618810
vn 0.01436400 0.93658530 -0.35014510
vn 0.43654190 0.66002070 -0.61139490
vn 0.35108220 0.79720490 -0.49112700
vn 0.44014220 0.79721890 -0.41317890
vn 0.30769540 0.90657920 -0.28885580
vn 0.02601579 0.63581720 -0.77140120
vn -0.12365190 0.65090300 -0.74902310
vn 0.02410285 0.65823760 -0.75242420
vn -0.05344463 0.94075420 -0.33485130
vn -0.11865070 0.94110000 -0.31662700
vn 0.17011850 0.65733490 -0.73414600
vn 0.13640350 0.79721120 -0.58808870
vn 0.24850710 0.79721710 -0.55017200
vn 0.17372230 0.90658440 -0.38461070
vn 0.24544560 0.90657850 -0.34332470
vn 0.17220190 0.95515050 -0.24090250
vn -0.26843320 0.65382390 -0.70743050
vn -0.40384780 0.64850400 -0.64525150
vn -0.26555100 0.66017760 -0.70260100
vn -0.18065510 0.93960830 -0.29068860
vn -0.23725230 0.93795010 -0.25290510
vn -0.12307170 0.65986130 -0.74123990
vn -0.09903837 0.79721060 -0.59552220
vn 0.01904732 0.79722060 -0.60338750
vn 0.01332565 0.90658500 -0.42181290
vn 0.09535494 0.90657860 -0.41112360
vn 0.06690469 0.95515410 -0.28845190
vn 0.12188810 0.95515250 -0.26986490
vn 0.08469822 0.97860000 -0.18753180
vn -0.39777340 0.65965940 -0.63767210
vn -0.31937390 0.79720380 -0.51231470
vn -0.51492080 0.65896350 -0.54829150
vn -0.21330150 0.79722000 -0.56475010
vn -0.14912020 0.90657790 -0.39481590
vn -0.06924251 0.90658160 -0.41631150
vn -0.04857843 0.95514830 -0.29211630
vn 0.00934354 0.95515180 -0.29596940
vn 0.00649633 0.97860040 -0.20566730
vn -0.52554980 0.64206800 -0.55816310
vn -0.63305030 0.63026300 -0.44946170
vn -0.28839280 0.93531840 -0.20496140
vn -0.33725590 0.92934730 -0.15023940
vn 0.04659209 0.97851030 -0.20086500
vn 0.03014517 0.99106260 -0.12994680
vn -0.72437880 0.60865270 -0.32375520
vn -0.78594750 0.59100030 -0.18167330
vn -0.68825170 0.65574560 -0.31033440
vn -0.37153890 0.92457060 -0.08442844
vn -0.38021300 0.92483680 -0.01072900
vn -0.61295010 0.65781530 -0.43768840
vn -0.49112710 0.79720480 -0.35108230
vn -0.41317880 0.79721890 -0.44014230
vn -0.28885580 0.90657920 -0.30769560
vn -0.22327290 0.90657980 -0.35813720
vn -0.15665490 0.95514700 -0.25130360
vn -0.10463780 0.95515080 -0.27701620
vn -0.07271729 0.97860080 -0.19249110
vn -0.03382243 0.97850750 -0.20341810
vn -0.02187493 0.99106310 -0.13158760
vn 0.00429775 0.99066190 -0.13627410
vn 0.00265570 0.99644620 -0.08418933
vn -0.20265960 0.95515280 -0.21589880
vn -0.24090250 0.95515050 -0.17220210
vn -0.14083220 0.97859900 -0.15003460
vn -0.10909290 0.97850850 -0.17498510
vn -0.07057296 0.99106130 -0.11321250
vn -0.04817902 0.99065970 -0.12756200
vn -0.02977678 0.99644630 -0.07879171
vn -0.01092484 0.99778060 -0.06568491
vn 0.00000000 1.00000000 0.00000000
vn 0.01503955 0.99778180 -0.06484757
vn 0.03466968 0.99644740 -0.07674863
vn -0.03522327 0.99778110 -0.05650075
vn -0.05763780 0.99644640 -0.06142062
vn -0.09331861 0.99065880 -0.09943242
vn -0.10851120 0.99106370 -0.07757680
vn -0.05415642 0.99778120 -0.03872567
vn -0.07674858 0.99644740 -0.03466983
vn 0.03872553 0.99778120 -0.05415646
vn 0.07757663 0.99106370 -0.10851130
vn 0.05613526 0.99066030 -0.12426240
vn -0.16774950 0.97850810 -0.11992520
vn -0.18753180 0.97860000 -0.08469838
vn -0.12426230 0.99066030 -0.05613541
vn -0.12994670 0.99106260 -0.03014531
vn 0.06142047 0.99644640 -0.05763784
vn 0.11992500 0.97850810 -0.16774950
vn 0.15003440 0.97859900 -0.14083230
vn -0.06484753 0.99778180 -0.01503970
vn 0.09943225 0.99065880 -0.09331864
vn 0.11321240 0.99106130 -0.07057300
vn 0.21589860 0.95515290 -0.20265970
vn 0.25130330 0.95514710 -0.15665500
vn -0.08418930 0.99644620 -0.00265584
vn 0.05650061 0.99778110 -0.03522331
vn 0.07879156 0.99644630 -0.02977682
vn 0.17498500 0.97850850 -0.10909290
vn 0.19249090 0.97860080 -0.07271733
vn 0.35813700 0.90657990 -0.22327300
vn 0.39481580 0.90657800 -0.14912030
vn -0.06568487 0.99778060 0.01092470
vn -0.13158760 0.99106320 0.02187478
vn -0.07879166 0.99644630 0.02977663
vn 0.06568476 0.99778060 -0.01092488
vn 0.13158750 0.99106320 -0.02187497
vn 0.12756190 0.99065980 -0.04817907
vn 0.27701600 0.95515080 -0.10463780
vn 0.29211610 0.95514840 -0.04857846
vn 0.56475000 0.79722020 -0.21330160
vn 0.59552200 0.79721080 -0.09903841
vn 0.08418919 0.99644630 0.00265565
vn 0.20341800 0.97850760 -0.03382247
vn 0.20566720 0.97860040 0.00649629
vn 0.41631130 0.90658160 -0.06924257
vn 0.42181280 0.90658500 0.01332562
vn 0.73474040 0.66723080 -0.12230940
vn 0.74499990 0.66663780 0.02385704
vn 0.13627400 0.99066190 0.00429771
vn 0.12994660 0.99106260 0.03014512
vn 0.29596920 0.95515180 0.00934350
vn 0.28845170 0.95515420 0.06690465
vn 0.60338740 0.79722080 0.01904727
vn 0.58808850 0.79721130 0.13640340
vn 0.70593450 0.70786900 0.02404179
vn 0.69759240 0.69762160 0.16336780
vn 0.29546540 0.95289730 0.06846216
vn 0.28105150 0.95129900 0.12665040
vn 0.20086490 0.97851030 0.04659204
vn 0.18753170 0.97860010 0.08469818
vn 0.41112340 0.90657870 0.09535490
vn 0.38461050 0.90658450 0.17372220
vn 0.72728650 0.66520170 0.16900050
vn 0.68142240 0.66389760 0.30806420
vn 0.66064420 0.68825160 0.29976500
vn 0.59665920 0.67819010 0.42901750
vn 0.25507750 0.94977500 0.18128080
vn 0.22103590 0.94696180 0.23325190
vn 0.26986480 0.95515250 0.12188810
vn 0.24090240 0.95515050 0.17220190
vn 0.55017180 0.79721720 0.24850700
vn 0.49112690 0.79720500 0.35108210
vn 0.60904720 0.66267550 0.43580120
vn 0.51324170 0.66104610 0.54735820
vn 0.50953080 0.66419960 0.54700760
vn 0.39882650 0.65337320 0.64346000
vn 0.17548630 0.94432230 0.27831600
vn 0.11166760 0.94302520 0.31342270
vn 0.34332450 0.90657860 0.24544560
vn 0.28885570 0.90657920 0.30769540
vn 0.41317880 0.79721910 0.44014220
vn 0.31937380 0.79720400 0.51231450
vn 0.39728150 0.65990200 0.63772780
vn 0.26114470 0.65057080 0.71313470
vn 0.25694670 0.63836710 0.72557960
vn 0.10642950 0.60806650 0.78671970
vn 0.04666476 0.93476810 0.35218040
vn -0.00620662 0.93190440 0.36265110
vn -0.01486193 0.60556420 0.79565770
vn -0.14834980 0.64398880 0.75051370
vn -0.01964100 0.61400650 0.78905660
vn -0.06158817 0.94251720 0.32843330
vn -0.12851130 0.94501460 0.30071970
vn 0.11427230 0.62486600 0.77232400
vn 0.09722001 0.78915900 0.60644560
vn 0.21268110 0.79537010 0.56758520
vn 0.14912010 0.90657800 0.39481580
vn 0.22327280 0.90657990 0.35813700
vn 0.15665480 0.95514710 0.25130330
vn 0.20265950 0.95515290 0.21589860
vn 0.14083210 0.97859900 0.15003440
vn 0.16774930 0.97850810 0.11992500
vn 0.10851110 0.99106370 0.07757660
vn 0.12426220 0.99066030 0.05613522
vn 0.07674848 0.99644740 0.03466965
vn 0.06484742 0.99778180 0.01503951
vn 0.05415632 0.99778120 0.03872548
vn 0.05763768 0.99644640 0.06142043
vn 0.09331849 0.99065880 0.09943222
vn 0.07057286 0.99106130 0.11321230
vn 0.03522316 0.99778110 0.05650057
vn 0.02977668 0.99644630 0.07879152
vn 0.01092474 0.99778060 0.06568472
vn 0.02187483 0.99106320 0.13158750
vn 0.10909280 0.97850850 0.17498490
vn 0.07271718 0.97860080 0.19249090
vn 0.04817892 0.99065980 0.12756190
vn -0.00265580 0.99644630 0.08418915
vn 0.10463770 0.95515090 0.27701590
vn 0.04857831 0.95514840 0.29211610
vn 0.03382232 0.97850760 0.20341790
vn -0.00649644 0.97860040 0.20566720
vn -0.00429786 0.99066190 0.13627400
vn -0.03014528 0.99106260 0.12994660
vn -0.01503966 0.99778180 0.06484739
vn 0.06919760 0.90655270 0.41638180
vn -0.01333010 0.90651070 0.42197240
vn -0.00934364 0.95515180 0.29596920
vn -0.06692322 0.95515000 0.28846100
vn -0.03466979 0.99644740 0.07674844
vn -0.01840749 0.78626400 0.61761650
vn -0.13450810 0.79198660 0.59553740
vn -0.04659220 0.97851030 0.20086480
vn -0.08469833 0.97860010 0.18753160
vn -0.05613537 0.99066030 0.12426220
vn -0.07757674 0.99106370 0.10851110
vn -0.03872563 0.99778120 0.05415628
vn -0.06142058 0.99644640 0.05763765
vn -0.09532564 0.90654760 0.41119870
vn -0.17372240 0.90658450 0.38461040
vn -0.12188820 0.95515250 0.26986480
vn -0.17220210 0.95515050 0.24090230
vn -0.05650072 0.99778110 0.03522312
vn -0.11321250 0.99106130 0.07057282
vn -0.11992510 0.97850810 0.16774930
vn -0.15003450 0.97859900 0.14083210
vn -0.09943237 0.99065880 0.09331844
vn -0.12756200 0.99065970 0.04817887
vn -0.19249100 0.97860080 0.07271715
vn -0.17498510 0.97850850 0.10909280
vn -0.25130350 0.95514700 0.15665480
vn -0.21589870 0.95515290 0.20265940
vn -0.30769550 0.90657920 0.28885560
vn -0.24544570 0.90657860 0.34332450
vn -0.35108210 0.79720490 0.49112680
vn -0.24837900 0.79663480 0.55107250
vn -0.30781450 0.65666400 0.68850760
vn -0.16007030 0.63644210 0.75453220
vn -0.30472480 0.66275830 0.68402790
vn -0.44815590 0.64618120 0.61774270
vn -0.19604180 0.94037900 0.27794770
vn -0.25945220 0.93379850 0.24638350
vn -0.43781510 0.65940760 0.61114590
vn -0.55014140 0.65687190 0.51561980
vn -0.57474630 0.62060270 0.53340310
vn -0.67694350 0.60530700 0.41874910
vn -0.31130180 0.92960100 0.19731500
vn -0.34773340 0.92794070 0.13419210
vn -0.44014220 0.79721900 0.41317870
vn -0.51231460 0.79720400 0.31937380
vn -0.64106910 0.65544470 0.39927760
vn -0.70694550 0.65498130 0.26688490
vn -0.74854250 0.60051130 0.28119450
vn -0.79142400 0.59732840 0.12979580
vn -0.36887770 0.92732100 0.06328423
vn -0.35813720 0.90657990 0.22327280
vn -0.39481590 0.90657800 0.14912010
vn -0.56475010 0.79722010 0.21330140
vn -0.59552210 0.79721070 0.09903826
vn -0.80683780 0.59013800 -0.02738187
vn -0.75601770 0.65410760 -0.02409224
vn -0.74563760 0.65474770 0.12381470
vn -0.27701610 0.95515080 0.10463770
vn -0.29211620 0.95514830 0.04857827
vn -0.73679820 0.65419170 -0.17076740
vn -0.58808860 0.79721120 -0.13640360
vn -0.41631140 0.90658160 0.06924242
vn -0.42181290 0.90658500 -0.01332578
vn -0.60338750 0.79722060 -0.01904741
vn -0.20341810 0.97850750 0.03382228
vn -0.20566730 0.97860040 -0.00649648
vn -0.55017200 0.79721710 -0.24850720
vn -0.38461060 0.90658440 -0.17372240
vn -0.29596930 0.95515180 -0.00934370
vn -0.28845180 0.95515410 -0.06690484
vn -0.41112360 0.90657870 -0.09535509
vn -0.13627410 0.99066190 -0.00429790
vn -0.20086500 0.97851030 -0.04659224
vn -0.26986490 0.95515250 -0.12188830
vn -0.34332470 0.90657850 -0.24544580
vt 0.52324550 0.67407440
vt 0.55567370 0.66432630
vt 0.55429700 0.66221760
vt 0.58559470 0.64872340
vt 0.52233190 0.67186690
vt 0.48912230 0.67518130
vt 0.52105880 0.66626390
vt 0.48961420 0.67746470
vt 0.45608390 0.67399420
vt 0.58374740 0.64654770
vt 0.60958700 0.62546990
vt 0.58037350 0.64169490
vt 0.61182510 0.62758200
vt 0.63318190 0.60121790
vt 0.55193790 0.65692900
vt 0.54829490 0.64813410
vt 0.45593820 0.67184660
vt 0.42399170 0.66217020
vt 0.45685710 0.66626390
vt 0.42372880 0.66413840
vt 0.39362270 0.64837330
vt 0.48895800 0.66945650
vt 0.48895790 0.65993700
vt 0.51920190 0.65692900
vt 0.51617180 0.64169490
vt 0.39449460 0.64645930
vt 0.36858870 0.62536680
vt 0.39754250 0.64169490
vt 0.36713020 0.62717420
vt 0.34561560 0.60101670
vt 0.42597810 0.65692900
vt 0.42962110 0.64813410
vt 0.45871390 0.65692900
vt 0.46174420 0.64169490
vt 0.48895790 0.64440160
vt 0.48895790 0.62355600
vt 0.34741650 0.59954580
vt 0.33165960 0.57009840
vt 0.35214510 0.59629760
vt 0.32966830 0.57110800
vt 0.31987700 0.53865550
vt 0.37258630 0.62125380
vt 0.37931760 0.61452250
vt 0.40283030 0.63378130
vt 0.41145970 0.62086640
vt 0.43556620 0.63378120
vt 0.44354340 0.61452250
vt 0.46581020 0.62125380
vt 0.47077430 0.59629750
vt 0.33691100 0.56786200
vt 0.34570590 0.56421910
vt 0.32757610 0.53698290
vt 0.36005880 0.59100970
vt 0.37297360 0.58238040
vt 0.39030280 0.60353720
vt 0.40504290 0.58879720
vt 0.42303870 0.60353720
vt 0.43717520 0.58238040
vt 0.32199940 0.53812720
vt 0.31872000 0.50490130
vt 0.31662500 0.50495960
vt 0.32029570 0.47132100
vt 0.45328270 0.59100970
vt 0.46386790 0.56545470
vt 0.32210520 0.47168990
vt 0.33183890 0.43974550
vt 0.32757610 0.47278120
vt 0.33037810 0.43897460
vt 0.34636150 0.40915520
vt 0.32438350 0.50488210
vt 0.33390300 0.50488210
vt 0.33691100 0.53512610
vt 0.35214500 0.53209590
vt 0.36005880 0.55827390
vt 0.37931760 0.55029660
vt 0.39030280 0.57080130
vt 0.41145970 0.55666480
vt 0.42303870 0.57080130
vt 0.44259760 0.55124230
vt 0.45176740 0.56054160
vt 0.46471300 0.54116710
vt 0.37258630 0.52802990
vt 0.37028410 0.50488200
vt 0.39754250 0.52306570
vt 0.40283030 0.54055730
vt 0.42838530 0.52997210
vt 0.43329840 0.54207270
vt 0.45267290 0.52912690
vt 0.46202700 0.53181290
vt 0.48895790 0.50488200
vt 0.47438300 0.54006900
vt 0.48044420 0.54768320
vt 0.45377100 0.51945690
vt 0.44615680 0.51339570
vt 0.42330300 0.51794170
vt 0.42339450 0.50488200
vt 0.45087190 0.50488200
vt 0.44615680 0.49636840
vt 0.48895790 0.54296810
vt 0.48895790 0.57044540
vt 0.47589840 0.57053700
vt 0.39573400 0.50488200
vt 0.39754250 0.48669840
vt 0.42330290 0.49182250
vt 0.42838530 0.47979200
vt 0.49747160 0.54768320
vt 0.48895790 0.59810600
vt 0.50714160 0.59629750
vt 0.45377100 0.49030720
vt 0.50201760 0.57053700
vt 0.51404790 0.56545470
vt 0.51210570 0.62125380
vt 0.53437240 0.61452250
vt 0.45267290 0.48063710
vt 0.50353280 0.54006900
vt 0.51320280 0.54116710
vt 0.52463320 0.59100970
vt 0.54074060 0.58238040
vt 0.54234970 0.63378120
vt 0.56645620 0.62086640
vt 0.46202700 0.47795110
vt 0.44259760 0.45852180
vt 0.46471300 0.46859700
vt 0.51588890 0.53181290
vt 0.53531830 0.55124230
vt 0.52614850 0.56054160
vt 0.55487730 0.60353720
vt 0.57287310 0.58879720
vt 0.57508560 0.63378120
vt 0.59859840 0.61452250
vt 0.52524290 0.52912690
vt 0.55487730 0.57080130
vt 0.56645620 0.55666480
vt 0.58761310 0.60353720
vt 0.60494230 0.58238040
vt 0.60532960 0.62125380
vt 0.62577090 0.59629750
vt 0.54461750 0.54207270
vt 0.54953060 0.52997210
vt 0.58761310 0.57080130
vt 0.59859840 0.55029660
vt 0.61785720 0.59100970
vt 0.63221000 0.56421900
vt 0.63071930 0.59959660
vt 0.64644460 0.57008930
vt 0.64900370 0.57107250
vt 0.65862890 0.53858690
vt 0.57508560 0.54055730
vt 0.58037350 0.52306570
vt 0.61785720 0.55827380
vt 0.62577090 0.53209580
vt 0.64100500 0.56786200
vt 0.65033980 0.53698280
vt 0.65606260 0.53810980
vt 0.65932190 0.50491370
vt 0.66180110 0.50500900
vt 0.65826390 0.47158740
vt 0.60532960 0.52802980
vt 0.60763190 0.50488200
vt 0.64100500 0.53512600
vt 0.64401290 0.50488200
vt 0.65353240 0.50488200
vt 0.65033980 0.47278120
vt 0.65597050 0.47175720
vt 0.64629360 0.43985530
vt 0.64840680 0.43940930
vt 0.63261940 0.40956220
vt 0.62847740 0.50488200
vt 0.62577090 0.47766830
vt 0.64100490 0.47463800
vt 0.63221000 0.44554500
vt 0.64100490 0.44190210
vt 0.62577090 0.41346660
vt 0.63057700 0.41042350
vt 0.60948480 0.38452680
vt 0.61142100 0.38310550
vt 0.58533140 0.36109840
vt 0.58368080 0.36323010
vt 0.55426340 0.34737180
vt 0.58037330 0.36806910
vt 0.55554090 0.34474990
vt 0.52324040 0.33526880
vt 0.60532960 0.38851030
vt 0.59859840 0.39524160
vt 0.61785720 0.41875430
vt 0.60494230 0.42738380
vt 0.61785720 0.45149030
vt 0.59859840 0.45946750
vt 0.60532960 0.48173420
vt 0.58037350 0.48669830
vt 0.58218190 0.50488200
vt 0.55452130 0.50488200
vt 0.55461290 0.51794170
vt 0.53175900 0.51339570
vt 0.52414480 0.51945690
vt 0.52704390 0.50488200
vt 0.53175900 0.49636840
vt 0.55461290 0.49182250
vt 0.54953060 0.47979200
vt 0.52414480 0.49030710
vt 0.52524290 0.48063710
vt 0.51588890 0.47795110
vt 0.53531830 0.45852170
vt 0.57508560 0.46920680
vt 0.56645620 0.45309930
vt 0.54461750 0.46769150
vt 0.51320280 0.46859700
vt 0.58761310 0.43896270
vt 0.57287300 0.42096690
vt 0.55487720 0.43896270
vt 0.54074060 0.42738380
vt 0.52614850 0.44922240
vt 0.51404790 0.44430940
vt 0.50353280 0.46969510
vt 0.58761310 0.40622680
vt 0.56645620 0.38889760
vt 0.55487720 0.40622690
vt 0.53437240 0.39524160
vt 0.49747150 0.46208090
vt 0.57508560 0.37598280
vt 0.54829480 0.36162990
vt 0.52463320 0.41875440
vt 0.50714160 0.41346660
vt 0.50201750 0.43922700
vt 0.48895790 0.43931860
vt 0.48895790 0.46679600
vt 0.48044420 0.46208090
vt 0.54234970 0.37598280
vt 0.51617170 0.36806910
vt 0.51210560 0.38851030
vt 0.48895790 0.38620810
vt 0.47438300 0.46969510
vt 0.46386790 0.44430940
vt 0.48895790 0.41165810
vt 0.47077420 0.41346660
vt 0.47589840 0.43922700
vt 0.45176730 0.44922240
vt 0.43717520 0.42738380
vt 0.45328260 0.41875440
vt 0.44354330 0.39524170
vt 0.46581010 0.38851030
vt 0.46174410 0.36806910
vt 0.48895790 0.36536250
vt 0.48895790 0.34982710
vt 0.51920190 0.35283500
vt 0.52105870 0.34350020
vt 0.55193780 0.35283500
vt 0.52233050 0.33779010
vt 0.48914050 0.33461360
vt 0.48968630 0.33242410
vt 0.45613460 0.33598460
vt 0.48895790 0.34030750
vt 0.45685700 0.34350020
vt 0.45595110 0.33797100
vt 0.42401240 0.34763430
vt 0.42381080 0.34578830
vt 0.39393990 0.36167360
vt 0.45871380 0.35283500
vt 0.42962090 0.36163000
vt 0.42597790 0.35283510
vt 0.39754240 0.36806920
vt 0.39457450 0.36337550
vt 0.36873850 0.38450200
vt 0.36772300 0.38300700
vt 0.43556610 0.37598290
vt 0.41145960 0.38889770
vt 0.40283020 0.37598290
vt 0.37931760 0.39524170
vt 0.34760500 0.41032070
vt 0.35214500 0.41346660
vt 0.37258620 0.38851030
vt 0.42303860 0.40622690
vt 0.40504280 0.42096700
vt 0.33691090 0.44190220
vt 0.34570590 0.44554510
vt 0.39030270 0.40622690
vt 0.37297350 0.42738380
vt 0.36005870 0.41875440
vt 0.42303860 0.43896280
vt 0.41145960 0.45309940
vt 0.33691090 0.47463800
vt 0.35214500 0.47766830
vt 0.39030270 0.43896280
vt 0.37931760 0.45946760
vt 0.36005870 0.45149030
vt 0.43329830 0.46769150
vt 0.40283020 0.46920680
vt 0.37258620 0.48173430
vt 0.34943840 0.50488210
f 3/3/3 2/2/2 1/1/1
f 2/2/2 3/3/3 4/4/4
f 5/5/5 3/3/3 1/1/1
f 6/6/6 5/5/5 1/1/1
f 3/3/3 5/5/5 7/7/7
f 5/5/5 6/6/6 7/7/7
f 8/8/8 6/6/6 1/1/1
f 6/6/6 8/8/8 9/9/9
f 3/3/3 10/10/10 4/4/4
f 10/10/10 11/11/11 4/4/4
f 10/10/10 3/3/3 12/12/12
f 11/11/11 10/10/10 12/12/12
f 11/11/11 13/13/13 4/4/4
f 13/13/13 11/11/11 14/14/14
f 15/15/15 3/3/3 7/7/7
f 3/3/3 15/15/15 12/12/12
f 16/16/16 15/15/15 7/7/7
f 15/15/15 16/16/16 12/12/12
f 17/17/17 6/6/6 9/9/9
f 18/18/18 17/17/17 9/9/9
f 6/6/6 17/17/17 19/19/19
f 17/17/17 18/18/18 19/19/19
f 20/20/20 18/18/18 9/9/9
f 18/18/18 20/20/20 21/21/21
f 6/6/6 22/22/22 7/7/7
f 22/22/22 6/6/6 19/19/19
f 22/22/22 23/23/23 7/7/7
f 23/23/23 22/22/22 19/19/19
f 24/24/24 16/16/16 7/7/7
f 23/23/23 24/24/24 7/7/7
f 16/16/16 24/24/24 25/25/25
f 24/24/24 23/23/23 25/25/25
f 26/26/26 18/18/18 21/21/21
f 27/27/27 26/26/26 21/21/21
f 18/18/18 26/26/26 28/28/28
f 26/26/26 27/27/27 28/28/28
f 29/29/29 27/27/27 21/21/21
f 27/27/27 29/29/29 30/30/30
f 18/18/18 31/31/31 19/19/19
f 31/31/31 18/18/18 28/28/28
f 31/31/31 32/32/32 19/19/19
f 32/32/32 31/31/31 28/28/28
f 33/33/33 23/23/23 19/19/19
f 32/32/32 33/33/33 19/19/19
f 23/23/23 33/33/33 34/34/34
f 33/33/33 32/32/32 34/34/34
f 23/23/23 35/35/35 25/25/25
f 35/35/35 23/23/23 34/34/34
f 35/35/35 36/36/36 25/25/25
f 36/36/36 35/35/35 34/34/34
f 37/37/37 27/27/27 30/30/30
f 38/38/38 37/37/37 30/30/30
f 27/27/27 37/37/37 39/39/39
f 37/37/37 38/38/38 39/39/39
f 40/40/40 38/38/38 30/30/30
f 38/38/38 40/40/40 41/41/41
f 42/42/42 27/27/27 39/39/39
f 43/43/43 42/42/42 39/39/39
f 27/27/27 42/42/42 28/28/28
f 42/42/42 43/43/43 28/28/28
f 43/43/43 44/44/44 28/28/28
f 44/44/44 43/43/43 45/45/45
f 44/44/44 32/32/32 28/28/28
f 32/32/32 44/44/44 45/45/45
f 32/32/32 46/46/46 34/34/34
f 46/46/46 32/32/32 45/45/45
f 46/46/46 47/47/47 34/34/34
f 47/47/47 46/46/46 45/45/45
f 47/47/47 48/48/48 34/34/34
f 48/48/48 47/47/47 49/49/49
f 48/48/48 36/36/36 34/34/34
f 36/36/36 48/48/48 49/49/49
f 38/38/38 50/50/50 39/39/39
f 50/50/50 51/51/51 39/39/39
f 50/50/50 38/38/38 52/52/52
f 51/51/51 50/50/50 52/52/52
f 53/53/53 43/43/43 39/39/39
f 51/51/51 53/53/53 39/39/39
f 43/43/43 53/53/53 54/54/54
f 53/53/53 51/51/51 54/54/54
f 43/43/43 55/55/55 45/45/45
f 55/55/55 43/43/43 54/54/54
f 55/55/55 56/56/56 45/45/45
f 56/56/56 55/55/55 54/54/54
f 57/57/57 47/47/47 45/45/45
f 56/56/56 57/57/57 45/45/45
f 47/47/47 57/57/57 58/58/58
f 57/57/57 56/56/56 58/58/58
f 38/38/38 59/59/59 52/52/52
f 59/59/59 60/60/60 52/52/52
f 59/59/59 38/38/38 41/41/41
f 60/60/60 59/59/59 41/41/41
f 61/61/61 60/60/60 41/41/41
f 60/60/60 61/61/61 62/62/62
f 63/63/63 47/47/47 58/58/58
f 64/64/64 63/63/63 58/58/58
f 47/47/47 63/63/63 49/49/49
f 63/63/63 64/64/64 49/49/49
f 65/65/65 60/60/60 62/62/62
f 66/66/66 65/65/65 62/62/62
f 60/60/60 65/65/65 67/67/67
f 65/65/65 66/66/66 67/67/67
f 68/68/68 66/66/66 62/62/62
f 66/66/66 68/68/68 69/69/69
f 70/70/70 60/60/60 67/67/67
f 71/71/71 70/70/70 67/67/67
f 60/60/60 70/70/70 52/52/52
f 70/70/70 71/71/71 52/52/52
f 71/71/71 72/72/72 52/52/52
f 72/72/72 71/71/71 73/73/73
f 72/72/72 51/51/51 52/52/52
f 51/51/51 72/72/72 73/73/73
f 74/74/74 51/51/51 73/73/73
f 75/75/75 74/74/74 73/73/73
f 51/51/51 74/74/74 54/54/54
f 74/74/74 75/75/75 54/54/54
f 75/75/75 76/76/76 54/54/54
f 76/76/76 75/75/75 77/77/77
f 76/76/76 56/56/56 54/54/54
f 56/56/56 76/76/76 77/77/77
f 78/78/78 56/56/56 77/77/77
f 79/79/79 78/78/78 77/77/77
f 56/56/56 78/78/78 58/58/58
f 78/78/78 79/79/79 58/58/58
f 79/79/79 80/80/80 58/58/58
f 80/80/80 64/64/64 58/58/58
f 80/80/80 79/79/79 81/81/81
f 64/64/64 80/80/80 81/81/81
f 82/82/82 75/75/75 73/73/73
f 83/83/83 82/82/82 73/73/73
f 75/75/75 82/82/82 84/84/84
f 82/82/82 83/83/83 84/84/84
f 75/75/75 85/85/85 77/77/77
f 85/85/85 75/75/75 84/84/84
f 85/85/85 86/86/86 77/77/77
f 86/86/86 85/85/85 84/84/84
f 87/87/87 79/79/79 77/77/77
f 86/86/86 87/87/87 77/77/77
f 79/79/79 87/87/87 88/88/88
f 87/87/87 86/86/86 88/88/88
f 79/79/79 89/89/89 81/81/81
f 89/89/89 79/79/79 88/88/88
f 89/89/89 90/90/90 81/81/81
f 90/90/90 89/89/89 88/88/88
f 91/91/91 64/64/64 81/81/81
f 90/90/90 91/91/91 81/81/81
f 64/64/64 91/91/91 92/92/92
f 91/91/91 90/90/90 92/92/92
f 86/86/86 93/93/93 88/88/88
f 93/93/93 90/90/90 88/88/88
f 93/93/93 86/86/86 94/94/94
f 90/90/90 93/93/93 94/94/94
f 95/95/95 86/86/86 84/84/84
f 86/86/86 95/95/95 94/94/94
f 96/96/96 95/95/95 84/84/84
f 95/95/95 96/96/96 94/94/94
f 97/97/97 90/90/90 94/94/94
f 96/96/96 97/97/97 94/94/94
f 90/90/90 97/97/97 98/98/98
f 97/97/97 96/96/96 98/98/98
f 90/90/90 99/99/99 92/92/92
f 99/99/99 100/100/100 92/92/92
f 101/101/101 64/64/64 92/92/92
f 100/100/100 101/101/101 92/92/92
f 64/64/64 101/101/101 49/49/49
f 101/101/101 100/100/100 49/49/49
f 102/102/102 96/96/96 84/84/84
f 96/96/96 102/102/102 103/103/103
f 83/83/83 102/102/102 84/84/84
f 102/102/102 83/83/83 103/103/103
f 96/96/96 104/104/104 98/98/98
f 104/104/104 96/96/96 103/103/103
f 104/104/104 105/105/105 98/98/98
f 105/105/105 104/104/104 103/103/103
f 99/99/99 90/90/90 106/106/106
f 100/100/100 99/99/99 106/106/106
f 100/100/100 107/107/107 49/49/49
f 107/107/107 100/100/100 108/108/108
f 107/107/107 36/36/36 49/49/49
f 36/36/36 107/107/107 108/108/108
f 105/105/105 109/109/109 98/98/98
f 109/109/109 90/90/90 98/98/98
f 110/110/110 100/100/100 106/106/106
f 100/100/100 110/110/110 108/108/108
f 111/111/111 110/110/110 106/106/106
f 110/110/110 111/111/111 108/108/108
f 112/112/112 36/36/36 108/108/108
f 113/113/113 112/112/112 108/108/108
f 36/36/36 112/112/112 25/25/25
f 112/112/112 113/113/113 25/25/25
f 109/109/109 105/105/105 114/114/114
f 90/90/90 109/109/109 114/114/114
f 90/90/90 115/115/115 106/106/106
f 115/115/115 111/111/111 106/106/106
f 115/115/115 90/90/90 116/116/116
f 111/111/111 115/115/115 116/116/116
f 111/111/111 117/117/117 108/108/108
f 117/117/117 113/113/113 108/108/108
f 117/117/117 111/111/111 118/118/118
f 113/113/113 117/117/117 118/118/118
f 113/113/113 119/119/119 25/25/25
f 119/119/119 113/113/113 120/120/120
f 119/119/119 16/16/16 25/25/25
f 16/16/16 119/119/119 120/120/120
f 121/121/121 90/90/90 114/114/114
f 122/122/122 121/121/121 114/114/114
f 90/90/90 121/121/121 123/123/123
f 121/121/121 122/122/122 123/123/123
f 90/90/90 124/124/124 116/116/116
f 124/124/124 125/125/125 116/116/116
f 126/126/126 111/111/111 116/116/116
f 125/125/125 126/126/126 116/116/116
f 111/111/111 126/126/126 118/118/118
f 126/126/126 125/125/125 118/118/118
f 127/127/127 113/113/113 118/118/118
f 113/113/113 127/127/127 120/120/120
f 128/128/128 127/127/127 118/118/118
f 127/127/127 128/128/128 120/120/120
f 129/129/129 16/16/16 120/120/120
f 130/130/130 129/129/129 120/120/120
f 16/16/16 129/129/129 12/12/12
f 129/129/129 130/130/130 12/12/12
f 124/124/124 90/90/90 131/131/131
f 125/125/125 124/124/124 131/131/131
f 125/125/125 132/132/132 118/118/118
f 132/132/132 128/128/128 118/118/118
f 132/132/132 125/125/125 133/133/133
f 128/128/128 132/132/132 133/133/133
f 128/128/128 134/134/134 120/120/120
f 134/134/134 130/130/130 120/120/120
f 134/134/134 128/128/128 135/135/135
f 130/130/130 134/134/134 135/135/135
f 130/130/130 136/136/136 12/12/12
f 136/136/136 130/130/130 137/137/137
f 136/136/136 11/11/11 12/12/12
f 11/11/11 136/136/136 137/137/137
f 138/138/138 125/125/125 131/131/131
f 125/125/125 138/138/138 133/133/133
f 139/139/139 138/138/138 131/131/131
f 138/138/138 139/139/139 133/133/133
f 128/128/128 140/140/140 135/135/135
f 140/140/140 128/128/128 133/133/133
f 141/141/141 140/140/140 133/133/133
f 140/140/140 141/141/141 135/135/135
f 142/142/142 130/130/130 135/135/135
f 130/130/130 142/142/142 137/137/137
f 143/143/143 142/142/142 135/135/135
f 142/142/142 143/143/143 137/137/137
f 144/144/144 11/11/11 137/137/137
f 145/145/145 144/144/144 137/137/137
f 11/11/11 144/144/144 14/14/14
f 144/144/144 145/145/145 14/14/14
f 145/145/145 146/146/146 14/14/14
f 146/146/146 145/145/145 147/147/147
f 148/148/148 141/141/141 133/133/133
f 141/141/141 148/148/148 149/149/149
f 139/139/139 148/148/148 133/133/133
f 148/148/148 139/139/139 149/149/149
f 141/141/141 150/150/150 135/135/135
f 150/150/150 143/143/143 135/135/135
f 150/150/150 141/141/141 151/151/151
f 143/143/143 150/150/150 151/151/151
f 143/143/143 152/152/152 137/137/137
f 152/152/152 145/145/145 137/137/137
f 152/152/152 143/143/143 153/153/153
f 145/145/145 152/152/152 153/153/153
f 145/145/145 154/154/154 147/147/147
f 154/154/154 145/145/145 153/153/153
f 154/154/154 155/155/155 147/147/147
f 155/155/155 154/154/154 153/153/153
f 155/155/155 156/156/156 147/147/147
f 156/156/156 155/155/155 157/157/157
f 141/141/141 158/158/158 151/151/151
f 158/158/158 159/159/159 151/151/151
f 158/158/158 141/141/141 149/149/149
f 159/159/159 158/158/158 149/149/149
f 160/160/160 143/143/143 151/151/151
f 143/143/143 160/160/160 153/153/153
f 161/161/161 160/160/160 151/151/151
f 160/160/160 161/161/161 153/153/153
f 162/162/162 155/155/155 153/153/153
f 161/161/161 162/162/162 153/153/153
f 155/155/155 162/162/162 163/163/163
f 162/162/162 161/161/161 163/163/163
f 155/155/155 164/164/164 157/157/157
f 164/164/164 155/155/155 163/163/163
f 164/164/164 165/165/165 157/157/157
f 165/165/165 164/164/164 163/163/163
f 165/165/165 166/166/166 157/157/157
f 166/166/166 165/165/165 167/167/167
f 159/159/159 168/168/168 151/151/151
f 168/168/168 161/161/161 151/151/151
f 161/161/161 168/168/168 169/169/169
f 168/168/168 159/159/159 169/169/169
f 161/161/161 170/170/170 163/163/163
f 170/170/170 161/161/161 169/169/169
f 170/170/170 171/171/171 163/163/163
f 171/171/171 170/170/170 169/169/169
f 172/172/172 165/165/165 163/163/163
f 171/171/171 172/172/172 163/163/163
f 165/165/165 172/172/172 173/173/173
f 172/172/172 171/171/171 173/173/173
f 165/165/165 174/174/174 167/167/167
f 174/174/174 165/165/165 173/173/173
f 174/174/174 175/175/175 167/167/167
f 175/175/175 174/174/174 173/173/173
f 175/175/175 176/176/176 167/167/167
f 176/176/176 175/175/175 177/177/177
f 175/175/175 178/178/178 177/177/177
f 178/178/178 179/179/179 177/177/177
f 178/178/178 175/175/175 180/180/180
f 179/179/179 178/178/178 180/180/180
f 179/179/179 181/181/181 177/177/177
f 181/181/181 179/179/179 182/182/182
f 183/183/183 175/175/175 173/173/173
f 175/175/175 183/183/183 180/180/180
f 184/184/184 183/183/183 173/173/173
f 183/183/183 184/184/184 180/180/180
f 171/171/171 185/185/185 173/173/173
f 185/185/185 184/184/184 173/173/173
f 185/185/185 171/171/171 186/186/186
f 184/184/184 185/185/185 186/186/186
f 171/171/171 187/187/187 186/186/186
f 187/187/187 188/188/188 186/186/186
f 187/187/187 171/171/171 169/169/169
f 188/188/188 187/187/187 169/169/169
f 189/189/189 188/188/188 169/169/169
f 188/188/188 189/189/189 190/190/190
f 159/159/159 189/189/189 169/169/169
f 189/189/189 159/159/159 190/190/190
f 159/159/159 191/191/191 190/190/190
f 191/191/191 192/192/192 190/190/190
f 191/191/191 159/159/159 149/149/149
f 192/192/192 191/191/191 149/149/149
f 193/193/193 192/192/192 149/149/149
f 139/139/139 193/193/193 149/149/149
f 193/193/193 139/139/139 194/194/194
f 192/192/192 193/193/193 194/194/194
f 139/139/139 195/195/195 194/194/194
f 195/195/195 139/139/139 131/131/131
f 90/90/90 195/195/195 131/131/131
f 195/195/195 90/90/90 194/194/194
f 196/196/196 192/192/192 194/194/194
f 90/90/90 196/196/196 194/194/194
f 192/192/192 196/196/196 197/197/197
f 196/196/196 90/90/90 197/197/197
f 192/192/192 198/198/198 190/190/190
f 198/198/198 192/192/192 197/197/197
f 198/198/198 199/199/199 190/190/190
f 199/199/199 198/198/198 197/197/197
f 90/90/90 200/200/200 197/197/197
f 200/200/200 199/199/199 197/197/197
f 200/200/200 90/90/90 201/201/201
f 199/199/199 200/200/200 201/201/201
f 90/90/90 202/202/202 201/201/201
f 202/202/202 203/203/203 201/201/201
f 199/199/199 204/204/204 190/190/190
f 204/204/204 199/199/199 205/205/205
f 204/204/204 188/188/188 190/190/190
f 188/188/188 204/204/204 205/205/205
f 206/206/206 199/199/199 201/201/201
f 203/203/203 206/206/206 201/201/201
f 199/199/199 206/206/206 205/205/205
f 206/206/206 203/203/203 205/205/205
f 202/202/202 90/90/90 207/207/207
f 203/203/203 202/202/202 207/207/207
f 208/208/208 188/188/188 205/205/205
f 209/209/209 208/208/208 205/205/205
f 188/188/188 208/208/208 186/186/186
f 208/208/208 209/209/209 186/186/186
f 203/203/203 210/210/210 205/205/205
f 210/210/210 209/209/209 205/205/205
f 210/210/210 203/203/203 211/211/211
f 209/209/209 210/210/210 211/211/211
f 212/212/212 203/203/203 207/207/207
f 203/203/203 212/212/212 211/211/211
f 213/213/213 212/212/212 207/207/207
f 212/212/212 213/213/213 211/211/211
f 90/90/90 214/214/214 207/207/207
f 214/214/214 213/213/213 207/207/207
f 209/209/209 215/215/215 186/186/186
f 215/215/215 209/209/209 216/216/216
f 215/215/215 184/184/184 186/186/186
f 184/184/184 215/215/215 216/216/216
f 217/217/217 209/209/209 211/211/211
f 209/209/209 217/217/217 216/216/216
f 218/218/218 217/217/217 211/211/211
f 217/217/217 218/218/218 216/216/216
f 214/214/214 90/90/90 219/219/219
f 213/213/213 214/214/214 219/219/219
f 220/220/220 184/184/184 216/216/216
f 221/221/221 220/220/220 216/216/216
f 184/184/184 220/220/220 180/180/180
f 220/220/220 221/221/221 180/180/180
f 213/213/213 222/222/222 211/211/211
f 222/222/222 218/218/218 211/211/211
f 222/222/222 213/213/213 223/223/223
f 218/218/218 222/222/222 223/223/223
f 224/224/224 213/213/213 219/219/219
f 213/213/213 224/224/224 223/223/223
f 225/225/225 224/224/224 219/219/219
f 224/224/224 225/225/225 223/223/223
f 90/90/90 226/226/226 219/219/219
f 226/226/226 225/225/225 219/219/219
f 226/226/226 90/90/90 227/227/227
f 225/225/225 226/226/226 227/227/227
f 218/218/218 228/228/228 216/216/216
f 228/228/228 221/221/221 216/216/216
f 228/228/228 218/218/218 229/229/229
f 221/221/221 228/228/228 229/229/229
f 230/230/230 218/218/218 223/223/223
f 218/218/218 230/230/230 229/229/229
f 231/231/231 230/230/230 223/223/223
f 230/230/230 231/231/231 229/229/229
f 90/90/90 232/232/232 227/227/227
f 232/232/232 233/233/233 227/227/227
f 232/232/232 90/90/90 123/123/123
f 233/233/233 232/232/232 123/123/123
f 225/225/225 234/234/234 223/223/223
f 234/234/234 231/231/231 223/223/223
f 234/234/234 225/225/225 235/235/235
f 231/231/231 234/234/234 235/235/235
f 236/236/236 225/225/225 227/227/227
f 233/233/233 236/236/236 227/227/227
f 225/225/225 236/236/236 235/235/235
f 236/236/236 233/233/233 235/235/235
f 237/237/237 233/233/233 123/123/123
f 233/233/233 237/237/237 238/238/238
f 122/122/122 237/237/237 123/123/123
f 237/237/237 122/122/122 238/238/238
f 233/233/233 239/239/239 235/235/235
f 239/239/239 233/233/233 238/238/238
f 239/239/239 240/240/240 235/235/235
f 240/240/240 239/239/239 238/238/238
f 241/241/241 231/231/231 235/235/235
f 240/240/240 241/241/241 235/235/235
f 231/231/231 241/241/241 242/242/242
f 241/241/241 240/240/240 242/242/242
f 243/243/243 231/231/231 242/242/242
f 244/244/244 243/243/243 242/242/242
f 231/231/231 243/243/243 229/229/229
f 243/243/243 244/244/244 229/229/229
f 244/244/244 245/245/245 229/229/229
f 245/245/245 244/244/244 246/246/246
f 245/245/245 221/221/221 229/229/229
f 221/221/221 245/245/245 246/246/246
f 247/247/247 221/221/221 246/246/246
f 221/221/221 247/247/247 180/180/180
f 247/247/247 179/179/179 180/180/180
f 179/179/179 247/247/247 246/246/246
f 248/248/248 179/179/179 246/246/246
f 249/249/249 248/248/248 246/246/246
f 179/179/179 248/248/248 182/182/182
f 248/248/248 249/249/249 182/182/182
f 249/249/249 250/250/250 182/182/182
f 250/250/250 249/249/249 251/251/251
f 244/244/244 252/252/252 246/246/246
f 252/252/252 249/249/249 246/246/246
f 252/252/252 244/244/244 253/253/253
f 249/249/249 252/252/252 253/253/253
f 249/249/249 254/254/254 251/251/251
f 254/254/254 249/249/249 253/253/253
f 254/254/254 255/255/255 251/251/251
f 255/255/255 254/254/254 253/253/253
f 255/255/255 256/256/256 251/251/251
f 256/256/256 255/255/255 257/257/257
f 244/244/244 258/258/258 253/253/253
f 258/258/258 259/259/259 253/253/253
f 258/258/258 244/244/244 242/242/242
f 259/259/259 258/258/258 242/242/242
f 260/260/260 255/255/255 253/253/253
f 259/259/259 260/260/260 253/253/253
f 255/255/255 260/260/260 261/261/261
f 260/260/260 259/259/259 261/261/261
f 255/255/255 262/262/262 257/257/257
f 262/262/262 255/255/255 261/261/261
f 262/262/262 263/263/263 257/257/257
f 263/263/263 262/262/262 261/261/261
f 263/263/263 264/264/264 257/257/257
f 264/264/264 263/263/263 69/69/69
f 265/265/265 259/259/259 242/242/242
f 259/259/259 265/265/265 266/266/266
f 240/240/240 265/265/265 242/242/242
f 265/265/265 240/240/240 266/266/266
f 259/259/259 267/267/267 261/261/261
f 267/267/267 259/259/259 266/266/266
f 267/267/267 268/268/268 261/261/261
f 268/268/268 267/267/267 266/266/266
f 263/263/263 269/269/269 69/69/69
f 269/269/269 263/263/263 270/270/270
f 269/269/269 66/66/66 69/69/69
f 66/66/66 269/269/269 270/270/270
f 271/271/271 263/263/263 261/261/261
f 268/268/268 271/271/271 261/261/261
f 263/263/263 271/271/271 270/270/270
f 271/271/271 268/268/268 270/270/270
f 240/240/240 272/272/272 266/266/266
f 272/272/272 273/273/273 266/266/266
f 272/272/272 240/240/240 238/238/238
f 273/273/273 272/272/272 238/238/238
f 274/274/274 66/66/66 270/270/270
f 275/275/275 274/274/274 270/270/270
f 66/66/66 274/274/274 67/67/67
f 274/274/274 275/275/275 67/67/67
f 276/276/276 268/268/268 266/266/266
f 273/273/273 276/276/276 266/266/266
f 268/268/268 276/276/276 277/277/277
f 276/276/276 273/273/273 277/277/277
f 268/268/268 278/278/278 270/270/270
f 278/278/278 275/275/275 270/270/270
f 278/278/278 268/268/268 277/277/277
f 275/275/275 278/278/278 277/277/277
f 279/279/279 273/273/273 238/238/238
f 273/273/273 279/279/279 280/280/280
f 122/122/122 279/279/279 238/238/238
f 279/279/279 122/122/122 280/280/280
f 275/275/275 281/281/281 67/67/67
f 281/281/281 275/275/275 282/282/282
f 281/281/281 71/71/71 67/67/67
f 71/71/71 281/281/281 282/282/282
f 273/273/273 283/283/283 277/277/277
f 283/283/283 273/273/273 280/280/280
f 283/283/283 284/284/284 277/277/277
f 284/284/284 283/283/283 280/280/280
f 285/285/285 275/275/275 277/277/277
f 275/275/275 285/285/285 282/282/282
f 284/284/284 285/285/285 277/277/277
f 285/285/285 284/284/284 282/282/282
f 122/122/122 286/286/286 280/280/280
f 286/286/286 122/122/122 114/114/114
f 105/105/105 286/286/286 114/114/114
f 286/286/286 105/105/105 280/280/280
f 105/105/105 287/287/287 280/280/280
f 287/287/287 284/284/284 280/280/280
f 287/287/287 105/105/105 103/103/103
f 284/284/284 287/287/287 103/103/103
f 288/288/288 284/284/284 103/103/103
f 284/284/284 288/288/288 282/282/282
f 83/83/83 288/288/288 103/103/103
f 288/288/288 83/83/83 282/282/282
f 83/83/83 289/289/289 282/282/282
f 289/289/289 71/71/71 282/282/282
f 289/289/289 83/83/83 73/73/73
f 71/71/71 289/289/289 73/73/73

