mtllib Potato_2.mtl
g potato_a2
v 0.02842685 0.01812986 -0.02343291
v 0.03128445 0.005988687 -0.02468091
v 0.03357143 0.007506942 -0.01600639
v 0.02996516 0.01987675 -0.01517702
v 0.02044684 0.03027587 -0.02171667
v 0.0347122 0.008429062 -0.007629399
v 0.02194758 0.03253964 -0.01423663
v 0.007962762 0.03722262 -0.02121629
v 0.0312737 0.02120032 -0.007072268
v 0.009120878 0.03986752 -0.01372328
v -0.003449674 0.03660778 -0.0223285
v -0.003418237 0.04042619 -0.01405268
v 0.0328466 0.01888579 0.001580227
v 0.03474739 0.0105255 0.001535807
v 0.02397659 0.03442274 0.002472692
v 0.02332275 0.03422799 -0.006253277
v 0.01052418 0.0421209 -0.005638144
v -0.002979635 0.0432468 -0.005581607
v 0.01143435 0.04244791 0.003286465
v -0.002252248 0.04395855 0.003554664
v -0.001301997 0.04096175 0.01296095
v -0.01490832 0.03958775 0.003161582
v -0.002252248 0.04395855 0.003554664
v -0.01317117 0.03721154 0.01259543
v -0.0004546712 0.03485159 0.0221238
v -0.02538264 0.03034307 0.002408641
v -0.01091131 0.03318649 0.02179318
v -0.0003319143 0.02975696 0.03276033
v -0.009663786 0.02893006 0.03174823
v -0.0235106 0.02888745 0.01187371
v -0.03239786 0.01864681 0.001477062
v -0.02033404 0.02630058 0.02141405
v -0.01770074 0.02454174 0.030427
v -0.03025971 0.017861 0.01148891
v -0.02674345 0.01603694 0.02162466
v -0.02366265 0.0146657 0.03203254
v -0.02524487 0.003829208 0.03290688
v -0.02921704 0.005503321 0.02194127
v -0.03270533 0.006881033 0.01130985
v -0.03516594 0.007206871 0.000822794
v 0.01277455 -0.02358833 0.002240535
v 0.00473662 -0.02467221 -0.007024489
v 0.003768181 -0.02448697 0.002430959
v 0.01351319 -0.02464386 -0.007104268
v 0.02082441 -0.02067165 0.001890025
v 0.00554371 -0.02437366 -0.01571212
v 0.02170527 -0.02235316 -0.00721701
v 0.02735796 -0.0159072 0.001480793
v 0.01350156 -0.02441462 -0.01551819
v 0.02855247 -0.01742978 -0.007413778
v 0.03204117 -0.009561989 0.001196517
v 0.01309601 -0.02320527 -0.02324835
v 0.00611457 -0.02324188 -0.02381563
v 0.0197544 -0.02161094 -0.02251431
v 0.02118631 -0.02241658 -0.01541805
v 0.02531459 -0.01762613 -0.02342135
v 0.03299945 -0.01039513 -0.007649005
v 0.03470123 -0.001658935 0.001200923
v 0.02802943 -0.01781814 -0.0155753
v 0.03218555 -0.01095077 -0.01596056
v 0.02922882 -0.01122486 -0.02416872
v 0.03506387 -0.002071712 -0.007828375
v 0.03401535 -0.002615634 -0.0161459
v 0.03103081 -0.003540997 -0.0247382
v 0.03128445 0.005988687 -0.02468091
v 0.03357143 0.007506942 -0.01600639
v 0.0347122 0.008429062 -0.007629399
v 0.03474739 0.0105255 0.001535807
v 0.002914665 -0.02445403 0.01269671
v 0.01277455 -0.02358833 0.002240535
v 0.003768181 -0.02448697 0.002430959
v 0.01152197 -0.02314875 0.01254222
v 0.002091822 -0.02554907 0.02259706
v 0.01988523 -0.02062983 0.01216829
v 0.02082441 -0.02067165 0.001890025
v 0.01027642 -0.0239454 0.0226712
v 0.001244311 -0.02539524 0.03194759
v 0.008187151 -0.02384087 0.03229636
v 0.01385009 -0.02150724 0.03276536
v 0.01806019 -0.0211028 0.0225976
v 0.01945856 -0.01685972 0.03367675
v 0.02362888 -0.01626897 0.02290076
v 0.02259518 -0.01126431 0.03486772
v 0.02636455 -0.01576724 0.01171516
v 0.02735796 -0.0159072 0.001480793
v 0.02714447 -0.009822233 0.02302057
v 0.02396401 -0.00425782 0.03553773
v 0.03052702 -0.009544169 0.01171183
v 0.03204117 -0.009561989 0.001196517
v 0.02804075 -0.002455506 0.02330438
v 0.02346825 0.004338238 0.0354421
v 0.02631613 0.006405339 0.02306461
v 0.03249804 -0.001656602 0.01167655
v 0.03470123 -0.001658935 0.001200923
v 0.03214522 0.008102315 0.01191566
v 0.03474739 0.0105255 0.001535807
v -0.0003048483 -0.02316514 0.04017989
v 0.001244311 -0.02539524 0.03194759
v -0.005940144 -0.02516572 0.03084249
v -0.006435025 -0.02314278 0.03791589
v -0.008277224 -0.01975439 0.04394656
v -0.00136548 -0.0196837 0.04743883
v -0.01109113 -0.02196084 0.0356588
v -0.01267681 -0.02265528 0.02957936
v -0.01835281 -0.01859182 0.0306707
v -0.01430221 -0.01883539 0.03799818
v -0.01011754 -0.01478168 0.04827339
v -0.002086526 -0.01515494 0.05275242
v -0.01686594 -0.01355841 0.04089661
v -0.02272678 -0.01261075 0.03200711
v -0.02473116 -0.005165099 0.03277574
v -0.01115146 -0.008243755 0.05060748
v -0.002252522 -0.009150608 0.05584306
v -0.002041614 -0.0004763477 0.05524446
v -0.01121709 0.0004779848 0.05043209
v -0.01836208 -0.006690505 0.04242959
v -0.01919993 0.00195356 0.04284534
v -0.02524487 0.003829208 0.03290688
v 0.03214522 0.008102315 0.01191566
v 0.0328466 0.01888579 0.001580227
v 0.03474739 0.0105255 0.001535807
v 0.02923382 0.02031022 0.01191485
v 0.02397659 0.03442274 0.002472692
v 0.02397281 0.0169696 0.02235665
v 0.02631613 0.006405339 0.02306461
v 0.02245495 0.03174676 0.01203499
v 0.01143435 0.04244791 0.003286465
v 0.02093246 0.01442147 0.03452476
v 0.02346825 0.004338238 0.0354421
v 0.01558401 0.02352482 0.03233443
v 0.0182604 0.02710701 0.02251819
v 0.009613858 0.03319271 0.02226391
v 0.008274689 0.02766015 0.03294753
v -0.0003319143 0.02975696 0.03276033
v -0.0004546712 0.03485159 0.0221238
v -0.001301997 0.04096175 0.01296095
v 0.01113769 0.03925781 0.01287391
v -0.002252248 0.04395855 0.003554664
v 0.01885444 0.001471378 0.04793404
v 0.02093246 0.01442147 0.03452476
v 0.02346825 0.004338238 0.0354421
v 0.01690851 0.01250314 0.04501166
v 0.008590528 -0.000525277 0.05558328
v 0.01558401 0.02352482 0.03233443
v 0.008148719 0.01065131 0.05123049
v -0.002041614 -0.0004763477 0.05524446
v -0.001473363 0.01031381 0.05101929
v -0.0008689715 0.02253778 0.04351516
v 0.01413667 0.0195337 0.04158341
v 0.007388636 0.02151578 0.04352516
v -0.0003319143 0.02975696 0.03276033
v 0.008274689 0.02766015 0.03294753
v 0.01885444 0.001471378 0.04793404
v 0.02346825 0.004338238 0.0354421
v 0.02396401 -0.00425782 0.03553773
v 0.01831701 -0.007267399 0.04787745
v 0.008590528 -0.000525277 0.05558328
v 0.02259518 -0.01126431 0.03486772
v 0.008173514 -0.009014096 0.05568097
v -0.002041614 -0.0004763477 0.05524446
v -0.002252522 -0.009150608 0.05584306
v 0.01618109 -0.01349955 0.04615897
v 0.01945856 -0.01685972 0.03367675
v 0.007154132 -0.0147179 0.05246019
v -0.002086526 -0.01515494 0.05275242
v 0.01273877 -0.01822419 0.04322736
v 0.01385009 -0.02150724 0.03276536
v 0.005962692 -0.01890897 0.04734752
v -0.00136548 -0.0196837 0.04743883
v 0.005404383 -0.02202377 0.04091216
v -0.0003048483 -0.02316514 0.04017989
v 0.001244311 -0.02539524 0.03194759
v 0.008187151 -0.02384087 0.03229636
v 0.01139468 -0.02056335 0.0394971
v -0.01490832 0.03958775 0.003161582
v -0.002979635 0.0432468 -0.005581607
v -0.002252248 0.04395855 0.003554664
v -0.01516673 0.03880408 -0.006083325
v -0.02538264 0.03034307 0.002408641
v -0.01428185 0.03607656 -0.01521172
v -0.003418237 0.04042619 -0.01405268
v -0.02483585 0.02940331 -0.007009548
v -0.03239786 0.01864681 0.001477062
v -0.01119405 0.03232521 -0.02431393
v -0.003449674 0.03660778 -0.0223285
v -0.01798975 0.02437356 -0.02715457
v -0.02210912 0.02722186 -0.01696811
v -0.03097858 0.01810006 -0.008212578
v -0.03516594 0.007206871 0.000822794
v -0.0336515 0.006732303 -0.00898758
v -0.02709565 0.01622012 -0.01844974
v -0.02166533 0.01381444 -0.02990553
v -0.02856982 0.00557396 -0.01936756
v -0.02180742 0.003557992 -0.03023032
v 0.02671163 0.003858349 -0.03346124
v 0.03103081 -0.003540997 -0.0247382
v 0.03128445 0.005988687 -0.02468091
v 0.02591654 -0.005003198 -0.03340207
v 0.01935063 -0.007142496 -0.04146591
v 0.02041068 0.001253953 -0.04201755
v 0.02415944 -0.01198527 -0.03212827
v 0.02922882 -0.01122486 -0.02416872
v 0.0104973 -0.009221951 -0.04723432
v 0.01119681 -0.001156053 -0.04850586
v 0.009396744 -0.01455829 -0.04342502
v 0.01764293 -0.01339168 -0.03910489
v 0.01531861 -0.01820945 -0.03526185
v 0.008097022 -0.01850143 -0.03788497
v 0.006886331 -0.02126409 -0.03142543
v 0.02120944 -0.01762085 -0.03005305
v 0.02531459 -0.01762613 -0.02342135
v 0.0197544 -0.02161094 -0.02251431
v 0.01808688 -0.02053183 -0.02801621
v 0.01309601 -0.02320527 -0.02324835
v 0.01325507 -0.02134897 -0.02973474
v 0.00611457 -0.02324188 -0.02381563
v -0.03287653 -0.002578412 0.001433509
v -0.0336515 0.006732303 -0.00898758
v -0.03516594 0.007206871 0.000822794
v -0.03172131 -0.00272912 -0.0085533
v -0.02843336 -0.0105732 0.001759416
v -0.02856982 0.00557396 -0.01936756
v -0.0275443 -0.01061633 -0.007981661
v -0.02225854 -0.01791498 0.002031022
v -0.02713057 -0.003188541 -0.01878003
v -0.02180742 0.003557992 -0.03023032
v -0.02039711 -0.004585353 -0.0292911
v -0.02380232 -0.01039873 -0.01777817
v -0.0180663 -0.01087561 -0.02765604
v -0.02168847 -0.01766207 -0.007528853
v -0.01435912 -0.02310315 0.002258506
v -0.01853824 -0.01629406 -0.0167704
v -0.01396763 -0.01614948 -0.02586431
v -0.008276456 -0.01959879 -0.02438638
v -0.0110585 -0.02001855 -0.01588124
v -0.001339151 -0.02191361 -0.02408879
v -0.01326751 -0.02200636 -0.00723803
v -0.005237414 -0.02499655 0.002436666
v -0.004132689 -0.02373833 -0.007048768
v 0.003768181 -0.02448697 0.002430959
v 0.00473662 -0.02467221 -0.007024489
v 0.00554371 -0.02437366 -0.01571212
v -0.002784024 -0.02254048 -0.01568868
v 0.00611457 -0.02324188 -0.02381563
v -0.001339151 -0.02191361 -0.02408879
v 0.00611457 -0.02324188 -0.02381563
v 0.006886331 -0.02126409 -0.03142543
v 0.0001488372 -0.02043922 -0.03155458
v -0.008276456 -0.01959879 -0.02438638
v -5.034688E-05 -0.01782012 -0.03752578
v 0.008097022 -0.01850143 -0.03788497
v 0.009396744 -0.01455829 -0.04342502
v -0.005765321 -0.01918149 -0.03025949
v -0.01396763 -0.01614948 -0.02586431
v -0.008002032 -0.01683992 -0.03361117
v -0.0004926014 -0.0139907 -0.04248387
v 0.0104973 -0.009221951 -0.04723432
v -0.01034821 -0.01270096 -0.0369694
v -0.0180663 -0.01087561 -0.02765604
v -0.0008018001 -0.008673011 -0.04598098
v 0.01119681 -0.001156053 -0.04850586
v -0.0006979044 -0.001129731 -0.04746732
v -0.01266504 0.0008052812 -0.04073162
v -0.011833 -0.006898697 -0.03940395
v -0.02039711 -0.004585353 -0.0292911
v -0.02180742 0.003557992 -0.03023032
v -0.02524487 0.003829208 0.03290688
v -0.02473116 -0.005165099 0.03277574
v -0.02867162 -0.003638515 0.02196606
v -0.02921704 0.005503321 0.02194127
v -0.02272678 -0.01261075 0.03200711
v -0.03132769 -0.0027556 0.01142811
v -0.03270533 0.006881033 0.01130985
v -0.03516594 0.007206871 0.000822794
v -0.03287653 -0.002578412 0.001433509
v -0.02622657 -0.01164822 0.02181834
v -0.01835281 -0.01859182 0.0306707
v -0.02770057 -0.01086035 0.01160286
v -0.02843336 -0.0105732 0.001759416
v -0.02109762 -0.01845084 0.02168197
v -0.01267681 -0.02265528 0.02957936
v -0.0221242 -0.01817884 0.01181111
v -0.02225854 -0.01791498 0.002031022
v -0.01435912 -0.02310315 0.002258506
v -0.01463784 -0.0237863 0.01222588
v -0.005237414 -0.02499655 0.002436666
v -0.01404949 -0.02349883 0.02170091
v -0.005940144 -0.02516572 0.03084249
v -0.005990728 -0.02603597 0.02225239
v 0.001244311 -0.02539524 0.03194759
v 0.002091822 -0.02554907 0.02259706
v 0.002914665 -0.02445403 0.01269671
v -0.005955434 -0.02590822 0.0125384
v 0.003768181 -0.02448697 0.002430959
v -0.02366265 0.0146657 0.03203254
v -0.01770074 0.02454174 0.030427
v -0.01579824 0.02072946 0.0383273
v -0.009663786 0.02893006 0.03174823
v -0.01850505 0.01313868 0.04118385
v -0.02524487 0.003829208 0.03290688
v -0.01919993 0.00195356 0.04284534
v -0.0090881 0.02298156 0.04075548
v -0.0003319143 0.02975696 0.03276033
v -0.0008689715 0.02253778 0.04351516
v -0.0106634 0.0115061 0.04794598
v -0.01121709 0.0004779848 0.05043209
v -0.001473363 0.01031381 0.05101929
v -0.002041614 -0.0004763477 0.05524446
v 0.02506652 0.01543231 -0.0314987
v 0.02671163 0.003858349 -0.03346124
v 0.03128445 0.005988687 -0.02468091
v 0.02842685 0.01812986 -0.02343291
v 0.01972918 0.01255935 -0.03904686
v 0.02041068 0.001253953 -0.04201755
v 0.01119681 -0.001156053 -0.04850586
v 0.01812223 0.02725166 -0.02845745
v 0.02044684 0.03027587 -0.02171667
v 0.01415306 0.02319486 -0.03514747
v 0.01135234 0.01009473 -0.04493386
v -0.0006979044 -0.001129731 -0.04746732
v 0.006829371 0.03267086 -0.02837159
v 0.007962762 0.03722262 -0.02121629
v 0.01065167 0.01820897 -0.04031416
v -0.000128651 0.009272963 -0.04552476
v -0.01266504 0.0008052812 -0.04073162
v 0.004664819 0.02768438 -0.03376472
v 0.001249629 0.02024327 -0.03948113
v -0.0120786 0.01087504 -0.03985304
v -0.02180742 0.003557992 -0.03023032
v -0.02166533 0.01381444 -0.02990553
v -0.009345472 0.02112153 -0.03573718
v -0.01798975 0.02437356 -0.02715457
v -0.01119405 0.03232521 -0.02431393
v -0.005879462 0.02871596 -0.0311682
v -0.001801964 0.03363796 -0.02703537
v -0.003449674 0.03660778 -0.0223285
vn 0.8330368 0.4049056 -0.3769631
vn 0.9149454 0.130481 -0.3819025
vn 0.9617883 0.1653451 -0.2182297
vn 0.8762456 0.4155861 -0.2438887
vn 0.6087952 0.6807942 -0.4072929
vn 0.9851251 0.1448063 -0.09251825
vn 0.6524358 0.6977386 -0.2957842
vn 0.245836 0.8646842 -0.4380478
vn 0.8945894 0.4264135 -0.1337211
vn 0.2719588 0.9030743 -0.3324083
vn -0.1586636 0.869058 -0.4685766
vn -0.1432511 0.926631 -0.3476119
vn 0.9214071 0.3724221 0.1109536
vn 0.9830338 0.1355113 0.1236172
vn 0.7257971 0.6784703 0.1135638
vn 0.6972488 0.6993306 -0.157419
vn 0.3111117 0.9336069 -0.1777291
vn -0.1264797 0.9764657 -0.1746925
vn 0.3435221 0.9307858 0.1250219
vn -0.1057797 0.9858699 0.1298896
vn -0.06786641 0.9067886 0.4160872
vn -0.5060667 0.8548224 0.1147827
vn -0.1057797 0.9858699 0.1298896
vn -0.4467352 0.8129227 0.3736097
vn -0.01452195 0.8712937 0.4905471
vn -0.7700846 0.6330456 0.07888573
vn -0.3711532 0.8195797 0.4365025
vn 0.01405222 0.8713452 0.4904691
vn -0.305573 0.8350553 0.4575016
vn -0.7206957 0.6130713 0.3236376
vn -0.9246059 0.3780227 0.04693332
vn -0.6888133 0.6207731 0.3744022
vn -0.6545517 0.6450647 0.394276
vn -0.8831382 0.364194 0.2956853
vn -0.8664466 0.3582114 0.347786
vn -0.8511015 0.329546 0.4086877
vn -0.8995101 0.06088237 0.4326371
vn -0.9437197 0.07464848 0.3222122
vn -0.9636077 0.05680332 0.2612154
vn -0.9988378 0.03776128 0.0299523
vn 0.2014771 -0.9762529 0.07960793
vn -0.03116767 -0.9991232 -0.02795519
vn 0.06728851 -0.9977322 0.001669572
vn 0.1579212 -0.9860116 0.05331094
vn 0.4562121 -0.8814786 0.1219256
vn -0.08908862 -0.9910459 -0.09945501
vn 0.4396154 -0.8933684 0.0929049
vn 0.7135406 -0.6869267 0.1378105
vn 0.1275752 -0.9883675 -0.08278979
vn 0.7211277 -0.687229 0.08769882
vn 0.8994093 -0.4153629 0.1361491
vn 0.1221097 -0.9723114 -0.1992477
vn -0.07973107 -0.9787421 -0.1889627
vn 0.4022593 -0.8875862 -0.224451
vn 0.4190768 -0.9031833 -0.09292237
vn 0.6877543 -0.6522422 -0.3187072
vn 0.9168163 -0.3978006 0.03467933
vn 0.9854474 -0.1105049 0.1291596
vn 0.7223153 -0.6784142 -0.134219
vn 0.9093017 -0.3728598 -0.1847861
vn 0.8463711 -0.3715016 -0.3816315
vn 0.9948546 -0.0966175 -0.03048586
vn 0.9735652 -0.08731229 -0.2110622
vn 0.9105825 -0.1198197 -0.3955788
vn 0.9149454 0.130481 -0.3819025
vn 0.9617883 0.1653451 -0.2182297
vn 0.9851251 0.1448063 -0.09251825
vn 0.9830338 0.1355113 0.1236172
vn 0.1303664 -0.9909101 -0.03319178
vn 0.2014771 -0.9762529 0.07960793
vn 0.06728851 -0.9977322 0.001669572
vn 0.2315572 -0.9728167 0.002999056
vn 0.1293813 -0.9915243 -0.01183009
vn 0.4714284 -0.8801842 0.05505529
vn 0.4562121 -0.8814786 0.1219256
vn 0.2616923 -0.9651016 0.009802771
vn 0.08718628 -0.9849235 0.1494132
vn 0.2647152 -0.9520524 0.1533688
vn 0.4747058 -0.8559659 0.2048821
vn 0.4938144 -0.8637859 0.1001056
vn 0.708477 -0.6453444 0.2856414
vn 0.7434384 -0.638038 0.2005168
vn 0.8620867 -0.3792722 0.336094
vn 0.7335771 -0.6683198 0.1233417
vn 0.7135406 -0.6869267 0.1378105
vn 0.9016316 -0.3278153 0.2821305
vn 0.9358605 -0.0685874 0.3456313
vn 0.9024274 -0.378361 0.2060768
vn 0.8994093 -0.4153629 0.1361491
vn 0.9410213 -0.01243014 0.3381188
vn 0.9271545 0.168637 0.3345834
vn 0.9124585 0.1774795 0.368674
vn 0.9544978 -0.06714112 0.2905614
vn 0.9854474 -0.1105049 0.1291596
vn 0.9218759 0.134308 0.3634641
vn 0.9830338 0.1355113 0.1236172
vn 0.002509027 -0.9361656 0.3515503
vn 0.08718628 -0.9849235 0.1494132
vn -0.1689181 -0.9738262 0.1520831
vn -0.2393348 -0.9155494 0.3232461
vn -0.4107714 -0.7633893 0.4985012
vn -0.1026541 -0.8244282 0.5565791
vn -0.4511016 -0.8470988 0.2809465
vn -0.4568962 -0.8710665 0.1802468
vn -0.6750807 -0.6897047 0.2618653
vn -0.6149718 -0.6813295 0.3969885
vn -0.5697662 -0.5028336 0.6500192
vn -0.2015408 -0.5890657 0.782549
vn -0.7406767 -0.4343686 0.5125641
vn -0.8300865 -0.4285776 0.35676
vn -0.893643 -0.1665501 0.4167294
vn -0.6223629 -0.155055 0.7672173
vn -0.2454278 -0.1689601 0.9545772
vn -0.2175666 0.2030643 0.9546883
vn -0.555428 0.1304781 0.8212644
vn -0.7903752 -0.1669567 0.5894342
vn -0.7715232 0.05920111 0.6334407
vn -0.8995101 0.06088237 0.4326371
vn 0.9218759 0.134308 0.3634641
vn 0.9214071 0.3724221 0.1109536
vn 0.9830338 0.1355113 0.1236172
vn 0.8486135 0.3651386 0.3827911
vn 0.7257971 0.6784703 0.1135638
vn 0.8396905 0.3464779 0.418178
vn 0.9124585 0.1774795 0.368674
vn 0.6879506 0.6122261 0.3897477
vn 0.3435221 0.9307858 0.1250219
vn 0.8665823 0.3650977 0.3402044
vn 0.9271545 0.168637 0.3345834
vn 0.6497796 0.6438947 0.403963
vn 0.6528114 0.5951979 0.4685901
vn 0.3293191 0.799006 0.5031285
vn 0.3037747 0.8267112 0.4735709
vn 0.01405222 0.8713452 0.4904691
vn -0.01452195 0.8712937 0.4905471
vn -0.06786641 0.9067886 0.4160872
vn 0.3395492 0.8411129 0.4209935
vn -0.1057797 0.9858699 0.1298896
vn 0.7638372 0.1539109 0.6267887
vn 0.8665823 0.3650977 0.3402044
vn 0.9271545 0.168637 0.3345834
vn 0.6935582 0.3948552 0.6025501
vn 0.3100984 0.1858217 0.9323676
vn 0.6497796 0.6438947 0.403963
vn 0.2408735 0.4368362 0.8666915
vn -0.2175666 0.2030643 0.9546883
vn -0.1508507 0.4361867 0.8871219
vn -0.05891821 0.6860122 0.7252006
vn 0.566759 0.6242837 0.5376377
vn 0.2149674 0.6938608 0.6872745
vn 0.01405222 0.8713452 0.4904691
vn 0.3037747 0.8267112 0.4735709
vn 0.7638372 0.1539109 0.6267887
vn 0.9271545 0.168637 0.3345834
vn 0.9358605 -0.0685874 0.3456313
vn 0.7868846 -0.1719084 0.5926719
vn 0.3100984 0.1858217 0.9323676
vn 0.8620867 -0.3792722 0.336094
vn 0.346364 -0.2021462 0.9160616
vn -0.2175666 0.2030643 0.9546883
vn -0.2454278 -0.1689601 0.9545772
vn 0.6994579 -0.5037741 0.5069224
vn 0.708477 -0.6453444 0.2856414
vn 0.3126145 -0.5978425 0.738144
vn -0.2015408 -0.5890657 0.782549
vn 0.5441711 -0.7263574 0.4198604
vn 0.4747058 -0.8559659 0.2048821
vn 0.2415885 -0.8082525 0.5369942
vn -0.1026541 -0.8244282 0.5565791
vn 0.2128134 -0.9119899 0.3506919
vn 0.002509027 -0.9361656 0.3515503
vn 0.08718628 -0.9849235 0.1494132
vn 0.2647152 -0.9520524 0.1533688
vn 0.4257441 -0.846644 0.3192741
vn -0.5060667 0.8548224 0.1147827
vn -0.1264797 0.9764657 -0.1746925
vn -0.1057797 0.9858699 0.1298896
vn -0.5199723 0.8346793 -0.1814916
vn -0.7700846 0.6330456 0.07888573
vn -0.5120978 0.776394 -0.3673801
vn -0.1432511 0.926631 -0.3476119
vn -0.7694352 0.6002391 -0.218363
vn -0.9246059 0.3780227 0.04693332
vn -0.4599213 0.7129812 -0.5292731
vn -0.1586636 0.869058 -0.4685766
vn -0.6418059 0.5107602 -0.572022
vn -0.7363805 0.5492346 -0.3950763
vn -0.8930652 0.3596439 -0.2703531
vn -0.9988378 0.03776128 0.0299523
vn -0.9564976 0.02899303 -0.2902961
vn -0.8506114 0.2974913 -0.4335426
vn -0.755283 0.2552176 -0.6036651
vn -0.8871508 -0.003933584 -0.461463
vn -0.8077327 -0.03902442 -0.5882559
vn 0.8305167 0.08900104 -0.5498372
vn 0.9105825 -0.1198197 -0.3955788
vn 0.9149454 0.130481 -0.3819025
vn 0.8257993 -0.1783764 -0.5350115
vn 0.6752871 -0.2575634 -0.6911212
vn 0.6687396 0.07912628 -0.7392743
vn 0.7512349 -0.4204436 -0.5087959
vn 0.8463711 -0.3715016 -0.3816315
vn 0.2287409 -0.3401546 -0.9121252
vn 0.2454873 0.06603925 -0.9671478
vn 0.1623524 -0.6644955 -0.7294433
vn 0.5716369 -0.5453218 -0.6130706
vn 0.382912 -0.7731373 -0.5056056
vn 0.07157924 -0.8497016 -0.5223825
vn -0.01853086 -0.9429414 -0.3324428
vn 0.6060908 -0.659813 -0.4441854
vn 0.6877543 -0.6522422 -0.3187072
vn 0.4022593 -0.8875862 -0.224451
vn 0.3834861 -0.8616244 -0.3324783
vn 0.1221097 -0.9723114 -0.1992477
vn 0.1747108 -0.9253334 -0.3365031
vn -0.07973107 -0.9787421 -0.1889627
vn -0.9465297 -0.3218229 0.02261693
vn -0.9564976 0.02899303 -0.2902961
vn -0.9988378 0.03776128 0.0299523
vn -0.9122592 -0.3264194 -0.2474541
vn -0.8356033 -0.5492563 -0.009211794
vn -0.8871508 -0.003933584 -0.461463
vn -0.8074573 -0.5549131 -0.20021
vn -0.6652428 -0.7450421 -0.04862379
vn -0.8515658 -0.2992529 -0.4304456
vn -0.8077327 -0.03902442 -0.5882559
vn -0.7944367 -0.2903246 -0.5334623
vn -0.7614638 -0.5346259 -0.3665354
vn -0.7253804 -0.5247849 -0.4454483
vn -0.6186306 -0.7625357 -0.1893024
vn -0.3810191 -0.9196799 -0.0949393
vn -0.5763964 -0.7593166 -0.3020024
vn -0.5727555 -0.7539397 -0.3217548
vn -0.3704842 -0.9076405 -0.1973074
vn -0.3477455 -0.9110776 -0.2213837
vn -0.226951 -0.9586049 -0.1719589
vn -0.3414839 -0.9207729 -0.1885895
vn -0.08073131 -0.9933304 -0.08232327
vn -0.1481141 -0.9800162 -0.1327804
vn 0.06728851 -0.9977322 0.001669572
vn -0.03116767 -0.9991232 -0.02795519
vn -0.08908862 -0.9910459 -0.09945501
vn -0.2186246 -0.9646779 -0.1469695
vn -0.07973107 -0.9787421 -0.1889627
vn -0.226951 -0.9586049 -0.1719589
vn -0.07973107 -0.9787421 -0.1889627
vn -0.01853086 -0.9429414 -0.3324428
vn -0.1867876 -0.9298794 -0.3169144
vn -0.3704842 -0.9076405 -0.1973074
vn -0.2245494 -0.8253323 -0.5180774
vn 0.07157924 -0.8497016 -0.5223825
vn 0.1623524 -0.6644955 -0.7294433
vn -0.3440493 -0.8937811 -0.2877244
vn -0.5727555 -0.7539397 -0.3217548
vn -0.478043 -0.76135 -0.4379739
vn -0.2933493 -0.6330798 -0.7163492
vn 0.2287409 -0.3401546 -0.9121252
vn -0.5925295 -0.556715 -0.5822173
vn -0.7253804 -0.5247849 -0.4454483
vn -0.3263772 -0.3271683 -0.8868138
vn 0.2454873 0.06603925 -0.9671478
vn -0.2812868 0.03452989 -0.9590023
vn -0.6237264 -0.02141353 -0.7813494
vn -0.6468263 -0.3001889 -0.7010723
vn -0.7944367 -0.2903246 -0.5334623
vn -0.8077327 -0.03902442 -0.5882559
vn -0.8995101 0.06088237 0.4326371
vn -0.893643 -0.1665501 0.4167294
vn -0.9455718 -0.1868314 0.2664356
vn -0.9437197 0.07464848 0.3222122
vn -0.8300865 -0.4285776 0.35676
vn -0.9489348 -0.2573491 0.1824672
vn -0.9636077 0.05680332 0.2612154
vn -0.9988378 0.03776128 0.0299523
vn -0.9465297 -0.3218229 0.02261693
vn -0.8707993 -0.4557323 0.1844359
vn -0.6750807 -0.6897047 0.2618653
vn -0.8580179 -0.5065878 0.0846995
vn -0.8356033 -0.5492563 -0.009211794
vn -0.6987604 -0.704665 0.1232116
vn -0.4568962 -0.8710665 0.1802468
vn -0.694805 -0.7188776 0.02147256
vn -0.6652428 -0.7450421 -0.04862379
vn -0.3810191 -0.9196799 -0.0949393
vn -0.4237108 -0.9056149 -0.01819133
vn -0.08073131 -0.9933304 -0.08232327
vn -0.4483239 -0.8899192 0.08396136
vn -0.1689181 -0.9738262 0.1520831
vn -0.1125534 -0.9932157 0.02922765
vn 0.08718628 -0.9849235 0.1494132
vn 0.1293813 -0.9915243 -0.01183009
vn 0.1303664 -0.9909101 -0.03319178
vn -0.06932016 -0.9966896 -0.04247937
vn 0.06728851 -0.9977322 0.001669572
vn -0.8511015 0.329546 0.4086877
vn -0.6545517 0.6450647 0.394276
vn -0.584468 0.5723382 0.5751749
vn -0.305573 0.8350553 0.4575016
vn -0.7098438 0.3074431 0.6337196
vn -0.8995101 0.06088237 0.4326371
vn -0.7715232 0.05920111 0.6334407
vn -0.3005221 0.6733192 0.6755202
vn 0.01405222 0.8713452 0.4904691
vn -0.05891821 0.6860122 0.7252006
vn -0.4329126 0.370901 0.8215955
vn -0.555428 0.1304781 0.8212644
vn -0.1508507 0.4361867 0.8871219
vn -0.2175666 0.2030643 0.9546883
vn 0.7402831 0.3785469 -0.5555927
vn 0.8305167 0.08900104 -0.5498372
vn 0.9149454 0.130481 -0.3819025
vn 0.8330368 0.4049056 -0.3769631
vn 0.6031066 0.354995 -0.7143115
vn 0.6687396 0.07912628 -0.7392743
vn 0.2454873 0.06603925 -0.9671478
vn 0.5248966 0.6354732 -0.5662663
vn 0.6087952 0.6807942 -0.4072929
vn 0.3866133 0.5924215 -0.7068004
vn 0.2360159 0.357138 -0.9037417
vn -0.2812868 0.03452989 -0.9590023
vn 0.1989383 0.7689417 -0.607579
vn 0.245836 0.8646842 -0.4380478
vn 0.195406 0.5315471 -0.8241809
vn -0.2110852 0.3251051 -0.9218187
vn -0.6237264 -0.02141353 -0.7813494
vn 0.04629421 0.6687915 -0.7420073
vn -0.1221845 0.5394194 -0.8331252
vn -0.5310171 0.2729504 -0.8021963
vn -0.8077327 -0.03902442 -0.5882559
vn -0.755283 0.2552176 -0.6036651
vn -0.4031061 0.5051974 -0.7630734
vn -0.6418059 0.5107602 -0.572022
vn -0.4599213 0.7129812 -0.5292731
vn -0.277417 0.6516637 -0.7059563
vn -0.1097742 0.7798896 -0.6162157
vn -0.1586636 0.869058 -0.4685766
vt 0.532171 0.621329
vt 0.522141 0.687417
vt 0.573958 0.691878
vt 0.580542 0.623696
vt 0.541241 0.542783
vt 0.623713 0.694603
vt 0.584818 0.543417
vt 0.538266 0.463098
vt 0.628193 0.625043
vt 0.581409 0.462364
vt 0.522141 0.400691
vt 0.569925 0.393677
vt 0.678672 0.641419
vt 0.677784 0.686674
vt 0.680631 0.545485
vt 0.631033 0.544097
vt 0.627753 0.462781
vt 0.618598 0.388974
vt 0.677643 0.463641
vt 0.669898 0.387541
vt 0.845136 0.310662
vt 0.779793 0.374517
vt 0.852281 0.363466
vt 0.77782 0.321101
vt 0.833882 0.256088
vt 0.704387 0.378717
vt 0.77584 0.267995
vt 0.821028 0.198696
vt 0.769688 0.213269
vt 0.706366 0.324904
vt 0.631475 0.378541
vt 0.71122 0.270457
vt 0.718827 0.22131
vt 0.637809 0.321225
vt 0.645782 0.263629
vt 0.657856 0.206965
vt 0.600474 0.193625
vt 0.588761 0.254038
vt 0.578995 0.314193
vt 0.5694 0.374517
vt 0.818405 0.93994
vt 0.764646 0.984075
vt 0.81705 0.99
vt 0.766498 0.936125
vt 0.81992 0.891619
vt 0.715049 0.977331
vt 0.768295 0.890267
vt 0.820346 0.845268
vt 0.718928 0.933352
vt 0.769076 0.845562
vt 0.819485 0.80079
vt 0.674109 0.930842
vt 0.668256 0.970018
vt 0.679535 0.891808
vt 0.721377 0.88991
vt 0.674592 0.851628
vt 0.768468 0.80196
vt 0.819014 0.755359
vt 0.72191 0.845657
vt 0.719611 0.803583
vt 0.669561 0.807734
vt 0.766598 0.757004
vt 0.71728 0.759111
vt 0.665364 0.763128
vt 0.662222 0.711435
vt 0.714102 0.705724
vt 0.764646 0.702055
vt 0.818205 0.690821
vt 0.37872 0.887251
vt 0.417663 0.818716
vt 0.369267 0.831504
vt 0.425331 0.875391
vt 0.387723 0.940546
vt 0.472185 0.864596
vt 0.463915 0.80777
vt 0.432942 0.93021
vt 0.397941 0.99
vt 0.437871 0.982483
vt 0.473452 0.979057
vt 0.477941 0.921763
vt 0.517272 0.979711
vt 0.518551 0.919248
vt 0.556168 0.984259
vt 0.515385 0.856701
vt 0.507753 0.799284
vt 0.558387 0.918158
vt 0.597027 0.988101
vt 0.555299 0.853881
vt 0.550424 0.793696
vt 0.598439 0.919946
vt 0.644308 0.99
vt 0.646618 0.921697
vt 0.598125 0.85259
vt 0.595455 0.791912
vt 0.64935 0.854862
vt 0.659755 0.794519
vt 0.628996 0.173457
vt 0.674334 0.15567
vt 0.657126 0.117746
vt 0.620849 0.137097
vt 0.580064 0.146683
vt 0.583554 0.190372
vt 0.612243 0.109454
vt 0.633866 0.083594
vt 0.597741 0.062402
vt 0.582392 0.102458
vt 0.538646 0.150481
vt 0.54036 0.201957
vt 0.542567 0.099495
vt 0.554776 0.047293
vt 0.509851 0.039097
vt 0.49628 0.151651
vt 0.496973 0.209138
vt 0.447108 0.209802
vt 0.447108 0.150833
vt 0.500174 0.096425
vt 0.450548 0.092808
vt 0.459274 0.033951
vt 0.303299 0.472926
vt 0.259093 0.540744
vt 0.303898 0.534302
vt 0.238421 0.483007
vt 0.163471 0.542912
vt 0.2324 0.420397
vt 0.28906 0.408273
vt 0.168825 0.488086
vt 0.082858 0.53119
vt 0.223476 0.353858
vt 0.278186 0.340916
vt 0.168546 0.370653
vt 0.168828 0.425146
vt 0.109768 0.422852
vt 0.121825 0.364059
vt 0.072677 0.353858
vt 0.053798 0.409519
vt 0.029956 0.461099
vt 0.096505 0.478719
vt 0.01 0.510544
vt 0.93663 0.167406
vt 0.842712 0.180309
vt 0.887084 0.218996
vt 0.883269 0.138874
vt 0.964457 0.101582
vt 0.801017 0.135128
vt 0.906692 0.087282
vt 0.972037 0.036492
vt 0.912932 0.030636
vt 0.841859 0.029959
vt 0.847299 0.11812
vt 0.845258 0.077264
vt 0.780539 0.036492
vt 0.787596 0.086773
vt 0.749582 0.39721
vt 0.682352 0.409726
vt 0.687283 0.457493
vt 0.753969 0.445536
vt 0.82116 0.39721
vt 0.695494 0.501175
vt 0.820899 0.44648
vt 0.888208 0.410113
vt 0.882199 0.462591
vt 0.758213 0.486074
vt 0.708686 0.539971
vt 0.817109 0.487861
vt 0.86882 0.506882
vt 0.766073 0.525405
vt 0.732978 0.577105
vt 0.809562 0.52812
vt 0.848232 0.547499
vt 0.795393 0.567221
vt 0.822423 0.588099
vt 0.79236 0.62647
vt 0.758923 0.602484
vt 0.762636 0.552607
vt 0.510594 0.233985
vt 0.564103 0.300831
vt 0.581409 0.253094
vt 0.495677 0.282974
vt 0.436116 0.217372
vt 0.481782 0.333068
vt 0.545034 0.346278
vt 0.424622 0.269927
vt 0.363065 0.207232
vt 0.474951 0.387806
vt 0.525363 0.391218
vt 0.416395 0.390835
vt 0.418211 0.328646
vt 0.356887 0.264147
vt 0.300375 0.203605
vt 0.295417 0.262575
vt 0.353858 0.327143
vt 0.356202 0.398886
vt 0.296968 0.329869
vt 0.300375 0.402246
vt 0.437472 0.136623
vt 0.382348 0.188491
vt 0.433957 0.192542
vt 0.38895 0.132233
vt 0.390324 0.073954
vt 0.439267 0.075979
vt 0.347285 0.130013
vt 0.337912 0.182334
vt 0.382741 0.013395
vt 0.433957 0.01
vt 0.338888 0.02376
vt 0.348529 0.076461
vt 0.308298 0.082202
vt 0.295701 0.039846
vt 0.255261 0.060041
vt 0.308519 0.126459
vt 0.296943 0.169042
vt 0.262192 0.150062
vt 0.281066 0.121865
vt 0.237676 0.119346
vt 0.269494 0.095055
vt 0.21558 0.086029
vt 0.291234 0.548833
vt 0.343706 0.609735
vt 0.345056 0.550531
vt 0.292683 0.607434
vt 0.241777 0.55249
vt 0.336025 0.677039
vt 0.245727 0.608542
vt 0.18957 0.560044
vt 0.288475 0.67173
vt 0.324279 0.748493
vt 0.277932 0.740952
vt 0.245249 0.668853
vt 0.237984 0.732923
vt 0.19766 0.613667
vt 0.138267 0.571786
vt 0.201715 0.669868
vt 0.197499 0.727215
vt 0.158137 0.727365
vt 0.155679 0.676565
vt 0.117971 0.736985
vt 0.148102 0.625129
vt 0.088798 0.587344
vt 0.09966 0.640057
vt 0.041935 0.603893
vt 0.053086 0.655381
vt 0.064164 0.703141
vt 0.109357 0.688993
vt 0.076817 0.748493
vt 0.109553 0.336639
vt 0.14655 0.359287
vt 0.172676 0.31972
vt 0.138054 0.301125
vt 0.075516 0.311585
vt 0.153838 0.264628
vt 0.198464 0.282227
vt 0.222045 0.241912
vt 0.104724 0.289448
vt 0.050962 0.279962
vt 0.102775 0.26146
vt 0.165044 0.226766
vt 0.239811 0.19995
vt 0.099822 0.226275
vt 0.03379 0.24185
vt 0.172938 0.186991
vt 0.252219 0.150823
vt 0.180012 0.140846
vt 0.097397 0.140846
vt 0.098302 0.187346
vt 0.024586 0.200803
vt 0.017984 0.152754
vt 0.33727 0.447589
vt 0.343386 0.496988
vt 0.403548 0.489607
vt 0.398765 0.440991
vt 0.351157 0.540819
vt 0.463355 0.484912
vt 0.459836 0.433642
vt 0.520738 0.428829
vt 0.520738 0.482107
vt 0.407639 0.534384
vt 0.36053 0.584899
vt 0.465014 0.531972
vt 0.520957 0.531545
vt 0.41031 0.580599
vt 0.366845 0.626562
vt 0.465103 0.581197
vt 0.519949 0.584401
vt 0.517012 0.637039
vt 0.462165 0.631641
vt 0.512295 0.688939
vt 0.410409 0.627857
vt 0.359264 0.667206
vt 0.40541 0.674002
vt 0.349242 0.707143
vt 0.398569 0.718485
vt 0.452044 0.729285
vt 0.457624 0.680326
vt 0.507708 0.738513
vt 0.824887 0.682128
vt 0.85703 0.739082
vt 0.885783 0.706847
vt 0.902828 0.767452
vt 0.875015 0.664718
vt 0.806725 0.623994
vt 0.864342 0.60517
vt 0.925163 0.720789
vt 0.955001 0.78442
vt 0.974203 0.724367
vt 0.927161 0.655743
vt 0.922836 0.596751
vt 0.982016 0.654453
vt 0.982016 0.59544
vt 0.295474 0.81741
vt 0.344161 0.859018
vt 0.371484 0.806684
vt 0.312135 0.770236
vt 0.269887 0.862306
vt 0.3054 0.912116
vt 0.250047 0.958024
vt 0.227796 0.782555
vt 0.234657 0.742604
vt 0.215412 0.824688
vt 0.22747 0.902148
vt 0.175376 0.983602
vt 0.156808 0.784912
vt 0.151551 0.742604
vt 0.207524 0.862228
vt 0.16476 0.928975
vt 0.091368 0.99
vt 0.15616 0.822013
vt 0.152559 0.869966
vt 0.089036 0.93465
vt 0.01 0.983426
vt 0.011142 0.924485
vt 0.08881 0.877373
vt 0.02254 0.860352
vt 0.051814 0.805663
vt 0.094696 0.830077
vt 0.107419 0.792721
vt 0.089344 0.769398
usemtl Potato1_Mat2
f 3/3/3 2/2/2 1/1/1
f 4/4/4 3/3/3 1/1/1
f 1/1/1 5/5/5 4/4/4
f 3/3/3 4/4/4 6/6/6
f 5/5/5 7/7/7 4/4/4
f 7/7/7 5/5/5 8/8/8
f 4/4/4 9/9/9 6/6/6
f 9/9/9 4/4/4 7/7/7
f 10/10/10 7/7/7 8/8/8
f 8/8/8 11/11/11 10/10/10
f 11/11/11 12/12/12 10/10/10
f 6/6/6 9/9/9 13/13/13
f 14/14/14 6/6/6 13/13/13
f 13/13/13 9/9/9 15/15/15
f 16/16/16 9/9/9 7/7/7
f 7/7/7 10/10/10 16/16/16
f 9/9/9 16/16/16 15/15/15
f 17/17/17 10/10/10 12/12/12
f 10/10/10 17/17/17 16/16/16
f 15/15/15 16/16/16 17/17/17
f 18/18/18 17/17/17 12/12/12
f 19/19/19 15/15/15 17/17/17
f 17/17/17 18/18/18 19/19/19
f 18/18/18 20/20/20 19/19/19
f 23/23/23 22/22/22 21/21/21
f 22/22/22 24/24/24 21/21/21
f 21/21/21 24/24/24 25/25/25
f 22/22/22 26/26/26 24/24/24
f 24/24/24 27/27/27 25/25/25
f 28/28/28 25/25/25 27/27/27
f 29/29/29 28/28/28 27/27/27
f 26/26/26 30/30/30 24/24/24
f 24/24/24 30/30/30 27/27/27
f 26/26/26 31/31/31 30/30/30
f 27/27/27 32/32/32 29/29/29
f 30/30/30 32/32/32 27/27/27
f 32/32/32 33/33/33 29/29/29
f 31/31/31 34/34/34 30/30/30
f 30/30/30 34/34/34 32/32/32
f 33/33/33 32/32/32 35/35/35
f 34/34/34 35/35/35 32/32/32
f 36/36/36 33/33/33 35/35/35
f 36/36/36 35/35/35 37/37/37
f 35/35/35 38/38/38 37/37/37
f 38/38/38 35/35/35 39/39/39
f 35/35/35 34/34/34 39/39/39
f 34/34/34 31/31/31 39/39/39
f 31/31/31 40/40/40 39/39/39
f 43/43/43 42/42/42 41/41/41
f 42/42/42 44/44/44 41/41/41
f 41/41/41 44/44/44 45/45/45
f 42/42/42 46/46/46 44/44/44
f 44/44/44 47/47/47 45/45/45
f 45/45/45 47/47/47 48/48/48
f 46/46/46 49/49/49 44/44/44
f 44/44/44 49/49/49 47/47/47
f 47/47/47 50/50/50 48/48/48
f 48/48/48 50/50/50 51/51/51
f 52/52/52 49/49/49 46/46/46
f 53/53/53 52/52/52 46/46/46
f 49/49/49 52/52/52 54/54/54
f 49/49/49 55/55/55 47/47/47
f 55/55/55 49/49/49 54/54/54
f 47/47/47 55/55/55 50/50/50
f 54/54/54 56/56/56 55/55/55
f 50/50/50 57/57/57 51/51/51
f 51/51/51 57/57/57 58/58/58
f 55/55/55 59/59/59 50/50/50
f 56/56/56 59/59/59 55/55/55
f 50/50/50 59/59/59 57/57/57
f 59/59/59 56/56/56 60/60/60
f 59/59/59 60/60/60 57/57/57
f 56/56/56 61/61/61 60/60/60
f 57/57/57 62/62/62 58/58/58
f 57/57/57 60/60/60 62/62/62
f 60/60/60 61/61/61 63/63/63
f 60/60/60 63/63/63 62/62/62
f 61/61/61 64/64/64 63/63/63
f 63/63/63 64/64/64 65/65/65
f 66/66/66 63/63/63 65/65/65
f 62/62/62 63/63/63 66/66/66
f 67/67/67 62/62/62 66/66/66
f 58/58/58 62/62/62 67/67/67
f 68/68/68 58/58/58 67/67/67
f 71/71/71 70/70/70 69/69/69
f 70/70/70 72/72/72 69/69/69
f 73/73/73 69/69/69 72/72/72
f 72/72/72 70/70/70 74/74/74
f 70/70/70 75/75/75 74/74/74
f 76/76/76 73/73/73 72/72/72
f 72/72/72 74/74/74 76/76/76
f 73/73/73 76/76/76 77/77/77
f 76/76/76 78/78/78 77/77/77
f 78/78/78 76/76/76 79/79/79
f 76/76/76 80/80/80 79/79/79
f 74/74/74 80/80/80 76/76/76
f 79/79/79 80/80/80 81/81/81
f 80/80/80 82/82/82 81/81/81
f 82/82/82 80/80/80 74/74/74
f 81/81/81 82/82/82 83/83/83
f 74/74/74 75/75/75 84/84/84
f 84/84/84 82/82/82 74/74/74
f 75/75/75 85/85/85 84/84/84
f 82/82/82 86/86/86 83/83/83
f 82/82/82 84/84/84 86/86/86
f 83/83/83 86/86/86 87/87/87
f 84/84/84 85/85/85 88/88/88
f 84/84/84 88/88/88 86/86/86
f 85/85/85 89/89/89 88/88/88
f 86/86/86 90/90/90 87/87/87
f 86/86/86 88/88/88 90/90/90
f 87/87/87 90/90/90 91/91/91
f 90/90/90 92/92/92 91/91/91
f 88/88/88 89/89/89 93/93/93
f 88/88/88 93/93/93 90/90/90
f 90/90/90 93/93/93 92/92/92
f 89/89/89 94/94/94 93/93/93
f 93/93/93 95/95/95 92/92/92
f 93/93/93 94/94/94 95/95/95
f 94/94/94 96/96/96 95/95/95
f 99/99/99 98/98/98 97/97/97
f 100/100/100 99/99/99 97/97/97
f 101/101/101 100/100/100 97/97/97
f 102/102/102 101/101/101 97/97/97
f 99/99/99 100/100/100 103/103/103
f 104/104/104 99/99/99 103/103/103
f 105/105/105 104/104/104 103/103/103
f 103/103/103 100/100/100 106/106/106
f 100/100/100 101/101/101 106/106/106
f 106/106/106 105/105/105 103/103/103
f 107/107/107 101/101/101 102/102/102
f 106/106/106 101/101/101 107/107/107
f 108/108/108 107/107/107 102/102/102
f 105/105/105 106/106/106 109/109/109
f 109/109/109 106/106/106 107/107/107
f 110/110/110 105/105/105 109/109/109
f 111/111/111 110/110/110 109/109/109
f 112/112/112 107/107/107 108/108/108
f 113/113/113 112/112/112 108/108/108
f 112/112/112 113/113/113 114/114/114
f 115/115/115 112/112/112 114/114/114
f 109/109/109 107/107/107 116/116/116
f 107/107/107 112/112/112 116/116/116
f 116/116/116 112/112/112 115/115/115
f 116/116/116 111/111/111 109/109/109
f 117/117/117 116/116/116 115/115/115
f 111/111/111 116/116/116 117/117/117
f 118/118/118 111/111/111 117/117/117
f 121/121/121 120/120/120 119/119/119
f 120/120/120 122/122/122 119/119/119
f 122/122/122 120/120/120 123/123/123
f 119/119/119 122/122/122 124/124/124
f 125/125/125 119/119/119 124/124/124
f 126/126/126 122/122/122 123/123/123
f 123/123/123 127/127/127 126/126/126
f 125/125/125 124/124/124 128/128/128
f 129/129/129 125/125/125 128/128/128
f 128/128/128 124/124/124 130/130/130
f 124/124/124 122/122/122 131/131/131
f 124/124/124 131/131/131 130/130/130
f 122/122/122 126/126/126 131/131/131
f 130/130/130 131/131/131 132/132/132
f 131/131/131 126/126/126 132/132/132
f 133/133/133 130/130/130 132/132/132
f 133/133/133 132/132/132 134/134/134
f 132/132/132 135/135/135 134/134/134
f 135/135/135 132/132/132 136/136/136
f 127/127/127 137/137/137 126/126/126
f 126/126/126 137/137/137 132/132/132
f 132/132/132 137/137/137 136/136/136
f 137/137/137 127/127/127 138/138/138
f 136/136/136 137/137/137 138/138/138
f 141/141/141 140/140/140 139/139/139
f 140/140/140 142/142/142 139/139/139
f 139/139/139 142/142/142 143/143/143
f 142/142/142 140/140/140 144/144/144
f 142/142/142 145/145/145 143/143/143
f 143/143/143 145/145/145 146/146/146
f 145/145/145 147/147/147 146/146/146
f 147/147/147 145/145/145 148/148/148
f 149/149/149 142/142/142 144/144/144
f 145/145/145 142/142/142 149/149/149
f 145/145/145 150/150/150 148/148/148
f 150/150/150 145/145/145 149/149/149
f 149/149/149 144/144/144 150/150/150
f 151/151/151 148/148/148 150/150/150
f 144/144/144 152/152/152 150/150/150
f 152/152/152 151/151/151 150/150/150
f 155/155/155 154/154/154 153/153/153
f 156/156/156 155/155/155 153/153/153
f 156/156/156 153/153/153 157/157/157
f 158/158/158 155/155/155 156/156/156
f 159/159/159 156/156/156 157/157/157
f 157/157/157 160/160/160 159/159/159
f 160/160/160 161/161/161 159/159/159
f 162/162/162 158/158/158 156/156/156
f 162/162/162 156/156/156 159/159/159
f 163/163/163 158/158/158 162/162/162
f 159/159/159 161/161/161 164/164/164
f 164/164/164 162/162/162 159/159/159
f 161/161/161 165/165/165 164/164/164
f 166/166/166 163/163/163 162/162/162
f 162/162/162 164/164/164 166/166/166
f 167/167/167 163/163/163 166/166/166
f 168/168/168 164/164/164 165/165/165
f 164/164/164 168/168/168 166/166/166
f 169/169/169 168/168/168 165/165/165
f 170/170/170 168/168/168 169/169/169
f 166/166/166 168/168/168 170/170/170
f 171/171/171 170/170/170 169/169/169
f 171/171/171 172/172/172 170/170/170
f 172/172/172 173/173/173 170/170/170
f 174/174/174 167/167/167 166/166/166
f 174/174/174 166/166/166 170/170/170
f 173/173/173 167/167/167 174/174/174
f 170/170/170 173/173/173 174/174/174
f 177/177/177 176/176/176 175/175/175
f 176/176/176 178/178/178 175/175/175
f 175/175/175 178/178/178 179/179/179
f 180/180/180 178/178/178 176/176/176
f 181/181/181 180/180/180 176/176/176
f 178/178/178 182/182/182 179/179/179
f 179/179/179 182/182/182 183/183/183
f 184/184/184 180/180/180 181/181/181
f 185/185/185 184/184/184 181/181/181
f 184/184/184 186/186/186 180/180/180
f 180/180/180 187/187/187 178/178/178
f 187/187/187 182/182/182 178/178/178
f 186/186/186 187/187/187 180/180/180
f 182/182/182 188/188/188 183/183/183
f 182/182/182 187/187/187 188/188/188
f 183/183/183 188/188/188 189/189/189
f 188/188/188 190/190/190 189/189/189
f 187/187/187 186/186/186 191/191/191
f 187/187/187 191/191/191 188/188/188
f 188/188/188 191/191/191 190/190/190
f 186/186/186 192/192/192 191/191/191
f 191/191/191 193/193/193 190/190/190
f 191/191/191 192/192/192 193/193/193
f 192/192/192 194/194/194 193/193/193
f 197/197/197 196/196/196 195/195/195
f 196/196/196 198/198/198 195/195/195
f 198/198/198 199/199/199 195/195/195
f 199/199/199 200/200/200 195/195/195
f 201/201/201 198/198/198 196/196/196
f 202/202/202 201/201/201 196/196/196
f 199/199/199 203/203/203 200/200/200
f 203/203/203 204/204/204 200/200/200
f 205/205/205 203/203/203 199/199/199
f 206/206/206 199/199/199 198/198/198
f 206/206/206 205/205/205 199/199/199
f 201/201/201 206/206/206 198/198/198
f 205/205/205 206/206/206 207/207/207
f 207/207/207 206/206/206 201/201/201
f 208/208/208 205/205/205 207/207/207
f 209/209/209 208/208/208 207/207/207
f 210/210/210 201/201/201 202/202/202
f 210/210/210 207/207/207 201/201/201
f 211/211/211 210/210/210 202/202/202
f 210/210/210 211/211/211 212/212/212
f 213/213/213 210/210/210 212/212/212
f 207/207/207 210/210/210 213/213/213
f 212/212/212 214/214/214 213/213/213
f 215/215/215 209/209/209 207/207/207
f 215/215/215 207/207/207 213/213/213
f 214/214/214 215/215/215 213/213/213
f 216/216/216 209/209/209 215/215/215
f 214/214/214 216/216/216 215/215/215
f 219/219/219 218/218/218 217/217/217
f 218/218/218 220/220/220 217/217/217
f 217/217/217 220/220/220 221/221/221
f 218/218/218 222/222/222 220/220/220
f 220/220/220 223/223/223 221/221/221
f 221/221/221 223/223/223 224/224/224
f 222/222/222 225/225/225 220/220/220
f 220/220/220 225/225/225 223/223/223
f 222/222/222 226/226/226 225/225/225
f 226/226/226 227/227/227 225/225/225
f 225/225/225 227/227/227 228/228/228
f 225/225/225 228/228/228 223/223/223
f 227/227/227 229/229/229 228/228/228
f 223/223/223 230/230/230 224/224/224
f 223/223/223 228/228/228 230/230/230
f 224/224/224 230/230/230 231/231/231
f 228/228/228 229/229/229 232/232/232
f 228/228/228 232/232/232 230/230/230
f 229/229/229 233/233/233 232/232/232
f 232/232/232 233/233/233 234/234/234
f 235/235/235 232/232/232 234/234/234
f 230/230/230 232/232/232 235/235/235
f 235/235/235 234/234/234 236/236/236
f 230/230/230 237/237/237 231/231/231
f 237/237/237 230/230/230 235/235/235
f 231/231/231 237/237/237 238/238/238
f 237/237/237 239/239/239 238/238/238
f 237/237/237 235/235/235 239/239/239
f 238/238/238 239/239/239 240/240/240
f 239/239/239 241/241/241 240/240/240
f 241/241/241 239/239/239 242/242/242
f 243/243/243 235/235/235 236/236/236
f 235/235/235 243/243/243 239/239/239
f 239/239/239 243/243/243 242/242/242
f 243/243/243 236/236/236 244/244/244
f 242/242/242 243/243/243 244/244/244
f 247/247/247 246/246/246 245/245/245
f 248/248/248 247/247/247 245/245/245
f 245/245/245 249/249/249 248/248/248
f 248/248/248 250/250/250 247/247/247
f 250/250/250 251/251/251 247/247/247
f 252/252/252 251/251/251 250/250/250
f 249/249/249 253/253/253 248/248/248
f 249/249/249 254/254/254 253/253/253
f 253/253/253 255/255/255 248/248/248
f 255/255/255 250/250/250 248/248/248
f 254/254/254 255/255/255 253/253/253
f 256/256/256 252/252/252 250/250/250
f 256/256/256 250/250/250 255/255/255
f 252/252/252 256/256/256 257/257/257
f 258/258/258 255/255/255 254/254/254
f 258/258/258 256/256/256 255/255/255
f 259/259/259 258/258/258 254/254/254
f 256/256/256 260/260/260 257/257/257
f 260/260/260 256/256/256 258/258/258
f 257/257/257 260/260/260 261/261/261
f 260/260/260 262/262/262 261/261/261
f 262/262/262 260/260/260 263/263/263
f 264/264/264 258/258/258 259/259/259
f 264/264/264 260/260/260 258/258/258
f 260/260/260 264/264/264 263/263/263
f 265/265/265 264/264/264 259/259/259
f 263/263/263 264/264/264 265/265/265
f 266/266/266 263/263/263 265/265/265
f 269/269/269 268/268/268 267/267/267
f 270/270/270 269/269/269 267/267/267
f 268/268/268 269/269/269 271/271/271
f 272/272/272 269/269/269 270/270/270
f 273/273/273 272/272/272 270/270/270
f 273/273/273 274/274/274 272/272/272
f 274/274/274 275/275/275 272/272/272
f 269/269/269 276/276/276 271/271/271
f 269/269/269 272/272/272 276/276/276
f 271/271/271 276/276/276 277/277/277
f 272/272/272 275/275/275 278/278/278
f 272/272/272 278/278/278 276/276/276
f 275/275/275 279/279/279 278/278/278
f 276/276/276 280/280/280 277/277/277
f 276/276/276 278/278/278 280/280/280
f 277/277/277 280/280/280 281/281/281
f 278/278/278 279/279/279 282/282/282
f 278/278/278 282/282/282 280/280/280
f 279/279/279 283/283/283 282/282/282
f 283/283/283 284/284/284 282/282/282
f 284/284/284 285/285/285 282/282/282
f 280/280/280 282/282/282 285/285/285
f 284/284/284 286/286/286 285/285/285
f 280/280/280 287/287/287 281/281/281
f 287/287/287 280/280/280 285/285/285
f 281/281/281 287/287/287 288/288/288
f 287/287/287 289/289/289 288/288/288
f 287/287/287 285/285/285 289/289/289
f 288/288/288 289/289/289 290/290/290
f 289/289/289 291/291/291 290/290/290
f 292/292/292 291/291/291 289/289/289
f 286/286/286 293/293/293 285/285/285
f 285/285/285 293/293/293 289/289/289
f 293/293/293 292/292/292 289/289/289
f 293/293/293 286/286/286 294/294/294
f 292/292/292 293/293/293 294/294/294
f 297/297/297 296/296/296 295/295/295
f 298/298/298 296/296/296 297/297/297
f 299/299/299 297/297/297 295/295/295
f 299/299/299 295/295/295 300/300/300
f 301/301/301 299/299/299 300/300/300
f 302/302/302 298/298/298 297/297/297
f 297/297/297 299/299/299 302/302/302
f 303/303/303 298/298/298 302/302/302
f 304/304/304 303/303/303 302/302/302
f 299/299/299 301/301/301 305/305/305
f 299/299/299 305/305/305 302/302/302
f 304/304/304 302/302/302 305/305/305
f 301/301/301 306/306/306 305/305/305
f 307/307/307 304/304/304 305/305/305
f 305/305/305 306/306/306 308/308/308
f 307/307/307 305/305/305 308/308/308
f 311/311/311 310/310/310 309/309/309
f 312/312/312 311/311/311 309/309/309
f 309/309/309 310/310/310 313/313/313
f 310/310/310 314/314/314 313/313/313
f 314/314/314 315/315/315 313/313/313
f 312/312/312 309/309/309 316/316/316
f 317/317/317 312/312/312 316/316/316
f 309/309/309 313/313/313 318/318/318
f 316/316/316 309/309/309 318/318/318
f 315/315/315 319/319/319 313/313/313
f 315/315/315 320/320/320 319/319/319
f 316/316/316 321/321/321 317/317/317
f 321/321/321 322/322/322 317/317/317
f 313/313/313 319/319/319 323/323/323
f 318/318/318 313/313/313 323/323/323
f 320/320/320 324/324/324 319/319/319
f 319/319/319 324/324/324 323/323/323
f 324/324/324 320/320/320 325/325/325
f 316/316/316 318/318/318 326/326/326
f 321/321/321 316/316/316 326/326/326
f 323/323/323 327/327/327 318/318/318
f 324/324/324 327/327/327 323/323/323
f 327/327/327 326/326/326 318/318/318
f 328/328/328 324/324/324 325/325/325
f 324/324/324 328/328/328 327/327/327
f 328/328/328 325/325/325 329/329/329
f 330/330/330 328/328/328 329/329/329
f 328/328/328 331/331/331 327/327/327
f 331/331/331 328/328/328 330/330/330
f 327/327/327 331/331/331 326/326/326
f 332/332/332 331/331/331 330/330/330
f 331/331/331 332/332/332 333/333/333
f 331/331/331 334/334/334 326/326/326
f 326/326/326 334/334/334 321/321/321
f 334/334/334 331/331/331 333/333/333
f 334/334/334 335/335/335 321/321/321
f 335/335/335 334/334/334 333/333/333
f 321/321/321 335/335/335 322/322/322
f 336/336/336 335/335/335 333/333/333
f 335/335/335 336/336/336 322/322/322
