mtllib material.mtl
usemtl material_0
v -0.00176920 -0.03585339 -0.00368685
v -0.00394977 -0.03587949 -0.00076085
v 0.00000000 -0.03626698 -0.00000000
v 0.00211299 -0.03591603 -0.00329794
v -0.00263371 -0.03587949 0.00304008
v 0.00131607 -0.03587949 0.00380092
v -0.00306324 -0.03516104 0.00601752
v 0.00035582 -0.03516104 0.00674288
v 0.00441742 -0.03519557 0.00510313
v -0.00179968 -0.03374104 0.00964853
v 0.00326581 -0.03374104 0.00925567
v -0.00638287 -0.03374104 0.00745630
v -0.00247126 -0.03169366 0.01273018
v -0.00566155 -0.03516104 0.00367949
v -0.00674288 -0.03516104 0.00035582
v -0.00950422 -0.03377417 0.00254654
v -0.00850529 -0.03169366 0.00978902
v -0.00789539 -0.02918285 0.01367547
v -0.00344796 -0.02757389 0.01700132
v -0.00925662 -0.02616721 0.01603304
v -0.00677994 -0.02225730 0.02008574
v -0.01304331 -0.02200752 0.01699832
v -0.01299965 -0.02757389 0.01148678
v -0.01296842 -0.03064614 0.00596400
v -0.00601737 -0.03516104 -0.00306308
v -0.00294606 -0.03519557 -0.00607255
v -0.00176920 -0.03585339 -0.00368685
v -0.00869700 -0.03383638 -0.00447747
v -0.01293611 -0.03169367 -0.00090764
v -0.01074911 -0.03169366 -0.00725413
v -0.01525286 -0.02918286 -0.00408697
v -0.01597725 -0.02886331 0.00210359
v -0.01747559 -0.02566063 0.00723867
v -0.01969927 -0.02432290 -0.00259333
v -0.01907030 -0.02402790 -0.00642734
v -0.01764663 -0.02225729 0.01174744
v -0.01959029 -0.01688109 0.01374901
v -0.01539145 -0.01827612 0.01749947
v -0.01643923 -0.01396858 0.01870258
v -0.01866578 -0.02584647 0.00118686
v -0.02127871 -0.02017727 0.00718502
v -0.02197904 -0.02083505 0.00197783
v -0.02325728 -0.01827613 -0.00149067
v -0.02441660 -0.01396857 0.00488529
v -0.02232023 -0.01396857 0.01103836
v -0.02457213 -0.00941626 0.00831884
v -0.02158175 -0.00941627 0.01439513
v -0.02568294 -0.01091177 0.00114115
v -0.02207897 -0.01827613 -0.00745925
v -0.01699831 -0.02200753 -0.01304318
v -0.01959029 -0.01688109 -0.01374901
v -0.02232023 -0.01396858 -0.01103838
v -0.02441660 -0.01396858 -0.00488530
v -0.02599379 -0.00750048 -0.00342225
v -0.02457213 -0.00941626 -0.00831884
v -0.01712059 -0.00941626 0.01949029
v -0.01103837 -0.01396858 0.02232007
v -0.02208828 -0.00364446 0.01452749
v -0.01757560 -0.00364446 0.01974923
v -0.02509556 -0.00364448 0.00831568
v -0.02361027 0.00368786 0.01113534
v -0.02568787 0.00368788 0.00464499
v 0.01757560 -0.00364448 -0.01974925
v 0.01319502 -0.00291973 -0.02285459
v 0.01439499 -0.00941628 -0.02158176
v 0.00831551 -0.00364449 -0.02509557
v 0.00999060 0.00332534 -0.02411921
v 0.01279854 0.00718319 -0.02216785
v 0.00831868 -0.00941627 -0.02457199
v 0.00464518 0.00368787 -0.02568772
v 0.01103837 -0.01396859 -0.02232008
v 0.01643923 -0.01396859 -0.01870259
v 0.00996566 -0.02017728 -0.02012697
v 0.00488545 -0.01396859 -0.02441660
v 0.00441694 -0.02017727 -0.02202032
v -0.00149050 -0.01827613 -0.02325728
v 0.00793333 0.01125342 -0.02337364
v 0.01312599 0.01409124 -0.01969516
v 0.01656595 0.00953343 -0.01885194
v 0.01686673 0.00368788 -0.01992381
v 0.02144867 0.00368787 -0.01487939
v 0.01867735 0.01200837 -0.01573032
v 0.02213728 0.01125344 -0.01091788
v 0.02456881 0.00368786 -0.00882114
v 0.02208829 -0.00364447 -0.01452750
v 0.02365997 -0.00722310 -0.01139204
v 0.02420886 0.01125343 -0.00481638
v 0.01969306 0.02085241 -0.00663656
v 0.01812174 0.02046260 -0.01046263
v 0.01394629 0.02758865 -0.00924538
v 0.01559384 0.02085241 -0.01373641
v 0.01218244 0.02379717 -0.01492923
v 0.00923247 0.02085239 -0.01861785
v 0.00958907 0.02879014 -0.01249654
v 0.00795816 0.02580351 -0.01606612
v 0.00436349 0.02771100 -0.01609343
v 0.00409922 0.02085240 -0.02037297
v 0.00795923 0.03154356 -0.01037270
v 0.00186505 0.01098466 -0.02469816
v 0.01077810 0.03162210 -0.00715930
v 0.01586406 0.02758865 -0.00532100
v 0.00004953 0.02771100 -0.01667424
v 0.00247362 0.03170442 -0.01271795
v -0.00131331 0.02085237 -0.02073977
v -0.00426782 0.02771100 -0.01611899
v -0.00663640 0.02085241 -0.01969307
v -0.00151972 0.01409125 -0.02361952
v -0.00532393 0.01056950 -0.02427260
v -0.00216161 0.00368788 -0.02601473
v -0.00421676 0.03170442 -0.01225080
v -0.00000001 -0.00291970 -0.02639002
v -0.00534630 -0.00364448 -0.02589112
v 0.00342211 -0.00750049 -0.02599364
v -0.00167555 -0.00941626 -0.02588776
v -0.00160052 -0.01396858 -0.02484901
v 0.00130539 0.03389867 -0.00991555
v -0.00332649 0.03394327 -0.00940100
v 0.00564626 0.03394327 -0.00821954
v 0.00212836 0.03564775 -0.00662558
v 0.00515594 0.03564775 -0.00467376
v 0.00916900 0.03400275 -0.00379798
v 0.01241000 0.03173999 -0.00332534
v 0.01683886 0.02749055 -0.00030438
v 0.02073975 0.02085240 -0.00131347
v 0.01271795 0.03170442 0.00247344
v 0.00991555 0.03389867 0.00130537
v 0.00680208 0.03564776 -0.00146963
v 0.00821967 0.03394327 0.00564625
v 0.02232023 -0.01396857 0.01103837
v 0.02207897 -0.01827612 0.00745924
v 0.01939609 -0.01827613 0.01291931
v 0.01675695 -0.02402789 0.01114409
v 0.01330155 -0.02402789 0.01510137
v 0.01116589 -0.02918285 0.01116589
v 0.00708256 -0.02898376 0.01427776
v 0.00905838 -0.02425689 0.01780314
v 0.00422489 -0.03169366 0.01226027
v 0.00276483 -0.02775442 0.01699526
v 0.00677993 -0.02225730 0.02008574
v 0.01033782 -0.01827612 0.02088674
v 0.00457965 -0.01827612 0.02285054
v 0.01103837 -0.01396858 0.02232007
v -0.00000000 -0.02320589 0.02067617
v 0.00488545 -0.01396857 0.02441661
v 0.01149292 -0.00941627 0.02325730
v 0.00508183 -0.00941627 0.02543942
v -0.00149052 -0.01827613 0.02325727
v -0.00160053 -0.01396857 0.02484901
v -0.00629769 -0.01576790 0.02350312
v -0.00167557 -0.00941626 0.02588775
v 0.00534631 -0.00364446 0.02589112
v -0.01033782 -0.01827613 0.02088674
v -0.01149292 -0.00941627 0.02325730
v -0.00670109 -0.00939507 0.02500849
v -0.00153696 -0.00364445 0.02639280
v -0.00831553 -0.00364446 0.02509556
v -0.01319501 -0.00291973 0.02285458
v 0.00216160 0.00368787 0.02601472
v -0.00340759 0.00332532 0.02588325
v -0.00882113 0.00368787 0.02456880
v -0.01487938 0.00368788 0.02144866
v 0.00882113 0.00368786 0.02456880
v 0.01186529 -0.00364446 0.02362509
v -0.01992365 0.00368788 0.01686688
v -0.02088078 0.00953343 0.01392196
v -0.02211210 0.01200840 0.01036023
v -0.02420886 0.01125343 0.00481636
v -0.01656595 0.00953343 0.01885192
v -0.01073390 0.01098465 0.02232192
v -0.01312599 0.01409125 0.01969514
v -0.00481637 0.01125343 0.02420870
v 0.00161339 0.01125344 0.02463056
v 0.00752569 0.01056950 0.02368264
v 0.01279854 0.00718320 0.02216783
v 0.01589265 0.00332533 0.02071162
v 0.01596055 -0.00750048 0.02080032
v 0.01627552 0.01125342 0.01855726
v 0.01049368 0.01409125 0.02121503
v 0.00541582 0.02046259 0.02021220
v 0.00923245 0.02085241 0.01861783
v 0.01373640 0.02085240 0.01559399
v 0.00131331 0.02085240 0.02073974
v 0.00924551 0.02758866 0.01394629
v 0.01289305 0.02776667 0.01050095
v 0.01037269 0.03154357 0.00795938
v 0.00532084 0.02758865 0.01586390
v 0.00568092 0.03170442 0.01164429
v 0.00025690 0.02798342 0.01647175
v -0.00308570 0.02379718 0.01902037
v 0.00379797 0.03400275 0.00916884
v 0.00467373 0.03564775 0.00515595
v 0.00049964 0.03571505 0.00689436
v -0.00000001 0.03174000 0.01284774
v -0.00181960 0.03394327 0.00980478
v -0.00451390 0.03045251 0.01353199
v -0.00663640 0.02085241 0.01969306
v -0.00377067 0.03564776 0.00584888
v -0.00356695 0.03675706 0.00232283
v -0.00618989 0.03564775 0.00317987
v -0.00647815 0.03394327 0.00758123
v -0.00923985 0.03389867 0.00382727
v -0.01164445 0.03170442 0.00568107
v -0.00838000 0.02771101 0.01441548
v -0.01150728 0.02085241 0.01730436
v -0.00795924 0.03154357 0.01037269
v -0.01182559 0.02771101 0.01175549
v -0.01446517 0.02771101 0.00829421
v -0.01559384 0.02085240 0.01373640
v -0.01777625 0.01409125 0.01562699
v -0.01812175 0.02046259 0.01046261
v -0.01969307 0.02085240 0.00663654
v -0.01634382 0.02749055 0.00406432
v -0.02073976 0.02085238 0.00131345
v -0.01292483 0.03170442 -0.00090234
v -0.00983949 0.03400275 -0.00129538
v -0.02473715 0.01086800 -0.00000002
v -0.01670070 0.02758866 -0.00103376
v -0.01112640 0.03173999 -0.00642405
v -0.00758124 0.03394327 -0.00647816
v -0.00522844 0.03571504 -0.00452166
v -0.00695069 0.03564775 -0.00034116
v -0.01399591 0.02908047 -0.00684294
v -0.00946205 0.03045250 -0.01067500
v -0.01345889 0.02580351 -0.01184519
v -0.00829423 0.02771101 -0.01446502
v -0.01675028 0.02559691 -0.00693817
v -0.02043172 0.02110187 -0.00268974
v -0.01373640 0.02085240 -0.01559400
v -0.01046261 0.02046260 -0.01812191
v -0.01730438 0.02085239 -0.01150714
v -0.01855726 0.01125344 -0.01627553
v -0.02420886 0.01125343 -0.00481636
v -0.01969307 0.02085240 -0.00663657
v -0.02213728 0.01125343 -0.01091788
v -0.02568787 0.00368787 -0.00464502
v -0.02411920 0.00332531 -0.00999061
v -0.02144867 0.00368788 -0.01487938
v -0.02589663 0.00481738 -0.00000001
v -0.02639265 -0.00364448 0.00153711
v -0.01686673 0.00368786 -0.01992381
v -0.01492441 0.01161948 -0.01944992
v -0.01974924 -0.00364448 -0.01757576
v -0.01479408 -0.00722310 -0.02169587
v -0.01712059 -0.00941627 -0.01949030
v -0.02158175 -0.00941628 -0.01439514
v -0.02362525 -0.00364446 -0.01186531
v -0.02549097 -0.00291972 -0.00683012
v -0.00774958 -0.01091179 -0.02451232
v -0.00160052 -0.01396858 -0.02484901
v -0.00167555 -0.00941626 -0.02588776
v -0.00534630 -0.00364448 -0.02589112
v -0.00216161 0.00368788 -0.02601473
v -0.00882114 0.00368786 -0.02456881
v -0.00532393 0.01056950 -0.02427260
v -0.01158885 0.00792645 -0.02273740
v -0.01049368 0.01409124 -0.02121505
v -0.00663640 0.02085241 -0.01969307
v -0.00151972 0.01409125 -0.02361952
v -0.00131331 0.02085237 -0.02073977
v -0.01186529 -0.00364448 -0.02362509
v -0.00426782 0.02771100 -0.01611899
v -0.00421676 0.03170442 -0.01225080
v -0.00332649 0.03394327 -0.00940100
v -0.00146960 0.03564775 -0.00680210
v 0.00029578 0.03672665 -0.00425296
v -0.00522844 0.03571504 -0.00452166
v -0.00353526 0.03672665 -0.00238280
v -0.00000001 0.03730266 -0.00000000
v 0.00404656 0.03675706 -0.00132052
v -0.00000001 0.03730266 -0.00000000
v 0.00662556 0.03564775 0.00212835
v 0.00358412 0.03669854 0.00224389
v 0.00081506 0.03672665 0.00418474
v -0.00353526 0.03672665 -0.00238280
v -0.00146960 0.03564775 -0.00680210
v -0.00127273 -0.02402789 -0.02008416
v -0.00408698 -0.02918285 -0.01525286
v 0.00304803 -0.02913761 -0.01562501
v -0.00170809 -0.03155397 -0.01297477
v 0.00200236 -0.03299049 -0.01096697
v 0.00725413 -0.03169366 -0.01074911
v -0.00374483 -0.03378114 -0.00904067
v 0.00657587 -0.03383638 -0.00724184
v -0.00294606 -0.03519557 -0.00607255
v 0.00140149 -0.03516104 -0.00660513
v 0.00451619 -0.03516104 -0.00501949
v 0.00479160 -0.02616722 -0.01788259
v 0.00981032 -0.02886330 -0.01278503
v 0.01151501 -0.02566064 -0.01500670
v 0.01483542 -0.02017727 -0.01686178
v 0.01675695 -0.02402790 -0.01114409
v 0.01367533 -0.02918286 -0.00789554
v 0.01959029 -0.01688109 -0.01374901
v 0.01113734 -0.03172358 -0.00643025
v 0.00977062 -0.03383638 -0.00047105
v 0.01412267 -0.03050248 -0.00289934
v 0.01788244 -0.02616721 -0.00479144
v 0.01949030 -0.00941627 -0.01712060
v 0.02127871 -0.02017727 -0.00718503
v 0.00642098 -0.03516104 -0.00208895
v 0.00394977 -0.03587949 0.00076085
v 0.00660514 -0.03516104 0.00140134
v 0.00776342 -0.03378114 0.00595716
v 0.01011888 -0.03191283 0.00776442
v 0.01297478 -0.03155397 0.00170809
v 0.01427761 -0.02898376 0.00708255
v 0.01597725 -0.02886331 0.00210358
v 0.01907030 -0.02402790 0.00642734
v 0.01959182 -0.02461394 0.00179538
v 0.02325728 -0.01827613 0.00149068
v 0.02197904 -0.02083506 -0.00197785
v 0.02441660 -0.01396859 -0.00488531
v 0.02568294 -0.01091177 -0.00114113
v 0.02232023 -0.01396858 -0.01103837
v 0.02457213 -0.00941627 -0.00831884
v 0.02589127 -0.00364448 -0.00534632
v 0.02361952 0.01409124 0.00151986
v 0.02037296 0.02085239 0.00409907
v 0.02559723 0.00718320 -0.00000000
v 0.02588310 0.00332535 -0.00340759
v 0.02639264 -0.00364449 0.00153711
v 0.02460910 0.00953343 0.00492077
v 0.02296148 0.01200840 0.00830982
v 0.02568787 0.00368789 0.00464499
v 0.02361026 0.00368789 0.01113533
v 0.02509556 -0.00364447 0.00831567
v 0.02543942 -0.00941627 0.00508168
v 0.02441660 -0.01396858 0.00488530
v 0.02325731 -0.00941627 0.01149291
v 0.02208827 -0.00364449 0.01452750
v 0.01949029 -0.00941626 0.01712059
v 0.01870273 -0.01396858 0.01643923
v 0.01536417 -0.01688109 0.01835100
v 0.01866069 -0.00291974 0.01866068
v 0.01992364 0.00368788 0.01686688
v 0.02052390 0.01125344 0.01371238
v 0.01730436 0.02085242 0.01150712
v 0.01903933 0.02110187 0.00788616
v 0.01675028 0.02559691 0.00693815
v 0.01492307 0.02913659 0.00399875
v -0.00374483 -0.03378114 -0.00904067
v -0.00643009 -0.03172358 -0.01113749
v -0.00170809 -0.03155397 -0.01297477
v -0.00408698 -0.02918285 -0.01525286
v -0.00958374 -0.02757389 -0.01445979
v -0.01278503 -0.02886330 -0.00981031
v -0.01500670 -0.02566063 -0.01151500
v -0.01219228 -0.02043400 -0.01871256
v -0.00642748 -0.02402789 -0.01907032
v -0.00127273 -0.02402789 -0.02008416
v -0.00149050 -0.01827613 -0.02325728
v -0.00745908 -0.01827613 -0.02207913
v -0.01539145 -0.01827612 -0.01749948
v -0.01643923 -0.01396858 -0.01870259
v -0.01103837 -0.01396858 -0.02232008
vn -0.07979737 -0.98240970 -0.16883010
vn -0.18384160 -0.98229350 -0.03607716
vn -0.00033316 -0.99999980 0.00063317
vn 0.09725209 -0.98324690 -0.15416780
vn -0.12225820 -0.98250360 0.14049740
vn 0.05703971 -0.98223800 0.17876000
vn -0.15500810 -0.93568100 0.31697530
vn 0.02015123 -0.93593060 0.35160770
vn 0.22971000 -0.93574620 0.26760490
vn -0.09378947 -0.86019570 0.50126510
vn 0.17273810 -0.86147950 0.47750880
vn -0.33400340 -0.86081920 0.38396880
vn -0.11271750 -0.78249850 0.61236510
vn -0.30012980 -0.93450270 0.19138160
vn -0.36172720 -0.93220420 0.01219618
vn -0.49384740 -0.85916010 0.13401000
vn -0.40555630 -0.78870520 0.46202620
vn -0.34899100 -0.70621040 0.61601320
vn -0.14824400 -0.64991520 0.74540850
vn -0.39596280 -0.60480180 0.69096180
vn -0.26827030 -0.50600000 0.81975300
vn -0.53341200 -0.50118090 0.68138770
vn -0.57469250 -0.64587250 0.50257060
vn -0.59848470 -0.75105930 0.27879400
vn -0.30582420 -0.93717160 -0.16787160
vn -0.15258560 -0.93504590 -0.32001080
vn -0.07979737 -0.98240970 -0.16883010
vn -0.44370590 -0.86618670 -0.22988220
vn -0.61289790 -0.78900650 -0.04271737
vn -0.50933240 -0.78326800 -0.35647120
vn -0.69297440 -0.69430800 -0.19422410
vn -0.71875290 -0.68956120 0.08887987
vn -0.74274860 -0.59747350 0.30224150
vn -0.82299390 -0.55864220 -0.10295660
vn -0.78848900 -0.54576660 -0.28359120
vn -0.71107050 -0.50637760 0.48781190
vn -0.75946810 -0.35681990 0.54395560
vn -0.60937150 -0.39345800 0.68837280
vn -0.63483970 -0.27243600 0.72301950
vn -0.79652850 -0.60177210 0.05841893
vn -0.84801500 -0.44531850 0.28733580
vn -0.88254140 -0.46274210 0.08360828
vn -0.91912110 -0.38901500 -0.06231900
vn -0.93911840 -0.28695480 0.18898030
vn -0.86541440 -0.27800480 0.41685870
vn -0.93850770 -0.14488700 0.31338640
vn -0.81872960 -0.15059710 0.55407780
vn -0.97925100 -0.19557540 0.05308235
vn -0.86389370 -0.40627260 -0.29770830
vn -0.68671740 -0.50142340 -0.52630200
vn -0.76586270 -0.35532020 -0.53591230
vn -0.86472490 -0.27403720 -0.42089700
vn -0.94343950 -0.27589280 -0.18386150
vn -0.98690960 -0.09808113 -0.12802210
vn -0.93348710 -0.15245680 -0.32459010
vn -0.65533200 -0.15411800 0.73945090
vn -0.43820020 -0.27143500 0.85691520
vn -0.83514630 -0.02544303 0.54943910
vn -0.66792790 -0.02681327 0.74374280
vn -0.94968000 -0.02874286 0.31190030
vn -0.90129060 0.11143190 0.41863850
vn -0.97518960 0.11364860 0.18997160
vn 0.67069060 -0.01881659 -0.74149850
vn 0.49850660 -0.00819187 -0.86684720
vn 0.54454850 -0.14713820 -0.82572230
vn 0.31475670 -0.02099728 -0.94894000
vn 0.38129810 0.09939919 -0.91909270
vn 0.48988640 0.17685590 -0.85365870
vn 0.32939890 -0.15288030 -0.93173170
vn 0.17124430 0.10638190 -0.97946840
vn 0.42444360 -0.28802320 -0.85842320
vn 0.63013520 -0.28255420 -0.72325150
vn 0.39628220 -0.44422390 -0.80350830
vn 0.18397440 -0.28413000 -0.94096950
vn 0.17493880 -0.44150350 -0.88004050
vn -0.06569014 -0.39459760 -0.91650290
vn 0.30867700 0.27471710 -0.91063110
vn 0.52265630 0.33726200 -0.78299730
vn 0.64691900 0.22848590 -0.72752320
vn 0.64985690 0.10248430 -0.75311550
vn 0.81610640 0.10938480 -0.56745520
vn 0.72981690 0.29222950 -0.61803670
vn 0.86194460 0.27158210 -0.42812940
vn 0.93287030 0.10531770 -0.34447210
vn 0.83383920 -0.01210572 -0.55187450
vn 0.89189510 -0.09623282 -0.44188490
vn 0.94268650 0.27434970 -0.18993290
vn 0.85351320 0.43949620 -0.27992550
vn 0.78479800 0.42764460 -0.44856690
vn 0.67110040 0.59112500 -0.44743200
vn 0.68593090 0.42170410 -0.59301300
vn 0.56013320 0.48907770 -0.66862070
vn 0.39421500 0.42800220 -0.81327030
vn 0.46622400 0.63762400 -0.61324600
vn 0.36643370 0.53970210 -0.75792350
vn 0.21442120 0.59343580 -0.77579470
vn 0.17837310 0.43369170 -0.88322970
vn 0.41063620 0.73276150 -0.54262190
vn 0.07498075 0.26085040 -0.96246300
vn 0.56467060 0.73088990 -0.38333660
vn 0.76942510 0.58593620 -0.25429070
vn -0.01201097 0.59115440 -0.80646900
vn 0.12521060 0.73597290 -0.66533170
vn -0.05186388 0.43807550 -0.89744080
vn -0.20421260 0.59102330 -0.78037730
vn -0.27008840 0.44011830 -0.85635760
vn -0.06583017 0.34384990 -0.93671430
vn -0.20692190 0.25580700 -0.94432310
vn -0.08121843 0.11249860 -0.99032710
vn -0.21085940 0.74090730 -0.63764780
vn 0.01034584 -0.00170555 -0.99994500
vn -0.22615730 -0.02171088 -0.97384880
vn 0.12718550 -0.10456080 -0.98635230
vn -0.06301144 -0.15355470 -0.98612900
vn -0.05953244 -0.28138480 -0.95774660
vn 0.06431491 0.82172030 -0.56625030
vn -0.19513790 0.82119350 -0.53624840
vn 0.32607300 0.82210430 -0.46671300
vn 0.14163420 0.89969740 -0.41289770
vn 0.32250630 0.89785310 -0.29974910
vn 0.52440280 0.82286970 -0.21883110
vn 0.66343400 0.73023800 -0.16311910
vn 0.81262040 0.58261560 -0.01439364
vn 0.89614290 0.43932040 -0.06265394
vn 0.66155990 0.73837450 0.13092620
vn 0.56186040 0.82475860 0.06392136
vn 0.44250370 0.89258500 -0.08650219
vn 0.46684760 0.82022140 0.33059040
vn 0.86285260 -0.27112710 0.42658570
vn 0.86560700 -0.40721440 0.29137750
vn 0.75747100 -0.40705310 0.51043660
vn 0.69538760 -0.54513500 0.46825640
vn 0.55427220 -0.54419630 0.62978790
vn 0.49895720 -0.69399320 0.51905220
vn 0.33601020 -0.69351430 0.63728730
vn 0.38474520 -0.56244160 0.73186780
vn 0.20171950 -0.78709360 0.58291750
vn 0.11712890 -0.65787280 0.74396520
vn 0.25465310 -0.50541770 0.82444200
vn 0.40824130 -0.40006300 0.82054160
vn 0.17763270 -0.39553260 0.90111070
vn 0.42775060 -0.27126600 0.86223200
vn -0.00566796 -0.52502080 0.85107050
vn 0.18859240 -0.27538100 0.94265480
vn 0.43223770 -0.16084510 0.88729890
vn 0.19405550 -0.14863090 0.96966560
vn -0.05584508 -0.40310470 0.91344850
vn -0.04895944 -0.27143920 0.96120950
vn -0.23969160 -0.32803480 0.91375110
vn -0.05795543 -0.14817950 0.98726080
vn 0.20201820 -0.02544293 0.97905120
vn -0.41369720 -0.40009400 0.81778930
vn -0.44842830 -0.15147300 0.88089050
vn -0.25070450 -0.15434190 0.95568080
vn -0.05667613 -0.02398849 0.99810430
vn -0.30493270 -0.02178009 0.95212480
vn -0.50061390 -0.01118316 0.86559840
vn 0.08278224 0.11558560 0.98984200
vn -0.13098030 0.10716880 0.98557540
vn -0.33976540 0.11030910 0.93401890
vn -0.56393710 0.10913230 0.81857500
vn 0.32785510 0.10669040 0.93868420
vn 0.44595090 -0.01551660 0.89492300
vn -0.75864470 0.10430780 0.64310050
vn -0.80672570 0.22763710 0.54532110
vn -0.87032540 0.28964900 0.39829280
vn -0.94333970 0.26812600 0.19549580
vn -0.64242330 0.22644610 0.73213010
vn -0.41417490 0.26142260 0.87184700
vn -0.52536820 0.34266590 0.77882500
vn -0.17981840 0.27431950 0.94467670
vn 0.05821695 0.27400420 0.95996490
vn 0.28169650 0.25797030 0.92417450
vn 0.49153930 0.17699630 0.85267900
vn 0.60328070 0.09258863 0.79213620
vn 0.60447680 -0.11353690 0.78849050
vn 0.63538090 0.27863520 0.72017620
vn 0.42819200 0.33717560 0.83842960
vn 0.22740950 0.42626020 0.87554970
vn 0.40629940 0.43401040 0.80408690
vn 0.59914990 0.43054000 0.67502190
vn 0.05671538 0.42514160 0.90334820
vn 0.45423280 0.58973280 0.66774830
vn 0.61817570 0.60504970 0.50177040
vn 0.53828230 0.73157110 0.41839690
vn 0.24557410 0.58736530 0.77116480
vn 0.30429320 0.73279560 0.60861830
vn 0.01884801 0.60503850 0.79597310
vn -0.14349350 0.49288240 0.85818220
vn 0.22046260 0.82514010 0.52013460
vn 0.29364950 0.89471960 0.33652170
vn 0.02496276 0.90013440 0.43489630
vn 0.01854081 0.73918870 0.67324310
vn -0.11126390 0.82280590 0.55732480
vn -0.22473220 0.68892370 0.68911500
vn -0.29240030 0.42684700 0.85574750
vn -0.22462890 0.89899910 0.37595560
vn -0.22109180 0.96346560 0.15117030
vn -0.40987720 0.89005610 0.19950140
vn -0.36802480 0.81979370 0.43874370
vn -0.53000170 0.82313780 0.20381920
vn -0.60781730 0.73940930 0.28953750
vn -0.39295040 0.58354300 0.71068100
vn -0.49819540 0.43643050 0.74921950
vn -0.41633020 0.73683880 0.53267040
vn -0.57465700 0.59169700 0.56538820
vn -0.69960940 0.58806290 0.40586790
vn -0.67518940 0.43557300 0.59531120
vn -0.70881830 0.33749530 0.61941380
vn -0.78584640 0.42974500 0.44470730
vn -0.85559640 0.43636790 0.27845630
vn -0.78579990 0.58766390 0.19279440
vn -0.90066870 0.43047680 0.05903827
vn -0.68099020 0.73142500 -0.03563427
vn -0.55761670 0.82706070 -0.07095185
vn -0.96404120 0.26575300 0.00009213
vn -0.80653910 0.58843430 -0.05691671
vn -0.57996540 0.74732490 -0.32426180
vn -0.42856970 0.82222470 -0.37453240
vn -0.33082150 0.89808450 -0.28982970
vn -0.43531460 0.89996680 -0.02368316
vn -0.69000790 0.64220410 -0.33386060
vn -0.47852240 0.69424250 -0.53762810
vn -0.62676450 0.54404270 -0.55783860
vn -0.41453760 0.58364400 -0.69822510
vn -0.78472110 0.53246470 -0.31732310
vn -0.89161960 0.43720140 -0.11776820
vn -0.59575680 0.43250780 -0.67676490
vn -0.44877140 0.43498530 -0.78063560
vn -0.75295280 0.42611920 -0.50148230
vn -0.72857050 0.27040970 -0.62933590
vn -0.94281010 0.27283970 -0.19148820
vn -0.85674350 0.42803220 -0.28771340
vn -0.86599060 0.26935390 -0.42131770
vn -0.97784540 0.10859940 -0.17895390
vn -0.91894460 0.11064720 -0.37854720
vn -0.81350760 0.11129210 -0.57080600
vn -0.99173560 0.12827390 -0.00247592
vn -0.99801420 -0.02063361 0.05951462
vn -0.63808790 0.10214730 -0.76315780
vn -0.58641550 0.28161400 -0.75948040
vn -0.74399030 -0.01850876 -0.66793400
vn -0.55316810 -0.09637324 -0.82747640
vn -0.66166530 -0.16549280 -0.73130780
vn -0.81768160 -0.15594830 -0.55414520
vn -0.89075670 -0.02278706 -0.45390890
vn -0.96811910 -0.00332698 -0.25046830
vn -0.29443530 -0.19074850 -0.93644150
vn -0.05953244 -0.28138480 -0.95774660
vn -0.06301144 -0.15355470 -0.98612900
vn -0.22615730 -0.02171088 -0.97384880
vn -0.08121843 0.11249860 -0.99032710
vn -0.33080170 0.09962280 -0.93842720
vn -0.20692190 0.25580700 -0.94432310
vn -0.44999440 0.18789380 -0.87304120
vn -0.41204130 0.33656850 -0.84672530
vn -0.27008840 0.44011830 -0.85635760
vn -0.06583017 0.34384990 -0.93671430
vn -0.05186388 0.43807550 -0.89744080
vn -0.44637580 -0.01588024 -0.89470470
vn -0.20421260 0.59102330 -0.78037730
vn -0.21085940 0.74090730 -0.63764780
vn -0.19513790 0.82119350 -0.53624840
vn -0.10414450 0.89771630 -0.42808790
vn 0.01891149 0.96300070 -0.26883480
vn -0.33082150 0.89808450 -0.28982970
vn -0.22422020 0.96302330 -0.14936990
vn -0.00129930 0.99999900 -0.00056654
vn 0.25326430 0.96280390 -0.09415873
vn -0.00129930 0.99999900 -0.00056654
vn 0.42244880 0.89658840 0.13291470
vn 0.23131360 0.96212050 0.14428520
vn 0.04236087 0.96298090 0.26622080
vn -0.22422020 0.96302330 -0.14936990
vn -0.10414450 0.89771630 -0.42808790
vn -0.04915073 -0.55483700 -0.83050590
vn -0.17746640 -0.69218080 -0.69956520
vn 0.13909890 -0.69572180 -0.70471460
vn -0.07891920 -0.77750410 -0.62390640
vn 0.09816670 -0.83746060 -0.53760880
vn 0.35111700 -0.77554150 -0.52464500
vn -0.19549000 -0.86659000 -0.45913540
vn 0.34253680 -0.86779390 -0.36000300
vn -0.15258560 -0.93504590 -0.32001080
vn 0.06307494 -0.93062830 -0.36048920
vn 0.23535720 -0.93702520 -0.25805150
vn 0.22290710 -0.60152470 -0.76712490
vn 0.44173010 -0.68980940 -0.57361780
vn 0.48158510 -0.60241960 -0.63652680
vn 0.59231570 -0.44346500 -0.67268170
vn 0.69277010 -0.55353390 -0.46224440
vn 0.61626800 -0.69131900 -0.37721580
vn 0.76741140 -0.35259160 -0.53549870
vn 0.52162010 -0.79537730 -0.30868680
vn 0.50282240 -0.86406240 -0.02378684
vn 0.66403410 -0.73616810 -0.13082510
vn 0.76727610 -0.60990610 -0.19824710
vn 0.74787320 -0.15743980 -0.64490180
vn 0.84576360 -0.44452640 -0.29509370
vn 0.34083240 -0.93157930 -0.12646480
vn 0.18292190 -0.98256270 0.03332212
vn 0.35390980 -0.93092950 0.09010068
vn 0.40043340 -0.86583410 0.29997430
vn 0.48336120 -0.79404000 0.36859540
vn 0.60830190 -0.78658270 0.10609630
vn 0.65112360 -0.69028680 0.31550320
vn 0.71885900 -0.68851610 0.09585011
vn 0.79380930 -0.54541190 0.26905880
vn 0.81995870 -0.56876580 0.06460044
vn 0.91878400 -0.38978000 0.06250932
vn 0.88342910 -0.46170320 -0.07989556
vn 0.93911840 -0.28695480 -0.18898020
vn 0.98012160 -0.19303450 -0.04581922
vn 0.86199620 -0.27198300 -0.42777090
vn 0.94210040 -0.15563630 -0.29702560
vn 0.97901210 -0.02426860 -0.20235220
vn 0.94123510 0.33250440 0.05930709
vn 0.88310400 0.43734300 0.16987780
vn 0.98433940 0.17626260 -0.00275488
vn 0.98735390 0.09620486 -0.12600430
vn 0.99837000 -0.01979464 0.05353208
vn 0.95351390 0.22848710 0.19648120
vn 0.89843140 0.28996520 0.32975910
vn 0.97745720 0.10304560 0.18427940
vn 0.89874550 0.11311400 0.42362920
vn 0.94903200 -0.02001854 0.31454330
vn 0.96835510 -0.15031750 0.19923140
vn 0.94229480 -0.27526200 0.19055550
vn 0.88595220 -0.15397470 0.43747030
vn 0.83862190 -0.02099738 0.54430910
vn 0.74326820 -0.15932680 0.64974400
vn 0.72379960 -0.26987210 0.63504570
vn 0.59756240 -0.35954420 0.71669180
vn 0.70127760 -0.00433340 0.71287510
vn 0.76194010 0.11378960 0.63757280
vn 0.79876520 0.27420770 0.53552240
vn 0.74689900 0.42520230 0.51121900
vn 0.83614180 0.42256120 0.34972690
vn 0.77988830 0.54160830 0.31374300
vn 0.74215900 0.63359530 0.21853350
vn -0.19549000 -0.86659000 -0.45913540
vn -0.32696340 -0.78411410 -0.52750380
vn -0.07891920 -0.77750410 -0.62390640
vn -0.17746640 -0.69218080 -0.69956520
vn -0.42850560 -0.64643100 -0.63127640
vn -0.57640460 -0.69038900 -0.43717340
vn -0.63382420 -0.59837470 -0.49011720
vn -0.48420890 -0.46259730 -0.74266120
vn -0.26812020 -0.55036080 -0.79070500
vn -0.04915073 -0.55483700 -0.83050590
vn -0.06569014 -0.39459760 -0.91650290
vn -0.28134190 -0.39453880 -0.87474890
vn -0.60745960 -0.39293280 -0.69035970
vn -0.63559560 -0.27306360 -0.72211820
vn -0.44059760 -0.27269320 -0.85528480
vt 1.06483000 0.19030570
vt 0.26494150 0.19008670
vt 0.58581550 0.18683460
vt 0.85819360 0.18978000
vt 0.42820660 0.19008670
vt 0.56080530 0.19008670
vt 0.44762320 0.19611640
vt 0.52021340 0.19611640
vt 0.60925050 0.19582660
vt 0.48288520 0.20803420
vt 0.55757770 0.20803430
vt 0.40571060 0.20803420
vt 0.47903660 0.22521750
vt 0.37063990 0.19611650
vt 0.28660180 0.19611640
vt 0.31170830 0.20775620
vt 0.40027530 0.22521750
vt 0.42726040 0.24629020
vt 0.47549610 0.25979390
vt 0.42575730 0.27159990
vt 0.45507310 0.30441500
vt 0.40428660 0.30651130
vt 0.37629620 0.25979390
vt 0.33256230 0.23400920
vt 0.19356500 0.19611640
vt 0.06875288 0.19582660
vt 0.06482995 0.19030570
vt 0.18636160 0.20723410
vt 0.25214390 0.22521740
vt 0.16265310 0.22521750
vt 0.21763050 0.24629020
vt 0.28251280 0.24897210
vt 0.32300060 0.27585160
vt 0.23733830 0.28707880
vt 0.20500650 0.28955470
vt 0.35282370 0.30441500
vt 0.35565720 0.34953650
vt 0.39318850 0.33782820
vt 0.39273430 0.37398060
vt 0.26985820 0.27429180
vt 0.31058920 0.32187230
vt 0.27261130 0.31635170
vt 0.24707010 0.33782820
vt 0.28909050 0.37398060
vt 0.33109590 0.37398060
vt 0.30953230 0.41218730
vt 0.35126740 0.41218720
vt 0.26404550 0.39963580
vt 0.20392950 0.33782820
vt 0.14946280 0.30651120
vt 0.15617500 0.34953650
vt 0.18143420 0.37398060
vt 0.22470500 0.37398060
vt 0.23530400 0.42826610
vt 0.20321730 0.41218730
vt 0.39248870 0.41218730
vt 0.43345010 0.37398060
vt 0.35010020 0.46062880
vt 0.39134340 0.46062880
vt 0.30835260 0.46062870
vt 0.32776420 0.52216750
vt 0.28573200 0.52216770
vt 0.87700160 0.46062870
vt 0.90994990 0.46671140
vt 0.89933190 0.41218720
vt 0.94321820 0.46062860
vt 0.93122610 0.51912490
vt 0.90973650 0.55150310
vt 0.94204190 0.41218720
vt 0.96634720 0.52216760
vt 0.92002490 0.37398050
vt 0.87753770 0.37398050
vt 0.91917550 0.32187220
vt 0.96301780 0.37398050
vt 0.96230780 0.32187230
vt 1.00610500 0.33782820
vt 0.94159660 0.58566380
vt 0.89869950 0.60948100
vt 0.87762080 0.57122820
vt 0.88089520 0.52216770
vt 0.83892570 0.52216760
vt 0.85332130 0.59199990
vt 0.81494930 0.58566400
vt 0.79747830 0.52216760
vt 0.83508460 0.46062870
vt 0.81393110 0.43059410
vt 0.77381790 0.58566390
vt 0.79252820 0.66622610
vt 0.82386930 0.66295450
vt 0.83129840 0.72276210
vt 0.85545030 0.66622620
vt 0.88117760 0.69094090
vt 0.91843750 0.66622600
vt 0.88378360 0.73284600
vt 0.91714020 0.70777980
vt 0.94883020 0.72378900
vt 0.96168460 0.66622610
vt 0.88123770 0.75595490
vt 0.98319520 0.58340810
vt 0.82796180 0.75661400
vt 0.79011640 0.72276210
vt 0.99297370 0.72378900
vt 0.95842090 0.75730490
vt 1.00545200 0.66622590
vt 1.03765700 0.72378900
vt 1.04958900 0.66622610
vt 1.00621300 0.60948110
vt 1.03171300 0.57992380
vt 1.00970500 0.52216770
vt 1.04928400 0.75730490
vt 0.99598550 0.46671160
vt 1.02983300 0.46062870
vt 0.97429250 0.42826590
vt 1.00664500 0.41218730
vt 1.00643300 0.37398060
vt 0.96553210 0.77572080
vt 1.04965200 0.77609510
vt 0.88518940 0.77609510
vt 0.92638770 0.79040050
vt 0.83849390 0.79040050
vt 0.79315160 0.77659440
vt 0.77722590 0.75760350
vt 0.74303110 0.72193870
vt 0.75181310 0.66622600
vt 0.70872880 0.75730490
vt 0.71476230 0.77572080
vt 0.75850950 0.79040060
vt 0.64676880 0.77609520
vt 0.67277120 0.37398060
vt 0.69284710 0.33782820
vt 0.65300170 0.33782820
vt 0.65258670 0.28955480
vt 0.61324960 0.28955480
vt 0.62216520 0.24629020
vt 0.57421330 0.24796120
vt 0.57556580 0.28763280
vt 0.55571500 0.22521750
vt 0.52967240 0.25827880
vt 0.55370660 0.30441500
vt 0.57380610 0.33782820
vt 0.53421410 0.33782820
vt 0.57371850 0.37398060
vt 0.50470750 0.29645370
vt 0.53399960 0.37398070
vt 0.57364830 0.41218720
vt 0.53385400 0.41218720
vt 0.49446270 0.33782820
vt 0.49412890 0.37398070
vt 0.46401070 0.35887930
vt 0.49391310 0.41218730
vt 0.53479450 0.46062880
vt 0.43383470 0.33782820
vt 0.43324270 0.41218720
vt 0.46368100 0.41236510
vt 0.49482740 0.46062890
vt 0.45461320 0.46062880
vt 0.42311330 0.46671140
vt 0.51642660 0.52216770
vt 0.48373950 0.51912490
vt 0.45086720 0.52216760
vt 0.41028810 0.52216770
vt 0.55628240 0.52216760
vt 0.57462020 0.46062880
vt 0.36927390 0.52216770
vt 0.35149390 0.57122820
vt 0.32788630 0.59200010
vt 0.28898320 0.58566390
vt 0.39269820 0.57122830
vt 0.43519280 0.58340810
vt 0.41386810 0.60948110
vt 0.47396680 0.58566390
vt 0.51394160 0.58566400
vt 0.55073420 0.57992370
vt 0.58346370 0.55150320
vt 0.60334580 0.51912490
vt 0.60334840 0.42826610
vt 0.61322490 0.58566380
vt 0.57375880 0.60948110
vt 0.54414210 0.66295450
vt 0.57399390 0.66622620
vt 0.61330530 0.66622600
vt 0.51424010 0.66622610
vt 0.59267570 0.72276220
vt 0.63742380 0.72425620
vt 0.64070600 0.75595490
vt 0.55388840 0.72276210
vt 0.57344730 0.75730490
vt 0.50815700 0.72607530
vt 0.48074810 0.69094100
vt 0.56511580 0.77659440
vt 0.61245420 0.79040060
vt 0.52265570 0.79096530
vt 0.50734290 0.75760350
vt 0.48284130 0.77609520
vt 0.45876160 0.74679790
vt 0.45528250 0.66622610
vt 0.43243060 0.79040060
vt 0.38680890 0.79971080
vt 0.35407960 0.79040050
vt 0.40556940 0.77609520
vt 0.33244280 0.77572080
vt 0.33762470 0.75730490
vt 0.42626560 0.72378910
vt 0.41502730 0.66622610
vt 0.40947270 0.75595490
vt 0.38589050 0.72378910
vt 0.34479150 0.72378900
vt 0.37424520 0.66622610
vt 0.37296530 0.60948110
vt 0.34284700 0.66295450
vt 0.31120710 0.66622610
vt 0.30033000 0.72193870
vt 0.26881800 0.66622600
vt 0.25221440 0.75730490
vt 0.24615220 0.77659440
vt 0.25709190 0.58242910
vt 0.25039520 0.72276210
vt 0.17490040 0.75760350
vt 0.14468780 0.77609520
vt 0.14739390 0.79096530
vt 0.26837030 0.79040060
vt 0.18509780 0.73528270
vt 0.11826280 0.74679780
vt 0.13877440 0.70777970
vt 0.08263874 0.72378900
vt 0.19443460 0.70604580
vt 0.23703510 0.66831980
vt 0.11680040 0.66622610
vt 0.08319211 0.66295460
vt 0.16097010 0.66622600
vt 0.13802160 0.58566390
vt 0.22493960 0.58566390
vt 0.20478890 0.66622610
vt 0.18165680 0.58566390
vt 0.22746400 0.52216760
vt 0.19223730 0.51912470
vt 0.15677300 0.52216770
vt 0.25676760 0.53164740
vt 0.26608680 0.46062870
vt 0.11312160 0.52216760
vt 0.10516600 0.58873610
vt 0.13663400 0.46062870
vt 0.09573609 0.43059400
vt 0.11618210 0.41218720
vt 0.15983250 0.41218720
vt 0.18014160 0.46062880
vt 0.21377660 0.46671150
vt 0.04687703 0.39963560
vt 0.00643325 0.37398060
vt 0.00664532 0.41218730
vt 0.02983344 0.46062870
vt 0.00970483 0.52216770
vt 0.05333364 0.52216760
vt 0.03171283 0.57992380
vt 0.07448137 0.55774120
vt 0.07241666 0.60948100
vt 0.04958856 0.66622610
vt 0.00621331 0.60948110
vt 0.00545198 0.66622590
vt 0.07351089 0.46062870
vt 0.03765666 0.72378900
vt 0.04928434 0.75730490
vt 0.04965198 0.77609510
vt 1.02286400 0.79040060
vt 0.95442040 0.79945550
vt 1.14739400 0.79096530
vt 1.18232900 0.79945550
vt 1.58581500 0.80428980
vt 0.75844460 0.79971080
vt 0.58581500 0.80428980
vt 0.68399080 0.79040060
vt 0.64411770 0.79921950
vt 0.54302980 0.79945550
vt 0.18232880 0.79945550
vt 0.02286434 0.79040060
vt 1.00530000 0.28955480
vt 1.03795300 0.24629020
vt 0.96050120 0.24666990
vt 1.01424300 0.22638990
vt 0.95846490 0.21433350
vt 0.89109770 0.22521750
vt 1.05912500 0.20769770
vt 0.86258960 0.20723410
vt 1.06875300 0.19582660
vt 0.94372790 0.19611640
vt 0.85398820 0.19611640
vt 0.95026610 0.27159990
vt 0.88406370 0.24897210
vt 0.88584730 0.27585150
vt 0.87660930 0.32187220
vt 0.83353570 0.28955480
vt 0.82080250 0.24629020
vt 0.83910200 0.34953650
vt 0.81796380 0.22496640
vt 0.74083960 0.20723410
vt 0.76961460 0.23521490
vt 0.78155350 0.27159990
vt 0.85713060 0.41218720
vt 0.79330090 0.32187220
vt 0.77277670 0.19611640
vt 0.68956250 0.19008670
vt 0.69766620 0.19611650
vt 0.63916290 0.20769770
vt 0.64058960 0.22337810
vt 0.71796040 0.22638990
vt 0.67040260 0.24796120
vt 0.71996560 0.24897210
vt 0.69215610 0.28955470
vt 0.72760990 0.28463620
vt 0.73301430 0.33782820
vt 0.75638580 0.31635160
vt 0.77405150 0.37398050
vt 0.75043370 0.39963580
vt 0.81519100 0.37398060
vt 0.79455940 0.41218720
vt 0.77543680 0.46062870
vt 0.73307690 0.60948100
vt 0.71161470 0.66622600
vt 0.74351690 0.55150320
vt 0.76399400 0.51912500
vt 0.73470280 0.46062860
vt 0.71292910 0.57122830
vt 0.68980120 0.59200010
vt 0.71598580 0.52216780
vt 0.67579630 0.52216780
vt 0.69434980 0.46062880
vt 0.71313800 0.41218720
vt 0.71286760 0.37398050
vt 0.67297800 0.41218720
vt 0.65428760 0.46062860
vt 0.63306130 0.41218730
vt 0.63292390 0.37398060
vt 0.60971060 0.34953650
vt 0.62325980 0.46671130
vt 0.63585380 0.52216770
vt 0.65297350 0.58566400
vt 0.65271350 0.66622630
vt 0.68203260 0.66831990
vt 0.68132210 0.70604580
vt 0.69989010 0.73575370
vt 0.05912542 0.20769770
vt 0.08308226 0.22496640
vt 0.01424253 0.22638990
vt 0.03795254 0.24629020
vt 0.09374154 0.25979390
vt 0.15074460 0.24897210
vt 0.14997320 0.27585150
vt 0.09228456 0.31971760
vt 0.04952109 0.28955480
vt 0.00529993 0.28955480
vt 0.00610513 0.33782820
vt 0.04996228 0.33782820
vt 0.11646200 0.33782820
vt 0.11629950 0.37398050
vt 0.07244200 0.37398060
f 3/3/3 2/2/2 1/1/1
f 3/3/3 1/1/1 4/4/4
f 3/3/3 6/6/6 5/5/5
f 3/3/3 5/5/5 2/2/2
f 5/5/5 6/6/6 7/7/7
f 6/6/6 8/8/8 7/7/7
f 9/9/9 8/8/8 6/6/6
f 7/7/7 8/8/8 10/10/10
f 8/8/8 11/11/11 10/10/10
f 7/7/7 10/10/10 12/12/12
f 10/10/10 13/13/13 12/12/12
f 7/7/7 14/14/14 5/5/5
f 14/14/14 7/7/7 12/12/12
f 5/5/5 14/14/14 15/15/15
f 2/2/2 5/5/5 15/15/15
f 14/14/14 12/12/12 16/16/16
f 15/15/15 14/14/14 16/16/16
f 13/13/13 17/17/17 12/12/12
f 12/12/12 17/17/17 16/16/16
f 17/17/17 13/13/13 18/18/18
f 13/13/13 19/19/19 18/18/18
f 20/20/20 18/18/18 19/19/19
f 20/20/20 19/19/19 21/21/21
f 22/22/22 20/20/20 21/21/21
f 23/23/23 18/18/18 20/20/20
f 23/23/23 17/17/17 18/18/18
f 23/23/23 20/20/20 22/22/22
f 17/17/17 24/24/24 16/16/16
f 24/24/24 17/17/17 23/23/23
f 15/15/15 25/25/25 2/2/2
f 2/2/2 25/25/25 26/26/26
f 27/27/27 2/2/2 26/26/26
f 25/25/25 15/15/15 28/28/28
f 16/16/16 28/28/28 15/15/15
f 29/29/29 28/28/28 16/16/16
f 24/24/24 29/29/29 16/16/16
f 29/29/29 30/30/30 28/28/28
f 30/30/30 29/29/29 31/31/31
f 29/29/29 24/24/24 32/32/32
f 29/29/29 32/32/32 31/31/31
f 33/33/33 24/24/24 23/23/23
f 32/32/32 24/24/24 33/33/33
f 31/31/31 32/32/32 34/34/34
f 35/35/35 31/31/31 34/34/34
f 33/33/33 23/23/23 36/36/36
f 23/23/23 22/22/22 36/36/36
f 36/36/36 22/22/22 37/37/37
f 22/22/22 38/38/38 37/37/37
f 38/38/38 39/39/39 37/37/37
f 33/33/33 40/40/40 32/32/32
f 32/32/32 40/40/40 34/34/34
f 33/33/33 36/36/36 41/41/41
f 37/37/37 41/41/41 36/36/36
f 42/42/42 40/40/40 33/33/33
f 40/40/40 42/42/42 34/34/34
f 41/41/41 42/42/42 33/33/33
f 34/34/34 43/43/43 35/35/35
f 43/43/43 34/34/34 42/42/42
f 42/42/42 41/41/41 44/44/44
f 42/42/42 44/44/44 43/43/43
f 41/41/41 37/37/37 45/45/45
f 44/44/44 41/41/41 45/45/45
f 44/44/44 45/45/45 46/46/46
f 47/47/47 46/46/46 45/45/45
f 45/45/45 37/37/37 47/47/47
f 37/37/37 39/39/39 47/47/47
f 44/44/44 48/48/48 43/43/43
f 43/43/43 49/49/49 35/35/35
f 35/35/35 49/49/49 50/50/50
f 49/49/49 51/51/51 50/50/50
f 51/51/51 49/49/49 52/52/52
f 43/43/43 48/48/48 53/53/53
f 49/49/49 43/43/43 53/53/53
f 49/49/49 53/53/53 52/52/52
f 54/54/54 53/53/53 48/48/48
f 55/55/55 52/52/52 53/53/53
f 55/55/55 53/53/53 54/54/54
f 39/39/39 56/56/56 47/47/47
f 39/39/39 57/57/57 56/56/56
f 58/58/58 47/47/47 56/56/56
f 59/59/59 58/58/58 56/56/56
f 58/58/58 60/60/60 47/47/47
f 58/58/58 61/61/61 60/60/60
f 60/60/60 61/61/61 62/62/62
f 65/65/65 64/64/64 63/63/63
f 66/66/66 64/64/64 65/65/65
f 67/67/67 64/64/64 66/66/66
f 64/64/64 67/67/67 68/68/68
f 69/69/69 66/66/66 65/65/65
f 66/66/66 70/70/70 67/67/67
f 65/65/65 71/71/71 69/69/69
f 65/65/65 72/72/72 71/71/71
f 71/71/71 72/72/72 73/73/73
f 69/69/69 71/71/71 74/74/74
f 74/74/74 71/71/71 75/75/75
f 74/74/74 75/75/75 76/76/76
f 77/77/77 68/68/68 67/67/67
f 70/70/70 77/77/77 67/67/67
f 68/68/68 77/77/77 78/78/78
f 68/68/68 78/78/78 79/79/79
f 68/68/68 79/79/79 80/80/80
f 81/81/81 80/80/80 79/79/79
f 79/79/79 78/78/78 82/82/82
f 82/82/82 81/81/81 79/79/79
f 82/82/82 83/83/83 81/81/81
f 81/81/81 83/83/83 84/84/84
f 85/85/85 81/81/81 84/84/84
f 85/85/85 84/84/84 86/86/86
f 83/83/83 87/87/87 84/84/84
f 88/88/88 87/87/87 83/83/83
f 89/89/89 88/88/88 83/83/83
f 83/83/83 82/82/82 89/89/89
f 88/88/88 89/89/89 90/90/90
f 82/82/82 91/91/91 89/89/89
f 82/82/82 78/78/78 91/91/91
f 90/90/90 89/89/89 91/91/91
f 78/78/78 92/92/92 91/91/91
f 92/92/92 90/90/90 91/91/91
f 93/93/93 92/92/92 78/78/78
f 93/93/93 78/78/78 77/77/77
f 92/92/92 94/94/94 90/90/90
f 93/93/93 95/95/95 92/92/92
f 95/95/95 94/94/94 92/92/92
f 95/95/95 93/93/93 96/96/96
f 95/95/95 96/96/96 94/94/94
f 97/97/97 93/93/93 77/77/77
f 93/93/93 97/97/97 96/96/96
f 90/90/90 94/94/94 98/98/98
f 94/94/94 96/96/96 98/98/98
f 97/97/97 77/77/77 99/99/99
f 99/99/99 77/77/77 70/70/70
f 100/100/100 90/90/90 98/98/98
f 101/101/101 90/90/90 100/100/100
f 96/96/96 97/97/97 102/102/102
f 96/96/96 103/103/103 98/98/98
f 103/103/103 96/96/96 102/102/102
f 97/97/97 104/104/104 102/102/102
f 97/97/97 99/99/99 104/104/104
f 102/102/102 104/104/104 105/105/105
f 102/102/102 105/105/105 103/103/103
f 104/104/104 106/106/106 105/105/105
f 99/99/99 107/107/107 104/104/104
f 99/99/99 108/108/108 107/107/107
f 108/108/108 99/99/99 109/109/109
f 109/109/109 99/99/99 70/70/70
f 105/105/105 110/110/110 103/103/103
f 111/111/111 109/109/109 70/70/70
f 109/109/109 111/111/111 112/112/112
f 111/111/111 70/70/70 113/113/113
f 111/111/111 114/114/114 112/112/112
f 114/114/114 111/111/111 113/113/113
f 115/115/115 114/114/114 113/113/113
f 116/116/116 103/103/103 110/110/110
f 117/117/117 116/116/116 110/110/110
f 116/116/116 118/118/118 103/103/103
f 98/98/98 103/103/103 118/118/118
f 119/119/119 118/118/118 116/116/116
f 119/119/119 120/120/120 118/118/118
f 100/100/100 98/98/98 118/118/118
f 120/120/120 121/121/121 118/118/118
f 121/121/121 100/100/100 118/118/118
f 100/100/100 121/121/121 122/122/122
f 122/122/122 101/101/101 100/100/100
f 101/101/101 122/122/122 123/123/123
f 123/123/123 124/124/124 101/101/101
f 122/122/122 125/125/125 123/123/123
f 121/121/121 126/126/126 122/122/122
f 126/126/126 125/125/125 122/122/122
f 126/126/126 121/121/121 127/127/127
f 126/126/126 128/128/128 125/125/125
f 131/131/131 130/130/130 129/129/129
f 130/130/130 131/131/131 132/132/132
f 132/132/132 131/131/131 133/133/133
f 133/133/133 134/134/134 132/132/132
f 134/134/134 133/133/133 135/135/135
f 133/133/133 136/136/136 135/135/135
f 134/134/134 135/135/135 137/137/137
f 138/138/138 135/135/135 136/136/136
f 138/138/138 137/137/137 135/135/135
f 138/138/138 136/136/136 139/139/139
f 140/140/140 139/139/139 136/136/136
f 141/141/141 139/139/139 140/140/140
f 140/140/140 142/142/142 141/141/141
f 138/138/138 139/139/139 143/143/143
f 141/141/141 143/143/143 139/139/139
f 142/142/142 144/144/144 141/141/141
f 142/142/142 145/145/145 144/144/144
f 145/145/145 146/146/146 144/144/144
f 141/141/141 144/144/144 147/147/147
f 147/147/147 143/143/143 141/141/141
f 144/144/144 146/146/146 148/148/148
f 144/144/144 148/148/148 147/147/147
f 149/149/149 147/147/147 148/148/148
f 146/146/146 150/150/150 148/148/148
f 148/148/148 150/150/150 149/149/149
f 146/146/146 151/151/151 150/150/150
f 143/143/143 147/147/147 21/21/21
f 147/147/147 149/149/149 21/21/21
f 143/143/143 19/19/19 138/138/138
f 21/21/21 19/19/19 143/143/143
f 13/13/13 138/138/138 19/19/19
f 13/13/13 137/137/137 138/138/138
f 137/137/137 13/13/13 10/10/10
f 11/11/11 137/137/137 10/10/10
f 149/149/149 152/152/152 21/21/21
f 22/22/22 21/21/21 152/152/152
f 152/152/152 38/38/38 22/22/22
f 39/39/39 38/38/38 152/152/152
f 57/57/57 39/39/39 152/152/152
f 152/152/152 149/149/149 57/57/57
f 57/57/57 149/149/149 153/153/153
f 57/57/57 153/153/153 56/56/56
f 59/59/59 56/56/56 153/153/153
f 149/149/149 154/154/154 153/153/153
f 150/150/150 154/154/154 149/149/149
f 150/150/150 155/155/155 154/154/154
f 151/151/151 155/155/155 150/150/150
f 153/153/153 154/154/154 156/156/156
f 155/155/155 156/156/156 154/154/154
f 157/157/157 59/59/59 153/153/153
f 157/157/157 153/153/153 156/156/156
f 158/158/158 155/155/155 151/151/151
f 159/159/159 156/156/156 155/155/155
f 155/155/155 158/158/158 159/159/159
f 160/160/160 157/157/157 156/156/156
f 156/156/156 159/159/159 160/160/160
f 157/157/157 161/161/161 59/59/59
f 157/157/157 160/160/160 161/161/161
f 151/151/151 162/162/162 158/158/158
f 162/162/162 151/151/151 163/163/163
f 59/59/59 161/161/161 164/164/164
f 59/59/59 164/164/164 58/58/58
f 58/58/58 164/164/164 61/61/61
f 165/165/165 61/61/61 164/164/164
f 165/165/165 166/166/166 61/61/61
f 61/61/61 166/166/166 167/167/167
f 62/62/62 61/61/61 167/167/167
f 168/168/168 164/164/164 161/161/161
f 169/169/169 168/168/168 161/161/161
f 169/169/169 161/161/161 160/160/160
f 169/169/169 170/170/170 168/168/168
f 171/171/171 169/169/169 160/160/160
f 171/171/171 160/160/160 159/159/159
f 171/171/171 159/159/159 172/172/172
f 159/159/159 158/158/158 172/172/172
f 172/172/172 158/158/158 173/173/173
f 158/158/158 162/162/162 173/173/173
f 174/174/174 173/173/173 162/162/162
f 163/163/163 174/174/174 162/162/162
f 163/163/163 175/175/175 174/174/174
f 175/175/175 163/163/163 176/176/176
f 177/177/177 174/174/174 175/175/175
f 174/174/174 178/178/178 173/173/173
f 174/174/174 177/177/177 178/178/178
f 172/172/172 173/173/173 179/179/179
f 173/173/173 178/178/178 179/179/179
f 178/178/178 177/177/177 180/180/180
f 178/178/178 180/180/180 179/179/179
f 177/177/177 181/181/181 180/180/180
f 182/182/182 172/172/172 179/179/179
f 171/171/171 172/172/172 182/182/182
f 183/183/183 180/180/180 181/181/181
f 184/184/184 183/183/183 181/181/181
f 183/183/183 184/184/184 185/185/185
f 186/186/186 179/179/179 180/180/180
f 183/183/183 186/186/186 180/180/180
f 182/182/182 179/179/179 186/186/186
f 187/187/187 183/183/183 185/185/185
f 183/183/183 187/187/187 186/186/186
f 188/188/188 182/182/182 186/186/186
f 188/188/188 186/186/186 187/187/187
f 189/189/189 171/171/171 182/182/182
f 182/182/182 188/188/188 189/189/189
f 187/187/187 185/185/185 128/128/128
f 185/185/185 125/125/125 128/128/128
f 190/190/190 187/187/187 128/128/128
f 191/191/191 190/190/190 128/128/128
f 191/191/191 192/192/192 190/190/190
f 193/193/193 188/188/188 187/187/187
f 187/187/187 190/190/190 193/193/193
f 194/194/194 190/190/190 192/192/192
f 193/193/193 190/190/190 194/194/194
f 193/193/193 195/195/195 188/188/188
f 189/189/189 188/188/188 195/195/195
f 195/195/195 193/193/193 194/194/194
f 189/189/189 196/196/196 171/171/171
f 171/171/171 196/196/196 169/169/169
f 192/192/192 197/197/197 194/194/194
f 198/198/198 197/197/197 192/192/192
f 199/199/199 197/197/197 198/198/198
f 200/200/200 194/194/194 197/197/197
f 197/197/197 199/199/199 200/200/200
f 194/194/194 200/200/200 195/195/195
f 201/201/201 200/200/200 199/199/199
f 202/202/202 200/200/200 201/201/201
f 189/189/189 203/203/203 196/196/196
f 189/189/189 195/195/195 203/203/203
f 169/169/169 196/196/196 204/204/204
f 203/203/203 204/204/204 196/196/196
f 170/170/170 169/169/169 204/204/204
f 200/200/200 205/205/205 195/195/195
f 205/205/205 200/200/200 202/202/202
f 205/205/205 203/203/203 195/195/195
f 205/205/205 202/202/202 206/206/206
f 205/205/205 206/206/206 203/203/203
f 203/203/203 206/206/206 204/204/204
f 202/202/202 207/207/207 206/206/206
f 170/170/170 204/204/204 208/208/208
f 206/206/206 208/208/208 204/204/204
f 206/206/206 207/207/207 208/208/208
f 209/209/209 170/170/170 208/208/208
f 207/207/207 210/210/210 208/208/208
f 209/209/209 208/208/208 210/210/210
f 168/168/168 170/170/170 209/209/209
f 168/168/168 209/209/209 165/165/165
f 168/168/168 165/165/165 164/164/164
f 165/165/165 209/209/209 166/166/166
f 166/166/166 209/209/209 210/210/210
f 210/210/210 211/211/211 166/166/166
f 211/211/211 210/210/210 207/207/207
f 211/211/211 167/167/167 166/166/166
f 212/212/212 211/211/211 207/207/207
f 202/202/202 212/212/212 207/207/207
f 211/211/211 213/213/213 167/167/167
f 211/211/211 212/212/212 213/213/213
f 202/202/202 214/214/214 212/212/212
f 214/214/214 202/202/202 201/201/201
f 215/215/215 214/214/214 201/201/201
f 213/213/213 216/216/216 167/167/167
f 62/62/62 167/167/167 216/216/216
f 214/214/214 217/217/217 212/212/212
f 212/212/212 217/217/217 213/213/213
f 214/214/214 215/215/215 218/218/218
f 218/218/218 215/215/215 219/219/219
f 219/219/219 215/215/215 220/220/220
f 221/221/221 220/220/220 215/215/215
f 214/214/214 218/218/218 222/222/222
f 214/214/214 222/222/222 217/217/217
f 218/218/218 223/223/223 222/222/222
f 224/224/224 222/222/222 223/223/223
f 224/224/224 223/223/223 225/225/225
f 226/226/226 217/217/217 222/222/222
f 226/226/226 222/222/222 224/224/224
f 213/213/213 217/217/217 227/227/227
f 227/227/227 217/217/217 226/226/226
f 224/224/224 225/225/225 228/228/228
f 225/225/225 229/229/229 228/228/228
f 224/224/224 228/228/228 230/230/230
f 226/226/226 224/224/224 230/230/230
f 230/230/230 228/228/228 231/231/231
f 227/227/227 232/232/232 213/213/213
f 232/232/232 216/216/216 213/213/213
f 233/233/233 227/227/227 226/226/226
f 226/226/226 230/230/230 233/233/233
f 227/227/227 233/233/233 232/232/232
f 233/233/233 230/230/230 234/234/234
f 234/234/234 230/230/230 231/231/231
f 232/232/232 233/233/233 234/234/234
f 232/232/232 235/235/235 216/216/216
f 234/234/234 236/236/236 232/232/232
f 236/236/236 235/235/235 232/232/232
f 234/234/234 231/231/231 237/237/237
f 234/234/234 237/237/237 236/236/236
f 235/235/235 238/238/238 216/216/216
f 238/238/238 62/62/62 216/216/216
f 239/239/239 62/62/62 238/238/238
f 239/239/239 238/238/238 235/235/235
f 60/60/60 62/62/62 239/239/239
f 231/231/231 240/240/240 237/237/237
f 231/231/231 241/241/241 240/240/240
f 242/242/242 237/237/237 240/240/240
f 242/242/242 240/240/240 243/243/243
f 244/244/244 242/242/242 243/243/243
f 244/244/244 245/245/245 242/242/242
f 246/246/246 237/237/237 242/242/242
f 245/245/245 246/246/246 242/242/242
f 246/246/246 236/236/236 237/237/237
f 247/247/247 235/235/235 236/236/236
f 247/247/247 236/236/236 246/246/246
f 245/245/245 55/55/55 246/246/246
f 55/55/55 247/247/247 246/246/246
f 245/245/245 52/52/52 55/55/55
f 245/245/245 51/51/51 52/52/52
f 247/247/247 55/55/55 54/54/54
f 235/235/235 247/247/247 54/54/54
f 239/239/239 235/235/235 54/54/54
f 48/48/48 239/239/239 54/54/54
f 239/239/239 48/48/48 46/46/46
f 46/46/46 48/48/48 44/44/44
f 60/60/60 239/239/239 46/46/46
f 60/60/60 46/46/46 47/47/47
f 250/250/250 249/249/249 248/248/248
f 250/250/250 248/248/248 251/251/251
f 251/251/251 253/253/253 252/252/252
f 253/253/253 254/254/254 252/252/252
f 255/255/255 254/254/254 253/253/253
f 255/255/255 256/256/256 254/254/254
f 257/257/257 254/254/254 256/256/256
f 258/258/258 254/254/254 257/257/257
f 259/259/259 258/258/258 257/257/257
f 255/255/255 241/241/241 256/256/256
f 229/229/229 257/257/257 256/256/256
f 256/256/256 241/241/241 229/229/229
f 241/241/241 228/228/228 229/229/229
f 231/231/231 228/228/228 241/241/241
f 241/241/241 255/255/255 240/240/240
f 260/260/260 240/240/240 255/255/255
f 240/240/240 260/260/260 243/243/243
f 257/257/257 229/229/229 225/225/225
f 261/261/261 257/257/257 225/225/225
f 262/262/262 261/261/261 225/225/225
f 262/262/262 225/225/225 223/223/223
f 263/263/263 262/262/262 223/223/223
f 116/116/116 117/117/117 264/264/264
f 264/264/264 119/119/119 116/116/116
f 119/119/119 264/264/264 265/265/265
f 265/265/265 264/264/264 266/266/266
f 267/267/267 265/265/265 266/266/266
f 268/268/268 265/265/265 267/267/267
f 265/265/265 269/269/269 119/119/119
f 269/269/269 120/120/120 119/119/119
f 270/270/270 269/269/269 265/265/265
f 127/127/127 120/120/120 269/269/269
f 120/120/120 127/127/127 121/121/121
f 271/271/271 127/127/127 269/269/269
f 127/127/127 271/271/271 126/126/126
f 271/271/271 128/128/128 126/126/126
f 271/271/271 191/191/191 128/128/128
f 271/271/271 269/269/269 272/272/272
f 191/191/191 271/271/271 272/272/272
f 270/270/270 272/272/272 269/269/269
f 191/191/191 272/272/272 273/273/273
f 270/270/270 273/273/273 272/272/272
f 192/192/192 191/191/191 273/273/273
f 273/273/273 198/198/198 192/192/192
f 270/270/270 198/198/198 273/273/273
f 270/270/270 274/274/274 198/198/198
f 221/221/221 198/198/198 274/274/274
f 221/221/221 199/199/199 198/198/198
f 201/201/201 199/199/199 221/221/221
f 215/215/215 201/201/201 221/221/221
f 220/220/220 221/221/221 274/274/274
f 220/220/220 275/275/275 263/263/263
f 263/263/263 219/219/219 220/220/220
f 219/219/219 263/263/263 223/223/223
f 223/223/223 218/218/218 219/219/219
f 278/278/278 277/277/277 276/276/276
f 278/278/278 279/279/279 277/277/277
f 280/280/280 279/279/279 278/278/278
f 281/281/281 280/280/280 278/278/278
f 280/280/280 282/282/282 279/279/279
f 281/281/281 283/283/283 280/280/280
f 282/282/282 280/280/280 284/284/284
f 280/280/280 283/283/283 285/285/285
f 280/280/280 285/285/285 284/284/284
f 286/286/286 285/285/285 283/283/283
f 1/1/1 284/284/284 285/285/285
f 285/285/285 286/286/286 4/4/4
f 4/4/4 1/1/1 285/285/285
f 76/76/76 75/75/75 276/276/276
f 287/287/287 276/276/276 75/75/75
f 276/276/276 287/287/287 278/278/278
f 287/287/287 75/75/75 73/73/73
f 71/71/71 73/73/73 75/75/75
f 278/278/278 287/287/287 288/288/288
f 288/288/288 281/281/281 278/278/278
f 289/289/289 287/287/287 73/73/73
f 287/287/287 289/289/289 288/288/288
f 289/289/289 73/73/73 290/290/290
f 72/72/72 290/290/290 73/73/73
f 288/288/288 289/289/289 291/291/291
f 289/289/289 290/290/290 291/291/291
f 288/288/288 292/292/292 281/281/281
f 292/292/292 288/288/288 291/291/291
f 290/290/290 72/72/72 293/293/293
f 293/293/293 291/291/291 290/290/290
f 292/292/292 294/294/294 281/281/281
f 281/281/281 294/294/294 283/283/283
f 294/294/294 295/295/295 283/283/283
f 296/296/296 294/294/294 292/292/292
f 296/296/296 295/295/295 294/294/294
f 291/291/291 297/297/297 292/292/292
f 296/296/296 292/292/292 297/297/297
f 298/298/298 293/293/293 72/72/72
f 298/298/298 72/72/72 65/65/65
f 298/298/298 65/65/65 63/63/63
f 293/293/293 299/299/299 291/291/291
f 297/297/297 291/291/291 299/299/299
f 283/283/283 295/295/295 300/300/300
f 300/300/300 286/286/286 283/283/283
f 286/286/286 300/300/300 4/4/4
f 300/300/300 301/301/301 4/4/4
f 3/3/3 4/4/4 301/301/301
f 3/3/3 301/301/301 6/6/6
f 9/9/9 6/6/6 301/301/301
f 300/300/300 302/302/302 301/301/301
f 302/302/302 300/300/300 295/295/295
f 302/302/302 9/9/9 301/301/301
f 9/9/9 302/302/302 303/303/303
f 295/295/295 303/303/303 302/302/302
f 9/9/9 303/303/303 11/11/11
f 8/8/8 9/9/9 11/11/11
f 303/303/303 304/304/304 11/11/11
f 303/303/303 295/295/295 304/304/304
f 304/304/304 137/137/137 11/11/11
f 304/304/304 134/134/134 137/137/137
f 295/295/295 305/305/305 304/304/304
f 305/305/305 295/295/295 296/296/296
f 304/304/304 306/306/306 134/134/134
f 306/306/306 304/304/304 305/305/305
f 132/132/132 134/134/134 306/306/306
f 307/307/307 305/305/305 296/296/296
f 307/307/307 306/306/306 305/305/305
f 296/296/296 297/297/297 307/307/307
f 132/132/132 306/306/306 308/308/308
f 308/308/308 306/306/306 307/307/307
f 308/308/308 130/130/130 132/132/132
f 308/308/308 307/307/307 309/309/309
f 297/297/297 309/309/309 307/307/307
f 309/309/309 310/310/310 308/308/308
f 309/309/309 297/297/297 311/311/311
f 310/310/310 309/309/309 311/311/311
f 297/297/297 299/299/299 311/311/311
f 311/311/311 312/312/312 310/310/310
f 311/311/311 299/299/299 312/312/312
f 312/312/312 313/313/313 310/310/310
f 312/312/312 299/299/299 314/314/314
f 299/299/299 293/293/293 314/314/314
f 293/293/293 298/298/298 314/314/314
f 315/315/315 313/313/313 312/312/312
f 312/312/312 314/314/314 315/315/315
f 313/313/313 315/315/315 316/316/316
f 316/316/316 315/315/315 86/86/86
f 86/86/86 315/315/315 314/314/314
f 298/298/298 86/86/86 314/314/314
f 86/86/86 298/298/298 85/85/85
f 298/298/298 63/63/63 85/85/85
f 63/63/63 81/81/81 85/85/85
f 63/63/63 80/80/80 81/81/81
f 64/64/64 80/80/80 63/63/63
f 64/64/64 68/68/68 80/80/80
f 70/70/70 66/66/66 113/113/113
f 66/66/66 69/69/69 113/113/113
f 69/69/69 74/74/74 113/113/113
f 74/74/74 115/115/115 113/113/113
f 115/115/115 74/74/74 76/76/76
f 101/101/101 88/88/88 90/90/90
f 124/124/124 88/88/88 101/101/101
f 88/88/88 124/124/124 87/87/87
f 124/124/124 317/317/317 87/87/87
f 124/124/124 318/318/318 317/317/317
f 124/124/124 123/123/123 318/318/318
f 319/319/319 87/87/87 317/317/317
f 87/87/87 319/319/319 320/320/320
f 84/84/84 87/87/87 320/320/320
f 316/316/316 84/84/84 320/320/320
f 84/84/84 316/316/316 86/86/86
f 320/320/320 321/321/321 316/316/316
f 321/321/321 320/320/320 319/319/319
f 321/321/321 313/313/313 316/316/316
f 319/319/319 317/317/317 322/322/322
f 318/318/318 323/323/323 317/317/317
f 322/322/322 317/317/317 323/323/323
f 319/319/319 322/322/322 324/324/324
f 321/321/321 319/319/319 324/324/324
f 325/325/325 324/324/324 322/322/322
f 323/323/323 325/325/325 322/322/322
f 324/324/324 326/326/326 321/321/321
f 326/326/326 324/324/324 325/325/325
f 327/327/327 313/313/313 321/321/321
f 326/326/326 327/327/327 321/321/321
f 327/327/327 328/328/328 313/313/313
f 310/310/310 313/313/313 328/328/328
f 329/329/329 327/327/327 326/326/326
f 328/328/328 327/327/327 329/329/329
f 130/130/130 310/310/310 328/328/328
f 310/310/310 130/130/130 308/308/308
f 130/130/130 328/328/328 129/129/129
f 129/129/129 328/328/328 329/329/329
f 330/330/330 329/329/329 326/326/326
f 325/325/325 330/330/330 326/326/326
f 129/129/129 329/329/329 331/331/331
f 331/331/331 329/329/329 330/330/330
f 332/332/332 129/129/129 331/331/331
f 131/131/131 129/129/129 332/332/332
f 333/333/333 131/131/131 332/332/332
f 131/131/131 333/333/333 133/133/133
f 133/133/133 333/333/333 136/136/136
f 333/333/333 140/140/140 136/136/136
f 142/142/142 140/140/140 333/333/333
f 333/333/333 332/332/332 176/176/176
f 333/333/333 176/176/176 142/142/142
f 332/332/332 331/331/331 176/176/176
f 176/176/176 145/145/145 142/142/142
f 163/163/163 145/145/145 176/176/176
f 145/145/145 163/163/163 146/146/146
f 163/163/163 151/151/151 146/146/146
f 331/331/331 334/334/334 176/176/176
f 334/334/334 175/175/175 176/176/176
f 334/334/334 331/331/331 330/330/330
f 334/334/334 335/335/335 175/175/175
f 335/335/335 334/334/334 330/330/330
f 335/335/335 177/177/177 175/175/175
f 330/330/330 325/325/325 335/335/335
f 336/336/336 177/177/177 335/335/335
f 325/325/325 336/336/336 335/335/335
f 177/177/177 336/336/336 181/181/181
f 323/323/323 336/336/336 325/325/325
f 336/336/336 337/337/337 181/181/181
f 336/336/336 323/323/323 337/337/337
f 184/184/184 181/181/181 337/337/337
f 323/323/323 338/338/338 337/337/337
f 318/318/318 338/338/338 323/323/323
f 339/339/339 337/337/337 338/338/338
f 318/318/318 339/339/339 338/338/338
f 339/339/339 184/184/184 337/337/337
f 123/123/123 339/339/339 318/318/318
f 339/339/339 340/340/340 184/184/184
f 339/339/339 123/123/123 340/340/340
f 184/184/184 340/340/340 185/185/185
f 123/123/123 125/125/125 340/340/340
f 340/340/340 125/125/125 185/185/185
f 26/26/26 25/25/25 28/28/28
f 28/28/28 341/341/341 26/26/26
f 341/341/341 28/28/28 342/342/342
f 343/343/343 341/341/341 342/342/342
f 28/28/28 30/30/30 342/342/342
f 343/343/343 342/342/342 344/344/344
f 345/345/345 342/342/342 30/30/30
f 342/342/342 345/345/345 344/344/344
f 346/346/346 345/345/345 30/30/30
f 346/346/346 30/30/30 31/31/31
f 31/31/31 35/35/35 346/346/346
f 35/35/35 347/347/347 346/346/346
f 347/347/347 345/345/345 346/346/346
f 348/348/348 345/345/345 347/347/347
f 50/50/50 347/347/347 35/35/35
f 50/50/50 348/348/348 347/347/347
f 349/349/349 344/344/344 345/345/345
f 345/345/345 348/348/348 349/349/349
f 349/349/349 350/350/350 344/344/344
f 350/350/350 349/349/349 351/351/351
f 349/349/349 352/352/352 351/351/351
f 352/352/352 349/349/349 348/348/348
f 249/249/249 351/351/351 352/352/352
f 248/248/248 249/249/249 352/352/352
f 353/353/353 348/348/348 50/50/50
f 353/353/353 50/50/50 51/51/51
f 354/354/354 353/353/353 51/51/51
f 353/353/353 354/354/354 348/348/348
f 51/51/51 245/245/245 354/354/354
f 245/245/245 244/244/244 354/354/354
f 352/352/352 348/348/348 355/355/355
f 354/354/354 355/355/355 348/348/348
f 354/354/354 244/244/244 355/355/355
f 248/248/248 352/352/352 355/355/355
f 244/244/244 243/243/243 355/355/355
f 243/243/243 248/248/248 355/355/355
f 248/248/248 243/243/243 260/260/260
f 251/251/251 248/248/248 260/260/260
f 253/253/253 251/251/251 260/260/260
f 260/260/260 255/255/255 253/253/253

