mtllib material.mtl
usemtl material_0
v -0.01817894 0.00031317 0.10367600
v -0.00895699 -0.00111944 0.11848880
v -0.00770275 -0.00648330 0.11802020
v -0.01651590 0.03975687 -0.08950851
v -0.03210123 0.05911755 -0.06832452
v -0.02998141 0.03699350 -0.08950851
v -0.01086687 0.06370410 -0.06832452
v -0.03026211 0.07069173 -0.04377541
v -0.00305017 0.03699350 -0.08950851
v -0.00588091 0.07112624 -0.04367729
v 0.01036768 0.05911755 -0.06832452
v 0.00836526 0.02912409 -0.08950851
v 0.01690426 0.06524502 -0.04363983
v 0.02836925 0.04605605 -0.06832456
v 0.01599301 0.01734670 -0.08950851
v 0.04101657 0.05490609 -0.04369562
v 0.04414001 0.02778244 -0.06832456
v 0.01867151 0.00345430 -0.08950851
v 0.05548145 0.03296173 -0.04374122
v 0.04841078 0.05723533 -0.02172322
v 0.04462134 0.00344989 -0.06832456
v 0.01599302 -0.01043805 -0.08950850
v -0.04902460 0.01734670 -0.08950851
v -0.07814950 0.00344995 -0.06832454
v -0.05170316 0.00345436 -0.08950851
v -0.06930700 0.03146800 -0.06832456
v -0.04139702 0.02912409 -0.08950844
v -0.05010285 0.04605611 -0.06832452
v -0.07671946 0.03584125 -0.04369576
v -0.05250233 0.05776585 -0.04372901
v -0.05170316 0.00345436 -0.08950851
v -0.07814950 0.00344995 -0.06832454
v -0.06906821 -0.02174467 -0.06832457
v -0.04902459 -0.01043805 -0.08950850
v -0.05105488 -0.03946371 -0.06832456
v -0.04139704 -0.02221543 -0.08950850
v -0.03210124 -0.05221777 -0.06832456
v -0.03312857 -0.06997291 -0.04372708
v -0.00572704 -0.06991334 -0.04388943
v -0.05223872 -0.05236207 -0.04359737
v -0.07549991 -0.02931256 -0.04346684
v -0.02928140 -0.07027128 -0.02177420
v -0.05181337 -0.05683048 -0.02201701
v 0.00010765 -0.07692651 -0.02185904
v -0.02998141 -0.03008485 -0.08950851
v -0.01086688 -0.05680432 -0.06832456
v -0.01651588 -0.03284821 -0.08950848
v 0.01036768 -0.05221777 -0.06832456
v -0.00305026 -0.03008485 -0.08950851
v 0.01876141 -0.06377988 -0.04381593
v 0.02836925 -0.03915627 -0.06832452
v 0.00836526 -0.02221543 -0.08950851
v 0.03655393 -0.04475166 -0.04365240
v 0.04039744 -0.01960838 -0.06832456
v 0.04895394 -0.02235724 -0.04361378
v 0.05460856 0.00367582 -0.04364887
v 0.06163063 0.03353181 -0.02169554
v 0.06718092 0.00329135 -0.02211702
v 0.05909967 -0.02476242 -0.02166707
v 0.04600571 -0.04932499 -0.02179570
v 0.02548414 -0.06618290 -0.02188982
v 0.04925808 -0.05138414 0.00119155
v 0.02753488 -0.06696192 0.00114805
v -0.07982495 0.00338794 -0.04371811
v -0.07797220 0.00336706 -0.02184214
v -0.07108326 0.03503685 -0.02195499
v -0.07180674 0.00327074 0.00096307
v -0.07982495 0.00338794 -0.04371811
v -0.07219896 -0.02878706 -0.02159543
v -0.07797220 0.00336706 -0.02184214
v -0.07048660 -0.02760829 0.00155063
v -0.07180674 0.00327074 0.00096307
v -0.06379279 -0.02408539 0.02447639
v -0.04608372 -0.05450573 0.00104760
v -0.02482067 -0.07046887 0.00103253
v -0.02346138 -0.06535838 0.02438801
v -0.04314376 -0.05051994 0.02442648
v -0.01785917 -0.05490008 0.04639369
v -0.03370734 -0.04114614 0.04551356
v -0.01077520 -0.04142966 0.06861805
v -0.05149479 -0.01921445 0.04535885
v -0.02265438 -0.03033322 0.06751153
v -0.00659502 -0.03052262 0.08442213
v -0.01491265 -0.02127529 0.08383816
v -0.00311744 -0.02088421 0.10277490
v -0.03539427 -0.01514593 0.06809314
v -0.05541913 0.00304577 0.04543759
v -0.06736176 0.00325303 0.02438556
v -0.03968375 0.00196644 0.06903775
v -0.02119013 -0.01112085 0.08360127
v -0.02859911 0.00107888 0.08513660
v -0.00944765 -0.01528874 0.10228070
v -0.01333940 -0.00796151 0.10199200
v -0.00447402 -0.01080256 0.11733740
v -0.00008176 -0.01367062 0.11714310
v 0.00499913 -0.01486780 0.11746730
v 0.04893869 0.05763139 0.00110898
v 0.06288448 0.03267563 0.00109405
v 0.04636587 0.05498130 0.02453645
v 0.06568596 0.00338566 0.00113408
v 0.05509424 0.02898102 0.02421986
v 0.05987766 -0.02452672 0.00125351
v 0.05863347 0.00322105 0.02410747
v 0.05511291 -0.02254924 0.02419748
v 0.04387812 -0.04573249 0.02435735
v 0.04700270 -0.01815481 0.04497542
v 0.03695190 -0.03639339 0.04500204
v 0.03866894 -0.01382623 0.06681380
v 0.04975774 0.00298789 0.04476065
v 0.04768796 0.02454218 0.04507918
v 0.03882796 0.04474509 0.04568025
v 0.04054856 0.00193068 0.06649240
v 0.02161496 0.05504714 0.04519797
v 0.02462646 0.06661575 0.02428792
v 0.01967571 0.04188122 0.06723413
v 0.03276896 0.03342219 0.06766851
v 0.01631671 0.03057837 0.08397762
v 0.03852519 0.01766919 0.06672173
v 0.02710395 0.02520866 0.08418331
v 0.03160503 0.00088907 0.08360814
v 0.03050392 -0.01066127 0.08365078
v 0.03128113 0.01288919 0.08359841
v 0.02521948 0.00018768 0.10200300
v 0.02322336 -0.00782154 0.10181560
v 0.01880118 0.01468290 0.10174350
v 0.01296941 0.02031699 0.10246540
v 0.01019055 0.01167736 0.11765160
v 0.01430859 0.00839973 0.11663420
v 0.02312983 0.00808030 0.10179850
v 0.01743059 0.00413863 0.11738840
v 0.01851405 -0.00112137 0.11754140
v 0.01668224 -0.00608492 0.11574090
v 0.01897140 -0.01457845 0.10194670
v 0.02357643 -0.01942325 0.08379364
v 0.01396956 -0.01031182 0.11592550
v -0.04878593 0.05997191 -0.02188586
v -0.06777611 0.03264614 0.00113896
v -0.06736176 0.00325303 0.02438556
v -0.06372639 0.03051137 0.02438312
v -0.02394383 0.07280521 -0.02186716
v -0.04570121 0.05883156 0.00117430
v 0.00077120 0.07475229 -0.02138295
v -0.04289610 0.05459917 0.02428041
v -0.05424520 0.02790376 0.04527767
v -0.02142905 0.07191566 0.00123182
v 0.02502789 0.07145688 -0.02171059
v 0.00290916 0.07534260 0.00126379
v 0.02639733 0.07005539 0.00111883
v -0.02042879 0.06757412 0.02434238
v -0.03995671 0.04453169 0.04478811
v 0.00235209 0.07084745 0.02425084
v -0.01588782 0.05628007 0.04537512
v 0.00305941 0.06072423 0.04549979
v -0.03887614 0.02140716 0.06941678
v -0.03968375 0.00196644 0.06903775
v -0.02859911 0.00107888 0.08513660
v -0.02751833 0.03402311 0.06748816
v -0.02289473 0.01325481 0.08412480
v -0.01817894 0.00031317 0.10367600
v 0.00512116 0.04660266 0.06771903
v -0.00956912 0.04227849 0.06733924
v -0.01355688 0.00786826 0.10266260
v -0.00895699 -0.00111944 0.11848880
v -0.00727061 0.00407755 0.11699440
v -0.01663773 0.02526494 0.08431051
v -0.00947478 0.01574214 0.10243290
v -0.00484476 0.00889515 0.11848490
v -0.00561090 0.02978775 0.08377588
v 0.00521950 0.03509571 0.08437862
v -0.00253713 0.01987005 0.10216520
v -0.00016996 0.01162339 0.11749110
v 0.00512898 0.02219881 0.10259770
v 0.00500426 0.01247545 0.11694090
v 0.00287564 -0.07421827 0.00115825
v 0.00228349 -0.06699373 0.02440100
v 0.02447389 -0.05974761 0.02425661
v 0.00302284 -0.05675548 0.04588849
v 0.02138540 -0.04830137 0.04511660
v 0.00513753 -0.04164386 0.06742548
v 0.02963669 -0.02595102 0.06640165
v 0.01922379 -0.03666401 0.06694601
v 0.01552879 -0.02661519 0.08370656
v 0.00521966 -0.02948020 0.08394463
v 0.01202137 -0.01766855 0.10193060
v 0.01024908 -0.01405916 0.11797090
v 0.00513261 -0.02022188 0.10210400
v -0.05541913 0.00304577 0.04543759
v -0.02998141 0.03699350 -0.08950851
v -0.02005860 0.00345462 -0.10065750
v -0.01651590 0.03975687 -0.08950851
v -0.00305017 0.03699350 -0.08950851
v 0.00836526 0.02912409 -0.08950851
v 0.01599301 0.01734670 -0.08950851
v 0.01867151 0.00345430 -0.08950851
v 0.01599302 -0.01043805 -0.08950850
v -0.04139702 0.02912409 -0.08950844
v -0.04902460 0.01734670 -0.08950851
v -0.05170316 0.00345436 -0.08950851
v -0.04902459 -0.01043805 -0.08950850
v -0.04139704 -0.02221543 -0.08950850
v -0.02998141 -0.03008485 -0.08950851
v -0.01651588 -0.03284821 -0.08950848
v -0.00305026 -0.03008485 -0.08950851
v 0.00836526 -0.02221543 -0.08950851
v 0.01396956 -0.01031182 0.11592550
v 0.01122978 -0.00807610 0.12359480
v 0.01317597 -0.00518640 0.12377990
v 0.01024908 -0.01405916 0.11797090
v 0.00835632 -0.01004042 0.12386970
v 0.00499913 -0.01486780 0.11746730
v 0.00494109 -0.01065473 0.12325310
v 0.01668224 -0.00608492 0.11574090
v 0.01392248 -0.00176205 0.12440320
v 0.01851405 -0.00112137 0.11754140
v 0.01322942 0.00167632 0.12440320
v 0.01743059 0.00413863 0.11738840
v 0.01127689 0.00458608 0.12440320
v 0.01430859 0.00839973 0.11663420
v 0.00836280 0.00652796 0.12440320
v 0.01019055 0.01167736 0.11765160
v -0.00008176 -0.01367062 0.11714310
v 0.00157468 -0.00994487 0.12293140
v -0.00447402 -0.01080256 0.11733740
v -0.00132551 -0.00805650 0.12332980
v -0.00770275 -0.00648330 0.11802020
v -0.00338803 -0.00520765 0.12440320
v -0.00895699 -0.00111944 0.11848880
v -0.00406374 -0.00176205 0.12440330
v -0.00727061 0.00407755 0.11699440
v -0.00337083 0.00167632 0.12440320
v -0.00484476 0.00889515 0.11848490
v -0.00141816 0.00458608 0.12440320
v -0.00016996 0.01162339 0.11749110
v 0.00149579 0.00652796 0.12440320
v 0.00500426 0.01247545 0.11694090
v 0.00492926 0.00720936 0.12440320
v 0.00492933 -0.00175785 0.12440320
vn -0.86607160 -0.03078688 0.49897110
vn -0.85959110 -0.01117076 0.51086040
vn -0.78765590 -0.44774670 0.42322670
vn -0.00942498 0.57546090 -0.81777510
vn -0.31570640 0.78937040 -0.52652040
vn -0.25856760 0.55748090 -0.78889660
vn 0.03027407 0.84260880 -0.53767460
vn -0.30931790 0.92882570 -0.20397340
vn 0.21708640 0.50805260 -0.83352030
vn 0.06281599 0.96427700 -0.25734030
vn 0.31168610 0.76410040 -0.56480290
vn 0.37537720 0.38784740 -0.84182320
vn 0.32697450 0.88381500 -0.33460230
vn 0.52270040 0.58123710 -0.62365680
vn 0.48425000 0.19090260 -0.85384910
vn 0.61474900 0.68587480 -0.38943470
vn 0.74408500 0.24980510 -0.61962490
vn 0.53859230 -0.02316787 -0.84224790
vn 0.86875440 0.28300300 -0.40641730
vn 0.70084270 0.69497800 -0.16070180
vn 0.80782620 -0.06564309 -0.58575410
vn 0.50659820 -0.19876420 -0.83895830
vn -0.52842940 0.27056590 -0.80470890
vn -0.88591720 -0.00763221 -0.46378060
vn -0.58207450 -0.00148653 -0.81313410
vn -0.75411500 0.43154200 -0.49505760
vn -0.41392130 0.47222730 -0.77824850
vn -0.52988170 0.67464720 -0.51388380
vn -0.88067690 0.46849280 -0.07016142
vn -0.60389770 0.78405260 -0.14341980
vn -0.58207450 -0.00148653 -0.81313410
vn -0.88591720 -0.00763221 -0.46378060
vn -0.76926310 -0.40996760 -0.49006210
vn -0.53813600 -0.27645860 -0.79622880
vn -0.56699180 -0.62962310 -0.53112610
vn -0.42987050 -0.46113190 -0.77625300
vn -0.31671090 -0.73987410 -0.59353230
vn -0.34441660 -0.88659850 -0.30873980
vn 0.06726934 -0.92839650 -0.36545140
vn -0.66353420 -0.71254840 -0.22802890
vn -0.88122810 -0.45684580 -0.12136260
vn -0.36082360 -0.93244080 0.01899279
vn -0.68916170 -0.71979430 0.08338041
vn 0.08672051 -0.99273690 -0.08338487
vn -0.25244190 -0.55778400 -0.79066440
vn 0.03121039 -0.78602650 -0.61740440
vn -0.00942100 -0.57536190 -0.81784460
vn 0.34713000 -0.70880760 -0.61407860
vn 0.21705900 -0.50797030 -0.83357760
vn 0.44461130 -0.80470460 -0.39340960
vn 0.61469460 -0.52739680 -0.58651780
vn 0.39431040 -0.37531550 -0.83884300
vn 0.71964320 -0.57150460 -0.39433000
vn 0.76880960 -0.29391520 -0.56793120
vn 0.85326930 -0.32871230 -0.40482060
vn 0.90963700 -0.08294798 -0.40703820
vn 0.93730730 0.29777280 -0.18106990
vn 0.97491890 -0.06131553 -0.21394710
vn 0.91004860 -0.33356680 -0.24605850
vn 0.76621020 -0.59184500 -0.25028280
vn 0.49563600 -0.84758510 -0.18959040
vn 0.77998630 -0.61900190 0.09196660
vn 0.46312300 -0.87739080 0.12531000
vn -0.99950870 -0.00697231 -0.03055623
vn -0.98567970 0.01514265 0.16794670
vn -0.87628140 0.45063290 0.17047230
vn -0.97911790 0.02832907 0.20131010
vn -0.99950870 -0.00697231 -0.03055623
vn -0.90271930 -0.41259450 0.12191700
vn -0.98567970 0.01514265 0.16794670
vn -0.89187230 -0.39710390 0.21650030
vn -0.97911790 0.02832907 0.20131010
vn -0.84204910 -0.37998030 0.38284240
vn -0.67530570 -0.70958330 0.20113060
vn -0.34424190 -0.92205680 0.17694290
vn -0.34478630 -0.87006500 0.35229160
vn -0.65964790 -0.65406980 0.37021260
vn -0.31837810 -0.78753970 0.52765190
vn -0.61525180 -0.57701560 0.53713900
vn -0.30332710 -0.74632000 0.59245160
vn -0.75316660 -0.36260940 0.54886670
vn -0.61133210 -0.54440780 0.57436340
vn -0.30244570 -0.76735190 0.56541810
vn -0.66357950 -0.52631610 0.53165180
vn -0.31347780 -0.82912220 0.46291270
vn -0.70882740 -0.39053570 0.58740560
vn -0.85205920 -0.04315150 0.52166370
vn -0.94015780 0.00371659 0.34071900
vn -0.79915710 -0.07247128 0.59673760
vn -0.71493610 -0.44701170 0.53763080
vn -0.78797010 -0.07298204 0.61137290
vn -0.71837530 -0.56118020 0.41111270
vn -0.78387050 -0.47789910 0.39643350
vn -0.65848030 -0.61372860 0.43559230
vn -0.31600040 -0.82992320 0.45975140
vn 0.07371387 -0.91663110 0.39287860
vn 0.72814540 0.67804970 0.10026480
vn 0.94877030 0.28485210 0.13672650
vn 0.70556500 0.62403550 0.33579400
vn 0.98847800 -0.03663976 0.14686270
vn 0.91136990 0.23715780 0.33639430
vn 0.94521420 -0.30778460 0.10880620
vn 0.94452910 -0.01761862 0.32795490
vn 0.90361270 -0.27764450 0.32618660
vn 0.72028640 -0.58723640 0.36924360
vn 0.86491360 -0.28249140 0.41487740
vn 0.68215890 -0.56853090 0.45981730
vn 0.84776010 -0.30583450 0.43332230
vn 0.92196120 -0.00611239 0.38723400
vn 0.88724860 0.21749300 0.40680080
vn 0.67519760 0.55950170 0.48069330
vn 0.91120240 -0.00857666 0.41186960
vn 0.33793040 0.80253660 0.49166860
vn 0.33678090 0.88687930 0.31626540
vn 0.36217260 0.77382170 0.51964500
vn 0.68373110 0.53771900 0.49332540
vn 0.36592810 0.75263720 0.54738830
vn 0.88260970 0.19792100 0.42641200
vn 0.66778080 0.52616200 0.52651910
vn 0.90920700 -0.01198112 0.41617200
vn 0.83994360 -0.33463870 0.42721400
vn 0.87069280 0.20087340 0.44893630
vn 0.92323180 -0.02134618 0.38365010
vn 0.85009900 -0.36385370 0.38071280
vn 0.66757970 0.53978910 0.51280120
vn 0.38790990 0.75028300 0.53535160
vn 0.38901190 0.74854170 0.53698710
vn 0.66891970 0.57794540 0.46746710
vn 0.85136320 0.28481740 0.44052220
vn 0.81319160 0.37050030 0.44883060
vn 0.89717130 -0.05502600 0.43824170
vn 0.81739150 -0.40252450 0.41212280
vn 0.65725670 -0.64726070 0.38609230
vn 0.65807490 -0.61570770 0.43340690
vn 0.67801190 -0.62253360 0.39083470
vn -0.61853460 0.77877470 0.10452160
vn -0.88444440 0.42517410 0.19231520
vn -0.94015780 0.00371659 0.34071900
vn -0.86905760 0.38822210 0.30663110
vn -0.27831710 0.96047970 0.00428612
vn -0.62939780 0.75967270 0.16357230
vn 0.05688677 0.99363790 -0.09719855
vn -0.60113350 0.73541050 0.31274580
vn -0.79476180 0.33593520 0.50547110
vn -0.30830520 0.94290040 0.12604220
vn 0.34551550 0.92607780 -0.15165390
vn 0.03682571 0.99463150 0.09670616
vn 0.35472480 0.93125710 0.08324938
vn -0.32092060 0.88790970 0.32958540
vn -0.53751240 0.68114940 0.49710750
vn 0.02446346 0.94792850 0.31754220
vn -0.30404530 0.80164740 0.51470180
vn 0.01945483 0.86424650 0.50269230
vn -0.72379750 0.29997800 0.62139390
vn -0.79915710 -0.07247128 0.59673760
vn -0.78797010 -0.07298204 0.61137290
vn -0.46561010 0.64854970 0.60215490
vn -0.69718470 0.35448090 0.62311840
vn -0.86607160 -0.03078688 0.49897110
vn 0.02010526 0.82601730 0.56328600
vn -0.30222640 0.76276700 0.57170430
vn -0.76979630 0.42197160 0.47890900
vn -0.85959110 -0.01117076 0.51086040
vn -0.78034010 0.40417740 0.47718960
vn -0.48786740 0.61040880 0.62400820
vn -0.61448090 0.60002530 0.51223330
vn -0.63354070 0.58255600 0.50917070
vn -0.32623420 0.75850670 0.56412670
vn -0.01612848 0.81343520 0.58143190
vn -0.33742510 0.79157090 0.50947010
vn -0.29717030 0.79996000 0.52130010
vn -0.03192580 0.83716270 0.54602140
vn -0.02231746 0.83672310 0.54717120
vn 0.09029779 -0.98269120 0.16175400
vn 0.10120250 -0.92762240 0.35954800
vn 0.42708800 -0.81996720 0.38111620
vn 0.13763650 -0.86283520 0.48638620
vn 0.44644080 -0.75854550 0.47465710
vn 0.16686570 -0.82301210 0.54296140
vn 0.67732290 -0.57512200 0.45876850
vn 0.46703840 -0.72994640 0.49905240
vn 0.43458960 -0.75493060 0.49113300
vn 0.17340780 -0.83515860 0.52195780
vn 0.40282050 -0.82873540 0.38850130
vn 0.40049370 -0.83636040 0.37430740
vn 0.16191060 -0.89424850 0.41725830
vn -0.85205920 -0.04315150 0.52166370
vn -0.25856760 0.55748090 -0.78889660
vn -0.01449944 0.00000113 -0.99989490
vn -0.00942498 0.57546090 -0.81777510
vn 0.21708640 0.50805260 -0.83352030
vn 0.37537720 0.38784740 -0.84182320
vn 0.48425000 0.19090260 -0.85384910
vn 0.53859230 -0.02316787 -0.84224790
vn 0.50659820 -0.19876420 -0.83895830
vn -0.41392130 0.47222730 -0.77824850
vn -0.52842940 0.27056590 -0.80470890
vn -0.58207450 -0.00148653 -0.81313410
vn -0.53813600 -0.27645860 -0.79622880
vn -0.42987050 -0.46113190 -0.77625300
vn -0.25244190 -0.55778400 -0.79066440
vn -0.00942100 -0.57536190 -0.81784460
vn 0.21705900 -0.50797030 -0.83357760
vn 0.39431040 -0.37531550 -0.83884300
vn 0.67801190 -0.62253360 0.39083470
vn 0.60788780 -0.45475670 0.65089850
vn 0.66291660 -0.40156440 0.63189210
vn 0.40049370 -0.83636040 0.37430740
vn 0.29877530 -0.58219420 0.75616350
vn 0.07371387 -0.91663110 0.39287860
vn -0.09739472 -0.65895610 0.74584910
vn 0.81739150 -0.40252450 0.41212280
vn 0.68714890 -0.11750430 0.71695130
vn 0.89717130 -0.05502600 0.43824170
vn 0.61351740 0.28697900 0.73568980
vn 0.81319160 0.37050030 0.44883060
vn 0.49756790 0.47170980 0.72795330
vn 0.66891970 0.57794540 0.46746710
vn 0.26928110 0.59468420 0.75752120
vn 0.38901190 0.74854170 0.53698710
vn -0.31600040 -0.82992320 0.45975140
vn -0.26423590 -0.62767140 0.73226230
vn -0.65848030 -0.61372860 0.43559230
vn -0.38783790 -0.56938960 0.72482910
vn -0.78765590 -0.44774670 0.42322670
vn -0.53567790 -0.34948420 0.76870670
vn -0.85959110 -0.01117076 0.51086040
vn -0.63434010 0.03866254 0.77208660
vn -0.78034010 0.40417740 0.47718960
vn -0.61573320 0.25401510 0.74588790
vn -0.63354070 0.58255600 0.50917070
vn -0.46495180 0.41213490 0.78355890
vn -0.29717030 0.79996000 0.52130010
vn -0.18243970 0.60888300 0.77199560
vn -0.02231746 0.83672310 0.54717120
vn -0.00756548 0.65739520 0.75350790
vn 0.00083232 -0.06439175 0.99792430
vt 0.08463734 0.54994930
vt 0.11221250 0.59597980
vt 0.13358650 0.59241750
vt 0.83339920 0.48802180
vt 0.82764490 0.59810730
vt 0.87061460 0.52598290
vt 0.78679650 0.55417250
vt 0.78379890 0.65270860
vt 0.79532020 0.44764160
vt 0.74697020 0.60330300
vt 0.74789630 0.50934520
vt 0.75548230 0.40661250
vt 0.70892060 0.55852230
vt 0.70821320 0.46408860
vt 0.71795710 0.36010050
vt 0.66368360 0.51157500
vt 0.66068890 0.42387300
vt 0.67332110 0.32068600
vt 0.62122740 0.47112250
vt 0.62647240 0.54649070
vt 0.62053100 0.37829570
vt 0.62849590 0.28279680
vt 0.94545980 0.58396670
vt 0.97809160 0.73332140
vt 0.98324010 0.59473290
vt 0.91322060 0.69281010
vt 0.90772540 0.55914370
vt 0.87121440 0.63983800
vt 0.87547950 0.76969210
vt 0.82516340 0.70389700
vt 0.39069780 0.03453673
vt 0.25669680 0.04278807
vt 0.29405090 0.09936571
vt 0.40124330 0.07172768
vt 0.34492860 0.14636660
vt 0.42516530 0.10838180
vt 0.39081690 0.18741790
vt 0.33177060 0.23846070
vt 0.38817100 0.27556320
vt 0.28571740 0.19596990
vt 0.22350910 0.14552120
vt 0.29170160 0.27336360
vt 0.24030690 0.23440140
vt 0.35170810 0.31513280
vt 0.45700650 0.14452640
vt 0.43584220 0.22792450
vt 0.49685560 0.17776210
vt 0.48311100 0.26448110
vt 0.53964020 0.21134270
vt 0.43774660 0.31238700
vt 0.52961500 0.30175430
vt 0.58382050 0.24632280
vt 0.48676160 0.34698930
vt 0.57509810 0.33978850
vt 0.53271040 0.38403370
vt 0.57728740 0.42472430
vt 0.58695730 0.50685800
vt 0.54248690 0.46385870
vt 0.49791530 0.42426880
vt 0.45325920 0.38727040
vt 0.40470600 0.35195410
vt 0.41955270 0.42707130
vt 0.37086690 0.39183890
vt 0.93536510 0.81663640
vt 0.88529120 0.87954600
vt 0.83502630 0.81480080
vt 0.82587980 0.92148460
vt 0.17414810 0.08209104
vt 0.17545380 0.18467500
vt 0.11459130 0.12825030
vt 0.13303110 0.22996800
vt 0.06852275 0.19102530
vt 0.10418180 0.28599640
vt 0.20715470 0.28044130
vt 0.26197270 0.31664070
vt 0.23489770 0.36189920
vt 0.17970330 0.33055980
vt 0.21675980 0.41416840
vt 0.16462680 0.38681440
vt 0.19816490 0.47277830
vt 0.09176719 0.35279160
vt 0.14973510 0.45099580
vt 0.19169850 0.51583290
vt 0.14751020 0.50172250
vt 0.18558040 0.56450900
vt 0.08992422 0.42944660
vt 0.03118849 0.33857190
vt 0.04039156 0.25983150
vt 0.03679544 0.42954220
vt 0.10628430 0.49414280
vt 0.05929208 0.49071280
vt 0.15080260 0.55393990
vt 0.11956240 0.55082730
vt 0.15751500 0.59493610
vt 0.18275870 0.60291270
vt 0.20829350 0.61630430
vt 0.59343920 0.58369270
vt 0.55122810 0.54039130
vt 0.55504330 0.61650610
vt 0.50787620 0.50097110
vt 0.51490440 0.57451740
vt 0.46477200 0.46380780
vt 0.47547780 0.53579920
vt 0.43335330 0.50069060
vt 0.38895480 0.46639640
vt 0.40116330 0.54081150
vt 0.35827390 0.50859450
vt 0.36755260 0.57879450
vt 0.43966340 0.57379870
vt 0.47807420 0.60929370
vt 0.51567800 0.64886940
vt 0.40391430 0.60947800
vt 0.55052220 0.69094230
vt 0.59353300 0.66042840
vt 0.50284120 0.71680530
vt 0.47158500 0.67882220
vt 0.46283510 0.73552860
vt 0.43820250 0.64199820
vt 0.43624690 0.70023780
vt 0.37279710 0.63865040
vt 0.34028250 0.61056990
vt 0.40418140 0.66701040
vt 0.34102140 0.67095300
vt 0.31150670 0.64614470
vt 0.39242040 0.72504650
vt 0.41716420 0.75548060
vt 0.37725730 0.76911320
vt 0.35743380 0.74262760
vt 0.36634620 0.69606860
vt 0.33458910 0.71763130
vt 0.31040350 0.69331320
vt 0.28576600 0.66968240
vt 0.28138890 0.62203670
vt 0.30565520 0.58511380
vt 0.26117430 0.64973190
vt 0.78671820 0.74602390
vt 0.79023720 0.85884510
vt 0.75806490 0.95381050
vt 0.73416880 0.88753170
vt 0.74529220 0.68925140
vt 0.74383570 0.78525540
vt 0.70810600 0.64110910
vt 0.69541000 0.81281450
vt 0.67699190 0.89645750
vt 0.70516040 0.72711520
vt 0.67051240 0.59490580
vt 0.66791520 0.67635760
vt 0.63238330 0.62987600
vt 0.65962560 0.75525130
vt 0.65021180 0.84387550
vt 0.62787590 0.70618700
vt 0.60940420 0.77837160
vt 0.58169930 0.73220770
vt 0.59571020 0.90544330
vt 0.58122230 0.95855060
vt 0.51825910 0.93801440
vt 0.58292920 0.85609840
vt 0.52212690 0.89432700
vt 0.45676550 0.91436730
vt 0.52967610 0.75740410
vt 0.55274890 0.79999250
vt 0.46176160 0.88007140
vt 0.41034750 0.88976840
vt 0.41776660 0.87060550
vt 0.52040540 0.84801120
vt 0.46118170 0.84722030
vt 0.41543010 0.84701000
vt 0.50526180 0.81169060
vt 0.48686080 0.77093030
vt 0.45124670 0.81762300
vt 0.40766570 0.82164420
vt 0.43562330 0.78531220
vt 0.39431020 0.79579400
vt 0.32017470 0.35679300
vt 0.29144380 0.40103720
vt 0.34208580 0.43323270
vt 0.26683690 0.44553260
vt 0.31352620 0.47676130
vt 0.24572470 0.49699480
vt 0.32905230 0.55019000
vt 0.28900950 0.52271190
vt 0.27078240 0.56106330
vt 0.23308350 0.53849470
vt 0.24996250 0.60338370
vt 0.23364180 0.63330500
vt 0.21954080 0.58351390
vt 0.68070170 0.96139360
vt 0.95093200 0.21079000
vt 0.80997940 0.17855660
vt 0.92786750 0.26227650
vt 0.88685520 0.30101800
vt 0.83414000 0.32111490
vt 0.77774580 0.31950960
vt 0.72625910 0.29644510
vt 0.68751810 0.25543310
vt 0.95253790 0.15439600
vt 0.93244020 0.10168070
vt 0.89369940 0.06066842
vt 0.84221230 0.03760418
vt 0.78581860 0.03599812
vt 0.73310290 0.05609572
vt 0.69209110 0.09483658
vt 0.66902640 0.14632340
vt 0.66742070 0.20271700
vt 0.19853480 0.74057670
vt 0.19785820 0.77330550
vt 0.22038290 0.77499060
vt 0.16210320 0.75101720
vt 0.17627830 0.78045950
vt 0.13404770 0.77608400
vt 0.15919330 0.79551750
vt 0.23323450 0.74312370
vt 0.24082060 0.78487350
vt 0.26671810 0.75909110
vt 0.25580040 0.80193930
vt 0.29074900 0.78719970
vt 0.26306160 0.82347610
vt 0.30195760 0.82185150
vt 0.26171710 0.84624200
vt 0.29969450 0.85820440
vt 0.11838230 0.80914600
vt 0.14885530 0.81576380
vt 0.11510820 0.84541450
vt 0.14712400 0.83847370
vt 0.12580410 0.88127760
vt 0.15430980 0.86039820
vt 0.15046810 0.91004840
vt 0.16925460 0.87782900
vt 0.18481540 0.92559700
vt 0.18986100 0.88799640
vt 0.22207850 0.92832540
vt 0.21279630 0.88958590
vt 0.25682710 0.91501300
vt 0.23449750 0.88201940
vt 0.28339010 0.89058740
vt 0.25170680 0.86684330
vt 0.20485650 0.83123420
f 3/3/3 2/2/2 1/1/1
f 6/6/6 5/5/5 4/4/4
f 5/5/5 7/7/7 4/4/4
f 5/5/5 8/8/8 7/7/7
f 4/4/4 7/7/7 9/9/9
f 8/8/8 10/10/10 7/7/7
f 7/7/7 11/11/11 9/9/9
f 7/7/7 10/10/10 11/11/11
f 9/9/9 11/11/11 12/12/12
f 10/10/10 13/13/13 11/11/11
f 11/11/11 14/14/14 12/12/12
f 11/11/11 13/13/13 14/14/14
f 12/12/12 14/14/14 15/15/15
f 13/13/13 16/16/16 14/14/14
f 14/14/14 17/17/17 15/15/15
f 14/14/14 16/16/16 17/17/17
f 15/15/15 17/17/17 18/18/18
f 16/16/16 19/19/19 17/17/17
f 16/16/16 20/20/20 19/19/19
f 17/17/17 19/19/19 21/21/21
f 17/17/17 21/21/21 18/18/18
f 18/18/18 21/21/21 22/22/22
f 25/25/25 24/24/24 23/23/23
f 24/24/24 26/26/26 23/23/23
f 23/23/23 26/26/26 27/27/27
f 26/26/26 28/28/28 27/27/27
f 27/27/27 28/28/28 6/6/6
f 26/26/26 29/29/29 28/28/28
f 28/28/28 5/5/5 6/6/6
f 29/29/29 30/30/30 28/28/28
f 28/28/28 30/30/30 5/5/5
f 30/30/30 8/8/8 5/5/5
f 33/33/33 32/32/32 31/31/31
f 34/34/34 33/33/33 31/31/31
f 35/35/35 33/33/33 34/34/34
f 36/36/36 35/35/35 34/34/34
f 37/37/37 35/35/35 36/36/36
f 37/37/37 38/38/38 35/35/35
f 39/39/39 38/38/38 37/37/37
f 38/38/38 40/40/40 35/35/35
f 35/35/35 40/40/40 33/33/33
f 40/40/40 41/41/41 33/33/33
f 38/38/38 42/42/42 40/40/40
f 42/42/42 43/43/43 40/40/40
f 44/44/44 42/42/42 38/38/38
f 45/45/45 37/37/37 36/36/36
f 46/46/46 37/37/37 45/45/45
f 47/47/47 46/46/46 45/45/45
f 46/46/46 39/39/39 37/37/37
f 48/48/48 46/46/46 47/47/47
f 49/49/49 48/48/48 47/47/47
f 50/50/50 39/39/39 46/46/46
f 48/48/48 50/50/50 46/46/46
f 51/51/51 48/48/48 49/49/49
f 52/52/52 51/51/51 49/49/49
f 53/53/53 50/50/50 48/48/48
f 51/51/51 53/53/53 48/48/48
f 54/54/54 51/51/51 52/52/52
f 22/22/22 54/54/54 52/52/52
f 21/21/21 54/54/54 22/22/22
f 54/54/54 55/55/55 51/51/51
f 55/55/55 53/53/53 51/51/51
f 21/21/21 56/56/56 54/54/54
f 56/56/56 55/55/55 54/54/54
f 19/19/19 56/56/56 21/21/21
f 19/19/19 57/57/57 56/56/56
f 57/57/57 58/58/58 56/56/56
f 56/56/56 58/58/58 55/55/55
f 58/58/58 59/59/59 55/55/55
f 55/55/55 59/59/59 53/53/53
f 59/59/59 60/60/60 53/53/53
f 53/53/53 60/60/60 50/50/50
f 60/60/60 61/61/61 50/50/50
f 60/60/60 62/62/62 61/61/61
f 62/62/62 63/63/63 61/61/61
f 50/50/50 61/61/61 39/39/39
f 61/61/61 63/63/63 44/44/44
f 61/61/61 44/44/44 39/39/39
f 39/39/39 44/44/44 38/38/38
f 24/24/24 64/64/64 26/26/26
f 64/64/64 29/29/29 26/26/26
f 64/64/64 65/65/65 29/29/29
f 65/65/65 66/66/66 29/29/29
f 65/65/65 67/67/67 66/66/66
f 33/33/33 41/41/41 32/32/32
f 41/41/41 68/68/68 32/32/32
f 41/41/41 69/69/69 68/68/68
f 69/69/69 70/70/70 68/68/68
f 43/43/43 69/69/69 41/41/41
f 40/40/40 43/43/43 41/41/41
f 69/69/69 71/71/71 70/70/70
f 71/71/71 72/72/72 70/70/70
f 71/71/71 73/73/73 72/72/72
f 43/43/43 74/74/74 69/69/69
f 74/74/74 71/71/71 69/69/69
f 75/75/75 74/74/74 43/43/43
f 75/75/75 76/76/76 74/74/74
f 74/74/74 77/77/77 71/71/71
f 76/76/76 77/77/77 74/74/74
f 77/77/77 73/73/73 71/71/71
f 76/76/76 78/78/78 77/77/77
f 77/77/77 79/79/79 73/73/73
f 78/78/78 79/79/79 77/77/77
f 78/78/78 80/80/80 79/79/79
f 79/79/79 81/81/81 73/73/73
f 80/80/80 82/82/82 79/79/79
f 79/79/79 82/82/82 81/81/81
f 80/80/80 83/83/83 82/82/82
f 83/83/83 84/84/84 82/82/82
f 83/83/83 85/85/85 84/84/84
f 82/82/82 86/86/86 81/81/81
f 82/82/82 84/84/84 86/86/86
f 81/81/81 86/86/86 87/87/87
f 81/81/81 87/87/87 88/88/88
f 86/86/86 89/89/89 87/87/87
f 86/86/86 90/90/90 89/89/89
f 84/84/84 90/90/90 86/86/86
f 90/90/90 91/91/91 89/89/89
f 85/85/85 92/92/92 84/84/84
f 84/84/84 92/92/92 90/90/90
f 90/90/90 93/93/93 91/91/91
f 92/92/92 93/93/93 90/90/90
f 93/93/93 1/1/1 91/91/91
f 93/93/93 3/3/3 1/1/1
f 94/94/94 3/3/3 93/93/93
f 92/92/92 94/94/94 93/93/93
f 95/95/95 94/94/94 92/92/92
f 85/85/85 95/95/95 92/92/92
f 96/96/96 95/95/95 85/85/85
f 20/20/20 57/57/57 19/19/19
f 20/20/20 97/97/97 57/57/57
f 97/97/97 98/98/98 57/57/57
f 57/57/57 98/98/98 58/58/58
f 97/97/97 99/99/99 98/98/98
f 98/98/98 100/100/100 58/58/58
f 58/58/58 100/100/100 59/59/59
f 99/99/99 101/101/101 98/98/98
f 98/98/98 101/101/101 100/100/100
f 100/100/100 102/102/102 59/59/59
f 59/59/59 102/102/102 60/60/60
f 102/102/102 62/62/62 60/60/60
f 100/100/100 103/103/103 102/102/102
f 101/101/101 103/103/103 100/100/100
f 102/102/102 104/104/104 62/62/62
f 103/103/103 104/104/104 102/102/102
f 104/104/104 105/105/105 62/62/62
f 104/104/104 106/106/106 105/105/105
f 106/106/106 107/107/107 105/105/105
f 106/106/106 108/108/108 107/107/107
f 103/103/103 109/109/109 104/104/104
f 109/109/109 106/106/106 104/104/104
f 101/101/101 110/110/110 103/103/103
f 110/110/110 109/109/109 103/103/103
f 99/99/99 111/111/111 101/101/101
f 111/111/111 110/110/110 101/101/101
f 112/112/112 108/108/108 106/106/106
f 109/109/109 112/112/112 106/106/106
f 113/113/113 111/111/111 99/99/99
f 114/114/114 113/113/113 99/99/99
f 113/113/113 115/115/115 111/111/111
f 115/115/115 116/116/116 111/111/111
f 111/111/111 116/116/116 110/110/110
f 115/115/115 117/117/117 116/116/116
f 110/110/110 118/118/118 109/109/109
f 116/116/116 118/118/118 110/110/110
f 118/118/118 112/112/112 109/109/109
f 116/116/116 119/119/119 118/118/118
f 112/112/112 120/120/120 108/108/108
f 120/120/120 121/121/121 108/108/108
f 118/118/118 122/122/122 112/112/112
f 119/119/119 122/122/122 118/118/118
f 122/122/122 120/120/120 112/112/112
f 120/120/120 123/123/123 121/121/121
f 123/123/123 124/124/124 121/121/121
f 119/119/119 125/125/125 122/122/122
f 126/126/126 125/125/125 119/119/119
f 126/126/126 127/127/127 125/125/125
f 127/127/127 128/128/128 125/125/125
f 122/122/122 129/129/129 120/120/120
f 125/125/125 129/129/129 122/122/122
f 125/125/125 128/128/128 129/129/129
f 129/129/129 123/123/123 120/120/120
f 128/128/128 130/130/130 129/129/129
f 129/129/129 130/130/130 123/123/123
f 130/130/130 131/131/131 123/123/123
f 123/123/123 131/131/131 124/124/124
f 131/131/131 132/132/132 124/124/124
f 124/124/124 132/132/132 133/133/133
f 124/124/124 133/133/133 134/134/134
f 132/132/132 135/135/135 133/133/133
f 29/29/29 66/66/66 30/30/30
f 66/66/66 136/136/136 30/30/30
f 30/30/30 136/136/136 8/8/8
f 66/66/66 137/137/137 136/136/136
f 67/67/67 137/137/137 66/66/66
f 67/67/67 138/138/138 137/137/137
f 138/138/138 139/139/139 137/137/137
f 136/136/136 140/140/140 8/8/8
f 8/8/8 140/140/140 10/10/10
f 137/137/137 141/141/141 136/136/136
f 137/137/137 139/139/139 141/141/141
f 136/136/136 141/141/141 140/140/140
f 140/140/140 142/142/142 10/10/10
f 10/10/10 142/142/142 13/13/13
f 139/139/139 143/143/143 141/141/141
f 139/139/139 144/144/144 143/143/143
f 141/141/141 145/145/145 140/140/140
f 140/140/140 145/145/145 142/142/142
f 141/141/141 143/143/143 145/145/145
f 142/142/142 146/146/146 13/13/13
f 13/13/13 146/146/146 16/16/16
f 146/146/146 20/20/20 16/16/16
f 145/145/145 147/147/147 142/142/142
f 142/142/142 147/147/147 146/146/146
f 146/146/146 148/148/148 20/20/20
f 147/147/147 148/148/148 146/146/146
f 148/148/148 97/97/97 20/20/20
f 143/143/143 149/149/149 145/145/145
f 145/145/145 149/149/149 147/147/147
f 144/144/144 150/150/150 143/143/143
f 143/143/143 150/150/150 149/149/149
f 148/148/148 114/114/114 97/97/97
f 114/114/114 99/99/99 97/97/97
f 147/147/147 151/151/151 148/148/148
f 149/149/149 151/151/151 147/147/147
f 151/151/151 114/114/114 148/148/148
f 149/149/149 152/152/152 151/151/151
f 150/150/150 152/152/152 149/149/149
f 151/151/151 153/153/153 114/114/114
f 152/152/152 153/153/153 151/151/151
f 153/153/153 113/113/113 114/114/114
f 144/144/144 154/154/154 150/150/150
f 155/155/155 154/154/154 144/144/144
f 155/155/155 156/156/156 154/154/154
f 150/150/150 157/157/157 152/152/152
f 154/154/154 157/157/157 150/150/150
f 156/156/156 158/158/158 154/154/154
f 154/154/154 158/158/158 157/157/157
f 156/156/156 159/159/159 158/158/158
f 153/153/153 160/160/160 113/113/113
f 160/160/160 115/115/115 113/113/113
f 152/152/152 161/161/161 153/153/153
f 157/157/157 161/161/161 152/152/152
f 161/161/161 160/160/160 153/153/153
f 159/159/159 162/162/162 158/158/158
f 159/159/159 163/163/163 162/162/162
f 163/163/163 164/164/164 162/162/162
f 158/158/158 165/165/165 157/157/157
f 157/157/157 165/165/165 161/161/161
f 158/158/158 162/162/162 165/165/165
f 162/162/162 164/164/164 166/166/166
f 162/162/162 166/166/166 165/165/165
f 164/164/164 167/167/167 166/166/166
f 165/165/165 168/168/168 161/161/161
f 161/161/161 168/168/168 160/160/160
f 165/165/165 166/166/166 168/168/168
f 160/160/160 169/169/169 115/115/115
f 168/168/168 169/169/169 160/160/160
f 169/169/169 117/117/117 115/115/115
f 166/166/166 167/167/167 170/170/170
f 166/166/166 170/170/170 168/168/168
f 168/168/168 170/170/170 169/169/169
f 167/167/167 171/171/171 170/170/170
f 170/170/170 172/172/172 169/169/169
f 170/170/170 171/171/171 172/172/172
f 169/169/169 172/172/172 117/117/117
f 171/171/171 173/173/173 172/172/172
f 172/172/172 173/173/173 126/126/126
f 172/172/172 126/126/126 117/117/117
f 173/173/173 127/127/127 126/126/126
f 117/117/117 126/126/126 119/119/119
f 117/117/117 119/119/119 116/116/116
f 42/42/42 75/75/75 43/43/43
f 174/174/174 75/75/75 42/42/42
f 44/44/44 174/174/174 42/42/42
f 63/63/63 174/174/174 44/44/44
f 174/174/174 175/175/175 75/75/75
f 175/175/175 76/76/76 75/75/75
f 63/63/63 176/176/176 174/174/174
f 176/176/176 175/175/175 174/174/174
f 175/175/175 177/177/177 76/76/76
f 177/177/177 78/78/78 76/76/76
f 105/105/105 176/176/176 63/63/63
f 62/62/62 105/105/105 63/63/63
f 105/105/105 107/107/107 176/176/176
f 176/176/176 178/178/178 175/175/175
f 107/107/107 178/178/178 176/176/176
f 178/178/178 177/177/177 175/175/175
f 177/177/177 179/179/179 78/78/78
f 179/179/179 80/80/80 78/78/78
f 107/107/107 180/180/180 178/178/178
f 108/108/108 180/180/180 107/107/107
f 108/108/108 121/121/121 180/180/180
f 178/178/178 181/181/181 177/177/177
f 180/180/180 181/181/181 178/178/178
f 181/181/181 179/179/179 177/177/177
f 121/121/121 134/134/134 180/180/180
f 180/180/180 134/134/134 181/181/181
f 121/121/121 124/124/124 134/134/134
f 134/134/134 182/182/182 181/181/181
f 181/181/181 182/182/182 179/179/179
f 134/134/134 133/133/133 182/182/182
f 179/179/179 183/183/183 80/80/80
f 182/182/182 183/183/183 179/179/179
f 183/183/183 83/83/83 80/80/80
f 133/133/133 184/184/184 182/182/182
f 182/182/182 184/184/184 183/183/183
f 133/133/133 135/135/135 184/184/184
f 135/135/135 185/185/185 184/184/184
f 183/183/183 186/186/186 83/83/83
f 184/184/184 186/186/186 183/183/183
f 184/184/184 185/185/185 186/186/186
f 186/186/186 85/85/85 83/83/83
f 185/185/185 96/96/96 186/186/186
f 186/186/186 96/96/96 85/85/85
f 73/73/73 88/88/88 72/72/72
f 73/73/73 81/81/81 88/88/88
f 138/138/138 187/187/187 139/139/139
f 187/187/187 144/144/144 139/139/139
f 187/187/187 155/155/155 144/144/144
f 190/190/190 189/189/189 188/188/188
f 191/191/191 189/189/189 190/190/190
f 192/192/192 189/189/189 191/191/191
f 193/193/193 189/189/189 192/192/192
f 194/194/194 189/189/189 193/193/193
f 195/195/195 189/189/189 194/194/194
f 188/188/188 189/189/189 196/196/196
f 196/196/196 189/189/189 197/197/197
f 197/197/197 189/189/189 198/198/198
f 198/198/198 189/189/189 199/199/199
f 199/199/199 189/189/189 200/200/200
f 200/200/200 189/189/189 201/201/201
f 201/201/201 189/189/189 202/202/202
f 202/202/202 189/189/189 203/203/203
f 203/203/203 189/189/189 204/204/204
f 204/204/204 189/189/189 195/195/195
f 207/207/207 206/206/206 205/205/205
f 205/205/205 206/206/206 208/208/208
f 206/206/206 209/209/209 208/208/208
f 208/208/208 209/209/209 210/210/210
f 209/209/209 211/211/211 210/210/210
f 212/212/212 207/207/207 205/205/205
f 213/213/213 207/207/207 212/212/212
f 214/214/214 213/213/213 212/212/212
f 215/215/215 213/213/213 214/214/214
f 216/216/216 215/215/215 214/214/214
f 217/217/217 215/215/215 216/216/216
f 218/218/218 217/217/217 216/216/216
f 219/219/219 217/217/217 218/218/218
f 220/220/220 219/219/219 218/218/218
f 210/210/210 211/211/211 221/221/221
f 211/211/211 222/222/222 221/221/221
f 221/221/221 222/222/222 223/223/223
f 222/222/222 224/224/224 223/223/223
f 223/223/223 224/224/224 225/225/225
f 224/224/224 226/226/226 225/225/225
f 225/225/225 226/226/226 227/227/227
f 226/226/226 228/228/228 227/227/227
f 227/227/227 228/228/228 229/229/229
f 228/228/228 230/230/230 229/229/229
f 229/229/229 230/230/230 231/231/231
f 230/230/230 232/232/232 231/231/231
f 231/231/231 232/232/232 233/233/233
f 232/232/232 234/234/234 233/233/233
f 233/233/233 234/234/234 235/235/235
f 234/234/234 236/236/236 235/235/235
f 235/235/235 236/236/236 220/220/220
f 236/236/236 219/219/219 220/220/220
f 217/217/217 237/237/237 215/215/215
f 215/215/215 237/237/237 213/213/213
f 219/219/219 237/237/237 217/217/217
f 213/213/213 237/237/237 207/207/207
f 236/236/236 237/237/237 219/219/219
f 207/207/207 237/237/237 206/206/206
f 234/234/234 237/237/237 236/236/236
f 206/206/206 237/237/237 209/209/209
f 232/232/232 237/237/237 234/234/234
f 209/209/209 237/237/237 211/211/211
f 230/230/230 237/237/237 232/232/232
f 211/211/211 237/237/237 222/222/222
f 228/228/228 237/237/237 230/230/230
f 222/222/222 237/237/237 224/224/224
f 226/226/226 237/237/237 228/228/228
f 224/224/224 237/237/237 226/226/226

