<?xml version="1.0" encoding="UTF-8" standalone="no"?>
<!DOCTYPE svg PUBLIC "-//W3C//DTD SVG 1.1//EN" "http://www.w3.org/Graphics/SVG/1.1/DTD/svg11.dtd">
<svg width="100%" height="100%" viewBox="0 0 1781 246" version="1.1" xmlns="http://www.w3.org/2000/svg" xmlns:xlink="http://www.w3.org/1999/xlink" xml:space="preserve" xmlns:serif="http://www.serif.com/" style="fill-rule:evenodd;clip-rule:evenodd;stroke-linejoin:round;stroke-miterlimit:2;">
    <g transform="matrix(1,0,0,1,-192,-3540)">
        <g transform="matrix(1,0,0,1,-2341.37,3034.22)">
            <g id="Curves-with-Dash" serif:id="Curves with Dash" transform="matrix(1.13603,0,0,1.13603,-547.713,-294.905)">
                <g transform="matrix(1,0,0,1,2085.87,275.95)">
                    <path d="M709.1,520L668.1,520L668.1,481L701.1,481C705.5,481 709.1,477.4 709.1,473L709.1,440L748.1,440L748.1,481C748.1,502.6 730.6,520 709.1,520ZM668.1,524L627.1,524L627.1,563L660.1,563C664.5,563 668.1,566.6 668.1,571L668.1,604L707.1,604L707.1,563C707.1,541.4 689.6,524 668.1,524ZM799.2,522C794.8,522 791.2,518.4 791.2,514L791.2,481L752.2,481L752.2,522C752.2,543.6 769.7,561 791.2,561L832.2,561L832.2,522L799.2,522ZM711.1,604L711.1,645L750.1,645L750.1,612C750.1,607.6 753.7,604 758.1,604L791.1,604L791.1,565L750.1,565C728.5,565 711.1,582.5 711.1,604Z" style="fill:rgb(240,82,156);fill-rule:nonzero;"/>
                </g>
                <g transform="matrix(0.993373,0,0,1.05419,2372.57,239.526)">
                    <path d="M734.28,641.424L715.967,595.21L616.017,595.21L597.703,641.424L565.421,641.424L642.091,446.914L690.203,446.914L766.873,641.424L734.28,641.424ZM625.64,570.932L706.344,570.932L665.992,468.267L625.64,570.932Z" style="fill:rgb(240,82,156);fill-rule:nonzero;"/>
                    <path d="M819.331,641.424L788.291,641.424L788.291,527.351C788.291,525.206 787.825,523.694 786.894,522.817C785.963,521.939 784.359,521.501 782.082,521.501L761.596,521.501L761.596,495.176L785.187,495.176C795.326,495.176 803.5,498.052 809.708,503.805C815.916,509.557 819.124,517.113 819.331,526.473L819.331,641.424ZM776.495,446.914L815.606,446.914L815.606,473.239L776.495,473.239L776.495,446.914Z" style="fill:rgb(240,82,156);fill-rule:nonzero;"/>
                    <path d="M846.025,617.147L951.562,536.71C960.254,530.081 966.203,523.938 969.411,518.283C972.618,512.628 974.222,505.998 974.222,498.394C974.222,488.839 970.963,481.136 964.444,475.286C957.926,469.437 947.838,466.512 934.18,466.512C914.935,466.512 900.915,471.63 892.12,481.868C883.325,492.105 878.928,506.291 878.928,524.426L845.405,524.426C845.819,501.611 852.751,482.111 866.202,465.927C879.652,449.742 902.312,441.65 934.18,441.65C959.84,441.65 978.516,447.012 990.207,457.737C1001.9,468.462 1007.75,481.916 1007.75,498.101C1007.75,510.776 1003.71,522.476 995.64,533.201C987.569,543.925 974.015,556.308 954.977,570.347L891.965,617.147L1011.47,617.147L1011.47,641.424L846.025,641.424L846.025,617.147Z" style="fill:rgb(240,82,156);fill-rule:nonzero;"/>
                    <rect x="1023.08" y="557.185" width="124.161" height="21.937" style="fill:rgb(240,82,156);fill-rule:nonzero;"/>
                    <path d="M1218.63,471.192L1146.93,471.192L1146.93,446.914L1322,446.914L1322,471.192L1250.61,471.192L1250.61,641.424L1218.63,641.424L1218.63,471.192Z" style="fill:rgb(240,82,156);fill-rule:nonzero;"/>
                    <path d="M1332.55,446.914L1364.52,446.914L1364.52,529.106L1475.65,529.106L1475.65,446.914L1507.62,446.914L1507.62,641.424L1475.65,641.424L1475.65,553.383L1364.52,553.383L1364.52,641.424L1332.55,641.424L1332.55,446.914Z" style="fill:rgb(240,82,156);fill-rule:nonzero;"/>
                    <path d="M1631.16,646.396C1595.98,646.396 1569.75,636.988 1552.47,618.17C1535.19,599.353 1526.55,574.637 1526.55,544.023C1526.55,524.523 1530.23,507.071 1537.57,491.666C1544.92,476.261 1556.4,464.074 1572.03,455.104C1587.65,446.134 1607.36,441.65 1631.16,441.65C1654.96,441.65 1674.67,446.134 1690.29,455.104C1705.91,464.074 1717.4,476.261 1724.75,491.666C1732.09,507.071 1735.77,524.523 1735.77,544.023C1735.77,563.718 1732.09,581.267 1724.75,596.672C1717.4,612.077 1705.91,624.215 1690.29,633.088C1674.67,641.96 1654.96,646.396 1631.16,646.396ZM1560.08,544.023C1560.08,570.152 1565.72,589.603 1576.99,602.376C1588.27,615.148 1606.33,621.534 1631.16,621.534C1655.99,621.534 1674.05,615.148 1685.33,602.376C1696.6,589.603 1702.24,570.152 1702.24,544.023C1702.24,517.893 1696.6,498.442 1685.33,485.67C1674.05,472.898 1655.99,466.512 1631.16,466.512C1606.33,466.512 1588.27,472.898 1576.99,485.67C1565.72,498.442 1560.08,517.893 1560.08,544.023Z" style="fill:rgb(240,82,156);fill-rule:nonzero;"/>
                    <path d="M1913.01,609.542C1913.01,620.462 1914.45,631.089 1917.35,641.424L1886,641.424C1883.31,634.209 1881.97,623.972 1881.97,610.712L1881.97,595.502C1881.97,582.047 1878.29,572.297 1870.94,566.253C1863.6,560.208 1852.89,557.185 1838.82,557.185L1786.67,557.185L1786.67,641.424L1754.7,641.424L1754.7,446.914L1853.41,446.914C1874.72,446.914 1891.07,451.594 1902.45,460.954C1913.83,470.314 1919.52,483.184 1919.52,499.564C1919.52,512.433 1915.8,523.158 1908.35,531.738C1900.9,540.318 1891.17,546.07 1879.17,548.995C1890.76,552.505 1899.3,557.234 1904.78,563.181C1910.26,569.129 1913.01,578.44 1913.01,591.115L1913.01,609.542ZM1851.24,534.956C1863.86,534.956 1872.81,532.128 1878.09,526.473C1883.36,520.818 1886,512.531 1886,501.611C1886,481.331 1874,471.192 1849.99,471.192L1786.67,471.192L1786.67,534.956L1851.24,534.956Z" style="fill:rgb(240,82,156);fill-rule:nonzero;"/>
                </g>
            </g>
        </g>
    </g>
</svg>
