<?xml version="1.0" encoding="utf-8"?>
<!-- Generator: Adobe Illustrator 25.1.0, SVG Export Plug-In . SVG Version: 6.00 Build 0)  -->
<svg version="1.1" id="Layer_1" xmlns="http://www.w3.org/2000/svg" xmlns:xlink="http://www.w3.org/1999/xlink" x="0px" y="0px"
	 viewBox="0 0 5880.4 307.8" style="enable-background:new 0 0 5880.4 307.8;" xml:space="preserve">
<style type="text/css">
	.st0{fill:#265ED4;}
	.st1{fill:url(#SVGID_1_);}
	.st2{fill:url(#SVGID_2_);}
	.st3{fill:url(#SVGID_3_);}
	.st4{fill:url(#SVGID_4_);}
</style>
<g id="Layer_2_1_">
</g>
<g id="Layer_2_2_">
</g>
<g>
	<g>
		<g>
			<g>
				<g>
					<path class="st0" d="M3721.6,307.7c0-102.2,0-204.4,0-307.4c2.5,0,4.7,0,6.8,0c39.4,0,78.9,0.9,118.3-0.2
						c47.5-1.4,86.5,34.4,94.1,78.8c6.8,39-4.3,72.9-37.1,97.3c-8.2,6.1-18.5,9.4-28.4,14.2c24.4,38.5,49.4,77.9,74.4,117.4
						c-11.4,0-22.7,0-34,0c-23.2-36.3-46.5-72.5-69.6-108.9c-2.2-3.4-4.5-4.9-8.7-4.8c-26.4,0.2-52.9,0.1-79.3,0.1
						c-2,0-3.9,0.2-6.2,0.4c0,38.1,0,75.7,0,113.4C3741.8,307.7,3731.7,307.7,3721.6,307.7z M3752.3,167.1
						c35.1,0,69.5,0.1,103.9-0.1c10.3-0.1,20-3.8,28.1-10.1c20.4-16.1,28.5-37.9,28.1-63.3c-0.6-31.5-26.1-68.5-68.4-66.8
						c-28.3,1.2-56.6,0.2-85,0.2c-2.1,0-4.3,0-6.7,0C3752.3,74.1,3752.3,120.4,3752.3,167.1z"/>
					<path class="st0" d="M2999.5,307.7c-0.2-2.2-0.5-4.3-0.5-6.6c0-98,0-196,0-294c0-2,0-4,0-6.8c2.6,0,4.8,0,6.9,0
						c40,0,80.2,0.7,120.2-0.2c56.1-1.3,99.2,52.6,93.7,106c-2.9,28.5-14.1,53.1-38.3,69.8c-8.6,6-18.9,9.5-28.8,14.4
						c0.7,1.1,1.9,2.9,2.9,4.8c22.5,35.3,45.1,70.8,67.6,106.2c1.3,2,2.2,4.2,3.3,6.3c-11.4,0-22.7,0-34,0c-0.2-0.7-0.5-1.5-0.9-2.1
						c-23-36-46-72.1-69.1-108c-1.2-1.9-4.3-3.4-6.7-3.4c-26.9-0.2-53.8-0.1-80.6-0.1c-1.8,0-3.5,0.2-5.8,0.4c0,2.8,0,5.3,0,7.6
						c0,32.9,0,65.7,0,98.6c0,2.3-0.5,4.8-0.7,7.2C3018.9,307.7,3009.1,307.7,2999.5,307.7z M3029.5,167.3c2.9,0,5.2,0,7.4,0
						c32.5-0.1,65,0.1,97.7-0.4c12.1-0.2,22.9-5.4,31.5-13.9c19.3-18.8,26.6-42.1,22.5-68.3c-4.8-30.9-29.7-58.8-66.1-57.9
						c-28.6,0.8-57.4,0.1-86,0.1c-2.1,0-4.3,0-6.8,0C3029.5,74,3029.5,120.2,3029.5,167.3z"/>
					<path class="st0" d="M2728.8,307.7c0-18.9,0.1-37.9,0.1-56.8c0-80.9,0-161.6,0-242.5c0-2.3,0-4.8,0-8.1c2.6,0,4.7,0,6.8,0
						c39.2,0,78.4,0.7,117.6-0.2c56.2-1.3,97.9,52.4,94.5,102.1c-2.5,36-18.2,64.3-50.2,82.4c-12.4,7-26.1,9.5-40.3,9.5
						c-30.2-0.1-60.2,0-90.4,0c-2.2,0-4.5,0-7.9,0c0,38.1,0,75.9,0,113.7C2749,307.7,2738.9,307.7,2728.8,307.7z M2759.6,167.1
						c34.6,0,68.5,0.2,102.5-0.1c12.3-0.1,23.2-5.4,32-14c19.4-18.5,26.2-41.9,22.4-67.7c-4.3-30.5-28.2-59.2-65.5-58.3
						c-28.3,0.6-56.6,0.1-84.9,0.1c-2.1,0-4.3,0-6.7,0C2759.6,74,2759.6,120.2,2759.6,167.1z"/>
					<path class="st0" d="M3282.3,307.7c0-102.1,0-204.4,0-306.9c10,0,19.8,0,30.4,0c0,102.4,0,204.7,0,306.9
						C3302.5,307.7,3292.4,307.7,3282.3,307.7z"/>
				</g>
			</g>
		</g>
		<g>
			<g>
				<g>
					<path class="st0" d="M3606,278.9c32.9-23.6,56.5-60.1,62.7-103.3c0.7-5,1.2-10.2,1.4-15.3c-9.7-12.7-19.7-24.5-30.5-35.9
						C3638,183.5,3625.2,233.7,3606,278.9z"/>
					<path class="st0" d="M3553.2,85.7c0-5.8-4.6-10.4-10.4-10.4s-10.4,4.6-10.4,10.4c0,5.8,4.6,10.4,10.4,10.4
						S3553.2,91.4,3553.2,85.7z M3536.6,85.7c0-3.4,2.7-6.2,6.2-6.2c3.5,0,6.2,2.7,6.2,6.2c0,3.4-2.7,6.2-6.2,6.2
						C3539.3,91.9,3536.6,89.1,3536.6,85.7z"/>
					<path class="st0" d="M3449.1,292.1c14.1,7,29.6,11.7,46,14.1c34.2,4.8,67.1-2,95.2-17.4c6.5-15.1,12.3-31,16.9-47.8
						C3550.2,273.3,3498.4,287.1,3449.1,292.1z"/>
					<path class="st0" d="M3592,186.8c0-10.3-8.5-18.7-18.7-18.7c-10.3,0-18.7,8.5-18.7,18.7c0,10.3,8.5,18.7,18.7,18.7
						C3583.6,205.5,3592,197,3592,186.8z M3561.3,186.8c0-6.5,5.3-11.9,11.9-11.9c6.5,0,11.9,5.3,11.9,11.9
						c0,6.5-5.3,11.9-11.9,11.9C3566.8,198.6,3561.3,193.2,3561.3,186.8z"/>
					<path class="st0" d="M3669.6,141.5c-3.8-45.3-27.6-86.3-63.6-112c-18.5,1.9-37,4.9-54.9,9.2
						C3603.8,70.9,3641,105.6,3669.6,141.5z"/>
					<path class="st0" d="M3573.2,230.9l35.1-20.2l7.2,4.1c0.8-2.8,1.3-4.9,1.9-7.4l0.1-0.4l-5.6-3.3v-39.3l-38.3-22.2l-35.1,20.1
						l-28.5-17.3v-34.5l8.5-5.3l24.4,14.1l29.3-16.9V73l5.8-3.3c-2.2-1.9-4.2-3.4-6.3-5l-3.1,1.6L3543,51.6l-29.3,16.9v30l-7.5,4.7
						l-34.4-19.7l-34,19.7l-9.7-5.5c-0.5,1.9-0.8,3.8-1.3,5.8c-0.1,0.7-0.2,1.3-0.4,2l7.3,4.1v40.4l34.2,19.7v6.1l-25.2,14.4v33.9
						l25.6,14.7v3.3c2.1,1.5,4.1,2.9,7.7,5.2v-8.6l25.6-14.7v-33.9l-25.2-14.6v-6.1l30-17.4l29.1,17.5v38.9L3573.2,230.9z
						 M3545.2,170.5l27.9-16.2l27.9,16.2v32.3l-27.9,16.2l-27.9-16.2V170.5z M3523.7,74.7l19-11l19,11v22.1l-19,11l-19-11V74.7z
						 M3490.7,196.5v22.1l-19,10.9l-19-11v-22.1l19-11L3490.7,196.5z M3499.7,144.1l-27.9,16.2l-27.9-16.2v-32.3l27.9-16.1
						l27.9,16.2V144.1z"/>
					<path class="st0" d="M3452.9,127.9c0,10.3,8.5,18.7,18.7,18.7c10.3,0,18.7-8.5,18.7-18.7s-8.5-18.7-18.7-18.7
						C3461.4,109.2,3452.9,117.5,3452.9,127.9z M3483.3,127.9c0,6.5-5.3,11.9-11.9,11.9c-6.5,0-11.9-5.3-11.9-11.9
						c0-6.5,5.3-11.9,11.9-11.9C3478.2,116,3483.3,121.5,3483.3,127.9z"/>
					<path class="st0" d="M3590.9,19.9c-16-8.9-33.8-14.9-52.9-17.6c-28.5-4-56.2,0.1-81,10.6c-8.9,19.1-16.6,38.9-23.5,58.8
						C3482.7,47.7,3534.4,28.6,3590.9,19.9z"/>
					<path class="st0" d="M3461.3,207.4c0,5.8,4.6,10.4,10.4,10.4c5.9,0,10.4-4.6,10.4-10.4c0-5.8-4.6-10.4-10.4-10.4
						C3465.8,197.1,3461.3,201.8,3461.3,207.4z M3477.8,207.4c0,3.4-2.7,6.2-6.2,6.2c-3.5,0-6.2-2.7-6.2-6.2c0-3.4,2.7-6.2,6.2-6.2
						C3475.1,201.2,3477.8,204,3477.8,207.4z"/>
					<path class="st0" d="M3439.2,21.6c-39.2,22.9-67.8,62.8-74.8,111.2c-0.2,1.9-0.5,3.9-0.7,5.8c13.4,18.5,27.1,34.6,41.2,48.8
						C3406.8,134.4,3414.4,80,3439.2,21.6z"/>
					<path class="st0" d="M3362.9,156.7c0.8,51.8,27.8,98.7,69.8,126.2c21.6-2,41.1-5.4,58.9-10
						C3435.2,237.7,3394.1,198.6,3362.9,156.7z"/>
				</g>
			</g>
		</g>
	</g>
	
		<linearGradient id="SVGID_1_" gradientUnits="userSpaceOnUse" x1="1924.2946" y1="959.2712" x2="2067.4421" y2="557.1186" gradientTransform="matrix(1 0 0 1 0 -531.9432)">
		<stop  offset="0.177" style="stop-color:#00D5FF"/>
		<stop  offset="0.3061" style="stop-color:#06C1F4"/>
		<stop  offset="0.5718" style="stop-color:#148BD7"/>
		<stop  offset="0.9012" style="stop-color:#1A4CAE"/>
	</linearGradient>
	<path class="st1" d="M2106.8,3.3h-58.5l-117.7,304.3h55.1c5.8,0,10.8-1.6,14.7-4.7c4-3.1,6.7-6.6,8.3-10.5l64.4-184
		c2.1-5.3,4.3-11.6,6.7-18.8C2082.2,82.4,2106.8,3.3,2106.8,3.3z"/>
	<path class="st0" d="M2262.4,129.1v178.5h71V91.1c-13.3,0.9-26.4,2.2-37.7,3.4l-3.1,0.4c-8.3,1-16,5.2-21.6,11.4
		C2265.5,112.6,2262.4,120.8,2262.4,129.1L2262.4,129.1z"/>
	
		<linearGradient id="SVGID_2_" gradientUnits="userSpaceOnUse" x1="2165.3264" y1="674.6251" x2="1836.4745" y2="915.0131" gradientTransform="matrix(1 0 0 1 0 -531.9432)">
		<stop  offset="0.3803" style="stop-color:#00D5FF"/>
		<stop  offset="0.4684" style="stop-color:#02CFFD"/>
		<stop  offset="0.5906" style="stop-color:#08BDF6"/>
		<stop  offset="0.7327" style="stop-color:#129FEB"/>
		<stop  offset="0.8885" style="stop-color:#2077DC"/>
		<stop  offset="1" style="stop-color:#2B55CF"/>
	</linearGradient>
	<path class="st2" d="M2238.1,103.6c-4.3,0.2-8.1,0.5-16.2,2.3c-121.1,27.5-234.4,107.5-291.3,201.7h60.8c6.9,0,14-2.5,17.9-8.1
		c73.5-105.3,171.7-163.2,215.4-186C2236.9,107.3,2237.5,104.7,2238.1,103.6z"/>
	<path class="st0" d="M2110,3.3h-61.6c0,0,12.7,4,17.4,15.2l94.5,273.9c1.9,4.3,4.8,8.1,8.6,11s8.7,4.3,14.8,4.3h54.7L2124.5,13.3
		c-1.1-2.9-3.1-5.5-5.7-7.2C2116.2,4.3,2113.1,3.3,2110,3.3L2110,3.3z"/>
	
		<radialGradient id="SVGID_3_" cx="2421.7104" cy="-509.8298" r="1" gradientTransform="matrix(78.3897 0 0 78.3942 -187538.9531 40055.5703)" gradientUnits="userSpaceOnUse">
		<stop  offset="0" style="stop-color:#FFD215"/>
		<stop  offset="1" style="stop-color:#FF9B00"/>
	</radialGradient>
	<path class="st3" d="M2333.5,91.1V3.3h-71v87.4c0,1,0.2,2,0.6,2.9c0.4,0.9,1,1.7,1.8,2.4c0.8,0.7,1.7,1.2,2.6,1.4
		c0.9,0.2,2,0.4,3,0.2C2291.4,94.7,2316.1,92.4,2333.5,91.1z"/>
	<path class="st0" d="M2457.6,256.1l-0.4-1.9l57.3-58.7c8.1-8.2,15.7-16.3,22.9-24.3c7-7.8,13.3-16.1,18.9-24.9
		c5.4-8.5,9.7-17.5,12.8-27c3.2-10,4.8-20.4,4.7-30.9c0-12.9-2.3-24.8-6.8-35.6c-4.4-10.6-11.1-20.1-19.5-27.9
		c-8.5-7.8-18.8-13.9-30.8-18.3c-12.1-4.4-25.6-6.6-40.6-6.6c-13.2-0.1-26.4,1.8-39.1,5.5c-11.8,3.5-22.8,9.3-32.4,17
		c-9.6,7.7-17.6,17.3-23.5,28.1c-6.1,10.9-10.3,23.6-12.6,38.1c11.4-0.5,30.2-1,44-1.2c10.4-0.2,19.7-6.1,24.8-15.2c0,0,0,0,0-0.1
		c2.7-4.6,6.2-8.6,10.5-11.8c6.6-5.1,14.7-7.6,24.3-7.6c11.8,0,20.6,3.2,26.4,9.7c5.8,6.5,8.7,15.8,8.7,27.9c0,7.1-0.9,14.1-2.7,21
		c-1.9,6.9-4.7,13.6-8.1,19.8c-4,7.1-8.6,13.9-13.8,20.2c-6.2,7.5-12.7,14.7-19.6,21.5l-87.7,88.3c-3.9,3.4-6.9,7.7-8.8,12.5
		c-1.6,4.1-2.4,8.5-2.5,13v20.9h58.6L2457.6,256.1z"/>
	
		<linearGradient id="SVGID_4_" gradientUnits="userSpaceOnUse" x1="2519.1257" y1="810.4998" x2="2423.1389" y2="810.3338" gradientTransform="matrix(1 0 0 1 0 -531.9432)">
		<stop  offset="0" style="stop-color:#2B55CF"/>
		<stop  offset="1" style="stop-color:#1A4CAE"/>
	</linearGradient>
	<path class="st4" d="M2571.9,254.9c-4-3.8-9.5-5.7-16.5-5.7h-12.3h-0.1h-44.4c-0.4,0-0.8,0.1-1.2,0.1c-1.9,0-3.8,0.1-5.7,0.3
		c-4.7,0.3-9.3,0.8-13.9,1.6c-0.6,0.1-1.3,0.2-2,0.3c-3,0.4-5.8,0.8-8.4,1.2c-5.3,0.7-9.9,1.3-9.9,1.3
		c-10.4,10.7-22.2,22.8-29.3,30.1c-4.1,4.2-6.4,9.8-6.4,15.7v8H2578v-37.6C2578,263.8,2576,258.8,2571.9,254.9L2571.9,254.9z"/>
</g>
<rect y="149.4" class="st0" width="1756.7" height="8.9"/>
<rect x="4123.6" y="149.4" class="st0" width="1756.7" height="8.9"/>
</svg>
