<?xml version="1.0" encoding="utf-8"?>
<!-- Generator: Adobe Illustrator 25.1.0, SVG Export Plug-In . SVG Version: 6.00 Build 0)  -->
<svg version="1.1" id="Layer_1" xmlns="http://www.w3.org/2000/svg" xmlns:xlink="http://www.w3.org/1999/xlink" x="0px" y="0px"
	 viewBox="0 0 4577.2 307.8" style="enable-background:new 0 0 4577.2 307.8;" xml:space="preserve">
<style type="text/css">
	.st0{fill:#265ED4;}
	.st1{fill:url(#SVGID_1_);}
	.st2{fill:url(#SVGID_2_);}
	.st3{fill:url(#SVGID_3_);}
	.st4{fill:url(#SVGID_4_);}
</style>
<g id="Layer_2_1_">
</g>
<g id="Layer_2_2_">
</g>
<g>
	<g>
		<g>
			<g>
				<g>
					<path class="st0" d="M3070,307.7c0-102.2,0-204.4,0-307.4c2.5,0,4.7,0,6.8,0c39.4,0,78.9,0.9,118.3-0.2
						c47.5-1.4,86.5,34.4,94.1,78.8c6.8,39-4.3,72.9-37.1,97.3c-8.2,6.1-18.5,9.4-28.4,14.2c24.4,38.5,49.4,77.9,74.4,117.4
						c-11.4,0-22.7,0-34,0c-23.2-36.3-46.5-72.5-69.6-108.9c-2.2-3.4-4.5-4.9-8.7-4.8c-26.4,0.2-52.9,0.1-79.3,0.1
						c-2,0-3.9,0.2-6.2,0.4c0,38.1,0,75.7,0,113.4C3090.2,307.7,3080.1,307.7,3070,307.7z M3100.7,167.1c35.1,0,69.5,0.1,103.9-0.1
						c10.3-0.1,20-3.8,28.1-10.1c20.4-16.1,28.5-37.9,28.1-63.3c-0.6-31.5-26.1-68.5-68.4-66.8c-28.3,1.2-56.6,0.2-85,0.2
						c-2.1,0-4.3,0-6.7,0C3100.7,74.1,3100.7,120.4,3100.7,167.1z"/>
					<path class="st0" d="M2347.9,307.7c-0.2-2.2-0.5-4.3-0.5-6.6c0-98,0-196,0-294c0-2,0-4,0-6.8c2.6,0,4.8,0,6.9,0
						c40,0,80.2,0.7,120.2-0.2c56.1-1.3,99.2,52.6,93.7,106c-2.9,28.5-14.1,53.1-38.3,69.8c-8.6,6-18.9,9.5-28.8,14.4
						c0.7,1.1,1.9,2.9,2.9,4.8c22.5,35.3,45.1,70.8,67.6,106.2c1.3,2,2.2,4.2,3.3,6.3c-11.4,0-22.7,0-34,0c-0.2-0.7-0.5-1.5-0.9-2.1
						c-23-36-46-72.1-69.1-108c-1.2-1.9-4.3-3.4-6.7-3.4c-26.9-0.2-53.8-0.1-80.6-0.1c-1.8,0-3.5,0.2-5.8,0.4c0,2.8,0,5.3,0,7.6
						c0,32.9,0,65.7,0,98.6c0,2.3-0.5,4.8-0.7,7.2C2367.3,307.7,2357.5,307.7,2347.9,307.7z M2377.9,167.3c2.9,0,5.2,0,7.4,0
						c32.5-0.1,65,0.1,97.7-0.4c12.1-0.2,22.9-5.4,31.5-13.9c19.2-18.8,26.6-42.1,22.5-68.3c-4.8-30.9-29.7-58.8-66.1-57.9
						c-28.6,0.8-57.4,0.1-86,0.1c-2.1,0-4.3,0-6.8,0C2377.9,74,2377.9,120.2,2377.9,167.3z"/>
					<path class="st0" d="M2077.2,307.7c0-18.9,0.1-37.9,0.1-56.8c0-80.9,0-161.6,0-242.5c0-2.3,0-4.8,0-8.1c2.6,0,4.7,0,6.8,0
						c39.2,0,78.4,0.7,117.6-0.2c56.2-1.3,97.9,52.4,94.5,102.1c-2.5,36-18.2,64.3-50.2,82.4c-12.4,7-26.1,9.5-40.3,9.5
						c-30.2-0.1-60.2,0-90.4,0c-2.2,0-4.5,0-7.9,0c0,38.1,0,75.9,0,113.7C2097.4,307.7,2087.3,307.7,2077.2,307.7z M2108,167.1
						c34.6,0,68.5,0.2,102.5-0.1c12.3-0.1,23.2-5.4,32-14c19.4-18.5,26.2-41.9,22.4-67.7c-4.3-30.5-28.2-59.2-65.5-58.3
						c-28.3,0.6-56.6,0.1-84.9,0.1c-2.1,0-4.3,0-6.7,0C2108,74,2108,120.2,2108,167.1z"/>
					<path class="st0" d="M2630.7,307.7c0-102.1,0-204.4,0-306.9c10,0,19.8,0,30.4,0c0,102.4,0,204.7,0,306.9
						C2650.9,307.7,2640.8,307.7,2630.7,307.7z"/>
				</g>
			</g>
		</g>
		<g>
			<g>
				<g>
					<path class="st0" d="M2954.4,278.9c32.9-23.6,56.5-60.1,62.7-103.3c0.7-5,1.2-10.2,1.4-15.3c-9.7-12.7-19.7-24.5-30.5-35.9
						C2986.4,183.5,2973.6,233.7,2954.4,278.9z"/>
					<path class="st0" d="M2901.6,85.7c0-5.8-4.6-10.4-10.4-10.4s-10.4,4.6-10.4,10.4c0,5.8,4.6,10.4,10.4,10.4
						S2901.6,91.4,2901.6,85.7z M2885,85.7c0-3.4,2.7-6.2,6.2-6.2c3.5,0,6.2,2.7,6.2,6.2c0,3.4-2.7,6.2-6.2,6.2
						C2887.7,91.9,2885,89.1,2885,85.7z"/>
					<path class="st0" d="M2797.5,292.1c14.1,7,29.6,11.7,46,14.1c34.2,4.8,67.1-2,95.2-17.4c6.5-15.1,12.3-31,16.9-47.8
						C2898.6,273.3,2846.8,287.1,2797.5,292.1z"/>
					<path class="st0" d="M2940.4,186.8c0-10.3-8.5-18.7-18.7-18.7c-10.3,0-18.7,8.5-18.7,18.7c0,10.3,8.5,18.7,18.7,18.7
						C2932,205.5,2940.4,197,2940.4,186.8z M2909.7,186.8c0-6.5,5.3-11.9,11.9-11.9c6.5,0,11.9,5.3,11.9,11.9
						c0,6.5-5.3,11.9-11.9,11.9C2915.2,198.6,2909.7,193.2,2909.7,186.8z"/>
					<path class="st0" d="M3018,141.5c-3.8-45.3-27.6-86.3-63.6-112c-18.5,1.9-37,4.9-54.9,9.2C2952.2,70.9,2989.4,105.6,3018,141.5
						z"/>
					<path class="st0" d="M2921.6,230.9l35.1-20.2l7.2,4.1c0.8-2.8,1.3-4.9,1.9-7.4l0.1-0.4l-5.6-3.3v-39.3l-38.3-22.2l-35.1,20.1
						l-28.5-17.3v-34.5l8.5-5.3l24.4,14.1l29.3-16.9V73l5.8-3.3c-2.2-1.9-4.2-3.4-6.3-5l-3.1,1.6l-25.6-14.8L2862,68.5v30l-7.5,4.7
						l-34.4-19.7l-34,19.7l-9.7-5.5c-0.5,1.9-0.8,3.8-1.3,5.8c-0.1,0.7-0.2,1.3-0.4,2l7.3,4.1v40.4l34.2,19.7v6.1l-25.2,14.4v33.9
						l25.6,14.7v3.3c2.1,1.5,4.1,2.9,7.7,5.2v-8.6l25.6-14.7v-33.9l-25.2-14.6v-6.1l30-17.4l29.1,17.5v38.9L2921.6,230.9z
						 M2893.6,170.5l27.9-16.2l27.9,16.2v32.3l-27.9,16.2l-27.9-16.2V170.5z M2872.1,74.7l19-11l19,11v22.1l-19,11l-19-11V74.7z
						 M2839.1,196.5v22.1l-19,10.9l-19-11v-22.1l19-11L2839.1,196.5z M2848.1,144.1l-27.9,16.2l-27.9-16.2v-32.3l27.9-16.1
						l27.9,16.2V144.1z"/>
					<path class="st0" d="M2801.3,127.9c0,10.3,8.5,18.7,18.7,18.7c10.3,0,18.7-8.5,18.7-18.7s-8.5-18.7-18.7-18.7
						C2809.8,109.2,2801.3,117.5,2801.3,127.9z M2831.7,127.9c0,6.5-5.3,11.9-11.9,11.9c-6.5,0-11.9-5.3-11.9-11.9
						c0-6.5,5.3-11.9,11.9-11.9C2826.6,116,2831.7,121.5,2831.7,127.9z"/>
					<path class="st0" d="M2939.3,19.9c-16-8.9-33.8-14.9-52.9-17.6c-28.5-4-56.2,0.1-81,10.6c-8.9,19.1-16.6,38.9-23.5,58.8
						C2831.1,47.7,2882.8,28.6,2939.3,19.9z"/>
					<path class="st0" d="M2809.7,207.4c0,5.8,4.6,10.4,10.4,10.4s10.4-4.6,10.4-10.4c0-5.8-4.6-10.4-10.4-10.4
						C2814.2,197.1,2809.7,201.8,2809.7,207.4z M2826.2,207.4c0,3.4-2.7,6.2-6.2,6.2c-3.5,0-6.2-2.7-6.2-6.2c0-3.4,2.7-6.2,6.2-6.2
						C2823.5,201.2,2826.2,204,2826.2,207.4z"/>
					<path class="st0" d="M2787.6,21.6c-39.2,22.9-67.8,62.8-74.8,111.2c-0.2,1.9-0.5,3.9-0.7,5.8c13.4,18.5,27.1,34.6,41.2,48.8
						C2755.2,134.4,2762.8,80,2787.6,21.6z"/>
					<path class="st0" d="M2711.3,156.7c0.8,51.8,27.8,98.7,69.8,126.2c21.6-2,41.1-5.4,58.9-10
						C2783.6,237.7,2742.5,198.6,2711.3,156.7z"/>
				</g>
			</g>
		</g>
	</g>
	
		<linearGradient id="SVGID_1_" gradientUnits="userSpaceOnUse" x1="1272.6946" y1="959.2712" x2="1415.842" y2="557.1186" gradientTransform="matrix(1 0 0 1 0 -531.9432)">
		<stop  offset="0.177" style="stop-color:#00D5FF"/>
		<stop  offset="0.3061" style="stop-color:#06C1F4"/>
		<stop  offset="0.5718" style="stop-color:#148BD7"/>
		<stop  offset="0.9012" style="stop-color:#1A4CAE"/>
	</linearGradient>
	<path class="st1" d="M1455.2,3.3h-58.5L1279,307.6h55.1c5.8,0,10.8-1.6,14.7-4.7c4-3.1,6.7-6.6,8.3-10.5l64.4-184
		c2.1-5.3,4.3-11.6,6.7-18.8C1430.6,82.4,1455.2,3.3,1455.2,3.3z"/>
	<path class="st0" d="M1610.8,129.1v178.5h71V91.1c-13.3,0.9-26.4,2.2-37.7,3.4l-3.1,0.4c-8.3,1-16,5.2-21.6,11.4
		C1613.9,112.6,1610.8,120.8,1610.8,129.1L1610.8,129.1z"/>
	
		<linearGradient id="SVGID_2_" gradientUnits="userSpaceOnUse" x1="1513.7264" y1="674.6251" x2="1184.8745" y2="915.0131" gradientTransform="matrix(1 0 0 1 0 -531.9432)">
		<stop  offset="0.3803" style="stop-color:#00D5FF"/>
		<stop  offset="0.4684" style="stop-color:#02CFFD"/>
		<stop  offset="0.5906" style="stop-color:#08BDF6"/>
		<stop  offset="0.7327" style="stop-color:#129FEB"/>
		<stop  offset="0.8885" style="stop-color:#2077DC"/>
		<stop  offset="1" style="stop-color:#2B55CF"/>
	</linearGradient>
	<path class="st2" d="M1586.5,103.6c-4.3,0.2-8.1,0.5-16.2,2.3c-121.1,27.5-234.4,107.5-291.3,201.7h60.8c6.9,0,14-2.5,17.9-8.1
		c73.5-105.3,171.7-163.2,215.4-186C1585.3,107.3,1585.9,104.7,1586.5,103.6z"/>
	<path class="st0" d="M1458.4,3.3h-61.6c0,0,12.7,4,17.4,15.2l94.5,273.9c1.9,4.3,4.8,8.1,8.6,11c3.8,2.9,8.7,4.3,14.8,4.3h54.7
		L1472.9,13.3c-1.1-2.9-3.1-5.5-5.7-7.2C1464.6,4.3,1461.5,3.3,1458.4,3.3L1458.4,3.3z"/>
	
		<radialGradient id="SVGID_3_" cx="1770.1105" cy="-509.8298" r="1" gradientTransform="matrix(78.3897 0 0 78.3942 -137111.8281 40055.5703)" gradientUnits="userSpaceOnUse">
		<stop  offset="0" style="stop-color:#FFD215"/>
		<stop  offset="1" style="stop-color:#FF9B00"/>
	</radialGradient>
	<path class="st3" d="M1681.9,91.1V3.3h-71v87.4c0,1,0.2,2,0.6,2.9s1,1.7,1.8,2.4c0.8,0.7,1.7,1.2,2.6,1.4c0.9,0.2,2,0.4,3,0.2
		C1639.8,94.7,1664.5,92.4,1681.9,91.1z"/>
	<path class="st0" d="M1806,256.1l-0.4-1.9l57.3-58.7c8.1-8.2,15.7-16.3,22.9-24.3c7-7.8,13.3-16.1,18.9-24.9
		c5.4-8.5,9.7-17.5,12.8-27c3.2-10,4.8-20.4,4.7-30.9c0-12.9-2.3-24.8-6.8-35.6c-4.4-10.6-11.1-20.1-19.5-27.9
		c-8.5-7.8-18.8-13.9-30.8-18.3C1853,2.2,1839.5,0,1824.5,0c-13.2-0.1-26.4,1.8-39.1,5.5c-11.8,3.5-22.8,9.3-32.4,17
		s-17.6,17.3-23.5,28.1c-6.1,10.9-10.3,23.6-12.6,38.1c11.4-0.5,30.2-1,44-1.2c10.4-0.2,19.7-6.1,24.8-15.2c0,0,0,0,0-0.1
		c2.7-4.6,6.2-8.6,10.5-11.8c6.6-5.1,14.7-7.6,24.3-7.6c11.8,0,20.6,3.2,26.4,9.7s8.7,15.8,8.7,27.9c0,7.1-0.9,14.1-2.7,21
		c-1.9,6.9-4.7,13.6-8.1,19.8c-4,7.1-8.6,13.9-13.8,20.2c-6.2,7.5-12.7,14.7-19.6,21.5l-87.7,88.3c-3.9,3.4-6.9,7.7-8.8,12.5
		c-1.6,4.1-2.4,8.5-2.5,13v20.9h58.6L1806,256.1z"/>
	
		<linearGradient id="SVGID_4_" gradientUnits="userSpaceOnUse" x1="1867.5258" y1="810.4998" x2="1771.5388" y2="810.3338" gradientTransform="matrix(1 0 0 1 0 -531.9432)">
		<stop  offset="0" style="stop-color:#2B55CF"/>
		<stop  offset="1" style="stop-color:#1A4CAE"/>
	</linearGradient>
	<path class="st4" d="M1920.3,254.9c-4-3.8-9.5-5.7-16.5-5.7h-12.3h-0.1H1847c-0.4,0-0.8,0.1-1.2,0.1c-1.9,0-3.8,0.1-5.7,0.3
		c-4.7,0.3-9.3,0.8-13.9,1.6c-0.6,0.1-1.3,0.2-2,0.3c-3,0.4-5.8,0.8-8.4,1.2c-5.3,0.7-9.9,1.3-9.9,1.3
		c-10.4,10.7-22.2,22.8-29.3,30.1c-4.1,4.2-6.4,9.8-6.4,15.7v8h156.2v-37.6C1926.4,263.8,1924.4,258.8,1920.3,254.9L1920.3,254.9z"
		/>
</g>
<rect y="149.4" class="st0" width="1105.1" height="8.9"/>
<rect x="3472.1" y="149.4" class="st0" width="1105.1" height="8.9"/>
</svg>
