<?xml version="1.0" encoding="utf-8"?>
<!-- Generator: Adobe Illustrator 25.0.1, SVG Export Plug-In . SVG Version: 6.00 Build 0)  -->
<svg version="1.1" id="Layer_1" xmlns="http://www.w3.org/2000/svg" xmlns:xlink="http://www.w3.org/1999/xlink" x="0px" y="0px"
	 viewBox="0 0 2792.9 499.3" style="enable-background:new 0 0 2792.9 499.3;" xml:space="preserve">
<style type="text/css">
	.st0{fill:#FFBB00;}
	.st1{fill:#265ED4;}
</style>
<path class="st0" d="M630.8,152.6V17H521.1v135c0,6,4.9,10.9,10.9,10.9c0.5,0,1.1,0,1.6-0.1C565.9,158.1,603.9,154.6,630.8,152.6z"
	/>
<g>
	<g>
		<path class="st1" d="M280.7,17h-90.3L8.5,487.1h85.2c9,0,16.6-2.4,22.7-7.3c6.1-4.8,10.4-10.3,12.8-16.3l99.5-284.2
			c3.2-8.2,6.7-17.9,10.3-29C242.7,139.1,280.7,17,280.7,17z"/>
		<path class="st1" d="M521.1,211.4v275.7h109.7V152.6c-20.6,1.4-40.8,3.3-58.3,5.3l-4.8,0.6C541.1,161.9,521.2,184.5,521.1,211.4
			L521.1,211.4z"/>
		<path class="st1" d="M483.6,171.8c-6.6,0.3-12.5,0.7-25,3.6C271.5,217.9,96.4,341.5,8.5,487.1h94c10.6,0,21.7-3.8,27.7-12.4
			c113.5-162.6,265.2-252,332.7-287.2C481.6,177.6,482.6,173.7,483.6,171.8z"/>
		<path class="st1" d="M285.5,17h-95.1c0,0,19.6,6.1,26.9,23.5l146,423c2.9,6.7,7.4,12.5,13.2,16.9c5.8,4.4,13.4,6.6,22.9,6.6H484
			L308,32.4C304.4,23.2,295.5,17,285.5,17z"/>
		<g>
			<path class="st1" d="M998.5,405.6c-6.2-5.9-14.7-8.9-25.5-8.9h-18.9c-0.1,0-0.1,0-0.2,0h-68.6c-0.3,0-0.7,0-1,0s-0.6,0-0.9,0
				c-2.9,0-5.8,0.2-8.8,0.4c-7.2,0.4-14.4,1.2-21.5,2.4c-0.7,0.1-1.5,0.2-2.3,0.4c-0.3,0-0.5,0.1-0.8,0.1c-4.6,0.7-8.9,1.3-13,1.9
				c-8.2,1.1-15.3,2-15.3,2c-0.1,0.1-0.2,0.2-0.3,0.4l0,0l88.4-90.6c12.5-12.7,24.2-25.2,35.3-37.6c10.8-12,20.5-24.8,29.2-38.4
				c8.3-13.1,15-27.1,19.8-41.8c5-15.4,7.4-31.5,7.3-47.8c0-20-3.5-38.3-10.5-55C984.1,76.7,973.8,62,960.7,50
				c-13.1-12.1-29-21.5-47.6-28.2c-18.6-6.8-39.5-10.2-62.7-10.2c-20.4-0.2-40.7,2.7-60.3,8.5c-36.9,10.8-67.9,35.8-86.3,69.5
				c-9.4,16.8-15.9,36.5-19.4,58.9c17.6-0.8,46.6-1.5,68-1.9c16.1-0.3,30.4-9.4,38.4-23.4c0,0,0-0.1,0.1-0.1
				c4.1-7.1,9.6-13.3,16.2-18.2c10.2-7.8,22.8-11.8,37.6-11.8c18.3,0,31.9,5,40.8,15c8.9,10,13.4,24.3,13.4,43.1
				c0.1,10.9-1.3,21.9-4.2,32.4c-3,10.7-7.2,21-12.6,30.7c-6.1,11-13.3,21.4-21.3,31.1c-9.5,11.6-19.7,22.7-30.3,33.2L694.9,415.5
				c-6.1,5.2-10.7,11.9-13.5,19.3c-2.5,6.4-3.8,13.2-3.9,20v32.3h330.3v-58C1007.8,419.3,1004.7,411.6,998.5,405.6z"/>
			<path class="st1" d="M2268.3,438.3c49.9-35.7,85.6-91,94.8-156.4c1.1-7.8,1.8-15.5,2.1-23.2c-14.7-19.1-30-37.2-46.2-54.3
				C2317,293.9,2297.6,370,2268.3,438.3z"/>
			<path class="st1" d="M2188.4,145.8c0-8.7-7-15.7-15.7-15.7s-15.7,7-15.7,15.7s7,15.7,15.7,15.7S2188.4,154.5,2188.4,145.8z
				 M2163.2,145.8c0-5.2,4.2-9.5,9.5-9.5s9.5,4.2,9.5,9.5c0,5.2-4.2,9.5-9.5,9.5S2163.2,151,2163.2,145.8z"/>
			<path class="st1" d="M2030.7,458.2c21.4,10.5,44.9,17.8,69.8,21.4c51.6,7.3,101.7-3,144.2-26.4c9.9-23,18.6-47,25.7-72.2
				C2183.9,429.9,2105.4,450.8,2030.7,458.2z"/>
			<path class="st1" d="M2247.1,298.7c0-15.6-12.7-28.3-28.3-28.3s-28.3,12.7-28.3,28.3c0,15.6,12.7,28.3,28.3,28.3
				C2234.4,327.1,2247.1,314.3,2247.1,298.7z M2200.8,298.7c0-9.9,8-17.9,17.9-17.9s17.9,8,17.9,17.9s-8,17.9-17.9,17.9
				C2208.9,316.7,2200.8,308.6,2200.8,298.7z"/>
			<path class="st1" d="M2364.6,230.2c-5.7-68.6-41.8-130.5-96.3-169.6c-28.2,2.9-55.9,7.5-83.2,13.8
				C2264.9,123.4,2321.4,175.9,2364.6,230.2z"/>
			<path class="st1" d="M2218.8,365.7l53-30.5l10.7,6.2c1.2-4.3,1.9-7.5,2.8-11.2l0.1-0.5l-8.6-5v-59.5l-58-33.5l-52.6,30.3
				l-43.3-26.2v-52.2l12.8-8l37,21.3l44.5-25.7v-44.6l8.7-5c-3.4-2.8-6.4-5.2-9.7-7.7l-4.6,2.6l-38.8-22.4l-44.5,25.7v45.6
				l-11.3,7.1l-52-30l-51.5,29.8l-14.7-8.5c-0.7,2.9-1.3,5.8-1.9,8.8c-0.2,1-0.4,2-0.6,3l10.9,6.2v61.1l51.7,29.9v9.4l-38.2,22.1
				v51.3l38.7,22.3v5c3.3,2.3,6.3,4.4,11.6,7.9v-13l38.7-22.3v-51.3l-38.2-22.1v-9.4l45.5-26.3l44.1,26.6v58.8L2218.8,365.7z
				 M2176.3,274.2l42.4-24.5l42.4,24.5v48.9l-42.4,24.5l-42.4-24.5V274.2z M2143.8,129.1l28.9-16.7l28.9,16.7v33.3l-28.9,16.7
				l-28.9-16.7V129.1z M2093.8,313.6v33.3l-28.9,16.7l-28.9-16.7v-33.3l28.9-16.7L2093.8,313.6z M2107.3,234.2l-42.4,24.5
				l-42.4-24.5v-48.9l42.4-24.5l42.4,24.5V234.2z"/>
			<path class="st1" d="M2036.6,209.7c0,15.6,12.7,28.3,28.3,28.3s28.3-12.7,28.3-28.3s-12.7-28.3-28.3-28.3
				C2049.3,181.4,2036.6,194.1,2036.6,209.7z M2082.8,209.7c0,9.9-8,17.9-17.9,17.9s-17.9-8-17.9-17.9s8-17.9,17.9-17.9
				C2074.8,191.8,2082.8,199.9,2082.8,209.7z"/>
			<path class="st1" d="M2245.4,46.1c-24.2-13.4-51.1-22.6-80.1-26.7c-43.2-6.1-85.3,0.1-122.8,16c-13.4,29.1-25.1,58.9-35.5,89.2
				C2081.8,88.2,2160,59.3,2245.4,46.1z"/>
			<path class="st1" d="M2049.2,330.2c0,8.7,7,15.7,15.7,15.7s15.7-7,15.7-15.7s-7-15.7-15.7-15.7S2049.2,321.6,2049.2,330.2z
				 M2074.4,330.2c0,5.2-4.2,9.5-9.5,9.5s-9.5-4.2-9.5-9.5c0-5.2,4.2-9.5,9.5-9.5S2074.4,325,2074.4,330.2z"/>
			<path class="st1" d="M2015.8,48.8c-59.3,34.6-102.8,95.1-113.1,168.3c-0.4,2.9-0.8,5.9-1.1,8.8c20.2,28.1,41.1,52.3,62.4,73.9
				C1966.7,219.5,1978.4,137.1,2015.8,48.8z"/>
			<path class="st1" d="M1900.4,253.5c1.3,78.3,42.2,149.5,105.8,190.9c32.7-3,62.2-8.2,89.3-15.1
				C2009.7,376.1,1947.6,316.7,1900.4,253.5z"/>
			<polygon class="st1" points="1782,221.6 1504.9,221.6 1504.9,17 1462.4,17 1462.4,487.1 1504.9,487.1 1504.9,264.1 1782,264.1 
				1782,487.1 1824.5,487.1 1824.5,17 1782,17 			"/>
			<polygon class="st1" points="1183,17 1018.6,17 1018.6,59.6 1183,59.6 1183,487.1 1225.5,487.1 1225.5,59.6 1389.8,59.6 
				1389.8,17 1225.5,17 			"/>
			<path class="st1" d="M2734.4,487.4h50l-118.6-184.7c61.1-17.3,105.9-73.5,105.9-140.1l0,0c0-80.4-65.2-145.6-145.6-145.6h-185.4
				l0,0v291.2V487h42.5V308.2h136.1L2734.4,487.4z M2484.6,61H2626c56,0,101.6,45.6,101.6,101.6S2682,264.2,2626,264.2h-141.4V61z"
				/>
		</g>
	</g>
</g>
</svg>
