<?xml version="1.0" encoding="utf-8"?>
<!-- Generator: Adobe Illustrator 25.1.0, SVG Export Plug-In . SVG Version: 6.00 Build 0)  -->
<svg version="1.1" id="Layer_1" xmlns="http://www.w3.org/2000/svg" xmlns:xlink="http://www.w3.org/1999/xlink" x="0px" y="0px"
	 viewBox="0 0 2787.9 475.8" style="enable-background:new 0 0 2787.9 475.8;" xml:space="preserve">
<style type="text/css">
	.st0{fill:#265ED4;}
	.st1{fill:url(#SVGID_1_);}
	.st2{fill:url(#SVGID_2_);}
	.st3{fill:url(#SVGID_3_);}
	.st4{fill:url(#SVGID_4_);}
</style>
<g>
	<g>
		<path class="st0" d="M2271.8,426.7c49.9-35.7,85.6-91,94.8-156.4c1.1-7.8,1.8-15.5,2.1-23.2c-14.7-19.1-30-37.2-46.2-54.3
			C2320.5,282.3,2301.1,358.4,2271.8,426.7z"/>
		<path class="st0" d="M2191.9,134.2c0-8.7-7-15.7-15.7-15.7s-15.7,7-15.7,15.7s7,15.7,15.7,15.7S2191.9,142.9,2191.9,134.2z
			 M2166.7,134.2c0-5.2,4.2-9.5,9.5-9.5s9.5,4.2,9.5,9.5c0,5.2-4.2,9.5-9.5,9.5S2166.7,139.4,2166.7,134.2z"/>
		<path class="st0" d="M2034.2,446.6c21.4,10.5,44.9,17.8,69.8,21.4c51.6,7.3,101.7-3,144.2-26.4c9.9-23,18.6-47,25.7-72.2
			C2187.4,418.3,2108.9,439.2,2034.2,446.6z"/>
		<path class="st0" d="M2250.6,287.1c0-15.6-12.7-28.3-28.3-28.3s-28.3,12.7-28.3,28.3c0,15.6,12.7,28.3,28.3,28.3
			C2237.9,315.5,2250.6,302.7,2250.6,287.1z M2204.3,287.1c0-9.9,8-17.9,17.9-17.9s17.9,8,17.9,17.9s-8,17.9-17.9,17.9
			C2212.4,305.1,2204.3,297,2204.3,287.1z"/>
		<path class="st0" d="M2368.1,218.6c-5.7-68.6-41.8-130.5-96.3-169.6c-28.2,2.9-55.9,7.5-83.2,13.8
			C2268.4,111.8,2324.9,164.3,2368.1,218.6z"/>
		<path class="st0" d="M2222.3,354.1l53-30.5l10.7,6.2c1.2-4.3,1.9-7.5,2.8-11.2l0.1-0.5l-8.6-5v-59.5l-58-33.5l-52.6,30.3
			l-43.3-26.2V172l12.8-8l37,21.3l44.5-25.7V115l8.7-5c-3.4-2.8-6.4-5.2-9.7-7.7l-4.6,2.6l-38.8-22.4l-44.5,25.7v45.6l-11.3,7.1
			l-52-30l-51.5,29.8l-14.7-8.5c-0.7,2.9-1.3,5.8-1.9,8.8c-0.2,1-0.4,2-0.6,3l10.9,6.2v61.1l51.7,29.9v9.4l-38.2,22.1V344l38.7,22.3
			v5c3.3,2.3,6.3,4.4,11.6,7.9v-13l38.7-22.3v-51.3l-38.2-22.1v-9.4l45.5-26.3l44.1,26.6v58.8L2222.3,354.1z M2179.8,262.6
			l42.4-24.5l42.4,24.5v48.9l-42.4,24.5l-42.4-24.5V262.6z M2147.3,117.5l28.9-16.7l28.9,16.7v33.3l-28.9,16.7l-28.9-16.7V117.5z
			 M2097.3,302v33.3l-28.9,16.7l-28.9-16.7V302l28.9-16.7L2097.3,302z M2110.8,222.6l-42.4,24.5l-42.4-24.5v-48.9l42.4-24.5
			l42.4,24.5V222.6z"/>
		<path class="st0" d="M2040.1,198.1c0,15.6,12.7,28.3,28.3,28.3s28.3-12.7,28.3-28.3s-12.7-28.3-28.3-28.3
			C2052.8,169.8,2040.1,182.5,2040.1,198.1z M2086.3,198.1c0,9.9-8,17.9-17.9,17.9s-17.9-8-17.9-17.9s8-17.9,17.9-17.9
			C2078.3,180.2,2086.3,188.3,2086.3,198.1z"/>
		<path class="st0" d="M2248.9,34.5c-24.2-13.4-51.1-22.6-80.1-26.7c-43.2-6.1-85.3,0.1-122.8,16c-13.4,29.1-25.1,58.9-35.5,89.2
			C2085.3,76.6,2163.5,47.7,2248.9,34.5z"/>
		<path class="st0" d="M2052.7,318.6c0,8.7,7,15.7,15.7,15.7s15.7-7,15.7-15.7s-7-15.7-15.7-15.7S2052.7,310,2052.7,318.6z
			 M2077.9,318.6c0,5.2-4.2,9.5-9.5,9.5s-9.5-4.2-9.5-9.5c0-5.2,4.2-9.5,9.5-9.5S2077.9,313.4,2077.9,318.6z"/>
		<path class="st0" d="M2019.3,37.2c-59.3,34.6-102.8,95.1-113.1,168.3c-0.4,2.9-0.8,5.9-1.1,8.8c20.2,28.1,41.1,52.3,62.4,73.9
			C1970.2,207.9,1981.9,125.5,2019.3,37.2z"/>
		<path class="st0" d="M1903.9,241.9c1.3,78.3,42.2,149.5,105.8,190.9c32.7-3,62.2-8.2,89.3-15.1
			C2013.2,364.5,1951.1,305.1,1903.9,241.9z"/>
		<polygon class="st0" points="1785.5,210 1508.4,210 1508.4,5.4 1465.9,5.4 1465.9,475.5 1508.4,475.5 1508.4,252.5 1785.5,252.5 
			1785.5,475.5 1828,475.5 1828,5.4 1785.5,5.4 		"/>
		<polygon class="st0" points="1186.5,5.4 1022.1,5.4 1022.1,48 1186.5,48 1186.5,475.5 1229,475.5 1229,48 1393.3,48 1393.3,5.4 
			1229,5.4 		"/>
		<path class="st0" d="M2737.9,475.8h50l-118.6-184.7c61.1-17.3,105.9-73.5,105.9-140.1l0,0c0-80.4-65.2-145.6-145.6-145.6h-185.4
			l0,0v291.2v178.8h42.5V296.6h136.1L2737.9,475.8z M2488.1,49.4h141.4c56,0,101.6,45.6,101.6,101.6s-45.6,101.6-101.6,101.6h-141.4
			V49.4z"/>
	</g>
	
		<linearGradient id="SVGID_1_" gradientUnits="userSpaceOnUse" x1="-9.6773" y1="-987.4437" x2="211.5765" y2="-365.8621" gradientTransform="matrix(1 0 0 -1 0 -326.9503)">
		<stop  offset="0.177" style="stop-color:#00D5FF"/>
		<stop  offset="0.3061" style="stop-color:#06C1F4"/>
		<stop  offset="0.5718" style="stop-color:#148BD7"/>
		<stop  offset="0.9012" style="stop-color:#1A4CAE"/>
	</linearGradient>
	<path class="st1" d="M272.4,5.2h-90.4L0,475.5h85.2c9,0,16.6-2.4,22.7-7.3c6.1-4.8,10.4-10.3,12.8-16.3l99.6-284.4
		c3.2-8.2,6.7-17.9,10.3-29.1C234.3,127.3,272.4,5.2,272.4,5.2z"/>
	<path class="st0" d="M512.9,199.6v275.9h109.8V140.8c-20.6,1.4-40.8,3.3-58.3,5.3l-4.8,0.6c-12.9,1.6-24.7,8-33.3,17.7
		C517.7,174.1,512.9,186.6,512.9,199.6L512.9,199.6z"/>
	
		<linearGradient id="SVGID_2_" gradientUnits="userSpaceOnUse" x1="362.9038" y1="-547.5468" x2="-145.3815" y2="-919.0991" gradientTransform="matrix(1 0 0 -1 0 -326.9503)">
		<stop  offset="0.3803" style="stop-color:#00D5FF"/>
		<stop  offset="0.4684" style="stop-color:#02CFFD"/>
		<stop  offset="0.5906" style="stop-color:#08BDF6"/>
		<stop  offset="0.7327" style="stop-color:#129FEB"/>
		<stop  offset="0.8885" style="stop-color:#2077DC"/>
		<stop  offset="1" style="stop-color:#2B55CF"/>
	</linearGradient>
	<path class="st2" d="M475.3,160.1c-6.6,0.3-12.5,0.7-25,3.6C263.1,206.2,88,329.8,0,475.5h94c10.6,0,21.7-3.8,27.7-12.5
		c113.6-162.7,265.3-252.2,332.9-287.4C473.4,165.8,474.4,161.9,475.3,160.1z"/>
	<path class="st0" d="M277.2,5.2h-95.2c0,0,19.6,6.1,26.9,23.5l146.1,423.3c2.9,6.7,7.4,12.5,13.2,16.9c5.8,4.4,13.4,6.6,22.9,6.6
		h84.6L299.7,20.6c-1.8-4.5-4.8-8.4-8.9-11.2C286.8,6.6,282.1,5.2,277.2,5.2L277.2,5.2z"/>
	
		<radialGradient id="SVGID_3_" cx="1100.1176" cy="249.4139" r="1.5456" gradientTransform="matrix(78.3897 0 0 -78.3942 -85669.6406 19688.4141)" gradientUnits="userSpaceOnUse">
		<stop  offset="0" style="stop-color:#FFD215"/>
		<stop  offset="1" style="stop-color:#FF9B00"/>
	</radialGradient>
	<path class="st3" d="M622.7,140.8V5.2H512.9v135.1c0,1.6,0.3,3.1,1,4.5c0.6,1.4,1.6,2.7,2.8,3.7c1.2,1,2.6,1.8,4.1,2.2
		c1.5,0.4,3.1,0.6,4.6,0.3C557.7,146.4,595.8,142.8,622.7,140.8z"/>
	<path class="st0" d="M814.5,395.9l-0.6-3l88.5-90.7c12.5-12.7,24.3-25.2,35.4-37.6c10.8-12,20.5-24.8,29.2-38.4
		c8.3-13.1,15-27.1,19.9-41.8c5-15.4,7.4-31.6,7.3-47.8c0-20-3.5-38.4-10.5-55c-6.8-16.4-17.1-31.1-30.2-43.1
		c-13.1-12.1-29-21.5-47.6-28.3C887.3,3.4,866.3,0,843.1,0c-20.4-0.2-40.8,2.7-60.4,8.5c-18.3,5.3-35.3,14.2-50.1,26.2
		c-14.8,11.9-27.1,26.7-36.2,43.4c-9.4,16.8-15.9,36.5-19.4,58.9c17.6-0.8,46.6-1.5,68-1.9c16.1-0.3,30.5-9.4,38.4-23.4
		c0,0,0-0.1,0.1-0.1c4.1-7.1,9.7-13.3,16.2-18.2c10.2-7.9,22.8-11.8,37.6-11.8c18.3,0,31.9,5,40.8,15c8.9,10,13.4,24.4,13.4,43.1
		c0.1,11-1.4,21.9-4.2,32.4c-3,10.7-7.2,21-12.6,30.7c-6.1,11-13.3,21.4-21.3,31.1c-9.5,11.6-19.7,22.7-30.3,33.3L687.5,403.8
		c-6.1,5.2-10.7,11.9-13.6,19.4c-2.5,6.4-3.8,13.2-3.9,20v32.3h90.4L814.5,395.9z"/>
	
		<linearGradient id="SVGID_4_" gradientUnits="userSpaceOnUse" x1="909.7076" y1="-757.3744" x2="761.3467" y2="-757.1179" gradientTransform="matrix(1 0 0 -1 0 -326.9503)">
		<stop  offset="0" style="stop-color:#2B55CF"/>
		<stop  offset="1" style="stop-color:#1A4CAE"/>
	</linearGradient>
	<path class="st4" d="M991.3,394c-6.2-5.9-14.7-8.9-25.5-8.9h-19c-0.1,0-0.1,0-0.2,0l-68.7,0c-0.6,0-1.3,0.1-1.9,0.1
		c-2.9,0-5.8,0.2-8.8,0.4c-7.2,0.4-14.4,1.2-21.5,2.4c-0.9,0.2-2,0.3-3,0.5c-4.6,0.7-8.9,1.3-13,1.9c-8.2,1.1-15.3,2-15.3,2
		C798.3,409,780,427.7,769,439c-6.3,6.5-9.9,15.2-9.9,24.2v12.3h241.5v-58.1C1000.6,407.7,997.5,399.9,991.3,394L991.3,394z"/>
</g>
</svg>
