mtllib ShowerDoor_43a71301.mtl
g ShowerdoorMesh_fc984ad2
v 0.70273 0.09355 0.01557
v 0.70471 0.09121 0.01557
v 0.70273 0.09121 0.0177
v 0.70273 -0.01762 0.0177
v 0.70471 -0.01762 0.01557
v 0.70273 -0.01996 0.01557
v 0.70273 0.09355 -0.01556
v 0.70273 0.09121 -0.01769
v 0.70471 0.09121 -0.01556
v 0.70273 -0.01996 -0.01556
v 0.70471 -0.01762 -0.01556
v 0.70273 -0.01762 -0.01769
v 0.69681 -0.01055 -0.01126
v 0.69878 -0.01055 -0.00914
v 0.69681 -0.01289 -0.00914
v 0.69681 0.08414 -0.01126
v 0.69681 0.08648 -0.00914
v 0.69878 0.08414 -0.00914
v 0.69681 0.08648 0.00915
v 0.69681 0.08414 0.01127
v 0.69878 0.08414 0.00915
v 0.69681 -0.01289 0.00915
v 0.69878 -0.01055 0.00915
v 0.69681 -0.01055 0.01127
v 0.70273 0.09121 0.0177
v 0.70471 0.09121 0.01557
v 0.70471 -0.01762 0.01557
v 0.70273 0.09121 0.0177
v 0.70471 -0.01762 0.01557
v 0.70273 -0.01762 0.0177
v 0.6738 0.09355 -0.01556
v 0.6738 0.09121 -0.01769
v 0.70273 0.09121 -0.01769
v 0.6738 0.09355 -0.01556
v 0.70273 0.09121 -0.01769
v 0.70273 0.09355 -0.01556
v 0.6738 -0.01762 0.0177
v 0.67183 -0.01431 0.01557
v 0.67183 0.0879 0.01557
v 0.6738 -0.01762 0.0177
v 0.67183 0.0879 0.01557
v 0.6738 0.09121 0.0177
v 0.73923 0.97278 0.00671
v 0.75441 0.97278 0.00671
v 0.75441 -0.95425 0.00671
v 0.73923 0.97278 0.00671
v 0.75441 -0.95425 0.00671
v 0.73923 -0.95425 0.00671
v 0.73923 0.97278 -0.00857
v 0.73923 -0.95425 -0.00857
v 0.75441 -0.95425 -0.00857
v 0.73923 0.97278 -0.00857
v 0.75441 -0.95425 -0.00857
v 0.75441 0.97278 -0.00857
v -0.00738 0.97278 0.00671
v 0.0078 0.97278 0.00671
v 0.0078 -0.95425 0.00671
v -0.00738 0.97278 0.00671
v 0.0078 -0.95425 0.00671
v -0.00738 -0.95425 0.00671
v -0.00738 0.97278 -0.00857
v -0.00738 -0.95425 -0.00857
v 0.0078 -0.95425 -0.00857
v -0.00738 0.97278 -0.00857
v 0.0078 -0.95425 -0.00857
v 0.0078 0.97278 -0.00857
v 0.6738 0.09121 0.0177
v 0.70273 0.09121 0.0177
v 0.70273 -0.01762 0.0177
v 0.6738 -0.01762 0.0177
v 0.6738 0.08648 0.00915
v 0.69681 0.08648 0.00915
v 0.69681 0.08648 -0.00914
v 0.6738 0.08648 -0.00914
v 0.6738 0.08414 -0.01126
v 0.69681 0.08414 -0.01126
v 0.69681 -0.01055 -0.01126
v 0.6738 -0.01055 -0.01126
v 0.6738 -0.01996 -0.01556
v 0.6738 -0.01996 0.01557
v 0.70273 -0.01996 0.01557
v 0.70273 -0.01996 -0.01556
v 0.70471 0.09121 0.01557
v 0.70471 0.09121 -0.01556
v 0.70471 -0.01762 -0.01556
v 0.70471 -0.01762 0.01557
v 0.70273 0.09121 -0.01769
v 0.6738 0.09121 -0.01769
v 0.6738 -0.01762 -0.01769
v 0.70273 -0.01762 -0.01769
v 0.69878 0.08414 -0.00914
v 0.69878 0.08414 0.00915
v 0.69878 -0.01055 0.00915
v 0.69878 -0.01055 -0.00914
v 0.6738 -0.01055 0.01127
v 0.69681 -0.01055 0.01127
v 0.69681 0.08414 0.01127
v 0.6738 0.08414 0.01127
v 0.6738 -0.01289 -0.00914
v 0.69681 -0.01289 -0.00914
v 0.69681 -0.01289 0.00915
v 0.6738 -0.01289 0.00915
v 0.67183 0.08882 -0.01038
v 0.67183 0.08551 -0.01339
v 0.67183 0.0879 -0.01556
v 0.67183 0.09121 -0.01255
v 0.67183 0.09121 0.01256
v 0.67183 0.08882 0.01039
v 0.67183 0.08551 0.0134
v 0.67183 0.0879 0.01557
v 0.67183 -0.01431 0.01557
v 0.67183 -0.01192 0.0134
v 0.67183 -0.01192 -0.01339
v 0.67183 0.0879 -0.01556
v 0.67183 0.08551 -0.01339
v 0.67183 -0.01431 -0.01556
v 0.67183 -0.01762 -0.01255
v 0.67183 -0.01523 -0.01038
v 0.67183 -0.01523 0.01039
v 0.67183 -0.01762 0.01256
v 0.67183 -0.01431 0.01557
v 0.67183 -0.01192 0.0134
v 0.6738 0.08648 0.00915
v 0.67183 0.08882 0.01039
v 0.67183 0.08551 0.0134
v 0.6738 0.08414 0.01127
v 0.6738 -0.01289 0.00915
v 0.6738 -0.01055 0.01127
v 0.67183 -0.01192 0.0134
v 0.67183 -0.01523 0.01039
v 0.6738 0.08414 -0.01126
v 0.67183 0.08551 -0.01339
v 0.67183 0.08882 -0.01038
v 0.6738 0.08648 -0.00914
v 0.6738 -0.01055 -0.01126
v 0.6738 -0.01289 -0.00914
v 0.67183 -0.01523 -0.01038
v 0.67183 -0.01192 -0.01339
v 0.6738 -0.01996 -0.01556
v 0.6738 -0.01762 -0.01769
v 0.67183 -0.01431 -0.01556
v 0.67183 -0.01762 -0.01255
v 0.6738 0.09355 -0.01556
v 0.67183 0.09121 -0.01255
v 0.67183 0.0879 -0.01556
v 0.6738 0.09121 -0.01769
v 0.67183 0.09121 0.01256
v 0.6738 0.09355 0.01557
v 0.6738 0.09121 0.0177
v 0.67183 0.0879 0.01557
v 0.67183 -0.01762 0.01256
v 0.67183 -0.01431 0.01557
v 0.6738 -0.01762 0.0177
v 0.6738 -0.01996 0.01557
v 0.70273 0.09355 -0.01556
v 0.70471 0.09121 -0.01556
v 0.70471 0.09121 0.01557
v 0.70273 0.09355 0.01557
v 0.70273 -0.01996 0.01557
v 0.70471 -0.01762 0.01557
v 0.70471 -0.01762 -0.01556
v 0.70273 -0.01996 -0.01556
v 0.70273 -0.01762 -0.01769
v 0.70471 -0.01762 -0.01556
v 0.70471 0.09121 -0.01556
v 0.70273 0.09121 -0.01769
v 0.70273 -0.01996 -0.01556
v 0.70273 -0.01762 -0.01769
v 0.6738 -0.01762 -0.01769
v 0.6738 -0.01996 -0.01556
v 0.67183 -0.01431 -0.01556
v 0.6738 -0.01762 -0.01769
v 0.6738 0.09121 -0.01769
v 0.67183 0.0879 -0.01556
v 0.6738 0.09355 0.01557
v 0.67183 0.09121 0.01256
v 0.67183 0.09121 -0.01255
v 0.6738 0.09355 -0.01556
v 0.6738 -0.01996 -0.01556
v 0.67183 -0.01762 -0.01255
v 0.67183 -0.01762 0.01256
v 0.6738 -0.01996 0.01557
v 0.70273 0.09355 0.01557
v 0.70273 0.09121 0.0177
v 0.6738 0.09121 0.0177
v 0.6738 0.09355 0.01557
v 0.6738 -0.01996 0.01557
v 0.6738 -0.01762 0.0177
v 0.70273 -0.01762 0.0177
v 0.70273 -0.01996 0.01557
v 0.6738 -0.01055 -0.01126
v 0.67183 -0.01192 -0.01339
v 0.67183 0.08551 -0.01339
v 0.6738 0.08414 -0.01126
v 0.67183 0.08882 0.01039
v 0.6738 0.08648 0.00915
v 0.6738 0.08648 -0.00914
v 0.67183 0.08882 -0.01038
v 0.67183 -0.01523 -0.01038
v 0.6738 -0.01289 -0.00914
v 0.6738 -0.01289 0.00915
v 0.67183 -0.01523 0.01039
v 0.67183 -0.01192 0.0134
v 0.6738 -0.01055 0.01127
v 0.6738 0.08414 0.01127
v 0.67183 0.08551 0.0134
v 0.69878 -0.01055 -0.00914
v 0.69681 -0.01055 -0.01126
v 0.69681 0.08414 -0.01126
v 0.69878 0.08414 -0.00914
v 0.69681 0.08648 0.00915
v 0.69878 0.08414 0.00915
v 0.69878 0.08414 -0.00914
v 0.69681 0.08648 -0.00914
v 0.69681 -0.01289 -0.00914
v 0.69878 -0.01055 -0.00914
v 0.69878 -0.01055 0.00915
v 0.69681 -0.01289 0.00915
v 0.69681 -0.01055 0.01127
v 0.69878 -0.01055 0.00915
v 0.69878 0.08414 0.00915
v 0.69681 0.08414 0.01127
v 0.6738 -0.01055 0.01127
v 0.6738 -0.01289 0.00915
v 0.69681 -0.01289 0.00915
v 0.69681 -0.01055 0.01127
v 0.69681 -0.01055 -0.01126
v 0.69681 -0.01289 -0.00914
v 0.6738 -0.01289 -0.00914
v 0.6738 -0.01055 -0.01126
v 0.69681 0.08648 -0.00914
v 0.69681 0.08414 -0.01126
v 0.6738 0.08414 -0.01126
v 0.6738 0.08648 -0.00914
v 0.6738 0.08648 0.00915
v 0.6738 0.08414 0.01127
v 0.69681 0.08414 0.01127
v 0.69681 0.08648 0.00915
v 0.70273 0.09355 -0.01556
v 0.70273 0.09355 0.01557
v 0.6738 0.09355 0.01557
v 0.6738 0.09355 -0.01556
v 0.75441 -0.95425 0.00671
v 0.75441 0.97278 0.00671
v 0.75441 0.97278 -0.00857
v 0.75441 -0.95425 -0.00857
v 0.75441 -0.97277 0.00671
v 0.75441 -0.97277 -0.00857
v 0.73923 0.97278 0.00671
v 0.73923 -0.95425 0.00671
v 0.73923 -0.95425 -0.00857
v 0.73923 0.97278 -0.00857
v 0.0078 -0.95425 0.00671
v 0.0078 0.97278 0.00671
v 0.0078 0.97278 -0.00857
v 0.0078 -0.95425 -0.00857
v -0.00738 0.97278 0.00671
v -0.00738 -0.95425 0.00671
v -0.00738 -0.95425 -0.00857
v -0.00738 0.97278 -0.00857
v 0.0078 -0.97277 -0.00857
v 0.73923 -0.95425 -0.00857
v 0.0078 -0.95425 -0.00857
v 0.73923 -0.97277 -0.00857
v 0.75441 -0.97277 -0.00857
v 0.75441 -0.95425 -0.00857
v -0.00738 -0.97277 -0.00857
v 0.0078 -0.97277 -0.00857
v 0.0078 -0.95425 -0.00857
v -0.00738 -0.95425 -0.00857
v 0.0078 -0.97277 0.00671
v 0.73923 -0.97277 -0.00857
v 0.0078 -0.97277 -0.00857
v 0.73923 -0.97277 0.00671
v 0.75441 -0.97277 -0.00857
v 0.75441 -0.97277 0.00671
v -0.00738 -0.97277 0.00671
v 0.0078 -0.97277 0.00671
v 0.0078 -0.97277 -0.00857
v -0.00738 -0.97277 -0.00857
v 0.0078 -0.95425 -0.00857
v 0.0078 -0.95425 0.00671
v 0.0078 -0.97277 0.00671
v 0.0078 -0.97277 -0.00857
v 0.0078 -0.95425 0.00671
v -0.00738 -0.95425 0.00671
v -0.00738 -0.97277 0.00671
v 0.0078 -0.97277 0.00671
v 0.0078 -0.95425 -0.00857
v 0.73923 -0.95425 -0.00857
v 0.73923 -0.95425 0.00671
v 0.0078 -0.95425 0.00671
v 0.0078 -0.95425 0.00671
v 0.73923 -0.95425 0.00671
v 0.73923 -0.97277 0.00671
v 0.0078 -0.97277 0.00671
v -0.00738 -0.95425 -0.00857
v -0.00738 -0.95425 0.00671
v -0.00738 -0.97277 0.00671
v -0.00738 -0.97277 -0.00857
v -0.00738 0.97278 0.00671
v -0.00738 0.97278 -0.00857
v 0.0078 0.97278 -0.00857
v 0.0078 0.97278 0.00671
v 0.73923 0.97278 0.00671
v 0.73923 0.97278 -0.00857
v 0.75441 0.97278 -0.00857
v 0.75441 0.97278 0.00671
v -0.01624 -0.65911 0.00654
v -0.01624 -0.58403 0.01379
v -0.01624 -0.65911 0.01379
v -0.01624 -0.58403 0.00654
v -0.01624 -0.65911 -0.0088
v -0.01624 -0.58403 -0.0088
v -0.01624 -0.65911 -0.01616
v -0.01624 -0.58403 -0.01616
v 0.02635 -0.65911 0.00654
v 0.02635 -0.65911 0.01379
v 0.02635 -0.58403 0.01379
v 0.02635 -0.58403 0.00654
v -0.00367 -0.58403 0.01379
v 0.02635 -0.58403 0.00654
v 0.02635 -0.58403 0.01379
v -0.00367 -0.58403 0.00654
v -0.01624 -0.58403 0.01379
v -0.01624 -0.58403 0.00654
v -0.01624 -0.58403 -0.0088
v -0.00367 -0.58403 -0.0088
v -0.01624 -0.58403 -0.01616
v -0.00367 -0.58403 -0.01616
v 0.02628 -0.58403 -0.01616
v 0.02628 -0.58403 -0.0088
v -0.00367 -0.58403 0.00654
v -0.00367 -0.65911 0.00654
v 0.02635 -0.65911 0.00654
v 0.02635 -0.58403 0.00654
v -0.00367 -0.65911 0.01379
v 0.02635 -0.58403 0.01379
v 0.02635 -0.65911 0.01379
v -0.00367 -0.58403 0.01379
v -0.01624 -0.65911 0.01379
v -0.01624 -0.58403 0.01379
v -0.00367 -0.65911 0.00654
v 0.02635 -0.65911 0.01379
v 0.02635 -0.65911 0.00654
v -0.00367 -0.65911 0.01379
v -0.01624 -0.65911 0.00654
v -0.01624 -0.65911 0.01379
v -0.00367 -0.65911 -0.0088
v -0.01624 -0.65911 -0.0088
v -0.00367 -0.65911 -0.01616
v -0.01624 -0.65911 -0.01616
v 0.02628 -0.65911 -0.0088
v 0.02628 -0.65911 -0.01616
v -0.00367 -0.65911 -0.0088
v -0.00367 -0.58403 -0.0088
v 0.02628 -0.58403 -0.0088
v 0.02628 -0.65911 -0.0088
v -0.00367 -0.65911 0.00654
v -0.00367 -0.58403 0.00654
v -0.00367 -0.58403 -0.0088
v -0.00367 -0.65911 -0.0088
v -0.01624 -0.58403 -0.01616
v -0.01624 -0.65911 -0.01616
v -0.00367 -0.65911 -0.01616
v -0.00367 -0.58403 -0.01616
v 0.02628 -0.65911 -0.01616
v 0.02628 -0.58403 -0.01616
v 0.02628 -0.65911 -0.0088
v 0.02628 -0.58403 -0.0088
v 0.02628 -0.58403 -0.01616
v 0.02628 -0.65911 -0.01616
v -0.01624 0.60463 0.00654
v -0.01624 0.67971 0.01379
v -0.01624 0.60463 0.01379
v -0.01624 0.67971 0.00654
v -0.01624 0.60463 -0.0088
v -0.01624 0.67971 -0.0088
v -0.01624 0.60463 -0.01616
v -0.01624 0.67971 -0.01616
v 0.02635 0.60463 0.00654
v 0.02635 0.60463 0.01379
v 0.02635 0.67971 0.01379
v 0.02635 0.67971 0.00654
v -0.00367 0.67971 0.01379
v 0.02635 0.67971 0.00654
v 0.02635 0.67971 0.01379
v -0.00367 0.67971 0.00654
v -0.01624 0.67971 0.01379
v -0.01624 0.67971 0.00654
v -0.01624 0.67971 -0.0088
v -0.00367 0.67971 -0.0088
v -0.01624 0.67971 -0.01616
v -0.00367 0.67971 -0.01616
v 0.02628 0.67971 -0.01616
v 0.02628 0.67971 -0.0088
v -0.00367 0.67971 0.00654
v -0.00367 0.60463 0.00654
v 0.02635 0.60463 0.00654
v 0.02635 0.67971 0.00654
v -0.00367 0.60463 0.01379
v 0.02635 0.67971 0.01379
v 0.02635 0.60463 0.01379
v -0.00367 0.67971 0.01379
v -0.01624 0.60463 0.01379
v -0.01624 0.67971 0.01379
v -0.00367 0.60463 0.00654
v 0.02635 0.60463 0.01379
v 0.02635 0.60463 0.00654
v -0.00367 0.60463 0.01379
v -0.01624 0.60463 0.00654
v -0.01624 0.60463 0.01379
v -0.00367 0.60463 -0.0088
v -0.01624 0.60463 -0.0088
v -0.00367 0.60463 -0.01616
v -0.01624 0.60463 -0.01616
v 0.02628 0.60463 -0.0088
v 0.02628 0.60463 -0.01616
v -0.00367 0.60463 -0.0088
v -0.00367 0.67971 -0.0088
v 0.02628 0.67971 -0.0088
v 0.02628 0.60463 -0.0088
v -0.00367 0.60463 0.00654
v -0.00367 0.67971 0.00654
v -0.00367 0.67971 -0.0088
v -0.00367 0.60463 -0.0088
v -0.01624 0.67971 -0.01616
v -0.01624 0.60463 -0.01616
v -0.00367 0.60463 -0.01616
v -0.00367 0.67971 -0.01616
v 0.02628 0.60463 -0.01616
v 0.02628 0.67971 -0.01616
v 0.02628 0.60463 -0.0088
v 0.02628 0.67971 -0.0088
v 0.02628 0.67971 -0.01616
v 0.02628 0.60463 -0.01616
vn 0.6229351 0.5260192 0.5790126
vn 0.6229351 0.5260192 0.5790126
vn 0.6229351 0.5260192 0.5790126
vn 0.6229284 -0.5260942 0.5789519
vn 0.6229284 -0.5260942 0.5789519
vn 0.6229284 -0.5260942 0.5789519
vn 0.6228766 0.5260505 -0.579047
vn 0.6228767 0.5260505 -0.5790471
vn 0.6228767 0.5260505 -0.5790471
vn 0.6228699 -0.5261254 -0.5789863
vn 0.6228699 -0.5261254 -0.5789862
vn 0.6228699 -0.5261254 -0.5789863
vn -0.6228819 0.5260953 0.5790008
vn -0.6228818 0.5260953 0.5790008
vn -0.6228819 0.5260952 0.5790008
vn -0.6228819 -0.5260952 0.5790008
vn -0.6228819 -0.5260953 0.5790008
vn -0.6228818 -0.5260953 0.5790008
vn -0.6228819 -0.5260953 -0.5790008
vn -0.6228819 -0.5260952 -0.5790008
vn -0.6228819 -0.5260953 -0.5790008
vn -0.6228819 0.5260952 -0.5790008
vn -0.6228819 0.5260953 -0.5790008
vn -0.6228819 0.5260952 -0.5790008
vn 0.732461 0 0.6808089
vn 0.7324604 0 0.6808096
vn 0.7324956 0 0.6807718
vn 0.732461 0 0.6808089
vn 0.7324956 0 0.6807718
vn 0.7324962 0 0.6807711
vn 0 0.6724338 -0.7401572
vn 0 0.6724312 -0.7401596
vn 0 0.6724663 -0.7401277
vn 0 0.6724338 -0.7401572
vn 0 0.6724663 -0.7401277
vn 0 0.672469 -0.7401253
vn -0.732514 0 0.6807519
vn -0.732514 0 0.6807519
vn -0.7325134 0 0.6807527
vn -0.732514 0 0.6807519
vn -0.7325134 0 0.6807527
vn -0.7325134 0 0.6807526
vn 0 0 1
vn 0 0 1
vn 0 0 1
vn 0 0 1
vn 0 0 1
vn 0 0 1
vn 0 0 -1
vn 0 0 -1
vn 0 0 -1
vn 0 0 -1
vn 0 0 -1
vn 0 0 -1
vn 0 0 1
vn 0 0 1
vn -1.328594E-05 0 1
vn 0 0 1
vn -1.328594E-05 0 1
vn -1.335293E-05 0 1
vn 0 0 -1
vn 0 0 -1
vn 0 0 -1
vn 0 0 -1
vn 0 0 -1
vn 0 0 -1
vn 0 0 1
vn 0 0 1
vn 0 0 1
vn 0 0 1
vn 0 -1 0
vn 0 -1 0
vn 0 -1 0
vn 0 -1 0
vn 0 0 1
vn 0 0 1
vn 0 0 1
vn 0 0 1
vn 0 -1 0
vn 0 -1 0
vn 0 -1 0
vn 0 -1 0
vn 1 0 0
vn 1 0 0
vn 1 0 0
vn 1 0 0
vn 0 0 -1
vn 0 0 -1
vn 0 0 -1
vn 0 0 -1
vn -1 0 0
vn -1 0 0
vn -1 0 0
vn -1 0 0
vn 0 0 -1
vn 0 0 -1
vn 0 0 -1
vn 0 0 -1
vn 0 1 0
vn 0 1 0
vn 0 1 0
vn 0 1 0
vn -1 -4.42803E-05 0
vn -1 0 0
vn -1 0 0
vn -1 -4.465571E-05 0
vn -1 0.0001373246 0
vn -1 0.0002035006 0
vn -1 6.078913E-07 0
vn -1 3.38897E-06 0
vn -1 -8.548065E-06 0
vn -1 -4.249349E-06 0
vn -1 0 0
vn -1 0 0
vn -1 0 0
vn -1 0 0
vn -1 -1.244227E-05 0
vn -1 0 0
vn -1 -0.0001104586 0
vn -1 -8.931235E-05 0
vn -1 -8.548065E-06 0
vn -1 -4.249349E-06 0
vn -0.7839667 -0.4174609 -0.4594808
vn -0.7839736 -0.4174565 -0.4594728
vn -0.7839646 -0.4174623 -0.4594833
vn -0.7839513 -0.4174707 -0.4594982
vn -0.7839484 0.4174958 -0.4594805
vn -0.7839586 0.4174645 -0.4594914
vn -0.7839497 0.4174914 -0.459482
vn -0.7839436 0.4175101 -0.4594755
vn -0.7839456 -0.417502 0.4594796
vn -0.7839442 -0.4174962 0.4594871
vn -0.7839459 -0.4175037 0.4594774
vn -0.7839484 -0.4175146 0.4594632
vn -0.7839562 0.4174921 0.4594704
vn -0.7839192 0.4175395 0.4594904
vn -0.7839514 0.4174982 0.459473
vn -0.783973 0.4174705 0.4594614
vn -0.8871531 -0.3103567 -0.3415233
vn -0.8871275 -0.310396 -0.341554
vn -0.8871564 -0.3103516 -0.3415194
vn -0.8871701 -0.3103303 -0.3415028
vn -0.8871568 0.3103343 -0.3415338
vn -0.8871582 0.3103261 -0.341538
vn -0.8871571 0.3103327 -0.3415346
vn -0.8871549 0.3103465 -0.3415276
vn -0.8871592 0.3103422 0.3415205
vn -0.8871489 0.3103711 0.3415209
vn -0.8871579 0.3103458 0.3415206
vn -0.8871641 0.3103282 0.3415203
vn -0.8871597 -0.3103553 0.3415073
vn -0.8871641 -0.3103282 0.3415203
vn -0.8871586 -0.3103621 0.341504
vn -0.8871505 -0.3104112 0.3414804
vn 0.7640141 0.6451995 0
vn 0.7640141 0.6451995 0
vn 0.7640141 0.6451995 0
vn 0.7640141 0.6451995 0
vn 0.7639726 -0.6452487 0
vn 0.7639725 -0.6452488 0
vn 0.7639741 -0.645247 0
vn 0.7639741 -0.6452469 0
vn 0.73239 0 -0.6808854
vn 0.7323887 0 -0.6808867
vn 0.7324592 0 -0.6808109
vn 0.7324604 0 -0.6808096
vn 0 -0.6724996 -0.7400975
vn 0 -0.6725022 -0.7400952
vn 0 -0.6724669 -0.7401271
vn 0 -0.6724644 -0.7401295
vn -0.7325089 0 -0.6807574
vn -0.7325094 0 -0.6807569
vn -0.7324597 0 -0.6808104
vn -0.7324576 0 -0.6808127
vn -0.7640484 0.6451589 0
vn -0.7640551 0.645151 0
vn -0.7640157 0.6451976 0
vn -0.7640142 0.6451995 0
vn -0.764007 -0.6452079 0
vn -0.7640139 -0.6451998 0
vn -0.7639741 -0.645247 0
vn -0.7639725 -0.6452488 0
vn 0 0.6724925 0.7401039
vn 0 0.6724906 0.7401057
vn 0 0.6725172 0.7400815
vn 0 0.6725192 0.7400797
vn 0 -0.6725504 0.7400513
vn 0 -0.6725525 0.7400495
vn 0 -0.6725257 0.7400737
vn 0 -0.6725237 0.7400756
vn -0.7324451 0 0.6808262
vn -0.7324436 0 0.6808277
vn -0.7325324 0 0.6807321
vn -0.7325348 0 0.6807296
vn -0.7640202 -0.6451923 0
vn -0.7640203 -0.6451921 0
vn -0.76402 -0.6451926 0
vn -0.7640199 -0.6451926 0
vn -0.7639893 0.645229 0
vn -0.7639891 0.6452292 0
vn -0.7639899 0.6452281 0
vn -0.76399 0.6452281 0
vn -0.7324991 0 -0.680768
vn -0.7325001 0 -0.6807668
vn -0.7324623 0 -0.6808075
vn -0.7324618 0 -0.6808082
vn -0.7324666 0 0.6808028
vn -0.7324675 0 0.680802
vn -0.7324277 0 0.6808448
vn -0.732427 0 0.6808456
vn -0.7640314 -0.6451791 0
vn -0.7640371 -0.6451724 0
vn -0.763989 -0.6452292 0
vn -0.7639833 -0.6452361 0
vn -0.764045 0.6451629 0
vn -0.7640513 0.6451555 0
vn -0.7639982 0.6452184 0
vn -0.7639919 0.6452259 0
vn -0.7324666 0 -0.6808029
vn -0.7324675 0 -0.680802
vn -0.7324278 0 -0.6808448
vn -0.732427 0 -0.6808456
vn 0 0.6724446 -0.7401475
vn 0 0.6724446 -0.7401475
vn 0 0.6724446 -0.7401475
vn 0 0.6724446 -0.7401475
vn 0 0.6724609 0.7401326
vn 0 0.6724619 0.7401318
vn 0 0.6724514 0.7401413
vn 0 0.6724504 0.7401422
vn 0 -0.6724628 0.740131
vn 0 -0.6724619 0.7401318
vn 0 -0.6724705 0.740124
vn 0 -0.6724712 0.7401233
vn 0 -0.6724464 -0.7401458
vn 0 -0.6724446 -0.7401475
vn 0 -0.6724637 -0.7401301
vn 0 -0.6724654 -0.7401285
vn 0 1 0
vn 0 1 0
vn 0 1 0
vn 0 1 0
vn 1 0 0
vn 1 0 0
vn 1 0 0
vn 1 0 0
vn 1 0 0
vn 1 0 0
vn -1 0 0
vn -1 0 0
vn -1 0 0
vn -1 0 0
vn 1 0 0
vn 1 0 0
vn 1 0 0
vn 1 0 0
vn -1 0 0
vn -1 0 0
vn -1 0 0
vn -1 0 0
vn 0 0 -1
vn 0 0 -1
vn 0 0 -1
vn 0 0 -1
vn 0 0 -1
vn 0 0 -1
vn 0 0 -1
vn 0 0 -1
vn 0 0 -1
vn 0 0 -1
vn 1.029213E-07 -1 4.849939E-06
vn -1.008287E-07 -1 0
vn 1.043082E-07 -1 4.915293E-06
vn 0 -1 0
vn -2.52327E-06 -1 2.661528E-06
vn 0 -1 5.345114E-06
vn 2.523188E-06 -1 2.477075E-06
vn 5.025668E-06 -1 4.933821E-06
vn 2.502513E-06 -1 2.456778E-06
vn 0 -1 0
vn -1 0 0
vn -1 0 0
vn -1 0 0
vn -1 0 0
vn 2.838733E-06 0 -1
vn 5.041989E-06 0 -1
vn 2.203307E-06 0 -1
vn 0 0 -1
vn -2.151353E-07 1 0
vn -2.151353E-07 1 0
vn -2.151353E-07 1 0
vn -2.151353E-07 1 0
vn 0 0 1
vn 1.046471E-07 0 1
vn 1.029598E-07 0 1
vn 0 0 1
vn -1 0 0
vn -1 0 0
vn -1 0 0
vn -1 0 0
vn 0 1 0
vn 0 1 0
vn 0 1 0
vn 0 1 0
vn 0 1 0
vn 0 1 0
vn 0 1 0
vn 0 1 0
vn -1 0 0
vn -1 0 0
vn -1 0 0
vn -1 0 0
vn -1 0 0
vn -1 0 0
vn -1 0 0
vn -1 0 0
vn 1 0 0
vn 1 0 0
vn 1 0 0
vn 1 0 0
vn 0 1 0
vn 0 1 0
vn 0 1 0
vn 0 1 0
vn 0 1 0
vn 0 1 0
vn 0 1 0
vn 0 1 0
vn 0 1 0
vn 0 1 0
vn 0 1 0
vn 0 1 0
vn 0 0 -1
vn 0 0 -1
vn 0 0 -1
vn 0 0 -1
vn 0 -6.352358E-06 1
vn 0 -6.351898E-06 1
vn 0 -6.351898E-06 1
vn 0 -6.352358E-06 1
vn 0 -6.352817E-06 1
vn 0 -6.352817E-06 1
vn 0 -1 0
vn 0 -1 0
vn 0 -1 0
vn 0 -1 0
vn 0 -1 0
vn 0 -1 0
vn 0 -1 0
vn 0 -1 0
vn 0 -1 0
vn 0 -1 0
vn 0 -1 0
vn 0 -1 0
vn 0 -6.354303E-06 1
vn 0 -6.354303E-06 1
vn 0 -6.354303E-06 1
vn 0 -6.354303E-06 1
vn 1 0 0
vn 1 0 0
vn 1 0 0
vn 1 0 0
vn 0 6.352817E-06 -1
vn 0 6.352817E-06 -1
vn 0 6.347089E-06 -1
vn 0 6.347089E-06 -1
vn 0 6.341361E-06 -1
vn 0 6.341361E-06 -1
vn 1 0 0
vn 1 0 0
vn 1 0 0
vn 1 0 0
vn -1 0 0
vn -1 0 0
vn -1 0 0
vn -1 0 0
vn -1 0 0
vn -1 0 0
vn -1 0 0
vn -1 0 0
vn 1 0 0
vn 1 0 0
vn 1 0 0
vn 1 0 0
vn 0 1 0
vn 0 1 0
vn 0 1 0
vn 0 1 0
vn 0 1 0
vn 0 1 0
vn 0 1 0
vn 0 1 0
vn 0 1 0
vn 0 1 0
vn 0 1 0
vn 0 1 0
vn 0 0 -1
vn 0 0 -1
vn 0 0 -1
vn 0 0 -1
vn 0 -6.352358E-06 1
vn 0 -6.351898E-06 1
vn 0 -6.351898E-06 1
vn 0 -6.352358E-06 1
vn 0 -6.352817E-06 1
vn 0 -6.352817E-06 1
vn 0 -1 0
vn 0 -1 0
vn 0 -1 0
vn 0 -1 0
vn 0 -1 0
vn 0 -1 0
vn 0 -1 0
vn 0 -1 0
vn 0 -1 0
vn 0 -1 0
vn 0 -1 0
vn 0 -1 0
vn 0 -6.354303E-06 1
vn 0 -6.354303E-06 1
vn 0 -6.354303E-06 1
vn 0 -6.354303E-06 1
vn 1 0 0
vn 1 0 0
vn 1 0 0
vn 1 0 0
vn 0 6.352817E-06 -1
vn 0 6.352817E-06 -1
vn 0 6.347089E-06 -1
vn 0 6.347089E-06 -1
vn 0 6.341361E-06 -1
vn 0 6.341361E-06 -1
vn 1 0 0
vn 1 0 0
vn 1 0 0
vn 1 0 0
vt 0.3890381 0.08918262
vt 0.3877245 0.08918262
vt 0.3890381 0.08786905
vt 0.3890381 0.08786905
vt 0.3877245 0.08918262
vt 0.3890381 0.08918262
vt 0.3890381 0.1084101
vt 0.3890381 0.1097237
vt 0.3877245 0.1084101
vt 0.3890381 0.1084101
vt 0.3877245 0.1084101
vt 0.3890381 0.1097237
vt 0.3929781 0.03015661
vt 0.3916645 0.03015661
vt 0.3929781 0.03147006
vt 0.3929781 0.9770063
vt 0.3929781 0.9756927
vt 0.3916645 0.9770063
vt 0.3929781 0.9756927
vt 0.3929781 0.9770063
vt 0.3916645 0.9770063
vt 0.3929781 0.03147006
vt 0.3916645 0.03015661
vt 0.3929781 0.03015661
vt 0.3890381 0.9730384
vt 0.3877245 0.9730384
vt 0.3877245 1.034124
vt 0.3890381 0.9730384
vt 0.3877245 1.034124
vt 0.3890381 1.034124
vt 0.4082656 0.1084101
vt 0.4082656 0.1097237
vt 0.3890381 0.1097237
vt 0.4082656 0.1084101
vt 0.3890381 0.1097237
vt 0.3890381 0.1084101
vt 0.4082656 0.03412437
vt 0.4095792 0.03226686
vt 0.4095792 -0.02510399
vt 0.4082656 0.03412437
vt 0.4095792 -0.02510399
vt 0.4082656 -0.02696157
vt 0.2307597 0.512753
vt 0.2257154 0.01275301
vt 0.3546963 1.488105
vt 0.2307597 0.512753
vt 0.3546963 1.488105
vt 0.364785 1.488105
vt 0.2354786 0.512753
vt 0.364785 1.488105
vt 0.3546963 1.488105
vt 0.2354786 0.512753
vt 0.3546963 1.488105
vt 0.2304343 0.01275301
vt 0.4804901 0.512753
vt 0.4754458 0.01275301
vt 0.8541572 1.488105
vt 0.4804901 0.512753
vt 0.8541572 1.488105
vt 0.8642459 1.488105
vt 0.4852091 0.512753
vt 0.8642459 1.488105
vt 0.8541572 1.488105
vt 0.4852091 0.512753
vt 0.8541572 1.488105
vt 0.4801648 0.01275301
vt 0.4082656 0.9730384
vt 0.3890381 0.9730384
vt 0.3890381 1.034124
vt 0.4082656 1.034124
vt 0.4082656 0.09315038
vt 0.3929781 0.09315038
vt 0.3929781 0.1044424
vt 0.4082656 0.1044424
vt 0.4082656 0.9770063
vt 0.3929781 0.9770063
vt 0.3929781 1.030157
vt 0.4082656 1.030157
vt 0.4082656 0.1084101
vt 0.4082656 0.08918262
vt 0.3890381 0.08918262
vt 0.3890381 0.1084101
vt 0.08918262 0.9730384
vt 0.1084101 0.9730384
vt 0.1084101 1.034124
vt 0.08918262 1.034124
vt 0.3890381 0.9730384
vt 0.4082656 0.9730384
vt 0.4082656 1.034124
vt 0.3890381 1.034124
vt 0.1044424 0.9770063
vt 0.09315038 0.9770063
vt 0.09315038 1.030157
vt 0.1044424 1.030157
vt 0.4082656 0.03015661
vt 0.3929781 0.03015661
vt 0.3929781 -0.02299374
vt 0.4082656 -0.02299374
vt 0.4082656 0.1044424
vt 0.3929781 0.1044424
vt 0.3929781 0.09315038
vt 0.4082656 0.09315038
vt 0.1052117 0.9743792
vt 0.1070694 0.9762368
vt 0.1084101 0.974896
vt 0.1065526 0.9730384
vt 0.09104013 0.9730384
vt 0.092381 0.9743792
vt 0.09052336 0.9762368
vt 0.08918262 0.974896
vt 0.08918262 1.032267
vt 0.09052336 1.030926
vt 0.1070694 0.03092599
vt 0.1084101 -0.02510399
vt 0.1070694 -0.02376318
vt 0.1084101 0.03226686
vt 0.1065526 0.03412437
vt 0.1052117 0.03278363
vt 0.092381 0.03278363
vt 0.09104013 0.03412437
vt 0.08918262 0.03226686
vt 0.09052336 0.03092599
vt 0.09315038 0.9756927
vt 0.092381 0.9743792
vt 0.09052336 0.9762368
vt 0.09183693 0.9770063
vt 0.09315038 0.03147006
vt 0.09183693 0.03015661
vt 0.09052336 0.03092599
vt 0.092381 0.03278363
vt 0.1057558 0.9770063
vt 0.1070694 0.9762368
vt 0.1052117 0.9743792
vt 0.1044424 0.9756927
vt 0.1057558 0.03015661
vt 0.1044424 0.03147006
vt 0.1052117 0.03278363
vt 0.1070694 0.03092599
vt 0.1084101 0.03543794
vt 0.1097237 0.03412437
vt 0.1084101 0.03226686
vt 0.1065526 0.03412437
vt 0.1084101 0.9717249
vt 0.1065526 0.9730384
vt 0.1084101 0.974896
vt 0.1097237 0.9730384
vt 0.09104013 0.9730384
vt 0.08918262 0.9717249
vt 0.08786905 0.9730384
vt 0.08918262 0.974896
vt 0.09104013 0.03412437
vt 0.08918262 0.03226686
vt 0.08786905 0.03412437
vt 0.08918262 0.03543794
vt 0.3890381 0.1084101
vt 0.3877245 0.1084101
vt 0.3877245 0.08918262
vt 0.3890381 0.08918262
vt 0.3890381 0.08918262
vt 0.3877245 0.08918262
vt 0.3877245 0.1084101
vt 0.3890381 0.1084101
vt 0.3890381 0.03412437
vt 0.3877245 0.03412437
vt 0.3877245 -0.02696157
vt 0.3890381 -0.02696157
vt 0.3890381 0.1084101
vt 0.3890381 0.1097237
vt 0.4082656 0.1097237
vt 0.4082656 0.1084101
vt 0.4095792 0.03226686
vt 0.4082656 0.03412437
vt 0.4082656 -0.02696157
vt 0.4095792 -0.02510399
vt 0.4082656 0.08918262
vt 0.4095792 0.09104013
vt 0.4095792 0.1065526
vt 0.4082656 0.1084101
vt 0.4082656 0.1084101
vt 0.4095792 0.1065526
vt 0.4095792 0.09104013
vt 0.4082656 0.08918262
vt 0.3890381 0.08918262
vt 0.3890381 0.08786905
vt 0.4082656 0.08786905
vt 0.4082656 0.08918262
vt 0.4082656 0.08918262
vt 0.4082656 0.08786905
vt 0.3890381 0.08786905
vt 0.3890381 0.08918262
vt 0.4082656 0.03015661
vt 0.4095792 0.03092599
vt 0.4095792 -0.02376318
vt 0.4082656 -0.02299374
vt 0.4095792 0.092381
vt 0.4082656 0.09315038
vt 0.4082656 0.1044424
vt 0.4095792 0.1052117
vt 0.4095792 0.1052117
vt 0.4082656 0.1044424
vt 0.4082656 0.09315038
vt 0.4095792 0.092381
vt 0.4095792 0.03092599
vt 0.4082656 0.03015661
vt 0.4082656 -0.02299374
vt 0.4095792 -0.02376318
vt 0.3916645 0.03015661
vt 0.3929781 0.03015661
vt 0.3929781 -0.02299374
vt 0.3916645 -0.02299374
vt 0.09315038 0.9756927
vt 0.09315038 0.9770063
vt 0.1044424 0.9770063
vt 0.1044424 0.9756927
vt 0.1044424 0.03147006
vt 0.1044424 0.03015661
vt 0.09315038 0.03015661
vt 0.09315038 0.03147006
vt 0.3929781 0.03015661
vt 0.3916645 0.03015661
vt 0.3916645 -0.02299374
vt 0.3929781 -0.02299374
vt 0.4082656 0.03015661
vt 0.4082656 0.03147006
vt 0.3929781 0.03147006
vt 0.3929781 0.03015661
vt 0.3929781 0.03015661
vt 0.3929781 0.03147006
vt 0.4082656 0.03147006
vt 0.4082656 0.03015661
vt 0.3929781 0.9756927
vt 0.3929781 0.9770063
vt 0.4082656 0.9770063
vt 0.4082656 0.9756927
vt 0.4082656 0.9756927
vt 0.4082656 0.9770063
vt 0.3929781 0.9770063
vt 0.3929781 0.9756927
vt 0.3890381 0.1084101
vt 0.3890381 0.08918262
vt 0.4082656 0.08918262
vt 0.4082656 0.1084101
vt 0.0967344 0.4881053
vt 0.2257154 0.01275301
vt 0.2304343 0.01275301
vt 0.1061723 0.4881053
vt 0.0967344 0.4985049
vt 0.1061723 0.4985049
vt 0.2307597 0.512753
vt 0.0967344 1.488105
vt 0.1061723 1.488105
vt 0.2354786 0.512753
vt 0.0967344 0.4881053
vt 0.4754458 0.01275301
vt 0.4801648 0.01275301
vt 0.1061723 0.4881053
vt 0.4804901 0.512753
vt 0.0967344 1.488105
vt 0.1061723 1.488105
vt 0.4852091 0.512753
vt 0.8541572 0.4985049
vt 0.364785 0.4881053
vt 0.8541572 0.4881053
vt 0.364785 0.4985049
vt 0.3546963 0.4985049
vt 0.3546963 0.4881053
vt 0.8642459 0.4985049
vt 0.8541572 0.4985049
vt 0.8541572 0.4881053
vt 0.8642459 0.4881053
vt 0.8541572 0.0967344
vt 0.364785 0.1061723
vt 0.8541572 0.1061723
vt 0.364785 0.0967344
vt 0.3546963 0.1061723
vt 0.3546963 0.0967344
vt 0.8642459 0.0967344
vt 0.8541572 0.0967344
vt 0.8541572 0.1061723
vt 0.8642459 0.1061723
vt 0.1061723 0.4881053
vt 0.0967344 0.4881053
vt 0.0967344 0.4985049
vt 0.1061723 0.4985049
vt 0.8541572 0.4881053
vt 0.8642459 0.4881053
vt 0.8642459 0.4985049
vt 0.8541572 0.4985049
vt 0.8541572 0.1061723
vt 0.364785 0.1061723
vt 0.364785 0.0967344
vt 0.8541572 0.0967344
vt 0.8541572 0.4881053
vt 0.364785 0.4881053
vt 0.364785 0.4985049
vt 0.8541572 0.4985049
vt 0.1061723 0.4881053
vt 0.0967344 0.4881053
vt 0.0967344 0.4985049
vt 0.1061723 0.4985049
vt 0.4804901 0.512753
vt 0.4852091 0.512753
vt 0.4801648 0.01275301
vt 0.4754458 0.01275301
vt 0.2307597 0.512753
vt 0.2354786 0.512753
vt 0.2304343 0.01275301
vt 0.2257154 0.01275301
vt 0.2744406 0.7142861
vt 0.260583 0.857143
vt 0.2605829 0.7142861
vt 0.2744407 0.857143
vt 0.303774 0.7142861
vt 0.3037743 0.857143
vt 0.3178447 0.7142861
vt 0.3178447 0.857143
vt 0.3914154 0.8571426
vt 0.4052731 0.8571426
vt 0.4052731 0.9999998
vt 0.3914152 0.9999999
vt 0.5204123 0.8319399
vt 0.53427 0.8959767
vt 0.5204123 0.8959767
vt 0.53427 0.8319399
vt 0.5204123 0.8051317
vt 0.53427 0.8051317
vt 0.5636034 0.8051317
vt 0.5636034 0.8319399
vt 0.5776742 0.8051317
vt 0.5776742 0.8319399
vt 0.5776742 0.8958201
vt 0.5636034 0.8958201
vt 0.3914152 0.7142853
vt 0.3914152 0.5714282
vt 0.4557563 0.5714282
vt 0.4557563 0.7142853
vt 0.1556196 0
vt 0.09127791 0.1428573
vt 0.09127791 0
vt 0.1556196 0.1428573
vt 0.1825552 0
vt 0.1825552 0.1428573
vt 0.8685954 0.5314417
vt 0.8547377 0.467405
vt 0.8685954 0.467405
vt 0.8547377 0.5314417
vt 0.8685954 0.55825
vt 0.8547377 0.55825
vt 0.8979288 0.5314417
vt 0.8979288 0.55825
vt 0.9119995 0.5314417
vt 0.9119995 0.55825
vt 0.8979288 0.4675615
vt 0.9119995 0.4675615
vt 0.7400566 0.5714294
vt 0.7400566 0.7142867
vt 0.6758729 0.7142867
vt 0.6758729 0.5714294
vt 1 0.3245477
vt 1 0.4674046
vt 0.9706666 0.4674047
vt 0.9706666 0.3245477
vt 0.3651091 0.1428576
vt 0.3651097 7.441287E-08
vt 0.3920454 7.441287E-08
vt 0.3920454 0.1428576
vt 0.4562285 7.441287E-08
vt 0.4562285 0.1428576
vt 0.9915021 0.5714294
vt 0.9915018 0.7142866
vt 0.9774312 0.7142866
vt 0.9774312 0.5714294
vt 0.2744406 0.7142861
vt 0.260583 0.857143
vt 0.2605829 0.7142861
vt 0.2744407 0.857143
vt 0.303774 0.7142861
vt 0.3037743 0.857143
vt 0.3178447 0.7142861
vt 0.3178447 0.857143
vt 0.3914154 0.8571426
vt 0.4052731 0.8571426
vt 0.4052731 0.9999998
vt 0.3914152 0.9999999
vt 0.5204123 0.8319399
vt 0.53427 0.8959767
vt 0.5204123 0.8959767
vt 0.53427 0.8319399
vt 0.5204123 0.8051317
vt 0.53427 0.8051317
vt 0.5636034 0.8051317
vt 0.5636034 0.8319399
vt 0.5776742 0.8051317
vt 0.5776742 0.8319399
vt 0.5776742 0.8958201
vt 0.5636034 0.8958201
vt 0.3914152 0.7142853
vt 0.3914152 0.5714282
vt 0.4557563 0.5714282
vt 0.4557563 0.7142853
vt 0.1556196 0
vt 0.09127791 0.1428573
vt 0.09127791 0
vt 0.1556196 0.1428573
vt 0.1825552 0
vt 0.1825552 0.1428573
vt 0.8685954 0.5314417
vt 0.8547377 0.467405
vt 0.8685954 0.467405
vt 0.8547377 0.5314417
vt 0.8685954 0.55825
vt 0.8547377 0.55825
vt 0.8979288 0.5314417
vt 0.8979288 0.55825
vt 0.9119995 0.5314417
vt 0.9119995 0.55825
vt 0.8979288 0.4675615
vt 0.9119995 0.4675615
vt 0.7400566 0.5714294
vt 0.7400566 0.7142867
vt 0.6758729 0.7142867
vt 0.6758729 0.5714294
vt 1 0.3245477
vt 1 0.4674046
vt 0.9706666 0.4674047
vt 0.9706666 0.3245477
vt 0.3651091 0.1428576
vt 0.3651097 7.441287E-08
vt 0.3920454 7.441287E-08
vt 0.3920454 0.1428576
vt 0.4562285 7.441287E-08
vt 0.4562285 0.1428576
vt 0.9915021 0.5714294
vt 0.9915018 0.7142866
vt 0.9774312 0.7142866
vt 0.9774312 0.5714294
usemtl HammeredMetal_AlbedoTransparency
f 3/3/3 2/2/2 1/1/1
f 6/6/6 5/5/5 4/4/4
f 9/9/9 8/8/8 7/7/7
f 12/12/12 11/11/11 10/10/10
f 15/15/15 14/14/14 13/13/13
f 18/18/18 17/17/17 16/16/16
f 21/21/21 20/20/20 19/19/19
f 24/24/24 23/23/23 22/22/22
f 27/27/27 26/26/26 25/25/25
f 30/30/30 29/29/29 28/28/28
f 33/33/33 32/32/32 31/31/31
f 36/36/36 35/35/35 34/34/34
f 39/39/39 38/38/38 37/37/37
f 42/42/42 41/41/41 40/40/40
f 45/45/45 44/44/44 43/43/43
f 48/48/48 47/47/47 46/46/46
f 51/51/51 50/50/50 49/49/49
f 54/54/54 53/53/53 52/52/52
f 57/57/57 56/56/56 55/55/55
f 60/60/60 59/59/59 58/58/58
f 63/63/63 62/62/62 61/61/61
f 66/66/66 65/65/65 64/64/64
f 69/69/69 68/68/68 67/67/67
f 70/70/70 69/69/69 67/67/67
f 73/73/73 72/72/72 71/71/71
f 74/74/74 73/73/73 71/71/71
f 77/77/77 76/76/76 75/75/75
f 78/78/78 77/77/77 75/75/75
f 81/81/81 80/80/80 79/79/79
f 82/82/82 81/81/81 79/79/79
f 85/85/85 84/84/84 83/83/83
f 86/86/86 85/85/85 83/83/83
f 89/89/89 88/88/88 87/87/87
f 90/90/90 89/89/89 87/87/87
f 93/93/93 92/92/92 91/91/91
f 94/94/94 93/93/93 91/91/91
f 97/97/97 96/96/96 95/95/95
f 98/98/98 97/97/97 95/95/95
f 101/101/101 100/100/100 99/99/99
f 102/102/102 101/101/101 99/99/99
f 105/105/105 104/104/104 103/103/103
f 106/106/106 105/105/105 103/103/103
f 107/107/107 106/106/106 103/103/103
f 108/108/108 107/107/107 103/103/103
f 107/107/107 108/108/108 109/109/109
f 110/110/110 107/107/107 109/109/109
f 111/111/111 110/110/110 109/109/109
f 112/112/112 111/111/111 109/109/109
f 115/115/115 114/114/114 113/113/113
f 114/114/114 116/116/116 113/113/113
f 113/113/113 116/116/116 117/117/117
f 118/118/118 113/113/113 117/117/117
f 118/118/118 117/117/117 119/119/119
f 117/117/117 120/120/120 119/119/119
f 119/119/119 120/120/120 121/121/121
f 122/122/122 119/119/119 121/121/121
f 125/125/125 124/124/124 123/123/123
f 126/126/126 125/125/125 123/123/123
f 129/129/129 128/128/128 127/127/127
f 130/130/130 129/129/129 127/127/127
f 133/133/133 132/132/132 131/131/131
f 134/134/134 133/133/133 131/131/131
f 137/137/137 136/136/136 135/135/135
f 138/138/138 137/137/137 135/135/135
f 141/141/141 140/140/140 139/139/139
f 142/142/142 141/141/141 139/139/139
f 145/145/145 144/144/144 143/143/143
f 146/146/146 145/145/145 143/143/143
f 149/149/149 148/148/148 147/147/147
f 150/150/150 149/149/149 147/147/147
f 153/153/153 152/152/152 151/151/151
f 154/154/154 153/153/153 151/151/151
f 157/157/157 156/156/156 155/155/155
f 158/158/158 157/157/157 155/155/155
f 161/161/161 160/160/160 159/159/159
f 162/162/162 161/161/161 159/159/159
f 165/165/165 164/164/164 163/163/163
f 166/166/166 165/165/165 163/163/163
f 169/169/169 168/168/168 167/167/167
f 170/170/170 169/169/169 167/167/167
f 173/173/173 172/172/172 171/171/171
f 174/174/174 173/173/173 171/171/171
f 177/177/177 176/176/176 175/175/175
f 178/178/178 177/177/177 175/175/175
f 181/181/181 180/180/180 179/179/179
f 182/182/182 181/181/181 179/179/179
f 185/185/185 184/184/184 183/183/183
f 186/186/186 185/185/185 183/183/183
f 189/189/189 188/188/188 187/187/187
f 190/190/190 189/189/189 187/187/187
f 193/193/193 192/192/192 191/191/191
f 194/194/194 193/193/193 191/191/191
f 197/197/197 196/196/196 195/195/195
f 198/198/198 197/197/197 195/195/195
f 201/201/201 200/200/200 199/199/199
f 202/202/202 201/201/201 199/199/199
f 205/205/205 204/204/204 203/203/203
f 206/206/206 205/205/205 203/203/203
f 209/209/209 208/208/208 207/207/207
f 210/210/210 209/209/209 207/207/207
f 213/213/213 212/212/212 211/211/211
f 214/214/214 213/213/213 211/211/211
f 217/217/217 216/216/216 215/215/215
f 218/218/218 217/217/217 215/215/215
f 221/221/221 220/220/220 219/219/219
f 222/222/222 221/221/221 219/219/219
f 225/225/225 224/224/224 223/223/223
f 226/226/226 225/225/225 223/223/223
f 229/229/229 228/228/228 227/227/227
f 230/230/230 229/229/229 227/227/227
f 233/233/233 232/232/232 231/231/231
f 234/234/234 233/233/233 231/231/231
f 237/237/237 236/236/236 235/235/235
f 238/238/238 237/237/237 235/235/235
f 241/241/241 240/240/240 239/239/239
f 242/242/242 241/241/241 239/239/239
f 245/245/245 244/244/244 243/243/243
f 246/246/246 245/245/245 243/243/243
f 243/243/243 247/247/247 246/246/246
f 247/247/247 248/248/248 246/246/246
f 251/251/251 250/250/250 249/249/249
f 252/252/252 251/251/251 249/249/249
f 255/255/255 254/254/254 253/253/253
f 256/256/256 255/255/255 253/253/253
f 259/259/259 258/258/258 257/257/257
f 260/260/260 259/259/259 257/257/257
f 263/263/263 262/262/262 261/261/261
f 262/262/262 264/264/264 261/261/261
f 265/265/265 264/264/264 262/262/262
f 266/266/266 265/265/265 262/262/262
f 269/269/269 268/268/268 267/267/267
f 270/270/270 269/269/269 267/267/267
f 273/273/273 272/272/272 271/271/271
f 272/272/272 274/274/274 271/271/271
f 272/272/272 275/275/275 274/274/274
f 275/275/275 276/276/276 274/274/274
f 279/279/279 278/278/278 277/277/277
f 280/280/280 279/279/279 277/277/277
f 283/283/283 282/282/282 281/281/281
f 284/284/284 283/283/283 281/281/281
f 287/287/287 286/286/286 285/285/285
f 288/288/288 287/287/287 285/285/285
f 291/291/291 290/290/290 289/289/289
f 292/292/292 291/291/291 289/289/289
f 295/295/295 294/294/294 293/293/293
f 296/296/296 295/295/295 293/293/293
f 299/299/299 298/298/298 297/297/297
f 300/300/300 299/299/299 297/297/297
f 303/303/303 302/302/302 301/301/301
f 304/304/304 303/303/303 301/301/301
f 307/307/307 306/306/306 305/305/305
f 308/308/308 307/307/307 305/305/305
f 311/311/311 310/310/310 309/309/309
f 310/310/310 312/312/312 309/309/309
f 313/313/313 309/309/309 312/312/312
f 314/314/314 313/313/313 312/312/312
f 315/315/315 313/313/313 314/314/314
f 316/316/316 315/315/315 314/314/314
f 319/319/319 318/318/318 317/317/317
f 320/320/320 319/319/319 317/317/317
f 323/323/323 322/322/322 321/321/321
f 322/322/322 324/324/324 321/321/321
f 321/321/321 324/324/324 325/325/325
f 324/324/324 326/326/326 325/325/325
f 327/327/327 326/326/326 324/324/324
f 328/328/328 327/327/327 324/324/324
f 329/329/329 327/327/327 328/328/328
f 330/330/330 329/329/329 328/328/328
f 331/331/331 330/330/330 328/328/328
f 332/332/332 331/331/331 328/328/328
f 335/335/335 334/334/334 333/333/333
f 336/336/336 335/335/335 333/333/333
f 339/339/339 338/338/338 337/337/337
f 338/338/338 340/340/340 337/337/337
f 337/337/337 340/340/340 341/341/341
f 340/340/340 342/342/342 341/341/341
f 345/345/345 344/344/344 343/343/343
f 344/344/344 346/346/346 343/343/343
f 343/343/343 346/346/346 347/347/347
f 346/346/346 348/348/348 347/347/347
f 349/349/349 343/343/343 347/347/347
f 350/350/350 349/349/349 347/347/347
f 351/351/351 349/349/349 350/350/350
f 352/352/352 351/351/351 350/350/350
f 353/353/353 349/349/349 351/351/351
f 354/354/354 353/353/353 351/351/351
f 357/357/357 356/356/356 355/355/355
f 358/358/358 357/357/357 355/355/355
f 361/361/361 360/360/360 359/359/359
f 362/362/362 361/361/361 359/359/359
f 365/365/365 364/364/364 363/363/363
f 366/366/366 365/365/365 363/363/363
f 367/367/367 365/365/365 366/366/366
f 368/368/368 367/367/367 366/366/366
f 371/371/371 370/370/370 369/369/369
f 372/372/372 371/371/371 369/369/369
f 375/375/375 374/374/374 373/373/373
f 374/374/374 376/376/376 373/373/373
f 377/377/377 373/373/373 376/376/376
f 378/378/378 377/377/377 376/376/376
f 379/379/379 377/377/377 378/378/378
f 380/380/380 379/379/379 378/378/378
f 383/383/383 382/382/382 381/381/381
f 384/384/384 383/383/383 381/381/381
f 387/387/387 386/386/386 385/385/385
f 386/386/386 388/388/388 385/385/385
f 385/385/385 388/388/388 389/389/389
f 388/388/388 390/390/390 389/389/389
f 391/391/391 390/390/390 388/388/388
f 392/392/392 391/391/391 388/388/388
f 393/393/393 391/391/391 392/392/392
f 394/394/394 393/393/393 392/392/392
f 395/395/395 394/394/394 392/392/392
f 396/396/396 395/395/395 392/392/392
f 399/399/399 398/398/398 397/397/397
f 400/400/400 399/399/399 397/397/397
f 403/403/403 402/402/402 401/401/401
f 402/402/402 404/404/404 401/401/401
f 401/401/401 404/404/404 405/405/405
f 404/404/404 406/406/406 405/405/405
f 409/409/409 408/408/408 407/407/407
f 408/408/408 410/410/410 407/407/407
f 407/407/407 410/410/410 411/411/411
f 410/410/410 412/412/412 411/411/411
f 413/413/413 407/407/407 411/411/411
f 414/414/414 413/413/413 411/411/411
f 415/415/415 413/413/413 414/414/414
f 416/416/416 415/415/415 414/414/414
f 417/417/417 413/413/413 415/415/415
f 418/418/418 417/417/417 415/415/415
f 421/421/421 420/420/420 419/419/419
f 422/422/422 421/421/421 419/419/419
f 425/425/425 424/424/424 423/423/423
f 426/426/426 425/425/425 423/423/423
f 429/429/429 428/428/428 427/427/427
f 430/430/430 429/429/429 427/427/427
f 431/431/431 429/429/429 430/430/430
f 432/432/432 431/431/431 430/430/430
f 435/435/435 434/434/434 433/433/433
f 436/436/436 435/435/435 433/433/433
g FP424:polySurface375_f84c86ab
v 2.38939 1.98666 1.16968
v 1.64171 1.98666 1.16968
v 1.64171 0.05547 1.16968
v 2.38939 0.05547 1.16968
v 2.38939 1.98666 1.17777
v 2.38939 0.05547 1.17777
v 1.64171 0.05547 1.17777
v 1.64171 1.98666 1.17777
v 1.64171 1.98666 1.16968
v 1.64171 1.98666 1.17777
v 1.64171 0.05547 1.17777
v 1.64171 0.05547 1.16968
v 2.38939 1.98666 1.16968
v 2.38939 1.98666 1.17777
v 1.64171 1.98666 1.17777
v 1.64171 1.98666 1.16968
v 1.64171 0.05547 1.16968
v 1.64171 0.05547 1.17777
v 2.38939 0.05547 1.17777
v 2.38939 0.05547 1.16968
v 2.38939 0.05547 1.16968
v 2.38939 0.05547 1.17777
v 2.38939 1.98666 1.17777
v 2.38939 1.98666 1.16968
vn 0 0 -1
vn 0 0 -1
vn 0 0 -1
vn 0 0 -1
vn 0 0 1
vn 0 0 1
vn 0 0 1
vn 0 0 1
vn -1 0 0
vn -1 0 0
vn -1 0 0
vn -1 0 0
vn 0 1 0
vn 0 1 0
vn 0 1 0
vn 0 1 0
vn 0 -1 0
vn 0 -1 0
vn 0 -1 0
vn 0 -1 0
vn 1 0 0
vn 1 0 0
vn 1 0 0
vn 1 0 0
vt -0.024593 1.06578
vt 0.4134983 1.06578
vt 0.4134983 -0.06577998
vt -0.02459306 -0.06577998
vt 0.8063507 1.06578
vt 0.8063507 -0.06578016
vt 0.3682594 -0.06578016
vt 0.3682594 1.06578
vt 0.7868827 1.065782
vt 0.7916257 1.065782
vt 0.7916257 -0.06578219
vt 0.7868827 -0.06578219
vt 0.8136445 -0.02424498
vt 0.8089015 -0.02424498
vt 0.8089015 0.4138435
vt 0.8136445 0.4138435
vt 0.8199109 0.4138455
vt 0.8246539 0.4138455
vt 0.8246539 -0.02424693
vt 0.8199109 -0.02424693
vt 0.802635 -0.06578118
vt 0.797892 -0.06578118
vt 0.797892 1.065781
vt 0.802635 1.065781
usemtl Glass_White_Mat
f 439/439/439 438/438/438 437/437/437
f 440/440/440 439/439/439 437/437/437
f 443/443/443 442/442/442 441/441/441
f 444/444/444 443/443/443 441/441/441
f 447/447/447 446/446/446 445/445/445
f 448/448/448 447/447/447 445/445/445
f 451/451/451 450/450/450 449/449/449
f 452/452/452 451/451/451 449/449/449
f 455/455/455 454/454/454 453/453/453
f 456/456/456 455/455/455 453/453/453
f 459/459/459 458/458/458 457/457/457
f 460/460/460 459/459/459 457/457/457
