mtllib Potato_22.mtl
v -0.02319279 0.02012559 -0.01917584
v -0.02350602 0.01187387 -0.03585485
v -0.01992174 0.01837215 -0.03118824
v -0.03079537 0.01178024 -0.02106226
v -0.03369304 0.01157987 -0.003748382
v -0.03679034 0.00257287 -0.004137486
v -0.02508488 0.02057451 -0.004036154
v -0.03477569 0.002643903 -0.01781572
v -0.02493487 0.00315376 -0.03824009
v -0.03337704 0.01147131 0.01009656
v -0.0251649 0.02051012 0.008394698
v -0.02343359 0.01997224 0.01761884
v -0.03266506 -0.004973114 -0.02114704
v -0.02372211 -0.004729989 -0.03762078
v -0.03054918 0.01137931 0.02034366
v -0.01974655 0.01944875 0.02454139
v -0.0257404 0.0112557 0.02804362
v -0.03613392 0.002530225 0.01098679
v -0.03511482 -0.00516588 0.01060844
v -0.03289116 0.002505643 0.02153816
v -0.02720195 0.002612331 0.02980311
v -0.03190312 -0.004993471 0.02082139
v -0.02633833 -0.005094827 0.02903299
v -0.02447014 -0.011301 0.02723304
v -0.02902678 -0.01166456 0.01970936
v -0.02092332 -0.01691112 0.02561549
v -0.02474197 -0.01758322 0.01846937
v -0.02664501 -0.01854507 0.009391502
v -0.03206907 -0.01194372 0.009919784
v -0.02702482 -0.01900668 -0.003164466
v -0.03616507 -0.00522622 -0.003234567
v -0.03307227 -0.01222022 -0.003042793
v -0.02919175 -0.01191864 -0.0202361
v -0.02406157 -0.0182346 -0.0191405
v -0.02136497 -0.01129122 -0.03560875
v -0.01719684 -0.01717007 -0.03364421
v 0.02587009 -0.01786144 0.01812939
v 0.0166143 -0.02163006 0.02338749
v 0.02128094 -0.01707698 0.02501821
v 0.01882754 -0.02344303 0.01718898
v 0.02824097 -0.01885409 0.009250837
v 0.02013851 -0.02488929 0.008587736
v 0.02851941 -0.01892513 -0.003409663
v 0.008901718 -0.02473669 0.02358018
v 0.009935471 -0.02713791 0.0166281
v 0.008349961 -0.02149329 0.02887609
v 0.01359726 -0.02015363 0.02770697
v 0.0003252258 -0.02576014 0.02393317
v 0.0003297272 -0.02208903 0.02998861
v -0.008272066 -0.02446407 0.02406438
v -0.008069932 -0.02123475 0.02959599
v -0.01337183 -0.01990995 0.02850643
v -0.01605737 -0.02124107 0.02412134
v 0.0005264892 -0.0282067 0.01653977
v 0.01068434 -0.02864485 0.008081994
v -0.008950363 -0.0265239 0.01688966
v 0.02019022 -0.02508814 -0.003570599
v 0.0006862106 -0.0296469 0.008018145
v -0.01777979 -0.02280788 0.01754556
v -0.02092332 -0.01691112 0.02561549
v -0.02474197 -0.01758322 0.01846937
v -0.009223533 -0.02774121 0.008232345
v -0.01863121 -0.02401197 0.008788323
v -0.02664501 -0.01854507 0.009391502
v 0.01083167 -0.0290763 -0.003629495
v 0.01830243 -0.02340259 -0.01885958
v 0.02521714 -0.01791907 -0.01932063
v 0.0007670278 -0.03032182 -0.003618616
v -0.01862178 -0.02470227 -0.003337662
v -0.02702482 -0.01900668 -0.003164466
v -0.02406157 -0.0182346 -0.0191405
v -0.009284209 -0.0285389 -0.003483248
v -0.01694711 -0.02373363 -0.01871923
v -0.01719684 -0.01717007 -0.03364421
v 0.009742188 -0.02728087 -0.01895996
v 0.01538721 -0.02134117 -0.02995239
v 0.01843264 -0.01678114 -0.03414071
v 0.008752113 -0.02294076 -0.0330122
v 0.00966008 -0.01721823 -0.04143864
v 6.504822E-05 -0.01774672 -0.04337464
v 0.0004073181 -0.02371096 -0.03382699
v -0.009240142 -0.01732975 -0.04090977
v 0.000744728 -0.02865482 -0.01871072
v -0.01417285 -0.02148302 -0.02958987
v -0.007441422 -0.02300118 -0.0326595
v -0.00835473 -0.02738811 -0.01880449
v 0.01359726 -0.02015363 0.02770697
v 0.02128094 -0.01707698 0.02501821
v 0.0166143 -0.02163006 0.02338749
v 0.01607246 -0.01652074 0.02962013
v 0.008526703 -0.01706017 0.03289196
v 0.008349961 -0.02149329 0.02887609
v 0.0171234 -0.01134774 0.03194809
v 0.02445934 -0.01115969 0.02655431
v 0.0001613617 -0.01725556 0.03437539
v 0.0003297272 -0.02208903 0.02998861
v -0.008069932 -0.02123475 0.02959599
v 0.009100097 -0.01151605 0.03546334
v 0.01762221 -0.004792393 0.03344973
v 0.02522198 -0.004594169 0.02794031
v 5.427552E-05 -0.0116105 0.03706488
v 0.009251984 -0.004931548 0.03710951
v 0.01745186 0.003179143 0.03399701
v 0.02465366 0.00317952 0.0281627
v 0.009152435 0.0030803 0.03772581
v 0.01562811 0.01204114 0.03193195
v -0.0001349792 -0.005016526 0.03868941
v -0.0004105072 0.002901096 0.03935191
v 0.008112915 0.01205014 0.03547699
v 0.006410203 0.01956279 0.0293503
v 0.01319736 0.01757967 0.02823893
v -0.001025009 0.01194193 0.03711194
v -0.001578644 0.01985114 0.03062337
v -0.01058067 0.00277255 0.03823181
v -0.01035808 0.0117848 0.03630245
v -0.009943939 0.01940869 0.03034232
v -0.01000023 -0.005070878 0.03765925
v -0.01884782 0.01157742 0.03333447
v -0.01718166 0.01716444 0.02982532
v -0.01974655 0.01944875 0.02454139
v -0.0257404 0.0112557 0.02804362
v -0.02720195 0.002612331 0.02980311
v -0.01956425 0.002705999 0.03516454
v -0.01887058 -0.005121923 0.03443667
v -0.02633833 -0.005094827 0.02903299
v -0.009292207 -0.01155834 0.03618858
v -0.01768292 -0.01141916 0.0328102
v -0.02447014 -0.011301 0.02723304
v -0.008309417 -0.01697763 0.03359479
v -0.01608423 -0.01632115 0.03055006
v -0.02092332 -0.01691112 0.02561549
v -0.01337183 -0.01990995 0.02850643
v -0.01605737 -0.02124107 0.02412134
v 0.01948019 0.0216633 -0.01792139
v 0.01555484 0.01925194 -0.02903369
v 0.02000603 0.01243727 -0.03352944
v 0.02828567 0.01299488 -0.01976397
v 0.02303224 0.003817166 -0.0367142
v 0.03155454 0.01276401 -0.00357631
v 0.02157145 0.02243286 -0.003877418
v 0.03401753 0.003439195 -0.01710183
v 0.02350961 -0.004175495 -0.03747491
v 0.03296551 -0.004289689 -0.02099557
v 0.0220172 -0.01093524 -0.03608473
v 0.0300135 0.01239632 0.008916459
v 0.02078835 0.02168728 0.007372308
v 0.03648385 0.003177879 -0.003478304
v 0.0302744 -0.01144231 -0.0203908
v 0.01843264 -0.01678114 -0.03414071
v 0.02521714 -0.01791907 -0.01932063
v 0.03681347 -0.004519496 -0.003411251
v 0.03417126 -0.01177932 -0.003222045
v 0.02851941 -0.01892513 -0.003409663
v 0.02824097 -0.01885409 0.009250837
v 0.03352037 -0.0117365 0.009693676
v 0.02587009 -0.01786144 0.01812939
v 0.03561839 0.003246602 0.007846827
v 0.03579083 -0.004565148 0.01031181
v 0.02991443 -0.01150158 0.0194923
v 0.02128094 -0.01707698 0.02501821
v 0.02445934 -0.01115969 0.02655431
v 0.02522198 -0.004594169 0.02794031
v 0.03177345 -0.00447231 0.02019015
v 0.02465366 0.00317952 0.0281627
v 0.03086165 0.003169307 0.02008169
v 0.02660346 0.0120539 0.01841901
v 0.01874642 0.02062135 0.01597651
v 0.02208884 0.01181313 0.02612973
v 0.01512106 0.01988914 0.02293686
v 0.01562811 0.01204114 0.03193195
v 0.01745186 0.003179143 0.03399701
v 0.01319736 0.01757967 0.02823893
v 0.007527634 0.02119928 -0.03244212
v 0.02000603 0.01243727 -0.03352944
v 0.01555484 0.01925194 -0.02903369
v 0.008849409 0.01294575 -0.04149371
v -0.002587105 0.02204187 -0.03437128
v 0.01080943 0.003861236 -0.04623612
v 0.02303224 0.003817166 -0.0367142
v -0.00213768 0.01298498 -0.04496362
v -0.01216133 0.02082156 -0.03386401
v -0.001634552 0.003772479 -0.05019047
v 0.01133963 -0.004122528 -0.04759476
v 0.02350961 -0.004175495 -0.03747491
v -0.01309283 0.01275969 -0.04337018
v -0.02350602 0.01187387 -0.03585485
v -0.01992174 0.01837215 -0.03118824
v -0.02493487 0.00315376 -0.03824009
v -0.01373389 0.003547003 -0.04750288
v -0.02372211 -0.004729989 -0.03762078
v -0.01280958 -0.004522822 -0.04775896
v -0.02136497 -0.01129122 -0.03560875
v -0.001072495 -0.004251843 -0.05134032
v -0.01119302 -0.01123135 -0.04562146
v -0.01719684 -0.01717007 -0.03364421
v -0.009240142 -0.01732975 -0.04090977
v -0.0004760284 -0.01117824 -0.04915075
v 6.504822E-05 -0.01774672 -0.04337464
v 0.01074954 -0.01098887 -0.04601864
v 0.00966008 -0.01721823 -0.04143864
v 0.0220172 -0.01093524 -0.03608473
v 0.01843264 -0.01678114 -0.03414071
v -0.02508488 0.02057451 -0.004036154
v -0.02319279 0.02012559 -0.01917584
v -0.01305106 0.02558338 -0.0194094
v -0.01992174 0.01837215 -0.03118824
v -0.01216133 0.02082156 -0.03386401
v -0.002587105 0.02204187 -0.03437128
v -0.002374104 0.02792647 -0.01965311
v 0.007527634 0.02119928 -0.03244212
v -0.01377094 0.02683933 -0.004389217
v 0.008382881 0.02686295 -0.01869031
v 0.01555484 0.01925194 -0.02903369
v 0.01948019 0.0216633 -0.01792139
v -0.002296229 0.02985996 -0.004477984
v 0.009383145 0.02860553 -0.004268359
v 0.02157145 0.02243286 -0.003877418
v 0.02078835 0.02168728 0.007372308
v 0.008921055 0.02760236 0.006498469
v 0.01874642 0.02062135 0.01597651
v -0.01349615 0.02667726 0.007063051
v -0.0251649 0.02051012 0.008394698
v -0.002262775 0.02901572 0.006461824
v 0.00803704 0.02602808 0.01467477
v 0.01512106 0.01988914 0.02293686
v -0.01276757 0.02564255 0.01560566
v -0.02343359 0.01997224 0.01761884
v -0.0022509 0.02743615 0.01471537
v 0.007263809 0.02351898 0.0223281
v 0.01319736 0.01757967 0.02823893
v 0.006410203 0.01956279 0.0293503
v -0.001578644 0.01985114 0.03062337
v -0.001999802 0.02472247 0.02276575
v -0.009943939 0.01940869 0.03034232
v -0.01170779 0.02334851 0.02339902
v -0.01974655 0.01944875 0.02454139
v -0.01718166 0.01716444 0.02982532
vt 0.545925 0.3181
vt 0.463282 0.253102
vt 0.484284 0.301508
vt 0.539951 0.257723
vt 0.628604 0.25875
vt 0.627455 0.182143
vt 0.624448 0.323695
vt 0.557888 0.182234
vt 0.452445 0.184329
vt 0.700433 0.257506
vt 0.690252 0.323272
vt 0.740219 0.317131
vt 0.540374 0.116923
vt 0.454801 0.121626
vt 0.755198 0.254162
vt 0.778753 0.309714
vt 0.79832 0.249579
vt 0.705248 0.18159
vt 0.703229 0.114237
vt 0.76141 0.180597
vt 0.807963 0.180371
vt 0.757661 0.117039
vt 0.803797 0.118033
vt 0.793905 0.06911
vt 0.751836 0.063079
vt 0.784899 0.027279
vt 0.745006 0.018818
vt 0.695872 0.009163
vt 0.69939 0.058178
vt 0.629633 0.005
vt 0.631887 0.113216
vt 0.632053 0.054869
vt 0.543351 0.060855
vt 0.546508 0.014269
vt 0.463342 0.070867
vt 0.470747 0.027718
vt 0.682184 0.414716
vt 0.627131 0.375846
vt 0.657006 0.37134
vt 0.637854 0.412936
vt 0.692731 0.465147
vt 0.641873 0.461457
vt 0.688617 0.531999
vt 0.579099 0.368029
vt 0.582061 0.408649
vt 0.578376 0.336592
vt 0.610516 0.348038
vt 0.525608 0.360237
vt 0.528776 0.324496
vt 0.471705 0.355628
vt 0.475828 0.323226
vt 0.441879 0.328439
vt 0.422719 0.353437
vt 0.523124 0.402982
vt 0.582552 0.456914
vt 0.463823 0.396584
vt 0.636483 0.526529
vt 0.519921 0.450934
vt 0.408591 0.39041
vt 0.392765 0.344528
vt 0.365138 0.38442
vt 0.457852 0.444914
vt 0.39898 0.4386
vt 0.348801 0.433555
vt 0.577903 0.520428
vt 0.61772 0.604374
vt 0.660812 0.611062
vt 0.514864 0.514315
vt 0.393323 0.50367
vt 0.340583 0.499793
vt 0.352 0.582918
vt 0.451888 0.508437
vt 0.396831 0.584162
vt 0.388707 0.65868
vt 0.564055 0.599725
vt 0.594563 0.658354
vt 0.611833 0.680759
vt 0.551651 0.669737
vt 0.553726 0.711414
vt 0.492759 0.715464
vt 0.498992 0.669121
vt 0.435476 0.698446
vt 0.507783 0.593317
vt 0.409429 0.64025
vt 0.450297 0.659066
vt 0.45069 0.588919
vt 0.662216 0.711958
vt 0.680866 0.665468
vt 0.649166 0.695343
vt 0.688433 0.695556
vt 0.687349 0.740896
vt 0.65446 0.744098
vt 0.727422 0.68782
vt 0.725383 0.644946
vt 0.687053 0.792435
vt 0.651454 0.793698
vt 0.656464 0.846646
vt 0.728448 0.735958
vt 0.777466 0.683943
vt 0.777486 0.639523
vt 0.728628 0.791667
vt 0.777437 0.734134
vt 0.838538 0.684719
vt 0.839607 0.642941
vt 0.837077 0.734425
vt 0.905667 0.697132
vt 0.77719 0.791976
vt 0.835502 0.793344
vt 0.903632 0.742111
vt 0.958963 0.755973
vt 0.946532 0.714178
vt 0.902096 0.798409
vt 0.96038 0.805331
vt 0.834867 0.8579
vt 0.902137 0.857525
vt 0.958898 0.858051
vt 0.776331 0.854547
vt 0.903461 0.91268
vt 0.945485 0.903952
vt 0.964841 0.922816
vt 0.904706 0.958959
vt 0.835499 0.967345
vt 0.835147 0.916268
vt 0.77471 0.912255
vt 0.77316 0.962255
vt 0.72809 0.85087
vt 0.726647 0.905586
vt 0.724237 0.951323
vt 0.688014 0.846056
vt 0.689934 0.896653
vt 0.682407 0.92971
vt 0.664158 0.880595
vt 0.652498 0.899755
vt 0.290195 0.012958
vt 0.343748 0.034287
vt 0.368515 0.084038
vt 0.305128 0.073996
vt 0.38581 0.150338
vt 0.225151 0.072903
vt 0.219009 0.005
vt 0.295609 0.150676
vt 0.389781 0.213501
vt 0.314326 0.216925
vt 0.382166 0.266227
vt 0.158487 0.077425
vt 0.158451 0.011587
vt 0.228731 0.152164
vt 0.309557 0.275616
vt 0.370619 0.309596
vt 0.300922 0.323868
vt 0.228669 0.220386
vt 0.225481 0.28199
vt 0.221859 0.335647
vt 0.155007 0.334727
vt 0.157866 0.280978
vt 0.104576 0.324055
vt 0.169654 0.151841
vt 0.156981 0.22036
vt 0.101603 0.27582
vt 0.0612 0.313831
vt 0.056132 0.269314
vt 0.049237 0.217211
vt 0.100001 0.218077
vt 0.047282 0.155089
vt 0.099507 0.15385
vt 0.103771 0.08298
vt 0.109478 0.021609
vt 0.055789 0.087784
vt 0.066881 0.02971
vt 0.015162 0.08903
vt 0.005 0.156159
vt 0.034416 0.048165
vt 0.706456 0.535015
vt 0.767187 0.612748
vt 0.717436 0.586806
vt 0.767408 0.539412
vt 0.701239 0.470778
vt 0.834829 0.549694
vt 0.833487 0.630345
vt 0.768023 0.469072
vt 0.707425 0.410975
vt 0.835917 0.470035
vt 0.894546 0.552448
vt 0.89665 0.633011
vt 0.767632 0.401072
vt 0.769616 0.338989
vt 0.72121 0.363475
vt 0.838389 0.329012
vt 0.836917 0.395314
vt 0.901092 0.33688
vt 0.897693 0.401001
vt 0.951851 0.352519
vt 0.895028 0.47308
vt 0.94773 0.412031
vt 0.995 0.379499
vt 0.992712 0.426267
vt 0.946037 0.477731
vt 0.99441 0.483551
vt 0.94581 0.54941
vt 0.992003 0.544517
vt 0.949376 0.624253
vt 0.992745 0.602625
vt 0.297969 0.507691
vt 0.292915 0.429168
vt 0.229388 0.423062
vt 0.277667 0.367526
vt 0.230167 0.350212
vt 0.170365 0.342512
vt 0.162543 0.416235
vt 0.106128 0.346434
vt 0.22705 0.501441
vt 0.094692 0.415118
vt 0.054336 0.358781
vt 0.024837 0.412334
vt 0.155094 0.49543
vt 0.081816 0.489765
vt 0.005373 0.483521
vt 0.005 0.544078
vt 0.079596 0.54826
vt 0.013597 0.593051
vt 0.219908 0.56299
vt 0.292694 0.573495
vt 0.149674 0.554725
vt 0.081131 0.59436
vt 0.032756 0.635648
vt 0.211165 0.61012
vt 0.277369 0.623462
vt 0.145551 0.600812
vt 0.082127 0.63862
vt 0.042055 0.668113
vt 0.08385 0.68039
vt 0.133208 0.692978
vt 0.13992 0.64686
vt 0.185928 0.694371
vt 0.200598 0.654204
vt 0.250693 0.661996
vt 0.23183 0.692294
vn -0.6071991 0.7494991 -0.2637427
vn -0.6460707 0.3715542 -0.6667384
vn -0.5192428 0.6792034 -0.5187193
vn -0.8320654 0.4320128 -0.3478966
vn -0.8826616 0.461472 -0.08917482
vn -0.9927886 0.105356 -0.057192
vn -0.6317077 0.770832 -0.0822391
vn -0.9125336 0.07798599 -0.4014979
vn -0.7383062 0.05179199 -0.6724743
vn -0.884784 0.4406622 0.151572
vn -0.6264771 0.7731389 0.09890648
vn -0.5897849 0.7379889 0.3279117
vn -0.8835042 -0.216379 -0.4154522
vn -0.6969944 -0.21582 -0.6838279
vn -0.8157411 0.4041921 0.4137575
vn -0.5214705 0.6689933 0.5296379
vn -0.674583 0.3692257 0.6392261
vn -0.9811677 0.07716998 0.1770725
vn -0.9570411 -0.204412 0.2056404
vn -0.885226 0.06079897 0.4611707
vn -0.7167572 0.04782901 0.6956806
vn -0.8640446 -0.207952 0.458457
vn -0.7075483 -0.186519 0.6816055
vn -0.6794969 -0.3669769 0.6353045
vn -0.8040571 -0.4074351 0.4329998
vn -0.6060539 -0.553416 0.5713399
vn -0.6708282 -0.6337892 0.3850985
vn -0.6937292 -0.7004213 0.1677788
vn -0.8696163 -0.446524 0.2106749
vn -0.6828695 -0.7237151 -0.09962781
vn -0.9780657 -0.1848249 -0.09605873
vn -0.8764439 -0.4686679 -0.1104373
vn -0.7911482 -0.4600832 -0.4029987
vn -0.664235 -0.6534768 -0.3629873
vn -0.6485741 -0.4166309 -0.637001
vn -0.5709235 -0.5820431 -0.5790268
vn 0.6680754 -0.5853638 0.459374
vn 0.4355521 -0.7074949 0.5565476
vn 0.5861639 -0.496782 0.6400152
vn 0.4586187 -0.7992302 0.3884584
vn 0.7284233 -0.6635467 0.1706023
vn 0.4699096 -0.8709781 0.1434646
vn 0.718862 -0.6804526 -0.1422022
vn 0.232081 -0.8204969 0.5224206
vn 0.2152348 -0.9158803 0.3388765
vn 0.224416 -0.6718219 0.7058985
vn 0.4003338 -0.6037601 0.6893523
vn -0.004608246 -0.8677922 0.496906
vn 0.01609167 -0.7053946 0.7086321
vn -0.2412275 -0.8481381 0.4716684
vn -0.1950209 -0.699631 0.6873743
vn -0.3971036 -0.649323 0.6486049
vn -0.4477805 -0.7529933 0.482176
vn -0.03615483 -0.9533791 0.2996015
vn 0.2001007 -0.9697198 0.1400112
vn -0.2585218 -0.92694 0.2719348
vn 0.483132 -0.8675694 -0.1179272
vn -0.05806569 -0.9888288 0.1372804
vn -0.4659724 -0.8293052 0.3084195
vn -0.6060539 -0.553416 0.5713399
vn -0.6708282 -0.6337892 0.3850985
vn -0.2615051 -0.9558985 0.1336905
vn -0.4529272 -0.8806521 0.1389569
vn -0.6937292 -0.7004213 0.1677788
vn 0.2266015 -0.970578 -0.0814252
vn 0.4927303 -0.8139932 -0.307623
vn 0.6710377 -0.6355429 -0.3818293
vn -0.03855326 -0.9979486 -0.05111171
vn -0.4628002 -0.8847245 -0.05548595
vn -0.6828695 -0.7237151 -0.09962781
vn -0.664235 -0.6534768 -0.3629873
vn -0.2621441 -0.9645568 -0.0301751
vn -0.4860899 -0.8301836 -0.2729681
vn -0.5709235 -0.5820431 -0.5790268
vn 0.2550499 -0.9172454 -0.3059582
vn 0.4603108 -0.7420058 -0.4873822
vn 0.5803939 -0.555053 -0.5958684
vn 0.2190524 -0.8105363 -0.5431823
vn 0.3018647 -0.5835732 -0.75387
vn -0.01306812 -0.6282862 -0.7778726
vn -0.009434497 -0.8372992 -0.5466637
vn -0.3129639 -0.6148279 -0.7239062
vn -0.0008398046 -0.9543532 -0.2986793
vn -0.4405441 -0.7509803 -0.4918835
vn -0.2314266 -0.8119339 -0.5359151
vn -0.2466211 -0.9283784 -0.2780136
vn 0.4003338 -0.6037601 0.6893523
vn 0.5861639 -0.496782 0.6400152
vn 0.4355521 -0.7074949 0.5565476
vn 0.462918 -0.4332581 0.7733009
vn 0.2805234 -0.464132 0.8401715
vn 0.224416 -0.6718219 0.7058985
vn 0.5051097 -0.2561461 0.8241683
vn 0.6555346 -0.271713 0.7045895
vn 0.03233723 -0.4854853 0.8736466
vn 0.01609167 -0.7053946 0.7086321
vn -0.1950209 -0.699631 0.6873743
vn 0.3030525 -0.272025 0.9133245
vn 0.5273595 -0.100209 0.843712
vn 0.6849257 -0.06445697 0.7257563
vn 0.03675423 -0.280979 0.9590099
vn 0.3157721 -0.120215 0.9411887
vn 0.5493683 0.1046739 0.828998
vn 0.709251 0.152228 0.6883238
vn 0.3184555 0.08961605 0.9436923
vn 0.5263568 0.358142 0.7711568
vn 0.02626326 -0.1302759 0.9911299
vn 0.01885557 0.07868398 0.9967212
vn 0.2828821 0.3968531 0.873204
vn 0.2274977 0.66617 0.7102551
vn 0.4222926 0.6115121 0.6691203
vn 0.02835421 0.3938529 0.9187361
vn 0.03534263 0.6749482 0.7370182
vn -0.2614268 0.059659 0.9633779
vn -0.2312174 0.353393 0.9064502
vn -0.1684611 0.6438511 0.7463757
vn -0.2604845 -0.1269551 0.9570947
vn -0.4815806 0.2898191 0.8270943
vn -0.389585 0.5703193 0.7231594
vn -0.5214705 0.6689933 0.5296379
vn -0.674583 0.3692257 0.6392261
vn -0.7167572 0.04782901 0.6956806
vn -0.4972255 0.04415498 0.866497
vn -0.4975354 -0.154151 0.8536368
vn -0.7075483 -0.186519 0.6816055
vn -0.2539656 -0.282895 0.9249172
vn -0.5016176 -0.3069011 0.808821
vn -0.6794969 -0.3669769 0.6353045
vn -0.2376322 -0.4866181 0.8406746
vn -0.4600659 -0.477883 0.7483096
vn -0.6060539 -0.553416 0.5713399
vn -0.3971036 -0.649323 0.6486049
vn -0.4477805 -0.7529933 0.482176
vn 0.5498582 0.7646269 -0.3361572
vn 0.4714479 0.6629059 -0.5816292
vn 0.5646792 0.454956 -0.6885873
vn 0.7645068 0.500133 -0.4066896
vn 0.6808869 0.22066 -0.6983568
vn 0.8419174 0.5373452 -0.04934898
vn 0.6020674 0.7971483 -0.04548863
vn 0.8727123 0.2005109 -0.4451614
vn 0.6879861 -0.05725202 -0.7234621
vn 0.8889032 -0.11039 -0.4445956
vn 0.6563546 -0.3338789 -0.6765527
vn 0.8073365 0.5316007 0.2561418
vn 0.5881422 0.7794098 0.2158915
vn 0.9729249 0.218623 -0.07497419
vn 0.8125436 -0.406301 -0.4179623
vn 0.5803939 -0.555053 -0.5958684
vn 0.6710377 -0.6355429 -0.3818293
vn 0.9872808 -0.112382 -0.1124589
vn 0.9017796 -0.4109461 -0.1338538
vn 0.718862 -0.6804526 -0.1422022
vn 0.7284233 -0.6635467 0.1706023
vn 0.9000626 -0.3780411 0.2167309
vn 0.6680754 -0.5853638 0.459374
vn 0.9326824 0.2459079 0.2638801
vn 0.9665805 -0.07864603 0.2440023
vn 0.8003581 -0.3182038 0.5081075
vn 0.5861639 -0.496782 0.6400152
vn 0.6555346 -0.271713 0.7045895
vn 0.6849257 -0.06445697 0.7257563
vn 0.8365424 -0.05262698 0.5453689
vn 0.709251 0.152228 0.6883238
vn 0.8359435 0.225892 0.5001712
vn 0.7559881 0.4905729 0.4333824
vn 0.5586154 0.7396428 0.3753363
vn 0.6736746 0.4403738 0.5934926
vn 0.5169408 0.6919668 0.5039387
vn 0.5263568 0.358142 0.7711568
vn 0.5493683 0.1046739 0.828998
vn 0.4222926 0.6115121 0.6691203
vn 0.2515015 0.7200054 -0.6467915
vn 0.5646792 0.454956 -0.6885873
vn 0.4714479 0.6629059 -0.5816292
vn 0.3228842 0.4798719 -0.8157626
vn 0.03178173 0.7522427 -0.6581192
vn 0.3703198 0.2524781 -0.893934
vn 0.6808869 0.22066 -0.6983568
vn 0.05630661 0.496069 -0.8664555
vn -0.2258823 0.7570999 -0.6130067
vn 0.03503622 0.2350921 -0.9713415
vn 0.3959984 -0.009988 -0.9181969
vn 0.6879861 -0.05725202 -0.7234621
vn -0.2827683 0.4543061 -0.8447769
vn -0.6460707 0.3715542 -0.6667384
vn -0.5192428 0.6792034 -0.5187193
vn -0.7383062 0.05179199 -0.6724743
vn -0.3634577 0.144349 -0.9203596
vn -0.6969944 -0.21582 -0.6838279
vn -0.4119011 -0.132883 -0.9014874
vn -0.6485741 -0.4166309 -0.637001
vn 0.006093539 -0.04454799 -0.9989887
vn -0.3980408 -0.3838101 -0.8332186
vn -0.5709235 -0.5820431 -0.5790268
vn -0.3129639 -0.6148279 -0.7239062
vn -0.007908278 -0.3590071 -0.9333014
vn -0.01306812 -0.6282862 -0.7778726
vn 0.3816225 -0.306926 -0.8718719
vn 0.3018647 -0.5835732 -0.75387
vn 0.6563546 -0.3338789 -0.6765527
vn 0.5803939 -0.555053 -0.5958684
vn -0.6317077 0.770832 -0.0822391
vn -0.6071991 0.7494991 -0.2637427
vn -0.3237506 0.8983079 -0.2970327
vn -0.5192428 0.6792034 -0.5187193
vn -0.2258823 0.7570999 -0.6130067
vn 0.03178173 0.7522427 -0.6581192
vn -0.03872931 0.935855 -0.3502506
vn 0.2515015 0.7200054 -0.6467915
vn -0.3593599 0.9310096 -0.06388644
vn 0.2693305 0.8912717 -0.3648231
vn 0.4714479 0.6629059 -0.5816292
vn 0.5498582 0.7646269 -0.3361572
vn -0.07136337 0.9958193 -0.05701752
vn 0.2841009 0.9575819 -0.04820318
vn 0.6020674 0.7971483 -0.04548863
vn 0.5881422 0.7794098 0.2158915
vn 0.2868234 0.936667 0.2009659
vn 0.5586154 0.7396428 0.3753363
vn -0.319661 0.9420567 0.1017157
vn -0.6264771 0.7731389 0.09890648
vn -0.02671983 0.9856765 0.1665167
vn 0.283327 0.8959767 0.3419817
vn 0.5169408 0.6919668 0.5039387
vn -0.2783427 0.9150093 0.2920335
vn -0.5897849 0.7379889 0.3279117
vn 0.007593323 0.9462587 0.3233216
vn 0.2493894 0.8293671 0.4999551
vn 0.4222926 0.6115121 0.6691203
vn 0.2274977 0.66617 0.7102551
vn 0.03534263 0.6749482 0.7370182
vn 0.02676159 0.8568674 0.5148419
vn -0.1684611 0.6438511 0.7463757
vn -0.2105447 0.8344859 0.5092192
vn -0.5214705 0.6689933 0.5296379
vn -0.389585 0.5703193 0.7231594
usemtl Potato3_Mat2
f 3/3/3 2/2/2 1/1/1
f 2/2/2 4/4/4 1/1/1
f 1/1/1 4/4/4 5/5/5
f 5/5/5 4/4/4 6/6/6
f 7/7/7 1/1/1 5/5/5
f 8/8/8 4/4/4 2/2/2
f 4/4/4 8/8/8 6/6/6
f 9/9/9 8/8/8 2/2/2
f 5/5/5 10/10/10 7/7/7
f 10/10/10 5/5/5 6/6/6
f 10/10/10 11/11/11 7/7/7
f 12/12/12 11/11/11 10/10/10
f 13/13/13 8/8/8 9/9/9
f 8/8/8 13/13/13 6/6/6
f 14/14/14 13/13/13 9/9/9
f 15/15/15 12/12/12 10/10/10
f 16/16/16 12/12/12 15/15/15
f 17/17/17 16/16/16 15/15/15
f 10/10/10 18/18/18 15/15/15
f 18/18/18 10/10/10 6/6/6
f 19/19/19 18/18/18 6/6/6
f 15/15/15 20/20/20 17/17/17
f 18/18/18 20/20/20 15/15/15
f 18/18/18 19/19/19 20/20/20
f 20/20/20 21/21/21 17/17/17
f 20/20/20 22/22/22 21/21/21
f 19/19/19 22/22/22 20/20/20
f 22/22/22 23/23/23 21/21/21
f 24/24/24 23/23/23 22/22/22
f 25/25/25 24/24/24 22/22/22
f 22/22/22 19/19/19 25/25/25
f 24/24/24 25/25/25 26/26/26
f 25/25/25 27/27/27 26/26/26
f 27/27/27 25/25/25 28/28/28
f 25/25/25 29/29/29 28/28/28
f 19/19/19 29/29/29 25/25/25
f 28/28/28 29/29/29 30/30/30
f 31/31/31 19/19/19 6/6/6
f 13/13/13 31/31/31 6/6/6
f 32/32/32 29/29/29 19/19/19
f 31/31/31 32/32/32 19/19/19
f 29/29/29 32/32/32 30/30/30
f 32/32/32 31/31/31 13/13/13
f 30/30/30 32/32/32 33/33/33
f 33/33/33 32/32/32 13/13/13
f 33/33/33 13/13/13 14/14/14
f 34/34/34 30/30/30 33/33/33
f 35/35/35 33/33/33 14/14/14
f 33/33/33 35/35/35 34/34/34
f 35/35/35 36/36/36 34/34/34
f 39/39/39 38/38/38 37/37/37
f 38/38/38 40/40/40 37/37/37
f 37/37/37 40/40/40 41/41/41
f 40/40/40 42/42/42 41/41/41
f 41/41/41 42/42/42 43/43/43
f 38/38/38 44/44/44 40/40/40
f 40/40/40 45/45/45 42/42/42
f 44/44/44 45/45/45 40/40/40
f 46/46/46 44/44/44 38/38/38
f 47/47/47 46/46/46 38/38/38
f 48/48/48 44/44/44 46/46/46
f 45/45/45 44/44/44 48/48/48
f 49/49/49 48/48/48 46/46/46
f 50/50/50 48/48/48 49/49/49
f 51/51/51 50/50/50 49/49/49
f 50/50/50 51/51/51 52/52/52
f 53/53/53 50/50/50 52/52/52
f 54/54/54 45/45/45 48/48/48
f 48/48/48 50/50/50 54/54/54
f 45/45/45 55/55/55 42/42/42
f 55/55/55 45/45/45 54/54/54
f 56/56/56 50/50/50 53/53/53
f 50/50/50 56/56/56 54/54/54
f 42/42/42 55/55/55 57/57/57
f 42/42/42 57/57/57 43/43/43
f 58/58/58 55/55/55 54/54/54
f 54/54/54 56/56/56 58/58/58
f 59/59/59 56/56/56 53/53/53
f 59/59/59 53/53/53 60/60/60
f 61/61/61 59/59/59 60/60/60
f 62/62/62 56/56/56 59/59/59
f 56/56/56 62/62/62 58/58/58
f 63/63/63 59/59/59 61/61/61
f 63/63/63 62/62/62 59/59/59
f 64/64/64 63/63/63 61/61/61
f 65/65/65 55/55/55 58/58/58
f 55/55/55 65/65/65 57/57/57
f 43/43/43 57/57/57 66/66/66
f 67/67/67 43/43/43 66/66/66
f 58/58/58 62/62/62 68/68/68
f 68/68/68 65/65/65 58/58/58
f 69/69/69 63/63/63 64/64/64
f 70/70/70 69/69/69 64/64/64
f 69/69/69 70/70/70 71/71/71
f 72/72/72 62/62/62 63/63/63
f 69/69/69 72/72/72 63/63/63
f 62/62/62 72/72/72 68/68/68
f 73/73/73 69/69/69 71/71/71
f 72/72/72 69/69/69 73/73/73
f 71/71/71 74/74/74 73/73/73
f 65/65/65 75/75/75 57/57/57
f 75/75/75 66/66/66 57/57/57
f 66/66/66 76/76/76 67/67/67
f 76/76/76 77/77/77 67/67/67
f 78/78/78 76/76/76 66/66/66
f 76/76/76 78/78/78 77/77/77
f 75/75/75 78/78/78 66/66/66
f 78/78/78 79/79/79 77/77/77
f 79/79/79 78/78/78 80/80/80
f 78/78/78 81/81/81 80/80/80
f 81/81/81 78/78/78 75/75/75
f 80/80/80 81/81/81 82/82/82
f 75/75/75 65/65/65 83/83/83
f 83/83/83 81/81/81 75/75/75
f 65/65/65 68/68/68 83/83/83
f 74/74/74 82/82/82 84/84/84
f 74/74/74 84/84/84 73/73/73
f 81/81/81 85/85/85 82/82/82
f 85/85/85 81/81/81 83/83/83
f 82/82/82 85/85/85 84/84/84
f 86/86/86 83/83/83 68/68/68
f 86/86/86 85/85/85 83/83/83
f 84/84/84 85/85/85 86/86/86
f 73/73/73 84/84/84 86/86/86
f 72/72/72 86/86/86 68/68/68
f 86/86/86 72/72/72 73/73/73
f 89/89/89 88/88/88 87/87/87
f 88/88/88 90/90/90 87/87/87
f 90/90/90 91/91/91 87/87/87
f 91/91/91 92/92/92 87/87/87
f 90/90/90 88/88/88 93/93/93
f 88/88/88 94/94/94 93/93/93
f 92/92/92 91/91/91 95/95/95
f 96/96/96 92/92/92 95/95/95
f 96/96/96 95/95/95 97/97/97
f 98/98/98 91/91/91 90/90/90
f 93/93/93 98/98/98 90/90/90
f 93/93/93 94/94/94 99/99/99
f 94/94/94 100/100/100 99/99/99
f 101/101/101 95/95/95 91/91/91
f 98/98/98 101/101/101 91/91/91
f 102/102/102 98/98/98 93/93/93
f 99/99/99 102/102/102 93/93/93
f 99/99/99 100/100/100 103/103/103
f 100/100/100 104/104/104 103/103/103
f 103/103/103 105/105/105 99/99/99
f 105/105/105 102/102/102 99/99/99
f 105/105/105 103/103/103 106/106/106
f 98/98/98 102/102/102 107/107/107
f 101/101/101 98/98/98 107/107/107
f 102/102/102 105/105/105 108/108/108
f 107/107/107 102/102/102 108/108/108
f 109/109/109 105/105/105 106/106/106
f 105/105/105 109/109/109 108/108/108
f 110/110/110 109/109/109 106/106/106
f 111/111/111 110/110/110 106/106/106
f 112/112/112 109/109/109 110/110/110
f 109/109/109 112/112/112 108/108/108
f 113/113/113 112/112/112 110/110/110
f 108/108/108 114/114/114 107/107/107
f 108/108/108 112/112/112 114/114/114
f 115/115/115 112/112/112 113/113/113
f 112/112/112 115/115/115 114/114/114
f 116/116/116 115/115/115 113/113/113
f 107/107/107 117/117/117 101/101/101
f 114/114/114 117/117/117 107/107/107
f 118/118/118 115/115/115 116/116/116
f 119/119/119 118/118/118 116/116/116
f 118/118/118 119/119/119 120/120/120
f 121/121/121 118/118/118 120/120/120
f 121/121/121 122/122/122 118/118/118
f 114/114/114 115/115/115 123/123/123
f 115/115/115 118/118/118 123/123/123
f 122/122/122 123/123/123 118/118/118
f 114/114/114 123/123/123 117/117/117
f 124/124/124 123/123/123 122/122/122
f 123/123/123 124/124/124 117/117/117
f 125/125/125 124/124/124 122/122/122
f 117/117/117 126/126/126 101/101/101
f 126/126/126 117/117/117 124/124/124
f 101/101/101 126/126/126 95/95/95
f 127/127/127 124/124/124 125/125/125
f 127/127/127 126/126/126 124/124/124
f 128/128/128 127/127/127 125/125/125
f 126/126/126 129/129/129 95/95/95
f 129/129/129 126/126/126 127/127/127
f 95/95/95 129/129/129 97/97/97
f 130/130/130 127/127/127 128/128/128
f 130/130/130 129/129/129 127/127/127
f 97/97/97 129/129/129 130/130/130
f 131/131/131 130/130/130 128/128/128
f 132/132/132 97/97/97 130/130/130
f 132/132/132 130/130/130 131/131/131
f 133/133/133 132/132/132 131/131/131
f 136/136/136 135/135/135 134/134/134
f 137/137/137 136/136/136 134/134/134
f 138/138/138 136/136/136 137/137/137
f 137/137/137 134/134/134 139/139/139
f 134/134/134 140/140/140 139/139/139
f 141/141/141 138/138/138 137/137/137
f 137/137/137 139/139/139 141/141/141
f 142/142/142 138/138/138 141/141/141
f 143/143/143 142/142/142 141/141/141
f 144/144/144 142/142/142 143/143/143
f 139/139/139 140/140/140 145/145/145
f 140/140/140 146/146/146 145/145/145
f 139/139/139 147/147/147 141/141/141
f 141/141/141 147/147/147 143/143/143
f 148/148/148 144/144/144 143/143/143
f 149/149/149 144/144/144 148/148/148
f 150/150/150 149/149/149 148/148/148
f 143/143/143 151/151/151 148/148/148
f 147/147/147 151/151/151 143/143/143
f 148/148/148 152/152/152 150/150/150
f 151/151/151 152/152/152 148/148/148
f 152/152/152 153/153/153 150/150/150
f 153/153/153 152/152/152 154/154/154
f 152/152/152 155/155/155 154/154/154
f 152/152/152 151/151/151 155/155/155
f 154/154/154 155/155/155 156/156/156
f 157/157/157 147/147/147 139/139/139
f 145/145/145 157/157/157 139/139/139
f 158/158/158 151/151/151 147/147/147
f 157/157/157 158/158/158 147/147/147
f 151/151/151 158/158/158 155/155/155
f 155/155/155 159/159/159 156/156/156
f 156/156/156 159/159/159 160/160/160
f 159/159/159 161/161/161 160/160/160
f 162/162/162 161/161/161 159/159/159
f 159/159/159 155/155/155 163/163/163
f 163/163/163 162/162/162 159/159/159
f 155/155/155 158/158/158 163/163/163
f 164/164/164 162/162/162 163/163/163
f 158/158/158 157/157/157 165/165/165
f 163/163/163 158/158/158 165/165/165
f 165/165/165 157/157/157 145/145/145
f 165/165/165 164/164/164 163/163/163
f 166/166/166 165/165/165 145/145/145
f 164/164/164 165/165/165 166/166/166
f 145/145/145 146/146/146 166/166/166
f 146/146/146 167/167/167 166/166/166
f 166/166/166 167/167/167 168/168/168
f 168/168/168 164/164/164 166/166/166
f 167/167/167 169/169/169 168/168/168
f 164/164/164 168/168/168 170/170/170
f 170/170/170 168/168/168 169/169/169
f 171/171/171 164/164/164 170/170/170
f 172/172/172 170/170/170 169/169/169
f 175/175/175 174/174/174 173/173/173
f 174/174/174 176/176/176 173/173/173
f 173/173/173 176/176/176 177/177/177
f 178/178/178 176/176/176 174/174/174
f 179/179/179 178/178/178 174/174/174
f 176/176/176 180/180/180 177/177/177
f 177/177/177 180/180/180 181/181/181
f 182/182/182 180/180/180 176/176/176
f 178/178/178 182/182/182 176/176/176
f 183/183/183 178/178/178 179/179/179
f 184/184/184 183/183/183 179/179/179
f 180/180/180 185/185/185 181/181/181
f 180/180/180 182/182/182 185/185/185
f 181/181/181 185/185/185 186/186/186
f 187/187/187 181/181/181 186/186/186
f 186/186/186 185/185/185 188/188/188
f 185/185/185 189/189/189 188/188/188
f 182/182/182 189/189/189 185/185/185
f 188/188/188 189/189/189 190/190/190
f 189/189/189 191/191/191 190/190/190
f 189/189/189 182/182/182 191/191/191
f 190/190/190 191/191/191 192/192/192
f 193/193/193 182/182/182 178/178/178
f 182/182/182 193/193/193 191/191/191
f 183/183/183 193/193/193 178/178/178
f 191/191/191 194/194/194 192/192/192
f 191/191/191 193/193/193 194/194/194
f 192/192/192 194/194/194 195/195/195
f 194/194/194 196/196/196 195/195/195
f 193/193/193 197/197/197 194/194/194
f 194/194/194 197/197/197 196/196/196
f 197/197/197 193/193/193 183/183/183
f 197/197/197 198/198/198 196/196/196
f 199/199/199 197/197/197 183/183/183
f 198/198/198 197/197/197 199/199/199
f 199/199/199 183/183/183 184/184/184
f 200/200/200 198/198/198 199/199/199
f 201/201/201 199/199/199 184/184/184
f 200/200/200 199/199/199 201/201/201
f 202/202/202 200/200/200 201/201/201
f 205/205/205 204/204/204 203/203/203
f 204/204/204 205/205/205 206/206/206
f 205/205/205 207/207/207 206/206/206
f 208/208/208 207/207/207 205/205/205
f 209/209/209 208/208/208 205/205/205
f 210/210/210 208/208/208 209/209/209
f 211/211/211 205/205/205 203/203/203
f 209/209/209 205/205/205 211/211/211
f 212/212/212 210/210/210 209/209/209
f 213/213/213 210/210/210 212/212/212
f 214/214/214 213/213/213 212/212/212
f 212/212/212 209/209/209 215/215/215
f 215/215/215 209/209/209 211/211/211
f 214/214/214 212/212/212 216/216/216
f 216/216/216 212/212/212 215/215/215
f 217/217/217 214/214/214 216/216/216
f 218/218/218 217/217/217 216/216/216
f 219/219/219 218/218/218 216/216/216
f 219/219/219 216/216/216 215/215/215
f 220/220/220 218/218/218 219/219/219
f 211/211/211 203/203/203 221/221/221
f 203/203/203 222/222/222 221/221/221
f 223/223/223 215/215/215 211/211/211
f 223/223/223 219/219/219 215/215/215
f 221/221/221 223/223/223 211/211/211
f 224/224/224 220/220/220 219/219/219
f 224/224/224 219/219/219 223/223/223
f 220/220/220 224/224/224 225/225/225
f 221/221/221 222/222/222 226/226/226
f 222/222/222 227/227/227 226/226/226
f 228/228/228 223/223/223 221/221/221
f 228/228/228 224/224/224 223/223/223
f 226/226/226 228/228/228 221/221/221
f 224/224/224 229/229/229 225/225/225
f 229/229/229 224/224/224 228/228/228
f 225/225/225 229/229/229 230/230/230
f 229/229/229 231/231/231 230/230/230
f 232/232/232 231/231/231 229/229/229
f 233/233/233 229/229/229 228/228/228
f 233/233/233 232/232/232 229/229/229
f 228/228/228 226/226/226 233/233/233
f 232/232/232 233/233/233 234/234/234
f 235/235/235 226/226/226 227/227/227
f 226/226/226 235/235/235 233/233/233
f 233/233/233 235/235/235 234/234/234
f 236/236/236 235/235/235 227/227/227
f 234/234/234 235/235/235 237/237/237
f 235/235/235 236/236/236 237/237/237
