mtllib material.mtl
usemtl material_0
v -0.14011330 -0.02935020 0.02543729
v -0.13152230 -0.02767618 0.04783280
v -0.12877750 -0.03914814 0.04736688
v -0.11900880 -0.04677615 0.04340272
v -0.13726350 -0.04086638 0.02508430
v -0.12638600 -0.04741118 0.02264779
v -0.14048040 -0.04157056 -0.00103315
v -0.10357130 -0.04887115 0.03769528
v -0.12914520 -0.04763851 -0.00077450
v -0.13672090 -0.04115589 -0.02788616
v -0.12498440 -0.04765824 -0.02516404
v -0.12646750 -0.03985537 -0.05205135
v -0.11557930 -0.04710371 -0.04702923
v -0.11315110 -0.03905385 -0.07425819
v -0.10184260 -0.04696589 -0.06752010
v -0.10836050 -0.04908521 -0.02054865
v -0.09904472 -0.04902857 -0.03988677
v -0.08719339 -0.04909892 -0.05685947
v -0.06671160 -0.04906951 -0.04487561
v -0.07698248 -0.04902188 -0.03107820
v -0.04125385 -0.04899028 -0.03382163
v -0.11209980 -0.04903240 -0.00065948
v -0.04863137 -0.04897299 -0.02426453
v -0.02205679 -0.04898433 -0.03116975
v -0.08439290 -0.04900075 -0.01624120
v -0.10995620 -0.04897695 0.01902149
v -0.02386595 -0.04895160 -0.02158115
v -0.00878438 -0.04901257 -0.03223593
v -0.05409347 -0.04895223 -0.01291978
v -0.08745090 -0.04899888 -0.00039104
v -0.08584429 -0.04895728 0.01512067
v -0.08046079 -0.04892786 0.02957830
v -0.00770824 -0.04895157 -0.02261887
v 0.00085538 -0.04897973 -0.03452352
v 0.00315161 -0.04894898 -0.02461596
v -0.05625371 -0.04894160 -0.00145087
v -0.05502481 -0.04892927 0.01007248
v -0.05169547 -0.04891961 0.02162267
v -0.02615596 -0.04893856 -0.01281289
v -0.00804689 -0.04892615 -0.01429822
v 0.00457655 -0.04893564 -0.01618151
v -0.02742332 -0.04892674 -0.00346252
v -0.02733641 -0.04892736 0.00597054
v -0.02605589 -0.04894396 0.01544776
v -0.00809718 -0.04892328 -0.00569542
v 0.00579796 -0.04892084 -0.00757393
v 0.00682864 -0.04893481 0.00111076
v -0.00821665 -0.04893719 0.00315094
v -0.00758898 -0.04896273 0.01217465
v 0.00703529 -0.04895451 0.01007968
v 0.11976780 -0.00633931 0.02853271
v 0.10408950 0.00891742 0.02603987
v 0.10669220 0.00812938 0.00640682
v 0.06526691 -0.04138990 -0.11011650
v 0.09494013 -0.03312757 -0.10326710
v 0.06988550 -0.03088087 -0.11796500
v 0.08826397 -0.04323532 -0.09649352
v 0.11367210 -0.03579329 -0.08378806
v 0.07726099 -0.04852365 -0.08516005
v 0.05820543 -0.04807003 -0.09708110
v 0.04814063 -0.04908453 -0.08104572
v 0.10518860 -0.04511331 -0.07843728
v 0.06445672 -0.04911103 -0.07128476
v 0.03654745 -0.04909260 -0.06311285
v 0.11680410 -0.04572719 -0.05795638
v 0.12567590 -0.03785114 -0.06189941
v 0.13368910 -0.03993848 -0.03999107
v 0.09287339 -0.04868937 -0.06932333
v 0.12394050 -0.04660464 -0.03730118
v 0.13762780 -0.04196904 -0.01628220
v 0.10294320 -0.04872200 -0.05149616
v 0.07704400 -0.04912120 -0.05816501
v 0.04921490 -0.04902678 -0.05646992
v 0.12729410 -0.04741142 -0.01486060
v 0.13562710 -0.04290335 0.00912419
v 0.10952090 -0.04883971 -0.03255915
v 0.03427496 -0.04897184 -0.04370647
v 0.02950628 -0.04902507 -0.05159499
v 0.04135837 -0.04892958 -0.03622806
v 0.05913340 -0.04898816 -0.04650342
v 0.04727498 -0.04891669 -0.02673793
v 0.06644156 -0.04895577 -0.03455641
v 0.05185763 -0.04891231 -0.01614117
v 0.08581226 -0.04907024 -0.04345685
v 0.07184752 -0.04891037 -0.02157324
v 0.05475066 -0.04891679 -0.00457440
v 0.09192041 -0.04895960 -0.02732718
v 0.07508956 -0.04889689 -0.00755227
v 0.05532562 -0.04893702 0.00711774
v 0.11272520 -0.04892899 -0.01275590
v 0.09498280 -0.04891506 -0.01028045
v 0.07490760 -0.04893070 0.00697953
v 0.05274154 -0.04895341 0.01919122
v 0.07099401 -0.04893302 0.02090586
v 0.09418461 -0.04890714 0.00707479
v 0.08893794 -0.04897830 0.02373038
v 0.11137130 -0.04893765 0.00760238
v 0.10507070 -0.04896026 0.02698382
v 0.11867340 -0.04790910 0.03043459
v 0.12531140 -0.04742483 0.00828547
v 0.12866890 -0.04263633 0.03295457
v -0.07363213 -0.01420396 -0.11968390
v -0.09943218 -0.01449381 -0.09989157
v -0.09978172 -0.02727091 -0.10011300
v -0.11853840 -0.02789265 -0.07725373
v -0.11762850 -0.01446027 -0.07587025
v -0.07320570 -0.02683672 -0.11796730
v -0.09385180 -0.03860395 -0.09484299
v -0.11315110 -0.03905385 -0.07425819
v -0.10184260 -0.04696589 -0.06752010
v -0.08524581 -0.04681722 -0.08500427
v -0.08719339 -0.04909892 -0.05685947
v -0.06929719 -0.03756826 -0.11061300
v -0.04208994 -0.03822058 -0.12016970
v -0.06285917 -0.04636944 -0.09825440
v -0.04332551 -0.02656369 -0.12907120
v -0.04379055 -0.01417050 -0.13124280
v -0.01306059 -0.01467845 -0.13566900
v -0.01387372 -0.02755076 -0.13277090
v -0.01407004 -0.03871647 -0.12384060
v -0.01372524 -0.04692021 -0.10974270
v -0.03829132 -0.04675891 -0.10684530
v -0.01119507 -0.04887007 -0.09146263
v -0.03295877 -0.04906168 -0.08855732
v -0.05351193 -0.04917990 -0.08236713
v -0.03911595 -0.04911706 -0.06271128
v -0.02424740 -0.04913802 -0.06818628
v -0.00811773 -0.04912817 -0.07032479
v -0.00307015 -0.04901706 -0.04950684
v -0.07134457 -0.04915845 -0.07139034
v -0.01413628 -0.04905115 -0.04725195
v 0.00085538 -0.04897973 -0.03452352
v -0.00878438 -0.04901257 -0.03223593
v -0.05407248 -0.04908064 -0.05568168
v -0.06671160 -0.04906951 -0.04487561
v -0.02293294 -0.04906029 -0.04292644
v -0.02205679 -0.04898433 -0.03116975
v -0.03987212 -0.04902264 -0.04112821
v -0.04125385 -0.04899028 -0.03382163
v -0.04231555 -0.00245919 -0.12727890
v -0.01185613 -0.00270872 -0.13233610
v -0.01093081 0.00727618 -0.12328980
v -0.07084325 -0.00215354 -0.11369200
v -0.03914535 0.00745383 -0.11847910
v -0.00785557 0.01611622 -0.11091800
v -0.06243086 0.00947071 -0.10439070
v -0.09247944 -0.00195302 -0.09472809
v -0.03265012 0.01596716 -0.10766840
v -0.00158212 0.02368459 -0.09559075
v -0.10792730 -0.00070578 -0.07169215
v -0.08926903 0.01316212 -0.06436855
v -0.07862888 0.01134909 -0.08515204
v -0.06505050 0.02574392 -0.05499681
v -0.05903111 0.02328137 -0.07363468
v -0.04461134 0.02954611 -0.04395965
v -0.04851223 0.01996424 -0.09346611
v -0.02506091 0.02275161 -0.09614244
v 0.00171376 0.02978078 -0.07612672
v -0.02919213 0.02673178 -0.08296760
v 0.00496586 0.03332909 -0.05786873
v -0.03071762 0.03087903 -0.06398294
v 0.01222929 0.03568753 -0.03899663
v -0.00061087 0.03734128 -0.02349058
v -0.03643326 0.03421777 -0.02673439
v -0.12938160 -0.01489912 -0.05195443
v -0.11762850 -0.01446027 -0.07587025
v -0.10792730 -0.00070578 -0.07169215
v -0.11779150 0.00019109 -0.04824500
v -0.12348450 -0.00035216 -0.02560684
v -0.09580814 0.01499890 -0.04366407
v -0.08926903 0.01316212 -0.06436855
v -0.10048540 0.01563059 -0.02421124
v -0.06946833 0.02660363 -0.03878570
v -0.06505050 0.02574392 -0.05499681
v -0.10231720 0.01553612 -0.00419678
v -0.12548690 -0.00075952 -0.00279967
v -0.07221422 0.02754980 -0.02207903
v -0.05155815 0.03063177 -0.03392411
v -0.04461134 0.02954611 -0.04395965
v -0.04945685 0.03108878 -0.02270762
v -0.03643326 0.03421777 -0.02673439
v -0.03378980 0.03624193 -0.01053055
v -0.05064830 0.03130842 -0.00690551
v -0.03213738 0.03682556 0.00545715
v -0.07437869 0.02790581 -0.00557908
v -0.04979976 0.03233628 0.00916603
v -0.07368593 0.02824751 0.01253438
v -0.04712279 0.03282597 0.02702832
v -0.02905141 0.03676077 0.02092473
v -0.07016485 0.02824409 0.03300434
v -0.10040630 0.01625944 0.01580644
v -0.09609720 0.01737193 0.03612745
v -0.12244840 0.00003926 0.02009795
v -0.13929840 -0.01637000 -0.00117596
v -0.11590350 0.00172570 0.04143405
v -0.13563240 -0.01562872 0.02353653
v -0.12744180 -0.01346471 0.04601981
v -0.11853840 -0.02789265 -0.07725373
v -0.13162780 -0.02840294 -0.05326300
v -0.14118300 -0.02978793 -0.02810520
v -0.13671190 -0.01574405 -0.02699787
v -0.14445690 -0.03024573 -0.00100677
v 0.05532562 -0.04893702 0.00711774
v 0.03620258 -0.04895647 0.01845700
v 0.05274154 -0.04895341 0.01919122
v 0.03716629 -0.04893928 0.00774907
v 0.05475066 -0.04891679 -0.00457440
v 0.02160664 -0.04894302 0.00861560
v 0.02109054 -0.04896753 0.01867322
v 0.00727528 -0.04899357 0.01991287
v 0.00703529 -0.04895451 0.01007968
v 0.03672765 -0.04892879 -0.00240726
v 0.05185763 -0.04891231 -0.01614117
v 0.02092148 -0.04892809 -0.00062447
v 0.00682864 -0.04893481 0.00111076
v 0.00579796 -0.04892084 -0.00757393
v 0.03433067 -0.04892543 -0.01217555
v 0.04727498 -0.04891669 -0.02673793
v 0.01934942 -0.04891778 -0.00965596
v 0.03054873 -0.04892151 -0.02145289
v 0.01714117 -0.04891798 -0.01840726
v 0.00457655 -0.04893564 -0.01618151
v 0.01412438 -0.04893197 -0.02687414
v 0.00315161 -0.04894898 -0.02461596
v 0.02684784 -0.04892098 -0.03012924
v 0.04135837 -0.04892958 -0.03622806
v 0.03427496 -0.04897184 -0.04370647
v 0.01139456 -0.04895352 -0.03645192
v 0.00085538 -0.04897973 -0.03452352
v -0.00307015 -0.04901706 -0.04950684
v 0.00859887 -0.04900803 -0.05025847
v 0.02215211 -0.04895205 -0.03890064
v 0.02950628 -0.04902507 -0.05159499
v 0.01934231 -0.04902390 -0.05006628
v 0.07229023 -0.01847601 -0.12078430
v 0.09670072 -0.00888825 -0.10078510
v 0.07279329 -0.00594294 -0.11633390
v 0.09236202 0.00140771 -0.09269314
v 0.07125023 0.00443679 -0.10726750
v 0.11364190 -0.01213626 -0.08071832
v 0.08460666 0.01036035 -0.08324679
v 0.06898773 0.01259862 -0.09583661
v 0.10667680 -0.00137424 -0.07454986
v 0.07245535 0.01870978 -0.07522280
v 0.06413891 0.01820324 -0.08634711
v 0.09445265 0.00930336 -0.06789558
v 0.07637113 0.01954589 -0.06211675
v 0.11512970 -0.00213421 -0.05523296
v 0.12482160 -0.01461679 -0.05964191
v 0.09982435 0.00972119 -0.05090469
v 0.07868564 0.02093533 -0.04729902
v 0.12088390 -0.00405070 -0.03486494
v 0.13151080 -0.01695719 -0.03767505
v 0.10300610 0.01016655 -0.03226726
v 0.08096348 0.02163983 -0.02976664
v 0.12438340 -0.00617733 -0.01421527
v 0.13563320 -0.01985092 -0.01517463
v 0.10642620 0.00876183 -0.01261786
v 0.08304369 0.02187852 -0.01141486
v 0.13491850 -0.02121286 0.00844605
v 0.14041310 -0.03176965 -0.01598266
v 0.13911900 -0.03298732 0.00891693
v 0.12436710 -0.00732890 0.00745434
v 0.08439297 0.02146027 0.00684390
v 0.12887450 -0.02015726 0.03153375
v 0.08283588 0.02130675 0.02471860
v 0.07279329 -0.00594294 -0.11633390
v 0.04462692 -0.01696232 -0.12983940
v 0.07229023 -0.01847601 -0.12078430
v 0.04504019 -0.00470673 -0.12579020
v 0.01583235 -0.01606984 -0.13454770
v 0.04491349 0.00642967 -0.11669350
v 0.07125023 0.00443679 -0.10726750
v 0.06898773 0.01259862 -0.09583661
v 0.01698248 -0.00327327 -0.13105190
v -0.01306059 -0.01467845 -0.13566900
v -0.01185613 -0.00270872 -0.13233610
v 0.01891695 0.00727380 -0.12194040
v -0.01093081 0.00727618 -0.12328980
v 0.04605746 0.01531604 -0.10330740
v 0.06413891 0.01820324 -0.08634711
v 0.04881226 0.02176363 -0.08694678
v 0.02090428 0.01647251 -0.10772920
v -0.00785557 0.01611622 -0.11091800
v 0.02453109 0.02393625 -0.09079798
v -0.00158212 0.02368459 -0.09559075
v 0.00859887 -0.04900803 -0.05025847
v -0.00811773 -0.04912817 -0.07032479
v -0.00307015 -0.04901706 -0.04950684
v 0.00810495 -0.04910609 -0.06985509
v 0.01934231 -0.04902390 -0.05006628
v -0.01119507 -0.04887007 -0.09146263
v 0.02333979 -0.04911812 -0.06779155
v 0.02950628 -0.04902507 -0.05159499
v 0.03654745 -0.04909260 -0.06311285
v 0.00957019 -0.04889039 -0.09093475
v -0.01372524 -0.04692021 -0.10974270
v 0.02954534 -0.04895217 -0.08716741
v 0.04814063 -0.04908453 -0.08104572
v 0.05820543 -0.04807003 -0.09708110
v 0.01149045 -0.04713596 -0.10906460
v 0.03538427 -0.04765886 -0.10528840
v 0.03994668 -0.04116284 -0.11905200
v 0.06526691 -0.04138990 -0.11011650
v 0.06988550 -0.03088087 -0.11796500
v 0.01261327 -0.04002219 -0.12345840
v -0.01407004 -0.03871647 -0.12384060
v 0.04233360 -0.03015220 -0.12787950
v 0.01455336 -0.02877843 -0.13213740
v -0.01387372 -0.02755076 -0.13277090
v 0.07245535 0.01870978 -0.07522280
v 0.04881226 0.02176363 -0.08694678
v 0.06413891 0.01820324 -0.08634711
v 0.05310348 0.02502261 -0.07227835
v 0.07637113 0.01954589 -0.06211675
v 0.02453109 0.02393625 -0.09079798
v 0.05589750 0.02696810 -0.05850421
v 0.07868564 0.02093533 -0.04729902
v 0.02969933 0.02892330 -0.07186102
v -0.00158212 0.02368459 -0.09559075
v 0.00171376 0.02978078 -0.07612672
v 0.03445065 0.03120251 -0.05667151
v 0.00496586 0.03332909 -0.05786873
v 0.05720304 0.02850188 -0.04397980
v 0.08096348 0.02163983 -0.02976664
v 0.03898542 0.03196677 -0.04266060
v 0.01222929 0.03568753 -0.03899663
v 0.04666943 0.03171495 -0.02554326
v -0.00061087 0.03734128 -0.02349058
v 0.06046035 0.03000282 -0.02863867
v 0.08304369 0.02187852 -0.01141486
v 0.04460218 0.03276222 -0.00825414
v 0.06185980 0.03013963 -0.00970343
v 0.08439297 0.02146027 0.00684390
v 0.06315588 0.03006660 0.00813212
v 0.08283588 0.02130675 0.02471860
v 0.06335047 0.02961646 0.02454521
v 0.04575419 0.03246336 0.00910079
v 0.04595759 0.03166130 0.02521584
v 0.02122483 0.03755279 -0.00444102
v 0.02383078 0.03728522 0.01229474
v 0.02604932 0.03623791 0.02719801
v -0.01140809 0.03756093 -0.01620023
v -0.03643326 0.03421777 -0.02673439
v -0.03378980 0.03624193 -0.01053055
v -0.00761375 0.03824735 0.00100300
v -0.03213738 0.03682556 0.00545715
v -0.00458535 0.03800491 0.01668785
v -0.00190120 0.03708941 0.03128427
v -0.02905141 0.03676077 0.02092473
v -0.02703418 0.03586671 0.03603886
v -0.02553912 -0.00808434 0.13487070
v -0.00422148 -0.00720432 0.13533300
v -0.00393734 -0.01914714 0.13695390
v -0.02541729 -0.01961259 0.13667860
v -0.04843816 -0.02032555 0.13184620
v -0.04806095 -0.00881529 0.12999150
v -0.07081675 -0.01005081 0.12019630
v -0.07166604 -0.02164689 0.12197540
v -0.02514221 -0.03167462 0.13224590
v -0.00353821 -0.03111451 0.13323830
v -0.00318689 -0.04126795 0.12330550
v -0.02335301 -0.04199434 0.12196450
v -0.04714367 -0.03210220 0.12729140
v -0.06898835 -0.03297469 0.11742180
v -0.09265114 -0.02348515 0.10684030
v 0.01580941 -0.00678865 0.13331110
v -0.00393734 -0.01914714 0.13695390
v -0.00422148 -0.00720432 0.13533300
v 0.01661280 -0.01876366 0.13521660
v -0.00353821 -0.03111451 0.13323830
v 0.01677032 -0.03096348 0.13171160
v -0.00318689 -0.04126795 0.12330550
v 0.01664349 -0.04132896 0.12245270
v 0.03706164 -0.01826924 0.13059530
v 0.03739323 -0.03062260 0.12777590
v 0.03622595 -0.04115677 0.11908230
v 0.05523476 -0.04042026 0.11255410
v 0.05730714 -0.02967150 0.12065620
v 0.05762990 -0.01734154 0.12309460
v 0.07704435 -0.02936735 0.11010410
v 0.07343037 -0.04033175 0.10375400
v 0.07794148 -0.01733009 0.11176660
v 0.09626727 -0.03011581 0.09528679
v 0.09135536 -0.04110595 0.09079318
v 0.09616012 -0.01685417 0.09479719
v 0.10620830 -0.04142965 0.07373374
v 0.11115450 -0.03030368 0.07615788
v -0.04411841 -0.04237223 0.11683160
v -0.06371333 -0.04288174 0.10825160
v -0.08926759 -0.03510908 0.10373140
v -0.10945910 -0.02511255 0.08802753
v -0.03840919 -0.04817824 0.10140500
v -0.05614218 -0.04852416 0.09367376
v -0.02011952 -0.04790052 0.10626650
v -0.00182968 -0.04760946 0.10806290
v -0.01522979 -0.04901091 0.08592231
v 0.00066201 -0.04897883 0.08800804
v 0.00379394 -0.04905511 0.06568602
v -0.03062973 -0.04905899 0.08158831
v -0.04364897 -0.04901824 0.07344756
v -0.07151617 -0.04875064 0.08320972
v -0.08253349 -0.04449011 0.09573742
v -0.10606040 -0.03671249 0.08615825
v -0.11836050 -0.03786981 0.06693022
v -0.12148550 -0.02598837 0.06810690
v -0.09740054 -0.04544412 0.08000130
v -0.12877750 -0.03914814 0.04736688
v -0.13152230 -0.02767618 0.04783280
v -0.11900880 -0.04677615 0.04340272
v -0.10954400 -0.04586441 0.06233591
v -0.10357130 -0.04887115 0.03769528
v -0.09479638 -0.04867562 0.05418776
v -0.08046079 -0.04892786 0.02957830
v -0.08467595 -0.04873222 0.06956129
v -0.07335392 -0.04893211 0.04365848
v -0.05169547 -0.04891961 0.02162267
v -0.06547298 -0.04894239 0.05584743
v -0.04687466 -0.04892545 0.03208394
v -0.02605589 -0.04894396 0.01544776
v -0.05552233 -0.04898449 0.06569748
v -0.02362848 -0.04897387 0.02499161
v -0.00758898 -0.04896273 0.01217465
v -0.04126570 -0.04896875 0.04124678
v -0.03576289 -0.04900295 0.04857796
v -0.00689240 -0.04900000 0.02160586
v 0.00703529 -0.04895451 0.01007968
v 0.00727528 -0.04899357 0.01991287
v -0.00619666 -0.04902142 0.03206887
v 0.00700619 -0.04899456 0.03112485
v 0.00603609 -0.04899192 0.04601546
v -0.02104606 -0.04899461 0.03360733
v -0.00653763 -0.04901059 0.04464230
v -0.03367566 -0.04901574 0.05967811
v -0.01990470 -0.04902780 0.04456631
v -0.00970177 -0.04904840 0.06366035
v -0.02117694 -0.04904914 0.05833216
v 0.13201240 -0.03271702 0.03360793
v 0.13606550 -0.02936374 -0.03992105
v 0.12831990 -0.02668657 -0.06210826
v 0.11682130 -0.02407977 -0.08436776
v 0.09775329 -0.02090161 -0.10510120
v 0.11867340 -0.04790910 0.03043459
v 0.11815660 -0.04177040 0.05443403
v 0.12866890 -0.04263633 0.03295457
v 0.10867190 -0.04776359 0.05006039
v 0.09542984 -0.04901822 0.04442161
v 0.10507070 -0.04896026 0.02698382
v 0.09692812 -0.04777376 0.06742954
v 0.08439498 -0.04908790 0.05926574
v 0.08004077 -0.04906680 0.03869322
v 0.08893794 -0.04897830 0.02373038
v 0.08312702 -0.04797678 0.08205421
v 0.06739961 -0.04779842 0.09274824
v 0.06931100 -0.04909868 0.05212630
v 0.06397607 -0.04897898 0.03442485
v 0.07099401 -0.04893302 0.02090586
v 0.07133879 -0.04915516 0.07152330
v 0.05125095 -0.04768556 0.09998897
v 0.05657456 -0.04902403 0.04865525
v 0.04845162 -0.04894595 0.03185141
v 0.05274154 -0.04895341 0.01919122
v 0.06426417 -0.04913837 0.06264163
v 0.05362419 -0.04908843 0.06346888
v 0.04433114 -0.04898104 0.04674635
v 0.05931952 -0.04918463 0.07845153
v 0.03363480 -0.04896244 0.03077843
v 0.03620258 -0.04895647 0.01845700
v 0.04261758 -0.04906939 0.06464153
v 0.04624324 -0.04912842 0.08321814
v 0.03170902 -0.04899831 0.04631551
v 0.02022530 -0.04898186 0.03078239
v 0.02109054 -0.04896753 0.01867322
v 0.00727528 -0.04899357 0.01991287
v 0.00700619 -0.04899456 0.03112485
v 0.01889542 -0.04898292 0.04633635
v 0.00603609 -0.04899192 0.04601546
v 0.03079621 -0.04907983 0.06589749
v 0.01761652 -0.04906812 0.06638684
v 0.00379394 -0.04905511 0.06568602
v 0.03200838 -0.04903958 0.08662787
v 0.01629392 -0.04898650 0.08823267
v 0.00066201 -0.04897883 0.08800804
v 0.03390885 -0.04780031 0.10482440
v 0.01619987 -0.04769845 0.10759430
v -0.00182968 -0.04760946 0.10806290
v 0.11271230 -0.00438513 0.04967367
v 0.10408950 0.00891742 0.02603987
v 0.11976780 -0.00633931 0.02853271
v 0.12044560 -0.01822154 0.05332766
v 0.12887450 -0.02015726 0.03153375
v 0.13201240 -0.03271702 0.03360793
v 0.11011540 -0.01727084 0.07441419
v 0.10393380 -0.00381740 0.07014165
v 0.09146313 -0.00478225 0.09072593
v 0.12214810 -0.03123081 0.05528830
v 0.07495180 -0.00530106 0.10741240
v 0.06982423 0.00470531 0.10113820
v 0.05579102 -0.00595976 0.11984010
v 0.05280228 0.00383774 0.11301870
v 0.06327884 0.01281967 0.09406710
v 0.07241795 0.01495662 0.07925548
v 0.03609406 -0.00653425 0.12783130
v 0.03368635 0.00339595 0.12122170
v 0.01474290 0.00316660 0.12663740
v -0.00552262 0.00254558 0.12892220
v -0.00679429 0.00963465 0.12002440
v 0.01227666 0.01055000 0.11774030
v -0.00874914 0.01513594 0.10990540
v 0.03062187 0.01076796 0.11275880
v 0.00963733 0.01646742 0.10765770
v -0.01481716 0.02080574 0.09900144
v 0.04839075 0.01141603 0.10568890
v 0.00833612 0.02208498 0.09648371
v -0.01343551 0.02555519 0.08752567
v 0.02825635 0.01656381 0.10388780
v 0.00737923 0.02684338 0.08408424
v -0.01655694 0.02927899 0.07454607
v 0.04419941 0.01704199 0.09829750
v 0.02701504 0.02165617 0.09419830
v 0.00613600 0.03030552 0.07129431
v -0.02014038 0.03215289 0.06149032
v 0.02734485 0.02583786 0.08285230
v 0.00409702 0.03339270 0.05798911
v -0.02359159 0.03421526 0.04905461
v 0.03849190 0.02073842 0.09248994
v 0.02827517 0.02903796 0.06994665
v 0.04396702 0.02286428 0.08422811
v 0.05359359 0.01877591 0.08889258
v 0.00107720 0.03558789 0.04466191
v -0.02703418 0.03586671 0.03603886
v -0.00190120 0.03708941 0.03128427
v 0.02785190 0.03178200 0.05628198
v 0.04513128 0.02590395 0.07195029
v 0.05995802 0.02176047 0.07502877
v 0.02725915 0.03429590 0.04162220
v 0.02604932 0.03623791 0.02719801
v 0.04622999 0.02827313 0.05652975
v 0.04606007 0.02945376 0.04064781
v 0.04595759 0.03166130 0.02521584
v 0.06171671 0.02488860 0.05900789
v 0.06261597 0.02766384 0.04153406
v 0.06335047 0.02961646 0.02454521
v 0.07757476 0.01797766 0.06146939
v 0.08054478 0.02043192 0.04272049
v 0.08283588 0.02130675 0.02471860
v 0.08366053 0.00611434 0.08467239
v 0.09257498 0.00827228 0.06539875
v 0.09909805 0.00957108 0.04573494
v -0.02667652 0.02152720 0.09544425
v -0.01343551 0.02555519 0.08752567
v -0.01481716 0.02080574 0.09900144
v -0.01655694 0.02927899 0.07454607
v -0.02335248 0.01924324 0.10120390
v -0.00874914 0.01513594 0.10990540
v -0.02603491 0.01409250 0.11068520
v -0.00679429 0.00963465 0.12002440
v -0.02586731 0.00889277 0.11921210
v -0.00552262 0.00254558 0.12892220
v -0.03854165 0.01666149 0.10226620
v -0.03495505 0.02557969 0.08048027
v -0.02556091 0.00177760 0.12839240
v -0.04466818 0.00910853 0.11285990
v -0.04678538 0.00093138 0.12337910
v -0.05013802 0.01964165 0.09084269
v -0.03931006 0.02814818 0.06741574
v -0.02014038 0.03215289 0.06149032
v -0.06752069 0.00005403 0.11299930
v -0.06061348 0.01027853 0.10298220
v -0.05775198 0.02262294 0.07828526
v -0.07385682 0.01161521 0.08925467
v -0.04324602 0.02973756 0.05479947
v -0.02359159 0.03421526 0.04905461
v -0.08433226 -0.00019545 0.09841719
v -0.06289857 0.02523728 0.06384721
v -0.04544323 0.03046987 0.04262460
v -0.02703418 0.03586671 0.03603886
v -0.02905141 0.03676077 0.02092473
v -0.04712279 0.03282597 0.02702832
v -0.07016485 0.02824409 0.03300434
v -0.06695022 0.02737441 0.04839753
v -0.09609720 0.01737193 0.03612745
v -0.08972446 0.01648841 0.05572365
v -0.11590350 0.00172570 0.04143405
v -0.08300696 0.01419685 0.07339189
v -0.10763440 0.00247813 0.06179648
v -0.12744180 -0.01346471 0.04601981
v -0.09773510 0.00075562 0.08137096
v -0.11806820 -0.01248871 0.06624886
v -0.10619250 -0.01211999 0.08589147
v -0.09083913 -0.01187132 0.10482210
vn -0.96773480 0.06107866 0.24445580
vn -0.91806640 0.06109434 0.39169050
vn -0.74364850 -0.56106350 0.36358590
vn -0.30849440 -0.93567710 0.17128800
vn -0.77316660 -0.59641090 0.21565580
vn -0.29905720 -0.94960690 0.09387024
vn -0.77226630 -0.63529900 0.00032093
vn -0.05232152 -0.99792220 0.03759899
vn -0.29220650 -0.95635350 -0.00182708
vn -0.72510000 -0.65423250 -0.21496460
vn -0.27752770 -0.95586440 -0.09644450
vn -0.65450480 -0.66943380 -0.35139960
vn -0.26836120 -0.94943880 -0.16293630
vn -0.57288260 -0.69157210 -0.43992450
vn -0.25187740 -0.94437430 -0.21145870
vn -0.04075436 -0.99903230 -0.01654488
vn -0.04359780 -0.99863140 -0.02888789
vn -0.04563595 -0.99821970 -0.03840453
vn 0.00043449 -0.99999420 0.00340314
vn 0.00082254 -0.99999730 0.00222407
vn 0.00058195 -0.99999320 0.00366052
vn -0.04185629 -0.99912220 0.00168982
vn 0.00095159 -0.99999580 0.00273909
vn -0.00023782 -0.99999110 0.00422724
vn 0.00184709 -0.99999770 0.00108972
vn -0.04482311 -0.99882430 0.01846422
vn 0.00029353 -0.99999630 0.00270885
vn 0.00151996 -0.99999270 0.00351413
vn 0.00112812 -0.99999820 0.00153283
vn 0.00170817 -0.99999690 0.00185871
vn 0.00096505 -0.99999640 0.00251807
vn -0.00066906 -0.99999390 0.00344647
vn 0.00053195 -0.99999400 0.00343077
vn 0.00263417 -0.99999340 0.00250237
vn 0.00172953 -0.99999560 0.00241868
vn 0.00119081 -0.99999870 0.00111548
vn 0.00072830 -0.99999930 0.00099734
vn -0.00011199 -1.00000000 -0.00002797
vn 0.00054197 -0.99999870 0.00150867
vn 0.00029605 -0.99999870 0.00157657
vn 0.00064060 -0.99999900 0.00125789
vn 0.00031937 -0.99999990 0.00054136
vn -0.00027398 -0.99999990 -0.00042473
vn -0.00123298 -0.99999830 -0.00139510
vn 0.00004879 -1.00000000 -0.00014998
vn 0.00021877 -0.99999990 -0.00037206
vn 0.00014169 -0.99999830 -0.00185450
vn -0.00039501 -0.99999850 -0.00170579
vn -0.00082520 -0.99999540 -0.00293087
vn 0.00037074 -0.99999570 -0.00290172
vn 0.73773970 0.65630590 0.15812230
vn 0.59441480 0.79847440 0.09544358
vn 0.58779380 0.80801100 0.04020782
vn 0.22599590 -0.80113180 -0.55417830
vn 0.51367010 -0.47646760 -0.71352760
vn 0.35447960 -0.45511680 -0.81683110
vn 0.29882510 -0.83258690 -0.46637170
vn 0.66989180 -0.50202410 -0.54700700
vn 0.09557275 -0.98067300 -0.17072290
vn 0.08216757 -0.97093290 -0.22480610
vn 0.00584569 -0.99948290 -0.03161771
vn 0.35848850 -0.87460200 -0.32643110
vn 0.00765383 -0.99981650 -0.01756487
vn -0.00024500 -0.99999980 0.00069866
vn 0.36646540 -0.90700930 -0.20745410
vn 0.75536630 -0.53132580 -0.38355540
vn 0.78329040 -0.57001790 -0.24806410
vn 0.10130970 -0.98981540 -0.10000940
vn 0.33018880 -0.93553730 -0.12547990
vn 0.77801840 -0.62431480 -0.07013131
vn 0.09202488 -0.99430850 -0.05368385
vn 0.00810168 -0.99994270 -0.00700279
vn -0.00075496 -0.99999200 0.00394329
vn 0.29366340 -0.95524250 -0.03568604
vn 0.74374990 -0.65653250 0.12570300
vn 0.07276212 -0.99686320 -0.03113537
vn 0.00060893 -0.99998630 0.00521281
vn 0.00085983 -0.99998130 0.00605680
vn -0.00031617 -0.99999500 0.00315399
vn -0.00236017 -0.99998770 0.00435614
vn -0.00033169 -0.99999870 0.00162528
vn -0.00192313 -0.99998860 0.00437971
vn 0.00032776 -0.99999980 0.00059877
vn 0.00686169 -0.99997570 -0.00131064
vn -0.00081536 -0.99999550 0.00289202
vn 0.00050391 -0.99999950 -0.00093617
vn 0.00318258 -0.99999500 0.00024384
vn -0.00010901 -1.00000000 0.00001408
vn 0.00046055 -0.99999900 -0.00134296
vn 0.05911651 -0.99821680 -0.00826465
vn 0.00005868 -1.00000000 -0.00012596
vn 0.00015534 -0.99999880 -0.00157813
vn 0.00028878 -0.99999950 -0.00093017
vn -0.00075223 -0.99999540 -0.00297271
vn -0.00040729 -0.99999880 -0.00147838
vn 0.00031705 -0.99999460 -0.00328607
vn 0.05118020 -0.99867250 0.00581521
vn 0.04266896 -0.99899040 0.01405403
vn 0.25658270 -0.96071980 0.10574830
vn 0.26761400 -0.96260880 0.04203825
vn 0.70348250 -0.65347070 0.27944310
vn -0.48318330 0.19407500 -0.85373800
vn -0.67392990 0.30695850 -0.67200820
vn -0.64519140 -0.27871450 -0.71136940
vn -0.80966070 -0.18716040 -0.55625580
vn -0.78229970 0.39545150 -0.48127470
vn -0.43068730 -0.36059620 -0.82733240
vn -0.43635390 -0.71685370 -0.54379780
vn -0.57288260 -0.69157210 -0.43992450
vn -0.25187740 -0.94437430 -0.21145870
vn -0.20794100 -0.93727920 -0.27976440
vn -0.04563595 -0.99821970 -0.03840453
vn -0.29803090 -0.72901590 -0.61620890
vn -0.17100950 -0.74103630 -0.64932330
vn -0.14955270 -0.93478300 -0.32220300
vn -0.22647610 -0.40360220 -0.88646150
vn -0.26218190 0.09975161 -0.95984910
vn -0.05615919 0.04498259 -0.99740800
vn -0.06539334 -0.42081510 -0.90478630
vn -0.05769351 -0.75445680 -0.65380910
vn -0.02846330 -0.94899240 -0.31401140
vn -0.08687362 -0.93949360 -0.33136790
vn -0.00314480 -0.99803130 -0.06263778
vn -0.01484172 -0.99763680 -0.06708739
vn -0.02987466 -0.99720840 -0.06843144
vn 0.00062635 -0.99999790 0.00201914
vn 0.00251368 -0.99999450 -0.00216987
vn 0.00201167 -0.99998820 -0.00442474
vn 0.00207120 -0.99999120 0.00364701
vn -0.03809744 -0.99775980 -0.05499030
vn 0.00165782 -0.99999320 0.00329073
vn 0.00263417 -0.99999340 0.00250237
vn 0.00151996 -0.99999270 0.00351413
vn 0.00025659 -0.99999330 0.00365118
vn 0.00043449 -0.99999420 0.00340314
vn -0.00012256 -0.99999180 0.00406620
vn -0.00023782 -0.99999110 0.00422724
vn -0.00025887 -0.99999090 0.00425556
vn 0.00058195 -0.99999320 0.00366052
vn -0.24363480 0.53812990 -0.80688190
vn -0.04316570 0.48966470 -0.87084170
vn -0.03190575 0.74857480 -0.66228220
vn -0.43063620 0.61664230 -0.65901800
vn -0.20079450 0.75717320 -0.62158690
vn -0.00759974 0.85693600 -0.51536660
vn -0.34873250 0.79768290 -0.49202400
vn -0.54028770 0.68118480 -0.49404100
vn -0.14044740 0.85636280 -0.49690770
vn 0.01599336 0.93008810 -0.36698820
vn -0.59363600 0.72483310 -0.34959010
vn -0.44602040 0.85670660 -0.25907440
vn -0.41980270 0.83360830 -0.35897480
vn -0.28761010 0.94136890 -0.17636630
vn -0.27898350 0.92930430 -0.24199510
vn -0.12476600 0.98508530 -0.11849230
vn -0.24879250 0.89783190 -0.36331810
vn -0.07299382 0.92430620 -0.37460650
vn 0.00917588 0.97079430 -0.23973780
vn -0.10543080 0.95953030 -0.26112440
vn -0.02194893 0.99332620 -0.11323150
vn -0.10845320 0.98609680 -0.12590050
vn 0.02692396 0.99613730 -0.08357950
vn -0.00308662 0.99227170 -0.12404610
vn -0.11575500 0.98027680 -0.16018160
vn -0.83270220 0.45299380 -0.31843940
vn -0.78229970 0.39545150 -0.48127470
vn -0.59363600 0.72483310 -0.34959010
vn -0.62983670 0.74437750 -0.22182880
vn -0.65642230 0.74717100 -0.10414010
vn -0.46093450 0.87083380 -0.17084440
vn -0.44602040 0.85670660 -0.25907440
vn -0.48254990 0.87151180 -0.08725069
vn -0.30955480 0.94158300 -0.13265480
vn -0.28761010 0.94136890 -0.17636630
vn -0.49951950 0.86622050 -0.01192865
vn -0.66637470 0.74560130 0.00485316
vn -0.30436600 0.95006530 -0.06882758
vn -0.16586590 0.98119810 -0.09868480
vn -0.12476600 0.98508530 -0.11849230
vn -0.19581720 0.97901460 -0.05644470
vn -0.11575500 0.98027680 -0.16018160
vn -0.15369980 0.98647150 -0.05701334
vn -0.19951260 0.97927070 -0.03497852
vn -0.14212750 0.98984590 -0.00220662
vn -0.30783500 0.95102600 -0.02805915
vn -0.19860230 0.98007450 -0.00331573
vn -0.30699630 0.95161720 0.01334626
vn -0.18420870 0.98047850 0.06876869
vn -0.11877210 0.99140860 0.05478981
vn -0.29025430 0.95325740 0.08398119
vn -0.49864590 0.86547150 0.04807595
vn -0.48669350 0.86490310 0.12276810
vn -0.66521090 0.73981200 0.10085930
vn -0.85512320 0.51814890 0.01691391
vn -0.65505390 0.73088920 0.19158640
vn -0.83925720 0.51420100 0.17676090
vn -0.81526860 0.49951620 0.29295170
vn -0.80966070 -0.18716040 -0.55625580
vn -0.90719600 -0.08894660 -0.41119810
vn -0.97294430 -0.01481215 -0.23056420
vn -0.85276410 0.49810870 -0.15710180
vn -0.99936560 0.03324116 0.01278675
vn 0.00046055 -0.99999900 -0.00134296
vn 0.00053826 -0.99999950 -0.00091151
vn 0.00028878 -0.99999950 -0.00093017
vn 0.00020778 -0.99999880 -0.00151805
vn 0.00050391 -0.99999950 -0.00093617
vn 0.00043393 -0.99999790 -0.00205102
vn 0.00097040 -0.99999830 -0.00158334
vn 0.00089003 -0.99999740 -0.00214405
vn 0.00037074 -0.99999570 -0.00290172
vn 0.00019747 -0.99999950 -0.00097518
vn 0.00032776 -0.99999980 0.00059877
vn 0.00002665 -0.99999920 -0.00128480
vn 0.00014169 -0.99999830 -0.00185450
vn 0.00021877 -0.99999990 -0.00037206
vn 0.00017109 -1.00000000 -0.00036686
vn -0.00033169 -0.99999870 0.00162528
vn 0.00001515 -1.00000000 -0.00039340
vn 0.00014633 -1.00000000 0.00022072
vn 0.00056421 -0.99999980 0.00054944
vn 0.00064060 -0.99999900 0.00125789
vn 0.00138697 -0.99999790 0.00156503
vn 0.00172953 -0.99999560 0.00241868
vn 0.00050345 -0.99999810 0.00187645
vn -0.00031617 -0.99999500 0.00315399
vn 0.00060893 -0.99998630 0.00521281
vn 0.00132820 -0.99999430 0.00312209
vn 0.00263417 -0.99999340 0.00250237
vn 0.00207120 -0.99999120 0.00364701
vn 0.00034008 -0.99998960 0.00453993
vn 0.00059496 -0.99999030 0.00435107
vn 0.00085983 -0.99998130 0.00605680
vn -0.00044933 -0.99998560 0.00535294
vn 0.42393900 0.02935171 -0.90521510
vn 0.61341600 0.47834620 -0.62841520
vn 0.41474050 0.47492760 -0.77616640
vn 0.53703050 0.71227320 -0.45195700
vn 0.36870340 0.71695860 -0.59163170
vn 0.74890150 0.49218080 -0.44373950
vn 0.46318610 0.82663940 -0.31957160
vn 0.33411190 0.83212980 -0.44263900
vn 0.62538170 0.71625080 -0.30964920
vn 0.35645220 0.90525940 -0.23118680
vn 0.28170370 0.90171770 -0.32794530
vn 0.50573700 0.83464810 -0.21815760
vn 0.38140930 0.90941700 -0.16579380
vn 0.66107330 0.72675530 -0.18657140
vn 0.81512950 0.50775020 -0.27884330
vn 0.52080010 0.84232850 -0.13874430
vn 0.39409870 0.91056300 -0.12474470
vn 0.68581610 0.72240750 -0.08822443
vn 0.84159340 0.51976580 -0.14684660
vn 0.53826370 0.83988000 -0.06981191
vn 0.41486730 0.90697350 -0.07269153
vn 0.70737780 0.70681210 -0.00576750
vn 0.85930420 0.51108730 -0.01964783
vn 0.56773300 0.82312430 -0.01206466
vn 0.43378580 0.90069220 -0.02415582
vn 0.86747840 0.48046260 0.12898380
vn 0.99603300 0.07137798 -0.05313570
vn 0.98636360 0.03195416 0.16144910
vn 0.72671960 0.68215430 0.08089602
vn 0.45064030 0.89257090 0.01551136
vn 0.86460390 0.43488250 0.25166900
vn 0.44916180 0.89079560 0.06882420
vn 0.41474050 0.47492760 -0.77616640
vn 0.24670820 0.03989269 -0.96826840
vn 0.42393900 0.02935171 -0.90521510
vn 0.24428730 0.46568950 -0.85056280
vn 0.10077430 0.03510398 -0.99428980
vn 0.21409950 0.72787060 -0.65143360
vn 0.36870340 0.71695860 -0.59163170
vn 0.33411190 0.83212980 -0.44263900
vn 0.10996500 0.47050780 -0.87551700
vn -0.05615919 0.04498259 -0.99740800
vn -0.04316570 0.48966470 -0.87084170
vn 0.09696355 0.74246560 -0.66282960
vn -0.03190575 0.74857480 -0.66228220
vn 0.18377230 0.85781970 -0.47997200
vn 0.28170370 0.90171770 -0.32794530
vn 0.17339520 0.92693630 -0.33275120
vn 0.08751331 0.86594540 -0.49242260
vn -0.00759974 0.85693600 -0.51536660
vn 0.09139527 0.93308970 -0.34783680
vn 0.01599336 0.93008810 -0.36698820
vn 0.00034008 -0.99998960 0.00453993
vn 0.00201167 -0.99998820 -0.00442474
vn 0.00207120 -0.99999120 0.00364701
vn -0.00003767 -0.99999070 -0.00430996
vn -0.00044933 -0.99998560 0.00535294
vn -0.00314480 -0.99803130 -0.06263778
vn -0.00090764 -0.99999450 -0.00319453
vn 0.00085983 -0.99998130 0.00605680
vn -0.00024500 -0.99999980 0.00069866
vn -0.00041114 -0.99845700 -0.05553073
vn -0.02846330 -0.94899240 -0.31401140
vn 0.00222510 -0.99900670 -0.04450649
vn 0.00584569 -0.99948290 -0.03161771
vn 0.08216757 -0.97093290 -0.22480610
vn 0.00578229 -0.95885220 -0.28384670
vn 0.04628923 -0.96566410 -0.25563680
vn 0.13190500 -0.78924820 -0.59974030
vn 0.22599590 -0.80113180 -0.55417830
vn 0.35447960 -0.45511680 -0.81683110
vn 0.02531961 -0.77379940 -0.63292450
vn -0.05769351 -0.75445680 -0.65380910
vn 0.20244790 -0.43415740 -0.87779380
vn 0.06376941 -0.42250200 -0.90411580
vn -0.06539334 -0.42081510 -0.90478630
vn 0.35645220 0.90525940 -0.23118680
vn 0.17339520 0.92693630 -0.33275120
vn 0.28170370 0.90171770 -0.32794530
vn 0.20634490 0.95311460 -0.22134720
vn 0.38140930 0.90941700 -0.16579380
vn 0.09139527 0.93308970 -0.34783680
vn 0.24214820 0.95838860 -0.15118010
vn 0.39409870 0.91056300 -0.12474470
vn 0.10168490 0.96722810 -0.23265870
vn 0.01599336 0.93008810 -0.36698820
vn 0.00917588 0.97079430 -0.23973780
vn 0.12026980 0.98072720 -0.15397850
vn -0.02194893 0.99332620 -0.11323150
vn 0.25330860 0.96053270 -0.11494190
vn 0.41486730 0.90697350 -0.07269153
vn 0.13139870 0.98837660 -0.07646040
vn 0.02692396 0.99613730 -0.08357950
vn 0.13446650 0.98870100 -0.06624977
vn -0.00308662 0.99227170 -0.12404610
vn 0.27174690 0.95957820 -0.07323512
vn 0.43378580 0.90069220 -0.02415582
vn 0.15270320 0.98670230 -0.05568221
vn 0.27474410 0.96124180 -0.02302115
vn 0.45064030 0.89257090 0.01551136
vn 0.27719190 0.96073980 0.01199022
vn 0.44916180 0.89079560 0.06882420
vn 0.27152480 0.95958130 0.07401397
vn 0.17886310 0.98375140 0.01553713
vn 0.18019530 0.98035030 0.08026835
vn 0.11065660 0.99243250 -0.05322397
vn 0.11413690 0.99313490 0.02560910
vn 0.12985300 0.98806290 0.08288616
vn -0.04367094 0.99680770 -0.06683804
vn -0.11575500 0.98027680 -0.16018160
vn -0.15369980 0.98647150 -0.05701334
vn -0.01591868 0.99984570 -0.00741869
vn -0.14212750 0.98984590 -0.00220662
vn -0.00339963 0.99927060 0.03803465
vn 0.00762678 0.99592550 0.08985686
vn -0.11877210 0.99140860 0.05478981
vn -0.11235880 0.98732960 0.11205240
vn -0.12464980 0.35111780 0.92799720
vn 0.02643684 0.35369240 0.93498810
vn 0.03090667 -0.08689024 0.99573840
vn -0.11638380 -0.10553870 0.98758100
vn -0.30150310 -0.11816440 0.94611470
vn -0.30491200 0.37143640 0.87696270
vn -0.48646800 0.40119980 0.77613630
vn -0.48625930 -0.11400060 0.86634620
vn -0.10035310 -0.54509850 0.83234410
vn 0.02085784 -0.51659010 0.85597870
vn 0.00722772 -0.82836850 0.56013690
vn -0.06391341 -0.84179130 0.53600600
vn -0.24453860 -0.56428110 0.78853510
vn -0.37093980 -0.57314130 0.73069330
vn -0.66495770 -0.07155610 0.74344530
vn 0.15599160 0.37331150 0.91449720
vn 0.03090667 -0.08689024 0.99573840
vn 0.02643684 0.35369240 0.93498810
vn 0.15554590 -0.04834694 0.98664480
vn 0.02085784 -0.51659010 0.85597870
vn 0.12076170 -0.48225310 0.86766850
vn 0.00722772 -0.82836850 0.56013690
vn 0.06801755 -0.81249560 0.57898560
vn 0.28526580 0.00410376 0.95843960
vn 0.25020630 -0.44181670 0.86150740
vn 0.16682570 -0.78842560 0.59207620
vn 0.26442680 -0.75398030 0.60132530
vn 0.37992330 -0.39909250 0.83449600
vn 0.42406850 0.07249739 0.90272360
vn 0.51966970 -0.33449370 0.78616620
vn 0.35530620 -0.71951710 0.59670160
vn 0.58123090 0.14814290 0.80014020
vn 0.69026850 -0.24387210 0.68121650
vn 0.47760220 -0.69928250 0.53188350
vn 0.72924540 0.24758210 0.63789030
vn 0.59504780 -0.67493700 0.43632330
vn 0.82880170 -0.14551630 0.54028950
vn -0.15311540 -0.85029320 0.50354430
vn -0.21437190 -0.85798200 0.46680990
vn -0.50311250 -0.57097310 0.64874310
vn -0.80126670 -0.01457683 0.59812970
vn -0.04928629 -0.98170690 0.18390890
vn -0.06377166 -0.98535250 0.15815700
vn -0.01999427 -0.97816570 0.20686280
vn 0.00129636 -0.97460400 0.22393180
vn 0.00014928 -0.99953580 0.03046764
vn -0.00004555 -0.99937430 0.03536840
vn 0.00006917 -0.99999990 0.00043627
vn -0.00304550 -0.99972020 0.02345575
vn -0.00386395 -0.99989800 0.01375493
vn -0.07205659 -0.99057700 0.11646990
vn -0.27243280 -0.87804260 0.39347350
vn -0.63575340 -0.56000840 0.53123260
vn -0.70831110 -0.55419860 0.43721770
vn -0.87540790 0.03318566 0.48224450
vn -0.31907030 -0.90150660 0.29236970
vn -0.74364850 -0.56106350 0.36358590
vn -0.91806640 0.06109434 0.39169050
vn -0.30849440 -0.93567710 0.17128800
vn -0.32746750 -0.91768600 0.22498340
vn -0.05232152 -0.99792220 0.03759899
vn -0.06543875 -0.99657890 0.05048053
vn -0.00066906 -0.99999390 0.00344647
vn -0.07678197 -0.99446760 0.07168438
vn -0.00367792 -0.99998970 0.00264710
vn -0.00011199 -1.00000000 -0.00002797
vn -0.00567812 -0.99998240 0.00173541
vn -0.00115182 -0.99999860 -0.00129650
vn -0.00123298 -0.99999830 -0.00139510
vn -0.00443334 -0.99997220 0.00600441
vn -0.00204612 -0.99999580 -0.00207020
vn -0.00082520 -0.99999540 -0.00293087
vn -0.00209871 -0.99999550 -0.00216198
vn -0.00230014 -0.99999550 -0.00196966
vn -0.00074582 -0.99999650 -0.00253751
vn 0.00037074 -0.99999570 -0.00290172
vn 0.00089003 -0.99999740 -0.00214405
vn 0.00019332 -0.99999980 -0.00075327
vn 0.00124359 -0.99999930 -0.00020401
vn 0.00073413 -0.99999820 -0.00173809
vn -0.00186385 -0.99999620 -0.00204404
vn 0.00083380 -0.99999890 -0.00127071
vn -0.00215936 -0.99999680 -0.00138693
vn -0.00083432 -0.99999820 -0.00173842
vn 0.00095172 -0.99999950 0.00037180
vn -0.00017084 -0.99999980 -0.00064488
vn 0.94134910 -0.00890388 0.33731660
vn 0.96670480 0.09350920 -0.23819680
vn 0.91798410 0.07833333 -0.38880450
vn 0.81702610 0.05443661 -0.57402530
vn 0.63451180 0.03537276 -0.77210340
vn 0.25658270 -0.96071980 0.10574830
vn 0.65989980 -0.65304570 0.37156910
vn 0.70348250 -0.65347070 0.27944310
vn 0.25118950 -0.95571450 0.15334150
vn 0.03906684 -0.99898540 0.02240566
vn 0.04266896 -0.99899040 0.01405403
vn 0.23892820 -0.95282270 0.18719600
vn 0.03886043 -0.99886050 0.02770578
vn 0.00010425 -0.99999260 -0.00383744
vn 0.00031705 -0.99999460 -0.00328607
vn 0.20214520 -0.94930080 0.24075990
vn 0.15192790 -0.94769200 0.28070910
vn -0.00095411 -0.99999200 -0.00388135
vn -0.00225107 -0.99998880 -0.00416521
vn -0.00075223 -0.99999540 -0.00297271
vn 0.03213669 -0.99874070 0.03852637
vn 0.10966340 -0.95547090 0.27395140
vn -0.00321786 -0.99998340 -0.00478904
vn -0.00016747 -0.99999860 -0.00173167
vn 0.00028878 -0.99999950 -0.00093017
vn -0.00135762 -0.99999110 -0.00401593
vn -0.00332379 -0.99998500 -0.00435435
vn -0.00041262 -0.99999310 -0.00369478
vn 0.01881580 -0.99882610 0.04463674
vn 0.00081789 -0.99999920 -0.00097204
vn 0.00053826 -0.99999950 -0.00091151
vn -0.00200651 -0.99999340 -0.00302286
vn 0.01135363 -0.99907460 0.04148542
vn 0.00027401 -0.99999520 -0.00307235
vn 0.00081406 -0.99999950 -0.00060372
vn 0.00097040 -0.99999830 -0.00158334
vn 0.00089003 -0.99999740 -0.00214405
vn 0.00124359 -0.99999930 -0.00020401
vn -0.00011120 -0.99999690 -0.00249996
vn 0.00073413 -0.99999820 -0.00173809
vn -0.00146732 -0.99999830 -0.00114829
vn -0.00103579 -0.99999950 0.00003120
vn 0.00006917 -0.99999990 0.00043627
vn 0.00525518 -0.99925890 0.03812943
vn -0.00017991 -0.99932840 0.03664361
vn -0.00004555 -0.99937430 0.03536840
vn 0.06362964 -0.96611020 0.25016470
vn 0.02056337 -0.97148080 0.23622450
vn 0.00129636 -0.97460400 0.22393180
vn 0.73484470 0.63197110 0.24620250
vn 0.59441480 0.79847440 0.09544358
vn 0.73773970 0.65630590 0.15812230
vn 0.85678260 0.38117850 0.34731330
vn 0.86460390 0.43488250 0.25166900
vn 0.94134910 -0.00890388 0.33731660
vn 0.82120490 0.32136230 0.47153880
vn 0.70689660 0.60473700 0.36686530
vn 0.64370140 0.56344720 0.51785700
vn 0.89635210 -0.06577643 0.43843630
vn 0.53044900 0.51515860 0.67322770
vn 0.45621300 0.69884520 0.55089480
vn 0.39269590 0.46244800 0.79494140
vn 0.33560660 0.67695900 0.65505310
vn 0.37979430 0.81070270 0.44555290
vn 0.42752040 0.84382220 0.32433050
vn 0.27659130 0.41319570 0.86762120
vn 0.23045660 0.67273070 0.70308130
vn 0.12748830 0.67250980 0.72902480
vn 0.00618708 0.66897550 0.74325870
vn -0.00972959 0.82426030 0.56612760
vn 0.08100173 0.82294740 0.56231330
vn -0.01442441 0.87812500 0.47821390
vn 0.16899280 0.80709390 0.56572160
vn 0.04430915 0.87953880 0.47375970
vn -0.02049464 0.90736530 0.41984290
vn 0.26709860 0.79332560 0.54707680
vn 0.03127232 0.91362930 0.40534390
vn -0.03956002 0.94654080 0.32014920
vn 0.11983270 0.86806740 0.48176660
vn 0.02841057 0.95142540 0.30656600
vn -0.05837708 0.96491230 0.25600050
vn 0.20973940 0.86177780 0.46189650
vn 0.09412762 0.91427760 0.39400090
vn 0.02942896 0.97150200 0.23519750
vn -0.07470464 0.97639830 0.20264650
vn 0.09816290 0.95201060 0.28989630
vn 0.02845091 0.98198800 0.18678890
vn -0.09585277 0.98347940 0.15355950
vn 0.15187520 0.91069240 0.38415270
vn 0.11389250 0.96971420 0.21606210
vn 0.18365600 0.93729030 0.29623910
vn 0.28501110 0.88592230 0.36593770
vn 0.01981037 0.98992660 0.14018860
vn -0.11235880 0.98732960 0.11205240
vn 0.00762678 0.99592550 0.08985686
vn 0.13023530 0.97824590 0.16147360
vn 0.18585800 0.95853680 0.21601840
vn 0.30470240 0.91611030 0.26057290
vn 0.13933060 0.98203920 0.12722470
vn 0.12985300 0.98806290 0.08288616
vn 0.18442850 0.97205060 0.14527150
vn 0.18166360 0.97588550 0.12102040
vn 0.18019530 0.98035030 0.08026835
vn 0.28448270 0.94159110 0.18021050
vn 0.26624700 0.95478490 0.13228190
vn 0.27152480 0.95958130 0.07401397
vn 0.43270740 0.87291290 0.22536040
vn 0.43655050 0.88826640 0.14285060
vn 0.44916180 0.89079560 0.06882420
vn 0.53643240 0.73873350 0.40806010
vn 0.56432720 0.77526920 0.28371190
vn 0.58241870 0.79345960 0.17666430
vn -0.11353670 0.92771700 0.35559890
vn -0.03956002 0.94654080 0.32014920
vn -0.02049464 0.90736530 0.41984290
vn -0.05837708 0.96491230 0.25600050
vn -0.07269781 0.89495040 0.44020320
vn -0.01442441 0.87812500 0.47821390
vn -0.10177350 0.86440090 0.49239550
vn -0.00972959 0.82426030 0.56612760
vn -0.11549430 0.81639510 0.56582710
vn 0.00618708 0.66897550 0.74325870
vn -0.17811650 0.88225230 0.43578110
vn -0.13060530 0.94778930 0.29092570
vn -0.12414930 0.66891770 0.73289570
vn -0.23400620 0.81116340 0.53596190
vn -0.27145650 0.67833640 0.68276730
vn -0.22571440 0.89847350 0.37656110
vn -0.14460250 0.96409410 0.22273880
vn -0.07470464 0.97639830 0.20264650
vn -0.41686280 0.68666350 0.59558270
vn -0.33255790 0.81256470 0.47868970
vn -0.26213370 0.91549500 0.30521310
vn -0.40727910 0.81811840 0.40596300
vn -0.15821610 0.97384170 0.16309480
vn -0.09585277 0.98347940 0.15355950
vn -0.52073910 0.68965620 0.50319510
vn -0.27308750 0.93370670 0.23154910
vn -0.16613430 0.97750220 0.12995690
vn -0.11235880 0.98732960 0.11205240
vn -0.11877210 0.99140860 0.05478981
vn -0.18420870 0.98047850 0.06876869
vn -0.29025430 0.95325740 0.08398119
vn -0.27620260 0.94685270 0.16487040
vn -0.48669350 0.86490310 0.12276810
vn -0.46477640 0.85548340 0.22832210
vn -0.65505390 0.73088920 0.19158640
vn -0.44136580 0.83703110 0.32338090
vn -0.62733510 0.71842680 0.30052240
vn -0.81526860 0.49951620 0.29295170
vn -0.58631030 0.69800940 0.41112420
vn -0.78684200 0.47420510 0.39498020
vn -0.73102390 0.45440390 0.50903940
vn -0.63805840 0.42700870 0.64073790
vt 0.56236100 0.34987100
vt 0.57109900 0.39354600
vt 0.59833200 0.38722700
vt 0.62437600 0.37491200
vt 0.58637600 0.34493600
vt 0.60892200 0.33633900
vt 0.57445000 0.29752000
vt 0.65233400 0.35623400
vt 0.59621400 0.29371700
vt 0.56485700 0.24819500
vt 0.58905900 0.24720600
vt 0.55980400 0.20079400
vt 0.58713600 0.20340100
vt 0.56091700 0.15424200
vt 0.59374300 0.15939300
vt 0.61847000 0.24771700
vt 0.61995200 0.20757400
vt 0.62756300 0.17044400
vt 0.67075200 0.18283200
vt 0.66308700 0.21378500
vt 0.72106000 0.19279500
vt 0.62346900 0.28674500
vt 0.71472400 0.21427400
vt 0.75550600 0.18995700
vt 0.66028200 0.24538000
vt 0.63508400 0.32286500
vt 0.75787200 0.20850800
vt 0.77755400 0.18233200
vt 0.71217900 0.23811100
vt 0.66357500 0.27668700
vt 0.67296900 0.30530800
vt 0.68852900 0.32961200
vt 0.78456500 0.19952600
vt 0.79262300 0.17388500
vt 0.80181200 0.19105200
vt 0.71440200 0.26055500
vt 0.72192200 0.28147300
vt 0.73321500 0.30119800
vt 0.75882500 0.22579500
vt 0.78845600 0.21499700
vt 0.80873200 0.20594300
vt 0.76152300 0.24368400
vt 0.76640300 0.26107300
vt 0.77332800 0.27791600
vt 0.79287800 0.23088200
vt 0.81537300 0.22127100
vt 0.82166700 0.23686100
vt 0.79722800 0.24725100
vt 0.80290400 0.26355100
vt 0.82666700 0.25325500
vt 0.60695700 0.89849500
vt 0.61670800 0.94305200
vt 0.65360400 0.93773400
vt 0.91217000 0.79086900
vt 0.87190000 0.82991500
vt 0.92176900 0.82595600
vt 0.86769900 0.80192400
vt 0.82433200 0.83091800
vt 0.85836100 0.77152300
vt 0.89544700 0.75809000
vt 0.87338200 0.72368200
vt 0.82231500 0.80543400
vt 0.84210300 0.73809200
vt 0.84687300 0.68826400
vt 0.77863700 0.80522600
vt 0.77863400 0.82852400
vt 0.73550900 0.82448100
vt 0.81684000 0.77796900
vt 0.73814600 0.80320500
vt 0.69222400 0.82001000
vt 0.77751500 0.77883300
vt 0.80772100 0.74480000
vt 0.82496600 0.70174700
vt 0.69604800 0.79936800
vt 0.64685100 0.81269400
vt 0.73892900 0.77767600
vt 0.81324000 0.66938000
vt 0.83086000 0.66833100
vt 0.79349900 0.67378700
vt 0.79875200 0.70856400
vt 0.77048900 0.67566800
vt 0.77123000 0.71114000
vt 0.74607500 0.67614200
vt 0.77434600 0.74702800
vt 0.74259400 0.71184400
vt 0.72078700 0.67492500
vt 0.74031000 0.74711000
vt 0.71372900 0.71066200
vt 0.69705700 0.67087800
vt 0.70069200 0.77465000
vt 0.70687200 0.74463300
vt 0.68622400 0.70435800
vt 0.67483500 0.66167100
vt 0.66122600 0.69237600
vt 0.67503900 0.73716900
vt 0.64489500 0.72284200
vt 0.66349600 0.76697000
vt 0.62914300 0.75138400
vt 0.61534100 0.77672700
vt 0.65413300 0.79166500
vt 0.60423100 0.80132400
vt 0.12283200 0.26326400
vt 0.06846800 0.28280100
vt 0.07824900 0.30711700
vt 0.02967300 0.32815500
vt 0.01654000 0.29818000
vt 0.13084100 0.28673800
vt 0.09179300 0.33098600
vt 0.04599300 0.35407500
vt 0.06793500 0.37960800
vt 0.10589600 0.35665000
vt 0.09226600 0.40708400
vt 0.13997400 0.31083700
vt 0.18946100 0.29872000
vt 0.14910600 0.33988600
vt 0.18444900 0.26950200
vt 0.17660900 0.24426500
vt 0.22986700 0.22809100
vt 0.23609400 0.25944200
vt 0.23882200 0.29163900
vt 0.23738300 0.32682500
vt 0.19373800 0.32966600
vt 0.23522000 0.36528300
vt 0.19713400 0.36610600
vt 0.15983500 0.37239600
vt 0.17771700 0.41265700
vt 0.20512700 0.40624800
vt 0.23318900 0.40657700
vt 0.23476400 0.44779800
vt 0.12537500 0.38653400
vt 0.21517200 0.44889800
vt 0.23659000 0.47726900
vt 0.21942000 0.47868900
vt 0.14939700 0.42081200
vt 0.12433000 0.43652400
vt 0.19873900 0.45439300
vt 0.19627400 0.47662300
vt 0.16906400 0.45245600
vt 0.16424500 0.46561900
vt 0.16652600 0.21982300
vt 0.21895600 0.19808200
vt 0.20164100 0.16978500
vt 0.11173400 0.23870500
vt 0.15343100 0.19514400
vt 0.18254200 0.13976500
vt 0.10357600 0.20716900
vt 0.06134200 0.25296100
vt 0.14277900 0.16643300
vt 0.16448600 0.10505500
vt 0.01000000 0.25982900
vt 0.01195000 0.20890500
vt 0.05642600 0.21095700
vt 0.02123400 0.15108300
vt 0.05779500 0.16077900
vt 0.02967300 0.10473400
vt 0.10090700 0.16817600
vt 0.13324400 0.13728100
vt 0.13764900 0.07180700
vt 0.10776200 0.12518100
vt 0.11215000 0.04344400
vt 0.07623000 0.10434100
vt 0.08959300 0.01000000
vt 0.05073700 0.01154200
vt 0.01276100 0.07115400
vt 0.50454000 0.21003900
vt 0.49660900 0.16171900
vt 0.45789900 0.17589900
vt 0.46881900 0.22225900
vt 0.47777900 0.26494800
vt 0.42171100 0.23694600
vt 0.41198700 0.19749400
vt 0.42916700 0.27430500
vt 0.36939200 0.25293700
vt 0.36067500 0.22247400
vt 0.43582800 0.31270500
vt 0.48683000 0.30806000
vt 0.37477400 0.28481300
vt 0.33533900 0.26532800
vt 0.32149100 0.24651700
vt 0.33171800 0.28719900
vt 0.30553100 0.28170800
vt 0.30169900 0.31392400
vt 0.33575900 0.31787100
vt 0.30149500 0.34586500
vt 0.38062500 0.31641200
vt 0.33697900 0.34933000
vt 0.38355800 0.35151300
vt 0.33604800 0.38399000
vt 0.29911300 0.37596800
vt 0.38400500 0.39175500
vt 0.43873600 0.35186600
vt 0.44017900 0.39229600
vt 0.49132200 0.35281300
vt 0.52485400 0.30514100
vt 0.49355600 0.39568100
vt 0.53231100 0.35182500
vt 0.53651800 0.39719400
vt 0.52999600 0.15424200
vt 0.53309100 0.20351400
vt 0.54153200 0.25189800
vt 0.51365300 0.25732600
vt 0.55200000 0.30126700
vt 0.45808400 0.86384600
vt 0.42206600 0.88009100
vt 0.45093900 0.88606100
vt 0.42620700 0.86004300
vt 0.45969700 0.84148900
vt 0.39886500 0.85741000
vt 0.39555900 0.87633200
vt 0.37112500 0.87487700
vt 0.37313700 0.85618600
vt 0.42782500 0.84065700
vt 0.45735700 0.81874100
vt 0.39992000 0.83970800
vt 0.37502200 0.83914000
vt 0.37543500 0.82240600
vt 0.42601200 0.82147400
vt 0.45197800 0.79738300
vt 0.39942800 0.82216000
vt 0.42175400 0.80285000
vt 0.39781000 0.80497100
vt 0.37552800 0.80576600
vt 0.39476600 0.78810300
vt 0.37525400 0.78939900
vt 0.41755200 0.78539200
vt 0.44412800 0.77777200
vt 0.43383500 0.76166500
vt 0.39254900 0.76920900
vt 0.37389400 0.77000300
vt 0.37112500 0.74054600
vt 0.39138600 0.74228300
vt 0.41171500 0.76748800
vt 0.42768800 0.74541400
vt 0.40980700 0.74555800
vt 0.92212100 0.86122600
vt 0.86258200 0.88416200
vt 0.91191200 0.89582700
vt 0.85188500 0.91183900
vt 0.89544700 0.92675600
vt 0.81507600 0.87881600
vt 0.84028100 0.94064500
vt 0.87521900 0.95262200
vt 0.80814200 0.90546200
vt 0.83488900 0.97295000
vt 0.86241400 0.97343800
vt 0.80409700 0.93875400
vt 0.80470500 0.97912100
vt 0.76782900 0.90567900
vt 0.77210400 0.87606800
vt 0.76819500 0.94171200
vt 0.77183300 0.98565500
vt 0.72716100 0.90252500
vt 0.72921700 0.87104100
vt 0.73023200 0.94384400
vt 0.73385000 0.98876600
vt 0.68684500 0.89750000
vt 0.68575900 0.86483600
vt 0.69053700 0.93955300
vt 0.69550400 0.98817900
vt 0.64201200 0.86005300
vt 0.68800000 0.84033300
vt 0.64304100 0.83462300
vt 0.64605800 0.89342100
vt 0.65911700 0.98631000
vt 0.59913000 0.86075700
vt 0.62506000 0.99000000
vt 0.31213900 0.02643300
vt 0.34617900 0.07988600
vt 0.34312600 0.02731000
vt 0.31883100 0.07986300
vt 0.35203500 0.13282100
vt 0.28881600 0.07932200
vt 0.28137700 0.02791100
vt 0.25109600 0.02984500
vt 0.32356100 0.13265300
vt 0.35615800 0.18570000
vt 0.32711700 0.18606100
vt 0.29437000 0.12879500
vt 0.29730900 0.18478100
vt 0.25633800 0.07519200
vt 0.22775900 0.03698900
vt 0.22212100 0.06678400
vt 0.26030800 0.12350500
vt 0.26541100 0.17851400
vt 0.22383400 0.11442300
vt 0.23100000 0.16551700
vt 0.54510500 0.09239100
vt 0.51702800 0.13210500
vt 0.55242000 0.11139000
vt 0.50967400 0.10483200
vt 0.54001400 0.07435300
vt 0.47984400 0.14977100
vt 0.50574500 0.07820800
vt 0.53203100 0.05829500
vt 0.50742200 0.05336700
vt 0.47059400 0.11484000
vt 0.44694100 0.16503000
vt 0.46734800 0.07911500
vt 0.46848000 0.04458700
vt 0.43359900 0.03698900
vt 0.43673300 0.12206500
vt 0.43160600 0.07985600
vt 0.40149300 0.08005900
vt 0.40135900 0.03256400
vt 0.37232800 0.02917400
vt 0.40675900 0.12855500
vt 0.41527600 0.17504700
vt 0.37385200 0.08132200
vt 0.37881900 0.13125900
vt 0.38575200 0.18177600
vt 0.64667100 0.56102100
vt 0.61875800 0.51884600
vt 0.62311500 0.54829300
vt 0.64899800 0.52230100
vt 0.67282400 0.56564200
vt 0.60451200 0.47374500
vt 0.67631600 0.52414000
vt 0.70204200 0.56687100
vt 0.64389400 0.47718000
vt 0.58666900 0.42574800
vt 0.62720500 0.42483300
vt 0.67459800 0.48216000
vt 0.66391400 0.42552400
vt 0.70444600 0.52345300
vt 0.73627800 0.56839000
vt 0.70250300 0.48771900
vt 0.70252100 0.43455000
vt 0.73705000 0.49918400
vt 0.72892200 0.40598600
vt 0.73465600 0.52638400
vt 0.77214400 0.56965000
vt 0.76956700 0.49219200
vt 0.77097200 0.52620400
vt 0.80754900 0.57013200
vt 0.80521400 0.52624100
vt 0.84151500 0.56564200
vt 0.83657700 0.52473600
vt 0.80295100 0.49190300
vt 0.83379200 0.49008400
vt 0.77100800 0.44497400
vt 0.80338800 0.44720900
vt 0.83231200 0.44920300
vt 0.73995500 0.38315000
vt 0.71290000 0.33666700
vt 0.74477600 0.33797400
vt 0.77368300 0.38689100
vt 0.77577400 0.33762800
vt 0.80425700 0.38983600
vt 0.83270800 0.39247200
vt 0.80607400 0.34050800
vt 0.83537500 0.34153500
vt 0.53834000 0.48562600
vt 0.56618700 0.45691300
vt 0.53831100 0.43564700
vt 0.51696100 0.46914600
vt 0.49252600 0.50456100
vt 0.51158200 0.51971700
vt 0.48441000 0.55659200
vt 0.46690100 0.54198000
vt 0.49130700 0.45708900
vt 0.50799100 0.42122400
vt 0.47318700 0.41219700
vt 0.46161000 0.44627700
vt 0.47120400 0.49200500
vt 0.44792100 0.52745200
vt 0.44042600 0.57907900
vt 0.11338100 0.84306000
vt 0.06517100 0.84831200
vt 0.08780800 0.87156500
vt 0.09365000 0.82160300
vt 0.04605400 0.82201300
vt 0.07587700 0.79859200
vt 0.03007200 0.79137700
vt 0.06109400 0.77227000
vt 0.12381600 0.79654300
vt 0.10741600 0.77548300
vt 0.09200800 0.75248600
vt 0.12098000 0.73118200
vt 0.13764100 0.75159300
vt 0.15413400 0.77062100
vt 0.16793000 0.72561500
vt 0.14912000 0.70944400
vt 0.18362700 0.74234800
vt 0.19695000 0.69703800
vt 0.17730700 0.68353800
vt 0.21454500 0.71349500
vt 0.20207600 0.65258800
vt 0.22290300 0.66659200
vt 0.44497100 0.48147500
vt 0.42537300 0.51414600
vt 0.42284200 0.56352900
vt 0.41434700 0.61511300
vt 0.41507300 0.47051100
vt 0.39745400 0.50142800
vt 0.42899600 0.43919600
vt 0.43587500 0.40740500
vt 0.38855200 0.43131300
vt 0.39472200 0.40288300
vt 0.34866800 0.39953200
vt 0.37790600 0.45841700
vt 0.36056800 0.48190400
vt 0.37853600 0.53065500
vt 0.40286500 0.54845300
vt 0.39628400 0.59816100
vt 0.36869500 0.62934900
vt 0.38874300 0.64854600
vt 0.37801100 0.57984500
vt 0.34246200 0.66152800
vt 0.36473100 0.68247800
vt 0.32278700 0.63765900
vt 0.35150100 0.60930700
vt 0.30428800 0.60748000
vt 0.33045600 0.58322900
vt 0.28255000 0.56292700
vt 0.35539000 0.55840300
vt 0.30655000 0.54432000
vt 0.26409500 0.50797500
vt 0.32780200 0.52556700
vt 0.28289600 0.49601400
vt 0.25131900 0.46034200
vt 0.34585900 0.50498600
vt 0.26923600 0.45383800
vt 0.24464200 0.42685800
vt 0.29965400 0.48326500
vt 0.31339600 0.47170200
vt 0.26270700 0.42432500
vt 0.24033400 0.40084900
vt 0.25919700 0.39912900
vt 0.28275800 0.42159100
vt 0.28093100 0.39818200
vt 0.30971700 0.39818200
vt 0.28540900 0.44740600
vt 0.30703400 0.42023700
vt 0.33497400 0.46602000
vt 0.30646000 0.44344800
vt 0.34398100 0.42363800
vt 0.33331600 0.44376900
vt 0.59789000 0.82746700
vt 0.73261200 0.84541300
vt 0.77596600 0.85161700
vt 0.82096000 0.85449400
vt 0.87038200 0.85722100
vt 0.22312200 0.57809800
vt 0.22559000 0.62306600
vt 0.25097300 0.58900400
vt 0.20262700 0.61108200
vt 0.17641700 0.60006600
vt 0.19268200 0.56965500
vt 0.18073100 0.63924400
vt 0.15605500 0.62543700
vt 0.14594300 0.59068100
vt 0.15965800 0.56349100
vt 0.15705600 0.66704400
vt 0.13121000 0.68927800
vt 0.12736200 0.61469700
vt 0.11483100 0.58467100
vt 0.12485200 0.55972300
vt 0.13360900 0.64947200
vt 0.10492000 0.70751400
vt 0.10352000 0.61055500
vt 0.08556700 0.58252600
vt 0.09078700 0.55904000
vt 0.11926600 0.63406300
vt 0.10016900 0.63795200
vt 0.08046300 0.60962500
vt 0.11319500 0.66497300
vt 0.05862000 0.58337100
vt 0.06075500 0.56057700
vt 0.08014700 0.64352400
vt 0.09048100 0.67772200
vt 0.05751700 0.61247800
vt 0.03452400 0.58631300
vt 0.03410100 0.56349100
vt 0.01000000 0.56816400
vt 0.01118500 0.59003300
vt 0.03430900 0.61680200
vt 0.01144100 0.62037200
vt 0.05899300 0.65025600
vt 0.03557400 0.65682200
vt 0.01107400 0.66178800
vt 0.06622200 0.69006800
vt 0.03944000 0.70123300
vt 0.01255600 0.71015000
vt 0.07698000 0.72453800
vt 0.04849600 0.74055300
vt 0.01887200 0.75471500
vt 0.29581500 0.68216600
vt 0.34872700 0.69983900
vt 0.32512100 0.65452900
vt 0.27172900 0.65440900
vt 0.29954200 0.62415000
vt 0.27456400 0.60383300
vt 0.24338400 0.68381000
vt 0.26470600 0.70734600
vt 0.23089600 0.73220800
vt 0.24783100 0.63587500
vt 0.20078800 0.75965500
vt 0.21689300 0.77753600
vt 0.17067900 0.78789500
vt 0.18881700 0.80368300
vt 0.23322500 0.79485200
vt 0.26297900 0.78127900
vt 0.14225200 0.81547200
vt 0.16179500 0.83312900
vt 0.13541400 0.86137800
vt 0.11007500 0.89192200
vt 0.13318900 0.90833200
vt 0.15714700 0.87783800
vt 0.15731800 0.92293900
vt 0.18116700 0.84811500
vt 0.17971700 0.89209000
vt 0.18255300 0.94336700
vt 0.20552700 0.81839700
vt 0.20510300 0.90268400
vt 0.21088300 0.94911200
vt 0.20057000 0.85947800
vt 0.23189200 0.91142400
vt 0.23966100 0.96104100
vt 0.22044600 0.83153300
vt 0.22145800 0.86796500
vt 0.25847100 0.91854200
vt 0.26770900 0.97188800
vt 0.24511600 0.87288700
vt 0.28555600 0.92558700
vt 0.29345400 0.98089600
vt 0.23045700 0.84604700
vt 0.27128400 0.87518000
vt 0.24883700 0.83900400
vt 0.24219900 0.81722700
vt 0.31178100 0.93341100
vt 0.31872700 0.99000000
vt 0.33733600 0.94109200
vt 0.29849100 0.87839200
vt 0.27337100 0.84027300
vt 0.27111200 0.80883300
vt 0.32740200 0.88091700
vt 0.35537700 0.88393300
vt 0.30347300 0.84018600
vt 0.33396600 0.84045700
vt 0.36385100 0.83996900
vt 0.30146900 0.80719000
vt 0.33522800 0.80487200
vt 0.36735000 0.80066200
vt 0.29613200 0.77269600
vt 0.33103700 0.76411100
vt 0.36319400 0.75329300
vt 0.24861300 0.75447700
vt 0.28388500 0.73745800
vt 0.31738100 0.71999500
vt 0.59402200 0.58054900
vt 0.62478400 0.58555200
vt 0.61155800 0.56249800
vt 0.62920800 0.61493300
vt 0.59385300 0.56561700
vt 0.60936600 0.53239500
vt 0.57896900 0.54807900
vt 0.59964700 0.50736400
vt 0.56882800 0.52892400
vt 0.58579200 0.48247100
vt 0.56645900 0.57639900
vt 0.59163400 0.61716600
vt 0.55552200 0.50679500
vt 0.54433900 0.55895700
vt 0.52789400 0.53780500
vt 0.55683700 0.60857200
vt 0.59116900 0.64571300
vt 0.63052200 0.64520600
vt 0.50206200 0.57330100
vt 0.52649300 0.59116700
vt 0.55088100 0.63776900
vt 0.51162900 0.62520900
vt 0.58928000 0.67234500
vt 0.63003100 0.67261100
vt 0.48131500 0.60976400
vt 0.54777400 0.66738800
vt 0.58970800 0.69653300
vt 0.62942200 0.69986700
vt 0.63151500 0.72980900
vt 0.59315800 0.72714700
vt 0.54592500 0.72728000
vt 0.54605500 0.69769800
vt 0.49004700 0.73060400
vt 0.49538400 0.69278200
vt 0.43700600 0.72028000
vt 0.50194200 0.65831400
vt 0.44990700 0.68240500
vt 0.39600800 0.70257600
vt 0.46371900 0.64559700
vt 0.41415200 0.66620300
vt 0.43602900 0.63144700
vt 0.45805300 0.59358800
f 3/3/3 2/2/2 1/1/1
f 3/3/3 5/5/5 4/4/4
f 5/5/5 6/6/6 4/4/4
f 6/6/6 5/5/5 7/7/7
f 4/4/4 6/6/6 8/8/8
f 9/9/9 6/6/6 7/7/7
f 7/7/7 10/10/10 9/9/9
f 10/10/10 11/11/11 9/9/9
f 11/11/11 10/10/10 12/12/12
f 13/13/13 11/11/11 12/12/12
f 12/12/12 14/14/14 13/13/13
f 14/14/14 15/15/15 13/13/13
f 9/9/9 11/11/11 16/16/16
f 16/16/16 11/11/11 13/13/13
f 13/13/13 15/15/15 17/17/17
f 17/17/17 16/16/16 13/13/13
f 15/15/15 18/18/18 17/17/17
f 17/17/17 18/18/18 19/19/19
f 20/20/20 17/17/17 19/19/19
f 16/16/16 17/17/17 20/20/20
f 20/20/20 19/19/19 21/21/21
f 6/6/6 9/9/9 22/22/22
f 22/22/22 9/9/9 16/16/16
f 23/23/23 20/20/20 21/21/21
f 23/23/23 21/21/21 24/24/24
f 25/25/25 16/16/16 20/20/20
f 22/22/22 16/16/16 25/25/25
f 25/25/25 20/20/20 23/23/23
f 26/26/26 6/6/6 22/22/22
f 6/6/6 26/26/26 8/8/8
f 27/27/27 23/23/23 24/24/24
f 24/24/24 28/28/28 27/27/27
f 29/29/29 25/25/25 23/23/23
f 23/23/23 27/27/27 29/29/29
f 30/30/30 22/22/22 25/25/25
f 26/26/26 22/22/22 30/30/30
f 30/30/30 25/25/25 29/29/29
f 8/8/8 26/26/26 31/31/31
f 31/31/31 26/26/26 30/30/30
f 32/32/32 8/8/8 31/31/31
f 28/28/28 33/33/33 27/27/27
f 33/33/33 28/28/28 34/34/34
f 35/35/35 33/33/33 34/34/34
f 36/36/36 30/30/30 29/29/29
f 30/30/30 36/36/36 31/31/31
f 31/31/31 37/37/37 32/32/32
f 36/36/36 37/37/37 31/31/31
f 37/37/37 38/38/38 32/32/32
f 27/27/27 39/39/39 29/29/29
f 27/27/27 33/33/33 39/39/39
f 36/36/36 29/29/29 39/39/39
f 40/40/40 33/33/33 35/35/35
f 33/33/33 40/40/40 39/39/39
f 41/41/41 40/40/40 35/35/35
f 42/42/42 36/36/36 39/39/39
f 37/37/37 36/36/36 42/42/42
f 39/39/39 40/40/40 42/42/42
f 38/38/38 37/37/37 43/43/43
f 43/43/43 37/37/37 42/42/42
f 44/44/44 38/38/38 43/43/43
f 45/45/45 40/40/40 41/41/41
f 40/40/40 45/45/45 42/42/42
f 42/42/42 45/45/45 43/43/43
f 46/46/46 45/45/45 41/41/41
f 45/45/45 46/46/46 47/47/47
f 44/44/44 43/43/43 48/48/48
f 45/45/45 48/48/48 43/43/43
f 48/48/48 45/45/45 47/47/47
f 49/49/49 44/44/44 48/48/48
f 49/49/49 48/48/48 47/47/47
f 50/50/50 49/49/49 47/47/47
f 53/53/53 52/52/52 51/51/51
f 56/56/56 55/55/55 54/54/54
f 55/55/55 57/57/57 54/54/54
f 55/55/55 58/58/58 57/57/57
f 54/54/54 57/57/57 59/59/59
f 60/60/60 54/54/54 59/59/59
f 60/60/60 59/59/59 61/61/61
f 58/58/58 62/62/62 57/57/57
f 57/57/57 62/62/62 59/59/59
f 59/59/59 63/63/63 61/61/61
f 64/64/64 61/61/61 63/63/63
f 62/62/62 58/58/58 65/65/65
f 58/58/58 66/66/66 65/65/65
f 66/66/66 67/67/67 65/65/65
f 62/62/62 68/68/68 59/59/59
f 59/59/59 68/68/68 63/63/63
f 68/68/68 62/62/62 65/65/65
f 67/67/67 69/69/69 65/65/65
f 69/69/69 67/67/67 70/70/70
f 71/71/71 68/68/68 65/65/65
f 65/65/65 69/69/69 71/71/71
f 68/68/68 72/72/72 63/63/63
f 72/72/72 68/68/68 71/71/71
f 73/73/73 64/64/64 63/63/63
f 63/63/63 72/72/72 73/73/73
f 74/74/74 69/69/69 70/70/70
f 70/70/70 75/75/75 74/74/74
f 69/69/69 76/76/76 71/71/71
f 76/76/76 69/69/69 74/74/74
f 64/64/64 73/73/73 77/77/77
f 78/78/78 64/64/64 77/77/77
f 77/77/77 73/73/73 79/79/79
f 73/73/73 80/80/80 79/79/79
f 72/72/72 80/80/80 73/73/73
f 79/79/79 80/80/80 81/81/81
f 80/80/80 82/82/82 81/81/81
f 82/82/82 80/80/80 72/72/72
f 81/81/81 82/82/82 83/83/83
f 84/84/84 72/72/72 71/71/71
f 84/84/84 82/82/82 72/72/72
f 71/71/71 76/76/76 84/84/84
f 82/82/82 85/85/85 83/83/83
f 85/85/85 82/82/82 84/84/84
f 83/83/83 85/85/85 86/86/86
f 76/76/76 87/87/87 84/84/84
f 87/87/87 85/85/85 84/84/84
f 85/85/85 88/88/88 86/86/86
f 89/89/89 86/86/86 88/88/88
f 87/87/87 76/76/76 90/90/90
f 90/90/90 76/76/76 74/74/74
f 85/85/85 87/87/87 91/91/91
f 88/88/88 85/85/85 91/91/91
f 91/91/91 87/87/87 90/90/90
f 92/92/92 89/89/89 88/88/88
f 93/93/93 89/89/89 92/92/92
f 94/94/94 93/93/93 92/92/92
f 92/92/92 88/88/88 95/95/95
f 94/94/94 92/92/92 95/95/95
f 88/88/88 91/91/91 95/95/95
f 96/96/96 94/94/94 95/95/95
f 95/95/95 91/91/91 97/97/97
f 95/95/95 97/97/97 96/96/96
f 91/91/91 90/90/90 97/97/97
f 97/97/97 98/98/98 96/96/96
f 98/98/98 97/97/97 99/99/99
f 74/74/74 100/100/100 90/90/90
f 100/100/100 97/97/97 90/90/90
f 97/97/97 100/100/100 99/99/99
f 75/75/75 100/100/100 74/74/74
f 99/99/99 100/100/100 101/101/101
f 100/100/100 75/75/75 101/101/101
f 104/104/104 103/103/103 102/102/102
f 104/104/104 105/105/105 103/103/103
f 105/105/105 106/106/106 103/103/103
f 107/107/107 104/104/104 102/102/102
f 108/108/108 104/104/104 107/107/107
f 108/108/108 109/109/109 104/104/104
f 109/109/109 105/105/105 104/104/104
f 109/109/109 108/108/108 110/110/110
f 108/108/108 111/111/111 110/110/110
f 110/110/110 111/111/111 112/112/112
f 113/113/113 108/108/108 107/107/107
f 108/108/108 113/113/113 111/111/111
f 114/114/114 113/113/113 107/107/107
f 113/113/113 115/115/115 111/111/111
f 115/115/115 113/113/113 114/114/114
f 116/116/116 114/114/114 107/107/107
f 117/117/117 116/116/116 107/107/107
f 117/117/117 118/118/118 116/116/116
f 118/118/118 119/119/119 116/116/116
f 116/116/116 119/119/119 120/120/120
f 114/114/114 116/116/116 120/120/120
f 120/120/120 121/121/121 114/114/114
f 121/121/121 122/122/122 114/114/114
f 122/122/122 115/115/115 114/114/114
f 122/122/122 121/121/121 123/123/123
f 115/115/115 122/122/122 124/124/124
f 124/124/124 122/122/122 123/123/123
f 115/115/115 125/125/125 111/111/111
f 125/125/125 115/115/115 124/124/124
f 126/126/126 125/125/125 124/124/124
f 124/124/124 123/123/123 127/127/127
f 127/127/127 126/126/126 124/124/124
f 123/123/123 128/128/128 127/127/127
f 127/127/127 128/128/128 129/129/129
f 125/125/125 130/130/130 111/111/111
f 130/130/130 125/125/125 126/126/126
f 111/111/111 130/130/130 112/112/112
f 131/131/131 127/127/127 129/129/129
f 126/126/126 127/127/127 131/131/131
f 129/129/129 132/132/132 131/131/131
f 132/132/132 133/133/133 131/131/131
f 112/112/112 130/130/130 134/134/134
f 134/134/134 130/130/130 126/126/126
f 135/135/135 112/112/112 134/134/134
f 131/131/131 133/133/133 136/136/136
f 136/136/136 126/126/126 131/131/131
f 133/133/133 137/137/137 136/136/136
f 134/134/134 126/126/126 138/138/138
f 135/135/135 134/134/134 138/138/138
f 126/126/126 136/136/136 138/138/138
f 136/136/136 137/137/137 138/138/138
f 139/139/139 135/135/135 138/138/138
f 137/137/137 139/139/139 138/138/138
f 102/102/102 117/117/117 107/107/107
f 140/140/140 117/117/117 102/102/102
f 117/117/117 140/140/140 141/141/141
f 118/118/118 117/117/117 141/141/141
f 141/141/141 140/140/140 142/142/142
f 143/143/143 140/140/140 102/102/102
f 102/102/102 103/103/103 143/143/143
f 140/140/140 144/144/144 142/142/142
f 142/142/142 144/144/144 145/145/145
f 143/143/143 146/146/146 140/140/140
f 146/146/146 144/144/144 140/140/140
f 103/103/103 147/147/147 143/143/143
f 143/143/143 147/147/147 146/146/146
f 144/144/144 148/148/148 145/145/145
f 149/149/149 145/145/145 148/148/148
f 150/150/150 147/147/147 103/103/103
f 106/106/106 150/150/150 103/103/103
f 150/150/150 151/151/151 147/147/147
f 151/151/151 152/152/152 147/147/147
f 147/147/147 152/152/152 146/146/146
f 151/151/151 153/153/153 152/152/152
f 153/153/153 154/154/154 152/152/152
f 152/152/152 154/154/154 146/146/146
f 153/153/153 155/155/155 154/154/154
f 146/146/146 156/156/156 144/144/144
f 156/156/156 148/148/148 144/144/144
f 154/154/154 156/156/156 146/146/146
f 157/157/157 149/149/149 148/148/148
f 148/148/148 156/156/156 157/157/157
f 158/158/158 149/149/149 157/157/157
f 159/159/159 158/158/158 157/157/157
f 156/156/156 159/159/159 157/157/157
f 158/158/158 159/159/159 160/160/160
f 154/154/154 161/161/161 156/156/156
f 161/161/161 159/159/159 156/156/156
f 159/159/159 161/161/161 160/160/160
f 155/155/155 161/161/161 154/154/154
f 160/160/160 161/161/161 162/162/162
f 161/161/161 155/155/155 162/162/162
f 163/163/163 162/162/162 155/155/155
f 164/164/164 163/163/163 155/155/155
f 167/167/167 166/166/166 165/165/165
f 168/168/168 167/167/167 165/165/165
f 169/169/169 168/168/168 165/165/165
f 168/168/168 170/170/170 167/167/167
f 170/170/170 171/171/171 167/167/167
f 169/169/169 172/172/172 168/168/168
f 172/172/172 170/170/170 168/168/168
f 170/170/170 173/173/173 171/171/171
f 173/173/173 174/174/174 171/171/171
f 172/172/172 169/169/169 175/175/175
f 169/169/169 176/176/176 175/175/175
f 172/172/172 177/177/177 170/170/170
f 177/177/177 173/173/173 170/170/170
f 173/173/173 178/178/178 174/174/174
f 178/178/178 179/179/179 174/174/174
f 178/178/178 173/173/173 180/180/180
f 179/179/179 178/178/178 180/180/180
f 173/173/173 177/177/177 180/180/180
f 181/181/181 179/179/179 180/180/180
f 182/182/182 181/181/181 180/180/180
f 183/183/183 182/182/182 180/180/180
f 180/180/180 177/177/177 183/183/183
f 184/184/184 182/182/182 183/183/183
f 185/185/185 177/177/177 172/172/172
f 177/177/177 185/185/185 183/183/183
f 175/175/175 185/185/185 172/172/172
f 186/186/186 184/184/184 183/183/183
f 183/183/183 185/185/185 186/186/186
f 187/187/187 185/185/185 175/175/175
f 185/185/185 187/187/187 186/186/186
f 184/184/184 186/186/186 188/188/188
f 186/186/186 187/187/187 188/188/188
f 189/189/189 184/184/184 188/188/188
f 187/187/187 190/190/190 188/188/188
f 191/191/191 187/187/187 175/175/175
f 190/190/190 187/187/187 191/191/191
f 175/175/175 176/176/176 191/191/191
f 192/192/192 190/190/190 191/191/191
f 176/176/176 193/193/193 191/191/191
f 191/191/191 193/193/193 192/192/192
f 193/193/193 176/176/176 194/194/194
f 193/193/193 195/195/195 192/192/192
f 196/196/196 193/193/193 194/194/194
f 195/195/195 193/193/193 196/196/196
f 1/1/1 196/196/196 194/194/194
f 197/197/197 195/195/195 196/196/196
f 196/196/196 1/1/1 197/197/197
f 1/1/1 2/2/2 197/197/197
f 198/198/198 14/14/14 12/12/12
f 199/199/199 198/198/198 12/12/12
f 166/166/166 198/198/198 199/199/199
f 12/12/12 10/10/10 199/199/199
f 165/165/165 166/166/166 199/199/199
f 10/10/10 200/200/200 199/199/199
f 199/199/199 200/200/200 165/165/165
f 200/200/200 10/10/10 7/7/7
f 200/200/200 201/201/201 165/165/165
f 201/201/201 169/169/169 165/165/165
f 202/202/202 200/200/200 7/7/7
f 201/201/201 200/200/200 202/202/202
f 7/7/7 5/5/5 202/202/202
f 169/169/169 201/201/201 194/194/194
f 194/194/194 201/201/201 202/202/202
f 176/176/176 169/169/169 194/194/194
f 202/202/202 1/1/1 194/194/194
f 5/5/5 1/1/1 202/202/202
f 5/5/5 3/3/3 1/1/1
f 205/205/205 204/204/204 203/203/203
f 204/204/204 206/206/206 203/203/203
f 203/203/203 206/206/206 207/207/207
f 206/206/206 204/204/204 208/208/208
f 204/204/204 209/209/209 208/208/208
f 208/208/208 209/209/209 210/210/210
f 211/211/211 208/208/208 210/210/210
f 206/206/206 212/212/212 207/207/207
f 206/206/206 208/208/208 212/212/212
f 207/207/207 212/212/212 213/213/213
f 214/214/214 208/208/208 211/211/211
f 208/208/208 214/214/214 212/212/212
f 215/215/215 214/214/214 211/211/211
f 215/215/215 216/216/216 214/214/214
f 212/212/212 217/217/217 213/213/213
f 213/213/213 217/217/217 218/218/218
f 212/212/212 214/214/214 219/219/219
f 216/216/216 219/219/219 214/214/214
f 217/217/217 212/212/212 219/219/219
f 217/217/217 220/220/220 218/218/218
f 220/220/220 217/217/217 219/219/219
f 219/219/219 216/216/216 221/221/221
f 221/221/221 220/220/220 219/219/219
f 216/216/216 222/222/222 221/221/221
f 221/221/221 222/222/222 223/223/223
f 220/220/220 221/221/221 223/223/223
f 222/222/222 224/224/224 223/223/223
f 218/218/218 220/220/220 225/225/225
f 225/225/225 220/220/220 223/223/223
f 226/226/226 218/218/218 225/225/225
f 226/226/226 225/225/225 227/227/227
f 223/223/223 224/224/224 228/228/228
f 225/225/225 223/223/223 228/228/228
f 224/224/224 229/229/229 228/228/228
f 228/228/228 229/229/229 230/230/230
f 231/231/231 228/228/228 230/230/230
f 225/225/225 232/232/232 227/227/227
f 232/232/232 225/225/225 228/228/228
f 232/232/232 228/228/228 231/231/231
f 227/227/227 232/232/232 233/233/233
f 234/234/234 232/232/232 231/231/231
f 232/232/232 234/234/234 233/233/233
f 237/237/237 236/236/236 235/235/235
f 238/238/238 236/236/236 237/237/237
f 239/239/239 238/238/238 237/237/237
f 236/236/236 238/238/238 240/240/240
f 241/241/241 238/238/238 239/239/239
f 242/242/242 241/241/241 239/239/239
f 238/238/238 243/243/243 240/240/240
f 243/243/243 238/238/238 241/241/241
f 244/244/244 241/241/241 242/242/242
f 245/245/245 244/244/244 242/242/242
f 246/246/246 241/241/241 244/244/244
f 246/246/246 243/243/243 241/241/241
f 247/247/247 246/246/246 244/244/244
f 243/243/243 248/248/248 240/240/240
f 248/248/248 243/243/243 246/246/246
f 248/248/248 249/249/249 240/240/240
f 250/250/250 246/246/246 247/247/247
f 250/250/250 248/248/248 246/246/246
f 251/251/251 250/250/250 247/247/247
f 248/248/248 252/252/252 249/249/249
f 252/252/252 248/248/248 250/250/250
f 252/252/252 253/253/253 249/249/249
f 250/250/250 251/251/251 254/254/254
f 254/254/254 252/252/252 250/250/250
f 251/251/251 255/255/255 254/254/254
f 253/253/253 252/252/252 256/256/256
f 252/252/252 254/254/254 256/256/256
f 257/257/257 253/253/253 256/256/256
f 254/254/254 255/255/255 258/258/258
f 254/254/254 258/258/258 256/256/256
f 255/255/255 259/259/259 258/258/258
f 260/260/260 257/257/257 256/256/256
f 257/257/257 260/260/260 261/261/261
f 260/260/260 262/262/262 261/261/261
f 256/256/256 258/258/258 263/263/263
f 258/258/258 259/259/259 53/53/53
f 258/258/258 53/53/53 263/263/263
f 259/259/259 264/264/264 53/53/53
f 263/263/263 53/53/53 51/51/51
f 263/263/263 51/51/51 265/265/265
f 52/52/52 53/53/53 264/264/264
f 266/266/266 52/52/52 264/264/264
f 269/269/269 268/268/268 267/267/267
f 268/268/268 270/270/270 267/267/267
f 270/270/270 268/268/268 271/271/271
f 270/270/270 272/272/272 267/267/267
f 272/272/272 273/273/273 267/267/267
f 273/273/273 272/272/272 274/274/274
f 275/275/275 270/270/270 271/271/271
f 272/272/272 270/270/270 275/275/275
f 275/275/275 271/271/271 276/276/276
f 277/277/277 275/275/275 276/276/276
f 278/278/278 275/275/275 277/277/277
f 278/278/278 272/272/272 275/275/275
f 279/279/279 278/278/278 277/277/277
f 272/272/272 280/280/280 274/274/274
f 280/280/280 272/272/272 278/278/278
f 274/274/274 280/280/280 281/281/281
f 280/280/280 282/282/282 281/281/281
f 283/283/283 278/278/278 279/279/279
f 283/283/283 280/280/280 278/278/278
f 280/280/280 283/283/283 282/282/282
f 284/284/284 283/283/283 279/279/279
f 283/283/283 285/285/285 282/282/282
f 284/284/284 286/286/286 283/283/283
f 286/286/286 285/285/285 283/283/283
f 289/289/289 288/288/288 287/287/287
f 288/288/288 290/290/290 287/287/287
f 287/287/287 290/290/290 291/291/291
f 290/290/290 288/288/288 292/292/292
f 290/290/290 293/293/293 291/291/291
f 291/291/291 293/293/293 294/294/294
f 293/293/293 295/295/295 294/294/294
f 296/296/296 290/290/290 292/292/292
f 293/293/293 290/290/290 296/296/296
f 292/292/292 297/297/297 296/296/296
f 295/295/295 293/293/293 298/298/298
f 298/298/298 293/293/293 296/296/296
f 299/299/299 295/295/295 298/298/298
f 299/299/299 298/298/298 300/300/300
f 297/297/297 301/301/301 296/296/296
f 296/296/296 301/301/301 298/298/298
f 298/298/298 302/302/302 300/300/300
f 301/301/301 302/302/302 298/298/298
f 302/302/302 303/303/303 300/300/300
f 303/303/303 302/302/302 301/301/301
f 303/303/303 304/304/304 300/300/300
f 304/304/304 303/303/303 305/305/305
f 301/301/301 297/297/297 306/306/306
f 306/306/306 303/303/303 301/301/301
f 297/297/297 307/307/307 306/306/306
f 303/303/303 308/308/308 305/305/305
f 308/308/308 303/303/303 306/306/306
f 305/305/305 308/308/308 269/269/269
f 308/308/308 268/268/268 269/269/269
f 306/306/306 307/307/307 309/309/309
f 309/309/309 308/308/308 306/306/306
f 268/268/268 308/308/308 309/309/309
f 307/307/307 310/310/310 309/309/309
f 271/271/271 268/268/268 309/309/309
f 310/310/310 276/276/276 309/309/309
f 276/276/276 271/271/271 309/309/309
f 313/313/313 312/312/312 311/311/311
f 312/312/312 314/314/314 311/311/311
f 311/311/311 314/314/314 315/315/315
f 312/312/312 316/316/316 314/314/314
f 314/314/314 317/317/317 315/315/315
f 315/315/315 317/317/317 318/318/318
f 316/316/316 319/319/319 314/314/314
f 317/317/317 314/314/314 319/319/319
f 319/319/319 316/316/316 320/320/320
f 321/321/321 319/319/319 320/320/320
f 322/322/322 319/319/319 321/321/321
f 322/322/322 317/317/317 319/319/319
f 323/323/323 322/322/322 321/321/321
f 317/317/317 324/324/324 318/318/318
f 324/324/324 317/317/317 322/322/322
f 318/318/318 324/324/324 325/325/325
f 326/326/326 322/322/322 323/323/323
f 326/326/326 324/324/324 322/322/322
f 327/327/327 326/326/326 323/323/323
f 326/326/326 327/327/327 328/328/328
f 324/324/324 326/326/326 328/328/328
f 327/327/327 329/329/329 328/328/328
f 324/324/324 330/330/330 325/325/325
f 330/330/330 324/324/324 328/328/328
f 331/331/331 325/325/325 330/330/330
f 330/330/330 328/328/328 332/332/332
f 332/332/332 328/328/328 329/329/329
f 333/333/333 331/331/331 330/330/330
f 333/333/333 330/330/330 332/332/332
f 334/334/334 331/331/331 333/333/333
f 335/335/335 334/334/334 333/333/333
f 335/335/335 333/333/333 332/332/332
f 336/336/336 334/334/334 335/335/335
f 337/337/337 336/336/336 335/335/335
f 337/337/337 335/335/335 338/338/338
f 338/338/338 335/335/335 332/332/332
f 339/339/339 337/337/337 338/338/338
f 340/340/340 332/332/332 329/329/329
f 332/332/332 340/340/340 338/338/338
f 338/338/338 341/341/341 339/339/339
f 340/340/340 341/341/341 338/338/338
f 341/341/341 342/342/342 339/339/339
f 340/340/340 329/329/329 343/343/343
f 329/329/329 344/344/344 343/343/343
f 344/344/344 345/345/345 343/343/343
f 346/346/346 340/340/340 343/343/343
f 343/343/343 345/345/345 346/346/346
f 340/340/340 346/346/346 341/341/341
f 345/345/345 347/347/347 346/346/346
f 342/342/342 341/341/341 348/348/348
f 346/346/346 348/348/348 341/341/341
f 346/346/346 347/347/347 348/348/348
f 349/349/349 342/342/342 348/348/348
f 347/347/347 350/350/350 348/348/348
f 348/348/348 350/350/350 349/349/349
f 350/350/350 351/351/351 349/349/349
f 354/354/354 353/353/353 352/352/352
f 355/355/355 354/354/354 352/352/352
f 355/355/355 352/352/352 356/356/356
f 352/352/352 357/357/357 356/356/356
f 357/357/357 358/358/358 356/356/356
f 358/358/358 359/359/359 356/356/356
f 355/355/355 360/360/360 354/354/354
f 360/360/360 361/361/361 354/354/354
f 361/361/361 360/360/360 362/362/362
f 360/360/360 363/363/363 362/362/362
f 364/364/364 360/360/360 355/355/355
f 356/356/356 364/364/364 355/355/355
f 356/356/356 359/359/359 364/364/364
f 359/359/359 365/365/365 364/364/364
f 359/359/359 366/366/366 365/365/365
f 369/369/369 368/368/368 367/367/367
f 368/368/368 370/370/370 367/367/367
f 370/370/370 368/368/368 371/371/371
f 372/372/372 370/370/370 371/371/371
f 371/371/371 373/373/373 372/372/372
f 373/373/373 374/374/374 372/372/372
f 370/370/370 372/372/372 375/375/375
f 376/376/376 372/372/372 374/374/374
f 372/372/372 376/376/376 375/375/375
f 377/377/377 376/376/376 374/374/374
f 377/377/377 378/378/378 376/376/376
f 375/375/375 376/376/376 379/379/379
f 378/378/378 379/379/379 376/376/376
f 380/380/380 375/375/375 379/379/379
f 381/381/381 379/379/379 378/378/378
f 379/379/379 381/381/381 380/380/380
f 382/382/382 381/381/381 378/378/378
f 381/381/381 383/383/383 380/380/380
f 384/384/384 381/381/381 382/382/382
f 383/383/383 381/381/381 384/384/384
f 385/385/385 384/384/384 382/382/382
f 386/386/386 383/383/383 384/384/384
f 385/385/385 387/387/387 384/384/384
f 384/384/384 388/388/388 386/386/386
f 387/387/387 388/388/388 384/384/384
f 360/360/360 364/364/364 363/363/363
f 364/364/364 389/389/389 363/363/363
f 390/390/390 389/389/389 364/364/364
f 365/365/365 390/390/390 364/364/364
f 365/365/365 391/391/391 390/390/390
f 366/366/366 391/391/391 365/365/365
f 366/366/366 392/392/392 391/391/391
f 389/389/389 393/393/393 363/363/363
f 389/389/389 390/390/390 394/394/394
f 393/393/393 389/389/389 394/394/394
f 393/393/393 395/395/395 363/363/363
f 363/363/363 395/395/395 362/362/362
f 395/395/395 396/396/396 362/362/362
f 396/396/396 395/395/395 397/397/397
f 398/398/398 396/396/396 397/397/397
f 399/399/399 398/398/398 397/397/397
f 395/395/395 393/393/393 400/400/400
f 397/397/397 395/395/395 400/400/400
f 394/394/394 401/401/401 393/393/393
f 401/401/401 400/400/400 393/393/393
f 394/394/394 390/390/390 402/402/402
f 394/394/394 402/402/402 401/401/401
f 390/390/390 403/403/403 402/402/402
f 391/391/391 403/403/403 390/390/390
f 403/403/403 391/391/391 404/404/404
f 392/392/392 404/404/404 391/391/391
f 404/404/404 392/392/392 405/405/405
f 392/392/392 406/406/406 405/405/405
f 407/407/407 403/403/403 404/404/404
f 404/404/404 405/405/405 407/407/407
f 405/405/405 406/406/406 408/408/408
f 406/406/406 409/409/409 408/408/408
f 405/405/405 408/408/408 410/410/410
f 411/411/411 405/405/405 410/410/410
f 405/405/405 411/411/411 407/407/407
f 411/411/411 410/410/410 412/412/412
f 413/413/413 411/411/411 412/412/412
f 407/407/407 411/411/411 413/413/413
f 413/413/413 412/412/412 414/414/414
f 403/403/403 407/407/407 415/415/415
f 415/415/415 407/407/407 413/413/413
f 402/402/402 403/403/403 415/415/415
f 416/416/416 413/413/413 414/414/414
f 415/415/415 413/413/413 416/416/416
f 414/414/414 417/417/417 416/416/416
f 402/402/402 415/415/415 418/418/418
f 418/418/418 415/415/415 416/416/416
f 417/417/417 419/419/419 416/416/416
f 418/418/418 416/416/416 419/419/419
f 419/419/419 417/417/417 420/420/420
f 421/421/421 402/402/402 418/418/418
f 402/402/402 421/421/421 401/401/401
f 422/422/422 419/419/419 420/420/420
f 420/420/420 423/423/423 422/422/422
f 424/424/424 418/418/418 419/419/419
f 421/421/421 418/418/418 424/424/424
f 424/424/424 419/419/419 422/422/422
f 401/401/401 421/421/421 425/425/425
f 425/425/425 421/421/421 424/424/424
f 423/423/423 426/426/426 422/422/422
f 426/426/426 423/423/423 427/427/427
f 428/428/428 426/426/426 427/427/427
f 429/429/429 426/426/426 428/428/428
f 422/422/422 426/426/426 429/429/429
f 430/430/430 429/429/429 428/428/428
f 429/429/429 430/430/430 431/431/431
f 432/432/432 424/424/424 422/422/422
f 432/432/432 422/422/422 429/429/429
f 424/424/424 432/432/432 425/425/425
f 433/433/433 429/429/429 431/431/431
f 432/432/432 429/429/429 433/433/433
f 431/431/431 399/399/399 433/433/433
f 434/434/434 401/401/401 425/425/425
f 400/400/400 401/401/401 434/434/434
f 432/432/432 435/435/435 425/425/425
f 435/435/435 432/432/432 433/433/433
f 425/425/425 435/435/435 434/434/434
f 399/399/399 436/436/436 433/433/433
f 433/433/433 436/436/436 435/435/435
f 436/436/436 399/399/399 397/397/397
f 437/437/437 400/400/400 434/434/434
f 435/435/435 437/437/437 434/434/434
f 400/400/400 437/437/437 397/397/397
f 436/436/436 437/437/437 435/435/435
f 437/437/437 436/436/436 397/397/397
f 261/261/261 262/262/262 70/70/70
f 262/262/262 75/75/75 70/70/70
f 75/75/75 262/262/262 438/438/438
f 101/101/101 75/75/75 438/438/438
f 265/265/265 438/438/438 262/262/262
f 260/260/260 265/265/265 262/262/262
f 260/260/260 263/263/263 265/265/265
f 263/263/263 260/260/260 256/256/256
f 70/70/70 67/67/67 261/261/261
f 67/67/67 439/439/439 261/261/261
f 261/261/261 439/439/439 257/257/257
f 439/439/439 253/253/253 257/257/257
f 249/249/249 253/253/253 439/439/439
f 440/440/440 439/439/439 67/67/67
f 440/440/440 249/249/249 439/439/439
f 66/66/66 440/440/440 67/67/67
f 440/440/440 66/66/66 58/58/58
f 249/249/249 440/440/440 441/441/441
f 441/441/441 440/440/440 58/58/58
f 240/240/240 249/249/249 441/441/441
f 58/58/58 55/55/55 441/441/441
f 240/240/240 441/441/441 442/442/442
f 55/55/55 442/442/442 441/441/441
f 236/236/236 240/240/240 442/442/442
f 442/442/442 55/55/55 56/56/56
f 236/236/236 442/442/442 235/235/235
f 235/235/235 442/442/442 56/56/56
f 445/445/445 444/444/444 443/443/443
f 444/444/444 446/446/446 443/443/443
f 443/443/443 446/446/446 447/447/447
f 448/448/448 443/443/443 447/447/447
f 446/446/446 444/444/444 449/449/449
f 444/444/444 387/387/387 449/449/449
f 449/449/449 387/387/387 385/385/385
f 446/446/446 449/449/449 450/450/450
f 447/447/447 446/446/446 450/450/450
f 447/447/447 451/451/451 448/448/448
f 451/451/451 452/452/452 448/448/448
f 453/453/453 449/449/449 385/385/385
f 449/449/449 453/453/453 450/450/450
f 454/454/454 453/453/453 385/385/385
f 382/382/382 454/454/454 385/385/385
f 455/455/455 451/451/451 447/447/447
f 450/450/450 455/455/455 447/447/447
f 451/451/451 456/456/456 452/452/452
f 456/456/456 457/457/457 452/452/452
f 453/453/453 458/458/458 450/450/450
f 458/458/458 453/453/453 454/454/454
f 454/454/454 382/382/382 459/459/459
f 382/382/382 378/378/378 459/459/459
f 451/451/451 455/455/455 460/460/460
f 456/456/456 451/451/451 460/460/460
f 456/456/456 461/461/461 457/457/457
f 461/461/461 462/462/462 457/457/457
f 455/455/455 450/450/450 463/463/463
f 450/450/450 458/458/458 463/463/463
f 455/455/455 463/463/463 464/464/464
f 460/460/460 455/455/455 464/464/464
f 463/463/463 458/458/458 464/464/464
f 460/460/460 465/465/465 456/456/456
f 465/465/465 461/461/461 456/456/456
f 460/460/460 464/464/464 465/465/465
f 466/466/466 458/458/458 454/454/454
f 458/458/458 466/466/466 464/464/464
f 461/461/461 467/467/467 462/462/462
f 467/467/467 468/468/468 462/462/462
f 464/464/464 469/469/469 465/465/465
f 469/469/469 464/464/464 466/466/466
f 466/466/466 454/454/454 470/470/470
f 470/470/470 469/469/469 466/466/466
f 454/454/454 459/459/459 470/470/470
f 465/465/465 471/471/471 461/461/461
f 471/471/471 467/467/467 461/461/461
f 465/465/465 469/469/469 471/471/471
f 467/467/467 472/472/472 468/468/468
f 472/472/472 467/467/467 471/471/471
f 472/472/472 473/473/473 468/468/468
f 474/474/474 473/473/473 472/472/472
f 475/475/475 474/474/474 472/472/472
f 475/475/475 472/472/472 476/476/476
f 476/476/476 472/472/472 471/471/471
f 477/477/477 475/475/475 476/476/476
f 469/469/469 478/478/478 471/471/471
f 478/478/478 469/469/469 470/470/470
f 471/471/471 478/478/478 476/476/476
f 476/476/476 479/479/479 477/477/477
f 478/478/478 479/479/479 476/476/476
f 479/479/479 480/480/480 477/477/477
f 481/481/481 478/478/478 470/470/470
f 479/479/479 478/478/478 481/481/481
f 470/470/470 459/459/459 481/481/481
f 480/480/480 479/479/479 482/482/482
f 482/482/482 479/479/479 481/481/481
f 483/483/483 480/480/480 482/482/482
f 459/459/459 484/484/484 481/481/481
f 481/481/481 484/484/484 482/482/482
f 484/484/484 459/459/459 378/378/378
f 377/377/377 484/484/484 378/378/378
f 482/482/482 485/485/485 483/483/483
f 484/484/484 485/485/485 482/482/482
f 485/485/485 484/484/484 377/377/377
f 485/485/485 486/486/486 483/483/483
f 374/374/374 485/485/485 377/377/377
f 486/486/486 485/485/485 374/374/374
f 373/373/373 486/486/486 374/374/374
f 489/489/489 488/488/488 487/487/487
f 489/489/489 487/487/487 490/490/490
f 491/491/491 489/489/489 490/490/490
f 491/491/491 490/490/490 492/492/492
f 490/490/490 487/487/487 493/493/493
f 487/487/487 494/494/494 493/493/493
f 493/493/493 494/494/494 495/495/495
f 490/490/490 496/496/496 492/492/492
f 492/492/492 496/496/496 445/445/445
f 496/496/496 444/444/444 445/445/445
f 444/444/444 496/496/496 387/387/387
f 496/496/496 388/388/388 387/387/387
f 388/388/388 496/496/496 490/490/490
f 493/493/493 388/388/388 490/490/490
f 388/388/388 493/493/493 386/386/386
f 386/386/386 493/493/493 495/495/495
f 495/495/495 497/497/497 386/386/386
f 497/497/497 383/383/383 386/386/386
f 498/498/498 497/497/497 495/495/495
f 383/383/383 497/497/497 499/499/499
f 497/497/497 498/498/498 500/500/500
f 500/500/500 498/498/498 501/501/501
f 501/501/501 498/498/498 502/502/502
f 380/380/380 383/383/383 499/499/499
f 499/499/499 503/503/503 380/380/380
f 503/503/503 375/375/375 380/380/380
f 503/503/503 367/367/367 375/375/375
f 367/367/367 370/370/370 375/375/375
f 499/499/499 497/497/497 500/500/500
f 500/500/500 504/504/504 499/499/499
f 504/504/504 503/503/503 499/499/499
f 504/504/504 505/505/505 503/503/503
f 505/505/505 367/367/367 503/503/503
f 369/369/369 367/367/367 505/505/505
f 506/506/506 369/369/369 505/505/505
f 506/506/506 505/505/505 507/507/507
f 505/505/505 508/508/508 507/507/507
f 508/508/508 505/505/505 504/504/504
f 507/507/507 508/508/508 509/509/509
f 510/510/510 504/504/504 500/500/500
f 510/510/510 508/508/508 504/504/504
f 508/508/508 511/511/511 509/509/509
f 511/511/511 508/508/508 510/510/510
f 509/509/509 511/511/511 512/512/512
f 513/513/513 510/510/510 500/500/500
f 513/513/513 500/500/500 501/501/501
f 511/511/511 514/514/514 512/512/512
f 512/512/512 514/514/514 515/515/515
f 516/516/516 511/511/511 510/510/510
f 516/516/516 510/510/510 513/513/513
f 514/514/514 511/511/511 516/516/516
f 514/514/514 517/517/517 515/515/515
f 515/515/515 517/517/517 518/518/518
f 519/519/519 516/516/516 513/513/513
f 519/519/519 513/513/513 501/501/501
f 520/520/520 514/514/514 516/516/516
f 517/517/517 514/514/514 520/520/520
f 520/520/520 516/516/516 519/519/519
f 517/517/517 521/521/521 518/518/518
f 518/518/518 521/521/521 522/522/522
f 523/523/523 517/517/517 520/520/520
f 517/517/517 523/523/523 521/521/521
f 521/521/521 524/524/524 522/522/522
f 522/522/522 524/524/524 525/525/525
f 526/526/526 520/520/520 519/519/519
f 523/523/523 520/520/520 526/526/526
f 523/523/523 527/527/527 521/521/521
f 521/521/521 527/527/527 524/524/524
f 528/528/528 523/523/523 526/526/526
f 528/528/528 526/526/526 519/519/519
f 527/527/527 523/523/523 528/528/528
f 529/529/529 519/519/519 501/501/501
f 529/529/529 528/528/528 519/519/519
f 524/524/524 530/530/530 525/525/525
f 525/525/525 530/530/530 531/531/531
f 530/530/530 532/532/532 531/531/531
f 527/527/527 533/533/533 524/524/524
f 524/524/524 533/533/533 530/530/530
f 534/534/534 527/527/527 528/528/528
f 534/534/534 528/528/528 529/529/529
f 527/527/527 534/534/534 533/533/533
f 529/529/529 501/501/501 535/535/535
f 535/535/535 534/534/534 529/529/529
f 501/501/501 502/502/502 535/535/535
f 530/530/530 536/536/536 532/532/532
f 533/533/533 536/536/536 530/530/530
f 536/536/536 537/537/537 532/532/532
f 534/534/534 538/538/538 533/533/533
f 536/536/536 533/533/533 538/538/538
f 538/538/538 534/534/534 535/535/535
f 537/537/537 536/536/536 539/539/539
f 539/539/539 536/536/536 538/538/538
f 540/540/540 537/537/537 539/539/539
f 541/541/541 538/538/538 535/535/535
f 539/539/539 538/538/538 541/541/541
f 540/540/540 539/539/539 542/542/542
f 542/542/542 539/539/539 541/541/541
f 543/543/543 540/540/540 542/542/542
f 541/541/541 535/535/535 544/544/544
f 535/535/535 502/502/502 544/544/544
f 542/542/542 541/541/541 544/544/544
f 543/543/543 542/542/542 545/545/545
f 545/545/545 542/542/542 544/544/544
f 546/546/546 543/543/543 545/545/545
f 544/544/544 502/502/502 547/547/547
f 498/498/498 547/547/547 502/502/502
f 547/547/547 498/498/498 495/495/495
f 548/548/548 544/544/544 547/547/547
f 548/548/548 547/547/547 495/495/495
f 544/544/544 548/548/548 545/545/545
f 494/494/494 548/548/548 495/495/495
f 545/545/545 549/549/549 546/546/546
f 548/548/548 549/549/549 545/545/545
f 548/548/548 494/494/494 549/549/549
f 549/549/549 488/488/488 546/546/546
f 494/494/494 487/487/487 549/549/549
f 488/488/488 549/549/549 487/487/487
f 552/552/552 551/551/551 550/550/550
f 551/551/551 553/553/553 550/550/550
f 554/554/554 552/552/552 550/550/550
f 555/555/555 552/552/552 554/554/554
f 556/556/556 555/555/555 554/554/554
f 554/554/554 550/550/550 556/556/556
f 555/555/555 556/556/556 557/557/557
f 556/556/556 558/558/558 557/557/557
f 557/557/557 558/558/558 559/559/559
f 550/550/550 560/560/560 556/556/556
f 556/556/556 560/560/560 558/558/558
f 553/553/553 561/561/561 550/550/550
f 550/550/550 561/561/561 560/560/560
f 558/558/558 562/562/562 559/559/559
f 559/559/559 562/562/562 353/353/353
f 562/562/562 352/352/352 353/353/353
f 560/560/560 563/563/563 558/558/558
f 558/558/558 563/563/563 562/562/562
f 562/562/562 564/564/564 352/352/352
f 563/563/563 564/564/564 562/562/562
f 564/564/564 357/357/357 352/352/352
f 560/560/560 565/565/565 563/563/563
f 561/561/561 565/565/565 560/560/560
f 566/566/566 561/561/561 553/553/553
f 567/567/567 566/566/566 553/553/553
f 564/564/564 568/568/568 357/357/357
f 568/568/568 358/358/358 357/357/357
f 563/563/563 569/569/569 564/564/564
f 565/565/565 569/569/569 563/563/563
f 569/569/569 568/568/568 564/564/564
f 570/570/570 565/565/565 561/561/561
f 566/566/566 570/570/570 561/561/561
f 569/569/569 565/565/565 571/571/571
f 569/569/569 571/571/571 568/568/568
f 565/565/565 570/570/570 571/571/571
f 572/572/572 566/566/566 567/567/567
f 573/573/573 572/572/572 567/567/567
f 568/568/568 574/574/574 358/358/358
f 571/571/571 574/574/574 568/568/568
f 575/575/575 570/570/570 566/566/566
f 572/572/572 575/575/575 566/566/566
f 576/576/576 572/572/572 573/573/573
f 577/577/577 576/576/576 573/573/573
f 577/577/577 578/578/578 576/576/576
f 578/578/578 579/579/579 576/576/576
f 576/576/576 579/579/579 580/580/580
f 576/576/576 581/581/581 572/572/572
f 581/581/581 576/576/576 580/580/580
f 581/581/581 575/575/575 572/572/572
f 580/580/580 582/582/582 581/581/581
f 582/582/582 583/583/583 581/581/581
f 581/581/581 583/583/583 575/575/575
f 582/582/582 584/584/584 583/583/583
f 575/575/575 585/585/585 570/570/570
f 585/585/585 571/571/571 570/570/570
f 583/583/583 585/585/585 575/575/575
f 584/584/584 586/586/586 583/583/583
f 585/585/585 583/583/583 586/586/586
f 586/586/586 584/584/584 587/587/587
f 571/571/571 585/585/585 588/588/588
f 588/588/588 585/585/585 586/586/586
f 574/574/574 571/571/571 588/588/588
f 589/589/589 586/586/586 587/587/587
f 588/588/588 586/586/586 589/589/589
f 587/587/587 409/409/409 589/589/589
f 409/409/409 406/406/406 589/589/589
f 589/589/589 406/406/406 590/590/590
f 590/590/590 588/588/588 589/589/589
f 406/406/406 392/392/392 590/590/590
f 590/590/590 392/392/392 366/366/366
f 574/574/574 588/588/588 591/591/591
f 588/588/588 590/590/590 591/591/591
f 591/591/591 590/590/590 366/366/366
f 574/574/574 591/591/591 358/358/358
f 591/591/591 366/366/366 359/359/359
f 358/358/358 591/591/591 359/359/359

