mtllib Window_bd94727f.mtl
g FP204:polySurface5_624c2cfc
v 0.36604 0.85308 6.7151
v -0.11396 0.85308 6.7151
v -0.11396 0.85308 6.7551
v 0.36604 0.85308 6.7551
v 0.32604 0.89308 6.7551
v -0.07396 0.89308 6.7551
v -0.07396 0.89308 6.7151
v 0.32604 0.89308 6.7151
v 0.36604 0.85308 6.7551
v 0.36604 2.53308 6.7551
v 0.36604 2.53308 6.7151
v 0.36604 0.85308 6.7151
v 0.32604 0.89308 6.7151
v 0.32604 2.49308 6.7151
v 0.32604 2.49308 6.7551
v 0.32604 0.89308 6.7551
v -0.07396 0.89308 6.7551
v -0.07396 2.49308 6.7551
v -0.07396 2.49308 6.7151
v -0.07396 0.89308 6.7151
v -0.11396 0.85308 6.7151
v -0.11396 2.53308 6.7151
v -0.11396 2.53308 6.7551
v -0.11396 0.85308 6.7551
v 0.36604 2.53308 6.7551
v -0.11396 2.53308 6.7551
v -0.11396 2.53308 6.7151
v 0.36604 2.53308 6.7151
v 0.32604 2.49308 6.7151
v -0.07396 2.49308 6.7151
v -0.07396 2.49308 6.7551
v 0.32604 2.49308 6.7551
v 0.36604 0.85308 6.7151
v 0.32604 2.49308 6.7151
v 0.32604 0.89308 6.7151
v -0.11396 0.85308 6.7151
v 0.36604 2.53308 6.7151
v -0.07396 0.89308 6.7151
v -0.07396 2.49308 6.7151
v -0.11396 2.53308 6.7151
v 0.32604 0.89308 6.7551
v 0.36604 2.53308 6.7551
v 0.36604 0.85308 6.7551
v -0.07396 0.89308 6.7551
v 0.32604 2.49308 6.7551
v -0.11396 0.85308 6.7551
v -0.11396 2.53308 6.7551
v -0.07396 2.49308 6.7551
vn 6.563716E-14 -0.2003508 -3.814697E-06
vn 6.563716E-14 -0.2003508 -3.814697E-06
vn 6.563716E-14 -0.2003508 -3.814697E-06
vn 6.563716E-14 -0.2003508 -3.814697E-06
vn -6.563716E-14 0.9543502 -3.814697E-06
vn -6.563716E-14 0.9543502 -3.814697E-06
vn -6.563716E-14 0.9543502 -3.814697E-06
vn -6.563716E-14 0.9543502 -3.814697E-06
vn 0.57735 0.3769997 -3.814697E-06
vn 0.57735 0.3769997 -3.814697E-06
vn 0.57735 0.3769997 -3.814697E-06
vn 0.57735 0.3769997 -3.814697E-06
vn -0.57735 0.3769997 -3.814697E-06
vn -0.57735 0.3769997 -3.814697E-06
vn -0.57735 0.3769997 -3.814697E-06
vn -0.57735 0.3769997 -3.814697E-06
vn 0.57735 0.3769997 -3.814697E-06
vn 0.57735 0.3769997 -3.814697E-06
vn 0.57735 0.3769997 -3.814697E-06
vn 0.57735 0.3769997 -3.814697E-06
vn -0.57735 0.3769997 -3.814697E-06
vn -0.57735 0.3769997 -3.814697E-06
vn -0.57735 0.3769997 -3.814697E-06
vn -0.57735 0.3769997 -3.814697E-06
vn -6.563716E-14 0.9543502 -3.814697E-06
vn -6.563716E-14 0.9543502 -3.814697E-06
vn -6.563716E-14 0.9543502 -3.814697E-06
vn -6.563716E-14 0.9543502 -3.814697E-06
vn 6.563716E-14 -0.2003508 -3.814697E-06
vn 6.563716E-14 -0.2003508 -3.814697E-06
vn 6.563716E-14 -0.2003508 -3.814697E-06
vn 6.563716E-14 -0.2003508 -3.814697E-06
vn -3.281858E-14 0.3769997 -0.5773543
vn -3.281858E-14 0.3769997 -0.5773543
vn -3.281858E-14 0.3769997 -0.5773543
vn -3.281858E-14 0.3769997 -0.5773543
vn -3.281858E-14 0.3769997 -0.5773543
vn -3.281858E-14 0.3769997 -0.5773543
vn -3.281858E-14 0.3769997 -0.5773543
vn -3.281858E-14 0.3769997 -0.5773543
vn 3.281858E-14 0.3769997 0.5773466
vn 3.281858E-14 0.3769997 0.5773466
vn 3.281858E-14 0.3769997 0.5773466
vn 3.281858E-14 0.3769997 0.5773466
vn 3.281858E-14 0.3769997 0.5773466
vn 3.281858E-14 0.3769997 0.5773466
vn 3.281858E-14 0.3769997 0.5773466
vn 3.281858E-14 0.3769997 0.5773466
vt 0.6967753 -0.09572016
vt 0.6967753 0.3842803
vt 0.7367752 0.3842803
vt 0.7367752 -0.09572016
vt 0.7571428 -0.07943455
vt 0.7571428 0.3205654
vt 0.7971428 0.3205654
vt 0.7971428 -0.07943455
vt 0.5760408 -0.3400008
vt 0.5760398 1.340001
vt 0.6160398 1.340001
vt 0.6160408 -0.3400008
vt 0.6364076 -0.3237151
vt 0.6364076 1.276286
vt 0.6764076 1.276286
vt 0.6764076 -0.3237151
vt 0.6665912 -0.3237145
vt 0.6665912 1.276286
vt 0.7065911 1.276286
vt 0.7065911 -0.3237145
vt 0.6062236 -0.3400018
vt 0.6062247 1.340002
vt 0.6462246 1.340002
vt 0.6462235 -0.3400018
vt 0.726959 -0.0957199
vt 0.726959 0.3842801
vt 0.766959 0.3842801
vt 0.766959 -0.0957199
vt 0.7873267 -0.07943455
vt 0.7873267 0.3205654
vt 0.8273267 0.3205654
vt 0.8273267 -0.07943455
vt 0.3839231 1.34
vt 0.3439231 -0.3000001
vt 0.3439231 1.3
vt -0.09607683 1.34
vt 0.3839231 -0.3399995
vt -0.05607685 1.3
vt -0.05607685 -0.3000001
vt -0.09607683 -0.3399995
vt 0.6352857 -0.3
vt 0.6752857 1.34
vt 0.6752857 -0.3399999
vt 0.2352856 -0.3
vt 0.6352857 1.300001
vt 0.1952856 -0.3399999
vt 0.1952856 1.34
vt 0.2352856 1.300001
usemtl Cream_wood
f 3/3/3 2/2/2 1/1/1
f 4/4/4 3/3/3 1/1/1
f 7/7/7 6/6/6 5/5/5
f 8/8/8 7/7/7 5/5/5
f 11/11/11 10/10/10 9/9/9
f 12/12/12 11/11/11 9/9/9
f 15/15/15 14/14/14 13/13/13
f 16/16/16 15/15/15 13/13/13
f 19/19/19 18/18/18 17/17/17
f 20/20/20 19/19/19 17/17/17
f 23/23/23 22/22/22 21/21/21
f 24/24/24 23/23/23 21/21/21
f 27/27/27 26/26/26 25/25/25
f 28/28/28 27/27/27 25/25/25
f 31/31/31 30/30/30 29/29/29
f 32/32/32 31/31/31 29/29/29
f 35/35/35 34/34/34 33/33/33
f 35/35/35 33/33/33 36/36/36
f 34/34/34 37/37/37 33/33/33
f 38/38/38 35/35/35 36/36/36
f 34/34/34 39/39/39 37/37/37
f 36/36/36 40/40/40 38/38/38
f 39/39/39 40/40/40 37/37/37
f 40/40/40 39/39/39 38/38/38
f 43/43/43 42/42/42 41/41/41
f 41/41/41 44/44/44 43/43/43
f 42/42/42 45/45/45 41/41/41
f 44/44/44 46/46/46 43/43/43
f 45/45/45 42/42/42 47/47/47
f 44/44/44 48/48/48 46/46/46
f 48/48/48 47/47/47 46/46/46
f 48/48/48 45/45/45 47/47/47
g FP204:polySurface13_28cc13ba
v 0.31604 0.90308 6.7301
v 0.31604 2.48308 6.7301
v 0.31604 2.48308 6.7401
v 0.31604 0.90308 6.7401
v 0.31604 2.48308 6.7301
v -0.06396 2.48308 6.7301
v -0.06396 2.48308 6.7401
v 0.31604 2.48308 6.7401
v -0.06396 2.48308 6.7301
v -0.06396 0.90308 6.7301
v -0.06396 0.90308 6.7401
v -0.06396 2.48308 6.7401
v -0.06396 0.90308 6.7301
v 0.31604 0.90308 6.7301
v 0.31604 0.90308 6.7401
v -0.06396 0.90308 6.7401
v 0.32604 0.89308 6.7301
v 0.32604 2.49308 6.7351
v 0.32604 2.49308 6.7301
v 0.32604 0.89308 6.7351
v 0.32604 2.49308 6.7401
v 0.32604 0.89308 6.7401
v 0.32604 2.49308 6.7301
v -0.07396 2.49308 6.7351
v -0.07396 2.49308 6.7301
v 0.32604 2.49308 6.7351
v -0.07396 2.49308 6.7401
v 0.32604 2.49308 6.7401
v -0.07396 2.49308 6.7301
v -0.07396 0.89308 6.7351
v -0.07396 0.89308 6.7301
v -0.07396 2.49308 6.7351
v -0.07396 0.89308 6.7401
v -0.07396 2.49308 6.7401
v -0.07396 0.89308 6.7301
v 0.32604 0.89308 6.7351
v 0.32604 0.89308 6.7301
v -0.07396 0.89308 6.7351
v 0.32604 0.89308 6.7401
v -0.07396 0.89308 6.7401
v 0.32604 0.89308 6.7301
v 0.32604 2.49308 6.7301
v 0.31604 2.48308 6.7301
v 0.31604 0.90308 6.7301
v -0.06396 2.48308 6.7301
v -0.07396 0.89308 6.7301
v -0.07396 2.49308 6.7301
v -0.06396 0.90308 6.7301
v 0.31604 0.90308 6.7401
v 0.31604 2.48308 6.7401
v 0.32604 2.49308 6.7401
v 0.32604 0.89308 6.7401
v -0.07396 2.49308 6.7401
v -0.06396 0.90308 6.7401
v -0.06396 2.48308 6.7401
v -0.07396 0.89308 6.7401
vn -0.57735 -1.072884E-06 -4.291534E-06
vn -0.57735 -1.072884E-06 -4.291534E-06
vn -0.57735 -1.072884E-06 -4.291534E-06
vn -0.57735 -1.072884E-06 -4.291534E-06
vn 6.563716E-14 -0.5773516 -4.291534E-06
vn 6.563716E-14 -0.5773516 -4.291534E-06
vn 6.563716E-14 -0.5773516 -4.291534E-06
vn 6.563716E-14 -0.5773516 -4.291534E-06
vn 0.57735 -1.072883E-06 -4.291534E-06
vn 0.57735 -1.072883E-06 -4.291534E-06
vn 0.57735 -1.072883E-06 -4.291534E-06
vn 0.57735 -1.072883E-06 -4.291534E-06
vn -6.563716E-14 0.5773494 -4.291534E-06
vn -6.563716E-14 0.5773494 -4.291534E-06
vn -6.563716E-14 0.5773494 -4.291534E-06
vn -6.563716E-14 0.5773494 -4.291534E-06
vn 0.57735 -1.072883E-06 -4.291534E-06
vn 0.57735 -1.072883E-06 -4.291534E-06
vn 0.57735 -1.072883E-06 -4.291534E-06
vn 0.57735 -1.072883E-06 -4.291534E-06
vn 0.57735 -1.072883E-06 -4.291534E-06
vn 0.57735 -1.072883E-06 -4.291534E-06
vn -6.563716E-14 0.5773494 -4.291534E-06
vn -6.563716E-14 0.5773494 -4.291534E-06
vn -6.563716E-14 0.5773494 -4.291534E-06
vn -6.563716E-14 0.5773494 -4.291534E-06
vn -6.563716E-14 0.5773494 -4.291534E-06
vn -6.563716E-14 0.5773494 -4.291534E-06
vn -0.57735 -1.072884E-06 -4.291534E-06
vn -0.57735 -1.072884E-06 -4.291534E-06
vn -0.57735 -1.072884E-06 -4.291534E-06
vn -0.57735 -1.072884E-06 -4.291534E-06
vn -0.57735 -1.072884E-06 -4.291534E-06
vn -0.57735 -1.072884E-06 -4.291534E-06
vn 6.563716E-14 -0.5773516 -4.291534E-06
vn 6.563716E-14 -0.5773516 -4.291534E-06
vn 6.563716E-14 -0.5773516 -4.291534E-06
vn 6.563716E-14 -0.5773516 -4.291534E-06
vn 6.563716E-14 -0.5773516 -4.291534E-06
vn 6.563716E-14 -0.5773516 -4.291534E-06
vn -3.281858E-14 -1.072884E-06 -0.5773547
vn -3.281858E-14 -1.072884E-06 -0.5773547
vn -3.281858E-14 -1.072884E-06 -0.5773547
vn -3.281858E-14 -1.072884E-06 -0.5773547
vn -3.281858E-14 -1.072884E-06 -0.5773547
vn -3.281858E-14 -1.072884E-06 -0.5773547
vn -3.281858E-14 -1.072884E-06 -0.5773547
vn -3.281858E-14 -1.072884E-06 -0.5773547
vn 3.281858E-14 -1.072884E-06 0.5773461
vn 3.281858E-14 -1.072884E-06 0.5773461
vn 3.281858E-14 -1.072884E-06 0.5773461
vn 3.281858E-14 -1.072884E-06 0.5773461
vn 3.281858E-14 -1.072884E-06 0.5773461
vn 3.281858E-14 -1.072884E-06 0.5773461
vn 3.281858E-14 -1.072884E-06 0.5773461
vn 3.281858E-14 -1.072884E-06 0.5773461
vt 0.5364147 -0.2962306
vt 0.5364137 1.28378
vt 0.5464139 1.28378
vt 0.5464145 -0.2962306
vt 0.5868617 -0.06972858
vt 0.5868617 0.3102667
vt 0.5968618 0.3102667
vt 0.5968618 -0.06972858
vt 0.5590267 1.283791
vt 0.5590257 -0.2962411
vt 0.5490258 -0.2962411
vt 0.5490264 1.283791
vt 0.6094735 0.3102725
vt 0.6094735 -0.06973434
vt 0.5994736 -0.06973434
vt 0.5994736 0.3102725
vt 0.52119 -0.3000144
vt 0.5161912 1.300014
vt 0.52119 1.300014
vt 0.5161906 -0.3000144
vt 0.5111902 1.300014
vt 0.5111902 -0.3000144
vt 0.5716376 -0.07350855
vt 0.5666382 0.326497
vt 0.5716376 0.326497
vt 0.5666386 -0.07350855
vt 0.5616378 0.326497
vt 0.5616378 -0.07350855
vt 0.5238021 1.300018
vt 0.5288014 -0.3000182
vt 0.5238021 -0.3000182
vt 0.5288014 1.300018
vt 0.5338019 -0.3000182
vt 0.5338019 1.300018
vt 0.5742497 0.3264981
vt 0.5792491 -0.07350956
vt 0.5742497 -0.07350956
vt 0.5792491 0.3264981
vt 0.5842496 -0.07350956
vt 0.5842496 0.3264981
vt 0.3257148 1.3
vt 0.3257148 -0.2999999
vt 0.3157148 -0.29
vt 0.3157148 1.29
vt -0.06428523 -0.29
vt -0.07428525 1.3
vt -0.07428525 -0.2999999
vt -0.06428523 1.29
vt 0.5717372 -0.2899995
vt 0.5717372 1.29
vt 0.5817372 1.3
vt 0.5817372 -0.2999995
vt 0.1817373 1.3
vt 0.1917373 -0.2899995
vt 0.1917373 1.29
vt 0.1817373 -0.2999995
usemtl Plastic
f 51/51/51 50/50/50 49/49/49
f 52/52/52 51/51/51 49/49/49
f 55/55/55 54/54/54 53/53/53
f 56/56/56 55/55/55 53/53/53
f 59/59/59 58/58/58 57/57/57
f 60/60/60 59/59/59 57/57/57
f 63/63/63 62/62/62 61/61/61
f 64/64/64 63/63/63 61/61/61
f 67/67/67 66/66/66 65/65/65
f 66/66/66 68/68/68 65/65/65
f 68/68/68 66/66/66 69/69/69
f 70/70/70 68/68/68 69/69/69
f 73/73/73 72/72/72 71/71/71
f 72/72/72 74/74/74 71/71/71
f 74/74/74 72/72/72 75/75/75
f 76/76/76 74/74/74 75/75/75
f 79/79/79 78/78/78 77/77/77
f 78/78/78 80/80/80 77/77/77
f 80/80/80 78/78/78 81/81/81
f 82/82/82 80/80/80 81/81/81
f 85/85/85 84/84/84 83/83/83
f 84/84/84 86/86/86 83/83/83
f 86/86/86 84/84/84 87/87/87
f 88/88/88 86/86/86 87/87/87
f 91/91/91 90/90/90 89/89/89
f 92/92/92 91/91/91 89/89/89
f 91/91/91 93/93/93 90/90/90
f 92/92/92 89/89/89 94/94/94
f 93/93/93 95/95/95 90/90/90
f 96/96/96 92/92/92 94/94/94
f 93/93/93 96/96/96 95/95/95
f 96/96/96 94/94/94 95/95/95
f 99/99/99 98/98/98 97/97/97
f 100/100/100 99/99/99 97/97/97
f 99/99/99 101/101/101 98/98/98
f 100/100/100 97/97/97 102/102/102
f 101/101/101 103/103/103 98/98/98
f 104/104/104 100/100/100 102/102/102
f 101/101/101 104/104/104 103/103/103
f 104/104/104 102/102/102 103/103/103
g FP204:polySurface15_a48149b9
v 0.31604 0.90308 6.7401
v -0.06396 0.90308 6.7401
v -0.06396 2.48308 6.7401
v 0.31604 2.48308 6.7401
v 0.31604 2.48308 6.7301
v -0.06396 2.48308 6.7301
v -0.06396 0.90308 6.7301
v 0.31604 0.90308 6.7301
v -0.06396 0.90308 6.7401
v -0.06396 2.48308 6.7351
v -0.06396 2.48308 6.7401
v -0.06396 0.90308 6.7351
v -0.06396 2.48308 6.7301
v -0.06396 0.90308 6.7301
v 0.31604 0.90308 6.7401
v -0.06396 0.90308 6.7351
v -0.06396 0.90308 6.7401
v 0.31604 0.90308 6.7351
v -0.06396 0.90308 6.7301
v 0.31604 0.90308 6.7301
v 0.31604 2.48308 6.7401
v 0.31604 0.90308 6.7351
v 0.31604 0.90308 6.7401
v 0.31604 2.48308 6.7351
v 0.31604 0.90308 6.7301
v 0.31604 2.48308 6.7301
v -0.06396 2.48308 6.7401
v 0.31604 2.48308 6.7351
v 0.31604 2.48308 6.7401
v -0.06396 2.48308 6.7351
v 0.31604 2.48308 6.7301
v -0.06396 2.48308 6.7301
vn 0.1260357 1.693073 7.312447
vn 0.1260357 1.693073 7.312447
vn 0.1260357 1.693073 7.312447
vn 0.1260357 1.693073 7.312447
vn 0.1260357 1.693073 6.157745
vn 0.1260357 1.693073 6.157745
vn 0.1260357 1.693073 6.157745
vn 0.1260357 1.693073 6.157745
vn -0.4513143 1.693073 6.735096
vn -0.4513143 1.693073 6.735096
vn -0.4513143 1.693073 6.735096
vn -0.4513143 1.693073 6.735096
vn -0.4513143 1.693073 6.735096
vn -0.4513143 1.693073 6.735096
vn 0.1260357 1.115722 6.735096
vn 0.1260357 1.115722 6.735092
vn 0.1260357 1.115722 6.735096
vn 0.1260357 1.115722 6.735092
vn 0.1260357 1.115722 6.735088
vn 0.1260357 1.115722 6.735088
vn 0.7033857 1.693073 6.735096
vn 0.7033857 1.693073 6.735096
vn 0.7033857 1.693073 6.735096
vn 0.7033857 1.693073 6.735096
vn 0.7033857 1.693073 6.735096
vn 0.7033857 1.693073 6.735096
vn 0.1260357 2.270423 6.735096
vn 0.1260357 2.270423 6.735096
vn 0.1260357 2.270423 6.735096
vn 0.1260357 2.270423 6.735096
vn 0.1260357 2.270423 6.735096
vn 0.1260357 2.270423 6.735096
vt 0.3108484 -0.2899999
vt -0.06915168 -0.2899999
vt -0.06915168 1.29
vt 0.3108484 1.29
vt 0.5575876 -0.2899998
vt 0.1775876 -0.2899998
vt 0.1775876 1.29
vt 0.5575876 1.29
vt 0.5025267 -0.2900034
vt 0.4975268 1.290004
vt 0.5025261 1.290004
vt 0.4975268 -0.2900034
vt 0.492526 1.290004
vt 0.492527 -0.2900034
vt 0.5275391 -0.0682368
vt 0.5225392 0.3117692
vt 0.5275391 0.3117692
vt 0.5225392 -0.0682368
vt 0.5175393 0.3117692
vt 0.5175393 -0.0682368
vt 0.5050329 1.290006
vt 0.5100323 -0.2900056
vt 0.5050324 -0.2900056
vt 0.5100323 1.290006
vt 0.5150322 -0.2900055
vt 0.5150331 1.290006
vt 0.530046 0.3117652
vt 0.5350453 -0.06823285
vt 0.530046 -0.06823285
vt 0.5350453 0.3117652
vt 0.5400461 -0.06823285
vt 0.5400461 0.3117652
usemtl Glass_Detailed_Lit_High_Mat
f 107/107/107 106/106/106 105/105/105
f 108/108/108 107/107/107 105/105/105
f 111/111/111 110/110/110 109/109/109
f 112/112/112 111/111/111 109/109/109
f 115/115/115 114/114/114 113/113/113
f 114/114/114 116/116/116 113/113/113
f 116/116/116 114/114/114 117/117/117
f 118/118/118 116/116/116 117/117/117
f 121/121/121 120/120/120 119/119/119
f 120/120/120 122/122/122 119/119/119
f 122/122/122 120/120/120 123/123/123
f 124/124/124 122/122/122 123/123/123
f 127/127/127 126/126/126 125/125/125
f 126/126/126 128/128/128 125/125/125
f 128/128/128 126/126/126 129/129/129
f 130/130/130 128/128/128 129/129/129
f 133/133/133 132/132/132 131/131/131
f 132/132/132 134/134/134 131/131/131
f 134/134/134 132/132/132 135/135/135
f 136/136/136 134/134/134 135/135/135
g QuadDecalSpawnPlane_(4)_02782658
v 0.32119 0.89915 6.72071
v -0.06715 0.89915 6.7207
v 0.32119 2.48582 6.72071
v -0.06715 2.48582 6.72071
vn 0.127011 1.69248 6.198586
vn 0.127011 1.69248 6.198586
vn 0.127011 1.69248 6.198586
vn 0.127011 1.69248 6.198586
vt 0 0
vt 1 0
vt 0 1
vt 1 1
usemtl GlassDecalStencil (Instance)
f 138/138/138 140/140/140 137/137/137
f 139/139/139 137/137/137 140/140/140
