mtllib Countertopmesh_ebfc63b6.mtl
g Countertopmesh_ebfc63b6
v 2.05342 0.87297 -1.28613
v 2.05342 0.87679 -1.28209
v 2.05746 0.87679 -1.28612
v 2.05746 0.89618 -1.86173
v 2.05342 0.9 -1.86173
v 2.05342 0.89618 -1.86577
v 2.05746 0.89598 -1.28612
v 2.05342 0.89598 -1.28208
v 2.05342 0.8998 -1.28612
v 0.04422 0.87699 -1.86174
v 0.04826 0.87699 -1.86578
v 0.04826 0.89618 -1.86577
v 0.04422 0.87699 -1.86174
v 0.04826 0.89618 -1.86577
v 0.04422 0.89618 -1.86173
v 0.04826 0.87316 -1.86174
v 0.04826 0.87699 -1.86578
v 0.04422 0.87699 -1.86174
v 0.04826 0.87297 -1.28613
v 0.04422 0.87679 -1.28612
v 0.04826 0.87679 -1.28209
v 0.04422 0.89618 -1.86173
v 0.04826 0.89618 -1.86577
v 0.04826 0.9 -1.86173
v 0.04422 0.89598 -1.28612
v 0.04826 0.8998 -1.28612
v 0.04826 0.89598 -1.28208
v 1.07586 0.87699 -1.86578
v 0.04826 0.87699 -1.86578
v 1.07573 0.87502 -1.8637
v 2.05746 0.87699 -1.86174
v 2.05746 0.87679 -1.28612
v 2.05746 0.89598 -1.28612
v 2.05746 0.89618 -1.86173
v 2.05746 0.87699 -1.86174
v 2.05342 0.87297 -1.28613
v 2.05746 0.87679 -1.28612
v 2.05342 0.87317 -1.86174
v 2.05342 0.87699 -1.86578
v 2.05746 0.89618 -1.86173
v 2.05342 0.89618 -1.86577
v 2.05342 0.87699 -1.86578
v 2.05746 0.87699 -1.86174
v 2.05746 0.89598 -1.28612
v 2.05342 0.8998 -1.28612
v 2.05342 0.9 -1.86173
v 2.05746 0.89618 -1.86173
v 2.05342 0.89598 -1.28208
v 2.05746 0.89598 -1.28612
v 2.05746 0.87679 -1.28612
v 2.05342 0.87679 -1.28209
v 0.04826 0.87699 -1.86578
v 1.07717 0.89618 -1.86577
v 0.04826 0.89618 -1.86577
v 1.07653 0.88683 -1.86577
v 1.07586 0.87699 -1.86578
v 2.05342 0.89618 -1.86577
v 2.05342 0.87699 -1.86578
v 0.04826 0.87679 -1.28209
v 0.04826 0.89598 -1.28208
v 1.07759 0.89598 -1.28208
v 1.07695 0.88663 -1.28209
v 1.07628 0.87679 -1.28209
v 2.05342 0.89598 -1.28208
v 2.05342 0.87679 -1.28209
v 2.05342 0.87699 -1.86578
v 1.07586 0.87699 -1.86578
v 1.07573 0.87502 -1.8637
v 2.05342 0.87317 -1.86174
v 1.07569 0.87437 -1.86301
v 1.07561 0.87317 -1.86174
v 1.07569 0.87437 -1.86301
v 0.04826 0.87699 -1.86578
v 1.07573 0.87502 -1.8637
v 0.04826 0.87316 -1.86174
v 0.04826 0.87297 -1.28613
v 0.04826 0.87679 -1.28209
v 1.07628 0.87679 -1.28209
v 1.07615 0.87492 -1.28406
v 1.07602 0.87297 -1.28613
v 2.05342 0.87679 -1.28209
v 2.05342 0.87297 -1.28613
v 0.04422 0.87679 -1.28612
v 0.04826 0.87297 -1.28613
v 0.04826 0.87316 -1.86174
v 0.04422 0.87699 -1.86174
v 2.05342 0.89618 -1.86577
v 2.05342 0.9 -1.86173
v 1.07743 0.9 -1.86173
v 1.0773 0.89804 -1.8638
v 1.07717 0.89618 -1.86577
v 0.04826 0.9 -1.86173
v 0.04826 0.89618 -1.86577
v 2.05342 0.8998 -1.28612
v 2.05342 0.89598 -1.28208
v 1.07759 0.89598 -1.28208
v 1.07772 0.89794 -1.28415
v 1.07772 0.8998 -1.28612
v 0.04826 0.89598 -1.28208
v 0.04826 0.8998 -1.28612
v 0.04422 0.89618 -1.86173
v 0.04826 0.9 -1.86173
v 0.04826 0.8998 -1.28612
v 0.04422 0.89598 -1.28612
v 0.04826 0.87679 -1.28209
v 0.04422 0.87679 -1.28612
v 0.04422 0.89598 -1.28612
v 0.04826 0.89598 -1.28208
v 0.04422 0.89618 -1.86173
v 0.04422 0.89598 -1.28612
v 0.04422 0.87679 -1.28612
v 0.04422 0.87699 -1.86174
v 1.88748 0.89985 -1.34845
v 1.88748 0.87297 -1.34845
v 1.88748 0.87297 -1.69083
v 1.88748 0.89996 -1.69083
v 1.88748 0.89996 -1.69083
v 1.88748 0.87297 -1.69083
v 1.25323 0.87297 -1.69083
v 1.25323 0.89996 -1.69083
v 1.25323 0.89996 -1.69083
v 1.25323 0.87297 -1.69083
v 1.25343 0.87297 -1.34845
v 1.25343 0.89985 -1.34845
v 1.25343 0.89985 -1.34845
v 1.25343 0.87297 -1.34845
v 1.88748 0.87297 -1.34845
v 1.88748 0.89985 -1.34845
v 0.84997 0.89985 -1.34845
v 0.84997 0.87297 -1.34845
v 0.84979 0.87297 -1.69083
v 0.84979 0.89996 -1.69083
v 0.84979 0.89996 -1.69083
v 0.84979 0.87297 -1.69083
v 0.20023 0.87297 -1.69083
v 0.20023 0.89996 -1.69083
v 0.20023 0.89996 -1.69083
v 0.20023 0.87297 -1.69083
v 0.20023 0.87297 -1.34845
v 0.20023 0.89985 -1.34845
v 0.20023 0.89985 -1.34845
v 0.20023 0.87297 -1.34845
v 0.84997 0.87297 -1.34845
v 0.84997 0.89985 -1.34845
v 1.07743 0.9 -1.86173
v 0.84979 0.89996 -1.69083
v 0.20023 0.89996 -1.69083
v 0.84997 0.89985 -1.34845
v 0.04826 0.9 -1.86173
v 0.20023 0.89985 -1.34845
v 0.04826 0.8998 -1.28612
v 1.07772 0.8998 -1.28612
v 1.25323 0.89996 -1.69083
v 2.05342 0.9 -1.86173
v 1.25343 0.89985 -1.34845
v 1.88748 0.89996 -1.69083
v 1.88748 0.89985 -1.34845
v 2.05342 0.8998 -1.28612
v 1.07561 0.87317 -1.86174
v 1.25323 0.87297 -1.69083
v 1.88748 0.87297 -1.69083
v 1.25343 0.87297 -1.34845
v 2.05342 0.87317 -1.86174
v 1.88748 0.87297 -1.34845
v 2.05342 0.87297 -1.28613
v 1.07602 0.87297 -1.28613
v 0.84979 0.87297 -1.69083
v 0.04826 0.87316 -1.86174
v 0.84997 0.87297 -1.34845
v 0.20023 0.87297 -1.69083
v 0.20023 0.87297 -1.34845
v 0.04826 0.87297 -1.28613
vn 0.1240865 -0.4659235 0.3175707
vn 0.0007115548 -0.4192788 0.3969106
vn 0.3969789 -0.4192115 0.001674866
vn 0.3968994 0.4192868 -0.001674848
vn 0.1240758 0.4661096 -0.3173016
vn 0.0007120444 0.4195347 -0.3966402
vn 0.3968892 0.4192952 0.00196412
vn 0.0007112323 0.4190681 0.3971331
vn 0.1242644 0.4658127 0.3176636
vn -0.4084018 0.0001438901 -0.4080946
vn -0.4084025 0.0001426649 -0.4080939
vn -0.4083996 0.0001480956 -0.4080968
vn -0.4084018 0.0001438901 -0.4080946
vn -0.4083996 0.0001480956 -0.4080968
vn -0.4083989 0.0001493208 -0.4080975
vn -0.1615447 -0.4736879 -0.2878479
vn -0.001023781 -0.419229 -0.3969626
vn -0.3970006 -0.4191897 -0.0019653
vn -0.1210103 -0.465133 0.3199081
vn -0.3970087 -0.4191831 0.001674782
vn -0.0006871832 -0.4192745 0.3969153
vn -0.3969293 0.4192585 -0.001674791
vn -0.0006865927 0.4195338 -0.3966412
vn -0.1208543 0.4652859 -0.3197446
vn -0.3969207 0.4192654 0.001964066
vn -0.1207706 0.4649145 0.3203159
vn -0.0006871527 0.4190648 0.3971366
vn 0 -0.4192302 -0.3969627
vn -0.001023781 -0.419229 -0.3969626
vn 0 -0.419227 -0.396966
vn 0.5773503 0 0
vn 0.5773503 0 0
vn 0.5773503 0 0
vn 0.5773503 0 0
vn 0.3969614 -0.4192268 -0.001965268
vn 0.1240865 -0.4659235 0.3175707
vn 0.3969789 -0.4192115 0.001674866
vn 0.1240222 -0.4658415 -0.3177162
vn 0.0007094917 -0.4192298 -0.3969624
vn 0.4083789 0.0001461436 -0.4081176
vn 0.4083799 0.0001446638 -0.4081167
vn 0.4083758 0.0001512227 -0.4081208
vn 0.4083748 0.0001527025 -0.4081217
vn 0.3968892 0.4192952 0.00196412
vn 0.1242644 0.4658127 0.3176636
vn 0.1240758 0.4661096 -0.3173016
vn 0.3968994 0.4192868 -0.001674848
vn 0.4081697 -0.0001381765 0.4083268
vn 0.4081747 -0.0001366956 0.4083218
vn 0.4081527 -0.0001432636 0.4083439
vn 0.4081477 -0.0001447446 0.4083488
vn 1.197698E-07 0.0002006034 -0.5773503
vn 8.963196E-08 0.0001998944 -0.5773503
vn 1.200229E-07 0.0002005924 -0.5773503
vn 0 0.000201937 -0.5773503
vn -8.94286E-08 0.0002039845 -0.5773503
vn -1.239478E-07 0.0002032524 -0.5773503
vn -1.241926E-07 0.0002032631 -0.5773503
vn -5.986938E-08 -0.0002067929 0.5773503
vn -5.999586E-08 -0.0002067951 0.5773503
vn 0 -0.0002069321 0.5773503
vn 0 -0.000206529 0.5773503
vn 0 -0.0002061248 0.5773503
vn 6.199197E-08 -0.0002062701 0.5773503
vn 6.211423E-08 -0.000206268 0.5773503
vn 0.0007094917 -0.4192298 -0.3969624
vn 0 -0.4192302 -0.3969627
vn 0 -0.419227 -0.396966
vn 0.1240222 -0.4658415 -0.3177162
vn 0 -0.4192159 -0.3969778
vn 0 -0.419221 -0.3969724
vn 0 -0.4192159 -0.3969778
vn -0.001023781 -0.419229 -0.3969626
vn 0 -0.419227 -0.396966
vn -0.1615447 -0.4736879 -0.2878479
vn -0.1210103 -0.465133 0.3199081
vn -0.0006871832 -0.4192745 0.3969153
vn 0 -0.419274 0.3969164
vn 0 -0.4192784 0.3969118
vn 0 -0.4192831 0.3969069
vn 0.0007115548 -0.4192788 0.3969106
vn 0.1240865 -0.4659235 0.3175707
vn -0.3970087 -0.4191831 0.001674782
vn -0.1210103 -0.465133 0.3199081
vn -0.1615447 -0.4736879 -0.2878479
vn -0.3970006 -0.4191897 -0.0019653
vn 0.0007120444 0.4195347 -0.3966402
vn 0.1240758 0.4661096 -0.3173016
vn 8.025013E-08 0.4195394 -0.3966359
vn 0 0.4195362 -0.3966392
vn -8.012354E-08 0.4195328 -0.3966429
vn -0.1208543 0.4652859 -0.3197446
vn -0.0006865927 0.4195338 -0.3966412
vn 0.1242644 0.4658127 0.3176636
vn 0.0007112323 0.4190681 0.3971331
vn 0 0.4190728 0.3971288
vn 0 0.4190688 0.397133
vn 0 0.4190652 0.3971368
vn -0.0006871527 0.4190648 0.3971366
vn -0.1207706 0.4649145 0.3203159
vn -0.3969293 0.4192585 -0.001674791
vn -0.1208543 0.4652859 -0.3197446
vn -0.1207706 0.4649145 0.3203159
vn -0.3969207 0.4192654 0.001964066
vn -0.4081855 -0.0001381345 0.4083111
vn -0.4081845 -0.0001363315 0.4083121
vn -0.4081889 -0.0001443276 0.4083076
vn -0.40819 -0.0001461304 0.4083066
vn -0.5773503 0 0
vn -0.5773503 -1.594667E-07 0
vn -0.5773503 -1.560825E-07 0
vn -0.5773503 0 0
vn -0.5773503 0 0
vn -0.5773503 0 0
vn -0.5773503 0 0
vn -0.5773503 0 0
vn 0 0 0.5773503
vn 0 0 0.5773503
vn 0 0 0.5773503
vn 0 0 0.5773503
vn 0.5773502 0 -0.0003261418
vn 0.5773502 0 -0.0003261418
vn 0.5773502 0 -0.0003261418
vn 0.5773502 0 -0.0003261418
vn 0 0 -0.5773503
vn 0 0 -0.5773503
vn 0 0 -0.5773503
vn 0 0 -0.5773503
vn -0.5773502 0 0.0003104462
vn -0.5773502 0 0.0003104461
vn -0.5773502 0 0.0003104461
vn -0.5773502 0 0.0003104462
vn 0 0 0.5773503
vn 0 0 0.5773503
vn 0 0 0.5773503
vn 0 0 0.5773503
vn 0.5773503 0 0
vn 0.5773503 0 0
vn 0.5773503 0 0
vn 0.5773503 0 0
vn 0 0 -0.5773503
vn 0 0 -0.5773503
vn 0 0 -0.5773503
vn 0 0 -0.5773503
vn 0 0.5773503 0.0001611904
vn 0 0.5773503 0.0001612469
vn -2.298827E-05 0.5773503 0.0001711224
vn 0 0.5773501 0.0004412615
vn -2.006396E-05 0.5773503 0.0001698662
vn -6.796931E-05 0.5773503 0.0001904458
vn -6.79693E-05 0.5773503 0.0001904458
vn 0 0.5773501 0.0004412615
vn 0 0.5773503 0.0001611904
vn 2.164807E-05 0.5773503 0.0001713585
vn 0 0.5773501 0.0004410514
vn 2.235928E-05 0.5773503 0.0001716926
vn 6.225037E-05 0.5773503 0.0001904293
vn 6.225036E-05 0.5773503 0.0001904294
vn 0 -0.5773499 -0.00067234
vn 0 -0.5773499 -0.0006723402
vn 0 -0.5773499 -0.00067234
vn 0 -0.5773503 -4.210064E-07
vn 0 -0.5773499 -0.0006723401
vn 0.0003053154 -0.5773502 -0.0001251023
vn 0.0003053154 -0.5773502 -0.0001251023
vn 0 -0.5773503 -4.210064E-07
vn 0 -0.5773499 -0.0006725092
vn -0.0003332377 -0.5773502 -0.000125078
vn 0 -0.5773503 5.39245E-07
vn -0.0003332377 -0.5773502 -0.000125078
vn 0 -0.5773503 5.39245E-07
vn 0 -0.5773503 5.392451E-07
vt 0.6734584 1.057675
vt 0.685549 1.070447
vt 0.6855544 1.057679
vt 0.7469232 -0.7637453
vt 0.7590154 -0.7637429
vt 0.7469282 -0.7765276
vt 0.7462944 1.057699
vt 0.7462894 1.070469
vt 0.7583858 1.057704
vt 0.7064567 1.057675
vt 0.7064605 1.070457
vt 0.7672001 1.070435
vt 0.7064567 1.057675
vt 0.7672001 1.070435
vt 0.7671952 1.057653
vt 0.6943601 1.057678
vt 0.7064605 1.070457
vt 0.7064567 1.057675
vt 0.6937313 -0.7637433
vt 0.7058271 -0.7637476
vt 0.7058218 -0.7765151
vt 0.7671952 1.057653
vt 0.7672001 1.070435
vt 0.7792872 1.057651
vt 0.766566 -0.7637681
vt 0.7786577 -0.7637728
vt 0.7665614 -0.7765371
vt 0.4030046 -0.5193731
vt -2.663928 -0.5193734
vt 0.4026102 -0.5131751
vt 0.6861839 -0.7637677
vt 0.6855544 1.057679
vt 0.7462944 1.057699
vt 0.7469232 -0.7637453
vt 0.6861839 -0.7637677
vt 0.6734584 1.057675
vt 0.6855544 1.057679
vt 0.6740879 -0.7637706
vt 0.6861877 -0.7765491
vt 0.7469232 -0.7637453
vt 0.7469282 -0.7765276
vt 0.6861877 -0.7765491
vt 0.6861839 -0.7637677
vt 0.7462944 1.057699
vt 0.7583858 1.057704
vt 0.7590154 -0.7637429
vt 0.7469232 -0.7637453
vt 0.7462894 1.070469
vt 0.7462944 1.057699
vt 0.6855544 1.057679
vt 0.685549 1.070447
vt 0.03493796 3.479831
vt -0.02211271 0.4217446
vt -0.02211271 3.479831
vt 0.005681625 0.4236363
vt 0.03493796 0.4256271
vt -0.02211271 -2.479831
vt 0.03493796 -2.479831
vt -0.005341949 3.479829
vt 0.05170891 3.479829
vt 0.05170891 0.42051
vt 0.02392646 0.4224
vt -0.005341949 0.4243913
vt 0.05170891 -2.479829
vt -0.005341949 -2.479829
vt 3.320571 -0.5193731
vt 0.4030046 -0.5193731
vt 0.4026102 -0.5131751
vt 3.320571 -0.5073206
vt 0.4024788 -0.5111101
vt 0.4022372 -0.5073209
vt 0.4024788 -0.5111101
vt -2.663928 -0.5193734
vt 0.4026102 -0.5131751
vt -2.663929 -0.5073211
vt -2.663929 1.210618
vt -2.663929 1.222665
vt 0.4042459 1.222665
vt 0.4038628 1.216794
vt 0.4034604 1.210618
vt 3.320572 1.222665
vt 3.320572 1.210618
vt 0.7058271 -0.7637476
vt 0.6937313 -0.7637433
vt 0.6943601 1.057678
vt 0.7064567 1.057675
vt 3.320566 1.519377
vt 3.320566 1.50732
vt 0.4076874 1.507319
vt 0.407285 1.513508
vt 0.4069031 1.519378
vt -2.663923 1.507319
vt -2.663922 1.519378
vt 3.320566 -0.210618
vt 3.320566 -0.2226571
vt 0.4081432 -0.2226568
vt 0.4085363 -0.2164758
vt 0.4085363 -0.2106182
vt -2.663923 -0.2226571
vt -2.663922 -0.2106175
vt 0.7671952 1.057653
vt 0.7792872 1.057651
vt 0.7786577 -0.7637728
vt 0.766566 -0.7637681
vt 0.7058218 -0.7765151
vt 0.7058271 -0.7637476
vt 0.766566 -0.7637681
vt 0.7665614 -0.7765371
vt 0.7671952 1.057653
vt 0.766566 -0.7637681
vt 0.7058271 -0.7637476
vt 0.7064567 1.057675
vt 0.7965714 -0.4217669
vt 0.7166609 -0.4217669
vt 0.7166609 0.5958165
vt 0.7968795 0.5958165
vt 0.7157899 -0.7830241
vt 0.635571 -0.7830241
vt 0.635571 1.102056
vt 0.7157899 1.102056
vt 0.817152 -0.421766
vt 0.7369331 -0.421766
vt 0.7369331 0.5958156
vt 0.8168439 0.5958156
vt 0.6559718 1.101726
vt 0.7358823 1.101726
vt 0.7358823 -0.7827898
vt 0.6559718 -0.7827898
vt 0.8371164 -0.4217669
vt 0.7572054 -0.4217669
vt 0.7572054 0.5958165
vt 0.8374245 0.5958165
vt 0.6955172 -0.8019705
vt 0.6152987 -0.8019705
vt 0.6152987 1.128604
vt 0.6955172 1.128604
vt 0.8576969 -0.4217659
vt 0.777478 -0.4217659
vt 0.777478 0.5958155
vt 0.8573887 0.5958155
vt 0.5951542 1.128922
vt 0.675065 1.128922
vt 0.675065 -0.8021971
vt 0.5951542 -0.8021971
vt 0.4076874 1.507319
vt -0.2717208 0.997259
vt -2.210338 0.9972584
vt -0.2711713 -0.02456641
vt -2.663923 1.507319
vt -2.210337 -0.02456653
vt -2.663922 -0.2106175
vt 0.4085363 -0.2106182
vt 0.9323671 0.997259
vt 3.320566 1.50732
vt 0.9329445 -0.02456653
vt 2.825309 0.997259
vt 2.825309 -0.02456678
vt 3.320566 -0.210618
vt 0.4022372 -0.5073209
vt 0.9323685 0.002767205
vt 2.825314 0.002767056
vt 0.9329455 1.024595
vt 3.320571 -0.5073206
vt 2.825314 1.024595
vt 3.320572 1.210618
vt 0.4034604 1.210618
vt -0.2717218 0.002767146
vt -2.663929 -0.5073211
vt -0.2711724 1.024595
vt -2.210342 0.002767205
vt -2.210342 1.024595
vt -2.663929 1.210618
usemtl WhiteCountertop
f 3/3/3 2/2/2 1/1/1
f 6/6/6 5/5/5 4/4/4
f 9/9/9 8/8/8 7/7/7
f 12/12/12 11/11/11 10/10/10
f 15/15/15 14/14/14 13/13/13
f 18/18/18 17/17/17 16/16/16
f 21/21/21 20/20/20 19/19/19
f 24/24/24 23/23/23 22/22/22
f 27/27/27 26/26/26 25/25/25
f 30/30/30 29/29/29 28/28/28
f 33/33/33 32/32/32 31/31/31
f 34/34/34 33/33/33 31/31/31
f 37/37/37 36/36/36 35/35/35
f 36/36/36 38/38/38 35/35/35
f 39/39/39 35/35/35 38/38/38
f 42/42/42 41/41/41 40/40/40
f 43/43/43 42/42/42 40/40/40
f 46/46/46 45/45/45 44/44/44
f 47/47/47 46/46/46 44/44/44
f 50/50/50 49/49/49 48/48/48
f 51/51/51 50/50/50 48/48/48
f 54/54/54 53/53/53 52/52/52
f 53/53/53 55/55/55 52/52/52
f 55/55/55 56/56/56 52/52/52
f 53/53/53 57/57/57 55/55/55
f 55/55/55 57/57/57 56/56/56
f 57/57/57 58/58/58 56/56/56
f 61/61/61 60/60/60 59/59/59
f 62/62/62 61/61/61 59/59/59
f 63/63/63 62/62/62 59/59/59
f 62/62/62 64/64/64 61/61/61
f 63/63/63 65/65/65 62/62/62
f 65/65/65 64/64/64 62/62/62
f 68/68/68 67/67/67 66/66/66
f 69/69/69 68/68/68 66/66/66
f 68/68/68 69/69/69 70/70/70
f 72/72/72 69/69/69 71/71/71
f 72/72/72 71/71/71 73/73/73
f 74/74/74 72/72/72 73/73/73
f 71/71/71 75/75/75 73/73/73
f 78/78/78 77/77/77 76/76/76
f 79/79/79 78/78/78 76/76/76
f 80/80/80 79/79/79 76/76/76
f 79/79/79 81/81/81 78/78/78
f 80/80/80 82/82/82 79/79/79
f 82/82/82 81/81/81 79/79/79
f 85/85/85 84/84/84 83/83/83
f 86/86/86 85/85/85 83/83/83
f 89/89/89 88/88/88 87/87/87
f 90/90/90 89/89/89 87/87/87
f 91/91/91 90/90/90 87/87/87
f 90/90/90 92/92/92 89/89/89
f 91/91/91 93/93/93 90/90/90
f 93/93/93 92/92/92 90/90/90
f 96/96/96 95/95/95 94/94/94
f 97/97/97 96/96/96 94/94/94
f 98/98/98 97/97/97 94/94/94
f 97/97/97 99/99/99 96/96/96
f 98/98/98 100/100/100 97/97/97
f 100/100/100 99/99/99 97/97/97
f 103/103/103 102/102/102 101/101/101
f 104/104/104 103/103/103 101/101/101
f 107/107/107 106/106/106 105/105/105
f 108/108/108 107/107/107 105/105/105
f 111/111/111 110/110/110 109/109/109
f 112/112/112 111/111/111 109/109/109
f 115/115/115 114/114/114 113/113/113
f 116/116/116 115/115/115 113/113/113
f 119/119/119 118/118/118 117/117/117
f 120/120/120 119/119/119 117/117/117
f 123/123/123 122/122/122 121/121/121
f 124/124/124 123/123/123 121/121/121
f 127/127/127 126/126/126 125/125/125
f 128/128/128 127/127/127 125/125/125
f 131/131/131 130/130/130 129/129/129
f 132/132/132 131/131/131 129/129/129
f 135/135/135 134/134/134 133/133/133
f 136/136/136 135/135/135 133/133/133
f 139/139/139 138/138/138 137/137/137
f 140/140/140 139/139/139 137/137/137
f 143/143/143 142/142/142 141/141/141
f 144/144/144 143/143/143 141/141/141
f 147/147/147 146/146/146 145/145/145
f 146/146/146 148/148/148 145/145/145
f 149/149/149 147/147/147 145/145/145
f 150/150/150 147/147/147 149/149/149
f 151/151/151 150/150/150 149/149/149
f 148/148/148 150/150/150 151/151/151
f 152/152/152 148/148/148 151/151/151
f 148/148/148 152/152/152 145/145/145
f 145/145/145 152/152/152 153/153/153
f 145/145/145 153/153/153 154/154/154
f 152/152/152 155/155/155 153/153/153
f 153/153/153 156/156/156 154/154/154
f 157/157/157 155/155/155 152/152/152
f 154/154/154 156/156/156 158/158/158
f 158/158/158 157/157/157 152/152/152
f 156/156/156 157/157/157 158/158/158
f 161/161/161 160/160/160 159/159/159
f 159/159/159 160/160/160 162/162/162
f 163/163/163 161/161/161 159/159/159
f 164/164/164 161/161/161 163/163/163
f 165/165/165 164/164/164 163/163/163
f 162/162/162 164/164/164 165/165/165
f 166/166/166 162/162/162 165/165/165
f 166/166/166 159/159/159 162/162/162
f 167/167/167 159/159/159 166/166/166
f 159/159/159 167/167/167 168/168/168
f 169/169/169 167/167/167 166/166/166
f 167/167/167 170/170/170 168/168/168
f 171/171/171 169/169/169 166/166/166
f 168/168/168 170/170/170 172/172/172
f 172/172/172 171/171/171 166/166/166
f 170/170/170 171/171/171 172/172/172
g Countertopmesh_ebfc63b6
v 2.05342 0.87297 -1.28613
v 2.05342 0.87679 -1.28209
v 2.05746 0.87679 -1.28612
v 2.05746 0.89618 -1.86173
v 2.05342 0.9 -1.86173
v 2.05342 0.89618 -1.86577
v 2.05746 0.89598 -1.28612
v 2.05342 0.89598 -1.28208
v 2.05342 0.8998 -1.28612
v 0.04422 0.87699 -1.86174
v 0.04826 0.87699 -1.86578
v 0.04826 0.89618 -1.86577
v 0.04422 0.87699 -1.86174
v 0.04826 0.89618 -1.86577
v 0.04422 0.89618 -1.86173
v 0.04826 0.87316 -1.86174
v 0.04826 0.87699 -1.86578
v 0.04422 0.87699 -1.86174
v 0.04826 0.87297 -1.28613
v 0.04422 0.87679 -1.28612
v 0.04826 0.87679 -1.28209
v 0.04422 0.89618 -1.86173
v 0.04826 0.89618 -1.86577
v 0.04826 0.9 -1.86173
v 0.04422 0.89598 -1.28612
v 0.04826 0.8998 -1.28612
v 0.04826 0.89598 -1.28208
v 1.07586 0.87699 -1.86578
v 0.04826 0.87699 -1.86578
v 1.07573 0.87502 -1.8637
v 2.05746 0.87699 -1.86174
v 2.05746 0.87679 -1.28612
v 2.05746 0.89598 -1.28612
v 2.05746 0.89618 -1.86173
v 2.05746 0.87699 -1.86174
v 2.05342 0.87297 -1.28613
v 2.05746 0.87679 -1.28612
v 2.05342 0.87317 -1.86174
v 2.05342 0.87699 -1.86578
v 2.05746 0.89618 -1.86173
v 2.05342 0.89618 -1.86577
v 2.05342 0.87699 -1.86578
v 2.05746 0.87699 -1.86174
v 2.05746 0.89598 -1.28612
v 2.05342 0.8998 -1.28612
v 2.05342 0.9 -1.86173
v 2.05746 0.89618 -1.86173
v 2.05342 0.89598 -1.28208
v 2.05746 0.89598 -1.28612
v 2.05746 0.87679 -1.28612
v 2.05342 0.87679 -1.28209
v 0.04826 0.87699 -1.86578
v 1.07717 0.89618 -1.86577
v 0.04826 0.89618 -1.86577
v 1.07653 0.88683 -1.86577
v 1.07586 0.87699 -1.86578
v 2.05342 0.89618 -1.86577
v 2.05342 0.87699 -1.86578
v 0.04826 0.87679 -1.28209
v 0.04826 0.89598 -1.28208
v 1.07759 0.89598 -1.28208
v 1.07695 0.88663 -1.28209
v 1.07628 0.87679 -1.28209
v 2.05342 0.89598 -1.28208
v 2.05342 0.87679 -1.28209
v 2.05342 0.87699 -1.86578
v 1.07586 0.87699 -1.86578
v 1.07573 0.87502 -1.8637
v 2.05342 0.87317 -1.86174
v 1.07569 0.87437 -1.86301
v 1.07561 0.87317 -1.86174
v 1.07569 0.87437 -1.86301
v 0.04826 0.87699 -1.86578
v 1.07573 0.87502 -1.8637
v 0.04826 0.87316 -1.86174
v 0.04826 0.87297 -1.28613
v 0.04826 0.87679 -1.28209
v 1.07628 0.87679 -1.28209
v 1.07615 0.87492 -1.28406
v 1.07602 0.87297 -1.28613
v 2.05342 0.87679 -1.28209
v 2.05342 0.87297 -1.28613
v 0.04422 0.87679 -1.28612
v 0.04826 0.87297 -1.28613
v 0.04826 0.87316 -1.86174
v 0.04422 0.87699 -1.86174
v 2.05342 0.89618 -1.86577
v 2.05342 0.9 -1.86173
v 1.07743 0.9 -1.86173
v 1.0773 0.89804 -1.8638
v 1.07717 0.89618 -1.86577
v 0.04826 0.9 -1.86173
v 0.04826 0.89618 -1.86577
v 2.05342 0.8998 -1.28612
v 2.05342 0.89598 -1.28208
v 1.07759 0.89598 -1.28208
v 1.07772 0.89794 -1.28415
v 1.07772 0.8998 -1.28612
v 0.04826 0.89598 -1.28208
v 0.04826 0.8998 -1.28612
v 0.04422 0.89618 -1.86173
v 0.04826 0.9 -1.86173
v 0.04826 0.8998 -1.28612
v 0.04422 0.89598 -1.28612
v 0.04826 0.87679 -1.28209
v 0.04422 0.87679 -1.28612
v 0.04422 0.89598 -1.28612
v 0.04826 0.89598 -1.28208
v 0.04422 0.89618 -1.86173
v 0.04422 0.89598 -1.28612
v 0.04422 0.87679 -1.28612
v 0.04422 0.87699 -1.86174
v 1.88748 0.89985 -1.34845
v 1.88748 0.87297 -1.34845
v 1.88748 0.87297 -1.69083
v 1.88748 0.89996 -1.69083
v 1.88748 0.89996 -1.69083
v 1.88748 0.87297 -1.69083
v 1.25323 0.87297 -1.69083
v 1.25323 0.89996 -1.69083
v 1.25323 0.89996 -1.69083
v 1.25323 0.87297 -1.69083
v 1.25343 0.87297 -1.34845
v 1.25343 0.89985 -1.34845
v 1.25343 0.89985 -1.34845
v 1.25343 0.87297 -1.34845
v 1.88748 0.87297 -1.34845
v 1.88748 0.89985 -1.34845
v 0.84997 0.89985 -1.34845
v 0.84997 0.87297 -1.34845
v 0.84979 0.87297 -1.69083
v 0.84979 0.89996 -1.69083
v 0.84979 0.89996 -1.69083
v 0.84979 0.87297 -1.69083
v 0.20023 0.87297 -1.69083
v 0.20023 0.89996 -1.69083
v 0.20023 0.89996 -1.69083
v 0.20023 0.87297 -1.69083
v 0.20023 0.87297 -1.34845
v 0.20023 0.89985 -1.34845
v 0.20023 0.89985 -1.34845
v 0.20023 0.87297 -1.34845
v 0.84997 0.87297 -1.34845
v 0.84997 0.89985 -1.34845
v 1.07743 0.9 -1.86173
v 0.84979 0.89996 -1.69083
v 0.20023 0.89996 -1.69083
v 0.84997 0.89985 -1.34845
v 0.04826 0.9 -1.86173
v 0.20023 0.89985 -1.34845
v 0.04826 0.8998 -1.28612
v 1.07772 0.8998 -1.28612
v 1.25323 0.89996 -1.69083
v 2.05342 0.9 -1.86173
v 1.25343 0.89985 -1.34845
v 1.88748 0.89996 -1.69083
v 1.88748 0.89985 -1.34845
v 2.05342 0.8998 -1.28612
v 1.07561 0.87317 -1.86174
v 1.25323 0.87297 -1.69083
v 1.88748 0.87297 -1.69083
v 1.25343 0.87297 -1.34845
v 2.05342 0.87317 -1.86174
v 1.88748 0.87297 -1.34845
v 2.05342 0.87297 -1.28613
v 1.07602 0.87297 -1.28613
v 0.84979 0.87297 -1.69083
v 0.04826 0.87316 -1.86174
v 0.84997 0.87297 -1.34845
v 0.20023 0.87297 -1.69083
v 0.20023 0.87297 -1.34845
v 0.04826 0.87297 -1.28613
vn 0.1240865 -0.4659235 0.3175707
vn 0.0007115548 -0.4192788 0.3969106
vn 0.3969789 -0.4192115 0.001674866
vn 0.3968994 0.4192868 -0.001674848
vn 0.1240758 0.4661096 -0.3173016
vn 0.0007120444 0.4195347 -0.3966402
vn 0.3968892 0.4192952 0.00196412
vn 0.0007112323 0.4190681 0.3971331
vn 0.1242644 0.4658127 0.3176636
vn -0.4084018 0.0001438901 -0.4080946
vn -0.4084025 0.0001426649 -0.4080939
vn -0.4083996 0.0001480956 -0.4080968
vn -0.4084018 0.0001438901 -0.4080946
vn -0.4083996 0.0001480956 -0.4080968
vn -0.4083989 0.0001493208 -0.4080975
vn -0.1615447 -0.4736879 -0.2878479
vn -0.001023781 -0.419229 -0.3969626
vn -0.3970006 -0.4191897 -0.0019653
vn -0.1210103 -0.465133 0.3199081
vn -0.3970087 -0.4191831 0.001674782
vn -0.0006871832 -0.4192745 0.3969153
vn -0.3969293 0.4192585 -0.001674791
vn -0.0006865927 0.4195338 -0.3966412
vn -0.1208543 0.4652859 -0.3197446
vn -0.3969207 0.4192654 0.001964066
vn -0.1207706 0.4649145 0.3203159
vn -0.0006871527 0.4190648 0.3971366
vn 0 -0.4192302 -0.3969627
vn -0.001023781 -0.419229 -0.3969626
vn 0 -0.419227 -0.396966
vn 0.5773503 0 0
vn 0.5773503 0 0
vn 0.5773503 0 0
vn 0.5773503 0 0
vn 0.3969614 -0.4192268 -0.001965268
vn 0.1240865 -0.4659235 0.3175707
vn 0.3969789 -0.4192115 0.001674866
vn 0.1240222 -0.4658415 -0.3177162
vn 0.0007094917 -0.4192298 -0.3969624
vn 0.4083789 0.0001461436 -0.4081176
vn 0.4083799 0.0001446638 -0.4081167
vn 0.4083758 0.0001512227 -0.4081208
vn 0.4083748 0.0001527025 -0.4081217
vn 0.3968892 0.4192952 0.00196412
vn 0.1242644 0.4658127 0.3176636
vn 0.1240758 0.4661096 -0.3173016
vn 0.3968994 0.4192868 -0.001674848
vn 0.4081697 -0.0001381765 0.4083268
vn 0.4081747 -0.0001366956 0.4083218
vn 0.4081527 -0.0001432636 0.4083439
vn 0.4081477 -0.0001447446 0.4083488
vn 1.197698E-07 0.0002006034 -0.5773503
vn 8.963196E-08 0.0001998944 -0.5773503
vn 1.200229E-07 0.0002005924 -0.5773503
vn 0 0.000201937 -0.5773503
vn -8.94286E-08 0.0002039845 -0.5773503
vn -1.239478E-07 0.0002032524 -0.5773503
vn -1.241926E-07 0.0002032631 -0.5773503
vn -5.986938E-08 -0.0002067929 0.5773503
vn -5.999586E-08 -0.0002067951 0.5773503
vn 0 -0.0002069321 0.5773503
vn 0 -0.000206529 0.5773503
vn 0 -0.0002061248 0.5773503
vn 6.199197E-08 -0.0002062701 0.5773503
vn 6.211423E-08 -0.000206268 0.5773503
vn 0.0007094917 -0.4192298 -0.3969624
vn 0 -0.4192302 -0.3969627
vn 0 -0.419227 -0.396966
vn 0.1240222 -0.4658415 -0.3177162
vn 0 -0.4192159 -0.3969778
vn 0 -0.419221 -0.3969724
vn 0 -0.4192159 -0.3969778
vn -0.001023781 -0.419229 -0.3969626
vn 0 -0.419227 -0.396966
vn -0.1615447 -0.4736879 -0.2878479
vn -0.1210103 -0.465133 0.3199081
vn -0.0006871832 -0.4192745 0.3969153
vn 0 -0.419274 0.3969164
vn 0 -0.4192784 0.3969118
vn 0 -0.4192831 0.3969069
vn 0.0007115548 -0.4192788 0.3969106
vn 0.1240865 -0.4659235 0.3175707
vn -0.3970087 -0.4191831 0.001674782
vn -0.1210103 -0.465133 0.3199081
vn -0.1615447 -0.4736879 -0.2878479
vn -0.3970006 -0.4191897 -0.0019653
vn 0.0007120444 0.4195347 -0.3966402
vn 0.1240758 0.4661096 -0.3173016
vn 8.025013E-08 0.4195394 -0.3966359
vn 0 0.4195362 -0.3966392
vn -8.012354E-08 0.4195328 -0.3966429
vn -0.1208543 0.4652859 -0.3197446
vn -0.0006865927 0.4195338 -0.3966412
vn 0.1242644 0.4658127 0.3176636
vn 0.0007112323 0.4190681 0.3971331
vn 0 0.4190728 0.3971288
vn 0 0.4190688 0.397133
vn 0 0.4190652 0.3971368
vn -0.0006871527 0.4190648 0.3971366
vn -0.1207706 0.4649145 0.3203159
vn -0.3969293 0.4192585 -0.001674791
vn -0.1208543 0.4652859 -0.3197446
vn -0.1207706 0.4649145 0.3203159
vn -0.3969207 0.4192654 0.001964066
vn -0.4081855 -0.0001381345 0.4083111
vn -0.4081845 -0.0001363315 0.4083121
vn -0.4081889 -0.0001443276 0.4083076
vn -0.40819 -0.0001461304 0.4083066
vn -0.5773503 0 0
vn -0.5773503 -1.594667E-07 0
vn -0.5773503 -1.560825E-07 0
vn -0.5773503 0 0
vn -0.5773503 0 0
vn -0.5773503 0 0
vn -0.5773503 0 0
vn -0.5773503 0 0
vn 0 0 0.5773503
vn 0 0 0.5773503
vn 0 0 0.5773503
vn 0 0 0.5773503
vn 0.5773502 0 -0.0003261418
vn 0.5773502 0 -0.0003261418
vn 0.5773502 0 -0.0003261418
vn 0.5773502 0 -0.0003261418
vn 0 0 -0.5773503
vn 0 0 -0.5773503
vn 0 0 -0.5773503
vn 0 0 -0.5773503
vn -0.5773502 0 0.0003104462
vn -0.5773502 0 0.0003104461
vn -0.5773502 0 0.0003104461
vn -0.5773502 0 0.0003104462
vn 0 0 0.5773503
vn 0 0 0.5773503
vn 0 0 0.5773503
vn 0 0 0.5773503
vn 0.5773503 0 0
vn 0.5773503 0 0
vn 0.5773503 0 0
vn 0.5773503 0 0
vn 0 0 -0.5773503
vn 0 0 -0.5773503
vn 0 0 -0.5773503
vn 0 0 -0.5773503
vn 0 0.5773503 0.0001611904
vn 0 0.5773503 0.0001612469
vn -2.298827E-05 0.5773503 0.0001711224
vn 0 0.5773501 0.0004412615
vn -2.006396E-05 0.5773503 0.0001698662
vn -6.796931E-05 0.5773503 0.0001904458
vn -6.79693E-05 0.5773503 0.0001904458
vn 0 0.5773501 0.0004412615
vn 0 0.5773503 0.0001611904
vn 2.164807E-05 0.5773503 0.0001713585
vn 0 0.5773501 0.0004410514
vn 2.235928E-05 0.5773503 0.0001716926
vn 6.225037E-05 0.5773503 0.0001904293
vn 6.225036E-05 0.5773503 0.0001904294
vn 0 -0.5773499 -0.00067234
vn 0 -0.5773499 -0.0006723402
vn 0 -0.5773499 -0.00067234
vn 0 -0.5773503 -4.210064E-07
vn 0 -0.5773499 -0.0006723401
vn 0.0003053154 -0.5773502 -0.0001251023
vn 0.0003053154 -0.5773502 -0.0001251023
vn 0 -0.5773503 -4.210064E-07
vn 0 -0.5773499 -0.0006725092
vn -0.0003332377 -0.5773502 -0.000125078
vn 0 -0.5773503 5.39245E-07
vn -0.0003332377 -0.5773502 -0.000125078
vn 0 -0.5773503 5.39245E-07
vn 0 -0.5773503 5.392451E-07
vt 0.6734584 1.057675
vt 0.685549 1.070447
vt 0.6855544 1.057679
vt 0.7469232 -0.7637453
vt 0.7590154 -0.7637429
vt 0.7469282 -0.7765276
vt 0.7462944 1.057699
vt 0.7462894 1.070469
vt 0.7583858 1.057704
vt 0.7064567 1.057675
vt 0.7064605 1.070457
vt 0.7672001 1.070435
vt 0.7064567 1.057675
vt 0.7672001 1.070435
vt 0.7671952 1.057653
vt 0.6943601 1.057678
vt 0.7064605 1.070457
vt 0.7064567 1.057675
vt 0.6937313 -0.7637433
vt 0.7058271 -0.7637476
vt 0.7058218 -0.7765151
vt 0.7671952 1.057653
vt 0.7672001 1.070435
vt 0.7792872 1.057651
vt 0.766566 -0.7637681
vt 0.7786577 -0.7637728
vt 0.7665614 -0.7765371
vt 0.4030046 -0.5193731
vt -2.663928 -0.5193734
vt 0.4026102 -0.5131751
vt 0.6861839 -0.7637677
vt 0.6855544 1.057679
vt 0.7462944 1.057699
vt 0.7469232 -0.7637453
vt 0.6861839 -0.7637677
vt 0.6734584 1.057675
vt 0.6855544 1.057679
vt 0.6740879 -0.7637706
vt 0.6861877 -0.7765491
vt 0.7469232 -0.7637453
vt 0.7469282 -0.7765276
vt 0.6861877 -0.7765491
vt 0.6861839 -0.7637677
vt 0.7462944 1.057699
vt 0.7583858 1.057704
vt 0.7590154 -0.7637429
vt 0.7469232 -0.7637453
vt 0.7462894 1.070469
vt 0.7462944 1.057699
vt 0.6855544 1.057679
vt 0.685549 1.070447
vt 0.03493796 3.479831
vt -0.02211271 0.4217446
vt -0.02211271 3.479831
vt 0.005681625 0.4236363
vt 0.03493796 0.4256271
vt -0.02211271 -2.479831
vt 0.03493796 -2.479831
vt -0.005341949 3.479829
vt 0.05170891 3.479829
vt 0.05170891 0.42051
vt 0.02392646 0.4224
vt -0.005341949 0.4243913
vt 0.05170891 -2.479829
vt -0.005341949 -2.479829
vt 3.320571 -0.5193731
vt 0.4030046 -0.5193731
vt 0.4026102 -0.5131751
vt 3.320571 -0.5073206
vt 0.4024788 -0.5111101
vt 0.4022372 -0.5073209
vt 0.4024788 -0.5111101
vt -2.663928 -0.5193734
vt 0.4026102 -0.5131751
vt -2.663929 -0.5073211
vt -2.663929 1.210618
vt -2.663929 1.222665
vt 0.4042459 1.222665
vt 0.4038628 1.216794
vt 0.4034604 1.210618
vt 3.320572 1.222665
vt 3.320572 1.210618
vt 0.7058271 -0.7637476
vt 0.6937313 -0.7637433
vt 0.6943601 1.057678
vt 0.7064567 1.057675
vt 3.320566 1.519377
vt 3.320566 1.50732
vt 0.4076874 1.507319
vt 0.407285 1.513508
vt 0.4069031 1.519378
vt -2.663923 1.507319
vt -2.663922 1.519378
vt 3.320566 -0.210618
vt 3.320566 -0.2226571
vt 0.4081432 -0.2226568
vt 0.4085363 -0.2164758
vt 0.4085363 -0.2106182
vt -2.663923 -0.2226571
vt -2.663922 -0.2106175
vt 0.7671952 1.057653
vt 0.7792872 1.057651
vt 0.7786577 -0.7637728
vt 0.766566 -0.7637681
vt 0.7058218 -0.7765151
vt 0.7058271 -0.7637476
vt 0.766566 -0.7637681
vt 0.7665614 -0.7765371
vt 0.7671952 1.057653
vt 0.766566 -0.7637681
vt 0.7058271 -0.7637476
vt 0.7064567 1.057675
vt 0.7965714 -0.4217669
vt 0.7166609 -0.4217669
vt 0.7166609 0.5958165
vt 0.7968795 0.5958165
vt 0.7157899 -0.7830241
vt 0.635571 -0.7830241
vt 0.635571 1.102056
vt 0.7157899 1.102056
vt 0.817152 -0.421766
vt 0.7369331 -0.421766
vt 0.7369331 0.5958156
vt 0.8168439 0.5958156
vt 0.6559718 1.101726
vt 0.7358823 1.101726
vt 0.7358823 -0.7827898
vt 0.6559718 -0.7827898
vt 0.8371164 -0.4217669
vt 0.7572054 -0.4217669
vt 0.7572054 0.5958165
vt 0.8374245 0.5958165
vt 0.6955172 -0.8019705
vt 0.6152987 -0.8019705
vt 0.6152987 1.128604
vt 0.6955172 1.128604
vt 0.8576969 -0.4217659
vt 0.777478 -0.4217659
vt 0.777478 0.5958155
vt 0.8573887 0.5958155
vt 0.5951542 1.128922
vt 0.675065 1.128922
vt 0.675065 -0.8021971
vt 0.5951542 -0.8021971
vt 0.4076874 1.507319
vt -0.2717208 0.997259
vt -2.210338 0.9972584
vt -0.2711713 -0.02456641
vt -2.663923 1.507319
vt -2.210337 -0.02456653
vt -2.663922 -0.2106175
vt 0.4085363 -0.2106182
vt 0.9323671 0.997259
vt 3.320566 1.50732
vt 0.9329445 -0.02456653
vt 2.825309 0.997259
vt 2.825309 -0.02456678
vt 3.320566 -0.210618
vt 0.4022372 -0.5073209
vt 0.9323685 0.002767205
vt 2.825314 0.002767056
vt 0.9329455 1.024595
vt 3.320571 -0.5073206
vt 2.825314 1.024595
vt 3.320572 1.210618
vt 0.4034604 1.210618
vt -0.2717218 0.002767146
vt -2.663929 -0.5073211
vt -0.2711724 1.024595
vt -2.210342 0.002767205
vt -2.210342 1.024595
vt -2.663929 1.210618
usemtl WhiteCountertop
f 175/175/175 174/174/174 173/173/173
f 178/178/178 177/177/177 176/176/176
f 181/181/181 180/180/180 179/179/179
f 184/184/184 183/183/183 182/182/182
f 187/187/187 186/186/186 185/185/185
f 190/190/190 189/189/189 188/188/188
f 193/193/193 192/192/192 191/191/191
f 196/196/196 195/195/195 194/194/194
f 199/199/199 198/198/198 197/197/197
f 202/202/202 201/201/201 200/200/200
f 205/205/205 204/204/204 203/203/203
f 206/206/206 205/205/205 203/203/203
f 209/209/209 208/208/208 207/207/207
f 208/208/208 210/210/210 207/207/207
f 211/211/211 207/207/207 210/210/210
f 214/214/214 213/213/213 212/212/212
f 215/215/215 214/214/214 212/212/212
f 218/218/218 217/217/217 216/216/216
f 219/219/219 218/218/218 216/216/216
f 222/222/222 221/221/221 220/220/220
f 223/223/223 222/222/222 220/220/220
f 226/226/226 225/225/225 224/224/224
f 225/225/225 227/227/227 224/224/224
f 227/227/227 228/228/228 224/224/224
f 225/225/225 229/229/229 227/227/227
f 227/227/227 229/229/229 228/228/228
f 229/229/229 230/230/230 228/228/228
f 233/233/233 232/232/232 231/231/231
f 234/234/234 233/233/233 231/231/231
f 235/235/235 234/234/234 231/231/231
f 234/234/234 236/236/236 233/233/233
f 235/235/235 237/237/237 234/234/234
f 237/237/237 236/236/236 234/234/234
f 240/240/240 239/239/239 238/238/238
f 241/241/241 240/240/240 238/238/238
f 240/240/240 241/241/241 242/242/242
f 244/244/244 241/241/241 243/243/243
f 244/244/244 243/243/243 245/245/245
f 246/246/246 244/244/244 245/245/245
f 243/243/243 247/247/247 245/245/245
f 250/250/250 249/249/249 248/248/248
f 251/251/251 250/250/250 248/248/248
f 252/252/252 251/251/251 248/248/248
f 251/251/251 253/253/253 250/250/250
f 252/252/252 254/254/254 251/251/251
f 254/254/254 253/253/253 251/251/251
f 257/257/257 256/256/256 255/255/255
f 258/258/258 257/257/257 255/255/255
f 261/261/261 260/260/260 259/259/259
f 262/262/262 261/261/261 259/259/259
f 263/263/263 262/262/262 259/259/259
f 262/262/262 264/264/264 261/261/261
f 263/263/263 265/265/265 262/262/262
f 265/265/265 264/264/264 262/262/262
f 268/268/268 267/267/267 266/266/266
f 269/269/269 268/268/268 266/266/266
f 270/270/270 269/269/269 266/266/266
f 269/269/269 271/271/271 268/268/268
f 270/270/270 272/272/272 269/269/269
f 272/272/272 271/271/271 269/269/269
f 275/275/275 274/274/274 273/273/273
f 276/276/276 275/275/275 273/273/273
f 279/279/279 278/278/278 277/277/277
f 280/280/280 279/279/279 277/277/277
f 283/283/283 282/282/282 281/281/281
f 284/284/284 283/283/283 281/281/281
f 287/287/287 286/286/286 285/285/285
f 288/288/288 287/287/287 285/285/285
f 291/291/291 290/290/290 289/289/289
f 292/292/292 291/291/291 289/289/289
f 295/295/295 294/294/294 293/293/293
f 296/296/296 295/295/295 293/293/293
f 299/299/299 298/298/298 297/297/297
f 300/300/300 299/299/299 297/297/297
f 303/303/303 302/302/302 301/301/301
f 304/304/304 303/303/303 301/301/301
f 307/307/307 306/306/306 305/305/305
f 308/308/308 307/307/307 305/305/305
f 311/311/311 310/310/310 309/309/309
f 312/312/312 311/311/311 309/309/309
f 315/315/315 314/314/314 313/313/313
f 316/316/316 315/315/315 313/313/313
f 319/319/319 318/318/318 317/317/317
f 318/318/318 320/320/320 317/317/317
f 321/321/321 319/319/319 317/317/317
f 322/322/322 319/319/319 321/321/321
f 323/323/323 322/322/322 321/321/321
f 320/320/320 322/322/322 323/323/323
f 324/324/324 320/320/320 323/323/323
f 320/320/320 324/324/324 317/317/317
f 317/317/317 324/324/324 325/325/325
f 317/317/317 325/325/325 326/326/326
f 324/324/324 327/327/327 325/325/325
f 325/325/325 328/328/328 326/326/326
f 329/329/329 327/327/327 324/324/324
f 326/326/326 328/328/328 330/330/330
f 330/330/330 329/329/329 324/324/324
f 328/328/328 329/329/329 330/330/330
f 333/333/333 332/332/332 331/331/331
f 331/331/331 332/332/332 334/334/334
f 335/335/335 333/333/333 331/331/331
f 336/336/336 333/333/333 335/335/335
f 337/337/337 336/336/336 335/335/335
f 334/334/334 336/336/336 337/337/337
f 338/338/338 334/334/334 337/337/337
f 338/338/338 331/331/331 334/334/334
f 339/339/339 331/331/331 338/338/338
f 331/331/331 339/339/339 340/340/340
f 341/341/341 339/339/339 338/338/338
f 339/339/339 342/342/342 340/340/340
f 343/343/343 341/341/341 338/338/338
f 340/340/340 342/342/342 344/344/344
f 344/344/344 343/343/343 338/338/338
f 342/342/342 343/343/343 344/344/344
