mtllib material.mtl
usemtl material_0
v 0.00471703 0.00070302 -0.06364627
v 0.00487397 0.00002514 -0.06329655
v 0.01555394 0.00002514 -0.06011527
v 0.01520632 0.00070302 -0.06045850
v 0.02345210 0.00070303 -0.05544227
v 0.02394197 0.00002514 -0.05507840
v 0.03115102 0.00002515 -0.04884207
v 0.03055721 0.00070303 -0.04924309
v 0.03737806 0.00070303 -0.04267019
v 0.03804074 0.00002515 -0.04223193
v 0.04396477 0.00002515 -0.03424123
v 0.04329419 0.00070303 -0.03471877
v 0.04808872 0.00070303 -0.02422784
v 0.04870406 0.00002515 -0.02369970
v 0.05161216 0.00002515 -0.01186902
v 0.05102880 0.00070303 -0.01247682
v -0.00801915 0.00002514 -0.06492768
v -0.00794741 0.00070302 -0.06529773
v -0.02290646 0.00070302 -0.06586028
v -0.02324976 0.00002514 -0.06549431
v -0.03841977 0.00002513 -0.06402963
v -0.03777186 0.00070301 -0.06432558
v -0.04920581 0.00070301 -0.05829574
v -0.05016532 0.00002513 -0.05807280
v -0.05996708 0.00002513 -0.04835288
v 0.03093078 0.00002515 0.05391261
v 0.03896712 0.00002515 0.04602247
v 0.02058494 0.00002515 0.05715628
v 0.04464279 0.00002515 0.03526394
v 0.00877445 0.00002515 0.05792432
v 0.04823815 0.00002515 0.02365982
v -0.00383975 0.00002514 0.05853738
v 0.05045919 0.00002515 0.01178435
v -0.01665699 0.00002514 0.05798827
v -0.02905024 0.00002514 0.05491474
v 0.05196154 0.00002515 -0.00002746
v -0.04064437 0.00002514 0.04965923
v -0.05131863 0.00002514 0.04230841
v -0.06030531 0.00002513 0.03209065
v -0.06657784 0.00002513 0.01871874
v -0.07122723 0.00002513 0.00398310
v 0.05161216 0.00002515 -0.01186902
v 0.04870406 0.00002515 -0.02369970
v 0.04396477 0.00002515 -0.03424123
v 0.03804074 0.00002515 -0.04223193
v 0.03115102 0.00002515 -0.04884207
v 0.02394197 0.00002514 -0.05507840
v 0.01555394 0.00002514 -0.06011527
v 0.00487397 0.00002514 -0.06329655
v -0.00801915 0.00002514 -0.06492768
v -0.02324976 0.00002514 -0.06549431
v -0.07542338 0.00002513 -0.01012453
v -0.03841977 0.00002513 -0.06402963
v -0.05016532 0.00002513 -0.05807280
v -0.05996708 0.00002513 -0.04835288
v -0.06981723 0.00002513 -0.03688507
v -0.07605667 0.00002513 -0.02384913
v -0.02405554 0.00398357 -0.01136058
v -0.02577302 0.00398272 -0.00701569
v -0.02869501 0.00390732 -0.00833325
v -0.02642080 0.00398520 -0.00241371
v -0.02673155 0.00391008 -0.01318953
v -0.02374489 0.00390512 -0.01760065
v -0.03327657 0.00363190 -0.01780517
v -0.02140487 0.00398204 -0.01526285
v -0.01798468 0.00397241 -0.01855345
v -0.02930096 0.00391541 -0.00321629
v -0.02880081 0.00391894 0.00201876
v -0.03632758 0.00364490 -0.00532163
v -0.02604796 0.00398629 0.00224786
v -0.02472587 0.00398125 0.00678051
v -0.03586529 0.00362514 -0.01170081
v -0.04592890 0.00319093 -0.01589608
v -0.02010004 0.00387384 -0.02141052
v -0.01570346 0.00385012 -0.02432079
v -0.02524436 0.00354332 -0.02853036
v -0.01394162 0.00396511 -0.02109171
v -0.00942513 0.00397055 -0.02275531
v -0.02943246 0.00361976 -0.02345157
v -0.03730305 0.00318373 -0.03104200
v -0.04244624 0.00320000 -0.02375033
v -0.05253241 0.00266537 -0.02927370
v -0.01048912 0.00386781 -0.02605976
v -0.00500958 0.00390151 -0.02675715
v -0.01302156 0.00352856 -0.03416176
v -0.00470894 0.00398093 -0.02354764
v -0.00003881 0.00398842 -0.02347003
v -0.01997996 0.00348533 -0.03231997
v -0.02548460 0.00300348 -0.04252898
v -0.03213093 0.00308123 -0.03771647
v -0.03917353 0.00258808 -0.04633622
v -0.04581954 0.00265478 -0.03824303
v -0.05287096 0.00213592 -0.04387153
v 0.00024728 0.00392582 -0.02653090
v 0.00511689 0.00394813 -0.02541275
v 0.00099129 0.00367035 -0.03393354
v 0.00440722 0.00399528 -0.02255832
v 0.00847322 0.00400380 -0.02083603
v -0.00566520 0.00361093 -0.03455549
v -0.00642499 0.00317188 -0.04440202
v -0.01618565 0.00306144 -0.04441188
v -0.01912238 0.00257520 -0.05376760
v -0.03075070 0.00253747 -0.05191570
v -0.03470646 0.00210660 -0.05886649
v -0.04474777 0.00211925 -0.05292424
v -0.04725588 0.00173014 -0.05593493
v 0.00683853 0.00372486 -0.03230456
v 0.00918457 0.00332465 -0.04105800
v 0.01178217 0.00379251 -0.02965278
v 0.00203975 0.00325155 -0.04330113
v 0.00312416 0.00269893 -0.05201709
v -0.00711414 0.00264708 -0.05346009
v -0.00759973 0.00213400 -0.06012539
v -0.02127158 0.00211603 -0.06059815
v -0.02219985 0.00173014 -0.06358545
v 0.00945749 0.00397580 -0.02341800
v 0.01330496 0.00398961 -0.02068776
v 0.01206480 0.00400805 -0.01839145
v 0.01510040 0.00400210 -0.01530376
v -0.03644217 0.00173014 -0.06195305
v -0.03711383 0.00129874 -0.06315103
v 0.01669536 0.00397029 -0.01735729
v 0.01953434 0.00393065 -0.01339848
v 0.02039577 0.00377902 -0.02237217
v 0.01751506 0.00398990 -0.01166157
v 0.01924588 0.00397539 -0.00755092
v 0.01619234 0.00382624 -0.02624835
v 0.02013226 0.00346057 -0.03333211
v 0.01497132 0.00341535 -0.03759836
v 0.01840890 0.00280554 -0.04511735
v 0.01163816 0.00274650 -0.04928562
v 0.01360812 0.00215886 -0.05550090
v 0.00399695 0.00214697 -0.05852136
v 0.00440005 0.00173015 -0.06141232
v -0.00779876 0.00173015 -0.06305467
v -0.00787416 0.00129874 -0.06418801
v -0.02255718 0.00129874 -0.06473654
v 0.00455929 0.00129874 -0.06253853
v 0.01485701 0.00129875 -0.05938112
v -0.04823765 0.00129874 -0.05712141
v -0.05741078 0.00129874 -0.04755043
v 0.01450414 0.00173015 -0.05828928
v 0.02246262 0.00173015 -0.05342561
v 0.02295990 0.00129875 -0.05443984
v 0.02995968 0.00129875 -0.04834367
v -0.05869003 0.00070301 -0.04859581
v -0.06822149 0.00070301 -0.03723674
v -0.06981723 0.00002513 -0.03688507
v -0.07605667 0.00002513 -0.02384913
v 0.02119900 0.00217362 -0.05084259
v 0.02781386 0.00218098 -0.04512309
v 0.02935504 0.00173015 -0.04743455
v 0.03602850 0.00173015 -0.04107779
v 0.02438372 0.00283497 -0.04002009
v 0.03033753 0.00279376 -0.03459184
v 0.03670861 0.00129875 -0.04187778
v 0.04261090 0.00129875 -0.03405055
v 0.03428292 0.00217068 -0.03904837
v 0.04008884 0.00214955 -0.03167952
v 0.02528858 0.00339726 -0.02871539
v 0.03013687 0.00326737 -0.02310263
v 0.04191089 0.00173016 -0.03337780
v 0.04678829 0.00173016 -0.02321774
v 0.04745133 0.00129875 -0.02372277
v 0.05041703 0.00129876 -0.01217687
v 0.05129682 0.00070303 -0.00076915
v 0.05196154 0.00002515 -0.00002746
v 0.05045919 0.00002515 0.01178435
v 0.02421190 0.00368215 -0.01769876
v 0.02751071 0.00356693 -0.01188151
v 0.02174054 0.00388351 -0.00877669
v 0.02301454 0.00385595 -0.00382433
v 0.02022564 0.00396690 -0.00315153
v 0.02036741 0.00397279 0.00134831
v 0.04968349 0.00070303 0.01087547
v 0.04738327 0.00070303 0.02256769
v 0.04889233 0.00129876 0.01063176
v 0.04823815 0.00002515 0.02365982
v 0.04464279 0.00002515 0.03526394
v 0.05060789 0.00129876 -0.00072558
v 0.04989100 0.00173016 -0.00068794
v 0.04977352 0.00173016 -0.01188129
v 0.04802771 0.00210972 -0.01116303
v 0.04501953 0.00212441 -0.02195801
v 0.04071448 0.00260869 -0.01929467
v 0.03585142 0.00270923 -0.02799154
v 0.03449107 0.00311289 -0.01580004
v 0.03710036 0.00302258 -0.00786532
v 0.04365603 0.00254991 -0.00973503
v 0.04333517 0.00259067 -0.00060100
v 0.04797886 0.00211991 -0.00062012
v 0.04596975 0.00213755 0.00973592
v 0.02946268 0.00349957 -0.00561871
v 0.02919905 0.00354629 0.00036177
v 0.04808138 0.00173016 0.01038247
v 0.04564536 0.00173016 0.02147061
v 0.03666231 0.00308521 -0.00040360
v 0.03447180 0.00319364 0.00675249
v 0.02303084 0.00387506 0.00111234
v 0.02209163 0.00390815 0.00594244
v 0.01972701 0.00398297 0.00578999
v 0.01834232 0.00398740 0.01000539
v 0.04106722 0.00266124 0.00825008
v 0.03837325 0.00269187 0.01704387
v 0.02757980 0.00362715 0.00612311
v 0.02547767 0.00366226 0.01173778
v 0.02048358 0.00392251 0.01056791
v 0.01816945 0.00392408 0.01481311
v 0.01623422 0.00398788 0.01382323
v 0.01342423 0.00398625 0.01707452
v 0.04340453 0.00214521 0.02007867
v 0.03975150 0.00214605 0.03011818
v 0.03191819 0.00324070 0.01381637
v 0.02867956 0.00324584 0.02059338
v 0.02271576 0.00366609 0.01702567
v 0.01910885 0.00365313 0.02179574
v 0.01511176 0.00391878 0.01850256
v 0.01136684 0.00391358 0.02139293
v 0.00999821 0.00398465 0.01962230
v 0.00605357 0.00398522 0.02134640
v 0.03481942 0.00269522 0.02554152
v 0.02992420 0.00268391 0.03341424
v 0.02440507 0.00322847 0.02684941
v 0.01897465 0.00321143 0.03168645
v 0.01463319 0.00364042 0.02552172
v 0.00928777 0.00364500 0.02772350
v 0.00700479 0.00391545 0.02326488
v 0.00219950 0.00391488 0.02425843
v 0.00174131 0.00398505 0.02224766
v -0.00278020 0.00398119 0.02233044
v -0.00286616 0.00390235 0.02451681
v -0.00798789 0.00388851 0.02388806
v -0.00305753 0.00361298 0.02960093
v -0.00733708 0.00397693 0.02159463
v -0.01175281 0.00397555 0.02002036
v 0.00330875 0.00364361 0.02891262
v 0.00478265 0.00321570 0.03565283
v 0.01232040 0.00321757 0.03429367
v 0.01545791 0.00267681 0.04235423
v 0.02349519 0.00267281 0.03939284
v 0.02718911 0.00214045 0.04634585
v 0.03442572 0.00214322 0.03941151
v 0.03650196 0.00173016 0.04225832
v 0.04199825 0.00173016 0.03226363
v 0.04288532 0.00129875 0.03312111
v 0.04652063 0.00129876 0.02202121
v 0.04376518 0.00070303 0.03397732
v 0.03814646 0.00070303 0.04455040
v 0.03896712 0.00002515 0.04602247
v 0.03093078 0.00002515 0.05391261
v 0.03732629 0.00129875 0.04340312
v 0.02957770 0.00129875 0.05098981
v 0.03025391 0.00070303 0.05232795
v 0.02012004 0.00070303 0.05559137
v 0.02058494 0.00002515 0.05715628
v 0.00877445 0.00002515 0.05792432
v 0.02889838 0.00173016 0.04965619
v 0.01918752 0.00173015 0.05288314
v 0.01965507 0.00129875 0.05423653
v 0.00832518 0.00129875 0.05517626
v 0.00854985 0.00070303 0.05645278
v -0.00381509 0.00070303 0.05715378
v -0.00383975 0.00002514 0.05853738
v -0.01665699 0.00002514 0.05798827
v 0.01800935 0.00214144 0.04950958
v 0.00753009 0.00214114 0.05067170
v 0.00809927 0.00173015 0.05389459
v -0.00376349 0.00173015 0.05473815
v -0.00378972 0.00129875 0.05595179
v -0.01610633 0.00129875 0.05550169
v -0.01638236 0.00070302 0.05665300
v -0.02854190 0.00070302 0.05358339
v -0.02905024 0.00002514 0.05491474
v -0.04064437 0.00002514 0.04965923
v 0.00629898 0.00267560 0.04370727
v -0.00352780 0.00264887 0.04487179
v -0.00369418 0.00213445 0.05165748
v -0.01511780 0.00212707 0.05136175
v -0.01582735 0.00173015 0.05433580
v -0.02751555 0.00173015 0.05134233
v -0.02803132 0.00129874 0.05246931
v -0.03923071 0.00129874 0.04728760
v -0.03994020 0.00070302 0.04833709
v -0.05045521 0.00070302 0.04105320
v -0.05131863 0.00002514 0.04230841
v -0.06030531 0.00002513 0.03209065
v -0.05928321 0.00070301 0.03095046
v -0.06534611 0.00070301 0.01769239
v -0.05824384 0.00129874 0.03025716
v -0.06657784 0.00002513 0.01871874
v -0.07122723 0.00002513 0.00398310
v -0.04958015 0.00129874 0.04014309
v -0.04868865 0.00173014 0.03921955
v -0.03851178 0.00173015 0.04622688
v -0.03667485 0.00212423 0.04353122
v -0.02620449 0.00212468 0.04847296
v -0.02330138 0.00260981 0.04211575
v -0.01354632 0.00261936 0.04474654
v -0.01153952 0.00312929 0.03663659
v -0.00329723 0.00317463 0.03674211
v -0.00953103 0.00357917 0.02925477
v -0.01583760 0.00356822 0.02730339
v -0.01958112 0.00311462 0.03435191
v -0.02722462 0.00311181 0.03044390
v -0.03256520 0.00260798 0.03759196
v -0.04117480 0.00260164 0.03162714
v -0.01296053 0.00388403 0.02219528
v -0.01761569 0.00388318 0.01959467
v -0.01586707 0.00397528 0.01768167
v -0.01951181 0.00397437 0.01463874
v -0.04639136 0.00212264 0.03685966
v -0.05443399 0.00212454 0.02771722
v -0.02179536 0.00356612 0.02410519
v -0.02721622 0.00355886 0.01997554
v -0.02177672 0.00388020 0.01622232
v -0.02516405 0.00388377 0.01209559
v -0.02252494 0.00397547 0.01097390
v -0.03428472 0.00310207 0.02537605
v -0.03990148 0.00311377 0.01873095
v -0.05718184 0.00173014 0.02954827
v -0.06283257 0.00173014 0.01680616
v -0.02746504 0.00390254 0.00724642
v -0.03408407 0.00361347 0.00827810
v -0.03153052 0.00356759 0.01474629
v -0.04816321 0.00260925 0.02359576
v -0.05229471 0.00264929 0.01302696
v -0.05958135 0.00213455 0.01564478
v -0.06301491 0.00214330 0.00240299
v -0.06409978 0.00129874 0.01725466
v -0.06827890 0.00129874 0.00294462
v -0.04303682 0.00317528 0.01015992
v -0.04473298 0.00322903 0.00091094
v -0.05477330 0.00268427 0.00151858
v -0.05702226 0.00267672 -0.00922571
v -0.06678884 0.00173014 0.00279426
v -0.07035865 0.00173014 -0.01051206
v -0.06975581 0.00070301 0.00309075
v -0.07373479 0.00070301 -0.01084916
v -0.07542338 0.00002513 -0.01012453
v -0.06611540 0.00214141 -0.01009634
v -0.06635353 0.00213709 -0.02212231
v -0.07204955 0.00129874 -0.01068011
v -0.07252408 0.00129874 -0.02387702
v -0.07428632 0.00070301 -0.02438018
v -0.07076038 0.00173014 -0.02337439
v -0.06503695 0.00173014 -0.03560577
v -0.06663090 0.00129874 -0.03642108
v -0.05612266 0.00173014 -0.04650177
v -0.06104565 0.00213857 -0.03357286
v -0.05699449 0.00265947 -0.01947863
v -0.04618528 0.00321743 -0.00770429
v -0.03546682 0.00365355 0.00132409
vn 0.09098694 0.87874420 -0.46854030
vn 0.09268580 0.86582030 -0.49169540
vn 0.19668670 0.86135500 -0.46838220
vn 0.19169310 0.87435730 -0.44581720
vn 0.27538010 0.86908350 -0.41092520
vn 0.28648040 0.85512530 -0.43207610
vn 0.32223660 0.85249300 -0.41160550
vn 0.30688710 0.86726920 -0.39200030
vn 0.32735570 0.86864410 -0.37188140
vn 0.34476380 0.85450740 -0.38852910
vn 0.38632560 0.86087860 -0.33112000
vn 0.36572950 0.87395010 -0.32008310
vn 0.40660240 0.88414030 -0.23015300
vn 0.42931390 0.87273310 -0.23243600
vn 0.46078700 0.88612570 -0.04956470
vn 0.44064730 0.89625130 -0.05063202
vn 0.00610648 0.86954150 -0.49382210
vn 0.00854811 0.88226150 -0.47068210
vn -0.08198722 0.88788640 -0.45269840
vn -0.09093609 0.87614640 -0.47339010
vn -0.23817690 0.88252510 -0.40548860
vn -0.22854830 0.89325830 -0.38711150
vn -0.36260720 0.88504550 -0.29190840
vn -0.37441330 0.87344510 -0.31130090
vn -0.42640890 0.86559560 -0.26252570
vn -0.00000020 -1.00000000 -0.00000063
vn 0.00000025 -1.00000000 0.00000011
vn 0.00000011 -1.00000000 0.00000000
vn 0.00000000 -1.00000000 -0.00000023
vn 0.00000012 -1.00000000 0.00000000
vn 0.00000017 -1.00000000 0.00000000
vn 0.00000013 -1.00000000 0.00000000
vn 0.00000018 -1.00000000 0.00000000
vn 0.00000016 -1.00000000 0.00000000
vn 0.00000017 -1.00000000 0.00000000
vn 0.00000017 -1.00000000 0.00000000
vn 0.00000016 -1.00000000 0.00000000
vn 0.00000017 -1.00000000 0.00000000
vn 0.00000015 -1.00000000 0.00000000
vn 0.00000016 -1.00000000 0.00000000
vn 0.00000015 -1.00000000 0.00000000
vn 0.00000019 -1.00000000 0.00000000
vn 0.00000020 -1.00000000 0.00000021
vn 0.00000017 -1.00000000 0.00000011
vn 0.00000012 -1.00000000 0.00000000
vn 0.00000015 -1.00000000 0.00000000
vn 0.00000017 -1.00000000 0.00000000
vn 0.00000019 -1.00000000 0.00000011
vn 0.00000012 -1.00000000 0.00000000
vn 0.00000000 -1.00000000 0.00000000
vn 0.00000011 -1.00000000 0.00000000
vn 0.00000000 -1.00000000 0.00000000
vn 0.00000020 -1.00000000 0.00000000
vn 0.00000000 -1.00000000 0.00000000
vn 0.00000045 -1.00000000 0.00000018
vn 0.00000000 -1.00000000 0.00000000
vn 0.00000000 -1.00000000 0.00000000
vn -0.40803940 0.88699380 -0.21620800
vn -0.44989050 0.88285920 -0.13475240
vn -0.03500987 0.99933360 -0.01032464
vn -0.48248500 0.87470710 -0.04578010
vn -0.03115475 0.99938130 -0.01631862
vn -0.02551211 0.99939510 -0.02363299
vn -0.04093228 0.99892630 -0.02169678
vn -0.34852700 0.89354980 -0.28301530
vn -0.27510960 0.90286250 -0.33038460
vn -0.03742921 0.99929290 -0.00359180
vn -0.03900388 0.99922740 0.00481968
vn -0.04992875 0.99874290 -0.00445662
vn -0.49302740 0.86862260 0.04918263
vn -0.46767290 0.87244190 0.14187090
vn -0.04624492 0.99883820 -0.01355391
vn -0.05566493 0.99832430 -0.01580598
vn -0.02045908 0.99932000 -0.03067547
vn -0.01800966 0.99926180 -0.03393303
vn -0.02511833 0.99899480 -0.03712894
vn -0.20027840 0.90839430 -0.36702650
vn -0.12639430 0.90644430 -0.40296790
vn -0.03301708 0.99899680 -0.03025314
vn -0.04129550 0.99856010 -0.03423825
vn -0.04964887 0.99841900 -0.02635030
vn -0.06217382 0.99753090 -0.03266080
vn -0.01485419 0.99932030 -0.03373959
vn -0.00847452 0.99946020 -0.03174219
vn -0.01793843 0.99901090 -0.04068597
vn -0.04626423 0.90275290 -0.42766440
vn 0.03832472 0.89970830 -0.43480590
vn -0.02112220 0.99898420 -0.03980647
vn -0.02325336 0.99882050 -0.04262510
vn -0.03151717 0.99872690 -0.03938621
vn -0.04361889 0.99814030 -0.04258307
vn -0.05480130 0.99774180 -0.03883285
vn -0.08729795 0.99463790 -0.05544877
vn -0.00189760 0.99958990 -0.02857448
vn 0.00190215 0.99969790 -0.02450279
vn -0.00211390 0.99917600 -0.04053267
vn 0.12324940 0.89683060 -0.42485830
vn 0.20782700 0.89153960 -0.40244880
vn -0.01071555 0.99909170 -0.04124006
vn -0.00905102 0.99864990 -0.05115240
vn -0.01724473 0.99876820 -0.04652527
vn -0.01512311 0.99822110 -0.05767063
vn -0.02812495 0.99838640 -0.04933187
vn -0.04687528 0.99571120 -0.07976119
vn -0.07532058 0.99521490 -0.06224225
vn -0.18506510 0.97163440 -0.14723220
vn 0.00439994 0.99924660 -0.03855909
vn 0.01283525 0.99838760 -0.05529529
vn 0.01195233 0.99932990 -0.03459611
vn 0.00166044 0.99852450 -0.05427799
vn 0.00907179 0.99735780 -0.07207753
vn -0.00434248 0.99780880 -0.06602262
vn 0.00029495 0.99466950 -0.10311310
vn -0.01806301 0.99542100 -0.09386609
vn -0.04058256 0.97259160 -0.22895120
vn 0.00546006 0.99979720 -0.01938946
vn 0.01230764 0.99982480 -0.01410678
vn 0.28798040 0.88671430 -0.36166980
vn 0.35404890 0.88602970 -0.29933350
vn -0.11781260 0.97285680 -0.19917330
vn -0.19179480 0.92616850 -0.32469490
vn 0.02147361 0.99971250 -0.01065723
vn 0.03034217 0.99950370 -0.00847147
vn 0.03449145 0.99919110 -0.02067601
vn 0.39787320 0.89061870 -0.22021610
vn 0.41968020 0.89779860 -0.13351490
vn 0.02319665 0.99934070 -0.02792984
vn 0.03764264 0.99818800 -0.04694404
vn 0.02517551 0.99826450 -0.05323675
vn 0.04326102 0.99634900 -0.07360126
vn 0.02603396 0.99687280 -0.07461182
vn 0.04535586 0.99298690 -0.10917810
vn 0.01977749 0.99386450 -0.10882230
vn 0.04716742 0.96937540 -0.24101180
vn 0.00467058 0.97113490 -0.23848540
vn 0.00733336 0.91942550 -0.39319570
vn -0.06817608 0.92312980 -0.37839590
vn 0.07632571 0.91673020 -0.39214780
vn 0.16112680 0.91333720 -0.37396960
vn -0.30377440 0.92100930 -0.24385040
vn -0.33784990 0.91795560 -0.20788200
vn 0.10075870 0.96729640 -0.23277740
vn 0.14422390 0.96596600 -0.21473040
vn 0.23103070 0.90993150 -0.34445520
vn 0.25670270 0.90917780 -0.32787110
vn -0.40558330 0.87932380 -0.24958340
vn -0.42294800 0.87903280 -0.22003740
vn -0.44375350 0.86580460 -0.23122570
vn -0.48275530 0.86628850 -0.12841950
vn 0.06852734 0.99211880 -0.10490130
vn 0.07882265 0.99181770 -0.10042140
vn 0.15919590 0.96608510 -0.20331300
vn 0.17010160 0.96625490 -0.19343470
vn 0.05466703 0.99610980 -0.06911380
vn 0.06014458 0.99644150 -0.05904853
vn 0.27418240 0.90977130 -0.31167320
vn 0.30616240 0.91335000 -0.26843330
vn 0.08317120 0.99231590 -0.09160714
vn 0.08663674 0.99356610 -0.07294091
vn 0.04714359 0.99819300 -0.03725842
vn 0.05106241 0.99837110 -0.02545564
vn 0.18785690 0.96817580 -0.16536430
vn 0.20670670 0.97115380 -0.11888130
vn 0.34005760 0.92034300 -0.19320850
vn 0.37006050 0.92802300 -0.04276162
vn 0.43640260 0.88733540 0.14895850
vn 0.45890780 0.87668300 0.14432820
vn 0.44198150 0.86405870 0.24094610
vn 0.04203479 0.99901700 -0.01407658
vn 0.04579069 0.99891440 -0.00855490
vn 0.03701686 0.99929620 -0.00607005
vn 0.03997245 0.99919400 -0.00367707
vn 0.42881380 0.90215720 -0.04723391
vn 0.44392450 0.89521540 0.03899449
vn 0.42019600 0.87772320 0.23029840
vn 0.40924530 0.87604500 0.25507530
vn 0.35044160 0.91666410 0.19213990
vn 0.43032030 0.86236020 0.26675700
vn 0.40203150 0.86152260 0.31007970
vn 0.36537860 0.92235120 0.12556630
vn 0.22282230 0.97170840 0.07831448
vn 0.22896310 0.97306160 -0.02696539
vn 0.09223847 0.99567860 -0.01077925
vn 0.08817361 0.99492620 -0.04844911
vn 0.05837568 0.99795900 -0.02588756
vn 0.06107097 0.99720660 -0.04300300
vn 0.05064511 0.99860850 -0.01470114
vn 0.05000880 0.99873660 -0.00493351
vn 0.05739214 0.99833150 -0.00636306
vn 0.05966780 0.99811110 0.01462580
vn 0.09269788 0.99521990 0.03073070
vn 0.09316047 0.99444960 0.04889823
vn 0.04712410 0.99887970 -0.00431588
vn 0.04797035 0.99884690 0.00191106
vn 0.21084840 0.97067350 0.11548160
vn 0.20790280 0.96950490 0.12975600
vn 0.05205748 0.99862350 0.00641623
vn 0.05450220 0.99835060 0.01804125
vn 0.03960757 0.99921510 0.00060488
vn 0.03741638 0.99926350 0.00851751
vn 0.45466040 0.88086000 0.13179340
vn 0.44235070 0.86741420 0.22785590
vn 0.06332863 0.99759790 0.02806995
vn 0.06424491 0.99721980 0.03775242
vn 0.04806861 0.99876930 0.01221204
vn 0.04658868 0.99862600 0.02399072
vn 0.03472536 0.99924210 0.01758762
vn 0.03156302 0.99916660 0.02588375
vn 0.39997740 0.85993020 0.31707730
vn 0.33346300 0.85698920 0.39290190
vn 0.09376794 0.99391540 0.05779061
vn 0.08829980 0.99374930 0.06830429
vn 0.05429675 0.99808630 0.02958894
vn 0.05028896 0.99795030 0.03957741
vn 0.04290344 0.99848710 0.03439122
vn 0.03679736 0.99838480 0.04328696
vn 0.02718681 0.99907830 0.03321982
vn 0.02120383 0.99899790 0.03941639
vn 0.25038530 0.85590520 0.45247480
vn 0.15858520 0.85153880 0.49973220
vn 0.05999445 0.99710490 0.04671479
vn 0.05097270 0.99716440 0.05536042
vn 0.04277246 0.99792210 0.04818755
vn 0.03154347 0.99790750 0.05644032
vn 0.02803687 0.99829740 0.05115071
vn 0.01772446 0.99820220 0.05725537
vn 0.01355961 0.99893890 0.04401357
vn 0.00496096 0.99890360 0.04654978
vn 0.05869593 0.85106830 0.52176390
vn -0.04265994 0.85948130 0.50938400
vn -0.00404120 0.99889730 0.04677470
vn -0.01300246 0.99891640 0.04468836
vn -0.00294986 0.99826000 0.05889374
vn -0.13731160 0.87014960 0.47327060
vn -0.22436460 0.87493210 0.42913210
vn 0.00759864 0.99816860 0.06001361
vn 0.00966125 0.99784430 0.06491040
vn 0.01933835 0.99783770 0.06281687
vn 0.02177336 0.99719980 0.07154495
vn 0.03663536 0.99723370 0.06467474
vn 0.05446417 0.99393520 0.09553292
vn 0.07602455 0.99383720 0.08067115
vn 0.17067550 0.96875830 0.17993690
vn 0.19588440 0.96889550 0.15123090
vn 0.32041790 0.91442640 0.24729880
vn 0.34187170 0.91525100 0.21316470
vn 0.38305950 0.87514360 0.29561640
vn 0.33148380 0.87611730 0.35005280
vn 0.34667980 0.86287780 0.36777040
vn 0.24890440 0.86497770 0.43572940
vn 0.27773520 0.91482890 0.29317420
vn 0.19946170 0.91557240 0.34920230
vn 0.23767860 0.87770960 0.41609460
vn 0.13913880 0.87622880 0.46137120
vn 0.14667070 0.86288120 0.48365650
vn 0.09525687 0.86191420 0.49802610
vn 0.12331010 0.96860050 0.21588830
vn 0.07112215 0.96904780 0.23640650
vn 0.11641330 0.91502230 0.38624100
vn 0.07603363 0.91524650 0.39565470
vn 0.09107337 0.87580290 0.47399880
vn 0.03983929 0.87921620 0.47475420
vn 0.03743112 0.86646190 0.49783810
vn -0.08422066 0.87537570 0.47605060
vn 0.03170704 0.99395110 0.10514750
vn 0.02000869 0.99409560 0.10664750
vn 0.04598222 0.96986200 0.23927660
vn 0.02105472 0.97008190 0.24186280
vn 0.03361450 0.91713740 0.39715140
vn -0.06256399 0.92209690 0.38186790
vn -0.07513252 0.88691320 0.45578520
vn -0.19750050 0.89006380 0.41082860
vn -0.20792900 0.87822870 0.43067380
vn -0.29123350 0.87825160 0.37928490
vn 0.01255741 0.99724970 0.07304314
vn 0.00318389 0.99750550 0.07051717
vn 0.00824251 0.99441320 0.10523560
vn -0.01651254 0.99494140 0.09909104
vn -0.03758946 0.97141960 0.23437340
vn -0.09994162 0.97297140 0.20817860
vn -0.16488740 0.92472440 0.34306990
vn -0.23090790 0.92518940 0.30117460
vn -0.27705840 0.89033600 0.36130400
vn -0.34877620 0.89084690 0.29111330
vn -0.36544800 0.87917940 0.30576380
vn -0.44688660 0.87553070 0.18367980
vn -0.43046000 0.88671890 0.16862350
vn -0.47775900 0.87673000 0.05559523
vn -0.36123110 0.92177160 0.14088660
vn -0.49999270 0.86375080 0.06278390
vn -0.51086250 0.85936250 0.02270801
vn -0.29141710 0.92516970 0.24318120
vn -0.17711300 0.97304670 0.14768640
vn -0.13907000 0.97352380 0.18141410
vn -0.05855108 0.99537350 0.07618020
vn -0.04218168 0.99527140 0.08749637
vn -0.02804032 0.99797800 0.05704148
vn -0.01244285 0.99782720 0.06469796
vn -0.01335523 0.99824350 0.05771941
vn -0.00023517 0.99802180 0.06286817
vn -0.01455137 0.99838830 0.05485597
vn -0.02537122 0.99846480 0.04923686
vn -0.02589654 0.99835030 0.05124595
vn -0.03508928 0.99839670 0.04441643
vn -0.03857864 0.99802410 0.04959487
vn -0.04796816 0.99804480 0.04007009
vn -0.02123004 0.99894390 0.04075026
vn -0.02830697 0.99897670 0.03527329
vn -0.30073240 0.87794400 0.37252430
vn -0.36412190 0.88068670 0.30299530
vn -0.07397259 0.99534740 0.06173823
vn -0.09332161 0.99496290 0.03660468
vn -0.03396124 0.99851820 0.04252081
vn -0.04088540 0.99857310 0.03435320
vn -0.03393840 0.99901280 0.02866177
vn -0.03780777 0.99905680 0.02135736
vn -0.41815010 0.88005750 0.22505380
vn -0.04284136 0.99843970 0.03581624
vn -0.05102216 0.99839810 0.02444960
vn -0.22267630 0.97112910 0.08557885
vn -0.24348220 0.96951410 0.02754631
vn -0.03943131 0.99913200 0.01344012
vn -0.05071375 0.99860160 0.01493524
vn -0.04665555 0.99860460 0.02474325
vn -0.05961322 0.99790000 0.02533412
vn -0.06934677 0.99752690 0.01144661
vn -0.10583650 0.99429700 0.01312217
vn -0.10956110 0.99396590 0.00532041
vn -0.39986260 0.91540940 0.04621128
vn -0.40547420 0.91392790 0.01807166
vn -0.05794853 0.99823030 0.01335621
vn -0.06092179 0.99813030 0.00494721
vn -0.07375087 0.99726630 0.00455801
vn -0.07344121 0.99729400 -0.00333377
vn -0.24444570 0.96960080 0.01098021
vn -0.24776850 0.96879940 -0.00621386
vn -0.48603130 0.87367310 0.02165278
vn -0.48392370 0.87501690 -0.01277627
vn -0.50741290 0.86156650 -0.01533418
vn -0.11017390 0.99390720 -0.00322323
vn -0.10490390 0.99410210 -0.02750234
vn -0.40516650 0.91418200 -0.01055507
vn -0.38750600 0.91628470 -0.10129800
vn -0.46160110 0.87882130 -0.12082040
vn -0.23955700 0.96887980 -0.06232469
vn -0.21511470 0.97016080 -0.11186480
vn -0.35352570 0.91716620 -0.18391770
vn -0.20217930 0.97138430 -0.12464300
vn -0.09469395 0.99428410 -0.04931626
vn -0.06886788 0.99745010 -0.01872154
vn -0.05985788 0.99819810 -0.00421818
vn -0.05177237 0.99864480 0.00530710
vt -1.03759500 0.59651300
vt -1.02738400 0.59665140
vt -1.02625700 0.50704850
vt -1.03773800 0.51046600
vt -1.05657900 0.43253970
vt -1.04571000 0.43006940
vt -1.07703200 0.35273130
vt -1.08642500 0.35609890
vt -1.11958600 0.27450870
vt -1.11002000 0.27025530
vt -1.15721000 0.18231040
vt -1.16484100 0.18929130
vt -1.23096800 0.10196920
vt -1.22409500 0.09197614
vt -1.30512500 0.02817957
vt -1.30961200 0.03962365
vt -1.04627600 0.68884930
vt -1.05538100 0.68895410
vt -1.09032700 0.78606250
vt -1.08320100 0.78808400
vt -1.13778800 0.87121060
vt -1.14382800 0.86645640
vt -1.21727700 0.90875380
vt -1.21288400 0.91752130
vt -1.29899500 0.94259820
vt -1.03578800 0.96459890
vt -1.03344200 0.96290590
vt -1.03752300 0.96679460
vt -1.03077300 0.96162770
vt -1.03890700 0.96934910
vt -1.02808300 0.96069660
vt -1.04024400 0.97199090
vt -1.02536300 0.96002840
vt -1.04114200 0.97489580
vt -1.04100000 0.97802090
vt -1.02257200 0.95948330
vt -1.04013600 0.98096560
vt -1.03877400 0.98371540
vt -1.03678700 0.98597000
vt -1.03395100 0.98747290
vt -1.03088400 0.98853630
vt -1.01987400 0.95988940
vt -1.01730600 0.96191150
vt -1.01518600 0.96477470
vt -1.01369100 0.96756210
vt -1.01264500 0.97017610
vt -1.01165200 0.97262750
vt -1.01103600 0.97506740
vt -1.01107100 0.97790730
vt -1.01167000 0.98082960
vt -1.01284100 0.98397480
vt -1.02817100 0.98948030
vt -1.01457100 0.98660960
vt -1.01695100 0.98807740
vt -1.01968000 0.98887220
vt -1.02259100 0.98961130
vt -1.02551200 0.99007110
vt -1.47675500 0.67407440
vt -1.51038600 0.67746470
vt -1.50655000 0.69779600
vt -1.54391600 0.67399420
vt -1.46913800 0.69381200
vt -1.43270600 0.68311610
vt -1.44995000 0.74101970
vt -1.44432600 0.66432630
vt -1.41440500 0.64872340
vt -1.54337900 0.69334880
vt -1.57938900 0.68203140
vt -1.54095100 0.73957190
vt -1.57627100 0.66413840
vt -1.60637700 0.64837330
vt -1.49636300 0.74645760
vt -1.48613200 0.81055680
vt -1.39881700 0.66742680
vt -1.36924400 0.64518810
vt -1.36046300 0.71252430
vt -1.38817500 0.62758200
vt -1.36681800 0.60121790
vt -1.40391700 0.72809610
vt -1.36905600 0.78731740
vt -1.42771000 0.80329290
vt -1.41130100 0.86639630
vt -1.34576100 0.61484420
vt -1.32880800 0.57965840
vt -1.29436800 0.64790660
vt -1.35099600 0.57107250
vt -1.34137100 0.53858690
vt -1.32285800 0.68792200
vt -1.26505200 0.74256350
vt -1.31316500 0.77100720
vt -1.27178200 0.82830950
vt -1.33993800 0.84710510
vt -1.31933200 0.89426830
vt -1.31882200 0.54289390
vt -1.31609800 0.50579110
vt -1.26414000 0.55332990
vt -1.33819900 0.50500900
vt -1.34173600 0.47158740
vt -1.27484400 0.60040150
vt -1.20643200 0.62713030
vt -1.22973200 0.69018790
vt -1.17050400 0.73042890
vt -1.21318600 0.79456540
vt -1.17479600 0.83435730
vt -1.24161300 0.87283560
vt -1.22795800 0.89298950
vt -1.26264000 0.50788410
vt -1.19408200 0.50992820
vt -1.27072800 0.46525670
vt -1.19438200 0.56664100
vt -1.12843500 0.57921020
vt -1.14262500 0.65295790
vt -1.09433500 0.67288190
vt -1.12612600 0.76122220
vt -1.10603900 0.77516030
vt -1.32093000 0.46959020
vt -1.33225500 0.43460270
vt -1.35159300 0.43940930
vt -1.36738100 0.40956220
vt -1.15742000 0.85236820
vt -1.15058700 0.85945060
vt -1.34901100 0.40114020
vt -1.37157800 0.37026070
vt -1.30452200 0.38161820
vt -1.38857900 0.38310550
vt -1.41466900 0.36109840
vt -1.28561800 0.42373790
vt -1.22548800 0.40753190
vt -1.20603400 0.45819990
vt -1.14358000 0.44839560
vt -1.12854900 0.51056370
vt -1.07828500 0.51050960
vt -1.07815500 0.58878750
vt -1.05539700 0.59312240
vt -1.07247800 0.68190010
vt -1.06388300 0.68544640
vt -1.09814100 0.78064100
vt -1.04644800 0.59482690
vt -1.04658800 0.51047560
vt -1.22258900 0.90091450
vt -1.30633800 0.92401000
vt -1.05553400 0.51048520
vt -1.07362800 0.43564690
vt -1.06505700 0.43408490
vt -1.09431600 0.35915050
vt -1.30271000 0.93231360
vt -1.39216100 0.95649470
vt -1.39085300 0.96592080
vt -1.48299400 0.98042450
vt -1.09542500 0.43961930
vt -1.12257600 0.37008040
vt -1.10229200 0.36223530
vt -1.13413900 0.28387840
vt -1.16739100 0.38741270
vt -1.19384600 0.32232170
vt -1.12682300 0.27916810
vt -1.17118600 0.19563000
vt -1.15274300 0.29585710
vt -1.19391200 0.21833400
vt -1.24769100 0.35399960
vt -1.27795000 0.29866310
vt -1.17760000 0.20203800
vt -1.24110600 0.11817630
vt -1.23601000 0.11002870
vt -1.31310400 0.04891181
vt -1.39241800 0.02933612
vt -1.39023300 0.01536722
vt -1.47830200 0.03256438
vt -1.33015100 0.33992880
vt -1.36521500 0.29970090
vt -1.40033700 0.34302180
vt -1.43347300 0.32302520
vt -1.44445900 0.34474990
vt -1.47676000 0.33526880
vt -1.47723800 0.04651326
vt -1.56192500 0.06656212
vt -1.47742700 0.05566567
vt -1.56412200 0.05364344
vt -1.64896400 0.08302192
vt -1.39427900 0.03882694
vt -1.39615900 0.04842147
vt -1.31663400 0.05830136
vt -1.32561100 0.08217993
vt -1.25406800 0.13889630
vt -1.28270400 0.18467310
vt -1.22994900 0.25433700
vt -1.32156900 0.24258270
vt -1.37329300 0.20246530
vt -1.34544500 0.13493510
vt -1.41150600 0.12672790
vt -1.40094100 0.07282120
vt -1.47810300 0.08844745
vt -1.40631200 0.27066870
vt -1.45004000 0.26256690
vt -1.47761800 0.06491795
vt -1.55894800 0.08417234
vt -1.42786800 0.19501760
vt -1.48382800 0.20517380
vt -1.46916700 0.31387210
vt -1.50613400 0.31304000
vt -1.51031400 0.33242410
vt -1.54386500 0.33598460
vt -1.47917400 0.14043150
vt -1.54673500 0.15642620
vt -1.49506000 0.26697820
vt -1.54003300 0.27548590
vt -1.54308500 0.31800630
vt -1.57891500 0.32902340
vt -1.57618900 0.34578830
vt -1.60606000 0.36167360
vt -1.55514200 0.10668610
vt -1.63157900 0.13131390
vt -1.53970500 0.21786760
vt -1.59502700 0.23561780
vt -1.58418300 0.28941290
vt -1.62673400 0.31008170
vt -1.61251500 0.34634380
vt -1.64200900 0.36969110
vt -1.63227700 0.38300700
vt -1.65363800 0.40915520
vt -1.61376700 0.17802370
vt -1.67984800 0.20853640
vt -1.64932200 0.26094310
vt -1.69699900 0.29551470
vt -1.66409300 0.33814880
vt -1.69266900 0.37427040
vt -1.66551900 0.39878900
vt -1.68340700 0.43209110
vt -1.66962200 0.43897460
vt -1.67970400 0.47132100
vt -1.69603300 0.46805130
vt -1.70163600 0.50550560
vt -1.73406600 0.46044720
vt -1.68337500 0.50495960
vt -1.68012300 0.53865550
vt -1.71511000 0.41588900
vt -1.76093100 0.39364960
vt -1.73247100 0.34100350
vt -1.78075600 0.30543050
vt -1.73787800 0.25024490
vt -1.77310300 0.21366780
vt -1.70693200 0.16610750
vt -1.71919100 0.14690290
vt -1.63964100 0.11017170
vt -1.64281200 0.10185810
vt -1.56044400 0.07531944
vt -1.64594800 0.09363431
vt -1.72877900 0.13188130
vt -1.73318700 0.12334850
vt -1.80720600 0.17676620
vt -1.72401100 0.13935130
vt -1.79531700 0.19060190
vt -1.80151900 0.18416220
vt -1.85526600 0.25333600
vt -1.86195400 0.24603890
vt -1.90560100 0.32663680
vt -1.78904700 0.19711200
vt -1.84066500 0.26354470
vt -1.84800500 0.25841260
vt -1.89050600 0.33697970
vt -1.89862100 0.33348240
vt -1.94018500 0.41868120
vt -1.94779000 0.40998670
vt -1.97613300 0.50164000
vt -1.82199800 0.27659600
vt -1.86143800 0.34950600
vt -1.88230200 0.34051510
vt -1.92221800 0.42233760
vt -1.93125000 0.42049950
vt -1.95652100 0.50795400
vt -1.96596300 0.50789380
vt -1.96196400 0.60008210
vt -1.97166400 0.60023990
vt -1.94439000 0.69314010
vt -1.81534400 0.36936980
vt -1.84850300 0.43733950
vt -1.89924900 0.42701210
vt -1.92270000 0.50816970
vt -1.94697500 0.50801490
vt -1.94313400 0.59654990
vt -1.95260000 0.59832560
vt -1.92670100 0.68725360
vt -1.93554400 0.69079770
vt -1.89406300 0.77559290
vt -1.90142800 0.77990260
vt -1.83873100 0.85103810
vt -1.83236100 0.84524790
vt -1.74528300 0.89054360
vt -1.82555200 0.83866010
vt -1.74924300 0.89844930
vt -1.65248600 0.93200340
vt -1.88603700 0.77037780
vt -1.87792400 0.76510550
vt -1.91776200 0.68367070
vt -1.89502800 0.67455910
vt -1.91906200 0.59203410
vt -1.86587800 0.58205750
vt -1.86906900 0.50851150
vt -1.80378700 0.50834940
vt -1.78757600 0.44969340
vt -1.74456300 0.50699150
vt -1.74162500 0.55456850
vt -1.80094500 0.56883170
vt -1.78359500 0.62826190
vt -1.84480100 0.65442870
vt -1.81170800 0.72207650
vt -1.69845200 0.54329040
vt -1.68750700 0.57986320
vt -1.67033200 0.57110800
vt -1.65438400 0.60101670
vt -1.85729100 0.75169800
vt -1.80116100 0.81506380
vt -1.72792400 0.60104140
vt -1.70613300 0.64427320
vt -1.66982800 0.61368160
vt -1.64543400 0.64283290
vt -1.63287000 0.62717420
vt -1.75628400 0.68376150
vt -1.71593000 0.72954540
vt -1.81866800 0.83200030
vt -1.73504000 0.87550090
vt -1.61434800 0.66540440
vt -1.63246100 0.70620470
vt -1.67479700 0.68056180
vt -1.76248400 0.77764590
vt -1.69301400 0.81378190
vt -1.72194500 0.85626960
vt -1.63546600 0.88538290
vt -1.74018900 0.88306300
vt -1.64700000 0.91443510
vt -1.65945100 0.75982950
vt -1.59765000 0.78132200
vt -1.61717500 0.83931290
vt -1.54884400 0.86306810
vt -1.64374500 0.90623540
vt -1.56148700 0.93483200
vt -1.65022000 0.92254630
vt -1.56456800 0.95232270
vt -1.56688300 0.96178350
vt -1.55754700 0.91247090
vt -1.48151800 0.92645730
vt -1.56303600 0.94362500
vt -1.48110700 0.95869650
vt -1.48099300 0.96769740
vt -1.48122300 0.94959740
vt -1.39591100 0.93883850
vt -1.39402600 0.94771440
vt -1.31000500 0.91561580
vt -1.40070700 0.91626600
vt -1.48216900 0.87533370
vt -1.54132800 0.80073210
vt -1.58566600 0.72470650
f 3/3/3 2/2/2 1/1/1
f 4/4/4 3/3/3 1/1/1
f 3/3/3 4/4/4 5/5/5
f 6/6/6 3/3/3 5/5/5
f 7/7/7 6/6/6 5/5/5
f 8/8/8 7/7/7 5/5/5
f 7/7/7 8/8/8 9/9/9
f 10/10/10 7/7/7 9/9/9
f 11/11/11 10/10/10 9/9/9
f 12/12/12 11/11/11 9/9/9
f 11/11/11 12/12/12 13/13/13
f 14/14/14 11/11/11 13/13/13
f 15/15/15 14/14/14 13/13/13
f 16/16/16 15/15/15 13/13/13
f 2/2/2 17/17/17 1/1/1
f 17/17/17 18/18/18 1/1/1
f 18/18/18 17/17/17 19/19/19
f 17/17/17 20/20/20 19/19/19
f 20/20/20 21/21/21 19/19/19
f 21/21/21 22/22/22 19/19/19
f 22/22/22 21/21/21 23/23/23
f 21/21/21 24/24/24 23/23/23
f 24/24/24 25/25/25 23/23/23
f 28/28/28 27/27/27 26/26/26
f 28/28/28 29/29/29 27/27/27
f 30/30/30 29/29/29 28/28/28
f 30/30/30 31/31/31 29/29/29
f 32/32/32 31/31/31 30/30/30
f 32/32/32 33/33/33 31/31/31
f 34/34/34 33/33/33 32/32/32
f 35/35/35 33/33/33 34/34/34
f 35/35/35 36/36/36 33/33/33
f 37/37/37 36/36/36 35/35/35
f 38/38/38 36/36/36 37/37/37
f 39/39/39 36/36/36 38/38/38
f 40/40/40 36/36/36 39/39/39
f 41/41/41 36/36/36 40/40/40
f 41/41/41 42/42/42 36/36/36
f 41/41/41 43/43/43 42/42/42
f 41/41/41 44/44/44 43/43/43
f 41/41/41 45/45/45 44/44/44
f 41/41/41 46/46/46 45/45/45
f 41/41/41 47/47/47 46/46/46
f 41/41/41 48/48/48 47/47/47
f 41/41/41 49/49/49 48/48/48
f 41/41/41 50/50/50 49/49/49
f 41/41/41 51/51/51 50/50/50
f 52/52/52 51/51/51 41/41/41
f 52/52/52 53/53/53 51/51/51
f 52/52/52 54/54/54 53/53/53
f 52/52/52 55/55/55 54/54/54
f 52/52/52 56/56/56 55/55/55
f 57/57/57 56/56/56 52/52/52
f 60/60/60 59/59/59 58/58/58
f 59/59/59 60/60/60 61/61/61
f 62/62/62 60/60/60 58/58/58
f 63/63/63 62/62/62 58/58/58
f 60/60/60 62/62/62 64/64/64
f 62/62/62 63/63/63 64/64/64
f 65/65/65 63/63/63 58/58/58
f 63/63/63 65/65/65 66/66/66
f 60/60/60 67/67/67 61/61/61
f 67/67/67 68/68/68 61/61/61
f 67/67/67 60/60/60 69/69/69
f 68/68/68 67/67/67 69/69/69
f 68/68/68 70/70/70 61/61/61
f 70/70/70 68/68/68 71/71/71
f 72/72/72 60/60/60 64/64/64
f 60/60/60 72/72/72 69/69/69
f 73/73/73 72/72/72 64/64/64
f 72/72/72 73/73/73 69/69/69
f 74/74/74 63/63/63 66/66/66
f 75/75/75 74/74/74 66/66/66
f 63/63/63 74/74/74 76/76/76
f 74/74/74 75/75/75 76/76/76
f 77/77/77 75/75/75 66/66/66
f 75/75/75 77/77/77 78/78/78
f 63/63/63 79/79/79 64/64/64
f 79/79/79 63/63/63 76/76/76
f 79/79/79 80/80/80 64/64/64
f 80/80/80 79/79/79 76/76/76
f 81/81/81 73/73/73 64/64/64
f 80/80/80 81/81/81 64/64/64
f 73/73/73 81/81/81 82/82/82
f 81/81/81 80/80/80 82/82/82
f 83/83/83 75/75/75 78/78/78
f 84/84/84 83/83/83 78/78/78
f 75/75/75 83/83/83 85/85/85
f 83/83/83 84/84/84 85/85/85
f 86/86/86 84/84/84 78/78/78
f 84/84/84 86/86/86 87/87/87
f 75/75/75 88/88/88 76/76/76
f 88/88/88 75/75/75 85/85/85
f 88/88/88 89/89/89 76/76/76
f 89/89/89 88/88/88 85/85/85
f 90/90/90 80/80/80 76/76/76
f 89/89/89 90/90/90 76/76/76
f 80/80/80 90/90/90 91/91/91
f 90/90/90 89/89/89 91/91/91
f 80/80/80 92/92/92 82/82/82
f 92/92/92 80/80/80 91/91/91
f 92/92/92 93/93/93 82/82/82
f 93/93/93 92/92/92 91/91/91
f 94/94/94 84/84/84 87/87/87
f 95/95/95 94/94/94 87/87/87
f 84/84/84 94/94/94 96/96/96
f 94/94/94 95/95/95 96/96/96
f 97/97/97 95/95/95 87/87/87
f 95/95/95 97/97/97 98/98/98
f 99/99/99 84/84/84 96/96/96
f 100/100/100 99/99/99 96/96/96
f 84/84/84 99/99/99 85/85/85
f 99/99/99 100/100/100 85/85/85
f 100/100/100 101/101/101 85/85/85
f 101/101/101 100/100/100 102/102/102
f 101/101/101 89/89/89 85/85/85
f 89/89/89 101/101/101 102/102/102
f 89/89/89 103/103/103 91/91/91
f 103/103/103 89/89/89 102/102/102
f 103/103/103 104/104/104 91/91/91
f 104/104/104 103/103/103 102/102/102
f 104/104/104 105/105/105 91/91/91
f 105/105/105 104/104/104 106/106/106
f 105/105/105 93/93/93 91/91/91
f 93/93/93 105/105/105 106/106/106
f 95/95/95 107/107/107 96/96/96
f 107/107/107 108/108/108 96/96/96
f 107/107/107 95/95/95 109/109/109
f 108/108/108 107/107/107 109/109/109
f 110/110/110 100/100/100 96/96/96
f 108/108/108 110/110/110 96/96/96
f 100/100/100 110/110/110 111/111/111
f 110/110/110 108/108/108 111/111/111
f 100/100/100 112/112/112 102/102/102
f 112/112/112 100/100/100 111/111/111
f 112/112/112 113/113/113 102/102/102
f 113/113/113 112/112/112 111/111/111
f 114/114/114 104/104/104 102/102/102
f 113/113/113 114/114/114 102/102/102
f 104/104/104 114/114/114 115/115/115
f 114/114/114 113/113/113 115/115/115
f 95/95/95 116/116/116 109/109/109
f 116/116/116 117/117/117 109/109/109
f 116/116/116 95/95/95 98/98/98
f 117/117/117 116/116/116 98/98/98
f 118/118/118 117/117/117 98/98/98
f 117/117/117 118/118/118 119/119/119
f 120/120/120 104/104/104 115/115/115
f 121/121/121 120/120/120 115/115/115
f 104/104/104 120/120/120 106/106/106
f 120/120/120 121/121/121 106/106/106
f 122/122/122 117/117/117 119/119/119
f 123/123/123 122/122/122 119/119/119
f 117/117/117 122/122/122 124/124/124
f 122/122/122 123/123/123 124/124/124
f 125/125/125 123/123/123 119/119/119
f 123/123/123 125/125/125 126/126/126
f 127/127/127 117/117/117 124/124/124
f 128/128/128 127/127/127 124/124/124
f 117/117/117 127/127/127 109/109/109
f 127/127/127 128/128/128 109/109/109
f 128/128/128 129/129/129 109/109/109
f 129/129/129 128/128/128 130/130/130
f 129/129/129 108/108/108 109/109/109
f 108/108/108 129/129/129 130/130/130
f 131/131/131 108/108/108 130/130/130
f 132/132/132 131/131/131 130/130/130
f 108/108/108 131/131/131 111/111/111
f 131/131/131 132/132/132 111/111/111
f 132/132/132 133/133/133 111/111/111
f 133/133/133 132/132/132 134/134/134
f 133/133/133 113/113/113 111/111/111
f 113/113/113 133/133/133 134/134/134
f 135/135/135 113/113/113 134/134/134
f 136/136/136 135/135/135 134/134/134
f 113/113/113 135/135/135 115/115/115
f 135/135/135 136/136/136 115/115/115
f 136/136/136 137/137/137 115/115/115
f 137/137/137 121/121/121 115/115/115
f 137/137/137 136/136/136 19/19/19
f 121/121/121 137/137/137 19/19/19
f 136/136/136 18/18/18 19/19/19
f 22/22/22 121/121/121 19/19/19
f 18/18/18 136/136/136 1/1/1
f 121/121/121 22/22/22 23/23/23
f 136/136/136 138/138/138 1/1/1
f 138/138/138 136/136/136 134/134/134
f 138/138/138 139/139/139 1/1/1
f 139/139/139 138/138/138 134/134/134
f 139/139/139 4/4/4 1/1/1
f 4/4/4 139/139/139 5/5/5
f 140/140/140 121/121/121 23/23/23
f 141/141/141 140/140/140 23/23/23
f 121/121/121 140/140/140 106/106/106
f 140/140/140 141/141/141 106/106/106
f 142/142/142 139/139/139 134/134/134
f 139/139/139 142/142/142 143/143/143
f 132/132/132 142/142/142 134/134/134
f 142/142/142 132/132/132 143/143/143
f 139/139/139 144/144/144 5/5/5
f 144/144/144 139/139/139 143/143/143
f 144/144/144 145/145/145 5/5/5
f 145/145/145 144/144/144 143/143/143
f 145/145/145 8/8/8 5/5/5
f 8/8/8 145/145/145 9/9/9
f 146/146/146 141/141/141 23/23/23
f 141/141/141 146/146/146 147/147/147
f 25/25/25 146/146/146 23/23/23
f 146/146/146 25/25/25 147/147/147
f 25/25/25 148/148/148 147/147/147
f 148/148/148 149/149/149 147/147/147
f 132/132/132 150/150/150 143/143/143
f 150/150/150 151/151/151 143/143/143
f 150/150/150 132/132/132 130/130/130
f 151/151/151 150/150/150 130/130/130
f 152/152/152 145/145/145 143/143/143
f 151/151/151 152/152/152 143/143/143
f 145/145/145 152/152/152 153/153/153
f 152/152/152 151/151/151 153/153/153
f 154/154/154 151/151/151 130/130/130
f 151/151/151 154/154/154 155/155/155
f 128/128/128 154/154/154 130/130/130
f 154/154/154 128/128/128 155/155/155
f 156/156/156 145/145/145 153/153/153
f 157/157/157 156/156/156 153/153/153
f 145/145/145 156/156/156 9/9/9
f 156/156/156 157/157/157 9/9/9
f 157/157/157 12/12/12 9/9/9
f 12/12/12 157/157/157 13/13/13
f 158/158/158 151/151/151 155/155/155
f 151/151/151 158/158/158 153/153/153
f 158/158/158 159/159/159 153/153/153
f 159/159/159 158/158/158 155/155/155
f 128/128/128 160/160/160 155/155/155
f 160/160/160 161/161/161 155/155/155
f 160/160/160 128/128/128 124/124/124
f 161/161/161 160/160/160 124/124/124
f 162/162/162 157/157/157 153/153/153
f 159/159/159 162/162/162 153/153/153
f 157/157/157 162/162/162 163/163/163
f 162/162/162 159/159/159 163/163/163
f 157/157/157 164/164/164 13/13/13
f 164/164/164 157/157/157 163/163/163
f 164/164/164 165/165/165 13/13/13
f 165/165/165 164/164/164 163/163/163
f 165/165/165 16/16/16 13/13/13
f 16/16/16 165/165/165 166/166/166
f 15/15/15 16/16/16 166/166/166
f 167/167/167 15/15/15 166/166/166
f 168/168/168 167/167/167 166/166/166
f 169/169/169 161/161/161 124/124/124
f 161/161/161 169/169/169 170/170/170
f 123/123/123 169/169/169 124/124/124
f 169/169/169 123/123/123 170/170/170
f 123/123/123 171/171/171 170/170/170
f 171/171/171 172/172/172 170/170/170
f 171/171/171 123/123/123 126/126/126
f 172/172/172 171/171/171 126/126/126
f 173/173/173 172/172/172 126/126/126
f 172/172/172 173/173/173 174/174/174
f 175/175/175 168/168/168 166/166/166
f 168/168/168 175/175/175 176/176/176
f 177/177/177 175/175/175 166/166/166
f 175/175/175 177/177/177 176/176/176
f 178/178/178 168/168/168 176/176/176
f 179/179/179 178/178/178 176/176/176
f 180/180/180 177/177/177 166/166/166
f 177/177/177 180/180/180 181/181/181
f 165/165/165 180/180/180 166/166/166
f 180/180/180 165/165/165 181/181/181
f 165/165/165 182/182/182 181/181/181
f 182/182/182 183/183/183 181/181/181
f 182/182/182 165/165/165 163/163/163
f 183/183/183 182/182/182 163/163/163
f 184/184/184 183/183/183 163/163/163
f 183/183/183 184/184/184 185/185/185
f 159/159/159 184/184/184 163/163/163
f 184/184/184 159/159/159 185/185/185
f 159/159/159 186/186/186 185/185/185
f 186/186/186 159/159/159 155/155/155
f 161/161/161 186/186/186 155/155/155
f 186/186/186 161/161/161 185/185/185
f 161/161/161 187/187/187 185/185/185
f 187/187/187 188/188/188 185/185/185
f 187/187/187 161/161/161 170/170/170
f 188/188/188 187/187/187 170/170/170
f 189/189/189 183/183/183 185/185/185
f 188/188/188 189/189/189 185/185/185
f 183/183/183 189/189/189 190/190/190
f 189/189/189 188/188/188 190/190/190
f 183/183/183 191/191/191 181/181/181
f 191/191/191 183/183/183 190/190/190
f 191/191/191 192/192/192 181/181/181
f 192/192/192 191/191/191 190/190/190
f 193/193/193 188/188/188 170/170/170
f 188/188/188 193/193/193 194/194/194
f 172/172/172 193/193/193 170/170/170
f 193/193/193 172/172/172 194/194/194
f 192/192/192 195/195/195 181/181/181
f 195/195/195 192/192/192 196/196/196
f 195/195/195 177/177/177 181/181/181
f 177/177/177 195/195/195 196/196/196
f 188/188/188 197/197/197 190/190/190
f 197/197/197 188/188/188 194/194/194
f 197/197/197 198/198/198 190/190/190
f 198/198/198 197/197/197 194/194/194
f 172/172/172 199/199/199 194/194/194
f 199/199/199 200/200/200 194/194/194
f 199/199/199 172/172/172 174/174/174
f 200/200/200 199/199/199 174/174/174
f 201/201/201 200/200/200 174/174/174
f 200/200/200 201/201/201 202/202/202
f 203/203/203 192/192/192 190/190/190
f 198/198/198 203/203/203 190/190/190
f 192/192/192 203/203/203 204/204/204
f 203/203/203 198/198/198 204/204/204
f 200/200/200 205/205/205 194/194/194
f 205/205/205 198/198/198 194/194/194
f 205/205/205 200/200/200 206/206/206
f 198/198/198 205/205/205 206/206/206
f 207/207/207 200/200/200 202/202/202
f 200/200/200 207/207/207 206/206/206
f 208/208/208 207/207/207 202/202/202
f 207/207/207 208/208/208 206/206/206
f 209/209/209 208/208/208 202/202/202
f 208/208/208 209/209/209 210/210/210
f 211/211/211 192/192/192 204/204/204
f 212/212/212 211/211/211 204/204/204
f 192/192/192 211/211/211 196/196/196
f 211/211/211 212/212/212 196/196/196
f 213/213/213 198/198/198 206/206/206
f 198/198/198 213/213/213 204/204/204
f 214/214/214 213/213/213 206/206/206
f 213/213/213 214/214/214 204/204/204
f 208/208/208 215/215/215 206/206/206
f 215/215/215 214/214/214 206/206/206
f 215/215/215 208/208/208 216/216/216
f 214/214/214 215/215/215 216/216/216
f 217/217/217 208/208/208 210/210/210
f 208/208/208 217/217/217 216/216/216
f 218/218/218 217/217/217 210/210/210
f 217/217/217 218/218/218 216/216/216
f 219/219/219 218/218/218 210/210/210
f 218/218/218 219/219/219 220/220/220
f 221/221/221 212/212/212 204/204/204
f 214/214/214 221/221/221 204/204/204
f 221/221/221 214/214/214 222/222/222
f 212/212/212 221/221/221 222/222/222
f 223/223/223 214/214/214 216/216/216
f 214/214/214 223/223/223 222/222/222
f 224/224/224 223/223/223 216/216/216
f 223/223/223 224/224/224 222/222/222
f 218/218/218 225/225/225 216/216/216
f 225/225/225 224/224/224 216/216/216
f 225/225/225 218/218/218 226/226/226
f 224/224/224 225/225/225 226/226/226
f 227/227/227 218/218/218 220/220/220
f 218/218/218 227/227/227 226/226/226
f 228/228/228 227/227/227 220/220/220
f 227/227/227 228/228/228 226/226/226
f 229/229/229 228/228/228 220/220/220
f 228/228/228 229/229/229 230/230/230
f 231/231/231 228/228/228 230/230/230
f 232/232/232 231/231/231 230/230/230
f 228/228/228 231/231/231 233/233/233
f 231/231/231 232/232/232 233/233/233
f 234/234/234 232/232/232 230/230/230
f 232/232/232 234/234/234 235/235/235
f 228/228/228 236/236/236 226/226/226
f 236/236/236 228/228/228 233/233/233
f 236/236/236 237/237/237 226/226/226
f 237/237/237 236/236/236 233/233/233
f 238/238/238 224/224/224 226/226/226
f 237/237/237 238/238/238 226/226/226
f 224/224/224 238/238/238 239/239/239
f 238/238/238 237/237/237 239/239/239
f 240/240/240 224/224/224 239/239/239
f 241/241/241 240/240/240 239/239/239
f 224/224/224 240/240/240 222/222/222
f 240/240/240 241/241/241 222/222/222
f 241/241/241 242/242/242 222/222/222
f 242/242/242 241/241/241 243/243/243
f 242/242/242 212/212/212 222/222/222
f 212/212/212 242/242/242 243/243/243
f 244/244/244 212/212/212 243/243/243
f 245/245/245 244/244/244 243/243/243
f 212/212/212 244/244/244 196/196/196
f 244/244/244 245/245/245 196/196/196
f 245/245/245 246/246/246 196/196/196
f 246/246/246 177/177/177 196/196/196
f 177/177/177 246/246/246 176/176/176
f 246/246/246 245/245/245 176/176/176
f 245/245/245 247/247/247 176/176/176
f 247/247/247 245/245/245 248/248/248
f 247/247/247 179/179/179 176/176/176
f 179/179/179 247/247/247 248/248/248
f 249/249/249 179/179/179 248/248/248
f 250/250/250 249/249/249 248/248/248
f 251/251/251 245/245/245 243/243/243
f 245/245/245 251/251/251 248/248/248
f 252/252/252 251/251/251 243/243/243
f 251/251/251 252/252/252 248/248/248
f 253/253/253 250/250/250 248/248/248
f 252/252/252 253/253/253 248/248/248
f 250/250/250 253/253/253 254/254/254
f 253/253/253 252/252/252 254/254/254
f 255/255/255 250/250/250 254/254/254
f 256/256/256 255/255/255 254/254/254
f 257/257/257 252/252/252 243/243/243
f 252/252/252 257/257/257 258/258/258
f 241/241/241 257/257/257 243/243/243
f 257/257/257 241/241/241 258/258/258
f 252/252/252 259/259/259 254/254/254
f 259/259/259 252/252/252 258/258/258
f 259/259/259 260/260/260 254/254/254
f 260/260/260 259/259/259 258/258/258
f 261/261/261 256/256/256 254/254/254
f 260/260/260 261/261/261 254/254/254
f 256/256/256 261/261/261 262/262/262
f 261/261/261 260/260/260 262/262/262
f 263/263/263 256/256/256 262/262/262
f 264/264/264 263/263/263 262/262/262
f 241/241/241 265/265/265 258/258/258
f 265/265/265 266/266/266 258/258/258
f 265/265/265 241/241/241 239/239/239
f 266/266/266 265/265/265 239/239/239
f 267/267/267 260/260/260 258/258/258
f 266/266/266 267/267/267 258/258/258
f 260/260/260 267/267/267 268/268/268
f 267/267/267 266/266/266 268/268/268
f 260/260/260 269/269/269 262/262/262
f 269/269/269 260/260/260 268/268/268
f 269/269/269 270/270/270 262/262/262
f 270/270/270 269/269/269 268/268/268
f 271/271/271 264/264/264 262/262/262
f 270/270/270 271/271/271 262/262/262
f 264/264/264 271/271/271 272/272/272
f 271/271/271 270/270/270 272/272/272
f 273/273/273 264/264/264 272/272/272
f 274/274/274 273/273/273 272/272/272
f 275/275/275 266/266/266 239/239/239
f 266/266/266 275/275/275 276/276/276
f 237/237/237 275/275/275 239/239/239
f 275/275/275 237/237/237 276/276/276
f 266/266/266 277/277/277 268/268/268
f 277/277/277 266/266/266 276/276/276
f 277/277/277 278/278/278 268/268/268
f 278/278/278 277/277/277 276/276/276
f 279/279/279 270/270/270 268/268/268
f 278/278/278 279/279/279 268/268/268
f 270/270/270 279/279/279 280/280/280
f 279/279/279 278/278/278 280/280/280
f 270/270/270 281/281/281 272/272/272
f 281/281/281 270/270/270 280/280/280
f 281/281/281 282/282/282 272/272/272
f 282/282/282 281/281/281 280/280/280
f 283/283/283 274/274/274 272/272/272
f 282/282/282 283/283/283 272/272/272
f 274/274/274 283/283/283 284/284/284
f 283/283/283 282/282/282 284/284/284
f 285/285/285 274/274/274 284/284/284
f 286/286/286 285/285/285 284/284/284
f 287/287/287 286/286/286 284/284/284
f 286/286/286 287/287/287 288/288/288
f 289/289/289 287/287/287 284/284/284
f 287/287/287 289/289/289 288/288/288
f 290/290/290 286/286/286 288/288/288
f 291/291/291 290/290/290 288/288/288
f 282/282/282 292/292/292 284/284/284
f 292/292/292 289/289/289 284/284/284
f 292/292/292 282/282/282 293/293/293
f 289/289/289 292/292/292 293/293/293
f 294/294/294 282/282/282 280/280/280
f 282/282/282 294/294/294 293/293/293
f 295/295/295 294/294/294 280/280/280
f 294/294/294 295/295/295 293/293/293
f 296/296/296 295/295/295 280/280/280
f 295/295/295 296/296/296 297/297/297
f 278/278/278 296/296/296 280/280/280
f 296/296/296 278/278/278 297/297/297
f 278/278/278 298/298/298 297/297/297
f 298/298/298 299/299/299 297/297/297
f 298/298/298 278/278/278 276/276/276
f 299/299/299 298/298/298 276/276/276
f 300/300/300 299/299/299 276/276/276
f 237/237/237 300/300/300 276/276/276
f 300/300/300 237/237/237 233/233/233
f 299/299/299 300/300/300 233/233/233
f 301/301/301 299/299/299 233/233/233
f 299/299/299 301/301/301 302/302/302
f 232/232/232 301/301/301 233/233/233
f 301/301/301 232/232/232 302/302/302
f 299/299/299 303/303/303 297/297/297
f 303/303/303 299/299/299 302/302/302
f 303/303/303 304/304/304 297/297/297
f 304/304/304 303/303/303 302/302/302
f 305/305/305 295/295/295 297/297/297
f 304/304/304 305/305/305 297/297/297
f 295/295/295 305/305/305 306/306/306
f 305/305/305 304/304/304 306/306/306
f 232/232/232 307/307/307 302/302/302
f 307/307/307 308/308/308 302/302/302
f 307/307/307 232/232/232 235/235/235
f 308/308/308 307/307/307 235/235/235
f 309/309/309 308/308/308 235/235/235
f 308/308/308 309/309/309 310/310/310
f 311/311/311 295/295/295 306/306/306
f 312/312/312 311/311/311 306/306/306
f 295/295/295 311/311/311 293/293/293
f 311/311/311 312/312/312 293/293/293
f 313/313/313 304/304/304 302/302/302
f 308/308/308 313/313/313 302/302/302
f 304/304/304 313/313/313 314/314/314
f 313/313/313 308/308/308 314/314/314
f 315/315/315 308/308/308 310/310/310
f 308/308/308 315/315/315 314/314/314
f 316/316/316 315/315/315 310/310/310
f 315/315/315 316/316/316 314/314/314
f 317/317/317 316/316/316 310/310/310
f 316/316/316 317/317/317 71/71/71
f 304/304/304 318/318/318 306/306/306
f 318/318/318 304/304/304 314/314/314
f 318/318/318 319/319/319 306/306/306
f 319/319/319 318/318/318 314/314/314
f 312/312/312 320/320/320 293/293/293
f 320/320/320 312/312/312 321/321/321
f 320/320/320 289/289/289 293/293/293
f 289/289/289 320/320/320 321/321/321
f 322/322/322 316/316/316 71/71/71
f 316/316/316 322/322/322 323/323/323
f 68/68/68 322/322/322 71/71/71
f 322/322/322 68/68/68 323/323/323
f 316/316/316 324/324/324 314/314/314
f 324/324/324 319/319/319 314/314/314
f 324/324/324 316/316/316 323/323/323
f 319/319/319 324/324/324 323/323/323
f 319/319/319 325/325/325 306/306/306
f 325/325/325 312/312/312 306/306/306
f 325/325/325 319/319/319 326/326/326
f 312/312/312 325/325/325 326/326/326
f 312/312/312 327/327/327 321/321/321
f 327/327/327 312/312/312 326/326/326
f 327/327/327 328/328/328 321/321/321
f 328/328/328 327/327/327 326/326/326
f 329/329/329 289/289/289 321/321/321
f 330/330/330 329/329/329 321/321/321
f 289/289/289 329/329/329 288/288/288
f 329/329/329 330/330/330 288/288/288
f 331/331/331 319/319/319 323/323/323
f 319/319/319 331/331/331 326/326/326
f 332/332/332 331/331/331 323/323/323
f 331/331/331 332/332/332 326/326/326
f 333/333/333 328/328/328 326/326/326
f 332/332/332 333/333/333 326/326/326
f 328/328/328 333/333/333 334/334/334
f 333/333/333 332/332/332 334/334/334
f 328/328/328 335/335/335 321/321/321
f 335/335/335 330/330/330 321/321/321
f 335/335/335 328/328/328 336/336/336
f 330/330/330 335/335/335 336/336/336
f 330/330/330 337/337/337 288/288/288
f 337/337/337 330/330/330 338/338/338
f 337/337/337 291/291/291 288/288/288
f 291/291/291 337/337/337 338/338/338
f 339/339/339 291/291/291 338/338/338
f 149/149/149 339/339/339 338/338/338
f 340/340/340 328/328/328 334/334/334
f 328/328/328 340/340/340 336/336/336
f 341/341/341 340/340/340 334/334/334
f 340/340/340 341/341/341 336/336/336
f 342/342/342 330/330/330 336/336/336
f 330/330/330 342/342/342 338/338/338
f 343/343/343 342/342/342 336/336/336
f 342/342/342 343/343/343 338/338/338
f 344/344/344 149/149/149 338/338/338
f 343/343/343 344/344/344 338/338/338
f 149/149/149 344/344/344 147/147/147
f 344/344/344 343/343/343 147/147/147
f 341/341/341 345/345/345 336/336/336
f 345/345/345 343/343/343 336/336/336
f 343/343/343 345/345/345 346/346/346
f 345/345/345 341/341/341 346/346/346
f 343/343/343 347/347/347 147/147/147
f 347/347/347 343/343/343 346/346/346
f 347/347/347 141/141/141 147/147/147
f 141/141/141 347/347/347 346/346/346
f 348/348/348 141/141/141 346/346/346
f 141/141/141 348/348/348 106/106/106
f 348/348/348 93/93/93 106/106/106
f 93/93/93 348/348/348 346/346/346
f 349/349/349 93/93/93 346/346/346
f 341/341/341 349/349/349 346/346/346
f 93/93/93 349/349/349 82/82/82
f 349/349/349 341/341/341 82/82/82
f 341/341/341 350/350/350 82/82/82
f 350/350/350 73/73/73 82/82/82
f 350/350/350 341/341/341 334/334/334
f 73/73/73 350/350/350 334/334/334
f 351/351/351 73/73/73 334/334/334
f 332/332/332 351/351/351 334/334/334
f 73/73/73 351/351/351 69/69/69
f 351/351/351 332/332/332 69/69/69
f 332/332/332 352/352/352 69/69/69
f 352/352/352 68/68/68 69/69/69
f 352/352/352 332/332/332 323/323/323
f 68/68/68 352/352/352 323/323/323

