mtllib CabinetMesh_2ace9b6a.mtl
g CabinetMesh_2ace9b6a
v 1.3389 0.42534 1.5402
v 1.3389 0.42932 1.53394
v 1.33535 0.42933 1.5402
v 1.3389 0.42617 3.94152
v 1.33535 0.43016 3.94152
v 1.3389 0.43016 3.94777
v 1.3389 0.65502 3.94144
v 1.3389 0.65104 3.9477
v 1.33535 0.65103 3.94144
v 1.3389 0.65419 1.54012
v 1.33535 0.6502 1.54012
v 1.3389 0.6502 1.53386
v 1.34332 0.42617 3.94152
v 1.34332 0.43016 3.94777
v 1.34687 0.43016 3.94152
v 1.34332 0.42534 1.5402
v 1.34687 0.42933 1.5402
v 1.34332 0.42932 1.53394
v 1.34332 0.65419 1.54012
v 1.34332 0.6502 1.53386
v 1.34687 0.6502 1.54012
v 1.34332 0.65502 3.94144
v 1.34687 0.65103 3.94144
v 1.34332 0.65104 3.9477
v 1.99832 -0.00403 3.85696
v 1.4246 -0.00401 3.92882
v 1.99832 -0.00401 3.92882
v 1.4246 -0.00403 3.85696
v 1.99832 -0.00442 2.74127
v 1.4246 -0.00442 2.74127
v 1.99832 -0.00484 1.52473
v 1.4246 -0.00484 1.52473
v 1.99832 0.66149 3.85673
v 1.99832 0.66152 3.92859
v 1.4246 0.66152 3.92859
v 1.4246 0.66149 3.85673
v 1.33758 0.66149 3.85673
v 1.33758 0.66152 3.92859
v 1.33758 0.66111 2.74104
v 1.4246 0.66111 2.74104
v 1.33758 0.66069 1.5245
v 1.4246 0.66069 1.5245
v 1.99832 0.41883 1.52458
v 1.99832 0.66069 1.5245
v 1.4246 0.66069 1.5245
v 1.4246 0.41883 1.52458
v 1.99832 0.18196 1.52467
v 1.33758 0.41883 1.52458
v 1.33758 0.66069 1.5245
v 1.33758 0.18196 1.52467
v 1.4246 0.18196 1.52467
v 1.99832 -0.00484 1.52473
v 1.4246 -0.00484 1.52473
v 1.4246 -0.00401 3.92882
v 1.99832 0.18279 3.92875
v 1.99832 -0.00401 3.92882
v 1.4246 0.18279 3.92875
v 1.99832 0.41966 3.92867
v 1.4246 0.41966 3.92867
v 1.99832 0.66152 3.92859
v 1.4246 0.66152 3.92859
v 1.33758 0.66152 3.92859
v 1.33758 0.41966 3.92867
v 1.33758 0.18279 3.92875
v 1.4246 0.18276 3.8569
v 1.33758 0.18279 3.92875
v 1.4246 0.18279 3.92875
v 1.33758 0.18276 3.8569
v 1.4246 0.18238 2.74121
v 1.33758 0.18238 2.74121
v 1.4246 0.18196 1.52467
v 1.33758 0.18196 1.52467
v 1.33758 0.40632 3.83594
v 1.74312 0.40632 3.83594
v 1.74311 0.40595 2.76201
v 1.33758 0.40595 2.76201
v 1.33758 0.40594 2.72025
v 1.74311 0.40594 2.72025
v 1.74311 0.40553 1.54547
v 1.33758 0.40553 1.54547
v 1.33758 0.43257 2.762
v 1.74311 0.43257 2.762
v 1.74312 0.43294 3.83593
v 1.33758 0.43294 3.83593
v 1.33758 0.19527 1.54554
v 1.74311 0.19527 1.54554
v 1.74311 0.19568 2.72032
v 1.33758 0.19568 2.72032
v 1.33758 0.43215 1.54546
v 1.74311 0.43215 1.54546
v 1.74311 0.43255 2.72024
v 1.33758 0.43255 2.72024
v 1.99832 0.41966 3.92867
v 1.99832 0.66152 3.92859
v 1.99832 0.66149 3.85673
v 1.99832 0.41964 3.85682
v 1.99832 0.66111 2.74104
v 1.99832 0.18279 3.92875
v 1.99832 0.41925 2.74113
v 1.99832 0.18276 3.8569
v 1.99832 -0.00401 3.92882
v 1.99832 -0.00403 3.85696
v 1.99832 0.18238 2.74121
v 1.99832 0.41883 1.52458
v 1.99832 -0.00442 2.74127
v 1.99832 0.18196 1.52467
v 1.99832 -0.00484 1.52473
v 1.4246 -0.00484 1.52473
v 1.4246 0.18196 1.52467
v 1.4246 0.18238 2.74121
v 1.4246 -0.00442 2.74127
v 1.4246 0.18276 3.8569
v 1.4246 -0.00403 3.85696
v 1.4246 0.18279 3.92875
v 1.4246 -0.00401 3.92882
v 1.74311 0.19527 1.54554
v 1.74311 0.40553 1.54547
v 1.74311 0.40594 2.72025
v 1.74311 0.19568 2.72032
v 1.74312 0.43295 3.87769
v 1.74312 0.64819 3.87762
v 1.74312 0.6482 3.90771
v 1.74312 0.43296 3.90778
v 1.74311 0.19608 3.87778
v 1.74312 0.40634 3.8777
v 1.74312 0.40635 3.90779
v 1.74312 0.19609 3.90787
v 1.74311 0.19569 2.76209
v 1.74311 0.40595 2.76201
v 1.74312 0.40632 3.83594
v 1.74311 0.19606 3.83601
v 1.33758 0.43255 2.72024
v 1.74311 0.43255 2.72024
v 1.74311 0.64779 2.72016
v 1.33758 0.64779 2.72016
v 1.33758 0.43295 3.87769
v 1.74312 0.43295 3.87769
v 1.74312 0.43296 3.90778
v 1.33758 0.43296 3.90778
v 1.33758 0.40553 1.54547
v 1.74311 0.40553 1.54547
v 1.74311 0.19527 1.54554
v 1.33758 0.19527 1.54554
v 1.33758 0.19569 2.76209
v 1.74311 0.19569 2.76209
v 1.74311 0.19606 3.83601
v 1.33758 0.19606 3.83601
v 1.33758 0.19608 3.87778
v 1.74311 0.19608 3.87778
v 1.74312 0.19609 3.90787
v 1.33758 0.19609 3.90787
v 1.33758 0.64739 1.54539
v 1.74311 0.64739 1.54539
v 1.74311 0.43215 1.54546
v 1.33758 0.43215 1.54546
v 1.33758 0.64781 2.76193
v 1.74311 0.64781 2.76193
v 1.74311 0.43257 2.762
v 1.33758 0.43257 2.762
v 1.33758 0.43296 3.90778
v 1.74312 0.43296 3.90778
v 1.74312 0.6482 3.90771
v 1.33758 0.6482 3.90771
v 1.33758 0.19568 2.72032
v 1.74311 0.19568 2.72032
v 1.74311 0.40594 2.72025
v 1.33758 0.40594 2.72025
v 1.33758 0.19606 3.83601
v 1.74311 0.19606 3.83601
v 1.74312 0.40632 3.83594
v 1.33758 0.40632 3.83594
v 1.33758 0.40635 3.90779
v 1.74312 0.40635 3.90779
v 1.74312 0.40634 3.8777
v 1.33758 0.40634 3.8777
v 1.33758 0.43294 3.83593
v 1.74312 0.43294 3.83593
v 1.74312 0.64818 3.83586
v 1.33758 0.64818 3.83586
v 1.33758 0.6482 3.90771
v 1.74312 0.6482 3.90771
v 1.74312 0.64819 3.87762
v 1.33758 0.64819 3.87762
v 1.33758 0.40595 2.76201
v 1.74311 0.40595 2.76201
v 1.74311 0.19569 2.76209
v 1.33758 0.19569 2.76209
v 1.33758 0.19609 3.90787
v 1.74312 0.19609 3.90787
v 1.74312 0.40635 3.90779
v 1.33758 0.40635 3.90779
v 1.33758 0.64819 3.87762
v 1.74312 0.64819 3.87762
v 1.74312 0.43295 3.87769
v 1.33758 0.43295 3.87769
v 1.33758 0.40634 3.8777
v 1.74312 0.40634 3.8777
v 1.74311 0.19608 3.87778
v 1.33758 0.19608 3.87778
v 1.3389 0.6502 1.53386
v 1.3389 0.42932 1.53394
v 1.34332 0.42932 1.53394
v 1.34332 0.6502 1.53386
v 1.3389 0.43016 3.94777
v 1.3389 0.65104 3.9477
v 1.34332 0.65104 3.9477
v 1.34332 0.43016 3.94777
v 1.33535 0.42933 1.5402
v 1.33535 0.6502 1.54012
v 1.33535 0.65103 3.94144
v 1.33535 0.43016 3.94152
v 1.3389 0.65502 3.94144
v 1.3389 0.65419 1.54012
v 1.34332 0.65419 1.54012
v 1.34332 0.65502 3.94144
v 1.3389 0.42534 1.5402
v 1.3389 0.42617 3.94152
v 1.34332 0.42617 3.94152
v 1.34332 0.42534 1.5402
v 1.33535 0.43016 3.94152
v 1.3389 0.42617 3.94152
v 1.3389 0.42534 1.5402
v 1.33535 0.42933 1.5402
v 1.33535 0.6502 1.54012
v 1.3389 0.65419 1.54012
v 1.3389 0.65502 3.94144
v 1.33535 0.65103 3.94144
v 1.3389 0.43016 3.94777
v 1.33535 0.43016 3.94152
v 1.33535 0.65103 3.94144
v 1.3389 0.65104 3.9477
v 1.3389 0.6502 1.53386
v 1.33535 0.6502 1.54012
v 1.33535 0.42933 1.5402
v 1.3389 0.42932 1.53394
v 1.34332 0.42617 3.94152
v 1.34687 0.43016 3.94152
v 1.34687 0.42933 1.5402
v 1.34332 0.42534 1.5402
v 1.34332 0.65419 1.54012
v 1.34687 0.6502 1.54012
v 1.34687 0.65103 3.94144
v 1.34332 0.65502 3.94144
v 1.34687 0.43016 3.94152
v 1.34332 0.43016 3.94777
v 1.34332 0.65104 3.9477
v 1.34687 0.65103 3.94144
v 1.34687 0.6502 1.54012
v 1.34332 0.6502 1.53386
v 1.34332 0.42932 1.53394
v 1.34687 0.42933 1.5402
v 1.3389 0.42617 3.94152
v 1.3389 0.43016 3.94777
v 1.34332 0.43016 3.94777
v 1.34332 0.42617 3.94152
v 1.34332 0.42534 1.5402
v 1.34332 0.42932 1.53394
v 1.3389 0.42932 1.53394
v 1.3389 0.42534 1.5402
v 1.3389 0.65419 1.54012
v 1.3389 0.6502 1.53386
v 1.34332 0.6502 1.53386
v 1.34332 0.65419 1.54012
v 1.34332 0.65502 3.94144
v 1.34332 0.65104 3.9477
v 1.3389 0.65104 3.9477
v 1.3389 0.65502 3.94144
v 1.4131 0.44612 1.56654
v 1.41311 0.44693 3.91517
v 1.41311 0.63424 3.9151
v 1.4131 0.63343 1.56647
v 1.34687 0.63424 3.9151
v 1.41311 0.63424 3.9151
v 1.41311 0.44693 3.91517
v 1.34687 0.44693 3.91517
v 1.34687 0.44612 1.56653
v 1.4131 0.44612 1.56654
v 1.4131 0.63343 1.56647
v 1.34687 0.63343 1.56647
v 1.34687 0.44693 3.91517
v 1.41311 0.44693 3.91517
v 1.4131 0.44612 1.56654
v 1.34687 0.44612 1.56653
v 1.36415 0.47027 1.59704
v 1.39582 0.47027 1.59704
v 1.39582 0.47106 3.88465
v 1.36415 0.47106 3.88465
v 1.39582 0.63423 3.88459
v 1.39582 0.47106 3.88465
v 1.39582 0.47027 1.59704
v 1.39582 0.63344 1.59698
v 1.36415 0.63423 3.88459
v 1.36415 0.47106 3.88465
v 1.39582 0.47106 3.88465
v 1.39582 0.63423 3.88459
v 1.36415 0.63344 1.59698
v 1.36415 0.47027 1.59704
v 1.36415 0.47106 3.88465
v 1.36415 0.63423 3.88459
v 1.39582 0.63344 1.59698
v 1.39582 0.47027 1.59704
v 1.36415 0.47027 1.59704
v 1.36415 0.63344 1.59698
v 1.33758 0.64779 2.72016
v 1.33758 0.41925 2.74113
v 1.33758 0.43255 2.72024
v 1.33758 0.66111 2.74104
v 1.33758 0.64739 1.54539
v 1.33758 0.41883 1.52458
v 1.33758 0.43257 2.762
v 1.33758 0.43294 3.83593
v 1.33758 0.64781 2.76193
v 1.33758 0.43215 1.54546
v 1.33758 0.66069 1.5245
v 1.33758 0.66149 3.85673
v 1.33758 0.64818 3.83586
v 1.33758 0.41964 3.85682
v 1.33758 0.43295 3.87769
v 1.33758 0.43296 3.90778
v 1.33758 0.64819 3.87762
v 1.33758 0.66152 3.92859
v 1.33758 0.6482 3.90771
v 1.33758 0.41966 3.92867
v 1.33758 0.40553 1.54547
v 1.33758 0.19527 1.54554
v 1.33758 0.18196 1.52467
v 1.33758 0.19568 2.72032
v 1.33758 0.18238 2.74121
v 1.33758 0.40594 2.72025
v 1.33758 0.19569 2.76209
v 1.33758 0.40595 2.76201
v 1.33758 0.19606 3.83601
v 1.33758 0.18276 3.8569
v 1.33758 0.40632 3.83594
v 1.33758 0.40634 3.8777
v 1.33758 0.19608 3.87778
v 1.33758 0.40635 3.90779
v 1.33758 0.19609 3.90787
v 1.33758 0.18279 3.92875
v 1.34687 0.44612 1.56653
v 1.34687 0.42933 1.5402
v 1.34687 0.43016 3.94152
v 1.34687 0.44693 3.91517
v 1.34687 0.63343 1.56647
v 1.34687 0.65103 3.94144
v 1.34687 0.6502 1.54012
v 1.34687 0.63424 3.9151
v 1.36415 0.63423 3.88459
v 1.34687 0.63424 3.9151
v 1.34687 0.63343 1.56647
v 1.36415 0.63344 1.59698
v 1.39582 0.63423 3.88459
v 1.4131 0.63343 1.56647
v 1.41311 0.63424 3.9151
v 1.39582 0.63344 1.59698
vn -0.3973627 -0.3532976 -0.2249823
vn -0.3973627 -0.3532976 -0.2249823
vn -0.3973627 -0.3532976 -0.2249823
vn -0.3973578 -0.3531493 0.2252236
vn -0.3973578 -0.3531493 0.2252236
vn -0.3973578 -0.3531493 0.2252236
vn -0.3973578 0.3533049 0.2249795
vn -0.3973578 0.3533049 0.2249795
vn -0.3973578 0.3533049 0.2249795
vn -0.3973628 0.353142 -0.2252264
vn -0.3973628 0.353142 -0.2252264
vn -0.3973628 0.353142 -0.2252264
vn 0.3973578 -0.3531493 0.2252236
vn 0.3973578 -0.3531493 0.2252236
vn 0.3973578 -0.3531493 0.2252236
vn 0.397341 -0.3533251 -0.2249774
vn 0.397341 -0.3533251 -0.2249774
vn 0.397341 -0.3533251 -0.2249774
vn 0.397341 0.3531695 -0.2252215
vn 0.397341 0.3531695 -0.2252215
vn 0.397341 0.3531695 -0.2252215
vn 0.3973578 0.3533049 0.2249795
vn 0.3973578 0.3533049 0.2249795
vn 0.3973578 0.3533049 0.2249795
vn 0 -0.5773503 0.0001991355
vn 0 -0.5773503 0.0001991355
vn 0 -0.5773503 0.0001991355
vn 0 -0.5773503 0.0001991355
vn 0 -0.5773503 0.0001995179
vn 0 -0.5773503 0.0001995179
vn 0 -0.5773503 0.0001995179
vn 0 -0.5773503 0.0001995179
vn 0 0.5773503 -0.0001990081
vn 0 0.5773503 -0.0001990081
vn 0 0.5773503 -0.0001990081
vn 0 0.5773503 -0.0001990081
vn 0 0.5773503 -0.0001995179
vn 0 0.5773503 -0.0001990081
vn 0 0.5773503 -0.0001995179
vn 0 0.5773503 -0.0001995179
vn 0 0.5773503 -0.0001995179
vn 0 0.5773503 -0.0001995179
vn 0 -0.0001995179 -0.5773503
vn 0 -0.0001995179 -0.5773503
vn 0 -0.0001995179 -0.5773503
vn 0 -0.0001995179 -0.5773503
vn 0 -0.0001995179 -0.5773503
vn 0 -0.0001995179 -0.5773503
vn 0 -0.0001995179 -0.5773503
vn 0 -0.0001995179 -0.5773503
vn 0 -0.0001995179 -0.5773503
vn 0 -0.0001995179 -0.5773503
vn 0 -0.0001995179 -0.5773503
vn 0 0.0001995179 0.5773503
vn 0 0.0001995179 0.5773503
vn 0 0.0001995179 0.5773503
vn 0 0.0001995179 0.5773503
vn 0 0.0001995179 0.5773503
vn 0 0.0001995179 0.5773503
vn 0 0.0001995179 0.5773503
vn 0 0.0001995179 0.5773503
vn 0 0.0001995179 0.5773503
vn 0 0.0001995179 0.5773503
vn 0 0.0001995179 0.5773503
vn 0 -0.5773503 0.0001991355
vn 0 -0.5773503 0.0001991355
vn 0 -0.5773503 0.0001991355
vn 0 -0.5773503 0.0001991355
vn 0 -0.5773503 0.0001995179
vn 0 -0.5773503 0.0001995179
vn 0 -0.5773503 0.0001995631
vn 0 -0.5773503 0.0001995631
vn 0 -0.5773503 0.0001995179
vn 0 -0.5773503 0.0001995179
vn 0 -0.5773503 0.0001995179
vn 0 -0.5773503 0.0001995179
vn 0 -0.5773503 0.0001995647
vn 0 -0.5773503 0.0001995647
vn 0 -0.5773503 0.0001995647
vn 0 -0.5773503 0.0001995647
vn 0 0.5773503 -0.0001995179
vn 0 0.5773503 -0.0001995179
vn 0 0.5773503 -0.0001995179
vn 0 0.5773503 -0.0001995179
vn 0 0.5773503 -0.0001995628
vn 0 0.5773503 -0.0001995628
vn 0 0.5773503 -0.0001995628
vn 0 0.5773503 -0.0001995628
vn 0 0.5773503 -0.0001995647
vn 0 0.5773503 -0.0001995647
vn 0 0.5773503 -0.0001995647
vn 0 0.5773503 -0.0001995647
vn 0.5773503 0 -1.268582E-07
vn 0.5773503 0 -1.268582E-07
vn 0.5773503 0 -1.268582E-07
vn 0.5773503 0 -1.268582E-07
vn 0.5773503 0 0
vn 0.5773503 0 -1.173993E-06
vn 0.5773503 0 0
vn 0.5773503 0 0
vn 0.5773503 0 -1.173993E-06
vn 0.5773503 0 0
vn 0.5773503 0 0
vn 0.5773503 0 0
vn 0.5773503 0 0
vn 0.5773503 0 0
vn 0.5773503 0 0
vn -0.5773503 0 0
vn -0.5773503 0 0
vn -0.5773503 0 0
vn -0.5773503 0 0
vn -0.5773503 0 0
vn -0.5773503 0 0
vn -0.5773503 0 5.631443E-07
vn -0.5773503 0 5.631443E-07
vn -0.5773503 0 0
vn -0.5773503 0 0
vn -0.5773503 0 0
vn -0.5773503 0 0
vn -0.5773503 0 -1.103273E-06
vn -0.5773503 0 -1.103273E-06
vn -0.5773503 0 -1.103273E-06
vn -0.5773503 0 -1.103273E-06
vn -0.5773503 1.548323E-07 -1.620708E-07
vn -0.5773503 1.548323E-07 -1.620708E-07
vn -0.5773503 1.548323E-07 -1.620708E-07
vn -0.5773503 1.548323E-07 -1.620708E-07
vn -0.5773503 1.549085E-07 0
vn -0.5773503 1.549085E-07 0
vn -0.5773503 1.549085E-07 0
vn -0.5773503 1.549085E-07 0
vn 0 -0.0001997838 -0.5773503
vn 0 -0.0001997838 -0.5773503
vn 0 -0.0001997838 -0.5773503
vn 0 -0.0001997838 -0.5773503
vn 0 0.5773503 -0.0001986047
vn 0 0.5773503 -0.0001986047
vn 0 0.5773503 -0.0001986047
vn 0 0.5773503 -0.0001986047
vn 0 0.0001995179 0.5773503
vn 0 0.0001995179 0.5773503
vn 0 0.0001995179 0.5773503
vn 0 0.0001995179 0.5773503
vn 0 0.5773503 -0.0001995179
vn 0 0.5773503 -0.0001995179
vn 0 0.5773503 -0.0001995179
vn 0 0.5773503 -0.0001995179
vn 0 0.5773503 -0.0001983765
vn 0 0.5773503 -0.0001983765
vn 0 0.5773503 -0.0001983765
vn 0 0.5773503 -0.0001983765
vn 0 0.0001995179 0.5773503
vn 0 0.0001995179 0.5773503
vn 0 0.0001995179 0.5773503
vn 0 0.0001995179 0.5773503
vn 0 0.0001991917 0.5773503
vn 0 0.0001991917 0.5773503
vn 0 0.0001991917 0.5773503
vn 0 0.0001991917 0.5773503
vn 0 -0.0002001412 -0.5773503
vn 0 -0.0002001412 -0.5773503
vn 0 -0.0002001412 -0.5773503
vn 0 -0.0002001412 -0.5773503
vn 0 -0.0001995179 -0.5773503
vn 0 -0.0001995179 -0.5773503
vn 0 -0.0001995179 -0.5773503
vn 0 -0.0001995179 -0.5773503
vn 0 -0.0001987282 -0.5773503
vn 0 -0.0001987282 -0.5773503
vn 0 -0.0001987282 -0.5773503
vn 0 -0.0001987282 -0.5773503
vn 0 -0.5773503 0.0001986047
vn 0 -0.5773503 0.0001986047
vn 0 -0.5773503 0.0001986047
vn 0 -0.5773503 0.0001986047
vn 0 -0.0001995179 -0.5773503
vn 0 -0.0001995179 -0.5773503
vn 0 -0.0001995179 -0.5773503
vn 0 -0.0001995179 -0.5773503
vn 0 -0.5773503 0.0001983003
vn 0 -0.5773503 0.0001983003
vn 0 -0.5773503 0.0001983003
vn 0 -0.5773503 0.0001983003
vn 0 0.0001995179 0.5773503
vn 0 0.0001995179 0.5773503
vn 0 0.0001995179 0.5773503
vn 0 0.0001995179 0.5773503
vn 0 -0.0001995179 -0.5773503
vn 0 -0.0001995179 -0.5773503
vn 0 -0.0001995179 -0.5773503
vn 0 -0.0001995179 -0.5773503
vn 0 0.0001995179 0.5773503
vn 0 0.0001995179 0.5773503
vn 0 0.0001995179 0.5773503
vn 0 0.0001995179 0.5773503
vn 0 0.0001987601 0.5773503
vn 0 0.0001987601 0.5773503
vn 0 0.0001987601 0.5773503
vn 0 0.0001987601 0.5773503
vn 0 -0.0001995179 -0.5773503
vn 0 -0.0001995179 -0.5773503
vn 0 -0.0001995179 -0.5773503
vn 0 -0.0001995179 -0.5773503
vn 0 0.0001995179 0.5773503
vn 0 0.0001995179 0.5773503
vn 0 0.0001995179 0.5773503
vn 0 0.0001995179 0.5773503
vn -0.5773503 0 1.056555E-07
vn -0.5773503 0 1.056555E-07
vn -0.5773503 0 1.056555E-07
vn -0.5773503 0 1.056555E-07
vn 0 0.5773503 -0.0001995866
vn 0 0.5773503 -0.0001995866
vn 0 0.5773503 -0.0001995866
vn 0 0.5773503 -0.0001995866
vn 0 -0.5773503 0.0001995942
vn 0 -0.5773503 0.0001995942
vn 0 -0.5773503 0.0001995942
vn 0 -0.5773503 0.0001995942
vn -0.4315091 -0.3835793 0.0001326769
vn -0.4315091 -0.3835793 0.0001326769
vn -0.4315091 -0.3835793 0.0001326769
vn -0.4315091 -0.3835793 0.0001326769
vn -0.4315091 0.3835793 -0.0001325555
vn -0.4315091 0.3835793 -0.0001325555
vn -0.4315091 0.3835793 -0.0001325555
vn -0.4315091 0.3835793 -0.0001325555
vn -0.502346 9.834139E-05 0.284573
vn -0.502346 9.834139E-05 0.284573
vn -0.502346 9.834139E-05 0.284573
vn -0.502346 9.834139E-05 0.284573
vn -0.5023421 -9.834376E-05 -0.2845799
vn -0.5023421 -9.834376E-05 -0.2845799
vn -0.5023421 -9.834376E-05 -0.2845799
vn -0.5023421 -9.834376E-05 -0.2845799
vn 0.4315077 -0.383581 0.0001325561
vn 0.4315077 -0.383581 0.0001325561
vn 0.4315077 -0.383581 0.0001325561
vn 0.4315077 -0.383581 0.0001325561
vn 0.4315076 0.3835811 -0.0001326749
vn 0.4315076 0.3835811 -0.0001326749
vn 0.4315076 0.3835811 -0.0001326749
vn 0.4315076 0.3835811 -0.0001326749
vn 0.502346 9.834139E-05 0.284573
vn 0.502346 9.834139E-05 0.284573
vn 0.502346 9.834139E-05 0.284573
vn 0.502346 9.834139E-05 0.284573
vn 0.5023398 -9.834519E-05 -0.284584
vn 0.5023398 -9.834519E-05 -0.284584
vn 0.5023398 -9.834519E-05 -0.284584
vn 0.5023398 -9.834519E-05 -0.284584
vn 0 -0.4867806 0.3104479
vn 0 -0.4867806 0.3104479
vn 0 -0.4867806 0.3104479
vn 0 -0.4867806 0.3104479
vn 0 -0.4869932 -0.3101144
vn 0 -0.4869932 -0.3101144
vn 0 -0.4869932 -0.3101144
vn 0 -0.4869932 -0.3101144
vn 0 0.4867788 -0.3104509
vn 0 0.4867788 -0.3104509
vn 0 0.4867788 -0.3104509
vn 0 0.4867788 -0.3104509
vn 0 0.4869951 0.3101115
vn 0 0.4869951 0.3101115
vn 0 0.4869951 0.3101115
vn 0 0.4869951 0.3101115
vn 0.5773503 0 -9.851907E-08
vn 0.5773503 0 -9.851907E-08
vn 0.5773503 0 -9.851907E-08
vn 0.5773503 0 -9.851907E-08
vn -1.735867E-06 0.0001995179 0.5773503
vn -1.735867E-06 0.0001995179 0.5773503
vn -1.735867E-06 0.0001995179 0.5773503
vn -1.735867E-06 0.0001995179 0.5773503
vn 3.471734E-06 -0.0001995179 -0.5773503
vn 3.471734E-06 -0.0001995179 -0.5773503
vn 3.471734E-06 -0.0001995179 -0.5773503
vn 3.471734E-06 -0.0001995179 -0.5773503
vn 9.835664E-08 -0.5773503 0.0001995998
vn 9.835664E-08 -0.5773503 0.0001995998
vn 9.835664E-08 -0.5773503 0.0001995998
vn 9.835664E-08 -0.5773503 0.0001995998
vn 0 0.5773503 -0.000199594
vn 0 0.5773503 -0.000199594
vn 0 0.5773503 -0.000199594
vn 0 0.5773503 -0.000199594
vn -0.5773503 0 1.070924E-07
vn -0.5773503 0 1.070924E-07
vn -0.5773503 0 1.070924E-07
vn -0.5773503 0 1.070924E-07
vn 3.630826E-06 -0.0001995179 -0.5773503
vn 3.630826E-06 -0.0001995179 -0.5773503
vn 3.630826E-06 -0.0001995179 -0.5773503
vn 3.630826E-06 -0.0001995179 -0.5773503
vn 0.5773503 0 -1.1555E-07
vn 0.5773503 0 -1.1555E-07
vn 0.5773503 0 -1.1555E-07
vn 0.5773503 0 -1.1555E-07
vn -7.261653E-06 0.0001995179 0.5773503
vn -7.261653E-06 0.0001995179 0.5773503
vn -7.261653E-06 0.0001995179 0.5773503
vn -7.261653E-06 0.0001995179 0.5773503
vn -0.5773503 0 0
vn -0.5773503 0 0
vn -0.5773503 0 0
vn -0.5773503 0 0
vn -0.5773503 0 0
vn -0.5773503 0 0
vn -0.5773503 1.418675E-07 -1.816204E-06
vn -0.5773503 0 6.294122E-08
vn -0.5773503 1.418675E-07 -1.816204E-06
vn -0.5773503 0 0
vn -0.5773503 0 0
vn -0.5773503 0 0
vn -0.5773503 0 0
vn -0.5773503 0 6.294122E-08
vn -0.5773503 0 0
vn -0.5773503 0 3.681057E-07
vn -0.5773503 0 0
vn -0.5773503 0 0
vn -0.5773503 0 0
vn -0.5773503 0 3.681057E-07
vn -0.5773503 0 0
vn -0.5773503 0 0
vn -0.5773503 0 0
vn -0.5773503 0 0
vn -0.5773503 0 0
vn -0.5773503 0 0
vn -0.5773503 0 0
vn -0.5773503 0 0
vn -0.5773503 1.463117E-07 1.85657E-06
vn -0.5773503 1.463117E-07 1.85657E-06
vn -0.5773503 1.463117E-07 1.85657E-06
vn -0.5773503 1.450285E-07 -1.856671E-06
vn -0.5773503 1.450285E-07 -1.856671E-06
vn -0.5773503 0 -3.681066E-07
vn -0.5773503 0 3.681076E-07
vn -0.5773503 0 3.681076E-07
vn 0.5773503 0 -9.602459E-08
vn 0.5773503 0 -9.602459E-08
vn 0.5773503 0 -9.602459E-08
vn 0.5773503 0 -9.602459E-08
vn 0.5773503 0 -9.429194E-08
vn 0.5773503 0 -9.429194E-08
vn 0.5773503 0 -9.429194E-08
vn 0.5773503 0 -9.429194E-08
vn 0 0.5773503 -0.0001995891
vn 0 0.5773503 -0.0001995891
vn 0 0.5773503 -0.0001995891
vn 0 0.5773503 -0.0001995891
vn 0 0.5773503 -0.0001995891
vn 0 0.5773503 -0.0001995891
vn 0 0.5773503 -0.0001995891
vn 0 0.5773503 -0.0001995891
vt -1.014871 0.1805038
vt -1.02117 0.184514
vt -1.014873 0.1845162
vt 1.401415 0.1813387
vt 1.401414 0.1853516
vt 1.40771 0.1853535
vt 1.401335 0.4116187
vt 1.407634 0.4076077
vt 1.401336 0.4076057
vt -1.014951 0.4107832
vt -1.01495 0.4067705
vt -1.021246 0.4067684
vt -1.043797 0.2799317
vt -1.050242 0.2840423
vt -1.043795 0.2840401
vt 1.430179 0.2790765
vt 1.43018 0.2831846
vt 1.436628 0.2831824
vt 1.43026 0.5148538
vt 1.436706 0.5107433
vt 1.430259 0.5107454
vt -1.043715 0.5157092
vt -1.043717 0.5116006
vt -1.050164 0.5116029
vt 0.7213897 1.438021
vt 0.1476655 1.509875
vt 0.7213901 1.509875
vt 0.1476655 1.438021
vt 0.7213897 0.3223301
vt 0.1476655 0.3223301
vt 0.7213901 -0.8942115
vt 0.1476655 -0.8942115
vt 0.9286028 -0.822358
vt 0.9286034 -0.8942116
vt 0.3548786 -0.8942116
vt 0.3548786 -0.822358
vt 0.267865 -0.822358
vt 0.267865 -0.8942116
vt 0.267865 0.2933331
vt 0.3548786 0.2933331
vt 0.2678648 1.509875
vt 0.3548786 1.509875
vt -0.1920345 0.7613919
vt -0.1920345 1.003247
vt 0.38169 1.003247
vt 0.38169 0.7613919
vt -0.1920345 0.5245178
vt 0.4687039 0.7613919
vt 0.468704 1.003247
vt 0.4687039 0.5245178
vt 0.38169 0.5245178
vt -0.192035 0.3377205
vt 0.38169 0.3377205
vt 0.05598125 0.3695678
vt 0.6297055 0.556365
vt 0.629706 0.3695678
vt 0.05598125 0.5563653
vt 0.6297055 0.7932391
vt 0.05598125 0.7932391
vt 0.629706 1.035095
vt 0.05598125 1.035095
vt -0.03103229 1.035095
vt -0.03103229 0.7932391
vt -0.03103229 0.5563653
vt 0.7445758 1.438022
vt 0.6575623 1.509876
vt 0.7445758 1.509876
vt 0.6575623 1.438022
vt 0.7445758 0.3223304
vt 0.6575618 0.3223304
vt 0.7445758 -0.894213
vt 0.6575618 -0.894213
vt 0.3475637 1.291212
vt 0.7530963 1.291212
vt 0.7530962 0.2172862
vt 0.3475632 0.2172862
vt 0.6277003 0.7388331
vt 1.033233 0.7388331
vt 1.033233 -0.4359465
vt 0.6277003 -0.4359465
vt 0.2382999 1.291212
vt 0.6438329 1.291212
vt 0.6438332 0.2172859
vt 0.2383004 0.2172859
vt 0.7350266 1.041692
vt 1.14056 1.041692
vt 1.14056 -0.1330866
vt 0.7350266 -0.1330866
vt 0.6257634 1.041692
vt 1.031296 1.041692
vt 1.031296 -0.1330867
vt 0.6257634 -0.1330867
vt 0.3077144 1.50982
vt 0.5495699 1.509736
vt 0.5495449 1.437882
vt 0.3076896 1.437966
vt 0.5491596 0.3221914
vt 0.0708404 1.509902
vt 0.3073041 0.3222751
vt 0.07081546 1.438048
vt -0.1159569 1.509966
vt -0.1159817 1.438113
vt 0.07043009 0.3223575
vt 0.3068836 -0.8942662
vt -0.1163673 0.3224218
vt 0.07000947 -0.8941845
vt -0.1167877 -0.8941199
vt -0.8707004 0.2140256
vt -0.8707651 0.4008228
vt 0.3457771 0.4012434
vt 0.3458416 0.2144461
vt 1.461468 0.4016288
vt 1.461533 0.2148316
vt 1.533322 0.4016538
vt 1.533387 0.2148563
vt 0.6404485 0.7388057
vt 0.8507071 0.7388784
vt 0.8511133 -0.435901
vt 0.6408544 -0.4359734
vt 0.7522495 0.5018462
vt 0.752175 0.7170852
vt 0.7822638 0.7170955
vt 0.7823383 0.5018567
vt 0.7677053 0.5293265
vt 0.7676325 0.7395843
vt 0.7977215 0.7395946
vt 0.7977941 0.5293368
vt 0.6387464 0.9784271
vt 0.849005 0.9784994
vt 0.8493763 -0.09542632
vt 0.6391175 -0.09549892
vt 0.1680839 1.045316
vt 0.1680839 0.639783
vt -0.04715611 0.639783
vt -0.04715611 1.045316
vt 0.04621842 0.8720267
vt 0.04621842 0.4664939
vt 0.01612962 0.4664939
vt 0.01612962 0.8720267
vt 0.226787 1.045316
vt 0.226787 0.6397829
vt 0.01652833 0.6397829
vt 0.01652833 1.045316
vt 0.4568267 1.291212
vt 0.8623595 1.291212
vt 0.8623595 0.2172861
vt 0.456827 0.2172861
vt 0.03248056 0.872027
vt 0.03248056 0.4664947
vt 0.002391754 0.4664942
vt 0.002391754 0.872027
vt 0.2898068 1.045316
vt 0.2898068 0.639783
vt 0.07456679 0.639783
vt 0.07456679 1.045316
vt 0.3516344 1.04531
vt 0.3516344 0.639778
vt 0.1363943 0.639778
vt 0.1363943 1.045311
vt 0.5332528 1.149184
vt 0.5332528 0.7436513
vt 0.3180126 0.7436513
vt 0.3180126 1.149184
vt 0.4103374 1.045311
vt 0.4103376 0.6397781
vt 0.2000788 0.6397781
vt 0.2000788 1.045311
vt 0.5919559 1.149184
vt 0.5919559 0.7436517
vt 0.3816971 0.7436513
vt 0.3816971 1.149184
vt 0.02084725 0.9791647
vt 0.02084725 0.5736324
vt -0.009241891 0.5736324
vt -0.009241891 0.9791647
vt 0.6549756 1.149184
vt 0.6549756 0.7436513
vt 0.4397355 0.7436513
vt 0.4397355 1.149184
vt 0.03649712 0.979165
vt 0.03649712 0.5736321
vt 0.006408311 0.5736321
vt 0.006408311 0.979165
vt 0.4702329 1.149184
vt 0.4702329 0.7436512
vt 0.2599743 0.7436512
vt 0.2599743 1.149184
vt 0.7136785 1.149184
vt 0.7136787 0.7436513
vt 0.5034199 0.7436513
vt 0.5034199 1.149184
vt 0.7766986 1.149184
vt 0.7766986 0.7436513
vt 0.5614583 0.7436513
vt 0.5614586 1.149184
vt 0.8354017 1.149184
vt 0.8354017 0.7436512
vt 0.625143 0.7436516
vt 0.625143 1.149184
vt 0.7561145 0.7870426
vt 0.5352277 0.7870426
vt 0.5352277 0.7914685
vt 0.7561145 0.7914685
vt 0.7561114 0.7959159
vt 0.5352308 0.7959159
vt 0.5352308 0.8003417
vt 0.7561113 0.8003417
vt -1.014873 0.1845162
vt -1.01495 0.4067705
vt 1.401336 0.4076057
vt 1.401414 0.1853516
vt 1.394487 0.449861
vt -1.007994 0.4498607
vt -1.007995 0.4542887
vt 1.394487 0.4542891
vt 1.394513 0.4587338
vt -1.008021 0.4587342
vt -1.008021 0.4631622
vt 1.394513 0.4631618
vt 1.401414 0.1853516
vt 1.401415 0.1813387
vt -1.014871 0.1805038
vt -1.014873 0.1845162
vt -1.01495 0.4067705
vt -1.014951 0.4107832
vt 1.401335 0.4116187
vt 1.401336 0.4076057
vt 1.40771 0.1853535
vt 1.401414 0.1853516
vt 1.401336 0.4076057
vt 1.407634 0.4076077
vt -1.021246 0.4067684
vt -1.01495 0.4067705
vt -1.014873 0.1845162
vt -1.02117 0.184514
vt -1.043797 0.2799317
vt -1.043795 0.2840401
vt 1.43018 0.2831846
vt 1.430179 0.2790765
vt 1.43026 0.5148538
vt 1.430259 0.5107454
vt -1.043717 0.5116006
vt -1.043715 0.5157092
vt -1.043795 0.2840401
vt -1.050242 0.2840423
vt -1.050164 0.5116029
vt -1.043717 0.5116006
vt 1.430259 0.5107454
vt 1.436706 0.5107433
vt 1.436628 0.2831824
vt 1.43018 0.2831846
vt -1.008021 0.4587342
vt -1.01428 0.4587342
vt -1.01428 0.4631623
vt -1.008021 0.4631622
vt 1.394513 0.4631618
vt 1.400775 0.4631618
vt 1.400776 0.4587338
vt 1.394513 0.4587338
vt -1.007994 0.4498607
vt -1.014254 0.4498607
vt -1.014254 0.4542887
vt -1.007995 0.4542887
vt 1.394487 0.4542891
vt 1.400749 0.454289
vt 1.400749 0.4498611
vt 1.394487 0.449861
vt 1.38097 0.4136603
vt -0.9676625 0.4144721
vt -0.9675973 0.6017745
vt 1.381034 0.6009627
vt 0.5589466 0.8203537
vt 0.5589467 0.8865903
vt 0.7462491 0.8865903
vt 0.7462491 0.8203537
vt 0.5589467 0.7866355
vt 0.5589467 0.8528726
vt 0.7462491 0.8528726
vt 0.746249 0.7866355
vt -0.9676188 0.5328632
vt -0.9676188 0.5990996
vt 1.381015 0.5990997
vt 1.381017 0.5328626
vt -0.9245131 0.7595208
vt -0.9245131 0.7911884
vt 1.363091 0.7911887
vt 1.36309 0.7595211
vt 1.363054 0.810093
vt 1.36311 0.6469237
vt -0.9244996 0.646133
vt -0.9245549 0.8093023
vt 0.7391613 0.8837455
vt 0.5759922 0.8837456
vt 0.5759923 0.9154129
vt 0.7391613 0.915413
vt 1.36311 0.7347677
vt 1.363054 0.5715983
vt -0.9245559 0.5723891
vt -0.9244998 0.7355582
vt 0.5759922 0.895892
vt 0.7391614 0.8958921
vt 0.7391614 0.8642245
vt 0.5759921 0.8642245
vt 0.2890379 0.314314
vt 0.06049718 0.2933532
vt 0.07379768 0.31424
vt 0.3023529 0.2934368
vt 0.2886318 1.489093
vt 0.06007674 1.509896
vt 0.073812 0.2724747
vt 0.07418325 -0.8014522
vt 0.2890524 0.2725487
vt 0.07339155 1.48902
vt 0.3019322 1.50998
vt 0.3027383 -0.8222556
vt 0.2894235 -0.8013781
vt 0.06088275 -0.8223389
vt 0.07419774 -0.843217
vt 0.07420803 -0.8733059
vt 0.289438 -0.8431425
vt 0.3027633 -0.8941092
vt 0.2894483 -0.8732314
vt 0.06090752 -0.8941931
vt 0.04677624 1.489011
vt -0.1634827 1.488938
vt -0.1767977 1.509814
vt -0.1630767 0.3141581
vt -0.176377 0.2932707
vt 0.04718217 0.3142306
vt -0.1630622 0.2723932
vt 0.04719667 0.2724655
vt -0.1626911 -0.8015341
vt -0.1759916 -0.8224211
vt 0.04756794 -0.8014615
vt 0.04758224 -0.8432258
vt -0.1626766 -0.8432989
vt 0.04759252 -0.873315
vt -0.1626662 -0.8733877
vt -0.1759667 -0.8942747
vt 1.403047 0.3004895
vt 1.43018 0.2831846
vt -1.043795 0.2840401
vt -1.016649 0.3013259
vt 1.403114 0.4934593
vt -1.043717 0.5116006
vt 1.430259 0.5107454
vt -1.016582 0.4942957
vt 1.350502 0.5838657
vt 1.381014 0.5665811
vt -0.9676157 0.5665808
vt -0.9371036 0.5838655
vt 1.350502 0.6155331
vt -0.9676142 0.6328178
vt 1.381014 0.6328177
vt -0.9371024 0.6155326
usemtl DarkWoodSmooth
f 3/3/3 2/2/2 1/1/1
f 6/6/6 5/5/5 4/4/4
f 9/9/9 8/8/8 7/7/7
f 12/12/12 11/11/11 10/10/10
f 15/15/15 14/14/14 13/13/13
f 18/18/18 17/17/17 16/16/16
f 21/21/21 20/20/20 19/19/19
f 24/24/24 23/23/23 22/22/22
f 27/27/27 26/26/26 25/25/25
f 26/26/26 28/28/28 25/25/25
f 25/25/25 28/28/28 29/29/29
f 28/28/28 30/30/30 29/29/29
f 29/29/29 30/30/30 31/31/31
f 30/30/30 32/32/32 31/31/31
f 35/35/35 34/34/34 33/33/33
f 36/36/36 35/35/35 33/33/33
f 36/36/36 37/37/37 35/35/35
f 37/37/37 38/38/38 35/35/35
f 39/39/39 37/37/37 36/36/36
f 40/40/40 39/39/39 36/36/36
f 41/41/41 39/39/39 40/40/40
f 42/42/42 41/41/41 40/40/40
f 45/45/45 44/44/44 43/43/43
f 46/46/46 45/45/45 43/43/43
f 46/46/46 43/43/43 47/47/47
f 46/46/46 48/48/48 45/45/45
f 48/48/48 49/49/49 45/45/45
f 50/50/50 48/48/48 46/46/46
f 51/51/51 50/50/50 46/46/46
f 51/51/51 46/46/46 47/47/47
f 51/51/51 47/47/47 52/52/52
f 53/53/53 51/51/51 52/52/52
f 56/56/56 55/55/55 54/54/54
f 55/55/55 57/57/57 54/54/54
f 55/55/55 58/58/58 57/57/57
f 58/58/58 59/59/59 57/57/57
f 58/58/58 60/60/60 59/59/59
f 60/60/60 61/61/61 59/59/59
f 61/61/61 62/62/62 59/59/59
f 62/62/62 63/63/63 59/59/59
f 59/59/59 63/63/63 57/57/57
f 63/63/63 64/64/64 57/57/57
f 67/67/67 66/66/66 65/65/65
f 66/66/66 68/68/68 65/65/65
f 65/65/65 68/68/68 69/69/69
f 68/68/68 70/70/70 69/69/69
f 69/69/69 70/70/70 71/71/71
f 70/70/70 72/72/72 71/71/71
f 75/75/75 74/74/74 73/73/73
f 76/76/76 75/75/75 73/73/73
f 79/79/79 78/78/78 77/77/77
f 80/80/80 79/79/79 77/77/77
f 83/83/83 82/82/82 81/81/81
f 84/84/84 83/83/83 81/81/81
f 87/87/87 86/86/86 85/85/85
f 88/88/88 87/87/87 85/85/85
f 91/91/91 90/90/90 89/89/89
f 92/92/92 91/91/91 89/89/89
f 95/95/95 94/94/94 93/93/93
f 96/96/96 95/95/95 93/93/93
f 97/97/97 95/95/95 96/96/96
f 96/96/96 93/93/93 98/98/98
f 99/99/99 97/97/97 96/96/96
f 100/100/100 96/96/96 98/98/98
f 99/99/99 96/96/96 100/100/100
f 100/100/100 98/98/98 101/101/101
f 102/102/102 100/100/100 101/101/101
f 103/103/103 99/99/99 100/100/100
f 103/103/103 100/100/100 102/102/102
f 104/104/104 99/99/99 103/103/103
f 105/105/105 103/103/103 102/102/102
f 106/106/106 104/104/104 103/103/103
f 106/106/106 103/103/103 105/105/105
f 107/107/107 106/106/106 105/105/105
f 110/110/110 109/109/109 108/108/108
f 111/111/111 110/110/110 108/108/108
f 112/112/112 110/110/110 111/111/111
f 113/113/113 112/112/112 111/111/111
f 114/114/114 112/112/112 113/113/113
f 115/115/115 114/114/114 113/113/113
f 118/118/118 117/117/117 116/116/116
f 119/119/119 118/118/118 116/116/116
f 122/122/122 121/121/121 120/120/120
f 123/123/123 122/122/122 120/120/120
f 126/126/126 125/125/125 124/124/124
f 127/127/127 126/126/126 124/124/124
f 130/130/130 129/129/129 128/128/128
f 131/131/131 130/130/130 128/128/128
f 134/134/134 133/133/133 132/132/132
f 135/135/135 134/134/134 132/132/132
f 138/138/138 137/137/137 136/136/136
f 139/139/139 138/138/138 136/136/136
f 142/142/142 141/141/141 140/140/140
f 143/143/143 142/142/142 140/140/140
f 146/146/146 145/145/145 144/144/144
f 147/147/147 146/146/146 144/144/144
f 150/150/150 149/149/149 148/148/148
f 151/151/151 150/150/150 148/148/148
f 154/154/154 153/153/153 152/152/152
f 155/155/155 154/154/154 152/152/152
f 158/158/158 157/157/157 156/156/156
f 159/159/159 158/158/158 156/156/156
f 162/162/162 161/161/161 160/160/160
f 163/163/163 162/162/162 160/160/160
f 166/166/166 165/165/165 164/164/164
f 167/167/167 166/166/166 164/164/164
f 170/170/170 169/169/169 168/168/168
f 171/171/171 170/170/170 168/168/168
f 174/174/174 173/173/173 172/172/172
f 175/175/175 174/174/174 172/172/172
f 178/178/178 177/177/177 176/176/176
f 179/179/179 178/178/178 176/176/176
f 182/182/182 181/181/181 180/180/180
f 183/183/183 182/182/182 180/180/180
f 186/186/186 185/185/185 184/184/184
f 187/187/187 186/186/186 184/184/184
f 190/190/190 189/189/189 188/188/188
f 191/191/191 190/190/190 188/188/188
f 194/194/194 193/193/193 192/192/192
f 195/195/195 194/194/194 192/192/192
f 198/198/198 197/197/197 196/196/196
f 199/199/199 198/198/198 196/196/196
f 202/202/202 201/201/201 200/200/200
f 203/203/203 202/202/202 200/200/200
f 206/206/206 205/205/205 204/204/204
f 207/207/207 206/206/206 204/204/204
f 210/210/210 209/209/209 208/208/208
f 211/211/211 210/210/210 208/208/208
f 214/214/214 213/213/213 212/212/212
f 215/215/215 214/214/214 212/212/212
f 218/218/218 217/217/217 216/216/216
f 219/219/219 218/218/218 216/216/216
f 222/222/222 221/221/221 220/220/220
f 223/223/223 222/222/222 220/220/220
f 226/226/226 225/225/225 224/224/224
f 227/227/227 226/226/226 224/224/224
f 230/230/230 229/229/229 228/228/228
f 231/231/231 230/230/230 228/228/228
f 234/234/234 233/233/233 232/232/232
f 235/235/235 234/234/234 232/232/232
f 238/238/238 237/237/237 236/236/236
f 239/239/239 238/238/238 236/236/236
f 242/242/242 241/241/241 240/240/240
f 243/243/243 242/242/242 240/240/240
f 246/246/246 245/245/245 244/244/244
f 247/247/247 246/246/246 244/244/244
f 250/250/250 249/249/249 248/248/248
f 251/251/251 250/250/250 248/248/248
f 254/254/254 253/253/253 252/252/252
f 255/255/255 254/254/254 252/252/252
f 258/258/258 257/257/257 256/256/256
f 259/259/259 258/258/258 256/256/256
f 262/262/262 261/261/261 260/260/260
f 263/263/263 262/262/262 260/260/260
f 266/266/266 265/265/265 264/264/264
f 267/267/267 266/266/266 264/264/264
f 270/270/270 269/269/269 268/268/268
f 271/271/271 270/270/270 268/268/268
f 274/274/274 273/273/273 272/272/272
f 275/275/275 274/274/274 272/272/272
f 278/278/278 277/277/277 276/276/276
f 279/279/279 278/278/278 276/276/276
f 282/282/282 281/281/281 280/280/280
f 283/283/283 282/282/282 280/280/280
f 286/286/286 285/285/285 284/284/284
f 287/287/287 286/286/286 284/284/284
f 290/290/290 289/289/289 288/288/288
f 291/291/291 290/290/290 288/288/288
f 294/294/294 293/293/293 292/292/292
f 295/295/295 294/294/294 292/292/292
f 298/298/298 297/297/297 296/296/296
f 299/299/299 298/298/298 296/296/296
f 302/302/302 301/301/301 300/300/300
f 303/303/303 302/302/302 300/300/300
f 306/306/306 305/305/305 304/304/304
f 305/305/305 307/307/307 304/304/304
f 304/304/304 307/307/307 308/308/308
f 309/309/309 305/305/305 306/306/306
f 307/307/307 305/305/305 310/310/310
f 310/310/310 305/305/305 311/311/311
f 312/312/312 307/307/307 310/310/310
f 313/313/313 309/309/309 306/306/306
f 307/307/307 314/314/314 308/308/308
f 308/308/308 314/314/314 313/313/313
f 314/314/314 309/309/309 313/313/313
f 315/315/315 307/307/307 312/312/312
f 316/316/316 315/315/315 312/312/312
f 311/311/311 317/317/317 316/316/316
f 305/305/305 317/317/317 311/311/311
f 317/317/317 315/315/315 316/316/316
f 315/315/315 317/317/317 318/318/318
f 318/318/318 317/317/317 319/319/319
f 320/320/320 315/315/315 318/318/318
f 321/321/321 315/315/315 320/320/320
f 322/322/322 321/321/321 320/320/320
f 323/323/323 321/321/321 322/322/322
f 319/319/319 323/323/323 322/322/322
f 317/317/317 323/323/323 319/319/319
f 305/305/305 309/309/309 324/324/324
f 324/324/324 309/309/309 325/325/325
f 309/309/309 326/326/326 325/325/325
f 325/325/325 326/326/326 327/327/327
f 326/326/326 328/328/328 327/327/327
f 329/329/329 305/305/305 324/324/324
f 327/327/327 328/328/328 329/329/329
f 328/328/328 305/305/305 329/329/329
f 305/305/305 328/328/328 330/330/330
f 331/331/331 305/305/305 330/330/330
f 317/317/317 305/305/305 331/331/331
f 330/330/330 328/328/328 332/332/332
f 328/328/328 333/333/333 332/332/332
f 334/334/334 317/317/317 331/331/331
f 332/332/332 333/333/333 334/334/334
f 333/333/333 317/317/317 334/334/334
f 323/323/323 317/317/317 335/335/335
f 335/335/335 317/317/317 336/336/336
f 317/317/317 333/333/333 336/336/336
f 337/337/337 323/323/323 335/335/335
f 336/336/336 333/333/333 338/338/338
f 339/339/339 323/323/323 337/337/337
f 333/333/333 339/339/339 338/338/338
f 338/338/338 339/339/339 337/337/337
f 342/342/342 341/341/341 340/340/340
f 343/343/343 342/342/342 340/340/340
f 340/340/340 341/341/341 344/344/344
f 345/345/345 342/342/342 343/343/343
f 341/341/341 346/346/346 344/344/344
f 347/347/347 345/345/345 343/343/343
f 344/344/344 346/346/346 347/347/347
f 346/346/346 345/345/345 347/347/347
f 350/350/350 349/349/349 348/348/348
f 351/351/351 350/350/350 348/348/348
f 348/348/348 349/349/349 352/352/352
f 353/353/353 350/350/350 351/351/351
f 349/349/349 354/354/354 352/352/352
f 355/355/355 353/353/353 351/351/351
f 352/352/352 354/354/354 355/355/355
f 354/354/354 353/353/353 355/355/355
g CabinetMesh_2ace9b6a
v 1.3389 0.42534 1.5402
v 1.3389 0.42932 1.53394
v 1.33535 0.42933 1.5402
v 1.3389 0.42617 3.94152
v 1.33535 0.43016 3.94152
v 1.3389 0.43016 3.94777
v 1.3389 0.65502 3.94144
v 1.3389 0.65104 3.9477
v 1.33535 0.65103 3.94144
v 1.3389 0.65419 1.54012
v 1.33535 0.6502 1.54012
v 1.3389 0.6502 1.53386
v 1.34332 0.42617 3.94152
v 1.34332 0.43016 3.94777
v 1.34687 0.43016 3.94152
v 1.34332 0.42534 1.5402
v 1.34687 0.42933 1.5402
v 1.34332 0.42932 1.53394
v 1.34332 0.65419 1.54012
v 1.34332 0.6502 1.53386
v 1.34687 0.6502 1.54012
v 1.34332 0.65502 3.94144
v 1.34687 0.65103 3.94144
v 1.34332 0.65104 3.9477
v 1.99832 -0.00403 3.85696
v 1.4246 -0.00401 3.92882
v 1.99832 -0.00401 3.92882
v 1.4246 -0.00403 3.85696
v 1.99832 -0.00442 2.74127
v 1.4246 -0.00442 2.74127
v 1.99832 -0.00484 1.52473
v 1.4246 -0.00484 1.52473
v 1.99832 0.66149 3.85673
v 1.99832 0.66152 3.92859
v 1.4246 0.66152 3.92859
v 1.4246 0.66149 3.85673
v 1.33758 0.66149 3.85673
v 1.33758 0.66152 3.92859
v 1.33758 0.66111 2.74104
v 1.4246 0.66111 2.74104
v 1.33758 0.66069 1.5245
v 1.4246 0.66069 1.5245
v 1.99832 0.41883 1.52458
v 1.99832 0.66069 1.5245
v 1.4246 0.66069 1.5245
v 1.4246 0.41883 1.52458
v 1.99832 0.18196 1.52467
v 1.33758 0.41883 1.52458
v 1.33758 0.66069 1.5245
v 1.33758 0.18196 1.52467
v 1.4246 0.18196 1.52467
v 1.99832 -0.00484 1.52473
v 1.4246 -0.00484 1.52473
v 1.4246 -0.00401 3.92882
v 1.99832 0.18279 3.92875
v 1.99832 -0.00401 3.92882
v 1.4246 0.18279 3.92875
v 1.99832 0.41966 3.92867
v 1.4246 0.41966 3.92867
v 1.99832 0.66152 3.92859
v 1.4246 0.66152 3.92859
v 1.33758 0.66152 3.92859
v 1.33758 0.41966 3.92867
v 1.33758 0.18279 3.92875
v 1.4246 0.18276 3.8569
v 1.33758 0.18279 3.92875
v 1.4246 0.18279 3.92875
v 1.33758 0.18276 3.8569
v 1.4246 0.18238 2.74121
v 1.33758 0.18238 2.74121
v 1.4246 0.18196 1.52467
v 1.33758 0.18196 1.52467
v 1.33758 0.40632 3.83594
v 1.74312 0.40632 3.83594
v 1.74311 0.40595 2.76201
v 1.33758 0.40595 2.76201
v 1.33758 0.40594 2.72025
v 1.74311 0.40594 2.72025
v 1.74311 0.40553 1.54547
v 1.33758 0.40553 1.54547
v 1.33758 0.43257 2.762
v 1.74311 0.43257 2.762
v 1.74312 0.43294 3.83593
v 1.33758 0.43294 3.83593
v 1.33758 0.19527 1.54554
v 1.74311 0.19527 1.54554
v 1.74311 0.19568 2.72032
v 1.33758 0.19568 2.72032
v 1.33758 0.43215 1.54546
v 1.74311 0.43215 1.54546
v 1.74311 0.43255 2.72024
v 1.33758 0.43255 2.72024
v 1.99832 0.41966 3.92867
v 1.99832 0.66152 3.92859
v 1.99832 0.66149 3.85673
v 1.99832 0.41964 3.85682
v 1.99832 0.66111 2.74104
v 1.99832 0.18279 3.92875
v 1.99832 0.41925 2.74113
v 1.99832 0.18276 3.8569
v 1.99832 -0.00401 3.92882
v 1.99832 -0.00403 3.85696
v 1.99832 0.18238 2.74121
v 1.99832 0.41883 1.52458
v 1.99832 -0.00442 2.74127
v 1.99832 0.18196 1.52467
v 1.99832 -0.00484 1.52473
v 1.4246 -0.00484 1.52473
v 1.4246 0.18196 1.52467
v 1.4246 0.18238 2.74121
v 1.4246 -0.00442 2.74127
v 1.4246 0.18276 3.8569
v 1.4246 -0.00403 3.85696
v 1.4246 0.18279 3.92875
v 1.4246 -0.00401 3.92882
v 1.74311 0.19527 1.54554
v 1.74311 0.40553 1.54547
v 1.74311 0.40594 2.72025
v 1.74311 0.19568 2.72032
v 1.74312 0.43295 3.87769
v 1.74312 0.64819 3.87762
v 1.74312 0.6482 3.90771
v 1.74312 0.43296 3.90778
v 1.74311 0.19608 3.87778
v 1.74312 0.40634 3.8777
v 1.74312 0.40635 3.90779
v 1.74312 0.19609 3.90787
v 1.74311 0.19569 2.76209
v 1.74311 0.40595 2.76201
v 1.74312 0.40632 3.83594
v 1.74311 0.19606 3.83601
v 1.33758 0.43255 2.72024
v 1.74311 0.43255 2.72024
v 1.74311 0.64779 2.72016
v 1.33758 0.64779 2.72016
v 1.33758 0.43295 3.87769
v 1.74312 0.43295 3.87769
v 1.74312 0.43296 3.90778
v 1.33758 0.43296 3.90778
v 1.33758 0.40553 1.54547
v 1.74311 0.40553 1.54547
v 1.74311 0.19527 1.54554
v 1.33758 0.19527 1.54554
v 1.33758 0.19569 2.76209
v 1.74311 0.19569 2.76209
v 1.74311 0.19606 3.83601
v 1.33758 0.19606 3.83601
v 1.33758 0.19608 3.87778
v 1.74311 0.19608 3.87778
v 1.74312 0.19609 3.90787
v 1.33758 0.19609 3.90787
v 1.33758 0.64739 1.54539
v 1.74311 0.64739 1.54539
v 1.74311 0.43215 1.54546
v 1.33758 0.43215 1.54546
v 1.33758 0.64781 2.76193
v 1.74311 0.64781 2.76193
v 1.74311 0.43257 2.762
v 1.33758 0.43257 2.762
v 1.33758 0.43296 3.90778
v 1.74312 0.43296 3.90778
v 1.74312 0.6482 3.90771
v 1.33758 0.6482 3.90771
v 1.33758 0.19568 2.72032
v 1.74311 0.19568 2.72032
v 1.74311 0.40594 2.72025
v 1.33758 0.40594 2.72025
v 1.33758 0.19606 3.83601
v 1.74311 0.19606 3.83601
v 1.74312 0.40632 3.83594
v 1.33758 0.40632 3.83594
v 1.33758 0.40635 3.90779
v 1.74312 0.40635 3.90779
v 1.74312 0.40634 3.8777
v 1.33758 0.40634 3.8777
v 1.33758 0.43294 3.83593
v 1.74312 0.43294 3.83593
v 1.74312 0.64818 3.83586
v 1.33758 0.64818 3.83586
v 1.33758 0.6482 3.90771
v 1.74312 0.6482 3.90771
v 1.74312 0.64819 3.87762
v 1.33758 0.64819 3.87762
v 1.33758 0.40595 2.76201
v 1.74311 0.40595 2.76201
v 1.74311 0.19569 2.76209
v 1.33758 0.19569 2.76209
v 1.33758 0.19609 3.90787
v 1.74312 0.19609 3.90787
v 1.74312 0.40635 3.90779
v 1.33758 0.40635 3.90779
v 1.33758 0.64819 3.87762
v 1.74312 0.64819 3.87762
v 1.74312 0.43295 3.87769
v 1.33758 0.43295 3.87769
v 1.33758 0.40634 3.8777
v 1.74312 0.40634 3.8777
v 1.74311 0.19608 3.87778
v 1.33758 0.19608 3.87778
v 1.3389 0.6502 1.53386
v 1.3389 0.42932 1.53394
v 1.34332 0.42932 1.53394
v 1.34332 0.6502 1.53386
v 1.3389 0.43016 3.94777
v 1.3389 0.65104 3.9477
v 1.34332 0.65104 3.9477
v 1.34332 0.43016 3.94777
v 1.33535 0.42933 1.5402
v 1.33535 0.6502 1.54012
v 1.33535 0.65103 3.94144
v 1.33535 0.43016 3.94152
v 1.3389 0.65502 3.94144
v 1.3389 0.65419 1.54012
v 1.34332 0.65419 1.54012
v 1.34332 0.65502 3.94144
v 1.3389 0.42534 1.5402
v 1.3389 0.42617 3.94152
v 1.34332 0.42617 3.94152
v 1.34332 0.42534 1.5402
v 1.33535 0.43016 3.94152
v 1.3389 0.42617 3.94152
v 1.3389 0.42534 1.5402
v 1.33535 0.42933 1.5402
v 1.33535 0.6502 1.54012
v 1.3389 0.65419 1.54012
v 1.3389 0.65502 3.94144
v 1.33535 0.65103 3.94144
v 1.3389 0.43016 3.94777
v 1.33535 0.43016 3.94152
v 1.33535 0.65103 3.94144
v 1.3389 0.65104 3.9477
v 1.3389 0.6502 1.53386
v 1.33535 0.6502 1.54012
v 1.33535 0.42933 1.5402
v 1.3389 0.42932 1.53394
v 1.34332 0.42617 3.94152
v 1.34687 0.43016 3.94152
v 1.34687 0.42933 1.5402
v 1.34332 0.42534 1.5402
v 1.34332 0.65419 1.54012
v 1.34687 0.6502 1.54012
v 1.34687 0.65103 3.94144
v 1.34332 0.65502 3.94144
v 1.34687 0.43016 3.94152
v 1.34332 0.43016 3.94777
v 1.34332 0.65104 3.9477
v 1.34687 0.65103 3.94144
v 1.34687 0.6502 1.54012
v 1.34332 0.6502 1.53386
v 1.34332 0.42932 1.53394
v 1.34687 0.42933 1.5402
v 1.3389 0.42617 3.94152
v 1.3389 0.43016 3.94777
v 1.34332 0.43016 3.94777
v 1.34332 0.42617 3.94152
v 1.34332 0.42534 1.5402
v 1.34332 0.42932 1.53394
v 1.3389 0.42932 1.53394
v 1.3389 0.42534 1.5402
v 1.3389 0.65419 1.54012
v 1.3389 0.6502 1.53386
v 1.34332 0.6502 1.53386
v 1.34332 0.65419 1.54012
v 1.34332 0.65502 3.94144
v 1.34332 0.65104 3.9477
v 1.3389 0.65104 3.9477
v 1.3389 0.65502 3.94144
v 1.4131 0.44612 1.56654
v 1.41311 0.44693 3.91517
v 1.41311 0.63424 3.9151
v 1.4131 0.63343 1.56647
v 1.34687 0.63424 3.9151
v 1.41311 0.63424 3.9151
v 1.41311 0.44693 3.91517
v 1.34687 0.44693 3.91517
v 1.34687 0.44612 1.56653
v 1.4131 0.44612 1.56654
v 1.4131 0.63343 1.56647
v 1.34687 0.63343 1.56647
v 1.34687 0.44693 3.91517
v 1.41311 0.44693 3.91517
v 1.4131 0.44612 1.56654
v 1.34687 0.44612 1.56653
v 1.36415 0.47027 1.59704
v 1.39582 0.47027 1.59704
v 1.39582 0.47106 3.88465
v 1.36415 0.47106 3.88465
v 1.39582 0.63423 3.88459
v 1.39582 0.47106 3.88465
v 1.39582 0.47027 1.59704
v 1.39582 0.63344 1.59698
v 1.36415 0.63423 3.88459
v 1.36415 0.47106 3.88465
v 1.39582 0.47106 3.88465
v 1.39582 0.63423 3.88459
v 1.36415 0.63344 1.59698
v 1.36415 0.47027 1.59704
v 1.36415 0.47106 3.88465
v 1.36415 0.63423 3.88459
v 1.39582 0.63344 1.59698
v 1.39582 0.47027 1.59704
v 1.36415 0.47027 1.59704
v 1.36415 0.63344 1.59698
v 1.33758 0.64779 2.72016
v 1.33758 0.41925 2.74113
v 1.33758 0.43255 2.72024
v 1.33758 0.66111 2.74104
v 1.33758 0.64739 1.54539
v 1.33758 0.41883 1.52458
v 1.33758 0.43257 2.762
v 1.33758 0.43294 3.83593
v 1.33758 0.64781 2.76193
v 1.33758 0.43215 1.54546
v 1.33758 0.66069 1.5245
v 1.33758 0.66149 3.85673
v 1.33758 0.64818 3.83586
v 1.33758 0.41964 3.85682
v 1.33758 0.43295 3.87769
v 1.33758 0.43296 3.90778
v 1.33758 0.64819 3.87762
v 1.33758 0.66152 3.92859
v 1.33758 0.6482 3.90771
v 1.33758 0.41966 3.92867
v 1.33758 0.40553 1.54547
v 1.33758 0.19527 1.54554
v 1.33758 0.18196 1.52467
v 1.33758 0.19568 2.72032
v 1.33758 0.18238 2.74121
v 1.33758 0.40594 2.72025
v 1.33758 0.19569 2.76209
v 1.33758 0.40595 2.76201
v 1.33758 0.19606 3.83601
v 1.33758 0.18276 3.8569
v 1.33758 0.40632 3.83594
v 1.33758 0.40634 3.8777
v 1.33758 0.19608 3.87778
v 1.33758 0.40635 3.90779
v 1.33758 0.19609 3.90787
v 1.33758 0.18279 3.92875
v 1.34687 0.44612 1.56653
v 1.34687 0.42933 1.5402
v 1.34687 0.43016 3.94152
v 1.34687 0.44693 3.91517
v 1.34687 0.63343 1.56647
v 1.34687 0.65103 3.94144
v 1.34687 0.6502 1.54012
v 1.34687 0.63424 3.9151
v 1.36415 0.63423 3.88459
v 1.34687 0.63424 3.9151
v 1.34687 0.63343 1.56647
v 1.36415 0.63344 1.59698
v 1.39582 0.63423 3.88459
v 1.4131 0.63343 1.56647
v 1.41311 0.63424 3.9151
v 1.39582 0.63344 1.59698
vn -0.3973627 -0.3532976 -0.2249823
vn -0.3973627 -0.3532976 -0.2249823
vn -0.3973627 -0.3532976 -0.2249823
vn -0.3973578 -0.3531493 0.2252236
vn -0.3973578 -0.3531493 0.2252236
vn -0.3973578 -0.3531493 0.2252236
vn -0.3973578 0.3533049 0.2249795
vn -0.3973578 0.3533049 0.2249795
vn -0.3973578 0.3533049 0.2249795
vn -0.3973628 0.353142 -0.2252264
vn -0.3973628 0.353142 -0.2252264
vn -0.3973628 0.353142 -0.2252264
vn 0.3973578 -0.3531493 0.2252236
vn 0.3973578 -0.3531493 0.2252236
vn 0.3973578 -0.3531493 0.2252236
vn 0.397341 -0.3533251 -0.2249774
vn 0.397341 -0.3533251 -0.2249774
vn 0.397341 -0.3533251 -0.2249774
vn 0.397341 0.3531695 -0.2252215
vn 0.397341 0.3531695 -0.2252215
vn 0.397341 0.3531695 -0.2252215
vn 0.3973578 0.3533049 0.2249795
vn 0.3973578 0.3533049 0.2249795
vn 0.3973578 0.3533049 0.2249795
vn 0 -0.5773503 0.0001991355
vn 0 -0.5773503 0.0001991355
vn 0 -0.5773503 0.0001991355
vn 0 -0.5773503 0.0001991355
vn 0 -0.5773503 0.0001995179
vn 0 -0.5773503 0.0001995179
vn 0 -0.5773503 0.0001995179
vn 0 -0.5773503 0.0001995179
vn 0 0.5773503 -0.0001990081
vn 0 0.5773503 -0.0001990081
vn 0 0.5773503 -0.0001990081
vn 0 0.5773503 -0.0001990081
vn 0 0.5773503 -0.0001995179
vn 0 0.5773503 -0.0001990081
vn 0 0.5773503 -0.0001995179
vn 0 0.5773503 -0.0001995179
vn 0 0.5773503 -0.0001995179
vn 0 0.5773503 -0.0001995179
vn 0 -0.0001995179 -0.5773503
vn 0 -0.0001995179 -0.5773503
vn 0 -0.0001995179 -0.5773503
vn 0 -0.0001995179 -0.5773503
vn 0 -0.0001995179 -0.5773503
vn 0 -0.0001995179 -0.5773503
vn 0 -0.0001995179 -0.5773503
vn 0 -0.0001995179 -0.5773503
vn 0 -0.0001995179 -0.5773503
vn 0 -0.0001995179 -0.5773503
vn 0 -0.0001995179 -0.5773503
vn 0 0.0001995179 0.5773503
vn 0 0.0001995179 0.5773503
vn 0 0.0001995179 0.5773503
vn 0 0.0001995179 0.5773503
vn 0 0.0001995179 0.5773503
vn 0 0.0001995179 0.5773503
vn 0 0.0001995179 0.5773503
vn 0 0.0001995179 0.5773503
vn 0 0.0001995179 0.5773503
vn 0 0.0001995179 0.5773503
vn 0 0.0001995179 0.5773503
vn 0 -0.5773503 0.0001991355
vn 0 -0.5773503 0.0001991355
vn 0 -0.5773503 0.0001991355
vn 0 -0.5773503 0.0001991355
vn 0 -0.5773503 0.0001995179
vn 0 -0.5773503 0.0001995179
vn 0 -0.5773503 0.0001995631
vn 0 -0.5773503 0.0001995631
vn 0 -0.5773503 0.0001995179
vn 0 -0.5773503 0.0001995179
vn 0 -0.5773503 0.0001995179
vn 0 -0.5773503 0.0001995179
vn 0 -0.5773503 0.0001995647
vn 0 -0.5773503 0.0001995647
vn 0 -0.5773503 0.0001995647
vn 0 -0.5773503 0.0001995647
vn 0 0.5773503 -0.0001995179
vn 0 0.5773503 -0.0001995179
vn 0 0.5773503 -0.0001995179
vn 0 0.5773503 -0.0001995179
vn 0 0.5773503 -0.0001995628
vn 0 0.5773503 -0.0001995628
vn 0 0.5773503 -0.0001995628
vn 0 0.5773503 -0.0001995628
vn 0 0.5773503 -0.0001995647
vn 0 0.5773503 -0.0001995647
vn 0 0.5773503 -0.0001995647
vn 0 0.5773503 -0.0001995647
vn 0.5773503 0 -1.268582E-07
vn 0.5773503 0 -1.268582E-07
vn 0.5773503 0 -1.268582E-07
vn 0.5773503 0 -1.268582E-07
vn 0.5773503 0 0
vn 0.5773503 0 -1.173993E-06
vn 0.5773503 0 0
vn 0.5773503 0 0
vn 0.5773503 0 -1.173993E-06
vn 0.5773503 0 0
vn 0.5773503 0 0
vn 0.5773503 0 0
vn 0.5773503 0 0
vn 0.5773503 0 0
vn 0.5773503 0 0
vn -0.5773503 0 0
vn -0.5773503 0 0
vn -0.5773503 0 0
vn -0.5773503 0 0
vn -0.5773503 0 0
vn -0.5773503 0 0
vn -0.5773503 0 5.631443E-07
vn -0.5773503 0 5.631443E-07
vn -0.5773503 0 0
vn -0.5773503 0 0
vn -0.5773503 0 0
vn -0.5773503 0 0
vn -0.5773503 0 -1.103273E-06
vn -0.5773503 0 -1.103273E-06
vn -0.5773503 0 -1.103273E-06
vn -0.5773503 0 -1.103273E-06
vn -0.5773503 1.548323E-07 -1.620708E-07
vn -0.5773503 1.548323E-07 -1.620708E-07
vn -0.5773503 1.548323E-07 -1.620708E-07
vn -0.5773503 1.548323E-07 -1.620708E-07
vn -0.5773503 1.549085E-07 0
vn -0.5773503 1.549085E-07 0
vn -0.5773503 1.549085E-07 0
vn -0.5773503 1.549085E-07 0
vn 0 -0.0001997838 -0.5773503
vn 0 -0.0001997838 -0.5773503
vn 0 -0.0001997838 -0.5773503
vn 0 -0.0001997838 -0.5773503
vn 0 0.5773503 -0.0001986047
vn 0 0.5773503 -0.0001986047
vn 0 0.5773503 -0.0001986047
vn 0 0.5773503 -0.0001986047
vn 0 0.0001995179 0.5773503
vn 0 0.0001995179 0.5773503
vn 0 0.0001995179 0.5773503
vn 0 0.0001995179 0.5773503
vn 0 0.5773503 -0.0001995179
vn 0 0.5773503 -0.0001995179
vn 0 0.5773503 -0.0001995179
vn 0 0.5773503 -0.0001995179
vn 0 0.5773503 -0.0001983765
vn 0 0.5773503 -0.0001983765
vn 0 0.5773503 -0.0001983765
vn 0 0.5773503 -0.0001983765
vn 0 0.0001995179 0.5773503
vn 0 0.0001995179 0.5773503
vn 0 0.0001995179 0.5773503
vn 0 0.0001995179 0.5773503
vn 0 0.0001991917 0.5773503
vn 0 0.0001991917 0.5773503
vn 0 0.0001991917 0.5773503
vn 0 0.0001991917 0.5773503
vn 0 -0.0002001412 -0.5773503
vn 0 -0.0002001412 -0.5773503
vn 0 -0.0002001412 -0.5773503
vn 0 -0.0002001412 -0.5773503
vn 0 -0.0001995179 -0.5773503
vn 0 -0.0001995179 -0.5773503
vn 0 -0.0001995179 -0.5773503
vn 0 -0.0001995179 -0.5773503
vn 0 -0.0001987282 -0.5773503
vn 0 -0.0001987282 -0.5773503
vn 0 -0.0001987282 -0.5773503
vn 0 -0.0001987282 -0.5773503
vn 0 -0.5773503 0.0001986047
vn 0 -0.5773503 0.0001986047
vn 0 -0.5773503 0.0001986047
vn 0 -0.5773503 0.0001986047
vn 0 -0.0001995179 -0.5773503
vn 0 -0.0001995179 -0.5773503
vn 0 -0.0001995179 -0.5773503
vn 0 -0.0001995179 -0.5773503
vn 0 -0.5773503 0.0001983003
vn 0 -0.5773503 0.0001983003
vn 0 -0.5773503 0.0001983003
vn 0 -0.5773503 0.0001983003
vn 0 0.0001995179 0.5773503
vn 0 0.0001995179 0.5773503
vn 0 0.0001995179 0.5773503
vn 0 0.0001995179 0.5773503
vn 0 -0.0001995179 -0.5773503
vn 0 -0.0001995179 -0.5773503
vn 0 -0.0001995179 -0.5773503
vn 0 -0.0001995179 -0.5773503
vn 0 0.0001995179 0.5773503
vn 0 0.0001995179 0.5773503
vn 0 0.0001995179 0.5773503
vn 0 0.0001995179 0.5773503
vn 0 0.0001987601 0.5773503
vn 0 0.0001987601 0.5773503
vn 0 0.0001987601 0.5773503
vn 0 0.0001987601 0.5773503
vn 0 -0.0001995179 -0.5773503
vn 0 -0.0001995179 -0.5773503
vn 0 -0.0001995179 -0.5773503
vn 0 -0.0001995179 -0.5773503
vn 0 0.0001995179 0.5773503
vn 0 0.0001995179 0.5773503
vn 0 0.0001995179 0.5773503
vn 0 0.0001995179 0.5773503
vn -0.5773503 0 1.056555E-07
vn -0.5773503 0 1.056555E-07
vn -0.5773503 0 1.056555E-07
vn -0.5773503 0 1.056555E-07
vn 0 0.5773503 -0.0001995866
vn 0 0.5773503 -0.0001995866
vn 0 0.5773503 -0.0001995866
vn 0 0.5773503 -0.0001995866
vn 0 -0.5773503 0.0001995942
vn 0 -0.5773503 0.0001995942
vn 0 -0.5773503 0.0001995942
vn 0 -0.5773503 0.0001995942
vn -0.4315091 -0.3835793 0.0001326769
vn -0.4315091 -0.3835793 0.0001326769
vn -0.4315091 -0.3835793 0.0001326769
vn -0.4315091 -0.3835793 0.0001326769
vn -0.4315091 0.3835793 -0.0001325555
vn -0.4315091 0.3835793 -0.0001325555
vn -0.4315091 0.3835793 -0.0001325555
vn -0.4315091 0.3835793 -0.0001325555
vn -0.502346 9.834139E-05 0.284573
vn -0.502346 9.834139E-05 0.284573
vn -0.502346 9.834139E-05 0.284573
vn -0.502346 9.834139E-05 0.284573
vn -0.5023421 -9.834376E-05 -0.2845799
vn -0.5023421 -9.834376E-05 -0.2845799
vn -0.5023421 -9.834376E-05 -0.2845799
vn -0.5023421 -9.834376E-05 -0.2845799
vn 0.4315077 -0.383581 0.0001325561
vn 0.4315077 -0.383581 0.0001325561
vn 0.4315077 -0.383581 0.0001325561
vn 0.4315077 -0.383581 0.0001325561
vn 0.4315076 0.3835811 -0.0001326749
vn 0.4315076 0.3835811 -0.0001326749
vn 0.4315076 0.3835811 -0.0001326749
vn 0.4315076 0.3835811 -0.0001326749
vn 0.502346 9.834139E-05 0.284573
vn 0.502346 9.834139E-05 0.284573
vn 0.502346 9.834139E-05 0.284573
vn 0.502346 9.834139E-05 0.284573
vn 0.5023398 -9.834519E-05 -0.284584
vn 0.5023398 -9.834519E-05 -0.284584
vn 0.5023398 -9.834519E-05 -0.284584
vn 0.5023398 -9.834519E-05 -0.284584
vn 0 -0.4867806 0.3104479
vn 0 -0.4867806 0.3104479
vn 0 -0.4867806 0.3104479
vn 0 -0.4867806 0.3104479
vn 0 -0.4869932 -0.3101144
vn 0 -0.4869932 -0.3101144
vn 0 -0.4869932 -0.3101144
vn 0 -0.4869932 -0.3101144
vn 0 0.4867788 -0.3104509
vn 0 0.4867788 -0.3104509
vn 0 0.4867788 -0.3104509
vn 0 0.4867788 -0.3104509
vn 0 0.4869951 0.3101115
vn 0 0.4869951 0.3101115
vn 0 0.4869951 0.3101115
vn 0 0.4869951 0.3101115
vn 0.5773503 0 -9.851907E-08
vn 0.5773503 0 -9.851907E-08
vn 0.5773503 0 -9.851907E-08
vn 0.5773503 0 -9.851907E-08
vn -1.735867E-06 0.0001995179 0.5773503
vn -1.735867E-06 0.0001995179 0.5773503
vn -1.735867E-06 0.0001995179 0.5773503
vn -1.735867E-06 0.0001995179 0.5773503
vn 3.471734E-06 -0.0001995179 -0.5773503
vn 3.471734E-06 -0.0001995179 -0.5773503
vn 3.471734E-06 -0.0001995179 -0.5773503
vn 3.471734E-06 -0.0001995179 -0.5773503
vn 9.835664E-08 -0.5773503 0.0001995998
vn 9.835664E-08 -0.5773503 0.0001995998
vn 9.835664E-08 -0.5773503 0.0001995998
vn 9.835664E-08 -0.5773503 0.0001995998
vn 0 0.5773503 -0.000199594
vn 0 0.5773503 -0.000199594
vn 0 0.5773503 -0.000199594
vn 0 0.5773503 -0.000199594
vn -0.5773503 0 1.070924E-07
vn -0.5773503 0 1.070924E-07
vn -0.5773503 0 1.070924E-07
vn -0.5773503 0 1.070924E-07
vn 3.630826E-06 -0.0001995179 -0.5773503
vn 3.630826E-06 -0.0001995179 -0.5773503
vn 3.630826E-06 -0.0001995179 -0.5773503
vn 3.630826E-06 -0.0001995179 -0.5773503
vn 0.5773503 0 -1.1555E-07
vn 0.5773503 0 -1.1555E-07
vn 0.5773503 0 -1.1555E-07
vn 0.5773503 0 -1.1555E-07
vn -7.261653E-06 0.0001995179 0.5773503
vn -7.261653E-06 0.0001995179 0.5773503
vn -7.261653E-06 0.0001995179 0.5773503
vn -7.261653E-06 0.0001995179 0.5773503
vn -0.5773503 0 0
vn -0.5773503 0 0
vn -0.5773503 0 0
vn -0.5773503 0 0
vn -0.5773503 0 0
vn -0.5773503 0 0
vn -0.5773503 1.418675E-07 -1.816204E-06
vn -0.5773503 0 6.294122E-08
vn -0.5773503 1.418675E-07 -1.816204E-06
vn -0.5773503 0 0
vn -0.5773503 0 0
vn -0.5773503 0 0
vn -0.5773503 0 0
vn -0.5773503 0 6.294122E-08
vn -0.5773503 0 0
vn -0.5773503 0 3.681057E-07
vn -0.5773503 0 0
vn -0.5773503 0 0
vn -0.5773503 0 0
vn -0.5773503 0 3.681057E-07
vn -0.5773503 0 0
vn -0.5773503 0 0
vn -0.5773503 0 0
vn -0.5773503 0 0
vn -0.5773503 0 0
vn -0.5773503 0 0
vn -0.5773503 0 0
vn -0.5773503 0 0
vn -0.5773503 1.463117E-07 1.85657E-06
vn -0.5773503 1.463117E-07 1.85657E-06
vn -0.5773503 1.463117E-07 1.85657E-06
vn -0.5773503 1.450285E-07 -1.856671E-06
vn -0.5773503 1.450285E-07 -1.856671E-06
vn -0.5773503 0 -3.681066E-07
vn -0.5773503 0 3.681076E-07
vn -0.5773503 0 3.681076E-07
vn 0.5773503 0 -9.602459E-08
vn 0.5773503 0 -9.602459E-08
vn 0.5773503 0 -9.602459E-08
vn 0.5773503 0 -9.602459E-08
vn 0.5773503 0 -9.429194E-08
vn 0.5773503 0 -9.429194E-08
vn 0.5773503 0 -9.429194E-08
vn 0.5773503 0 -9.429194E-08
vn 0 0.5773503 -0.0001995891
vn 0 0.5773503 -0.0001995891
vn 0 0.5773503 -0.0001995891
vn 0 0.5773503 -0.0001995891
vn 0 0.5773503 -0.0001995891
vn 0 0.5773503 -0.0001995891
vn 0 0.5773503 -0.0001995891
vn 0 0.5773503 -0.0001995891
vt -1.014871 0.1805038
vt -1.02117 0.184514
vt -1.014873 0.1845162
vt 1.401415 0.1813387
vt 1.401414 0.1853516
vt 1.40771 0.1853535
vt 1.401335 0.4116187
vt 1.407634 0.4076077
vt 1.401336 0.4076057
vt -1.014951 0.4107832
vt -1.01495 0.4067705
vt -1.021246 0.4067684
vt -1.043797 0.2799317
vt -1.050242 0.2840423
vt -1.043795 0.2840401
vt 1.430179 0.2790765
vt 1.43018 0.2831846
vt 1.436628 0.2831824
vt 1.43026 0.5148538
vt 1.436706 0.5107433
vt 1.430259 0.5107454
vt -1.043715 0.5157092
vt -1.043717 0.5116006
vt -1.050164 0.5116029
vt 0.7213897 1.438021
vt 0.1476655 1.509875
vt 0.7213901 1.509875
vt 0.1476655 1.438021
vt 0.7213897 0.3223301
vt 0.1476655 0.3223301
vt 0.7213901 -0.8942115
vt 0.1476655 -0.8942115
vt 0.9286028 -0.822358
vt 0.9286034 -0.8942116
vt 0.3548786 -0.8942116
vt 0.3548786 -0.822358
vt 0.267865 -0.822358
vt 0.267865 -0.8942116
vt 0.267865 0.2933331
vt 0.3548786 0.2933331
vt 0.2678648 1.509875
vt 0.3548786 1.509875
vt -0.1920345 0.7613919
vt -0.1920345 1.003247
vt 0.38169 1.003247
vt 0.38169 0.7613919
vt -0.1920345 0.5245178
vt 0.4687039 0.7613919
vt 0.468704 1.003247
vt 0.4687039 0.5245178
vt 0.38169 0.5245178
vt -0.192035 0.3377205
vt 0.38169 0.3377205
vt 0.05598125 0.3695678
vt 0.6297055 0.556365
vt 0.629706 0.3695678
vt 0.05598125 0.5563653
vt 0.6297055 0.7932391
vt 0.05598125 0.7932391
vt 0.629706 1.035095
vt 0.05598125 1.035095
vt -0.03103229 1.035095
vt -0.03103229 0.7932391
vt -0.03103229 0.5563653
vt 0.7445758 1.438022
vt 0.6575623 1.509876
vt 0.7445758 1.509876
vt 0.6575623 1.438022
vt 0.7445758 0.3223304
vt 0.6575618 0.3223304
vt 0.7445758 -0.894213
vt 0.6575618 -0.894213
vt 0.3475637 1.291212
vt 0.7530963 1.291212
vt 0.7530962 0.2172862
vt 0.3475632 0.2172862
vt 0.6277003 0.7388331
vt 1.033233 0.7388331
vt 1.033233 -0.4359465
vt 0.6277003 -0.4359465
vt 0.2382999 1.291212
vt 0.6438329 1.291212
vt 0.6438332 0.2172859
vt 0.2383004 0.2172859
vt 0.7350266 1.041692
vt 1.14056 1.041692
vt 1.14056 -0.1330866
vt 0.7350266 -0.1330866
vt 0.6257634 1.041692
vt 1.031296 1.041692
vt 1.031296 -0.1330867
vt 0.6257634 -0.1330867
vt 0.3077144 1.50982
vt 0.5495699 1.509736
vt 0.5495449 1.437882
vt 0.3076896 1.437966
vt 0.5491596 0.3221914
vt 0.0708404 1.509902
vt 0.3073041 0.3222751
vt 0.07081546 1.438048
vt -0.1159569 1.509966
vt -0.1159817 1.438113
vt 0.07043009 0.3223575
vt 0.3068836 -0.8942662
vt -0.1163673 0.3224218
vt 0.07000947 -0.8941845
vt -0.1167877 -0.8941199
vt -0.8707004 0.2140256
vt -0.8707651 0.4008228
vt 0.3457771 0.4012434
vt 0.3458416 0.2144461
vt 1.461468 0.4016288
vt 1.461533 0.2148316
vt 1.533322 0.4016538
vt 1.533387 0.2148563
vt 0.6404485 0.7388057
vt 0.8507071 0.7388784
vt 0.8511133 -0.435901
vt 0.6408544 -0.4359734
vt 0.7522495 0.5018462
vt 0.752175 0.7170852
vt 0.7822638 0.7170955
vt 0.7823383 0.5018567
vt 0.7677053 0.5293265
vt 0.7676325 0.7395843
vt 0.7977215 0.7395946
vt 0.7977941 0.5293368
vt 0.6387464 0.9784271
vt 0.849005 0.9784994
vt 0.8493763 -0.09542632
vt 0.6391175 -0.09549892
vt 0.1680839 1.045316
vt 0.1680839 0.639783
vt -0.04715611 0.639783
vt -0.04715611 1.045316
vt 0.04621842 0.8720267
vt 0.04621842 0.4664939
vt 0.01612962 0.4664939
vt 0.01612962 0.8720267
vt 0.226787 1.045316
vt 0.226787 0.6397829
vt 0.01652833 0.6397829
vt 0.01652833 1.045316
vt 0.4568267 1.291212
vt 0.8623595 1.291212
vt 0.8623595 0.2172861
vt 0.456827 0.2172861
vt 0.03248056 0.872027
vt 0.03248056 0.4664947
vt 0.002391754 0.4664942
vt 0.002391754 0.872027
vt 0.2898068 1.045316
vt 0.2898068 0.639783
vt 0.07456679 0.639783
vt 0.07456679 1.045316
vt 0.3516344 1.04531
vt 0.3516344 0.639778
vt 0.1363943 0.639778
vt 0.1363943 1.045311
vt 0.5332528 1.149184
vt 0.5332528 0.7436513
vt 0.3180126 0.7436513
vt 0.3180126 1.149184
vt 0.4103374 1.045311
vt 0.4103376 0.6397781
vt 0.2000788 0.6397781
vt 0.2000788 1.045311
vt 0.5919559 1.149184
vt 0.5919559 0.7436517
vt 0.3816971 0.7436513
vt 0.3816971 1.149184
vt 0.02084725 0.9791647
vt 0.02084725 0.5736324
vt -0.009241891 0.5736324
vt -0.009241891 0.9791647
vt 0.6549756 1.149184
vt 0.6549756 0.7436513
vt 0.4397355 0.7436513
vt 0.4397355 1.149184
vt 0.03649712 0.979165
vt 0.03649712 0.5736321
vt 0.006408311 0.5736321
vt 0.006408311 0.979165
vt 0.4702329 1.149184
vt 0.4702329 0.7436512
vt 0.2599743 0.7436512
vt 0.2599743 1.149184
vt 0.7136785 1.149184
vt 0.7136787 0.7436513
vt 0.5034199 0.7436513
vt 0.5034199 1.149184
vt 0.7766986 1.149184
vt 0.7766986 0.7436513
vt 0.5614583 0.7436513
vt 0.5614586 1.149184
vt 0.8354017 1.149184
vt 0.8354017 0.7436512
vt 0.625143 0.7436516
vt 0.625143 1.149184
vt 0.7561145 0.7870426
vt 0.5352277 0.7870426
vt 0.5352277 0.7914685
vt 0.7561145 0.7914685
vt 0.7561114 0.7959159
vt 0.5352308 0.7959159
vt 0.5352308 0.8003417
vt 0.7561113 0.8003417
vt -1.014873 0.1845162
vt -1.01495 0.4067705
vt 1.401336 0.4076057
vt 1.401414 0.1853516
vt 1.394487 0.449861
vt -1.007994 0.4498607
vt -1.007995 0.4542887
vt 1.394487 0.4542891
vt 1.394513 0.4587338
vt -1.008021 0.4587342
vt -1.008021 0.4631622
vt 1.394513 0.4631618
vt 1.401414 0.1853516
vt 1.401415 0.1813387
vt -1.014871 0.1805038
vt -1.014873 0.1845162
vt -1.01495 0.4067705
vt -1.014951 0.4107832
vt 1.401335 0.4116187
vt 1.401336 0.4076057
vt 1.40771 0.1853535
vt 1.401414 0.1853516
vt 1.401336 0.4076057
vt 1.407634 0.4076077
vt -1.021246 0.4067684
vt -1.01495 0.4067705
vt -1.014873 0.1845162
vt -1.02117 0.184514
vt -1.043797 0.2799317
vt -1.043795 0.2840401
vt 1.43018 0.2831846
vt 1.430179 0.2790765
vt 1.43026 0.5148538
vt 1.430259 0.5107454
vt -1.043717 0.5116006
vt -1.043715 0.5157092
vt -1.043795 0.2840401
vt -1.050242 0.2840423
vt -1.050164 0.5116029
vt -1.043717 0.5116006
vt 1.430259 0.5107454
vt 1.436706 0.5107433
vt 1.436628 0.2831824
vt 1.43018 0.2831846
vt -1.008021 0.4587342
vt -1.01428 0.4587342
vt -1.01428 0.4631623
vt -1.008021 0.4631622
vt 1.394513 0.4631618
vt 1.400775 0.4631618
vt 1.400776 0.4587338
vt 1.394513 0.4587338
vt -1.007994 0.4498607
vt -1.014254 0.4498607
vt -1.014254 0.4542887
vt -1.007995 0.4542887
vt 1.394487 0.4542891
vt 1.400749 0.454289
vt 1.400749 0.4498611
vt 1.394487 0.449861
vt 1.38097 0.4136603
vt -0.9676625 0.4144721
vt -0.9675973 0.6017745
vt 1.381034 0.6009627
vt 0.5589466 0.8203537
vt 0.5589467 0.8865903
vt 0.7462491 0.8865903
vt 0.7462491 0.8203537
vt 0.5589467 0.7866355
vt 0.5589467 0.8528726
vt 0.7462491 0.8528726
vt 0.746249 0.7866355
vt -0.9676188 0.5328632
vt -0.9676188 0.5990996
vt 1.381015 0.5990997
vt 1.381017 0.5328626
vt -0.9245131 0.7595208
vt -0.9245131 0.7911884
vt 1.363091 0.7911887
vt 1.36309 0.7595211
vt 1.363054 0.810093
vt 1.36311 0.6469237
vt -0.9244996 0.646133
vt -0.9245549 0.8093023
vt 0.7391613 0.8837455
vt 0.5759922 0.8837456
vt 0.5759923 0.9154129
vt 0.7391613 0.915413
vt 1.36311 0.7347677
vt 1.363054 0.5715983
vt -0.9245559 0.5723891
vt -0.9244998 0.7355582
vt 0.5759922 0.895892
vt 0.7391614 0.8958921
vt 0.7391614 0.8642245
vt 0.5759921 0.8642245
vt 0.2890379 0.314314
vt 0.06049718 0.2933532
vt 0.07379768 0.31424
vt 0.3023529 0.2934368
vt 0.2886318 1.489093
vt 0.06007674 1.509896
vt 0.073812 0.2724747
vt 0.07418325 -0.8014522
vt 0.2890524 0.2725487
vt 0.07339155 1.48902
vt 0.3019322 1.50998
vt 0.3027383 -0.8222556
vt 0.2894235 -0.8013781
vt 0.06088275 -0.8223389
vt 0.07419774 -0.843217
vt 0.07420803 -0.8733059
vt 0.289438 -0.8431425
vt 0.3027633 -0.8941092
vt 0.2894483 -0.8732314
vt 0.06090752 -0.8941931
vt 0.04677624 1.489011
vt -0.1634827 1.488938
vt -0.1767977 1.509814
vt -0.1630767 0.3141581
vt -0.176377 0.2932707
vt 0.04718217 0.3142306
vt -0.1630622 0.2723932
vt 0.04719667 0.2724655
vt -0.1626911 -0.8015341
vt -0.1759916 -0.8224211
vt 0.04756794 -0.8014615
vt 0.04758224 -0.8432258
vt -0.1626766 -0.8432989
vt 0.04759252 -0.873315
vt -0.1626662 -0.8733877
vt -0.1759667 -0.8942747
vt 1.403047 0.3004895
vt 1.43018 0.2831846
vt -1.043795 0.2840401
vt -1.016649 0.3013259
vt 1.403114 0.4934593
vt -1.043717 0.5116006
vt 1.430259 0.5107454
vt -1.016582 0.4942957
vt 1.350502 0.5838657
vt 1.381014 0.5665811
vt -0.9676157 0.5665808
vt -0.9371036 0.5838655
vt 1.350502 0.6155331
vt -0.9676142 0.6328178
vt 1.381014 0.6328177
vt -0.9371024 0.6155326
usemtl DarkWoodSmooth
f 358/358/358 357/357/357 356/356/356
f 361/361/361 360/360/360 359/359/359
f 364/364/364 363/363/363 362/362/362
f 367/367/367 366/366/366 365/365/365
f 370/370/370 369/369/369 368/368/368
f 373/373/373 372/372/372 371/371/371
f 376/376/376 375/375/375 374/374/374
f 379/379/379 378/378/378 377/377/377
f 382/382/382 381/381/381 380/380/380
f 381/381/381 383/383/383 380/380/380
f 380/380/380 383/383/383 384/384/384
f 383/383/383 385/385/385 384/384/384
f 384/384/384 385/385/385 386/386/386
f 385/385/385 387/387/387 386/386/386
f 390/390/390 389/389/389 388/388/388
f 391/391/391 390/390/390 388/388/388
f 391/391/391 392/392/392 390/390/390
f 392/392/392 393/393/393 390/390/390
f 394/394/394 392/392/392 391/391/391
f 395/395/395 394/394/394 391/391/391
f 396/396/396 394/394/394 395/395/395
f 397/397/397 396/396/396 395/395/395
f 400/400/400 399/399/399 398/398/398
f 401/401/401 400/400/400 398/398/398
f 401/401/401 398/398/398 402/402/402
f 401/401/401 403/403/403 400/400/400
f 403/403/403 404/404/404 400/400/400
f 405/405/405 403/403/403 401/401/401
f 406/406/406 405/405/405 401/401/401
f 406/406/406 401/401/401 402/402/402
f 406/406/406 402/402/402 407/407/407
f 408/408/408 406/406/406 407/407/407
f 411/411/411 410/410/410 409/409/409
f 410/410/410 412/412/412 409/409/409
f 410/410/410 413/413/413 412/412/412
f 413/413/413 414/414/414 412/412/412
f 413/413/413 415/415/415 414/414/414
f 415/415/415 416/416/416 414/414/414
f 416/416/416 417/417/417 414/414/414
f 417/417/417 418/418/418 414/414/414
f 414/414/414 418/418/418 412/412/412
f 418/418/418 419/419/419 412/412/412
f 422/422/422 421/421/421 420/420/420
f 421/421/421 423/423/423 420/420/420
f 420/420/420 423/423/423 424/424/424
f 423/423/423 425/425/425 424/424/424
f 424/424/424 425/425/425 426/426/426
f 425/425/425 427/427/427 426/426/426
f 430/430/430 429/429/429 428/428/428
f 431/431/431 430/430/430 428/428/428
f 434/434/434 433/433/433 432/432/432
f 435/435/435 434/434/434 432/432/432
f 438/438/438 437/437/437 436/436/436
f 439/439/439 438/438/438 436/436/436
f 442/442/442 441/441/441 440/440/440
f 443/443/443 442/442/442 440/440/440
f 446/446/446 445/445/445 444/444/444
f 447/447/447 446/446/446 444/444/444
f 450/450/450 449/449/449 448/448/448
f 451/451/451 450/450/450 448/448/448
f 452/452/452 450/450/450 451/451/451
f 451/451/451 448/448/448 453/453/453
f 454/454/454 452/452/452 451/451/451
f 455/455/455 451/451/451 453/453/453
f 454/454/454 451/451/451 455/455/455
f 455/455/455 453/453/453 456/456/456
f 457/457/457 455/455/455 456/456/456
f 458/458/458 454/454/454 455/455/455
f 458/458/458 455/455/455 457/457/457
f 459/459/459 454/454/454 458/458/458
f 460/460/460 458/458/458 457/457/457
f 461/461/461 459/459/459 458/458/458
f 461/461/461 458/458/458 460/460/460
f 462/462/462 461/461/461 460/460/460
f 465/465/465 464/464/464 463/463/463
f 466/466/466 465/465/465 463/463/463
f 467/467/467 465/465/465 466/466/466
f 468/468/468 467/467/467 466/466/466
f 469/469/469 467/467/467 468/468/468
f 470/470/470 469/469/469 468/468/468
f 473/473/473 472/472/472 471/471/471
f 474/474/474 473/473/473 471/471/471
f 477/477/477 476/476/476 475/475/475
f 478/478/478 477/477/477 475/475/475
f 481/481/481 480/480/480 479/479/479
f 482/482/482 481/481/481 479/479/479
f 485/485/485 484/484/484 483/483/483
f 486/486/486 485/485/485 483/483/483
f 489/489/489 488/488/488 487/487/487
f 490/490/490 489/489/489 487/487/487
f 493/493/493 492/492/492 491/491/491
f 494/494/494 493/493/493 491/491/491
f 497/497/497 496/496/496 495/495/495
f 498/498/498 497/497/497 495/495/495
f 501/501/501 500/500/500 499/499/499
f 502/502/502 501/501/501 499/499/499
f 505/505/505 504/504/504 503/503/503
f 506/506/506 505/505/505 503/503/503
f 509/509/509 508/508/508 507/507/507
f 510/510/510 509/509/509 507/507/507
f 513/513/513 512/512/512 511/511/511
f 514/514/514 513/513/513 511/511/511
f 517/517/517 516/516/516 515/515/515
f 518/518/518 517/517/517 515/515/515
f 521/521/521 520/520/520 519/519/519
f 522/522/522 521/521/521 519/519/519
f 525/525/525 524/524/524 523/523/523
f 526/526/526 525/525/525 523/523/523
f 529/529/529 528/528/528 527/527/527
f 530/530/530 529/529/529 527/527/527
f 533/533/533 532/532/532 531/531/531
f 534/534/534 533/533/533 531/531/531
f 537/537/537 536/536/536 535/535/535
f 538/538/538 537/537/537 535/535/535
f 541/541/541 540/540/540 539/539/539
f 542/542/542 541/541/541 539/539/539
f 545/545/545 544/544/544 543/543/543
f 546/546/546 545/545/545 543/543/543
f 549/549/549 548/548/548 547/547/547
f 550/550/550 549/549/549 547/547/547
f 553/553/553 552/552/552 551/551/551
f 554/554/554 553/553/553 551/551/551
f 557/557/557 556/556/556 555/555/555
f 558/558/558 557/557/557 555/555/555
f 561/561/561 560/560/560 559/559/559
f 562/562/562 561/561/561 559/559/559
f 565/565/565 564/564/564 563/563/563
f 566/566/566 565/565/565 563/563/563
f 569/569/569 568/568/568 567/567/567
f 570/570/570 569/569/569 567/567/567
f 573/573/573 572/572/572 571/571/571
f 574/574/574 573/573/573 571/571/571
f 577/577/577 576/576/576 575/575/575
f 578/578/578 577/577/577 575/575/575
f 581/581/581 580/580/580 579/579/579
f 582/582/582 581/581/581 579/579/579
f 585/585/585 584/584/584 583/583/583
f 586/586/586 585/585/585 583/583/583
f 589/589/589 588/588/588 587/587/587
f 590/590/590 589/589/589 587/587/587
f 593/593/593 592/592/592 591/591/591
f 594/594/594 593/593/593 591/591/591
f 597/597/597 596/596/596 595/595/595
f 598/598/598 597/597/597 595/595/595
f 601/601/601 600/600/600 599/599/599
f 602/602/602 601/601/601 599/599/599
f 605/605/605 604/604/604 603/603/603
f 606/606/606 605/605/605 603/603/603
f 609/609/609 608/608/608 607/607/607
f 610/610/610 609/609/609 607/607/607
f 613/613/613 612/612/612 611/611/611
f 614/614/614 613/613/613 611/611/611
f 617/617/617 616/616/616 615/615/615
f 618/618/618 617/617/617 615/615/615
f 621/621/621 620/620/620 619/619/619
f 622/622/622 621/621/621 619/619/619
f 625/625/625 624/624/624 623/623/623
f 626/626/626 625/625/625 623/623/623
f 629/629/629 628/628/628 627/627/627
f 630/630/630 629/629/629 627/627/627
f 633/633/633 632/632/632 631/631/631
f 634/634/634 633/633/633 631/631/631
f 637/637/637 636/636/636 635/635/635
f 638/638/638 637/637/637 635/635/635
f 641/641/641 640/640/640 639/639/639
f 642/642/642 641/641/641 639/639/639
f 645/645/645 644/644/644 643/643/643
f 646/646/646 645/645/645 643/643/643
f 649/649/649 648/648/648 647/647/647
f 650/650/650 649/649/649 647/647/647
f 653/653/653 652/652/652 651/651/651
f 654/654/654 653/653/653 651/651/651
f 657/657/657 656/656/656 655/655/655
f 658/658/658 657/657/657 655/655/655
f 661/661/661 660/660/660 659/659/659
f 660/660/660 662/662/662 659/659/659
f 659/659/659 662/662/662 663/663/663
f 664/664/664 660/660/660 661/661/661
f 662/662/662 660/660/660 665/665/665
f 665/665/665 660/660/660 666/666/666
f 667/667/667 662/662/662 665/665/665
f 668/668/668 664/664/664 661/661/661
f 662/662/662 669/669/669 663/663/663
f 663/663/663 669/669/669 668/668/668
f 669/669/669 664/664/664 668/668/668
f 670/670/670 662/662/662 667/667/667
f 671/671/671 670/670/670 667/667/667
f 666/666/666 672/672/672 671/671/671
f 660/660/660 672/672/672 666/666/666
f 672/672/672 670/670/670 671/671/671
f 670/670/670 672/672/672 673/673/673
f 673/673/673 672/672/672 674/674/674
f 675/675/675 670/670/670 673/673/673
f 676/676/676 670/670/670 675/675/675
f 677/677/677 676/676/676 675/675/675
f 678/678/678 676/676/676 677/677/677
f 674/674/674 678/678/678 677/677/677
f 672/672/672 678/678/678 674/674/674
f 660/660/660 664/664/664 679/679/679
f 679/679/679 664/664/664 680/680/680
f 664/664/664 681/681/681 680/680/680
f 680/680/680 681/681/681 682/682/682
f 681/681/681 683/683/683 682/682/682
f 684/684/684 660/660/660 679/679/679
f 682/682/682 683/683/683 684/684/684
f 683/683/683 660/660/660 684/684/684
f 660/660/660 683/683/683 685/685/685
f 686/686/686 660/660/660 685/685/685
f 672/672/672 660/660/660 686/686/686
f 685/685/685 683/683/683 687/687/687
f 683/683/683 688/688/688 687/687/687
f 689/689/689 672/672/672 686/686/686
f 687/687/687 688/688/688 689/689/689
f 688/688/688 672/672/672 689/689/689
f 678/678/678 672/672/672 690/690/690
f 690/690/690 672/672/672 691/691/691
f 672/672/672 688/688/688 691/691/691
f 692/692/692 678/678/678 690/690/690
f 691/691/691 688/688/688 693/693/693
f 694/694/694 678/678/678 692/692/692
f 688/688/688 694/694/694 693/693/693
f 693/693/693 694/694/694 692/692/692
f 697/697/697 696/696/696 695/695/695
f 698/698/698 697/697/697 695/695/695
f 695/695/695 696/696/696 699/699/699
f 700/700/700 697/697/697 698/698/698
f 696/696/696 701/701/701 699/699/699
f 702/702/702 700/700/700 698/698/698
f 699/699/699 701/701/701 702/702/702
f 701/701/701 700/700/700 702/702/702
f 705/705/705 704/704/704 703/703/703
f 706/706/706 705/705/705 703/703/703
f 703/703/703 704/704/704 707/707/707
f 708/708/708 705/705/705 706/706/706
f 704/704/704 709/709/709 707/707/707
f 710/710/710 708/708/708 706/706/706
f 707/707/707 709/709/709 710/710/710
f 709/709/709 708/708/708 710/710/710
