mtllib Cabinet_25953f8e.mtl
g ClosetDoorMesh_4cb3f6af
v -0.03929 1.40958 0.00757
v -0.03536 1.41454 0.01265
v -0.47792 1.41992 0.01266
v -0.03929 1.40958 0.00757
v -0.47792 1.41992 0.01266
v -0.47398 1.41491 0.00757
v -0.51328 -1.45901 -0.01266
v -0.51328 1.46467 -0.01165
v 0 1.45903 -0.01165
v 0 -1.45901 -0.01266
v -0.47792 1.41992 0.01266
v -0.50836 -1.45282 0.01166
v -0.47792 -1.41441 0.01168
v -0.50835 1.45843 0.01267
v -0.03536 1.41454 0.01265
v -0.00491 1.45283 0.01267
v -0.51328 1.46467 -0.01165
v -0.51328 1.46467 0.00653
v 0 1.45902 0.00653
v 0 1.45903 -0.01165
v 0 -1.45901 -0.01266
v 0 -1.45902 0.00552
v -0.51328 -1.45902 0.00552
v -0.51328 -1.45901 -0.01266
v -0.03536 -1.41441 0.01168
v -0.00491 1.45283 0.01267
v -0.03536 1.41454 0.01265
v -0.00491 -1.45282 0.01166
v -0.47792 -1.41441 0.01168
v -0.50836 -1.45282 0.01166
v -0.03929 1.40958 0.00757
v -0.03929 1.40958 -0.00067
v -0.03929 -1.40942 -0.00165
v -0.03929 -1.40942 0.0066
v 0 1.45903 -0.01165
v 0 1.45902 0.00653
v 0 -1.45902 0.00552
v 0 -1.45901 -0.01266
v -0.47398 1.41491 0.00757
v -0.47398 1.41492 -0.00067
v -0.03929 1.40958 -0.00067
v -0.03929 1.40958 0.00757
v -0.47398 -1.40942 0.0066
v -0.47398 -1.40942 -0.00165
v -0.47398 1.41492 -0.00067
v -0.47398 1.41491 0.00757
v -0.47398 -1.40942 -0.00165
v -0.03929 -1.40942 -0.00165
v -0.03929 1.40958 -0.00067
v -0.47398 1.41492 -0.00067
v -0.51328 -1.45901 -0.01266
v -0.51328 -1.45902 0.00552
v -0.51328 1.46467 0.00653
v -0.51328 1.46467 -0.01165
v -0.03536 -1.41441 0.01168
v -0.03929 -1.40942 0.0066
v -0.47398 -1.40942 0.0066
v -0.47792 -1.41441 0.01168
v -0.03536 1.41454 0.01265
v -0.03929 1.40958 0.00757
v -0.03929 -1.40942 0.0066
v -0.03536 -1.41441 0.01168
v -0.47398 1.41491 0.00757
v -0.47792 1.41992 0.01266
v -0.47792 -1.41441 0.01168
v -0.47398 -1.40942 0.0066
v -0.03929 -1.40942 0.0066
v -0.03929 -1.40942 -0.00165
v -0.47398 -1.40942 -0.00165
v -0.47398 -1.40942 0.0066
v 0 -1.45902 0.00552
v -0.00491 -1.45282 0.01166
v -0.50836 -1.45282 0.01166
v -0.51328 -1.45902 0.00552
v 0 1.45902 0.00653
v -0.00491 1.45283 0.01267
v -0.00491 -1.45282 0.01166
v 0 -1.45902 0.00552
v -0.00491 1.45283 0.01267
v 0 1.45902 0.00653
v -0.51328 1.46467 0.00653
v -0.50835 1.45843 0.01267
v -0.50835 1.45843 0.01267
v -0.51328 1.46467 0.00653
v -0.51328 -1.45902 0.00552
v -0.50836 -1.45282 0.01166
v -0.5062 0.08896 0.01838
v -0.5051 0.08896 0.01425
v -0.5051 0.08442 0.01425
v -0.5062 0.08442 0.01838
v -0.5051 0.08896 0.02251
v -0.5051 -0.01259 0.01422
v -0.5051 0.08442 0.02251
v -0.5062 -0.01259 0.01835
v -0.5051 -0.01961 0.01421
v -0.5051 -0.0126 0.02247
v -0.5062 -0.01961 0.01834
v -0.5051 -0.01961 0.02247
v -0.50208 0.08896 0.02553
v -0.5051 0.08896 0.02251
v -0.5051 0.08442 0.02251
v -0.50208 0.08442 0.02553
v -0.5051 -0.0126 0.02247
v -0.50208 -0.0126 0.0255
v -0.5051 -0.01961 0.02247
v -0.50208 -0.01961 0.02549
v -0.49795 0.08896 0.02664
v -0.50208 0.08896 0.02553
v -0.50208 0.08442 0.02553
v -0.49795 0.08442 0.02663
v -0.49382 0.08896 0.02553
v -0.50208 -0.0126 0.0255
v -0.49382 0.08442 0.02553
v -0.4908 0.08896 0.02251
v -0.4908 0.08442 0.02251
v -0.49795 -0.0126 0.0266
v -0.50208 -0.01961 0.02549
v -0.49795 -0.01961 0.0266
v -0.49382 -0.0126 0.0255
v -0.4908 -0.0126 0.02247
v -0.49382 -0.01961 0.02549
v -0.4908 -0.01961 0.02247
v -0.5051 -0.01259 0.01422
v -0.50208 -0.0196 0.01119
v -0.5051 -0.01961 0.01421
v -0.50208 -0.01259 0.01119
v -0.5051 0.08442 0.01425
v -0.49795 -0.0196 0.01009
v -0.50208 0.08442 0.01123
v -0.5051 0.08896 0.01425
v -0.50208 0.08896 0.01123
v -0.49795 -0.01259 0.01009
v -0.49382 -0.0196 0.01119
v -0.49382 -0.01259 0.01119
v -0.49795 0.08442 0.01012
v -0.49795 0.08896 0.01012
v -0.49382 0.08442 0.01123
v -0.49382 0.08896 0.01123
v -0.49382 0.08896 0.01123
v -0.4908 0.08896 0.01425
v -0.4908 0.08442 0.01425
v -0.49382 0.08442 0.01123
v -0.4908 -0.01259 0.01422
v -0.49382 -0.01259 0.01119
v -0.4908 -0.01961 0.01421
v -0.49382 -0.0196 0.01119
v -0.48969 0.08896 0.01838
v -0.4908 0.08896 0.02251
v -0.4908 0.08442 0.02251
v -0.48969 0.08442 0.01838
v -0.4908 0.08896 0.01425
v -0.4908 -0.0126 0.02247
v -0.4908 0.08442 0.01425
v -0.48969 -0.01259 0.01835
v -0.4908 -0.01961 0.02247
v -0.4908 -0.01259 0.01422
v -0.48969 -0.01961 0.01834
v -0.4908 -0.01961 0.01421
v -0.4908 -0.01961 0.01421
v -0.48969 -0.01961 0.01834
v -0.4908 -0.01961 0.02247
v -0.49382 -0.0196 0.01119
v -0.49382 -0.01961 0.02549
v -0.49795 -0.0196 0.01009
v -0.49795 -0.01961 0.0266
v -0.50208 -0.0196 0.01119
v -0.50208 -0.01961 0.02549
v -0.5051 -0.01961 0.01421
v -0.5051 -0.01961 0.02247
v -0.5062 -0.01961 0.01834
v -0.4908 0.08896 0.02251
v -0.48969 0.08896 0.01838
v -0.4908 0.08896 0.01425
v -0.49382 0.08896 0.02553
v -0.49382 0.08896 0.01123
v -0.49795 0.08896 0.02664
v -0.49795 0.08896 0.01012
v -0.50208 0.08896 0.02553
v -0.50208 0.08896 0.01123
v -0.5051 0.08896 0.02251
v -0.5051 0.08896 0.01425
v -0.5062 0.08896 0.01838
vn 0.008715861 0.7139273 -0.7001656
vn 0.008715861 0.7139273 -0.7001656
vn 0.008715861 0.7139273 -0.7001656
vn 0.008715861 0.7139273 -0.7001656
vn 0.008715861 0.7139273 -0.7001656
vn 0.008715861 0.7139273 -0.7001656
vn -1.69474E-07 -0.0003457081 1
vn -1.69474E-07 -0.0003457081 1
vn -1.69474E-07 -0.0003457081 1
vn -1.69474E-07 -0.0003457081 1
vn 0 0.0003456776 -1
vn 0 0.0003456776 -1
vn 0 0.0003456776 -1
vn 0 0.0003456776 -1
vn 3.681966E-07 0.0003457546 -1
vn 3.681966E-07 0.0003457546 -1
vn -0.01099337 -0.9999396 -0.0003455543
vn -0.01099337 -0.9999396 -0.0003455543
vn -0.01099337 -0.9999396 -0.0003455543
vn -0.01099337 -0.9999396 -0.0003455543
vn 0 1 0.0003455752
vn 0 1 0.0003455752
vn 0 1 0.0003455752
vn 0 1 0.0003455752
vn 0 0.0003457382 -1
vn 3.681966E-07 0.0003457546 -1
vn 3.681966E-07 0.0003457546 -1
vn 0 0.0003457382 -1
vn 0 0.0003456776 -1
vn 0 0.0003456776 -1
vn 1 0 0
vn 1 0 0
vn 1 0 0
vn 1 0 0
vn -1 0 0
vn -1 0 0
vn -1 0 0
vn -1 0 0
vn 0.01226952 0.9999247 0.0003455492
vn 0.01226952 0.9999247 0.0003455492
vn 0.01226952 0.9999247 0.0003455492
vn 0.01226952 0.9999247 0.0003455492
vn -1 0 0
vn -1 0 0
vn -1 0 0
vn -1 0 0
vn 1.99926E-07 0.0003457073 -1
vn 1.99926E-07 0.0003457073 -1
vn 1.99926E-07 0.0003457073 -1
vn 1.99926E-07 0.0003457073 -1
vn 1 0 0
vn 1 0 0
vn 1 0 0
vn 1 0 0
vn 0 -0.7134828 -0.7006727
vn 0 -0.7134828 -0.7006727
vn 0 -0.7134828 -0.7006727
vn 0 -0.7134828 -0.7006727
vn 0.7907943 0.0002115204 -0.6120819
vn 0.7907943 0.0002115204 -0.6120819
vn 0.7907943 0.0002115204 -0.6120819
vn 0.7907943 0.0002115204 -0.6120819
vn -0.7907991 0.0002115182 -0.6120757
vn -0.7907991 0.0002115182 -0.6120757
vn -0.7907991 0.0002115182 -0.6120757
vn -0.7907991 0.0002115182 -0.6120757
vn 0 -1 -0.0003455752
vn 0 -1 -0.0003455752
vn 0 -1 -0.0003455752
vn 0 -1 -0.0003455752
vn 0 0.7038078 -0.7103904
vn 0 0.7038078 -0.7103904
vn 0 0.7038078 -0.7103904
vn 0 0.7038078 -0.7103904
vn -0.7806187 0.0002160888 -0.6250074
vn -0.7806187 0.0002160888 -0.6250074
vn -0.7806187 0.0002160888 -0.6250074
vn -0.7806187 0.0002160888 -0.6250074
vn -0.007774334 -0.7030143 -0.7111332
vn -0.007774334 -0.7030143 -0.7111332
vn -0.007774334 -0.7030143 -0.7111332
vn -0.007774334 -0.7030143 -0.7111332
vn 0.7803819 0.0002151335 -0.6253032
vn 0.7803819 0.0002151335 -0.6253032
vn 0.7803819 0.0002151335 -0.6253032
vn 0.7803819 0.0002151335 -0.6253032
vn 0.7571606 -0.6532287 -0.0002302095
vn 0.6557245 -0.6533555 0.3783542
vn 0.8660274 -0.0001727864 0.4999966
vn 1 0 -5.322983E-06
vn 0.6557219 -0.6530947 -0.3788086
vn 0.8660275 -0.0001727864 0.4999964
vn 0.8660249 0.0001729477 -0.5000008
vn 1 0 -5.24441E-06
vn 0.6557241 0.6530944 0.3788055
vn 0.8660249 0.0001729051 -0.5000008
vn 0.757161 0.6532284 0.0002218579
vn 0.6557213 0.6533572 -0.3783569
vn 0.3785827 -0.6530013 -0.6559455
vn 0.6557219 -0.6530947 -0.3788086
vn 0.8660249 0.0001729477 -0.5000008
vn 0.5000023 0.000299728 -0.866024
vn 0.8660249 0.0001729051 -0.5000008
vn 0.500001 0.0002994031 -0.8660248
vn 0.6557213 0.6533572 -0.3783569
vn 0.3785805 0.6534548 -0.655495
vn -1.044763E-06 -0.6529625 -0.7573902
vn 0.3785827 -0.6530013 -0.6559455
vn 0.5000023 0.000299728 -0.866024
vn -1.915103E-06 0.0003461373 -1
vn -0.3785809 -0.6530018 -0.6559461
vn 0.500001 0.0002994031 -0.8660248
vn -0.500001 0.0002996358 -0.8660248
vn -0.6557206 -0.6530946 -0.3788112
vn -0.8660233 0.0001729487 -0.5000036
vn -1.669578E-06 0.0003455752 -1
vn 0.3785805 0.6534548 -0.655495
vn -7.966007E-07 0.6534865 -0.7569382
vn -0.500001 0.0002994076 -0.8660248
vn -0.8660241 0.0001729055 -0.5000023
vn -0.3785809 0.6534556 -0.655494
vn -0.6557219 0.6533565 -0.3783571
vn 0.8660275 -0.0001727864 0.4999964
vn 0.3785692 0.6529977 0.6559568
vn 0.6557241 0.6530944 0.3788055
vn 0.499984 -0.0002993842 0.8660346
vn 0.8660274 -0.0001727864 0.4999966
vn -7.807799E-07 0.6529703 0.7573835
vn 0.4999851 -0.000299401 0.8660339
vn 0.6557245 -0.6533555 0.3783542
vn 0.3785708 -0.6534516 0.6555039
vn -1.66465E-06 -0.0003457198 1
vn -0.3785695 0.6529986 0.6559559
vn -0.499984 -0.0002993842 0.8660346
vn -1.915083E-06 -0.0003457539 1
vn -1.044741E-06 -0.6534938 0.7569318
vn -0.4999835 -0.0002994014 0.8660349
vn -0.3785688 -0.653452 0.6555045
vn -0.3785688 -0.653452 0.6555045
vn -0.6557231 -0.6533554 0.3783568
vn -0.8660256 -0.0001727875 0.4999996
vn -0.4999835 -0.0002994014 0.8660349
vn -0.8660267 -0.0001727868 0.4999977
vn -0.499984 -0.0002993842 0.8660346
vn -0.6557245 0.6530937 0.3788059
vn -0.3785695 0.6529986 0.6559559
vn -0.7571605 -0.6532289 -0.0002301872
vn -0.6557206 -0.6530946 -0.3788112
vn -0.8660233 0.0001729487 -0.5000036
vn -1 0 -5.308251E-06
vn -0.6557231 -0.6533554 0.3783568
vn -0.8660241 0.0001729055 -0.5000023
vn -0.8660256 -0.0001727875 0.4999996
vn -1 0 -5.244411E-06
vn -0.6557219 0.6533565 -0.3783571
vn -0.8660267 -0.0001727868 0.4999977
vn -0.757161 0.6532283 0.0002218579
vn -0.6557245 0.6530937 0.3788059
vn -0.6557245 0.6530937 0.3788059
vn -0.757161 0.6532283 0.0002218579
vn -0.6557219 0.6533565 -0.3783571
vn -0.3785695 0.6529986 0.6559559
vn -0.3785809 0.6534556 -0.655494
vn -7.807799E-07 0.6529703 0.7573835
vn -7.966007E-07 0.6534865 -0.7569382
vn 0.3785692 0.6529977 0.6559568
vn 0.3785805 0.6534548 -0.655495
vn 0.6557241 0.6530944 0.3788055
vn 0.6557213 0.6533572 -0.3783569
vn 0.757161 0.6532284 0.0002218579
vn -0.6557206 -0.6530946 -0.3788112
vn -0.7571605 -0.6532289 -0.0002301872
vn -0.6557231 -0.6533554 0.3783568
vn -0.3785809 -0.6530018 -0.6559461
vn -0.3785688 -0.653452 0.6555045
vn -1.044763E-06 -0.6529625 -0.7573902
vn -1.044741E-06 -0.6534938 0.7569318
vn 0.3785827 -0.6530013 -0.6559455
vn 0.3785708 -0.6534516 0.6555039
vn 0.6557219 -0.6530947 -0.3788086
vn 0.6557245 -0.6533555 0.3783542
vn 0.7571606 -0.6532287 -0.0002302095
vt 0.9803537 0.8183076
vt 0.9823197 0.8157676
vt 0.7610399 0.8157678
vt 0.9803537 0.8183076
vt 0.7610399 0.8157678
vt 0.7630059 0.8183076
vt 0.7433591 0.5193566
vt 0.7433591 1.981199
vt 1 1.978377
vt 1 0.5193566
vt 0.7610399 0.9588276
vt 0.7458181 -0.4775413
vt 0.76104 -0.4583382
vt 0.745822 0.9780827
vt 0.9823197 0.9561379
vt 0.9975414 0.9752843
vt 0.7433591 0.8279283
vt 0.7433591 0.818839
vt 1 0.818839
vt 1 0.8279283
vt 4.768372E-07 0.8279285
vt 4.768372E-07 0.8188392
vt -0.2566409 0.8188392
vt -0.2566409 0.8279285
vt 0.9823197 0.5416618
vt 0.9975414 1.975284
vt 0.9823197 1.956138
vt 0.9975414 0.5224587
vt 0.76104 0.5416618
vt 0.7458181 0.5224587
vt 0.8183076 0.9536567
vt 0.82243 0.9536567
vt 0.8224301 -0.4558456
vt 0.8183079 -0.4558456
vt 0.8279283 0.9783773
vt 0.818839 0.9783773
vt 0.8188392 -0.4806434
vt 0.8279285 -0.4806434
vt 0.7630059 0.8183076
vt 0.7630059 0.82243
vt 0.9803537 0.82243
vt 0.9803537 0.8183076
vt 0.8183079 0.5441544
vt 0.8224301 0.5441544
vt 0.82243 1.956324
vt 0.8183076 1.956324
vt 0.7630059 0.5441544
vt 0.9803537 0.5441544
vt 0.9803537 1.953657
vt 0.7630059 1.956324
vt 0.8279285 0.5193566
vt 0.8188392 0.5193566
vt 0.818839 1.981199
vt 0.8279283 1.981199
vt 0.9823197 0.8157679
vt 0.9803537 0.8183079
vt 0.7630059 0.8183079
vt 0.76104 0.8157679
vt 0.8157676 0.9561379
vt 0.8183076 0.9536567
vt 0.8183079 -0.4558456
vt 0.8157679 -0.4583382
vt 0.8183076 0.9563236
vt 0.8157678 0.9588276
vt 0.8157679 -0.4583382
vt 0.8183079 -0.4558456
vt 0.9803537 0.8183079
vt 0.9803537 0.8224301
vt 0.7630059 0.8224301
vt 0.7630059 0.8183079
vt 4.768372E-07 0.5193566
vt -0.002458572 0.5224587
vt -0.2541819 0.5224587
vt -0.2566409 0.5193566
vt 0.818839 0.9783773
vt 0.8157676 0.9752843
vt 0.8157679 -0.4775413
vt 0.8188392 -0.4806434
vt 0.9975414 0.9752843
vt 1 0.9783773
vt 0.7433591 0.9811988
vt 0.745822 0.9780827
vt 0.8157678 0.9780827
vt 0.818839 0.9811988
vt 0.8188392 -0.4806434
vt 0.8157679 -0.4775413
vt 0.8126758 0.2933486
vt 0.8147399 0.2933486
vt 0.8147399 0.2910767
vt 0.8126758 0.2910767
vt 0.8106118 0.2933486
vt 0.8147399 0.2425706
vt 0.8106118 0.2910767
vt 0.8126758 0.2425706
vt 0.8147399 0.2390642
vt 0.8106118 0.2425706
vt 0.8126758 0.2390642
vt 0.8106118 0.2390642
vt 0.7489598 0.2933486
vt 0.7474487 0.2933486
vt 0.7474487 0.2910767
vt 0.7489598 0.2910767
vt 0.7474487 0.2425706
vt 0.7489598 0.2425706
vt 0.7474487 0.2390642
vt 0.7489598 0.2390642
vt 0.7510238 0.2933486
vt 0.7489598 0.2933486
vt 0.7489598 0.2910767
vt 0.7510238 0.2910767
vt 0.7530878 0.2933486
vt 0.7489598 0.2425706
vt 0.7530878 0.2910767
vt 0.7545989 0.2933486
vt 0.7545989 0.2910767
vt 0.7510238 0.2425706
vt 0.7489598 0.2390642
vt 0.7510238 0.2390642
vt 0.7530878 0.2425706
vt 0.7545989 0.2425706
vt 0.7530878 0.2390642
vt 0.7545989 0.2390642
vt 0.7474487 0.2425706
vt 0.7489598 0.2390642
vt 0.7474487 0.2390642
vt 0.7489598 0.2425706
vt 0.7474487 0.2910767
vt 0.7510238 0.2390642
vt 0.7489598 0.2910767
vt 0.7474487 0.2933486
vt 0.7489598 0.2933486
vt 0.7510238 0.2425706
vt 0.7530878 0.2390642
vt 0.7530878 0.2425706
vt 0.7510238 0.2910767
vt 0.7510238 0.2933486
vt 0.7530878 0.2910767
vt 0.7530878 0.2933486
vt 0.7530878 0.2933486
vt 0.7545989 0.2933486
vt 0.7545989 0.2910767
vt 0.7530878 0.2910767
vt 0.7545989 0.2425706
vt 0.7530878 0.2425706
vt 0.7545989 0.2390642
vt 0.7530878 0.2390642
vt 0.8126758 0.2933486
vt 0.8106118 0.2933486
vt 0.8106118 0.2910767
vt 0.8126758 0.2910767
vt 0.8147399 0.2933486
vt 0.8106118 0.2425706
vt 0.8147399 0.2910767
vt 0.8126758 0.2425706
vt 0.8106118 0.2390642
vt 0.8147399 0.2425706
vt 0.8126758 0.2390642
vt 0.8147399 0.2390642
vt 0.7545989 0.8147399
vt 0.7551519 0.8126758
vt 0.7545989 0.8106118
vt 0.7530878 0.8162509
vt 0.7530878 0.8091007
vt 0.7510238 0.8168039
vt 0.7510238 0.8085477
vt 0.7489598 0.8162509
vt 0.7489598 0.8091007
vt 0.7474487 0.8147399
vt 0.7474487 0.8106118
vt 0.7468957 0.8126758
vt 0.7545989 0.8106118
vt 0.7551519 0.8126758
vt 0.7545989 0.8147399
vt 0.7530878 0.8091007
vt 0.7530878 0.8162509
vt 0.7510238 0.8085477
vt 0.7510238 0.8168039
vt 0.7489598 0.8091007
vt 0.7489598 0.8162509
vt 0.7474487 0.8106118
vt 0.7474487 0.8147399
vt 0.7468957 0.8126758
usemtl Cream_wood
f 3/3/3 2/2/2 1/1/1
f 6/6/6 5/5/5 4/4/4
f 9/9/9 8/8/8 7/7/7
f 10/10/10 9/9/9 7/7/7
f 13/13/13 12/12/12 11/11/11
f 12/12/12 14/14/14 11/11/11
f 11/11/11 14/14/14 15/15/15
f 14/14/14 16/16/16 15/15/15
f 19/19/19 18/18/18 17/17/17
f 20/20/20 19/19/19 17/17/17
f 23/23/23 22/22/22 21/21/21
f 24/24/24 23/23/23 21/21/21
f 27/27/27 26/26/26 25/25/25
f 26/26/26 28/28/28 25/25/25
f 25/25/25 28/28/28 29/29/29
f 28/28/28 30/30/30 29/29/29
f 33/33/33 32/32/32 31/31/31
f 34/34/34 33/33/33 31/31/31
f 37/37/37 36/36/36 35/35/35
f 38/38/38 37/37/37 35/35/35
f 41/41/41 40/40/40 39/39/39
f 42/42/42 41/41/41 39/39/39
f 45/45/45 44/44/44 43/43/43
f 46/46/46 45/45/45 43/43/43
f 49/49/49 48/48/48 47/47/47
f 50/50/50 49/49/49 47/47/47
f 53/53/53 52/52/52 51/51/51
f 54/54/54 53/53/53 51/51/51
f 57/57/57 56/56/56 55/55/55
f 58/58/58 57/57/57 55/55/55
f 61/61/61 60/60/60 59/59/59
f 62/62/62 61/61/61 59/59/59
f 65/65/65 64/64/64 63/63/63
f 66/66/66 65/65/65 63/63/63
f 69/69/69 68/68/68 67/67/67
f 70/70/70 69/69/69 67/67/67
f 73/73/73 72/72/72 71/71/71
f 74/74/74 73/73/73 71/71/71
f 77/77/77 76/76/76 75/75/75
f 78/78/78 77/77/77 75/75/75
f 81/81/81 80/80/80 79/79/79
f 82/82/82 81/81/81 79/79/79
f 85/85/85 84/84/84 83/83/83
f 86/86/86 85/85/85 83/83/83
usemtl HammeredMetal_Dark
f 89/89/89 88/88/88 87/87/87
f 90/90/90 89/89/89 87/87/87
f 90/90/90 87/87/87 91/91/91
f 92/92/92 89/89/89 90/90/90
f 93/93/93 90/90/90 91/91/91
f 94/94/94 92/92/92 90/90/90
f 94/94/94 90/90/90 93/93/93
f 95/95/95 92/92/92 94/94/94
f 96/96/96 94/94/94 93/93/93
f 97/97/97 95/95/95 94/94/94
f 97/97/97 94/94/94 96/96/96
f 98/98/98 97/97/97 96/96/96
f 101/101/101 100/100/100 99/99/99
f 102/102/102 101/101/101 99/99/99
f 103/103/103 101/101/101 102/102/102
f 104/104/104 103/103/103 102/102/102
f 105/105/105 103/103/103 104/104/104
f 106/106/106 105/105/105 104/104/104
f 109/109/109 108/108/108 107/107/107
f 110/110/110 109/109/109 107/107/107
f 110/110/110 107/107/107 111/111/111
f 112/112/112 109/109/109 110/110/110
f 113/113/113 110/110/110 111/111/111
f 113/113/113 111/111/111 114/114/114
f 115/115/115 113/113/113 114/114/114
f 116/116/116 112/112/112 110/110/110
f 116/116/116 110/110/110 113/113/113
f 117/117/117 112/112/112 116/116/116
f 118/118/118 117/117/117 116/116/116
f 119/119/119 113/113/113 115/115/115
f 119/119/119 116/116/116 113/113/113
f 118/118/118 116/116/116 119/119/119
f 120/120/120 119/119/119 115/115/115
f 121/121/121 118/118/118 119/119/119
f 121/121/121 119/119/119 120/120/120
f 122/122/122 121/121/121 120/120/120
f 125/125/125 124/124/124 123/123/123
f 124/124/124 126/126/126 123/123/123
f 123/123/123 126/126/126 127/127/127
f 124/124/124 128/128/128 126/126/126
f 126/126/126 129/129/129 127/127/127
f 127/127/127 129/129/129 130/130/130
f 129/129/129 131/131/131 130/130/130
f 128/128/128 132/132/132 126/126/126
f 126/126/126 132/132/132 129/129/129
f 128/128/128 133/133/133 132/132/132
f 133/133/133 134/134/134 132/132/132
f 129/129/129 135/135/135 131/131/131
f 132/132/132 135/135/135 129/129/129
f 132/132/132 134/134/134 135/135/135
f 135/135/135 136/136/136 131/131/131
f 134/134/134 137/137/137 135/135/135
f 135/135/135 137/137/137 136/136/136
f 137/137/137 138/138/138 136/136/136
f 141/141/141 140/140/140 139/139/139
f 142/142/142 141/141/141 139/139/139
f 143/143/143 141/141/141 142/142/142
f 144/144/144 143/143/143 142/142/142
f 145/145/145 143/143/143 144/144/144
f 146/146/146 145/145/145 144/144/144
f 149/149/149 148/148/148 147/147/147
f 150/150/150 149/149/149 147/147/147
f 150/150/150 147/147/147 151/151/151
f 152/152/152 149/149/149 150/150/150
f 153/153/153 150/150/150 151/151/151
f 154/154/154 152/152/152 150/150/150
f 154/154/154 150/150/150 153/153/153
f 155/155/155 152/152/152 154/154/154
f 156/156/156 154/154/154 153/153/153
f 157/157/157 155/155/155 154/154/154
f 157/157/157 154/154/154 156/156/156
f 158/158/158 157/157/157 156/156/156
f 161/161/161 160/160/160 159/159/159
f 159/159/159 162/162/162 161/161/161
f 162/162/162 163/163/163 161/161/161
f 162/162/162 164/164/164 163/163/163
f 164/164/164 165/165/165 163/163/163
f 164/164/164 166/166/166 165/165/165
f 166/166/166 167/167/167 165/165/165
f 166/166/166 168/168/168 167/167/167
f 168/168/168 169/169/169 167/167/167
f 168/168/168 170/170/170 169/169/169
f 173/173/173 172/172/172 171/171/171
f 171/171/171 174/174/174 173/173/173
f 174/174/174 175/175/175 173/173/173
f 174/174/174 176/176/176 175/175/175
f 176/176/176 177/177/177 175/175/175
f 176/176/176 178/178/178 177/177/177
f 178/178/178 179/179/179 177/177/177
f 178/178/178 180/180/180 179/179/179
f 180/180/180 181/181/181 179/179/179
f 180/180/180 182/182/182 181/181/181
