mtllib material.mtl
usemtl material_0
v -0.01987422 0.00440564 -0.02419911
v -0.01339213 0.00440395 -0.02545250
v -0.01327625 0.00492012 -0.02500164
v -0.00737112 0.00439330 -0.02656221
v -0.01961930 0.00492054 -0.02370710
v -0.02521134 0.00492030 -0.02115441
v -0.01878912 0.00652907 -0.02252396
v -0.02558830 0.00440469 -0.02167351
v -0.02955091 0.00440745 -0.01709473
v -0.00734104 0.00491742 -0.02609608
v -0.00165876 0.00491538 -0.02654944
v -0.00718153 0.00652907 -0.02514097
v -0.00163391 0.00438522 -0.02704756
v 0.00402535 0.00439124 -0.02639683
v -0.01281938 0.00652907 -0.02396365
v -0.01205978 0.00860237 -0.02231105
v -0.02914441 0.00492100 -0.01663475
v -0.03136478 0.00492130 -0.01043825
v -0.02789489 0.00652907 -0.01557518
v -0.03175586 0.00440866 -0.01076817
v -0.03293168 0.00440307 -0.00385303
v -0.02408307 0.00652907 -0.01993059
v -0.02222219 0.00860237 -0.01798449
v -0.01741037 0.00860237 -0.02062743
v -0.01545622 0.01051161 -0.01787778
v -0.03251835 0.00491989 -0.00367343
v -0.03335324 0.00491828 0.00243887
v -0.03140771 0.00652907 -0.00338463
v -0.03379296 0.00439668 0.00240287
v -0.03356072 0.00439546 0.00849932
v -0.03015232 0.00652907 -0.00972501
v -0.02813045 0.00860237 -0.00862271
v -0.02582063 0.00860237 -0.01390374
v -0.02279909 0.01051161 -0.01158656
v -0.01955096 0.01051161 -0.01522913
v -0.01665630 0.01218724 -0.01233178
v -0.03311413 0.00491797 0.00844501
v -0.03168438 0.00491823 0.01429626
v -0.03202264 0.00652907 0.00822530
v -0.03209951 0.00439648 0.01443942
v -0.02948640 0.00439677 0.01997036
v -0.03225859 0.00652907 0.00243266
v -0.03045016 0.00860237 0.00239739
v -0.02958517 0.00860238 -0.00298785
v -0.02675177 0.01051161 -0.00248407
v -0.02512480 0.01051161 -0.00714907
v -0.02158157 0.01218724 -0.00571874
v -0.01942920 0.01218724 -0.00926098
v -0.01572568 0.01355972 -0.00687646
v -0.03064608 0.00652907 0.01386511
v -0.02892971 0.00860238 0.01313273
v -0.02816749 0.00652907 0.01910807
v -0.03022490 0.00860238 0.00783971
v -0.02731777 0.01051161 0.00721271
v -0.02752514 0.01051161 0.00233821
v -0.02364943 0.01218724 0.00225589
v -0.02300502 0.01218724 -0.00182888
v -0.01849644 0.01355972 -0.00104146
v -0.02911376 0.00491830 0.01974090
v -0.02553402 0.00491869 0.02453661
v -0.02584348 0.00439829 0.02483053
v -0.02128754 0.00440301 0.02873512
v -0.01739611 0.01355972 -0.00409076
v -0.01291100 0.01456472 -0.00234004
v -0.02107188 0.00491988 0.02842036
v -0.01592891 0.00492096 0.03121376
v -0.02041925 0.00652907 0.02747554
v -0.01604641 0.00440728 0.03153370
v -0.01033867 0.00440747 0.03309749
v -0.02471666 0.00652907 0.02372660
v -0.02335484 0.00860238 0.02236991
v -0.02659962 0.00860238 0.01804674
v -0.02406456 0.01051162 0.01632984
v -0.02615427 0.01051161 0.01194516
v -0.02247862 0.01218725 0.01036719
v -0.02346710 0.01218724 0.00637623
v -0.01883989 0.01355972 0.00536348
v -0.01898963 0.01355972 0.00215154
v -0.01400825 0.01456472 0.00203465
v -0.01391233 0.01454685 -0.00024136
v -0.00989937 0.01506644 0.00045922
v -0.02070801 0.01218725 0.01405572
v -0.01824249 0.01218725 0.01728766
v -0.01667791 0.01355972 0.01132564
v -0.01806330 0.01355972 0.00846591
v -0.01334999 0.01456472 0.00643223
v -0.01414363 0.01454685 0.00432918
v -0.01004074 0.01506644 0.00342209
v -0.00913820 0.01513790 0.00191654
v -0.00250293 0.01554876 0.00175281
v -0.00851430 0.01513790 -0.00061653
v -0.00863490 0.01506644 -0.00227385
v -0.00875090 0.01513790 0.00444679
v -0.00903035 0.01506644 0.00615281
v -0.01259312 0.01454685 0.00856087
v -0.01103011 0.01456472 0.01014788
v -0.00740844 0.01513790 0.00657623
v -0.00702213 0.01506644 0.00821552
v -0.00698171 0.01513790 -0.00276365
v -0.01024667 0.01456472 -0.00601883
v -0.01194956 0.01454685 -0.00443208
v -0.01475038 0.01355972 0.01382624
v -0.01234789 0.01355973 0.01584959
v -0.00949887 0.01454685 0.01176286
v -0.00741047 0.01456472 0.01256789
v -0.00645090 0.01506644 -0.00436440
v -0.01356713 0.01355972 -0.00930072
v -0.01100098 0.01355972 -0.01127001
v -0.00531788 0.01513790 0.00796499
v -0.00858036 0.01454685 -0.00761354
v -0.00644573 0.01456472 -0.00846358
v -0.01336898 0.01218724 -0.01481403
v -0.00971158 0.01218724 -0.01663827
v -0.00432824 0.01506644 0.00927827
v -0.00478176 0.01513790 -0.00420554
v -0.00368822 0.01506644 -0.00550924
v -0.00813814 0.01355972 -0.01272693
v -0.00508550 0.01355972 -0.01361619
v -0.01101287 0.01051161 -0.01984012
v -0.00643429 0.01051161 -0.02110386
v -0.00280403 0.01513790 0.00839276
v -0.00305925 0.01456472 0.01329359
v -0.00136816 0.01506644 0.00917550
v -0.00225275 0.01513790 -0.00473665
v -0.00209858 0.01456472 -0.00934179
v -0.00433879 0.01454685 -0.00933558
v -0.00582185 0.01218724 -0.01773889
v -0.00185181 0.01218724 -0.01810470
v -0.00689618 0.00860237 -0.02360760
v -0.00171514 0.00860237 -0.02403347
v -0.00076739 0.01506644 -0.00555287
v -0.00196238 0.01355972 -0.01392509
v 0.00111641 0.01355972 -0.01363926
v -0.00177063 0.01051161 -0.02150722
v 0.00280994 0.01051161 -0.02103804
v -0.00168311 0.00652907 -0.02557826
v 0.00370583 0.00652907 -0.02499745
v 0.00012850 0.01454685 -0.00937891
v 0.00214365 0.01456472 -0.00855664
v 0.00205414 0.01218724 -0.01772169
v 0.00575912 0.01218725 -0.01662776
v 0.00336691 0.00860238 -0.02349612
v 0.00817714 0.00860238 -0.02204950
v 0.00391774 0.00491690 -0.02593369
v 0.00919272 0.00491981 -0.02432255
v 0.00938297 0.00440272 -0.02472192
v 0.01422560 0.00441100 -0.02211642
v 0.00404085 0.01355972 -0.01278652
v 0.00670319 0.01355972 -0.01139044
v 0.00714958 0.01051161 -0.01974319
v 0.01109581 0.01051161 -0.01765968
v 0.00880352 0.00652907 -0.02345697
v 0.01343588 0.00652907 -0.02100086
v 0.01397913 0.00492190 -0.02177358
v 0.01813338 0.00492382 -0.01839142
v 0.01841126 0.00441859 -0.01868265
v 0.02179219 0.00442802 -0.01451229
v 0.00913003 0.01218725 -0.01485383
v 0.01205800 0.01218725 -0.01247647
v 0.01254946 0.00860238 -0.01973504
v 0.01634905 0.00860238 -0.01665033
v 0.01746194 0.00652907 -0.01773192
v 0.02073602 0.00652907 -0.01374244
v 0.02150671 0.00492620 -0.01426988
v 0.02392533 0.00492739 -0.00957494
v 0.02420279 0.00443272 -0.00977351
v 0.02546752 0.00442614 -0.00462887
v 0.01452446 0.01051162 -0.01487632
v 0.01730822 0.01051162 -0.01147381
v 0.01943711 0.00860238 -0.01288336
v 0.02172043 0.00860238 -0.00856750
v 0.02312793 0.00652907 -0.00918173
v 0.02440253 0.00652907 -0.00422075
v 0.02517983 0.00492573 -0.00447407
v 0.02560427 0.00492232 0.00098015
v 0.02593064 0.00441264 0.00089466
v 0.02561801 0.00439659 0.00668056
v 0.02522352 0.00491826 0.00664651
v 0.02341349 0.00491589 0.01214925
v 0.02436644 0.00652907 0.00651167
v 0.02381723 0.00438721 0.01228509
v 0.02057305 0.00439372 0.01745911
v 0.02480918 0.00652907 0.00105964
v 0.02343319 0.00860238 0.00114166
v 0.02303578 0.00860238 -0.00384892
v 0.02059230 0.01051162 -0.00329641
v 0.01936199 0.01051162 -0.00757426
v 0.01617818 0.01218725 -0.00622921
v 0.01443199 0.01218725 -0.00956610
v 0.01088596 0.01355972 -0.00720848
v 0.00901484 0.01355972 -0.00951208
v 0.00566238 0.01456472 -0.00624117
v 0.00416297 0.01454685 -0.00776528
v 0.00187587 0.01506644 -0.00450080
v 0.00022401 0.01513790 -0.00428893
v 0.00228026 0.01513790 -0.00293500
v 0.00385153 0.01506644 -0.00251193
v 0.00718086 0.01454685 -0.00473805
v 0.00794781 0.01456472 -0.00273004
v 0.00361118 0.01513790 -0.00087448
v 0.00486652 0.01506644 0.00012540
v 0.00401659 0.01513790 0.00159313
v 0.00865915 0.01456472 0.00148271
v 0.01225727 0.01355972 -0.00456612
v 0.01306613 0.01355973 -0.00166989
v 0.00874164 0.01454685 -0.00072564
v 0.00476443 0.01506644 0.00302964
v 0.01721697 0.01218725 -0.00256980
v 0.01751662 0.01218725 0.00128548
v 0.01328915 0.01355973 0.00137703
v 0.01290029 0.01355973 0.00446946
v 0.00860247 0.01454685 0.00370731
v 0.00767211 0.01456472 0.00579775
v 0.00342990 0.01513790 0.00410623
v 0.02095997 0.01051162 0.00121495
v 0.02041895 0.01051162 0.00581198
v 0.01704078 0.01218725 0.00520729
v 0.01580888 0.01218725 0.00905955
v 0.00355090 0.01506644 0.00577283
v 0.02292019 0.00860238 0.00626024
v 0.02130158 0.00860238 0.01127758
v 0.01191816 0.01355973 0.00749733
v 0.01036185 0.01355973 0.01034492
v 0.00675955 0.01454685 0.00792072
v 0.00510968 0.01456472 0.00957716
v 0.00193174 0.01513790 0.00628774
v 0.00139943 0.01506644 0.00793670
v 0.01898780 0.01051162 0.01033872
v 0.01667693 0.01051162 0.01462553
v 0.01384129 0.01218725 0.01269762
v 0.01121578 0.01218725 0.01598761
v -0.00025681 0.01513790 0.00779856
v 0.00134197 0.01456472 0.01222662
v 0.00829476 0.01355972 0.01290667
v 0.00578376 0.01355973 0.01506973
v 0.00346654 0.01454685 0.01127408
v -0.00078701 0.01454686 0.01321857
v -0.00015623 0.01355973 0.01785143
v 0.00293133 0.01355973 0.01674811
v 0.00437418 0.01218725 0.02096961
v 0.00801635 0.01218725 0.01878331
v 0.00983635 0.01051162 0.02185262
v 0.01359208 0.01051162 0.01852093
v 0.01515400 0.00860238 0.02036056
v 0.01858918 0.00860238 0.01600996
v 0.01962776 0.00652907 0.01682293
v 0.02261584 0.00652907 0.01182457
v 0.02025167 0.00491754 0.01729517
v 0.01646013 0.00492038 0.02207778
v 0.01670508 0.00440498 0.02225306
v 0.01239660 0.00440987 0.02651169
v 0.01597554 0.00652907 0.02145470
v 0.01179751 0.00652907 0.02551719
v 0.01219369 0.00492162 0.02630170
v 0.00724649 0.00492175 0.02967976
v 0.00742213 0.00441041 0.02994113
v 0.00163840 0.00440860 0.03224442
v 0.01112180 0.00860238 0.02413871
v 0.00640066 0.00860238 0.02711261
v 0.00692328 0.00652907 0.02874164
v 0.00139673 0.00652908 0.03089318
v 0.00153059 0.00492130 0.03193159
v -0.00440304 0.00492085 0.03300050
v -0.00437239 0.00440683 0.03334740
v 0.00554079 0.01051162 0.02447350
v 0.00088137 0.01051162 0.02623232
v 0.00120511 0.00860238 0.02911151
v -0.00418040 0.00860238 0.03004351
v -0.01029853 0.00492101 0.03275732
v -0.01002618 0.00652907 0.03166629
v -0.00433169 0.00652907 0.03190670
v 0.00042690 0.01218725 0.02242278
v -0.00366364 0.01218725 0.02307481
v -0.01546233 0.00652907 0.03017612
v -0.01464920 0.00860238 0.02840435
v -0.00394827 0.01051162 0.02703895
v -0.00875226 0.01051162 0.02680869
v -0.00953553 0.00860238 0.02980548
v -0.00335399 0.01355973 0.01833353
v -0.00653510 0.01355973 0.01815082
v -0.01931262 0.00860238 0.02587656
v -0.01752687 0.01051162 0.02329993
v -0.00773329 0.01218725 0.02286177
v -0.01162186 0.01218725 0.02179613
v -0.01334126 0.01051162 0.02555170
v -0.00534624 0.01454685 0.01340234
v -0.00957483 0.01355973 0.01731610
v -0.01516908 0.01218725 0.01990426
v -0.02115408 0.01051162 0.02017998
vn -0.11994160 0.93693120 -0.32828950
vn -0.08521091 0.91685830 -0.39001290
vn -0.17639190 0.62386510 -0.76136600
vn -0.05846362 0.91885720 -0.39023520
vn -0.25764180 0.67948490 -0.68696500
vn -0.44901360 0.71949270 -0.52982740
vn -0.27604990 0.67779200 -0.68146500
vn -0.19544980 0.95105200 -0.23937280
vn -0.29763400 0.94128880 -0.15934020
vn -0.12533870 0.60234750 -0.78833220
vn 0.00169614 0.60518980 -0.79607930
vn -0.13532430 0.56948850 -0.81078370
vn 0.00149600 0.92537900 -0.37904030
vn 0.07591371 0.92374560 -0.37540810
vn -0.19902100 0.61263450 -0.76489840
vn -0.19762680 0.74319480 -0.63922230
vn -0.65431800 0.68396130 -0.32259100
vn -0.77627590 0.61048570 -0.15717120
vn -0.63007440 0.70437660 -0.32689430
vn -0.39581000 0.91443680 -0.08449627
vn -0.44073570 0.89666910 -0.04167072
vn -0.44925620 0.72209230 -0.52607180
vn -0.37709020 0.82159070 -0.42754170
vn -0.25787660 0.79063050 -0.55534050
vn -0.22997970 0.88178910 -0.41177340
vn -0.82205070 0.56352080 -0.08171310
vn -0.83549710 0.54943540 0.00808750
vn -0.80650880 0.58371480 -0.09391912
vn -0.43161160 0.90205280 0.00348877
vn -0.42393480 0.90199330 0.08177700
vn -0.74696360 0.64234820 -0.17156420
vn -0.61546890 0.76962380 -0.16993300
vn -0.51253370 0.81147940 -0.28073180
vn -0.38700580 0.89251940 -0.23159370
vn -0.30105090 0.89707000 -0.32347150
vn -0.25174300 0.93275770 -0.25804780
vn -0.82312630 0.54416230 0.16232860
vn -0.77878930 0.53874370 0.32131380
vn -0.81915220 0.55068620 0.16041930
vn -0.40411530 0.89965790 0.16524720
vn -0.36823340 0.89708890 0.24420420
vn -0.83109710 0.55611220 0.00410552
vn -0.70805600 0.70615630 -0.00010143
vn -0.67998840 0.72649500 -0.09909937
vn -0.50927660 0.85574810 -0.09128228
vn -0.46080610 0.87317180 -0.15883490
vn -0.34761660 0.92729640 -0.13886710
vn -0.30454060 0.93170260 -0.19795270
vn -0.22381670 0.96292630 -0.15059530
vn -0.77242760 0.55014240 0.31733110
vn -0.65701340 0.70397830 0.26971850
vn -0.69609390 0.54942700 0.46215080
vn -0.69701460 0.70397670 0.13633630
vn -0.51724860 0.84983230 0.10118720
vn -0.52690610 0.84992220 -0.00153262
vn -0.38174820 0.92426550 -0.00121134
vn -0.37337940 0.92470570 -0.07420930
vn -0.26441210 0.96292600 -0.05347619
vn -0.70471220 0.53219860 0.46919650
vn -0.60382760 0.52034010 0.60385310
vn -0.31837960 0.89300080 0.31809430
vn -0.25909890 0.88384090 0.38947790
vn -0.24938970 0.96277580 -0.10424700
vn -0.16285990 0.98429860 -0.06806494
vn -0.48092700 0.49898290 0.72091980
vn -0.33728540 0.48186890 0.80872800
vn -0.46716780 0.54612420 0.69534340
vn -0.18361070 0.87657830 0.44485690
vn -0.09366303 0.87698550 0.47130010
vn -0.59294580 0.54824920 0.58977810
vn -0.50380060 0.70396800 0.50061360
vn -0.59176080 0.70398260 0.39271850
vn -0.43916900 0.84982220 0.29143240
vn -0.48757840 0.84982340 0.20016890
vn -0.35316870 0.92425790 0.14498030
vn -0.37466340 0.92425960 0.07329027
vn -0.26474610 0.96292600 0.05179704
vn -0.27030750 0.96277370 -0.00085776
vn -0.17651410 0.98429790 -0.00056015
vn -0.17678400 0.98360060 -0.03573989
vn -0.10967300 0.99372020 -0.02218132
vn -0.31807970 0.92426760 0.21107990
vn -0.27080600 0.92425820 0.26909280
vn -0.22476780 0.96292630 0.14917180
vn -0.25004620 0.96277580 0.10266210
vn -0.16328850 0.98429870 0.06702991
vn -0.17700720 0.98360060 0.03461717
vn -0.10981160 0.99372030 0.02148473
vn -0.08854726 0.99607190 -0.00028105
vn -0.00000010 1.00000000 -0.00000010
vn -0.08169202 0.99607230 -0.03415210
vn -0.09284778 0.99371770 -0.06248563
vn -0.08190710 0.99607230 0.03363283
vn -0.09324243 0.99371770 0.06189499
vn -0.15028930 0.98359840 0.09973636
vn -0.12521310 0.98429720 0.12442090
vn -0.06281234 0.99607180 0.06241480
vn -0.06248563 0.99371770 0.09284758
vn -0.06241500 0.99607180 -0.06281232
vn -0.12442110 0.98429720 -0.12521310
vn -0.14965340 0.98359840 -0.10068820
vn -0.19175200 0.96277000 0.19053890
vn -0.15059530 0.96292630 0.22381650
vn -0.10068820 0.98359840 0.14965320
vn -0.06806493 0.98429870 0.16285970
vn -0.06189518 0.99371770 -0.09324243
vn -0.19053910 0.96277000 -0.19175200
vn -0.14917200 0.96292630 -0.22476780
vn -0.03415211 0.99607230 0.08169182
vn -0.09973656 0.98359840 -0.15028930
vn -0.06703012 0.98429860 -0.16328850
vn -0.19868870 0.92891440 -0.31247540
vn -0.14144960 0.92523410 -0.35204240
vn -0.02218132 0.99372030 0.10967280
vn -0.03363303 0.99607230 -0.08190710
vn -0.02148493 0.99372020 -0.10981160
vn -0.10266230 0.96277580 -0.25004630
vn -0.05179724 0.96292600 -0.26474610
vn -0.17472140 0.86101540 -0.47762420
vn -0.09909832 0.85098140 -0.51576190
vn -0.00028105 0.99607190 0.08854704
vn -0.00056015 0.98429800 0.17651400
vn 0.02148473 0.99372030 0.10981140
vn 0.00028085 0.99607190 -0.08854726
vn 0.00055995 0.98429790 -0.17651410
vn -0.03461737 0.98360060 -0.17700720
vn -0.07329048 0.92425960 -0.37466340
vn 0.00121113 0.92426550 -0.38174820
vn -0.12514380 0.71124420 -0.69171580
vn 0.00225340 0.70396250 -0.71023360
vn 0.02218112 0.99372020 -0.10967310
vn 0.00085755 0.96277370 -0.27030750
vn 0.05347598 0.96292600 -0.26441210
vn 0.00167214 0.84983340 -0.52704860
vn 0.10446750 0.84983230 -0.51659610
vn 0.00248680 0.55798010 -0.82985060
vn 0.16492230 0.55736080 -0.81372580
vn 0.03573969 0.98360060 -0.17678400
vn 0.06806473 0.98429870 -0.16285990
vn 0.07566627 0.92425960 -0.37419080
vn 0.14721840 0.92425790 -0.35224170
vn 0.14075660 0.70397660 -0.69613540
vn 0.27388220 0.70397830 -0.65528860
vn 0.16035330 0.60112430 -0.78290250
vn 0.31291910 0.59006710 -0.74424620
vn 0.15048090 0.92064820 -0.36022550
vn 0.22098240 0.91808840 -0.32905970
vn 0.10424680 0.96277580 -0.24938970
vn 0.15059510 0.96292630 -0.22381670
vn 0.20325880 0.84982340 -0.48629830
vn 0.29421340 0.84982220 -0.43731080
vn 0.32086320 0.55586000 -0.76685490
vn 0.46475470 0.55452320 -0.69029490
vn 0.45585430 0.58006130 -0.67507460
vn 0.58469460 0.56941630 -0.57783850
vn 0.28433360 0.91566490 -0.28409890
vn 0.34372680 0.91112980 -0.22736390
vn 0.21309410 0.92426760 -0.31673380
vn 0.27080590 0.92425820 -0.26909300
vn 0.39646560 0.70398260 -0.58925670
vn 0.50380050 0.70396800 -0.50061370
vn 0.59114680 0.55324900 -0.58690800
vn 0.69806210 0.54893820 -0.45975690
vn 0.69970320 0.55098610 -0.45478550
vn 0.79882800 0.52163520 -0.29961720
vn 0.39876970 0.90414390 -0.15331810
vn 0.44489710 0.89234980 -0.07601598
vn 0.37387510 0.84982200 -0.37151030
vn 0.43916890 0.84982220 -0.29143250
vn 0.59260960 0.70333000 -0.39260770
vn 0.66535350 0.69748970 -0.26610680
vn 0.78839830 0.53376590 -0.30581370
vn 0.84695790 0.51058940 -0.14819170
vn 0.85639060 0.49597310 -0.14354730
vn 0.86440010 0.50265260 -0.01236046
vn 0.45114740 0.89241400 -0.00795144
vn 0.41222180 0.90793510 0.07567592
vn 0.83140000 0.53348480 0.15546110
vn 0.76329230 0.53727480 0.35877670
vn 0.84157120 0.51511380 0.16252920
vn 0.37606960 0.90978780 0.17566440
vn 0.36431350 0.89273040 0.26515690
vn 0.86346110 0.50435730 -0.00765619
vn 0.73131570 0.68203590 -0.00208927
vn 0.71571530 0.68586610 -0.13167970
vn 0.52152070 0.84730960 -0.10041230
vn 0.48889900 0.84918500 -0.19965630
vn 0.35316850 0.92425790 -0.14498050
vn 0.31807940 0.92426760 -0.21108010
vn 0.22476760 0.96292630 -0.14917200
vn 0.19175180 0.96277000 -0.19053910
vn 0.12521290 0.98429720 -0.12442110
vn 0.10068800 0.98359840 -0.14965340
vn 0.06248542 0.99371770 -0.09284780
vn 0.03415190 0.99607230 -0.08169202
vn 0.06281212 0.99607180 -0.06241500
vn 0.09324222 0.99371770 -0.06189518
vn 0.15028910 0.98359840 -0.09973654
vn 0.16328830 0.98429870 -0.06703012
vn 0.08190689 0.99607230 -0.03363303
vn 0.10981140 0.99372030 -0.02148494
vn 0.08854704 0.99607190 0.00028085
vn 0.17651400 0.98429800 0.00055995
vn 0.25004600 0.96277590 -0.10266230
vn 0.26474590 0.96292610 -0.05179726
vn 0.17700700 0.98360060 -0.03461738
vn 0.10967280 0.99372030 0.02218112
vn 0.37466330 0.92425970 -0.07329048
vn 0.38174810 0.92426560 0.00121113
vn 0.27030730 0.96277370 0.00085755
vn 0.26441190 0.96292610 0.05347598
vn 0.17678380 0.98360060 0.03573969
vn 0.16285970 0.98429870 0.06806473
vn 0.08169182 0.99607230 0.03415190
vn 0.53209220 0.84668590 0.00089192
vn 0.51987990 0.84782090 0.10452150
vn 0.37419050 0.92425970 0.07566629
vn 0.35228520 0.92420960 0.14741640
vn 0.09284759 0.99371770 0.06248541
vn 0.71348040 0.68629960 0.14120440
vn 0.67014690 0.67991640 0.29768550
vn 0.24938960 0.96277590 0.10424680
vn 0.22381650 0.96292630 0.15059510
vn 0.14965320 0.98359840 0.10068800
vn 0.12442090 0.98429730 0.12521290
vn 0.06241480 0.99607180 0.06281213
vn 0.06189498 0.99371770 0.09324222
vn 0.49103260 0.84551880 0.20972570
vn 0.44754190 0.84064670 0.30499060
vn 0.31700000 0.92408820 0.21347560
vn 0.26947840 0.92408970 0.27099760
vn 0.03363283 0.99607230 0.08190689
vn 0.06702991 0.98429870 0.16328830
vn 0.19053890 0.96277010 0.19175190
vn 0.14917180 0.96292630 0.22476760
vn 0.09973635 0.98359840 0.15028910
vn 0.03461717 0.98360060 0.17700700
vn 0.05179705 0.96292610 0.26474590
vn 0.10266220 0.96277590 0.25004600
vn 0.14498020 0.92425790 0.35316850
vn 0.21129630 0.92421060 0.31810150
vn 0.29818480 0.84600080 0.44200500
vn 0.38383960 0.84085970 0.38160460
vn 0.53231220 0.66751050 0.52064720
vn 0.61144500 0.66614570 0.42706550
vn 0.70941000 0.48924070 0.50732730
vn 0.78188220 0.50954370 0.35920120
vn 0.69833480 0.50113030 0.51107430
vn 0.63375470 0.47150230 0.61322140
vn 0.34322530 0.88044430 0.32713010
vn 0.28358700 0.88087090 0.37900530
vn 0.62739320 0.48842200 0.60648300
vn 0.50064620 0.51341750 0.69696190
vn 0.51856440 0.47300590 0.71228960
vn 0.34628110 0.48588260 0.80250080
vn 0.19135700 0.88436410 0.42577320
vn 0.09436523 0.88145170 0.46275050
vn 0.41663510 0.68520750 0.59741600
vn 0.27597500 0.70015400 0.65850000
vn 0.33174010 0.53767620 0.77514690
vn 0.16093200 0.54509930 0.82278050
vn 0.16620870 0.49019340 0.85561970
vn -0.00472612 0.48797830 0.87284290
vn 0.00092812 0.88075800 0.47356570
vn 0.20132920 0.84924560 0.48810680
vn 0.10118730 0.84983250 0.51724850
vn 0.13633630 0.70397680 0.69701450
vn -0.00225353 0.70396270 0.71023340
vn -0.17579440 0.48103990 0.85889290
vn -0.16649950 0.54444770 0.82210380
vn -0.00286908 0.54510410 0.83836340
vn 0.07329027 0.92425970 0.37466330
vn -0.00121133 0.92426560 0.38174810
vn -0.32329050 0.54453580 0.77392770
vn -0.27388230 0.70397850 0.65528850
vn -0.00167232 0.84983360 0.52704850
vn -0.10446760 0.84983240 0.51659600
vn -0.14075670 0.70397680 0.69613520
vn -0.00085776 0.96277370 0.27030730
vn -0.05347618 0.96292600 0.26441190
vn -0.39646580 0.70398260 0.58925660
vn -0.29421350 0.84982220 0.43731070
vn -0.07566650 0.92425970 0.37419060
vn -0.14721860 0.92425790 0.35224140
vn -0.20325900 0.84982340 0.48629800
vn -0.03573990 0.98360060 0.17678380
vn -0.10424700 0.96277590 0.24938960
vn -0.21309430 0.92426760 0.31673360
vn -0.37387530 0.84982200 0.37151010
vt 0.52324550 0.67407440
vt 0.55567370 0.66432630
vt 0.55429700 0.66221760
vt 0.58559470 0.64872340
vt 0.52233190 0.67186690
vt 0.48912230 0.67518130
vt 0.52105880 0.66626390
vt 0.48961420 0.67746470
vt 0.45608390 0.67399420
vt 0.58374740 0.64654770
vt 0.60958700 0.62546990
vt 0.58037350 0.64169490
vt 0.61182510 0.62758200
vt 0.63318190 0.60121790
vt 0.55193790 0.65692900
vt 0.54829490 0.64813410
vt 0.45593820 0.67184660
vt 0.42399170 0.66217020
vt 0.45685710 0.66626390
vt 0.42372880 0.66413840
vt 0.39362270 0.64837330
vt 0.48895800 0.66945650
vt 0.48895790 0.65993700
vt 0.51920190 0.65692900
vt 0.51617180 0.64169490
vt 0.39449460 0.64645930
vt 0.36858870 0.62536680
vt 0.39754250 0.64169490
vt 0.36713020 0.62717420
vt 0.34561560 0.60101670
vt 0.42597810 0.65692900
vt 0.42962110 0.64813410
vt 0.45871390 0.65692900
vt 0.46174420 0.64169490
vt 0.48895790 0.64440160
vt 0.48895790 0.62355600
vt 0.34741650 0.59954580
vt 0.33165960 0.57009840
vt 0.35214510 0.59629760
vt 0.32966830 0.57110800
vt 0.31987700 0.53865550
vt 0.37258630 0.62125380
vt 0.37931760 0.61452250
vt 0.40283030 0.63378130
vt 0.41145970 0.62086640
vt 0.43556620 0.63378120
vt 0.44354340 0.61452250
vt 0.46581020 0.62125380
vt 0.47077430 0.59629750
vt 0.33691100 0.56786200
vt 0.34570590 0.56421910
vt 0.32757610 0.53698290
vt 0.36005880 0.59100970
vt 0.37297360 0.58238040
vt 0.39030280 0.60353720
vt 0.40504290 0.58879720
vt 0.42303870 0.60353720
vt 0.43717520 0.58238040
vt 0.32199940 0.53812720
vt 0.31872000 0.50490130
vt 0.31662500 0.50495960
vt 0.32029570 0.47132100
vt 0.45328270 0.59100970
vt 0.46386790 0.56545470
vt 0.32210520 0.47168990
vt 0.33183890 0.43974550
vt 0.32757610 0.47278120
vt 0.33037810 0.43897460
vt 0.34636150 0.40915520
vt 0.32438350 0.50488210
vt 0.33390300 0.50488210
vt 0.33691100 0.53512610
vt 0.35214500 0.53209590
vt 0.36005880 0.55827390
vt 0.37931760 0.55029660
vt 0.39030280 0.57080130
vt 0.41145970 0.55666480
vt 0.42303870 0.57080130
vt 0.44259760 0.55124230
vt 0.45176740 0.56054160
vt 0.46471300 0.54116710
vt 0.37258630 0.52802990
vt 0.37028410 0.50488200
vt 0.39754250 0.52306570
vt 0.40283030 0.54055730
vt 0.42838530 0.52997210
vt 0.43329840 0.54207270
vt 0.45267290 0.52912690
vt 0.46202700 0.53181290
vt 0.48895790 0.50488200
vt 0.47438300 0.54006900
vt 0.48044420 0.54768320
vt 0.45377100 0.51945690
vt 0.44615680 0.51339570
vt 0.42330300 0.51794170
vt 0.42339450 0.50488200
vt 0.45087190 0.50488200
vt 0.44615680 0.49636840
vt 0.48895790 0.54296810
vt 0.48895790 0.57044540
vt 0.47589840 0.57053700
vt 0.39573400 0.50488200
vt 0.39754250 0.48669840
vt 0.42330290 0.49182250
vt 0.42838530 0.47979200
vt 0.49747160 0.54768320
vt 0.48895790 0.59810600
vt 0.50714160 0.59629750
vt 0.45377100 0.49030720
vt 0.50201760 0.57053700
vt 0.51404790 0.56545470
vt 0.51210570 0.62125380
vt 0.53437240 0.61452250
vt 0.45267290 0.48063710
vt 0.50353280 0.54006900
vt 0.51320280 0.54116710
vt 0.52463320 0.59100970
vt 0.54074060 0.58238040
vt 0.54234970 0.63378120
vt 0.56645620 0.62086640
vt 0.46202700 0.47795110
vt 0.44259760 0.45852180
vt 0.46471300 0.46859700
vt 0.51588890 0.53181290
vt 0.53531830 0.55124230
vt 0.52614850 0.56054160
vt 0.55487730 0.60353720
vt 0.57287310 0.58879720
vt 0.57508560 0.63378120
vt 0.59859840 0.61452250
vt 0.52524290 0.52912690
vt 0.55487730 0.57080130
vt 0.56645620 0.55666480
vt 0.58761310 0.60353720
vt 0.60494230 0.58238040
vt 0.60532960 0.62125380
vt 0.62577090 0.59629750
vt 0.54461750 0.54207270
vt 0.54953060 0.52997210
vt 0.58761310 0.57080130
vt 0.59859840 0.55029660
vt 0.61785720 0.59100970
vt 0.63221000 0.56421900
vt 0.63071930 0.59959660
vt 0.64644460 0.57008930
vt 0.64900370 0.57107250
vt 0.65862890 0.53858690
vt 0.57508560 0.54055730
vt 0.58037350 0.52306570
vt 0.61785720 0.55827380
vt 0.62577090 0.53209580
vt 0.64100500 0.56786200
vt 0.65033980 0.53698280
vt 0.65606260 0.53810980
vt 0.65932190 0.50491370
vt 0.66180110 0.50500900
vt 0.65826390 0.47158740
vt 0.60532960 0.52802980
vt 0.60763190 0.50488200
vt 0.64100500 0.53512600
vt 0.64401290 0.50488200
vt 0.65353240 0.50488200
vt 0.65033980 0.47278120
vt 0.65597050 0.47175720
vt 0.64629360 0.43985530
vt 0.64840680 0.43940930
vt 0.63261940 0.40956220
vt 0.62847740 0.50488200
vt 0.62577090 0.47766830
vt 0.64100490 0.47463800
vt 0.63221000 0.44554500
vt 0.64100490 0.44190210
vt 0.62577090 0.41346660
vt 0.63057700 0.41042350
vt 0.60948480 0.38452680
vt 0.61142100 0.38310550
vt 0.58533140 0.36109840
vt 0.58368080 0.36323010
vt 0.55426340 0.34737180
vt 0.58037330 0.36806910
vt 0.55554090 0.34474990
vt 0.52324040 0.33526880
vt 0.60532960 0.38851030
vt 0.59859840 0.39524160
vt 0.61785720 0.41875430
vt 0.60494230 0.42738380
vt 0.61785720 0.45149030
vt 0.59859840 0.45946750
vt 0.60532960 0.48173420
vt 0.58037350 0.48669830
vt 0.58218190 0.50488200
vt 0.55452130 0.50488200
vt 0.55461290 0.51794170
vt 0.53175900 0.51339570
vt 0.52414480 0.51945690
vt 0.52704390 0.50488200
vt 0.53175900 0.49636840
vt 0.55461290 0.49182250
vt 0.54953060 0.47979200
vt 0.52414480 0.49030710
vt 0.52524290 0.48063710
vt 0.51588890 0.47795110
vt 0.53531830 0.45852170
vt 0.57508560 0.46920680
vt 0.56645620 0.45309930
vt 0.54461750 0.46769150
vt 0.51320280 0.46859700
vt 0.58761310 0.43896270
vt 0.57287300 0.42096690
vt 0.55487720 0.43896270
vt 0.54074060 0.42738380
vt 0.52614850 0.44922240
vt 0.51404790 0.44430940
vt 0.50353280 0.46969510
vt 0.58761310 0.40622680
vt 0.56645620 0.38889760
vt 0.55487720 0.40622690
vt 0.53437240 0.39524160
vt 0.49747150 0.46208090
vt 0.57508560 0.37598280
vt 0.54829480 0.36162990
vt 0.52463320 0.41875440
vt 0.50714160 0.41346660
vt 0.50201750 0.43922700
vt 0.48895790 0.43931860
vt 0.48895790 0.46679600
vt 0.48044420 0.46208090
vt 0.54234970 0.37598280
vt 0.51617170 0.36806910
vt 0.51210560 0.38851030
vt 0.48895790 0.38620810
vt 0.47438300 0.46969510
vt 0.46386790 0.44430940
vt 0.48895790 0.41165810
vt 0.47077420 0.41346660
vt 0.47589840 0.43922700
vt 0.45176730 0.44922240
vt 0.43717520 0.42738380
vt 0.45328260 0.41875440
vt 0.44354330 0.39524170
vt 0.46581010 0.38851030
vt 0.46174410 0.36806910
vt 0.48895790 0.36536250
vt 0.48895790 0.34982710
vt 0.51920190 0.35283500
vt 0.52105870 0.34350020
vt 0.55193780 0.35283500
vt 0.52233050 0.33779010
vt 0.48914050 0.33461360
vt 0.48968630 0.33242410
vt 0.45613460 0.33598460
vt 0.48895790 0.34030750
vt 0.45685700 0.34350020
vt 0.45595110 0.33797100
vt 0.42401240 0.34763430
vt 0.42381080 0.34578830
vt 0.39393990 0.36167360
vt 0.45871380 0.35283500
vt 0.42962090 0.36163000
vt 0.42597790 0.35283510
vt 0.39754240 0.36806920
vt 0.39457450 0.36337550
vt 0.36873850 0.38450200
vt 0.36772300 0.38300700
vt 0.43556610 0.37598290
vt 0.41145960 0.38889770
vt 0.40283020 0.37598290
vt 0.37931760 0.39524170
vt 0.34760500 0.41032070
vt 0.35214500 0.41346660
vt 0.37258620 0.38851030
vt 0.42303860 0.40622690
vt 0.40504280 0.42096700
vt 0.33691090 0.44190220
vt 0.34570590 0.44554510
vt 0.39030270 0.40622690
vt 0.37297350 0.42738380
vt 0.36005870 0.41875440
vt 0.42303860 0.43896280
vt 0.41145960 0.45309940
vt 0.33691090 0.47463800
vt 0.35214500 0.47766830
vt 0.39030270 0.43896280
vt 0.37931760 0.45946760
vt 0.36005870 0.45149030
vt 0.43329830 0.46769150
vt 0.40283020 0.46920680
vt 0.37258620 0.48173430
vt 0.34943840 0.50488210
f 3/3/3 2/2/2 1/1/1
f 2/2/2 3/3/3 4/4/4
f 5/5/5 3/3/3 1/1/1
f 6/6/6 5/5/5 1/1/1
f 3/3/3 5/5/5 7/7/7
f 5/5/5 6/6/6 7/7/7
f 8/8/8 6/6/6 1/1/1
f 6/6/6 8/8/8 9/9/9
f 3/3/3 10/10/10 4/4/4
f 10/10/10 11/11/11 4/4/4
f 10/10/10 3/3/3 12/12/12
f 11/11/11 10/10/10 12/12/12
f 11/11/11 13/13/13 4/4/4
f 13/13/13 11/11/11 14/14/14
f 15/15/15 3/3/3 7/7/7
f 3/3/3 15/15/15 12/12/12
f 16/16/16 15/15/15 7/7/7
f 15/15/15 16/16/16 12/12/12
f 17/17/17 6/6/6 9/9/9
f 18/18/18 17/17/17 9/9/9
f 6/6/6 17/17/17 19/19/19
f 17/17/17 18/18/18 19/19/19
f 20/20/20 18/18/18 9/9/9
f 18/18/18 20/20/20 21/21/21
f 6/6/6 22/22/22 7/7/7
f 22/22/22 6/6/6 19/19/19
f 22/22/22 23/23/23 7/7/7
f 23/23/23 22/22/22 19/19/19
f 24/24/24 16/16/16 7/7/7
f 23/23/23 24/24/24 7/7/7
f 16/16/16 24/24/24 25/25/25
f 24/24/24 23/23/23 25/25/25
f 26/26/26 18/18/18 21/21/21
f 27/27/27 26/26/26 21/21/21
f 18/18/18 26/26/26 28/28/28
f 26/26/26 27/27/27 28/28/28
f 29/29/29 27/27/27 21/21/21
f 27/27/27 29/29/29 30/30/30
f 18/18/18 31/31/31 19/19/19
f 31/31/31 18/18/18 28/28/28
f 31/31/31 32/32/32 19/19/19
f 32/32/32 31/31/31 28/28/28
f 33/33/33 23/23/23 19/19/19
f 32/32/32 33/33/33 19/19/19
f 23/23/23 33/33/33 34/34/34
f 33/33/33 32/32/32 34/34/34
f 23/23/23 35/35/35 25/25/25
f 35/35/35 23/23/23 34/34/34
f 35/35/35 36/36/36 25/25/25
f 36/36/36 35/35/35 34/34/34
f 37/37/37 27/27/27 30/30/30
f 38/38/38 37/37/37 30/30/30
f 27/27/27 37/37/37 39/39/39
f 37/37/37 38/38/38 39/39/39
f 40/40/40 38/38/38 30/30/30
f 38/38/38 40/40/40 41/41/41
f 42/42/42 27/27/27 39/39/39
f 43/43/43 42/42/42 39/39/39
f 27/27/27 42/42/42 28/28/28
f 42/42/42 43/43/43 28/28/28
f 43/43/43 44/44/44 28/28/28
f 44/44/44 43/43/43 45/45/45
f 44/44/44 32/32/32 28/28/28
f 32/32/32 44/44/44 45/45/45
f 32/32/32 46/46/46 34/34/34
f 46/46/46 32/32/32 45/45/45
f 46/46/46 47/47/47 34/34/34
f 47/47/47 46/46/46 45/45/45
f 47/47/47 48/48/48 34/34/34
f 48/48/48 47/47/47 49/49/49
f 48/48/48 36/36/36 34/34/34
f 36/36/36 48/48/48 49/49/49
f 38/38/38 50/50/50 39/39/39
f 50/50/50 51/51/51 39/39/39
f 50/50/50 38/38/38 52/52/52
f 51/51/51 50/50/50 52/52/52
f 53/53/53 43/43/43 39/39/39
f 51/51/51 53/53/53 39/39/39
f 43/43/43 53/53/53 54/54/54
f 53/53/53 51/51/51 54/54/54
f 43/43/43 55/55/55 45/45/45
f 55/55/55 43/43/43 54/54/54
f 55/55/55 56/56/56 45/45/45
f 56/56/56 55/55/55 54/54/54
f 57/57/57 47/47/47 45/45/45
f 56/56/56 57/57/57 45/45/45
f 47/47/47 57/57/57 58/58/58
f 57/57/57 56/56/56 58/58/58
f 38/38/38 59/59/59 52/52/52
f 59/59/59 60/60/60 52/52/52
f 59/59/59 38/38/38 41/41/41
f 60/60/60 59/59/59 41/41/41
f 61/61/61 60/60/60 41/41/41
f 60/60/60 61/61/61 62/62/62
f 63/63/63 47/47/47 58/58/58
f 64/64/64 63/63/63 58/58/58
f 47/47/47 63/63/63 49/49/49
f 63/63/63 64/64/64 49/49/49
f 65/65/65 60/60/60 62/62/62
f 66/66/66 65/65/65 62/62/62
f 60/60/60 65/65/65 67/67/67
f 65/65/65 66/66/66 67/67/67
f 68/68/68 66/66/66 62/62/62
f 66/66/66 68/68/68 69/69/69
f 70/70/70 60/60/60 67/67/67
f 71/71/71 70/70/70 67/67/67
f 60/60/60 70/70/70 52/52/52
f 70/70/70 71/71/71 52/52/52
f 71/71/71 72/72/72 52/52/52
f 72/72/72 71/71/71 73/73/73
f 72/72/72 51/51/51 52/52/52
f 51/51/51 72/72/72 73/73/73
f 74/74/74 51/51/51 73/73/73
f 75/75/75 74/74/74 73/73/73
f 51/51/51 74/74/74 54/54/54
f 74/74/74 75/75/75 54/54/54
f 75/75/75 76/76/76 54/54/54
f 76/76/76 75/75/75 77/77/77
f 76/76/76 56/56/56 54/54/54
f 56/56/56 76/76/76 77/77/77
f 78/78/78 56/56/56 77/77/77
f 79/79/79 78/78/78 77/77/77
f 56/56/56 78/78/78 58/58/58
f 78/78/78 79/79/79 58/58/58
f 79/79/79 80/80/80 58/58/58
f 80/80/80 64/64/64 58/58/58
f 80/80/80 79/79/79 81/81/81
f 64/64/64 80/80/80 81/81/81
f 82/82/82 75/75/75 73/73/73
f 83/83/83 82/82/82 73/73/73
f 75/75/75 82/82/82 84/84/84
f 82/82/82 83/83/83 84/84/84
f 75/75/75 85/85/85 77/77/77
f 85/85/85 75/75/75 84/84/84
f 85/85/85 86/86/86 77/77/77
f 86/86/86 85/85/85 84/84/84
f 87/87/87 79/79/79 77/77/77
f 86/86/86 87/87/87 77/77/77
f 79/79/79 87/87/87 88/88/88
f 87/87/87 86/86/86 88/88/88
f 79/79/79 89/89/89 81/81/81
f 89/89/89 79/79/79 88/88/88
f 89/89/89 90/90/90 81/81/81
f 90/90/90 89/89/89 88/88/88
f 91/91/91 64/64/64 81/81/81
f 90/90/90 91/91/91 81/81/81
f 64/64/64 91/91/91 92/92/92
f 91/91/91 90/90/90 92/92/92
f 86/86/86 93/93/93 88/88/88
f 93/93/93 90/90/90 88/88/88
f 93/93/93 86/86/86 94/94/94
f 90/90/90 93/93/93 94/94/94
f 95/95/95 86/86/86 84/84/84
f 86/86/86 95/95/95 94/94/94
f 96/96/96 95/95/95 84/84/84
f 95/95/95 96/96/96 94/94/94
f 97/97/97 90/90/90 94/94/94
f 96/96/96 97/97/97 94/94/94
f 90/90/90 97/97/97 98/98/98
f 97/97/97 96/96/96 98/98/98
f 90/90/90 99/99/99 92/92/92
f 99/99/99 100/100/100 92/92/92
f 101/101/101 64/64/64 92/92/92
f 100/100/100 101/101/101 92/92/92
f 64/64/64 101/101/101 49/49/49
f 101/101/101 100/100/100 49/49/49
f 102/102/102 96/96/96 84/84/84
f 96/96/96 102/102/102 103/103/103
f 83/83/83 102/102/102 84/84/84
f 102/102/102 83/83/83 103/103/103
f 96/96/96 104/104/104 98/98/98
f 104/104/104 96/96/96 103/103/103
f 104/104/104 105/105/105 98/98/98
f 105/105/105 104/104/104 103/103/103
f 99/99/99 90/90/90 106/106/106
f 100/100/100 99/99/99 106/106/106
f 100/100/100 107/107/107 49/49/49
f 107/107/107 100/100/100 108/108/108
f 107/107/107 36/36/36 49/49/49
f 36/36/36 107/107/107 108/108/108
f 105/105/105 109/109/109 98/98/98
f 109/109/109 90/90/90 98/98/98
f 110/110/110 100/100/100 106/106/106
f 100/100/100 110/110/110 108/108/108
f 111/111/111 110/110/110 106/106/106
f 110/110/110 111/111/111 108/108/108
f 112/112/112 36/36/36 108/108/108
f 113/113/113 112/112/112 108/108/108
f 36/36/36 112/112/112 25/25/25
f 112/112/112 113/113/113 25/25/25
f 109/109/109 105/105/105 114/114/114
f 90/90/90 109/109/109 114/114/114
f 90/90/90 115/115/115 106/106/106
f 115/115/115 111/111/111 106/106/106
f 115/115/115 90/90/90 116/116/116
f 111/111/111 115/115/115 116/116/116
f 111/111/111 117/117/117 108/108/108
f 117/117/117 113/113/113 108/108/108
f 117/117/117 111/111/111 118/118/118
f 113/113/113 117/117/117 118/118/118
f 113/113/113 119/119/119 25/25/25
f 119/119/119 113/113/113 120/120/120
f 119/119/119 16/16/16 25/25/25
f 16/16/16 119/119/119 120/120/120
f 121/121/121 90/90/90 114/114/114
f 122/122/122 121/121/121 114/114/114
f 90/90/90 121/121/121 123/123/123
f 121/121/121 122/122/122 123/123/123
f 90/90/90 124/124/124 116/116/116
f 124/124/124 125/125/125 116/116/116
f 126/126/126 111/111/111 116/116/116
f 125/125/125 126/126/126 116/116/116
f 111/111/111 126/126/126 118/118/118
f 126/126/126 125/125/125 118/118/118
f 127/127/127 113/113/113 118/118/118
f 113/113/113 127/127/127 120/120/120
f 128/128/128 127/127/127 118/118/118
f 127/127/127 128/128/128 120/120/120
f 129/129/129 16/16/16 120/120/120
f 130/130/130 129/129/129 120/120/120
f 16/16/16 129/129/129 12/12/12
f 129/129/129 130/130/130 12/12/12
f 124/124/124 90/90/90 131/131/131
f 125/125/125 124/124/124 131/131/131
f 125/125/125 132/132/132 118/118/118
f 132/132/132 128/128/128 118/118/118
f 132/132/132 125/125/125 133/133/133
f 128/128/128 132/132/132 133/133/133
f 128/128/128 134/134/134 120/120/120
f 134/134/134 130/130/130 120/120/120
f 134/134/134 128/128/128 135/135/135
f 130/130/130 134/134/134 135/135/135
f 130/130/130 136/136/136 12/12/12
f 136/136/136 130/130/130 137/137/137
f 136/136/136 11/11/11 12/12/12
f 11/11/11 136/136/136 137/137/137
f 138/138/138 125/125/125 131/131/131
f 125/125/125 138/138/138 133/133/133
f 139/139/139 138/138/138 131/131/131
f 138/138/138 139/139/139 133/133/133
f 128/128/128 140/140/140 135/135/135
f 140/140/140 128/128/128 133/133/133
f 141/141/141 140/140/140 133/133/133
f 140/140/140 141/141/141 135/135/135
f 142/142/142 130/130/130 135/135/135
f 130/130/130 142/142/142 137/137/137
f 143/143/143 142/142/142 135/135/135
f 142/142/142 143/143/143 137/137/137
f 144/144/144 11/11/11 137/137/137
f 145/145/145 144/144/144 137/137/137
f 11/11/11 144/144/144 14/14/14
f 144/144/144 145/145/145 14/14/14
f 145/145/145 146/146/146 14/14/14
f 146/146/146 145/145/145 147/147/147
f 148/148/148 141/141/141 133/133/133
f 141/141/141 148/148/148 149/149/149
f 139/139/139 148/148/148 133/133/133
f 148/148/148 139/139/139 149/149/149
f 141/141/141 150/150/150 135/135/135
f 150/150/150 143/143/143 135/135/135
f 150/150/150 141/141/141 151/151/151
f 143/143/143 150/150/150 151/151/151
f 143/143/143 152/152/152 137/137/137
f 152/152/152 145/145/145 137/137/137
f 152/152/152 143/143/143 153/153/153
f 145/145/145 152/152/152 153/153/153
f 145/145/145 154/154/154 147/147/147
f 154/154/154 145/145/145 153/153/153
f 154/154/154 155/155/155 147/147/147
f 155/155/155 154/154/154 153/153/153
f 155/155/155 156/156/156 147/147/147
f 156/156/156 155/155/155 157/157/157
f 141/141/141 158/158/158 151/151/151
f 158/158/158 159/159/159 151/151/151
f 158/158/158 141/141/141 149/149/149
f 159/159/159 158/158/158 149/149/149
f 160/160/160 143/143/143 151/151/151
f 143/143/143 160/160/160 153/153/153
f 161/161/161 160/160/160 151/151/151
f 160/160/160 161/161/161 153/153/153
f 162/162/162 155/155/155 153/153/153
f 161/161/161 162/162/162 153/153/153
f 155/155/155 162/162/162 163/163/163
f 162/162/162 161/161/161 163/163/163
f 155/155/155 164/164/164 157/157/157
f 164/164/164 155/155/155 163/163/163
f 164/164/164 165/165/165 157/157/157
f 165/165/165 164/164/164 163/163/163
f 165/165/165 166/166/166 157/157/157
f 166/166/166 165/165/165 167/167/167
f 159/159/159 168/168/168 151/151/151
f 168/168/168 161/161/161 151/151/151
f 161/161/161 168/168/168 169/169/169
f 168/168/168 159/159/159 169/169/169
f 161/161/161 170/170/170 163/163/163
f 170/170/170 161/161/161 169/169/169
f 170/170/170 171/171/171 163/163/163
f 171/171/171 170/170/170 169/169/169
f 172/172/172 165/165/165 163/163/163
f 171/171/171 172/172/172 163/163/163
f 165/165/165 172/172/172 173/173/173
f 172/172/172 171/171/171 173/173/173
f 165/165/165 174/174/174 167/167/167
f 174/174/174 165/165/165 173/173/173
f 174/174/174 175/175/175 167/167/167
f 175/175/175 174/174/174 173/173/173
f 175/175/175 176/176/176 167/167/167
f 176/176/176 175/175/175 177/177/177
f 175/175/175 178/178/178 177/177/177
f 178/178/178 179/179/179 177/177/177
f 178/178/178 175/175/175 180/180/180
f 179/179/179 178/178/178 180/180/180
f 179/179/179 181/181/181 177/177/177
f 181/181/181 179/179/179 182/182/182
f 183/183/183 175/175/175 173/173/173
f 175/175/175 183/183/183 180/180/180
f 184/184/184 183/183/183 173/173/173
f 183/183/183 184/184/184 180/180/180
f 171/171/171 185/185/185 173/173/173
f 185/185/185 184/184/184 173/173/173
f 185/185/185 171/171/171 186/186/186
f 184/184/184 185/185/185 186/186/186
f 171/171/171 187/187/187 186/186/186
f 187/187/187 188/188/188 186/186/186
f 187/187/187 171/171/171 169/169/169
f 188/188/188 187/187/187 169/169/169
f 189/189/189 188/188/188 169/169/169
f 188/188/188 189/189/189 190/190/190
f 159/159/159 189/189/189 169/169/169
f 189/189/189 159/159/159 190/190/190
f 159/159/159 191/191/191 190/190/190
f 191/191/191 192/192/192 190/190/190
f 191/191/191 159/159/159 149/149/149
f 192/192/192 191/191/191 149/149/149
f 193/193/193 192/192/192 149/149/149
f 139/139/139 193/193/193 149/149/149
f 193/193/193 139/139/139 194/194/194
f 192/192/192 193/193/193 194/194/194
f 139/139/139 195/195/195 194/194/194
f 195/195/195 139/139/139 131/131/131
f 90/90/90 195/195/195 131/131/131
f 195/195/195 90/90/90 194/194/194
f 196/196/196 192/192/192 194/194/194
f 90/90/90 196/196/196 194/194/194
f 192/192/192 196/196/196 197/197/197
f 196/196/196 90/90/90 197/197/197
f 192/192/192 198/198/198 190/190/190
f 198/198/198 192/192/192 197/197/197
f 198/198/198 199/199/199 190/190/190
f 199/199/199 198/198/198 197/197/197
f 90/90/90 200/200/200 197/197/197
f 200/200/200 199/199/199 197/197/197
f 200/200/200 90/90/90 201/201/201
f 199/199/199 200/200/200 201/201/201
f 90/90/90 202/202/202 201/201/201
f 202/202/202 203/203/203 201/201/201
f 199/199/199 204/204/204 190/190/190
f 204/204/204 199/199/199 205/205/205
f 204/204/204 188/188/188 190/190/190
f 188/188/188 204/204/204 205/205/205
f 206/206/206 199/199/199 201/201/201
f 203/203/203 206/206/206 201/201/201
f 199/199/199 206/206/206 205/205/205
f 206/206/206 203/203/203 205/205/205
f 202/202/202 90/90/90 207/207/207
f 203/203/203 202/202/202 207/207/207
f 208/208/208 188/188/188 205/205/205
f 209/209/209 208/208/208 205/205/205
f 188/188/188 208/208/208 186/186/186
f 208/208/208 209/209/209 186/186/186
f 203/203/203 210/210/210 205/205/205
f 210/210/210 209/209/209 205/205/205
f 210/210/210 203/203/203 211/211/211
f 209/209/209 210/210/210 211/211/211
f 212/212/212 203/203/203 207/207/207
f 203/203/203 212/212/212 211/211/211
f 213/213/213 212/212/212 207/207/207
f 212/212/212 213/213/213 211/211/211
f 90/90/90 214/214/214 207/207/207
f 214/214/214 213/213/213 207/207/207
f 209/209/209 215/215/215 186/186/186
f 215/215/215 209/209/209 216/216/216
f 215/215/215 184/184/184 186/186/186
f 184/184/184 215/215/215 216/216/216
f 217/217/217 209/209/209 211/211/211
f 209/209/209 217/217/217 216/216/216
f 218/218/218 217/217/217 211/211/211
f 217/217/217 218/218/218 216/216/216
f 214/214/214 90/90/90 219/219/219
f 213/213/213 214/214/214 219/219/219
f 220/220/220 184/184/184 216/216/216
f 221/221/221 220/220/220 216/216/216
f 184/184/184 220/220/220 180/180/180
f 220/220/220 221/221/221 180/180/180
f 213/213/213 222/222/222 211/211/211
f 222/222/222 218/218/218 211/211/211
f 222/222/222 213/213/213 223/223/223
f 218/218/218 222/222/222 223/223/223
f 224/224/224 213/213/213 219/219/219
f 213/213/213 224/224/224 223/223/223
f 225/225/225 224/224/224 219/219/219
f 224/224/224 225/225/225 223/223/223
f 90/90/90 226/226/226 219/219/219
f 226/226/226 225/225/225 219/219/219
f 226/226/226 90/90/90 227/227/227
f 225/225/225 226/226/226 227/227/227
f 218/218/218 228/228/228 216/216/216
f 228/228/228 221/221/221 216/216/216
f 228/228/228 218/218/218 229/229/229
f 221/221/221 228/228/228 229/229/229
f 230/230/230 218/218/218 223/223/223
f 218/218/218 230/230/230 229/229/229
f 231/231/231 230/230/230 223/223/223
f 230/230/230 231/231/231 229/229/229
f 90/90/90 232/232/232 227/227/227
f 232/232/232 233/233/233 227/227/227
f 232/232/232 90/90/90 123/123/123
f 233/233/233 232/232/232 123/123/123
f 225/225/225 234/234/234 223/223/223
f 234/234/234 231/231/231 223/223/223
f 234/234/234 225/225/225 235/235/235
f 231/231/231 234/234/234 235/235/235
f 236/236/236 225/225/225 227/227/227
f 233/233/233 236/236/236 227/227/227
f 225/225/225 236/236/236 235/235/235
f 236/236/236 233/233/233 235/235/235
f 237/237/237 233/233/233 123/123/123
f 233/233/233 237/237/237 238/238/238
f 122/122/122 237/237/237 123/123/123
f 237/237/237 122/122/122 238/238/238
f 233/233/233 239/239/239 235/235/235
f 239/239/239 233/233/233 238/238/238
f 239/239/239 240/240/240 235/235/235
f 240/240/240 239/239/239 238/238/238
f 241/241/241 231/231/231 235/235/235
f 240/240/240 241/241/241 235/235/235
f 231/231/231 241/241/241 242/242/242
f 241/241/241 240/240/240 242/242/242
f 243/243/243 231/231/231 242/242/242
f 244/244/244 243/243/243 242/242/242
f 231/231/231 243/243/243 229/229/229
f 243/243/243 244/244/244 229/229/229
f 244/244/244 245/245/245 229/229/229
f 245/245/245 244/244/244 246/246/246
f 245/245/245 221/221/221 229/229/229
f 221/221/221 245/245/245 246/246/246
f 247/247/247 221/221/221 246/246/246
f 221/221/221 247/247/247 180/180/180
f 247/247/247 179/179/179 180/180/180
f 179/179/179 247/247/247 246/246/246
f 248/248/248 179/179/179 246/246/246
f 249/249/249 248/248/248 246/246/246
f 179/179/179 248/248/248 182/182/182
f 248/248/248 249/249/249 182/182/182
f 249/249/249 250/250/250 182/182/182
f 250/250/250 249/249/249 251/251/251
f 244/244/244 252/252/252 246/246/246
f 252/252/252 249/249/249 246/246/246
f 252/252/252 244/244/244 253/253/253
f 249/249/249 252/252/252 253/253/253
f 249/249/249 254/254/254 251/251/251
f 254/254/254 249/249/249 253/253/253
f 254/254/254 255/255/255 251/251/251
f 255/255/255 254/254/254 253/253/253
f 255/255/255 256/256/256 251/251/251
f 256/256/256 255/255/255 257/257/257
f 244/244/244 258/258/258 253/253/253
f 258/258/258 259/259/259 253/253/253
f 258/258/258 244/244/244 242/242/242
f 259/259/259 258/258/258 242/242/242
f 260/260/260 255/255/255 253/253/253
f 259/259/259 260/260/260 253/253/253
f 255/255/255 260/260/260 261/261/261
f 260/260/260 259/259/259 261/261/261
f 255/255/255 262/262/262 257/257/257
f 262/262/262 255/255/255 261/261/261
f 262/262/262 263/263/263 257/257/257
f 263/263/263 262/262/262 261/261/261
f 263/263/263 264/264/264 257/257/257
f 264/264/264 263/263/263 69/69/69
f 265/265/265 259/259/259 242/242/242
f 259/259/259 265/265/265 266/266/266
f 240/240/240 265/265/265 242/242/242
f 265/265/265 240/240/240 266/266/266
f 259/259/259 267/267/267 261/261/261
f 267/267/267 259/259/259 266/266/266
f 267/267/267 268/268/268 261/261/261
f 268/268/268 267/267/267 266/266/266
f 263/263/263 269/269/269 69/69/69
f 269/269/269 263/263/263 270/270/270
f 269/269/269 66/66/66 69/69/69
f 66/66/66 269/269/269 270/270/270
f 271/271/271 263/263/263 261/261/261
f 268/268/268 271/271/271 261/261/261
f 263/263/263 271/271/271 270/270/270
f 271/271/271 268/268/268 270/270/270
f 240/240/240 272/272/272 266/266/266
f 272/272/272 273/273/273 266/266/266
f 272/272/272 240/240/240 238/238/238
f 273/273/273 272/272/272 238/238/238
f 274/274/274 66/66/66 270/270/270
f 275/275/275 274/274/274 270/270/270
f 66/66/66 274/274/274 67/67/67
f 274/274/274 275/275/275 67/67/67
f 276/276/276 268/268/268 266/266/266
f 273/273/273 276/276/276 266/266/266
f 268/268/268 276/276/276 277/277/277
f 276/276/276 273/273/273 277/277/277
f 268/268/268 278/278/278 270/270/270
f 278/278/278 275/275/275 270/270/270
f 278/278/278 268/268/268 277/277/277
f 275/275/275 278/278/278 277/277/277
f 279/279/279 273/273/273 238/238/238
f 273/273/273 279/279/279 280/280/280
f 122/122/122 279/279/279 238/238/238
f 279/279/279 122/122/122 280/280/280
f 275/275/275 281/281/281 67/67/67
f 281/281/281 275/275/275 282/282/282
f 281/281/281 71/71/71 67/67/67
f 71/71/71 281/281/281 282/282/282
f 273/273/273 283/283/283 277/277/277
f 283/283/283 273/273/273 280/280/280
f 283/283/283 284/284/284 277/277/277
f 284/284/284 283/283/283 280/280/280
f 285/285/285 275/275/275 277/277/277
f 275/275/275 285/285/285 282/282/282
f 284/284/284 285/285/285 277/277/277
f 285/285/285 284/284/284 282/282/282
f 122/122/122 286/286/286 280/280/280
f 286/286/286 122/122/122 114/114/114
f 105/105/105 286/286/286 114/114/114
f 286/286/286 105/105/105 280/280/280
f 105/105/105 287/287/287 280/280/280
f 287/287/287 284/284/284 280/280/280
f 287/287/287 105/105/105 103/103/103
f 284/284/284 287/287/287 103/103/103
f 288/288/288 284/284/284 103/103/103
f 284/284/284 288/288/288 282/282/282
f 83/83/83 288/288/288 103/103/103
f 288/288/288 83/83/83 282/282/282
f 83/83/83 289/289/289 282/282/282
f 289/289/289 71/71/71 282/282/282
f 289/289/289 83/83/83 73/73/73
f 71/71/71 289/289/289 73/73/73

