mtllib material.mtl
usemtl material_0
v -0.00500000 0.01963073 0.00499992
v -0.00500000 0.01963073 -0.00500008
v 0.00500000 0.01963073 -0.00500008
v 0.00500000 0.01963073 0.00499992
v -0.13234720 0.03874042 0.14885890
v -0.13514340 0.03874042 0.13273510
v -0.10918170 0.03874042 0.11862120
v -0.10727590 0.03874042 0.14294720
v -0.12356590 0.03874042 0.16706280
v -0.08351028 0.03874042 0.10577070
v -0.10590580 0.03874042 0.18594220
v -0.08047851 0.03874042 0.13778150
v -0.06343269 0.03874042 0.09933762
v -0.08369743 0.03874042 0.19870000
v -0.05714272 0.03874042 0.13486430
v -0.04160446 0.03874042 0.09334137
v -0.05978935 0.03874042 0.21055770
v -0.03280655 0.03874042 0.13169190
v -0.03172478 0.03874042 0.21787110
v 0.00000031 0.03874042 0.09104202
v 0.00000015 0.03874042 0.13085860
v 0.00000031 0.03874042 0.22139040
v 0.03172539 0.03874042 0.21787110
v 0.03280647 0.03874042 0.13169190
v 0.04160515 0.03874042 0.09334137
v 0.05978988 0.03874042 0.21055770
v 0.05714310 0.03874042 0.13486430
v 0.06343315 0.03874042 0.09933762
v 0.08369797 0.03874042 0.19870000
v 0.08047882 0.03874042 0.13778150
v 0.08351089 0.03874042 0.10577070
v 0.10590620 0.03874042 0.18594220
v 0.10727640 0.03874042 0.14294720
v 0.12356610 0.03874042 0.16706280
v 0.10918240 0.03874042 0.11862120
v 0.13234780 0.03874042 0.14885890
v 0.13514380 0.03874042 0.13273510
vn 0.00000000 1.00000000 0.00000000
vn 0.00000000 1.00000000 0.00000000
vn 0.00000000 1.00000000 0.00000000
vn 0.00000000 1.00000000 0.00000000
vn 0.00000000 1.00000000 0.00000000
vn 0.00000000 1.00000000 0.00000000
vn 0.00000000 1.00000000 0.00000000
vn 0.00000000 1.00000000 0.00000000
vn 0.00000000 1.00000000 0.00000000
vn 0.00000000 1.00000000 0.00000000
vn 0.00000000 1.00000000 0.00000000
vn 0.00000000 1.00000000 0.00000000
vn 0.00000000 1.00000000 0.00000000
vn 0.00000000 1.00000000 0.00000000
vn 0.00000000 1.00000000 0.00000000
vn 0.00000000 1.00000000 0.00000000
vn 0.00000000 1.00000000 0.00000000
vn 0.00000000 1.00000000 0.00000000
vn 0.00000000 1.00000000 0.00000000
vn 0.00000000 1.00000000 0.00000000
vn 0.00000000 1.00000000 0.00000000
vn 0.00000000 1.00000000 0.00000000
vn 0.00000000 1.00000000 0.00000000
vn 0.00000000 1.00000000 0.00000000
vn 0.00000000 1.00000000 0.00000000
vn 0.00000000 1.00000000 0.00000000
vn 0.00000000 1.00000000 0.00000000
vn 0.00000000 1.00000000 0.00000000
vn 0.00000000 1.00000000 0.00000000
vn 0.00000000 1.00000000 0.00000000
vn 0.00000000 1.00000000 0.00000000
vn 0.00000000 1.00000000 0.00000000
vn 0.00000000 1.00000000 0.00000000
vn 0.00000000 1.00000000 0.00000000
vn 0.00000000 1.00000000 0.00000000
vn 0.00000000 1.00000000 0.00000000
vn 0.00000000 1.00000000 0.00000000
vt -190.62780000 -33.76498000
vt -190.62780000 -32.76498000
vt -189.62780000 -32.76498000
vt -189.62780000 -33.76498000
vt 0.46612860 0.20067480
vt 0.45989480 0.23504870
vt 0.51508470 0.26560480
vt 0.51955270 0.21370590
vt 0.48517350 0.16195750
vt 0.56967580 0.29345880
vt 0.52318330 0.12194510
vt 0.57667370 0.22517380
vt 0.61243070 0.30752100
vt 0.57080200 0.09507507
vt 0.62644170 0.23178390
vt 0.65893010 0.32067990
vt 0.62203450 0.07015443
vt 0.67834140 0.23895600
vt 0.68206520 0.05500311
vt 0.74770800 0.32627180
vt 0.74836160 0.24127370
vt 0.74984790 0.04801118
vt 0.81751510 0.05604482
vt 0.81840850 0.24003330
vt 0.83656130 0.32204610
vt 0.87730550 0.07211769
vt 0.87041280 0.23366030
vt 0.88325690 0.30960390
vt 0.92814900 0.09782350
vt 0.92027710 0.22781650
vt 0.92622380 0.29620100
vt 0.97534800 0.12542280
vt 0.97756770 0.21722850
vt 1.01273800 0.16601500
vt 0.98123650 0.26919000
vt 1.03118500 0.20502070
vt 1.03689000 0.23948640
f 3/3/3 2/2/2 1/1/1
f 4/4/4 3/3/3 1/1/1
f 7/7/7 6/6/6 5/5/5
f 8/8/8 7/7/7 5/5/5
f 8/8/8 5/5/5 9/9/9
f 10/10/10 7/7/7 8/8/8
f 11/11/11 8/8/8 9/9/9
f 12/12/12 10/10/10 8/8/8
f 12/12/12 8/8/8 11/11/11
f 13/13/13 10/10/10 12/12/12
f 14/14/14 12/12/12 11/11/11
f 15/15/15 13/13/13 12/12/12
f 15/15/15 12/12/12 14/14/14
f 16/16/16 13/13/13 15/15/15
f 17/17/17 15/15/15 14/14/14
f 18/18/18 16/16/16 15/15/15
f 18/18/18 15/15/15 17/17/17
f 19/19/19 18/18/18 17/17/17
f 20/20/20 16/16/16 18/18/18
f 21/21/21 18/18/18 19/19/19
f 21/21/21 20/20/20 18/18/18
f 22/22/22 21/21/21 19/19/19
f 21/21/21 22/22/22 23/23/23
f 20/20/20 21/21/21 24/24/24
f 24/24/24 21/21/21 23/23/23
f 25/25/25 20/20/20 24/24/24
f 24/24/24 23/23/23 26/26/26
f 25/25/25 24/24/24 27/27/27
f 27/27/27 24/24/24 26/26/26
f 28/28/28 25/25/25 27/27/27
f 27/27/27 26/26/26 29/29/29
f 28/28/28 27/27/27 30/30/30
f 30/30/30 27/27/27 29/29/29
f 31/31/31 28/28/28 30/30/30
f 30/30/30 29/29/29 32/32/32
f 31/31/31 30/30/30 33/33/33
f 33/33/33 30/30/30 32/32/32
f 33/33/33 32/32/32 34/34/34
f 35/35/35 31/31/31 33/33/33
f 36/36/36 33/33/33 34/34/34
f 35/35/35 33/33/33 36/36/36
f 37/37/37 35/35/35 36/36/36

