mtllib FP424:polySurface112_0d22ede7.mtl
g FP424:polySurface112_0d22ede7
v 2.46161 -0.12421 1.19893
v 2.46161 -0.12056 1.20258
v 2.4654 -0.12056 1.19893
v 2.46161 0.0437 1.19893
v 2.4654 0.04005 1.19893
v 2.46161 0.04005 1.20258
v 2.46161 -0.12056 1.20258
v 1.64803 -0.12056 1.20258
v 1.64803 -0.06825 1.20258
v 1.64803 0.04005 1.20258
v 2.46161 0.04005 1.20258
v 2.46161 0.04005 1.20258
v 2.4654 0.04005 1.19893
v 2.4654 -0.12056 1.19893
v 2.46161 -0.12056 1.20258
v 2.46161 0.0437 1.19893
v 2.46161 0.04005 1.20258
v 1.64803 0.04005 1.20258
v 1.64803 0.04251 1.20012
v 1.64803 0.0437 1.19893
v 2.41378 0.0437 1.14975
v 2.46161 0.0437 1.19893
v 1.64803 0.0437 1.19893
v 1.64803 0.0437 1.16513
v 1.64803 0.0437 1.1635
v 2.40859 0.0437 1.14442
v 1.64803 0.0437 1.15988
v 1.64803 0.0437 1.14442
v 1.64803 -0.12056 1.20258
v 2.46161 -0.12056 1.20258
v 1.64803 -0.12175 1.20139
v 2.46161 -0.12421 1.19893
v 1.64803 -0.12421 1.19893
vn 0.325092 -0.3373785 0.3373785
vn 0.325092 -0.3373785 0.3373785
vn 0.325092 -0.3373785 0.3373785
vn 0.3250998 0.3373748 0.3373748
vn 0.3250998 0.3373748 0.3373748
vn 0.3250998 0.3373748 0.3373748
vn 0 0 0.5773503
vn 0 1.68394E-06 0.5773503
vn -8.194992E-08 2.559834E-07 0.5773503
vn -9.664073E-08 0 0.5773503
vn 0 0 0.5773503
vn 0.4006116 0 0.4157447
vn 0.4006116 0 0.4157447
vn 0.4006116 0 0.4157447
vn 0.4006116 0 0.4157447
vn 0 0.4082451 0.4082514
vn 0 0.4082451 0.4082514
vn -6.268201E-08 0.4082476 0.4082489
vn -7.867443E-08 0.408249 0.4082476
vn -1.61091E-07 0.408256 0.4082406
vn 0 0.5773503 0
vn 0 0.5773503 0
vn 0 0.5773503 5.948601E-07
vn 0 0.5773503 5.329072E-07
vn 0 0.5773503 -4.238994E-07
vn 0 0.5773503 0
vn 0 0.5773503 0
vn 0 0.5773503 0
vn 0 -0.408252 0.4082446
vn 0 -0.4082451 0.4082514
vn 0 -0.4082478 0.4082488
vn 0 -0.4082451 0.4082514
vn 0 -0.4082469 0.4082496
vt 0.5465895 0.3785799
vt 0.5465895 0.3822478
vt 0.5503954 0.3822478
vt 0.5497881 0.577713
vt 0.5536239 0.5777128
vt 0.5497881 0.5740162
vt 0.5465895 0.3822478
vt -0.2714397 0.3822477
vt -0.2714399 0.4348493
vt -0.2714399 0.5437381
vt 0.5465895 0.5437381
vt 0.5465895 0.5437381
vt 0.5503954 0.5437381
vt 0.5503954 0.3822478
vt 0.5465895 0.3822478
vt 0.5497881 0.577713
vt 0.5497881 0.5740162
vt -0.2746684 0.5740165
vt -0.2746684 0.5765089
vt -0.2746684 0.577713
vt 0.5013132 0.6275518
vt 0.5497881 0.577713
vt -0.2746684 0.577713
vt -0.2746684 0.6119741
vt -0.2746684 0.6136247
vt 0.4960577 0.6329548
vt -0.2746684 0.6172889
vt -0.2746684 0.6329548
vt -0.2714397 0.3822477
vt 0.5465895 0.3822478
vt -0.2714397 0.3810531
vt 0.5465895 0.3785799
vt -0.2714397 0.3785799
usemtl bathroomTilesGreen1
f 3/3/3 2/2/2 1/1/1
f 6/6/6 5/5/5 4/4/4
f 9/9/9 8/8/8 7/7/7
f 10/10/10 9/9/9 7/7/7
f 11/11/11 10/10/10 7/7/7
f 14/14/14 13/13/13 12/12/12
f 15/15/15 14/14/14 12/12/12
f 18/18/18 17/17/17 16/16/16
f 19/19/19 18/18/18 16/16/16
f 20/20/20 19/19/19 16/16/16
f 23/23/23 22/22/22 21/21/21
f 24/24/24 23/23/23 21/21/21
f 25/25/25 24/24/24 21/21/21
f 25/25/25 21/21/21 26/26/26
f 27/27/27 25/25/25 26/26/26
f 28/28/28 27/27/27 26/26/26
f 31/31/31 30/30/30 29/29/29
f 32/32/32 30/30/30 31/31/31
f 33/33/33 32/32/32 31/31/31
g FP424:polySurface112_0d22ede7
v 2.46161 -0.12421 1.19893
v 2.46161 -0.12056 1.20258
v 2.4654 -0.12056 1.19893
v 2.46161 0.0437 1.19893
v 2.4654 0.04005 1.19893
v 2.46161 0.04005 1.20258
v 2.46161 -0.12056 1.20258
v 1.64803 -0.12056 1.20258
v 1.64803 -0.06825 1.20258
v 1.64803 0.04005 1.20258
v 2.46161 0.04005 1.20258
v 2.46161 0.04005 1.20258
v 2.4654 0.04005 1.19893
v 2.4654 -0.12056 1.19893
v 2.46161 -0.12056 1.20258
v 2.46161 0.0437 1.19893
v 2.46161 0.04005 1.20258
v 1.64803 0.04005 1.20258
v 1.64803 0.04251 1.20012
v 1.64803 0.0437 1.19893
v 2.41378 0.0437 1.14975
v 2.46161 0.0437 1.19893
v 1.64803 0.0437 1.19893
v 1.64803 0.0437 1.16513
v 1.64803 0.0437 1.1635
v 2.40859 0.0437 1.14442
v 1.64803 0.0437 1.15988
v 1.64803 0.0437 1.14442
v 1.64803 -0.12056 1.20258
v 2.46161 -0.12056 1.20258
v 1.64803 -0.12175 1.20139
v 2.46161 -0.12421 1.19893
v 1.64803 -0.12421 1.19893
vn 0.325092 -0.3373785 0.3373785
vn 0.325092 -0.3373785 0.3373785
vn 0.325092 -0.3373785 0.3373785
vn 0.3250998 0.3373748 0.3373748
vn 0.3250998 0.3373748 0.3373748
vn 0.3250998 0.3373748 0.3373748
vn 0 0 0.5773503
vn 0 1.68394E-06 0.5773503
vn -8.194992E-08 2.559834E-07 0.5773503
vn -9.664073E-08 0 0.5773503
vn 0 0 0.5773503
vn 0.4006116 0 0.4157447
vn 0.4006116 0 0.4157447
vn 0.4006116 0 0.4157447
vn 0.4006116 0 0.4157447
vn 0 0.4082451 0.4082514
vn 0 0.4082451 0.4082514
vn -6.268201E-08 0.4082476 0.4082489
vn -7.867443E-08 0.408249 0.4082476
vn -1.61091E-07 0.408256 0.4082406
vn 0 0.5773503 0
vn 0 0.5773503 0
vn 0 0.5773503 5.948601E-07
vn 0 0.5773503 5.329072E-07
vn 0 0.5773503 -4.238994E-07
vn 0 0.5773503 0
vn 0 0.5773503 0
vn 0 0.5773503 0
vn 0 -0.408252 0.4082446
vn 0 -0.4082451 0.4082514
vn 0 -0.4082478 0.4082488
vn 0 -0.4082451 0.4082514
vn 0 -0.4082469 0.4082496
vt 0.5465895 0.3785799
vt 0.5465895 0.3822478
vt 0.5503954 0.3822478
vt 0.5497881 0.577713
vt 0.5536239 0.5777128
vt 0.5497881 0.5740162
vt 0.5465895 0.3822478
vt -0.2714397 0.3822477
vt -0.2714399 0.4348493
vt -0.2714399 0.5437381
vt 0.5465895 0.5437381
vt 0.5465895 0.5437381
vt 0.5503954 0.5437381
vt 0.5503954 0.3822478
vt 0.5465895 0.3822478
vt 0.5497881 0.577713
vt 0.5497881 0.5740162
vt -0.2746684 0.5740165
vt -0.2746684 0.5765089
vt -0.2746684 0.577713
vt 0.5013132 0.6275518
vt 0.5497881 0.577713
vt -0.2746684 0.577713
vt -0.2746684 0.6119741
vt -0.2746684 0.6136247
vt 0.4960577 0.6329548
vt -0.2746684 0.6172889
vt -0.2746684 0.6329548
vt -0.2714397 0.3822477
vt 0.5465895 0.3822478
vt -0.2714397 0.3810531
vt 0.5465895 0.3785799
vt -0.2714397 0.3785799
usemtl bathroomTilesGreen1
f 36/36/36 35/35/35 34/34/34
f 39/39/39 38/38/38 37/37/37
f 42/42/42 41/41/41 40/40/40
f 43/43/43 42/42/42 40/40/40
f 44/44/44 43/43/43 40/40/40
f 47/47/47 46/46/46 45/45/45
f 48/48/48 47/47/47 45/45/45
f 51/51/51 50/50/50 49/49/49
f 52/52/52 51/51/51 49/49/49
f 53/53/53 52/52/52 49/49/49
f 56/56/56 55/55/55 54/54/54
f 57/57/57 56/56/56 54/54/54
f 58/58/58 57/57/57 54/54/54
f 58/58/58 54/54/54 59/59/59
f 60/60/60 58/58/58 59/59/59
f 61/61/61 60/60/60 59/59/59
f 64/64/64 63/63/63 62/62/62
f 65/65/65 63/63/63 64/64/64
f 66/66/66 65/65/65 64/64/64
