# Wavefront Obj file
# 
# verts: 152 uv-s: 262
mtllib Potato_03.mtl

g PotatoWhiteBase

v 1.472490 20.710859 7.527017
v -6.444040 21.696102 7.298534
v 20.137587 3.110225 -1.570837
v 20.071199 1.140692 6.546060
v 8.770346 18.041977 7.892692
v 14.557537 14.228379 -0.744965
v 14.552827 13.689319 8.329063
v -13.930606 20.754456 7.261054
v 1.299262 21.852196 -0.490636
v -14.228291 21.778965 -0.621255
v 1.373161 19.366795 14.984722
v -12.276748 18.391962 20.428768
v -13.173064 18.985416 14.368192
v -13.756741 15.480412 27.276894
v 0.586581 -23.693380 6.146382
v -6.555343 22.839556 -0.515780
v -6.149365 19.915613 14.439625
v 19.163448 -7.712110 -1.937365
v 18.878742 7.495684 -1.208293
v 18.147465 8.219422 8.577085
v 19.770441 2.292673 -12.068504
v -13.898565 -11.544235 31.055691
v 12.590884 -18.517710 6.798882
v 8.675495 18.859907 -0.545079
v 13.373219 14.193176 -10.554257
v 0.962842 -23.108852 -2.577140
v 7.955901 18.464870 -9.589466
v -17.074678 15.775855 22.054501
v -18.873323 16.040295 15.079173
v -15.790015 11.081686 30.295019
v -16.688046 5.253150 32.262627
v -16.394634 -2.338268 33.042599
v 19.331577 -8.787254 7.926675
v -18.622192 -11.782182 23.891592
v 18.629341 -6.628385 -12.014902
v 17.515629 9.015368 -11.358924
v 12.790473 -16.981848 -2.283188
v 12.575613 -15.093501 -11.533217
v -20.570656 17.503159 7.340125
v -20.900169 18.365265 -0.770015
v -20.309349 11.215176 23.808876
v -22.872343 11.379961 15.807125
v -21.792398 5.332520 25.060793
v -21.746849 -2.224721 25.411087
v -21.375416 -11.897078 15.745081
v -6.582160 -2.092629 38.616646
v -7.148637 5.813965 37.499714
v -7.259849 11.464889 34.547760
v -6.950121 15.484122 30.181122
v -11.251868 17.553265 24.868723
v -4.658840 -11.728279 35.271061
v -6.111979 18.736631 20.758415
v -8.728716 17.698277 25.360506
v 1.821092 17.542351 25.667774
v 5.944160 6.792060 36.681385
v 3.934070 12.431043 33.655075
v 7.213565 -11.483953 34.046558
v 7.396513 -1.456904 37.464630
v 8.483696 16.924791 16.124556
v 6.837439 16.609062 23.923077
v 15.833123 -10.385475 26.695238
v 14.718523 7.294426 28.064316
v 13.786800 12.972206 17.361280
v 11.772262 12.855845 26.341660
v 18.838068 -9.732980 17.378330
v 19.038954 0.208257 18.369663
v 16.184553 -0.486883 28.327999
v 17.239149 7.684231 18.142069
v -9.915956 -17.305628 27.065182
v -2.298268 -18.009705 27.098106
v 5.857944 -16.834860 28.796856
v 9.830236 -19.396521 22.703218
v 12.061399 -19.531649 15.371531
v -19.760887 17.363012 -9.392343
v -13.692906 20.858070 -9.054140
v -6.637479 22.181938 -9.013046
v 0.749975 21.440077 -9.137322
v -13.821250 -21.876570 -2.502945
v -13.536139 -21.355341 6.182847
v -12.421944 -20.433758 14.244955
v -10.520185 -19.666162 21.451187
v -0.780027 -21.816931 21.714413
v 0.424976 -24.028841 14.054534
v -25.522131 -12.599157 -2.126499
v -24.398458 -12.607862 7.028967
v -25.297560 -1.995316 16.508701
v -25.062651 5.426724 16.376369
v -25.615726 12.846981 -0.947336
v -25.253000 12.410001 7.567078
v -28.688999 -1.937905 7.624849
v -28.044874 6.081370 7.695493
v -28.974510 -1.433710 -2.751195
v -28.595615 5.038012 -1.117999
v -13.175042 -20.654995 -11.222108
v 1.518921 -21.287569 -11.320344
v -24.189787 -11.519702 -11.339131
v -27.601337 -1.038336 -9.034827
v -26.219025 6.441437 -10.451076
v -25.278084 -0.330926 -21.116713
v -24.663948 6.942259 -20.730488
v -23.870977 12.339522 -9.968990
v -22.478912 -10.380985 -20.687031
v -22.106329 0.423618 -30.808538
v -22.059401 7.692517 -30.716213
v -20.101170 13.225916 -29.259710
v -22.457077 12.444407 -19.895720
v -19.276648 -8.897010 -29.001331
v -16.079666 1.237995 -38.781120
v -16.241226 8.574657 -39.028515
v -16.765423 17.410065 -26.981003
v -18.501221 17.188828 -18.847055
v -12.038703 -18.633394 -19.409328
v -13.412169 -7.777600 -35.438816
v -14.722903 14.259886 -36.617569
v -12.219206 18.025808 -32.808910
v -11.857065 20.504246 -25.087677
v -13.338541 20.458586 -17.746231
v -9.739125 -13.690013 -30.860725
v -9.933920 -16.696239 -26.075680
v -10.861053 19.779528 -29.442125
v -4.659896 -6.997214 -38.514927
v -5.826320 2.253282 -42.377815
v -5.843592 9.457991 -41.741470
v -5.829028 14.688665 -38.598175
v -6.048815 18.363487 -34.074711
v -5.916680 20.488001 -29.281063
v -6.812646 21.603020 -24.336941
v -6.748729 22.020670 -17.429968
v -2.459357 -13.439111 -32.642128
v -0.857454 21.032272 -24.324629
v -2.207801 20.331177 -28.576487
v 0.276511 21.388241 -17.685123
v -0.482006 -17.131723 -26.043793
v 1.612844 -18.674774 -19.124741
v 3.748541 -11.563948 -33.133183
v 2.568557 14.867259 -35.258453
v 0.414653 18.519476 -31.458103
v 7.576165 -12.387451 -28.138084
v 3.661841 -5.337858 -37.949863
v 4.718635 2.848942 -39.330631
v 4.097143 9.699000 -38.057873
v 4.339615 18.875658 -26.354460
v 6.539955 18.868280 -18.902096
v 10.651154 -13.272718 -20.400282
v 11.306299 -5.228025 -30.960596
v 10.982231 9.692434 -30.884541
v 8.478017 14.935699 -28.954712
v 11.503619 14.199492 -20.183084
v 12.228510 2.938714 -31.918362
v 14.522818 9.077389 -21.466751
v 15.802930 -5.475770 -21.972849
v 16.562582 2.631849 -22.301935
# 152 positions

vt 0.869326 0.222924
vt 0.928932 0.227282
vt 0.926919 0.285684
vt 0.868761 0.281737
vt 0.866902 0.165804
vt 0.929343 0.168396
vt 0.814714 0.275821
vt 0.813528 0.219983
vt 0.805615 0.164340
vt 0.785033 0.124546
vt 0.796237 0.181818
vt 0.740190 0.193571
vt 0.730848 0.135769
vt 0.723134 0.082073
vt 0.774344 0.071174
vt 0.010000 0.155227
vt 0.071158 0.163979
vt 0.087823 0.236037
vt 0.014685 0.235581
vt 0.929751 0.019668
vt 0.929587 0.053545
vt 0.857960 0.064996
vt 0.868761 0.010000
vt 0.856328 0.833665
vt 0.890136 0.833665
vt 0.901868 0.910586
vt 0.849558 0.909445
vt 0.159022 0.164116
vt 0.157786 0.237843
vt 0.780787 0.012495
vt 0.787164 0.069048
vt 0.862297 0.112827
vt 0.929265 0.112953
vt 0.795351 0.115476
vt 0.796819 0.836934
vt 0.800615 0.909844
vt 0.741823 0.843961
vt 0.749343 0.910626
vt 0.684921 0.202079
vt 0.677426 0.142405
vt 0.675019 0.082984
vt 0.626629 0.864247
vt 0.683950 0.853567
vt 0.692025 0.917025
vt 0.637942 0.925982
vt 0.678924 0.591930
vt 0.622896 0.580932
vt 0.637258 0.519777
vt 0.689321 0.530018
vt 0.733317 0.600328
vt 0.740958 0.536170
vt 0.233554 0.941919
vt 0.169165 0.894730
vt 0.200924 0.870484
vt 0.257729 0.887003
vt 0.200597 0.990000
vt 0.160302 0.962423
vt 0.614927 0.284921
vt 0.628012 0.316588
vt 0.615657 0.330779
vt 0.579624 0.312954
vt 0.654833 0.275174
vt 0.657037 0.320755
vt 0.596394 0.243881
vt 0.641707 0.224357
vt 0.553070 0.273644
vt 0.696294 0.332035
vt 0.671845 0.397460
vt 0.633713 0.369678
vt 0.696770 0.274284
vt 0.245368 0.261683
vt 0.303407 0.268752
vt 0.294376 0.366756
vt 0.234103 0.366363
vt 0.143326 0.419618
vt 0.084700 0.419618
vt 0.086451 0.323351
vt 0.150134 0.327019
vt 0.020165 0.417213
vt 0.018731 0.318920
vt 0.181039 0.253027
vt 0.169921 0.362345
vt 0.811080 0.675557
vt 0.894208 0.687257
vt 0.875870 0.754229
vt 0.800039 0.749291
vt 0.896697 0.990000
vt 0.846194 0.986905
vt 0.734739 0.828505
vt 0.734133 0.748454
vt 0.795545 0.825976
vt 0.652064 0.695214
vt 0.721326 0.705717
vt 0.708681 0.775930
vt 0.636107 0.755349
vt 0.642544 0.622225
vt 0.719820 0.622225
vt 0.559580 0.717743
vt 0.594012 0.689339
vt 0.563360 0.642598
vt 0.801367 0.982090
vt 0.750284 0.980173
vt 0.033563 0.733205
vt 0.016401 0.624513
vt 0.081198 0.619687
vt 0.099646 0.726386
vt 0.990000 0.709956
vt 0.967109 0.772032
vt 0.699769 0.979716
vt 0.688887 0.213682
vt 0.628694 0.080055
vt 0.627383 0.143805
vt 0.739459 0.342651
vt 0.717453 0.419978
vt 0.741230 0.278065
vt 0.794402 0.352079
vt 0.777229 0.435950
vt 0.796202 0.281379
vt 0.684797 0.844529
vt 0.610849 0.813161
vt 0.530266 0.764407
vt 0.866140 0.821682
vt 0.944285 0.828505
vt 0.630557 0.206681
vt 0.786280 0.605420
vt 0.789322 0.537617
vt 0.737474 0.210404
vt 0.580924 0.075144
vt 0.577394 0.142685
vt 0.792584 0.210404
vt 0.302762 0.458870
vt 0.313910 0.536955
vt 0.245368 0.552428
vt 0.235683 0.468589
vt 0.033823 0.838810
vt 0.010000 0.783855
vt 0.102209 0.736099
vt 0.116835 0.793739
vt 0.196810 0.596581
vt 0.270842 0.564836
vt 0.310425 0.641994
vt 0.250200 0.690500
vt 0.060997 0.882159
vt 0.129740 0.838538
vt 0.095839 0.916282
vt 0.119586 0.953111
vt 0.353012 0.550364
vt 0.357006 0.611890
vt 0.730808 0.670674
vt 0.205238 0.822319
vt 0.203371 0.775734
vt 0.198048 0.718148
vt 0.369902 0.697286
vt 0.324948 0.754754
vt 0.411491 0.625677
vt 0.270974 0.834480
vt 0.464474 0.640142
vt 0.434325 0.728119
vt 0.394810 0.793650
vt 0.277691 0.783855
vt 0.277515 0.723523
vt 0.514617 0.659957
vt 0.406003 0.547348
vt 0.465865 0.547348
vt 0.744801 0.465910
vt 0.790617 0.463616
vt 0.699367 0.466628
vt 0.650152 0.459258
vt 0.648274 0.987197
vt 0.167972 0.473548
vt 0.010000 0.513909
vt 0.079098 0.514705
vt 0.462080 0.690757
vt 0.021908 0.428427
vt 0.069244 0.432532
vt 0.518719 0.139279
vt 0.526228 0.069461
vt 0.567738 0.207474
vt 0.847475 0.608374
vt 0.836527 0.537446
vt 0.518719 0.216851
vt 0.895303 0.597298
vt 0.892297 0.549994
vt 0.143665 0.615785
vt 0.159795 0.715714
vt 0.149520 0.517118
vt 0.159795 0.440845
vt 0.834479 0.460612
vt 0.888336 0.459258
vt 0.551753 0.988578
vt 0.494036 0.990000
vt 0.497986 0.914399
vt 0.551753 0.910173
vt 0.401977 0.438546
vt 0.468028 0.397451
vt 0.493132 0.465856
vt 0.441307 0.507266
vt 0.445311 0.985432
vt 0.453925 0.915743
vt 0.548773 0.538717
vt 0.512954 0.577841
vt 0.486907 0.841859
vt 0.538127 0.833379
vt 0.539246 0.370074
vt 0.552202 0.441602
vt 0.444066 0.850050
vt 0.411774 0.915654
vt 0.404650 0.861340
vt 0.396331 0.974095
vt 0.565031 0.500916
vt 0.456874 0.770633
vt 0.509394 0.757455
vt 0.620022 0.363443
vt 0.620022 0.438281
vt 0.412945 0.791607
vt 0.368190 0.906914
vt 0.379981 0.875998
vt 0.351039 0.959055
vt 0.612465 0.565699
vt 0.604863 0.620022
vt 0.619758 0.506732
vt 0.377618 0.822953
vt 0.350093 0.853980
vt 0.306145 0.934108
vt 0.333140 0.889857
vt 0.287051 0.212797
vt 0.221716 0.249869
vt 0.191510 0.174481
vt 0.250578 0.163133
vt 0.298575 0.132505
vt 0.335158 0.162651
vt 0.550449 0.238704
vt 0.531456 0.291222
vt 0.459101 0.262574
vt 0.471266 0.212898
vt 0.504993 0.331463
vt 0.445023 0.303954
vt 0.474924 0.365398
vt 0.429372 0.341977
vt 0.443489 0.391180
vt 0.422429 0.372751
vt 0.416034 0.418945
vt 0.390392 0.382760
vt 0.372337 0.446715
vt 0.344571 0.401514
vt 0.303468 0.086631
vt 0.368702 0.113207
vt 0.381697 0.340618
vt 0.326156 0.352792
vt 0.390989 0.061748
vt 0.318312 0.027164
vt 0.240927 0.088238
vt 0.382547 0.295798
vt 0.387345 0.252322
vt 0.247102 0.014405
vt 0.180057 0.094603
vt 0.391968 0.202332
vt 0.314887 0.299322
vt 0.184904 0.014405
vt 0.313910 0.252249
vt 0.313910 0.201595
vt 0.168393 0.560562
# 262 texture coordinates

vn 0.225099 0.962176 0.153454
vn -0.000536 0.981416 0.191892
vn 0.999699 0.019432 -0.014950
vn 0.995670 0.066855 0.064586
vn 0.465113 0.878717 0.107359
vn 0.742960 0.668726 -0.028568
vn 0.718344 0.691241 0.078535
vn -0.278560 0.940440 0.194878
vn 0.252734 0.967028 0.031359
vn -0.297789 0.954630 0.001724
vn 0.179096 0.969737 0.165935
vn -0.237563 0.955695 0.173811
vn -0.275915 0.939456 0.203208
vn -0.409702 0.737483 0.536902
vn 0.109029 -0.992710 -0.051386
vn -0.004965 0.999543 0.029830
vn -0.034717 0.975902 0.215431
vn 0.937679 -0.340406 -0.069872
vn 0.893394 0.449154 -0.010382
vn 0.916721 0.392643 0.073850
vn 0.982222 0.077104 -0.171160
vn -0.544619 -0.503581 0.670669
vn 0.625090 -0.775775 -0.086228
vn 0.498453 0.866914 -0.002251
vn 0.688488 0.716974 -0.109234
vn 0.180480 -0.975636 -0.124747
vn 0.492264 0.868586 -0.056871
vn -0.573251 0.771541 0.275876
vn -0.579279 0.782169 0.229449
vn -0.560478 0.487140 0.669745
vn -0.640087 0.181678 0.746513
vn -0.647344 -0.161032 0.744993
vn 0.934316 -0.355798 -0.021486
vn -0.738977 -0.560529 0.373793
vn 0.904305 -0.380200 -0.194115
vn 0.863146 0.482810 -0.147896
vn 0.642264 -0.753356 -0.141253
vn 0.628377 -0.744186 -0.226559
vn -0.579089 0.792733 0.190344
vn -0.616113 0.786816 -0.036407
vn -0.789010 0.470249 0.395385
vn -0.812537 0.508634 0.284736
vn -0.874115 0.148620 0.462423
vn -0.865755 -0.191942 0.462197
vn -0.767318 -0.571526 0.290828
vn -0.175390 -0.148537 0.973229
vn -0.202185 0.272232 0.940750
vn -0.174272 0.596513 0.783454
vn -0.050405 0.822696 0.566243
vn -0.275134 0.904737 0.325197
vn -0.110317 -0.601992 0.790845
vn -0.013689 0.980538 0.195852
vn 0.046498 0.942966 0.329627
vn 0.097290 0.936216 0.337690
vn 0.355332 0.328626 0.875068
vn 0.220984 0.737983 0.637611
vn 0.364520 -0.484648 0.795136
vn 0.415624 -0.101440 0.903862
vn 0.433848 0.891267 0.131980
vn 0.402814 0.887501 0.223793
vn 0.769239 -0.405401 0.493884
vn 0.796409 0.338018 0.501475
vn 0.703143 0.696970 0.140793
vn 0.609354 0.689575 0.391374
vn 0.926136 -0.349070 0.142907
vn 0.980055 0.082033 0.181005
vn 0.853216 0.013415 0.521386
vn 0.905053 0.386445 0.177595
vn -0.238697 -0.781289 0.576725
vn -0.040576 -0.807098 0.589021
vn 0.120965 -0.800841 0.586533
vn 0.448519 -0.813309 0.370620
vn 0.605196 -0.793721 0.061191
vn -0.629017 0.765875 -0.133317
vn -0.341012 0.935754 -0.089867
vn -0.040493 0.998033 -0.047856
vn 0.245113 0.968639 -0.040716
vn -0.369127 -0.928289 -0.045011
vn -0.399717 -0.909798 0.111775
vn -0.466462 -0.864382 0.187769
vn -0.441234 -0.848144 0.293196
vn -0.013588 -0.908978 0.416623
vn 0.030925 -0.992013 0.122284
vn -0.802312 -0.595253 -0.044379
vn -0.764873 -0.611852 0.201509
vn -0.912492 -0.207074 0.352816
vn -0.922056 0.185021 0.339970
vn -0.863079 0.500189 -0.070030
vn -0.820219 0.542394 0.181795
vn -0.964521 -0.194550 0.178466
vn -0.955033 0.229465 0.187769
vn -0.983209 -0.167149 -0.073216
vn -0.966596 0.239027 -0.092513
vn -0.346975 -0.913635 -0.211848
vn 0.201773 -0.948009 -0.246102
vn -0.799972 -0.566139 -0.198824
vn -0.974239 -0.100077 -0.202094
vn -0.952778 0.254063 -0.166333
vn -0.960414 -0.121769 -0.250555
vn -0.956325 0.228585 -0.182184
vn -0.844304 0.513955 -0.151663
vn -0.760233 -0.577656 -0.297253
vn -0.863144 -0.193019 -0.466610
vn -0.898352 0.188695 -0.396684
vn -0.783010 0.543112 -0.303192
vn -0.837080 0.529056 -0.139273
vn -0.637181 -0.590099 -0.495765
vn -0.537772 -0.268481 -0.799199
vn -0.566001 0.192171 -0.801694
vn -0.582831 0.783561 -0.215267
vn -0.641956 0.759197 -0.107298
vn -0.292207 -0.906312 -0.305310
vn -0.401234 -0.556454 -0.727578
vn -0.474607 0.615831 -0.628888
vn -0.362846 0.822718 -0.437583
vn -0.355672 0.925654 -0.129083
vn -0.372971 0.925693 -0.063133
vn -0.225533 -0.745902 -0.626710
vn -0.305209 -0.850471 -0.428424
vn -0.202624 0.935125 -0.290662
vn -0.047845 -0.533979 -0.844143
vn -0.010960 -0.193164 -0.981105
vn 0.029572 0.290685 -0.956362
vn 0.036576 0.652480 -0.756923
vn 0.023299 0.848842 -0.528133
vn -0.028655 0.947805 -0.317561
vn -0.038481 0.990659 -0.130821
vn -0.067912 0.997009 -0.036890
vn 0.015166 -0.773480 -0.633639
vn 0.210843 0.967157 -0.141961
vn 0.189299 0.936232 -0.296034
vn 0.225285 0.973010 -0.049971
vn 0.174120 -0.899451 -0.400837
vn 0.207836 -0.933634 -0.291773
vn 0.356723 -0.685425 -0.634777
vn 0.417152 0.649682 -0.635529
vn 0.303545 0.832386 -0.463674
vn 0.562265 -0.722779 -0.401806
vn 0.429592 -0.380963 -0.818730
vn 0.501757 -0.020737 -0.864760
vn 0.502997 0.356726 -0.787236
vn 0.444211 0.862989 -0.240677
vn 0.522370 0.847752 -0.091905
vn 0.615471 -0.727245 -0.303825
vn 0.740023 -0.364120 -0.565494
vn 0.793492 0.367833 -0.484840
vn 0.660954 0.656987 -0.362641
vn 0.741212 0.649127 -0.170995
vn 0.820900 0.020739 -0.570695
vn 0.861858 0.427034 -0.273575
vn 0.859952 -0.362576 -0.359195
vn 0.931660 0.094153 -0.350919
# 152 normals

usemtl Default
f 1/1/1 9/2/9 16/3/16 2/4/2
f 9/2/9 1/1/1 5/5/5 24/6/24
f 1/1/1 2/4/2 17/7/17 11/8/11
f 1/1/1 11/8/11 59/9/59 5/5/5
f 2/10/2 16/11/16 10/12/10 8/13/8
f 2/10/2 8/13/8 13/14/13 17/15/17
f 3/16/3 4/17/4 33/18/33 18/19/18
f 3/20/3 19/21/19 20/22/20 4/23/4
f 19/24/19 3/25/3 21/26/21 36/27/36
f 4/17/4 66/28/66 65/29/65 33/18/33
f 66/30/66 4/23/4 20/22/20 68/31/68
f 5/5/5 7/32/7 6/33/6 24/6/24
f 7/32/7 5/5/5 59/9/59 63/34/63
f 6/35/6 19/24/19 36/27/36 25/36/25
f 19/21/19 6/33/6 7/32/7 20/22/20
f 24/37/24 6/35/6 25/36/25 27/38/27
f 20/22/20 7/32/7 63/34/63 68/31/68
f 8/13/8 10/12/10 40/39/40 39/40/39
f 8/13/8 39/40/39 29/41/29 13/14/13
f 16/42/16 9/43/9 77/44/77 76/45/76
f 9/43/9 24/37/24 27/38/27 77/44/77
f 10/46/10 16/47/16 76/48/76 75/49/75
f 40/50/40 10/46/10 75/49/75 74/51/74
f 11/52/11 54/53/54 60/54/60 59/55/59
f 54/53/54 11/52/11 17/56/17 52/57/52
f 12/58/12 50/59/50 53/60/53 52/61/52
f 50/59/50 12/58/12 28/62/28 14/63/14
f 12/58/12 13/64/13 29/65/29 28/62/28
f 13/64/13 12/58/12 52/61/52 17/66/17
f 14/63/14 30/67/30 48/68/48 49/69/49
f 30/67/30 14/63/14 28/62/28 41/70/41
f 50/59/50 14/63/14 49/69/49 53/60/53
f 15/71/15 83/72/83 80/73/80 79/74/79
f 83/75/83 15/76/15 23/77/23 73/78/73
f 15/76/15 26/79/26 37/80/37 23/77/23
f 26/81/26 15/71/15 79/74/79 78/82/78
f 18/83/18 37/84/37 38/85/38 35/86/35
f 37/80/37 18/19/18 33/18/33 23/77/23
f 36/27/36 21/26/21 152/87/152 150/88/150
f 152/89/152 21/90/21 35/86/35 151/91/151
f 22/92/22 32/93/32 44/94/44 34/95/34
f 32/93/32 22/92/22 51/96/51 46/97/46
f 22/92/22 34/95/34 81/98/81 69/99/69
f 51/96/51 22/92/22 69/99/69 70/100/70
f 73/78/73 23/77/23 33/18/33 65/29/65
f 25/36/25 36/27/36 150/88/150 148/101/148
f 27/38/27 25/36/25 148/101/148 143/102/143
f 26/103/26 78/104/78 94/105/94 95/106/95
f 37/84/37 26/107/26 95/108/95 38/85/38
f 27/38/27 143/102/143 132/109/132 77/44/77
f 41/70/41 28/62/28 29/65/29 42/110/42
f 42/111/42 29/41/29 39/40/39 89/112/89
f 30/67/30 31/113/31 47/114/47 48/68/48
f 31/113/31 30/67/30 41/70/41 43/115/43
f 31/113/31 32/116/32 46/117/46 47/114/47
f 32/116/32 31/113/31 43/115/43 44/118/44
f 34/95/34 44/94/44 86/119/86 45/120/45
f 34/95/34 45/120/45 80/121/80 81/98/81
f 151/91/151 35/86/35 38/85/38 144/122/144
f 144/122/144 38/85/38 95/108/95 134/123/134
f 39/40/39 40/39/40 88/124/88 89/112/89
f 88/125/88 40/50/40 74/51/74 101/126/101
f 43/115/43 41/70/41 42/110/42 87/127/87
f 87/128/87 42/111/42 89/112/89 91/129/91
f 44/118/44 43/115/43 87/127/87 86/130/86
f 45/131/45 86/132/86 90/133/90 85/134/85
f 45/131/45 85/134/85 79/74/79 80/73/80
f 47/135/47 46/136/46 58/137/58 55/138/55
f 46/139/46 51/140/51 57/141/57 58/142/58
f 48/143/48 47/135/47 55/138/55 56/144/56
f 49/145/49 48/143/48 56/144/56 54/53/54
f 53/146/53 49/145/49 54/53/54 52/57/52
f 51/140/51 70/147/70 71/148/71 57/141/57
f 18/83/18 35/86/35 21/90/21 3/149/3
f 54/53/54 56/144/56 64/150/64 60/54/60
f 56/144/56 55/138/55 62/151/62 64/150/64
f 55/138/55 58/137/58 67/152/67 62/151/62
f 58/142/58 57/141/57 61/153/61 67/154/67
f 57/141/57 71/148/71 72/155/72 61/153/61
f 59/55/59 60/54/60 64/150/64 63/156/63
f 61/153/61 72/155/72 73/157/73 65/158/65
f 61/153/61 65/158/65 66/159/66 67/154/67
f 64/150/64 62/151/62 68/160/68 63/156/63
f 62/151/62 67/152/67 66/161/66 68/160/68
f 70/100/70 69/99/69 81/98/81 82/162/82
f 70/147/70 82/163/82 72/155/72 71/148/71
f 73/157/73 72/155/72 82/163/82 83/164/83
f 101/126/101 74/51/74 111/165/111 106/166/106
f 74/51/74 75/49/75 117/167/117 111/165/111
f 75/49/75 76/48/76 128/168/128 117/167/117
f 76/45/76 77/44/77 132/109/132 128/169/128
f 78/82/78 79/74/79 85/134/85 84/170/84
f 94/105/94 78/104/78 84/171/84 96/172/96
f 81/98/81 80/121/80 83/173/83 82/162/82
f 84/171/84 92/174/92 97/175/97 96/172/96
f 90/176/90 86/177/86 87/128/87 91/129/91
f 88/124/88 93/178/93 91/129/91 89/112/89
f 93/179/93 88/125/88 101/126/101 98/180/98
f 92/181/92 90/176/90 91/129/91 93/178/93
f 92/182/92 93/179/93 98/180/98 97/183/97
f 94/105/94 112/184/112 134/185/134 95/106/95
f 112/184/112 94/105/94 96/172/96 102/186/102
f 102/186/102 96/172/96 97/175/97 99/187/99
f 97/183/97 98/180/98 100/188/100 99/189/99
f 98/180/98 101/126/101 106/166/106 100/188/100
f 99/190/99 100/191/100 104/192/104 103/193/103
f 99/194/99 103/195/103 107/196/107 102/197/102
f 100/191/100 106/198/106 105/199/105 104/192/104
f 102/197/102 107/196/107 119/200/119 112/201/112
f 103/193/103 104/192/104 109/202/109 108/203/108
f 103/195/103 108/204/108 113/205/113 107/196/107
f 104/192/104 105/199/105 114/206/114 109/202/109
f 105/199/105 110/207/110 115/208/115 114/206/114
f 110/207/110 105/199/105 106/198/106 111/209/111
f 107/196/107 113/205/113 118/210/118 119/200/119
f 108/203/108 109/202/109 123/211/123 122/212/122
f 108/204/108 122/213/122 121/214/121 113/205/113
f 109/202/109 114/206/114 124/215/124 123/211/123
f 110/207/110 116/216/116 120/217/120 115/208/115
f 116/216/116 110/207/110 111/209/111 117/218/117
f 112/201/112 119/200/119 133/219/133 134/220/134
f 113/205/113 121/214/121 129/221/129 118/210/118
f 114/206/114 115/208/115 125/222/125 124/215/124
f 115/208/115 120/217/120 126/223/126 125/222/125
f 116/216/116 117/218/117 128/224/128 127/225/127
f 120/217/120 116/216/116 127/225/127 126/223/126
f 119/200/119 118/210/118 129/221/129 133/219/133
f 121/226/121 122/227/122 140/228/140 139/229/139
f 121/226/121 139/229/139 135/230/135 129/231/129
f 122/232/122 123/233/123 141/234/141 140/235/140
f 123/233/123 124/236/124 136/237/136 141/234/141
f 124/236/124 125/238/125 137/239/137 136/237/136
f 137/239/137 125/238/125 126/240/126 131/241/131
f 131/241/131 126/240/126 127/242/127 130/243/130
f 130/243/130 127/242/127 128/244/128 132/245/132
f 129/231/129 135/230/135 138/246/138 133/247/133
f 131/241/131 130/243/130 142/248/142 137/239/137
f 130/243/130 132/245/132 143/249/143 142/248/142
f 134/250/134 133/247/133 138/246/138 144/251/144
f 138/246/138 135/230/135 139/229/139 145/252/145
f 141/234/141 136/237/136 147/253/147 146/254/146
f 136/237/136 137/239/137 142/248/142 147/253/147
f 138/246/138 145/252/145 151/255/151 144/251/144
f 139/229/139 140/228/140 149/256/149 145/252/145
f 140/235/140 141/234/141 146/254/146 149/257/149
f 147/253/147 142/248/142 143/249/143 148/258/148
f 145/252/145 149/256/149 152/259/152 151/255/151
f 146/254/146 147/253/147 148/258/148 150/260/150
f 149/257/149 146/254/146 150/260/150 152/261/152
f 92/262/92 84/170/84 85/134/85 90/133/90

# 150 faces
