mtllib material.mtl
usemtl material_0
v -0.00499999 0.01000015 0.00499992
v -0.00499999 0.01000015 -0.00500008
v 0.00499999 0.01000015 -0.00500008
v 0.00499999 0.01000015 0.00499992
v 0.09688248 0.05365796 0.34489740
v 0.13667630 0.05344101 0.24185550
v 0.13663850 0.05354587 0.34551640
v 0.09688743 0.05354537 0.24196410
v 0.09689239 0.05343278 0.12228940
v 0.13662990 0.05331919 0.12142710
v 0.05509353 0.05354462 0.34557800
v 0.09688248 0.05354528 0.34555790
v 0.13663850 0.05354587 0.34551640
v 0.05508987 0.05354468 0.24196410
v 0.00000015 0.05354369 0.34553770
v 0.09689064 0.05331876 0.12163090
v 0.13662990 0.05331919 0.12142710
v 0.05509003 0.05331801 0.12156680
v 0.00000000 0.05354377 0.24196410
v 0.00000015 0.05331713 0.12156800
v -0.05509239 0.05354284 0.34557800
v -0.05509583 0.05354290 0.24196410
v -0.05509567 0.05331624 0.12156680
v -0.09688255 0.05365484 0.34489740
v -0.09688217 0.05354214 0.34555790
v -0.13663800 0.05354147 0.34551640
v -0.09688743 0.05354225 0.24196410
v -0.09689002 0.05331562 0.12163090
v -0.13667620 0.05343660 0.24185550
v -0.13663800 0.05354147 0.34551640
v -0.13663060 0.05331479 0.12143120
vn 0.00000000 1.00000000 0.00000000
vn 0.00000000 1.00000000 0.00000000
vn 0.00000000 1.00000000 0.00000000
vn 0.00000000 1.00000000 0.00000000
vn -0.00136172 0.99999900 0.00027094
vn 0.00272830 0.99999580 -0.00101148
vn 0.00272785 0.99999570 -0.00105197
vn -0.00136432 0.99999860 -0.00101174
vn -0.00136384 0.99999690 -0.00211525
vn 0.00272870 0.99999580 -0.00097676
vn -0.00001675 1.00000000 0.00000064
vn -0.00135953 0.99999890 0.00051592
vn 0.00016090 0.98575240 0.16820300
vn -0.00001655 0.99999950 -0.00101156
vn -0.00001675 1.00000000 0.00000064
vn -0.00136327 0.99999640 -0.00232673
vn -0.00088606 0.98533770 -0.17061340
vn -0.00136447 0.99999740 -0.00188297
vn -0.00001655 0.99999950 -0.00101157
vn -0.00001638 0.99999820 -0.00188254
vn -0.00001549 1.00000000 0.00000068
vn -0.00001567 0.99999950 -0.00101159
vn -0.00001582 0.99999820 -0.00188254
vn 0.00132957 0.99999920 0.00027113
vn 0.00132738 0.99999900 0.00051568
vn -0.00019246 0.98574940 0.16822050
vn 0.00060716 0.99999930 -0.00101165
vn -0.00001668 0.99999820 -0.00188295
vn -0.00199112 0.99999730 -0.00126519
vn -0.00276018 0.99999570 -0.00105201
vn -0.00133335 0.99999810 -0.00144752
vt -190.62780000 -33.76498000
vt -190.62780000 -32.76498000
vt -189.62780000 -32.76498000
vt -189.62780000 -33.76498000
vt 0.89520530 0.68043050
vt 0.95605340 0.83558980
vt 0.95503340 0.67881690
vt 0.89588790 0.83561270
vt 0.89611960 1.01601300
vt 0.95593180 1.01770200
vt 0.83222920 0.67952060
vt 0.89516950 0.67941950
vt 0.95503340 0.67881690
vt 0.83273460 0.83580240
vt 0.74919020 0.67979230
vt 0.89608160 1.01702200
vt 0.95593180 1.01770200
vt 0.83310460 1.01735600
vt 0.74958140 0.83603110
vt 0.75000860 1.01763300
vt 0.66615410 0.67996280
vt 0.66644040 0.83622860
vt 0.66686250 1.01787000
vt 0.60320060 0.68119940
vt 0.60323140 0.68018850
vt 0.54337010 0.67990510
vt 0.60334440 0.83636210
vt 0.60379090 1.01792100
vt 0.54325190 0.83660720
vt 0.54337010 0.67990510
vt 0.54383460 1.01837200
f 3/3/3 2/2/2 1/1/1
f 4/4/4 3/3/3 1/1/1
f 7/7/7 6/6/6 5/5/5
f 6/6/6 8/8/8 5/5/5
f 9/9/9 8/8/8 6/6/6
f 10/10/10 9/9/9 6/6/6
f 11/11/11 5/5/5 8/8/8
f 11/11/11 12/12/12 5/5/5
f 12/12/12 13/13/13 5/5/5
f 8/8/8 14/14/14 11/11/11
f 14/14/14 8/8/8 9/9/9
f 11/11/11 14/14/14 15/15/15
f 14/14/14 9/9/9 16/16/16
f 17/17/17 16/16/16 9/9/9
f 16/16/16 18/18/18 14/14/14
f 14/14/14 19/19/19 15/15/15
f 19/19/19 14/14/14 18/18/18
f 20/20/20 19/19/19 18/18/18
f 15/15/15 19/19/19 21/21/21
f 22/22/22 19/19/19 20/20/20
f 19/19/19 22/22/22 21/21/21
f 23/23/23 22/22/22 20/20/20
f 24/24/24 21/21/21 22/22/22
f 24/24/24 25/25/25 21/21/21
f 26/26/26 25/25/25 24/24/24
f 27/27/27 22/22/22 23/23/23
f 22/22/22 27/27/27 24/24/24
f 28/28/28 27/27/27 23/23/23
f 24/24/24 27/27/27 29/29/29
f 30/30/30 24/24/24 29/29/29
f 27/27/27 28/28/28 31/31/31
f 29/29/29 27/27/27 31/31/31

