mtllib material.mtl
usemtl material_0
v -0.00499999 0.01000015 0.00499992
v -0.00499999 0.01000015 -0.00500008
v 0.00499999 0.01000015 -0.00500008
v 0.00499999 0.01000015 0.00499992
v -0.01985886 0.29008420 0.24218100
v -0.02298599 0.29084980 0.24136930
v -0.02375137 0.29397720 0.24218100
v -0.01985886 0.29397720 0.24389060
v 0.01985840 0.29008420 0.24218100
v -0.01985886 0.33156540 0.24389060
v -0.02375137 0.33156540 0.24218100
v -0.01985886 0.33545850 0.24218100
v -0.02298599 0.33469290 0.24136930
v 0.01985840 0.33156540 0.24389060
v 0.01985840 0.33545850 0.24218100
v 0.01985840 0.29397720 0.24389060
v 0.02375137 0.29397720 0.24218100
v 0.02298584 0.29084980 0.24136930
v 0.02376694 0.29006830 0.24000740
v 0.02436050 0.29290010 0.24080010
v 0.02375137 0.33156540 0.24218100
v 0.02436050 0.33264250 0.24080010
v 0.02298584 0.33469280 0.24136930
v 0.02376694 0.33547430 0.24000740
v 0.02093552 0.33606790 0.24080010
v -0.02093567 0.33606790 0.24080010
v -0.02376739 0.33547430 0.24000740
v 0.02093552 0.28947470 0.24080010
v -0.02093567 0.28947480 0.24080010
v -0.02376739 0.29006830 0.24000740
v -0.02436066 0.29290010 0.24080000
v -0.02436066 0.33264240 0.24080010
v -0.01854431 0.30268500 0.24428940
v -0.01854431 0.32472150 0.24428940
v 0.01978088 0.32472150 0.24428940
v 0.01978088 0.30268500 0.24428940
vn 0.00000000 1.00000000 0.00000000
vn 0.00000000 1.00000000 0.00000000
vn 0.00000000 1.00000000 0.00000000
vn 0.00000000 1.00000000 0.00000000
vn -0.02118716 -0.60311860 0.79737010
vn -0.43981640 -0.43974500 0.78306190
vn -0.60289780 -0.02230547 0.79750660
vn -0.03798510 -0.03999839 0.99847750
vn 0.02118634 -0.60312520 0.79736510
vn -0.03798512 0.03999835 0.99847750
vn -0.60289810 0.02230522 0.79750650
vn -0.02118754 0.60311930 0.79736960
vn -0.43981080 0.43974840 0.78306310
vn 0.03798475 0.03999825 0.99847750
vn 0.02118651 0.60312560 0.79736480
vn 0.03798476 -0.03999830 0.99847750
vn 0.60287590 -0.02230626 0.79752300
vn 0.43979120 -0.43975160 0.78307230
vn 0.55447740 -0.55448500 0.62056520
vn 0.89680950 -0.05292324 0.43924000
vn 0.60287580 0.02230617 0.79752320
vn 0.89680860 0.05292320 0.43924190
vn 0.43979140 0.43974890 0.78307380
vn 0.55447590 0.55448700 0.62056480
vn 0.05056703 0.89763890 0.43782110
vn -0.05055662 0.89764450 0.43781100
vn -0.55449880 0.55444260 0.62058400
vn 0.05056509 -0.89763090 0.43783760
vn -0.05055673 -0.89763620 0.43782790
vn -0.55451270 -0.55443240 0.62058060
vn -0.89677700 -0.05291221 0.43930770
vn -0.89677570 0.05291223 0.43931050
vn 0.00000000 0.00000000 1.00000000
vn 0.00000000 0.00000000 1.00000000
vn 0.00000000 0.00000000 1.00000000
vn 0.00000000 0.00000000 1.00000000
vt -147.81610000 -33.63813000
vt -147.81610000 -32.63813000
vt -146.81610000 -32.63813000
vt -146.81610000 -33.63813000
vt 0.75811310 0.02924693
vt 0.75207400 0.03027871
vt 0.75105380 0.03632490
vt 0.75839500 0.03662887
vt 0.82844380 0.02942972
vt 0.75826430 0.10263350
vt 0.75088790 0.10292330
vt 0.75795950 0.10998140
vt 0.75191820 0.10896170
vt 0.82800840 0.10278210
vt 0.82829030 0.11016400
vt 0.82813890 0.03677759
vt 0.83551570 0.03648788
vt 0.83448550 0.03044948
vt 0.83665750 0.02827537
vt 0.83809220 0.03425744
vt 0.83534990 0.10308600
vt 0.83793680 0.10531940
vt 0.83432970 0.10913220
vt 0.83650360 0.11130430
vt 0.83051700 0.11274410
vt 0.75572710 0.11257030
vt 0.74974560 0.11113550
vt 0.83067660 0.02684091
vt 0.75588690 0.02666689
vt 0.74989960 0.02810685
vt 0.74846670 0.03409164
vt 0.74831130 0.10515360
vt 0.01532484 0.57283580
vt 0.01537378 0.89106890
vt 0.56883390 0.89098380
vt 0.56878490 0.57275070
f 3/3/3 2/2/2 1/1/1
f 4/4/4 3/3/3 1/1/1
f 7/7/7 6/6/6 5/5/5
f 8/8/8 7/7/7 5/5/5
f 5/5/5 9/9/9 8/8/8
f 8/8/8 10/10/10 7/7/7
f 10/10/10 11/11/11 7/7/7
f 10/10/10 12/12/12 11/11/11
f 12/12/12 13/13/13 11/11/11
f 10/10/10 14/14/14 12/12/12
f 14/14/14 10/10/10 8/8/8
f 14/14/14 15/15/15 12/12/12
f 9/9/9 16/16/16 8/8/8
f 16/16/16 14/14/14 8/8/8
f 16/16/16 9/9/9 17/17/17
f 9/9/9 18/18/18 17/17/17
f 18/18/18 19/19/19 17/17/17
f 19/19/19 20/20/20 17/17/17
f 21/21/21 14/14/14 16/16/16
f 17/17/17 21/21/21 16/16/16
f 17/17/17 20/20/20 21/21/21
f 14/14/14 21/21/21 15/15/15
f 20/20/20 22/22/22 21/21/21
f 21/21/21 22/22/22 23/23/23
f 21/21/21 23/23/23 15/15/15
f 22/22/22 24/24/24 23/23/23
f 23/23/23 24/24/24 15/15/15
f 24/24/24 25/25/25 15/15/15
f 15/15/15 25/25/25 12/12/12
f 25/25/25 26/26/26 12/12/12
f 12/12/12 26/26/26 13/13/13
f 26/26/26 27/27/27 13/13/13
f 28/28/28 19/19/19 18/18/18
f 9/9/9 28/28/28 18/18/18
f 29/29/29 28/28/28 9/9/9
f 5/5/5 29/29/29 9/9/9
f 30/30/30 29/29/29 5/5/5
f 6/6/6 30/30/30 5/5/5
f 31/31/31 30/30/30 6/6/6
f 7/7/7 31/31/31 6/6/6
f 32/32/32 31/31/31 7/7/7
f 11/11/11 32/32/32 7/7/7
f 27/27/27 32/32/32 11/11/11
f 13/13/13 27/27/27 11/11/11
f 35/35/35 34/34/34 33/33/33
f 36/36/36 35/35/35 33/33/33

