mtllib FP418:BathroomSink2_5af95d26.mtl
g FP418:BathroomSink2_5af95d26
v 2.28202 0.75005 -3.31761
v 2.28202 0.61206 -3.81514
v 2.28202 0.75005 -3.81514
v 2.28202 0.61206 -3.31762
v 2.28202 0.61206 -3.31762
v 2.31033 0.75005 -3.31761
v 2.31033 0.61206 -3.31762
v 2.28202 0.75005 -3.31761
v 2.28202 0.75005 -3.31761
v 2.31033 0.75005 -3.81514
v 2.31033 0.75005 -3.31761
v 2.28202 0.75005 -3.81514
v 2.28202 0.75005 -3.81514
v 2.31033 0.61206 -3.81514
v 2.31033 0.75005 -3.81514
v 2.28202 0.61206 -3.81514
v 2.28202 0.61206 -3.81514
v 2.31033 0.61206 -3.31762
v 2.31033 0.61206 -3.81514
v 2.28202 0.61206 -3.31762
v 2.31033 0.75005 -3.31761
v 2.31033 0.61206 -3.81514
v 2.31033 0.61206 -3.31762
v 2.31033 0.75005 -3.81514
v 2.28202 0.75005 -2.2519
v 2.28202 0.61206 -3.25537
v 2.28202 0.75005 -3.25537
v 2.28202 0.61206 -2.2519
v 2.28202 0.61206 -2.2519
v 2.31033 0.75005 -2.2519
v 2.31033 0.61206 -2.2519
v 2.28202 0.75005 -2.2519
v 2.28202 0.75005 -2.2519
v 2.31033 0.75005 -3.25537
v 2.31033 0.75005 -2.2519
v 2.28202 0.75005 -3.25537
v 2.28202 0.75005 -3.25537
v 2.31033 0.61206 -3.25537
v 2.31033 0.75005 -3.25537
v 2.28202 0.61206 -3.25537
v 2.28202 0.61206 -3.25537
v 2.31033 0.61206 -2.2519
v 2.31033 0.61206 -3.25537
v 2.28202 0.61206 -2.2519
v 2.31033 0.75005 -2.2519
v 2.31033 0.61206 -3.25537
v 2.31033 0.61206 -2.2519
v 2.31033 0.75005 -3.25537
v 3.00642 0.7898 -2.19742
v 3.00642 0.79746 -2.20147
v 3.01707 0.7898 -2.20807
v 2.27592 0.7898 -2.19742
v 2.26527 0.7898 -2.20807
v 2.27802 0.79746 -2.20147
v 3.00642 0.7898 -3.88437
v 3.01707 0.7898 -3.87371
v 3.00642 0.79746 -3.85021
v 2.26527 0.7898 -3.87371
v 2.27592 0.7898 -3.88437
v 2.27802 0.79746 -3.85021
v 3.00642 0.77331 -2.19742
v 3.01707 0.77331 -2.20807
v 3.00642 0.76565 -2.20807
v 2.27592 0.77331 -2.19742
v 2.27592 0.76565 -2.20807
v 2.26527 0.77331 -2.20807
v 3.00642 0.77331 -3.88437
v 3.00642 0.76565 -3.87371
v 3.01707 0.77331 -3.87371
v 2.26527 0.77331 -3.87371
v 2.27592 0.76565 -3.87371
v 2.27592 0.77331 -3.88437
v 3.01707 0.7898 -2.75205
v 3.01707 0.77331 -2.20807
v 3.01707 0.7898 -2.20807
v 3.01707 0.77331 -2.75205
v 3.01707 0.7898 -3.29604
v 3.01707 0.77331 -3.29604
v 3.01707 0.7898 -3.87371
v 3.01707 0.77331 -3.87371
v 2.27592 0.7898 -3.88437
v 2.27592 0.77331 -3.88437
v 3.00642 0.77331 -3.88437
v 3.00642 0.7898 -3.88437
v 3.00642 0.79746 -3.85021
v 2.27802 0.79746 -3.2784
v 2.27802 0.79746 -3.85021
v 3.00642 0.79746 -3.2784
v 2.27802 0.79746 -2.73994
v 3.00642 0.79746 -2.73994
v 2.27802 0.79746 -2.20147
v 3.00642 0.79746 -2.20147
v 2.26527 0.7898 -3.29604
v 2.26527 0.77331 -3.87371
v 2.26527 0.7898 -3.87371
v 2.26527 0.77331 -3.29604
v 2.26527 0.7898 -2.75205
v 2.26527 0.77331 -2.75205
v 2.26527 0.7898 -2.20807
v 2.26527 0.77331 -2.20807
v 3.00642 0.79746 -2.20147
v 3.00642 0.7898 -2.19742
v 2.27592 0.7898 -2.19742
v 2.27802 0.79746 -2.20147
v 2.27802 0.79746 -3.2784
v 2.26527 0.7898 -3.87371
v 2.27802 0.79746 -3.85021
v 2.26527 0.7898 -3.29604
v 2.27802 0.79746 -2.73994
v 2.26527 0.7898 -2.75205
v 2.27802 0.79746 -2.20147
v 2.26527 0.7898 -2.20807
v 2.27802 0.79746 -3.85021
v 2.27592 0.7898 -3.88437
v 3.00642 0.7898 -3.88437
v 3.00642 0.79746 -3.85021
v 3.00642 0.79746 -2.73994
v 3.01707 0.7898 -2.20807
v 3.00642 0.79746 -2.20147
v 3.01707 0.7898 -2.75205
v 3.00642 0.79746 -3.2784
v 3.01707 0.7898 -3.29604
v 3.00642 0.79746 -3.85021
v 3.01707 0.7898 -3.87371
v 3.00642 0.77331 -2.19742
v 3.00642 0.76565 -2.20807
v 2.27592 0.76565 -2.20807
v 2.27592 0.77331 -2.19742
v 2.26527 0.77331 -3.29604
v 2.27592 0.76565 -3.87371
v 2.26527 0.77331 -3.87371
v 2.27592 0.76565 -3.29604
v 2.26527 0.77331 -2.75205
v 2.27592 0.76565 -2.75205
v 2.26527 0.77331 -2.20807
v 2.27592 0.76565 -2.20807
v 2.27592 0.77331 -3.88437
v 2.27592 0.76565 -3.87371
v 3.00642 0.76565 -3.87371
v 3.00642 0.77331 -3.88437
v 3.01707 0.77331 -2.75205
v 3.00642 0.76565 -2.20807
v 3.01707 0.77331 -2.20807
v 3.00642 0.76565 -2.75205
v 3.01707 0.77331 -3.29604
v 3.00642 0.76565 -3.29604
v 3.01707 0.77331 -3.87371
v 3.00642 0.76565 -3.87371
v 3.01707 0.7898 -3.87371
v 3.00642 0.7898 -3.88437
v 3.00642 0.77331 -3.88437
v 3.01707 0.77331 -3.87371
v 2.26527 0.77331 -3.87371
v 2.27592 0.77331 -3.88437
v 2.27592 0.7898 -3.88437
v 2.26527 0.7898 -3.87371
v 2.26527 0.7898 -2.20807
v 2.27592 0.7898 -2.19742
v 2.27592 0.77331 -2.19742
v 2.26527 0.77331 -2.20807
v 3.01707 0.77331 -2.20807
v 3.00642 0.77331 -2.19742
v 3.00642 0.7898 -2.19742
v 3.01707 0.7898 -2.20807
v 3.00642 0.7898 -2.19742
v 3.00642 0.77331 -2.19742
v 2.27592 0.77331 -2.19742
v 2.27592 0.7898 -2.19742
v 2.30336 0.76565 -2.23006
v 2.27592 0.76565 -2.20807
v 3.00642 0.76565 -2.20807
v 2.97898 0.76565 -2.23006
v 3.00642 0.76565 -2.75205
v 2.97898 0.76565 -2.75968
v 3.00642 0.76565 -3.29604
v 2.97898 0.76565 -3.2893
v 3.00642 0.76565 -3.87371
v 2.97898 0.76565 -3.85173
v 2.30336 0.76565 -2.75968
v 2.27592 0.76565 -2.20807
v 2.30336 0.76565 -2.23006
v 2.27592 0.76565 -2.75205
v 2.30336 0.76565 -3.2893
v 2.27592 0.76565 -3.29604
v 2.30336 0.76565 -3.85173
v 2.27592 0.76565 -3.87371
v 2.97898 0.76565 -3.85173
v 3.00642 0.76565 -3.87371
v 2.30336 0.04852 -3.85173
v 2.30336 -0.01214 -3.85173
v 2.97898 -0.01214 -3.85173
v 2.97898 0.04852 -3.85173
v 2.30336 0.59817 -3.85173
v 2.97898 0.59817 -3.85173
v 2.30336 0.76565 -3.85173
v 2.97898 0.76565 -3.85173
v 2.97898 -0.01214 -3.2893
v 2.97898 -0.01214 -3.85173
v 2.30336 -0.01214 -3.85173
v 2.30336 -0.01214 -3.2893
v 2.97898 -0.01214 -2.75968
v 2.30336 -0.01214 -2.75968
v 2.97898 -0.01214 -2.23006
v 2.30336 -0.01214 -2.23006
v 2.97898 0.04852 -2.23006
v 2.97898 -0.01214 -2.23006
v 2.30336 -0.01214 -2.23006
v 2.30336 0.04852 -2.23006
v 2.97898 0.59817 -2.23006
v 2.30336 0.59817 -2.23006
v 2.97898 0.76565 -2.23006
v 2.30336 0.76565 -2.23006
v 2.97898 0.04852 -3.85173
v 2.97898 -0.01214 -3.85173
v 2.97898 -0.01214 -3.2893
v 2.97898 0.04852 -3.2893
v 2.97898 0.59817 -3.85173
v 2.97898 -0.01214 -2.75968
v 2.97898 0.59817 -3.2893
v 2.97898 0.76565 -3.85173
v 2.97898 0.76565 -3.2893
v 2.97898 0.04852 -2.75968
v 2.97898 -0.01214 -2.23006
v 2.97898 0.04852 -2.23006
v 2.97898 0.59817 -2.75968
v 2.97898 0.76565 -2.75968
v 2.97898 0.59817 -2.23006
v 2.97898 0.76565 -2.23006
v 2.30336 0.04852 -2.23006
v 2.30336 -0.01214 -2.23006
v 2.30336 -0.01214 -2.75968
v 2.30336 0.04852 -2.75968
v 2.30336 -0.01214 -3.2893
v 2.30336 0.04852 -3.2893
v 2.30336 -0.01214 -3.85173
v 2.30336 0.04852 -3.85173
v 2.30336 0.05791 -2.26196
v 2.30336 0.58878 -2.26196
v 2.30336 0.59817 -2.23006
v 2.30336 0.58878 -2.72778
v 2.30336 0.59817 -2.75968
v 2.30336 0.76565 -2.23006
v 2.30336 0.05791 -2.72778
v 2.30336 0.76565 -2.75968
v 2.30336 0.59817 -3.2893
v 2.30336 0.76565 -3.2893
v 2.30336 0.59817 -3.85173
v 2.30336 0.76565 -3.85173
v 2.30336 0.05791 -3.81814
v 2.30336 0.58878 -3.81814
v 2.30336 0.05791 -3.32289
v 2.30336 0.58878 -3.32289
v 2.30336 0.05791 -2.79158
v 2.30336 0.58878 -2.79158
v 2.30336 0.05791 -3.2574
v 2.30336 0.58878 -3.2574
v 2.30336 0.05791 -2.79158
v 2.91503 0.05791 -2.79158
v 2.91503 0.58878 -2.79158
v 2.30336 0.58878 -2.79158
v 2.30336 0.05791 -2.72778
v 2.91503 0.05791 -2.72778
v 2.91503 0.05791 -2.26196
v 2.30336 0.05791 -2.26196
v 2.30336 0.58878 -3.81814
v 2.91503 0.58878 -3.81814
v 2.91503 0.05791 -3.81814
v 2.30336 0.05791 -3.81814
v 2.91503 0.58878 -2.26196
v 2.91503 0.05791 -2.26196
v 2.91503 0.05791 -2.72778
v 2.91503 0.58878 -2.72778
v 2.91503 0.58878 -2.79158
v 2.91503 0.05791 -2.79158
v 2.91503 0.05791 -3.2574
v 2.91503 0.58878 -3.2574
v 2.91503 0.58878 -3.32289
v 2.91503 0.05791 -3.32289
v 2.91503 0.05791 -3.81814
v 2.91503 0.58878 -3.81814
v 2.30336 0.58878 -3.32289
v 2.91503 0.58878 -3.32289
v 2.91503 0.58878 -3.81814
v 2.30336 0.58878 -3.81814
v 2.30336 0.58878 -2.26196
v 2.91503 0.58878 -2.26196
v 2.91503 0.58878 -2.72778
v 2.30336 0.58878 -2.72778
v 2.30336 0.05791 -3.2574
v 2.91503 0.05791 -3.2574
v 2.91503 0.05791 -2.79158
v 2.30336 0.05791 -2.79158
v 2.30336 0.05791 -3.32289
v 2.91503 0.05791 -3.32289
v 2.91503 0.58878 -3.32289
v 2.30336 0.58878 -3.32289
v 2.30336 0.05791 -2.26196
v 2.91503 0.05791 -2.26196
v 2.91503 0.58878 -2.26196
v 2.30336 0.58878 -2.26196
v 2.30336 0.58878 -2.79158
v 2.91503 0.58878 -2.79158
v 2.91503 0.58878 -3.2574
v 2.30336 0.58878 -3.2574
v 2.30336 0.05791 -3.81814
v 2.91503 0.05791 -3.81814
v 2.91503 0.05791 -3.32289
v 2.30336 0.05791 -3.32289
v 2.30336 0.58878 -2.72778
v 2.91503 0.58878 -2.72778
v 2.91503 0.05791 -2.72778
v 2.30336 0.05791 -2.72778
v 2.30336 0.58878 -3.2574
v 2.91503 0.58878 -3.2574
v 2.91503 0.05791 -3.2574
v 2.30336 0.05791 -3.2574
vn 2.13065 0.7896664 -2.724
vn 2.13065 0.7896664 -2.724
vn 2.13065 0.7896664 -2.724
vn 2.13065 0.7896664 -2.724
vn 2.708 0.7896664 -2.14665
vn 2.708 0.7896664 -2.14665
vn 2.708 0.7896664 -2.14665
vn 2.708 0.7896664 -2.14665
vn 2.708 1.367017 -2.724
vn 2.708 1.367017 -2.724
vn 2.708 1.367017 -2.724
vn 2.708 1.367017 -2.724
vn 2.708 0.7896664 -3.30135
vn 2.708 0.7896664 -3.30135
vn 2.708 0.7896664 -3.30135
vn 2.708 0.7896664 -3.30135
vn 2.708 0.2123162 -2.724
vn 2.708 0.2123162 -2.724
vn 2.708 0.2123162 -2.724
vn 2.708 0.2123162 -2.724
vn 3.28535 0.7896664 -2.724
vn 3.28535 0.7896664 -2.724
vn 3.28535 0.7896664 -2.724
vn 3.28535 0.7896664 -2.724
vn 2.13065 0.7896664 -2.724
vn 2.13065 0.7896664 -2.724
vn 2.13065 0.7896664 -2.724
vn 2.13065 0.7896664 -2.724
vn 2.708 0.7896664 -2.14665
vn 2.708 0.7896664 -2.14665
vn 2.708 0.7896664 -2.14665
vn 2.708 0.7896664 -2.14665
vn 2.708 1.367017 -2.724
vn 2.708 1.367017 -2.724
vn 2.708 1.367017 -2.724
vn 2.708 1.367017 -2.724
vn 2.708 0.7896664 -3.30135
vn 2.708 0.7896664 -3.30135
vn 2.708 0.7896664 -3.30135
vn 2.708 0.7896664 -3.30135
vn 2.708 0.2123162 -2.724
vn 2.708 0.2123162 -2.724
vn 2.708 0.2123162 -2.724
vn 2.708 0.2123162 -2.724
vn 3.28535 0.7896664 -2.724
vn 3.28535 0.7896664 -2.724
vn 3.28535 0.7896664 -2.724
vn 3.28535 0.7896664 -2.724
vn 3.09035 0.992025 -2.341648
vn 3.09035 0.992025 -2.341648
vn 3.09035 0.992025 -2.341648
vn 2.353002 1.074772 -2.369
vn 2.353002 1.074772 -2.369
vn 2.353002 1.074772 -2.369
vn 2.831444 1.339991 -2.847443
vn 2.831444 1.339991 -2.847443
vn 2.831444 1.339991 -2.847443
vn 2.591098 1.34284 -2.840901
vn 2.591098 1.34284 -2.840901
vn 2.591098 1.34284 -2.840901
vn 2.999105 0.3848856 -2.432893
vn 2.999105 0.3848856 -2.432893
vn 2.999105 0.3848856 -2.432893
vn 2.416895 0.3848846 -2.432894
vn 2.416895 0.3848846 -2.432894
vn 2.416895 0.3848846 -2.432894
vn 2.999107 0.3848866 -3.015106
vn 2.999107 0.3848866 -3.015106
vn 2.999107 0.3848866 -3.015106
vn 2.416893 0.3848856 -3.015106
vn 2.416893 0.3848856 -3.015106
vn 2.416893 0.3848856 -3.015106
vn 3.28535 0.7896664 -2.724
vn 3.28535 0.7896664 -2.724
vn 3.28535 0.7896664 -2.724
vn 3.28535 0.7896664 -2.724
vn 3.28535 0.7896664 -2.724
vn 3.28535 0.7896664 -2.724
vn 3.28535 0.7896664 -2.724
vn 3.28535 0.7896664 -2.724
vn 2.708 0.7896664 -3.30135
vn 2.708 0.7896664 -3.30135
vn 2.708 0.7896664 -3.30135
vn 2.708 0.7896664 -3.30135
vn 2.708 1.367017 -2.724
vn 2.708 1.367017 -2.724
vn 2.708 1.367017 -2.724
vn 2.708 1.367017 -2.724
vn 2.708 1.367017 -2.724
vn 2.708 1.367017 -2.724
vn 2.708 1.367017 -2.724
vn 2.708 1.367017 -2.724
vn 2.13065 0.7896674 -2.724
vn 2.13065 0.7896674 -2.724
vn 2.13065 0.7896674 -2.724
vn 2.13065 0.7896674 -2.724
vn 2.13065 0.7896664 -2.724
vn 2.13065 0.7896664 -2.724
vn 2.13065 0.7896664 -2.724
vn 2.13065 0.7896664 -2.724
vn 2.708 1.059737 -2.213711
vn 2.708 1.059737 -2.213711
vn 2.708 1.059737 -2.213711
vn 2.708 1.059737 -2.213711
vn 2.410652 1.284558 -2.724
vn 2.410652 1.284558 -2.724
vn 2.410652 1.284558 -2.724
vn 2.410652 1.284558 -2.724
vn 2.410652 1.284558 -2.724
vn 2.410652 1.284558 -2.724
vn 2.410652 1.284558 -2.724
vn 2.410652 1.284558 -2.724
vn 2.708 1.353018 -2.850366
vn 2.708 1.353018 -2.850366
vn 2.708 1.353018 -2.850366
vn 2.708 1.353018 -2.850366
vn 3.045092 1.25839 -2.724
vn 3.045092 1.25839 -2.724
vn 3.045092 1.25839 -2.724
vn 3.045092 1.25839 -2.724
vn 3.045092 1.25839 -2.724
vn 3.045092 1.25839 -2.724
vn 3.045092 1.25839 -2.724
vn 3.045092 1.25839 -2.724
vn 2.708 0.3209428 -2.386907
vn 2.708 0.3209428 -2.386907
vn 2.708 0.3209428 -2.386907
vn 2.708 0.3209428 -2.386907
vn 2.370908 0.3209425 -2.724
vn 2.370908 0.3209425 -2.724
vn 2.370908 0.3209425 -2.724
vn 2.370908 0.3209425 -2.724
vn 2.370907 0.3209429 -2.724
vn 2.370907 0.3209429 -2.724
vn 2.370907 0.3209428 -2.724
vn 2.370907 0.3209428 -2.724
vn 2.708 0.3209428 -3.061093
vn 2.708 0.3209428 -3.061093
vn 2.708 0.3209428 -3.061093
vn 2.708 0.3209428 -3.061093
vn 3.045092 0.3209425 -2.724
vn 3.045092 0.3209425 -2.724
vn 3.045092 0.3209425 -2.724
vn 3.045092 0.3209425 -2.724
vn 3.045093 0.3209428 -2.724
vn 3.045093 0.3209428 -2.724
vn 3.045093 0.3209428 -2.724
vn 3.045093 0.3209428 -2.724
vn 3.116248 0.7896664 -3.132248
vn 3.116248 0.7896664 -3.132248
vn 3.116248 0.7896664 -3.132248
vn 3.116248 0.7896664 -3.132248
vn 2.299752 0.7896664 -3.132248
vn 2.299752 0.7896664 -3.132248
vn 2.299752 0.7896664 -3.132248
vn 2.299752 0.7896664 -3.132248
vn 2.299752 0.7896664 -2.315752
vn 2.299752 0.7896664 -2.315752
vn 2.299752 0.7896664 -2.315752
vn 2.299752 0.7896664 -2.315752
vn 3.116247 0.7896664 -2.315751
vn 3.116247 0.7896664 -2.315751
vn 3.116247 0.7896664 -2.315751
vn 3.116247 0.7896664 -2.315751
vn 2.708 0.7896664 -2.14665
vn 2.708 0.7896664 -2.14665
vn 2.708 0.7896664 -2.14665
vn 2.708 0.7896664 -2.14665
vn 2.708 0.2123162 -2.724
vn 2.708 0.2123162 -2.724
vn 2.708 0.2123162 -2.724
vn 2.708 0.2123162 -2.724
vn 2.708 0.2123162 -2.724
vn 2.708 0.2123162 -2.724
vn 2.708 0.2123162 -2.724
vn 2.708 0.2123162 -2.724
vn 2.708 0.2123162 -2.724
vn 2.708 0.2123162 -2.724
vn 2.708 0.2123162 -2.724
vn 2.708 0.2123162 -2.724
vn 2.708 0.2123162 -2.724
vn 2.708 0.2123162 -2.724
vn 2.708 0.2123162 -2.724
vn 2.708 0.2123162 -2.724
vn 2.708 0.2123162 -2.724
vn 2.708 0.2123162 -2.724
vn 2.708 0.2123162 -2.724
vn 2.708 0.2123162 -2.724
vn 2.708 0.7896664 -3.30135
vn 2.708 0.7896664 -3.30135
vn 2.708 0.7896664 -3.30135
vn 2.708 0.7896664 -3.30135
vn 2.708 0.7896664 -3.30135
vn 2.708 0.7896664 -3.30135
vn 2.708 0.7896664 -3.30135
vn 2.708 0.7896664 -3.30135
vn 2.708 0.2123162 -2.724
vn 2.708 0.2123162 -2.724
vn 2.708 0.2123162 -2.724
vn 2.708 0.2123162 -2.724
vn 2.708 0.2123162 -2.724
vn 2.708 0.2123162 -2.724
vn 2.708 0.2123162 -2.724
vn 2.708 0.2123162 -2.724
vn 2.708 0.7896664 -2.14665
vn 2.708 0.7896664 -2.14665
vn 2.708 0.7896664 -2.14665
vn 2.708 0.7896664 -2.14665
vn 2.708 0.7896664 -2.14665
vn 2.708 0.7896664 -2.14665
vn 2.708 0.7896664 -2.14665
vn 2.708 0.7896664 -2.14665
vn 3.28535 0.7896664 -2.724
vn 3.28535 0.7896664 -2.724
vn 3.28535 0.7896664 -2.724
vn 3.28535 0.7896664 -2.724
vn 3.28535 0.7896664 -2.724
vn 3.28535 0.7896664 -2.724
vn 3.28535 0.7896664 -2.724
vn 3.28535 0.7896664 -2.724
vn 3.28535 0.7896664 -2.724
vn 3.28535 0.7896664 -2.724
vn 3.28535 0.7896664 -2.724
vn 3.28535 0.7896664 -2.724
vn 3.28535 0.7896664 -2.724
vn 3.28535 0.7896664 -2.724
vn 3.28535 0.7896664 -2.724
vn 3.28535 0.7896664 -2.724
vn 2.13065 0.7896664 -2.724
vn 2.13065 0.7896664 -2.724
vn 2.13065 0.7896664 -2.724
vn 2.13065 0.7896664 -2.724
vn 2.13065 0.7896664 -2.724
vn 2.13065 0.7896664 -2.724
vn 2.13065 0.7896664 -2.724
vn 2.13065 0.7896664 -2.724
vn 2.13065 0.7896664 -2.724
vn 2.13065 0.7896664 -2.724
vn 2.13065 0.7896664 -2.724
vn 2.13065 0.7896664 -2.724
vn 2.13065 0.7896664 -2.724
vn 2.13065 0.7896664 -2.724
vn 2.13065 0.7896664 -2.724
vn 2.13065 0.7896664 -2.724
vn 2.13065 0.7896664 -2.724
vn 2.13065 0.7896664 -2.724
vn 2.13065 0.7896664 -2.724
vn 2.13065 0.7896664 -2.724
vn 2.13065 0.7896664 -2.724
vn 2.13065 0.7896664 -2.724
vn 2.13065 0.7896664 -2.724
vn 2.13065 0.7896664 -2.724
vn 2.13065 0.7896664 -2.724
vn 2.13065 0.7896664 -2.724
vn 2.13065 0.7896664 -2.724
vn 2.13065 0.7896664 -2.724
vn 2.708 0.7896664 -3.30135
vn 2.708 0.7896664 -3.30135
vn 2.708 0.7896664 -3.30135
vn 2.708 0.7896664 -3.30135
vn 2.708 1.367017 -2.724
vn 2.708 1.367017 -2.724
vn 2.708 1.367017 -2.724
vn 2.708 1.367017 -2.724
vn 2.708 0.7896664 -2.14665
vn 2.708 0.7896664 -2.14665
vn 2.708 0.7896664 -2.14665
vn 2.708 0.7896664 -2.14665
vn 2.13065 0.7896664 -2.724
vn 2.13065 0.7896664 -2.724
vn 2.13065 0.7896664 -2.724
vn 2.13065 0.7896664 -2.724
vn 2.13065 0.7896664 -2.724
vn 2.13065 0.7896664 -2.724
vn 2.13065 0.7896664 -2.724
vn 2.13065 0.7896664 -2.724
vn 2.13065 0.7896664 -2.724
vn 2.13065 0.7896664 -2.724
vn 2.13065 0.7896664 -2.724
vn 2.13065 0.7896664 -2.724
vn 2.708 0.2123162 -2.724
vn 2.708 0.2123162 -2.724
vn 2.708 0.2123162 -2.724
vn 2.708 0.2123162 -2.724
vn 2.708 0.2123162 -2.724
vn 2.708 0.2123162 -2.724
vn 2.708 0.2123162 -2.724
vn 2.708 0.2123162 -2.724
vn 2.708 1.367017 -2.724
vn 2.708 1.367017 -2.724
vn 2.708 1.367017 -2.724
vn 2.708 1.367017 -2.724
vn 2.708 0.7896664 -3.30135
vn 2.708 0.7896664 -3.30135
vn 2.708 0.7896664 -3.30135
vn 2.708 0.7896664 -3.30135
vn 2.708 0.7896664 -3.30135
vn 2.708 0.7896664 -3.30135
vn 2.708 0.7896664 -3.30135
vn 2.708 0.7896664 -3.30135
vn 2.708 0.2123162 -2.724
vn 2.708 0.2123162 -2.724
vn 2.708 0.2123162 -2.724
vn 2.708 0.2123162 -2.724
vn 2.708 1.367017 -2.724
vn 2.708 1.367017 -2.724
vn 2.708 1.367017 -2.724
vn 2.708 1.367017 -2.724
vn 2.708 0.7896664 -2.14665
vn 2.708 0.7896664 -2.14665
vn 2.708 0.7896664 -2.14665
vn 2.708 0.7896664 -2.14665
vn 2.708 0.7896664 -2.14665
vn 2.708 0.7896664 -2.14665
vn 2.708 0.7896664 -2.14665
vn 2.708 0.7896664 -2.14665
vt 0.3635461 0.91211
vt 0.835963 0.729913
vt 0.835963 0.91211
vt 0.3635461 0.729913
vt 0.6647582 0.729913
vt 0.6378703 0.91211
vt 0.6378703 0.729913
vt 0.6647582 0.91211
vt 0.3635461 0.6647582
vt 0.835963 0.6378703
vt 0.3635461 0.6378703
vt 0.835963 0.6647582
vt 0.6647582 0.91211
vt 0.6378703 0.729913
vt 0.6378703 0.91211
vt 0.6647582 0.729913
vt 0.835963 0.6647582
vt 0.3635461 0.6378703
vt 0.835963 0.6378703
vt 0.3635461 0.6647582
vt 0.3635461 0.91211
vt 0.835963 0.729913
vt 0.3635461 0.729913
vt 0.835963 0.91211
vt 0.3516162 0.91211
vt 1.304441 0.729913
vt 1.304441 0.91211
vt 0.3516162 0.729913
vt 0.6647582 0.729913
vt 0.6378703 0.91211
vt 0.6378703 0.729913
vt 0.6647582 0.91211
vt 0.3516162 0.6647582
vt 1.304441 0.6378703
vt 0.3516162 0.6378703
vt 1.304441 0.6647582
vt 0.6647582 0.91211
vt 0.6378703 0.729913
vt 0.6378703 0.91211
vt 0.6647582 0.729913
vt 0.304441 0.6647582
vt -0.6483838 0.6378703
vt 0.304441 0.6378703
vt -0.6483838 0.6647582
vt 0.3516162 0.91211
vt 1.304441 0.729913
vt 0.3516162 0.729913
vt 1.304441 0.91211
vt -2.755174 -0.831356
vt -2.740452 -0.831356
vt -2.716496 -0.870037
vt -2.755174 1.820833
vt -2.716496 1.859514
vt -2.740452 1.813217
vt 3.369557 -0.831356
vt 3.330879 -0.870037
vt 3.245549 -0.831356
vt 3.330879 1.859514
vt 3.369557 1.820833
vt 3.245549 1.813217
vt -0.3019209 1.9519
vt -0.271574 1.9519
vt -0.271574 1.921553
vt -0.3019209 1.9519
vt -0.271574 1.921553
vt -0.271574 1.9519
vt 1.503499 1.9519
vt 1.473152 1.921553
vt 1.473152 1.9519
vt 1.473152 1.9519
vt 1.473152 1.921553
vt 1.503499 1.9519
vt -2.085392 2.017217
vt -3.271574 1.9519
vt -3.271574 2.017217
vt -2.085392 1.9519
vt -0.8992109 2.017217
vt -0.8992109 1.9519
vt 1.473152 2.017217
vt 1.473152 1.9519
vt 0.8100579 2.017217
vt 0.8100579 1.9519
vt -1.270833 1.9519
vt -1.270833 2.017217
vt 0.9099659 2.232135
vt -0.6750569 0.987855
vt -0.6750569 2.232135
vt 0.9099659 0.987855
vt -0.6750569 -0.1838563
vt 0.9099659 -0.1838566
vt -0.6750569 -1.355568
vt 0.9099659 -1.355568
vt 2.100789 2.017217
vt 4.473152 1.9519
vt 4.473152 2.017217
vt 2.100789 1.9519
vt 0.9146075 2.017217
vt 0.9146075 1.9519
vt -0.271574 2.017217
vt -0.271574 1.9519
vt -2.740452 -0.831356
vt -2.755174 -0.831356
vt -2.755174 1.820833
vt -2.740452 1.813217
vt 0.2525483 1.813217
vt 3.330879 1.859514
vt 3.245549 1.813217
vt 0.3071916 1.859514
vt -1.243952 1.813217
vt -1.204652 1.859514
vt -2.740452 1.813217
vt -2.716496 1.859514
vt 3.245549 1.813217
vt 3.369557 1.820833
vt 3.369557 -0.831356
vt 3.245549 -0.831356
vt -1.243952 -0.831356
vt -2.716496 -0.870037
vt -2.740452 -0.831356
vt -1.204652 -0.870037
vt 0.2525483 -0.831356
vt 0.3071916 -0.870037
vt 3.245549 -0.831356
vt 3.330879 -0.870037
vt 1.729167 1.9519
vt 1.729167 1.921553
vt 3.810058 1.921553
vt 3.810058 1.9519
vt 2.100789 1.9519
vt 4.473152 1.921553
vt 4.473152 1.9519
vt 2.100789 1.921553
vt 0.9146075 1.9519
vt 0.9146075 1.921553
vt -0.271574 1.9519
vt -0.271574 1.921553
vt 0.8100579 1.9519
vt 0.8100579 1.921553
vt -1.270833 1.921553
vt -1.270833 1.9519
vt -2.085392 1.9519
vt -3.271574 1.921553
vt -3.271574 1.9519
vt -2.085392 1.921553
vt -0.8992109 1.9519
vt -0.8992109 1.921553
vt 1.473152 1.9519
vt 1.473152 1.921553
vt 1.473152 2.017217
vt 1.503499 2.017217
vt 1.503499 1.9519
vt 1.473152 1.9519
vt 1.473152 1.9519
vt 1.503499 1.9519
vt 1.503499 2.017217
vt 1.473152 2.017217
vt -0.271574 2.017217
vt -0.3019209 2.017217
vt -0.3019209 1.9519
vt -0.271574 1.9519
vt -0.271574 1.9519
vt -0.3019209 1.9519
vt -0.3019209 2.017217
vt -0.271574 2.017217
vt 1.729167 2.017217
vt 1.729167 1.9519
vt 3.810058 1.9519
vt 3.810058 2.017217
vt -0.2089453 1.056909
vt -0.271574 1.135069
vt -0.271574 -0.9458228
vt -0.2089453 -0.8676625
vt 0.9146075 -0.9458228
vt 0.9459218 -0.8676625
vt 2.100789 -0.9458228
vt 2.100789 -0.8676625
vt 4.473152 -0.9458228
vt 4.410523 -0.8676625
vt -2.054078 1.056909
vt -3.271574 1.135069
vt -3.208946 1.056909
vt -2.085392 1.135069
vt -0.8992113 1.056909
vt -0.8992109 1.135069
vt 1.410523 1.056909
vt 1.473152 1.135069
vt 1.410523 -0.8676625
vt 1.473152 -0.9458228
vt 0.5847096 -0.1312551
vt 0.5847096 -0.2347455
vt -0.5680318 -0.2347454
vt -0.5680319 -0.1312551
vt 0.5847095 0.8065625
vt -0.5680319 0.8065624
vt 0.5847095 1.092315
vt -0.568032 1.092316
vt -0.3678478 0.7324853
vt -0.3678478 1.692088
vt 0.7848934 1.692088
vt 0.7848936 0.7324853
vt -0.3678477 -0.1711515
vt 0.7848936 -0.1711515
vt -0.3678478 -1.074787
vt 0.7848936 -1.074788
vt 0.4518672 -0.356651
vt 0.4518672 -0.4601416
vt -0.7008745 -0.4601412
vt -0.7008745 -0.3566511
vt 0.4518672 0.5811669
vt -0.7008745 0.5811667
vt 0.4518672 0.86692
vt -0.7008745 0.8669199
vt 2.035721 -0.2513893
vt 2.035722 -0.35488
vt 1.076119 -0.3548797
vt 1.076118 -0.25139
vt 2.035722 0.6864284
vt 0.1724815 -0.3548798
vt 1.076119 0.6864284
vt 2.035722 0.9721813
vt 1.076119 0.9721811
vt 0.1724814 -0.2513896
vt -0.731155 -0.3548798
vt -0.7311546 -0.2513896
vt 0.172482 0.6864283
vt 0.1724815 0.9721812
vt -0.7311551 0.6864281
vt -0.731154 0.9721812
vt 1.942747 -0.09876382
vt 1.942747 -0.2022546
vt 1.03911 -0.2022543
vt 1.03911 -0.0987637
vt 0.1354724 -0.2022544
vt 0.1354729 -0.098764
vt -0.824131 -0.2022543
vt -0.8241299 -0.09876382
vt 1.888318 -0.08274037
vt 1.888317 0.8230314
vt 1.942748 0.8390545
vt 1.09354 0.8230313
vt 1.03911 0.8390545
vt 1.942747 1.124807
vt 1.09354 -0.08274043
vt 1.03911 1.124807
vt 0.1354725 0.8390545
vt 0.1354724 1.124807
vt -0.8241309 0.8390545
vt -0.8241311 1.124808
vt -0.7668286 -0.0827406
vt -0.7668285 0.8230313
vt 0.07817137 -0.08274043
vt 0.07817137 0.8230313
vt 0.9846808 -0.08274031
vt 0.9846798 0.8230313
vt 0.1899031 -0.0827406
vt 0.1899031 0.8230313
vt -0.06206933 -0.7131422
vt -0.06206921 0.3304843
vt 0.8437022 0.3304843
vt 0.8437023 -0.7131422
vt -0.1551483 -0.713142
vt -0.1551483 0.3304839
vt 0.6396288 0.330484
vt 0.6396289 -0.7131417
vt -0.3995726 -0.5350447
vt -0.3995726 0.5085819
vt 0.5061989 0.5085821
vt 0.5061989 -0.5350447
vt -0.39455 -0.8108107
vt -0.3945501 0.09496188
vt 0.4002281 0.09496194
vt 0.4002281 -0.8108107
vt -0.2558601 -0.8108094
vt -0.255861 0.09496129
vt 0.5389158 0.09496129
vt 0.5389157 -0.8108092
vt -0.1380944 -0.8108101
vt -0.1380943 0.094962
vt 0.7069057 0.094962
vt 0.7069061 -0.8108101
vt -0.2170469 -0.5350447
vt -0.2170468 0.5085819
vt 0.6279532 0.5085819
vt 0.6279532 -0.5350448
vt -0.2956617 -0.7131416
vt -0.2956617 0.3304834
vt 0.4991146 0.3304834
vt 0.4991145 -0.7131413
vt 0.09801197 -0.5350448
vt 0.098012 0.5085818
vt 0.8927893 0.5085815
vt 0.8927893 -0.5350448
vt 0.1904641 -0.5350448
vt 0.1904641 0.5085819
vt 1.096236 0.5085819
vt 1.096236 -0.5350448
vt -0.500934 -0.7131415
vt -0.5009341 0.3304841
vt 0.404837 0.3304841
vt 0.404837 -0.7131416
vt 0.2993081 -0.7131424
vt 0.2993082 0.3304841
vt 1.094085 0.3304844
vt 1.094085 -0.7131423
vt -0.06997785 -0.5350449
vt -0.06997779 0.5085822
vt 0.7750221 0.5085822
vt 0.775022 -0.5350446
vt -0.5979958 -0.8912393
vt -0.5979958 0.1523867
vt 0.3077757 0.1523867
vt 0.3077757 -0.891239
vt 0.09576815 -0.713142
vt 0.09576818 0.3304841
vt 1.00154 0.3304841
vt 1.001539 -0.713142
usemtl GreyFloor
f 3/3/3 2/2/2 1/1/1
f 2/2/2 4/4/4 1/1/1
f 7/7/7 6/6/6 5/5/5
f 6/6/6 8/8/8 5/5/5
f 11/11/11 10/10/10 9/9/9
f 10/10/10 12/12/12 9/9/9
f 15/15/15 14/14/14 13/13/13
f 14/14/14 16/16/16 13/13/13
f 19/19/19 18/18/18 17/17/17
f 18/18/18 20/20/20 17/17/17
f 23/23/23 22/22/22 21/21/21
f 22/22/22 24/24/24 21/21/21
f 27/27/27 26/26/26 25/25/25
f 26/26/26 28/28/28 25/25/25
f 31/31/31 30/30/30 29/29/29
f 30/30/30 32/32/32 29/29/29
f 35/35/35 34/34/34 33/33/33
f 34/34/34 36/36/36 33/33/33
f 39/39/39 38/38/38 37/37/37
f 38/38/38 40/40/40 37/37/37
f 43/43/43 42/42/42 41/41/41
f 42/42/42 44/44/44 41/41/41
f 47/47/47 46/46/46 45/45/45
f 46/46/46 48/48/48 45/45/45
usemtl Porcelain_Off_White_Mat
f 51/51/51 50/50/50 49/49/49
f 54/54/54 53/53/53 52/52/52
f 57/57/57 56/56/56 55/55/55
f 60/60/60 59/59/59 58/58/58
f 63/63/63 62/62/62 61/61/61
f 66/66/66 65/65/65 64/64/64
f 69/69/69 68/68/68 67/67/67
f 72/72/72 71/71/71 70/70/70
f 75/75/75 74/74/74 73/73/73
f 74/74/74 76/76/76 73/73/73
f 73/73/73 76/76/76 77/77/77
f 76/76/76 78/78/78 77/77/77
f 77/77/77 78/78/78 79/79/79
f 78/78/78 80/80/80 79/79/79
f 83/83/83 82/82/82 81/81/81
f 84/84/84 83/83/83 81/81/81
f 87/87/87 86/86/86 85/85/85
f 86/86/86 88/88/88 85/85/85
f 86/86/86 89/89/89 88/88/88
f 89/89/89 90/90/90 88/88/88
f 90/90/90 89/89/89 91/91/91
f 92/92/92 90/90/90 91/91/91
f 95/95/95 94/94/94 93/93/93
f 94/94/94 96/96/96 93/93/93
f 93/93/93 96/96/96 97/97/97
f 96/96/96 98/98/98 97/97/97
f 97/97/97 98/98/98 99/99/99
f 98/98/98 100/100/100 99/99/99
f 103/103/103 102/102/102 101/101/101
f 104/104/104 103/103/103 101/101/101
f 107/107/107 106/106/106 105/105/105
f 106/106/106 108/108/108 105/105/105
f 105/105/105 108/108/108 109/109/109
f 108/108/108 110/110/110 109/109/109
f 109/109/109 110/110/110 111/111/111
f 110/110/110 112/112/112 111/111/111
f 115/115/115 114/114/114 113/113/113
f 116/116/116 115/115/115 113/113/113
f 119/119/119 118/118/118 117/117/117
f 118/118/118 120/120/120 117/117/117
f 117/117/117 120/120/120 121/121/121
f 120/120/120 122/122/122 121/121/121
f 121/121/121 122/122/122 123/123/123
f 122/122/122 124/124/124 123/123/123
f 127/127/127 126/126/126 125/125/125
f 128/128/128 127/127/127 125/125/125
f 131/131/131 130/130/130 129/129/129
f 130/130/130 132/132/132 129/129/129
f 129/129/129 132/132/132 133/133/133
f 132/132/132 134/134/134 133/133/133
f 133/133/133 134/134/134 135/135/135
f 134/134/134 136/136/136 135/135/135
f 139/139/139 138/138/138 137/137/137
f 140/140/140 139/139/139 137/137/137
f 143/143/143 142/142/142 141/141/141
f 142/142/142 144/144/144 141/141/141
f 141/141/141 144/144/144 145/145/145
f 144/144/144 146/146/146 145/145/145
f 145/145/145 146/146/146 147/147/147
f 146/146/146 148/148/148 147/147/147
f 151/151/151 150/150/150 149/149/149
f 152/152/152 151/151/151 149/149/149
f 155/155/155 154/154/154 153/153/153
f 156/156/156 155/155/155 153/153/153
f 159/159/159 158/158/158 157/157/157
f 160/160/160 159/159/159 157/157/157
f 163/163/163 162/162/162 161/161/161
f 164/164/164 163/163/163 161/161/161
f 167/167/167 166/166/166 165/165/165
f 168/168/168 167/167/167 165/165/165
f 171/171/171 170/170/170 169/169/169
f 172/172/172 171/171/171 169/169/169
f 173/173/173 171/171/171 172/172/172
f 174/174/174 173/173/173 172/172/172
f 175/175/175 173/173/173 174/174/174
f 176/176/176 175/175/175 174/174/174
f 177/177/177 175/175/175 176/176/176
f 178/178/178 177/177/177 176/176/176
f 181/181/181 180/180/180 179/179/179
f 180/180/180 182/182/182 179/179/179
f 179/179/179 182/182/182 183/183/183
f 182/182/182 184/184/184 183/183/183
f 183/183/183 184/184/184 185/185/185
f 184/184/184 186/186/186 185/185/185
f 185/185/185 186/186/186 187/187/187
f 186/186/186 188/188/188 187/187/187
usemtl GreyFloor 2
f 191/191/191 190/190/190 189/189/189
f 192/192/192 191/191/191 189/189/189
f 192/192/192 189/189/189 193/193/193
f 194/194/194 192/192/192 193/193/193
f 194/194/194 193/193/193 195/195/195
f 196/196/196 194/194/194 195/195/195
f 199/199/199 198/198/198 197/197/197
f 200/200/200 199/199/199 197/197/197
f 200/200/200 197/197/197 201/201/201
f 202/202/202 200/200/200 201/201/201
f 202/202/202 201/201/201 203/203/203
f 204/204/204 202/202/202 203/203/203
f 207/207/207 206/206/206 205/205/205
f 208/208/208 207/207/207 205/205/205
f 208/208/208 205/205/205 209/209/209
f 210/210/210 208/208/208 209/209/209
f 210/210/210 209/209/209 211/211/211
f 212/212/212 210/210/210 211/211/211
f 215/215/215 214/214/214 213/213/213
f 216/216/216 215/215/215 213/213/213
f 216/216/216 213/213/213 217/217/217
f 218/218/218 215/215/215 216/216/216
f 219/219/219 216/216/216 217/217/217
f 219/219/219 217/217/217 220/220/220
f 221/221/221 219/219/219 220/220/220
f 222/222/222 218/218/218 216/216/216
f 222/222/222 216/216/216 219/219/219
f 223/223/223 218/218/218 222/222/222
f 224/224/224 223/223/223 222/222/222
f 225/225/225 219/219/219 221/221/221
f 225/225/225 222/222/222 219/219/219
f 224/224/224 222/222/222 225/225/225
f 226/226/226 225/225/225 221/221/221
f 227/227/227 224/224/224 225/225/225
f 227/227/227 225/225/225 226/226/226
f 228/228/228 227/227/227 226/226/226
f 231/231/231 230/230/230 229/229/229
f 232/232/232 231/231/231 229/229/229
f 233/233/233 231/231/231 232/232/232
f 234/234/234 233/233/233 232/232/232
f 235/235/235 233/233/233 234/234/234
f 236/236/236 235/235/235 234/234/234
f 232/232/232 229/229/229 237/237/237
f 237/237/237 229/229/229 238/238/238
f 229/229/229 239/239/239 238/238/238
f 238/238/238 239/239/239 240/240/240
f 239/239/239 241/241/241 240/240/240
f 241/241/241 239/239/239 242/242/242
f 243/243/243 232/232/232 237/237/237
f 240/240/240 241/241/241 243/243/243
f 241/241/241 232/232/232 243/243/243
f 244/244/244 241/241/241 242/242/242
f 245/245/245 241/241/241 244/244/244
f 246/246/246 245/245/245 244/244/244
f 247/247/247 245/245/245 246/246/246
f 248/248/248 247/247/247 246/246/246
f 247/247/247 236/236/236 249/249/249
f 250/250/250 247/247/247 249/249/249
f 245/245/245 247/247/247 250/250/250
f 249/249/249 236/236/236 251/251/251
f 236/236/236 234/234/234 251/251/251
f 252/252/252 245/245/245 250/250/250
f 251/251/251 234/234/234 252/252/252
f 234/234/234 245/245/245 252/252/252
f 234/234/234 232/232/232 253/253/253
f 253/253/253 232/232/232 254/254/254
f 232/232/232 241/241/241 254/254/254
f 255/255/255 234/234/234 253/253/253
f 245/245/245 234/234/234 255/255/255
f 254/254/254 241/241/241 256/256/256
f 256/256/256 245/245/245 255/255/255
f 241/241/241 245/245/245 256/256/256
f 259/259/259 258/258/258 257/257/257
f 260/260/260 259/259/259 257/257/257
f 263/263/263 262/262/262 261/261/261
f 264/264/264 263/263/263 261/261/261
f 267/267/267 266/266/266 265/265/265
f 268/268/268 267/267/267 265/265/265
f 271/271/271 270/270/270 269/269/269
f 272/272/272 271/271/271 269/269/269
f 275/275/275 274/274/274 273/273/273
f 276/276/276 275/275/275 273/273/273
f 279/279/279 278/278/278 277/277/277
f 280/280/280 279/279/279 277/277/277
f 283/283/283 282/282/282 281/281/281
f 284/284/284 283/283/283 281/281/281
f 287/287/287 286/286/286 285/285/285
f 288/288/288 287/287/287 285/285/285
f 291/291/291 290/290/290 289/289/289
f 292/292/292 291/291/291 289/289/289
f 295/295/295 294/294/294 293/293/293
f 296/296/296 295/295/295 293/293/293
f 299/299/299 298/298/298 297/297/297
f 300/300/300 299/299/299 297/297/297
f 303/303/303 302/302/302 301/301/301
f 304/304/304 303/303/303 301/301/301
f 307/307/307 306/306/306 305/305/305
f 308/308/308 307/307/307 305/305/305
f 311/311/311 310/310/310 309/309/309
f 312/312/312 311/311/311 309/309/309
f 315/315/315 314/314/314 313/313/313
f 316/316/316 315/315/315 313/313/313
g FP418:BathroomSink2_5af95d26
v 2.28202 0.75005 -3.31761
v 2.28202 0.61206 -3.81514
v 2.28202 0.75005 -3.81514
v 2.28202 0.61206 -3.31762
v 2.28202 0.61206 -3.31762
v 2.31033 0.75005 -3.31761
v 2.31033 0.61206 -3.31762
v 2.28202 0.75005 -3.31761
v 2.28202 0.75005 -3.31761
v 2.31033 0.75005 -3.81514
v 2.31033 0.75005 -3.31761
v 2.28202 0.75005 -3.81514
v 2.28202 0.75005 -3.81514
v 2.31033 0.61206 -3.81514
v 2.31033 0.75005 -3.81514
v 2.28202 0.61206 -3.81514
v 2.28202 0.61206 -3.81514
v 2.31033 0.61206 -3.31762
v 2.31033 0.61206 -3.81514
v 2.28202 0.61206 -3.31762
v 2.31033 0.75005 -3.31761
v 2.31033 0.61206 -3.81514
v 2.31033 0.61206 -3.31762
v 2.31033 0.75005 -3.81514
v 2.28202 0.75005 -2.2519
v 2.28202 0.61206 -3.25537
v 2.28202 0.75005 -3.25537
v 2.28202 0.61206 -2.2519
v 2.28202 0.61206 -2.2519
v 2.31033 0.75005 -2.2519
v 2.31033 0.61206 -2.2519
v 2.28202 0.75005 -2.2519
v 2.28202 0.75005 -2.2519
v 2.31033 0.75005 -3.25537
v 2.31033 0.75005 -2.2519
v 2.28202 0.75005 -3.25537
v 2.28202 0.75005 -3.25537
v 2.31033 0.61206 -3.25537
v 2.31033 0.75005 -3.25537
v 2.28202 0.61206 -3.25537
v 2.28202 0.61206 -3.25537
v 2.31033 0.61206 -2.2519
v 2.31033 0.61206 -3.25537
v 2.28202 0.61206 -2.2519
v 2.31033 0.75005 -2.2519
v 2.31033 0.61206 -3.25537
v 2.31033 0.61206 -2.2519
v 2.31033 0.75005 -3.25537
v 3.00642 0.7898 -2.19742
v 3.00642 0.79746 -2.20147
v 3.01707 0.7898 -2.20807
v 2.27592 0.7898 -2.19742
v 2.26527 0.7898 -2.20807
v 2.27802 0.79746 -2.20147
v 3.00642 0.7898 -3.88437
v 3.01707 0.7898 -3.87371
v 3.00642 0.79746 -3.85021
v 2.26527 0.7898 -3.87371
v 2.27592 0.7898 -3.88437
v 2.27802 0.79746 -3.85021
v 3.00642 0.77331 -2.19742
v 3.01707 0.77331 -2.20807
v 3.00642 0.76565 -2.20807
v 2.27592 0.77331 -2.19742
v 2.27592 0.76565 -2.20807
v 2.26527 0.77331 -2.20807
v 3.00642 0.77331 -3.88437
v 3.00642 0.76565 -3.87371
v 3.01707 0.77331 -3.87371
v 2.26527 0.77331 -3.87371
v 2.27592 0.76565 -3.87371
v 2.27592 0.77331 -3.88437
v 3.01707 0.7898 -2.75205
v 3.01707 0.77331 -2.20807
v 3.01707 0.7898 -2.20807
v 3.01707 0.77331 -2.75205
v 3.01707 0.7898 -3.29604
v 3.01707 0.77331 -3.29604
v 3.01707 0.7898 -3.87371
v 3.01707 0.77331 -3.87371
v 2.27592 0.7898 -3.88437
v 2.27592 0.77331 -3.88437
v 3.00642 0.77331 -3.88437
v 3.00642 0.7898 -3.88437
v 3.00642 0.79746 -3.85021
v 2.27802 0.79746 -3.2784
v 2.27802 0.79746 -3.85021
v 3.00642 0.79746 -3.2784
v 2.27802 0.79746 -2.73994
v 3.00642 0.79746 -2.73994
v 2.27802 0.79746 -2.20147
v 3.00642 0.79746 -2.20147
v 2.26527 0.7898 -3.29604
v 2.26527 0.77331 -3.87371
v 2.26527 0.7898 -3.87371
v 2.26527 0.77331 -3.29604
v 2.26527 0.7898 -2.75205
v 2.26527 0.77331 -2.75205
v 2.26527 0.7898 -2.20807
v 2.26527 0.77331 -2.20807
v 3.00642 0.79746 -2.20147
v 3.00642 0.7898 -2.19742
v 2.27592 0.7898 -2.19742
v 2.27802 0.79746 -2.20147
v 2.27802 0.79746 -3.2784
v 2.26527 0.7898 -3.87371
v 2.27802 0.79746 -3.85021
v 2.26527 0.7898 -3.29604
v 2.27802 0.79746 -2.73994
v 2.26527 0.7898 -2.75205
v 2.27802 0.79746 -2.20147
v 2.26527 0.7898 -2.20807
v 2.27802 0.79746 -3.85021
v 2.27592 0.7898 -3.88437
v 3.00642 0.7898 -3.88437
v 3.00642 0.79746 -3.85021
v 3.00642 0.79746 -2.73994
v 3.01707 0.7898 -2.20807
v 3.00642 0.79746 -2.20147
v 3.01707 0.7898 -2.75205
v 3.00642 0.79746 -3.2784
v 3.01707 0.7898 -3.29604
v 3.00642 0.79746 -3.85021
v 3.01707 0.7898 -3.87371
v 3.00642 0.77331 -2.19742
v 3.00642 0.76565 -2.20807
v 2.27592 0.76565 -2.20807
v 2.27592 0.77331 -2.19742
v 2.26527 0.77331 -3.29604
v 2.27592 0.76565 -3.87371
v 2.26527 0.77331 -3.87371
v 2.27592 0.76565 -3.29604
v 2.26527 0.77331 -2.75205
v 2.27592 0.76565 -2.75205
v 2.26527 0.77331 -2.20807
v 2.27592 0.76565 -2.20807
v 2.27592 0.77331 -3.88437
v 2.27592 0.76565 -3.87371
v 3.00642 0.76565 -3.87371
v 3.00642 0.77331 -3.88437
v 3.01707 0.77331 -2.75205
v 3.00642 0.76565 -2.20807
v 3.01707 0.77331 -2.20807
v 3.00642 0.76565 -2.75205
v 3.01707 0.77331 -3.29604
v 3.00642 0.76565 -3.29604
v 3.01707 0.77331 -3.87371
v 3.00642 0.76565 -3.87371
v 3.01707 0.7898 -3.87371
v 3.00642 0.7898 -3.88437
v 3.00642 0.77331 -3.88437
v 3.01707 0.77331 -3.87371
v 2.26527 0.77331 -3.87371
v 2.27592 0.77331 -3.88437
v 2.27592 0.7898 -3.88437
v 2.26527 0.7898 -3.87371
v 2.26527 0.7898 -2.20807
v 2.27592 0.7898 -2.19742
v 2.27592 0.77331 -2.19742
v 2.26527 0.77331 -2.20807
v 3.01707 0.77331 -2.20807
v 3.00642 0.77331 -2.19742
v 3.00642 0.7898 -2.19742
v 3.01707 0.7898 -2.20807
v 3.00642 0.7898 -2.19742
v 3.00642 0.77331 -2.19742
v 2.27592 0.77331 -2.19742
v 2.27592 0.7898 -2.19742
v 2.30336 0.76565 -2.23006
v 2.27592 0.76565 -2.20807
v 3.00642 0.76565 -2.20807
v 2.97898 0.76565 -2.23006
v 3.00642 0.76565 -2.75205
v 2.97898 0.76565 -2.75968
v 3.00642 0.76565 -3.29604
v 2.97898 0.76565 -3.2893
v 3.00642 0.76565 -3.87371
v 2.97898 0.76565 -3.85173
v 2.30336 0.76565 -2.75968
v 2.27592 0.76565 -2.20807
v 2.30336 0.76565 -2.23006
v 2.27592 0.76565 -2.75205
v 2.30336 0.76565 -3.2893
v 2.27592 0.76565 -3.29604
v 2.30336 0.76565 -3.85173
v 2.27592 0.76565 -3.87371
v 2.97898 0.76565 -3.85173
v 3.00642 0.76565 -3.87371
v 2.30336 0.04852 -3.85173
v 2.30336 -0.01214 -3.85173
v 2.97898 -0.01214 -3.85173
v 2.97898 0.04852 -3.85173
v 2.30336 0.59817 -3.85173
v 2.97898 0.59817 -3.85173
v 2.30336 0.76565 -3.85173
v 2.97898 0.76565 -3.85173
v 2.97898 -0.01214 -3.2893
v 2.97898 -0.01214 -3.85173
v 2.30336 -0.01214 -3.85173
v 2.30336 -0.01214 -3.2893
v 2.97898 -0.01214 -2.75968
v 2.30336 -0.01214 -2.75968
v 2.97898 -0.01214 -2.23006
v 2.30336 -0.01214 -2.23006
v 2.97898 0.04852 -2.23006
v 2.97898 -0.01214 -2.23006
v 2.30336 -0.01214 -2.23006
v 2.30336 0.04852 -2.23006
v 2.97898 0.59817 -2.23006
v 2.30336 0.59817 -2.23006
v 2.97898 0.76565 -2.23006
v 2.30336 0.76565 -2.23006
v 2.97898 0.04852 -3.85173
v 2.97898 -0.01214 -3.85173
v 2.97898 -0.01214 -3.2893
v 2.97898 0.04852 -3.2893
v 2.97898 0.59817 -3.85173
v 2.97898 -0.01214 -2.75968
v 2.97898 0.59817 -3.2893
v 2.97898 0.76565 -3.85173
v 2.97898 0.76565 -3.2893
v 2.97898 0.04852 -2.75968
v 2.97898 -0.01214 -2.23006
v 2.97898 0.04852 -2.23006
v 2.97898 0.59817 -2.75968
v 2.97898 0.76565 -2.75968
v 2.97898 0.59817 -2.23006
v 2.97898 0.76565 -2.23006
v 2.30336 0.04852 -2.23006
v 2.30336 -0.01214 -2.23006
v 2.30336 -0.01214 -2.75968
v 2.30336 0.04852 -2.75968
v 2.30336 -0.01214 -3.2893
v 2.30336 0.04852 -3.2893
v 2.30336 -0.01214 -3.85173
v 2.30336 0.04852 -3.85173
v 2.30336 0.05791 -2.26196
v 2.30336 0.58878 -2.26196
v 2.30336 0.59817 -2.23006
v 2.30336 0.58878 -2.72778
v 2.30336 0.59817 -2.75968
v 2.30336 0.76565 -2.23006
v 2.30336 0.05791 -2.72778
v 2.30336 0.76565 -2.75968
v 2.30336 0.59817 -3.2893
v 2.30336 0.76565 -3.2893
v 2.30336 0.59817 -3.85173
v 2.30336 0.76565 -3.85173
v 2.30336 0.05791 -3.81814
v 2.30336 0.58878 -3.81814
v 2.30336 0.05791 -3.32289
v 2.30336 0.58878 -3.32289
v 2.30336 0.05791 -2.79158
v 2.30336 0.58878 -2.79158
v 2.30336 0.05791 -3.2574
v 2.30336 0.58878 -3.2574
v 2.30336 0.05791 -2.79158
v 2.91503 0.05791 -2.79158
v 2.91503 0.58878 -2.79158
v 2.30336 0.58878 -2.79158
v 2.30336 0.05791 -2.72778
v 2.91503 0.05791 -2.72778
v 2.91503 0.05791 -2.26196
v 2.30336 0.05791 -2.26196
v 2.30336 0.58878 -3.81814
v 2.91503 0.58878 -3.81814
v 2.91503 0.05791 -3.81814
v 2.30336 0.05791 -3.81814
v 2.91503 0.58878 -2.26196
v 2.91503 0.05791 -2.26196
v 2.91503 0.05791 -2.72778
v 2.91503 0.58878 -2.72778
v 2.91503 0.58878 -2.79158
v 2.91503 0.05791 -2.79158
v 2.91503 0.05791 -3.2574
v 2.91503 0.58878 -3.2574
v 2.91503 0.58878 -3.32289
v 2.91503 0.05791 -3.32289
v 2.91503 0.05791 -3.81814
v 2.91503 0.58878 -3.81814
v 2.30336 0.58878 -3.32289
v 2.91503 0.58878 -3.32289
v 2.91503 0.58878 -3.81814
v 2.30336 0.58878 -3.81814
v 2.30336 0.58878 -2.26196
v 2.91503 0.58878 -2.26196
v 2.91503 0.58878 -2.72778
v 2.30336 0.58878 -2.72778
v 2.30336 0.05791 -3.2574
v 2.91503 0.05791 -3.2574
v 2.91503 0.05791 -2.79158
v 2.30336 0.05791 -2.79158
v 2.30336 0.05791 -3.32289
v 2.91503 0.05791 -3.32289
v 2.91503 0.58878 -3.32289
v 2.30336 0.58878 -3.32289
v 2.30336 0.05791 -2.26196
v 2.91503 0.05791 -2.26196
v 2.91503 0.58878 -2.26196
v 2.30336 0.58878 -2.26196
v 2.30336 0.58878 -2.79158
v 2.91503 0.58878 -2.79158
v 2.91503 0.58878 -3.2574
v 2.30336 0.58878 -3.2574
v 2.30336 0.05791 -3.81814
v 2.91503 0.05791 -3.81814
v 2.91503 0.05791 -3.32289
v 2.30336 0.05791 -3.32289
v 2.30336 0.58878 -2.72778
v 2.91503 0.58878 -2.72778
v 2.91503 0.05791 -2.72778
v 2.30336 0.05791 -2.72778
v 2.30336 0.58878 -3.2574
v 2.91503 0.58878 -3.2574
v 2.91503 0.05791 -3.2574
v 2.30336 0.05791 -3.2574
vn 2.13065 0.7896664 -2.724
vn 2.13065 0.7896664 -2.724
vn 2.13065 0.7896664 -2.724
vn 2.13065 0.7896664 -2.724
vn 2.708 0.7896664 -2.14665
vn 2.708 0.7896664 -2.14665
vn 2.708 0.7896664 -2.14665
vn 2.708 0.7896664 -2.14665
vn 2.708 1.367017 -2.724
vn 2.708 1.367017 -2.724
vn 2.708 1.367017 -2.724
vn 2.708 1.367017 -2.724
vn 2.708 0.7896664 -3.30135
vn 2.708 0.7896664 -3.30135
vn 2.708 0.7896664 -3.30135
vn 2.708 0.7896664 -3.30135
vn 2.708 0.2123162 -2.724
vn 2.708 0.2123162 -2.724
vn 2.708 0.2123162 -2.724
vn 2.708 0.2123162 -2.724
vn 3.28535 0.7896664 -2.724
vn 3.28535 0.7896664 -2.724
vn 3.28535 0.7896664 -2.724
vn 3.28535 0.7896664 -2.724
vn 2.13065 0.7896664 -2.724
vn 2.13065 0.7896664 -2.724
vn 2.13065 0.7896664 -2.724
vn 2.13065 0.7896664 -2.724
vn 2.708 0.7896664 -2.14665
vn 2.708 0.7896664 -2.14665
vn 2.708 0.7896664 -2.14665
vn 2.708 0.7896664 -2.14665
vn 2.708 1.367017 -2.724
vn 2.708 1.367017 -2.724
vn 2.708 1.367017 -2.724
vn 2.708 1.367017 -2.724
vn 2.708 0.7896664 -3.30135
vn 2.708 0.7896664 -3.30135
vn 2.708 0.7896664 -3.30135
vn 2.708 0.7896664 -3.30135
vn 2.708 0.2123162 -2.724
vn 2.708 0.2123162 -2.724
vn 2.708 0.2123162 -2.724
vn 2.708 0.2123162 -2.724
vn 3.28535 0.7896664 -2.724
vn 3.28535 0.7896664 -2.724
vn 3.28535 0.7896664 -2.724
vn 3.28535 0.7896664 -2.724
vn 3.09035 0.992025 -2.341648
vn 3.09035 0.992025 -2.341648
vn 3.09035 0.992025 -2.341648
vn 2.353002 1.074772 -2.369
vn 2.353002 1.074772 -2.369
vn 2.353002 1.074772 -2.369
vn 2.831444 1.339991 -2.847443
vn 2.831444 1.339991 -2.847443
vn 2.831444 1.339991 -2.847443
vn 2.591098 1.34284 -2.840901
vn 2.591098 1.34284 -2.840901
vn 2.591098 1.34284 -2.840901
vn 2.999105 0.3848856 -2.432893
vn 2.999105 0.3848856 -2.432893
vn 2.999105 0.3848856 -2.432893
vn 2.416895 0.3848846 -2.432894
vn 2.416895 0.3848846 -2.432894
vn 2.416895 0.3848846 -2.432894
vn 2.999107 0.3848866 -3.015106
vn 2.999107 0.3848866 -3.015106
vn 2.999107 0.3848866 -3.015106
vn 2.416893 0.3848856 -3.015106
vn 2.416893 0.3848856 -3.015106
vn 2.416893 0.3848856 -3.015106
vn 3.28535 0.7896664 -2.724
vn 3.28535 0.7896664 -2.724
vn 3.28535 0.7896664 -2.724
vn 3.28535 0.7896664 -2.724
vn 3.28535 0.7896664 -2.724
vn 3.28535 0.7896664 -2.724
vn 3.28535 0.7896664 -2.724
vn 3.28535 0.7896664 -2.724
vn 2.708 0.7896664 -3.30135
vn 2.708 0.7896664 -3.30135
vn 2.708 0.7896664 -3.30135
vn 2.708 0.7896664 -3.30135
vn 2.708 1.367017 -2.724
vn 2.708 1.367017 -2.724
vn 2.708 1.367017 -2.724
vn 2.708 1.367017 -2.724
vn 2.708 1.367017 -2.724
vn 2.708 1.367017 -2.724
vn 2.708 1.367017 -2.724
vn 2.708 1.367017 -2.724
vn 2.13065 0.7896674 -2.724
vn 2.13065 0.7896674 -2.724
vn 2.13065 0.7896674 -2.724
vn 2.13065 0.7896674 -2.724
vn 2.13065 0.7896664 -2.724
vn 2.13065 0.7896664 -2.724
vn 2.13065 0.7896664 -2.724
vn 2.13065 0.7896664 -2.724
vn 2.708 1.059737 -2.213711
vn 2.708 1.059737 -2.213711
vn 2.708 1.059737 -2.213711
vn 2.708 1.059737 -2.213711
vn 2.410652 1.284558 -2.724
vn 2.410652 1.284558 -2.724
vn 2.410652 1.284558 -2.724
vn 2.410652 1.284558 -2.724
vn 2.410652 1.284558 -2.724
vn 2.410652 1.284558 -2.724
vn 2.410652 1.284558 -2.724
vn 2.410652 1.284558 -2.724
vn 2.708 1.353018 -2.850366
vn 2.708 1.353018 -2.850366
vn 2.708 1.353018 -2.850366
vn 2.708 1.353018 -2.850366
vn 3.045092 1.25839 -2.724
vn 3.045092 1.25839 -2.724
vn 3.045092 1.25839 -2.724
vn 3.045092 1.25839 -2.724
vn 3.045092 1.25839 -2.724
vn 3.045092 1.25839 -2.724
vn 3.045092 1.25839 -2.724
vn 3.045092 1.25839 -2.724
vn 2.708 0.3209428 -2.386907
vn 2.708 0.3209428 -2.386907
vn 2.708 0.3209428 -2.386907
vn 2.708 0.3209428 -2.386907
vn 2.370908 0.3209425 -2.724
vn 2.370908 0.3209425 -2.724
vn 2.370908 0.3209425 -2.724
vn 2.370908 0.3209425 -2.724
vn 2.370907 0.3209429 -2.724
vn 2.370907 0.3209429 -2.724
vn 2.370907 0.3209428 -2.724
vn 2.370907 0.3209428 -2.724
vn 2.708 0.3209428 -3.061093
vn 2.708 0.3209428 -3.061093
vn 2.708 0.3209428 -3.061093
vn 2.708 0.3209428 -3.061093
vn 3.045092 0.3209425 -2.724
vn 3.045092 0.3209425 -2.724
vn 3.045092 0.3209425 -2.724
vn 3.045092 0.3209425 -2.724
vn 3.045093 0.3209428 -2.724
vn 3.045093 0.3209428 -2.724
vn 3.045093 0.3209428 -2.724
vn 3.045093 0.3209428 -2.724
vn 3.116248 0.7896664 -3.132248
vn 3.116248 0.7896664 -3.132248
vn 3.116248 0.7896664 -3.132248
vn 3.116248 0.7896664 -3.132248
vn 2.299752 0.7896664 -3.132248
vn 2.299752 0.7896664 -3.132248
vn 2.299752 0.7896664 -3.132248
vn 2.299752 0.7896664 -3.132248
vn 2.299752 0.7896664 -2.315752
vn 2.299752 0.7896664 -2.315752
vn 2.299752 0.7896664 -2.315752
vn 2.299752 0.7896664 -2.315752
vn 3.116247 0.7896664 -2.315751
vn 3.116247 0.7896664 -2.315751
vn 3.116247 0.7896664 -2.315751
vn 3.116247 0.7896664 -2.315751
vn 2.708 0.7896664 -2.14665
vn 2.708 0.7896664 -2.14665
vn 2.708 0.7896664 -2.14665
vn 2.708 0.7896664 -2.14665
vn 2.708 0.2123162 -2.724
vn 2.708 0.2123162 -2.724
vn 2.708 0.2123162 -2.724
vn 2.708 0.2123162 -2.724
vn 2.708 0.2123162 -2.724
vn 2.708 0.2123162 -2.724
vn 2.708 0.2123162 -2.724
vn 2.708 0.2123162 -2.724
vn 2.708 0.2123162 -2.724
vn 2.708 0.2123162 -2.724
vn 2.708 0.2123162 -2.724
vn 2.708 0.2123162 -2.724
vn 2.708 0.2123162 -2.724
vn 2.708 0.2123162 -2.724
vn 2.708 0.2123162 -2.724
vn 2.708 0.2123162 -2.724
vn 2.708 0.2123162 -2.724
vn 2.708 0.2123162 -2.724
vn 2.708 0.2123162 -2.724
vn 2.708 0.2123162 -2.724
vn 2.708 0.7896664 -3.30135
vn 2.708 0.7896664 -3.30135
vn 2.708 0.7896664 -3.30135
vn 2.708 0.7896664 -3.30135
vn 2.708 0.7896664 -3.30135
vn 2.708 0.7896664 -3.30135
vn 2.708 0.7896664 -3.30135
vn 2.708 0.7896664 -3.30135
vn 2.708 0.2123162 -2.724
vn 2.708 0.2123162 -2.724
vn 2.708 0.2123162 -2.724
vn 2.708 0.2123162 -2.724
vn 2.708 0.2123162 -2.724
vn 2.708 0.2123162 -2.724
vn 2.708 0.2123162 -2.724
vn 2.708 0.2123162 -2.724
vn 2.708 0.7896664 -2.14665
vn 2.708 0.7896664 -2.14665
vn 2.708 0.7896664 -2.14665
vn 2.708 0.7896664 -2.14665
vn 2.708 0.7896664 -2.14665
vn 2.708 0.7896664 -2.14665
vn 2.708 0.7896664 -2.14665
vn 2.708 0.7896664 -2.14665
vn 3.28535 0.7896664 -2.724
vn 3.28535 0.7896664 -2.724
vn 3.28535 0.7896664 -2.724
vn 3.28535 0.7896664 -2.724
vn 3.28535 0.7896664 -2.724
vn 3.28535 0.7896664 -2.724
vn 3.28535 0.7896664 -2.724
vn 3.28535 0.7896664 -2.724
vn 3.28535 0.7896664 -2.724
vn 3.28535 0.7896664 -2.724
vn 3.28535 0.7896664 -2.724
vn 3.28535 0.7896664 -2.724
vn 3.28535 0.7896664 -2.724
vn 3.28535 0.7896664 -2.724
vn 3.28535 0.7896664 -2.724
vn 3.28535 0.7896664 -2.724
vn 2.13065 0.7896664 -2.724
vn 2.13065 0.7896664 -2.724
vn 2.13065 0.7896664 -2.724
vn 2.13065 0.7896664 -2.724
vn 2.13065 0.7896664 -2.724
vn 2.13065 0.7896664 -2.724
vn 2.13065 0.7896664 -2.724
vn 2.13065 0.7896664 -2.724
vn 2.13065 0.7896664 -2.724
vn 2.13065 0.7896664 -2.724
vn 2.13065 0.7896664 -2.724
vn 2.13065 0.7896664 -2.724
vn 2.13065 0.7896664 -2.724
vn 2.13065 0.7896664 -2.724
vn 2.13065 0.7896664 -2.724
vn 2.13065 0.7896664 -2.724
vn 2.13065 0.7896664 -2.724
vn 2.13065 0.7896664 -2.724
vn 2.13065 0.7896664 -2.724
vn 2.13065 0.7896664 -2.724
vn 2.13065 0.7896664 -2.724
vn 2.13065 0.7896664 -2.724
vn 2.13065 0.7896664 -2.724
vn 2.13065 0.7896664 -2.724
vn 2.13065 0.7896664 -2.724
vn 2.13065 0.7896664 -2.724
vn 2.13065 0.7896664 -2.724
vn 2.13065 0.7896664 -2.724
vn 2.708 0.7896664 -3.30135
vn 2.708 0.7896664 -3.30135
vn 2.708 0.7896664 -3.30135
vn 2.708 0.7896664 -3.30135
vn 2.708 1.367017 -2.724
vn 2.708 1.367017 -2.724
vn 2.708 1.367017 -2.724
vn 2.708 1.367017 -2.724
vn 2.708 0.7896664 -2.14665
vn 2.708 0.7896664 -2.14665
vn 2.708 0.7896664 -2.14665
vn 2.708 0.7896664 -2.14665
vn 2.13065 0.7896664 -2.724
vn 2.13065 0.7896664 -2.724
vn 2.13065 0.7896664 -2.724
vn 2.13065 0.7896664 -2.724
vn 2.13065 0.7896664 -2.724
vn 2.13065 0.7896664 -2.724
vn 2.13065 0.7896664 -2.724
vn 2.13065 0.7896664 -2.724
vn 2.13065 0.7896664 -2.724
vn 2.13065 0.7896664 -2.724
vn 2.13065 0.7896664 -2.724
vn 2.13065 0.7896664 -2.724
vn 2.708 0.2123162 -2.724
vn 2.708 0.2123162 -2.724
vn 2.708 0.2123162 -2.724
vn 2.708 0.2123162 -2.724
vn 2.708 0.2123162 -2.724
vn 2.708 0.2123162 -2.724
vn 2.708 0.2123162 -2.724
vn 2.708 0.2123162 -2.724
vn 2.708 1.367017 -2.724
vn 2.708 1.367017 -2.724
vn 2.708 1.367017 -2.724
vn 2.708 1.367017 -2.724
vn 2.708 0.7896664 -3.30135
vn 2.708 0.7896664 -3.30135
vn 2.708 0.7896664 -3.30135
vn 2.708 0.7896664 -3.30135
vn 2.708 0.7896664 -3.30135
vn 2.708 0.7896664 -3.30135
vn 2.708 0.7896664 -3.30135
vn 2.708 0.7896664 -3.30135
vn 2.708 0.2123162 -2.724
vn 2.708 0.2123162 -2.724
vn 2.708 0.2123162 -2.724
vn 2.708 0.2123162 -2.724
vn 2.708 1.367017 -2.724
vn 2.708 1.367017 -2.724
vn 2.708 1.367017 -2.724
vn 2.708 1.367017 -2.724
vn 2.708 0.7896664 -2.14665
vn 2.708 0.7896664 -2.14665
vn 2.708 0.7896664 -2.14665
vn 2.708 0.7896664 -2.14665
vn 2.708 0.7896664 -2.14665
vn 2.708 0.7896664 -2.14665
vn 2.708 0.7896664 -2.14665
vn 2.708 0.7896664 -2.14665
vt 0.3635461 0.91211
vt 0.835963 0.729913
vt 0.835963 0.91211
vt 0.3635461 0.729913
vt 0.6647582 0.729913
vt 0.6378703 0.91211
vt 0.6378703 0.729913
vt 0.6647582 0.91211
vt 0.3635461 0.6647582
vt 0.835963 0.6378703
vt 0.3635461 0.6378703
vt 0.835963 0.6647582
vt 0.6647582 0.91211
vt 0.6378703 0.729913
vt 0.6378703 0.91211
vt 0.6647582 0.729913
vt 0.835963 0.6647582
vt 0.3635461 0.6378703
vt 0.835963 0.6378703
vt 0.3635461 0.6647582
vt 0.3635461 0.91211
vt 0.835963 0.729913
vt 0.3635461 0.729913
vt 0.835963 0.91211
vt 0.3516162 0.91211
vt 1.304441 0.729913
vt 1.304441 0.91211
vt 0.3516162 0.729913
vt 0.6647582 0.729913
vt 0.6378703 0.91211
vt 0.6378703 0.729913
vt 0.6647582 0.91211
vt 0.3516162 0.6647582
vt 1.304441 0.6378703
vt 0.3516162 0.6378703
vt 1.304441 0.6647582
vt 0.6647582 0.91211
vt 0.6378703 0.729913
vt 0.6378703 0.91211
vt 0.6647582 0.729913
vt 0.304441 0.6647582
vt -0.6483838 0.6378703
vt 0.304441 0.6378703
vt -0.6483838 0.6647582
vt 0.3516162 0.91211
vt 1.304441 0.729913
vt 0.3516162 0.729913
vt 1.304441 0.91211
vt -2.755174 -0.831356
vt -2.740452 -0.831356
vt -2.716496 -0.870037
vt -2.755174 1.820833
vt -2.716496 1.859514
vt -2.740452 1.813217
vt 3.369557 -0.831356
vt 3.330879 -0.870037
vt 3.245549 -0.831356
vt 3.330879 1.859514
vt 3.369557 1.820833
vt 3.245549 1.813217
vt -0.3019209 1.9519
vt -0.271574 1.9519
vt -0.271574 1.921553
vt -0.3019209 1.9519
vt -0.271574 1.921553
vt -0.271574 1.9519
vt 1.503499 1.9519
vt 1.473152 1.921553
vt 1.473152 1.9519
vt 1.473152 1.9519
vt 1.473152 1.921553
vt 1.503499 1.9519
vt -2.085392 2.017217
vt -3.271574 1.9519
vt -3.271574 2.017217
vt -2.085392 1.9519
vt -0.8992109 2.017217
vt -0.8992109 1.9519
vt 1.473152 2.017217
vt 1.473152 1.9519
vt 0.8100579 2.017217
vt 0.8100579 1.9519
vt -1.270833 1.9519
vt -1.270833 2.017217
vt 0.9099659 2.232135
vt -0.6750569 0.987855
vt -0.6750569 2.232135
vt 0.9099659 0.987855
vt -0.6750569 -0.1838563
vt 0.9099659 -0.1838566
vt -0.6750569 -1.355568
vt 0.9099659 -1.355568
vt 2.100789 2.017217
vt 4.473152 1.9519
vt 4.473152 2.017217
vt 2.100789 1.9519
vt 0.9146075 2.017217
vt 0.9146075 1.9519
vt -0.271574 2.017217
vt -0.271574 1.9519
vt -2.740452 -0.831356
vt -2.755174 -0.831356
vt -2.755174 1.820833
vt -2.740452 1.813217
vt 0.2525483 1.813217
vt 3.330879 1.859514
vt 3.245549 1.813217
vt 0.3071916 1.859514
vt -1.243952 1.813217
vt -1.204652 1.859514
vt -2.740452 1.813217
vt -2.716496 1.859514
vt 3.245549 1.813217
vt 3.369557 1.820833
vt 3.369557 -0.831356
vt 3.245549 -0.831356
vt -1.243952 -0.831356
vt -2.716496 -0.870037
vt -2.740452 -0.831356
vt -1.204652 -0.870037
vt 0.2525483 -0.831356
vt 0.3071916 -0.870037
vt 3.245549 -0.831356
vt 3.330879 -0.870037
vt 1.729167 1.9519
vt 1.729167 1.921553
vt 3.810058 1.921553
vt 3.810058 1.9519
vt 2.100789 1.9519
vt 4.473152 1.921553
vt 4.473152 1.9519
vt 2.100789 1.921553
vt 0.9146075 1.9519
vt 0.9146075 1.921553
vt -0.271574 1.9519
vt -0.271574 1.921553
vt 0.8100579 1.9519
vt 0.8100579 1.921553
vt -1.270833 1.921553
vt -1.270833 1.9519
vt -2.085392 1.9519
vt -3.271574 1.921553
vt -3.271574 1.9519
vt -2.085392 1.921553
vt -0.8992109 1.9519
vt -0.8992109 1.921553
vt 1.473152 1.9519
vt 1.473152 1.921553
vt 1.473152 2.017217
vt 1.503499 2.017217
vt 1.503499 1.9519
vt 1.473152 1.9519
vt 1.473152 1.9519
vt 1.503499 1.9519
vt 1.503499 2.017217
vt 1.473152 2.017217
vt -0.271574 2.017217
vt -0.3019209 2.017217
vt -0.3019209 1.9519
vt -0.271574 1.9519
vt -0.271574 1.9519
vt -0.3019209 1.9519
vt -0.3019209 2.017217
vt -0.271574 2.017217
vt 1.729167 2.017217
vt 1.729167 1.9519
vt 3.810058 1.9519
vt 3.810058 2.017217
vt -0.2089453 1.056909
vt -0.271574 1.135069
vt -0.271574 -0.9458228
vt -0.2089453 -0.8676625
vt 0.9146075 -0.9458228
vt 0.9459218 -0.8676625
vt 2.100789 -0.9458228
vt 2.100789 -0.8676625
vt 4.473152 -0.9458228
vt 4.410523 -0.8676625
vt -2.054078 1.056909
vt -3.271574 1.135069
vt -3.208946 1.056909
vt -2.085392 1.135069
vt -0.8992113 1.056909
vt -0.8992109 1.135069
vt 1.410523 1.056909
vt 1.473152 1.135069
vt 1.410523 -0.8676625
vt 1.473152 -0.9458228
vt 0.5847096 -0.1312551
vt 0.5847096 -0.2347455
vt -0.5680318 -0.2347454
vt -0.5680319 -0.1312551
vt 0.5847095 0.8065625
vt -0.5680319 0.8065624
vt 0.5847095 1.092315
vt -0.568032 1.092316
vt -0.3678478 0.7324853
vt -0.3678478 1.692088
vt 0.7848934 1.692088
vt 0.7848936 0.7324853
vt -0.3678477 -0.1711515
vt 0.7848936 -0.1711515
vt -0.3678478 -1.074787
vt 0.7848936 -1.074788
vt 0.4518672 -0.356651
vt 0.4518672 -0.4601416
vt -0.7008745 -0.4601412
vt -0.7008745 -0.3566511
vt 0.4518672 0.5811669
vt -0.7008745 0.5811667
vt 0.4518672 0.86692
vt -0.7008745 0.8669199
vt 2.035721 -0.2513893
vt 2.035722 -0.35488
vt 1.076119 -0.3548797
vt 1.076118 -0.25139
vt 2.035722 0.6864284
vt 0.1724815 -0.3548798
vt 1.076119 0.6864284
vt 2.035722 0.9721813
vt 1.076119 0.9721811
vt 0.1724814 -0.2513896
vt -0.731155 -0.3548798
vt -0.7311546 -0.2513896
vt 0.172482 0.6864283
vt 0.1724815 0.9721812
vt -0.7311551 0.6864281
vt -0.731154 0.9721812
vt 1.942747 -0.09876382
vt 1.942747 -0.2022546
vt 1.03911 -0.2022543
vt 1.03911 -0.0987637
vt 0.1354724 -0.2022544
vt 0.1354729 -0.098764
vt -0.824131 -0.2022543
vt -0.8241299 -0.09876382
vt 1.888318 -0.08274037
vt 1.888317 0.8230314
vt 1.942748 0.8390545
vt 1.09354 0.8230313
vt 1.03911 0.8390545
vt 1.942747 1.124807
vt 1.09354 -0.08274043
vt 1.03911 1.124807
vt 0.1354725 0.8390545
vt 0.1354724 1.124807
vt -0.8241309 0.8390545
vt -0.8241311 1.124808
vt -0.7668286 -0.0827406
vt -0.7668285 0.8230313
vt 0.07817137 -0.08274043
vt 0.07817137 0.8230313
vt 0.9846808 -0.08274031
vt 0.9846798 0.8230313
vt 0.1899031 -0.0827406
vt 0.1899031 0.8230313
vt -0.06206933 -0.7131422
vt -0.06206921 0.3304843
vt 0.8437022 0.3304843
vt 0.8437023 -0.7131422
vt -0.1551483 -0.713142
vt -0.1551483 0.3304839
vt 0.6396288 0.330484
vt 0.6396289 -0.7131417
vt -0.3995726 -0.5350447
vt -0.3995726 0.5085819
vt 0.5061989 0.5085821
vt 0.5061989 -0.5350447
vt -0.39455 -0.8108107
vt -0.3945501 0.09496188
vt 0.4002281 0.09496194
vt 0.4002281 -0.8108107
vt -0.2558601 -0.8108094
vt -0.255861 0.09496129
vt 0.5389158 0.09496129
vt 0.5389157 -0.8108092
vt -0.1380944 -0.8108101
vt -0.1380943 0.094962
vt 0.7069057 0.094962
vt 0.7069061 -0.8108101
vt -0.2170469 -0.5350447
vt -0.2170468 0.5085819
vt 0.6279532 0.5085819
vt 0.6279532 -0.5350448
vt -0.2956617 -0.7131416
vt -0.2956617 0.3304834
vt 0.4991146 0.3304834
vt 0.4991145 -0.7131413
vt 0.09801197 -0.5350448
vt 0.098012 0.5085818
vt 0.8927893 0.5085815
vt 0.8927893 -0.5350448
vt 0.1904641 -0.5350448
vt 0.1904641 0.5085819
vt 1.096236 0.5085819
vt 1.096236 -0.5350448
vt -0.500934 -0.7131415
vt -0.5009341 0.3304841
vt 0.404837 0.3304841
vt 0.404837 -0.7131416
vt 0.2993081 -0.7131424
vt 0.2993082 0.3304841
vt 1.094085 0.3304844
vt 1.094085 -0.7131423
vt -0.06997785 -0.5350449
vt -0.06997779 0.5085822
vt 0.7750221 0.5085822
vt 0.775022 -0.5350446
vt -0.5979958 -0.8912393
vt -0.5979958 0.1523867
vt 0.3077757 0.1523867
vt 0.3077757 -0.891239
vt 0.09576815 -0.713142
vt 0.09576818 0.3304841
vt 1.00154 0.3304841
vt 1.001539 -0.713142
usemtl GreyFloor
f 319/319/319 318/318/318 317/317/317
f 318/318/318 320/320/320 317/317/317
f 323/323/323 322/322/322 321/321/321
f 322/322/322 324/324/324 321/321/321
f 327/327/327 326/326/326 325/325/325
f 326/326/326 328/328/328 325/325/325
f 331/331/331 330/330/330 329/329/329
f 330/330/330 332/332/332 329/329/329
f 335/335/335 334/334/334 333/333/333
f 334/334/334 336/336/336 333/333/333
f 339/339/339 338/338/338 337/337/337
f 338/338/338 340/340/340 337/337/337
f 343/343/343 342/342/342 341/341/341
f 342/342/342 344/344/344 341/341/341
f 347/347/347 346/346/346 345/345/345
f 346/346/346 348/348/348 345/345/345
f 351/351/351 350/350/350 349/349/349
f 350/350/350 352/352/352 349/349/349
f 355/355/355 354/354/354 353/353/353
f 354/354/354 356/356/356 353/353/353
f 359/359/359 358/358/358 357/357/357
f 358/358/358 360/360/360 357/357/357
f 363/363/363 362/362/362 361/361/361
f 362/362/362 364/364/364 361/361/361
usemtl Porcelain_Off_White_Mat
f 367/367/367 366/366/366 365/365/365
f 370/370/370 369/369/369 368/368/368
f 373/373/373 372/372/372 371/371/371
f 376/376/376 375/375/375 374/374/374
f 379/379/379 378/378/378 377/377/377
f 382/382/382 381/381/381 380/380/380
f 385/385/385 384/384/384 383/383/383
f 388/388/388 387/387/387 386/386/386
f 391/391/391 390/390/390 389/389/389
f 390/390/390 392/392/392 389/389/389
f 389/389/389 392/392/392 393/393/393
f 392/392/392 394/394/394 393/393/393
f 393/393/393 394/394/394 395/395/395
f 394/394/394 396/396/396 395/395/395
f 399/399/399 398/398/398 397/397/397
f 400/400/400 399/399/399 397/397/397
f 403/403/403 402/402/402 401/401/401
f 402/402/402 404/404/404 401/401/401
f 402/402/402 405/405/405 404/404/404
f 405/405/405 406/406/406 404/404/404
f 406/406/406 405/405/405 407/407/407
f 408/408/408 406/406/406 407/407/407
f 411/411/411 410/410/410 409/409/409
f 410/410/410 412/412/412 409/409/409
f 409/409/409 412/412/412 413/413/413
f 412/412/412 414/414/414 413/413/413
f 413/413/413 414/414/414 415/415/415
f 414/414/414 416/416/416 415/415/415
f 419/419/419 418/418/418 417/417/417
f 420/420/420 419/419/419 417/417/417
f 423/423/423 422/422/422 421/421/421
f 422/422/422 424/424/424 421/421/421
f 421/421/421 424/424/424 425/425/425
f 424/424/424 426/426/426 425/425/425
f 425/425/425 426/426/426 427/427/427
f 426/426/426 428/428/428 427/427/427
f 431/431/431 430/430/430 429/429/429
f 432/432/432 431/431/431 429/429/429
f 435/435/435 434/434/434 433/433/433
f 434/434/434 436/436/436 433/433/433
f 433/433/433 436/436/436 437/437/437
f 436/436/436 438/438/438 437/437/437
f 437/437/437 438/438/438 439/439/439
f 438/438/438 440/440/440 439/439/439
f 443/443/443 442/442/442 441/441/441
f 444/444/444 443/443/443 441/441/441
f 447/447/447 446/446/446 445/445/445
f 446/446/446 448/448/448 445/445/445
f 445/445/445 448/448/448 449/449/449
f 448/448/448 450/450/450 449/449/449
f 449/449/449 450/450/450 451/451/451
f 450/450/450 452/452/452 451/451/451
f 455/455/455 454/454/454 453/453/453
f 456/456/456 455/455/455 453/453/453
f 459/459/459 458/458/458 457/457/457
f 458/458/458 460/460/460 457/457/457
f 457/457/457 460/460/460 461/461/461
f 460/460/460 462/462/462 461/461/461
f 461/461/461 462/462/462 463/463/463
f 462/462/462 464/464/464 463/463/463
f 467/467/467 466/466/466 465/465/465
f 468/468/468 467/467/467 465/465/465
f 471/471/471 470/470/470 469/469/469
f 472/472/472 471/471/471 469/469/469
f 475/475/475 474/474/474 473/473/473
f 476/476/476 475/475/475 473/473/473
f 479/479/479 478/478/478 477/477/477
f 480/480/480 479/479/479 477/477/477
f 483/483/483 482/482/482 481/481/481
f 484/484/484 483/483/483 481/481/481
f 487/487/487 486/486/486 485/485/485
f 488/488/488 487/487/487 485/485/485
f 489/489/489 487/487/487 488/488/488
f 490/490/490 489/489/489 488/488/488
f 491/491/491 489/489/489 490/490/490
f 492/492/492 491/491/491 490/490/490
f 493/493/493 491/491/491 492/492/492
f 494/494/494 493/493/493 492/492/492
f 497/497/497 496/496/496 495/495/495
f 496/496/496 498/498/498 495/495/495
f 495/495/495 498/498/498 499/499/499
f 498/498/498 500/500/500 499/499/499
f 499/499/499 500/500/500 501/501/501
f 500/500/500 502/502/502 501/501/501
f 501/501/501 502/502/502 503/503/503
f 502/502/502 504/504/504 503/503/503
usemtl GreyFloor 2
f 507/507/507 506/506/506 505/505/505
f 508/508/508 507/507/507 505/505/505
f 508/508/508 505/505/505 509/509/509
f 510/510/510 508/508/508 509/509/509
f 510/510/510 509/509/509 511/511/511
f 512/512/512 510/510/510 511/511/511
f 515/515/515 514/514/514 513/513/513
f 516/516/516 515/515/515 513/513/513
f 516/516/516 513/513/513 517/517/517
f 518/518/518 516/516/516 517/517/517
f 518/518/518 517/517/517 519/519/519
f 520/520/520 518/518/518 519/519/519
f 523/523/523 522/522/522 521/521/521
f 524/524/524 523/523/523 521/521/521
f 524/524/524 521/521/521 525/525/525
f 526/526/526 524/524/524 525/525/525
f 526/526/526 525/525/525 527/527/527
f 528/528/528 526/526/526 527/527/527
f 531/531/531 530/530/530 529/529/529
f 532/532/532 531/531/531 529/529/529
f 532/532/532 529/529/529 533/533/533
f 534/534/534 531/531/531 532/532/532
f 535/535/535 532/532/532 533/533/533
f 535/535/535 533/533/533 536/536/536
f 537/537/537 535/535/535 536/536/536
f 538/538/538 534/534/534 532/532/532
f 538/538/538 532/532/532 535/535/535
f 539/539/539 534/534/534 538/538/538
f 540/540/540 539/539/539 538/538/538
f 541/541/541 535/535/535 537/537/537
f 541/541/541 538/538/538 535/535/535
f 540/540/540 538/538/538 541/541/541
f 542/542/542 541/541/541 537/537/537
f 543/543/543 540/540/540 541/541/541
f 543/543/543 541/541/541 542/542/542
f 544/544/544 543/543/543 542/542/542
f 547/547/547 546/546/546 545/545/545
f 548/548/548 547/547/547 545/545/545
f 549/549/549 547/547/547 548/548/548
f 550/550/550 549/549/549 548/548/548
f 551/551/551 549/549/549 550/550/550
f 552/552/552 551/551/551 550/550/550
f 548/548/548 545/545/545 553/553/553
f 553/553/553 545/545/545 554/554/554
f 545/545/545 555/555/555 554/554/554
f 554/554/554 555/555/555 556/556/556
f 555/555/555 557/557/557 556/556/556
f 557/557/557 555/555/555 558/558/558
f 559/559/559 548/548/548 553/553/553
f 556/556/556 557/557/557 559/559/559
f 557/557/557 548/548/548 559/559/559
f 560/560/560 557/557/557 558/558/558
f 561/561/561 557/557/557 560/560/560
f 562/562/562 561/561/561 560/560/560
f 563/563/563 561/561/561 562/562/562
f 564/564/564 563/563/563 562/562/562
f 563/563/563 552/552/552 565/565/565
f 566/566/566 563/563/563 565/565/565
f 561/561/561 563/563/563 566/566/566
f 565/565/565 552/552/552 567/567/567
f 552/552/552 550/550/550 567/567/567
f 568/568/568 561/561/561 566/566/566
f 567/567/567 550/550/550 568/568/568
f 550/550/550 561/561/561 568/568/568
f 550/550/550 548/548/548 569/569/569
f 569/569/569 548/548/548 570/570/570
f 548/548/548 557/557/557 570/570/570
f 571/571/571 550/550/550 569/569/569
f 561/561/561 550/550/550 571/571/571
f 570/570/570 557/557/557 572/572/572
f 572/572/572 561/561/561 571/571/571
f 557/557/557 561/561/561 572/572/572
f 575/575/575 574/574/574 573/573/573
f 576/576/576 575/575/575 573/573/573
f 579/579/579 578/578/578 577/577/577
f 580/580/580 579/579/579 577/577/577
f 583/583/583 582/582/582 581/581/581
f 584/584/584 583/583/583 581/581/581
f 587/587/587 586/586/586 585/585/585
f 588/588/588 587/587/587 585/585/585
f 591/591/591 590/590/590 589/589/589
f 592/592/592 591/591/591 589/589/589
f 595/595/595 594/594/594 593/593/593
f 596/596/596 595/595/595 593/593/593
f 599/599/599 598/598/598 597/597/597
f 600/600/600 599/599/599 597/597/597
f 603/603/603 602/602/602 601/601/601
f 604/604/604 603/603/603 601/601/601
f 607/607/607 606/606/606 605/605/605
f 608/608/608 607/607/607 605/605/605
f 611/611/611 610/610/610 609/609/609
f 612/612/612 611/611/611 609/609/609
f 615/615/615 614/614/614 613/613/613
f 616/616/616 615/615/615 613/613/613
f 619/619/619 618/618/618 617/617/617
f 620/620/620 619/619/619 617/617/617
f 623/623/623 622/622/622 621/621/621
f 624/624/624 623/623/623 621/621/621
f 627/627/627 626/626/626 625/625/625
f 628/628/628 627/627/627 625/625/625
f 631/631/631 630/630/630 629/629/629
f 632/632/632 631/631/631 629/629/629
