mtllib ShowerDoor_fe3e45db.mtl
g ShowerDoorMesh_0eceb16c
v 0.00361 0.86519 1E-05
v -0.0036 0.86519 1E-05
v -0.0036 0.86519 -0.82797
v 0.00361 0.86519 -0.82797
v 0.00361 -0.86518 1E-05
v -0.0036 -0.86518 1E-05
v -0.0036 0.86519 1E-05
v 0.00361 0.86519 1E-05
v 0.00361 -0.83469 -0.03315
v -0.0036 -0.83469 -0.03315
v -0.0036 -0.83469 -0.79481
v 0.00361 -0.83469 -0.79481
v 0.00361 -0.83469 -0.79481
v -0.0036 -0.83469 -0.79481
v -0.0036 0.8347 -0.79481
v 0.00361 0.8347 -0.79481
v 0.00361 -0.86518 -0.82797
v -0.0036 -0.86518 -0.82797
v -0.0036 -0.86518 1E-05
v 0.00361 -0.86518 1E-05
v 0.00361 0.86519 -0.82797
v -0.0036 0.86519 -0.82797
v -0.0036 -0.86518 -0.82797
v 0.00361 -0.86518 -0.82797
v 0.00361 0.8347 -0.79481
v -0.0036 0.8347 -0.79481
v -0.0036 0.8347 -0.03315
v 0.00361 0.8347 -0.03315
v 0.00361 0.8347 -0.03315
v -0.0036 0.8347 -0.03315
v -0.0036 -0.83469 -0.03315
v 0.00361 -0.83469 -0.03315
v 0.00394 -0.06949 -0.82797
v 0.00394 0.0695 -0.82797
v 0.00394 0.06705 -0.79481
v 0.00394 -0.06704 -0.79481
v 0.02927 -0.06949 -0.82648
v 0.01896 -0.06704 -0.7963
v 0.01896 0.06705 -0.7963
v 0.02927 0.0695 -0.82648
v 0.00394 0.0695 -0.82797
v 0.02927 0.0695 -0.82648
v 0.01896 0.06705 -0.7963
v 0.00394 0.06705 -0.79481
v 0.00394 0.06705 -0.79481
v 0.01896 0.06705 -0.7963
v 0.01896 -0.06704 -0.7963
v 0.00394 -0.06704 -0.79481
v 0.00394 -0.06704 -0.79481
v 0.01896 -0.06704 -0.7963
v 0.02927 -0.06949 -0.82648
v 0.00394 -0.06949 -0.82797
v 0.02609 -0.06197 -0.82656
v 0.02025 -0.06197 -0.81609
v 0.00859 -0.06197 -0.81742
v 0.00713 -0.06197 -0.82789
v 0.00859 -0.06197 -0.81742
v 0.02025 -0.06197 -0.81609
v 0.02025 0.06198 -0.81609
v 0.00859 0.06198 -0.81742
v 0.02609 0.06198 -0.82656
v 0.02025 0.06198 -0.81609
v 0.02025 -0.06197 -0.81609
v 0.02609 -0.06197 -0.82656
v 0.00713 0.06198 -0.82789
v 0.00859 0.06198 -0.81742
v 0.02025 0.06198 -0.81609
v 0.02609 0.06198 -0.82656
v 0.00713 -0.06197 -0.82789
v 0.00859 -0.06197 -0.81742
v 0.00859 0.06198 -0.81742
v 0.00713 0.06198 -0.82789
v 0.00361 -0.86518 1E-05
v 0.00361 -0.83469 -0.03315
v 0.00361 -0.83469 -0.79481
v 0.00361 -0.86518 -0.82797
v 0.00361 0.86519 1E-05
v 0.00361 0.8347 -0.79481
v 0.00361 0.8347 -0.03315
v 0.00361 0.86519 -0.82797
v -0.0036 -0.86518 1E-05
v -0.0036 -0.86518 -0.82797
v -0.0036 -0.83469 -0.79481
v -0.0036 -0.83469 -0.03315
v -0.0036 0.8347 -0.79481
v -0.0036 0.86519 1E-05
v -0.0036 0.86519 -0.82797
v -0.0036 0.8347 -0.03315
v 0.02927 0.0695 -0.82648
v 0.02609 0.06198 -0.82656
v 0.02609 -0.06197 -0.82656
v 0.02927 -0.06949 -0.82648
v 0.00394 0.0695 -0.82797
v 0.00713 -0.06197 -0.82789
v 0.00713 0.06198 -0.82789
v 0.00394 -0.06949 -0.82797
vn 0 1 0
vn 0 1 0
vn 0 1 0
vn 0 1 0
vn 0 0 1
vn 0 0 1
vn 0 0 1
vn 0 0 1
vn 0 1 0
vn 0 1 0
vn 0 1 0
vn 0 1 0
vn 0 0 1
vn 0 0 1
vn 0 0 1
vn 0 0 1
vn 0 -1 0
vn 0 -1 0
vn 0 -1 0
vn 0 -1 0
vn 0 0 -1
vn 0 0 -1
vn 0 0 -1
vn 0 0 -1
vn 0 -1 0
vn 0 -1 0
vn 0 -1 0
vn 0 -1 0
vn 0 0 -1
vn 0 0 -1
vn 0 0 -1
vn 0 0 -1
vn -1 0 0
vn -1 0 0
vn -1 0 0
vn -1 0 0
vn 0.9462316 0 0.32349
vn 0.9462316 0 0.32349
vn 0.9462316 0 0.32349
vn 0.9462316 0 0.32349
vn 0 0.9970228 0.07710645
vn 0 0.9970228 0.07710645
vn 0 0.9970228 0.07710645
vn 0 0.9970228 0.07710645
vn 0.09891836 0 0.9950956
vn 0.09891836 0 0.9950956
vn 0.09891836 0 0.9950956
vn 0.09891836 0 0.9950956
vn 0 -0.9970228 0.07710645
vn 0 -0.9970228 0.07710645
vn 0 -0.9970228 0.07710645
vn 0 -0.9970228 0.07710645
vn 4.06819E-07 1 0
vn 4.06819E-07 1 0
vn 4.06819E-07 1 0
vn 4.06819E-07 1 0
vn 0.1133825 0 -0.9935514
vn 0.1133825 0 -0.9935514
vn 0.1133825 0 -0.9935514
vn 0.1133825 0 -0.9935514
vn -0.8732048 0 -0.4873534
vn -0.8732048 0 -0.4873534
vn -0.8732048 0 -0.4873534
vn -0.8732048 0 -0.4873534
vn 1.017054E-07 -1 0
vn 1.017054E-07 -1 0
vn 1.017054E-07 -1 0
vn 1.017054E-07 -1 0
vn 0.9904349 0 -0.137981
vn 0.9904349 0 -0.137981
vn 0.9904349 0 -0.137981
vn 0.9904349 0 -0.137981
vn 1 0 0
vn 1 0 0
vn 1 0 0
vn 1 0 0
vn 1 0 0
vn 1 0 0
vn 1 0 0
vn 1 0 0
vn -1 0 0
vn -1 0 0
vn -1 0 0
vn -1 0 0
vn -1 0 0
vn -1 0 0
vn -1 0 0
vn -1 0 0
vn 0.02535287 0 -0.9996786
vn 0.02535287 0 -0.9996786
vn 0.02535287 0 -0.9996786
vn 0.02535287 0 -0.9996786
vn 0.02537284 0 -0.999678
vn 0.02537284 0 -0.999678
vn 0.02537284 0 -0.999678
vn 0.02537284 0 -0.999678
vt 0.9609137 0.1445275
vt 0.9595054 0.1445275
vt 0.9595054 0.3062732
vt 0.9609137 0.3062732
vt 0.9131107 0.300001
vt 0.9117024 0.300001
vt 0.9117024 0.63803
vt 0.9131107 0.63803
vt 0.9848152 0.1331039
vt 0.9834069 0.1331039
vt 0.9834069 0.281895
vt 0.9848152 0.281895
vt 0.9370122 0.2894945
vt 0.9356039 0.2894945
vt 0.9356039 0.6156132
vt 0.9370122 0.6156132
vt 0.9728645 0.1445361
vt 0.9714562 0.1445361
vt 0.9714562 0.3062824
vt 0.9728645 0.3062824
vt 0.9250615 0.2999998
vt 0.9236531 0.2999998
vt 0.9236531 0.6380312
vt 0.9250615 0.6380312
vt 0.996766 0.1331021
vt 0.9953576 0.1331021
vt 0.9953576 0.2818909
vt 0.996766 0.2818909
vt 0.948963 0.2894947
vt 0.9475546 0.2894947
vt 0.9475546 0.615613
vt 0.948963 0.615613
vt 0 0
vt 0 0
vt 0 0
vt 0 0
vt 0 0
vt 0 0
vt 0 0
vt 0 0
vt 0 0
vt 0 0
vt 0 0
vt 0 0
vt 0 0
vt 0 0
vt 0 0
vt 0 0
vt 0 0
vt 0 0
vt 0 0
vt 0 0
vt 0 0
vt 0 0
vt 0 0
vt 0 0
vt 0 0
vt 0 0
vt 0 0
vt 0 0
vt 0 0
vt 0 0
vt 0 0
vt 0 0
vt 0 0
vt 0 0
vt 0 0
vt 0 0
vt 0 0
vt 0 0
vt 0 0
vt 0 0
vt 0.1446474 0.3000142
vt 0.1511236 0.3059698
vt 0.2999103 0.3059698
vt 0.3063822 0.3000142
vt 0.1446474 0.6380287
vt 0.2999103 0.632073
vt 0.1511236 0.632073
vt 0.3063822 0.6380287
vt 0.5989951 0.6380016
vt 0.760714 0.6380016
vt 0.7542385 0.6320467
vt 0.6054707 0.6320467
vt 0.7542385 0.3059843
vt 0.5989951 0.3000293
vt 0.760714 0.3000293
vt 0.6054707 0.3059843
vt 0 0
vt 0 0
vt 0 0
vt 0 0
vt 0 0
vt 0 0
vt 0 0
vt 0 0
usemtl StainlessSteel_Dull
f 3/3/3 2/2/2 1/1/1
f 4/4/4 3/3/3 1/1/1
f 7/7/7 6/6/6 5/5/5
f 8/8/8 7/7/7 5/5/5
f 11/11/11 10/10/10 9/9/9
f 12/12/12 11/11/11 9/9/9
f 15/15/15 14/14/14 13/13/13
f 16/16/16 15/15/15 13/13/13
f 19/19/19 18/18/18 17/17/17
f 20/20/20 19/19/19 17/17/17
f 23/23/23 22/22/22 21/21/21
f 24/24/24 23/23/23 21/21/21
f 27/27/27 26/26/26 25/25/25
f 28/28/28 27/27/27 25/25/25
f 31/31/31 30/30/30 29/29/29
f 32/32/32 31/31/31 29/29/29
f 35/35/35 34/34/34 33/33/33
f 36/36/36 35/35/35 33/33/33
f 39/39/39 38/38/38 37/37/37
f 40/40/40 39/39/39 37/37/37
f 43/43/43 42/42/42 41/41/41
f 44/44/44 43/43/43 41/41/41
f 47/47/47 46/46/46 45/45/45
f 48/48/48 47/47/47 45/45/45
f 51/51/51 50/50/50 49/49/49
f 52/52/52 51/51/51 49/49/49
f 55/55/55 54/54/54 53/53/53
f 56/56/56 55/55/55 53/53/53
f 59/59/59 58/58/58 57/57/57
f 60/60/60 59/59/59 57/57/57
f 63/63/63 62/62/62 61/61/61
f 64/64/64 63/63/63 61/61/61
f 67/67/67 66/66/66 65/65/65
f 68/68/68 67/67/67 65/65/65
f 71/71/71 70/70/70 69/69/69
f 72/72/72 71/71/71 69/69/69
f 75/75/75 74/74/74 73/73/73
f 76/76/76 75/75/75 73/73/73
f 73/73/73 74/74/74 77/77/77
f 78/78/78 75/75/75 76/76/76
f 74/74/74 79/79/79 77/77/77
f 80/80/80 78/78/78 76/76/76
f 77/77/77 79/79/79 80/80/80
f 79/79/79 78/78/78 80/80/80
f 83/83/83 82/82/82 81/81/81
f 84/84/84 83/83/83 81/81/81
f 83/83/83 85/85/85 82/82/82
f 84/84/84 81/81/81 86/86/86
f 85/85/85 87/87/87 82/82/82
f 88/88/88 84/84/84 86/86/86
f 88/88/88 86/86/86 87/87/87
f 85/85/85 88/88/88 87/87/87
f 91/91/91 90/90/90 89/89/89
f 92/92/92 91/91/91 89/89/89
f 89/89/89 90/90/90 93/93/93
f 94/94/94 91/91/91 92/92/92
f 90/90/90 95/95/95 93/93/93
f 96/96/96 94/94/94 92/92/92
f 93/93/93 95/95/95 96/96/96
f 95/95/95 94/94/94 96/96/96
g FP407:polySurface343_08f5085e
v 0.00177 0.84673 -0.03165
v 0.00177 -0.84672 -0.03165
v -0.00176 -0.84672 -0.03165
v -0.00176 0.84673 -0.03165
v 0.00177 0.84673 -0.8067
v -0.00176 0.84673 -0.8067
v -0.00176 -0.84672 -0.8067
v 0.00177 -0.84672 -0.8067
v -0.00176 0.84673 -0.03165
v -0.00176 0.84673 -0.8067
v 0.00177 0.84673 -0.8067
v 0.00177 0.84673 -0.03165
v 0.00177 -0.84672 -0.03165
v 0.00177 -0.84672 -0.8067
v -0.00176 -0.84672 -0.8067
v -0.00176 -0.84672 -0.03165
v -0.00176 -0.84672 -0.03165
v -0.00176 -0.84672 -0.8067
v -0.00176 0.84673 -0.8067
v -0.00176 0.84673 -0.03165
v 0.00177 0.84673 -0.03165
v 0.00177 0.84673 -0.8067
v 0.00177 -0.84672 -0.8067
v 0.00177 -0.84672 -0.03165
vn 0 0 1
vn 0 0 1
vn 0 0 1
vn 0 0 1
vn 0 0 -1
vn 0 0 -1
vn 0 0 -1
vn 0 0 -1
vn 0 1 0
vn 0 1 0
vn 0 1 0
vn 0 1 0
vn 0 -1 0
vn 0 -1 0
vn 0 -1 0
vn 0 -1 0
vn -1 0 0
vn -1 0 0
vn -1 0 0
vn -1 0 0
vn 1 0 0
vn 1 0 0
vn 1 0 0
vn 1 0 0
vt 0.003985193 0.9959096
vt 0.003985193 0.004081041
vt 0.001914392 0.004081041
vt 0.001914392 0.9959096
vt 0.01351423 0.004083544
vt 0.01144344 0.004083544
vt 0.01144344 0.9959165
vt 0.01351423 0.9959165
vt 0.9476762 0.002949417
vt 0.9476762 0.4568816
vt 0.9497471 0.4568816
vt 0.9497471 0.002949417
vt 0.9569207 0.9165416
vt 0.9569207 0.4626166
vt 0.95485 0.4626166
vt 0.95485 0.9165416
vt 0.02164276 0.9961227
vt 0.4757726 0.9961227
vt 0.4757726 0.003867865
vt 0.02164276 0.003867865
vt 0.4850924 0.9961298
vt 0.9392201 0.9961298
vt 0.9392201 0.003870279
vt 0.4850924 0.003870279
usemtl StainlessSteel_Dull
f 99/99/99 98/98/98 97/97/97
f 100/100/100 99/99/99 97/97/97
f 103/103/103 102/102/102 101/101/101
f 104/104/104 103/103/103 101/101/101
f 107/107/107 106/106/106 105/105/105
f 108/108/108 107/107/107 105/105/105
f 111/111/111 110/110/110 109/109/109
f 112/112/112 111/111/111 109/109/109
usemtl Glass_Detailed_White_Mat
f 115/115/115 114/114/114 113/113/113
f 116/116/116 115/115/115 113/113/113
f 119/119/119 118/118/118 117/117/117
f 120/120/120 119/119/119 117/117/117
