mtllib material.mtl
usemtl material_0
v -0.00500000 0.01000015 0.00500002
v -0.00500000 0.01000015 -0.00499994
v 0.00500000 0.01000015 -0.00499994
v 0.00500000 0.01000015 0.00500002
v -0.01953049 0.38218720 0.12873220
v -0.02592400 0.37825350 0.13660260
v -0.01984154 0.38201050 0.12831070
v -0.09608375 0.00127002 0.10698640
v -0.14596950 0.00127002 0.12920530
v -0.14596950 0.20212770 0.12920530
v -0.09608375 0.20212770 0.10698640
v -0.04408607 0.00127002 0.08955627
v -0.04408607 0.20212770 0.08955627
v 0.00000008 0.20212770 0.08621918
v 0.00000008 0.00127002 0.08621918
v 0.04408623 0.00127002 0.08955627
v 0.04408623 0.20212770 0.08955627
v 0.09608375 0.20212770 0.10698640
v 0.09608375 0.00127002 0.10698640
v 0.14596990 0.20212770 0.12920530
v 0.14596990 0.00127002 0.12920530
v -0.01056976 0.38465810 0.12327850
v -0.01073807 0.38452080 0.12277020
v 0.00000000 0.38552580 0.12136340
v 0.00000000 0.38540230 0.12082470
v 0.01056984 0.38465810 0.12327850
v 0.01073799 0.38452090 0.12277030
v 0.01953064 0.38218720 0.12873220
v 0.01984146 0.38201050 0.12831070
v -0.01056984 0.36359580 0.16976520
v 0.00000000 0.36224170 0.17194260
v -0.01073807 0.36312310 0.16999700
v 0.00000000 0.36272810 0.17168020
v 0.01073799 0.36312310 0.16999700
v 0.01056984 0.36359580 0.16976520
v 0.01028236 0.36388220 0.16913300
v 0.01984146 0.36563350 0.16445660
v 0.01953064 0.36606680 0.16431150
v 0.02592422 0.36939040 0.15616460
v 0.02551796 0.36976490 0.15614950
v 0.02806023 0.37382190 0.14638360
v 0.02762016 0.37412700 0.14652180
v 0.02592422 0.37825350 0.13660270
v 0.02551781 0.37848910 0.13689420
v 0.01899925 0.38196800 0.12921600
v 0.02482376 0.37837040 0.13715600
v 0.01028236 0.38437160 0.12391070
v 0.02686897 0.37412700 0.14652180
v 0.00000000 0.38521580 0.12204770
v 0.02482376 0.36988350 0.15588770
v -0.01028229 0.38437170 0.12391070
v 0.01899933 0.36628590 0.16382770
v -0.01899918 0.38196800 0.12921600
v 0.01008858 0.38397160 0.12424290
v 0.00000000 0.38479990 0.12241500
v -0.01008858 0.38397180 0.12424290
v 0.01864120 0.38161320 0.12944830
v 0.02435600 0.37808360 0.13723870
v 0.02636291 0.37392010 0.14642810
v 0.02435600 0.36975650 0.15561740
v 0.01864151 0.36622670 0.16340780
v 0.01008858 0.36386820 0.16861320
v 0.00000000 0.38189080 0.12330380
v 0.00931930 0.38112590 0.12499230
v -0.00931930 0.38112590 0.12499230
v 0.01721985 0.37894720 0.12980080
v 0.02249893 0.37568670 0.13699720
v 0.02435257 0.37184060 0.14548580
v 0.02249893 0.36799450 0.15397440
v 0.01721985 0.36473400 0.16117080
v -0.01722000 0.37894720 0.12980080
v 0.00931930 0.36255540 0.16597930
v -0.01864136 0.38161320 0.12944830
v -0.02249878 0.37568670 0.13699710
v 0.00000000 0.36304000 0.17044110
v 0.00000000 0.36179030 0.16766770
v -0.02435600 0.37808360 0.13723860
v -0.02435257 0.37184070 0.14548580
v -0.02482376 0.37837040 0.13715600
v -0.01008865 0.36386820 0.16861320
v -0.00931930 0.36255540 0.16597930
v 0.00000000 0.36303810 0.17099600
v -0.02636291 0.37392010 0.14642810
v -0.02249878 0.36799450 0.15397450
v -0.02686905 0.37412700 0.14652180
v -0.02551781 0.37848910 0.13689420
v -0.02806000 0.37382190 0.14638360
v -0.02762016 0.37412700 0.14652180
v -0.02592400 0.36939040 0.15616460
v -0.01028229 0.36388220 0.16913300
v -0.02435600 0.36975640 0.15561740
v -0.01722000 0.36473400 0.16117080
v -0.02482376 0.36988350 0.15588770
v -0.02551781 0.36976480 0.15614950
v -0.01984154 0.36563350 0.16445660
v -0.01864136 0.36622670 0.16340780
v -0.01899918 0.36628590 0.16382770
v -0.01953049 0.36606680 0.16431150
v -0.02142937 0.37482650 0.12331230
v -0.01159744 0.37753780 0.11732840
v -0.01073807 0.38452080 0.12277020
v -0.01984154 0.38201050 0.12831070
v -0.02799889 0.37076880 0.13226790
v -0.02592400 0.37825350 0.13660260
v -0.03030586 0.36598250 0.14283170
v -0.02806000 0.37382190 0.14638360
v -0.02799904 0.36119630 0.15339550
v -0.02592400 0.36939040 0.15616460
v -0.02142959 0.35713860 0.16235110
v -0.01984154 0.36563350 0.16445660
v -0.01159760 0.35442740 0.16833500
v -0.01073807 0.36312310 0.16999700
v 0.00000000 0.35347520 0.17043630
v -0.01159760 0.35442740 0.16833500
v -0.01073807 0.36312310 0.16999700
v 0.00000000 0.36224170 0.17194260
v 0.01159752 0.35442750 0.16833510
v 0.01073799 0.36312310 0.16999700
v 0.02142952 0.35713860 0.16235110
v 0.01159752 0.35442750 0.16833510
v 0.01073799 0.36312310 0.16999700
v 0.01984146 0.36563350 0.16445660
v 0.02799889 0.36119620 0.15339550
v 0.02592422 0.36939040 0.15616460
v 0.03030602 0.36598250 0.14283170
v 0.02806023 0.37382190 0.14638360
v 0.02799889 0.37076880 0.13226790
v 0.02592422 0.37825350 0.13660270
v 0.02142952 0.37482650 0.12331240
v 0.01984146 0.38201050 0.12831070
v 0.01159752 0.37753770 0.11732840
v 0.01073799 0.38452090 0.12277030
v 0.00000000 0.37848980 0.11522720
v 0.01159752 0.37753770 0.11732840
v 0.01073799 0.38452090 0.12277030
v 0.00000000 0.38540230 0.12082470
v -0.01159744 0.37753780 0.11732840
v -0.01073807 0.38452080 0.12277020
v 0.07194664 0.39593970 -0.13576750
v 0.07194611 0.41442320 -0.13576750
v 0.03838936 0.41442320 -0.15228650
v 0.03838882 0.39593970 -0.15228670
v 0.00000015 0.41442320 -0.15791290
v 0.00000015 0.39593970 -0.15791290
v -0.03838982 0.41442320 -0.15228680
v -0.03838943 0.39593970 -0.15228680
v -0.07194641 0.41442320 -0.13576750
v -0.07194633 0.39593970 -0.13576750
v -0.07194633 0.39593970 -0.13576750
v -0.07194641 0.41442320 -0.13576750
v -0.08388923 0.41444810 -0.12259770
v -0.08388923 0.39596450 -0.12259750
v -0.09583206 0.39598950 -0.10942750
v -0.09583198 0.41447280 -0.10942770
v -0.10410870 0.41445510 -0.07791138
v -0.10410870 0.39598740 -0.07867477
v -0.10410870 0.41289210 -0.03896072
v -0.10410870 0.39444510 -0.04022507
v -0.10410870 0.40930220 -0.00150268
v -0.10410870 0.39098140 -0.00408386
v -0.10410870 0.40237920 0.03558838
v -0.10410870 0.38429730 0.03175598
v -0.10410870 0.39412470 0.07453643
v -0.10410870 0.37632000 0.06939697
v -0.10410870 0.37959810 0.11393570
v -0.10410870 0.36241630 0.10710590
v -0.10410870 0.36304560 0.15248020
v -0.10410870 0.34623610 0.14477890
v -0.09582321 0.34929400 0.18052920
v -0.09582321 0.33269810 0.17239230
v -0.08388481 0.32688870 0.18420390
v -0.07194602 0.33767510 0.20415370
v -0.07194649 0.32107930 0.19601610
v -0.08388466 0.34348450 0.19234150
v -0.07194649 0.32107930 0.19601610
v -0.07194602 0.33767510 0.20415370
v -0.03838966 0.33040120 0.21898800
v -0.03838959 0.31380540 0.21085100
v -0.00000008 0.32792410 0.22404040
v 0.00000000 0.31132810 0.21590320
v 0.03838959 0.33040120 0.21898800
v 0.03838921 0.31380540 0.21085100
v 0.07194602 0.33767430 0.20415480
v 0.07194611 0.32107840 0.19601750
v 0.08388473 0.32688820 0.18420490
v 0.09582313 0.34929400 0.18052920
v 0.09582313 0.33269800 0.17239210
v 0.08388473 0.34348410 0.19234180
v 0.07194611 0.32107840 0.19601750
v 0.07194602 0.33767430 0.20415480
v 0.10410860 0.36304520 0.15248080
v 0.10410870 0.34623580 0.14477910
v 0.10410870 0.37959790 0.11393600
v 0.10410870 0.36241630 0.10710590
v 0.10410870 0.39412470 0.07453659
v 0.10410870 0.37632000 0.06939697
v 0.10410870 0.40246740 0.03514542
v 0.10410870 0.38429730 0.03175598
v 0.10410870 0.40930220 -0.00150299
v 0.10410870 0.39098140 -0.00408386
v 0.10410870 0.41289200 -0.03896072
v 0.10410870 0.39444510 -0.04022507
v 0.10410870 0.41442320 -0.07871018
v 0.10410870 0.39593970 -0.07871018
v 0.09580765 0.41442320 -0.10945430
v 0.09580757 0.39593970 -0.10945460
v 0.08387695 0.41442320 -0.12261090
v 0.08387710 0.39593970 -0.12261110
v 0.07194664 0.39593970 -0.13576750
v 0.07194611 0.41442320 -0.13576750
v 0.01719772 0.21521760 0.11379010
v 0.00930740 0.23495500 0.10851810
v 0.00930740 0.21521760 0.10851810
v 0.01719772 0.23495500 0.11379010
v 0.02246986 0.21521760 0.12168060
v 0.02246986 0.23495500 0.12168060
v 0.02432121 0.21521760 0.13098790
v 0.02432121 0.23495500 0.13098790
v 0.02246986 0.21521760 0.14029530
v 0.02246986 0.23495500 0.14029530
v 0.00930740 0.21521760 0.10851810
v 0.00930740 0.23495500 0.10851810
v 0.00000000 0.23495500 0.10666640
v 0.00000000 0.21521760 0.10666640
v -0.00930733 0.23495500 0.10851810
v -0.00930733 0.21521760 0.10851810
v -0.00930733 0.21521760 0.10851810
v -0.00930733 0.23495500 0.10851810
v -0.01719772 0.23495500 0.11379010
v -0.01719772 0.21521760 0.11379010
v -0.02246986 0.23495500 0.12168060
v -0.02246986 0.21521760 0.12168060
v -0.02432121 0.23495500 0.13098790
v -0.02432121 0.21521760 0.13098790
v -0.02246986 0.23495500 0.14029530
v -0.02246986 0.21521760 0.14029530
v -0.01719772 0.23495500 0.14818570
v -0.01719772 0.21521760 0.14818570
v -0.00930733 0.23495500 0.15345780
v -0.00930733 0.21521760 0.15345780
v -0.00930733 0.21521760 0.15345780
v -0.00930733 0.23495500 0.15345780
v 0.00000000 0.23495500 0.15530900
v 0.00000000 0.21521760 0.15530900
v 0.00930740 0.23495500 0.15345780
v 0.00930740 0.21521760 0.15345780
v 0.00930740 0.21521760 0.15345780
v 0.00930740 0.23495500 0.15345780
v 0.01719772 0.23495500 0.14818570
v 0.01719772 0.21521760 0.14818570
v 0.00722984 0.21521760 0.11353360
v 0.00558128 0.20295860 0.11751340
v 0.01031280 0.20295860 0.12067490
v 0.01335884 0.21521760 0.11762880
v 0.01347435 0.20295860 0.12540660
v 0.01745415 0.21521760 0.12375780
v 0.01458450 0.20295860 0.13098790
v 0.01889229 0.21521760 0.13098790
v 0.00000000 0.21521760 0.11209530
v 0.00000000 0.20295860 0.11640330
v 0.00558128 0.20295860 0.11751340
v 0.00722984 0.21521760 0.11353360
v -0.00722969 0.21521760 0.11353360
v -0.00558121 0.20295860 0.11751340
v -0.01335884 0.21521760 0.11762880
v -0.00558121 0.20295860 0.11751340
v -0.00722969 0.21521760 0.11353360
v -0.01031280 0.20295860 0.12067490
v -0.01745415 0.21521760 0.12375780
v -0.01347435 0.20295860 0.12540660
v -0.01889229 0.21521760 0.13098790
v -0.01458450 0.20295860 0.13098790
v -0.01745415 0.21521760 0.13821780
v -0.01347435 0.20295860 0.13656920
v -0.01335884 0.21521760 0.14434650
v -0.01031280 0.20295860 0.14130050
v -0.00722977 0.21521760 0.14844210
v -0.00558121 0.20295860 0.14446240
v 0.00000000 0.21521760 0.14988020
v 0.00000000 0.20295860 0.14557250
v -0.00558121 0.20295860 0.14446240
v -0.00722977 0.21521760 0.14844210
v 0.00722984 0.21521760 0.14844210
v 0.00558128 0.20295860 0.14446240
v 0.01335884 0.21521760 0.14434650
v 0.00558128 0.20295860 0.14446240
v 0.00722984 0.21521760 0.14844210
v 0.01031280 0.20295860 0.14130050
v 0.01745415 0.21521760 0.13821780
v 0.01347435 0.20295860 0.13656920
v 0.00558128 0.20295860 0.11751340
v 0.00000000 0.20295860 0.13098790
v 0.01031280 0.20295860 0.12067490
v 0.00000000 0.20295860 0.11640330
v 0.01347435 0.20295860 0.12540660
v -0.00558121 0.20295860 0.11751340
v 0.01458450 0.20295860 0.13098790
v -0.01031280 0.20295860 0.12067490
v 0.01347435 0.20295860 0.13656920
v -0.01347435 0.20295860 0.12540660
v 0.01031280 0.20295860 0.14130050
v -0.01458450 0.20295860 0.13098790
v 0.00558128 0.20295860 0.14446240
v -0.01347435 0.20295860 0.13656920
v 0.00000000 0.20295860 0.14557250
v -0.01031280 0.20295860 0.14130050
v -0.00558121 0.20295860 0.14446240
v 0.06111396 0.39593970 -0.12139410
v 0.07194664 0.39593970 -0.13576750
v 0.03838882 0.39593970 -0.15228670
v 0.08387710 0.39593970 -0.12261110
v 0.03307503 0.39593970 -0.13519730
v 0.07048172 0.39593970 -0.11106400
v 0.00000015 0.39593970 -0.15791290
v 0.07984955 0.39593970 -0.10073390
v 0.00000031 0.39593970 -0.14004430
v 0.09580757 0.39593970 -0.10945460
v -0.03838943 0.39593970 -0.15228680
v 0.08642906 0.39593970 -0.07636490
v -0.03307464 0.39593970 -0.13519730
v 0.10410870 0.39593970 -0.07871018
v -0.07194633 0.39593970 -0.13576750
v 0.08642906 0.39444510 -0.04022507
v -0.06111366 0.39593970 -0.12139410
v 0.10410870 0.39444510 -0.04022507
v 0.08642906 0.39098140 -0.00408386
v 0.10410870 0.39098140 -0.00408386
v 0.08642906 0.38429730 0.03175598
v 0.10410870 0.38429730 0.03175598
v 0.08642906 0.37632000 0.06939697
v 0.10410870 0.37632000 0.06939697
v 0.08642906 0.36241630 0.10710590
v 0.10410870 0.36241630 0.10710590
v 0.08642906 0.34723090 0.14267990
v 0.10410870 0.34623580 0.14477910
v 0.07984955 0.33650160 0.16456300
v 0.09582313 0.33269800 0.17239210
v 0.07048172 0.33195390 0.17383740
v 0.08388473 0.32688820 0.18420490
v 0.06111396 0.32740630 0.18311220
v 0.07194611 0.32107840 0.19601750
v 0.03307503 0.32132900 0.19550690
v 0.03838921 0.31380540 0.21085100
v 0.00000015 0.31919470 0.19985950
v 0.00000000 0.31132810 0.21590320
v -0.03307464 0.32132900 0.19550690
v -0.03838959 0.31380540 0.21085100
v -0.06111366 0.32740700 0.18311130
v -0.07194649 0.32107930 0.19601610
v -0.07048141 0.33195430 0.17383700
v -0.08388481 0.32688870 0.18420390
v -0.07984917 0.33650160 0.16456300
v -0.09582321 0.33269810 0.17239230
v -0.08642868 0.34723090 0.14267990
v -0.10410870 0.34623610 0.14477890
v -0.08642868 0.36241630 0.10710590
v -0.10410870 0.36241630 0.10710590
v -0.08642868 0.37632000 0.06939697
v -0.10410870 0.37632000 0.06939697
v -0.08642868 0.38429730 0.03175598
v -0.10410870 0.38429730 0.03175598
v -0.08642868 0.39098140 -0.00408386
v -0.10410870 0.39098140 -0.00408386
v -0.08642868 0.39444510 -0.04022507
v -0.10410870 0.39444510 -0.04022507
v -0.08642868 0.39593970 -0.07636490
v -0.10410870 0.39598740 -0.07867477
v -0.07984917 0.39593970 -0.10073390
v -0.09583206 0.39598950 -0.10942750
v -0.08388923 0.39596450 -0.12259750
v -0.07048141 0.39593970 -0.11106400
v -0.07605194 0.35514660 0.16852680
v -0.09582321 0.34929400 0.18052920
v -0.10410870 0.36304560 0.15248020
v -0.08388466 0.34348450 0.19234150
v -0.08642883 0.36404060 0.15038150
v -0.06858284 0.35215530 0.17467060
v -0.10410870 0.37959810 0.11393570
v -0.05647362 0.34815820 0.18286560
v -0.08642883 0.37959810 0.11393570
v -0.07194602 0.33767510 0.20415370
v -0.10410870 0.39412470 0.07453643
v -0.03307472 0.34308610 0.19320970
v -0.08642883 0.39412470 0.07453643
v -0.03838966 0.33040120 0.21898800
v -0.10410870 0.40237920 0.03558838
v 0.00000000 0.34095180 0.19756270
v -0.08642883 0.40237920 0.03558838
v -0.00000008 0.32792410 0.22404040
v -0.10410870 0.40930220 -0.00150268
v 0.03307487 0.34308610 0.19320970
v -0.08642883 0.40930220 -0.00150268
v 0.03838959 0.33040120 0.21898800
v -0.10410870 0.41289210 -0.03896072
v -0.08642883 0.41289210 -0.03896072
v -0.10410870 0.41445510 -0.07791138
v -0.08642883 0.41440730 -0.07560120
v -0.09583198 0.41447280 -0.10942770
v -0.07984932 0.41442320 -0.10073390
v -0.08388923 0.41444810 -0.12259770
v -0.07048157 0.41442320 -0.11106400
v -0.07194641 0.41442320 -0.13576750
v -0.05637955 0.41442320 -0.12372470
v -0.03838982 0.41442320 -0.15228680
v -0.03307480 0.41442320 -0.13519730
v 0.00000015 0.41442320 -0.15791290
v 0.00000015 0.41442320 -0.14004430
v 0.03838936 0.41442320 -0.15228650
v 0.03307487 0.41442320 -0.13519730
v 0.07194611 0.41442320 -0.13576750
v 0.05637955 0.41442320 -0.12372470
v 0.08387695 0.41442320 -0.12261090
v 0.07048157 0.41442320 -0.11106400
v 0.09580765 0.41442320 -0.10945430
v 0.07984939 0.41442320 -0.10073390
v 0.10410870 0.41442320 -0.07871018
v 0.08642891 0.41442320 -0.07636490
v 0.10410870 0.41289200 -0.03896072
v 0.08642891 0.41289200 -0.03896072
v 0.10410870 0.40930220 -0.00150299
v 0.08642891 0.40930220 -0.00150299
v 0.10410870 0.40246740 0.03514542
v 0.08642891 0.40246740 0.03514542
v 0.10410870 0.39412470 0.07453659
v 0.08642891 0.39412470 0.07453659
v 0.10410870 0.37959790 0.11393600
v 0.08642891 0.37959790 0.11393600
v 0.10410860 0.36304520 0.15248080
v 0.08642891 0.36404040 0.15038210
v 0.09582313 0.34929400 0.18052920
v 0.07605194 0.35514660 0.16852680
v 0.08388473 0.34348410 0.19234180
v 0.06858291 0.35215490 0.17467090
v 0.05647346 0.34815760 0.18286680
v 0.07194602 0.33767430 0.20415480
v 0.00930740 0.21521760 0.10851810
v 0.00722984 0.21521760 0.11353360
v 0.01335884 0.21521760 0.11762880
v 0.01719772 0.21521760 0.11379010
v 0.00000000 0.21521760 0.10666640
v 0.01745415 0.21521760 0.12375780
v 0.00000000 0.21521760 0.11209530
v 0.02246986 0.21521760 0.12168060
v -0.00930733 0.21521760 0.10851810
v 0.01889229 0.21521760 0.13098790
v -0.00722969 0.21521760 0.11353360
v 0.02432121 0.21521760 0.13098790
v -0.01719772 0.21521760 0.11379010
v 0.01745415 0.21521760 0.13821780
v -0.01335884 0.21521760 0.11762880
v 0.02246986 0.21521760 0.14029530
v -0.02246986 0.21521760 0.12168060
v 0.01335884 0.21521760 0.14434650
v -0.01745415 0.21521760 0.12375780
v 0.01719772 0.21521760 0.14818570
v -0.02432121 0.21521760 0.13098790
v 0.00722984 0.21521760 0.14844210
v -0.01889229 0.21521760 0.13098790
v 0.00930740 0.21521760 0.15345780
v -0.02246986 0.21521760 0.14029530
v 0.00000000 0.21521760 0.14988020
v -0.01745415 0.21521760 0.13821780
v 0.00000000 0.21521760 0.15530900
v -0.01719772 0.21521760 0.14818570
v -0.00722977 0.21521760 0.14844210
v -0.01335884 0.21521760 0.14434650
v -0.00930733 0.21521760 0.15345780
vn 0.00000000 1.00000000 0.00000000
vn 0.00000000 1.00000000 0.00000000
vn 0.00000000 1.00000000 0.00000000
vn 0.00000000 1.00000000 0.00000000
vn -0.21959760 0.95645550 0.19227530
vn -0.88636940 0.40843130 -0.21802090
vn -0.67840140 0.53688160 -0.50152720
vn 0.36266660 0.00000000 0.93191900
vn 0.40686460 0.00000000 0.91348850
vn 0.40686460 0.00000000 0.91348850
vn 0.36266650 0.00000000 0.93191900
vn 0.21125820 0.00000000 0.97743030
vn 0.21125820 0.00000000 0.97743030
vn 0.00000000 0.00000000 1.00000000
vn 0.00000000 0.00000000 1.00000000
vn -0.21125850 0.00000000 0.97743020
vn -0.21125860 0.00000000 0.97743020
vn -0.36266570 0.00000000 0.93191940
vn -0.36266560 0.00000000 0.93191940
vn -0.40686150 0.00000000 0.91348980
vn -0.40686150 0.00000000 0.91348980
vn -0.11884670 0.98423660 0.13097220
vn -0.36714950 0.62271340 -0.69096260
vn -0.00000752 0.99398820 0.10948780
vn 0.00000194 0.65285540 -0.75748250
vn 0.11883580 0.98423120 0.13102300
vn 0.36714540 0.62271430 -0.69096390
vn 0.21959770 0.95645350 0.19228510
vn 0.67839800 0.53687760 -0.50153630
vn -0.11882970 0.74745380 0.65359950
vn -0.00000143 -0.13903490 0.99028740
vn -0.36714380 -0.10889390 0.92376810
vn 0.00000028 0.73767670 0.67515410
vn 0.36714380 -0.10889400 0.92376810
vn 0.11883690 0.74744500 0.65360830
vn -0.05799934 0.95812930 0.28040010
vn 0.67839840 -0.02306756 0.73433210
vn 0.21957320 0.77522750 0.59229200
vn 0.88637010 0.10538170 0.45082450
vn 0.28687770 0.81680330 0.50053320
vn 0.95939840 0.25691400 0.11640350
vn 0.31050330 0.86583850 0.39231540
vn 0.88636900 0.40842930 -0.21802600
vn 0.28689660 0.91487790 0.28405770
vn -0.10714870 0.85613050 0.50552900
vn -0.13996780 0.87642630 0.46074510
vn -0.05799790 0.84255970 0.53547110
vn -0.15149010 0.90035520 0.40793530
vn -0.00000408 0.83781650 0.54595190
vn -0.13996070 0.92427930 0.35513220
vn 0.05797185 0.84261290 0.53539040
vn -0.10714210 0.94457180 0.31033010
vn 0.10712890 0.85614450 0.50550960
vn -0.26629110 0.38887560 0.88196650
vn 0.00000218 0.36701250 0.93021600
vn 0.26629130 0.38886880 0.88196930
vn -0.49203130 0.45112550 0.74457430
vn -0.64286480 0.54428910 0.53895650
vn -0.69583820 0.65418330 0.29640080
vn -0.64285360 0.76409330 0.05385768
vn -0.49200140 0.85726980 -0.15173340
vn -0.26626630 0.91951870 -0.28911540
vn 0.00000317 0.29219050 0.95636000
vn -0.28721540 0.31578230 0.90431680
vn 0.28721590 0.31575240 0.90432710
vn -0.53070210 0.38292390 0.75612470
vn -0.69339030 0.48341000 0.53434520
vn -0.75051870 0.60194460 0.27273490
vn -0.69337990 0.72048610 0.01113980
vn -0.53066610 0.82099620 -0.21061520
vn 0.53070340 0.38290850 0.75613150
vn -0.28719240 0.88813960 -0.35878760
vn 0.49203970 0.45111500 0.74457530
vn 0.69337790 0.48343570 0.53433790
vn -0.00000026 0.94137440 -0.33736370
vn -0.00000027 0.91171040 -0.41083340
vn 0.64286240 0.54430090 0.53894750
vn 0.75048610 0.60198130 0.27274370
vn 0.13997380 0.87641350 0.46076740
vn 0.26627410 0.91951120 -0.28913180
vn 0.28719280 0.88813430 -0.35880050
vn 0.00000011 0.96288660 0.26990640
vn 0.69581620 0.65420230 0.29641050
vn 0.69336290 0.72050240 0.01114624
vn 0.15149400 0.90034900 0.40794760
vn -0.28692080 0.91487440 0.28404450
vn -0.95939780 0.25691730 0.11640210
vn -0.31053960 0.86584530 0.39227160
vn -0.88636800 0.10540050 0.45082440
vn 0.05799378 0.95813440 0.28038420
vn 0.64285670 0.76409050 0.05386187
vn 0.53067770 0.82098790 -0.21061840
vn 0.13997090 0.92427670 0.35513460
vn -0.28687650 0.81682110 0.50050500
vn -0.67839750 -0.02305998 0.73433300
vn 0.49201380 0.85725960 -0.15175090
vn 0.10714340 0.94457790 0.31031110
vn -0.21955260 0.77524690 0.59227440
vn -0.68419660 0.51234890 -0.51901210
vn -0.37028580 0.59891140 -0.71006590
vn -0.36714950 0.62271340 -0.69096260
vn -0.67840140 0.53688160 -0.50152720
vn -0.89394590 0.38279990 -0.23307730
vn -0.88636940 0.40843130 -0.21802090
vn -0.96759850 0.22998840 0.10420330
vn -0.95939780 0.25691730 0.11640210
vn -0.89394530 0.07717355 0.44148170
vn -0.88636800 0.10540050 0.45082440
vn -0.68419620 -0.05238230 0.72741430
vn -0.67839750 -0.02305998 0.73433300
vn -0.37028500 -0.13894780 0.91846750
vn -0.36714380 -0.10889390 0.92376810
vn -0.00000221 -0.16934520 0.98555680
vn -0.37028500 -0.13894780 0.91846750
vn -0.36714380 -0.10889390 0.92376810
vn -0.00000143 -0.13903490 0.99028740
vn 0.37028510 -0.13894740 0.91846750
vn 0.36714380 -0.10889400 0.92376810
vn 0.68419770 -0.05238575 0.72741280
vn 0.37028510 -0.13894740 0.91846750
vn 0.36714380 -0.10889400 0.92376810
vn 0.67839840 -0.02306756 0.73433210
vn 0.89394530 0.07715698 0.44148460
vn 0.88637010 0.10538170 0.45082450
vn 0.96760100 0.22998050 0.10419840
vn 0.95939840 0.25691400 0.11640350
vn 0.89394440 0.38279620 -0.23308890
vn 0.88636900 0.40842930 -0.21802600
vn 0.68419670 0.51234580 -0.51901510
vn 0.67839800 0.53687760 -0.50153630
vn 0.37028660 0.59891380 -0.71006350
vn 0.36714540 0.62271430 -0.69096390
vn 0.00000242 0.62931080 -0.77715370
vn 0.37028660 0.59891380 -0.71006350
vn 0.36714540 0.62271430 -0.69096390
vn 0.00000194 0.65285540 -0.75748250
vn -0.37028580 0.59891140 -0.71006590
vn -0.36714950 0.62271340 -0.69096260
vn 0.54639230 0.00000456 -0.83752940
vn 0.54638830 0.00000456 -0.83753200
vn 0.29418690 0.00000202 -0.95574790
vn 0.29418120 0.00000202 -0.95574960
vn 0.00000291 0.00000036 -1.00000000
vn 0.00000291 0.00000036 -1.00000000
vn -0.29418480 -0.00000384 -0.95574860
vn -0.29418100 -0.00000384 -0.95574960
vn -0.54653120 -0.00000608 -0.83743880
vn -0.54640700 -0.00000608 -0.83751980
vn -0.54640700 -0.00000608 -0.83751980
vn -0.54653120 -0.00000608 -0.83743880
vn -0.74077590 -0.00000348 -0.67175220
vn -0.74077590 -0.00000348 -0.67175220
vn -0.90967540 0.00350790 -0.41530500
vn -0.90973840 0.00350958 -0.41516710
vn -0.99325410 0.00239416 -0.11593330
vn -0.99285790 0.00246324 -0.11927710
vn -1.00000000 -0.00000089 0.00000000
vn -1.00000000 -0.00000089 0.00000000
vn -1.00000000 -0.00000049 0.00000000
vn -1.00000000 -0.00000049 0.00000000
vn -1.00000000 0.00000000 0.00000000
vn -1.00000000 0.00000000 0.00000000
vn -1.00000000 -0.00000154 0.00000000
vn -1.00000000 -0.00000154 0.00000000
vn -1.00000000 -0.00000375 0.00000000
vn -1.00000000 -0.00000375 0.00000000
vn -0.99353330 -0.04864301 0.10259420
vn -0.99352040 -0.04869104 0.10269550
vn -0.90921160 -0.18127080 0.37480030
vn -0.90915920 -0.18132200 0.37490250
vn -0.74072920 -0.29575800 0.60319770
vn -0.54649410 -0.36869220 0.75193760
vn -0.54642060 -0.36871330 0.75198070
vn -0.74072920 -0.29575800 0.60319780
vn -0.54642060 -0.36871330 0.75198070
vn -0.54649410 -0.36869220 0.75193760
vn -0.29422690 -0.42075730 0.85813400
vn -0.29422510 -0.42075750 0.85813440
vn -0.00000102 -0.44024090 0.89787970
vn -0.00000021 -0.44024080 0.89787970
vn 0.29421090 -0.42075990 0.85813810
vn 0.29420680 -0.42076050 0.85813920
vn 0.54648640 -0.36869060 0.75194390
vn 0.54640820 -0.36871310 0.75198990
vn 0.74074790 -0.29574260 0.60318230
vn 0.90921290 -0.18126990 0.37479740
vn 0.90916130 -0.18132030 0.37489820
vn 0.74074790 -0.29574260 0.60318230
vn 0.54640820 -0.36871310 0.75198990
vn 0.54648640 -0.36869060 0.75194390
vn 0.99353300 -0.04864145 0.10259750
vn 0.99352070 -0.04868769 0.10269500
vn 1.00000000 -0.00000050 0.00000083
vn 1.00000000 -0.00000050 0.00000083
vn 1.00000000 -0.00000077 0.00000000
vn 1.00000000 -0.00000077 0.00000000
vn 1.00000000 -0.00000057 0.00000000
vn 1.00000000 -0.00000052 0.00000000
vn 1.00000000 -0.00000014 0.00000000
vn 1.00000000 -0.00000014 0.00000000
vn 1.00000000 0.00000000 0.00000000
vn 1.00000000 0.00000000 0.00000000
vn 0.99282360 -0.00000419 -0.11958820
vn 0.99320460 -0.00000417 -0.11638150
vn 0.90819860 0.00000198 -0.41853970
vn 0.90819660 0.00000198 -0.41854380
vn 0.74077550 0.00001200 -0.67175260
vn 0.74077550 0.00001200 -0.67175260
vn 0.54639230 0.00000456 -0.83752940
vn 0.54638830 0.00000456 -0.83753200
vn 0.70710890 0.00000000 -0.70710460
vn 0.38269160 0.00000000 -0.92387620
vn 0.38269160 0.00000000 -0.92387620
vn 0.70710890 0.00000000 -0.70710460
vn 0.92388020 0.00000000 -0.38268170
vn 0.92388020 0.00000000 -0.38268170
vn 1.00000000 0.00000000 0.00000000
vn 1.00000000 0.00000000 0.00000000
vn 0.92388150 0.00000000 0.38267870
vn 0.92388150 0.00000000 0.38267870
vn 0.38269160 0.00000000 -0.92387620
vn 0.38269160 0.00000000 -0.92387620
vn 0.00000000 0.00000000 -1.00000000
vn 0.00000000 0.00000000 -1.00000000
vn -0.38269160 0.00000000 -0.92387620
vn -0.38269160 0.00000000 -0.92387620
vn -0.38269160 0.00000000 -0.92387620
vn -0.38269160 0.00000000 -0.92387620
vn -0.70710680 0.00000000 -0.70710660
vn -0.70710680 0.00000000 -0.70710660
vn -0.92388020 0.00000000 -0.38268170
vn -0.92388020 0.00000000 -0.38268170
vn -1.00000000 0.00000000 0.00000000
vn -1.00000000 0.00000000 0.00000000
vn -0.92388150 0.00000000 0.38267870
vn -0.92388150 0.00000000 0.38267870
vn -0.70710660 0.00000000 0.70710690
vn -0.70710660 0.00000000 0.70710690
vn -0.38267130 0.00000000 0.92388460
vn -0.38267130 0.00000000 0.92388460
vn -0.38267130 0.00000000 0.92388460
vn -0.38267130 0.00000000 0.92388460
vn 0.00000000 0.00000000 1.00000000
vn 0.00000000 0.00000000 1.00000000
vn 0.38267130 0.00000000 0.92388460
vn 0.38267130 0.00000000 0.92388460
vn 0.38267130 0.00000000 0.92388460
vn 0.38267130 0.00000000 0.92388460
vn 0.70710870 0.00000000 0.70710480
vn 0.70710870 0.00000000 0.70710480
vn 0.36103710 -0.33152660 -0.87163200
vn 0.36103580 -0.33152660 -0.87163250
vn 0.66711740 -0.33152610 -0.66711680
vn 0.66711680 -0.33152610 -0.66711730
vn 0.87163320 -0.33152690 -0.36103400
vn 0.87163060 -0.33152690 -0.36104010
vn 0.94344650 -0.33152480 -0.00000016
vn 0.94344660 -0.33152480 -0.00000014
vn 0.00000000 -0.33152990 -0.94344470
vn -0.00000012 -0.33152990 -0.94344480
vn 0.36103580 -0.33152660 -0.87163250
vn 0.36103710 -0.33152660 -0.87163200
vn -0.36103720 -0.33152370 -0.87163310
vn -0.36103690 -0.33152370 -0.87163320
vn -0.66711310 -0.33152410 -0.66712210
vn -0.36103690 -0.33152370 -0.87163320
vn -0.36103720 -0.33152370 -0.87163310
vn -0.66711340 -0.33152410 -0.66712180
vn -0.87163050 -0.33152690 -0.36104020
vn -0.87163320 -0.33152690 -0.36103410
vn -0.94344650 -0.33152480 0.00000000
vn -0.94344650 -0.33152480 0.00000000
vn -0.87162980 -0.33152010 0.36104840
vn -0.87162980 -0.33152010 0.36104830
vn -0.66712030 -0.33151250 0.66712060
vn -0.66712000 -0.33151250 0.66712090
vn -0.36106370 -0.33151540 0.87162520
vn -0.36106290 -0.33151540 0.87162550
vn 0.00000000 -0.33151500 0.94345000
vn 0.00000000 -0.33151500 0.94345000
vn -0.36106290 -0.33151540 0.87162550
vn -0.36106370 -0.33151540 0.87162520
vn 0.36106320 -0.33151620 0.87162520
vn 0.36106250 -0.33151630 0.87162550
vn 0.66712300 -0.33151380 0.66711730
vn 0.36106250 -0.33151630 0.87162550
vn 0.36106320 -0.33151620 0.87162520
vn 0.66712290 -0.33151390 0.66711740
vn 0.87162920 -0.33152220 0.36104820
vn 0.87162920 -0.33152220 0.36104800
vn 0.00000100 -1.00000000 -0.00000234
vn 0.00000000 -1.00000000 0.00000000
vn 0.00000171 -1.00000000 -0.00000059
vn 0.00000000 -1.00000000 -0.00000234
vn 0.00000242 -1.00000000 0.00000117
vn -0.00000100 -1.00000000 -0.00000234
vn 0.00000242 -1.00000000 0.00000088
vn -0.00000171 -1.00000000 -0.00000146
vn 0.00000242 -1.00000000 0.00000059
vn -0.00000242 -1.00000000 -0.00000059
vn 0.00000171 -1.00000000 0.00000146
vn -0.00000242 -1.00000000 -0.00000088
vn 0.00000100 -1.00000000 0.00000234
vn -0.00000242 -1.00000000 -0.00000117
vn 0.00000000 -1.00000000 0.00000234
vn -0.00000171 -1.00000000 0.00000059
vn -0.00000100 -1.00000000 0.00000234
vn 0.00000000 -1.00000000 0.00000129
vn 0.00000000 -1.00000000 0.00000129
vn 0.00000000 -1.00000000 0.00000077
vn 0.00000000 -1.00000000 0.00000067
vn 0.00000000 -1.00000000 0.00000077
vn 0.00000000 -1.00000000 0.00000069
vn 0.00000000 -1.00000000 0.00000063
vn 0.00000000 -1.00000000 0.00000000
vn 0.00000000 -1.00000000 0.00000063
vn 0.00000000 -1.00000000 0.00000000
vn 0.00000000 -1.00000000 0.00000111
vn -0.00150485 -0.99974150 -0.02268793
vn 0.00000000 -1.00000000 0.00000111
vn -0.00150489 -0.99974150 -0.02268853
vn -0.00034622 -1.00000000 0.00002150
vn -0.00134650 -0.99772860 -0.06734817
vn -0.00034621 -1.00000000 0.00002150
vn -0.00134650 -0.99772860 -0.06734817
vn 0.00000000 -0.99020810 -0.13959960
vn 0.00000000 -0.99020810 -0.13959960
vn 0.00000000 -0.98066980 -0.19567010
vn 0.00000000 -0.98066980 -0.19567010
vn 0.00000000 -0.96032890 -0.27887020
vn 0.00000000 -0.96032890 -0.27887020
vn -0.00124551 -0.92910560 -0.36981260
vn -0.00124551 -0.92910560 -0.36981260
vn -0.00074961 -0.91070170 -0.41306410
vn -0.00075250 -0.91071610 -0.41303220
vn 0.00154664 -0.89808800 -0.43981300
vn 0.00154690 -0.89808810 -0.43981300
vn 0.00098895 -0.89796880 -0.44005810
vn 0.00099857 -0.89797250 -0.44005040
vn 0.00021766 -0.89786830 -0.44026380
vn 0.00021766 -0.89786850 -0.44026380
vn -0.00000100 -0.89787520 -0.44025020
vn -0.00000100 -0.89787520 -0.44025020
vn 0.00000000 -0.89787550 -0.44024950
vn 0.00000000 -0.89787550 -0.44024950
vn -0.00000138 -0.89787440 -0.44025170
vn -0.00000138 -0.89787440 -0.44025170
vn -0.00021776 -0.89786800 -0.44026480
vn -0.00021777 -0.89786800 -0.44026480
vn -0.00098354 -0.89797000 -0.44005580
vn -0.00099333 -0.89797370 -0.44004790
vn -0.00155083 -0.89808890 -0.43981110
vn -0.00155110 -0.89808890 -0.43981100
vn 0.00074444 -0.91070250 -0.41306240
vn 0.00074737 -0.91071710 -0.41303020
vn 0.00124354 -0.92910570 -0.36981220
vn 0.00124354 -0.92910570 -0.36981220
vn 0.00000000 -0.96032850 -0.27887110
vn 0.00000000 -0.96032850 -0.27887110
vn 0.00000000 -0.98066970 -0.19567060
vn 0.00000000 -0.98066970 -0.19567060
vn 0.00000000 -0.99020810 -0.13959920
vn 0.00000000 -0.99020810 -0.13959920
vn 0.00066325 -0.99770640 -0.06768665
vn 0.00066325 -0.99770640 -0.06768665
vn -0.00041093 -0.99972710 -0.02335828
vn -0.00040663 -0.99972600 -0.02340158
vn -0.00242456 -0.99999680 -0.00075741
vn -0.00242522 -0.99999680 -0.00075740
vn -0.00156271 -0.99999870 -0.00035720
vn -0.00154738 -0.99999880 -0.00034334
vn 0.00028270 0.89812480 0.43974080
vn 0.00090969 0.89810000 0.43979050
vn -0.00082460 0.91035900 0.41381830
vn -0.00031124 0.89778820 0.44042740
vn -0.00032343 0.91322010 0.40746640
vn -0.00022050 0.89813980 0.43970990
vn -0.00123416 0.92920810 0.36955490
vn -0.00023545 0.89796610 0.44006450
vn -0.00036209 0.92944670 0.36895600
vn -0.00064319 0.89740070 0.44121620
vn 0.00000000 0.96023080 0.27920750
vn -0.00005633 0.89780720 0.44038860
vn 0.00001058 0.96025440 0.27912630
vn -0.00038220 0.89728480 0.44145200
vn 0.00000000 0.98065600 0.19573940
vn -0.00000015 0.89778350 0.44043710
vn 0.00000062 0.98065040 0.19576740
vn 0.00000018 0.89726990 0.44148230
vn 0.00000000 0.99020250 0.13963820
vn 0.00005695 0.89780630 0.44039040
vn -0.00001103 0.99021100 0.13957900
vn 0.00038446 0.89728370 0.44145430
vn -0.00065627 0.99768530 0.06799790
vn -0.00019251 0.99765000 0.06851728
vn 0.00034883 0.99972460 0.02346285
vn 0.00014281 0.99964020 0.02682035
vn 0.00231723 0.99999680 0.00107718
vn 0.00096274 0.99999930 0.00072139
vn 0.00140935 0.99999890 0.00032187
vn 0.00036294 0.99999990 0.00035620
vn 0.00042616 0.99999990 -0.00002669
vn 0.00011760 1.00000000 0.00020050
vn 0.00000000 1.00000000 -0.00000143
vn 0.00004841 1.00000000 0.00016691
vn 0.00000000 1.00000000 -0.00000194
vn 0.00000000 1.00000000 0.00016430
vn 0.00000000 1.00000000 -0.00000048
vn -0.00004841 1.00000000 0.00016686
vn 0.00000000 1.00000000 0.00000196
vn -0.00008815 1.00000000 0.00012970
vn 0.00000000 1.00000000 0.00000059
vn -0.00012844 1.00000000 0.00008284
vn 0.00000000 1.00000000 0.00000049
vn -0.00010040 1.00000000 0.00004660
vn 0.00151270 0.99973880 0.02280725
vn 0.00055163 0.99964850 0.02650927
vn 0.00133266 0.99773870 0.06719869
vn 0.00042438 0.99768360 0.06802347
vn 0.00000000 0.99025030 0.13929980
vn 0.00000047 0.99025030 0.13930030
vn 0.00000000 0.98065630 0.19573790
vn 0.00000000 0.98065610 0.19573860
vn 0.00000000 0.96036310 0.27875180
vn -0.00000015 0.96036300 0.27875230
vn 0.00123719 0.92920770 0.36955590
vn 0.00036242 0.92944670 0.36895610
vn 0.00082947 0.91035780 0.41382110
vn 0.00032500 0.91321990 0.40746690
vn -0.00091109 0.89809690 0.43979660
vn -0.00028369 0.89812070 0.43974900
vn 0.00031335 0.89778640 0.44043110
vn 0.00022129 0.89813760 0.43971430
vn 0.00023804 0.89796500 0.44006680
vn 0.00064917 0.89739880 0.44121970
vn 0.00000000 -1.00000000 0.00000106
vn 0.00000000 -1.00000000 0.00000106
vn 0.00000000 -1.00000000 0.00000106
vn 0.00000000 -1.00000000 0.00000106
vn 0.00000000 -1.00000000 -0.00000053
vn 0.00000000 -1.00000000 0.00000000
vn 0.00000000 -1.00000000 -0.00000053
vn 0.00000000 -1.00000000 0.00000000
vn 0.00000000 -1.00000000 0.00000053
vn 0.00000000 -1.00000000 0.00000000
vn 0.00000000 -1.00000000 0.00000053
vn 0.00000000 -1.00000000 0.00000000
vn 0.00000000 -1.00000000 0.00000106
vn 0.00000000 -1.00000000 0.00000000
vn 0.00000000 -1.00000000 0.00000106
vn 0.00000000 -1.00000000 0.00000000
vn 0.00000000 -1.00000000 0.00000000
vn 0.00000000 -1.00000000 -0.00000106
vn 0.00000000 -1.00000000 0.00000000
vn 0.00000000 -1.00000000 -0.00000106
vn 0.00000000 -1.00000000 0.00000000
vn 0.00000000 -1.00000000 -0.00000106
vn 0.00000000 -1.00000000 0.00000000
vn 0.00000000 -1.00000000 -0.00000106
vn 0.00000000 -1.00000000 0.00000000
vn 0.00000000 -1.00000000 0.00000106
vn 0.00000000 -1.00000000 0.00000000
vn 0.00000000 -1.00000000 0.00000106
vn 0.00000000 -1.00000000 -0.00000106
vn 0.00000000 -1.00000000 0.00000000
vn 0.00000000 -1.00000000 -0.00000106
vn 0.00000000 -1.00000000 0.00000000
vt -238.03830000 -33.63813000
vt -238.03830000 -32.63813000
vt -237.03830000 -32.63813000
vt -237.03830000 -33.63813000
vt -239.51540000 0.38852470
vt -239.53700000 0.35837270
vt -239.51630000 0.38937600
vt -240.31260000 0.78882060
vt -240.31260000 0.93877340
vt -239.70880000 0.93877340
vt -239.70880000 0.78882060
vt -240.31260000 0.63251980
vt -239.70880000 0.63251980
vt -239.70880000 0.50000020
vt -240.31260000 0.50000020
vt -240.31260000 0.36748050
vt -239.70880000 0.36748050
vt -239.70880000 0.21118010
vt -240.31260000 0.21118010
vt -239.70880000 0.06122673
vt -240.31260000 0.06122673
vt -239.48480000 0.40897950
vt -239.48530000 0.41009170
vt -239.44870000 0.41616220
vt -239.44870000 0.41736610
vt -239.41260000 0.40897940
vt -239.41210000 0.41009170
vt -239.38200000 0.38852460
vt -239.38110000 0.38937590
vt -239.48480000 0.23462430
vt -239.44870000 0.22623770
vt -239.48530000 0.23351210
vt -239.44870000 0.22744160
vt -239.41210000 0.23351210
vt -239.41260000 0.23462430
vt -239.41360000 0.23699540
vt -239.38110000 0.25422780
vt -239.38200000 0.25507910
vt -239.36040000 0.28523110
vt -239.36150000 0.28569180
vt -239.35310000 0.32180190
vt -239.35430000 0.32180190
vt -239.36040000 0.35837270
vt -239.36150000 0.35791190
vt -239.38380000 0.38670990
vt -239.36390000 0.35692980
vt -239.41360000 0.40660830
vt -239.35690000 0.32180190
vt -239.44870000 0.41359580
vt -239.36390000 0.28667390
vt -239.48380000 0.40660840
vt -239.38380000 0.25689380
vt -239.51360000 0.38671000
vt -239.41420000 0.40501060
vt -239.44870000 0.41186630
vt -239.48320000 0.40501060
vt -239.38500000 0.38548700
vt -239.36550000 0.35626800
vt -239.35860000 0.32180190
vt -239.36550000 0.28733570
vt -239.38500000 0.25811670
vt -239.41420000 0.23859320
vt -239.44870000 0.40499870
vt -239.41690000 0.39866570
vt -239.48050000 0.39866570
vt -239.38990000 0.38063090
vt -239.37180000 0.35363990
vt -239.36550000 0.32180190
vt -239.37180000 0.28996390
vt -239.38990000 0.26297290
vt -239.50750000 0.38063090
vt -239.41690000 0.24493810
vt -239.51240000 0.38548710
vt -239.52560000 0.35364000
vt -239.44870000 0.23173750
vt -239.44870000 0.23860510
vt -239.53190000 0.35626810
vt -239.53190000 0.32180190
vt -239.53350000 0.35692990
vt -239.48320000 0.23859320
vt -239.48050000 0.24493810
vt -239.44870000 0.23000800
vt -239.53880000 0.32180190
vt -239.52560000 0.28996390
vt -239.54050000 0.32180190
vt -239.53590000 0.35791200
vt -239.54430000 0.32180190
vt -239.54310000 0.32180190
vt -239.53700000 0.28523110
vt -239.48380000 0.23699540
vt -239.53190000 0.28733580
vt -239.50750000 0.26297290
vt -239.53350000 0.28667390
vt -239.53590000 0.28569180
vt -239.51630000 0.25422780
vt -239.51240000 0.25811680
vt -239.51360000 0.25689380
vt -239.51540000 0.25507910
vt -239.95410000 0.39389690
vt -239.95410000 0.41590620
vt -239.92530000 0.40895500
vt -239.92530000 0.38857670
vt -239.95410000 0.36095770
vt -239.92530000 0.35807840
vt -239.95410000 0.32210330
vt -239.92530000 0.32210330
vt -239.95410000 0.28324880
vt -239.92530000 0.28612810
vt -239.95410000 0.25030960
vt -239.92530000 0.25562980
vt -239.95410000 0.22830030
vt -239.92530000 0.23525150
vt -239.08480000 0.13417090
vt -239.08480000 0.16902670
vt -239.05890000 0.16644370
vt -239.05890000 0.13417090
vt -239.08480000 0.09931524
vt -239.05890000 0.10189830
vt -239.84480000 0.39389320
vt -239.84480000 0.41590140
vt -239.81590000 0.40895050
vt -239.81590000 0.38857320
vt -239.84480000 0.36095560
vt -239.81590000 0.35807640
vt -239.84480000 0.32210310
vt -239.81590000 0.32210310
vt -239.84480000 0.28325070
vt -239.81590000 0.28612980
vt -239.84480000 0.25031310
vt -239.81590000 0.25563310
vt -239.84480000 0.22830490
vt -239.81590000 0.23525570
vt -239.02710000 0.40393760
vt -239.02710000 0.36908220
vt -239.05300000 0.37166520
vt -239.05300000 0.40393760
vt -239.02710000 0.43879290
vt -239.05300000 0.43620990
vt -239.58710000 0.38982650
vt -239.64280000 0.38982770
vt -239.64280000 0.49103600
vt -239.58710000 0.49103700
vt -239.64280000 0.60681840
vt -239.58710000 0.60681840
vt -239.64280000 0.72260270
vt -239.58710000 0.72260180
vt -239.64280000 0.82381000
vt -239.58710000 0.82381000
vt -239.44290000 1.26230200
vt -239.38710000 1.26230200
vt -239.38710000 1.22259700
vt -239.44280000 1.22259600
vt -239.44270000 1.18289100
vt -239.38700000 1.18289100
vt -239.38700000 1.08787500
vt -239.44270000 1.09017600
vt -239.39170000 0.97044580
vt -239.44740000 0.97425730
vt -239.40260000 0.85751610
vt -239.45780000 0.86529780
vt -239.42340000 0.74569280
vt -239.47790000 0.75724670
vt -239.44830000 0.62827060
vt -239.50200000 0.64376590
vt -239.49210000 0.50948890
vt -239.54390000 0.53007940
vt -239.54200000 0.39328400
vt -239.59270000 0.41650170
vt -239.58350000 0.30872060
vt -239.63350000 0.33325220
vt -239.65100000 0.29764210
vt -239.61850000 0.23749690
vt -239.66850000 0.26203050
vt -239.60100000 0.27310920
vt -239.66400000 0.83572780
vt -239.61120000 0.83572640
vt -239.63440000 0.72896090
vt -239.68720000 0.72896090
vt -239.64230000 0.60681780
vt -239.69510000 0.60681750
vt -239.63440000 0.48467480
vt -239.68720000 0.48467580
vt -239.61120000 0.37790890
vt -239.66400000 0.37790840
vt -239.78730000 0.70236460
vt -239.71970000 0.69128320
vt -239.76970000 0.66675040
vt -239.73720000 0.72689640
vt -239.80480000 0.73797790
vt -239.75470000 0.76251090
vt -239.67830000 0.60672070
vt -239.72890000 0.58350100
vt -239.62830000 0.49051420
vt -239.68020000 0.46992220
vt -239.58460000 0.37172990
vt -239.63820000 0.35623460
vt -239.55940000 0.25297080
vt -239.61420000 0.24275240
vt -239.53880000 0.14248130
vt -239.59400000 0.13470020
vt -239.52800000 0.02955119
vt -239.58360000 0.02573937
vt -239.52340000 -0.09028801
vt -239.57910000 -0.09028801
vt -239.52340000 -0.18297760
vt -239.57910000 -0.18297820
vt -239.52340000 -0.22264300
vt -239.57910000 -0.22264310
vt -239.57910000 -0.26230810
vt -239.52340000 -0.26230810
vt -239.80130000 0.52732880
vt -239.73630000 0.50993400
vt -239.80130000 0.50993400
vt -239.73630000 0.52732880
vt -239.80130000 0.55336210
vt -239.73630000 0.55336210
vt -239.80130000 0.58407030
vt -239.73630000 0.58407030
vt -239.80130000 0.61477830
vt -239.73630000 0.61477830
vt -239.90390000 0.59491920
vt -239.90390000 0.53643130
vt -239.93150000 0.53643130
vt -239.93150000 0.59491920
vt -239.95910000 0.53643130
vt -239.95910000 0.59491920
vt -239.83570000 0.65814470
vt -239.77060000 0.65814470
vt -239.77060000 0.64076480
vt -239.83570000 0.64076480
vt -239.77060000 0.61475260
vt -239.83570000 0.61475260
vt -239.77060000 0.58407030
vt -239.83570000 0.58407030
vt -239.77060000 0.55338790
vt -239.83570000 0.55338790
vt -239.77060000 0.52737620
vt -239.83570000 0.52737620
vt -239.77060000 0.50999610
vt -239.83570000 0.50999610
vt -239.99170000 0.53650090
vt -239.99170000 0.59484930
vt -239.96410000 0.59484930
vt -239.96410000 0.53650090
vt -239.93660000 0.59484930
vt -239.93660000 0.53650090
vt -239.80130000 0.65820680
vt -239.73630000 0.65820680
vt -239.73630000 0.64081230
vt -239.80130000 0.64081230
vt -239.81120000 0.51759210
vt -239.85270000 0.53108160
vt -239.85270000 0.54179550
vt -239.81120000 0.53147210
vt -239.85270000 0.55783290
vt -239.81120000 0.55224500
vt -239.85270000 0.57674930
vt -239.81120000 0.57674930
vt -240.01080000 0.56182270
vt -239.97360000 0.56182270
vt -239.97360000 0.54486370
vt -240.01080000 0.53985490
vt -240.01080000 0.58379090
vt -239.97360000 0.57878160
vt -239.83460000 0.62204490
vt -239.87610000 0.62243590
vt -239.83460000 0.63593100
vt -239.87610000 0.61171690
vt -239.83460000 0.60126290
vt -239.87610000 0.59567280
vt -239.83460000 0.57674780
vt -239.87610000 0.57674780
vt -239.83460000 0.55223360
vt -239.87610000 0.55782290
vt -239.83460000 0.53145300
vt -239.87610000 0.54178100
vt -239.83460000 0.51756610
vt -239.87610000 0.53105980
vt -239.99690000 0.56182270
vt -240.03430000 0.56182270
vt -240.03430000 0.57882600
vt -239.99690000 0.58384840
vt -239.99690000 0.53979720
vt -240.03430000 0.54481940
vt -239.81120000 0.62202420
vt -239.85270000 0.62241700
vt -239.81120000 0.63590500
vt -239.85270000 0.61170110
vt -239.81120000 0.60125300
vt -239.85270000 0.59566560
vt -239.87480000 0.53307620
vt -239.89110000 0.57255930
vt -239.86090000 0.54233950
vt -239.89110000 0.52982330
vt -239.85160000 0.55620470
vt -239.90750000 0.53307620
vt -239.84840000 0.57255930
vt -239.92130000 0.54233950
vt -239.85160000 0.58891390
vt -239.93060000 0.55620470
vt -239.86090000 0.60277770
vt -239.93380000 0.57255930
vt -239.87480000 0.61204240
vt -239.93060000 0.58891390
vt -239.89110000 0.61529550
vt -239.92130000 0.60277770
vt -239.90750000 0.61204240
vt -239.70840000 -0.17542320
vt -239.67600000 -0.21845750
vt -239.77640000 -0.26791550
vt -239.64020000 -0.17906720
vt -239.79240000 -0.21674980
vt -239.68040000 -0.14449500
vt -239.89140000 -0.28476010
vt -239.65230000 -0.11356720
vt -239.89140000 -0.23126140
vt -239.60450000 -0.13967680
vt -240.00630000 -0.26791570
vt -239.63260000 -0.04060656
vt -239.99040000 -0.21675020
vt -239.57970000 -0.04762819
vt -240.10680000 -0.21845750
vt -239.63260000 0.06759566
vt -240.07440000 -0.17542320
vt -239.57970000 0.06759566
vt -239.63260000 0.17580200
vt -239.57970000 0.17580200
vt -239.63260000 0.28310630
vt -239.57970000 0.28310630
vt -239.63260000 0.39580270
vt -239.57970000 0.39580270
vt -239.63260000 0.50870330
vt -239.57970000 0.50870330
vt -239.63260000 0.61521140
vt -239.57970000 0.62149570
vt -239.65230000 0.68072910
vt -239.60450000 0.70416890
vt -239.68040000 0.70849680
vt -239.64020000 0.73953600
vt -239.70840000 0.73626490
vt -239.67600000 0.77490290
vt -239.79240000 0.77337410
vt -239.77640000 0.81931470
vt -239.89140000 0.78640640
vt -239.89140000 0.83444100
vt -239.99040000 0.77337410
vt -240.00630000 0.81931470
vt -240.07440000 0.73626240
vt -240.10680000 0.77489910
vt -240.10240000 0.70849470
vt -240.14250000 0.73953350
vt -240.13040000 0.68072910
vt -240.17830000 0.70416960
vt -240.15010000 0.61521140
vt -240.20310000 0.62149570
vt -240.15010000 0.50870330
vt -240.20310000 0.50870330
vt -240.15010000 0.39580270
vt -240.20310000 0.39580270
vt -240.15010000 0.28310630
vt -240.20310000 0.28310630
vt -240.15010000 0.17580200
vt -240.20310000 0.17580200
vt -240.15010000 0.06759566
vt -240.20310000 0.06759566
vt -240.15010000 -0.04060656
vt -240.20310000 -0.04752198
vt -240.13040000 -0.11356720
vt -240.17830000 -0.13959510
vt -240.14260000 -0.17902650
vt -240.10240000 -0.14449500
vt -240.42930000 -0.12597370
vt -240.48870000 -0.16201320
vt -240.51360000 -0.07779041
vt -240.45280000 -0.19748140
vt -240.46050000 -0.07148927
vt -240.40690000 -0.14442140
vt -240.51360000 0.03794645
vt -240.37050000 -0.16902850
vt -240.46050000 0.03794645
vt -240.41700000 -0.23295020
vt -240.51360000 0.15625000
vt -240.30030000 -0.20008860
vt -240.46050000 0.15625000
vt -240.31630000 -0.27749310
vt -240.51360000 0.27319910
vt -240.20100000 -0.21315940
vt -240.46050000 0.27319910
vt -240.20100000 -0.29266380
vt -240.51360000 0.38457210
vt -240.10170000 -0.20008860
vt -240.46050000 0.38457210
vt -240.08570000 -0.27749310
vt -240.51360000 0.49704710
vt -240.46050000 0.49704710
vt -240.51360000 0.61400340
vt -240.46050000 0.60706700
vt -240.48870000 0.70863750
vt -240.44070000 0.68253300
vt -240.45290000 0.74818280
vt -240.41260000 0.71355080
vt -240.41700000 0.78772810
vt -240.37030000 0.75156710
vt -240.31630000 0.83733000
vt -240.30030000 0.78601580
vt -240.20100000 0.85422320
vt -240.20100000 0.80056910
vt -240.08570000 0.83732960
vt -240.10170000 0.78601560
vt -239.98500000 0.78772810
vt -240.03170000 0.75156710
vt -239.94910000 0.74822300
vt -239.98930000 0.71355080
vt -239.91330000 0.70871780
vt -239.96120000 0.68253300
vt -239.88840000 0.61640250
vt -239.94150000 0.60936040
vt -239.88840000 0.49704710
vt -239.94150000 0.49704710
vt -239.88840000 0.38457300
vt -239.94150000 0.38457300
vt -239.88840000 0.27452940
vt -239.94150000 0.27452940
vt -239.88840000 0.15625000
vt -239.94150000 0.15625000
vt -239.88840000 0.03794517
vt -239.94150000 0.03794517
vt -239.88840000 -0.07779223
vt -239.94150000 -0.07149032
vt -239.91330000 -0.16201320
vt -239.97260000 -0.12597370
vt -239.94910000 -0.19748260
vt -239.99510000 -0.14442270
vt -240.03140000 -0.16903230
vt -239.98500000 -0.23295330
vt -239.68610000 0.52088370
vt -239.69220000 0.53559090
vt -239.67420000 0.54759990
vt -239.66300000 0.53634330
vt -239.71340000 0.51545410
vt -239.66220000 0.56557270
vt -239.71340000 0.53137360
vt -239.64750000 0.55948140
vt -239.74070000 0.52088370
vt -239.65800000 0.58677380
vt -239.73460000 0.53559090
vt -239.64210000 0.58677380
vt -239.76380000 0.53634330
vt -239.66220000 0.60797420
vt -239.75250000 0.54759990
vt -239.64750000 0.61406620
vt -239.77930000 0.55948140
vt -239.67420000 0.62594580
vt -239.76460000 0.56557270
vt -239.66300000 0.63720380
vt -239.78470000 0.58677380
vt -239.69220000 0.63795520
vt -239.76880000 0.58677380
vt -239.68610000 0.65266360
vt -239.77930000 0.61406620
vt -239.71340000 0.64217260
vt -239.76460000 0.60797420
vt -239.71340000 0.65809230
vt -239.76380000 0.63720380
vt -239.73460000 0.63795520
vt -239.75250000 0.62594580
vt -239.74070000 0.65266360
f 3/3/3 2/2/2 1/1/1
f 4/4/4 3/3/3 1/1/1
f 7/7/7 6/6/6 5/5/5
f 10/10/10 9/9/9 8/8/8
f 11/11/11 10/10/10 8/8/8
f 11/11/11 8/8/8 12/12/12
f 13/13/13 11/11/11 12/12/12
f 13/13/13 12/12/12 14/14/14
f 12/12/12 15/15/15 14/14/14
f 15/15/15 16/16/16 14/14/14
f 16/16/16 17/17/17 14/14/14
f 18/18/18 17/17/17 16/16/16
f 19/19/19 18/18/18 16/16/16
f 20/20/20 18/18/18 19/19/19
f 21/21/21 20/20/20 19/19/19
f 7/7/7 5/5/5 22/22/22
f 23/23/23 7/7/7 22/22/22
f 22/22/22 24/24/24 23/23/23
f 24/24/24 25/25/25 23/23/23
f 25/25/25 24/24/24 26/26/26
f 27/27/27 25/25/25 26/26/26
f 27/27/27 26/26/26 28/28/28
f 29/29/29 27/27/27 28/28/28
f 32/32/32 31/31/31 30/30/30
f 31/31/31 33/33/33 30/30/30
f 31/31/31 34/34/34 33/33/33
f 34/34/34 35/35/35 33/33/33
f 33/33/33 35/35/35 36/36/36
f 34/34/34 37/37/37 35/35/35
f 37/37/37 38/38/38 35/35/35
f 37/37/37 39/39/39 38/38/38
f 39/39/39 40/40/40 38/38/38
f 39/39/39 41/41/41 40/40/40
f 41/41/41 42/42/42 40/40/40
f 41/41/41 43/43/43 42/42/42
f 43/43/43 44/44/44 42/42/42
f 43/43/43 29/29/29 44/44/44
f 29/29/29 28/28/28 44/44/44
f 44/44/44 28/28/28 45/45/45
f 46/46/46 44/44/44 45/45/45
f 42/42/42 44/44/44 46/46/46
f 45/45/45 28/28/28 47/47/47
f 28/28/28 26/26/26 47/47/47
f 48/48/48 42/42/42 46/46/46
f 40/40/40 42/42/42 48/48/48
f 47/47/47 26/26/26 49/49/49
f 26/26/26 24/24/24 49/49/49
f 50/50/50 40/40/40 48/48/48
f 38/38/38 40/40/40 50/50/50
f 49/49/49 24/24/24 51/51/51
f 24/24/24 22/22/22 51/51/51
f 52/52/52 38/38/38 50/50/50
f 35/35/35 38/38/38 52/52/52
f 36/36/36 35/35/35 52/52/52
f 51/51/51 22/22/22 53/53/53
f 22/22/22 5/5/5 53/53/53
f 47/47/47 49/49/49 54/54/54
f 55/55/55 49/49/49 51/51/51
f 49/49/49 55/55/55 54/54/54
f 51/51/51 53/53/53 56/56/56
f 56/56/56 55/55/55 51/51/51
f 47/47/47 54/54/54 57/57/57
f 45/45/45 47/47/47 57/57/57
f 45/45/45 57/57/57 58/58/58
f 46/46/46 45/45/45 58/58/58
f 46/46/46 58/58/58 59/59/59
f 48/48/48 46/46/46 59/59/59
f 48/48/48 59/59/59 60/60/60
f 50/50/50 48/48/48 60/60/60
f 50/50/50 60/60/60 61/61/61
f 52/52/52 50/50/50 61/61/61
f 52/52/52 61/61/61 62/62/62
f 36/36/36 52/52/52 62/62/62
f 54/54/54 55/55/55 63/63/63
f 64/64/64 54/54/54 63/63/63
f 57/57/57 54/54/54 64/64/64
f 63/63/63 55/55/55 65/65/65
f 66/66/66 57/57/57 64/64/64
f 58/58/58 57/57/57 66/66/66
f 67/67/67 58/58/58 66/66/66
f 59/59/59 58/58/58 67/67/67
f 68/68/68 59/59/59 67/67/67
f 60/60/60 59/59/59 68/68/68
f 69/69/69 60/60/60 68/68/68
f 61/61/61 60/60/60 69/69/69
f 70/70/70 61/61/61 69/69/69
f 55/55/55 56/56/56 65/65/65
f 62/62/62 61/61/61 70/70/70
f 65/65/65 56/56/56 71/71/71
f 72/72/72 62/62/62 70/70/70
f 56/56/56 73/73/73 71/71/71
f 71/71/71 73/73/73 74/74/74
f 53/53/53 73/73/73 56/56/56
f 75/75/75 62/62/62 72/72/72
f 76/76/76 75/75/75 72/72/72
f 36/36/36 62/62/62 75/75/75
f 73/73/73 77/77/77 74/74/74
f 74/74/74 77/77/77 78/78/78
f 53/53/53 79/79/79 73/73/73
f 79/79/79 77/77/77 73/73/73
f 53/53/53 5/5/5 79/79/79
f 80/80/80 75/75/75 76/76/76
f 81/81/81 80/80/80 76/76/76
f 82/82/82 36/36/36 75/75/75
f 82/82/82 75/75/75 80/80/80
f 82/82/82 33/33/33 36/36/36
f 30/30/30 33/33/33 82/82/82
f 77/77/77 83/83/83 78/78/78
f 78/78/78 83/83/83 84/84/84
f 79/79/79 85/85/85 77/77/77
f 85/85/85 83/83/83 77/77/77
f 5/5/5 86/86/86 79/79/79
f 79/79/79 86/86/86 85/85/85
f 6/6/6 86/86/86 5/5/5
f 6/6/6 87/87/87 86/86/86
f 87/87/87 88/88/88 86/86/86
f 86/86/86 88/88/88 85/85/85
f 87/87/87 89/89/89 88/88/88
f 90/90/90 30/30/30 82/82/82
f 90/90/90 82/82/82 80/80/80
f 83/83/83 91/91/91 84/84/84
f 84/84/84 91/91/91 92/92/92
f 85/85/85 93/93/93 83/83/83
f 85/85/85 88/88/88 93/93/93
f 93/93/93 91/91/91 83/83/83
f 89/89/89 94/94/94 88/88/88
f 88/88/88 94/94/94 93/93/93
f 89/89/89 95/95/95 94/94/94
f 91/91/91 96/96/96 92/92/92
f 90/90/90 80/80/80 96/96/96
f 92/92/92 96/96/96 81/81/81
f 96/96/96 80/80/80 81/81/81
f 93/93/93 97/97/97 91/91/91
f 97/97/97 96/96/96 91/91/91
f 93/93/93 94/94/94 97/97/97
f 97/97/97 90/90/90 96/96/96
f 95/95/95 98/98/98 94/94/94
f 94/94/94 98/98/98 97/97/97
f 97/97/97 98/98/98 90/90/90
f 95/95/95 32/32/32 98/98/98
f 98/98/98 30/30/30 90/90/90
f 32/32/32 30/30/30 98/98/98
f 101/101/101 100/100/100 99/99/99
f 102/102/102 101/101/101 99/99/99
f 102/102/102 99/99/99 103/103/103
f 104/104/104 102/102/102 103/103/103
f 104/104/104 103/103/103 105/105/105
f 106/106/106 104/104/104 105/105/105
f 106/106/106 105/105/105 107/107/107
f 108/108/108 106/106/106 107/107/107
f 108/108/108 107/107/107 109/109/109
f 110/110/110 108/108/108 109/109/109
f 110/110/110 109/109/109 111/111/111
f 112/112/112 110/110/110 111/111/111
f 115/115/115 114/114/114 113/113/113
f 116/116/116 115/115/115 113/113/113
f 116/116/116 113/113/113 117/117/117
f 118/118/118 116/116/116 117/117/117
f 121/121/121 120/120/120 119/119/119
f 122/122/122 121/121/121 119/119/119
f 122/122/122 119/119/119 123/123/123
f 124/124/124 122/122/122 123/123/123
f 124/124/124 123/123/123 125/125/125
f 126/126/126 124/124/124 125/125/125
f 126/126/126 125/125/125 127/127/127
f 128/128/128 126/126/126 127/127/127
f 128/128/128 127/127/127 129/129/129
f 130/130/130 128/128/128 129/129/129
f 130/130/130 129/129/129 131/131/131
f 132/132/132 130/130/130 131/131/131
f 135/135/135 134/134/134 133/133/133
f 136/136/136 135/135/135 133/133/133
f 136/136/136 133/133/133 137/137/137
f 138/138/138 136/136/136 137/137/137
f 141/141/141 140/140/140 139/139/139
f 142/142/142 141/141/141 139/139/139
f 143/143/143 141/141/141 142/142/142
f 144/144/144 143/143/143 142/142/142
f 145/145/145 143/143/143 144/144/144
f 146/146/146 145/145/145 144/144/144
f 147/147/147 145/145/145 146/146/146
f 148/148/148 147/147/147 146/146/146
f 151/151/151 150/150/150 149/149/149
f 152/152/152 151/151/151 149/149/149
f 152/152/152 153/153/153 151/151/151
f 153/153/153 154/154/154 151/151/151
f 155/155/155 154/154/154 153/153/153
f 156/156/156 155/155/155 153/153/153
f 157/157/157 155/155/155 156/156/156
f 158/158/158 157/157/157 156/156/156
f 159/159/159 157/157/157 158/158/158
f 160/160/160 159/159/159 158/158/158
f 161/161/161 159/159/159 160/160/160
f 162/162/162 161/161/161 160/160/160
f 163/163/163 161/161/161 162/162/162
f 164/164/164 163/163/163 162/162/162
f 165/165/165 163/163/163 164/164/164
f 166/166/166 165/165/165 164/164/164
f 167/167/167 165/165/165 166/166/166
f 168/168/168 167/167/167 166/166/166
f 169/169/169 167/167/167 168/168/168
f 170/170/170 169/169/169 168/168/168
f 173/173/173 172/172/172 171/171/171
f 172/172/172 174/174/174 171/171/171
f 171/171/171 174/174/174 170/170/170
f 174/174/174 169/169/169 170/170/170
f 177/177/177 176/176/176 175/175/175
f 178/178/178 177/177/177 175/175/175
f 179/179/179 177/177/177 178/178/178
f 180/180/180 179/179/179 178/178/178
f 181/181/181 179/179/179 180/180/180
f 182/182/182 181/181/181 180/180/180
f 183/183/183 181/181/181 182/182/182
f 184/184/184 183/183/183 182/182/182
f 187/187/187 186/186/186 185/185/185
f 186/186/186 188/188/188 185/185/185
f 185/185/185 188/188/188 189/189/189
f 188/188/188 190/190/190 189/189/189
f 191/191/191 186/186/186 187/187/187
f 192/192/192 191/191/191 187/187/187
f 193/193/193 191/191/191 192/192/192
f 194/194/194 193/193/193 192/192/192
f 195/195/195 193/193/193 194/194/194
f 196/196/196 195/195/195 194/194/194
f 197/197/197 195/195/195 196/196/196
f 198/198/198 197/197/197 196/196/196
f 199/199/199 197/197/197 198/198/198
f 200/200/200 199/199/199 198/198/198
f 201/201/201 199/199/199 200/200/200
f 202/202/202 201/201/201 200/200/200
f 203/203/203 201/201/201 202/202/202
f 204/204/204 203/203/203 202/202/202
f 205/205/205 203/203/203 204/204/204
f 206/206/206 205/205/205 204/204/204
f 207/207/207 205/205/205 206/206/206
f 208/208/208 207/207/207 206/206/206
f 208/208/208 209/209/209 207/207/207
f 209/209/209 210/210/210 207/207/207
f 213/213/213 212/212/212 211/211/211
f 212/212/212 214/214/214 211/211/211
f 211/211/211 214/214/214 215/215/215
f 214/214/214 216/216/216 215/215/215
f 215/215/215 216/216/216 217/217/217
f 216/216/216 218/218/218 217/217/217
f 217/217/217 218/218/218 219/219/219
f 218/218/218 220/220/220 219/219/219
f 223/223/223 222/222/222 221/221/221
f 224/224/224 223/223/223 221/221/221
f 225/225/225 223/223/223 224/224/224
f 226/226/226 225/225/225 224/224/224
f 229/229/229 228/228/228 227/227/227
f 230/230/230 229/229/229 227/227/227
f 231/231/231 229/229/229 230/230/230
f 232/232/232 231/231/231 230/230/230
f 233/233/233 231/231/231 232/232/232
f 234/234/234 233/233/233 232/232/232
f 235/235/235 233/233/233 234/234/234
f 236/236/236 235/235/235 234/234/234
f 237/237/237 235/235/235 236/236/236
f 238/238/238 237/237/237 236/236/236
f 239/239/239 237/237/237 238/238/238
f 240/240/240 239/239/239 238/238/238
f 243/243/243 242/242/242 241/241/241
f 244/244/244 243/243/243 241/241/241
f 245/245/245 243/243/243 244/244/244
f 246/246/246 245/245/245 244/244/244
f 249/249/249 248/248/248 247/247/247
f 250/250/250 249/249/249 247/247/247
f 220/220/220 249/249/249 250/250/250
f 219/219/219 220/220/220 250/250/250
f 253/253/253 252/252/252 251/251/251
f 254/254/254 253/253/253 251/251/251
f 255/255/255 253/253/253 254/254/254
f 256/256/256 255/255/255 254/254/254
f 257/257/257 255/255/255 256/256/256
f 258/258/258 257/257/257 256/256/256
f 261/261/261 260/260/260 259/259/259
f 262/262/262 261/261/261 259/259/259
f 260/260/260 264/264/264 263/263/263
f 259/259/259 260/260/260 263/263/263
f 267/267/267 266/266/266 265/265/265
f 266/266/266 268/268/268 265/265/265
f 265/265/265 268/268/268 269/269/269
f 268/268/268 270/270/270 269/269/269
f 269/269/269 270/270/270 271/271/271
f 270/270/270 272/272/272 271/271/271
f 271/271/271 272/272/272 273/273/273
f 272/272/272 274/274/274 273/273/273
f 273/273/273 274/274/274 275/275/275
f 274/274/274 276/276/276 275/275/275
f 275/275/275 276/276/276 277/277/277
f 276/276/276 278/278/278 277/277/277
f 281/281/281 280/280/280 279/279/279
f 282/282/282 281/281/281 279/279/279
f 280/280/280 284/284/284 283/283/283
f 279/279/279 280/280/280 283/283/283
f 287/287/287 286/286/286 285/285/285
f 286/286/286 288/288/288 285/285/285
f 285/285/285 288/288/288 289/289/289
f 288/288/288 290/290/290 289/289/289
f 289/289/289 290/290/290 258/258/258
f 290/290/290 257/257/257 258/258/258
f 293/293/293 292/292/292 291/291/291
f 292/292/292 294/294/294 291/291/291
f 292/292/292 293/293/293 295/295/295
f 294/294/294 292/292/292 296/296/296
f 297/297/297 292/292/292 295/295/295
f 292/292/292 298/298/298 296/296/296
f 292/292/292 297/297/297 299/299/299
f 298/298/298 292/292/292 300/300/300
f 301/301/301 292/292/292 299/299/299
f 292/292/292 302/302/302 300/300/300
f 292/292/292 301/301/301 303/303/303
f 302/302/302 292/292/292 304/304/304
f 305/305/305 292/292/292 303/303/303
f 292/292/292 306/306/306 304/304/304
f 292/292/292 305/305/305 307/307/307
f 306/306/306 292/292/292 307/307/307
f 310/310/310 309/309/309 308/308/308
f 308/308/308 309/309/309 311/311/311
f 312/312/312 310/310/310 308/308/308
f 313/313/313 308/308/308 311/311/311
f 314/314/314 310/310/310 312/312/312
f 313/313/313 311/311/311 315/315/315
f 316/316/316 314/314/314 312/312/312
f 311/311/311 317/317/317 315/315/315
f 318/318/318 314/314/314 316/316/316
f 315/315/315 317/317/317 319/319/319
f 320/320/320 318/318/318 316/316/316
f 317/317/317 321/321/321 319/319/319
f 322/322/322 318/318/318 320/320/320
f 319/319/319 321/321/321 323/323/323
f 324/324/324 322/322/322 320/320/320
f 321/321/321 325/325/325 323/323/323
f 323/323/323 325/325/325 326/326/326
f 325/325/325 327/327/327 326/326/326
f 326/326/326 327/327/327 328/328/328
f 327/327/327 329/329/329 328/328/328
f 328/328/328 329/329/329 330/330/330
f 329/329/329 331/331/331 330/330/330
f 330/330/330 331/331/331 332/332/332
f 331/331/331 333/333/333 332/332/332
f 332/332/332 333/333/333 334/334/334
f 333/333/333 335/335/335 334/334/334
f 334/334/334 335/335/335 336/336/336
f 335/335/335 337/337/337 336/336/336
f 336/336/336 337/337/337 338/338/338
f 337/337/337 339/339/339 338/338/338
f 338/338/338 339/339/339 340/340/340
f 339/339/339 341/341/341 340/340/340
f 340/340/340 341/341/341 342/342/342
f 341/341/341 343/343/343 342/342/342
f 342/342/342 343/343/343 344/344/344
f 343/343/343 345/345/345 344/344/344
f 344/344/344 345/345/345 346/346/346
f 345/345/345 347/347/347 346/346/346
f 346/346/346 347/347/347 348/348/348
f 347/347/347 349/349/349 348/348/348
f 348/348/348 349/349/349 350/350/350
f 349/349/349 351/351/351 350/350/350
f 350/350/350 351/351/351 352/352/352
f 351/351/351 353/353/353 352/352/352
f 352/352/352 353/353/353 354/354/354
f 353/353/353 355/355/355 354/354/354
f 354/354/354 355/355/355 356/356/356
f 355/355/355 357/357/357 356/356/356
f 356/356/356 357/357/357 358/358/358
f 357/357/357 359/359/359 358/358/358
f 358/358/358 359/359/359 360/360/360
f 359/359/359 361/361/361 360/360/360
f 360/360/360 361/361/361 362/362/362
f 361/361/361 363/363/363 362/362/362
f 362/362/362 363/363/363 364/364/364
f 363/363/363 365/365/365 364/364/364
f 364/364/364 365/365/365 366/366/366
f 365/365/365 367/367/367 366/366/366
f 366/366/366 367/367/367 368/368/368
f 367/367/367 369/369/369 368/368/368
f 368/368/368 369/369/369 370/370/370
f 371/371/371 368/368/368 370/370/370
f 371/371/371 370/370/370 324/324/324
f 370/370/370 322/322/322 324/324/324
f 374/374/374 373/373/373 372/372/372
f 372/372/372 373/373/373 375/375/375
f 376/376/376 374/374/374 372/372/372
f 377/377/377 372/372/372 375/375/375
f 378/378/378 374/374/374 376/376/376
f 377/377/377 375/375/375 379/379/379
f 380/380/380 378/378/378 376/376/376
f 375/375/375 381/381/381 379/379/379
f 382/382/382 378/378/378 380/380/380
f 379/379/379 381/381/381 383/383/383
f 384/384/384 382/382/382 380/380/380
f 381/381/381 385/385/385 383/383/383
f 386/386/386 382/382/382 384/384/384
f 383/383/383 385/385/385 387/387/387
f 388/388/388 386/386/386 384/384/384
f 385/385/385 389/389/389 387/387/387
f 390/390/390 386/386/386 388/388/388
f 387/387/387 389/389/389 391/391/391
f 392/392/392 390/390/390 388/388/388
f 389/389/389 393/393/393 391/391/391
f 394/394/394 390/390/390 392/392/392
f 395/395/395 394/394/394 392/392/392
f 396/396/396 394/394/394 395/395/395
f 397/397/397 396/396/396 395/395/395
f 398/398/398 396/396/396 397/397/397
f 399/399/399 398/398/398 397/397/397
f 400/400/400 398/398/398 399/399/399
f 401/401/401 400/400/400 399/399/399
f 402/402/402 400/400/400 401/401/401
f 403/403/403 402/402/402 401/401/401
f 404/404/404 402/402/402 403/403/403
f 405/405/405 404/404/404 403/403/403
f 406/406/406 404/404/404 405/405/405
f 407/407/407 406/406/406 405/405/405
f 408/408/408 406/406/406 407/407/407
f 409/409/409 408/408/408 407/407/407
f 410/410/410 408/408/408 409/409/409
f 411/411/411 410/410/410 409/409/409
f 412/412/412 410/410/410 411/411/411
f 413/413/413 412/412/412 411/411/411
f 414/414/414 412/412/412 413/413/413
f 415/415/415 414/414/414 413/413/413
f 416/416/416 414/414/414 415/415/415
f 417/417/417 416/416/416 415/415/415
f 418/418/418 416/416/416 417/417/417
f 419/419/419 418/418/418 417/417/417
f 420/420/420 418/418/418 419/419/419
f 421/421/421 420/420/420 419/419/419
f 422/422/422 420/420/420 421/421/421
f 423/423/423 422/422/422 421/421/421
f 424/424/424 422/422/422 423/423/423
f 425/425/425 424/424/424 423/423/423
f 426/426/426 424/424/424 425/425/425
f 427/427/427 426/426/426 425/425/425
f 428/428/428 426/426/426 427/427/427
f 429/429/429 428/428/428 427/427/427
f 430/430/430 428/428/428 429/429/429
f 431/431/431 430/430/430 429/429/429
f 432/432/432 430/430/430 431/431/431
f 433/433/433 432/432/432 431/431/431
f 433/433/433 434/434/434 432/432/432
f 434/434/434 435/435/435 432/432/432
f 393/393/393 435/435/435 434/434/434
f 391/391/391 393/393/393 434/434/434
f 438/438/438 437/437/437 436/436/436
f 439/439/439 438/438/438 436/436/436
f 436/436/436 437/437/437 440/440/440
f 441/441/441 438/438/438 439/439/439
f 437/437/437 442/442/442 440/440/440
f 443/443/443 441/441/441 439/439/439
f 440/440/440 442/442/442 444/444/444
f 445/445/445 441/441/441 443/443/443
f 442/442/442 446/446/446 444/444/444
f 447/447/447 445/445/445 443/443/443
f 444/444/444 446/446/446 448/448/448
f 449/449/449 445/445/445 447/447/447
f 446/446/446 450/450/450 448/448/448
f 451/451/451 449/449/449 447/447/447
f 448/448/448 450/450/450 452/452/452
f 453/453/453 449/449/449 451/451/451
f 450/450/450 454/454/454 452/452/452
f 455/455/455 453/453/453 451/451/451
f 452/452/452 454/454/454 456/456/456
f 457/457/457 453/453/453 455/455/455
f 454/454/454 458/458/458 456/456/456
f 459/459/459 457/457/457 455/455/455
f 456/456/456 458/458/458 460/460/460
f 461/461/461 457/457/457 459/459/459
f 458/458/458 462/462/462 460/460/460
f 463/463/463 461/461/461 459/459/459
f 460/460/460 462/462/462 464/464/464
f 465/465/465 461/461/461 463/463/463
f 462/462/462 466/466/466 464/464/464
f 467/467/467 465/465/465 463/463/463
f 464/464/464 466/466/466 467/467/467
f 466/466/466 465/465/465 467/467/467

