mtllib Cabinet_1a1e75af.mtl
g Mesh_e667aae4
v -0.00369 -0.83116 -0.49396
v -0.01515 -0.83116 -0.49028
v -0.00369 -0.83461 -0.49028
v -0.00369 0 -0.49028
v -0.01515 -0.00344 -0.49028
v -0.00369 -0.00344 -0.49396
v -0.00369 0 0.49029
v -0.00369 -0.00344 0.49397
v -0.01515 -0.00344 0.49029
v -0.00369 -0.83461 0.49029
v -0.01515 -0.83116 0.49029
v -0.00369 -0.83116 0.49397
v 0.0037 0 0.49029
v 0.00806 -0.00344 0.49029
v 0.0037 -0.00344 0.49397
v 0.0037 0 -0.49028
v 0.0037 -0.00344 -0.49396
v 0.00806 -0.00344 -0.49028
v 0.0037 -0.83116 -0.49396
v 0.0037 -0.83461 -0.49028
v 0.00806 -0.83116 -0.49028
v 0.0037 -0.83461 0.49029
v 0.0037 -0.83116 0.49397
v 0.00806 -0.83116 0.49029
v -0.00369 -0.83461 0.49029
v 0.0037 -0.83461 0.49029
v 0.0037 -0.83461 -0.49028
v -0.00369 -0.83461 -0.49028
v -0.00369 -0.00344 0.49397
v 0.0037 -0.00344 0.49397
v 0.0037 -0.83116 0.49397
v -0.00369 -0.83116 0.49397
v -0.00369 0 -0.49028
v 0.0037 0 -0.49028
v 0.0037 0 0.49029
v -0.00369 0 0.49029
v -0.00369 -0.83116 -0.49396
v 0.0037 -0.83116 -0.49396
v 0.0037 -0.00344 -0.49396
v -0.00369 -0.00344 -0.49396
v 0.00806 -0.00344 -0.49028
v 0.00806 -0.83116 -0.49028
v 0.00806 -0.83116 0.49029
v 0.00806 -0.00344 0.49029
v -0.01515 -0.00344 0.49029
v -0.01515 -0.00344 -0.49028
v -0.00369 0 -0.49028
v -0.00369 0 0.49029
v -0.01515 -0.00344 -0.49028
v -0.01515 -0.83116 -0.49028
v -0.00369 -0.83116 -0.49396
v -0.00369 -0.00344 -0.49396
v -0.01515 -0.83116 -0.49028
v -0.01515 -0.83116 0.49029
v -0.00369 -0.83461 0.49029
v -0.00369 -0.83461 -0.49028
v -0.00369 -0.00344 0.49397
v -0.00369 -0.83116 0.49397
v -0.01515 -0.83116 0.49029
v -0.01515 -0.00344 0.49029
v 0.0037 0 0.49029
v 0.0037 0 -0.49028
v 0.00806 -0.00344 -0.49028
v 0.00806 -0.00344 0.49029
v 0.0037 -0.00344 -0.49396
v 0.0037 -0.83116 -0.49396
v 0.00806 -0.83116 -0.49028
v 0.00806 -0.00344 -0.49028
v 0.0037 -0.83461 -0.49028
v 0.0037 -0.83461 0.49029
v 0.00806 -0.83116 0.49029
v 0.00806 -0.83116 -0.49028
v 0.00806 -0.00344 0.49029
v 0.00806 -0.83116 0.49029
v 0.0037 -0.83116 0.49397
v 0.0037 -0.00344 0.49397
v -0.00369 -0.83116 0.49397
v 0.0037 -0.83116 0.49397
v 0.0037 -0.83461 0.49029
v -0.00369 -0.83461 0.49029
v 0.0037 -0.00344 0.49397
v -0.00369 -0.00344 0.49397
v -0.00369 0 0.49029
v 0.0037 0 0.49029
v -0.00369 -0.00344 -0.49396
v 0.0037 -0.00344 -0.49396
v 0.0037 0 -0.49028
v -0.00369 0 -0.49028
v 0.0037 -0.83116 -0.49396
v -0.00369 -0.83116 -0.49396
v -0.00369 -0.83461 -0.49028
v 0.0037 -0.83461 -0.49028
v -0.01515 -0.00344 0.49029
v -0.01515 -0.83116 0.49029
v -0.01515 -0.83116 -0.49028
v -0.01515 -0.00344 -0.49028
vn -0.2143622 -0.7123512 -0.6682848
vn -0.2143622 -0.7123512 -0.6682849
vn -0.2143622 -0.7123512 -0.6682849
vn -0.2143543 0.7123613 -0.6682767
vn -0.2143543 0.7123613 -0.6682767
vn -0.2143543 0.7123613 -0.6682765
vn -0.2143577 0.7123668 0.6682696
vn -0.2143577 0.7123668 0.6682696
vn -0.2143577 0.7123668 0.6682696
vn -0.2143625 -0.7123572 0.6682783
vn -0.2143626 -0.7123572 0.6682784
vn -0.2143626 -0.7123572 0.6682783
vn 0.5000278 0.631603 0.5924946
vn 0.5000278 0.6316029 0.5924946
vn 0.5000278 0.631603 0.5924946
vn 0.5000179 0.6316072 -0.5924985
vn 0.5000179 0.6316072 -0.5924985
vn 0.5000179 0.6316072 -0.5924985
vn 0.5000265 -0.6315783 -0.5925221
vn 0.5000264 -0.6315783 -0.5925221
vn 0.5000264 -0.6315783 -0.5925222
vn 0.5000211 -0.6315946 0.5925092
vn 0.5000212 -0.6315946 0.5925092
vn 0.5000212 -0.6315946 0.5925092
vn 0 -1 0
vn 0 -1 0
vn 0 -1 0
vn 0 -1 0
vn 0 0 1
vn 0 0 1
vn 0 0 1
vn 0 0 1
vn 0 1 0
vn 0 1 0
vn 0 1 0
vn 0 1 0
vn 0 0 -1
vn 0 0 -1
vn 0 0 -1
vn 0 0 -1
vn 1 7.219201E-07 0
vn 1 7.219201E-07 0
vn 1 7.219201E-07 0
vn 1 7.2192E-07 0
vn -0.2881512 0.957585 0
vn -0.2881466 0.9575863 0
vn -0.2881466 0.9575863 0
vn -0.2881512 0.9575849 0
vn -0.3054307 -2.297628E-07 -0.9522143
vn -0.305438 -2.297682E-07 -0.952212
vn -0.3054379 -2.297682E-07 -0.952212
vn -0.3054306 -2.297627E-07 -0.9522143
vn -0.2881587 -0.9575827 0
vn -0.2881541 -0.957584 0
vn -0.2881542 -0.957584 0
vn -0.2881587 -0.9575827 0
vn -0.3054467 -2.297615E-07 0.9522092
vn -0.3054363 -2.297683E-07 0.9522126
vn -0.3054364 -2.297683E-07 0.9522125
vn -0.3054467 -2.297615E-07 0.9522091
vn 0.6207172 0.7840346 0
vn 0.6207172 0.7840346 0
vn 0.6207172 0.7840346 0
vn 0.6207172 0.7840346 0
vn 0.6449419 4.837446E-07 -0.7642317
vn 0.6449353 1.617193E-07 -0.7642372
vn 0.6449354 1.631376E-07 -0.7642372
vn 0.6449419 4.85163E-07 -0.7642316
vn 0.620704 -0.7840449 0
vn 0.620704 -0.784045 0
vn 0.620704 -0.7840449 0
vn 0.620704 -0.784045 0
vn 0.6449397 3.234427E-07 0.7642335
vn 0.6449572 3.234308E-07 0.7642187
vn 0.6449571 3.234308E-07 0.7642187
vn 0.6449396 3.234427E-07 0.7642335
vn 0 -0.7293206 0.684172
vn 0 -0.7293206 0.684172
vn 0 -0.7293206 0.684172
vn 0 -0.7293206 0.684172
vn 0 0.7293258 0.6841666
vn 0 0.7293258 0.6841666
vn 0 0.7293258 0.6841666
vn 0 0.7293258 0.6841666
vn 0 0.7293125 -0.6841807
vn 0 0.7293066 -0.6841871
vn 0 0.7293102 -0.6841831
vn 0 0.7293162 -0.6841767
vn 0 -0.729311 -0.6841822
vn 0 -0.729311 -0.6841822
vn 0 -0.729311 -0.6841822
vn 0 -0.729311 -0.6841822
vn -1 -8.551586E-07 0
vn -1 -9.625601E-07 0
vn -1 -8.293214E-07 0
vn -1 -7.219201E-07 0
vt 0.7232126 -0.1972921
vt 0.7232126 -0.1837073
vt 0.7188544 -0.1972921
vt 0.1662759 -0.1972888
vt 0.1619197 -0.1837099
vt 0.1619197 -0.1972888
vt 0.1662759 -0.1972889
vt 0.1619197 -0.1972889
vt 0.1619197 -0.1837098
vt 0.7188544 -0.1972921
vt 0.7232126 -0.1837073
vt 0.7232126 -0.1972921
vt 0.1664103 -0.195409
vt 0.1617853 -0.2008884
vt 0.1617853 -0.195409
vt 0.1664123 -0.1954065
vt 0.1617831 -0.1954065
vt 0.1617834 -0.2008909
vt 0.7233449 -0.1954103
vt 0.7187221 -0.1954103
vt 0.7233449 -0.2008877
vt 0.7187221 -0.1954103
vt 0.7233449 -0.1954103
vt 0.7233449 -0.2008877
vt 0.2278025 -0.191517
vt 0.2278025 -0.1989077
vt -0.7527806 -0.1989077
vt -0.7527806 -0.1915169
vt 0.3698922 -0.1916329
vt 0.3698922 -0.198791
vt -0.4847609 -0.1987914
vt -0.4847609 -0.1916336
vt 0.2472282 -0.1915165
vt 0.2472282 -0.1989075
vt 1.227794 -0.1989077
vt 1.227794 -0.1915167
vt 0.5152403 -0.1916336
vt 0.5152403 -0.1987914
vt 1.369891 -0.1987912
vt 1.369891 -0.191633
vt 0.2626736 0.2856575
vt 0.2626736 1.140306
vt 1.212348 1.140306
vt 1.212348 0.2856573
vt 0.2385371 -0.184644
vt -0.7635154 -0.1846438
vt -0.7635154 -0.1963548
vt 0.2385371 -0.1963548
vt 0.3804812 -0.1848122
vt -0.4953499 -0.184813
vt -0.4953499 -0.1961869
vt 0.3804812 -0.1961861
vt 0.2364878 -0.1846443
vt 1.238534 -0.1846443
vt 1.238534 -0.1963551
vt 0.2364878 -0.1963551
vt 0.3804818 -0.1961861
vt -0.4953505 -0.1961869
vt -0.4953505 -0.184813
vt 0.3804818 -0.1848122
vt 0.2912299 -0.1956891
vt -0.8162079 -0.1956891
vt -0.8162081 -0.2006083
vt 0.2912299 -0.2006083
vt 0.4313845 -0.1957357
vt -0.5462535 -0.1957362
vt -0.5462535 -0.200562
vt 0.4313847 -0.2005612
vt 0.1838086 -0.1956893
vt 1.291213 -0.1956893
vt 1.291213 -0.2006085
vt 0.1838086 -0.2006087
vt 0.4313871 -0.2005612
vt -0.5462559 -0.2005621
vt -0.5462559 -0.1957362
vt 0.4313871 -0.1957357
vt 0.7231855 -0.1908862
vt 0.7231855 -0.1995385
vt 0.7188815 -0.1995385
vt 0.7188815 -0.1908862
vt 0.1619458 -0.1995385
vt 0.1619458 -0.1908856
vt 0.1662498 -0.1908856
vt 0.1662498 -0.1995385
vt 0.1619458 -0.1908857
vt 0.1619456 -0.1995384
vt 0.1662496 -0.1995384
vt 0.1662499 -0.1908857
vt 0.7231855 -0.1995385
vt 0.7231855 -0.1908862
vt 0.7188815 -0.1908862
vt 0.7188815 -0.1995385
vt 0.2123482 0.2856574
vt 0.2123485 1.140306
vt -0.7373266 1.140306
vt -0.7373266 0.2856576
usemtl LightWoodCounters3
f 3/3/3 2/2/2 1/1/1
f 6/6/6 5/5/5 4/4/4
f 9/9/9 8/8/8 7/7/7
f 12/12/12 11/11/11 10/10/10
f 15/15/15 14/14/14 13/13/13
f 18/18/18 17/17/17 16/16/16
f 21/21/21 20/20/20 19/19/19
f 24/24/24 23/23/23 22/22/22
f 27/27/27 26/26/26 25/25/25
f 28/28/28 27/27/27 25/25/25
f 31/31/31 30/30/30 29/29/29
f 32/32/32 31/31/31 29/29/29
f 35/35/35 34/34/34 33/33/33
f 36/36/36 35/35/35 33/33/33
f 39/39/39 38/38/38 37/37/37
f 40/40/40 39/39/39 37/37/37
f 43/43/43 42/42/42 41/41/41
f 44/44/44 43/43/43 41/41/41
f 47/47/47 46/46/46 45/45/45
f 48/48/48 47/47/47 45/45/45
f 51/51/51 50/50/50 49/49/49
f 52/52/52 51/51/51 49/49/49
f 55/55/55 54/54/54 53/53/53
f 56/56/56 55/55/55 53/53/53
f 59/59/59 58/58/58 57/57/57
f 60/60/60 59/59/59 57/57/57
f 63/63/63 62/62/62 61/61/61
f 64/64/64 63/63/63 61/61/61
f 67/67/67 66/66/66 65/65/65
f 68/68/68 67/67/67 65/65/65
f 71/71/71 70/70/70 69/69/69
f 72/72/72 71/71/71 69/69/69
f 75/75/75 74/74/74 73/73/73
f 76/76/76 75/75/75 73/73/73
f 79/79/79 78/78/78 77/77/77
f 80/80/80 79/79/79 77/77/77
f 83/83/83 82/82/82 81/81/81
f 84/84/84 83/83/83 81/81/81
f 87/87/87 86/86/86 85/85/85
f 88/88/88 87/87/87 85/85/85
f 91/91/91 90/90/90 89/89/89
f 92/92/92 91/91/91 89/89/89
f 95/95/95 94/94/94 93/93/93
f 96/96/96 95/95/95 93/93/93
g handle_1_600mm_01_5b1ab7f6
v -0.28699 0.00201 0
v -0.28791 0.00262 0.03038
v -0.28791 0.00262 0
v -0.28699 0.00201 0.03038
v -0.28638 0.00109 0
v -0.28638 0.00109 0.03038
v -0.28616 0 0
v -0.28616 0 0.03038
v -0.28638 -0.00108 0
v -0.28638 -0.00108 0.03038
v -0.28699 -0.002 0
v -0.28699 -0.002 0.03038
v -0.28791 -0.00261 0
v -0.28791 -0.00261 0.03038
v -0.28791 0.00262 0
v -0.28791 0.00262 0.03038
v -0.28899 0.00284 0.03038
v -0.28899 0.00284 0
v -0.29008 0.00262 0.03038
v -0.29008 0.00262 0
v -0.29008 0.00262 0
v -0.29008 0.00262 0.03038
v -0.291 0.00201 0.03038
v -0.291 0.00201 0
v -0.29161 0.00109 0.03038
v -0.29161 0.00109 0
v -0.29183 1E-05 0.03038
v -0.29183 1E-05 0
v -0.29161 -0.00108 0.03038
v -0.29161 -0.00108 0
v -0.291 -0.002 0.03038
v -0.291 -0.002 0
v -0.29008 -0.00261 0.03038
v -0.29008 -0.00261 0
v -0.29008 -0.00261 0
v -0.29008 -0.00261 0.03038
v -0.28899 -0.00283 0.03038
v -0.28899 -0.00283 0
v -0.28791 -0.00261 0.03038
v -0.28791 -0.00261 0
v 0.29016 0.00201 0
v 0.28925 0.00262 0.03038
v 0.28925 0.00262 0
v 0.29016 0.00201 0.03038
v 0.29078 0.00109 0
v 0.29078 0.00109 0.03038
v 0.29099 0 0
v 0.29099 0 0.03038
v 0.29078 -0.00108 0
v 0.29078 -0.00108 0.03038
v 0.29016 -0.002 0
v 0.29016 -0.002 0.03038
v 0.28925 -0.00261 0
v 0.28925 -0.00261 0.03038
v 0.28925 0.00262 0
v 0.28925 0.00262 0.03038
v 0.28816 0.00284 0.03038
v 0.28816 0.00284 0
v 0.28708 0.00262 0.03038
v 0.28708 0.00262 0
v 0.28708 0.00262 0
v 0.28708 0.00262 0.03038
v 0.28616 0.00201 0.03038
v 0.28616 0.00201 0
v 0.28555 0.00109 0.03038
v 0.28555 0.00109 0
v 0.28533 0 0.03038
v 0.28533 0 0
v 0.28555 -0.00108 0.03038
v 0.28555 -0.00108 0
v 0.28616 -0.002 0.03038
v 0.28616 -0.002 0
v 0.28708 -0.00261 0.03038
v 0.28708 -0.00261 0
v 0.28708 -0.00261 0
v 0.28708 -0.00261 0.03038
v 0.28816 -0.00283 0.03038
v 0.28816 -0.00283 0
v 0.28925 -0.00261 0.03038
v 0.28925 -0.00261 0
v -0.29906 0.00184 0.02934
v 0.29907 0.00184 0.02934
v 0.29907 0.00339 0.03038
v -0.29906 0.00339 0.03038
v 0.29907 0.00443 0.03193
v -0.29906 0.00443 0.03193
v 0.29907 0.00479 0.03377
v -0.29906 0.00479 0.03377
v 0.29907 0.00443 0.0356
v -0.29906 0.00443 0.0356
v 0.29907 0.00339 0.03715
v -0.29906 0.00339 0.03715
v 0.29907 0.00184 0.03819
v -0.29906 0.00184 0.03819
v -0.29906 0.00184 0.03819
v 0.29907 0.00184 0.03819
v 0.29907 0 0.03855
v -0.29906 1E-05 0.03855
v 0.29907 -0.00183 0.03819
v -0.29906 -0.00183 0.03819
v -0.29906 -0.00183 0.03819
v 0.29907 -0.00183 0.03819
v 0.29907 -0.00338 0.03715
v -0.29906 -0.00338 0.03715
v 0.29907 -0.00442 0.0356
v -0.29906 -0.00442 0.0356
v 0.29907 -0.00478 0.03377
v -0.29906 -0.00478 0.03377
v 0.29907 -0.00442 0.03193
v -0.29906 -0.00442 0.03193
v 0.29907 -0.00338 0.03038
v -0.29906 -0.00338 0.03038
v 0.29907 -0.00183 0.02934
v -0.29906 -0.00183 0.02934
v -0.29906 -0.00183 0.02934
v 0.29907 -0.00183 0.02934
v 0.29907 0 0.02898
v -0.29906 0 0.02898
v 0.29907 0.00184 0.02934
v -0.29906 0.00184 0.02934
v -0.28791 0.00262 0
v -0.28899 0.00284 0
v -0.28899 0 0
v -0.28699 0.00201 0
v -0.29008 0.00262 0
v -0.28638 0.00109 0
v -0.291 0.00201 0
v -0.28616 0 0
v -0.29161 0.00109 0
v -0.28638 -0.00108 0
v -0.29183 1E-05 0
v -0.28699 -0.002 0
v -0.29161 -0.00108 0
v -0.28791 -0.00261 0
v -0.291 -0.002 0
v -0.28899 -0.00283 0
v -0.29008 -0.00261 0
v 0.28925 0.00262 0
v 0.28816 0.00284 0
v 0.28816 0 0
v 0.29016 0.00201 0
v 0.28708 0.00262 0
v 0.29078 0.00109 0
v 0.28616 0.00201 0
v 0.29099 0 0
v 0.28555 0.00109 0
v 0.29078 -0.00108 0
v 0.28533 0 0
v 0.29016 -0.002 0
v 0.28555 -0.00108 0
v 0.28925 -0.00261 0
v 0.28616 -0.002 0
v 0.28816 -0.00283 0
v 0.28708 -0.00261 0
v -0.29999 0.00354 0.0323
v -0.29999 0.00383 0.03377
v -0.29999 0 0.03377
v -0.29999 0.00271 0.03106
v -0.29999 0.00354 0.03523
v -0.29999 0.00147 0.03023
v -0.29999 0.00271 0.03647
v -0.29999 0 0.02994
v -0.29999 0.00147 0.0373
v -0.29999 -0.00146 0.03023
v -0.29999 1E-05 0.0376
v -0.29999 -0.0027 0.03106
v -0.29999 -0.00146 0.0373
v -0.29999 -0.00353 0.0323
v -0.29999 -0.0027 0.03647
v -0.29999 -0.00382 0.03377
v -0.29999 -0.00353 0.03523
v 0.3 0 0.03377
v 0.3 0.00383 0.03377
v 0.3 0.00354 0.0323
v 0.3 0.00271 0.03106
v 0.3 0.00354 0.03523
v 0.3 0.00147 0.03023
v 0.3 0.00271 0.03647
v 0.3 0 0.02994
v 0.3 0.00147 0.0373
v 0.3 -0.00146 0.03023
v 0.3 0 0.0376
v 0.3 -0.0027 0.03106
v 0.3 -0.00146 0.0373
v 0.3 -0.00353 0.0323
v 0.3 -0.0027 0.03647
v 0.3 -0.00382 0.03377
v 0.3 -0.00353 0.03523
v -0.29999 0.00147 0.03023
v -0.29999 0 0.02994
v -0.29906 0 0.02898
v -0.29906 0.00184 0.02934
v -0.29906 -0.00183 0.02934
v -0.29999 0.00271 0.03106
v -0.29999 -0.00146 0.03023
v -0.29906 0.00339 0.03038
v -0.29906 -0.00338 0.03038
v -0.29999 0.00354 0.0323
v -0.29999 -0.0027 0.03106
v -0.29906 0.00443 0.03193
v -0.29906 -0.00442 0.03193
v -0.29999 0.00383 0.03377
v -0.29999 -0.00353 0.0323
v -0.29906 0.00479 0.03377
v -0.29906 -0.00478 0.03377
v -0.29999 0.00354 0.03523
v -0.29999 -0.00382 0.03377
v -0.29906 0.00443 0.0356
v -0.29906 -0.00442 0.0356
v -0.29999 0.00271 0.03647
v -0.29999 -0.00353 0.03523
v -0.29906 0.00339 0.03715
v -0.29906 -0.00338 0.03715
v -0.29999 0.00147 0.0373
v -0.29999 -0.0027 0.03647
v -0.29906 0.00184 0.03819
v -0.29906 -0.00183 0.03819
v -0.29999 1E-05 0.0376
v -0.29999 -0.00146 0.0373
v -0.29906 1E-05 0.03855
v 0.3 0.00147 0.03023
v 0.3 0.00271 0.03106
v 0.29907 0.00339 0.03038
v 0.29907 0.00184 0.02934
v 0.29907 0.00443 0.03193
v 0.3 0 0.02994
v 0.3 0.00354 0.0323
v 0.29907 0 0.02898
v 0.29907 0.00479 0.03377
v 0.3 -0.00146 0.03023
v 0.3 0.00383 0.03377
v 0.29907 -0.00183 0.02934
v 0.29907 0.00443 0.0356
v 0.3 -0.0027 0.03106
v 0.3 0.00354 0.03523
v 0.29907 -0.00338 0.03038
v 0.29907 0.00339 0.03715
v 0.3 -0.00353 0.0323
v 0.3 0.00271 0.03647
v 0.29907 -0.00442 0.03193
v 0.29907 0.00184 0.03819
v 0.3 -0.00382 0.03377
v 0.3 0.00147 0.0373
v 0.29907 -0.00478 0.03377
v 0.29907 0 0.03855
v 0.3 -0.00353 0.03523
v 0.3 0 0.0376
v 0.29907 -0.00442 0.0356
v 0.29907 -0.00183 0.03819
v 0.3 -0.0027 0.03647
v 0.3 -0.00146 0.0373
v 0.29907 -0.00338 0.03715
vn 0.7071069 0.7071066 0
vn 0.3826838 0.9238794 0
vn 0.3826838 0.9238794 0
vn 0.7071069 0.7071066 0
vn 0.9238799 0.3826826 0
vn 0.9238799 0.3826826 0
vn 1 -7.27853E-07 0
vn 1 -7.27853E-07 0
vn 0.9238794 -0.3826836 0
vn 0.9238794 -0.3826836 0
vn 0.7071068 -0.7071068 0
vn 0.7071068 -0.7071068 0
vn 0.3826835 -0.9238795 0
vn 0.3826835 -0.9238795 0
vn 0.3826838 0.9238794 0
vn 0.3826838 0.9238794 0
vn 5.548973E-07 1 0
vn 5.548973E-07 1 0
vn -0.3826829 0.9238797 0
vn -0.3826829 0.9238797 0
vn -0.3826829 0.9238797 0
vn -0.3826829 0.9238797 0
vn -0.7071066 0.7071069 0
vn -0.7071066 0.7071069 0
vn -0.9238791 0.3826843 0
vn -0.9238791 0.3826843 0
vn -1 0 0
vn -1 0 0
vn -0.9238794 -0.3826836 0
vn -0.9238794 -0.3826836 0
vn -0.7071072 -0.7071062 0
vn -0.7071072 -0.7071062 0
vn -0.3826836 -0.9238794 0
vn -0.3826836 -0.9238794 0
vn -0.3826836 -0.9238794 0
vn -0.3826836 -0.9238794 0
vn 0 -1 0
vn 0 -1 0
vn 0.3826835 -0.9238795 0
vn 0.3826835 -0.9238795 0
vn 0.7071062 0.7071072 0
vn 0.3826788 0.9238814 0
vn 0.3826788 0.9238814 0
vn 0.7071062 0.7071072 0
vn 0.9238794 0.3826839 0
vn 0.9238794 0.3826839 0
vn 1 0 0
vn 1 0 0
vn 0.9238794 -0.3826837 0
vn 0.9238794 -0.3826837 0
vn 0.7071061 -0.7071075 0
vn 0.7071061 -0.7071075 0
vn 0.3826784 -0.9238815 0
vn 0.3826784 -0.9238815 0
vn 0.3826788 0.9238814 0
vn 0.3826788 0.9238814 0
vn 5.548954E-07 1 0
vn 5.548954E-07 1 0
vn -0.3826862 0.9238784 0
vn -0.3826862 0.9238784 0
vn -0.3826862 0.9238784 0
vn -0.3826862 0.9238784 0
vn -0.7071059 0.7071077 0
vn -0.7071059 0.7071077 0
vn -0.9238794 0.3826837 0
vn -0.9238794 0.3826837 0
vn -1 0 0
vn -1 0 0
vn -0.9238794 -0.3826836 0
vn -0.9238794 -0.3826836 0
vn -0.7071062 -0.7071073 0
vn -0.7071062 -0.7071073 0
vn -0.3826868 -0.9238781 0
vn -0.3826868 -0.9238781 0
vn -0.3826868 -0.9238781 0
vn -0.3826868 -0.9238781 0
vn 0 -1 0
vn 0 -1 0
vn 0.3826784 -0.9238815 0
vn 0.3826784 -0.9238815 0
vn 0 0.3826846 -0.923879
vn 0 0.3826846 -0.923879
vn 0 0.7071053 -0.7071082
vn 0 0.7071053 -0.7071082
vn 0 0.9238791 -0.3826843
vn 0 0.9238791 -0.3826843
vn 0 1 -7.82635E-07
vn 0 1 -7.82635E-07
vn 0 0.9238794 0.3826838
vn 0 0.9238794 0.3826838
vn 0 0.7071068 0.7071068
vn 0 0.7071068 0.7071068
vn 0 0.3826868 0.9238782
vn 0 0.3826868 0.9238782
vn 0 0.3826868 0.9238782
vn 0 0.3826868 0.9238782
vn 0 0 1
vn 0 0 1
vn 0 -0.3826865 0.9238782
vn 0 -0.3826865 0.9238782
vn 0 -0.3826865 0.9238782
vn 0 -0.3826865 0.9238782
vn 0 -0.7071066 0.7071069
vn 0 -0.7071066 0.7071069
vn 0 -0.9238792 0.3826843
vn 0 -0.9238792 0.3826843
vn 0 -1 1.731502E-07
vn 0 -1 1.731502E-07
vn 0 -0.9238792 -0.3826843
vn 0 -0.9238792 -0.3826843
vn 0 -0.7071081 -0.7071054
vn 0 -0.7071081 -0.7071054
vn 0 -0.3826844 -0.9238791
vn 0 -0.3826844 -0.9238791
vn 0 -0.3826844 -0.9238791
vn 0 -0.3826844 -0.9238791
vn 0 0 -1
vn 0 0 -1
vn 0 0.3826846 -0.923879
vn 0 0.3826846 -0.923879
vn 4.858396E-07 0 -1
vn -4.858396E-07 0 -1
vn 0 0 -1
vn 7.287596E-07 0 -1
vn -1.457519E-06 0 -1
vn 9.716803E-07 0 -1
vn -7.287595E-07 0 -1
vn 4.8584E-07 0 -1
vn 0 0 -1
vn 0 0 -1
vn -4.858396E-07 0 -1
vn 0 0 -1
vn -9.716797E-07 0 -1
vn 0 0 -1
vn -3.643796E-07 0 -1
vn 1.214599E-07 0 -1
vn 2.429198E-07 0 -1
vn 4.858377E-07 0 -1
vn -4.858369E-07 0 -1
vn 0 0 -1
vn 7.287554E-07 0 -1
vn -1.457521E-06 0 -1
vn 9.716714E-07 0 -1
vn -7.287652E-07 0 -1
vn 4.858355E-07 0 -1
vn 0 0 -1
vn 0 0 -1
vn -4.858446E-07 0 -1
vn 0 0 -1
vn -9.716891E-07 0 -1
vn 0 0 -1
vn -3.643804E-07 0 -1
vn 1.214595E-07 0 -1
vn 2.429202E-07 0 -1
vn -1 0 0
vn -1 0 0
vn -1 0 0
vn -1 0 0
vn -1 0 0
vn -1 0 0
vn -1 0 0
vn -1 0 0
vn -1 0 0
vn -1 0 0
vn -1 0 0
vn -1 0 0
vn -1 0 0
vn -1 0 0
vn -1 0 0
vn -1 0 0
vn -1 0 0
vn 1 0 0
vn 1 0 0
vn 1 0 0
vn 1 0 0
vn 1 0 0
vn 1 0 0
vn 1 0 0
vn 1 0 0
vn 1 0 0
vn 1 0 0
vn 1 0 0
vn 1 0 0
vn 1 0 0
vn 1 0 0
vn 1 0 0
vn 1 0 0
vn 1 0 0
vn -0.7139327 0.2679621 -0.6469129
vn -0.7139323 0 -0.7002147
vn -0.7139323 0 -0.7002147
vn -0.7139328 0.2679617 -0.6469131
vn -0.7139328 -0.2679617 -0.6469129
vn -0.7139329 0.4951251 -0.4951272
vn -0.7139329 -0.267962 -0.6469128
vn -0.7139329 0.4951251 -0.4951272
vn -0.7139334 -0.4951269 -0.4951247
vn -0.7139331 0.6469132 -0.2679606
vn -0.7139333 -0.4951271 -0.4951246
vn -0.713933 0.6469131 -0.2679613
vn -0.7139329 -0.6469129 -0.2679615
vn -0.7139327 0.7002143 -4.802083E-07
vn -0.713933 -0.6469132 -0.2679606
vn -0.7139327 0.7002143 -5.22476E-07
vn -0.7139328 -0.7002141 0
vn -0.7139329 0.6469135 0.2679602
vn -0.7139328 -0.7002141 0
vn -0.7139329 0.6469131 0.2679611
vn -0.7139328 -0.646913 0.2679614
vn -0.7139328 0.4951269 0.4951256
vn -0.7139328 -0.6469134 0.2679605
vn -0.7139327 0.4951268 0.4951258
vn -0.7139327 -0.4951267 0.4951259
vn -0.7139319 0.2679631 0.6469135
vn -0.7139327 -0.4951267 0.4951259
vn -0.7139319 0.2679632 0.6469134
vn -0.7139319 -0.2679629 0.6469135
vn -0.7139328 0 0.7002143
vn -0.7139319 -0.2679628 0.6469135
vn -0.7139327 0 0.7002143
vn 0.7139283 0.2679664 -0.6469161
vn 0.7139286 0.4951292 -0.4951292
vn 0.7139286 0.4951293 -0.4951292
vn 0.7139283 0.2679661 -0.6469162
vn 0.7139231 0.646923 -0.2679633
vn 0.7139284 -5.276096E-06 -0.7002187
vn 0.7139232 0.6469233 -0.2679626
vn 0.7139284 -5.283592E-06 -0.7002187
vn 0.713916 0.7002314 5.077576E-07
vn 0.7139253 -0.267981 -0.6469133
vn 0.713916 0.7002313 5.540859E-07
vn 0.7139252 -0.2679806 -0.6469136
vn 0.713928 0.6469173 0.267964
vn 0.7139305 -0.4951285 -0.4951272
vn 0.7139281 0.6469177 0.2679632
vn 0.7139306 -0.4951284 -0.4951273
vn 0.7139295 0.495129 0.4951281
vn 0.7139281 -0.6469175 -0.2679636
vn 0.7139295 0.495129 0.495128
vn 0.7139282 -0.6469172 -0.2679644
vn 0.7139264 0.2679711 0.6469161
vn 0.7139141 -0.7002332 -9.542611E-07
vn 0.7139264 0.267971 0.6469161
vn 0.713914 -0.7002332 -9.713659E-07
vn 0.7139288 0 0.7002184
vn 0.713923 -0.6469235 0.2679626
vn 0.7139288 0 0.7002184
vn 0.7139229 -0.6469232 0.2679635
vn 0.7139286 -0.2679614 0.6469177
vn 0.7139295 -0.4951285 0.4951285
vn 0.7139287 -0.2679613 0.6469178
vn 0.7139295 -0.4951285 0.4951286
vt -10.06229 0.8671157
vt -9.995514 0.8657663
vt -10.06229 0.8657663
vt -9.995514 0.8671157
vt -10.06229 0.8691347
vt -9.995514 0.8691347
vt -10.06229 0.8715169
vt -9.995514 0.8715169
vt -10.06229 0.8738983
vt -9.995514 0.8738983
vt -10.06229 0.8759172
vt -9.995514 0.8759172
vt -10.06229 0.8772666
vt -9.995514 0.8772666
vt -9.998951 0.8559978
vt -10.05886 0.8559978
vt -10.05886 0.858134
vt -9.998951 0.858135
vt -10.05886 0.8602712
vt -9.998951 0.8602712
vt -9.995514 0.8392112
vt -10.06229 0.8392112
vt -10.06229 0.8405607
vt -9.995514 0.8405607
vt -10.06229 0.8425786
vt -9.995514 0.8425786
vt -10.06229 0.8449609
vt -9.995514 0.8449609
vt -10.06229 0.8473432
vt -9.995514 0.8473432
vt -10.06229 0.8493621
vt -9.995514 0.8493621
vt -10.06229 0.8507106
vt -9.995514 0.8507106
vt -10.05886 0.8337162
vt -9.998951 0.8337162
vt -9.998951 0.8315799
vt -10.05886 0.8315799
vt -9.998951 0.8294427
vt -10.05886 0.8294427
vt -10.06229 0.8140056
vt -9.995513 0.8126571
vt -10.06229 0.8126571
vt -9.995513 0.8140056
vt -10.06229 0.8160245
vt -9.995513 0.8160245
vt -10.06229 0.8184059
vt -9.995513 0.8184059
vt -10.06229 0.8207881
vt -9.995513 0.8207881
vt -10.06229 0.8228071
vt -9.995513 0.8228071
vt -10.06229 0.8241565
vt -9.995513 0.8241565
vt -9.998951 0.8028877
vt -10.05886 0.8028877
vt -10.05886 0.8050249
vt -9.998951 0.8050249
vt -10.05886 0.8071611
vt -9.998951 0.8071611
vt -9.995514 0.7861021
vt -10.06229 0.7861011
vt -10.06229 0.7874506
vt -9.995514 0.7874506
vt -10.06229 0.7894695
vt -9.995514 0.7894695
vt -10.06229 0.7918518
vt -9.995514 0.7918518
vt -10.06229 0.7942331
vt -9.995514 0.7942331
vt -10.06229 0.796252
vt -9.995514 0.796252
vt -10.06229 0.7976015
vt -9.995514 0.7976015
vt -10.05886 0.780607
vt -9.998951 0.780607
vt -9.998951 0.7784698
vt -10.05886 0.7784698
vt -9.998951 0.7763326
vt -10.05886 0.7763326
vt -8.898719 0.926233
vt -10.21366 0.9262331
vt -10.21366 0.9285142
vt -8.898719 0.9285142
vt -10.21366 0.9319284
vt -8.898719 0.9319283
vt -10.21366 0.9359558
vt -8.898719 0.9359557
vt -10.21366 0.9399831
vt -8.898719 0.9399831
vt -10.21366 0.9433982
vt -8.898719 0.9433982
vt -10.21366 0.9456794
vt -8.898719 0.9456794
vt -8.966389 0.9152362
vt -10.14599 0.9152362
vt -10.14599 0.9188497
vt -8.966389 0.9188496
vt -10.14599 0.9224632
vt -8.966389 0.9224631
vt -8.898722 0.8924195
vt -10.21365 0.8924196
vt -10.21365 0.8947008
vt -8.898722 0.8947007
vt -10.21365 0.8981159
vt -8.898722 0.8981158
vt -10.21365 0.9021432
vt -8.898722 0.9021422
vt -10.21365 0.9061697
vt -8.898722 0.9061696
vt -10.21365 0.9095848
vt -8.898722 0.9095847
vt -10.21365 0.9118659
vt -8.898722 0.9118659
vt -8.966413 0.8815991
vt -10.14596 0.8815992
vt -10.14596 0.8852127
vt -8.966413 0.8852126
vt -10.14596 0.8888261
vt -8.966413 0.8888261
vt -10.05459 0.7167938
vt -10.05501 0.718909
vt -10.04948 0.718909
vt -10.05339 0.7149999
vt -10.05459 0.7210252
vt -10.0516 0.7138002
vt -10.05339 0.7228181
vt -10.04948 0.7133796
vt -10.0516 0.7240179
vt -10.04737 0.7138002
vt -10.04948 0.7244384
vt -10.04557 0.7149999
vt -10.04737 0.7240179
vt -10.04437 0.7167938
vt -10.04557 0.7228181
vt -10.04395 0.718909
vt -10.04437 0.7210252
vt -10.05459 0.7008607
vt -10.05501 0.702976
vt -10.04948 0.702976
vt -10.05339 0.6990669
vt -10.05459 0.7050922
vt -10.0516 0.6978672
vt -10.05339 0.7068861
vt -10.04948 0.6974466
vt -10.0516 0.7080858
vt -10.04737 0.6978672
vt -10.04948 0.7085063
vt -10.04557 0.6990669
vt -10.04737 0.7080858
vt -10.04437 0.7008607
vt -10.04557 0.7068861
vt -10.04395 0.702976
vt -10.04437 0.7050922
vt -10.03882 0.7647483
vt -10.03821 0.7616804
vt -10.04622 0.7616804
vt -10.04055 0.76735
vt -10.03882 0.7586114
vt -10.04316 0.7690885
vt -10.04055 0.7560098
vt -10.04622 0.7696989
vt -10.04316 0.7542713
vt -10.04929 0.7690885
vt -10.04622 0.7536609
vt -10.05189 0.76735
vt -10.04929 0.7542713
vt -10.05363 0.7647483
vt -10.05189 0.7560098
vt -10.05424 0.7616804
vt -10.05363 0.7586114
vt -10.04622 0.7386663
vt -10.03821 0.7386663
vt -10.03882 0.7355983
vt -10.04055 0.7329967
vt -10.03882 0.7417343
vt -10.04316 0.7312582
vt -10.04055 0.7443368
vt -10.04622 0.7306478
vt -10.04316 0.7460744
vt -10.04929 0.7312582
vt -10.04622 0.7466848
vt -10.05189 0.7329967
vt -10.04929 0.7460744
vt -10.05363 0.7355983
vt -10.05189 0.7443368
vt -10.05424 0.7386663
vt -10.05363 0.7417343
vt -10.04316 0.7690885
vt -10.04622 0.7696989
vt -10.04622 0.7717035
vt -10.04239 0.7709396
vt -10.05006 0.7709396
vt -10.04055 0.76735
vt -10.04929 0.7690885
vt -10.03914 0.7687671
vt -10.05331 0.7687671
vt -10.03882 0.7647483
vt -10.05189 0.76735
vt -10.03696 0.765516
vt -10.05548 0.765516
vt -10.03821 0.7616804
vt -10.05363 0.7647483
vt -10.0362 0.7616804
vt -10.05625 0.7616804
vt -10.03882 0.7586114
vt -10.05424 0.7616804
vt -10.03696 0.7578447
vt -10.05548 0.7578447
vt -10.04055 0.7560098
vt -10.05363 0.7586114
vt -10.03914 0.7545927
vt -10.05331 0.7545927
vt -10.04316 0.7542713
vt -10.05189 0.7560098
vt -10.04239 0.7524202
vt -10.05006 0.7524202
vt -10.04622 0.7536609
vt -10.04929 0.7542713
vt -10.04622 0.7516572
vt -10.04316 0.7312582
vt -10.04055 0.7329967
vt -10.03914 0.7315795
vt -10.04239 0.7294061
vt -10.03696 0.7348306
vt -10.04622 0.7306478
vt -10.03882 0.7355983
vt -10.04622 0.7286432
vt -10.0362 0.7386663
vt -10.04929 0.7312582
vt -10.03821 0.7386663
vt -10.05006 0.7294061
vt -10.03696 0.742502
vt -10.05189 0.7329967
vt -10.03882 0.7417343
vt -10.05331 0.7315795
vt -10.03914 0.745754
vt -10.05363 0.7355983
vt -10.04055 0.7443368
vt -10.05548 0.7348306
vt -10.04239 0.7479265
vt -10.05424 0.7386663
vt -10.04316 0.7460744
vt -10.05625 0.7386663
vt -10.04622 0.7486894
vt -10.05363 0.7417343
vt -10.04622 0.7466848
vt -10.05548 0.742502
vt -10.05006 0.7479265
vt -10.05189 0.7443368
vt -10.04929 0.7460744
vt -10.05331 0.745754
usemtl HammeredMetal_Dark
f 99/99/99 98/98/98 97/97/97
f 98/98/98 100/100/100 97/97/97
f 97/97/97 100/100/100 101/101/101
f 100/100/100 102/102/102 101/101/101
f 101/101/101 102/102/102 103/103/103
f 102/102/102 104/104/104 103/103/103
f 103/103/103 104/104/104 105/105/105
f 104/104/104 106/106/106 105/105/105
f 105/105/105 106/106/106 107/107/107
f 106/106/106 108/108/108 107/107/107
f 107/107/107 108/108/108 109/109/109
f 108/108/108 110/110/110 109/109/109
f 113/113/113 112/112/112 111/111/111
f 114/114/114 113/113/113 111/111/111
f 115/115/115 113/113/113 114/114/114
f 116/116/116 115/115/115 114/114/114
f 119/119/119 118/118/118 117/117/117
f 120/120/120 119/119/119 117/117/117
f 121/121/121 119/119/119 120/120/120
f 122/122/122 121/121/121 120/120/120
f 123/123/123 121/121/121 122/122/122
f 124/124/124 123/123/123 122/122/122
f 125/125/125 123/123/123 124/124/124
f 126/126/126 125/125/125 124/124/124
f 127/127/127 125/125/125 126/126/126
f 128/128/128 127/127/127 126/126/126
f 129/129/129 127/127/127 128/128/128
f 130/130/130 129/129/129 128/128/128
f 133/133/133 132/132/132 131/131/131
f 134/134/134 133/133/133 131/131/131
f 135/135/135 133/133/133 134/134/134
f 136/136/136 135/135/135 134/134/134
f 139/139/139 138/138/138 137/137/137
f 138/138/138 140/140/140 137/137/137
f 137/137/137 140/140/140 141/141/141
f 140/140/140 142/142/142 141/141/141
f 141/141/141 142/142/142 143/143/143
f 142/142/142 144/144/144 143/143/143
f 143/143/143 144/144/144 145/145/145
f 144/144/144 146/146/146 145/145/145
f 145/145/145 146/146/146 147/147/147
f 146/146/146 148/148/148 147/147/147
f 147/147/147 148/148/148 149/149/149
f 148/148/148 150/150/150 149/149/149
f 153/153/153 152/152/152 151/151/151
f 154/154/154 153/153/153 151/151/151
f 155/155/155 153/153/153 154/154/154
f 156/156/156 155/155/155 154/154/154
f 159/159/159 158/158/158 157/157/157
f 160/160/160 159/159/159 157/157/157
f 161/161/161 159/159/159 160/160/160
f 162/162/162 161/161/161 160/160/160
f 163/163/163 161/161/161 162/162/162
f 164/164/164 163/163/163 162/162/162
f 165/165/165 163/163/163 164/164/164
f 166/166/166 165/165/165 164/164/164
f 167/167/167 165/165/165 166/166/166
f 168/168/168 167/167/167 166/166/166
f 169/169/169 167/167/167 168/168/168
f 170/170/170 169/169/169 168/168/168
f 173/173/173 172/172/172 171/171/171
f 174/174/174 173/173/173 171/171/171
f 175/175/175 173/173/173 174/174/174
f 176/176/176 175/175/175 174/174/174
f 179/179/179 178/178/178 177/177/177
f 180/180/180 179/179/179 177/177/177
f 181/181/181 179/179/179 180/180/180
f 182/182/182 181/181/181 180/180/180
f 183/183/183 181/181/181 182/182/182
f 184/184/184 183/183/183 182/182/182
f 185/185/185 183/183/183 184/184/184
f 186/186/186 185/185/185 184/184/184
f 187/187/187 185/185/185 186/186/186
f 188/188/188 187/187/187 186/186/186
f 189/189/189 187/187/187 188/188/188
f 190/190/190 189/189/189 188/188/188
f 193/193/193 192/192/192 191/191/191
f 194/194/194 193/193/193 191/191/191
f 195/195/195 193/193/193 194/194/194
f 196/196/196 195/195/195 194/194/194
f 199/199/199 198/198/198 197/197/197
f 200/200/200 199/199/199 197/197/197
f 201/201/201 199/199/199 200/200/200
f 202/202/202 201/201/201 200/200/200
f 203/203/203 201/201/201 202/202/202
f 204/204/204 203/203/203 202/202/202
f 205/205/205 203/203/203 204/204/204
f 206/206/206 205/205/205 204/204/204
f 207/207/207 205/205/205 206/206/206
f 208/208/208 207/207/207 206/206/206
f 209/209/209 207/207/207 208/208/208
f 210/210/210 209/209/209 208/208/208
f 213/213/213 212/212/212 211/211/211
f 214/214/214 213/213/213 211/211/211
f 215/215/215 213/213/213 214/214/214
f 216/216/216 215/215/215 214/214/214
f 219/219/219 218/218/218 217/217/217
f 220/220/220 219/219/219 217/217/217
f 218/218/218 219/219/219 221/221/221
f 219/219/219 220/220/220 222/222/222
f 219/219/219 223/223/223 221/221/221
f 224/224/224 219/219/219 222/222/222
f 223/223/223 219/219/219 225/225/225
f 219/219/219 224/224/224 226/226/226
f 219/219/219 227/227/227 225/225/225
f 228/228/228 219/219/219 226/226/226
f 227/227/227 219/219/219 229/229/229
f 219/219/219 228/228/228 230/230/230
f 219/219/219 231/231/231 229/229/229
f 232/232/232 219/219/219 230/230/230
f 231/231/231 219/219/219 233/233/233
f 219/219/219 232/232/232 233/233/233
f 236/236/236 235/235/235 234/234/234
f 237/237/237 236/236/236 234/234/234
f 235/235/235 236/236/236 238/238/238
f 236/236/236 237/237/237 239/239/239
f 236/236/236 240/240/240 238/238/238
f 241/241/241 236/236/236 239/239/239
f 240/240/240 236/236/236 242/242/242
f 236/236/236 241/241/241 243/243/243
f 236/236/236 244/244/244 242/242/242
f 245/245/245 236/236/236 243/243/243
f 244/244/244 236/236/236 246/246/246
f 236/236/236 245/245/245 247/247/247
f 236/236/236 248/248/248 246/246/246
f 249/249/249 236/236/236 247/247/247
f 248/248/248 236/236/236 250/250/250
f 236/236/236 249/249/249 250/250/250
f 253/253/253 252/252/252 251/251/251
f 254/254/254 253/253/253 251/251/251
f 252/252/252 253/253/253 255/255/255
f 253/253/253 254/254/254 256/256/256
f 253/253/253 257/257/257 255/255/255
f 258/258/258 253/253/253 256/256/256
f 257/257/257 253/253/253 259/259/259
f 253/253/253 258/258/258 260/260/260
f 253/253/253 261/261/261 259/259/259
f 262/262/262 253/253/253 260/260/260
f 261/261/261 253/253/253 263/263/263
f 253/253/253 262/262/262 264/264/264
f 253/253/253 265/265/265 263/263/263
f 266/266/266 253/253/253 264/264/264
f 265/265/265 253/253/253 267/267/267
f 253/253/253 266/266/266 267/267/267
f 270/270/270 269/269/269 268/268/268
f 271/271/271 270/270/270 268/268/268
f 269/269/269 272/272/272 268/268/268
f 273/273/273 271/271/271 268/268/268
f 272/272/272 274/274/274 268/268/268
f 275/275/275 273/273/273 268/268/268
f 274/274/274 276/276/276 268/268/268
f 277/277/277 275/275/275 268/268/268
f 276/276/276 278/278/278 268/268/268
f 279/279/279 277/277/277 268/268/268
f 278/278/278 280/280/280 268/268/268
f 281/281/281 279/279/279 268/268/268
f 280/280/280 282/282/282 268/268/268
f 283/283/283 281/281/281 268/268/268
f 282/282/282 284/284/284 268/268/268
f 284/284/284 283/283/283 268/268/268
f 287/287/287 286/286/286 285/285/285
f 288/288/288 287/287/287 285/285/285
f 286/286/286 287/287/287 289/289/289
f 285/285/285 290/290/290 288/288/288
f 291/291/291 286/286/286 289/289/289
f 290/290/290 292/292/292 288/288/288
f 291/291/291 289/289/289 293/293/293
f 290/290/290 294/294/294 292/292/292
f 295/295/295 291/291/291 293/293/293
f 294/294/294 296/296/296 292/292/292
f 295/295/295 293/293/293 297/297/297
f 294/294/294 298/298/298 296/296/296
f 299/299/299 295/295/295 297/297/297
f 298/298/298 300/300/300 296/296/296
f 299/299/299 297/297/297 301/301/301
f 298/298/298 302/302/302 300/300/300
f 303/303/303 299/299/299 301/301/301
f 302/302/302 304/304/304 300/300/300
f 303/303/303 301/301/301 305/305/305
f 302/302/302 306/306/306 304/304/304
f 307/307/307 303/303/303 305/305/305
f 306/306/306 308/308/308 304/304/304
f 307/307/307 305/305/305 309/309/309
f 306/306/306 310/310/310 308/308/308
f 311/311/311 307/307/307 309/309/309
f 310/310/310 312/312/312 308/308/308
f 311/311/311 309/309/309 313/313/313
f 310/310/310 314/314/314 312/312/312
f 315/315/315 311/311/311 313/313/313
f 314/314/314 316/316/316 312/312/312
f 315/315/315 313/313/313 316/316/316
f 314/314/314 315/315/315 316/316/316
f 319/319/319 318/318/318 317/317/317
f 320/320/320 319/319/319 317/317/317
f 319/319/319 321/321/321 318/318/318
f 317/317/317 322/322/322 320/320/320
f 321/321/321 323/323/323 318/318/318
f 322/322/322 324/324/324 320/320/320
f 321/321/321 325/325/325 323/323/323
f 324/324/324 322/322/322 326/326/326
f 325/325/325 327/327/327 323/323/323
f 328/328/328 324/324/324 326/326/326
f 325/325/325 329/329/329 327/327/327
f 328/328/328 326/326/326 330/330/330
f 329/329/329 331/331/331 327/327/327
f 332/332/332 328/328/328 330/330/330
f 329/329/329 333/333/333 331/331/331
f 332/332/332 330/330/330 334/334/334
f 333/333/333 335/335/335 331/331/331
f 336/336/336 332/332/332 334/334/334
f 333/333/333 337/337/337 335/335/335
f 336/336/336 334/334/334 338/338/338
f 337/337/337 339/339/339 335/335/335
f 340/340/340 336/336/336 338/338/338
f 337/337/337 341/341/341 339/339/339
f 340/340/340 338/338/338 342/342/342
f 341/341/341 343/343/343 339/339/339
f 344/344/344 340/340/340 342/342/342
f 341/341/341 345/345/345 343/343/343
f 344/344/344 342/342/342 346/346/346
f 345/345/345 347/347/347 343/343/343
f 348/348/348 344/344/344 346/346/346
f 348/348/348 346/346/346 347/347/347
f 345/345/345 348/348/348 347/347/347
