mtllib Cabinet_b97fbe1d.mtl
g DoorMesh_01_3cc28078
v -0.395 -0.37279 -0.00779
v -0.39279 -0.375 -0.00779
v -0.39279 -0.37279 -0.01
v -0.39279 0.3728 -0.01
v -0.39279 0.375 -0.00779
v -0.39499 0.3728 -0.00779
v -0.0022 0.3728 -0.00999
v 0 0.3728 -0.00779
v -0.0022 0.375 -0.00779
v -0.0022 -0.37279 -0.00999
v -0.0022 -0.375 -0.00779
v 0 -0.37279 -0.00779
v -0.39279 -0.37279 0.01
v -0.39279 -0.375 0.0078
v -0.395 -0.37279 0.0078
v -0.39279 0.375 0.0078
v -0.39279 0.3728 0.01
v -0.39499 0.3728 0.0078
v 0 0.3728 0.0078
v -0.0022 0.3728 0.01001
v -0.0022 0.375 0.0078
v -0.0022 -0.375 0.0078
v -0.0022 -0.37279 0.01001
v 0 -0.37279 0.0078
v -0.0022 -0.2872 0.01001
v -0.0022 -0.37279 0.01001
v -0.0878 -0.37279 0.01001
v -0.0878 -0.2872 0.01001
v -0.0022 -0.28279 0.01001
v -0.0922 -0.2872 0.01001
v -0.0922 -0.37279 0.01001
v -0.30279 -0.37279 0.01
v -0.0878 -0.28279 0.01001
v -0.0878 0.2828 0.01001
v -0.0022 0.2828 0.01001
v -0.0022 0.28721 0.01001
v -0.0878 0.28721 0.01001
v -0.0022 0.3728 0.01001
v -0.0878 0.3728 0.01001
v -0.0922 0.3728 0.01001
v -0.0922 0.2828 0.01001
v -0.0922 -0.28279 0.01001
v -0.30279 -0.2872 0.01
v -0.0922 0.28721 0.01001
v -0.30279 -0.28279 0.01
v -0.3072 -0.2872 0.01
v -0.3072 -0.37279 0.01
v -0.39279 -0.37279 0.01
v -0.3928 -0.2872 0.01
v -0.3072 -0.28279 0.01
v -0.3928 -0.2828 0.01
v -0.39279 0.2828 0.01
v -0.3028 0.28721 0.01
v -0.3028 0.3728 0.01
v -0.3072 0.3728 0.01
v -0.3072 0.2828 0.01
v -0.3028 0.2828 0.01
v -0.3072 0.28721 0.01
v -0.39279 0.28721 0.01
v -0.39279 0.3728 0.01
v -0.3072 0.3728 -0.01
v -0.39279 0.3728 -0.01
v -0.39279 0.28721 -0.01
v -0.3072 0.28721 -0.01
v -0.3028 0.3728 -0.01
v -0.3072 0.2828 -0.01
v -0.39279 0.2828 -0.01
v -0.3928 -0.2828 -0.01
v -0.3028 0.28721 -0.01
v -0.0922 0.28721 -0.00999
v -0.0922 0.3728 -0.00999
v -0.0878 0.3728 -0.00999
v -0.0878 0.28721 -0.00999
v -0.0022 0.3728 -0.00999
v -0.0022 0.28721 -0.00999
v -0.0022 0.2828 -0.00999
v -0.0922 0.2828 -0.00999
v -0.3028 0.2828 -0.01
v -0.3072 -0.28279 -0.01
v -0.0878 0.2828 -0.00999
v -0.30279 -0.28279 -0.01
v -0.3072 -0.2872 -0.01
v -0.3928 -0.2872 -0.01
v -0.39279 -0.37279 -0.01
v -0.3072 -0.37279 -0.01
v -0.30279 -0.2872 -0.01
v -0.30279 -0.37279 -0.01
v -0.0922 -0.37279 -0.00999
v -0.0878 -0.28279 -0.00999
v -0.0022 -0.2828 -0.00999
v -0.0022 -0.2872 -0.00999
v -0.0922 -0.2872 -0.00999
v -0.0922 -0.28279 -0.00999
v -0.0878 -0.2872 -0.00999
v -0.0878 -0.37279 -0.00999
v -0.0022 -0.37279 -0.00999
v -0.39279 -0.375 -0.00779
v -0.39279 -0.375 0.0078
v -0.3072 -0.375 0.0078
v -0.3072 -0.375 -0.00779
v -0.30279 -0.375 -0.00779
v -0.30279 -0.375 0.0078
v -0.0922 -0.375 0.0078
v -0.0922 -0.375 -0.00779
v -0.0878 -0.375 -0.00779
v -0.0878 -0.375 0.0078
v -0.0022 -0.375 0.0078
v -0.0022 -0.375 -0.00779
v 0 -0.37279 -0.00779
v 0 -0.37279 0.0078
v 0 -0.2872 0.0078
v 0 -0.2872 -0.00779
v 0 -0.2828 -0.00779
v 0 -0.28279 0.0078
v 0 0.2828 0.0078
v 0 0.2828 -0.00779
v 0 0.28721 -0.00779
v 0 0.28721 0.0078
v 0 0.3728 0.0078
v 0 0.3728 -0.00779
v -0.0022 0.375 -0.00779
v -0.0022 0.375 0.0078
v -0.0878 0.375 0.0078
v -0.0878 0.375 -0.00779
v -0.0922 0.375 -0.00779
v -0.0922 0.375 0.0078
v -0.3028 0.375 0.0078
v -0.3028 0.375 -0.00779
v -0.3072 0.375 -0.00779
v -0.3072 0.375 0.0078
v -0.39279 0.375 0.0078
v -0.39279 0.375 -0.00779
v -0.39499 0.3728 -0.00779
v -0.39499 0.3728 0.0078
v -0.39499 0.28721 0.0078
v -0.39499 0.28721 -0.00779
v -0.39499 0.2828 -0.00779
v -0.39499 0.2828 0.0078
v -0.395 -0.2828 0.0078
v -0.395 -0.2828 -0.00779
v -0.395 -0.2872 -0.00779
v -0.395 -0.2872 0.0078
v -0.395 -0.37279 0.0078
v -0.395 -0.37279 -0.00779
v 0 0.28721 0.0078
v -0.0022 0.3728 0.01001
v 0 0.3728 0.0078
v -0.0022 0.28721 0.01001
v -0.0022 0.2828 0.01001
v 0 0.2828 0.0078
v 0 -0.28279 0.0078
v -0.0022 -0.28279 0.01001
v 0 -0.2872 0.0078
v -0.0022 -0.2872 0.01001
v 0 -0.37279 0.0078
v -0.0022 -0.37279 0.01001
v -0.0878 0.3728 0.01001
v -0.0022 0.375 0.0078
v -0.0022 0.3728 0.01001
v -0.0878 0.375 0.0078
v -0.0922 0.3728 0.01001
v -0.0922 0.375 0.0078
v -0.3028 0.3728 0.01
v -0.3028 0.375 0.0078
v -0.3072 0.375 0.0078
v -0.3072 0.3728 0.01
v -0.39279 0.3728 0.01
v -0.39279 0.375 0.0078
v -0.39279 0.28721 0.01
v -0.39499 0.3728 0.0078
v -0.39279 0.3728 0.01
v -0.39499 0.28721 0.0078
v -0.39499 0.2828 0.0078
v -0.39279 0.2828 0.01
v -0.3928 -0.2828 0.01
v -0.395 -0.2828 0.0078
v -0.395 -0.2872 0.0078
v -0.3928 -0.2872 0.01
v -0.39279 -0.37279 0.01
v -0.395 -0.37279 0.0078
v -0.0878 -0.375 0.0078
v -0.0022 -0.37279 0.01001
v -0.0022 -0.375 0.0078
v -0.0878 -0.37279 0.01001
v -0.0922 -0.375 0.0078
v -0.0922 -0.37279 0.01001
v -0.30279 -0.375 0.0078
v -0.30279 -0.37279 0.01
v -0.3072 -0.375 0.0078
v -0.3072 -0.37279 0.01
v -0.39279 -0.375 0.0078
v -0.39279 -0.37279 0.01
v -0.395 -0.37279 0.0078
v -0.39279 -0.375 0.0078
v -0.39279 -0.375 -0.00779
v -0.395 -0.37279 -0.00779
v -0.3072 -0.375 -0.00779
v -0.39279 -0.37279 -0.01
v -0.39279 -0.375 -0.00779
v -0.3072 -0.37279 -0.01
v -0.30279 -0.375 -0.00779
v -0.30279 -0.37279 -0.01
v -0.0922 -0.375 -0.00779
v -0.0922 -0.37279 -0.00999
v -0.0878 -0.37279 -0.00999
v -0.0878 -0.375 -0.00779
v -0.0022 -0.375 -0.00779
v -0.0022 -0.37279 -0.00999
v -0.0022 -0.375 0.0078
v 0 -0.37279 0.0078
v 0 -0.37279 -0.00779
v -0.0022 -0.375 -0.00779
v 0 -0.2872 -0.00779
v -0.0022 -0.37279 -0.00999
v 0 -0.37279 -0.00779
v -0.0022 -0.2872 -0.00999
v 0 -0.2828 -0.00779
v -0.0022 -0.2828 -0.00999
v 0 0.2828 -0.00779
v -0.0022 0.2828 -0.00999
v -0.0022 0.28721 -0.00999
v 0 0.28721 -0.00779
v 0 0.3728 -0.00779
v -0.0022 0.3728 -0.00999
v 0 0.3728 0.0078
v -0.0022 0.375 0.0078
v -0.0022 0.375 -0.00779
v 0 0.3728 -0.00779
v -0.0878 0.375 -0.00779
v -0.0022 0.3728 -0.00999
v -0.0022 0.375 -0.00779
v -0.0878 0.3728 -0.00999
v -0.0922 0.375 -0.00779
v -0.0922 0.3728 -0.00999
v -0.3028 0.375 -0.00779
v -0.3028 0.3728 -0.01
v -0.3072 0.3728 -0.01
v -0.3072 0.375 -0.00779
v -0.39279 0.375 -0.00779
v -0.39279 0.3728 -0.01
v -0.39279 0.375 0.0078
v -0.39499 0.3728 0.0078
v -0.39499 0.3728 -0.00779
v -0.39279 0.375 -0.00779
v -0.39499 0.28721 -0.00779
v -0.39279 0.28721 -0.01
v -0.39279 0.3728 -0.01
v -0.39499 0.3728 -0.00779
v -0.3928 -0.2872 -0.01
v -0.395 -0.37279 -0.00779
v -0.39279 -0.37279 -0.01
v -0.395 -0.2872 -0.00779
v -0.395 -0.2828 -0.00779
v -0.3928 -0.2828 -0.01
v -0.39279 0.2828 -0.01
v -0.39499 0.2828 -0.00779
v -0.39279 0.28721 -0.01
v -0.39499 0.28721 -0.00779
vn -0.5773484 -0.5773484 -0.577354
vn -0.5773484 -0.5773484 -0.5773541
vn -0.5773484 -0.5773484 -0.5773541
vn -0.5773427 0.5773655 -0.5773427
vn -0.5773426 0.5773654 -0.5773426
vn -0.5773426 0.5773654 -0.5773426
vn 0.5773768 0.5773427 -0.5773313
vn 0.5773768 0.5773427 -0.5773313
vn 0.5773767 0.5773427 -0.5773313
vn 0.5773787 -0.5773445 -0.5773275
vn 0.5773787 -0.5773446 -0.5773275
vn 0.5773787 -0.5773445 -0.5773275
vn -0.5773787 -0.5773332 0.5773389
vn -0.5773787 -0.5773332 0.5773389
vn -0.5773787 -0.5773332 0.5773389
vn -0.577373 0.5773503 0.5773275
vn -0.577373 0.5773503 0.5773275
vn -0.577373 0.5773503 0.5773275
vn 0.5773465 0.5773578 0.5773465
vn 0.5773465 0.5773578 0.5773465
vn 0.5773465 0.5773578 0.5773465
vn 0.5773483 -0.5773597 0.5773427
vn 0.5773484 -0.5773597 0.5773427
vn 0.5773484 -0.5773597 0.5773427
vn 0 0 1
vn 0 0 1
vn 0 0 1
vn 0 0 1
vn 0 0 1
vn -8.233326E-07 0 1
vn -6.7714E-07 0 1
vn 0 0 1
vn 0 0 1
vn 0 0 1
vn 0 0 1
vn 0 0 1
vn 0 0 1
vn 0 0 1
vn -1.66595E-06 0 1
vn 0 0 1
vn -8.198466E-07 0 1
vn -8.198467E-07 0 1
vn 0 0 1
vn 0 0 1
vn -8.198466E-07 0 1
vn 0 0 1
vn 0 0 1
vn 0 0 1
vn 0 0 1
vn 0 0 1
vn 1.307931E-06 0 1
vn 0 0 1
vn -6.771398E-07 0 1
vn 0 0 1
vn 0 0 1
vn 0 0 1
vn 0 0 1
vn 0 0 1
vn 0 0 1
vn 0 0 1
vn 0 0 -1
vn 0 0 -1
vn 0 0 -1
vn 0 0 -1
vn 0 0 -1
vn 0 0 -1
vn 0 0 -1
vn 6.776029E-07 0 -1
vn 0 0 -1
vn 6.771393E-07 0 -1
vn 0 0 -1
vn 0 0 -1
vn 0 0 -1
vn -1.041219E-06 0 -1
vn 0 0 -1
vn 0 0 -1
vn 8.198465E-07 0 -1
vn 8.198465E-07 0 -1
vn 0 0 -1
vn 0 0 -1
vn 8.198465E-07 0 -1
vn 0 0 -1
vn 5.206113E-07 0 -1
vn 0 0 -1
vn 0 0 -1
vn 0 0 -1
vn 6.7714E-07 0 -1
vn 0 0 -1
vn 0 0 -1
vn -6.776018E-07 0 -1
vn 0 0 -1
vn 0 0 -1
vn 0 0 -1
vn 0 0 -1
vn -2.603051E-07 0 -1
vn 0 0 -1
vn 0 -1 0
vn 0 -1 0
vn 0 -1 0
vn 0 -1 0
vn 0 -1 0
vn 0 -1 0
vn 0 -1 0
vn 0 -1 0
vn 0 -1 0
vn 0 -1 0
vn 0 -1 0
vn 0 -1 0
vn 1 0 0
vn 1 0 0
vn 1 0 0
vn 1 0 0
vn 1 0 0
vn 1 0 0
vn 1 0 0
vn 1 0 0
vn 1 0 0
vn 1 0 0
vn 1 0 0
vn 1 0 0
vn 0 1 0
vn 0 1 0
vn 0 1 0
vn 0 1 0
vn 3.548574E-07 1 0
vn 3.548574E-07 1 0
vn 3.548572E-07 1 0
vn 3.548573E-07 1 0
vn 0 1 0
vn 0 1 0
vn 0 1 0
vn 0 1 0
vn -1 0 0
vn -1 0 0
vn -1 0 0
vn -1 0 0
vn -1 5.117982E-07 0
vn -1 5.148108E-07 0
vn -1 3.462159E-07 0
vn -1 3.432034E-07 0
vn -1 -1.247224E-07 0
vn -1 0 0
vn -1 -1.011546E-06 0
vn -1 -1.14268E-06 0
vn 0.7071259 0 0.7070876
vn 0.7071261 0 0.7070873
vn 0.7071261 0 0.7070873
vn 0.7071258 0 0.7070876
vn 0.7070836 0 0.7071299
vn 0.7070833 0 0.7071301
vn 0.7071382 0 0.7070753
vn 0.7071384 0 0.7070751
vn 0.7071037 0 0.7071098
vn 0.7071047 0 0.7071088
vn 0.7071251 0 0.7070885
vn 0.7071255 0 0.707088
vn 0 0.7071459 0.7070677
vn 1.399155E-06 0.7071038 0.7071097
vn 1.43228E-06 0.7071028 0.7071107
vn 0 0.7071474 0.7070661
vn 0 0.7071317 0.7070817
vn 0 0.7071319 0.7070817
vn 0 0.7071136 0.7071
vn 0 0.7071134 0.7071001
vn 0 0.707102 0.7071115
vn 0 0.7071015 0.7071121
vn 0 0.7071227 0.7070909
vn 0 0.7071233 0.7070903
vn -0.7071388 6.653617E-07 0.7070748
vn -0.707102 0 0.7071115
vn -0.707101 0 0.7071124
vn -0.7071401 6.811134E-07 0.7070734
vn -0.7071034 2.154763E-07 0.70711
vn -0.7071032 2.150997E-07 0.7071103
vn -0.7071307 3.222602E-07 0.7070828
vn -0.7071309 3.226368E-07 0.7070826
vn -0.7070964 -6.811559E-07 0.7071171
vn -0.7070953 -6.811568E-07 0.7071182
vn -0.7071173 -7.161475E-07 0.7070962
vn -0.7071178 -7.16147E-07 0.7070957
vn 0 -0.70712 0.7070935
vn 0 -0.7071199 0.7070935
vn 0 -0.7071199 0.7070935
vn 0 -0.7071199 0.7070936
vn 0 -0.7071177 0.7070959
vn 0 -0.7071177 0.7070958
vn 0 -0.7071199 0.7070936
vn 0 -0.7071199 0.7070936
vn 0 -0.7071191 0.7070944
vn 0 -0.707119 0.7070945
vn 0 -0.7071193 0.7070943
vn 0 -0.7071193 0.7070942
vn -0.7071034 -0.7071102 0
vn -0.7071028 -0.7071107 0
vn -0.7071062 -0.7071072 0
vn -0.7071068 -0.7071068 0
vn 0 -0.7071192 -0.7070944
vn 0 -0.7071193 -0.7070943
vn 0 -0.7071193 -0.7070942
vn 0 -0.7071191 -0.7070944
vn 0 -0.7071177 -0.7070959
vn 0 -0.7071176 -0.707096
vn 0 -0.70712 -0.7070935
vn 0 -0.7071199 -0.7070935
vn 0 -0.7071199 -0.7070936
vn 0 -0.7071199 -0.7070935
vn 0 -0.7071199 -0.7070935
vn 0 -0.7071199 -0.7070935
vn 0.7071093 -0.7071043 0
vn 0.7071097 -0.7071038 0
vn 0.7071062 -0.7071072 0
vn 0.7071057 -0.7071078 0
vn 0.7071262 0 -0.7070873
vn 0.7071255 0 -0.7070879
vn 0.7071255 0 -0.707088
vn 0.7071257 0 -0.7070878
vn 0.7071384 0 -0.7070751
vn 0.7071383 0 -0.7070752
vn 0.7071111 0 -0.7071025
vn 0.7071109 0 -0.7071027
vn 0.7071466 0 -0.7070669
vn 0.7071476 0 -0.7070659
vn 0.7071043 0 -0.7071093
vn 0.7071032 0 -0.7071103
vn 0.7071093 0.7071043 0
vn 0.7071097 0.7071038 0
vn 0.7071062 0.7071072 0
vn 0.7071057 0.7071078 0
vn 1.330795E-06 0.7071264 -0.7070871
vn 0 0.7071257 -0.7070878
vn 0 0.7071257 -0.7070878
vn 1.362302E-06 0.7071258 -0.7070876
vn 0 0.7071134 -0.7071001
vn 0 0.7071134 -0.7071001
vn 0 0.7071314 -0.7070821
vn 0 0.7071316 -0.7070819
vn 0 0.7071228 -0.7070908
vn 0 0.7071233 -0.7070902
vn 0 0.7071008 -0.7071127
vn 0 0.7071003 -0.7071132
vn -0.7071034 0.7071102 0
vn -0.7071028 0.7071107 0
vn -0.7071062 0.7071072 0
vn -0.7071068 0.7071068 0
vn -0.7071171 0 -0.7070964
vn -0.7071175 0 -0.707096
vn -0.7071238 6.995893E-07 -0.7070897
vn -0.7071239 7.161532E-07 -0.7070895
vn -0.7070968 -6.811553E-07 -0.7071167
vn -0.7071397 -7.161249E-07 -0.7070737
vn -0.7071408 -7.16124E-07 -0.7070727
vn -0.7070953 -6.811568E-07 -0.7071182
vn -0.7071306 3.222602E-07 -0.7070829
vn -0.7071308 3.226369E-07 -0.7070827
vn -0.7071035 2.154763E-07 -0.70711
vn -0.7071034 2.150997E-07 -0.7071102
vn -0.7071175 0 -0.707096
vn -0.7071171 0 -0.7070964
vt 0.004990028 0.03014398
vt 0.004990028 0.02784389
vt 0.002689926 0.03014398
vt 0.002689926 0.8096524
vt 0.004990028 0.8119526
vt 0.004990028 0.8096524
vt 0.05341711 0.809651
vt 0.05111696 0.809651
vt 0.05111696 0.811951
vt 0.05341711 0.03014532
vt 0.05111696 0.02784526
vt 0.05111696 0.03014532
vt 0.02359953 0.03014398
vt 0.02129937 0.02784389
vt 0.02129937 0.03014398
vt 0.02129937 0.8119526
vt 0.02359953 0.8096524
vt 0.02129937 0.8096524
vt 0.03480768 0.809651
vt 0.03250753 0.809651
vt 0.03480768 0.811951
vt 0.03480768 0.02784526
vt 0.03250753 0.03014532
vt 0.03480768 0.03014532
vt 0.4745414 0.1302446
vt 0.4745414 0.04464462
vt 0.3889413 0.04464462
vt 0.3889413 0.1302446
vt 0.4745414 0.1346446
vt 0.3845413 0.1302446
vt 0.3845413 0.04464462
vt 0.1739414 0.04464462
vt 0.3889413 0.1346446
vt 0.3889413 0.7002446
vt 0.4745414 0.7002446
vt 0.4745414 0.7046447
vt 0.3889413 0.7046447
vt 0.4745414 0.7902445
vt 0.3889413 0.7902446
vt 0.3845413 0.7902446
vt 0.3845413 0.7002446
vt 0.3845413 0.1346446
vt 0.1739414 0.1302446
vt 0.3845413 0.7046447
vt 0.1739414 0.1346446
vt 0.1695414 0.1302446
vt 0.1695414 0.04464462
vt 0.08394141 0.04464462
vt 0.08394139 0.1302446
vt 0.1695414 0.1346446
vt 0.08394139 0.1346446
vt 0.08394161 0.7002446
vt 0.1739413 0.7046446
vt 0.1739413 0.7902446
vt 0.1695412 0.7902446
vt 0.1695412 0.7002446
vt 0.1739413 0.7002446
vt 0.1695412 0.7046446
vt 0.08394161 0.7046446
vt 0.08394161 0.7902446
vt 0.6118676 0.04464465
vt 0.526268 0.04464465
vt 0.526268 0.1302446
vt 0.6118676 0.1302446
vt 0.6162677 0.04464465
vt 0.6118676 0.1346447
vt 0.526268 0.1346447
vt 0.5262678 0.7002447
vt 0.6162677 0.1302446
vt 0.8268676 0.1302445
vt 0.8268676 0.04464465
vt 0.8312677 0.04464465
vt 0.8312677 0.1302445
vt 0.9168677 0.04464471
vt 0.9168677 0.1302445
vt 0.9168677 0.1346447
vt 0.8268676 0.1346447
vt 0.6162677 0.1346447
vt 0.6118678 0.7002446
vt 0.8312677 0.1346447
vt 0.6162677 0.7002446
vt 0.6118678 0.7046446
vt 0.5262678 0.7046446
vt 0.5262678 0.7902446
vt 0.6118678 0.7902446
vt 0.6162677 0.7046446
vt 0.6162677 0.7902446
vt 0.8268676 0.7902446
vt 0.8312677 0.7002446
vt 0.9168677 0.7002447
vt 0.9168677 0.7046446
vt 0.8268676 0.7046446
vt 0.8268676 0.7002446
vt 0.8312677 0.7046446
vt 0.8312677 0.7902446
vt 0.9168677 0.7902446
vt 0.9490876 0.4234893
vt 0.9653828 0.4234893
vt 0.9653828 0.3340741
vt 0.9490876 0.3340741
vt 0.9490876 0.329478
vt 0.9653828 0.329478
vt 0.9653829 0.1094916
vt 0.9490877 0.1094916
vt 0.9490877 0.1048955
vt 0.9653829 0.1048955
vt 0.9653829 0.01548
vt 0.9490877 0.01548
vt 0.05111696 0.03014532
vt 0.03480768 0.03014532
vt 0.03480768 0.1196379
vt 0.05111696 0.1196379
vt 0.05111696 0.124238
vt 0.03480768 0.124238
vt 0.03480768 0.7155584
vt 0.05111696 0.7155584
vt 0.05111696 0.7201585
vt 0.03480768 0.7201585
vt 0.03480768 0.809651
vt 0.05111696 0.809651
vt 0.9950027 0.01548046
vt 0.9787076 0.01548046
vt 0.9787076 0.1048956
vt 0.9950027 0.1048956
vt 0.9950027 0.1094917
vt 0.9787076 0.1094917
vt 0.9787077 0.3294777
vt 0.9950029 0.3294777
vt 0.9950029 0.3340739
vt 0.9787077 0.3340739
vt 0.9787077 0.4234886
vt 0.9950029 0.4234886
vt 0.004990028 0.8096524
vt 0.02129937 0.8096524
vt 0.02129937 0.7201596
vt 0.004990028 0.7201596
vt 0.004990028 0.7155594
vt 0.02129937 0.7155594
vt 0.02129937 0.1242369
vt 0.004990028 0.1242369
vt 0.004990028 0.1196368
vt 0.02129937 0.1196368
vt 0.02129937 0.03014398
vt 0.004990028 0.03014398
vt 0.03480768 0.7201585
vt 0.03250753 0.809651
vt 0.03480768 0.809651
vt 0.03250753 0.7201585
vt 0.03250753 0.7155584
vt 0.03480768 0.7155584
vt 0.03480768 0.124238
vt 0.03250753 0.124238
vt 0.03480768 0.1196379
vt 0.03250753 0.1196379
vt 0.03480768 0.03014532
vt 0.03250753 0.03014532
vt 0.9764094 0.1048956
vt 0.9787076 0.01548046
vt 0.9764094 0.01548046
vt 0.9787076 0.1048956
vt 0.9764094 0.1094917
vt 0.9787076 0.1094917
vt 0.9764095 0.3294777
vt 0.9787077 0.3294777
vt 0.9787077 0.3340739
vt 0.9764095 0.3340739
vt 0.9764095 0.4234886
vt 0.9787077 0.4234886
vt 0.02359953 0.7201596
vt 0.02129937 0.8096524
vt 0.02359953 0.8096524
vt 0.02129937 0.7201596
vt 0.02129937 0.7155594
vt 0.02359953 0.7155594
vt 0.02359953 0.1242369
vt 0.02129937 0.1242369
vt 0.02129937 0.1196368
vt 0.02359953 0.1196368
vt 0.02359953 0.03014398
vt 0.02129937 0.03014398
vt 0.9653829 0.1048955
vt 0.9676811 0.01548
vt 0.9653829 0.01548
vt 0.9676811 0.1048955
vt 0.9653829 0.1094916
vt 0.9676811 0.1094916
vt 0.9653828 0.329478
vt 0.9676809 0.329478
vt 0.9653828 0.3340741
vt 0.9676809 0.3340741
vt 0.9653828 0.4234893
vt 0.9676809 0.4234893
vt 0.02129937 0.03014398
vt 0.02129937 0.02784389
vt 0.004990028 0.02784389
vt 0.004990028 0.03014398
vt 0.9490876 0.3340741
vt 0.9467895 0.4234893
vt 0.9490876 0.4234893
vt 0.9467895 0.3340741
vt 0.9490876 0.329478
vt 0.9467895 0.329478
vt 0.9490877 0.1094916
vt 0.9467896 0.1094916
vt 0.9467896 0.1048955
vt 0.9490877 0.1048955
vt 0.9490877 0.01548
vt 0.9467896 0.01548
vt 0.03480768 0.02784526
vt 0.03480768 0.03014532
vt 0.05111696 0.03014532
vt 0.05111696 0.02784526
vt 0.05111696 0.1196379
vt 0.05341711 0.03014532
vt 0.05111696 0.03014532
vt 0.05341711 0.1196379
vt 0.05111696 0.124238
vt 0.05341711 0.124238
vt 0.05111696 0.7155584
vt 0.05341711 0.7155584
vt 0.05341711 0.7201585
vt 0.05111696 0.7201585
vt 0.05111696 0.809651
vt 0.05341711 0.809651
vt 0.03480768 0.809651
vt 0.03480768 0.811951
vt 0.05111696 0.811951
vt 0.05111696 0.809651
vt 0.9950027 0.1048956
vt 0.9973009 0.01548046
vt 0.9950027 0.01548046
vt 0.9973009 0.1048956
vt 0.9950027 0.1094917
vt 0.9973009 0.1094917
vt 0.9950029 0.3294777
vt 0.997301 0.3294777
vt 0.997301 0.3340739
vt 0.9950029 0.3340739
vt 0.9950029 0.4234886
vt 0.997301 0.4234886
vt 0.02129937 0.8119526
vt 0.02129937 0.8096524
vt 0.004990028 0.8096524
vt 0.004990028 0.8119526
vt 0.004990028 0.7201596
vt 0.002689926 0.7201596
vt 0.002689926 0.8096524
vt 0.004990028 0.8096524
vt 0.002689926 0.1196368
vt 0.004990028 0.03014398
vt 0.002689926 0.03014398
vt 0.004990028 0.1196368
vt 0.004990028 0.1242369
vt 0.002689926 0.1242369
vt 0.002689926 0.7155594
vt 0.004990028 0.7155594
vt 0.002689926 0.7201596
vt 0.004990028 0.7201596
usemtl WhitePlastic
f 3/3/3 2/2/2 1/1/1
f 6/6/6 5/5/5 4/4/4
f 9/9/9 8/8/8 7/7/7
f 12/12/12 11/11/11 10/10/10
f 15/15/15 14/14/14 13/13/13
f 18/18/18 17/17/17 16/16/16
f 21/21/21 20/20/20 19/19/19
f 24/24/24 23/23/23 22/22/22
f 27/27/27 26/26/26 25/25/25
f 28/28/28 27/27/27 25/25/25
f 25/25/25 29/29/29 28/28/28
f 27/27/27 28/28/28 30/30/30
f 31/31/31 27/27/27 30/30/30
f 31/31/31 30/30/30 32/32/32
f 29/29/29 33/33/33 28/28/28
f 30/30/30 28/28/28 33/33/33
f 34/34/34 33/33/33 29/29/29
f 35/35/35 34/34/34 29/29/29
f 35/35/35 36/36/36 34/34/34
f 36/36/36 37/37/37 34/34/34
f 37/37/37 36/36/36 38/38/38
f 39/39/39 37/37/37 38/38/38
f 39/39/39 40/40/40 37/37/37
f 33/33/33 34/34/34 41/41/41
f 41/41/41 34/34/34 37/37/37
f 42/42/42 30/30/30 33/33/33
f 42/42/42 33/33/33 41/41/41
f 30/30/30 43/43/43 32/32/32
f 30/30/30 42/42/42 43/43/43
f 40/40/40 44/44/44 37/37/37
f 44/44/44 41/41/41 37/37/37
f 45/45/45 42/42/42 41/41/41
f 42/42/42 45/45/45 43/43/43
f 32/32/32 43/43/43 46/46/46
f 47/47/47 32/32/32 46/46/46
f 48/48/48 47/47/47 46/46/46
f 49/49/49 48/48/48 46/46/46
f 50/50/50 46/46/46 43/43/43
f 49/49/49 46/46/46 50/50/50
f 45/45/45 50/50/50 43/43/43
f 51/51/51 49/49/49 50/50/50
f 52/52/52 51/51/51 50/50/50
f 44/44/44 40/40/40 53/53/53
f 40/40/40 54/54/54 53/53/53
f 54/54/54 55/55/55 53/53/53
f 56/56/56 50/50/50 45/45/45
f 56/56/56 52/52/52 50/50/50
f 44/44/44 53/53/53 57/57/57
f 57/57/57 56/56/56 45/45/45
f 57/57/57 53/53/53 56/56/56
f 41/41/41 44/44/44 57/57/57
f 57/57/57 45/45/45 41/41/41
f 52/52/52 56/56/56 58/58/58
f 53/53/53 58/58/58 56/56/56
f 55/55/55 58/58/58 53/53/53
f 59/59/59 52/52/52 58/58/58
f 59/59/59 58/58/58 55/55/55
f 60/60/60 59/59/59 55/55/55
f 63/63/63 62/62/62 61/61/61
f 64/64/64 63/63/63 61/61/61
f 61/61/61 65/65/65 64/64/64
f 63/63/63 64/64/64 66/66/66
f 67/67/67 63/63/63 66/66/66
f 67/67/67 66/66/66 68/68/68
f 65/65/65 69/69/69 64/64/64
f 66/66/66 64/64/64 69/69/69
f 70/70/70 69/69/69 65/65/65
f 71/71/71 70/70/70 65/65/65
f 71/71/71 72/72/72 70/70/70
f 72/72/72 73/73/73 70/70/70
f 73/73/73 72/72/72 74/74/74
f 75/75/75 73/73/73 74/74/74
f 75/75/75 76/76/76 73/73/73
f 69/69/69 70/70/70 77/77/77
f 77/77/77 70/70/70 73/73/73
f 78/78/78 66/66/66 69/69/69
f 78/78/78 69/69/69 77/77/77
f 66/66/66 79/79/79 68/68/68
f 66/66/66 78/78/78 79/79/79
f 76/76/76 80/80/80 73/73/73
f 80/80/80 77/77/77 73/73/73
f 81/81/81 78/78/78 77/77/77
f 78/78/78 81/81/81 79/79/79
f 68/68/68 79/79/79 82/82/82
f 83/83/83 68/68/68 82/82/82
f 84/84/84 83/83/83 82/82/82
f 85/85/85 84/84/84 82/82/82
f 86/86/86 82/82/82 79/79/79
f 85/85/85 82/82/82 86/86/86
f 81/81/81 86/86/86 79/79/79
f 87/87/87 85/85/85 86/86/86
f 88/88/88 87/87/87 86/86/86
f 80/80/80 76/76/76 89/89/89
f 76/76/76 90/90/90 89/89/89
f 90/90/90 91/91/91 89/89/89
f 92/92/92 86/86/86 81/81/81
f 92/92/92 88/88/88 86/86/86
f 80/80/80 89/89/89 93/93/93
f 93/93/93 92/92/92 81/81/81
f 93/93/93 89/89/89 92/92/92
f 77/77/77 80/80/80 93/93/93
f 93/93/93 81/81/81 77/77/77
f 88/88/88 92/92/92 94/94/94
f 89/89/89 94/94/94 92/92/92
f 91/91/91 94/94/94 89/89/89
f 95/95/95 88/88/88 94/94/94
f 95/95/95 94/94/94 91/91/91
f 96/96/96 95/95/95 91/91/91
f 99/99/99 98/98/98 97/97/97
f 100/100/100 99/99/99 97/97/97
f 100/100/100 101/101/101 99/99/99
f 101/101/101 102/102/102 99/99/99
f 102/102/102 101/101/101 103/103/103
f 101/101/101 104/104/104 103/103/103
f 104/104/104 105/105/105 103/103/103
f 105/105/105 106/106/106 103/103/103
f 107/107/107 106/106/106 105/105/105
f 108/108/108 107/107/107 105/105/105
f 111/111/111 110/110/110 109/109/109
f 112/112/112 111/111/111 109/109/109
f 112/112/112 113/113/113 111/111/111
f 113/113/113 114/114/114 111/111/111
f 114/114/114 113/113/113 115/115/115
f 113/113/113 116/116/116 115/115/115
f 116/116/116 117/117/117 115/115/115
f 117/117/117 118/118/118 115/115/115
f 119/119/119 118/118/118 117/117/117
f 120/120/120 119/119/119 117/117/117
f 123/123/123 122/122/122 121/121/121
f 124/124/124 123/123/123 121/121/121
f 124/124/124 125/125/125 123/123/123
f 125/125/125 126/126/126 123/123/123
f 126/126/126 125/125/125 127/127/127
f 125/125/125 128/128/128 127/127/127
f 128/128/128 129/129/129 127/127/127
f 129/129/129 130/130/130 127/127/127
f 131/131/131 130/130/130 129/129/129
f 132/132/132 131/131/131 129/129/129
f 135/135/135 134/134/134 133/133/133
f 136/136/136 135/135/135 133/133/133
f 136/136/136 137/137/137 135/135/135
f 137/137/137 138/138/138 135/135/135
f 139/139/139 138/138/138 137/137/137
f 140/140/140 139/139/139 137/137/137
f 140/140/140 141/141/141 139/139/139
f 141/141/141 142/142/142 139/139/139
f 143/143/143 142/142/142 141/141/141
f 144/144/144 143/143/143 141/141/141
f 147/147/147 146/146/146 145/145/145
f 146/146/146 148/148/148 145/145/145
f 145/145/145 148/148/148 149/149/149
f 150/150/150 145/145/145 149/149/149
f 150/150/150 149/149/149 151/151/151
f 149/149/149 152/152/152 151/151/151
f 151/151/151 152/152/152 153/153/153
f 152/152/152 154/154/154 153/153/153
f 155/155/155 153/153/153 154/154/154
f 156/156/156 155/155/155 154/154/154
f 159/159/159 158/158/158 157/157/157
f 158/158/158 160/160/160 157/157/157
f 161/161/161 157/157/157 160/160/160
f 162/162/162 161/161/161 160/160/160
f 163/163/163 161/161/161 162/162/162
f 164/164/164 163/163/163 162/162/162
f 164/164/164 165/165/165 163/163/163
f 165/165/165 166/166/166 163/163/163
f 167/167/167 166/166/166 165/165/165
f 168/168/168 167/167/167 165/165/165
f 171/171/171 170/170/170 169/169/169
f 170/170/170 172/172/172 169/169/169
f 172/172/172 173/173/173 169/169/169
f 173/173/173 174/174/174 169/169/169
f 175/175/175 174/174/174 173/173/173
f 176/176/176 175/175/175 173/173/173
f 176/176/176 177/177/177 175/175/175
f 177/177/177 178/178/178 175/175/175
f 179/179/179 178/178/178 177/177/177
f 180/180/180 179/179/179 177/177/177
f 183/183/183 182/182/182 181/181/181
f 182/182/182 184/184/184 181/181/181
f 185/185/185 181/181/181 184/184/184
f 186/186/186 185/185/185 184/184/184
f 185/185/185 186/186/186 187/187/187
f 186/186/186 188/188/188 187/187/187
f 187/187/187 188/188/188 189/189/189
f 188/188/188 190/190/190 189/189/189
f 191/191/191 189/189/189 190/190/190
f 192/192/192 191/191/191 190/190/190
f 195/195/195 194/194/194 193/193/193
f 196/196/196 195/195/195 193/193/193
f 199/199/199 198/198/198 197/197/197
f 198/198/198 200/200/200 197/197/197
f 201/201/201 197/197/197 200/200/200
f 202/202/202 201/201/201 200/200/200
f 201/201/201 202/202/202 203/203/203
f 202/202/202 204/204/204 203/203/203
f 204/204/204 205/205/205 203/203/203
f 205/205/205 206/206/206 203/203/203
f 207/207/207 206/206/206 205/205/205
f 208/208/208 207/207/207 205/205/205
f 211/211/211 210/210/210 209/209/209
f 212/212/212 211/211/211 209/209/209
f 215/215/215 214/214/214 213/213/213
f 214/214/214 216/216/216 213/213/213
f 217/217/217 213/213/213 216/216/216
f 218/218/218 217/217/217 216/216/216
f 219/219/219 217/217/217 218/218/218
f 220/220/220 219/219/219 218/218/218
f 220/220/220 221/221/221 219/219/219
f 221/221/221 222/222/222 219/219/219
f 223/223/223 222/222/222 221/221/221
f 224/224/224 223/223/223 221/221/221
f 227/227/227 226/226/226 225/225/225
f 228/228/228 227/227/227 225/225/225
f 231/231/231 230/230/230 229/229/229
f 230/230/230 232/232/232 229/229/229
f 233/233/233 229/229/229 232/232/232
f 234/234/234 233/233/233 232/232/232
f 235/235/235 233/233/233 234/234/234
f 236/236/236 235/235/235 234/234/234
f 236/236/236 237/237/237 235/235/235
f 237/237/237 238/238/238 235/235/235
f 239/239/239 238/238/238 237/237/237
f 240/240/240 239/239/239 237/237/237
f 243/243/243 242/242/242 241/241/241
f 244/244/244 243/243/243 241/241/241
f 247/247/247 246/246/246 245/245/245
f 248/248/248 247/247/247 245/245/245
f 251/251/251 250/250/250 249/249/249
f 250/250/250 252/252/252 249/249/249
f 249/249/249 252/252/252 253/253/253
f 254/254/254 249/249/249 253/253/253
f 254/254/254 253/253/253 255/255/255
f 253/253/253 256/256/256 255/255/255
f 255/255/255 256/256/256 257/257/257
f 256/256/256 258/258/258 257/257/257
g handle_3_178mm_01_3a81c21f
v -0.08856 -0.00341 0.03216
v -0.08886 -0.00328 0.00045
v -0.08887 -0.00327 0.03212
v -0.08855 -0.00341 0.00045
v -0.08855 -0.00328 0.00013
v -0.08881 -0.00322 0.00019
v 0.08856 -0.00328 0.00013
v 0.08858 -0.00341 0.03216
v -0.08856 -0.00328 0.03246
v 0.08857 -0.00328 0.03247
v 0.08856 -0.00341 0.00045
v 0.08888 -0.00327 0.03212
v 0.08887 -0.00328 0.00045
v 0.08882 -0.00322 0.00019
v -0.08856 -0.00297 0.03259
v 0.08857 -0.00328 0.03247
v -0.08856 -0.00328 0.03246
v 0.08857 -0.00297 0.03259
v 0.08856 0.01845 0.03259
v -0.08855 0.01845 0.03259
v -0.08887 -0.00264 0.03247
v -0.08886 0.01845 0.03246
v -0.08855 0.01876 0.03246
v -0.08881 0.01871 0.0324
v 0.08856 0.01876 0.03246
v 0.08887 0.01845 0.03246
v 0.08888 -0.00264 0.03247
v 0.08882 0.01871 0.0324
v -0.08855 0.00386 0.02898
v -0.08886 0.01845 0.02911
v -0.08887 0.00369 0.02912
v -0.08855 0.01845 0.02898
v -0.08855 0.01876 0.02911
v -0.08881 0.01871 0.02917
v 0.08856 0.01876 0.02911
v 0.08856 0.00386 0.02898
v -0.08856 0.00355 0.02885
v 0.08856 0.00355 0.02885
v 0.08856 0.01845 0.02898
v 0.08888 0.00369 0.02912
v 0.08887 0.01845 0.02911
v 0.08882 0.01871 0.02917
v -0.08856 -0.00328 0.03246
v -0.08887 -0.00264 0.03247
v -0.08856 -0.00297 0.03259
v -0.08887 -0.00309 0.03236
v -0.08887 -0.00327 0.03212
v -0.08856 -0.00341 0.03216
v -0.08899 -0.00263 0.03209
v -0.08899 -0.00187 0.03214
v -0.08886 0.01845 0.03246
v -0.08899 -0.00295 0.03198
v -0.08899 -0.00296 0.00045
v -0.08886 -0.00328 0.00045
v -0.08886 -0.00296 0.00013
v -0.08881 -0.00322 0.00019
v -0.08899 0.00297 0.00045
v -0.08886 0.00297 0.00013
v -0.08899 0.00295 0.02885
v -0.08886 0.00329 0.00045
v -0.08881 0.00323 0.00019
v -0.08887 0.00328 0.02865
v -0.08899 0.00304 0.02924
v -0.08887 0.00341 0.02898
v -0.08899 0.00326 0.0294
v -0.08887 0.00369 0.02912
v -0.08856 0.00355 0.02885
v -0.08855 0.00386 0.02898
v -0.08899 0.01845 0.02942
v -0.08886 0.01845 0.02911
v -0.08899 0.01845 0.03215
v -0.08886 0.01876 0.02942
v -0.08881 0.01871 0.02917
v -0.08886 0.01876 0.03215
v -0.08881 0.01871 0.0324
v 0.08888 -0.00264 0.03247
v 0.08857 -0.00328 0.03247
v 0.08857 -0.00297 0.03259
v 0.08888 -0.00309 0.03236
v 0.08888 -0.00327 0.03212
v 0.08858 -0.00341 0.03216
v 0.089 -0.00264 0.0321
v 0.089 -0.00296 0.03199
v 0.08887 -0.00328 0.00045
v 0.089 -0.00187 0.03214
v 0.089 0.01845 0.03215
v 0.08887 0.01845 0.03246
v 0.08887 0.01876 0.03215
v 0.08882 0.01871 0.0324
v 0.089 0.01845 0.02942
v 0.08887 0.01876 0.02942
v 0.089 0.00326 0.0294
v 0.08887 0.01845 0.02911
v 0.08882 0.01871 0.02917
v 0.08888 0.00369 0.02912
v 0.089 0.00304 0.02924
v 0.089 0.00295 0.02885
v 0.08888 0.00341 0.02898
v 0.08856 0.00355 0.02885
v 0.08856 0.00386 0.02898
v 0.08888 0.00328 0.02864
v 0.089 0.00297 0.00045
v 0.08887 0.00329 0.00045
v 0.089 -0.00296 0.00045
v 0.08887 0.00297 0.00013
v 0.08882 0.00323 0.00019
v 0.08887 -0.00296 0.00013
v 0.08882 -0.00322 0.00019
v -0.08856 0.00355 0.02885
v -0.08887 0.00341 0.02898
v -0.08887 0.00328 0.02865
v -0.08857 0.00342 0.02855
v 0.08856 0.00355 0.02885
v -0.08855 0.00342 0.00045
v -0.08886 0.00329 0.00045
v -0.08855 0.00329 0.00013
v -0.08881 0.00323 0.00019
v 0.08856 0.00342 0.00045
v 0.08856 0.00329 0.00013
v 0.08857 0.00342 0.02854
v 0.08887 0.00329 0.00045
v 0.08882 0.00323 0.00019
v 0.08888 0.00328 0.02864
v 0.08888 0.00341 0.02898
v -0.08855 0.00329 0.00013
v -0.08881 0.00323 0.00019
v -0.08886 0.00297 0.00013
v -0.08855 0.00297 0
v 0.08856 0.00329 0.00013
v -0.08886 -0.00296 0.00013
v 0.08856 0.00297 0
v 0.08887 0.00297 0.00013
v 0.08882 0.00323 0.00019
v 0.08887 -0.00296 0.00013
v 0.08856 -0.00296 0
v -0.08855 -0.00296 0
v -0.08855 -0.00328 0.00013
v -0.08881 -0.00322 0.00019
v 0.08856 -0.00328 0.00013
v 0.08882 -0.00322 0.00019
v -0.08886 0.01876 0.02942
v -0.08881 0.01871 0.02917
v -0.08855 0.01876 0.02911
v -0.08855 0.01889 0.02942
v -0.08886 0.01876 0.03215
v 0.08856 0.01889 0.02942
v 0.08856 0.01876 0.02911
v -0.08855 0.01889 0.03215
v 0.08887 0.01876 0.02942
v 0.08882 0.01871 0.02917
v 0.08856 0.01889 0.03215
v 0.08887 0.01876 0.03215
v 0.08856 0.01876 0.03246
v 0.08882 0.01871 0.0324
v -0.08855 0.01876 0.03246
v -0.08881 0.01871 0.0324
vn -0.0007021021 -0.9999919 0.003969043
vn -0.7163775 -0.697708 -0.002616967
vn -0.6678517 -0.7442818 0.004299561
vn -0.0007538043 -0.9999915 -0.004042915
vn -0.0004883156 -0.7071066 -0.7071066
vn -0.5773041 -0.5774034 -0.5773431
vn 0.0004882949 -0.7071068 -0.7071066
vn 0.0006950022 -0.999992 0.00393699
vn -0.001029227 -0.7035523 0.7106427
vn 0.0009903782 -0.7060102 0.708201
vn 0.000746607 -0.9999915 -0.004042271
vn 0.6677933 -0.7443349 0.004207141
vn 0.71661 -0.6974687 -0.002755297
vn 0.577293 -0.577394 -0.5773639
vn -0.0003728289 -0.005795987 0.9999832
vn 0.0009903782 -0.7060102 0.708201
vn -0.001029227 -0.7035523 0.7106427
vn 0.0003722613 -0.005843923 0.9999828
vn 0.0006944452 0.005957412 0.999982
vn -0.0006944454 0.005957306 0.999982
vn -0.4975892 -0.002688965 0.8674086
vn -0.7100878 0.004328158 0.7040998
vn -0.0004883347 0.7071071 0.7071062
vn -0.5772987 0.577367 0.5773851
vn 0.0004883549 0.7071071 0.7071063
vn 0.7100878 0.004327828 0.7040998
vn 0.4974751 -0.002550245 0.8674746
vn 0.5773152 0.5773496 0.5773861
vn -0.0009689392 0.008607945 -0.9999626
vn -0.7014703 0.005802612 -0.712675
vn -0.802505 0.005665516 -0.5966185
vn -0.0007467563 0.008691107 -0.999962
vn -0.0004885463 0.7071071 -0.7071063
vn -0.5773876 0.5773783 -0.5772848
vn 0.0004885647 0.7071071 -0.7071062
vn 0.0009690663 0.008554357 -0.9999629
vn -0.00120957 0.7016538 -0.712517
vn 0.001198724 0.6997476 -0.7143893
vn 0.0007467566 0.008691262 -0.999962
vn 0.8024935 0.005696645 -0.5966337
vn 0.7014666 0.005802543 -0.7126787
vn 0.5774003 0.5773703 -0.5772802
vn -0.001029227 -0.7035523 0.7106427
vn -0.4975892 -0.002688965 0.8674086
vn -0.0003728289 -0.005795987 0.9999832
vn -0.7858914 -0.315754 0.531671
vn -0.6678517 -0.7442818 0.004299561
vn -0.0007021021 -0.9999919 0.003969043
vn -0.9994192 -0.007015332 0.03334612
vn -0.988553 -5.383187E-05 0.1508738
vn -0.7100878 0.004328158 0.7040998
vn -0.9993138 -0.03703666 0.0003501129
vn -0.9997597 -0.02151494 -0.00420047
vn -0.7163775 -0.697708 -0.002616967
vn -0.7070345 -0.01405316 -0.7070394
vn -0.5773041 -0.5774034 -0.5773431
vn -0.999805 0.01928828 -0.004221229
vn -0.7070345 0.01405586 -0.7070395
vn -0.9999479 0.01020453 -6.275815E-05
vn -0.7223241 0.6915481 -0.003018697
vn -0.577276 0.5774357 -0.5773391
vn -0.787554 0.61624 -0.002664056
vn -0.9999272 0.009862563 -0.006957809
vn -0.8614656 0.3864137 -0.329487
vn -0.9999547 0.0002771304 -0.009520489
vn -0.802505 0.005665516 -0.5966185
vn -0.00120957 0.7016538 -0.712517
vn -0.0009689392 0.008607945 -0.9999626
vn -0.9993175 0.007045622 -0.036259
vn -0.7014703 0.005802612 -0.712675
vn -0.9988563 0.006775465 0.04732935
vn -0.706805 0.7068016 -0.02929608
vn -0.5773876 0.5773783 -0.5772848
vn -0.7068036 0.7068021 0.02931751
vn -0.5772987 0.577367 0.5773851
vn 0.4974751 -0.002550245 0.8674746
vn 0.0009903782 -0.7060102 0.708201
vn 0.0003722613 -0.005843923 0.9999828
vn 0.7836391 -0.3064834 0.5403496
vn 0.6677933 -0.7443349 0.004207141
vn 0.0006950022 -0.999992 0.00393699
vn 0.9994175 -0.006521958 0.03349595
vn 0.999325 -0.03673469 0.0003426946
vn 0.71661 -0.6974687 -0.002755297
vn 0.9885543 -4.770245E-05 0.1508655
vn 0.9988563 0.006775814 0.04732933
vn 0.7100878 0.004327828 0.7040998
vn 0.706798 0.7068077 0.02931624
vn 0.5773152 0.5773496 0.5773861
vn 0.9993176 0.007046048 -0.03625763
vn 0.7067989 0.7068079 -0.02929474
vn 0.9999547 0.0002764242 -0.009521069
vn 0.7014666 0.005802543 -0.7126787
vn 0.5774003 0.5773703 -0.5772802
vn 0.8024935 0.005696645 -0.5966337
vn 0.9999253 0.009979266 -0.007065326
vn 0.9999481 0.01018739 -6.405021E-05
vn 0.8591703 0.3897705 -0.3315197
vn 0.001198724 0.6997476 -0.7143893
vn 0.0009690663 0.008554357 -0.9999629
vn 0.78561 0.6187161 -0.002695468
vn 0.9998028 0.01940597 -0.004216617
vn 0.7188439 0.6951652 -0.002987816
vn 0.9997645 -0.02129278 -0.004203298
vn 0.7070348 0.01405419 -0.7070391
vn 0.5773052 0.577408 -0.5773376
vn 0.7070343 -0.01405261 -0.7070395
vn 0.577293 -0.577394 -0.5773639
vn -0.00120957 0.7016538 -0.712517
vn -0.8614656 0.3864137 -0.329487
vn -0.787554 0.61624 -0.002664056
vn -0.0008736281 0.9999895 -0.004514546
vn 0.001198724 0.6997476 -0.7143893
vn -0.0007353268 0.9999894 -0.004556738
vn -0.7223241 0.6915481 -0.003018697
vn -0.0004882652 0.7071066 -0.7071066
vn -0.577276 0.5774357 -0.5773391
vn 0.0007314643 0.9999894 -0.004557539
vn 0.0004883259 0.7071066 -0.7071068
vn 0.000870871 0.9999894 -0.004542826
vn 0.7188439 0.6951652 -0.002987816
vn 0.5773052 0.577408 -0.5773376
vn 0.78561 0.6187161 -0.002695468
vn 0.8591703 0.3897705 -0.3315197
vn -0.0004882652 0.7071066 -0.7071066
vn -0.577276 0.5774357 -0.5773391
vn -0.7070345 0.01405586 -0.7070395
vn -0.0007177525 0.02072039 -0.9997851
vn 0.0004883259 0.7071066 -0.7071068
vn -0.7070345 -0.01405316 -0.7070394
vn 0.0007177389 0.02072144 -0.999785
vn 0.7070348 0.01405419 -0.7070391
vn 0.5773052 0.577408 -0.5773376
vn 0.7070343 -0.01405261 -0.7070395
vn 0.0007176878 -0.02072003 -0.9997851
vn -0.0007177153 -0.02072108 -0.999785
vn -0.0004883156 -0.7071066 -0.7071066
vn -0.5773041 -0.5774034 -0.5773431
vn 0.0004882949 -0.7071068 -0.7071066
vn 0.577293 -0.577394 -0.5773639
vn -0.706805 0.7068016 -0.02929608
vn -0.5773876 0.5773783 -0.5772848
vn -0.0004885463 0.7071071 -0.7071063
vn -0.0007036836 0.9990925 -0.04258818
vn -0.7068036 0.7068021 0.02931751
vn 0.0007036814 0.9990925 -0.04258886
vn 0.0004885647 0.7071071 -0.7071062
vn -0.0007038724 0.9990926 0.04258478
vn 0.7067989 0.7068079 -0.02929474
vn 0.5774003 0.5773703 -0.5772802
vn 0.0007038706 0.9990926 0.04258546
vn 0.706798 0.7068077 0.02931624
vn 0.0004883549 0.7071071 0.7071063
vn 0.5773152 0.5773496 0.5773861
vn -0.0004883347 0.7071071 0.7071062
vn -0.5772987 0.577367 0.5773851
vt -9.831882 -0.01871353
vt -9.832475 -0.0807029
vt -9.83248 -0.01879346
vt -9.831864 -0.0807029
vt -9.831862 -0.0813145
vt -9.832364 -0.08120203
vt -9.485614 -0.08131449
vt -9.485579 -0.01869657
vt -9.83188 -0.01811397
vt -9.485586 -0.01810888
vt -9.485612 -0.08070283
vt -9.484991 -0.01877561
vt -9.485002 -0.08070282
vt -9.485112 -0.08120205
vt -9.831939 -0.2291762
vt -9.485529 -0.2297756
vt -9.831938 -0.2297755
vt -9.485539 -0.2291761
vt -9.485556 -0.1872829
vt -9.831921 -0.187283
vt -9.832542 -0.2285337
vt -9.832533 -0.187283
vt -9.831923 -0.1866711
vt -9.83242 -0.1867836
vt -9.485556 -0.186671
vt -9.484943 -0.187283
vt -9.484934 -0.2285335
vt -9.485056 -0.1867836
vt -9.831984 0.273658
vt -9.832599 0.2451113
vt -9.832603 0.2739904
vt -9.831988 0.2451113
vt -9.831986 0.2444991
vt -9.832488 0.2446118
vt -9.485442 0.244499
vt -9.485447 0.2736581
vt -9.831999 0.2742732
vt -9.485437 0.2742732
vt -9.485442 0.2451113
vt -9.484829 0.2739904
vt -9.484832 0.2451113
vt -9.484942 0.2446117
vt -9.220046 0.4201437
vt -9.220033 0.4213908
vt -9.219795 0.4207456
vt -9.220254 0.4205178
vt -9.220729 0.4201677
vt -9.220649 0.4198944
vt -9.220774 0.4214132
vt -9.220682 0.4229079
vt -9.22005 0.4628108
vt -9.220994 0.4207947
vt -9.282912 0.4207633
vt -9.282912 0.4201489
vt -9.283526 0.4207632
vt -9.283415 0.4202618
vt -9.282913 0.4324199
vt -9.283527 0.43242
vt -9.227134 0.4323735
vt -9.282913 0.4330342
vt -9.283414 0.4329214
vt -9.227539 0.4330293
vt -9.226373 0.4325491
vt -9.226883 0.4332685
vt -9.226054 0.4329749
vt -9.22662 0.4338281
vt -9.227135 0.4335442
vt -9.226887 0.4341615
vt -9.226016 0.4628108
vt -9.22663 0.4628108
vt -9.220664 0.4628108
vt -9.226018 0.4634252
vt -9.22652 0.4633122
vt -9.220666 0.4634252
vt -9.220164 0.4633123
vt -9.283292 0.5527388
vt -9.283283 0.5514919
vt -9.283526 0.5520937
vt -9.283076 0.5518625
vt -9.282614 0.5515107
vt -9.282692 0.5512425
vt -9.282555 0.5527498
vt -9.282351 0.5521264
vt -9.22041 0.5514969
vt -9.282641 0.5542561
vt -9.282659 0.5941591
vt -9.283273 0.5941591
vt -9.282659 0.5947735
vt -9.283159 0.5946606
vt -9.277305 0.5941591
vt -9.277307 0.5947735
vt -9.277267 0.5643231
vt -9.27669 0.5941591
vt -9.276804 0.5946606
vt -9.276704 0.5651762
vt -9.276954 0.5639005
vt -9.276191 0.5637259
vt -9.27644 0.5646187
vt -9.276186 0.5648926
vt -9.276436 0.5655097
vt -9.275777 0.5643803
vt -9.22041 0.563768
vt -9.22041 0.5643822
vt -9.220411 0.5521113
vt -9.219795 0.5637682
vt -9.219908 0.5642695
vt -9.219797 0.5521113
vt -9.219909 0.5516098
vt -9.831885 0.1012738
vt -9.832492 0.1010244
vt -9.832493 0.1016787
vt -9.8319 0.1018671
vt -9.485577 0.1012779
vt -9.831875 0.1568132
vt -9.832485 0.1568132
vt -9.831874 0.157425
vt -9.832374 0.1573126
vt -9.485582 0.1568132
vt -9.485581 0.157425
vt -9.485569 0.1018804
vt -9.48497 0.1568132
vt -9.485084 0.1573125
vt -9.484966 0.1016854
vt -9.484965 0.1010261
vt -9.832376 0.3212014
vt -9.832874 0.3213138
vt -9.832987 0.321815
vt -9.832373 0.321815
vt -9.485045 0.3212013
vt -9.832989 0.333456
vt -9.485044 0.321815
vt -9.48443 0.321815
vt -9.484543 0.3213138
vt -9.484432 0.3334559
vt -9.485044 0.3334559
vt -9.832375 0.333456
vt -9.832375 0.3340696
vt -9.832874 0.333957
vt -9.485044 0.3340695
vt -9.484543 0.333957
vt -9.833638 0.3657221
vt -9.833522 0.366225
vt -9.83302 0.3663383
vt -9.833021 0.3657223
vt -9.833636 0.3603572
vt -9.484398 0.3657222
vt -9.484399 0.3663382
vt -9.83302 0.3603572
vt -9.483783 0.365722
vt -9.483895 0.366225
vt -9.484397 0.3603571
vt -9.483783 0.3603571
vt -9.484399 0.3597415
vt -9.483895 0.3598547
vt -9.83302 0.3597416
vt -9.833522 0.3598547
usemtl HammeredMetal_AlbedoTransparency_2
f 261/261/261 260/260/260 259/259/259
f 260/260/260 262/262/262 259/259/259
f 262/262/262 260/260/260 263/263/263
f 260/260/260 264/264/264 263/263/263
f 263/263/263 265/265/265 262/262/262
f 266/266/266 259/259/259 262/262/262
f 259/259/259 266/266/266 267/267/267
f 266/266/266 268/268/268 267/267/267
f 269/269/269 266/266/266 262/262/262
f 265/265/265 269/269/269 262/262/262
f 266/266/266 269/269/269 270/270/270
f 269/269/269 271/271/271 270/270/270
f 269/269/269 265/265/265 271/271/271
f 265/265/265 272/272/272 271/271/271
f 275/275/275 274/274/274 273/273/273
f 274/274/274 276/276/276 273/273/273
f 276/276/276 277/277/277 273/273/273
f 277/277/277 278/278/278 273/273/273
f 273/273/273 278/278/278 279/279/279
f 278/278/278 280/280/280 279/279/279
f 278/278/278 281/281/281 280/280/280
f 278/278/278 277/277/277 281/281/281
f 281/281/281 282/282/282 280/280/280
f 277/277/277 283/283/283 281/281/281
f 284/284/284 277/277/277 276/276/276
f 277/277/277 284/284/284 283/283/283
f 285/285/285 284/284/284 276/276/276
f 284/284/284 286/286/286 283/283/283
f 289/289/289 288/288/288 287/287/287
f 288/288/288 290/290/290 287/287/287
f 290/290/290 288/288/288 291/291/291
f 288/288/288 292/292/292 291/291/291
f 291/291/291 293/293/293 290/290/290
f 287/287/287 290/290/290 294/294/294
f 287/287/287 294/294/294 295/295/295
f 294/294/294 296/296/296 295/295/295
f 290/290/290 297/297/297 294/294/294
f 293/293/293 297/297/297 290/290/290
f 294/294/294 297/297/297 298/298/298
f 297/297/297 299/299/299 298/298/298
f 297/297/297 293/293/293 299/299/299
f 293/293/293 300/300/300 299/299/299
f 303/303/303 302/302/302 301/301/301
f 302/302/302 304/304/304 301/301/301
f 301/301/301 304/304/304 305/305/305
f 306/306/306 301/301/301 305/305/305
f 307/307/307 304/304/304 302/302/302
f 305/305/305 304/304/304 307/307/307
f 308/308/308 307/307/307 302/302/302
f 302/302/302 309/309/309 308/308/308
f 310/310/310 305/305/305 307/307/307
f 310/310/310 311/311/311 305/305/305
f 311/311/311 312/312/312 305/305/305
f 311/311/311 313/313/313 312/312/312
f 313/313/313 314/314/314 312/312/312
f 313/313/313 311/311/311 315/315/315
f 316/316/316 313/313/313 315/315/315
f 311/311/311 310/310/310 317/317/317
f 315/315/315 311/311/311 317/317/317
f 315/315/315 318/318/318 316/316/316
f 318/318/318 315/315/315 317/317/317
f 318/318/318 319/319/319 316/316/316
f 320/320/320 318/318/318 317/317/317
f 317/317/317 310/310/310 321/321/321
f 317/317/317 321/321/321 320/320/320
f 310/310/310 307/307/307 321/321/321
f 321/321/321 322/322/322 320/320/320
f 321/321/321 307/307/307 323/323/323
f 307/307/307 308/308/308 323/323/323
f 324/324/324 322/322/322 321/321/321
f 323/323/323 324/324/324 321/321/321
f 325/325/325 322/322/322 324/324/324
f 326/326/326 325/325/325 324/324/324
f 323/323/323 327/327/327 324/324/324
f 323/323/323 308/308/308 327/327/327
f 327/327/327 328/328/328 324/324/324
f 308/308/308 329/329/329 327/327/327
f 309/309/309 329/329/329 308/308/308
f 327/327/327 330/330/330 328/328/328
f 327/327/327 329/329/329 330/330/330
f 330/330/330 331/331/331 328/328/328
f 329/329/329 332/332/332 330/330/330
f 329/329/329 309/309/309 332/332/332
f 309/309/309 333/333/333 332/332/332
f 336/336/336 335/335/335 334/334/334
f 335/335/335 337/337/337 334/334/334
f 338/338/338 337/337/337 335/335/335
f 339/339/339 338/338/338 335/335/335
f 340/340/340 337/337/337 338/338/338
f 334/334/334 337/337/337 340/340/340
f 341/341/341 340/340/340 338/338/338
f 338/338/338 342/342/342 341/341/341
f 343/343/343 334/334/334 340/340/340
f 343/343/343 344/344/344 334/334/334
f 344/344/344 345/345/345 334/334/334
f 344/344/344 346/346/346 345/345/345
f 346/346/346 347/347/347 345/345/345
f 346/346/346 344/344/344 348/348/348
f 349/349/349 346/346/346 348/348/348
f 344/344/344 343/343/343 350/350/350
f 348/348/348 344/344/344 350/350/350
f 348/348/348 351/351/351 349/349/349
f 351/351/351 348/348/348 350/350/350
f 351/351/351 352/352/352 349/349/349
f 353/353/353 351/351/351 350/350/350
f 350/350/350 343/343/343 354/354/354
f 343/343/343 340/340/340 354/354/354
f 350/350/350 354/354/354 353/353/353
f 354/354/354 340/340/340 355/355/355
f 340/340/340 341/341/341 355/355/355
f 354/354/354 356/356/356 353/353/353
f 353/353/353 356/356/356 357/357/357
f 358/358/358 353/353/353 357/357/357
f 359/359/359 356/356/356 354/354/354
f 355/355/355 359/359/359 354/354/354
f 355/355/355 360/360/360 359/359/359
f 355/355/355 341/341/341 360/360/360
f 360/360/360 361/361/361 359/359/359
f 341/341/341 362/362/362 360/360/360
f 342/342/342 362/362/362 341/341/341
f 360/360/360 363/363/363 361/361/361
f 360/360/360 362/362/362 363/363/363
f 363/363/363 364/364/364 361/361/361
f 362/362/362 365/365/365 363/363/363
f 362/362/362 342/342/342 365/365/365
f 342/342/342 366/366/366 365/365/365
f 369/369/369 368/368/368 367/367/367
f 370/370/370 369/369/369 367/367/367
f 367/367/367 371/371/371 370/370/370
f 370/370/370 372/372/372 369/369/369
f 372/372/372 373/373/373 369/369/369
f 372/372/372 374/374/374 373/373/373
f 374/374/374 375/375/375 373/373/373
f 372/372/372 376/376/376 374/374/374
f 376/376/376 372/372/372 370/370/370
f 376/376/376 377/377/377 374/374/374
f 371/371/371 378/378/378 370/370/370
f 378/378/378 376/376/376 370/370/370
f 376/376/376 379/379/379 377/377/377
f 379/379/379 376/376/376 378/378/378
f 379/379/379 380/380/380 377/377/377
f 381/381/381 379/379/379 378/378/378
f 378/378/378 371/371/371 381/381/381
f 371/371/371 382/382/382 381/381/381
f 385/385/385 384/384/384 383/383/383
f 386/386/386 385/385/385 383/383/383
f 383/383/383 387/387/387 386/386/386
f 385/385/385 386/386/386 388/388/388
f 387/387/387 389/389/389 386/386/386
f 389/389/389 387/387/387 390/390/390
f 387/387/387 391/391/391 390/390/390
f 390/390/390 392/392/392 389/389/389
f 389/389/389 393/393/393 386/386/386
f 392/392/392 393/393/393 389/389/389
f 386/386/386 394/394/394 388/388/388
f 393/393/393 394/394/394 386/386/386
f 394/394/394 395/395/395 388/388/388
f 394/394/394 393/393/393 395/395/395
f 395/395/395 396/396/396 388/388/388
f 393/393/393 397/397/397 395/395/395
f 393/393/393 392/392/392 397/397/397
f 392/392/392 398/398/398 397/397/397
f 401/401/401 400/400/400 399/399/399
f 402/402/402 401/401/401 399/399/399
f 399/399/399 403/403/403 402/402/402
f 402/402/402 404/404/404 401/401/401
f 404/404/404 405/405/405 401/401/401
f 403/403/403 406/406/406 402/402/402
f 402/402/402 406/406/406 404/404/404
f 404/404/404 407/407/407 405/405/405
f 407/407/407 408/408/408 405/405/405
f 404/404/404 409/409/409 407/407/407
f 406/406/406 409/409/409 404/404/404
f 409/409/409 410/410/410 407/407/407
f 409/409/409 411/411/411 410/410/410
f 411/411/411 409/409/409 406/406/406
f 411/411/411 412/412/412 410/410/410
f 413/413/413 411/411/411 406/406/406
f 406/406/406 403/403/403 413/413/413
f 403/403/403 414/414/414 413/413/413
