mtllib CabinetBody_85875082.mtl
g CabinetBody_85875082
v 1.98116 0.04925 3.77164
v 1.98116 -0.00844 3.77164
v 1.61745 -0.00844 3.77164
v 1.61745 0.04925 3.77164
v 1.98116 0.57203 3.77164
v 1.61745 0.57203 3.77164
v 1.98116 0.73133 3.77164
v 1.61745 0.73133 3.77164
v 1.98116 0.73133 3.44599
v 1.98116 0.57203 3.77164
v 1.98116 0.73133 3.77164
v 1.98116 0.57203 3.44599
v 1.98116 0.04925 3.77164
v 1.98116 0.73133 3.13205
v 1.98116 0.04925 3.44599
v 1.98116 -0.00844 3.77164
v 1.98116 -0.00844 3.44599
v 1.98116 0.57203 3.13205
v 1.98116 0.04925 3.13205
v 1.98116 -0.00844 3.13205
v 1.98116 -0.00844 2.79992
v 1.98116 0.04925 2.79992
v 1.98116 -0.00844 2.47427
v 1.98116 0.04925 2.47427
v 1.98116 0.57203 2.79992
v 1.98116 0.73133 2.79992
v 1.98116 0.57203 2.47427
v 1.98116 0.73133 2.47427
v 1.61745 0.04925 3.77164
v 1.61745 -0.00844 3.77164
v 1.61745 -0.00844 3.44599
v 1.61745 0.04925 3.44599
v 1.61745 -0.00844 3.13205
v 1.61745 0.04925 3.13205
v 1.61745 0.04925 2.79992
v 1.61745 -0.00844 2.79992
v 1.61745 0.04925 2.47427
v 1.61745 -0.00844 2.47427
v 1.61745 0.05819 3.75202
v 1.61745 0.5631 3.75202
v 1.61745 0.57203 3.77164
v 1.61745 0.5631 3.4656
v 1.61745 0.57203 3.44599
v 1.61745 0.73133 3.77164
v 1.61745 0.05819 3.4656
v 1.61745 0.73133 3.44599
v 1.61745 0.57203 3.13205
v 1.61745 0.73133 3.13205
v 1.61745 0.73133 2.79992
v 1.61745 0.57203 2.79992
v 1.61745 0.73133 2.47427
v 1.61745 0.57203 2.47427
v 1.61745 0.5631 3.42637
v 1.61745 0.05819 3.42637
v 1.61745 0.5631 3.13995
v 1.61745 0.05819 3.13995
v 1.61745 0.05819 3.10596
v 1.61745 0.05819 2.81954
v 1.61745 0.5631 3.10596
v 1.61745 0.5631 2.81954
v 1.61745 0.5631 2.78031
v 1.61745 0.05819 2.78031
v 1.61745 0.5631 2.49388
v 1.61745 0.05819 2.49388
v 1.98116 -0.00844 3.77164
v 1.61745 -0.00844 3.44599
v 1.61745 -0.00844 3.77164
v 1.98116 -0.00844 3.44599
v 1.61745 -0.00844 3.13205
v 1.98116 -0.00844 3.13205
v 1.98116 -0.00844 2.79992
v 1.61745 -0.00844 2.79992
v 1.98116 -0.00844 2.47427
v 1.61745 -0.00844 2.47427
v 1.61745 0.05819 3.42637
v 1.94673 0.05819 3.42637
v 1.94673 0.5631 3.42637
v 1.61745 0.5631 3.42637
v 1.61745 0.05819 3.4656
v 1.94673 0.05819 3.4656
v 1.94673 0.05819 3.75202
v 1.61745 0.05819 3.75202
v 1.94673 0.5631 3.75202
v 1.94673 0.05819 3.75202
v 1.94673 0.05819 3.4656
v 1.94673 0.5631 3.4656
v 1.94673 0.5631 3.42637
v 1.94673 0.05819 3.42637
v 1.94673 0.05819 3.13995
v 1.94673 0.5631 3.13995
v 1.61745 0.5631 3.75202
v 1.94673 0.5631 3.75202
v 1.94673 0.5631 3.4656
v 1.61745 0.5631 3.4656
v 1.61745 0.05819 3.13995
v 1.94673 0.05819 3.13995
v 1.94673 0.05819 3.42637
v 1.61745 0.05819 3.42637
v 1.61745 0.05819 3.75202
v 1.94673 0.05819 3.75202
v 1.94673 0.5631 3.75202
v 1.61745 0.5631 3.75202
v 1.61745 0.5631 3.42637
v 1.94673 0.5631 3.42637
v 1.94673 0.5631 3.13995
v 1.61745 0.5631 3.13995
v 1.61745 0.5631 3.4656
v 1.94673 0.5631 3.4656
v 1.94673 0.05819 3.4656
v 1.61745 0.05819 3.4656
v 1.61745 0.5631 3.13995
v 1.94673 0.5631 3.13995
v 1.94673 0.05819 3.13995
v 1.61745 0.05819 3.13995
v 1.98116 0.04925 2.47427
v 1.61745 -0.00844 2.47427
v 1.98116 -0.00844 2.47427
v 1.61745 0.04925 2.47427
v 1.98116 0.57203 2.47427
v 1.61745 0.57203 2.47427
v 1.98116 0.73133 2.47427
v 1.61745 0.73133 2.47427
v 1.61745 0.05819 2.81954
v 1.61745 0.5631 2.81954
v 1.94673 0.5631 2.81954
v 1.94673 0.05819 2.81954
v 1.61745 0.05819 2.78031
v 1.61745 0.05819 2.49388
v 1.94673 0.05819 2.49388
v 1.94673 0.05819 2.78031
v 1.94673 0.5631 2.49388
v 1.94673 0.5631 2.78031
v 1.94673 0.05819 2.78031
v 1.94673 0.05819 2.49388
v 1.94673 0.5631 2.81954
v 1.94673 0.5631 3.10596
v 1.94673 0.05819 3.10596
v 1.94673 0.05819 2.81954
v 1.61745 0.5631 2.49388
v 1.61745 0.5631 2.78031
v 1.94673 0.5631 2.78031
v 1.94673 0.5631 2.49388
v 1.61745 0.05819 3.10596
v 1.61745 0.05819 2.81954
v 1.94673 0.05819 2.81954
v 1.94673 0.05819 3.10596
v 1.61745 0.05819 2.49388
v 1.61745 0.5631 2.49388
v 1.94673 0.5631 2.49388
v 1.94673 0.05819 2.49388
v 1.61745 0.5631 2.81954
v 1.61745 0.5631 3.10596
v 1.94673 0.5631 3.10596
v 1.94673 0.5631 2.81954
v 1.61745 0.5631 2.78031
v 1.61745 0.05819 2.78031
v 1.94673 0.05819 2.78031
v 1.94673 0.5631 2.78031
v 1.61745 0.5631 3.10596
v 1.61745 0.05819 3.10596
v 1.94673 0.05819 3.10596
v 1.94673 0.5631 3.10596
v 1.60596 0.71649 3.75821
v 1.60596 0.58524 2.48384
v 1.60596 0.71649 2.48384
v 1.60596 0.58524 3.75821
v 1.60596 0.58524 3.75821
v 1.6212 0.71649 3.75821
v 1.6212 0.58524 3.75821
v 1.60596 0.71649 3.75821
v 1.60596 0.71649 3.75821
v 1.6212 0.71649 2.48384
v 1.6212 0.71649 3.75821
v 1.60596 0.71649 2.48384
v 1.60596 0.71649 2.48384
v 1.6212 0.58524 2.48384
v 1.6212 0.71649 2.48384
v 1.60596 0.58524 2.48384
v 1.60596 0.58524 2.48384
v 1.6212 0.58524 3.75821
v 1.6212 0.58524 2.48384
v 1.60596 0.58524 3.75821
v 1.6212 0.71649 3.75821
v 1.6212 0.58524 2.48384
v 1.6212 0.58524 3.75821
v 1.6212 0.71649 2.48384
vn 0 0 0.5773503
vn 0 0 0.5773503
vn 0 0 0.5773503
vn 0 0 0.5773503
vn 0 0 0.5773503
vn 0 0 0.5773503
vn 0 0 0.5773503
vn 0 0 0.5773503
vn 0.5773503 0 0
vn 0.5773503 0 0
vn 0.5773503 0 0
vn 0.5773503 0 0
vn 0.5773503 0 0
vn 0.5773503 0 0
vn 0.5773503 0 0
vn 0.5773503 0 0
vn 0.5773503 0 0
vn 0.5773503 0 0
vn 0.5773503 0 0
vn 0.5773503 0 0
vn 0.5773503 0 0
vn 0.5773503 0 0
vn 0.5773503 0 0
vn 0.5773503 0 0
vn 0.5773503 0 0
vn 0.5773503 0 0
vn 0.5773503 0 0
vn 0.5773503 0 0
vn -0.5773503 0 0
vn -0.5773503 0 0
vn -0.5773503 0 0
vn -0.5773503 0 0
vn -0.5773503 0 0
vn -0.5773503 0 0
vn -0.5773503 1.814881E-07 0
vn -0.5773503 1.814881E-07 0
vn -0.5773503 0 0
vn -0.5773503 0 0
vn -0.5773503 0 0
vn -0.5773503 0 0
vn -0.5773503 0 0
vn -0.5773503 0 0
vn -0.5773503 0 0
vn -0.5773503 0 0
vn -0.5773503 0 0
vn -0.5773503 0 0
vn -0.5773503 0 0
vn -0.5773503 0 0
vn -0.5773503 0 0
vn -0.5773503 0 0
vn -0.5773503 0 0
vn -0.5773503 0 0
vn -0.5773503 0 0
vn -0.5773503 1.194699E-06 0
vn -0.5773503 -1.161415E-06 0
vn -0.5773503 1.194699E-06 0
vn -0.5773503 -2.127255E-06 0
vn -0.5773503 -2.127255E-06 0
vn -0.5773503 1.946141E-06 0
vn -0.5773503 0 0
vn -0.5773503 0 0
vn -0.5773503 -7.777673E-07 0
vn -0.5773503 9.554831E-07 0
vn -0.5773503 -7.777673E-07 0
vn 0 -0.5773503 0
vn 0 -0.5773503 0
vn 0 -0.5773503 0
vn 0 -0.5773503 0
vn 0 -0.5773503 0
vn 0 -0.5773503 0
vn 0 -0.5773503 0
vn 0 -0.5773503 0
vn 0 -0.5773503 0
vn 0 -0.5773503 0
vn 0 0 -0.5773503
vn 0 0 -0.5773503
vn 0 0 -0.5773503
vn 0 0 -0.5773503
vn 0 0.5773503 0
vn 0 0.5773503 0
vn 0 0.5773503 0
vn 0 0.5773503 0
vn -0.5773503 0 0
vn -0.5773503 0 0
vn -0.5773503 0 0
vn -0.5773503 0 0
vn -0.5773503 0 0
vn -0.5773503 0 0
vn -0.5773503 0 0
vn -0.5773503 0 0
vn 0 -0.5773503 0
vn 0 -0.5773503 0
vn 0 -0.5773503 0
vn 0 -0.5773503 0
vn 0 0.5773503 0
vn 0 0.5773503 0
vn 0 0.5773503 0
vn 0 0.5773503 0
vn 0 0 -0.5773503
vn 0 0 -0.5773503
vn 0 0 -0.5773503
vn 0 0 -0.5773503
vn 0 -0.5773503 0
vn 0 -0.5773503 0
vn 0 -0.5773503 0
vn 0 -0.5773503 0
vn 0 0 0.5773503
vn 0 0 0.5773503
vn 0 0 0.5773503
vn 0 0 0.5773503
vn 0 0 0.5773503
vn 0 0 0.5773503
vn 0 0 0.5773503
vn 0 0 0.5773503
vn 0 0 -0.5773503
vn 0 0 -0.5773503
vn 0 0 -0.5773503
vn 0 0 -0.5773503
vn 0 0 -0.5773503
vn 0 0 -0.5773503
vn 0 0 -0.5773503
vn 0 0 -0.5773503
vn 0 0 0.5773503
vn 0 0 0.5773503
vn 0 0 0.5773503
vn 0 0 0.5773503
vn 0 0.5773503 0
vn 0 0.5773503 0
vn 0 0.5773503 0
vn 0 0.5773503 0
vn -0.5773503 0 0
vn -0.5773503 0 0
vn -0.5773503 0 0
vn -0.5773503 0 0
vn -0.5773503 0 0
vn -0.5773503 0 0
vn -0.5773503 0 0
vn -0.5773503 0 0
vn 0 -0.5773503 0
vn 0 -0.5773503 0
vn 0 -0.5773503 0
vn 0 -0.5773503 0
vn 0 0.5773503 0
vn 0 0.5773503 0
vn 0 0.5773503 0
vn 0 0.5773503 0
vn 0 0 0.5773503
vn 0 0 0.5773503
vn 0 0 0.5773503
vn 0 0 0.5773503
vn 0 -0.5773503 0
vn 0 -0.5773503 0
vn 0 -0.5773503 0
vn 0 -0.5773503 0
vn 0 0 -0.5773503
vn 0 0 -0.5773503
vn 0 0 -0.5773503
vn 0 0 -0.5773503
vn 0 0 -0.5773503
vn 0 0 -0.5773503
vn 0 0 -0.5773503
vn 0 0 -0.5773503
vn -0.5773503 0 0
vn -0.5773503 0 0
vn -0.5773503 0 0
vn -0.5773503 0 0
vn 0 0 0.5773503
vn 0 0 0.5773503
vn 0 0 0.5773503
vn 0 0 0.5773503
vn 0 0.5773503 0
vn 0 0.5773503 0
vn 0 0.5773503 0
vn 0 0.5773503 0
vn 0 0 -0.5773503
vn 0 0 -0.5773503
vn 0 0 -0.5773503
vn 0 0 -0.5773503
vn 0 -0.5773503 0
vn 0 -0.5773503 0
vn 0 -0.5773503 0
vn 0 -0.5773503 0
vn 0.5773503 0 0
vn 0.5773503 0 0
vn 0.5773503 0 0
vn 0.5773503 0 0
vt 1.109464 0.1079575
vt 1.109464 0.0502674
vt 0.7457498 0.0502674
vt 0.7457498 0.1079575
vt 1.109464 0.6307374
vt 0.7457498 0.6307374
vt 1.109464 0.7900286
vt 0.7457498 0.7900286
vt 0.5099255 0.5671457
vt 0.3506345 0.8927999
vt 0.5099255 0.8928003
vt 0.3506345 0.5671457
vt -0.1721451 0.8928003
vt 0.5099255 0.2532108
vt -0.1721451 0.5671457
vt -0.2298352 0.8928003
vt -0.2298352 0.5671457
vt 0.3506345 0.2532106
vt -0.1721451 0.2532108
vt -0.2298352 0.2532108
vt -0.2298348 -0.07891623
vt -0.1721449 -0.07891623
vt -0.2298348 -0.404571
vt -0.1721449 -0.404571
vt 0.3506345 -0.07891683
vt 0.5099255 -0.07891623
vt 0.3506345 -0.404571
vt 0.5099255 -0.4045706
vt 0.111877 -0.4045709
vt 0.05418715 -0.4045709
vt 0.05418715 -0.07891636
vt 0.111877 -0.07891636
vt 0.05418715 0.2350184
vt 0.111877 0.2350184
vt 0.1118773 0.5671455
vt 0.05418715 0.5671455
vt 0.1118773 0.8928002
vt 0.05418715 0.8928002
vt 0.1208091 -0.3849548
vt 0.6257247 -0.3849548
vt 0.6346566 -0.4045705
vt 0.6257247 -0.09853121
vt 0.6346566 -0.07891636
vt 0.7939476 -0.4045709
vt 0.1208091 -0.09853165
vt 0.7939476 -0.07891636
vt 0.6346566 0.2350187
vt 0.7939476 0.2350184
vt 0.7939476 0.5671455
vt 0.6346566 0.567146
vt 0.7939476 0.8927998
vt 0.6346566 0.8928002
vt 0.6257247 -0.05930029
vt 0.1208091 -0.05930029
vt 0.6257247 0.2271229
vt 0.1208091 0.2271225
vt 0.1208091 0.2611065
vt 0.1208094 0.5475296
vt 0.6257247 0.2611065
vt 0.6257247 0.54753
vt 0.6257247 0.5867609
vt 0.1208094 0.5867609
vt 0.6257247 0.8731843
vt 0.1208094 0.8731843
vt 0.819572 0.8928003
vt 0.4558582 0.5671457
vt 0.4558584 0.8928003
vt 0.819572 0.5671457
vt 0.4558584 0.2532108
vt 0.819572 0.2532108
vt 0.819572 -0.07891622
vt 0.4558584 -0.07891622
vt 0.819572 -0.404571
vt 0.4558584 -0.404571
vt 0.3694608 0.8369064
vt 0.6987465 0.8369064
vt 0.6987465 0.3319908
vt 0.3694608 0.3319908
vt 1.085243 0.9151713
vt 1.085243 0.5858852
vt 0.7988194 0.5858852
vt 0.7988194 0.9151713
vt 0.5562888 0.8369064
vt 0.5562888 0.3319906
vt 0.2698654 0.3319907
vt 0.269865 0.8369064
vt 0.4432611 0.8369063
vt 0.4432611 0.3319908
vt 0.1568381 0.3319908
vt 0.1568377 0.8369063
vt 0.9722155 1.02706
vt 0.9722155 0.6977738
vt 0.6857914 0.6977738
vt 0.6857914 1.02706
vt 0.5201049 1.101198
vt 0.5201049 0.7719117
vt 0.2336816 0.7719117
vt 0.2336816 1.101198
vt 0.01437961 0.8369064
vt 0.3436655 0.8369064
vt 0.3436655 0.3319908
vt 0.0143797 0.3319908
vt 0.9492405 0.9001722
vt 0.9492405 0.5708867
vt 0.6628177 0.5708867
vt 0.6628177 0.9001722
vt -0.1012027 1.029348
vt 0.228083 1.029348
vt 0.228083 0.5244323
vt -0.1012027 0.5244323
vt 0.3888861 1.029348
vt 0.7181718 1.029348
vt 0.7181718 0.5244323
vt 0.3888861 0.5244323
vt 1.101456 0.4522405
vt 0.7377418 0.5099306
vt 1.101456 0.5099306
vt 0.7377418 0.4522405
vt 1.101456 -0.07053892
vt 0.7377418 -0.07053892
vt 1.101456 -0.2298299
vt 0.7377418 -0.22983
vt 0.6275129 0.3234071
vt 0.6275129 0.8283224
vt 0.9567984 0.8283224
vt 0.9567984 0.3234071
vt 0.5727644 1.101198
vt 0.8591874 1.101198
vt 0.8591874 0.7719122
vt 0.5727644 0.7719122
vt 0.04267342 1.029348
vt 0.3290967 1.029348
vt 0.3290967 0.5244324
vt 0.04267342 0.5244324
vt 0.1573708 1.029348
vt 0.4437944 1.029348
vt 0.4437944 0.5244321
vt 0.1573712 0.5244323
vt 0.4597364 1.101198
vt 0.7461601 1.101198
vt 0.7461601 0.7719117
vt 0.4597364 0.7719117
vt 0.3467092 1.101198
vt 0.6331322 1.101198
vt 0.6331322 0.7719123
vt 0.3467092 0.7719119
vt 0.2586364 0.5244324
vt 0.2586364 1.029348
vt 0.5879221 1.029348
vt 0.5879221 0.5244324
vt 0.7775149 0.7882836
vt 1.063938 0.7882835
vt 1.063938 0.4589977
vt 0.7775149 0.4589978
vt 0.4984867 0.3319904
vt 0.4984867 0.8369066
vt 0.8277726 0.8369066
vt 0.8277726 0.3319905
vt 0.5191357 0.5244322
vt 0.5191357 1.029348
vt 0.8484215 1.029348
vt 0.8484215 0.5244322
vt 1.264741 0.5023493
vt -0.009631515 0.3711011
vt -0.009631872 0.5023492
vt 1.264741 0.3711011
vt 0.03340864 0.007332504
vt -0.09784579 0.0225774
vt 0.03340864 0.0225774
vt -0.09784579 0.007332504
vt 1.264734 0.4638306
vt -0.009625077 0.4790747
vt 1.264734 0.4790747
vt -0.009625077 0.4638306
vt 0.03340662 -0.004476845
vt -0.09784365 0.01076746
vt 0.03340662 0.0107674
vt -0.097844 -0.004476786
vt 1.264743 0.5338158
vt -0.009633541 0.5490595
vt 1.264743 0.5490596
vt -0.009633541 0.5338153
vt -0.00963223 0.5723342
vt 1.264741 0.4410862
vt -0.00963223 0.441086
vt 1.264741 0.5723343
usemtl Cream_wood
f 3/3/3 2/2/2 1/1/1
f 4/4/4 3/3/3 1/1/1
f 4/4/4 1/1/1 5/5/5
f 6/6/6 4/4/4 5/5/5
f 6/6/6 5/5/5 7/7/7
f 8/8/8 6/6/6 7/7/7
f 11/11/11 10/10/10 9/9/9
f 10/10/10 12/12/12 9/9/9
f 10/10/10 13/13/13 12/12/12
f 9/9/9 12/12/12 14/14/14
f 13/13/13 15/15/15 12/12/12
f 13/13/13 16/16/16 15/15/15
f 16/16/16 17/17/17 15/15/15
f 12/12/12 18/18/18 14/14/14
f 12/12/12 15/15/15 18/18/18
f 15/15/15 17/17/17 19/19/19
f 15/15/15 19/19/19 18/18/18
f 17/17/17 20/20/20 19/19/19
f 20/20/20 21/21/21 19/19/19
f 21/21/21 22/22/22 19/19/19
f 19/19/19 22/22/22 18/18/18
f 21/21/21 23/23/23 22/22/22
f 23/23/23 24/24/24 22/22/22
f 18/18/18 25/25/25 14/14/14
f 22/22/22 25/25/25 18/18/18
f 22/22/22 24/24/24 25/25/25
f 25/25/25 26/26/26 14/14/14
f 24/24/24 27/27/27 25/25/25
f 25/25/25 27/27/27 26/26/26
f 27/27/27 28/28/28 26/26/26
f 31/31/31 30/30/30 29/29/29
f 32/32/32 31/31/31 29/29/29
f 33/33/33 31/31/31 32/32/32
f 34/34/34 33/33/33 32/32/32
f 33/33/33 34/34/34 35/35/35
f 36/36/36 33/33/33 35/35/35
f 36/36/36 35/35/35 37/37/37
f 38/38/38 36/36/36 37/37/37
f 32/32/32 29/29/29 39/39/39
f 39/39/39 29/29/29 40/40/40
f 29/29/29 41/41/41 40/40/40
f 40/40/40 41/41/41 42/42/42
f 41/41/41 43/43/43 42/42/42
f 43/43/43 41/41/41 44/44/44
f 45/45/45 32/32/32 39/39/39
f 42/42/42 43/43/43 45/45/45
f 43/43/43 32/32/32 45/45/45
f 46/46/46 43/43/43 44/44/44
f 47/47/47 43/43/43 46/46/46
f 48/48/48 47/47/47 46/46/46
f 47/47/47 48/48/48 49/49/49
f 50/50/50 47/47/47 49/49/49
f 50/50/50 49/49/49 51/51/51
f 52/52/52 50/50/50 51/51/51
f 32/32/32 43/43/43 53/53/53
f 54/54/54 32/32/32 53/53/53
f 53/53/53 43/43/43 55/55/55
f 43/43/43 47/47/47 55/55/55
f 34/34/34 32/32/32 54/54/54
f 55/55/55 47/47/47 56/56/56
f 56/56/56 34/34/34 54/54/54
f 47/47/47 34/34/34 56/56/56
f 34/34/34 47/47/47 57/57/57
f 34/34/34 57/57/57 58/58/58
f 47/47/47 59/59/59 57/57/57
f 47/47/47 50/50/50 59/59/59
f 35/35/35 34/34/34 58/58/58
f 50/50/50 60/60/60 59/59/59
f 35/35/35 58/58/58 60/60/60
f 50/50/50 35/35/35 60/60/60
f 50/50/50 52/52/52 61/61/61
f 50/50/50 61/61/61 62/62/62
f 35/35/35 50/50/50 62/62/62
f 52/52/52 63/63/63 61/61/61
f 35/35/35 62/62/62 64/64/64
f 52/52/52 37/37/37 63/63/63
f 37/37/37 35/35/35 64/64/64
f 37/37/37 64/64/64 63/63/63
f 67/67/67 66/66/66 65/65/65
f 66/66/66 68/68/68 65/65/65
f 66/66/66 69/69/69 68/68/68
f 69/69/69 70/70/70 68/68/68
f 70/70/70 69/69/69 71/71/71
f 69/69/69 72/72/72 71/71/71
f 71/71/71 72/72/72 73/73/73
f 72/72/72 74/74/74 73/73/73
f 77/77/77 76/76/76 75/75/75
f 78/78/78 77/77/77 75/75/75
f 81/81/81 80/80/80 79/79/79
f 82/82/82 81/81/81 79/79/79
f 85/85/85 84/84/84 83/83/83
f 86/86/86 85/85/85 83/83/83
f 89/89/89 88/88/88 87/87/87
f 90/90/90 89/89/89 87/87/87
f 93/93/93 92/92/92 91/91/91
f 94/94/94 93/93/93 91/91/91
f 97/97/97 96/96/96 95/95/95
f 98/98/98 97/97/97 95/95/95
f 101/101/101 100/100/100 99/99/99
f 102/102/102 101/101/101 99/99/99
f 105/105/105 104/104/104 103/103/103
f 106/106/106 105/105/105 103/103/103
f 109/109/109 108/108/108 107/107/107
f 110/110/110 109/109/109 107/107/107
f 113/113/113 112/112/112 111/111/111
f 114/114/114 113/113/113 111/111/111
f 117/117/117 116/116/116 115/115/115
f 116/116/116 118/118/118 115/115/115
f 115/115/115 118/118/118 119/119/119
f 118/118/118 120/120/120 119/119/119
f 119/119/119 120/120/120 121/121/121
f 120/120/120 122/122/122 121/121/121
f 125/125/125 124/124/124 123/123/123
f 126/126/126 125/125/125 123/123/123
f 129/129/129 128/128/128 127/127/127
f 130/130/130 129/129/129 127/127/127
f 133/133/133 132/132/132 131/131/131
f 134/134/134 133/133/133 131/131/131
f 137/137/137 136/136/136 135/135/135
f 138/138/138 137/137/137 135/135/135
f 141/141/141 140/140/140 139/139/139
f 142/142/142 141/141/141 139/139/139
f 145/145/145 144/144/144 143/143/143
f 146/146/146 145/145/145 143/143/143
f 149/149/149 148/148/148 147/147/147
f 150/150/150 149/149/149 147/147/147
f 153/153/153 152/152/152 151/151/151
f 154/154/154 153/153/153 151/151/151
f 157/157/157 156/156/156 155/155/155
f 158/158/158 157/157/157 155/155/155
f 161/161/161 160/160/160 159/159/159
f 162/162/162 161/161/161 159/159/159
f 165/165/165 164/164/164 163/163/163
f 164/164/164 166/166/166 163/163/163
f 169/169/169 168/168/168 167/167/167
f 168/168/168 170/170/170 167/167/167
f 173/173/173 172/172/172 171/171/171
f 172/172/172 174/174/174 171/171/171
f 177/177/177 176/176/176 175/175/175
f 176/176/176 178/178/178 175/175/175
f 181/181/181 180/180/180 179/179/179
f 180/180/180 182/182/182 179/179/179
f 185/185/185 184/184/184 183/183/183
f 184/184/184 186/186/186 183/183/183
g CabinetBody_85875082
v 1.98116 0.04925 3.77164
v 1.98116 -0.00844 3.77164
v 1.61745 -0.00844 3.77164
v 1.61745 0.04925 3.77164
v 1.98116 0.57203 3.77164
v 1.61745 0.57203 3.77164
v 1.98116 0.73133 3.77164
v 1.61745 0.73133 3.77164
v 1.98116 0.73133 3.44599
v 1.98116 0.57203 3.77164
v 1.98116 0.73133 3.77164
v 1.98116 0.57203 3.44599
v 1.98116 0.04925 3.77164
v 1.98116 0.73133 3.13205
v 1.98116 0.04925 3.44599
v 1.98116 -0.00844 3.77164
v 1.98116 -0.00844 3.44599
v 1.98116 0.57203 3.13205
v 1.98116 0.04925 3.13205
v 1.98116 -0.00844 3.13205
v 1.98116 -0.00844 2.79992
v 1.98116 0.04925 2.79992
v 1.98116 -0.00844 2.47427
v 1.98116 0.04925 2.47427
v 1.98116 0.57203 2.79992
v 1.98116 0.73133 2.79992
v 1.98116 0.57203 2.47427
v 1.98116 0.73133 2.47427
v 1.61745 0.04925 3.77164
v 1.61745 -0.00844 3.77164
v 1.61745 -0.00844 3.44599
v 1.61745 0.04925 3.44599
v 1.61745 -0.00844 3.13205
v 1.61745 0.04925 3.13205
v 1.61745 0.04925 2.79992
v 1.61745 -0.00844 2.79992
v 1.61745 0.04925 2.47427
v 1.61745 -0.00844 2.47427
v 1.61745 0.05819 3.75202
v 1.61745 0.5631 3.75202
v 1.61745 0.57203 3.77164
v 1.61745 0.5631 3.4656
v 1.61745 0.57203 3.44599
v 1.61745 0.73133 3.77164
v 1.61745 0.05819 3.4656
v 1.61745 0.73133 3.44599
v 1.61745 0.57203 3.13205
v 1.61745 0.73133 3.13205
v 1.61745 0.73133 2.79992
v 1.61745 0.57203 2.79992
v 1.61745 0.73133 2.47427
v 1.61745 0.57203 2.47427
v 1.61745 0.5631 3.42637
v 1.61745 0.05819 3.42637
v 1.61745 0.5631 3.13995
v 1.61745 0.05819 3.13995
v 1.61745 0.05819 3.10596
v 1.61745 0.05819 2.81954
v 1.61745 0.5631 3.10596
v 1.61745 0.5631 2.81954
v 1.61745 0.5631 2.78031
v 1.61745 0.05819 2.78031
v 1.61745 0.5631 2.49388
v 1.61745 0.05819 2.49388
v 1.98116 -0.00844 3.77164
v 1.61745 -0.00844 3.44599
v 1.61745 -0.00844 3.77164
v 1.98116 -0.00844 3.44599
v 1.61745 -0.00844 3.13205
v 1.98116 -0.00844 3.13205
v 1.98116 -0.00844 2.79992
v 1.61745 -0.00844 2.79992
v 1.98116 -0.00844 2.47427
v 1.61745 -0.00844 2.47427
v 1.61745 0.05819 3.42637
v 1.94673 0.05819 3.42637
v 1.94673 0.5631 3.42637
v 1.61745 0.5631 3.42637
v 1.61745 0.05819 3.4656
v 1.94673 0.05819 3.4656
v 1.94673 0.05819 3.75202
v 1.61745 0.05819 3.75202
v 1.94673 0.5631 3.75202
v 1.94673 0.05819 3.75202
v 1.94673 0.05819 3.4656
v 1.94673 0.5631 3.4656
v 1.94673 0.5631 3.42637
v 1.94673 0.05819 3.42637
v 1.94673 0.05819 3.13995
v 1.94673 0.5631 3.13995
v 1.61745 0.5631 3.75202
v 1.94673 0.5631 3.75202
v 1.94673 0.5631 3.4656
v 1.61745 0.5631 3.4656
v 1.61745 0.05819 3.13995
v 1.94673 0.05819 3.13995
v 1.94673 0.05819 3.42637
v 1.61745 0.05819 3.42637
v 1.61745 0.05819 3.75202
v 1.94673 0.05819 3.75202
v 1.94673 0.5631 3.75202
v 1.61745 0.5631 3.75202
v 1.61745 0.5631 3.42637
v 1.94673 0.5631 3.42637
v 1.94673 0.5631 3.13995
v 1.61745 0.5631 3.13995
v 1.61745 0.5631 3.4656
v 1.94673 0.5631 3.4656
v 1.94673 0.05819 3.4656
v 1.61745 0.05819 3.4656
v 1.61745 0.5631 3.13995
v 1.94673 0.5631 3.13995
v 1.94673 0.05819 3.13995
v 1.61745 0.05819 3.13995
v 1.98116 0.04925 2.47427
v 1.61745 -0.00844 2.47427
v 1.98116 -0.00844 2.47427
v 1.61745 0.04925 2.47427
v 1.98116 0.57203 2.47427
v 1.61745 0.57203 2.47427
v 1.98116 0.73133 2.47427
v 1.61745 0.73133 2.47427
v 1.61745 0.05819 2.81954
v 1.61745 0.5631 2.81954
v 1.94673 0.5631 2.81954
v 1.94673 0.05819 2.81954
v 1.61745 0.05819 2.78031
v 1.61745 0.05819 2.49388
v 1.94673 0.05819 2.49388
v 1.94673 0.05819 2.78031
v 1.94673 0.5631 2.49388
v 1.94673 0.5631 2.78031
v 1.94673 0.05819 2.78031
v 1.94673 0.05819 2.49388
v 1.94673 0.5631 2.81954
v 1.94673 0.5631 3.10596
v 1.94673 0.05819 3.10596
v 1.94673 0.05819 2.81954
v 1.61745 0.5631 2.49388
v 1.61745 0.5631 2.78031
v 1.94673 0.5631 2.78031
v 1.94673 0.5631 2.49388
v 1.61745 0.05819 3.10596
v 1.61745 0.05819 2.81954
v 1.94673 0.05819 2.81954
v 1.94673 0.05819 3.10596
v 1.61745 0.05819 2.49388
v 1.61745 0.5631 2.49388
v 1.94673 0.5631 2.49388
v 1.94673 0.05819 2.49388
v 1.61745 0.5631 2.81954
v 1.61745 0.5631 3.10596
v 1.94673 0.5631 3.10596
v 1.94673 0.5631 2.81954
v 1.61745 0.5631 2.78031
v 1.61745 0.05819 2.78031
v 1.94673 0.05819 2.78031
v 1.94673 0.5631 2.78031
v 1.61745 0.5631 3.10596
v 1.61745 0.05819 3.10596
v 1.94673 0.05819 3.10596
v 1.94673 0.5631 3.10596
v 1.60596 0.71649 3.75821
v 1.60596 0.58524 2.48384
v 1.60596 0.71649 2.48384
v 1.60596 0.58524 3.75821
v 1.60596 0.58524 3.75821
v 1.6212 0.71649 3.75821
v 1.6212 0.58524 3.75821
v 1.60596 0.71649 3.75821
v 1.60596 0.71649 3.75821
v 1.6212 0.71649 2.48384
v 1.6212 0.71649 3.75821
v 1.60596 0.71649 2.48384
v 1.60596 0.71649 2.48384
v 1.6212 0.58524 2.48384
v 1.6212 0.71649 2.48384
v 1.60596 0.58524 2.48384
v 1.60596 0.58524 2.48384
v 1.6212 0.58524 3.75821
v 1.6212 0.58524 2.48384
v 1.60596 0.58524 3.75821
v 1.6212 0.71649 3.75821
v 1.6212 0.58524 2.48384
v 1.6212 0.58524 3.75821
v 1.6212 0.71649 2.48384
vn 0 0 0.5773503
vn 0 0 0.5773503
vn 0 0 0.5773503
vn 0 0 0.5773503
vn 0 0 0.5773503
vn 0 0 0.5773503
vn 0 0 0.5773503
vn 0 0 0.5773503
vn 0.5773503 0 0
vn 0.5773503 0 0
vn 0.5773503 0 0
vn 0.5773503 0 0
vn 0.5773503 0 0
vn 0.5773503 0 0
vn 0.5773503 0 0
vn 0.5773503 0 0
vn 0.5773503 0 0
vn 0.5773503 0 0
vn 0.5773503 0 0
vn 0.5773503 0 0
vn 0.5773503 0 0
vn 0.5773503 0 0
vn 0.5773503 0 0
vn 0.5773503 0 0
vn 0.5773503 0 0
vn 0.5773503 0 0
vn 0.5773503 0 0
vn 0.5773503 0 0
vn -0.5773503 0 0
vn -0.5773503 0 0
vn -0.5773503 0 0
vn -0.5773503 0 0
vn -0.5773503 0 0
vn -0.5773503 0 0
vn -0.5773503 1.814881E-07 0
vn -0.5773503 1.814881E-07 0
vn -0.5773503 0 0
vn -0.5773503 0 0
vn -0.5773503 0 0
vn -0.5773503 0 0
vn -0.5773503 0 0
vn -0.5773503 0 0
vn -0.5773503 0 0
vn -0.5773503 0 0
vn -0.5773503 0 0
vn -0.5773503 0 0
vn -0.5773503 0 0
vn -0.5773503 0 0
vn -0.5773503 0 0
vn -0.5773503 0 0
vn -0.5773503 0 0
vn -0.5773503 0 0
vn -0.5773503 0 0
vn -0.5773503 1.194699E-06 0
vn -0.5773503 -1.161415E-06 0
vn -0.5773503 1.194699E-06 0
vn -0.5773503 -2.127255E-06 0
vn -0.5773503 -2.127255E-06 0
vn -0.5773503 1.946141E-06 0
vn -0.5773503 0 0
vn -0.5773503 0 0
vn -0.5773503 -7.777673E-07 0
vn -0.5773503 9.554831E-07 0
vn -0.5773503 -7.777673E-07 0
vn 0 -0.5773503 0
vn 0 -0.5773503 0
vn 0 -0.5773503 0
vn 0 -0.5773503 0
vn 0 -0.5773503 0
vn 0 -0.5773503 0
vn 0 -0.5773503 0
vn 0 -0.5773503 0
vn 0 -0.5773503 0
vn 0 -0.5773503 0
vn 0 0 -0.5773503
vn 0 0 -0.5773503
vn 0 0 -0.5773503
vn 0 0 -0.5773503
vn 0 0.5773503 0
vn 0 0.5773503 0
vn 0 0.5773503 0
vn 0 0.5773503 0
vn -0.5773503 0 0
vn -0.5773503 0 0
vn -0.5773503 0 0
vn -0.5773503 0 0
vn -0.5773503 0 0
vn -0.5773503 0 0
vn -0.5773503 0 0
vn -0.5773503 0 0
vn 0 -0.5773503 0
vn 0 -0.5773503 0
vn 0 -0.5773503 0
vn 0 -0.5773503 0
vn 0 0.5773503 0
vn 0 0.5773503 0
vn 0 0.5773503 0
vn 0 0.5773503 0
vn 0 0 -0.5773503
vn 0 0 -0.5773503
vn 0 0 -0.5773503
vn 0 0 -0.5773503
vn 0 -0.5773503 0
vn 0 -0.5773503 0
vn 0 -0.5773503 0
vn 0 -0.5773503 0
vn 0 0 0.5773503
vn 0 0 0.5773503
vn 0 0 0.5773503
vn 0 0 0.5773503
vn 0 0 0.5773503
vn 0 0 0.5773503
vn 0 0 0.5773503
vn 0 0 0.5773503
vn 0 0 -0.5773503
vn 0 0 -0.5773503
vn 0 0 -0.5773503
vn 0 0 -0.5773503
vn 0 0 -0.5773503
vn 0 0 -0.5773503
vn 0 0 -0.5773503
vn 0 0 -0.5773503
vn 0 0 0.5773503
vn 0 0 0.5773503
vn 0 0 0.5773503
vn 0 0 0.5773503
vn 0 0.5773503 0
vn 0 0.5773503 0
vn 0 0.5773503 0
vn 0 0.5773503 0
vn -0.5773503 0 0
vn -0.5773503 0 0
vn -0.5773503 0 0
vn -0.5773503 0 0
vn -0.5773503 0 0
vn -0.5773503 0 0
vn -0.5773503 0 0
vn -0.5773503 0 0
vn 0 -0.5773503 0
vn 0 -0.5773503 0
vn 0 -0.5773503 0
vn 0 -0.5773503 0
vn 0 0.5773503 0
vn 0 0.5773503 0
vn 0 0.5773503 0
vn 0 0.5773503 0
vn 0 0 0.5773503
vn 0 0 0.5773503
vn 0 0 0.5773503
vn 0 0 0.5773503
vn 0 -0.5773503 0
vn 0 -0.5773503 0
vn 0 -0.5773503 0
vn 0 -0.5773503 0
vn 0 0 -0.5773503
vn 0 0 -0.5773503
vn 0 0 -0.5773503
vn 0 0 -0.5773503
vn 0 0 -0.5773503
vn 0 0 -0.5773503
vn 0 0 -0.5773503
vn 0 0 -0.5773503
vn -0.5773503 0 0
vn -0.5773503 0 0
vn -0.5773503 0 0
vn -0.5773503 0 0
vn 0 0 0.5773503
vn 0 0 0.5773503
vn 0 0 0.5773503
vn 0 0 0.5773503
vn 0 0.5773503 0
vn 0 0.5773503 0
vn 0 0.5773503 0
vn 0 0.5773503 0
vn 0 0 -0.5773503
vn 0 0 -0.5773503
vn 0 0 -0.5773503
vn 0 0 -0.5773503
vn 0 -0.5773503 0
vn 0 -0.5773503 0
vn 0 -0.5773503 0
vn 0 -0.5773503 0
vn 0.5773503 0 0
vn 0.5773503 0 0
vn 0.5773503 0 0
vn 0.5773503 0 0
vt 1.109464 0.1079575
vt 1.109464 0.0502674
vt 0.7457498 0.0502674
vt 0.7457498 0.1079575
vt 1.109464 0.6307374
vt 0.7457498 0.6307374
vt 1.109464 0.7900286
vt 0.7457498 0.7900286
vt 0.5099255 0.5671457
vt 0.3506345 0.8927999
vt 0.5099255 0.8928003
vt 0.3506345 0.5671457
vt -0.1721451 0.8928003
vt 0.5099255 0.2532108
vt -0.1721451 0.5671457
vt -0.2298352 0.8928003
vt -0.2298352 0.5671457
vt 0.3506345 0.2532106
vt -0.1721451 0.2532108
vt -0.2298352 0.2532108
vt -0.2298348 -0.07891623
vt -0.1721449 -0.07891623
vt -0.2298348 -0.404571
vt -0.1721449 -0.404571
vt 0.3506345 -0.07891683
vt 0.5099255 -0.07891623
vt 0.3506345 -0.404571
vt 0.5099255 -0.4045706
vt 0.111877 -0.4045709
vt 0.05418715 -0.4045709
vt 0.05418715 -0.07891636
vt 0.111877 -0.07891636
vt 0.05418715 0.2350184
vt 0.111877 0.2350184
vt 0.1118773 0.5671455
vt 0.05418715 0.5671455
vt 0.1118773 0.8928002
vt 0.05418715 0.8928002
vt 0.1208091 -0.3849548
vt 0.6257247 -0.3849548
vt 0.6346566 -0.4045705
vt 0.6257247 -0.09853121
vt 0.6346566 -0.07891636
vt 0.7939476 -0.4045709
vt 0.1208091 -0.09853165
vt 0.7939476 -0.07891636
vt 0.6346566 0.2350187
vt 0.7939476 0.2350184
vt 0.7939476 0.5671455
vt 0.6346566 0.567146
vt 0.7939476 0.8927998
vt 0.6346566 0.8928002
vt 0.6257247 -0.05930029
vt 0.1208091 -0.05930029
vt 0.6257247 0.2271229
vt 0.1208091 0.2271225
vt 0.1208091 0.2611065
vt 0.1208094 0.5475296
vt 0.6257247 0.2611065
vt 0.6257247 0.54753
vt 0.6257247 0.5867609
vt 0.1208094 0.5867609
vt 0.6257247 0.8731843
vt 0.1208094 0.8731843
vt 0.819572 0.8928003
vt 0.4558582 0.5671457
vt 0.4558584 0.8928003
vt 0.819572 0.5671457
vt 0.4558584 0.2532108
vt 0.819572 0.2532108
vt 0.819572 -0.07891622
vt 0.4558584 -0.07891622
vt 0.819572 -0.404571
vt 0.4558584 -0.404571
vt 0.3694608 0.8369064
vt 0.6987465 0.8369064
vt 0.6987465 0.3319908
vt 0.3694608 0.3319908
vt 1.085243 0.9151713
vt 1.085243 0.5858852
vt 0.7988194 0.5858852
vt 0.7988194 0.9151713
vt 0.5562888 0.8369064
vt 0.5562888 0.3319906
vt 0.2698654 0.3319907
vt 0.269865 0.8369064
vt 0.4432611 0.8369063
vt 0.4432611 0.3319908
vt 0.1568381 0.3319908
vt 0.1568377 0.8369063
vt 0.9722155 1.02706
vt 0.9722155 0.6977738
vt 0.6857914 0.6977738
vt 0.6857914 1.02706
vt 0.5201049 1.101198
vt 0.5201049 0.7719117
vt 0.2336816 0.7719117
vt 0.2336816 1.101198
vt 0.01437961 0.8369064
vt 0.3436655 0.8369064
vt 0.3436655 0.3319908
vt 0.0143797 0.3319908
vt 0.9492405 0.9001722
vt 0.9492405 0.5708867
vt 0.6628177 0.5708867
vt 0.6628177 0.9001722
vt -0.1012027 1.029348
vt 0.228083 1.029348
vt 0.228083 0.5244323
vt -0.1012027 0.5244323
vt 0.3888861 1.029348
vt 0.7181718 1.029348
vt 0.7181718 0.5244323
vt 0.3888861 0.5244323
vt 1.101456 0.4522405
vt 0.7377418 0.5099306
vt 1.101456 0.5099306
vt 0.7377418 0.4522405
vt 1.101456 -0.07053892
vt 0.7377418 -0.07053892
vt 1.101456 -0.2298299
vt 0.7377418 -0.22983
vt 0.6275129 0.3234071
vt 0.6275129 0.8283224
vt 0.9567984 0.8283224
vt 0.9567984 0.3234071
vt 0.5727644 1.101198
vt 0.8591874 1.101198
vt 0.8591874 0.7719122
vt 0.5727644 0.7719122
vt 0.04267342 1.029348
vt 0.3290967 1.029348
vt 0.3290967 0.5244324
vt 0.04267342 0.5244324
vt 0.1573708 1.029348
vt 0.4437944 1.029348
vt 0.4437944 0.5244321
vt 0.1573712 0.5244323
vt 0.4597364 1.101198
vt 0.7461601 1.101198
vt 0.7461601 0.7719117
vt 0.4597364 0.7719117
vt 0.3467092 1.101198
vt 0.6331322 1.101198
vt 0.6331322 0.7719123
vt 0.3467092 0.7719119
vt 0.2586364 0.5244324
vt 0.2586364 1.029348
vt 0.5879221 1.029348
vt 0.5879221 0.5244324
vt 0.7775149 0.7882836
vt 1.063938 0.7882835
vt 1.063938 0.4589977
vt 0.7775149 0.4589978
vt 0.4984867 0.3319904
vt 0.4984867 0.8369066
vt 0.8277726 0.8369066
vt 0.8277726 0.3319905
vt 0.5191357 0.5244322
vt 0.5191357 1.029348
vt 0.8484215 1.029348
vt 0.8484215 0.5244322
vt 1.264741 0.5023493
vt -0.009631515 0.3711011
vt -0.009631872 0.5023492
vt 1.264741 0.3711011
vt 0.03340864 0.007332504
vt -0.09784579 0.0225774
vt 0.03340864 0.0225774
vt -0.09784579 0.007332504
vt 1.264734 0.4638306
vt -0.009625077 0.4790747
vt 1.264734 0.4790747
vt -0.009625077 0.4638306
vt 0.03340662 -0.004476845
vt -0.09784365 0.01076746
vt 0.03340662 0.0107674
vt -0.097844 -0.004476786
vt 1.264743 0.5338158
vt -0.009633541 0.5490595
vt 1.264743 0.5490596
vt -0.009633541 0.5338153
vt -0.00963223 0.5723342
vt 1.264741 0.4410862
vt -0.00963223 0.441086
vt 1.264741 0.5723343
usemtl Cream_wood
f 189/189/189 188/188/188 187/187/187
f 190/190/190 189/189/189 187/187/187
f 190/190/190 187/187/187 191/191/191
f 192/192/192 190/190/190 191/191/191
f 192/192/192 191/191/191 193/193/193
f 194/194/194 192/192/192 193/193/193
f 197/197/197 196/196/196 195/195/195
f 196/196/196 198/198/198 195/195/195
f 196/196/196 199/199/199 198/198/198
f 195/195/195 198/198/198 200/200/200
f 199/199/199 201/201/201 198/198/198
f 199/199/199 202/202/202 201/201/201
f 202/202/202 203/203/203 201/201/201
f 198/198/198 204/204/204 200/200/200
f 198/198/198 201/201/201 204/204/204
f 201/201/201 203/203/203 205/205/205
f 201/201/201 205/205/205 204/204/204
f 203/203/203 206/206/206 205/205/205
f 206/206/206 207/207/207 205/205/205
f 207/207/207 208/208/208 205/205/205
f 205/205/205 208/208/208 204/204/204
f 207/207/207 209/209/209 208/208/208
f 209/209/209 210/210/210 208/208/208
f 204/204/204 211/211/211 200/200/200
f 208/208/208 211/211/211 204/204/204
f 208/208/208 210/210/210 211/211/211
f 211/211/211 212/212/212 200/200/200
f 210/210/210 213/213/213 211/211/211
f 211/211/211 213/213/213 212/212/212
f 213/213/213 214/214/214 212/212/212
f 217/217/217 216/216/216 215/215/215
f 218/218/218 217/217/217 215/215/215
f 219/219/219 217/217/217 218/218/218
f 220/220/220 219/219/219 218/218/218
f 219/219/219 220/220/220 221/221/221
f 222/222/222 219/219/219 221/221/221
f 222/222/222 221/221/221 223/223/223
f 224/224/224 222/222/222 223/223/223
f 218/218/218 215/215/215 225/225/225
f 225/225/225 215/215/215 226/226/226
f 215/215/215 227/227/227 226/226/226
f 226/226/226 227/227/227 228/228/228
f 227/227/227 229/229/229 228/228/228
f 229/229/229 227/227/227 230/230/230
f 231/231/231 218/218/218 225/225/225
f 228/228/228 229/229/229 231/231/231
f 229/229/229 218/218/218 231/231/231
f 232/232/232 229/229/229 230/230/230
f 233/233/233 229/229/229 232/232/232
f 234/234/234 233/233/233 232/232/232
f 233/233/233 234/234/234 235/235/235
f 236/236/236 233/233/233 235/235/235
f 236/236/236 235/235/235 237/237/237
f 238/238/238 236/236/236 237/237/237
f 218/218/218 229/229/229 239/239/239
f 240/240/240 218/218/218 239/239/239
f 239/239/239 229/229/229 241/241/241
f 229/229/229 233/233/233 241/241/241
f 220/220/220 218/218/218 240/240/240
f 241/241/241 233/233/233 242/242/242
f 242/242/242 220/220/220 240/240/240
f 233/233/233 220/220/220 242/242/242
f 220/220/220 233/233/233 243/243/243
f 220/220/220 243/243/243 244/244/244
f 233/233/233 245/245/245 243/243/243
f 233/233/233 236/236/236 245/245/245
f 221/221/221 220/220/220 244/244/244
f 236/236/236 246/246/246 245/245/245
f 221/221/221 244/244/244 246/246/246
f 236/236/236 221/221/221 246/246/246
f 236/236/236 238/238/238 247/247/247
f 236/236/236 247/247/247 248/248/248
f 221/221/221 236/236/236 248/248/248
f 238/238/238 249/249/249 247/247/247
f 221/221/221 248/248/248 250/250/250
f 238/238/238 223/223/223 249/249/249
f 223/223/223 221/221/221 250/250/250
f 223/223/223 250/250/250 249/249/249
f 253/253/253 252/252/252 251/251/251
f 252/252/252 254/254/254 251/251/251
f 252/252/252 255/255/255 254/254/254
f 255/255/255 256/256/256 254/254/254
f 256/256/256 255/255/255 257/257/257
f 255/255/255 258/258/258 257/257/257
f 257/257/257 258/258/258 259/259/259
f 258/258/258 260/260/260 259/259/259
f 263/263/263 262/262/262 261/261/261
f 264/264/264 263/263/263 261/261/261
f 267/267/267 266/266/266 265/265/265
f 268/268/268 267/267/267 265/265/265
f 271/271/271 270/270/270 269/269/269
f 272/272/272 271/271/271 269/269/269
f 275/275/275 274/274/274 273/273/273
f 276/276/276 275/275/275 273/273/273
f 279/279/279 278/278/278 277/277/277
f 280/280/280 279/279/279 277/277/277
f 283/283/283 282/282/282 281/281/281
f 284/284/284 283/283/283 281/281/281
f 287/287/287 286/286/286 285/285/285
f 288/288/288 287/287/287 285/285/285
f 291/291/291 290/290/290 289/289/289
f 292/292/292 291/291/291 289/289/289
f 295/295/295 294/294/294 293/293/293
f 296/296/296 295/295/295 293/293/293
f 299/299/299 298/298/298 297/297/297
f 300/300/300 299/299/299 297/297/297
f 303/303/303 302/302/302 301/301/301
f 302/302/302 304/304/304 301/301/301
f 301/301/301 304/304/304 305/305/305
f 304/304/304 306/306/306 305/305/305
f 305/305/305 306/306/306 307/307/307
f 306/306/306 308/308/308 307/307/307
f 311/311/311 310/310/310 309/309/309
f 312/312/312 311/311/311 309/309/309
f 315/315/315 314/314/314 313/313/313
f 316/316/316 315/315/315 313/313/313
f 319/319/319 318/318/318 317/317/317
f 320/320/320 319/319/319 317/317/317
f 323/323/323 322/322/322 321/321/321
f 324/324/324 323/323/323 321/321/321
f 327/327/327 326/326/326 325/325/325
f 328/328/328 327/327/327 325/325/325
f 331/331/331 330/330/330 329/329/329
f 332/332/332 331/331/331 329/329/329
f 335/335/335 334/334/334 333/333/333
f 336/336/336 335/335/335 333/333/333
f 339/339/339 338/338/338 337/337/337
f 340/340/340 339/339/339 337/337/337
f 343/343/343 342/342/342 341/341/341
f 344/344/344 343/343/343 341/341/341
f 347/347/347 346/346/346 345/345/345
f 348/348/348 347/347/347 345/345/345
f 351/351/351 350/350/350 349/349/349
f 350/350/350 352/352/352 349/349/349
f 355/355/355 354/354/354 353/353/353
f 354/354/354 356/356/356 353/353/353
f 359/359/359 358/358/358 357/357/357
f 358/358/358 360/360/360 357/357/357
f 363/363/363 362/362/362 361/361/361
f 362/362/362 364/364/364 361/361/361
f 367/367/367 366/366/366 365/365/365
f 366/366/366 368/368/368 365/365/365
f 371/371/371 370/370/370 369/369/369
f 370/370/370 372/372/372 369/369/369
