mtllib FP324:Ceiling_022_2566271a.mtl
g FP324:Ceiling.022_2566271a
v -3.9112 2.50101 -2.9074
v -3.9112 2.49945 1.59876
v 2.1888 2.49945 1.59876
v 2.1888 2.50101 -2.9074
v -3.9112 2.70101 -2.90733
v -3.9112 2.50101 -2.9074
v 2.1888 2.50101 -2.9074
v 2.1888 2.70101 -2.90733
v 2.1888 2.70101 -2.90733
v 2.1888 2.50101 -2.9074
v 2.1888 2.49945 1.59876
v 2.1888 2.69945 1.59883
v 2.1888 2.69945 1.59883
v 2.1888 2.49945 1.59876
v -3.9112 2.49945 1.59876
v -3.9112 2.69945 1.59883
v -3.9112 2.69945 1.59883
v -3.9112 2.49945 1.59876
v -3.9112 2.50101 -2.9074
v -3.9112 2.70101 -2.90733
v -3.9112 2.70101 -2.90733
v 2.1888 2.70101 -2.90733
v 2.1888 2.69945 1.59883
v -3.9112 2.69945 1.59883
vn -0.01120996 -0.5773503 -0.002304219
vn -0.01120996 -0.5773503 -0.002304219
vn -0.01120996 -0.5773503 -0.002304219
vn -0.01120996 -0.5773503 -0.002304219
vn -0.01120996 0.000199518 -0.5794549
vn -0.01120996 0.000199518 -0.5794549
vn -0.01120996 0.000199518 -0.5794549
vn -0.01120996 0.000199518 -0.5794549
vn 0.5661403 0 -0.00210464
vn 0.5661403 0 -0.00210464
vn 0.5661403 0 -0.00210464
vn 0.5661403 0 -0.00210464
vn -0.01120996 -0.0001999693 0.5752456
vn -0.01120996 -0.0001999693 0.5752456
vn -0.01120996 -0.0001999693 0.5752456
vn -0.01120996 -0.0001999693 0.5752456
vn -0.5885602 0 -0.00210464
vn -0.5885602 0 -0.00210464
vn -0.5885602 0 -0.00210464
vn -0.5885602 0 -0.00210464
vn -0.01120996 0.5773503 -0.00190503
vn -0.01120996 0.5773503 -0.00190503
vn -0.01120996 0.5773503 -0.00190503
vn -0.01120996 0.5773503 -0.00190503
vt -1.990571 3.337368
vt 2.515592 3.337368
vt 2.515592 -2.762633
vt -1.990571 -2.762633
vt -0.08882908 3.337367
vt 0.1111713 3.337367
vt 0.1111713 -2.762632
vt -0.08882908 -2.762632
vt 1.000407 -1.465857
vt 0.8004062 -1.465927
vt 0.7988492 3.040245
vt 0.9988499 3.040315
vt 0.1362022 -2.762632
vt -0.06379808 -2.762632
vt -0.06379808 3.337367
vt 0.1362022 3.337367
vt 0.9744021 -1.465917
vt 0.7744017 -1.465847
vt 0.7759593 3.040303
vt 0.9759596 3.040234
vt 2.943427 3.337368
vt 2.943427 -2.762633
vt -1.562737 -2.762633
vt -1.562737 3.337368
usemtl Drywall4Tiled
f 3/3/3 2/2/2 1/1/1
f 4/4/4 3/3/3 1/1/1
f 7/7/7 6/6/6 5/5/5
f 8/8/8 7/7/7 5/5/5
f 11/11/11 10/10/10 9/9/9
f 12/12/12 11/11/11 9/9/9
f 15/15/15 14/14/14 13/13/13
f 16/16/16 15/15/15 13/13/13
f 19/19/19 18/18/18 17/17/17
f 20/20/20 19/19/19 17/17/17
f 23/23/23 22/22/22 21/21/21
f 24/24/24 23/23/23 21/21/21
g FP324:Ceiling.022_2566271a
v -3.9112 2.50101 -2.9074
v -3.9112 2.49945 1.59876
v 2.1888 2.49945 1.59876
v 2.1888 2.50101 -2.9074
v -3.9112 2.70101 -2.90733
v -3.9112 2.50101 -2.9074
v 2.1888 2.50101 -2.9074
v 2.1888 2.70101 -2.90733
v 2.1888 2.70101 -2.90733
v 2.1888 2.50101 -2.9074
v 2.1888 2.49945 1.59876
v 2.1888 2.69945 1.59883
v 2.1888 2.69945 1.59883
v 2.1888 2.49945 1.59876
v -3.9112 2.49945 1.59876
v -3.9112 2.69945 1.59883
v -3.9112 2.69945 1.59883
v -3.9112 2.49945 1.59876
v -3.9112 2.50101 -2.9074
v -3.9112 2.70101 -2.90733
v -3.9112 2.70101 -2.90733
v 2.1888 2.70101 -2.90733
v 2.1888 2.69945 1.59883
v -3.9112 2.69945 1.59883
vn -0.01120996 -0.5773503 -0.002304219
vn -0.01120996 -0.5773503 -0.002304219
vn -0.01120996 -0.5773503 -0.002304219
vn -0.01120996 -0.5773503 -0.002304219
vn -0.01120996 0.000199518 -0.5794549
vn -0.01120996 0.000199518 -0.5794549
vn -0.01120996 0.000199518 -0.5794549
vn -0.01120996 0.000199518 -0.5794549
vn 0.5661403 0 -0.00210464
vn 0.5661403 0 -0.00210464
vn 0.5661403 0 -0.00210464
vn 0.5661403 0 -0.00210464
vn -0.01120996 -0.0001999693 0.5752456
vn -0.01120996 -0.0001999693 0.5752456
vn -0.01120996 -0.0001999693 0.5752456
vn -0.01120996 -0.0001999693 0.5752456
vn -0.5885602 0 -0.00210464
vn -0.5885602 0 -0.00210464
vn -0.5885602 0 -0.00210464
vn -0.5885602 0 -0.00210464
vn -0.01120996 0.5773503 -0.00190503
vn -0.01120996 0.5773503 -0.00190503
vn -0.01120996 0.5773503 -0.00190503
vn -0.01120996 0.5773503 -0.00190503
vt -1.990571 3.337368
vt 2.515592 3.337368
vt 2.515592 -2.762633
vt -1.990571 -2.762633
vt -0.08882908 3.337367
vt 0.1111713 3.337367
vt 0.1111713 -2.762632
vt -0.08882908 -2.762632
vt 1.000407 -1.465857
vt 0.8004062 -1.465927
vt 0.7988492 3.040245
vt 0.9988499 3.040315
vt 0.1362022 -2.762632
vt -0.06379808 -2.762632
vt -0.06379808 3.337367
vt 0.1362022 3.337367
vt 0.9744021 -1.465917
vt 0.7744017 -1.465847
vt 0.7759593 3.040303
vt 0.9759596 3.040234
vt 2.943427 3.337368
vt 2.943427 -2.762633
vt -1.562737 -2.762633
vt -1.562737 3.337368
usemtl Drywall4Tiled
f 27/27/27 26/26/26 25/25/25
f 28/28/28 27/27/27 25/25/25
f 31/31/31 30/30/30 29/29/29
f 32/32/32 31/31/31 29/29/29
f 35/35/35 34/34/34 33/33/33
f 36/36/36 35/35/35 33/33/33
f 39/39/39 38/38/38 37/37/37
f 40/40/40 39/39/39 37/37/37
f 43/43/43 42/42/42 41/41/41
f 44/44/44 43/43/43 41/41/41
f 47/47/47 46/46/46 45/45/45
f 48/48/48 47/47/47 45/45/45
