mtllib Floor_ac9ce665.mtl
g mesh_7212d32b
v -1.68275 -0.19999 -2.2
v -1.68275 -0.2 2.26888
v 2.00636 -0.2 2.26888
v 2.00636 -0.19999 -2.2
v -1.68275 1E-05 -2.2
v -1.68275 -0.19999 -2.2
v 2.00636 -0.19999 -2.2
v 2.00636 1E-05 -2.2
v 2.00636 1E-05 -2.2
v 2.00636 -0.19999 -2.2
v 2.00636 -0.2 2.26888
v 2.00636 0 2.26888
v 2.00636 0 2.26888
v 2.00636 -0.2 2.26888
v -1.68275 -0.2 2.26888
v -1.68275 0 2.26888
v -1.68275 0 2.26888
v -1.68275 -0.2 2.26888
v -1.68275 -0.19999 -2.2
v -1.68275 1E-05 -2.2
v -1.68275 1E-05 -2.2
v 2.00636 1E-05 -2.2
v 2.00636 0 2.26888
v -1.68275 0 2.26888
vn 0 -0.5773503 -9.40623E-08
vn 0 -0.5773503 -9.40623E-08
vn 0 -0.5773503 -9.40623E-08
vn 0 -0.5773503 -9.40623E-08
vn 0 9.40623E-08 -0.5773503
vn 0 9.40623E-08 -0.5773503
vn 0 9.40623E-08 -0.5773503
vn 0 9.40623E-08 -0.5773503
vn 0.5773503 0 0
vn 0.5773503 0 0
vn 0.5773503 0 0
vn 0.5773503 0 0
vn 0 -9.40623E-08 0.5773503
vn 0 -9.40623E-08 0.5773503
vn 0 -9.40623E-08 0.5773503
vn 0 -9.40623E-08 0.5773503
vn -0.5773503 0 0
vn -0.5773503 0 0
vn -0.5773503 0 0
vn -0.5773503 0 0
vn 0 0.5773503 9.40623E-08
vn 0 0.5773503 9.40623E-08
vn 0 0.5773503 9.40623E-08
vn 0 0.5773503 9.40623E-08
vt 4.16665 -3.511869
vt 4.16665 1.31898
vt 7.579338 1.31898
vt 7.579338 -3.511869
vt 4.404579 4.082363
vt 4.404579 3.724747
vt 2.341409 3.724747
vt 2.341409 4.082363
vt -0.2761574 -3.431036
vt -0.2761574 -3.761856
vt -2.977854 -3.761856
vt -2.977854 -3.431036
vt 4.404578 5.332363
vt 4.404578 4.974747
vt 2.341411 4.974747
vt 2.341411 5.332363
vt -0.2761567 -4.681035
vt -0.2761567 -5.011855
vt -2.977854 -5.011855
vt -2.977854 -4.681035
vt -1.170661 -1.01187
vt -4.583349 -1.01187
vt -4.583349 3.81898
vt -1.170661 3.81898
usemtl Carpet5
f 3/3/3 2/2/2 1/1/1
f 4/4/4 3/3/3 1/1/1
f 7/7/7 6/6/6 5/5/5
f 8/8/8 7/7/7 5/5/5
f 11/11/11 10/10/10 9/9/9
f 12/12/12 11/11/11 9/9/9
f 15/15/15 14/14/14 13/13/13
f 16/16/16 15/15/15 13/13/13
f 19/19/19 18/18/18 17/17/17
f 20/20/20 19/19/19 17/17/17
f 23/23/23 22/22/22 21/21/21
f 24/24/24 23/23/23 21/21/21
