mtllib FP305:LightFixture1_90a86231.mtl
g FP305:LightFixture1_90a86231
v -0.24493 2.49993 -0.58108
v -0.23053 2.49178 -0.59547
v -0.24233 2.49178 -0.61312
v -0.26113 2.49993 -0.60534
v -0.22067 2.49993 -0.56488
v -0.24647 2.49178 -0.63394
v -0.26682 2.49993 -0.63394
v -0.21288 2.49178 -0.58368
v -0.19207 2.49993 -0.55919
v -0.24233 2.49178 -0.65476
v -0.26113 2.49993 -0.66255
v -0.19207 2.49178 -0.57954
v -0.16346 2.49993 -0.56488
v -0.23053 2.49178 -0.67241
v -0.24493 2.49993 -0.6868
v -0.17125 2.49178 -0.58368
v -0.13921 2.49993 -0.58108
v -0.21288 2.49178 -0.68421
v -0.22067 2.49993 -0.70301
v -0.1536 2.49178 -0.59547
v -0.123 2.49993 -0.60534
v -0.19207 2.49178 -0.68835
v -0.19207 2.49993 -0.7087
v -0.1418 2.49178 -0.61312
v -0.11731 2.49993 -0.63394
v -0.17125 2.49178 -0.68421
v -0.16346 2.49993 -0.70301
v -0.13766 2.49178 -0.63394
v -0.123 2.49993 -0.66255
v -0.1536 2.49178 -0.67241
v -0.13921 2.49993 -0.6868
v -0.1418 2.49178 -0.65476
v -0.19207 2.48858 -0.6505
v -0.18573 2.48858 -0.64924
v -0.1984 2.48858 -0.64924
v -0.18036 2.48858 -0.64565
v -0.20377 2.48858 -0.64565
v -0.17677 2.48858 -0.64028
v -0.20736 2.48858 -0.64028
v -0.20862 2.48858 -0.63394
v -0.17551 2.48858 -0.63394
v -0.17677 2.48858 -0.62761
v -0.20736 2.48858 -0.62761
v -0.18036 2.48858 -0.62224
v -0.20377 2.48858 -0.62224
v -0.18573 2.48858 -0.61865
v -0.1984 2.48858 -0.61865
v -0.19207 2.48858 -0.61739
v -0.1538 2.49348 -0.54156
v -0.19207 2.50348 -0.53394
v -0.1538 2.50348 -0.54156
v -0.19207 2.49348 -0.73394
v -0.1538 2.49348 -0.72633
v -0.1538 2.50348 -0.72633
v -0.19207 2.50348 -0.73394
v -0.23033 2.49348 -0.72633
v -0.23033 2.50348 -0.72633
v -0.26278 2.49348 -0.70466
v -0.23033 2.49348 -0.72633
v -0.23033 2.50348 -0.72633
v -0.26278 2.50348 -0.70466
v -0.28445 2.49348 -0.67221
v -0.26278 2.49348 -0.70466
v -0.26278 2.50348 -0.70466
v -0.28445 2.50348 -0.67221
v -0.29207 2.49348 -0.63394
v -0.29207 2.50348 -0.63394
v -0.28445 2.49348 -0.59568
v -0.28445 2.50348 -0.59568
v -0.26278 2.49348 -0.56323
v -0.26278 2.50348 -0.56323
v -0.23033 2.49348 -0.54156
v -0.26278 2.49348 -0.56323
v -0.26278 2.50348 -0.56323
v -0.23033 2.50348 -0.54156
v -0.19207 2.49348 -0.53394
v -0.23033 2.49348 -0.54156
v -0.23033 2.50348 -0.54156
v -0.19207 2.50348 -0.53394
v -0.1538 2.49348 -0.54156
v -0.12135 2.49348 -0.56323
v -0.1538 2.49348 -0.54156
v -0.1538 2.50348 -0.54156
v -0.12135 2.50348 -0.56323
v -0.09968 2.49348 -0.59568
v -0.09968 2.50348 -0.59568
v -0.09207 2.49348 -0.63394
v -0.09207 2.50348 -0.63394
v -0.09968 2.49348 -0.67221
v -0.09207 2.49348 -0.63394
v -0.09207 2.50348 -0.63394
v -0.09968 2.50348 -0.67221
v -0.12135 2.49348 -0.70466
v -0.12135 2.50348 -0.70466
v -0.1538 2.49348 -0.72633
v -0.1538 2.50348 -0.72633
v -0.13303 2.48653 -0.57491
v -0.16012 2.49993 -0.55682
v -0.16012 2.48653 -0.55682
v -0.13303 2.49993 -0.57491
v -0.11494 2.48653 -0.602
v -0.11494 2.49993 -0.602
v -0.10858 2.48653 -0.63394
v -0.10858 2.49993 -0.63394
v -0.11494 2.48653 -0.66589
v -0.11494 2.49993 -0.66589
v -0.16012 2.48653 -0.55682
v -0.16012 2.49993 -0.55682
v -0.19207 2.49993 -0.55046
v -0.19207 2.48653 -0.55046
v -0.19207 2.48653 -0.55046
v -0.19207 2.49993 -0.55046
v -0.22401 2.49993 -0.55682
v -0.22401 2.48653 -0.55682
v -0.22401 2.48653 -0.55682
v -0.22401 2.49993 -0.55682
v -0.2511 2.49993 -0.57491
v -0.2511 2.48653 -0.57491
v -0.26919 2.49993 -0.602
v -0.26919 2.48653 -0.602
v -0.26919 2.48653 -0.602
v -0.26919 2.49993 -0.602
v -0.27555 2.49993 -0.63394
v -0.27555 2.48653 -0.63394
v -0.26919 2.49993 -0.66589
v -0.26919 2.48653 -0.66589
v -0.2511 2.49993 -0.69298
v -0.2511 2.48653 -0.69298
v -0.22401 2.49993 -0.71107
v -0.22401 2.48653 -0.71107
v -0.22401 2.48653 -0.71107
v -0.22401 2.49993 -0.71107
v -0.19207 2.49993 -0.71743
v -0.19207 2.48653 -0.71743
v -0.16012 2.49993 -0.71107
v -0.16012 2.48653 -0.71107
v -0.16012 2.48653 -0.71107
v -0.16012 2.49993 -0.71107
v -0.13303 2.49993 -0.69298
v -0.13303 2.48653 -0.69298
v -0.11494 2.49993 -0.66589
v -0.11494 2.48653 -0.66589
v -0.19207 2.49348 -0.73394
v -0.19207 2.48853 -0.72426
v -0.1575 2.48853 -0.71738
v -0.1538 2.49348 -0.72633
v -0.23033 2.49348 -0.72633
v -0.1282 2.48853 -0.69781
v -0.12135 2.49348 -0.70466
v -0.22663 2.48853 -0.71738
v -0.26278 2.49348 -0.70466
v -0.10863 2.48853 -0.66851
v -0.09968 2.49348 -0.67221
v -0.25593 2.48853 -0.69781
v -0.28445 2.49348 -0.67221
v -0.10175 2.48853 -0.63394
v -0.09207 2.49348 -0.63394
v -0.2755 2.48853 -0.66851
v -0.29207 2.49348 -0.63394
v -0.10863 2.48853 -0.59938
v -0.09968 2.49348 -0.59568
v -0.28238 2.48853 -0.63394
v -0.28445 2.49348 -0.59568
v -0.1282 2.48853 -0.57008
v -0.12135 2.49348 -0.56323
v -0.2755 2.48853 -0.59938
v -0.26278 2.49348 -0.56323
v -0.1575 2.48853 -0.55051
v -0.1538 2.49348 -0.54156
v -0.25593 2.48853 -0.57008
v -0.23033 2.49348 -0.54156
v -0.19207 2.48853 -0.54363
v -0.19207 2.49348 -0.53394
v -0.22663 2.48853 -0.55051
v -0.13303 2.48653 -0.57491
v -0.11494 2.48653 -0.602
v -0.16012 2.48653 -0.55682
v -0.19207 2.48653 -0.55046
v -0.10858 2.48653 -0.63394
v -0.22401 2.48653 -0.55682
v -0.2511 2.48653 -0.57491
v -0.11494 2.48653 -0.66589
v -0.26919 2.48653 -0.602
v -0.13303 2.48653 -0.69298
v -0.27555 2.48653 -0.63394
v -0.16012 2.48653 -0.71107
v -0.26919 2.48653 -0.66589
v -0.19207 2.48653 -0.71743
v -0.2511 2.48653 -0.69298
v -0.22401 2.48653 -0.71107
v -0.2511 2.49993 -0.57491
v -0.26919 2.49993 -0.602
v -0.22401 2.49993 -0.55682
v -0.27555 2.49993 -0.63394
v -0.19207 2.49993 -0.55046
v -0.26919 2.49993 -0.66589
v -0.16012 2.49993 -0.55682
v -0.2511 2.49993 -0.69298
v -0.13303 2.49993 -0.57491
v -0.22401 2.49993 -0.71107
v -0.11494 2.49993 -0.602
v -0.19207 2.49993 -0.71743
v -0.10858 2.49993 -0.63394
v -0.16012 2.49993 -0.71107
v -0.11494 2.49993 -0.66589
v -0.13303 2.49993 -0.69298
vn -0.2692501 1.933061 -0.5567696
vn -0.2861117 1.938176 -0.539908
vn -0.3149416 1.938176 -0.5830551
vn -0.2929107 1.933061 -0.5921806
vn -0.2338396 1.933061 -0.5331093
vn -0.3250654 1.938177 -0.6339494
vn -0.3012193 1.933061 -0.6339494
vn -0.2429651 1.938176 -0.5110785
vn -0.1920704 1.933061 -0.524801
vn -0.3149416 1.938176 -0.6848437
vn -0.2929108 1.933061 -0.6757182
vn -0.1920703 1.938176 -0.500955
vn -0.1503011 1.933061 -0.5331094
vn -0.2861118 1.938176 -0.7279908
vn -0.2692501 1.933061 -0.7111292
vn -0.1411756 1.938176 -0.5110785
vn -0.1148909 1.933061 -0.5567696
vn -0.2429652 1.938176 -0.7568203
vn -0.2338398 1.933061 -0.7347895
vn -0.09802921 1.938176 -0.539908
vn -0.09123052 1.933061 -0.5921798
vn -0.1920705 1.938176 -0.7669439
vn -0.1920705 1.933061 -0.7430979
vn -0.0691997 1.938176 -0.5830543
vn -0.08292205 1.933061 -0.6339494
vn -0.1411756 1.938176 -0.7568201
vn -0.150301 1.933061 -0.7347893
vn -0.05907604 1.938176 -0.6339494
vn -0.09123052 1.933061 -0.675719
vn -0.09802912 1.938176 -0.7279907
vn -0.1148908 1.933061 -0.7111291
vn -0.06919976 1.938176 -0.6848446
vn -0.1920704 1.923563 -0.6664019
vn -0.1796514 1.923563 -0.6639315
vn -0.2044894 1.923563 -0.6639315
vn -0.1691231 1.923563 -0.6568968
vn -0.2150178 1.923563 -0.6568968
vn -0.1620883 1.923563 -0.6463685
vn -0.2220526 1.923563 -0.6463683
vn -0.2245229 1.923563 -0.6339494
vn -0.159618 1.923563 -0.6339494
vn -0.1620883 1.923563 -0.6215303
vn -0.2220526 1.923563 -0.6215305
vn -0.1691231 1.923563 -0.611002
vn -0.2150178 1.923563 -0.611002
vn -0.1796514 1.923563 -0.6039672
vn -0.2044894 1.923563 -0.6039672
vn -0.1920704 1.923563 -0.6014969
vn 0.02887151 2.5 -0.1005471
vn -0.1920704 2.5 -0.05659914
vn 0.02887151 2.5 -0.1005471
vn -0.1920704 2.5 -1.2113
vn 0.02887225 2.5 -1.167351
vn 0.02887225 2.5 -1.167351
vn -0.1920704 2.5 -1.2113
vn -0.4130131 2.5 -1.167351
vn -0.4130131 2.5 -1.167351
vn -0.6003189 2.5 -1.042197
vn -0.4130131 2.5 -1.167351
vn -0.4130131 2.5 -1.167351
vn -0.6003189 2.5 -1.042197
vn -0.7254727 2.5 -0.8548913
vn -0.6003189 2.5 -1.042197
vn -0.6003189 2.5 -1.042197
vn -0.7254727 2.5 -0.8548913
vn -0.7694207 2.5 -0.6339494
vn -0.7694207 2.5 -0.6339494
vn -0.7254728 2.5 -0.4130077
vn -0.7254728 2.5 -0.4130077
vn -0.6003188 2.5 -0.2257013
vn -0.6003188 2.5 -0.2257013
vn -0.4130123 2.5 -0.1005471
vn -0.6003188 2.5 -0.2257013
vn -0.6003188 2.5 -0.2257013
vn -0.4130123 2.5 -0.1005471
vn -0.1920704 2.5 -0.05659914
vn -0.4130123 2.5 -0.1005471
vn -0.4130123 2.5 -0.1005471
vn -0.1920704 2.5 -0.05659914
vn 0.02887151 2.5 -0.1005471
vn 0.216178 2.5 -0.2257013
vn 0.02887151 2.5 -0.1005471
vn 0.02887151 2.5 -0.1005471
vn 0.216178 2.5 -0.2257013
vn 0.3413316 2.5 -0.4130069
vn 0.3413316 2.5 -0.4130069
vn 0.3852798 2.5 -0.6339494
vn 0.3852798 2.5 -0.6339494
vn 0.3413315 2.5 -0.8548921
vn 0.3852798 2.5 -0.6339494
vn 0.3852798 2.5 -0.6339494
vn 0.3413315 2.5 -0.8548921
vn 0.2161781 2.5 -1.042197
vn 0.2161781 2.5 -1.042197
vn 0.02887225 2.5 -1.167351
vn 0.02887225 2.5 -1.167351
vn -0.6003186 2.5 -1.042198
vn -0.4130127 2.5 -1.167351
vn -0.4130127 2.5 -1.167351
vn -0.6003186 2.5 -1.042198
vn -0.7254721 2.5 -0.8548927
vn -0.7254721 2.5 -0.8548927
vn -0.7694207 2.5 -0.6339494
vn -0.7694207 2.5 -0.6339494
vn -0.7254721 2.5 -0.4130061
vn -0.7254721 2.5 -0.4130061
vn -0.4130127 2.5 -1.167351
vn -0.4130127 2.5 -1.167351
vn -0.1920704 2.5 -1.2113
vn -0.1920704 2.5 -1.2113
vn -0.1920704 2.5 -1.2113
vn -0.1920704 2.5 -1.2113
vn 0.02887085 2.5 -1.167352
vn 0.02887085 2.5 -1.167352
vn 0.02887085 2.5 -1.167352
vn 0.02887085 2.5 -1.167352
vn 0.2161775 2.5 -1.042198
vn 0.2161775 2.5 -1.042198
vn 0.3413324 2.5 -0.85489
vn 0.3413324 2.5 -0.85489
vn 0.3413324 2.5 -0.85489
vn 0.3413324 2.5 -0.85489
vn 0.3852798 2.5 -0.6339494
vn 0.3852798 2.5 -0.6339494
vn 0.3413324 2.5 -0.4130088
vn 0.3413324 2.5 -0.4130088
vn 0.2161779 2.5 -0.2257011
vn 0.2161779 2.5 -0.2257011
vn 0.02887125 2.5 -0.100547
vn 0.02887125 2.5 -0.100547
vn 0.02887125 2.5 -0.100547
vn 0.02887125 2.5 -0.100547
vn -0.1920704 2.5 -0.05659914
vn -0.1920704 2.5 -0.05659914
vn -0.4130132 2.5 -0.1005474
vn -0.4130132 2.5 -0.1005474
vn -0.4130132 2.5 -0.1005474
vn -0.4130132 2.5 -0.1005474
vn -0.6003189 2.5 -0.2257014
vn -0.6003189 2.5 -0.2257014
vn -0.7254721 2.5 -0.4130061
vn -0.7254721 2.5 -0.4130061
vn -0.1920704 1.985894 -0.8966813
vn -0.1920704 1.963518 -0.8473047
vn -0.1104227 1.963518 -0.8310639
vn -0.0915271 1.985894 -0.876682
vn -0.2926139 1.985894 -0.8766823
vn -0.04120559 1.963518 -0.7848141
vn -0.006291091 1.985893 -0.8197286
vn -0.2737183 1.963518 -0.8310645
vn -0.3778504 1.985894 -0.8197291
vn 0.005043596 1.963518 -0.7155969
vn 0.05066174 1.985893 -0.7344924
vn -0.3429362 1.963518 -0.784815
vn -0.4348018 1.985893 -0.7344921
vn 0.02128452 1.963518 -0.6339494
vn 0.07066138 1.985894 -0.6339494
vn -0.3891853 1.963518 -0.7155968
vn -0.454801 1.985893 -0.6339492
vn 0.005043983 1.963518 -0.5523018
vn 0.05066228 1.985894 -0.5334061
vn -0.4054262 1.963518 -0.6339493
vn -0.4348034 1.985894 -0.5334064
vn -0.04120572 1.963518 -0.483085
vn -0.006291285 1.985893 -0.4481706
vn -0.3891861 1.963519 -0.5523019
vn -0.3778502 1.985894 -0.4481698
vn -0.1104233 1.963518 -0.4368354
vn -0.09152792 1.985893 -0.3912174
vn -0.3429358 1.963518 -0.4830844
vn -0.2926134 1.985894 -0.3912167
vn -0.1920704 1.963518 -0.4205944
vn -0.1920704 1.985894 -0.3712175
vn -0.2737176 1.963518 -0.4368351
vn -0.07735726 1.945911 -0.5192364
vn -0.04219069 1.94591 -0.5718669
vn -0.1299882 1.94591 -0.4840698
vn -0.1920704 1.94591 -0.4717208
vn -0.02984186 1.94591 -0.6339494
vn -0.2541523 1.94591 -0.4840699
vn -0.3067842 1.945911 -0.5192362
vn -0.04219091 1.94591 -0.6960317
vn -0.3419525 1.945911 -0.5718668
vn -0.07735727 1.945911 -0.7486625
vn -0.3543018 1.945911 -0.6339494
vn -0.1299879 1.945911 -0.7838292
vn -0.3419525 1.945911 -0.696032
vn -0.1920705 1.945911 -0.7961786
vn -0.3067849 1.945911 -0.7486636
vn -0.2541532 1.945911 -0.7838303
vn -0.1920704 1.92265 -0.6339494
vn -0.1920704 1.92265 -0.6339494
vn -0.1920704 1.92265 -0.6339494
vn -0.1920704 1.92265 -0.6339494
vn -0.1920704 1.92265 -0.6339494
vn -0.1920704 1.92265 -0.6339494
vn -0.1920704 1.92265 -0.6339494
vn -0.1920704 1.92265 -0.6339494
vn -0.1920704 1.92265 -0.6339494
vn -0.1920704 1.92265 -0.6339494
vn -0.1920704 1.92265 -0.6339494
vn -0.1920704 1.92265 -0.6339494
vn -0.1920704 1.92265 -0.6339494
vn -0.1920704 1.92265 -0.6339494
vn -0.1920704 1.92265 -0.6339494
vn -0.1920704 1.92265 -0.6339494
vt 0.7609773 0.8259588
vt 0.746361 0.8113424
vt 0.728434 0.8233209
vt 0.7363442 0.8424181
vt 0.7774367 0.8013256
vt 0.7072874 0.827527
vt 0.7072874 0.8481975
vt 0.7583395 0.7934154
vt 0.7832164 0.7722689
vt 0.6861409 0.8233209
vt 0.6782305 0.8424181
vt 0.7625458 0.7722689
vt 0.7774367 0.7432122
vt 0.6682138 0.8113424
vt 0.6535975 0.8259588
vt 0.7583395 0.7511225
vt 0.7609773 0.7185791
vt 0.6562353 0.7934154
vt 0.6371382 0.8013256
vt 0.746361 0.7331954
vt 0.7363442 0.7021196
vt 0.6520291 0.7722689
vt 0.6313584 0.7722689
vt 0.7284339 0.7212168
vt 0.7072874 0.6963398
vt 0.6562353 0.7511225
vt 0.6371381 0.7432122
vt 0.7072874 0.7170105
vt 0.6782305 0.7021196
vt 0.6682138 0.7331954
vt 0.6535975 0.7185791
vt 0.686141 0.7212168
vt 0.6904707 0.7722689
vt 0.6917508 0.7658336
vt 0.6917509 0.7787044
vt 0.6953961 0.7603778
vt 0.6953962 0.7841601
vt 0.7008522 0.7567322
vt 0.7008517 0.7878054
vt 0.7072874 0.7890854
vt 0.7072874 0.7554522
vt 0.7137228 0.7567322
vt 0.713723 0.7878054
vt 0.7191787 0.7603778
vt 0.7191787 0.7841601
vt 0.722824 0.7658334
vt 0.722824 0.7787044
vt 0.7241041 0.7722689
vt 0.3405293 0.6113667
vt 0.3506266 0.6500083
vt 0.3506266 0.6113667
vt 0.383402 0.6500083
vt 0.383402 0.6113666
vt 0.3733048 0.6113666
vt 0.3733048 0.6500083
vt 0.383402 0.6886499
vt 0.3733048 0.6886499
vt 0.5565527 0.3314043
vt 0.5565527 0.3558044
vt 0.5678086 0.3558044
vt 0.5678086 0.3314043
vt 0.5565527 0.2948871
vt 0.5565527 0.3314043
vt 0.5678086 0.3314043
vt 0.5678086 0.2948871
vt 0.5565527 0.2518117
vt 0.5678086 0.2518117
vt 0.5565527 0.2087365
vt 0.5678086 0.2087365
vt 0.5565527 0.172219
vt 0.5678086 0.172219
vt 0.5565527 0.1478189
vt 0.5565527 0.172219
vt 0.5678086 0.172219
vt 0.5678086 0.1478189
vt 0.3405293 0.6500083
vt 0.3405293 0.6886498
vt 0.3506266 0.6886498
vt 0.3506266 0.6500083
vt 0.3405293 0.6113667
vt 0.5893496 0.3314042
vt 0.5893496 0.3558043
vt 0.6006054 0.3558043
vt 0.6006054 0.3314042
vt 0.5893496 0.2948868
vt 0.6006054 0.2948868
vt 0.5893496 0.2518117
vt 0.6006054 0.2518117
vt 0.5893496 0.2087363
vt 0.5893496 0.2518117
vt 0.6006054 0.2518117
vt 0.6006054 0.2087363
vt 0.5893496 0.1722191
vt 0.6006054 0.1722191
vt 0.5893496 0.147819
vt 0.6006054 0.147819
vt 0.4501539 0.6886393
vt 0.465237 0.6682693
vt 0.4501539 0.6682693
vt 0.465237 0.6886393
vt 0.4501539 0.719125
vt 0.465237 0.719125
vt 0.4501539 0.7550851
vt 0.465237 0.7550851
vt 0.4501539 0.7910455
vt 0.465237 0.7910455
vt 0.3149707 0.6006575
vt 0.3014402 0.6006575
vt 0.3014402 0.6329165
vt 0.3149707 0.6329165
vt 0.3149707 0.6329165
vt 0.3014402 0.6329165
vt 0.3014402 0.6651752
vt 0.3149707 0.6651752
vt 0.4081844 0.8419008
vt 0.4232674 0.8419008
vt 0.4232674 0.8215308
vt 0.4081844 0.8215308
vt 0.4232674 0.7910451
vt 0.4081844 0.7910451
vt 0.4081844 0.7910451
vt 0.4232674 0.7910451
vt 0.4232674 0.7550851
vt 0.4081844 0.7550851
vt 0.4232674 0.7191248
vt 0.4081844 0.7191248
vt 0.4232674 0.6886392
vt 0.4081844 0.6886392
vt 0.4232674 0.6682695
vt 0.4081844 0.6682695
vt 0.2594706 0.6651753
vt 0.2730012 0.6651753
vt 0.2730012 0.6329165
vt 0.2594706 0.6329165
vt 0.2730012 0.6006574
vt 0.2594706 0.6006574
vt 0.4501539 0.8419009
vt 0.465237 0.8419009
vt 0.465237 0.8215311
vt 0.4501539 0.8215311
vt 0.465237 0.7910455
vt 0.4501539 0.7910455
vt 0.2722651 0.1677669
vt 0.2722651 0.1779013
vt 0.3084263 0.1850942
vt 0.3123046 0.1757313
vt 0.2322257 0.1757313
vt 0.3390822 0.2055779
vt 0.3462484 0.1984118
vt 0.236104 0.1850942
vt 0.1982818 0.1984118
vt 0.359566 0.2362339
vt 0.3689289 0.2323556
vt 0.2054479 0.2055779
vt 0.1756013 0.2323556
vt 0.3667589 0.2723951
vt 0.3768933 0.2723951
vt 0.1849644 0.2362339
vt 0.167637 0.2723951
vt 0.359566 0.3085563
vt 0.3689289 0.3124346
vt 0.1777716 0.2723951
vt 0.1756013 0.3124346
vt 0.3390822 0.3392122
vt 0.3462484 0.3463784
vt 0.1849644 0.3085563
vt 0.1982818 0.3463784
vt 0.3084263 0.3596959
vt 0.3123046 0.3690589
vt 0.2054479 0.3392122
vt 0.2322257 0.3690589
vt 0.2722651 0.3668888
vt 0.2722651 0.3770232
vt 0.236104 0.3596959
vt 0.3340282 0.3341583
vt 0.3529626 0.3058212
vt 0.3056911 0.3530927
vt 0.2722651 0.3597414
vt 0.3596115 0.2723951
vt 0.2388392 0.3530927
vt 0.2105018 0.3341583
vt 0.3529626 0.2389691
vt 0.1915676 0.3058212
vt 0.3340282 0.2106319
vt 0.1849189 0.2723951
vt 0.3056911 0.1916976
vt 0.1915676 0.2389691
vt 0.2722651 0.1850488
vt 0.2105018 0.2106319
vt 0.2388392 0.1916976
vt 0.7672457 0.8322272
vt 0.7397366 0.8506081
vt 0.7856267 0.8047179
vt 0.7072874 0.8570625
vt 0.7920811 0.7722689
vt 0.6748382 0.8506081
vt 0.7856267 0.7398196
vt 0.6473292 0.8322272
vt 0.7672457 0.7123107
vt 0.6289482 0.8047179
vt 0.7397366 0.6939297
vt 0.6224937 0.7722689
vt 0.7072874 0.6874751
vt 0.6289482 0.7398196
vt 0.6748382 0.6939297
vt 0.6473292 0.7123107
usemtl Light1
f 3/3/3 2/2/2 1/1/1
f 4/4/4 3/3/3 1/1/1
f 1/1/1 2/2/2 5/5/5
f 6/6/6 3/3/3 4/4/4
f 7/7/7 6/6/6 4/4/4
f 2/2/2 8/8/8 5/5/5
f 5/5/5 8/8/8 9/9/9
f 10/10/10 6/6/6 7/7/7
f 11/11/11 10/10/10 7/7/7
f 8/8/8 12/12/12 9/9/9
f 9/9/9 12/12/12 13/13/13
f 14/14/14 10/10/10 11/11/11
f 15/15/15 14/14/14 11/11/11
f 12/12/12 16/16/16 13/13/13
f 13/13/13 16/16/16 17/17/17
f 18/18/18 14/14/14 15/15/15
f 19/19/19 18/18/18 15/15/15
f 16/16/16 20/20/20 17/17/17
f 17/17/17 20/20/20 21/21/21
f 22/22/22 18/18/18 19/19/19
f 23/23/23 22/22/22 19/19/19
f 20/20/20 24/24/24 21/21/21
f 21/21/21 24/24/24 25/25/25
f 26/26/26 22/22/22 23/23/23
f 27/27/27 26/26/26 23/23/23
f 24/24/24 28/28/28 25/25/25
f 25/25/25 28/28/28 29/29/29
f 30/30/30 26/26/26 27/27/27
f 31/31/31 30/30/30 27/27/27
f 29/29/29 32/32/32 31/31/31
f 28/28/28 32/32/32 29/29/29
f 32/32/32 30/30/30 31/31/31
f 22/22/22 33/33/33 18/18/18
f 26/26/26 34/34/34 22/22/22
f 34/34/34 33/33/33 22/22/22
f 33/33/33 35/35/35 18/18/18
f 35/35/35 33/33/33 34/34/34
f 18/18/18 35/35/35 14/14/14
f 36/36/36 34/34/34 26/26/26
f 30/30/30 36/36/36 26/26/26
f 34/34/34 36/36/36 35/35/35
f 35/35/35 37/37/37 14/14/14
f 36/36/36 37/37/37 35/35/35
f 14/14/14 37/37/37 10/10/10
f 38/38/38 36/36/36 30/30/30
f 32/32/32 38/38/38 30/30/30
f 36/36/36 38/38/38 37/37/37
f 37/37/37 39/39/39 10/10/10
f 38/38/38 39/39/39 37/37/37
f 10/10/10 39/39/39 6/6/6
f 39/39/39 40/40/40 6/6/6
f 38/38/38 40/40/40 39/39/39
f 6/6/6 40/40/40 3/3/3
f 41/41/41 38/38/38 32/32/32
f 38/38/38 41/41/41 40/40/40
f 28/28/28 41/41/41 32/32/32
f 42/42/42 41/41/41 28/28/28
f 41/41/41 42/42/42 40/40/40
f 24/24/24 42/42/42 28/28/28
f 40/40/40 43/43/43 3/3/3
f 42/42/42 43/43/43 40/40/40
f 3/3/3 43/43/43 2/2/2
f 44/44/44 42/42/42 24/24/24
f 42/42/42 44/44/44 43/43/43
f 20/20/20 44/44/44 24/24/24
f 43/43/43 45/45/45 2/2/2
f 44/44/44 45/45/45 43/43/43
f 2/2/2 45/45/45 8/8/8
f 46/46/46 44/44/44 20/20/20
f 44/44/44 46/46/46 45/45/45
f 16/16/16 46/46/46 20/20/20
f 45/45/45 47/47/47 8/8/8
f 46/46/46 47/47/47 45/45/45
f 8/8/8 47/47/47 12/12/12
f 48/48/48 46/46/46 16/16/16
f 12/12/12 48/48/48 16/16/16
f 46/46/46 48/48/48 47/47/47
f 47/47/47 48/48/48 12/12/12
usemtl WhitePlastic
f 51/51/51 50/50/50 49/49/49
f 54/54/54 53/53/53 52/52/52
f 55/55/55 54/54/54 52/52/52
f 55/55/55 52/52/52 56/56/56
f 57/57/57 55/55/55 56/56/56
f 60/60/60 59/59/59 58/58/58
f 61/61/61 60/60/60 58/58/58
f 64/64/64 63/63/63 62/62/62
f 65/65/65 64/64/64 62/62/62
f 65/65/65 62/62/62 66/66/66
f 67/67/67 65/65/65 66/66/66
f 67/67/67 66/66/66 68/68/68
f 69/69/69 67/67/67 68/68/68
f 69/69/69 68/68/68 70/70/70
f 71/71/71 69/69/69 70/70/70
f 74/74/74 73/73/73 72/72/72
f 75/75/75 74/74/74 72/72/72
f 78/78/78 77/77/77 76/76/76
f 79/79/79 78/78/78 76/76/76
f 79/79/79 76/76/76 80/80/80
f 83/83/83 82/82/82 81/81/81
f 84/84/84 83/83/83 81/81/81
f 84/84/84 81/81/81 85/85/85
f 86/86/86 84/84/84 85/85/85
f 86/86/86 85/85/85 87/87/87
f 88/88/88 86/86/86 87/87/87
f 91/91/91 90/90/90 89/89/89
f 92/92/92 91/91/91 89/89/89
f 92/92/92 89/89/89 93/93/93
f 94/94/94 92/92/92 93/93/93
f 94/94/94 93/93/93 95/95/95
f 96/96/96 94/94/94 95/95/95
f 99/99/99 98/98/98 97/97/97
f 98/98/98 100/100/100 97/97/97
f 97/97/97 100/100/100 101/101/101
f 100/100/100 102/102/102 101/101/101
f 101/101/101 102/102/102 103/103/103
f 102/102/102 104/104/104 103/103/103
f 103/103/103 104/104/104 105/105/105
f 104/104/104 106/106/106 105/105/105
f 109/109/109 108/108/108 107/107/107
f 110/110/110 109/109/109 107/107/107
f 113/113/113 112/112/112 111/111/111
f 114/114/114 113/113/113 111/111/111
f 117/117/117 116/116/116 115/115/115
f 118/118/118 117/117/117 115/115/115
f 119/119/119 117/117/117 118/118/118
f 120/120/120 119/119/119 118/118/118
f 123/123/123 122/122/122 121/121/121
f 124/124/124 123/123/123 121/121/121
f 125/125/125 123/123/123 124/124/124
f 126/126/126 125/125/125 124/124/124
f 127/127/127 125/125/125 126/126/126
f 128/128/128 127/127/127 126/126/126
f 129/129/129 127/127/127 128/128/128
f 130/130/130 129/129/129 128/128/128
f 133/133/133 132/132/132 131/131/131
f 134/134/134 133/133/133 131/131/131
f 135/135/135 133/133/133 134/134/134
f 136/136/136 135/135/135 134/134/134
f 139/139/139 138/138/138 137/137/137
f 140/140/140 139/139/139 137/137/137
f 141/141/141 139/139/139 140/140/140
f 142/142/142 141/141/141 140/140/140
f 145/145/145 144/144/144 143/143/143
f 146/146/146 145/145/145 143/143/143
f 143/143/143 144/144/144 147/147/147
f 148/148/148 145/145/145 146/146/146
f 149/149/149 148/148/148 146/146/146
f 144/144/144 150/150/150 147/147/147
f 147/147/147 150/150/150 151/151/151
f 152/152/152 148/148/148 149/149/149
f 153/153/153 152/152/152 149/149/149
f 150/150/150 154/154/154 151/151/151
f 151/151/151 154/154/154 155/155/155
f 156/156/156 152/152/152 153/153/153
f 157/157/157 156/156/156 153/153/153
f 154/154/154 158/158/158 155/155/155
f 155/155/155 158/158/158 159/159/159
f 160/160/160 156/156/156 157/157/157
f 161/161/161 160/160/160 157/157/157
f 158/158/158 162/162/162 159/159/159
f 159/159/159 162/162/162 163/163/163
f 164/164/164 160/160/160 161/161/161
f 165/165/165 164/164/164 161/161/161
f 162/162/162 166/166/166 163/163/163
f 163/163/163 166/166/166 167/167/167
f 168/168/168 164/164/164 165/165/165
f 169/169/169 168/168/168 165/165/165
f 166/166/166 170/170/170 167/167/167
f 167/167/167 170/170/170 171/171/171
f 172/172/172 168/168/168 169/169/169
f 173/173/173 172/172/172 169/169/169
f 171/171/171 174/174/174 173/173/173
f 170/170/170 174/174/174 171/171/171
f 174/174/174 172/172/172 173/173/173
f 164/164/164 175/175/175 160/160/160
f 175/175/175 176/176/176 160/160/160
f 177/177/177 175/175/175 164/164/164
f 168/168/168 177/177/177 164/164/164
f 160/160/160 176/176/176 156/156/156
f 178/178/178 177/177/177 168/168/168
f 172/172/172 178/178/178 168/168/168
f 176/176/176 179/179/179 156/156/156
f 180/180/180 178/178/178 172/172/172
f 174/174/174 180/180/180 172/172/172
f 156/156/156 179/179/179 152/152/152
f 181/181/181 180/180/180 174/174/174
f 170/170/170 181/181/181 174/174/174
f 179/179/179 182/182/182 152/152/152
f 183/183/183 181/181/181 170/170/170
f 152/152/152 182/182/182 148/148/148
f 166/166/166 183/183/183 170/170/170
f 182/182/182 184/184/184 148/148/148
f 185/185/185 183/183/183 166/166/166
f 148/148/148 184/184/184 145/145/145
f 162/162/162 185/185/185 166/166/166
f 184/184/184 186/186/186 145/145/145
f 187/187/187 185/185/185 162/162/162
f 145/145/145 186/186/186 144/144/144
f 158/158/158 187/187/187 162/162/162
f 186/186/186 188/188/188 144/144/144
f 189/189/189 187/187/187 158/158/158
f 144/144/144 188/188/188 150/150/150
f 154/154/154 189/189/189 158/158/158
f 188/188/188 190/190/190 150/150/150
f 190/190/190 189/189/189 154/154/154
f 150/150/150 190/190/190 154/154/154
usemtl Metal
f 4/4/4 1/1/1 191/191/191
f 192/192/192 4/4/4 191/191/191
f 191/191/191 1/1/1 193/193/193
f 7/7/7 4/4/4 192/192/192
f 1/1/1 5/5/5 193/193/193
f 194/194/194 7/7/7 192/192/192
f 193/193/193 5/5/5 195/195/195
f 11/11/11 7/7/7 194/194/194
f 5/5/5 9/9/9 195/195/195
f 196/196/196 11/11/11 194/194/194
f 195/195/195 9/9/9 197/197/197
f 15/15/15 11/11/11 196/196/196
f 9/9/9 13/13/13 197/197/197
f 198/198/198 15/15/15 196/196/196
f 197/197/197 13/13/13 199/199/199
f 19/19/19 15/15/15 198/198/198
f 13/13/13 17/17/17 199/199/199
f 200/200/200 19/19/19 198/198/198
f 199/199/199 17/17/17 201/201/201
f 23/23/23 19/19/19 200/200/200
f 17/17/17 21/21/21 201/201/201
f 202/202/202 23/23/23 200/200/200
f 201/201/201 21/21/21 203/203/203
f 27/27/27 23/23/23 202/202/202
f 21/21/21 25/25/25 203/203/203
f 204/204/204 27/27/27 202/202/202
f 203/203/203 25/25/25 205/205/205
f 31/31/31 27/27/27 204/204/204
f 25/25/25 29/29/29 205/205/205
f 206/206/206 31/31/31 204/204/204
f 205/205/205 29/29/29 206/206/206
f 29/29/29 31/31/31 206/206/206
g FP305:LightFixture1_90a86231
v -0.24493 2.49993 -0.58108
v -0.23053 2.49178 -0.59547
v -0.24233 2.49178 -0.61312
v -0.26113 2.49993 -0.60534
v -0.22067 2.49993 -0.56488
v -0.24647 2.49178 -0.63394
v -0.26682 2.49993 -0.63394
v -0.21288 2.49178 -0.58368
v -0.19207 2.49993 -0.55919
v -0.24233 2.49178 -0.65476
v -0.26113 2.49993 -0.66255
v -0.19207 2.49178 -0.57954
v -0.16346 2.49993 -0.56488
v -0.23053 2.49178 -0.67241
v -0.24493 2.49993 -0.6868
v -0.17125 2.49178 -0.58368
v -0.13921 2.49993 -0.58108
v -0.21288 2.49178 -0.68421
v -0.22067 2.49993 -0.70301
v -0.1536 2.49178 -0.59547
v -0.123 2.49993 -0.60534
v -0.19207 2.49178 -0.68835
v -0.19207 2.49993 -0.7087
v -0.1418 2.49178 -0.61312
v -0.11731 2.49993 -0.63394
v -0.17125 2.49178 -0.68421
v -0.16346 2.49993 -0.70301
v -0.13766 2.49178 -0.63394
v -0.123 2.49993 -0.66255
v -0.1536 2.49178 -0.67241
v -0.13921 2.49993 -0.6868
v -0.1418 2.49178 -0.65476
v -0.19207 2.48858 -0.6505
v -0.18573 2.48858 -0.64924
v -0.1984 2.48858 -0.64924
v -0.18036 2.48858 -0.64565
v -0.20377 2.48858 -0.64565
v -0.17677 2.48858 -0.64028
v -0.20736 2.48858 -0.64028
v -0.20862 2.48858 -0.63394
v -0.17551 2.48858 -0.63394
v -0.17677 2.48858 -0.62761
v -0.20736 2.48858 -0.62761
v -0.18036 2.48858 -0.62224
v -0.20377 2.48858 -0.62224
v -0.18573 2.48858 -0.61865
v -0.1984 2.48858 -0.61865
v -0.19207 2.48858 -0.61739
v -0.1538 2.49348 -0.54156
v -0.19207 2.50348 -0.53394
v -0.1538 2.50348 -0.54156
v -0.19207 2.49348 -0.73394
v -0.1538 2.49348 -0.72633
v -0.1538 2.50348 -0.72633
v -0.19207 2.50348 -0.73394
v -0.23033 2.49348 -0.72633
v -0.23033 2.50348 -0.72633
v -0.26278 2.49348 -0.70466
v -0.23033 2.49348 -0.72633
v -0.23033 2.50348 -0.72633
v -0.26278 2.50348 -0.70466
v -0.28445 2.49348 -0.67221
v -0.26278 2.49348 -0.70466
v -0.26278 2.50348 -0.70466
v -0.28445 2.50348 -0.67221
v -0.29207 2.49348 -0.63394
v -0.29207 2.50348 -0.63394
v -0.28445 2.49348 -0.59568
v -0.28445 2.50348 -0.59568
v -0.26278 2.49348 -0.56323
v -0.26278 2.50348 -0.56323
v -0.23033 2.49348 -0.54156
v -0.26278 2.49348 -0.56323
v -0.26278 2.50348 -0.56323
v -0.23033 2.50348 -0.54156
v -0.19207 2.49348 -0.53394
v -0.23033 2.49348 -0.54156
v -0.23033 2.50348 -0.54156
v -0.19207 2.50348 -0.53394
v -0.1538 2.49348 -0.54156
v -0.12135 2.49348 -0.56323
v -0.1538 2.49348 -0.54156
v -0.1538 2.50348 -0.54156
v -0.12135 2.50348 -0.56323
v -0.09968 2.49348 -0.59568
v -0.09968 2.50348 -0.59568
v -0.09207 2.49348 -0.63394
v -0.09207 2.50348 -0.63394
v -0.09968 2.49348 -0.67221
v -0.09207 2.49348 -0.63394
v -0.09207 2.50348 -0.63394
v -0.09968 2.50348 -0.67221
v -0.12135 2.49348 -0.70466
v -0.12135 2.50348 -0.70466
v -0.1538 2.49348 -0.72633
v -0.1538 2.50348 -0.72633
v -0.13303 2.48653 -0.57491
v -0.16012 2.49993 -0.55682
v -0.16012 2.48653 -0.55682
v -0.13303 2.49993 -0.57491
v -0.11494 2.48653 -0.602
v -0.11494 2.49993 -0.602
v -0.10858 2.48653 -0.63394
v -0.10858 2.49993 -0.63394
v -0.11494 2.48653 -0.66589
v -0.11494 2.49993 -0.66589
v -0.16012 2.48653 -0.55682
v -0.16012 2.49993 -0.55682
v -0.19207 2.49993 -0.55046
v -0.19207 2.48653 -0.55046
v -0.19207 2.48653 -0.55046
v -0.19207 2.49993 -0.55046
v -0.22401 2.49993 -0.55682
v -0.22401 2.48653 -0.55682
v -0.22401 2.48653 -0.55682
v -0.22401 2.49993 -0.55682
v -0.2511 2.49993 -0.57491
v -0.2511 2.48653 -0.57491
v -0.26919 2.49993 -0.602
v -0.26919 2.48653 -0.602
v -0.26919 2.48653 -0.602
v -0.26919 2.49993 -0.602
v -0.27555 2.49993 -0.63394
v -0.27555 2.48653 -0.63394
v -0.26919 2.49993 -0.66589
v -0.26919 2.48653 -0.66589
v -0.2511 2.49993 -0.69298
v -0.2511 2.48653 -0.69298
v -0.22401 2.49993 -0.71107
v -0.22401 2.48653 -0.71107
v -0.22401 2.48653 -0.71107
v -0.22401 2.49993 -0.71107
v -0.19207 2.49993 -0.71743
v -0.19207 2.48653 -0.71743
v -0.16012 2.49993 -0.71107
v -0.16012 2.48653 -0.71107
v -0.16012 2.48653 -0.71107
v -0.16012 2.49993 -0.71107
v -0.13303 2.49993 -0.69298
v -0.13303 2.48653 -0.69298
v -0.11494 2.49993 -0.66589
v -0.11494 2.48653 -0.66589
v -0.19207 2.49348 -0.73394
v -0.19207 2.48853 -0.72426
v -0.1575 2.48853 -0.71738
v -0.1538 2.49348 -0.72633
v -0.23033 2.49348 -0.72633
v -0.1282 2.48853 -0.69781
v -0.12135 2.49348 -0.70466
v -0.22663 2.48853 -0.71738
v -0.26278 2.49348 -0.70466
v -0.10863 2.48853 -0.66851
v -0.09968 2.49348 -0.67221
v -0.25593 2.48853 -0.69781
v -0.28445 2.49348 -0.67221
v -0.10175 2.48853 -0.63394
v -0.09207 2.49348 -0.63394
v -0.2755 2.48853 -0.66851
v -0.29207 2.49348 -0.63394
v -0.10863 2.48853 -0.59938
v -0.09968 2.49348 -0.59568
v -0.28238 2.48853 -0.63394
v -0.28445 2.49348 -0.59568
v -0.1282 2.48853 -0.57008
v -0.12135 2.49348 -0.56323
v -0.2755 2.48853 -0.59938
v -0.26278 2.49348 -0.56323
v -0.1575 2.48853 -0.55051
v -0.1538 2.49348 -0.54156
v -0.25593 2.48853 -0.57008
v -0.23033 2.49348 -0.54156
v -0.19207 2.48853 -0.54363
v -0.19207 2.49348 -0.53394
v -0.22663 2.48853 -0.55051
v -0.13303 2.48653 -0.57491
v -0.11494 2.48653 -0.602
v -0.16012 2.48653 -0.55682
v -0.19207 2.48653 -0.55046
v -0.10858 2.48653 -0.63394
v -0.22401 2.48653 -0.55682
v -0.2511 2.48653 -0.57491
v -0.11494 2.48653 -0.66589
v -0.26919 2.48653 -0.602
v -0.13303 2.48653 -0.69298
v -0.27555 2.48653 -0.63394
v -0.16012 2.48653 -0.71107
v -0.26919 2.48653 -0.66589
v -0.19207 2.48653 -0.71743
v -0.2511 2.48653 -0.69298
v -0.22401 2.48653 -0.71107
v -0.2511 2.49993 -0.57491
v -0.26919 2.49993 -0.602
v -0.22401 2.49993 -0.55682
v -0.27555 2.49993 -0.63394
v -0.19207 2.49993 -0.55046
v -0.26919 2.49993 -0.66589
v -0.16012 2.49993 -0.55682
v -0.2511 2.49993 -0.69298
v -0.13303 2.49993 -0.57491
v -0.22401 2.49993 -0.71107
v -0.11494 2.49993 -0.602
v -0.19207 2.49993 -0.71743
v -0.10858 2.49993 -0.63394
v -0.16012 2.49993 -0.71107
v -0.11494 2.49993 -0.66589
v -0.13303 2.49993 -0.69298
vn -0.2692501 1.933061 -0.5567696
vn -0.2861117 1.938176 -0.539908
vn -0.3149416 1.938176 -0.5830551
vn -0.2929107 1.933061 -0.5921806
vn -0.2338396 1.933061 -0.5331093
vn -0.3250654 1.938177 -0.6339494
vn -0.3012193 1.933061 -0.6339494
vn -0.2429651 1.938176 -0.5110785
vn -0.1920704 1.933061 -0.524801
vn -0.3149416 1.938176 -0.6848437
vn -0.2929108 1.933061 -0.6757182
vn -0.1920703 1.938176 -0.500955
vn -0.1503011 1.933061 -0.5331094
vn -0.2861118 1.938176 -0.7279908
vn -0.2692501 1.933061 -0.7111292
vn -0.1411756 1.938176 -0.5110785
vn -0.1148909 1.933061 -0.5567696
vn -0.2429652 1.938176 -0.7568203
vn -0.2338398 1.933061 -0.7347895
vn -0.09802921 1.938176 -0.539908
vn -0.09123052 1.933061 -0.5921798
vn -0.1920705 1.938176 -0.7669439
vn -0.1920705 1.933061 -0.7430979
vn -0.0691997 1.938176 -0.5830543
vn -0.08292205 1.933061 -0.6339494
vn -0.1411756 1.938176 -0.7568201
vn -0.150301 1.933061 -0.7347893
vn -0.05907604 1.938176 -0.6339494
vn -0.09123052 1.933061 -0.675719
vn -0.09802912 1.938176 -0.7279907
vn -0.1148908 1.933061 -0.7111291
vn -0.06919976 1.938176 -0.6848446
vn -0.1920704 1.923563 -0.6664019
vn -0.1796514 1.923563 -0.6639315
vn -0.2044894 1.923563 -0.6639315
vn -0.1691231 1.923563 -0.6568968
vn -0.2150178 1.923563 -0.6568968
vn -0.1620883 1.923563 -0.6463685
vn -0.2220526 1.923563 -0.6463683
vn -0.2245229 1.923563 -0.6339494
vn -0.159618 1.923563 -0.6339494
vn -0.1620883 1.923563 -0.6215303
vn -0.2220526 1.923563 -0.6215305
vn -0.1691231 1.923563 -0.611002
vn -0.2150178 1.923563 -0.611002
vn -0.1796514 1.923563 -0.6039672
vn -0.2044894 1.923563 -0.6039672
vn -0.1920704 1.923563 -0.6014969
vn 0.02887151 2.5 -0.1005471
vn -0.1920704 2.5 -0.05659914
vn 0.02887151 2.5 -0.1005471
vn -0.1920704 2.5 -1.2113
vn 0.02887225 2.5 -1.167351
vn 0.02887225 2.5 -1.167351
vn -0.1920704 2.5 -1.2113
vn -0.4130131 2.5 -1.167351
vn -0.4130131 2.5 -1.167351
vn -0.6003189 2.5 -1.042197
vn -0.4130131 2.5 -1.167351
vn -0.4130131 2.5 -1.167351
vn -0.6003189 2.5 -1.042197
vn -0.7254727 2.5 -0.8548913
vn -0.6003189 2.5 -1.042197
vn -0.6003189 2.5 -1.042197
vn -0.7254727 2.5 -0.8548913
vn -0.7694207 2.5 -0.6339494
vn -0.7694207 2.5 -0.6339494
vn -0.7254728 2.5 -0.4130077
vn -0.7254728 2.5 -0.4130077
vn -0.6003188 2.5 -0.2257013
vn -0.6003188 2.5 -0.2257013
vn -0.4130123 2.5 -0.1005471
vn -0.6003188 2.5 -0.2257013
vn -0.6003188 2.5 -0.2257013
vn -0.4130123 2.5 -0.1005471
vn -0.1920704 2.5 -0.05659914
vn -0.4130123 2.5 -0.1005471
vn -0.4130123 2.5 -0.1005471
vn -0.1920704 2.5 -0.05659914
vn 0.02887151 2.5 -0.1005471
vn 0.216178 2.5 -0.2257013
vn 0.02887151 2.5 -0.1005471
vn 0.02887151 2.5 -0.1005471
vn 0.216178 2.5 -0.2257013
vn 0.3413316 2.5 -0.4130069
vn 0.3413316 2.5 -0.4130069
vn 0.3852798 2.5 -0.6339494
vn 0.3852798 2.5 -0.6339494
vn 0.3413315 2.5 -0.8548921
vn 0.3852798 2.5 -0.6339494
vn 0.3852798 2.5 -0.6339494
vn 0.3413315 2.5 -0.8548921
vn 0.2161781 2.5 -1.042197
vn 0.2161781 2.5 -1.042197
vn 0.02887225 2.5 -1.167351
vn 0.02887225 2.5 -1.167351
vn -0.6003186 2.5 -1.042198
vn -0.4130127 2.5 -1.167351
vn -0.4130127 2.5 -1.167351
vn -0.6003186 2.5 -1.042198
vn -0.7254721 2.5 -0.8548927
vn -0.7254721 2.5 -0.8548927
vn -0.7694207 2.5 -0.6339494
vn -0.7694207 2.5 -0.6339494
vn -0.7254721 2.5 -0.4130061
vn -0.7254721 2.5 -0.4130061
vn -0.4130127 2.5 -1.167351
vn -0.4130127 2.5 -1.167351
vn -0.1920704 2.5 -1.2113
vn -0.1920704 2.5 -1.2113
vn -0.1920704 2.5 -1.2113
vn -0.1920704 2.5 -1.2113
vn 0.02887085 2.5 -1.167352
vn 0.02887085 2.5 -1.167352
vn 0.02887085 2.5 -1.167352
vn 0.02887085 2.5 -1.167352
vn 0.2161775 2.5 -1.042198
vn 0.2161775 2.5 -1.042198
vn 0.3413324 2.5 -0.85489
vn 0.3413324 2.5 -0.85489
vn 0.3413324 2.5 -0.85489
vn 0.3413324 2.5 -0.85489
vn 0.3852798 2.5 -0.6339494
vn 0.3852798 2.5 -0.6339494
vn 0.3413324 2.5 -0.4130088
vn 0.3413324 2.5 -0.4130088
vn 0.2161779 2.5 -0.2257011
vn 0.2161779 2.5 -0.2257011
vn 0.02887125 2.5 -0.100547
vn 0.02887125 2.5 -0.100547
vn 0.02887125 2.5 -0.100547
vn 0.02887125 2.5 -0.100547
vn -0.1920704 2.5 -0.05659914
vn -0.1920704 2.5 -0.05659914
vn -0.4130132 2.5 -0.1005474
vn -0.4130132 2.5 -0.1005474
vn -0.4130132 2.5 -0.1005474
vn -0.4130132 2.5 -0.1005474
vn -0.6003189 2.5 -0.2257014
vn -0.6003189 2.5 -0.2257014
vn -0.7254721 2.5 -0.4130061
vn -0.7254721 2.5 -0.4130061
vn -0.1920704 1.985894 -0.8966813
vn -0.1920704 1.963518 -0.8473047
vn -0.1104227 1.963518 -0.8310639
vn -0.0915271 1.985894 -0.876682
vn -0.2926139 1.985894 -0.8766823
vn -0.04120559 1.963518 -0.7848141
vn -0.006291091 1.985893 -0.8197286
vn -0.2737183 1.963518 -0.8310645
vn -0.3778504 1.985894 -0.8197291
vn 0.005043596 1.963518 -0.7155969
vn 0.05066174 1.985893 -0.7344924
vn -0.3429362 1.963518 -0.784815
vn -0.4348018 1.985893 -0.7344921
vn 0.02128452 1.963518 -0.6339494
vn 0.07066138 1.985894 -0.6339494
vn -0.3891853 1.963518 -0.7155968
vn -0.454801 1.985893 -0.6339492
vn 0.005043983 1.963518 -0.5523018
vn 0.05066228 1.985894 -0.5334061
vn -0.4054262 1.963518 -0.6339493
vn -0.4348034 1.985894 -0.5334064
vn -0.04120572 1.963518 -0.483085
vn -0.006291285 1.985893 -0.4481706
vn -0.3891861 1.963519 -0.5523019
vn -0.3778502 1.985894 -0.4481698
vn -0.1104233 1.963518 -0.4368354
vn -0.09152792 1.985893 -0.3912174
vn -0.3429358 1.963518 -0.4830844
vn -0.2926134 1.985894 -0.3912167
vn -0.1920704 1.963518 -0.4205944
vn -0.1920704 1.985894 -0.3712175
vn -0.2737176 1.963518 -0.4368351
vn -0.07735726 1.945911 -0.5192364
vn -0.04219069 1.94591 -0.5718669
vn -0.1299882 1.94591 -0.4840698
vn -0.1920704 1.94591 -0.4717208
vn -0.02984186 1.94591 -0.6339494
vn -0.2541523 1.94591 -0.4840699
vn -0.3067842 1.945911 -0.5192362
vn -0.04219091 1.94591 -0.6960317
vn -0.3419525 1.945911 -0.5718668
vn -0.07735727 1.945911 -0.7486625
vn -0.3543018 1.945911 -0.6339494
vn -0.1299879 1.945911 -0.7838292
vn -0.3419525 1.945911 -0.696032
vn -0.1920705 1.945911 -0.7961786
vn -0.3067849 1.945911 -0.7486636
vn -0.2541532 1.945911 -0.7838303
vn -0.1920704 1.92265 -0.6339494
vn -0.1920704 1.92265 -0.6339494
vn -0.1920704 1.92265 -0.6339494
vn -0.1920704 1.92265 -0.6339494
vn -0.1920704 1.92265 -0.6339494
vn -0.1920704 1.92265 -0.6339494
vn -0.1920704 1.92265 -0.6339494
vn -0.1920704 1.92265 -0.6339494
vn -0.1920704 1.92265 -0.6339494
vn -0.1920704 1.92265 -0.6339494
vn -0.1920704 1.92265 -0.6339494
vn -0.1920704 1.92265 -0.6339494
vn -0.1920704 1.92265 -0.6339494
vn -0.1920704 1.92265 -0.6339494
vn -0.1920704 1.92265 -0.6339494
vn -0.1920704 1.92265 -0.6339494
vt 0.7609773 0.8259588
vt 0.746361 0.8113424
vt 0.728434 0.8233209
vt 0.7363442 0.8424181
vt 0.7774367 0.8013256
vt 0.7072874 0.827527
vt 0.7072874 0.8481975
vt 0.7583395 0.7934154
vt 0.7832164 0.7722689
vt 0.6861409 0.8233209
vt 0.6782305 0.8424181
vt 0.7625458 0.7722689
vt 0.7774367 0.7432122
vt 0.6682138 0.8113424
vt 0.6535975 0.8259588
vt 0.7583395 0.7511225
vt 0.7609773 0.7185791
vt 0.6562353 0.7934154
vt 0.6371382 0.8013256
vt 0.746361 0.7331954
vt 0.7363442 0.7021196
vt 0.6520291 0.7722689
vt 0.6313584 0.7722689
vt 0.7284339 0.7212168
vt 0.7072874 0.6963398
vt 0.6562353 0.7511225
vt 0.6371381 0.7432122
vt 0.7072874 0.7170105
vt 0.6782305 0.7021196
vt 0.6682138 0.7331954
vt 0.6535975 0.7185791
vt 0.686141 0.7212168
vt 0.6904707 0.7722689
vt 0.6917508 0.7658336
vt 0.6917509 0.7787044
vt 0.6953961 0.7603778
vt 0.6953962 0.7841601
vt 0.7008522 0.7567322
vt 0.7008517 0.7878054
vt 0.7072874 0.7890854
vt 0.7072874 0.7554522
vt 0.7137228 0.7567322
vt 0.713723 0.7878054
vt 0.7191787 0.7603778
vt 0.7191787 0.7841601
vt 0.722824 0.7658334
vt 0.722824 0.7787044
vt 0.7241041 0.7722689
vt 0.3405293 0.6113667
vt 0.3506266 0.6500083
vt 0.3506266 0.6113667
vt 0.383402 0.6500083
vt 0.383402 0.6113666
vt 0.3733048 0.6113666
vt 0.3733048 0.6500083
vt 0.383402 0.6886499
vt 0.3733048 0.6886499
vt 0.5565527 0.3314043
vt 0.5565527 0.3558044
vt 0.5678086 0.3558044
vt 0.5678086 0.3314043
vt 0.5565527 0.2948871
vt 0.5565527 0.3314043
vt 0.5678086 0.3314043
vt 0.5678086 0.2948871
vt 0.5565527 0.2518117
vt 0.5678086 0.2518117
vt 0.5565527 0.2087365
vt 0.5678086 0.2087365
vt 0.5565527 0.172219
vt 0.5678086 0.172219
vt 0.5565527 0.1478189
vt 0.5565527 0.172219
vt 0.5678086 0.172219
vt 0.5678086 0.1478189
vt 0.3405293 0.6500083
vt 0.3405293 0.6886498
vt 0.3506266 0.6886498
vt 0.3506266 0.6500083
vt 0.3405293 0.6113667
vt 0.5893496 0.3314042
vt 0.5893496 0.3558043
vt 0.6006054 0.3558043
vt 0.6006054 0.3314042
vt 0.5893496 0.2948868
vt 0.6006054 0.2948868
vt 0.5893496 0.2518117
vt 0.6006054 0.2518117
vt 0.5893496 0.2087363
vt 0.5893496 0.2518117
vt 0.6006054 0.2518117
vt 0.6006054 0.2087363
vt 0.5893496 0.1722191
vt 0.6006054 0.1722191
vt 0.5893496 0.147819
vt 0.6006054 0.147819
vt 0.4501539 0.6886393
vt 0.465237 0.6682693
vt 0.4501539 0.6682693
vt 0.465237 0.6886393
vt 0.4501539 0.719125
vt 0.465237 0.719125
vt 0.4501539 0.7550851
vt 0.465237 0.7550851
vt 0.4501539 0.7910455
vt 0.465237 0.7910455
vt 0.3149707 0.6006575
vt 0.3014402 0.6006575
vt 0.3014402 0.6329165
vt 0.3149707 0.6329165
vt 0.3149707 0.6329165
vt 0.3014402 0.6329165
vt 0.3014402 0.6651752
vt 0.3149707 0.6651752
vt 0.4081844 0.8419008
vt 0.4232674 0.8419008
vt 0.4232674 0.8215308
vt 0.4081844 0.8215308
vt 0.4232674 0.7910451
vt 0.4081844 0.7910451
vt 0.4081844 0.7910451
vt 0.4232674 0.7910451
vt 0.4232674 0.7550851
vt 0.4081844 0.7550851
vt 0.4232674 0.7191248
vt 0.4081844 0.7191248
vt 0.4232674 0.6886392
vt 0.4081844 0.6886392
vt 0.4232674 0.6682695
vt 0.4081844 0.6682695
vt 0.2594706 0.6651753
vt 0.2730012 0.6651753
vt 0.2730012 0.6329165
vt 0.2594706 0.6329165
vt 0.2730012 0.6006574
vt 0.2594706 0.6006574
vt 0.4501539 0.8419009
vt 0.465237 0.8419009
vt 0.465237 0.8215311
vt 0.4501539 0.8215311
vt 0.465237 0.7910455
vt 0.4501539 0.7910455
vt 0.2722651 0.1677669
vt 0.2722651 0.1779013
vt 0.3084263 0.1850942
vt 0.3123046 0.1757313
vt 0.2322257 0.1757313
vt 0.3390822 0.2055779
vt 0.3462484 0.1984118
vt 0.236104 0.1850942
vt 0.1982818 0.1984118
vt 0.359566 0.2362339
vt 0.3689289 0.2323556
vt 0.2054479 0.2055779
vt 0.1756013 0.2323556
vt 0.3667589 0.2723951
vt 0.3768933 0.2723951
vt 0.1849644 0.2362339
vt 0.167637 0.2723951
vt 0.359566 0.3085563
vt 0.3689289 0.3124346
vt 0.1777716 0.2723951
vt 0.1756013 0.3124346
vt 0.3390822 0.3392122
vt 0.3462484 0.3463784
vt 0.1849644 0.3085563
vt 0.1982818 0.3463784
vt 0.3084263 0.3596959
vt 0.3123046 0.3690589
vt 0.2054479 0.3392122
vt 0.2322257 0.3690589
vt 0.2722651 0.3668888
vt 0.2722651 0.3770232
vt 0.236104 0.3596959
vt 0.3340282 0.3341583
vt 0.3529626 0.3058212
vt 0.3056911 0.3530927
vt 0.2722651 0.3597414
vt 0.3596115 0.2723951
vt 0.2388392 0.3530927
vt 0.2105018 0.3341583
vt 0.3529626 0.2389691
vt 0.1915676 0.3058212
vt 0.3340282 0.2106319
vt 0.1849189 0.2723951
vt 0.3056911 0.1916976
vt 0.1915676 0.2389691
vt 0.2722651 0.1850488
vt 0.2105018 0.2106319
vt 0.2388392 0.1916976
vt 0.7672457 0.8322272
vt 0.7397366 0.8506081
vt 0.7856267 0.8047179
vt 0.7072874 0.8570625
vt 0.7920811 0.7722689
vt 0.6748382 0.8506081
vt 0.7856267 0.7398196
vt 0.6473292 0.8322272
vt 0.7672457 0.7123107
vt 0.6289482 0.8047179
vt 0.7397366 0.6939297
vt 0.6224937 0.7722689
vt 0.7072874 0.6874751
vt 0.6289482 0.7398196
vt 0.6748382 0.6939297
vt 0.6473292 0.7123107
usemtl Light1
f 209/209/209 208/208/208 207/207/207
f 210/210/210 209/209/209 207/207/207
f 207/207/207 208/208/208 211/211/211
f 212/212/212 209/209/209 210/210/210
f 213/213/213 212/212/212 210/210/210
f 208/208/208 214/214/214 211/211/211
f 211/211/211 214/214/214 215/215/215
f 216/216/216 212/212/212 213/213/213
f 217/217/217 216/216/216 213/213/213
f 214/214/214 218/218/218 215/215/215
f 215/215/215 218/218/218 219/219/219
f 220/220/220 216/216/216 217/217/217
f 221/221/221 220/220/220 217/217/217
f 218/218/218 222/222/222 219/219/219
f 219/219/219 222/222/222 223/223/223
f 224/224/224 220/220/220 221/221/221
f 225/225/225 224/224/224 221/221/221
f 222/222/222 226/226/226 223/223/223
f 223/223/223 226/226/226 227/227/227
f 228/228/228 224/224/224 225/225/225
f 229/229/229 228/228/228 225/225/225
f 226/226/226 230/230/230 227/227/227
f 227/227/227 230/230/230 231/231/231
f 232/232/232 228/228/228 229/229/229
f 233/233/233 232/232/232 229/229/229
f 230/230/230 234/234/234 231/231/231
f 231/231/231 234/234/234 235/235/235
f 236/236/236 232/232/232 233/233/233
f 237/237/237 236/236/236 233/233/233
f 235/235/235 238/238/238 237/237/237
f 234/234/234 238/238/238 235/235/235
f 238/238/238 236/236/236 237/237/237
f 228/228/228 239/239/239 224/224/224
f 232/232/232 240/240/240 228/228/228
f 240/240/240 239/239/239 228/228/228
f 239/239/239 241/241/241 224/224/224
f 241/241/241 239/239/239 240/240/240
f 224/224/224 241/241/241 220/220/220
f 242/242/242 240/240/240 232/232/232
f 236/236/236 242/242/242 232/232/232
f 240/240/240 242/242/242 241/241/241
f 241/241/241 243/243/243 220/220/220
f 242/242/242 243/243/243 241/241/241
f 220/220/220 243/243/243 216/216/216
f 244/244/244 242/242/242 236/236/236
f 238/238/238 244/244/244 236/236/236
f 242/242/242 244/244/244 243/243/243
f 243/243/243 245/245/245 216/216/216
f 244/244/244 245/245/245 243/243/243
f 216/216/216 245/245/245 212/212/212
f 245/245/245 246/246/246 212/212/212
f 244/244/244 246/246/246 245/245/245
f 212/212/212 246/246/246 209/209/209
f 247/247/247 244/244/244 238/238/238
f 244/244/244 247/247/247 246/246/246
f 234/234/234 247/247/247 238/238/238
f 248/248/248 247/247/247 234/234/234
f 247/247/247 248/248/248 246/246/246
f 230/230/230 248/248/248 234/234/234
f 246/246/246 249/249/249 209/209/209
f 248/248/248 249/249/249 246/246/246
f 209/209/209 249/249/249 208/208/208
f 250/250/250 248/248/248 230/230/230
f 248/248/248 250/250/250 249/249/249
f 226/226/226 250/250/250 230/230/230
f 249/249/249 251/251/251 208/208/208
f 250/250/250 251/251/251 249/249/249
f 208/208/208 251/251/251 214/214/214
f 252/252/252 250/250/250 226/226/226
f 250/250/250 252/252/252 251/251/251
f 222/222/222 252/252/252 226/226/226
f 251/251/251 253/253/253 214/214/214
f 252/252/252 253/253/253 251/251/251
f 214/214/214 253/253/253 218/218/218
f 254/254/254 252/252/252 222/222/222
f 218/218/218 254/254/254 222/222/222
f 252/252/252 254/254/254 253/253/253
f 253/253/253 254/254/254 218/218/218
usemtl WhitePlastic
f 257/257/257 256/256/256 255/255/255
f 260/260/260 259/259/259 258/258/258
f 261/261/261 260/260/260 258/258/258
f 261/261/261 258/258/258 262/262/262
f 263/263/263 261/261/261 262/262/262
f 266/266/266 265/265/265 264/264/264
f 267/267/267 266/266/266 264/264/264
f 270/270/270 269/269/269 268/268/268
f 271/271/271 270/270/270 268/268/268
f 271/271/271 268/268/268 272/272/272
f 273/273/273 271/271/271 272/272/272
f 273/273/273 272/272/272 274/274/274
f 275/275/275 273/273/273 274/274/274
f 275/275/275 274/274/274 276/276/276
f 277/277/277 275/275/275 276/276/276
f 280/280/280 279/279/279 278/278/278
f 281/281/281 280/280/280 278/278/278
f 284/284/284 283/283/283 282/282/282
f 285/285/285 284/284/284 282/282/282
f 285/285/285 282/282/282 286/286/286
f 289/289/289 288/288/288 287/287/287
f 290/290/290 289/289/289 287/287/287
f 290/290/290 287/287/287 291/291/291
f 292/292/292 290/290/290 291/291/291
f 292/292/292 291/291/291 293/293/293
f 294/294/294 292/292/292 293/293/293
f 297/297/297 296/296/296 295/295/295
f 298/298/298 297/297/297 295/295/295
f 298/298/298 295/295/295 299/299/299
f 300/300/300 298/298/298 299/299/299
f 300/300/300 299/299/299 301/301/301
f 302/302/302 300/300/300 301/301/301
f 305/305/305 304/304/304 303/303/303
f 304/304/304 306/306/306 303/303/303
f 303/303/303 306/306/306 307/307/307
f 306/306/306 308/308/308 307/307/307
f 307/307/307 308/308/308 309/309/309
f 308/308/308 310/310/310 309/309/309
f 309/309/309 310/310/310 311/311/311
f 310/310/310 312/312/312 311/311/311
f 315/315/315 314/314/314 313/313/313
f 316/316/316 315/315/315 313/313/313
f 319/319/319 318/318/318 317/317/317
f 320/320/320 319/319/319 317/317/317
f 323/323/323 322/322/322 321/321/321
f 324/324/324 323/323/323 321/321/321
f 325/325/325 323/323/323 324/324/324
f 326/326/326 325/325/325 324/324/324
f 329/329/329 328/328/328 327/327/327
f 330/330/330 329/329/329 327/327/327
f 331/331/331 329/329/329 330/330/330
f 332/332/332 331/331/331 330/330/330
f 333/333/333 331/331/331 332/332/332
f 334/334/334 333/333/333 332/332/332
f 335/335/335 333/333/333 334/334/334
f 336/336/336 335/335/335 334/334/334
f 339/339/339 338/338/338 337/337/337
f 340/340/340 339/339/339 337/337/337
f 341/341/341 339/339/339 340/340/340
f 342/342/342 341/341/341 340/340/340
f 345/345/345 344/344/344 343/343/343
f 346/346/346 345/345/345 343/343/343
f 347/347/347 345/345/345 346/346/346
f 348/348/348 347/347/347 346/346/346
f 351/351/351 350/350/350 349/349/349
f 352/352/352 351/351/351 349/349/349
f 349/349/349 350/350/350 353/353/353
f 354/354/354 351/351/351 352/352/352
f 355/355/355 354/354/354 352/352/352
f 350/350/350 356/356/356 353/353/353
f 353/353/353 356/356/356 357/357/357
f 358/358/358 354/354/354 355/355/355
f 359/359/359 358/358/358 355/355/355
f 356/356/356 360/360/360 357/357/357
f 357/357/357 360/360/360 361/361/361
f 362/362/362 358/358/358 359/359/359
f 363/363/363 362/362/362 359/359/359
f 360/360/360 364/364/364 361/361/361
f 361/361/361 364/364/364 365/365/365
f 366/366/366 362/362/362 363/363/363
f 367/367/367 366/366/366 363/363/363
f 364/364/364 368/368/368 365/365/365
f 365/365/365 368/368/368 369/369/369
f 370/370/370 366/366/366 367/367/367
f 371/371/371 370/370/370 367/367/367
f 368/368/368 372/372/372 369/369/369
f 369/369/369 372/372/372 373/373/373
f 374/374/374 370/370/370 371/371/371
f 375/375/375 374/374/374 371/371/371
f 372/372/372 376/376/376 373/373/373
f 373/373/373 376/376/376 377/377/377
f 378/378/378 374/374/374 375/375/375
f 379/379/379 378/378/378 375/375/375
f 377/377/377 380/380/380 379/379/379
f 376/376/376 380/380/380 377/377/377
f 380/380/380 378/378/378 379/379/379
f 370/370/370 381/381/381 366/366/366
f 381/381/381 382/382/382 366/366/366
f 383/383/383 381/381/381 370/370/370
f 374/374/374 383/383/383 370/370/370
f 366/366/366 382/382/382 362/362/362
f 384/384/384 383/383/383 374/374/374
f 378/378/378 384/384/384 374/374/374
f 382/382/382 385/385/385 362/362/362
f 386/386/386 384/384/384 378/378/378
f 380/380/380 386/386/386 378/378/378
f 362/362/362 385/385/385 358/358/358
f 387/387/387 386/386/386 380/380/380
f 376/376/376 387/387/387 380/380/380
f 385/385/385 388/388/388 358/358/358
f 389/389/389 387/387/387 376/376/376
f 358/358/358 388/388/388 354/354/354
f 372/372/372 389/389/389 376/376/376
f 388/388/388 390/390/390 354/354/354
f 391/391/391 389/389/389 372/372/372
f 354/354/354 390/390/390 351/351/351
f 368/368/368 391/391/391 372/372/372
f 390/390/390 392/392/392 351/351/351
f 393/393/393 391/391/391 368/368/368
f 351/351/351 392/392/392 350/350/350
f 364/364/364 393/393/393 368/368/368
f 392/392/392 394/394/394 350/350/350
f 395/395/395 393/393/393 364/364/364
f 350/350/350 394/394/394 356/356/356
f 360/360/360 395/395/395 364/364/364
f 394/394/394 396/396/396 356/356/356
f 396/396/396 395/395/395 360/360/360
f 356/356/356 396/396/396 360/360/360
usemtl Metal
f 210/210/210 207/207/207 397/397/397
f 398/398/398 210/210/210 397/397/397
f 397/397/397 207/207/207 399/399/399
f 213/213/213 210/210/210 398/398/398
f 207/207/207 211/211/211 399/399/399
f 400/400/400 213/213/213 398/398/398
f 399/399/399 211/211/211 401/401/401
f 217/217/217 213/213/213 400/400/400
f 211/211/211 215/215/215 401/401/401
f 402/402/402 217/217/217 400/400/400
f 401/401/401 215/215/215 403/403/403
f 221/221/221 217/217/217 402/402/402
f 215/215/215 219/219/219 403/403/403
f 404/404/404 221/221/221 402/402/402
f 403/403/403 219/219/219 405/405/405
f 225/225/225 221/221/221 404/404/404
f 219/219/219 223/223/223 405/405/405
f 406/406/406 225/225/225 404/404/404
f 405/405/405 223/223/223 407/407/407
f 229/229/229 225/225/225 406/406/406
f 223/223/223 227/227/227 407/407/407
f 408/408/408 229/229/229 406/406/406
f 407/407/407 227/227/227 409/409/409
f 233/233/233 229/229/229 408/408/408
f 227/227/227 231/231/231 409/409/409
f 410/410/410 233/233/233 408/408/408
f 409/409/409 231/231/231 411/411/411
f 237/237/237 233/233/233 410/410/410
f 231/231/231 235/235/235 411/411/411
f 412/412/412 237/237/237 410/410/410
f 411/411/411 235/235/235 412/412/412
f 235/235/235 237/237/237 412/412/412
