mtllib Cabinet_7adc1205.mtl
g Mesh_(1)_a3a3e598
v 3.92319 -2.09409 0.06015
v 3.92319 -2.09777 0.06383
v 3.92607 -2.09409 0.06383
v 3.66893 -2.09409 0.06383
v 3.6718 -2.09777 0.06383
v 3.6718 -2.09409 0.06015
v 3.66893 -2.09409 0.71387
v 3.6718 -2.09409 0.71755
v 3.6718 -2.09777 0.71387
v 3.92607 -2.09409 0.71387
v 3.92319 -2.09777 0.71387
v 3.92319 -2.09409 0.71755
v 3.66893 -2.08786 0.71387
v 3.6718 -2.08418 0.71387
v 3.6718 -2.08786 0.71755
v 3.66893 -2.08786 0.06383
v 3.6718 -2.08786 0.06015
v 3.6718 -2.08418 0.06383
v 3.92319 -2.08786 0.06015
v 3.92607 -2.08786 0.06383
v 3.92319 -2.08418 0.06383
v 3.92607 -2.08786 0.71387
v 3.92319 -2.08786 0.71755
v 3.92319 -2.08418 0.71387
v 3.6718 -2.09777 0.06383
v 3.92319 -2.09777 0.06383
v 3.92319 -2.09409 0.06015
v 3.6718 -2.09777 0.06383
v 3.92319 -2.09409 0.06015
v 3.6718 -2.09409 0.06015
v 3.6718 -2.09409 0.71755
v 3.92319 -2.09409 0.71755
v 3.92319 -2.09777 0.71387
v 3.6718 -2.09409 0.71755
v 3.92319 -2.09777 0.71387
v 3.6718 -2.09777 0.71387
v 3.92607 -2.09409 0.71387
v 3.92607 -2.08786 0.71387
v 3.92607 -2.08786 0.06383
v 3.92607 -2.09409 0.06383
v 3.6718 -2.09409 0.71755
v 3.6718 -2.08786 0.71755
v 3.92319 -2.08786 0.71755
v 3.92319 -2.09409 0.71755
v 3.66893 -2.09409 0.06383
v 3.66893 -2.08786 0.06383
v 3.66893 -2.08786 0.71387
v 3.66893 -2.09409 0.71387
v 3.92319 -2.09409 0.06015
v 3.92319 -2.08786 0.06015
v 3.6718 -2.08786 0.06015
v 3.6718 -2.09409 0.06015
v 3.6718 -2.08418 0.06383
v 3.92319 -2.08418 0.06383
v 3.92319 -2.08418 0.71387
v 3.6718 -2.08418 0.71387
v 3.6718 -2.09777 0.71387
v 3.6718 -2.09777 0.06383
v 3.66893 -2.09409 0.06383
v 3.66893 -2.09409 0.71387
v 3.92319 -2.09777 0.06383
v 3.92319 -2.09777 0.71387
v 3.92607 -2.09409 0.71387
v 3.92607 -2.09409 0.06383
v 3.66893 -2.08786 0.71387
v 3.66893 -2.08786 0.06383
v 3.6718 -2.08418 0.06383
v 3.6718 -2.08418 0.71387
v 3.6718 -2.08786 0.06015
v 3.92319 -2.08786 0.06015
v 3.92319 -2.08418 0.06383
v 3.6718 -2.08418 0.06383
v 3.92607 -2.08786 0.06383
v 3.92607 -2.08786 0.71387
v 3.92319 -2.08418 0.71387
v 3.92319 -2.08418 0.06383
v 3.6718 -2.08418 0.71387
v 3.92319 -2.08418 0.71387
v 3.92319 -2.08786 0.71755
v 3.6718 -2.08786 0.71755
v 3.92319 -2.09409 0.71755
v 3.92319 -2.08786 0.71755
v 3.92607 -2.08786 0.71387
v 3.92607 -2.09409 0.71387
v 3.6718 -2.08786 0.71755
v 3.6718 -2.09409 0.71755
v 3.66893 -2.09409 0.71387
v 3.66893 -2.08786 0.71387
v 3.6718 -2.09409 0.06015
v 3.6718 -2.08786 0.06015
v 3.66893 -2.08786 0.06383
v 3.66893 -2.09409 0.06383
v 3.92319 -2.08786 0.06015
v 3.92319 -2.09409 0.06015
v 3.92607 -2.09409 0.06383
v 3.92607 -2.08786 0.06383
v 3.90193 -2.09777 0.09098
v 3.90193 -2.09777 0.68673
v 3.92319 -2.09777 0.71387
v 3.92319 -2.09777 0.06383
v 3.69476 -2.0956 0.68456
v 3.90024 -2.0956 0.68456
v 3.90024 -2.0896 0.68456
v 3.69476 -2.0896 0.68456
v 3.90024 -2.0956 0.68456
v 3.90024 -2.0956 0.09314
v 3.90024 -2.0896 0.09314
v 3.90024 -2.0896 0.68456
v 3.69306 -2.09777 0.09098
v 3.90193 -2.09777 0.09098
v 3.92319 -2.09777 0.06383
v 3.6718 -2.09777 0.06383
v 3.69476 -2.0896 0.09314
v 3.69476 -2.0896 0.68456
v 3.90024 -2.0896 0.68456
v 3.90024 -2.0896 0.09314
v 3.69476 -2.0956 0.09314
v 3.69476 -2.0956 0.68456
v 3.69476 -2.0896 0.68456
v 3.69476 -2.0896 0.09314
v 3.69306 -2.09777 0.68673
v 3.69306 -2.09777 0.09098
v 3.6718 -2.09777 0.06383
v 3.6718 -2.09777 0.71387
v 3.90193 -2.09777 0.68673
v 3.69306 -2.09777 0.68673
v 3.6718 -2.09777 0.71387
v 3.92319 -2.09777 0.71387
v 3.69476 -2.0956 0.68456
v 3.69476 -2.0956 0.09314
v 3.69306 -2.09777 0.09098
v 3.69306 -2.09777 0.68673
v 3.69476 -2.0956 0.09314
v 3.90024 -2.0956 0.09314
v 3.90193 -2.09777 0.09098
v 3.69306 -2.09777 0.09098
v 3.90024 -2.0956 0.09314
v 3.90024 -2.0956 0.68456
v 3.90193 -2.09777 0.68673
v 3.90193 -2.09777 0.09098
v 3.90024 -2.0956 0.68456
v 3.69476 -2.0956 0.68456
v 3.69306 -2.09777 0.68673
v 3.90193 -2.09777 0.68673
v 3.90024 -2.0956 0.09314
v 3.69476 -2.0956 0.09314
v 3.69476 -2.0896 0.09314
v 3.90024 -2.0896 0.09314
vn 0.6703182 -0.5247111 -0.5247396
vn 0.6703182 -0.5247111 -0.5247396
vn 0.6703182 -0.5247111 -0.5247396
vn -0.6703721 -0.5245775 -0.5248046
vn -0.6703721 -0.5245775 -0.5248046
vn -0.6703721 -0.5245776 -0.5248046
vn -0.6703473 -0.5245933 0.5248203
vn -0.6703473 -0.5245934 0.5248203
vn -0.6703473 -0.5245933 0.5248203
vn 0.6702992 -0.5247186 0.5247565
vn 0.6702992 -0.5247186 0.5247564
vn 0.6702992 -0.5247185 0.5247564
vn -0.6702859 0.5247081 0.5247838
vn -0.6702859 0.5247082 0.5247838
vn -0.6702859 0.5247082 0.5247838
vn -0.6703172 0.5246882 -0.5247639
vn -0.6703172 0.5246882 -0.5247639
vn -0.6703172 0.5246882 -0.5247639
vn 0.6703149 0.5247086 -0.5247464
vn 0.6703149 0.5247086 -0.5247465
vn 0.6703149 0.5247086 -0.5247464
vn 0.6702992 0.5247186 0.5247564
vn 0.6702992 0.5247186 0.5247564
vn 0.6702992 0.5247186 0.5247564
vn -3.384023E-06 -0.7069932 -0.7072204
vn 0 -0.7071394 -0.707074
vn 0 -0.7071374 -0.7070761
vn -3.384023E-06 -0.7069932 -0.7072204
vn 0 -0.7071374 -0.7070761
vn -3.429157E-06 -0.7069913 -0.7072223
vn 0 -0.7070085 0.707205
vn -3.585591E-06 -0.707081 0.7071325
vn -3.538382E-06 -0.7070801 0.7071334
vn 0 -0.7070085 0.707205
vn -3.538382E-06 -0.7070801 0.7071334
vn 0 -0.7070075 0.707206
vn 1 0 0
vn 1 0 0
vn 1 0 0
vn 1 0 0
vn 0 0 1
vn 0 0 1
vn 0 0 1
vn 0 0 1
vn -1 0 0
vn -1 0 0
vn -1 0 0
vn -1 0 0
vn 0 0 -1
vn 0 0 -1
vn 0 0 -1
vn 0 0 -1
vn 4.248903E-06 1 0
vn 4.248906E-06 1 0
vn 4.248898E-06 1 0
vn 4.248895E-06 1 0
vn -0.7874947 -0.6163213 0
vn -0.7874947 -0.6163213 0
vn -0.7874948 -0.6163213 0
vn -0.7874947 -0.6163213 0
vn 0.7874576 -0.6163687 0
vn 0.7873954 -0.6164482 0
vn 0.7873957 -0.6164479 0
vn 0.7874579 -0.6163684 0
vn -0.7874079 0.6164324 0
vn -0.7874079 0.6164324 0
vn -0.7874079 0.6164324 0
vn -0.7874079 0.6164324 0
vn 2.986288E-06 0.7071033 -0.7071103
vn 2.568147E-06 0.7071021 -0.7071115
vn 2.573724E-06 0.7071021 -0.7071115
vn 2.991866E-06 0.7071033 -0.7071102
vn 0.7873954 0.6164482 0
vn 0.7873954 0.6164482 0
vn 0.7873954 0.6164483 0
vn 0.7873954 0.6164482 0
vn 2.344161E-06 0.7070822 0.7071313
vn 3.017188E-06 0.7070811 0.7071324
vn 3.008212E-06 0.7070811 0.7071324
vn 2.335185E-06 0.7070823 0.7071313
vn 0.7873928 0 0.6164517
vn 0.7873928 0 0.6164517
vn 0.7873928 0 0.6164517
vn 0.7873928 0 0.6164517
vn -0.7873948 0 0.6164489
vn -0.7874082 0 0.6164319
vn -0.7873989 0 0.6164437
vn -0.7873856 0 0.6164608
vn -0.7874131 0 -0.6164258
vn -0.7874048 0 -0.6164362
vn -0.7874106 0 -0.6164289
vn -0.7874188 0 -0.6164183
vn 0.7874076 0 -0.6164325
vn 0.7874077 0 -0.6164325
vn 0.7874076 0 -0.6164325
vn 0.7874077 0 -0.6164325
vn 0 -1 0
vn 0 -1 0
vn 0 -1 0
vn 0 -1 0
vn 0 0 -1
vn 0 0 -1
vn 0 0 -1
vn 0 0 -1
vn -1 0 0
vn -1 0 0
vn -1 0 0
vn -1 0 0
vn 0 -1 0
vn 0 -1 0
vn 0 -1 0
vn 0 -1 0
vn 0 -1 0
vn 0 -1 0
vn 0 -1 0
vn 0 -1 0
vn 1 0 0
vn 1 0 0
vn 1 0 0
vn 1 0 0
vn 0 -1 0
vn 0 -1 0
vn 0 -1 0
vn 0 -1 0
vn 0 -1 0
vn 0 -1 0
vn 0 -1 0
vn 0 -1 0
vn 0.7873983 -0.6164446 0
vn 0.7873048 -0.6165641 0
vn 0.7873052 -0.6165635 0
vn 0.7873985 -0.6164443 0
vn 0 -0.7071521 0.7070614
vn -3.788058E-07 -0.7071545 0.707059
vn -3.734617E-07 -0.7071545 0.7070591
vn 0 -0.7071521 0.7070615
vn -0.7872828 -0.6165921 0
vn -0.7873047 -0.6165642 0
vn -0.7873045 -0.6165643 0
vn -0.7872828 -0.6165921 0
vn 0 -0.707189 -0.7070246
vn 0 -0.7071698 -0.7070438
vn 0 -0.7071702 -0.7070435
vn 0 -0.7071891 -0.7070245
vn -5.409454E-07 0 1
vn -5.409035E-07 -1.587772E-06 1
vn -5.409042E-07 -1.558238E-06 1
vn -5.409461E-07 0 1
vt 0.5339016 1.040755
vt 0.5384032 1.040755
vt 0.5384032 1.045258
vt 0.538399 0.7970777
vt 0.538399 0.801571
vt 0.5339057 0.801571
vt 0.2015904 0.03489513
vt 0.1971 0.03489513
vt 0.1971 0.03040498
vt -0.04658195 0.03489487
vt -0.042092 0.0304053
vt -0.042092 0.03489487
vt 0.2015903 0.03784389
vt 0.1971001 0.04233389
vt 0.1971001 0.03784389
vt 0.5383988 0.7970779
vt 0.5339059 0.8015708
vt 0.5383988 0.8015708
vt 0.5339015 1.040755
vt 0.5384032 1.045258
vt 0.5384032 1.040755
vt -0.04658188 0.03784412
vt -0.04209207 0.03784412
vt -0.04209207 0.04233372
vt 0.5380865 0.7522396
vt 0.5380865 1.090091
vt 0.5342182 1.090091
vt 0.5380865 0.7522396
vt 0.5342182 1.090091
vt 0.5342182 0.7522396
vt 0.2464353 0.03458418
vt -0.09142699 0.03458422
vt -0.09142699 0.03071596
vt 0.2464353 0.03458418
vt -0.09142699 0.03071596
vt 0.2464353 0.03071592
vt 1.106454 0.0332508
vt 1.106454 0.0394881
vt 0.4564011 0.0394881
vt 0.4564011 0.0332508
vt 0.2195498 0.03360994
vt 0.2195498 0.03912894
vt -0.06454157 0.03912898
vt -0.06454157 0.03360998
vt 0.4564093 0.03325088
vt 0.4564093 0.03948801
vt 1.106445 0.03948801
vt 1.106445 0.03325088
vt -0.06454157 0.03360998
vt -0.06454157 0.03912898
vt 0.2195498 0.03912894
vt 0.2195498 0.03360994
vt 0.4938264 0.7791173
vt 0.4938264 1.063213
vt 1.069028 1.063213
vt 1.069028 0.7791173
vt 1.147733 0.8013958
vt 0.4151217 0.8013958
vt 0.4151217 0.7972529
vt 1.147733 0.7972528
vt 0.4151959 1.040935
vt 1.147659 1.040935
vt 1.147659 1.045078
vt 0.4151959 1.045078
vt 1.147702 0.797253
vt 0.4151531 0.7972531
vt 0.4151531 0.8013957
vt 1.147702 0.8013957
vt 0.5342183 0.752248
vt 0.5342183 1.090083
vt 0.5380864 1.090083
vt 0.5380864 0.752248
vt 0.4151891 1.045078
vt 1.147666 1.045078
vt 1.147666 1.040935
vt 0.4151891 1.040935
vt 0.2464237 0.04202296
vt -0.09141544 0.042023
vt -0.09141544 0.03815485
vt 0.2464237 0.03815481
vt -0.04226561 0.03285512
vt -0.04226561 0.03988383
vt -0.04640834 0.03988383
vt -0.04640834 0.03285512
vt 0.1972739 0.03988366
vt 0.1972739 0.03285524
vt 0.2014165 0.03285524
vt 0.2014165 0.03988366
vt 0.1972739 0.03285515
vt 0.1972739 0.03988375
vt 0.2014165 0.03988375
vt 0.2014165 0.03285515
vt 0.5340809 0.03988408
vt 0.5340809 0.03285481
vt 0.5382238 0.03285481
vt 0.5382238 0.03988408
vt 0.5178448 1.01943
vt 1.045009 1.01943
vt 1.069032 1.043453
vt 0.4938224 1.043453
vt 0.1936154 0.03249243
vt -0.03860727 0.03249246
vt -0.03860727 0.03780699
vt 0.1936154 0.03780696
vt 1.077139 0.0321467
vt 0.4857153 0.0321467
vt 0.4857153 0.03815269
vt 1.077139 0.03815269
vt 1.132988 0.7881426
vt 1.36904 0.7881426
vt 1.393063 0.8121648
vt 1.108965 0.8121648
vt 0.5197656 0.8050563
vt 1.043089 0.8050563
vt 1.043089 1.037274
vt 0.5197656 1.037274
vt 0.4857125 0.03214667
vt 1.077142 0.03214667
vt 1.077142 0.03815272
vt 0.4857125 0.03815272
vt 1.045005 0.8229004
vt 0.5178494 0.8229004
vt 0.4938275 0.7988784
vt 1.069027 0.7988784
vt 1.36904 0.3447449
vt 1.132988 0.3447449
vt 1.108966 0.3207228
vt 1.393062 0.3207226
vt 1.114667 0.03330407
vt 0.4481876 0.03330407
vt 0.4457466 0.03086307
vt 1.117108 0.03086307
vt 0.5598555 0.7830957
vt 0.5598555 1.059235
vt 0.5575763 1.061514
vt 0.5575763 0.7808165
vt 0.4481833 0.03330408
vt 1.114672 0.03330408
vt 1.117112 0.03086306
vt 0.4457423 0.03086306
vt -0.06056966 0.03322324
vt 0.2155777 0.0332232
vt 0.217857 0.03094393
vt -0.0628486 0.03094397
vt -0.03860727 0.03249246
vt 0.1936154 0.03249243
vt 0.1936154 0.03780696
vt -0.03860727 0.03780699
usemtl LightWoodCounters3
f 3/3/3 2/2/2 1/1/1
f 6/6/6 5/5/5 4/4/4
f 9/9/9 8/8/8 7/7/7
f 12/12/12 11/11/11 10/10/10
f 15/15/15 14/14/14 13/13/13
f 18/18/18 17/17/17 16/16/16
f 21/21/21 20/20/20 19/19/19
f 24/24/24 23/23/23 22/22/22
f 27/27/27 26/26/26 25/25/25
f 30/30/30 29/29/29 28/28/28
f 33/33/33 32/32/32 31/31/31
f 36/36/36 35/35/35 34/34/34
f 39/39/39 38/38/38 37/37/37
f 40/40/40 39/39/39 37/37/37
f 43/43/43 42/42/42 41/41/41
f 44/44/44 43/43/43 41/41/41
f 47/47/47 46/46/46 45/45/45
f 48/48/48 47/47/47 45/45/45
f 51/51/51 50/50/50 49/49/49
f 52/52/52 51/51/51 49/49/49
f 55/55/55 54/54/54 53/53/53
f 56/56/56 55/55/55 53/53/53
f 59/59/59 58/58/58 57/57/57
f 60/60/60 59/59/59 57/57/57
f 63/63/63 62/62/62 61/61/61
f 64/64/64 63/63/63 61/61/61
f 67/67/67 66/66/66 65/65/65
f 68/68/68 67/67/67 65/65/65
f 71/71/71 70/70/70 69/69/69
f 72/72/72 71/71/71 69/69/69
f 75/75/75 74/74/74 73/73/73
f 76/76/76 75/75/75 73/73/73
f 79/79/79 78/78/78 77/77/77
f 80/80/80 79/79/79 77/77/77
f 83/83/83 82/82/82 81/81/81
f 84/84/84 83/83/83 81/81/81
f 87/87/87 86/86/86 85/85/85
f 88/88/88 87/87/87 85/85/85
f 91/91/91 90/90/90 89/89/89
f 92/92/92 91/91/91 89/89/89
f 95/95/95 94/94/94 93/93/93
f 96/96/96 95/95/95 93/93/93
f 99/99/99 98/98/98 97/97/97
f 100/100/100 99/99/99 97/97/97
f 103/103/103 102/102/102 101/101/101
f 104/104/104 103/103/103 101/101/101
f 107/107/107 106/106/106 105/105/105
f 108/108/108 107/107/107 105/105/105
f 111/111/111 110/110/110 109/109/109
f 112/112/112 111/111/111 109/109/109
f 115/115/115 114/114/114 113/113/113
f 116/116/116 115/115/115 113/113/113
f 119/119/119 118/118/118 117/117/117
f 120/120/120 119/119/119 117/117/117
f 123/123/123 122/122/122 121/121/121
f 124/124/124 123/123/123 121/121/121
f 127/127/127 126/126/126 125/125/125
f 128/128/128 127/127/127 125/125/125
f 131/131/131 130/130/130 129/129/129
f 132/132/132 131/131/131 129/129/129
f 135/135/135 134/134/134 133/133/133
f 136/136/136 135/135/135 133/133/133
f 139/139/139 138/138/138 137/137/137
f 140/140/140 139/139/139 137/137/137
f 143/143/143 142/142/142 141/141/141
f 144/144/144 143/143/143 141/141/141
f 147/147/147 146/146/146 145/145/145
f 148/148/148 147/147/147 145/145/145
g handle_1_305mm_01_cce51ec0
v -0.13949 0.00201 0
v -0.14041 0.00262 0.03038
v -0.14041 0.00262 0
v -0.13949 0.00201 0.03038
v -0.13888 0.00109 0
v -0.13888 0.00109 0.03038
v -0.13866 0 0
v -0.13866 0 0.03038
v -0.13888 -0.00108 0
v -0.13888 -0.00108 0.03038
v -0.13949 -0.002 0
v -0.13949 -0.002 0.03038
v -0.14041 -0.00261 0
v -0.14041 -0.00261 0.03038
v -0.14041 0.00262 0
v -0.14041 0.00262 0.03038
v -0.14149 0.00284 0.03038
v -0.14149 0.00284 0
v -0.14258 0.00262 0.03038
v -0.14258 0.00262 0
v -0.14258 0.00262 0
v -0.14258 0.00262 0.03038
v -0.1435 0.00201 0.03038
v -0.1435 0.00201 0
v -0.14411 0.00109 0.03038
v -0.14411 0.00109 0
v -0.14433 1E-05 0.03038
v -0.14432 1E-05 0
v -0.14411 -0.00108 0.03038
v -0.14411 -0.00108 0
v -0.1435 -0.002 0.03038
v -0.1435 -0.002 0
v -0.14258 -0.00261 0.03038
v -0.14258 -0.00261 0
v -0.14258 -0.00261 0
v -0.14258 -0.00261 0.03038
v -0.14149 -0.00283 0.03038
v -0.14149 -0.00283 0
v -0.14041 -0.00261 0.03038
v -0.14041 -0.00261 0
v 0.14266 0.00201 0
v 0.14175 0.00262 0.03038
v 0.14175 0.00262 0
v 0.14266 0.00201 0.03038
v 0.14328 0.00109 0
v 0.14328 0.00109 0.03038
v 0.14349 0 0
v 0.14349 0 0.03038
v 0.14328 -0.00108 0
v 0.14328 -0.00108 0.03038
v 0.14266 -0.002 0
v 0.14266 -0.002 0.03038
v 0.14175 -0.00261 0
v 0.14175 -0.00261 0.03038
v 0.14175 0.00262 0
v 0.14175 0.00262 0.03038
v 0.14066 0.00284 0.03038
v 0.14066 0.00284 0
v 0.13958 0.00262 0.03038
v 0.13958 0.00262 0
v 0.13958 0.00262 0
v 0.13958 0.00262 0.03038
v 0.13866 0.00201 0.03038
v 0.13866 0.00201 0
v 0.13805 0.00109 0.03038
v 0.13805 0.00109 0
v 0.13783 0 0.03038
v 0.13783 0 0
v 0.13805 -0.00108 0.03038
v 0.13805 -0.00108 0
v 0.13866 -0.002 0.03038
v 0.13866 -0.002 0
v 0.13958 -0.00261 0.03038
v 0.13958 -0.00261 0
v 0.13958 -0.00261 0
v 0.13958 -0.00261 0.03038
v 0.14066 -0.00283 0.03038
v 0.14066 -0.00283 0
v 0.14175 -0.00261 0.03038
v 0.14175 -0.00261 0
v -0.15156 0.00184 0.02934
v 0.15157 0.00184 0.02934
v 0.15157 0.00339 0.03038
v -0.15156 0.00339 0.03038
v 0.15157 0.00443 0.03193
v -0.15156 0.00443 0.03193
v 0.15157 0.00479 0.03377
v -0.15156 0.00479 0.03377
v 0.15157 0.00443 0.0356
v -0.15156 0.00443 0.0356
v 0.15157 0.00339 0.03715
v -0.15156 0.00339 0.03715
v 0.15157 0.00184 0.03819
v -0.15156 0.00184 0.03819
v -0.15156 0.00184 0.03819
v 0.15157 0.00184 0.03819
v 0.15157 0 0.03855
v -0.15156 1E-05 0.03855
v 0.15157 -0.00183 0.03819
v -0.15156 -0.00183 0.03819
v -0.15156 -0.00183 0.03819
v 0.15157 -0.00183 0.03819
v 0.15157 -0.00338 0.03715
v -0.15156 -0.00338 0.03715
v 0.15157 -0.00442 0.0356
v -0.15156 -0.00442 0.0356
v 0.15157 -0.00478 0.03377
v -0.15156 -0.00478 0.03377
v 0.15157 -0.00442 0.03193
v -0.15156 -0.00442 0.03193
v 0.15157 -0.00338 0.03038
v -0.15156 -0.00338 0.03038
v 0.15157 -0.00183 0.02934
v -0.15156 -0.00183 0.02934
v -0.15156 -0.00183 0.02934
v 0.15157 -0.00183 0.02934
v 0.15157 0 0.02898
v -0.15156 1E-05 0.02898
v 0.15157 0.00184 0.02934
v -0.15156 0.00184 0.02934
v -0.14041 0.00262 0
v -0.14149 0.00284 0
v -0.14149 0 0
v -0.13949 0.00201 0
v -0.14258 0.00262 0
v -0.13888 0.00109 0
v -0.1435 0.00201 0
v -0.13866 0 0
v -0.14411 0.00109 0
v -0.13888 -0.00108 0
v -0.14432 1E-05 0
v -0.13949 -0.002 0
v -0.14411 -0.00108 0
v -0.14041 -0.00261 0
v -0.1435 -0.002 0
v -0.14149 -0.00283 0
v -0.14258 -0.00261 0
v 0.14175 0.00262 0
v 0.14066 0.00284 0
v 0.14066 0 0
v 0.14266 0.00201 0
v 0.13958 0.00262 0
v 0.14328 0.00109 0
v 0.13866 0.00201 0
v 0.14349 0 0
v 0.13805 0.00109 0
v 0.14328 -0.00108 0
v 0.13783 0 0
v 0.14266 -0.002 0
v 0.13805 -0.00108 0
v 0.14175 -0.00261 0
v 0.13866 -0.002 0
v 0.14066 -0.00283 0
v 0.13958 -0.00261 0
v -0.15249 0.00354 0.0323
v -0.15249 0.00383 0.03377
v -0.15249 0 0.03377
v -0.15249 0.00271 0.03106
v -0.15249 0.00354 0.03523
v -0.15249 0.00147 0.03023
v -0.15249 0.00271 0.03647
v -0.15249 0 0.02994
v -0.15249 0.00147 0.0373
v -0.15249 -0.00146 0.03023
v -0.15249 1E-05 0.0376
v -0.15249 -0.0027 0.03106
v -0.15249 -0.00146 0.0373
v -0.15249 -0.00353 0.0323
v -0.15249 -0.0027 0.03647
v -0.15249 -0.00382 0.03377
v -0.15249 -0.00353 0.03523
v 0.1525 0 0.03377
v 0.1525 0.00383 0.03377
v 0.1525 0.00354 0.0323
v 0.1525 0.00271 0.03106
v 0.1525 0.00354 0.03523
v 0.1525 0.00147 0.03023
v 0.1525 0.00271 0.03647
v 0.1525 0 0.02994
v 0.1525 0.00147 0.0373
v 0.1525 -0.00146 0.03023
v 0.1525 0 0.0376
v 0.1525 -0.0027 0.03106
v 0.1525 -0.00146 0.0373
v 0.1525 -0.00353 0.0323
v 0.1525 -0.0027 0.03647
v 0.1525 -0.00382 0.03377
v 0.1525 -0.00353 0.03523
v -0.15249 0.00147 0.03023
v -0.15249 0 0.02994
v -0.15156 1E-05 0.02898
v -0.15156 0.00184 0.02934
v -0.15156 -0.00183 0.02934
v -0.15249 0.00271 0.03106
v -0.15249 -0.00146 0.03023
v -0.15156 0.00339 0.03038
v -0.15156 -0.00338 0.03038
v -0.15249 0.00354 0.0323
v -0.15249 -0.0027 0.03106
v -0.15156 0.00443 0.03193
v -0.15156 -0.00442 0.03193
v -0.15249 0.00383 0.03377
v -0.15249 -0.00353 0.0323
v -0.15156 0.00479 0.03377
v -0.15156 -0.00478 0.03377
v -0.15249 0.00354 0.03523
v -0.15249 -0.00382 0.03377
v -0.15156 0.00443 0.0356
v -0.15156 -0.00442 0.0356
v -0.15249 0.00271 0.03647
v -0.15249 -0.00353 0.03523
v -0.15156 0.00339 0.03715
v -0.15156 -0.00338 0.03715
v -0.15249 0.00147 0.0373
v -0.15249 -0.0027 0.03647
v -0.15156 0.00184 0.03819
v -0.15156 -0.00183 0.03819
v -0.15249 1E-05 0.0376
v -0.15249 -0.00146 0.0373
v -0.15156 1E-05 0.03855
v 0.1525 0.00147 0.03023
v 0.1525 0.00271 0.03106
v 0.15157 0.00339 0.03038
v 0.15157 0.00184 0.02934
v 0.15157 0.00443 0.03193
v 0.1525 0 0.02994
v 0.1525 0.00354 0.0323
v 0.15157 0 0.02898
v 0.15157 0.00479 0.03377
v 0.1525 -0.00146 0.03023
v 0.1525 0.00383 0.03377
v 0.15157 -0.00183 0.02934
v 0.15157 0.00443 0.0356
v 0.1525 -0.0027 0.03106
v 0.1525 0.00354 0.03523
v 0.15157 -0.00338 0.03038
v 0.15157 0.00339 0.03715
v 0.1525 -0.00353 0.0323
v 0.1525 0.00271 0.03647
v 0.15157 -0.00442 0.03193
v 0.15157 0.00184 0.03819
v 0.1525 -0.00382 0.03377
v 0.1525 0.00147 0.0373
v 0.15157 -0.00478 0.03377
v 0.15157 0 0.03855
v 0.1525 -0.00353 0.03523
v 0.1525 0 0.0376
v 0.15157 -0.00442 0.0356
v 0.15157 -0.00183 0.03819
v 0.1525 -0.0027 0.03647
v 0.1525 -0.00146 0.0373
v 0.15157 -0.00338 0.03715
vn 0.7071072 0.7071064 0
vn 0.3826837 0.9238794 0
vn 0.3826837 0.9238794 0
vn 0.7071072 0.7071064 0
vn 0.9238798 0.3826828 0
vn 0.9238798 0.3826828 0
vn 1 -7.206469E-07 0
vn 1 -7.206469E-07 0
vn 0.9238794 -0.3826839 0
vn 0.9238794 -0.3826839 0
vn 0.7071069 -0.7071066 0
vn 0.7071069 -0.7071066 0
vn 0.3826837 -0.9238794 0
vn 0.3826837 -0.9238794 0
vn 0.3826837 0.9238794 0
vn 0.3826837 0.9238794 0
vn 5.332784E-07 1 0
vn 5.332784E-07 1 0
vn -0.382683 0.9238797 0
vn -0.382683 0.9238797 0
vn -0.382683 0.9238797 0
vn -0.382683 0.9238797 0
vn -0.7071061 0.7071074 0
vn -0.7071061 0.7071074 0
vn -0.9238794 0.3826839 0
vn -0.9238794 0.3826839 0
vn -1 0 0
vn -1 0 0
vn -0.9238797 -0.3826831 0
vn -0.9238797 -0.3826831 0
vn -0.7071072 -0.7071064 0
vn -0.7071072 -0.7071064 0
vn -0.3826834 -0.9238795 0
vn -0.3826834 -0.9238795 0
vn -0.3826834 -0.9238795 0
vn -0.3826834 -0.9238795 0
vn 0 -1 0
vn 0 -1 0
vn 0.3826837 -0.9238794 0
vn 0.3826837 -0.9238794 0
vn 0.7071061 0.7071074 0
vn 0.3826829 0.9238797 0
vn 0.3826829 0.9238797 0
vn 0.7071061 0.7071074 0
vn 0.9238793 0.382684 0
vn 0.9238793 0.382684 0
vn 1 0 0
vn 1 0 0
vn 0.9238794 -0.3826838 0
vn 0.9238794 -0.3826838 0
vn 0.7071059 -0.7071077 0
vn 0.7071059 -0.7071077 0
vn 0.3826824 -0.92388 0
vn 0.3826824 -0.92388 0
vn 0.3826829 0.9238797 0
vn 0.3826829 0.9238797 0
vn 5.404888E-07 1 0
vn 5.404888E-07 1 0
vn -0.3826861 0.9238784 0
vn -0.3826861 0.9238784 0
vn -0.3826861 0.9238784 0
vn -0.3826861 0.9238784 0
vn -0.7071 0.7071136 0
vn -0.7071 0.7071136 0
vn -0.9238794 0.3826839 0
vn -0.9238794 0.3826839 0
vn -1 0 0
vn -1 0 0
vn -0.9238835 -0.3826738 0
vn -0.9238835 -0.3826738 0
vn -0.7071061 -0.7071074 0
vn -0.7071061 -0.7071074 0
vn -0.3826826 -0.9238799 0
vn -0.3826826 -0.9238799 0
vn -0.3826826 -0.9238799 0
vn -0.3826826 -0.9238799 0
vn 0 -1 0
vn 0 -1 0
vn 0.3826824 -0.92388 0
vn 0.3826824 -0.92388 0
vn 0 0.3826824 -0.92388
vn 0 0.3826824 -0.92388
vn 0 0.7071066 -0.7071069
vn 0 0.7071066 -0.7071069
vn 0 0.9238795 -0.3826834
vn 0 0.9238795 -0.3826834
vn 0 1 -6.969865E-07
vn 0 1 -6.969865E-07
vn 0 0.9238798 0.3826829
vn 0 0.9238798 0.3826829
vn 0 0.7071068 0.7071066
vn 0 0.7071068 0.7071066
vn 0 0.3826823 0.92388
vn 0 0.3826823 0.92388
vn 0 0.3826823 0.92388
vn 0 0.3826823 0.92388
vn 0 0 1
vn 0 0 1
vn 0 -0.3826821 0.92388
vn 0 -0.3826821 0.92388
vn 0 -0.3826821 0.92388
vn 0 -0.3826821 0.92388
vn 0 -0.7071066 0.7071069
vn 0 -0.7071066 0.7071069
vn 0 -0.9238795 0.3826833
vn 0 -0.9238795 0.3826833
vn 0 -1 1.639968E-07
vn 0 -1 1.639968E-07
vn 0 -0.9238795 -0.3826833
vn 0 -0.9238795 -0.3826833
vn 0 -0.7071069 -0.7071066
vn 0 -0.7071069 -0.7071066
vn 0 -0.3826823 -0.92388
vn 0 -0.3826823 -0.92388
vn 0 -0.3826823 -0.92388
vn 0 -0.3826823 -0.92388
vn 0 0 -1
vn 0 0 -1
vn 0 0.3826824 -0.92388
vn 0 0.3826824 -0.92388
vn -1.214599E-06 0 -1
vn 1.214598E-07 0 -1
vn 1.518248E-07 0 -1
vn -6.072998E-07 0 -1
vn 1.457519E-06 0 -1
vn 0 0 -1
vn 7.287595E-07 0 -1
vn -4.858398E-07 0 -1
vn 0 0 -1
vn -9.716794E-07 0 -1
vn 4.858396E-07 0 -1
vn 0 0 -1
vn 9.716797E-07 0 -1
vn 9.716798E-07 0 -1
vn 4.858396E-07 0 -1
vn 4.858397E-07 0 -1
vn 0 0 -1
vn -1.214598E-06 0 -1
vn 1.214593E-07 0 -1
vn 1.518239E-07 0 -1
vn -6.072999E-07 0 -1
vn 1.457533E-06 0 -1
vn 0 0 -1
vn 7.287611E-07 0 -1
vn -4.858402E-07 0 -1
vn 0 0 -1
vn -9.716799E-07 0 -1
vn 4.858389E-07 0 -1
vn 0 0 -1
vn 9.716799E-07 0 -1
vn 9.71678E-07 0 -1
vn 4.858391E-07 0 -1
vn 4.85839E-07 0 -1
vn 0 0 -1
vn -1 0 0
vn -1 0 0
vn -1 0 0
vn -1 0 0
vn -1 0 0
vn -1 0 0
vn -1 0 0
vn -1 0 0
vn -1 0 0
vn -1 0 0
vn -1 0 0
vn -1 0 0
vn -1 0 0
vn -1 0 0
vn -1 0 0
vn -1 0 0
vn -1 0 0
vn 1 0 0
vn 1 4.247519E-06 0
vn 1 8.495043E-06 0
vn 1 4.247529E-06 0
vn 1 0 0
vn 1 0 0
vn 1 0 0
vn 1 0 0
vn 1 0 0
vn 1 0 0
vn 1 0 0
vn 1 0 0
vn 1 0 0
vn 1 0 0
vn 1 -4.247526E-06 0
vn 1 -4.247519E-06 0
vn 1 -8.495042E-06 0
vn -0.7139321 0.2679597 -0.6469147
vn -0.7139321 0 -0.700215
vn -0.7139321 0 -0.700215
vn -0.713932 0.2679597 -0.6469147
vn -0.7139322 -0.2679596 -0.6469147
vn -0.7139319 0.4951265 -0.4951273
vn -0.7139321 -0.2679596 -0.6469147
vn -0.7139319 0.4951268 -0.495127
vn -0.713932 -0.4951269 -0.4951268
vn -0.7139321 0.6469142 -0.2679607
vn -0.713932 -0.4951266 -0.4951271
vn -0.7139321 0.6469144 -0.2679603
vn -0.7139321 -0.6469144 -0.2679603
vn -0.7139324 0.7002147 -5.602393E-07
vn -0.7139321 -0.6469142 -0.2679607
vn -0.7139324 0.7002146 -4.562435E-07
vn -0.7139324 -0.7002146 1.545341E-07
vn -0.7139322 0.6469144 0.2679602
vn -0.7139324 -0.7002146 1.785377E-07
vn -0.7139322 0.6469145 0.2679599
vn -0.713932 -0.6469145 0.2679603
vn -0.7139319 0.4951266 0.4951272
vn -0.713932 -0.6469143 0.2679607
vn -0.7139319 0.4951269 0.4951269
vn -0.7139319 -0.4951268 0.4951269
vn -0.713932 0.2679597 0.6469147
vn -0.7139319 -0.4951265 0.4951272
vn -0.713932 0.2679597 0.6469147
vn -0.7139322 -0.2679595 0.6469147
vn -0.7139322 0 0.7002148
vn -0.7139322 -0.2679595 0.6469147
vn -0.7139321 0 0.7002149
vn 0.7139297 0.2679613 -0.6469166
vn 0.7139297 0.4951279 -0.495129
vn 0.7139297 0.4951282 -0.4951287
vn 0.7139297 0.2679613 -0.6469166
vn 0.7139298 0.6469165 -0.2679611
vn 0.7139299 0 -0.7002171
vn 0.7139298 0.6469164 -0.2679616
vn 0.7139299 0 -0.7002171
vn 0.7139291 0.700218 -4.488825E-07
vn 0.7139297 -0.2679613 -0.6469166
vn 0.7139291 0.700218 -5.417675E-07
vn 0.7139297 -0.2679613 -0.6469166
vn 0.7139298 0.6469166 0.2679607
vn 0.7139297 -0.4951282 -0.4951287
vn 0.7139298 0.6469165 0.2679611
vn 0.7139297 -0.4951284 -0.4951285
vn 0.7139297 0.4951284 0.4951286
vn 0.7139298 -0.6469164 -0.2679615
vn 0.7139297 0.4951281 0.4951288
vn 0.7139298 -0.6469165 -0.2679611
vn 0.7139295 0.2679613 0.6469167
vn 0.7139291 -0.700218 0
vn 0.7139295 0.2679613 0.6469169
vn 0.7139291 -0.700218 0
vn 0.7139298 0 0.7002173
vn 0.7139297 -0.6469164 0.2679615
vn 0.7139298 0 0.7002173
vn 0.7139298 -0.6469166 0.2679611
vn 0.7139297 -0.2679611 0.6469167
vn 0.7139297 -0.4951279 0.495129
vn 0.7139297 -0.2679611 0.6469167
vn 0.7139297 -0.4951282 0.4951287
vt -10.03768 0.821121
vt -9.9709 0.8197725
vt -10.03768 0.8197725
vt -9.9709 0.821121
vt -10.03768 0.8231399
vt -9.9709 0.8231399
vt -10.03768 0.8255222
vt -9.9709 0.8255222
vt -10.03768 0.8279045
vt -9.9709 0.8279045
vt -10.03768 0.8299234
vt -9.9709 0.8299234
vt -10.03768 0.8312719
vt -9.9709 0.8312719
vt -9.974336 0.804857
vt -10.03424 0.804857
vt -10.03424 0.8069942
vt -9.974336 0.8069942
vt -10.03424 0.8091304
vt -9.974336 0.8091304
vt -9.9709 0.7817085
vt -10.03768 0.7817085
vt -10.03768 0.7830589
vt -9.9709 0.7830589
vt -10.03768 0.7850778
vt -9.9709 0.7850778
vt -10.03768 0.7874591
vt -9.9709 0.7874591
vt -10.03768 0.7898414
vt -9.9709 0.7898414
vt -10.03768 0.7918603
vt -9.9709 0.7918603
vt -10.03768 0.7932098
vt -9.9709 0.7932098
vt -10.03424 0.7710683
vt -9.974336 0.7710683
vt -9.974336 0.7689312
vt -10.03424 0.7689312
vt -9.974336 0.766794
vt -10.03424 0.766794
vt -10.03768 0.7449958
vt -9.9709 0.7436473
vt -10.03768 0.7436473
vt -9.9709 0.7449958
vt -10.03768 0.7470148
vt -9.9709 0.7470148
vt -10.03768 0.749397
vt -9.9709 0.749397
vt -10.03768 0.7517793
vt -9.9709 0.7517793
vt -10.03768 0.7537982
vt -9.9709 0.7537982
vt -10.03768 0.7551467
vt -9.9709 0.7551467
vt -9.974337 0.7287309
vt -10.03424 0.7287309
vt -10.03424 0.7308681
vt -9.974337 0.7308681
vt -10.03424 0.7330053
vt -9.974337 0.7330053
vt -9.9709 0.7055833
vt -10.03768 0.7055833
vt -10.03768 0.7069328
vt -9.9709 0.7069328
vt -10.03768 0.7089517
vt -9.9709 0.7089517
vt -10.03768 0.711334
vt -9.9709 0.711334
vt -10.03768 0.7137163
vt -9.9709 0.7137163
vt -10.03768 0.7157342
vt -9.9709 0.7157342
vt -10.03768 0.7170837
vt -9.9709 0.7170837
vt -10.03424 0.6949422
vt -9.974336 0.6949422
vt -9.974336 0.692806
vt -10.03424 0.692806
vt -9.974336 0.6906688
vt -10.03424 0.6906688
vt -9.222989 0.9187925
vt -9.889388 0.9187925
vt -9.889388 0.9210746
vt -9.222989 0.9210746
vt -9.889388 0.9244878
vt -9.222989 0.9244878
vt -9.889388 0.9285161
vt -9.222989 0.9285161
vt -9.889388 0.9325426
vt -9.222989 0.9325426
vt -9.889388 0.9359577
vt -9.222989 0.9359577
vt -9.889388 0.9382389
vt -9.222989 0.9382389
vt -9.257284 0.8969848
vt -9.855092 0.8969848
vt -9.855092 0.9005973
vt -9.257284 0.9005973
vt -9.855092 0.9042099
vt -9.257284 0.9042099
vt -9.22299 0.8642356
vt -9.889386 0.8642356
vt -9.889386 0.8665178
vt -9.22299 0.8665178
vt -9.889386 0.8699319
vt -9.22299 0.8699319
vt -9.889386 0.8739593
vt -9.22299 0.8739593
vt -9.889386 0.8779867
vt -9.22299 0.8779867
vt -9.889386 0.8814008
vt -9.22299 0.8814008
vt -9.889386 0.883683
vt -9.22299 0.883683
vt -9.257299 0.8426082
vt -9.855077 0.8426082
vt -9.855077 0.8462217
vt -9.257299 0.8462217
vt -9.855077 0.8498342
vt -9.257299 0.8498342
vt -10.05 0.594321
vt -10.05042 0.5964372
vt -10.04489 0.5964372
vt -10.0488 0.5925272
vt -10.05 0.5985534
vt -10.04701 0.5913284
vt -10.0488 0.6003473
vt -10.04489 0.5909078
vt -10.04701 0.601546
vt -10.04278 0.5913284
vt -10.04489 0.6019666
vt -10.04098 0.5925272
vt -10.04278 0.601546
vt -10.03978 0.594321
vt -10.04098 0.6003473
vt -10.03936 0.5964372
vt -10.03978 0.5985534
vt -10.05 0.5689456
vt -10.05042 0.5710618
vt -10.04489 0.5710618
vt -10.0488 0.5671518
vt -10.05 0.5731781
vt -10.04701 0.565953
vt -10.0488 0.5749719
vt -10.04489 0.5655324
vt -10.04701 0.5761707
vt -10.04278 0.565953
vt -10.04489 0.5765913
vt -10.04098 0.5671518
vt -10.04278 0.5761707
vt -10.03978 0.5689456
vt -10.04098 0.5749719
vt -10.03936 0.5710618
vt -10.03978 0.5731781
vt -10.0354 0.6587265
vt -10.03847 0.6581171
vt -10.03847 0.6661355
vt -10.0328 0.660465
vt -10.04153 0.6587265
vt -10.03106 0.6630666
vt -10.04414 0.660465
vt -10.03045 0.6661355
vt -10.04587 0.6630666
vt -10.03106 0.6692035
vt -10.04648 0.6661355
vt -10.0328 0.6718051
vt -10.04587 0.6692035
vt -10.0354 0.6735437
vt -10.04414 0.6718051
vt -10.03847 0.6741531
vt -10.04153 0.6735437
vt -10.03847 0.6280735
vt -10.03045 0.6280735
vt -10.03106 0.6250045
vt -10.03279 0.6224029
vt -10.03106 0.6311414
vt -10.0354 0.6206653
vt -10.03279 0.633743
vt -10.03847 0.620054
vt -10.0354 0.6354806
vt -10.04153 0.6206653
vt -10.03847 0.636091
vt -10.04414 0.6224029
vt -10.04153 0.6354806
vt -10.04587 0.6250045
vt -10.04414 0.633743
vt -10.04648 0.6280735
vt -10.04587 0.6311414
vt -10.03106 0.6630666
vt -10.03045 0.6661355
vt -10.02844 0.6661355
vt -10.02921 0.6622999
vt -10.02921 0.6699712
vt -10.0328 0.660465
vt -10.03106 0.6692035
vt -10.03138 0.6590488
vt -10.03138 0.6732223
vt -10.0354 0.6587265
vt -10.0328 0.6718051
vt -10.03463 0.6568754
vt -10.03463 0.6753948
vt -10.03847 0.6581171
vt -10.0354 0.6735437
vt -10.03847 0.6561124
vt -10.03847 0.6761587
vt -10.04153 0.6587265
vt -10.03847 0.6741531
vt -10.0423 0.6568754
vt -10.0423 0.6753948
vt -10.04414 0.660465
vt -10.04153 0.6735437
vt -10.04555 0.6590488
vt -10.04555 0.6732223
vt -10.04587 0.6630666
vt -10.04414 0.6718051
vt -10.04773 0.6622999
vt -10.04773 0.6699712
vt -10.04648 0.6661355
vt -10.04587 0.6692035
vt -10.04849 0.6661355
vt -10.0354 0.6206653
vt -10.03279 0.6224029
vt -10.03138 0.6209857
vt -10.03463 0.6188133
vt -10.02921 0.6242368
vt -10.03847 0.620054
vt -10.03106 0.6250045
vt -10.03847 0.6180503
vt -10.02844 0.6280735
vt -10.04153 0.6206653
vt -10.03045 0.6280735
vt -10.0423 0.6188133
vt -10.02921 0.6319082
vt -10.04414 0.6224029
vt -10.03106 0.6311414
vt -10.04555 0.6209857
vt -10.03138 0.6351612
vt -10.04587 0.6250045
vt -10.03279 0.633743
vt -10.04773 0.6242368
vt -10.03463 0.6373327
vt -10.04648 0.6280735
vt -10.0354 0.6354806
vt -10.04849 0.6280735
vt -10.03847 0.6380966
vt -10.04587 0.6311414
vt -10.03847 0.636091
vt -10.04773 0.6319082
vt -10.0423 0.6373327
vt -10.04414 0.633743
vt -10.04153 0.6354806
vt -10.04555 0.6351612
usemtl HammeredMetal_Dark
f 151/151/151 150/150/150 149/149/149
f 150/150/150 152/152/152 149/149/149
f 149/149/149 152/152/152 153/153/153
f 152/152/152 154/154/154 153/153/153
f 153/153/153 154/154/154 155/155/155
f 154/154/154 156/156/156 155/155/155
f 155/155/155 156/156/156 157/157/157
f 156/156/156 158/158/158 157/157/157
f 157/157/157 158/158/158 159/159/159
f 158/158/158 160/160/160 159/159/159
f 159/159/159 160/160/160 161/161/161
f 160/160/160 162/162/162 161/161/161
f 165/165/165 164/164/164 163/163/163
f 166/166/166 165/165/165 163/163/163
f 167/167/167 165/165/165 166/166/166
f 168/168/168 167/167/167 166/166/166
f 171/171/171 170/170/170 169/169/169
f 172/172/172 171/171/171 169/169/169
f 173/173/173 171/171/171 172/172/172
f 174/174/174 173/173/173 172/172/172
f 175/175/175 173/173/173 174/174/174
f 176/176/176 175/175/175 174/174/174
f 177/177/177 175/175/175 176/176/176
f 178/178/178 177/177/177 176/176/176
f 179/179/179 177/177/177 178/178/178
f 180/180/180 179/179/179 178/178/178
f 181/181/181 179/179/179 180/180/180
f 182/182/182 181/181/181 180/180/180
f 185/185/185 184/184/184 183/183/183
f 186/186/186 185/185/185 183/183/183
f 187/187/187 185/185/185 186/186/186
f 188/188/188 187/187/187 186/186/186
f 191/191/191 190/190/190 189/189/189
f 190/190/190 192/192/192 189/189/189
f 189/189/189 192/192/192 193/193/193
f 192/192/192 194/194/194 193/193/193
f 193/193/193 194/194/194 195/195/195
f 194/194/194 196/196/196 195/195/195
f 195/195/195 196/196/196 197/197/197
f 196/196/196 198/198/198 197/197/197
f 197/197/197 198/198/198 199/199/199
f 198/198/198 200/200/200 199/199/199
f 199/199/199 200/200/200 201/201/201
f 200/200/200 202/202/202 201/201/201
f 205/205/205 204/204/204 203/203/203
f 206/206/206 205/205/205 203/203/203
f 207/207/207 205/205/205 206/206/206
f 208/208/208 207/207/207 206/206/206
f 211/211/211 210/210/210 209/209/209
f 212/212/212 211/211/211 209/209/209
f 213/213/213 211/211/211 212/212/212
f 214/214/214 213/213/213 212/212/212
f 215/215/215 213/213/213 214/214/214
f 216/216/216 215/215/215 214/214/214
f 217/217/217 215/215/215 216/216/216
f 218/218/218 217/217/217 216/216/216
f 219/219/219 217/217/217 218/218/218
f 220/220/220 219/219/219 218/218/218
f 221/221/221 219/219/219 220/220/220
f 222/222/222 221/221/221 220/220/220
f 225/225/225 224/224/224 223/223/223
f 226/226/226 225/225/225 223/223/223
f 227/227/227 225/225/225 226/226/226
f 228/228/228 227/227/227 226/226/226
f 231/231/231 230/230/230 229/229/229
f 232/232/232 231/231/231 229/229/229
f 233/233/233 231/231/231 232/232/232
f 234/234/234 233/233/233 232/232/232
f 235/235/235 233/233/233 234/234/234
f 236/236/236 235/235/235 234/234/234
f 237/237/237 235/235/235 236/236/236
f 238/238/238 237/237/237 236/236/236
f 239/239/239 237/237/237 238/238/238
f 240/240/240 239/239/239 238/238/238
f 241/241/241 239/239/239 240/240/240
f 242/242/242 241/241/241 240/240/240
f 245/245/245 244/244/244 243/243/243
f 246/246/246 245/245/245 243/243/243
f 247/247/247 245/245/245 246/246/246
f 248/248/248 247/247/247 246/246/246
f 251/251/251 250/250/250 249/249/249
f 252/252/252 251/251/251 249/249/249
f 253/253/253 251/251/251 252/252/252
f 254/254/254 253/253/253 252/252/252
f 255/255/255 253/253/253 254/254/254
f 256/256/256 255/255/255 254/254/254
f 257/257/257 255/255/255 256/256/256
f 258/258/258 257/257/257 256/256/256
f 259/259/259 257/257/257 258/258/258
f 260/260/260 259/259/259 258/258/258
f 261/261/261 259/259/259 260/260/260
f 262/262/262 261/261/261 260/260/260
f 265/265/265 264/264/264 263/263/263
f 266/266/266 265/265/265 263/263/263
f 267/267/267 265/265/265 266/266/266
f 268/268/268 267/267/267 266/266/266
f 271/271/271 270/270/270 269/269/269
f 272/272/272 271/271/271 269/269/269
f 270/270/270 271/271/271 273/273/273
f 271/271/271 272/272/272 274/274/274
f 271/271/271 275/275/275 273/273/273
f 276/276/276 271/271/271 274/274/274
f 275/275/275 271/271/271 277/277/277
f 271/271/271 276/276/276 278/278/278
f 271/271/271 279/279/279 277/277/277
f 280/280/280 271/271/271 278/278/278
f 279/279/279 271/271/271 281/281/281
f 271/271/271 280/280/280 282/282/282
f 271/271/271 283/283/283 281/281/281
f 284/284/284 271/271/271 282/282/282
f 283/283/283 271/271/271 285/285/285
f 271/271/271 284/284/284 285/285/285
f 288/288/288 287/287/287 286/286/286
f 289/289/289 288/288/288 286/286/286
f 287/287/287 288/288/288 290/290/290
f 288/288/288 289/289/289 291/291/291
f 288/288/288 292/292/292 290/290/290
f 293/293/293 288/288/288 291/291/291
f 292/292/292 288/288/288 294/294/294
f 288/288/288 293/293/293 295/295/295
f 288/288/288 296/296/296 294/294/294
f 297/297/297 288/288/288 295/295/295
f 296/296/296 288/288/288 298/298/298
f 288/288/288 297/297/297 299/299/299
f 288/288/288 300/300/300 298/298/298
f 301/301/301 288/288/288 299/299/299
f 300/300/300 288/288/288 302/302/302
f 288/288/288 301/301/301 302/302/302
f 305/305/305 304/304/304 303/303/303
f 306/306/306 305/305/305 303/303/303
f 304/304/304 305/305/305 307/307/307
f 305/305/305 306/306/306 308/308/308
f 305/305/305 309/309/309 307/307/307
f 310/310/310 305/305/305 308/308/308
f 309/309/309 305/305/305 311/311/311
f 305/305/305 310/310/310 312/312/312
f 305/305/305 313/313/313 311/311/311
f 314/314/314 305/305/305 312/312/312
f 313/313/313 305/305/305 315/315/315
f 305/305/305 314/314/314 316/316/316
f 305/305/305 317/317/317 315/315/315
f 318/318/318 305/305/305 316/316/316
f 317/317/317 305/305/305 319/319/319
f 305/305/305 318/318/318 319/319/319
f 322/322/322 321/321/321 320/320/320
f 323/323/323 322/322/322 320/320/320
f 321/321/321 324/324/324 320/320/320
f 325/325/325 323/323/323 320/320/320
f 324/324/324 326/326/326 320/320/320
f 327/327/327 325/325/325 320/320/320
f 326/326/326 328/328/328 320/320/320
f 329/329/329 327/327/327 320/320/320
f 328/328/328 330/330/330 320/320/320
f 331/331/331 329/329/329 320/320/320
f 330/330/330 332/332/332 320/320/320
f 333/333/333 331/331/331 320/320/320
f 332/332/332 334/334/334 320/320/320
f 335/335/335 333/333/333 320/320/320
f 334/334/334 336/336/336 320/320/320
f 336/336/336 335/335/335 320/320/320
f 339/339/339 338/338/338 337/337/337
f 340/340/340 339/339/339 337/337/337
f 338/338/338 339/339/339 341/341/341
f 337/337/337 342/342/342 340/340/340
f 343/343/343 338/338/338 341/341/341
f 342/342/342 344/344/344 340/340/340
f 343/343/343 341/341/341 345/345/345
f 342/342/342 346/346/346 344/344/344
f 347/347/347 343/343/343 345/345/345
f 346/346/346 348/348/348 344/344/344
f 347/347/347 345/345/345 349/349/349
f 346/346/346 350/350/350 348/348/348
f 351/351/351 347/347/347 349/349/349
f 350/350/350 352/352/352 348/348/348
f 351/351/351 349/349/349 353/353/353
f 350/350/350 354/354/354 352/352/352
f 355/355/355 351/351/351 353/353/353
f 354/354/354 356/356/356 352/352/352
f 355/355/355 353/353/353 357/357/357
f 354/354/354 358/358/358 356/356/356
f 359/359/359 355/355/355 357/357/357
f 358/358/358 360/360/360 356/356/356
f 359/359/359 357/357/357 361/361/361
f 358/358/358 362/362/362 360/360/360
f 363/363/363 359/359/359 361/361/361
f 362/362/362 364/364/364 360/360/360
f 363/363/363 361/361/361 365/365/365
f 362/362/362 366/366/366 364/364/364
f 367/367/367 363/363/363 365/365/365
f 366/366/366 368/368/368 364/364/364
f 367/367/367 365/365/365 368/368/368
f 366/366/366 367/367/367 368/368/368
f 371/371/371 370/370/370 369/369/369
f 372/372/372 371/371/371 369/369/369
f 371/371/371 373/373/373 370/370/370
f 369/369/369 374/374/374 372/372/372
f 373/373/373 375/375/375 370/370/370
f 374/374/374 376/376/376 372/372/372
f 373/373/373 377/377/377 375/375/375
f 376/376/376 374/374/374 378/378/378
f 377/377/377 379/379/379 375/375/375
f 380/380/380 376/376/376 378/378/378
f 377/377/377 381/381/381 379/379/379
f 380/380/380 378/378/378 382/382/382
f 381/381/381 383/383/383 379/379/379
f 384/384/384 380/380/380 382/382/382
f 381/381/381 385/385/385 383/383/383
f 384/384/384 382/382/382 386/386/386
f 385/385/385 387/387/387 383/383/383
f 388/388/388 384/384/384 386/386/386
f 385/385/385 389/389/389 387/387/387
f 388/388/388 386/386/386 390/390/390
f 389/389/389 391/391/391 387/387/387
f 392/392/392 388/388/388 390/390/390
f 389/389/389 393/393/393 391/391/391
f 392/392/392 390/390/390 394/394/394
f 393/393/393 395/395/395 391/391/391
f 396/396/396 392/392/392 394/394/394
f 393/393/393 397/397/397 395/395/395
f 396/396/396 394/394/394 398/398/398
f 397/397/397 399/399/399 395/395/395
f 400/400/400 396/396/396 398/398/398
f 400/400/400 398/398/398 399/399/399
f 397/397/397 400/400/400 399/399/399
