mtllib Apple_2.mtl
v -0.04731535 0.03064266 0.009677774
v -0.03458244 0.04049324 0.00714708
v -0.02871885 0.03943213 0.02010696
v 0.001050845 0.03219773 0.000302729
v -0.002463111 0.03676315 0.00557874
v -0.004338034 0.03672387 0.00373672
v 0.001063908 0.04115284 0.001379977
v 0.00207487 0.0420981 0.0004249252
v 0.001772951 0.03089011 0.0008888714
v -0.0006240947 0.05004778 -0.0002814567
v 0.00207487 0.0420981 0.0004249252
v -0.0006240947 0.05004778 -0.0002814567
v -0.0001611325 0.04882239 -0.002709372
v 0.001321805 0.04131886 -0.0009457611
v 0.001828035 0.03089322 -0.001463024
v 0.001772951 0.03089011 0.0008888714
v -0.001799386 0.04818647 -0.00185137
v -0.0001611325 0.04882239 -0.002709372
v -0.0006240947 0.05004778 -0.0002814567
v 0.001321805 0.04131886 -0.0009457611
v -0.0001197465 0.0412272 0.0002420465
v 0.001828035 0.03089322 -0.001463024
v 0.0002605831 0.03089015 0.0002680083
v 0.001063908 0.04115284 0.001379977
v 0.001772951 0.03089011 0.0008888714
v 0.0002605831 0.03089015 0.0002680083
v -0.0001197465 0.0412272 0.0002420465
v -0.0006240947 0.05004778 -0.0002814567
v -0.001799386 0.04818647 -0.00185137
v 0.03642035 0.03901131 -0.007046973
v 0.02391869 0.04130933 -0.004544377
v 0.02053322 0.04105265 -0.01296094
v 0.03097354 0.0387689 -0.01997135
v 0.01414905 0.04096866 -0.01941207
v 0.009235335 0.03925684 -0.01201894
v 0.01308523 0.03951504 -0.007960733
v 0.02097739 0.03824364 -0.02967508
v 0.04159712 0.03008286 -0.02710612
v 0.02755518 0.02944916 -0.0395511
v 0.005756209 0.04134418 -0.022782
v 0.008240747 0.03890073 -0.03530259
v 0.01051601 0.02947566 -0.04669646
v -0.008083498 0.02981656 -0.04733062
v -0.005797627 0.03964199 -0.03563985
v -0.003228325 0.04187249 -0.02262192
v -0.01147436 0.04201675 -0.01914261
v -0.01873817 0.03929834 -0.03008457
v -0.02526462 0.02970431 -0.03995355
v -0.01771037 0.04234139 -0.01273837
v -0.02882752 0.03971301 -0.02021388
v -0.0210166 0.04267127 -0.004459616
v -0.0345061 0.0403237 -0.007162681
v -0.0210576 0.04253327 0.004447415
v -0.03458244 0.04049324 0.00714708
v 0.04115094 -0.008508122 -0.02680596
v 0.04654656 0.0147005 -0.03042651
v 0.03060374 0.01470196 -0.04410232
v 0.04850943 -0.008554251 -0.009490694
v 0.05429753 0.01470083 -0.01064797
v 0.04881832 -0.008624118 0.009438638
v 0.04159712 0.03008286 -0.02710612
v 0.02755518 0.02944916 -0.0395511
v 0.05467577 0.0147005 0.01060689
v 0.04191574 -0.00871219 0.02720571
v 0.04577519 0.01470131 0.02979194
v 0.02840192 -0.008696097 0.04068385
v 0.0308936 0.01470152 0.04442155
v 0.01087554 -0.008754749 0.04826058
v 0.01167269 0.01470165 0.05225908
v 0.04115094 -0.008508122 -0.02680596
v 0.03060374 0.01470196 -0.04410232
v 0.02810927 -0.008579221 -0.04035744
v 0.0116588 0.01470169 -0.05230559
v 0.01089922 -0.008781689 -0.04849379
v -0.008215049 -0.008710739 -0.04817876
v 0.01051601 0.02947566 -0.04669646
v 0.02755518 0.02944916 -0.0395511
v 0.04654656 0.0147005 -0.03042651
v -0.009034838 0.01470166 -0.05234824
v -0.008083498 0.02981656 -0.04733062
v -0.02526462 0.02970431 -0.03995355
v -0.02789181 0.01470208 -0.04398273
v -0.02532678 -0.008515125 -0.040116
v 0.03115427 -0.03469142 -0.01964338
v 0.04115094 -0.008508122 -0.02680596
v 0.02810927 -0.008579221 -0.04035744
v 0.02064162 -0.03442429 -0.02959227
v 0.018076 -0.04807837 -0.01129991
v 0.01250034 -0.04815569 -0.01692112
v 0.01089922 -0.008781689 -0.04849379
v 0.007417147 -0.03452338 -0.03527111
v 0.005207167 -0.04835394 -0.0199931
v -0.002719132 -0.04867756 -0.02004803
v -0.007081894 -0.03479319 -0.03570964
v -0.008215049 -0.008710739 -0.04817876
v -0.02532678 -0.008515125 -0.040116
v -0.02068467 -0.03493241 -0.03029238
v -0.01011853 -0.04935745 -0.0170928
v 0.04841499 0.02985405 -0.009457231
v 0.03642035 0.03901131 -0.007046973
v 0.03097354 0.0387689 -0.01997135
v 0.04159712 0.03008286 -0.02710612
v 0.05429753 0.01470083 -0.01064797
v 0.05467577 0.0147005 0.01060689
v 0.04799357 0.02962622 0.009300814
v 0.04577519 0.01470131 0.02979194
v 0.04099164 0.0296963 0.02662743
v 0.0308936 0.01470152 0.04442155
v 0.02745424 0.02935295 0.03932582
v 0.0309933 0.03882017 0.01994681
v 0.03626885 0.03867834 0.006978829
v 0.001520188 0.03214756 -0.0004029397
v 0.005124566 0.03644376 -0.005831272
v 0.006897256 0.0366694 -0.003806845
v 0.001365337 0.03211731 -0.0004954483
v 0.001274279 0.03180228 -3.258197E-05
v 0.002641342 0.03629704 -0.006985851
v 0.001178519 0.03209763 -0.0005122944
v 0.009235335 0.03925684 -0.01201894
v 0.01308523 0.03951504 -0.007960733
v 0.004059989 0.0392323 -0.0141868
v 0.01414905 0.04096866 -0.01941207
v 0.005756209 0.04134418 -0.022782
v -0.0001178378 0.03627691 -0.007001177
v -0.001528983 0.03943975 -0.01407929
v -0.003228325 0.04187249 -0.02262192
v 0.0009998017 0.0320912 -0.000443852
v -0.00264024 0.03634643 -0.005894082
v -0.00660507 0.03967361 -0.01183577
v -0.01147436 0.04201675 -0.01914261
v 0.0008685776 0.03209779 -0.0003040418
v -0.004509908 0.03645422 -0.003899751
v -0.010421 0.03987478 -0.007854873
v -0.01771037 0.04234139 -0.01273837
v 0.0008105187 0.03211509 -0.0001246331
v -0.005459456 0.03656995 -0.001367182
v -0.01243423 0.04003803 -0.002751934
v -0.0210166 0.04267127 -0.004459616
v 0.0008315142 0.03213986 5.63783E-05
v -0.01243026 0.04004581 0.002718738
v -0.0210576 0.04253327 0.004447415
v -0.00538793 0.03666507 0.001305791
v 0.0009194169 0.03216856 0.0002057719
v 0.001050845 0.03219773 0.000302729
v -0.004338034 0.03672387 0.00373672
v -0.01042953 0.03985503 0.007827446
v -0.002463111 0.03676315 0.00557874
v -0.01787649 0.04167937 0.01282796
v -0.03458244 0.04049324 0.00714708
v -0.02871885 0.03943213 0.02010696
v -0.00664589 0.03953179 0.01186341
v -0.01163997 0.04102156 0.01937054
v -0.01856823 0.03864884 0.0297946
v -3.956964E-05 0.0368074 0.006551327
v 0.001199591 0.03222403 0.0003404139
v -0.001531303 0.03941642 0.0140562
v -0.0032917 0.04074942 0.02293259
v -0.005681952 0.03840652 0.03503608
v 0.005790683 0.04079144 0.0229201
v 0.008158149 0.03797048 0.03483268
v -0.008048359 0.02972171 0.04708213
v 0.01041716 0.0292064 0.04612083
v 0.01415642 0.04092583 0.01939467
v 0.02099955 0.03832936 0.02966868
v 0.02053079 0.04106212 0.01293156
v 0.0309933 0.03882017 0.01994681
v 0.02394096 0.04123552 0.004522011
v 0.03626885 0.03867834 0.006978829
v 0.02391869 0.04130933 -0.004544377
v 0.03642035 0.03901131 -0.007046973
v 0.04799357 0.02962622 0.009300814
v 0.04841499 0.02985405 -0.009457231
v 0.04099164 0.0296963 0.02662743
v 0.02105215 -0.0478125 -0.003961475
v 0.03115427 -0.03469142 -0.01964338
v 0.018076 -0.04807837 -0.01129991
v 0.03632308 -0.03445167 -0.006085366
v 0.04115094 -0.008508122 -0.02680596
v 0.02090688 -0.0469698 0.003922616
v 0.04850943 -0.008554251 -0.009490694
v 0.03676448 -0.03472449 0.008438339
v 0.01786508 -0.0466322 0.01114627
v 0.04881832 -0.008624118 0.009438638
v 0.03100062 -0.03457936 0.02180497
v 0.01238259 -0.04693222 0.0167306
v 0.04191574 -0.00871219 0.02720571
v 0.02062637 -0.03440768 0.03183468
v 0.005155937 -0.04675842 0.01970485
v 0.02840192 -0.008696097 0.04068385
v 0.007215635 -0.0339006 0.03652195
v 0.02745424 0.02935295 0.03932582
v 0.02099955 0.03832936 0.02966868
v 0.0309933 0.03882017 0.01994681
v 0.01041716 0.0292064 0.04612083
v 0.01167269 0.01470165 0.05225908
v 0.0308936 0.01470152 0.04442155
v -0.009149578 0.01470116 0.05281115
v -0.008048359 0.02972171 0.04708213
v -0.02884667 0.0147006 0.04530198
v -0.02563255 0.03005465 0.04043409
v -0.005681952 0.03840652 0.03503608
v -0.04562336 0.01469873 0.03145741
v -0.01856823 0.03864884 0.0297946
v -0.03985181 0.03060062 0.0275797
v -0.05368828 0.01469905 0.01093563
v -0.02871885 0.03943213 0.02010696
v -0.04731535 0.03064266 0.009677774
v -0.008089867 -0.008568428 0.04743293
v 0.01167269 0.01470165 0.05225908
v 0.01087554 -0.008754749 0.04826058
v -0.009149578 0.01470116 0.05281115
v -0.02592106 -0.008752398 0.04089582
v -0.02884667 0.0147006 0.04530198
v -0.04131474 -0.009252021 0.02856261
v -0.04562336 0.01469873 0.03145741
v -0.04832312 -0.009105549 0.009863901
v 0.007215635 -0.0339006 0.03652195
v 0.01087554 -0.008754749 0.04826058
v 0.02840192 -0.008696097 0.04068385
v -0.006715524 -0.03365394 0.03611884
v -0.008089867 -0.008568428 0.04743293
v -0.002638157 -0.046502 0.01965857
v 0.005155937 -0.04675842 0.01970485
v -0.009881509 -0.04699198 0.01673971
v -0.01941449 -0.03354817 0.03064604
v -0.02592106 -0.008752398 0.04089582
v -0.01550324 -0.04760101 0.01124534
v -0.0299792 -0.03414247 0.02140272
v -0.04131474 -0.009252021 0.02856261
v -0.01861777 -0.04820191 0.003968216
v -0.03646296 -0.0347992 0.008462337
v -0.04832312 -0.009105549 0.009863901
v -0.01876729 -0.04906428 -0.004001565
v -0.03654122 -0.03484773 -0.006213866
v 0.001199591 0.03222403 0.0003404139
v -0.002463111 0.03676315 0.00557874
v 0.001050845 0.03219773 0.000302729
v 0.001274279 0.03180228 -3.258197E-05
v 0.001343538 0.03224421 0.0003232181
v -3.956964E-05 0.0368074 0.006551327
v 0.002555072 0.03686158 0.006510376
v -0.001531303 0.03941642 0.0140562
v 0.001468096 0.03225525 0.0002611882
v 0.004031795 0.03950087 0.01401283
v -0.0032917 0.04074942 0.02293259
v 0.005790683 0.04079144 0.0229201
v 0.004924363 0.03690918 0.005485241
v 0.009143754 0.03956869 0.01184736
v 0.01415642 0.04092583 0.01939467
v 0.001565211 0.03225472 0.0001642494
v 0.006721435 0.0369432 0.003643017
v 0.01302946 0.03964238 0.007889069
v 0.02053079 0.04106212 0.01293156
v 0.001629001 0.03224139 3.931471E-05
v 0.007700627 0.03694491 0.001264174
v 0.01507277 0.03978062 0.002745326
v 0.02394096 0.04123552 0.004522011
v 0.001650481 0.03221618 -0.000107286
v 0.007764628 0.03686034 -0.001322801
v 0.01508426 0.03975834 -0.002781225
v 0.02391869 0.04130933 -0.004544377
v 0.001617163 0.03218284 -0.0002627433
v 0.001520188 0.03214756 -0.0004029397
v 0.006897256 0.0366694 -0.003806845
v 0.01308523 0.03951504 -0.007960733
v 0.02053322 0.04105265 -0.01296094
v 0.005124566 0.03644376 -0.005831272
v -0.04832312 -0.009105549 0.009863901
v -0.05368828 0.01469905 0.01093563
v -0.04562336 0.01469873 0.03145741
v -0.0471343 -0.008836328 -0.009739744
v -0.05261403 0.01469999 -0.01083764
v -0.03955577 -0.00878209 -0.02749516
v -0.04731535 0.03064266 0.009677774
v -0.04338837 0.01470105 -0.03007351
v -0.02532678 -0.008515125 -0.040116
v -0.02789181 0.01470208 -0.04398273
v -0.04749963 0.03074265 -0.009783525
v -0.03458244 0.04049324 0.00714708
v -0.0345061 0.0403237 -0.007162681
v -0.03912254 0.03013494 -0.02716079
v -0.02526462 0.02970431 -0.03995355
v -0.02882752 0.03971301 -0.02021388
v -0.03654122 -0.03484773 -0.006213866
v -0.0471343 -0.008836328 -0.009739744
v -0.04832312 -0.009105549 0.009863901
v -0.03073666 -0.03469466 -0.01964637
v -0.03955577 -0.00878209 -0.02749516
v -0.02068467 -0.03493241 -0.03029238
v -0.02532678 -0.008515125 -0.040116
v -0.01011853 -0.04935745 -0.0170928
v -0.02068467 -0.03493241 -0.03029238
v -0.03073666 -0.03469466 -0.01964637
v -0.01578596 -0.04951665 -0.01143602
v -0.03654122 -0.03484773 -0.006213866
v -0.01876729 -0.04906428 -0.004001565
v -0.001570852 -0.04354978 -0.004272836
v -0.002998769 -0.04349095 -0.002873619
v 0.001267601 -0.04106045 -1.76966E-05
v 0.0002701554 -0.0435858 -0.005022344
v -0.002719132 -0.04867756 -0.02004803
v -0.003799098 -0.04340795 -0.001024664
v -0.01861777 -0.04820191 0.003968216
v 0.002251803 -0.04360471 -0.005014214
v 0.005207167 -0.04835394 -0.0199931
v -0.003839062 -0.04331376 0.001006359
v -0.01550324 -0.04760101 0.01124534
v 0.004081792 -0.04360246 -0.004253614
v 0.01250034 -0.04815569 -0.01692112
v -0.003092101 -0.04323124 0.002910353
v 0.005495682 -0.04356558 -0.002855367
v -0.001659454 -0.04317952 0.004381086
v -0.009881509 -0.04699198 0.01673971
v 0.018076 -0.04807837 -0.01129991
v -0.002638157 -0.046502 0.01965857
v 0.006288709 -0.0434892 -0.001017579
v 0.02105215 -0.0478125 -0.003961475
v 0.0002354437 -0.04316494 0.005176479
v 0.005155937 -0.04675842 0.01970485
v 0.006331158 -0.04339019 0.0009999974
v 0.02090688 -0.0469698 0.003922616
v 0.002288591 -0.04318268 0.005168898
v 0.01238259 -0.04693222 0.0167306
v 0.005593537 -0.04329666 0.002894587
v 0.01786508 -0.0466322 0.01114627
v 0.004173459 -0.04322666 0.004364035
vt 0.7909157 0.3990693
vt 0.7521765 0.4435199
vt 0.8020441 0.5043752
vt 0.624349 0.6014042
vt 0.6784731 0.6014742
vt 0.6726108 0.57557
vt 0.161568 0.823432
vt 0.1462505 0.813336
vt 0.1565586 0.934954
vt 0.161568 0.7222914
vt 0.09036361 0.8436857
vt 0.09635045 0.9349918
vt 0.1224097 0.9223236
vt 0.1074527 0.8367682
vt 0.1224097 0.723631
vt 0.09903206 0.7222914
vt 0.1248775 0.7400357
vt 0.1454157 0.7339755
vt 0.1254582 0.7222914
vt 0.1433085 0.8199849
vt 0.1231826 0.8205572
vt 0.1462505 0.9325206
vt 0.1224097 0.9325206
vt 0.05713318 0.8236916
vt 0.07442363 0.9348679
vt 0.09036361 0.9326189
vt 0.07443482 0.8205571
vt 0.06592268 0.7222914
vt 0.09036359 0.7402433
vt 0.4728715 0.7635557
vt 0.5067241 0.7256041
vt 0.469602 0.6778596
vt 0.4267955 0.700157
vt 0.4562974 0.6180827
vt 0.4999888 0.6163066
vt 0.5109522 0.6583939
vt 0.4058504 0.6228138
vt 0.3811488 0.7237446
vt 0.3558199 0.6315762
vt 0.4651589 0.5563653
vt 0.4196576 0.5407071
vt 0.3713054 0.5290398
vt 0.4230224 0.4368954
vt 0.4630481 0.470316
vt 0.4983941 0.5004436
vt 0.5486147 0.4636791
vt 0.5260416 0.4168347
vt 0.5039362 0.3711919
vt 0.6065098 0.4464034
vt 0.6055478 0.3943471
vt 0.6660321 0.4542849
vt 0.6854922 0.40381
vt 0.7182361 0.4828448
vt 0.7521765 0.4435199
vt 0.2596904 0.7805272
vt 0.3278697 0.7498391
vt 0.3018547 0.6370764
vt 0.357154 0.8915139
vt 0.4006556 0.8443643
vt 0.4785561 0.9783748
vt 0.3811488 0.7237446
vt 0.3558199 0.6315762
vt 0.5017048 0.9062025
vt 0.6303346 0.988507
vt 0.6165848 0.9215404
vt 0.7662585 0.9422804
vt 0.7325802 0.8859323
vt 0.8698329 0.8555032
vt 0.8289152 0.8080935
vt 0.2596904 0.7805272
vt 0.3018547 0.6370764
vt 0.2348467 0.6346653
vt 0.3232345 0.5159285
vt 0.2627315 0.4992666
vt 0.3220572 0.3764357
vt 0.3713054 0.5290398
vt 0.3558199 0.6315762
vt 0.3278697 0.7498391
vt 0.3802058 0.4073567
vt 0.4230224 0.4368954
vt 0.5039362 0.3711919
vt 0.4735412 0.327715
vt 0.4263099 0.2797829
vt 0.336533 0.1759705
vt 0.3982518 0.1635763
vt 0.3684166 0.09439603
vt 0.319079 0.1276504
vt 0.2890843 0.183231
vt 0.2750834 0.1531479
vt 0.315909 0.04217562
vt 0.2828816 0.08871505
vt 0.2513923 0.1305326
vt 0.2209484 0.119409
vt 0.2330902 0.06899196
vt 0.2479867 0.0113672
vt 0.1714621 0.008738592
vt 0.1811137 0.06997592
vt 0.188828 0.1206251
vt 0.4359224 0.8012958
vt 0.4728715 0.7635557
vt 0.4267955 0.700157
vt 0.3811488 0.7237446
vt 0.4006556 0.8443643
vt 0.5017048 0.9062025
vt 0.5192349 0.8541442
vt 0.6165848 0.9215404
vt 0.6151821 0.8637167
vt 0.7325802 0.8859323
vt 0.7105286 0.8386899
vt 0.6161867 0.81115
vt 0.538729 0.804488
vt 0.5993429 0.6044486
vt 0.5453726 0.6137542
vt 0.5531381 0.6377343
vt 0.5999973 0.599802
vt 0.6119367 0.6030593
vt 0.5472094 0.5871089
vt 0.602459 0.5959321
vt 0.4999888 0.6163066
vt 0.5109522 0.6583939
vt 0.5055756 0.5716215
vt 0.4562974 0.6180827
vt 0.4651589 0.5563653
vt 0.5585576 0.5622153
vt 0.5286349 0.531076
vt 0.4983941 0.5004436
vt 0.6055109 0.592469
vt 0.5814418 0.5453004
vt 0.5654382 0.5039347
vt 0.5486147 0.4636791
vt 0.6099093 0.590586
vt 0.6084201 0.5376614
vt 0.6084556 0.4918954
vt 0.6065098 0.4464034
vt 0.614822 0.5907356
vt 0.6352246 0.540721
vt 0.6515422 0.4964231
vt 0.6660321 0.4542849
vt 0.6193246 0.5928752
vt 0.6874204 0.5191423
vt 0.7182361 0.4828448
vt 0.6580891 0.5535179
vt 0.6226611 0.5965983
vt 0.624349 0.6014042
vt 0.6726108 0.57557
vt 0.7125947 0.5525181
vt 0.6784731 0.6014742
vt 0.75549 0.5294135
vt 0.7521765 0.4435199
vt 0.8020441 0.5043752
vt 0.7237017 0.5938033
vt 0.7675312 0.5898066
vt 0.817969 0.5857114
vt 0.6739714 0.6274388
vt 0.6240432 0.6065586
vt 0.7187383 0.6393068
vt 0.7586256 0.6527538
vt 0.8017195 0.6679916
vt 0.7245418 0.707163
vt 0.7587612 0.7418529
vt 0.8491179 0.6834841
vt 0.7946634 0.7731287
vt 0.6752712 0.7453372
vt 0.6917894 0.7901729
vt 0.6157742 0.7627999
vt 0.6161867 0.81115
vt 0.5572972 0.7554301
vt 0.538729 0.804488
vt 0.5067241 0.7256041
vt 0.4728715 0.7635557
vt 0.5192349 0.8541442
vt 0.4359224 0.8012958
vt 0.6151821 0.8637167
vt 0.2885027 0.2156281
vt 0.336533 0.1759705
vt 0.2890843 0.183231
vt 0.3413728 0.227475
vt 0.3982518 0.1635763
vt 0.2777332 0.2465387
vt 0.3969052 0.2387252
vt 0.3190278 0.2737104
vt 0.2563353 0.2729192
vt 0.3700314 0.3095654
vt 0.2840417 0.3111839
vt 0.2233588 0.2835276
vt 0.3151342 0.363305
vt 0.2356307 0.3324066
vt 0.1890922 0.284778
vt 0.2453456 0.3910823
vt 0.1828216 0.3349348
vt 0.7105286 0.8386899
vt 0.6917894 0.7901729
vt 0.6161867 0.81115
vt 0.7946634 0.7731287
vt 0.8289152 0.8080935
vt 0.7325802 0.8859323
vt 0.8961793 0.7068004
vt 0.8491179 0.6834841
vt 0.9250605 0.5855405
vt 0.8687354 0.58323
vt 0.8017195 0.6679916
vt 0.9028288 0.4597373
vt 0.817969 0.5857114
vt 0.8507007 0.4819331
vt 0.8324057 0.3568296
vt 0.8020441 0.5043752
vt 0.7909157 0.3990693
vt 0.9496911 0.7467647
vt 0.8289152 0.8080935
vt 0.8698329 0.8555032
vt 0.8961793 0.7068004
vt 0.9894498 0.6083828
vt 0.9250605 0.5855405
vt 0.972836 0.4501566
vt 0.9028288 0.4597373
vt 0.8839031 0.2995712
vt 0.1828216 0.3349348
vt 0.1715958 0.3910819
vt 0.2453456 0.3910823
vt 0.1349352 0.3136352
vt 0.1016221 0.3646159
vt 0.1571913 0.2719056
vt 0.1890922 0.284778
vt 0.1342734 0.2469237
vt 0.09545324 0.2780657
vt 0.04739115 0.3125358
vt 0.1231655 0.2159385
vt 0.07072292 0.2292281
vt 0.01553099 0.2426077
vt 0.1216864 0.1835072
vt 0.07360756 0.1740655
vt 0.01377023 0.1647899
vt 0.1370088 0.1542934
vt 0.09510348 0.1256317
vt 0.6240432 0.6065586
vt 0.6784731 0.6014742
vt 0.624349 0.6014042
vt 0.6119367 0.6030593
vt 0.6217672 0.6112627
vt 0.6739714 0.6274388
vt 0.6592882 0.6493911
vt 0.7187383 0.6393068
vt 0.6178005 0.6148372
vt 0.69325 0.6783874
vt 0.7586256 0.6527538
vt 0.7245418 0.707163
vt 0.6380979 0.6637622
vt 0.6567978 0.7056659
vt 0.6752712 0.7453372
vt 0.6126687 0.6168014
vt 0.6139467 0.6682385
vt 0.6147367 0.7167096
vt 0.6157742 0.7627999
vt 0.6076068 0.6155578
vt 0.5901669 0.6654782
vt 0.5737559 0.7114782
vt 0.5572972 0.7554301
vt 0.6034901 0.6128914
vt 0.568911 0.6557392
vt 0.5374218 0.6914394
vt 0.5067241 0.7256041
vt 0.6006013 0.609044
vt 0.5993429 0.6044486
vt 0.5531381 0.6377343
vt 0.5109522 0.6583939
vt 0.469602 0.6778596
vt 0.5453726 0.6137542
vt 0.8839031 0.2995712
vt 0.8324057 0.3568296
vt 0.9028288 0.4597373
vt 0.7258326 0.226871
vt 0.7225127 0.295631
vt 0.5652395 0.2239397
vt 0.7909157 0.3990693
vt 0.5918862 0.2872705
vt 0.4263099 0.2797829
vt 0.4735412 0.327715
vt 0.7031738 0.3534791
vt 0.7521765 0.4435199
vt 0.6854922 0.40381
vt 0.603299 0.3411193
vt 0.5039362 0.3711919
vt 0.6055478 0.3943471
vt 0.09510348 0.1256317
vt 0.04336676 0.0911226
vt 0.01377023 0.1647899
vt 0.1304255 0.08610017
vt 0.1002662 0.03792004
vt 0.1811137 0.06997592
vt 0.1714621 0.008738592
vt 0.188828 0.1206251
vt 0.1811137 0.06997592
vt 0.1304255 0.08610017
vt 0.1609481 0.1341427
vt 0.09510348 0.1256317
vt 0.1370088 0.1542934
vt 0.2005587 0.1720144
vt 0.188336 0.1760455
vt 0.2060479 0.2035399
vt 0.2131961 0.1724174
vt 0.2209484 0.119409
vt 0.1795256 0.1853898
vt 0.1216864 0.1835072
vt 0.2246189 0.1773917
vt 0.2513923 0.1305326
vt 0.1746937 0.1970056
vt 0.1231655 0.2159385
vt 0.233192 0.1863185
vt 0.2750834 0.1531479
vt 0.1747808 0.2095748
vt 0.2376087 0.1978268
vt 0.1797 0.2210392
vt 0.1342734 0.2469237
vt 0.2890843 0.183231
vt 0.1571913 0.2719056
vt 0.2373096 0.2102662
vt 0.2885027 0.2156281
vt 0.1889204 0.2293442
vt 0.1890922 0.284778
vt 0.2324078 0.2217028
vt 0.2777332 0.2465387
vt 0.1998992 0.2352906
vt 0.2233588 0.2835276
vt 0.2233839 0.2301636
vt 0.2563353 0.2729192
vt 0.2125288 0.236438
vn -0.8753201 0.4507344 0.1750809
vn -0.4790531 0.868292 0.1287521
vn -0.3684225 0.8690287 0.3302333
vn 0.2810181 0.6932361 -0.663666
vn 0.2964591 0.847762 -0.4397858
vn 0.4621506 0.8327518 -0.3048629
vn -0.00490696 0.03914478 0.9992216
vn 0.9632928 0.1383427 0.2300613
vn 0.5573075 -0.06800532 0.8275166
vn -0.02091486 0.8891595 0.4571193
vn 0.9632928 0.1383427 0.2300613
vn -0.02091486 0.8891595 0.4571193
vn 0.3237263 0.4453742 -0.8347713
vn 0.2393874 -0.07548991 -0.9679851
vn 0.3726499 -0.05542264 -0.9263154
vn 0.5573075 -0.06800532 0.8275166
vn -0.9489994 0.0849646 -0.3036135
vn 0.3237263 0.4453742 -0.8347713
vn -0.02091486 0.8891595 0.4571193
vn 0.2393874 -0.07548991 -0.9679851
vn -0.993334 -0.1125321 0.02498277
vn 0.3726499 -0.05542264 -0.9263154
vn -0.9756606 -0.06770808 0.2085714
vn -0.00490696 0.03914478 0.9992216
vn 0.5573075 -0.06800532 0.8275166
vn -0.9756606 -0.06770808 0.2085714
vn -0.993334 -0.1125321 0.02498277
vn -0.02091486 0.8891595 0.4571193
vn -0.9489994 0.0849646 -0.3036135
vn 0.5053564 0.8583134 -0.08895553
vn 0.03293712 0.9993405 -0.01528615
vn 0.0145557 0.9986071 -0.05071579
vn 0.4046956 0.8616916 -0.3061194
vn 0.03181085 0.9989243 -0.03373637
vn -0.1925715 0.9492881 0.2485325
vn -0.2821994 0.9513091 0.1239937
vn 0.2904598 0.8461196 -0.4468947
vn 0.7262224 0.4535879 -0.5165842
vn 0.4779665 0.4359482 -0.7625596
vn 0.06149758 0.9981066 -0.001119312
vn 0.1557727 0.8396448 -0.5203186
vn 0.202962 0.4198624 -0.8846027
vn -0.1715061 0.4086309 -0.896441
vn -0.08456058 0.8434241 -0.5305518
vn 0.03962082 0.9991848 0.007738743
vn 0.02111294 0.9996957 -0.01276044
vn -0.2940882 0.8367009 -0.4619996
vn -0.4976177 0.4008682 -0.7692083
vn 0.03508827 0.9988005 -0.03415202
vn -0.4121429 0.8458247 -0.3387019
vn 0.03904133 0.999096 -0.01682062
vn -0.4926542 0.8605283 -0.1295485
vn 0.04562441 0.997968 0.04447729
vn -0.4790531 0.868292 0.1287521
vn 0.7998468 -0.2608143 -0.5405748
vn 0.8212409 -0.005776857 -0.5705523
vn 0.5430157 0.008870089 -0.8396757
vn 0.9446588 -0.2639216 -0.1948462
vn 0.9815103 -0.0008117108 -0.1914078
vn 0.9485211 -0.2608996 0.1795525
vn 0.7262224 0.4535879 -0.5165842
vn 0.4779665 0.4359482 -0.7625596
vn 0.9800725 0.01197264 0.1982787
vn 0.8012315 -0.2541541 0.5416952
vn 0.8237306 0.01974012 0.5666376
vn 0.531194 -0.2548013 0.808028
vn 0.5486934 0.02989784 0.8354889
vn 0.1731953 -0.2661386 0.9482477
vn 0.2021248 0.02984755 0.9789049
vn 0.7998468 -0.2608143 -0.5405748
vn 0.5430157 0.008870089 -0.8396757
vn 0.5447486 -0.2485627 -0.8009154
vn 0.2086754 0.01819851 -0.9778156
vn 0.2053141 -0.2435476 -0.9479086
vn -0.2038755 -0.2378543 -0.9496631
vn 0.202962 0.4198624 -0.8846027
vn 0.4779665 0.4359482 -0.7625596
vn 0.8212409 -0.005776857 -0.5705523
vn -0.2057037 0.00695909 -0.9785896
vn -0.1715061 0.4086309 -0.896441
vn -0.4976177 0.4008682 -0.7692083
vn -0.5450041 -0.00418803 -0.8384229
vn -0.5354546 -0.2350825 -0.8111871
vn 0.7120711 -0.5218005 -0.4697649
vn 0.7998468 -0.2608143 -0.5405748
vn 0.5447486 -0.2485627 -0.8009154
vn 0.4814911 -0.5213218 -0.7045494
vn 0.2593537 -0.9532834 -0.1548755
vn 0.1781965 -0.9505182 -0.2544822
vn 0.2053141 -0.2435476 -0.9479086
vn 0.1893784 -0.5270075 -0.8284919
vn 0.08959346 -0.9512582 -0.2950945
vn -0.01145814 -0.9538764 -0.2999809
vn -0.1541553 -0.5201274 -0.8400617
vn -0.2038755 -0.2378543 -0.9496631
vn -0.5354546 -0.2350825 -0.8111871
vn -0.4741395 -0.5093535 -0.7181579
vn -0.1396129 -0.957793 -0.2512783
vn 0.8777911 0.4521582 -0.1582269
vn 0.5053564 0.8583134 -0.08895553
vn 0.4046956 0.8616916 -0.3061194
vn 0.7262224 0.4535879 -0.5165842
vn 0.9815103 -0.0008117108 -0.1914078
vn 0.9800725 0.01197264 0.1982787
vn 0.8740953 0.4497271 0.1835833
vn 0.8237306 0.01974012 0.5666376
vn 0.7339371 0.4468293 0.5115466
vn 0.5486934 0.02989784 0.8354889
vn 0.4776643 0.4454065 0.7572647
vn 0.4270061 0.8512499 0.3050235
vn 0.515898 0.8491875 0.1128267
vn -0.5144334 0.740067 0.4331962
vn -0.3525826 0.8538148 0.3829958
vn -0.4938649 0.8436103 0.2107587
vn -0.2407438 0.7762372 0.5826647
vn -0.1222803 0.9802336 -0.1555304
vn -0.123656 0.8559604 0.5020369
vn 0.07559358 0.7949144 0.6019939
vn -0.1925715 0.9492881 0.2485325
vn -0.2821994 0.9513091 0.1239937
vn -0.03883488 0.9380211 0.3443955
vn 0.03181085 0.9989243 -0.03373637
vn 0.06149758 0.9981066 -0.001119312
vn 0.1292113 0.8462875 0.5168188
vn 0.1187954 0.9247106 0.3616599
vn 0.03962082 0.9991848 0.007738743
vn 0.3581093 0.7950367 0.4895656
vn 0.3458758 0.8342109 0.4294905
vn 0.254755 0.9193621 0.2997888
vn 0.02111294 0.9996957 -0.01276044
vn 0.5573755 0.7820209 0.2788833
vn 0.4990162 0.8246312 0.2663948
vn 0.3613726 0.9140951 0.1839566
vn 0.03508827 0.9988005 -0.03415202
vn 0.6483011 0.7612436 0.0146239
vn 0.5698061 0.8191214 0.0660376
vn 0.4086917 0.9108396 0.05781331
vn 0.03904133 0.999096 -0.01682062
vn 0.6244825 0.7377774 -0.2563322
vn 0.3928418 0.9185029 -0.0450329
vn 0.04562441 0.997968 0.04447729
vn 0.5546749 0.8215178 -0.1320771
vn 0.4949026 0.7148111 -0.4940816
vn 0.2810181 0.6932361 -0.663666
vn 0.4621506 0.8327518 -0.3048629
vn 0.3232555 0.9368713 -0.1333341
vn 0.2964591 0.847762 -0.4397858
vn 0.04426534 0.9955854 0.08276556
vn -0.4790531 0.868292 0.1287521
vn -0.3684225 0.8690287 0.3302333
vn 0.203729 0.9547804 -0.2165386
vn 0.02293927 0.9973552 0.06896589
vn -0.2323324 0.8668224 0.4411809
vn 0.08184162 0.8548119 -0.5124437
vn 0.02140662 0.673763 -0.7386374
vn 0.0575584 0.9628132 -0.2639657
vn 0.008643002 0.9978537 0.06490993
vn -0.06290696 0.8584918 0.5089542
vn 0.008192471 0.9970962 0.07571107
vn 0.1140502 0.8428817 0.5258735
vn -0.1335132 0.4576706 0.8790403
vn 0.1902167 0.4503365 0.8723615
vn 0.01333339 0.9975032 0.06935136
vn 0.270159 0.843477 0.4642851
vn 0.03010704 0.9985623 0.0443514
vn 0.4270061 0.8512499 0.3050235
vn 0.04366712 0.998791 0.02257566
vn 0.515898 0.8491875 0.1128267
vn 0.03293712 0.9993405 -0.01528615
vn 0.5053564 0.8583134 -0.08895553
vn 0.8740953 0.4497271 0.1835833
vn 0.8777911 0.4521582 -0.1582269
vn 0.7339371 0.4468293 0.5115466
vn 0.3046636 -0.9523384 -0.01521698
vn 0.7120711 -0.5218005 -0.4697649
vn 0.2593537 -0.9532834 -0.1548755
vn 0.8346358 -0.5268787 -0.1605676
vn 0.7998468 -0.2608143 -0.5405748
vn 0.2849279 -0.953119 0.1018842
vn 0.9446588 -0.2639216 -0.1948462
vn 0.823487 -0.5433681 0.1631576
vn 0.2424718 -0.9534506 0.1792748
vn 0.9485211 -0.2608996 0.1795525
vn 0.6894788 -0.5516632 0.4693471
vn 0.1533108 -0.9527791 0.262122
vn 0.8012315 -0.2541541 0.5416952
vn 0.4459053 -0.553228 0.7036385
vn 0.02360228 -0.9448524 0.3266451
vn 0.531194 -0.2548013 0.808028
vn 0.1271037 -0.5492613 0.8259277
vn 0.4776643 0.4454065 0.7572647
vn 0.270159 0.843477 0.4642851
vn 0.4270061 0.8512499 0.3050235
vn 0.1902167 0.4503365 0.8723615
vn 0.2021248 0.02984755 0.9789049
vn 0.5486934 0.02989784 0.8354889
vn -0.1702713 0.01322072 0.9853085
vn -0.1335132 0.4576706 0.8790403
vn -0.5030972 0.009424931 0.8641784
vn -0.4466095 0.4645389 0.7646853
vn -0.06290696 0.8584918 0.5089542
vn -0.8108497 0.01698399 0.585008
vn -0.2323324 0.8668224 0.4411809
vn -0.7088306 0.4706089 0.5254393
vn -0.9857269 0.006522279 0.1682254
vn -0.3684225 0.8690287 0.3302333
vn -0.8753201 0.4507344 0.1750809
vn -0.1855685 -0.2798545 0.9419373
vn 0.2021248 0.02984755 0.9789049
vn 0.1731953 -0.2661386 0.9482477
vn -0.1702713 0.01322072 0.9853085
vn -0.4767096 -0.2914357 0.829345
vn -0.5030972 0.009424931 0.8641784
vn -0.7662987 -0.2982554 0.5690606
vn -0.8108497 0.01698399 0.585008
vn -0.9448464 -0.2845356 0.1621875
vn 0.1271037 -0.5492613 0.8259277
vn 0.1731953 -0.2661386 0.9482477
vn 0.531194 -0.2548013 0.808028
vn -0.1755512 -0.5435485 0.8208146
vn -0.1855685 -0.2798545 0.9419373
vn -0.0698418 -0.9387283 0.3375076
vn 0.02360228 -0.9448524 0.3266451
vn -0.1416201 -0.9382457 0.3156561
vn -0.4204649 -0.5466926 0.7241108
vn -0.4767096 -0.2914357 0.829345
vn -0.2145595 -0.9450286 0.2467488
vn -0.6483188 -0.5603948 0.5154032
vn -0.7662987 -0.2982554 0.5690606
vn -0.2714981 -0.9530227 0.1342996
vn -0.8130157 -0.5524458 0.1838727
vn -0.9448464 -0.2845356 0.1621875
vn -0.2910276 -0.9566799 -0.008152951
vn -0.8315547 -0.5290964 -0.1690376
vn 0.02140662 0.673763 -0.7386374
vn 0.2964591 0.847762 -0.4397858
vn 0.2810181 0.6932361 -0.663666
vn -0.1222803 0.9802336 -0.1555304
vn -0.2357201 0.6583211 -0.7148771
vn 0.08184162 0.8548119 -0.5124437
vn -0.1293454 0.8533518 -0.505035
vn 0.0575584 0.9628132 -0.2639657
vn -0.4549255 0.6491088 -0.6096725
vn -0.06966804 0.963026 -0.2602444
vn 0.008643002 0.9978537 0.06490993
vn 0.008192471 0.9970962 0.07571107
vn -0.3107919 0.8506075 -0.4241173
vn -0.1679342 0.9616535 -0.2168428
vn 0.01333339 0.9975032 0.06935136
vn -0.6183629 0.6469044 -0.4462534
vn -0.4513405 0.8463967 -0.2826737
vn -0.2463396 0.9594346 -0.1371204
vn 0.03010704 0.9985623 0.0443514
vn -0.7159501 0.6527036 -0.2477772
vn -0.529653 0.8400148 -0.1176559
vn -0.2916339 0.9553839 -0.0468114
vn 0.04366712 0.998791 0.02257566
vn -0.7424697 0.6692879 -0.02814878
vn -0.5443391 0.8377908 0.0424437
vn -0.3047206 0.9519825 0.0295739
vn 0.03293712 0.9993405 -0.01528615
vn -0.6835255 0.6996519 0.2080389
vn -0.5144334 0.740067 0.4331962
vn -0.4938649 0.8436103 0.2107587
vn -0.2821994 0.9513091 0.1239937
vn 0.0145557 0.9986071 -0.05071579
vn -0.3525826 0.8538148 0.3829958
vn -0.9448464 -0.2845356 0.1621875
vn -0.9857269 0.006522279 0.1682254
vn -0.8108497 0.01698399 0.585008
vn -0.9381827 -0.2656409 -0.2219193
vn -0.9717629 -0.009045511 -0.235786
vn -0.787039 -0.2494381 -0.5642253
vn -0.8753201 0.4507344 0.1750809
vn -0.8029222 -0.009610041 -0.5960063
vn -0.5354546 -0.2350825 -0.8111871
vn -0.5450041 -0.00418803 -0.8384229
vn -0.8778314 0.4296126 -0.2117663
vn -0.4790531 0.868292 0.1287521
vn -0.4926542 0.8605283 -0.1295485
vn -0.7252975 0.4125097 -0.5511617
vn -0.4976177 0.4008682 -0.7692083
vn -0.4121429 0.8458247 -0.3387019
vn -0.8315547 -0.5290964 -0.1690376
vn -0.9381827 -0.2656409 -0.2219193
vn -0.9448464 -0.2845356 0.1621875
vn -0.7114795 -0.5121027 -0.481194
vn -0.787039 -0.2494381 -0.5642253
vn -0.4741395 -0.5093535 -0.7181579
vn -0.5354546 -0.2350825 -0.8111871
vn -0.1396129 -0.957793 -0.2512783
vn -0.4741395 -0.5093535 -0.7181579
vn -0.7114795 -0.5121027 -0.481194
vn -0.2516843 -0.9566015 -0.1468626
vn -0.8315547 -0.5290964 -0.1690376
vn -0.2910276 -0.9566799 -0.008152951
vn 0.2318791 -0.9138015 0.3334651
vn 0.3230764 -0.9126222 0.2504844
vn -0.008386592 -0.9989665 0.04467318
vn 0.09379508 -0.9202794 0.3798531
vn -0.01145814 -0.9538764 -0.2999809
vn 0.3724988 -0.9179634 0.1363369
vn -0.2714981 -0.9530227 0.1342996
vn -0.06369045 -0.9241768 0.3766174
vn 0.08959346 -0.9512582 -0.2950945
vn 0.3705759 -0.9287823 -0.006066963
vn -0.2145595 -0.9450286 0.2467488
vn -0.1984546 -0.9263394 0.3201736
vn 0.1781965 -0.9505182 -0.2544822
vn 0.314226 -0.9383042 -0.1443852
vn -0.2946539 -0.927831 0.2287109
vn 0.2123493 -0.9465814 -0.2426756
vn -0.1416201 -0.9382457 0.3156561
vn 0.2593537 -0.9532834 -0.1548755
vn -0.0698418 -0.9387283 0.3375076
vn -0.3408118 -0.9315434 0.1267841
vn 0.3046636 -0.9523384 -0.01521698
vn 0.0657621 -0.9523304 -0.2978961
vn 0.02360228 -0.9448524 0.3266451
vn -0.3369822 -0.9415087 -0.002130629
vn 0.2849279 -0.953119 0.1018842
vn -0.08248296 -0.9499923 -0.3011828
vn 0.1533108 -0.9527791 0.262122
vn -0.2778806 -0.9484161 -0.1526091
vn 0.2424718 -0.9534506 0.1792748
vn -0.1891242 -0.9478893 -0.2563943
usemtl Apple1_Mat2
f 3/3/3 2/2/2 1/1/1
f 6/6/6 5/5/5 4/4/4
f 9/9/9 8/8/8 7/7/7
f 7/7/7 8/8/8 10/10/10
f 13/13/13 12/12/12 11/11/11
f 13/13/13 11/11/11 14/14/14
f 14/14/14 11/11/11 15/15/15
f 15/15/15 11/11/11 16/16/16
f 19/19/19 18/18/18 17/17/17
f 18/18/18 20/20/20 17/17/17
f 21/21/21 17/17/17 20/20/20
f 22/22/22 21/21/21 20/20/20
f 23/23/23 21/21/21 22/22/22
f 26/26/26 25/25/25 24/24/24
f 26/26/26 24/24/24 27/27/27
f 24/24/24 28/28/28 27/27/27
f 27/27/27 28/28/28 29/29/29
f 32/32/32 31/31/31 30/30/30
f 33/33/33 32/32/32 30/30/30
f 34/34/34 32/32/32 33/33/33
f 32/32/32 34/34/34 35/35/35
f 36/36/36 32/32/32 35/35/35
f 37/37/37 34/34/34 33/33/33
f 37/37/37 33/33/33 38/38/38
f 39/39/39 37/37/37 38/38/38
f 40/40/40 34/34/34 37/37/37
f 41/41/41 37/37/37 39/39/39
f 41/41/41 40/40/40 37/37/37
f 42/42/42 41/41/41 39/39/39
f 42/42/42 43/43/43 41/41/41
f 41/41/41 44/44/44 40/40/40
f 43/43/43 44/44/44 41/41/41
f 44/44/44 45/45/45 40/40/40
f 46/46/46 45/45/45 44/44/44
f 47/47/47 44/44/44 43/43/43
f 47/47/47 46/46/46 44/44/44
f 48/48/48 47/47/47 43/43/43
f 49/49/49 46/46/46 47/47/47
f 50/50/50 47/47/47 48/48/48
f 50/50/50 49/49/49 47/47/47
f 51/51/51 49/49/49 50/50/50
f 52/52/52 51/51/51 50/50/50
f 53/53/53 51/51/51 52/52/52
f 54/54/54 53/53/53 52/52/52
f 57/57/57 56/56/56 55/55/55
f 55/55/55 56/56/56 58/58/58
f 56/56/56 59/59/59 58/58/58
f 58/58/58 59/59/59 60/60/60
f 56/56/56 61/61/61 59/59/59
f 62/62/62 61/61/61 56/56/56
f 59/59/59 63/63/63 60/60/60
f 60/60/60 63/63/63 64/64/64
f 63/63/63 65/65/65 64/64/64
f 64/64/64 65/65/65 66/66/66
f 65/65/65 67/67/67 66/66/66
f 66/66/66 67/67/67 68/68/68
f 67/67/67 69/69/69 68/68/68
f 72/72/72 71/71/71 70/70/70
f 73/73/73 71/71/71 72/72/72
f 74/74/74 73/73/73 72/72/72
f 74/74/74 75/75/75 73/73/73
f 73/73/73 76/76/76 71/71/71
f 76/76/76 77/77/77 71/71/71
f 71/71/71 77/77/77 78/78/78
f 73/73/73 79/79/79 76/76/76
f 75/75/75 79/79/79 73/73/73
f 79/79/79 80/80/80 76/76/76
f 81/81/81 80/80/80 79/79/79
f 82/82/82 81/81/81 79/79/79
f 82/82/82 79/79/79 75/75/75
f 83/83/83 82/82/82 75/75/75
f 86/86/86 85/85/85 84/84/84
f 87/87/87 86/86/86 84/84/84
f 87/87/87 84/84/84 88/88/88
f 89/89/89 87/87/87 88/88/88
f 90/90/90 86/86/86 87/87/87
f 91/91/91 87/87/87 89/89/89
f 91/91/91 90/90/90 87/87/87
f 92/92/92 91/91/91 89/89/89
f 92/92/92 93/93/93 91/91/91
f 91/91/91 94/94/94 90/90/90
f 93/93/93 94/94/94 91/91/91
f 94/94/94 95/95/95 90/90/90
f 96/96/96 95/95/95 94/94/94
f 97/97/97 96/96/96 94/94/94
f 97/97/97 94/94/94 93/93/93
f 98/98/98 97/97/97 93/93/93
f 101/101/101 100/100/100 99/99/99
f 102/102/102 101/101/101 99/99/99
f 102/102/102 99/99/99 103/103/103
f 103/103/103 99/99/99 104/104/104
f 99/99/99 105/105/105 104/104/104
f 104/104/104 105/105/105 106/106/106
f 105/105/105 107/107/107 106/106/106
f 106/106/106 107/107/107 108/108/108
f 107/107/107 109/109/109 108/108/108
f 107/107/107 110/110/110 109/109/109
f 111/111/111 110/110/110 107/107/107
f 114/114/114 113/113/113 112/112/112
f 112/112/112 113/113/113 115/115/115
f 112/112/112 115/115/115 116/116/116
f 113/113/113 117/117/117 115/115/115
f 116/116/116 115/115/115 118/118/118
f 115/115/115 117/117/117 118/118/118
f 113/113/113 119/119/119 117/117/117
f 120/120/120 119/119/119 113/113/113
f 119/119/119 121/121/121 117/117/117
f 119/119/119 122/122/122 121/121/121
f 122/122/122 123/123/123 121/121/121
f 117/117/117 124/124/124 118/118/118
f 117/117/117 121/121/121 124/124/124
f 121/121/121 123/123/123 125/125/125
f 121/121/121 125/125/125 124/124/124
f 123/123/123 126/126/126 125/125/125
f 118/118/118 124/124/124 127/127/127
f 118/118/118 127/127/127 116/116/116
f 124/124/124 125/125/125 128/128/128
f 124/124/124 128/128/128 127/127/127
f 125/125/125 126/126/126 129/129/129
f 125/125/125 129/129/129 128/128/128
f 126/126/126 130/130/130 129/129/129
f 127/127/127 128/128/128 131/131/131
f 127/127/127 131/131/131 116/116/116
f 128/128/128 129/129/129 132/132/132
f 128/128/128 132/132/132 131/131/131
f 129/129/129 130/130/130 133/133/133
f 129/129/129 133/133/133 132/132/132
f 130/130/130 134/134/134 133/133/133
f 131/131/131 132/132/132 135/135/135
f 131/131/131 135/135/135 116/116/116
f 132/132/132 133/133/133 136/136/136
f 132/132/132 136/136/136 135/135/135
f 133/133/133 134/134/134 137/137/137
f 133/133/133 137/137/137 136/136/136
f 134/134/134 138/138/138 137/137/137
f 135/135/135 139/139/139 116/116/116
f 135/135/135 136/136/136 139/139/139
f 137/137/137 138/138/138 140/140/140
f 138/138/138 141/141/141 140/140/140
f 136/136/136 137/137/137 142/142/142
f 136/136/136 142/142/142 139/139/139
f 137/137/137 140/140/140 142/142/142
f 139/139/139 143/143/143 116/116/116
f 139/139/139 142/142/142 143/143/143
f 143/143/143 144/144/144 116/116/116
f 143/143/143 145/145/145 144/144/144
f 142/142/142 145/145/145 143/143/143
f 142/142/142 140/140/140 145/145/145
f 140/140/140 146/146/146 145/145/145
f 140/140/140 141/141/141 146/146/146
f 145/145/145 146/146/146 147/147/147
f 141/141/141 148/148/148 146/146/146
f 148/148/148 141/141/141 149/149/149
f 150/150/150 148/148/148 149/149/149
f 146/146/146 151/151/151 147/147/147
f 146/146/146 148/148/148 151/151/151
f 152/152/152 148/148/148 150/150/150
f 148/148/148 152/152/152 151/151/151
f 153/153/153 152/152/152 150/150/150
f 147/147/147 151/151/151 154/154/154
f 147/147/147 154/154/154 155/155/155
f 151/151/151 156/156/156 154/154/154
f 151/151/151 152/152/152 156/156/156
f 152/152/152 157/157/157 156/156/156
f 157/157/157 152/152/152 153/153/153
f 158/158/158 157/157/157 153/153/153
f 159/159/159 157/157/157 158/158/158
f 160/160/160 159/159/159 158/158/158
f 160/160/160 158/158/158 161/161/161
f 162/162/162 160/160/160 161/161/161
f 163/163/163 159/159/159 160/160/160
f 164/164/164 160/160/160 162/162/162
f 164/164/164 163/163/163 160/160/160
f 165/165/165 163/163/163 164/164/164
f 166/166/166 165/165/165 164/164/164
f 167/167/167 165/165/165 166/166/166
f 168/168/168 167/167/167 166/166/166
f 169/169/169 167/167/167 168/168/168
f 170/170/170 169/169/169 168/168/168
f 170/170/170 168/168/168 171/171/171
f 172/172/172 170/170/170 171/171/171
f 171/171/171 168/168/168 173/173/173
f 176/176/176 175/175/175 174/174/174
f 175/175/175 177/177/177 174/174/174
f 175/175/175 178/178/178 177/177/177
f 174/174/174 177/177/177 179/179/179
f 178/178/178 180/180/180 177/177/177
f 177/177/177 181/181/181 179/179/179
f 177/177/177 180/180/180 181/181/181
f 179/179/179 181/181/181 182/182/182
f 180/180/180 183/183/183 181/181/181
f 181/181/181 184/184/184 182/182/182
f 181/181/181 183/183/183 184/184/184
f 182/182/182 184/184/184 185/185/185
f 183/183/183 186/186/186 184/184/184
f 184/184/184 187/187/187 185/185/185
f 184/184/184 186/186/186 187/187/187
f 185/185/185 187/187/187 188/188/188
f 186/186/186 189/189/189 187/187/187
f 187/187/187 190/190/190 188/188/188
f 187/187/187 189/189/189 190/190/190
f 193/193/193 192/192/192 191/191/191
f 191/191/191 192/192/192 194/194/194
f 191/191/191 194/194/194 195/195/195
f 196/196/196 191/191/191 195/195/195
f 195/195/195 194/194/194 197/197/197
f 194/194/194 198/198/198 197/197/197
f 197/197/197 198/198/198 199/199/199
f 198/198/198 200/200/200 199/199/199
f 198/198/198 201/201/201 200/200/200
f 199/199/199 200/200/200 202/202/202
f 201/201/201 203/203/203 200/200/200
f 200/200/200 204/204/204 202/202/202
f 200/200/200 203/203/203 204/204/204
f 202/202/202 204/204/204 205/205/205
f 203/203/203 206/206/206 204/204/204
f 204/204/204 207/207/207 205/205/205
f 204/204/204 206/206/206 207/207/207
f 210/210/210 209/209/209 208/208/208
f 209/209/209 211/211/211 208/208/208
f 208/208/208 211/211/211 212/212/212
f 211/211/211 213/213/213 212/212/212
f 212/212/212 213/213/213 214/214/214
f 213/213/213 215/215/215 214/214/214
f 214/214/214 215/215/215 216/216/216
f 219/219/219 218/218/218 217/217/217
f 217/217/217 218/218/218 220/220/220
f 218/218/218 221/221/221 220/220/220
f 217/217/217 220/220/220 222/222/222
f 223/223/223 217/217/217 222/222/222
f 222/222/222 220/220/220 224/224/224
f 220/220/220 221/221/221 225/225/225
f 220/220/220 225/225/225 224/224/224
f 221/221/221 226/226/226 225/225/225
f 224/224/224 225/225/225 227/227/227
f 225/225/225 226/226/226 228/228/228
f 225/225/225 228/228/228 227/227/227
f 226/226/226 229/229/229 228/228/228
f 227/227/227 228/228/228 230/230/230
f 228/228/228 229/229/229 231/231/231
f 228/228/228 231/231/231 230/230/230
f 229/229/229 232/232/232 231/231/231
f 230/230/230 231/231/231 233/233/233
f 231/231/231 232/232/232 234/234/234
f 231/231/231 234/234/234 233/233/233
f 237/237/237 236/236/236 235/235/235
f 237/237/237 235/235/235 238/238/238
f 235/235/235 239/239/239 238/238/238
f 235/235/235 240/240/240 239/239/239
f 240/240/240 241/241/241 239/239/239
f 240/240/240 242/242/242 241/241/241
f 239/239/239 243/243/243 238/238/238
f 239/239/239 241/241/241 243/243/243
f 242/242/242 244/244/244 241/241/241
f 242/242/242 245/245/245 244/244/244
f 245/245/245 246/246/246 244/244/244
f 241/241/241 247/247/247 243/243/243
f 241/241/241 244/244/244 247/247/247
f 244/244/244 246/246/246 248/248/248
f 244/244/244 248/248/248 247/247/247
f 246/246/246 249/249/249 248/248/248
f 243/243/243 247/247/247 250/250/250
f 243/243/243 250/250/250 238/238/238
f 247/247/247 248/248/248 251/251/251
f 247/247/247 251/251/251 250/250/250
f 248/248/248 249/249/249 252/252/252
f 248/248/248 252/252/252 251/251/251
f 249/249/249 253/253/253 252/252/252
f 250/250/250 251/251/251 254/254/254
f 250/250/250 254/254/254 238/238/238
f 251/251/251 252/252/252 255/255/255
f 251/251/251 255/255/255 254/254/254
f 252/252/252 253/253/253 256/256/256
f 252/252/252 256/256/256 255/255/255
f 253/253/253 257/257/257 256/256/256
f 254/254/254 258/258/258 238/238/238
f 254/254/254 255/255/255 258/258/258
f 255/255/255 256/256/256 259/259/259
f 255/255/255 259/259/259 258/258/258
f 256/256/256 257/257/257 260/260/260
f 256/256/256 260/260/260 259/259/259
f 257/257/257 261/261/261 260/260/260
f 258/258/258 262/262/262 238/238/238
f 258/258/258 259/259/259 262/262/262
f 262/262/262 263/263/263 238/238/238
f 262/262/262 264/264/264 263/263/263
f 259/259/259 264/264/264 262/262/262
f 259/259/259 260/260/260 264/264/264
f 260/260/260 261/261/261 265/265/265
f 260/260/260 265/265/265 264/264/264
f 261/261/261 266/266/266 265/265/265
f 264/264/264 265/265/265 267/267/267
f 270/270/270 269/269/269 268/268/268
f 268/268/268 269/269/269 271/271/271
f 269/269/269 272/272/272 271/271/271
f 271/271/271 272/272/272 273/273/273
f 269/269/269 274/274/274 272/272/272
f 272/272/272 275/275/275 273/273/273
f 273/273/273 275/275/275 276/276/276
f 275/275/275 277/277/277 276/276/276
f 274/274/274 278/278/278 272/272/272
f 272/272/272 278/278/278 275/275/275
f 274/274/274 279/279/279 278/278/278
f 279/279/279 280/280/280 278/278/278
f 275/275/275 281/281/281 277/277/277
f 278/278/278 281/281/281 275/275/275
f 278/278/278 280/280/280 281/281/281
f 281/281/281 282/282/282 277/277/277
f 280/280/280 283/283/283 281/281/281
f 281/281/281 283/283/283 282/282/282
f 286/286/286 285/285/285 284/284/284
f 284/284/284 285/285/285 287/287/287
f 285/285/285 288/288/288 287/287/287
f 287/287/287 288/288/288 289/289/289
f 288/288/288 290/290/290 289/289/289
f 293/293/293 292/292/292 291/291/291
f 294/294/294 293/293/293 291/291/291
f 295/295/295 293/293/293 294/294/294
f 296/296/296 295/295/295 294/294/294
f 291/291/291 297/297/297 294/294/294
f 294/294/294 298/298/298 296/296/296
f 297/297/297 298/298/298 294/294/294
f 298/298/298 297/297/297 299/299/299
f 300/300/300 297/297/297 291/291/291
f 297/297/297 300/300/300 299/299/299
f 301/301/301 300/300/300 291/291/291
f 298/298/298 302/302/302 296/296/296
f 302/302/302 298/298/298 299/299/299
f 296/296/296 302/302/302 303/303/303
f 304/304/304 300/300/300 301/301/301
f 300/300/300 304/304/304 299/299/299
f 305/305/305 304/304/304 301/301/301
f 302/302/302 306/306/306 303/303/303
f 306/306/306 302/302/302 299/299/299
f 303/303/303 306/306/306 307/307/307
f 308/308/308 304/304/304 305/305/305
f 304/304/304 308/308/308 299/299/299
f 309/309/309 308/308/308 305/305/305
f 306/306/306 310/310/310 307/307/307
f 310/310/310 306/306/306 299/299/299
f 308/308/308 311/311/311 299/299/299
f 311/311/311 308/308/308 309/309/309
f 312/312/312 310/310/310 299/299/299
f 307/307/307 310/310/310 313/313/313
f 310/310/310 312/312/312 313/313/313
f 314/314/314 311/311/311 309/309/309
f 313/313/313 312/312/312 315/315/315
f 316/316/316 311/311/311 314/314/314
f 311/311/311 316/316/316 299/299/299
f 317/317/317 316/316/316 314/314/314
f 312/312/312 318/318/318 315/315/315
f 318/318/318 312/312/312 299/299/299
f 315/315/315 318/318/318 319/319/319
f 320/320/320 316/316/316 317/317/317
f 316/316/316 320/320/320 299/299/299
f 321/321/321 320/320/320 317/317/317
f 318/318/318 322/322/322 319/319/319
f 322/322/322 318/318/318 299/299/299
f 319/319/319 322/322/322 323/323/323
f 324/324/324 320/320/320 321/321/321
f 320/320/320 324/324/324 299/299/299
f 325/325/325 324/324/324 321/321/321
f 323/323/323 326/326/326 325/325/325
f 322/322/322 326/326/326 323/323/323
f 326/326/326 322/322/322 299/299/299
f 324/324/324 326/326/326 299/299/299
f 326/326/326 324/324/324 325/325/325
