mtllib Lettuce_8.mtl
v 0.02239214 0.01967318 0.1049529
v 0.0163905 0.01222014 0.1173357
v 0.009610821 0.0193627 0.116815
v 0.01223686 0.02700492 0.1051317
v 0.001028182 0.01891429 0.1173348
v -0.0001385683 0.03077231 0.1055243
v -0.007764125 0.01924399 0.116791
v -0.0120768 0.02593809 0.1047944
v -0.001301548 0.03914486 0.09312546
v -0.0144016 0.01229025 0.1172881
v -0.02208745 0.01907945 0.1046887
v -0.02058634 0.006561751 0.1167013
v -0.01678928 0.004203756 -0.1220004
v -0.03219847 -0.003009846 -0.1199146
v -0.01460682 -0.001944182 -0.1220004
v -0.03244277 0.008957282 -0.1199366
v -0.01248617 0.009569798 -0.1220005
v -0.04686445 -0.00412499 -0.1160104
v -0.02437401 0.02019094 -0.1200252
v -0.008570877 0.01562872 -0.1220005
v -0.04708378 0.01432267 -0.1141442
v -0.06005676 -0.004205334 -0.1021243
v -0.05928447 0.02007646 -0.1020862
v -0.03746026 0.03200576 -0.1141029
v -0.04887308 0.04312271 -0.1021672
v -0.01493132 0.02752595 -0.1199761
v -0.001707796 0.01567239 -0.1220005
v -0.02232289 0.04240347 -0.1140048
v -0.03172357 0.05644697 -0.1020332
v -0.002643445 0.03207513 -0.120128
v 0.006104962 0.0160883 -0.1220005
v -0.003881983 0.05058163 -0.1144885
v -0.007417002 0.0677058 -0.1022908
v 0.01608579 0.04608973 -0.1141779
v 0.0101766 0.02919455 -0.1200454
v 0.01026898 0.01070339 -0.1220005
v 0.02110062 0.02204476 -0.1200473
v 0.03158285 0.03478169 -0.1142629
v 0.01567421 0.00521621 -0.1220005
v 0.02612753 0.01009123 -0.1200603
v 0.04003839 0.01645136 -0.1141549
v 0.01490323 -0.002080244 -0.1220004
v 0.02876406 -0.003257863 -0.1200667
v 0.04413939 -0.004399761 -0.1141821
v 0.01516468 -0.008568177 -0.1220004
v 0.02580842 -0.01574579 -0.1199743
v 0.00839173 -0.0126273 -0.1220004
v 0.036242 -0.02318249 -0.1160844
v 0.01770894 -0.02450817 -0.119978
v 0.005285036 -0.0174229 -0.1220004
v 0.008365809 -0.03079538 -0.119982
v -0.00160596 -0.01615098 -0.1220004
v 0.02634369 -0.0374621 -0.1159447
v -0.002434734 -0.03199755 -0.1199699
v -0.007008774 -0.01744478 -0.1220004
v 0.04994518 -0.02912554 -0.1020542
v 0.06112885 -0.004691849 -0.102032
v 0.07109939 -0.002916138 -0.07399803
v 0.05682543 -0.02863704 -0.07223025
v 0.03608722 -0.04804919 -0.1021075
v 0.04255519 -0.04842286 -0.0722312
v 0.01324372 -0.04731749 -0.1159078
v 0.01834214 -0.060961 -0.1022599
v -0.003564896 -0.04923872 -0.1158627
v -0.004450757 -0.06410026 -0.1022999
v -0.01281969 -0.02983562 -0.1199721
v -0.01126116 -0.01229163 -0.1220004
v -0.01976932 -0.04595789 -0.1158711
v -0.02602681 -0.05977088 -0.1024589
v -0.02232371 -0.02428064 -0.1199953
v -0.01633419 -0.008249215 -0.1220004
v -0.03452215 -0.0372804 -0.1159572
v -0.04873449 -0.05011424 -0.102453
v -0.03086661 -0.01557507 -0.1199962
v -0.01460682 -0.001944182 -0.1220004
v -0.03219847 -0.003009846 -0.1199146
v -0.04798697 -0.02345246 -0.1160963
v -0.06337782 -0.02976497 -0.1027083
v -0.04686445 -0.00412499 -0.1160104
v -0.06005676 -0.004205334 -0.1021243
v 0.01376129 0.03363066 0.09234227
v 0.01223686 0.02700492 0.1051317
v -0.0001385683 0.03077231 0.1055243
v -0.001301548 0.03914486 0.09312546
v 0.01657113 0.04277151 0.07397673
v -0.001478599 0.04839638 0.07393859
v 0.01931237 0.05144335 0.0525439
v -0.001555112 0.0569387 0.05171503
v -0.01880752 0.03944795 0.07397099
v 0.01910614 0.05639021 0.0255174
v -0.0220467 0.0472764 0.05303463
v -0.00380941 0.06198819 0.02468685
v -0.02590783 0.05245025 0.02633368
v 0.02302051 0.06366787 -0.007503327
v -0.003523923 0.06980559 -0.008584117
v 0.02328835 0.06675127 -0.02923932
v 0.04372785 0.04896803 -0.02945046
v -0.00438266 0.07205495 -0.03048312
v -0.0285196 0.05985193 -0.006567551
v -0.0290743 0.0618702 -0.02799742
v 0.04665494 0.05259801 -0.05111418
v 0.06011533 0.02776849 -0.05006644
v 0.06509031 0.02742503 -0.07395484
v -0.005403102 0.07554154 -0.05236504
v -0.03033035 0.06483256 -0.04941058
v 0.02411944 0.07098668 -0.05095833
v 0.05023943 0.05420605 -0.07437578
v 0.05570902 0.02274434 -0.1020168
v 0.02594268 0.07186761 -0.07436527
v -0.005612489 0.07748601 -0.07579206
v -0.03341258 0.06538353 -0.07264149
v 0.01934137 0.06179838 -0.1022863
v 0.04253693 0.04685399 -0.1022062
v 0.03158285 0.03478169 -0.1142629
v 0.01608579 0.04608973 -0.1141779
v -0.007417002 0.0677058 -0.1022908
v -0.03172357 0.05644697 -0.1020332
v 0.02713822 -0.01428393 0.08972181
v 0.02567701 -0.01346255 0.1037326
v 0.02884677 -0.002780549 0.1040278
v 0.03149643 -0.002548546 0.09026726
v 0.03165017 -0.0151899 0.07299052
v 0.02852378 0.009037839 0.1046774
v 0.02269314 0.006854652 0.1167902
v 0.0163905 0.01222014 0.1173357
v 0.02239214 0.01967318 0.1049529
v 0.03744738 -0.0009710094 0.07266676
v 0.03731388 -0.01652909 0.04989573
v 0.03266351 0.01140873 0.09150525
v 0.04447997 0.0006642818 0.04899552
v 0.03799393 -0.01667322 0.02401108
v 0.03878296 0.01493254 0.07327489
v 0.02586458 0.02446034 0.09201282
v 0.04718674 0.001051889 0.02325434
v 0.04388227 -0.01882293 -0.00717971
v 0.01223686 0.02700492 0.1051317
v 0.009610821 0.0193627 0.116815
v 0.01376129 0.03363066 0.09234227
v 0.03063255 0.0306927 0.07361779
v 0.01657113 0.04277151 0.07397673
v 0.04536515 0.01857972 0.0502784
v 0.03553146 0.03693016 0.05122649
v 0.01931237 0.05144335 0.0525439
v 0.04587271 0.02169168 0.02400172
v 0.03615786 0.04077047 0.0245679
v 0.01910614 0.05639021 0.0255174
v 0.05587399 0.0003222465 -0.00784251
v 0.04193536 0.04605924 -0.007769866
v 0.02302051 0.06366787 -0.007503327
v 0.04372785 0.04896803 -0.02945046
v 0.05189802 0.02521729 -0.007685805
v 0.05528421 0.02645064 -0.02888438
v 0.06011533 0.02776849 -0.05006644
v 0.04686821 -0.02120757 -0.02788139
v 0.03676906 -0.03870568 -0.02917082
v 0.03935678 -0.04185792 -0.04955592
v 0.06001738 -6.316629E-05 -0.02887267
v 0.05103248 -0.02474482 -0.04856694
v 0.06573477 -0.001047173 -0.04988645
v 0.05682543 -0.02863704 -0.07223025
v 0.07109939 -0.002916138 -0.07399803
v 0.06509031 0.02742503 -0.07395484
v 0.06112885 -0.004691849 -0.102032
v 0.05570902 0.02274434 -0.1020168
v 0.04413939 -0.004399761 -0.1141821
v 0.036242 -0.02318249 -0.1160844
v 0.04003839 0.01645136 -0.1141549
v 0.04253693 0.04685399 -0.1022062
v 0.03158285 0.03478169 -0.1142629
v 0.05023943 0.05420605 -0.07437578
v 0.02594268 0.07186761 -0.07436527
v -0.003523923 0.06980559 -0.008584117
v -0.02590783 0.05245025 0.02633368
v -0.0285196 0.05985193 -0.006567551
v -0.04307684 0.03885113 0.02533842
v -0.04742177 0.04442757 -0.00737437
v -0.0290743 0.0618702 -0.02799742
v -0.03843868 0.03472269 0.0517743
v -0.0220467 0.0472764 0.05303463
v -0.04925782 0.04657526 -0.02884624
v -0.03033035 0.06483256 -0.04941058
v -0.03279097 0.02893323 0.07361253
v -0.01880752 0.03944795 0.07397099
v -0.05233852 0.04932743 -0.0503014
v -0.03341258 0.06538353 -0.07264149
v -0.05438313 0.05014053 -0.07362705
v -0.03172357 0.05644697 -0.1020332
v -0.04887308 0.04312271 -0.1021672
v -0.06500974 0.0245285 -0.07293099
v -0.05928447 0.02007646 -0.1020862
v -0.0620033 0.02418463 -0.04964558
v -0.06529226 -0.002159151 -0.072294
v -0.06005676 -0.004205334 -0.1021243
v -0.06224424 0.001153918 -0.04913288
v -0.05825902 0.001922253 -0.0289589
v -0.05770903 0.02319442 -0.02864402
v -0.05560854 0.002186248 -0.008769162
v -0.05485735 0.02220101 -0.007626086
v -0.050342 0.0002310114 0.0251566
v -0.04790849 0.01893821 0.02394176
v -0.04454375 -0.001070206 0.0514008
v -0.04133093 0.01593004 0.0495293
v -0.03545051 -0.001746426 0.07265071
v -0.03496342 0.01163225 0.07256122
v -0.0271258 -0.002346752 0.0883598
v -0.02994117 0.008100922 0.08881505
v -0.02557337 -0.002679039 0.1029547
v -0.0272304 0.02324505 0.09148858
v -0.02617058 0.007331034 0.1033179
v -0.02020038 -0.003132303 0.1172243
v -0.02058634 0.006561751 0.1167013
v -0.02208745 0.01907945 0.1046887
v -0.01548904 0.03153713 0.09159157
v -0.001478599 0.04839638 0.07393859
v -0.0120768 0.02593809 0.1047944
v -0.001301548 0.03914486 0.09312546
v 0.03935678 -0.04185792 -0.04955592
v 0.04686821 -0.02120757 -0.02788139
v 0.05103248 -0.02474482 -0.04856694
v 0.04255519 -0.04842286 -0.0722312
v 0.05682543 -0.02863704 -0.07223025
v 0.02158155 -0.06262296 -0.0723463
v 0.01834214 -0.060961 -0.1022599
v 0.03608722 -0.04804919 -0.1021075
v -0.004450757 -0.06410026 -0.1022999
v 0.01965918 -0.05560837 -0.04946492
v 0.03676906 -0.03870568 -0.02917082
v -0.004872693 -0.067745 -0.07244889
v -0.02602681 -0.05977088 -0.1024589
v -0.02857216 -0.06314607 -0.07264996
v -0.04873449 -0.05011424 -0.102453
v -0.05397521 -0.05288312 -0.07319026
v -0.003469804 -0.06265392 -0.04915871
v -0.02617277 -0.05885031 -0.04912743
v 0.0186311 -0.05074504 -0.02829059
v -0.002694507 -0.05683768 -0.02876614
v -0.02547555 -0.05550016 -0.02867025
v 0.03504352 -0.03699289 -0.008769812
v 0.04388227 -0.01882293 -0.00717971
v 0.03799393 -0.01667322 0.02401108
v -0.002015342 -0.05296747 -0.008357671
v -0.02531849 -0.05394283 -0.008197113
v 0.0180554 -0.04778316 -0.00709975
v 0.02896731 -0.03362707 0.02442505
v 0.03731388 -0.01652909 0.04989573
v -0.004214866 -0.04734907 0.02506825
v -0.02422639 -0.04746003 0.02600825
v 0.01432262 -0.04292306 0.02473319
v 0.02852395 -0.03227198 0.0505211
v 0.03165017 -0.0151899 0.07299052
v -0.002188038 -0.043899 0.05099841
v -0.01987211 -0.04365692 0.05227024
v 0.01442345 -0.04109104 0.05057463
v 0.02402954 -0.02779582 0.07311542
v 0.02713822 -0.01428393 0.08972181
v -0.001789813 -0.03940158 0.07346444
v -0.0173646 -0.03939087 0.07406051
v 0.01302891 -0.03759453 0.07356369
v 0.02035751 -0.02416896 0.08982529
v 0.02567701 -0.01346255 0.1037326
v -0.001305529 -0.03511455 0.09057346
v -0.01465643 -0.03489906 0.09144941
v 0.01177915 -0.03418822 0.09101535
v -0.0001368537 -0.03161319 0.1044828
v -0.01164188 -0.03062557 0.1048322
v 0.01954892 -0.0224725 0.1038768
v 0.0112147 -0.03023964 0.1045992
v 0.001031109 -0.0241523 0.1174093
v -0.008944748 -0.02479237 0.1167604
v 0.0108002 -0.02476293 0.1167559
v 0.01584862 -0.01796241 0.1173692
v 0.02309824 -0.01127257 0.1167319
v 0.02226675 -0.003138016 0.1173375
v 0.02884677 -0.002780549 0.1040278
v 0.02269314 0.006854652 0.1167902
v -0.06337782 -0.02976497 -0.1027083
v -0.05397521 -0.05288312 -0.07319026
v -0.04873449 -0.05011424 -0.102453
v -0.06973185 -0.0276893 -0.07167566
v -0.06005676 -0.004205334 -0.1021243
v -0.06529226 -0.002159151 -0.072294
v -0.06627124 -0.02492232 -0.05020628
v -0.06224424 0.001153918 -0.04913288
v -0.0507016 -0.04890325 -0.04947569
v -0.0619412 -0.0218604 -0.02979875
v -0.05825902 0.001922253 -0.0289589
v -0.02617277 -0.05885031 -0.04912743
v -0.02857216 -0.06314607 -0.07264996
v -0.02547555 -0.05550016 -0.02867025
v -0.0473115 -0.04457129 -0.02828667
v -0.02531849 -0.05394283 -0.008197113
v -0.04511628 -0.04198216 -0.007081122
v -0.02422639 -0.04746003 0.02600825
v -0.05906329 -0.01990587 -0.009375303
v -0.05560854 0.002186248 -0.008769162
v -0.0413967 -0.03746095 0.02589923
v -0.01987211 -0.04365692 0.05227024
v -0.05162614 -0.01947991 0.02484509
v -0.050342 0.0002310114 0.0251566
v -0.03576403 -0.03467208 0.0525788
v -0.0173646 -0.03939087 0.07406051
v -0.04419731 -0.01873232 0.05113415
v -0.04454375 -0.001070206 0.0514008
v -0.02966418 -0.02970322 0.07359806
v -0.01465643 -0.03489906 0.09144941
v -0.036361 -0.01624675 0.07298692
v -0.03545051 -0.001746426 0.07265071
v -0.02344237 -0.02466485 0.09037175
v -0.01164188 -0.03062557 0.1048322
v -0.02881495 -0.01386013 0.08973813
v -0.0271258 -0.002346752 0.0883598
v -0.02011663 -0.0227449 0.1041904
v -0.008944748 -0.02479237 0.1167604
v -0.01391136 -0.01809375 0.1173572
v -0.02555295 -0.01325886 0.1037182
v -0.02557337 -0.002679039 0.1029547
v -0.02111035 -0.01109552 0.1167106
v -0.02020038 -0.003132303 0.1172243
v 0.001146978 -0.003248588 0.1220005
v 0.0163905 0.01222014 0.1173357
v 0.02269314 0.006854652 0.1167902
v 0.009610821 0.0193627 0.116815
v 0.02226675 -0.003138016 0.1173375
v 0.001028182 0.01891429 0.1173348
v 0.02309824 -0.01127257 0.1167319
v -0.007764125 0.01924399 0.116791
v 0.01584862 -0.01796241 0.1173692
v -0.0144016 0.01229025 0.1172881
v 0.0108002 -0.02476293 0.1167559
v -0.02058634 0.006561751 0.1167013
v 0.001031109 -0.0241523 0.1174093
v -0.02020038 -0.003132303 0.1172243
v -0.008944748 -0.02479237 0.1167604
v -0.02111035 -0.01109552 0.1167106
v -0.01391136 -0.01809375 0.1173572
v 0.006104962 0.0160883 -0.1220005
v -0.001707796 0.01567239 -0.1220005
v -0.001422239 -0.001644107 -0.1220004
v 0.01026898 0.01070339 -0.1220005
v -0.008570877 0.01562872 -0.1220005
v 0.01567421 0.00521621 -0.1220005
v -0.01248617 0.009569798 -0.1220005
v 0.01490323 -0.002080244 -0.1220004
v -0.01678928 0.004203756 -0.1220004
v 0.01516468 -0.008568177 -0.1220004
v -0.01460682 -0.001944182 -0.1220004
v 0.00839173 -0.0126273 -0.1220004
v -0.01633419 -0.008249215 -0.1220004
v 0.005285036 -0.0174229 -0.1220004
v -0.01126116 -0.01229163 -0.1220004
v -0.00160596 -0.01615098 -0.1220004
v -0.007008774 -0.01744478 -0.1220004
vt 0.4079188 0.7221872
vt 0.3881127 0.7418879
vt 0.432078 0.7857684
vt 0.4532334 0.767011
vt 0.4709242 0.8266226
vt 0.5048112 0.8113713
vt 0.5145775 0.8654331
vt 0.55074 0.8580025
vt 0.5321203 0.7976373
vt 0.5461638 0.9025168
vt 0.5888469 0.895295
vt 0.5772586 0.9342341
vt 0.8828034 0.5191659
vt 0.9279789 0.5819287
vt 0.8919031 0.5131866
vt 0.8960233 0.5848765
vt 0.8561066 0.5080099
vt 0.9468341 0.6526763
vt 0.8522942 0.5613389
vt 0.8240308 0.4931773
vt 0.8968867 0.6513754
vt 0.9467604 0.7436972
vt 0.880789 0.7211024
vt 0.8440619 0.6234729
vt 0.8199136 0.6856959
vt 0.814202 0.5381286
vt 0.7900389 0.4642037
vt 0.7979055 0.5910876
vt 0.771449 0.6484119
vt 0.7731563 0.5077229
vt 0.7509997 0.433029
vt 0.749554 0.5573815
vt 0.7161348 0.6083419
vt 0.7041243 0.5175156
vt 0.7321143 0.4726741
vt 0.7166267 0.4028332
vt 0.6909745 0.4368766
vt 0.6643653 0.4768751
vt 0.6758481 0.3668127
vt 0.6541106 0.3964798
vt 0.6234852 0.4315955
vt 0.6434405 0.3323108
vt 0.6137468 0.3576398
vt 0.5748173 0.3862167
vt 0.6132718 0.2991537
vt 0.5761127 0.3207481
vt 0.5808832 0.2610947
vt 0.5353733 0.3411391
vt 0.5453308 0.2815831
vt 0.5597175 0.2333928
vt 0.5163667 0.2456602
vt 0.5403512 0.1988181
vt 0.4982491 0.3060946
vt 0.4941177 0.2092508
vt 0.5243996 0.1719319
vt 0.4823839 0.3831009
vt 0.527414 0.4287132
vt 0.4912807 0.4641435
vt 0.4481075 0.4168095
vt 0.4442299 0.3441277
vt 0.4128241 0.3769542
vt 0.4644619 0.270882
vt 0.4086286 0.3062012
vt 0.4384456 0.2287997
vt 0.3791802 0.2587193
vt 0.4756126 0.1726862
vt 0.5155175 0.1397498
vt 0.4151427 0.1849353
vt 0.3513861 0.2105305
vt 0.4599404 0.1343424
vt 0.5087692 0.1140697
vt 0.3936141 0.136629
vt 0.3163074 0.1556761
vt 0.4475147 0.09412787
vt 0.517511 0.1080734
vt 0.4574751 0.05734646
vt 0.3703151 0.08096346
vt 0.2902583 0.09311001
vt 0.3840849 0.02981305
vt 0.2890929 0.0219944
vt 0.4769926 0.753261
vt 0.4532334 0.767011
vt 0.5048112 0.8113713
vt 0.5321203 0.7976373
vt 0.5036925 0.7324913
vt 0.559805 0.7763544
vt 0.5315285 0.7081635
vt 0.5871103 0.7522727
vt 0.6046802 0.8278005
vt 0.5595405 0.683572
vt 0.6358895 0.8075407
vt 0.6168707 0.7295087
vt 0.6678329 0.7827088
vt 0.5875768 0.6515466
vt 0.64531 0.6971368
vt 0.6044731 0.6355939
vt 0.551756 0.590225
vt 0.660777 0.6808354
vt 0.7017211 0.7480344
vt 0.7154683 0.7292473
vt 0.570324 0.5743064
vt 0.5216786 0.5299028
vt 0.5396274 0.5092351
vt 0.6762319 0.6645467
vt 0.729205 0.710475
vt 0.6213563 0.6196536
vt 0.5873101 0.554337
vt 0.5763245 0.4756167
vt 0.6360821 0.5971116
vt 0.6903773 0.6427395
vt 0.7476165 0.6875069
vt 0.6678305 0.5635096
vt 0.622512 0.5210396
vt 0.6643653 0.4768751
vt 0.7041243 0.5175156
vt 0.7161348 0.6083419
vt 0.771449 0.6484119
vt 0.2901027 0.5662537
vt 0.2774525 0.5866607
vt 0.3167019 0.6300355
vt 0.3301244 0.6110831
vt 0.3095376 0.5498276
vt 0.3629366 0.6757666
vt 0.3506936 0.7007264
vt 0.3881127 0.7418879
vt 0.4079188 0.7221872
vt 0.3506955 0.5939299
vt 0.3341331 0.5197361
vt 0.3786921 0.6583636
vt 0.3798663 0.5675774
vt 0.3605217 0.4959778
vt 0.4003178 0.6371378
vt 0.4258608 0.7058446
vt 0.4047928 0.5411316
vt 0.3905135 0.4662926
vt 0.4532334 0.767011
vt 0.432078 0.7857684
vt 0.4769926 0.753261
vt 0.4482504 0.6846095
vt 0.5036925 0.7324913
vt 0.4261458 0.6104434
vt 0.4758599 0.659774
vt 0.5315285 0.7081635
vt 0.4534178 0.5891986
vt 0.5035286 0.6359903
vt 0.5595405 0.683572
vt 0.4349703 0.5126467
vt 0.5331734 0.6061561
vt 0.5875768 0.6515466
vt 0.551756 0.590225
vt 0.4857085 0.5639459
vt 0.5037006 0.5469177
vt 0.5216786 0.5299028
vt 0.4087144 0.4491686
vt 0.3767911 0.4060089
vt 0.3950943 0.3934239
vt 0.4534183 0.4971988
vt 0.426901 0.432058
vt 0.4718519 0.4817629
vt 0.4481075 0.4168095
vt 0.4912807 0.4641435
vt 0.5396274 0.5092351
vt 0.527414 0.4287132
vt 0.5763245 0.4756167
vt 0.5748173 0.3862167
vt 0.5353733 0.3411391
vt 0.6234852 0.4315955
vt 0.622512 0.5210396
vt 0.6643653 0.4768751
vt 0.5873101 0.554337
vt 0.6360821 0.5971116
vt 0.64531 0.6971368
vt 0.6678329 0.7827088
vt 0.7017211 0.7480344
vt 0.7251476 0.8268872
vt 0.7550845 0.7923465
vt 0.7154683 0.7292473
vt 0.6918197 0.8511031
vt 0.6358895 0.8075407
vt 0.767812 0.7722197
vt 0.729205 0.710475
vt 0.6551123 0.8719203
vt 0.6046802 0.8278005
vt 0.7805296 0.7521086
vt 0.7476165 0.6875069
vt 0.7957259 0.7281685
vt 0.771449 0.6484119
vt 0.8199136 0.6856959
vt 0.8577983 0.7692155
vt 0.880789 0.7211024
vt 0.8420032 0.7975944
vt 0.9320355 0.8090122
vt 0.9467604 0.7436972
vt 0.907402 0.844148
vt 0.8869554 0.8681071
vt 0.8265939 0.8200619
vt 0.8664929 0.8920848
vt 0.8111726 0.842547
vt 0.8155159 0.935683
vt 0.7703527 0.8809189
vt 0.7665085 0.9578248
vt 0.7280048 0.9061977
vt 0.6996821 0.9700016
vt 0.6829672 0.9260654
vt 0.6463204 0.9791952
vt 0.6468159 0.9386805
vt 0.6208977 0.9743035
vt 0.6204801 0.887526
vt 0.6151752 0.939158
vt 0.5826499 0.9671729
vt 0.5772586 0.9342341
vt 0.5888469 0.895295
vt 0.5771812 0.8458181
vt 0.559805 0.7763544
vt 0.55074 0.8580025
vt 0.5321203 0.7976373
vt 0.3950943 0.3934239
vt 0.4087144 0.4491686
vt 0.426901 0.432058
vt 0.4128241 0.3769542
vt 0.4481075 0.4168095
vt 0.3758354 0.3335702
vt 0.4086286 0.3062012
vt 0.4442299 0.3441277
vt 0.3791802 0.2587193
vt 0.356344 0.3481135
vt 0.3767911 0.4060089
vt 0.3420124 0.2810179
vt 0.3513861 0.2105305
vt 0.3114894 0.2316648
vt 0.3163074 0.1556761
vt 0.2724482 0.1761781
vt 0.3207703 0.2983892
vt 0.2899152 0.2480842
vt 0.3384717 0.3619208
vt 0.3033005 0.3127565
vt 0.2712529 0.2584557
vt 0.3584735 0.4186037
vt 0.3905135 0.4662926
vt 0.3605217 0.4959778
vt 0.285817 0.3271349
vt 0.2525761 0.2688352
vt 0.3205854 0.3757388
vt 0.3218542 0.4438973
vt 0.3341331 0.5197361
vt 0.248779 0.3525698
vt 0.2151798 0.2967366
vt 0.2868193 0.399322
vt 0.2963412 0.468848
vt 0.3095376 0.5498276
vt 0.2253161 0.3786634
vt 0.1909042 0.3281055
vt 0.2617888 0.4224042
vt 0.2705752 0.496974
vt 0.2901027 0.5662537
vt 0.2025536 0.4071671
vt 0.1682208 0.3572124
vt 0.2368973 0.4475192
vt 0.2544918 0.521227
vt 0.2774525 0.5866607
vt 0.1830497 0.4300717
vt 0.1474122 0.383803
vt 0.2192535 0.4711404
vt 0.1678954 0.4548742
vt 0.1312303 0.4111372
vt 0.2433833 0.5456586
vt 0.2063549 0.4969012
vt 0.1524478 0.4838543
vt 0.1127816 0.4395897
vt 0.1941 0.5276116
vt 0.2266372 0.5667751
vt 0.270107 0.6152462
vt 0.3080623 0.6575056
vt 0.3167019 0.6300355
vt 0.3506936 0.7007264
vt 0.2902583 0.09311001
vt 0.2724482 0.1761781
vt 0.3163074 0.1556761
vt 0.2337277 0.1089838
vt 0.2890929 0.0219944
vt 0.2191605 0.03370998
vt 0.2103794 0.1219117
vt 0.1742174 0.04727134
vt 0.2497576 0.191971
vt 0.1887781 0.1351232
vt 0.1470646 0.0678203
vt 0.2899152 0.2480842
vt 0.3114894 0.2316648
vt 0.2712529 0.2584557
vt 0.2308636 0.2042338
vt 0.2525761 0.2688352
vt 0.2119547 0.2165061
vt 0.2151798 0.2967366
vt 0.1671598 0.148345
vt 0.1198907 0.08838529
vt 0.1771138 0.2450879
vt 0.1909042 0.3281055
vt 0.132411 0.1909954
vt 0.07568017 0.1494889
vt 0.1511442 0.2778147
vt 0.1682208 0.3572124
vt 0.105915 0.2329912
vt 0.05069946 0.2003772
vt 0.1264871 0.3156658
vt 0.1474122 0.383803
vt 0.08252597 0.2818196
vt 0.03562875 0.2687092
vt 0.104153 0.3503038
vt 0.1312303 0.4111372
vt 0.06411808 0.3258083
vt 0.02316572 0.3237188
vt 0.09039667 0.3764661
vt 0.1127816 0.4395897
vt 0.08086102 0.4167489
vt 0.05474168 0.3525686
vt 0.01821801 0.3490531
vt 0.04337081 0.3830261
vt 0.01728 0.3845062
vt 0.1824915 0.8145524
vt 0.2915182 0.9206231
vt 0.3372657 0.8820231
vt 0.2428565 0.9712028
vt 0.3339866 0.8109524
vt 0.1812579 0.968099
vt 0.3406387 0.7520591
vt 0.1182118 0.9699242
vt 0.2884605 0.7049473
vt 0.07108925 0.9202297
vt 0.252843 0.6551896
vt 0.02674792 0.8787265
vt 0.1825829 0.6603224
vt 0.03017124 0.8099019
vt 0.1109065 0.6540767
vt 0.02376751 0.7524639
vt 0.07556974 0.7032551
vt 0.7478271 0.3140905
vt 0.7928658 0.3104166
vt 0.7883829 0.2104719
vt 0.7228989 0.2836756
vt 0.8324755 0.309048
vt 0.6907889 0.2528722
vt 0.8540912 0.2734211
vt 0.6940487 0.2106155
vt 0.8780655 0.2417305
vt 0.691479 0.1731959
vt 0.8644651 0.2065865
vt 0.7299191 0.1486522
vt 0.8734165 0.1698967
vt 0.7470721 0.1204543
vt 0.8434626 0.1473878
vt 0.7870717 0.1266784
vt 0.8180605 0.1183295
vn 0.6609839 0.5856212 0.4691994
vn 0.357548 0.3378585 0.8706383
vn 0.2443224 0.5079857 0.8259886
vn 0.3918242 0.7514317 0.5308712
vn -0.009291405 0.4560995 0.8898802
vn -0.04285536 0.8183172 0.5731669
vn -0.2480936 0.5046143 0.8269305
vn -0.4226437 0.7326184 0.5335191
vn -0.07562407 0.8738375 0.480301
vn -0.3783263 0.3216396 0.867996
vn -0.7208002 0.5055423 0.474209
vn -0.6166959 0.1541288 0.7719654
vn -0.08829215 0.02033343 -0.9958871
vn -0.2193111 0.01520361 -0.9755365
vn -0.06706293 -0.002998435 -0.9977442
vn -0.2468207 0.09445062 -0.9644473
vn -0.05783256 0.04807627 -0.997168
vn -0.5506918 0.04906127 -0.8332655
vn -0.199025 0.1812579 -0.963086
vn -0.04655017 0.07948256 -0.9957488
vn -0.5466734 0.1496543 -0.8238639
vn -0.918521 0.08151886 -0.3868769
vn -0.8927583 0.1992601 -0.4040769
vn -0.3973423 0.3305511 -0.8560696
vn -0.7026515 0.5413176 -0.4617966
vn -0.1370336 0.2348165 -0.9623321
vn -0.004450148 0.06966372 -0.9975606
vn -0.2490951 0.4294924 -0.8680367
vn -0.4442262 0.7489856 -0.4916133
vn -0.02358029 0.2546166 -0.9667546
vn 0.03699554 0.08001433 -0.9961069
vn -0.04422422 0.4890431 -0.8711377
vn -0.1146698 0.8514804 -0.5116952
vn 0.2100877 0.4640932 -0.8605119
vn 0.1084921 0.2380752 -0.9651682
vn 0.05402099 0.04533248 -0.9975102
vn 0.2239588 0.1760815 -0.9585602
vn 0.3944951 0.3344297 -0.8558799
vn 0.09157022 0.0288004 -0.995382
vn 0.286862 0.08864421 -0.9538618
vn 0.4955788 0.1639892 -0.8529415
vn 0.07593267 -0.002383009 -0.9971102
vn 0.2980852 0.007125933 -0.9545127
vn 0.5373706 -0.04290544 -0.8422541
vn 0.0868971 -0.04836892 -0.9950423
vn 0.2361434 -0.09991495 -0.9665678
vn 0.04694605 -0.05357067 -0.9974599
vn 0.4976892 -0.260377 -0.8273508
vn 0.1525397 -0.1615739 -0.9750003
vn 0.03690713 -0.09238983 -0.9950387
vn 0.07194192 -0.192004 -0.9787537
vn -0.00206732 -0.07151309 -0.9974375
vn 0.4053193 -0.3986717 -0.8226647
vn -0.008568678 -0.2038725 -0.97896
vn -0.0337577 -0.09241575 -0.9951481
vn 0.783533 -0.4642054 -0.4130247
vn 0.8688223 -0.1215809 -0.4799645
vn 0.9888695 -0.134849 -0.06287135
vn 0.8523425 -0.5229658 0.00436327
vn 0.6513011 -0.6694437 -0.3572843
vn 0.7017653 -0.7111489 0.04234218
vn 0.2036413 -0.5156448 -0.8322503
vn 0.3440123 -0.8805153 -0.3261109
vn -0.01714169 -0.538859 -0.8422216
vn -0.01158697 -0.9413694 -0.3371787
vn -0.07060764 -0.1871091 -0.9797983
vn -0.04910231 -0.0577627 -0.997122
vn -0.1700053 -0.4949419 -0.852133
vn -0.2789254 -0.8833376 -0.3767165
vn -0.1181668 -0.1530776 -0.9811237
vn -0.08584869 -0.03036056 -0.9958455
vn -0.2989015 -0.3913205 -0.8703598
vn -0.5817908 -0.7105888 -0.3957058
vn -0.1718789 -0.07072039 -0.9825764
vn -0.06706293 -0.002998435 -0.9977442
vn -0.2193111 0.01520361 -0.9755365
vn -0.497886 -0.1512181 -0.8539571
vn -0.8830171 -0.2420618 -0.4021033
vn -0.5506918 0.04906127 -0.8332655
vn -0.918521 0.08151886 -0.3868769
vn 0.4336788 0.7846458 0.4430054
vn 0.3918242 0.7514317 0.5308712
vn -0.04285536 0.8183172 0.5731669
vn -0.07562407 0.8738375 0.480301
vn 0.4465825 0.8039553 0.3927087
vn -0.08203124 0.9082786 0.4102449
vn 0.4649195 0.8508647 0.2447022
vn -0.07732444 0.9593253 0.2715067
vn -0.4890679 0.7850676 0.3801073
vn 0.4514698 0.8688141 0.2033154
vn -0.4919848 0.8237482 0.2817622
vn -0.08738974 0.9709837 0.2226064
vn -0.4946665 0.8402113 0.2221486
vn 0.4499373 0.8717505 0.1939262
vn -0.07068801 0.9806738 0.1824339
vn 0.4240918 0.891468 0.159471
vn 0.768966 0.6146905 0.1756322
vn -0.08922106 0.9854373 0.1447511
vn -0.4880506 0.8548263 0.1762915
vn -0.484962 0.8641641 0.1342843
vn 0.7507414 0.63831 0.1701401
vn 0.9209056 0.3317765 0.2045904
vn 0.9358606 0.336102 -0.1058321
vn -0.1058512 0.987651 0.1155032
vn -0.4779646 0.8699831 0.1211583
vn 0.3912176 0.9102451 0.1356562
vn 0.7443943 0.6525149 -0.1417793
vn 0.8053153 0.2844761 -0.5201352
vn 0.3948553 0.9043646 -0.1619067
vn -0.1003616 0.9814572 -0.1633078
vn -0.4928086 0.862744 -0.1131922
vn 0.3247691 0.7840689 -0.5289243
vn 0.6346765 0.569675 -0.522165
vn 0.3944951 0.3344297 -0.8558799
vn 0.2100877 0.4640932 -0.8605119
vn -0.1146698 0.8514804 -0.5116952
vn -0.4442262 0.7489856 -0.4916133
vn 0.8712834 -0.440686 0.2160119
vn 0.8760096 -0.4267208 0.2247593
vn 0.9499407 -0.1303745 0.2839281
vn 0.9442564 -0.2094428 0.2539951
vn 0.8683882 -0.425705 0.2543169
vn 0.8915147 0.2239391 0.3937677
vn 0.588702 0.1899589 0.7857133
vn 0.357548 0.3378585 0.8706383
vn 0.6609839 0.5856212 0.4691994
vn 0.9365802 -0.2224642 0.2707899
vn 0.8889732 -0.4375497 0.135192
vn 0.9232731 0.1890851 0.3343855
vn 0.9658607 -0.2134151 0.1468576
vn 0.8771635 -0.4592232 0.1403507
vn 0.9279959 0.1924351 0.3190492
vn 0.7093728 0.5822974 0.3971397
vn 0.9661925 -0.1951092 0.1685361
vn 0.8570554 -0.4778497 0.1926544
vn 0.3918242 0.7514317 0.5308712
vn 0.2443224 0.5079857 0.8259886
vn 0.4336788 0.7846458 0.4430054
vn 0.7352893 0.575926 0.3572939
vn 0.4465825 0.8039553 0.3927087
vn 0.9576769 0.228906 0.1745194
vn 0.7753106 0.5978253 0.2037112
vn 0.4649195 0.8508647 0.2447022
vn 0.9491932 0.2675035 0.1657531
vn 0.7789854 0.6008595 0.1793033
vn 0.4514698 0.8688141 0.2033154
vn 0.9609875 -0.1737541 0.2152032
vn 0.7799013 0.5949671 0.1943402
vn 0.4499373 0.8717505 0.1939262
vn 0.768966 0.6146905 0.1756322
vn 0.9364876 0.2869921 0.2015603
vn 0.9288175 0.3130076 0.1983037
vn 0.9209056 0.3317765 0.2045904
vn 0.8392103 -0.5051805 0.2012929
vn 0.7081952 -0.6824036 0.1810656
vn 0.6810198 -0.6850527 0.2586789
vn 0.959874 -0.1615689 0.2292104
vn 0.8202404 -0.5133724 0.2522984
vn 0.95741 -0.1468381 0.2486054
vn 0.8523425 -0.5229658 0.00436327
vn 0.9888695 -0.134849 -0.06287135
vn 0.9358606 0.336102 -0.1058321
vn 0.8688223 -0.1215809 -0.4799645
vn 0.8053153 0.2844761 -0.5201352
vn 0.5373706 -0.04290544 -0.8422541
vn 0.4976892 -0.260377 -0.8273508
vn 0.4955788 0.1639892 -0.8529415
vn 0.6346765 0.569675 -0.522165
vn 0.3944951 0.3344297 -0.8558799
vn 0.7443943 0.6525149 -0.1417793
vn 0.3948553 0.9043646 -0.1619067
vn -0.07068801 0.9806738 0.1824339
vn -0.4946665 0.8402113 0.2221486
vn -0.4880506 0.8548263 0.1762915
vn -0.8183103 0.5271044 0.2291923
vn -0.8069513 0.5632111 0.1778281
vn -0.484962 0.8641641 0.1342843
vn -0.822389 0.4924451 0.2849107
vn -0.4919848 0.8237482 0.2817622
vn -0.792865 0.588967 0.1564707
vn -0.4779646 0.8699831 0.1211583
vn -0.8134431 0.4548603 0.3625086
vn -0.4890679 0.7850676 0.3801073
vn -0.7829094 0.6062508 0.1396885
vn -0.4928086 0.862744 -0.1131922
vn -0.7847226 0.6107021 -0.1060815
vn -0.4442262 0.7489856 -0.4916133
vn -0.7026515 0.5413176 -0.4617966
vn -0.9740229 0.214711 -0.07196128
vn -0.8927583 0.1992601 -0.4040769
vn -0.9668739 0.2032814 0.1543743
vn -0.9944835 0.08843883 -0.05640104
vn -0.918521 0.08151886 -0.3868769
vn -0.984189 0.08286685 0.156541
vn -0.9830726 0.0867842 0.1613592
vn -0.9663222 0.1971815 0.1653512
vn -0.9821682 0.09205022 0.1639286
vn -0.967626 0.1862875 0.1702848
vn -0.9727374 0.09594177 0.2111333
vn -0.9615777 0.1740225 0.2123309
vn -0.9527031 0.08485414 0.291816
vn -0.9527002 0.149927 0.2643562
vn -0.9261069 0.05273813 0.3735568
vn -0.9426548 0.08790325 0.3219857
vn -0.9496189 -0.002595405 0.3133959
vn -0.9487029 0.02170359 0.3154233
vn -0.9668579 -0.01825529 0.2546615
vn -0.7910407 0.4619489 0.4010708
vn -0.9327726 0.09724233 0.3471011
vn -0.5544225 -0.001188075 0.8322344
vn -0.6166959 0.1541288 0.7719654
vn -0.7208002 0.5055423 0.474209
vn -0.4789654 0.7630128 0.4340549
vn -0.08203124 0.9082786 0.4102449
vn -0.4226437 0.7326184 0.5335191
vn -0.07562407 0.8738375 0.480301
vn 0.6810198 -0.6850527 0.2586789
vn 0.8392103 -0.5051805 0.2012929
vn 0.8202404 -0.5133724 0.2522984
vn 0.7017653 -0.7111489 0.04234218
vn 0.8523425 -0.5229658 0.00436327
vn 0.3908832 -0.9182894 0.06288712
vn 0.3440123 -0.8805153 -0.3261109
vn 0.6513011 -0.6694437 -0.3572843
vn -0.01158697 -0.9413694 -0.3371787
vn 0.4030094 -0.8790695 0.2545982
vn 0.7081952 -0.6824036 0.1810656
vn 0.008699831 -0.9990503 0.04269332
vn -0.2789254 -0.8833376 -0.3767165
vn -0.2934841 -0.9557703 0.01923662
vn -0.5817908 -0.7105888 -0.3957058
vn -0.6498794 -0.7600367 0.001018844
vn 0.06112209 -0.9700523 0.2350801
vn -0.2727927 -0.9388563 0.2100788
vn 0.4125546 -0.8918327 0.1855613
vn 0.1056661 -0.9755103 0.1929101
vn -0.2607228 -0.9497959 0.1729487
vn 0.7315668 -0.6595387 0.1726809
vn 0.8570554 -0.4778497 0.1926544
vn 0.8771635 -0.4592232 0.1403507
vn 0.1273329 -0.9782321 0.1638546
vn -0.2453375 -0.956306 0.1590231
vn 0.3962756 -0.9029564 0.1662389
vn 0.7307283 -0.6690602 0.1356266
vn 0.8889732 -0.4375497 0.135192
vn 0.1115963 -0.9819386 0.152784
vn -0.2569488 -0.9495547 0.1797864
vn 0.3746739 -0.9167506 0.1385205
vn 0.7388588 -0.6611925 0.1300465
vn 0.8683882 -0.425705 0.2543169
vn 0.09090398 -0.9853026 0.1446213
vn -0.2571504 -0.9446294 0.2038357
vn 0.3743889 -0.9182673 0.1289116
vn 0.7419358 -0.6249152 0.2429245
vn 0.8712834 -0.440686 0.2160119
vn 0.06309053 -0.9769557 0.2039053
vn -0.3075597 -0.9099885 0.2780789
vn 0.3916985 -0.894318 0.2162579
vn 0.7647596 -0.6084546 0.2119571
vn 0.8760096 -0.4267208 0.2247593
vn 0.03780598 -0.968221 0.2472221
vn -0.3723556 -0.8706133 0.3215336
vn 0.4181319 -0.8764227 0.2388493
vn 0.02002598 -0.9334235 0.3582173
vn -0.3685752 -0.8397395 0.3987353
vn 0.7487899 -0.6206483 0.2326144
vn 0.4045556 -0.8558538 0.3222561
vn 0.006014817 -0.530137 0.8478907
vn -0.2479003 -0.5707833 0.7827847
vn 0.2840491 -0.5857143 0.7591146
vn 0.4139515 -0.3738372 0.829994
vn 0.6219732 -0.2730673 0.7338825
vn 0.5439646 -0.03162245 0.8385121
vn 0.9499407 -0.1303745 0.2839281
vn 0.588702 0.1899589 0.7857133
vn -0.8830171 -0.2420618 -0.4021033
vn -0.6498794 -0.7600367 0.001018844
vn -0.5817908 -0.7105888 -0.3957058
vn -0.9751242 -0.2200371 -0.02676864
vn -0.918521 0.08151886 -0.3868769
vn -0.9944835 0.08843883 -0.05640104
vn -0.9543248 -0.2223628 0.1995464
vn -0.984189 0.08286685 0.156541
vn -0.63676 -0.7383646 0.2221583
vn -0.9552319 -0.2220377 0.1955281
vn -0.9830726 0.0867842 0.1613592
vn -0.2727927 -0.9388563 0.2100788
vn -0.2934841 -0.9557703 0.01923662
vn -0.2607228 -0.9497959 0.1729487
vn -0.6692551 -0.7181119 0.1908213
vn -0.2453375 -0.956306 0.1590231
vn -0.6982257 -0.6963475 0.1660753
vn -0.2569488 -0.9495547 0.1797864
vn -0.9613795 -0.2134085 0.1738
vn -0.9821682 0.09205022 0.1639286
vn -0.7067096 -0.6783582 0.2009769
vn -0.2571504 -0.9446294 0.2038357
vn -0.9505847 -0.2259214 0.2129508
vn -0.9727374 0.09594177 0.2111333
vn -0.7017392 -0.6602499 0.2676418
vn -0.3075597 -0.9099885 0.2780789
vn -0.9287701 -0.224613 0.2948475
vn -0.9527031 0.08485414 0.291816
vn -0.7242776 -0.5935033 0.3509641
vn -0.3723556 -0.8706133 0.3215336
vn -0.9014896 -0.1832504 0.3920919
vn -0.9261069 0.05273813 0.3735568
vn -0.7632041 -0.5428823 0.350426
vn -0.3685752 -0.8397395 0.3987353
vn -0.9205674 -0.1595498 0.3565101
vn -0.9496189 -0.002595405 0.3133959
vn -0.7451369 -0.5611355 0.3604137
vn -0.2479003 -0.5707833 0.7827847
vn -0.3972878 -0.3403893 0.8522308
vn -0.9238232 -0.2338268 0.3031098
vn -0.9668579 -0.01825529 0.2546615
vn -0.6235548 -0.1961606 0.7567698
vn -0.5544225 -0.001188075 0.8322344
vn -0.0008823269 -8.137876E-05 0.9999996
vn 0.357548 0.3378585 0.8706383
vn 0.588702 0.1899589 0.7857133
vn 0.2443224 0.5079857 0.8259886
vn 0.5439646 -0.03162245 0.8385121
vn -0.009291405 0.4560995 0.8898802
vn 0.6219732 -0.2730673 0.7338825
vn -0.2480936 0.5046143 0.8269305
vn 0.4139515 -0.3738372 0.829994
vn -0.3783263 0.3216396 0.867996
vn 0.2840491 -0.5857143 0.7591146
vn -0.6166959 0.1541288 0.7719654
vn 0.006014817 -0.530137 0.8478907
vn -0.5544225 -0.001188075 0.8322344
vn -0.2479003 -0.5707833 0.7827847
vn -0.6235548 -0.1961606 0.7567698
vn -0.3972878 -0.3403893 0.8522308
vn 0.03699554 0.08001433 -0.9961069
vn -0.004450148 0.06966372 -0.9975606
vn -2.022278E-07 -1.653542E-06 -1
vn 0.05402099 0.04533248 -0.9975102
vn -0.04655017 0.07948256 -0.9957488
vn 0.09157022 0.0288004 -0.995382
vn -0.05783256 0.04807627 -0.997168
vn 0.07593267 -0.002383009 -0.9971102
vn -0.08829215 0.02033343 -0.9958871
vn 0.0868971 -0.04836892 -0.9950423
vn -0.06706293 -0.002998435 -0.9977442
vn 0.04694605 -0.05357067 -0.9974599
vn -0.08584869 -0.03036056 -0.9958455
vn 0.03690713 -0.09238983 -0.9950387
vn -0.04910231 -0.0577627 -0.997122
vn -0.00206732 -0.07151309 -0.9974375
vn -0.0337577 -0.09241575 -0.9951481
usemtl Lettuce1_Mat
f 3/3/3 2/2/2 1/1/1
f 5/5/5 3/3/3 4/4/4
f 6/6/6 5/5/5 4/4/4
f 7/7/7 5/5/5 6/6/6
f 8/8/8 7/7/7 6/6/6
f 8/8/8 6/6/6 9/9/9
f 10/10/10 7/7/7 8/8/8
f 11/11/11 10/10/10 8/8/8
f 12/12/12 10/10/10 11/11/11
f 15/15/15 14/14/14 13/13/13
f 14/14/14 16/16/16 13/13/13
f 13/13/13 16/16/16 17/17/17
f 14/14/14 18/18/18 16/16/16
f 16/16/16 19/19/19 17/17/17
f 17/17/17 19/19/19 20/20/20
f 18/18/18 21/21/21 16/16/16
f 16/16/16 21/21/21 19/19/19
f 18/18/18 22/22/22 21/21/21
f 22/22/22 23/23/23 21/21/21
f 21/21/21 23/23/23 24/24/24
f 21/21/21 24/24/24 19/19/19
f 23/23/23 25/25/25 24/24/24
f 19/19/19 26/26/26 20/20/20
f 19/19/19 24/24/24 26/26/26
f 20/20/20 26/26/26 27/27/27
f 24/24/24 25/25/25 28/28/28
f 24/24/24 28/28/28 26/26/26
f 25/25/25 29/29/29 28/28/28
f 26/26/26 30/30/30 27/27/27
f 26/26/26 28/28/28 30/30/30
f 27/27/27 30/30/30 31/31/31
f 28/28/28 29/29/29 32/32/32
f 28/28/28 32/32/32 30/30/30
f 29/29/29 33/33/33 32/32/32
f 32/32/32 33/33/33 34/34/34
f 30/30/30 35/35/35 31/31/31
f 30/30/30 32/32/32 35/35/35
f 32/32/32 34/34/34 35/35/35
f 31/31/31 35/35/35 36/36/36
f 35/35/35 34/34/34 37/37/37
f 35/35/35 37/37/37 36/36/36
f 34/34/34 38/38/38 37/37/37
f 36/36/36 37/37/37 39/39/39
f 37/37/37 38/38/38 40/40/40
f 37/37/37 40/40/40 39/39/39
f 38/38/38 41/41/41 40/40/40
f 39/39/39 40/40/40 42/42/42
f 40/40/40 41/41/41 43/43/43
f 40/40/40 43/43/43 42/42/42
f 41/41/41 44/44/44 43/43/43
f 42/42/42 43/43/43 45/45/45
f 43/43/43 44/44/44 46/46/46
f 43/43/43 46/46/46 45/45/45
f 45/45/45 46/46/46 47/47/47
f 44/44/44 48/48/48 46/46/46
f 46/46/46 49/49/49 47/47/47
f 46/46/46 48/48/48 49/49/49
f 47/47/47 49/49/49 50/50/50
f 49/49/49 51/51/51 50/50/50
f 50/50/50 51/51/51 52/52/52
f 48/48/48 53/53/53 49/49/49
f 49/49/49 53/53/53 51/51/51
f 51/51/51 54/54/54 52/52/52
f 52/52/52 54/54/54 55/55/55
f 48/48/48 56/56/56 53/53/53
f 57/57/57 56/56/56 48/48/48
f 57/57/57 58/58/58 56/56/56
f 58/58/58 59/59/59 56/56/56
f 56/56/56 59/59/59 60/60/60
f 56/56/56 60/60/60 53/53/53
f 59/59/59 61/61/61 60/60/60
f 53/53/53 62/62/62 51/51/51
f 53/53/53 60/60/60 62/62/62
f 51/51/51 62/62/62 54/54/54
f 60/60/60 63/63/63 62/62/62
f 62/62/62 63/63/63 64/64/64
f 62/62/62 64/64/64 54/54/54
f 63/63/63 65/65/65 64/64/64
f 54/54/54 66/66/66 55/55/55
f 54/54/54 64/64/64 66/66/66
f 55/55/55 66/66/66 67/67/67
f 64/64/64 65/65/65 68/68/68
f 64/64/64 68/68/68 66/66/66
f 65/65/65 69/69/69 68/68/68
f 66/66/66 70/70/70 67/67/67
f 66/66/66 68/68/68 70/70/70
f 67/67/67 70/70/70 71/71/71
f 68/68/68 69/69/69 72/72/72
f 68/68/68 72/72/72 70/70/70
f 69/69/69 73/73/73 72/72/72
f 70/70/70 74/74/74 71/71/71
f 70/70/70 72/72/72 74/74/74
f 71/71/71 74/74/74 75/75/75
f 74/74/74 76/76/76 75/75/75
f 72/72/72 73/73/73 77/77/77
f 72/72/72 77/77/77 74/74/74
f 74/74/74 77/77/77 76/76/76
f 73/73/73 78/78/78 77/77/77
f 77/77/77 79/79/79 76/76/76
f 77/77/77 78/78/78 79/79/79
f 78/78/78 80/80/80 79/79/79
f 83/83/83 82/82/82 81/81/81
f 84/84/84 83/83/83 81/81/81
f 84/84/84 81/81/81 85/85/85
f 86/86/86 84/84/84 85/85/85
f 86/86/86 85/85/85 87/87/87
f 88/88/88 86/86/86 87/87/87
f 89/89/89 86/86/86 88/88/88
f 88/88/88 87/87/87 90/90/90
f 91/91/91 89/89/89 88/88/88
f 92/92/92 88/88/88 90/90/90
f 91/91/91 88/88/88 92/92/92
f 93/93/93 91/91/91 92/92/92
f 92/92/92 90/90/90 94/94/94
f 93/93/93 92/92/92 95/95/95
f 95/95/95 92/92/92 94/94/94
f 95/95/95 94/94/94 96/96/96
f 96/96/96 94/94/94 97/97/97
f 98/98/98 95/95/95 96/96/96
f 99/99/99 95/95/95 98/98/98
f 100/100/100 99/99/99 98/98/98
f 96/96/96 97/97/97 101/101/101
f 101/101/101 97/97/97 102/102/102
f 101/101/101 102/102/102 103/103/103
f 100/100/100 98/98/98 104/104/104
f 105/105/105 100/100/100 104/104/104
f 98/98/98 96/96/96 106/106/106
f 106/106/106 96/96/96 101/101/101
f 104/104/104 98/98/98 106/106/106
f 107/107/107 101/101/101 103/103/103
f 106/106/106 101/101/101 107/107/107
f 107/107/107 103/103/103 108/108/108
f 109/109/109 106/106/106 107/107/107
f 104/104/104 106/106/106 109/109/109
f 105/105/105 104/104/104 110/110/110
f 110/110/110 104/104/104 109/109/109
f 111/111/111 105/105/105 110/110/110
f 110/110/110 109/109/109 112/112/112
f 112/112/112 109/109/109 113/113/113
f 112/112/112 113/113/113 114/114/114
f 115/115/115 112/112/112 114/114/114
f 116/116/116 112/112/112 115/115/115
f 116/116/116 110/110/110 112/112/112
f 111/111/111 110/110/110 116/116/116
f 117/117/117 111/111/111 116/116/116
f 120/120/120 119/119/119 118/118/118
f 121/121/121 120/120/120 118/118/118
f 121/121/121 118/118/118 122/122/122
f 123/123/123 120/120/120 121/121/121
f 123/123/123 124/124/124 120/120/120
f 125/125/125 124/124/124 123/123/123
f 126/126/126 125/125/125 123/123/123
f 127/127/127 121/121/121 122/122/122
f 127/127/127 122/122/122 128/128/128
f 129/129/129 123/123/123 121/121/121
f 126/126/126 123/123/123 129/129/129
f 129/129/129 121/121/121 127/127/127
f 130/130/130 127/127/127 128/128/128
f 130/130/130 128/128/128 131/131/131
f 132/132/132 129/129/129 127/127/127
f 132/132/132 127/127/127 130/130/130
f 133/133/133 126/126/126 129/129/129
f 133/133/133 129/129/129 132/132/132
f 134/134/134 130/130/130 131/131/131
f 134/134/134 131/131/131 135/135/135
f 136/136/136 126/126/126 133/133/133
f 136/136/136 137/137/137 126/126/126
f 138/138/138 136/136/136 133/133/133
f 138/138/138 133/133/133 139/139/139
f 139/139/139 133/133/133 132/132/132
f 140/140/140 138/138/138 139/139/139
f 141/141/141 132/132/132 130/130/130
f 139/139/139 132/132/132 141/141/141
f 141/141/141 130/130/130 134/134/134
f 140/140/140 139/139/139 142/142/142
f 142/142/142 139/139/139 141/141/141
f 143/143/143 140/140/140 142/142/142
f 144/144/144 141/141/141 134/134/134
f 142/142/142 141/141/141 144/144/144
f 143/143/143 142/142/142 145/145/145
f 145/145/145 142/142/142 144/144/144
f 146/146/146 143/143/143 145/145/145
f 144/144/144 134/134/134 147/147/147
f 147/147/147 134/134/134 135/135/135
f 146/146/146 145/145/145 148/148/148
f 149/149/149 146/146/146 148/148/148
f 149/149/149 148/148/148 150/150/150
f 145/145/145 144/144/144 151/151/151
f 148/148/148 145/145/145 151/151/151
f 151/151/151 144/144/144 147/147/147
f 150/150/150 148/148/148 152/152/152
f 148/148/148 151/151/151 152/152/152
f 150/150/150 152/152/152 153/153/153
f 147/147/147 135/135/135 154/154/154
f 154/154/154 135/135/135 155/155/155
f 154/154/154 155/155/155 156/156/156
f 151/151/151 147/147/147 157/157/157
f 157/157/157 147/147/147 154/154/154
f 152/152/152 151/151/151 157/157/157
f 157/157/157 154/154/154 158/158/158
f 152/152/152 157/157/157 159/159/159
f 159/159/159 157/157/157 158/158/158
f 153/153/153 152/152/152 159/159/159
f 159/159/159 158/158/158 160/160/160
f 161/161/161 159/159/159 160/160/160
f 153/153/153 159/159/159 161/161/161
f 162/162/162 153/153/153 161/161/161
f 162/162/162 161/161/161 163/163/163
f 164/164/164 162/162/162 163/163/163
f 164/164/164 163/163/163 165/165/165
f 165/165/165 163/163/163 166/166/166
f 167/167/167 164/164/164 165/165/165
f 168/168/168 164/164/164 167/167/167
f 169/169/169 168/168/168 167/167/167
f 168/168/168 170/170/170 164/164/164
f 171/171/171 170/170/170 168/168/168
f 174/174/174 173/173/173 172/172/172
f 175/175/175 173/173/173 174/174/174
f 176/176/176 175/175/175 174/174/174
f 176/176/176 174/174/174 177/177/177
f 175/175/175 178/178/178 173/173/173
f 178/178/178 179/179/179 173/173/173
f 180/180/180 176/176/176 177/177/177
f 180/180/180 177/177/177 181/181/181
f 178/178/178 182/182/182 179/179/179
f 182/182/182 183/183/183 179/179/179
f 184/184/184 180/180/180 181/181/181
f 184/184/184 181/181/181 185/185/185
f 186/186/186 184/184/184 185/185/185
f 186/186/186 185/185/185 187/187/187
f 188/188/188 186/186/186 187/187/187
f 189/189/189 186/186/186 188/188/188
f 190/190/190 189/189/189 188/188/188
f 191/191/191 184/184/184 186/186/186
f 189/189/189 191/191/191 186/186/186
f 192/192/192 189/189/189 190/190/190
f 193/193/193 192/192/192 190/190/190
f 192/192/192 194/194/194 189/189/189
f 194/194/194 191/191/191 189/189/189
f 194/194/194 195/195/195 191/191/191
f 191/191/191 196/196/196 184/184/184
f 195/195/195 196/196/196 191/191/191
f 196/196/196 180/180/180 184/184/184
f 195/195/195 197/197/197 196/196/196
f 196/196/196 198/198/198 180/180/180
f 197/197/197 198/198/198 196/196/196
f 198/198/198 176/176/176 180/180/180
f 197/197/197 199/199/199 198/198/198
f 198/198/198 200/200/200 176/176/176
f 199/199/199 200/200/200 198/198/198
f 200/200/200 175/175/175 176/176/176
f 199/199/199 201/201/201 200/200/200
f 200/200/200 202/202/202 175/175/175
f 201/201/201 202/202/202 200/200/200
f 202/202/202 178/178/178 175/175/175
f 201/201/201 203/203/203 202/202/202
f 202/202/202 204/204/204 178/178/178
f 203/203/203 204/204/204 202/202/202
f 203/203/203 205/205/205 204/204/204
f 204/204/204 182/182/182 178/178/178
f 205/205/205 206/206/206 204/204/204
f 204/204/204 206/206/206 182/182/182
f 205/205/205 207/207/207 206/206/206
f 206/206/206 208/208/208 182/182/182
f 182/182/182 208/208/208 183/183/183
f 207/207/207 209/209/209 206/206/206
f 206/206/206 209/209/209 208/208/208
f 207/207/207 210/210/210 209/209/209
f 210/210/210 211/211/211 209/209/209
f 209/209/209 211/211/211 212/212/212
f 209/209/209 212/212/212 208/208/208
f 208/208/208 213/213/213 183/183/183
f 208/208/208 212/212/212 213/213/213
f 183/183/183 213/213/213 214/214/214
f 212/212/212 215/215/215 213/213/213
f 213/213/213 216/216/216 214/214/214
f 213/213/213 215/215/215 216/216/216
f 219/219/219 218/218/218 217/217/217
f 219/219/219 217/217/217 220/220/220
f 221/221/221 219/219/219 220/220/220
f 220/220/220 217/217/217 222/222/222
f 220/220/220 222/222/222 223/223/223
f 224/224/224 220/220/220 223/223/223
f 223/223/223 222/222/222 225/225/225
f 217/217/217 226/226/226 222/222/222
f 217/217/217 227/227/227 226/226/226
f 222/222/222 228/228/228 225/225/225
f 222/222/222 226/226/226 228/228/228
f 225/225/225 228/228/228 229/229/229
f 228/228/228 230/230/230 229/229/229
f 229/229/229 230/230/230 231/231/231
f 230/230/230 232/232/232 231/231/231
f 228/228/228 233/233/233 230/230/230
f 226/226/226 233/233/233 228/228/228
f 233/233/233 234/234/234 230/230/230
f 227/227/227 235/235/235 226/226/226
f 226/226/226 235/235/235 233/233/233
f 233/233/233 236/236/236 234/234/234
f 235/235/235 236/236/236 233/233/233
f 236/236/236 237/237/237 234/234/234
f 227/227/227 238/238/238 235/235/235
f 239/239/239 238/238/238 227/227/227
f 239/239/239 240/240/240 238/238/238
f 236/236/236 241/241/241 237/237/237
f 241/241/241 242/242/242 237/237/237
f 235/235/235 243/243/243 236/236/236
f 238/238/238 243/243/243 235/235/235
f 243/243/243 241/241/241 236/236/236
f 240/240/240 244/244/244 238/238/238
f 238/238/238 244/244/244 243/243/243
f 240/240/240 245/245/245 244/244/244
f 241/241/241 246/246/246 242/242/242
f 246/246/246 247/247/247 242/242/242
f 243/243/243 248/248/248 241/241/241
f 244/244/244 248/248/248 243/243/243
f 248/248/248 246/246/246 241/241/241
f 245/245/245 249/249/249 244/244/244
f 244/244/244 249/249/249 248/248/248
f 245/245/245 250/250/250 249/249/249
f 246/246/246 251/251/251 247/247/247
f 251/251/251 252/252/252 247/247/247
f 248/248/248 253/253/253 246/246/246
f 249/249/249 253/253/253 248/248/248
f 253/253/253 251/251/251 246/246/246
f 250/250/250 254/254/254 249/249/249
f 249/249/249 254/254/254 253/253/253
f 250/250/250 255/255/255 254/254/254
f 251/251/251 256/256/256 252/252/252
f 256/256/256 257/257/257 252/252/252
f 253/253/253 258/258/258 251/251/251
f 254/254/254 258/258/258 253/253/253
f 258/258/258 256/256/256 251/251/251
f 255/255/255 259/259/259 254/254/254
f 254/254/254 259/259/259 258/258/258
f 255/255/255 260/260/260 259/259/259
f 256/256/256 261/261/261 257/257/257
f 261/261/261 262/262/262 257/257/257
f 258/258/258 263/263/263 256/256/256
f 259/259/259 263/263/263 258/258/258
f 263/263/263 261/261/261 256/256/256
f 261/261/261 264/264/264 262/262/262
f 264/264/264 265/265/265 262/262/262
f 259/259/259 266/266/266 263/263/263
f 260/260/260 266/266/266 259/259/259
f 263/263/263 267/267/267 261/261/261
f 267/267/267 264/264/264 261/261/261
f 266/266/266 267/267/267 263/263/263
f 264/264/264 268/268/268 265/265/265
f 268/268/268 269/269/269 265/265/265
f 270/270/270 268/268/268 264/264/264
f 267/267/267 270/270/270 264/264/264
f 271/271/271 270/270/270 267/267/267
f 266/266/266 271/271/271 267/267/267
f 272/272/272 271/271/271 266/266/266
f 260/260/260 272/272/272 266/266/266
f 273/273/273 272/272/272 260/260/260
f 274/274/274 273/273/273 260/260/260
f 275/275/275 273/273/273 274/274/274
f 278/278/278 277/277/277 276/276/276
f 277/277/277 279/279/279 276/276/276
f 276/276/276 279/279/279 280/280/280
f 279/279/279 281/281/281 280/280/280
f 279/279/279 282/282/282 281/281/281
f 282/282/282 283/283/283 281/281/281
f 277/277/277 284/284/284 279/279/279
f 284/284/284 282/282/282 279/279/279
f 282/282/282 285/285/285 283/283/283
f 285/285/285 286/286/286 283/283/283
f 287/287/287 284/284/284 277/277/277
f 288/288/288 287/287/287 277/277/277
f 287/287/287 289/289/289 284/284/284
f 284/284/284 290/290/290 282/282/282
f 289/289/289 290/290/290 284/284/284
f 290/290/290 285/285/285 282/282/282
f 289/289/289 291/291/291 290/290/290
f 291/291/291 292/292/292 290/290/290
f 290/290/290 292/292/292 285/285/285
f 291/291/291 293/293/293 292/292/292
f 285/285/285 294/294/294 286/286/286
f 292/292/292 294/294/294 285/285/285
f 294/294/294 295/295/295 286/286/286
f 293/293/293 296/296/296 292/292/292
f 292/292/292 296/296/296 294/294/294
f 293/293/293 297/297/297 296/296/296
f 294/294/294 298/298/298 295/295/295
f 296/296/296 298/298/298 294/294/294
f 298/298/298 299/299/299 295/295/295
f 297/297/297 300/300/300 296/296/296
f 296/296/296 300/300/300 298/298/298
f 297/297/297 301/301/301 300/300/300
f 298/298/298 302/302/302 299/299/299
f 300/300/300 302/302/302 298/298/298
f 302/302/302 303/303/303 299/299/299
f 301/301/301 304/304/304 300/300/300
f 300/300/300 304/304/304 302/302/302
f 301/301/301 305/305/305 304/304/304
f 302/302/302 306/306/306 303/303/303
f 304/304/304 306/306/306 302/302/302
f 306/306/306 307/307/307 303/303/303
f 305/305/305 308/308/308 304/304/304
f 304/304/304 308/308/308 306/306/306
f 305/305/305 309/309/309 308/308/308
f 306/306/306 310/310/310 307/307/307
f 308/308/308 310/310/310 306/306/306
f 310/310/310 311/311/311 307/307/307
f 309/309/309 312/312/312 308/308/308
f 308/308/308 312/312/312 310/310/310
f 309/309/309 313/313/313 312/312/312
f 313/313/313 314/314/314 312/312/312
f 310/310/310 315/315/315 311/311/311
f 312/312/312 315/315/315 310/310/310
f 312/312/312 314/314/314 315/315/315
f 315/315/315 316/316/316 311/311/311
f 314/314/314 317/317/317 315/315/315
f 315/315/315 317/317/317 316/316/316
f 317/317/317 318/318/318 316/316/316
f 321/321/321 320/320/320 319/319/319
f 320/320/320 322/322/322 319/319/319
f 323/323/323 321/321/321 319/319/319
f 322/322/322 324/324/324 319/319/319
f 325/325/325 323/323/323 319/319/319
f 324/324/324 326/326/326 319/319/319
f 327/327/327 325/325/325 319/319/319
f 326/326/326 328/328/328 319/319/319
f 329/329/329 327/327/327 319/319/319
f 328/328/328 330/330/330 319/319/319
f 331/331/331 329/329/329 319/319/319
f 330/330/330 332/332/332 319/319/319
f 333/333/333 331/331/331 319/319/319
f 332/332/332 334/334/334 319/319/319
f 335/335/335 333/333/333 319/319/319
f 334/334/334 335/335/335 319/319/319
f 338/338/338 337/337/337 336/336/336
f 339/339/339 338/338/338 336/336/336
f 337/337/337 338/338/338 340/340/340
f 338/338/338 339/339/339 341/341/341
f 338/338/338 342/342/342 340/340/340
f 343/343/343 338/338/338 341/341/341
f 342/342/342 338/338/338 344/344/344
f 338/338/338 343/343/343 345/345/345
f 338/338/338 346/346/346 344/344/344
f 347/347/347 338/338/338 345/345/345
f 346/346/346 338/338/338 348/348/348
f 338/338/338 347/347/347 349/349/349
f 338/338/338 350/350/350 348/348/348
f 351/351/351 338/338/338 349/349/349
f 350/350/350 338/338/338 352/352/352
f 338/338/338 351/351/351 352/352/352
