mtllib material.mtl
usemtl material_0
v -0.00184150 -0.03864432 -0.00383761
v -0.00411104 -0.03867243 -0.00079182
v -0.00000002 -0.03908965 -0.00000000
v 0.00219953 -0.03871178 -0.00343268
v 0.00136975 -0.03867243 0.00395626
v 0.00411105 -0.03867243 0.00079182
v -0.00274126 -0.03867243 0.00316444
v -0.00318849 -0.03789886 0.00626334
v 0.00037045 -0.03789886 0.00701846
v 0.00459810 -0.03793604 0.00531171
v -0.00187323 -0.03636989 0.01004312
v -0.00664378 -0.03636989 0.00776102
v -0.00257229 -0.03416541 0.01325066
v -0.00589305 -0.03789885 0.00383009
v -0.00701848 -0.03789886 0.00037047
v -0.00989286 -0.03640557 0.00265076
v -0.00885306 -0.03416541 0.01018926
v -0.00821812 -0.03146193 0.01423440
v -0.00358894 -0.02972950 0.01769635
v -0.01353115 -0.02972950 0.01195629
v -0.00963504 -0.02821488 0.01668840
v -0.01349863 -0.03303750 0.00620799
v -0.01357660 -0.02373600 0.01769321
v -0.00705722 -0.02400494 0.02090682
v -0.00626352 -0.03789886 -0.00318836
v -0.00306647 -0.03793604 -0.00632081
v -0.00184150 -0.03864432 -0.00383761
v -0.00905250 -0.03647254 -0.00466042
v -0.01346485 -0.03416542 -0.00094487
v -0.01118854 -0.03416540 -0.00755076
v -0.01587635 -0.03146194 -0.00425405
v -0.01663047 -0.03111786 0.00218949
v -0.01819013 -0.02766943 0.00753454
v -0.01836793 -0.02400494 0.01222779
v -0.02050464 -0.02622905 -0.00269953
v -0.01985000 -0.02591142 -0.00669025
v -0.02039108 -0.01821619 0.01431114
v -0.01602055 -0.01971827 0.01821465
v -0.01711123 -0.01508019 0.01946720
v -0.02214848 -0.02176530 0.00747875
v -0.01942888 -0.02786953 0.00123523
v -0.02287764 -0.02247356 0.00205871
v -0.02420820 -0.01971828 -0.00155140
v -0.02246402 -0.01017856 0.01498352
v -0.01782069 -0.01017856 0.02028695
v -0.02323258 -0.01508018 0.01148972
v -0.02557664 -0.01017855 0.00865881
v -0.02541485 -0.01508019 0.00508519
v -0.02673277 -0.01178881 0.00118799
v -0.02298153 -0.01971828 -0.00776412
v -0.01769317 -0.02373601 -0.01357647
v -0.02039108 -0.01821619 -0.01431114
v -0.02323258 -0.01508019 -0.01148973
v -0.02541485 -0.01508019 -0.00508519
v -0.02557664 -0.01017855 -0.00865881
v -0.02705659 -0.00811576 -0.00356202
v -0.02747160 -0.00396387 0.00159983
v -0.02612159 -0.00396388 0.00865550
v 0.01829410 -0.00396388 -0.02055659
v 0.01373440 -0.00318351 -0.02378888
v 0.01498349 -0.01017857 -0.02246402
v 0.00865564 -0.00396389 -0.02612157
v 0.01039890 0.00354077 -0.02510523
v 0.00483513 0.00393112 -0.02673798
v 0.00356206 -0.00811578 -0.02705642
v 0.00865878 -0.01017857 -0.02557663
v 0.01148970 -0.01508020 -0.02323271
v 0.01711119 -0.01508020 -0.01946721
v 0.00508522 -0.01508020 -0.02541468
v -0.00166599 -0.01508019 -0.02586494
v -0.00174389 -0.01017856 -0.02694611
v -0.00155141 -0.01971828 -0.02420805
v 0.00459762 -0.02176530 -0.02292059
v -0.00132459 -0.02591140 -0.02090508
v 0.01037309 -0.02176532 -0.02094973
v 0.00498737 -0.02821489 -0.01861349
v 0.01544202 -0.02176531 -0.01755103
v 0.02039103 -0.01821619 -0.01431115
v 0.01744195 -0.02591141 -0.01159987
v 0.01198588 -0.02766944 -0.01562010
v 0.01021131 -0.03111786 -0.01330764
v 0.01423427 -0.03146193 -0.00821827
v 0.00317255 -0.03141321 -0.01626390
v -0.00425421 -0.03146193 -0.01587634
v -0.00177798 -0.03401500 -0.01350517
v 0.00208416 -0.03556175 -0.01141528
v 0.00755075 -0.03416541 -0.01118857
v -0.00389770 -0.03641307 -0.00941023
v 0.00684474 -0.03647254 -0.00753786
v -0.00306647 -0.03793604 -0.00632081
v 0.00145871 -0.03789886 -0.00687521
v 0.00470084 -0.03789886 -0.00522473
v 0.02028714 -0.01017856 -0.01782052
v 0.02323260 -0.01508019 -0.01148972
v 0.02214844 -0.02176531 -0.00747876
v 0.02541481 -0.01508020 -0.00508520
v 0.01861350 -0.02821488 -0.00498751
v 0.02287766 -0.02247357 -0.00205872
v 0.02420821 -0.01971827 0.00155141
v 0.02673273 -0.01178881 -0.00118798
v 0.02039273 -0.02654242 0.00186877
v 0.02541481 -0.01508020 0.00508519
v 0.02647944 -0.01017857 0.00528950
v 0.02747161 -0.00396389 0.00159982
v 0.02694981 -0.00396388 -0.00556483
v 0.02694129 0.00354078 -0.00354690
v 0.02557315 0.00393111 -0.00918170
v 0.02462734 -0.00781710 -0.01185774
v 0.01663042 -0.03111786 0.00218949
v 0.01985007 -0.02591141 0.00669025
v 0.01486123 -0.03124756 0.00737201
v 0.01469987 -0.03288282 -0.00301775
v 0.01350517 -0.03401500 0.00177798
v 0.01017009 -0.03647254 -0.00049012
v 0.01053252 -0.03440139 0.00808180
v 0.01162242 -0.03146193 0.01162228
v 0.00439776 -0.03416541 0.01276153
v 0.00339930 -0.03636989 0.00963409
v 0.01159250 -0.03419762 -0.00669300
v 0.00808065 -0.03641306 0.00620054
v 0.00668356 -0.03789886 -0.00217424
v 0.00687520 -0.03789885 0.00145871
v 0.00587698 0.03650816 -0.00855569
v 0.00954392 0.03657221 -0.00395316
v 0.00536685 0.03834343 -0.00486480
v 0.01121859 0.03400888 -0.00745196
v 0.00828468 0.03392432 -0.01079675
v 0.01451632 0.02966592 -0.00962349
v 0.01291738 0.03413582 -0.00346114
v 0.01651276 0.02966592 -0.00553843
v 0.00998105 0.03095961 -0.01300755
v 0.00454202 0.02979767 -0.01675124
v 0.01752735 0.02956030 -0.00031674
v 0.01323799 0.03409752 0.00257476
v 0.01553309 0.03133264 0.00416202
v 0.01743488 0.02752135 0.00722181
v 0.02120583 0.02241276 0.00426677
v 0.02158748 0.02241276 -0.00136703
v 0.02049806 0.02241277 -0.00690771
v 0.00828347 0.02774380 -0.01672285
v 0.01268065 0.02558350 -0.01553958
v 0.00960979 0.02241276 -0.01937896
v 0.00426692 0.02241277 -0.02120579
v 0.00825760 0.01207721 -0.02432914
v 0.00194135 0.01178783 -0.02570798
v 0.01366267 0.01513279 -0.02050037
v 0.01332175 0.00769465 -0.02307407
v 0.01623124 0.02241278 -0.01429808
v 0.01755630 0.00393113 -0.02073818
v 0.01886261 0.02199305 -0.01089033
v 0.01944086 0.01289010 -0.01637332
v 0.01724324 0.01022524 -0.01962251
v 0.02304241 0.01207723 -0.01136435
v 0.02519845 0.01207722 -0.00501337
v 0.02232540 0.00393112 -0.01548776
v 0.02664352 0.00769466 -0.00000000
v 0.02299128 -0.00396387 -0.01512137
v 0.02557665 -0.01017856 -0.00865881
v 0.02458515 0.01513279 0.00158197
v 0.02390017 0.01289012 0.00864964
v 0.02561521 0.01022524 0.00512188
v 0.01981762 0.02268138 0.00820873
v 0.01801180 0.02241279 0.01197770
v 0.01342026 0.02985761 0.01093033
v 0.01079687 0.03392432 0.00828470
v 0.02673786 0.00393114 0.00483511
v 0.02457548 0.00393114 0.01159050
v 0.02136302 0.01207724 0.01427314
v 0.01429797 0.02241276 0.01623135
v 0.02612160 -0.00396386 0.00865548
v 0.02420821 -0.01017856 0.01196273
v 0.02299128 -0.00396388 0.01512137
v 0.02073836 0.00393114 0.01755627
v 0.00962345 0.02966593 0.01451651
v 0.01694082 0.01207722 0.01931593
v 0.00960979 0.02241278 0.01937894
v 0.02323260 -0.01508019 0.01148972
v 0.02028714 -0.01017855 0.01782051
v 0.01942364 -0.00318352 0.01942346
v 0.01661320 -0.00811576 0.02165054
v 0.01654243 0.00354076 0.02155833
v 0.02298154 -0.01971827 0.00776412
v 0.01946734 -0.01508019 0.01711123
v 0.02018894 -0.01971828 0.01344757
v 0.01744195 -0.02591141 0.01159987
v 0.01599234 -0.01821619 0.01910112
v 0.01384549 -0.02591140 0.01571889
v 0.00737216 -0.03124755 0.01486141
v 0.00287774 -0.02992389 0.01768999
v 0.00942873 -0.02615798 0.01853098
v 0.00705717 -0.02400494 0.02090682
v -0.00000002 -0.02502633 0.02152136
v 0.00476702 -0.01971827 0.02378469
v 0.01076030 -0.01971827 0.02174047
v 0.01148970 -0.01508019 0.02323270
v 0.00508522 -0.01508018 0.02541468
v 0.01196261 -0.01017856 0.02420808
v 0.00528949 -0.01017856 0.02647931
v 0.01235019 -0.00396386 0.02459113
v 0.00556483 -0.00396385 0.02694962
v -0.00174395 -0.01017855 0.02694610
v -0.00159969 -0.00396385 0.02747159
v 0.00225012 0.00393113 0.02707826
v 0.01332175 0.00769466 0.02307405
v 0.00918185 0.00393111 0.02557329
v 0.01092245 0.01513280 0.02208234
v 0.00783329 0.01134081 0.02465081
v 0.00563736 0.02199305 0.02103846
v 0.00167949 0.01207724 0.02563733
v -0.00354675 0.00354075 0.02694130
v -0.00501322 0.01207722 0.02519854
v 0.00136715 0.02241277 0.02158752
v 0.00553830 0.02966592 0.01651255
v 0.00026728 0.03009098 0.01714512
v 0.00591331 0.03409752 0.01212036
v -0.00000002 0.03413582 0.01337295
v 0.00855549 0.03650817 0.00587711
v 0.00395332 0.03657221 0.00954375
v -0.00189389 0.03650817 0.01020548
v 0.00052009 0.03841590 0.00717634
v 0.00486475 0.03834344 0.00536683
v 0.00084850 0.03950513 0.00435579
v 0.00373061 0.03947486 0.00233575
v 0.00689623 0.03834344 0.00221532
v 0.00421198 0.03953787 -0.00137439
v 0.00708008 0.03834344 -0.00152960
v 0.01032112 0.03646014 0.00135878
v -0.00155141 -0.01971828 0.02420804
v -0.00655512 -0.01701758 0.02446396
v -0.00166599 -0.01508018 0.02586494
v -0.01076035 -0.01971828 0.02174047
v -0.01148975 -0.01508019 0.02323270
v -0.00697496 -0.01015574 0.02603098
v -0.01196260 -0.01017856 0.02420808
v -0.00865562 -0.00396385 0.02612156
v -0.00918183 0.00393112 0.02557329
v -0.01373439 -0.00318351 0.02378888
v -0.01829414 -0.00396386 0.02055658
v -0.01548757 0.00393113 0.02232543
v -0.02299132 -0.00396386 0.01512136
v -0.01117289 0.01178782 0.02323440
v -0.02073834 0.00393113 0.01755627
v -0.02457552 0.00393111 0.01159051
v -0.02673785 0.00393113 0.00483512
v -0.02519837 0.01207722 0.00501335
v -0.02173450 0.01022524 0.01449096
v -0.01724329 0.01022524 0.01962249
v -0.01850301 0.01513280 0.01626572
v -0.02301616 0.01289013 0.01078366
v -0.01366265 0.01513280 0.02050035
v -0.01886254 0.02199304 0.01089031
v -0.02049811 0.02241277 0.00690769
v -0.01623147 0.02241277 0.01429808
v -0.01505648 0.02979767 0.00863326
v -0.01701200 0.02956029 0.00423049
v -0.01212040 0.03409751 0.00591315
v -0.01197771 0.02241277 0.01801176
v -0.01230902 0.02979768 0.01223598
v -0.00690788 0.02241278 0.02049811
v -0.00828473 0.03392432 0.01079673
v -0.00674301 0.03650817 0.00789113
v -0.00872270 0.02979768 0.01500492
v -0.00321188 0.02558351 0.01979796
v -0.00469854 0.03274953 0.01408512
v -0.00392478 0.03834344 0.00608799
v -0.02158752 0.02241275 0.00136701
v -0.02574822 0.01166222 -0.00000002
v -0.02695542 0.00514731 -0.00000001
v -0.02673785 0.00393112 -0.00483499
v -0.02519837 0.01207722 -0.00501335
v -0.02653297 -0.00318350 -0.00710951
v -0.02510524 0.00354074 -0.01039893
v -0.02459099 -0.00396386 -0.01235038
v -0.02246402 -0.01017857 -0.01498352
v -0.02055673 -0.00396388 -0.01829414
v -0.02232544 0.00393113 -0.01548775
v -0.02304245 0.01207722 -0.01136435
v -0.01755628 0.00393111 -0.02073818
v -0.01539879 -0.00781710 -0.02258271
v -0.01235023 -0.00396387 -0.02459113
v -0.01931593 0.01207723 -0.01694081
v -0.02049811 0.02241277 -0.00690772
v -0.01801179 0.02241276 -0.01197772
v -0.02126685 0.02268138 -0.00279991
v -0.01743493 0.02752135 -0.00722183
v -0.01738350 0.02966593 -0.00107587
v -0.01345306 0.03409752 -0.00093926
v -0.01456798 0.03127222 -0.00712263
v -0.01400895 0.02774380 -0.01232935
v -0.01429795 0.02241277 -0.01623136
v -0.01553459 0.01247136 -0.02024505
v -0.00961763 0.03646014 0.00398367
v -0.01206250 0.00849495 -0.02366697
v -0.00644301 0.03834344 0.00331002
v -0.00371283 0.03953787 0.00241774
v -0.00723466 0.03834344 -0.00035505
v -0.01024169 0.03657221 -0.00134832
v -0.00000002 0.04012533 -0.00000000
v -0.00367977 0.03950513 -0.00248015
v -0.00544220 0.03841590 -0.00470675
v 0.00030796 0.03950513 -0.00442691
v -0.01158125 0.03413582 -0.00668650
v -0.00789129 0.03650816 -0.00674305
v -0.00984886 0.03274953 -0.01111155
v -0.00346244 0.03650816 -0.00978522
v -0.00152971 0.03834344 -0.00708012
v -0.00438916 0.03409751 -0.01275174
v -0.00863326 0.02979767 -0.01505646
v -0.00444210 0.02979767 -0.01677786
v -0.00690788 0.02241277 -0.02049813
v -0.01089047 0.02199305 -0.01886257
v -0.01092244 0.01513279 -0.02208236
v -0.00554167 0.01134082 -0.02526488
v -0.00158180 0.01513280 -0.02458525
v -0.00136720 0.02241274 -0.02158755
v -0.00918183 0.00393111 -0.02557329
v -0.00225011 0.00393113 -0.02707827
v -0.00556482 -0.00396387 -0.02694962
v -0.01711123 -0.01508020 -0.01946721
v -0.01782069 -0.01017856 -0.02028696
v -0.01148975 -0.01508019 -0.02323271
v -0.01269061 -0.02204173 -0.01947763
v -0.01602055 -0.01971827 -0.01821466
v -0.00806649 -0.01178884 -0.02551451
v -0.00174389 -0.01017856 -0.02694611
v -0.00166599 -0.01508019 -0.02586494
v -0.00776413 -0.01971827 -0.02298168
v -0.00155141 -0.01971828 -0.02420805
v -0.00669007 -0.02591141 -0.01984989
v -0.00132459 -0.02591140 -0.02090508
v -0.00425421 -0.03146193 -0.01587634
v -0.01562010 -0.02766943 -0.01198574
v -0.00997560 -0.02972951 -0.01505091
v -0.01330778 -0.03111786 -0.01021131
v -0.00669303 -0.03419762 -0.01159266
v -0.00177798 -0.03401500 -0.01350517
v -0.00389770 -0.03641307 -0.00941023
v 0.00221531 0.03834344 -0.00689642
v 0.00135881 0.03646014 -0.01032098
v -0.00152971 0.03834344 -0.00708012
v -0.00544220 0.03841590 -0.00470675
v -0.00367977 0.03950513 -0.00248015
v -0.00000002 0.04012533 -0.00000000
v -0.00346244 0.03650816 -0.00978522
v -0.00438916 0.03409751 -0.01275174
v 0.00257478 0.03409751 -0.01323782
v -0.00444210 0.02979767 -0.01677786
v 0.00005165 0.02979767 -0.01735600
v -0.00136720 0.02241274 -0.02158755
v -0.00690788 0.02241277 -0.02049813
v -0.00158180 0.01513280 -0.02458525
v -0.00554167 0.01134082 -0.02526488
v -0.00225011 0.00393113 -0.02707827
v -0.00000002 -0.00318348 -0.02746897
v -0.00556482 -0.00396387 -0.02694962
vn -0.07676645 -0.98373140 -0.16241740
vn -0.17686040 -0.98362390 -0.03470717
vn -0.00032007 -0.99999980 0.00060830
vn 0.09355223 -0.98450710 -0.14830270
vn 0.05487390 -0.98357220 0.17197250
vn 0.17597190 -0.98387310 0.03205608
vn -0.11761370 -0.98381850 0.13516000
vn -0.14963920 -0.94019900 0.30599640
vn 0.01945291 -0.94043270 0.33942310
vn 0.22175260 -0.94026010 0.25833480
vn -0.09102193 -0.86894080 0.48647380
vn -0.32413390 -0.86953410 0.37262280
vn -0.10994410 -0.79444780 0.59729820
vn -0.28975920 -0.93909540 0.18476860
vn -0.34928650 -0.93694190 0.01177672
vn -0.47930840 -0.86795540 0.13006470
vn -0.39542480 -0.80043950 0.45048400
vn -0.34194910 -0.72024850 0.60358340
vn -0.14569890 -0.66487030 0.73261130
vn -0.56494530 -0.66087410 0.49404670
vn -0.39005560 -0.62013500 0.68065350
vn -0.58487970 -0.76399180 0.27245630
vn -0.52790900 -0.51628780 0.67435810
vn -0.26545000 -0.52114890 0.81113510
vn -0.29519950 -0.94159460 -0.16203960
vn -0.14730740 -0.93960410 -0.30894100
vn -0.07676645 -0.98373140 -0.16241740
vn -0.43043810 -0.87463730 -0.22300820
vn -0.59757540 -0.80073030 -0.04164944
vn -0.49677680 -0.79519100 -0.34768380
vn -0.67944540 -0.70858280 -0.19043230
vn -0.70490630 -0.70392400 0.08716763
vn -0.73192880 -0.61283940 0.29783870
vn -0.70358420 -0.52152940 0.48267610
vn -0.81248410 -0.57405440 -0.10164180
vn -0.77887050 -0.56114800 -0.28013160
vn -0.75546620 -0.36944990 0.54108920
vn -0.60547390 -0.40692340 0.68396990
vn -0.63288310 -0.28269950 0.72079120
vn -0.84108560 -0.45973590 0.28498780
vn -0.78476150 -0.61711970 0.05755593
vn -0.87476200 -0.47741370 0.08287130
vn -0.91337310 -0.40238600 -0.06192927
vn -0.81795620 -0.15660560 0.55355430
vn -0.65468360 -0.16025970 0.73871930
vn -0.86263770 -0.28844140 0.41552120
vn -0.93768700 -0.15067820 0.31311230
vn -0.93590900 -0.29766500 0.18833450
vn -0.97769220 -0.20324660 0.05299786
vn -0.85800590 -0.41999940 -0.29567940
vn -0.67962600 -0.51653240 -0.52086720
vn -0.76186060 -0.36791340 -0.53311190
vn -0.86202870 -0.28435070 -0.41958460
vn -0.94045800 -0.28626400 -0.18328040
vn -0.93258330 -0.15853580 -0.32427590
vn -0.98651370 -0.10204980 -0.12797070
vn -0.99799640 -0.02147674 0.05951355
vn -0.94964720 -0.02991686 0.31188960
vn 0.67068070 -0.01958554 -0.74148760
vn 0.49850510 -0.00852673 -0.86684480
vn 0.54405740 -0.15301520 -0.82497760
vn 0.31475100 -0.02185526 -0.94892260
vn 0.38114100 0.10342010 -0.91871420
vn 0.17116350 0.11067870 -0.97900640
vn 0.12712760 -0.10878570 -0.98590280
vn 0.32907820 -0.15897530 -0.93082460
vn 0.42298230 -0.29876570 -0.85546770
vn 0.62804690 -0.29313060 -0.72085470
vn 0.18335790 -0.29475450 -0.93781650
vn -0.05933678 -0.29192540 -0.95459870
vn -0.06294956 -0.15967520 -0.98516050
vn -0.06526756 -0.40808690 -0.91060710
vn 0.17353340 -0.45586050 -0.87297030
vn -0.04853143 -0.57024250 -0.82004160
vn 0.39305970 -0.45862410 -0.79697430
vn 0.21961680 -0.61687340 -0.75580130
vn 0.58751540 -0.45785330 -0.66723010
vn 0.76346210 -0.36511710 -0.53274290
vn 0.68408130 -0.56893660 -0.45644700
vn 0.47445570 -0.61776430 -0.62710370
vn 0.43321430 -0.70416760 -0.56255950
vn 0.60433700 -0.70564960 -0.36991270
vn 0.13637260 -0.70996970 -0.69090210
vn -0.17402230 -0.70649540 -0.68598870
vn -0.07700125 -0.78962130 -0.60874380
vn 0.09541477 -0.84726040 -0.52253780
vn 0.34262540 -0.78772340 -0.51195660
vn -0.18963920 -0.87502070 -0.44539390
vn 0.33225780 -0.87616440 -0.34920000
vn -0.14730740 -0.93960410 -0.30894100
vn 0.06091259 -0.93546490 -0.34813090
vn 0.22718300 -0.94145760 -0.24908920
vn 0.74710110 -0.16370680 -0.64423590
vn 0.85934820 -0.28223220 -0.42645680
vn 0.83887670 -0.45893140 -0.29269080
vn 0.93590900 -0.29766510 -0.18833430
vn 0.75563980 -0.62521170 -0.19524050
vn 0.87567620 -0.47636050 -0.07919440
vn 0.91301570 -0.40316740 0.06211688
vn 0.97860160 -0.20061430 -0.04574816
vn 0.80911240 -0.58418640 0.06374592
vn 0.93933030 -0.28561360 0.18995590
vn 0.96744350 -0.15631540 0.19904390
vn 0.99835360 -0.02060352 0.05353119
vn 0.97898810 -0.02526010 -0.20234720
vn 0.98697290 0.10009920 -0.12595560
vn 0.93243900 0.10957250 -0.34431280
vn 0.89155070 -0.10012820 -0.44171430
vn 0.70505120 -0.70289760 0.09400904
vn 0.78413810 -0.56079230 0.26578070
vn 0.63855430 -0.70463620 0.30941270
vn 0.64951230 -0.74950580 -0.12796400
vn 0.59318420 -0.79839120 0.10345960
vn 0.48785730 -0.87261820 -0.02307889
vn 0.47112840 -0.80558380 0.35926700
vn 0.48922460 -0.70827390 0.50892760
vn 0.19670000 -0.79888450 0.56841240
vn 0.16762630 -0.87016210 0.46337820
vn 0.50837610 -0.80687270 -0.30084920
vn 0.38846880 -0.87430220 0.29101140
vn 0.32912520 -0.93635620 -0.12212080
vn 0.34176950 -0.93574720 0.08700991
vn 0.31725090 0.83256100 -0.45408590
vn 0.51018950 0.83329480 -0.21290000
vn 0.31217880 0.90463100 -0.29015030
vn 0.55249260 0.74436210 -0.37506940
vn 0.40173620 0.74618650 -0.53086130
vn 0.66152670 0.60651310 -0.44104910
vn 0.64915060 0.74372640 -0.15960730
vn 0.75863650 0.60133810 -0.25072510
vn 0.45851240 0.65271270 -0.60310250
vn 0.21133880 0.60881650 -0.76464270
vn 0.80135230 0.59802430 -0.01419405
vn 0.64700810 0.75165460 0.12804640
vn 0.73003400 0.64872270 0.21496320
vn 0.77051640 0.55697520 0.30997280
vn 0.87614080 0.45163260 0.16853840
vn 0.88901370 0.45364240 -0.06215550
vn 0.84671780 0.45382110 -0.27769690
vn 0.36206060 0.55506140 -0.74887840
vn 0.55462630 0.50406680 -0.66204720
vn 0.39123650 0.44213340 -0.80712570
vn 0.17698980 0.44792050 -0.87638000
vn 0.30770980 0.28505170 -0.90777770
vn 0.07476882 0.27074680 -0.95974260
vn 0.52019370 0.34939550 -0.77930820
vn 0.48924850 0.18384610 -0.85254700
vn 0.68089820 0.43572320 -0.58866190
vn 0.64957230 0.10662720 -0.75278590
vn 0.77887830 0.44176950 -0.44518340
vn 0.72723060 0.30309820 -0.61584660
vn 0.64551480 0.23731030 -0.72594390
vn 0.85930460 0.28181870 -0.42681810
vn 0.93974030 0.28467280 -0.18933930
vn 0.81569930 0.11379980 -0.56717210
vn 0.98306610 0.18323110 -0.00275132
vn 0.83383420 -0.01260054 -0.55187120
vn 0.94114990 -0.16183530 -0.29672590
vn 0.93692390 0.34451220 0.05903545
vn 0.89529660 0.30076610 0.32860860
vn 0.95144400 0.23731160 0.19605470
vn 0.82998220 0.43659580 0.34715060
vn 0.74132870 0.43928420 0.50740640
vn 0.60894600 0.62038160 0.49427870
vn 0.52665250 0.74502620 0.40935720
vn 0.97702460 0.10721070 0.18419790
vn 0.89826620 0.11767550 0.42340330
vn 0.79627150 0.28452640 0.53385050
vn 0.59456990 0.44471510 0.66986200
vn 0.94901620 -0.02083657 0.31453800
vn 0.88507740 -0.16011100 0.43703830
vn 0.83860650 -0.02185537 0.54429910
vn 0.76152890 0.11837750 0.63722880
vn 0.44778270 0.60512510 0.65826620
vn 0.63333290 0.28909120 0.71785490
vn 0.40314390 0.44824460 0.79784200
vn 0.86021880 -0.28134970 0.42528360
vn 0.74248240 -0.16566490 0.64905700
vn 0.70127710 -0.00451055 0.71287450
vn 0.60415200 -0.11811490 0.78806680
vn 0.60306500 0.09633930 0.79185310
vn 0.85968050 -0.42095970 0.28938260
vn 0.72161050 -0.28005510 0.63312510
vn 0.75228890 -0.42079510 0.50694450
vn 0.68692380 -0.56051450 0.46255710
vn 0.59436580 -0.37224070 0.71285780
vn 0.54754890 -0.55957260 0.62214860
vn 0.32946480 -0.70780410 0.62487300
vn 0.11506970 -0.67272890 0.73088630
vn 0.37976630 -0.57785870 0.72239670
vn 0.25198200 -0.52056160 0.81579450
vn -0.00560388 -0.54030640 0.84144970
vn 0.17648470 -0.40904140 0.89528670
vn 0.40554260 -0.41366510 0.81511730
vn 0.42644360 -0.28149290 0.85959740
vn 0.18799860 -0.28573630 0.93968670
vn 0.43177210 -0.16724020 0.88634280
vn 0.19387680 -0.15456470 0.96877320
vn 0.44594630 -0.01615077 0.89491400
vn 0.20201270 -0.02648234 0.97902470
vn -0.05790242 -0.15409610 0.98635780
vn -0.05667478 -0.02496857 0.99808050
vn 0.08273612 0.12024380 0.98929080
vn 0.49089820 0.18399170 0.85156680
vn 0.32769950 0.11099930 0.93823890
vn 0.42617560 0.34930690 0.83448130
vn 0.28091770 0.26777400 0.92161950
vn 0.22570510 0.44036080 0.86898760
vn 0.05803547 0.28431660 0.95697220
vn -0.13091760 0.11149660 0.98510350
vn -0.17925660 0.28464180 0.94172510
vn 0.05629252 0.43922240 0.89661300
vn 0.24211420 0.60276390 0.76030020
vn 0.01856660 0.62037040 0.78408920
vn 0.29769750 0.74621980 0.59542610
vn 0.01813212 0.75244740 0.65840290
vn 0.45427240 0.83075570 0.32168540
vn 0.21445560 0.83547060 0.50596230
vn -0.10824870 0.83323350 0.54222140
vn 0.02415951 0.90678420 0.42090230
vn 0.28430850 0.90167180 0.32581690
vn 0.04081149 0.96568660 0.25648360
vn 0.22286740 0.96488570 0.13901670
vn 0.40895710 0.90343680 0.12866980
vn 0.24400420 0.96552190 -0.09071600
vn 0.42849160 0.89965480 -0.08376304
vn 0.54656470 0.83510510 0.06218122
vn -0.05547034 -0.41676830 0.90731870
vn -0.23862280 -0.33992270 0.90967670
vn -0.04880964 -0.28167140 0.95826860
vn -0.41096200 -0.41369680 0.81238250
vn -0.43685950 -0.28166710 0.85429350
vn -0.25045570 -0.16049210 0.95473260
vn -0.44799970 -0.15751460 0.88004860
vn -0.30492660 -0.02267003 0.95210600
vn -0.33959310 0.11476050 0.93354520
vn -0.50061120 -0.01164028 0.86559400
vn -0.66790780 -0.02790859 0.74372050
vn -0.56365710 0.11353730 0.81816860
vn -0.83512370 -0.02648245 0.54942430
vn -0.41299920 0.27133740 0.86937200
vn -0.75830060 0.10852270 0.64280870
vn -0.90082410 0.11592730 0.41842190
vn -0.97466460 0.11823090 0.18986930
vn -0.94052330 0.27825400 0.19491210
vn -0.80498740 0.23643260 0.54414610
vn -0.64105360 0.23520080 0.73056890
vn -0.70547410 0.34963500 0.61649140
vn -0.86729530 0.30044050 0.39690610
vn -0.52281350 0.35493990 0.77503780
vn -0.77986110 0.44390650 0.44132020
vn -0.84887990 0.45064140 0.27627040
vn -0.66990820 0.44983340 0.59065490
vn -0.68972990 0.60345960 0.40013640
vn -0.77471800 0.60306160 0.19007550
vn -0.59441150 0.75266210 0.28315160
vn -0.49428340 0.45070510 0.74333630
vn -0.56644360 0.60708340 0.55730730
vn -0.29020290 0.44095790 0.84931640
vn -0.40720950 0.75015900 0.52100090
vn -0.35812140 0.83034550 0.42693730
vn -0.38748460 0.59895000 0.70079570
vn -0.14206100 0.50791030 0.84961520
vn -0.22041060 0.70329790 0.67586330
vn -0.21741820 0.90571260 0.36388720
vn -0.89378580 0.44465090 0.05858710
vn -0.96121340 0.27580580 0.00009186
vn -0.99105560 0.13342630 -0.00247423
vn -0.97736470 0.11298350 -0.17886590
vn -0.93989570 0.28311580 -0.19089630
vn -0.96811870 -0.00346299 -0.25046820
vn -0.91847560 0.11511170 -0.37835390
vn -0.89073740 -0.02371810 -0.45389910
vn -0.81685330 -0.16215920 -0.55358390
vn -0.74397960 -0.01926514 -0.66792440
vn -0.81308760 0.11578200 -0.57051120
vn -0.86338150 0.27952060 -0.42004830
vn -0.63781030 0.10627690 -0.76282580
vn -0.55295390 -0.10027420 -0.82715590
vn -0.44637100 -0.01652926 -0.89469530
vn -0.72635820 0.28060960 -0.62742500
vn -0.85026960 0.44216390 -0.28553930
vn -0.74731330 0.44021730 -0.49772630
vn -0.88459380 0.45148870 -0.11684020
vn -0.77560140 0.54779120 -0.31363540
vn -0.79513560 0.60383010 -0.05611197
vn -0.66628270 0.74488370 -0.03486466
vn -0.67843430 0.65724580 -0.32826070
vn -0.61916600 0.55941840 -0.55107580
vn -0.59116140 0.44671660 -0.67154470
vn -0.58448490 0.29216160 -0.75698010
vn -0.51562780 0.83355180 0.19829150
vn -0.44933320 0.19528770 -0.87175830
vn -0.39696820 0.89726420 0.19321810
vn -0.21299750 0.96613780 0.14563590
vn -0.42131210 0.90662600 -0.02292136
vn -0.54235510 0.83731030 -0.06900995
vn -0.00124827 0.99999900 -0.00054429
vn -0.21601850 0.96572610 -0.14390610
vn -0.32022250 0.90484950 -0.28054400
vn 0.01821976 0.96570510 -0.25900160
vn -0.56690760 0.76036260 -0.31696120
vn -0.41697130 0.83267650 -0.36439640
vn -0.46918180 0.70851840 -0.52713380
vn -0.18986970 0.83168780 -0.52177090
vn -0.10081050 0.90450200 -0.41438330
vn -0.20619050 0.75412020 -0.62352880
vn -0.40876960 0.59905080 -0.68850970
vn -0.20130040 0.60641170 -0.76924840
vn -0.26793210 0.45445310 -0.84952040
vn -0.44527060 0.44923590 -0.77454580
vn -0.41010780 0.34868380 -0.84275210
vn -0.20635930 0.26554070 -0.94175580
vn -0.06550787 0.35615450 -0.93212800
vn -0.05145358 0.45237710 -0.89034120
vn -0.33066480 0.10365260 -0.93803890
vn -0.08117559 0.11703590 -0.98980460
vn -0.22634390 -0.02109091 -0.97381910
vn -0.63362770 -0.28334660 -0.71988240
vn -0.66091060 -0.17206180 -0.73047380
vn -0.43923710 -0.28296470 -0.85264400
vn -0.47994330 -0.47726680 -0.73611880
vn -0.60358450 -0.40638720 -0.68595570
vn -0.29398940 -0.19824580 -0.93502340
vn -0.06294956 -0.15967520 -0.98516050
vn -0.05933678 -0.29192540 -0.95459870
vn -0.27953260 -0.40802690 -0.86912350
vn -0.06526756 -0.40808690 -0.91060710
vn -0.26479520 -0.56575600 -0.78089930
vn -0.04853143 -0.57024250 -0.82004160
vn -0.17402230 -0.70649540 -0.68598870
vn -0.62456380 -0.61373690 -0.48295650
vn -0.42122560 -0.66142640 -0.62055150
vn -0.56527450 -0.70473660 -0.42873180
vn -0.31888650 -0.79600790 -0.51447310
vn -0.07700125 -0.78962130 -0.60874380
vn -0.18963920 -0.87502070 -0.44539390
vn 0.13708100 0.90637170 -0.39962380
vn 0.06257640 0.83219280 -0.55094390
vn -0.10081050 0.90450200 -0.41438330
vn -0.32022250 0.90484950 -0.28054400
vn -0.21601850 0.96572610 -0.14390610
vn -0.00124827 0.99999900 -0.00054429
vn -0.18986970 0.83168780 -0.52177090
vn -0.20619050 0.75412020 -0.62352880
vn 0.12247370 0.74931560 -0.65078900
vn -0.20130040 0.60641170 -0.76924840
vn -0.01183961 0.60654250 -0.79496290
vn -0.05145358 0.45237710 -0.89034120
vn -0.26793210 0.45445310 -0.84952040
vn -0.06550787 0.35615450 -0.93212800
vn -0.20635930 0.26554070 -0.94175580
vn -0.08117559 0.11703590 -0.98980460
vn 0.01034584 -0.00177527 -0.99994490
vn -0.22634390 -0.02109091 -0.97381910
vt 1.06518300 0.16688200
vt 0.26284090 0.16664610
vt 0.58581290 0.16314450
vt 0.86036520 0.16631580
vt 0.56056780 0.16664610
vt 0.69052990 0.16664610
vt 0.42677380 0.16664610
vt 0.44682280 0.17313860
vt 0.51981590 0.17313860
vt 0.60939670 0.17282650
vt 0.48244780 0.18597080
vt 0.40502140 0.18597080
vt 0.47868710 0.20447260
vt 0.36953780 0.17313860
vt 0.28542040 0.17313860
vt 0.31090370 0.18567140
vt 0.39973900 0.20447260
vt 0.42686070 0.22716240
vt 0.47522250 0.24170230
vt 0.37586610 0.24170230
vt 0.42541220 0.25441430
vt 0.33201360 0.21393900
vt 0.40396200 0.29200450
vt 0.45481240 0.28974740
vt 0.19271750 0.17313860
vt 0.06890237 0.17282650
vt 0.06518257 0.16688200
vt 0.18583790 0.18510930
vt 0.25159410 0.20447260
vt 0.16234740 0.20447270
vt 0.21724560 0.22716230
vt 0.28204140 0.23005010
vt 0.32258520 0.25899210
vt 0.35246000 0.28974740
vt 0.23700460 0.27108090
vt 0.20472900 0.27374670
vt 0.35533570 0.33833120
vt 0.39287990 0.32572450
vt 0.39244550 0.36465110
vt 0.31024280 0.30854420
vt 0.26946400 0.25731270
vt 0.27227760 0.30259990
vt 0.24677900 0.32572450
vt 0.35096830 0.40578940
vt 0.39220940 0.40578950
vt 0.33078250 0.36465110
vt 0.30923210 0.40578950
vt 0.28878660 0.36465110
vt 0.26376740 0.39227490
vt 0.20369430 0.32572450
vt 0.14931240 0.29200450
vt 0.15602820 0.33833120
vt 0.18124870 0.36465110
vt 0.22445580 0.36465110
vt 0.20300820 0.40578950
vt 0.23505760 0.42310210
vt 0.26581310 0.45794810
vt 0.30805810 0.45794810
vt 0.87729070 0.45794810
vt 0.91022010 0.46449750
vt 0.89961450 0.40578940
vt 0.94345490 0.45794790
vt 0.93148050 0.52093300
vt 0.96655830 0.52420920
vt 0.97449150 0.42310200
vt 0.94228560 0.40578940
vt 0.92030270 0.36465100
vt 0.87784540 0.36465100
vt 0.96324400 0.36465100
vt 1.00659000 0.36465110
vt 1.00679400 0.40578950
vt 1.00627400 0.32572450
vt 0.96256050 0.30854420
vt 1.00549700 0.27374680
vt 0.91948490 0.30854410
vt 0.95059850 0.25441410
vt 0.87694980 0.30854420
vt 0.83942980 0.33833120
vt 0.83392550 0.27374680
vt 0.88624730 0.25899200
vt 0.88453820 0.23005010
vt 0.82129290 0.22716240
vt 0.96087000 0.22757130
vt 1.03811200 0.22716240
vt 1.01452600 0.20573500
vt 0.95901060 0.19275340
vt 0.89168430 0.20447260
vt 1.05927300 0.18560850
vt 0.86339880 0.18510930
vt 1.06890200 0.17282650
vt 0.94475570 0.17313850
vt 0.85518160 0.17313860
vt 0.85743090 0.40578940
vt 0.81550120 0.36465110
vt 0.79363240 0.30854420
vt 0.77433790 0.36465100
vt 0.78194490 0.25441430
vt 0.75668910 0.30259990
vt 0.73327550 0.32572450
vt 0.75069010 0.39227490
vt 0.72790750 0.26845090
vt 0.71308410 0.36465100
vt 0.71334690 0.40578940
vt 0.73493520 0.45794790
vt 0.77570640 0.45794810
vt 0.76425810 0.52093320
vt 0.79776570 0.52420910
vt 0.81422380 0.42560880
vt 0.72031160 0.23005010
vt 0.69238520 0.27374680
vt 0.67063640 0.22896160
vt 0.77009430 0.21523710
vt 0.71837540 0.20573500
vt 0.74145790 0.18510930
vt 0.64077960 0.20249210
vt 0.62227030 0.22716240
vt 0.55561260 0.20447260
vt 0.55745200 0.18597080
vt 0.81856320 0.20420230
vt 0.63939870 0.18560850
vt 0.77378670 0.17313860
vt 0.69832710 0.17313860
vt 0.88597180 0.79762170
vt 0.79389050 0.79815920
vt 0.83963570 0.81302490
vt 0.82856510 0.77664580
vt 0.88182790 0.77593610
vt 0.83176700 0.74019620
vt 0.77777490 0.77771120
vt 0.79055510 0.74019620
vt 0.88427050 0.75105390
vt 0.94920180 0.74130190
vt 0.74340360 0.73930970
vt 0.70912220 0.77738970
vt 0.70020580 0.75418470
vt 0.68155220 0.72219730
vt 0.71187070 0.67932190
vt 0.75212790 0.67932190
vt 0.79288420 0.67932200
vt 0.91753370 0.72406430
vt 0.88157330 0.70593330
vt 0.91877450 0.67932190
vt 0.96195950 0.67932190
vt 0.94185370 0.59257770
vt 0.98339210 0.59014900
vt 0.89901020 0.61822250
vt 0.91001530 0.55579580
vt 0.85582770 0.67932210
vt 0.88118570 0.52420930
vt 0.82424030 0.67579940
vt 0.85364100 0.59940010
vt 0.87792460 0.57703450
vt 0.81526180 0.59257790
vt 0.77410610 0.59257780
vt 0.83922610 0.52420910
vt 0.74376590 0.55579580
vt 0.83538010 0.45794810
vt 0.79484670 0.40578950
vt 0.73333310 0.61822250
vt 0.68998780 0.59940030
vt 0.71314530 0.57703450
vt 0.68223690 0.68157640
vt 0.65285840 0.67932210
vt 0.63756390 0.74180500
vt 0.64089340 0.77593610
vt 0.71619610 0.52420930
vt 0.67595090 0.52420930
vt 0.65309700 0.59257790
vt 0.61336710 0.67932190
vt 0.69453070 0.45794820
vt 0.67312930 0.40578940
vt 0.65440610 0.45794800
vt 0.63594380 0.52420930
vt 0.59269400 0.74019630
vt 0.61327620 0.59257770
vt 0.57396700 0.67932210
vt 0.67292690 0.36465110
vt 0.63314580 0.40578960
vt 0.62332650 0.46449740
vt 0.60338090 0.42310210
vt 0.60337750 0.52093300
vt 0.69304820 0.32572450
vt 0.63301170 0.36465100
vt 0.65313200 0.32572450
vt 0.65273540 0.27374680
vt 0.60975770 0.33833120
vt 0.61331250 0.27374680
vt 0.57418070 0.22896160
vt 0.52952440 0.24007090
vt 0.57554220 0.27167740
vt 0.55363720 0.28974740
vt 0.50453200 0.28117510
vt 0.53411330 0.32572450
vt 0.57378170 0.32572450
vt 0.57369570 0.36465110
vt 0.53390410 0.36465110
vt 0.57362550 0.40578950
vt 0.53376110 0.40578940
vt 0.57459900 0.45794820
vt 0.53470490 0.45794820
vt 0.49375550 0.40578950
vt 0.49467400 0.45794830
vt 0.51630610 0.52420930
vt 0.58345940 0.55579580
vt 0.55622990 0.52420910
vt 0.57373380 0.61822260
vt 0.55066820 0.58639720
vt 0.54405140 0.67579930
vt 0.51381020 0.59257790
vt 0.48356760 0.52093290
vt 0.47377000 0.59257780
vt 0.51408590 0.67932190
vt 0.55380080 0.74019620
vt 0.50794710 0.74376370
vt 0.57340570 0.77738970
vt 0.50707670 0.77771120
vt 0.64703010 0.79762180
vt 0.56502530 0.79815940
vt 0.48241050 0.79762180
vt 0.52227860 0.81363310
vt 0.61261210 0.81302490
vt 0.54264950 0.82277460
vt 0.64463960 0.82252070
vt 0.68456160 0.81302490
vt 0.75991850 0.82304950
vt 0.75943650 0.81302490
vt 0.71528690 0.79721870
vt 0.49428860 0.32572450
vt 0.46379600 0.34839090
vt 0.49396440 0.36465110
vt 0.43356900 0.32572450
vt 0.43320010 0.36465110
vt 0.46347880 0.40598100
vt 0.43300340 0.40578950
vt 0.45440210 0.45794820
vt 0.45064910 0.52420920
vt 0.42286670 0.46449750
vt 0.39106960 0.45794820
vt 0.41002660 0.52420930
vt 0.34980670 0.45794820
vt 0.43494270 0.59014890
vt 0.36898240 0.52420930
vt 0.32746400 0.52420900
vt 0.28544470 0.52420930
vt 0.28867660 0.59257780
vt 0.35118430 0.57703450
vt 0.39241030 0.57703450
vt 0.37264690 0.61822260
vt 0.32756480 0.59940030
vt 0.41358330 0.61822260
vt 0.34247450 0.67579930
vt 0.31083080 0.67932190
vt 0.37388460 0.67932190
vt 0.34432460 0.74130200
vt 0.29986950 0.73930970
vt 0.33701880 0.77738960
vt 0.41470550 0.67932200
vt 0.38545350 0.74130200
vt 0.45501670 0.67932210
vt 0.40895640 0.77593610
vt 0.40489010 0.79762180
vt 0.42588440 0.74130200
vt 0.48051080 0.70593340
vt 0.45838940 0.76607630
vt 0.43158380 0.81302490
vt 0.26846530 0.67932180
vt 0.25680730 0.58909480
vt 0.25649620 0.53441640
vt 0.22722390 0.52420910
vt 0.22468820 0.59257780
vt 0.21355530 0.46449760
vt 0.19204540 0.52093280
vt 0.17996980 0.45794820
vt 0.15969210 0.40578940
vt 0.13653810 0.45794800
vt 0.15663780 0.52420930
vt 0.18146970 0.59257780
vt 0.11306890 0.52420910
vt 0.09571660 0.42560870
vt 0.07353354 0.45794810
vt 0.13791530 0.59257790
vt 0.20452300 0.67932190
vt 0.16078880 0.67932190
vt 0.23671390 0.68157640
vt 0.19414750 0.72219720
vt 0.24997940 0.74019630
vt 0.25166510 0.77738970
vt 0.18478520 0.75367750
vt 0.13862220 0.72406420
vt 0.11672400 0.67932190
vt 0.10512570 0.59588570
vt 0.33165280 0.79721870
vt 0.07450348 0.56251250
vt 0.35297100 0.81302490
vt 0.38514690 0.82304950
vt 0.26725510 0.81302490
vt 0.24543680 0.79815940
vt 0.58581330 0.82798000
vt 0.18094800 0.82277460
vt 0.14687980 0.81363310
vt 0.95613110 0.82277460
vt 0.17455140 0.77771120
vt 0.14436910 0.79762180
vt 0.11814080 0.76607630
vt 0.04985178 0.79762170
vt 0.02338105 0.81302490
vt 0.04943478 0.77738960
vt 0.08264804 0.74130200
vt 0.03780496 0.74130190
vt 0.04967976 0.67932200
vt 0.08320028 0.67579940
vt 0.07244444 0.61822250
vt 0.03182322 0.58639730
vt 0.00637865 0.61822270
vt 0.00564504 0.67932180
vt 0.05339736 0.52420910
vt 0.00984919 0.52420930
vt 0.02993941 0.45794810
vt 0.11623640 0.36465100
vt 0.11612370 0.40578950
vt 0.07246995 0.36465100
vt 0.09226859 0.30622420
vt 0.11639490 0.32572450
vt 0.04695451 0.39227470
vt 0.00679409 0.40578950
vt 0.00659013 0.36465110
vt 0.05004197 0.32572450
vt 0.00627351 0.32572450
vt 0.04961300 0.27374680
vt 0.00549710 0.27374680
vt 0.03811228 0.22716240
vt 0.14980080 0.25899210
vt 0.09371805 0.24170230
vt 0.15053900 0.23005010
vt 0.08309549 0.20420230
vt 0.01452625 0.20573500
vt 0.05927336 0.18560850
vt 0.92744420 0.81302490
vt 0.96612040 0.79721870
vt 1.02338100 0.81302490
vt 1.14688000 0.81363310
vt 1.18094800 0.82277460
vt 1.58581300 0.82798000
vt 1.04985200 0.79762170
vt 1.04943500 0.77738960
vt 0.95888380 0.77738960
vt 1.03780500 0.74130190
vt 0.99324740 0.74130190
vt 1.00564500 0.67932180
vt 1.04968000 0.67932200
vt 1.00637900 0.61822270
vt 1.03182300 0.58639730
vt 1.00984900 0.52420930
vt 0.99615030 0.46449770
vt 1.02993900 0.45794810
f 3/3/3 2/2/2 1/1/1
f 3/3/3 1/1/1 4/4/4
f 3/3/3 6/6/6 5/5/5
f 3/3/3 5/5/5 7/7/7
f 3/3/3 7/7/7 2/2/2
f 7/7/7 5/5/5 8/8/8
f 5/5/5 9/9/9 8/8/8
f 10/10/10 9/9/9 5/5/5
f 8/8/8 9/9/9 11/11/11
f 8/8/8 11/11/11 12/12/12
f 11/11/11 13/13/13 12/12/12
f 8/8/8 14/14/14 7/7/7
f 14/14/14 8/8/8 12/12/12
f 7/7/7 14/14/14 15/15/15
f 2/2/2 7/7/7 15/15/15
f 14/14/14 12/12/12 16/16/16
f 15/15/15 14/14/14 16/16/16
f 13/13/13 17/17/17 12/12/12
f 12/12/12 17/17/17 16/16/16
f 17/17/17 13/13/13 18/18/18
f 13/13/13 19/19/19 18/18/18
f 20/20/20 17/17/17 18/18/18
f 20/20/20 18/18/18 21/21/21
f 17/17/17 22/22/22 16/16/16
f 22/22/22 17/17/17 20/20/20
f 20/20/20 21/21/21 23/23/23
f 23/23/23 21/21/21 24/24/24
f 15/15/15 25/25/25 2/2/2
f 2/2/2 25/25/25 26/26/26
f 27/27/27 2/2/2 26/26/26
f 25/25/25 15/15/15 28/28/28
f 16/16/16 28/28/28 15/15/15
f 29/29/29 28/28/28 16/16/16
f 22/22/22 29/29/29 16/16/16
f 29/29/29 30/30/30 28/28/28
f 30/30/30 29/29/29 31/31/31
f 29/29/29 22/22/22 32/32/32
f 29/29/29 32/32/32 31/31/31
f 33/33/33 22/22/22 20/20/20
f 32/32/32 22/22/22 33/33/33
f 20/20/20 23/23/23 34/34/34
f 33/33/33 20/20/20 34/34/34
f 31/31/31 32/32/32 35/35/35
f 36/36/36 31/31/31 35/35/35
f 34/34/34 23/23/23 37/37/37
f 23/23/23 38/38/38 37/37/37
f 38/38/38 39/39/39 37/37/37
f 33/33/33 34/34/34 40/40/40
f 37/37/37 40/40/40 34/34/34
f 33/33/33 41/41/41 32/32/32
f 32/32/32 41/41/41 35/35/35
f 42/42/42 41/41/41 33/33/33
f 41/41/41 42/42/42 35/35/35
f 40/40/40 42/42/42 33/33/33
f 35/35/35 43/43/43 36/36/36
f 43/43/43 35/35/35 42/42/42
f 37/37/37 39/39/39 44/44/44
f 39/39/39 45/45/45 44/44/44
f 46/46/46 37/37/37 44/44/44
f 40/40/40 37/37/37 46/46/46
f 44/44/44 47/47/47 46/46/46
f 42/42/42 40/40/40 48/48/48
f 48/48/48 40/40/40 46/46/46
f 42/42/42 48/48/48 43/43/43
f 48/48/48 46/46/46 47/47/47
f 47/47/47 49/49/49 48/48/48
f 48/48/48 49/49/49 43/43/43
f 43/43/43 50/50/50 36/36/36
f 36/36/36 50/50/50 51/51/51
f 50/50/50 52/52/52 51/51/51
f 52/52/52 50/50/50 53/53/53
f 50/50/50 43/43/43 54/54/54
f 50/50/50 54/54/54 53/53/53
f 43/43/43 49/49/49 54/54/54
f 55/55/55 53/53/53 54/54/54
f 55/55/55 54/54/54 56/56/56
f 56/56/56 54/54/54 49/49/49
f 49/49/49 57/57/57 56/56/56
f 57/57/57 49/49/49 47/47/47
f 58/58/58 57/57/57 47/47/47
f 61/61/61 60/60/60 59/59/59
f 62/62/62 60/60/60 61/61/61
f 63/63/63 60/60/60 62/62/62
f 62/62/62 64/64/64 63/63/63
f 64/64/64 62/62/62 65/65/65
f 66/66/66 62/62/62 61/61/61
f 62/62/62 66/66/66 65/65/65
f 61/61/61 67/67/67 66/66/66
f 61/61/61 68/68/68 67/67/67
f 66/66/66 69/69/69 65/65/65
f 66/66/66 67/67/67 69/69/69
f 69/69/69 70/70/70 65/65/65
f 70/70/70 71/71/71 65/65/65
f 70/70/70 69/69/69 72/72/72
f 69/69/69 73/73/73 72/72/72
f 69/69/69 67/67/67 73/73/73
f 72/72/72 73/73/73 74/74/74
f 67/67/67 68/68/68 75/75/75
f 67/67/67 75/75/75 73/73/73
f 76/76/76 74/74/74 73/73/73
f 76/76/76 73/73/73 75/75/75
f 68/68/68 77/77/77 75/75/75
f 77/77/77 68/68/68 78/78/78
f 78/78/78 79/79/79 77/77/77
f 80/80/80 75/75/75 77/77/77
f 80/80/80 77/77/77 79/79/79
f 80/80/80 76/76/76 75/75/75
f 81/81/81 80/80/80 79/79/79
f 76/76/76 80/80/80 81/81/81
f 82/82/82 81/81/81 79/79/79
f 83/83/83 76/76/76 81/81/81
f 74/74/74 76/76/76 83/83/83
f 83/83/83 84/84/84 74/74/74
f 83/83/83 85/85/85 84/84/84
f 86/86/86 85/85/85 83/83/83
f 87/87/87 86/86/86 83/83/83
f 86/86/86 88/88/88 85/85/85
f 87/87/87 89/89/89 86/86/86
f 88/88/88 86/86/86 90/90/90
f 86/86/86 89/89/89 91/91/91
f 86/86/86 91/91/91 90/90/90
f 92/92/92 91/91/91 89/89/89
f 1/1/1 90/90/90 91/91/91
f 91/91/91 92/92/92 4/4/4
f 4/4/4 1/1/1 91/91/91
f 93/93/93 61/61/61 59/59/59
f 93/93/93 68/68/68 61/61/61
f 93/93/93 78/78/78 68/68/68
f 78/78/78 93/93/93 94/94/94
f 95/95/95 78/78/78 94/94/94
f 78/78/78 95/95/95 79/79/79
f 96/96/96 95/95/95 94/94/94
f 97/97/97 79/79/79 95/95/95
f 79/79/79 97/97/97 82/82/82
f 98/98/98 95/95/95 96/96/96
f 97/97/97 95/95/95 98/98/98
f 98/98/98 96/96/96 99/99/99
f 96/96/96 100/100/100 99/99/99
f 99/99/99 101/101/101 98/98/98
f 101/101/101 97/97/97 98/98/98
f 99/99/99 100/100/100 102/102/102
f 103/103/103 102/102/102 100/100/100
f 103/103/103 100/100/100 104/104/104
f 104/104/104 100/100/100 105/105/105
f 106/106/106 104/104/104 105/105/105
f 105/105/105 107/107/107 106/106/106
f 107/107/107 105/105/105 108/108/108
f 97/97/97 101/101/101 109/109/109
f 110/110/110 109/109/109 101/101/101
f 110/110/110 111/111/111 109/109/109
f 112/112/112 97/97/97 109/109/109
f 112/112/112 82/82/82 97/97/97
f 109/109/109 111/111/111 113/113/113
f 109/109/109 113/113/113 112/112/112
f 113/113/113 114/114/114 112/112/112
f 111/111/111 115/115/115 113/113/113
f 114/114/114 113/113/113 115/115/115
f 115/115/115 111/111/111 116/116/116
f 115/115/115 116/116/116 117/117/117
f 115/115/115 117/117/117 118/118/118
f 112/112/112 119/119/119 82/82/82
f 112/112/112 114/114/114 119/119/119
f 120/120/120 115/115/115 118/118/118
f 120/120/120 114/114/114 115/115/115
f 82/82/82 119/119/119 87/87/87
f 81/81/81 82/82/82 87/87/87
f 81/81/81 87/87/87 83/83/83
f 87/87/87 119/119/119 89/89/89
f 119/119/119 114/114/114 89/89/89
f 10/10/10 120/120/120 118/118/118
f 9/9/9 10/10/10 118/118/118
f 89/89/89 114/114/114 121/121/121
f 121/121/121 92/92/92 89/89/89
f 92/92/92 121/121/121 4/4/4
f 114/114/114 120/120/120 122/122/122
f 10/10/10 122/122/122 120/120/120
f 122/122/122 121/121/121 114/114/114
f 121/121/121 6/6/6 4/4/4
f 121/121/121 122/122/122 6/6/6
f 122/122/122 10/10/10 6/6/6
f 3/3/3 4/4/4 6/6/6
f 10/10/10 5/5/5 6/6/6
f 125/125/125 124/124/124 123/123/123
f 124/124/124 126/126/126 123/123/123
f 126/126/126 127/127/127 123/123/123
f 126/126/126 128/128/128 127/127/127
f 126/126/126 124/124/124 129/129/129
f 129/129/129 130/130/130 126/126/126
f 130/130/130 128/128/128 126/126/126
f 128/128/128 131/131/131 127/127/127
f 131/131/131 132/132/132 127/127/127
f 130/130/130 129/129/129 133/133/133
f 129/129/129 134/134/134 133/133/133
f 133/133/133 134/134/134 135/135/135
f 136/136/136 133/133/133 135/135/135
f 133/133/133 136/136/136 137/137/137
f 138/138/138 133/133/133 137/137/137
f 133/133/133 138/138/138 130/130/130
f 138/138/138 139/139/139 130/130/130
f 130/130/130 139/139/139 128/128/128
f 140/140/140 132/132/132 131/131/131
f 140/140/140 131/131/131 141/141/141
f 141/141/141 131/131/131 128/128/128
f 140/140/140 142/142/142 132/132/132
f 142/142/142 140/140/140 141/141/141
f 142/142/142 143/143/143 132/132/132
f 143/143/143 142/142/142 144/144/144
f 143/143/143 144/144/144 145/145/145
f 145/145/145 144/144/144 64/64/64
f 64/64/64 144/144/144 63/63/63
f 142/142/142 141/141/141 146/146/146
f 142/142/142 146/146/146 144/144/144
f 144/144/144 147/147/147 63/63/63
f 147/147/147 144/144/144 146/146/146
f 60/60/60 63/63/63 147/147/147
f 141/141/141 128/128/128 148/148/148
f 146/146/146 141/141/141 148/148/148
f 60/60/60 147/147/147 149/149/149
f 60/60/60 149/149/149 59/59/59
f 128/128/128 150/150/150 148/148/148
f 139/139/139 150/150/150 128/128/128
f 151/151/151 146/146/146 148/148/148
f 151/151/151 148/148/148 150/150/150
f 147/147/147 146/146/146 152/152/152
f 147/147/147 152/152/152 149/149/149
f 152/152/152 146/146/146 151/151/151
f 150/150/150 139/139/139 153/153/153
f 153/153/153 151/151/151 150/150/150
f 139/139/139 154/154/154 153/153/153
f 155/155/155 149/149/149 152/152/152
f 151/151/151 155/155/155 152/152/152
f 59/59/59 149/149/149 155/155/155
f 151/151/151 153/153/153 155/155/155
f 153/153/153 154/154/154 107/107/107
f 155/155/155 153/153/153 107/107/107
f 107/107/107 154/154/154 106/106/106
f 154/154/154 156/156/156 106/106/106
f 59/59/59 155/155/155 157/157/157
f 157/157/157 155/155/155 107/107/107
f 93/93/93 59/59/59 157/157/157
f 157/157/157 107/107/107 108/108/108
f 108/108/108 93/93/93 157/157/157
f 93/93/93 108/108/108 94/94/94
f 108/108/108 158/158/158 94/94/94
f 96/96/96 94/94/94 158/158/158
f 105/105/105 158/158/158 108/108/108
f 158/158/158 100/100/100 96/96/96
f 100/100/100 158/158/158 105/105/105
f 139/139/139 138/138/138 154/154/154
f 138/138/138 159/159/159 154/154/154
f 156/156/156 154/154/154 159/159/159
f 138/138/138 137/137/137 159/159/159
f 137/137/137 160/160/160 159/159/159
f 156/156/156 159/159/159 161/161/161
f 161/161/161 159/159/159 160/160/160
f 137/137/137 162/162/162 160/160/160
f 137/137/137 136/136/136 162/162/162
f 136/136/136 163/163/163 162/162/162
f 160/160/160 162/162/162 163/163/163
f 136/136/136 164/164/164 163/163/163
f 136/136/136 135/135/135 164/164/164
f 164/164/164 135/135/135 165/165/165
f 135/135/135 134/134/134 165/165/165
f 156/156/156 161/161/161 166/166/166
f 160/160/160 167/167/167 161/161/161
f 167/167/167 166/166/166 161/161/161
f 168/168/168 160/160/160 163/163/163
f 160/160/160 168/168/168 167/167/167
f 164/164/164 169/169/169 163/163/163
f 168/168/168 163/163/163 169/169/169
f 104/104/104 156/156/156 166/166/166
f 104/104/104 106/106/106 156/156/156
f 166/166/166 170/170/170 104/104/104
f 170/170/170 166/166/166 167/167/167
f 170/170/170 103/103/103 104/104/104
f 171/171/171 103/103/103 170/170/170
f 102/102/102 103/103/103 171/171/171
f 167/167/167 172/172/172 170/170/170
f 172/172/172 171/171/171 170/170/170
f 167/167/167 168/168/168 173/173/173
f 172/172/172 167/167/167 173/173/173
f 164/164/164 174/174/174 169/169/169
f 174/174/174 164/164/164 165/165/165
f 175/175/175 168/168/168 169/169/169
f 168/168/168 175/175/175 173/173/173
f 174/174/174 176/176/176 169/169/169
f 175/175/175 169/169/169 176/176/176
f 177/177/177 102/102/102 171/171/171
f 178/178/178 171/171/171 172/172/172
f 177/177/177 171/171/171 178/178/178
f 173/173/173 179/179/179 172/172/172
f 179/179/179 178/178/178 172/172/172
f 178/178/178 179/179/179 180/180/180
f 179/179/179 173/173/173 181/181/181
f 173/173/173 175/175/175 181/181/181
f 179/179/179 181/181/181 180/180/180
f 182/182/182 102/102/102 177/177/177
f 182/182/182 99/99/99 102/102/102
f 183/183/183 177/177/177 178/178/178
f 183/183/183 178/178/178 180/180/180
f 184/184/184 177/177/177 183/183/183
f 184/184/184 182/182/182 177/177/177
f 99/99/99 182/182/182 110/110/110
f 101/101/101 99/99/99 110/110/110
f 110/110/110 182/182/182 185/185/185
f 182/182/182 184/184/184 185/185/185
f 185/185/185 111/111/111 110/110/110
f 185/185/185 116/116/116 111/111/111
f 186/186/186 184/184/184 183/183/183
f 186/186/186 183/183/183 180/180/180
f 185/185/185 184/184/184 187/187/187
f 187/187/187 116/116/116 185/185/185
f 184/184/184 186/186/186 187/187/187
f 116/116/116 187/187/187 188/188/188
f 116/116/116 188/188/188 117/117/117
f 189/189/189 117/117/117 188/188/188
f 187/187/187 190/190/190 188/188/188
f 189/189/189 188/188/188 190/190/190
f 187/187/187 186/186/186 190/190/190
f 189/189/189 190/190/190 191/191/191
f 189/189/189 191/191/191 192/192/192
f 193/193/193 192/192/192 191/191/191
f 194/194/194 191/191/191 190/190/190
f 186/186/186 194/194/194 190/190/190
f 193/193/193 191/191/191 194/194/194
f 195/195/195 194/194/194 186/186/186
f 194/194/194 195/195/195 193/193/193
f 186/186/186 180/180/180 195/195/195
f 195/195/195 196/196/196 193/193/193
f 195/195/195 197/197/197 196/196/196
f 180/180/180 197/197/197 195/195/195
f 197/197/197 198/198/198 196/196/196
f 199/199/199 197/197/197 180/180/180
f 197/197/197 199/199/199 198/198/198
f 181/181/181 199/199/199 180/180/180
f 199/199/199 200/200/200 198/198/198
f 198/198/198 200/200/200 201/201/201
f 200/200/200 202/202/202 201/201/201
f 203/203/203 202/202/202 200/200/200
f 199/199/199 181/181/181 204/204/204
f 175/175/175 204/204/204 181/181/181
f 205/205/205 200/200/200 199/199/199
f 200/200/200 205/205/205 203/203/203
f 199/199/199 204/204/204 205/205/205
f 204/204/204 175/175/175 206/206/206
f 206/206/206 175/175/175 176/176/176
f 204/204/204 207/207/207 205/205/205
f 203/203/203 205/205/205 207/207/207
f 204/204/204 206/206/206 207/207/207
f 206/206/206 176/176/176 208/208/208
f 207/207/207 206/206/206 208/208/208
f 209/209/209 203/203/203 207/207/207
f 209/209/209 207/207/207 208/208/208
f 210/210/210 203/203/203 209/209/209
f 211/211/211 210/210/210 209/209/209
f 212/212/212 209/209/209 208/208/208
f 213/213/213 208/208/208 176/176/176
f 212/212/212 208/208/208 213/213/213
f 174/174/174 213/213/213 176/176/176
f 214/214/214 212/212/212 213/213/213
f 174/174/174 215/215/215 213/213/213
f 214/214/214 213/213/213 215/215/215
f 215/215/215 174/174/174 165/165/165
f 216/216/216 214/214/214 215/215/215
f 215/215/215 165/165/165 217/217/217
f 165/165/165 134/134/134 217/217/217
f 215/215/215 218/218/218 216/216/216
f 218/218/218 215/215/215 217/217/217
f 216/216/216 218/218/218 219/219/219
f 219/219/219 218/218/218 220/220/220
f 221/221/221 220/220/220 218/218/218
f 221/221/221 218/218/218 217/217/217
f 220/220/220 221/221/221 222/222/222
f 221/221/221 223/223/223 222/222/222
f 221/221/221 224/224/224 223/223/223
f 224/224/224 221/221/221 217/217/217
f 224/224/224 225/225/225 223/223/223
f 224/224/224 226/226/226 225/225/225
f 227/227/227 217/217/217 134/134/134
f 224/224/224 217/217/217 227/227/227
f 226/226/226 224/224/224 227/227/227
f 227/227/227 134/134/134 129/129/129
f 227/227/227 124/124/124 226/226/226
f 124/124/124 227/227/227 129/129/129
f 9/9/9 118/118/118 11/11/11
f 118/118/118 117/117/117 11/11/11
f 117/117/117 13/13/13 11/11/11
f 13/13/13 117/117/117 189/189/189
f 13/13/13 189/189/189 19/19/19
f 192/192/192 19/19/19 189/189/189
f 24/24/24 19/19/19 192/192/192
f 21/21/21 19/19/19 24/24/24
f 21/21/21 18/18/18 19/19/19
f 192/192/192 228/228/228 24/24/24
f 228/228/228 229/229/229 24/24/24
f 228/228/228 192/192/192 193/193/193
f 193/193/193 196/196/196 228/228/228
f 196/196/196 230/230/230 228/228/228
f 229/229/229 228/228/228 230/230/230
f 196/196/196 198/198/198 230/230/230
f 198/198/198 201/201/201 230/230/230
f 230/230/230 201/201/201 229/229/229
f 229/229/229 231/231/231 24/24/24
f 23/23/23 24/24/24 231/231/231
f 231/231/231 38/38/38 23/23/23
f 39/39/39 38/38/38 231/231/231
f 232/232/232 39/39/39 231/231/231
f 231/231/231 229/229/229 232/232/232
f 39/39/39 232/232/232 45/45/45
f 201/201/201 233/233/233 229/229/229
f 201/201/201 202/202/202 233/233/233
f 232/232/232 229/229/229 234/234/234
f 229/229/229 233/233/233 234/234/234
f 232/232/232 234/234/234 45/45/45
f 202/202/202 235/235/235 233/233/233
f 234/234/234 233/233/233 235/235/235
f 210/210/210 235/235/235 202/202/202
f 202/202/202 203/203/203 210/210/210
f 235/235/235 210/210/210 236/236/236
f 211/211/211 236/236/236 210/210/210
f 237/237/237 234/234/234 235/235/235
f 236/236/236 237/237/237 235/235/235
f 238/238/238 45/45/45 234/234/234
f 237/237/237 238/238/238 234/234/234
f 237/237/237 236/236/236 239/239/239
f 237/237/237 239/239/239 238/238/238
f 238/238/238 240/240/240 45/45/45
f 240/240/240 44/44/44 45/45/45
f 211/211/211 241/241/241 236/236/236
f 241/241/241 239/239/239 236/236/236
f 238/238/238 239/239/239 242/242/242
f 238/238/238 242/242/242 240/240/240
f 240/240/240 58/58/58 44/44/44
f 58/58/58 47/47/47 44/44/44
f 240/240/240 243/243/243 58/58/58
f 240/240/240 242/242/242 243/243/243
f 58/58/58 243/243/243 244/244/244
f 58/58/58 244/244/244 57/57/57
f 244/244/244 243/243/243 245/245/245
f 246/246/246 243/243/243 242/242/242
f 247/247/247 242/242/242 239/239/239
f 247/247/247 246/246/246 242/242/242
f 241/241/241 247/247/247 239/239/239
f 247/247/247 248/248/248 246/246/246
f 246/246/246 248/248/248 249/249/249
f 241/241/241 250/250/250 247/247/247
f 247/247/247 250/250/250 248/248/248
f 249/249/249 248/248/248 251/251/251
f 251/251/251 252/252/252 249/249/249
f 248/248/248 250/250/250 253/253/253
f 248/248/248 253/253/253 251/251/251
f 252/252/252 251/251/251 254/254/254
f 254/254/254 251/251/251 253/253/253
f 255/255/255 252/252/252 254/254/254
f 256/256/256 255/255/255 254/254/254
f 250/250/250 241/241/241 257/257/257
f 250/250/250 257/257/257 253/253/253
f 258/258/258 254/254/254 253/253/253
f 256/256/256 254/254/254 258/258/258
f 258/258/258 253/253/253 257/257/257
f 241/241/241 259/259/259 257/257/257
f 211/211/211 259/259/259 241/241/241
f 260/260/260 256/256/256 258/258/258
f 260/260/260 261/261/261 256/256/256
f 262/262/262 258/258/258 257/257/257
f 262/262/262 257/257/257 259/259/259
f 260/260/260 258/258/258 262/262/262
f 263/263/263 259/259/259 211/211/211
f 263/263/263 262/262/262 259/259/259
f 260/260/260 262/262/262 264/264/264
f 261/261/261 260/260/260 264/264/264
f 263/263/263 264/264/264 262/262/262
f 263/263/263 211/211/211 212/212/212
f 211/211/211 209/209/209 212/212/212
f 212/212/212 214/214/214 263/263/263
f 263/263/263 214/214/214 264/264/264
f 216/216/216 264/264/264 214/214/214
f 264/264/264 216/216/216 219/219/219
f 219/219/219 261/261/261 264/264/264
f 261/261/261 219/219/219 265/265/265
f 220/220/220 265/265/265 219/219/219
f 246/246/246 249/249/249 243/243/243
f 243/243/243 249/249/249 245/245/245
f 252/252/252 245/245/245 249/249/249
f 252/252/252 266/266/266 245/245/245
f 252/252/252 255/255/255 266/266/266
f 266/266/266 267/267/267 245/245/245
f 244/244/244 245/245/245 267/267/267
f 268/268/268 244/244/244 267/267/267
f 57/57/57 244/244/244 268/268/268
f 57/57/57 268/268/268 269/269/269
f 269/269/269 268/268/268 267/267/267
f 57/57/57 269/269/269 56/56/56
f 270/270/270 267/267/267 266/266/266
f 270/270/270 269/269/269 267/267/267
f 269/269/269 271/271/271 56/56/56
f 271/271/271 55/55/55 56/56/56
f 271/271/271 269/269/269 272/272/272
f 272/272/272 269/269/269 270/270/270
f 55/55/55 271/271/271 273/273/273
f 271/271/271 272/272/272 273/273/273
f 274/274/274 55/55/55 273/273/273
f 274/274/274 53/53/53 55/55/55
f 274/274/274 273/273/273 275/275/275
f 273/273/273 272/272/272 276/276/276
f 273/273/273 276/276/276 275/275/275
f 277/277/277 272/272/272 270/270/270
f 277/277/277 276/276/276 272/272/272
f 275/275/275 276/276/276 278/278/278
f 275/275/275 278/278/278 279/279/279
f 278/278/278 280/280/280 279/279/279
f 277/277/277 281/281/281 276/276/276
f 281/281/281 278/278/278 276/276/276
f 270/270/270 282/282/282 277/277/277
f 277/277/277 283/283/283 281/281/281
f 282/282/282 283/283/283 277/277/277
f 284/284/284 282/282/282 270/270/270
f 284/284/284 270/270/270 266/266/266
f 282/282/282 284/284/284 285/285/285
f 285/285/285 283/283/283 282/282/282
f 266/266/266 286/286/286 284/284/284
f 284/284/284 286/286/286 285/285/285
f 255/255/255 286/286/286 266/266/266
f 287/287/287 286/286/286 255/255/255
f 256/256/256 287/287/287 255/255/255
f 285/285/285 286/286/286 288/288/288
f 287/287/287 288/288/288 286/286/286
f 285/285/285 289/289/289 283/283/283
f 285/285/285 288/288/288 289/289/289
f 283/283/283 290/290/290 281/281/281
f 289/289/289 290/290/290 283/283/283
f 281/281/281 291/291/291 278/278/278
f 281/281/281 290/290/290 291/291/291
f 287/287/287 256/256/256 292/292/292
f 256/256/256 261/261/261 292/292/292
f 291/291/291 293/293/293 278/278/278
f 280/280/280 278/278/278 293/293/293
f 292/292/292 261/261/261 294/294/294
f 265/265/265 294/294/294 261/261/261
f 294/294/294 265/265/265 295/295/295
f 295/295/295 265/265/265 220/220/220
f 222/222/222 295/295/295 220/220/220
f 292/292/292 294/294/294 296/296/296
f 296/296/296 294/294/294 295/295/295
f 297/297/297 287/287/287 292/292/292
f 297/297/297 292/292/292 296/296/296
f 298/298/298 295/295/295 222/222/222
f 298/298/298 222/222/222 223/223/223
f 298/298/298 223/223/223 225/225/225
f 298/298/298 299/299/299 295/295/295
f 296/296/296 295/295/295 299/299/299
f 300/300/300 296/296/296 299/299/299
f 296/296/296 300/300/300 297/297/297
f 298/298/298 225/225/225 301/301/301
f 287/287/287 297/297/297 302/302/302
f 287/287/287 302/302/302 288/288/288
f 303/303/303 297/297/297 300/300/300
f 302/302/302 297/297/297 303/303/303
f 302/302/302 304/304/304 288/288/288
f 304/304/304 302/302/302 303/303/303
f 289/289/289 288/288/288 304/304/304
f 305/305/305 303/303/303 300/300/300
f 303/303/303 305/305/305 304/304/304
f 300/300/300 306/306/306 305/305/305
f 305/305/305 307/307/307 304/304/304
f 289/289/289 304/304/304 308/308/308
f 307/307/307 308/308/308 304/304/304
f 307/307/307 309/309/309 308/308/308
f 289/289/289 308/308/308 290/290/290
f 309/309/309 310/310/310 308/308/308
f 308/308/308 311/311/311 290/290/290
f 310/310/310 311/311/311 308/308/308
f 291/291/291 290/290/290 311/311/311
f 312/312/312 291/291/291 311/311/311
f 311/311/311 310/310/310 312/312/312
f 293/293/293 291/291/291 312/312/312
f 310/310/310 313/313/313 312/312/312
f 293/293/293 312/312/312 313/313/313
f 314/314/314 313/313/313 310/310/310
f 315/315/315 314/314/314 310/310/310
f 293/293/293 313/313/313 316/316/316
f 280/280/280 293/293/293 316/316/316
f 316/316/316 313/313/313 317/317/317
f 316/316/316 318/318/318 280/280/280
f 318/318/318 316/316/316 317/317/317
f 274/274/274 52/52/52 53/53/53
f 52/52/52 274/274/274 319/319/319
f 274/274/274 320/320/320 319/319/319
f 320/320/320 274/274/274 275/275/275
f 320/320/320 275/275/275 279/279/279
f 320/320/320 279/279/279 321/321/321
f 319/319/319 320/320/320 321/321/321
f 319/319/319 321/321/321 322/322/322
f 319/319/319 323/323/323 52/52/52
f 323/323/323 319/319/319 322/322/322
f 323/323/323 51/51/51 52/52/52
f 323/323/323 322/322/322 51/51/51
f 279/279/279 324/324/324 321/321/321
f 324/324/324 279/279/279 280/280/280
f 318/318/318 324/324/324 280/280/280
f 325/325/325 324/324/324 318/318/318
f 325/325/325 326/326/326 324/324/324
f 324/324/324 327/327/327 321/321/321
f 324/324/324 326/326/326 327/327/327
f 327/327/327 322/322/322 321/321/321
f 326/326/326 328/328/328 327/327/327
f 329/329/329 327/327/327 328/328/328
f 327/327/327 329/329/329 322/322/322
f 330/330/330 329/329/329 328/328/328
f 329/329/329 330/330/330 331/331/331
f 51/51/51 322/322/322 332/332/332
f 51/51/51 332/332/332 36/36/36
f 333/333/333 322/322/322 329/329/329
f 329/329/329 331/331/331 333/333/333
f 322/322/322 333/333/333 332/332/332
f 36/36/36 332/332/332 334/334/334
f 332/332/332 333/333/333 334/334/334
f 31/31/31 36/36/36 334/334/334
f 334/334/334 30/30/30 31/31/31
f 334/334/334 333/333/333 30/30/30
f 335/335/335 333/333/333 331/331/331
f 333/333/333 335/335/335 30/30/30
f 336/336/336 335/335/335 331/331/331
f 336/336/336 337/337/337 335/335/335
f 28/28/28 30/30/30 335/335/335
f 337/337/337 28/28/28 335/335/335
f 28/28/28 337/337/337 26/26/26
f 26/26/26 25/25/25 28/28/28
f 125/125/125 226/226/226 124/124/124
f 226/226/226 125/125/125 225/225/225
f 225/225/225 125/125/125 338/338/338
f 301/301/301 225/225/225 338/338/338
f 338/338/338 125/125/125 123/123/123
f 338/338/338 123/123/123 339/339/339
f 338/338/338 340/340/340 301/301/301
f 340/340/340 338/338/338 339/339/339
f 301/301/301 340/340/340 341/341/341
f 342/342/342 301/301/301 341/341/341
f 343/343/343 301/301/301 342/342/342
f 339/339/339 344/344/344 340/340/340
f 344/344/344 339/339/339 345/345/345
f 339/339/339 123/123/123 346/346/346
f 339/339/339 346/346/346 345/345/345
f 127/127/127 346/346/346 123/123/123
f 132/132/132 346/346/346 127/127/127
f 347/347/347 345/345/345 346/346/346
f 346/346/346 132/132/132 348/348/348
f 348/348/348 347/347/347 346/346/346
f 132/132/132 143/143/143 348/348/348
f 348/348/348 349/349/349 347/347/347
f 143/143/143 349/349/349 348/348/348
f 349/349/349 350/350/350 347/347/347
f 143/143/143 145/145/145 349/349/349
f 145/145/145 351/351/351 349/349/349
f 145/145/145 352/352/352 351/351/351
f 352/352/352 145/145/145 353/353/353
f 353/353/353 145/145/145 64/64/64
f 354/354/354 353/353/353 64/64/64
f 354/354/354 64/64/64 65/65/65
f 353/353/353 354/354/354 355/355/355
f 71/71/71 354/354/354 65/65/65
f 354/354/354 71/71/71 355/355/355

