mtllib FP228:Door_016_fb38f99d.mtl
g FP228:Door.016_fb38f99d
v -0.01606 0.74919 2.2594
v -0.01606 0.24897 2.8871
v -0.01606 0.24919 2.26109
v -0.01606 0.74897 2.8854
v -0.01606 2.00898 2.88117
v -0.01606 2.00893 3.00506
v -0.01606 1.87893 3.00502
v -0.01606 1.87898 2.88161
v -0.01606 2.00919 2.25516
v -0.01606 0.86893 3.00467
v -0.01606 1.87919 2.2556
v -0.01606 2.00923 2.13906
v -0.01606 1.87923 2.13902
v -0.01606 0.86897 2.885
v -0.01606 0.86919 2.25899
v -0.01606 0.74893 3.00463
v -0.01606 0.86923 2.13867
v -0.01606 0.74897 2.8854
v -0.01606 0.24893 3.00446
v -0.01606 0.74919 2.2594
v -0.01606 0.74923 2.13863
v -0.01606 0.24897 2.8871
v -0.01606 -0.00106 3.00437
v -0.01606 -0.00103 2.88795
v -0.01606 0.24919 2.26109
v -0.01606 0.24923 2.13846
v -0.01606 -0.00081 2.26194
v -0.01606 -0.00077 2.13837
v -0.01606 0.86897 2.885
v -0.01606 1.87919 2.2556
v -0.01606 1.87898 2.88161
v -0.01606 0.86919 2.25899
v -0.01606 0.86919 2.25899
v -0.02606 1.87919 2.2556
v -0.02606 0.86919 2.25899
v -0.01606 1.87919 2.2556
v -0.01606 1.87919 2.2556
v -0.02606 1.87898 2.88161
v -0.02606 1.87919 2.2556
v -0.01606 1.87898 2.88161
v -0.01606 1.87898 2.88161
v -0.02606 0.86897 2.885
v -0.02606 1.87898 2.88161
v -0.01606 0.86897 2.885
v -0.01606 0.86897 2.885
v -0.02606 0.86919 2.25899
v -0.02606 0.86897 2.885
v -0.01606 0.86919 2.25899
v -0.01606 0.24897 2.8871
v -0.02606 0.24919 2.26109
v -0.02606 0.24897 2.8871
v -0.01606 0.24919 2.26109
v -0.01606 0.74919 2.2594
v -0.02606 0.74897 2.8854
v -0.02606 0.74919 2.2594
v -0.01606 0.74897 2.8854
v -0.01606 0.74897 2.8854
v -0.02606 0.24897 2.8871
v -0.02606 0.74897 2.8854
v -0.01606 0.24897 2.8871
v -0.01606 0.24919 2.26109
v -0.02606 0.74919 2.2594
v -0.02606 0.24919 2.26109
v -0.01606 0.74919 2.2594
v -0.02606 0.26148 2.87235
v -0.02484 0.26169 2.27576
v -0.02484 0.26148 2.87235
v -0.02606 0.26169 2.27576
v -0.02606 1.86151 2.86699
v -0.02484 0.88559 2.8702
v -0.02484 1.86151 2.86699
v -0.02606 0.88559 2.8702
v -0.02606 0.26169 2.27576
v -0.02484 0.73669 2.27415
v -0.02484 0.26169 2.27576
v -0.02606 0.73669 2.27415
v -0.02606 0.88579 2.27361
v -0.02484 1.86171 2.2704
v -0.02484 0.88579 2.27361
v -0.02606 1.86171 2.2704
v -0.02606 0.73648 2.87074
v -0.02484 0.26148 2.87235
v -0.02484 0.73648 2.87074
v -0.02606 0.26148 2.87235
v -0.02606 1.86171 2.2704
v -0.02484 1.86151 2.86699
v -0.02484 1.86171 2.2704
v -0.02606 1.86151 2.86699
v -0.02606 0.73669 2.27415
v -0.02484 0.73648 2.87074
v -0.02484 0.73669 2.27415
v -0.02606 0.73648 2.87074
v -0.02606 0.88559 2.8702
v -0.02484 0.88579 2.27361
v -0.02484 0.88559 2.8702
v -0.02606 0.88579 2.27361
v -0.0076 2.00923 2.13906
v -0.01606 2.00919 2.25516
v -0.01606 2.00923 2.13906
v -0.0076 2.00919 2.25516
v -0.01606 2.00898 2.88117
v 0.00086 2.00919 2.25516
v 0.00086 2.00923 2.13906
v 0.00086 2.00898 2.88117
v -0.0076 2.00898 2.88117
v -0.0076 2.00893 3.00506
v -0.01606 2.00893 3.00506
v 0.00086 2.00893 3.00506
v -0.0076 -0.00106 3.00437
v -0.01606 -0.00103 2.88795
v -0.01606 -0.00106 3.00437
v -0.0076 -0.00103 2.88795
v -0.01606 -0.00081 2.26194
v 0.00086 -0.00103 2.88795
v 0.00086 -0.00106 3.00437
v 0.00086 -0.00081 2.26194
v -0.0076 -0.00081 2.26194
v -0.0076 -0.00077 2.13837
v -0.01606 -0.00077 2.13837
v 0.00086 -0.00077 2.13837
v 0.00086 0.74919 2.2594
v 0.00086 0.24919 2.26109
v 0.00086 0.24897 2.8871
v 0.00086 0.74897 2.8854
v 0.00086 2.00898 2.88117
v 0.00086 1.87893 3.00502
v 0.00086 2.00893 3.00506
v 0.00086 1.87898 2.88161
v 0.00086 2.00919 2.25516
v 0.00086 0.86893 3.00467
v 0.00086 1.87919 2.2556
v 0.00086 2.00923 2.13906
v 0.00086 1.87923 2.13902
v 0.00086 0.86897 2.885
v 0.00086 0.86919 2.25899
v 0.00086 0.74893 3.00463
v 0.00086 0.86923 2.13867
v 0.00086 0.74897 2.8854
v 0.00086 0.24893 3.00446
v 0.00086 0.74919 2.2594
v 0.00086 0.74923 2.13863
v 0.00086 0.24897 2.8871
v 0.00086 -0.00106 3.00437
v 0.00086 -0.00103 2.88795
v 0.00086 0.24919 2.26109
v 0.00086 0.24923 2.13846
v 0.00086 -0.00081 2.26194
v 0.00086 -0.00077 2.13837
v 0.00086 0.86897 2.885
v 0.00086 1.87898 2.88161
v 0.00086 1.87919 2.2556
v 0.00086 0.86919 2.25899
v 0.00086 0.86919 2.25899
v 0.01086 0.86919 2.25899
v 0.01086 1.87919 2.2556
v 0.00086 1.87919 2.2556
v 0.00086 1.87919 2.2556
v 0.01086 1.87919 2.2556
v 0.01086 1.87898 2.88161
v 0.00086 1.87898 2.88161
v 0.00086 1.87898 2.88161
v 0.01086 1.87898 2.88161
v 0.01086 0.86897 2.885
v 0.00086 0.86897 2.885
v 0.00086 0.86897 2.885
v 0.01086 0.86897 2.885
v 0.01086 0.86919 2.25899
v 0.00086 0.86919 2.25899
v 0.00086 0.24897 2.8871
v 0.01086 0.24897 2.8871
v 0.01086 0.24919 2.26109
v 0.00086 0.24919 2.26109
v 0.00086 0.74919 2.2594
v 0.01086 0.74919 2.2594
v 0.01086 0.74897 2.8854
v 0.00086 0.74897 2.8854
v 0.00086 0.74897 2.8854
v 0.01086 0.74897 2.8854
v 0.01086 0.24897 2.8871
v 0.00086 0.24897 2.8871
v 0.00086 0.24919 2.26109
v 0.01086 0.24919 2.26109
v 0.01086 0.74919 2.2594
v 0.00086 0.74919 2.2594
v 0.01086 0.26148 2.87235
v 0.00964 0.26148 2.87235
v 0.00964 0.26169 2.27576
v 0.01086 0.26169 2.27576
v 0.01086 1.86151 2.86699
v 0.00964 1.86151 2.86699
v 0.00964 0.88559 2.8702
v 0.01086 0.88559 2.8702
v 0.01086 0.26169 2.27576
v 0.00964 0.26169 2.27576
v 0.00964 0.73669 2.27415
v 0.01086 0.73669 2.27415
v 0.01086 0.88579 2.27361
v 0.00964 0.88579 2.27361
v 0.00964 1.86171 2.2704
v 0.01086 1.86171 2.2704
v 0.01086 0.73648 2.87074
v 0.00964 0.73648 2.87074
v 0.00964 0.26148 2.87235
v 0.01086 0.26148 2.87235
v 0.01086 1.86171 2.2704
v 0.00964 1.86171 2.2704
v 0.00964 1.86151 2.86699
v 0.01086 1.86151 2.86699
v 0.01086 0.73669 2.27415
v 0.00964 0.73669 2.27415
v 0.00964 0.73648 2.87074
v 0.01086 0.73648 2.87074
v 0.01086 0.88559 2.8702
v 0.00964 0.88559 2.8702
v 0.00964 0.88579 2.27361
v 0.01086 0.88579 2.27361
v -0.01606 2.00893 3.00506
v -0.0076 2.00893 3.00506
v -0.0076 1.93571 3.00504
v 0.00086 2.00893 3.00506
v -0.0076 1.87893 3.00502
v -0.01606 1.87893 3.00502
v 0.00086 1.87893 3.00502
v -0.0076 1.31007 3.00482
v -0.0076 0.86893 3.00467
v -0.01606 0.86893 3.00467
v 0.00086 0.86893 3.00467
v -0.0076 0.80135 3.00465
v -0.0076 0.74893 3.00463
v -0.01606 0.74893 3.00463
v 0.00086 0.74893 3.00463
v -0.0076 0.46732 3.00453
v -0.01606 0.24893 3.00446
v 0.00086 0.24893 3.00446
v -0.0076 0.24893 3.00446
v -0.0076 0.10813 3.00441
v -0.01606 -0.00106 3.00437
v 0.00086 -0.00106 3.00437
v -0.0076 -0.00106 3.00437
v -0.01606 -0.00077 2.13837
v -0.0076 -0.00077 2.13837
v -0.0076 0.14004 2.13842
v 0.00086 -0.00077 2.13837
v -0.0076 0.24923 2.13846
v -0.01606 0.24923 2.13846
v 0.00086 0.24923 2.13846
v -0.0076 0.53085 2.13855
v -0.0076 0.74923 2.13863
v -0.01606 0.74923 2.13863
v 0.00086 0.74923 2.13863
v -0.0076 0.81682 2.13865
v -0.01606 0.86923 2.13867
v 0.00086 0.86923 2.13867
v -0.0076 0.86923 2.13867
v -0.0076 1.43809 2.13887
v -0.01606 1.87923 2.13902
v 0.00086 1.87923 2.13902
v -0.0076 1.87923 2.13902
v -0.0076 1.95245 2.13904
v -0.01606 2.00923 2.13906
v 0.00086 2.00923 2.13906
v -0.0076 2.00923 2.13906
v -0.02606 0.74919 2.2594
v -0.02606 0.73648 2.87074
v -0.02606 0.73669 2.27415
v -0.02606 0.74897 2.8854
v -0.02606 0.24919 2.26109
v -0.02606 0.26148 2.87235
v -0.02606 0.26169 2.27576
v -0.02606 0.24897 2.8871
v -0.02606 0.86919 2.25899
v -0.02606 1.86171 2.2704
v -0.02606 0.88579 2.27361
v -0.02606 1.87919 2.2556
v -0.02606 0.86897 2.885
v -0.02606 1.86151 2.86699
v -0.02606 0.88559 2.8702
v -0.02606 1.87898 2.88161
v 0.01086 0.74919 2.2594
v 0.01086 0.73669 2.27415
v 0.01086 0.73648 2.87074
v 0.01086 0.74897 2.8854
v 0.01086 0.24919 2.26109
v 0.01086 0.26148 2.87235
v 0.01086 0.26169 2.27576
v 0.01086 0.24897 2.8871
v 0.01086 0.86919 2.25899
v 0.01086 0.88579 2.27361
v 0.01086 1.86171 2.2704
v 0.01086 1.87919 2.2556
v 0.01086 0.86897 2.885
v 0.01086 1.86151 2.86699
v 0.01086 0.88559 2.8702
v 0.01086 1.87898 2.88161
vn -0.5849528 1.004079 2.138364
vn -0.5849528 1.004079 2.138364
vn -0.5849528 1.004079 2.138364
vn -0.5849528 1.004079 2.138364
vn -0.5849528 1.004079 2.138364
vn -0.5849528 1.004079 2.138364
vn -0.5849528 1.004079 2.138364
vn -0.5849528 1.004079 2.138364
vn -0.5849528 1.004079 2.138364
vn -0.5849528 1.004079 2.138364
vn -0.5849528 1.004079 2.138364
vn -0.5849528 1.004079 2.138364
vn -0.5849528 1.004079 2.138364
vn -0.5849528 1.004079 2.138364
vn -0.5849528 1.004079 2.138364
vn -0.5849528 1.004079 2.138364
vn -0.5849528 1.004079 2.138364
vn -0.5849528 1.004079 2.138364
vn -0.5849528 1.004079 2.138364
vn -0.5849528 1.004079 2.138364
vn -0.5849528 1.004079 2.138364
vn -0.5849528 1.004079 2.138364
vn -0.5849528 1.004079 2.138364
vn -0.5849528 1.004079 2.138364
vn -0.5849528 1.004079 2.138364
vn -0.5849528 1.004079 2.138364
vn -0.5849528 1.004079 2.138364
vn -0.5849528 1.004079 2.138364
vn -0.5849528 1.004079 2.138364
vn -0.5849528 1.004079 2.138364
vn -0.5849528 1.004079 2.138364
vn -0.5849528 1.004079 2.138364
vn -0.007602507 1.002143 1.561017
vn -0.007602507 1.002143 1.561017
vn -0.007602507 1.002143 1.561017
vn -0.007602507 1.002143 1.561017
vn -0.007602507 1.581429 2.138563
vn -0.007602507 1.581429 2.138563
vn -0.007602507 1.581429 2.138563
vn -0.007602507 1.581429 2.138563
vn -0.007602507 1.006016 2.715711
vn -0.007602507 1.006016 2.715711
vn -0.007602507 1.006016 2.715711
vn -0.007602507 1.006016 2.715711
vn -0.007602507 0.4267287 2.138164
vn -0.007602507 0.4267287 2.138164
vn -0.007602507 0.4267287 2.138164
vn -0.007602507 0.4267287 2.138164
vn -0.007602507 0.4267287 2.138164
vn -0.007602507 0.4267287 2.138164
vn -0.007602507 0.4267287 2.138164
vn -0.007602507 0.4267287 2.138164
vn -0.007602507 1.581429 2.138563
vn -0.007602507 1.581429 2.138563
vn -0.007602507 1.581429 2.138563
vn -0.007602507 1.581429 2.138563
vn -0.007602507 1.006037 2.715711
vn -0.007602507 1.006037 2.715711
vn -0.007602507 1.006037 2.715711
vn -0.007602507 1.006037 2.715711
vn -0.007602507 1.002121 1.561017
vn -0.007602507 1.002121 1.561017
vn -0.007602507 1.002121 1.561017
vn -0.007602507 1.002121 1.561017
vn -0.007602507 1.581429 2.138563
vn -0.007602507 1.581429 2.138563
vn -0.007602507 1.581429 2.138563
vn -0.007602507 1.581429 2.138563
vn -0.007602507 1.002178 1.561016
vn -0.007602507 1.002178 1.561016
vn -0.007602507 1.002178 1.561016
vn -0.007602507 1.002178 1.561016
vn -0.007602507 1.006037 2.715711
vn -0.007602507 1.006037 2.715711
vn -0.007602507 1.006037 2.715711
vn -0.007602507 1.006037 2.715711
vn -0.007602507 1.00598 2.715711
vn -0.007602507 1.00598 2.715711
vn -0.007602507 1.00598 2.715711
vn -0.007602507 1.00598 2.715711
vn -0.007602507 1.002121 1.561017
vn -0.007602507 1.002121 1.561017
vn -0.007602507 1.002121 1.561017
vn -0.007602507 1.002121 1.561017
vn -0.007602507 0.4267287 2.138164
vn -0.007602507 0.4267287 2.138164
vn -0.007602507 0.4267287 2.138164
vn -0.007602507 0.4267287 2.138164
vn -0.007602507 0.4267287 2.138164
vn -0.007602507 0.4267287 2.138164
vn -0.007602507 0.4267287 2.138164
vn -0.007602507 0.4267287 2.138164
vn -0.007602507 1.581429 2.138563
vn -0.007602507 1.581429 2.138563
vn -0.007602507 1.581429 2.138563
vn -0.007602507 1.581429 2.138563
vn -0.007602507 1.581429 2.138564
vn -0.007602507 1.581429 2.138563
vn -0.007602507 1.581429 2.138563
vn -0.007602507 1.581429 2.138563
vn -0.007602507 1.581429 2.138563
vn -0.007602507 1.581429 2.138563
vn -0.007602507 1.581429 2.138563
vn -0.007602507 1.581429 2.138563
vn -0.007602507 1.581429 2.138563
vn -0.007602507 1.581429 2.138564
vn -0.007602507 1.581429 2.138563
vn -0.007602507 1.581429 2.138563
vn -0.007602507 0.4267287 2.138174
vn -0.007602507 0.4267287 2.138164
vn -0.007602507 0.4267287 2.138176
vn -0.007602507 0.4267287 2.138166
vn -0.007602507 0.4267287 2.138164
vn -0.007602507 0.4267287 2.138164
vn -0.007602507 0.4267287 2.138176
vn -0.007602507 0.4267287 2.138164
vn -0.007602507 0.4267287 2.138164
vn -0.007602507 0.4267287 2.138164
vn -0.007602507 0.4267287 2.138164
vn -0.007602507 0.4267287 2.138164
vn 0.5697477 1.004079 2.138364
vn 0.5697477 1.004079 2.138364
vn 0.5697477 1.004079 2.138364
vn 0.5697477 1.004079 2.138364
vn 0.5697477 1.004079 2.138364
vn 0.5697477 1.004079 2.138364
vn 0.5697477 1.004079 2.138364
vn 0.5697477 1.004079 2.138364
vn 0.5697477 1.004079 2.138364
vn 0.5697477 1.004079 2.138364
vn 0.5697477 1.004079 2.138364
vn 0.5697477 1.004079 2.138364
vn 0.5697477 1.004079 2.138364
vn 0.5697477 1.004079 2.138364
vn 0.5697477 1.004079 2.138364
vn 0.5697477 1.004079 2.138364
vn 0.5697477 1.004079 2.138364
vn 0.5697477 1.004079 2.138364
vn 0.5697477 1.004079 2.138364
vn 0.5697477 1.004079 2.138364
vn 0.5697477 1.004079 2.138364
vn 0.5697477 1.004079 2.138364
vn 0.5697477 1.004079 2.138364
vn 0.5697477 1.004079 2.138364
vn 0.5697477 1.004079 2.138364
vn 0.5697477 1.004079 2.138364
vn 0.5697477 1.004079 2.138364
vn 0.5697477 1.004079 2.138364
vn 0.5697477 1.004079 2.138364
vn 0.5697477 1.004079 2.138364
vn 0.5697477 1.004079 2.138364
vn 0.5697477 1.004079 2.138364
vn -0.007602507 1.002143 1.561017
vn -0.007602507 1.002143 1.561017
vn -0.007602507 1.002143 1.561017
vn -0.007602507 1.002143 1.561017
vn -0.007602507 1.581429 2.138563
vn -0.007602507 1.581429 2.138563
vn -0.007602507 1.581429 2.138563
vn -0.007602507 1.581429 2.138563
vn -0.007602507 1.006016 2.715711
vn -0.007602507 1.006016 2.715711
vn -0.007602507 1.006016 2.715711
vn -0.007602507 1.006016 2.715711
vn -0.007602507 0.4267287 2.138164
vn -0.007602507 0.4267287 2.138164
vn -0.007602507 0.4267287 2.138164
vn -0.007602507 0.4267287 2.138164
vn -0.007602507 0.4267287 2.138164
vn -0.007602507 0.4267287 2.138164
vn -0.007602507 0.4267287 2.138164
vn -0.007602507 0.4267287 2.138164
vn -0.007602507 1.581429 2.138563
vn -0.007602507 1.581429 2.138563
vn -0.007602507 1.581429 2.138563
vn -0.007602507 1.581429 2.138563
vn -0.007602507 1.006037 2.715711
vn -0.007602507 1.006037 2.715711
vn -0.007602507 1.006037 2.715711
vn -0.007602507 1.006037 2.715711
vn -0.007602507 1.002121 1.561017
vn -0.007602507 1.002121 1.561017
vn -0.007602507 1.002121 1.561017
vn -0.007602507 1.002121 1.561017
vn -0.007602507 1.581429 2.138563
vn -0.007602507 1.581429 2.138563
vn -0.007602507 1.581429 2.138563
vn -0.007602507 1.581429 2.138563
vn -0.007602507 1.002178 1.561016
vn -0.007602507 1.002178 1.561016
vn -0.007602507 1.002178 1.561016
vn -0.007602507 1.002178 1.561016
vn -0.007602507 1.006037 2.715711
vn -0.007602507 1.006037 2.715711
vn -0.007602507 1.006037 2.715711
vn -0.007602507 1.006037 2.715711
vn -0.007602507 1.00598 2.715711
vn -0.007602507 1.00598 2.715711
vn -0.007602507 1.00598 2.715711
vn -0.007602507 1.00598 2.715711
vn -0.007602507 1.002121 1.561017
vn -0.007602507 1.002121 1.561017
vn -0.007602507 1.002121 1.561017
vn -0.007602507 1.002121 1.561017
vn -0.007602507 0.4267287 2.138164
vn -0.007602507 0.4267287 2.138164
vn -0.007602507 0.4267287 2.138164
vn -0.007602507 0.4267287 2.138164
vn -0.007602507 0.4267287 2.138164
vn -0.007602507 0.4267287 2.138164
vn -0.007602507 0.4267287 2.138164
vn -0.007602507 0.4267287 2.138164
vn -0.007602507 1.581429 2.138563
vn -0.007602507 1.581429 2.138563
vn -0.007602507 1.581429 2.138563
vn -0.007602507 1.581429 2.138563
vn -0.007602507 1.003879 2.715714
vn -0.007602507 1.003879 2.715714
vn -0.00759372 1.00388 2.715714
vn -0.007602507 1.003879 2.715714
vn -0.007600302 1.00388 2.715714
vn -0.007602507 1.003879 2.715714
vn -0.007602507 1.003879 2.715714
vn -0.007611672 1.003879 2.715714
vn -0.007611281 1.003879 2.715714
vn -0.007602507 1.003879 2.715714
vn -0.007602507 1.003879 2.715714
vn -0.007602507 1.003879 2.715714
vn -0.007602507 1.00388 2.715714
vn -0.007602507 1.003879 2.715714
vn -0.007602507 1.003879 2.715714
vn -0.007602507 1.003879 2.715714
vn -0.007602507 1.003879 2.715714
vn -0.007602507 1.003879 2.715714
vn -0.00760318 1.003879 2.715714
vn -0.007602507 1.003879 2.715714
vn -0.007602507 1.003879 2.715714
vn -0.007602507 1.003879 2.715714
vn -0.007602507 1.003879 2.715714
vn -0.007602507 1.004279 1.561013
vn -0.007602507 1.004278 1.561013
vn -0.007597905 1.004279 1.561013
vn -0.007602507 1.004279 1.561013
vn -0.007600763 1.004279 1.561013
vn -0.007602507 1.004279 1.561013
vn -0.007602507 1.004279 1.561013
vn -0.007602507 1.004279 1.561013
vn -0.007602507 1.004279 1.561013
vn -0.007602507 1.004279 1.561013
vn -0.007602507 1.004279 1.561013
vn -0.007602507 1.004279 1.561013
vn -0.007602507 1.004279 1.561013
vn -0.007602507 1.004279 1.561013
vn -0.007602507 1.004279 1.561013
vn -0.007602507 1.004278 1.561013
vn -0.007602507 1.004279 1.561013
vn -0.007602507 1.004279 1.561013
vn -0.007602507 1.004278 1.561013
vn -0.007602507 1.004279 1.561013
vn -0.007602507 1.004279 1.561013
vn -0.007602507 1.004279 1.561013
vn -0.007602507 1.004279 1.561013
vn -0.5849528 1.004079 2.138364
vn -0.5849528 1.004079 2.138364
vn -0.5849528 1.004079 2.138364
vn -0.5849528 1.004079 2.138364
vn -0.5849528 1.004079 2.138364
vn -0.5849528 1.004079 2.138364
vn -0.5849528 1.004079 2.138364
vn -0.5849528 1.004079 2.138364
vn -0.5849528 1.004079 2.138364
vn -0.5849528 1.004079 2.138364
vn -0.5849528 1.004079 2.138364
vn -0.5849528 1.004079 2.138364
vn -0.5849528 1.004079 2.138364
vn -0.5849528 1.004079 2.138364
vn -0.5849528 1.004079 2.138364
vn -0.5849528 1.004079 2.138364
vn 0.5697477 1.004079 2.138364
vn 0.5697477 1.004079 2.138364
vn 0.5697477 1.004079 2.138364
vn 0.5697477 1.004079 2.138364
vn 0.5697477 1.004079 2.138364
vn 0.5697477 1.004079 2.138364
vn 0.5697477 1.004079 2.138364
vn 0.5697477 1.004079 2.138364
vn 0.5697477 1.004079 2.138364
vn 0.5697477 1.004079 2.138364
vn 0.5697477 1.004079 2.138364
vn 0.5697477 1.004079 2.138364
vn 0.5697477 1.004079 2.138364
vn 0.5697477 1.004079 2.138364
vn 0.5697477 1.004079 2.138364
vn 0.5697477 1.004079 2.138364
vt 0.6599081 1.023064
vt 0.1596908 0.3953633
vt 0.1599073 1.021369
vt 0.6596918 0.3970588
vt 0.4425176 1.311081
vt 0.5664136 1.311038
vt 0.5663685 1.181038
vt 0.4429588 1.181081
vt -0.183488 1.311297
vt 0.5660195 0.1710386
vt -0.1830469 1.181298
vt -0.2995862 1.311337
vt -0.2996311 1.181338
vt 0.4463462 0.17108
vt -0.179659 0.1712963
vt 0.5659781 0.05103862
vt -0.29998 0.1713378
vt 0.4467532 0.05107996
vt 0.5658053 -0.4489606
vt -0.1792521 0.05129629
vt -0.3000216 0.05133796
vt 0.4484489 -0.4489207
vt 0.5657189 -0.6989594
vt 0.4492962 -0.6989212
vt -0.1775566 -0.4487043
vt -0.3001945 -0.448662
vt -0.1767092 -0.6987048
vt -0.300281 -0.698662
vt 0.9714026 -0.3502512
vt 0.3420095 0.6599663
vt 0.9680153 0.6597497
vt 0.3453974 -0.3500349
vt 0.5718989 0.9693979
vt 0.5618989 -0.04059726
vt 0.5618989 0.9693979
vt 0.5718989 -0.04059732
vt 0.1662914 1.215765
vt 0.1562915 0.589771
vt 0.1562915 1.215765
vt 0.1662914 0.589771
vt 0.5540283 1.271974
vt 0.5440281 0.261972
vt 0.5440281 1.271974
vt 0.5540283 0.261972
vt 0.2226029 1.215773
vt 0.2126029 0.5897635
vt 0.2126029 1.215773
vt 0.2226029 0.5897635
vt 0.1850619 1.215769
vt 0.175062 0.5897671
vt 0.175062 1.215769
vt 0.1850619 0.5897671
vt 0.2038324 1.215773
vt 0.1938324 0.5897634
vt 0.1938324 1.215773
vt 0.2038324 0.5897634
vt 0.301439 1.133705
vt 0.2914389 0.6336975
vt 0.2914389 1.133705
vt 0.301439 0.6336975
vt 0.3108242 1.133705
vt 0.3008242 0.6336975
vt 0.3008242 1.133705
vt 0.3108242 0.6336975
vt 0.2794827 0.599991
vt 0.2807062 1.196643
vt 0.2807062 0.599991
vt 0.2794827 1.196643
vt 0.5193158 0.2739727
vt 0.520539 1.249839
vt 0.520539 0.2739729
vt 0.5193158 1.249839
vt 0.3320402 0.6424283
vt 0.3332635 1.117408
vt 0.3332635 0.6424283
vt 0.3320402 1.117408
vt 0.5318741 0.273938
vt 0.5330973 1.249874
vt 0.5330973 0.273938
vt 0.5318741 1.249874
vt 0.3395484 0.6424283
vt 0.3407716 1.117408
vt 0.3407716 0.6424283
vt 0.3395484 1.117408
vt 0.2344337 0.6000245
vt 0.235657 1.19661
vt 0.235657 0.6000245
vt 0.2344337 1.19661
vt 0.2494501 0.600057
vt 0.2506733 1.196577
vt 0.2506733 0.600057
vt 0.2494501 1.196577
vt 0.2644666 0.6000574
vt 0.2656896 1.196577
vt 0.2656896 0.6000574
vt 0.2644666 1.196577
vt 0.5049929 1.178278
vt 0.4965306 1.062179
vt 0.4965306 1.178278
vt 0.5049929 1.062179
vt 0.4965306 0.436165
vt 0.5134553 1.062179
vt 0.5134553 1.178278
vt 0.5134553 0.436165
vt 0.5049929 0.436165
vt 0.5049929 0.3122674
vt 0.4965306 0.3122674
vt 0.5134553 0.3122674
vt 0.493962 1.178274
vt 0.4854997 1.061851
vt 0.4854997 1.178274
vt 0.493962 1.061851
vt 0.4854997 0.4358442
vt 0.5024244 1.061851
vt 0.5024244 1.178274
vt 0.5024244 0.4358442
vt 0.493962 0.4358442
vt 0.493962 0.3122721
vt 0.4854997 0.3122721
vt 0.5024244 0.3122721
vt 0.3453196 0.3953633
vt -0.1546809 0.3970588
vt -0.1548975 1.023064
vt 0.3451034 1.021369
vt 0.09222054 1.311081
vt -0.03163043 1.181038
vt -0.03167552 1.311038
vt 0.09177938 1.181081
vt 0.7182262 1.311297
vt -0.03128132 0.1710385
vt 0.7177851 1.181298
vt 0.8343245 1.311338
vt 0.8343694 1.181338
vt 0.08839202 0.17108
vt 0.7143973 0.1712963
vt -0.03123996 0.05103859
vt 0.8347182 0.1713378
vt 0.08798495 0.0510799
vt -0.03106722 -0.4489607
vt 0.7139904 0.05129626
vt 0.8347598 0.05133793
vt 0.08628929 -0.4489208
vt -0.03098077 -0.6989596
vt 0.08544201 -0.6989213
vt 0.7122949 -0.4487045
vt 0.8349327 -0.4486621
vt 0.7114474 -0.698705
vt 0.8350192 -0.6986623
vt 0.5390995 -0.3502513
vt 0.5424868 0.6597499
vt 1.168493 0.6599665
vt 1.165105 -0.350035
vt 0.5529635 1.271982
vt 0.5629636 1.271982
vt 0.5629636 0.2619632
vt 0.5529635 0.261963
vt 0.1656767 1.215773
vt 0.1756767 1.215773
vt 0.1756767 0.5897629
vt 0.1656767 0.5897629
vt 0.5350928 1.271982
vt 0.5450929 1.271982
vt 0.5450929 0.2619638
vt 0.5350928 0.2619638
vt 0.2219881 1.215773
vt 0.2319882 1.215773
vt 0.2319882 0.5897635
vt 0.2219881 0.5897635
vt 0.1844472 1.215769
vt 0.1944471 1.215769
vt 0.1944471 0.5897671
vt 0.1844472 0.5897671
vt 0.2032177 1.215769
vt 0.2132176 1.215769
vt 0.2132176 0.5897675
vt 0.2032177 0.5897675
vt 0.3102094 1.133705
vt 0.3202094 1.133705
vt 0.3202094 0.6336975
vt 0.3102094 0.6336975
vt 0.3195946 1.133705
vt 0.3295947 1.133705
vt 0.3295947 0.6336975
vt 0.3195946 0.6336975
vt 0.2882144 0.5999908
vt 0.286991 0.5999908
vt 0.286991 1.196643
vt 0.2882144 1.196643
vt 0.5142596 0.2739725
vt 0.5130364 0.2739727
vt 0.5130364 1.249839
vt 0.5142599 1.249839
vt 0.34828 0.6423617
vt 0.3470564 0.6423617
vt 0.3470564 1.117474
vt 0.34828 1.117474
vt 0.5268182 0.2739378
vt 0.5255948 0.2739378
vt 0.5255948 1.249874
vt 0.5268182 1.249874
vt 0.355788 0.6424614
vt 0.3545649 0.6424614
vt 0.3545649 1.117375
vt 0.355788 1.117375
vt 0.2431651 0.6000243
vt 0.2419418 0.6000243
vt 0.2419418 1.19661
vt 0.2431651 1.19661
vt 0.2581815 0.6000239
vt 0.2569582 0.6000239
vt 0.2569582 1.19661
vt 0.2581815 1.19661
vt 0.273198 0.5999909
vt 0.2719745 0.5999909
vt 0.2719745 1.196643
vt 0.273198 1.196643
vt 0.5443029 1.311151
vt 0.5527652 1.311151
vt 0.5527652 1.23793
vt 0.5612276 1.311151
vt 0.5527652 1.181149
vt 0.5443029 1.181149
vt 0.5612276 1.181149
vt 0.5527652 0.6122844
vt 0.5527652 0.1711418
vt 0.5443029 0.1711418
vt 0.5612276 0.1711418
vt 0.5527652 0.1035539
vt 0.5527652 0.0511409
vt 0.5443029 0.0511409
vt 0.5612276 0.0511409
vt 0.5527652 -0.2304751
vt 0.5443029 -0.4488623
vt 0.5612276 -0.4488623
vt 0.5527652 -0.4488623
vt 0.5527652 -0.5896699
vt 0.5443029 -0.6988631
vt 0.5612276 -0.6988631
vt 0.5527652 -0.6988631
vt 0.5330406 1.311153
vt 0.5415029 1.311153
vt 0.5415029 1.170345
vt 0.5499653 1.311153
vt 0.5415029 1.061151
vt 0.5330406 1.061151
vt 0.5499653 1.061151
vt 0.5415029 0.7795339
vt 0.5415029 0.561146
vt 0.5330406 0.561146
vt 0.5499653 0.561146
vt 0.5415029 0.4935581
vt 0.5330406 0.4411451
vt 0.5499653 0.4411451
vt 0.5415029 0.4411451
vt 0.5415029 -0.1277206
vt 0.5330406 -0.5688636
vt 0.5499653 -0.5688636
vt 0.5415029 -0.5688636
vt 0.5415029 -0.6420842
vt 0.5330406 -0.6988648
vt 0.5499653 -0.6988648
vt 0.5415029 -0.6988648
vt 0.5026143 1.023064
vt 0.489903 0.4117234
vt 0.4901091 1.008315
vt 0.502398 0.3970583
vt 0.002612695 1.021369
vt 0.01490144 0.4101129
vt 0.0151076 1.006704
vt 0.002396286 0.3953627
vt 0.5546405 -0.04045799
vt 0.5660472 0.9520597
vt 0.5692604 -0.02385646
vt 0.5512526 0.9695402
vt 1.180644 -0.04067436
vt 1.162636 0.9518536
vt 1.165849 -0.02406266
vt 1.177256 0.9693235
vt 0.3277194 0.5891742
vt 0.3152142 0.6039237
vt 0.3150082 1.200514
vt 0.3275032 1.215179
vt -0.172281 0.5908695
vt -0.1599921 1.202125
vt -0.159786 0.6055348
vt -0.1724972 1.216875
vt 0.9808685 -0.04045841
vt 0.9662486 -0.02385685
vt 0.9694616 0.9520602
vt 0.9842564 0.9695406
vt 0.3548646 -0.04067472
vt 0.3728721 0.951854
vt 0.3696597 -0.02406305
vt 0.358252 0.969324
usemtl Cream_wood
f 3/3/3 2/2/2 1/1/1
f 2/2/2 4/4/4 1/1/1
f 7/7/7 6/6/6 5/5/5
f 8/8/8 7/7/7 5/5/5
f 8/8/8 5/5/5 9/9/9
f 10/10/10 7/7/7 8/8/8
f 11/11/11 8/8/8 9/9/9
f 11/11/11 9/9/9 12/12/12
f 13/13/13 11/11/11 12/12/12
f 14/14/14 10/10/10 8/8/8
f 15/15/15 11/11/11 13/13/13
f 16/16/16 10/10/10 14/14/14
f 17/17/17 15/15/15 13/13/13
f 18/18/18 16/16/16 14/14/14
f 18/18/18 14/14/14 15/15/15
f 19/19/19 16/16/16 18/18/18
f 20/20/20 15/15/15 17/17/17
f 20/20/20 18/18/18 15/15/15
f 21/21/21 20/20/20 17/17/17
f 22/22/22 19/19/19 18/18/18
f 23/23/23 19/19/19 22/22/22
f 24/24/24 23/23/23 22/22/22
f 25/25/25 20/20/20 21/21/21
f 24/24/24 22/22/22 25/25/25
f 26/26/26 25/25/25 21/21/21
f 27/27/27 24/24/24 25/25/25
f 27/27/27 25/25/25 26/26/26
f 28/28/28 27/27/27 26/26/26
f 31/31/31 30/30/30 29/29/29
f 30/30/30 32/32/32 29/29/29
f 35/35/35 34/34/34 33/33/33
f 34/34/34 36/36/36 33/33/33
f 39/39/39 38/38/38 37/37/37
f 38/38/38 40/40/40 37/37/37
f 43/43/43 42/42/42 41/41/41
f 42/42/42 44/44/44 41/41/41
f 47/47/47 46/46/46 45/45/45
f 46/46/46 48/48/48 45/45/45
f 51/51/51 50/50/50 49/49/49
f 50/50/50 52/52/52 49/49/49
f 55/55/55 54/54/54 53/53/53
f 54/54/54 56/56/56 53/53/53
f 59/59/59 58/58/58 57/57/57
f 58/58/58 60/60/60 57/57/57
f 63/63/63 62/62/62 61/61/61
f 62/62/62 64/64/64 61/61/61
f 67/67/67 66/66/66 65/65/65
f 66/66/66 68/68/68 65/65/65
f 71/71/71 70/70/70 69/69/69
f 70/70/70 72/72/72 69/69/69
f 75/75/75 74/74/74 73/73/73
f 74/74/74 76/76/76 73/73/73
f 79/79/79 78/78/78 77/77/77
f 78/78/78 80/80/80 77/77/77
f 83/83/83 82/82/82 81/81/81
f 82/82/82 84/84/84 81/81/81
f 87/87/87 86/86/86 85/85/85
f 86/86/86 88/88/88 85/85/85
f 91/91/91 90/90/90 89/89/89
f 90/90/90 92/92/92 89/89/89
f 95/95/95 94/94/94 93/93/93
f 94/94/94 96/96/96 93/93/93
f 99/99/99 98/98/98 97/97/97
f 98/98/98 100/100/100 97/97/97
f 98/98/98 101/101/101 100/100/100
f 100/100/100 102/102/102 97/97/97
f 102/102/102 103/103/103 97/97/97
f 104/104/104 102/102/102 100/100/100
f 101/101/101 105/105/105 100/100/100
f 105/105/105 104/104/104 100/100/100
f 106/106/106 105/105/105 101/101/101
f 105/105/105 106/106/106 104/104/104
f 107/107/107 106/106/106 101/101/101
f 106/106/106 108/108/108 104/104/104
f 111/111/111 110/110/110 109/109/109
f 110/110/110 112/112/112 109/109/109
f 110/110/110 113/113/113 112/112/112
f 112/112/112 114/114/114 109/109/109
f 114/114/114 115/115/115 109/109/109
f 116/116/116 114/114/114 112/112/112
f 113/113/113 117/117/117 112/112/112
f 117/117/117 116/116/116 112/112/112
f 118/118/118 117/117/117 113/113/113
f 117/117/117 118/118/118 116/116/116
f 119/119/119 118/118/118 113/113/113
f 118/118/118 120/120/120 116/116/116
f 123/123/123 122/122/122 121/121/121
f 124/124/124 123/123/123 121/121/121
f 127/127/127 126/126/126 125/125/125
f 126/126/126 128/128/128 125/125/125
f 125/125/125 128/128/128 129/129/129
f 126/126/126 130/130/130 128/128/128
f 128/128/128 131/131/131 129/129/129
f 129/129/129 131/131/131 132/132/132
f 131/131/131 133/133/133 132/132/132
f 130/130/130 134/134/134 128/128/128
f 131/131/131 135/135/135 133/133/133
f 130/130/130 136/136/136 134/134/134
f 135/135/135 137/137/137 133/133/133
f 136/136/136 138/138/138 134/134/134
f 134/134/134 138/138/138 135/135/135
f 136/136/136 139/139/139 138/138/138
f 135/135/135 140/140/140 137/137/137
f 138/138/138 140/140/140 135/135/135
f 140/140/140 141/141/141 137/137/137
f 139/139/139 142/142/142 138/138/138
f 139/139/139 143/143/143 142/142/142
f 143/143/143 144/144/144 142/142/142
f 140/140/140 145/145/145 141/141/141
f 142/142/142 144/144/144 145/145/145
f 145/145/145 146/146/146 141/141/141
f 144/144/144 147/147/147 145/145/145
f 145/145/145 147/147/147 146/146/146
f 147/147/147 148/148/148 146/146/146
f 151/151/151 150/150/150 149/149/149
f 152/152/152 151/151/151 149/149/149
f 155/155/155 154/154/154 153/153/153
f 156/156/156 155/155/155 153/153/153
f 159/159/159 158/158/158 157/157/157
f 160/160/160 159/159/159 157/157/157
f 163/163/163 162/162/162 161/161/161
f 164/164/164 163/163/163 161/161/161
f 167/167/167 166/166/166 165/165/165
f 168/168/168 167/167/167 165/165/165
f 171/171/171 170/170/170 169/169/169
f 172/172/172 171/171/171 169/169/169
f 175/175/175 174/174/174 173/173/173
f 176/176/176 175/175/175 173/173/173
f 179/179/179 178/178/178 177/177/177
f 180/180/180 179/179/179 177/177/177
f 183/183/183 182/182/182 181/181/181
f 184/184/184 183/183/183 181/181/181
f 187/187/187 186/186/186 185/185/185
f 188/188/188 187/187/187 185/185/185
f 191/191/191 190/190/190 189/189/189
f 192/192/192 191/191/191 189/189/189
f 195/195/195 194/194/194 193/193/193
f 196/196/196 195/195/195 193/193/193
f 199/199/199 198/198/198 197/197/197
f 200/200/200 199/199/199 197/197/197
f 203/203/203 202/202/202 201/201/201
f 204/204/204 203/203/203 201/201/201
f 207/207/207 206/206/206 205/205/205
f 208/208/208 207/207/207 205/205/205
f 211/211/211 210/210/210 209/209/209
f 212/212/212 211/211/211 209/209/209
f 215/215/215 214/214/214 213/213/213
f 216/216/216 215/215/215 213/213/213
f 219/219/219 218/218/218 217/217/217
f 218/218/218 219/219/219 220/220/220
f 221/221/221 219/219/219 217/217/217
f 219/219/219 221/221/221 220/220/220
f 222/222/222 221/221/221 217/217/217
f 221/221/221 223/223/223 220/220/220
f 224/224/224 221/221/221 222/222/222
f 221/221/221 224/224/224 223/223/223
f 225/225/225 224/224/224 222/222/222
f 224/224/224 225/225/225 223/223/223
f 226/226/226 225/225/225 222/222/222
f 225/225/225 227/227/227 223/223/223
f 228/228/228 225/225/225 226/226/226
f 225/225/225 228/228/228 227/227/227
f 229/229/229 228/228/228 226/226/226
f 228/228/228 229/229/229 227/227/227
f 230/230/230 229/229/229 226/226/226
f 229/229/229 231/231/231 227/227/227
f 230/230/230 232/232/232 229/229/229
f 232/232/232 231/231/231 229/229/229
f 230/230/230 233/233/233 232/232/232
f 234/234/234 231/231/231 232/232/232
f 233/233/233 235/235/235 232/232/232
f 235/235/235 234/234/234 232/232/232
f 233/233/233 236/236/236 235/235/235
f 236/236/236 234/234/234 235/235/235
f 233/233/233 237/237/237 236/236/236
f 238/238/238 234/234/234 236/236/236
f 237/237/237 239/239/239 236/236/236
f 239/239/239 238/238/238 236/236/236
f 242/242/242 241/241/241 240/240/240
f 241/241/241 242/242/242 243/243/243
f 244/244/244 242/242/242 240/240/240
f 242/242/242 244/244/244 243/243/243
f 245/245/245 244/244/244 240/240/240
f 244/244/244 246/246/246 243/243/243
f 247/247/247 244/244/244 245/245/245
f 244/244/244 247/247/247 246/246/246
f 248/248/248 247/247/247 245/245/245
f 247/247/247 248/248/248 246/246/246
f 249/249/249 248/248/248 245/245/245
f 248/248/248 250/250/250 246/246/246
f 249/249/249 251/251/251 248/248/248
f 251/251/251 250/250/250 248/248/248
f 249/249/249 252/252/252 251/251/251
f 253/253/253 250/250/250 251/251/251
f 252/252/252 254/254/254 251/251/251
f 254/254/254 253/253/253 251/251/251
f 252/252/252 255/255/255 254/254/254
f 255/255/255 253/253/253 254/254/254
f 252/252/252 256/256/256 255/255/255
f 257/257/257 253/253/253 255/255/255
f 256/256/256 258/258/258 255/255/255
f 258/258/258 257/257/257 255/255/255
f 256/256/256 259/259/259 258/258/258
f 259/259/259 257/257/257 258/258/258
f 256/256/256 260/260/260 259/259/259
f 261/261/261 257/257/257 259/259/259
f 260/260/260 262/262/262 259/259/259
f 262/262/262 261/261/261 259/259/259
f 265/265/265 264/264/264 263/263/263
f 264/264/264 266/266/266 263/263/263
f 265/265/265 263/263/263 267/267/267
f 264/264/264 268/268/268 266/266/266
f 269/269/269 265/265/265 267/267/267
f 268/268/268 270/270/270 266/266/266
f 269/269/269 267/267/267 270/270/270
f 268/268/268 269/269/269 270/270/270
f 273/273/273 272/272/272 271/271/271
f 272/272/272 274/274/274 271/271/271
f 273/273/273 271/271/271 275/275/275
f 272/272/272 276/276/276 274/274/274
f 277/277/277 273/273/273 275/275/275
f 276/276/276 278/278/278 274/274/274
f 277/277/277 275/275/275 278/278/278
f 276/276/276 277/277/277 278/278/278
f 281/281/281 280/280/280 279/279/279
f 282/282/282 281/281/281 279/279/279
f 279/279/279 280/280/280 283/283/283
f 284/284/284 281/281/281 282/282/282
f 280/280/280 285/285/285 283/283/283
f 286/286/286 284/284/284 282/282/282
f 283/283/283 285/285/285 286/286/286
f 285/285/285 284/284/284 286/286/286
f 289/289/289 288/288/288 287/287/287
f 290/290/290 289/289/289 287/287/287
f 287/287/287 288/288/288 291/291/291
f 292/292/292 289/289/289 290/290/290
f 288/288/288 293/293/293 291/291/291
f 294/294/294 292/292/292 290/290/290
f 291/291/291 293/293/293 294/294/294
f 293/293/293 292/292/292 294/294/294
g FP228:Door.016_fb38f99d
v -0.01606 0.74919 2.2594
v -0.01606 0.24897 2.8871
v -0.01606 0.24919 2.26109
v -0.01606 0.74897 2.8854
v -0.01606 2.00898 2.88117
v -0.01606 2.00893 3.00506
v -0.01606 1.87893 3.00502
v -0.01606 1.87898 2.88161
v -0.01606 2.00919 2.25516
v -0.01606 0.86893 3.00467
v -0.01606 1.87919 2.2556
v -0.01606 2.00923 2.13906
v -0.01606 1.87923 2.13902
v -0.01606 0.86897 2.885
v -0.01606 0.86919 2.25899
v -0.01606 0.74893 3.00463
v -0.01606 0.86923 2.13867
v -0.01606 0.74897 2.8854
v -0.01606 0.24893 3.00446
v -0.01606 0.74919 2.2594
v -0.01606 0.74923 2.13863
v -0.01606 0.24897 2.8871
v -0.01606 -0.00106 3.00437
v -0.01606 -0.00103 2.88795
v -0.01606 0.24919 2.26109
v -0.01606 0.24923 2.13846
v -0.01606 -0.00081 2.26194
v -0.01606 -0.00077 2.13837
v -0.01606 0.86897 2.885
v -0.01606 1.87919 2.2556
v -0.01606 1.87898 2.88161
v -0.01606 0.86919 2.25899
v -0.01606 0.86919 2.25899
v -0.02606 1.87919 2.2556
v -0.02606 0.86919 2.25899
v -0.01606 1.87919 2.2556
v -0.01606 1.87919 2.2556
v -0.02606 1.87898 2.88161
v -0.02606 1.87919 2.2556
v -0.01606 1.87898 2.88161
v -0.01606 1.87898 2.88161
v -0.02606 0.86897 2.885
v -0.02606 1.87898 2.88161
v -0.01606 0.86897 2.885
v -0.01606 0.86897 2.885
v -0.02606 0.86919 2.25899
v -0.02606 0.86897 2.885
v -0.01606 0.86919 2.25899
v -0.01606 0.24897 2.8871
v -0.02606 0.24919 2.26109
v -0.02606 0.24897 2.8871
v -0.01606 0.24919 2.26109
v -0.01606 0.74919 2.2594
v -0.02606 0.74897 2.8854
v -0.02606 0.74919 2.2594
v -0.01606 0.74897 2.8854
v -0.01606 0.74897 2.8854
v -0.02606 0.24897 2.8871
v -0.02606 0.74897 2.8854
v -0.01606 0.24897 2.8871
v -0.01606 0.24919 2.26109
v -0.02606 0.74919 2.2594
v -0.02606 0.24919 2.26109
v -0.01606 0.74919 2.2594
v -0.02606 0.26148 2.87235
v -0.02484 0.26169 2.27576
v -0.02484 0.26148 2.87235
v -0.02606 0.26169 2.27576
v -0.02606 1.86151 2.86699
v -0.02484 0.88559 2.8702
v -0.02484 1.86151 2.86699
v -0.02606 0.88559 2.8702
v -0.02606 0.26169 2.27576
v -0.02484 0.73669 2.27415
v -0.02484 0.26169 2.27576
v -0.02606 0.73669 2.27415
v -0.02606 0.88579 2.27361
v -0.02484 1.86171 2.2704
v -0.02484 0.88579 2.27361
v -0.02606 1.86171 2.2704
v -0.02606 0.73648 2.87074
v -0.02484 0.26148 2.87235
v -0.02484 0.73648 2.87074
v -0.02606 0.26148 2.87235
v -0.02606 1.86171 2.2704
v -0.02484 1.86151 2.86699
v -0.02484 1.86171 2.2704
v -0.02606 1.86151 2.86699
v -0.02606 0.73669 2.27415
v -0.02484 0.73648 2.87074
v -0.02484 0.73669 2.27415
v -0.02606 0.73648 2.87074
v -0.02606 0.88559 2.8702
v -0.02484 0.88579 2.27361
v -0.02484 0.88559 2.8702
v -0.02606 0.88579 2.27361
v -0.0076 2.00923 2.13906
v -0.01606 2.00919 2.25516
v -0.01606 2.00923 2.13906
v -0.0076 2.00919 2.25516
v -0.01606 2.00898 2.88117
v 0.00086 2.00919 2.25516
v 0.00086 2.00923 2.13906
v 0.00086 2.00898 2.88117
v -0.0076 2.00898 2.88117
v -0.0076 2.00893 3.00506
v -0.01606 2.00893 3.00506
v 0.00086 2.00893 3.00506
v -0.0076 -0.00106 3.00437
v -0.01606 -0.00103 2.88795
v -0.01606 -0.00106 3.00437
v -0.0076 -0.00103 2.88795
v -0.01606 -0.00081 2.26194
v 0.00086 -0.00103 2.88795
v 0.00086 -0.00106 3.00437
v 0.00086 -0.00081 2.26194
v -0.0076 -0.00081 2.26194
v -0.0076 -0.00077 2.13837
v -0.01606 -0.00077 2.13837
v 0.00086 -0.00077 2.13837
v 0.00086 0.74919 2.2594
v 0.00086 0.24919 2.26109
v 0.00086 0.24897 2.8871
v 0.00086 0.74897 2.8854
v 0.00086 2.00898 2.88117
v 0.00086 1.87893 3.00502
v 0.00086 2.00893 3.00506
v 0.00086 1.87898 2.88161
v 0.00086 2.00919 2.25516
v 0.00086 0.86893 3.00467
v 0.00086 1.87919 2.2556
v 0.00086 2.00923 2.13906
v 0.00086 1.87923 2.13902
v 0.00086 0.86897 2.885
v 0.00086 0.86919 2.25899
v 0.00086 0.74893 3.00463
v 0.00086 0.86923 2.13867
v 0.00086 0.74897 2.8854
v 0.00086 0.24893 3.00446
v 0.00086 0.74919 2.2594
v 0.00086 0.74923 2.13863
v 0.00086 0.24897 2.8871
v 0.00086 -0.00106 3.00437
v 0.00086 -0.00103 2.88795
v 0.00086 0.24919 2.26109
v 0.00086 0.24923 2.13846
v 0.00086 -0.00081 2.26194
v 0.00086 -0.00077 2.13837
v 0.00086 0.86897 2.885
v 0.00086 1.87898 2.88161
v 0.00086 1.87919 2.2556
v 0.00086 0.86919 2.25899
v 0.00086 0.86919 2.25899
v 0.01086 0.86919 2.25899
v 0.01086 1.87919 2.2556
v 0.00086 1.87919 2.2556
v 0.00086 1.87919 2.2556
v 0.01086 1.87919 2.2556
v 0.01086 1.87898 2.88161
v 0.00086 1.87898 2.88161
v 0.00086 1.87898 2.88161
v 0.01086 1.87898 2.88161
v 0.01086 0.86897 2.885
v 0.00086 0.86897 2.885
v 0.00086 0.86897 2.885
v 0.01086 0.86897 2.885
v 0.01086 0.86919 2.25899
v 0.00086 0.86919 2.25899
v 0.00086 0.24897 2.8871
v 0.01086 0.24897 2.8871
v 0.01086 0.24919 2.26109
v 0.00086 0.24919 2.26109
v 0.00086 0.74919 2.2594
v 0.01086 0.74919 2.2594
v 0.01086 0.74897 2.8854
v 0.00086 0.74897 2.8854
v 0.00086 0.74897 2.8854
v 0.01086 0.74897 2.8854
v 0.01086 0.24897 2.8871
v 0.00086 0.24897 2.8871
v 0.00086 0.24919 2.26109
v 0.01086 0.24919 2.26109
v 0.01086 0.74919 2.2594
v 0.00086 0.74919 2.2594
v 0.01086 0.26148 2.87235
v 0.00964 0.26148 2.87235
v 0.00964 0.26169 2.27576
v 0.01086 0.26169 2.27576
v 0.01086 1.86151 2.86699
v 0.00964 1.86151 2.86699
v 0.00964 0.88559 2.8702
v 0.01086 0.88559 2.8702
v 0.01086 0.26169 2.27576
v 0.00964 0.26169 2.27576
v 0.00964 0.73669 2.27415
v 0.01086 0.73669 2.27415
v 0.01086 0.88579 2.27361
v 0.00964 0.88579 2.27361
v 0.00964 1.86171 2.2704
v 0.01086 1.86171 2.2704
v 0.01086 0.73648 2.87074
v 0.00964 0.73648 2.87074
v 0.00964 0.26148 2.87235
v 0.01086 0.26148 2.87235
v 0.01086 1.86171 2.2704
v 0.00964 1.86171 2.2704
v 0.00964 1.86151 2.86699
v 0.01086 1.86151 2.86699
v 0.01086 0.73669 2.27415
v 0.00964 0.73669 2.27415
v 0.00964 0.73648 2.87074
v 0.01086 0.73648 2.87074
v 0.01086 0.88559 2.8702
v 0.00964 0.88559 2.8702
v 0.00964 0.88579 2.27361
v 0.01086 0.88579 2.27361
v -0.01606 2.00893 3.00506
v -0.0076 2.00893 3.00506
v -0.0076 1.93571 3.00504
v 0.00086 2.00893 3.00506
v -0.0076 1.87893 3.00502
v -0.01606 1.87893 3.00502
v 0.00086 1.87893 3.00502
v -0.0076 1.31007 3.00482
v -0.0076 0.86893 3.00467
v -0.01606 0.86893 3.00467
v 0.00086 0.86893 3.00467
v -0.0076 0.80135 3.00465
v -0.0076 0.74893 3.00463
v -0.01606 0.74893 3.00463
v 0.00086 0.74893 3.00463
v -0.0076 0.46732 3.00453
v -0.01606 0.24893 3.00446
v 0.00086 0.24893 3.00446
v -0.0076 0.24893 3.00446
v -0.0076 0.10813 3.00441
v -0.01606 -0.00106 3.00437
v 0.00086 -0.00106 3.00437
v -0.0076 -0.00106 3.00437
v -0.01606 -0.00077 2.13837
v -0.0076 -0.00077 2.13837
v -0.0076 0.14004 2.13842
v 0.00086 -0.00077 2.13837
v -0.0076 0.24923 2.13846
v -0.01606 0.24923 2.13846
v 0.00086 0.24923 2.13846
v -0.0076 0.53085 2.13855
v -0.0076 0.74923 2.13863
v -0.01606 0.74923 2.13863
v 0.00086 0.74923 2.13863
v -0.0076 0.81682 2.13865
v -0.01606 0.86923 2.13867
v 0.00086 0.86923 2.13867
v -0.0076 0.86923 2.13867
v -0.0076 1.43809 2.13887
v -0.01606 1.87923 2.13902
v 0.00086 1.87923 2.13902
v -0.0076 1.87923 2.13902
v -0.0076 1.95245 2.13904
v -0.01606 2.00923 2.13906
v 0.00086 2.00923 2.13906
v -0.0076 2.00923 2.13906
v -0.02606 0.74919 2.2594
v -0.02606 0.73648 2.87074
v -0.02606 0.73669 2.27415
v -0.02606 0.74897 2.8854
v -0.02606 0.24919 2.26109
v -0.02606 0.26148 2.87235
v -0.02606 0.26169 2.27576
v -0.02606 0.24897 2.8871
v -0.02606 0.86919 2.25899
v -0.02606 1.86171 2.2704
v -0.02606 0.88579 2.27361
v -0.02606 1.87919 2.2556
v -0.02606 0.86897 2.885
v -0.02606 1.86151 2.86699
v -0.02606 0.88559 2.8702
v -0.02606 1.87898 2.88161
v 0.01086 0.74919 2.2594
v 0.01086 0.73669 2.27415
v 0.01086 0.73648 2.87074
v 0.01086 0.74897 2.8854
v 0.01086 0.24919 2.26109
v 0.01086 0.26148 2.87235
v 0.01086 0.26169 2.27576
v 0.01086 0.24897 2.8871
v 0.01086 0.86919 2.25899
v 0.01086 0.88579 2.27361
v 0.01086 1.86171 2.2704
v 0.01086 1.87919 2.2556
v 0.01086 0.86897 2.885
v 0.01086 1.86151 2.86699
v 0.01086 0.88559 2.8702
v 0.01086 1.87898 2.88161
vn -0.5849528 1.004079 2.138364
vn -0.5849528 1.004079 2.138364
vn -0.5849528 1.004079 2.138364
vn -0.5849528 1.004079 2.138364
vn -0.5849528 1.004079 2.138364
vn -0.5849528 1.004079 2.138364
vn -0.5849528 1.004079 2.138364
vn -0.5849528 1.004079 2.138364
vn -0.5849528 1.004079 2.138364
vn -0.5849528 1.004079 2.138364
vn -0.5849528 1.004079 2.138364
vn -0.5849528 1.004079 2.138364
vn -0.5849528 1.004079 2.138364
vn -0.5849528 1.004079 2.138364
vn -0.5849528 1.004079 2.138364
vn -0.5849528 1.004079 2.138364
vn -0.5849528 1.004079 2.138364
vn -0.5849528 1.004079 2.138364
vn -0.5849528 1.004079 2.138364
vn -0.5849528 1.004079 2.138364
vn -0.5849528 1.004079 2.138364
vn -0.5849528 1.004079 2.138364
vn -0.5849528 1.004079 2.138364
vn -0.5849528 1.004079 2.138364
vn -0.5849528 1.004079 2.138364
vn -0.5849528 1.004079 2.138364
vn -0.5849528 1.004079 2.138364
vn -0.5849528 1.004079 2.138364
vn -0.5849528 1.004079 2.138364
vn -0.5849528 1.004079 2.138364
vn -0.5849528 1.004079 2.138364
vn -0.5849528 1.004079 2.138364
vn -0.007602507 1.002143 1.561017
vn -0.007602507 1.002143 1.561017
vn -0.007602507 1.002143 1.561017
vn -0.007602507 1.002143 1.561017
vn -0.007602507 1.581429 2.138563
vn -0.007602507 1.581429 2.138563
vn -0.007602507 1.581429 2.138563
vn -0.007602507 1.581429 2.138563
vn -0.007602507 1.006016 2.715711
vn -0.007602507 1.006016 2.715711
vn -0.007602507 1.006016 2.715711
vn -0.007602507 1.006016 2.715711
vn -0.007602507 0.4267287 2.138164
vn -0.007602507 0.4267287 2.138164
vn -0.007602507 0.4267287 2.138164
vn -0.007602507 0.4267287 2.138164
vn -0.007602507 0.4267287 2.138164
vn -0.007602507 0.4267287 2.138164
vn -0.007602507 0.4267287 2.138164
vn -0.007602507 0.4267287 2.138164
vn -0.007602507 1.581429 2.138563
vn -0.007602507 1.581429 2.138563
vn -0.007602507 1.581429 2.138563
vn -0.007602507 1.581429 2.138563
vn -0.007602507 1.006037 2.715711
vn -0.007602507 1.006037 2.715711
vn -0.007602507 1.006037 2.715711
vn -0.007602507 1.006037 2.715711
vn -0.007602507 1.002121 1.561017
vn -0.007602507 1.002121 1.561017
vn -0.007602507 1.002121 1.561017
vn -0.007602507 1.002121 1.561017
vn -0.007602507 1.581429 2.138563
vn -0.007602507 1.581429 2.138563
vn -0.007602507 1.581429 2.138563
vn -0.007602507 1.581429 2.138563
vn -0.007602507 1.002178 1.561016
vn -0.007602507 1.002178 1.561016
vn -0.007602507 1.002178 1.561016
vn -0.007602507 1.002178 1.561016
vn -0.007602507 1.006037 2.715711
vn -0.007602507 1.006037 2.715711
vn -0.007602507 1.006037 2.715711
vn -0.007602507 1.006037 2.715711
vn -0.007602507 1.00598 2.715711
vn -0.007602507 1.00598 2.715711
vn -0.007602507 1.00598 2.715711
vn -0.007602507 1.00598 2.715711
vn -0.007602507 1.002121 1.561017
vn -0.007602507 1.002121 1.561017
vn -0.007602507 1.002121 1.561017
vn -0.007602507 1.002121 1.561017
vn -0.007602507 0.4267287 2.138164
vn -0.007602507 0.4267287 2.138164
vn -0.007602507 0.4267287 2.138164
vn -0.007602507 0.4267287 2.138164
vn -0.007602507 0.4267287 2.138164
vn -0.007602507 0.4267287 2.138164
vn -0.007602507 0.4267287 2.138164
vn -0.007602507 0.4267287 2.138164
vn -0.007602507 1.581429 2.138563
vn -0.007602507 1.581429 2.138563
vn -0.007602507 1.581429 2.138563
vn -0.007602507 1.581429 2.138563
vn -0.007602507 1.581429 2.138564
vn -0.007602507 1.581429 2.138563
vn -0.007602507 1.581429 2.138563
vn -0.007602507 1.581429 2.138563
vn -0.007602507 1.581429 2.138563
vn -0.007602507 1.581429 2.138563
vn -0.007602507 1.581429 2.138563
vn -0.007602507 1.581429 2.138563
vn -0.007602507 1.581429 2.138563
vn -0.007602507 1.581429 2.138564
vn -0.007602507 1.581429 2.138563
vn -0.007602507 1.581429 2.138563
vn -0.007602507 0.4267287 2.138174
vn -0.007602507 0.4267287 2.138164
vn -0.007602507 0.4267287 2.138176
vn -0.007602507 0.4267287 2.138166
vn -0.007602507 0.4267287 2.138164
vn -0.007602507 0.4267287 2.138164
vn -0.007602507 0.4267287 2.138176
vn -0.007602507 0.4267287 2.138164
vn -0.007602507 0.4267287 2.138164
vn -0.007602507 0.4267287 2.138164
vn -0.007602507 0.4267287 2.138164
vn -0.007602507 0.4267287 2.138164
vn 0.5697477 1.004079 2.138364
vn 0.5697477 1.004079 2.138364
vn 0.5697477 1.004079 2.138364
vn 0.5697477 1.004079 2.138364
vn 0.5697477 1.004079 2.138364
vn 0.5697477 1.004079 2.138364
vn 0.5697477 1.004079 2.138364
vn 0.5697477 1.004079 2.138364
vn 0.5697477 1.004079 2.138364
vn 0.5697477 1.004079 2.138364
vn 0.5697477 1.004079 2.138364
vn 0.5697477 1.004079 2.138364
vn 0.5697477 1.004079 2.138364
vn 0.5697477 1.004079 2.138364
vn 0.5697477 1.004079 2.138364
vn 0.5697477 1.004079 2.138364
vn 0.5697477 1.004079 2.138364
vn 0.5697477 1.004079 2.138364
vn 0.5697477 1.004079 2.138364
vn 0.5697477 1.004079 2.138364
vn 0.5697477 1.004079 2.138364
vn 0.5697477 1.004079 2.138364
vn 0.5697477 1.004079 2.138364
vn 0.5697477 1.004079 2.138364
vn 0.5697477 1.004079 2.138364
vn 0.5697477 1.004079 2.138364
vn 0.5697477 1.004079 2.138364
vn 0.5697477 1.004079 2.138364
vn 0.5697477 1.004079 2.138364
vn 0.5697477 1.004079 2.138364
vn 0.5697477 1.004079 2.138364
vn 0.5697477 1.004079 2.138364
vn -0.007602507 1.002143 1.561017
vn -0.007602507 1.002143 1.561017
vn -0.007602507 1.002143 1.561017
vn -0.007602507 1.002143 1.561017
vn -0.007602507 1.581429 2.138563
vn -0.007602507 1.581429 2.138563
vn -0.007602507 1.581429 2.138563
vn -0.007602507 1.581429 2.138563
vn -0.007602507 1.006016 2.715711
vn -0.007602507 1.006016 2.715711
vn -0.007602507 1.006016 2.715711
vn -0.007602507 1.006016 2.715711
vn -0.007602507 0.4267287 2.138164
vn -0.007602507 0.4267287 2.138164
vn -0.007602507 0.4267287 2.138164
vn -0.007602507 0.4267287 2.138164
vn -0.007602507 0.4267287 2.138164
vn -0.007602507 0.4267287 2.138164
vn -0.007602507 0.4267287 2.138164
vn -0.007602507 0.4267287 2.138164
vn -0.007602507 1.581429 2.138563
vn -0.007602507 1.581429 2.138563
vn -0.007602507 1.581429 2.138563
vn -0.007602507 1.581429 2.138563
vn -0.007602507 1.006037 2.715711
vn -0.007602507 1.006037 2.715711
vn -0.007602507 1.006037 2.715711
vn -0.007602507 1.006037 2.715711
vn -0.007602507 1.002121 1.561017
vn -0.007602507 1.002121 1.561017
vn -0.007602507 1.002121 1.561017
vn -0.007602507 1.002121 1.561017
vn -0.007602507 1.581429 2.138563
vn -0.007602507 1.581429 2.138563
vn -0.007602507 1.581429 2.138563
vn -0.007602507 1.581429 2.138563
vn -0.007602507 1.002178 1.561016
vn -0.007602507 1.002178 1.561016
vn -0.007602507 1.002178 1.561016
vn -0.007602507 1.002178 1.561016
vn -0.007602507 1.006037 2.715711
vn -0.007602507 1.006037 2.715711
vn -0.007602507 1.006037 2.715711
vn -0.007602507 1.006037 2.715711
vn -0.007602507 1.00598 2.715711
vn -0.007602507 1.00598 2.715711
vn -0.007602507 1.00598 2.715711
vn -0.007602507 1.00598 2.715711
vn -0.007602507 1.002121 1.561017
vn -0.007602507 1.002121 1.561017
vn -0.007602507 1.002121 1.561017
vn -0.007602507 1.002121 1.561017
vn -0.007602507 0.4267287 2.138164
vn -0.007602507 0.4267287 2.138164
vn -0.007602507 0.4267287 2.138164
vn -0.007602507 0.4267287 2.138164
vn -0.007602507 0.4267287 2.138164
vn -0.007602507 0.4267287 2.138164
vn -0.007602507 0.4267287 2.138164
vn -0.007602507 0.4267287 2.138164
vn -0.007602507 1.581429 2.138563
vn -0.007602507 1.581429 2.138563
vn -0.007602507 1.581429 2.138563
vn -0.007602507 1.581429 2.138563
vn -0.007602507 1.003879 2.715714
vn -0.007602507 1.003879 2.715714
vn -0.00759372 1.00388 2.715714
vn -0.007602507 1.003879 2.715714
vn -0.007600302 1.00388 2.715714
vn -0.007602507 1.003879 2.715714
vn -0.007602507 1.003879 2.715714
vn -0.007611672 1.003879 2.715714
vn -0.007611281 1.003879 2.715714
vn -0.007602507 1.003879 2.715714
vn -0.007602507 1.003879 2.715714
vn -0.007602507 1.003879 2.715714
vn -0.007602507 1.00388 2.715714
vn -0.007602507 1.003879 2.715714
vn -0.007602507 1.003879 2.715714
vn -0.007602507 1.003879 2.715714
vn -0.007602507 1.003879 2.715714
vn -0.007602507 1.003879 2.715714
vn -0.00760318 1.003879 2.715714
vn -0.007602507 1.003879 2.715714
vn -0.007602507 1.003879 2.715714
vn -0.007602507 1.003879 2.715714
vn -0.007602507 1.003879 2.715714
vn -0.007602507 1.004279 1.561013
vn -0.007602507 1.004278 1.561013
vn -0.007597905 1.004279 1.561013
vn -0.007602507 1.004279 1.561013
vn -0.007600763 1.004279 1.561013
vn -0.007602507 1.004279 1.561013
vn -0.007602507 1.004279 1.561013
vn -0.007602507 1.004279 1.561013
vn -0.007602507 1.004279 1.561013
vn -0.007602507 1.004279 1.561013
vn -0.007602507 1.004279 1.561013
vn -0.007602507 1.004279 1.561013
vn -0.007602507 1.004279 1.561013
vn -0.007602507 1.004279 1.561013
vn -0.007602507 1.004279 1.561013
vn -0.007602507 1.004278 1.561013
vn -0.007602507 1.004279 1.561013
vn -0.007602507 1.004279 1.561013
vn -0.007602507 1.004278 1.561013
vn -0.007602507 1.004279 1.561013
vn -0.007602507 1.004279 1.561013
vn -0.007602507 1.004279 1.561013
vn -0.007602507 1.004279 1.561013
vn -0.5849528 1.004079 2.138364
vn -0.5849528 1.004079 2.138364
vn -0.5849528 1.004079 2.138364
vn -0.5849528 1.004079 2.138364
vn -0.5849528 1.004079 2.138364
vn -0.5849528 1.004079 2.138364
vn -0.5849528 1.004079 2.138364
vn -0.5849528 1.004079 2.138364
vn -0.5849528 1.004079 2.138364
vn -0.5849528 1.004079 2.138364
vn -0.5849528 1.004079 2.138364
vn -0.5849528 1.004079 2.138364
vn -0.5849528 1.004079 2.138364
vn -0.5849528 1.004079 2.138364
vn -0.5849528 1.004079 2.138364
vn -0.5849528 1.004079 2.138364
vn 0.5697477 1.004079 2.138364
vn 0.5697477 1.004079 2.138364
vn 0.5697477 1.004079 2.138364
vn 0.5697477 1.004079 2.138364
vn 0.5697477 1.004079 2.138364
vn 0.5697477 1.004079 2.138364
vn 0.5697477 1.004079 2.138364
vn 0.5697477 1.004079 2.138364
vn 0.5697477 1.004079 2.138364
vn 0.5697477 1.004079 2.138364
vn 0.5697477 1.004079 2.138364
vn 0.5697477 1.004079 2.138364
vn 0.5697477 1.004079 2.138364
vn 0.5697477 1.004079 2.138364
vn 0.5697477 1.004079 2.138364
vn 0.5697477 1.004079 2.138364
vt 0.6599081 1.023064
vt 0.1596908 0.3953633
vt 0.1599073 1.021369
vt 0.6596918 0.3970588
vt 0.4425176 1.311081
vt 0.5664136 1.311038
vt 0.5663685 1.181038
vt 0.4429588 1.181081
vt -0.183488 1.311297
vt 0.5660195 0.1710386
vt -0.1830469 1.181298
vt -0.2995862 1.311337
vt -0.2996311 1.181338
vt 0.4463462 0.17108
vt -0.179659 0.1712963
vt 0.5659781 0.05103862
vt -0.29998 0.1713378
vt 0.4467532 0.05107996
vt 0.5658053 -0.4489606
vt -0.1792521 0.05129629
vt -0.3000216 0.05133796
vt 0.4484489 -0.4489207
vt 0.5657189 -0.6989594
vt 0.4492962 -0.6989212
vt -0.1775566 -0.4487043
vt -0.3001945 -0.448662
vt -0.1767092 -0.6987048
vt -0.300281 -0.698662
vt 0.9714026 -0.3502512
vt 0.3420095 0.6599663
vt 0.9680153 0.6597497
vt 0.3453974 -0.3500349
vt 0.5718989 0.9693979
vt 0.5618989 -0.04059726
vt 0.5618989 0.9693979
vt 0.5718989 -0.04059732
vt 0.1662914 1.215765
vt 0.1562915 0.589771
vt 0.1562915 1.215765
vt 0.1662914 0.589771
vt 0.5540283 1.271974
vt 0.5440281 0.261972
vt 0.5440281 1.271974
vt 0.5540283 0.261972
vt 0.2226029 1.215773
vt 0.2126029 0.5897635
vt 0.2126029 1.215773
vt 0.2226029 0.5897635
vt 0.1850619 1.215769
vt 0.175062 0.5897671
vt 0.175062 1.215769
vt 0.1850619 0.5897671
vt 0.2038324 1.215773
vt 0.1938324 0.5897634
vt 0.1938324 1.215773
vt 0.2038324 0.5897634
vt 0.301439 1.133705
vt 0.2914389 0.6336975
vt 0.2914389 1.133705
vt 0.301439 0.6336975
vt 0.3108242 1.133705
vt 0.3008242 0.6336975
vt 0.3008242 1.133705
vt 0.3108242 0.6336975
vt 0.2794827 0.599991
vt 0.2807062 1.196643
vt 0.2807062 0.599991
vt 0.2794827 1.196643
vt 0.5193158 0.2739727
vt 0.520539 1.249839
vt 0.520539 0.2739729
vt 0.5193158 1.249839
vt 0.3320402 0.6424283
vt 0.3332635 1.117408
vt 0.3332635 0.6424283
vt 0.3320402 1.117408
vt 0.5318741 0.273938
vt 0.5330973 1.249874
vt 0.5330973 0.273938
vt 0.5318741 1.249874
vt 0.3395484 0.6424283
vt 0.3407716 1.117408
vt 0.3407716 0.6424283
vt 0.3395484 1.117408
vt 0.2344337 0.6000245
vt 0.235657 1.19661
vt 0.235657 0.6000245
vt 0.2344337 1.19661
vt 0.2494501 0.600057
vt 0.2506733 1.196577
vt 0.2506733 0.600057
vt 0.2494501 1.196577
vt 0.2644666 0.6000574
vt 0.2656896 1.196577
vt 0.2656896 0.6000574
vt 0.2644666 1.196577
vt 0.5049929 1.178278
vt 0.4965306 1.062179
vt 0.4965306 1.178278
vt 0.5049929 1.062179
vt 0.4965306 0.436165
vt 0.5134553 1.062179
vt 0.5134553 1.178278
vt 0.5134553 0.436165
vt 0.5049929 0.436165
vt 0.5049929 0.3122674
vt 0.4965306 0.3122674
vt 0.5134553 0.3122674
vt 0.493962 1.178274
vt 0.4854997 1.061851
vt 0.4854997 1.178274
vt 0.493962 1.061851
vt 0.4854997 0.4358442
vt 0.5024244 1.061851
vt 0.5024244 1.178274
vt 0.5024244 0.4358442
vt 0.493962 0.4358442
vt 0.493962 0.3122721
vt 0.4854997 0.3122721
vt 0.5024244 0.3122721
vt 0.3453196 0.3953633
vt -0.1546809 0.3970588
vt -0.1548975 1.023064
vt 0.3451034 1.021369
vt 0.09222054 1.311081
vt -0.03163043 1.181038
vt -0.03167552 1.311038
vt 0.09177938 1.181081
vt 0.7182262 1.311297
vt -0.03128132 0.1710385
vt 0.7177851 1.181298
vt 0.8343245 1.311338
vt 0.8343694 1.181338
vt 0.08839202 0.17108
vt 0.7143973 0.1712963
vt -0.03123996 0.05103859
vt 0.8347182 0.1713378
vt 0.08798495 0.0510799
vt -0.03106722 -0.4489607
vt 0.7139904 0.05129626
vt 0.8347598 0.05133793
vt 0.08628929 -0.4489208
vt -0.03098077 -0.6989596
vt 0.08544201 -0.6989213
vt 0.7122949 -0.4487045
vt 0.8349327 -0.4486621
vt 0.7114474 -0.698705
vt 0.8350192 -0.6986623
vt 0.5390995 -0.3502513
vt 0.5424868 0.6597499
vt 1.168493 0.6599665
vt 1.165105 -0.350035
vt 0.5529635 1.271982
vt 0.5629636 1.271982
vt 0.5629636 0.2619632
vt 0.5529635 0.261963
vt 0.1656767 1.215773
vt 0.1756767 1.215773
vt 0.1756767 0.5897629
vt 0.1656767 0.5897629
vt 0.5350928 1.271982
vt 0.5450929 1.271982
vt 0.5450929 0.2619638
vt 0.5350928 0.2619638
vt 0.2219881 1.215773
vt 0.2319882 1.215773
vt 0.2319882 0.5897635
vt 0.2219881 0.5897635
vt 0.1844472 1.215769
vt 0.1944471 1.215769
vt 0.1944471 0.5897671
vt 0.1844472 0.5897671
vt 0.2032177 1.215769
vt 0.2132176 1.215769
vt 0.2132176 0.5897675
vt 0.2032177 0.5897675
vt 0.3102094 1.133705
vt 0.3202094 1.133705
vt 0.3202094 0.6336975
vt 0.3102094 0.6336975
vt 0.3195946 1.133705
vt 0.3295947 1.133705
vt 0.3295947 0.6336975
vt 0.3195946 0.6336975
vt 0.2882144 0.5999908
vt 0.286991 0.5999908
vt 0.286991 1.196643
vt 0.2882144 1.196643
vt 0.5142596 0.2739725
vt 0.5130364 0.2739727
vt 0.5130364 1.249839
vt 0.5142599 1.249839
vt 0.34828 0.6423617
vt 0.3470564 0.6423617
vt 0.3470564 1.117474
vt 0.34828 1.117474
vt 0.5268182 0.2739378
vt 0.5255948 0.2739378
vt 0.5255948 1.249874
vt 0.5268182 1.249874
vt 0.355788 0.6424614
vt 0.3545649 0.6424614
vt 0.3545649 1.117375
vt 0.355788 1.117375
vt 0.2431651 0.6000243
vt 0.2419418 0.6000243
vt 0.2419418 1.19661
vt 0.2431651 1.19661
vt 0.2581815 0.6000239
vt 0.2569582 0.6000239
vt 0.2569582 1.19661
vt 0.2581815 1.19661
vt 0.273198 0.5999909
vt 0.2719745 0.5999909
vt 0.2719745 1.196643
vt 0.273198 1.196643
vt 0.5443029 1.311151
vt 0.5527652 1.311151
vt 0.5527652 1.23793
vt 0.5612276 1.311151
vt 0.5527652 1.181149
vt 0.5443029 1.181149
vt 0.5612276 1.181149
vt 0.5527652 0.6122844
vt 0.5527652 0.1711418
vt 0.5443029 0.1711418
vt 0.5612276 0.1711418
vt 0.5527652 0.1035539
vt 0.5527652 0.0511409
vt 0.5443029 0.0511409
vt 0.5612276 0.0511409
vt 0.5527652 -0.2304751
vt 0.5443029 -0.4488623
vt 0.5612276 -0.4488623
vt 0.5527652 -0.4488623
vt 0.5527652 -0.5896699
vt 0.5443029 -0.6988631
vt 0.5612276 -0.6988631
vt 0.5527652 -0.6988631
vt 0.5330406 1.311153
vt 0.5415029 1.311153
vt 0.5415029 1.170345
vt 0.5499653 1.311153
vt 0.5415029 1.061151
vt 0.5330406 1.061151
vt 0.5499653 1.061151
vt 0.5415029 0.7795339
vt 0.5415029 0.561146
vt 0.5330406 0.561146
vt 0.5499653 0.561146
vt 0.5415029 0.4935581
vt 0.5330406 0.4411451
vt 0.5499653 0.4411451
vt 0.5415029 0.4411451
vt 0.5415029 -0.1277206
vt 0.5330406 -0.5688636
vt 0.5499653 -0.5688636
vt 0.5415029 -0.5688636
vt 0.5415029 -0.6420842
vt 0.5330406 -0.6988648
vt 0.5499653 -0.6988648
vt 0.5415029 -0.6988648
vt 0.5026143 1.023064
vt 0.489903 0.4117234
vt 0.4901091 1.008315
vt 0.502398 0.3970583
vt 0.002612695 1.021369
vt 0.01490144 0.4101129
vt 0.0151076 1.006704
vt 0.002396286 0.3953627
vt 0.5546405 -0.04045799
vt 0.5660472 0.9520597
vt 0.5692604 -0.02385646
vt 0.5512526 0.9695402
vt 1.180644 -0.04067436
vt 1.162636 0.9518536
vt 1.165849 -0.02406266
vt 1.177256 0.9693235
vt 0.3277194 0.5891742
vt 0.3152142 0.6039237
vt 0.3150082 1.200514
vt 0.3275032 1.215179
vt -0.172281 0.5908695
vt -0.1599921 1.202125
vt -0.159786 0.6055348
vt -0.1724972 1.216875
vt 0.9808685 -0.04045841
vt 0.9662486 -0.02385685
vt 0.9694616 0.9520602
vt 0.9842564 0.9695406
vt 0.3548646 -0.04067472
vt 0.3728721 0.951854
vt 0.3696597 -0.02406305
vt 0.358252 0.969324
usemtl Cream_wood
f 297/297/297 296/296/296 295/295/295
f 296/296/296 298/298/298 295/295/295
f 301/301/301 300/300/300 299/299/299
f 302/302/302 301/301/301 299/299/299
f 302/302/302 299/299/299 303/303/303
f 304/304/304 301/301/301 302/302/302
f 305/305/305 302/302/302 303/303/303
f 305/305/305 303/303/303 306/306/306
f 307/307/307 305/305/305 306/306/306
f 308/308/308 304/304/304 302/302/302
f 309/309/309 305/305/305 307/307/307
f 310/310/310 304/304/304 308/308/308
f 311/311/311 309/309/309 307/307/307
f 312/312/312 310/310/310 308/308/308
f 312/312/312 308/308/308 309/309/309
f 313/313/313 310/310/310 312/312/312
f 314/314/314 309/309/309 311/311/311
f 314/314/314 312/312/312 309/309/309
f 315/315/315 314/314/314 311/311/311
f 316/316/316 313/313/313 312/312/312
f 317/317/317 313/313/313 316/316/316
f 318/318/318 317/317/317 316/316/316
f 319/319/319 314/314/314 315/315/315
f 318/318/318 316/316/316 319/319/319
f 320/320/320 319/319/319 315/315/315
f 321/321/321 318/318/318 319/319/319
f 321/321/321 319/319/319 320/320/320
f 322/322/322 321/321/321 320/320/320
f 325/325/325 324/324/324 323/323/323
f 324/324/324 326/326/326 323/323/323
f 329/329/329 328/328/328 327/327/327
f 328/328/328 330/330/330 327/327/327
f 333/333/333 332/332/332 331/331/331
f 332/332/332 334/334/334 331/331/331
f 337/337/337 336/336/336 335/335/335
f 336/336/336 338/338/338 335/335/335
f 341/341/341 340/340/340 339/339/339
f 340/340/340 342/342/342 339/339/339
f 345/345/345 344/344/344 343/343/343
f 344/344/344 346/346/346 343/343/343
f 349/349/349 348/348/348 347/347/347
f 348/348/348 350/350/350 347/347/347
f 353/353/353 352/352/352 351/351/351
f 352/352/352 354/354/354 351/351/351
f 357/357/357 356/356/356 355/355/355
f 356/356/356 358/358/358 355/355/355
f 361/361/361 360/360/360 359/359/359
f 360/360/360 362/362/362 359/359/359
f 365/365/365 364/364/364 363/363/363
f 364/364/364 366/366/366 363/363/363
f 369/369/369 368/368/368 367/367/367
f 368/368/368 370/370/370 367/367/367
f 373/373/373 372/372/372 371/371/371
f 372/372/372 374/374/374 371/371/371
f 377/377/377 376/376/376 375/375/375
f 376/376/376 378/378/378 375/375/375
f 381/381/381 380/380/380 379/379/379
f 380/380/380 382/382/382 379/379/379
f 385/385/385 384/384/384 383/383/383
f 384/384/384 386/386/386 383/383/383
f 389/389/389 388/388/388 387/387/387
f 388/388/388 390/390/390 387/387/387
f 393/393/393 392/392/392 391/391/391
f 392/392/392 394/394/394 391/391/391
f 392/392/392 395/395/395 394/394/394
f 394/394/394 396/396/396 391/391/391
f 396/396/396 397/397/397 391/391/391
f 398/398/398 396/396/396 394/394/394
f 395/395/395 399/399/399 394/394/394
f 399/399/399 398/398/398 394/394/394
f 400/400/400 399/399/399 395/395/395
f 399/399/399 400/400/400 398/398/398
f 401/401/401 400/400/400 395/395/395
f 400/400/400 402/402/402 398/398/398
f 405/405/405 404/404/404 403/403/403
f 404/404/404 406/406/406 403/403/403
f 404/404/404 407/407/407 406/406/406
f 406/406/406 408/408/408 403/403/403
f 408/408/408 409/409/409 403/403/403
f 410/410/410 408/408/408 406/406/406
f 407/407/407 411/411/411 406/406/406
f 411/411/411 410/410/410 406/406/406
f 412/412/412 411/411/411 407/407/407
f 411/411/411 412/412/412 410/410/410
f 413/413/413 412/412/412 407/407/407
f 412/412/412 414/414/414 410/410/410
f 417/417/417 416/416/416 415/415/415
f 418/418/418 417/417/417 415/415/415
f 421/421/421 420/420/420 419/419/419
f 420/420/420 422/422/422 419/419/419
f 419/419/419 422/422/422 423/423/423
f 420/420/420 424/424/424 422/422/422
f 422/422/422 425/425/425 423/423/423
f 423/423/423 425/425/425 426/426/426
f 425/425/425 427/427/427 426/426/426
f 424/424/424 428/428/428 422/422/422
f 425/425/425 429/429/429 427/427/427
f 424/424/424 430/430/430 428/428/428
f 429/429/429 431/431/431 427/427/427
f 430/430/430 432/432/432 428/428/428
f 428/428/428 432/432/432 429/429/429
f 430/430/430 433/433/433 432/432/432
f 429/429/429 434/434/434 431/431/431
f 432/432/432 434/434/434 429/429/429
f 434/434/434 435/435/435 431/431/431
f 433/433/433 436/436/436 432/432/432
f 433/433/433 437/437/437 436/436/436
f 437/437/437 438/438/438 436/436/436
f 434/434/434 439/439/439 435/435/435
f 436/436/436 438/438/438 439/439/439
f 439/439/439 440/440/440 435/435/435
f 438/438/438 441/441/441 439/439/439
f 439/439/439 441/441/441 440/440/440
f 441/441/441 442/442/442 440/440/440
f 445/445/445 444/444/444 443/443/443
f 446/446/446 445/445/445 443/443/443
f 449/449/449 448/448/448 447/447/447
f 450/450/450 449/449/449 447/447/447
f 453/453/453 452/452/452 451/451/451
f 454/454/454 453/453/453 451/451/451
f 457/457/457 456/456/456 455/455/455
f 458/458/458 457/457/457 455/455/455
f 461/461/461 460/460/460 459/459/459
f 462/462/462 461/461/461 459/459/459
f 465/465/465 464/464/464 463/463/463
f 466/466/466 465/465/465 463/463/463
f 469/469/469 468/468/468 467/467/467
f 470/470/470 469/469/469 467/467/467
f 473/473/473 472/472/472 471/471/471
f 474/474/474 473/473/473 471/471/471
f 477/477/477 476/476/476 475/475/475
f 478/478/478 477/477/477 475/475/475
f 481/481/481 480/480/480 479/479/479
f 482/482/482 481/481/481 479/479/479
f 485/485/485 484/484/484 483/483/483
f 486/486/486 485/485/485 483/483/483
f 489/489/489 488/488/488 487/487/487
f 490/490/490 489/489/489 487/487/487
f 493/493/493 492/492/492 491/491/491
f 494/494/494 493/493/493 491/491/491
f 497/497/497 496/496/496 495/495/495
f 498/498/498 497/497/497 495/495/495
f 501/501/501 500/500/500 499/499/499
f 502/502/502 501/501/501 499/499/499
f 505/505/505 504/504/504 503/503/503
f 506/506/506 505/505/505 503/503/503
f 509/509/509 508/508/508 507/507/507
f 510/510/510 509/509/509 507/507/507
f 513/513/513 512/512/512 511/511/511
f 512/512/512 513/513/513 514/514/514
f 515/515/515 513/513/513 511/511/511
f 513/513/513 515/515/515 514/514/514
f 516/516/516 515/515/515 511/511/511
f 515/515/515 517/517/517 514/514/514
f 518/518/518 515/515/515 516/516/516
f 515/515/515 518/518/518 517/517/517
f 519/519/519 518/518/518 516/516/516
f 518/518/518 519/519/519 517/517/517
f 520/520/520 519/519/519 516/516/516
f 519/519/519 521/521/521 517/517/517
f 522/522/522 519/519/519 520/520/520
f 519/519/519 522/522/522 521/521/521
f 523/523/523 522/522/522 520/520/520
f 522/522/522 523/523/523 521/521/521
f 524/524/524 523/523/523 520/520/520
f 523/523/523 525/525/525 521/521/521
f 524/524/524 526/526/526 523/523/523
f 526/526/526 525/525/525 523/523/523
f 524/524/524 527/527/527 526/526/526
f 528/528/528 525/525/525 526/526/526
f 527/527/527 529/529/529 526/526/526
f 529/529/529 528/528/528 526/526/526
f 527/527/527 530/530/530 529/529/529
f 530/530/530 528/528/528 529/529/529
f 527/527/527 531/531/531 530/530/530
f 532/532/532 528/528/528 530/530/530
f 531/531/531 533/533/533 530/530/530
f 533/533/533 532/532/532 530/530/530
f 536/536/536 535/535/535 534/534/534
f 535/535/535 536/536/536 537/537/537
f 538/538/538 536/536/536 534/534/534
f 536/536/536 538/538/538 537/537/537
f 539/539/539 538/538/538 534/534/534
f 538/538/538 540/540/540 537/537/537
f 541/541/541 538/538/538 539/539/539
f 538/538/538 541/541/541 540/540/540
f 542/542/542 541/541/541 539/539/539
f 541/541/541 542/542/542 540/540/540
f 543/543/543 542/542/542 539/539/539
f 542/542/542 544/544/544 540/540/540
f 543/543/543 545/545/545 542/542/542
f 545/545/545 544/544/544 542/542/542
f 543/543/543 546/546/546 545/545/545
f 547/547/547 544/544/544 545/545/545
f 546/546/546 548/548/548 545/545/545
f 548/548/548 547/547/547 545/545/545
f 546/546/546 549/549/549 548/548/548
f 549/549/549 547/547/547 548/548/548
f 546/546/546 550/550/550 549/549/549
f 551/551/551 547/547/547 549/549/549
f 550/550/550 552/552/552 549/549/549
f 552/552/552 551/551/551 549/549/549
f 550/550/550 553/553/553 552/552/552
f 553/553/553 551/551/551 552/552/552
f 550/550/550 554/554/554 553/553/553
f 555/555/555 551/551/551 553/553/553
f 554/554/554 556/556/556 553/553/553
f 556/556/556 555/555/555 553/553/553
f 559/559/559 558/558/558 557/557/557
f 558/558/558 560/560/560 557/557/557
f 559/559/559 557/557/557 561/561/561
f 558/558/558 562/562/562 560/560/560
f 563/563/563 559/559/559 561/561/561
f 562/562/562 564/564/564 560/560/560
f 563/563/563 561/561/561 564/564/564
f 562/562/562 563/563/563 564/564/564
f 567/567/567 566/566/566 565/565/565
f 566/566/566 568/568/568 565/565/565
f 567/567/567 565/565/565 569/569/569
f 566/566/566 570/570/570 568/568/568
f 571/571/571 567/567/567 569/569/569
f 570/570/570 572/572/572 568/568/568
f 571/571/571 569/569/569 572/572/572
f 570/570/570 571/571/571 572/572/572
f 575/575/575 574/574/574 573/573/573
f 576/576/576 575/575/575 573/573/573
f 573/573/573 574/574/574 577/577/577
f 578/578/578 575/575/575 576/576/576
f 574/574/574 579/579/579 577/577/577
f 580/580/580 578/578/578 576/576/576
f 577/577/577 579/579/579 580/580/580
f 579/579/579 578/578/578 580/580/580
f 583/583/583 582/582/582 581/581/581
f 584/584/584 583/583/583 581/581/581
f 581/581/581 582/582/582 585/585/585
f 586/586/586 583/583/583 584/584/584
f 582/582/582 587/587/587 585/585/585
f 588/588/588 586/586/586 584/584/584
f 585/585/585 587/587/587 588/588/588
f 587/587/587 586/586/586 588/588/588
