mtllib Cabinet_e7eb8d10.mtl
g Mesh_01_c4cd3610
v 0.49001 -0.287 -0.008
v 0.48801 -0.287 -0.00999
v 0.48801 -0.37299 -0.00999
v 0.49001 -0.287 -0.008
v 0.48801 -0.37299 -0.00999
v 0.49001 -0.37299 -0.008
v 0.49001 -0.287 0.00801
v 0.48801 -0.287 0.01
v 0.48801 -0.28299 0.01
v 1E-05 -0.37299 -0.008
v 0.00201 -0.375 -0.008
v 0.00201 -0.37299 -0.00999
v 0.00201 0.16678 -0.00999
v 0.00201 0.16878 -0.008
v 1E-05 0.16678 -0.008
v 0.48801 0.16678 -0.00999
v 0.49001 0.16678 -0.008
v 0.48801 0.16878 -0.008
v 0.48801 -0.37299 -0.00999
v 0.48801 -0.375 -0.008
v 0.49001 -0.37299 -0.008
v 0.00201 -0.37299 0.01
v 0.00201 -0.375 0.00801
v 1E-05 -0.37299 0.00801
v 0.00201 0.16878 0.00801
v 0.00201 0.16678 0.01
v 1E-05 0.16678 0.00801
v 0.49001 0.16678 0.00801
v 0.48801 0.16678 0.01
v 0.48801 0.16878 0.00801
v 0.48801 -0.375 0.00801
v 0.48801 -0.37299 0.01
v 0.49001 -0.37299 0.00801
v 0.48801 -0.287 0.01
v 0.48801 -0.37299 0.01
v 0.402 -0.37299 0.01
v 0.402 -0.287 0.01
v 0.48801 -0.28299 0.01
v 0.398 -0.287 0.01
v 0.398 -0.37299 0.01
v 0.09201 -0.37299 0.01
v 0.402 -0.28299 0.01
v 0.402 0.07678 0.01
v 0.48801 0.07678 0.01
v 0.48801 0.08078 0.01
v 0.402 0.08078 0.01
v 0.48801 0.16678 0.01
v 0.402 0.16678 0.01
v 0.398 0.16678 0.01
v 0.398 0.07678 0.01
v 0.398 -0.28299 0.01
v 0.09201 -0.287 0.01
v 0.398 0.08078 0.01
v 0.09201 -0.28299 0.01
v 0.08801 -0.287 0.01
v 0.08801 -0.37299 0.01
v 0.00201 -0.37299 0.01
v 0.00201 -0.287 0.01
v 0.08801 -0.28299 0.01
v 0.00201 -0.28299 0.01
v 0.00201 0.07678 0.01
v 0.092 0.08078 0.01
v 0.092 0.16678 0.01
v 0.088 0.16678 0.01
v 0.088 0.07678 0.01
v 0.092 0.07678 0.01
v 0.088 0.08078 0.01
v 0.00201 0.08078 0.01
v 0.00201 0.16678 0.01
v 0.088 0.16678 -0.00999
v 0.00201 0.16678 -0.00999
v 0.00201 0.08078 -0.00999
v 0.088 0.08078 -0.00999
v 0.092 0.16678 -0.00999
v 0.088 0.07678 -0.00999
v 0.00201 0.07678 -0.00999
v 0.00201 -0.28299 -0.00999
v 0.092 0.08078 -0.00999
v 0.398 0.08078 -0.00999
v 0.398 0.16678 -0.00999
v 0.402 0.16678 -0.00999
v 0.402 0.08078 -0.00999
v 0.48801 0.16678 -0.00999
v 0.48801 0.08078 -0.00999
v 0.48801 0.07678 -0.00999
v 0.398 0.07678 -0.00999
v 0.092 0.07678 -0.00999
v 0.08801 -0.28299 -0.00999
v 0.402 0.07678 -0.00999
v 0.09201 -0.28299 -0.00999
v 0.08801 -0.287 -0.00999
v 0.00201 -0.287 -0.00999
v 0.00201 -0.37299 -0.00999
v 0.08801 -0.37299 -0.00999
v 0.09201 -0.287 -0.00999
v 0.09201 -0.37299 -0.00999
v 0.398 -0.37299 -0.00999
v 0.402 -0.28299 -0.00999
v 0.48801 -0.28299 -0.00999
v 0.48801 -0.287 -0.00999
v 0.398 -0.287 -0.00999
v 0.398 -0.28299 -0.00999
v 0.402 -0.287 -0.00999
v 0.402 -0.37299 -0.00999
v 0.48801 -0.37299 -0.00999
v 0.00201 -0.375 -0.008
v 0.00201 -0.375 0.00801
v 0.08801 -0.375 0.00801
v 0.08801 -0.375 -0.008
v 0.09201 -0.375 -0.008
v 0.09201 -0.375 0.00801
v 0.398 -0.375 0.00801
v 0.398 -0.375 -0.008
v 0.402 -0.375 -0.008
v 0.402 -0.375 0.00801
v 0.48801 -0.375 0.00801
v 0.48801 -0.375 -0.008
v 0.49001 -0.37299 -0.008
v 0.49001 -0.37299 0.00801
v 0.49001 -0.287 0.00801
v 0.49001 -0.287 -0.008
v 0.49001 -0.28299 -0.008
v 0.49001 -0.28299 0.00801
v 0.49001 0.07678 0.00801
v 0.49001 0.07678 -0.008
v 0.49001 0.08078 -0.008
v 0.49001 0.08078 0.00801
v 0.49001 0.16678 0.00801
v 0.49001 0.16678 -0.008
v 0.48801 0.16878 -0.008
v 0.48801 0.16878 0.00801
v 0.402 0.16878 0.00801
v 0.402 0.16878 -0.008
v 0.398 0.16878 -0.008
v 0.398 0.16878 0.00801
v 0.092 0.16878 0.00801
v 0.092 0.16878 -0.008
v 0.088 0.16878 -0.008
v 0.088 0.16878 0.00801
v 0.00201 0.16878 0.00801
v 0.00201 0.16878 -0.008
v 1E-05 0.16678 -0.008
v 1E-05 0.16678 0.00801
v 1E-05 0.08078 0.00801
v 1E-05 0.08078 -0.008
v 1E-05 0.07678 -0.008
v 1E-05 0.07678 0.00801
v 1E-05 -0.28299 0.00801
v 1E-05 -0.28299 -0.008
v 1E-05 -0.287 -0.008
v 1E-05 -0.287 0.00801
v 1E-05 -0.37299 0.00801
v 1E-05 -0.37299 -0.008
v 0.48801 0.16678 0.01
v 0.49001 0.16678 0.00801
v 0.49001 0.08078 0.00801
v 0.48801 0.08078 0.01
v 0.402 0.16678 0.01
v 0.402 0.16878 0.00801
v 0.48801 0.16878 0.00801
v 0.48801 0.16678 0.01
v 0.00201 0.16678 0.01
v 0.00201 0.16878 0.00801
v 0.088 0.16878 0.00801
v 0.088 0.16678 0.01
v 0.00201 0.08078 0.01
v 1E-05 0.08078 0.00801
v 1E-05 0.16678 0.00801
v 0.00201 0.16678 0.01
v 0.48801 -0.287 0.01
v 0.49001 -0.287 0.00801
v 0.49001 -0.37299 0.00801
v 0.48801 -0.37299 0.01
v 0.48801 -0.37299 0.01
v 0.48801 -0.375 0.00801
v 0.402 -0.375 0.00801
v 0.402 -0.37299 0.01
v 0.00201 -0.37299 0.01
v 1E-05 -0.37299 0.00801
v 1E-05 -0.287 0.00801
v 0.00201 -0.287 0.01
v 0.08801 -0.37299 0.01
v 0.08801 -0.375 0.00801
v 0.00201 -0.375 0.00801
v 0.00201 -0.37299 0.01
v 0.00201 -0.375 -0.008
v 1E-05 -0.37299 -0.008
v 1E-05 -0.37299 0.00801
v 0.00201 -0.375 0.00801
v 0.08801 -0.375 -0.008
v 0.08801 -0.37299 -0.00999
v 0.00201 -0.37299 -0.00999
v 0.00201 -0.375 -0.008
v 0.48801 -0.375 -0.008
v 0.48801 -0.37299 -0.00999
v 0.402 -0.37299 -0.00999
v 0.402 -0.375 -0.008
v 0.48801 -0.375 0.00801
v 0.49001 -0.37299 0.00801
v 0.49001 -0.37299 -0.008
v 0.48801 -0.375 -0.008
v 0.49001 0.16678 -0.008
v 0.48801 0.16678 -0.00999
v 0.48801 0.08078 -0.00999
v 0.49001 0.08078 -0.008
v 0.49001 0.16678 0.00801
v 0.48801 0.16878 0.00801
v 0.48801 0.16878 -0.008
v 0.49001 0.16678 -0.008
v 0.402 0.16878 -0.008
v 0.402 0.16678 -0.00999
v 0.48801 0.16678 -0.00999
v 0.48801 0.16878 -0.008
v 0.00201 0.16878 -0.008
v 0.00201 0.16678 -0.00999
v 0.088 0.16678 -0.00999
v 0.088 0.16878 -0.008
v 0.00201 0.16878 0.00801
v 1E-05 0.16678 0.00801
v 1E-05 0.16678 -0.008
v 0.00201 0.16878 -0.008
v 1E-05 0.08078 -0.008
v 0.00201 0.08078 -0.00999
v 0.00201 0.16678 -0.00999
v 1E-05 0.16678 -0.008
v 1E-05 -0.37299 -0.008
v 0.00201 -0.37299 -0.00999
v 0.00201 -0.287 -0.00999
v 1E-05 -0.287 -0.008
v 0.00201 0.07678 -0.00999
v 1E-05 0.07678 -0.008
v 1E-05 -0.28299 -0.008
v 0.00201 -0.28299 -0.00999
v 0.09201 -0.37299 -0.00999
v 0.09201 -0.375 -0.008
v 0.398 -0.375 -0.008
v 0.398 -0.37299 -0.00999
v 0.48801 -0.28299 -0.00999
v 0.49001 -0.28299 -0.008
v 0.49001 0.07678 -0.008
v 0.48801 0.07678 -0.00999
v 0.398 0.16678 -0.00999
v 0.398 0.16878 -0.008
v 0.092 0.16878 -0.008
v 0.092 0.16678 -0.00999
v 0.00201 -0.28299 0.01
v 0.00201 -0.287 0.01
v 1E-05 -0.287 0.00801
v 1E-05 -0.28299 0.00801
v 1E-05 0.07678 0.00801
v 0.00201 0.07678 0.01
v 0.00201 0.08078 0.01
v 1E-05 0.08078 0.00801
v 0.092 0.16678 0.01
v 0.088 0.16678 0.01
v 0.088 0.16878 0.00801
v 0.092 0.16878 0.00801
v 0.398 0.16878 0.00801
v 0.398 0.16678 0.01
v 0.402 0.16878 0.00801
v 0.402 0.16678 0.01
v 0.48801 0.07678 0.01
v 0.48801 0.08078 0.01
v 0.49001 0.08078 0.00801
v 0.49001 0.07678 0.00801
v 0.49001 -0.28299 0.00801
v 0.48801 -0.28299 0.01
v 0.49001 -0.287 0.00801
v 0.402 -0.37299 0.01
v 0.402 -0.375 0.00801
v 0.398 -0.375 0.00801
v 0.398 -0.37299 0.01
v 0.09201 -0.375 0.00801
v 0.09201 -0.37299 0.01
v 0.08801 -0.375 0.00801
v 0.08801 -0.37299 0.01
v 1E-05 -0.28299 -0.008
v 1E-05 -0.287 -0.008
v 0.00201 -0.287 -0.00999
v 0.00201 -0.28299 -0.00999
v 0.00201 0.08078 -0.00999
v 1E-05 0.08078 -0.008
v 1E-05 0.07678 -0.008
v 0.00201 0.07678 -0.00999
v 0.092 0.16878 -0.008
v 0.088 0.16878 -0.008
v 0.088 0.16678 -0.00999
v 0.092 0.16678 -0.00999
v 0.402 0.16678 -0.00999
v 0.402 0.16878 -0.008
v 0.398 0.16878 -0.008
v 0.398 0.16678 -0.00999
v 0.49001 0.07678 -0.008
v 0.49001 0.08078 -0.008
v 0.48801 0.08078 -0.00999
v 0.48801 0.07678 -0.00999
v 0.48801 -0.287 -0.00999
v 0.49001 -0.287 -0.008
v 0.49001 -0.28299 -0.008
v 0.48801 -0.28299 -0.00999
v 0.08801 -0.37299 -0.00999
v 0.08801 -0.375 -0.008
v 0.09201 -0.375 -0.008
v 0.09201 -0.37299 -0.00999
v 0.398 -0.375 -0.008
v 0.402 -0.375 -0.008
v 0.402 -0.37299 -0.00999
v 0.398 -0.37299 -0.00999
vn 0.707099 0 -0.7071145
vn 0.7070996 0 -0.7071139
vn 0.7071 0 -0.7071136
vn 0.707099 0 -0.7071145
vn 0.7071 0 -0.7071136
vn 0.7071 0 -0.7071136
vn 0.707123 0 0.7070905
vn 0.7071216 0 0.707092
vn 0.7070497 0 0.7071638
vn -0.5773181 -0.5773733 -0.5773594
vn -0.5773181 -0.5773732 -0.5773595
vn -0.5773181 -0.5773733 -0.5773595
vn -0.5773686 0.5773411 -0.5773411
vn -0.5773686 0.5773411 -0.5773411
vn -0.5773686 0.5773411 -0.5773411
vn 0.5773664 0.5773456 -0.5773389
vn 0.5773664 0.5773456 -0.5773389
vn 0.5773664 0.5773456 -0.5773389
vn 0.577325 -0.5773593 -0.5773664
vn 0.577325 -0.5773593 -0.5773664
vn 0.577325 -0.5773593 -0.5773664
vn -0.5773411 -0.5773411 0.5773686
vn -0.5773411 -0.5773411 0.5773686
vn -0.5773411 -0.5773411 0.5773686
vn -0.5773319 0.5773594 0.5773594
vn -0.577332 0.5773594 0.5773594
vn -0.5773319 0.5773594 0.5773594
vn 0.577337 0.5773493 0.5773645
vn 0.577337 0.5773492 0.5773645
vn 0.577337 0.5773492 0.5773645
vn 0.5773324 -0.5773447 0.5773737
vn 0.5773325 -0.5773447 0.5773737
vn 0.5773324 -0.5773447 0.5773737
vn 0 0 1
vn 0 0 1
vn 0 0 1
vn 0 0 1
vn 0 0 1
vn 0 0 1
vn 0 0 1
vn 0 0 1
vn 0 0 1
vn 0 0 1
vn 0 0 1
vn 0 0 1
vn 0 0 1
vn 0 0 1
vn 0 0 1
vn 0 0 1
vn 0 0 1
vn 0 0 1
vn 0 0 1
vn 0 0 1
vn 0 0 1
vn 0 0 1
vn 0 0 1
vn 0 0 1
vn 0 0 1
vn 0 0 1
vn 0 0 1
vn 0 0 1
vn 0 0 1
vn 0 0 1
vn 0 0 1
vn 0 0 1
vn 0 0 1
vn 0 0 1
vn 0 0 1
vn 0 0 1
vn 0 0 -1
vn 0 0 -1
vn 0 0 -1
vn 0 0 -1
vn 0 0 -1
vn 0 0 -1
vn 0 0 -1
vn 0 0 -1
vn 0 0 -1
vn 0 0 -1
vn 0 0 -1
vn 0 0 -1
vn 0 0 -1
vn 0 0 -1
vn 0 0 -1
vn 0 0 -1
vn 0 0 -1
vn 0 0 -1
vn 0 0 -1
vn 0 0 -1
vn 0 0 -1
vn 0 0 -1
vn 0 0 -1
vn 0 0 -1
vn 0 0 -1
vn 0 0 -1
vn 0 0 -1
vn 0 0 -1
vn 0 0 -1
vn 0 0 -1
vn 0 0 -1
vn 0 0 -1
vn 0 0 -1
vn 0 0 -1
vn 0 0 -1
vn 0 0 -1
vn 0 -1 0
vn 0 -1 0
vn 0 -1 0
vn 0 -1 0
vn 0 -1 -1.179383E-06
vn 0 -1 -1.230538E-06
vn 0 -1 2.564788E-07
vn 0 -1 3.076344E-07
vn 0 -1 0
vn 0 -1 0
vn 0 -1 0
vn 0 -1 0
vn 1 0 0
vn 1 0 0
vn 1 0 0
vn 1 0 0
vn 1 0 0
vn 1 0 0
vn 1 0 0
vn 1 0 0
vn 1 0 0
vn 1 0 0
vn 1 0 0
vn 1 0 0
vn 0 1 0
vn 0 1 0
vn 0 1 0
vn 0 1 0
vn 0 1 0
vn 0 1 0
vn 0 1 0
vn 0 1 0
vn 0 1 0
vn 0 1 0
vn 0 1 0
vn 0 1 0
vn -1 0 0
vn -1 0 0
vn -1 0 0
vn -1 0 0
vn -1 2.769889E-07 1.334289E-07
vn -1 2.621539E-07 0
vn -1 7.716525E-07 4.63497E-06
vn -1 7.864886E-07 4.768408E-06
vn -1 0 4.76833E-06
vn -1 0 4.768323E-06
vn -1 0 4.768364E-06
vn -1 0 4.768369E-06
vn 0.7071 0 0.7071135
vn 0.7071005 0 0.707113
vn 0.7070758 0 0.7071376
vn 0.7070749 0 0.7071386
vn 0 0.7070713 0.7071422
vn 0 0.7070708 0.7071427
vn 0 0.7070943 0.7071193
vn 0 0.7070947 0.7071188
vn 0 0.7070926 0.7071209
vn 0 0.7070927 0.7071208
vn 0 0.7070925 0.7071211
vn 0 0.7070925 0.707121
vn -0.7070987 0 0.7071148
vn -0.7071 0 0.7071136
vn -0.7070751 0 0.7071384
vn -0.7070747 0 0.7071388
vn 0.7071216 0 0.707092
vn 0.707123 0 0.7070905
vn 0.7070514 0 0.7071621
vn 0.7070498 0 0.7071637
vn 0 -0.7070855 0.707128
vn 0 -0.7070854 0.7071282
vn 0 -0.7070913 0.7071222
vn 0 -0.7070915 0.707122
vn -0.7071295 0 0.7070839
vn -0.7071311 0 0.7070824
vn -0.7070588 0 0.7071548
vn -0.7070573 0 0.7071562
vn 0 -0.7070878 0.7071257
vn 0 -0.7070878 0.7071257
vn 0 -0.7070879 0.7071255
vn 0 -0.7070879 0.7071255
vn -0.7071025 -0.707111 2.926234E-06
vn -0.7071025 -0.707111 3.16096E-06
vn -0.7071025 -0.707111 1.288381E-06
vn -0.7071025 -0.707111 1.053653E-06
vn 0 -0.7071013 -0.7071122
vn 0 -0.7071013 -0.7071122
vn 0 -0.7071009 -0.7071126
vn 0 -0.7071009 -0.7071126
vn 0 -0.707105 -0.7071086
vn 0 -0.7071051 -0.7071084
vn 0 -0.7070991 -0.7071144
vn 0 -0.707099 -0.7071145
vn 0.7071068 -0.7071068 0
vn 0.7071068 -0.7071068 0
vn 0.7071069 -0.7071066 0
vn 0.7071069 -0.7071066 0
vn 0.7071005 0 -0.7071131
vn 0.7071005 0 -0.707113
vn 0.7071003 0 -0.7071133
vn 0.7071003 0 -0.7071131
vn 0.7071022 0.7071114 0
vn 0.7071028 0.7071108 0
vn 0.7070988 0.7071147 0
vn 0.7070983 0.7071152 0
vn 0 0.7071076 -0.7071059
vn 0 0.707108 -0.7071055
vn 0 0.7070838 -0.7071298
vn 0 0.7070832 -0.7071303
vn 0 0.7071064 -0.7071071
vn 0 0.7071064 -0.7071071
vn 0 0.7071061 -0.7071075
vn 0 0.7071059 -0.7071075
vn -0.7070978 0.7071157 0
vn -0.7070982 0.7071153 0
vn -0.7070946 0.7071189 0
vn -0.7070941 0.7071194 0
vn -0.7071 0 -0.7071136
vn -0.7070999 0 -0.7071137
vn -0.7070996 0 -0.7071139
vn -0.7070997 0 -0.7071139
vn -0.7070994 0 -0.7071141
vn -0.7070994 0 -0.7071141
vn -0.7070991 0 -0.7071144
vn -0.7070985 0 -0.7071149
vn -0.7070969 3.716835E-07 -0.7071167
vn -0.7070969 3.707552E-07 -0.7071166
vn -0.7070968 5.552046E-07 -0.7071167
vn -0.7070969 5.561328E-07 -0.7071166
vn 0 -0.7071015 -0.707112
vn 0 -0.7071016 -0.7071119
vn 0 -0.7071015 -0.707112
vn 0 -0.7071016 -0.7071119
vn 0.7070976 0 -0.7071159
vn 0.7070974 0 -0.7071161
vn 0.7070974 0 -0.7071161
vn 0.7070974 0 -0.7071161
vn 0 0.7071087 -0.7071048
vn 0 0.7071087 -0.7071048
vn 0 0.7071088 -0.7071047
vn 0 0.7071088 -0.7071047
vn -0.7071031 1.863078E-07 0.7071105
vn -0.7070573 0 0.7071562
vn -0.7070588 0 0.7071548
vn -0.7071033 1.853795E-07 0.7071102
vn -0.7070495 3.698517E-07 0.707164
vn -0.707049 3.707803E-07 0.7071645
vn -0.7070987 0 0.7071148
vn -0.7071 0 0.7071136
vn 0 0.7070953 0.7071182
vn 0 0.7070925 0.707121
vn 0 0.7070925 0.7071211
vn 0 0.7070953 0.7071182
vn 0 0.7070952 0.7071183
vn 0 0.7070952 0.7071183
vn 0 0.7070708 0.7071427
vn 0 0.7070713 0.7071422
vn 0.7070971 0 0.7071164
vn 0.7070749 0 0.7071386
vn 0.7070758 0 0.7071376
vn 0.7070974 0 0.7071161
vn 0.7070499 0 0.7071636
vn 0.7070497 0 0.7071638
vn 0.707123 0 0.7070905
vn 0 -0.7070915 0.707122
vn 0 -0.7070913 0.7071222
vn 0 -0.7070845 0.7071291
vn 0 -0.7070845 0.7071289
vn 0 -0.7070915 0.7071221
vn 0 -0.7070915 0.7071221
vn 0 -0.7070878 0.7071257
vn 0 -0.7070878 0.7071257
vn -0.7070968 5.552046E-07 -0.7071167
vn -0.7070985 0 -0.7071149
vn -0.7070991 0 -0.7071144
vn -0.7070969 5.561328E-07 -0.7071166
vn -0.7070999 0 -0.7071137
vn -0.7071 0 -0.7071136
vn -0.7070969 3.707552E-07 -0.7071166
vn -0.7070969 3.716835E-07 -0.7071167
vn 0 0.7071088 -0.7071047
vn 0 0.7071059 -0.7071075
vn 0 0.7071061 -0.7071075
vn 0 0.7071088 -0.7071047
vn 0 0.707108 -0.7071055
vn 0 0.7071076 -0.7071059
vn 0 0.7071087 -0.7071048
vn 0 0.7071087 -0.7071048
vn 0.7070974 0 -0.7071161
vn 0.7071003 0 -0.7071131
vn 0.7071003 0 -0.7071133
vn 0.7070974 0 -0.7071161
vn 0.7070996 0 -0.7071139
vn 0.707099 0 -0.7071145
vn 0.7070974 0 -0.7071161
vn 0.7070976 0 -0.7071159
vn 0 -0.7071013 -0.7071122
vn 0 -0.7071013 -0.7071122
vn 0 -0.7071016 -0.7071119
vn 0 -0.7071015 -0.707112
vn 0 -0.7071015 -0.707112
vn 0 -0.707099 -0.7071145
vn 0 -0.7070991 -0.7071144
vn 0 -0.7071016 -0.7071119
vt -0.6222898 -0.6102753
vt -0.6211778 -0.6102753
vt -0.6211778 -0.8290113
vt -0.6222898 -0.6102753
vt -0.6211778 -0.8290113
vt -0.6222898 -0.8290113
vt 1.62175 -0.6381264
vt 1.621234 -0.6381264
vt 1.621036 -0.6372103
vt -0.8130497 0.7099937
vt -0.810418 0.7073621
vt -0.810418 0.7099937
vt 1.24292 0.7073673
vt 1.24292 0.7099887
vt 1.240299 0.7073673
vt -0.6572704 0.6729917
vt -0.654638 0.6729917
vt -0.6572704 0.6756241
vt 0.2901777 0.7099922
vt 0.2901777 0.7073633
vt 0.2928065 0.7099922
vt 0.5195815 -0.807304
vt 0.5195815 -0.8099338
vt 0.516951 -0.807304
vt 0.5195855 0.6756268
vt 0.5195855 0.672989
vt 0.5169477 0.672989
vt 1.622821 0.6729814
vt 1.620164 0.6729814
vt 1.620164 0.6756343
vt 1.620188 -0.8099228
vt 1.620188 -0.807315
vt 1.622797 -0.807315
vt 1.290733 -0.2931164
vt 1.290733 -0.3641055
vt 1.209897 -0.3641055
vt 1.209897 -0.2931163
vt 1.290733 -0.2927994
vt 1.209537 -0.2931164
vt 1.209537 -0.3641055
vt 0.9302217 -0.3641055
vt 1.209897 -0.2927994
vt 1.209897 0.1584885
vt 1.290733 0.1584885
vt 1.290733 0.1588054
vt 1.209897 0.1588054
vt 1.290733 0.2297945
vt 1.209897 0.2297945
vt 1.209537 0.2297945
vt 1.209537 0.1584885
vt 1.209537 -0.2927994
vt 0.9302217 -0.2931163
vt 1.209537 0.1588054
vt 0.9302217 -0.2927994
vt 0.9298608 -0.2931164
vt 0.9298608 -0.3641055
vt 0.8490252 -0.3641055
vt 0.8490252 -0.2931163
vt 0.9298608 -0.2927994
vt 0.8490252 -0.2927994
vt 0.8490254 0.1584885
vt 0.9302214 0.1588054
vt 0.9302214 0.2297945
vt 0.9298606 0.2297945
vt 0.9298606 0.1584885
vt 0.9302214 0.1584885
vt 0.9298606 0.1588054
vt 0.8490254 0.1588054
vt 0.8490254 0.2297945
vt 0.06989771 0.2297947
vt 0.1507329 0.2297947
vt 0.1507329 0.1588055
vt 0.06989777 0.1588055
vt 0.06953683 0.2297947
vt 0.06989771 0.1584885
vt 0.1507328 0.1584885
vt 0.1507331 -0.2927995
vt 0.06953683 0.1588055
vt -0.2097784 0.1588055
vt -0.2097784 0.2297947
vt -0.2101392 0.2297947
vt -0.2101392 0.1588055
vt -0.2909749 0.2297947
vt -0.2909749 0.1588055
vt -0.2909749 0.1584885
vt -0.2097784 0.1584885
vt 0.06953683 0.1584885
vt 0.06989759 -0.2927995
vt -0.2101392 0.1584885
vt 0.06953672 -0.2927995
vt 0.06989759 -0.2931165
vt 0.1507331 -0.2931165
vt 0.1507331 -0.3641056
vt 0.06989759 -0.3641056
vt 0.06953672 -0.2931165
vt 0.06953672 -0.3641056
vt -0.2097784 -0.3641056
vt -0.2101392 -0.2927995
vt -0.2909749 -0.2927995
vt -0.2909749 -0.2931165
vt -0.2097784 -0.2931165
vt -0.2097784 -0.2927995
vt -0.2101392 -0.2931165
vt -0.2101392 -0.3641056
vt -0.2909749 -0.3641056
vt -0.3776391 0.7713023
vt -0.3776391 0.8043868
vt -0.3346259 0.8043868
vt -0.3346259 0.7713023
vt -0.3344339 0.7713023
vt -0.3344339 0.8043868
vt -0.185808 0.8043868
vt -0.185808 0.7713023
vt -0.185616 0.7713023
vt -0.185616 0.8043868
vt -0.1426027 0.8043868
vt -0.1426027 0.7713023
vt -0.7200863 -0.2107646
vt -0.7501556 -0.2107646
vt -0.7501556 -0.1764333
vt -0.7200863 -0.1764333
vt -0.7200863 -0.17628
vt -0.7501556 -0.17628
vt -0.7501556 0.04196902
vt -0.7200863 0.04196902
vt -0.7200863 0.04212233
vt -0.7501556 0.04212233
vt -0.7501556 0.07645364
vt -0.7200863 0.07645364
vt 0.6779446 0.769665
vt 0.6779446 0.8060241
vt 0.7170841 0.8060241
vt 0.7170841 0.769665
vt 0.7172588 0.769665
vt 0.7172588 0.8060241
vt 0.8524997 0.8060241
vt 0.8524997 0.769665
vt 0.8526744 0.769665
vt 0.8526744 0.8060241
vt 0.8918136 0.8060241
vt 0.8918136 0.769665
vt 1.719844 0.07645427
vt 1.749914 0.07645427
vt 1.749914 0.0421228
vt 1.719844 0.0421228
vt 1.719844 0.04196952
vt 1.749914 0.04196952
vt 1.749914 -0.1762805
vt 1.719844 -0.1762805
vt 1.719844 -0.1764338
vt 1.749914 -0.1764338
vt 1.749914 -0.2107652
vt 1.719844 -0.2107652
vt -0.8153302 0.6436599
vt -0.813245 0.6436599
vt -0.813245 0.5270047
vt -0.8153302 0.5270047
vt 0.4686728 0.8680848
vt 0.4686728 0.8659375
vt 0.3554027 0.8659375
vt 0.3554027 0.8680849
vt 1.214352 0.868085
vt 1.214352 0.8659375
vt 1.10109 0.8659375
vt 1.10109 0.868085
vt 1.815088 0.5270159
vt 1.813003 0.5270159
vt 1.813003 0.6436487
vt 1.815088 0.6436487
vt -0.8153303 -0.6613137
vt -0.8132449 -0.6613137
vt -0.8132449 -0.777973
vt -0.8153303 -0.777973
vt 0.2524175 0.8679882
vt 0.2524175 0.8660342
vt 0.1279327 0.8660342
vt 0.1279327 0.8679882
vt 1.815088 -0.7779571
vt 1.813003 -0.7779571
vt 1.813003 -0.6613293
vt 1.815088 -0.6613293
vt -0.6481725 0.8679883
vt -0.6481725 0.8660341
vt -0.7726616 0.8660341
vt -0.7726616 0.8679883
vt 1.687765 -0.8088591
vt 1.687765 -0.8083788
vt 1.781993 -0.8083787
vt 1.781993 -0.8088591
vt 0.2556418 -0.8091072
vt 0.2556418 -0.8081306
vt 0.5047089 -0.8081306
vt 0.5047089 -0.8091072
vt -0.6449664 -0.8091072
vt -0.6449664 -0.8081306
vt -0.3958675 -0.8081306
vt -0.3958675 -0.8091072
vt -0.7822426 -0.8088591
vt -0.7822426 -0.8083788
vt -0.6879993 -0.8083788
vt -0.6879993 -0.8088591
vt -0.6222898 0.6947033
vt -0.6211778 0.6947033
vt -0.6211778 0.4759613
vt -0.6222898 0.4759613
vt 0.3279152 0.8363608
vt 0.3283814 0.8363608
vt 0.3283815 0.7393283
vt 0.3279151 0.7393283
vt -0.3958602 0.6747961
vt -0.3958602 0.6738197
vt -0.6449737 0.6738197
vt -0.6449737 0.6747961
vt 0.504731 0.6747961
vt 0.504731 0.6738197
vt 0.2556192 0.6738197
vt 0.2556192 0.6747961
vt 1.781989 0.674548
vt 1.781989 0.6740678
vt 1.687769 0.6740678
vt 1.687769 0.674548
vt 0.4820474 0.4759575
vt 0.4809355 0.4759575
vt 0.4809355 0.6947073
vt 0.4820474 0.6947073
vt 0.482048 -0.8290115
vt 0.480936 -0.8290115
vt 0.480936 -0.610275
vt 0.482048 -0.610275
vt 1.654867 0.2336303
vt 1.656558 0.2336303
vt 1.656558 -0.3679414
vt 1.654867 -0.3679414
vt -0.4783641 0.7076865
vt -0.4783641 0.7096694
vt -0.04187801 0.7096694
vt -0.04187801 0.7076864
vt -0.6551085 -0.3679574
vt -0.6568 -0.3679574
vt -0.6568 0.2336464
vt -0.6551085 0.2336464
vt 0.5862984 0.7075883
vt 0.5862984 0.7097675
vt 0.9834607 0.7097675
vt 0.9834607 0.7075884
vt 0.518722 -0.6369898
vt 0.5185241 -0.6379055
vt 0.5180085 -0.6379055
vt 0.5178105 -0.6369898
vt 0.5178108 0.5026788
vt 0.5187223 0.5026788
vt 0.5185243 0.5035944
vt 0.5180088 0.5035944
vt 0.6280534 0.6738066
vt 0.6268449 0.6739891
vt 0.6268449 0.6746268
vt 0.6280534 0.6748092
vt 1.511704 0.6748093
vt 1.511704 0.6738065
vt 1.512912 0.6746268
vt 1.512912 0.6739891
vt 1.621036 0.5028993
vt 1.621234 0.5038152
vt 1.62175 0.5038152
vt 1.621948 0.5028993
vt 1.621948 -0.6372103
vt 1.621036 -0.6372103
vt 1.62175 -0.6381264
vt 1.512976 -0.8082862
vt 1.512976 -0.8089516
vt 1.51174 -0.8091202
vt 1.51174 -0.8081176
vt 0.6280181 -0.8091202
vt 0.6280181 -0.8081176
vt 0.6267819 -0.8089516
vt 0.6267819 -0.8082862
vt 1.654525 -0.6282911
vt 1.654525 -0.633044
vt 1.6569 -0.633044
vt 1.6569 -0.6282911
vt 1.656901 0.4987344
vt 1.654524 0.4987344
vt 1.654524 0.4939787
vt 1.656901 0.4939787
vt 1.076208 0.7098661
vt 1.071455 0.7098661
vt 1.071455 0.7074896
vt 1.076208 0.7074896
vt 0.4983069 0.7074879
vt 0.4983069 0.7098676
vt 0.4935479 0.7098676
vt 0.4935479 0.7074879
vt -0.6547657 0.4939799
vt -0.6547657 0.4987332
vt -0.6571428 0.4987332
vt -0.6571428 0.4939799
vt -0.6571431 -0.6330451
vt -0.6547654 -0.6330451
vt -0.6547654 -0.6282899
vt -0.6571431 -0.6282899
vt -0.6114826 0.7098691
vt -0.6114826 0.7074869
vt -0.6067184 0.7074869
vt -0.6067184 0.7098691
vt 0.08648048 0.7074888
vt 0.09123603 0.7074888
vt 0.09123603 0.709867
vt 0.08648048 0.709867
usemtl DarkWood2
f 3/3/3 2/2/2 1/1/1
f 6/6/6 5/5/5 4/4/4
f 9/9/9 8/8/8 7/7/7
f 12/12/12 11/11/11 10/10/10
f 15/15/15 14/14/14 13/13/13
f 18/18/18 17/17/17 16/16/16
f 21/21/21 20/20/20 19/19/19
f 24/24/24 23/23/23 22/22/22
f 27/27/27 26/26/26 25/25/25
f 30/30/30 29/29/29 28/28/28
f 33/33/33 32/32/32 31/31/31
f 36/36/36 35/35/35 34/34/34
f 37/37/37 36/36/36 34/34/34
f 34/34/34 38/38/38 37/37/37
f 37/37/37 39/39/39 36/36/36
f 39/39/39 40/40/40 36/36/36
f 40/40/40 39/39/39 41/41/41
f 38/38/38 42/42/42 37/37/37
f 39/39/39 37/37/37 42/42/42
f 43/43/43 42/42/42 38/38/38
f 44/44/44 43/43/43 38/38/38
f 43/43/43 44/44/44 45/45/45
f 46/46/46 43/43/43 45/45/45
f 46/46/46 45/45/45 47/47/47
f 48/48/48 46/46/46 47/47/47
f 48/48/48 49/49/49 46/46/46
f 43/43/43 50/50/50 42/42/42
f 50/50/50 43/43/43 46/46/46
f 51/51/51 39/39/39 42/42/42
f 50/50/50 51/51/51 42/42/42
f 39/39/39 52/52/52 41/41/41
f 39/39/39 51/51/51 52/52/52
f 49/49/49 53/53/53 46/46/46
f 53/53/53 50/50/50 46/46/46
f 54/54/54 51/51/51 50/50/50
f 51/51/51 54/54/54 52/52/52
f 41/41/41 52/52/52 55/55/55
f 56/56/56 41/41/41 55/55/55
f 57/57/57 56/56/56 55/55/55
f 58/58/58 57/57/57 55/55/55
f 59/59/59 55/55/55 52/52/52
f 55/55/55 59/59/59 58/58/58
f 54/54/54 59/59/59 52/52/52
f 59/59/59 60/60/60 58/58/58
f 61/61/61 60/60/60 59/59/59
f 53/53/53 49/49/49 62/62/62
f 49/49/49 63/63/63 62/62/62
f 62/62/62 63/63/63 64/64/64
f 59/59/59 54/54/54 65/65/65
f 65/65/65 61/61/61 59/59/59
f 62/62/62 66/66/66 53/53/53
f 54/54/54 66/66/66 65/65/65
f 66/66/66 62/62/62 65/65/65
f 66/66/66 50/50/50 53/53/53
f 66/66/66 54/54/54 50/50/50
f 61/61/61 65/65/65 67/67/67
f 62/62/62 67/67/67 65/65/65
f 67/67/67 62/62/62 64/64/64
f 68/68/68 61/61/61 67/67/67
f 68/68/68 67/67/67 64/64/64
f 69/69/69 68/68/68 64/64/64
f 72/72/72 71/71/71 70/70/70
f 73/73/73 72/72/72 70/70/70
f 70/70/70 74/74/74 73/73/73
f 73/73/73 75/75/75 72/72/72
f 75/75/75 76/76/76 72/72/72
f 76/76/76 75/75/75 77/77/77
f 74/74/74 78/78/78 73/73/73
f 75/75/75 73/73/73 78/78/78
f 79/79/79 78/78/78 74/74/74
f 80/80/80 79/79/79 74/74/74
f 79/79/79 80/80/80 81/81/81
f 82/82/82 79/79/79 81/81/81
f 82/82/82 81/81/81 83/83/83
f 84/84/84 82/82/82 83/83/83
f 84/84/84 85/85/85 82/82/82
f 79/79/79 86/86/86 78/78/78
f 86/86/86 79/79/79 82/82/82
f 87/87/87 75/75/75 78/78/78
f 86/86/86 87/87/87 78/78/78
f 75/75/75 88/88/88 77/77/77
f 75/75/75 87/87/87 88/88/88
f 85/85/85 89/89/89 82/82/82
f 89/89/89 86/86/86 82/82/82
f 90/90/90 87/87/87 86/86/86
f 87/87/87 90/90/90 88/88/88
f 77/77/77 88/88/88 91/91/91
f 92/92/92 77/77/77 91/91/91
f 93/93/93 92/92/92 91/91/91
f 94/94/94 93/93/93 91/91/91
f 95/95/95 91/91/91 88/88/88
f 91/91/91 95/95/95 94/94/94
f 90/90/90 95/95/95 88/88/88
f 95/95/95 96/96/96 94/94/94
f 97/97/97 96/96/96 95/95/95
f 89/89/89 85/85/85 98/98/98
f 85/85/85 99/99/99 98/98/98
f 98/98/98 99/99/99 100/100/100
f 95/95/95 90/90/90 101/101/101
f 101/101/101 97/97/97 95/95/95
f 98/98/98 102/102/102 89/89/89
f 90/90/90 102/102/102 101/101/101
f 102/102/102 98/98/98 101/101/101
f 102/102/102 86/86/86 89/89/89
f 102/102/102 90/90/90 86/86/86
f 97/97/97 101/101/101 103/103/103
f 98/98/98 103/103/103 101/101/101
f 103/103/103 98/98/98 100/100/100
f 104/104/104 97/97/97 103/103/103
f 104/104/104 103/103/103 100/100/100
f 105/105/105 104/104/104 100/100/100
f 108/108/108 107/107/107 106/106/106
f 109/109/109 108/108/108 106/106/106
f 109/109/109 110/110/110 108/108/108
f 110/110/110 111/111/111 108/108/108
f 111/111/111 110/110/110 112/112/112
f 110/110/110 113/113/113 112/112/112
f 112/112/112 113/113/113 114/114/114
f 115/115/115 112/112/112 114/114/114
f 116/116/116 115/115/115 114/114/114
f 117/117/117 116/116/116 114/114/114
f 120/120/120 119/119/119 118/118/118
f 121/121/121 120/120/120 118/118/118
f 121/121/121 122/122/122 120/120/120
f 122/122/122 123/123/123 120/120/120
f 123/123/123 122/122/122 124/124/124
f 122/122/122 125/125/125 124/124/124
f 124/124/124 125/125/125 126/126/126
f 127/127/127 124/124/124 126/126/126
f 128/128/128 127/127/127 126/126/126
f 129/129/129 128/128/128 126/126/126
f 132/132/132 131/131/131 130/130/130
f 133/133/133 132/132/132 130/130/130
f 133/133/133 134/134/134 132/132/132
f 134/134/134 135/135/135 132/132/132
f 135/135/135 134/134/134 136/136/136
f 134/134/134 137/137/137 136/136/136
f 136/136/136 137/137/137 138/138/138
f 139/139/139 136/136/136 138/138/138
f 140/140/140 139/139/139 138/138/138
f 141/141/141 140/140/140 138/138/138
f 144/144/144 143/143/143 142/142/142
f 145/145/145 144/144/144 142/142/142
f 145/145/145 146/146/146 144/144/144
f 146/146/146 147/147/147 144/144/144
f 148/148/148 147/147/147 146/146/146
f 149/149/149 148/148/148 146/146/146
f 148/148/148 149/149/149 150/150/150
f 151/151/151 148/148/148 150/150/150
f 152/152/152 151/151/151 150/150/150
f 153/153/153 152/152/152 150/150/150
f 156/156/156 155/155/155 154/154/154
f 157/157/157 156/156/156 154/154/154
f 160/160/160 159/159/159 158/158/158
f 161/161/161 160/160/160 158/158/158
f 164/164/164 163/163/163 162/162/162
f 165/165/165 164/164/164 162/162/162
f 168/168/168 167/167/167 166/166/166
f 169/169/169 168/168/168 166/166/166
f 172/172/172 171/171/171 170/170/170
f 173/173/173 172/172/172 170/170/170
f 176/176/176 175/175/175 174/174/174
f 177/177/177 176/176/176 174/174/174
f 180/180/180 179/179/179 178/178/178
f 181/181/181 180/180/180 178/178/178
f 184/184/184 183/183/183 182/182/182
f 185/185/185 184/184/184 182/182/182
f 188/188/188 187/187/187 186/186/186
f 189/189/189 188/188/188 186/186/186
f 192/192/192 191/191/191 190/190/190
f 193/193/193 192/192/192 190/190/190
f 196/196/196 195/195/195 194/194/194
f 197/197/197 196/196/196 194/194/194
f 200/200/200 199/199/199 198/198/198
f 201/201/201 200/200/200 198/198/198
f 204/204/204 203/203/203 202/202/202
f 205/205/205 204/204/204 202/202/202
f 208/208/208 207/207/207 206/206/206
f 209/209/209 208/208/208 206/206/206
f 212/212/212 211/211/211 210/210/210
f 213/213/213 212/212/212 210/210/210
f 216/216/216 215/215/215 214/214/214
f 217/217/217 216/216/216 214/214/214
f 220/220/220 219/219/219 218/218/218
f 221/221/221 220/220/220 218/218/218
f 224/224/224 223/223/223 222/222/222
f 225/225/225 224/224/224 222/222/222
f 228/228/228 227/227/227 226/226/226
f 229/229/229 228/228/228 226/226/226
f 232/232/232 231/231/231 230/230/230
f 233/233/233 232/232/232 230/230/230
f 236/236/236 235/235/235 234/234/234
f 237/237/237 236/236/236 234/234/234
f 240/240/240 239/239/239 238/238/238
f 241/241/241 240/240/240 238/238/238
f 244/244/244 243/243/243 242/242/242
f 245/245/245 244/244/244 242/242/242
f 248/248/248 247/247/247 246/246/246
f 249/249/249 248/248/248 246/246/246
f 249/249/249 246/246/246 250/250/250
f 246/246/246 251/251/251 250/250/250
f 250/250/250 251/251/251 252/252/252
f 253/253/253 250/250/250 252/252/252
f 256/256/256 255/255/255 254/254/254
f 257/257/257 256/256/256 254/254/254
f 257/257/257 254/254/254 258/258/258
f 254/254/254 259/259/259 258/258/258
f 258/258/258 259/259/259 260/260/260
f 259/259/259 261/261/261 260/260/260
f 264/264/264 263/263/263 262/262/262
f 265/265/265 264/264/264 262/262/262
f 265/265/265 262/262/262 266/266/266
f 262/262/262 267/267/267 266/266/266
f 266/266/266 267/267/267 268/268/268
f 271/271/271 270/270/270 269/269/269
f 272/272/272 271/271/271 269/269/269
f 271/271/271 272/272/272 273/273/273
f 272/272/272 274/274/274 273/273/273
f 273/273/273 274/274/274 275/275/275
f 274/274/274 276/276/276 275/275/275
f 279/279/279 278/278/278 277/277/277
f 280/280/280 279/279/279 277/277/277
f 283/283/283 282/282/282 281/281/281
f 284/284/284 283/283/283 281/281/281
f 287/287/287 286/286/286 285/285/285
f 288/288/288 287/287/287 285/285/285
f 291/291/291 290/290/290 289/289/289
f 292/292/292 291/291/291 289/289/289
f 295/295/295 294/294/294 293/293/293
f 296/296/296 295/295/295 293/293/293
f 299/299/299 298/298/298 297/297/297
f 300/300/300 299/299/299 297/297/297
f 303/303/303 302/302/302 301/301/301
f 304/304/304 303/303/303 301/301/301
f 307/307/307 306/306/306 305/305/305
f 308/308/308 307/307/307 305/305/305
g CabineDoorHandle1_01_dbceb92b
v 0.00261 -0.31828 0.06203
v 0.00322 -0.31862 0.05899
v 1E-05 -0.31906 0.05916
v 0.00261 -0.31828 0.06203
v 1E-05 -0.31906 0.05916
v 0.00022 -0.31863 0.06313
v 0.00022 -0.31863 0.06313
v 1E-05 -0.31906 0.05916
v -0.00321 -0.31862 0.05934
v 0.00022 -0.31863 0.06313
v -0.00321 -0.31862 0.05934
v -0.00228 -0.31828 0.0623
v 1E-05 -0.31906 0.05916
v -0.0026 -0.31827 0.0563
v -0.00321 -0.31862 0.05934
v 1E-05 -0.31906 0.05916
v -0.00021 -0.31861 0.0552
v -0.0026 -0.31827 0.0563
v 0.00322 -0.31862 0.05899
v -0.00021 -0.31861 0.0552
v 1E-05 -0.31906 0.05916
v 0.00322 -0.31862 0.05899
v 0.00229 -0.31827 0.05603
v -0.00021 -0.31861 0.0552
v -0.0003 -0.31728 0.0536
v -0.00021 -0.31861 0.0552
v 0.00229 -0.31827 0.05603
v -0.0003 -0.31728 0.0536
v 0.00229 -0.31827 0.05603
v 0.0032 -0.31728 0.05481
v 0.0032 -0.31728 0.05481
v 0.00229 -0.31827 0.05603
v 0.00322 -0.31862 0.05899
v -0.00365 -0.31728 0.05518
v -0.0026 -0.31827 0.0563
v -0.00021 -0.31861 0.0552
v -0.00365 -0.31728 0.05518
v -0.00021 -0.31861 0.0552
v -0.0003 -0.31728 0.0536
v 0.00457 -0.31729 0.05892
v 0.00322 -0.31862 0.05899
v 0.00261 -0.31828 0.06203
v 0.0032 -0.31728 0.05481
v 0.00322 -0.31862 0.05899
v 0.00457 -0.31729 0.05892
v 0.00457 -0.31729 0.05892
v 0.00261 -0.31828 0.06203
v 0.00366 -0.3173 0.06316
v 0.00366 -0.3173 0.06316
v 0.00261 -0.31828 0.06203
v 0.00022 -0.31863 0.06313
v 0.00031 -0.3173 0.06473
v 0.00022 -0.31863 0.06313
v -0.00228 -0.31828 0.0623
v 0.00366 -0.3173 0.06316
v 0.00022 -0.31863 0.06313
v 0.00031 -0.3173 0.06473
v 0.00031 -0.3173 0.06473
v -0.00228 -0.31828 0.0623
v -0.00319 -0.3173 0.06353
v -0.00319 -0.3173 0.06353
v -0.00228 -0.31828 0.0623
v -0.00321 -0.31862 0.05934
v -0.00456 -0.31729 0.05941
v -0.00321 -0.31862 0.05934
v -0.0026 -0.31827 0.0563
v -0.00456 -0.31729 0.05941
v -0.0026 -0.31827 0.0563
v -0.00365 -0.31728 0.05518
v -0.00319 -0.3173 0.06353
v -0.00321 -0.31862 0.05934
v -0.00456 -0.31729 0.05941
v -0.00488 -0.30596 0.05946
v -0.00456 -0.31729 0.05941
v -0.00365 -0.31728 0.05518
v -0.00488 0.09974 0.05833
v -0.0039 -0.30595 0.05498
v -0.0039 0.09975 0.05385
v -0.00488 -0.30596 0.05946
v -0.00365 -0.31728 0.05518
v -0.0039 -0.30595 0.05498
v -0.00228 0.11205 0.06122
v -0.00321 0.1124 0.05827
v 1E-05 0.11285 0.05809
v -0.00228 0.11205 0.06122
v 1E-05 0.11285 0.05809
v 0.00022 0.11239 0.06205
v 0.00022 0.11239 0.06205
v 1E-05 0.11285 0.05809
v 0.00322 0.1124 0.05792
v 0.00022 0.11239 0.06205
v 0.00322 0.1124 0.05792
v 0.00261 0.11205 0.06096
v 1E-05 0.11285 0.05809
v 0.00229 0.11206 0.05496
v 0.00322 0.1124 0.05792
v 1E-05 0.11285 0.05809
v -0.00021 0.11241 0.05413
v 0.00229 0.11206 0.05496
v -0.00321 0.1124 0.05827
v -0.00021 0.11241 0.05413
v 1E-05 0.11285 0.05809
v -0.00321 0.1124 0.05827
v -0.0026 0.11206 0.05523
v -0.00021 0.11241 0.05413
v -0.0003 0.11108 0.05252
v -0.00021 0.11241 0.05413
v -0.0026 0.11206 0.05523
v -0.0003 0.11108 0.05252
v -0.0026 0.11206 0.05523
v -0.00365 0.11108 0.0541
v -0.00365 0.11108 0.0541
v -0.0026 0.11206 0.05523
v -0.00321 0.1124 0.05827
v 0.0032 0.11108 0.05373
v 0.00229 0.11206 0.05496
v -0.00021 0.11241 0.05413
v 0.0032 0.11108 0.05373
v -0.00021 0.11241 0.05413
v -0.0003 0.11108 0.05252
v -0.00456 0.11107 0.05834
v -0.00321 0.1124 0.05827
v -0.00228 0.11205 0.06122
v -0.00365 0.11108 0.0541
v -0.00321 0.1124 0.05827
v -0.00456 0.11107 0.05834
v -0.00456 0.11107 0.05834
v -0.00228 0.11205 0.06122
v -0.00319 0.11106 0.06245
v -0.00319 0.11106 0.06245
v -0.00228 0.11205 0.06122
v 0.00022 0.11239 0.06205
v 0.00031 0.11106 0.06366
v 0.00022 0.11239 0.06205
v 0.00261 0.11205 0.06096
v -0.00319 0.11106 0.06245
v 0.00022 0.11239 0.06205
v 0.00031 0.11106 0.06366
v 0.00031 0.11106 0.06366
v 0.00261 0.11205 0.06096
v 0.00366 0.11106 0.06208
v 0.00366 0.11106 0.06208
v 0.00261 0.11205 0.06096
v 0.00322 0.1124 0.05792
v 0.00457 0.11107 0.05784
v 0.00322 0.1124 0.05792
v 0.00229 0.11206 0.05496
v 0.00457 0.11107 0.05784
v 0.00229 0.11206 0.05496
v 0.0032 0.11108 0.05373
v 0.00366 0.11106 0.06208
v 0.00322 0.1124 0.05792
v 0.00457 0.11107 0.05784
v 0.00489 0.09974 0.0578
v 0.00457 0.11107 0.05784
v 0.0032 0.11108 0.05373
v 0.00343 0.09975 0.05345
v 0.00343 -0.30595 0.05458
v 0.00489 -0.30596 0.05892
v 0.00457 -0.31729 0.05892
v 0.0032 -0.31728 0.05481
v 0.00489 0.09974 0.0578
v 0.0032 0.11108 0.05373
v 0.00343 0.09975 0.05345
v 0.00489 -0.30596 0.05892
v 0.00457 -0.31729 0.05892
v 0.00366 -0.3173 0.06316
v 0.00391 0.09973 0.06228
v 0.00391 -0.30597 0.06341
v 0.00489 0.09974 0.0578
v 0.00457 0.11107 0.05784
v 0.00366 0.11106 0.06208
v 0.00489 -0.30596 0.05892
v 0.00366 -0.3173 0.06316
v 0.00391 -0.30597 0.06341
v 0.00032 0.09973 0.06395
v 0.00391 0.09973 0.06228
v 0.00391 -0.30597 0.06341
v 0.00032 -0.30597 0.06508
v 0.00391 -0.30597 0.06341
v 0.00031 -0.3173 0.06473
v 0.00032 -0.30597 0.06508
v 0.00366 -0.3173 0.06316
v 0.00032 0.09973 0.06395
v 0.00032 -0.30597 0.06508
v -0.00342 -0.30597 0.0638
v -0.00342 0.09973 0.06268
v 0.00032 -0.30597 0.06508
v -0.00319 -0.3173 0.06353
v -0.00342 -0.30597 0.0638
v 0.00031 -0.3173 0.06473
v -0.00342 0.09973 0.06268
v -0.00488 -0.30596 0.05946
v -0.00488 0.09974 0.05833
v -0.00342 -0.30597 0.0638
v -0.00456 -0.31729 0.05941
v -0.00319 -0.3173 0.06353
v 0.00343 0.09975 0.05345
v -0.00031 0.09975 0.05218
v -0.00031 -0.30594 0.05331
v 0.00343 -0.30595 0.05458
v -0.00031 -0.30594 0.05331
v 0.0032 -0.31728 0.05481
v 0.00343 -0.30595 0.05458
v -0.0003 -0.31728 0.0536
v -0.0039 0.09975 0.05385
v -0.0039 -0.30595 0.05498
v -0.00031 -0.30594 0.05331
v -0.00031 0.09975 0.05218
v -0.0039 -0.30595 0.05498
v -0.0003 -0.31728 0.0536
v -0.00031 -0.30594 0.05331
v -0.00365 -0.31728 0.05518
v 0.00343 0.09975 0.05345
v 0.0032 0.11108 0.05373
v -0.0003 0.11108 0.05252
v -0.00031 0.09975 0.05218
v -0.00031 0.09975 0.05218
v -0.0003 0.11108 0.05252
v -0.00365 0.11108 0.0541
v -0.0039 0.09975 0.05385
v -0.0039 0.09975 0.05385
v -0.00365 0.11108 0.0541
v -0.00456 0.11107 0.05834
v -0.00488 0.09974 0.05833
v -0.00488 0.09974 0.05833
v -0.00456 0.11107 0.05834
v -0.00319 0.11106 0.06245
v -0.00342 0.09973 0.06268
v -0.00342 0.09973 0.06268
v -0.00319 0.11106 0.06245
v 0.00031 0.11106 0.06366
v 0.00032 0.09973 0.06395
v 0.00032 0.09973 0.06395
v 0.00031 0.11106 0.06366
v 0.00366 0.11106 0.06208
v 0.00391 0.09973 0.06228
v -0.00152 0.09933 -0.00058
v -0.00078 0.0993 0.0546
v -0.00078 0.0953 0.05459
v -0.00152 0.09533 -0.00059
v 0.00248 0.09933 -0.0008
v -0.00152 0.09933 -0.00058
v -0.00152 0.09533 -0.00059
v 0.00248 0.09533 -0.00081
v 0.00248 0.09533 -0.00081
v -0.00152 0.09533 -0.00059
v -0.00078 0.0953 0.05459
v 0.00321 0.0953 0.05438
v 0.00321 0.0953 0.05438
v -0.00078 0.0953 0.05459
v -0.00078 0.0993 0.0546
v 0.00321 0.0993 0.05438
v 0.00321 0.0993 0.05438
v -0.00078 0.0993 0.0546
v -0.00152 0.09933 -0.00058
v 0.00248 0.09933 -0.0008
v 0.00248 0.09933 -0.0008
v 0.00248 0.09533 -0.00081
v 0.00321 0.0953 0.05438
v 0.00321 0.0993 0.05438
v -0.00152 -0.30128 0.00055
v -0.00078 -0.30131 0.05574
v -0.00078 -0.30531 0.05573
v -0.00152 -0.30528 0.00055
v 0.00248 -0.30128 0.00034
v -0.00152 -0.30128 0.00055
v -0.00152 -0.30528 0.00055
v 0.00248 -0.30528 0.00033
v 0.00248 -0.30528 0.00033
v -0.00152 -0.30528 0.00055
v -0.00078 -0.30531 0.05573
v 0.00321 -0.3053 0.05551
v 0.00321 -0.3053 0.05551
v -0.00078 -0.30531 0.05573
v -0.00078 -0.30131 0.05574
v 0.00321 -0.3013 0.05552
v 0.00321 -0.3013 0.05552
v -0.00078 -0.30131 0.05574
v -0.00152 -0.30128 0.00055
v 0.00248 -0.30128 0.00034
v 0.00248 -0.30128 0.00034
v 0.00248 -0.30528 0.00033
v 0.00321 -0.3053 0.05551
v 0.00321 -0.3013 0.05552
vn 0.1428961 -0.9801108 0.1377082
vn 0.1428961 -0.9801108 0.1377082
vn 0.1428961 -0.9801107 0.1377082
vn 0.1866358 -0.9776019 0.09727173
vn 0.1866358 -0.9776019 0.09727171
vn 0.1866358 -0.9776019 0.09727173
vn -0.1296116 -0.9848466 0.1152307
vn -0.1296116 -0.9848466 0.1152307
vn -0.1296116 -0.9848466 0.1152307
vn -0.1912508 -0.9665207 0.1710582
vn -0.1912508 -0.9665207 0.1710582
vn -0.1912508 -0.9665207 0.1710582
vn -0.142923 -0.9795161 -0.1418498
vn -0.142923 -0.9795161 -0.1418497
vn -0.142923 -0.9795161 -0.1418497
vn -0.1866316 -0.9771839 -0.1013922
vn -0.1866316 -0.9771839 -0.1013922
vn -0.1866316 -0.9771839 -0.1013922
vn 0.1295905 -0.9843543 -0.1193865
vn 0.1295904 -0.9843543 -0.1193865
vn 0.1295905 -0.9843543 -0.1193865
vn 0.1913399 -0.9657561 -0.1752257
vn 0.1913399 -0.9657561 -0.1752257
vn 0.1913399 -0.9657561 -0.1752257
vn 0.3061134 -0.722953 -0.6193817
vn 0.3061134 -0.7229529 -0.6193818
vn 0.3061134 -0.7229529 -0.6193817
vn 0.182003 -0.8279757 -0.5304065
vn 0.1820031 -0.8279757 -0.5304065
vn 0.182003 -0.8279757 -0.5304065
vn 0.5231576 -0.8110932 -0.2615989
vn 0.5231576 -0.8110932 -0.2615989
vn 0.5231576 -0.8110932 -0.2615989
vn -0.321939 -0.8387986 -0.4390584
vn -0.321939 -0.8387986 -0.4390584
vn -0.3219389 -0.8387986 -0.4390584
vn -0.284012 -0.7439945 -0.6048218
vn -0.284012 -0.7439945 -0.6048217
vn -0.284012 -0.7439945 -0.6048218
vn 0.6903441 -0.6908354 0.2148757
vn 0.6903441 -0.6908354 0.2148758
vn 0.690344 -0.6908354 0.2148758
vn 0.6767285 -0.7004646 -0.2266887
vn 0.6767285 -0.7004646 -0.2266888
vn 0.6767285 -0.7004646 -0.2266888
vn 0.6023697 -0.7878107 0.1284713
vn 0.6023698 -0.7878107 0.1284714
vn 0.6023698 -0.7878107 0.1284714
vn 0.3218713 -0.840694 0.435468
vn 0.3218713 -0.840694 0.435468
vn 0.3218713 -0.8406941 0.435468
vn -0.3060629 -0.7255877 0.616318
vn -0.3060629 -0.7255877 0.6163181
vn -0.3060629 -0.7255877 0.6163181
vn 0.283955 -0.7465599 0.6016792
vn 0.283955 -0.7465599 0.6016792
vn 0.283955 -0.7465599 0.6016792
vn -0.1820354 -0.8301512 0.526984
vn -0.1820354 -0.8301512 0.526984
vn -0.1820354 -0.8301512 0.526984
vn -0.5232571 -0.8121387 0.2581334
vn -0.5232572 -0.8121386 0.2581334
vn -0.5232571 -0.8121386 0.2581334
vn -0.6903439 -0.6899142 -0.2178161
vn -0.6903437 -0.6899142 -0.2178161
vn -0.6903437 -0.6899142 -0.2178161
vn -0.6023557 -0.7872659 -0.1318332
vn -0.6023557 -0.787266 -0.1318332
vn -0.6023557 -0.787266 -0.1318332
vn -0.6767324 -0.7014158 0.2237163
vn -0.6767324 -0.7014158 0.2237164
vn -0.6767324 -0.7014158 0.2237164
vn -0.9768103 -0.0005940003 -0.2141053
vn -0.977084 -0.02667214 -0.2111763
vn -0.977084 -0.02667214 -0.2111763
vn -0.9768056 -0.0005938319 -0.214127
vn -0.9768103 -0.0005939992 -0.2141055
vn -0.9768056 -0.0005938306 -0.2141272
vn -0.9764812 -0.02550731 -0.2140886
vn -0.9764812 -0.02550731 -0.2140886
vn -0.9764812 -0.02550731 -0.2140886
vn -0.1269269 0.9794852 0.1565196
vn -0.1269269 0.9794851 0.1565196
vn -0.1269269 0.9794852 0.1565196
vn -0.1748036 0.9771399 0.1210016
vn -0.1748036 0.9771399 0.1210016
vn -0.1748035 0.9771399 0.1210016
vn 0.1415295 0.9843849 0.1046696
vn 0.1415295 0.9843849 0.1046696
vn 0.1415295 0.9843849 0.1046696
vn 0.2089195 0.9658141 0.1534788
vn 0.2089195 0.9658141 0.1534788
vn 0.2089195 0.9658141 0.1534788
vn 0.1269417 0.9801435 -0.15233
vn 0.1269417 0.9801435 -0.15233
vn 0.1269417 0.9801435 -0.15233
vn 0.1747228 0.977656 -0.1168786
vn 0.1747228 0.977656 -0.1168786
vn 0.1747228 0.977656 -0.1168786
vn -0.1415413 0.9848178 -0.1004984
vn -0.1415413 0.9848178 -0.1004984
vn -0.1415413 0.9848178 -0.1004984
vn -0.2088634 0.9664728 -0.1493536
vn -0.2088634 0.9664728 -0.1493536
vn -0.2088634 0.9664728 -0.1493536
vn -0.3710769 0.7255537 -0.5795462
vn -0.3710769 0.7255537 -0.5795462
vn -0.3710769 0.7255536 -0.5795463
vn -0.2382163 0.8301137 -0.5041471
vn -0.2382163 0.8301137 -0.5041471
vn -0.2382163 0.8301137 -0.5041471
vn -0.5483447 0.8119888 -0.1999808
vn -0.5483448 0.8119888 -0.1999808
vn -0.5483447 0.8119888 -0.1999808
vn 0.2725911 0.8406999 -0.4678867
vn 0.2725911 0.8406999 -0.4678868
vn 0.2725911 0.8406999 -0.4678868
vn 0.2170244 0.7466334 -0.6288393
vn 0.2170244 0.7466335 -0.6288393
vn 0.2170244 0.7466334 -0.6288393
vn -0.6628528 0.6897674 0.2912853
vn -0.6628528 0.6897674 0.2912853
vn -0.6628528 0.6897674 0.2912854
vn -0.6971465 0.7012427 -0.1491494
vn -0.6971465 0.7012427 -0.1491494
vn -0.6971464 0.7012427 -0.1491494
vn -0.5847018 0.7871557 0.1962389
vn -0.5847018 0.7871557 0.1962389
vn -0.5847018 0.7871557 0.1962389
vn -0.2725801 0.838805 0.4712815
vn -0.2725801 0.838805 0.4712815
vn -0.2725801 0.838805 0.4712815
vn 0.3711561 0.7230911 0.5825654
vn 0.3711562 0.7230911 0.5825654
vn 0.3711562 0.7230912 0.5825654
vn -0.2170417 0.7439438 0.6320131
vn -0.2170417 0.7439438 0.6320131
vn -0.2170417 0.7439437 0.6320131
vn 0.2381642 0.8279819 0.507665
vn 0.2381642 0.8279819 0.507665
vn 0.2381642 0.8279819 0.507665
vn 0.5482485 0.8112004 0.2034148
vn 0.5482484 0.8112005 0.2034148
vn 0.5482484 0.8112005 0.2034148
vn 0.6628987 0.6909637 -0.2883307
vn 0.6628986 0.6909637 -0.2883307
vn 0.6628986 0.6909637 -0.2883306
vn 0.5848209 0.7878819 -0.1929422
vn 0.5848209 0.7878819 -0.1929422
vn 0.584821 0.7878818 -0.1929422
vn 0.6971555 0.7005975 0.1521101
vn 0.6971555 0.7005975 0.1521101
vn 0.6971554 0.7005975 0.1521101
vn 0.9478982 -0.0008837292 -0.3185722
vn 0.9485037 0.02779138 -0.3155443
vn 0.9485037 0.02779138 -0.3155443
vn 0.9478982 -0.0008837292 -0.3185722
vn 0.9478982 -0.0008837292 -0.3185722
vn 0.9478814 -0.0008836212 -0.3186221
vn 0.9482741 -0.0255467 -0.3164232
vn 0.9485253 -0.02524416 -0.3156936
vn 0.947574 0.02662896 -0.3184249
vn 0.947574 0.02662896 -0.3184249
vn 0.947574 0.02662896 -0.3184249
vn 0.9768101 0.0005937825 0.2141062
vn 0.9770933 -0.02756906 0.211018
vn 0.9770933 -0.02756906 0.211018
vn 0.9768101 0.0005937825 0.2141062
vn 0.9768077 0.0005938001 0.2141173
vn 0.9768101 0.0005937825 0.2141062
vn 0.9769486 0.0257686 0.2119138
vn 0.9771185 0.02546715 0.2111657
vn 0.9764782 -0.0264003 0.213994
vn 0.9764782 -0.02640031 0.213994
vn 0.9764782 -0.0264003 0.213994
vn 0.4222609 0.00251389 0.9064708
vn 0.4222605 0.00251389 0.906471
vn 0.42232 0.002513983 0.9064433
vn 0.4223204 0.002513984 0.9064431
vn 0.4228508 -0.02827692 0.905758
vn 0.4249686 -0.02906152 0.9047415
vn 0.4221566 -0.02801988 0.9060898
vn 0.4257804 -0.02936251 0.9043499
vn -0.3217136 0.002625835 0.9468334
vn -0.3216592 0.002626047 0.9468519
vn -0.3216595 0.002626046 0.9468518
vn -0.3217139 0.002625833 0.9468333
vn -0.3223103 -0.02917365 0.9461844
vn -0.3245847 -0.02836804 0.9454311
vn -0.3215653 -0.02943733 0.9464297
vn -0.3254563 -0.02805905 0.9451407
vn -0.9478977 0.0008838483 0.3185737
vn -0.9478977 0.0008838483 0.3185737
vn -0.9478977 0.0008838483 0.3185737
vn -0.9478923 0.0008835272 0.3185895
vn -0.9482778 -0.02688257 0.3163013
vn -0.9485289 -0.02657694 0.3155735
vn 0.3217103 -0.002626359 -0.9468345
vn 0.3217106 -0.002626357 -0.9468344
vn 0.3216619 -0.002626583 -0.946851
vn 0.3216615 -0.002626584 -0.9468511
vn 0.3223238 -0.02517622 -0.9462947
vn 0.3245475 -0.0243808 -0.945555
vn 0.3215955 -0.02543655 -0.9465355
vn 0.3253997 -0.02407572 -0.9452699
vn -0.4223176 -0.00251432 -0.9064444
vn -0.4223177 -0.002513819 -0.9064444
vn -0.4223177 -0.002513822 -0.9064444
vn -0.4223176 -0.002514324 -0.9064444
vn -0.4228334 -0.02446648 -0.9058771
vn -0.4249839 -0.02527781 -0.9048479
vn -0.4221284 -0.02420066 -0.906213
vn -0.4258083 -0.02558905 -0.9044515
vn 0.3223218 0.02836775 -0.946205
vn 0.3254488 0.02947594 -0.9451001
vn 0.3245822 0.02916869 -0.9454077
vn 0.3215809 0.02810533 -0.9464648
vn -0.4228961 0.02907737 -0.9057115
vn -0.4258491 0.02797264 -0.9043616
vn -0.4250311 0.0282789 -0.9047369
vn -0.4221966 0.0293387 -0.9060294
vn -0.9765969 0.0272865 -0.2133398
vn -0.9771175 0.02635408 -0.2110607
vn -0.9769474 0.0266601 -0.2118088
vn -0.9764459 0.02755491 -0.2139956
vn -0.9477841 0.02554528 0.3178879
vn -0.9484959 0.02644928 0.3156833
vn -0.9482636 0.02615335 0.3164052
vn -0.9475787 0.02528567 0.3185205
vn -0.3222881 0.02438042 0.9463277
vn -0.3254129 0.02549806 0.9452282
vn -0.3245469 0.02518819 0.9455342
vn -0.3215477 0.02411576 0.9465863
vn 0.4228505 0.02527411 0.905847
vn 0.425826 0.024162 0.9044824
vn 0.4250017 0.02447029 0.9048617
vn 0.4221457 0.0255372 0.9061683
vn -0.9999121 -2.929702E-05 0.01325833
vn -0.9999121 -2.76485E-05 0.01325832
vn -0.9999121 -2.772802E-05 0.01325832
vn -0.9999121 -2.937655E-05 0.01325833
vn -0.05419959 0.002104474 -0.9985279
vn -0.0542313 0.002114063 -0.9985261
vn -0.05419958 0.002104474 -0.9985279
vn -0.05416789 0.002094886 -0.9985297
vn 7.741647E-05 -0.9999999 -0.0005170419
vn 7.69632E-05 -0.9999999 -0.0005171236
vn 8.61298E-05 -0.9999999 -0.0005154724
vn 8.658307E-05 -0.9999999 -0.0005153908
vn 0.05420252 -0.00211402 0.9985278
vn 0.05423714 -0.002114063 0.9985259
vn 0.05420252 -0.00211402 0.9985278
vn 0.05416788 -0.002113977 0.9985296
vn -8.654858E-05 0.9999999 0.0005171216
vn -8.655204E-05 0.9999999 0.0005171216
vn -8.647873E-05 0.9999999 0.000517122
vn -8.647527E-05 0.9999999 0.000517122
vn 0.9999121 2.791637E-05 -0.01325908
vn 0.9999121 2.79293E-05 -0.0132591
vn 0.9999121 2.766126E-05 -0.01325869
vn 0.9999121 2.764833E-05 -0.01325867
vn -0.9999121 -2.929712E-05 0.01325838
vn -0.9999121 -2.764845E-05 0.01325851
vn -0.9999121 -2.772798E-05 0.01325851
vn -0.9999121 -2.937665E-05 0.01325837
vn -0.05420725 0.002133077 -0.9985274
vn -0.05419943 0.002133103 -0.9985279
vn -0.05420726 0.002133077 -0.9985274
vn -0.05421509 0.002133051 -0.9985269
vn 6.855558E-05 -0.9999999 -0.0005166288
vn 6.742503E-05 -0.9999999 -0.0005166903
vn 9.028927E-05 -0.9999999 -0.0005154494
vn 9.141977E-05 -0.9999999 -0.0005153882
vn 0.05417649 -0.002075861 0.9985292
vn 0.05413852 -0.002075878 0.9985313
vn 0.05417648 -0.002075861 0.9985292
vn 0.05421446 -0.002075844 0.9985272
vn -0.0001050543 0.9999999 0.000516592
vn -0.0001056952 0.9999999 0.0005166892
vn -9.208867E-05 0.9999999 0.0005146258
vn -9.144775E-05 0.9999999 0.0005145287
vn 0.9999121 2.795059E-05 -0.01325882
vn 0.9999121 2.796519E-05 -0.01325881
vn 0.9999121 2.766245E-05 -0.01325907
vn 0.9999121 2.764785E-05 -0.01325909
vt 0.3772889 0.5040029
vt 0.3784259 0.5000001
vt 0.375 0.5000001
vt 0.3772889 0.5040029
vt 0.375 0.5000001
vt 0.375 0.5046496
vt 0.375 0.5046496
vt 0.375 0.5000001
vt 0.3715741 0.5000001
vt 0.375 0.5046496
vt 0.3715741 0.5000001
vt 0.3722794 0.5037093
vt 0.375 0.5000001
vt 0.3721106 0.4969704
vt 0.3715741 0.5000001
vt 0.375 0.5000001
vt 0.375 0.4953506
vt 0.3721106 0.4969704
vt 0.3784259 0.5000001
vt 0.375 0.4953506
vt 0.375 0.5000001
vt 0.3784259 0.5000001
vt 0.3775667 0.496527
vt 0.375 0.4953506
vt 0.375 0.4936701
vt 0.375 0.4953506
vt 0.3775667 0.496527
vt 0.375 0.4936701
vt 0.3775667 0.496527
vt 0.3785238 0.4952526
vt 0.3785238 0.4952526
vt 0.3775667 0.496527
vt 0.3784259 0.5000001
vt 0.3714762 0.4952526
vt 0.3721106 0.4969704
vt 0.375 0.4953506
vt 0.3714762 0.4952526
vt 0.375 0.4953506
vt 0.375 0.4936701
vt 0.3796984 0.5000001
vt 0.3784259 0.5000001
vt 0.3772889 0.5040029
vt 0.3785238 0.4952526
vt 0.3784259 0.5000001
vt 0.3796984 0.5000001
vt 0.3796984 0.5000001
vt 0.3772889 0.5040029
vt 0.3785238 0.5047475
vt 0.3785238 0.5047475
vt 0.3772889 0.5040029
vt 0.375 0.5046496
vt 0.375 0.50633
vt 0.375 0.5046496
vt 0.3722794 0.5037093
vt 0.3785238 0.5047475
vt 0.375 0.5046496
vt 0.375 0.50633
vt 0.375 0.50633
vt 0.3722794 0.5037093
vt 0.3714762 0.5047475
vt 0.3714762 0.5047475
vt 0.3722794 0.5037093
vt 0.3715741 0.5000001
vt 0.3703016 0.5000001
vt 0.3715741 0.5000001
vt 0.3721106 0.4969704
vt 0.3703016 0.5000001
vt 0.3721106 0.4969704
vt 0.3714762 0.4952526
vt 0.3714762 0.5047475
vt 0.3715741 0.5000001
vt 0.3703016 0.5000001
vt 0.1584936 0.5
vt 0.1657165 0.5
vt 0.1719068 0.4749809
vt 0.1130966 0.5
vt 0.1646839 0.4656085
vt 0.1130966 0.4656085
vt 0.1584936 0.5
vt 0.1719068 0.4749809
vt 0.1646839 0.4656085
vt 0.8772888 0.5040025
vt 0.8784256 0.5000001
vt 0.875 0.5000001
vt 0.8772888 0.5040025
vt 0.875 0.5000001
vt 0.875 0.5046492
vt 0.875 0.5046492
vt 0.875 0.5000001
vt 0.8715744 0.5000001
vt 0.875 0.5046492
vt 0.8715744 0.5000001
vt 0.8722797 0.503709
vt 0.875 0.5000001
vt 0.8721108 0.4969707
vt 0.8715744 0.5000001
vt 0.875 0.5000001
vt 0.875 0.4953509
vt 0.8721108 0.4969707
vt 0.8784256 0.5000001
vt 0.875 0.4953509
vt 0.875 0.5000001
vt 0.8784256 0.5000001
vt 0.8775665 0.4965273
vt 0.875 0.4953509
vt 0.875 0.4936706
vt 0.875 0.4953509
vt 0.8775665 0.4965273
vt 0.875 0.4936706
vt 0.8775665 0.4965273
vt 0.8785237 0.495253
vt 0.8785237 0.495253
vt 0.8775665 0.4965273
vt 0.8784256 0.5000001
vt 0.8714763 0.495253
vt 0.8721108 0.4969707
vt 0.875 0.4953509
vt 0.8714763 0.495253
vt 0.875 0.4953509
vt 0.875 0.4936706
vt 0.8796981 0.5000001
vt 0.8784256 0.5000001
vt 0.8772888 0.5040025
vt 0.8785237 0.495253
vt 0.8784256 0.5000001
vt 0.8796981 0.5000001
vt 0.8796981 0.5000001
vt 0.8772888 0.5040025
vt 0.8785237 0.5047471
vt 0.8785237 0.5047471
vt 0.8772888 0.5040025
vt 0.875 0.5046492
vt 0.875 0.5063295
vt 0.875 0.5046492
vt 0.8722797 0.503709
vt 0.8785237 0.5047471
vt 0.875 0.5046492
vt 0.875 0.5063295
vt 0.875 0.5063295
vt 0.8722797 0.503709
vt 0.8714763 0.5047471
vt 0.8714763 0.5047471
vt 0.8722797 0.503709
vt 0.8715744 0.5000001
vt 0.8703019 0.5000001
vt 0.8715744 0.5000001
vt 0.8721108 0.4969707
vt 0.8703019 0.5000001
vt 0.8721108 0.4969707
vt 0.8714763 0.495253
vt 0.8714763 0.5047471
vt 0.8715744 0.5000001
vt 0.8703019 0.5000001
vt 0.6441845 0.5
vt 0.651253 0.5
vt 0.6573111 0.4755155
vt 0.6502424 0.4663434
vt 0.5997576 0.4663434
vt 0.6058155 0.5
vt 0.598747 0.5
vt 0.5926889 0.4755155
vt 0.6441845 0.5
vt 0.6573111 0.4755155
vt 0.6502424 0.4663434
vt 0.6058155 0.5
vt 0.598747 0.5
vt 0.5926889 0.5244845
vt 0.6502424 0.5336567
vt 0.5997576 0.5336567
vt 0.6441845 0.5
vt 0.651253 0.5
vt 0.6573111 0.5244845
vt 0.6058155 0.5
vt 0.5926889 0.5244845
vt 0.5997576 0.5336567
vt 0.4255036 0.8469728
vt 0.4494964 0.8469728
vt 0.4494964 0.7829918
vt 0.4255036 0.7907493
vt 0.4494964 0.7829918
vt 0.4255036 0.7820312
vt 0.4255036 0.7907493
vt 0.4427778 0.7742738
vt 0.3244965 0.8469729
vt 0.3244965 0.7907492
vt 0.3005035 0.7829917
vt 0.3005035 0.8469729
vt 0.3244965 0.7907492
vt 0.3072222 0.7742736
vt 0.3005035 0.7829917
vt 0.3244965 0.7820312
vt 0.1130966 0.5343915
vt 0.1584936 0.5
vt 0.1130966 0.5
vt 0.1646839 0.5343915
vt 0.1657165 0.5
vt 0.1719068 0.525019
vt 0.4494964 0.1530272
vt 0.4255036 0.1530272
vt 0.4255036 0.2092507
vt 0.4494964 0.2170081
vt 0.4255036 0.2092507
vt 0.4427778 0.2257262
vt 0.4494964 0.2170081
vt 0.4255036 0.2179687
vt 0.3005036 0.1530273
vt 0.3005036 0.2170081
vt 0.3244964 0.2092506
vt 0.3244964 0.1530273
vt 0.3005036 0.2170081
vt 0.3244964 0.2179686
vt 0.3244964 0.2092506
vt 0.3072222 0.2257261
vt 0.8050615 0.3533405
vt 0.8092274 0.3587462
vt 0.8199385 0.3539361
vt 0.8199385 0.3533405
vt 0.9300637 0.3533413
vt 0.9300637 0.3539367
vt 0.9407716 0.3587454
vt 0.9449363 0.3533413
vt 0.9846914 0.4791143
vt 0.9803051 0.4848061
vt 0.9840644 0.5
vt 0.9846914 0.5
vt 0.9846914 0.5
vt 0.9840644 0.5
vt 0.9803051 0.5151939
vt 0.9846914 0.5208857
vt 0.9449398 0.64666
vt 0.9407732 0.6412534
vt 0.9300602 0.6460643
vt 0.9300602 0.64666
vt 0.819937 0.646659
vt 0.819937 0.6460634
vt 0.8092281 0.6412544
vt 0.805063 0.646659
vt 0.3718182 0.1624242
vt 0.3718182 0.1709091
vt 0.3781818 0.1709091
vt 0.3781818 0.1624242
vt 0.8767312 0.5023082
vt 0.8767312 0.4976919
vt 0.8732688 0.4976919
vt 0.8732688 0.5023082
vt 0.6281826 0.5042435
vt 0.6281826 0.4957565
vt 0.6218174 0.4957565
vt 0.6218174 0.5042435
vt 0.376732 0.5023093
vt 0.376732 0.4976908
vt 0.373268 0.4976908
vt 0.373268 0.5023093
vt 0.1281818 0.5042425
vt 0.1281818 0.4957575
vt 0.1218182 0.4957575
vt 0.1218182 0.5042425
vt 0.3718182 0.8375759
vt 0.3781818 0.8375759
vt 0.3781818 0.8290909
vt 0.3718182 0.8290909
vt 0.371818 0.162424
vt 0.371818 0.1709093
vt 0.378182 0.1709093
vt 0.378182 0.162424
vt 0.8767312 0.5023082
vt 0.8767312 0.4976919
vt 0.8732688 0.4976919
vt 0.8732688 0.5023082
vt 0.6281818 0.5042424
vt 0.6281818 0.4957577
vt 0.6218182 0.4957577
vt 0.6218182 0.5042424
vt 0.3767328 0.5023104
vt 0.3767328 0.4976896
vt 0.3732672 0.4976896
vt 0.3732672 0.5023104
vt 0.128182 0.5042427
vt 0.128182 0.4957574
vt 0.121818 0.4957574
vt 0.121818 0.5042427
vt 0.3718179 0.8375761
vt 0.3781821 0.8375761
vt 0.3781821 0.8290907
vt 0.3718179 0.8290907
usemtl Metal
f 311/311/311 310/310/310 309/309/309
f 314/314/314 313/313/313 312/312/312
f 317/317/317 316/316/316 315/315/315
f 320/320/320 319/319/319 318/318/318
f 323/323/323 322/322/322 321/321/321
f 326/326/326 325/325/325 324/324/324
f 329/329/329 328/328/328 327/327/327
f 332/332/332 331/331/331 330/330/330
f 335/335/335 334/334/334 333/333/333
f 338/338/338 337/337/337 336/336/336
f 341/341/341 340/340/340 339/339/339
f 344/344/344 343/343/343 342/342/342
f 347/347/347 346/346/346 345/345/345
f 350/350/350 349/349/349 348/348/348
f 353/353/353 352/352/352 351/351/351
f 356/356/356 355/355/355 354/354/354
f 359/359/359 358/358/358 357/357/357
f 362/362/362 361/361/361 360/360/360
f 365/365/365 364/364/364 363/363/363
f 368/368/368 367/367/367 366/366/366
f 371/371/371 370/370/370 369/369/369
f 374/374/374 373/373/373 372/372/372
f 377/377/377 376/376/376 375/375/375
f 380/380/380 379/379/379 378/378/378
f 383/383/383 382/382/382 381/381/381
f 385/385/385 381/381/381 384/384/384
f 386/386/386 385/385/385 384/384/384
f 389/389/389 388/388/388 387/387/387
f 392/392/392 391/391/391 390/390/390
f 395/395/395 394/394/394 393/393/393
f 398/398/398 397/397/397 396/396/396
f 401/401/401 400/400/400 399/399/399
f 404/404/404 403/403/403 402/402/402
f 407/407/407 406/406/406 405/405/405
f 410/410/410 409/409/409 408/408/408
f 413/413/413 412/412/412 411/411/411
f 416/416/416 415/415/415 414/414/414
f 419/419/419 418/418/418 417/417/417
f 422/422/422 421/421/421 420/420/420
f 425/425/425 424/424/424 423/423/423
f 428/428/428 427/427/427 426/426/426
f 431/431/431 430/430/430 429/429/429
f 434/434/434 433/433/433 432/432/432
f 437/437/437 436/436/436 435/435/435
f 440/440/440 439/439/439 438/438/438
f 443/443/443 442/442/442 441/441/441
f 446/446/446 445/445/445 444/444/444
f 449/449/449 448/448/448 447/447/447
f 452/452/452 451/451/451 450/450/450
f 455/455/455 454/454/454 453/453/453
f 458/458/458 457/457/457 456/456/456
f 461/461/461 460/460/460 459/459/459
f 464/464/464 463/463/463 462/462/462
f 466/466/466 465/465/465 462/462/462
f 467/467/467 466/466/466 462/462/462
f 467/467/467 468/468/468 466/466/466
f 468/468/468 469/469/469 466/466/466
f 472/472/472 471/471/471 470/470/470
f 475/475/475 474/474/474 473/473/473
f 477/477/477 473/473/473 476/476/476
f 473/473/473 478/478/478 476/476/476
f 478/478/478 479/479/479 476/476/476
f 479/479/479 480/480/480 476/476/476
f 483/483/483 482/482/482 481/481/481
f 486/486/486 485/485/485 484/484/484
f 487/487/487 486/486/486 484/484/484
f 490/490/490 489/489/489 488/488/488
f 489/489/489 491/491/491 488/488/488
f 494/494/494 493/493/493 492/492/492
f 495/495/495 494/494/494 492/492/492
f 498/498/498 497/497/497 496/496/496
f 497/497/497 499/499/499 496/496/496
f 502/502/502 501/501/501 500/500/500
f 501/501/501 503/503/503 500/500/500
f 501/501/501 504/504/504 503/503/503
f 504/504/504 505/505/505 503/503/503
f 508/508/508 507/507/507 506/506/506
f 509/509/509 508/508/508 506/506/506
f 512/512/512 511/511/511 510/510/510
f 511/511/511 513/513/513 510/510/510
f 516/516/516 515/515/515 514/514/514
f 517/517/517 516/516/516 514/514/514
f 520/520/520 519/519/519 518/518/518
f 519/519/519 521/521/521 518/518/518
f 524/524/524 523/523/523 522/522/522
f 525/525/525 524/524/524 522/522/522
f 528/528/528 527/527/527 526/526/526
f 529/529/529 528/528/528 526/526/526
f 532/532/532 531/531/531 530/530/530
f 533/533/533 532/532/532 530/530/530
f 536/536/536 535/535/535 534/534/534
f 537/537/537 536/536/536 534/534/534
f 540/540/540 539/539/539 538/538/538
f 541/541/541 540/540/540 538/538/538
f 544/544/544 543/543/543 542/542/542
f 545/545/545 544/544/544 542/542/542
f 548/548/548 547/547/547 546/546/546
f 549/549/549 548/548/548 546/546/546
f 552/552/552 551/551/551 550/550/550
f 553/553/553 552/552/552 550/550/550
f 556/556/556 555/555/555 554/554/554
f 557/557/557 556/556/556 554/554/554
f 560/560/560 559/559/559 558/558/558
f 561/561/561 560/560/560 558/558/558
f 564/564/564 563/563/563 562/562/562
f 565/565/565 564/564/564 562/562/562
f 568/568/568 567/567/567 566/566/566
f 569/569/569 568/568/568 566/566/566
f 572/572/572 571/571/571 570/570/570
f 573/573/573 572/572/572 570/570/570
f 576/576/576 575/575/575 574/574/574
f 577/577/577 576/576/576 574/574/574
f 580/580/580 579/579/579 578/578/578
f 581/581/581 580/580/580 578/578/578
f 584/584/584 583/583/583 582/582/582
f 585/585/585 584/584/584 582/582/582
f 588/588/588 587/587/587 586/586/586
f 589/589/589 588/588/588 586/586/586
f 592/592/592 591/591/591 590/590/590
f 593/593/593 592/592/592 590/590/590
