mtllib MetalCabinet_bba209f2.mtl
g MetalCabinet_bba209f2
v -1.37406 1.22232 -1.6111
v -1.37867 1.22233 -1.61515
v -1.37406 1.22694 -1.61515
v -1.37406 1.22263 -2.50702
v -1.37406 1.22725 -2.5024
v -1.37867 1.22263 -2.5024
v -0.58782 1.22263 -2.50702
v -0.58359 1.22544 -2.50149
v -0.58782 1.22725 -2.5024
v -0.58782 0.38869 -1.6917
v -0.58782 0.38407 -1.69632
v -0.58359 0.38078 -1.68926
v -0.58782 0.3889 -2.32414
v -0.58359 0.381 -2.32968
v -0.58782 0.38429 -2.31953
v -1.37406 0.31921 -1.61141
v -1.37867 1.22233 -1.61515
v -1.37406 1.22232 -1.6111
v -0.58359 1.22513 -1.61298
v -0.58782 1.22232 -1.6111
v -0.58782 1.22694 -1.61515
v -0.58782 1.16249 -1.69143
v -0.58359 1.16891 -1.68899
v -0.58782 1.16711 -1.69605
v -0.58782 1.16271 -2.32388
v -0.58782 1.16732 -2.31926
v -0.58359 1.16913 -2.32941
v -1.23636 0.32762 -1.64146
v -1.23636 0.34522 -1.63684
v -1.24098 0.34522 -1.64146
v -0.60744 1.19882 -1.64
v -0.61167 1.20095 -1.64116
v -0.61167 1.19633 -1.63655
v -0.61167 0.34522 -1.63684
v -0.60744 1.19882 -1.64
v -0.61167 1.19633 -1.63655
v -0.61167 0.34522 -1.63684
v -0.61167 0.32762 -1.64146
v -0.60744 0.34352 -1.63877
v -0.61167 0.34522 -1.63684
v -0.60744 0.34352 -1.63877
v -0.60744 1.19882 -1.64
v -0.6032 0.3889 -2.32414
v -0.6032 0.38429 -2.31953
v -0.60744 0.38138 -2.32966
v -0.6032 1.16271 -2.32388
v -0.60744 1.17194 -2.32939
v -0.6032 1.16732 -2.31926
v -0.61167 1.19663 -2.48103
v -0.61167 1.20124 -2.47641
v -0.60744 1.19662 -2.47552
v -0.60744 0.34381 -2.47581
v -0.60744 0.38138 -2.32966
v -0.61167 0.32791 -2.47671
v -0.61167 0.32762 -1.64146
v -0.60744 0.38116 -1.68978
v -0.60744 0.34352 -1.63877
v -0.6032 1.16249 -1.69143
v -0.6032 1.16711 -1.69605
v -0.60744 1.16924 -1.68798
v -0.61167 1.20095 -1.65616
v -0.60744 1.19666 -2.4606
v -0.61167 1.20123 -2.4615
v -1.23636 1.20095 -1.64116
v -1.24098 1.19634 -1.64116
v -1.23636 1.19633 -1.63655
v -1.23636 1.19663 -2.48103
v -1.24098 1.19662 -2.47641
v -1.23636 1.20124 -2.47641
v -1.23636 0.32791 -2.47671
v -1.24098 0.34551 -2.47671
v -1.23636 0.34551 -2.48132
v -0.61167 0.34551 -2.48132
v -0.60744 0.34381 -2.47581
v -0.61167 0.32791 -2.47671
v -0.60744 0.38116 -1.68978
v -0.6032 0.38869 -1.6917
v -0.6032 1.16249 -1.69143
v -0.60744 0.38116 -1.68978
v -0.6032 1.16249 -1.69143
v -0.60744 1.16924 -1.68798
v -0.58359 0.3182 -2.5018
v -0.58782 0.31952 -2.50733
v -0.58782 0.3149 -2.50113
v -0.6032 0.38407 -1.69632
v -0.6032 0.38869 -1.6917
v -0.60744 0.38116 -1.68978
v -1.37406 1.22263 -2.50702
v -1.37867 1.22263 -2.5024
v -1.37867 0.3149 -2.50113
v -1.37406 1.22263 -2.50702
v -1.37867 0.3149 -2.50113
v -1.37406 0.31952 -2.50733
v -1.37406 1.22695 -1.63109
v -0.58782 1.22694 -1.61515
v -1.37406 1.22694 -1.61515
v -0.58782 1.22695 -1.63109
v -1.37406 1.22724 -2.48656
v -0.58782 1.22724 -2.48656
v -1.37406 1.22725 -2.5024
v -0.58782 1.22725 -2.5024
v -1.37406 1.22694 -1.61515
v -1.37867 1.22233 -1.61515
v -1.37867 1.22233 -1.63109
v -1.37406 1.22695 -1.63109
v -1.37867 1.22263 -2.48656
v -1.37406 1.22724 -2.48656
v -1.37867 1.22263 -2.5024
v -1.37406 1.22725 -2.5024
v -0.58359 1.22543 -2.48562
v -0.58782 1.22725 -2.5024
v -0.58359 1.22544 -2.50149
v -0.58782 1.22724 -2.48656
v -0.58359 1.22514 -1.62894
v -0.58782 1.22695 -1.63109
v -0.58359 1.22513 -1.61298
v -0.58782 1.22694 -1.61515
v -0.58782 0.38408 -1.70751
v -0.58359 0.38078 -1.68926
v -0.58782 0.38407 -1.69632
v -0.58359 0.38078 -1.70077
v -0.58782 0.38428 -2.3084
v -0.58359 0.38099 -2.31824
v -0.58782 0.38429 -2.31953
v -0.58359 0.381 -2.32968
v -1.37406 0.31952 -2.50733
v -0.58782 0.31952 -2.50733
v -0.58782 1.22263 -2.50702
v -1.37406 1.22263 -2.50702
v -0.58359 1.22544 -2.50149
v -0.58782 1.22263 -2.50702
v -0.58782 0.31952 -2.50733
v -0.58359 0.3182 -2.5018
v -0.58782 1.22263 -2.50702
v -1.37406 1.22725 -2.5024
v -1.37406 1.22263 -2.50702
v -0.58782 1.22725 -2.5024
v -0.58782 0.22895 -2.50116
v -0.58782 0.22153 -2.50117
v -0.58782 0.22153 -2.48849
v -0.58782 0.22894 -2.48849
v -0.58782 0.30087 -2.50114
v -0.58782 0.30087 -2.48847
v -0.58782 0.3149 -2.50113
v -0.58782 0.3149 -2.48846
v -1.37406 1.22232 -1.6111
v -0.58782 1.22232 -1.6111
v -0.58782 0.31921 -1.61141
v -1.37406 0.31921 -1.61141
v -1.37867 0.31459 -1.61141
v -1.37867 1.22233 -1.61515
v -0.58782 0.31459 -1.61141
v -1.37867 0.30574 -1.61141
v -0.58782 0.30574 -1.61141
v -1.37867 0.22967 -1.61144
v -0.58782 0.22967 -1.61144
v -1.37867 0.22123 -1.61144
v -0.58782 0.22123 -1.61144
v -0.58782 0.31921 -1.61141
v -0.58359 0.31789 -1.61329
v -0.58782 0.31459 -1.61141
v -0.58782 1.22232 -1.6111
v -0.58359 1.22513 -1.61298
v -1.37406 1.22232 -1.6111
v -0.58782 1.22694 -1.61515
v -0.58782 1.22232 -1.6111
v -1.37406 1.22694 -1.61515
v -0.58782 1.16711 -1.70724
v -0.6032 1.16711 -1.69605
v -0.58782 1.16711 -1.69605
v -0.6032 1.16711 -1.70724
v -0.58782 1.16732 -2.30813
v -0.6032 1.16732 -2.30813
v -0.58782 1.16732 -2.31926
v -0.6032 1.16732 -2.31926
v -0.58782 1.16711 -1.69605
v -0.58359 1.16891 -1.68899
v -0.58359 1.16892 -1.70049
v -0.58782 1.16711 -1.70724
v -0.58359 1.16913 -2.31797
v -0.58782 1.16732 -2.30813
v -0.58359 1.16913 -2.32941
v -0.58782 1.16732 -2.31926
v -1.23636 1.19633 -1.63655
v -1.23636 0.34522 -1.63684
v -0.61167 0.34522 -1.63684
v -0.61167 1.19633 -1.63655
v -1.24098 0.34522 -1.64146
v -1.23636 0.34522 -1.63684
v -1.23636 1.19633 -1.63655
v -1.24098 1.19634 -1.64116
v -1.23636 1.20095 -1.64116
v -1.23636 1.19633 -1.63655
v -0.61167 1.19633 -1.63655
v -0.61167 1.20095 -1.64116
v -0.61167 0.32762 -1.64146
v -0.61167 0.34522 -1.63684
v -1.23636 0.34522 -1.63684
v -1.23636 0.32762 -1.64146
v -0.60744 0.34381 -2.47581
v -0.60744 1.17194 -2.32939
v -0.60744 0.38138 -2.32966
v -0.60744 1.19662 -2.47552
v -0.60744 1.17189 -2.31793
v -0.60744 1.19666 -2.4606
v -0.60744 1.16929 -1.6995
v -0.60744 1.19878 -1.65501
v -0.60744 1.16924 -1.68798
v -0.60744 1.19882 -1.64
v -0.60744 0.38116 -1.68978
v -0.60744 0.34352 -1.63877
v -0.60744 1.17194 -2.32939
v -0.6032 0.3889 -2.32414
v -0.60744 0.38138 -2.32966
v -0.6032 1.16271 -2.32388
v -0.61167 1.19663 -2.48103
v -0.60744 1.19662 -2.47552
v -0.60744 0.34381 -2.47581
v -0.61167 0.34551 -2.48132
v -0.61167 1.20123 -2.4615
v -0.60744 1.19662 -2.47552
v -0.61167 1.20124 -2.47641
v -0.60744 1.19666 -2.4606
v -0.60744 1.17189 -2.31793
v -0.6032 1.16732 -2.31926
v -0.60744 1.17194 -2.32939
v -0.6032 1.16732 -2.30813
v -0.60744 1.16929 -1.6995
v -0.61167 0.3279 -2.4618
v -0.61167 0.32791 -2.47671
v -0.60744 0.38138 -2.32966
v -0.60744 0.38137 -2.31823
v -0.61167 0.32763 -1.65647
v -0.60744 0.38116 -1.70127
v -0.61167 0.32762 -1.64146
v -0.60744 0.38116 -1.68978
v -0.60744 1.16929 -1.6995
v -0.6032 1.16711 -1.70724
v -0.6032 1.16732 -2.30813
v -0.60744 1.16924 -1.68798
v -0.6032 1.16711 -1.69605
v -0.61167 1.20095 -1.64116
v -0.60744 1.19882 -1.64
v -0.60744 1.19878 -1.65501
v -0.61167 1.20095 -1.65616
v -0.60744 1.19666 -2.4606
v -1.23636 1.20095 -1.65616
v -1.23636 1.20095 -1.64116
v -0.61167 1.20095 -1.64116
v -0.61167 1.20095 -1.65616
v -1.23636 1.20123 -2.4615
v -0.61167 1.20123 -2.4615
v -1.23636 1.20124 -2.47641
v -0.61167 1.20124 -2.47641
v -1.24098 1.19634 -1.64116
v -1.23636 1.20095 -1.64116
v -1.23636 1.20095 -1.65616
v -1.24098 1.19634 -1.65617
v -1.23636 1.20123 -2.4615
v -1.24098 1.19662 -2.4615
v -1.23636 1.20124 -2.47641
v -1.24098 1.19662 -2.47641
v -1.23636 0.34551 -2.48132
v -1.23636 1.19663 -2.48103
v -0.61167 1.19663 -2.48103
v -0.61167 0.34551 -2.48132
v -1.24098 1.19662 -2.47641
v -1.23636 1.19663 -2.48103
v -1.23636 0.34551 -2.48132
v -1.24098 0.34551 -2.47671
v -0.61167 0.34551 -2.48132
v -1.23636 0.32791 -2.47671
v -1.23636 0.34551 -2.48132
v -0.61167 0.32791 -2.47671
v -0.61167 1.20124 -2.47641
v -0.61167 1.19663 -2.48103
v -1.23636 1.19663 -2.48103
v -1.23636 1.20124 -2.47641
v -1.23636 0.3279 -2.4618
v -1.23636 0.32791 -2.47671
v -0.61167 0.32791 -2.47671
v -0.61167 0.3279 -2.4618
v -1.23636 0.32763 -1.65647
v -0.61167 0.32763 -1.65647
v -1.23636 0.32762 -1.64146
v -0.61167 0.32762 -1.64146
v -0.58782 1.16249 -1.69143
v -0.6032 1.16249 -1.69143
v -0.6032 0.38869 -1.6917
v -0.58782 0.38869 -1.6917
v -0.58782 0.38869 -1.6917
v -0.58359 1.16891 -1.68899
v -0.58782 1.16249 -1.69143
v -0.58359 0.38078 -1.68926
v -0.6032 0.38869 -1.6917
v -0.58782 0.38407 -1.69632
v -0.58782 0.38869 -1.6917
v -0.6032 0.38407 -1.69632
v -0.6032 1.16711 -1.69605
v -0.6032 1.16249 -1.69143
v -0.58782 1.16249 -1.69143
v -0.58782 1.16711 -1.69605
v -1.24098 0.3455 -2.46179
v -1.24098 1.19662 -2.47641
v -1.24098 0.34551 -2.47671
v -1.24098 1.19662 -2.4615
v -1.24098 0.34522 -1.65646
v -1.24098 1.19634 -1.65617
v -1.24098 0.34522 -1.64146
v -1.24098 1.19634 -1.64116
v -1.24098 0.34522 -1.65646
v -1.23636 0.32762 -1.64146
v -1.24098 0.34522 -1.64146
v -1.23636 0.32763 -1.65647
v -1.24098 0.3455 -2.46179
v -1.23636 0.3279 -2.4618
v -1.24098 0.34551 -2.47671
v -1.23636 0.32791 -2.47671
v -0.58782 0.3889 -2.32414
v -0.6032 0.3889 -2.32414
v -0.6032 1.16271 -2.32388
v -0.58782 1.16271 -2.32388
v -0.58782 1.16271 -2.32388
v -0.58359 0.381 -2.32968
v -0.58782 0.3889 -2.32414
v -0.58359 1.16913 -2.32941
v -0.58782 0.3889 -2.32414
v -0.6032 0.38429 -2.31953
v -0.6032 0.3889 -2.32414
v -0.58782 0.38429 -2.31953
v -0.6032 1.16271 -2.32388
v -0.58782 1.16732 -2.31926
v -0.58782 1.16271 -2.32388
v -0.6032 1.16732 -2.31926
v -0.58782 0.38428 -2.3084
v -0.6032 0.38429 -2.31953
v -0.58782 0.38429 -2.31953
v -0.6032 0.38428 -2.3084
v -0.58782 0.38408 -1.70751
v -0.6032 0.38408 -1.70751
v -0.58782 0.38407 -1.69632
v -0.6032 0.38407 -1.69632
v -0.60744 0.38138 -2.32966
v -0.6032 0.38429 -2.31953
v -0.6032 0.38428 -2.3084
v -0.60744 0.38137 -2.31823
v -0.6032 0.38408 -1.70751
v -0.60744 0.38116 -1.70127
v -0.6032 0.38407 -1.69632
v -0.60744 0.38116 -1.68978
v -0.58782 0.3149 -2.50113
v -0.58782 0.31952 -2.50733
v -1.37406 0.31952 -2.50733
v -1.37867 0.3149 -2.50113
v -0.58359 0.3182 -2.5018
v -0.58782 0.3149 -2.50113
v -0.58782 0.3149 -2.48846
v -0.58359 0.31816 -2.38355
v -0.58782 0.3146 -1.62981
v -0.58359 0.31796 -1.82375
v -0.58782 0.31459 -1.61141
v -0.58359 0.31789 -1.61329
v -1.37867 0.3146 -1.62981
v -0.58782 0.3146 -1.62981
v -0.58782 0.3149 -2.48846
v -1.37867 0.3149 -2.48846
v -1.37867 0.31459 -1.61141
v -1.37867 1.22233 -1.63109
v -1.37867 1.22233 -1.61515
v -1.37867 0.3146 -1.62981
v -1.37867 1.22263 -2.48656
v -1.37867 0.30575 -1.62981
v -1.37867 0.30574 -1.61141
v -1.37867 0.22967 -1.62984
v -1.37867 0.22967 -1.61144
v -1.37867 0.22123 -1.62984
v -1.37867 0.22123 -1.61144
v -1.37867 0.3149 -2.48846
v -1.37867 1.22263 -2.5024
v -1.37867 0.3149 -2.50113
v -1.37867 0.30087 -2.50114
v -1.37867 0.30087 -2.48847
v -1.37867 0.22895 -2.50116
v -1.37867 0.22894 -2.48849
v -1.37867 0.22153 -2.50117
v -1.37867 0.22153 -2.48849
v -1.37867 0.22153 -2.48849
v -0.58782 0.22153 -2.48849
v -0.58782 0.22153 -2.50117
v -1.37867 0.22153 -2.50117
v -1.37867 0.22123 -1.61144
v -0.58782 0.22123 -1.61144
v -0.58782 0.22123 -1.62984
v -1.37867 0.22123 -1.62984
v -1.37867 0.22967 -1.62984
v -1.37867 0.22123 -1.62984
v -0.58782 0.22123 -1.62984
v -0.58782 0.22967 -1.62984
v -1.37867 0.30575 -1.62981
v -0.58782 0.30575 -1.62981
v -1.37867 0.3146 -1.62981
v -0.58782 0.3146 -1.62981
v -1.37867 0.22895 -2.50116
v -1.37867 0.22153 -2.50117
v -0.58782 0.22153 -2.50117
v -0.58782 0.22895 -2.50116
v -1.37867 0.30087 -2.50114
v -0.58782 0.30087 -2.50114
v -1.37867 0.3149 -2.50113
v -0.58782 0.3149 -2.50113
v -0.58782 0.22894 -2.48849
v -0.58782 0.22153 -2.48849
v -1.37867 0.22153 -2.48849
v -1.37867 0.22894 -2.48849
v -0.58782 0.30087 -2.48847
v -1.37867 0.30087 -2.48847
v -0.58782 0.3149 -2.48846
v -1.37867 0.3149 -2.48846
v -0.58782 0.22967 -1.62984
v -0.58782 0.22123 -1.62984
v -0.58782 0.22123 -1.61144
v -0.58782 0.22967 -1.61144
v -0.58782 0.30575 -1.62981
v -0.58782 0.30574 -1.61141
v -0.58782 0.3146 -1.62981
v -0.58782 0.31459 -1.61141
v -0.58359 0.31816 -2.38355
v -0.58359 0.38099 -2.31824
v -0.58359 0.381 -2.32968
v -0.58359 0.3182 -2.5018
v -0.58359 0.31796 -1.82375
v -0.58359 1.16913 -2.32941
v -0.58359 0.38078 -1.70077
v -0.58359 1.22544 -2.50149
v -0.58359 0.31789 -1.61329
v -0.58359 1.16913 -2.31797
v -0.58359 0.38078 -1.68926
v -0.58359 1.22543 -2.48562
v -0.58359 1.22513 -1.61298
v -0.58359 1.16892 -1.70049
v -0.58359 1.16891 -1.68899
v -0.58359 1.22514 -1.62894
vn -1.2476 1.065116 -1.703414
vn -1.2476 1.065116 -1.703414
vn -1.2476 1.065117 -1.703414
vn -1.26282 1.080571 -2.398691
vn -1.26282 1.080571 -2.398691
vn -1.26282 1.080571 -2.398691
vn -0.6903794 1.118772 -2.436844
vn -0.6903793 1.118772 -2.436844
vn -0.6903793 1.118772 -2.436844
vn -0.4297466 0.9514651 -2.269672
vn -0.4297466 0.9514651 -2.269672
vn -0.4297466 0.9514651 -2.269672
vn -0.4021579 0.913084 -1.899309
vn -0.4021579 0.913084 -1.899309
vn -0.4021579 0.9130839 -1.899309
vn -1.310702 0.7469242 -1.631735
vn -1.310702 0.7469242 -1.631735
vn -1.310702 0.7469242 -1.631735
vn -0.9889368 1.126119 -1.633987
vn -0.9889368 1.126119 -1.633987
vn -0.9889368 1.126119 -1.633987
vn -0.4510842 0.5187106 -2.293937
vn -0.4510842 0.5187106 -2.293937
vn -0.4510843 0.5187106 -2.293937
vn -0.4133317 0.5642278 -1.882715
vn -0.4133317 0.5642278 -1.882715
vn -0.4133317 0.5642278 -1.882715
vn -0.5282899 0.8524826 -2.466899
vn -0.5282898 0.8524826 -2.466899
vn -0.5282899 0.8524826 -2.466899
vn -1.022365 0.3442744 -2.468507
vn -1.022365 0.3442744 -2.468507
vn -1.022365 0.3442744 -2.468507
vn -1.294784 0.7472287 -2.512595
vn -1.294784 0.7472287 -2.512595
vn -1.294784 0.7472287 -2.512595
vn -1.114538 0.885964 -2.594417
vn -1.114538 0.885964 -2.594417
vn -1.114538 0.885964 -2.594417
vn -1.168915 0.7463152 -2.590831
vn -1.168915 0.7463152 -2.590831
vn -1.168915 0.7463152 -2.590831
vn -1.454338 0.9172606 -1.895112
vn -1.454338 0.9172606 -1.895112
vn -1.454338 0.9172605 -1.895112
vn -1.464529 0.593453 -1.911897
vn -1.464529 0.593453 -1.911897
vn -1.464529 0.593453 -1.911897
vn -1.320718 0.4466837 -1.765231
vn -1.320718 0.4466837 -1.765231
vn -1.320718 0.4466837 -1.765231
vn -1.485716 0.8972811 -2.104032
vn -1.485716 0.8972811 -2.104032
vn -1.485716 0.897281 -2.104032
vn -1.483495 0.8781128 -1.968743
vn -1.483495 0.8781128 -1.968743
vn -1.483495 0.8781129 -1.968743
vn -1.427584 0.5405964 -2.272058
vn -1.427584 0.5405964 -2.272058
vn -1.427584 0.5405964 -2.272058
vn -1.353199 0.3547917 -2.065557
vn -1.353199 0.3547917 -2.065557
vn -1.353199 0.3547917 -2.065557
vn -0.5963507 0.413808 -2.39892
vn -0.5963507 0.413808 -2.39892
vn -0.5963507 0.413808 -2.39892
vn -0.5963513 0.4135722 -1.732159
vn -0.5963514 0.4135722 -1.732159
vn -0.5963514 0.4135722 -1.732159
vn -0.5282665 0.8521985 -1.663894
vn -0.5282665 0.8521985 -1.663894
vn -0.5282665 0.8521985 -1.663894
vn -1.366611 0.8426317 -1.70044
vn -1.366611 0.8426317 -1.70044
vn -1.366611 0.8426317 -1.70044
vn -1.168663 0.7472559 -2.590946
vn -1.168663 0.7472559 -2.590946
vn -1.168663 0.7472559 -2.590946
vn -1.293937 0.748099 -2.513284
vn -1.293937 0.748099 -2.513284
vn -1.293937 0.748099 -2.513284
vn -0.6589565 0.3380769 -2.370076
vn -0.6589565 0.3380769 -2.370076
vn -0.6589565 0.3380769 -2.370076
vn -1.417439 0.9654693 -2.283679
vn -1.417439 0.9654692 -2.283679
vn -1.417439 0.9654692 -2.283679
vn -1.337736 0.7465028 -2.473768
vn -1.337736 0.7465028 -2.473768
vn -1.337736 0.7465028 -2.473768
vn -1.392629 0.7471933 -2.410276
vn -1.392629 0.7471933 -2.410276
vn -1.392629 0.7471933 -2.410276
vn -0.9295862 1.324425 -2.065228
vn -0.9295862 1.324425 -2.065228
vn -0.9295862 1.324425 -2.065224
vn -0.9295862 1.324425 -2.065228
vn -0.9295862 1.324425 -2.065222
vn -0.9295862 1.324425 -2.065222
vn -0.9295862 1.324425 -2.065218
vn -0.9295862 1.324425 -2.065218
vn -1.337729 1.155428 -2.065282
vn -1.337729 1.155428 -2.065282
vn -1.33773 1.155427 -2.065282
vn -1.337731 1.155426 -2.065282
vn -1.337736 1.155421 -2.065277
vn -1.337728 1.155429 -2.065281
vn -1.337728 1.155429 -2.065281
vn -1.337728 1.155429 -2.065281
vn -0.7027709 1.278006 -2.065247
vn -0.7027708 1.278006 -2.065247
vn -0.7027708 1.278006 -2.065247
vn -0.702803 1.278019 -2.065234
vn -0.7027921 1.278015 -2.065238
vn -0.7027888 1.278013 -2.065238
vn -0.7027872 1.278013 -2.065245
vn -0.7027866 1.278012 -2.065248
vn -0.5747947 1.202548 -2.065265
vn -0.5747957 1.202549 -2.065265
vn -0.5747992 1.202551 -2.065265
vn -0.5747914 1.202545 -2.065265
vn -0.5747944 1.202548 -2.065264
vn -0.5748017 1.202553 -2.065264
vn -0.5747954 1.202549 -2.065263
vn -0.5747954 1.202548 -2.065261
vn -0.9295862 0.7472737 -2.642772
vn -0.9295862 0.7472737 -2.642772
vn -0.9295862 0.7472737 -2.642772
vn -0.9295862 0.7472737 -2.642772
vn -0.471051 0.7471954 -2.416248
vn -0.471051 0.7471954 -2.416248
vn -0.4710381 0.7471954 -2.416231
vn -0.471038 0.7471954 -2.416231
vn -0.9295862 1.155472 -2.47352
vn -0.9295862 1.155462 -2.473531
vn -0.9295862 1.155462 -2.473531
vn -0.9295862 1.155473 -2.47352
vn -0.3522359 0.7470744 -2.065422
vn -0.3522359 0.7470705 -2.065422
vn -0.3522359 0.7470729 -2.065422
vn -0.3522359 0.7470745 -2.065422
vn -0.3522359 0.7470732 -2.065422
vn -0.3522359 0.7470732 -2.065422
vn -0.3522359 0.7470734 -2.065422
vn -0.3522359 0.7470742 -2.065422
vn -0.9295862 0.7468746 -1.488072
vn -0.9295862 0.7468746 -1.488072
vn -0.9295862 0.7468746 -1.488072
vn -0.9295862 0.7468746 -1.488072
vn -0.9321755 0.7494544 -1.488082
vn -0.9321755 0.7494544 -1.488082
vn -0.9295862 0.7468746 -1.488072
vn -0.9295862 0.746875 -1.488072
vn -0.9295862 0.746875 -1.488072
vn -0.9295862 0.7468751 -1.488072
vn -0.9295862 0.7468751 -1.488072
vn -0.9295862 0.7468759 -1.488072
vn -0.9295862 0.7468759 -1.488072
vn -0.6946737 0.7468919 -1.538023
vn -0.6946737 0.7468919 -1.538023
vn -0.6946818 0.7468938 -1.538019
vn -0.6946737 0.7468919 -1.538023
vn -0.6946636 0.746892 -1.538028
vn -0.9295862 1.12814 -1.631692
vn -0.9295862 1.128134 -1.631686
vn -0.9295862 1.128134 -1.631686
vn -0.9295862 1.12814 -1.631692
vn -0.9295862 0.1697239 -2.065616
vn -0.9295862 0.1697239 -2.065616
vn -0.9295862 0.1697239 -2.065626
vn -0.9295862 0.1697239 -2.065616
vn -0.9295862 0.1697239 -2.065621
vn -0.9295862 0.1697239 -2.065621
vn -0.9295862 0.1697239 -2.065624
vn -0.9295862 0.1697239 -2.065617
vn -0.7027851 0.2161368 -2.065606
vn -0.7027827 0.2161378 -2.065605
vn -0.7027881 0.2161355 -2.065608
vn -0.7027906 0.2161344 -2.06561
vn -0.7027889 0.2161351 -2.065606
vn -0.7028199 0.2161219 -2.065611
vn -0.7028199 0.2161219 -2.065611
vn -0.7028199 0.2161219 -2.065611
vn -0.9295862 0.7472737 -2.642772
vn -0.9295862 0.7472737 -2.642772
vn -0.9295862 0.7472737 -2.642772
vn -0.9295862 0.7472737 -2.642772
vn -0.5214391 0.7472153 -2.473771
vn -0.5214391 0.7472153 -2.473771
vn -0.5214241 0.7472153 -2.473756
vn -0.5214241 0.7472153 -2.473756
vn -0.9295862 0.3389702 -2.473814
vn -0.9295862 0.3389701 -2.473814
vn -0.9295862 0.3389701 -2.473814
vn -0.9295862 0.3389701 -2.473814
vn -0.9295862 0.8936926 -2.623845
vn -0.9295862 0.8936926 -2.623845
vn -0.9295862 0.8936926 -2.623845
vn -0.9295862 0.8936926 -2.623845
vn -1.506936 0.7470742 -2.065422
vn -1.506936 0.7470742 -2.065422
vn -1.506936 0.7470742 -2.065422
vn -1.506936 0.7470742 -2.065422
vn -1.506936 0.7470789 -2.065422
vn -1.506936 0.7470789 -2.065422
vn -1.506936 0.7470704 -2.065422
vn -1.506936 0.7470742 -2.065422
vn -1.506936 0.7470793 -2.065422
vn -1.506936 0.7470742 -2.065422
vn -1.506936 0.7470742 -2.065422
vn -1.506936 0.7470742 -2.065422
vn -1.387543 0.7469527 -1.713841
vn -1.387543 0.7469527 -1.713841
vn -1.387543 0.7469527 -1.713841
vn -1.387548 0.7469528 -1.713848
vn -1.387541 0.7469527 -1.713839
vn -1.387541 0.7469527 -1.713839
vn -1.38756 0.7469527 -1.713863
vn -1.38756 0.7469527 -1.713863
vn -1.355085 0.3568385 -2.065563
vn -1.355085 0.3568384 -2.065563
vn -1.355085 0.3568385 -2.065563
vn -1.353314 0.3549175 -2.064389
vn -1.35342 0.3550339 -2.067076
vn -1.35342 0.3550339 -2.067076
vn -1.35342 0.3550339 -2.067076
vn -1.353194 0.354786 -2.065562
vn -1.351573 0.3530465 -2.067082
vn -1.50514 0.7925803 -2.065406
vn -1.50514 0.7925815 -2.065406
vn -1.505141 0.7925659 -2.065406
vn -1.50514 0.7925801 -2.065406
vn -1.50514 0.7925797 -2.065406
vn -1.50514 0.7925794 -2.065406
vn -1.50514 0.7925819 -2.065406
vn -1.50514 0.7925837 -2.065406
vn -1.196568 0.2351664 -2.067577
vn -1.196568 0.2351664 -2.067577
vn -1.193717 0.233685 -2.065599
vn -1.196568 0.2351664 -2.067577
vn -1.189398 0.2314861 -2.065604
vn -1.189741 0.231661 -2.064072
vn -1.189741 0.231661 -2.064072
vn -1.189741 0.231661 -2.064072
vn -1.193706 0.2336795 -2.065601
vn -1.194035 0.2338505 -2.064075
vn -0.9295862 0.1697239 -2.06562
vn -0.9295862 0.1697239 -2.06562
vn -0.9295862 0.1697239 -2.06562
vn -0.9295862 0.1697239 -2.06562
vn -0.9295862 0.1697239 -2.065621
vn -0.9295862 0.1697239 -2.065621
vn -0.9295862 0.1697239 -2.065628
vn -0.9295862 0.1697239 -2.065628
vn -0.5214288 0.338735 -2.065566
vn -0.5214288 0.338735 -2.065566
vn -0.5214288 0.338735 -2.065566
vn -0.5214347 0.3387292 -2.065561
vn -0.5214217 0.3387421 -2.065563
vn -0.5214307 0.3387331 -2.065567
vn -0.5214322 0.3387316 -2.065567
vn -0.521433 0.3387309 -2.065567
vn -0.9295862 0.7468746 -1.488072
vn -0.9295862 0.7468746 -1.488072
vn -0.9295862 0.7468746 -1.488072
vn -0.9295862 0.7468746 -1.488072
vn -0.5214289 0.746933 -1.657083
vn -0.5214289 0.746933 -1.657083
vn -0.5214289 0.746933 -1.657083
vn -0.5214392 0.746933 -1.657072
vn -0.9295862 0.8933072 -1.506898
vn -0.9295862 0.8933074 -1.506898
vn -0.9295862 0.8933073 -1.506898
vn -0.9295862 0.8933072 -1.506898
vn -0.9295862 0.3386832 -1.657316
vn -0.9295862 0.3386831 -1.657316
vn -0.9295862 0.3386969 -1.657302
vn -0.9295862 0.338697 -1.657302
vn -0.9295862 1.324425 -2.065222
vn -0.9295862 1.324425 -2.065216
vn -0.9295862 1.324425 -2.065217
vn -0.9295862 1.324425 -2.065222
vn -0.9295862 1.324425 -2.065223
vn -0.9295862 1.324425 -2.065223
vn -0.9295862 1.324425 -2.065223
vn -0.9295862 1.324425 -2.065223
vn -0.9295862 0.7472738 -2.642772
vn -0.9295862 0.7472738 -2.642772
vn -0.9295862 0.7472738 -2.642772
vn -0.9295862 0.7472738 -2.642772
vn -0.6409937 0.747247 -2.56547
vn -0.6409934 0.7472471 -2.565469
vn -0.6409934 0.7472471 -2.565469
vn -0.6409937 0.747247 -2.56547
vn -0.9295862 1.155457 -2.473536
vn -0.9295862 1.155457 -2.473535
vn -0.9295862 1.155457 -2.473535
vn -0.9295862 1.155457 -2.473536
vn -0.9295884 0.33897 -2.473814
vn -0.9295862 0.3389716 -2.473816
vn -0.9295927 0.3389669 -2.473811
vn -0.9295949 0.3389652 -2.473809
vn -0.3522359 0.7470742 -2.065422
vn -0.3522359 0.7470742 -2.065422
vn -0.3522359 0.7470742 -2.065422
vn -0.3522359 0.7470742 -2.065422
vn -0.3522359 0.747074 -2.065422
vn -0.3522359 0.7470742 -2.065422
vn -0.3522359 0.7470742 -2.065422
vn -0.3522359 0.7470742 -2.065422
vn -0.3711318 0.8935738 -2.065371
vn -0.3711296 0.8935653 -2.065372
vn -0.3711303 0.893568 -2.065371
vn -0.3711287 0.8935618 -2.065371
vn -0.371129 0.8935629 -2.06537
vn -0.3711301 0.893567 -2.06537
vn -0.3711299 0.8935661 -2.06537
vn -0.3711309 0.8935703 -2.06537
vn -0.9295862 0.7468747 -1.488072
vn -0.9295862 0.7468747 -1.488072
vn -0.9295862 0.7468747 -1.488072
vn -0.9295862 0.7468747 -1.488072
vn -0.4710582 0.7469529 -1.714586
vn -0.4710494 0.746953 -1.714598
vn -0.4710493 0.746953 -1.714598
vn -0.4710582 0.7469529 -1.714586
vn -0.9295862 1.155188 -1.657039
vn -0.9295862 1.155188 -1.657039
vn -0.9295862 1.155189 -1.65704
vn -0.9295862 1.155187 -1.657039
vn -0.9295862 0.3386803 -1.657319
vn -0.9295862 0.3386829 -1.657317
vn -0.9295862 0.3386844 -1.657315
vn -0.9295862 0.3386789 -1.657321
vn -0.9295862 1.324425 -2.06522
vn -0.9295862 1.324425 -2.065221
vn -0.9295862 1.324425 -2.06522
vn -0.9295862 1.324425 -2.065221
vn -0.9295862 1.324425 -2.065224
vn -0.9295862 1.324425 -2.065221
vn -0.9295862 1.324425 -2.065221
vn -0.9295862 1.324425 -2.065221
vn -1.257222 1.222456 -2.06526
vn -1.257222 1.222456 -2.06526
vn -1.257222 1.222456 -2.06526
vn -1.257228 1.222452 -2.065254
vn -1.257234 1.222448 -2.065258
vn -1.257232 1.222449 -2.065258
vn -1.257232 1.222449 -2.065259
vn -1.257232 1.222449 -2.065261
vn -0.9295862 0.284062 -2.410317
vn -0.9295862 0.284062 -2.410317
vn -0.9295862 0.284063 -2.410319
vn -0.9295862 0.284063 -2.410319
vn -0.5748067 0.2915911 -2.06558
vn -0.5748166 0.2915834 -2.065582
vn -0.5748037 0.2915934 -2.065579
vn -0.5748017 0.291595 -2.065579
vn -0.5747408 0.2916425 -2.065579
vn -0.5748006 0.2915958 -2.065579
vn -0.5748034 0.2915936 -2.065579
vn -0.5748036 0.2915936 -2.065579
vn -0.9295862 0.1697239 -2.065621
vn -0.9295862 0.1697239 -2.065621
vn -0.9295862 0.1697239 -2.065621
vn -0.9295862 0.1697239 -2.065621
vn -1.506936 0.7470742 -2.065422
vn -1.506936 0.7470742 -2.065422
vn -1.506936 0.7470742 -2.065422
vn -1.506936 0.7470742 -2.065422
vn -1.506936 0.7470742 -2.065422
vn -1.506936 0.7470748 -2.065422
vn -1.506936 0.7470735 -2.065422
vn -1.506936 0.7470756 -2.065422
vn -1.506936 0.7470744 -2.065422
vn -1.506936 0.7470809 -2.065422
vn -1.506936 0.7470684 -2.065422
vn -1.506936 0.7470742 -2.065422
vn -1.506936 0.7470742 -2.065422
vn -1.506936 0.747074 -2.065422
vn -1.506936 0.7470739 -2.065422
vn -1.506936 0.7470735 -2.065422
vn -1.506936 0.7470736 -2.065422
vn -1.506936 0.7470732 -2.065422
vn -1.506936 0.7470726 -2.065422
vn -1.506936 0.7470696 -2.065422
vn -0.9295862 0.1697239 -2.065619
vn -0.9295862 0.1697239 -2.065619
vn -0.9295862 0.1697239 -2.065619
vn -0.9295862 0.1697239 -2.065619
vn -0.9295862 0.1697239 -2.065621
vn -0.9295862 0.1697239 -2.065621
vn -0.9295862 0.1697239 -2.065621
vn -0.9295862 0.1697239 -2.065621
vn -0.9295862 0.7472733 -2.642772
vn -0.9295862 0.7472724 -2.642772
vn -0.9295862 0.7472724 -2.642772
vn -0.9295862 0.7472733 -2.642772
vn -0.9295862 0.7472734 -2.642772
vn -0.9295862 0.7472734 -2.642772
vn -0.9295862 0.7472733 -2.642772
vn -0.9295862 0.7472733 -2.642772
vn -0.9295862 0.747273 -2.642772
vn -0.9295862 0.7472762 -2.642772
vn -0.9295862 0.7472762 -2.642772
vn -0.9295862 0.747273 -2.642772
vn -0.9295862 0.747274 -2.642772
vn -0.9295862 0.747274 -2.642772
vn -0.9295862 0.7472814 -2.642772
vn -0.9295862 0.7472814 -2.642772
vn -0.9295862 0.7468754 -1.488072
vn -0.9295862 0.7468721 -1.488072
vn -0.9295862 0.7468721 -1.488072
vn -0.9295862 0.7468754 -1.488072
vn -0.9295862 0.7468743 -1.488072
vn -0.9295862 0.7468743 -1.488072
vn -0.9295862 0.746867 -1.488072
vn -0.9295862 0.746867 -1.488072
vn -0.3522359 0.7470745 -2.065422
vn -0.3522359 0.7470784 -2.065422
vn -0.3522359 0.7470712 -2.065422
vn -0.3522359 0.7470737 -2.065422
vn -0.3522359 0.7470744 -2.065422
vn -0.3522359 0.7470742 -2.065422
vn -0.3522359 0.7470754 -2.065422
vn -0.3522359 0.7470742 -2.065422
vn -0.3522359 0.7470742 -2.065422
vn -0.3522359 0.7470742 -2.065422
vn -0.3522359 0.7470742 -2.065422
vn -0.3522359 0.7470742 -2.065422
vn -0.3522359 0.7470742 -2.065422
vn -0.3522359 0.7470742 -2.065422
vn -0.3522359 0.7470742 -2.065422
vn -0.3522359 0.7470742 -2.065422
vn -0.3522359 0.7470742 -2.065422
vn -0.3522359 0.7470742 -2.065422
vn -0.3522359 0.7470742 -2.065422
vn -0.3522359 0.7470742 -2.065422
vn -0.3522359 0.7470742 -2.065422
vn -0.3522359 0.7470748 -2.065422
vn -0.3522359 0.7470688 -2.065422
vn -0.3522359 0.7470742 -2.065422
vt 0.3730091 1.014271
vt 0.3779722 1.010494
vt 0.3719576 1.010494
vt 0.3730091 0.1800324
vt 0.3719576 0.1843284
vt 0.3779722 0.1843284
vt 2.08848 -0.03007972
vt 2.085919 -0.02335173
vt 2.092207 -0.02446741
vt 1.414792 0.9621147
vt 1.411064 0.9565021
vt 1.403571 0.9650852
vt 1.414792 0.1927395
vt 1.403571 0.1860118
vt 1.411062 0.198352
vt -0.2596477 0.3716292
vt -0.2546089 -0.45911
vt -0.2597084 -0.4590273
vt -1.121452 -0.4618911
vt -1.11687 -0.4592697
vt -1.116803 -0.4635973
vt 0.2866308 1.796233
vt 0.2946083 1.798557
vt 0.2894007 1.791537
vt 0.2866307 1.170234
vt 0.2894004 1.174672
vt 0.2946083 1.164668
vt 1.341493 1.500966
vt 1.341493 1.48457
vt 1.336449 1.484753
vt 2.028917 0.6982141
vt 2.024292 0.6962957
vt 2.024292 0.700363
vt 2.024292 1.48457
vt 2.028917 0.6982141
vt 2.024292 0.700363
vt 2.024292 1.48457
vt 2.024292 1.500966
vt 2.028917 1.48621
vt 2.024292 1.48457
vt 2.028917 1.48621
vt 2.028917 0.6982141
vt 1.499417 0.8884183
vt 1.494503 0.8928455
vt 1.50527 0.8946955
vt 1.499419 0.1464912
vt 1.50527 0.136702
vt 1.494503 0.1420719
vt 1.666806 0.1120176
vt 1.661892 0.1075982
vt 1.660955 0.1129599
vt 1.660955 0.9306397
vt 1.50527 0.8946955
vt 1.661892 0.9449446
vt 0.7720721 0.9456555
vt 0.8235871 0.8952397
vt 0.7692279 0.9313517
vt 0.8256581 0.1470292
vt 0.830573 0.1426018
vt 0.821956 0.1396268
vt 0.7880559 0.1082959
vt 1.645062 0.1129303
vt 1.646004 0.1076109
vt 1.42667 1.279489
vt 1.434064 1.279454
vt 1.429488 1.27471
vt 1.429488 2.125254
vt 1.434064 2.120703
vt 1.426671 2.12074
vt -0.4105421 1.589692
vt -0.4055084 1.573482
vt -0.410472 1.573386
vt -1.092622 1.573386
vt -1.097333 1.575064
vt -1.092692 1.589692
vt -0.3801051 0.3001059
vt -0.375349 0.2930501
vt -0.375349 -0.4401439
vt -0.3801051 0.3001059
vt -0.375349 -0.4401439
vt -0.3801049 -0.446677
vt 1.569934 0.6739935
vt 1.56654 0.6682913
vt 1.563719 0.6746718
vt -0.3493741 0.1751071
vt -0.3493741 0.1679276
vt -0.3565635 0.1713677
vt -0.500671 0.4506755
vt -0.495781 0.4516846
vt -0.4941098 -0.4102814
vt -0.500671 0.4506755
vt -0.4941098 -0.4102814
vt -0.500671 -0.4069083
vt 0.3719575 0.9956542
vt -0.4734214 1.010494
vt 0.3719576 1.010494
vt -0.4734214 0.9956542
vt 0.3719576 0.1990798
vt -0.4734214 0.1990798
vt 0.3719576 0.1843284
vt -0.4734214 0.1843283
vt 0.3719576 1.010494
vt 0.3779722 1.010494
vt 0.3779722 0.9956542
vt 0.3719575 0.9956542
vt 0.3779722 0.1990798
vt 0.3719576 0.1990798
vt 0.3779722 0.1843284
vt 0.3719576 0.1843284
vt 2.085919 -0.004052341
vt 2.092207 -0.02446741
vt 2.085919 -0.02335173
vt 2.092207 -0.005195141
vt 2.085919 1.038113
vt 2.092207 1.035499
vt 2.085919 1.057529
vt 2.092207 1.054887
vt 1.411064 0.9428836
vt 1.403571 0.9650852
vt 1.411064 0.9565021
vt 1.403571 0.9510908
vt 1.411062 0.2118889
vt 1.403571 0.1999224
vt 1.411062 0.198352
vt 1.403571 0.1860118
vt 0.1729898 0.9616202
vt 1.031605 0.9616202
vt 1.031605 0.1302302
vt 0.17299 0.1302302
vt 1.036226 0.1274274
vt 1.031605 0.1302302
vt 1.031605 0.9616202
vt 1.036226 0.9626137
vt 1.031605 0.1302302
vt 0.17299 0.1258
vt 0.17299 0.1302302
vt 1.031605 0.1258
vt 0.3037588 -0.3509874
vt 0.3037588 -0.3454298
vt 0.3206609 -0.3454298
vt 0.3206609 -0.3509874
vt 0.3037588 -0.4049176
vt 0.3206609 -0.4049176
vt 0.3037588 -0.4154383
vt 0.3206609 -0.4154383
vt -0.2597084 -0.4590273
vt -1.11687 -0.4592697
vt -1.11681 0.3713868
vt -0.2596477 0.3716292
vt -0.2546152 0.3758739
vt -0.2546089 -0.45911
vt -1.116809 0.37563
vt -0.2546147 0.3840138
vt -1.116809 0.38377
vt -0.2546093 0.453985
vt -1.116804 0.4537411
vt -0.2546089 0.4617499
vt -1.116803 0.4615059
vt -1.11681 0.3713868
vt -1.121391 0.3725583
vt -1.116809 0.37563
vt -1.11687 -0.4592697
vt -1.121452 -0.4618911
vt -0.2597084 -0.4590273
vt -1.116803 -0.4635973
vt -1.11687 -0.4592697
vt -0.2596414 -0.4633548
vt 0.2894007 1.780456
vt 0.2744126 1.791218
vt 0.2894007 1.791537
vt 0.2744126 1.780139
vt 0.2894007 1.185686
vt 0.2744126 1.185367
vt 0.2894004 1.174672
vt 0.2744126 1.174354
vt 0.2894007 1.791537
vt 0.2946083 1.798557
vt 0.2946083 1.787171
vt 0.2894007 1.780456
vt 0.2946083 1.175985
vt 0.2894007 1.185686
vt 0.2946083 1.164668
vt 0.2894004 1.174672
vt 1.341493 0.700363
vt 1.341493 1.48457
vt 2.024292 1.48457
vt 2.024292 0.700363
vt 1.336449 1.484753
vt 1.341493 1.48457
vt 1.341493 0.700363
vt 1.336449 0.7005463
vt 1.341493 0.6962957
vt 1.341493 0.700363
vt 2.024292 0.700363
vt 2.024292 0.6962957
vt 2.024292 1.500966
vt 2.024292 1.48457
vt 1.341493 1.48457
vt 1.341493 1.500966
vt 1.660955 0.9306397
vt 1.50527 0.136702
vt 1.50527 0.8946955
vt 1.660955 0.1129599
vt 1.493068 0.1367542
vt 1.645062 0.1129303
vt 0.8342301 0.1395742
vt 0.7868477 0.1113218
vt 0.821956 0.1396268
vt 0.7708592 0.1112919
vt 0.8235871 0.8952397
vt 0.7692279 0.9313517
vt 1.50527 0.136702
vt 1.499417 0.8884183
vt 1.50527 0.8946955
vt 1.499419 0.1464912
vt 1.666806 0.1120176
vt 1.660955 0.1129599
vt 1.660955 0.9306397
vt 1.666806 0.9280699
vt 1.646004 0.1076109
vt 1.660955 0.1129599
vt 1.661892 0.1075982
vt 1.645062 0.1129303
vt 1.493068 0.1367542
vt 1.494503 0.1420719
vt 1.50527 0.136702
vt 1.482648 0.1420812
vt 0.8342301 0.1395742
vt 1.646004 0.9449574
vt 1.661892 0.9449446
vt 1.50527 0.8946955
vt 1.493097 0.8947051
vt 0.7880559 0.9456427
vt 0.8358319 0.8952298
vt 0.7720721 0.9456555
vt 0.8235871 0.8952397
vt 0.8342301 0.1395742
vt 0.8424988 0.1425924
vt 1.482648 0.1420812
vt 0.821956 0.1396268
vt 0.830573 0.1426018
vt 0.7720721 0.1083087
vt 0.7708592 0.1112919
vt 0.7868477 0.1113218
vt 0.7880559 0.1082959
vt 1.645062 0.1129303
vt 1.42667 1.2946
vt 1.42667 1.279489
vt 0.8073419 1.266356
vt 0.8073416 1.281468
vt 1.426671 2.105719
vt 0.8073424 2.092587
vt 1.426671 2.12074
vt 0.8073419 2.107608
vt 1.434064 1.279454
vt 1.42667 1.279489
vt 1.42667 1.2946
vt 1.434064 1.294564
vt 1.426671 2.105719
vt 1.434064 2.105682
vt 1.426671 2.12074
vt 1.434064 2.120703
vt -0.410472 1.573386
vt -0.4107913 0.7892886
vt -1.092941 0.7892885
vt -1.092622 1.573386
vt -0.4058277 0.7893845
vt -0.4107913 0.7892886
vt -0.410472 1.573386
vt -0.4055084 1.573482
vt -1.092622 1.573386
vt -0.4105421 1.589692
vt -0.410472 1.573386
vt -1.092692 1.589692
vt -1.09302 0.7851342
vt -1.092941 0.7892885
vt -0.4107913 0.7892886
vt -0.4108697 0.7851342
vt 2.089722 -1.098211
vt 2.089722 -1.112089
vt 1.418438 -1.112089
vt 1.418438 -1.098211
vt 2.089722 -0.3487684
vt 1.418438 -0.3487684
vt 2.089722 -0.3348063
vt 1.418438 -0.3348063
vt -0.358058 -0.4401439
vt -0.375349 -0.4401439
vt -0.375349 0.2930501
vt -0.358058 0.2930501
vt -0.358058 0.2930501
vt -0.3533022 -0.4463276
vt -0.358058 -0.4401439
vt -0.3533022 0.3004444
vt -0.375349 0.2930501
vt -0.358058 0.29761
vt -0.358058 0.2930501
vt -0.375349 0.29761
vt -0.375349 -0.4443269
vt -0.375349 -0.4401439
vt -0.358058 -0.4401439
vt -0.358058 -0.4443269
vt -0.493839 1.231016
vt 0.1974978 1.21278
vt -0.493839 1.21278
vt 0.1974978 1.231016
vt -0.4938386 2.21577
vt 0.197498 2.21577
vt -0.4938386 2.234116
vt 0.197498 2.234116
vt -0.4938386 2.21577
vt -0.5134261 2.234116
vt -0.4938386 2.234116
vt -0.5134261 2.21577
vt -0.493839 1.231016
vt -0.5134261 1.231016
vt -0.493839 1.21278
vt -0.5134261 1.21278
vt 0.2845569 0.1812788
vt 0.2666141 0.1812725
vt 0.2666141 0.9427271
vt 0.2845569 0.9427332
vt 0.2845569 0.9427332
vt 0.2893939 0.17362
vt 0.2845569 0.1812788
vt 0.2893939 0.9491763
vt 0.2845569 0.1812788
vt 0.2666962 0.1766302
vt 0.2666141 0.1812725
vt 0.2846388 0.1766363
vt 0.2666141 0.9427271
vt 0.2846388 0.9471704
vt 0.2845569 0.9427332
vt 0.2666962 0.9471644
vt 0.8948461 0.7768089
vt 0.9114956 0.7663794
vt 0.8948461 0.7663794
vt 0.9114956 0.7768089
vt 0.8948461 1.34002
vt 0.9114956 1.34002
vt 0.8948461 1.350512
vt 0.9114956 1.350512
vt 0.9167441 0.7568891
vt 0.9114956 0.7663794
vt 0.9114956 0.7768089
vt 0.9167441 0.7675978
vt 0.9114956 1.34002
vt 0.9167441 1.345867
vt 0.9114956 1.350512
vt 0.9167441 1.356639
vt 1.563719 0.6746718
vt 1.56654 0.6682913
vt 0.7863389 0.6517481
vt 0.7789374 0.6580312
vt 1.569934 0.6739935
vt 1.563719 0.6746718
vt 1.563719 0.6874482
vt 1.569934 0.793201
vt 1.563719 1.553062
vt 1.569934 1.357541
vt 1.563719 1.57161
vt 1.569934 1.569705
vt 0.778937 1.536422
vt 1.563719 1.553062
vt 1.563719 0.6874482
vt 0.7789374 0.6708077
vt 0.4446265 -0.4110313
vt 0.4235315 0.4509502
vt 0.440347 0.4509369
vt 0.4252131 -0.4110156
vt -0.4790663 0.4516713
vt 0.4252131 -0.4194196
vt 0.4446265 -0.4194351
vt 0.4252131 -0.491659
vt 0.4446265 -0.4916745
vt 0.4252131 -0.4996755
vt 0.4446265 -0.4996909
vt -0.4807378 -0.4102922
vt -0.495781 0.4516846
vt -0.4941098 -0.4102814
vt -0.4941098 -0.423605
vt -0.4807378 -0.4236158
vt -0.4941098 -0.4919033
vt -0.4807378 -0.491914
vt -0.4941098 -0.4989413
vt -0.4807378 -0.4989519
vt 1.988502 0.09398526
vt 1.988502 0.8160251
vt 2.002383 0.8157309
vt 2.002383 0.09369087
vt 0.8945994 1.145011
vt 0.8945994 1.867059
vt 0.9147526 1.866631
vt 0.9147526 1.144583
vt 1.926698 0.699023
vt 1.918272 0.699023
vt 1.918272 1.491476
vt 1.926698 1.491476
vt 2.00262 0.699023
vt 2.00262 1.491476
vt 2.011451 0.699023
vt 2.011451 1.491476
vt 1.918121 0.1069914
vt 1.910725 0.1069914
vt 1.910725 0.8994449
vt 1.918121 0.8994449
vt 1.989901 0.1069914
vt 1.989901 0.8994449
vt 2.003903 0.1069914
vt 2.003903 0.8994449
vt -0.3628969 1.579861
vt -0.3554972 1.579859
vt -0.3554971 0.7877294
vt -0.3628968 0.7877318
vt -0.4347056 1.579886
vt -0.4347056 0.7877567
vt -0.4487141 1.57989
vt -0.4487139 0.7877616
vt 0.2887571 -0.35176
vt 0.2887571 -0.3454298
vt 0.3132961 -0.3454298
vt 0.313296 -0.35176
vt 0.2887571 -0.4088026
vt 0.313296 -0.4088026
vt 0.2887571 -0.4154383
vt 0.313296 -0.4154383
vt 1.352774 0.1204992
vt 1.403571 0.1999224
vt 1.403571 0.1860118
vt 1.352776 -0.02335173
vt 1.352774 0.8015034
vt 2.040466 0.1860118
vt 1.403571 0.9510908
vt 2.085919 -0.02335173
vt 1.352774 1.057529
vt 2.040466 0.1999224
vt 1.403571 0.9650852
vt 2.085919 -0.004052341
vt 2.085919 1.057529
vt 2.040466 0.9510911
vt 2.040466 0.9650852
vt 2.085919 1.038113
usemtl HammeredMetal_AlbedoTransparency
f 3/3/3 2/2/2 1/1/1
f 6/6/6 5/5/5 4/4/4
f 9/9/9 8/8/8 7/7/7
f 12/12/12 11/11/11 10/10/10
f 15/15/15 14/14/14 13/13/13
f 18/18/18 17/17/17 16/16/16
f 21/21/21 20/20/20 19/19/19
f 24/24/24 23/23/23 22/22/22
f 27/27/27 26/26/26 25/25/25
f 30/30/30 29/29/29 28/28/28
f 33/33/33 32/32/32 31/31/31
f 36/36/36 35/35/35 34/34/34
f 39/39/39 38/38/38 37/37/37
f 42/42/42 41/41/41 40/40/40
f 45/45/45 44/44/44 43/43/43
f 48/48/48 47/47/47 46/46/46
f 51/51/51 50/50/50 49/49/49
f 54/54/54 53/53/53 52/52/52
f 57/57/57 56/56/56 55/55/55
f 60/60/60 59/59/59 58/58/58
f 63/63/63 62/62/62 61/61/61
f 66/66/66 65/65/65 64/64/64
f 69/69/69 68/68/68 67/67/67
f 72/72/72 71/71/71 70/70/70
f 75/75/75 74/74/74 73/73/73
f 78/78/78 77/77/77 76/76/76
f 81/81/81 80/80/80 79/79/79
f 84/84/84 83/83/83 82/82/82
f 87/87/87 86/86/86 85/85/85
f 90/90/90 89/89/89 88/88/88
f 93/93/93 92/92/92 91/91/91
f 96/96/96 95/95/95 94/94/94
f 95/95/95 97/97/97 94/94/94
f 94/94/94 97/97/97 98/98/98
f 97/97/97 99/99/99 98/98/98
f 98/98/98 99/99/99 100/100/100
f 99/99/99 101/101/101 100/100/100
f 104/104/104 103/103/103 102/102/102
f 105/105/105 104/104/104 102/102/102
f 106/106/106 104/104/104 105/105/105
f 107/107/107 106/106/106 105/105/105
f 108/108/108 106/106/106 107/107/107
f 109/109/109 108/108/108 107/107/107
f 112/112/112 111/111/111 110/110/110
f 111/111/111 113/113/113 110/110/110
f 110/110/110 113/113/113 114/114/114
f 113/113/113 115/115/115 114/114/114
f 114/114/114 115/115/115 116/116/116
f 115/115/115 117/117/117 116/116/116
f 120/120/120 119/119/119 118/118/118
f 119/119/119 121/121/121 118/118/118
f 118/118/118 121/121/121 122/122/122
f 121/121/121 123/123/123 122/122/122
f 122/122/122 123/123/123 124/124/124
f 123/123/123 125/125/125 124/124/124
f 128/128/128 127/127/127 126/126/126
f 129/129/129 128/128/128 126/126/126
f 132/132/132 131/131/131 130/130/130
f 133/133/133 132/132/132 130/130/130
f 136/136/136 135/135/135 134/134/134
f 135/135/135 137/137/137 134/134/134
f 140/140/140 139/139/139 138/138/138
f 141/141/141 140/140/140 138/138/138
f 141/141/141 138/138/138 142/142/142
f 143/143/143 141/141/141 142/142/142
f 143/143/143 142/142/142 144/144/144
f 145/145/145 143/143/143 144/144/144
f 148/148/148 147/147/147 146/146/146
f 149/149/149 148/148/148 146/146/146
f 149/149/149 150/150/150 148/148/148
f 151/151/151 150/150/150 149/149/149
f 150/150/150 152/152/152 148/148/148
f 150/150/150 153/153/153 152/152/152
f 153/153/153 154/154/154 152/152/152
f 153/153/153 155/155/155 154/154/154
f 155/155/155 156/156/156 154/154/154
f 155/155/155 157/157/157 156/156/156
f 157/157/157 158/158/158 156/156/156
f 161/161/161 160/160/160 159/159/159
f 162/162/162 159/159/159 160/160/160
f 163/163/163 162/162/162 160/160/160
f 166/166/166 165/165/165 164/164/164
f 165/165/165 167/167/167 164/164/164
f 170/170/170 169/169/169 168/168/168
f 169/169/169 171/171/171 168/168/168
f 168/168/168 171/171/171 172/172/172
f 171/171/171 173/173/173 172/172/172
f 172/172/172 173/173/173 174/174/174
f 173/173/173 175/175/175 174/174/174
f 178/178/178 177/177/177 176/176/176
f 179/179/179 178/178/178 176/176/176
f 180/180/180 178/178/178 179/179/179
f 181/181/181 180/180/180 179/179/179
f 182/182/182 180/180/180 181/181/181
f 183/183/183 182/182/182 181/181/181
f 186/186/186 185/185/185 184/184/184
f 187/187/187 186/186/186 184/184/184
f 190/190/190 189/189/189 188/188/188
f 191/191/191 190/190/190 188/188/188
f 194/194/194 193/193/193 192/192/192
f 195/195/195 194/194/194 192/192/192
f 198/198/198 197/197/197 196/196/196
f 199/199/199 198/198/198 196/196/196
f 202/202/202 201/201/201 200/200/200
f 201/201/201 203/203/203 200/200/200
f 201/201/201 204/204/204 203/203/203
f 204/204/204 205/205/205 203/203/203
f 204/204/204 206/206/206 205/205/205
f 206/206/206 207/207/207 205/205/205
f 206/206/206 208/208/208 207/207/207
f 208/208/208 209/209/209 207/207/207
f 208/208/208 210/210/210 209/209/209
f 210/210/210 211/211/211 209/209/209
f 214/214/214 213/213/213 212/212/212
f 213/213/213 215/215/215 212/212/212
f 218/218/218 217/217/217 216/216/216
f 219/219/219 218/218/218 216/216/216
f 222/222/222 221/221/221 220/220/220
f 221/221/221 223/223/223 220/220/220
f 226/226/226 225/225/225 224/224/224
f 225/225/225 227/227/227 224/224/224
f 224/224/224 227/227/227 228/228/228
f 231/231/231 230/230/230 229/229/229
f 232/232/232 231/231/231 229/229/229
f 232/232/232 229/229/229 233/233/233
f 234/234/234 232/232/232 233/233/233
f 234/234/234 233/233/233 235/235/235
f 236/236/236 234/234/234 235/235/235
f 239/239/239 238/238/238 237/237/237
f 237/237/237 238/238/238 240/240/240
f 238/238/238 241/241/241 240/240/240
f 244/244/244 243/243/243 242/242/242
f 245/245/245 244/244/244 242/242/242
f 246/246/246 244/244/244 245/245/245
f 249/249/249 248/248/248 247/247/247
f 250/250/250 249/249/249 247/247/247
f 250/250/250 247/247/247 251/251/251
f 252/252/252 250/250/250 251/251/251
f 252/252/252 251/251/251 253/253/253
f 254/254/254 252/252/252 253/253/253
f 257/257/257 256/256/256 255/255/255
f 258/258/258 257/257/257 255/255/255
f 259/259/259 257/257/257 258/258/258
f 260/260/260 259/259/259 258/258/258
f 261/261/261 259/259/259 260/260/260
f 262/262/262 261/261/261 260/260/260
f 265/265/265 264/264/264 263/263/263
f 266/266/266 265/265/265 263/263/263
f 269/269/269 268/268/268 267/267/267
f 270/270/270 269/269/269 267/267/267
f 273/273/273 272/272/272 271/271/271
f 272/272/272 274/274/274 271/271/271
f 277/277/277 276/276/276 275/275/275
f 278/278/278 277/277/277 275/275/275
f 281/281/281 280/280/280 279/279/279
f 282/282/282 281/281/281 279/279/279
f 282/282/282 279/279/279 283/283/283
f 284/284/284 282/282/282 283/283/283
f 284/284/284 283/283/283 285/285/285
f 286/286/286 284/284/284 285/285/285
f 289/289/289 288/288/288 287/287/287
f 290/290/290 289/289/289 287/287/287
f 293/293/293 292/292/292 291/291/291
f 292/292/292 294/294/294 291/291/291
f 297/297/297 296/296/296 295/295/295
f 296/296/296 298/298/298 295/295/295
f 301/301/301 300/300/300 299/299/299
f 302/302/302 301/301/301 299/299/299
f 305/305/305 304/304/304 303/303/303
f 304/304/304 306/306/306 303/303/303
f 303/303/303 306/306/306 307/307/307
f 306/306/306 308/308/308 307/307/307
f 307/307/307 308/308/308 309/309/309
f 308/308/308 310/310/310 309/309/309
f 313/313/313 312/312/312 311/311/311
f 312/312/312 314/314/314 311/311/311
f 311/311/311 314/314/314 315/315/315
f 314/314/314 316/316/316 315/315/315
f 315/315/315 316/316/316 317/317/317
f 316/316/316 318/318/318 317/317/317
f 321/321/321 320/320/320 319/319/319
f 322/322/322 321/321/321 319/319/319
f 325/325/325 324/324/324 323/323/323
f 324/324/324 326/326/326 323/323/323
f 329/329/329 328/328/328 327/327/327
f 328/328/328 330/330/330 327/327/327
f 333/333/333 332/332/332 331/331/331
f 332/332/332 334/334/334 331/331/331
f 337/337/337 336/336/336 335/335/335
f 336/336/336 338/338/338 335/335/335
f 335/335/335 338/338/338 339/339/339
f 338/338/338 340/340/340 339/339/339
f 339/339/339 340/340/340 341/341/341
f 340/340/340 342/342/342 341/341/341
f 345/345/345 344/344/344 343/343/343
f 346/346/346 345/345/345 343/343/343
f 347/347/347 345/345/345 346/346/346
f 348/348/348 347/347/347 346/346/346
f 349/349/349 347/347/347 348/348/348
f 350/350/350 349/349/349 348/348/348
f 353/353/353 352/352/352 351/351/351
f 354/354/354 353/353/353 351/351/351
f 357/357/357 356/356/356 355/355/355
f 358/358/358 357/357/357 355/355/355
f 359/359/359 357/357/357 358/358/358
f 360/360/360 359/359/359 358/358/358
f 361/361/361 359/359/359 360/360/360
f 362/362/362 361/361/361 360/360/360
f 365/365/365 364/364/364 363/363/363
f 366/366/366 365/365/365 363/363/363
f 369/369/369 368/368/368 367/367/367
f 368/368/368 370/370/370 367/367/367
f 368/368/368 371/371/371 370/370/370
f 370/370/370 372/372/372 367/367/367
f 372/372/372 373/373/373 367/367/367
f 372/372/372 374/374/374 373/373/373
f 374/374/374 375/375/375 373/373/373
f 374/374/374 376/376/376 375/375/375
f 376/376/376 377/377/377 375/375/375
f 371/371/371 378/378/378 370/370/370
f 371/371/371 379/379/379 378/378/378
f 379/379/379 380/380/380 378/378/378
f 380/380/380 381/381/381 378/378/378
f 381/381/381 382/382/382 378/378/378
f 381/381/381 383/383/383 382/382/382
f 383/383/383 384/384/384 382/382/382
f 383/383/383 385/385/385 384/384/384
f 385/385/385 386/386/386 384/384/384
f 389/389/389 388/388/388 387/387/387
f 390/390/390 389/389/389 387/387/387
f 393/393/393 392/392/392 391/391/391
f 394/394/394 393/393/393 391/391/391
f 397/397/397 396/396/396 395/395/395
f 398/398/398 397/397/397 395/395/395
f 398/398/398 395/395/395 399/399/399
f 400/400/400 398/398/398 399/399/399
f 400/400/400 399/399/399 401/401/401
f 402/402/402 400/400/400 401/401/401
f 405/405/405 404/404/404 403/403/403
f 406/406/406 405/405/405 403/403/403
f 406/406/406 403/403/403 407/407/407
f 408/408/408 406/406/406 407/407/407
f 408/408/408 407/407/407 409/409/409
f 410/410/410 408/408/408 409/409/409
f 413/413/413 412/412/412 411/411/411
f 414/414/414 413/413/413 411/411/411
f 414/414/414 411/411/411 415/415/415
f 416/416/416 414/414/414 415/415/415
f 416/416/416 415/415/415 417/417/417
f 418/418/418 416/416/416 417/417/417
f 421/421/421 420/420/420 419/419/419
f 422/422/422 421/421/421 419/419/419
f 422/422/422 419/419/419 423/423/423
f 424/424/424 422/422/422 423/423/423
f 424/424/424 423/423/423 425/425/425
f 426/426/426 424/424/424 425/425/425
f 429/429/429 428/428/428 427/427/427
f 430/430/430 429/429/429 427/427/427
f 427/427/427 428/428/428 431/431/431
f 432/432/432 429/429/429 430/430/430
f 428/428/428 433/433/433 431/431/431
f 434/434/434 432/432/432 430/430/430
f 431/431/431 433/433/433 435/435/435
f 436/436/436 432/432/432 434/434/434
f 433/433/433 437/437/437 435/435/435
f 438/438/438 436/436/436 434/434/434
f 435/435/435 437/437/437 439/439/439
f 440/440/440 436/436/436 438/438/438
f 437/437/437 441/441/441 439/439/439
f 442/442/442 440/440/440 438/438/438
f 439/439/439 441/441/441 442/442/442
f 441/441/441 440/440/440 442/442/442
g MetalCabinet_bba209f2
v -1.37406 1.22232 -1.6111
v -1.37867 1.22233 -1.61515
v -1.37406 1.22694 -1.61515
v -1.37406 1.22263 -2.50702
v -1.37406 1.22725 -2.5024
v -1.37867 1.22263 -2.5024
v -0.58782 1.22263 -2.50702
v -0.58359 1.22544 -2.50149
v -0.58782 1.22725 -2.5024
v -0.58782 0.38869 -1.6917
v -0.58782 0.38407 -1.69632
v -0.58359 0.38078 -1.68926
v -0.58782 0.3889 -2.32414
v -0.58359 0.381 -2.32968
v -0.58782 0.38429 -2.31953
v -1.37406 0.31921 -1.61141
v -1.37867 1.22233 -1.61515
v -1.37406 1.22232 -1.6111
v -0.58359 1.22513 -1.61298
v -0.58782 1.22232 -1.6111
v -0.58782 1.22694 -1.61515
v -0.58782 1.16249 -1.69143
v -0.58359 1.16891 -1.68899
v -0.58782 1.16711 -1.69605
v -0.58782 1.16271 -2.32388
v -0.58782 1.16732 -2.31926
v -0.58359 1.16913 -2.32941
v -1.23636 0.32762 -1.64146
v -1.23636 0.34522 -1.63684
v -1.24098 0.34522 -1.64146
v -0.60744 1.19882 -1.64
v -0.61167 1.20095 -1.64116
v -0.61167 1.19633 -1.63655
v -0.61167 0.34522 -1.63684
v -0.60744 1.19882 -1.64
v -0.61167 1.19633 -1.63655
v -0.61167 0.34522 -1.63684
v -0.61167 0.32762 -1.64146
v -0.60744 0.34352 -1.63877
v -0.61167 0.34522 -1.63684
v -0.60744 0.34352 -1.63877
v -0.60744 1.19882 -1.64
v -0.6032 0.3889 -2.32414
v -0.6032 0.38429 -2.31953
v -0.60744 0.38138 -2.32966
v -0.6032 1.16271 -2.32388
v -0.60744 1.17194 -2.32939
v -0.6032 1.16732 -2.31926
v -0.61167 1.19663 -2.48103
v -0.61167 1.20124 -2.47641
v -0.60744 1.19662 -2.47552
v -0.60744 0.34381 -2.47581
v -0.60744 0.38138 -2.32966
v -0.61167 0.32791 -2.47671
v -0.61167 0.32762 -1.64146
v -0.60744 0.38116 -1.68978
v -0.60744 0.34352 -1.63877
v -0.6032 1.16249 -1.69143
v -0.6032 1.16711 -1.69605
v -0.60744 1.16924 -1.68798
v -0.61167 1.20095 -1.65616
v -0.60744 1.19666 -2.4606
v -0.61167 1.20123 -2.4615
v -1.23636 1.20095 -1.64116
v -1.24098 1.19634 -1.64116
v -1.23636 1.19633 -1.63655
v -1.23636 1.19663 -2.48103
v -1.24098 1.19662 -2.47641
v -1.23636 1.20124 -2.47641
v -1.23636 0.32791 -2.47671
v -1.24098 0.34551 -2.47671
v -1.23636 0.34551 -2.48132
v -0.61167 0.34551 -2.48132
v -0.60744 0.34381 -2.47581
v -0.61167 0.32791 -2.47671
v -0.60744 0.38116 -1.68978
v -0.6032 0.38869 -1.6917
v -0.6032 1.16249 -1.69143
v -0.60744 0.38116 -1.68978
v -0.6032 1.16249 -1.69143
v -0.60744 1.16924 -1.68798
v -0.58359 0.3182 -2.5018
v -0.58782 0.31952 -2.50733
v -0.58782 0.3149 -2.50113
v -0.6032 0.38407 -1.69632
v -0.6032 0.38869 -1.6917
v -0.60744 0.38116 -1.68978
v -1.37406 1.22263 -2.50702
v -1.37867 1.22263 -2.5024
v -1.37867 0.3149 -2.50113
v -1.37406 1.22263 -2.50702
v -1.37867 0.3149 -2.50113
v -1.37406 0.31952 -2.50733
v -1.37406 1.22695 -1.63109
v -0.58782 1.22694 -1.61515
v -1.37406 1.22694 -1.61515
v -0.58782 1.22695 -1.63109
v -1.37406 1.22724 -2.48656
v -0.58782 1.22724 -2.48656
v -1.37406 1.22725 -2.5024
v -0.58782 1.22725 -2.5024
v -1.37406 1.22694 -1.61515
v -1.37867 1.22233 -1.61515
v -1.37867 1.22233 -1.63109
v -1.37406 1.22695 -1.63109
v -1.37867 1.22263 -2.48656
v -1.37406 1.22724 -2.48656
v -1.37867 1.22263 -2.5024
v -1.37406 1.22725 -2.5024
v -0.58359 1.22543 -2.48562
v -0.58782 1.22725 -2.5024
v -0.58359 1.22544 -2.50149
v -0.58782 1.22724 -2.48656
v -0.58359 1.22514 -1.62894
v -0.58782 1.22695 -1.63109
v -0.58359 1.22513 -1.61298
v -0.58782 1.22694 -1.61515
v -0.58782 0.38408 -1.70751
v -0.58359 0.38078 -1.68926
v -0.58782 0.38407 -1.69632
v -0.58359 0.38078 -1.70077
v -0.58782 0.38428 -2.3084
v -0.58359 0.38099 -2.31824
v -0.58782 0.38429 -2.31953
v -0.58359 0.381 -2.32968
v -1.37406 0.31952 -2.50733
v -0.58782 0.31952 -2.50733
v -0.58782 1.22263 -2.50702
v -1.37406 1.22263 -2.50702
v -0.58359 1.22544 -2.50149
v -0.58782 1.22263 -2.50702
v -0.58782 0.31952 -2.50733
v -0.58359 0.3182 -2.5018
v -0.58782 1.22263 -2.50702
v -1.37406 1.22725 -2.5024
v -1.37406 1.22263 -2.50702
v -0.58782 1.22725 -2.5024
v -0.58782 0.22895 -2.50116
v -0.58782 0.22153 -2.50117
v -0.58782 0.22153 -2.48849
v -0.58782 0.22894 -2.48849
v -0.58782 0.30087 -2.50114
v -0.58782 0.30087 -2.48847
v -0.58782 0.3149 -2.50113
v -0.58782 0.3149 -2.48846
v -1.37406 1.22232 -1.6111
v -0.58782 1.22232 -1.6111
v -0.58782 0.31921 -1.61141
v -1.37406 0.31921 -1.61141
v -1.37867 0.31459 -1.61141
v -1.37867 1.22233 -1.61515
v -0.58782 0.31459 -1.61141
v -1.37867 0.30574 -1.61141
v -0.58782 0.30574 -1.61141
v -1.37867 0.22967 -1.61144
v -0.58782 0.22967 -1.61144
v -1.37867 0.22123 -1.61144
v -0.58782 0.22123 -1.61144
v -0.58782 0.31921 -1.61141
v -0.58359 0.31789 -1.61329
v -0.58782 0.31459 -1.61141
v -0.58782 1.22232 -1.6111
v -0.58359 1.22513 -1.61298
v -1.37406 1.22232 -1.6111
v -0.58782 1.22694 -1.61515
v -0.58782 1.22232 -1.6111
v -1.37406 1.22694 -1.61515
v -0.58782 1.16711 -1.70724
v -0.6032 1.16711 -1.69605
v -0.58782 1.16711 -1.69605
v -0.6032 1.16711 -1.70724
v -0.58782 1.16732 -2.30813
v -0.6032 1.16732 -2.30813
v -0.58782 1.16732 -2.31926
v -0.6032 1.16732 -2.31926
v -0.58782 1.16711 -1.69605
v -0.58359 1.16891 -1.68899
v -0.58359 1.16892 -1.70049
v -0.58782 1.16711 -1.70724
v -0.58359 1.16913 -2.31797
v -0.58782 1.16732 -2.30813
v -0.58359 1.16913 -2.32941
v -0.58782 1.16732 -2.31926
v -1.23636 1.19633 -1.63655
v -1.23636 0.34522 -1.63684
v -0.61167 0.34522 -1.63684
v -0.61167 1.19633 -1.63655
v -1.24098 0.34522 -1.64146
v -1.23636 0.34522 -1.63684
v -1.23636 1.19633 -1.63655
v -1.24098 1.19634 -1.64116
v -1.23636 1.20095 -1.64116
v -1.23636 1.19633 -1.63655
v -0.61167 1.19633 -1.63655
v -0.61167 1.20095 -1.64116
v -0.61167 0.32762 -1.64146
v -0.61167 0.34522 -1.63684
v -1.23636 0.34522 -1.63684
v -1.23636 0.32762 -1.64146
v -0.60744 0.34381 -2.47581
v -0.60744 1.17194 -2.32939
v -0.60744 0.38138 -2.32966
v -0.60744 1.19662 -2.47552
v -0.60744 1.17189 -2.31793
v -0.60744 1.19666 -2.4606
v -0.60744 1.16929 -1.6995
v -0.60744 1.19878 -1.65501
v -0.60744 1.16924 -1.68798
v -0.60744 1.19882 -1.64
v -0.60744 0.38116 -1.68978
v -0.60744 0.34352 -1.63877
v -0.60744 1.17194 -2.32939
v -0.6032 0.3889 -2.32414
v -0.60744 0.38138 -2.32966
v -0.6032 1.16271 -2.32388
v -0.61167 1.19663 -2.48103
v -0.60744 1.19662 -2.47552
v -0.60744 0.34381 -2.47581
v -0.61167 0.34551 -2.48132
v -0.61167 1.20123 -2.4615
v -0.60744 1.19662 -2.47552
v -0.61167 1.20124 -2.47641
v -0.60744 1.19666 -2.4606
v -0.60744 1.17189 -2.31793
v -0.6032 1.16732 -2.31926
v -0.60744 1.17194 -2.32939
v -0.6032 1.16732 -2.30813
v -0.60744 1.16929 -1.6995
v -0.61167 0.3279 -2.4618
v -0.61167 0.32791 -2.47671
v -0.60744 0.38138 -2.32966
v -0.60744 0.38137 -2.31823
v -0.61167 0.32763 -1.65647
v -0.60744 0.38116 -1.70127
v -0.61167 0.32762 -1.64146
v -0.60744 0.38116 -1.68978
v -0.60744 1.16929 -1.6995
v -0.6032 1.16711 -1.70724
v -0.6032 1.16732 -2.30813
v -0.60744 1.16924 -1.68798
v -0.6032 1.16711 -1.69605
v -0.61167 1.20095 -1.64116
v -0.60744 1.19882 -1.64
v -0.60744 1.19878 -1.65501
v -0.61167 1.20095 -1.65616
v -0.60744 1.19666 -2.4606
v -1.23636 1.20095 -1.65616
v -1.23636 1.20095 -1.64116
v -0.61167 1.20095 -1.64116
v -0.61167 1.20095 -1.65616
v -1.23636 1.20123 -2.4615
v -0.61167 1.20123 -2.4615
v -1.23636 1.20124 -2.47641
v -0.61167 1.20124 -2.47641
v -1.24098 1.19634 -1.64116
v -1.23636 1.20095 -1.64116
v -1.23636 1.20095 -1.65616
v -1.24098 1.19634 -1.65617
v -1.23636 1.20123 -2.4615
v -1.24098 1.19662 -2.4615
v -1.23636 1.20124 -2.47641
v -1.24098 1.19662 -2.47641
v -1.23636 0.34551 -2.48132
v -1.23636 1.19663 -2.48103
v -0.61167 1.19663 -2.48103
v -0.61167 0.34551 -2.48132
v -1.24098 1.19662 -2.47641
v -1.23636 1.19663 -2.48103
v -1.23636 0.34551 -2.48132
v -1.24098 0.34551 -2.47671
v -0.61167 0.34551 -2.48132
v -1.23636 0.32791 -2.47671
v -1.23636 0.34551 -2.48132
v -0.61167 0.32791 -2.47671
v -0.61167 1.20124 -2.47641
v -0.61167 1.19663 -2.48103
v -1.23636 1.19663 -2.48103
v -1.23636 1.20124 -2.47641
v -1.23636 0.3279 -2.4618
v -1.23636 0.32791 -2.47671
v -0.61167 0.32791 -2.47671
v -0.61167 0.3279 -2.4618
v -1.23636 0.32763 -1.65647
v -0.61167 0.32763 -1.65647
v -1.23636 0.32762 -1.64146
v -0.61167 0.32762 -1.64146
v -0.58782 1.16249 -1.69143
v -0.6032 1.16249 -1.69143
v -0.6032 0.38869 -1.6917
v -0.58782 0.38869 -1.6917
v -0.58782 0.38869 -1.6917
v -0.58359 1.16891 -1.68899
v -0.58782 1.16249 -1.69143
v -0.58359 0.38078 -1.68926
v -0.6032 0.38869 -1.6917
v -0.58782 0.38407 -1.69632
v -0.58782 0.38869 -1.6917
v -0.6032 0.38407 -1.69632
v -0.6032 1.16711 -1.69605
v -0.6032 1.16249 -1.69143
v -0.58782 1.16249 -1.69143
v -0.58782 1.16711 -1.69605
v -1.24098 0.3455 -2.46179
v -1.24098 1.19662 -2.47641
v -1.24098 0.34551 -2.47671
v -1.24098 1.19662 -2.4615
v -1.24098 0.34522 -1.65646
v -1.24098 1.19634 -1.65617
v -1.24098 0.34522 -1.64146
v -1.24098 1.19634 -1.64116
v -1.24098 0.34522 -1.65646
v -1.23636 0.32762 -1.64146
v -1.24098 0.34522 -1.64146
v -1.23636 0.32763 -1.65647
v -1.24098 0.3455 -2.46179
v -1.23636 0.3279 -2.4618
v -1.24098 0.34551 -2.47671
v -1.23636 0.32791 -2.47671
v -0.58782 0.3889 -2.32414
v -0.6032 0.3889 -2.32414
v -0.6032 1.16271 -2.32388
v -0.58782 1.16271 -2.32388
v -0.58782 1.16271 -2.32388
v -0.58359 0.381 -2.32968
v -0.58782 0.3889 -2.32414
v -0.58359 1.16913 -2.32941
v -0.58782 0.3889 -2.32414
v -0.6032 0.38429 -2.31953
v -0.6032 0.3889 -2.32414
v -0.58782 0.38429 -2.31953
v -0.6032 1.16271 -2.32388
v -0.58782 1.16732 -2.31926
v -0.58782 1.16271 -2.32388
v -0.6032 1.16732 -2.31926
v -0.58782 0.38428 -2.3084
v -0.6032 0.38429 -2.31953
v -0.58782 0.38429 -2.31953
v -0.6032 0.38428 -2.3084
v -0.58782 0.38408 -1.70751
v -0.6032 0.38408 -1.70751
v -0.58782 0.38407 -1.69632
v -0.6032 0.38407 -1.69632
v -0.60744 0.38138 -2.32966
v -0.6032 0.38429 -2.31953
v -0.6032 0.38428 -2.3084
v -0.60744 0.38137 -2.31823
v -0.6032 0.38408 -1.70751
v -0.60744 0.38116 -1.70127
v -0.6032 0.38407 -1.69632
v -0.60744 0.38116 -1.68978
v -0.58782 0.3149 -2.50113
v -0.58782 0.31952 -2.50733
v -1.37406 0.31952 -2.50733
v -1.37867 0.3149 -2.50113
v -0.58359 0.3182 -2.5018
v -0.58782 0.3149 -2.50113
v -0.58782 0.3149 -2.48846
v -0.58359 0.31816 -2.38355
v -0.58782 0.3146 -1.62981
v -0.58359 0.31796 -1.82375
v -0.58782 0.31459 -1.61141
v -0.58359 0.31789 -1.61329
v -1.37867 0.3146 -1.62981
v -0.58782 0.3146 -1.62981
v -0.58782 0.3149 -2.48846
v -1.37867 0.3149 -2.48846
v -1.37867 0.31459 -1.61141
v -1.37867 1.22233 -1.63109
v -1.37867 1.22233 -1.61515
v -1.37867 0.3146 -1.62981
v -1.37867 1.22263 -2.48656
v -1.37867 0.30575 -1.62981
v -1.37867 0.30574 -1.61141
v -1.37867 0.22967 -1.62984
v -1.37867 0.22967 -1.61144
v -1.37867 0.22123 -1.62984
v -1.37867 0.22123 -1.61144
v -1.37867 0.3149 -2.48846
v -1.37867 1.22263 -2.5024
v -1.37867 0.3149 -2.50113
v -1.37867 0.30087 -2.50114
v -1.37867 0.30087 -2.48847
v -1.37867 0.22895 -2.50116
v -1.37867 0.22894 -2.48849
v -1.37867 0.22153 -2.50117
v -1.37867 0.22153 -2.48849
v -1.37867 0.22153 -2.48849
v -0.58782 0.22153 -2.48849
v -0.58782 0.22153 -2.50117
v -1.37867 0.22153 -2.50117
v -1.37867 0.22123 -1.61144
v -0.58782 0.22123 -1.61144
v -0.58782 0.22123 -1.62984
v -1.37867 0.22123 -1.62984
v -1.37867 0.22967 -1.62984
v -1.37867 0.22123 -1.62984
v -0.58782 0.22123 -1.62984
v -0.58782 0.22967 -1.62984
v -1.37867 0.30575 -1.62981
v -0.58782 0.30575 -1.62981
v -1.37867 0.3146 -1.62981
v -0.58782 0.3146 -1.62981
v -1.37867 0.22895 -2.50116
v -1.37867 0.22153 -2.50117
v -0.58782 0.22153 -2.50117
v -0.58782 0.22895 -2.50116
v -1.37867 0.30087 -2.50114
v -0.58782 0.30087 -2.50114
v -1.37867 0.3149 -2.50113
v -0.58782 0.3149 -2.50113
v -0.58782 0.22894 -2.48849
v -0.58782 0.22153 -2.48849
v -1.37867 0.22153 -2.48849
v -1.37867 0.22894 -2.48849
v -0.58782 0.30087 -2.48847
v -1.37867 0.30087 -2.48847
v -0.58782 0.3149 -2.48846
v -1.37867 0.3149 -2.48846
v -0.58782 0.22967 -1.62984
v -0.58782 0.22123 -1.62984
v -0.58782 0.22123 -1.61144
v -0.58782 0.22967 -1.61144
v -0.58782 0.30575 -1.62981
v -0.58782 0.30574 -1.61141
v -0.58782 0.3146 -1.62981
v -0.58782 0.31459 -1.61141
v -0.58359 0.31816 -2.38355
v -0.58359 0.38099 -2.31824
v -0.58359 0.381 -2.32968
v -0.58359 0.3182 -2.5018
v -0.58359 0.31796 -1.82375
v -0.58359 1.16913 -2.32941
v -0.58359 0.38078 -1.70077
v -0.58359 1.22544 -2.50149
v -0.58359 0.31789 -1.61329
v -0.58359 1.16913 -2.31797
v -0.58359 0.38078 -1.68926
v -0.58359 1.22543 -2.48562
v -0.58359 1.22513 -1.61298
v -0.58359 1.16892 -1.70049
v -0.58359 1.16891 -1.68899
v -0.58359 1.22514 -1.62894
vn -1.2476 1.065116 -1.703414
vn -1.2476 1.065116 -1.703414
vn -1.2476 1.065117 -1.703414
vn -1.26282 1.080571 -2.398691
vn -1.26282 1.080571 -2.398691
vn -1.26282 1.080571 -2.398691
vn -0.6903794 1.118772 -2.436844
vn -0.6903793 1.118772 -2.436844
vn -0.6903793 1.118772 -2.436844
vn -0.4297466 0.9514651 -2.269672
vn -0.4297466 0.9514651 -2.269672
vn -0.4297466 0.9514651 -2.269672
vn -0.4021579 0.913084 -1.899309
vn -0.4021579 0.913084 -1.899309
vn -0.4021579 0.9130839 -1.899309
vn -1.310702 0.7469242 -1.631735
vn -1.310702 0.7469242 -1.631735
vn -1.310702 0.7469242 -1.631735
vn -0.9889368 1.126119 -1.633987
vn -0.9889368 1.126119 -1.633987
vn -0.9889368 1.126119 -1.633987
vn -0.4510842 0.5187106 -2.293937
vn -0.4510842 0.5187106 -2.293937
vn -0.4510843 0.5187106 -2.293937
vn -0.4133317 0.5642278 -1.882715
vn -0.4133317 0.5642278 -1.882715
vn -0.4133317 0.5642278 -1.882715
vn -0.5282899 0.8524826 -2.466899
vn -0.5282898 0.8524826 -2.466899
vn -0.5282899 0.8524826 -2.466899
vn -1.022365 0.3442744 -2.468507
vn -1.022365 0.3442744 -2.468507
vn -1.022365 0.3442744 -2.468507
vn -1.294784 0.7472287 -2.512595
vn -1.294784 0.7472287 -2.512595
vn -1.294784 0.7472287 -2.512595
vn -1.114538 0.885964 -2.594417
vn -1.114538 0.885964 -2.594417
vn -1.114538 0.885964 -2.594417
vn -1.168915 0.7463152 -2.590831
vn -1.168915 0.7463152 -2.590831
vn -1.168915 0.7463152 -2.590831
vn -1.454338 0.9172606 -1.895112
vn -1.454338 0.9172606 -1.895112
vn -1.454338 0.9172605 -1.895112
vn -1.464529 0.593453 -1.911897
vn -1.464529 0.593453 -1.911897
vn -1.464529 0.593453 -1.911897
vn -1.320718 0.4466837 -1.765231
vn -1.320718 0.4466837 -1.765231
vn -1.320718 0.4466837 -1.765231
vn -1.485716 0.8972811 -2.104032
vn -1.485716 0.8972811 -2.104032
vn -1.485716 0.897281 -2.104032
vn -1.483495 0.8781128 -1.968743
vn -1.483495 0.8781128 -1.968743
vn -1.483495 0.8781129 -1.968743
vn -1.427584 0.5405964 -2.272058
vn -1.427584 0.5405964 -2.272058
vn -1.427584 0.5405964 -2.272058
vn -1.353199 0.3547917 -2.065557
vn -1.353199 0.3547917 -2.065557
vn -1.353199 0.3547917 -2.065557
vn -0.5963507 0.413808 -2.39892
vn -0.5963507 0.413808 -2.39892
vn -0.5963507 0.413808 -2.39892
vn -0.5963513 0.4135722 -1.732159
vn -0.5963514 0.4135722 -1.732159
vn -0.5963514 0.4135722 -1.732159
vn -0.5282665 0.8521985 -1.663894
vn -0.5282665 0.8521985 -1.663894
vn -0.5282665 0.8521985 -1.663894
vn -1.366611 0.8426317 -1.70044
vn -1.366611 0.8426317 -1.70044
vn -1.366611 0.8426317 -1.70044
vn -1.168663 0.7472559 -2.590946
vn -1.168663 0.7472559 -2.590946
vn -1.168663 0.7472559 -2.590946
vn -1.293937 0.748099 -2.513284
vn -1.293937 0.748099 -2.513284
vn -1.293937 0.748099 -2.513284
vn -0.6589565 0.3380769 -2.370076
vn -0.6589565 0.3380769 -2.370076
vn -0.6589565 0.3380769 -2.370076
vn -1.417439 0.9654693 -2.283679
vn -1.417439 0.9654692 -2.283679
vn -1.417439 0.9654692 -2.283679
vn -1.337736 0.7465028 -2.473768
vn -1.337736 0.7465028 -2.473768
vn -1.337736 0.7465028 -2.473768
vn -1.392629 0.7471933 -2.410276
vn -1.392629 0.7471933 -2.410276
vn -1.392629 0.7471933 -2.410276
vn -0.9295862 1.324425 -2.065228
vn -0.9295862 1.324425 -2.065228
vn -0.9295862 1.324425 -2.065224
vn -0.9295862 1.324425 -2.065228
vn -0.9295862 1.324425 -2.065222
vn -0.9295862 1.324425 -2.065222
vn -0.9295862 1.324425 -2.065218
vn -0.9295862 1.324425 -2.065218
vn -1.337729 1.155428 -2.065282
vn -1.337729 1.155428 -2.065282
vn -1.33773 1.155427 -2.065282
vn -1.337731 1.155426 -2.065282
vn -1.337736 1.155421 -2.065277
vn -1.337728 1.155429 -2.065281
vn -1.337728 1.155429 -2.065281
vn -1.337728 1.155429 -2.065281
vn -0.7027709 1.278006 -2.065247
vn -0.7027708 1.278006 -2.065247
vn -0.7027708 1.278006 -2.065247
vn -0.702803 1.278019 -2.065234
vn -0.7027921 1.278015 -2.065238
vn -0.7027888 1.278013 -2.065238
vn -0.7027872 1.278013 -2.065245
vn -0.7027866 1.278012 -2.065248
vn -0.5747947 1.202548 -2.065265
vn -0.5747957 1.202549 -2.065265
vn -0.5747992 1.202551 -2.065265
vn -0.5747914 1.202545 -2.065265
vn -0.5747944 1.202548 -2.065264
vn -0.5748017 1.202553 -2.065264
vn -0.5747954 1.202549 -2.065263
vn -0.5747954 1.202548 -2.065261
vn -0.9295862 0.7472737 -2.642772
vn -0.9295862 0.7472737 -2.642772
vn -0.9295862 0.7472737 -2.642772
vn -0.9295862 0.7472737 -2.642772
vn -0.471051 0.7471954 -2.416248
vn -0.471051 0.7471954 -2.416248
vn -0.4710381 0.7471954 -2.416231
vn -0.471038 0.7471954 -2.416231
vn -0.9295862 1.155472 -2.47352
vn -0.9295862 1.155462 -2.473531
vn -0.9295862 1.155462 -2.473531
vn -0.9295862 1.155473 -2.47352
vn -0.3522359 0.7470744 -2.065422
vn -0.3522359 0.7470705 -2.065422
vn -0.3522359 0.7470729 -2.065422
vn -0.3522359 0.7470745 -2.065422
vn -0.3522359 0.7470732 -2.065422
vn -0.3522359 0.7470732 -2.065422
vn -0.3522359 0.7470734 -2.065422
vn -0.3522359 0.7470742 -2.065422
vn -0.9295862 0.7468746 -1.488072
vn -0.9295862 0.7468746 -1.488072
vn -0.9295862 0.7468746 -1.488072
vn -0.9295862 0.7468746 -1.488072
vn -0.9321755 0.7494544 -1.488082
vn -0.9321755 0.7494544 -1.488082
vn -0.9295862 0.7468746 -1.488072
vn -0.9295862 0.746875 -1.488072
vn -0.9295862 0.746875 -1.488072
vn -0.9295862 0.7468751 -1.488072
vn -0.9295862 0.7468751 -1.488072
vn -0.9295862 0.7468759 -1.488072
vn -0.9295862 0.7468759 -1.488072
vn -0.6946737 0.7468919 -1.538023
vn -0.6946737 0.7468919 -1.538023
vn -0.6946818 0.7468938 -1.538019
vn -0.6946737 0.7468919 -1.538023
vn -0.6946636 0.746892 -1.538028
vn -0.9295862 1.12814 -1.631692
vn -0.9295862 1.128134 -1.631686
vn -0.9295862 1.128134 -1.631686
vn -0.9295862 1.12814 -1.631692
vn -0.9295862 0.1697239 -2.065616
vn -0.9295862 0.1697239 -2.065616
vn -0.9295862 0.1697239 -2.065626
vn -0.9295862 0.1697239 -2.065616
vn -0.9295862 0.1697239 -2.065621
vn -0.9295862 0.1697239 -2.065621
vn -0.9295862 0.1697239 -2.065624
vn -0.9295862 0.1697239 -2.065617
vn -0.7027851 0.2161368 -2.065606
vn -0.7027827 0.2161378 -2.065605
vn -0.7027881 0.2161355 -2.065608
vn -0.7027906 0.2161344 -2.06561
vn -0.7027889 0.2161351 -2.065606
vn -0.7028199 0.2161219 -2.065611
vn -0.7028199 0.2161219 -2.065611
vn -0.7028199 0.2161219 -2.065611
vn -0.9295862 0.7472737 -2.642772
vn -0.9295862 0.7472737 -2.642772
vn -0.9295862 0.7472737 -2.642772
vn -0.9295862 0.7472737 -2.642772
vn -0.5214391 0.7472153 -2.473771
vn -0.5214391 0.7472153 -2.473771
vn -0.5214241 0.7472153 -2.473756
vn -0.5214241 0.7472153 -2.473756
vn -0.9295862 0.3389702 -2.473814
vn -0.9295862 0.3389701 -2.473814
vn -0.9295862 0.3389701 -2.473814
vn -0.9295862 0.3389701 -2.473814
vn -0.9295862 0.8936926 -2.623845
vn -0.9295862 0.8936926 -2.623845
vn -0.9295862 0.8936926 -2.623845
vn -0.9295862 0.8936926 -2.623845
vn -1.506936 0.7470742 -2.065422
vn -1.506936 0.7470742 -2.065422
vn -1.506936 0.7470742 -2.065422
vn -1.506936 0.7470742 -2.065422
vn -1.506936 0.7470789 -2.065422
vn -1.506936 0.7470789 -2.065422
vn -1.506936 0.7470704 -2.065422
vn -1.506936 0.7470742 -2.065422
vn -1.506936 0.7470793 -2.065422
vn -1.506936 0.7470742 -2.065422
vn -1.506936 0.7470742 -2.065422
vn -1.506936 0.7470742 -2.065422
vn -1.387543 0.7469527 -1.713841
vn -1.387543 0.7469527 -1.713841
vn -1.387543 0.7469527 -1.713841
vn -1.387548 0.7469528 -1.713848
vn -1.387541 0.7469527 -1.713839
vn -1.387541 0.7469527 -1.713839
vn -1.38756 0.7469527 -1.713863
vn -1.38756 0.7469527 -1.713863
vn -1.355085 0.3568385 -2.065563
vn -1.355085 0.3568384 -2.065563
vn -1.355085 0.3568385 -2.065563
vn -1.353314 0.3549175 -2.064389
vn -1.35342 0.3550339 -2.067076
vn -1.35342 0.3550339 -2.067076
vn -1.35342 0.3550339 -2.067076
vn -1.353194 0.354786 -2.065562
vn -1.351573 0.3530465 -2.067082
vn -1.50514 0.7925803 -2.065406
vn -1.50514 0.7925815 -2.065406
vn -1.505141 0.7925659 -2.065406
vn -1.50514 0.7925801 -2.065406
vn -1.50514 0.7925797 -2.065406
vn -1.50514 0.7925794 -2.065406
vn -1.50514 0.7925819 -2.065406
vn -1.50514 0.7925837 -2.065406
vn -1.196568 0.2351664 -2.067577
vn -1.196568 0.2351664 -2.067577
vn -1.193717 0.233685 -2.065599
vn -1.196568 0.2351664 -2.067577
vn -1.189398 0.2314861 -2.065604
vn -1.189741 0.231661 -2.064072
vn -1.189741 0.231661 -2.064072
vn -1.189741 0.231661 -2.064072
vn -1.193706 0.2336795 -2.065601
vn -1.194035 0.2338505 -2.064075
vn -0.9295862 0.1697239 -2.06562
vn -0.9295862 0.1697239 -2.06562
vn -0.9295862 0.1697239 -2.06562
vn -0.9295862 0.1697239 -2.06562
vn -0.9295862 0.1697239 -2.065621
vn -0.9295862 0.1697239 -2.065621
vn -0.9295862 0.1697239 -2.065628
vn -0.9295862 0.1697239 -2.065628
vn -0.5214288 0.338735 -2.065566
vn -0.5214288 0.338735 -2.065566
vn -0.5214288 0.338735 -2.065566
vn -0.5214347 0.3387292 -2.065561
vn -0.5214217 0.3387421 -2.065563
vn -0.5214307 0.3387331 -2.065567
vn -0.5214322 0.3387316 -2.065567
vn -0.521433 0.3387309 -2.065567
vn -0.9295862 0.7468746 -1.488072
vn -0.9295862 0.7468746 -1.488072
vn -0.9295862 0.7468746 -1.488072
vn -0.9295862 0.7468746 -1.488072
vn -0.5214289 0.746933 -1.657083
vn -0.5214289 0.746933 -1.657083
vn -0.5214289 0.746933 -1.657083
vn -0.5214392 0.746933 -1.657072
vn -0.9295862 0.8933072 -1.506898
vn -0.9295862 0.8933074 -1.506898
vn -0.9295862 0.8933073 -1.506898
vn -0.9295862 0.8933072 -1.506898
vn -0.9295862 0.3386832 -1.657316
vn -0.9295862 0.3386831 -1.657316
vn -0.9295862 0.3386969 -1.657302
vn -0.9295862 0.338697 -1.657302
vn -0.9295862 1.324425 -2.065222
vn -0.9295862 1.324425 -2.065216
vn -0.9295862 1.324425 -2.065217
vn -0.9295862 1.324425 -2.065222
vn -0.9295862 1.324425 -2.065223
vn -0.9295862 1.324425 -2.065223
vn -0.9295862 1.324425 -2.065223
vn -0.9295862 1.324425 -2.065223
vn -0.9295862 0.7472738 -2.642772
vn -0.9295862 0.7472738 -2.642772
vn -0.9295862 0.7472738 -2.642772
vn -0.9295862 0.7472738 -2.642772
vn -0.6409937 0.747247 -2.56547
vn -0.6409934 0.7472471 -2.565469
vn -0.6409934 0.7472471 -2.565469
vn -0.6409937 0.747247 -2.56547
vn -0.9295862 1.155457 -2.473536
vn -0.9295862 1.155457 -2.473535
vn -0.9295862 1.155457 -2.473535
vn -0.9295862 1.155457 -2.473536
vn -0.9295884 0.33897 -2.473814
vn -0.9295862 0.3389716 -2.473816
vn -0.9295927 0.3389669 -2.473811
vn -0.9295949 0.3389652 -2.473809
vn -0.3522359 0.7470742 -2.065422
vn -0.3522359 0.7470742 -2.065422
vn -0.3522359 0.7470742 -2.065422
vn -0.3522359 0.7470742 -2.065422
vn -0.3522359 0.747074 -2.065422
vn -0.3522359 0.7470742 -2.065422
vn -0.3522359 0.7470742 -2.065422
vn -0.3522359 0.7470742 -2.065422
vn -0.3711318 0.8935738 -2.065371
vn -0.3711296 0.8935653 -2.065372
vn -0.3711303 0.893568 -2.065371
vn -0.3711287 0.8935618 -2.065371
vn -0.371129 0.8935629 -2.06537
vn -0.3711301 0.893567 -2.06537
vn -0.3711299 0.8935661 -2.06537
vn -0.3711309 0.8935703 -2.06537
vn -0.9295862 0.7468747 -1.488072
vn -0.9295862 0.7468747 -1.488072
vn -0.9295862 0.7468747 -1.488072
vn -0.9295862 0.7468747 -1.488072
vn -0.4710582 0.7469529 -1.714586
vn -0.4710494 0.746953 -1.714598
vn -0.4710493 0.746953 -1.714598
vn -0.4710582 0.7469529 -1.714586
vn -0.9295862 1.155188 -1.657039
vn -0.9295862 1.155188 -1.657039
vn -0.9295862 1.155189 -1.65704
vn -0.9295862 1.155187 -1.657039
vn -0.9295862 0.3386803 -1.657319
vn -0.9295862 0.3386829 -1.657317
vn -0.9295862 0.3386844 -1.657315
vn -0.9295862 0.3386789 -1.657321
vn -0.9295862 1.324425 -2.06522
vn -0.9295862 1.324425 -2.065221
vn -0.9295862 1.324425 -2.06522
vn -0.9295862 1.324425 -2.065221
vn -0.9295862 1.324425 -2.065224
vn -0.9295862 1.324425 -2.065221
vn -0.9295862 1.324425 -2.065221
vn -0.9295862 1.324425 -2.065221
vn -1.257222 1.222456 -2.06526
vn -1.257222 1.222456 -2.06526
vn -1.257222 1.222456 -2.06526
vn -1.257228 1.222452 -2.065254
vn -1.257234 1.222448 -2.065258
vn -1.257232 1.222449 -2.065258
vn -1.257232 1.222449 -2.065259
vn -1.257232 1.222449 -2.065261
vn -0.9295862 0.284062 -2.410317
vn -0.9295862 0.284062 -2.410317
vn -0.9295862 0.284063 -2.410319
vn -0.9295862 0.284063 -2.410319
vn -0.5748067 0.2915911 -2.06558
vn -0.5748166 0.2915834 -2.065582
vn -0.5748037 0.2915934 -2.065579
vn -0.5748017 0.291595 -2.065579
vn -0.5747408 0.2916425 -2.065579
vn -0.5748006 0.2915958 -2.065579
vn -0.5748034 0.2915936 -2.065579
vn -0.5748036 0.2915936 -2.065579
vn -0.9295862 0.1697239 -2.065621
vn -0.9295862 0.1697239 -2.065621
vn -0.9295862 0.1697239 -2.065621
vn -0.9295862 0.1697239 -2.065621
vn -1.506936 0.7470742 -2.065422
vn -1.506936 0.7470742 -2.065422
vn -1.506936 0.7470742 -2.065422
vn -1.506936 0.7470742 -2.065422
vn -1.506936 0.7470742 -2.065422
vn -1.506936 0.7470748 -2.065422
vn -1.506936 0.7470735 -2.065422
vn -1.506936 0.7470756 -2.065422
vn -1.506936 0.7470744 -2.065422
vn -1.506936 0.7470809 -2.065422
vn -1.506936 0.7470684 -2.065422
vn -1.506936 0.7470742 -2.065422
vn -1.506936 0.7470742 -2.065422
vn -1.506936 0.747074 -2.065422
vn -1.506936 0.7470739 -2.065422
vn -1.506936 0.7470735 -2.065422
vn -1.506936 0.7470736 -2.065422
vn -1.506936 0.7470732 -2.065422
vn -1.506936 0.7470726 -2.065422
vn -1.506936 0.7470696 -2.065422
vn -0.9295862 0.1697239 -2.065619
vn -0.9295862 0.1697239 -2.065619
vn -0.9295862 0.1697239 -2.065619
vn -0.9295862 0.1697239 -2.065619
vn -0.9295862 0.1697239 -2.065621
vn -0.9295862 0.1697239 -2.065621
vn -0.9295862 0.1697239 -2.065621
vn -0.9295862 0.1697239 -2.065621
vn -0.9295862 0.7472733 -2.642772
vn -0.9295862 0.7472724 -2.642772
vn -0.9295862 0.7472724 -2.642772
vn -0.9295862 0.7472733 -2.642772
vn -0.9295862 0.7472734 -2.642772
vn -0.9295862 0.7472734 -2.642772
vn -0.9295862 0.7472733 -2.642772
vn -0.9295862 0.7472733 -2.642772
vn -0.9295862 0.747273 -2.642772
vn -0.9295862 0.7472762 -2.642772
vn -0.9295862 0.7472762 -2.642772
vn -0.9295862 0.747273 -2.642772
vn -0.9295862 0.747274 -2.642772
vn -0.9295862 0.747274 -2.642772
vn -0.9295862 0.7472814 -2.642772
vn -0.9295862 0.7472814 -2.642772
vn -0.9295862 0.7468754 -1.488072
vn -0.9295862 0.7468721 -1.488072
vn -0.9295862 0.7468721 -1.488072
vn -0.9295862 0.7468754 -1.488072
vn -0.9295862 0.7468743 -1.488072
vn -0.9295862 0.7468743 -1.488072
vn -0.9295862 0.746867 -1.488072
vn -0.9295862 0.746867 -1.488072
vn -0.3522359 0.7470745 -2.065422
vn -0.3522359 0.7470784 -2.065422
vn -0.3522359 0.7470712 -2.065422
vn -0.3522359 0.7470737 -2.065422
vn -0.3522359 0.7470744 -2.065422
vn -0.3522359 0.7470742 -2.065422
vn -0.3522359 0.7470754 -2.065422
vn -0.3522359 0.7470742 -2.065422
vn -0.3522359 0.7470742 -2.065422
vn -0.3522359 0.7470742 -2.065422
vn -0.3522359 0.7470742 -2.065422
vn -0.3522359 0.7470742 -2.065422
vn -0.3522359 0.7470742 -2.065422
vn -0.3522359 0.7470742 -2.065422
vn -0.3522359 0.7470742 -2.065422
vn -0.3522359 0.7470742 -2.065422
vn -0.3522359 0.7470742 -2.065422
vn -0.3522359 0.7470742 -2.065422
vn -0.3522359 0.7470742 -2.065422
vn -0.3522359 0.7470742 -2.065422
vn -0.3522359 0.7470742 -2.065422
vn -0.3522359 0.7470748 -2.065422
vn -0.3522359 0.7470688 -2.065422
vn -0.3522359 0.7470742 -2.065422
vt 0.3730091 1.014271
vt 0.3779722 1.010494
vt 0.3719576 1.010494
vt 0.3730091 0.1800324
vt 0.3719576 0.1843284
vt 0.3779722 0.1843284
vt 2.08848 -0.03007972
vt 2.085919 -0.02335173
vt 2.092207 -0.02446741
vt 1.414792 0.9621147
vt 1.411064 0.9565021
vt 1.403571 0.9650852
vt 1.414792 0.1927395
vt 1.403571 0.1860118
vt 1.411062 0.198352
vt -0.2596477 0.3716292
vt -0.2546089 -0.45911
vt -0.2597084 -0.4590273
vt -1.121452 -0.4618911
vt -1.11687 -0.4592697
vt -1.116803 -0.4635973
vt 0.2866308 1.796233
vt 0.2946083 1.798557
vt 0.2894007 1.791537
vt 0.2866307 1.170234
vt 0.2894004 1.174672
vt 0.2946083 1.164668
vt 1.341493 1.500966
vt 1.341493 1.48457
vt 1.336449 1.484753
vt 2.028917 0.6982141
vt 2.024292 0.6962957
vt 2.024292 0.700363
vt 2.024292 1.48457
vt 2.028917 0.6982141
vt 2.024292 0.700363
vt 2.024292 1.48457
vt 2.024292 1.500966
vt 2.028917 1.48621
vt 2.024292 1.48457
vt 2.028917 1.48621
vt 2.028917 0.6982141
vt 1.499417 0.8884183
vt 1.494503 0.8928455
vt 1.50527 0.8946955
vt 1.499419 0.1464912
vt 1.50527 0.136702
vt 1.494503 0.1420719
vt 1.666806 0.1120176
vt 1.661892 0.1075982
vt 1.660955 0.1129599
vt 1.660955 0.9306397
vt 1.50527 0.8946955
vt 1.661892 0.9449446
vt 0.7720721 0.9456555
vt 0.8235871 0.8952397
vt 0.7692279 0.9313517
vt 0.8256581 0.1470292
vt 0.830573 0.1426018
vt 0.821956 0.1396268
vt 0.7880559 0.1082959
vt 1.645062 0.1129303
vt 1.646004 0.1076109
vt 1.42667 1.279489
vt 1.434064 1.279454
vt 1.429488 1.27471
vt 1.429488 2.125254
vt 1.434064 2.120703
vt 1.426671 2.12074
vt -0.4105421 1.589692
vt -0.4055084 1.573482
vt -0.410472 1.573386
vt -1.092622 1.573386
vt -1.097333 1.575064
vt -1.092692 1.589692
vt -0.3801051 0.3001059
vt -0.375349 0.2930501
vt -0.375349 -0.4401439
vt -0.3801051 0.3001059
vt -0.375349 -0.4401439
vt -0.3801049 -0.446677
vt 1.569934 0.6739935
vt 1.56654 0.6682913
vt 1.563719 0.6746718
vt -0.3493741 0.1751071
vt -0.3493741 0.1679276
vt -0.3565635 0.1713677
vt -0.500671 0.4506755
vt -0.495781 0.4516846
vt -0.4941098 -0.4102814
vt -0.500671 0.4506755
vt -0.4941098 -0.4102814
vt -0.500671 -0.4069083
vt 0.3719575 0.9956542
vt -0.4734214 1.010494
vt 0.3719576 1.010494
vt -0.4734214 0.9956542
vt 0.3719576 0.1990798
vt -0.4734214 0.1990798
vt 0.3719576 0.1843284
vt -0.4734214 0.1843283
vt 0.3719576 1.010494
vt 0.3779722 1.010494
vt 0.3779722 0.9956542
vt 0.3719575 0.9956542
vt 0.3779722 0.1990798
vt 0.3719576 0.1990798
vt 0.3779722 0.1843284
vt 0.3719576 0.1843284
vt 2.085919 -0.004052341
vt 2.092207 -0.02446741
vt 2.085919 -0.02335173
vt 2.092207 -0.005195141
vt 2.085919 1.038113
vt 2.092207 1.035499
vt 2.085919 1.057529
vt 2.092207 1.054887
vt 1.411064 0.9428836
vt 1.403571 0.9650852
vt 1.411064 0.9565021
vt 1.403571 0.9510908
vt 1.411062 0.2118889
vt 1.403571 0.1999224
vt 1.411062 0.198352
vt 1.403571 0.1860118
vt 0.1729898 0.9616202
vt 1.031605 0.9616202
vt 1.031605 0.1302302
vt 0.17299 0.1302302
vt 1.036226 0.1274274
vt 1.031605 0.1302302
vt 1.031605 0.9616202
vt 1.036226 0.9626137
vt 1.031605 0.1302302
vt 0.17299 0.1258
vt 0.17299 0.1302302
vt 1.031605 0.1258
vt 0.3037588 -0.3509874
vt 0.3037588 -0.3454298
vt 0.3206609 -0.3454298
vt 0.3206609 -0.3509874
vt 0.3037588 -0.4049176
vt 0.3206609 -0.4049176
vt 0.3037588 -0.4154383
vt 0.3206609 -0.4154383
vt -0.2597084 -0.4590273
vt -1.11687 -0.4592697
vt -1.11681 0.3713868
vt -0.2596477 0.3716292
vt -0.2546152 0.3758739
vt -0.2546089 -0.45911
vt -1.116809 0.37563
vt -0.2546147 0.3840138
vt -1.116809 0.38377
vt -0.2546093 0.453985
vt -1.116804 0.4537411
vt -0.2546089 0.4617499
vt -1.116803 0.4615059
vt -1.11681 0.3713868
vt -1.121391 0.3725583
vt -1.116809 0.37563
vt -1.11687 -0.4592697
vt -1.121452 -0.4618911
vt -0.2597084 -0.4590273
vt -1.116803 -0.4635973
vt -1.11687 -0.4592697
vt -0.2596414 -0.4633548
vt 0.2894007 1.780456
vt 0.2744126 1.791218
vt 0.2894007 1.791537
vt 0.2744126 1.780139
vt 0.2894007 1.185686
vt 0.2744126 1.185367
vt 0.2894004 1.174672
vt 0.2744126 1.174354
vt 0.2894007 1.791537
vt 0.2946083 1.798557
vt 0.2946083 1.787171
vt 0.2894007 1.780456
vt 0.2946083 1.175985
vt 0.2894007 1.185686
vt 0.2946083 1.164668
vt 0.2894004 1.174672
vt 1.341493 0.700363
vt 1.341493 1.48457
vt 2.024292 1.48457
vt 2.024292 0.700363
vt 1.336449 1.484753
vt 1.341493 1.48457
vt 1.341493 0.700363
vt 1.336449 0.7005463
vt 1.341493 0.6962957
vt 1.341493 0.700363
vt 2.024292 0.700363
vt 2.024292 0.6962957
vt 2.024292 1.500966
vt 2.024292 1.48457
vt 1.341493 1.48457
vt 1.341493 1.500966
vt 1.660955 0.9306397
vt 1.50527 0.136702
vt 1.50527 0.8946955
vt 1.660955 0.1129599
vt 1.493068 0.1367542
vt 1.645062 0.1129303
vt 0.8342301 0.1395742
vt 0.7868477 0.1113218
vt 0.821956 0.1396268
vt 0.7708592 0.1112919
vt 0.8235871 0.8952397
vt 0.7692279 0.9313517
vt 1.50527 0.136702
vt 1.499417 0.8884183
vt 1.50527 0.8946955
vt 1.499419 0.1464912
vt 1.666806 0.1120176
vt 1.660955 0.1129599
vt 1.660955 0.9306397
vt 1.666806 0.9280699
vt 1.646004 0.1076109
vt 1.660955 0.1129599
vt 1.661892 0.1075982
vt 1.645062 0.1129303
vt 1.493068 0.1367542
vt 1.494503 0.1420719
vt 1.50527 0.136702
vt 1.482648 0.1420812
vt 0.8342301 0.1395742
vt 1.646004 0.9449574
vt 1.661892 0.9449446
vt 1.50527 0.8946955
vt 1.493097 0.8947051
vt 0.7880559 0.9456427
vt 0.8358319 0.8952298
vt 0.7720721 0.9456555
vt 0.8235871 0.8952397
vt 0.8342301 0.1395742
vt 0.8424988 0.1425924
vt 1.482648 0.1420812
vt 0.821956 0.1396268
vt 0.830573 0.1426018
vt 0.7720721 0.1083087
vt 0.7708592 0.1112919
vt 0.7868477 0.1113218
vt 0.7880559 0.1082959
vt 1.645062 0.1129303
vt 1.42667 1.2946
vt 1.42667 1.279489
vt 0.8073419 1.266356
vt 0.8073416 1.281468
vt 1.426671 2.105719
vt 0.8073424 2.092587
vt 1.426671 2.12074
vt 0.8073419 2.107608
vt 1.434064 1.279454
vt 1.42667 1.279489
vt 1.42667 1.2946
vt 1.434064 1.294564
vt 1.426671 2.105719
vt 1.434064 2.105682
vt 1.426671 2.12074
vt 1.434064 2.120703
vt -0.410472 1.573386
vt -0.4107913 0.7892886
vt -1.092941 0.7892885
vt -1.092622 1.573386
vt -0.4058277 0.7893845
vt -0.4107913 0.7892886
vt -0.410472 1.573386
vt -0.4055084 1.573482
vt -1.092622 1.573386
vt -0.4105421 1.589692
vt -0.410472 1.573386
vt -1.092692 1.589692
vt -1.09302 0.7851342
vt -1.092941 0.7892885
vt -0.4107913 0.7892886
vt -0.4108697 0.7851342
vt 2.089722 -1.098211
vt 2.089722 -1.112089
vt 1.418438 -1.112089
vt 1.418438 -1.098211
vt 2.089722 -0.3487684
vt 1.418438 -0.3487684
vt 2.089722 -0.3348063
vt 1.418438 -0.3348063
vt -0.358058 -0.4401439
vt -0.375349 -0.4401439
vt -0.375349 0.2930501
vt -0.358058 0.2930501
vt -0.358058 0.2930501
vt -0.3533022 -0.4463276
vt -0.358058 -0.4401439
vt -0.3533022 0.3004444
vt -0.375349 0.2930501
vt -0.358058 0.29761
vt -0.358058 0.2930501
vt -0.375349 0.29761
vt -0.375349 -0.4443269
vt -0.375349 -0.4401439
vt -0.358058 -0.4401439
vt -0.358058 -0.4443269
vt -0.493839 1.231016
vt 0.1974978 1.21278
vt -0.493839 1.21278
vt 0.1974978 1.231016
vt -0.4938386 2.21577
vt 0.197498 2.21577
vt -0.4938386 2.234116
vt 0.197498 2.234116
vt -0.4938386 2.21577
vt -0.5134261 2.234116
vt -0.4938386 2.234116
vt -0.5134261 2.21577
vt -0.493839 1.231016
vt -0.5134261 1.231016
vt -0.493839 1.21278
vt -0.5134261 1.21278
vt 0.2845569 0.1812788
vt 0.2666141 0.1812725
vt 0.2666141 0.9427271
vt 0.2845569 0.9427332
vt 0.2845569 0.9427332
vt 0.2893939 0.17362
vt 0.2845569 0.1812788
vt 0.2893939 0.9491763
vt 0.2845569 0.1812788
vt 0.2666962 0.1766302
vt 0.2666141 0.1812725
vt 0.2846388 0.1766363
vt 0.2666141 0.9427271
vt 0.2846388 0.9471704
vt 0.2845569 0.9427332
vt 0.2666962 0.9471644
vt 0.8948461 0.7768089
vt 0.9114956 0.7663794
vt 0.8948461 0.7663794
vt 0.9114956 0.7768089
vt 0.8948461 1.34002
vt 0.9114956 1.34002
vt 0.8948461 1.350512
vt 0.9114956 1.350512
vt 0.9167441 0.7568891
vt 0.9114956 0.7663794
vt 0.9114956 0.7768089
vt 0.9167441 0.7675978
vt 0.9114956 1.34002
vt 0.9167441 1.345867
vt 0.9114956 1.350512
vt 0.9167441 1.356639
vt 1.563719 0.6746718
vt 1.56654 0.6682913
vt 0.7863389 0.6517481
vt 0.7789374 0.6580312
vt 1.569934 0.6739935
vt 1.563719 0.6746718
vt 1.563719 0.6874482
vt 1.569934 0.793201
vt 1.563719 1.553062
vt 1.569934 1.357541
vt 1.563719 1.57161
vt 1.569934 1.569705
vt 0.778937 1.536422
vt 1.563719 1.553062
vt 1.563719 0.6874482
vt 0.7789374 0.6708077
vt 0.4446265 -0.4110313
vt 0.4235315 0.4509502
vt 0.440347 0.4509369
vt 0.4252131 -0.4110156
vt -0.4790663 0.4516713
vt 0.4252131 -0.4194196
vt 0.4446265 -0.4194351
vt 0.4252131 -0.491659
vt 0.4446265 -0.4916745
vt 0.4252131 -0.4996755
vt 0.4446265 -0.4996909
vt -0.4807378 -0.4102922
vt -0.495781 0.4516846
vt -0.4941098 -0.4102814
vt -0.4941098 -0.423605
vt -0.4807378 -0.4236158
vt -0.4941098 -0.4919033
vt -0.4807378 -0.491914
vt -0.4941098 -0.4989413
vt -0.4807378 -0.4989519
vt 1.988502 0.09398526
vt 1.988502 0.8160251
vt 2.002383 0.8157309
vt 2.002383 0.09369087
vt 0.8945994 1.145011
vt 0.8945994 1.867059
vt 0.9147526 1.866631
vt 0.9147526 1.144583
vt 1.926698 0.699023
vt 1.918272 0.699023
vt 1.918272 1.491476
vt 1.926698 1.491476
vt 2.00262 0.699023
vt 2.00262 1.491476
vt 2.011451 0.699023
vt 2.011451 1.491476
vt 1.918121 0.1069914
vt 1.910725 0.1069914
vt 1.910725 0.8994449
vt 1.918121 0.8994449
vt 1.989901 0.1069914
vt 1.989901 0.8994449
vt 2.003903 0.1069914
vt 2.003903 0.8994449
vt -0.3628969 1.579861
vt -0.3554972 1.579859
vt -0.3554971 0.7877294
vt -0.3628968 0.7877318
vt -0.4347056 1.579886
vt -0.4347056 0.7877567
vt -0.4487141 1.57989
vt -0.4487139 0.7877616
vt 0.2887571 -0.35176
vt 0.2887571 -0.3454298
vt 0.3132961 -0.3454298
vt 0.313296 -0.35176
vt 0.2887571 -0.4088026
vt 0.313296 -0.4088026
vt 0.2887571 -0.4154383
vt 0.313296 -0.4154383
vt 1.352774 0.1204992
vt 1.403571 0.1999224
vt 1.403571 0.1860118
vt 1.352776 -0.02335173
vt 1.352774 0.8015034
vt 2.040466 0.1860118
vt 1.403571 0.9510908
vt 2.085919 -0.02335173
vt 1.352774 1.057529
vt 2.040466 0.1999224
vt 1.403571 0.9650852
vt 2.085919 -0.004052341
vt 2.085919 1.057529
vt 2.040466 0.9510911
vt 2.040466 0.9650852
vt 2.085919 1.038113
usemtl HammeredMetal_AlbedoTransparency
f 445/445/445 444/444/444 443/443/443
f 448/448/448 447/447/447 446/446/446
f 451/451/451 450/450/450 449/449/449
f 454/454/454 453/453/453 452/452/452
f 457/457/457 456/456/456 455/455/455
f 460/460/460 459/459/459 458/458/458
f 463/463/463 462/462/462 461/461/461
f 466/466/466 465/465/465 464/464/464
f 469/469/469 468/468/468 467/467/467
f 472/472/472 471/471/471 470/470/470
f 475/475/475 474/474/474 473/473/473
f 478/478/478 477/477/477 476/476/476
f 481/481/481 480/480/480 479/479/479
f 484/484/484 483/483/483 482/482/482
f 487/487/487 486/486/486 485/485/485
f 490/490/490 489/489/489 488/488/488
f 493/493/493 492/492/492 491/491/491
f 496/496/496 495/495/495 494/494/494
f 499/499/499 498/498/498 497/497/497
f 502/502/502 501/501/501 500/500/500
f 505/505/505 504/504/504 503/503/503
f 508/508/508 507/507/507 506/506/506
f 511/511/511 510/510/510 509/509/509
f 514/514/514 513/513/513 512/512/512
f 517/517/517 516/516/516 515/515/515
f 520/520/520 519/519/519 518/518/518
f 523/523/523 522/522/522 521/521/521
f 526/526/526 525/525/525 524/524/524
f 529/529/529 528/528/528 527/527/527
f 532/532/532 531/531/531 530/530/530
f 535/535/535 534/534/534 533/533/533
f 538/538/538 537/537/537 536/536/536
f 537/537/537 539/539/539 536/536/536
f 536/536/536 539/539/539 540/540/540
f 539/539/539 541/541/541 540/540/540
f 540/540/540 541/541/541 542/542/542
f 541/541/541 543/543/543 542/542/542
f 546/546/546 545/545/545 544/544/544
f 547/547/547 546/546/546 544/544/544
f 548/548/548 546/546/546 547/547/547
f 549/549/549 548/548/548 547/547/547
f 550/550/550 548/548/548 549/549/549
f 551/551/551 550/550/550 549/549/549
f 554/554/554 553/553/553 552/552/552
f 553/553/553 555/555/555 552/552/552
f 552/552/552 555/555/555 556/556/556
f 555/555/555 557/557/557 556/556/556
f 556/556/556 557/557/557 558/558/558
f 557/557/557 559/559/559 558/558/558
f 562/562/562 561/561/561 560/560/560
f 561/561/561 563/563/563 560/560/560
f 560/560/560 563/563/563 564/564/564
f 563/563/563 565/565/565 564/564/564
f 564/564/564 565/565/565 566/566/566
f 565/565/565 567/567/567 566/566/566
f 570/570/570 569/569/569 568/568/568
f 571/571/571 570/570/570 568/568/568
f 574/574/574 573/573/573 572/572/572
f 575/575/575 574/574/574 572/572/572
f 578/578/578 577/577/577 576/576/576
f 577/577/577 579/579/579 576/576/576
f 582/582/582 581/581/581 580/580/580
f 583/583/583 582/582/582 580/580/580
f 583/583/583 580/580/580 584/584/584
f 585/585/585 583/583/583 584/584/584
f 585/585/585 584/584/584 586/586/586
f 587/587/587 585/585/585 586/586/586
f 590/590/590 589/589/589 588/588/588
f 591/591/591 590/590/590 588/588/588
f 591/591/591 592/592/592 590/590/590
f 593/593/593 592/592/592 591/591/591
f 592/592/592 594/594/594 590/590/590
f 592/592/592 595/595/595 594/594/594
f 595/595/595 596/596/596 594/594/594
f 595/595/595 597/597/597 596/596/596
f 597/597/597 598/598/598 596/596/596
f 597/597/597 599/599/599 598/598/598
f 599/599/599 600/600/600 598/598/598
f 603/603/603 602/602/602 601/601/601
f 604/604/604 601/601/601 602/602/602
f 605/605/605 604/604/604 602/602/602
f 608/608/608 607/607/607 606/606/606
f 607/607/607 609/609/609 606/606/606
f 612/612/612 611/611/611 610/610/610
f 611/611/611 613/613/613 610/610/610
f 610/610/610 613/613/613 614/614/614
f 613/613/613 615/615/615 614/614/614
f 614/614/614 615/615/615 616/616/616
f 615/615/615 617/617/617 616/616/616
f 620/620/620 619/619/619 618/618/618
f 621/621/621 620/620/620 618/618/618
f 622/622/622 620/620/620 621/621/621
f 623/623/623 622/622/622 621/621/621
f 624/624/624 622/622/622 623/623/623
f 625/625/625 624/624/624 623/623/623
f 628/628/628 627/627/627 626/626/626
f 629/629/629 628/628/628 626/626/626
f 632/632/632 631/631/631 630/630/630
f 633/633/633 632/632/632 630/630/630
f 636/636/636 635/635/635 634/634/634
f 637/637/637 636/636/636 634/634/634
f 640/640/640 639/639/639 638/638/638
f 641/641/641 640/640/640 638/638/638
f 644/644/644 643/643/643 642/642/642
f 643/643/643 645/645/645 642/642/642
f 643/643/643 646/646/646 645/645/645
f 646/646/646 647/647/647 645/645/645
f 646/646/646 648/648/648 647/647/647
f 648/648/648 649/649/649 647/647/647
f 648/648/648 650/650/650 649/649/649
f 650/650/650 651/651/651 649/649/649
f 650/650/650 652/652/652 651/651/651
f 652/652/652 653/653/653 651/651/651
f 656/656/656 655/655/655 654/654/654
f 655/655/655 657/657/657 654/654/654
f 660/660/660 659/659/659 658/658/658
f 661/661/661 660/660/660 658/658/658
f 664/664/664 663/663/663 662/662/662
f 663/663/663 665/665/665 662/662/662
f 668/668/668 667/667/667 666/666/666
f 667/667/667 669/669/669 666/666/666
f 666/666/666 669/669/669 670/670/670
f 673/673/673 672/672/672 671/671/671
f 674/674/674 673/673/673 671/671/671
f 674/674/674 671/671/671 675/675/675
f 676/676/676 674/674/674 675/675/675
f 676/676/676 675/675/675 677/677/677
f 678/678/678 676/676/676 677/677/677
f 681/681/681 680/680/680 679/679/679
f 679/679/679 680/680/680 682/682/682
f 680/680/680 683/683/683 682/682/682
f 686/686/686 685/685/685 684/684/684
f 687/687/687 686/686/686 684/684/684
f 688/688/688 686/686/686 687/687/687
f 691/691/691 690/690/690 689/689/689
f 692/692/692 691/691/691 689/689/689
f 692/692/692 689/689/689 693/693/693
f 694/694/694 692/692/692 693/693/693
f 694/694/694 693/693/693 695/695/695
f 696/696/696 694/694/694 695/695/695
f 699/699/699 698/698/698 697/697/697
f 700/700/700 699/699/699 697/697/697
f 701/701/701 699/699/699 700/700/700
f 702/702/702 701/701/701 700/700/700
f 703/703/703 701/701/701 702/702/702
f 704/704/704 703/703/703 702/702/702
f 707/707/707 706/706/706 705/705/705
f 708/708/708 707/707/707 705/705/705
f 711/711/711 710/710/710 709/709/709
f 712/712/712 711/711/711 709/709/709
f 715/715/715 714/714/714 713/713/713
f 714/714/714 716/716/716 713/713/713
f 719/719/719 718/718/718 717/717/717
f 720/720/720 719/719/719 717/717/717
f 723/723/723 722/722/722 721/721/721
f 724/724/724 723/723/723 721/721/721
f 724/724/724 721/721/721 725/725/725
f 726/726/726 724/724/724 725/725/725
f 726/726/726 725/725/725 727/727/727
f 728/728/728 726/726/726 727/727/727
f 731/731/731 730/730/730 729/729/729
f 732/732/732 731/731/731 729/729/729
f 735/735/735 734/734/734 733/733/733
f 734/734/734 736/736/736 733/733/733
f 739/739/739 738/738/738 737/737/737
f 738/738/738 740/740/740 737/737/737
f 743/743/743 742/742/742 741/741/741
f 744/744/744 743/743/743 741/741/741
f 747/747/747 746/746/746 745/745/745
f 746/746/746 748/748/748 745/745/745
f 745/745/745 748/748/748 749/749/749
f 748/748/748 750/750/750 749/749/749
f 749/749/749 750/750/750 751/751/751
f 750/750/750 752/752/752 751/751/751
f 755/755/755 754/754/754 753/753/753
f 754/754/754 756/756/756 753/753/753
f 753/753/753 756/756/756 757/757/757
f 756/756/756 758/758/758 757/757/757
f 757/757/757 758/758/758 759/759/759
f 758/758/758 760/760/760 759/759/759
f 763/763/763 762/762/762 761/761/761
f 764/764/764 763/763/763 761/761/761
f 767/767/767 766/766/766 765/765/765
f 766/766/766 768/768/768 765/765/765
f 771/771/771 770/770/770 769/769/769
f 770/770/770 772/772/772 769/769/769
f 775/775/775 774/774/774 773/773/773
f 774/774/774 776/776/776 773/773/773
f 779/779/779 778/778/778 777/777/777
f 778/778/778 780/780/780 777/777/777
f 777/777/777 780/780/780 781/781/781
f 780/780/780 782/782/782 781/781/781
f 781/781/781 782/782/782 783/783/783
f 782/782/782 784/784/784 783/783/783
f 787/787/787 786/786/786 785/785/785
f 788/788/788 787/787/787 785/785/785
f 789/789/789 787/787/787 788/788/788
f 790/790/790 789/789/789 788/788/788
f 791/791/791 789/789/789 790/790/790
f 792/792/792 791/791/791 790/790/790
f 795/795/795 794/794/794 793/793/793
f 796/796/796 795/795/795 793/793/793
f 799/799/799 798/798/798 797/797/797
f 800/800/800 799/799/799 797/797/797
f 801/801/801 799/799/799 800/800/800
f 802/802/802 801/801/801 800/800/800
f 803/803/803 801/801/801 802/802/802
f 804/804/804 803/803/803 802/802/802
f 807/807/807 806/806/806 805/805/805
f 808/808/808 807/807/807 805/805/805
f 811/811/811 810/810/810 809/809/809
f 810/810/810 812/812/812 809/809/809
f 810/810/810 813/813/813 812/812/812
f 812/812/812 814/814/814 809/809/809
f 814/814/814 815/815/815 809/809/809
f 814/814/814 816/816/816 815/815/815
f 816/816/816 817/817/817 815/815/815
f 816/816/816 818/818/818 817/817/817
f 818/818/818 819/819/819 817/817/817
f 813/813/813 820/820/820 812/812/812
f 813/813/813 821/821/821 820/820/820
f 821/821/821 822/822/822 820/820/820
f 822/822/822 823/823/823 820/820/820
f 823/823/823 824/824/824 820/820/820
f 823/823/823 825/825/825 824/824/824
f 825/825/825 826/826/826 824/824/824
f 825/825/825 827/827/827 826/826/826
f 827/827/827 828/828/828 826/826/826
f 831/831/831 830/830/830 829/829/829
f 832/832/832 831/831/831 829/829/829
f 835/835/835 834/834/834 833/833/833
f 836/836/836 835/835/835 833/833/833
f 839/839/839 838/838/838 837/837/837
f 840/840/840 839/839/839 837/837/837
f 840/840/840 837/837/837 841/841/841
f 842/842/842 840/840/840 841/841/841
f 842/842/842 841/841/841 843/843/843
f 844/844/844 842/842/842 843/843/843
f 847/847/847 846/846/846 845/845/845
f 848/848/848 847/847/847 845/845/845
f 848/848/848 845/845/845 849/849/849
f 850/850/850 848/848/848 849/849/849
f 850/850/850 849/849/849 851/851/851
f 852/852/852 850/850/850 851/851/851
f 855/855/855 854/854/854 853/853/853
f 856/856/856 855/855/855 853/853/853
f 856/856/856 853/853/853 857/857/857
f 858/858/858 856/856/856 857/857/857
f 858/858/858 857/857/857 859/859/859
f 860/860/860 858/858/858 859/859/859
f 863/863/863 862/862/862 861/861/861
f 864/864/864 863/863/863 861/861/861
f 864/864/864 861/861/861 865/865/865
f 866/866/866 864/864/864 865/865/865
f 866/866/866 865/865/865 867/867/867
f 868/868/868 866/866/866 867/867/867
f 871/871/871 870/870/870 869/869/869
f 872/872/872 871/871/871 869/869/869
f 869/869/869 870/870/870 873/873/873
f 874/874/874 871/871/871 872/872/872
f 870/870/870 875/875/875 873/873/873
f 876/876/876 874/874/874 872/872/872
f 873/873/873 875/875/875 877/877/877
f 878/878/878 874/874/874 876/876/876
f 875/875/875 879/879/879 877/877/877
f 880/880/880 878/878/878 876/876/876
f 877/877/877 879/879/879 881/881/881
f 882/882/882 878/878/878 880/880/880
f 879/879/879 883/883/883 881/881/881
f 884/884/884 882/882/882 880/880/880
f 881/881/881 883/883/883 884/884/884
f 883/883/883 882/882/882 884/884/884
