mtllib SideCabinet_e441ce79.mtl
g SideCabinet_e441ce79
v -0.51163 0.22092 -2.70867
v -0.50675 0.2258 -2.7038
v -0.50053 0.2258 -2.7038
v -0.51163 0.22092 -2.70867
v -0.50053 0.2258 -2.7038
v -0.49565 0.22092 -2.70867
v 1.39521 0.34235 -2.71454
v 1.39033 0.34722 -2.70966
v 1.39033 0.35737 -2.70966
v 1.39521 0.34235 -2.71454
v 1.39033 0.35737 -2.70966
v 1.39521 0.36225 -2.71454
v -0.16329 0.34235 -2.71454
v -0.16817 0.34722 -2.70966
v -0.16817 0.35737 -2.70966
v -0.16329 0.34235 -2.71454
v -0.16817 0.35737 -2.70966
v -0.16329 0.36225 -2.71454
v 1.39521 1.20841 -2.71454
v 1.39033 1.21328 -2.70966
v 1.39033 1.22344 -2.70966
v 1.39521 1.20841 -2.71454
v 1.39033 1.22344 -2.70966
v 1.39521 1.22831 -2.71454
v -0.16329 1.20841 -2.71454
v -0.16817 1.21328 -2.70966
v -0.16817 1.22344 -2.70966
v -0.16329 1.20841 -2.71454
v -0.16817 1.22344 -2.70966
v -0.16329 1.22831 -2.71454
v -0.51163 1.2271 -3.46092
v -0.49565 1.2271 -3.46092
v -0.49565 1.2271 -2.70867
v -0.51163 1.2271 -2.70867
v -0.51163 0.22092 -3.46092
v -0.49565 1.2271 -3.46092
v -0.51163 1.2271 -3.46092
v -0.49565 0.22092 -3.46092
v -0.51163 0.22092 -2.70867
v -0.51163 0.22092 -3.46092
v -0.51163 1.2271 -3.46092
v -0.51163 1.2271 -2.70867
v -0.51163 0.22092 -2.70867
v -0.49565 0.22092 -3.46092
v -0.51163 0.22092 -3.46092
v -0.49565 0.22092 -2.70867
v -0.49565 0.22092 -2.70867
v -0.49565 1.2271 -2.70867
v -0.49565 1.2271 -3.46092
v -0.49565 0.22092 -3.46092
v -0.50675 0.2258 -2.7038
v -0.51163 0.22092 -2.70867
v -0.51163 1.2271 -2.70867
v -0.50675 1.22222 -2.7038
v -0.49565 1.2271 -2.70867
v -0.50675 1.22222 -2.7038
v -0.51163 1.2271 -2.70867
v -0.50053 1.22222 -2.7038
v -0.49565 0.22092 -2.70867
v -0.50053 1.22222 -2.7038
v -0.49565 1.2271 -2.70867
v -0.50053 0.2258 -2.7038
v -0.50675 1.22222 -2.7038
v -0.50053 1.22222 -2.7038
v -0.50053 0.2258 -2.7038
v -0.50675 0.2258 -2.7038
v -0.16442 1.22222 -2.7038
v -0.1582 1.22222 -2.7038
v -0.1582 0.2258 -2.7038
v -0.16442 0.2258 -2.7038
v -0.16442 0.2258 -2.7038
v -0.16929 1.2271 -2.70867
v -0.16442 1.22222 -2.7038
v -0.16929 0.22092 -2.70867
v -0.16929 0.22092 -2.70867
v -0.16442 0.2258 -2.7038
v -0.1582 0.2258 -2.7038
v -0.15332 0.22092 -2.70867
v -0.16929 0.22092 -2.70867
v -0.16929 1.2271 -3.46092
v -0.16929 1.2271 -2.70867
v -0.16929 0.22092 -3.46092
v -0.16929 1.2271 -3.46092
v -0.15332 1.2271 -2.70867
v -0.16929 1.2271 -2.70867
v -0.15332 1.2271 -3.46092
v -0.15332 1.2271 -2.70867
v -0.1582 1.22222 -2.7038
v -0.16442 1.22222 -2.7038
v -0.16929 1.2271 -2.70867
v -0.16929 0.22092 -3.46092
v -0.15332 1.2271 -3.46092
v -0.16929 1.2271 -3.46092
v -0.15332 0.22092 -3.46092
v -0.16929 0.22092 -2.70867
v -0.15332 0.22092 -3.46092
v -0.16929 0.22092 -3.46092
v -0.15332 0.22092 -2.70867
v -0.15332 0.22092 -2.70867
v -0.15332 1.2271 -2.70867
v -0.15332 1.2271 -3.46092
v -0.15332 0.22092 -3.46092
v -0.15332 0.22092 -2.70867
v -0.1582 0.2258 -2.7038
v -0.1582 1.22222 -2.7038
v -0.15332 1.2271 -2.70867
v 1.39342 1.22222 -2.7038
v 1.39964 1.22222 -2.7038
v 1.39964 0.2258 -2.7038
v 1.39342 0.2258 -2.7038
v 1.39342 0.2258 -2.7038
v 1.38854 1.2271 -2.70867
v 1.39342 1.22222 -2.7038
v 1.38854 0.22092 -2.70867
v 1.38854 0.22092 -2.70867
v 1.39342 0.2258 -2.7038
v 1.39964 0.2258 -2.7038
v 1.40451 0.22092 -2.70867
v 1.38854 0.22092 -2.70867
v 1.38854 1.2271 -3.46092
v 1.38854 1.2271 -2.70867
v 1.38854 0.22092 -3.46092
v 1.38854 1.2271 -3.46092
v 1.40451 1.2271 -2.70867
v 1.38854 1.2271 -2.70867
v 1.40451 1.2271 -3.46092
v 1.40451 1.2271 -2.70867
v 1.39964 1.22222 -2.7038
v 1.39342 1.22222 -2.7038
v 1.38854 1.2271 -2.70867
v 1.38854 0.22092 -3.46092
v 1.40451 1.2271 -3.46092
v 1.38854 1.2271 -3.46092
v 1.40451 0.22092 -3.46092
v 1.38854 0.22092 -2.70867
v 1.40451 0.22092 -3.46092
v 1.38854 0.22092 -3.46092
v 1.40451 0.22092 -2.70867
v 1.40451 0.22092 -2.70867
v 1.40451 1.2271 -2.70867
v 1.40451 1.2271 -3.46092
v 1.40451 0.22092 -3.46092
v 1.40451 0.22092 -2.70867
v 1.39964 0.2258 -2.7038
v 1.39964 1.22222 -2.7038
v 1.40451 1.2271 -2.70867
v 1.05108 1.22222 -2.7038
v 1.0573 1.22222 -2.7038
v 1.0573 0.2258 -2.7038
v 1.05108 0.2258 -2.7038
v 1.05108 0.2258 -2.7038
v 1.0462 1.2271 -2.70867
v 1.05108 1.22222 -2.7038
v 1.0462 0.22092 -2.70867
v 1.0462 0.22092 -2.70867
v 1.05108 0.2258 -2.7038
v 1.0573 0.2258 -2.7038
v 1.06218 0.22092 -2.70867
v 1.0462 0.22092 -2.70867
v 1.0462 1.2271 -3.46092
v 1.0462 1.2271 -2.70867
v 1.0462 0.22092 -3.46092
v 1.0462 1.2271 -3.46092
v 1.06218 1.2271 -2.70867
v 1.0462 1.2271 -2.70867
v 1.06218 1.2271 -3.46092
v 1.06218 1.2271 -2.70867
v 1.0573 1.22222 -2.7038
v 1.05108 1.22222 -2.7038
v 1.0462 1.2271 -2.70867
v 1.0462 0.22092 -3.46092
v 1.06218 1.2271 -3.46092
v 1.0462 1.2271 -3.46092
v 1.06218 0.22092 -3.46092
v 1.0462 0.22092 -2.70867
v 1.06218 0.22092 -3.46092
v 1.0462 0.22092 -3.46092
v 1.06218 0.22092 -2.70867
v 1.06218 0.22092 -2.70867
v 1.06218 1.2271 -2.70867
v 1.06218 1.2271 -3.46092
v 1.06218 0.22092 -3.46092
v 1.06218 0.22092 -2.70867
v 1.0573 0.2258 -2.7038
v 1.0573 1.22222 -2.7038
v 1.06218 1.2271 -2.70867
v 1.39033 0.35737 -2.70966
v 1.39033 0.34722 -2.70966
v 1.06204 0.34722 -2.70966
v 1.06204 0.35737 -2.70966
v 1.06204 0.35737 -2.70966
v 1.39521 0.36225 -2.71454
v 1.39033 0.35737 -2.70966
v 1.05716 0.36225 -2.71454
v 1.05716 0.36225 -2.71454
v 1.06204 0.35737 -2.70966
v 1.06204 0.34722 -2.70966
v 1.05716 0.34235 -2.71454
v 1.05716 0.36225 -2.71454
v 1.39521 0.36225 -3.45505
v 1.39521 0.36225 -2.71454
v 1.05716 0.36225 -3.45505
v 1.39521 0.36225 -3.45505
v 1.39521 0.34235 -2.71454
v 1.39521 0.36225 -2.71454
v 1.39521 0.34235 -3.45505
v 1.05716 0.36225 -3.45505
v 1.39521 0.34235 -3.45505
v 1.39521 0.36225 -3.45505
v 1.05716 0.34235 -3.45505
v 1.05716 0.36225 -2.71454
v 1.05716 0.34235 -3.45505
v 1.05716 0.36225 -3.45505
v 1.05716 0.34235 -2.71454
v 1.05716 0.34235 -2.71454
v 1.39521 0.34235 -2.71454
v 1.39521 0.34235 -3.45505
v 1.05716 0.34235 -3.45505
v 1.05716 0.34235 -2.71454
v 1.06204 0.34722 -2.70966
v 1.39033 0.34722 -2.70966
v 1.39521 0.34235 -2.71454
v -0.16817 0.35737 -2.70966
v -0.16817 0.34722 -2.70966
v -0.49647 0.34722 -2.70966
v -0.49647 0.35737 -2.70966
v -0.49647 0.35737 -2.70966
v -0.16329 0.36225 -2.71454
v -0.16817 0.35737 -2.70966
v -0.50134 0.36225 -2.71454
v -0.50134 0.36225 -2.71454
v -0.49647 0.35737 -2.70966
v -0.49647 0.34722 -2.70966
v -0.50134 0.34235 -2.71454
v -0.50134 0.36225 -2.71454
v -0.16329 0.36225 -3.45505
v -0.16329 0.36225 -2.71454
v -0.50134 0.36225 -3.45505
v -0.16329 0.36225 -3.45505
v -0.16329 0.34235 -2.71454
v -0.16329 0.36225 -2.71454
v -0.16329 0.34235 -3.45505
v -0.50134 0.36225 -3.45505
v -0.16329 0.34235 -3.45505
v -0.16329 0.36225 -3.45505
v -0.50134 0.34235 -3.45505
v -0.50134 0.36225 -2.71454
v -0.50134 0.34235 -3.45505
v -0.50134 0.36225 -3.45505
v -0.50134 0.34235 -2.71454
v -0.50134 0.34235 -2.71454
v -0.16329 0.34235 -2.71454
v -0.16329 0.34235 -3.45505
v -0.50134 0.34235 -3.45505
v -0.50134 0.34235 -2.71454
v -0.49647 0.34722 -2.70966
v -0.16817 0.34722 -2.70966
v -0.16329 0.34235 -2.71454
v 1.39033 1.22344 -2.70966
v 1.39033 1.21328 -2.70966
v 1.06204 1.21328 -2.70966
v 1.06204 1.22344 -2.70966
v 1.06204 1.22344 -2.70966
v 1.39521 1.22831 -2.71454
v 1.39033 1.22344 -2.70966
v 1.05716 1.22831 -2.71454
v 1.05716 1.22831 -2.71454
v 1.06204 1.22344 -2.70966
v 1.06204 1.21328 -2.70966
v 1.05716 1.20841 -2.71454
v 1.05716 1.22831 -2.71454
v 1.39521 1.22831 -3.45505
v 1.39521 1.22831 -2.71454
v 1.05716 1.22831 -3.45505
v 1.39521 1.22831 -3.45505
v 1.39521 1.20841 -2.71454
v 1.39521 1.22831 -2.71454
v 1.39521 1.20841 -3.45505
v 1.05716 1.22831 -3.45505
v 1.39521 1.20841 -3.45505
v 1.39521 1.22831 -3.45505
v 1.05716 1.20841 -3.45505
v 1.05716 1.22831 -2.71454
v 1.05716 1.20841 -3.45505
v 1.05716 1.22831 -3.45505
v 1.05716 1.20841 -2.71454
v 1.05716 1.20841 -2.71454
v 1.39521 1.20841 -2.71454
v 1.39521 1.20841 -3.45505
v 1.05716 1.20841 -3.45505
v 1.05716 1.20841 -2.71454
v 1.06204 1.21328 -2.70966
v 1.39033 1.21328 -2.70966
v 1.39521 1.20841 -2.71454
v -0.16817 1.22344 -2.70966
v -0.16817 1.21328 -2.70966
v -0.49647 1.21328 -2.70966
v -0.49647 1.22344 -2.70966
v -0.49647 1.22344 -2.70966
v -0.16329 1.22831 -2.71454
v -0.16817 1.22344 -2.70966
v -0.50134 1.22831 -2.71454
v -0.50134 1.22831 -2.71454
v -0.49647 1.22344 -2.70966
v -0.49647 1.21328 -2.70966
v -0.50134 1.20841 -2.71454
v -0.50134 1.22831 -2.71454
v -0.16329 1.22831 -3.45505
v -0.16329 1.22831 -2.71454
v -0.50134 1.22831 -3.45505
v -0.16329 1.22831 -3.45505
v -0.16329 1.20841 -2.71454
v -0.16329 1.22831 -2.71454
v -0.16329 1.20841 -3.45505
v -0.50134 1.22831 -3.45505
v -0.16329 1.20841 -3.45505
v -0.16329 1.22831 -3.45505
v -0.50134 1.20841 -3.45505
v -0.50134 1.22831 -2.71454
v -0.50134 1.20841 -3.45505
v -0.50134 1.22831 -3.45505
v -0.50134 1.20841 -2.71454
v -0.50134 1.20841 -2.71454
v -0.16329 1.20841 -2.71454
v -0.16329 1.20841 -3.45505
v -0.50134 1.20841 -3.45505
v -0.50134 1.20841 -2.71454
v -0.49647 1.21328 -2.70966
v -0.16817 1.21328 -2.70966
v -0.16329 1.20841 -2.71454
vn -1.230707 -0.05769044 -2.400111
vn -1.230707 -0.05769041 -2.400111
vn -1.230707 -0.05769041 -2.400111
vn -1.230707 -0.05768913 -2.400109
vn -1.230707 -0.05768913 -2.400109
vn -1.230707 -0.05768919 -2.400109
vn -0.8224838 0.3505681 -2.400075
vn -0.8224838 0.3505681 -2.400075
vn -0.8224838 0.3505681 -2.400075
vn -0.8224748 0.3505681 -2.400084
vn -0.8224749 0.3505681 -2.400084
vn -0.8224749 0.3505681 -2.400084
vn -0.8224421 0.3505681 -2.400117
vn -0.8224421 0.3505681 -2.400117
vn -0.8224421 0.3505681 -2.400117
vn -0.8224452 0.3505681 -2.400114
vn -0.8224452 0.3505681 -2.400114
vn -0.8224452 0.3505681 -2.400114
vn -0.8224807 0.3505681 -2.400078
vn -0.8224807 0.3505681 -2.400078
vn -0.8224806 0.3505681 -2.400079
vn -0.8224859 0.3505681 -2.400073
vn -0.8224859 0.3505681 -2.400073
vn -0.8224859 0.3505681 -2.400073
vn -0.8224437 0.3505681 -2.400115
vn -0.8224437 0.3505681 -2.400115
vn -0.8224437 0.3505681 -2.400115
vn -0.8224418 0.3505681 -2.400117
vn -0.8224418 0.3505681 -2.400117
vn -0.8224418 0.3505681 -2.400117
vn -1.230707 0.9279183 -2.808349
vn -1.230707 0.9279183 -2.808349
vn -1.230707 0.9279183 -2.808349
vn -1.230707 0.9279183 -2.808349
vn -1.230707 0.350568 -3.385699
vn -1.230707 0.350568 -3.385699
vn -1.230707 0.350568 -3.385699
vn -1.230707 0.350568 -3.385699
vn -1.808057 0.3505681 -2.808349
vn -1.808057 0.3505681 -2.808349
vn -1.808057 0.3505681 -2.808349
vn -1.808057 0.3505681 -2.808349
vn -1.230707 -0.2267821 -2.808349
vn -1.230707 -0.2267821 -2.808349
vn -1.230707 -0.2267821 -2.808349
vn -1.230707 -0.2267821 -2.808349
vn -0.6533566 0.3505681 -2.808349
vn -0.6533566 0.3505681 -2.808349
vn -0.6533566 0.3505681 -2.808349
vn -0.6533566 0.3505681 -2.808349
vn -1.63896 0.3505681 -2.400105
vn -1.63896 0.3505681 -2.400105
vn -1.63896 0.3505681 -2.400105
vn -1.638963 0.3505681 -2.400108
vn -1.230707 0.7588134 -2.400097
vn -1.230707 0.7588133 -2.400097
vn -1.230707 0.7588133 -2.400097
vn -1.230707 0.7588164 -2.4001
vn -0.8224585 0.3505681 -2.4001
vn -0.8224586 0.3505681 -2.4001
vn -0.8224586 0.3505681 -2.4001
vn -0.8224574 0.3505681 -2.400102
vn -1.230707 0.3505681 -2.230999
vn -1.230707 0.3505681 -2.230999
vn -1.230707 0.3505681 -2.230999
vn -1.230707 0.3505681 -2.230999
vn -1.230707 0.3505681 -2.230999
vn -1.230707 0.3505681 -2.230999
vn -1.230707 0.3505681 -2.230999
vn -1.230707 0.3505681 -2.230999
vn -1.638971 0.3505681 -2.400116
vn -1.638971 0.3505681 -2.400116
vn -1.638971 0.3505681 -2.400116
vn -1.638971 0.3505681 -2.400116
vn -1.230707 -0.05768785 -2.400108
vn -1.230707 -0.05768785 -2.400108
vn -1.230707 -0.05768785 -2.400108
vn -1.230707 -0.0576759 -2.400096
vn -1.808057 0.3505681 -2.808349
vn -1.808057 0.3505681 -2.808349
vn -1.808057 0.3505681 -2.808349
vn -1.808057 0.3505681 -2.808349
vn -1.230707 0.9279183 -2.808349
vn -1.230707 0.9279183 -2.808349
vn -1.230707 0.9279183 -2.808349
vn -1.230707 0.9279183 -2.808349
vn -1.230707 0.7587984 -2.400083
vn -1.230707 0.7587984 -2.400083
vn -1.230707 0.7587984 -2.400082
vn -1.230707 0.7588149 -2.400099
vn -1.230707 0.350568 -3.385699
vn -1.230707 0.350568 -3.385699
vn -1.230707 0.350568 -3.385699
vn -1.230707 0.350568 -3.385699
vn -1.230707 -0.2267821 -2.808349
vn -1.230707 -0.2267821 -2.808349
vn -1.230707 -0.2267821 -2.808349
vn -1.230707 -0.2267821 -2.808349
vn -0.6533566 0.3505681 -2.808349
vn -0.6533566 0.3505681 -2.808349
vn -0.6533566 0.3505681 -2.808349
vn -0.6533566 0.3505681 -2.808349
vn -0.8224474 0.3505681 -2.400112
vn -0.8224473 0.3505681 -2.400112
vn -0.8224474 0.3505681 -2.400112
vn -0.8224474 0.3505681 -2.400112
vn -1.230707 0.3505681 -2.230999
vn -1.230707 0.3505681 -2.230999
vn -1.230707 0.3505681 -2.230999
vn -1.230707 0.3505681 -2.230999
vn -1.638967 0.3505681 -2.400112
vn -1.638967 0.3505681 -2.400112
vn -1.638967 0.3505681 -2.400112
vn -1.638974 0.3505681 -2.40012
vn -1.230707 -0.05769041 -2.400111
vn -1.230707 -0.05769041 -2.400111
vn -1.230707 -0.05769041 -2.400111
vn -1.230707 -0.05769613 -2.400116
vn -1.808057 0.3505681 -2.808349
vn -1.808057 0.3505681 -2.808349
vn -1.808057 0.3505681 -2.808349
vn -1.808057 0.3505681 -2.808349
vn -1.230707 0.9279183 -2.808349
vn -1.230707 0.9279183 -2.808349
vn -1.230707 0.9279183 -2.808349
vn -1.230707 0.9279183 -2.808349
vn -1.230707 0.7588164 -2.4001
vn -1.230707 0.7588164 -2.4001
vn -1.230707 0.7588164 -2.4001
vn -1.230707 0.7588284 -2.400112
vn -1.230707 0.350568 -3.385699
vn -1.230707 0.350568 -3.385699
vn -1.230707 0.350568 -3.385699
vn -1.230707 0.350568 -3.385699
vn -1.230707 -0.2267821 -2.808349
vn -1.230707 -0.2267821 -2.808349
vn -1.230707 -0.2267821 -2.808349
vn -1.230707 -0.2267821 -2.808349
vn -0.6533566 0.3505681 -2.808349
vn -0.6533566 0.3505681 -2.808349
vn -0.6533566 0.3505681 -2.808349
vn -0.6533566 0.3505681 -2.808349
vn -0.8224479 0.3505681 -2.400111
vn -0.8224479 0.3505681 -2.400111
vn -0.8224479 0.3505681 -2.400111
vn -0.8224423 0.3505681 -2.400117
vn -1.230707 0.3505681 -2.230999
vn -1.230707 0.3505681 -2.230999
vn -1.230707 0.3505681 -2.230999
vn -1.230707 0.3505681 -2.230999
vn -1.638967 0.3505681 -2.400112
vn -1.638967 0.3505681 -2.400112
vn -1.638967 0.3505681 -2.400112
vn -1.638983 0.3505681 -2.400129
vn -1.230707 -0.05769044 -2.400111
vn -1.230707 -0.05769041 -2.400111
vn -1.230707 -0.05769044 -2.400111
vn -1.230707 -0.05768016 -2.4001
vn -1.808057 0.3505681 -2.808349
vn -1.808057 0.3505681 -2.808349
vn -1.808057 0.3505681 -2.808349
vn -1.808057 0.3505681 -2.808349
vn -1.230707 0.9279183 -2.808349
vn -1.230707 0.9279183 -2.808349
vn -1.230707 0.9279183 -2.808349
vn -1.230707 0.9279183 -2.808349
vn -1.230707 0.7588215 -2.400105
vn -1.230707 0.7588215 -2.400105
vn -1.230707 0.7588215 -2.400105
vn -1.230707 0.7588063 -2.40009
vn -1.230707 0.350568 -3.385699
vn -1.230707 0.350568 -3.385699
vn -1.230707 0.350568 -3.385699
vn -1.230707 0.350568 -3.385699
vn -1.230707 -0.2267821 -2.808349
vn -1.230707 -0.2267821 -2.808349
vn -1.230707 -0.2267821 -2.808349
vn -1.230707 -0.2267821 -2.808349
vn -0.6533566 0.3505681 -2.808349
vn -0.6533566 0.3505681 -2.808349
vn -0.6533566 0.3505681 -2.808349
vn -0.6533566 0.3505681 -2.808349
vn -0.8224488 0.3505681 -2.40011
vn -0.8224488 0.3505681 -2.40011
vn -0.8224488 0.3505681 -2.40011
vn -0.8224423 0.3505681 -2.400117
vn -1.230707 0.3505681 -2.230999
vn -1.230707 0.3505681 -2.230999
vn -1.230707 0.3505681 -2.230999
vn -1.230707 0.3505681 -2.230999
vn -1.230707 0.7588181 -2.400102
vn -1.230707 0.7588181 -2.400102
vn -1.230707 0.7588181 -2.400102
vn -1.230707 0.7588147 -2.400099
vn -1.638978 0.3505681 -2.400124
vn -1.638978 0.3505681 -2.400124
vn -1.638978 0.3505681 -2.400124
vn -1.638965 0.3505681 -2.40011
vn -1.230707 0.9279183 -2.808349
vn -1.230707 0.9279183 -2.808349
vn -1.230707 0.9279183 -2.808349
vn -1.230707 0.9279183 -2.808349
vn -0.6533566 0.3505681 -2.808349
vn -0.6533566 0.3505681 -2.808349
vn -0.6533566 0.3505681 -2.808349
vn -0.6533566 0.3505681 -2.808349
vn -1.230707 0.350568 -3.385699
vn -1.230707 0.350568 -3.385699
vn -1.230707 0.350568 -3.385699
vn -1.230707 0.350568 -3.385699
vn -1.808057 0.3505681 -2.808348
vn -1.808057 0.3505681 -2.808348
vn -1.808057 0.3505681 -2.808348
vn -1.808057 0.3505681 -2.808349
vn -1.230707 -0.2267821 -2.808349
vn -1.230707 -0.2267821 -2.808349
vn -1.230707 -0.2267821 -2.808349
vn -1.230707 -0.2267821 -2.808349
vn -1.230707 -0.05768016 -2.4001
vn -1.230707 -0.05768016 -2.4001
vn -1.230707 -0.05768016 -2.4001
vn -1.230707 -0.05767995 -2.4001
vn -1.230707 0.3505681 -2.230999
vn -1.230707 0.3505681 -2.230999
vn -1.230707 0.3505681 -2.230999
vn -1.230707 0.3505681 -2.230999
vn -1.230707 0.7588056 -2.40009
vn -1.230707 0.7588056 -2.40009
vn -1.230707 0.7588056 -2.40009
vn -1.230707 0.7588463 -2.400131
vn -1.638963 0.3505681 -2.400108
vn -1.638963 0.3505681 -2.400108
vn -1.638963 0.3505681 -2.400108
vn -1.638962 0.3505681 -2.400107
vn -1.230707 0.9279183 -2.808349
vn -1.230707 0.9279183 -2.808349
vn -1.230707 0.9279183 -2.808349
vn -1.230707 0.9279183 -2.808349
vn -0.6533566 0.3505681 -2.808349
vn -0.6533566 0.3505681 -2.808349
vn -0.6533566 0.3505681 -2.808349
vn -0.6533566 0.3505681 -2.808349
vn -1.230707 0.350568 -3.385699
vn -1.230707 0.350568 -3.385699
vn -1.230707 0.350568 -3.385699
vn -1.230707 0.350568 -3.385699
vn -1.808057 0.3505681 -2.808349
vn -1.808057 0.3505681 -2.808349
vn -1.808057 0.3505681 -2.808349
vn -1.808057 0.3505681 -2.808349
vn -1.230707 -0.2267821 -2.808349
vn -1.230707 -0.2267821 -2.808349
vn -1.230707 -0.2267821 -2.808349
vn -1.230707 -0.2267821 -2.808349
vn -1.230707 -0.05767494 -2.400095
vn -1.230707 -0.05767494 -2.400095
vn -1.230707 -0.05767497 -2.400095
vn -1.230707 -0.05770478 -2.400125
vn -1.230707 0.3505681 -2.230999
vn -1.230707 0.3505681 -2.230999
vn -1.230707 0.3505681 -2.230999
vn -1.230707 0.3505681 -2.230999
vn -1.230707 0.7588165 -2.400101
vn -1.230707 0.7588166 -2.400101
vn -1.230707 0.7588166 -2.400101
vn -1.230707 0.7588123 -2.400096
vn -1.638965 0.3505681 -2.40011
vn -1.638965 0.3505681 -2.40011
vn -1.638965 0.3505681 -2.40011
vn -1.638971 0.3505681 -2.400116
vn -1.230707 0.9279183 -2.808349
vn -1.230707 0.9279183 -2.808349
vn -1.230707 0.9279183 -2.808349
vn -1.230707 0.9279183 -2.808349
vn -0.6533566 0.3505681 -2.808349
vn -0.6533566 0.3505681 -2.808349
vn -0.6533566 0.3505681 -2.808349
vn -0.6533566 0.3505681 -2.808349
vn -1.230707 0.350568 -3.385699
vn -1.230707 0.350568 -3.385699
vn -1.230707 0.350568 -3.385699
vn -1.230707 0.350568 -3.385699
vn -1.808057 0.3505681 -2.808348
vn -1.808057 0.3505681 -2.808348
vn -1.808057 0.3505681 -2.808348
vn -1.808057 0.3505681 -2.808349
vn -1.230707 -0.2267821 -2.808349
vn -1.230707 -0.2267821 -2.808349
vn -1.230707 -0.2267821 -2.808349
vn -1.230707 -0.2267821 -2.808349
vn -1.230707 -0.05767509 -2.400095
vn -1.230707 -0.05767506 -2.400095
vn -1.230707 -0.05767509 -2.400095
vn -1.230707 -0.05767795 -2.400098
vn -1.230707 0.3505681 -2.230999
vn -1.230707 0.3505681 -2.230999
vn -1.230707 0.3505681 -2.230999
vn -1.230707 0.3505681 -2.230999
vn -1.230707 0.758804 -2.400088
vn -1.230707 0.758804 -2.400088
vn -1.230707 0.758804 -2.400088
vn -1.230707 0.758844 -2.400128
vn -1.638962 0.3505681 -2.400107
vn -1.638962 0.3505681 -2.400107
vn -1.638962 0.3505681 -2.400107
vn -1.638962 0.3505681 -2.400107
vn -1.230707 0.9279183 -2.808349
vn -1.230707 0.9279183 -2.808349
vn -1.230707 0.9279183 -2.808349
vn -1.230707 0.9279183 -2.808349
vn -0.6533566 0.3505681 -2.808349
vn -0.6533566 0.3505681 -2.808349
vn -0.6533566 0.3505681 -2.808349
vn -0.6533566 0.3505681 -2.808349
vn -1.230707 0.350568 -3.385699
vn -1.230707 0.350568 -3.385699
vn -1.230707 0.350568 -3.385699
vn -1.230707 0.350568 -3.385699
vn -1.808057 0.3505681 -2.808349
vn -1.808057 0.3505681 -2.808349
vn -1.808057 0.3505681 -2.808349
vn -1.808057 0.3505681 -2.808349
vn -1.230707 -0.2267821 -2.808349
vn -1.230707 -0.2267821 -2.808349
vn -1.230707 -0.2267821 -2.808349
vn -1.230707 -0.2267821 -2.808349
vn -1.230707 -0.05766976 -2.40009
vn -1.230707 -0.05766985 -2.40009
vn -1.230707 -0.05766976 -2.40009
vn -1.230707 -0.05770275 -2.400123
usemtl GreyFloor
f 3/3/3 2/2/2 1/1/1
f 6/6/6 5/5/5 4/4/4
f 9/9/9 8/8/8 7/7/7
f 12/12/12 11/11/11 10/10/10
f 15/15/15 14/14/14 13/13/13
f 18/18/18 17/17/17 16/16/16
f 21/21/21 20/20/20 19/19/19
f 24/24/24 23/23/23 22/22/22
f 27/27/27 26/26/26 25/25/25
f 30/30/30 29/29/29 28/28/28
f 33/33/33 32/32/32 31/31/31
f 34/34/34 33/33/33 31/31/31
f 37/37/37 36/36/36 35/35/35
f 36/36/36 38/38/38 35/35/35
f 41/41/41 40/40/40 39/39/39
f 42/42/42 41/41/41 39/39/39
f 45/45/45 44/44/44 43/43/43
f 44/44/44 46/46/46 43/43/43
f 49/49/49 48/48/48 47/47/47
f 50/50/50 49/49/49 47/47/47
f 53/53/53 52/52/52 51/51/51
f 54/54/54 53/53/53 51/51/51
f 57/57/57 56/56/56 55/55/55
f 56/56/56 58/58/58 55/55/55
f 61/61/61 60/60/60 59/59/59
f 60/60/60 62/62/62 59/59/59
f 65/65/65 64/64/64 63/63/63
f 66/66/66 65/65/65 63/63/63
f 69/69/69 68/68/68 67/67/67
f 70/70/70 69/69/69 67/67/67
f 73/73/73 72/72/72 71/71/71
f 72/72/72 74/74/74 71/71/71
f 77/77/77 76/76/76 75/75/75
f 78/78/78 77/77/77 75/75/75
f 81/81/81 80/80/80 79/79/79
f 80/80/80 82/82/82 79/79/79
f 85/85/85 84/84/84 83/83/83
f 84/84/84 86/86/86 83/83/83
f 89/89/89 88/88/88 87/87/87
f 90/90/90 89/89/89 87/87/87
f 93/93/93 92/92/92 91/91/91
f 92/92/92 94/94/94 91/91/91
f 97/97/97 96/96/96 95/95/95
f 96/96/96 98/98/98 95/95/95
f 101/101/101 100/100/100 99/99/99
f 102/102/102 101/101/101 99/99/99
f 105/105/105 104/104/104 103/103/103
f 106/106/106 105/105/105 103/103/103
f 109/109/109 108/108/108 107/107/107
f 110/110/110 109/109/109 107/107/107
f 113/113/113 112/112/112 111/111/111
f 112/112/112 114/114/114 111/111/111
f 117/117/117 116/116/116 115/115/115
f 118/118/118 117/117/117 115/115/115
f 121/121/121 120/120/120 119/119/119
f 120/120/120 122/122/122 119/119/119
f 125/125/125 124/124/124 123/123/123
f 124/124/124 126/126/126 123/123/123
f 129/129/129 128/128/128 127/127/127
f 130/130/130 129/129/129 127/127/127
f 133/133/133 132/132/132 131/131/131
f 132/132/132 134/134/134 131/131/131
f 137/137/137 136/136/136 135/135/135
f 136/136/136 138/138/138 135/135/135
f 141/141/141 140/140/140 139/139/139
f 142/142/142 141/141/141 139/139/139
f 145/145/145 144/144/144 143/143/143
f 146/146/146 145/145/145 143/143/143
f 149/149/149 148/148/148 147/147/147
f 150/150/150 149/149/149 147/147/147
f 153/153/153 152/152/152 151/151/151
f 152/152/152 154/154/154 151/151/151
f 157/157/157 156/156/156 155/155/155
f 158/158/158 157/157/157 155/155/155
f 161/161/161 160/160/160 159/159/159
f 160/160/160 162/162/162 159/159/159
f 165/165/165 164/164/164 163/163/163
f 164/164/164 166/166/166 163/163/163
f 169/169/169 168/168/168 167/167/167
f 170/170/170 169/169/169 167/167/167
f 173/173/173 172/172/172 171/171/171
f 172/172/172 174/174/174 171/171/171
f 177/177/177 176/176/176 175/175/175
f 176/176/176 178/178/178 175/175/175
f 181/181/181 180/180/180 179/179/179
f 182/182/182 181/181/181 179/179/179
f 185/185/185 184/184/184 183/183/183
f 186/186/186 185/185/185 183/183/183
f 189/189/189 188/188/188 187/187/187
f 190/190/190 189/189/189 187/187/187
f 193/193/193 192/192/192 191/191/191
f 192/192/192 194/194/194 191/191/191
f 197/197/197 196/196/196 195/195/195
f 198/198/198 197/197/197 195/195/195
f 201/201/201 200/200/200 199/199/199
f 200/200/200 202/202/202 199/199/199
f 205/205/205 204/204/204 203/203/203
f 204/204/204 206/206/206 203/203/203
f 209/209/209 208/208/208 207/207/207
f 208/208/208 210/210/210 207/207/207
f 213/213/213 212/212/212 211/211/211
f 212/212/212 214/214/214 211/211/211
f 217/217/217 216/216/216 215/215/215
f 218/218/218 217/217/217 215/215/215
f 221/221/221 220/220/220 219/219/219
f 222/222/222 221/221/221 219/219/219
f 225/225/225 224/224/224 223/223/223
f 226/226/226 225/225/225 223/223/223
f 229/229/229 228/228/228 227/227/227
f 228/228/228 230/230/230 227/227/227
f 233/233/233 232/232/232 231/231/231
f 234/234/234 233/233/233 231/231/231
f 237/237/237 236/236/236 235/235/235
f 236/236/236 238/238/238 235/235/235
f 241/241/241 240/240/240 239/239/239
f 240/240/240 242/242/242 239/239/239
f 245/245/245 244/244/244 243/243/243
f 244/244/244 246/246/246 243/243/243
f 249/249/249 248/248/248 247/247/247
f 248/248/248 250/250/250 247/247/247
f 253/253/253 252/252/252 251/251/251
f 254/254/254 253/253/253 251/251/251
f 257/257/257 256/256/256 255/255/255
f 258/258/258 257/257/257 255/255/255
f 261/261/261 260/260/260 259/259/259
f 262/262/262 261/261/261 259/259/259
f 265/265/265 264/264/264 263/263/263
f 264/264/264 266/266/266 263/263/263
f 269/269/269 268/268/268 267/267/267
f 270/270/270 269/269/269 267/267/267
f 273/273/273 272/272/272 271/271/271
f 272/272/272 274/274/274 271/271/271
f 277/277/277 276/276/276 275/275/275
f 276/276/276 278/278/278 275/275/275
f 281/281/281 280/280/280 279/279/279
f 280/280/280 282/282/282 279/279/279
f 285/285/285 284/284/284 283/283/283
f 284/284/284 286/286/286 283/283/283
f 289/289/289 288/288/288 287/287/287
f 290/290/290 289/289/289 287/287/287
f 293/293/293 292/292/292 291/291/291
f 294/294/294 293/293/293 291/291/291
f 297/297/297 296/296/296 295/295/295
f 298/298/298 297/297/297 295/295/295
f 301/301/301 300/300/300 299/299/299
f 300/300/300 302/302/302 299/299/299
f 305/305/305 304/304/304 303/303/303
f 306/306/306 305/305/305 303/303/303
f 309/309/309 308/308/308 307/307/307
f 308/308/308 310/310/310 307/307/307
f 313/313/313 312/312/312 311/311/311
f 312/312/312 314/314/314 311/311/311
f 317/317/317 316/316/316 315/315/315
f 316/316/316 318/318/318 315/315/315
f 321/321/321 320/320/320 319/319/319
f 320/320/320 322/322/322 319/319/319
f 325/325/325 324/324/324 323/323/323
f 326/326/326 325/325/325 323/323/323
f 329/329/329 328/328/328 327/327/327
f 330/330/330 329/329/329 327/327/327
g SideCabinet_e441ce79
v -0.51163 0.22092 -2.70867
v -0.50675 0.2258 -2.7038
v -0.50053 0.2258 -2.7038
v -0.51163 0.22092 -2.70867
v -0.50053 0.2258 -2.7038
v -0.49565 0.22092 -2.70867
v 1.39521 0.34235 -2.71454
v 1.39033 0.34722 -2.70966
v 1.39033 0.35737 -2.70966
v 1.39521 0.34235 -2.71454
v 1.39033 0.35737 -2.70966
v 1.39521 0.36225 -2.71454
v -0.16329 0.34235 -2.71454
v -0.16817 0.34722 -2.70966
v -0.16817 0.35737 -2.70966
v -0.16329 0.34235 -2.71454
v -0.16817 0.35737 -2.70966
v -0.16329 0.36225 -2.71454
v 1.39521 1.20841 -2.71454
v 1.39033 1.21328 -2.70966
v 1.39033 1.22344 -2.70966
v 1.39521 1.20841 -2.71454
v 1.39033 1.22344 -2.70966
v 1.39521 1.22831 -2.71454
v -0.16329 1.20841 -2.71454
v -0.16817 1.21328 -2.70966
v -0.16817 1.22344 -2.70966
v -0.16329 1.20841 -2.71454
v -0.16817 1.22344 -2.70966
v -0.16329 1.22831 -2.71454
v -0.51163 1.2271 -3.46092
v -0.49565 1.2271 -3.46092
v -0.49565 1.2271 -2.70867
v -0.51163 1.2271 -2.70867
v -0.51163 0.22092 -3.46092
v -0.49565 1.2271 -3.46092
v -0.51163 1.2271 -3.46092
v -0.49565 0.22092 -3.46092
v -0.51163 0.22092 -2.70867
v -0.51163 0.22092 -3.46092
v -0.51163 1.2271 -3.46092
v -0.51163 1.2271 -2.70867
v -0.51163 0.22092 -2.70867
v -0.49565 0.22092 -3.46092
v -0.51163 0.22092 -3.46092
v -0.49565 0.22092 -2.70867
v -0.49565 0.22092 -2.70867
v -0.49565 1.2271 -2.70867
v -0.49565 1.2271 -3.46092
v -0.49565 0.22092 -3.46092
v -0.50675 0.2258 -2.7038
v -0.51163 0.22092 -2.70867
v -0.51163 1.2271 -2.70867
v -0.50675 1.22222 -2.7038
v -0.49565 1.2271 -2.70867
v -0.50675 1.22222 -2.7038
v -0.51163 1.2271 -2.70867
v -0.50053 1.22222 -2.7038
v -0.49565 0.22092 -2.70867
v -0.50053 1.22222 -2.7038
v -0.49565 1.2271 -2.70867
v -0.50053 0.2258 -2.7038
v -0.50675 1.22222 -2.7038
v -0.50053 1.22222 -2.7038
v -0.50053 0.2258 -2.7038
v -0.50675 0.2258 -2.7038
v -0.16442 1.22222 -2.7038
v -0.1582 1.22222 -2.7038
v -0.1582 0.2258 -2.7038
v -0.16442 0.2258 -2.7038
v -0.16442 0.2258 -2.7038
v -0.16929 1.2271 -2.70867
v -0.16442 1.22222 -2.7038
v -0.16929 0.22092 -2.70867
v -0.16929 0.22092 -2.70867
v -0.16442 0.2258 -2.7038
v -0.1582 0.2258 -2.7038
v -0.15332 0.22092 -2.70867
v -0.16929 0.22092 -2.70867
v -0.16929 1.2271 -3.46092
v -0.16929 1.2271 -2.70867
v -0.16929 0.22092 -3.46092
v -0.16929 1.2271 -3.46092
v -0.15332 1.2271 -2.70867
v -0.16929 1.2271 -2.70867
v -0.15332 1.2271 -3.46092
v -0.15332 1.2271 -2.70867
v -0.1582 1.22222 -2.7038
v -0.16442 1.22222 -2.7038
v -0.16929 1.2271 -2.70867
v -0.16929 0.22092 -3.46092
v -0.15332 1.2271 -3.46092
v -0.16929 1.2271 -3.46092
v -0.15332 0.22092 -3.46092
v -0.16929 0.22092 -2.70867
v -0.15332 0.22092 -3.46092
v -0.16929 0.22092 -3.46092
v -0.15332 0.22092 -2.70867
v -0.15332 0.22092 -2.70867
v -0.15332 1.2271 -2.70867
v -0.15332 1.2271 -3.46092
v -0.15332 0.22092 -3.46092
v -0.15332 0.22092 -2.70867
v -0.1582 0.2258 -2.7038
v -0.1582 1.22222 -2.7038
v -0.15332 1.2271 -2.70867
v 1.39342 1.22222 -2.7038
v 1.39964 1.22222 -2.7038
v 1.39964 0.2258 -2.7038
v 1.39342 0.2258 -2.7038
v 1.39342 0.2258 -2.7038
v 1.38854 1.2271 -2.70867
v 1.39342 1.22222 -2.7038
v 1.38854 0.22092 -2.70867
v 1.38854 0.22092 -2.70867
v 1.39342 0.2258 -2.7038
v 1.39964 0.2258 -2.7038
v 1.40451 0.22092 -2.70867
v 1.38854 0.22092 -2.70867
v 1.38854 1.2271 -3.46092
v 1.38854 1.2271 -2.70867
v 1.38854 0.22092 -3.46092
v 1.38854 1.2271 -3.46092
v 1.40451 1.2271 -2.70867
v 1.38854 1.2271 -2.70867
v 1.40451 1.2271 -3.46092
v 1.40451 1.2271 -2.70867
v 1.39964 1.22222 -2.7038
v 1.39342 1.22222 -2.7038
v 1.38854 1.2271 -2.70867
v 1.38854 0.22092 -3.46092
v 1.40451 1.2271 -3.46092
v 1.38854 1.2271 -3.46092
v 1.40451 0.22092 -3.46092
v 1.38854 0.22092 -2.70867
v 1.40451 0.22092 -3.46092
v 1.38854 0.22092 -3.46092
v 1.40451 0.22092 -2.70867
v 1.40451 0.22092 -2.70867
v 1.40451 1.2271 -2.70867
v 1.40451 1.2271 -3.46092
v 1.40451 0.22092 -3.46092
v 1.40451 0.22092 -2.70867
v 1.39964 0.2258 -2.7038
v 1.39964 1.22222 -2.7038
v 1.40451 1.2271 -2.70867
v 1.05108 1.22222 -2.7038
v 1.0573 1.22222 -2.7038
v 1.0573 0.2258 -2.7038
v 1.05108 0.2258 -2.7038
v 1.05108 0.2258 -2.7038
v 1.0462 1.2271 -2.70867
v 1.05108 1.22222 -2.7038
v 1.0462 0.22092 -2.70867
v 1.0462 0.22092 -2.70867
v 1.05108 0.2258 -2.7038
v 1.0573 0.2258 -2.7038
v 1.06218 0.22092 -2.70867
v 1.0462 0.22092 -2.70867
v 1.0462 1.2271 -3.46092
v 1.0462 1.2271 -2.70867
v 1.0462 0.22092 -3.46092
v 1.0462 1.2271 -3.46092
v 1.06218 1.2271 -2.70867
v 1.0462 1.2271 -2.70867
v 1.06218 1.2271 -3.46092
v 1.06218 1.2271 -2.70867
v 1.0573 1.22222 -2.7038
v 1.05108 1.22222 -2.7038
v 1.0462 1.2271 -2.70867
v 1.0462 0.22092 -3.46092
v 1.06218 1.2271 -3.46092
v 1.0462 1.2271 -3.46092
v 1.06218 0.22092 -3.46092
v 1.0462 0.22092 -2.70867
v 1.06218 0.22092 -3.46092
v 1.0462 0.22092 -3.46092
v 1.06218 0.22092 -2.70867
v 1.06218 0.22092 -2.70867
v 1.06218 1.2271 -2.70867
v 1.06218 1.2271 -3.46092
v 1.06218 0.22092 -3.46092
v 1.06218 0.22092 -2.70867
v 1.0573 0.2258 -2.7038
v 1.0573 1.22222 -2.7038
v 1.06218 1.2271 -2.70867
v 1.39033 0.35737 -2.70966
v 1.39033 0.34722 -2.70966
v 1.06204 0.34722 -2.70966
v 1.06204 0.35737 -2.70966
v 1.06204 0.35737 -2.70966
v 1.39521 0.36225 -2.71454
v 1.39033 0.35737 -2.70966
v 1.05716 0.36225 -2.71454
v 1.05716 0.36225 -2.71454
v 1.06204 0.35737 -2.70966
v 1.06204 0.34722 -2.70966
v 1.05716 0.34235 -2.71454
v 1.05716 0.36225 -2.71454
v 1.39521 0.36225 -3.45505
v 1.39521 0.36225 -2.71454
v 1.05716 0.36225 -3.45505
v 1.39521 0.36225 -3.45505
v 1.39521 0.34235 -2.71454
v 1.39521 0.36225 -2.71454
v 1.39521 0.34235 -3.45505
v 1.05716 0.36225 -3.45505
v 1.39521 0.34235 -3.45505
v 1.39521 0.36225 -3.45505
v 1.05716 0.34235 -3.45505
v 1.05716 0.36225 -2.71454
v 1.05716 0.34235 -3.45505
v 1.05716 0.36225 -3.45505
v 1.05716 0.34235 -2.71454
v 1.05716 0.34235 -2.71454
v 1.39521 0.34235 -2.71454
v 1.39521 0.34235 -3.45505
v 1.05716 0.34235 -3.45505
v 1.05716 0.34235 -2.71454
v 1.06204 0.34722 -2.70966
v 1.39033 0.34722 -2.70966
v 1.39521 0.34235 -2.71454
v -0.16817 0.35737 -2.70966
v -0.16817 0.34722 -2.70966
v -0.49647 0.34722 -2.70966
v -0.49647 0.35737 -2.70966
v -0.49647 0.35737 -2.70966
v -0.16329 0.36225 -2.71454
v -0.16817 0.35737 -2.70966
v -0.50134 0.36225 -2.71454
v -0.50134 0.36225 -2.71454
v -0.49647 0.35737 -2.70966
v -0.49647 0.34722 -2.70966
v -0.50134 0.34235 -2.71454
v -0.50134 0.36225 -2.71454
v -0.16329 0.36225 -3.45505
v -0.16329 0.36225 -2.71454
v -0.50134 0.36225 -3.45505
v -0.16329 0.36225 -3.45505
v -0.16329 0.34235 -2.71454
v -0.16329 0.36225 -2.71454
v -0.16329 0.34235 -3.45505
v -0.50134 0.36225 -3.45505
v -0.16329 0.34235 -3.45505
v -0.16329 0.36225 -3.45505
v -0.50134 0.34235 -3.45505
v -0.50134 0.36225 -2.71454
v -0.50134 0.34235 -3.45505
v -0.50134 0.36225 -3.45505
v -0.50134 0.34235 -2.71454
v -0.50134 0.34235 -2.71454
v -0.16329 0.34235 -2.71454
v -0.16329 0.34235 -3.45505
v -0.50134 0.34235 -3.45505
v -0.50134 0.34235 -2.71454
v -0.49647 0.34722 -2.70966
v -0.16817 0.34722 -2.70966
v -0.16329 0.34235 -2.71454
v 1.39033 1.22344 -2.70966
v 1.39033 1.21328 -2.70966
v 1.06204 1.21328 -2.70966
v 1.06204 1.22344 -2.70966
v 1.06204 1.22344 -2.70966
v 1.39521 1.22831 -2.71454
v 1.39033 1.22344 -2.70966
v 1.05716 1.22831 -2.71454
v 1.05716 1.22831 -2.71454
v 1.06204 1.22344 -2.70966
v 1.06204 1.21328 -2.70966
v 1.05716 1.20841 -2.71454
v 1.05716 1.22831 -2.71454
v 1.39521 1.22831 -3.45505
v 1.39521 1.22831 -2.71454
v 1.05716 1.22831 -3.45505
v 1.39521 1.22831 -3.45505
v 1.39521 1.20841 -2.71454
v 1.39521 1.22831 -2.71454
v 1.39521 1.20841 -3.45505
v 1.05716 1.22831 -3.45505
v 1.39521 1.20841 -3.45505
v 1.39521 1.22831 -3.45505
v 1.05716 1.20841 -3.45505
v 1.05716 1.22831 -2.71454
v 1.05716 1.20841 -3.45505
v 1.05716 1.22831 -3.45505
v 1.05716 1.20841 -2.71454
v 1.05716 1.20841 -2.71454
v 1.39521 1.20841 -2.71454
v 1.39521 1.20841 -3.45505
v 1.05716 1.20841 -3.45505
v 1.05716 1.20841 -2.71454
v 1.06204 1.21328 -2.70966
v 1.39033 1.21328 -2.70966
v 1.39521 1.20841 -2.71454
v -0.16817 1.22344 -2.70966
v -0.16817 1.21328 -2.70966
v -0.49647 1.21328 -2.70966
v -0.49647 1.22344 -2.70966
v -0.49647 1.22344 -2.70966
v -0.16329 1.22831 -2.71454
v -0.16817 1.22344 -2.70966
v -0.50134 1.22831 -2.71454
v -0.50134 1.22831 -2.71454
v -0.49647 1.22344 -2.70966
v -0.49647 1.21328 -2.70966
v -0.50134 1.20841 -2.71454
v -0.50134 1.22831 -2.71454
v -0.16329 1.22831 -3.45505
v -0.16329 1.22831 -2.71454
v -0.50134 1.22831 -3.45505
v -0.16329 1.22831 -3.45505
v -0.16329 1.20841 -2.71454
v -0.16329 1.22831 -2.71454
v -0.16329 1.20841 -3.45505
v -0.50134 1.22831 -3.45505
v -0.16329 1.20841 -3.45505
v -0.16329 1.22831 -3.45505
v -0.50134 1.20841 -3.45505
v -0.50134 1.22831 -2.71454
v -0.50134 1.20841 -3.45505
v -0.50134 1.22831 -3.45505
v -0.50134 1.20841 -2.71454
v -0.50134 1.20841 -2.71454
v -0.16329 1.20841 -2.71454
v -0.16329 1.20841 -3.45505
v -0.50134 1.20841 -3.45505
v -0.50134 1.20841 -2.71454
v -0.49647 1.21328 -2.70966
v -0.16817 1.21328 -2.70966
v -0.16329 1.20841 -2.71454
vn -1.230707 -0.05769044 -2.400111
vn -1.230707 -0.05769041 -2.400111
vn -1.230707 -0.05769041 -2.400111
vn -1.230707 -0.05768913 -2.400109
vn -1.230707 -0.05768913 -2.400109
vn -1.230707 -0.05768919 -2.400109
vn -0.8224838 0.3505681 -2.400075
vn -0.8224838 0.3505681 -2.400075
vn -0.8224838 0.3505681 -2.400075
vn -0.8224748 0.3505681 -2.400084
vn -0.8224749 0.3505681 -2.400084
vn -0.8224749 0.3505681 -2.400084
vn -0.8224421 0.3505681 -2.400117
vn -0.8224421 0.3505681 -2.400117
vn -0.8224421 0.3505681 -2.400117
vn -0.8224452 0.3505681 -2.400114
vn -0.8224452 0.3505681 -2.400114
vn -0.8224452 0.3505681 -2.400114
vn -0.8224807 0.3505681 -2.400078
vn -0.8224807 0.3505681 -2.400078
vn -0.8224806 0.3505681 -2.400079
vn -0.8224859 0.3505681 -2.400073
vn -0.8224859 0.3505681 -2.400073
vn -0.8224859 0.3505681 -2.400073
vn -0.8224437 0.3505681 -2.400115
vn -0.8224437 0.3505681 -2.400115
vn -0.8224437 0.3505681 -2.400115
vn -0.8224418 0.3505681 -2.400117
vn -0.8224418 0.3505681 -2.400117
vn -0.8224418 0.3505681 -2.400117
vn -1.230707 0.9279183 -2.808349
vn -1.230707 0.9279183 -2.808349
vn -1.230707 0.9279183 -2.808349
vn -1.230707 0.9279183 -2.808349
vn -1.230707 0.350568 -3.385699
vn -1.230707 0.350568 -3.385699
vn -1.230707 0.350568 -3.385699
vn -1.230707 0.350568 -3.385699
vn -1.808057 0.3505681 -2.808349
vn -1.808057 0.3505681 -2.808349
vn -1.808057 0.3505681 -2.808349
vn -1.808057 0.3505681 -2.808349
vn -1.230707 -0.2267821 -2.808349
vn -1.230707 -0.2267821 -2.808349
vn -1.230707 -0.2267821 -2.808349
vn -1.230707 -0.2267821 -2.808349
vn -0.6533566 0.3505681 -2.808349
vn -0.6533566 0.3505681 -2.808349
vn -0.6533566 0.3505681 -2.808349
vn -0.6533566 0.3505681 -2.808349
vn -1.63896 0.3505681 -2.400105
vn -1.63896 0.3505681 -2.400105
vn -1.63896 0.3505681 -2.400105
vn -1.638963 0.3505681 -2.400108
vn -1.230707 0.7588134 -2.400097
vn -1.230707 0.7588133 -2.400097
vn -1.230707 0.7588133 -2.400097
vn -1.230707 0.7588164 -2.4001
vn -0.8224585 0.3505681 -2.4001
vn -0.8224586 0.3505681 -2.4001
vn -0.8224586 0.3505681 -2.4001
vn -0.8224574 0.3505681 -2.400102
vn -1.230707 0.3505681 -2.230999
vn -1.230707 0.3505681 -2.230999
vn -1.230707 0.3505681 -2.230999
vn -1.230707 0.3505681 -2.230999
vn -1.230707 0.3505681 -2.230999
vn -1.230707 0.3505681 -2.230999
vn -1.230707 0.3505681 -2.230999
vn -1.230707 0.3505681 -2.230999
vn -1.638971 0.3505681 -2.400116
vn -1.638971 0.3505681 -2.400116
vn -1.638971 0.3505681 -2.400116
vn -1.638971 0.3505681 -2.400116
vn -1.230707 -0.05768785 -2.400108
vn -1.230707 -0.05768785 -2.400108
vn -1.230707 -0.05768785 -2.400108
vn -1.230707 -0.0576759 -2.400096
vn -1.808057 0.3505681 -2.808349
vn -1.808057 0.3505681 -2.808349
vn -1.808057 0.3505681 -2.808349
vn -1.808057 0.3505681 -2.808349
vn -1.230707 0.9279183 -2.808349
vn -1.230707 0.9279183 -2.808349
vn -1.230707 0.9279183 -2.808349
vn -1.230707 0.9279183 -2.808349
vn -1.230707 0.7587984 -2.400083
vn -1.230707 0.7587984 -2.400083
vn -1.230707 0.7587984 -2.400082
vn -1.230707 0.7588149 -2.400099
vn -1.230707 0.350568 -3.385699
vn -1.230707 0.350568 -3.385699
vn -1.230707 0.350568 -3.385699
vn -1.230707 0.350568 -3.385699
vn -1.230707 -0.2267821 -2.808349
vn -1.230707 -0.2267821 -2.808349
vn -1.230707 -0.2267821 -2.808349
vn -1.230707 -0.2267821 -2.808349
vn -0.6533566 0.3505681 -2.808349
vn -0.6533566 0.3505681 -2.808349
vn -0.6533566 0.3505681 -2.808349
vn -0.6533566 0.3505681 -2.808349
vn -0.8224474 0.3505681 -2.400112
vn -0.8224473 0.3505681 -2.400112
vn -0.8224474 0.3505681 -2.400112
vn -0.8224474 0.3505681 -2.400112
vn -1.230707 0.3505681 -2.230999
vn -1.230707 0.3505681 -2.230999
vn -1.230707 0.3505681 -2.230999
vn -1.230707 0.3505681 -2.230999
vn -1.638967 0.3505681 -2.400112
vn -1.638967 0.3505681 -2.400112
vn -1.638967 0.3505681 -2.400112
vn -1.638974 0.3505681 -2.40012
vn -1.230707 -0.05769041 -2.400111
vn -1.230707 -0.05769041 -2.400111
vn -1.230707 -0.05769041 -2.400111
vn -1.230707 -0.05769613 -2.400116
vn -1.808057 0.3505681 -2.808349
vn -1.808057 0.3505681 -2.808349
vn -1.808057 0.3505681 -2.808349
vn -1.808057 0.3505681 -2.808349
vn -1.230707 0.9279183 -2.808349
vn -1.230707 0.9279183 -2.808349
vn -1.230707 0.9279183 -2.808349
vn -1.230707 0.9279183 -2.808349
vn -1.230707 0.7588164 -2.4001
vn -1.230707 0.7588164 -2.4001
vn -1.230707 0.7588164 -2.4001
vn -1.230707 0.7588284 -2.400112
vn -1.230707 0.350568 -3.385699
vn -1.230707 0.350568 -3.385699
vn -1.230707 0.350568 -3.385699
vn -1.230707 0.350568 -3.385699
vn -1.230707 -0.2267821 -2.808349
vn -1.230707 -0.2267821 -2.808349
vn -1.230707 -0.2267821 -2.808349
vn -1.230707 -0.2267821 -2.808349
vn -0.6533566 0.3505681 -2.808349
vn -0.6533566 0.3505681 -2.808349
vn -0.6533566 0.3505681 -2.808349
vn -0.6533566 0.3505681 -2.808349
vn -0.8224479 0.3505681 -2.400111
vn -0.8224479 0.3505681 -2.400111
vn -0.8224479 0.3505681 -2.400111
vn -0.8224423 0.3505681 -2.400117
vn -1.230707 0.3505681 -2.230999
vn -1.230707 0.3505681 -2.230999
vn -1.230707 0.3505681 -2.230999
vn -1.230707 0.3505681 -2.230999
vn -1.638967 0.3505681 -2.400112
vn -1.638967 0.3505681 -2.400112
vn -1.638967 0.3505681 -2.400112
vn -1.638983 0.3505681 -2.400129
vn -1.230707 -0.05769044 -2.400111
vn -1.230707 -0.05769041 -2.400111
vn -1.230707 -0.05769044 -2.400111
vn -1.230707 -0.05768016 -2.4001
vn -1.808057 0.3505681 -2.808349
vn -1.808057 0.3505681 -2.808349
vn -1.808057 0.3505681 -2.808349
vn -1.808057 0.3505681 -2.808349
vn -1.230707 0.9279183 -2.808349
vn -1.230707 0.9279183 -2.808349
vn -1.230707 0.9279183 -2.808349
vn -1.230707 0.9279183 -2.808349
vn -1.230707 0.7588215 -2.400105
vn -1.230707 0.7588215 -2.400105
vn -1.230707 0.7588215 -2.400105
vn -1.230707 0.7588063 -2.40009
vn -1.230707 0.350568 -3.385699
vn -1.230707 0.350568 -3.385699
vn -1.230707 0.350568 -3.385699
vn -1.230707 0.350568 -3.385699
vn -1.230707 -0.2267821 -2.808349
vn -1.230707 -0.2267821 -2.808349
vn -1.230707 -0.2267821 -2.808349
vn -1.230707 -0.2267821 -2.808349
vn -0.6533566 0.3505681 -2.808349
vn -0.6533566 0.3505681 -2.808349
vn -0.6533566 0.3505681 -2.808349
vn -0.6533566 0.3505681 -2.808349
vn -0.8224488 0.3505681 -2.40011
vn -0.8224488 0.3505681 -2.40011
vn -0.8224488 0.3505681 -2.40011
vn -0.8224423 0.3505681 -2.400117
vn -1.230707 0.3505681 -2.230999
vn -1.230707 0.3505681 -2.230999
vn -1.230707 0.3505681 -2.230999
vn -1.230707 0.3505681 -2.230999
vn -1.230707 0.7588181 -2.400102
vn -1.230707 0.7588181 -2.400102
vn -1.230707 0.7588181 -2.400102
vn -1.230707 0.7588147 -2.400099
vn -1.638978 0.3505681 -2.400124
vn -1.638978 0.3505681 -2.400124
vn -1.638978 0.3505681 -2.400124
vn -1.638965 0.3505681 -2.40011
vn -1.230707 0.9279183 -2.808349
vn -1.230707 0.9279183 -2.808349
vn -1.230707 0.9279183 -2.808349
vn -1.230707 0.9279183 -2.808349
vn -0.6533566 0.3505681 -2.808349
vn -0.6533566 0.3505681 -2.808349
vn -0.6533566 0.3505681 -2.808349
vn -0.6533566 0.3505681 -2.808349
vn -1.230707 0.350568 -3.385699
vn -1.230707 0.350568 -3.385699
vn -1.230707 0.350568 -3.385699
vn -1.230707 0.350568 -3.385699
vn -1.808057 0.3505681 -2.808348
vn -1.808057 0.3505681 -2.808348
vn -1.808057 0.3505681 -2.808348
vn -1.808057 0.3505681 -2.808349
vn -1.230707 -0.2267821 -2.808349
vn -1.230707 -0.2267821 -2.808349
vn -1.230707 -0.2267821 -2.808349
vn -1.230707 -0.2267821 -2.808349
vn -1.230707 -0.05768016 -2.4001
vn -1.230707 -0.05768016 -2.4001
vn -1.230707 -0.05768016 -2.4001
vn -1.230707 -0.05767995 -2.4001
vn -1.230707 0.3505681 -2.230999
vn -1.230707 0.3505681 -2.230999
vn -1.230707 0.3505681 -2.230999
vn -1.230707 0.3505681 -2.230999
vn -1.230707 0.7588056 -2.40009
vn -1.230707 0.7588056 -2.40009
vn -1.230707 0.7588056 -2.40009
vn -1.230707 0.7588463 -2.400131
vn -1.638963 0.3505681 -2.400108
vn -1.638963 0.3505681 -2.400108
vn -1.638963 0.3505681 -2.400108
vn -1.638962 0.3505681 -2.400107
vn -1.230707 0.9279183 -2.808349
vn -1.230707 0.9279183 -2.808349
vn -1.230707 0.9279183 -2.808349
vn -1.230707 0.9279183 -2.808349
vn -0.6533566 0.3505681 -2.808349
vn -0.6533566 0.3505681 -2.808349
vn -0.6533566 0.3505681 -2.808349
vn -0.6533566 0.3505681 -2.808349
vn -1.230707 0.350568 -3.385699
vn -1.230707 0.350568 -3.385699
vn -1.230707 0.350568 -3.385699
vn -1.230707 0.350568 -3.385699
vn -1.808057 0.3505681 -2.808349
vn -1.808057 0.3505681 -2.808349
vn -1.808057 0.3505681 -2.808349
vn -1.808057 0.3505681 -2.808349
vn -1.230707 -0.2267821 -2.808349
vn -1.230707 -0.2267821 -2.808349
vn -1.230707 -0.2267821 -2.808349
vn -1.230707 -0.2267821 -2.808349
vn -1.230707 -0.05767494 -2.400095
vn -1.230707 -0.05767494 -2.400095
vn -1.230707 -0.05767497 -2.400095
vn -1.230707 -0.05770478 -2.400125
vn -1.230707 0.3505681 -2.230999
vn -1.230707 0.3505681 -2.230999
vn -1.230707 0.3505681 -2.230999
vn -1.230707 0.3505681 -2.230999
vn -1.230707 0.7588165 -2.400101
vn -1.230707 0.7588166 -2.400101
vn -1.230707 0.7588166 -2.400101
vn -1.230707 0.7588123 -2.400096
vn -1.638965 0.3505681 -2.40011
vn -1.638965 0.3505681 -2.40011
vn -1.638965 0.3505681 -2.40011
vn -1.638971 0.3505681 -2.400116
vn -1.230707 0.9279183 -2.808349
vn -1.230707 0.9279183 -2.808349
vn -1.230707 0.9279183 -2.808349
vn -1.230707 0.9279183 -2.808349
vn -0.6533566 0.3505681 -2.808349
vn -0.6533566 0.3505681 -2.808349
vn -0.6533566 0.3505681 -2.808349
vn -0.6533566 0.3505681 -2.808349
vn -1.230707 0.350568 -3.385699
vn -1.230707 0.350568 -3.385699
vn -1.230707 0.350568 -3.385699
vn -1.230707 0.350568 -3.385699
vn -1.808057 0.3505681 -2.808348
vn -1.808057 0.3505681 -2.808348
vn -1.808057 0.3505681 -2.808348
vn -1.808057 0.3505681 -2.808349
vn -1.230707 -0.2267821 -2.808349
vn -1.230707 -0.2267821 -2.808349
vn -1.230707 -0.2267821 -2.808349
vn -1.230707 -0.2267821 -2.808349
vn -1.230707 -0.05767509 -2.400095
vn -1.230707 -0.05767506 -2.400095
vn -1.230707 -0.05767509 -2.400095
vn -1.230707 -0.05767795 -2.400098
vn -1.230707 0.3505681 -2.230999
vn -1.230707 0.3505681 -2.230999
vn -1.230707 0.3505681 -2.230999
vn -1.230707 0.3505681 -2.230999
vn -1.230707 0.758804 -2.400088
vn -1.230707 0.758804 -2.400088
vn -1.230707 0.758804 -2.400088
vn -1.230707 0.758844 -2.400128
vn -1.638962 0.3505681 -2.400107
vn -1.638962 0.3505681 -2.400107
vn -1.638962 0.3505681 -2.400107
vn -1.638962 0.3505681 -2.400107
vn -1.230707 0.9279183 -2.808349
vn -1.230707 0.9279183 -2.808349
vn -1.230707 0.9279183 -2.808349
vn -1.230707 0.9279183 -2.808349
vn -0.6533566 0.3505681 -2.808349
vn -0.6533566 0.3505681 -2.808349
vn -0.6533566 0.3505681 -2.808349
vn -0.6533566 0.3505681 -2.808349
vn -1.230707 0.350568 -3.385699
vn -1.230707 0.350568 -3.385699
vn -1.230707 0.350568 -3.385699
vn -1.230707 0.350568 -3.385699
vn -1.808057 0.3505681 -2.808349
vn -1.808057 0.3505681 -2.808349
vn -1.808057 0.3505681 -2.808349
vn -1.808057 0.3505681 -2.808349
vn -1.230707 -0.2267821 -2.808349
vn -1.230707 -0.2267821 -2.808349
vn -1.230707 -0.2267821 -2.808349
vn -1.230707 -0.2267821 -2.808349
vn -1.230707 -0.05766976 -2.40009
vn -1.230707 -0.05766985 -2.40009
vn -1.230707 -0.05766976 -2.40009
vn -1.230707 -0.05770275 -2.400123
usemtl GreyFloor
f 333/333/333 332/332/332 331/331/331
f 336/336/336 335/335/335 334/334/334
f 339/339/339 338/338/338 337/337/337
f 342/342/342 341/341/341 340/340/340
f 345/345/345 344/344/344 343/343/343
f 348/348/348 347/347/347 346/346/346
f 351/351/351 350/350/350 349/349/349
f 354/354/354 353/353/353 352/352/352
f 357/357/357 356/356/356 355/355/355
f 360/360/360 359/359/359 358/358/358
f 363/363/363 362/362/362 361/361/361
f 364/364/364 363/363/363 361/361/361
f 367/367/367 366/366/366 365/365/365
f 366/366/366 368/368/368 365/365/365
f 371/371/371 370/370/370 369/369/369
f 372/372/372 371/371/371 369/369/369
f 375/375/375 374/374/374 373/373/373
f 374/374/374 376/376/376 373/373/373
f 379/379/379 378/378/378 377/377/377
f 380/380/380 379/379/379 377/377/377
f 383/383/383 382/382/382 381/381/381
f 384/384/384 383/383/383 381/381/381
f 387/387/387 386/386/386 385/385/385
f 386/386/386 388/388/388 385/385/385
f 391/391/391 390/390/390 389/389/389
f 390/390/390 392/392/392 389/389/389
f 395/395/395 394/394/394 393/393/393
f 396/396/396 395/395/395 393/393/393
f 399/399/399 398/398/398 397/397/397
f 400/400/400 399/399/399 397/397/397
f 403/403/403 402/402/402 401/401/401
f 402/402/402 404/404/404 401/401/401
f 407/407/407 406/406/406 405/405/405
f 408/408/408 407/407/407 405/405/405
f 411/411/411 410/410/410 409/409/409
f 410/410/410 412/412/412 409/409/409
f 415/415/415 414/414/414 413/413/413
f 414/414/414 416/416/416 413/413/413
f 419/419/419 418/418/418 417/417/417
f 420/420/420 419/419/419 417/417/417
f 423/423/423 422/422/422 421/421/421
f 422/422/422 424/424/424 421/421/421
f 427/427/427 426/426/426 425/425/425
f 426/426/426 428/428/428 425/425/425
f 431/431/431 430/430/430 429/429/429
f 432/432/432 431/431/431 429/429/429
f 435/435/435 434/434/434 433/433/433
f 436/436/436 435/435/435 433/433/433
f 439/439/439 438/438/438 437/437/437
f 440/440/440 439/439/439 437/437/437
f 443/443/443 442/442/442 441/441/441
f 442/442/442 444/444/444 441/441/441
f 447/447/447 446/446/446 445/445/445
f 448/448/448 447/447/447 445/445/445
f 451/451/451 450/450/450 449/449/449
f 450/450/450 452/452/452 449/449/449
f 455/455/455 454/454/454 453/453/453
f 454/454/454 456/456/456 453/453/453
f 459/459/459 458/458/458 457/457/457
f 460/460/460 459/459/459 457/457/457
f 463/463/463 462/462/462 461/461/461
f 462/462/462 464/464/464 461/461/461
f 467/467/467 466/466/466 465/465/465
f 466/466/466 468/468/468 465/465/465
f 471/471/471 470/470/470 469/469/469
f 472/472/472 471/471/471 469/469/469
f 475/475/475 474/474/474 473/473/473
f 476/476/476 475/475/475 473/473/473
f 479/479/479 478/478/478 477/477/477
f 480/480/480 479/479/479 477/477/477
f 483/483/483 482/482/482 481/481/481
f 482/482/482 484/484/484 481/481/481
f 487/487/487 486/486/486 485/485/485
f 488/488/488 487/487/487 485/485/485
f 491/491/491 490/490/490 489/489/489
f 490/490/490 492/492/492 489/489/489
f 495/495/495 494/494/494 493/493/493
f 494/494/494 496/496/496 493/493/493
f 499/499/499 498/498/498 497/497/497
f 500/500/500 499/499/499 497/497/497
f 503/503/503 502/502/502 501/501/501
f 502/502/502 504/504/504 501/501/501
f 507/507/507 506/506/506 505/505/505
f 506/506/506 508/508/508 505/505/505
f 511/511/511 510/510/510 509/509/509
f 512/512/512 511/511/511 509/509/509
f 515/515/515 514/514/514 513/513/513
f 516/516/516 515/515/515 513/513/513
f 519/519/519 518/518/518 517/517/517
f 520/520/520 519/519/519 517/517/517
f 523/523/523 522/522/522 521/521/521
f 522/522/522 524/524/524 521/521/521
f 527/527/527 526/526/526 525/525/525
f 528/528/528 527/527/527 525/525/525
f 531/531/531 530/530/530 529/529/529
f 530/530/530 532/532/532 529/529/529
f 535/535/535 534/534/534 533/533/533
f 534/534/534 536/536/536 533/533/533
f 539/539/539 538/538/538 537/537/537
f 538/538/538 540/540/540 537/537/537
f 543/543/543 542/542/542 541/541/541
f 542/542/542 544/544/544 541/541/541
f 547/547/547 546/546/546 545/545/545
f 548/548/548 547/547/547 545/545/545
f 551/551/551 550/550/550 549/549/549
f 552/552/552 551/551/551 549/549/549
f 555/555/555 554/554/554 553/553/553
f 556/556/556 555/555/555 553/553/553
f 559/559/559 558/558/558 557/557/557
f 558/558/558 560/560/560 557/557/557
f 563/563/563 562/562/562 561/561/561
f 564/564/564 563/563/563 561/561/561
f 567/567/567 566/566/566 565/565/565
f 566/566/566 568/568/568 565/565/565
f 571/571/571 570/570/570 569/569/569
f 570/570/570 572/572/572 569/569/569
f 575/575/575 574/574/574 573/573/573
f 574/574/574 576/576/576 573/573/573
f 579/579/579 578/578/578 577/577/577
f 578/578/578 580/580/580 577/577/577
f 583/583/583 582/582/582 581/581/581
f 584/584/584 583/583/583 581/581/581
f 587/587/587 586/586/586 585/585/585
f 588/588/588 587/587/587 585/585/585
f 591/591/591 590/590/590 589/589/589
f 592/592/592 591/591/591 589/589/589
f 595/595/595 594/594/594 593/593/593
f 594/594/594 596/596/596 593/593/593
f 599/599/599 598/598/598 597/597/597
f 600/600/600 599/599/599 597/597/597
f 603/603/603 602/602/602 601/601/601
f 602/602/602 604/604/604 601/601/601
f 607/607/607 606/606/606 605/605/605
f 606/606/606 608/608/608 605/605/605
f 611/611/611 610/610/610 609/609/609
f 610/610/610 612/612/612 609/609/609
f 615/615/615 614/614/614 613/613/613
f 614/614/614 616/616/616 613/613/613
f 619/619/619 618/618/618 617/617/617
f 620/620/620 619/619/619 617/617/617
f 623/623/623 622/622/622 621/621/621
f 624/624/624 623/623/623 621/621/621
f 627/627/627 626/626/626 625/625/625
f 628/628/628 627/627/627 625/625/625
f 631/631/631 630/630/630 629/629/629
f 630/630/630 632/632/632 629/629/629
f 635/635/635 634/634/634 633/633/633
f 636/636/636 635/635/635 633/633/633
f 639/639/639 638/638/638 637/637/637
f 638/638/638 640/640/640 637/637/637
f 643/643/643 642/642/642 641/641/641
f 642/642/642 644/644/644 641/641/641
f 647/647/647 646/646/646 645/645/645
f 646/646/646 648/648/648 645/645/645
f 651/651/651 650/650/650 649/649/649
f 650/650/650 652/652/652 649/649/649
f 655/655/655 654/654/654 653/653/653
f 656/656/656 655/655/655 653/653/653
f 659/659/659 658/658/658 657/657/657
f 660/660/660 659/659/659 657/657/657
