mtllib Floor_700e8cef.mtl
g mesh_3b1a0fa2
v -2.2 -0.2 -2.59999
v -2.2 -0.2 1.20001
v 3 -0.2 1.20001
v 3 -0.2 -2.59999
v -2.2 0 -2.59999
v -2.2 -0.2 -2.59999
v 3 -0.2 -2.59999
v 3 0 -2.59999
v 3 0 -2.59999
v 3 -0.2 -2.59999
v 3 -0.2 1.20001
v 3 0 1.20001
v 3 0 1.20001
v 3 -0.2 1.20001
v -2.2 -0.2 1.20001
v -2.2 0 1.20001
v -2.2 0 1.20001
v -2.2 -0.2 1.20001
v -2.2 -0.2 -2.59999
v -2.2 0 -2.59999
v -2.2 0 -2.59999
v 3 0 -2.59999
v 3 0 1.20001
v -2.2 0 1.20001
vn 0 -0.5773503 0
vn 0 -0.5773503 0
vn 0 -0.5773503 0
vn 0 -0.5773503 0
vn 0 0 -0.5773503
vn 0 0 -0.5773503
vn 0 0 -0.5773503
vn 0 0 -0.5773503
vn 0.5773503 0 0
vn 0.5773503 0 0
vn 0.5773503 0 0
vn 0.5773503 0 0
vn 0 0 0.5773503
vn 0 0 0.5773503
vn 0 0 0.5773503
vn 0 0 0.5773503
vn -0.5773503 0 0
vn -0.5773503 0 0
vn -0.5773503 0 0
vn -0.5773503 0 0
vn 0 0.5773503 0
vn 0 0.5773503 0
vn 0 0.5773503 0
vn 0 0.5773503 0
vt -2.260607 -1.959259
vt -2.260607 1.77694
vt 3.028191 1.77694
vt 3.028191 -1.959259
vt 1.840959 1.516581
vt 1.840959 1.159724
vt -1.073375 1.159724
vt -1.073375 1.516581
vt 4.289392 -0.8625593
vt 4.289392 -1.22551
vt 2.195443 -1.22551
vt 2.195443 -0.8625593
vt 1.840957 1.993019
vt 1.840957 1.636161
vt -1.073373 1.636161
vt -1.073373 1.993019
vt 4.289392 -0.3861219
vt 4.289392 -0.7490728
vt 2.195444 -0.7490728
vt 2.195444 -0.3861219
vt 3.028191 1.375803
vt -2.260607 1.375803
vt -2.260607 5.112002
vt 3.028191 5.112002
usemtl CarpetWhite
f 3/3/3 2/2/2 1/1/1
f 4/4/4 3/3/3 1/1/1
f 7/7/7 6/6/6 5/5/5
f 8/8/8 7/7/7 5/5/5
f 11/11/11 10/10/10 9/9/9
f 12/12/12 11/11/11 9/9/9
f 15/15/15 14/14/14 13/13/13
f 16/16/16 15/15/15 13/13/13
f 19/19/19 18/18/18 17/17/17
f 20/20/20 19/19/19 17/17/17
f 23/23/23 22/22/22 21/21/21
f 24/24/24 23/23/23 21/21/21
