mtllib Window_d4612dc4.mtl
g FP230:polySurface5_2f8acf3c
v 4.16203 0.26948 -0.12993
v 4.91203 0.26948 -0.12993
v 5.61203 0.26948 -0.12993
v 4.16203 0.26948 -0.12993
v 4.86203 0.26948 -0.12993
v 4.91203 0.26948 -0.12993
v 5.61203 0.2695 -0.17993
v 4.86203 0.2695 -0.17993
v 4.16203 0.2695 -0.17993
v 5.61203 0.2695 -0.17993
v 4.91203 0.2695 -0.17993
v 4.86203 0.2695 -0.17993
v 4.11203 0.21948 -0.12995
v 5.66203 0.21948 -0.12995
v 5.66203 0.2195 -0.17995
v 4.11203 0.2195 -0.17995
v 4.16203 0.2695 -0.17993
v 4.86203 0.2695 -0.17993
v 4.86203 0.26948 -0.12993
v 4.16203 0.26948 -0.12993
v 4.91203 0.2695 -0.17993
v 5.61203 0.2695 -0.17993
v 5.61203 0.26948 -0.12993
v 4.91203 0.26948 -0.12993
v 4.86203 0.26948 -0.12993
v 4.91203 2.16948 -0.12927
v 4.91203 0.26948 -0.12993
v 4.86203 2.16948 -0.12927
v 5.66203 2.21948 -0.12926
v 5.61203 2.16948 -0.12927
v 4.16203 2.16948 -0.12927
v 5.61203 0.26948 -0.12993
v 4.11203 2.21948 -0.12926
v 5.66203 0.21948 -0.12995
v 4.11203 0.21948 -0.12995
v 4.16203 0.26948 -0.12993
v 4.91203 0.2695 -0.17993
v 4.86203 2.1695 -0.17927
v 4.86203 0.2695 -0.17993
v 4.91203 2.1695 -0.17927
v 4.11203 2.2195 -0.17926
v 4.16203 2.1695 -0.17927
v 5.61203 2.1695 -0.17927
v 4.16203 0.2695 -0.17993
v 5.66203 2.2195 -0.17926
v 4.11203 0.2195 -0.17995
v 5.66203 0.2195 -0.17995
v 5.61203 0.2695 -0.17993
v 4.11203 0.2195 -0.17995
v 4.11203 2.2195 -0.17926
v 4.11203 2.21948 -0.12926
v 4.11203 0.21948 -0.12995
v 4.16203 0.26948 -0.12993
v 4.16203 2.16948 -0.12927
v 4.16203 2.1695 -0.17927
v 4.16203 0.2695 -0.17993
v 4.86203 0.2695 -0.17993
v 4.86203 2.1695 -0.17927
v 4.86203 2.16948 -0.12927
v 4.86203 0.26948 -0.12993
v 4.91203 0.26948 -0.12993
v 4.91203 2.16948 -0.12927
v 4.91203 2.1695 -0.17927
v 4.91203 0.2695 -0.17993
v 5.61203 0.2695 -0.17993
v 5.61203 2.1695 -0.17927
v 5.61203 2.16948 -0.12927
v 5.61203 0.26948 -0.12993
v 5.66203 0.21948 -0.12995
v 5.66203 2.21948 -0.12926
v 5.66203 2.2195 -0.17926
v 5.66203 0.2195 -0.17995
v 4.21203 0.31949 -0.16991
v 4.21203 2.11949 -0.16929
v 4.21203 2.11951 -0.21929
v 4.21203 0.31951 -0.21991
v 4.16203 0.26951 -0.21993
v 4.16203 2.16951 -0.21927
v 4.16203 2.16949 -0.16927
v 4.16203 0.26949 -0.16993
v 4.21203 2.11949 -0.16929
v 4.81203 2.11949 -0.16929
v 4.81203 2.11951 -0.21929
v 4.21203 2.11951 -0.21929
v 4.16203 2.16951 -0.21927
v 4.86203 2.16951 -0.21927
v 4.86203 2.16949 -0.16927
v 4.16203 2.16949 -0.16927
v 4.81203 2.11949 -0.16929
v 4.81203 0.31949 -0.16991
v 4.81203 0.31951 -0.21991
v 4.81203 2.11951 -0.21929
v 4.86203 2.16951 -0.21927
v 4.86203 0.26951 -0.21993
v 4.86203 0.26949 -0.16993
v 4.86203 2.16949 -0.16927
v 4.81203 0.31949 -0.16991
v 4.21203 0.31949 -0.16991
v 4.21203 0.31951 -0.21991
v 4.81203 0.31951 -0.21991
v 4.86203 0.26951 -0.21993
v 4.16203 0.26951 -0.21993
v 4.16203 0.26949 -0.16993
v 4.86203 0.26949 -0.16993
v 4.11203 2.2195 -0.17926
v 5.66203 2.2195 -0.17926
v 5.66203 2.21948 -0.12926
v 4.11203 2.21948 -0.12926
v 4.16203 2.16948 -0.12927
v 4.86203 2.16948 -0.12927
v 4.86203 2.1695 -0.17927
v 4.16203 2.1695 -0.17927
v 4.91203 2.16948 -0.12927
v 5.61203 2.16948 -0.12927
v 5.61203 2.1695 -0.17927
v 4.91203 2.1695 -0.17927
v 4.16203 0.26949 -0.16993
v 4.16203 2.16949 -0.16927
v 4.21203 2.11949 -0.16929
v 4.21203 0.31949 -0.16991
v 4.81203 2.11949 -0.16929
v 4.86203 0.26949 -0.16993
v 4.86203 2.16949 -0.16927
v 4.81203 0.31949 -0.16991
v 4.21203 0.31951 -0.21991
v 4.21203 2.11951 -0.21929
v 4.16203 2.16951 -0.21927
v 4.16203 0.26951 -0.21993
v 4.86203 2.16951 -0.21927
v 4.81203 0.31951 -0.21991
v 4.81203 2.11951 -0.21929
v 4.86203 0.26951 -0.21993
v 4.23203 0.3395 -0.1849
v 4.23203 2.0995 -0.1843
v 4.23203 2.09951 -0.2043
v 4.23203 0.3395 -0.2049
v 4.23203 2.0995 -0.1843
v 4.79203 2.0995 -0.1843
v 4.79203 2.09951 -0.2043
v 4.23203 2.09951 -0.2043
v 4.79203 2.0995 -0.1843
v 4.79203 0.3395 -0.1849
v 4.79203 0.3395 -0.2049
v 4.79203 2.09951 -0.2043
v 4.79203 0.3395 -0.1849
v 4.23203 0.3395 -0.1849
v 4.23203 0.3395 -0.2049
v 4.79203 0.3395 -0.2049
v 4.93203 0.28948 -0.14492
v 4.93203 2.14949 -0.14428
v 4.93203 2.14949 -0.16428
v 4.93203 0.28949 -0.16492
v 4.93203 2.14949 -0.14428
v 5.59203 2.14949 -0.14428
v 5.59203 2.14949 -0.16428
v 4.93203 2.14949 -0.16428
v 5.59203 2.14949 -0.14428
v 5.59203 0.28948 -0.14492
v 5.59203 0.28949 -0.16492
v 5.59203 2.14949 -0.16428
v 5.59203 0.28948 -0.14492
v 4.93203 0.28948 -0.14492
v 4.93203 0.28949 -0.16492
v 5.59203 0.28949 -0.16492
v 4.21203 0.3195 -0.18491
v 4.21203 2.1195 -0.18429
v 4.23203 2.0995 -0.1843
v 4.23203 0.3395 -0.1849
v 4.79203 2.0995 -0.1843
v 4.81203 0.3195 -0.18491
v 4.81203 2.1195 -0.18429
v 4.79203 0.3395 -0.1849
v 4.23203 0.3395 -0.2049
v 4.23203 2.09951 -0.2043
v 4.21203 2.11951 -0.20429
v 4.21203 0.3195 -0.20491
v 4.81203 2.11951 -0.20429
v 4.79203 0.3395 -0.2049
v 4.79203 2.09951 -0.2043
v 4.81203 0.3195 -0.20491
v 4.91203 0.26948 -0.14493
v 4.91203 2.16949 -0.14427
v 4.93203 2.14949 -0.14428
v 4.93203 0.28948 -0.14492
v 5.59203 2.14949 -0.14428
v 5.61203 0.26948 -0.14493
v 5.61203 2.16949 -0.14427
v 5.59203 0.28948 -0.14492
v 4.93203 0.28949 -0.16492
v 4.93203 2.14949 -0.16428
v 4.91203 2.16949 -0.16427
v 4.91203 0.26949 -0.16493
v 5.61203 2.16949 -0.16427
v 5.59203 0.28949 -0.16492
v 5.59203 2.14949 -0.16428
v 5.61203 0.26949 -0.16493
v 5.66203 0.17944 -0.01496
v 5.66203 0.17954 -0.29496
v 4.11203 0.17954 -0.29496
v 4.11203 0.17944 -0.01496
v 5.66203 0.17954 -0.29496
v 5.66203 0.21954 -0.29495
v 4.11203 0.21954 -0.29495
v 4.11203 0.17954 -0.29496
v 4.11203 0.21944 -0.01495
v 4.11203 0.21954 -0.29495
v 5.66203 0.21954 -0.29495
v 5.66203 0.21944 -0.01495
v 4.11203 0.17944 -0.01496
v 4.11203 0.21944 -0.01495
v 5.66203 0.21944 -0.01495
v 5.66203 0.17944 -0.01496
v 4.11203 0.17954 -0.29496
v 4.11203 0.21954 -0.29495
v 4.11203 0.21944 -0.01495
v 4.11203 0.17944 -0.01496
v 5.66203 0.21944 -0.01495
v 5.66203 0.21954 -0.29495
v 5.66203 0.17954 -0.29496
v 5.66203 0.17944 -0.01496
vn -3.814697E-06 -0.0001998755 0.5773495
vn -3.814697E-06 -0.0001998755 0.5773495
vn -3.814697E-06 -0.0001998755 0.5773495
vn -3.814697E-06 -0.0001998755 0.5773495
vn -3.814697E-06 -0.0001998755 0.5773495
vn -3.814697E-06 -0.0001998755 0.5773495
vn -3.814697E-06 0.0001991602 -0.5773508
vn -3.814697E-06 0.0001991602 -0.5773508
vn -3.814697E-06 0.0001991602 -0.5773508
vn -3.814697E-06 0.0001991602 -0.5773508
vn -3.814697E-06 0.0001991602 -0.5773508
vn -3.814697E-06 0.0001991602 -0.5773508
vn -3.814697E-06 -0.5773504 -0.0002001885
vn -3.814697E-06 -0.5773504 -0.0002001885
vn -3.814697E-06 -0.5773504 -0.0002001885
vn -3.814697E-06 -0.5773504 -0.0002001885
vn -3.814697E-06 0.5773497 0.0001988474
vn -3.814697E-06 0.5773497 0.0001988474
vn -3.814697E-06 0.5773497 0.0001988474
vn -3.814697E-06 0.5773497 0.0001988474
vn -3.814697E-06 0.5773497 0.0001988474
vn -3.814697E-06 0.5773497 0.0001988474
vn -3.814697E-06 0.5773497 0.0001988474
vn -3.814697E-06 0.5773497 0.0001988474
vn -3.814697E-06 -0.0001998755 0.5773495
vn -3.814697E-06 -0.0001998755 0.5773495
vn -3.814697E-06 -0.0001998755 0.5773495
vn -3.814697E-06 -0.0001998755 0.5773495
vn -3.814697E-06 -0.0001998755 0.5773495
vn -3.814697E-06 -0.0001998755 0.5773495
vn -3.814697E-06 -0.0001998755 0.5773495
vn -3.814697E-06 -0.0001998755 0.5773495
vn -3.814697E-06 -0.0001998755 0.5773495
vn -3.814697E-06 -0.0001998755 0.5773495
vn -3.814697E-06 -0.0001998755 0.5773495
vn -3.814697E-06 -0.0001998755 0.5773495
vn -3.814697E-06 0.0001991602 -0.5773508
vn -3.814697E-06 0.0001991602 -0.5773508
vn -3.814697E-06 0.0001991602 -0.5773508
vn -3.814697E-06 0.0001991602 -0.5773508
vn -3.814697E-06 0.0001991602 -0.5773508
vn -3.814697E-06 0.0001991602 -0.5773508
vn -3.814697E-06 0.0001991602 -0.5773508
vn -3.814697E-06 0.0001991602 -0.5773508
vn -3.814697E-06 0.0001991602 -0.5773508
vn -3.814697E-06 0.0001991602 -0.5773508
vn -3.814697E-06 0.0001991602 -0.5773508
vn -3.814697E-06 0.0001991602 -0.5773508
vn -0.5773545 -3.576279E-07 -6.705523E-07
vn -0.5773545 -3.576279E-07 -6.705523E-07
vn -0.5773545 -3.576279E-07 -6.705523E-07
vn -0.5773545 -3.576279E-07 -6.705523E-07
vn 0.5773469 -3.576279E-07 -6.705523E-07
vn 0.5773469 -3.576279E-07 -6.705523E-07
vn 0.5773469 -3.576279E-07 -6.705523E-07
vn 0.5773469 -3.576279E-07 -6.705523E-07
vn -0.5773545 -3.576279E-07 -6.705523E-07
vn -0.5773545 -3.576279E-07 -6.705523E-07
vn -0.5773545 -3.576279E-07 -6.705523E-07
vn -0.5773545 -3.576279E-07 -6.705523E-07
vn 0.5773469 -3.576279E-07 -6.705523E-07
vn 0.5773469 -3.576279E-07 -6.705523E-07
vn 0.5773469 -3.576279E-07 -6.705523E-07
vn 0.5773469 -3.576279E-07 -6.705523E-07
vn -0.5773545 -3.576279E-07 -6.705523E-07
vn -0.5773545 -3.576279E-07 -6.705523E-07
vn -0.5773545 -3.576279E-07 -6.705523E-07
vn -0.5773545 -3.576279E-07 -6.705523E-07
vn 0.5773469 -3.576279E-07 -6.705523E-07
vn 0.5773469 -3.576279E-07 -6.705523E-07
vn 0.5773469 -3.576279E-07 -6.705523E-07
vn 0.5773469 -3.576279E-07 -6.705523E-07
vn 0.5773469 -3.576279E-07 -6.705523E-07
vn 0.5773469 -3.576279E-07 -6.705523E-07
vn 0.5773469 -3.576279E-07 -6.705523E-07
vn 0.5773469 -3.576279E-07 -6.705523E-07
vn -0.5773545 -3.576279E-07 -6.705523E-07
vn -0.5773545 -3.576279E-07 -6.705523E-07
vn -0.5773545 -3.576279E-07 -6.705523E-07
vn -0.5773545 -3.576279E-07 -6.705523E-07
vn -3.814697E-06 -0.5773504 -0.0002001885
vn -3.814697E-06 -0.5773504 -0.0002001885
vn -3.814697E-06 -0.5773504 -0.0002001885
vn -3.814697E-06 -0.5773504 -0.0002001885
vn -3.814697E-06 0.5773497 0.0001988474
vn -3.814697E-06 0.5773497 0.0001988474
vn -3.814697E-06 0.5773497 0.0001988474
vn -3.814697E-06 0.5773497 0.0001988474
vn -0.5773545 -3.576279E-07 -6.705523E-07
vn -0.5773545 -3.576279E-07 -6.705523E-07
vn -0.5773545 -3.576279E-07 -6.705523E-07
vn -0.5773545 -3.576279E-07 -6.705523E-07
vn 0.5773469 -3.576279E-07 -6.705523E-07
vn 0.5773469 -3.576279E-07 -6.705523E-07
vn 0.5773469 -3.576279E-07 -6.705523E-07
vn 0.5773469 -3.576279E-07 -6.705523E-07
vn -3.814697E-06 0.5773497 0.0001988474
vn -3.814697E-06 0.5773497 0.0001988474
vn -3.814697E-06 0.5773497 0.0001988474
vn -3.814697E-06 0.5773497 0.0001988474
vn -3.814697E-06 -0.5773504 -0.0002001885
vn -3.814697E-06 -0.5773504 -0.0002001885
vn -3.814697E-06 -0.5773504 -0.0002001885
vn -3.814697E-06 -0.5773504 -0.0002001885
vn -3.814697E-06 0.5773497 0.0001988474
vn -3.814697E-06 0.5773497 0.0001988474
vn -3.814697E-06 0.5773497 0.0001988474
vn -3.814697E-06 0.5773497 0.0001988474
vn -3.814697E-06 -0.5773504 -0.0002001885
vn -3.814697E-06 -0.5773504 -0.0002001885
vn -3.814697E-06 -0.5773504 -0.0002001885
vn -3.814697E-06 -0.5773504 -0.0002001885
vn -3.814697E-06 -0.5773504 -0.0002001885
vn -3.814697E-06 -0.5773504 -0.0002001885
vn -3.814697E-06 -0.5773504 -0.0002001885
vn -3.814697E-06 -0.5773504 -0.0002001885
vn -3.814697E-06 -0.0001998755 0.5773495
vn -3.814697E-06 -0.0001998755 0.5773495
vn -3.814697E-06 -0.0001998755 0.5773495
vn -3.814697E-06 -0.0001998755 0.5773495
vn -3.814697E-06 -0.0001998755 0.5773495
vn -3.814697E-06 -0.0001998755 0.5773495
vn -3.814697E-06 -0.0001998755 0.5773495
vn -3.814697E-06 -0.0001998755 0.5773495
vn -3.814697E-06 0.0001991602 -0.5773508
vn -3.814697E-06 0.0001991602 -0.5773508
vn -3.814697E-06 0.0001991602 -0.5773508
vn -3.814697E-06 0.0001991602 -0.5773508
vn -3.814697E-06 0.0001991602 -0.5773508
vn -3.814697E-06 0.0001991602 -0.5773508
vn -3.814697E-06 0.0001991602 -0.5773508
vn -3.814697E-06 0.0001991602 -0.5773508
vn 0.5773469 -3.576279E-07 -6.705523E-07
vn 0.5773469 -3.576279E-07 -6.705523E-07
vn 0.5773469 -3.576279E-07 -6.705523E-07
vn 0.5773469 -3.576279E-07 -6.705523E-07
vn -3.814697E-06 -0.5773504 -0.0002001885
vn -3.814697E-06 -0.5773504 -0.0002001885
vn -3.814697E-06 -0.5773504 -0.0002001885
vn -3.814697E-06 -0.5773504 -0.0002001885
vn -0.5773545 -3.576279E-07 -6.705523E-07
vn -0.5773545 -3.576279E-07 -6.705523E-07
vn -0.5773545 -3.576279E-07 -6.705523E-07
vn -0.5773545 -3.576279E-07 -6.705523E-07
vn -3.814697E-06 0.5773497 0.0001988474
vn -3.814697E-06 0.5773497 0.0001988474
vn -3.814697E-06 0.5773497 0.0001988474
vn -3.814697E-06 0.5773497 0.0001988474
vn 0.5773469 -3.576279E-07 -6.705523E-07
vn 0.5773469 -3.576279E-07 -6.705523E-07
vn 0.5773469 -3.576279E-07 -6.705523E-07
vn 0.5773469 -3.576279E-07 -6.705523E-07
vn -3.814697E-06 -0.5773504 -0.0002001885
vn -3.814697E-06 -0.5773504 -0.0002001885
vn -3.814697E-06 -0.5773504 -0.0002001885
vn -3.814697E-06 -0.5773504 -0.0002001885
vn -0.5773545 -3.576279E-07 -6.705523E-07
vn -0.5773545 -3.576279E-07 -6.705523E-07
vn -0.5773545 -3.576279E-07 -6.705523E-07
vn -0.5773545 -3.576279E-07 -6.705523E-07
vn -3.814697E-06 0.5773497 0.0001988474
vn -3.814697E-06 0.5773497 0.0001988474
vn -3.814697E-06 0.5773497 0.0001988474
vn -3.814697E-06 0.5773497 0.0001988474
vn -3.814697E-06 -0.0001998755 0.5773495
vn -3.814697E-06 -0.0001998755 0.5773495
vn -3.814697E-06 -0.0001998755 0.5773495
vn -3.814697E-06 -0.0001998755 0.5773495
vn -3.814697E-06 -0.0001997335 0.5773495
vn -3.814697E-06 -0.0001998755 0.5773495
vn -3.814697E-06 -0.0001997335 0.5773495
vn -3.814697E-06 -0.0001998755 0.5773495
vn -3.814697E-06 0.0001991602 -0.5773508
vn -3.814697E-06 0.0001991602 -0.5773508
vn -3.814697E-06 0.0001991602 -0.5773508
vn -3.814697E-06 0.0001991602 -0.5773508
vn -3.814697E-06 0.0001990501 -0.5773508
vn -3.814697E-06 0.0001991602 -0.5773508
vn -3.814697E-06 0.0001990501 -0.5773508
vn -3.814697E-06 0.0001991602 -0.5773508
vn -3.814697E-06 -0.0001998755 0.5773495
vn -3.814697E-06 -0.0001998755 0.5773495
vn -3.814697E-06 -0.0001998755 0.5773495
vn -3.814697E-06 -0.0001998755 0.5773495
vn -3.814697E-06 -0.0001998755 0.5773495
vn -3.814697E-06 -0.0001998755 0.5773495
vn -3.814697E-06 -0.0001998755 0.5773495
vn -3.814697E-06 -0.0001998755 0.5773495
vn -3.814697E-06 0.0001991602 -0.5773508
vn -3.814697E-06 0.0001991602 -0.5773508
vn -3.814697E-06 0.0001991602 -0.5773508
vn -3.814697E-06 0.0001991602 -0.5773508
vn -3.814697E-06 0.0001991602 -0.5773508
vn -3.814697E-06 0.0001991602 -0.5773508
vn -3.814697E-06 0.0001991602 -0.5773508
vn -3.814697E-06 0.0001991602 -0.5773508
vn -3.814697E-06 -0.5773504 -0.0002001885
vn -3.814697E-06 -0.5773504 -0.0002001885
vn -3.814697E-06 -0.5773504 -0.0002001885
vn -3.814697E-06 -0.5773504 -0.0002001885
vn -3.814697E-06 0.0001991602 -0.5773508
vn -3.814697E-06 0.0001991602 -0.5773508
vn -3.814697E-06 0.0001991602 -0.5773508
vn -3.814697E-06 0.0001991602 -0.5773508
vn -3.814697E-06 0.5773497 0.0001988474
vn -3.814697E-06 0.5773497 0.0001988474
vn -3.814697E-06 0.5773497 0.0001988474
vn -3.814697E-06 0.5773497 0.0001988474
vn -3.814697E-06 -0.0001998755 0.5773495
vn -3.814697E-06 -0.0001998755 0.5773495
vn -3.814697E-06 -0.0001998755 0.5773495
vn -3.814697E-06 -0.0001998755 0.5773495
vn -0.5773545 -3.576279E-07 -6.705523E-07
vn -0.5773545 -3.576279E-07 -6.705523E-07
vn -0.5773545 -3.576279E-07 -6.705523E-07
vn -0.5773545 -3.576279E-07 -6.705523E-07
vn 0.5773469 -3.576279E-07 -6.705523E-07
vn 0.5773469 -3.576279E-07 -6.705523E-07
vn 0.5773469 -3.576279E-07 -6.705523E-07
vn 0.5773469 -3.576279E-07 -6.705523E-07
vt 0 0
vt 0 0
vt 0 0
vt 0 0
vt 0 0
vt 0 0
vt 0 0
vt 0 0
vt 0 0
vt 0 0
vt 0 0
vt 0 0
vt 0.2221118 1.360822
vt 0.2221118 -0.1891777
vt 0.1721118 -0.1891777
vt 0.1721118 1.360822
vt 0.0322176 1.174968
vt 0.0322176 0.4749678
vt -0.01778239 0.4749678
vt -0.01778239 1.174968
vt 0.1025749 1.174966
vt 0.1025749 0.4749692
vt 0.05257475 0.4749692
vt 0.05257475 1.174966
vt 0.1742609 -0.7391849
vt 0.2242607 1.160816
vt 0.2242607 -0.7391849
vt 0.1742609 1.160816
vt 0.9742608 1.210816
vt 0.924261 1.160816
vt -0.5257397 1.160816
vt 0.924261 -0.7391849
vt -0.5757395 1.210816
vt 0.9742608 -0.7891849
vt -0.5757395 -0.7891849
vt -0.5257397 -0.7391849
vt 0.5555827 1.160816
vt 0.5055829 -0.7391852
vt 0.5055829 1.160816
vt 0.5555827 -0.7391852
vt -0.2444176 -0.7891849
vt -0.1944179 -0.7391852
vt 1.255583 -0.7391852
vt -0.1944179 1.160816
vt 1.305583 -0.7891849
vt -0.2444176 1.210816
vt 1.305583 1.210816
vt 1.255583 1.160816
vt -0.01805572 -0.7891742
vt -0.01736455 1.210826
vt 0.03263542 1.210809
vt 0.03194428 -0.7891914
vt 0.6805344 -0.749643
vt 0.6798776 1.150358
vt 0.7298776 1.150375
vt 0.7305343 -0.7496257
vt 0.6974183 -0.7496257
vt 0.698075 1.150375
vt 0.7480749 1.150358
vt 0.7474182 -0.749643
vt 0.7156155 -0.7496424
vt 0.714959 1.150357
vt 0.764959 1.150375
vt 0.7656154 -0.7496251
vt 0.7324994 -0.7496251
vt 0.7331558 1.150375
vt 0.7831559 1.150357
vt 0.7824994 -0.7496424
vt 0.0003708769 -0.7891915
vt -0.0003202576 1.210809
vt 0.0496797 1.210826
vt 0.05037089 -0.7891743
vt 0.4897743 -0.2880563
vt 0.4891524 1.511943
vt 0.5391524 1.51196
vt 0.5397744 -0.2880391
vt 0.75004 -0.7496238
vt 0.7506964 1.150373
vt 0.8006966 1.150356
vt 0.8000398 -0.749641
vt 0.1610433 1.114513
vt 0.1610433 0.5145134
vt 0.1110433 0.5145134
vt 0.1110433 1.114513
vt 0.04995314 1.174967
vt 0.04995314 0.4749689
vt -4.69964E-05 0.4749689
vt -4.69964E-05 1.174967
vt 0.5230579 1.511945
vt 0.5224357 -0.2880577
vt 0.472436 -0.2880405
vt 0.4730579 1.511961
vt 0.8175803 1.150376
vt 0.818237 -0.7496266
vt 0.7682369 -0.7496439
vt 0.7675805 1.150359
vt 0.1285839 0.5145132
vt 0.1285839 1.114513
vt 0.1785839 1.114513
vt 0.1785839 0.5145132
vt 0.01749361 0.4749677
vt 0.01749361 1.174968
vt 0.06749361 1.174968
vt 0.06749361 0.4749677
vt 0.2055254 1.360822
vt 0.2055254 -0.1891774
vt 0.1555254 -0.1891774
vt 0.1555254 1.360822
vt 0.08503418 1.174968
vt 0.08503418 0.4749677
vt 0.03503416 0.4749677
vt 0.03503416 1.174968
vt 0.1201155 1.174967
vt 0.1201155 0.4749691
vt 0.07011534 0.4749691
vt 0.07011534 1.174967
vt 0.4223986 -0.3484968
vt 0.4223986 1.551502
vt 0.4723985 1.501502
vt 0.4723985 -0.2984968
vt 1.072399 1.501502
vt 1.122399 -0.3484968
vt 1.122399 1.551502
vt 1.072399 -0.2984968
vt 0.578313 1.100364
vt 0.578313 -0.6996355
vt 0.528313 -0.7496358
vt 0.528313 1.150364
vt 1.228313 -0.7496358
vt 1.178313 1.100364
vt 1.178313 -0.6996355
vt 1.228313 1.150364
vt 0.2113735 -0.2722327
vt 0.2107652 1.487767
vt 0.2307653 1.487774
vt 0.2313735 -0.2722259
vt 0.1779892 1.090333
vt 0.1779892 0.5303322
vt 0.1579892 0.5303322
vt 0.1579892 1.090333
vt 0.2209306 1.487767
vt 0.2203224 -0.2722328
vt 0.2003223 -0.272226
vt 0.2009306 1.487774
vt 0.1696829 0.5303323
vt 0.1696829 1.090333
vt 0.1896829 1.090333
vt 0.1896829 0.5303323
vt 0.5288182 -0.3117778
vt 0.5281755 1.548213
vt 0.5481755 1.548221
vt 0.5488183 -0.3117709
vt 0.1195205 1.150787
vt 0.1195205 0.4907804
vt 0.09952062 0.4907804
vt 0.09952062 1.150787
vt 0.5383682 1.548218
vt 0.5377254 -0.3117821
vt 0.5177253 -0.3117752
vt 0.5183683 1.548225
vt 0.1112144 0.4907811
vt 0.1112144 1.150787
vt 0.1312142 1.150787
vt 0.1312142 0.4907811
vt 0.1236135 -0.2880515
vt 0.1236135 1.511952
vt 0.1436134 1.491952
vt 0.1436134 -0.2680515
vt 0.7036148 1.491952
vt 0.7236149 -0.2880515
vt 0.7236149 1.511952
vt 0.7036148 -0.2680515
vt 0.01206437 1.491953
vt 0.01206437 -0.2680523
vt -0.007935643 -0.2880523
vt -0.007935643 1.511953
vt 0.5920661 -0.2880523
vt 0.5720662 1.491953
vt 0.5720662 -0.2680523
vt 0.5920661 1.511953
vt 0.2699475 -0.3275985
vt 0.2699475 1.572401
vt 0.2899477 1.552401
vt 0.2899477 -0.3075985
vt 0.9499478 1.552401
vt 0.9699473 -0.3275985
vt 0.9699473 1.572401
vt 0.9499478 -0.3075985
vt 0.5948517 1.531494
vt 0.5948517 -0.3284967
vt 0.5748516 -0.3484966
vt 0.5748516 1.551495
vt 1.274849 -0.3484966
vt 1.254849 1.531494
vt 1.254849 -0.3284967
vt 1.274849 1.551495
vt 0.2799013 -0.1891778
vt -9.863079E-05 -0.1891778
vt -9.863079E-05 1.360822
vt 0.2799013 1.360822
vt 0.1203225 -0.189176
vt 0.08032244 -0.189176
vt 0.08032244 1.360821
vt 0.1203225 1.360821
vt -0.0792565 1.360826
vt 0.2007436 1.360826
vt 0.2007436 -0.1891738
vt -0.0792565 -0.1891738
vt 0.001164617 1.360827
vt 0.04116456 1.360827
vt 0.04116456 -0.1891749
vt 0.001164617 -0.1891749
vt 0.1735253 0.9210778
vt 0.2135253 0.9210638
vt 0.2134285 0.641064
vt 0.1734285 0.6410777
vt 0.2290203 0.9649742
vt 0.2291169 0.684974
vt 0.189117 0.6849602
vt 0.1890202 0.9649602
usemtl PVC
f 3/3/3 2/2/2 1/1/1
f 6/6/6 5/5/5 4/4/4
f 9/9/9 8/8/8 7/7/7
f 12/12/12 11/11/11 10/10/10
f 15/15/15 14/14/14 13/13/13
f 16/16/16 15/15/15 13/13/13
f 19/19/19 18/18/18 17/17/17
f 20/20/20 19/19/19 17/17/17
f 23/23/23 22/22/22 21/21/21
f 24/24/24 23/23/23 21/21/21
f 27/27/27 26/26/26 25/25/25
f 26/26/26 28/28/28 25/25/25
f 29/29/29 28/28/28 26/26/26
f 26/26/26 30/30/30 29/29/29
f 29/29/29 31/31/31 28/28/28
f 29/29/29 30/30/30 32/32/32
f 29/29/29 33/33/33 31/31/31
f 34/34/34 29/29/29 32/32/32
f 31/31/31 33/33/33 35/35/35
f 35/35/35 34/34/34 32/32/32
f 36/36/36 31/31/31 35/35/35
f 32/32/32 36/36/36 35/35/35
f 39/39/39 38/38/38 37/37/37
f 38/38/38 40/40/40 37/37/37
f 41/41/41 40/40/40 38/38/38
f 38/38/38 42/42/42 41/41/41
f 41/41/41 43/43/43 40/40/40
f 41/41/41 42/42/42 44/44/44
f 41/41/41 45/45/45 43/43/43
f 46/46/46 41/41/41 44/44/44
f 43/43/43 45/45/45 47/47/47
f 47/47/47 46/46/46 44/44/44
f 48/48/48 43/43/43 47/47/47
f 44/44/44 48/48/48 47/47/47
f 51/51/51 50/50/50 49/49/49
f 52/52/52 51/51/51 49/49/49
f 55/55/55 54/54/54 53/53/53
f 56/56/56 55/55/55 53/53/53
f 59/59/59 58/58/58 57/57/57
f 60/60/60 59/59/59 57/57/57
f 63/63/63 62/62/62 61/61/61
f 64/64/64 63/63/63 61/61/61
f 67/67/67 66/66/66 65/65/65
f 68/68/68 67/67/67 65/65/65
f 71/71/71 70/70/70 69/69/69
f 72/72/72 71/71/71 69/69/69
f 75/75/75 74/74/74 73/73/73
f 76/76/76 75/75/75 73/73/73
f 79/79/79 78/78/78 77/77/77
f 80/80/80 79/79/79 77/77/77
f 83/83/83 82/82/82 81/81/81
f 84/84/84 83/83/83 81/81/81
f 87/87/87 86/86/86 85/85/85
f 88/88/88 87/87/87 85/85/85
f 91/91/91 90/90/90 89/89/89
f 92/92/92 91/91/91 89/89/89
f 95/95/95 94/94/94 93/93/93
f 96/96/96 95/95/95 93/93/93
f 99/99/99 98/98/98 97/97/97
f 100/100/100 99/99/99 97/97/97
f 103/103/103 102/102/102 101/101/101
f 104/104/104 103/103/103 101/101/101
f 107/107/107 106/106/106 105/105/105
f 108/108/108 107/107/107 105/105/105
f 111/111/111 110/110/110 109/109/109
f 112/112/112 111/111/111 109/109/109
f 115/115/115 114/114/114 113/113/113
f 116/116/116 115/115/115 113/113/113
f 119/119/119 118/118/118 117/117/117
f 120/120/120 119/119/119 117/117/117
f 119/119/119 121/121/121 118/118/118
f 120/120/120 117/117/117 122/122/122
f 121/121/121 123/123/123 118/118/118
f 124/124/124 120/120/120 122/122/122
f 121/121/121 124/124/124 123/123/123
f 124/124/124 122/122/122 123/123/123
f 127/127/127 126/126/126 125/125/125
f 128/128/128 127/127/127 125/125/125
f 127/127/127 129/129/129 126/126/126
f 128/128/128 125/125/125 130/130/130
f 129/129/129 131/131/131 126/126/126
f 132/132/132 128/128/128 130/130/130
f 129/129/129 132/132/132 131/131/131
f 132/132/132 130/130/130 131/131/131
usemtl Plastic
f 135/135/135 134/134/134 133/133/133
f 136/136/136 135/135/135 133/133/133
f 139/139/139 138/138/138 137/137/137
f 140/140/140 139/139/139 137/137/137
f 143/143/143 142/142/142 141/141/141
f 144/144/144 143/143/143 141/141/141
f 147/147/147 146/146/146 145/145/145
f 148/148/148 147/147/147 145/145/145
f 151/151/151 150/150/150 149/149/149
f 152/152/152 151/151/151 149/149/149
f 155/155/155 154/154/154 153/153/153
f 156/156/156 155/155/155 153/153/153
f 159/159/159 158/158/158 157/157/157
f 160/160/160 159/159/159 157/157/157
f 163/163/163 162/162/162 161/161/161
f 164/164/164 163/163/163 161/161/161
f 167/167/167 166/166/166 165/165/165
f 168/168/168 167/167/167 165/165/165
f 167/167/167 169/169/169 166/166/166
f 168/168/168 165/165/165 170/170/170
f 169/169/169 171/171/171 166/166/166
f 172/172/172 168/168/168 170/170/170
f 169/169/169 172/172/172 171/171/171
f 172/172/172 170/170/170 171/171/171
f 175/175/175 174/174/174 173/173/173
f 176/176/176 175/175/175 173/173/173
f 175/175/175 177/177/177 174/174/174
f 176/176/176 173/173/173 178/178/178
f 177/177/177 179/179/179 174/174/174
f 180/180/180 176/176/176 178/178/178
f 177/177/177 180/180/180 179/179/179
f 180/180/180 178/178/178 179/179/179
f 183/183/183 182/182/182 181/181/181
f 184/184/184 183/183/183 181/181/181
f 183/183/183 185/185/185 182/182/182
f 184/184/184 181/181/181 186/186/186
f 185/185/185 187/187/187 182/182/182
f 188/188/188 184/184/184 186/186/186
f 185/185/185 188/188/188 187/187/187
f 188/188/188 186/186/186 187/187/187
f 191/191/191 190/190/190 189/189/189
f 192/192/192 191/191/191 189/189/189
f 191/191/191 193/193/193 190/190/190
f 192/192/192 189/189/189 194/194/194
f 193/193/193 195/195/195 190/190/190
f 196/196/196 192/192/192 194/194/194
f 193/193/193 196/196/196 195/195/195
f 196/196/196 194/194/194 195/195/195
usemtl Marble
f 199/199/199 198/198/198 197/197/197
f 200/200/200 199/199/199 197/197/197
f 203/203/203 202/202/202 201/201/201
f 204/204/204 203/203/203 201/201/201
f 207/207/207 206/206/206 205/205/205
f 208/208/208 207/207/207 205/205/205
f 211/211/211 210/210/210 209/209/209
f 212/212/212 211/211/211 209/209/209
f 215/215/215 214/214/214 213/213/213
f 216/216/216 215/215/215 213/213/213
f 219/219/219 218/218/218 217/217/217
f 220/220/220 219/219/219 217/217/217
g FP230:polySurface2_e593c2ab
v 4.23202 0.3395 -0.1999
v 4.79203 0.3395 -0.1999
v 4.79203 2.0995 -0.1993
v 4.23202 2.0995 -0.1993
v 4.23202 2.0995 -0.1893
v 4.79203 2.0995 -0.1893
v 4.79203 0.3395 -0.1899
v 4.23202 0.3395 -0.1899
v 4.93203 0.28949 -0.15992
v 5.59203 0.28949 -0.15992
v 5.59203 2.14949 -0.15928
v 4.93203 2.14949 -0.15928
v 4.93203 2.14949 -0.14928
v 5.59203 2.14949 -0.14928
v 5.59203 0.28949 -0.14992
v 4.93203 0.28949 -0.14992
v 4.79203 0.3395 -0.1999
v 4.79203 0.3395 -0.1899
v 4.79203 2.0995 -0.1893
v 4.79203 2.0995 -0.1993
v 4.79203 2.0995 -0.1993
v 4.79203 2.0995 -0.1893
v 4.23202 2.0995 -0.1893
v 4.23202 2.0995 -0.1993
v 4.23202 2.0995 -0.1993
v 4.23202 2.0995 -0.1893
v 4.23202 0.3395 -0.1899
v 4.23202 0.3395 -0.1999
v 4.23202 0.3395 -0.1999
v 4.23202 0.3395 -0.1899
v 4.79203 0.3395 -0.1899
v 4.79203 0.3395 -0.1999
v 5.59203 0.28949 -0.15992
v 5.59203 0.28949 -0.14992
v 5.59203 2.14949 -0.14928
v 5.59203 2.14949 -0.15928
v 5.59203 2.14949 -0.15928
v 5.59203 2.14949 -0.14928
v 4.93203 2.14949 -0.14928
v 4.93203 2.14949 -0.15928
v 4.93203 2.14949 -0.15928
v 4.93203 2.14949 -0.14928
v 4.93203 0.28949 -0.14992
v 4.93203 0.28949 -0.15992
v 4.93203 0.28949 -0.15992
v 4.93203 0.28949 -0.14992
v 5.59203 0.28949 -0.14992
v 5.59203 0.28949 -0.15992
vn 4.912021 1.219683 -0.751947
vn 4.912021 1.219683 -0.751947
vn 4.912021 1.219683 -0.751947
vn 4.912021 1.219683 -0.751947
vn 4.912021 1.219284 0.4027533
vn 4.912021 1.219284 0.4027533
vn 4.912021 1.219284 0.4027533
vn 4.912021 1.219284 0.4027533
vn 4.912021 1.219683 -0.751947
vn 4.912021 1.219683 -0.751947
vn 4.912021 1.219683 -0.751947
vn 4.912021 1.219683 -0.751947
vn 4.912021 1.219284 0.4027533
vn 4.912021 1.219284 0.4027533
vn 4.912021 1.219284 0.4027533
vn 4.912021 1.219284 0.4027533
vn 5.489372 1.219483 -0.1745969
vn 5.489372 1.219483 -0.1745969
vn 5.489372 1.219483 -0.1745969
vn 5.489372 1.219483 -0.1745969
vn 4.912021 1.796833 -0.1744156
vn 4.912021 1.796833 -0.1744156
vn 4.912021 1.796833 -0.1744156
vn 4.912021 1.796833 -0.1744156
vn 4.334671 1.219483 -0.1745969
vn 4.334671 1.219483 -0.1745969
vn 4.334671 1.219483 -0.1745969
vn 4.334671 1.219483 -0.1745969
vn 4.912021 0.6421331 -0.174797
vn 4.912021 0.6421331 -0.174797
vn 4.912021 0.6421331 -0.174797
vn 4.912021 0.6421331 -0.174797
vn 5.489372 1.219483 -0.1745969
vn 5.489372 1.219483 -0.1745969
vn 5.489372 1.219483 -0.1745969
vn 5.489372 1.219483 -0.1745969
vn 4.912021 1.796833 -0.1744004
vn 4.912021 1.796833 -0.1744004
vn 4.912021 1.796833 -0.1744004
vn 4.912021 1.796833 -0.1744004
vn 4.334671 1.219483 -0.1745969
vn 4.334671 1.219483 -0.1745969
vn 4.334671 1.219483 -0.1745969
vn 4.334671 1.219483 -0.1745969
vn 4.912021 0.6421331 -0.1747944
vn 4.912021 0.6421331 -0.1747944
vn 4.912021 0.6421331 -0.1747944
vn 4.912021 0.6421331 -0.1747944
vt 0.5763274 1.201437
vt 1.136328 1.201437
vt 1.136328 -0.5585623
vt 0.5763274 -0.5585623
vt 0.3658406 1.201437
vt 0.9258411 1.201437
vt 0.9258411 -0.5585621
vt 0.3658406 -0.5585621
vt -0.1843941 1.269624
vt 0.4756061 1.269624
vt 0.4756061 -0.5903759
vt -0.1843941 -0.5903759
vt 0.06312293 1.269624
vt 0.7231232 1.269624
vt 0.7231232 -0.5903757
vt 0.06312293 -0.5903757
vt 0.5278416 -0.5585596
vt 0.5178416 -0.5585631
vt 0.5172335 1.201437
vt 0.5272337 1.20144
vt 0.9951753 -0.1768001
vt 0.9851753 -0.1768001
vt 0.9851753 0.3831967
vt 0.9951753 0.3831967
vt 0.5295353 1.201444
vt 0.5395353 1.20144
vt 0.5389271 -0.5585669
vt 0.528927 -0.5585636
vt 0.9911891 0.5908784
vt 1.001189 0.5908784
vt 1.001189 0.03088179
vt 0.9911891 0.03088179
vt 0.009248983 -0.5903734
vt -0.0007510255 -0.5903767
vt -0.001393795 1.269623
vt 0.008606194 1.269627
vt 0.9717879 -0.2086192
vt 0.9617879 -0.2086192
vt 0.9617879 0.4513888
vt 0.9717879 0.4513888
vt 0.0111376 1.269627
vt 0.0211376 1.269624
vt 0.02049481 -0.590377
vt 0.01049481 -0.5903736
vt 0.9734817 0.4513875
vt 0.9834815 0.4513875
vt 0.9834815 -0.2086178
vt 0.9734817 -0.2086178
usemtl Glass_Detailed_Lit_High_Mat
f 223/223/223 222/222/222 221/221/221
f 224/224/224 223/223/223 221/221/221
f 227/227/227 226/226/226 225/225/225
f 228/228/228 227/227/227 225/225/225
f 231/231/231 230/230/230 229/229/229
f 232/232/232 231/231/231 229/229/229
f 235/235/235 234/234/234 233/233/233
f 236/236/236 235/235/235 233/233/233
f 239/239/239 238/238/238 237/237/237
f 240/240/240 239/239/239 237/237/237
f 243/243/243 242/242/242 241/241/241
f 244/244/244 243/243/243 241/241/241
f 247/247/247 246/246/246 245/245/245
f 248/248/248 247/247/247 245/245/245
f 251/251/251 250/250/250 249/249/249
f 252/252/252 251/251/251 249/249/249
f 255/255/255 254/254/254 253/253/253
f 256/256/256 255/255/255 253/253/253
f 259/259/259 258/258/258 257/257/257
f 260/260/260 259/259/259 257/257/257
f 263/263/263 262/262/262 261/261/261
f 264/264/264 263/263/263 261/261/261
f 267/267/267 266/266/266 265/265/265
f 268/268/268 267/267/267 265/265/265
g QuadDecalSpawnPlane_(2)_176ee846
v 5.59023 0.29591 -0.11411
v 4.94231 0.29591 -0.11411
v 5.59023 2.14743 -0.11411
v 4.94231 2.14743 -0.11411
vn 5.266269 1.221666 -0.2476013
vn 5.266269 1.221666 -0.2476013
vn 5.266269 1.221666 -0.2476013
vn 5.266269 1.221666 -0.2476013
vt 0 0
vt 1 0
vt 0 1
vt 1 1
usemtl GlassDecalStencil (Instance)
f 270/270/270 272/272/272 269/269/269
f 271/271/271 269/269/269 272/272/272
g QuadDecalSpawnPlane_(3)_f97d1e32
v 4.7935 0.3422 -0.11411
v 4.24277 0.3422 -0.11411
v 4.7935 2.10114 -0.11411
v 4.24277 2.10114 -0.11411
vn 4.518131 1.221666 -0.256015
vn 4.518131 1.221666 -0.256015
vn 4.518131 1.221666 -0.256015
vn 4.518131 1.221666 -0.256015
vt 0 0
vt 1 0
vt 0 1
vt 1 1
usemtl GlassDecalStencil (Instance)
f 274/274/274 276/276/276 273/273/273
f 275/275/275 273/273/273 276/276/276
