mtllib Ceiling_a74a4cfb.mtl
g Ceiling_a74a4cfb
v -0.3597 2.67532 -0.87266
v -0.3597 2.67447 1.58813
v -0.3597 2.67391 3.21104
v -0.3597 3.22297 3.21123
v -0.3597 3.22353 1.58832
v -0.3597 3.22438 -0.87247
v 0.16922 2.6734 4.69057
v -0.3597 2.6734 4.69057
v -0.3597 2.67234 7.74012
v 2.7163 2.67234 7.74012
v 0.16922 2.67391 3.21104
v -0.3597 2.67532 -0.87266
v 0.1017 2.67391 3.21104
v -0.3597 2.67391 3.21104
v 5.79229 2.67532 -0.87266
v 5.79229 2.67383 3.43373
v 5.79229 2.67234 7.74012
v -0.3597 3.22438 -0.87247
v 5.79229 3.22438 -0.87247
v 5.79229 3.22289 3.43392
v 5.79229 3.2214 7.74031
v 2.7163 3.2214 7.74031
v 0.16922 3.22297 3.21123
v 0.1017 3.22297 3.21123
v -0.3597 3.22297 3.21123
v 0.16922 3.22246 4.69076
v -0.3597 3.2214 7.74031
v -0.3597 3.22246 4.69076
v 0.1017 2.67391 3.21104
v -0.3597 2.67391 3.21104
v -0.3597 3.22297 3.21123
v 0.1017 3.22297 3.21123
v 0.16922 2.67391 3.21104
v 0.16922 3.22297 3.21123
v 5.79229 2.67532 -0.87266
v 5.79229 3.22289 3.43392
v 5.79229 3.22438 -0.87247
v 5.79229 2.67383 3.43373
v 5.79229 3.2214 7.74031
v 5.79229 2.67234 7.74012
v 5.79229 2.67234 7.74012
v 2.7163 3.2214 7.74031
v 5.79229 3.2214 7.74031
v 2.7163 2.67234 7.74012
v -0.3597 3.2214 7.74031
v -0.3597 2.67234 7.74012
v -0.3597 2.6734 4.69057
v 0.16922 2.6734 4.69057
v 0.16922 3.22246 4.69076
v -0.3597 3.22246 4.69076
v -0.3597 2.67447 1.58813
v -0.3597 2.67532 -0.87266
v -0.3597 3.22438 -0.87247
v -0.3597 3.22353 1.58832
v -0.3597 2.67391 3.21104
v -0.3597 3.22297 3.21123
v -0.3597 2.67234 7.74012
v -0.3597 2.6734 4.69057
v -0.3597 3.22246 4.69076
v -0.3597 3.2214 7.74031
v -0.3597 2.67532 -0.87266
v 5.79229 2.67532 -0.87266
v 5.79229 3.22438 -0.87247
v -0.3597 3.22438 -0.87247
v 0.16922 2.6734 4.69057
v 0.16922 2.67391 3.21104
v 0.16922 3.22297 3.21123
v 0.16922 3.22246 4.69076
vn 0 0.6937706 4.0232E-05
vn 0.540598 0.3191199 4.0232E-05
vn 0 0.6937706 4.0232E-05
vn -0.5773503 0.1164204 4.0232E-05
vn -0.5773503 0.1164204 4.0232E-05
vn -0.5773503 0.1164203 4.0232E-05
vn -1.178012E-07 -0.4609299 -0.0001592481
vn 0 -0.4609299 -0.0001592944
vn 0 -0.4609299 -0.0001593194
vn 0 -0.4609299 -0.0001592985
vn 1.861289E-07 -0.4609299 -0.0001593372
vn 0 -0.4609299 -0.0001593083
vn 0 -0.4609299 -0.0001593552
vn 0 -0.4609299 -0.0001593561
vn 0 -0.4609299 -0.0001593114
vn -9.189931E-08 -0.4609299 -0.0001593482
vn 0 -0.4609299 -0.0001592389
vn 0 0.6937706 0.0002397249
vn 0 0.6937706 0.0002397029
vn 0 0.6937706 0.0002397502
vn 0 0.6937706 0.0002397298
vn 0 0.6937706 0.0002397149
vn -8.183308E-08 0.6937706 0.0002397841
vn 0 0.6937706 0.0002397907
vn 3.818666E-07 0.6937706 0.0002397004
vn -8.107931E-08 0.6937706 0.0002397121
vn 0 0.6937706 0.0002397834
vn 0 0.6937706 0.0002397584
vn 0 0.1162208 0.5773905
vn 0 0.1162208 0.5773905
vn 0 0.1162208 0.5773905
vn 0 0.1162208 0.5773905
vn 0 0.1162208 0.5773905
vn 0 0.1162208 0.5773905
vn 0.5773503 0.1164204 4.0232E-05
vn 0.5773503 0.1164207 4.0232E-05
vn 0.5773503 0.1164204 4.0232E-05
vn 0.5773503 0.1164208 4.0232E-05
vn 0.5773503 0.1164204 4.0232E-05
vn 0.5773503 0.1164204 4.0232E-05
vn 0 0.1162208 0.5773905
vn 0 0.1162208 0.5773905
vn 0 0.1162208 0.5773905
vn 0 0.1162208 0.5773905
vn 0 0.1162208 0.5773905
vn 0 0.1162208 0.5773905
vn 0 0.11662 -0.57731
vn 0 0.11662 -0.57731
vn 0 0.11662 -0.57731
vn 0 0.11662 -0.57731
vn -0.5773503 0.1164204 4.0232E-05
vn -0.5773503 0.1164203 4.0232E-05
vn -0.5773503 0.1164203 4.0232E-05
vn -0.5773503 0.1164204 4.0232E-05
vn -0.5773503 0.1164204 4.0232E-05
vn -0.5773503 0.1164204 4.0232E-05
vn -0.5773503 0.1164204 4.0232E-05
vn -0.5773503 0.1164204 4.0232E-05
vn -0.5773503 0.1164204 4.0232E-05
vn -0.5773503 0.1164204 4.0232E-05
vn 0 0.1166199 -0.57731
vn 0 0.1166199 -0.57731
vn 0 0.1166199 -0.57731
vn 0 0.1166199 -0.57731
vn -0.5773503 0.1164204 4.0232E-05
vn -0.5773503 0.1164204 4.0232E-05
vn -0.5773503 0.1164204 4.0232E-05
vn -0.5773503 0.1164204 4.0232E-05
vt 0 0
vt 0 0
vt 0 0
vt 1.206316 -1.268564
vt 1.206876 0.3543361
vt 1.207726 2.81513
vt -2.276528 1.568904
vt -2.805444 1.568904
vt -2.805444 4.618455
vt 0.2705514 4.618455
vt -2.276528 0.08936819
vt -2.805444 -3.99433
vt -2.344045 0.08936819
vt -2.805444 0.08936819
vt 3.346547 -3.99433
vt 3.346547 0.312063
vt 3.346547 4.618455
vt -2.355236 4.618455
vt 3.796755 4.618455
vt 3.796755 0.3120617
vt 3.796755 -3.99433
vt 0.7207586 -3.99433
vt -1.82632 0.5347565
vt -1.893837 0.5347565
vt -2.355236 0.5347565
vt -1.82632 -0.9447782
vt -2.355236 -3.99433
vt -2.355236 -0.9447782
vt 0.9866898 0.3715298
vt 0.5252963 0.3715298
vt 0.5252963 0.9205821
vt 0.9866898 0.9205813
vt 1.054207 0.3715298
vt 1.054207 0.9205821
vt -0.2511645 -3.994418
vt 0.2964049 0.3121646
vt 0.2978929 -3.994228
vt -0.2526535 0.3119747
vt 0.2949169 4.618556
vt -0.2541412 4.618365
vt 0.7037025 -2.405401
vt 1.25276 0.6705974
vt 1.25276 -2.405401
vt 0.7037025 0.6705974
vt 1.25276 3.746596
vt 0.7037025 3.746596
vt 0.4810536 0.9205866
vt 1.009973 0.9205866
vt 1.009973 0.3715252
vt 0.4810536 0.3715252
vt 0.6578189 0.3545248
vt 0.6586695 2.815319
vt 1.207726 2.81513
vt 1.206876 0.3543361
vt 0.6572579 -1.268375
vt 1.206316 -1.268564
vt 0.6054224 -0.7885553
vt 0.6064765 2.261003
vt 1.155533 2.260814
vt 1.154481 -0.7887448
vt 1.243683 3.299423
vt 1.243683 -2.85257
vt 0.6946265 -2.85257
vt 0.6946265 3.299423
vt 0.5599489 -0.06009394
vt 0.5604587 1.41944
vt 1.109517 1.41925
vt 1.109004 -0.06028342
usemtl Walldrywall3
f 3/3/3 2/2/2 1/1/1
f 6/6/6 5/5/5 4/4/4
f 9/9/9 8/8/8 7/7/7
f 7/7/7 10/10/10 9/9/9
f 10/10/10 7/7/7 11/11/11
f 10/10/10 11/11/11 12/12/12
f 11/11/11 13/13/13 12/12/12
f 13/13/13 14/14/14 12/12/12
f 10/10/10 12/12/12 15/15/15
f 10/10/10 15/15/15 16/16/16
f 16/16/16 17/17/17 10/10/10
f 20/20/20 19/19/19 18/18/18
f 18/18/18 21/21/21 20/20/20
f 18/18/18 22/22/22 21/21/21
f 18/18/18 23/23/23 22/22/22
f 18/18/18 24/24/24 23/23/23
f 18/18/18 25/25/25 24/24/24
f 22/22/22 23/23/23 26/26/26
f 26/26/26 27/27/27 22/22/22
f 26/26/26 28/28/28 27/27/27
f 31/31/31 30/30/30 29/29/29
f 32/32/32 31/31/31 29/29/29
f 32/32/32 29/29/29 33/33/33
f 34/34/34 32/32/32 33/33/33
f 37/37/37 36/36/36 35/35/35
f 36/36/36 38/38/38 35/35/35
f 36/36/36 39/39/39 38/38/38
f 39/39/39 40/40/40 38/38/38
f 43/43/43 42/42/42 41/41/41
f 42/42/42 44/44/44 41/41/41
f 42/42/42 45/45/45 44/44/44
f 45/45/45 46/46/46 44/44/44
f 49/49/49 48/48/48 47/47/47
f 50/50/50 49/49/49 47/47/47
f 53/53/53 52/52/52 51/51/51
f 54/54/54 53/53/53 51/51/51
f 54/54/54 51/51/51 55/55/55
f 56/56/56 54/54/54 55/55/55
f 59/59/59 58/58/58 57/57/57
f 60/60/60 59/59/59 57/57/57
f 63/63/63 62/62/62 61/61/61
f 64/64/64 63/63/63 61/61/61
f 67/67/67 66/66/66 65/65/65
f 68/68/68 67/67/67 65/65/65
g Ceiling_a74a4cfb
v -0.3597 2.67532 -0.87266
v -0.3597 2.67447 1.58813
v -0.3597 2.67391 3.21104
v -0.3597 3.22297 3.21123
v -0.3597 3.22353 1.58832
v -0.3597 3.22438 -0.87247
v 0.16922 2.6734 4.69057
v -0.3597 2.6734 4.69057
v -0.3597 2.67234 7.74012
v 2.7163 2.67234 7.74012
v 0.16922 2.67391 3.21104
v -0.3597 2.67532 -0.87266
v 0.1017 2.67391 3.21104
v -0.3597 2.67391 3.21104
v 5.79229 2.67532 -0.87266
v 5.79229 2.67383 3.43373
v 5.79229 2.67234 7.74012
v -0.3597 3.22438 -0.87247
v 5.79229 3.22438 -0.87247
v 5.79229 3.22289 3.43392
v 5.79229 3.2214 7.74031
v 2.7163 3.2214 7.74031
v 0.16922 3.22297 3.21123
v 0.1017 3.22297 3.21123
v -0.3597 3.22297 3.21123
v 0.16922 3.22246 4.69076
v -0.3597 3.2214 7.74031
v -0.3597 3.22246 4.69076
v 0.1017 2.67391 3.21104
v -0.3597 2.67391 3.21104
v -0.3597 3.22297 3.21123
v 0.1017 3.22297 3.21123
v 0.16922 2.67391 3.21104
v 0.16922 3.22297 3.21123
v 5.79229 2.67532 -0.87266
v 5.79229 3.22289 3.43392
v 5.79229 3.22438 -0.87247
v 5.79229 2.67383 3.43373
v 5.79229 3.2214 7.74031
v 5.79229 2.67234 7.74012
v 5.79229 2.67234 7.74012
v 2.7163 3.2214 7.74031
v 5.79229 3.2214 7.74031
v 2.7163 2.67234 7.74012
v -0.3597 3.2214 7.74031
v -0.3597 2.67234 7.74012
v -0.3597 2.6734 4.69057
v 0.16922 2.6734 4.69057
v 0.16922 3.22246 4.69076
v -0.3597 3.22246 4.69076
v -0.3597 2.67447 1.58813
v -0.3597 2.67532 -0.87266
v -0.3597 3.22438 -0.87247
v -0.3597 3.22353 1.58832
v -0.3597 2.67391 3.21104
v -0.3597 3.22297 3.21123
v -0.3597 2.67234 7.74012
v -0.3597 2.6734 4.69057
v -0.3597 3.22246 4.69076
v -0.3597 3.2214 7.74031
v -0.3597 2.67532 -0.87266
v 5.79229 2.67532 -0.87266
v 5.79229 3.22438 -0.87247
v -0.3597 3.22438 -0.87247
v 0.16922 2.6734 4.69057
v 0.16922 2.67391 3.21104
v 0.16922 3.22297 3.21123
v 0.16922 3.22246 4.69076
vn 0 0.6937706 4.0232E-05
vn 0.540598 0.3191199 4.0232E-05
vn 0 0.6937706 4.0232E-05
vn -0.5773503 0.1164204 4.0232E-05
vn -0.5773503 0.1164204 4.0232E-05
vn -0.5773503 0.1164203 4.0232E-05
vn -1.178012E-07 -0.4609299 -0.0001592481
vn 0 -0.4609299 -0.0001592944
vn 0 -0.4609299 -0.0001593194
vn 0 -0.4609299 -0.0001592985
vn 1.861289E-07 -0.4609299 -0.0001593372
vn 0 -0.4609299 -0.0001593083
vn 0 -0.4609299 -0.0001593552
vn 0 -0.4609299 -0.0001593561
vn 0 -0.4609299 -0.0001593114
vn -9.189931E-08 -0.4609299 -0.0001593482
vn 0 -0.4609299 -0.0001592389
vn 0 0.6937706 0.0002397249
vn 0 0.6937706 0.0002397029
vn 0 0.6937706 0.0002397502
vn 0 0.6937706 0.0002397298
vn 0 0.6937706 0.0002397149
vn -8.183308E-08 0.6937706 0.0002397841
vn 0 0.6937706 0.0002397907
vn 3.818666E-07 0.6937706 0.0002397004
vn -8.107931E-08 0.6937706 0.0002397121
vn 0 0.6937706 0.0002397834
vn 0 0.6937706 0.0002397584
vn 0 0.1162208 0.5773905
vn 0 0.1162208 0.5773905
vn 0 0.1162208 0.5773905
vn 0 0.1162208 0.5773905
vn 0 0.1162208 0.5773905
vn 0 0.1162208 0.5773905
vn 0.5773503 0.1164204 4.0232E-05
vn 0.5773503 0.1164207 4.0232E-05
vn 0.5773503 0.1164204 4.0232E-05
vn 0.5773503 0.1164208 4.0232E-05
vn 0.5773503 0.1164204 4.0232E-05
vn 0.5773503 0.1164204 4.0232E-05
vn 0 0.1162208 0.5773905
vn 0 0.1162208 0.5773905
vn 0 0.1162208 0.5773905
vn 0 0.1162208 0.5773905
vn 0 0.1162208 0.5773905
vn 0 0.1162208 0.5773905
vn 0 0.11662 -0.57731
vn 0 0.11662 -0.57731
vn 0 0.11662 -0.57731
vn 0 0.11662 -0.57731
vn -0.5773503 0.1164204 4.0232E-05
vn -0.5773503 0.1164203 4.0232E-05
vn -0.5773503 0.1164203 4.0232E-05
vn -0.5773503 0.1164204 4.0232E-05
vn -0.5773503 0.1164204 4.0232E-05
vn -0.5773503 0.1164204 4.0232E-05
vn -0.5773503 0.1164204 4.0232E-05
vn -0.5773503 0.1164204 4.0232E-05
vn -0.5773503 0.1164204 4.0232E-05
vn -0.5773503 0.1164204 4.0232E-05
vn 0 0.1166199 -0.57731
vn 0 0.1166199 -0.57731
vn 0 0.1166199 -0.57731
vn 0 0.1166199 -0.57731
vn -0.5773503 0.1164204 4.0232E-05
vn -0.5773503 0.1164204 4.0232E-05
vn -0.5773503 0.1164204 4.0232E-05
vn -0.5773503 0.1164204 4.0232E-05
vt 0 0
vt 0 0
vt 0 0
vt 1.206316 -1.268564
vt 1.206876 0.3543361
vt 1.207726 2.81513
vt -2.276528 1.568904
vt -2.805444 1.568904
vt -2.805444 4.618455
vt 0.2705514 4.618455
vt -2.276528 0.08936819
vt -2.805444 -3.99433
vt -2.344045 0.08936819
vt -2.805444 0.08936819
vt 3.346547 -3.99433
vt 3.346547 0.312063
vt 3.346547 4.618455
vt -2.355236 4.618455
vt 3.796755 4.618455
vt 3.796755 0.3120617
vt 3.796755 -3.99433
vt 0.7207586 -3.99433
vt -1.82632 0.5347565
vt -1.893837 0.5347565
vt -2.355236 0.5347565
vt -1.82632 -0.9447782
vt -2.355236 -3.99433
vt -2.355236 -0.9447782
vt 0.9866898 0.3715298
vt 0.5252963 0.3715298
vt 0.5252963 0.9205821
vt 0.9866898 0.9205813
vt 1.054207 0.3715298
vt 1.054207 0.9205821
vt -0.2511645 -3.994418
vt 0.2964049 0.3121646
vt 0.2978929 -3.994228
vt -0.2526535 0.3119747
vt 0.2949169 4.618556
vt -0.2541412 4.618365
vt 0.7037025 -2.405401
vt 1.25276 0.6705974
vt 1.25276 -2.405401
vt 0.7037025 0.6705974
vt 1.25276 3.746596
vt 0.7037025 3.746596
vt 0.4810536 0.9205866
vt 1.009973 0.9205866
vt 1.009973 0.3715252
vt 0.4810536 0.3715252
vt 0.6578189 0.3545248
vt 0.6586695 2.815319
vt 1.207726 2.81513
vt 1.206876 0.3543361
vt 0.6572579 -1.268375
vt 1.206316 -1.268564
vt 0.6054224 -0.7885553
vt 0.6064765 2.261003
vt 1.155533 2.260814
vt 1.154481 -0.7887448
vt 1.243683 3.299423
vt 1.243683 -2.85257
vt 0.6946265 -2.85257
vt 0.6946265 3.299423
vt 0.5599489 -0.06009394
vt 0.5604587 1.41944
vt 1.109517 1.41925
vt 1.109004 -0.06028342
usemtl Walldrywall3
f 71/71/71 70/70/70 69/69/69
f 74/74/74 73/73/73 72/72/72
f 77/77/77 76/76/76 75/75/75
f 75/75/75 78/78/78 77/77/77
f 78/78/78 75/75/75 79/79/79
f 78/78/78 79/79/79 80/80/80
f 79/79/79 81/81/81 80/80/80
f 81/81/81 82/82/82 80/80/80
f 78/78/78 80/80/80 83/83/83
f 78/78/78 83/83/83 84/84/84
f 84/84/84 85/85/85 78/78/78
f 88/88/88 87/87/87 86/86/86
f 86/86/86 89/89/89 88/88/88
f 86/86/86 90/90/90 89/89/89
f 86/86/86 91/91/91 90/90/90
f 86/86/86 92/92/92 91/91/91
f 86/86/86 93/93/93 92/92/92
f 90/90/90 91/91/91 94/94/94
f 94/94/94 95/95/95 90/90/90
f 94/94/94 96/96/96 95/95/95
f 99/99/99 98/98/98 97/97/97
f 100/100/100 99/99/99 97/97/97
f 100/100/100 97/97/97 101/101/101
f 102/102/102 100/100/100 101/101/101
f 105/105/105 104/104/104 103/103/103
f 104/104/104 106/106/106 103/103/103
f 104/104/104 107/107/107 106/106/106
f 107/107/107 108/108/108 106/106/106
f 111/111/111 110/110/110 109/109/109
f 110/110/110 112/112/112 109/109/109
f 110/110/110 113/113/113 112/112/112
f 113/113/113 114/114/114 112/112/112
f 117/117/117 116/116/116 115/115/115
f 118/118/118 117/117/117 115/115/115
f 121/121/121 120/120/120 119/119/119
f 122/122/122 121/121/121 119/119/119
f 122/122/122 119/119/119 123/123/123
f 124/124/124 122/122/122 123/123/123
f 127/127/127 126/126/126 125/125/125
f 128/128/128 127/127/127 125/125/125
f 131/131/131 130/130/130 129/129/129
f 132/132/132 131/131/131 129/129/129
f 135/135/135 134/134/134 133/133/133
f 136/136/136 135/135/135 133/133/133
