mtllib FP214:Baseboard_009_a6c415d7.mtl
g FP214:Baseboard.009_a6c415d7
v 4.985 0.07534 4.65763
v 4.985 -0.0016 4.6576
v 4.985 0 0.015
v 0 0.12 5E-05
v 0 0 0
v 5 0 0
v 5 0.12 5E-05
v 5 0 0
v 5 -0.0016 4.6576
v 5 0.03855 4.65761
v 5 0.1184 4.65764
v 5 0.12 5E-05
v 5 0.11759 7.00005
v 5 -0.00241 7
v 0 -0.00241 7
v 0 0.11759 7.00005
v 0 0.11759 7.00005
v 0 -0.00241 7
v 0 -0.00172 5
v 0 0.11828 5.00005
v 0 0.11828 5.00005
v 0 -0.00172 5
v 0.75 -0.00172 5
v 0.75 0.11828 5.00005
v 0.75 0.11828 5.00005
v 0.75 -0.00172 5
v 0.75 -0.00103 3
v 0.75 0.11897 3.00005
v 0.75 0.11897 3.00005
v 0.75 -0.00103 3
v 0 -0.00103 3
v 0 0.11897 3.00005
v 0 0.11897 3.00005
v 0 -0.00103 3
v 0 -0.00069 2
v 0 0.11931 2.00005
v 0 0.12 5E-05
v 0 0 0
v 0.015 0.12 0.01505
v 4.985 0.12 0.01505
v 4.985 0 0.015
v 0.015 0 0.015
v 4.985 0.12 0.01505
v 4.985 0.1184 4.65764
v 4.985 0.07534 4.65763
v 4.985 0 0.015
v 4.985 0.11759 6.98505
v 0.015 0.11759 6.98505
v 0.015 -0.00241 6.985
v 4.985 -0.00241 6.985
v 0.015 0.11759 6.98505
v 0.015 0.11827 5.01505
v 0.015 -0.00173 5.015
v 0.015 -0.00241 6.985
v 0.015 0.11827 5.01505
v 0.765 0.11827 5.01505
v 0.765 -0.00173 5.015
v 0.015 -0.00173 5.015
v 0.765 0.11827 5.01505
v 0.765 0.11897 2.98505
v 0.765 -0.00103 2.985
v 0.765 -0.00173 5.015
v 0.765 0.11897 2.98505
v 0.015 0.11897 2.98505
v 0.015 -0.00103 2.985
v 0.765 -0.00103 2.985
v 0.015 0.11897 2.98505
v 0.015 -0.00069 2
v 0.015 -0.00103 2.985
v 0.015 0.11931 2.00005
v 0.015 0.12 0.01505
v 0.015 0 0.015
v 5 0 0
v 4.985 -0.0016 4.6576
v 5 -0.0016 4.6576
v 4.985 0 0.015
v 0 0 0
v 0.015 0 0.015
v 0 -0.00069 2
v 0.015 -0.00069 2
v 0 -0.00103 3
v 0.015 -0.00103 2.985
v 0.75 -0.00103 3
v 0.765 -0.00103 2.985
v 0.75 -0.00172 5
v 0.765 -0.00173 5.015
v 0 -0.00172 5
v 0.015 -0.00173 5.015
v 0 -0.00241 7
v 0.015 -0.00241 6.985
v 5 -0.00241 7
v 4.985 -0.00241 6.985
v 4.985 -0.00195 5.6576
v 5 -0.00195 5.6576
v 5 0.11759 7.00005
v 4.985 0.11805 5.65764
v 5 0.11805 5.65764
v 4.985 0.11759 6.98505
v 0 0.11759 7.00005
v 0.015 0.11759 6.98505
v 0 0.11828 5.00005
v 0.015 0.11827 5.01505
v 0.75 0.11828 5.00005
v 0.765 0.11827 5.01505
v 0.75 0.11897 3.00005
v 0.765 0.11897 2.98505
v 0 0.11897 3.00005
v 0.015 0.11897 2.98505
v 0 0.11931 2.00005
v 0.015 0.11931 2.00005
v 0 0.12 5E-05
v 0.015 0.12 0.01505
v 5 0.12 5E-05
v 4.985 0.12 0.01505
v 4.985 0.1184 4.65764
v 5 0.1184 4.65764
v 5 0.03855 4.65761
v 5 -0.0016 4.6576
v 4.985 -0.0016 4.6576
v 4.985 0.07534 4.65763
v 5 0.1184 4.65764
v 4.985 0.1184 4.65764
v 5 -0.00195 5.6576
v 5 0.11805 5.65764
v 4.985 0.11805 5.65764
v 4.985 -0.00195 5.6576
v 4.985 0.11805 5.65764
v 4.985 0.11759 6.98505
v 4.985 -0.00241 6.985
v 4.985 -0.00195 5.6576
v 5 -0.00195 5.6576
v 5 -0.00241 7
v 5 0.11759 7.00005
v 5 0.11805 5.65764
vn -0.5773503 9.127416E-07 0
vn -0.5773503 -3.56604E-06 0
vn -0.5773503 -2.275925E-06 -1.130975E-07
vn 0 0.000199518 -0.5773503
vn 0 0.000199518 -0.5773503
vn 0 0.000199518 -0.5773503
vn 0 0.000199518 -0.5773503
vn 0.5773503 -3.166924E-06 0
vn 0.5773503 0 0
vn 0.5773503 2.885555E-06 0
vn 0.5773503 4.136411E-06 0
vn 0.5773503 -3.228095E-06 0
vn 0 -0.0002026223 0.5773503
vn 0 -0.0002026223 0.5773503
vn 0 -0.0002026224 0.5773503
vn 0 -0.0002026224 0.5773503
vn -0.5773503 0 0
vn -0.5773503 0 0
vn -0.5773503 0 0
vn -0.5773503 0 0
vn 0 0.0001996857 -0.5773503
vn 0 0.0001996857 -0.5773503
vn 0 0.0001996857 -0.5773503
vn 0 0.0001996857 -0.5773503
vn -0.5773503 -3.210165E-07 0
vn -0.5773503 -3.523866E-07 0
vn -0.5773503 4.384788E-07 0
vn -0.5773503 4.69849E-07 0
vn 0 -0.0001996857 0.5773503
vn 0 -0.0001996857 0.5773503
vn 0 -0.0001996857 0.5773503
vn 0 -0.0001996857 0.5773503
vn -0.5773503 0 0
vn -0.5773503 0 0
vn -0.5773503 0 0
vn -0.5773503 0 0
vn -0.5773503 0 0
vn -0.5773503 0 0
vn 0 -0.0001995137 0.5773503
vn 0 -0.0001995137 0.5773503
vn 0 -0.0001995137 0.5773503
vn 0 -0.0001995137 0.5773503
vn -0.5773503 -2.243083E-06 -1.136032E-07
vn -0.5773503 9.026028E-06 0
vn -0.5773503 9.127416E-07 0
vn -0.5773503 -2.275925E-06 -1.130975E-07
vn 0 0.0001996857 -0.5773503
vn 0 0.0001996857 -0.5773503
vn 0 0.0001996857 -0.5773503
vn 0 0.0001996857 -0.5773503
vn 0.5773503 0 0
vn 0.5773503 0 0
vn 0.5773503 0 0
vn 0.5773503 0 0
vn 0 -0.0001967492 0.5773503
vn 0 -0.0001967492 0.5773503
vn 0 -0.0001967492 0.5773503
vn 0 -0.0001967492 0.5773503
vn 0.5773503 0 0
vn 0.5773503 -4.629055E-07 0
vn 0.5773503 -4.455057E-07 0
vn 0.5773503 0 0
vn 0 0.0001982175 -0.5773503
vn 0 0.0001982175 -0.5773503
vn 0 0.0001982175 -0.5773503
vn 0 0.0001982175 -0.5773503
vn 0.5773503 0 0
vn 0.5773503 0 0
vn 0.5773503 0 0
vn 0.5773503 0 0
vn 0.5773503 0 0
vn 0.5773503 0 0
vn 0 -0.5773503 -0.0001995176
vn 0 -0.5773503 -0.0001995172
vn 0 -0.5773503 -0.0001995172
vn 0 -0.5773503 -0.0001995176
vn 0 -0.5773503 -0.000199518
vn 0 -0.5773503 -0.0001995179
vn 0 -0.5773503 -0.000199518
vn 0 -0.5773503 -0.000199518
vn 0 -0.5773503 -0.0001995203
vn 0 -0.5773503 -0.0001995203
vn 0 -0.5773503 -0.0001995221
vn 0 -0.5773503 -0.0001995221
vn 0 -0.5773503 -0.0001995158
vn 0 -0.5773503 -0.0001995157
vn 0 -0.5773503 -0.0001995136
vn 0 -0.5773503 -0.0001995135
vn 0 -0.5773503 -0.0001995204
vn 0 -0.5773503 -0.0001995204
vn 0 -0.5773503 -0.0001995302
vn 0 -0.5773503 -0.0001995302
vn 0 -0.5773503 -0.00019952
vn 0 -0.5773503 -0.00019952
vn 1.069302E-07 0.5773503 0.0001998656
vn 0 0.5773503 0.0001995216
vn 0 0.5773503 0.0001995217
vn 1.084808E-07 0.5773503 0.0001998658
vn -1.474475E-07 0.5773503 0.0001999785
vn -1.461612E-07 0.5773503 0.0001999791
vn 6.492767E-07 0.5773503 0.0001997722
vn 6.593248E-07 0.5773503 0.0001997724
vn 6.567205E-07 0.5773503 0.0001998083
vn 6.518701E-07 0.5773503 0.0001998086
vn 1.520661E-07 0.5773503 0.0001994428
vn 1.504835E-07 0.5773503 0.0001994409
vn 1.090719E-07 0.5773503 0.000199261
vn 1.083732E-07 0.5773503 0.0001992578
vn 0 0.5773503 0.0001995186
vn 0 0.5773503 0.0001995185
vn 0 0.5773503 0.0001998393
vn -5.780835E-08 0.5773503 0.0001998383
vn 9.431207E-08 0.5773503 0.0001992207
vn 9.470049E-08 0.5773503 0.0001992186
vn 0 0.5773503 0.0001995161
vn 0 0.5773503 0.0001995161
vn 1.961047E-05 -0.0001987525 0.5773503
vn 0 -0.0001930583 0.5773503
vn 8.814111E-06 -0.0001952824 0.5773503
vn 3.065105E-06 -0.0001982958 0.5773503
vn 0 -0.0001944285 0.5773503
vn 0 -0.0001923298 0.5773503
vn 0 0.0001996848 -0.5773503
vn 0 0.0001996848 -0.5773503
vn 0 0.0001996848 -0.5773503
vn 0 0.0001996848 -0.5773503
vn -0.5773503 0 3.982064E-07
vn -0.5773503 0 3.982059E-07
vn -0.5773503 0 3.982059E-07
vn -0.5773503 0 3.982064E-07
vn 0.5773503 -4.96439E-06 0
vn 0.5773503 5.600089E-06 0
vn 0.5773503 4.964396E-06 0
vn 0.5773503 -5.600089E-06 0
vt 0.9969999 0.6412013
vt 0.997 5.452496E-06
vt 0.997 0
vt 0 0.9999905
vt 0 0
vt 1 0
vt 1 0.9999905
vt 1 0
vt 1 5.452496E-06
vt 1 0.3346306
vt 1 0.9999973
vt 1 0.9999905
vt 1 1
vt 1 6.81562E-06
vt 0 6.81562E-06
vt 0 1
vt 0 1
vt 0 6.81562E-06
vt 0 5.452496E-06
vt 0 0.9999973
vt 0 0.9999973
vt 0 5.452496E-06
vt 0.15 5.452496E-06
vt 0.15 0.9999973
vt 0.15 0.9999973
vt 0.15 5.452496E-06
vt 0.15 4.089372E-06
vt 0.15 0.9999959
vt 0.15 0.9999959
vt 0.15 4.089372E-06
vt 0 4.089372E-06
vt 0 0.9999959
vt 0 0.9999959
vt 0 4.089372E-06
vt 0 2.726248E-06
vt 0 0.9999932
vt 0 0.9999905
vt 0 0
vt 0.002999991 0.9999905
vt 0.997 0.9999905
vt 0.997 0
vt 0.002999991 0
vt 0.997 0.9999905
vt 0.997 0.9999973
vt 0.9969999 0.6412013
vt 0.997 0
vt 0.997 1
vt 0.002999991 1
vt 0.002999991 6.81562E-06
vt 0.997 6.81562E-06
vt 0.002999991 1
vt 0.002999991 0.9999973
vt 0.002999991 5.452496E-06
vt 0.002999991 6.81562E-06
vt 0.002999991 0.9999973
vt 0.153 0.9999973
vt 0.153 5.452496E-06
vt 0.002999991 5.452496E-06
vt 0.153 0.9999973
vt 0.153 0.9999959
vt 0.153 4.089372E-06
vt 0.153 5.452496E-06
vt 0.153 0.9999959
vt 0.002999991 0.9999959
vt 0.002999991 4.089372E-06
vt 0.153 4.089372E-06
vt 0.002999991 0.9999959
vt 0.002999991 2.726248E-06
vt 0.002999991 4.089372E-06
vt 0.002999991 0.9999932
vt 0.002999991 0.9999905
vt 0.002999991 0
vt 1 0
vt 0.997 5.452496E-06
vt 1 5.452496E-06
vt 0.997 0
vt 0 0
vt 0.002999991 0
vt 0 2.726248E-06
vt 0.002999991 2.726248E-06
vt 0 4.089372E-06
vt 0.002999991 4.089372E-06
vt 0.15 4.089372E-06
vt 0.153 4.089372E-06
vt 0.15 5.452496E-06
vt 0.153 5.452496E-06
vt 0 5.452496E-06
vt 0.002999991 5.452496E-06
vt 0 6.81562E-06
vt 0.002999991 6.81562E-06
vt 1 6.81562E-06
vt 0.997 6.81562E-06
vt 0.9969999 6.81562E-06
vt 1 6.81562E-06
vt 1 1
vt 0.9969999 0.9999973
vt 1 0.9999973
vt 0.997 1
vt 0 1
vt 0.002999991 1
vt 0 0.9999973
vt 0.002999991 0.9999973
vt 0.15 0.9999973
vt 0.153 0.9999973
vt 0.15 0.9999959
vt 0.153 0.9999959
vt 0 0.9999959
vt 0.002999991 0.9999959
vt 0 0.9999932
vt 0.002999991 0.9999932
vt 0 0.9999905
vt 0.002999991 0.9999905
vt 1 0.9999905
vt 0.997 0.9999905
vt 0.997 0.9999973
vt 1 0.9999973
vt 1 0.3346306
vt 1 5.452496E-06
vt 0.997 5.452496E-06
vt 0.9969999 0.6412013
vt 1 0.9999973
vt 0.997 0.9999973
vt 1 6.81562E-06
vt 1 0.9999973
vt 0.9969999 0.9999973
vt 0.9969999 6.81562E-06
vt 0.9969999 0.9999973
vt 0.997 1
vt 0.997 6.81562E-06
vt 0.9969999 6.81562E-06
vt 1 6.81562E-06
vt 1 6.81562E-06
vt 1 1
vt 1 0.9999973
usemtl trim
f 3/3/3 2/2/2 1/1/1
f 6/6/6 5/5/5 4/4/4
f 7/7/7 6/6/6 4/4/4
f 10/10/10 9/9/9 8/8/8
f 8/8/8 11/11/11 10/10/10
f 8/8/8 12/12/12 11/11/11
f 15/15/15 14/14/14 13/13/13
f 16/16/16 15/15/15 13/13/13
f 19/19/19 18/18/18 17/17/17
f 20/20/20 19/19/19 17/17/17
f 23/23/23 22/22/22 21/21/21
f 24/24/24 23/23/23 21/21/21
f 27/27/27 26/26/26 25/25/25
f 28/28/28 27/27/27 25/25/25
f 31/31/31 30/30/30 29/29/29
f 32/32/32 31/31/31 29/29/29
f 35/35/35 34/34/34 33/33/33
f 36/36/36 35/35/35 33/33/33
f 35/35/35 36/36/36 37/37/37
f 38/38/38 35/35/35 37/37/37
f 41/41/41 40/40/40 39/39/39
f 42/42/42 41/41/41 39/39/39
f 45/45/45 44/44/44 43/43/43
f 45/45/45 43/43/43 46/46/46
f 49/49/49 48/48/48 47/47/47
f 50/50/50 49/49/49 47/47/47
f 53/53/53 52/52/52 51/51/51
f 54/54/54 53/53/53 51/51/51
f 57/57/57 56/56/56 55/55/55
f 58/58/58 57/57/57 55/55/55
f 61/61/61 60/60/60 59/59/59
f 62/62/62 61/61/61 59/59/59
f 65/65/65 64/64/64 63/63/63
f 66/66/66 65/65/65 63/63/63
f 69/69/69 68/68/68 67/67/67
f 68/68/68 70/70/70 67/67/67
f 70/70/70 68/68/68 71/71/71
f 68/68/68 72/72/72 71/71/71
f 75/75/75 74/74/74 73/73/73
f 74/74/74 76/76/76 73/73/73
f 73/73/73 76/76/76 77/77/77
f 76/76/76 78/78/78 77/77/77
f 77/77/77 78/78/78 79/79/79
f 78/78/78 80/80/80 79/79/79
f 79/79/79 80/80/80 81/81/81
f 80/80/80 82/82/82 81/81/81
f 81/81/81 82/82/82 83/83/83
f 82/82/82 84/84/84 83/83/83
f 83/83/83 84/84/84 85/85/85
f 84/84/84 86/86/86 85/85/85
f 85/85/85 86/86/86 87/87/87
f 86/86/86 88/88/88 87/87/87
f 87/87/87 88/88/88 89/89/89
f 88/88/88 90/90/90 89/89/89
f 89/89/89 90/90/90 91/91/91
f 90/90/90 92/92/92 91/91/91
f 91/91/91 92/92/92 93/93/93
f 94/94/94 91/91/91 93/93/93
f 97/97/97 96/96/96 95/95/95
f 96/96/96 98/98/98 95/95/95
f 95/95/95 98/98/98 99/99/99
f 98/98/98 100/100/100 99/99/99
f 99/99/99 100/100/100 101/101/101
f 100/100/100 102/102/102 101/101/101
f 101/101/101 102/102/102 103/103/103
f 102/102/102 104/104/104 103/103/103
f 103/103/103 104/104/104 105/105/105
f 104/104/104 106/106/106 105/105/105
f 105/105/105 106/106/106 107/107/107
f 106/106/106 108/108/108 107/107/107
f 107/107/107 108/108/108 109/109/109
f 108/108/108 110/110/110 109/109/109
f 109/109/109 110/110/110 111/111/111
f 110/110/110 112/112/112 111/111/111
f 111/111/111 112/112/112 113/113/113
f 112/112/112 114/114/114 113/113/113
f 113/113/113 114/114/114 115/115/115
f 116/116/116 113/113/113 115/115/115
f 119/119/119 118/118/118 117/117/117
f 117/117/117 120/120/120 119/119/119
f 117/117/117 121/121/121 120/120/120
f 121/121/121 122/122/122 120/120/120
f 125/125/125 124/124/124 123/123/123
f 126/126/126 125/125/125 123/123/123
f 129/129/129 128/128/128 127/127/127
f 130/130/130 129/129/129 127/127/127
f 133/133/133 132/132/132 131/131/131
f 134/134/134 133/133/133 131/131/131
g FP214:Baseboard.009_a6c415d7
v 4.985 0.07534 4.65763
v 4.985 -0.0016 4.6576
v 4.985 0 0.015
v 0 0.12 5E-05
v 0 0 0
v 5 0 0
v 5 0.12 5E-05
v 5 0 0
v 5 -0.0016 4.6576
v 5 0.03855 4.65761
v 5 0.1184 4.65764
v 5 0.12 5E-05
v 5 0.11759 7.00005
v 5 -0.00241 7
v 0 -0.00241 7
v 0 0.11759 7.00005
v 0 0.11759 7.00005
v 0 -0.00241 7
v 0 -0.00172 5
v 0 0.11828 5.00005
v 0 0.11828 5.00005
v 0 -0.00172 5
v 0.75 -0.00172 5
v 0.75 0.11828 5.00005
v 0.75 0.11828 5.00005
v 0.75 -0.00172 5
v 0.75 -0.00103 3
v 0.75 0.11897 3.00005
v 0.75 0.11897 3.00005
v 0.75 -0.00103 3
v 0 -0.00103 3
v 0 0.11897 3.00005
v 0 0.11897 3.00005
v 0 -0.00103 3
v 0 -0.00069 2
v 0 0.11931 2.00005
v 0 0.12 5E-05
v 0 0 0
v 0.015 0.12 0.01505
v 4.985 0.12 0.01505
v 4.985 0 0.015
v 0.015 0 0.015
v 4.985 0.12 0.01505
v 4.985 0.1184 4.65764
v 4.985 0.07534 4.65763
v 4.985 0 0.015
v 4.985 0.11759 6.98505
v 0.015 0.11759 6.98505
v 0.015 -0.00241 6.985
v 4.985 -0.00241 6.985
v 0.015 0.11759 6.98505
v 0.015 0.11827 5.01505
v 0.015 -0.00173 5.015
v 0.015 -0.00241 6.985
v 0.015 0.11827 5.01505
v 0.765 0.11827 5.01505
v 0.765 -0.00173 5.015
v 0.015 -0.00173 5.015
v 0.765 0.11827 5.01505
v 0.765 0.11897 2.98505
v 0.765 -0.00103 2.985
v 0.765 -0.00173 5.015
v 0.765 0.11897 2.98505
v 0.015 0.11897 2.98505
v 0.015 -0.00103 2.985
v 0.765 -0.00103 2.985
v 0.015 0.11897 2.98505
v 0.015 -0.00069 2
v 0.015 -0.00103 2.985
v 0.015 0.11931 2.00005
v 0.015 0.12 0.01505
v 0.015 0 0.015
v 5 0 0
v 4.985 -0.0016 4.6576
v 5 -0.0016 4.6576
v 4.985 0 0.015
v 0 0 0
v 0.015 0 0.015
v 0 -0.00069 2
v 0.015 -0.00069 2
v 0 -0.00103 3
v 0.015 -0.00103 2.985
v 0.75 -0.00103 3
v 0.765 -0.00103 2.985
v 0.75 -0.00172 5
v 0.765 -0.00173 5.015
v 0 -0.00172 5
v 0.015 -0.00173 5.015
v 0 -0.00241 7
v 0.015 -0.00241 6.985
v 5 -0.00241 7
v 4.985 -0.00241 6.985
v 4.985 -0.00195 5.6576
v 5 -0.00195 5.6576
v 5 0.11759 7.00005
v 4.985 0.11805 5.65764
v 5 0.11805 5.65764
v 4.985 0.11759 6.98505
v 0 0.11759 7.00005
v 0.015 0.11759 6.98505
v 0 0.11828 5.00005
v 0.015 0.11827 5.01505
v 0.75 0.11828 5.00005
v 0.765 0.11827 5.01505
v 0.75 0.11897 3.00005
v 0.765 0.11897 2.98505
v 0 0.11897 3.00005
v 0.015 0.11897 2.98505
v 0 0.11931 2.00005
v 0.015 0.11931 2.00005
v 0 0.12 5E-05
v 0.015 0.12 0.01505
v 5 0.12 5E-05
v 4.985 0.12 0.01505
v 4.985 0.1184 4.65764
v 5 0.1184 4.65764
v 5 0.03855 4.65761
v 5 -0.0016 4.6576
v 4.985 -0.0016 4.6576
v 4.985 0.07534 4.65763
v 5 0.1184 4.65764
v 4.985 0.1184 4.65764
v 5 -0.00195 5.6576
v 5 0.11805 5.65764
v 4.985 0.11805 5.65764
v 4.985 -0.00195 5.6576
v 4.985 0.11805 5.65764
v 4.985 0.11759 6.98505
v 4.985 -0.00241 6.985
v 4.985 -0.00195 5.6576
v 5 -0.00195 5.6576
v 5 -0.00241 7
v 5 0.11759 7.00005
v 5 0.11805 5.65764
vn -0.5773503 9.127416E-07 0
vn -0.5773503 -3.56604E-06 0
vn -0.5773503 -2.275925E-06 -1.130975E-07
vn 0 0.000199518 -0.5773503
vn 0 0.000199518 -0.5773503
vn 0 0.000199518 -0.5773503
vn 0 0.000199518 -0.5773503
vn 0.5773503 -3.166924E-06 0
vn 0.5773503 0 0
vn 0.5773503 2.885555E-06 0
vn 0.5773503 4.136411E-06 0
vn 0.5773503 -3.228095E-06 0
vn 0 -0.0002026223 0.5773503
vn 0 -0.0002026223 0.5773503
vn 0 -0.0002026224 0.5773503
vn 0 -0.0002026224 0.5773503
vn -0.5773503 0 0
vn -0.5773503 0 0
vn -0.5773503 0 0
vn -0.5773503 0 0
vn 0 0.0001996857 -0.5773503
vn 0 0.0001996857 -0.5773503
vn 0 0.0001996857 -0.5773503
vn 0 0.0001996857 -0.5773503
vn -0.5773503 -3.210165E-07 0
vn -0.5773503 -3.523866E-07 0
vn -0.5773503 4.384788E-07 0
vn -0.5773503 4.69849E-07 0
vn 0 -0.0001996857 0.5773503
vn 0 -0.0001996857 0.5773503
vn 0 -0.0001996857 0.5773503
vn 0 -0.0001996857 0.5773503
vn -0.5773503 0 0
vn -0.5773503 0 0
vn -0.5773503 0 0
vn -0.5773503 0 0
vn -0.5773503 0 0
vn -0.5773503 0 0
vn 0 -0.0001995137 0.5773503
vn 0 -0.0001995137 0.5773503
vn 0 -0.0001995137 0.5773503
vn 0 -0.0001995137 0.5773503
vn -0.5773503 -2.243083E-06 -1.136032E-07
vn -0.5773503 9.026028E-06 0
vn -0.5773503 9.127416E-07 0
vn -0.5773503 -2.275925E-06 -1.130975E-07
vn 0 0.0001996857 -0.5773503
vn 0 0.0001996857 -0.5773503
vn 0 0.0001996857 -0.5773503
vn 0 0.0001996857 -0.5773503
vn 0.5773503 0 0
vn 0.5773503 0 0
vn 0.5773503 0 0
vn 0.5773503 0 0
vn 0 -0.0001967492 0.5773503
vn 0 -0.0001967492 0.5773503
vn 0 -0.0001967492 0.5773503
vn 0 -0.0001967492 0.5773503
vn 0.5773503 0 0
vn 0.5773503 -4.629055E-07 0
vn 0.5773503 -4.455057E-07 0
vn 0.5773503 0 0
vn 0 0.0001982175 -0.5773503
vn 0 0.0001982175 -0.5773503
vn 0 0.0001982175 -0.5773503
vn 0 0.0001982175 -0.5773503
vn 0.5773503 0 0
vn 0.5773503 0 0
vn 0.5773503 0 0
vn 0.5773503 0 0
vn 0.5773503 0 0
vn 0.5773503 0 0
vn 0 -0.5773503 -0.0001995176
vn 0 -0.5773503 -0.0001995172
vn 0 -0.5773503 -0.0001995172
vn 0 -0.5773503 -0.0001995176
vn 0 -0.5773503 -0.000199518
vn 0 -0.5773503 -0.0001995179
vn 0 -0.5773503 -0.000199518
vn 0 -0.5773503 -0.000199518
vn 0 -0.5773503 -0.0001995203
vn 0 -0.5773503 -0.0001995203
vn 0 -0.5773503 -0.0001995221
vn 0 -0.5773503 -0.0001995221
vn 0 -0.5773503 -0.0001995158
vn 0 -0.5773503 -0.0001995157
vn 0 -0.5773503 -0.0001995136
vn 0 -0.5773503 -0.0001995135
vn 0 -0.5773503 -0.0001995204
vn 0 -0.5773503 -0.0001995204
vn 0 -0.5773503 -0.0001995302
vn 0 -0.5773503 -0.0001995302
vn 0 -0.5773503 -0.00019952
vn 0 -0.5773503 -0.00019952
vn 1.069302E-07 0.5773503 0.0001998656
vn 0 0.5773503 0.0001995216
vn 0 0.5773503 0.0001995217
vn 1.084808E-07 0.5773503 0.0001998658
vn -1.474475E-07 0.5773503 0.0001999785
vn -1.461612E-07 0.5773503 0.0001999791
vn 6.492767E-07 0.5773503 0.0001997722
vn 6.593248E-07 0.5773503 0.0001997724
vn 6.567205E-07 0.5773503 0.0001998083
vn 6.518701E-07 0.5773503 0.0001998086
vn 1.520661E-07 0.5773503 0.0001994428
vn 1.504835E-07 0.5773503 0.0001994409
vn 1.090719E-07 0.5773503 0.000199261
vn 1.083732E-07 0.5773503 0.0001992578
vn 0 0.5773503 0.0001995186
vn 0 0.5773503 0.0001995185
vn 0 0.5773503 0.0001998393
vn -5.780835E-08 0.5773503 0.0001998383
vn 9.431207E-08 0.5773503 0.0001992207
vn 9.470049E-08 0.5773503 0.0001992186
vn 0 0.5773503 0.0001995161
vn 0 0.5773503 0.0001995161
vn 1.961047E-05 -0.0001987525 0.5773503
vn 0 -0.0001930583 0.5773503
vn 8.814111E-06 -0.0001952824 0.5773503
vn 3.065105E-06 -0.0001982958 0.5773503
vn 0 -0.0001944285 0.5773503
vn 0 -0.0001923298 0.5773503
vn 0 0.0001996848 -0.5773503
vn 0 0.0001996848 -0.5773503
vn 0 0.0001996848 -0.5773503
vn 0 0.0001996848 -0.5773503
vn -0.5773503 0 3.982064E-07
vn -0.5773503 0 3.982059E-07
vn -0.5773503 0 3.982059E-07
vn -0.5773503 0 3.982064E-07
vn 0.5773503 -4.96439E-06 0
vn 0.5773503 5.600089E-06 0
vn 0.5773503 4.964396E-06 0
vn 0.5773503 -5.600089E-06 0
vt 0.9969999 0.6412013
vt 0.997 5.452496E-06
vt 0.997 0
vt 0 0.9999905
vt 0 0
vt 1 0
vt 1 0.9999905
vt 1 0
vt 1 5.452496E-06
vt 1 0.3346306
vt 1 0.9999973
vt 1 0.9999905
vt 1 1
vt 1 6.81562E-06
vt 0 6.81562E-06
vt 0 1
vt 0 1
vt 0 6.81562E-06
vt 0 5.452496E-06
vt 0 0.9999973
vt 0 0.9999973
vt 0 5.452496E-06
vt 0.15 5.452496E-06
vt 0.15 0.9999973
vt 0.15 0.9999973
vt 0.15 5.452496E-06
vt 0.15 4.089372E-06
vt 0.15 0.9999959
vt 0.15 0.9999959
vt 0.15 4.089372E-06
vt 0 4.089372E-06
vt 0 0.9999959
vt 0 0.9999959
vt 0 4.089372E-06
vt 0 2.726248E-06
vt 0 0.9999932
vt 0 0.9999905
vt 0 0
vt 0.002999991 0.9999905
vt 0.997 0.9999905
vt 0.997 0
vt 0.002999991 0
vt 0.997 0.9999905
vt 0.997 0.9999973
vt 0.9969999 0.6412013
vt 0.997 0
vt 0.997 1
vt 0.002999991 1
vt 0.002999991 6.81562E-06
vt 0.997 6.81562E-06
vt 0.002999991 1
vt 0.002999991 0.9999973
vt 0.002999991 5.452496E-06
vt 0.002999991 6.81562E-06
vt 0.002999991 0.9999973
vt 0.153 0.9999973
vt 0.153 5.452496E-06
vt 0.002999991 5.452496E-06
vt 0.153 0.9999973
vt 0.153 0.9999959
vt 0.153 4.089372E-06
vt 0.153 5.452496E-06
vt 0.153 0.9999959
vt 0.002999991 0.9999959
vt 0.002999991 4.089372E-06
vt 0.153 4.089372E-06
vt 0.002999991 0.9999959
vt 0.002999991 2.726248E-06
vt 0.002999991 4.089372E-06
vt 0.002999991 0.9999932
vt 0.002999991 0.9999905
vt 0.002999991 0
vt 1 0
vt 0.997 5.452496E-06
vt 1 5.452496E-06
vt 0.997 0
vt 0 0
vt 0.002999991 0
vt 0 2.726248E-06
vt 0.002999991 2.726248E-06
vt 0 4.089372E-06
vt 0.002999991 4.089372E-06
vt 0.15 4.089372E-06
vt 0.153 4.089372E-06
vt 0.15 5.452496E-06
vt 0.153 5.452496E-06
vt 0 5.452496E-06
vt 0.002999991 5.452496E-06
vt 0 6.81562E-06
vt 0.002999991 6.81562E-06
vt 1 6.81562E-06
vt 0.997 6.81562E-06
vt 0.9969999 6.81562E-06
vt 1 6.81562E-06
vt 1 1
vt 0.9969999 0.9999973
vt 1 0.9999973
vt 0.997 1
vt 0 1
vt 0.002999991 1
vt 0 0.9999973
vt 0.002999991 0.9999973
vt 0.15 0.9999973
vt 0.153 0.9999973
vt 0.15 0.9999959
vt 0.153 0.9999959
vt 0 0.9999959
vt 0.002999991 0.9999959
vt 0 0.9999932
vt 0.002999991 0.9999932
vt 0 0.9999905
vt 0.002999991 0.9999905
vt 1 0.9999905
vt 0.997 0.9999905
vt 0.997 0.9999973
vt 1 0.9999973
vt 1 0.3346306
vt 1 5.452496E-06
vt 0.997 5.452496E-06
vt 0.9969999 0.6412013
vt 1 0.9999973
vt 0.997 0.9999973
vt 1 6.81562E-06
vt 1 0.9999973
vt 0.9969999 0.9999973
vt 0.9969999 6.81562E-06
vt 0.9969999 0.9999973
vt 0.997 1
vt 0.997 6.81562E-06
vt 0.9969999 6.81562E-06
vt 1 6.81562E-06
vt 1 6.81562E-06
vt 1 1
vt 1 0.9999973
usemtl trim
f 137/137/137 136/136/136 135/135/135
f 140/140/140 139/139/139 138/138/138
f 141/141/141 140/140/140 138/138/138
f 144/144/144 143/143/143 142/142/142
f 142/142/142 145/145/145 144/144/144
f 142/142/142 146/146/146 145/145/145
f 149/149/149 148/148/148 147/147/147
f 150/150/150 149/149/149 147/147/147
f 153/153/153 152/152/152 151/151/151
f 154/154/154 153/153/153 151/151/151
f 157/157/157 156/156/156 155/155/155
f 158/158/158 157/157/157 155/155/155
f 161/161/161 160/160/160 159/159/159
f 162/162/162 161/161/161 159/159/159
f 165/165/165 164/164/164 163/163/163
f 166/166/166 165/165/165 163/163/163
f 169/169/169 168/168/168 167/167/167
f 170/170/170 169/169/169 167/167/167
f 169/169/169 170/170/170 171/171/171
f 172/172/172 169/169/169 171/171/171
f 175/175/175 174/174/174 173/173/173
f 176/176/176 175/175/175 173/173/173
f 179/179/179 178/178/178 177/177/177
f 179/179/179 177/177/177 180/180/180
f 183/183/183 182/182/182 181/181/181
f 184/184/184 183/183/183 181/181/181
f 187/187/187 186/186/186 185/185/185
f 188/188/188 187/187/187 185/185/185
f 191/191/191 190/190/190 189/189/189
f 192/192/192 191/191/191 189/189/189
f 195/195/195 194/194/194 193/193/193
f 196/196/196 195/195/195 193/193/193
f 199/199/199 198/198/198 197/197/197
f 200/200/200 199/199/199 197/197/197
f 203/203/203 202/202/202 201/201/201
f 202/202/202 204/204/204 201/201/201
f 204/204/204 202/202/202 205/205/205
f 202/202/202 206/206/206 205/205/205
f 209/209/209 208/208/208 207/207/207
f 208/208/208 210/210/210 207/207/207
f 207/207/207 210/210/210 211/211/211
f 210/210/210 212/212/212 211/211/211
f 211/211/211 212/212/212 213/213/213
f 212/212/212 214/214/214 213/213/213
f 213/213/213 214/214/214 215/215/215
f 214/214/214 216/216/216 215/215/215
f 215/215/215 216/216/216 217/217/217
f 216/216/216 218/218/218 217/217/217
f 217/217/217 218/218/218 219/219/219
f 218/218/218 220/220/220 219/219/219
f 219/219/219 220/220/220 221/221/221
f 220/220/220 222/222/222 221/221/221
f 221/221/221 222/222/222 223/223/223
f 222/222/222 224/224/224 223/223/223
f 223/223/223 224/224/224 225/225/225
f 224/224/224 226/226/226 225/225/225
f 225/225/225 226/226/226 227/227/227
f 228/228/228 225/225/225 227/227/227
f 231/231/231 230/230/230 229/229/229
f 230/230/230 232/232/232 229/229/229
f 229/229/229 232/232/232 233/233/233
f 232/232/232 234/234/234 233/233/233
f 233/233/233 234/234/234 235/235/235
f 234/234/234 236/236/236 235/235/235
f 235/235/235 236/236/236 237/237/237
f 236/236/236 238/238/238 237/237/237
f 237/237/237 238/238/238 239/239/239
f 238/238/238 240/240/240 239/239/239
f 239/239/239 240/240/240 241/241/241
f 240/240/240 242/242/242 241/241/241
f 241/241/241 242/242/242 243/243/243
f 242/242/242 244/244/244 243/243/243
f 243/243/243 244/244/244 245/245/245
f 244/244/244 246/246/246 245/245/245
f 245/245/245 246/246/246 247/247/247
f 246/246/246 248/248/248 247/247/247
f 247/247/247 248/248/248 249/249/249
f 250/250/250 247/247/247 249/249/249
f 253/253/253 252/252/252 251/251/251
f 251/251/251 254/254/254 253/253/253
f 251/251/251 255/255/255 254/254/254
f 255/255/255 256/256/256 254/254/254
f 259/259/259 258/258/258 257/257/257
f 260/260/260 259/259/259 257/257/257
f 263/263/263 262/262/262 261/261/261
f 264/264/264 263/263/263 261/261/261
f 267/267/267 266/266/266 265/265/265
f 268/268/268 267/267/267 265/265/265
