mtllib Cabinet_6d94ed85.mtl
g Mesh_ad5a90f6
v 0.3228 -0.375 0.0078
v 0.325 -0.37279 0.0078
v 0.325 -0.37279 -0.00779
v 0.3228 -0.375 0.0078
v 0.325 -0.37279 -0.00779
v 0.3228 -0.375 -0.00779
v 0 -0.37279 -0.00779
v 0.00221 -0.375 -0.00779
v 0.00221 -0.37279 -0.00999
v 0.00221 0.3728 -0.00999
v 0.00221 0.375 -0.00779
v 1E-05 0.3728 -0.00779
v 0.3228 0.3728 -0.00999
v 0.325 0.3728 -0.00779
v 0.3228 0.375 -0.00779
v 0.3228 -0.37279 -0.00999
v 0.3228 -0.375 -0.00779
v 0.325 -0.37279 -0.00779
v 0.00221 -0.37279 0.01
v 0.00221 -0.375 0.0078
v 0 -0.37279 0.0078
v 0.00221 0.375 0.0078
v 0.00221 0.3728 0.01
v 1E-05 0.3728 0.0078
v 0.325 0.3728 0.0078
v 0.3228 0.3728 0.01001
v 0.3228 0.375 0.0078
v 0.3228 -0.375 0.0078
v 0.3228 -0.37279 0.01001
v 0.325 -0.37279 0.0078
v 0.2372 0.3728 -0.00999
v 0.2372 0.375 -0.00779
v 0.2328 0.375 -0.00779
v 0.2372 0.3728 -0.00999
v 0.2328 0.375 -0.00779
v 0.2328 0.3728 -0.00999
v 0.2372 0.375 0.0078
v 0.2372 0.3728 0.01001
v 0.2328 0.3728 0.01001
v 0.2372 0.375 0.0078
v 0.2328 0.3728 0.01001
v 0.2328 0.375 0.0078
v 0.3228 -0.2872 0.01001
v 0.3228 -0.37279 0.01001
v 0.2372 -0.37279 0.01001
v 0.2372 -0.2872 0.01001
v 0.3228 -0.2828 0.01001
v 0.2328 -0.2872 0.01001
v 0.2328 -0.37279 0.01001
v 0.09221 -0.37279 0.01
v 0.2372 -0.28279 0.01001
v 0.2372 0.2828 0.01001
v 0.3228 0.2828 0.01001
v 0.3228 0.28721 0.01001
v 0.2372 0.28721 0.01001
v 0.3228 0.3728 0.01001
v 0.2372 0.3728 0.01001
v 0.2328 0.3728 0.01001
v 0.2328 0.2828 0.01001
v 0.2328 -0.28279 0.01001
v 0.09221 -0.2872 0.01
v 0.2328 0.28721 0.01001
v 0.09221 -0.28279 0.01
v 0.0878 -0.2872 0.01
v 0.0878 -0.37279 0.01
v 0.00221 -0.37279 0.01
v 0.00221 -0.2872 0.01
v 0.0878 -0.28279 0.01
v 0.00221 -0.28279 0.01
v 0.00221 0.2828 0.01
v 0.0922 0.28721 0.01
v 0.0922 0.3728 0.01
v 0.0878 0.3728 0.01
v 0.0878 0.2828 0.01
v 0.0922 0.2828 0.01
v 0.0878 0.28721 0.01
v 0.00221 0.28721 0.01
v 0.00221 0.3728 0.01
v 0.0878 0.3728 -0.00999
v 0.00221 0.3728 -0.00999
v 0.00221 0.28721 -0.00999
v 0.0878 0.28721 -0.00999
v 0.0922 0.3728 -0.00999
v 0.0878 0.2828 -0.00999
v 0.00221 0.2828 -0.00999
v 0.00221 -0.2828 -0.00999
v 0.0922 0.28721 -0.00999
v 0.2328 0.28721 -0.00999
v 0.2328 0.3728 -0.00999
v 0.2372 0.3728 -0.00999
v 0.2372 0.28721 -0.00999
v 0.3228 0.3728 -0.00999
v 0.3228 0.28721 -0.00999
v 0.3228 0.2828 -0.00999
v 0.2328 0.2828 -0.00999
v 0.0922 0.2828 -0.00999
v 0.0878 -0.28279 -0.00999
v 0.2372 0.2828 -0.00999
v 0.09221 -0.28279 -0.00999
v 0.0878 -0.2872 -0.00999
v 0.00221 -0.2872 -0.00999
v 0.00221 -0.37279 -0.00999
v 0.0878 -0.37279 -0.00999
v 0.09221 -0.2872 -0.00999
v 0.09221 -0.37279 -0.00999
v 0.2328 -0.37279 -0.00999
v 0.2372 -0.28279 -0.00999
v 0.3228 -0.2828 -0.00999
v 0.3228 -0.2872 -0.00999
v 0.2328 -0.2872 -0.00999
v 0.2328 -0.28279 -0.00999
v 0.2372 -0.2872 -0.00999
v 0.2372 -0.37279 -0.00999
v 0.3228 -0.37279 -0.00999
v 0.00221 -0.375 -0.00779
v 0.00221 -0.375 0.0078
v 0.0878 -0.375 0.0078
v 0.0878 -0.375 -0.00779
v 0.09221 -0.375 -0.00779
v 0.09221 -0.375 0.0078
v 0.2328 -0.375 0.0078
v 0.2328 -0.375 -0.00779
v 0.2372 -0.375 -0.00779
v 0.2372 -0.375 0.0078
v 0.3228 -0.375 0.0078
v 0.3228 -0.375 -0.00779
v 0.325 -0.37279 -0.00779
v 0.325 -0.37279 0.0078
v 0.325 -0.2872 0.0078
v 0.325 -0.2872 -0.00779
v 0.325 -0.2828 -0.00779
v 0.325 -0.2828 0.0078
v 0.325 0.2828 0.0078
v 0.325 0.2828 -0.00779
v 0.325 0.28721 -0.00779
v 0.325 0.28721 0.0078
v 0.325 0.3728 0.0078
v 0.325 0.3728 -0.00779
v 0.3228 0.375 -0.00779
v 0.3228 0.375 0.0078
v 0.2372 0.375 0.0078
v 0.2372 0.375 -0.00779
v 0.2328 0.375 -0.00779
v 0.2328 0.375 0.0078
v 0.0922 0.375 0.0078
v 0.0922 0.375 -0.00779
v 0.0878 0.375 -0.00779
v 0.0878 0.375 0.0078
v 0.00221 0.375 0.0078
v 0.00221 0.375 -0.00779
v 1E-05 0.3728 -0.00779
v 1E-05 0.3728 0.0078
v 1E-05 0.28721 0.0078
v 1E-05 0.28721 -0.00779
v 1E-05 0.2828 -0.00779
v 1E-05 0.2828 0.0078
v 0 -0.28279 0.0078
v 0 -0.2828 -0.00779
v 0 -0.2872 -0.00779
v 0 -0.2872 0.0078
v 0 -0.37279 0.0078
v 0 -0.37279 -0.00779
v 0.325 0.28721 0.0078
v 0.3228 0.28721 0.01001
v 0.3228 0.3728 0.01001
v 0.325 0.3728 0.0078
v 0.2372 0.3728 0.01001
v 0.2372 0.375 0.0078
v 0.3228 0.375 0.0078
v 0.3228 0.3728 0.01001
v 0.0878 0.375 0.0078
v 0.0878 0.3728 0.01
v 0.00221 0.3728 0.01
v 0.00221 0.375 0.0078
v 0.00221 0.28721 0.01
v 1E-05 0.28721 0.0078
v 1E-05 0.3728 0.0078
v 0.00221 0.3728 0.01
v 0.3228 -0.2872 0.01001
v 0.325 -0.2872 0.0078
v 0.325 -0.37279 0.0078
v 0.3228 -0.37279 0.01001
v 0.2372 -0.375 0.0078
v 0.2372 -0.37279 0.01001
v 0.3228 -0.37279 0.01001
v 0.3228 -0.375 0.0078
v 0 -0.2872 0.0078
v 0.00221 -0.37279 0.01
v 0 -0.37279 0.0078
v 0.00221 -0.2872 0.01
v 0.00221 -0.28279 0.01
v 0 -0.28279 0.0078
v 1E-05 0.2828 0.0078
v 0.00221 0.2828 0.01
v 0.00221 0.28721 0.01
v 0.00221 0.2828 0.01
v 1E-05 0.2828 0.0078
v 1E-05 0.28721 0.0078
v 0.0878 -0.37279 0.01
v 0.0878 -0.375 0.0078
v 0.00221 -0.375 0.0078
v 0.00221 -0.37279 0.01
v 0 -0.37279 0.0078
v 0.00221 -0.375 0.0078
v 0.00221 -0.375 -0.00779
v 0 -0.37279 -0.00779
v 0.0878 -0.375 -0.00779
v 0.0878 -0.37279 -0.00999
v 0.00221 -0.37279 -0.00999
v 0.00221 -0.375 -0.00779
v 0.2372 -0.37279 -0.00999
v 0.2372 -0.375 -0.00779
v 0.3228 -0.375 -0.00779
v 0.3228 -0.37279 -0.00999
v 0.325 -0.2872 -0.00779
v 0.3228 -0.2872 -0.00999
v 0.3228 -0.37279 -0.00999
v 0.325 -0.37279 -0.00779
v 0.3228 0.28721 -0.00999
v 0.325 0.28721 -0.00779
v 0.325 0.3728 -0.00779
v 0.3228 0.3728 -0.00999
v 0.325 0.3728 0.0078
v 0.3228 0.375 0.0078
v 0.3228 0.375 -0.00779
v 0.325 0.3728 -0.00779
v 0.2372 0.375 -0.00779
v 0.2372 0.3728 -0.00999
v 0.3228 0.3728 -0.00999
v 0.3228 0.375 -0.00779
v 0.0878 0.3728 -0.00999
v 0.0878 0.375 -0.00779
v 0.00221 0.375 -0.00779
v 0.00221 0.3728 -0.00999
v 0.00221 0.375 0.0078
v 1E-05 0.3728 0.0078
v 1E-05 0.3728 -0.00779
v 0.00221 0.375 -0.00779
v 1E-05 0.28721 -0.00779
v 0.00221 0.28721 -0.00999
v 0.00221 0.3728 -0.00999
v 1E-05 0.3728 -0.00779
v 0.00221 -0.2872 -0.00999
v 0 -0.2872 -0.00779
v 0 -0.37279 -0.00779
v 0.00221 -0.37279 -0.00999
v 0.00221 0.2828 -0.00999
v 1E-05 0.2828 -0.00779
v 0 -0.2828 -0.00779
v 0.00221 -0.2828 -0.00999
v 0.2328 -0.375 -0.00779
v 0.2328 -0.37279 -0.00999
v 0.09221 -0.37279 -0.00999
v 0.09221 -0.375 -0.00779
v 0.3228 -0.2828 -0.00999
v 0.325 -0.2828 -0.00779
v 0.325 0.2828 -0.00779
v 0.3228 0.2828 -0.00999
v 0.2328 0.3728 -0.00999
v 0.2328 0.375 -0.00779
v 0.0922 0.375 -0.00779
v 0.0922 0.3728 -0.00999
v 0.2328 0.375 0.0078
v 0.2328 0.3728 0.01001
v 0.0922 0.3728 0.01
v 0.0922 0.375 0.0078
v 0.325 -0.2828 0.0078
v 0.3228 -0.2828 0.01001
v 0.3228 0.2828 0.01001
v 0.325 0.2828 0.0078
v 0.09221 -0.375 0.0078
v 0.09221 -0.37279 0.01
v 0.2328 -0.37279 0.01001
v 0.2328 -0.375 0.0078
v 0 -0.2828 -0.00779
v 0 -0.2872 -0.00779
v 0.00221 -0.2872 -0.00999
v 0.00221 -0.2828 -0.00999
v 0.00221 0.28721 -0.00999
v 1E-05 0.28721 -0.00779
v 1E-05 0.2828 -0.00779
v 0.00221 0.2828 -0.00999
v 0.0922 0.375 -0.00779
v 0.0878 0.375 -0.00779
v 0.0878 0.3728 -0.00999
v 0.0922 0.3728 -0.00999
v 0.325 0.2828 -0.00779
v 0.325 0.28721 -0.00779
v 0.3228 0.28721 -0.00999
v 0.3228 0.2828 -0.00999
v 0.3228 -0.2872 -0.00999
v 0.325 -0.2872 -0.00779
v 0.325 -0.2828 -0.00779
v 0.3228 -0.2828 -0.00999
v 0.0878 -0.37279 -0.00999
v 0.0878 -0.375 -0.00779
v 0.09221 -0.375 -0.00779
v 0.09221 -0.37279 -0.00999
v 0.2328 -0.375 -0.00779
v 0.2372 -0.375 -0.00779
v 0.2372 -0.37279 -0.00999
v 0.2328 -0.37279 -0.00999
v 0.0922 0.3728 0.01
v 0.0878 0.3728 0.01
v 0.0878 0.375 0.0078
v 0.0922 0.375 0.0078
v 0.3228 0.2828 0.01001
v 0.3228 0.28721 0.01001
v 0.325 0.28721 0.0078
v 0.325 0.2828 0.0078
v 0.325 -0.2872 0.0078
v 0.3228 -0.2872 0.01001
v 0.3228 -0.2828 0.01001
v 0.325 -0.2828 0.0078
v 0.2372 -0.37279 0.01001
v 0.2372 -0.375 0.0078
v 0.2328 -0.375 0.0078
v 0.2328 -0.37279 0.01001
v 0.0878 -0.375 0.0078
v 0.0878 -0.37279 0.01
v 0.09221 -0.37279 0.01
v 0.09221 -0.375 0.0078
vn 0.7071062 -0.7071072 0
vn 0.7071068 -0.7071068 0
vn 0.7071034 -0.7071102 0
vn 0.7071062 -0.7071072 0
vn 0.7071034 -0.7071102 0
vn 0.7071028 -0.7071107 0
vn -0.5773503 -0.5773503 -0.5773503
vn -0.5773503 -0.5773503 -0.5773503
vn -0.5773503 -0.5773503 -0.5773503
vn -0.5773503 0.5773503 -0.5773503
vn -0.5773503 0.5773503 -0.5773503
vn -0.5773503 0.5773503 -0.5773503
vn 0.5773503 0.5773503 -0.5773503
vn 0.5773503 0.5773503 -0.5773503
vn 0.5773503 0.5773503 -0.5773503
vn 0.5773503 -0.5773503 -0.5773503
vn 0.5773503 -0.5773503 -0.5773503
vn 0.5773503 -0.5773503 -0.5773503
vn -0.5773503 -0.5773503 0.5773503
vn -0.5773503 -0.5773503 0.5773503
vn -0.5773503 -0.5773503 0.5773503
vn -0.5773503 0.5773503 0.5773503
vn -0.5773503 0.5773503 0.5773503
vn -0.5773503 0.5773503 0.5773503
vn 0.5773351 0.5773805 0.5773351
vn 0.5773351 0.5773805 0.5773351
vn 0.5773351 0.5773805 0.5773351
vn 0.5773351 -0.5773805 0.5773351
vn 0.5773351 -0.5773805 0.5773351
vn 0.5773351 -0.5773805 0.5773351
vn 1.362369E-06 0.7071362 -0.7070773
vn 1.330861E-06 0.7071357 -0.7070779
vn 8.4557E-07 0.7071021 -0.7071115
vn 1.362369E-06 0.7071362 -0.7070773
vn 8.4557E-07 0.7071021 -0.7071115
vn 8.33658E-07 0.7071021 -0.7071115
vn 0 0.707126 0.7070875
vn 0 0.7071244 0.7070891
vn 0 0.7071413 0.7070723
vn 0 0.707126 0.7070875
vn 0 0.7071413 0.7070723
vn 0 0.7071418 0.7070718
vn 0 0 1
vn 0 0 1
vn 0 0 1
vn 0 0 1
vn 0 0 1
vn -1.23324E-06 0 1
vn -1.014264E-06 0 1
vn 0 0 1
vn 0 0 1
vn -1.307929E-06 0 1
vn 0 0 1
vn 0 0 1
vn 0 0 1
vn 0 0 1
vn -1.66595E-06 0 1
vn 0 0 1
vn -1.22802E-06 0 1
vn -1.22802E-06 0 1
vn 0 0 1
vn 0 0 1
vn -1.22802E-06 0 1
vn 0 0 1
vn 0 0 1
vn 0 0 1
vn 0 0 1
vn 0 0 1
vn 0 0 1
vn 0 0 1
vn -1.014263E-06 0 1
vn 0 0 1
vn 0 0 1
vn 0 0 1
vn 0 0 1
vn 0 0 1
vn 0 0 1
vn 0 0 1
vn 0 0 -1
vn 0 0 -1
vn 0 0 -1
vn 0 0 -1
vn 0 0 -1
vn 0 0 -1
vn 0 0 -1
vn 6.776033E-07 0 -1
vn 0 0 -1
vn 0 0 -1
vn 1.014263E-06 0 -1
vn 0 0 -1
vn 0 0 -1
vn -1.041217E-06 0 -1
vn 0 0 -1
vn 0 0 -1
vn 0 0 -1
vn 0 0 -1
vn 0 0 -1
vn 0 0 -1
vn 0 0 -1
vn 0 0 -1
vn 5.206106E-07 0 -1
vn 0 0 -1
vn 0 0 -1
vn 1.014265E-06 0 -1
vn 0 0 -1
vn 0 0 -1
vn 0 0 -1
vn -6.776021E-07 0 -1
vn 0 0 -1
vn 0 0 -1
vn 1.22802E-06 0 -1
vn 0 0 -1
vn -2.603048E-07 0 -1
vn 0 0 -1
vn 0 -1 0
vn 0 -1 0
vn 0 -1 0
vn 0 -1 0
vn 0 -1 0
vn 0 -1 0
vn 0 -1 0
vn 0 -1 0
vn 0 -1 0
vn 0 -1 0
vn 0 -1 0
vn 0 -1 0
vn 1 0 0
vn 1 0 0
vn 1 0 0
vn 1 0 0
vn 1 0 0
vn 1 0 0
vn 1 0 0
vn 1 0 0
vn 1 0 0
vn 1 0 0
vn 1 0 0
vn 1 0 0
vn 0 1 0
vn 0 1 0
vn 0 1 0
vn 0 1 0
vn 5.261682E-07 1 0
vn 5.261673E-07 1 0
vn 5.261641E-07 1 0
vn 5.261637E-07 1 0
vn 0 1 0
vn 0 1 0
vn 0 1 0
vn 0 1 0
vn -1 0 0
vn -1 0 0
vn -1 0 0
vn -1 0 0
vn -1 6.7435E-07 0
vn -1 6.863992E-07 0
vn -1 0 0
vn -1 0 0
vn -1 0 0
vn -1 0 0
vn -1 0 0
vn -1 0 0
vn 0.7071242 0 0.7070893
vn 0.7071245 0 0.707089
vn 0.7071246 0 0.7070889
vn 0.7071247 0 0.7070888
vn 0 0.7071244 0.7070891
vn 0 0.707126 0.7070875
vn 1.3992E-06 0.7071247 0.7070888
vn 1.432328E-06 0.7071247 0.7070889
vn 0 0.7071108 0.7071027
vn 0 0.7071109 0.7071027
vn 0 0.7071111 0.7071025
vn 0 0.7071111 0.7071024
vn -0.7071226 0 0.7070909
vn -0.7071232 0 0.7070904
vn -0.7071016 0 0.707112
vn -0.707101 0 0.7071124
vn 0.7071034 0 0.7071101
vn 0.7071022 0 0.7071112
vn 0.7071235 0 0.70709
vn 0.707124 0 0.7070895
vn 0 -0.7071171 0.7070965
vn 0 -0.7071175 0.707096
vn 0 -0.7071189 0.7070946
vn 0 -0.7071189 0.7070946
vn -0.7071019 0 0.7071117
vn -0.7071233 0 0.7070901
vn -0.7071238 0 0.7070897
vn -0.7071012 0 0.7071123
vn -0.7070819 4.287127E-07 0.7071316
vn -0.7070818 4.302199E-07 0.7071317
vn -0.7071093 0 0.7071043
vn -0.7071093 0 0.7071042
vn -0.7071226 0 0.7070909
vn -0.7071093 0 0.7071042
vn -0.7071093 0 0.7071043
vn -0.7071232 0 0.7070904
vn 0 -0.7071068 0.7071068
vn 0 -0.7071068 0.7071068
vn 0 -0.7071068 0.7071068
vn 0 -0.7071068 0.7071068
vn -0.7071068 -0.7071068 0
vn -0.7071068 -0.7071068 0
vn -0.7071068 -0.7071068 0
vn -0.7071068 -0.7071068 0
vn 0 -0.7071069 -0.7071066
vn 0 -0.7071068 -0.7071066
vn 0 -0.7071068 -0.7071068
vn 0 -0.7071068 -0.7071068
vn 0 -0.7071078 -0.7071056
vn 0 -0.7071074 -0.7071061
vn 0 -0.707104 -0.7071095
vn 0 -0.7071039 -0.7071096
vn 0.7071228 0 -0.7070907
vn 0.7071232 0 -0.7070903
vn 0.7071016 0 -0.7071119
vn 0.7071011 0 -0.7071124
vn 0.7071021 0 -0.7071114
vn 0.7071012 0 -0.7071123
vn 0.7071241 0 -0.7070894
vn 0.7071247 0 -0.7070888
vn 0.7071062 0.7071072 0
vn 0.7071068 0.7071068 0
vn 0.7071034 0.7071102 0
vn 0.7071028 0.7071107 0
vn 1.330861E-06 0.7071357 -0.7070779
vn 1.362369E-06 0.7071362 -0.7070773
vn 0 0.7070907 -0.7071228
vn 0 0.7070896 -0.7071239
vn 0 0.7071108 -0.7071027
vn 0 0.7071109 -0.7071027
vn 0 0.7071111 -0.7071025
vn 0 0.7071111 -0.7071024
vn -0.7071068 0.7071068 0
vn -0.7071068 0.7071068 0
vn -0.7071068 0.7071068 0
vn -0.7071068 0.7071068 0
vn -0.7071018 0 -0.7071117
vn -0.7071013 0 -0.7071122
vn -0.7071234 0 -0.7070901
vn -0.7071239 0 -0.7070896
vn -0.7071019 0 -0.7071115
vn -0.7071015 0 -0.707112
vn -0.7071235 0 -0.70709
vn -0.707124 0 -0.7070895
vn -0.7071093 0 -0.7071042
vn -0.7071093 0 -0.7071042
vn -0.7071093 4.28696E-07 -0.7071043
vn -0.7071093 4.302031E-07 -0.7071043
vn 8.336689E-07 -0.7071084 -0.707105
vn 8.455772E-07 -0.7071089 -0.7071046
vn 0 -0.7071052 -0.7071084
vn 0 -0.707105 -0.7071084
vn 0.7071093 0 -0.7071043
vn 0.7071093 0 -0.7071043
vn 0.7071093 0 -0.7071043
vn 0.7071094 0 -0.7071041
vn 8.33658E-07 0.7071021 -0.7071115
vn 8.4557E-07 0.7071021 -0.7071115
vn 0 0.7071284 -0.7070851
vn 0 0.7071288 -0.7070848
vn 0 0.7071418 0.7070718
vn 0 0.7071413 0.7070723
vn 0 0.7071031 0.7071105
vn 0 0.7071025 0.707111
vn 0.7071367 0 0.7070768
vn 0.7071369 0 0.7070766
vn 0.7071095 0 0.707104
vn 0.7071094 0 0.7071041
vn 0 -0.7071086 0.7071049
vn 0 -0.7071085 0.707105
vn 0 -0.7071173 0.7070963
vn 0 -0.7071171 0.7070965
vn -0.7071093 4.28696E-07 -0.7071043
vn -0.7071015 0 -0.707112
vn -0.7071019 0 -0.7071115
vn -0.7071093 4.302031E-07 -0.7071043
vn -0.7071013 0 -0.7071122
vn -0.7071018 0 -0.7071117
vn -0.7071093 0 -0.7071042
vn -0.7071093 0 -0.7071042
vn 0 0.7071284 -0.7070851
vn 0 0.7071109 -0.7071027
vn 0 0.7071108 -0.7071027
vn 0 0.7071288 -0.7070848
vn 0.7071093 0 -0.7071043
vn 0.7071012 0 -0.7071123
vn 0.7071021 0 -0.7071114
vn 0.7071094 0 -0.7071041
vn 0.7071232 0 -0.7070903
vn 0.7071228 0 -0.7070907
vn 0.7071093 0 -0.7071043
vn 0.7071093 0 -0.7071043
vn 0 -0.7071068 -0.7071066
vn 0 -0.7071069 -0.7071066
vn 0 -0.707105 -0.7071084
vn 0 -0.7071052 -0.7071084
vn 8.336689E-07 -0.7071084 -0.707105
vn 0 -0.7071074 -0.7071061
vn 0 -0.7071078 -0.7071056
vn 8.455772E-07 -0.7071089 -0.7071046
vn 0 0.7071031 0.7071105
vn 0 0.7071109 0.7071027
vn 0 0.7071108 0.7071027
vn 0 0.7071025 0.707111
vn 0.7071095 0 0.707104
vn 0.7071245 0 0.707089
vn 0.7071242 0 0.7070893
vn 0.7071094 0 0.7071041
vn 0.7071022 0 0.7071112
vn 0.7071034 0 0.7071101
vn 0.7071369 0 0.7070766
vn 0.7071367 0 0.7070768
vn 0 -0.7071175 0.707096
vn 0 -0.7071171 0.7070965
vn 0 -0.7071171 0.7070965
vn 0 -0.7071173 0.7070963
vn 0 -0.7071068 0.7071068
vn 0 -0.7071068 0.7071068
vn 0 -0.7071085 0.707105
vn 0 -0.7071086 0.7071049
vt 3.42349 -2.664371
vt 3.42349 -2.66394
vt 3.536337 -2.66394
vt 3.42349 -2.664371
vt 3.536337 -2.66394
vt 3.536337 -2.664371
vt -2.665047 2.830433
vt -2.665047 2.833188
vt -2.667799 2.833188
vt 2.288048 2.833153
vt 2.290734 2.833153
vt 2.290734 2.830467
vt 3.669642 2.747148
vt 3.672328 2.749834
vt 3.672328 2.747148
vt -0.005198523 2.830364
vt -0.002301727 2.830364
vt -0.002301727 2.83326
vt -2.665047 -2.662778
vt -2.667799 -2.662778
vt -2.667799 -2.665533
vt -2.667764 2.749834
vt -2.665078 2.749834
vt -2.667764 2.747148
vt -0.005197363 2.749938
vt -0.002302887 2.747044
vt -0.005197363 2.747044
vt -0.005196967 -2.665603
vt -0.002303284 -2.665603
vt -0.005196967 -2.662708
vt 0.6939346 2.834435
vt 0.6965582 2.834435
vt 0.6965582 2.829189
vt 0.6939346 2.834435
vt 0.6965582 2.829189
vt 0.6939346 2.829189
vt -0.7424189 2.751116
vt -0.739795 2.751116
vt -0.739795 2.745866
vt -0.7424189 2.751116
vt -0.739795 2.745866
vt -0.7424189 2.745866
vt -1.163658 -0.2229314
vt -1.163658 -0.3064318
vt -1.258451 -0.3064318
vt -1.258451 -0.2229314
vt -1.163658 -0.2227454
vt -1.258662 -0.2229314
vt -1.258662 -0.3064318
vt -1.411512 -0.3064318
vt -1.258451 -0.2227454
vt -1.258451 0.3070807
vt -1.163658 0.3070807
vt -1.163658 0.3072666
vt -1.258451 0.3072666
vt -1.163658 0.3907669
vt -1.258451 0.3907669
vt -1.258662 0.3907669
vt -1.258662 0.3070807
vt -1.258662 -0.2227454
vt -1.411512 -0.2229315
vt -1.258662 0.3072666
vt -1.411512 -0.2227454
vt -1.411723 -0.2229315
vt -1.411723 -0.3064318
vt -1.506515 -0.3064318
vt -1.506515 -0.2229315
vt -1.411723 -0.2227454
vt -1.506515 -0.2227454
vt -1.506515 0.3070807
vt -1.411512 0.3072666
vt -1.411512 0.3907669
vt -1.411723 0.3907669
vt -1.411723 0.3070807
vt -1.411512 0.3070807
vt -1.411723 0.3072666
vt -1.506515 0.3072666
vt -1.506515 0.3907669
vt 1.95155 0.3907669
vt 2.046342 0.3907669
vt 2.046342 0.3072666
vt 1.95155 0.3072666
vt 1.951339 0.3907669
vt 1.95155 0.3070807
vt 2.046342 0.3070807
vt 2.046342 -0.2227454
vt 1.951339 0.3072666
vt 1.798489 0.3072666
vt 1.798489 0.3907669
vt 1.798278 0.3907669
vt 1.798278 0.3072666
vt 1.703485 0.3907669
vt 1.703485 0.3072666
vt 1.703485 0.3070807
vt 1.798489 0.3070807
vt 1.951339 0.3070807
vt 1.95155 -0.2227454
vt 1.798278 0.3070807
vt 1.951339 -0.2227454
vt 1.95155 -0.2229315
vt 2.046342 -0.2229315
vt 2.046342 -0.3064318
vt 1.95155 -0.3064318
vt 1.951339 -0.2229315
vt 1.951339 -0.3064318
vt 1.798489 -0.3064318
vt 1.798278 -0.2227454
vt 1.703485 -0.2227454
vt 1.703485 -0.2229314
vt 1.798489 -0.2229314
vt 1.798489 -0.2227454
vt 1.798278 -0.2229314
vt 1.798278 -0.3064318
vt 1.703485 -0.3064318
vt -1.428866 3.009549
vt -1.428866 3.036215
vt -1.37701 3.036215
vt -1.37701 3.009549
vt -1.376895 3.009549
vt -1.376895 3.036215
vt -1.293279 3.036215
vt -1.293279 3.009549
vt -1.293163 3.009549
vt -1.293163 3.036215
vt -1.241307 3.036215
vt -1.241307 3.009549
vt 3.494172 -0.1617715
vt 3.465655 -0.1617715
vt 3.465655 -0.1129218
vt 3.494172 -0.1129218
vt 3.494172 -0.112813
vt 3.465655 -0.112813
vt 3.465655 0.1971482
vt 3.494172 0.1971483
vt 3.494172 0.197257
vt 3.465655 0.197257
vt 3.465655 0.2461066
vt 3.494172 0.2461066
vt 1.101722 3.00823
vt 1.101722 3.037534
vt 1.148908 3.037534
vt 1.148908 3.00823
vt 1.149013 3.00823
vt 1.149013 3.037534
vt 1.225099 3.037534
vt 1.225099 3.00823
vt 1.225204 3.00823
vt 1.225204 3.037534
vt 1.27239 3.037534
vt 1.27239 3.00823
vt 0.2556551 0.2461071
vt 0.2841718 0.2461071
vt 0.2841718 0.1972574
vt 0.2556551 0.1972574
vt 0.2556551 0.1971486
vt 0.2841718 0.1971486
vt 0.2841717 -0.1128135
vt 0.2556551 -0.1128135
vt 0.2556551 -0.1129223
vt 0.2841717 -0.1129223
vt 0.2841717 -0.161772
vt 0.2556551 -0.161772
vt -0.003339828 2.261454
vt -0.004160422 2.261454
vt -0.004160422 2.58601
vt -0.003339828 2.58601
vt 0.4930137 3.2146
vt 0.4930137 3.213307
vt 0.2869537 3.213307
vt 0.2869537 3.2146
vt -2.113566 2.748852
vt -2.113566 2.74813
vt -2.481924 2.74813
vt -2.481924 2.748852
vt 0.4616114 2.317468
vt 0.4603582 2.317468
vt 0.4603582 2.529996
vt 0.4616114 2.529996
vt 3.288215 -2.233127
vt 3.289469 -2.233127
vt 3.289469 -2.445666
vt 3.288215 -2.445666
vt -0.5566728 -2.664517
vt -0.5566728 -2.663794
vt -0.1881843 -2.663794
vt -0.1881843 -2.664517
vt -2.666843 -1.171028
vt -2.666003 -1.503457
vt -2.666843 -1.503457
vt -2.666003 -1.171028
vt -2.666003 -1.170287
vt -2.666843 -1.170287
vt -2.666842 0.9390433
vt -2.666002 0.9390433
vt -2.666202 0.9398526
vt -2.666002 0.9390433
vt -2.666842 0.9390433
vt -2.666642 0.9398526
vt -2.184529 3.21454
vt -2.184529 3.213364
vt -2.410961 3.213364
vt -2.410961 3.21454
vt -2.666652 3.075832
vt -2.666194 3.075832
vt -2.666194 2.96993
vt -2.666652 2.96993
vt 2.653349 -2.664517
vt 2.653349 -2.663794
vt 3.021796 -2.663794
vt 3.021796 -2.664517
vt -0.4856365 2.831224
vt -0.4856365 2.8324
vt -0.2592206 2.8324
vt -0.2592206 2.831224
vt 0.5431669 -2.17712
vt 0.5439875 -2.17712
vt 0.5439875 -2.501673
vt 0.5431669 -2.501673
vt 3.671612 2.317484
vt 3.670358 2.317484
vt 3.670358 2.529981
vt 3.671612 2.529981
vt 0.0845125 3.081051
vt 0.08492969 3.081051
vt 0.08492969 2.964715
vt 0.0845125 2.964715
vt 1.096507 2.748852
vt 1.096507 2.748129
vt 0.7280031 2.748129
vt 0.7280031 2.748852
vt 1.881099 2.831164
vt 1.881099 2.832457
vt 2.087162 2.832457
vt 2.087162 2.831164
vt 0.3263036 2.748706
vt 0.3263036 2.748276
vt 0.2135233 2.748276
vt 0.2135233 2.748706
vt 3.206658 2.261417
vt 3.205838 2.261417
vt 3.205838 2.586047
vt 3.206658 2.586047
vt 0.07821549 -2.233134
vt 0.07946866 -2.233134
vt 0.07946866 -2.44566
vt 0.07821549 -2.44566
vt 0.07820267 0.7302146
vt 0.07948148 0.7302146
vt 0.07948148 -0.6458786
vt 0.07820267 -0.6458786
vt 1.575043 -2.66452
vt 1.575043 -2.663791
vt 2.174785 -2.663791
vt 2.174785 -2.66452
vt 3.671624 -0.6458306
vt 3.670346 -0.6458306
vt 3.670346 0.7301676
vt 3.671624 0.7301676
vt 1.019399 2.831159
vt 1.019399 2.832464
vt 1.354717 2.832463
vt 1.354717 2.831159
vt -1.035269 2.748856
vt -1.035269 2.748126
vt -1.634906 2.748126
vt -1.634906 2.748856
vt -0.003331432 -1.00859
vt -0.004168818 -1.00859
vt -0.004168818 1.092926
vt -0.003331432 1.092926
vt -1.634937 -2.66452
vt -1.634937 -2.663791
vt -1.035237 -2.663791
vt -1.035237 -2.66452
vt 0.07753008 -2.012014
vt 0.07753008 -2.017262
vt 0.08015407 -2.017262
vt 0.08015407 -2.012014
vt 0.08015407 2.101597
vt 0.07753008 2.101597
vt 0.07753008 2.096349
vt 0.08015407 2.096349
vt 1.680007 2.834084
vt 1.680007 2.829537
vt 1.677732 2.829537
vt 1.677732 2.834084
vt 3.668334 2.100298
vt 3.673636 2.100298
vt 3.673636 2.09765
vt 3.668334 2.09765
vt 3.668334 -2.015963
vt 3.668334 -2.013312
vt 3.673636 -2.013312
vt 3.673636 -2.015963
vt -1.930242 2.829463
vt -1.927893 2.829463
vt -1.927893 2.834158
vt -1.930242 2.834158
vt -0.7397512 2.829099
vt -0.7397512 2.834525
vt -0.7424626 2.834525
vt -0.7424626 2.829099
vt -1.927757 2.751115
vt -1.927757 2.745867
vt -1.93038 2.745867
vt -1.93038 2.751115
vt -0.006366329 2.100281
vt -0.00113392 2.100281
vt -0.00113392 2.097666
vt -0.006366329 2.097666
vt -0.00636714 -2.015946
vt -0.00636714 -2.013329
vt -0.00113311 -2.013329
vt -0.00113311 -2.015946
vt -0.7397512 -2.661444
vt -0.7424626 -2.661444
vt -0.7424626 -2.666867
vt -0.7397512 -2.666867
vt -1.930242 -2.666503
vt -1.927893 -2.666503
vt -1.927893 -2.661808
vt -1.930242 -2.661808
usemtl OrangeCabinet
f 3/3/3 2/2/2 1/1/1
f 6/6/6 5/5/5 4/4/4
f 9/9/9 8/8/8 7/7/7
f 12/12/12 11/11/11 10/10/10
f 15/15/15 14/14/14 13/13/13
f 18/18/18 17/17/17 16/16/16
f 21/21/21 20/20/20 19/19/19
f 24/24/24 23/23/23 22/22/22
f 27/27/27 26/26/26 25/25/25
f 30/30/30 29/29/29 28/28/28
f 33/33/33 32/32/32 31/31/31
f 36/36/36 35/35/35 34/34/34
f 39/39/39 38/38/38 37/37/37
f 42/42/42 41/41/41 40/40/40
f 45/45/45 44/44/44 43/43/43
f 46/46/46 45/45/45 43/43/43
f 43/43/43 47/47/47 46/46/46
f 45/45/45 46/46/46 48/48/48
f 49/49/49 45/45/45 48/48/48
f 49/49/49 48/48/48 50/50/50
f 47/47/47 51/51/51 46/46/46
f 48/48/48 46/46/46 51/51/51
f 52/52/52 51/51/51 47/47/47
f 53/53/53 52/52/52 47/47/47
f 53/53/53 54/54/54 52/52/52
f 54/54/54 55/55/55 52/52/52
f 55/55/55 54/54/54 56/56/56
f 57/57/57 55/55/55 56/56/56
f 57/57/57 58/58/58 55/55/55
f 51/51/51 52/52/52 59/59/59
f 59/59/59 52/52/52 55/55/55
f 60/60/60 48/48/48 51/51/51
f 60/60/60 51/51/51 59/59/59
f 48/48/48 61/61/61 50/50/50
f 48/48/48 60/60/60 61/61/61
f 58/58/58 62/62/62 55/55/55
f 62/62/62 59/59/59 55/55/55
f 63/63/63 60/60/60 59/59/59
f 60/60/60 63/63/63 61/61/61
f 50/50/50 61/61/61 64/64/64
f 65/65/65 50/50/50 64/64/64
f 66/66/66 65/65/65 64/64/64
f 67/67/67 66/66/66 64/64/64
f 68/68/68 64/64/64 61/61/61
f 67/67/67 64/64/64 68/68/68
f 63/63/63 68/68/68 61/61/61
f 69/69/69 67/67/67 68/68/68
f 70/70/70 69/69/69 68/68/68
f 62/62/62 58/58/58 71/71/71
f 58/58/58 72/72/72 71/71/71
f 72/72/72 73/73/73 71/71/71
f 74/74/74 68/68/68 63/63/63
f 74/74/74 70/70/70 68/68/68
f 62/62/62 71/71/71 75/75/75
f 75/75/75 74/74/74 63/63/63
f 75/75/75 71/71/71 74/74/74
f 59/59/59 62/62/62 75/75/75
f 75/75/75 63/63/63 59/59/59
f 70/70/70 74/74/74 76/76/76
f 71/71/71 76/76/76 74/74/74
f 73/73/73 76/76/76 71/71/71
f 77/77/77 70/70/70 76/76/76
f 77/77/77 76/76/76 73/73/73
f 78/78/78 77/77/77 73/73/73
f 81/81/81 80/80/80 79/79/79
f 82/82/82 81/81/81 79/79/79
f 79/79/79 83/83/83 82/82/82
f 81/81/81 82/82/82 84/84/84
f 85/85/85 81/81/81 84/84/84
f 85/85/85 84/84/84 86/86/86
f 83/83/83 87/87/87 82/82/82
f 84/84/84 82/82/82 87/87/87
f 88/88/88 87/87/87 83/83/83
f 89/89/89 88/88/88 83/83/83
f 89/89/89 90/90/90 88/88/88
f 90/90/90 91/91/91 88/88/88
f 91/91/91 90/90/90 92/92/92
f 93/93/93 91/91/91 92/92/92
f 93/93/93 94/94/94 91/91/91
f 87/87/87 88/88/88 95/95/95
f 95/95/95 88/88/88 91/91/91
f 96/96/96 84/84/84 87/87/87
f 96/96/96 87/87/87 95/95/95
f 84/84/84 97/97/97 86/86/86
f 84/84/84 96/96/96 97/97/97
f 94/94/94 98/98/98 91/91/91
f 98/98/98 95/95/95 91/91/91
f 99/99/99 96/96/96 95/95/95
f 96/96/96 99/99/99 97/97/97
f 86/86/86 97/97/97 100/100/100
f 101/101/101 86/86/86 100/100/100
f 102/102/102 101/101/101 100/100/100
f 103/103/103 102/102/102 100/100/100
f 104/104/104 100/100/100 97/97/97
f 103/103/103 100/100/100 104/104/104
f 99/99/99 104/104/104 97/97/97
f 105/105/105 103/103/103 104/104/104
f 106/106/106 105/105/105 104/104/104
f 98/98/98 94/94/94 107/107/107
f 94/94/94 108/108/108 107/107/107
f 108/108/108 109/109/109 107/107/107
f 110/110/110 104/104/104 99/99/99
f 110/110/110 106/106/106 104/104/104
f 98/98/98 107/107/107 111/111/111
f 111/111/111 110/110/110 99/99/99
f 111/111/111 107/107/107 110/110/110
f 95/95/95 98/98/98 111/111/111
f 111/111/111 99/99/99 95/95/95
f 106/106/106 110/110/110 112/112/112
f 107/107/107 112/112/112 110/110/110
f 109/109/109 112/112/112 107/107/107
f 113/113/113 106/106/106 112/112/112
f 113/113/113 112/112/112 109/109/109
f 114/114/114 113/113/113 109/109/109
f 117/117/117 116/116/116 115/115/115
f 118/118/118 117/117/117 115/115/115
f 118/118/118 119/119/119 117/117/117
f 119/119/119 120/120/120 117/117/117
f 120/120/120 119/119/119 121/121/121
f 119/119/119 122/122/122 121/121/121
f 122/122/122 123/123/123 121/121/121
f 123/123/123 124/124/124 121/121/121
f 125/125/125 124/124/124 123/123/123
f 126/126/126 125/125/125 123/123/123
f 129/129/129 128/128/128 127/127/127
f 130/130/130 129/129/129 127/127/127
f 130/130/130 131/131/131 129/129/129
f 131/131/131 132/132/132 129/129/129
f 132/132/132 131/131/131 133/133/133
f 131/131/131 134/134/134 133/133/133
f 134/134/134 135/135/135 133/133/133
f 135/135/135 136/136/136 133/133/133
f 137/137/137 136/136/136 135/135/135
f 138/138/138 137/137/137 135/135/135
f 141/141/141 140/140/140 139/139/139
f 142/142/142 141/141/141 139/139/139
f 142/142/142 143/143/143 141/141/141
f 143/143/143 144/144/144 141/141/141
f 144/144/144 143/143/143 145/145/145
f 143/143/143 146/146/146 145/145/145
f 146/146/146 147/147/147 145/145/145
f 147/147/147 148/148/148 145/145/145
f 149/149/149 148/148/148 147/147/147
f 150/150/150 149/149/149 147/147/147
f 153/153/153 152/152/152 151/151/151
f 154/154/154 153/153/153 151/151/151
f 154/154/154 155/155/155 153/153/153
f 155/155/155 156/156/156 153/153/153
f 157/157/157 156/156/156 155/155/155
f 158/158/158 157/157/157 155/155/155
f 158/158/158 159/159/159 157/157/157
f 159/159/159 160/160/160 157/157/157
f 161/161/161 160/160/160 159/159/159
f 162/162/162 161/161/161 159/159/159
f 165/165/165 164/164/164 163/163/163
f 166/166/166 165/165/165 163/163/163
f 169/169/169 168/168/168 167/167/167
f 170/170/170 169/169/169 167/167/167
f 173/173/173 172/172/172 171/171/171
f 174/174/174 173/173/173 171/171/171
f 177/177/177 176/176/176 175/175/175
f 178/178/178 177/177/177 175/175/175
f 181/181/181 180/180/180 179/179/179
f 182/182/182 181/181/181 179/179/179
f 185/185/185 184/184/184 183/183/183
f 186/186/186 185/185/185 183/183/183
f 189/189/189 188/188/188 187/187/187
f 188/188/188 190/190/190 187/187/187
f 187/187/187 190/190/190 191/191/191
f 192/192/192 187/187/187 191/191/191
f 192/192/192 191/191/191 193/193/193
f 191/191/191 194/194/194 193/193/193
f 197/197/197 196/196/196 195/195/195
f 198/198/198 197/197/197 195/195/195
f 201/201/201 200/200/200 199/199/199
f 202/202/202 201/201/201 199/199/199
f 205/205/205 204/204/204 203/203/203
f 206/206/206 205/205/205 203/203/203
f 209/209/209 208/208/208 207/207/207
f 210/210/210 209/209/209 207/207/207
f 213/213/213 212/212/212 211/211/211
f 214/214/214 213/213/213 211/211/211
f 217/217/217 216/216/216 215/215/215
f 218/218/218 217/217/217 215/215/215
f 221/221/221 220/220/220 219/219/219
f 222/222/222 221/221/221 219/219/219
f 225/225/225 224/224/224 223/223/223
f 226/226/226 225/225/225 223/223/223
f 229/229/229 228/228/228 227/227/227
f 230/230/230 229/229/229 227/227/227
f 233/233/233 232/232/232 231/231/231
f 234/234/234 233/233/233 231/231/231
f 237/237/237 236/236/236 235/235/235
f 238/238/238 237/237/237 235/235/235
f 241/241/241 240/240/240 239/239/239
f 242/242/242 241/241/241 239/239/239
f 245/245/245 244/244/244 243/243/243
f 246/246/246 245/245/245 243/243/243
f 249/249/249 248/248/248 247/247/247
f 250/250/250 249/249/249 247/247/247
f 253/253/253 252/252/252 251/251/251
f 254/254/254 253/253/253 251/251/251
f 257/257/257 256/256/256 255/255/255
f 258/258/258 257/257/257 255/255/255
f 261/261/261 260/260/260 259/259/259
f 262/262/262 261/261/261 259/259/259
f 265/265/265 264/264/264 263/263/263
f 266/266/266 265/265/265 263/263/263
f 269/269/269 268/268/268 267/267/267
f 270/270/270 269/269/269 267/267/267
f 273/273/273 272/272/272 271/271/271
f 274/274/274 273/273/273 271/271/271
f 277/277/277 276/276/276 275/275/275
f 278/278/278 277/277/277 275/275/275
f 281/281/281 280/280/280 279/279/279
f 282/282/282 281/281/281 279/279/279
f 285/285/285 284/284/284 283/283/283
f 286/286/286 285/285/285 283/283/283
f 289/289/289 288/288/288 287/287/287
f 290/290/290 289/289/289 287/287/287
f 293/293/293 292/292/292 291/291/291
f 294/294/294 293/293/293 291/291/291
f 297/297/297 296/296/296 295/295/295
f 298/298/298 297/297/297 295/295/295
f 301/301/301 300/300/300 299/299/299
f 302/302/302 301/301/301 299/299/299
f 305/305/305 304/304/304 303/303/303
f 306/306/306 305/305/305 303/303/303
f 309/309/309 308/308/308 307/307/307
f 310/310/310 309/309/309 307/307/307
f 313/313/313 312/312/312 311/311/311
f 314/314/314 313/313/313 311/311/311
f 317/317/317 316/316/316 315/315/315
f 318/318/318 317/317/317 315/315/315
f 321/321/321 320/320/320 319/319/319
f 322/322/322 321/321/321 319/319/319
g handle_3_178mm_01_36cd39fe
v -0.08856 -0.00341 0.03216
v -0.08886 -0.00328 0.00045
v -0.08887 -0.00327 0.03212
v -0.08855 -0.00341 0.00045
v -0.08855 -0.00328 0.00013
v -0.08881 -0.00322 0.00019
v 0.08856 -0.00328 0.00013
v 0.08858 -0.00341 0.03216
v -0.08856 -0.00328 0.03246
v 0.08857 -0.00328 0.03247
v 0.08856 -0.00341 0.00045
v 0.08888 -0.00327 0.03212
v 0.08887 -0.00328 0.00045
v 0.08882 -0.00322 0.00019
v -0.08856 -0.00297 0.03259
v 0.08857 -0.00328 0.03247
v -0.08856 -0.00328 0.03246
v 0.08857 -0.00297 0.03259
v 0.08856 0.01845 0.03259
v -0.08855 0.01845 0.03259
v -0.08887 -0.00264 0.03247
v -0.08886 0.01845 0.03246
v -0.08855 0.01876 0.03246
v -0.08881 0.01871 0.0324
v 0.08856 0.01876 0.03246
v 0.08887 0.01845 0.03246
v 0.08888 -0.00264 0.03247
v 0.08882 0.01871 0.0324
v -0.08855 0.00386 0.02898
v -0.08886 0.01845 0.02911
v -0.08887 0.00369 0.02912
v -0.08855 0.01845 0.02898
v -0.08855 0.01876 0.02911
v -0.08881 0.01871 0.02917
v 0.08856 0.01876 0.02911
v 0.08856 0.00386 0.02898
v -0.08856 0.00355 0.02885
v 0.08856 0.00355 0.02885
v 0.08856 0.01845 0.02898
v 0.08888 0.00369 0.02912
v 0.08887 0.01845 0.02911
v 0.08882 0.01871 0.02917
v -0.08856 -0.00328 0.03246
v -0.08887 -0.00264 0.03247
v -0.08856 -0.00297 0.03259
v -0.08887 -0.00309 0.03236
v -0.08887 -0.00327 0.03212
v -0.08856 -0.00341 0.03216
v -0.08899 -0.00263 0.03209
v -0.08899 -0.00187 0.03214
v -0.08886 0.01845 0.03246
v -0.08899 -0.00295 0.03198
v -0.08899 -0.00296 0.00045
v -0.08886 -0.00328 0.00045
v -0.08886 -0.00296 0.00013
v -0.08881 -0.00322 0.00019
v -0.08899 0.00297 0.00045
v -0.08886 0.00297 0.00013
v -0.08899 0.00295 0.02885
v -0.08886 0.00329 0.00045
v -0.08881 0.00323 0.00019
v -0.08887 0.00328 0.02865
v -0.08899 0.00304 0.02924
v -0.08887 0.00341 0.02898
v -0.08899 0.00326 0.0294
v -0.08887 0.00369 0.02912
v -0.08856 0.00355 0.02885
v -0.08855 0.00386 0.02898
v -0.08899 0.01845 0.02942
v -0.08886 0.01845 0.02911
v -0.08899 0.01845 0.03215
v -0.08886 0.01876 0.02942
v -0.08881 0.01871 0.02917
v -0.08886 0.01876 0.03215
v -0.08881 0.01871 0.0324
v 0.08888 -0.00264 0.03247
v 0.08857 -0.00328 0.03247
v 0.08857 -0.00297 0.03259
v 0.08888 -0.00309 0.03236
v 0.08888 -0.00327 0.03212
v 0.08858 -0.00341 0.03216
v 0.089 -0.00264 0.0321
v 0.089 -0.00296 0.03199
v 0.08887 -0.00328 0.00045
v 0.089 -0.00187 0.03214
v 0.089 0.01845 0.03215
v 0.08887 0.01845 0.03246
v 0.08887 0.01876 0.03215
v 0.08882 0.01871 0.0324
v 0.089 0.01845 0.02942
v 0.08887 0.01876 0.02942
v 0.089 0.00326 0.0294
v 0.08887 0.01845 0.02911
v 0.08882 0.01871 0.02917
v 0.08888 0.00369 0.02912
v 0.089 0.00304 0.02924
v 0.089 0.00295 0.02885
v 0.08888 0.00341 0.02898
v 0.08856 0.00355 0.02885
v 0.08856 0.00386 0.02898
v 0.08888 0.00328 0.02864
v 0.089 0.00297 0.00045
v 0.08887 0.00329 0.00045
v 0.089 -0.00296 0.00045
v 0.08887 0.00297 0.00013
v 0.08882 0.00323 0.00019
v 0.08887 -0.00296 0.00013
v 0.08882 -0.00322 0.00019
v -0.08856 0.00355 0.02885
v -0.08887 0.00341 0.02898
v -0.08887 0.00328 0.02865
v -0.08857 0.00342 0.02855
v 0.08856 0.00355 0.02885
v -0.08855 0.00342 0.00045
v -0.08886 0.00329 0.00045
v -0.08855 0.00329 0.00013
v -0.08881 0.00323 0.00019
v 0.08856 0.00342 0.00045
v 0.08856 0.00329 0.00013
v 0.08857 0.00342 0.02854
v 0.08887 0.00329 0.00045
v 0.08882 0.00323 0.00019
v 0.08888 0.00328 0.02864
v 0.08888 0.00341 0.02898
v -0.08855 0.00329 0.00013
v -0.08881 0.00323 0.00019
v -0.08886 0.00297 0.00013
v -0.08855 0.00297 0
v 0.08856 0.00329 0.00013
v -0.08886 -0.00296 0.00013
v 0.08856 0.00297 0
v 0.08887 0.00297 0.00013
v 0.08882 0.00323 0.00019
v 0.08887 -0.00296 0.00013
v 0.08856 -0.00296 0
v -0.08855 -0.00296 0
v -0.08855 -0.00328 0.00013
v -0.08881 -0.00322 0.00019
v 0.08856 -0.00328 0.00013
v 0.08882 -0.00322 0.00019
v -0.08886 0.01876 0.02942
v -0.08881 0.01871 0.02917
v -0.08855 0.01876 0.02911
v -0.08855 0.01889 0.02942
v -0.08886 0.01876 0.03215
v 0.08856 0.01889 0.02942
v 0.08856 0.01876 0.02911
v -0.08855 0.01889 0.03215
v 0.08887 0.01876 0.02942
v 0.08882 0.01871 0.02917
v 0.08856 0.01889 0.03215
v 0.08887 0.01876 0.03215
v 0.08856 0.01876 0.03246
v 0.08882 0.01871 0.0324
v -0.08855 0.01876 0.03246
v -0.08881 0.01871 0.0324
vn -0.0007021021 -0.9999919 0.003969043
vn -0.7163775 -0.697708 -0.002616967
vn -0.6678517 -0.7442818 0.004299561
vn -0.0007538043 -0.9999915 -0.004042915
vn -0.0004883156 -0.7071066 -0.7071066
vn -0.5773041 -0.5774034 -0.5773431
vn 0.0004882949 -0.7071068 -0.7071066
vn 0.0006950022 -0.999992 0.00393699
vn -0.001029227 -0.7035523 0.7106427
vn 0.0009903782 -0.7060102 0.708201
vn 0.000746607 -0.9999915 -0.004042271
vn 0.6677933 -0.7443349 0.004207141
vn 0.71661 -0.6974687 -0.002755297
vn 0.577293 -0.577394 -0.5773639
vn -0.0003728289 -0.005795987 0.9999832
vn 0.0009903782 -0.7060102 0.708201
vn -0.001029227 -0.7035523 0.7106427
vn 0.0003722613 -0.005843923 0.9999828
vn 0.0006944452 0.005957412 0.999982
vn -0.0006944454 0.005957306 0.999982
vn -0.4975892 -0.002688965 0.8674086
vn -0.7100878 0.004328158 0.7040998
vn -0.0004883347 0.7071071 0.7071062
vn -0.5772987 0.577367 0.5773851
vn 0.0004883549 0.7071071 0.7071063
vn 0.7100878 0.004327828 0.7040998
vn 0.4974751 -0.002550245 0.8674746
vn 0.5773152 0.5773496 0.5773861
vn -0.0009689392 0.008607945 -0.9999626
vn -0.7014703 0.005802612 -0.712675
vn -0.802505 0.005665516 -0.5966185
vn -0.0007467563 0.008691107 -0.999962
vn -0.0004885463 0.7071071 -0.7071063
vn -0.5773876 0.5773783 -0.5772848
vn 0.0004885647 0.7071071 -0.7071062
vn 0.0009690663 0.008554357 -0.9999629
vn -0.00120957 0.7016538 -0.712517
vn 0.001198724 0.6997476 -0.7143893
vn 0.0007467566 0.008691262 -0.999962
vn 0.8024935 0.005696645 -0.5966337
vn 0.7014666 0.005802543 -0.7126787
vn 0.5774003 0.5773703 -0.5772802
vn -0.001029227 -0.7035523 0.7106427
vn -0.4975892 -0.002688965 0.8674086
vn -0.0003728289 -0.005795987 0.9999832
vn -0.7858914 -0.315754 0.531671
vn -0.6678517 -0.7442818 0.004299561
vn -0.0007021021 -0.9999919 0.003969043
vn -0.9994192 -0.007015332 0.03334612
vn -0.988553 -5.383187E-05 0.1508738
vn -0.7100878 0.004328158 0.7040998
vn -0.9993138 -0.03703666 0.0003501129
vn -0.9997597 -0.02151494 -0.00420047
vn -0.7163775 -0.697708 -0.002616967
vn -0.7070345 -0.01405316 -0.7070394
vn -0.5773041 -0.5774034 -0.5773431
vn -0.999805 0.01928828 -0.004221229
vn -0.7070345 0.01405586 -0.7070395
vn -0.9999479 0.01020453 -6.275815E-05
vn -0.7223241 0.6915481 -0.003018697
vn -0.577276 0.5774357 -0.5773391
vn -0.787554 0.61624 -0.002664056
vn -0.9999272 0.009862563 -0.006957809
vn -0.8614656 0.3864137 -0.329487
vn -0.9999547 0.0002771304 -0.009520489
vn -0.802505 0.005665516 -0.5966185
vn -0.00120957 0.7016538 -0.712517
vn -0.0009689392 0.008607945 -0.9999626
vn -0.9993175 0.007045622 -0.036259
vn -0.7014703 0.005802612 -0.712675
vn -0.9988563 0.006775465 0.04732935
vn -0.706805 0.7068016 -0.02929608
vn -0.5773876 0.5773783 -0.5772848
vn -0.7068036 0.7068021 0.02931751
vn -0.5772987 0.577367 0.5773851
vn 0.4974751 -0.002550245 0.8674746
vn 0.0009903782 -0.7060102 0.708201
vn 0.0003722613 -0.005843923 0.9999828
vn 0.7836391 -0.3064834 0.5403496
vn 0.6677933 -0.7443349 0.004207141
vn 0.0006950022 -0.999992 0.00393699
vn 0.9994175 -0.006521958 0.03349595
vn 0.999325 -0.03673469 0.0003426946
vn 0.71661 -0.6974687 -0.002755297
vn 0.9885543 -4.770245E-05 0.1508655
vn 0.9988563 0.006775814 0.04732933
vn 0.7100878 0.004327828 0.7040998
vn 0.706798 0.7068077 0.02931624
vn 0.5773152 0.5773496 0.5773861
vn 0.9993176 0.007046048 -0.03625763
vn 0.7067989 0.7068079 -0.02929474
vn 0.9999547 0.0002764242 -0.009521069
vn 0.7014666 0.005802543 -0.7126787
vn 0.5774003 0.5773703 -0.5772802
vn 0.8024935 0.005696645 -0.5966337
vn 0.9999253 0.009979266 -0.007065326
vn 0.9999481 0.01018739 -6.405021E-05
vn 0.8591703 0.3897705 -0.3315197
vn 0.001198724 0.6997476 -0.7143893
vn 0.0009690663 0.008554357 -0.9999629
vn 0.78561 0.6187161 -0.002695468
vn 0.9998028 0.01940597 -0.004216617
vn 0.7188439 0.6951652 -0.002987816
vn 0.9997645 -0.02129278 -0.004203298
vn 0.7070348 0.01405419 -0.7070391
vn 0.5773052 0.577408 -0.5773376
vn 0.7070343 -0.01405261 -0.7070395
vn 0.577293 -0.577394 -0.5773639
vn -0.00120957 0.7016538 -0.712517
vn -0.8614656 0.3864137 -0.329487
vn -0.787554 0.61624 -0.002664056
vn -0.0008736281 0.9999895 -0.004514546
vn 0.001198724 0.6997476 -0.7143893
vn -0.0007353268 0.9999894 -0.004556738
vn -0.7223241 0.6915481 -0.003018697
vn -0.0004882652 0.7071066 -0.7071066
vn -0.577276 0.5774357 -0.5773391
vn 0.0007314643 0.9999894 -0.004557539
vn 0.0004883259 0.7071066 -0.7071068
vn 0.000870871 0.9999894 -0.004542826
vn 0.7188439 0.6951652 -0.002987816
vn 0.5773052 0.577408 -0.5773376
vn 0.78561 0.6187161 -0.002695468
vn 0.8591703 0.3897705 -0.3315197
vn -0.0004882652 0.7071066 -0.7071066
vn -0.577276 0.5774357 -0.5773391
vn -0.7070345 0.01405586 -0.7070395
vn -0.0007177525 0.02072039 -0.9997851
vn 0.0004883259 0.7071066 -0.7071068
vn -0.7070345 -0.01405316 -0.7070394
vn 0.0007177389 0.02072144 -0.999785
vn 0.7070348 0.01405419 -0.7070391
vn 0.5773052 0.577408 -0.5773376
vn 0.7070343 -0.01405261 -0.7070395
vn 0.0007176878 -0.02072003 -0.9997851
vn -0.0007177153 -0.02072108 -0.999785
vn -0.0004883156 -0.7071066 -0.7071066
vn -0.5773041 -0.5774034 -0.5773431
vn 0.0004882949 -0.7071068 -0.7071066
vn 0.577293 -0.577394 -0.5773639
vn -0.706805 0.7068016 -0.02929608
vn -0.5773876 0.5773783 -0.5772848
vn -0.0004885463 0.7071071 -0.7071063
vn -0.0007036836 0.9990925 -0.04258818
vn -0.7068036 0.7068021 0.02931751
vn 0.0007036814 0.9990925 -0.04258886
vn 0.0004885647 0.7071071 -0.7071062
vn -0.0007038724 0.9990926 0.04258478
vn 0.7067989 0.7068079 -0.02929474
vn 0.5774003 0.5773703 -0.5772802
vn 0.0007038706 0.9990926 0.04258546
vn 0.706798 0.7068077 0.02931624
vn 0.0004883549 0.7071071 0.7071063
vn 0.5773152 0.5773496 0.5773861
vn -0.0004883347 0.7071071 0.7071062
vn -0.5772987 0.577367 0.5773851
vt -9.831882 -0.01871353
vt -9.832475 -0.0807029
vt -9.83248 -0.01879346
vt -9.831864 -0.0807029
vt -9.831862 -0.0813145
vt -9.832364 -0.08120203
vt -9.485614 -0.08131449
vt -9.485579 -0.01869657
vt -9.83188 -0.01811397
vt -9.485586 -0.01810888
vt -9.485612 -0.08070283
vt -9.484991 -0.01877561
vt -9.485002 -0.08070282
vt -9.485112 -0.08120205
vt -9.831939 -0.2291762
vt -9.485529 -0.2297756
vt -9.831938 -0.2297755
vt -9.485539 -0.2291761
vt -9.485556 -0.1872829
vt -9.831921 -0.187283
vt -9.832542 -0.2285337
vt -9.832533 -0.187283
vt -9.831923 -0.1866711
vt -9.83242 -0.1867836
vt -9.485556 -0.186671
vt -9.484943 -0.187283
vt -9.484934 -0.2285335
vt -9.485056 -0.1867836
vt -9.831984 0.273658
vt -9.832599 0.2451113
vt -9.832603 0.2739904
vt -9.831988 0.2451113
vt -9.831986 0.2444991
vt -9.832488 0.2446118
vt -9.485442 0.244499
vt -9.485447 0.2736581
vt -9.831999 0.2742732
vt -9.485437 0.2742732
vt -9.485442 0.2451113
vt -9.484829 0.2739904
vt -9.484832 0.2451113
vt -9.484942 0.2446117
vt -9.220046 0.4201437
vt -9.220033 0.4213908
vt -9.219795 0.4207456
vt -9.220254 0.4205178
vt -9.220729 0.4201677
vt -9.220649 0.4198944
vt -9.220774 0.4214132
vt -9.220682 0.4229079
vt -9.22005 0.4628108
vt -9.220994 0.4207947
vt -9.282912 0.4207633
vt -9.282912 0.4201489
vt -9.283526 0.4207632
vt -9.283415 0.4202618
vt -9.282913 0.4324199
vt -9.283527 0.43242
vt -9.227134 0.4323735
vt -9.282913 0.4330342
vt -9.283414 0.4329214
vt -9.227539 0.4330293
vt -9.226373 0.4325491
vt -9.226883 0.4332685
vt -9.226054 0.4329749
vt -9.22662 0.4338281
vt -9.227135 0.4335442
vt -9.226887 0.4341615
vt -9.226016 0.4628108
vt -9.22663 0.4628108
vt -9.220664 0.4628108
vt -9.226018 0.4634252
vt -9.22652 0.4633122
vt -9.220666 0.4634252
vt -9.220164 0.4633123
vt -9.283292 0.5527388
vt -9.283283 0.5514919
vt -9.283526 0.5520937
vt -9.283076 0.5518625
vt -9.282614 0.5515107
vt -9.282692 0.5512425
vt -9.282555 0.5527498
vt -9.282351 0.5521264
vt -9.22041 0.5514969
vt -9.282641 0.5542561
vt -9.282659 0.5941591
vt -9.283273 0.5941591
vt -9.282659 0.5947735
vt -9.283159 0.5946606
vt -9.277305 0.5941591
vt -9.277307 0.5947735
vt -9.277267 0.5643231
vt -9.27669 0.5941591
vt -9.276804 0.5946606
vt -9.276704 0.5651762
vt -9.276954 0.5639005
vt -9.276191 0.5637259
vt -9.27644 0.5646187
vt -9.276186 0.5648926
vt -9.276436 0.5655097
vt -9.275777 0.5643803
vt -9.22041 0.563768
vt -9.22041 0.5643822
vt -9.220411 0.5521113
vt -9.219795 0.5637682
vt -9.219908 0.5642695
vt -9.219797 0.5521113
vt -9.219909 0.5516098
vt -9.831885 0.1012738
vt -9.832492 0.1010244
vt -9.832493 0.1016787
vt -9.8319 0.1018671
vt -9.485577 0.1012779
vt -9.831875 0.1568132
vt -9.832485 0.1568132
vt -9.831874 0.157425
vt -9.832374 0.1573126
vt -9.485582 0.1568132
vt -9.485581 0.157425
vt -9.485569 0.1018804
vt -9.48497 0.1568132
vt -9.485084 0.1573125
vt -9.484966 0.1016854
vt -9.484965 0.1010261
vt -9.832376 0.3212014
vt -9.832874 0.3213138
vt -9.832987 0.321815
vt -9.832373 0.321815
vt -9.485045 0.3212013
vt -9.832989 0.333456
vt -9.485044 0.321815
vt -9.48443 0.321815
vt -9.484543 0.3213138
vt -9.484432 0.3334559
vt -9.485044 0.3334559
vt -9.832375 0.333456
vt -9.832375 0.3340696
vt -9.832874 0.333957
vt -9.485044 0.3340695
vt -9.484543 0.333957
vt -9.833638 0.3657221
vt -9.833522 0.366225
vt -9.83302 0.3663383
vt -9.833021 0.3657223
vt -9.833636 0.3603572
vt -9.484398 0.3657222
vt -9.484399 0.3663382
vt -9.83302 0.3603572
vt -9.483783 0.365722
vt -9.483895 0.366225
vt -9.484397 0.3603571
vt -9.483783 0.3603571
vt -9.484399 0.3597415
vt -9.483895 0.3598547
vt -9.83302 0.3597416
vt -9.833522 0.3598547
usemtl HammeredMetal_AlbedoTransparency_2
f 325/325/325 324/324/324 323/323/323
f 324/324/324 326/326/326 323/323/323
f 326/326/326 324/324/324 327/327/327
f 324/324/324 328/328/328 327/327/327
f 327/327/327 329/329/329 326/326/326
f 330/330/330 323/323/323 326/326/326
f 323/323/323 330/330/330 331/331/331
f 330/330/330 332/332/332 331/331/331
f 333/333/333 330/330/330 326/326/326
f 329/329/329 333/333/333 326/326/326
f 330/330/330 333/333/333 334/334/334
f 333/333/333 335/335/335 334/334/334
f 333/333/333 329/329/329 335/335/335
f 329/329/329 336/336/336 335/335/335
f 339/339/339 338/338/338 337/337/337
f 338/338/338 340/340/340 337/337/337
f 340/340/340 341/341/341 337/337/337
f 341/341/341 342/342/342 337/337/337
f 337/337/337 342/342/342 343/343/343
f 342/342/342 344/344/344 343/343/343
f 342/342/342 345/345/345 344/344/344
f 342/342/342 341/341/341 345/345/345
f 345/345/345 346/346/346 344/344/344
f 341/341/341 347/347/347 345/345/345
f 348/348/348 341/341/341 340/340/340
f 341/341/341 348/348/348 347/347/347
f 349/349/349 348/348/348 340/340/340
f 348/348/348 350/350/350 347/347/347
f 353/353/353 352/352/352 351/351/351
f 352/352/352 354/354/354 351/351/351
f 354/354/354 352/352/352 355/355/355
f 352/352/352 356/356/356 355/355/355
f 355/355/355 357/357/357 354/354/354
f 351/351/351 354/354/354 358/358/358
f 351/351/351 358/358/358 359/359/359
f 358/358/358 360/360/360 359/359/359
f 354/354/354 361/361/361 358/358/358
f 357/357/357 361/361/361 354/354/354
f 358/358/358 361/361/361 362/362/362
f 361/361/361 363/363/363 362/362/362
f 361/361/361 357/357/357 363/363/363
f 357/357/357 364/364/364 363/363/363
f 367/367/367 366/366/366 365/365/365
f 366/366/366 368/368/368 365/365/365
f 365/365/365 368/368/368 369/369/369
f 370/370/370 365/365/365 369/369/369
f 371/371/371 368/368/368 366/366/366
f 369/369/369 368/368/368 371/371/371
f 372/372/372 371/371/371 366/366/366
f 366/366/366 373/373/373 372/372/372
f 374/374/374 369/369/369 371/371/371
f 374/374/374 375/375/375 369/369/369
f 375/375/375 376/376/376 369/369/369
f 375/375/375 377/377/377 376/376/376
f 377/377/377 378/378/378 376/376/376
f 377/377/377 375/375/375 379/379/379
f 380/380/380 377/377/377 379/379/379
f 375/375/375 374/374/374 381/381/381
f 379/379/379 375/375/375 381/381/381
f 379/379/379 382/382/382 380/380/380
f 382/382/382 379/379/379 381/381/381
f 382/382/382 383/383/383 380/380/380
f 384/384/384 382/382/382 381/381/381
f 381/381/381 374/374/374 385/385/385
f 381/381/381 385/385/385 384/384/384
f 374/374/374 371/371/371 385/385/385
f 385/385/385 386/386/386 384/384/384
f 385/385/385 371/371/371 387/387/387
f 371/371/371 372/372/372 387/387/387
f 388/388/388 386/386/386 385/385/385
f 387/387/387 388/388/388 385/385/385
f 389/389/389 386/386/386 388/388/388
f 390/390/390 389/389/389 388/388/388
f 387/387/387 391/391/391 388/388/388
f 387/387/387 372/372/372 391/391/391
f 391/391/391 392/392/392 388/388/388
f 372/372/372 393/393/393 391/391/391
f 373/373/373 393/393/393 372/372/372
f 391/391/391 394/394/394 392/392/392
f 391/391/391 393/393/393 394/394/394
f 394/394/394 395/395/395 392/392/392
f 393/393/393 396/396/396 394/394/394
f 393/393/393 373/373/373 396/396/396
f 373/373/373 397/397/397 396/396/396
f 400/400/400 399/399/399 398/398/398
f 399/399/399 401/401/401 398/398/398
f 402/402/402 401/401/401 399/399/399
f 403/403/403 402/402/402 399/399/399
f 404/404/404 401/401/401 402/402/402
f 398/398/398 401/401/401 404/404/404
f 405/405/405 404/404/404 402/402/402
f 402/402/402 406/406/406 405/405/405
f 407/407/407 398/398/398 404/404/404
f 407/407/407 408/408/408 398/398/398
f 408/408/408 409/409/409 398/398/398
f 408/408/408 410/410/410 409/409/409
f 410/410/410 411/411/411 409/409/409
f 410/410/410 408/408/408 412/412/412
f 413/413/413 410/410/410 412/412/412
f 408/408/408 407/407/407 414/414/414
f 412/412/412 408/408/408 414/414/414
f 412/412/412 415/415/415 413/413/413
f 415/415/415 412/412/412 414/414/414
f 415/415/415 416/416/416 413/413/413
f 417/417/417 415/415/415 414/414/414
f 414/414/414 407/407/407 418/418/418
f 407/407/407 404/404/404 418/418/418
f 414/414/414 418/418/418 417/417/417
f 418/418/418 404/404/404 419/419/419
f 404/404/404 405/405/405 419/419/419
f 418/418/418 420/420/420 417/417/417
f 417/417/417 420/420/420 421/421/421
f 422/422/422 417/417/417 421/421/421
f 423/423/423 420/420/420 418/418/418
f 419/419/419 423/423/423 418/418/418
f 419/419/419 424/424/424 423/423/423
f 419/419/419 405/405/405 424/424/424
f 424/424/424 425/425/425 423/423/423
f 405/405/405 426/426/426 424/424/424
f 406/406/406 426/426/426 405/405/405
f 424/424/424 427/427/427 425/425/425
f 424/424/424 426/426/426 427/427/427
f 427/427/427 428/428/428 425/425/425
f 426/426/426 429/429/429 427/427/427
f 426/426/426 406/406/406 429/429/429
f 406/406/406 430/430/430 429/429/429
f 433/433/433 432/432/432 431/431/431
f 434/434/434 433/433/433 431/431/431
f 431/431/431 435/435/435 434/434/434
f 434/434/434 436/436/436 433/433/433
f 436/436/436 437/437/437 433/433/433
f 436/436/436 438/438/438 437/437/437
f 438/438/438 439/439/439 437/437/437
f 436/436/436 440/440/440 438/438/438
f 440/440/440 436/436/436 434/434/434
f 440/440/440 441/441/441 438/438/438
f 435/435/435 442/442/442 434/434/434
f 442/442/442 440/440/440 434/434/434
f 440/440/440 443/443/443 441/441/441
f 443/443/443 440/440/440 442/442/442
f 443/443/443 444/444/444 441/441/441
f 445/445/445 443/443/443 442/442/442
f 442/442/442 435/435/435 445/445/445
f 435/435/435 446/446/446 445/445/445
f 449/449/449 448/448/448 447/447/447
f 450/450/450 449/449/449 447/447/447
f 447/447/447 451/451/451 450/450/450
f 449/449/449 450/450/450 452/452/452
f 451/451/451 453/453/453 450/450/450
f 453/453/453 451/451/451 454/454/454
f 451/451/451 455/455/455 454/454/454
f 454/454/454 456/456/456 453/453/453
f 453/453/453 457/457/457 450/450/450
f 456/456/456 457/457/457 453/453/453
f 450/450/450 458/458/458 452/452/452
f 457/457/457 458/458/458 450/450/450
f 458/458/458 459/459/459 452/452/452
f 458/458/458 457/457/457 459/459/459
f 459/459/459 460/460/460 452/452/452
f 457/457/457 461/461/461 459/459/459
f 457/457/457 456/456/456 461/461/461
f 456/456/456 462/462/462 461/461/461
f 465/465/465 464/464/464 463/463/463
f 466/466/466 465/465/465 463/463/463
f 463/463/463 467/467/467 466/466/466
f 466/466/466 468/468/468 465/465/465
f 468/468/468 469/469/469 465/465/465
f 467/467/467 470/470/470 466/466/466
f 466/466/466 470/470/470 468/468/468
f 468/468/468 471/471/471 469/469/469
f 471/471/471 472/472/472 469/469/469
f 468/468/468 473/473/473 471/471/471
f 470/470/470 473/473/473 468/468/468
f 473/473/473 474/474/474 471/471/471
f 473/473/473 475/475/475 474/474/474
f 475/475/475 473/473/473 470/470/470
f 475/475/475 476/476/476 474/474/474
f 477/477/477 475/475/475 470/470/470
f 470/470/470 467/467/467 477/477/477
f 467/467/467 478/478/478 477/477/477
