mtllib FP210:Room_010_bcbcf3d6.mtl
g FP210:Room.010_bcbcf3d6
v 0 4 -0.39829
v 7 4 -0.39829
v 7 0 -0.39967
v 0 0 -0.39967
v 7 4 -0.39829
v 7 3.99914 2.10171
v 7 -0.00086 2.10033
v 7 0 -0.39967
v 7.00001 -0.00109 2.77492
v 7 -0.00086 2.10033
v 7 3.99914 2.10171
v 7.00001 2.08924 2.77564
v 7.00001 2.08889 3.77564
v 7 3.99828 4.60171
v 7 -0.00172 4.60033
v 7.00001 -0.00144 3.77492
v 7 -0.00172 4.60033
v 7 3.99828 4.60171
v 3.5 3.99828 4.60171
v 3.5 -0.00172 4.60033
v 0 -0.00172 4.60033
v 0 3.99828 4.60171
v 0 3.99862 3.60171
v 0 -0.00138 3.60033
v -0.05999 4.00003 -0.45829
v -0.05999 3E-05 -0.45967
v 7.06001 3E-05 -0.45967
v 7.06001 4.00003 -0.45829
v 7.06001 4.00003 -0.45829
v 7.06001 3E-05 -0.45967
v 7.06001 -0.00086 2.10033
v 7.06001 3.99914 2.10171
v 7.06001 -0.00086 2.10033
v 7.06001 -0.00109 2.77492
v 7.06001 2.08924 2.77564
v 7.06001 3.99914 2.10171
v 7.06001 2.08889 3.77564
v 7.06001 3.99826 4.66171
v 7.06001 -0.00144 3.77492
v 7.06001 -0.00174 4.66033
v 7.06001 -0.00174 4.66033
v 3.5 -0.00174 4.66033
v 3.5 3.99826 4.66171
v 7.06001 3.99826 4.66171
v -0.05999 -0.00174 4.66033
v -0.05999 -0.00138 3.60033
v -0.05999 3.99862 3.60171
v -0.05999 3.99826 4.66171
v 7 -0.00086 2.10033
v 7.06001 -0.00086 2.10033
v 7.06001 3E-05 -0.45967
v 7 0 -0.39967
v 7 3.99828 4.60171
v 7.06001 3.99826 4.66171
v 3.5 3.99826 4.66171
v 3.5 3.99828 4.60171
v 7 4 -0.39829
v 7.06001 4.00003 -0.45829
v 7.06001 3.99914 2.10171
v 7 3.99914 2.10171
v 0 -0.00138 3.60033
v -0.05999 -0.00138 3.60033
v -0.05999 -0.00174 4.66033
v 0 -0.00172 4.60033
v 3.5 -0.00172 4.60033
v 3.5 -0.00174 4.66033
v 7.06001 -0.00174 4.66033
v 7 -0.00172 4.60033
v 0 3.99828 4.60171
v -0.05999 3.99826 4.66171
v -0.05999 3.99862 3.60171
v 0 3.99862 3.60171
v 3.5 3.99828 4.60171
v 3.5 3.99826 4.66171
v -0.05999 3.99826 4.66171
v 0 3.99828 4.60171
v 0 -0.00172 4.60033
v -0.05999 -0.00174 4.66033
v 3.5 -0.00174 4.66033
v 3.5 -0.00172 4.60033
v 7 3.99914 2.10171
v 7.06001 3.99914 2.10171
v 7.06001 3.99826 4.66171
v 7 3.99828 4.60171
v 0 0 -0.39967
v -0.05999 3E-05 -0.45967
v -0.05999 -0.00138 3.60033
v 0 -0.00138 3.60033
v 7 -0.00172 4.60033
v 7.06001 -0.00174 4.66033
v 7.06001 -0.00144 3.77492
v 7.00001 -0.00144 3.77492
v 7 0 -0.39967
v 7.06001 3E-05 -0.45967
v -0.05999 3E-05 -0.45967
v 0 0 -0.39967
v 0 4 -0.39829
v -0.05999 4.00003 -0.45829
v 7.06001 4.00003 -0.45829
v 7 4 -0.39829
v 0 3.99862 3.60171
v -0.05999 3.99862 3.60171
v -0.05999 4.00003 -0.45829
v 0 4 -0.39829
v -0.05999 0.99758 1.13641
v -0.05999 2.38758 1.13689
v 0 2.38758 1.13689
v 0 0.99758 1.13641
v -0.05999 2.38689 3.13689
v -0.05999 0.99689 3.13641
v 0 0.99689 3.13641
v 0 2.38689 3.13689
v -0.05999 2.38758 1.13689
v -0.05999 2.38689 3.13689
v 0 2.38689 3.13689
v 0 2.38758 1.13689
v -0.05999 0.99689 3.13641
v -0.05999 0.99758 1.13641
v 0 0.99758 1.13641
v 0 0.99689 3.13641
v 1.59694 0.83018 4.60062
v 1.59694 2.58018 4.60122
v 1.59694 2.58016 4.66122
v 1.59694 0.83016 4.66062
v 0.69694 2.58018 4.60122
v 0.69694 0.83018 4.60062
v 0.69694 0.83016 4.66062
v 0.69694 2.58016 4.66122
v 1.59694 2.58018 4.60122
v 0.69694 2.58018 4.60122
v 0.69694 2.58016 4.66122
v 1.59694 2.58016 4.66122
v 0.69694 0.83018 4.60062
v 1.59694 0.83018 4.60062
v 1.59694 0.83016 4.66062
v 0.69694 0.83016 4.66062
v 7.06001 -0.00109 2.77492
v 7.06001 -0.00086 2.10033
v 7 -0.00086 2.10033
v 7.00001 -0.00109 2.77492
v 7.00001 2.08889 3.77564
v 7.00001 -0.00144 3.77492
v 7.06001 -0.00144 3.77492
v 7.06001 2.08889 3.77564
v 7.06001 2.08924 2.77564
v 7.06001 -0.00109 2.77492
v 7.00001 -0.00109 2.77492
v 7.00001 2.08924 2.77564
v 7.00001 2.08924 2.77564
v 7.00001 2.08889 3.77564
v 7.06001 2.08889 3.77564
v 7.06001 2.08924 2.77564
v 0.69694 0.83018 4.60062
v 0 -0.00172 4.60033
v 3.5 -0.00172 4.60033
v 0 3.99828 4.60171
v 1.59694 0.83018 4.60062
v 0.69694 2.58018 4.60122
v 3.5 3.99828 4.60171
v 1.59694 2.58018 4.60122
v 0 0 -0.39967
v 0 0.99758 1.13641
v 0 2.38758 1.13689
v 0 0.99689 3.13641
v 0 4 -0.39829
v 0 -0.00138 3.60033
v 0 2.38689 3.13689
v 0 3.99862 3.60171
v 1.59694 0.83016 4.66062
v 1.59694 2.58016 4.66122
v 3.5 3.99826 4.66171
v 0.69694 2.58016 4.66122
v 3.5 -0.00174 4.66033
v -0.05999 3.99826 4.66171
v -0.05999 -0.00174 4.66033
v 0.69694 0.83016 4.66062
v -0.05999 2.38689 3.13689
v -0.05999 2.38758 1.13689
v -0.05999 4.00003 -0.45829
v -0.05999 0.99758 1.13641
v -0.05999 3.99862 3.60171
v -0.05999 3E-05 -0.45967
v -0.05999 -0.00138 3.60033
v -0.05999 0.99689 3.13641
vn 0 -0.000199518 0.1776739
vn 0 -0.000199518 0.1776739
vn 0 -0.000199518 0.1776739
vn 0 -0.000199518 0.1776739
vn -0.5773503 0 -0.3996764
vn -0.5773503 0 -0.3996764
vn -0.5773503 0 -0.3996764
vn -0.5773503 0 -0.3996764
vn -0.5773503 0 -0.3996764
vn -0.5773503 0 -0.3996764
vn -0.5773503 0 -0.3996764
vn -0.5773503 0 -0.3996764
vn -0.5773503 0 -0.3996764
vn -0.5773503 0 -0.3996764
vn -0.5773503 0 -0.3996764
vn -0.5773503 0 -0.3996764
vn 0 0.000199518 -0.9770266
vn 0 0.000199518 -0.9770266
vn 0 0.000199518 -0.9770266
vn 0 0.000199518 -0.9770266
vn 0.5773503 0 -0.3996764
vn 0.5773503 0 -0.3996764
vn 0.5773503 0 -0.3996764
vn 0.5773503 0 -0.3996764
vn 0 0.000199518 -0.9770266
vn 0 0.000199518 -0.9770266
vn 0 0.000199518 -0.9770266
vn 0 0.000199518 -0.9770266
vn 0.5773503 0 -0.3996764
vn 0.5773503 0 -0.3996764
vn 0.5773503 0 -0.3996764
vn 0.5773503 0 -0.3996764
vn 0.5773503 0 -0.3996764
vn 0.5773503 0 -0.3996765
vn 0.5773503 0 -0.3996765
vn 0.5773503 0 -0.3996764
vn 0.5773503 0 -0.3996765
vn 0.5773503 0 -0.3996765
vn 0.5773503 0 -0.3996765
vn 0.5773503 0 -0.3996765
vn 0 -0.000199518 0.1776739
vn 0 -0.000199518 0.1776739
vn 0 -0.000199518 0.1776739
vn 0 -0.000199518 0.1776739
vn -0.5773503 0 -0.3996764
vn -0.5773503 0 -0.3996764
vn -0.5773503 0 -0.3996764
vn -0.5773503 0 -0.3996764
vn 0 -0.5773503 -0.3998759
vn 0 -0.5773503 -0.3998759
vn 0 -0.5773503 -0.3998759
vn 0 -0.5773503 -0.3998759
vn 0 0.5773503 -0.3994769
vn 0 0.5773503 -0.3994769
vn 0 0.5773503 -0.3994769
vn 0 0.5773503 -0.3994769
vn 0 0.5773503 -0.3994769
vn 0 0.5773503 -0.3994769
vn 0 0.5773503 -0.3994769
vn 0 0.5773503 -0.3994769
vn 0 -0.5773503 -0.3998759
vn 0 -0.5773503 -0.3998759
vn 0 -0.5773503 -0.3998759
vn 0 -0.5773503 -0.3998759
vn 0 -0.5773503 -0.3998759
vn 0 -0.5773503 -0.3998759
vn 0 -0.5773503 -0.3998759
vn 0 -0.5773503 -0.3998759
vn 0 0.5773503 -0.3994769
vn 0 0.5773503 -0.3994769
vn 0 0.5773503 -0.3994769
vn 0 0.5773503 -0.3994769
vn 0 0.5773503 -0.3994769
vn 0 0.5773503 -0.3994769
vn 0 0.5773503 -0.3994769
vn 0 0.5773503 -0.3994769
vn 0 -0.5773503 -0.3998759
vn 0 -0.5773503 -0.3998759
vn 0 -0.5773503 -0.3998759
vn 0 -0.5773503 -0.3998759
vn 0 0.5773503 -0.3994769
vn 0 0.5773503 -0.3994769
vn 0 0.5773503 -0.3994769
vn 0 0.5773503 -0.3994769
vn 0 -0.5773503 -0.3998759
vn 0 -0.5773503 -0.3998759
vn 0 -0.5773503 -0.3998759
vn 0 -0.5773503 -0.3998759
vn 0 -0.5773503 -0.3998759
vn 0 -0.5773503 -0.3998759
vn 0 -0.5773503 -0.3998759
vn 0 -0.5773503 -0.3998759
vn 0 -0.5773503 -0.3998759
vn 0 -0.5773503 -0.3998759
vn 0 -0.5773503 -0.3998759
vn 0 -0.5773503 -0.3998759
vn 0 0.5773503 -0.3994769
vn 0 0.5773503 -0.3994769
vn 0 0.5773503 -0.3994769
vn 0 0.5773503 -0.3994769
vn 0 0.5773503 -0.3994769
vn 0 0.5773503 -0.3994769
vn 0 0.5773503 -0.3994769
vn 0 0.5773503 -0.3994769
vn 0 -0.000199518 0.1776739
vn 0 -0.000199518 0.1776739
vn 0 -0.000199518 0.1776739
vn 0 -0.000199518 0.1776739
vn 2.294186E-06 0.000199518 -0.9770266
vn 2.294186E-06 0.000199518 -0.9770266
vn 2.294186E-06 0.000199518 -0.9770266
vn 2.294186E-06 0.000199518 -0.9770266
vn -4.451913E-07 -0.5773503 -0.3998759
vn -4.451913E-07 -0.5773503 -0.3998759
vn -4.451913E-07 -0.5773503 -0.3998759
vn -4.451913E-07 -0.5773503 -0.3998759
vn 5.735465E-07 0.5773503 -0.3994769
vn 5.735465E-07 0.5773503 -0.3994769
vn 5.735465E-07 0.5773503 -0.3994769
vn 5.735465E-07 0.5773503 -0.3994769
vn -0.5773503 0 -0.3996764
vn -0.5773503 0 -0.3996764
vn -0.5773503 0 -0.3996764
vn -0.5773503 0 -0.3996764
vn 0.5773503 0 -0.3996764
vn 0.5773503 0 -0.3996764
vn 0.5773503 0 -0.3996764
vn 0.5773503 0 -0.3996764
vn 0 -0.5773503 -0.3998759
vn 0 -0.5773503 -0.3998759
vn 0 -0.5773503 -0.3998759
vn 0 -0.5773503 -0.3998759
vn 0 0.5773503 -0.3994769
vn 0 0.5773503 -0.3994769
vn 0 0.5773503 -0.3994769
vn 0 0.5773503 -0.3994769
vn 0 -0.5773503 -0.3998759
vn 0 -0.5773503 -0.3998759
vn 0 -0.5773503 -0.3998759
vn 0 -0.5773503 -0.3998759
vn 0 0.000199518 -0.9770266
vn 0 0.000199518 -0.9770266
vn 0 0.000199518 -0.9770266
vn 0 0.000199518 -0.9770266
vn 0 -0.000199518 0.1776739
vn 0 -0.000199518 0.1776739
vn 0 -0.000199518 0.1776739
vn 0 -0.000199518 0.1776739
vn 0 -0.5773503 -0.3998759
vn 0 -0.5773503 -0.3998759
vn 0 -0.5773503 -0.3998759
vn 0 -0.5773503 -0.3998759
vn 0 0.000199518 -0.9770266
vn 0 0.000199518 -0.9770266
vn 0 0.000199518 -0.9770266
vn 0 0.000199518 -0.9770266
vn 0 0.000199518 -0.9770266
vn 0 0.000199518 -0.9770266
vn 0 0.000199518 -0.9770266
vn 0 0.000199518 -0.9770266
vn 0.5773503 0 -0.3996764
vn 0.5773503 0 -0.3996764
vn 0.5773503 0 -0.3996764
vn 0.5773503 0 -0.3996764
vn 0.5773503 0 -0.3996764
vn 0.5773503 0 -0.3996764
vn 0.5773503 0 -0.3996764
vn 0.5773503 0 -0.3996764
vn 0 -0.000199518 0.1776739
vn 0 -0.000199518 0.1776739
vn 0 -0.000199518 0.1776739
vn 0 -0.000199518 0.1776739
vn 0 -0.000199518 0.1776739
vn 0 -0.000199518 0.1776739
vn 0 -0.000199518 0.1776739
vn 0 -0.000199518 0.1776739
vn -0.5773503 0 -0.3996764
vn -0.5773503 0 -0.3996764
vn -0.5773503 0 -0.3996764
vn -0.5773503 0 -0.3996764
vn -0.5773503 0 -0.3996764
vn -0.5773503 0 -0.3996764
vn -0.5773503 0 -0.3996764
vn -0.5773503 0 -0.3996764
vt -2 0.5
vt 15.5 0.5
vt 15.5 -9.5
vt -2 -9.5
vt -1.000809 0.5
vt -7.250809 0.5
vt -7.250809 -9.5
vt -1.000809 -9.5
vt -3.937277 -9.5
vt -2.250809 -9.5
vt -2.250809 0.5
vt -3.937277 -4.274175
vt -6.437277 -4.274175
vt -8.500809 0.5
vt -8.500809 -9.5
vt -6.437277 -9.5
vt -4.5 0.5
vt -4.5 10.5
vt -13.25 10.5
vt -13.25 0.5
vt -3.500809 0.5
vt -3.500809 10.5
vt -1.000809 10.5
vt -1.000809 0.5
vt -2 0.5
vt -2 -9.5
vt 15.5 -9.5
vt 15.5 0.5
vt -1.000809 0.5
vt -1.000809 -9.5
vt -7.250809 -9.5
vt -7.250809 0.5
vt -2.250809 -9.5
vt -3.897751 -9.5
vt -3.897751 -4.274176
vt -2.250809 0.5
vt -6.339157 -4.274175
vt -8.500809 0.5
vt -6.339157 -9.5
vt -8.500809 -9.5
vt -4.5 0.5
vt -13.25 0.5
vt -13.25 10.5
vt -4.5 10.5
vt -3.500809 0.5
vt -1.000809 0.5
vt -1.000809 10.5
vt -3.500809 10.5
vt -7.250809 -9.5
vt -7.250809 -9.5
vt -1.000809 -9.5
vt -1.000809 -9.5
vt -4.5 10.5
vt -4.5 10.5
vt -13.25 10.5
vt -13.25 10.5
vt -1.000809 0.5
vt -1.000809 0.5
vt -7.250809 0.5
vt -7.250809 0.5
vt -1.000809 0.5
vt -1.000809 0.5
vt -3.500809 0.5
vt -3.500809 0.5
vt -13.25 0.5
vt -13.25 0.5
vt -4.5 0.5
vt -4.5 0.5
vt -3.500809 10.5
vt -3.500809 10.5
vt -1.000809 10.5
vt -1.000809 10.5
vt -3.25 0.5
vt -3.25 0.5
vt -12 0.5
vt -12 0.5
vt -12 -9.5
vt -12 -9.5
vt -3.25 -9.5
vt -3.25 -9.5
vt -2.250809 0.5
vt -2.250809 0.5
vt -8.500809 0.5
vt -8.500809 0.5
vt -1.000809 -9.5
vt -1.000809 -9.5
vt -11.00081 -9.5
vt -11.00081 -9.5
vt -8.500809 -9.5
vt -8.500809 -9.5
vt -6.339157 -9.5
vt -6.437277 -9.5
vt 15.5 -9.5
vt 15.5 -9.5
vt -2 -9.5
vt -2 -9.5
vt -2 0.5
vt -2 0.5
vt 15.5 0.5
vt 15.5 0.5
vt -11.00081 0.5
vt -11.00081 0.5
vt -1.000809 0.5
vt -1.000809 0.5
vt 0 0
vt 0 0
vt 0 0
vt 0 0
vt 0 0
vt 0 0
vt 0 0
vt 0 0
vt 0 0
vt 0 0
vt 0 0
vt 0 0
vt 0 0
vt 0 0
vt 0 0
vt 0 0
vt 0 0
vt 0 0
vt 0 0
vt 0 0
vt 0 0
vt 0 0
vt 0 0
vt 0 0
vt 0 0
vt 0 0
vt 0 0
vt 0 0
vt 0 0
vt 0 0
vt 0 0
vt 0 0
vt -3.897751 -9.5
vt -2.250809 -9.5
vt -2.250809 -9.5
vt -3.937277 -9.5
vt 0 0
vt 0 0
vt 0 0
vt 0 0
vt 0 0
vt 0 0
vt 0 0
vt 0 0
vt 0 0
vt 0 0
vt 0 0
vt 0 0
vt -10.25766 -7.420253
vt -12 -9.5
vt -3.25 -9.5
vt -12 0.5
vt -8.007664 -7.420253
vt -10.25766 -3.045253
vt -3.25 0.5
vt -8.007664 -3.045253
vt -1.000809 -9.5
vt -4.840145 -7.004741
vt -4.840145 -3.52974
vt -9.840144 -7.004741
vt -1.000809 0.5
vt -11.00081 -9.5
vt -9.840145 -3.529741
vt -11.00081 0.5
vt -7.927479 -7.420253
vt -7.927479 -3.045254
vt -3.25 0.5
vt -10.13956 -3.045253
vt -3.25 -9.5
vt -12 0.5
vt -12 -9.5
vt -10.13956 -7.420253
vt -9.857298 -3.52974
vt -4.93119 -3.529741
vt -1.000809 0.5
vt -4.931189 -7.004741
vt -11.00081 0.5
vt -1.000809 -9.5
vt -11.00081 -9.5
vt -9.857297 -7.00474
usemtl Drywall3
f 3/3/3 2/2/2 1/1/1
f 4/4/4 3/3/3 1/1/1
f 7/7/7 6/6/6 5/5/5
f 8/8/8 7/7/7 5/5/5
f 11/11/11 10/10/10 9/9/9
f 11/11/11 9/9/9 12/12/12
f 11/11/11 12/12/12 13/13/13
f 14/14/14 11/11/11 13/13/13
f 13/13/13 15/15/15 14/14/14
f 15/15/15 13/13/13 16/16/16
f 19/19/19 18/18/18 17/17/17
f 20/20/20 19/19/19 17/17/17
f 23/23/23 22/22/22 21/21/21
f 24/24/24 23/23/23 21/21/21
f 27/27/27 26/26/26 25/25/25
f 28/28/28 27/27/27 25/25/25
f 31/31/31 30/30/30 29/29/29
f 32/32/32 31/31/31 29/29/29
f 35/35/35 34/34/34 33/33/33
f 35/35/35 33/33/33 36/36/36
f 37/37/37 35/35/35 36/36/36
f 37/37/37 36/36/36 38/38/38
f 39/39/39 37/37/37 38/38/38
f 38/38/38 40/40/40 39/39/39
f 43/43/43 42/42/42 41/41/41
f 44/44/44 43/43/43 41/41/41
f 47/47/47 46/46/46 45/45/45
f 48/48/48 47/47/47 45/45/45
f 51/51/51 50/50/50 49/49/49
f 52/52/52 51/51/51 49/49/49
f 55/55/55 54/54/54 53/53/53
f 56/56/56 55/55/55 53/53/53
f 59/59/59 58/58/58 57/57/57
f 60/60/60 59/59/59 57/57/57
f 63/63/63 62/62/62 61/61/61
f 64/64/64 63/63/63 61/61/61
f 67/67/67 66/66/66 65/65/65
f 68/68/68 67/67/67 65/65/65
f 71/71/71 70/70/70 69/69/69
f 72/72/72 71/71/71 69/69/69
f 75/75/75 74/74/74 73/73/73
f 76/76/76 75/75/75 73/73/73
f 79/79/79 78/78/78 77/77/77
f 80/80/80 79/79/79 77/77/77
f 83/83/83 82/82/82 81/81/81
f 84/84/84 83/83/83 81/81/81
f 87/87/87 86/86/86 85/85/85
f 88/88/88 87/87/87 85/85/85
f 91/91/91 90/90/90 89/89/89
f 92/92/92 91/91/91 89/89/89
f 95/95/95 94/94/94 93/93/93
f 96/96/96 95/95/95 93/93/93
f 99/99/99 98/98/98 97/97/97
f 100/100/100 99/99/99 97/97/97
f 103/103/103 102/102/102 101/101/101
f 104/104/104 103/103/103 101/101/101
f 107/107/107 106/106/106 105/105/105
f 108/108/108 107/107/107 105/105/105
f 111/111/111 110/110/110 109/109/109
f 112/112/112 111/111/111 109/109/109
f 115/115/115 114/114/114 113/113/113
f 116/116/116 115/115/115 113/113/113
f 119/119/119 118/118/118 117/117/117
f 120/120/120 119/119/119 117/117/117
f 123/123/123 122/122/122 121/121/121
f 124/124/124 123/123/123 121/121/121
f 127/127/127 126/126/126 125/125/125
f 128/128/128 127/127/127 125/125/125
f 131/131/131 130/130/130 129/129/129
f 132/132/132 131/131/131 129/129/129
f 135/135/135 134/134/134 133/133/133
f 136/136/136 135/135/135 133/133/133
f 139/139/139 138/138/138 137/137/137
f 140/140/140 139/139/139 137/137/137
f 143/143/143 142/142/142 141/141/141
f 144/144/144 143/143/143 141/141/141
f 147/147/147 146/146/146 145/145/145
f 148/148/148 147/147/147 145/145/145
f 151/151/151 150/150/150 149/149/149
f 152/152/152 151/151/151 149/149/149
f 155/155/155 154/154/154 153/153/153
f 153/153/153 154/154/154 156/156/156
f 153/153/153 157/157/157 155/155/155
f 156/156/156 158/158/158 153/153/153
f 157/157/157 159/159/159 155/155/155
f 156/156/156 160/160/160 158/158/158
f 157/157/157 160/160/160 159/159/159
f 156/156/156 159/159/159 160/160/160
f 163/163/163 162/162/162 161/161/161
f 161/161/161 162/162/162 164/164/164
f 163/163/163 161/161/161 165/165/165
f 166/166/166 161/161/161 164/164/164
f 167/167/167 163/163/163 165/165/165
f 164/164/164 168/168/168 166/166/166
f 165/165/165 168/168/168 167/167/167
f 168/168/168 164/164/164 167/167/167
f 171/171/171 170/170/170 169/169/169
f 172/172/172 170/170/170 171/171/171
f 173/173/173 171/171/171 169/169/169
f 172/172/172 171/171/171 174/174/174
f 169/169/169 175/175/175 173/173/173
f 176/176/176 172/172/172 174/174/174
f 175/175/175 169/169/169 176/176/176
f 174/174/174 175/175/175 176/176/176
f 179/179/179 178/178/178 177/177/177
f 179/179/179 180/180/180 178/178/178
f 177/177/177 181/181/181 179/179/179
f 179/179/179 182/182/182 180/180/180
f 183/183/183 181/181/181 177/177/177
f 184/184/184 180/180/180 182/182/182
f 177/177/177 184/184/184 183/183/183
f 184/184/184 182/182/182 183/183/183
g FP210:Room.010_bcbcf3d6
v 0 4 -0.39829
v 7 4 -0.39829
v 7 0 -0.39967
v 0 0 -0.39967
v 7 4 -0.39829
v 7 3.99914 2.10171
v 7 -0.00086 2.10033
v 7 0 -0.39967
v 7.00001 -0.00109 2.77492
v 7 -0.00086 2.10033
v 7 3.99914 2.10171
v 7.00001 2.08924 2.77564
v 7.00001 2.08889 3.77564
v 7 3.99828 4.60171
v 7 -0.00172 4.60033
v 7.00001 -0.00144 3.77492
v 7 -0.00172 4.60033
v 7 3.99828 4.60171
v 3.5 3.99828 4.60171
v 3.5 -0.00172 4.60033
v 0 -0.00172 4.60033
v 0 3.99828 4.60171
v 0 3.99862 3.60171
v 0 -0.00138 3.60033
v -0.05999 4.00003 -0.45829
v -0.05999 3E-05 -0.45967
v 7.06001 3E-05 -0.45967
v 7.06001 4.00003 -0.45829
v 7.06001 4.00003 -0.45829
v 7.06001 3E-05 -0.45967
v 7.06001 -0.00086 2.10033
v 7.06001 3.99914 2.10171
v 7.06001 -0.00086 2.10033
v 7.06001 -0.00109 2.77492
v 7.06001 2.08924 2.77564
v 7.06001 3.99914 2.10171
v 7.06001 2.08889 3.77564
v 7.06001 3.99826 4.66171
v 7.06001 -0.00144 3.77492
v 7.06001 -0.00174 4.66033
v 7.06001 -0.00174 4.66033
v 3.5 -0.00174 4.66033
v 3.5 3.99826 4.66171
v 7.06001 3.99826 4.66171
v -0.05999 -0.00174 4.66033
v -0.05999 -0.00138 3.60033
v -0.05999 3.99862 3.60171
v -0.05999 3.99826 4.66171
v 7 -0.00086 2.10033
v 7.06001 -0.00086 2.10033
v 7.06001 3E-05 -0.45967
v 7 0 -0.39967
v 7 3.99828 4.60171
v 7.06001 3.99826 4.66171
v 3.5 3.99826 4.66171
v 3.5 3.99828 4.60171
v 7 4 -0.39829
v 7.06001 4.00003 -0.45829
v 7.06001 3.99914 2.10171
v 7 3.99914 2.10171
v 0 -0.00138 3.60033
v -0.05999 -0.00138 3.60033
v -0.05999 -0.00174 4.66033
v 0 -0.00172 4.60033
v 3.5 -0.00172 4.60033
v 3.5 -0.00174 4.66033
v 7.06001 -0.00174 4.66033
v 7 -0.00172 4.60033
v 0 3.99828 4.60171
v -0.05999 3.99826 4.66171
v -0.05999 3.99862 3.60171
v 0 3.99862 3.60171
v 3.5 3.99828 4.60171
v 3.5 3.99826 4.66171
v -0.05999 3.99826 4.66171
v 0 3.99828 4.60171
v 0 -0.00172 4.60033
v -0.05999 -0.00174 4.66033
v 3.5 -0.00174 4.66033
v 3.5 -0.00172 4.60033
v 7 3.99914 2.10171
v 7.06001 3.99914 2.10171
v 7.06001 3.99826 4.66171
v 7 3.99828 4.60171
v 0 0 -0.39967
v -0.05999 3E-05 -0.45967
v -0.05999 -0.00138 3.60033
v 0 -0.00138 3.60033
v 7 -0.00172 4.60033
v 7.06001 -0.00174 4.66033
v 7.06001 -0.00144 3.77492
v 7.00001 -0.00144 3.77492
v 7 0 -0.39967
v 7.06001 3E-05 -0.45967
v -0.05999 3E-05 -0.45967
v 0 0 -0.39967
v 0 4 -0.39829
v -0.05999 4.00003 -0.45829
v 7.06001 4.00003 -0.45829
v 7 4 -0.39829
v 0 3.99862 3.60171
v -0.05999 3.99862 3.60171
v -0.05999 4.00003 -0.45829
v 0 4 -0.39829
v -0.05999 0.99758 1.13641
v -0.05999 2.38758 1.13689
v 0 2.38758 1.13689
v 0 0.99758 1.13641
v -0.05999 2.38689 3.13689
v -0.05999 0.99689 3.13641
v 0 0.99689 3.13641
v 0 2.38689 3.13689
v -0.05999 2.38758 1.13689
v -0.05999 2.38689 3.13689
v 0 2.38689 3.13689
v 0 2.38758 1.13689
v -0.05999 0.99689 3.13641
v -0.05999 0.99758 1.13641
v 0 0.99758 1.13641
v 0 0.99689 3.13641
v 1.59694 0.83018 4.60062
v 1.59694 2.58018 4.60122
v 1.59694 2.58016 4.66122
v 1.59694 0.83016 4.66062
v 0.69694 2.58018 4.60122
v 0.69694 0.83018 4.60062
v 0.69694 0.83016 4.66062
v 0.69694 2.58016 4.66122
v 1.59694 2.58018 4.60122
v 0.69694 2.58018 4.60122
v 0.69694 2.58016 4.66122
v 1.59694 2.58016 4.66122
v 0.69694 0.83018 4.60062
v 1.59694 0.83018 4.60062
v 1.59694 0.83016 4.66062
v 0.69694 0.83016 4.66062
v 7.06001 -0.00109 2.77492
v 7.06001 -0.00086 2.10033
v 7 -0.00086 2.10033
v 7.00001 -0.00109 2.77492
v 7.00001 2.08889 3.77564
v 7.00001 -0.00144 3.77492
v 7.06001 -0.00144 3.77492
v 7.06001 2.08889 3.77564
v 7.06001 2.08924 2.77564
v 7.06001 -0.00109 2.77492
v 7.00001 -0.00109 2.77492
v 7.00001 2.08924 2.77564
v 7.00001 2.08924 2.77564
v 7.00001 2.08889 3.77564
v 7.06001 2.08889 3.77564
v 7.06001 2.08924 2.77564
v 0.69694 0.83018 4.60062
v 0 -0.00172 4.60033
v 3.5 -0.00172 4.60033
v 0 3.99828 4.60171
v 1.59694 0.83018 4.60062
v 0.69694 2.58018 4.60122
v 3.5 3.99828 4.60171
v 1.59694 2.58018 4.60122
v 0 0 -0.39967
v 0 0.99758 1.13641
v 0 2.38758 1.13689
v 0 0.99689 3.13641
v 0 4 -0.39829
v 0 -0.00138 3.60033
v 0 2.38689 3.13689
v 0 3.99862 3.60171
v 1.59694 0.83016 4.66062
v 1.59694 2.58016 4.66122
v 3.5 3.99826 4.66171
v 0.69694 2.58016 4.66122
v 3.5 -0.00174 4.66033
v -0.05999 3.99826 4.66171
v -0.05999 -0.00174 4.66033
v 0.69694 0.83016 4.66062
v -0.05999 2.38689 3.13689
v -0.05999 2.38758 1.13689
v -0.05999 4.00003 -0.45829
v -0.05999 0.99758 1.13641
v -0.05999 3.99862 3.60171
v -0.05999 3E-05 -0.45967
v -0.05999 -0.00138 3.60033
v -0.05999 0.99689 3.13641
vn 0 -0.000199518 0.1776739
vn 0 -0.000199518 0.1776739
vn 0 -0.000199518 0.1776739
vn 0 -0.000199518 0.1776739
vn -0.5773503 0 -0.3996764
vn -0.5773503 0 -0.3996764
vn -0.5773503 0 -0.3996764
vn -0.5773503 0 -0.3996764
vn -0.5773503 0 -0.3996764
vn -0.5773503 0 -0.3996764
vn -0.5773503 0 -0.3996764
vn -0.5773503 0 -0.3996764
vn -0.5773503 0 -0.3996764
vn -0.5773503 0 -0.3996764
vn -0.5773503 0 -0.3996764
vn -0.5773503 0 -0.3996764
vn 0 0.000199518 -0.9770266
vn 0 0.000199518 -0.9770266
vn 0 0.000199518 -0.9770266
vn 0 0.000199518 -0.9770266
vn 0.5773503 0 -0.3996764
vn 0.5773503 0 -0.3996764
vn 0.5773503 0 -0.3996764
vn 0.5773503 0 -0.3996764
vn 0 0.000199518 -0.9770266
vn 0 0.000199518 -0.9770266
vn 0 0.000199518 -0.9770266
vn 0 0.000199518 -0.9770266
vn 0.5773503 0 -0.3996764
vn 0.5773503 0 -0.3996764
vn 0.5773503 0 -0.3996764
vn 0.5773503 0 -0.3996764
vn 0.5773503 0 -0.3996764
vn 0.5773503 0 -0.3996765
vn 0.5773503 0 -0.3996765
vn 0.5773503 0 -0.3996764
vn 0.5773503 0 -0.3996765
vn 0.5773503 0 -0.3996765
vn 0.5773503 0 -0.3996765
vn 0.5773503 0 -0.3996765
vn 0 -0.000199518 0.1776739
vn 0 -0.000199518 0.1776739
vn 0 -0.000199518 0.1776739
vn 0 -0.000199518 0.1776739
vn -0.5773503 0 -0.3996764
vn -0.5773503 0 -0.3996764
vn -0.5773503 0 -0.3996764
vn -0.5773503 0 -0.3996764
vn 0 -0.5773503 -0.3998759
vn 0 -0.5773503 -0.3998759
vn 0 -0.5773503 -0.3998759
vn 0 -0.5773503 -0.3998759
vn 0 0.5773503 -0.3994769
vn 0 0.5773503 -0.3994769
vn 0 0.5773503 -0.3994769
vn 0 0.5773503 -0.3994769
vn 0 0.5773503 -0.3994769
vn 0 0.5773503 -0.3994769
vn 0 0.5773503 -0.3994769
vn 0 0.5773503 -0.3994769
vn 0 -0.5773503 -0.3998759
vn 0 -0.5773503 -0.3998759
vn 0 -0.5773503 -0.3998759
vn 0 -0.5773503 -0.3998759
vn 0 -0.5773503 -0.3998759
vn 0 -0.5773503 -0.3998759
vn 0 -0.5773503 -0.3998759
vn 0 -0.5773503 -0.3998759
vn 0 0.5773503 -0.3994769
vn 0 0.5773503 -0.3994769
vn 0 0.5773503 -0.3994769
vn 0 0.5773503 -0.3994769
vn 0 0.5773503 -0.3994769
vn 0 0.5773503 -0.3994769
vn 0 0.5773503 -0.3994769
vn 0 0.5773503 -0.3994769
vn 0 -0.5773503 -0.3998759
vn 0 -0.5773503 -0.3998759
vn 0 -0.5773503 -0.3998759
vn 0 -0.5773503 -0.3998759
vn 0 0.5773503 -0.3994769
vn 0 0.5773503 -0.3994769
vn 0 0.5773503 -0.3994769
vn 0 0.5773503 -0.3994769
vn 0 -0.5773503 -0.3998759
vn 0 -0.5773503 -0.3998759
vn 0 -0.5773503 -0.3998759
vn 0 -0.5773503 -0.3998759
vn 0 -0.5773503 -0.3998759
vn 0 -0.5773503 -0.3998759
vn 0 -0.5773503 -0.3998759
vn 0 -0.5773503 -0.3998759
vn 0 -0.5773503 -0.3998759
vn 0 -0.5773503 -0.3998759
vn 0 -0.5773503 -0.3998759
vn 0 -0.5773503 -0.3998759
vn 0 0.5773503 -0.3994769
vn 0 0.5773503 -0.3994769
vn 0 0.5773503 -0.3994769
vn 0 0.5773503 -0.3994769
vn 0 0.5773503 -0.3994769
vn 0 0.5773503 -0.3994769
vn 0 0.5773503 -0.3994769
vn 0 0.5773503 -0.3994769
vn 0 -0.000199518 0.1776739
vn 0 -0.000199518 0.1776739
vn 0 -0.000199518 0.1776739
vn 0 -0.000199518 0.1776739
vn 2.294186E-06 0.000199518 -0.9770266
vn 2.294186E-06 0.000199518 -0.9770266
vn 2.294186E-06 0.000199518 -0.9770266
vn 2.294186E-06 0.000199518 -0.9770266
vn -4.451913E-07 -0.5773503 -0.3998759
vn -4.451913E-07 -0.5773503 -0.3998759
vn -4.451913E-07 -0.5773503 -0.3998759
vn -4.451913E-07 -0.5773503 -0.3998759
vn 5.735465E-07 0.5773503 -0.3994769
vn 5.735465E-07 0.5773503 -0.3994769
vn 5.735465E-07 0.5773503 -0.3994769
vn 5.735465E-07 0.5773503 -0.3994769
vn -0.5773503 0 -0.3996764
vn -0.5773503 0 -0.3996764
vn -0.5773503 0 -0.3996764
vn -0.5773503 0 -0.3996764
vn 0.5773503 0 -0.3996764
vn 0.5773503 0 -0.3996764
vn 0.5773503 0 -0.3996764
vn 0.5773503 0 -0.3996764
vn 0 -0.5773503 -0.3998759
vn 0 -0.5773503 -0.3998759
vn 0 -0.5773503 -0.3998759
vn 0 -0.5773503 -0.3998759
vn 0 0.5773503 -0.3994769
vn 0 0.5773503 -0.3994769
vn 0 0.5773503 -0.3994769
vn 0 0.5773503 -0.3994769
vn 0 -0.5773503 -0.3998759
vn 0 -0.5773503 -0.3998759
vn 0 -0.5773503 -0.3998759
vn 0 -0.5773503 -0.3998759
vn 0 0.000199518 -0.9770266
vn 0 0.000199518 -0.9770266
vn 0 0.000199518 -0.9770266
vn 0 0.000199518 -0.9770266
vn 0 -0.000199518 0.1776739
vn 0 -0.000199518 0.1776739
vn 0 -0.000199518 0.1776739
vn 0 -0.000199518 0.1776739
vn 0 -0.5773503 -0.3998759
vn 0 -0.5773503 -0.3998759
vn 0 -0.5773503 -0.3998759
vn 0 -0.5773503 -0.3998759
vn 0 0.000199518 -0.9770266
vn 0 0.000199518 -0.9770266
vn 0 0.000199518 -0.9770266
vn 0 0.000199518 -0.9770266
vn 0 0.000199518 -0.9770266
vn 0 0.000199518 -0.9770266
vn 0 0.000199518 -0.9770266
vn 0 0.000199518 -0.9770266
vn 0.5773503 0 -0.3996764
vn 0.5773503 0 -0.3996764
vn 0.5773503 0 -0.3996764
vn 0.5773503 0 -0.3996764
vn 0.5773503 0 -0.3996764
vn 0.5773503 0 -0.3996764
vn 0.5773503 0 -0.3996764
vn 0.5773503 0 -0.3996764
vn 0 -0.000199518 0.1776739
vn 0 -0.000199518 0.1776739
vn 0 -0.000199518 0.1776739
vn 0 -0.000199518 0.1776739
vn 0 -0.000199518 0.1776739
vn 0 -0.000199518 0.1776739
vn 0 -0.000199518 0.1776739
vn 0 -0.000199518 0.1776739
vn -0.5773503 0 -0.3996764
vn -0.5773503 0 -0.3996764
vn -0.5773503 0 -0.3996764
vn -0.5773503 0 -0.3996764
vn -0.5773503 0 -0.3996764
vn -0.5773503 0 -0.3996764
vn -0.5773503 0 -0.3996764
vn -0.5773503 0 -0.3996764
vt -2 0.5
vt 15.5 0.5
vt 15.5 -9.5
vt -2 -9.5
vt -1.000809 0.5
vt -7.250809 0.5
vt -7.250809 -9.5
vt -1.000809 -9.5
vt -3.937277 -9.5
vt -2.250809 -9.5
vt -2.250809 0.5
vt -3.937277 -4.274175
vt -6.437277 -4.274175
vt -8.500809 0.5
vt -8.500809 -9.5
vt -6.437277 -9.5
vt -4.5 0.5
vt -4.5 10.5
vt -13.25 10.5
vt -13.25 0.5
vt -3.500809 0.5
vt -3.500809 10.5
vt -1.000809 10.5
vt -1.000809 0.5
vt -2 0.5
vt -2 -9.5
vt 15.5 -9.5
vt 15.5 0.5
vt -1.000809 0.5
vt -1.000809 -9.5
vt -7.250809 -9.5
vt -7.250809 0.5
vt -2.250809 -9.5
vt -3.897751 -9.5
vt -3.897751 -4.274176
vt -2.250809 0.5
vt -6.339157 -4.274175
vt -8.500809 0.5
vt -6.339157 -9.5
vt -8.500809 -9.5
vt -4.5 0.5
vt -13.25 0.5
vt -13.25 10.5
vt -4.5 10.5
vt -3.500809 0.5
vt -1.000809 0.5
vt -1.000809 10.5
vt -3.500809 10.5
vt -7.250809 -9.5
vt -7.250809 -9.5
vt -1.000809 -9.5
vt -1.000809 -9.5
vt -4.5 10.5
vt -4.5 10.5
vt -13.25 10.5
vt -13.25 10.5
vt -1.000809 0.5
vt -1.000809 0.5
vt -7.250809 0.5
vt -7.250809 0.5
vt -1.000809 0.5
vt -1.000809 0.5
vt -3.500809 0.5
vt -3.500809 0.5
vt -13.25 0.5
vt -13.25 0.5
vt -4.5 0.5
vt -4.5 0.5
vt -3.500809 10.5
vt -3.500809 10.5
vt -1.000809 10.5
vt -1.000809 10.5
vt -3.25 0.5
vt -3.25 0.5
vt -12 0.5
vt -12 0.5
vt -12 -9.5
vt -12 -9.5
vt -3.25 -9.5
vt -3.25 -9.5
vt -2.250809 0.5
vt -2.250809 0.5
vt -8.500809 0.5
vt -8.500809 0.5
vt -1.000809 -9.5
vt -1.000809 -9.5
vt -11.00081 -9.5
vt -11.00081 -9.5
vt -8.500809 -9.5
vt -8.500809 -9.5
vt -6.339157 -9.5
vt -6.437277 -9.5
vt 15.5 -9.5
vt 15.5 -9.5
vt -2 -9.5
vt -2 -9.5
vt -2 0.5
vt -2 0.5
vt 15.5 0.5
vt 15.5 0.5
vt -11.00081 0.5
vt -11.00081 0.5
vt -1.000809 0.5
vt -1.000809 0.5
vt 0 0
vt 0 0
vt 0 0
vt 0 0
vt 0 0
vt 0 0
vt 0 0
vt 0 0
vt 0 0
vt 0 0
vt 0 0
vt 0 0
vt 0 0
vt 0 0
vt 0 0
vt 0 0
vt 0 0
vt 0 0
vt 0 0
vt 0 0
vt 0 0
vt 0 0
vt 0 0
vt 0 0
vt 0 0
vt 0 0
vt 0 0
vt 0 0
vt 0 0
vt 0 0
vt 0 0
vt 0 0
vt -3.897751 -9.5
vt -2.250809 -9.5
vt -2.250809 -9.5
vt -3.937277 -9.5
vt 0 0
vt 0 0
vt 0 0
vt 0 0
vt 0 0
vt 0 0
vt 0 0
vt 0 0
vt 0 0
vt 0 0
vt 0 0
vt 0 0
vt -10.25766 -7.420253
vt -12 -9.5
vt -3.25 -9.5
vt -12 0.5
vt -8.007664 -7.420253
vt -10.25766 -3.045253
vt -3.25 0.5
vt -8.007664 -3.045253
vt -1.000809 -9.5
vt -4.840145 -7.004741
vt -4.840145 -3.52974
vt -9.840144 -7.004741
vt -1.000809 0.5
vt -11.00081 -9.5
vt -9.840145 -3.529741
vt -11.00081 0.5
vt -7.927479 -7.420253
vt -7.927479 -3.045254
vt -3.25 0.5
vt -10.13956 -3.045253
vt -3.25 -9.5
vt -12 0.5
vt -12 -9.5
vt -10.13956 -7.420253
vt -9.857298 -3.52974
vt -4.93119 -3.529741
vt -1.000809 0.5
vt -4.931189 -7.004741
vt -11.00081 0.5
vt -1.000809 -9.5
vt -11.00081 -9.5
vt -9.857297 -7.00474
usemtl Drywall3
f 187/187/187 186/186/186 185/185/185
f 188/188/188 187/187/187 185/185/185
f 191/191/191 190/190/190 189/189/189
f 192/192/192 191/191/191 189/189/189
f 195/195/195 194/194/194 193/193/193
f 195/195/195 193/193/193 196/196/196
f 195/195/195 196/196/196 197/197/197
f 198/198/198 195/195/195 197/197/197
f 197/197/197 199/199/199 198/198/198
f 199/199/199 197/197/197 200/200/200
f 203/203/203 202/202/202 201/201/201
f 204/204/204 203/203/203 201/201/201
f 207/207/207 206/206/206 205/205/205
f 208/208/208 207/207/207 205/205/205
f 211/211/211 210/210/210 209/209/209
f 212/212/212 211/211/211 209/209/209
f 215/215/215 214/214/214 213/213/213
f 216/216/216 215/215/215 213/213/213
f 219/219/219 218/218/218 217/217/217
f 219/219/219 217/217/217 220/220/220
f 221/221/221 219/219/219 220/220/220
f 221/221/221 220/220/220 222/222/222
f 223/223/223 221/221/221 222/222/222
f 222/222/222 224/224/224 223/223/223
f 227/227/227 226/226/226 225/225/225
f 228/228/228 227/227/227 225/225/225
f 231/231/231 230/230/230 229/229/229
f 232/232/232 231/231/231 229/229/229
f 235/235/235 234/234/234 233/233/233
f 236/236/236 235/235/235 233/233/233
f 239/239/239 238/238/238 237/237/237
f 240/240/240 239/239/239 237/237/237
f 243/243/243 242/242/242 241/241/241
f 244/244/244 243/243/243 241/241/241
f 247/247/247 246/246/246 245/245/245
f 248/248/248 247/247/247 245/245/245
f 251/251/251 250/250/250 249/249/249
f 252/252/252 251/251/251 249/249/249
f 255/255/255 254/254/254 253/253/253
f 256/256/256 255/255/255 253/253/253
f 259/259/259 258/258/258 257/257/257
f 260/260/260 259/259/259 257/257/257
f 263/263/263 262/262/262 261/261/261
f 264/264/264 263/263/263 261/261/261
f 267/267/267 266/266/266 265/265/265
f 268/268/268 267/267/267 265/265/265
f 271/271/271 270/270/270 269/269/269
f 272/272/272 271/271/271 269/269/269
f 275/275/275 274/274/274 273/273/273
f 276/276/276 275/275/275 273/273/273
f 279/279/279 278/278/278 277/277/277
f 280/280/280 279/279/279 277/277/277
f 283/283/283 282/282/282 281/281/281
f 284/284/284 283/283/283 281/281/281
f 287/287/287 286/286/286 285/285/285
f 288/288/288 287/287/287 285/285/285
f 291/291/291 290/290/290 289/289/289
f 292/292/292 291/291/291 289/289/289
f 295/295/295 294/294/294 293/293/293
f 296/296/296 295/295/295 293/293/293
f 299/299/299 298/298/298 297/297/297
f 300/300/300 299/299/299 297/297/297
f 303/303/303 302/302/302 301/301/301
f 304/304/304 303/303/303 301/301/301
f 307/307/307 306/306/306 305/305/305
f 308/308/308 307/307/307 305/305/305
f 311/311/311 310/310/310 309/309/309
f 312/312/312 311/311/311 309/309/309
f 315/315/315 314/314/314 313/313/313
f 316/316/316 315/315/315 313/313/313
f 319/319/319 318/318/318 317/317/317
f 320/320/320 319/319/319 317/317/317
f 323/323/323 322/322/322 321/321/321
f 324/324/324 323/323/323 321/321/321
f 327/327/327 326/326/326 325/325/325
f 328/328/328 327/327/327 325/325/325
f 331/331/331 330/330/330 329/329/329
f 332/332/332 331/331/331 329/329/329
f 335/335/335 334/334/334 333/333/333
f 336/336/336 335/335/335 333/333/333
f 339/339/339 338/338/338 337/337/337
f 337/337/337 338/338/338 340/340/340
f 337/337/337 341/341/341 339/339/339
f 340/340/340 342/342/342 337/337/337
f 341/341/341 343/343/343 339/339/339
f 340/340/340 344/344/344 342/342/342
f 341/341/341 344/344/344 343/343/343
f 340/340/340 343/343/343 344/344/344
f 347/347/347 346/346/346 345/345/345
f 345/345/345 346/346/346 348/348/348
f 347/347/347 345/345/345 349/349/349
f 350/350/350 345/345/345 348/348/348
f 351/351/351 347/347/347 349/349/349
f 348/348/348 352/352/352 350/350/350
f 349/349/349 352/352/352 351/351/351
f 352/352/352 348/348/348 351/351/351
f 355/355/355 354/354/354 353/353/353
f 356/356/356 354/354/354 355/355/355
f 357/357/357 355/355/355 353/353/353
f 356/356/356 355/355/355 358/358/358
f 353/353/353 359/359/359 357/357/357
f 360/360/360 356/356/356 358/358/358
f 359/359/359 353/353/353 360/360/360
f 358/358/358 359/359/359 360/360/360
f 363/363/363 362/362/362 361/361/361
f 363/363/363 364/364/364 362/362/362
f 361/361/361 365/365/365 363/363/363
f 363/363/363 366/366/366 364/364/364
f 367/367/367 365/365/365 361/361/361
f 368/368/368 364/364/364 366/366/366
f 361/361/361 368/368/368 367/367/367
f 368/368/368 366/366/366 367/367/367
