mtllib Lettuce_20.mtl
g lettuce_b10
v 0.01363115 -0.02046857 0.1273426
v 0.01114842 -0.0333368 0.1168441
v 0.006946154 -0.02567673 0.1273426
v 0.02045764 -0.02589947 0.1168441
v 0.01797119 -0.01276113 0.1273426
v 0.02629244 -0.01509271 0.1168441
v -0.001392378 -0.004084114 0.1331237
v 0.01938009 -0.003726633 0.1273425
v 0.02797183 -0.002553565 0.1168441
v 0.01769516 0.005260094 0.1273426
v 0.02537589 0.009814613 0.1168441
v 0.01314655 0.01283061 0.1273426
v 0.01881148 0.02012507 0.1168442
v 0.006946154 -0.02567673 0.1273426
v 0.01114842 -0.0333368 0.1168441
v -0.0002435142 -0.03627349 0.1168441
v -0.001072461 -0.02759306 0.1273426
v -0.01178645 -0.0342546 0.1168442
v -0.00912955 -0.02592427 0.1273426
v -0.02152999 -0.0275797 0.1168442
v -0.01592616 -0.02092369 0.1273426
v -0.01592616 -0.02092369 0.1273426
v -0.02152999 -0.0275797 0.1168442
v -0.02802624 -0.01726646 0.1168441
v -0.02043908 -0.01335257 0.1273426
v -0.03050316 -0.004893579 0.1168441
v -0.02206052 -0.004364861 0.1273426
v -0.0287241 0.007649616 0.1168442
v -0.02059781 0.004670467 0.1273426
v -0.02286688 0.01845721 0.1168441
v -0.01624488 0.01237804 0.1273425
v -0.01624488 0.01237804 0.1273425
v -0.02286688 0.01845721 0.1168441
v -0.01362594 0.025892 0.1168442
v -0.009595701 0.01758578 0.1273426
v -0.002352855 0.02882387 0.1168441
v -0.0016405 0.019501 0.1273426
v 0.009090216 0.02680104 0.1168442
v 0.006362705 0.0178315 0.1273426
v 0.01881148 0.02012507 0.1168442
v -0.001392378 -0.004084114 0.1331237
v 0.01314655 0.01283061 0.1273426
v 0.01769516 0.005260094 0.1273426
v -0.05785035 0.04565005 0.0257401
v -0.05923765 0.04847365 0.005566555
v -0.0370665 0.06636116 0.005566481
v -0.06874719 0.02117274 0.0257401
v -0.07078019 0.02332734 0.005566555
v -0.0567165 0.05260292 -0.02040538
v -0.06354188 0.01903157 0.04545229
v -0.05332206 0.041955 0.04541913
v -0.04661138 0.03668758 0.06510647
v -0.06946488 0.02698307 -0.02040534
v -0.05678147 0.05478888 -0.04637724
v -0.07045991 -0.006648914 0.02574011
v -0.07293783 -0.005474753 0.005566561
v -0.06507996 -0.006903319 0.0455005
v -0.07260232 -0.002781653 -0.02040534
v -0.05592404 0.01627066 0.06522456
v -0.05745527 -0.006772696 0.06537431
v -0.04717415 -0.006335065 0.08299165
v -0.0703928 0.03000646 -0.04637724
v -0.07468272 0.0006683063 -0.04637722
v -0.04547234 0.01270336 0.08293623
v -0.03735454 0.02947647 0.08289247
v -0.03752785 -0.005683417 0.1058093
v -0.0356411 0.009675138 0.1058093
v -0.03050316 -0.004893579 0.1168441
v -0.02869525 0.0230236 0.1058093
v -0.0287241 0.007649616 0.1168442
v -0.02286688 0.01845721 0.1168441
v -0.05249869 0.05414151 -0.07234911
v -0.02897843 0.0682142 -0.07234918
v -0.0182684 0.06176825 -0.09893644
v -0.06668343 0.03174065 -0.07234914
v -0.07218757 0.004601369 -0.07234914
v -0.04080802 0.05062046 -0.09893636
v -0.01117219 0.04679719 -0.1190806
v -0.02912307 0.03936419 -0.1190806
v -0.05546687 0.03155806 -0.09893642
v -0.06213336 0.00774768 -0.09893646
v -0.04171079 0.02577803 -0.1190806
v -0.04802224 0.008280193 -0.1190806
v 0.03064712 0.07064698 -0.04637717
v 0.05231868 0.04746023 -0.07234918
v 0.05466993 0.05379151 -0.04637724
v 0.03027901 0.06443701 -0.07234918
v 0.05461777 0.03872142 -0.09893636
v 0.03534843 0.0550826 -0.09893644
v 0.04363408 0.0268191 -0.1190806
v 0.05108842 0.009777253 -0.1190806
v 0.02914096 0.03984623 -0.1190806
v 0.009118548 0.0632548 -0.09893653
v 0.009594141 0.04691358 -0.1190806
v 0.02600863 0.01447332 -0.1286969
v 0.01773998 0.02208222 -0.1286968
v 0.03044752 0.004635608 -0.1286969
v 0.006853957 0.02631304 -0.1286969
v -0.01117219 0.04679719 -0.1190806
v -0.004823872 0.02648877 -0.1286968
v -0.02912307 0.03936419 -0.1190806
v -0.01534243 0.02254883 -0.1286969
v -0.04171079 0.02577803 -0.1190806
v -0.02313424 0.01509973 -0.1286969
v -0.04802224 0.008280193 -0.1190806
v -0.02720836 0.005313587 -0.1286969
v 0.03058807 -0.005973634 -0.1286969
v 0.05140838 -0.008864056 -0.1190806
v 0.06445054 0.01660504 -0.09893642
v 0.02652565 -0.01576206 -0.1286969
v 0.04513148 -0.02636785 -0.1190806
v 0.01876198 -0.02321665 -0.1286969
v 0.03262725 -0.03996836 -0.1190807
v 0.0589194 -0.03198855 -0.09893642
v 0.008271777 -0.02716213 -0.1286969
v 0.04439773 -0.05106806 -0.09893642
v 0.01475963 -0.04741576 -0.1190807
v 0.02199506 -0.06223296 -0.09893636
v -0.003394352 -0.02698863 -0.1286969
v -0.005972092 -0.04753813 -0.1190806
v -0.01429199 -0.02275559 -0.1286969
v -0.02555352 -0.04046478 -0.1190807
v -0.02258908 -0.01514115 -0.1286969
v -0.04013007 -0.02742328 -0.1190807
v -0.02705609 -0.005297943 -0.1286969
v -0.04766773 -0.01036706 -0.1190807
v -0.02720836 0.005313587 -0.1286969
v -0.04802224 0.008280193 -0.1190806
v 0.04663509 -0.05376776 -0.07234918
v 0.04439773 -0.05106806 -0.09893642
v 0.02199506 -0.06223296 -0.09893636
v 0.02285323 -0.06782375 -0.07234911
v 0.05382754 -0.05476242 -0.04637724
v 0.0295465 -0.0711856 -0.04637717
v 0.05890643 -0.05251898 -0.02040531
v 0.03533178 -0.0702145 -0.02040553
v 0.05516343 -0.04877942 0.005566555
v 0.03280229 -0.0666812 0.005566555
v 0.05379575 -0.04603265 0.0257401
v 0.03249584 -0.06371074 0.0257401
v -0.005335034 -0.0637266 -0.09893636
v -0.007135687 -0.07138035 -0.07234911
v -0.00217571 -0.07674509 -0.04637724
v 0.003733047 -0.07732182 -0.02040538
v 0.002669688 -0.07463984 0.005566481
v -0.005972092 -0.04753813 -0.1190806
v 0.01475963 -0.04741576 -0.1190807
v -0.02555352 -0.04046478 -0.1190807
v -0.03162176 -0.05554726 -0.09893636
v -0.04013007 -0.02742328 -0.1190807
v -0.05102823 -0.039169 -0.09893636
v -0.03640421 -0.06404658 -0.07234911
v -0.05818228 -0.0470865 -0.07234918
v -0.03374681 -0.07061924 -0.04637724
v -0.05762387 -0.0537651 -0.04637724
v -0.02830063 -0.0726525 -0.02040523
v -0.05309469 -0.05681016 -0.02040538
v -0.02812123 -0.07125418 0.005566555
v -0.05239111 -0.05685256 0.005566555
v 0.003721497 -0.07192793 0.0257401
v 0.03079205 -0.05909551 0.04565466
v -0.02587367 -0.06921875 0.02574017
v -0.04954332 -0.05578417 0.0257401
v 0.004491498 -0.06694133 0.04568262
v -0.02267718 -0.06465168 0.04565466
v -0.04478924 -0.05237694 0.0456104
v -0.03904136 -0.04694954 0.0656767
v 0.003781834 -0.05987877 0.06583167
v 0.0264376 -0.0530657 0.06578159
v 0.02072116 -0.04558738 0.08314047
v -0.01962312 -0.05778805 0.06578165
v 0.002495099 -0.05098454 0.08316053
v 0.01501775 -0.03925839 0.1058093
v -0.01628179 -0.0489672 0.08314047
v -0.03207429 -0.03976331 0.08310186
v 0.0007541792 -0.04316559 0.1058093
v 0.01114842 -0.0333368 0.1168441
v -0.0002435142 -0.03627349 0.1168441
v -0.01380124 -0.0410268 0.1058094
v -0.02607092 -0.03314536 0.1058093
v -0.01178645 -0.0342546 0.1168442
v -0.02152999 -0.0275797 0.1168442
v -0.05102823 -0.039169 -0.09893636
v -0.04013007 -0.02742328 -0.1190807
v -0.04766773 -0.01036706 -0.1190807
v -0.060998 -0.01703558 -0.09893642
v -0.04802224 0.008280193 -0.1190806
v -0.05818228 -0.0470865 -0.07234918
v -0.06213336 0.00774768 -0.09893646
v -0.06975936 -0.02304354 -0.07234914
v -0.05762387 -0.0537651 -0.04637724
v -0.07218757 0.004601369 -0.07234914
v -0.07084871 -0.02874254 -0.04637724
v -0.05309469 -0.05681016 -0.02040538
v -0.07468272 0.0006683063 -0.04637722
v -0.06750477 -0.03223086 -0.02040534
v -0.05239111 -0.05685256 0.005566555
v -0.07260232 -0.002781653 -0.02040534
v -0.06707494 -0.03367481 0.005566591
v -0.04954332 -0.05578417 0.0257401
v -0.07293783 -0.005474753 0.005566561
v -0.06425147 -0.03372308 0.0257401
v -0.07045991 -0.006648914 0.02574011
v -0.04478924 -0.05237694 0.0456104
v -0.05892298 -0.03202261 0.04555615
v -0.06507996 -0.006903319 0.0455005
v -0.05745527 -0.006772696 0.06537431
v -0.05181701 -0.02899796 0.06553333
v -0.03904136 -0.04694954 0.0656767
v -0.03207429 -0.03976331 0.08310186
v -0.04263696 -0.0247723 0.08304988
v -0.04717415 -0.006335065 0.08299165
v -0.02607092 -0.03314536 0.1058093
v -0.03425809 -0.02072556 0.1058093
v -0.02152999 -0.0275797 0.1168442
v -0.03752785 -0.005683417 0.1058093
v -0.02802624 -0.01726646 0.1168441
v -0.03050316 -0.004893579 0.1168441
v -0.0182684 0.06176825 -0.09893644
v -0.01117219 0.04679719 -0.1190806
v 0.009594141 0.04691358 -0.1190806
v 0.009118548 0.0632548 -0.09893653
v -0.02897843 0.0682142 -0.07234918
v 0.0009021005 0.07177771 -0.07234903
v 0.03534843 0.0550826 -0.09893644
v 0.03027901 0.06443701 -0.07234918
v -0.03264616 0.07121337 -0.04637739
v -0.05678147 0.05478888 -0.04637724
v -0.0567165 0.05260292 -0.02040538
v -0.0009843892 0.07677338 -0.04637724
v 0.03064712 0.07064698 -0.04637717
v -0.03303291 0.07030257 -0.02040523
v -0.05923765 0.04847365 0.005566555
v -0.0370665 0.06636116 0.005566481
v -0.001388962 0.07741163 -0.02040538
v 0.03059957 0.07274054 -0.02040523
v 0.05466993 0.05379151 -0.04637724
v 0.05528462 0.05689405 -0.02040531
v -0.007012609 0.07431388 0.005566555
v 0.02385701 0.07093409 0.005566555
v -0.03672732 0.06331147 0.0257401
v -0.05785035 0.04565005 0.0257401
v -0.05332206 0.041955 0.04541913
v -0.008026402 0.07152172 0.02574002
v 0.0483169 0.05654674 0.005566555
v 0.06958561 0.03231056 -0.02040534
v 0.06319089 0.03338322 0.005566555
v -0.0338103 0.0585927 0.04540593
v 0.02164201 0.06881943 0.0257401
v 0.04548873 0.05540155 0.0257401
v 0.06037413 0.03335716 0.0257401
v -0.007528194 0.06645086 0.04541441
v -0.02942958 0.0514798 0.06503673
v -0.04661138 0.03668758 0.06510647
v -0.03735454 0.02947647 0.08289247
v 0.01971524 0.06415179 0.04540593
v 0.04194509 0.05184954 0.04541913
v 0.05617725 0.03146663 0.04545233
v 0.04927892 0.02707745 0.06522459
v -0.006682171 0.05838726 0.06502493
v -0.02324964 0.04148763 0.08286725
v -0.02869525 0.0230236 0.1058093
v 0.01690393 0.05624237 0.06503673
v 0.03646174 0.04522455 0.0651065
v -0.0173647 0.03235321 0.1058093
v -0.02286688 0.01845721 0.1168441
v -0.01362594 0.025892 0.1168442
v -0.005123965 0.04690881 0.08286474
v -0.003274562 0.03624983 0.1058093
v -0.002352855 0.02882387 0.1168441
v 0.01360791 0.04486348 0.08286732
v 0.0294311 0.03559195 0.08289247
v 0.04008859 0.02053467 0.08293626
v 0.02337642 0.02621886 0.1058093
v 0.01113681 0.03410213 0.1058093
v 0.009090216 0.02680104 0.1168442
v 0.01881148 0.02012507 0.1168442
v 0.0316647 0.0138052 0.1058093
v 0.05461777 0.03872142 -0.09893636
v 0.05108842 0.009777253 -0.1190806
v 0.06445054 0.01660504 -0.09893642
v 0.05231868 0.04746023 -0.07234918
v 0.06415714 0.0234006 -0.07234914
v 0.05466993 0.05379151 -0.04637724
v 0.06552892 -0.008171097 -0.09893646
v 0.05140838 -0.008864056 -0.1190806
v 0.04513148 -0.02636785 -0.1190806
v 0.0589194 -0.03198855 -0.09893642
v 0.06804047 0.02876764 -0.0463772
v 0.05528462 0.05689405 -0.02040531
v 0.06958561 0.03231056 -0.02040534
v 0.06669386 -0.004251222 -0.07234916
v 0.07193486 -0.0006437473 -0.04637722
v 0.06108119 -0.03138356 -0.07234914
v 0.04439773 -0.05106806 -0.09893642
v 0.04663509 -0.05376776 -0.07234918
v 0.06758457 -0.02998132 -0.04637724
v 0.05382754 -0.05476242 -0.04637724
v 0.07463805 0.00285962 -0.02040534
v 0.06319089 0.03338322 0.005566555
v 0.07154571 -0.02690333 -0.02040534
v 0.05890643 -0.05251898 -0.02040531
v 0.06913251 0.0051891 0.005566563
v 0.06037413 0.03335716 0.0257401
v 0.06689616 -0.02361884 0.005566555
v 0.05516343 -0.04877942 0.005566555
v 0.06665599 0.006289938 0.02574011
v 0.05617725 0.03146663 0.04545233
v 0.06486985 -0.0215386 0.0257401
v 0.05379575 -0.04603265 0.0257401
v 0.06236176 0.006335195 0.04550048
v 0.06075814 -0.01958875 0.04555615
v 0.05486213 0.00475897 0.06537431
v 0.04927892 0.02707745 0.06522459
v 0.04008859 0.02053467 0.08293626
v 0.05318551 -0.01822323 0.0655333
v 0.05041118 -0.04248524 0.0456104
v 0.03249584 -0.06371074 0.0257401
v 0.03079205 -0.05909551 0.04565466
v 0.0264376 -0.0530657 0.06578159
v 0.04369701 -0.03846372 0.0656767
v 0.0447352 0.002072551 0.08299164
v 0.03492944 -0.03364077 0.08310196
v 0.02072116 -0.04558738 0.08314047
v 0.04308693 -0.01693507 0.08304989
v 0.0316647 0.0138052 0.1058093
v 0.02337642 0.02621886 0.1058093
v 0.0264496 -0.02992257 0.1058093
v 0.01501775 -0.03925839 0.1058093
v 0.03336513 -0.01657596 0.1058093
v 0.03510807 -0.001226232 0.1058093
v 0.02045764 -0.02589947 0.1168441
v 0.01114842 -0.0333368 0.1168441
v 0.02629244 -0.01509271 0.1168441
v 0.02797183 -0.002553565 0.1168441
v 0.02537589 0.009814613 0.1168441
v 0.01881148 0.02012507 0.1168442
v 0.006946154 -0.02567673 0.1273426
v -0.001392378 -0.004084114 0.1331237
v 0.01363115 -0.02046857 0.1273426
v -0.001072461 -0.02759306 0.1273426
v -0.00912955 -0.02592427 0.1273426
v -0.01592616 -0.02092369 0.1273426
v -0.02043908 -0.01335257 0.1273426
v -0.02206052 -0.004364861 0.1273426
v -0.02059781 0.004670467 0.1273426
v -0.01624488 0.01237804 0.1273425
v -0.009595701 0.01758578 0.1273426
v -0.0016405 0.019501 0.1273426
v 0.001688176 -0.0003474145 -0.1331238
v -0.003394352 -0.02698863 -0.1286969
v 0.008271777 -0.02716213 -0.1286969
v 0.01876198 -0.02321665 -0.1286969
v -0.01429199 -0.02275559 -0.1286969
v 0.02652565 -0.01576206 -0.1286969
v -0.02258908 -0.01514115 -0.1286969
v 0.03058807 -0.005973634 -0.1286969
v -0.02705609 -0.005297943 -0.1286969
v 0.03044752 0.004635608 -0.1286969
v -0.02720836 0.005313587 -0.1286969
v 0.02600863 0.01447332 -0.1286969
v -0.02313424 0.01509973 -0.1286969
v 0.01773998 0.02208222 -0.1286968
v -0.01534243 0.02254883 -0.1286969
v 0.006853957 0.02631304 -0.1286969
v -0.004823872 0.02648877 -0.1286968
vn 0.3871773 -0.334215 0.8592985
vn 0.3637205 -0.7287394 0.5802123
vn 0.2249792 -0.4612315 0.858283
vn 0.6242142 -0.5195647 0.5834458
vn 0.5012478 -0.1692323 0.8485936
vn 0.773562 -0.2487013 0.5828803
vn -0.0002230327 -0.0002722858 1
vn 0.5230163 0.009779043 0.8522666
vn 0.8114567 0.03045489 0.5836184
vn 0.4918646 0.1859906 0.8505744
vn 0.747694 0.3027717 0.5910016
vn 0.3705329 0.342868 0.863219
vn 0.5754197 0.5543522 0.6013202
vn 0.2249792 -0.4612315 0.858283
vn 0.3637205 -0.7287394 0.5802123
vn 0.03367051 -0.8155034 0.577772
vn 0.01069712 -0.5022774 0.8646404
vn -0.3052211 -0.7553036 0.5799626
vn -0.2063964 -0.4699693 0.8582129
vn -0.5870587 -0.5642391 0.5805138
vn -0.3758503 -0.3486567 0.8585889
vn -0.3758503 -0.3486567 0.8585889
vn -0.5870587 -0.5642391 0.5805138
vn -0.7594402 -0.3012576 0.5766233
vn -0.49819 -0.1864753 0.8467785
vn -0.8170059 -0.02357836 0.576147
vn -0.5267513 -0.007905488 0.8499827
vn -0.7717553 0.2517963 0.5839456
vn -0.5018891 0.1696475 0.8481315
vn -0.6187294 0.512867 0.5950977
vn -0.3861865 0.3302826 0.8612627
vn -0.3861865 0.3302826 0.8612627
vn -0.6187294 0.512867 0.5950977
vn -0.3592303 0.7130155 0.6021317
vn -0.2243597 0.4530872 0.8627716
vn -0.03285926 0.7954102 0.60518
vn -0.01082854 0.492153 0.8704414
vn 0.2998017 0.7366312 0.6062124
vn 0.2038247 0.4602448 0.8640776
vn 0.5754197 0.5543522 0.6013202
vn -0.0002230327 -0.0002722858 1
vn 0.3705329 0.342868 0.863219
vn 0.4918646 0.1859906 0.8505744
vn -0.7802358 0.5907638 0.2055
vn -0.7878016 0.6119716 0.06970923
vn -0.4462078 0.88965 0.09706452
vn -0.9532722 0.2306336 0.1951421
vn -0.9680655 0.2464886 0.04574416
vn -0.7577287 0.6512936 0.0407908
vn -0.9199007 0.223515 0.3222167
vn -0.7524931 0.5674356 0.3343218
vn -0.7070865 0.5356473 0.4616389
vn -0.959371 0.2805604 0.02988435
vn -0.7360528 0.6758854 -0.03748577
vn -0.9785931 -0.07919179 0.1899585
vn -0.9972228 -0.06168445 0.04173595
vn -0.9468604 -0.0834033 0.3106436
vn -0.9989952 -0.0319377 0.03143878
vn -0.8687057 0.2196745 0.4439522
vn -0.9016454 -0.0777342 0.4254325
vn -0.8892518 -0.06374229 0.4529549
vn -0.9481995 0.3170921 -0.01924478
vn -0.9999483 0.007999306 -0.006290976
vn -0.8492538 0.2339998 0.4732991
vn -0.6880257 0.5332175 0.4922396
vn -0.8996762 -0.04990808 0.4336956
vn -0.8569493 0.2541728 0.4483683
vn -0.8170059 -0.02357836 0.576147
vn -0.6938612 0.5530233 0.4612179
vn -0.7717553 0.2517963 0.5839456
vn -0.6187294 0.512867 0.5950977
vn -0.6766121 0.693439 -0.2476662
vn -0.3143299 0.9180925 -0.2414595
vn -0.216403 0.8660766 -0.450645
vn -0.9024405 0.3598888 -0.2368146
vn -0.9735538 0.05535274 -0.2216507
vn -0.5567343 0.6855475 -0.4691178
vn -0.1366891 0.6608348 -0.7379792
vn -0.3940569 0.5470164 -0.7385744
vn -0.7968832 0.391882 -0.4597887
vn -0.8914527 0.09580417 -0.4428698
vn -0.5965486 0.3415752 -0.7262617
vn -0.6917986 0.1055628 -0.7143327
vn 0.3755877 0.9160081 -0.1409364
vn 0.7508833 0.6349593 -0.1816621
vn 0.7341781 0.6607337 -0.1562484
vn 0.4040838 0.8879545 -0.2196658
vn 0.754329 0.5596517 -0.3431878
vn 0.4442993 0.8038707 -0.3954619
vn 0.5494054 0.3962678 -0.7356124
vn 0.6782919 0.1434513 -0.7206538
vn 0.3389258 0.5821393 -0.7390826
vn 0.1169917 0.89728 -0.4256779
vn 0.10849 0.6680114 -0.7362002
vn 0.2444713 0.1773128 -0.9533068
vn 0.1615604 0.2681078 -0.9497454
vn 0.2981498 0.0651945 -0.9522901
vn 0.05774198 0.3069259 -0.9499802
vn -0.1366891 0.6608348 -0.7379792
vn -0.05289652 0.3082954 -0.9498188
vn -0.3940569 0.5470164 -0.7385744
vn -0.1631356 0.2529844 -0.9536172
vn -0.5965486 0.3415752 -0.7262617
vn -0.2540426 0.1668468 -0.9526933
vn -0.6917986 0.1055628 -0.7143327
vn -0.2962567 0.05401687 -0.9535795
vn 0.2962206 -0.05406714 -0.953588
vn 0.6917357 -0.1057803 -0.7143613
vn 0.9324746 0.2177756 -0.28821
vn 0.2544349 -0.1662742 -0.9526887
vn 0.5979778 -0.3400464 -0.7258037
vn 0.1636541 -0.2526038 -0.9536292
vn 0.3962426 -0.5465121 -0.737778
vn 0.8595065 -0.4141449 -0.2995538
vn 0.05304261 -0.3085571 -0.9497258
vn 0.6065307 -0.7155531 -0.3465607
vn 0.1375205 -0.6624946 -0.7363349
vn 0.2465467 -0.8874232 -0.3894802
vn -0.05800607 -0.3076508 -0.9497296
vn -0.1091392 -0.6708056 -0.7335587
vn -0.161987 -0.2691695 -0.9493724
vn -0.339927 -0.5854586 -0.7359945
vn -0.2448504 -0.1785132 -0.9529855
vn -0.5500391 -0.399964 -0.7331343
vn -0.298446 -0.06612983 -0.9521328
vn -0.6788623 -0.1461945 -0.7195646
vn -0.2962567 0.05401687 -0.9535795
vn -0.6917986 0.1055628 -0.7143327
vn 0.669851 -0.7209704 -0.1774861
vn 0.6065307 -0.7155531 -0.3465607
vn 0.2465467 -0.8874232 -0.3894802
vn 0.290626 -0.9342455 -0.2066928
vn 0.7225923 -0.6743432 -0.1520574
vn 0.3591842 -0.9245162 -0.1275011
vn 0.7706621 -0.635173 0.05133342
vn 0.4213281 -0.9054632 0.05117797
vn 0.7684172 -0.6169178 0.1701395
vn 0.4270203 -0.8919293 0.1487141
vn 0.7798573 -0.599112 0.1813488
vn 0.4508266 -0.8734995 0.1837228
vn -0.09442683 -0.8994014 -0.426803
vn -0.07451373 -0.9688736 -0.2360758
vn -0.01212445 -0.9940516 -0.1082326
vn 0.05037513 -0.9979698 0.03896885
vn 0.06232376 -0.991399 0.1150814
vn -0.1091392 -0.6708056 -0.7335587
vn 0.1375205 -0.6624946 -0.7363349
vn -0.339927 -0.5854586 -0.7359945
vn -0.4094582 -0.7884066 -0.459085
vn -0.5500391 -0.399964 -0.7331343
vn -0.6985028 -0.5411088 -0.4682895
vn -0.4255731 -0.8674116 -0.2578464
vn -0.7552365 -0.6052424 -0.2515939
vn -0.3841645 -0.9192024 -0.08651409
vn -0.7469965 -0.6631899 -0.04664109
vn -0.328031 -0.9442211 0.02901861
vn -0.7102746 -0.703174 0.03250143
vn -0.3169357 -0.9444665 0.08680315
vn -0.6982532 -0.7126867 0.06723107
vn 0.08984777 -0.9791489 0.1821946
vn 0.4525079 -0.8443261 0.2869668
vn -0.2879347 -0.9385453 0.1903321
vn -0.6662512 -0.7181889 0.2007837
vn 0.0999127 -0.9536248 0.2839319
vn -0.2707949 -0.9152504 0.2983067
vn -0.6355723 -0.7047442 0.3152514
vn -0.607891 -0.6747945 0.4184745
vn 0.0935683 -0.9169328 0.3879167
vn 0.4341892 -0.8084834 0.3972836
vn 0.4287049 -0.8036615 0.4127229
vn -0.2658368 -0.8767524 0.4007943
vn 0.08155194 -0.9115621 0.4029934
vn 0.4193425 -0.8156086 0.3986659
vn -0.2831993 -0.8642119 0.4158558
vn -0.6126786 -0.6599681 0.4348183
vn 0.06273305 -0.9184322 0.3905723
vn 0.3637205 -0.7287394 0.5802123
vn 0.03367051 -0.8155034 0.577772
vn -0.3086703 -0.8628774 0.4002064
vn -0.6324169 -0.6537602 0.4155074
vn -0.3052211 -0.7553036 0.5799626
vn -0.5870587 -0.5642391 0.5805138
vn -0.6985028 -0.5411088 -0.4682895
vn -0.5500391 -0.399964 -0.7331343
vn -0.6788623 -0.1461945 -0.7195646
vn -0.8678253 -0.2103918 -0.4501271
vn -0.6917986 0.1055628 -0.7143327
vn -0.7552365 -0.6052424 -0.2515939
vn -0.8914527 0.09580417 -0.4428698
vn -0.9402647 -0.2535774 -0.2271585
vn -0.7469965 -0.6631899 -0.04664109
vn -0.9735538 0.05535274 -0.2216507
vn -0.9532818 -0.3018698 -0.01133348
vn -0.7102746 -0.703174 0.03250143
vn -0.9999483 0.007999306 -0.006290976
vn -0.9386429 -0.3429296 0.03672685
vn -0.6982532 -0.7126867 0.06723107
vn -0.9989952 -0.0319377 0.03143878
vn -0.9288134 -0.3668903 0.05193526
vn -0.6662512 -0.7181889 0.2007837
vn -0.9972228 -0.06168445 0.04173595
vn -0.9021276 -0.3839104 0.1969232
vn -0.9785931 -0.07919179 0.1899585
vn -0.6355723 -0.7047442 0.3152514
vn -0.8677828 -0.3854011 0.3137178
vn -0.9468604 -0.0834033 0.3106436
vn -0.9016454 -0.0777342 0.4254325
vn -0.8264731 -0.3733741 0.4213479
vn -0.607891 -0.6747945 0.4184745
vn -0.6126786 -0.6599681 0.4348183
vn -0.8193268 -0.3635907 0.4432893
vn -0.8892518 -0.06374229 0.4529549
vn -0.6324169 -0.6537602 0.4155074
vn -0.8322996 -0.3563408 0.4246158
vn -0.5870587 -0.5642391 0.5805138
vn -0.8996762 -0.04990808 0.4336956
vn -0.7594402 -0.3012576 0.5766233
vn -0.8170059 -0.02357836 0.576147
vn -0.216403 0.8660766 -0.450645
vn -0.1366891 0.6608348 -0.7379792
vn 0.10849 0.6680114 -0.7362002
vn 0.1169917 0.89728 -0.4256779
vn -0.3143299 0.9180925 -0.2414595
vn 0.04891535 0.9713 -0.232774
vn 0.4442993 0.8038707 -0.3954619
vn 0.4040838 0.8879545 -0.2196658
vn -0.3681807 0.9274805 -0.06498525
vn -0.7360528 0.6758854 -0.03748577
vn -0.7577287 0.6512936 0.0407908
vn 0.006329678 0.9945945 -0.1036422
vn 0.3755877 0.9160081 -0.1409364
vn -0.3961147 0.9169862 0.04721642
vn -0.7878016 0.6119716 0.06970923
vn -0.4462078 0.88965 0.09706452
vn -0.02350577 0.9988445 0.04191818
vn 0.3539501 0.9344018 0.04015705
vn 0.7341781 0.6607337 -0.1562484
vn 0.7239962 0.6880292 0.04945124
vn -0.07904977 0.9900435 0.1164687
vn 0.297577 0.9443278 0.1403314
vn -0.4535143 0.8682082 0.2013438
vn -0.7802358 0.5907638 0.2055
vn -0.7524931 0.5674356 0.3343218
vn -0.09298286 0.9773681 0.1900151
vn 0.6783336 0.715147 0.1686068
vn 0.9399899 0.3366997 0.05524708
vn 0.9128586 0.3680024 0.1768144
vn -0.4442652 0.8343386 0.3263549
vn 0.2833672 0.940604 0.1869947
vn 0.6627229 0.7251787 0.1868534
vn 0.9036566 0.3904063 0.176033
vn -0.09541772 0.944404 0.3146374
vn -0.4217619 0.7812024 0.4602605
vn -0.7070865 0.5356473 0.4616389
vn -0.6880257 0.5332175 0.4922396
vn 0.2712229 0.909192 0.3159243
vn 0.6339466 0.7056091 0.3165874
vn 0.8700684 0.390819 0.3004023
vn 0.8139434 0.372291 0.4459771
vn -0.09035716 0.8855163 0.4557374
vn -0.4107687 0.765462 0.4953151
vn -0.6938612 0.5530233 0.4612179
vn 0.2573711 0.8483054 0.4627506
vn 0.5910397 0.6592135 0.4648759
vn -0.4107725 0.7848223 0.4640257
vn -0.6187294 0.512867 0.5950977
vn -0.3592303 0.7130155 0.6021317
vn -0.07743908 0.8660486 0.4939263
vn -0.06073608 0.8836152 0.4642578
vn -0.03285926 0.7954102 0.60518
vn 0.2705317 0.8231171 0.4992904
vn 0.5887562 0.6374525 0.4970114
vn 0.8007599 0.362478 0.4768576
vn 0.6173521 0.6331747 0.4668685
vn 0.301732 0.8303323 0.4685149
vn 0.2998017 0.7366312 0.6062124
vn 0.5754197 0.5543522 0.6013202
vn 0.8188247 0.3517695 0.4536346
vn 0.754329 0.5596517 -0.3431878
vn 0.6782919 0.1434513 -0.7206538
vn 0.9324746 0.2177756 -0.28821
vn 0.7508833 0.6349593 -0.1816621
vn 0.9534798 0.2700122 -0.1340506
vn 0.7341781 0.6607337 -0.1562484
vn 0.9566813 -0.1031455 -0.2722536
vn 0.6917357 -0.1057803 -0.7143613
vn 0.5979778 -0.3400464 -0.7258037
vn 0.8595065 -0.4141449 -0.2995538
vn 0.9414826 0.3017811 -0.1501292
vn 0.7239962 0.6880292 0.04945124
vn 0.9399899 0.3366997 0.05524708
vn 0.9910087 -0.05544454 -0.1217692
vn 0.9884461 -0.00824481 -0.1513485
vn 0.9153144 -0.3761238 -0.1439812
vn 0.6065307 -0.7155531 -0.3465607
vn 0.669851 -0.7209704 -0.1774861
vn 0.9347497 -0.3173523 -0.1597831
vn 0.7225923 -0.6743432 -0.1520574
vn 0.9982383 0.03208257 0.04990983
vn 0.9128586 0.3680024 0.1768144
vn 0.9606326 -0.2739503 0.04622019
vn 0.7706621 -0.635173 0.05133342
vn 0.9834979 0.06073064 0.1704218
vn 0.9036566 0.3904063 0.176033
vn 0.9532328 -0.2499448 0.1699256
vn 0.7684172 -0.6169178 0.1701395
vn 0.9829503 0.07993437 0.1655872
vn 0.8700684 0.390819 0.3004023
vn 0.9568166 -0.2362874 0.1693228
vn 0.7798573 -0.599112 0.1813488
vn 0.9544995 0.08630611 0.2854507
vn 0.9308864 -0.2264411 0.2866616
vn 0.9010428 0.08082737 0.4261323
vn 0.8139434 0.372291 0.4459771
vn 0.8007599 0.362478 0.4768576
vn 0.8796576 -0.2229706 0.4201029
vn 0.7635847 -0.575599 0.2926162
vn 0.4508266 -0.8734995 0.1837228
vn 0.4525079 -0.8443261 0.2869668
vn 0.4341892 -0.8084834 0.3972836
vn 0.7234668 -0.5519983 0.4146007
vn 0.8870993 0.07063106 0.4561426
vn 0.7113336 -0.5536786 0.4329486
vn 0.4287049 -0.8036615 0.4127229
vn 0.8640504 -0.2351452 0.4451106
vn 0.8188247 0.3517695 0.4536346
vn 0.6173521 0.6331747 0.4668685
vn 0.7060684 -0.5726981 0.4165143
vn 0.4193425 -0.8156086 0.3986659
vn 0.8650721 -0.259125 0.4295399
vn 0.8967393 0.05195107 0.4394993
vn 0.6242142 -0.5195647 0.5834458
vn 0.3637205 -0.7287394 0.5802123
vn 0.773562 -0.2487013 0.5828803
vn 0.8114567 0.03045489 0.5836184
vn 0.747694 0.3027717 0.5910016
vn 0.5754197 0.5543522 0.6013202
vn 0.2249792 -0.4612315 0.858283
vn -0.0002230327 -0.0002722858 1
vn 0.3871773 -0.334215 0.8592985
vn 0.01069712 -0.5022774 0.8646404
vn -0.2063964 -0.4699693 0.8582129
vn -0.3758503 -0.3486567 0.8585889
vn -0.49819 -0.1864753 0.8467785
vn -0.5267513 -0.007905488 0.8499827
vn -0.5018891 0.1696475 0.8481315
vn -0.3861865 0.3302826 0.8612627
vn -0.2243597 0.4530872 0.8627716
vn -0.01082854 0.492153 0.8704414
vn -8.211853E-05 -3.161887E-05 -1
vn -0.05800607 -0.3076508 -0.9497296
vn 0.05304261 -0.3085571 -0.9497258
vn 0.1636541 -0.2526038 -0.9536292
vn -0.161987 -0.2691695 -0.9493724
vn 0.2544349 -0.1662742 -0.9526887
vn -0.2448504 -0.1785132 -0.9529855
vn 0.2962206 -0.05406714 -0.953588
vn -0.298446 -0.06612983 -0.9521328
vn 0.2981498 0.0651945 -0.9522901
vn -0.2962567 0.05401687 -0.9535795
vn 0.2444713 0.1773128 -0.9533068
vn -0.2540426 0.1668468 -0.9526933
vn 0.1615604 0.2681078 -0.9497454
vn -0.1631356 0.2529844 -0.9536172
vn 0.05774198 0.3069259 -0.9499802
vn -0.05289652 0.3082954 -0.9498188
vt 0.167686 0.691771
vt 0.1089037 0.6531156
vt 0.1274818 0.6998245
vt 0.1689851 0.6413636
vt 0.2079047 0.6997538
vt 0.2288302 0.6535054
vt 0.1677817 0.7967659
vt 0.2419857 0.7225067
vt 0.2793721 0.6875824
vt 0.2647474 0.7565436
vt 0.3129713 0.7383256
vt 0.27275 0.796675
vt 0.3245966 0.7979491
vt 0.1274818 0.6998245
vt 0.1089037 0.6531156
vt 0.0576774 0.6870072
vt 0.09357488 0.722792
vt 0.0239471 0.7383397
vt 0.07071403 0.7567709
vt 0.01238392 0.7984579
vt 0.06278706 0.7970002
vt 0.06278706 0.7970002
vt 0.01238392 0.7984579
vt 0.02471359 0.858265
vt 0.07089607 0.837194
vt 0.05894978 0.9086991
vt 0.0937563 0.871203
vt 0.109798 0.9421389
vt 0.1278643 0.8938578
vt 0.1694582 0.9535763
vt 0.1680211 0.9017339
vt 0.1680211 0.9017339
vt 0.1694582 0.9535763
vt 0.228818 0.9413862
vt 0.2081381 0.8936729
vt 0.2788637 0.907499
vt 0.2422143 0.8709646
vt 0.312593 0.8573472
vt 0.2648152 0.8368173
vt 0.3245966 0.7979491
vt 0.1677817 0.7967659
vt 0.27275 0.796675
vt 0.2647474 0.7565436
vt 0.6802101 0.8381714
vt 0.7079162 0.8225306
vt 0.6681965 0.7677113
vt 0.7145704 0.8977211
vt 0.7461399 0.882497
vt 0.7381654 0.7968161
vt 0.6796631 0.9107413
vt 0.6496109 0.8527657
vt 0.6132791 0.8676165
vt 0.7817709 0.8570383
vt 0.7712265 0.7748755
vt 0.7422624 0.9663908
vt 0.7811463 0.9511426
vt 0.6995413 0.9769976
vt 0.8269129 0.925032
vt 0.6385273 0.9225478
vt 0.6502518 0.9832965
vt 0.5979049 0.9833322
vt 0.817359 0.831065
vt 0.8681466 0.8913109
vt 0.5918978 0.9314071
vt 0.5708604 0.8816109
vt 0.5437607 0.9793444
vt 0.540948 0.9373056
vt 0.5150156 0.9740897
vt 0.5235227 0.8944836
vt 0.5125955 0.9390845
vt 0.4966168 0.9013075
vt 0.8013474 0.7480965
vt 0.7575099 0.6965824
vt 0.7846942 0.6611001
vt 0.8488602 0.7996939
vt 0.9022698 0.8502275
vt 0.8288691 0.7095659
vt 0.8163965 0.6187602
vt 0.8581565 0.662164
vt 0.8776904 0.7557275
vt 0.9351959 0.7960033
vt 0.9036749 0.6998345
vt 0.9562261 0.7248582
vt 0.644268 0.6193868
vt 0.6331908 0.5458581
vt 0.6031072 0.5704601
vt 0.6743922 0.5953971
vt 0.6614506 0.5153621
vt 0.7020293 0.5634568
vt 0.6972092 0.4793038
vt 0.6572409 0.4328284
vt 0.7368132 0.5261233
vt 0.7428625 0.6121311
vt 0.7763388 0.5728779
vt 0.7393202 0.4346977
vt 0.7774119 0.4794323
vt 0.7005476 0.3897652
vt 0.8147341 0.5230897
vt 0.8163965 0.6187602
vt 0.8513239 0.5642528
vt 0.8581565 0.662164
vt 0.8873484 0.6006238
vt 0.9036749 0.6998345
vt 0.9230172 0.6284789
vt 0.9562261 0.7248582
vt 0.9581743 0.6418232
vt 0.6613037 0.3451806
vt 0.6168218 0.3868931
vt 0.620719 0.4679131
vt 0.6219288 0.3012645
vt 0.576107 0.3415107
vt 0.5828906 0.258186
vt 0.5353317 0.2965634
vt 0.5379104 0.3746521
vt 0.5448367 0.2159989
vt 0.4960033 0.3283823
vt 0.4949376 0.2517374
vt 0.4540881 0.2817043
vt 0.5086758 0.1746914
vt 0.4555999 0.2065703
vt 0.4757592 0.1342278
vt 0.4184358 0.1603615
vt 0.4482077 0.09463518
vt 0.3854141 0.1121054
vt 0.4294706 0.05631381
vt 0.360226 0.06056353
vt 0.4249952 0.02091336
vt 0.350443 0.005229854
vt 0.4629125 0.353107
vt 0.4960033 0.3283823
vt 0.4540881 0.2817043
vt 0.4193459 0.3049414
vt 0.4348939 0.3796126
vt 0.3916236 0.3310209
vt 0.4095319 0.4061969
vt 0.3671077 0.3580011
vt 0.3784328 0.4282223
vt 0.3357421 0.3785841
vt 0.3568012 0.4473151
vt 0.3144173 0.3978803
vt 0.4126383 0.2339849
vt 0.3760521 0.2557023
vt 0.3480504 0.2809472
vt 0.3235805 0.3079383
vt 0.292185 0.3278105
vt 0.4555999 0.2065703
vt 0.4949376 0.2517374
vt 0.4184358 0.1603615
vt 0.372483 0.1843015
vt 0.3854141 0.1121054
vt 0.3350641 0.1313047
vt 0.3336736 0.2044142
vt 0.2931038 0.1497458
vt 0.3045612 0.228536
vt 0.2615162 0.1727881
vt 0.2791536 0.2552551
vt 0.233649 0.1993942
vt 0.2480339 0.2754426
vt 0.2024021 0.2216665
vt 0.2709572 0.3475708
vt 0.2920631 0.4186727
vt 0.2270843 0.2960106
vt 0.1812027 0.2440206
vt 0.2493411 0.3691187
vt 0.2058295 0.3190032
vt 0.1603052 0.2694763
vt 0.1394941 0.3006555
vt 0.2259797 0.3938702
vt 0.2671175 0.4419341
vt 0.2417306 0.4657292
vt 0.1836348 0.3464096
vt 0.2030211 0.4196623
vt 0.2123639 0.4926426
vt 0.1625364 0.3759503
vt 0.1207344 0.3352508
vt 0.1769734 0.4499155
vt 0.1935367 0.5096732
vt 0.1602389 0.4686609
vt 0.1399422 0.4109434
vt 0.1022464 0.3759855
vt 0.1252558 0.4324135
vt 0.09029718 0.4001469
vt 0.3350641 0.1313047
vt 0.3854141 0.1121054
vt 0.360226 0.06056353
vt 0.3030541 0.07286243
vt 0.350443 0.005229854
vt 0.2931038 0.1497458
vt 0.2813731 0.004849635
vt 0.2558287 0.08978225
vt 0.2615162 0.1727881
vt 0.2237758 0.02277952
vt 0.2194417 0.1122246
vt 0.233649 0.1993942
vt 0.1776492 0.04470434
vt 0.186835 0.1395862
vt 0.2024021 0.2216665
vt 0.1365911 0.07489266
vt 0.1543394 0.1664516
vt 0.1812027 0.2440206
vt 0.1013127 0.1105332
vt 0.1320889 0.1921064
vt 0.07630201 0.1416273
vt 0.1603052 0.2694763
vt 0.1111353 0.2216915
vt 0.05469863 0.1781405
vt 0.03748198 0.223656
vt 0.09185319 0.2584722
vt 0.1394941 0.3006555
vt 0.1207344 0.3352508
vt 0.07623257 0.3001762
vt 0.02747475 0.2755319
vt 0.1022464 0.3759855
vt 0.06334786 0.3478309
vt 0.09029718 0.4001469
vt 0.02241148 0.3314618
vt 0.05542217 0.3749802
vt 0.02100344 0.3618142
vt 0.7846942 0.6611001
vt 0.8163965 0.6187602
vt 0.7763388 0.5728779
vt 0.7428625 0.6121311
vt 0.7575099 0.6965824
vt 0.7155952 0.6456252
vt 0.7020293 0.5634568
vt 0.6743922 0.5953971
vt 0.7276736 0.7211978
vt 0.7712265 0.7748755
vt 0.7381654 0.7968161
vt 0.6856346 0.6694736
vt 0.644268 0.6193868
vt 0.695675 0.7412983
vt 0.7079162 0.8225306
vt 0.6681965 0.7677113
vt 0.654207 0.689117
vt 0.6133107 0.6396563
vt 0.6031072 0.5704601
vt 0.5728412 0.5919305
vt 0.6278947 0.7160675
vt 0.5869077 0.6670012
vt 0.6426448 0.7839606
vt 0.6802101 0.8381714
vt 0.6496109 0.8527657
vt 0.6037024 0.7328499
vt 0.5456793 0.619094
vt 0.5324653 0.5453135
vt 0.5041573 0.5717959
vt 0.6145563 0.7998635
vt 0.5634229 0.6845821
vt 0.5227576 0.6371985
vt 0.4816593 0.5903071
vt 0.5771301 0.750012
vt 0.5810738 0.8167985
vt 0.6132791 0.8676165
vt 0.5708604 0.8816109
vt 0.5378857 0.7024564
vt 0.497971 0.6557672
vt 0.4574453 0.6094358
vt 0.4286575 0.6300157
vt 0.5452632 0.7686133
vt 0.5413157 0.8341703
vt 0.5235227 0.8944836
vt 0.5073757 0.721868
vt 0.4684007 0.6758481
vt 0.4964636 0.8516101
vt 0.4966168 0.9013075
vt 0.4709609 0.8617348
vt 0.5070938 0.7884238
vt 0.4636597 0.8087162
vt 0.4385185 0.8206398
vt 0.4711673 0.7426442
vt 0.4337951 0.6970594
vt 0.3956188 0.6513447
vt 0.3938294 0.7188289
vt 0.4296056 0.7640305
vt 0.4055917 0.77646
vt 0.3705458 0.7318384
vt 0.3572136 0.6733389
vt 0.6614506 0.5153621
vt 0.6572409 0.4328284
vt 0.620719 0.4679131
vt 0.6331908 0.5458581
vt 0.5915977 0.4969437
vt 0.6031072 0.5704601
vt 0.5794786 0.4210692
vt 0.6168218 0.3868931
vt 0.576107 0.3415107
vt 0.5379104 0.3746521
vt 0.561774 0.5223363
vt 0.5728412 0.5919305
vt 0.5324653 0.5453135
vt 0.5497993 0.4483729
vt 0.5200984 0.4746836
vt 0.5063702 0.4008434
vt 0.4960033 0.3283823
vt 0.4629125 0.353107
vt 0.4777376 0.4273426
vt 0.4348939 0.3796126
vt 0.491927 0.499166
vt 0.5041573 0.5717959
vt 0.4510799 0.4530891
vt 0.4095319 0.4061969
vt 0.4622225 0.5247703
vt 0.4816593 0.5903071
vt 0.4205937 0.4768209
vt 0.3784328 0.4282223
vt 0.4401395 0.5434601
vt 0.4574453 0.6094358
vt 0.3986635 0.4957617
vt 0.3568012 0.4473151
vt 0.4164326 0.5629528
vt 0.3753093 0.515695
vt 0.3884375 0.5839323
vt 0.4286575 0.6300157
vt 0.3956188 0.6513447
vt 0.348108 0.5372229
vt 0.3338967 0.4676251
vt 0.3144173 0.3978803
vt 0.2920631 0.4186727
vt 0.2671175 0.4419341
vt 0.3076998 0.489856
vt 0.3570892 0.6053318
vt 0.2801396 0.5123184
vt 0.2417306 0.4657292
vt 0.3185597 0.5589487
vt 0.3572136 0.6733389
vt 0.3938294 0.7188289
vt 0.2479147 0.5369835
vt 0.2123639 0.4926426
vt 0.2839307 0.5821566
vt 0.3204326 0.627712
vt 0.2277169 0.5526906
vt 0.1935367 0.5096732
vt 0.2627456 0.5969244
vt 0.2984712 0.6417986
vt 0.334579 0.6868775
vt 0.3705458 0.7318384
vt 0.1274818 0.6998245
vt 0.1677817 0.7967659
vt 0.167686 0.691771
vt 0.09357488 0.722792
vt 0.07071403 0.7567709
vt 0.06278706 0.7970002
vt 0.07089607 0.837194
vt 0.0937563 0.871203
vt 0.1278643 0.8938578
vt 0.1680211 0.9017339
vt 0.2081381 0.8936729
vt 0.2422143 0.8709646
vt 0.8234228 0.1940246
vt 0.8199483 0.03685778
vt 0.760891 0.04979131
vt 0.7110825 0.08405647
vt 0.8795193 0.04716861
vt 0.6778877 0.1345855
vt 0.9307943 0.07919908
vt 0.6662177 0.1939053
vt 0.966189 0.1282118
vt 0.6777977 0.2532428
vt 0.9804637 0.1941435
vt 0.7109157 0.3038222
vt 0.9660892 0.2600536
vt 0.7606723 0.3381628
vt 0.9306199 0.3090126
vt 0.81971 0.3511858
vt 0.879297 0.3409653
usemtl Lettuce2_Mat
f 3/3/3 2/2/2 1/1/1
f 2/2/2 4/4/4 1/1/1
f 1/1/1 4/4/4 5/5/5
f 4/4/4 6/6/6 5/5/5
f 7/7/7 1/1/1 5/5/5
f 5/5/5 6/6/6 8/8/8
f 8/8/8 7/7/7 5/5/5
f 6/6/6 9/9/9 8/8/8
f 7/7/7 8/8/8 10/10/10
f 8/8/8 9/9/9 10/10/10
f 9/9/9 11/11/11 10/10/10
f 10/10/10 11/11/11 12/12/12
f 11/11/11 13/13/13 12/12/12
f 16/16/16 15/15/15 14/14/14
f 17/17/17 16/16/16 14/14/14
f 18/18/18 16/16/16 17/17/17
f 19/19/19 18/18/18 17/17/17
f 20/20/20 18/18/18 19/19/19
f 21/21/21 20/20/20 19/19/19
f 24/24/24 23/23/23 22/22/22
f 25/25/25 24/24/24 22/22/22
f 26/26/26 24/24/24 25/25/25
f 27/27/27 26/26/26 25/25/25
f 28/28/28 26/26/26 27/27/27
f 29/29/29 28/28/28 27/27/27
f 30/30/30 28/28/28 29/29/29
f 31/31/31 30/30/30 29/29/29
f 34/34/34 33/33/33 32/32/32
f 35/35/35 34/34/34 32/32/32
f 36/36/36 34/34/34 35/35/35
f 37/37/37 36/36/36 35/35/35
f 38/38/38 36/36/36 37/37/37
f 39/39/39 38/38/38 37/37/37
f 40/40/40 38/38/38 39/39/39
f 37/37/37 41/41/41 39/39/39
f 42/42/42 40/40/40 39/39/39
f 41/41/41 42/42/42 39/39/39
f 42/42/42 41/41/41 43/43/43
f 46/46/46 45/45/45 44/44/44
f 44/44/44 45/45/45 47/47/47
f 45/45/45 48/48/48 47/47/47
f 45/45/45 49/49/49 48/48/48
f 44/44/44 47/47/47 50/50/50
f 51/51/51 44/44/44 50/50/50
f 52/52/52 51/51/51 50/50/50
f 49/49/49 53/53/53 48/48/48
f 49/49/49 54/54/54 53/53/53
f 47/47/47 48/48/48 55/55/55
f 48/48/48 56/56/56 55/55/55
f 48/48/48 53/53/53 56/56/56
f 47/47/47 55/55/55 57/57/57
f 50/50/50 47/47/47 57/57/57
f 53/53/53 58/58/58 56/56/56
f 59/59/59 50/50/50 57/57/57
f 59/59/59 52/52/52 50/50/50
f 60/60/60 59/59/59 57/57/57
f 59/59/59 60/60/60 61/61/61
f 53/53/53 62/62/62 58/58/58
f 54/54/54 62/62/62 53/53/53
f 62/62/62 63/63/63 58/58/58
f 52/52/52 59/59/59 64/64/64
f 64/64/64 59/59/59 61/61/61
f 65/65/65 52/52/52 64/64/64
f 64/64/64 61/61/61 66/66/66
f 65/65/65 64/64/64 67/67/67
f 67/67/67 64/64/64 66/66/66
f 67/67/67 66/66/66 68/68/68
f 69/69/69 65/65/65 67/67/67
f 70/70/70 67/67/67 68/68/68
f 69/69/69 67/67/67 70/70/70
f 71/71/71 69/69/69 70/70/70
f 54/54/54 72/72/72 62/62/62
f 73/73/73 72/72/72 54/54/54
f 73/73/73 74/74/74 72/72/72
f 72/72/72 75/75/75 62/62/62
f 62/62/62 75/75/75 63/63/63
f 75/75/75 76/76/76 63/63/63
f 74/74/74 77/77/77 72/72/72
f 72/72/72 77/77/77 75/75/75
f 74/74/74 78/78/78 77/77/77
f 78/78/78 79/79/79 77/77/77
f 75/75/75 80/80/80 76/76/76
f 77/77/77 80/80/80 75/75/75
f 77/77/77 79/79/79 80/80/80
f 80/80/80 81/81/81 76/76/76
f 79/79/79 82/82/82 80/80/80
f 80/80/80 82/82/82 81/81/81
f 82/82/82 83/83/83 81/81/81
f 86/86/86 85/85/85 84/84/84
f 85/85/85 87/87/87 84/84/84
f 85/85/85 88/88/88 87/87/87
f 88/88/88 89/89/89 87/87/87
f 88/88/88 90/90/90 89/89/89
f 91/91/91 90/90/90 88/88/88
f 90/90/90 92/92/92 89/89/89
f 89/89/89 92/92/92 93/93/93
f 92/92/92 94/94/94 93/93/93
f 90/90/90 95/95/95 92/92/92
f 95/95/95 96/96/96 92/92/92
f 92/92/92 96/96/96 94/94/94
f 97/97/97 95/95/95 90/90/90
f 91/91/91 97/97/97 90/90/90
f 96/96/96 98/98/98 94/94/94
f 94/94/94 98/98/98 99/99/99
f 98/98/98 100/100/100 99/99/99
f 99/99/99 100/100/100 101/101/101
f 100/100/100 102/102/102 101/101/101
f 101/101/101 102/102/102 103/103/103
f 102/102/102 104/104/104 103/103/103
f 103/103/103 104/104/104 105/105/105
f 104/104/104 106/106/106 105/105/105
f 107/107/107 97/97/97 91/91/91
f 108/108/108 107/107/107 91/91/91
f 108/108/108 91/91/91 109/109/109
f 110/110/110 107/107/107 108/108/108
f 111/111/111 110/110/110 108/108/108
f 112/112/112 110/110/110 111/111/111
f 113/113/113 112/112/112 111/111/111
f 113/113/113 111/111/111 114/114/114
f 115/115/115 112/112/112 113/113/113
f 116/116/116 113/113/113 114/114/114
f 117/117/117 115/115/115 113/113/113
f 117/117/117 113/113/113 116/116/116
f 118/118/118 117/117/117 116/116/116
f 119/119/119 115/115/115 117/117/117
f 120/120/120 119/119/119 117/117/117
f 121/121/121 119/119/119 120/120/120
f 122/122/122 121/121/121 120/120/120
f 123/123/123 121/121/121 122/122/122
f 124/124/124 123/123/123 122/122/122
f 125/125/125 123/123/123 124/124/124
f 126/126/126 125/125/125 124/124/124
f 127/127/127 125/125/125 126/126/126
f 128/128/128 127/127/127 126/126/126
f 131/131/131 130/130/130 129/129/129
f 132/132/132 131/131/131 129/129/129
f 132/132/132 129/129/129 133/133/133
f 134/134/134 132/132/132 133/133/133
f 134/134/134 133/133/133 135/135/135
f 136/136/136 134/134/134 135/135/135
f 136/136/136 135/135/135 137/137/137
f 138/138/138 136/136/136 137/137/137
f 138/138/138 137/137/137 139/139/139
f 140/140/140 138/138/138 139/139/139
f 141/141/141 131/131/131 132/132/132
f 142/142/142 132/132/132 134/134/134
f 142/142/142 141/141/141 132/132/132
f 143/143/143 134/134/134 136/136/136
f 143/143/143 142/142/142 134/134/134
f 144/144/144 136/136/136 138/138/138
f 144/144/144 143/143/143 136/136/136
f 145/145/145 138/138/138 140/140/140
f 145/145/145 144/144/144 138/138/138
f 141/141/141 146/146/146 131/131/131
f 146/146/146 147/147/147 131/131/131
f 148/148/148 146/146/146 141/141/141
f 149/149/149 148/148/148 141/141/141
f 149/149/149 141/141/141 142/142/142
f 150/150/150 148/148/148 149/149/149
f 151/151/151 150/150/150 149/149/149
f 152/152/152 149/149/149 142/142/142
f 151/151/151 149/149/149 152/152/152
f 152/152/152 142/142/142 143/143/143
f 153/153/153 151/151/151 152/152/152
f 154/154/154 152/152/152 143/143/143
f 153/153/153 152/152/152 154/154/154
f 154/154/154 143/143/143 144/144/144
f 155/155/155 153/153/153 154/154/154
f 156/156/156 154/154/154 144/144/144
f 155/155/155 154/154/154 156/156/156
f 157/157/157 155/155/155 156/156/156
f 156/156/156 144/144/144 145/145/145
f 157/157/157 156/156/156 158/158/158
f 158/158/158 156/156/156 145/145/145
f 159/159/159 157/157/157 158/158/158
f 158/158/158 145/145/145 160/160/160
f 160/160/160 145/145/145 140/140/140
f 160/160/160 140/140/140 161/161/161
f 159/159/159 158/158/158 162/162/162
f 162/162/162 158/158/158 160/160/160
f 163/163/163 159/159/159 162/162/162
f 164/164/164 160/160/160 161/161/161
f 162/162/162 160/160/160 164/164/164
f 163/163/163 162/162/162 165/165/165
f 165/165/165 162/162/162 164/164/164
f 166/166/166 163/163/163 165/165/165
f 167/167/167 166/166/166 165/165/165
f 168/168/168 164/164/164 161/161/161
f 169/169/169 168/168/168 161/161/161
f 168/168/168 169/169/169 170/170/170
f 171/171/171 165/165/165 164/164/164
f 171/171/171 167/167/167 165/165/165
f 168/168/168 171/171/171 164/164/164
f 172/172/172 168/168/168 170/170/170
f 171/171/171 168/168/168 172/172/172
f 172/172/172 170/170/170 173/173/173
f 167/167/167 171/171/171 174/174/174
f 174/174/174 171/171/171 172/172/172
f 175/175/175 167/167/167 174/174/174
f 176/176/176 172/172/172 173/173/173
f 174/174/174 172/172/172 176/176/176
f 176/176/176 173/173/173 177/177/177
f 178/178/178 176/176/176 177/177/177
f 175/175/175 174/174/174 179/179/179
f 179/179/179 174/174/174 176/176/176
f 179/179/179 176/176/176 178/178/178
f 180/180/180 175/175/175 179/179/179
f 181/181/181 179/179/179 178/178/178
f 180/180/180 179/179/179 181/181/181
f 182/182/182 180/180/180 181/181/181
f 185/185/185 184/184/184 183/183/183
f 186/186/186 185/185/185 183/183/183
f 187/187/187 185/185/185 186/186/186
f 186/186/186 183/183/183 188/188/188
f 189/189/189 187/187/187 186/186/186
f 190/190/190 186/186/186 188/188/188
f 189/189/189 186/186/186 190/190/190
f 190/190/190 188/188/188 191/191/191
f 192/192/192 189/189/189 190/190/190
f 193/193/193 190/190/190 191/191/191
f 192/192/192 190/190/190 193/193/193
f 193/193/193 191/191/191 194/194/194
f 195/195/195 192/192/192 193/193/193
f 196/196/196 193/193/193 194/194/194
f 195/195/195 193/193/193 196/196/196
f 196/196/196 194/194/194 197/197/197
f 198/198/198 195/195/195 196/196/196
f 199/199/199 196/196/196 197/197/197
f 198/198/198 196/196/196 199/199/199
f 199/199/199 197/197/197 200/200/200
f 201/201/201 198/198/198 199/199/199
f 202/202/202 199/199/199 200/200/200
f 201/201/201 199/199/199 202/202/202
f 203/203/203 201/201/201 202/202/202
f 202/202/202 200/200/200 204/204/204
f 203/203/203 202/202/202 205/205/205
f 205/205/205 202/202/202 204/204/204
f 206/206/206 203/203/203 205/205/205
f 207/207/207 206/206/206 205/205/205
f 208/208/208 205/205/205 204/204/204
f 208/208/208 207/207/207 205/205/205
f 209/209/209 208/208/208 204/204/204
f 208/208/208 209/209/209 210/210/210
f 207/207/207 208/208/208 211/211/211
f 211/211/211 208/208/208 210/210/210
f 212/212/212 207/207/207 211/211/211
f 211/211/211 210/210/210 213/213/213
f 212/212/212 211/211/211 214/214/214
f 214/214/214 211/211/211 213/213/213
f 214/214/214 213/213/213 215/215/215
f 216/216/216 212/212/212 214/214/214
f 217/217/217 214/214/214 215/215/215
f 216/216/216 214/214/214 217/217/217
f 218/218/218 216/216/216 217/217/217
f 221/221/221 220/220/220 219/219/219
f 222/222/222 221/221/221 219/219/219
f 222/222/222 219/219/219 223/223/223
f 224/224/224 222/222/222 223/223/223
f 225/225/225 222/222/222 224/224/224
f 226/226/226 225/225/225 224/224/224
f 224/224/224 223/223/223 227/227/227
f 227/227/227 223/223/223 228/228/228
f 227/227/227 228/228/228 229/229/229
f 226/226/226 224/224/224 230/230/230
f 230/230/230 224/224/224 227/227/227
f 231/231/231 226/226/226 230/230/230
f 232/232/232 227/227/227 229/229/229
f 230/230/230 227/227/227 232/232/232
f 232/232/232 229/229/229 233/233/233
f 234/234/234 232/232/232 233/233/233
f 235/235/235 230/230/230 232/232/232
f 231/231/231 230/230/230 235/235/235
f 235/235/235 232/232/232 234/234/234
f 236/236/236 231/231/231 235/235/235
f 237/237/237 231/231/231 236/236/236
f 238/238/238 237/237/237 236/236/236
f 239/239/239 235/235/235 234/234/234
f 236/236/236 235/235/235 239/239/239
f 238/238/238 236/236/236 240/240/240
f 240/240/240 236/236/236 239/239/239
f 239/239/239 234/234/234 241/241/241
f 241/241/241 234/234/234 242/242/242
f 241/241/241 242/242/242 243/243/243
f 244/244/244 239/239/239 241/241/241
f 240/240/240 239/239/239 244/244/244
f 245/245/245 238/238/238 240/240/240
f 246/246/246 238/238/238 245/245/245
f 247/247/247 246/246/246 245/245/245
f 248/248/248 241/241/241 243/243/243
f 244/244/244 241/241/241 248/248/248
f 249/249/249 240/240/240 244/244/244
f 245/245/245 240/240/240 249/249/249
f 247/247/247 245/245/245 250/250/250
f 250/250/250 245/245/245 249/249/249
f 251/251/251 247/247/247 250/250/250
f 249/249/249 244/244/244 252/252/252
f 252/252/252 244/244/244 248/248/248
f 253/253/253 248/248/248 243/243/243
f 254/254/254 253/253/253 243/243/243
f 253/253/253 254/254/254 255/255/255
f 250/250/250 249/249/249 256/256/256
f 256/256/256 249/249/249 252/252/252
f 251/251/251 250/250/250 257/257/257
f 257/257/257 250/250/250 256/256/256
f 258/258/258 251/251/251 257/257/257
f 259/259/259 258/258/258 257/257/257
f 260/260/260 252/252/252 248/248/248
f 253/253/253 260/260/260 248/248/248
f 261/261/261 253/253/253 255/255/255
f 260/260/260 253/253/253 261/261/261
f 261/261/261 255/255/255 262/262/262
f 263/263/263 256/256/256 252/252/252
f 260/260/260 263/263/263 252/252/252
f 264/264/264 257/257/257 256/256/256
f 264/264/264 259/259/259 257/257/257
f 263/263/263 264/264/264 256/256/256
f 265/265/265 261/261/261 262/262/262
f 265/265/265 262/262/262 266/266/266
f 267/267/267 265/265/265 266/266/266
f 268/268/268 260/260/260 261/261/261
f 263/263/263 260/260/260 268/268/268
f 268/268/268 261/261/261 265/265/265
f 269/269/269 265/265/265 267/267/267
f 269/269/269 268/268/268 265/265/265
f 270/270/270 269/269/269 267/267/267
f 271/271/271 263/263/263 268/268/268
f 264/264/264 263/263/263 271/271/271
f 271/271/271 268/268/268 269/269/269
f 259/259/259 264/264/264 272/272/272
f 272/272/272 264/264/264 271/271/271
f 273/273/273 259/259/259 272/272/272
f 273/273/273 272/272/272 274/274/274
f 275/275/275 269/269/269 270/270/270
f 275/275/275 271/271/271 269/269/269
f 272/272/272 271/271/271 275/275/275
f 274/274/274 272/272/272 275/275/275
f 276/276/276 275/275/275 270/270/270
f 274/274/274 275/275/275 276/276/276
f 277/277/277 274/274/274 276/276/276
f 278/278/278 274/274/274 277/277/277
f 281/281/281 280/280/280 279/279/279
f 281/281/281 279/279/279 282/282/282
f 283/283/283 281/281/281 282/282/282
f 283/283/283 282/282/282 284/284/284
f 285/285/285 281/281/281 283/283/283
f 285/285/285 286/286/286 281/281/281
f 287/287/287 286/286/286 285/285/285
f 288/288/288 287/287/287 285/285/285
f 289/289/289 283/283/283 284/284/284
f 289/289/289 284/284/284 290/290/290
f 291/291/291 289/289/289 290/290/290
f 292/292/292 285/285/285 283/283/283
f 288/288/288 285/285/285 292/292/292
f 292/292/292 283/283/283 289/289/289
f 293/293/293 289/289/289 291/291/291
f 293/293/293 292/292/292 289/289/289
f 294/294/294 288/288/288 292/292/292
f 294/294/294 292/292/292 293/293/293
f 295/295/295 288/288/288 294/294/294
f 296/296/296 295/295/295 294/294/294
f 296/296/296 294/294/294 297/297/297
f 297/297/297 294/294/294 293/293/293
f 298/298/298 296/296/296 297/297/297
f 299/299/299 293/293/293 291/291/291
f 297/297/297 293/293/293 299/299/299
f 299/299/299 291/291/291 300/300/300
f 298/298/298 297/297/297 301/301/301
f 301/301/301 297/297/297 299/299/299
f 302/302/302 298/298/298 301/301/301
f 303/303/303 299/299/299 300/300/300
f 301/301/301 299/299/299 303/303/303
f 303/303/303 300/300/300 304/304/304
f 302/302/302 301/301/301 305/305/305
f 305/305/305 301/301/301 303/303/303
f 306/306/306 302/302/302 305/305/305
f 307/307/307 303/303/303 304/304/304
f 305/305/305 303/303/303 307/307/307
f 307/307/307 304/304/304 308/308/308
f 306/306/306 305/305/305 309/309/309
f 309/309/309 305/305/305 307/307/307
f 310/310/310 306/306/306 309/309/309
f 311/311/311 307/307/307 308/308/308
f 309/309/309 307/307/307 311/311/311
f 310/310/310 309/309/309 312/312/312
f 312/312/312 309/309/309 311/311/311
f 313/313/313 311/311/311 308/308/308
f 314/314/314 313/313/313 308/308/308
f 313/313/313 314/314/314 315/315/315
f 311/311/311 313/313/313 316/316/316
f 312/312/312 311/311/311 316/316/316
f 317/317/317 310/310/310 312/312/312
f 318/318/318 310/310/310 317/317/317
f 319/319/319 318/318/318 317/317/317
f 320/320/320 319/319/319 317/317/317
f 321/321/321 317/317/317 312/312/312
f 321/321/321 320/320/320 317/317/317
f 316/316/316 321/321/321 312/312/312
f 322/322/322 313/313/313 315/315/315
f 316/316/316 313/313/313 322/322/322
f 320/320/320 321/321/321 323/323/323
f 324/324/324 320/320/320 323/323/323
f 321/321/321 316/316/316 325/325/325
f 325/325/325 316/316/316 322/322/322
f 323/323/323 321/321/321 325/325/325
f 322/322/322 315/315/315 326/326/326
f 326/326/326 315/315/315 327/327/327
f 324/324/324 323/323/323 328/328/328
f 329/329/329 324/324/324 328/328/328
f 323/323/323 325/325/325 330/330/330
f 328/328/328 323/323/323 330/330/330
f 325/325/325 322/322/322 331/331/331
f 331/331/331 322/322/322 326/326/326
f 330/330/330 325/325/325 331/331/331
f 329/329/329 328/328/328 332/332/332
f 333/333/333 329/329/329 332/332/332
f 332/332/332 328/328/328 334/334/334
f 328/328/328 330/330/330 334/334/334
f 334/334/334 330/330/330 335/335/335
f 330/330/330 331/331/331 335/335/335
f 335/335/335 331/331/331 336/336/336
f 331/331/331 326/326/326 336/336/336
f 336/336/336 326/326/326 337/337/337
f 340/340/340 339/339/339 338/338/338
f 339/339/339 341/341/341 338/338/338
f 341/341/341 339/339/339 342/342/342
f 339/339/339 343/343/343 342/342/342
f 343/343/343 339/339/339 344/344/344
f 339/339/339 345/345/345 344/344/344
f 345/345/345 339/339/339 346/346/346
f 339/339/339 347/347/347 346/346/346
f 347/347/347 339/339/339 348/348/348
f 339/339/339 349/349/349 348/348/348
f 352/352/352 351/351/351 350/350/350
f 353/353/353 352/352/352 350/350/350
f 351/351/351 354/354/354 350/350/350
f 355/355/355 353/353/353 350/350/350
f 354/354/354 356/356/356 350/350/350
f 357/357/357 355/355/355 350/350/350
f 356/356/356 358/358/358 350/350/350
f 359/359/359 357/357/357 350/350/350
f 358/358/358 360/360/360 350/350/350
f 361/361/361 359/359/359 350/350/350
f 360/360/360 362/362/362 350/350/350
f 363/363/363 361/361/361 350/350/350
f 362/362/362 364/364/364 350/350/350
f 365/365/365 363/363/363 350/350/350
f 364/364/364 366/366/366 350/350/350
f 366/366/366 365/365/365 350/350/350
