mtllib material.mtl
usemtl material_0
v 0.01340054 0.01358034 -0.02876082
v 0.01717952 -0.00307374 -0.03019293
v 0.01956874 -0.00239413 -0.01963164
v 0.01508456 0.01401117 -0.01879988
v 0.00313280 0.03075825 -0.02688929
v 0.02123296 -0.00181625 -0.00941935
v 0.00516244 0.03147535 -0.01799249
v -0.01275651 0.04107481 -0.02646962
v 0.01709562 0.01468163 -0.00900253
v -0.01069885 0.04192056 -0.01769253
v -0.02740860 0.04069115 -0.02780011
v -0.02627489 0.04286525 -0.01812950
v 0.02015805 0.01144809 0.00153931
v 0.02244130 0.00086654 0.00169903
v 0.00965056 0.03161966 0.00177619
v 0.00751357 0.03209067 -0.00851860
v -0.00793986 0.04292381 -0.00828720
v -0.02427729 0.04450083 -0.00833541
v -0.00521472 0.04227877 0.00200592
v -0.02145565 0.04430008 0.00211215
v -0.01792034 0.04062937 0.01274785
v -0.03651527 0.03845917 0.00200872
v -0.02145565 0.04430008 0.00211215
v -0.03189996 0.03573243 0.01271095
v -0.01417466 0.03430822 0.02299789
v -0.04900827 0.02626205 0.00181359
v -0.02648393 0.03214171 0.02297131
v -0.01034294 0.03095675 0.03476644
v -0.02167712 0.02960554 0.03400597
v -0.04406600 0.02496194 0.01272595
v -0.05745873 0.01113895 0.00136691
v -0.03744621 0.02332981 0.02340907
v -0.03141523 0.02361552 0.03336526
v -0.05190971 0.01092432 0.01310632
v -0.04465912 0.01037717 0.02458581
v -0.03763601 0.01145461 0.03620425
v -0.03911259 -0.00250996 0.03756067
v -0.04734148 -0.00292303 0.02540833
v -0.05474855 -0.00286869 0.01325439
v -0.06087506 -0.00331329 0.00088128
v -0.00382858 -0.04040180 0.00085710
v -0.01518246 -0.04176326 -0.00998272
v -0.01454880 -0.04144500 0.00084672
v -0.00452162 -0.04173050 -0.00990715
v 0.00575357 -0.03700082 0.00087075
v -0.01535201 -0.04141663 -0.02004775
v 0.00543600 -0.03910024 -0.00973209
v 0.01353109 -0.03139482 0.00088562
v -0.00541515 -0.04146532 -0.01971722
v 0.01375266 -0.03337932 -0.00959191
v 0.01911970 -0.02382848 0.00099214
v -0.00627018 -0.03996499 -0.02881380
v -0.01526140 -0.03999286 -0.02953826
v 0.00225939 -0.03812697 -0.02784897
v 0.00416218 -0.03917412 -0.01941253
v 0.00941000 -0.03338538 -0.02881908
v 0.01914654 -0.02504512 -0.00957235
v 0.02232677 -0.01424243 0.00128729
v 0.01267402 -0.03382096 -0.01935879
v 0.01784398 -0.02561980 -0.01964166
v 0.01448705 -0.02553942 -0.02962587
v 0.02164613 -0.01493921 -0.00963327
v 0.02012325 -0.01533961 -0.01977898
v 0.01685864 -0.01573125 -0.03026835
v 0.01717952 -0.00307374 -0.03019293
v 0.01956874 -0.00239413 -0.01963164
v 0.02123296 -0.00181625 -0.00941935
v 0.02244130 0.00086654 0.00169903
v -0.01302640 -0.04114911 0.01246523
v -0.00382858 -0.04040180 0.00085710
v -0.01454880 -0.04144500 0.00084672
v -0.00287114 -0.03958980 0.01256107
v -0.01102184 -0.04207177 0.02353671
v 0.00700949 -0.03657107 0.01271410
v 0.00575357 -0.03700082 0.00087075
v -0.00127780 -0.04007212 0.02391737
v -0.00877031 -0.04130058 0.03387755
v -0.00030797 -0.03924623 0.03451262
v 0.00678591 -0.03612909 0.03552559
v 0.00806001 -0.03651243 0.02449970
v 0.01414240 -0.02984533 0.03732850
v 0.01495275 -0.03039569 0.02557823
v 0.01865922 -0.02215101 0.03927878
v 0.01467082 -0.03071329 0.01286397
v 0.01353109 -0.03139482 0.00088562
v 0.01932639 -0.02221317 0.02630298
v 0.02073802 -0.01259568 0.04035247
v 0.01969741 -0.02312342 0.01341101
v 0.01911970 -0.02382848 0.00099214
v 0.02054623 -0.01281547 0.02680517
v 0.02005222 -0.00114967 0.04013082
v 0.01831958 -0.00163065 0.02620787
v 0.02207629 -0.01342396 0.01366467
v 0.02232677 -0.01424243 0.00128729
v 0.02171646 -0.00127432 0.01389799
v 0.02244130 0.00086654 0.00169903
v -0.00743229 -0.03753843 0.04289341
v -0.00877031 -0.04130058 0.03387755
v -0.01765182 -0.04108040 0.03278414
v -0.01562440 -0.03776296 0.04060394
v -0.01544336 -0.03226215 0.04734991
v -0.00567833 -0.03156611 0.05079085
v -0.02192385 -0.03642326 0.03846769
v -0.02593118 -0.03793519 0.03183857
v -0.03207630 -0.03253525 0.03373304
v -0.02478617 -0.03190538 0.04143641
v -0.01587525 -0.02430592 0.05228057
v -0.00421569 -0.02377203 0.05654291
v -0.02666330 -0.02415569 0.04507842
v -0.03658606 -0.02446682 0.03599191
v -0.03858015 -0.01445719 0.03729408
v -0.01614320 -0.01417318 0.05497657
v -0.00300879 -0.01385153 0.05987071
v -0.00302181 -0.00116512 0.05922170
v -0.01629393 -0.00161514 0.05479316
v -0.02780678 -0.01425525 0.04708864
v -0.02861191 -0.00208626 0.04773292
v -0.03911259 -0.00250996 0.03756067
v 0.02171646 -0.00127432 0.01389799
v 0.02015805 0.01144809 0.00153931
v 0.02244130 0.00086654 0.00169903
v 0.01818982 0.01407454 0.01347079
v 0.00965056 0.03161966 0.00177619
v 0.01517516 0.01165600 0.02499731
v 0.01831958 -0.00163065 0.02620787
v 0.01005530 0.02865651 0.01280412
v -0.00521472 0.04227877 0.00200592
v 0.01638256 0.01185425 0.03855837
v 0.02005222 -0.00114967 0.04013082
v 0.00874607 0.02287111 0.03524579
v 0.00827479 0.02459119 0.02443136
v -0.00220465 0.03224791 0.02342193
v 0.00005166 0.02834255 0.03523910
v -0.01034294 0.03095675 0.03476644
v -0.01417466 0.03430822 0.02299789
v -0.01792034 0.04062937 0.01274785
v -0.00323748 0.03841998 0.01291814
v -0.02145565 0.04430008 0.00211215
v 0.02042896 -0.00071097 0.05344944
v 0.01638256 0.01185425 0.03855837
v 0.02005222 -0.00114967 0.04013082
v 0.01627842 0.01341012 0.04972286
v 0.01080432 -0.00085834 0.06007267
v 0.00874607 0.02287111 0.03524579
v 0.00800633 0.01334779 0.05529120
v -0.00302181 -0.00116512 0.05922170
v -0.00423599 0.01255144 0.05466140
v -0.00674236 0.02596057 0.04652856
v 0.01101501 0.02132178 0.04541682
v 0.00340688 0.02467859 0.04681605
v -0.01034294 0.03095675 0.03476644
v 0.00005166 0.02834255 0.03523910
v 0.02042896 -0.00071097 0.05344944
v 0.02005222 -0.00114967 0.04013082
v 0.02073802 -0.01259568 0.04035247
v 0.01967169 -0.01330637 0.05325935
v 0.01080432 -0.00085834 0.06007267
v 0.01865922 -0.02215101 0.03927878
v 0.01030363 -0.01355361 0.06012919
v -0.00302181 -0.00116512 0.05922170
v -0.00300879 -0.01385153 0.05987071
v 0.01591322 -0.02282115 0.05087367
v 0.01414240 -0.02984533 0.03732850
v 0.00733135 -0.02313632 0.05652992
v -0.00421569 -0.02377203 0.05654291
v 0.01001078 -0.03019848 0.04705036
v 0.00678591 -0.03612909 0.03552559
v 0.00336214 -0.03045571 0.05088231
v -0.00567833 -0.03156611 0.05079085
v -0.00018928 -0.03588069 0.04383136
v -0.00743229 -0.03753843 0.04289341
v -0.00877031 -0.04130058 0.03387755
v -0.00030797 -0.03924623 0.03451262
v 0.00661024 -0.03404744 0.04275430
v -0.03651527 0.03845917 0.00200872
v -0.02427729 0.04450083 -0.00833541
v -0.02145565 0.04430008 0.00211215
v -0.03908219 0.03839076 -0.00867043
v -0.04900827 0.02626205 0.00181359
v -0.03994047 0.03689982 -0.01934306
v -0.02627489 0.04286525 -0.01812950
v -0.05093015 0.02564564 -0.00932961
v -0.05745873 0.01113895 0.00136691
v -0.03760256 0.03507258 -0.03009094
v -0.02740860 0.04069115 -0.02780011
v -0.04687485 0.02421997 -0.03338920
v -0.05003728 0.02469244 -0.02121917
v -0.05862620 0.01070609 -0.01039089
v -0.06087506 -0.00331329 0.00088128
v -0.06205603 -0.00391605 -0.01114164
v -0.05661216 0.00967002 -0.02282818
v -0.05222293 0.00948637 -0.03663246
v -0.05869107 -0.00449566 -0.02387846
v -0.05247577 -0.00516759 -0.03701984
v 0.01236721 -0.00387650 -0.04085508
v 0.01685864 -0.01573125 -0.03026835
v 0.01717952 -0.00307374 -0.03019293
v 0.01128542 -0.01629060 -0.04079071
v 0.00369722 -0.01738959 -0.05054273
v 0.00531646 -0.00472522 -0.05120775
v 0.00873199 -0.02573125 -0.03927368
v 0.01448705 -0.02553942 -0.02962587
v -0.00803255 -0.01868781 -0.05752819
v -0.00676996 -0.00554829 -0.05907232
v -0.01018562 -0.02734538 -0.05291687
v 0.00087356 -0.02656462 -0.04769850
v -0.00283225 -0.03331025 -0.04308911
v -0.01253583 -0.03340737 -0.04625097
v -0.01441438 -0.03735626 -0.03854012
v 0.00456233 -0.03301274 -0.03681375
v 0.00941000 -0.03338538 -0.02881908
v 0.00225939 -0.03812697 -0.02784897
v 0.00029443 -0.03665638 -0.03441415
v -0.00627018 -0.03996499 -0.02881380
v -0.00598882 -0.03754951 -0.03650049
v -0.01526140 -0.03999286 -0.02953826
v -0.05802828 -0.01536203 0.00136571
v -0.06205603 -0.00391605 -0.01114164
v -0.06087506 -0.00331329 0.00088128
v -0.05961417 -0.01573997 -0.01075061
v -0.05275744 -0.02502971 0.00131209
v -0.05869107 -0.00449566 -0.02387846
v -0.05444018 -0.02531349 -0.01032901
v -0.04545590 -0.03375801 0.00113220
v -0.05673853 -0.01586400 -0.02322184
v -0.05247577 -0.00516759 -0.03701984
v -0.05042842 -0.01644476 -0.03591097
v -0.05233527 -0.02487527 -0.02213076
v -0.04706500 -0.02479507 -0.03398538
v -0.04727897 -0.03365509 -0.01009922
v -0.03610036 -0.03983615 0.00094406
v -0.04554673 -0.03199664 -0.02108010
v -0.04142453 -0.03147638 -0.03189928
v -0.03385233 -0.03569360 -0.03019856
v -0.03606118 -0.03638852 -0.02018316
v -0.02487862 -0.03843483 -0.02987406
v -0.03705022 -0.03870250 -0.01006930
v -0.02526076 -0.04203508 0.00087343
v -0.02595255 -0.04069415 -0.01001630
v -0.01454880 -0.04144500 0.00084672
v -0.01518246 -0.04176326 -0.00998272
v -0.01535201 -0.04141663 -0.02004775
v -0.02572803 -0.03931272 -0.02003603
v -0.01526140 -0.03999286 -0.02953826
v -0.02487862 -0.03843483 -0.02987406
v -0.01526140 -0.03999286 -0.02953826
v -0.01441438 -0.03735626 -0.03854012
v -0.02341613 -0.03634989 -0.03870327
v -0.03385233 -0.03569360 -0.03019856
v -0.02382205 -0.03257731 -0.04582622
v -0.01253583 -0.03340737 -0.04625097
v -0.01018562 -0.02734538 -0.05291687
v -0.03120882 -0.03490188 -0.03715801
v -0.04142453 -0.03147638 -0.03189928
v -0.03449834 -0.03174409 -0.04114011
v -0.02440915 -0.02675412 -0.05178343
v -0.00803255 -0.01868781 -0.05752819
v -0.03800587 -0.02598962 -0.04514965
v -0.04706500 -0.02479507 -0.03398538
v -0.02475677 -0.01828027 -0.05600905
v -0.00676996 -0.00554829 -0.05907232
v -0.02454158 -0.00602570 -0.05781106
v -0.04160400 -0.00591371 -0.04966613
v -0.04030181 -0.01757696 -0.04806947
v -0.05042842 -0.01644476 -0.03591097
v -0.05247577 -0.00516759 -0.03701984
v -0.03911259 -0.00250996 0.03756067
v -0.03858015 -0.01445719 0.03729408
v -0.04671983 -0.01453204 0.02533437
v -0.04734148 -0.00292303 0.02540833
v -0.03658606 -0.02446682 0.03599191
v -0.05314496 -0.01482173 0.01318800
v -0.05474855 -0.00286869 0.01325439
v -0.06087506 -0.00331329 0.00088128
v -0.05802828 -0.01536203 0.00136571
v -0.04401105 -0.02469073 0.02472679
v -0.03207630 -0.03253525 0.03373304
v -0.04895284 -0.02476388 0.01289736
v -0.05275744 -0.02502971 0.00131209
v -0.03823095 -0.03326583 0.02381308
v -0.02593118 -0.03793519 0.03183857
v -0.04248977 -0.03363809 0.01251091
v -0.04545590 -0.03375801 0.00113220
v -0.03610036 -0.03983615 0.00094406
v -0.03371057 -0.04035623 0.01237952
v -0.02526076 -0.04203508 0.00087343
v -0.03014061 -0.03956329 0.02309553
v -0.01765182 -0.04108040 0.03278414
v -0.02061680 -0.04268444 0.02324427
v -0.00877031 -0.04130058 0.03387755
v -0.01102184 -0.04207177 0.02353671
v -0.01302640 -0.04114911 0.01246523
v -0.02349796 -0.04288203 0.01234518
v -0.01454880 -0.04144500 0.00084672
v -0.03763601 0.01145461 0.03620425
v -0.03141523 0.02361552 0.03336526
v -0.02639274 0.02156006 0.04201588
v -0.02167712 0.02960554 0.03400597
v -0.02844148 0.01264056 0.04570280
v -0.03911259 -0.00250996 0.03756067
v -0.02861191 -0.00208626 0.04773292
v -0.01765739 0.02540547 0.04391713
v -0.01034294 0.03095675 0.03476644
v -0.00674236 0.02596057 0.04652856
v -0.01665723 0.01300800 0.05198820
v -0.01629393 -0.00161514 0.05479316
v -0.00423599 0.01255144 0.05466140
v -0.00302181 -0.00116512 0.05922170
v 0.00985714 0.01251310 -0.03850795
v 0.01236721 -0.00387650 -0.04085508
v 0.01717952 -0.00307374 -0.03019293
v 0.01340054 0.01358034 -0.02876082
v 0.00377465 0.01165782 -0.04762333
v 0.00531646 -0.00472522 -0.05120775
v -0.00676996 -0.00554829 -0.05907232
v 0.00036620 0.02928630 -0.03493958
v 0.00313280 0.03075825 -0.02688929
v -0.00443211 0.02666366 -0.04295652
v -0.00715301 0.01111073 -0.05474038
v -0.02454158 -0.00602570 -0.05781106
v -0.01447932 0.03784833 -0.03491598
v -0.01275651 0.04107481 -0.02646962
v -0.00876034 0.02177066 -0.04916585
v -0.02379200 0.01010128 -0.05545666
v -0.04160400 -0.00591371 -0.04966613
v -0.01738120 0.03317701 -0.04132983
v -0.02200312 0.02464389 -0.04817082
v -0.04069039 0.00939063 -0.04860925
v -0.05247577 -0.00516759 -0.03701984
v -0.05222293 0.00948637 -0.03663246
v -0.03651536 0.02364323 -0.04367638
v -0.04687485 0.02421997 -0.03338920
v -0.03760256 0.03507258 -0.03009094
v -0.03143867 0.03318893 -0.03823700
v -0.02572686 0.03860439 -0.03334804
v -0.02740860 0.04069115 -0.02780011
vn 0.87978960 0.37950020 -0.28626890
vn 0.93775490 0.12225660 -0.32506760
vn 0.96708210 0.15432060 -0.20232980
vn 0.90083630 0.38264570 -0.20512500
vn 0.69200070 0.66703780 -0.27603570
vn 0.97905670 0.13473740 -0.15262260
vn 0.71596430 0.66440310 -0.21439180
vn 0.30521610 0.91487770 -0.26427620
vn 0.90331590 0.38993110 -0.17881290
vn 0.32767590 0.92533460 -0.19074680
vn -0.21162250 0.93944330 -0.26955930
vn -0.18190040 0.97207210 -0.14828410
vn 0.93574700 0.35085800 -0.03572572
vn 0.99103720 0.13041160 -0.02894993
vn 0.76100020 0.64872910 0.00541283
vn 0.73701950 0.65475830 -0.16761240
vn 0.35418320 0.92813460 -0.11454510
vn -0.15192360 0.98802490 -0.02694737
vn 0.37585130 0.92121340 0.10050720
vn -0.11928980 0.97136440 0.20547800
vn -0.07178470 0.90627880 0.41654020
vn -0.53182260 0.80599750 0.25987100
vn -0.11928980 0.97136440 0.20547800
vn -0.45496770 0.77075370 0.44603030
vn -0.01811997 0.91236710 0.40897160
vn -0.77258500 0.57783160 0.26310270
vn -0.38772000 0.80984210 0.44026010
vn 0.01954198 0.94600720 0.32355600
vn -0.31772600 0.86506640 0.38821410
vn -0.69615630 0.55807880 0.45156880
vn -0.90286460 0.34168300 0.26093720
vn -0.67213230 0.57609680 0.46513500
vn -0.64430200 0.61585650 0.45342660
vn -0.82371940 0.32356630 0.46560830
vn -0.80243930 0.31556930 0.50646540
vn -0.76940380 0.28991140 0.56918290
vn -0.77057470 0.05126436 0.63528460
vn -0.84587870 0.06394920 0.52952780
vn -0.88180470 0.04838009 0.46912680
vn -0.96347620 0.03108113 0.26598410
vn 0.19493700 -0.97856470 0.06641269
vn -0.02923007 -0.99933110 -0.02197638
vn 0.06684384 -0.99775250 0.00468396
vn 0.14630420 -0.98848350 0.03867213
vn 0.44534390 -0.89245770 0.07202896
vn -0.08307441 -0.99172520 -0.09787612
vn 0.42006280 -0.90569630 0.05710986
vn 0.71196290 -0.70059370 0.04772176
vn 0.11691880 -0.98863120 -0.09454285
vn 0.70948410 -0.70373690 0.03723992
vn 0.90606640 -0.42290890 0.01385003
vn 0.11056240 -0.96973100 -0.21771030
vn -0.07328986 -0.97602320 -0.20495700
vn 0.37672260 -0.89465150 -0.24016410
vn 0.39539840 -0.91136500 -0.11434140
vn 0.66947020 -0.66684320 -0.32730690
vn 0.91449980 -0.40374350 -0.02609991
vn 0.99358610 -0.11215580 -0.01441478
vn 0.70418510 -0.69260780 -0.15626160
vn 0.90404830 -0.37849620 -0.19858850
vn 0.84523500 -0.37923010 -0.37651360
vn 0.99070380 -0.09643825 -0.09594657
vn 0.97345260 -0.08740082 -0.21154430
vn 0.92162600 -0.12069700 -0.36883300
vn 0.93775490 0.12225660 -0.32506760
vn 0.96708210 0.15432060 -0.20232980
vn 0.97905670 0.13473740 -0.15262260
vn 0.99103720 0.13041160 -0.02894993
vn 0.13016140 -0.99089550 -0.03441361
vn 0.19493700 -0.97856470 0.06641269
vn 0.06684384 -0.99775250 0.00468396
vn 0.23587780 -0.97153480 -0.02194596
vn 0.12916350 -0.99161480 -0.00411826
vn 0.47296290 -0.88082800 -0.02117212
vn 0.44534390 -0.89245770 0.07202896
vn 0.27285050 -0.96191450 -0.01652610
vn 0.09200618 -0.97320220 0.21074210
vn 0.27903760 -0.94579560 0.16615900
vn 0.49924800 -0.85332270 0.15030570
vn 0.51268060 -0.85846160 0.01421932
vn 0.75192270 -0.64418720 0.14012510
vn 0.76585730 -0.64169050 0.04118170
vn 0.91525470 -0.38854200 0.10650800
vn 0.74035850 -0.67211570 -0.01138115
vn 0.71196290 -0.70059370 0.04772176
vn 0.94051160 -0.33598310 0.05053007
vn 0.99704410 -0.07386532 0.02113970
vn 0.92208460 -0.38624560 0.02396712
vn 0.90606640 -0.42290890 0.01385003
vn 0.99847700 -0.01503789 0.05307982
vn 0.98505300 0.16539710 -0.04810917
vn 0.98029570 0.18562090 0.06756746
vn 0.99421280 -0.07032175 0.08121422
vn 0.99358610 -0.11215580 -0.01441478
vn 0.97793490 0.14055000 0.15456100
vn 0.99103720 0.13041160 -0.02894993
vn 0.00606489 -0.86632410 0.49944540
vn 0.09200618 -0.97320220 0.21074210
vn -0.16260500 -0.94590810 0.28074430
vn -0.21850720 -0.82636400 0.51901560
vn -0.33333530 -0.60889060 0.71981930
vn -0.08829843 -0.67091130 0.73626190
vn -0.41370750 -0.75198540 0.51319000
vn -0.43963300 -0.81029650 0.38748200
vn -0.61154070 -0.60351130 0.51165620
vn -0.52007100 -0.55858220 0.64615180
vn -0.41553130 -0.36056920 0.83505900
vn -0.14948340 -0.41805740 0.89603730
vn -0.58231920 -0.33465110 0.74088670
vn -0.71117030 -0.35690160 0.60568810
vn -0.75092430 -0.13680040 0.64606370
vn -0.43560130 -0.11013810 0.89337620
vn -0.17656180 -0.11337310 0.97773850
vn -0.17412470 0.15744160 0.97205600
vn -0.40256330 0.09747650 0.91018750
vn -0.60644450 -0.12885730 0.78461510
vn -0.60449190 0.04721642 0.79521070
vn -0.77057470 0.05126436 0.63528460
vn 0.97793490 0.14055000 0.15456100
vn 0.93574700 0.35085800 -0.03572572
vn 0.99103720 0.13041160 -0.02894993
vn 0.90699790 0.37913160 0.18334080
vn 0.76100020 0.64872910 0.00541283
vn 0.92182310 0.36793920 0.12191330
vn 0.98029570 0.18562090 0.06756746
vn 0.74702550 0.62817940 0.21758590
vn 0.37585130 0.92121340 0.10050720
vn 0.92638270 0.37064280 -0.06662676
vn 0.98505300 0.16539710 -0.04810917
vn 0.72316330 0.69013660 0.02731892
vn 0.73259120 0.64518730 0.21689540
vn 0.36988020 0.86581160 0.33698490
vn 0.34928470 0.91380380 0.20727490
vn 0.01954198 0.94600720 0.32355600
vn -0.01811997 0.91236710 0.40897160
vn -0.07178470 0.90627880 0.41654020
vn 0.37196280 0.86653020 0.33281970
vn -0.11928980 0.97136440 0.20547800
vn 0.87659770 0.17476270 0.44836850
vn 0.92638270 0.37064280 -0.06662676
vn 0.98505300 0.16539710 -0.04810917
vn 0.80524340 0.46363280 0.36963180
vn 0.25359480 0.18179670 0.95007350
vn 0.72316330 0.69013660 0.02731892
vn 0.19348170 0.45425300 0.86960860
vn -0.17412470 0.15744160 0.97205600
vn -0.14037040 0.38950700 0.91026390
vn -0.05387791 0.73523150 0.67567150
vn 0.65688000 0.71355180 0.24362350
vn 0.21592860 0.78886560 0.57538320
vn 0.01954198 0.94600720 0.32355600
vn 0.34928470 0.91380380 0.20727490
vn 0.87659770 0.17476270 0.44836850
vn 0.98505300 0.16539710 -0.04810917
vn 0.99704410 -0.07386532 0.02113970
vn 0.86455730 -0.17934320 0.46944300
vn 0.25359480 0.18179670 0.95007350
vn 0.91525470 -0.38854200 0.10650800
vn 0.27266480 -0.16493870 0.94786560
vn -0.17412470 0.15744160 0.97205600
vn -0.17656180 -0.11337310 0.97773850
vn 0.73940520 -0.50484130 0.44543830
vn 0.75192270 -0.64418720 0.14012510
vn 0.24465770 -0.49637860 0.83291720
vn -0.14948340 -0.41805740 0.89603730
vn 0.56612300 -0.71559190 0.40918570
vn 0.49924800 -0.85332270 0.15030570
vn 0.20169640 -0.71320490 0.67131010
vn -0.08829843 -0.67091130 0.73626190
vn 0.20521200 -0.86965780 0.44898050
vn 0.00606489 -0.86632410 0.49944540
vn 0.09200618 -0.97320220 0.21074210
vn 0.27903760 -0.94579560 0.16615900
vn 0.43870000 -0.83493510 0.33230370
vn -0.53182260 0.80599750 0.25987100
vn -0.15192360 0.98802490 -0.02694737
vn -0.11928980 0.97136440 0.20547800
vn -0.58440390 0.81117970 0.02143536
vn -0.77258500 0.57783160 0.26310270
vn -0.60876340 0.77961000 -0.14702160
vn -0.18190040 0.97207210 -0.14828410
vn -0.82454340 0.56579680 0.00143989
vn -0.90286460 0.34168300 0.26093720
vn -0.56691870 0.73984480 -0.36226090
vn -0.21162250 0.93944330 -0.26955930
vn -0.73711710 0.50595720 -0.44795730
vn -0.82686010 0.53114820 -0.18488940
vn -0.93921670 0.34010290 -0.04692730
vn -0.96347620 0.03108113 0.26598410
vn -0.99727000 0.02442355 -0.06968422
vn -0.92496820 0.28311430 -0.25353510
vn -0.81976290 0.24027640 -0.51986140
vn -0.94839260 -0.00651303 -0.31703180
vn -0.83739880 -0.03864564 -0.54522450
vn 0.86242290 0.08247064 -0.49942510
vn 0.92162600 -0.12069700 -0.36883300
vn 0.93775490 0.12225660 -0.32506760
vn 0.83323400 -0.17752630 -0.52364630
vn 0.64444010 -0.23801070 -0.72666910
vn 0.67408260 0.07076133 -0.73525890
vn 0.74076150 -0.42443950 -0.52069520
vn 0.84523500 -0.37923010 -0.37651360
vn 0.19224690 -0.26967120 -0.94356690
vn 0.22363850 0.06427797 -0.97255030
vn 0.13403550 -0.57670460 -0.80588230
vn 0.53273570 -0.51894380 -0.66849830
vn 0.34880170 -0.75099030 -0.56067010
vn 0.05931397 -0.79772080 -0.60010270
vn -0.01732097 -0.92494860 -0.37969730
vn 0.58103390 -0.66677220 -0.46670590
vn 0.66947020 -0.66684320 -0.32730690
vn 0.37672260 -0.89465150 -0.24016410
vn 0.35533630 -0.86352070 -0.35786600
vn 0.11056240 -0.96973100 -0.21771030
vn 0.15704740 -0.91362170 -0.37500900
vn -0.07328986 -0.97602320 -0.20495700
vn -0.91586450 -0.30552180 0.26047780
vn -0.99727000 0.02442355 -0.06968422
vn -0.96347620 0.03108113 0.26598410
vn -0.94379380 -0.32758490 -0.04406250
vn -0.81935910 -0.53365400 0.20943780
vn -0.94839260 -0.00651303 -0.31703180
vn -0.82478460 -0.56490890 -0.02466410
vn -0.65964380 -0.74084970 0.12653840
vn -0.89938720 -0.30613840 -0.31206100
vn -0.83739880 -0.03864564 -0.54522450
vn -0.80872370 -0.28694820 -0.51344590
vn -0.78899370 -0.55473000 -0.26412790
vn -0.72982670 -0.53171590 -0.42968740
vn -0.62410000 -0.77906540 -0.05963432
vn -0.38377220 -0.92339070 0.00828578
vn -0.58159490 -0.78133920 -0.22639900
vn -0.56377950 -0.76603070 -0.30878740
vn -0.35137880 -0.91640540 -0.19166160
vn -0.33832060 -0.92327900 -0.18192000
vn -0.20866800 -0.96133580 -0.17969680
vn -0.34163390 -0.93233770 -0.11845930
vn -0.08758470 -0.99494000 -0.04922498
vn -0.14621480 -0.98371340 -0.10454320
vn 0.06684384 -0.99775250 0.00468396
vn -0.02923007 -0.99933110 -0.02197638
vn -0.08307441 -0.99172520 -0.09787612
vn -0.20569130 -0.96983400 -0.13081760
vn -0.07328986 -0.97602320 -0.20495700
vn -0.20866800 -0.96133580 -0.17969680
vn -0.07328986 -0.97602320 -0.20495700
vn -0.01732097 -0.92494860 -0.37969730
vn -0.16660420 -0.91616230 -0.36454040
vn -0.35137880 -0.91640540 -0.19166160
vn -0.19532770 -0.77512760 -0.60085300
vn 0.05931397 -0.79772080 -0.60010270
vn 0.13403550 -0.57670460 -0.80588230
vn -0.31568220 -0.89171310 -0.32433390
vn -0.56377950 -0.76603070 -0.30878740
vn -0.44352230 -0.74683110 -0.49551130
vn -0.24602810 -0.54813520 -0.79938600
vn 0.19224690 -0.26967120 -0.94356690
vn -0.54990920 -0.52568360 -0.64904270
vn -0.72982670 -0.53171590 -0.42968740
vn -0.26562900 -0.25780110 -0.92896710
vn 0.22363850 0.06427797 -0.97255030
vn -0.23981080 0.03132327 -0.97031420
vn -0.58738980 -0.01861812 -0.80909000
vn -0.59529750 -0.26831680 -0.75738170
vn -0.80872370 -0.28694820 -0.51344590
vn -0.83739880 -0.03864564 -0.54522450
vn -0.77057470 0.05126436 0.63528460
vn -0.75092430 -0.13680040 0.64606370
vn -0.84571830 -0.16298430 0.50813040
vn -0.84587870 0.06394920 0.52952780
vn -0.71117030 -0.35690160 0.60568810
vn -0.87686930 -0.23385390 0.42001490
vn -0.88180470 0.04838009 0.46912680
vn -0.96347620 0.03108113 0.26598410
vn -0.91586450 -0.30552180 0.26047780
vn -0.79984220 -0.40575300 0.44228600
vn -0.61154070 -0.60351130 0.51165620
vn -0.81827270 -0.47254980 0.32730160
vn -0.81935910 -0.53365400 0.20943780
vn -0.66806690 -0.65120350 0.36002880
vn -0.43963300 -0.81029650 0.38748200
vn -0.68328290 -0.69257630 0.23121980
vn -0.65964380 -0.74084970 0.12653840
vn -0.38377220 -0.92339070 0.00828578
vn -0.42643450 -0.89648310 0.12029810
vn -0.08758470 -0.99494000 -0.04922498
vn -0.44271740 -0.85851420 0.25875620
vn -0.16260500 -0.94590810 0.28074430
vn -0.11259110 -0.98771530 0.10835840
vn 0.09200618 -0.97320220 0.21074210
vn 0.12916350 -0.99161480 -0.00411826
vn 0.13016140 -0.99089550 -0.03441361
vn -0.07465724 -0.99718110 0.00750985
vn 0.06684384 -0.99775250 0.00468396
vn -0.76940380 0.28991140 0.56918290
vn -0.64430200 0.61585650 0.45342660
vn -0.53707840 0.55231290 0.63757140
vn -0.31772600 0.86506640 0.38821410
vn -0.59299090 0.26559730 0.76014470
vn -0.77057470 0.05126436 0.63528460
vn -0.60449190 0.04721642 0.79521070
vn -0.27994010 0.68532820 0.67227880
vn 0.01954198 0.94600720 0.32355600
vn -0.05387791 0.73523150 0.67567150
vn -0.33873070 0.32222990 0.88398500
vn -0.40256330 0.09747650 0.91018750
vn -0.14037040 0.38950700 0.91026390
vn -0.17412470 0.15744160 0.97205600
vn 0.80803820 0.36196030 -0.46482140
vn 0.86242290 0.08247064 -0.49942510
vn 0.93775490 0.12225660 -0.32506760
vn 0.87978960 0.37950020 -0.28626890
vn 0.65066670 0.34230870 -0.67783300
vn 0.67408260 0.07076133 -0.73525890
vn 0.22363850 0.06427797 -0.97255030
vn 0.62148220 0.64271830 -0.44796540
vn 0.69200070 0.66703780 -0.27603570
vn 0.46079550 0.60909710 -0.64549860
vn 0.23315890 0.32428050 -0.91677640
vn -0.23981080 0.03132327 -0.97031420
vn 0.25815270 0.83516510 -0.48565060
vn 0.30521610 0.91487770 -0.26427620
vn 0.21780170 0.52246680 -0.82437300
vn -0.20223560 0.28764380 -0.93614200
vn -0.58738980 -0.01861812 -0.80909000
vn 0.06055069 0.71304280 -0.69850090
vn -0.13833360 0.52988830 -0.83670920
vn -0.54196520 0.24788170 -0.80301210
vn -0.83739880 -0.03864564 -0.54522450
vn -0.81976290 0.24027640 -0.51986140
vn -0.45835440 0.49734670 -0.73658510
vn -0.73711710 0.50595720 -0.44795730
vn -0.56691870 0.73984480 -0.36226090
vn -0.34391180 0.68693020 -0.64019660
vn -0.14275870 0.85854060 -0.49247130
vn -0.21162250 0.93944330 -0.26955930
vt 0.53217100 0.62132900
vt 0.52214100 0.68741700
vt 0.57395800 0.69187800
vt 0.58054200 0.62369600
vt 0.54124100 0.54278300
vt 0.62371300 0.69460300
vt 0.58481800 0.54341700
vt 0.53826600 0.46309800
vt 0.62819300 0.62504300
vt 0.58140900 0.46236400
vt 0.52214100 0.40069100
vt 0.56992500 0.39367700
vt 0.67867200 0.64141900
vt 0.67778400 0.68667400
vt 0.68063100 0.54548500
vt 0.63103300 0.54409700
vt 0.62775300 0.46278100
vt 0.61859800 0.38897400
vt 0.67764300 0.46364100
vt 0.66989800 0.38754100
vt 0.84513600 0.31066200
vt 0.77979300 0.37451700
vt 0.85228100 0.36346600
vt 0.77782000 0.32110100
vt 0.83388200 0.25608800
vt 0.70438700 0.37871700
vt 0.77584000 0.26799500
vt 0.82102800 0.19869600
vt 0.76968800 0.21326900
vt 0.70636600 0.32490400
vt 0.63147500 0.37854100
vt 0.71122000 0.27045700
vt 0.71882700 0.22131000
vt 0.63780900 0.32122500
vt 0.64578200 0.26362900
vt 0.65785600 0.20696500
vt 0.60047400 0.19362500
vt 0.58876100 0.25403800
vt 0.57899500 0.31419300
vt 0.56940000 0.37451700
vt 0.81840500 0.93994000
vt 0.76464600 0.98407500
vt 0.81705000 0.99000000
vt 0.76649800 0.93612500
vt 0.81992000 0.89161900
vt 0.71504900 0.97733100
vt 0.76829500 0.89026700
vt 0.82034600 0.84526800
vt 0.71892800 0.93335200
vt 0.76907600 0.84556200
vt 0.81948500 0.80079000
vt 0.67410900 0.93084200
vt 0.66825600 0.97001800
vt 0.67953500 0.89180800
vt 0.72137700 0.88991000
vt 0.67459200 0.85162800
vt 0.76846800 0.80196000
vt 0.81901400 0.75535900
vt 0.72191000 0.84565700
vt 0.71961100 0.80358300
vt 0.66956100 0.80773400
vt 0.76659800 0.75700400
vt 0.71728000 0.75911100
vt 0.66536400 0.76312800
vt 0.66222200 0.71143500
vt 0.71410200 0.70572400
vt 0.76464600 0.70205500
vt 0.81820500 0.69082100
vt 0.37872000 0.88725100
vt 0.41766300 0.81871600
vt 0.36926700 0.83150400
vt 0.42533100 0.87539100
vt 0.38772300 0.94054600
vt 0.47218500 0.86459600
vt 0.46391500 0.80777000
vt 0.43294200 0.93021000
vt 0.39794100 0.99000000
vt 0.43787100 0.98248300
vt 0.47345200 0.97905700
vt 0.47794100 0.92176300
vt 0.51727200 0.97971100
vt 0.51855100 0.91924800
vt 0.55616800 0.98425900
vt 0.51538500 0.85670100
vt 0.50775300 0.79928400
vt 0.55838700 0.91815800
vt 0.59702700 0.98810100
vt 0.55529900 0.85388100
vt 0.55042400 0.79369600
vt 0.59843900 0.91994600
vt 0.64430800 0.99000000
vt 0.64661800 0.92169700
vt 0.59812500 0.85259000
vt 0.59545500 0.79191200
vt 0.64935000 0.85486200
vt 0.65975500 0.79451900
vt 0.62899600 0.17345700
vt 0.67433400 0.15567000
vt 0.65712600 0.11774600
vt 0.62084900 0.13709700
vt 0.58006400 0.14668300
vt 0.58355400 0.19037200
vt 0.61224300 0.10945400
vt 0.63386600 0.08359400
vt 0.59774100 0.06240200
vt 0.58239200 0.10245800
vt 0.53864600 0.15048100
vt 0.54036000 0.20195700
vt 0.54256700 0.09949500
vt 0.55477600 0.04729300
vt 0.50985100 0.03909700
vt 0.49628000 0.15165100
vt 0.49697300 0.20913800
vt 0.44710800 0.20980200
vt 0.44710800 0.15083300
vt 0.50017400 0.09642500
vt 0.45054800 0.09280800
vt 0.45927400 0.03395100
vt 0.30329900 0.47292600
vt 0.25909300 0.54074400
vt 0.30389800 0.53430200
vt 0.23842100 0.48300700
vt 0.16347100 0.54291200
vt 0.23240000 0.42039700
vt 0.28906000 0.40827300
vt 0.16882500 0.48808600
vt 0.08285800 0.53119000
vt 0.22347600 0.35385800
vt 0.27818600 0.34091600
vt 0.16854600 0.37065300
vt 0.16882800 0.42514600
vt 0.10976800 0.42285200
vt 0.12182500 0.36405900
vt 0.07267700 0.35385800
vt 0.05379800 0.40951900
vt 0.02995600 0.46109900
vt 0.09650500 0.47871900
vt 0.01000000 0.51054400
vt 0.93663000 0.16740600
vt 0.84271200 0.18030900
vt 0.88708400 0.21899600
vt 0.88326900 0.13887400
vt 0.96445700 0.10158200
vt 0.80101700 0.13512800
vt 0.90669200 0.08728200
vt 0.97203700 0.03649200
vt 0.91293200 0.03063600
vt 0.84185900 0.02995900
vt 0.84729900 0.11812000
vt 0.84525800 0.07726400
vt 0.78053900 0.03649200
vt 0.78759600 0.08677300
vt 0.74958200 0.39721000
vt 0.68235200 0.40972600
vt 0.68728300 0.45749300
vt 0.75396900 0.44553600
vt 0.82116000 0.39721000
vt 0.69549400 0.50117500
vt 0.82089900 0.44648000
vt 0.88820800 0.41011300
vt 0.88219900 0.46259100
vt 0.75821300 0.48607400
vt 0.70868600 0.53997100
vt 0.81710900 0.48786100
vt 0.86882000 0.50688200
vt 0.76607300 0.52540500
vt 0.73297800 0.57710500
vt 0.80956200 0.52812000
vt 0.84823200 0.54749900
vt 0.79539300 0.56722100
vt 0.82242300 0.58809900
vt 0.79236000 0.62647000
vt 0.75892300 0.60248400
vt 0.76263600 0.55260700
vt 0.51059400 0.23398500
vt 0.56410300 0.30083100
vt 0.58140900 0.25309400
vt 0.49567700 0.28297400
vt 0.43611600 0.21737200
vt 0.48178200 0.33306800
vt 0.54503400 0.34627800
vt 0.42462200 0.26992700
vt 0.36306500 0.20723200
vt 0.47495100 0.38780600
vt 0.52536300 0.39121800
vt 0.41639500 0.39083500
vt 0.41821100 0.32864600
vt 0.35688700 0.26414700
vt 0.30037500 0.20360500
vt 0.29541700 0.26257500
vt 0.35385800 0.32714300
vt 0.35620200 0.39888600
vt 0.29696800 0.32986900
vt 0.30037500 0.40224600
vt 0.43747200 0.13662300
vt 0.38234800 0.18849100
vt 0.43395700 0.19254200
vt 0.38895000 0.13223300
vt 0.39032400 0.07395400
vt 0.43926700 0.07597900
vt 0.34728500 0.13001300
vt 0.33791200 0.18233400
vt 0.38274100 0.01339500
vt 0.43395700 0.01000000
vt 0.33888800 0.02376000
vt 0.34852900 0.07646100
vt 0.30829800 0.08220200
vt 0.29570100 0.03984600
vt 0.25526100 0.06004100
vt 0.30851900 0.12645900
vt 0.29694300 0.16904200
vt 0.26219200 0.15006200
vt 0.28106600 0.12186500
vt 0.23767600 0.11934600
vt 0.26949400 0.09505500
vt 0.21558000 0.08602900
vt 0.29123400 0.54883300
vt 0.34370600 0.60973500
vt 0.34505600 0.55053100
vt 0.29268300 0.60743400
vt 0.24177700 0.55249000
vt 0.33602500 0.67703900
vt 0.24572700 0.60854200
vt 0.18957000 0.56004400
vt 0.28847500 0.67173000
vt 0.32427900 0.74849300
vt 0.27793200 0.74095200
vt 0.24524900 0.66885300
vt 0.23798400 0.73292300
vt 0.19766000 0.61366700
vt 0.13826700 0.57178600
vt 0.20171500 0.66986800
vt 0.19749900 0.72721500
vt 0.15813700 0.72736500
vt 0.15567900 0.67656500
vt 0.11797100 0.73698500
vt 0.14810200 0.62512900
vt 0.08879800 0.58734400
vt 0.09966000 0.64005700
vt 0.04193500 0.60389300
vt 0.05308600 0.65538100
vt 0.06416400 0.70314100
vt 0.10935700 0.68899300
vt 0.07681700 0.74849300
vt 0.10955300 0.33663900
vt 0.14655000 0.35928700
vt 0.17267600 0.31972000
vt 0.13805400 0.30112500
vt 0.07551600 0.31158500
vt 0.15383800 0.26462800
vt 0.19846400 0.28222700
vt 0.22204500 0.24191200
vt 0.10472400 0.28944800
vt 0.05096200 0.27996200
vt 0.10277500 0.26146000
vt 0.16504400 0.22676600
vt 0.23981100 0.19995000
vt 0.09982200 0.22627500
vt 0.03379000 0.24185000
vt 0.17293800 0.18699100
vt 0.25221900 0.15082300
vt 0.18001200 0.14084600
vt 0.09739700 0.14084600
vt 0.09830200 0.18734600
vt 0.02458600 0.20080300
vt 0.01798400 0.15275400
vt 0.33727000 0.44758900
vt 0.34338600 0.49698800
vt 0.40354800 0.48960700
vt 0.39876500 0.44099100
vt 0.35115700 0.54081900
vt 0.46335500 0.48491200
vt 0.45983600 0.43364200
vt 0.52073800 0.42882900
vt 0.52073800 0.48210700
vt 0.40763900 0.53438400
vt 0.36053000 0.58489900
vt 0.46501400 0.53197200
vt 0.52095700 0.53154500
vt 0.41031000 0.58059900
vt 0.36684500 0.62656200
vt 0.46510300 0.58119700
vt 0.51994900 0.58440100
vt 0.51701200 0.63703900
vt 0.46216500 0.63164100
vt 0.51229500 0.68893900
vt 0.41040900 0.62785700
vt 0.35926400 0.66720600
vt 0.40541000 0.67400200
vt 0.34924200 0.70714300
vt 0.39856900 0.71848500
vt 0.45204400 0.72928500
vt 0.45762400 0.68032600
vt 0.50770800 0.73851300
vt 0.82488700 0.68212800
vt 0.85703000 0.73908200
vt 0.88578300 0.70684700
vt 0.90282800 0.76745200
vt 0.87501500 0.66471800
vt 0.80672500 0.62399400
vt 0.86434200 0.60517000
vt 0.92516300 0.72078900
vt 0.95500100 0.78442000
vt 0.97420300 0.72436700
vt 0.92716100 0.65574300
vt 0.92283600 0.59675100
vt 0.98201600 0.65445300
vt 0.98201600 0.59544000
vt 0.29547400 0.81741000
vt 0.34416100 0.85901800
vt 0.37148400 0.80668400
vt 0.31213500 0.77023600
vt 0.26988700 0.86230600
vt 0.30540000 0.91211600
vt 0.25004700 0.95802400
vt 0.22779600 0.78255500
vt 0.23465700 0.74260400
vt 0.21541200 0.82468800
vt 0.22747000 0.90214800
vt 0.17537600 0.98360200
vt 0.15680800 0.78491200
vt 0.15155100 0.74260400
vt 0.20752400 0.86222800
vt 0.16476000 0.92897500
vt 0.09136800 0.99000000
vt 0.15616000 0.82201300
vt 0.15255900 0.86996600
vt 0.08903600 0.93465000
vt 0.01000000 0.98342600
vt 0.01114200 0.92448500
vt 0.08881000 0.87737300
vt 0.02254000 0.86035200
vt 0.05181400 0.80566300
vt 0.09469600 0.83007700
vt 0.10741900 0.79272100
vt 0.08934400 0.76939800
f 3/3/3 2/2/2 1/1/1
f 4/4/4 3/3/3 1/1/1
f 1/1/1 5/5/5 4/4/4
f 3/3/3 4/4/4 6/6/6
f 5/5/5 7/7/7 4/4/4
f 7/7/7 5/5/5 8/8/8
f 4/4/4 9/9/9 6/6/6
f 9/9/9 4/4/4 7/7/7
f 10/10/10 7/7/7 8/8/8
f 8/8/8 11/11/11 10/10/10
f 11/11/11 12/12/12 10/10/10
f 6/6/6 9/9/9 13/13/13
f 14/14/14 6/6/6 13/13/13
f 13/13/13 9/9/9 15/15/15
f 16/16/16 9/9/9 7/7/7
f 7/7/7 10/10/10 16/16/16
f 9/9/9 16/16/16 15/15/15
f 17/17/17 10/10/10 12/12/12
f 10/10/10 17/17/17 16/16/16
f 15/15/15 16/16/16 17/17/17
f 18/18/18 17/17/17 12/12/12
f 19/19/19 15/15/15 17/17/17
f 17/17/17 18/18/18 19/19/19
f 18/18/18 20/20/20 19/19/19
f 23/23/23 22/22/22 21/21/21
f 22/22/22 24/24/24 21/21/21
f 21/21/21 24/24/24 25/25/25
f 22/22/22 26/26/26 24/24/24
f 24/24/24 27/27/27 25/25/25
f 28/28/28 25/25/25 27/27/27
f 29/29/29 28/28/28 27/27/27
f 26/26/26 30/30/30 24/24/24
f 24/24/24 30/30/30 27/27/27
f 26/26/26 31/31/31 30/30/30
f 27/27/27 32/32/32 29/29/29
f 30/30/30 32/32/32 27/27/27
f 32/32/32 33/33/33 29/29/29
f 31/31/31 34/34/34 30/30/30
f 30/30/30 34/34/34 32/32/32
f 33/33/33 32/32/32 35/35/35
f 34/34/34 35/35/35 32/32/32
f 36/36/36 33/33/33 35/35/35
f 36/36/36 35/35/35 37/37/37
f 35/35/35 38/38/38 37/37/37
f 38/38/38 35/35/35 39/39/39
f 35/35/35 34/34/34 39/39/39
f 34/34/34 31/31/31 39/39/39
f 31/31/31 40/40/40 39/39/39
f 43/43/43 42/42/42 41/41/41
f 42/42/42 44/44/44 41/41/41
f 41/41/41 44/44/44 45/45/45
f 42/42/42 46/46/46 44/44/44
f 44/44/44 47/47/47 45/45/45
f 45/45/45 47/47/47 48/48/48
f 46/46/46 49/49/49 44/44/44
f 44/44/44 49/49/49 47/47/47
f 47/47/47 50/50/50 48/48/48
f 48/48/48 50/50/50 51/51/51
f 52/52/52 49/49/49 46/46/46
f 53/53/53 52/52/52 46/46/46
f 49/49/49 52/52/52 54/54/54
f 49/49/49 55/55/55 47/47/47
f 55/55/55 49/49/49 54/54/54
f 47/47/47 55/55/55 50/50/50
f 54/54/54 56/56/56 55/55/55
f 50/50/50 57/57/57 51/51/51
f 51/51/51 57/57/57 58/58/58
f 55/55/55 59/59/59 50/50/50
f 56/56/56 59/59/59 55/55/55
f 50/50/50 59/59/59 57/57/57
f 59/59/59 56/56/56 60/60/60
f 59/59/59 60/60/60 57/57/57
f 56/56/56 61/61/61 60/60/60
f 57/57/57 62/62/62 58/58/58
f 57/57/57 60/60/60 62/62/62
f 60/60/60 61/61/61 63/63/63
f 60/60/60 63/63/63 62/62/62
f 61/61/61 64/64/64 63/63/63
f 63/63/63 64/64/64 65/65/65
f 66/66/66 63/63/63 65/65/65
f 62/62/62 63/63/63 66/66/66
f 67/67/67 62/62/62 66/66/66
f 58/58/58 62/62/62 67/67/67
f 68/68/68 58/58/58 67/67/67
f 71/71/71 70/70/70 69/69/69
f 70/70/70 72/72/72 69/69/69
f 73/73/73 69/69/69 72/72/72
f 72/72/72 70/70/70 74/74/74
f 70/70/70 75/75/75 74/74/74
f 76/76/76 73/73/73 72/72/72
f 72/72/72 74/74/74 76/76/76
f 73/73/73 76/76/76 77/77/77
f 76/76/76 78/78/78 77/77/77
f 78/78/78 76/76/76 79/79/79
f 76/76/76 80/80/80 79/79/79
f 74/74/74 80/80/80 76/76/76
f 79/79/79 80/80/80 81/81/81
f 80/80/80 82/82/82 81/81/81
f 82/82/82 80/80/80 74/74/74
f 81/81/81 82/82/82 83/83/83
f 74/74/74 75/75/75 84/84/84
f 84/84/84 82/82/82 74/74/74
f 75/75/75 85/85/85 84/84/84
f 82/82/82 86/86/86 83/83/83
f 82/82/82 84/84/84 86/86/86
f 83/83/83 86/86/86 87/87/87
f 84/84/84 85/85/85 88/88/88
f 84/84/84 88/88/88 86/86/86
f 85/85/85 89/89/89 88/88/88
f 86/86/86 90/90/90 87/87/87
f 86/86/86 88/88/88 90/90/90
f 87/87/87 90/90/90 91/91/91
f 90/90/90 92/92/92 91/91/91
f 88/88/88 89/89/89 93/93/93
f 88/88/88 93/93/93 90/90/90
f 90/90/90 93/93/93 92/92/92
f 89/89/89 94/94/94 93/93/93
f 93/93/93 95/95/95 92/92/92
f 93/93/93 94/94/94 95/95/95
f 94/94/94 96/96/96 95/95/95
f 99/99/99 98/98/98 97/97/97
f 100/100/100 99/99/99 97/97/97
f 101/101/101 100/100/100 97/97/97
f 102/102/102 101/101/101 97/97/97
f 99/99/99 100/100/100 103/103/103
f 104/104/104 99/99/99 103/103/103
f 105/105/105 104/104/104 103/103/103
f 103/103/103 100/100/100 106/106/106
f 100/100/100 101/101/101 106/106/106
f 106/106/106 105/105/105 103/103/103
f 107/107/107 101/101/101 102/102/102
f 106/106/106 101/101/101 107/107/107
f 108/108/108 107/107/107 102/102/102
f 105/105/105 106/106/106 109/109/109
f 109/109/109 106/106/106 107/107/107
f 110/110/110 105/105/105 109/109/109
f 111/111/111 110/110/110 109/109/109
f 112/112/112 107/107/107 108/108/108
f 113/113/113 112/112/112 108/108/108
f 112/112/112 113/113/113 114/114/114
f 115/115/115 112/112/112 114/114/114
f 109/109/109 107/107/107 116/116/116
f 107/107/107 112/112/112 116/116/116
f 116/116/116 112/112/112 115/115/115
f 116/116/116 111/111/111 109/109/109
f 117/117/117 116/116/116 115/115/115
f 111/111/111 116/116/116 117/117/117
f 118/118/118 111/111/111 117/117/117
f 121/121/121 120/120/120 119/119/119
f 120/120/120 122/122/122 119/119/119
f 122/122/122 120/120/120 123/123/123
f 119/119/119 122/122/122 124/124/124
f 125/125/125 119/119/119 124/124/124
f 126/126/126 122/122/122 123/123/123
f 123/123/123 127/127/127 126/126/126
f 125/125/125 124/124/124 128/128/128
f 129/129/129 125/125/125 128/128/128
f 128/128/128 124/124/124 130/130/130
f 124/124/124 122/122/122 131/131/131
f 124/124/124 131/131/131 130/130/130
f 122/122/122 126/126/126 131/131/131
f 130/130/130 131/131/131 132/132/132
f 131/131/131 126/126/126 132/132/132
f 133/133/133 130/130/130 132/132/132
f 133/133/133 132/132/132 134/134/134
f 132/132/132 135/135/135 134/134/134
f 135/135/135 132/132/132 136/136/136
f 127/127/127 137/137/137 126/126/126
f 126/126/126 137/137/137 132/132/132
f 132/132/132 137/137/137 136/136/136
f 137/137/137 127/127/127 138/138/138
f 136/136/136 137/137/137 138/138/138
f 141/141/141 140/140/140 139/139/139
f 140/140/140 142/142/142 139/139/139
f 139/139/139 142/142/142 143/143/143
f 142/142/142 140/140/140 144/144/144
f 142/142/142 145/145/145 143/143/143
f 143/143/143 145/145/145 146/146/146
f 145/145/145 147/147/147 146/146/146
f 147/147/147 145/145/145 148/148/148
f 149/149/149 142/142/142 144/144/144
f 145/145/145 142/142/142 149/149/149
f 145/145/145 150/150/150 148/148/148
f 150/150/150 145/145/145 149/149/149
f 149/149/149 144/144/144 150/150/150
f 151/151/151 148/148/148 150/150/150
f 144/144/144 152/152/152 150/150/150
f 152/152/152 151/151/151 150/150/150
f 155/155/155 154/154/154 153/153/153
f 156/156/156 155/155/155 153/153/153
f 156/156/156 153/153/153 157/157/157
f 158/158/158 155/155/155 156/156/156
f 159/159/159 156/156/156 157/157/157
f 157/157/157 160/160/160 159/159/159
f 160/160/160 161/161/161 159/159/159
f 162/162/162 158/158/158 156/156/156
f 162/162/162 156/156/156 159/159/159
f 163/163/163 158/158/158 162/162/162
f 159/159/159 161/161/161 164/164/164
f 164/164/164 162/162/162 159/159/159
f 161/161/161 165/165/165 164/164/164
f 166/166/166 163/163/163 162/162/162
f 162/162/162 164/164/164 166/166/166
f 167/167/167 163/163/163 166/166/166
f 168/168/168 164/164/164 165/165/165
f 164/164/164 168/168/168 166/166/166
f 169/169/169 168/168/168 165/165/165
f 170/170/170 168/168/168 169/169/169
f 166/166/166 168/168/168 170/170/170
f 171/171/171 170/170/170 169/169/169
f 171/171/171 172/172/172 170/170/170
f 172/172/172 173/173/173 170/170/170
f 174/174/174 167/167/167 166/166/166
f 174/174/174 166/166/166 170/170/170
f 173/173/173 167/167/167 174/174/174
f 170/170/170 173/173/173 174/174/174
f 177/177/177 176/176/176 175/175/175
f 176/176/176 178/178/178 175/175/175
f 175/175/175 178/178/178 179/179/179
f 180/180/180 178/178/178 176/176/176
f 181/181/181 180/180/180 176/176/176
f 178/178/178 182/182/182 179/179/179
f 179/179/179 182/182/182 183/183/183
f 184/184/184 180/180/180 181/181/181
f 185/185/185 184/184/184 181/181/181
f 184/184/184 186/186/186 180/180/180
f 180/180/180 187/187/187 178/178/178
f 187/187/187 182/182/182 178/178/178
f 186/186/186 187/187/187 180/180/180
f 182/182/182 188/188/188 183/183/183
f 182/182/182 187/187/187 188/188/188
f 183/183/183 188/188/188 189/189/189
f 188/188/188 190/190/190 189/189/189
f 187/187/187 186/186/186 191/191/191
f 187/187/187 191/191/191 188/188/188
f 188/188/188 191/191/191 190/190/190
f 186/186/186 192/192/192 191/191/191
f 191/191/191 193/193/193 190/190/190
f 191/191/191 192/192/192 193/193/193
f 192/192/192 194/194/194 193/193/193
f 197/197/197 196/196/196 195/195/195
f 196/196/196 198/198/198 195/195/195
f 198/198/198 199/199/199 195/195/195
f 199/199/199 200/200/200 195/195/195
f 201/201/201 198/198/198 196/196/196
f 202/202/202 201/201/201 196/196/196
f 199/199/199 203/203/203 200/200/200
f 203/203/203 204/204/204 200/200/200
f 205/205/205 203/203/203 199/199/199
f 206/206/206 199/199/199 198/198/198
f 206/206/206 205/205/205 199/199/199
f 201/201/201 206/206/206 198/198/198
f 205/205/205 206/206/206 207/207/207
f 207/207/207 206/206/206 201/201/201
f 208/208/208 205/205/205 207/207/207
f 209/209/209 208/208/208 207/207/207
f 210/210/210 201/201/201 202/202/202
f 210/210/210 207/207/207 201/201/201
f 211/211/211 210/210/210 202/202/202
f 210/210/210 211/211/211 212/212/212
f 213/213/213 210/210/210 212/212/212
f 207/207/207 210/210/210 213/213/213
f 212/212/212 214/214/214 213/213/213
f 215/215/215 209/209/209 207/207/207
f 215/215/215 207/207/207 213/213/213
f 214/214/214 215/215/215 213/213/213
f 216/216/216 209/209/209 215/215/215
f 214/214/214 216/216/216 215/215/215
f 219/219/219 218/218/218 217/217/217
f 218/218/218 220/220/220 217/217/217
f 217/217/217 220/220/220 221/221/221
f 218/218/218 222/222/222 220/220/220
f 220/220/220 223/223/223 221/221/221
f 221/221/221 223/223/223 224/224/224
f 222/222/222 225/225/225 220/220/220
f 220/220/220 225/225/225 223/223/223
f 222/222/222 226/226/226 225/225/225
f 226/226/226 227/227/227 225/225/225
f 225/225/225 227/227/227 228/228/228
f 225/225/225 228/228/228 223/223/223
f 227/227/227 229/229/229 228/228/228
f 223/223/223 230/230/230 224/224/224
f 223/223/223 228/228/228 230/230/230
f 224/224/224 230/230/230 231/231/231
f 228/228/228 229/229/229 232/232/232
f 228/228/228 232/232/232 230/230/230
f 229/229/229 233/233/233 232/232/232
f 232/232/232 233/233/233 234/234/234
f 235/235/235 232/232/232 234/234/234
f 230/230/230 232/232/232 235/235/235
f 235/235/235 234/234/234 236/236/236
f 230/230/230 237/237/237 231/231/231
f 237/237/237 230/230/230 235/235/235
f 231/231/231 237/237/237 238/238/238
f 237/237/237 239/239/239 238/238/238
f 237/237/237 235/235/235 239/239/239
f 238/238/238 239/239/239 240/240/240
f 239/239/239 241/241/241 240/240/240
f 241/241/241 239/239/239 242/242/242
f 243/243/243 235/235/235 236/236/236
f 235/235/235 243/243/243 239/239/239
f 239/239/239 243/243/243 242/242/242
f 243/243/243 236/236/236 244/244/244
f 242/242/242 243/243/243 244/244/244
f 247/247/247 246/246/246 245/245/245
f 248/248/248 247/247/247 245/245/245
f 245/245/245 249/249/249 248/248/248
f 248/248/248 250/250/250 247/247/247
f 250/250/250 251/251/251 247/247/247
f 252/252/252 251/251/251 250/250/250
f 249/249/249 253/253/253 248/248/248
f 249/249/249 254/254/254 253/253/253
f 253/253/253 255/255/255 248/248/248
f 255/255/255 250/250/250 248/248/248
f 254/254/254 255/255/255 253/253/253
f 256/256/256 252/252/252 250/250/250
f 256/256/256 250/250/250 255/255/255
f 252/252/252 256/256/256 257/257/257
f 258/258/258 255/255/255 254/254/254
f 258/258/258 256/256/256 255/255/255
f 259/259/259 258/258/258 254/254/254
f 256/256/256 260/260/260 257/257/257
f 260/260/260 256/256/256 258/258/258
f 257/257/257 260/260/260 261/261/261
f 260/260/260 262/262/262 261/261/261
f 262/262/262 260/260/260 263/263/263
f 264/264/264 258/258/258 259/259/259
f 264/264/264 260/260/260 258/258/258
f 260/260/260 264/264/264 263/263/263
f 265/265/265 264/264/264 259/259/259
f 263/263/263 264/264/264 265/265/265
f 266/266/266 263/263/263 265/265/265
f 269/269/269 268/268/268 267/267/267
f 270/270/270 269/269/269 267/267/267
f 268/268/268 269/269/269 271/271/271
f 272/272/272 269/269/269 270/270/270
f 273/273/273 272/272/272 270/270/270
f 273/273/273 274/274/274 272/272/272
f 274/274/274 275/275/275 272/272/272
f 269/269/269 276/276/276 271/271/271
f 269/269/269 272/272/272 276/276/276
f 271/271/271 276/276/276 277/277/277
f 272/272/272 275/275/275 278/278/278
f 272/272/272 278/278/278 276/276/276
f 275/275/275 279/279/279 278/278/278
f 276/276/276 280/280/280 277/277/277
f 276/276/276 278/278/278 280/280/280
f 277/277/277 280/280/280 281/281/281
f 278/278/278 279/279/279 282/282/282
f 278/278/278 282/282/282 280/280/280
f 279/279/279 283/283/283 282/282/282
f 283/283/283 284/284/284 282/282/282
f 284/284/284 285/285/285 282/282/282
f 280/280/280 282/282/282 285/285/285
f 284/284/284 286/286/286 285/285/285
f 280/280/280 287/287/287 281/281/281
f 287/287/287 280/280/280 285/285/285
f 281/281/281 287/287/287 288/288/288
f 287/287/287 289/289/289 288/288/288
f 287/287/287 285/285/285 289/289/289
f 288/288/288 289/289/289 290/290/290
f 289/289/289 291/291/291 290/290/290
f 292/292/292 291/291/291 289/289/289
f 286/286/286 293/293/293 285/285/285
f 285/285/285 293/293/293 289/289/289
f 293/293/293 292/292/292 289/289/289
f 293/293/293 286/286/286 294/294/294
f 292/292/292 293/293/293 294/294/294
f 297/297/297 296/296/296 295/295/295
f 298/298/298 296/296/296 297/297/297
f 299/299/299 297/297/297 295/295/295
f 299/299/299 295/295/295 300/300/300
f 301/301/301 299/299/299 300/300/300
f 302/302/302 298/298/298 297/297/297
f 297/297/297 299/299/299 302/302/302
f 303/303/303 298/298/298 302/302/302
f 304/304/304 303/303/303 302/302/302
f 299/299/299 301/301/301 305/305/305
f 299/299/299 305/305/305 302/302/302
f 304/304/304 302/302/302 305/305/305
f 301/301/301 306/306/306 305/305/305
f 307/307/307 304/304/304 305/305/305
f 305/305/305 306/306/306 308/308/308
f 307/307/307 305/305/305 308/308/308
f 311/311/311 310/310/310 309/309/309
f 312/312/312 311/311/311 309/309/309
f 309/309/309 310/310/310 313/313/313
f 310/310/310 314/314/314 313/313/313
f 314/314/314 315/315/315 313/313/313
f 312/312/312 309/309/309 316/316/316
f 317/317/317 312/312/312 316/316/316
f 309/309/309 313/313/313 318/318/318
f 316/316/316 309/309/309 318/318/318
f 315/315/315 319/319/319 313/313/313
f 315/315/315 320/320/320 319/319/319
f 316/316/316 321/321/321 317/317/317
f 321/321/321 322/322/322 317/317/317
f 313/313/313 319/319/319 323/323/323
f 318/318/318 313/313/313 323/323/323
f 320/320/320 324/324/324 319/319/319
f 319/319/319 324/324/324 323/323/323
f 324/324/324 320/320/320 325/325/325
f 316/316/316 318/318/318 326/326/326
f 321/321/321 316/316/316 326/326/326
f 323/323/323 327/327/327 318/318/318
f 324/324/324 327/327/327 323/323/323
f 327/327/327 326/326/326 318/318/318
f 328/328/328 324/324/324 325/325/325
f 324/324/324 328/328/328 327/327/327
f 328/328/328 325/325/325 329/329/329
f 330/330/330 328/328/328 329/329/329
f 328/328/328 331/331/331 327/327/327
f 331/331/331 328/328/328 330/330/330
f 327/327/327 331/331/331 326/326/326
f 332/332/332 331/331/331 330/330/330
f 331/331/331 332/332/332 333/333/333
f 331/331/331 334/334/334 326/326/326
f 326/326/326 334/334/334 321/321/321
f 334/334/334 331/331/331 333/333/333
f 334/334/334 335/335/335 321/321/321
f 335/335/335 334/334/334 333/333/333
f 321/321/321 335/335/335 322/322/322
f 336/336/336 335/335/335 333/333/333
f 335/335/335 336/336/336 322/322/322

