mtllib material.mtl
usemtl material_0
v 0.00005302 0.00000231 -0.00000075
v 0.00005365 0.00000204 -0.00000017
v 0.00005300 0.00000276 -0.00000012
v 0.00005367 0.00000172 -0.00000064
v 0.00005367 0.00000193 -0.00000013
v 0.00005376 0.00000110 0.00000012
v 0.00005378 0.00000041 -0.00000076
v 0.00005377 -0.00000028 0.00000015
v 0.00005377 -0.00000097 -0.00000073
v 0.00005366 -0.00000160 0.00000003
v 0.00005365 -0.00000192 -0.00000044
v 0.00005301 -0.00000231 0.00000015
v 0.00005300 -0.00000276 -0.00000048
v 0.00000036 -0.00000137 0.00000023
v 0.00000053 -0.00000309 0.00000042
v 0.00000036 -0.00000319 0.00000017
v 0.00000051 -0.00000126 0.00000061
v 0.00000052 0.00000073 0.00000056
v 0.00000036 0.00000065 0.00000022
v 0.00000036 0.00000183 0.00000007
v 0.00000054 0.00000189 0.00000020
v 0.00000036 0.00000199 0.00000004
v 0.00000054 0.00000205 0.00000015
v 0.00000036 -0.00000236 -0.00000030
v 0.00000053 -0.00000225 -0.00000060
v 0.00000053 -0.00000026 -0.00000066
v 0.00000036 -0.00000034 -0.00000031
v -0.00004881 0.00000189 0.00000062
v -0.00005411 0.00000183 0.00000070
v -0.00005457 0.00000134 0.00000053
v -0.00004896 0.00000124 0.00000038
v -0.00004299 0.00000175 0.00000051
v -0.00005547 -0.00000007 0.00000052
v -0.00004299 0.00000097 0.00000027
v -0.00003407 0.00000206 0.00000035
v -0.00004907 -0.00000070 0.00000034
v -0.00005516 -0.00000146 0.00000051
v -0.00003407 0.00000125 0.00000010
v -0.00002845 0.00000221 0.00000024
v -0.00004299 -0.00000142 0.00000023
v -0.00004867 -0.00000260 0.00000034
v -0.00005424 -0.00000273 0.00000060
v -0.00004854 -0.00000434 0.00000047
v -0.00004299 -0.00000376 0.00000023
v -0.00004299 -0.00000573 0.00000037
v -0.00002845 0.00000140 -0.00000000
v -0.00001587 0.00000217 0.00000019
v -0.00003407 -0.00000189 0.00000006
v -0.00003407 -0.00000531 0.00000007
v -0.00003407 -0.00000759 0.00000020
v -0.00001587 0.00000158 -0.00000006
v -0.00000423 0.00000202 0.00000009
v -0.00002845 -0.00000174 -0.00000004
v -0.00002845 -0.00000517 -0.00000004
v -0.00002845 -0.00000745 0.00000010
v -0.00001587 -0.00000126 -0.00000009
v -0.00001587 -0.00000437 -0.00000009
v -0.00001588 -0.00000643 0.00000005
v -0.00000423 0.00000164 -0.00000016
v -0.00000423 -0.00000044 -0.00000020
v -0.00000423 -0.00000268 -0.00000019
v -0.00000424 -0.00000408 -0.00000006
v -0.00000041 -0.00000373 -0.00000012
v -0.00000041 0.00000157 -0.00000024
v -0.00000041 0.00000200 0.00000005
v -0.00000041 -0.00000035 -0.00000029
v -0.00000041 -0.00000242 -0.00000028
v 0.00000036 -0.00000367 -0.00000013
v 0.00000036 0.00000155 -0.00000025
v 0.00000036 0.00000199 0.00000004
v 0.00000054 0.00000205 0.00000015
v 0.00000036 -0.00000034 -0.00000031
v 0.00000036 -0.00000236 -0.00000030
v 0.00000053 -0.00000225 -0.00000060
v 0.00000055 -0.00000357 -0.00000019
v 0.00000053 -0.00000026 -0.00000066
v 0.00000089 -0.00000353 -0.00000019
v 0.00000054 0.00000157 -0.00000046
v 0.00000088 0.00000206 0.00000015
v 0.00000088 0.00000158 -0.00000047
v 0.00000772 0.00000215 0.00000017
v 0.00000087 -0.00000024 -0.00000067
v 0.00000087 -0.00000222 -0.00000061
v 0.00000772 -0.00000270 -0.00000022
v 0.00000772 0.00000173 -0.00000057
v 0.00001853 0.00000281 0.00000011
v 0.00000772 0.00000016 -0.00000095
v 0.00001854 0.00000233 -0.00000065
v 0.00002430 0.00000333 0.00000014
v 0.00000772 -0.00000156 -0.00000082
v 0.00002431 0.00000275 -0.00000076
v 0.00002948 0.00000394 0.00000011
v 0.00001854 0.00000050 -0.00000110
v 0.00001854 -0.00000150 -0.00000094
v 0.00001854 -0.00000283 -0.00000029
v 0.00002951 0.00000326 -0.00000085
v 0.00003479 0.00000422 0.00000004
v 0.00002432 0.00000059 -0.00000123
v 0.00002432 -0.00000176 -0.00000107
v 0.00002431 -0.00000333 -0.00000034
v 0.00003481 0.00000349 -0.00000085
v 0.00004233 0.00000447 -0.00000002
v 0.00002952 0.00000070 -0.00000133
v 0.00002951 -0.00000208 -0.00000117
v 0.00002949 -0.00000394 -0.00000040
v 0.00004233 0.00000370 -0.00000083
v 0.00004730 0.00000434 -0.00000005
v 0.00003482 0.00000075 -0.00000131
v 0.00003482 -0.00000223 -0.00000115
v 0.00003480 -0.00000422 -0.00000043
v 0.00004731 0.00000360 -0.00000085
v 0.00004982 0.00000410 -0.00000007
v 0.00004234 0.00000080 -0.00000121
v 0.00004234 -0.00000237 -0.00000109
v 0.00004233 -0.00000447 -0.00000046
v 0.00004982 0.00000339 -0.00000085
v 0.00005300 0.00000276 -0.00000012
v 0.00005302 0.00000231 -0.00000075
v 0.00004731 0.00000078 -0.00000119
v 0.00004731 -0.00000230 -0.00000108
v 0.00004730 -0.00000434 -0.00000048
v 0.00004983 0.00000073 -0.00000117
v 0.00004983 -0.00000216 -0.00000107
v 0.00004982 -0.00000410 -0.00000050
v 0.00005300 -0.00000276 -0.00000048
v 0.00005313 -0.00000144 -0.00000088
v 0.00005365 -0.00000192 -0.00000044
v 0.00005377 -0.00000097 -0.00000073
v 0.00005314 0.00000048 -0.00000093
v 0.00005367 0.00000172 -0.00000064
v 0.00005378 0.00000041 -0.00000076
v -0.00004854 -0.00000434 0.00000047
v -0.00005424 -0.00000273 0.00000060
v -0.00005465 -0.00000221 0.00000079
v -0.00004854 -0.00000362 0.00000072
v -0.00004299 -0.00000573 0.00000037
v -0.00005542 -0.00000075 0.00000083
v -0.00004299 -0.00000494 0.00000062
v -0.00003407 -0.00000759 0.00000020
v -0.00004890 -0.00000162 0.00000076
v -0.00005512 0.00000062 0.00000082
v -0.00003408 -0.00000676 0.00000045
v -0.00002845 -0.00000745 0.00000010
v -0.00004299 -0.00000256 0.00000065
v -0.00004910 0.00000025 0.00000076
v -0.00005423 0.00000168 0.00000071
v -0.00002845 -0.00000662 0.00000035
v -0.00001588 -0.00000643 0.00000005
v -0.00003408 -0.00000362 0.00000049
v -0.00004299 -0.00000024 0.00000065
v -0.00004884 0.00000169 0.00000064
v -0.00005411 0.00000183 0.00000070
v -0.00004881 0.00000189 0.00000062
v -0.00004299 0.00000151 0.00000053
v -0.00004299 0.00000175 0.00000051
v -0.00003408 -0.00000021 0.00000048
v -0.00003407 0.00000179 0.00000036
v -0.00003407 0.00000206 0.00000035
v -0.00002845 -0.00000347 0.00000038
v -0.00002845 0.00000194 0.00000026
v -0.00002845 0.00000221 0.00000024
v -0.00001587 0.00000217 0.00000019
v -0.00002845 -0.00000006 0.00000038
v -0.00001587 0.00000193 0.00000021
v -0.00000423 0.00000202 0.00000009
v -0.00001587 0.00000018 0.00000033
v -0.00001588 -0.00000284 0.00000033
v -0.00000423 0.00000185 0.00000010
v -0.00001588 -0.00000568 0.00000029
v -0.00000424 -0.00000408 -0.00000006
v -0.00000423 0.00000058 0.00000022
v -0.00000041 0.00000184 0.00000007
v -0.00000041 0.00000200 0.00000005
v -0.00000424 -0.00000160 0.00000023
v -0.00000041 0.00000064 0.00000022
v 0.00000036 0.00000183 0.00000007
v 0.00000036 0.00000199 0.00000004
v 0.00000036 0.00000065 0.00000022
v -0.00000041 -0.00000141 0.00000023
v 0.00000036 -0.00000137 0.00000023
v 0.00000036 -0.00000319 0.00000017
v -0.00000423 -0.00000357 0.00000019
v -0.00000041 -0.00000326 0.00000017
v -0.00000041 -0.00000373 -0.00000012
v 0.00000036 -0.00000367 -0.00000013
v 0.00000055 -0.00000357 -0.00000019
v 0.00000053 -0.00000309 0.00000042
v 0.00000089 -0.00000353 -0.00000019
v 0.00000087 -0.00000305 0.00000043
v 0.00000772 -0.00000270 -0.00000022
v 0.00000051 -0.00000126 0.00000061
v 0.00000771 -0.00000228 0.00000052
v 0.00001854 -0.00000283 -0.00000029
v 0.00000086 -0.00000124 0.00000063
v 0.00001853 -0.00000235 0.00000048
v 0.00002431 -0.00000333 -0.00000034
v 0.00000086 0.00000074 0.00000057
v 0.00000052 0.00000073 0.00000056
v 0.00000054 0.00000189 0.00000020
v 0.00000088 0.00000190 0.00000020
v 0.00000054 0.00000205 0.00000015
v 0.00000088 0.00000206 0.00000015
v 0.00000770 0.00000101 0.00000078
v 0.00000771 0.00000201 0.00000024
v 0.00000772 0.00000215 0.00000017
v 0.00001853 0.00000281 0.00000011
v 0.00001853 0.00000266 0.00000019
v 0.00002430 0.00000333 0.00000014
v 0.00000770 -0.00000071 0.00000090
v 0.00002429 0.00000314 0.00000023
v 0.00002948 0.00000394 0.00000011
v 0.00001852 0.00000148 0.00000077
v 0.00001852 -0.00000051 0.00000092
v 0.00002947 0.00000372 0.00000020
v 0.00003479 0.00000422 0.00000004
v 0.00002427 0.00000176 0.00000087
v 0.00002427 -0.00000059 0.00000103
v 0.00003479 0.00000398 0.00000012
v 0.00004233 0.00000447 -0.00000002
v 0.00002945 0.00000208 0.00000088
v 0.00002428 -0.00000275 0.00000057
v 0.00002949 -0.00000394 -0.00000040
v 0.00004233 0.00000422 0.00000006
v 0.00004730 0.00000434 -0.00000005
v 0.00002945 -0.00000070 0.00000104
v 0.00002946 -0.00000326 0.00000057
v 0.00003480 -0.00000422 -0.00000043
v 0.00003478 0.00000223 0.00000076
v 0.00004730 0.00000410 0.00000002
v 0.00004982 0.00000410 -0.00000007
v 0.00003478 -0.00000349 0.00000046
v 0.00004233 -0.00000447 -0.00000046
v 0.00003477 -0.00000075 0.00000091
v 0.00004232 0.00000237 0.00000061
v 0.00004232 -0.00000370 0.00000036
v 0.00004730 -0.00000434 -0.00000048
v 0.00004232 -0.00000080 0.00000074
v 0.00004730 -0.00000360 0.00000031
v 0.00004982 -0.00000410 -0.00000050
v 0.00004729 0.00000230 0.00000054
v 0.00004729 -0.00000078 0.00000065
v 0.00004981 -0.00000339 0.00000029
v 0.00005300 -0.00000276 -0.00000048
v 0.00005301 -0.00000231 0.00000015
v 0.00004982 0.00000387 -0.00000000
v 0.00004981 -0.00000073 0.00000060
v 0.00004981 0.00000216 0.00000050
v 0.00005301 0.00000260 -0.00000008
v 0.00005300 0.00000276 -0.00000012
v 0.00005312 0.00000144 0.00000027
v 0.00005313 -0.00000048 0.00000032
v 0.00005366 -0.00000160 0.00000003
v 0.00005377 -0.00000028 0.00000015
v 0.00005376 0.00000110 0.00000012
v 0.00005367 0.00000193 -0.00000013
v 0.00005365 0.00000204 -0.00000017
vn 0.36869770 0.46874500 -0.80270800
vn 0.82927360 0.47454810 0.29514310
vn 0.50905730 0.81150220 0.28692320
vn 0.78272700 0.22551660 -0.58006960
vn 0.82980890 0.18150920 0.52770410
vn 0.78529020 0.07863028 0.61411430
vn 0.79115650 0.02357896 -0.61115910
vn 0.78702560 -0.01838019 0.61664650
vn 0.79532190 -0.07157018 -0.60194750
vn 0.78833910 -0.20463140 0.58021330
vn 0.85249100 -0.43712930 -0.28666510
vn 0.40327820 -0.46030290 0.79087800
vn 0.52823260 -0.79951160 -0.28592240
vn -0.52843120 -0.01805926 0.84878400
vn -0.35022390 -0.42383070 0.83529080
vn -0.17123240 -0.42611140 0.88831780
vn -0.53509470 -0.03188810 0.84419000
vn -0.49916670 0.13579130 0.85579970
vn -0.51643720 0.07478762 0.85305300
vn -0.38949750 0.15116990 0.90853700
vn -0.38621610 0.24707110 0.88870300
vn -0.52248730 0.84891320 0.07970750
vn -0.39206010 0.85728760 0.33368660
vn -0.42971310 -0.09426159 -0.89803190
vn -0.44818720 -0.13601000 -0.88353230
vn -0.50659750 0.03181392 -0.86159560
vn -0.51610340 0.01435264 -0.85640600
vn 0.01464206 0.99127290 0.13101060
vn -0.01025172 0.99355240 0.11290930
vn -0.02397447 0.11955030 -0.99253860
vn -0.01737411 0.18365720 -0.98283680
vn 0.00399692 0.99214430 0.12503460
vn -0.02700652 0.00815030 -0.99960200
vn -0.01764570 0.16137430 -0.98673550
vn -0.02782159 0.99262390 0.11799890
vn -0.02284723 0.00842768 -0.99970330
vn -0.03264189 -0.02775167 -0.99908170
vn -0.02291820 0.15539000 -0.98758730
vn -0.01331001 0.99234840 0.12274920
vn -0.01832824 0.00688031 -0.99980840
vn -0.03141711 -0.04203566 -0.99862210
vn -0.26005410 -0.95598780 -0.13586500
vn -0.24610860 -0.96104430 -0.12579450
vn -0.02616254 -0.03606366 -0.99900700
vn -0.21552970 -0.96973340 -0.11473480
vn -0.01382070 0.16463500 -0.98625770
vn 0.00213139 0.98528490 0.17090730
vn -0.01866201 0.00573642 -0.99980940
vn -0.02161893 -0.03379172 -0.99919500
vn -0.08481155 -0.99072510 -0.10616400
vn -0.00665986 0.20850120 -0.97799940
vn 0.00602795 0.97568560 0.21909180
vn -0.01152489 0.00567301 -0.99991750
vn -0.00978628 -0.03183554 -0.99944510
vn 0.04882786 -0.99162070 -0.11960060
vn -0.00673883 0.00636283 -0.99995710
vn -0.00164830 -0.03752020 -0.99929450
vn 0.13030250 -0.98286940 -0.13034110
vn -0.01108233 0.27358270 -0.96178470
vn -0.01598998 0.00868338 -0.99983440
vn -0.00956911 -0.04829924 -0.99878710
vn 0.12026880 -0.97651270 -0.17876930
vn 0.06577311 -0.97686980 -0.20346810
vn -0.01412934 0.30396870 -0.95257720
vn 0.00594564 0.97193300 0.23518290
vn -0.02277254 0.01119058 -0.99967800
vn -0.01643144 -0.06221567 -0.99792740
vn -0.28535310 -0.95794950 -0.03010808
vn -0.34905160 0.38571200 -0.85404280
vn -0.52248730 0.84891320 0.07970750
vn -0.39206010 0.85728760 0.33368660
vn -0.51610340 0.01435264 -0.85640600
vn -0.42971310 -0.09426159 -0.89803190
vn -0.44818720 -0.13601000 -0.88353230
vn -0.35715450 -0.90070270 -0.24733670
vn -0.50659750 0.03181392 -0.86159560
vn 0.09307711 -0.95039650 -0.29678830
vn -0.35821590 0.43343420 -0.82693180
vn -0.02305917 0.95513590 0.29526900
vn -0.02843194 0.51784240 -0.85500340
vn -0.03970145 0.95614660 0.29018540
vn -0.03363542 0.04915601 -0.99822460
vn -0.00619064 -0.19375930 -0.98102960
vn 0.04077945 -0.95458960 -0.29512000
vn -0.03440499 0.56769530 -0.82251950
vn -0.07123940 0.95855760 0.27584820
vn -0.02468991 0.07027009 -0.99722240
vn -0.04758728 0.58297820 -0.81109300
vn -0.09646130 0.95433870 0.28272380
vn -0.00760271 -0.24058390 -0.97059860
vn -0.06142287 0.56176750 -0.82501180
vn -0.07297947 0.95863750 0.27511480
vn -0.02132087 0.07845660 -0.99668940
vn -0.02155738 -0.26068380 -0.96518360
vn -0.04690092 -0.95857980 -0.28093590
vn -0.04595641 0.54042120 -0.84013860
vn -0.03189524 0.96368030 0.26514680
vn -0.02617816 0.07107586 -0.99712740
vn -0.03462656 -0.24439040 -0.96905850
vn -0.09480989 -0.95505170 -0.28086890
vn -0.01718205 0.50049570 -0.86556850
vn 0.00001202 0.96621930 0.25772090
vn -0.01249945 0.06380363 -0.99788420
vn -0.02138473 -0.22402110 -0.97434970
vn -0.07167532 -0.95883880 -0.27475590
vn -0.00100695 0.47036770 -0.88247000
vn 0.05709249 0.96408400 0.25938850
vn 0.00393761 0.05539346 -0.99845680
vn -0.00200315 -0.19642470 -0.98051690
vn -0.02950814 -0.96326240 -0.26693590
vn 0.02353701 0.45978900 -0.88771630
vn 0.21822950 0.93985130 0.26278410
vn 0.00537553 0.04766072 -0.99884920
vn 0.00299004 -0.17328390 -0.98486740
vn 0.00128050 -0.96637510 -0.25713350
vn 0.12392540 0.48227700 -0.86720900
vn 0.50905730 0.81150220 0.28692320
vn 0.36869770 0.46874500 -0.80270800
vn 0.00497209 0.04332661 -0.99904850
vn 0.00826766 -0.16244140 -0.98668350
vn 0.05418726 -0.96420250 -0.25957120
vn 0.03886965 0.04259090 -0.99833630
vn 0.05543341 -0.16713440 -0.98437450
vn 0.21385230 -0.94051240 -0.26401420
vn 0.52823260 -0.79951160 -0.28592240
vn 0.24322360 -0.18423650 -0.95231250
vn 0.85249100 -0.43712930 -0.28666510
vn 0.79532190 -0.07157018 -0.60194750
vn 0.16998450 0.04283534 -0.98451530
vn 0.78272700 0.22551660 -0.58006960
vn 0.79115650 0.02357896 -0.61115910
vn -0.24610860 -0.96104430 -0.12579450
vn -0.26005410 -0.95598780 -0.13586500
vn -0.01339675 -0.10286430 0.99460510
vn -0.02809783 -0.17802660 0.98362450
vn -0.21552970 -0.96973340 -0.11473480
vn 0.00832774 -0.00762755 0.99993620
vn -0.01818513 -0.16165030 0.98668060
vn -0.08481155 -0.99072510 -0.10616400
vn 0.01232753 -0.00945971 0.99987920
vn 0.01134703 0.03154331 0.99943800
vn 0.00270454 -0.16178390 0.98682250
vn 0.04882786 -0.99162070 -0.11960060
vn 0.01715237 -0.00736721 0.99982580
vn 0.01602273 0.04160025 0.99900590
vn 0.01415063 0.08508510 0.99627320
vn 0.01942064 -0.15573890 0.98760730
vn 0.13030250 -0.98286940 -0.13034110
vn 0.01806673 -0.00627694 0.99981710
vn 0.01937081 0.03478364 0.99920720
vn 0.01792023 0.08015633 0.99662130
vn -0.01025172 0.99355240 0.11290930
vn 0.01464206 0.99127290 0.13101060
vn 0.01930155 0.06976325 0.99737690
vn 0.00399692 0.99214430 0.12503460
vn 0.01790556 0.03163300 0.99933920
vn 0.01691406 0.06232769 0.99791230
vn -0.02782159 0.99262390 0.11799890
vn 0.01165311 -0.00574722 0.99991560
vn 0.01045236 0.06228597 0.99800370
vn -0.01331001 0.99234840 0.12274920
vn 0.00213139 0.98528490 0.17090730
vn 0.01081228 0.03185622 0.99943390
vn 0.00636964 0.07194982 0.99738790
vn 0.00602795 0.97568560 0.21909180
vn 0.00610626 0.03648149 0.99931560
vn 0.00733389 -0.00672033 0.99995050
vn 0.00766573 0.09376530 0.99556480
vn 0.03243398 -0.18191740 0.98277870
vn 0.12026880 -0.97651270 -0.17876930
vn 0.00532027 0.04827638 0.99881980
vn 0.00654866 0.11621350 0.99320260
vn 0.00594564 0.97193300 0.23518290
vn 0.00607920 -0.00884706 0.99994240
vn 0.00230020 0.06007268 0.99819130
vn -0.38949750 0.15116990 0.90853700
vn -0.52248730 0.84891320 0.07970750
vn -0.51643720 0.07478762 0.85305300
vn 0.00225030 -0.01182974 0.99992750
vn -0.52843120 -0.01805926 0.84878400
vn -0.17123240 -0.42611140 0.88831780
vn 0.03530523 -0.22254260 0.97428350
vn 0.02857562 -0.27373210 0.96138140
vn 0.06577311 -0.97686980 -0.20346810
vn -0.28535310 -0.95794950 -0.03010808
vn -0.35715450 -0.90070270 -0.24733670
vn -0.35022390 -0.42383070 0.83529080
vn 0.09307711 -0.95039650 -0.29678830
vn 0.04250403 -0.51571260 0.85570680
vn 0.04077945 -0.95458960 -0.29512000
vn -0.53509470 -0.03188810 0.84419000
vn 0.02090169 -0.55926920 0.82872250
vn -0.04690092 -0.95857980 -0.28093590
vn -0.02559925 -0.05105402 0.99836770
vn -0.02586963 -0.58087520 0.81358150
vn -0.09480989 -0.95505170 -0.28086890
vn -0.03225999 0.19262170 0.98074270
vn -0.49916670 0.13579130 0.85579970
vn -0.38621610 0.24707110 0.88870300
vn -0.01801027 0.34229720 0.93941920
vn -0.39206010 0.85728760 0.33368660
vn -0.02305917 0.95513590 0.29526900
vn -0.02243462 0.24450390 0.96938870
vn -0.02016671 0.41917610 0.90768100
vn -0.03970145 0.95614660 0.29018540
vn -0.07123940 0.95855760 0.27584820
vn -0.03150898 0.44290870 0.89601290
vn -0.09646130 0.95433870 0.28272380
vn -0.01271120 -0.06797923 0.99760580
vn -0.03929016 0.41669580 0.90819650
vn -0.07297947 0.95863750 0.27511480
vn -0.02123878 0.26376390 0.96435340
vn -0.01165865 -0.07626981 0.99701910
vn -0.01895146 0.38117320 0.92430940
vn -0.03189524 0.96368030 0.26514680
vn -0.02417653 0.24496060 0.96923150
vn -0.01529865 -0.07105374 0.99735510
vn 0.00061301 0.33749430 0.94132740
vn 0.00001202 0.96621930 0.25772090
vn -0.00264220 0.22455170 0.97445860
vn -0.05137472 -0.56248660 0.82520860
vn -0.07167532 -0.95883880 -0.27475590
vn 0.00809822 0.29908810 0.95419110
vn 0.05709249 0.96408400 0.25938850
vn 0.00627206 -0.06390234 0.99793650
vn -0.03073053 -0.54234020 0.83959670
vn -0.02950814 -0.96326240 -0.26693590
vn 0.01334811 0.19666410 0.98038010
vn 0.02358019 0.28291690 0.95885460
vn 0.21822950 0.93985130 0.26278410
vn -0.00428014 -0.50181000 0.86496730
vn 0.00128050 -0.96637510 -0.25713350
vn 0.01908225 -0.05542937 0.99828030
vn 0.01457337 0.17326620 0.98476730
vn 0.00898205 -0.47035340 0.88243240
vn 0.05418726 -0.96420250 -0.25957120
vn 0.01682921 -0.04765414 0.99872200
vn 0.03433520 -0.45928620 0.88762450
vn 0.21385230 -0.94051240 -0.26401420
vn 0.02048085 0.16235840 0.98651930
vn 0.01736756 -0.04331411 0.99891050
vn 0.13317210 -0.48013800 0.86702530
vn 0.52823260 -0.79951160 -0.28592240
vn 0.40327820 -0.46030290 0.79087800
vn 0.08390618 0.28540420 0.95472730
vn 0.05114195 -0.04252496 0.99778560
vn 0.06715148 0.16671960 0.98371500
vn 0.26407490 0.29826610 0.91722510
vn 0.50905730 0.81150220 0.28692320
vn 0.22459810 0.17664500 0.95830700
vn 0.18167360 -0.04663005 0.98225270
vn 0.78833910 -0.20463140 0.58021330
vn 0.78702560 -0.01838019 0.61664650
vn 0.78529020 0.07863028 0.61411430
vn 0.82980890 0.18150920 0.52770410
vn 0.82927360 0.47454810 0.29514310
vt 0.95977830 0.00397097
vt 0.98731240 0.00657598
vt 0.99059710 0.00000000
vt 0.96439100 0.00937444
vt 0.98882100 0.00761029
vt 1.00000000 0.01527548
vt 0.95699730 0.02138605
vt 1.00000000 0.02791430
vt 0.95701980 0.03402497
vt 0.99277290 0.03992665
vt 0.96987260 0.04272520
vt 0.99790170 0.04645417
vt 0.96710710 0.05042523
vt 0.97674820 0.08181534
vt 0.96589670 0.09753964
vt 0.98069950 0.09841826
vt 0.95699730 0.08096365
vt 0.95705050 0.06274952
vt 0.97521840 0.06337059
vt 0.98004780 0.05246219
vt 0.96970210 0.05189051
vt 0.98069950 0.05099025
vt 0.97140930 0.05042523
vt 0.95887410 0.11790470
vt 0.96591400 0.11662990
vt 0.96591400 0.09841826
vt 0.95699730 0.09938017
vt 0.47518860 0.06149168
vt 0.47923220 0.01297014
vt 0.45668020 0.00863461
vt 0.44431840 0.05995347
vt 0.46082690 0.11467000
vt 0.38991210 0.00000000
vt 0.42348780 0.11448720
vt 0.46435960 0.19637030
vt 0.35160550 0.05844142
vt 0.32271690 0.00246687
vt 0.42572100 0.19618070
vt 0.46422660 0.24784970
vt 0.30892200 0.11388960
vt 0.25954310 0.06162570
vt 0.26058260 0.01057743
vt 0.17538090 0.06236628
vt 0.19642910 0.11329460
vt 0.10135610 0.11277070
vt 0.42558800 0.24766000
vt 0.44555650 0.36296970
vt 0.27467750 0.19539130
vt 0.10997420 0.19452160
vt 0.00069850 0.19392320
vt 0.41729300 0.36282870
vt 0.42303990 0.46947930
vt 0.27454460 0.24687060
vt 0.10976550 0.24600060
vt 0.00000000 0.24539960
vt 0.28095900 0.36211280
vt 0.13144950 0.36132640
vt 0.03253153 0.36075410
vt 0.40525130 0.46938560
vt 0.30490250 0.46884850
vt 0.19750940 0.46828400
vt 0.13021620 0.46788530
vt 0.14162710 0.50299460
vt 0.39661570 0.50434670
vt 0.41695370 0.50444950
vt 0.30422260 0.50385530
vt 0.20506600 0.50333520
vt 0.14392210 0.51005580
vt 0.39487890 0.51137820
vt 0.41572960 0.51148270
vt 0.41824290 0.51318410
vt 0.30408590 0.51089580
vt 0.20658580 0.51038470
vt 0.21209230 0.51195870
vt 0.14808730 0.51176990
vt 0.30787000 0.51242260
vt 0.14963480 0.51489350
vt 0.39561480 0.51301400
vt 0.41801360 0.51629840
vt 0.39553980 0.51613150
vt 0.41340660 0.57886110
vt 0.30838220 0.51554720
vt 0.21323130 0.51508580
vt 0.18072360 0.57764330
vt 0.39403320 0.57875970
vt 0.43114240 0.67802490
vt 0.31867020 0.57831860
vt 0.40847640 0.67791160
vt 0.44807590 0.73090450
vt 0.23611110 0.57790580
vt 0.42133130 0.73087210
vt 0.47076570 0.77847700
vt 0.32072670 0.67744770
vt 0.22460990 0.67694490
vt 0.16014330 0.67660960
vt 0.43904770 0.77851350
vt 0.47723670 0.82719010
vt 0.31790510 0.73035690
vt 0.20471520 0.72975740
vt 0.12878470 0.72929250
vt 0.44293530 0.82712680
vt 0.47923280 0.89620570
vt 0.31641410 0.77796620
vt 0.18226830 0.77722820
vt 0.09246475 0.77659640
vt 0.44307220 0.89603510
vt 0.46671550 0.94169600
vt 0.31172510 0.82649680
vt 0.16831570 0.82572220
vt 0.07204769 0.82511940
vt 0.43153910 0.94152910
vt 0.45179080 0.96467450
vt 0.30393370 0.89531300
vt 0.15175210 0.89450970
vt 0.05021226 0.89396020
vt 0.41834310 0.96451710
vt 0.38311560 0.99341860
vt 0.36208440 0.99347050
vt 0.29622800 0.94082530
vt 0.14844520 0.94004580
vt 0.04963790 0.93951270
vt 0.29073940 0.96385720
vt 0.15147940 0.96312210
vt 0.05793541 0.96261320
vt 0.11824510 0.99203400
vt 0.18156700 0.99351890
vt 0.15781370 0.99825610
vt 0.20327870 0.99951270
vt 0.27431420 0.99416340
vt 0.33286760 0.99931230
vt 0.26961670 1.00000000
vt 0.65393890 0.93742880
vt 0.73886110 0.98925920
vt 0.76383290 0.99290170
vt 0.68816320 0.93731450
vt 0.58013790 0.88699170
vt 0.83483040 0.99963820
vt 0.61740450 0.88686200
vt 0.47981330 0.80579100
vt 0.78444820 0.94017020
vt 0.90008550 0.99655090
vt 0.51896660 0.80565200
vt 0.47923280 0.75429970
vt 0.73146960 0.88629790
vt 0.87435700 0.94148150
vt 0.95023040 0.98809220
vt 0.51849020 0.75416010
vt 0.51163950 0.63897350
vt 0.66943200 0.80490520
vt 0.84314880 0.88573580
vt 0.94367900 0.93878400
vt 0.95699690 0.98695090
vt 0.95303330 0.93842010
vt 0.92743950 0.88528390
vt 0.93881330 0.88522300
vt 0.83325000 0.80408130
vt 0.92953410 0.80356930
vt 0.94252630 0.80350020
vt 0.66941620 0.75341110
vt 0.92951830 0.75207510
vt 0.94251060 0.75200610
vt 0.92379080 0.63690170
vt 0.83323410 0.75258710
vt 0.91237950 0.63696370
vt 0.90133930 0.53038900
vt 0.82781230 0.63742250
vt 0.68314060 0.63815170
vt 0.89306500 0.53043660
vt 0.54690620 0.63884070
vt 0.60921340 0.53186880
vt 0.83174530 0.53078900
vt 0.88744750 0.49546420
vt 0.89527350 0.49541800
vt 0.72746060 0.53132950
vt 0.82945020 0.49580680
vt 0.88631770 0.48843050
vt 0.89405350 0.48838460
vt 0.82898860 0.48877110
vt 0.73127290 0.49630590
vt 0.73203960 0.48926190
vt 0.64476710 0.48967800
vt 0.63272640 0.53178550
vt 0.64275090 0.49672870
vt 0.62066290 0.49675600
vt 0.62296560 0.48969410
vt 0.62724260 0.48796270
vt 0.64875510 0.48810980
vt 0.62878590 0.48484000
vt 0.65012950 0.48498750
vt 0.65978840 0.42210870
vt 0.73594510 0.48787340
vt 0.67774100 0.42226390
vt 0.63920440 0.32314960
vt 0.73672060 0.48475290
vt 0.66041060 0.32329410
vt 0.60790890 0.27046010
vt 0.83181530 0.48420220
vt 0.83165810 0.48731890
vt 0.88866940 0.48678720
vt 0.88848040 0.48367370
vt 0.89636230 0.48671540
vt 0.89612660 0.48360240
vt 0.83497280 0.42159030
vt 0.88468370 0.42112650
vt 0.89139150 0.42106400
vt 0.90906590 0.32191710
vt 0.90126740 0.32198350
vt 0.92583690 0.26906700
vt 0.75229920 0.42206500
vt 0.91666060 0.26915450
vt 0.94847520 0.22150630
vt 0.84347360 0.32247470
vt 0.74720670 0.32301540
vt 0.93764240 0.22160610
vt 0.95500440 0.17278750
vt 0.84865710 0.26980280
vt 0.73534450 0.27045630
vt 0.94341430 0.17288260
vt 0.95699730 0.10377730
vt 0.85736230 0.22234600
vt 0.63292310 0.27073760
vt 0.57169030 0.22314300
vt 0.94480020 0.10386170
vt 0.94449080 0.05828843
vt 0.72313530 0.22309980
vt 0.60157810 0.22347300
vt 0.55128450 0.17462120
vt 0.85752150 0.17358720
vt 0.93262790 0.05836961
vt 0.92958530 0.03530817
vt 0.58388850 0.17482780
vt 0.52942000 0.10578950
vt 0.71404610 0.17437360
vt 0.85440960 0.10448700
vt 0.56401770 0.10586640
vt 0.52883050 0.06024254
vt 0.70223680 0.10528960
vt 0.56246630 0.06031792
vt 0.53710680 0.03714712
vt 0.84471410 0.05897195
vt 0.69694400 0.05974707
vt 0.56903780 0.03722687
vt 0.59725900 0.00775412
vt 0.61703770 0.00769999
vt 0.91835180 0.03538505
vt 0.69585990 0.03668365
vt 0.83510240 0.03595484
vt 0.85341980 0.00645777
vt 0.86106500 0.00654072
vt 0.79676290 0.00584285
vt 0.70401540 0.00616777
vt 0.65057230 0.00149964
vt 0.71321030 0.00020513
vt 0.77955060 0.00000000
vt 0.82028060 0.00060847
vt 0.82577680 0.00069067
f 3/3/3 2/2/2 1/1/1
f 2/2/2 4/4/4 1/1/1
f 4/4/4 2/2/2 5/5/5
f 4/4/4 5/5/5 6/6/6
f 7/7/7 4/4/4 6/6/6
f 7/7/7 6/6/6 8/8/8
f 9/9/9 7/7/7 8/8/8
f 9/9/9 8/8/8 10/10/10
f 10/10/10 11/11/11 9/9/9
f 10/10/10 12/12/12 11/11/11
f 12/12/12 13/13/13 11/11/11
f 16/16/16 15/15/15 14/14/14
f 15/15/15 17/17/17 14/14/14
f 14/14/14 17/17/17 18/18/18
f 19/19/19 14/14/14 18/18/18
f 19/19/19 18/18/18 20/20/20
f 18/18/18 21/21/21 20/20/20
f 20/20/20 21/21/21 22/22/22
f 21/21/21 23/23/23 22/22/22
f 26/26/26 25/25/25 24/24/24
f 27/27/27 26/26/26 24/24/24
f 30/30/30 29/29/29 28/28/28
f 31/31/31 30/30/30 28/28/28
f 31/31/31 28/28/28 32/32/32
f 33/33/33 30/30/30 31/31/31
f 34/34/34 31/31/31 32/32/32
f 34/34/34 32/32/32 35/35/35
f 36/36/36 33/33/33 31/31/31
f 36/36/36 31/31/31 34/34/34
f 37/37/37 33/33/33 36/36/36
f 38/38/38 34/34/34 35/35/35
f 38/38/38 35/35/35 39/39/39
f 40/40/40 36/36/36 34/34/34
f 40/40/40 34/34/34 38/38/38
f 41/41/41 37/37/37 36/36/36
f 41/41/41 36/36/36 40/40/40
f 42/42/42 37/37/37 41/41/41
f 43/43/43 42/42/42 41/41/41
f 43/43/43 41/41/41 44/44/44
f 44/44/44 41/41/41 40/40/40
f 45/45/45 43/43/43 44/44/44
f 46/46/46 38/38/38 39/39/39
f 39/39/39 47/47/47 46/46/46
f 48/48/48 40/40/40 38/38/38
f 44/44/44 40/40/40 48/48/48
f 48/48/48 38/38/38 46/46/46
f 45/45/45 44/44/44 49/49/49
f 49/49/49 44/44/44 48/48/48
f 50/50/50 45/45/45 49/49/49
f 47/47/47 51/51/51 46/46/46
f 47/47/47 52/52/52 51/51/51
f 53/53/53 48/48/48 46/46/46
f 49/49/49 48/48/48 53/53/53
f 46/46/46 51/51/51 53/53/53
f 50/50/50 49/49/49 54/54/54
f 54/54/54 49/49/49 53/53/53
f 55/55/55 50/50/50 54/54/54
f 51/51/51 56/56/56 53/53/53
f 53/53/53 56/56/56 54/54/54
f 55/55/55 54/54/54 57/57/57
f 56/56/56 57/57/57 54/54/54
f 58/58/58 55/55/55 57/57/57
f 52/52/52 59/59/59 51/51/51
f 51/51/51 59/59/59 56/56/56
f 56/56/56 60/60/60 57/57/57
f 59/59/59 60/60/60 56/56/56
f 57/57/57 61/61/61 58/58/58
f 60/60/60 61/61/61 57/57/57
f 61/61/61 62/62/62 58/58/58
f 63/63/63 62/62/62 61/61/61
f 64/64/64 59/59/59 52/52/52
f 65/65/65 64/64/64 52/52/52
f 60/60/60 59/59/59 66/66/66
f 60/60/60 66/66/66 61/61/61
f 59/59/59 64/64/64 66/66/66
f 67/67/67 63/63/63 61/61/61
f 66/66/66 67/67/67 61/61/61
f 68/68/68 63/63/63 67/67/67
f 69/69/69 64/64/64 65/65/65
f 70/70/70 69/69/69 65/65/65
f 70/70/70 71/71/71 69/69/69
f 66/66/66 64/64/64 72/72/72
f 66/66/66 72/72/72 67/67/67
f 64/64/64 69/69/69 72/72/72
f 72/72/72 73/73/73 67/67/67
f 73/73/73 68/68/68 67/67/67
f 73/73/73 74/74/74 68/68/68
f 74/74/74 75/75/75 68/68/68
f 76/76/76 72/72/72 69/69/69
f 77/77/77 75/75/75 74/74/74
f 71/71/71 78/78/78 69/69/69
f 78/78/78 76/76/76 69/69/69
f 71/71/71 79/79/79 78/78/78
f 79/79/79 80/80/80 78/78/78
f 78/78/78 80/80/80 76/76/76
f 79/79/79 81/81/81 80/80/80
f 76/76/76 82/82/82 74/74/74
f 80/80/80 82/82/82 76/76/76
f 83/83/83 77/77/77 74/74/74
f 82/82/82 83/83/83 74/74/74
f 84/84/84 77/77/77 83/83/83
f 81/81/81 85/85/85 80/80/80
f 80/80/80 85/85/85 82/82/82
f 81/81/81 86/86/86 85/85/85
f 82/82/82 87/87/87 83/83/83
f 85/85/85 87/87/87 82/82/82
f 86/86/86 88/88/88 85/85/85
f 85/85/85 88/88/88 87/87/87
f 86/86/86 89/89/89 88/88/88
f 90/90/90 84/84/84 83/83/83
f 87/87/87 90/90/90 83/83/83
f 89/89/89 91/91/91 88/88/88
f 89/89/89 92/92/92 91/91/91
f 88/88/88 93/93/93 87/87/87
f 87/87/87 93/93/93 90/90/90
f 88/88/88 91/91/91 93/93/93
f 84/84/84 90/90/90 94/94/94
f 93/93/93 94/94/94 90/90/90
f 95/95/95 84/84/84 94/94/94
f 92/92/92 96/96/96 91/91/91
f 92/92/92 97/97/97 96/96/96
f 91/91/91 98/98/98 93/93/93
f 93/93/93 98/98/98 94/94/94
f 91/91/91 96/96/96 98/98/98
f 95/95/95 94/94/94 99/99/99
f 98/98/98 99/99/99 94/94/94
f 100/100/100 95/95/95 99/99/99
f 97/97/97 101/101/101 96/96/96
f 97/97/97 102/102/102 101/101/101
f 96/96/96 103/103/103 98/98/98
f 98/98/98 103/103/103 99/99/99
f 96/96/96 101/101/101 103/103/103
f 100/100/100 99/99/99 104/104/104
f 103/103/103 104/104/104 99/99/99
f 105/105/105 100/100/100 104/104/104
f 102/102/102 106/106/106 101/101/101
f 102/102/102 107/107/107 106/106/106
f 101/101/101 108/108/108 103/103/103
f 103/103/103 108/108/108 104/104/104
f 101/101/101 106/106/106 108/108/108
f 105/105/105 104/104/104 109/109/109
f 108/108/108 109/109/109 104/104/104
f 110/110/110 105/105/105 109/109/109
f 107/107/107 111/111/111 106/106/106
f 107/107/107 112/112/112 111/111/111
f 106/106/106 113/113/113 108/108/108
f 108/108/108 113/113/113 109/109/109
f 106/106/106 111/111/111 113/113/113
f 110/110/110 109/109/109 114/114/114
f 113/113/113 114/114/114 109/109/109
f 115/115/115 110/110/110 114/114/114
f 112/112/112 116/116/116 111/111/111
f 112/112/112 117/117/117 116/116/116
f 117/117/117 118/118/118 116/116/116
f 111/111/111 119/119/119 113/113/113
f 113/113/113 119/119/119 114/114/114
f 111/111/111 116/116/116 119/119/119
f 115/115/115 114/114/114 120/120/120
f 119/119/119 120/120/120 114/114/114
f 121/121/121 115/115/115 120/120/120
f 116/116/116 122/122/122 119/119/119
f 116/116/116 118/118/118 122/122/122
f 119/119/119 122/122/122 120/120/120
f 121/121/121 120/120/120 123/123/123
f 122/122/122 123/123/123 120/120/120
f 124/124/124 121/121/121 123/123/123
f 125/125/125 124/124/124 123/123/123
f 126/126/126 125/125/125 123/123/123
f 123/123/123 122/122/122 126/126/126
f 127/127/127 125/125/125 126/126/126
f 128/128/128 127/127/127 126/126/126
f 118/118/118 129/129/129 122/122/122
f 122/122/122 129/129/129 126/126/126
f 126/126/126 129/129/129 128/128/128
f 118/118/118 130/130/130 129/129/129
f 129/129/129 131/131/131 128/128/128
f 130/130/130 131/131/131 129/129/129
f 134/134/134 133/133/133 132/132/132
f 135/135/135 134/134/134 132/132/132
f 135/135/135 132/132/132 136/136/136
f 137/137/137 134/134/134 135/135/135
f 138/138/138 135/135/135 136/136/136
f 138/138/138 136/136/136 139/139/139
f 140/140/140 137/137/137 135/135/135
f 140/140/140 135/135/135 138/138/138
f 141/141/141 137/137/137 140/140/140
f 142/142/142 138/138/138 139/139/139
f 142/142/142 139/139/139 143/143/143
f 144/144/144 140/140/140 138/138/138
f 144/144/144 138/138/138 142/142/142
f 145/145/145 141/141/141 140/140/140
f 145/145/145 140/140/140 144/144/144
f 146/146/146 141/141/141 145/145/145
f 147/147/147 142/142/142 143/143/143
f 143/143/143 148/148/148 147/147/147
f 149/149/149 144/144/144 142/142/142
f 149/149/149 142/142/142 147/147/147
f 150/150/150 145/145/145 144/144/144
f 150/150/150 144/144/144 149/149/149
f 151/151/151 146/146/146 145/145/145
f 151/151/151 145/145/145 150/150/150
f 152/152/152 146/146/146 151/151/151
f 153/153/153 152/152/152 151/151/151
f 153/153/153 151/151/151 154/154/154
f 154/154/154 151/151/151 150/150/150
f 155/155/155 153/153/153 154/154/154
f 156/156/156 150/150/150 149/149/149
f 154/154/154 150/150/150 156/156/156
f 155/155/155 154/154/154 157/157/157
f 157/157/157 154/154/154 156/156/156
f 158/158/158 155/155/155 157/157/157
f 156/156/156 149/149/149 159/159/159
f 159/159/159 149/149/149 147/147/147
f 158/158/158 157/157/157 160/160/160
f 161/161/161 158/158/158 160/160/160
f 162/162/162 161/161/161 160/160/160
f 157/157/157 156/156/156 163/163/163
f 160/160/160 157/157/157 163/163/163
f 163/163/163 156/156/156 159/159/159
f 164/164/164 162/162/162 160/160/160
f 164/164/164 160/160/160 163/163/163
f 162/162/162 164/164/164 165/165/165
f 163/163/163 159/159/159 166/166/166
f 166/166/166 164/164/164 163/163/163
f 159/159/159 147/147/147 167/167/167
f 159/159/159 167/167/167 166/166/166
f 164/164/164 168/168/168 165/165/165
f 164/164/164 166/166/166 168/168/168
f 147/147/147 169/169/169 167/167/167
f 148/148/148 169/169/169 147/147/147
f 148/148/148 170/170/170 169/169/169
f 166/166/166 167/167/167 171/171/171
f 166/166/166 171/171/171 168/168/168
f 165/165/165 168/168/168 172/172/172
f 173/173/173 165/165/165 172/172/172
f 167/167/167 169/169/169 174/174/174
f 167/167/167 174/174/174 171/171/171
f 168/168/168 171/171/171 175/175/175
f 172/172/172 168/168/168 175/175/175
f 175/175/175 171/171/171 174/174/174
f 173/173/173 172/172/172 176/176/176
f 177/177/177 173/173/173 176/176/176
f 176/176/176 172/172/172 178/178/178
f 172/172/172 175/175/175 178/178/178
f 178/178/178 175/175/175 179/179/179
f 179/179/179 175/175/175 174/174/174
f 180/180/180 178/178/178 179/179/179
f 180/180/180 179/179/179 181/181/181
f 169/169/169 182/182/182 174/174/174
f 170/170/170 182/182/182 169/169/169
f 179/179/179 174/174/174 183/183/183
f 174/174/174 182/182/182 183/183/183
f 183/183/183 182/182/182 170/170/170
f 179/179/179 183/183/183 181/181/181
f 184/184/184 183/183/183 170/170/170
f 181/181/181 183/183/183 184/184/184
f 185/185/185 181/181/181 184/184/184
f 185/185/185 186/186/186 181/181/181
f 186/186/186 187/187/187 181/181/181
f 186/186/186 188/188/188 187/187/187
f 188/188/188 189/189/189 187/187/187
f 188/188/188 190/190/190 189/189/189
f 187/187/187 189/189/189 191/191/191
f 190/190/190 192/192/192 189/189/189
f 192/192/192 190/190/190 193/193/193
f 189/189/189 194/194/194 191/191/191
f 189/189/189 192/192/192 194/194/194
f 195/195/195 192/192/192 193/193/193
f 195/195/195 193/193/193 196/196/196
f 191/191/191 194/194/194 197/197/197
f 198/198/198 191/191/191 197/197/197
f 198/198/198 197/197/197 199/199/199
f 197/197/197 200/200/200 199/199/199
f 199/199/199 200/200/200 201/201/201
f 200/200/200 202/202/202 201/201/201
f 197/197/197 194/194/194 203/203/203
f 197/197/197 203/203/203 200/200/200
f 200/200/200 204/204/204 202/202/202
f 203/203/203 204/204/204 200/200/200
f 204/204/204 205/205/205 202/202/202
f 206/206/206 205/205/205 204/204/204
f 207/207/207 206/206/206 204/204/204
f 207/207/207 204/204/204 203/203/203
f 208/208/208 206/206/206 207/207/207
f 194/194/194 209/209/209 203/203/203
f 192/192/192 209/209/209 194/194/194
f 210/210/210 208/208/208 207/207/207
f 211/211/211 208/208/208 210/210/210
f 212/212/212 207/207/207 203/203/203
f 203/203/203 209/209/209 212/212/212
f 210/210/210 207/207/207 212/212/212
f 209/209/209 192/192/192 213/213/213
f 209/209/209 213/213/213 212/212/212
f 192/192/192 195/195/195 213/213/213
f 214/214/214 211/211/211 210/210/210
f 215/215/215 211/211/211 214/214/214
f 216/216/216 210/210/210 212/212/212
f 212/212/212 213/213/213 216/216/216
f 214/214/214 210/210/210 216/216/216
f 213/213/213 195/195/195 217/217/217
f 213/213/213 217/217/217 216/216/216
f 218/218/218 215/215/215 214/214/214
f 219/219/219 215/215/215 218/218/218
f 220/220/220 214/214/214 216/216/216
f 216/216/216 217/217/217 220/220/220
f 218/218/218 214/214/214 220/220/220
f 195/195/195 221/221/221 217/217/217
f 221/221/221 195/195/195 196/196/196
f 221/221/221 196/196/196 222/222/222
f 223/223/223 219/219/219 218/218/218
f 224/224/224 219/219/219 223/223/223
f 217/217/217 225/225/225 220/220/220
f 217/217/217 221/221/221 225/225/225
f 226/226/226 221/221/221 222/222/222
f 221/221/221 226/226/226 225/225/225
f 226/226/226 222/222/222 227/227/227
f 228/228/228 218/218/218 220/220/220
f 220/220/220 225/225/225 228/228/228
f 223/223/223 218/218/218 228/228/228
f 229/229/229 224/224/224 223/223/223
f 230/230/230 224/224/224 229/229/229
f 231/231/231 226/226/226 227/227/227
f 231/231/231 227/227/227 232/232/232
f 225/225/225 226/226/226 233/233/233
f 225/225/225 233/233/233 228/228/228
f 226/226/226 231/231/231 233/233/233
f 234/234/234 223/223/223 228/228/228
f 228/228/228 233/233/233 234/234/234
f 229/229/229 223/223/223 234/234/234
f 235/235/235 231/231/231 232/232/232
f 235/235/235 232/232/232 236/236/236
f 233/233/233 231/231/231 237/237/237
f 233/233/233 237/237/237 234/234/234
f 231/231/231 235/235/235 237/237/237
f 238/238/238 235/235/235 236/236/236
f 235/235/235 238/238/238 237/237/237
f 236/236/236 239/239/239 238/238/238
f 240/240/240 229/229/229 234/234/234
f 234/234/234 237/237/237 240/240/240
f 238/238/238 241/241/241 237/237/237
f 237/237/237 241/241/241 240/240/240
f 239/239/239 242/242/242 238/238/238
f 238/238/238 242/242/242 241/241/241
f 242/242/242 239/239/239 243/243/243
f 244/244/244 242/242/242 243/243/243
f 245/245/245 229/229/229 240/240/240
f 245/245/245 230/230/230 229/229/229
f 242/242/242 246/246/246 241/241/241
f 242/242/242 244/244/244 246/246/246
f 240/240/240 241/241/241 247/247/247
f 247/247/247 245/245/245 240/240/240
f 241/241/241 246/246/246 247/247/247
f 245/245/245 248/248/248 230/230/230
f 248/248/248 249/249/249 230/230/230
f 247/247/247 250/250/250 245/245/245
f 247/247/247 246/246/246 250/250/250
f 250/250/250 248/248/248 245/245/245
f 244/244/244 251/251/251 246/246/246
f 246/246/246 251/251/251 250/250/250
f 244/244/244 252/252/252 251/251/251
f 252/252/252 253/253/253 251/251/251
f 251/251/251 253/253/253 254/254/254
f 250/250/250 251/251/251 254/254/254
f 250/250/250 254/254/254 248/248/248
f 254/254/254 255/255/255 248/248/248
f 248/248/248 255/255/255 249/249/249
f 255/255/255 256/256/256 249/249/249

