mtllib WindowFrame_19753ec6.mtl
g WindowFrame_19753ec6
v 2.17287 1.08204 -4.17663
v 1.76266 1.08204 -4.17663
v 1.28701 1.08204 -4.17663
v 2.17287 1.08204 -4.17663
v 1.79466 1.08204 -4.17663
v 1.76266 1.08204 -4.17663
v 1.28701 1.08203 -4.15663
v 1.79466 1.08203 -4.15663
v 2.17287 1.08203 -4.15663
v 1.28701 1.08203 -4.15663
v 1.76266 1.08203 -4.15663
v 1.79466 1.08203 -4.15663
v 2.18567 1.06204 -4.17664
v 1.27422 1.06204 -4.17664
v 1.27422 1.06203 -4.15663
v 2.18567 1.06203 -4.15663
v 2.17287 1.08203 -4.15663
v 1.79466 1.08203 -4.15663
v 1.79466 1.08204 -4.17663
v 2.17287 1.08204 -4.17663
v 1.79466 1.08204 -4.17663
v 1.76266 2.1425 -4.17626
v 1.76266 1.08204 -4.17663
v 1.79466 2.1425 -4.17626
v 1.27422 2.1625 -4.17625
v 1.28701 2.1425 -4.17626
v 2.17287 2.1425 -4.17626
v 1.28701 1.08204 -4.17663
v 2.18567 2.1625 -4.17625
v 1.27422 1.06204 -4.17664
v 2.18567 1.06204 -4.17664
v 2.17287 1.08204 -4.17663
v 2.18567 1.06203 -4.15663
v 2.18567 2.16249 -4.15625
v 2.18567 2.1625 -4.17625
v 2.18567 1.06204 -4.17664
v 2.17287 1.08204 -4.17663
v 2.17287 2.1425 -4.17626
v 2.17287 2.14249 -4.15626
v 2.17287 1.08203 -4.15663
v 1.79466 1.08203 -4.15663
v 1.79466 2.14249 -4.15626
v 1.79466 2.1425 -4.17626
v 1.79466 1.08204 -4.17663
v 1.76266 1.08203 -4.15663
v 1.79466 2.14249 -4.15626
v 1.79466 1.08203 -4.15663
v 1.76266 2.1425 -4.15626
v 2.18567 2.16249 -4.15625
v 2.17287 2.14249 -4.15626
v 1.28701 2.14249 -4.15626
v 2.17287 1.08203 -4.15663
v 1.27422 2.16249 -4.15625
v 2.18567 1.06203 -4.15663
v 1.27422 1.06203 -4.15663
v 1.28701 1.08203 -4.15663
v 1.27422 1.06204 -4.17664
v 1.27422 2.1625 -4.17625
v 1.27422 2.16249 -4.15625
v 1.27422 1.06203 -4.15663
v 2.14087 1.13203 -4.16661
v 2.14087 2.0925 -4.16628
v 2.14087 2.09248 -4.11628
v 2.14087 1.13202 -4.11661
v 2.17287 1.08202 -4.11663
v 2.17287 2.14248 -4.11626
v 2.17287 2.1425 -4.16626
v 2.17287 1.08203 -4.16663
v 2.14087 2.0925 -4.16628
v 1.82666 2.0925 -4.16628
v 1.82666 2.09248 -4.11628
v 2.14087 2.09248 -4.11628
v 2.17287 2.14248 -4.11626
v 1.79466 2.14248 -4.11626
v 1.79466 2.1425 -4.16626
v 2.17287 2.1425 -4.16626
v 1.82666 2.0925 -4.16628
v 1.82666 1.13203 -4.16661
v 1.82666 1.13202 -4.11661
v 1.82666 2.09248 -4.11628
v 1.79466 2.14248 -4.11626
v 1.79466 1.08202 -4.11663
v 1.79466 1.08203 -4.16663
v 1.79466 2.1425 -4.16626
v 1.82666 1.13203 -4.16661
v 2.14087 1.13203 -4.16661
v 2.14087 1.13202 -4.11661
v 1.82666 1.13202 -4.11661
v 1.79466 1.08202 -4.11663
v 2.17287 1.08202 -4.11663
v 2.17287 1.08203 -4.16663
v 1.79466 1.08203 -4.16663
v 2.18567 2.16249 -4.15625
v 1.27422 2.16249 -4.15625
v 1.27422 2.1625 -4.17625
v 2.18567 2.1625 -4.17625
v 2.17287 2.1425 -4.17626
v 1.79466 2.1425 -4.17626
v 1.79466 2.14249 -4.15626
v 2.17287 2.14249 -4.15626
v 1.76266 1.08203 -4.15663
v 1.76266 1.08204 -4.17663
v 1.76266 2.1425 -4.17626
v 1.76266 2.1425 -4.15626
v 1.76266 2.1425 -4.15626
v 1.76266 2.1425 -4.17626
v 1.28701 2.1425 -4.17626
v 1.28701 2.14249 -4.15626
v 1.28701 2.14249 -4.15626
v 1.28701 2.1425 -4.17626
v 1.28701 1.08204 -4.17663
v 1.28701 1.08203 -4.15663
v 1.28701 1.08203 -4.15663
v 1.28701 1.08204 -4.17663
v 1.76266 1.08204 -4.17663
v 1.76266 1.08203 -4.15663
v 2.17287 1.08203 -4.16663
v 2.17287 2.1425 -4.16626
v 2.14087 2.0925 -4.16628
v 2.14087 1.13203 -4.16661
v 1.82666 2.0925 -4.16628
v 1.79466 1.08203 -4.16663
v 1.79466 2.1425 -4.16626
v 1.82666 1.13203 -4.16661
v 2.14087 1.13202 -4.11661
v 2.14087 2.09248 -4.11628
v 2.17287 2.14248 -4.11626
v 2.17287 1.08202 -4.11663
v 1.79466 2.14248 -4.11626
v 1.82666 1.13202 -4.11661
v 1.82666 2.09248 -4.11628
v 1.79466 1.08202 -4.11663
vn 0 0.0001995252 -0.5706994
vn -6.331582E-08 -0.5310534 -0.2198788
vn 0 0.0001995252 -0.5706994
vn 0 0.0001995252 -0.5706994
vn 0 -0.5537419 0.170062
vn 0 0.0001995252 -0.5706994
vn 0 0.0001995252 -0.5706994
vn 0 0.5757667 0.04938272
vn 0 0.0001995252 -0.5706994
vn 0 -0.5773402 0.01005973
vn 0 -0.5773402 0.01005973
vn 0 0.0001995252 -0.5706994
vn 0 -0.5773502 0.006451277
vn 0 -0.5773502 0.006451277
vn 0 -0.5773502 0.006451277
vn 0 -0.5773502 0.006451277
vn 0 0.5773502 0.006850327
vn 0 0.5773502 0.006850327
vn 0 0.5773502 0.006850327
vn 0 0.5773502 0.006850327
vn -5.823037E-06 0.0002003399 -0.5706994
vn -2.156582E-05 0.0001851422 -0.5706995
vn -5.505806E-06 0.0002003559 -0.5706994
vn -1.529255E-05 0.0002039544 -0.5706994
vn 2.446959E-05 0.0001789573 -0.5706995
vn 3.478095E-05 0.0001853357 -0.5706995
vn 0 0.0001906033 -0.5706994
vn 2.651086E-05 0.0002225011 -0.5706994
vn 0 0.0001874374 -0.5706994
vn 1.68042E-05 0.0002306854 -0.5706994
vn -5.415219E-07 0.0001950945 -0.5706994
vn -4.14181E-07 0.0001955905 -0.5706994
vn 0.5773503 0 0.006650802
vn 0.5773503 0 0.006650802
vn 0.5773503 0 0.006650802
vn 0.5773503 0 0.006650802
vn -0.5773503 0 0.006650802
vn -0.5773503 0 0.006650802
vn -0.5773503 0 0.006650802
vn -0.5773503 0 0.006650802
vn 0.5773503 0 0.006650802
vn 0.5773503 0 0.006650802
vn 0.5773503 0 0.006650802
vn 0.5773503 0 0.006650802
vn 5.505869E-06 -0.0001995252 0.584001
vn 5.467585E-06 -0.0002135789 0.584001
vn 5.50587E-06 -0.0001995252 0.584001
vn 3.547887E-06 -0.00019968 0.584001
vn 0 -0.0001958111 0.584001
vn 0 -0.0001974592 0.584001
vn -6.614842E-06 -0.0001844103 0.5840011
vn 0 -0.0002009369 0.584001
vn -4.201101E-06 -0.0001791098 0.5840011
vn 0 -0.0002014055 0.584001
vn 0 -0.0002027008 0.584001
vn 1.244552E-07 -0.0002020521 0.584001
vn -0.5773503 0 0.006650802
vn -0.5773503 0 0.006650802
vn -0.5773503 0 0.006650802
vn -0.5773503 0 0.006650802
vn -0.5773503 0 0.006650802
vn -0.5773503 0 0.006650802
vn -0.5773503 0 0.006650802
vn -0.5773503 0 0.006650802
vn 0.5773503 0 0.006650802
vn 0.5773503 0 0.006650802
vn 0.5773503 0 0.006650802
vn 0.5773503 0 0.006650802
vn 0 -0.5773502 0.006451277
vn 0 -0.5773502 0.006451277
vn 0 -0.5773502 0.006451277
vn 0 -0.5773502 0.006451277
vn 0 0.5773502 0.006850327
vn 0 0.5773502 0.006850327
vn 0 0.5773502 0.006850327
vn 0 0.5773502 0.006850327
vn 0.5773503 0 0.006650802
vn 0.5773503 0 0.006650802
vn 0.5773503 0 0.006650802
vn 0.5773503 0 0.006650802
vn -0.5773503 0 0.006650802
vn -0.5773503 0 0.006650802
vn -0.5773503 0 0.006650802
vn -0.5773503 0 0.006650802
vn 0 0.5773502 0.006850327
vn 0 0.5773502 0.006850327
vn 0 0.5773502 0.006850327
vn 0 0.5773502 0.006850327
vn 0 -0.5773502 0.006451277
vn 0 -0.5773502 0.006451277
vn 0 -0.5773502 0.006451277
vn 0 -0.5773502 0.006451277
vn 0 0.5773502 0.006850327
vn 0 0.5773502 0.006850327
vn 0 0.5773502 0.006850327
vn 0 0.5773502 0.006850327
vn 0 -0.5773502 0.006451277
vn 0 -0.5773502 0.006451277
vn 0 -0.5773502 0.006451277
vn 0 -0.5773502 0.006451277
vn -0.5773503 -8.333686E-08 0.006657346
vn -0.5773503 -8.535884E-08 0.006657426
vn -0.5773503 8.105182E-08 0.006650882
vn -0.5773503 8.307359E-08 0.006650802
vn 0 -0.5773502 0.006464138
vn 0 -0.5773502 0.006464492
vn 3.605208E-07 -0.5773502 0.00645163
vn 3.704306E-07 -0.5773502 0.006451277
vn 0.5773503 0 0.006650802
vn 0.5773503 0 0.006650802
vn 0.5773503 0 0.006650802
vn 0.5773503 0 0.006650802
vn -1.852149E-07 0.5773502 0.006850445
vn -1.852153E-07 0.5773502 0.006850327
vn -1.852005E-07 0.5773502 0.006854614
vn -1.852001E-07 0.5773502 0.006854732
vn 0 0.0001995252 -0.5706994
vn 0 0.0001995252 -0.5706994
vn 0 0.0001995252 -0.5706994
vn 0 0.0001995252 -0.5706994
vn 0 0.0001995252 -0.5706994
vn 0 0.0001995252 -0.5706994
vn 0 0.0001995252 -0.5706994
vn 0 0.0001995252 -0.5706994
vn 0 -0.0001995252 0.584001
vn 0 -0.0001995252 0.584001
vn 0 -0.0001995252 0.584001
vn 0 -0.0001995252 0.584001
vn 0 -0.0001995252 0.584001
vn 0 -0.0001995252 0.584001
vn 0 -0.0001995252 0.584001
vn 0 -0.0001995252 0.584001
vt 0.4869026 0.1448029
vt 0.4869029 0.6364134
vt 0.4869041 1.206434
vt 0.4869026 0.1448029
vt 0.4869026 0.5980629
vt 0.4869029 0.6364134
vt 0.4664277 1.118549
vt 0.4664277 0.6109033
vt 0.4664277 0.2326877
vt 0.1760422 -0.2895803
vt 0.6516855 -0.2895802
vt 0.6836867 -0.2895802
vt 0.5021927 0.2254442
vt 0.5021927 1.136902
vt 0.5221936 1.136902
vt 0.5221936 0.2254442
vt 0.4664277 0.2326877
vt 0.4664277 0.6109033
vt 0.4864286 0.6109033
vt 0.4864286 0.2326877
vt 0.2802535 0.7708855
vt 0.2482523 -0.2895806
vt 0.2482525 0.7708855
vt 0.2802535 -0.2895806
vt -0.2401911 -0.3095806
vt -0.2273911 -0.2895806
vt 0.658468 -0.2895806
vt -0.2273911 0.7708856
vt 0.6712682 -0.3095806
vt -0.2401911 0.7908857
vt 0.6712682 0.7908857
vt 0.658468 0.7708855
vt -0.003668745 -0.3095787
vt -0.003668745 0.7908838
vt 0.016332 0.7908838
vt 0.016332 -0.3095787
vt 0.6631523 1.243738
vt 0.6631523 0.183268
vt 0.6431513 0.183268
vt 0.6431513 1.243738
vt 0.6283367 0.1832669
vt 0.6283367 1.243739
vt 0.6483377 1.243739
vt 0.6483377 0.1832669
vt 0.6516855 -0.2895802
vt 0.6836867 0.7708856
vt 0.6836867 -0.2895802
vt 0.6516856 0.7708861
vt 1.074701 0.7908856
vt 1.061901 0.7708856
vt 0.1760422 0.7708856
vt 1.061901 -0.2895802
vt 0.1632423 0.7908856
vt 1.074701 -0.3095805
vt 0.1632423 -0.3095805
vt 0.1760422 -0.2895803
vt 0.8389848 0.7908855
vt 0.8389848 -0.3095806
vt 0.8189842 -0.3095806
vt 0.8189842 0.7908855
vt 0.5863489 1.172039
vt 0.5863489 0.2115729
vt 0.5363491 0.2115729
vt 0.5363491 1.172039
vt 0.5920138 0.1832717
vt 0.5920138 1.243735
vt 0.6420138 1.243735
vt 0.6420138 0.1832717
vt 0.3021641 0.3944826
vt 0.3021641 0.7086922
vt 0.3521639 0.7086922
vt 0.3521639 0.3944826
vt 0.4004758 0.3763678
vt 0.4004758 0.7545811
vt 0.4504756 0.7545811
vt 0.4504756 0.3763678
vt 0.5585164 1.172038
vt 0.5585164 0.2115741
vt 0.5085168 0.2115741
vt 0.5085168 1.172038
vt 0.5641814 0.1832716
vt 0.5641814 1.243735
vt 0.6141813 1.243735
vt 0.6141813 0.1832716
vt 0.3799962 0.7086924
vt 0.3799962 0.3944826
vt 0.3299965 0.3944826
vt 0.3299965 0.7086924
vt 0.4226432 0.7545814
vt 0.4226432 0.3763676
vt 0.3726434 0.3763676
vt 0.3726434 0.7545814
vt 0.4873782 0.2254433
vt 0.4873782 1.136903
vt 0.5073791 1.136903
vt 0.5073791 0.2254433
vt 0.3663193 0.376367
vt 0.3663193 0.754582
vt 0.3863202 0.754582
vt 0.3863202 0.376367
vt 0.8345758 0.7622073
vt 0.8545766 0.7622073
vt 0.8545754 -0.2982592
vt 0.8345758 -0.2982599
vt 0.4716134 0.3487913
vt 0.4516136 0.3487917
vt 0.4516136 0.8244361
vt 0.4716137 0.8244361
vt 0.8501675 0.7622069
vt 0.8701676 0.7622069
vt 0.8701676 -0.2982595
vt 0.8501675 -0.2982595
vt 0.4367987 0.8244355
vt 0.4567987 0.8244355
vt 0.4567998 0.348792
vt 0.436799 0.3487923
vt 1.105053 1.243735
vt 1.105053 0.1832712
vt 1.073051 0.233271
vt 1.073051 1.193735
vt 0.7588418 0.233271
vt 0.7268397 1.243735
vt 0.7268397 0.1832712
vt 0.7588418 1.193735
vt 0.9027928 0.2332719
vt 0.9027928 1.193735
vt 0.9347947 1.243734
vt 0.9347947 0.1832722
vt 0.5565816 1.243734
vt 0.5885837 0.2332719
vt 0.5885837 1.193735
vt 0.5565816 0.1832722
usemtl White
f 3/3/3 2/2/2 1/1/1
f 6/6/6 5/5/5 4/4/4
f 9/9/9 8/8/8 7/7/7
f 12/12/12 11/11/11 10/10/10
f 15/15/15 14/14/14 13/13/13
f 16/16/16 15/15/15 13/13/13
f 19/19/19 18/18/18 17/17/17
f 20/20/20 19/19/19 17/17/17
f 23/23/23 22/22/22 21/21/21
f 22/22/22 24/24/24 21/21/21
f 25/25/25 24/24/24 22/22/22
f 22/22/22 26/26/26 25/25/25
f 25/25/25 27/27/27 24/24/24
f 25/25/25 26/26/26 28/28/28
f 25/25/25 29/29/29 27/27/27
f 30/30/30 25/25/25 28/28/28
f 27/27/27 29/29/29 31/31/31
f 31/31/31 30/30/30 28/28/28
f 32/32/32 27/27/27 31/31/31
f 28/28/28 32/32/32 31/31/31
f 35/35/35 34/34/34 33/33/33
f 36/36/36 35/35/35 33/33/33
f 39/39/39 38/38/38 37/37/37
f 40/40/40 39/39/39 37/37/37
f 43/43/43 42/42/42 41/41/41
f 44/44/44 43/43/43 41/41/41
f 47/47/47 46/46/46 45/45/45
f 46/46/46 48/48/48 45/45/45
f 49/49/49 48/48/48 46/46/46
f 46/46/46 50/50/50 49/49/49
f 49/49/49 51/51/51 48/48/48
f 49/49/49 50/50/50 52/52/52
f 49/49/49 53/53/53 51/51/51
f 54/54/54 49/49/49 52/52/52
f 51/51/51 53/53/53 55/55/55
f 55/55/55 54/54/54 52/52/52
f 56/56/56 51/51/51 55/55/55
f 52/52/52 56/56/56 55/55/55
f 59/59/59 58/58/58 57/57/57
f 60/60/60 59/59/59 57/57/57
f 63/63/63 62/62/62 61/61/61
f 64/64/64 63/63/63 61/61/61
f 67/67/67 66/66/66 65/65/65
f 68/68/68 67/67/67 65/65/65
f 71/71/71 70/70/70 69/69/69
f 72/72/72 71/71/71 69/69/69
f 75/75/75 74/74/74 73/73/73
f 76/76/76 75/75/75 73/73/73
f 79/79/79 78/78/78 77/77/77
f 80/80/80 79/79/79 77/77/77
f 83/83/83 82/82/82 81/81/81
f 84/84/84 83/83/83 81/81/81
f 87/87/87 86/86/86 85/85/85
f 88/88/88 87/87/87 85/85/85
f 91/91/91 90/90/90 89/89/89
f 92/92/92 91/91/91 89/89/89
f 95/95/95 94/94/94 93/93/93
f 96/96/96 95/95/95 93/93/93
f 99/99/99 98/98/98 97/97/97
f 100/100/100 99/99/99 97/97/97
f 103/103/103 102/102/102 101/101/101
f 104/104/104 103/103/103 101/101/101
f 107/107/107 106/106/106 105/105/105
f 108/108/108 107/107/107 105/105/105
f 111/111/111 110/110/110 109/109/109
f 112/112/112 111/111/111 109/109/109
f 115/115/115 114/114/114 113/113/113
f 116/116/116 115/115/115 113/113/113
f 119/119/119 118/118/118 117/117/117
f 120/120/120 119/119/119 117/117/117
f 119/119/119 121/121/121 118/118/118
f 120/120/120 117/117/117 122/122/122
f 121/121/121 123/123/123 118/118/118
f 124/124/124 120/120/120 122/122/122
f 124/124/124 122/122/122 123/123/123
f 121/121/121 124/124/124 123/123/123
f 127/127/127 126/126/126 125/125/125
f 128/128/128 127/127/127 125/125/125
f 127/127/127 129/129/129 126/126/126
f 128/128/128 125/125/125 130/130/130
f 129/129/129 131/131/131 126/126/126
f 132/132/132 128/128/128 130/130/130
f 132/132/132 130/130/130 131/131/131
f 129/129/129 132/132/132 131/131/131
g WindowFrame_19753ec6
v 2.17287 1.08204 -4.17663
v 1.76266 1.08204 -4.17663
v 1.28701 1.08204 -4.17663
v 2.17287 1.08204 -4.17663
v 1.79466 1.08204 -4.17663
v 1.76266 1.08204 -4.17663
v 1.28701 1.08203 -4.15663
v 1.79466 1.08203 -4.15663
v 2.17287 1.08203 -4.15663
v 1.28701 1.08203 -4.15663
v 1.76266 1.08203 -4.15663
v 1.79466 1.08203 -4.15663
v 2.18567 1.06204 -4.17664
v 1.27422 1.06204 -4.17664
v 1.27422 1.06203 -4.15663
v 2.18567 1.06203 -4.15663
v 2.17287 1.08203 -4.15663
v 1.79466 1.08203 -4.15663
v 1.79466 1.08204 -4.17663
v 2.17287 1.08204 -4.17663
v 1.79466 1.08204 -4.17663
v 1.76266 2.1425 -4.17626
v 1.76266 1.08204 -4.17663
v 1.79466 2.1425 -4.17626
v 1.27422 2.1625 -4.17625
v 1.28701 2.1425 -4.17626
v 2.17287 2.1425 -4.17626
v 1.28701 1.08204 -4.17663
v 2.18567 2.1625 -4.17625
v 1.27422 1.06204 -4.17664
v 2.18567 1.06204 -4.17664
v 2.17287 1.08204 -4.17663
v 2.18567 1.06203 -4.15663
v 2.18567 2.16249 -4.15625
v 2.18567 2.1625 -4.17625
v 2.18567 1.06204 -4.17664
v 2.17287 1.08204 -4.17663
v 2.17287 2.1425 -4.17626
v 2.17287 2.14249 -4.15626
v 2.17287 1.08203 -4.15663
v 1.79466 1.08203 -4.15663
v 1.79466 2.14249 -4.15626
v 1.79466 2.1425 -4.17626
v 1.79466 1.08204 -4.17663
v 1.76266 1.08203 -4.15663
v 1.79466 2.14249 -4.15626
v 1.79466 1.08203 -4.15663
v 1.76266 2.1425 -4.15626
v 2.18567 2.16249 -4.15625
v 2.17287 2.14249 -4.15626
v 1.28701 2.14249 -4.15626
v 2.17287 1.08203 -4.15663
v 1.27422 2.16249 -4.15625
v 2.18567 1.06203 -4.15663
v 1.27422 1.06203 -4.15663
v 1.28701 1.08203 -4.15663
v 1.27422 1.06204 -4.17664
v 1.27422 2.1625 -4.17625
v 1.27422 2.16249 -4.15625
v 1.27422 1.06203 -4.15663
v 2.14087 1.13203 -4.16661
v 2.14087 2.0925 -4.16628
v 2.14087 2.09248 -4.11628
v 2.14087 1.13202 -4.11661
v 2.17287 1.08202 -4.11663
v 2.17287 2.14248 -4.11626
v 2.17287 2.1425 -4.16626
v 2.17287 1.08203 -4.16663
v 2.14087 2.0925 -4.16628
v 1.82666 2.0925 -4.16628
v 1.82666 2.09248 -4.11628
v 2.14087 2.09248 -4.11628
v 2.17287 2.14248 -4.11626
v 1.79466 2.14248 -4.11626
v 1.79466 2.1425 -4.16626
v 2.17287 2.1425 -4.16626
v 1.82666 2.0925 -4.16628
v 1.82666 1.13203 -4.16661
v 1.82666 1.13202 -4.11661
v 1.82666 2.09248 -4.11628
v 1.79466 2.14248 -4.11626
v 1.79466 1.08202 -4.11663
v 1.79466 1.08203 -4.16663
v 1.79466 2.1425 -4.16626
v 1.82666 1.13203 -4.16661
v 2.14087 1.13203 -4.16661
v 2.14087 1.13202 -4.11661
v 1.82666 1.13202 -4.11661
v 1.79466 1.08202 -4.11663
v 2.17287 1.08202 -4.11663
v 2.17287 1.08203 -4.16663
v 1.79466 1.08203 -4.16663
v 2.18567 2.16249 -4.15625
v 1.27422 2.16249 -4.15625
v 1.27422 2.1625 -4.17625
v 2.18567 2.1625 -4.17625
v 2.17287 2.1425 -4.17626
v 1.79466 2.1425 -4.17626
v 1.79466 2.14249 -4.15626
v 2.17287 2.14249 -4.15626
v 1.76266 1.08203 -4.15663
v 1.76266 1.08204 -4.17663
v 1.76266 2.1425 -4.17626
v 1.76266 2.1425 -4.15626
v 1.76266 2.1425 -4.15626
v 1.76266 2.1425 -4.17626
v 1.28701 2.1425 -4.17626
v 1.28701 2.14249 -4.15626
v 1.28701 2.14249 -4.15626
v 1.28701 2.1425 -4.17626
v 1.28701 1.08204 -4.17663
v 1.28701 1.08203 -4.15663
v 1.28701 1.08203 -4.15663
v 1.28701 1.08204 -4.17663
v 1.76266 1.08204 -4.17663
v 1.76266 1.08203 -4.15663
v 2.17287 1.08203 -4.16663
v 2.17287 2.1425 -4.16626
v 2.14087 2.0925 -4.16628
v 2.14087 1.13203 -4.16661
v 1.82666 2.0925 -4.16628
v 1.79466 1.08203 -4.16663
v 1.79466 2.1425 -4.16626
v 1.82666 1.13203 -4.16661
v 2.14087 1.13202 -4.11661
v 2.14087 2.09248 -4.11628
v 2.17287 2.14248 -4.11626
v 2.17287 1.08202 -4.11663
v 1.79466 2.14248 -4.11626
v 1.82666 1.13202 -4.11661
v 1.82666 2.09248 -4.11628
v 1.79466 1.08202 -4.11663
vn 0 0.0001995252 -0.5706994
vn -6.331582E-08 -0.5310534 -0.2198788
vn 0 0.0001995252 -0.5706994
vn 0 0.0001995252 -0.5706994
vn 0 -0.5537419 0.170062
vn 0 0.0001995252 -0.5706994
vn 0 0.0001995252 -0.5706994
vn 0 0.5757667 0.04938272
vn 0 0.0001995252 -0.5706994
vn 0 -0.5773402 0.01005973
vn 0 -0.5773402 0.01005973
vn 0 0.0001995252 -0.5706994
vn 0 -0.5773502 0.006451277
vn 0 -0.5773502 0.006451277
vn 0 -0.5773502 0.006451277
vn 0 -0.5773502 0.006451277
vn 0 0.5773502 0.006850327
vn 0 0.5773502 0.006850327
vn 0 0.5773502 0.006850327
vn 0 0.5773502 0.006850327
vn -5.823037E-06 0.0002003399 -0.5706994
vn -2.156582E-05 0.0001851422 -0.5706995
vn -5.505806E-06 0.0002003559 -0.5706994
vn -1.529255E-05 0.0002039544 -0.5706994
vn 2.446959E-05 0.0001789573 -0.5706995
vn 3.478095E-05 0.0001853357 -0.5706995
vn 0 0.0001906033 -0.5706994
vn 2.651086E-05 0.0002225011 -0.5706994
vn 0 0.0001874374 -0.5706994
vn 1.68042E-05 0.0002306854 -0.5706994
vn -5.415219E-07 0.0001950945 -0.5706994
vn -4.14181E-07 0.0001955905 -0.5706994
vn 0.5773503 0 0.006650802
vn 0.5773503 0 0.006650802
vn 0.5773503 0 0.006650802
vn 0.5773503 0 0.006650802
vn -0.5773503 0 0.006650802
vn -0.5773503 0 0.006650802
vn -0.5773503 0 0.006650802
vn -0.5773503 0 0.006650802
vn 0.5773503 0 0.006650802
vn 0.5773503 0 0.006650802
vn 0.5773503 0 0.006650802
vn 0.5773503 0 0.006650802
vn 5.505869E-06 -0.0001995252 0.584001
vn 5.467585E-06 -0.0002135789 0.584001
vn 5.50587E-06 -0.0001995252 0.584001
vn 3.547887E-06 -0.00019968 0.584001
vn 0 -0.0001958111 0.584001
vn 0 -0.0001974592 0.584001
vn -6.614842E-06 -0.0001844103 0.5840011
vn 0 -0.0002009369 0.584001
vn -4.201101E-06 -0.0001791098 0.5840011
vn 0 -0.0002014055 0.584001
vn 0 -0.0002027008 0.584001
vn 1.244552E-07 -0.0002020521 0.584001
vn -0.5773503 0 0.006650802
vn -0.5773503 0 0.006650802
vn -0.5773503 0 0.006650802
vn -0.5773503 0 0.006650802
vn -0.5773503 0 0.006650802
vn -0.5773503 0 0.006650802
vn -0.5773503 0 0.006650802
vn -0.5773503 0 0.006650802
vn 0.5773503 0 0.006650802
vn 0.5773503 0 0.006650802
vn 0.5773503 0 0.006650802
vn 0.5773503 0 0.006650802
vn 0 -0.5773502 0.006451277
vn 0 -0.5773502 0.006451277
vn 0 -0.5773502 0.006451277
vn 0 -0.5773502 0.006451277
vn 0 0.5773502 0.006850327
vn 0 0.5773502 0.006850327
vn 0 0.5773502 0.006850327
vn 0 0.5773502 0.006850327
vn 0.5773503 0 0.006650802
vn 0.5773503 0 0.006650802
vn 0.5773503 0 0.006650802
vn 0.5773503 0 0.006650802
vn -0.5773503 0 0.006650802
vn -0.5773503 0 0.006650802
vn -0.5773503 0 0.006650802
vn -0.5773503 0 0.006650802
vn 0 0.5773502 0.006850327
vn 0 0.5773502 0.006850327
vn 0 0.5773502 0.006850327
vn 0 0.5773502 0.006850327
vn 0 -0.5773502 0.006451277
vn 0 -0.5773502 0.006451277
vn 0 -0.5773502 0.006451277
vn 0 -0.5773502 0.006451277
vn 0 0.5773502 0.006850327
vn 0 0.5773502 0.006850327
vn 0 0.5773502 0.006850327
vn 0 0.5773502 0.006850327
vn 0 -0.5773502 0.006451277
vn 0 -0.5773502 0.006451277
vn 0 -0.5773502 0.006451277
vn 0 -0.5773502 0.006451277
vn -0.5773503 -8.333686E-08 0.006657346
vn -0.5773503 -8.535884E-08 0.006657426
vn -0.5773503 8.105182E-08 0.006650882
vn -0.5773503 8.307359E-08 0.006650802
vn 0 -0.5773502 0.006464138
vn 0 -0.5773502 0.006464492
vn 3.605208E-07 -0.5773502 0.00645163
vn 3.704306E-07 -0.5773502 0.006451277
vn 0.5773503 0 0.006650802
vn 0.5773503 0 0.006650802
vn 0.5773503 0 0.006650802
vn 0.5773503 0 0.006650802
vn -1.852149E-07 0.5773502 0.006850445
vn -1.852153E-07 0.5773502 0.006850327
vn -1.852005E-07 0.5773502 0.006854614
vn -1.852001E-07 0.5773502 0.006854732
vn 0 0.0001995252 -0.5706994
vn 0 0.0001995252 -0.5706994
vn 0 0.0001995252 -0.5706994
vn 0 0.0001995252 -0.5706994
vn 0 0.0001995252 -0.5706994
vn 0 0.0001995252 -0.5706994
vn 0 0.0001995252 -0.5706994
vn 0 0.0001995252 -0.5706994
vn 0 -0.0001995252 0.584001
vn 0 -0.0001995252 0.584001
vn 0 -0.0001995252 0.584001
vn 0 -0.0001995252 0.584001
vn 0 -0.0001995252 0.584001
vn 0 -0.0001995252 0.584001
vn 0 -0.0001995252 0.584001
vn 0 -0.0001995252 0.584001
vt 0.4869026 0.1448029
vt 0.4869029 0.6364134
vt 0.4869041 1.206434
vt 0.4869026 0.1448029
vt 0.4869026 0.5980629
vt 0.4869029 0.6364134
vt 0.4664277 1.118549
vt 0.4664277 0.6109033
vt 0.4664277 0.2326877
vt 0.1760422 -0.2895803
vt 0.6516855 -0.2895802
vt 0.6836867 -0.2895802
vt 0.5021927 0.2254442
vt 0.5021927 1.136902
vt 0.5221936 1.136902
vt 0.5221936 0.2254442
vt 0.4664277 0.2326877
vt 0.4664277 0.6109033
vt 0.4864286 0.6109033
vt 0.4864286 0.2326877
vt 0.2802535 0.7708855
vt 0.2482523 -0.2895806
vt 0.2482525 0.7708855
vt 0.2802535 -0.2895806
vt -0.2401911 -0.3095806
vt -0.2273911 -0.2895806
vt 0.658468 -0.2895806
vt -0.2273911 0.7708856
vt 0.6712682 -0.3095806
vt -0.2401911 0.7908857
vt 0.6712682 0.7908857
vt 0.658468 0.7708855
vt -0.003668745 -0.3095787
vt -0.003668745 0.7908838
vt 0.016332 0.7908838
vt 0.016332 -0.3095787
vt 0.6631523 1.243738
vt 0.6631523 0.183268
vt 0.6431513 0.183268
vt 0.6431513 1.243738
vt 0.6283367 0.1832669
vt 0.6283367 1.243739
vt 0.6483377 1.243739
vt 0.6483377 0.1832669
vt 0.6516855 -0.2895802
vt 0.6836867 0.7708856
vt 0.6836867 -0.2895802
vt 0.6516856 0.7708861
vt 1.074701 0.7908856
vt 1.061901 0.7708856
vt 0.1760422 0.7708856
vt 1.061901 -0.2895802
vt 0.1632423 0.7908856
vt 1.074701 -0.3095805
vt 0.1632423 -0.3095805
vt 0.1760422 -0.2895803
vt 0.8389848 0.7908855
vt 0.8389848 -0.3095806
vt 0.8189842 -0.3095806
vt 0.8189842 0.7908855
vt 0.5863489 1.172039
vt 0.5863489 0.2115729
vt 0.5363491 0.2115729
vt 0.5363491 1.172039
vt 0.5920138 0.1832717
vt 0.5920138 1.243735
vt 0.6420138 1.243735
vt 0.6420138 0.1832717
vt 0.3021641 0.3944826
vt 0.3021641 0.7086922
vt 0.3521639 0.7086922
vt 0.3521639 0.3944826
vt 0.4004758 0.3763678
vt 0.4004758 0.7545811
vt 0.4504756 0.7545811
vt 0.4504756 0.3763678
vt 0.5585164 1.172038
vt 0.5585164 0.2115741
vt 0.5085168 0.2115741
vt 0.5085168 1.172038
vt 0.5641814 0.1832716
vt 0.5641814 1.243735
vt 0.6141813 1.243735
vt 0.6141813 0.1832716
vt 0.3799962 0.7086924
vt 0.3799962 0.3944826
vt 0.3299965 0.3944826
vt 0.3299965 0.7086924
vt 0.4226432 0.7545814
vt 0.4226432 0.3763676
vt 0.3726434 0.3763676
vt 0.3726434 0.7545814
vt 0.4873782 0.2254433
vt 0.4873782 1.136903
vt 0.5073791 1.136903
vt 0.5073791 0.2254433
vt 0.3663193 0.376367
vt 0.3663193 0.754582
vt 0.3863202 0.754582
vt 0.3863202 0.376367
vt 0.8345758 0.7622073
vt 0.8545766 0.7622073
vt 0.8545754 -0.2982592
vt 0.8345758 -0.2982599
vt 0.4716134 0.3487913
vt 0.4516136 0.3487917
vt 0.4516136 0.8244361
vt 0.4716137 0.8244361
vt 0.8501675 0.7622069
vt 0.8701676 0.7622069
vt 0.8701676 -0.2982595
vt 0.8501675 -0.2982595
vt 0.4367987 0.8244355
vt 0.4567987 0.8244355
vt 0.4567998 0.348792
vt 0.436799 0.3487923
vt 1.105053 1.243735
vt 1.105053 0.1832712
vt 1.073051 0.233271
vt 1.073051 1.193735
vt 0.7588418 0.233271
vt 0.7268397 1.243735
vt 0.7268397 0.1832712
vt 0.7588418 1.193735
vt 0.9027928 0.2332719
vt 0.9027928 1.193735
vt 0.9347947 1.243734
vt 0.9347947 0.1832722
vt 0.5565816 1.243734
vt 0.5885837 0.2332719
vt 0.5885837 1.193735
vt 0.5565816 0.1832722
usemtl White
f 135/135/135 134/134/134 133/133/133
f 138/138/138 137/137/137 136/136/136
f 141/141/141 140/140/140 139/139/139
f 144/144/144 143/143/143 142/142/142
f 147/147/147 146/146/146 145/145/145
f 148/148/148 147/147/147 145/145/145
f 151/151/151 150/150/150 149/149/149
f 152/152/152 151/151/151 149/149/149
f 155/155/155 154/154/154 153/153/153
f 154/154/154 156/156/156 153/153/153
f 157/157/157 156/156/156 154/154/154
f 154/154/154 158/158/158 157/157/157
f 157/157/157 159/159/159 156/156/156
f 157/157/157 158/158/158 160/160/160
f 157/157/157 161/161/161 159/159/159
f 162/162/162 157/157/157 160/160/160
f 159/159/159 161/161/161 163/163/163
f 163/163/163 162/162/162 160/160/160
f 164/164/164 159/159/159 163/163/163
f 160/160/160 164/164/164 163/163/163
f 167/167/167 166/166/166 165/165/165
f 168/168/168 167/167/167 165/165/165
f 171/171/171 170/170/170 169/169/169
f 172/172/172 171/171/171 169/169/169
f 175/175/175 174/174/174 173/173/173
f 176/176/176 175/175/175 173/173/173
f 179/179/179 178/178/178 177/177/177
f 178/178/178 180/180/180 177/177/177
f 181/181/181 180/180/180 178/178/178
f 178/178/178 182/182/182 181/181/181
f 181/181/181 183/183/183 180/180/180
f 181/181/181 182/182/182 184/184/184
f 181/181/181 185/185/185 183/183/183
f 186/186/186 181/181/181 184/184/184
f 183/183/183 185/185/185 187/187/187
f 187/187/187 186/186/186 184/184/184
f 188/188/188 183/183/183 187/187/187
f 184/184/184 188/188/188 187/187/187
f 191/191/191 190/190/190 189/189/189
f 192/192/192 191/191/191 189/189/189
f 195/195/195 194/194/194 193/193/193
f 196/196/196 195/195/195 193/193/193
f 199/199/199 198/198/198 197/197/197
f 200/200/200 199/199/199 197/197/197
f 203/203/203 202/202/202 201/201/201
f 204/204/204 203/203/203 201/201/201
f 207/207/207 206/206/206 205/205/205
f 208/208/208 207/207/207 205/205/205
f 211/211/211 210/210/210 209/209/209
f 212/212/212 211/211/211 209/209/209
f 215/215/215 214/214/214 213/213/213
f 216/216/216 215/215/215 213/213/213
f 219/219/219 218/218/218 217/217/217
f 220/220/220 219/219/219 217/217/217
f 223/223/223 222/222/222 221/221/221
f 224/224/224 223/223/223 221/221/221
f 227/227/227 226/226/226 225/225/225
f 228/228/228 227/227/227 225/225/225
f 231/231/231 230/230/230 229/229/229
f 232/232/232 231/231/231 229/229/229
f 235/235/235 234/234/234 233/233/233
f 236/236/236 235/235/235 233/233/233
f 239/239/239 238/238/238 237/237/237
f 240/240/240 239/239/239 237/237/237
f 243/243/243 242/242/242 241/241/241
f 244/244/244 243/243/243 241/241/241
f 247/247/247 246/246/246 245/245/245
f 248/248/248 247/247/247 245/245/245
f 251/251/251 250/250/250 249/249/249
f 252/252/252 251/251/251 249/249/249
f 251/251/251 253/253/253 250/250/250
f 252/252/252 249/249/249 254/254/254
f 253/253/253 255/255/255 250/250/250
f 256/256/256 252/252/252 254/254/254
f 256/256/256 254/254/254 255/255/255
f 253/253/253 256/256/256 255/255/255
f 259/259/259 258/258/258 257/257/257
f 260/260/260 259/259/259 257/257/257
f 259/259/259 261/261/261 258/258/258
f 260/260/260 257/257/257 262/262/262
f 261/261/261 263/263/263 258/258/258
f 264/264/264 260/260/260 262/262/262
f 264/264/264 262/262/262 263/263/263
f 261/261/261 264/264/264 263/263/263
