mtllib Floor_ba021df2.mtl
g mesh_0662481f
v 2.64206 0.00061 1.46686
v 2.64206 -0.00023 3.90056
v -0.93169 -0.00023 3.90056
v -0.93169 0.00061 1.46686
v 2.85 -0.14613 4.08141
v 2.85 -0.1444 -0.09964
v -1.1713 -0.1444 -0.09964
v -1.1713 -0.14613 4.08141
v 2.85 -0.14613 4.08141
v 2.85 -0.0004 4.08146
v 2.85 0.00133 -0.09959
v 2.85 -0.1444 -0.09964
v -1.1713 -0.0004 4.08146
v -1.1713 -0.14613 4.08141
v -1.1713 -0.1444 -0.09964
v -1.1713 0.00133 -0.09959
v 2.85 -0.1444 -0.09964
v 2.85 0.00133 -0.09959
v -1.1713 0.00133 -0.09959
v -1.1713 -0.1444 -0.09964
v -1.1713 -0.14613 4.08141
v -1.1713 -0.0004 4.08146
v 2.85 -0.0004 4.08146
v 2.85 -0.14613 4.08141
v 2.85 0.00133 -0.09959
v 2.64206 0.00061 1.46686
v -0.93169 0.00061 1.46686
v -1.1713 0.00133 -0.09959
v 2.85 -0.0004 4.08146
v -0.93169 -0.00023 3.90056
v 2.64206 -0.00023 3.90056
v -1.1713 -0.0004 4.08146
vn -9.464374E-07 0.5784647 0.0002270266
vn -1.100355E-06 0.5784647 0.0002359717
vn 1.052529E-06 0.5784647 0.0002367077
vn 9.252453E-07 0.5784647 0.0002271655
vn 0 -0.5762358 -0.0002389022
vn 0 -0.5762358 -0.0002389022
vn 0 -0.5762358 -0.0002389022
vn 0 -0.5762358 -0.0002389022
vn 0.5773503 0.00111361 0
vn 0.5773503 0.00111361 0
vn 0.5773503 0.00111361 0
vn 0.5773503 0.00111361 0
vn -0.5773503 0.001113974 0
vn -0.5773503 0.001113974 0
vn -0.5773503 0.001113974 0
vn -0.5773503 0.001113974 0
vn 0 0.001313995 -0.5773503
vn 0 0.001313995 -0.5773503
vn 0 0.001313995 -0.5773503
vn 0 0.001313995 -0.5773503
vn 0 0.0009125032 0.5773503
vn 0 0.0009125032 0.5773503
vn 0 0.0009125032 0.5773503
vn 0 0.0009125032 0.5773503
vn -1.240873E-07 0.5784646 0.0002642409
vn -9.464374E-07 0.5784647 0.0002270266
vn 9.252453E-07 0.5784647 0.0002271655
vn 1.441708E-07 0.5784646 0.0002640978
vn -6.438479E-06 0.5784646 0.0003707915
vn 1.052529E-06 0.5784647 0.0002367077
vn -1.100355E-06 0.5784647 0.0002359717
vn 6.38726E-06 0.5784646 0.0003457472
vt 1.941929 1.913087
vt 1.941929 -0.9896693
vt -1.029951 -0.9896693
vt -1.078752 1.913087
vt 2.759354 2.72948
vt 2.759354 -2.208777
vt -0.6453434 -2.208777
vt -0.6453434 2.72948
vt 1.336128 -2.208719
vt 1.212738 -2.208719
vt 1.212486 2.72943
vt 1.335874 2.72943
vt 1.355803 -2.208716
vt 1.232414 -2.208716
vt 1.232647 2.729427
vt 1.356035 2.729427
vt 1.2777 -1.529763
vt 1.154311 -1.529763
vt 1.154311 3.219708
vt 1.2777 3.219708
vt 1.134705 3.219705
vt 1.258093 3.219705
vt 1.258093 -1.529753
vt 1.134705 -1.529753
vt 3.134484 3.325426
vt 2.958426 1.475278
vt -0.0673362 1.475278
vt -0.2702016 3.325426
vt 3.134484 -1.612857
vt -0.0673362 -1.399203
vt 2.958426 -1.399203
vt -0.2702016 -1.612857
usemtl bathroomTilesGrey
f 3/3/3 2/2/2 1/1/1
f 4/4/4 3/3/3 1/1/1
usemtl bathroomTilesGrey 1
f 7/7/7 6/6/6 5/5/5
f 8/8/8 7/7/7 5/5/5
f 11/11/11 10/10/10 9/9/9
f 12/12/12 11/11/11 9/9/9
f 15/15/15 14/14/14 13/13/13
f 16/16/16 15/15/15 13/13/13
f 19/19/19 18/18/18 17/17/17
f 20/20/20 19/19/19 17/17/17
f 23/23/23 22/22/22 21/21/21
f 24/24/24 23/23/23 21/21/21
f 27/27/27 26/26/26 25/25/25
f 28/28/28 27/27/27 25/25/25
f 25/25/25 26/26/26 29/29/29
f 27/27/27 28/28/28 30/30/30
f 26/26/26 31/31/31 29/29/29
f 28/28/28 32/32/32 30/30/30
f 32/32/32 29/29/29 31/31/31
f 30/30/30 32/32/32 31/31/31
g FP411:polySurface106_cfe8041c
v 1.6948 0.00082 4.03797
v 1.69115 0.00447 4.03797
v 1.6948 0.00447 4.04162
v 1.6948 0.02105 4.04163
v 1.69115 0.02105 4.03798
v 1.6948 0.0247 4.03798
v 1.6948 0.00126 2.77721
v 1.6948 0.00491 2.77356
v 1.69115 0.00491 2.77721
v 1.6948 0.02513 2.77722
v 1.69115 0.02149 2.77722
v 1.6948 0.02149 2.77357
v 2.82134 0.00082 4.03797
v 2.82134 0.00447 4.04162
v 2.82499 0.00447 4.03797
v 2.82134 0.0247 4.03798
v 2.82499 0.02105 4.03798
v 2.82134 0.02105 4.04163
v 2.82134 0.00126 2.77721
v 2.82499 0.00491 2.77721
v 2.82134 0.00491 2.77356
v 2.82134 0.02513 2.77722
v 2.82134 0.02149 2.77357
v 2.82499 0.02149 2.77722
v 2.82134 0.00447 4.04162
v 1.6948 0.00447 4.04162
v 1.6948 0.02105 4.04163
v 2.82134 0.02105 4.04163
v 2.82499 0.00491 2.77721
v 2.82499 0.00447 4.03797
v 2.82499 0.02105 4.03798
v 2.82499 0.02149 2.77722
v 2.82134 0.02513 2.77722
v 2.82134 0.0247 4.03798
v 1.6948 0.0247 4.03798
v 1.6948 0.02513 2.77722
v 1.69115 0.00447 4.03797
v 1.69115 0.00491 2.77721
v 1.69115 0.02149 2.77722
v 1.69115 0.02105 4.03798
v 1.6948 0.00491 2.77356
v 2.82134 0.00491 2.77356
v 2.82134 0.02149 2.77357
v 1.6948 0.02149 2.77357
v 1.6948 0.00126 2.77721
v 1.69115 0.00491 2.77721
v 1.69115 0.00447 4.03797
v 1.6948 0.00082 4.03797
v 1.6948 0.00447 4.04162
v 1.69115 0.00447 4.03797
v 1.69115 0.02105 4.03798
v 1.6948 0.02105 4.04163
v 1.6948 0.0247 4.03798
v 1.69115 0.02105 4.03798
v 1.69115 0.02149 2.77722
v 1.6948 0.02513 2.77722
v 1.6948 0.02149 2.77357
v 1.69115 0.02149 2.77722
v 1.69115 0.00491 2.77721
v 1.6948 0.00491 2.77356
v 2.82134 0.00126 2.77721
v 2.82134 0.00491 2.77356
v 1.6948 0.00491 2.77356
v 1.6948 0.00126 2.77721
v 1.6948 0.02513 2.77722
v 1.6948 0.02149 2.77357
v 2.82134 0.02149 2.77357
v 2.82134 0.02513 2.77722
v 2.82499 0.02149 2.77722
v 2.82134 0.02149 2.77357
v 2.82134 0.00491 2.77356
v 2.82499 0.00491 2.77721
v 2.82134 0.00082 4.03797
v 2.82499 0.00447 4.03797
v 2.82499 0.00491 2.77721
v 2.82134 0.00126 2.77721
v 2.82134 0.02513 2.77722
v 2.82499 0.02149 2.77722
v 2.82499 0.02105 4.03798
v 2.82134 0.0247 4.03798
v 2.82134 0.02105 4.04163
v 2.82499 0.02105 4.03798
v 2.82499 0.00447 4.03797
v 2.82134 0.00447 4.04162
v 1.6948 0.00082 4.03797
v 1.6948 0.00447 4.04162
v 2.82134 0.00447 4.04162
v 2.82134 0.00082 4.03797
v 2.82134 0.0247 4.03798
v 2.82134 0.02105 4.04163
v 1.6948 0.02105 4.04163
v 1.6948 0.0247 4.03798
v 1.6948 0.00126 2.77721
v 1.6948 0.00082 4.03797
v 2.82134 0.00082 4.03797
v 2.82134 0.00126 2.77721
vn -0.3003411 -0.3334446 0.3322143
vn -0.3003411 -0.3334446 0.3322143
vn -0.3003411 -0.3334446 0.3322143
vn -0.3003334 0.3332181 0.3324485
vn -0.3003334 0.3332181 0.3324485
vn -0.3003334 0.3332181 0.3324485
vn -0.3003411 -0.3332143 -0.3344446
vn -0.3003411 -0.3332143 -0.3344446
vn -0.3003411 -0.3332143 -0.3344446
vn -0.3003334 0.3334485 -0.3342181
vn -0.3003334 0.3334485 -0.3342181
vn -0.3003334 0.3334485 -0.3342181
vn 0.3663391 -0.3334427 0.3322181
vn 0.3663391 -0.3334427 0.3322181
vn 0.3663391 -0.3334427 0.3322181
vn 0.3663313 0.3332162 0.3324524
vn 0.3663313 0.3332162 0.3324524
vn 0.3663313 0.3332162 0.3324524
vn 0.3663391 -0.3332123 -0.3344485
vn 0.3663391 -0.3332123 -0.3344485
vn 0.3663391 -0.3332123 -0.3344485
vn 0.3663313 0.3334465 -0.334222
vn 0.3663313 0.3334465 -0.334222
vn 0.3663313 0.3334465 -0.334222
vn 0.033 -0.0001995179 0.5763503
vn 0.033 -0.0001995179 0.5763503
vn 0.033 -0.0001995179 0.5763503
vn 0.033 -0.0001995179 0.5763503
vn 0.6103503 0 -0.001
vn 0.6103503 0 -0.001
vn 0.6103503 0 -0.001
vn 0.6103503 0 -0.001
vn 0.033 0.5773503 -0.0008004821
vn 0.033 0.5773503 -0.0008004821
vn 0.033 0.5773503 -0.0008004821
vn 0.033 0.5773503 -0.0008004821
vn -0.5443503 0 -0.001
vn -0.5443503 0 -0.001
vn -0.5443503 0 -0.001
vn -0.5443503 0 -0.001
vn 0.033 0.0001995179 -0.5783502
vn 0.033 0.0001995179 -0.5783502
vn 0.033 0.0001995179 -0.5783502
vn 0.033 0.0001995179 -0.5783502
vn -0.3752482 -0.4082483 -0.001141081
vn -0.3752482 -0.4082483 -0.001141081
vn -0.3752482 -0.4082483 -0.001141081
vn -0.3752482 -0.4082483 -0.001141081
vn -0.3752475 -0.0001410808 0.407249
vn -0.3752475 -0.0001410808 0.407249
vn -0.3752475 -0.0001410808 0.407249
vn -0.3752475 -0.0001410808 0.407249
vn -0.3752482 0.4082483 -0.0008589196
vn -0.3752482 0.4082483 -0.0008589196
vn -0.3752482 0.4082483 -0.0008589196
vn -0.3752482 0.4082483 -0.0008589196
vn -0.3752475 0.0001410808 -0.409249
vn -0.3752475 0.0001410808 -0.409249
vn -0.3752475 0.0001410808 -0.409249
vn -0.3752475 0.0001410808 -0.409249
vn 0.033 -0.4081064 -0.4093902
vn 0.033 -0.4081064 -0.4093902
vn 0.033 -0.4081064 -0.4093902
vn 0.033 -0.4081064 -0.4093902
vn 0.033 0.4083884 -0.4091081
vn 0.033 0.4083884 -0.4091081
vn 0.033 0.4083884 -0.4091081
vn 0.033 0.4083884 -0.4091081
vn 0.4412467 0.000141081 -0.4092498
vn 0.4412467 0.000141081 -0.4092498
vn 0.4412467 0.000141081 -0.4092498
vn 0.4412467 0.000141081 -0.4092498
vn 0.4412482 -0.4082483 -0.001141081
vn 0.4412482 -0.4082483 -0.001141081
vn 0.4412482 -0.4082483 -0.001141081
vn 0.4412482 -0.4082483 -0.001141081
vn 0.4412482 0.4082483 -0.0008589196
vn 0.4412482 0.4082483 -0.0008589196
vn 0.4412482 0.4082483 -0.0008589196
vn 0.4412482 0.4082483 -0.0008589196
vn 0.4412475 -0.0001410808 0.407249
vn 0.4412475 -0.0001410808 0.407249
vn 0.4412475 -0.0001410808 0.407249
vn 0.4412475 -0.0001410808 0.407249
vn 0.033 -0.4083913 0.4071052
vn 0.033 -0.4083913 0.4071052
vn 0.033 -0.4083913 0.4071052
vn 0.033 -0.4083913 0.4071052
vn 0.033 0.4081092 0.4073873
vn 0.033 0.4081092 0.4073873
vn 0.033 0.4081092 0.4073873
vn 0.033 0.4081092 0.4073873
vn 0.033 -0.5773503 -0.001199518
vn 0.033 -0.5773503 -0.001199518
vn 0.033 -0.5773503 -0.001199518
vn 0.033 -0.5773503 -0.001199518
vt 0.3323857 0.4818932
vt 0.3275842 0.4818932
vt 0.3323857 0.4770917
vt 0.3323849 0.4770926
vt 0.3275851 0.4818923
vt 0.3323849 0.4818923
vt 0.3323855 0.109298
vt 0.3323855 0.1140991
vt 0.3275844 0.109298
vt 0.3323853 0.1092982
vt 0.3275846 0.1092982
vt 0.3323853 0.1140989
vt 0.8926772 0.4984566
vt 0.8926769 0.5032595
vt 0.8974798 0.5032595
vt 0.8926788 0.5133714
vt 0.8974781 0.508572
vt 0.8926786 0.508572
vt 0.8926784 0.4984578
vt 0.8974785 0.5032582
vt 0.8926784 0.5032582
vt 0.8926789 0.5133714
vt 0.8926789 0.508572
vt 0.8974781 0.508572
vt 1.175803 0.4976251
vt 0.04926038 0.4976251
vt 0.04926038 0.5142046
vt 1.175803 0.5142046
vt 0.4259799 0.4976251
vt -0.8347889 0.4976251
vt -0.8347889 0.5142046
vt 0.4259799 0.5142046
vt 1.175801 0.4259777
vt 1.175801 -0.8347868
vt 0.04926211 -0.8347868
vt 0.04926211 0.4259777
vt 0.1652128 0.4976251
vt 1.425979 0.4976251
vt 1.425979 0.5142046
vt 0.1652128 0.5142046
vt 0.04926002 0.4976251
vt 1.175803 0.4976251
vt 1.175803 0.5142046
vt 0.04926002 0.5142046
vt 0.332154 0.5452591
vt 0.3278159 0.5452591
vt 0.3278159 -0.9540681
vt 0.332154 -0.9540681
vt 0.3321542 0.4960558
vt 0.3278158 0.4960558
vt 0.3278158 0.5157738
vt 0.3321542 0.5157738
vt 0.3321539 0.04594147
vt 0.327816 0.04594147
vt 0.327816 1.54525
vt 0.3321539 1.54525
vt 0.3321542 0.5157738
vt 0.3278158 0.5157738
vt 0.3278158 0.4960558
vt 0.3321542 0.4960558
vt 1.282398 0.1095295
vt 1.282398 0.1138676
vt -0.0573343 0.1138676
vt -0.0573343 0.1095295
vt -0.05729884 0.1095296
vt -0.05729884 0.1138675
vt 1.282362 0.1138675
vt 1.282362 0.1095296
vt 0.8972478 0.5157748
vt 0.8929092 0.5157748
vt 0.8929092 0.4960549
vt 0.8972478 0.4960549
vt 0.8929095 0.04593265
vt 0.8972474 0.04593265
vt 0.8972474 1.545259
vt 0.8929095 1.545259
vt 0.8929096 0.5452547
vt 0.8972474 0.5452547
vt 0.8972474 -0.9540638
vt 0.8929096 -0.9540638
vt 0.8929096 0.5157716
vt 0.8972471 0.5157716
vt 0.8972471 0.496058
vt 0.8929096 0.496058
vt -0.05731165 0.4816614
vt -0.05731165 0.4773235
vt 1.282375 0.4773235
vt 1.282375 0.4816614
vt 1.282367 0.4816614
vt 1.282366 0.4773235
vt -0.05730325 0.4773235
vt -0.05730325 0.4816614
vt 0.04926229 0.4259775
vt 0.04926229 -0.8347865
vt 1.175801 -0.8347865
vt 1.175801 0.4259775
usemtl marbleBase3
f 35/35/35 34/34/34 33/33/33
f 38/38/38 37/37/37 36/36/36
f 41/41/41 40/40/40 39/39/39
f 44/44/44 43/43/43 42/42/42
f 47/47/47 46/46/46 45/45/45
f 50/50/50 49/49/49 48/48/48
f 53/53/53 52/52/52 51/51/51
f 56/56/56 55/55/55 54/54/54
f 59/59/59 58/58/58 57/57/57
f 60/60/60 59/59/59 57/57/57
f 63/63/63 62/62/62 61/61/61
f 64/64/64 63/63/63 61/61/61
f 67/67/67 66/66/66 65/65/65
f 68/68/68 67/67/67 65/65/65
f 71/71/71 70/70/70 69/69/69
f 72/72/72 71/71/71 69/69/69
f 75/75/75 74/74/74 73/73/73
f 76/76/76 75/75/75 73/73/73
f 79/79/79 78/78/78 77/77/77
f 80/80/80 79/79/79 77/77/77
f 83/83/83 82/82/82 81/81/81
f 84/84/84 83/83/83 81/81/81
f 87/87/87 86/86/86 85/85/85
f 88/88/88 87/87/87 85/85/85
f 91/91/91 90/90/90 89/89/89
f 92/92/92 91/91/91 89/89/89
f 95/95/95 94/94/94 93/93/93
f 96/96/96 95/95/95 93/93/93
f 99/99/99 98/98/98 97/97/97
f 100/100/100 99/99/99 97/97/97
f 103/103/103 102/102/102 101/101/101
f 104/104/104 103/103/103 101/101/101
f 107/107/107 106/106/106 105/105/105
f 108/108/108 107/107/107 105/105/105
f 111/111/111 110/110/110 109/109/109
f 112/112/112 111/111/111 109/109/109
f 115/115/115 114/114/114 113/113/113
f 116/116/116 115/115/115 113/113/113
f 119/119/119 118/118/118 117/117/117
f 120/120/120 119/119/119 117/117/117
f 123/123/123 122/122/122 121/121/121
f 124/124/124 123/123/123 121/121/121
f 127/127/127 126/126/126 125/125/125
f 128/128/128 127/127/127 125/125/125
