mtllib Cabinet_8bba9b0e.mtl
g CabinetDoorMesh_c4d226b8
v 0.00587 -0.14706 0.381
v 0.00511 -0.14573 0.38388
v 0.00511 -0.14706 0.38388
v 0.00587 -0.14706 0.381
v 0.00587 -0.14573 0.381
v 0.00511 -0.14573 0.38388
v 0.00952 -0.14706 0.38675
v 0.00952 -0.14573 0.38675
v 0.01027 -0.14573 0.38388
v 0.00952 -0.14706 0.38675
v 0.01027 -0.14573 0.38388
v 0.01027 -0.14706 0.38388
v -0.0139 -0.31394 -0.00209
v -0.00416 -0.31394 -0.00209
v -0.00417 0.31395 0
v -0.0139 0.31395 0
v -0.0139 0.31395 0
v -0.00417 0.31395 0
v -0.00416 0.31395 0.41409
v -0.0139 0.31395 0.41409
v -0.0139 -0.31394 0.41409
v -0.00416 -0.31394 0.41409
v -0.00416 -0.31394 -0.00209
v -0.0139 -0.31394 -0.00209
v -0.0139 0.31395 0.41409
v -0.00416 0.31395 0.41409
v -0.00416 -0.31394 0.41409
v -0.0139 -0.31394 0.41409
v -0.00081 0.3103 0.41103
v -0.00416 0.31395 0.41409
v -0.00417 0.31395 0
v -0.00081 0.3103 0.00306
v -0.00416 0.31395 0.41409
v -0.00081 0.3103 0.41103
v -0.00081 -0.31029 0.41103
v -0.00416 -0.31394 0.41409
v -0.00081 -0.31029 0.00099
v -0.00416 -0.31394 -0.00209
v -0.00416 -0.31394 0.41409
v -0.00081 -0.31029 0.41103
v -0.00081 0.3103 0.00306
v -0.00417 0.31395 0
v -0.00416 -0.31394 -0.00209
v -0.00081 -0.31029 0.00099
v 0.01094 -0.23816 0.38595
v 0.01094 -0.23752 0.38388
v 0.01094 -0.23816 0.3818
v 0.01094 -0.23971 0.38681
v 0.01094 -0.23971 0.38094
v 0.01094 -0.24127 0.38595
v 0.01094 -0.24127 0.3818
v 0.01094 -0.24191 0.38388
v 0.01094 -0.24127 0.3818
v -0.01031 -0.24127 0.3818
v -0.01031 -0.24191 0.38388
v 0.01094 -0.24191 0.38388
v 0.01094 -0.24191 0.38388
v -0.01031 -0.24191 0.38388
v -0.01031 -0.24127 0.38595
v 0.01094 -0.24127 0.38595
v 0.01094 -0.24127 0.38595
v -0.01031 -0.24127 0.38595
v -0.01031 -0.23971 0.38681
v 0.01094 -0.23971 0.38681
v 0.01094 -0.23971 0.38681
v -0.01031 -0.23971 0.38681
v -0.01031 -0.23816 0.38595
v 0.01094 -0.23816 0.38595
v 0.01094 -0.23816 0.38595
v -0.01031 -0.23816 0.38595
v -0.01031 -0.23752 0.38388
v 0.01094 -0.23752 0.38388
v 0.01094 -0.23752 0.38388
v -0.01031 -0.23752 0.38388
v -0.01031 -0.23816 0.3818
v 0.01094 -0.23816 0.3818
v 0.01094 -0.23971 0.38094
v -0.01031 -0.23971 0.38094
v -0.01031 -0.24127 0.3818
v 0.01094 -0.24127 0.3818
v 0.01094 -0.23816 0.3818
v -0.01031 -0.23971 0.38094
v 0.01094 -0.23971 0.38094
v -0.01031 -0.23816 0.3818
v 0.01094 -0.17681 0.38595
v 0.01094 -0.17617 0.38388
v 0.01094 -0.17681 0.3818
v 0.01094 -0.17837 0.38681
v 0.01094 -0.17837 0.38094
v 0.01094 -0.17992 0.38595
v 0.01094 -0.17992 0.3818
v 0.01094 -0.18056 0.38388
v 0.01094 -0.17992 0.3818
v -0.01031 -0.17992 0.3818
v -0.01031 -0.18056 0.38388
v 0.01094 -0.18056 0.38388
v 0.01094 -0.18056 0.38388
v -0.01031 -0.18056 0.38388
v -0.01031 -0.17992 0.38595
v 0.01094 -0.17992 0.38595
v 0.01094 -0.17992 0.38595
v -0.01031 -0.17992 0.38595
v -0.01031 -0.17837 0.38681
v 0.01094 -0.17837 0.38681
v 0.01094 -0.17837 0.38681
v -0.01031 -0.17837 0.38681
v -0.01031 -0.17681 0.38595
v 0.01094 -0.17681 0.38595
v 0.01094 -0.17681 0.38595
v -0.01031 -0.17681 0.38595
v -0.01031 -0.17617 0.38388
v 0.01094 -0.17617 0.38388
v 0.01094 -0.17617 0.38388
v -0.01031 -0.17617 0.38388
v -0.01031 -0.17681 0.3818
v 0.01094 -0.17681 0.3818
v 0.01094 -0.17837 0.38094
v -0.01031 -0.17837 0.38094
v -0.01031 -0.17992 0.3818
v 0.01094 -0.17992 0.3818
v 0.01094 -0.17681 0.3818
v -0.01031 -0.17837 0.38094
v 0.01094 -0.17837 0.38094
v -0.01031 -0.17681 0.3818
v 0.00511 -0.14706 0.38388
v 0.00511 -0.14573 0.38388
v 0.00587 -0.14573 0.38675
v 0.00587 -0.14706 0.38675
v 0.0095 -0.17764 0.381
v 0.00587 -0.14706 0.381
v 0.00511 -0.14706 0.38388
v 0.00874 -0.17764 0.38388
v 0.00874 -0.17764 0.38388
v 0.00511 -0.14706 0.38388
v 0.00587 -0.14706 0.38675
v 0.0095 -0.17764 0.38675
v 0.0095 -0.23935 0.381
v 0.0095 -0.17764 0.381
v 0.00874 -0.17764 0.38388
v 0.00874 -0.23935 0.38388
v 0.00874 -0.23935 0.38388
v 0.00874 -0.17764 0.38388
v 0.0095 -0.17764 0.38675
v 0.0095 -0.23935 0.38675
v 0.00511 -0.26991 0.38388
v 0.00874 -0.23935 0.38388
v 0.0095 -0.23935 0.38675
v 0.00587 -0.26991 0.38675
v 0.00587 -0.26991 0.381
v 0.0095 -0.23935 0.381
v 0.00874 -0.23935 0.38388
v 0.00511 -0.26991 0.38388
v 0.00587 -0.27198 0.381
v 0.00587 -0.26991 0.381
v 0.00511 -0.26991 0.38388
v 0.00511 -0.27198 0.38388
v 0.00511 -0.27198 0.38388
v 0.00511 -0.26991 0.38388
v 0.00587 -0.26991 0.38675
v 0.00587 -0.27198 0.38675
v 0.00587 -0.14706 0.38675
v 0.00587 -0.14573 0.38675
v 0.00769 -0.14573 0.38794
v 0.00769 -0.14706 0.38794
v 0.00769 -0.14706 0.38794
v 0.00769 -0.14573 0.38794
v 0.00952 -0.14573 0.38675
v 0.00952 -0.14706 0.38675
v 0.01132 -0.17764 0.38794
v 0.00769 -0.14706 0.38794
v 0.00952 -0.14706 0.38675
v 0.01315 -0.17764 0.38675
v 0.01132 -0.23935 0.38794
v 0.01132 -0.17764 0.38794
v 0.01315 -0.17764 0.38675
v 0.01315 -0.23935 0.38675
v 0.0095 -0.23935 0.38675
v 0.01132 -0.17764 0.38794
v 0.01132 -0.23935 0.38794
v 0.0095 -0.17764 0.38675
v 0.0095 -0.17764 0.38675
v 0.00587 -0.14706 0.38675
v 0.00769 -0.14706 0.38794
v 0.01132 -0.17764 0.38794
v 0.00587 -0.26991 0.38675
v 0.0095 -0.23935 0.38675
v 0.01132 -0.23935 0.38794
v 0.00769 -0.26991 0.38794
v 0.00769 -0.26991 0.38794
v 0.01132 -0.23935 0.38794
v 0.01315 -0.23935 0.38675
v 0.00952 -0.26991 0.38675
v 0.00769 -0.27198 0.38794
v 0.00769 -0.26991 0.38794
v 0.00952 -0.26991 0.38675
v 0.00952 -0.27198 0.38675
v 0.00587 -0.27198 0.38675
v 0.00587 -0.26991 0.38675
v 0.00769 -0.26991 0.38794
v 0.00769 -0.27198 0.38794
v 0.01027 -0.14706 0.38388
v 0.01027 -0.14573 0.38388
v 0.00952 -0.14573 0.381
v 0.00952 -0.14706 0.381
v 0.01391 -0.17764 0.38388
v 0.01027 -0.14706 0.38388
v 0.00952 -0.14706 0.381
v 0.01315 -0.17764 0.381
v 0.01391 -0.23935 0.38388
v 0.01391 -0.17764 0.38388
v 0.01315 -0.17764 0.381
v 0.01315 -0.23935 0.381
v 0.01315 -0.23935 0.38675
v 0.01391 -0.17764 0.38388
v 0.01391 -0.23935 0.38388
v 0.01315 -0.17764 0.38675
v 0.01315 -0.17764 0.38675
v 0.00952 -0.14706 0.38675
v 0.01027 -0.14706 0.38388
v 0.01391 -0.17764 0.38388
v 0.00952 -0.26991 0.38675
v 0.01315 -0.23935 0.38675
v 0.01391 -0.23935 0.38388
v 0.01027 -0.26991 0.38388
v 0.01027 -0.26991 0.38388
v 0.01391 -0.23935 0.38388
v 0.01315 -0.23935 0.381
v 0.00952 -0.26991 0.381
v 0.01027 -0.27198 0.38388
v 0.01027 -0.26991 0.38388
v 0.00952 -0.26991 0.381
v 0.00952 -0.27198 0.381
v 0.00952 -0.27198 0.38675
v 0.00952 -0.26991 0.38675
v 0.01027 -0.26991 0.38388
v 0.01027 -0.27198 0.38388
v 0.00952 -0.14706 0.381
v 0.00952 -0.14573 0.381
v 0.00769 -0.14573 0.37981
v 0.00769 -0.14706 0.37981
v 0.00769 -0.14706 0.37981
v 0.00769 -0.14573 0.37981
v 0.00587 -0.14573 0.381
v 0.00587 -0.14706 0.381
v 0.01132 -0.17764 0.37981
v 0.00769 -0.14706 0.37981
v 0.00587 -0.14706 0.381
v 0.0095 -0.17764 0.381
v 0.01132 -0.23935 0.37981
v 0.01132 -0.17764 0.37981
v 0.0095 -0.17764 0.381
v 0.0095 -0.23935 0.381
v 0.01315 -0.23935 0.381
v 0.01132 -0.17764 0.37981
v 0.01132 -0.23935 0.37981
v 0.01315 -0.17764 0.381
v 0.01315 -0.17764 0.381
v 0.00952 -0.14706 0.381
v 0.00769 -0.14706 0.37981
v 0.01132 -0.17764 0.37981
v 0.00952 -0.26991 0.381
v 0.01315 -0.23935 0.381
v 0.01132 -0.23935 0.37981
v 0.00769 -0.26991 0.37981
v 0.00769 -0.26991 0.37981
v 0.01132 -0.23935 0.37981
v 0.0095 -0.23935 0.381
v 0.00587 -0.26991 0.381
v 0.00769 -0.27198 0.37981
v 0.00769 -0.26991 0.37981
v 0.00587 -0.26991 0.381
v 0.00587 -0.27198 0.381
v 0.00952 -0.27198 0.381
v 0.00952 -0.26991 0.381
v 0.00769 -0.26991 0.37981
v 0.00769 -0.27198 0.37981
v 0.00952 -0.14573 0.38675
v 0.00769 -0.14573 0.38794
v 0.00587 -0.14573 0.38675
v 0.01027 -0.14573 0.38388
v 0.00511 -0.14573 0.38388
v 0.00952 -0.14573 0.381
v 0.00587 -0.14573 0.381
v 0.00769 -0.14573 0.37981
v 0.00587 -0.27198 0.38675
v 0.00769 -0.27198 0.38794
v 0.00952 -0.27198 0.38675
v 0.00511 -0.27198 0.38388
v 0.01027 -0.27198 0.38388
v 0.00587 -0.27198 0.381
v 0.00952 -0.27198 0.381
v 0.00769 -0.27198 0.37981
v -0.00081 0.27519 0.06826
v -0.0139 0.27558 0.06801
v -0.0139 0.27558 0.3454
v -0.00081 0.27519 0.34552
v -0.00081 0.27519 0.34552
v -0.0139 0.27558 0.3454
v -0.0139 -0.27557 0.3454
v -0.00081 -0.27518 0.34552
v -0.00081 -0.27518 0.34552
v -0.0139 -0.27557 0.3454
v -0.0139 -0.27557 0.06661
v -0.00081 -0.27518 0.0668
v -0.00081 -0.27518 0.0668
v -0.0139 -0.27557 0.06661
v -0.0139 0.27558 0.06801
v -0.00081 0.27519 0.06826
v -0.00081 0.27519 0.34552
v -0.00081 0.3103 0.41103
v -0.00081 0.3103 0.00306
v -0.00081 0.27519 0.06826
v -0.00081 -0.27518 0.34552
v -0.00081 -0.31029 0.00099
v -0.00081 -0.31029 0.41103
v -0.00081 -0.27518 0.0668
v -0.0139 -0.31394 0.41409
v -0.0139 -0.27557 0.3454
v -0.0139 0.27558 0.3454
v -0.0139 0.31395 0.41409
v -0.0139 -0.31394 -0.00209
v -0.0139 0.27558 0.06801
v -0.0139 -0.27557 0.06661
v -0.0139 0.31395 0
vn -0.9670902 -3.539233E-05 -0.254434
vn -0.9670907 -1.291862E-05 -0.2544317
vn -0.9670911 0 -0.2544302
vn -0.9670902 -3.539233E-05 -0.254434
vn -0.9670898 -4.831101E-05 -0.2544354
vn -0.9670907 -1.291862E-05 -0.2544317
vn 0.9670773 0 0.254483
vn 0.9670789 0 0.2544766
vn 0.9670743 0 0.2544941
vn 0.9670773 0 0.254483
vn 0.9670743 0 0.2544941
vn 0.9670727 0 0.2545004
vn 0 0.003329323 -0.9999945
vn 0 0.003329323 -0.9999945
vn 0 0.00332934 -0.9999945
vn 0 0.003329339 -0.9999945
vn -7.838892E-06 1 3.672832E-07
vn -7.838892E-06 1 3.786112E-07
vn -7.838986E-06 1 -3.672876E-07
vn -7.838987E-06 1 -3.786158E-07
vn 0 -1 0
vn 0 -1 0
vn 0 -1 0
vn 0 -1 0
vn -7.939633E-06 0 1
vn -8.018753E-06 0 1
vn 0 0 1
vn 0 0 1
vn 0.7357832 0.6772172 -3.705844E-07
vn 0.7357832 0.6772172 -3.716084E-07
vn 0.7357783 0.6772225 -1.907895E-07
vn 0.7357783 0.6772225 -1.885901E-07
vn 0.674306 0 0.7384521
vn 0.6743056 0 0.7384524
vn 0.6743566 0 0.7384058
vn 0.6743568 0 0.7384056
vn 0.7357755 -0.6772255 -1.394524E-07
vn 0.7357757 -0.6772254 -1.386583E-07
vn 0.7357625 -0.6772397 -2.797576E-07
vn 0.7357623 -0.6772399 -2.814678E-07
vn 0.6742986 0.002458671 -0.7384548
vn 0.6742985 0.002458676 -0.7384548
vn 0.6743041 0.002457054 -0.7384497
vn 0.6743042 0.002457039 -0.7384496
vn 1 -2.023332E-06 0
vn 1 -3.574237E-05 0
vn 1 -5.992033E-06 5.560214E-06
vn 1 -8.25479E-07 4.658978E-06
vn 1 -8.252648E-07 4.658274E-06
vn 1 2.274378E-06 5.561169E-06
vn 1 9.005322E-06 0
vn 1 3.575004E-05 0
vn -4.13239E-06 -0.9551485 -0.2961271
vn -4.13239E-06 -0.9551485 -0.2961271
vn -4.132391E-06 -0.9551485 -0.2961271
vn 0 -0.9551641 -0.2960772
vn 3.865576E-06 -0.9551252 0.2962024
vn 0 -0.955139 0.2961578
vn 2.678682E-07 -0.9551381 0.2961609
vn 4.133484E-06 -0.9551243 0.2962055
vn 0 -0.4840828 0.8750222
vn 0 -0.4840828 0.8750221
vn 0 -0.4840828 0.8750222
vn 0 -0.4841579 0.8749806
vn 0 0.484193 0.8749613
vn 0 0.4841902 0.8749627
vn 0 0.4841904 0.8749626
vn 0 0.4841932 0.8749612
vn 0 0.9551051 0.2962669
vn 0 0.9551051 0.296267
vn 0 0.9551051 0.296267
vn 4.133501E-06 0.9551239 0.2962067
vn 4.108212E-06 0.9551322 -0.2961798
vn 3.764868E-06 0.9551454 -0.2961375
vn 3.78867E-06 0.9551443 -0.2961403
vn 4.132013E-06 0.9551314 -0.2961827
vn -1.938882E-05 -0.4839206 -0.8751119
vn -4.403508E-06 -0.4839615 -0.8750893
vn -5.242653E-06 -0.4839591 -0.8750906
vn -2.022822E-05 -0.4839184 -0.8751131
vn 0 0.4839203 -0.8751121
vn 0 0.4839203 -0.8751121
vn 0 0.4839203 -0.8751121
vn 2.544576E-06 0.4839192 -0.8751126
vn 1 2.023368E-06 0
vn 1 3.573726E-05 0
vn 1 4.17988E-05 0
vn 1 -1.596702E-05 0
vn 1 9.222324E-06 0
vn 1 -3.960121E-05 0
vn 1 -3.491841E-05 0
vn 1 0 0
vn -1.34076E-05 -0.9551126 -0.296243
vn -1.340759E-05 -0.9551126 -0.296243
vn -1.34076E-05 -0.9551126 -0.296243
vn 0 -0.955131 -0.2961838
vn -1.159569E-05 -0.9551054 0.2962661
vn 0 -0.955088 0.2963226
vn -8.036397E-07 -0.9550892 0.2963186
vn -1.239937E-05 -0.9551066 0.2962622
vn -1.461794E-06 -0.4840032 0.8750662
vn -1.461794E-06 -0.4840032 0.8750662
vn -1.461794E-06 -0.4840033 0.8750662
vn -1.011404E-05 -0.4840023 0.8750668
vn 0 0.4839374 0.8751026
vn -1.150718E-06 0.4839365 0.8751032
vn -1.089692E-06 0.4839365 0.8751031
vn 0 0.4839374 0.8751026
vn 5.893577E-06 0.9551225 0.296211
vn 5.893577E-06 0.9551225 0.296211
vn 5.893576E-06 0.9551225 0.296211
vn 0 0.9551125 0.2962435
vn 1.159257E-05 0.9551318 -0.2961811
vn 0 0.9551438 -0.2961422
vn 8.037125E-07 0.955143 -0.296145
vn 1.239609E-05 0.955131 -0.2961839
vn -6.186336E-07 -0.4840835 -0.8750218
vn -1.166423E-05 -0.484069 -0.8750298
vn -1.104565E-05 -0.4840699 -0.8750293
vn 0 -0.4840843 -0.8750214
vn 0 0.48405 -0.8750403
vn 0 0.48405 -0.8750403
vn 0 0.48405 -0.8750403
vn -4.402301E-06 0.4841348 -0.8749935
vn -0.9670786 0 0.2544779
vn -0.9670786 0 0.2544779
vn -0.9670786 0 0.2544778
vn -0.9670848 -4.831559E-05 0.254454
vn -0.9607704 -0.1141165 -0.2527802
vn -0.9607704 -0.1141165 -0.2527802
vn -0.9607704 -0.1141165 -0.2527802
vn -0.9607795 -0.1141051 -0.2527505
vn -0.9607576 -0.1141196 0.2528275
vn -0.9607576 -0.1141196 0.2528275
vn -0.9607576 -0.1141196 0.2528275
vn -0.9607714 -0.1141058 0.2527806
vn -0.9670857 0 -0.2544509
vn -0.9670857 0 -0.2544509
vn -0.9670857 0 -0.2544509
vn -0.9670913 1.039543E-06 -0.2544298
vn -0.9670912 1.124691E-06 0.2544298
vn -0.9670912 1.124691E-06 0.2544298
vn -0.9670912 1.124691E-06 0.2544298
vn -0.9670708 1.039807E-06 0.2545074
vn -0.9607441 0.1142214 0.2528324
vn -0.9607441 0.1142214 0.2528323
vn -0.9607441 0.1142214 0.2528324
vn -0.9607579 0.114203 0.2527883
vn -0.9607614 0.1142097 -0.2527717
vn -0.9607614 0.1142097 -0.2527717
vn -0.9607614 0.1142097 -0.2527717
vn -0.9607617 0.1142101 -0.2527707
vn -0.9670836 0 -0.2544591
vn -0.9670836 0 -0.2544591
vn -0.9670836 0 -0.2544591
vn -0.9670916 0 -0.2544284
vn -0.9670815 0 0.2544668
vn -0.9670745 0 0.2544933
vn -0.9670856 0 0.2544512
vn -0.9670925 0 0.2544248
vn -0.5463163 -2.146737E-05 0.837579
vn -0.5462531 -3.293857E-05 0.8376202
vn -0.5463714 -1.146922E-05 0.837543
vn -0.5464345 0 0.8375018
vn 0.5464345 0 0.8375019
vn 0.5464345 0 0.8375018
vn 0.5464345 0 0.8375018
vn 0.5462648 0 0.8376126
vn 0.5452664 0.06474954 0.8357583
vn 0.5452664 0.06474954 0.8357583
vn 0.5452664 0.06474954 0.8357583
vn 0.5449923 0.06475608 0.8359366
vn 0.5462487 0 0.8376231
vn 0.5462487 0 0.8376231
vn 0.5462487 0 0.8376231
vn 0.5462569 1.417583E-06 0.8376177
vn -0.5461455 0 0.8376903
vn -0.5461455 0 0.8376903
vn -0.5461455 0 0.8376904
vn -0.5463913 2.298442E-06 0.83753
vn -0.5451291 -0.06475055 0.8358478
vn -0.5451291 -0.06475055 0.8358478
vn -0.5451291 -0.06475057 0.8358478
vn -0.5452001 -0.06474322 0.8358022
vn -0.5451545 0.06479651 0.8358276
vn -0.5451545 0.06479652 0.8358276
vn -0.5451546 0.06479651 0.8358276
vn -0.5450062 0.06481274 0.8359232
vn 0.5450684 -0.06479184 0.8358842
vn 0.5450684 -0.06479184 0.8358842
vn 0.5450683 -0.06479184 0.8358842
vn 0.5450732 -0.06480556 0.8358802
vn 0.5463564 -3.068403E-05 0.8375528
vn 0.546313 0 0.837581
vn 0.5463597 -3.293726E-05 0.8375507
vn 0.5464029 -6.361413E-05 0.8375224
vn -0.5461745 6.08387E-05 0.8376714
vn -0.5461746 6.083871E-05 0.8376714
vn -0.5461745 6.08387E-05 0.8376714
vn -0.5463131 0 0.837581
vn 0.967082 0 -0.2544654
vn 0.967082 0 -0.2544654
vn 0.967082 0 -0.2544654
vn 0.9670823 0 -0.2544642
vn 0.9607678 0.1141158 -0.25279
vn 0.9607678 0.1141158 -0.25279
vn 0.9607678 0.1141158 -0.25279
vn 0.9607762 0.1141026 -0.2527643
vn 0.9670827 -1.903071E-07 -0.2544619
vn 0.9670827 -1.903071E-07 -0.2544619
vn 0.9670827 -1.903071E-07 -0.254462
vn 0.9670912 -3.11863E-06 -0.25443
vn 0.9670871 -2.079221E-06 0.2544456
vn 0.9670871 -2.079221E-06 0.2544456
vn 0.9670871 -2.07922E-06 0.2544456
vn 0.9670785 1.068174E-06 0.2544784
vn 0.9607692 0.1141033 0.2527904
vn 0.9607692 0.1141033 0.2527904
vn 0.9607692 0.1141033 0.2527904
vn 0.9607617 0.1141163 0.252813
vn 0.9607579 -0.114203 0.2527883
vn 0.9607579 -0.114203 0.2527883
vn 0.9607579 -0.1142031 0.2527883
vn 0.9607462 -0.1142175 0.2528266
vn 0.9607631 -0.1142088 -0.2527659
vn 0.9607631 -0.1142088 -0.2527659
vn 0.9607631 -0.1142088 -0.2527659
vn 0.9607612 -0.1142164 -0.2527696
vn 0.9670938 0 -0.2544203
vn 0.9670944 0 -0.2544175
vn 0.9670933 0 -0.254422
vn 0.9670925 0 -0.2544248
vn 0.9670736 -2.613459E-05 0.2544969
vn 0.9670736 -2.613459E-05 0.2544969
vn 0.9670736 -2.61346E-05 0.2544969
vn 0.9670784 0 0.2544787
vn 0.5462871 0 -0.837598
vn 0.5462497 0 -0.8376224
vn 0.5463198 0 -0.8375767
vn 0.5463572 0 -0.8375522
vn -0.5463421 0 -0.8375621
vn -0.5463421 0 -0.8375621
vn -0.5463421 0 -0.8375621
vn -0.5462497 -1.646918E-05 -0.8376224
vn -0.5451306 -0.06474724 -0.8358471
vn -0.5451306 -0.06474724 -0.8358471
vn -0.5451306 -0.06474724 -0.8358471
vn -0.545125 -0.06475729 -0.83585
vn -0.5463192 -4.041422E-06 -0.8375771
vn -0.5463191 -4.041422E-06 -0.8375771
vn -0.5463192 -4.041422E-06 -0.8375771
vn -0.5462638 0 -0.8376132
vn 0.546319 -4.961278E-06 -0.8375771
vn 0.546319 -4.961278E-06 -0.8375771
vn 0.546319 -4.961278E-06 -0.8375771
vn 0.5462476 0 -0.8376237
vn 0.5450101 0.06475159 -0.8359253
vn 0.5450101 0.06475159 -0.8359253
vn 0.5450101 0.06475159 -0.8359253
vn 0.5452483 0.06474596 -0.8357704
vn 0.5451337 -0.06479707 -0.8358413
vn 0.5451337 -0.06479707 -0.8358413
vn 0.5451337 -0.06479707 -0.8358412
vn 0.5451256 -0.06480235 -0.8358461
vn -0.5450773 0.06479821 -0.8358779
vn -0.5450773 0.0647982 -0.835878
vn -0.5450772 0.06479821 -0.835878
vn -0.5452057 0.06479672 -0.8357943
vn -0.546308 0 -0.8375843
vn -0.5463033 0 -0.8375874
vn -0.5463083 0 -0.8375841
vn -0.546313 0 -0.837581
vn 0.5462937 0 -0.8375938
vn 0.5462937 0 -0.8375938
vn 0.5462937 0 -0.8375938
vn 0.546284 0 -0.8376001
vn 0 1 2.958072E-05
vn 0 1 -2.191733E-05
vn 0 1 3.892306E-06
vn 0 1 -6.923721E-06
vn 0 1 -6.924119E-06
vn 0 1 -1.451926E-05
vn 0 1 6.552529E-06
vn 0 1 2.192021E-05
vn 4.177431E-05 -1 7.61571E-06
vn 4.17747E-05 -1 6.576063E-05
vn 3.593409E-05 -1 2.365763E-05
vn 3.507568E-05 -1 -7.83638E-06
vn 2.60642E-05 -1 1.811957E-05
vn 2.272697E-05 -1 -4.878469E-06
vn 0 -1 4.469E-05
vn 0 -1 2.192021E-05
vn -0.02972235 -0.9995582 2.100665E-07
vn -0.02972235 -0.9995582 2.100665E-07
vn -0.02972235 -0.9995582 2.100665E-07
vn -0.02972235 -0.9995582 2.100665E-07
vn 0.009404876 0 -0.9999558
vn 0.009404876 0 -0.9999558
vn 0.009404876 0 -0.9999558
vn 0.009404877 0 -0.9999558
vn -0.02971804 0.9995583 -1.567433E-07
vn -0.02971804 0.9995583 -1.567432E-07
vn -0.02971804 0.9995583 -1.567433E-07
vn -0.02971804 0.9995583 -1.567432E-07
vn -0.01695858 -0.002591435 0.9998528
vn -0.01695858 -0.002591435 0.9998528
vn -0.01695858 -0.002591436 0.9998528
vn -0.01695858 -0.002591435 0.9998528
vn 1 6.391285E-07 -3.740196E-07
vn 1 6.391284E-07 -3.740196E-07
vn 1 6.391285E-07 -3.740196E-07
vn 1 2.507806E-06 -4.127571E-07
vn 1 0 0
vn 1 -1.907729E-06 -3.721367E-07
vn 1 0 0
vn 1 0 -4.106019E-07
vn -1 0 0
vn -1 0 0
vn -1 0 0
vn -1 0 0
vn -1 0 0
vn -1 3.450589E-07 4.413415E-07
vn -1 0 0
vn -1 3.450589E-07 4.413415E-07
vt 0.9710716 0.5634074
vt 0.9743123 0.564904
vt 0.9743123 0.5634074
vt 0.9710716 0.5634074
vt 0.9710716 0.564904
vt 0.9743123 0.564904
vt 0.9566125 0.5655478
vt 0.9566125 0.5670444
vt 0.9598529 0.5670444
vt 0.9566125 0.5655478
vt 0.9598529 0.5670444
vt 0.9598529 0.5655479
vt 0.002106494 0.6366085
vt 0.01183922 0.6366085
vt 0.01183918 0.008717984
vt 0.002106447 0.008717984
vt 0.9631349 0.4202923
vt 0.9728675 0.4202923
vt 0.9728678 0.006204739
vt 0.9631351 0.006204739
vt 0.9455944 0.4224079
vt 0.9553272 0.4224079
vt 0.955327 0.006228805
vt 0.9455943 0.006228805
vt 0.01984194 0.6366072
vt 0.02957465 0.6366072
vt 0.02957465 0.008719236
vt 0.01984194 0.008719236
vt 0.0424576 0.6371514
vt 0.03934993 0.6408487
vt 0.4590304 0.6408487
vt 0.4559358 0.6371514
vt 0.03934993 0.6408487
vt 0.0424576 0.6371514
vt 0.0424576 0.008174956
vt 0.03934993 0.004477769
vt 0.4580287 0.008174956
vt 0.4611492 0.004477769
vt 0.03934993 0.004477769
vt 0.0424576 0.008174956
vt 0.4559358 0.6371514
vt 0.4590304 0.6408487
vt 0.4611492 0.004477769
vt 0.4580287 0.008174956
vt 0.8472334 0.6530561
vt 0.8478762 0.6509834
vt 0.8472332 0.6489098
vt 0.845681 0.6539152
vt 0.845681 0.6480514
vt 0.8441287 0.6530561
vt 0.8441287 0.6489098
vt 0.8434858 0.6509834
vt 0.8769106 0.6479897
vt 0.8769108 0.669726
vt 0.8790322 0.669726
vt 0.8790322 0.6479897
vt 0.8790322 0.6479897
vt 0.8790322 0.669726
vt 0.8811531 0.669726
vt 0.8811529 0.6479897
vt 0.8965336 0.647496
vt 0.8965336 0.6702197
vt 0.8981942 0.6702197
vt 0.8981942 0.647496
vt 0.8981942 0.647496
vt 0.8981942 0.6702197
vt 0.8998546 0.6702197
vt 0.8998546 0.647496
vt 0.9453107 0.4312945
vt 0.9453107 0.4530418
vt 0.9474325 0.4530418
vt 0.9474325 0.4312945
vt 0.9474325 0.4312945
vt 0.9474325 0.4530418
vt 0.9495551 0.4530418
vt 0.9495551 0.4312945
vt 0.9075086 0.5689504
vt 0.9075084 0.5916723
vt 0.9091687 0.5916723
vt 0.9091687 0.5689505
vt 0.9058483 0.5689505
vt 0.9075084 0.5916723
vt 0.9075086 0.5689504
vt 0.9058482 0.5916723
vt 0.8366048 0.6530598
vt 0.8372488 0.6509836
vt 0.8366048 0.6489068
vt 0.83505 0.6539196
vt 0.83505 0.6480468
vt 0.8334954 0.6530598
vt 0.8334954 0.6489068
vt 0.8328516 0.6509836
vt 0.9349295 0.5694376
vt 0.9349295 0.5911852
vt 0.9370521 0.5911852
vt 0.9370521 0.5694376
vt 0.9370521 0.5694376
vt 0.9370521 0.5911852
vt 0.9391742 0.5911853
vt 0.9391742 0.5694376
vt 0.9151621 0.5689482
vt 0.9151624 0.5916746
vt 0.9168229 0.5916746
vt 0.9168227 0.5689482
vt 0.9168227 0.5689482
vt 0.9168229 0.5916746
vt 0.9184835 0.5916746
vt 0.9184833 0.5689482
vt 0.9245483 0.5694376
vt 0.9245483 0.5911853
vt 0.9266704 0.5911852
vt 0.9266704 0.5694376
vt 0.9266704 0.5694376
vt 0.9266704 0.5911852
vt 0.9287929 0.5911852
vt 0.9287931 0.5694376
vt 0.8888798 0.6474967
vt 0.8888795 0.670219
vt 0.8905398 0.670219
vt 0.8905399 0.6474967
vt 0.8872195 0.6474967
vt 0.8888795 0.670219
vt 0.8888798 0.6474967
vt 0.8872193 0.670219
vt 0.9743123 0.5634074
vt 0.9743123 0.564904
vt 0.9775527 0.564904
vt 0.9775527 0.5634074
vt 0.9710718 0.528934
vt 0.9710716 0.5634074
vt 0.9743123 0.5634074
vt 0.9743123 0.528934
vt 0.9743123 0.528934
vt 0.9743123 0.5634074
vt 0.9775527 0.5634074
vt 0.9775527 0.528934
vt 0.9710718 0.4593832
vt 0.9710718 0.528934
vt 0.9743123 0.528934
vt 0.9743125 0.4593832
vt 0.9743125 0.4593832
vt 0.9743123 0.528934
vt 0.9775527 0.528934
vt 0.9775529 0.4593832
vt 0.9743128 0.4249394
vt 0.9743125 0.4593832
vt 0.9775529 0.4593832
vt 0.9775529 0.4249394
vt 0.971072 0.4249394
vt 0.9710718 0.4593832
vt 0.9743125 0.4593832
vt 0.9743128 0.4249394
vt 0.971072 0.4226149
vt 0.971072 0.4249394
vt 0.9743128 0.4249394
vt 0.9743128 0.4226148
vt 0.9743128 0.4226148
vt 0.9743128 0.4249394
vt 0.9775529 0.4249394
vt 0.9775531 0.4226149
vt 0.9775527 0.5634074
vt 0.9775527 0.564904
vt 0.9788951 0.564904
vt 0.9788951 0.5634074
vt 0.9552701 0.5655478
vt 0.9552701 0.5670444
vt 0.9566125 0.5670444
vt 0.9566125 0.5655478
vt 0.9552701 0.5310742
vt 0.9552701 0.5655478
vt 0.9566125 0.5655478
vt 0.9566125 0.5310742
vt 0.9552701 0.4615227
vt 0.9552701 0.5310742
vt 0.9566125 0.5310742
vt 0.9566123 0.4615227
vt 0.9775529 0.4593832
vt 0.9788951 0.5289341
vt 0.9788951 0.4593834
vt 0.9775527 0.528934
vt 0.9775527 0.528934
vt 0.9775527 0.5634074
vt 0.9788951 0.5634074
vt 0.9788951 0.5289341
vt 0.9775529 0.4249394
vt 0.9775529 0.4593832
vt 0.9788951 0.4593834
vt 0.9788953 0.4249394
vt 0.9552698 0.4270783
vt 0.9552701 0.4615227
vt 0.9566123 0.4615227
vt 0.9566123 0.4270785
vt 0.9552698 0.4247539
vt 0.9552698 0.4270783
vt 0.9566123 0.4270785
vt 0.9566125 0.4247539
vt 0.9775531 0.4226149
vt 0.9775529 0.4249394
vt 0.9788953 0.4249394
vt 0.9788953 0.4226151
vt 0.9598529 0.5655479
vt 0.9598529 0.5670444
vt 0.9630937 0.5670444
vt 0.9630937 0.5655478
vt 0.9598529 0.5310742
vt 0.9598529 0.5655479
vt 0.9630937 0.5655478
vt 0.9630935 0.5310742
vt 0.9598526 0.4615227
vt 0.9598529 0.5310742
vt 0.9630935 0.5310742
vt 0.9630935 0.4615225
vt 0.9566123 0.4615227
vt 0.9598529 0.5310742
vt 0.9598526 0.4615227
vt 0.9566125 0.5310742
vt 0.9566125 0.5310742
vt 0.9566125 0.5655478
vt 0.9598529 0.5655479
vt 0.9598529 0.5310742
vt 0.9566123 0.4270785
vt 0.9566123 0.4615227
vt 0.9598526 0.4615227
vt 0.9598525 0.4270783
vt 0.9598525 0.4270783
vt 0.9598526 0.4615227
vt 0.9630935 0.4615225
vt 0.9630933 0.4270782
vt 0.9598525 0.4247539
vt 0.9598525 0.4270783
vt 0.9630933 0.4270782
vt 0.9630933 0.4247537
vt 0.9566125 0.4247539
vt 0.9566123 0.4270785
vt 0.9598525 0.4270783
vt 0.9598525 0.4247539
vt 0.9630937 0.5655478
vt 0.9630937 0.5670444
vt 0.9644362 0.5670444
vt 0.9644362 0.5655478
vt 0.9697291 0.5634074
vt 0.9697291 0.564904
vt 0.9710716 0.564904
vt 0.9710716 0.5634074
vt 0.9697291 0.5289341
vt 0.9697291 0.5634074
vt 0.9710716 0.5634074
vt 0.9710718 0.528934
vt 0.9697295 0.4593832
vt 0.9697291 0.5289341
vt 0.9710718 0.528934
vt 0.9710718 0.4593832
vt 0.9630935 0.4615225
vt 0.9644362 0.5310742
vt 0.9644358 0.4615225
vt 0.9630935 0.5310742
vt 0.9630935 0.5310742
vt 0.9630937 0.5655478
vt 0.9644362 0.5655478
vt 0.9644362 0.5310742
vt 0.9630933 0.4270782
vt 0.9630935 0.4615225
vt 0.9644358 0.4615225
vt 0.9644358 0.4270782
vt 0.9697295 0.4249394
vt 0.9697295 0.4593832
vt 0.9710718 0.4593832
vt 0.971072 0.4249394
vt 0.9697295 0.4226148
vt 0.9697295 0.4249394
vt 0.971072 0.4249394
vt 0.971072 0.4226149
vt 0.9630933 0.4247537
vt 0.9630933 0.4270782
vt 0.9644358 0.4270782
vt 0.9644358 0.4247537
vt 0.8699565 0.6492677
vt 0.86813 0.6480765
vt 0.8663035 0.6492677
vt 0.870713 0.6521429
vt 0.8655471 0.6521429
vt 0.8699565 0.6550184
vt 0.8663035 0.6550184
vt 0.86813 0.6562096
vt 0.8548821 0.655017
vt 0.8567076 0.6562073
vt 0.8585333 0.6550166
vt 0.8541259 0.6521432
vt 0.8592893 0.6521432
vt 0.8548821 0.6492689
vt 0.8585333 0.6492689
vt 0.8567076 0.6480784
vt 0.9978555 0.2942772
vt 0.984762 0.2940277
vt 0.9847622 0.5714767
vt 0.9978556 0.5716
vt 0.9158474 0.008199334
vt 0.9027566 0.007810026
vt 0.9027566 0.55897
vt 0.9158474 0.5585807
vt 0.9938069 0.00458461
vt 0.9807135 0.004707843
vt 0.9807135 0.2835571
vt 0.9938068 0.283362
vt 0.9372863 0.008185595
vt 0.9241949 0.007796407
vt 0.9241948 0.5589836
vt 0.9372863 0.5585942
vt 0.1088483 0.6015648
vt 0.0424576 0.6371514
vt 0.4559358 0.6371514
vt 0.3898539 0.6015648
vt 0.1088483 0.04376161
vt 0.4580287 0.008174956
vt 0.0424576 0.008174956
vt 0.3913283 0.04376152
vt 0.8910055 0.008718967
vt 0.8223103 0.04708993
vt 0.8223103 0.5982365
vt 0.8910055 0.6366075
vt 0.4748285 0.008718967
vt 0.5449241 0.5982365
vt 0.5435237 0.04708993
vt 0.4769191 0.6366075
usemtl Cream_wood
f 3/3/3 2/2/2 1/1/1
f 6/6/6 5/5/5 4/4/4
f 9/9/9 8/8/8 7/7/7
f 12/12/12 11/11/11 10/10/10
f 15/15/15 14/14/14 13/13/13
f 16/16/16 15/15/15 13/13/13
f 19/19/19 18/18/18 17/17/17
f 20/20/20 19/19/19 17/17/17
f 23/23/23 22/22/22 21/21/21
f 24/24/24 23/23/23 21/21/21
f 27/27/27 26/26/26 25/25/25
f 28/28/28 27/27/27 25/25/25
f 31/31/31 30/30/30 29/29/29
f 32/32/32 31/31/31 29/29/29
f 35/35/35 34/34/34 33/33/33
f 36/36/36 35/35/35 33/33/33
f 39/39/39 38/38/38 37/37/37
f 40/40/40 39/39/39 37/37/37
f 43/43/43 42/42/42 41/41/41
f 44/44/44 43/43/43 41/41/41
f 47/47/47 46/46/46 45/45/45
f 45/45/45 48/48/48 47/47/47
f 48/48/48 49/49/49 47/47/47
f 48/48/48 50/50/50 49/49/49
f 50/50/50 51/51/51 49/49/49
f 50/50/50 52/52/52 51/51/51
f 55/55/55 54/54/54 53/53/53
f 56/56/56 55/55/55 53/53/53
f 59/59/59 58/58/58 57/57/57
f 60/60/60 59/59/59 57/57/57
f 63/63/63 62/62/62 61/61/61
f 64/64/64 63/63/63 61/61/61
f 67/67/67 66/66/66 65/65/65
f 68/68/68 67/67/67 65/65/65
f 71/71/71 70/70/70 69/69/69
f 72/72/72 71/71/71 69/69/69
f 75/75/75 74/74/74 73/73/73
f 76/76/76 75/75/75 73/73/73
f 79/79/79 78/78/78 77/77/77
f 80/80/80 79/79/79 77/77/77
f 83/83/83 82/82/82 81/81/81
f 82/82/82 84/84/84 81/81/81
f 87/87/87 86/86/86 85/85/85
f 85/85/85 88/88/88 87/87/87
f 88/88/88 89/89/89 87/87/87
f 88/88/88 90/90/90 89/89/89
f 90/90/90 91/91/91 89/89/89
f 90/90/90 92/92/92 91/91/91
f 95/95/95 94/94/94 93/93/93
f 96/96/96 95/95/95 93/93/93
f 99/99/99 98/98/98 97/97/97
f 100/100/100 99/99/99 97/97/97
f 103/103/103 102/102/102 101/101/101
f 104/104/104 103/103/103 101/101/101
f 107/107/107 106/106/106 105/105/105
f 108/108/108 107/107/107 105/105/105
f 111/111/111 110/110/110 109/109/109
f 112/112/112 111/111/111 109/109/109
f 115/115/115 114/114/114 113/113/113
f 116/116/116 115/115/115 113/113/113
f 119/119/119 118/118/118 117/117/117
f 120/120/120 119/119/119 117/117/117
f 123/123/123 122/122/122 121/121/121
f 122/122/122 124/124/124 121/121/121
f 127/127/127 126/126/126 125/125/125
f 128/128/128 127/127/127 125/125/125
f 131/131/131 130/130/130 129/129/129
f 132/132/132 131/131/131 129/129/129
f 135/135/135 134/134/134 133/133/133
f 136/136/136 135/135/135 133/133/133
f 139/139/139 138/138/138 137/137/137
f 140/140/140 139/139/139 137/137/137
f 143/143/143 142/142/142 141/141/141
f 144/144/144 143/143/143 141/141/141
f 147/147/147 146/146/146 145/145/145
f 148/148/148 147/147/147 145/145/145
f 151/151/151 150/150/150 149/149/149
f 152/152/152 151/151/151 149/149/149
f 155/155/155 154/154/154 153/153/153
f 156/156/156 155/155/155 153/153/153
f 159/159/159 158/158/158 157/157/157
f 160/160/160 159/159/159 157/157/157
f 163/163/163 162/162/162 161/161/161
f 164/164/164 163/163/163 161/161/161
f 167/167/167 166/166/166 165/165/165
f 168/168/168 167/167/167 165/165/165
f 171/171/171 170/170/170 169/169/169
f 172/172/172 171/171/171 169/169/169
f 175/175/175 174/174/174 173/173/173
f 176/176/176 175/175/175 173/173/173
f 179/179/179 178/178/178 177/177/177
f 178/178/178 180/180/180 177/177/177
f 183/183/183 182/182/182 181/181/181
f 184/184/184 183/183/183 181/181/181
f 187/187/187 186/186/186 185/185/185
f 188/188/188 187/187/187 185/185/185
f 191/191/191 190/190/190 189/189/189
f 192/192/192 191/191/191 189/189/189
f 195/195/195 194/194/194 193/193/193
f 196/196/196 195/195/195 193/193/193
f 199/199/199 198/198/198 197/197/197
f 200/200/200 199/199/199 197/197/197
f 203/203/203 202/202/202 201/201/201
f 204/204/204 203/203/203 201/201/201
f 207/207/207 206/206/206 205/205/205
f 208/208/208 207/207/207 205/205/205
f 211/211/211 210/210/210 209/209/209
f 212/212/212 211/211/211 209/209/209
f 215/215/215 214/214/214 213/213/213
f 214/214/214 216/216/216 213/213/213
f 219/219/219 218/218/218 217/217/217
f 220/220/220 219/219/219 217/217/217
f 223/223/223 222/222/222 221/221/221
f 224/224/224 223/223/223 221/221/221
f 227/227/227 226/226/226 225/225/225
f 228/228/228 227/227/227 225/225/225
f 231/231/231 230/230/230 229/229/229
f 232/232/232 231/231/231 229/229/229
f 235/235/235 234/234/234 233/233/233
f 236/236/236 235/235/235 233/233/233
f 239/239/239 238/238/238 237/237/237
f 240/240/240 239/239/239 237/237/237
f 243/243/243 242/242/242 241/241/241
f 244/244/244 243/243/243 241/241/241
f 247/247/247 246/246/246 245/245/245
f 248/248/248 247/247/247 245/245/245
f 251/251/251 250/250/250 249/249/249
f 252/252/252 251/251/251 249/249/249
f 255/255/255 254/254/254 253/253/253
f 254/254/254 256/256/256 253/253/253
f 259/259/259 258/258/258 257/257/257
f 260/260/260 259/259/259 257/257/257
f 263/263/263 262/262/262 261/261/261
f 264/264/264 263/263/263 261/261/261
f 267/267/267 266/266/266 265/265/265
f 268/268/268 267/267/267 265/265/265
f 271/271/271 270/270/270 269/269/269
f 272/272/272 271/271/271 269/269/269
f 275/275/275 274/274/274 273/273/273
f 276/276/276 275/275/275 273/273/273
f 279/279/279 278/278/278 277/277/277
f 277/277/277 280/280/280 279/279/279
f 280/280/280 281/281/281 279/279/279
f 280/280/280 282/282/282 281/281/281
f 282/282/282 283/283/283 281/281/281
f 282/282/282 284/284/284 283/283/283
f 287/287/287 286/286/286 285/285/285
f 285/285/285 288/288/288 287/287/287
f 288/288/288 289/289/289 287/287/287
f 288/288/288 290/290/290 289/289/289
f 290/290/290 291/291/291 289/289/289
f 290/290/290 292/292/292 291/291/291
f 295/295/295 294/294/294 293/293/293
f 296/296/296 295/295/295 293/293/293
f 299/299/299 298/298/298 297/297/297
f 300/300/300 299/299/299 297/297/297
f 303/303/303 302/302/302 301/301/301
f 304/304/304 303/303/303 301/301/301
f 307/307/307 306/306/306 305/305/305
f 308/308/308 307/307/307 305/305/305
f 311/311/311 310/310/310 309/309/309
f 312/312/312 311/311/311 309/309/309
f 309/309/309 310/310/310 313/313/313
f 314/314/314 311/311/311 312/312/312
f 310/310/310 315/315/315 313/313/313
f 316/316/316 314/314/314 312/312/312
f 313/313/313 315/315/315 316/316/316
f 315/315/315 314/314/314 316/316/316
f 319/319/319 318/318/318 317/317/317
f 320/320/320 319/319/319 317/317/317
f 317/317/317 318/318/318 321/321/321
f 322/322/322 319/319/319 320/320/320
f 318/318/318 323/323/323 321/321/321
f 324/324/324 322/322/322 320/320/320
f 321/321/321 323/323/323 324/324/324
f 323/323/323 322/322/322 324/324/324
g FP224:polySurface1_1_35c3c8af
v -0.00289 0.27519 -0.1379
v -0.00289 -0.27518 0.13936
v -0.00289 -0.27518 -0.13935
v -0.00289 0.27519 0.13936
v 0.0029 0.27519 -0.1379
v 0.0029 -0.27518 -0.13935
v 0.0029 -0.27518 0.13936
v 0.0029 0.27519 0.13936
v 0.0029 -0.27518 0.13936
v 0.0029 -0.27518 -0.13935
v -0.00289 -0.27518 -0.13935
v -0.00289 -0.27518 0.13936
v 0.0029 -0.27518 -0.13935
v 0.0029 0.27519 -0.1379
v -0.00289 0.27519 -0.1379
v -0.00289 -0.27518 -0.13935
v 0.0029 0.27519 -0.1379
v 0.0029 0.27519 0.13936
v -0.00289 0.27519 0.13936
v -0.00289 0.27519 -0.1379
v 0.0029 0.27519 0.13936
v 0.0029 -0.27518 0.13936
v -0.00289 -0.27518 0.13936
v -0.00289 0.27519 0.13936
vn -1 0 3.490659E-07
vn -1 0 3.490659E-07
vn -1 0 3.490659E-07
vn -1 0 3.490659E-07
vn 1 0 -3.490659E-07
vn 1 0 -3.490659E-07
vn 1 0 -3.490659E-07
vn 1 0 -3.490659E-07
vn 0 -1 2.477197E-07
vn 0 -1 2.477197E-07
vn -1 0 3.490659E-07
vn -1 0 3.490659E-07
vn 0 0.002642994 -0.9999965
vn 0 0.002642994 -0.9999965
vn -1 0 3.490659E-07
vn -1 0 3.490659E-07
vn 0 1 0
vn 0 1 0
vn -1 0 3.490659E-07
vn -1 0 3.490659E-07
vn 0 0 1
vn 0 0 1
vn -1 0 3.490659E-07
vn -1 0 3.490659E-07
vt 0.09415618 0.7313063
vt 0.3714162 0.180938
vt 0.09270142 0.1809379
vt 0.3714162 0.7313063
vt 0.8379049 0.7313063
vt 0.8393596 0.1809379
vt 0.5606448 0.1809379
vt 0.5606448 0.7313063
vt 0.9804519 0.3712413
vt 0.9804518 0.09252681
vt 0.9746526 0.09252681
vt 0.9746527 0.3712413
vt 0.9453705 0.7313071
vt 0.9453705 0.180937
vt 0.9395713 0.180937
vt 0.9395713 0.7313071
vt 0.9961205 0.3693134
vt 0.9961206 0.09205304
vt 0.9903214 0.09205304
vt 0.9903213 0.3693134
vt 0.9629111 0.7313066
vt 0.9629111 0.1809375
vt 0.9571119 0.1809375
vt 0.9571119 0.7313066
usemtl Glass_Detailed_Frosted_Mat
f 327/327/327 326/326/326 325/325/325
f 326/326/326 328/328/328 325/325/325
f 331/331/331 330/330/330 329/329/329
f 332/332/332 331/331/331 329/329/329
f 335/335/335 334/334/334 333/333/333
f 336/336/336 335/335/335 333/333/333
f 339/339/339 338/338/338 337/337/337
f 340/340/340 339/339/339 337/337/337
f 343/343/343 342/342/342 341/341/341
f 344/344/344 343/343/343 341/341/341
f 347/347/347 346/346/346 345/345/345
f 348/348/348 347/347/347 345/345/345
g CabinetDoorMesh_796617c4
v 0.01094 -0.18056 -0.38387
v -0.01031 -0.17992 -0.38594
v -0.01031 -0.18056 -0.38387
v 0.01094 -0.18056 -0.38387
v 0.01094 -0.17992 -0.38594
v -0.01031 -0.17992 -0.38594
v -0.0139 -0.31394 0.0021
v -0.00417 0.31395 1E-05
v -0.00416 -0.31394 0.0021
v -0.0139 0.31395 1E-05
v -0.0139 0.31395 1E-05
v -0.00416 0.31395 -0.41408
v -0.00417 0.31395 1E-05
v -0.0139 0.31395 -0.41408
v -0.0139 -0.31394 -0.41408
v -0.00416 -0.31394 0.0021
v -0.00416 -0.31394 -0.41408
v -0.0139 -0.31394 0.0021
v -0.0139 0.31395 -0.41408
v -0.00416 -0.31394 -0.41408
v -0.00416 0.31395 -0.41408
v -0.0139 -0.31394 -0.41408
v -0.00081 0.3103 -0.41102
v -0.00417 0.31395 1E-05
v -0.00416 0.31395 -0.41408
v -0.00081 0.3103 -0.00305
v -0.00416 0.31395 -0.41408
v -0.00081 -0.31029 -0.41102
v -0.00081 0.3103 -0.41102
v -0.00416 -0.31394 -0.41408
v -0.00081 -0.31029 -0.00098
v -0.00416 -0.31394 -0.41408
v -0.00416 -0.31394 0.0021
v -0.00081 -0.31029 -0.41102
v -0.00081 0.3103 -0.00305
v -0.00416 -0.31394 0.0021
v -0.00417 0.31395 1E-05
v -0.00081 -0.31029 -0.00098
v 0.01094 -0.23816 -0.38594
v 0.01094 -0.23816 -0.38179
v 0.01094 -0.23752 -0.38387
v 0.01094 -0.23971 -0.3868
v 0.01094 -0.23971 -0.38093
v 0.01094 -0.24127 -0.38594
v 0.01094 -0.24127 -0.38179
v 0.01094 -0.24191 -0.38387
v 0.01094 -0.24127 -0.38179
v -0.01031 -0.24191 -0.38387
v -0.01031 -0.24127 -0.38179
v 0.01094 -0.24191 -0.38387
v 0.01094 -0.24191 -0.38387
v -0.01031 -0.24127 -0.38594
v -0.01031 -0.24191 -0.38387
v 0.01094 -0.24127 -0.38594
v 0.01094 -0.24127 -0.38594
v -0.01031 -0.23971 -0.3868
v -0.01031 -0.24127 -0.38594
v 0.01094 -0.23971 -0.3868
v 0.01094 -0.23971 -0.3868
v -0.01031 -0.23816 -0.38594
v -0.01031 -0.23971 -0.3868
v 0.01094 -0.23816 -0.38594
v 0.01094 -0.23816 -0.38594
v -0.01031 -0.23752 -0.38387
v -0.01031 -0.23816 -0.38594
v 0.01094 -0.23752 -0.38387
v 0.01094 -0.23752 -0.38387
v -0.01031 -0.23816 -0.38179
v -0.01031 -0.23752 -0.38387
v 0.01094 -0.23816 -0.38179
v 0.01094 -0.23971 -0.38093
v -0.01031 -0.24127 -0.38179
v -0.01031 -0.23971 -0.38093
v 0.01094 -0.24127 -0.38179
v 0.01094 -0.23816 -0.38179
v 0.01094 -0.23971 -0.38093
v -0.01031 -0.23971 -0.38093
v -0.01031 -0.23816 -0.38179
v 0.01094 -0.17681 -0.38594
v 0.01094 -0.17681 -0.38179
v 0.01094 -0.17617 -0.38387
v 0.01094 -0.17837 -0.3868
v 0.01094 -0.17837 -0.38093
v 0.01094 -0.17992 -0.38594
v 0.01094 -0.17992 -0.38179
v 0.01094 -0.18056 -0.38387
v 0.01094 -0.17992 -0.38179
v -0.01031 -0.18056 -0.38387
v -0.01031 -0.17992 -0.38179
v 0.01094 -0.18056 -0.38387
v 0.01094 -0.17992 -0.38594
v -0.01031 -0.17837 -0.3868
v -0.01031 -0.17992 -0.38594
v 0.01094 -0.17837 -0.3868
v 0.01094 -0.17837 -0.3868
v -0.01031 -0.17681 -0.38594
v -0.01031 -0.17837 -0.3868
v 0.01094 -0.17681 -0.38594
v 0.01094 -0.17681 -0.38594
v -0.01031 -0.17617 -0.38387
v -0.01031 -0.17681 -0.38594
v 0.01094 -0.17617 -0.38387
v 0.01094 -0.17617 -0.38387
v -0.01031 -0.17681 -0.38179
v -0.01031 -0.17617 -0.38387
v 0.01094 -0.17681 -0.38179
v 0.01094 -0.17837 -0.38093
v -0.01031 -0.17992 -0.38179
v -0.01031 -0.17837 -0.38093
v 0.01094 -0.17992 -0.38179
v 0.01094 -0.17681 -0.38179
v 0.01094 -0.17837 -0.38093
v -0.01031 -0.17837 -0.38093
v -0.01031 -0.17681 -0.38179
v 0.00511 -0.14706 -0.38387
v 0.00587 -0.14573 -0.38674
v 0.00511 -0.14573 -0.38387
v 0.00587 -0.14706 -0.38674
v 0.00587 -0.14706 -0.38099
v 0.00511 -0.14706 -0.38387
v 0.00511 -0.14573 -0.38387
v 0.00587 -0.14573 -0.38099
v 0.0095 -0.17764 -0.38099
v 0.00511 -0.14706 -0.38387
v 0.00587 -0.14706 -0.38099
v 0.00874 -0.17764 -0.38387
v 0.00874 -0.17764 -0.38387
v 0.00587 -0.14706 -0.38674
v 0.00511 -0.14706 -0.38387
v 0.0095 -0.17764 -0.38674
v 0.0095 -0.23935 -0.38099
v 0.00874 -0.17764 -0.38387
v 0.0095 -0.17764 -0.38099
v 0.00874 -0.23935 -0.38387
v 0.00874 -0.23935 -0.38387
v 0.0095 -0.17764 -0.38674
v 0.00874 -0.17764 -0.38387
v 0.0095 -0.23935 -0.38674
v 0.00511 -0.26991 -0.38387
v 0.0095 -0.23935 -0.38674
v 0.00874 -0.23935 -0.38387
v 0.00587 -0.26991 -0.38674
v 0.00587 -0.26991 -0.38099
v 0.00874 -0.23935 -0.38387
v 0.0095 -0.23935 -0.38099
v 0.00511 -0.26991 -0.38387
v 0.00587 -0.27198 -0.38099
v 0.00511 -0.26991 -0.38387
v 0.00587 -0.26991 -0.38099
v 0.00511 -0.27198 -0.38387
v 0.00511 -0.27198 -0.38387
v 0.00587 -0.26991 -0.38674
v 0.00511 -0.26991 -0.38387
v 0.00587 -0.27198 -0.38674
v 0.00587 -0.14706 -0.38674
v 0.00769 -0.14573 -0.38793
v 0.00587 -0.14573 -0.38674
v 0.00769 -0.14706 -0.38793
v 0.00769 -0.14706 -0.38793
v 0.00952 -0.14573 -0.38674
v 0.00769 -0.14573 -0.38793
v 0.00952 -0.14706 -0.38674
v 0.01132 -0.17764 -0.38793
v 0.00952 -0.14706 -0.38674
v 0.00769 -0.14706 -0.38793
v 0.01315 -0.17764 -0.38674
v 0.01132 -0.23935 -0.38793
v 0.01315 -0.17764 -0.38674
v 0.01132 -0.17764 -0.38793
v 0.01315 -0.23935 -0.38674
v 0.0095 -0.23935 -0.38674
v 0.01132 -0.23935 -0.38793
v 0.01132 -0.17764 -0.38793
v 0.0095 -0.17764 -0.38674
v 0.0095 -0.17764 -0.38674
v 0.00769 -0.14706 -0.38793
v 0.00587 -0.14706 -0.38674
v 0.01132 -0.17764 -0.38793
v 0.00587 -0.26991 -0.38674
v 0.01132 -0.23935 -0.38793
v 0.0095 -0.23935 -0.38674
v 0.00769 -0.26991 -0.38793
v 0.00769 -0.26991 -0.38793
v 0.01315 -0.23935 -0.38674
v 0.01132 -0.23935 -0.38793
v 0.00952 -0.26991 -0.38674
v 0.00769 -0.27198 -0.38793
v 0.00952 -0.26991 -0.38674
v 0.00769 -0.26991 -0.38793
v 0.00952 -0.27198 -0.38674
v 0.00587 -0.27198 -0.38674
v 0.00769 -0.26991 -0.38793
v 0.00587 -0.26991 -0.38674
v 0.00769 -0.27198 -0.38793
v 0.00952 -0.14706 -0.38674
v 0.01027 -0.14573 -0.38387
v 0.00952 -0.14573 -0.38674
v 0.01027 -0.14706 -0.38387
v 0.01027 -0.14706 -0.38387
v 0.00952 -0.14573 -0.38099
v 0.01027 -0.14573 -0.38387
v 0.00952 -0.14706 -0.38099
v 0.01391 -0.17764 -0.38387
v 0.00952 -0.14706 -0.38099
v 0.01027 -0.14706 -0.38387
v 0.01315 -0.17764 -0.38099
v 0.01391 -0.23935 -0.38387
v 0.01315 -0.17764 -0.38099
v 0.01391 -0.17764 -0.38387
v 0.01315 -0.23935 -0.38099
v 0.01315 -0.23935 -0.38674
v 0.01391 -0.23935 -0.38387
v 0.01391 -0.17764 -0.38387
v 0.01315 -0.17764 -0.38674
v 0.01315 -0.17764 -0.38674
v 0.01027 -0.14706 -0.38387
v 0.00952 -0.14706 -0.38674
v 0.01391 -0.17764 -0.38387
v 0.00952 -0.26991 -0.38674
v 0.01391 -0.23935 -0.38387
v 0.01315 -0.23935 -0.38674
v 0.01027 -0.26991 -0.38387
v 0.01027 -0.26991 -0.38387
v 0.01315 -0.23935 -0.38099
v 0.01391 -0.23935 -0.38387
v 0.00952 -0.26991 -0.38099
v 0.01027 -0.27198 -0.38387
v 0.00952 -0.26991 -0.38099
v 0.01027 -0.26991 -0.38387
v 0.00952 -0.27198 -0.38099
v 0.00952 -0.27198 -0.38674
v 0.01027 -0.26991 -0.38387
v 0.00952 -0.26991 -0.38674
v 0.01027 -0.27198 -0.38387
v 0.00952 -0.14706 -0.38099
v 0.00769 -0.14573 -0.3798
v 0.00952 -0.14573 -0.38099
v 0.00769 -0.14706 -0.3798
v 0.00769 -0.14706 -0.3798
v 0.00587 -0.14573 -0.38099
v 0.00769 -0.14573 -0.3798
v 0.00587 -0.14706 -0.38099
v 0.01132 -0.17764 -0.3798
v 0.00587 -0.14706 -0.38099
v 0.00769 -0.14706 -0.3798
v 0.0095 -0.17764 -0.38099
v 0.01132 -0.23935 -0.3798
v 0.0095 -0.17764 -0.38099
v 0.01132 -0.17764 -0.3798
v 0.0095 -0.23935 -0.38099
v 0.01315 -0.23935 -0.38099
v 0.01132 -0.23935 -0.3798
v 0.01132 -0.17764 -0.3798
v 0.01315 -0.17764 -0.38099
v 0.01315 -0.17764 -0.38099
v 0.00769 -0.14706 -0.3798
v 0.00952 -0.14706 -0.38099
v 0.01132 -0.17764 -0.3798
v 0.00952 -0.26991 -0.38099
v 0.01132 -0.23935 -0.3798
v 0.01315 -0.23935 -0.38099
v 0.00769 -0.26991 -0.3798
v 0.00769 -0.26991 -0.3798
v 0.0095 -0.23935 -0.38099
v 0.01132 -0.23935 -0.3798
v 0.00587 -0.26991 -0.38099
v 0.00769 -0.27198 -0.3798
v 0.00587 -0.26991 -0.38099
v 0.00769 -0.26991 -0.3798
v 0.00587 -0.27198 -0.38099
v 0.00952 -0.27198 -0.38099
v 0.00769 -0.26991 -0.3798
v 0.00952 -0.26991 -0.38099
v 0.00769 -0.27198 -0.3798
v 0.00952 -0.14573 -0.38674
v 0.00587 -0.14573 -0.38674
v 0.00769 -0.14573 -0.38793
v 0.01027 -0.14573 -0.38387
v 0.00511 -0.14573 -0.38387
v 0.00952 -0.14573 -0.38099
v 0.00587 -0.14573 -0.38099
v 0.00769 -0.14573 -0.3798
v 0.00587 -0.27198 -0.38674
v 0.00952 -0.27198 -0.38674
v 0.00769 -0.27198 -0.38793
v 0.00511 -0.27198 -0.38387
v 0.01027 -0.27198 -0.38387
v 0.00587 -0.27198 -0.38099
v 0.00952 -0.27198 -0.38099
v 0.00769 -0.27198 -0.3798
v -0.00081 0.27519 -0.06825
v -0.00081 0.27519 -0.34551
v -0.0139 0.27558 -0.34539
v -0.0139 0.27558 -0.068
v -0.00081 0.27519 -0.34551
v -0.00081 -0.27518 -0.34551
v -0.0139 -0.27557 -0.34539
v -0.0139 0.27558 -0.34539
v -0.00081 -0.27518 -0.34551
v -0.00081 -0.27518 -0.06679
v -0.0139 -0.27557 -0.0666
v -0.0139 -0.27557 -0.34539
v -0.00081 -0.27518 -0.06679
v -0.00081 0.27519 -0.06825
v -0.0139 0.27558 -0.068
v -0.0139 -0.27557 -0.0666
v -0.00081 0.27519 -0.34551
v -0.00081 0.3103 -0.00305
v -0.00081 0.3103 -0.41102
v -0.00081 0.27519 -0.06825
v -0.00081 -0.27518 -0.34551
v -0.00081 -0.31029 -0.00098
v -0.00081 -0.31029 -0.41102
v -0.00081 -0.27518 -0.06679
v -0.0139 -0.31394 -0.41408
v -0.0139 0.27558 -0.34539
v -0.0139 -0.27557 -0.34539
v -0.0139 0.31395 -0.41408
v -0.0139 -0.31394 0.0021
v -0.0139 0.27558 -0.068
v -0.0139 -0.27557 -0.0666
v -0.0139 0.31395 1E-05
vn -1.159572E-05 -0.955108 -0.2962576
vn -8.036421E-07 -0.9550893 -0.296318
vn 0 -0.955088 -0.2963226
vn -1.159572E-05 -0.955108 -0.2962576
vn -1.23994E-05 -0.9551095 -0.2962531
vn -8.036421E-07 -0.9550893 -0.296318
vn 0 0.003329323 0.9999945
vn 0 0.003329339 0.9999945
vn 0 0.003329322 0.9999945
vn 0 0.003329339 0.9999945
vn -7.838895E-06 1 -3.694009E-07
vn -7.838986E-06 1 2.277826E-07
vn -7.838894E-06 1 -3.786112E-07
vn -7.838987E-06 1 2.369931E-07
vn 0 -1 0
vn 0 -1 0
vn 0 -1 0
vn 0 -1 0
vn 0 0 -1
vn 0 0 -1
vn 0 0 -1
vn 0 0 -1
vn 0.7357824 0.6772181 3.710215E-07
vn 0.7357785 0.6772223 2.680414E-07
vn 0.7357824 0.6772181 3.716078E-07
vn 0.7357784 0.6772223 2.667817E-07
vn 0.6743768 0 -0.7383874
vn 0.6742826 0 -0.7384735
vn 0.6743775 0 -0.7383867
vn 0.6742822 0 -0.7384737
vn 0.7357754 -0.6772256 1.395683E-07
vn 0.7357628 -0.6772394 3.003804E-07
vn 0.7357755 -0.6772255 1.386581E-07
vn 0.7357627 -0.6772395 3.023406E-07
vn 0.6742434 0.002458839 0.7385051
vn 0.6744159 0.002456747 0.7383475
vn 0.6742429 0.002458845 0.7385056
vn 0.6744174 0.002456729 0.7383462
vn 1 0 0
vn 1 0 -5.560561E-06
vn 1 0 0
vn 1 0 -4.65876E-06
vn 1 0 -4.658613E-06
vn 1 0 -5.561032E-06
vn 1 0 0
vn 1 0 0
vn 0 -0.9551485 0.2961272
vn 0 -0.9551485 0.2961272
vn 0 -0.9551485 0.2961272
vn 0 -0.9551641 0.2960772
vn 0 -0.9551252 -0.2962024
vn 0 -0.9551381 -0.2961609
vn 0 -0.955139 -0.2961578
vn 0 -0.9551243 -0.2962055
vn 2.022425E-05 -0.4840825 -0.8750224
vn 2.022425E-05 -0.4840825 -0.8750224
vn 2.022425E-05 -0.4840825 -0.8750224
vn 0 -0.4841579 -0.8749806
vn 0 0.484193 -0.8749613
vn 0 0.4841904 -0.8749626
vn 0 0.4841902 -0.8749627
vn 0 0.4841932 -0.8749612
vn 0 0.9551051 -0.2962669
vn 0 0.9551051 -0.296267
vn 0 0.9551051 -0.296267
vn 4.133501E-06 0.9551239 -0.2962067
vn 7.996158E-06 0.9551322 0.2961798
vn 4.399952E-06 0.9551443 0.2961403
vn 4.132074E-06 0.9551454 0.2961375
vn 8.264026E-06 0.9551314 0.2961827
vn 0 -0.4839236 0.8751102
vn 0 -0.4839593 0.8750905
vn 0 -0.4839615 0.8750893
vn 0 -0.4839215 0.8751114
vn 0 0.4839244 0.8751099
vn 0 0.4839244 0.8751098
vn 0 0.4839244 0.8751098
vn 0 0.4839192 0.8751126
vn 1 4.046477E-06 0
vn 1 3.884153E-05 0
vn 1 7.146431E-05 0
vn 1 -1.679194E-05 0
vn 1 0 0
vn 1 -4.187389E-05 0
vn 1 -5.586589E-05 0
vn 1 0 0
vn -1.23958E-05 -0.9551126 0.296243
vn -1.23958E-05 -0.9551126 0.296243
vn -1.23958E-05 -0.9551126 0.296243
vn 0 -0.9551338 0.2961747
vn 0 -0.4840032 -0.8750662
vn 0 -0.4840033 -0.8750662
vn 0 -0.4840032 -0.8750662
vn -1.011395E-05 -0.4839981 -0.8750691
vn 9.578115E-06 0.4839402 -0.875101
vn 5.363983E-07 0.4839367 -0.875103
vn 0 0.4839365 -0.8751032
vn 1.011452E-05 0.4839405 -0.875101
vn 4.132869E-06 0.9551225 -0.296211
vn 4.132869E-06 0.9551225 -0.296211
vn 4.132869E-06 0.9551225 -0.296211
vn 0 0.9551114 -0.296247
vn 3.864185E-06 0.9551308 0.2961844
vn 2.679039E-07 0.955143 0.2961452
vn 0 0.9551438 0.2961422
vn 4.132025E-06 0.9551299 0.2961874
vn -9.577486E-06 -0.4840795 0.8750241
vn -5.363639E-07 -0.4840696 0.8750294
vn 0 -0.484069 0.8750298
vn -1.011389E-05 -0.4840801 0.8750237
vn 1.011333E-05 0.4840529 0.8750387
vn 1.011333E-05 0.4840529 0.8750387
vn 1.011333E-05 0.484053 0.8750387
vn 0 0.4841349 0.8749934
vn -0.9670848 0 -0.254454
vn -0.9670848 0 -0.254454
vn -0.9670848 0 -0.254454
vn -0.9670786 -4.83201E-05 -0.2544779
vn -0.9670957 -3.538996E-05 0.2544129
vn -0.9670911 0 0.2544302
vn -0.9670928 -1.291831E-05 0.2544239
vn -0.9670973 -4.830656E-05 0.2544065
vn -0.9607754 -0.1141088 0.252764
vn -0.9607754 -0.1141088 0.252764
vn -0.9607754 -0.1141088 0.252764
vn -0.9607694 -0.1141197 0.2527824
vn -0.9607627 -0.1141122 -0.2528112
vn -0.9607627 -0.1141123 -0.2528112
vn -0.9607627 -0.1141123 -0.2528113
vn -0.9607611 -0.1141204 -0.2528135
vn -0.9670943 0 0.2544181
vn -0.9670943 0 0.2544181
vn -0.9670943 0 0.2544181
vn -0.9670904 1.039556E-06 0.2544329
vn -0.967074 1.039811E-06 -0.2544953
vn -0.967074 1.039811E-06 -0.2544953
vn -0.967074 1.039811E-06 -0.2544953
vn -0.9670889 1.039528E-06 -0.2544391
vn -0.9607596 0.1141995 -0.2527837
vn -0.9607596 0.1141995 -0.2527837
vn -0.9607596 0.1141995 -0.2527837
vn -0.9607478 0.1142177 -0.25282
vn -0.9607612 0.1142101 0.2527727
vn -0.9607612 0.1142101 0.2527727
vn -0.9607612 0.1142101 0.2527727
vn -0.9607617 0.1142102 0.252771
vn -0.9670836 0 0.2544591
vn -0.9670836 0 0.2544591
vn -0.9670836 0 0.2544591
vn -0.9670919 0 0.2544275
vn -0.9670811 0 -0.2544686
vn -0.9670801 0 -0.2544722
vn -0.9670826 0 -0.2544626
vn -0.9670785 0 -0.2544782
vn -0.5463099 -2.146731E-05 -0.8375831
vn -0.5462819 -1.146993E-05 -0.8376014
vn -0.5463421 -3.293599E-05 -0.8375621
vn -0.5462497 0 -0.8376224
vn 0.5462497 0 -0.8376225
vn 0.5462497 0 -0.8376225
vn 0.5462497 0 -0.8376224
vn 0.5463572 0 -0.8375522
vn 0.5451375 0.0647559 -0.835842
vn 0.5451375 0.0647559 -0.835842
vn 0.5451375 0.06475591 -0.835842
vn 0.5451849 0.06474641 -0.8358117
vn 0.5462485 0 -0.8376231
vn 0.5462486 0 -0.8376232
vn 0.5462485 0 -0.8376231
vn 0.5461934 1.417653E-06 -0.8376592
vn -0.546281 0 -0.8376021
vn -0.546281 0 -0.8376021
vn -0.546281 0 -0.8376021
vn -0.5461367 2.126612E-06 -0.8376961
vn -0.5451933 -0.06474742 -0.8358062
vn -0.5451933 -0.06474742 -0.8358062
vn -0.5451933 -0.06474742 -0.8358062
vn -0.5451155 -0.06474746 -0.8358569
vn -0.545089 0.06479959 -0.8358702
vn -0.5450891 0.0647996 -0.8358702
vn -0.5450891 0.06479959 -0.8358702
vn -0.5452217 0.0648018 -0.8357835
vn 0.5451326 -0.06478891 -0.8358425
vn 0.5451326 -0.06478891 -0.8358425
vn 0.5451327 -0.06478891 -0.8358425
vn 0.5451553 -0.06480154 -0.8358268
vn 0.5462571 -3.068601E-05 -0.8376175
vn 0.546253 -3.293961E-05 -0.8376203
vn 0.546313 0 -0.837581
vn 0.5461971 -6.362433E-05 -0.8376567
vn -0.5462937 6.362116E-05 -0.8375938
vn -0.5462937 6.362115E-05 -0.8375937
vn -0.5462937 6.362116E-05 -0.8375938
vn -0.5462073 0 -0.8376501
vn 0.9670751 0 -0.254491
vn 0.9670795 0 -0.2544746
vn 0.9670727 0 -0.2545004
vn 0.967082 0 -0.2544651
vn 0.967082 0 0.2544654
vn 0.967082 0 0.2544654
vn 0.967082 0 0.2544654
vn 0.967088 0 0.2544419
vn 0.9607678 0.1141158 0.25279
vn 0.9607678 0.1141158 0.25279
vn 0.9607678 0.1141158 0.25279
vn 0.9607658 0.1141172 0.2527966
vn 0.9670871 0 0.2544456
vn 0.9670871 0 0.2544456
vn 0.9670871 0 0.2544456
vn 0.967091 -3.118638E-06 0.2544307
vn 0.9670785 -2.079488E-06 -0.2544784
vn 0.9670785 -2.079488E-06 -0.2544784
vn 0.9670785 -2.079488E-06 -0.2544784
vn 0.9670871 1.03961E-06 -0.2544456
vn 0.9607589 0.114118 -0.2528228
vn 0.9607589 0.114118 -0.2528227
vn 0.9607589 0.114118 -0.2528227
vn 0.9607617 0.1141163 -0.252813
vn 0.9607527 -0.1142104 -0.2528045
vn 0.9607527 -0.1142104 -0.2528045
vn 0.9607527 -0.1142104 -0.2528045
vn 0.9607543 -0.1142056 -0.2528009
vn 0.9607634 -0.1142083 0.2527649
vn 0.9607634 -0.1142083 0.2527649
vn 0.9607634 -0.1142083 0.2527649
vn 0.9607626 -0.1142146 0.2527654
vn 0.967087 0 0.2544463
vn 0.9670871 0 0.2544452
vn 0.9670864 0 0.2544481
vn 0.9670876 0 0.2544433
vn 0.9670898 -3.110413E-05 -0.2544357
vn 0.9670898 -3.110413E-05 -0.2544357
vn 0.9670898 -3.110413E-05 -0.2544357
vn 0.9670753 0 -0.2544901
vn 0.5462551 0 0.8376189
vn 0.5462595 0 0.837616
vn 0.5462497 0 0.8376224
vn 0.5462648 0 0.8376126
vn -0.5462497 0 0.8376225
vn -0.5462497 0 0.8376225
vn -0.5462497 0 0.8376224
vn -0.5462497 -1.646918E-05 0.8376224
vn -0.5451306 -0.06474724 0.8358471
vn -0.5451306 -0.06474724 0.8358471
vn -0.5451306 -0.06474724 0.8358471
vn -0.5452158 -0.06475284 0.8357911
vn -0.546383 -3.897957E-06 0.8375355
vn -0.546383 -3.897957E-06 0.8375355
vn -0.546383 -3.897957E-06 0.8375355
vn -0.5462001 0 0.8376548
vn 0.5461917 -4.96177E-06 0.8376602
vn 0.5461917 -4.96177E-06 0.8376602
vn 0.5461917 -4.96177E-06 0.8376602
vn 0.5463748 0 0.8375407
vn 0.5452668 0.06473888 0.8357589
vn 0.5452669 0.06473888 0.8357589
vn 0.5452668 0.06473888 0.8357589
vn 0.5451207 0.06475248 0.8358532
vn 0.5450051 -0.06480335 0.8359245
vn 0.5450051 -0.06480335 0.8359246
vn 0.5450051 -0.06480335 0.8359245
vn 0.5451256 -0.06480235 0.8358461
vn -0.5451422 0.06479504 0.8358358
vn -0.5451422 0.06479505 0.8358358
vn -0.5451422 0.06479505 0.8358358
vn -0.5450128 0.06480641 0.8359194
vn -0.54633 0 0.83757
vn -0.546332 0 0.8375688
vn -0.5463033 0 0.8375874
vn -0.5463586 0 0.8375513
vn 0.5462937 0 0.8375938
vn 0.5462937 0 0.8375938
vn 0.5462937 0 0.8375938
vn 0.5463295 0 0.8375703
vn 0 1 -1.605972E-05
vn 0 1 -4.059167E-06
vn 0 1 0
vn 0 1 1.007227E-05
vn 0 1 6.154818E-06
vn 0 1 1.756387E-05
vn 0 1 0
vn 0 1 0
vn 4.177399E-05 -1 -5.077136E-06
vn 3.593347E-05 -1 -2.162772E-05
vn 4.177466E-05 -1 -4.384038E-05
vn 3.507541E-05 -1 7.83638E-06
vn 2.606377E-05 -1 -1.958877E-05
vn 2.272697E-05 -1 1.326389E-06
vn 0 -1 -5.324986E-05
vn 0 -1 -4.384042E-05
vn -0.02972242 -0.9995582 -1.249002E-07
vn -0.02972243 -0.9995582 -1.249002E-07
vn -0.02972242 -0.9995582 -1.249002E-07
vn -0.02972242 -0.9995582 -1.249002E-07
vn 0.009399982 0 0.9999559
vn 0.009399983 0 0.9999559
vn 0.009399984 0 0.9999559
vn 0.009399983 0 0.9999559
vn -0.02971803 0.9995583 1.358029E-07
vn -0.02971802 0.9995583 1.358029E-07
vn -0.02971803 0.9995583 1.358029E-07
vn -0.02971803 0.9995583 1.358029E-07
vn -0.0169832 -0.002591431 -0.9998524
vn -0.0169832 -0.002591431 -0.9998524
vn -0.0169832 -0.002591431 -0.9998524
vn -0.0169832 -0.002591431 -0.9998524
vn 1 0 3.740195E-07
vn 1 0 3.740195E-07
vn 1 0 3.740195E-07
vn 1 0 4.127578E-07
vn 1 0 0
vn 1 0 3.721367E-07
vn 1 0 0
vn 1 -2.494712E-06 4.106021E-07
vn -1 0 0
vn -1 0 0
vn -1 0 0
vn -1 0 0
vn -1 0 0
vn -1 0 -4.413416E-07
vn -1 0 0
vn -1 0 -4.413415E-07
vt 0.9474325 0.4312918
vt 0.9453099 0.4530448
vt 0.9474325 0.4530447
vt 0.9474325 0.4312918
vt 0.9453099 0.4312918
vt 0.9453099 0.4530448
vt 0.002106494 0.008717984
vt 0.01183918 0.6366085
vt 0.01183922 0.008717984
vt 0.002106447 0.6366085
vt 0.9631349 0.006205112
vt 0.9728678 0.4202921
vt 0.9728675 0.006205112
vt 0.9631351 0.4202921
vt 0.9455944 0.006228805
vt 0.955327 0.422408
vt 0.9553272 0.006228805
vt 0.9455943 0.422408
vt 0.01984194 0.008719236
vt 0.02957465 0.6366072
vt 0.02957465 0.008719236
vt 0.01984194 0.6366072
vt 0.4580415 0.6371512
vt 0.04146872 0.6408485
vt 0.4611492 0.6408485
vt 0.04456349 0.6371512
vt 0.4611492 0.6408485
vt 0.4580415 0.008175164
vt 0.4580415 0.6371512
vt 0.4611492 0.004477948
vt 0.04247053 0.008175164
vt 0.4611492 0.004477948
vt 0.03935006 0.004477948
vt 0.4580415 0.008175164
vt 0.04456349 0.6371512
vt 0.03935006 0.004477948
vt 0.04146872 0.6408485
vt 0.04247053 0.008175164
vt 0.8472345 0.6489087
vt 0.8472343 0.6530583
vt 0.8478777 0.6509831
vt 0.8456809 0.6480491
vt 0.8456808 0.6539174
vt 0.8441274 0.6489087
vt 0.8441274 0.6530583
vt 0.843484 0.6509831
vt 0.9205451 0.5694379
vt 0.9184225 0.5911848
vt 0.920545 0.5911848
vt 0.9184225 0.5694379
vt 0.9184225 0.5694379
vt 0.9163007 0.5911848
vt 0.9184225 0.5911848
vt 0.9163007 0.5694379
vt 0.9102355 0.5689495
vt 0.908575 0.5916731
vt 0.9102355 0.5916731
vt 0.908575 0.5689495
vt 0.908575 0.5689495
vt 0.9069147 0.5916731
vt 0.908575 0.5916731
vt 0.9069147 0.5689495
vt 0.9008499 0.6479825
vt 0.8987278 0.6697332
vt 0.9008499 0.6697332
vt 0.8987278 0.6479825
vt 0.8987278 0.6479825
vt 0.8966049 0.6697332
vt 0.8987278 0.6697332
vt 0.8966049 0.6479825
vt 0.9282705 0.5689554
vt 0.9266111 0.5916675
vt 0.9282707 0.5916675
vt 0.9266111 0.5689554
vt 0.9299301 0.5689554
vt 0.9282705 0.5689554
vt 0.9282707 0.5916675
vt 0.9299302 0.5916675
vt 0.8366023 0.6489097
vt 0.8366023 0.6530564
vt 0.8372453 0.6509829
vt 0.83505 0.6480513
vt 0.83505 0.6539152
vt 0.8334977 0.6489099
vt 0.8334977 0.6530564
vt 0.8328548 0.6509829
vt 0.9495556 0.4312918
vt 0.9474325 0.4530447
vt 0.9495556 0.4530447
vt 0.9474325 0.4312918
vt 0.9392449 0.5689531
vt 0.9375848 0.5916696
vt 0.9392447 0.5916697
vt 0.9375851 0.568953
vt 0.9375851 0.568953
vt 0.9359249 0.5916697
vt 0.9375848 0.5916696
vt 0.9359251 0.5689531
vt 0.8904691 0.6479823
vt 0.8883465 0.6697335
vt 0.8904691 0.6697335
vt 0.8883465 0.6479822
vt 0.8883465 0.6479822
vt 0.8862237 0.6697335
vt 0.8883465 0.6697335
vt 0.8862235 0.6479823
vt 0.8784983 0.6475016
vt 0.876839 0.6702141
vt 0.8784985 0.6702141
vt 0.8768387 0.6475016
vt 0.8801579 0.6475016
vt 0.8784983 0.6475016
vt 0.8784985 0.6702141
vt 0.8801581 0.6702141
vt 0.9743123 0.5634043
vt 0.9710722 0.5649008
vt 0.9743123 0.5649008
vt 0.9710722 0.5634043
vt 0.977553 0.5634043
vt 0.9743123 0.5634043
vt 0.9743123 0.5649008
vt 0.977553 0.5649008
vt 0.9775527 0.5289326
vt 0.9743123 0.5634043
vt 0.977553 0.5634043
vt 0.9743123 0.5289326
vt 0.9743123 0.5289326
vt 0.9710722 0.5634043
vt 0.9743123 0.5634043
vt 0.9710721 0.5289326
vt 0.9775527 0.459385
vt 0.9743123 0.5289326
vt 0.9775527 0.5289326
vt 0.9743122 0.4593851
vt 0.9743122 0.4593851
vt 0.9710721 0.5289326
vt 0.9743123 0.5289326
vt 0.9710719 0.459385
vt 0.9743119 0.4249428
vt 0.9710719 0.459385
vt 0.9743122 0.4593851
vt 0.9710719 0.4249428
vt 0.9775527 0.4249428
vt 0.9743122 0.4593851
vt 0.9775527 0.459385
vt 0.9743119 0.4249428
vt 0.9775527 0.4226184
vt 0.9743119 0.4249428
vt 0.9775527 0.4249428
vt 0.9743119 0.4226184
vt 0.9743119 0.4226184
vt 0.9710719 0.4249428
vt 0.9743119 0.4249428
vt 0.9710718 0.4226184
vt 0.9710722 0.5634043
vt 0.9697297 0.5649008
vt 0.9710722 0.5649008
vt 0.9697297 0.5634043
vt 0.9644357 0.5655435
vt 0.9630932 0.5670401
vt 0.9644357 0.5670401
vt 0.9630932 0.5655435
vt 0.9644357 0.531072
vt 0.9630932 0.5655435
vt 0.9644357 0.5655435
vt 0.9630933 0.531072
vt 0.9644357 0.4615249
vt 0.9630933 0.531072
vt 0.9644357 0.531072
vt 0.9630935 0.4615249
vt 0.9710719 0.459385
vt 0.9697297 0.4593852
vt 0.9697297 0.5289327
vt 0.9710721 0.5289326
vt 0.9710721 0.5289326
vt 0.9697297 0.5634043
vt 0.9710722 0.5634043
vt 0.9697297 0.5289327
vt 0.9710719 0.4249428
vt 0.9697297 0.4593852
vt 0.9710719 0.459385
vt 0.9697295 0.4249429
vt 0.9644359 0.4270827
vt 0.9630935 0.4615249
vt 0.9644357 0.4615249
vt 0.9630935 0.427083
vt 0.9644359 0.4247585
vt 0.9630935 0.427083
vt 0.9644359 0.4270827
vt 0.9630933 0.4247585
vt 0.9710718 0.4226184
vt 0.9697295 0.4249429
vt 0.9710719 0.4249428
vt 0.9697295 0.4226186
vt 0.9630932 0.5655435
vt 0.9598531 0.5670401
vt 0.9630932 0.5670401
vt 0.9598531 0.5655436
vt 0.9598531 0.5655436
vt 0.9566125 0.5670401
vt 0.9598531 0.5670401
vt 0.9566125 0.5655435
vt 0.9598531 0.531072
vt 0.9566125 0.5655435
vt 0.9598531 0.5655436
vt 0.9566128 0.531072
vt 0.9598532 0.4615249
vt 0.9566128 0.531072
vt 0.9598531 0.531072
vt 0.9566128 0.4615247
vt 0.9630935 0.4615249
vt 0.9598532 0.4615249
vt 0.9598531 0.531072
vt 0.9630933 0.531072
vt 0.9630933 0.531072
vt 0.9598531 0.5655436
vt 0.9630932 0.5655435
vt 0.9598531 0.531072
vt 0.9630935 0.427083
vt 0.9598532 0.4615249
vt 0.9630935 0.4615249
vt 0.9598535 0.4270827
vt 0.9598535 0.4270827
vt 0.9566128 0.4615247
vt 0.9598532 0.4615249
vt 0.9566128 0.4270827
vt 0.9598535 0.4247585
vt 0.9566128 0.4270827
vt 0.9598535 0.4270827
vt 0.9566128 0.4247583
vt 0.9630933 0.4247585
vt 0.9598535 0.4270827
vt 0.9630935 0.427083
vt 0.9598535 0.4247585
vt 0.9566125 0.5655435
vt 0.9552701 0.5670401
vt 0.9566125 0.5670401
vt 0.9552701 0.5655435
vt 0.9788953 0.5634043
vt 0.977553 0.5649008
vt 0.9788953 0.5649008
vt 0.977553 0.5634043
vt 0.9788953 0.5289327
vt 0.977553 0.5634043
vt 0.9788953 0.5634043
vt 0.9775527 0.5289326
vt 0.978895 0.459385
vt 0.9775527 0.5289326
vt 0.9788953 0.5289327
vt 0.9775527 0.459385
vt 0.9566128 0.4615247
vt 0.9552705 0.4615247
vt 0.9552701 0.531072
vt 0.9566128 0.531072
vt 0.9566128 0.531072
vt 0.9552701 0.5655435
vt 0.9566125 0.5655435
vt 0.9552701 0.531072
vt 0.9566128 0.4270827
vt 0.9552705 0.4615247
vt 0.9566128 0.4615247
vt 0.9552705 0.4270827
vt 0.978895 0.4249428
vt 0.9775527 0.459385
vt 0.978895 0.459385
vt 0.9775527 0.4249428
vt 0.978895 0.4226184
vt 0.9775527 0.4249428
vt 0.978895 0.4249428
vt 0.9775527 0.4226184
vt 0.9566128 0.4247583
vt 0.9552705 0.4270827
vt 0.9566128 0.4270827
vt 0.9552705 0.4247583
vt 0.8699555 0.655017
vt 0.8663043 0.655017
vt 0.8681299 0.6562077
vt 0.8707117 0.6521432
vt 0.8655482 0.6521432
vt 0.8699555 0.649269
vt 0.8663043 0.649269
vt 0.8681299 0.6480784
vt 0.8548802 0.6492663
vt 0.8585348 0.6492666
vt 0.8567075 0.6480746
vt 0.8541233 0.6521429
vt 0.8592917 0.6521429
vt 0.8548802 0.6550198
vt 0.8585348 0.6550198
vt 0.8567075 0.6562116
vt 0.9978554 0.5713499
vt 0.9978555 0.2940285
vt 0.9847623 0.2941516
vt 0.9847621 0.5715994
vt 0.9158473 0.55858
vt 0.9158473 0.0081999
vt 0.9027567 0.007810652
vt 0.9027567 0.5589694
vt 0.9938069 0.2835574
vt 0.9938068 0.004779771
vt 0.9807135 0.004584372
vt 0.9807135 0.2834343
vt 0.9372863 0.5585946
vt 0.9372863 0.008185506
vt 0.9241948 0.007796198
vt 0.9241949 0.5589838
vt 0.3916507 0.6015646
vt 0.04456349 0.6371512
vt 0.4580415 0.6371512
vt 0.1106453 0.6015646
vt 0.3916507 0.04376176
vt 0.04247053 0.008175164
vt 0.4580415 0.008175164
vt 0.1091712 0.04376167
vt 0.4748285 0.008718938
vt 0.5435237 0.5982366
vt 0.5435237 0.0470899
vt 0.4748285 0.6366075
vt 0.8910056 0.008718938
vt 0.8209102 0.5982366
vt 0.8223105 0.0470899
vt 0.8889152 0.6366075
usemtl Cream_wood
f 351/351/351 350/350/350 349/349/349
f 354/354/354 353/353/353 352/352/352
f 357/357/357 356/356/356 355/355/355
f 356/356/356 358/358/358 355/355/355
f 361/361/361 360/360/360 359/359/359
f 360/360/360 362/362/362 359/359/359
f 365/365/365 364/364/364 363/363/363
f 364/364/364 366/366/366 363/363/363
f 369/369/369 368/368/368 367/367/367
f 368/368/368 370/370/370 367/367/367
f 373/373/373 372/372/372 371/371/371
f 372/372/372 374/374/374 371/371/371
f 377/377/377 376/376/376 375/375/375
f 376/376/376 378/378/378 375/375/375
f 381/381/381 380/380/380 379/379/379
f 380/380/380 382/382/382 379/379/379
f 385/385/385 384/384/384 383/383/383
f 384/384/384 386/386/386 383/383/383
f 389/389/389 388/388/388 387/387/387
f 390/390/390 387/387/387 388/388/388
f 391/391/391 390/390/390 388/388/388
f 392/392/392 390/390/390 391/391/391
f 393/393/393 392/392/392 391/391/391
f 394/394/394 392/392/392 393/393/393
f 397/397/397 396/396/396 395/395/395
f 396/396/396 398/398/398 395/395/395
f 401/401/401 400/400/400 399/399/399
f 400/400/400 402/402/402 399/399/399
f 405/405/405 404/404/404 403/403/403
f 404/404/404 406/406/406 403/403/403
f 409/409/409 408/408/408 407/407/407
f 408/408/408 410/410/410 407/407/407
f 413/413/413 412/412/412 411/411/411
f 412/412/412 414/414/414 411/411/411
f 417/417/417 416/416/416 415/415/415
f 416/416/416 418/418/418 415/415/415
f 421/421/421 420/420/420 419/419/419
f 420/420/420 422/422/422 419/419/419
f 425/425/425 424/424/424 423/423/423
f 426/426/426 425/425/425 423/423/423
f 429/429/429 428/428/428 427/427/427
f 430/430/430 427/427/427 428/428/428
f 431/431/431 430/430/430 428/428/428
f 432/432/432 430/430/430 431/431/431
f 433/433/433 432/432/432 431/431/431
f 434/434/434 432/432/432 433/433/433
f 437/437/437 436/436/436 435/435/435
f 436/436/436 438/438/438 435/435/435
f 441/441/441 440/440/440 439/439/439
f 440/440/440 442/442/442 439/439/439
f 445/445/445 444/444/444 443/443/443
f 444/444/444 446/446/446 443/443/443
f 449/449/449 448/448/448 447/447/447
f 448/448/448 450/450/450 447/447/447
f 453/453/453 452/452/452 451/451/451
f 452/452/452 454/454/454 451/451/451
f 457/457/457 456/456/456 455/455/455
f 456/456/456 458/458/458 455/455/455
f 461/461/461 460/460/460 459/459/459
f 462/462/462 461/461/461 459/459/459
f 465/465/465 464/464/464 463/463/463
f 464/464/464 466/466/466 463/463/463
f 469/469/469 468/468/468 467/467/467
f 470/470/470 469/469/469 467/467/467
f 473/473/473 472/472/472 471/471/471
f 472/472/472 474/474/474 471/471/471
f 477/477/477 476/476/476 475/475/475
f 476/476/476 478/478/478 475/475/475
f 481/481/481 480/480/480 479/479/479
f 480/480/480 482/482/482 479/479/479
f 485/485/485 484/484/484 483/483/483
f 484/484/484 486/486/486 483/483/483
f 489/489/489 488/488/488 487/487/487
f 488/488/488 490/490/490 487/487/487
f 493/493/493 492/492/492 491/491/491
f 492/492/492 494/494/494 491/491/491
f 497/497/497 496/496/496 495/495/495
f 496/496/496 498/498/498 495/495/495
f 501/501/501 500/500/500 499/499/499
f 500/500/500 502/502/502 499/499/499
f 505/505/505 504/504/504 503/503/503
f 504/504/504 506/506/506 503/503/503
f 509/509/509 508/508/508 507/507/507
f 508/508/508 510/510/510 507/507/507
f 513/513/513 512/512/512 511/511/511
f 512/512/512 514/514/514 511/511/511
f 517/517/517 516/516/516 515/515/515
f 516/516/516 518/518/518 515/515/515
f 521/521/521 520/520/520 519/519/519
f 522/522/522 521/521/521 519/519/519
f 525/525/525 524/524/524 523/523/523
f 524/524/524 526/526/526 523/523/523
f 529/529/529 528/528/528 527/527/527
f 528/528/528 530/530/530 527/527/527
f 533/533/533 532/532/532 531/531/531
f 532/532/532 534/534/534 531/531/531
f 537/537/537 536/536/536 535/535/535
f 536/536/536 538/538/538 535/535/535
f 541/541/541 540/540/540 539/539/539
f 540/540/540 542/542/542 539/539/539
f 545/545/545 544/544/544 543/543/543
f 544/544/544 546/546/546 543/543/543
f 549/549/549 548/548/548 547/547/547
f 548/548/548 550/550/550 547/547/547
f 553/553/553 552/552/552 551/551/551
f 552/552/552 554/554/554 551/551/551
f 557/557/557 556/556/556 555/555/555
f 556/556/556 558/558/558 555/555/555
f 561/561/561 560/560/560 559/559/559
f 562/562/562 561/561/561 559/559/559
f 565/565/565 564/564/564 563/563/563
f 564/564/564 566/566/566 563/563/563
f 569/569/569 568/568/568 567/567/567
f 568/568/568 570/570/570 567/567/567
f 573/573/573 572/572/572 571/571/571
f 572/572/572 574/574/574 571/571/571
f 577/577/577 576/576/576 575/575/575
f 576/576/576 578/578/578 575/575/575
f 581/581/581 580/580/580 579/579/579
f 580/580/580 582/582/582 579/579/579
f 585/585/585 584/584/584 583/583/583
f 584/584/584 586/586/586 583/583/583
f 589/589/589 588/588/588 587/587/587
f 588/588/588 590/590/590 587/587/587
f 593/593/593 592/592/592 591/591/591
f 592/592/592 594/594/594 591/591/591
f 597/597/597 596/596/596 595/595/595
f 596/596/596 598/598/598 595/595/595
f 601/601/601 600/600/600 599/599/599
f 602/602/602 601/601/601 599/599/599
f 605/605/605 604/604/604 603/603/603
f 604/604/604 606/606/606 603/603/603
f 609/609/609 608/608/608 607/607/607
f 608/608/608 610/610/610 607/607/607
f 613/613/613 612/612/612 611/611/611
f 612/612/612 614/614/614 611/611/611
f 617/617/617 616/616/616 615/615/615
f 616/616/616 618/618/618 615/615/615
f 621/621/621 620/620/620 619/619/619
f 620/620/620 622/622/622 619/619/619
f 625/625/625 624/624/624 623/623/623
f 626/626/626 623/623/623 624/624/624
f 627/627/627 626/626/626 624/624/624
f 628/628/628 626/626/626 627/627/627
f 629/629/629 628/628/628 627/627/627
f 630/630/630 628/628/628 629/629/629
f 633/633/633 632/632/632 631/631/631
f 634/634/634 631/631/631 632/632/632
f 635/635/635 634/634/634 632/632/632
f 636/636/636 634/634/634 635/635/635
f 637/637/637 636/636/636 635/635/635
f 638/638/638 636/636/636 637/637/637
f 641/641/641 640/640/640 639/639/639
f 642/642/642 641/641/641 639/639/639
f 645/645/645 644/644/644 643/643/643
f 646/646/646 645/645/645 643/643/643
f 649/649/649 648/648/648 647/647/647
f 650/650/650 649/649/649 647/647/647
f 653/653/653 652/652/652 651/651/651
f 654/654/654 653/653/653 651/651/651
f 657/657/657 656/656/656 655/655/655
f 656/656/656 658/658/658 655/655/655
f 657/657/657 655/655/655 659/659/659
f 656/656/656 660/660/660 658/658/658
f 661/661/661 657/657/657 659/659/659
f 660/660/660 662/662/662 658/658/658
f 661/661/661 659/659/659 662/662/662
f 660/660/660 661/661/661 662/662/662
f 665/665/665 664/664/664 663/663/663
f 664/664/664 666/666/666 663/663/663
f 665/665/665 663/663/663 667/667/667
f 664/664/664 668/668/668 666/666/666
f 669/669/669 665/665/665 667/667/667
f 668/668/668 670/670/670 666/666/666
f 669/669/669 667/667/667 670/670/670
f 668/668/668 669/669/669 670/670/670
g FP224:polySurface8_1_af4ea848
v -0.00289 0.27519 0.13791
v -0.00289 -0.27518 0.13936
v -0.00289 -0.27518 -0.13935
v -0.00289 0.27519 -0.13935
v 0.0029 0.27519 0.13791
v 0.0029 -0.27518 -0.13935
v 0.0029 -0.27518 0.13936
v 0.0029 0.27519 -0.13935
v 0.0029 -0.27518 -0.13935
v -0.00289 -0.27518 -0.13935
v -0.00289 -0.27518 0.13936
v 0.0029 -0.27518 0.13936
v 0.0029 -0.27518 0.13936
v -0.00289 -0.27518 0.13936
v -0.00289 0.27519 0.13791
v 0.0029 0.27519 0.13791
v 0.0029 0.27519 0.13791
v -0.00289 0.27519 0.13791
v -0.00289 0.27519 -0.13935
v 0.0029 0.27519 -0.13935
v 0.0029 0.27519 -0.13935
v -0.00289 0.27519 -0.13935
v -0.00289 -0.27518 -0.13935
v 0.0029 -0.27518 -0.13935
vn -1 0 -3.490659E-07
vn -1 0 -3.490659E-07
vn -1 0 -3.490659E-07
vn -1 0 -3.490659E-07
vn 1 0 3.490659E-07
vn 1 0 3.490659E-07
vn 1 0 3.490659E-07
vn 1 0 3.490659E-07
vn 0 -1 -2.36012E-07
vn -1 0 -3.490659E-07
vn -1 0 -3.490659E-07
vn 0 -1 -2.36012E-07
vn 0 0.002642994 0.9999965
vn -1 0 -3.490659E-07
vn -1 0 -3.490659E-07
vn 0 0.002642994 0.9999965
vn 0 1 0
vn -1 0 -3.490659E-07
vn -1 0 -3.490659E-07
vn 0 1 0
vn 0 0 -1
vn -1 0 -3.490659E-07
vn -1 0 -3.490659E-07
vn 0 0 -1
vt 0.3699614 0.7313062
vt 0.3714159 0.1809379
vt 0.09270139 0.180938
vt 0.09270139 0.7313062
vt 0.5620993 0.7313062
vt 0.8393593 0.180938
vt 0.5606448 0.1809379
vt 0.8393593 0.7313062
vt 0.9804519 0.09252679
vt 0.9746527 0.09252679
vt 0.9746526 0.371241
vt 0.9804518 0.371241
vt 0.9453705 0.1809371
vt 0.9395713 0.1809371
vt 0.9395713 0.7313071
vt 0.9453705 0.7313071
vt 0.9961205 0.09205309
vt 0.9903213 0.09205309
vt 0.9903214 0.3693134
vt 0.9961206 0.3693134
vt 0.9629111 0.1809375
vt 0.9571119 0.1809375
vt 0.9571119 0.7313066
vt 0.9629111 0.7313066
usemtl Glass_Detailed_Frosted_Mat
f 673/673/673 672/672/672 671/671/671
f 674/674/674 673/673/673 671/671/671
f 677/677/677 676/676/676 675/675/675
f 676/676/676 678/678/678 675/675/675
f 681/681/681 680/680/680 679/679/679
f 682/682/682 681/681/681 679/679/679
f 685/685/685 684/684/684 683/683/683
f 686/686/686 685/685/685 683/683/683
f 689/689/689 688/688/688 687/687/687
f 690/690/690 689/689/689 687/687/687
f 693/693/693 692/692/692 691/691/691
f 694/694/694 693/693/693 691/691/691
