mtllib Floor_e1b28141.mtl
g mesh_8dccbbf8
v -4.19999 -0.09999 -2.09999
v -4.19999 -0.09999 4.2
v 4.2 -0.09999 4.2
v 4.2 -0.09999 -2.09999
v -4.19999 0 -2.09999
v -4.19999 -0.09999 -2.09999
v 4.2 -0.09999 -2.09999
v 4.2 0 -2.09999
v 4.2 0 -2.09999
v 4.2 -0.09999 -2.09999
v 4.2 -0.09999 4.2
v 4.2 0 4.2
v 4.2 0 4.2
v 4.2 -0.09999 4.2
v -4.19999 -0.09999 4.2
v -4.19999 0 4.2
v -4.19999 0 4.2
v -4.19999 -0.09999 4.2
v -4.19999 -0.09999 -2.09999
v -4.19999 0 -2.09999
v -4.19999 0 -2.09999
v 4.2 0 -2.09999
v 4.2 0 4.2
v -4.19999 0 4.2
vn 0 -0.5773503 0
vn 0 -0.5773503 0
vn 0 -0.5773503 0
vn 0 -0.5773503 0
vn 0 0 -0.5773503
vn 0 0 -0.5773503
vn 0 0 -0.5773503
vn 0 0 -0.5773503
vn 0.5773503 0 0
vn 0.5773503 0 0
vn 0.5773503 0 0
vn 0.5773503 0 0
vn 0 0 0.5773503
vn 0 0 0.5773503
vn 0 0 0.5773503
vn 0 0 0.5773503
vn -0.5773503 0 0
vn -0.5773503 0 0
vn -0.5773503 0 0
vn -0.5773503 0 0
vn 0 0.5773503 0
vn 0 0.5773503 0
vn 0 0.5773503 0
vn 0 0.5773503 0
vt -5.082694 -4.299208
vt -5.082694 1.815089
vt 3.572433 1.815089
vt 3.572433 -4.299208
vt 0.5544496 0.4232972
vt 0.5544496 0.1025837
vt -2.064711 0.1025837
vt -2.064711 0.4232972
vt 3.208102 -2.080166
vt 3.208102 -2.41062
vt 1.301637 -2.41062
vt 1.301637 -2.080166
vt 0.554449 0.9249638
vt 0.554449 0.6042503
vt -2.06471 0.6042503
vt -2.06471 0.9249638
vt 3.208102 -1.578499
vt 3.208102 -1.908953
vt 1.301637 -1.908953
vt 1.301637 -1.578499
vt 3.572432 -0.78754
vt -5.082694 -0.78754
vt -5.082694 5.326755
vt 3.572432 5.326755
usemtl bathroomTilesTan2
f 3/3/3 2/2/2 1/1/1
f 4/4/4 3/3/3 1/1/1
f 7/7/7 6/6/6 5/5/5
f 8/8/8 7/7/7 5/5/5
f 11/11/11 10/10/10 9/9/9
f 12/12/12 11/11/11 9/9/9
f 15/15/15 14/14/14 13/13/13
f 16/16/16 15/15/15 13/13/13
f 19/19/19 18/18/18 17/17/17
f 20/20/20 19/19/19 17/17/17
f 23/23/23 22/22/22 21/21/21
f 24/24/24 23/23/23 21/21/21
