mtllib Cube_528_7e3d0978.mtl
g Cube.528_7e3d0978
v 2.95768 0.88377 3.47751
v 3.13696 0.88377 3.47751
v 3.13696 0.88376 3.51892
v 2.95768 0.88376 3.51892
v 3.13696 0.88377 3.47751
v 2.95768 0.88377 3.47751
v 2.95768 -0.04076 3.47719
v 3.13696 -0.04076 3.47719
v 3.13696 0.88377 3.47751
v 3.13696 -0.04076 3.47719
v 3.13696 -0.04078 3.5186
v 3.13696 0.88376 3.51892
v 3.13696 0.88376 3.51892
v 3.13696 -0.04078 3.5186
v 2.95768 -0.04078 3.5186
v 2.95768 0.88376 3.51892
v 3.13696 -0.04076 3.47719
v 2.95768 -0.04076 3.47719
v 2.95768 -0.04078 3.5186
v 3.13696 -0.04078 3.5186
v 2.95768 -0.04076 3.47719
v 2.95768 0.88377 3.47751
v 2.95768 0.88376 3.51892
v 2.95768 -0.04078 3.5186
vn 0 0.5773503 0.0001974789
vn 0 0.5773503 0.0001974795
vn 0 0.5773503 0.0001974794
vn 0 0.5773503 0.0001974788
vn 0 0.0001997229 -0.5773503
vn 0 0.000199723 -0.5773503
vn 0 0.0001997224 -0.5773503
vn 0 0.0001997223 -0.5773503
vn 0.5773503 0 0
vn 0.5773503 -1.035628E-07 0
vn 0.5773503 -1.00612E-07 0
vn 0.5773503 0 0
vn 0 -0.0001997229 0.5773503
vn 0 -0.0001997223 0.5773503
vn 0 -0.0001997224 0.5773503
vn 0 -0.000199723 0.5773503
vn 0 -0.5773503 -0.0001981915
vn 0 -0.5773503 -0.0001981909
vn 0 -0.5773503 -0.000198191
vn 0 -0.5773503 -0.0001981916
vn -0.5773503 0 0
vn -0.5773503 0 0
vn -0.5773503 0 0
vn -0.5773503 0 0
vt 0.5480638 0.1882068
vt 0.5480638 0.008921348
vt 0.5066594 0.008921348
vt 0.5066594 0.1882068
vt 0.4912308 0.03772521
vt 0.3119454 0.03772521
vt 0.3119454 0.9622596
vt 0.4912308 0.9622596
vt 0.04421753 0.9622743
vt 0.04453748 0.0377399
vt 0.003133114 0.03772569
vt 0.002813157 0.9622602
vt 0.2911875 0.9622596
vt 0.2911875 0.03772515
vt 0.1119021 0.03772515
vt 0.1119021 0.9622596
vt 0.5584563 0.008921288
vt 0.5584563 0.1882069
vt 0.5998607 0.1882069
vt 0.5998607 0.008921288
vt 0.0547888 0.03774017
vt 0.05510876 0.9622741
vt 0.0965131 0.9622599
vt 0.09619314 0.03772596
usemtl Cream_wood
f 3/3/3 2/2/2 1/1/1
f 4/4/4 3/3/3 1/1/1
f 7/7/7 6/6/6 5/5/5
f 8/8/8 7/7/7 5/5/5
f 11/11/11 10/10/10 9/9/9
f 12/12/12 11/11/11 9/9/9
f 15/15/15 14/14/14 13/13/13
f 16/16/16 15/15/15 13/13/13
f 19/19/19 18/18/18 17/17/17
f 20/20/20 19/19/19 17/17/17
f 23/23/23 22/22/22 21/21/21
f 24/24/24 23/23/23 21/21/21
g Cube.528_7e3d0978
v 2.95768 0.88377 3.47751
v 3.13696 0.88377 3.47751
v 3.13696 0.88376 3.51892
v 2.95768 0.88376 3.51892
v 3.13696 0.88377 3.47751
v 2.95768 0.88377 3.47751
v 2.95768 -0.04076 3.47719
v 3.13696 -0.04076 3.47719
v 3.13696 0.88377 3.47751
v 3.13696 -0.04076 3.47719
v 3.13696 -0.04078 3.5186
v 3.13696 0.88376 3.51892
v 3.13696 0.88376 3.51892
v 3.13696 -0.04078 3.5186
v 2.95768 -0.04078 3.5186
v 2.95768 0.88376 3.51892
v 3.13696 -0.04076 3.47719
v 2.95768 -0.04076 3.47719
v 2.95768 -0.04078 3.5186
v 3.13696 -0.04078 3.5186
v 2.95768 -0.04076 3.47719
v 2.95768 0.88377 3.47751
v 2.95768 0.88376 3.51892
v 2.95768 -0.04078 3.5186
vn 0 0.5773503 0.0001974789
vn 0 0.5773503 0.0001974795
vn 0 0.5773503 0.0001974794
vn 0 0.5773503 0.0001974788
vn 0 0.0001997229 -0.5773503
vn 0 0.000199723 -0.5773503
vn 0 0.0001997224 -0.5773503
vn 0 0.0001997223 -0.5773503
vn 0.5773503 0 0
vn 0.5773503 -1.035628E-07 0
vn 0.5773503 -1.00612E-07 0
vn 0.5773503 0 0
vn 0 -0.0001997229 0.5773503
vn 0 -0.0001997223 0.5773503
vn 0 -0.0001997224 0.5773503
vn 0 -0.000199723 0.5773503
vn 0 -0.5773503 -0.0001981915
vn 0 -0.5773503 -0.0001981909
vn 0 -0.5773503 -0.000198191
vn 0 -0.5773503 -0.0001981916
vn -0.5773503 0 0
vn -0.5773503 0 0
vn -0.5773503 0 0
vn -0.5773503 0 0
vt 0.5480638 0.1882068
vt 0.5480638 0.008921348
vt 0.5066594 0.008921348
vt 0.5066594 0.1882068
vt 0.4912308 0.03772521
vt 0.3119454 0.03772521
vt 0.3119454 0.9622596
vt 0.4912308 0.9622596
vt 0.04421753 0.9622743
vt 0.04453748 0.0377399
vt 0.003133114 0.03772569
vt 0.002813157 0.9622602
vt 0.2911875 0.9622596
vt 0.2911875 0.03772515
vt 0.1119021 0.03772515
vt 0.1119021 0.9622596
vt 0.5584563 0.008921288
vt 0.5584563 0.1882069
vt 0.5998607 0.1882069
vt 0.5998607 0.008921288
vt 0.0547888 0.03774017
vt 0.05510876 0.9622741
vt 0.0965131 0.9622599
vt 0.09619314 0.03772596
usemtl Cream_wood
f 27/27/27 26/26/26 25/25/25
f 28/28/28 27/27/27 25/25/25
f 31/31/31 30/30/30 29/29/29
f 32/32/32 31/31/31 29/29/29
f 35/35/35 34/34/34 33/33/33
f 36/36/36 35/35/35 33/33/33
f 39/39/39 38/38/38 37/37/37
f 40/40/40 39/39/39 37/37/37
f 43/43/43 42/42/42 41/41/41
f 44/44/44 43/43/43 41/41/41
f 47/47/47 46/46/46 45/45/45
f 48/48/48 47/47/47 45/45/45
