mtllib DoorFrame_003_c839621e.mtl
g DoorFrame.003_c839621e
v -0.30211 2.01541 3.19638
v -0.30211 2.01569 2.37638
v -0.30211 2.0157 2.35638
v -0.22211 2.09538 3.27641
v -0.22211 -0.00462 3.27568
v -0.30211 -0.00462 3.27568
v -0.30211 2.09538 3.27641
v -0.22211 2.0157 2.35638
v -0.22211 -0.0043 2.35568
v -0.26211 -0.0043 2.35568
v -0.26211 2.0157 2.35638
v -0.30211 2.09538 3.27641
v -0.30211 2.09572 2.27641
v -0.22211 2.09572 2.27641
v -0.22211 2.09538 3.27641
v -0.22211 -0.00428 2.27568
v -0.22211 2.09572 2.27641
v -0.30211 2.09572 2.27641
v -0.30211 -0.00428 2.27568
v -0.26211 2.01541 3.19638
v -0.26211 -0.00459 3.19568
v -0.22211 -0.00459 3.19568
v -0.22211 2.01541 3.19638
v -0.30211 2.01541 3.17638
v -0.30211 -0.00459 3.17568
v -0.26211 -0.00459 3.17568
v -0.26211 2.01541 3.17638
v -0.30211 2.09538 3.27641
v -0.30211 -0.00462 3.27568
v -0.30211 -0.00459 3.19568
v -0.30211 2.01541 3.19638
v -0.30211 2.09572 2.27641
v -0.30211 2.0157 2.35638
v -0.30211 -0.00428 2.27568
v -0.30211 -0.0043 2.35568
v -0.30211 -0.00431 2.37568
v -0.30211 2.01569 2.37638
v -0.30211 2.01541 3.17638
v -0.30211 2.01541 3.19638
v -0.30211 -0.00459 3.19568
v -0.30211 -0.00459 3.17568
v -0.22211 2.01541 3.19638
v -0.22211 2.0157 2.35638
v -0.26211 2.0157 2.35638
v -0.26211 2.01541 3.19638
v -0.22211 2.01541 3.19638
v -0.22211 -0.00459 3.19568
v -0.22211 -0.00462 3.27568
v -0.22211 2.09538 3.27641
v -0.22211 2.0157 2.35638
v -0.22211 2.09572 2.27641
v -0.22211 -0.0043 2.35568
v -0.22211 -0.00428 2.27568
v -0.26211 2.01541 3.19638
v -0.26211 2.01541 3.17638
v -0.26211 -0.00459 3.17568
v -0.26211 -0.00459 3.19568
v -0.30211 1.99541 3.17637
v -0.30211 1.99569 2.37637
v -0.26211 1.99569 2.37637
v -0.26211 1.99541 3.17637
v -0.26211 -0.00459 3.19568
v -0.26211 -0.00459 3.17568
v -0.30211 -0.00459 3.17568
v -0.30211 -0.00459 3.19568
v -0.26211 2.01569 2.37638
v -0.26211 2.0157 2.35638
v -0.26211 -0.0043 2.35568
v -0.26211 -0.00431 2.37568
v -0.26211 2.01569 2.37638
v -0.26211 -0.00431 2.37568
v -0.30211 -0.00431 2.37568
v -0.30211 2.01569 2.37638
v -0.26211 -0.00431 2.37568
v -0.26211 -0.0043 2.35568
v -0.30211 -0.0043 2.35568
v -0.30211 -0.00431 2.37568
v -0.30211 1.99541 3.17637
v -0.30211 2.01541 3.17638
v -0.30211 2.01569 2.37638
v -0.30211 1.99569 2.37637
v -0.26211 2.01541 3.17638
v -0.26211 1.99541 3.17637
v -0.26211 1.99569 2.37637
v -0.26211 2.01569 2.37638
vn 0 0.5773503 0
vn -0.5056419 0.2786745 6.644119E-05
vn -0.5056419 0.2786746 6.644121E-05
vn 0 -0.0001995181 0.5773503
vn 0 -0.0001995179 0.5773503
vn 0 -0.0001995179 0.5773503
vn 0 -0.0001995181 0.5773503
vn 0 -0.000199482 0.5773503
vn 0 -0.0001994824 0.5773503
vn 0 -0.0001994824 0.5773503
vn 0 -0.000199482 0.5773503
vn 0 0.5773503 0.0001994475
vn 0 0.5773503 0.0001993856
vn 0 0.5773503 0.000199389
vn 0 0.5773503 0.0001994508
vn 0 0.000199434 -0.5773503
vn 0 0.0001994341 -0.5773503
vn 0 0.0001994341 -0.5773503
vn 0 0.0001994341 -0.5773503
vn 0 0.0001995694 -0.5773503
vn 0 0.0001995696 -0.5773503
vn 0 0.0001995695 -0.5773503
vn 0 0.0001995694 -0.5773503
vn 0 0.0001995695 -0.5773503
vn 0 0.0001995695 -0.5773503
vn 0 0.0001995695 -0.5773503
vn 0 0.0001995695 -0.5773503
vn -0.5773503 0 -6.930853E-08
vn -0.5773503 0 0
vn -0.5773503 0 1.042268E-07
vn -0.5773503 0 0
vn -0.5773503 -1.155256E-07 2.033031E-07
vn -0.5773503 -1.160596E-07 6.716979E-08
vn -0.5773503 0 0
vn -0.5773503 0 -2.202409E-07
vn -0.5773503 0 -1.101208E-06
vn -0.5773503 0 -1.101218E-06
vn -0.5773503 0 5.506199E-07
vn -0.5773503 0 0
vn -0.5773503 0 1.042268E-07
vn -0.5773503 0 5.506042E-07
vn 0 -0.5773503 -0.0001992744
vn 0 -0.5773503 -0.0001995357
vn 0 -0.5773503 -0.0001995275
vn 0 -0.5773503 -0.0001992662
vn 0.5773503 5.990091E-08 0
vn 0.5773503 0 0
vn 0.5773503 0 0
vn 0.5773503 0 0
vn 0.5773503 0 0
vn 0.5773503 0 0
vn 0.5773503 0 0
vn 0.5773503 0 0
vn 0.5773503 0 0
vn 0.5773503 0 0
vn 0.5773503 0 0
vn 0.5773503 0 0
vn 0 0.5773503 0.0001993121
vn 0 0.5773503 0.0001991113
vn 0 0.5773503 0.0001991179
vn 0 0.5773503 0.0001993187
vn 0 -0.5773503 -0.000198697
vn 0 -0.5773503 -0.0001987021
vn 0 -0.5773503 -0.00019869
vn 0 -0.5773503 -0.0001986849
vn 0.5773503 0 0
vn 0.5773503 0 0
vn 0.5773503 0 0
vn 0.5773503 0 0
vn 0 -0.0001994823 0.5773503
vn 0 -0.0001994823 0.5773503
vn 0 -0.0001994823 0.5773503
vn 0 -0.0001994823 0.5773503
vn 0 -0.5773503 -0.0001986775
vn 0 -0.5773503 -0.0001986826
vn 0 -0.5773503 -0.0001986704
vn 0 -0.5773503 -0.0001986652
vn 0.5773503 2.733327E-07 -6.841337E-08
vn 0.5773503 2.49264E-07 -6.863543E-08
vn 0.5773503 1.737838E-06 0
vn 0.5773503 1.761907E-06 0
vn -0.5773503 6.21637E-07 1.514161E-07
vn -0.5773503 6.316892E-07 1.514161E-07
vn -0.5773503 0 1.514172E-07
vn -0.5773503 0 1.514172E-07
vt 0.5865012 1.317011
vt -0.2334997 1.317294
vt -0.2534997 1.317301
vt 0.7243103 1.397099
vt 0.7243103 -0.7029031
vt 0.6443102 -0.7029031
vt 0.6443102 1.397099
vt 0.8617117 1.34395
vt 0.8617117 -0.6760488
vt 0.8217118 -0.6760488
vt 0.8217118 1.34395
vt 0.8036629 0.3336725
vt 0.8036629 1.333672
vt 0.8836629 1.333672
vt 0.8836629 0.3336725
vt 0.7561013 1.397097
vt 0.7561013 -0.7029012
vt 0.6761011 -0.7029012
vt 0.6761013 1.397097
vt 0.8016332 -0.6760489
vt 0.8016332 1.34395
vt 0.8416332 1.34395
vt 0.8416332 -0.6760489
vt 0.7614762 -0.6760463
vt 0.7614762 1.343948
vt 0.8014761 1.343948
vt 0.8014761 -0.6760463
vt 0.6665286 1.396983
vt 0.665803 -0.7030198
vt 0.5858029 -0.702992
vt 0.5865012 1.317011
vt -0.3334724 1.397329
vt -0.2534997 1.317301
vt -0.3341979 -0.7026741
vt -0.2541977 -0.7027019
vt -0.2341977 -0.7027088
vt -0.2334997 1.317294
vt 0.7284961 1.343952
vt 0.7484959 1.343945
vt 0.7477975 -0.6760479
vt 0.727798 -0.6760411
vt 0.8386754 1.227376
vt 0.8386752 0.3873807
vt 0.7986754 0.3873807
vt 0.7986755 1.227376
vt 0.08063999 1.31701
vt 0.08133829 -0.7029913
vt 0.001338243 -0.703019
vt 0.0006126761 1.396983
vt 0.9206403 1.3173
vt 1.000613 1.397328
vt 0.9213384 -0.7027012
vt 1.001339 -0.7026734
vt 0.7411838 1.343948
vt 0.7611834 1.343955
vt 0.7618818 -0.6760446
vt 0.7418821 -0.6760514
vt 0.756398 0.4008105
vt 0.756398 1.200804
vt 0.7963974 1.200804
vt 0.7963977 0.4008105
vt 0.7712698 0.6559129
vt 0.751271 0.6559129
vt 0.751271 0.695911
vt 0.7712698 0.695911
vt 0.7545693 1.34395
vt 0.7745695 1.343957
vt 0.7752675 -0.6760461
vt 0.7552675 -0.6760529
vt 0.8215547 1.34395
vt 0.8215547 -0.6760483
vt 0.7815548 -0.6760483
vt 0.7815548 1.34395
vt 0.7594311 0.6559093
vt 0.7394284 0.6559093
vt 0.7394284 0.6959146
vt 0.7594311 0.6959146
vt 0.7933642 1.200799
vt 0.8133643 1.200806
vt 0.8136405 0.400813
vt 0.7936404 0.4008059
vt 0.8014326 0.4008059
vt 0.7814324 0.400813
vt 0.7817088 1.200806
vt 0.801709 1.200799
usemtl Cream_wood
f 3/3/3 2/2/2 1/1/1
f 6/6/6 5/5/5 4/4/4
f 7/7/7 6/6/6 4/4/4
f 10/10/10 9/9/9 8/8/8
f 11/11/11 10/10/10 8/8/8
f 14/14/14 13/13/13 12/12/12
f 15/15/15 14/14/14 12/12/12
f 18/18/18 17/17/17 16/16/16
f 19/19/19 18/18/18 16/16/16
f 22/22/22 21/21/21 20/20/20
f 23/23/23 22/22/22 20/20/20
f 26/26/26 25/25/25 24/24/24
f 27/27/27 26/26/26 24/24/24
f 30/30/30 29/29/29 28/28/28
f 31/31/31 30/30/30 28/28/28
f 28/28/28 32/32/32 31/31/31
f 32/32/32 33/33/33 31/31/31
f 33/33/33 32/32/32 34/34/34
f 35/35/35 33/33/33 34/34/34
f 35/35/35 36/36/36 33/33/33
f 36/36/36 37/37/37 33/33/33
f 40/40/40 39/39/39 38/38/38
f 41/41/41 40/40/40 38/38/38
f 44/44/44 43/43/43 42/42/42
f 45/45/45 44/44/44 42/42/42
f 48/48/48 47/47/47 46/46/46
f 49/49/49 48/48/48 46/46/46
f 49/49/49 46/46/46 50/50/50
f 51/51/51 49/49/49 50/50/50
f 51/51/51 50/50/50 52/52/52
f 53/53/53 51/51/51 52/52/52
f 56/56/56 55/55/55 54/54/54
f 57/57/57 56/56/56 54/54/54
f 60/60/60 59/59/59 58/58/58
f 61/61/61 60/60/60 58/58/58
f 64/64/64 63/63/63 62/62/62
f 65/65/65 64/64/64 62/62/62
f 68/68/68 67/67/67 66/66/66
f 69/69/69 68/68/68 66/66/66
f 72/72/72 71/71/71 70/70/70
f 73/73/73 72/72/72 70/70/70
f 76/76/76 75/75/75 74/74/74
f 77/77/77 76/76/76 74/74/74
f 80/80/80 79/79/79 78/78/78
f 81/81/81 80/80/80 78/78/78
f 84/84/84 83/83/83 82/82/82
f 85/85/85 84/84/84 82/82/82
g DoorFrame.003_c839621e
v -0.30211 2.01541 3.19638
v -0.30211 2.01569 2.37638
v -0.30211 2.0157 2.35638
v -0.22211 2.09538 3.27641
v -0.22211 -0.00462 3.27568
v -0.30211 -0.00462 3.27568
v -0.30211 2.09538 3.27641
v -0.22211 2.0157 2.35638
v -0.22211 -0.0043 2.35568
v -0.26211 -0.0043 2.35568
v -0.26211 2.0157 2.35638
v -0.30211 2.09538 3.27641
v -0.30211 2.09572 2.27641
v -0.22211 2.09572 2.27641
v -0.22211 2.09538 3.27641
v -0.22211 -0.00428 2.27568
v -0.22211 2.09572 2.27641
v -0.30211 2.09572 2.27641
v -0.30211 -0.00428 2.27568
v -0.26211 2.01541 3.19638
v -0.26211 -0.00459 3.19568
v -0.22211 -0.00459 3.19568
v -0.22211 2.01541 3.19638
v -0.30211 2.01541 3.17638
v -0.30211 -0.00459 3.17568
v -0.26211 -0.00459 3.17568
v -0.26211 2.01541 3.17638
v -0.30211 2.09538 3.27641
v -0.30211 -0.00462 3.27568
v -0.30211 -0.00459 3.19568
v -0.30211 2.01541 3.19638
v -0.30211 2.09572 2.27641
v -0.30211 2.0157 2.35638
v -0.30211 -0.00428 2.27568
v -0.30211 -0.0043 2.35568
v -0.30211 -0.00431 2.37568
v -0.30211 2.01569 2.37638
v -0.30211 2.01541 3.17638
v -0.30211 2.01541 3.19638
v -0.30211 -0.00459 3.19568
v -0.30211 -0.00459 3.17568
v -0.22211 2.01541 3.19638
v -0.22211 2.0157 2.35638
v -0.26211 2.0157 2.35638
v -0.26211 2.01541 3.19638
v -0.22211 2.01541 3.19638
v -0.22211 -0.00459 3.19568
v -0.22211 -0.00462 3.27568
v -0.22211 2.09538 3.27641
v -0.22211 2.0157 2.35638
v -0.22211 2.09572 2.27641
v -0.22211 -0.0043 2.35568
v -0.22211 -0.00428 2.27568
v -0.26211 2.01541 3.19638
v -0.26211 2.01541 3.17638
v -0.26211 -0.00459 3.17568
v -0.26211 -0.00459 3.19568
v -0.30211 1.99541 3.17637
v -0.30211 1.99569 2.37637
v -0.26211 1.99569 2.37637
v -0.26211 1.99541 3.17637
v -0.26211 -0.00459 3.19568
v -0.26211 -0.00459 3.17568
v -0.30211 -0.00459 3.17568
v -0.30211 -0.00459 3.19568
v -0.26211 2.01569 2.37638
v -0.26211 2.0157 2.35638
v -0.26211 -0.0043 2.35568
v -0.26211 -0.00431 2.37568
v -0.26211 2.01569 2.37638
v -0.26211 -0.00431 2.37568
v -0.30211 -0.00431 2.37568
v -0.30211 2.01569 2.37638
v -0.26211 -0.00431 2.37568
v -0.26211 -0.0043 2.35568
v -0.30211 -0.0043 2.35568
v -0.30211 -0.00431 2.37568
v -0.30211 1.99541 3.17637
v -0.30211 2.01541 3.17638
v -0.30211 2.01569 2.37638
v -0.30211 1.99569 2.37637
v -0.26211 2.01541 3.17638
v -0.26211 1.99541 3.17637
v -0.26211 1.99569 2.37637
v -0.26211 2.01569 2.37638
vn 0 0.5773503 0
vn -0.5056419 0.2786745 6.644119E-05
vn -0.5056419 0.2786746 6.644121E-05
vn 0 -0.0001995181 0.5773503
vn 0 -0.0001995179 0.5773503
vn 0 -0.0001995179 0.5773503
vn 0 -0.0001995181 0.5773503
vn 0 -0.000199482 0.5773503
vn 0 -0.0001994824 0.5773503
vn 0 -0.0001994824 0.5773503
vn 0 -0.000199482 0.5773503
vn 0 0.5773503 0.0001994475
vn 0 0.5773503 0.0001993856
vn 0 0.5773503 0.000199389
vn 0 0.5773503 0.0001994508
vn 0 0.000199434 -0.5773503
vn 0 0.0001994341 -0.5773503
vn 0 0.0001994341 -0.5773503
vn 0 0.0001994341 -0.5773503
vn 0 0.0001995694 -0.5773503
vn 0 0.0001995696 -0.5773503
vn 0 0.0001995695 -0.5773503
vn 0 0.0001995694 -0.5773503
vn 0 0.0001995695 -0.5773503
vn 0 0.0001995695 -0.5773503
vn 0 0.0001995695 -0.5773503
vn 0 0.0001995695 -0.5773503
vn -0.5773503 0 -6.930853E-08
vn -0.5773503 0 0
vn -0.5773503 0 1.042268E-07
vn -0.5773503 0 0
vn -0.5773503 -1.155256E-07 2.033031E-07
vn -0.5773503 -1.160596E-07 6.716979E-08
vn -0.5773503 0 0
vn -0.5773503 0 -2.202409E-07
vn -0.5773503 0 -1.101208E-06
vn -0.5773503 0 -1.101218E-06
vn -0.5773503 0 5.506199E-07
vn -0.5773503 0 0
vn -0.5773503 0 1.042268E-07
vn -0.5773503 0 5.506042E-07
vn 0 -0.5773503 -0.0001992744
vn 0 -0.5773503 -0.0001995357
vn 0 -0.5773503 -0.0001995275
vn 0 -0.5773503 -0.0001992662
vn 0.5773503 5.990091E-08 0
vn 0.5773503 0 0
vn 0.5773503 0 0
vn 0.5773503 0 0
vn 0.5773503 0 0
vn 0.5773503 0 0
vn 0.5773503 0 0
vn 0.5773503 0 0
vn 0.5773503 0 0
vn 0.5773503 0 0
vn 0.5773503 0 0
vn 0.5773503 0 0
vn 0 0.5773503 0.0001993121
vn 0 0.5773503 0.0001991113
vn 0 0.5773503 0.0001991179
vn 0 0.5773503 0.0001993187
vn 0 -0.5773503 -0.000198697
vn 0 -0.5773503 -0.0001987021
vn 0 -0.5773503 -0.00019869
vn 0 -0.5773503 -0.0001986849
vn 0.5773503 0 0
vn 0.5773503 0 0
vn 0.5773503 0 0
vn 0.5773503 0 0
vn 0 -0.0001994823 0.5773503
vn 0 -0.0001994823 0.5773503
vn 0 -0.0001994823 0.5773503
vn 0 -0.0001994823 0.5773503
vn 0 -0.5773503 -0.0001986775
vn 0 -0.5773503 -0.0001986826
vn 0 -0.5773503 -0.0001986704
vn 0 -0.5773503 -0.0001986652
vn 0.5773503 2.733327E-07 -6.841337E-08
vn 0.5773503 2.49264E-07 -6.863543E-08
vn 0.5773503 1.737838E-06 0
vn 0.5773503 1.761907E-06 0
vn -0.5773503 6.21637E-07 1.514161E-07
vn -0.5773503 6.316892E-07 1.514161E-07
vn -0.5773503 0 1.514172E-07
vn -0.5773503 0 1.514172E-07
vt 0.5865012 1.317011
vt -0.2334997 1.317294
vt -0.2534997 1.317301
vt 0.7243103 1.397099
vt 0.7243103 -0.7029031
vt 0.6443102 -0.7029031
vt 0.6443102 1.397099
vt 0.8617117 1.34395
vt 0.8617117 -0.6760488
vt 0.8217118 -0.6760488
vt 0.8217118 1.34395
vt 0.8036629 0.3336725
vt 0.8036629 1.333672
vt 0.8836629 1.333672
vt 0.8836629 0.3336725
vt 0.7561013 1.397097
vt 0.7561013 -0.7029012
vt 0.6761011 -0.7029012
vt 0.6761013 1.397097
vt 0.8016332 -0.6760489
vt 0.8016332 1.34395
vt 0.8416332 1.34395
vt 0.8416332 -0.6760489
vt 0.7614762 -0.6760463
vt 0.7614762 1.343948
vt 0.8014761 1.343948
vt 0.8014761 -0.6760463
vt 0.6665286 1.396983
vt 0.665803 -0.7030198
vt 0.5858029 -0.702992
vt 0.5865012 1.317011
vt -0.3334724 1.397329
vt -0.2534997 1.317301
vt -0.3341979 -0.7026741
vt -0.2541977 -0.7027019
vt -0.2341977 -0.7027088
vt -0.2334997 1.317294
vt 0.7284961 1.343952
vt 0.7484959 1.343945
vt 0.7477975 -0.6760479
vt 0.727798 -0.6760411
vt 0.8386754 1.227376
vt 0.8386752 0.3873807
vt 0.7986754 0.3873807
vt 0.7986755 1.227376
vt 0.08063999 1.31701
vt 0.08133829 -0.7029913
vt 0.001338243 -0.703019
vt 0.0006126761 1.396983
vt 0.9206403 1.3173
vt 1.000613 1.397328
vt 0.9213384 -0.7027012
vt 1.001339 -0.7026734
vt 0.7411838 1.343948
vt 0.7611834 1.343955
vt 0.7618818 -0.6760446
vt 0.7418821 -0.6760514
vt 0.756398 0.4008105
vt 0.756398 1.200804
vt 0.7963974 1.200804
vt 0.7963977 0.4008105
vt 0.7712698 0.6559129
vt 0.751271 0.6559129
vt 0.751271 0.695911
vt 0.7712698 0.695911
vt 0.7545693 1.34395
vt 0.7745695 1.343957
vt 0.7752675 -0.6760461
vt 0.7552675 -0.6760529
vt 0.8215547 1.34395
vt 0.8215547 -0.6760483
vt 0.7815548 -0.6760483
vt 0.7815548 1.34395
vt 0.7594311 0.6559093
vt 0.7394284 0.6559093
vt 0.7394284 0.6959146
vt 0.7594311 0.6959146
vt 0.7933642 1.200799
vt 0.8133643 1.200806
vt 0.8136405 0.400813
vt 0.7936404 0.4008059
vt 0.8014326 0.4008059
vt 0.7814324 0.400813
vt 0.7817088 1.200806
vt 0.801709 1.200799
usemtl Cream_wood
f 88/88/88 87/87/87 86/86/86
f 91/91/91 90/90/90 89/89/89
f 92/92/92 91/91/91 89/89/89
f 95/95/95 94/94/94 93/93/93
f 96/96/96 95/95/95 93/93/93
f 99/99/99 98/98/98 97/97/97
f 100/100/100 99/99/99 97/97/97
f 103/103/103 102/102/102 101/101/101
f 104/104/104 103/103/103 101/101/101
f 107/107/107 106/106/106 105/105/105
f 108/108/108 107/107/107 105/105/105
f 111/111/111 110/110/110 109/109/109
f 112/112/112 111/111/111 109/109/109
f 115/115/115 114/114/114 113/113/113
f 116/116/116 115/115/115 113/113/113
f 113/113/113 117/117/117 116/116/116
f 117/117/117 118/118/118 116/116/116
f 118/118/118 117/117/117 119/119/119
f 120/120/120 118/118/118 119/119/119
f 120/120/120 121/121/121 118/118/118
f 121/121/121 122/122/122 118/118/118
f 125/125/125 124/124/124 123/123/123
f 126/126/126 125/125/125 123/123/123
f 129/129/129 128/128/128 127/127/127
f 130/130/130 129/129/129 127/127/127
f 133/133/133 132/132/132 131/131/131
f 134/134/134 133/133/133 131/131/131
f 134/134/134 131/131/131 135/135/135
f 136/136/136 134/134/134 135/135/135
f 136/136/136 135/135/135 137/137/137
f 138/138/138 136/136/136 137/137/137
f 141/141/141 140/140/140 139/139/139
f 142/142/142 141/141/141 139/139/139
f 145/145/145 144/144/144 143/143/143
f 146/146/146 145/145/145 143/143/143
f 149/149/149 148/148/148 147/147/147
f 150/150/150 149/149/149 147/147/147
f 153/153/153 152/152/152 151/151/151
f 154/154/154 153/153/153 151/151/151
f 157/157/157 156/156/156 155/155/155
f 158/158/158 157/157/157 155/155/155
f 161/161/161 160/160/160 159/159/159
f 162/162/162 161/161/161 159/159/159
f 165/165/165 164/164/164 163/163/163
f 166/166/166 165/165/165 163/163/163
f 169/169/169 168/168/168 167/167/167
f 170/170/170 169/169/169 167/167/167
