mtllib Door_003_f5592cf6.mtl
g Door.003_f5592cf6
v -0.22278 2.00945 3.07048
v -0.22278 1.87941 3.19433
v -0.22278 2.00941 3.19438
v -0.22278 1.87945 3.07092
v -0.22278 2.00966 2.47448
v -0.22278 0.86941 3.19399
v -0.22278 1.87966 2.47492
v -0.22278 2.0097 2.35838
v -0.22278 1.8797 2.35833
v -0.22278 0.86945 3.07431
v -0.22278 0.86965 2.47831
v -0.22278 0.74941 3.19394
v -0.22278 0.8697 2.35799
v -0.22278 0.74945 3.07472
v -0.22278 0.24941 3.19377
v -0.22278 0.74965 2.47871
v -0.22278 0.7497 2.35794
v -0.22278 0.24945 3.07641
v -0.22278 -0.00059 3.19369
v -0.22278 -0.00055 3.07726
v -0.22278 0.24965 2.48041
v -0.22278 0.2497 2.35777
v -0.22278 -0.00035 2.48126
v -0.22278 -0.0003 2.35769
v -0.22278 0.86965 2.47831
v -0.21278 0.86965 2.47831
v -0.21278 1.87966 2.47492
v -0.22278 1.87966 2.47492
v -0.22278 1.87966 2.47492
v -0.21278 1.87966 2.47492
v -0.21278 1.87945 3.07092
v -0.22278 1.87945 3.07092
v -0.22278 1.87945 3.07092
v -0.21278 1.87945 3.07092
v -0.21278 0.86945 3.07431
v -0.22278 0.86945 3.07431
v -0.22278 0.86945 3.07431
v -0.21278 0.86945 3.07431
v -0.21278 0.86965 2.47831
v -0.22278 0.86965 2.47831
v -0.22278 0.24945 3.07641
v -0.21278 0.24945 3.07641
v -0.21278 0.24965 2.48041
v -0.22278 0.24965 2.48041
v -0.22278 0.74965 2.47871
v -0.21278 0.74965 2.47871
v -0.21278 0.74945 3.07472
v -0.22278 0.74945 3.07472
v -0.22278 0.74945 3.07472
v -0.21278 0.74945 3.07472
v -0.21278 0.24945 3.07641
v -0.22278 0.24945 3.07641
v -0.22278 0.24965 2.48041
v -0.21278 0.24965 2.48041
v -0.21278 0.74965 2.47871
v -0.22278 0.74965 2.47871
v -0.21278 0.26195 3.06166
v -0.214 0.26195 3.06166
v -0.214 0.26215 2.49507
v -0.21278 0.26215 2.49507
v -0.21278 1.86198 3.0563
v -0.214 1.86198 3.0563
v -0.214 0.88606 3.05952
v -0.21278 0.88606 3.05952
v -0.21278 0.26215 2.49507
v -0.214 0.26215 2.49507
v -0.214 0.73715 2.49346
v -0.21278 0.73715 2.49346
v -0.21278 0.88626 2.49293
v -0.214 0.88626 2.49293
v -0.214 1.86218 2.48971
v -0.21278 1.86218 2.48971
v -0.21278 0.73695 3.06005
v -0.214 0.73695 3.06005
v -0.214 0.26195 3.06166
v -0.21278 0.26195 3.06166
v -0.21278 1.86218 2.48971
v -0.214 1.86218 2.48971
v -0.214 1.86198 3.0563
v -0.21278 1.86198 3.0563
v -0.21278 0.73715 2.49346
v -0.214 0.73715 2.49346
v -0.214 0.73695 3.06005
v -0.21278 0.73695 3.06005
v -0.21278 0.88606 3.05952
v -0.214 0.88606 3.05952
v -0.214 0.88626 2.49293
v -0.21278 0.88626 2.49293
v -0.22278 0.86945 3.07431
v -0.22278 0.86965 2.47831
v -0.22278 1.87966 2.47492
v -0.22278 1.87945 3.07092
v -0.22278 0.74965 2.47871
v -0.22278 0.74945 3.07472
v -0.22278 0.24945 3.07641
v -0.22278 0.24965 2.48041
v -0.25278 2.00945 3.07048
v -0.25278 2.00941 3.19438
v -0.25278 1.87941 3.19433
v -0.25278 1.87945 3.07092
v -0.25278 2.00966 2.47448
v -0.25278 0.86941 3.19399
v -0.25278 1.87966 2.47492
v -0.25278 2.0097 2.35838
v -0.25278 1.8797 2.35833
v -0.25278 0.86945 3.07431
v -0.25278 0.86965 2.47831
v -0.25278 0.74941 3.19394
v -0.25278 0.8697 2.35799
v -0.25278 0.74945 3.07472
v -0.25278 0.24941 3.19377
v -0.25278 0.74965 2.47871
v -0.25278 0.7497 2.35794
v -0.25278 0.24945 3.07641
v -0.25278 -0.00059 3.19369
v -0.25278 -0.00055 3.07726
v -0.25278 0.24965 2.48041
v -0.25278 0.2497 2.35777
v -0.25278 -0.00035 2.48126
v -0.25278 -0.0003 2.35769
v -0.25278 0.86945 3.07431
v -0.25278 0.86965 2.47831
v -0.25278 1.87966 2.47492
v -0.25278 1.87945 3.07092
v -0.25278 0.86965 2.47831
v -0.25278 1.87966 2.47492
v -0.26278 1.87966 2.47492
v -0.26278 0.86965 2.47831
v -0.25278 1.87966 2.47492
v -0.25278 1.87945 3.07092
v -0.26278 1.87945 3.07092
v -0.26278 1.87966 2.47492
v -0.25278 1.87945 3.07092
v -0.25278 0.86945 3.07431
v -0.26278 0.86945 3.07431
v -0.26278 1.87945 3.07092
v -0.25278 0.86945 3.07431
v -0.25278 0.86965 2.47831
v -0.26278 0.86965 2.47831
v -0.26278 0.86945 3.07431
v -0.25278 0.24945 3.07641
v -0.25278 0.24965 2.48041
v -0.26278 0.24965 2.48041
v -0.26278 0.24945 3.07641
v -0.25278 0.74965 2.47871
v -0.25278 0.74945 3.07472
v -0.26278 0.74945 3.07472
v -0.26278 0.74965 2.47871
v -0.25278 0.74945 3.07472
v -0.25278 0.24945 3.07641
v -0.26278 0.24945 3.07641
v -0.26278 0.74945 3.07472
v -0.25278 0.24965 2.48041
v -0.25278 0.74965 2.47871
v -0.26278 0.74965 2.47871
v -0.26278 0.24965 2.48041
v -0.26278 0.26195 3.06166
v -0.26278 0.26215 2.49507
v -0.26155 0.26215 2.49507
v -0.26155 0.26195 3.06166
v -0.26278 1.86198 3.0563
v -0.26278 0.88606 3.05952
v -0.26155 0.88606 3.05952
v -0.26155 1.86198 3.0563
v -0.26278 0.26215 2.49507
v -0.26278 0.73715 2.49346
v -0.26155 0.73715 2.49346
v -0.26155 0.26215 2.49507
v -0.26278 0.88626 2.49293
v -0.26278 1.86218 2.48971
v -0.26155 1.86218 2.48971
v -0.26155 0.88626 2.49293
v -0.26278 0.73695 3.06005
v -0.26278 0.26195 3.06166
v -0.26155 0.26195 3.06166
v -0.26155 0.73695 3.06005
v -0.26278 1.86218 2.48971
v -0.26278 1.86198 3.0563
v -0.26155 1.86198 3.0563
v -0.26155 1.86218 2.48971
v -0.26278 0.73715 2.49346
v -0.26278 0.73695 3.06005
v -0.26155 0.73695 3.06005
v -0.26155 0.73715 2.49346
v -0.26278 0.88606 3.05952
v -0.26278 0.88626 2.49293
v -0.26155 0.88626 2.49293
v -0.26155 0.88606 3.05952
v -0.25278 0.74965 2.47871
v -0.25278 0.24965 2.48041
v -0.25278 0.24945 3.07641
v -0.25278 0.74945 3.07472
v -0.25278 2.00941 3.19438
v -0.22278 2.00945 3.07048
v -0.22278 2.00941 3.19438
v -0.25278 2.00945 3.07048
v -0.22278 2.00966 2.47448
v -0.25278 2.00966 2.47448
v -0.22278 2.0097 2.35838
v -0.25278 2.0097 2.35838
v -0.25278 2.0097 2.35838
v -0.22278 1.8797 2.35833
v -0.22278 2.0097 2.35838
v -0.25278 1.8797 2.35833
v -0.22278 0.8697 2.35799
v -0.25278 0.8697 2.35799
v -0.22278 0.7497 2.35794
v -0.25278 0.7497 2.35794
v -0.22278 0.2497 2.35777
v -0.25278 0.2497 2.35777
v -0.22278 -0.0003 2.35769
v -0.25278 -0.0003 2.35769
v -0.25278 -0.0003 2.35769
v -0.22278 -0.00035 2.48126
v -0.22278 -0.0003 2.35769
v -0.25278 -0.00035 2.48126
v -0.22278 -0.00055 3.07726
v -0.25278 -0.00055 3.07726
v -0.22278 -0.00059 3.19369
v -0.25278 -0.00059 3.19369
v -0.25278 -0.00059 3.19369
v -0.22278 0.24941 3.19377
v -0.22278 -0.00059 3.19369
v -0.25278 0.24941 3.19377
v -0.22278 0.74941 3.19394
v -0.25278 0.74941 3.19394
v -0.22278 0.86941 3.19399
v -0.25278 0.86941 3.19399
v -0.22278 1.87941 3.19433
v -0.25278 1.87941 3.19433
v -0.22278 2.00941 3.19438
v -0.25278 2.00941 3.19438
v -0.214 0.88626 2.49293
v -0.214 0.88606 3.05952
v -0.214 1.86198 3.0563
v -0.214 1.86218 2.48971
v -0.214 0.26215 2.49507
v -0.214 0.26195 3.06166
v -0.214 0.73695 3.06005
v -0.214 0.73715 2.49346
v -0.21278 0.74965 2.47871
v -0.21278 0.73715 2.49346
v -0.21278 0.73695 3.06005
v -0.21278 0.74945 3.07472
v -0.21278 0.24965 2.48041
v -0.21278 0.26195 3.06166
v -0.21278 0.26215 2.49507
v -0.21278 0.24945 3.07641
v -0.21278 0.86965 2.47831
v -0.21278 0.88626 2.49293
v -0.21278 1.86218 2.48971
v -0.21278 1.87966 2.47492
v -0.21278 0.86945 3.07431
v -0.21278 1.86198 3.0563
v -0.21278 0.88606 3.05952
v -0.21278 1.87945 3.07092
v -0.26278 0.74965 2.47871
v -0.26278 0.74945 3.07472
v -0.26278 0.73695 3.06005
v -0.26278 0.73715 2.49346
v -0.26278 0.26195 3.06166
v -0.26278 0.24965 2.48041
v -0.26278 0.24945 3.07641
v -0.26278 0.26215 2.49507
v -0.26278 0.86965 2.47831
v -0.26278 1.87966 2.47492
v -0.26278 1.86218 2.48971
v -0.26278 0.88626 2.49293
v -0.26278 1.86198 3.0563
v -0.26278 0.86945 3.07431
v -0.26278 1.87945 3.07092
v -0.26278 0.88606 3.05952
vn 0.5773503 0 -7.657073E-08
vn 0.5773503 0 0
vn 0.5773503 2.187835E-07 0
vn 0.5773503 0 0
vn 0.5773503 0 -7.726092E-08
vn 0.5773503 0 0
vn 0.5773503 0 0
vn 0.5773503 6.722622E-08 0
vn 0.5773503 0 0
vn 0.5773503 0 0
vn 0.5773503 0 0
vn 0.5773503 0 0
vn 0.5773503 0 0
vn 0.5773503 0 0
vn 0.5773503 0 0
vn 0.5773503 0 0
vn 0.5773503 0 0
vn 0.5773503 0 -5.81261E-08
vn 0.5773503 0 0
vn 0.5773503 0 -7.722566E-08
vn 0.5773503 0 0
vn 0.5773503 0 0
vn 0.5773503 0 -7.660887E-08
vn 0.5773503 0 0
vn 0 -0.001936546 -0.577347
vn 0 -0.001936546 -0.577347
vn 0 -0.00193654 -0.577347
vn 0 -0.001936541 -0.577347
vn 0 0.5773503 0.0001995435
vn 0 0.5773503 0.0001995466
vn 0 0.5773503 0.0001992566
vn 0 0.5773503 0.0001992534
vn -1.407195E-07 0.001936372 0.577347
vn 0 0.001936373 0.577347
vn -2.218888E-05 0.001936194 0.577347
vn -2.23296E-05 0.001936193 0.577347
vn 0 -0.5773503 -0.0001994025
vn 0 -0.5773503 -0.0001994009
vn 0 -0.5773503 -0.0001995459
vn 0 -0.5773503 -0.0001995475
vn 0 -0.5773503 -0.0001996595
vn 0 -0.5773503 -0.0001996599
vn 0 -0.5773503 -0.0001996218
vn 0 -0.5773503 -0.0001996214
vn 0 0.5773503 0.0001996961
vn 0 0.5773503 0.0001996945
vn 0 0.5773503 0.0001998432
vn 0 0.5773503 0.0001998447
vn 0 0.001957499 0.577347
vn 0 0.001957499 0.577347
vn 0 0.001957493 0.577347
vn 0 0.001957493 0.577347
vn 0 -0.001958905 -0.577347
vn 0 -0.001958905 -0.577347
vn 0 -0.0019589 -0.577347
vn 0 -0.0019589 -0.577347
vn 0 0.5773503 0.0001995649
vn 0 0.5773503 0.000199565
vn 0 0.5773503 0.0001995765
vn 0 0.5773503 0.0001995765
vn 0 -0.001900735 -0.5773472
vn 0 -0.001900735 -0.5773472
vn 0 -0.001900689 -0.5773472
vn 0 -0.001900689 -0.5773472
vn 0 0.001957982 0.577347
vn 0 0.001957982 0.577347
vn 0 0.001957936 0.577347
vn 0 0.001957935 0.577347
vn 0 0.001900726 0.5773472
vn 0 0.001900726 0.5773472
vn 0 0.001900725 0.5773472
vn 0 0.001900725 0.5773472
vn 0 -0.001957802 -0.577347
vn 0 -0.001957802 -0.577347
vn 0 -0.001957708 -0.577347
vn 0 -0.001957708 -0.577347
vn 0 -0.5773503 -0.0001995373
vn 0 -0.5773503 -0.0001995368
vn 0 -0.5773503 -0.0001998823
vn 0 -0.5773503 -0.0001998828
vn 0 -0.5773503 -0.0001992261
vn 0 -0.5773503 -0.0001992261
vn 0 -0.5773503 -0.0001992401
vn 0 -0.5773503 -0.0001992402
vn 0 0.5773503 0.000199717
vn 0 0.5773503 0.0001997168
vn 0 0.5773503 0.0001998614
vn 0 0.5773503 0.0001998616
vn -0.5773503 0 9.238254E-08
vn -0.5773503 0 9.238257E-08
vn -0.5773503 0 9.238251E-08
vn -0.5773503 0 9.238246E-08
vn -0.5773503 0 9.238258E-08
vn -0.5773503 0 9.238245E-08
vn -0.5773503 0 9.238256E-08
vn -0.5773503 0 9.238271E-08
vn -0.5773503 0 7.620734E-08
vn -0.5773503 0 4.444054E-07
vn -0.5773503 0 4.460626E-07
vn -0.5773503 0 2.689484E-07
vn -0.5773503 0 0
vn -0.5773503 0 0
vn -0.5773503 0 0
vn -0.5773503 0 0
vn -0.5773503 0 0
vn -0.5773503 0 0
vn -0.5773503 -7.514156E-08 0
vn -0.5773503 0 0
vn -0.5773503 0 0
vn -0.5773503 0 0
vn -0.5773503 0 0
vn -0.5773503 -1.084653E-07 0
vn -0.5773503 0 0
vn -0.5773503 0 5.81261E-08
vn -0.5773503 0 0
vn -0.5773503 0 7.722566E-08
vn -0.5773503 0 0
vn -0.5773503 0 0
vn -0.5773503 0 7.660887E-08
vn -0.5773503 0 0
vn -0.5773503 0 6.1005E-08
vn -0.5773503 0 9.238251E-08
vn -0.5773503 0 0
vn -0.5773503 0 0
vn 0 -0.00193654 -0.577347
vn 0 -0.00193654 -0.577347
vn 0 -0.00193654 -0.577347
vn 0 -0.00193654 -0.577347
vn 0 0.5773503 0.0001995394
vn 0 0.5773503 0.0001992494
vn 0 0.5773503 0.0001992525
vn 0 0.5773503 0.0001995426
vn 0 0.00193638 0.577347
vn 0 0.001936361 0.577347
vn 0 0.001936361 0.577347
vn 0 0.00193638 0.577347
vn 0 -0.5773503 -0.0001993959
vn 0 -0.5773503 -0.0001994981
vn 0 -0.5773503 -0.000199497
vn 0 -0.5773503 -0.0001993948
vn 0 -0.5773503 -0.0001996176
vn 0 -0.5773503 -0.0001996459
vn 0 -0.5773503 -0.0001996455
vn 0 -0.5773503 -0.0001996173
vn 0 0.5773503 0.0001996923
vn 0 0.5773503 0.0001997937
vn 0 0.5773503 0.0001997926
vn 0 0.5773503 0.0001996912
vn 0 0.001957498 0.577347
vn 0 0.001957498 0.577347
vn 0 0.001957498 0.577347
vn 0 0.001957498 0.577347
vn -2.871301E-07 -0.001957503 -0.577347
vn -2.255229E-05 -0.001957667 -0.577347
vn -2.226516E-05 -0.001957664 -0.577347
vn 0 -0.001957501 -0.577347
vn 1.002605E-07 0.5773503 0.0001993712
vn 7.212049E-05 0.5773503 0.0001995805
vn 7.202276E-05 0.5773503 0.0001995802
vn 0 0.5773503 0.0001993709
vn 0 -0.001900716 -0.5773472
vn 0 -0.001900716 -0.5773472
vn 0 -0.001900716 -0.5773472
vn 0 -0.001900716 -0.5773472
vn 0 0.00195734 0.577347
vn 0 0.001958003 0.577347
vn 0 0.001958001 0.577347
vn 0 0.001957339 0.577347
vn 1.553408E-07 0.001900745 0.5773472
vn 0.0001888847 0.001900745 0.5773471
vn 0.0001887409 0.001900745 0.5773471
vn 0 0.001900745 0.5773472
vn 0 -0.001957781 -0.577347
vn 0 -0.001957781 -0.577347
vn 0 -0.001957781 -0.577347
vn 0 -0.001957781 -0.577347
vn 7.1946E-05 -0.5773503 -0.0002001645
vn 0 -0.5773503 -0.0001995841
vn 9.761825E-08 -0.5773503 -0.0001995849
vn 7.204361E-05 -0.5773503 -0.0002001652
vn 0 -0.5773503 -0.0001993636
vn 0 -0.5773503 -0.0001991108
vn 0 -0.5773503 -0.0001991112
vn 0 -0.5773503 -0.0001993639
vn 0 0.5773503 0.0001996819
vn 0 0.5773503 0.0001998598
vn 0 0.5773503 0.0001998596
vn 0 0.5773503 0.0001996816
vn 0.5773503 0 -9.238266E-08
vn 0.5773503 0 -9.238263E-08
vn 0.5773503 0 -9.238266E-08
vn 0.5773503 0 -9.238266E-08
vn 0 0.5773503 0.0001954747
vn 0 0.5773503 0.0001993571
vn 0 0.5773503 0.0001953019
vn 0 0.5773503 0.0001993827
vn 0 0.5773503 0.0001995949
vn 0 0.5773503 0.0001995907
vn 0 0.5773503 0.0001983014
vn 0 0.5773503 0.0001983013
vn 0 0.0002019452 -0.5773503
vn 0 0.0001997631 -0.5773503
vn 0 0.0002019453 -0.5773503
vn 0 0.0001997631 -0.5773503
vn 0 0.0001996598 -0.5773503
vn 0 0.0001996598 -0.5773503
vn 0 0.0001996384 -0.5773503
vn 0 0.0001996384 -0.5773503
vn 0 0.0001988635 -0.5773503
vn 0 0.0001988635 -0.5773503
vn 0 0.0001980412 -0.5773503
vn 0 0.0001980412 -0.5773503
vn 0 -0.5773503 -0.0001996068
vn 0 -0.5773503 -0.0001995072
vn 0 -0.5773503 -0.0001996068
vn 0 -0.5773503 -0.0001995072
vn 0 -0.5773503 -0.0001973434
vn 0 -0.5773503 -0.0001973434
vn 0 -0.5773503 -0.0001863739
vn 0 -0.5773503 -0.0001863741
vn 0 -0.0001987475 0.5773503
vn 0 -0.0001992166 0.5773503
vn 0 -0.0001987475 0.5773503
vn 0 -0.0001992166 0.5773503
vn 0 -0.0001994965 0.5773503
vn 0 -0.0001994965 0.5773503
vn 0 -0.0001995819 0.5773503
vn 0 -0.0001995818 0.5773503
vn 0 -0.0001996858 0.5773503
vn 0 -0.0001996858 0.5773503
vn 0 -0.0002005887 0.5773503
vn 0 -0.0002005887 0.5773503
vn 0.5773503 0 -9.717857E-08
vn 0.5773503 0 -9.71786E-08
vn 0.5773503 0 -9.717856E-08
vn 0.5773503 0 -9.717853E-08
vn 0.5773503 0 -9.717869E-08
vn 0.5773503 0 -9.717878E-08
vn 0.5773503 0 -9.717872E-08
vn 0.5773503 0 -9.717863E-08
vn 0.5773503 -3.139945E-07 0
vn 0.5773503 -3.802674E-07 0
vn 0.5773503 0 0
vn 0.5773503 0 0
vn 0.5773503 -8.770897E-07 0
vn 0.5773503 9.600317E-08 0
vn 0.5773503 -9.993498E-07 0
vn 0.5773503 0 0
vn 0.5773503 -6.284848E-07 0
vn 0.5773503 -5.427663E-07 0
vn 0.5773503 -2.387426E-07 0
vn 0.5773503 -2.701821E-07 0
vn 0.5773503 4.190286E-07 0
vn 0.5773503 0 0
vn 0.5773503 4.042782E-07 0
vn 0.5773503 0 0
vn -0.5773503 0 0
vn -0.5773503 0 0
vn -0.5773503 0 0
vn -0.5773503 0 0
vn -0.5773503 0 0
vn -0.5773503 -8.781182E-07 0
vn -0.5773503 0 0
vn -0.5773503 -1.000324E-06 0
vn -0.5773503 0 0
vn -0.5773503 5.989628E-07 0
vn -0.5773503 5.445048E-07 0
vn -0.5773503 0 0
vn -0.5773503 -5.311684E-07 0
vn -0.5773503 0 0
vn -0.5773503 -6.436341E-07 0
vn -0.5773503 0 0
vt -0.1762261 1.286385
vt -0.3000773 1.156343
vt -0.3001224 1.286343
vt -0.1766675 1.156386
vt 0.4197787 1.286592
vt -0.2997282 0.1463431
vt 0.4193384 1.156591
vt 0.5358777 1.286632
vt 0.5359231 1.156632
vt -0.1800549 0.1463843
vt 0.4159505 0.1465903
vt -0.2996868 0.02634299
vt 0.5362722 0.1466319
vt -0.1804616 0.02638394
vt -0.2995141 -0.4736565
vt 0.4155444 0.02659014
vt 0.5363139 0.02663189
vt -0.1821567 -0.4736166
vt -0.2994279 -0.7236547
vt -0.1830055 -0.7236171
vt 0.413848 -0.4734105
vt 0.5364866 -0.4733682
vt 0.4130009 -0.7234111
vt 0.5365723 -0.7233685
vt 0.5815771 0.9321268
vt 0.5915771 0.9321268
vt 0.5915771 -0.07788563
vt 0.5815771 -0.07788563
vt 0.300946 1.115654
vt 0.3109458 1.115654
vt 0.3109458 0.5196483
vt 0.300946 0.5196483
vt 0.5988217 0.932139
vt 0.6088217 0.932139
vt 0.6088217 -0.07789773
vt 0.5988217 -0.07789773
vt 0.3195027 1.11565
vt 0.3295024 1.115651
vt 0.3295024 0.5196511
vt 0.3195026 0.5196511
vt 0.3473376 1.115652
vt 0.3573374 1.115652
vt 0.3573374 0.519649
vt 0.3473376 0.519649
vt 0.2916676 1.115654
vt 0.3016675 1.115654
vt 0.3016675 0.5196482
vt 0.2916677 0.5196482
vt 0.583007 0.890854
vt 0.5930065 0.890854
vt 0.5930065 0.3908685
vt 0.583007 0.3908685
vt 0.5644504 1.159521
vt 0.57445 1.159521
vt 0.57445 0.6595333
vt 0.5644504 0.6595333
vt 0.561419 0.6354702
vt 0.5601956 0.6354702
vt 0.5601956 1.202101
vt 0.561419 1.202101
vt 0.4006976 0.2124843
vt 0.3994743 0.2124843
vt 0.3994743 1.188457
vt 0.4006976 1.188457
vt 0.6282229 0.3998909
vt 0.6269994 0.3998909
vt 0.6269994 0.8749946
vt 0.6282229 0.8749946
vt 0.3945159 0.2125047
vt 0.3932925 0.2125047
vt 0.3932925 1.188436
vt 0.3945159 1.188436
vt 0.6059549 0.3998427
vt 0.6047313 0.3998427
vt 0.6047313 0.8749284
vt 0.6059549 0.8749284
vt 0.5317283 0.6354699
vt 0.5305049 0.6354699
vt 0.5305049 1.202101
vt 0.5317283 1.202101
vt 0.5465738 0.6354703
vt 0.5453504 0.6354703
vt 0.5453504 1.202101
vt 0.5465738 1.202101
vt 0.5094604 0.6354695
vt 0.5082371 0.6354695
vt 0.5082371 1.202101
vt 0.5094604 1.202101
vt 1.066143 -0.3626589
vt 0.4701379 -0.362453
vt 0.4667501 0.6475475
vt 1.062756 0.6473417
vt 0.3889689 0.9467363
vt 0.3887628 0.3507302
vt -0.1112374 0.3490351
vt -0.1110314 0.9450396
vt 0.6522424 1.286386
vt 0.7761387 1.286343
vt 0.7760936 1.156343
vt 0.6526839 1.156386
vt 0.05623752 1.286592
vt 0.7757445 0.146343
vt 0.05667782 1.156591
vt -0.05986153 1.286632
vt -0.05990693 1.156632
vt 0.6560714 0.1463843
vt 0.06006569 0.1465902
vt 0.7757031 0.02634296
vt -0.060256 0.1466319
vt 0.6564779 0.02638391
vt 0.7755305 -0.4736566
vt 0.06047285 0.02659011
vt -0.0602977 0.02663183
vt 0.658173 -0.4736167
vt 0.7754442 -0.7236548
vt 0.6590217 -0.7236173
vt 0.06216827 -0.4734107
vt -0.06047042 -0.4733683
vt 0.06301528 -0.7234113
vt -0.06055613 -0.7233686
vt 1.166599 -0.07795399
vt 0.5705933 -0.07774806
vt 0.5672054 0.9322525
vt 1.163211 0.9320468
vt 0.5829549 0.9321118
vt 0.5829549 -0.07787067
vt 0.5729548 -0.07787067
vt 0.5729548 0.9321118
vt 0.3202244 1.115661
vt 0.3202244 0.5196404
vt 0.3102241 0.5196404
vt 0.310224 1.115661
vt 0.6001995 0.9321258
vt 0.6001995 -0.07788444
vt 0.5901994 -0.07788444
vt 0.5901994 0.9321258
vt 0.3387809 1.11565
vt 0.3387808 0.5196519
vt 0.3287808 0.5196519
vt 0.3287809 1.11565
vt 0.366616 1.181919
vt 0.366616 0.5859084
vt 0.3566156 0.5859084
vt 0.3566157 1.181919
vt 0.3480592 1.115652
vt 0.3480593 0.5196501
vt 0.3380592 0.5196501
vt 0.338059 1.115652
vt 0.6022851 0.8908576
vt 0.6022851 0.390865
vt 0.5922853 0.390865
vt 0.5922853 0.8908576
vt 0.5837287 0.8908671
vt 0.5837287 0.3908556
vt 0.5737282 0.3908556
vt 0.5737282 0.8908671
vt 0.5379279 0.6355315
vt 0.5379277 1.202039
vt 0.539151 1.202039
vt 0.539151 0.6355315
vt 0.3871107 0.2125644
vt 0.3871107 1.188376
vt 0.3883341 1.188376
vt 0.3883341 0.2125644
vt 0.6195767 0.3999229
vt 0.6195767 0.8749627
vt 0.6208004 0.8749627
vt 0.6208004 0.3999227
vt 0.4056561 0.2125288
vt 0.4056561 1.188412
vt 0.4068795 1.188412
vt 0.4068795 0.2125288
vt 0.6121542 0.3999602
vt 0.6121542 0.8749255
vt 0.6133777 0.8749255
vt 0.6133777 0.3999602
vt 0.5230821 0.6354946
vt 0.5230823 1.202077
vt 0.5243058 1.202077
vt 0.5243056 0.6354944
vt 0.5527729 0.6354922
vt 0.5527731 1.202079
vt 0.5539964 1.202079
vt 0.5539964 0.6354922
vt 0.5156599 0.6355308
vt 0.5156597 1.20204
vt 0.516883 1.20204
vt 0.5168833 0.6355308
vt 0.3215453 0.5190365
vt -0.1784551 0.5207318
vt -0.1786613 1.116736
vt 0.321339 1.115041
vt 0.3483559 0.2630166
vt 0.378356 0.386913
vt 0.378356 0.2630166
vt 0.3483559 0.386913
vt 0.378356 0.9829187
vt 0.3483559 0.9829187
vt 0.378356 1.099018
vt 0.3483559 1.099018
vt 0.4700146 -0.7235494
vt 0.5000146 -0.5935496
vt 0.5000146 -0.7235494
vt 0.4700146 -0.5935496
vt 0.5000146 0.4164482
vt 0.4700146 0.4164482
vt 0.5000146 0.536448
vt 0.4700146 0.536448
vt 0.5000146 1.036447
vt 0.4700146 1.036447
vt 0.5000146 1.286447
vt 0.4700146 1.286447
vt 0.3625395 0.2630146
vt 0.3925397 0.3865868
vt 0.3925397 0.2630146
vt 0.3625395 0.3865868
vt 0.3925399 0.9825968
vt 0.3625395 0.9825968
vt 0.3925399 1.09902
vt 0.3625395 1.09902
vt 0.4848599 -0.7235482
vt 0.51486 -0.4735506
vt 0.51486 -0.7235482
vt 0.4848599 -0.4735506
vt 0.51486 0.02644765
vt 0.4848599 0.02644765
vt 0.51486 0.1464474
vt 0.4848599 0.1464474
vt 0.51486 1.156445
vt 0.4848599 1.156445
vt 0.51486 1.286445
vt 0.4848599 1.286445
vt 0.7731903 0.212636
vt 0.2065993 0.21244
vt 0.2098125 1.188359
vt 0.776403 1.188556
vt 0.1981694 0.6365197
vt 0.1979737 1.20311
vt 0.6729745 1.201499
vt 0.67317 0.634909
vt 0.5339002 0.3490364
vt 0.5213951 0.3637873
vt 0.5211995 0.9303744
vt 0.5336939 0.9450399
vt 0.03390206 0.3507328
vt 0.04620095 0.9319855
vt 0.04639666 0.3653982
vt 0.03369591 0.9467349
vt 0.8901789 -0.3624535
vt 0.8755593 -0.3458518
vt 0.8787723 0.6300681
vt 0.8935668 0.6475479
vt 0.2941731 -0.3626593
vt 0.3121814 0.6298721
vt 0.3089682 -0.3460478
vt 0.2975607 0.6473421
vt 0.4683275 1.116735
vt 0.4681214 0.5207326
vt 0.4556271 0.5353978
vt 0.4558225 1.101986
vt -0.01937233 0.533787
vt -0.03167143 1.11504
vt -0.03187737 0.5190375
vt -0.01917651 1.100375
vt 0.398081 -0.07774705
vt 0.3946932 0.9322515
vt 0.4094876 0.9147716
vt 0.4127006 -0.06114545
vt 0.9760772 0.9145757
vt 0.9940855 -0.07795292
vt 0.9906979 0.9320458
vt 0.9792904 -0.06134138
usemtl Cream_wood
f 3/3/3 2/2/2 1/1/1
f 2/2/2 4/4/4 1/1/1
f 1/1/1 4/4/4 5/5/5
f 2/2/2 6/6/6 4/4/4
f 4/4/4 7/7/7 5/5/5
f 5/5/5 7/7/7 8/8/8
f 7/7/7 9/9/9 8/8/8
f 6/6/6 10/10/10 4/4/4
f 7/7/7 11/11/11 9/9/9
f 6/6/6 12/12/12 10/10/10
f 11/11/11 13/13/13 9/9/9
f 12/12/12 14/14/14 10/10/10
f 10/10/10 14/14/14 11/11/11
f 12/12/12 15/15/15 14/14/14
f 11/11/11 16/16/16 13/13/13
f 14/14/14 16/16/16 11/11/11
f 16/16/16 17/17/17 13/13/13
f 15/15/15 18/18/18 14/14/14
f 15/15/15 19/19/19 18/18/18
f 19/19/19 20/20/20 18/18/18
f 16/16/16 21/21/21 17/17/17
f 18/18/18 20/20/20 21/21/21
f 21/21/21 22/22/22 17/17/17
f 20/20/20 23/23/23 21/21/21
f 21/21/21 23/23/23 22/22/22
f 23/23/23 24/24/24 22/22/22
f 27/27/27 26/26/26 25/25/25
f 28/28/28 27/27/27 25/25/25
f 31/31/31 30/30/30 29/29/29
f 32/32/32 31/31/31 29/29/29
f 35/35/35 34/34/34 33/33/33
f 36/36/36 35/35/35 33/33/33
f 39/39/39 38/38/38 37/37/37
f 40/40/40 39/39/39 37/37/37
f 43/43/43 42/42/42 41/41/41
f 44/44/44 43/43/43 41/41/41
f 47/47/47 46/46/46 45/45/45
f 48/48/48 47/47/47 45/45/45
f 51/51/51 50/50/50 49/49/49
f 52/52/52 51/51/51 49/49/49
f 55/55/55 54/54/54 53/53/53
f 56/56/56 55/55/55 53/53/53
f 59/59/59 58/58/58 57/57/57
f 60/60/60 59/59/59 57/57/57
f 63/63/63 62/62/62 61/61/61
f 64/64/64 63/63/63 61/61/61
f 67/67/67 66/66/66 65/65/65
f 68/68/68 67/67/67 65/65/65
f 71/71/71 70/70/70 69/69/69
f 72/72/72 71/71/71 69/69/69
f 75/75/75 74/74/74 73/73/73
f 76/76/76 75/75/75 73/73/73
f 79/79/79 78/78/78 77/77/77
f 80/80/80 79/79/79 77/77/77
f 83/83/83 82/82/82 81/81/81
f 84/84/84 83/83/83 81/81/81
f 87/87/87 86/86/86 85/85/85
f 88/88/88 87/87/87 85/85/85
f 91/91/91 90/90/90 89/89/89
f 92/92/92 91/91/91 89/89/89
f 95/95/95 94/94/94 93/93/93
f 96/96/96 95/95/95 93/93/93
f 99/99/99 98/98/98 97/97/97
f 100/100/100 99/99/99 97/97/97
f 100/100/100 97/97/97 101/101/101
f 102/102/102 99/99/99 100/100/100
f 103/103/103 100/100/100 101/101/101
f 103/103/103 101/101/101 104/104/104
f 105/105/105 103/103/103 104/104/104
f 106/106/106 102/102/102 100/100/100
f 107/107/107 103/103/103 105/105/105
f 108/108/108 102/102/102 106/106/106
f 109/109/109 107/107/107 105/105/105
f 110/110/110 108/108/108 106/106/106
f 110/110/110 106/106/106 107/107/107
f 111/111/111 108/108/108 110/110/110
f 112/112/112 107/107/107 109/109/109
f 112/112/112 110/110/110 107/107/107
f 113/113/113 112/112/112 109/109/109
f 114/114/114 111/111/111 110/110/110
f 115/115/115 111/111/111 114/114/114
f 116/116/116 115/115/115 114/114/114
f 117/117/117 112/112/112 113/113/113
f 116/116/116 114/114/114 117/117/117
f 118/118/118 117/117/117 113/113/113
f 119/119/119 116/116/116 117/117/117
f 119/119/119 117/117/117 118/118/118
f 120/120/120 119/119/119 118/118/118
f 123/123/123 122/122/122 121/121/121
f 124/124/124 123/123/123 121/121/121
f 127/127/127 126/126/126 125/125/125
f 128/128/128 127/127/127 125/125/125
f 131/131/131 130/130/130 129/129/129
f 132/132/132 131/131/131 129/129/129
f 135/135/135 134/134/134 133/133/133
f 136/136/136 135/135/135 133/133/133
f 139/139/139 138/138/138 137/137/137
f 140/140/140 139/139/139 137/137/137
f 143/143/143 142/142/142 141/141/141
f 144/144/144 143/143/143 141/141/141
f 147/147/147 146/146/146 145/145/145
f 148/148/148 147/147/147 145/145/145
f 151/151/151 150/150/150 149/149/149
f 152/152/152 151/151/151 149/149/149
f 155/155/155 154/154/154 153/153/153
f 156/156/156 155/155/155 153/153/153
f 159/159/159 158/158/158 157/157/157
f 160/160/160 159/159/159 157/157/157
f 163/163/163 162/162/162 161/161/161
f 164/164/164 163/163/163 161/161/161
f 167/167/167 166/166/166 165/165/165
f 168/168/168 167/167/167 165/165/165
f 171/171/171 170/170/170 169/169/169
f 172/172/172 171/171/171 169/169/169
f 175/175/175 174/174/174 173/173/173
f 176/176/176 175/175/175 173/173/173
f 179/179/179 178/178/178 177/177/177
f 180/180/180 179/179/179 177/177/177
f 183/183/183 182/182/182 181/181/181
f 184/184/184 183/183/183 181/181/181
f 187/187/187 186/186/186 185/185/185
f 188/188/188 187/187/187 185/185/185
f 191/191/191 190/190/190 189/189/189
f 192/192/192 191/191/191 189/189/189
f 195/195/195 194/194/194 193/193/193
f 194/194/194 196/196/196 193/193/193
f 196/196/196 194/194/194 197/197/197
f 198/198/198 196/196/196 197/197/197
f 198/198/198 197/197/197 199/199/199
f 200/200/200 198/198/198 199/199/199
f 203/203/203 202/202/202 201/201/201
f 202/202/202 204/204/204 201/201/201
f 202/202/202 205/205/205 204/204/204
f 205/205/205 206/206/206 204/204/204
f 205/205/205 207/207/207 206/206/206
f 207/207/207 208/208/208 206/206/206
f 208/208/208 207/207/207 209/209/209
f 210/210/210 208/208/208 209/209/209
f 210/210/210 209/209/209 211/211/211
f 212/212/212 210/210/210 211/211/211
f 215/215/215 214/214/214 213/213/213
f 214/214/214 216/216/216 213/213/213
f 214/214/214 217/217/217 216/216/216
f 217/217/217 218/218/218 216/216/216
f 218/218/218 217/217/217 219/219/219
f 220/220/220 218/218/218 219/219/219
f 223/223/223 222/222/222 221/221/221
f 222/222/222 224/224/224 221/221/221
f 222/222/222 225/225/225 224/224/224
f 225/225/225 226/226/226 224/224/224
f 226/226/226 225/225/225 227/227/227
f 228/228/228 226/226/226 227/227/227
f 228/228/228 227/227/227 229/229/229
f 230/230/230 228/228/228 229/229/229
f 230/230/230 229/229/229 231/231/231
f 232/232/232 230/230/230 231/231/231
f 235/235/235 234/234/234 233/233/233
f 236/236/236 235/235/235 233/233/233
f 239/239/239 238/238/238 237/237/237
f 240/240/240 239/239/239 237/237/237
f 243/243/243 242/242/242 241/241/241
f 244/244/244 243/243/243 241/241/241
f 241/241/241 242/242/242 245/245/245
f 246/246/246 243/243/243 244/244/244
f 242/242/242 247/247/247 245/245/245
f 248/248/248 246/246/246 244/244/244
f 245/245/245 247/247/247 248/248/248
f 247/247/247 246/246/246 248/248/248
f 251/251/251 250/250/250 249/249/249
f 252/252/252 251/251/251 249/249/249
f 249/249/249 250/250/250 253/253/253
f 254/254/254 251/251/251 252/252/252
f 250/250/250 255/255/255 253/253/253
f 256/256/256 254/254/254 252/252/252
f 253/253/253 255/255/255 256/256/256
f 255/255/255 254/254/254 256/256/256
f 259/259/259 258/258/258 257/257/257
f 260/260/260 259/259/259 257/257/257
f 259/259/259 261/261/261 258/258/258
f 260/260/260 257/257/257 262/262/262
f 261/261/261 263/263/263 258/258/258
f 264/264/264 260/260/260 262/262/262
f 261/261/261 264/264/264 263/263/263
f 264/264/264 262/262/262 263/263/263
f 267/267/267 266/266/266 265/265/265
f 268/268/268 267/267/267 265/265/265
f 267/267/267 269/269/269 266/266/266
f 268/268/268 265/265/265 270/270/270
f 269/269/269 271/271/271 266/266/266
f 272/272/272 268/268/268 270/270/270
f 272/272/272 270/270/270 271/271/271
f 269/269/269 272/272/272 271/271/271
g Door.003_f5592cf6
v -0.22278 2.00945 3.07048
v -0.22278 1.87941 3.19433
v -0.22278 2.00941 3.19438
v -0.22278 1.87945 3.07092
v -0.22278 2.00966 2.47448
v -0.22278 0.86941 3.19399
v -0.22278 1.87966 2.47492
v -0.22278 2.0097 2.35838
v -0.22278 1.8797 2.35833
v -0.22278 0.86945 3.07431
v -0.22278 0.86965 2.47831
v -0.22278 0.74941 3.19394
v -0.22278 0.8697 2.35799
v -0.22278 0.74945 3.07472
v -0.22278 0.24941 3.19377
v -0.22278 0.74965 2.47871
v -0.22278 0.7497 2.35794
v -0.22278 0.24945 3.07641
v -0.22278 -0.00059 3.19369
v -0.22278 -0.00055 3.07726
v -0.22278 0.24965 2.48041
v -0.22278 0.2497 2.35777
v -0.22278 -0.00035 2.48126
v -0.22278 -0.0003 2.35769
v -0.22278 0.86965 2.47831
v -0.21278 0.86965 2.47831
v -0.21278 1.87966 2.47492
v -0.22278 1.87966 2.47492
v -0.22278 1.87966 2.47492
v -0.21278 1.87966 2.47492
v -0.21278 1.87945 3.07092
v -0.22278 1.87945 3.07092
v -0.22278 1.87945 3.07092
v -0.21278 1.87945 3.07092
v -0.21278 0.86945 3.07431
v -0.22278 0.86945 3.07431
v -0.22278 0.86945 3.07431
v -0.21278 0.86945 3.07431
v -0.21278 0.86965 2.47831
v -0.22278 0.86965 2.47831
v -0.22278 0.24945 3.07641
v -0.21278 0.24945 3.07641
v -0.21278 0.24965 2.48041
v -0.22278 0.24965 2.48041
v -0.22278 0.74965 2.47871
v -0.21278 0.74965 2.47871
v -0.21278 0.74945 3.07472
v -0.22278 0.74945 3.07472
v -0.22278 0.74945 3.07472
v -0.21278 0.74945 3.07472
v -0.21278 0.24945 3.07641
v -0.22278 0.24945 3.07641
v -0.22278 0.24965 2.48041
v -0.21278 0.24965 2.48041
v -0.21278 0.74965 2.47871
v -0.22278 0.74965 2.47871
v -0.21278 0.26195 3.06166
v -0.214 0.26195 3.06166
v -0.214 0.26215 2.49507
v -0.21278 0.26215 2.49507
v -0.21278 1.86198 3.0563
v -0.214 1.86198 3.0563
v -0.214 0.88606 3.05952
v -0.21278 0.88606 3.05952
v -0.21278 0.26215 2.49507
v -0.214 0.26215 2.49507
v -0.214 0.73715 2.49346
v -0.21278 0.73715 2.49346
v -0.21278 0.88626 2.49293
v -0.214 0.88626 2.49293
v -0.214 1.86218 2.48971
v -0.21278 1.86218 2.48971
v -0.21278 0.73695 3.06005
v -0.214 0.73695 3.06005
v -0.214 0.26195 3.06166
v -0.21278 0.26195 3.06166
v -0.21278 1.86218 2.48971
v -0.214 1.86218 2.48971
v -0.214 1.86198 3.0563
v -0.21278 1.86198 3.0563
v -0.21278 0.73715 2.49346
v -0.214 0.73715 2.49346
v -0.214 0.73695 3.06005
v -0.21278 0.73695 3.06005
v -0.21278 0.88606 3.05952
v -0.214 0.88606 3.05952
v -0.214 0.88626 2.49293
v -0.21278 0.88626 2.49293
v -0.22278 0.86945 3.07431
v -0.22278 0.86965 2.47831
v -0.22278 1.87966 2.47492
v -0.22278 1.87945 3.07092
v -0.22278 0.74965 2.47871
v -0.22278 0.74945 3.07472
v -0.22278 0.24945 3.07641
v -0.22278 0.24965 2.48041
v -0.25278 2.00945 3.07048
v -0.25278 2.00941 3.19438
v -0.25278 1.87941 3.19433
v -0.25278 1.87945 3.07092
v -0.25278 2.00966 2.47448
v -0.25278 0.86941 3.19399
v -0.25278 1.87966 2.47492
v -0.25278 2.0097 2.35838
v -0.25278 1.8797 2.35833
v -0.25278 0.86945 3.07431
v -0.25278 0.86965 2.47831
v -0.25278 0.74941 3.19394
v -0.25278 0.8697 2.35799
v -0.25278 0.74945 3.07472
v -0.25278 0.24941 3.19377
v -0.25278 0.74965 2.47871
v -0.25278 0.7497 2.35794
v -0.25278 0.24945 3.07641
v -0.25278 -0.00059 3.19369
v -0.25278 -0.00055 3.07726
v -0.25278 0.24965 2.48041
v -0.25278 0.2497 2.35777
v -0.25278 -0.00035 2.48126
v -0.25278 -0.0003 2.35769
v -0.25278 0.86945 3.07431
v -0.25278 0.86965 2.47831
v -0.25278 1.87966 2.47492
v -0.25278 1.87945 3.07092
v -0.25278 0.86965 2.47831
v -0.25278 1.87966 2.47492
v -0.26278 1.87966 2.47492
v -0.26278 0.86965 2.47831
v -0.25278 1.87966 2.47492
v -0.25278 1.87945 3.07092
v -0.26278 1.87945 3.07092
v -0.26278 1.87966 2.47492
v -0.25278 1.87945 3.07092
v -0.25278 0.86945 3.07431
v -0.26278 0.86945 3.07431
v -0.26278 1.87945 3.07092
v -0.25278 0.86945 3.07431
v -0.25278 0.86965 2.47831
v -0.26278 0.86965 2.47831
v -0.26278 0.86945 3.07431
v -0.25278 0.24945 3.07641
v -0.25278 0.24965 2.48041
v -0.26278 0.24965 2.48041
v -0.26278 0.24945 3.07641
v -0.25278 0.74965 2.47871
v -0.25278 0.74945 3.07472
v -0.26278 0.74945 3.07472
v -0.26278 0.74965 2.47871
v -0.25278 0.74945 3.07472
v -0.25278 0.24945 3.07641
v -0.26278 0.24945 3.07641
v -0.26278 0.74945 3.07472
v -0.25278 0.24965 2.48041
v -0.25278 0.74965 2.47871
v -0.26278 0.74965 2.47871
v -0.26278 0.24965 2.48041
v -0.26278 0.26195 3.06166
v -0.26278 0.26215 2.49507
v -0.26155 0.26215 2.49507
v -0.26155 0.26195 3.06166
v -0.26278 1.86198 3.0563
v -0.26278 0.88606 3.05952
v -0.26155 0.88606 3.05952
v -0.26155 1.86198 3.0563
v -0.26278 0.26215 2.49507
v -0.26278 0.73715 2.49346
v -0.26155 0.73715 2.49346
v -0.26155 0.26215 2.49507
v -0.26278 0.88626 2.49293
v -0.26278 1.86218 2.48971
v -0.26155 1.86218 2.48971
v -0.26155 0.88626 2.49293
v -0.26278 0.73695 3.06005
v -0.26278 0.26195 3.06166
v -0.26155 0.26195 3.06166
v -0.26155 0.73695 3.06005
v -0.26278 1.86218 2.48971
v -0.26278 1.86198 3.0563
v -0.26155 1.86198 3.0563
v -0.26155 1.86218 2.48971
v -0.26278 0.73715 2.49346
v -0.26278 0.73695 3.06005
v -0.26155 0.73695 3.06005
v -0.26155 0.73715 2.49346
v -0.26278 0.88606 3.05952
v -0.26278 0.88626 2.49293
v -0.26155 0.88626 2.49293
v -0.26155 0.88606 3.05952
v -0.25278 0.74965 2.47871
v -0.25278 0.24965 2.48041
v -0.25278 0.24945 3.07641
v -0.25278 0.74945 3.07472
v -0.25278 2.00941 3.19438
v -0.22278 2.00945 3.07048
v -0.22278 2.00941 3.19438
v -0.25278 2.00945 3.07048
v -0.22278 2.00966 2.47448
v -0.25278 2.00966 2.47448
v -0.22278 2.0097 2.35838
v -0.25278 2.0097 2.35838
v -0.25278 2.0097 2.35838
v -0.22278 1.8797 2.35833
v -0.22278 2.0097 2.35838
v -0.25278 1.8797 2.35833
v -0.22278 0.8697 2.35799
v -0.25278 0.8697 2.35799
v -0.22278 0.7497 2.35794
v -0.25278 0.7497 2.35794
v -0.22278 0.2497 2.35777
v -0.25278 0.2497 2.35777
v -0.22278 -0.0003 2.35769
v -0.25278 -0.0003 2.35769
v -0.25278 -0.0003 2.35769
v -0.22278 -0.00035 2.48126
v -0.22278 -0.0003 2.35769
v -0.25278 -0.00035 2.48126
v -0.22278 -0.00055 3.07726
v -0.25278 -0.00055 3.07726
v -0.22278 -0.00059 3.19369
v -0.25278 -0.00059 3.19369
v -0.25278 -0.00059 3.19369
v -0.22278 0.24941 3.19377
v -0.22278 -0.00059 3.19369
v -0.25278 0.24941 3.19377
v -0.22278 0.74941 3.19394
v -0.25278 0.74941 3.19394
v -0.22278 0.86941 3.19399
v -0.25278 0.86941 3.19399
v -0.22278 1.87941 3.19433
v -0.25278 1.87941 3.19433
v -0.22278 2.00941 3.19438
v -0.25278 2.00941 3.19438
v -0.214 0.88626 2.49293
v -0.214 0.88606 3.05952
v -0.214 1.86198 3.0563
v -0.214 1.86218 2.48971
v -0.214 0.26215 2.49507
v -0.214 0.26195 3.06166
v -0.214 0.73695 3.06005
v -0.214 0.73715 2.49346
v -0.21278 0.74965 2.47871
v -0.21278 0.73715 2.49346
v -0.21278 0.73695 3.06005
v -0.21278 0.74945 3.07472
v -0.21278 0.24965 2.48041
v -0.21278 0.26195 3.06166
v -0.21278 0.26215 2.49507
v -0.21278 0.24945 3.07641
v -0.21278 0.86965 2.47831
v -0.21278 0.88626 2.49293
v -0.21278 1.86218 2.48971
v -0.21278 1.87966 2.47492
v -0.21278 0.86945 3.07431
v -0.21278 1.86198 3.0563
v -0.21278 0.88606 3.05952
v -0.21278 1.87945 3.07092
v -0.26278 0.74965 2.47871
v -0.26278 0.74945 3.07472
v -0.26278 0.73695 3.06005
v -0.26278 0.73715 2.49346
v -0.26278 0.26195 3.06166
v -0.26278 0.24965 2.48041
v -0.26278 0.24945 3.07641
v -0.26278 0.26215 2.49507
v -0.26278 0.86965 2.47831
v -0.26278 1.87966 2.47492
v -0.26278 1.86218 2.48971
v -0.26278 0.88626 2.49293
v -0.26278 1.86198 3.0563
v -0.26278 0.86945 3.07431
v -0.26278 1.87945 3.07092
v -0.26278 0.88606 3.05952
vn 0.5773503 0 -7.657073E-08
vn 0.5773503 0 0
vn 0.5773503 2.187835E-07 0
vn 0.5773503 0 0
vn 0.5773503 0 -7.726092E-08
vn 0.5773503 0 0
vn 0.5773503 0 0
vn 0.5773503 6.722622E-08 0
vn 0.5773503 0 0
vn 0.5773503 0 0
vn 0.5773503 0 0
vn 0.5773503 0 0
vn 0.5773503 0 0
vn 0.5773503 0 0
vn 0.5773503 0 0
vn 0.5773503 0 0
vn 0.5773503 0 0
vn 0.5773503 0 -5.81261E-08
vn 0.5773503 0 0
vn 0.5773503 0 -7.722566E-08
vn 0.5773503 0 0
vn 0.5773503 0 0
vn 0.5773503 0 -7.660887E-08
vn 0.5773503 0 0
vn 0 -0.001936546 -0.577347
vn 0 -0.001936546 -0.577347
vn 0 -0.00193654 -0.577347
vn 0 -0.001936541 -0.577347
vn 0 0.5773503 0.0001995435
vn 0 0.5773503 0.0001995466
vn 0 0.5773503 0.0001992566
vn 0 0.5773503 0.0001992534
vn -1.407195E-07 0.001936372 0.577347
vn 0 0.001936373 0.577347
vn -2.218888E-05 0.001936194 0.577347
vn -2.23296E-05 0.001936193 0.577347
vn 0 -0.5773503 -0.0001994025
vn 0 -0.5773503 -0.0001994009
vn 0 -0.5773503 -0.0001995459
vn 0 -0.5773503 -0.0001995475
vn 0 -0.5773503 -0.0001996595
vn 0 -0.5773503 -0.0001996599
vn 0 -0.5773503 -0.0001996218
vn 0 -0.5773503 -0.0001996214
vn 0 0.5773503 0.0001996961
vn 0 0.5773503 0.0001996945
vn 0 0.5773503 0.0001998432
vn 0 0.5773503 0.0001998447
vn 0 0.001957499 0.577347
vn 0 0.001957499 0.577347
vn 0 0.001957493 0.577347
vn 0 0.001957493 0.577347
vn 0 -0.001958905 -0.577347
vn 0 -0.001958905 -0.577347
vn 0 -0.0019589 -0.577347
vn 0 -0.0019589 -0.577347
vn 0 0.5773503 0.0001995649
vn 0 0.5773503 0.000199565
vn 0 0.5773503 0.0001995765
vn 0 0.5773503 0.0001995765
vn 0 -0.001900735 -0.5773472
vn 0 -0.001900735 -0.5773472
vn 0 -0.001900689 -0.5773472
vn 0 -0.001900689 -0.5773472
vn 0 0.001957982 0.577347
vn 0 0.001957982 0.577347
vn 0 0.001957936 0.577347
vn 0 0.001957935 0.577347
vn 0 0.001900726 0.5773472
vn 0 0.001900726 0.5773472
vn 0 0.001900725 0.5773472
vn 0 0.001900725 0.5773472
vn 0 -0.001957802 -0.577347
vn 0 -0.001957802 -0.577347
vn 0 -0.001957708 -0.577347
vn 0 -0.001957708 -0.577347
vn 0 -0.5773503 -0.0001995373
vn 0 -0.5773503 -0.0001995368
vn 0 -0.5773503 -0.0001998823
vn 0 -0.5773503 -0.0001998828
vn 0 -0.5773503 -0.0001992261
vn 0 -0.5773503 -0.0001992261
vn 0 -0.5773503 -0.0001992401
vn 0 -0.5773503 -0.0001992402
vn 0 0.5773503 0.000199717
vn 0 0.5773503 0.0001997168
vn 0 0.5773503 0.0001998614
vn 0 0.5773503 0.0001998616
vn -0.5773503 0 9.238254E-08
vn -0.5773503 0 9.238257E-08
vn -0.5773503 0 9.238251E-08
vn -0.5773503 0 9.238246E-08
vn -0.5773503 0 9.238258E-08
vn -0.5773503 0 9.238245E-08
vn -0.5773503 0 9.238256E-08
vn -0.5773503 0 9.238271E-08
vn -0.5773503 0 7.620734E-08
vn -0.5773503 0 4.444054E-07
vn -0.5773503 0 4.460626E-07
vn -0.5773503 0 2.689484E-07
vn -0.5773503 0 0
vn -0.5773503 0 0
vn -0.5773503 0 0
vn -0.5773503 0 0
vn -0.5773503 0 0
vn -0.5773503 0 0
vn -0.5773503 -7.514156E-08 0
vn -0.5773503 0 0
vn -0.5773503 0 0
vn -0.5773503 0 0
vn -0.5773503 0 0
vn -0.5773503 -1.084653E-07 0
vn -0.5773503 0 0
vn -0.5773503 0 5.81261E-08
vn -0.5773503 0 0
vn -0.5773503 0 7.722566E-08
vn -0.5773503 0 0
vn -0.5773503 0 0
vn -0.5773503 0 7.660887E-08
vn -0.5773503 0 0
vn -0.5773503 0 6.1005E-08
vn -0.5773503 0 9.238251E-08
vn -0.5773503 0 0
vn -0.5773503 0 0
vn 0 -0.00193654 -0.577347
vn 0 -0.00193654 -0.577347
vn 0 -0.00193654 -0.577347
vn 0 -0.00193654 -0.577347
vn 0 0.5773503 0.0001995394
vn 0 0.5773503 0.0001992494
vn 0 0.5773503 0.0001992525
vn 0 0.5773503 0.0001995426
vn 0 0.00193638 0.577347
vn 0 0.001936361 0.577347
vn 0 0.001936361 0.577347
vn 0 0.00193638 0.577347
vn 0 -0.5773503 -0.0001993959
vn 0 -0.5773503 -0.0001994981
vn 0 -0.5773503 -0.000199497
vn 0 -0.5773503 -0.0001993948
vn 0 -0.5773503 -0.0001996176
vn 0 -0.5773503 -0.0001996459
vn 0 -0.5773503 -0.0001996455
vn 0 -0.5773503 -0.0001996173
vn 0 0.5773503 0.0001996923
vn 0 0.5773503 0.0001997937
vn 0 0.5773503 0.0001997926
vn 0 0.5773503 0.0001996912
vn 0 0.001957498 0.577347
vn 0 0.001957498 0.577347
vn 0 0.001957498 0.577347
vn 0 0.001957498 0.577347
vn -2.871301E-07 -0.001957503 -0.577347
vn -2.255229E-05 -0.001957667 -0.577347
vn -2.226516E-05 -0.001957664 -0.577347
vn 0 -0.001957501 -0.577347
vn 1.002605E-07 0.5773503 0.0001993712
vn 7.212049E-05 0.5773503 0.0001995805
vn 7.202276E-05 0.5773503 0.0001995802
vn 0 0.5773503 0.0001993709
vn 0 -0.001900716 -0.5773472
vn 0 -0.001900716 -0.5773472
vn 0 -0.001900716 -0.5773472
vn 0 -0.001900716 -0.5773472
vn 0 0.00195734 0.577347
vn 0 0.001958003 0.577347
vn 0 0.001958001 0.577347
vn 0 0.001957339 0.577347
vn 1.553408E-07 0.001900745 0.5773472
vn 0.0001888847 0.001900745 0.5773471
vn 0.0001887409 0.001900745 0.5773471
vn 0 0.001900745 0.5773472
vn 0 -0.001957781 -0.577347
vn 0 -0.001957781 -0.577347
vn 0 -0.001957781 -0.577347
vn 0 -0.001957781 -0.577347
vn 7.1946E-05 -0.5773503 -0.0002001645
vn 0 -0.5773503 -0.0001995841
vn 9.761825E-08 -0.5773503 -0.0001995849
vn 7.204361E-05 -0.5773503 -0.0002001652
vn 0 -0.5773503 -0.0001993636
vn 0 -0.5773503 -0.0001991108
vn 0 -0.5773503 -0.0001991112
vn 0 -0.5773503 -0.0001993639
vn 0 0.5773503 0.0001996819
vn 0 0.5773503 0.0001998598
vn 0 0.5773503 0.0001998596
vn 0 0.5773503 0.0001996816
vn 0.5773503 0 -9.238266E-08
vn 0.5773503 0 -9.238263E-08
vn 0.5773503 0 -9.238266E-08
vn 0.5773503 0 -9.238266E-08
vn 0 0.5773503 0.0001954747
vn 0 0.5773503 0.0001993571
vn 0 0.5773503 0.0001953019
vn 0 0.5773503 0.0001993827
vn 0 0.5773503 0.0001995949
vn 0 0.5773503 0.0001995907
vn 0 0.5773503 0.0001983014
vn 0 0.5773503 0.0001983013
vn 0 0.0002019452 -0.5773503
vn 0 0.0001997631 -0.5773503
vn 0 0.0002019453 -0.5773503
vn 0 0.0001997631 -0.5773503
vn 0 0.0001996598 -0.5773503
vn 0 0.0001996598 -0.5773503
vn 0 0.0001996384 -0.5773503
vn 0 0.0001996384 -0.5773503
vn 0 0.0001988635 -0.5773503
vn 0 0.0001988635 -0.5773503
vn 0 0.0001980412 -0.5773503
vn 0 0.0001980412 -0.5773503
vn 0 -0.5773503 -0.0001996068
vn 0 -0.5773503 -0.0001995072
vn 0 -0.5773503 -0.0001996068
vn 0 -0.5773503 -0.0001995072
vn 0 -0.5773503 -0.0001973434
vn 0 -0.5773503 -0.0001973434
vn 0 -0.5773503 -0.0001863739
vn 0 -0.5773503 -0.0001863741
vn 0 -0.0001987475 0.5773503
vn 0 -0.0001992166 0.5773503
vn 0 -0.0001987475 0.5773503
vn 0 -0.0001992166 0.5773503
vn 0 -0.0001994965 0.5773503
vn 0 -0.0001994965 0.5773503
vn 0 -0.0001995819 0.5773503
vn 0 -0.0001995818 0.5773503
vn 0 -0.0001996858 0.5773503
vn 0 -0.0001996858 0.5773503
vn 0 -0.0002005887 0.5773503
vn 0 -0.0002005887 0.5773503
vn 0.5773503 0 -9.717857E-08
vn 0.5773503 0 -9.71786E-08
vn 0.5773503 0 -9.717856E-08
vn 0.5773503 0 -9.717853E-08
vn 0.5773503 0 -9.717869E-08
vn 0.5773503 0 -9.717878E-08
vn 0.5773503 0 -9.717872E-08
vn 0.5773503 0 -9.717863E-08
vn 0.5773503 -3.139945E-07 0
vn 0.5773503 -3.802674E-07 0
vn 0.5773503 0 0
vn 0.5773503 0 0
vn 0.5773503 -8.770897E-07 0
vn 0.5773503 9.600317E-08 0
vn 0.5773503 -9.993498E-07 0
vn 0.5773503 0 0
vn 0.5773503 -6.284848E-07 0
vn 0.5773503 -5.427663E-07 0
vn 0.5773503 -2.387426E-07 0
vn 0.5773503 -2.701821E-07 0
vn 0.5773503 4.190286E-07 0
vn 0.5773503 0 0
vn 0.5773503 4.042782E-07 0
vn 0.5773503 0 0
vn -0.5773503 0 0
vn -0.5773503 0 0
vn -0.5773503 0 0
vn -0.5773503 0 0
vn -0.5773503 0 0
vn -0.5773503 -8.781182E-07 0
vn -0.5773503 0 0
vn -0.5773503 -1.000324E-06 0
vn -0.5773503 0 0
vn -0.5773503 5.989628E-07 0
vn -0.5773503 5.445048E-07 0
vn -0.5773503 0 0
vn -0.5773503 -5.311684E-07 0
vn -0.5773503 0 0
vn -0.5773503 -6.436341E-07 0
vn -0.5773503 0 0
vt -0.1762261 1.286385
vt -0.3000773 1.156343
vt -0.3001224 1.286343
vt -0.1766675 1.156386
vt 0.4197787 1.286592
vt -0.2997282 0.1463431
vt 0.4193384 1.156591
vt 0.5358777 1.286632
vt 0.5359231 1.156632
vt -0.1800549 0.1463843
vt 0.4159505 0.1465903
vt -0.2996868 0.02634299
vt 0.5362722 0.1466319
vt -0.1804616 0.02638394
vt -0.2995141 -0.4736565
vt 0.4155444 0.02659014
vt 0.5363139 0.02663189
vt -0.1821567 -0.4736166
vt -0.2994279 -0.7236547
vt -0.1830055 -0.7236171
vt 0.413848 -0.4734105
vt 0.5364866 -0.4733682
vt 0.4130009 -0.7234111
vt 0.5365723 -0.7233685
vt 0.5815771 0.9321268
vt 0.5915771 0.9321268
vt 0.5915771 -0.07788563
vt 0.5815771 -0.07788563
vt 0.300946 1.115654
vt 0.3109458 1.115654
vt 0.3109458 0.5196483
vt 0.300946 0.5196483
vt 0.5988217 0.932139
vt 0.6088217 0.932139
vt 0.6088217 -0.07789773
vt 0.5988217 -0.07789773
vt 0.3195027 1.11565
vt 0.3295024 1.115651
vt 0.3295024 0.5196511
vt 0.3195026 0.5196511
vt 0.3473376 1.115652
vt 0.3573374 1.115652
vt 0.3573374 0.519649
vt 0.3473376 0.519649
vt 0.2916676 1.115654
vt 0.3016675 1.115654
vt 0.3016675 0.5196482
vt 0.2916677 0.5196482
vt 0.583007 0.890854
vt 0.5930065 0.890854
vt 0.5930065 0.3908685
vt 0.583007 0.3908685
vt 0.5644504 1.159521
vt 0.57445 1.159521
vt 0.57445 0.6595333
vt 0.5644504 0.6595333
vt 0.561419 0.6354702
vt 0.5601956 0.6354702
vt 0.5601956 1.202101
vt 0.561419 1.202101
vt 0.4006976 0.2124843
vt 0.3994743 0.2124843
vt 0.3994743 1.188457
vt 0.4006976 1.188457
vt 0.6282229 0.3998909
vt 0.6269994 0.3998909
vt 0.6269994 0.8749946
vt 0.6282229 0.8749946
vt 0.3945159 0.2125047
vt 0.3932925 0.2125047
vt 0.3932925 1.188436
vt 0.3945159 1.188436
vt 0.6059549 0.3998427
vt 0.6047313 0.3998427
vt 0.6047313 0.8749284
vt 0.6059549 0.8749284
vt 0.5317283 0.6354699
vt 0.5305049 0.6354699
vt 0.5305049 1.202101
vt 0.5317283 1.202101
vt 0.5465738 0.6354703
vt 0.5453504 0.6354703
vt 0.5453504 1.202101
vt 0.5465738 1.202101
vt 0.5094604 0.6354695
vt 0.5082371 0.6354695
vt 0.5082371 1.202101
vt 0.5094604 1.202101
vt 1.066143 -0.3626589
vt 0.4701379 -0.362453
vt 0.4667501 0.6475475
vt 1.062756 0.6473417
vt 0.3889689 0.9467363
vt 0.3887628 0.3507302
vt -0.1112374 0.3490351
vt -0.1110314 0.9450396
vt 0.6522424 1.286386
vt 0.7761387 1.286343
vt 0.7760936 1.156343
vt 0.6526839 1.156386
vt 0.05623752 1.286592
vt 0.7757445 0.146343
vt 0.05667782 1.156591
vt -0.05986153 1.286632
vt -0.05990693 1.156632
vt 0.6560714 0.1463843
vt 0.06006569 0.1465902
vt 0.7757031 0.02634296
vt -0.060256 0.1466319
vt 0.6564779 0.02638391
vt 0.7755305 -0.4736566
vt 0.06047285 0.02659011
vt -0.0602977 0.02663183
vt 0.658173 -0.4736167
vt 0.7754442 -0.7236548
vt 0.6590217 -0.7236173
vt 0.06216827 -0.4734107
vt -0.06047042 -0.4733683
vt 0.06301528 -0.7234113
vt -0.06055613 -0.7233686
vt 1.166599 -0.07795399
vt 0.5705933 -0.07774806
vt 0.5672054 0.9322525
vt 1.163211 0.9320468
vt 0.5829549 0.9321118
vt 0.5829549 -0.07787067
vt 0.5729548 -0.07787067
vt 0.5729548 0.9321118
vt 0.3202244 1.115661
vt 0.3202244 0.5196404
vt 0.3102241 0.5196404
vt 0.310224 1.115661
vt 0.6001995 0.9321258
vt 0.6001995 -0.07788444
vt 0.5901994 -0.07788444
vt 0.5901994 0.9321258
vt 0.3387809 1.11565
vt 0.3387808 0.5196519
vt 0.3287808 0.5196519
vt 0.3287809 1.11565
vt 0.366616 1.181919
vt 0.366616 0.5859084
vt 0.3566156 0.5859084
vt 0.3566157 1.181919
vt 0.3480592 1.115652
vt 0.3480593 0.5196501
vt 0.3380592 0.5196501
vt 0.338059 1.115652
vt 0.6022851 0.8908576
vt 0.6022851 0.390865
vt 0.5922853 0.390865
vt 0.5922853 0.8908576
vt 0.5837287 0.8908671
vt 0.5837287 0.3908556
vt 0.5737282 0.3908556
vt 0.5737282 0.8908671
vt 0.5379279 0.6355315
vt 0.5379277 1.202039
vt 0.539151 1.202039
vt 0.539151 0.6355315
vt 0.3871107 0.2125644
vt 0.3871107 1.188376
vt 0.3883341 1.188376
vt 0.3883341 0.2125644
vt 0.6195767 0.3999229
vt 0.6195767 0.8749627
vt 0.6208004 0.8749627
vt 0.6208004 0.3999227
vt 0.4056561 0.2125288
vt 0.4056561 1.188412
vt 0.4068795 1.188412
vt 0.4068795 0.2125288
vt 0.6121542 0.3999602
vt 0.6121542 0.8749255
vt 0.6133777 0.8749255
vt 0.6133777 0.3999602
vt 0.5230821 0.6354946
vt 0.5230823 1.202077
vt 0.5243058 1.202077
vt 0.5243056 0.6354944
vt 0.5527729 0.6354922
vt 0.5527731 1.202079
vt 0.5539964 1.202079
vt 0.5539964 0.6354922
vt 0.5156599 0.6355308
vt 0.5156597 1.20204
vt 0.516883 1.20204
vt 0.5168833 0.6355308
vt 0.3215453 0.5190365
vt -0.1784551 0.5207318
vt -0.1786613 1.116736
vt 0.321339 1.115041
vt 0.3483559 0.2630166
vt 0.378356 0.386913
vt 0.378356 0.2630166
vt 0.3483559 0.386913
vt 0.378356 0.9829187
vt 0.3483559 0.9829187
vt 0.378356 1.099018
vt 0.3483559 1.099018
vt 0.4700146 -0.7235494
vt 0.5000146 -0.5935496
vt 0.5000146 -0.7235494
vt 0.4700146 -0.5935496
vt 0.5000146 0.4164482
vt 0.4700146 0.4164482
vt 0.5000146 0.536448
vt 0.4700146 0.536448
vt 0.5000146 1.036447
vt 0.4700146 1.036447
vt 0.5000146 1.286447
vt 0.4700146 1.286447
vt 0.3625395 0.2630146
vt 0.3925397 0.3865868
vt 0.3925397 0.2630146
vt 0.3625395 0.3865868
vt 0.3925399 0.9825968
vt 0.3625395 0.9825968
vt 0.3925399 1.09902
vt 0.3625395 1.09902
vt 0.4848599 -0.7235482
vt 0.51486 -0.4735506
vt 0.51486 -0.7235482
vt 0.4848599 -0.4735506
vt 0.51486 0.02644765
vt 0.4848599 0.02644765
vt 0.51486 0.1464474
vt 0.4848599 0.1464474
vt 0.51486 1.156445
vt 0.4848599 1.156445
vt 0.51486 1.286445
vt 0.4848599 1.286445
vt 0.7731903 0.212636
vt 0.2065993 0.21244
vt 0.2098125 1.188359
vt 0.776403 1.188556
vt 0.1981694 0.6365197
vt 0.1979737 1.20311
vt 0.6729745 1.201499
vt 0.67317 0.634909
vt 0.5339002 0.3490364
vt 0.5213951 0.3637873
vt 0.5211995 0.9303744
vt 0.5336939 0.9450399
vt 0.03390206 0.3507328
vt 0.04620095 0.9319855
vt 0.04639666 0.3653982
vt 0.03369591 0.9467349
vt 0.8901789 -0.3624535
vt 0.8755593 -0.3458518
vt 0.8787723 0.6300681
vt 0.8935668 0.6475479
vt 0.2941731 -0.3626593
vt 0.3121814 0.6298721
vt 0.3089682 -0.3460478
vt 0.2975607 0.6473421
vt 0.4683275 1.116735
vt 0.4681214 0.5207326
vt 0.4556271 0.5353978
vt 0.4558225 1.101986
vt -0.01937233 0.533787
vt -0.03167143 1.11504
vt -0.03187737 0.5190375
vt -0.01917651 1.100375
vt 0.398081 -0.07774705
vt 0.3946932 0.9322515
vt 0.4094876 0.9147716
vt 0.4127006 -0.06114545
vt 0.9760772 0.9145757
vt 0.9940855 -0.07795292
vt 0.9906979 0.9320458
vt 0.9792904 -0.06134138
usemtl Cream_wood
f 275/275/275 274/274/274 273/273/273
f 274/274/274 276/276/276 273/273/273
f 273/273/273 276/276/276 277/277/277
f 274/274/274 278/278/278 276/276/276
f 276/276/276 279/279/279 277/277/277
f 277/277/277 279/279/279 280/280/280
f 279/279/279 281/281/281 280/280/280
f 278/278/278 282/282/282 276/276/276
f 279/279/279 283/283/283 281/281/281
f 278/278/278 284/284/284 282/282/282
f 283/283/283 285/285/285 281/281/281
f 284/284/284 286/286/286 282/282/282
f 282/282/282 286/286/286 283/283/283
f 284/284/284 287/287/287 286/286/286
f 283/283/283 288/288/288 285/285/285
f 286/286/286 288/288/288 283/283/283
f 288/288/288 289/289/289 285/285/285
f 287/287/287 290/290/290 286/286/286
f 287/287/287 291/291/291 290/290/290
f 291/291/291 292/292/292 290/290/290
f 288/288/288 293/293/293 289/289/289
f 290/290/290 292/292/292 293/293/293
f 293/293/293 294/294/294 289/289/289
f 292/292/292 295/295/295 293/293/293
f 293/293/293 295/295/295 294/294/294
f 295/295/295 296/296/296 294/294/294
f 299/299/299 298/298/298 297/297/297
f 300/300/300 299/299/299 297/297/297
f 303/303/303 302/302/302 301/301/301
f 304/304/304 303/303/303 301/301/301
f 307/307/307 306/306/306 305/305/305
f 308/308/308 307/307/307 305/305/305
f 311/311/311 310/310/310 309/309/309
f 312/312/312 311/311/311 309/309/309
f 315/315/315 314/314/314 313/313/313
f 316/316/316 315/315/315 313/313/313
f 319/319/319 318/318/318 317/317/317
f 320/320/320 319/319/319 317/317/317
f 323/323/323 322/322/322 321/321/321
f 324/324/324 323/323/323 321/321/321
f 327/327/327 326/326/326 325/325/325
f 328/328/328 327/327/327 325/325/325
f 331/331/331 330/330/330 329/329/329
f 332/332/332 331/331/331 329/329/329
f 335/335/335 334/334/334 333/333/333
f 336/336/336 335/335/335 333/333/333
f 339/339/339 338/338/338 337/337/337
f 340/340/340 339/339/339 337/337/337
f 343/343/343 342/342/342 341/341/341
f 344/344/344 343/343/343 341/341/341
f 347/347/347 346/346/346 345/345/345
f 348/348/348 347/347/347 345/345/345
f 351/351/351 350/350/350 349/349/349
f 352/352/352 351/351/351 349/349/349
f 355/355/355 354/354/354 353/353/353
f 356/356/356 355/355/355 353/353/353
f 359/359/359 358/358/358 357/357/357
f 360/360/360 359/359/359 357/357/357
f 363/363/363 362/362/362 361/361/361
f 364/364/364 363/363/363 361/361/361
f 367/367/367 366/366/366 365/365/365
f 368/368/368 367/367/367 365/365/365
f 371/371/371 370/370/370 369/369/369
f 372/372/372 371/371/371 369/369/369
f 372/372/372 369/369/369 373/373/373
f 374/374/374 371/371/371 372/372/372
f 375/375/375 372/372/372 373/373/373
f 375/375/375 373/373/373 376/376/376
f 377/377/377 375/375/375 376/376/376
f 378/378/378 374/374/374 372/372/372
f 379/379/379 375/375/375 377/377/377
f 380/380/380 374/374/374 378/378/378
f 381/381/381 379/379/379 377/377/377
f 382/382/382 380/380/380 378/378/378
f 382/382/382 378/378/378 379/379/379
f 383/383/383 380/380/380 382/382/382
f 384/384/384 379/379/379 381/381/381
f 384/384/384 382/382/382 379/379/379
f 385/385/385 384/384/384 381/381/381
f 386/386/386 383/383/383 382/382/382
f 387/387/387 383/383/383 386/386/386
f 388/388/388 387/387/387 386/386/386
f 389/389/389 384/384/384 385/385/385
f 388/388/388 386/386/386 389/389/389
f 390/390/390 389/389/389 385/385/385
f 391/391/391 388/388/388 389/389/389
f 391/391/391 389/389/389 390/390/390
f 392/392/392 391/391/391 390/390/390
f 395/395/395 394/394/394 393/393/393
f 396/396/396 395/395/395 393/393/393
f 399/399/399 398/398/398 397/397/397
f 400/400/400 399/399/399 397/397/397
f 403/403/403 402/402/402 401/401/401
f 404/404/404 403/403/403 401/401/401
f 407/407/407 406/406/406 405/405/405
f 408/408/408 407/407/407 405/405/405
f 411/411/411 410/410/410 409/409/409
f 412/412/412 411/411/411 409/409/409
f 415/415/415 414/414/414 413/413/413
f 416/416/416 415/415/415 413/413/413
f 419/419/419 418/418/418 417/417/417
f 420/420/420 419/419/419 417/417/417
f 423/423/423 422/422/422 421/421/421
f 424/424/424 423/423/423 421/421/421
f 427/427/427 426/426/426 425/425/425
f 428/428/428 427/427/427 425/425/425
f 431/431/431 430/430/430 429/429/429
f 432/432/432 431/431/431 429/429/429
f 435/435/435 434/434/434 433/433/433
f 436/436/436 435/435/435 433/433/433
f 439/439/439 438/438/438 437/437/437
f 440/440/440 439/439/439 437/437/437
f 443/443/443 442/442/442 441/441/441
f 444/444/444 443/443/443 441/441/441
f 447/447/447 446/446/446 445/445/445
f 448/448/448 447/447/447 445/445/445
f 451/451/451 450/450/450 449/449/449
f 452/452/452 451/451/451 449/449/449
f 455/455/455 454/454/454 453/453/453
f 456/456/456 455/455/455 453/453/453
f 459/459/459 458/458/458 457/457/457
f 460/460/460 459/459/459 457/457/457
f 463/463/463 462/462/462 461/461/461
f 464/464/464 463/463/463 461/461/461
f 467/467/467 466/466/466 465/465/465
f 466/466/466 468/468/468 465/465/465
f 468/468/468 466/466/466 469/469/469
f 470/470/470 468/468/468 469/469/469
f 470/470/470 469/469/469 471/471/471
f 472/472/472 470/470/470 471/471/471
f 475/475/475 474/474/474 473/473/473
f 474/474/474 476/476/476 473/473/473
f 474/474/474 477/477/477 476/476/476
f 477/477/477 478/478/478 476/476/476
f 477/477/477 479/479/479 478/478/478
f 479/479/479 480/480/480 478/478/478
f 480/480/480 479/479/479 481/481/481
f 482/482/482 480/480/480 481/481/481
f 482/482/482 481/481/481 483/483/483
f 484/484/484 482/482/482 483/483/483
f 487/487/487 486/486/486 485/485/485
f 486/486/486 488/488/488 485/485/485
f 486/486/486 489/489/489 488/488/488
f 489/489/489 490/490/490 488/488/488
f 490/490/490 489/489/489 491/491/491
f 492/492/492 490/490/490 491/491/491
f 495/495/495 494/494/494 493/493/493
f 494/494/494 496/496/496 493/493/493
f 494/494/494 497/497/497 496/496/496
f 497/497/497 498/498/498 496/496/496
f 498/498/498 497/497/497 499/499/499
f 500/500/500 498/498/498 499/499/499
f 500/500/500 499/499/499 501/501/501
f 502/502/502 500/500/500 501/501/501
f 502/502/502 501/501/501 503/503/503
f 504/504/504 502/502/502 503/503/503
f 507/507/507 506/506/506 505/505/505
f 508/508/508 507/507/507 505/505/505
f 511/511/511 510/510/510 509/509/509
f 512/512/512 511/511/511 509/509/509
f 515/515/515 514/514/514 513/513/513
f 516/516/516 515/515/515 513/513/513
f 513/513/513 514/514/514 517/517/517
f 518/518/518 515/515/515 516/516/516
f 514/514/514 519/519/519 517/517/517
f 520/520/520 518/518/518 516/516/516
f 517/517/517 519/519/519 520/520/520
f 519/519/519 518/518/518 520/520/520
f 523/523/523 522/522/522 521/521/521
f 524/524/524 523/523/523 521/521/521
f 521/521/521 522/522/522 525/525/525
f 526/526/526 523/523/523 524/524/524
f 522/522/522 527/527/527 525/525/525
f 528/528/528 526/526/526 524/524/524
f 525/525/525 527/527/527 528/528/528
f 527/527/527 526/526/526 528/528/528
f 531/531/531 530/530/530 529/529/529
f 532/532/532 531/531/531 529/529/529
f 531/531/531 533/533/533 530/530/530
f 532/532/532 529/529/529 534/534/534
f 533/533/533 535/535/535 530/530/530
f 536/536/536 532/532/532 534/534/534
f 533/533/533 536/536/536 535/535/535
f 536/536/536 534/534/534 535/535/535
f 539/539/539 538/538/538 537/537/537
f 540/540/540 539/539/539 537/537/537
f 539/539/539 541/541/541 538/538/538
f 540/540/540 537/537/537 542/542/542
f 541/541/541 543/543/543 538/538/538
f 544/544/544 540/540/540 542/542/542
f 544/544/544 542/542/542 543/543/543
f 541/541/541 544/544/544 543/543/543
