mtllib Sink_b836864b.mtl
g SinkMesh_07958625
v 2.08032 0.80398 3.57087
v 2.04178 0.79021 3.54168
v 2.06229 0.80399 3.52403
v 1.50353 0.80398 3.57087
v 1.49322 0.83107 3.56467
v 1.51189 0.83109 3.5155
v 1.50353 0.80398 3.57087
v 1.51189 0.83109 3.5155
v 1.52155 0.80399 3.52403
v 1.49322 0.83105 3.63023
v 1.49322 0.83107 3.56467
v 1.50353 0.80396 3.63332
v 1.50353 0.80393 3.69578
v 1.49322 0.83102 3.69579
v 1.49322 0.831 3.76135
v 1.50353 0.80391 3.75823
v 1.50353 0.80389 3.82069
v 1.49322 0.83098 3.82691
v 1.51189 0.83096 3.87607
v 1.52155 0.80387 3.86753
v 1.71982 0.804 3.50841
v 1.79192 0.83109 3.49911
v 1.79192 0.804 3.50841
v 2.00822 0.804 3.50841
v 2.06229 0.80399 3.52403
v 2.04178 0.79021 3.54168
v 2.00822 0.80387 3.88314
v 1.94128 0.83096 3.89246
v 1.93612 0.80387 3.88314
v 2.01596 0.83096 3.89246
v 2.07196 0.83096 3.87607
v 2.06229 0.80387 3.86753
v 2.00822 0.80387 3.88314
v 2.04178 0.7901 3.84986
v 2.06229 0.80387 3.86753
v 2.00049 0.78527 3.85925
v 1.93097 0.78527 3.85925
v 1.93612 0.80387 3.88314
v 2.08032 0.80389 3.82069
v 2.06229 0.80387 3.86753
v 2.04178 0.7901 3.84986
v 2.05284 0.78529 3.81448
v 2.05284 0.78531 3.75512
v 2.08032 0.80391 3.75823
v 2.08032 0.80393 3.69578
v 2.05284 0.78533 3.69577
v 1.48978 0.86273 3.56261
v 1.49378 0.89665 3.6301
v 1.49378 0.89667 3.56439
v 1.48978 0.86271 3.62921
v 1.48978 0.86268 3.6958
v 1.49378 0.89663 3.69581
v 1.49378 0.8966 3.76152
v 1.49322 0.83105 3.63023
v 1.49322 0.83107 3.56467
v 1.49322 0.83102 3.69579
v 1.49322 0.831 3.76135
v 1.48978 0.86266 3.76239
v 1.48978 0.86264 3.82898
v 1.49378 0.89658 3.82723
v 1.49322 0.83098 3.82691
v 1.51241 0.89656 3.87652
v 1.51189 0.83096 3.87607
v 1.50866 0.86262 3.87893
v 1.48978 0.86273 3.56261
v 1.49378 0.89667 3.56439
v 1.51241 0.89669 3.5151
v 1.50866 0.86275 3.51267
v 1.51189 0.83109 3.5155
v 1.49322 0.83107 3.56467
v 2.08032 0.80398 3.57087
v 2.06229 0.80399 3.52403
v 2.07196 0.83109 3.5155
v 2.09063 0.83107 3.56467
v 2.09063 0.83105 3.63023
v 2.08032 0.80396 3.63332
v 2.08032 0.80393 3.69578
v 2.09063 0.83102 3.69579
v 2.09063 0.831 3.76135
v 2.08032 0.80391 3.75823
v 2.08032 0.80389 3.82069
v 2.09063 0.83098 3.82691
v 2.07196 0.83096 3.87607
v 2.06229 0.80387 3.86753
v 1.50353 0.80389 3.82069
v 1.54207 0.7901 3.84986
v 1.52155 0.80387 3.86753
v 1.53101 0.78529 3.81448
v 1.53101 0.78531 3.75512
v 1.50353 0.80391 3.75823
v 1.50353 0.80393 3.69578
v 1.53101 0.78533 3.69577
v 1.53101 0.78535 3.63642
v 1.50353 0.80396 3.63332
v 1.50353 0.80398 3.57087
v 1.53101 0.78537 3.57707
v 1.54207 0.79021 3.54168
v 1.52155 0.80399 3.52403
v 1.57563 0.80387 3.88314
v 1.52155 0.80387 3.86753
v 1.54207 0.7901 3.84986
v 1.58336 0.78527 3.85925
v 1.65288 0.78527 3.85925
v 1.64773 0.80387 3.88314
v 1.71982 0.80387 3.88314
v 1.7224 0.78527 3.85925
v 1.79192 0.78527 3.85925
v 1.79192 0.80387 3.88314
v 1.86402 0.80387 3.88314
v 1.86144 0.78527 3.85925
v 1.93097 0.78527 3.85925
v 1.93612 0.80387 3.88314
v 1.57563 0.804 3.50841
v 1.52155 0.80399 3.52403
v 1.51189 0.83109 3.5155
v 1.56789 0.83109 3.49911
v 1.64257 0.83109 3.49911
v 1.64773 0.804 3.50841
v 1.71982 0.804 3.50841
v 1.71725 0.83109 3.49911
v 1.79192 0.83109 3.49911
v 1.86402 0.804 3.50841
v 1.79192 0.804 3.50841
v 1.8666 0.83109 3.49911
v 1.94128 0.83109 3.49911
v 1.93612 0.804 3.50841
v 1.57563 0.804 3.50841
v 1.58336 0.78539 3.5323
v 1.54207 0.79021 3.54168
v 1.52155 0.80399 3.52403
v 1.57563 0.804 3.50841
v 1.65288 0.78539 3.5323
v 1.58336 0.78539 3.5323
v 1.64773 0.804 3.50841
v 1.71982 0.804 3.50841
v 1.7224 0.78539 3.5323
v 1.79192 0.78539 3.5323
v 1.79192 0.804 3.50841
v 1.86402 0.804 3.50841
v 1.86144 0.78539 3.5323
v 1.93097 0.78539 3.5323
v 1.93612 0.804 3.50841
v 2.00822 0.804 3.50841
v 2.07196 0.83109 3.5155
v 2.06229 0.80399 3.52403
v 2.01596 0.83109 3.49911
v 1.94128 0.83109 3.49911
v 1.93612 0.804 3.50841
v 2.00822 0.804 3.50841
v 1.93097 0.78539 3.5323
v 1.93612 0.804 3.50841
v 2.00049 0.78539 3.5323
v 2.04178 0.79021 3.54168
v 1.57563 0.80387 3.88314
v 1.51189 0.83096 3.87607
v 1.52155 0.80387 3.86753
v 1.56789 0.83096 3.89246
v 1.64257 0.83096 3.89246
v 1.64773 0.80387 3.88314
v 1.71982 0.80387 3.88314
v 1.71725 0.83096 3.89246
v 1.79192 0.83096 3.89246
v 1.79192 0.80387 3.88314
v 1.86402 0.80387 3.88314
v 1.8666 0.83096 3.89246
v 1.94128 0.83096 3.89246
v 1.93612 0.80387 3.88314
v 2.09407 0.86273 3.56261
v 2.09007 0.89667 3.56439
v 2.09007 0.89665 3.6301
v 2.07144 0.89669 3.5151
v 2.07519 0.86275 3.51267
v 2.07196 0.83109 3.5155
v 2.09063 0.83107 3.56467
v 2.09063 0.83105 3.63023
v 2.09407 0.86271 3.62921
v 2.09407 0.86268 3.6958
v 2.09007 0.89663 3.69581
v 2.09063 0.83102 3.69579
v 2.09007 0.8966 3.76152
v 2.09063 0.831 3.76135
v 2.09407 0.86266 3.76239
v 2.09407 0.86264 3.82899
v 2.09007 0.89658 3.82723
v 2.09063 0.83098 3.82691
v 2.07144 0.89656 3.87652
v 2.07196 0.83096 3.87607
v 2.07519 0.86262 3.87893
v 1.56531 0.86275 3.49602
v 1.56831 0.8967 3.49868
v 1.64285 0.8967 3.49868
v 1.51241 0.89669 3.5151
v 1.50866 0.86275 3.51267
v 1.51189 0.83109 3.5155
v 1.56789 0.83109 3.49911
v 1.64257 0.83109 3.49911
v 1.64085 0.86275 3.49602
v 1.71639 0.86275 3.49602
v 1.71739 0.8967 3.49868
v 1.71725 0.83109 3.49911
v 1.79192 0.8967 3.49868
v 1.79192 0.83109 3.49911
v 1.79192 0.86275 3.49602
v 1.86746 0.86275 3.49602
v 1.86646 0.8967 3.49868
v 1.8666 0.83109 3.49911
v 1.941 0.8967 3.49868
v 1.94128 0.83109 3.49911
v 1.943 0.86275 3.49602
v 1.99791 0.77909 3.81241
v 1.93097 0.78527 3.85925
v 1.92925 0.77909 3.81241
v 2.00049 0.78527 3.85925
v 2.04178 0.7901 3.84986
v 2.05284 0.78529 3.81448
v 1.92925 0.77911 3.75409
v 2.05284 0.78531 3.75512
v 1.99791 0.77911 3.75409
v 1.99791 0.77913 3.69577
v 1.92925 0.77913 3.69577
v 2.05284 0.78533 3.69577
v 2.05284 0.78535 3.63642
v 2.08032 0.80393 3.69578
v 2.08032 0.80396 3.63332
v 1.92925 0.77915 3.63745
v 2.08032 0.80398 3.57087
v 1.99791 0.77915 3.63745
v 1.99791 0.77917 3.57913
v 1.92925 0.77917 3.57913
v 1.93097 0.78539 3.5323
v 2.00049 0.78539 3.5323
v 2.04178 0.79021 3.54168
v 2.05284 0.78537 3.57707
v 2.01853 0.86261 3.89558
v 2.01554 0.89656 3.89295
v 1.941 0.89656 3.89295
v 1.943 0.86261 3.89558
v 2.07144 0.89656 3.87652
v 1.94128 0.83096 3.89246
v 2.07519 0.86262 3.87893
v 2.01596 0.83096 3.89246
v 2.07196 0.83096 3.87607
v 1.58594 0.77909 3.81241
v 1.58336 0.78527 3.85925
v 1.54207 0.7901 3.84986
v 1.53101 0.78529 3.81448
v 1.65288 0.78527 3.85925
v 1.53101 0.78531 3.75512
v 1.6546 0.77909 3.81241
v 1.72326 0.77909 3.81241
v 1.6546 0.77911 3.75409
v 1.7224 0.78527 3.85925
v 1.79192 0.78527 3.85925
v 1.58594 0.77911 3.75409
v 1.58594 0.77913 3.69577
v 1.53101 0.78533 3.69577
v 1.53101 0.78535 3.63642
v 1.79192 0.77909 3.81241
v 1.86058 0.77909 3.81241
v 1.79192 0.77911 3.75409
v 1.86144 0.78527 3.85925
v 1.93097 0.78527 3.85925
v 1.92925 0.77909 3.81241
v 1.92925 0.77911 3.75409
v 1.86058 0.77911 3.75409
v 1.86058 0.77913 3.69577
v 1.92925 0.77913 3.69577
v 1.92925 0.77915 3.63745
v 1.72326 0.77911 3.75409
v 1.72326 0.77913 3.69577
v 1.79192 0.77913 3.69577
v 1.79192 0.77915 3.63745
v 1.86058 0.77915 3.63745
v 1.86058 0.77917 3.57913
v 1.92925 0.77917 3.57913
v 1.93097 0.78539 3.5323
v 1.86144 0.78539 3.5323
v 1.79192 0.78539 3.5323
v 1.79192 0.77917 3.57913
v 1.72326 0.77917 3.57913
v 1.7224 0.78539 3.5323
v 1.65288 0.78539 3.5323
v 1.72326 0.77915 3.63745
v 1.6546 0.77915 3.63745
v 1.6546 0.77917 3.57913
v 1.58594 0.77917 3.57913
v 1.58336 0.78539 3.5323
v 1.54207 0.79021 3.54168
v 1.53101 0.78537 3.57707
v 1.58594 0.77915 3.63745
v 1.6546 0.77913 3.69577
v 1.56531 0.86261 3.89558
v 1.56831 0.89656 3.89295
v 1.51241 0.89656 3.87652
v 1.50866 0.86262 3.87893
v 1.51189 0.83096 3.87607
v 1.56789 0.83096 3.89246
v 1.64285 0.89656 3.89295
v 1.64257 0.83096 3.89246
v 1.64085 0.86261 3.89558
v 1.71639 0.86261 3.89558
v 1.71739 0.89656 3.89295
v 1.71725 0.83096 3.89246
v 1.79192 0.89656 3.89295
v 1.79192 0.83096 3.89246
v 1.79192 0.86261 3.89558
v 1.86746 0.86261 3.89558
v 1.86646 0.89656 3.89295
v 1.8666 0.83096 3.89246
v 1.941 0.89656 3.89295
v 1.94128 0.83096 3.89246
v 1.943 0.86261 3.89558
v 2.01853 0.86275 3.49602
v 2.01554 0.8967 3.49868
v 2.07144 0.89669 3.5151
v 2.07519 0.86275 3.51267
v 1.941 0.8967 3.49868
v 2.07196 0.83109 3.5155
v 1.943 0.86275 3.49602
v 2.01596 0.83109 3.49911
v 1.94128 0.83109 3.49911
vn -0.4470246 0.3585825 0.07014878
vn -0.1357506 0.5363761 0.1649413
vn -0.2898933 0.3717939 0.3332634
vn 0.4470263 0.3585808 0.07014747
vn 0.5524589 0.1397286 0.09272752
vn 0.3685782 0.1521101 0.4175475
vn 0.4470263 0.3585808 0.07014747
vn 0.3685782 0.1521101 0.4175475
vn 0.2898944 0.371793 0.3332632
vn 0.562542 0.1299221 4.491228E-05
vn 0.5524589 0.1397286 0.09272752
vn 0.4449016 0.3679618 0.0001276703
vn 0.4489292 0.363037 0.0001259262
vn 0.5621563 0.1315814 4.557253E-05
vn 0.5625421 0.129922 4.477833E-05
vn 0.4449016 0.3679617 0.0001262341
vn 0.4470264 0.3586294 -0.0698975
vn 0.5524586 0.1397927 -0.09263268
vn 0.3685786 0.1523917 -0.4174445
vn 0.289892 0.3720296 -0.3330013
vn 0 0.3354465 0.4699031
vn -2.364438E-06 0.1179909 0.565165
vn 0 0.3391945 0.4672048
vn -0.05577589 0.3332188 0.4681747
vn -0.2898933 0.3717939 0.3332634
vn -0.1357506 0.5363761 0.1649413
vn -0.05577552 0.3335429 -0.4679439
vn 0 0.1183845 -0.5650826
vn 0 0.3395176 -0.4669701
vn -0.07323558 0.1291019 -0.557945
vn -0.3685755 0.1523903 -0.4174477
vn -0.2898921 0.3720259 -0.3330053
vn -0.05577552 0.3335429 -0.4679439
vn -0.1357503 0.5364904 -0.1645695
vn -0.2898921 0.3720259 -0.3330053
vn -0.03620246 0.5423896 -0.1945153
vn 0 0.5440159 -0.1933391
vn 0 0.3395176 -0.4669701
vn -0.4470257 0.3586297 -0.0699006
vn -0.2898921 0.3720259 -0.3330053
vn -0.1357503 0.5364904 -0.1645695
vn -0.1710405 0.5496785 -0.04395428
vn -0.1692366 0.5519893 0.0001907581
vn -0.4449011 0.3679623 0.0001262606
vn -0.448929 0.3630372 0.000125926
vn -0.1663997 0.5528511 0.0001919527
vn 0.569477 -0.004395161 0.09492067
vn 0.5733866 -0.06753589 -2.32205E-05
vn 0.5658512 -0.07134341 0.08975442
vn 0.5773293 -0.004927486 -1.663799E-06
vn 0.5773287 -0.004990365 -1.708689E-06
vn 0.5733864 -0.06753711 -2.33392E-05
vn 0.5733866 -0.06753597 -2.326925E-05
vn 0.562542 0.1299221 4.491228E-05
vn 0.5524589 0.1397286 0.09272752
vn 0.5621563 0.1315814 4.557253E-05
vn 0.5625421 0.129922 4.477833E-05
vn 0.5773293 -0.00492825 -1.714192E-06
vn 0.5694776 -0.004329192 -0.09492075
vn 0.5658514 -0.07127625 -0.08980626
vn 0.5524586 0.1397927 -0.09263268
vn 0.3749581 -0.072171 -0.4330487
vn 0.3685786 0.1523917 -0.4174445
vn 0.3847483 -0.0002727636 -0.4304672
vn 0.569477 -0.004395161 0.09492067
vn 0.5658512 -0.07134341 0.08975442
vn 0.3749638 -0.07247981 0.432992
vn 0.3847438 -0.0005703588 0.4304709
vn 0.3685782 0.1521101 0.4175475
vn 0.5524589 0.1397286 0.09272752
vn -0.4470246 0.3585825 0.07014878
vn -0.2898933 0.3717939 0.3332634
vn -0.3685752 0.1521013 0.4175533
vn -0.5524582 0.1397302 0.0927294
vn -0.5625427 0.1299195 4.489164E-05
vn -0.444901 0.3679623 0.0001276415
vn -0.448929 0.3630372 0.000125926
vn -0.5621561 0.1315823 4.560021E-05
vn -0.5625427 0.1299195 4.477822E-05
vn -0.4449011 0.3679623 0.0001262606
vn -0.4470257 0.3586297 -0.0699006
vn -0.5524589 0.1397913 -0.09263311
vn -0.3685755 0.1523903 -0.4174477
vn -0.2898921 0.3720259 -0.3330053
vn 0.4470264 0.3586294 -0.0698975
vn 0.1357497 0.5364909 -0.1645684
vn 0.289892 0.3720296 -0.3330013
vn 0.1710427 0.5496776 -0.0439564
vn 0.169238 0.5519889 0.0001909403
vn 0.4449016 0.3679617 0.0001262341
vn 0.4489292 0.363037 0.0001259262
vn 0.1664017 0.5528505 0.000191955
vn 0.1692378 0.551989 0.0001904879
vn 0.4449016 0.3679618 0.0001276703
vn 0.4470263 0.3585808 0.07014747
vn 0.1710407 0.549648 0.04433314
vn 0.13575 0.536375 0.1649457
vn 0.2898944 0.371793 0.3332632
vn 0.05577568 0.3335424 -0.4679443
vn 0.289892 0.3720296 -0.3330013
vn 0.1357497 0.5364909 -0.1645684
vn 0.036202 0.5423905 -0.1945127
vn 0 0.5440172 -0.1933355
vn 0 0.3395176 -0.4669701
vn 0 0.3357719 -0.4696707
vn 0 0.5448846 -0.190877
vn 3.107371E-07 0.5440152 -0.1933411
vn 0 0.3395177 -0.4669701
vn 0 0.3357714 -0.469671
vn 0 0.5448834 -0.1908806
vn 0 0.5440159 -0.1933391
vn 0 0.3395176 -0.4669701
vn 0.05577503 0.3332176 0.4681757
vn 0.2898944 0.371793 0.3332632
vn 0.3685782 0.1521101 0.4175475
vn 0.07323501 0.128726 0.5580319
vn 0 0.1180017 0.5651627
vn 0 0.3391945 0.4672048
vn 0 0.3354465 0.4699031
vn 0 0.1191587 0.5649199
vn -2.364438E-06 0.1179909 0.565165
vn 0 0.3354474 0.4699025
vn 0 0.3391945 0.4672048
vn 0 0.1191474 0.5649223
vn 0 0.1179908 0.565165
vn 0 0.3391942 0.467205
vn 0.05577503 0.3332176 0.4681757
vn 0.03619964 0.5422565 0.1948866
vn 0.13575 0.536375 0.1649457
vn 0.2898944 0.371793 0.3332632
vn 0.05577503 0.3332176 0.4681757
vn 0 0.5438828 0.1937129
vn 0.03619964 0.5422565 0.1948866
vn 0 0.3391945 0.4672048
vn 0 0.3354465 0.4699031
vn 0 0.5447521 0.1912548
vn 0 0.5438817 0.1937163
vn 0 0.3391945 0.4672048
vn 0 0.3354474 0.4699025
vn 0 0.5447519 0.1912554
vn 0 0.5438826 0.1937137
vn 0 0.3391942 0.467205
vn -0.05577589 0.3332188 0.4681747
vn -0.3685752 0.1521013 0.4175533
vn -0.2898933 0.3717939 0.3332634
vn -0.07323489 0.1287136 0.5580347
vn 0 0.1179908 0.565165
vn 0 0.3391942 0.467205
vn -0.05577589 0.3332188 0.4681747
vn 0 0.5438826 0.1937137
vn 0 0.3391942 0.467205
vn -0.03620121 0.5422559 0.1948878
vn -0.1357506 0.5363761 0.1649413
vn 0.05577568 0.3335424 -0.4679443
vn 0.3685786 0.1523917 -0.4174445
vn 0.289892 0.3720296 -0.3330013
vn 0.07323395 0.1291025 -0.557945
vn 0 0.1183839 -0.5650828
vn 0 0.3395176 -0.4669701
vn 0 0.3357719 -0.4696707
vn 0 0.1195405 -0.5648392
vn 0 0.118383 -0.565083
vn 0 0.3395177 -0.4669701
vn 0 0.3357714 -0.469671
vn 0 0.1195404 -0.5648392
vn 0 0.1183845 -0.5650826
vn 0 0.3395176 -0.4669701
vn -0.5694772 -0.004393648 0.09491979
vn -0.5658529 -0.07133704 0.08974858
vn -0.5733873 -0.06752997 -2.322051E-05
vn -0.3749598 -0.07245997 0.4329989
vn -0.3847395 -0.0005637093 0.4304748
vn -0.3685752 0.1521013 0.4175533
vn -0.5524582 0.1397302 0.0927294
vn -0.5625427 0.1299195 4.489164E-05
vn -0.5773292 -0.004929906 -1.68848E-06
vn -0.5773287 -0.004990733 -1.697884E-06
vn -0.5733867 -0.06753502 -2.333933E-05
vn -0.5621561 0.1315823 4.560021E-05
vn -0.573387 -0.06753252 -2.445812E-05
vn -0.5625427 0.1299195 4.477822E-05
vn -0.5773292 -0.004929824 -1.714179E-06
vn -0.5694768 -0.004337003 -0.09492433
vn -0.5658494 -0.07129469 -0.08980482
vn -0.5524589 0.1397913 -0.09263311
vn -0.3749559 -0.07217117 -0.4330505
vn -0.3685755 0.1523903 -0.4174477
vn -0.3847418 -0.0002737905 -0.4304731
vn 0.07576147 0.00322354 0.5723488
vn 0.06805646 -0.05068244 0.5710805
vn 0 -0.04502264 0.5755921
vn 0.3749638 -0.07247981 0.432992
vn 0.3847438 -0.0005703588 0.4304709
vn 0.3685782 0.1521101 0.4175475
vn 0.07323501 0.128726 0.5580319
vn 0 0.1180017 0.5651627
vn 0 0.00385389 0.5773374
vn -1.115276E-06 0.003883623 0.5773372
vn 0 -0.0450227 0.5755921
vn 0 0.1191587 0.5649199
vn -2.008796E-06 -0.04500481 0.5755935
vn -2.364438E-06 0.1179909 0.565165
vn -4.266541E-06 0.003853885 0.5773374
vn 0 0.003883532 0.5773372
vn 0 -0.04500209 0.5755938
vn 0 0.1191474 0.5649223
vn -2.173328E-06 -0.04500555 0.5755935
vn 0 0.1179908 0.565165
vn 0 0.003853921 0.5773374
vn -0.02796619 0.5757571 -0.03247872
vn 0 0.5440159 -0.1933391
vn 0 0.5763606 -0.03378845
vn -0.03620246 0.5423896 -0.1945153
vn -0.1357503 0.5364904 -0.1645695
vn -0.1710405 0.5496785 -0.04395428
vn 0 0.5773502 0.0001997715
vn -0.1692366 0.5519893 0.0001907581
vn -0.02892926 0.5766249 0.0001997016
vn -0.02907835 0.5766174 0.0001998255
vn 0 0.5773502 0.0001988915
vn -0.1663997 0.5528511 0.0001919527
vn -0.1692369 0.5519893 0.0001907172
vn -0.448929 0.3630372 0.000125926
vn -0.444901 0.3679623 0.0001276415
vn 0 0.5773502 0.0001996804
vn -0.4470246 0.3585825 0.07014878
vn -0.02892991 0.5766249 0.0002002015
vn -0.02796613 0.5757347 0.03287458
vn 0 0.5763372 0.034185
vn 0 0.5438826 0.1937137
vn -0.03620121 0.5422559 0.1948878
vn -0.1357506 0.5363761 0.1649413
vn -0.1710391 0.5496485 0.04433266
vn -0.07575957 0.003615387 -0.5723467
vn -0.0680536 -0.0502748 -0.5711169
vn 0 -0.04461358 -0.575624
vn 0 0.004248669 -0.5773346
vn -0.3749559 -0.07217117 -0.4330505
vn 0 0.1183845 -0.5650826
vn -0.3847418 -0.0002737905 -0.4304731
vn -0.07323558 0.1291019 -0.557945
vn -0.3685755 0.1523903 -0.4174477
vn 0.02796647 0.5757571 -0.03247895
vn 0.036202 0.5423905 -0.1945127
vn 0.1357497 0.5364909 -0.1645684
vn 0.1710427 0.5496776 -0.0439564
vn 0 0.5440172 -0.1933355
vn 0.169238 0.5519889 0.0001909403
vn 0 0.5763606 -0.03378798
vn 1.390858E-07 0.5763521 -0.03393383
vn 0 0.5773502 0.0001997737
vn 0 0.5448846 -0.190877
vn 3.107371E-07 0.5440152 -0.1933411
vn 0.02892935 0.5766249 0.0001997039
vn 0.02907833 0.5766174 0.0002000939
vn 0.1664017 0.5528505 0.000191955
vn 0.1692378 0.551989 0.0001904879
vn 3.639799E-07 0.5763606 -0.03378874
vn 0 0.5763521 -0.0339341
vn 0 0.5773502 0.0001997719
vn 0 0.5448834 -0.1908806
vn 0 0.5440159 -0.1933391
vn 0 0.5763606 -0.03378845
vn 0 0.5773502 0.0001997715
vn 0 0.5773502 0.0001997709
vn 0 0.5773502 0.0001998619
vn 0 0.5773502 0.0001988915
vn 0 0.5773502 0.0001996804
vn 0 0.5773502 0.0001997747
vn 0 0.5773502 0.0001998634
vn 0 0.5773502 0.0001988912
vn 0 0.5773502 0.0001996804
vn 0 0.5773502 0.000200651
vn 0 0.5763286 0.03433046
vn 0 0.5763372 0.034185
vn 0 0.5438826 0.1937137
vn 0 0.5447519 0.1912554
vn 0 0.5438817 0.1937163
vn 0 0.5763372 0.03418506
vn 0 0.5763286 0.03433035
vn 0 0.5447521 0.1912548
vn 0 0.5438828 0.1937129
vn 0 0.5773502 0.000200653
vn 0 0.5773502 0.0001996805
vn 0 0.5763372 0.03418501
vn 0.02796633 0.5757347 0.0328745
vn 0.03619964 0.5422565 0.1948866
vn 0.13575 0.536375 0.1649457
vn 0.1710407 0.549648 0.04433314
vn 0.02892986 0.5766249 0.0002002018
vn 0 0.5773502 0.0001988912
vn 0.07575897 0.003606951 -0.5723468
vn 0.06804696 -0.05029688 -0.5711157
vn 0.3749581 -0.072171 -0.4330487
vn 0.3847483 -0.0002727636 -0.4304672
vn 0.3685786 0.1523917 -0.4174445
vn 0.07323395 0.1291025 -0.557945
vn 0 -0.04463415 -0.5756224
vn 0 0.1183839 -0.5650828
vn 0 0.004237971 -0.5773347
vn 2.042958E-06 0.004268928 -0.5773345
vn 5.657988E-06 -0.04463448 -0.5756224
vn 0 0.1195405 -0.5648392
vn 1.482858E-06 -0.04461635 -0.5756238
vn 0 0.118383 -0.565083
vn 0 0.004248664 -0.5773346
vn 0 0.004278453 -0.5773344
vn 0 -0.04461348 -0.575624
vn 0 0.1195404 -0.5648392
vn 0 -0.04461358 -0.575624
vn 0 0.1183845 -0.5650826
vn 0 0.004248669 -0.5773346
vn -0.07575908 0.003214481 0.5723492
vn -0.06805742 -0.05068635 0.5710801
vn -0.3749598 -0.07245997 0.4329989
vn -0.3847395 -0.0005637093 0.4304748
vn -2.173328E-06 -0.04500555 0.5755935
vn -0.3685752 0.1521013 0.4175533
vn 0 0.003853921 0.5773374
vn -0.07323489 0.1287136 0.5580347
vn 0 0.1179908 0.565165
vt 0.9839333 0.7701557
vt 1.026855 0.8268394
vt 1.052831 0.7966677
vt 0.9839333 0.9192445
vt 0.9930619 0.9565117
vt 1.065383 0.9565117
vt 0.9839333 0.9192445
vt 1.065383 0.9565117
vt 1.052831 0.9192445
vt 0.896634 0.9565117
vt 0.9930619 0.9565117
vt 0.8920697 0.9192445
vt 0.8002061 0.9192445
vt 0.8002061 0.9565117
vt 0.7037781 0.9565117
vt 0.7083424 0.9192445
vt 0.6164788 0.9192445
vt 0.6073502 0.9565117
vt 0.5350293 0.9565117
vt 0.547581 0.9192445
vt 0.3003957 0.9192445
vt 0.1943479 0.9565117
vt 0.1943479 0.9192445
vt 0.07579708 0.8762038
vt 0.05283117 0.7966677
vt 0.02685452 0.8268394
vt 0.8762038 0.9192445
vt 0.9746668 0.9565117
vt 0.9822518 0.9192445
vt 0.8648264 0.9565117
vt 0.782446 0.9565117
vt 0.7966678 0.9192445
vt 0.5246151 0.8762038
vt 0.5735576 0.8268394
vt 0.547581 0.7966678
vt 0.5597524 0.8875811
vt 0.5597524 0.9898366
vt 0.5246151 0.9822518
vt 0.6164788 0.7701557
vt 0.547581 0.7966678
vt 0.5735576 0.8268394
vt 0.6256073 0.8105733
vt 0.7129067 0.8105733
vt 0.7083424 0.7701557
vt 0.8002061 0.7701557
vt 0.8002061 0.8105733
vt 0.9961047 6.508827E-05
vt 0.8968592 0.04676127
vt 0.9935123 0.04676127
vt 0.8981554 6.508827E-05
vt 0.8002061 6.508827E-05
vt 0.8002061 0.04676127
vt 0.703553 0.04676127
vt 0.896634 -0.04348826
vt 0.9930619 -0.04348826
vt 0.8002061 -0.04348826
vt 0.7037781 -0.04348826
vt 0.7022567 6.508827E-05
vt 0.6043074 6.508827E-05
vt 0.6068998 0.04676127
vt 0.6073502 -0.04348826
vt 0.5344099 0.04676127
vt 0.5350293 -0.04348826
vt 0.5308454 6.508827E-05
vt 0.9961047 6.508827E-05
vt 0.9935123 0.04676127
vt 1.066002 0.04676127
vt 1.069567 6.508827E-05
vt 1.065383 -0.04348826
vt 0.9930619 -0.04348826
vt 0.9839333 0.9192445
vt 1.052831 0.9192445
vt 1.065383 0.9565117
vt 0.9930619 0.9565117
vt 0.896634 0.9565117
vt 0.8920697 0.9192445
vt 0.8002061 0.9192445
vt 0.8002061 0.9565117
vt 0.7037781 0.9565117
vt 0.7083424 0.9192445
vt 0.6164788 0.9192445
vt 0.6073502 0.9565117
vt 0.5350293 0.9565117
vt 0.547581 0.9192445
vt 0.6164788 0.6185398
vt 0.5735576 0.561856
vt 0.547581 0.5920277
vt 0.6256073 0.5781221
vt 0.7129067 0.5781221
vt 0.7083424 0.6185398
vt 0.8002061 0.6185398
vt 0.8002061 0.5781221
vt 0.8875054 0.5781221
vt 0.8920697 0.6185398
vt 0.9839333 0.6185398
vt 0.9748048 0.5781221
vt 1.026855 0.561856
vt 1.052831 0.5920277
vt 0.5246151 0.5124917
vt 0.547581 0.5920277
vt 0.5735576 0.561856
vt 0.5597524 0.5011144
vt 0.5597524 0.398859
vt 0.5246151 0.4064436
vt 0.5246151 0.3003957
vt 0.5597524 0.2966032
vt 0.5597524 0.1943479
vt 0.5246151 0.1943479
vt 0.5246151 0.08829975
vt 0.5597524 0.09209204
vt 0.5597524 -0.01016343
vt 0.5246151 -0.01774824
vt 0.5124917 0.9192445
vt 0.5920277 0.9192445
vt 0.6062493 0.9565117
vt 0.523869 0.9565117
vt 0.4140286 0.9565117
vt 0.4064436 0.9192445
vt 0.3003957 0.9192445
vt 0.3041883 0.9565117
vt 0.1943479 0.9565117
vt 0.08829975 0.9192445
vt 0.1943479 0.9192445
vt 0.08450723 0.9565117
vt -0.02533317 0.9565117
vt -0.01774824 0.9192445
vt 0.07579708 0.5124917
vt 0.04065967 0.5011144
vt 0.02685452 0.561856
vt 0.05283117 0.5920277
vt 0.07579708 0.5124917
vt 0.04065967 0.398859
vt 0.04065967 0.5011144
vt 0.07579708 0.4064436
vt 0.07579708 0.3003957
vt 0.04065967 0.2966032
vt 0.04065967 0.1943479
vt 0.07579708 0.1943479
vt 0.07579708 0.08829975
vt 0.04065967 0.09209204
vt 0.04065967 -0.01016343
vt 0.07579708 -0.01774824
vt 0.8762038 0.9192445
vt 0.782446 0.9565117
vt 0.7966677 0.9192445
vt 0.8648264 0.9565117
vt 0.9746668 0.9565117
vt 0.9822518 0.9192445
vt 0.07579708 0.8762038
vt 0.04065967 0.9898366
vt 0.07579708 0.9822518
vt 0.04065967 0.8875811
vt 0.02685452 0.8268394
vt 0.5124917 0.9192445
vt 0.6062493 0.9565117
vt 0.5920277 0.9192445
vt 0.523869 0.9565117
vt 0.4140286 0.9565117
vt 0.4064436 0.9192445
vt 0.3003957 0.9192445
vt 0.3041883 0.9565117
vt 0.1943479 0.9565117
vt 0.1943479 0.9192445
vt 0.08829975 0.9192445
vt 0.08450723 0.9565117
vt -0.02533317 0.9565117
vt -0.01774824 0.9192445
vt 0.9961047 6.508827E-05
vt 0.9935123 0.04676127
vt 0.8968592 0.04676127
vt 1.066002 0.04676127
vt 1.069567 6.508827E-05
vt 1.065383 -0.04348826
vt 0.9930619 -0.04348826
vt 0.896634 -0.04348826
vt 0.8981554 6.508827E-05
vt 0.8002061 6.508827E-05
vt 0.8002061 0.04676127
vt 0.8002061 -0.04348826
vt 0.703553 0.04676127
vt 0.7037781 -0.04348826
vt 0.7022567 6.508827E-05
vt 0.6043074 6.508827E-05
vt 0.6068998 0.04676127
vt 0.6073502 -0.04348826
vt 0.5344099 0.04676127
vt 0.5350293 -0.04348826
vt 0.5308454 6.508827E-05
vt 0.5276616 6.508827E-05
vt 0.5232506 0.04676127
vt 0.4136164 0.04676127
vt 0.6054764 0.04676127
vt 0.61099 6.508827E-05
vt 0.6062493 -0.04348826
vt 0.523869 -0.04348826
vt 0.4140286 -0.04348826
vt 0.4165568 6.508827E-05
vt 0.3054523 6.508827E-05
vt 0.303982 0.04676127
vt 0.3041883 -0.04348826
vt 0.1943479 0.04676127
vt 0.1943479 -0.04348826
vt 0.1943479 6.508827E-05
vt 0.08324313 6.508827E-05
vt 0.08471346 0.04676127
vt 0.08450723 -0.04348826
vt -0.02492094 0.04676127
vt -0.02533317 -0.04348826
vt -0.02786148 6.508827E-05
vt 0.6286502 0.8913735
vt 0.5597524 0.9898366
vt 0.6286502 0.9923649
vt 0.5597524 0.8875811
vt 0.5735576 0.8268394
vt 0.6256073 0.8105733
vt 0.7144281 0.9923649
vt 0.7129067 0.8105733
vt 0.7144281 0.8913735
vt 0.8002061 0.8913735
vt 0.8002061 0.9923649
vt 0.8002061 0.8105733
vt 0.8875054 0.8105733
vt 0.8002061 0.7701557
vt 0.8920697 0.7701557
vt 0.885984 0.9923649
vt 0.9839333 0.7701557
vt 0.885984 0.8913735
vt 0.9717619 0.8913735
vt 0.9717619 0.9923649
vt 1.04066 0.9898366
vt 1.04066 0.8875811
vt 1.026855 0.8268394
vt 0.9748048 0.8105733
vt 0.8610339 6.508827E-05
vt 0.8654448 0.04676127
vt 0.9750791 0.04676127
vt 0.9721385 6.508827E-05
vt 0.7832191 0.04676127
vt 0.9746668 -0.04348826
vt 0.7777054 6.508827E-05
vt 0.8648264 -0.04348826
vt 0.782446 -0.04348826
vt 0.6286502 0.4973221
vt 0.5597524 0.5011144
vt 0.5735576 0.561856
vt 0.6256073 0.5781221
vt 0.5597524 0.398859
vt 0.7129067 0.5781221
vt 0.6286502 0.3963306
vt 0.6286502 0.2953391
vt 0.7144281 0.3963306
vt 0.5597524 0.2966032
vt 0.5597524 0.1943479
vt 0.7144281 0.4973221
vt 0.8002061 0.4973221
vt 0.8002061 0.5781221
vt 0.8875054 0.5781221
vt 0.6286502 0.1943479
vt 0.6286502 0.09335637
vt 0.7144281 0.1943479
vt 0.5597524 0.09209204
vt 0.5597524 -0.01016343
vt 0.6286502 -0.007635117
vt 0.7144281 -0.007635117
vt 0.7144281 0.09335637
vt 0.8002061 0.09335637
vt 0.8002061 -0.007635117
vt 0.885984 -0.007635117
vt 0.7144281 0.2953391
vt 0.8002061 0.2953391
vt 0.8002061 0.1943479
vt 0.885984 0.1943479
vt 0.885984 0.09335637
vt 0.9717619 0.09335637
vt 0.9717619 -0.007635117
vt 1.04066 -0.01016343
vt 1.04066 0.09209204
vt 1.04066 0.1943479
vt 0.9717619 0.1943479
vt 0.9717619 0.2953391
vt 1.04066 0.2966032
vt 1.04066 0.398859
vt 0.885984 0.2953391
vt 0.885984 0.3963306
vt 0.9717619 0.3963306
vt 0.9717619 0.4973221
vt 1.04066 0.5011144
vt 1.026855 0.561856
vt 0.9748048 0.5781221
vt 0.885984 0.4973221
vt 0.8002061 0.3963306
vt 0.5276616 6.508827E-05
vt 0.5232506 0.04676127
vt 0.6054764 0.04676127
vt 0.61099 6.508827E-05
vt 0.6062493 -0.04348826
vt 0.523869 -0.04348826
vt 0.4136164 0.04676127
vt 0.4140286 -0.04348826
vt 0.4165568 6.508827E-05
vt 0.3054523 6.508827E-05
vt 0.303982 0.04676127
vt 0.3041883 -0.04348826
vt 0.1943479 0.04676127
vt 0.1943479 -0.04348826
vt 0.1943479 6.508827E-05
vt 0.08324313 6.508827E-05
vt 0.08471346 0.04676127
vt 0.08450723 -0.04348826
vt -0.02492094 0.04676127
vt -0.02533317 -0.04348826
vt -0.02786148 6.508827E-05
vt 0.8610339 6.508827E-05
vt 0.8654448 0.04676127
vt 0.7832191 0.04676127
vt 0.7777054 6.508827E-05
vt 0.9750791 0.04676127
vt 0.782446 -0.04348826
vt 0.9721385 6.508827E-05
vt 0.8648264 -0.04348826
vt 0.9746668 -0.04348826
usemtl HammeredMetal_AlbedoTransparency
f 3/3/3 2/2/2 1/1/1
f 6/6/6 5/5/5 4/4/4
f 9/9/9 8/8/8 7/7/7
f 11/11/11 10/10/10 7/7/7
f 10/10/10 12/12/12 7/7/7
f 12/12/12 10/10/10 13/13/13
f 10/10/10 14/14/14 13/13/13
f 14/14/14 15/15/15 13/13/13
f 15/15/15 16/16/16 13/13/13
f 16/16/16 15/15/15 17/17/17
f 15/15/15 18/18/18 17/17/17
f 18/18/18 19/19/19 17/17/17
f 19/19/19 20/20/20 17/17/17
f 23/23/23 22/22/22 21/21/21
f 26/26/26 25/25/25 24/24/24
f 29/29/29 28/28/28 27/27/27
f 28/28/28 30/30/30 27/27/27
f 30/30/30 31/31/31 27/27/27
f 31/31/31 32/32/32 27/27/27
f 35/35/35 34/34/34 33/33/33
f 34/34/34 36/36/36 33/33/33
f 36/36/36 37/37/37 33/33/33
f 37/37/37 38/38/38 33/33/33
f 41/41/41 40/40/40 39/39/39
f 42/42/42 41/41/41 39/39/39
f 43/43/43 42/42/42 39/39/39
f 44/44/44 43/43/43 39/39/39
f 43/43/43 44/44/44 45/45/45
f 46/46/46 43/43/43 45/45/45
f 49/49/49 48/48/48 47/47/47
f 48/48/48 50/50/50 47/47/47
f 50/50/50 48/48/48 51/51/51
f 48/48/48 52/52/52 51/51/51
f 52/52/52 53/53/53 51/51/51
f 50/50/50 54/54/54 47/47/47
f 54/54/54 50/50/50 51/51/51
f 54/54/54 55/55/55 47/47/47
f 56/56/56 54/54/54 51/51/51
f 57/57/57 56/56/56 51/51/51
f 53/53/53 58/58/58 51/51/51
f 58/58/58 57/57/57 51/51/51
f 58/58/58 53/53/53 59/59/59
f 57/57/57 58/58/58 59/59/59
f 53/53/53 60/60/60 59/59/59
f 61/61/61 57/57/57 59/59/59
f 60/60/60 62/62/62 59/59/59
f 63/63/63 61/61/61 59/59/59
f 62/62/62 64/64/64 59/59/59
f 64/64/64 63/63/63 59/59/59
f 67/67/67 66/66/66 65/65/65
f 68/68/68 67/67/67 65/65/65
f 69/69/69 68/68/68 65/65/65
f 70/70/70 69/69/69 65/65/65
f 73/73/73 72/72/72 71/71/71
f 74/74/74 73/73/73 71/71/71
f 75/75/75 74/74/74 71/71/71
f 76/76/76 75/75/75 71/71/71
f 75/75/75 76/76/76 77/77/77
f 78/78/78 75/75/75 77/77/77
f 79/79/79 78/78/78 77/77/77
f 80/80/80 79/79/79 77/77/77
f 79/79/79 80/80/80 81/81/81
f 82/82/82 79/79/79 81/81/81
f 83/83/83 82/82/82 81/81/81
f 84/84/84 83/83/83 81/81/81
f 87/87/87 86/86/86 85/85/85
f 86/86/86 88/88/88 85/85/85
f 88/88/88 89/89/89 85/85/85
f 89/89/89 90/90/90 85/85/85
f 90/90/90 89/89/89 91/91/91
f 89/89/89 92/92/92 91/91/91
f 92/92/92 93/93/93 91/91/91
f 93/93/93 94/94/94 91/91/91
f 94/94/94 93/93/93 95/95/95
f 93/93/93 96/96/96 95/95/95
f 96/96/96 97/97/97 95/95/95
f 97/97/97 98/98/98 95/95/95
f 101/101/101 100/100/100 99/99/99
f 102/102/102 101/101/101 99/99/99
f 103/103/103 102/102/102 99/99/99
f 104/104/104 103/103/103 99/99/99
f 103/103/103 104/104/104 105/105/105
f 106/106/106 103/103/103 105/105/105
f 107/107/107 106/106/106 105/105/105
f 108/108/108 107/107/107 105/105/105
f 107/107/107 108/108/108 109/109/109
f 110/110/110 107/107/107 109/109/109
f 111/111/111 110/110/110 109/109/109
f 112/112/112 111/111/111 109/109/109
f 115/115/115 114/114/114 113/113/113
f 116/116/116 115/115/115 113/113/113
f 117/117/117 116/116/116 113/113/113
f 118/118/118 117/117/117 113/113/113
f 117/117/117 118/118/118 119/119/119
f 120/120/120 117/117/117 119/119/119
f 121/121/121 120/120/120 119/119/119
f 121/121/121 123/123/123 122/122/122
f 124/124/124 121/121/121 122/122/122
f 125/125/125 124/124/124 122/122/122
f 126/126/126 125/125/125 122/122/122
f 129/129/129 128/128/128 127/127/127
f 130/130/130 129/129/129 127/127/127
f 133/133/133 132/132/132 131/131/131
f 132/132/132 134/134/134 131/131/131
f 134/134/134 132/132/132 135/135/135
f 132/132/132 136/136/136 135/135/135
f 136/136/136 137/137/137 135/135/135
f 137/137/137 138/138/138 135/135/135
f 138/138/138 137/137/137 139/139/139
f 137/137/137 140/140/140 139/139/139
f 140/140/140 141/141/141 139/139/139
f 141/141/141 142/142/142 139/139/139
f 145/145/145 144/144/144 143/143/143
f 144/144/144 146/146/146 143/143/143
f 146/146/146 147/147/147 143/143/143
f 147/147/147 148/148/148 143/143/143
f 151/151/151 150/150/150 149/149/149
f 150/150/150 152/152/152 149/149/149
f 152/152/152 153/153/153 149/149/149
f 156/156/156 155/155/155 154/154/154
f 155/155/155 157/157/157 154/154/154
f 157/157/157 158/158/158 154/154/154
f 158/158/158 159/159/159 154/154/154
f 159/159/159 158/158/158 160/160/160
f 158/158/158 161/161/161 160/160/160
f 161/161/161 162/162/162 160/160/160
f 162/162/162 163/163/163 160/160/160
f 163/163/163 162/162/162 164/164/164
f 162/162/162 165/165/165 164/164/164
f 165/165/165 166/166/166 164/164/164
f 166/166/166 167/167/167 164/164/164
f 170/170/170 169/169/169 168/168/168
f 169/169/169 171/171/171 168/168/168
f 171/171/171 172/172/172 168/168/168
f 172/172/172 173/173/173 168/168/168
f 173/173/173 174/174/174 168/168/168
f 174/174/174 175/175/175 168/168/168
f 176/176/176 170/170/170 168/168/168
f 175/175/175 176/176/176 168/168/168
f 170/170/170 176/176/176 177/177/177
f 176/176/176 175/175/175 177/177/177
f 178/178/178 170/170/170 177/177/177
f 175/175/175 179/179/179 177/177/177
f 180/180/180 178/178/178 177/177/177
f 179/179/179 181/181/181 177/177/177
f 182/182/182 180/180/180 177/177/177
f 181/181/181 182/182/182 177/177/177
f 180/180/180 182/182/182 183/183/183
f 182/182/182 181/181/181 183/183/183
f 184/184/184 180/180/180 183/183/183
f 181/181/181 185/185/185 183/183/183
f 186/186/186 184/184/184 183/183/183
f 185/185/185 187/187/187 183/183/183
f 188/188/188 186/186/186 183/183/183
f 187/187/187 188/188/188 183/183/183
f 191/191/191 190/190/190 189/189/189
f 190/190/190 192/192/192 189/189/189
f 192/192/192 193/193/193 189/189/189
f 193/193/193 194/194/194 189/189/189
f 194/194/194 195/195/195 189/189/189
f 195/195/195 196/196/196 189/189/189
f 197/197/197 191/191/191 189/189/189
f 196/196/196 197/197/197 189/189/189
f 191/191/191 197/197/197 198/198/198
f 197/197/197 196/196/196 198/198/198
f 199/199/199 191/191/191 198/198/198
f 196/196/196 200/200/200 198/198/198
f 201/201/201 199/199/199 198/198/198
f 200/200/200 202/202/202 198/198/198
f 203/203/203 201/201/201 198/198/198
f 202/202/202 203/203/203 198/198/198
f 201/201/201 203/203/203 204/204/204
f 203/203/203 202/202/202 204/204/204
f 205/205/205 201/201/201 204/204/204
f 202/202/202 206/206/206 204/204/204
f 207/207/207 205/205/205 204/204/204
f 206/206/206 208/208/208 204/204/204
f 209/209/209 207/207/207 204/204/204
f 208/208/208 209/209/209 204/204/204
f 212/212/212 211/211/211 210/210/210
f 211/211/211 213/213/213 210/210/210
f 213/213/213 214/214/214 210/210/210
f 214/214/214 215/215/215 210/210/210
f 216/216/216 212/212/212 210/210/210
f 215/215/215 217/217/217 210/210/210
f 218/218/218 216/216/216 210/210/210
f 217/217/217 218/218/218 210/210/210
f 216/216/216 218/218/218 219/219/219
f 218/218/218 217/217/217 219/219/219
f 220/220/220 216/216/216 219/219/219
f 217/217/217 221/221/221 219/219/219
f 221/221/221 222/222/222 219/219/219
f 222/222/222 221/221/221 223/223/223
f 224/224/224 222/222/222 223/223/223
f 225/225/225 220/220/220 219/219/219
f 222/222/222 224/224/224 226/226/226
f 227/227/227 225/225/225 219/219/219
f 222/222/222 227/227/227 219/219/219
f 225/225/225 227/227/227 228/228/228
f 227/227/227 222/222/222 228/228/228
f 229/229/229 225/225/225 228/228/228
f 230/230/230 229/229/229 228/228/228
f 231/231/231 230/230/230 228/228/228
f 232/232/232 231/231/231 228/228/228
f 233/233/233 222/222/222 226/226/226
f 222/222/222 233/233/233 228/228/228
f 232/232/232 233/233/233 226/226/226
f 233/233/233 232/232/232 228/228/228
f 236/236/236 235/235/235 234/234/234
f 237/237/237 236/236/236 234/234/234
f 235/235/235 238/238/238 234/234/234
f 239/239/239 237/237/237 234/234/234
f 238/238/238 240/240/240 234/234/234
f 241/241/241 239/239/239 234/234/234
f 240/240/240 242/242/242 234/234/234
f 242/242/242 241/241/241 234/234/234
f 245/245/245 244/244/244 243/243/243
f 246/246/246 245/245/245 243/243/243
f 244/244/244 247/247/247 243/243/243
f 248/248/248 246/246/246 243/243/243
f 247/247/247 249/249/249 243/243/243
f 249/249/249 247/247/247 250/250/250
f 249/249/249 251/251/251 243/243/243
f 251/251/251 249/249/249 250/250/250
f 247/247/247 252/252/252 250/250/250
f 252/252/252 253/253/253 250/250/250
f 254/254/254 248/248/248 243/243/243
f 251/251/251 254/254/254 243/243/243
f 248/248/248 254/254/254 255/255/255
f 254/254/254 251/251/251 255/255/255
f 256/256/256 248/248/248 255/255/255
f 257/257/257 256/256/256 255/255/255
f 253/253/253 258/258/258 250/250/250
f 258/258/258 253/253/253 259/259/259
f 258/258/258 260/260/260 250/250/250
f 260/260/260 258/258/258 259/259/259
f 253/253/253 261/261/261 259/259/259
f 261/261/261 262/262/262 259/259/259
f 262/262/262 263/263/263 259/259/259
f 263/263/263 264/264/264 259/259/259
f 264/264/264 265/265/265 259/259/259
f 265/265/265 260/260/260 259/259/259
f 265/265/265 264/264/264 266/266/266
f 260/260/260 265/265/265 266/266/266
f 264/264/264 267/267/267 266/266/266
f 267/267/267 268/268/268 266/266/266
f 260/260/260 269/269/269 250/250/250
f 269/269/269 260/260/260 270/270/270
f 269/269/269 251/251/251 250/250/250
f 251/251/251 269/269/269 270/270/270
f 271/271/271 260/260/260 266/266/266
f 260/260/260 271/271/271 270/270/270
f 272/272/272 271/271/271 266/266/266
f 271/271/271 272/272/272 270/270/270
f 268/268/268 273/273/273 266/266/266
f 273/273/273 272/272/272 266/266/266
f 273/273/273 268/268/268 274/274/274
f 272/272/272 273/273/273 274/274/274
f 268/268/268 275/275/275 274/274/274
f 275/275/275 276/276/276 274/274/274
f 276/276/276 277/277/277 274/274/274
f 277/277/277 278/278/278 274/274/274
f 278/278/278 279/279/279 274/274/274
f 279/279/279 272/272/272 274/274/274
f 279/279/279 278/278/278 280/280/280
f 272/272/272 279/279/279 280/280/280
f 278/278/278 281/281/281 280/280/280
f 281/281/281 282/282/282 280/280/280
f 272/272/272 283/283/283 270/270/270
f 283/283/283 272/272/272 280/280/280
f 283/283/283 284/284/284 270/270/270
f 284/284/284 283/283/283 280/280/280
f 282/282/282 285/285/285 280/280/280
f 285/285/285 284/284/284 280/280/280
f 285/285/285 282/282/282 286/286/286
f 284/284/284 285/285/285 286/286/286
f 282/282/282 287/287/287 286/286/286
f 287/287/287 288/288/288 286/286/286
f 288/288/288 289/289/289 286/286/286
f 289/289/289 257/257/257 286/286/286
f 257/257/257 290/290/290 286/286/286
f 290/290/290 284/284/284 286/286/286
f 290/290/290 257/257/257 255/255/255
f 284/284/284 290/290/290 255/255/255
f 284/284/284 291/291/291 270/270/270
f 291/291/291 284/284/284 255/255/255
f 291/291/291 251/251/251 270/270/270
f 251/251/251 291/291/291 255/255/255
f 294/294/294 293/293/293 292/292/292
f 295/295/295 294/294/294 292/292/292
f 296/296/296 295/295/295 292/292/292
f 297/297/297 296/296/296 292/292/292
f 293/293/293 298/298/298 292/292/292
f 299/299/299 297/297/297 292/292/292
f 298/298/298 300/300/300 292/292/292
f 300/300/300 299/299/299 292/292/292
f 300/300/300 298/298/298 301/301/301
f 299/299/299 300/300/300 301/301/301
f 298/298/298 302/302/302 301/301/301
f 303/303/303 299/299/299 301/301/301
f 302/302/302 304/304/304 301/301/301
f 305/305/305 303/303/303 301/301/301
f 304/304/304 306/306/306 301/301/301
f 306/306/306 305/305/305 301/301/301
f 306/306/306 304/304/304 307/307/307
f 305/305/305 306/306/306 307/307/307
f 304/304/304 308/308/308 307/307/307
f 309/309/309 305/305/305 307/307/307
f 308/308/308 310/310/310 307/307/307
f 311/311/311 309/309/309 307/307/307
f 310/310/310 312/312/312 307/307/307
f 312/312/312 311/311/311 307/307/307
f 315/315/315 314/314/314 313/313/313
f 316/316/316 315/315/315 313/313/313
f 314/314/314 317/317/317 313/313/313
f 318/318/318 316/316/316 313/313/313
f 317/317/317 319/319/319 313/313/313
f 320/320/320 318/318/318 313/313/313
f 319/319/319 321/321/321 313/313/313
f 321/321/321 320/320/320 313/313/313
g Sphere.042_a1c75429
v 1.79677 0.78705 3.77917
v 1.79677 0.78889 3.77552
v 1.80589 0.78889 3.77299
v 1.80765 0.78705 3.77615
v 1.80765 0.77892 3.77615
v 1.79677 0.78705 3.77917
v 1.80765 0.78705 3.77615
v 1.79677 0.77892 3.77917
v 1.81562 0.77893 3.7679
v 1.80765 0.77892 3.77615
v 1.80765 0.78705 3.77615
v 1.81562 0.78705 3.7679
v 1.81853 0.77893 3.75663
v 1.81562 0.77893 3.7679
v 1.81562 0.78705 3.7679
v 1.81853 0.78706 3.75664
v 1.79677 0.77892 3.77917
v 1.7859 0.78705 3.77615
v 1.79677 0.78705 3.77917
v 1.7859 0.77892 3.77615
v 1.7859 0.78705 3.77615
v 1.79677 0.78889 3.77552
v 1.79677 0.78705 3.77917
v 1.78766 0.78889 3.77299
v 1.81562 0.78705 3.7679
v 1.81501 0.7889 3.75664
v 1.81853 0.78706 3.75664
v 1.81256 0.78889 3.76608
v 1.80765 0.78705 3.77615
v 1.80589 0.78889 3.77299
v 1.81256 0.78889 3.76608
v 1.81562 0.78705 3.7679
v 1.7859 0.77892 3.77615
v 1.77793 0.78705 3.7679
v 1.7859 0.78705 3.77615
v 1.77793 0.77893 3.7679
v 1.77793 0.78705 3.7679
v 1.78766 0.78889 3.77299
v 1.7859 0.78705 3.77615
v 1.78098 0.78889 3.76608
v 1.77793 0.77893 3.7679
v 1.77502 0.78706 3.75664
v 1.77793 0.78705 3.7679
v 1.77502 0.77893 3.75663
v 1.77502 0.78706 3.75664
v 1.78098 0.78889 3.76608
v 1.77793 0.78705 3.7679
v 1.77854 0.7889 3.75664
v 1.81853 0.78706 3.75664
v 1.81501 0.7889 3.75664
v 1.81256 0.7889 3.7472
v 1.81562 0.78706 3.74537
v 1.81256 0.7889 3.7472
v 1.81501 0.7889 3.75664
v 1.81256 0.78889 3.76608
v 1.80589 0.7889 3.74028
v 1.80589 0.78889 3.77299
v 1.79677 0.7889 3.73775
v 1.79677 0.78889 3.77552
v 1.78766 0.7889 3.74028
v 1.78766 0.78889 3.77299
v 1.78098 0.7889 3.7472
v 1.78098 0.78889 3.76608
v 1.77854 0.7889 3.75664
v 1.81562 0.78706 3.74537
v 1.81256 0.7889 3.7472
v 1.80589 0.7889 3.74028
v 1.80765 0.78706 3.73712
v 1.77502 0.77893 3.75663
v 1.77793 0.78706 3.74537
v 1.77502 0.78706 3.75664
v 1.77793 0.77894 3.74537
v 1.77793 0.78706 3.74537
v 1.77854 0.7889 3.75664
v 1.77502 0.78706 3.75664
v 1.78098 0.7889 3.7472
v 1.77793 0.77894 3.74537
v 1.7859 0.78706 3.73712
v 1.77793 0.78706 3.74537
v 1.7859 0.77894 3.73712
v 1.7859 0.78706 3.73712
v 1.78098 0.7889 3.7472
v 1.77793 0.78706 3.74537
v 1.78766 0.7889 3.74028
v 1.7859 0.77894 3.73712
v 1.79677 0.78706 3.7341
v 1.7859 0.78706 3.73712
v 1.79677 0.77894 3.7341
v 1.79677 0.78706 3.7341
v 1.78766 0.7889 3.74028
v 1.7859 0.78706 3.73712
v 1.79677 0.7889 3.73775
v 1.80765 0.78706 3.73712
v 1.80589 0.7889 3.74028
v 1.79677 0.7889 3.73775
v 1.79677 0.78706 3.7341
v 1.79677 0.77894 3.7341
v 1.80765 0.78706 3.73712
v 1.79677 0.78706 3.7341
v 1.80765 0.77894 3.73712
v 1.80765 0.77894 3.73712
v 1.81562 0.78706 3.74537
v 1.80765 0.78706 3.73712
v 1.81562 0.77894 3.74537
v 1.81562 0.77894 3.74537
v 1.81853 0.78706 3.75664
v 1.81562 0.78706 3.74537
v 1.81853 0.77893 3.75663
vn 1.868359 1.297649 4.014797
vn 1.868359 1.297649 4.014797
vn 1.868359 1.297649 4.014797
vn 1.868367 1.29765 4.014793
vn 1.951138 0.7860531 4.312962
vn 1.951138 0.7860531 4.312962
vn 1.951138 0.7860531 4.312962
vn 1.951174 0.7860531 4.312952
vn 2.212145 0.7860888 4.157626
vn 2.212145 0.7860888 4.157626
vn 2.212145 0.7860888 4.157626
vn 2.212121 0.7861077 4.15765
vn 2.355717 0.7861839 3.901238
vn 2.355717 0.7861839 3.901238
vn 2.355717 0.7861839 3.901238
vn 2.355719 0.7861652 3.90123
vn 1.64236 0.7860531 4.312951
vn 1.64236 0.7860531 4.312951
vn 1.64236 0.7860531 4.312951
vn 1.6424 0.7860579 4.312962
vn 1.725176 1.29765 4.014794
vn 1.725176 1.29765 4.014794
vn 1.725176 1.29765 4.014794
vn 1.725172 1.297653 4.014787
vn 2.062161 1.294316 3.825476
vn 2.062161 1.294316 3.825476
vn 2.062161 1.294316 3.825476
vn 2.062191 1.294301 3.825474
vn 1.991686 1.29597 3.945037
vn 1.991686 1.29597 3.945037
vn 1.991686 1.29597 3.945037
vn 1.991735 1.295953 3.945033
vn 1.381404 0.7861077 4.157636
vn 1.381404 0.7861077 4.157636
vn 1.381404 0.7861077 4.157636
vn 1.381414 0.7861077 4.157647
vn 1.601821 1.295966 3.945016
vn 1.601821 1.295966 3.945016
vn 1.601821 1.295966 3.945016
vn 1.60186 1.295974 3.945036
vn 1.237818 0.7861839 3.901225
vn 1.237818 0.7861839 3.901225
vn 1.237818 0.7861839 3.901225
vn 1.23782 0.7861652 3.901231
vn 1.531346 1.2943 3.825472
vn 1.531346 1.2943 3.825472
vn 1.531346 1.2943 3.825472
vn 1.531395 1.294328 3.825462
vn 2.062162 1.294363 3.688134
vn 2.062162 1.294363 3.688134
vn 2.062162 1.294363 3.688134
vn 2.062194 1.294346 3.688132
vn 1.796733 1.363571 3.756827
vn 1.796733 1.363571 3.756827
vn 1.796733 1.363571 3.756827
vn 1.796784 1.363571 3.756827
vn 1.796771 1.363571 3.756835
vn 1.796771 1.363571 3.756835
vn 1.796768 1.363571 3.756834
vn 1.796768 1.363571 3.756834
vn 1.796784 1.363571 3.756827
vn 1.796784 1.363571 3.756827
vn 1.796784 1.363571 3.756827
vn 1.796805 1.363571 3.756827
vn 1.991682 1.296109 3.568597
vn 1.991682 1.296109 3.568597
vn 1.991682 1.296109 3.568597
vn 1.9917 1.296124 3.568655
vn 1.23782 0.7862771 3.612031
vn 1.23782 0.7862771 3.612031
vn 1.23782 0.7862771 3.612031
vn 1.23782 0.7862584 3.61203
vn 1.531359 1.294355 3.688143
vn 1.531359 1.294355 3.688143
vn 1.531359 1.294355 3.688143
vn 1.531357 1.294354 3.688146
vn 1.381413 0.7863346 3.355618
vn 1.381413 0.7863346 3.355618
vn 1.381413 0.7863346 3.355618
vn 1.381414 0.7863346 3.355616
vn 1.601828 1.296101 3.568605
vn 1.601828 1.296101 3.568605
vn 1.601828 1.296101 3.568605
vn 1.601893 1.296144 3.568656
vn 1.64236 0.7863844 3.200312
vn 1.64236 0.7863844 3.200312
vn 1.64236 0.7863844 3.200312
vn 1.642351 0.7863892 3.200315
vn 1.725191 1.297866 3.498893
vn 1.72519 1.297866 3.498893
vn 1.725191 1.297866 3.498893
vn 1.725161 1.297846 3.498861
vn 1.86837 1.297875 3.498917
vn 1.86837 1.297875 3.498917
vn 1.86837 1.297875 3.498917
vn 1.868352 1.297848 3.498858
vn 1.951209 0.7863892 3.200321
vn 1.951209 0.7863892 3.200321
vn 1.951209 0.7863892 3.200321
vn 1.951152 0.7863892 3.200305
vn 2.212121 0.7863535 3.355613
vn 2.212121 0.7863535 3.355613
vn 2.212121 0.7863535 3.355613
vn 2.212134 0.7863346 3.355626
vn 2.355715 0.7862584 3.612019
vn 2.355715 0.7862584 3.612019
vn 2.355715 0.7862584 3.612019
vn 2.355718 0.7862771 3.612028
vt 0.3344746 0.3232667
vt 0.3344746 0.3269869
vt 0.343769 0.3295664
vt 0.3455654 0.3263447
vt 0.9317843 0.7575245
vt 0.9400597 0.7686067
vt 0.9400609 0.7575245
vt 0.9317832 0.7686067
vt 0.7323334 0.3123787
vt 0.7323306 0.3213531
vt 0.7411699 0.3213555
vt 0.7411732 0.3123811
vt 0.7323377 0.300119
vt 0.7323334 0.3123787
vt 0.7411732 0.3123811
vt 0.7411776 0.3001214
vt 0.9317832 0.7686067
vt 0.9400609 0.7796887
vt 0.9400597 0.7686067
vt 0.9317843 0.7796887
vt 0.3233839 0.3263447
vt 0.3344746 0.3269869
vt 0.3344746 0.3232667
vt 0.3251804 0.3295664
vt 0.3536844 0.334754
vt 0.3530634 0.3462409
vt 0.3566564 0.3462418
vt 0.3505727 0.3366137
vt 0.3455654 0.3263447
vt 0.343769 0.3295664
vt 0.3505727 0.3366137
vt 0.3536844 0.334754
vt 0.8629112 0.2788872
vt 0.8717539 0.2878592
vt 0.8717505 0.2788848
vt 0.862914 0.2878616
vt 0.3152647 0.334754
vt 0.3251804 0.3295664
vt 0.3233839 0.3263447
vt 0.3183764 0.3366137
vt 0.862914 0.2878616
vt 0.8717582 0.300119
vt 0.8717539 0.2878592
vt 0.8629183 0.3001214
vt 0.3122929 0.3462418
vt 0.3183764 0.3366137
vt 0.3152647 0.334754
vt 0.3158861 0.3462409
vt 0.3566564 0.3462418
vt 0.3530634 0.3462409
vt 0.3505729 0.3558672
vt 0.3536844 0.3577296
vt 0.3505729 0.3558672
vt 0.3530634 0.3462409
vt 0.3505727 0.3366137
vt 0.343769 0.3629145
vt 0.343769 0.3295664
vt 0.3344746 0.3654944
vt 0.3344746 0.3269869
vt 0.3251804 0.3629145
vt 0.3251804 0.3295664
vt 0.3183764 0.3558672
vt 0.3183764 0.3366137
vt 0.3158861 0.3462409
vt 0.3536844 0.3577296
vt 0.3505729 0.3558672
vt 0.343769 0.3629145
vt 0.3455654 0.3661388
vt 0.8629183 0.3001214
vt 0.871762 0.3123787
vt 0.8717582 0.300119
vt 0.8629226 0.3123811
vt 0.3152647 0.3577296
vt 0.3158861 0.3462409
vt 0.3122929 0.3462418
vt 0.3183764 0.3558672
vt 0.8629226 0.3123811
vt 0.8717653 0.3213531
vt 0.871762 0.3123787
vt 0.862926 0.3213555
vt 0.3233839 0.3661388
vt 0.3183764 0.3558672
vt 0.3152647 0.3577296
vt 0.3251804 0.3629145
vt 0.8097543 0.7796887
vt 0.8014767 0.7686067
vt 0.8014777 0.7796887
vt 0.8097532 0.7686067
vt 0.3344746 0.3692169
vt 0.3251804 0.3629145
vt 0.3233839 0.3661388
vt 0.3344746 0.3654944
vt 0.3455654 0.3661388
vt 0.343769 0.3629145
vt 0.3344746 0.3654944
vt 0.3344746 0.3692169
vt 0.8097532 0.7686067
vt 0.8014777 0.7575245
vt 0.8014767 0.7686067
vt 0.8097543 0.7575245
vt 0.7323454 0.2788848
vt 0.7411814 0.2878616
vt 0.7411847 0.2788872
vt 0.732342 0.2878592
vt 0.732342 0.2878592
vt 0.7411776 0.3001214
vt 0.7411814 0.2878616
vt 0.7323377 0.300119
usemtl HammeredMetal_AlbedoTransparency
f 324/324/324 323/323/323 322/322/322
f 325/325/325 324/324/324 322/322/322
f 328/328/328 327/327/327 326/326/326
f 327/327/327 329/329/329 326/326/326
f 332/332/332 331/331/331 330/330/330
f 333/333/333 332/332/332 330/330/330
f 336/336/336 335/335/335 334/334/334
f 337/337/337 336/336/336 334/334/334
f 340/340/340 339/339/339 338/338/338
f 339/339/339 341/341/341 338/338/338
f 344/344/344 343/343/343 342/342/342
f 343/343/343 345/345/345 342/342/342
f 348/348/348 347/347/347 346/346/346
f 347/347/347 349/349/349 346/346/346
f 352/352/352 351/351/351 350/350/350
f 353/353/353 352/352/352 350/350/350
f 356/356/356 355/355/355 354/354/354
f 355/355/355 357/357/357 354/354/354
f 360/360/360 359/359/359 358/358/358
f 359/359/359 361/361/361 358/358/358
f 364/364/364 363/363/363 362/362/362
f 363/363/363 365/365/365 362/362/362
f 368/368/368 367/367/367 366/366/366
f 367/367/367 369/369/369 366/366/366
f 372/372/372 371/371/371 370/370/370
f 373/373/373 372/372/372 370/370/370
f 376/376/376 375/375/375 374/374/374
f 374/374/374 377/377/377 376/376/376
f 377/377/377 378/378/378 376/376/376
f 377/377/377 379/379/379 378/378/378
f 379/379/379 380/380/380 378/378/378
f 379/379/379 381/381/381 380/380/380
f 381/381/381 382/382/382 380/380/380
f 381/381/381 383/383/383 382/382/382
f 383/383/383 384/384/384 382/382/382
f 383/383/383 385/385/385 384/384/384
f 388/388/388 387/387/387 386/386/386
f 389/389/389 388/388/388 386/386/386
f 392/392/392 391/391/391 390/390/390
f 391/391/391 393/393/393 390/390/390
f 396/396/396 395/395/395 394/394/394
f 395/395/395 397/397/397 394/394/394
f 400/400/400 399/399/399 398/398/398
f 399/399/399 401/401/401 398/398/398
f 404/404/404 403/403/403 402/402/402
f 403/403/403 405/405/405 402/402/402
f 408/408/408 407/407/407 406/406/406
f 407/407/407 409/409/409 406/406/406
f 412/412/412 411/411/411 410/410/410
f 411/411/411 413/413/413 410/410/410
f 416/416/416 415/415/415 414/414/414
f 417/417/417 416/416/416 414/414/414
f 420/420/420 419/419/419 418/418/418
f 419/419/419 421/421/421 418/418/418
f 424/424/424 423/423/423 422/422/422
f 423/423/423 425/425/425 422/422/422
f 428/428/428 427/427/427 426/426/426
f 427/427/427 429/429/429 426/426/426
